<svg id="Capa_1" enable-background="new 0 0 501 501" height="512" viewBox="0 0 501 501" width="512" xmlns="http://www.w3.org/2000/svg"><g><path d="m490 256c0 135.31-109.69 245-245 245s-245-109.69-245-245 109.69-245 245-245 245 109.69 245 245z" fill="#0ab59e"/><path d="m484.651 204.843c-23.527 110.753-121.886 193.842-239.651 193.842s-216.124-83.089-239.651-193.842c23.527-110.754 121.886-193.843 239.651-193.843s216.124 83.089 239.651 193.843z" fill="#0ed1b2"/><path d="m405 408.936v32.609c-42.926 37.05-98.847 59.455-160 59.455s-117.074-22.405-160-59.455v-32.609c0-38.66 31.34-70 70-70h180c38.66 0 70 31.339 70 70z" fill="#f5dc90"/><path d="m405 408.936v32.609c-42.926 37.05-98.847 59.455-160 59.455-47.757 0-92.322-13.665-130-37.296v-54.768c0-38.66 31.34-70 70-70h150c38.66 0 70 31.339 70 70z" fill="#f9eecf"/><path d="m250 385c0 2.761-2.239 5-5 5s-5-2.239-5-5 2.239-5 5-5 5 2.239 5 5zm-5 25c-2.761 0-5 2.239-5 5s2.239 5 5 5 5-2.239 5-5-2.239-5-5-5zm0 30c-2.761 0-5 2.239-5 5s2.239 5 5 5 5-2.239 5-5-2.239-5-5-5zm0 30c-2.761 0-5 2.239-5 5s2.239 5 5 5 5-2.239 5-5-2.239-5-5-5z" fill="#f3d373"/><path d="m350 340.546v97.85c0 25.462-17.093 47.784-41.695 54.345-15.547 4.147-31.703 6.803-48.305 7.806v-161.611h75c5.149 0 10.168.556 15 1.61zm-210 0v136.875c27.558 13.092 57.948 21.189 90 23.125v-161.61h-75c-5.149 0-10.168.556-15 1.61z" fill="#f52c2c"/><path d="m350 380.5v93.788c-4.912 2.333-9.915 4.508-15 6.518v-100.306c0-4.142 3.358-7.5 7.5-7.5s7.5 3.358 7.5 7.5zm-202.5-7.5c-4.142 0-7.5 3.358-7.5 7.5v96.923c4.912 2.333 9.915 4.508 15 6.518v-103.441c0-4.142-3.358-7.5-7.5-7.5z" fill="#a62b2b"/><path d="m209 338.936h21v161.612c-7.086-.428-14.09-1.157-21-2.175zm51 0v161.612c7.086-.428 14.09-1.157 21-2.175v-159.437z" fill="#fc5426"/><path d="m230 340 10 20-53.795 26.897c-3.052 1.526-6.703-.386-7.186-3.765l-7.875-55.124c-.526-3.68 3.005-6.626 6.531-5.45zm82.325-17.441-52.325 17.441-10 20 53.795 26.897c3.052 1.526 6.703-.386 7.186-3.765l7.875-55.124c.526-3.679-3.005-6.625-6.531-5.449z" fill="#f9eecf"/><path d="m200.533 379.733-14.328 7.164c-3.052 1.526-6.703-.386-7.186-3.765l-7.875-55.124c-.526-3.68 3.005-6.626 6.531-5.45l15.435 5.145c.008.101.019.203.034.305z" fill="#f5dc90"/><path d="m135 210c-13.807 0-25-11.193-25-25v-10c0-13.807 11.193-25 25-25 13.807 0 25 11.193 25 25v10c0 13.807-11.193 25-25 25z" fill="#efcfc8"/><path d="m125 170v20c0 8.178 3.927 15.439 9.998 20-13.806-.001-24.998-11.194-24.998-25v-10c0-13.807 11.192-24.999 24.998-25-6.071 4.561-9.998 11.822-9.998 20zm230-20c-.543 0-1.081.018-1.615.051-8.954-51.753-54.072-91.115-108.385-91.115-60.751 0-110 49.249-110 110v40c0 50.351 33.83 92.8 80 105.859v25.205c0 16.568 13.431 30 30 30s30-13.432 30-30v-25.206c45.844-12.966 79.522-54.911 79.995-104.794h.005c13.807 0 25-11.193 25-25v-10c0-13.807-11.193-25-25-25z" fill="#e1a595"/><path d="m355 168.936v40c0 34.751-16.114 65.738-41.278 85.896-31.526 25.255-75.917 25.255-107.444 0-25.164-20.159-41.278-51.146-41.278-85.896v-40c0-55.663 41.345-101.669 95-108.985 53.655 7.315 95 53.321 95 108.985z" fill="#efcfc8"/><path d="m219.008 165.653-28.153-13.487c-2.187-1.048-3.111-3.67-2.063-5.858l2.33-4.864c1.177-2.457 4.284-3.26 6.504-1.682l25.823 18.351c1.742 1.238 2.34 3.55 1.417 5.477-1.048 2.187-3.67 3.111-5.858 2.063zm42.331 46.543c-2.929-2.928-7.678-2.928-10.606 0-3.161 3.162-8.304 3.162-11.465 0-2.929-2.928-7.678-2.928-10.606 0-2.929 2.93-2.929 7.678 0 10.607 4.504 4.504 10.422 6.757 16.339 6.757s11.834-2.253 16.339-6.757c2.928-2.929 2.928-7.677-.001-10.607z" fill="#dd9683"/><path d="m212.5 168.685c0 8.284-6.716 15-15 15s-15-6.716-15-15 6.716-15 15-15 15 6.716 15 15z" fill="#533022"/><path d="m207.5 153.685c4.142 0 7.5 3.358 7.5 7.5s-3.358 7.5-7.5 7.5-7.5-3.358-7.5-7.5 3.358-7.5 7.5-7.5z" fill="#fff5f5"/><path d="m355 183.137v2.847 22.683 4.667c0 32.874-14.421 62.38-37.282 82.537-10.941 9.647-20.601 20.693-28.704 32.822-2.48 3.712-5.125 6.783-7.904 8.971-.655.516-1.57.512-2.225-.004-4.453-3.508-8.56-9.28-12.2-16.33-.348.008-.398.009-.746.017-5.606 12.267-12.179 22.422-19.432 28.136-.883.696-2.131.696-3.014 0-7.253-5.713-13.826-15.869-19.432-28.136-.348-.008-.398-.009-.746-.017-3.639 7.049-7.746 12.822-12.2 16.33-.655.516-1.57.52-2.225.004-2.78-2.188-5.424-5.259-7.904-8.971-8.103-12.129-17.763-23.175-28.704-32.822-22.861-20.158-37.282-49.664-37.282-82.537v-4.667-22.683-2.847c0-2.923 2.509-5.261 5.491-4.977 2.6.248 4.509 2.58 4.509 5.191v.05c0 20.175 7.683 39.721 21.888 54.047 5.416 5.462 11.401 10.359 17.858 14.595 5.634-6.376 15.603-11.628 30.282-14.09 9.528-1.599 19.581-2.454 29.971-2.454 10.39 0 20.443.855 29.971 2.454 14.68 2.462 24.648 7.714 30.282 14.09 5.933-3.892 11.468-8.342 16.528-13.276 14.934-14.56 23.234-34.618 23.218-55.476-.002-2.386 1.622-4.579 3.961-5.05 3.218-.646 6.041 1.796 6.041 4.896z" fill="#c64b1a"/><path d="m378.323 193.69c-.598-.9.411-2.039 1.383-1.566.057.028.115.056.172.085 6.348 3.184 9.592 10.627 7.651 17.459-2.554 8.987-12.607 13.562-21.15 9.341-6.025-2.977-9.357-9.817-7.992-16.397.009-.045.019-.09.029-.135.228-1.054 1.746-1.142 2.083-.118 1.109 3.363 3.982 6.093 7.92 6.754 4.114.69 8.331-1.361 10.327-5.025 1.911-3.506 1.537-7.45-.423-10.398zm-267.227 0c.598-.9-.411-2.039-1.383-1.566-.057.028-.115.056-.172.085-6.348 3.184-9.592 10.627-7.651 17.459 2.554 8.987 12.607 13.562 21.15 9.341 6.025-2.977 9.357-9.817 7.992-16.397-.009-.045-.019-.09-.029-.135-.228-1.054-1.746-1.142-2.083-.118-1.109 3.363-3.982 6.093-7.92 6.754-4.114.69-8.331-1.361-10.327-5.025-1.911-3.506-1.536-7.45.423-10.398z" fill="#e27500"/><path d="m297.946 316.539c-3.155 3.914-6.136 7.969-8.931 12.153-2.48 3.712-5.125 6.783-7.904 8.971-.655.516-1.57.512-2.225-.004-4.453-3.508-8.56-9.28-12.2-16.33-.348.008-.398.009-.746.017-5.607 12.267-12.179 22.422-19.432 28.136-.883.696-2.131.696-3.014 0-7.253-5.713-13.826-15.869-19.432-28.136-.348-.008-.398-.009-.746-.017-3.639 7.049-7.746 12.822-12.2 16.33-.655.516-1.57.52-2.225.004-2.78-2.188-5.424-5.258-7.904-8.971-8.103-12.129-17.763-23.175-28.704-32.822-22.862-20.157-37.283-49.662-37.283-82.536v-4.667-22.683-2.847c0-2.923 2.509-5.261 5.491-4.977 2.6.248 4.509 2.58 4.509 5.191v.05c0 20.174 7.683 39.721 21.888 54.047.833.84 1.68 1.667 2.539 2.479 13.383 45.663 55.584 79.009 105.573 79.009 7.869 0 15.545-.827 22.946-2.397z" fill="#a62b2b"/><path d="m348.602 125.5c0 14.083-29.012 25.5-64.801 25.5-15.389 0-29.526-2.111-40.641-5.637-1.81-.574-3.354 1.438-2.286 3.009 1.476 2.171 2.994 4.209 4.482 6.001 1.045 1.257-.056 3.144-1.667 2.871-14.396-2.442-26.727-10.65-35.442-19.687-1.698-1.761-4.413-1.995-6.426-.607-18.513 12.766-44.774 22.249-74.532 25.474l-.026.003c-1.164.126-2.139-.899-1.932-2.051 2.272-12.692 6.552-24.772 12.531-35.856 1.548-2.873 210.74-.267 210.74.98z" fill="#c64b1a"/><path d="m165.978 154.206c-11.864 3.886-24.901 6.724-38.69 8.218l-.026.003c-1.164.126-2.139-.899-1.932-2.052 2.272-12.692 6.552-24.772 12.531-35.856.409-.759 15.32-1.135 37.039-1.255-4.408 9.646-7.463 20.041-8.922 30.942z" fill="#a62b2b"/><path d="m259.813 286.063-28.313.187c-.139 0-2.278 3.748-2.416 3.744-8.092-.22-14.584-6.849-14.584-14.994v-10c0-8.284 6.716-15 15-15h31c8.284 0 15 6.716 15 15v10c0 8.145-6.492 14.774-14.584 14.994-.138.004-.964-3.931-1.103-3.931z" fill="#efcfc8"/><path d="m261 275c0 .539-.028 12.604-.084 14.994-.138.004-.277.006-.416.006h-31c-.139 0-.278-.002-.416-.006-.056-2.39-.084-14.455-.084-14.994 0-8.284 6.716-15 15-15h2c8.284 0 15 6.716 15 15z" fill="#fd73c4"/><path d="m238 270h-6c-1.105 0-2-.895-2-2v-18h10v18c0 1.105-.895 2-2 2z" fill="#fff5f5"/><path d="m258 270h-6c-1.105 0-2-.895-2-2v-18h10v18c0 1.105-.895 2-2 2z" fill="#fde803"/><path d="m326.802 161.384c2.052 4.675 3.198 9.88 3.198 15.366 0 20.296-15.67 36.75-35 36.75-14.981 0-27.764-9.883-32.757-23.779-1.201.471-2.404.941-3.61 1.409-41.95 16.274-83.688 28.985-121.916 37.273-1.128-6.319-1.717-12.824-1.717-19.468v-.725c40.474-9.01 84.116-22.908 125.892-39.742 3.577-16.307 17.49-28.468 34.108-28.468 6.666 0 12.896 1.957 18.199 5.353 11.695-5.658 23.032-11.503 33.879-17.482 2.58 6.408 4.574 13.114 5.917 20.054-8.438 4.555-17.183 9.048-26.193 13.459z" fill="#012d4e"/><path d="m331 90h-172v-20c0-38.66 31.34-70 70-70h32c38.66 0 70 31.34 70 70z" fill="#012d4e"/><path d="m331 90h-140v-20c0-38.66 31.34-70 70-70 38.66 0 70 31.34 70 70z" fill="#013f69"/><path d="m401 70c0 33.137-26.863 60-60 60h-192c-33.137 0-60-26.863-60-60 0-5.523 4.477-10 10-10h112.863c5.304 0 10.391 2.107 14.142 5.858l18.995 18.995 18.995-18.995c3.751-3.751 8.838-5.858 14.142-5.858h112.863c5.523 0 10 4.477 10 10z" fill="#54469b"/><path d="m181.054 130h-32.054c-33.137 0-60-26.863-60-60 0-5.523 4.477-10 10-10h22.863c-6.063 37.559 22.776 70 59.191 70z" fill="#013f69"/><path d="m260.661 104.488c-1.673 1.346-2.661 3.364-2.661 5.512 0 5.523-4.477 10-10 10h-6c-5.523 0-10-4.477-10-10v-.001c0-2.139-.974-4.157-2.641-5.496-6.048-4.857-9.789-12.468-9.319-20.931.721-12.971 11.588-23.375 24.577-23.57 13.982-.209 25.383 11.063 25.383 24.998 0 7.878-3.644 14.905-9.339 19.488z" fill="#fcf498"/><path d="m252.5 118.932c-1.353.683-2.881 1.068-4.5 1.068h-6c-5.523 0-10-4.477-10-10v-.001c0-2.139-.974-4.156-2.641-5.496-6.048-4.857-9.789-12.468-9.319-20.931.721-12.971 11.588-23.375 24.577-23.57 2.763-.042 5.425.366 7.918 1.153-9.652 3.066-16.91 11.897-17.495 22.417-.47 8.462 3.271 16.074 9.319 20.931 1.667 1.339 2.641 3.357 2.641 5.496v.001c0 3.904 2.238 7.285 5.5 8.932z" fill="#f5dc90"/><path d="m242.957 83.332c0 4.142-3.357 7.499-7.499 7.499s-7.499-3.357-7.499-7.499 3.357-7.499 7.499-7.499 7.499 3.357 7.499 7.499zm11.585-7.498c-4.141 0-7.499 3.357-7.499 7.499s3.357 7.499 7.499 7.499 7.499-3.357 7.499-7.499-3.358-7.499-7.499-7.499z" fill="#463b83"/><path d="m307.04 493.077c.45-2.605 1.137-5.208 2.073-7.78l27.362-75.176c8.5-23.354 34.323-35.395 57.677-26.895 17.629 6.417 28.811 22.703 29.578 40.348-31.107 33.165-71.34 57.668-116.69 69.503z" fill="#f5dc90"/><path d="m358.519 473.17c-7.652 4.008-16.24-3.435-13.285-11.552l18.743-51.496c4.946-13.589 15.757-23.347 28.534-27.457.548.176 1.095.363 1.641.562 17.629 6.417 28.811 22.703 29.578 40.348-18.723 19.96-40.751 36.783-65.211 49.595z" fill="#f9eecf"/><path d="m496.472 317.311c-12.985 35.675-50.392 55.547-86.504 47.622l-13.908 38.212c-1.889 5.189-7.627 7.866-12.817 5.977s-7.866-7.627-5.977-12.817l17.101-46.985c1.889-5.189 7.627-7.866 12.817-5.977 28.498 10.373 60.122-4.374 70.494-32.872s-4.374-60.122-32.872-70.494c-28.172-10.254-59.398 4.039-70.129 31.898 5.953 2.314 11.322 4.952 13.118 6.824-9.321 18.6-23.899 40.555-34.468 46.055-.521.271-1.053.078-1.278-.465-4.531-10.935-1.654-36.853 3.105-57.036.013-.056.026-.111.039-.167.018-.078.037-.156.055-.233h.004c.076-.283.163-.564.265-.844 14.144-38.862 57.268-58.97 96.128-44.826 38.863 14.144 58.972 57.267 44.827 96.128z" fill="#012d4e"/><path d="m326.289 438.106 10.186-27.985c8.5-23.354 34.323-35.395 57.677-26.895 17.629 6.417 28.811 22.703 29.578 40.348-10.065 10.73-21.085 20.554-32.925 29.335z" fill="#463b83"/><path d="m407.255 412.397c3.172 10.58-.689 21.086-8.624 23.465s-16.94-4.269-20.112-14.85.689-21.086 8.624-23.465c7.936-2.379 16.94 4.269 20.112 14.85z" fill="#804ba1"/><path d="m452.144 221.365c-6.935-2.579-14.01-4.062-21.036-4.539-5.749-.39-10.608 4.225-10.608 9.987 0 5.31 4.156 9.603 9.453 9.983 5.132.368 10.297 1.469 15.359 3.367 27.268 10.223 41.958 40.486 33.081 68.221-1.199 3.747-2.76 7.272-4.629 10.549-3.831 6.718.882 15.067 8.615 15.067h.002c3.559 0 6.873-1.876 8.645-4.963 2.629-4.58 4.816-9.515 6.482-14.769 12.015-37.889-8.109-79.049-45.364-92.903z" fill="#463b83"/></g></svg>