<svg id="Capa_1" enable-background="new 0 0 501 501" height="512" viewBox="0 0 501 501" width="512" xmlns="http://www.w3.org/2000/svg"><g><path d="m463.295 123.493c20.492 35.811 32.205 77.291 32.205 121.507 0 135.31-109.69 245-245 245s-245-109.69-245-245c0-44.012 11.605-85.313 31.922-121.01 37.558 0 68.005-30.447 68.005-68.005v-8.435c40.613-29.89 90.78-47.55 145.073-47.55 54.351 0 104.569 17.698 145.204 47.646 0 39.204 29.55 71.505 67.591 75.847z" fill="#aba4d5"/><path d="m481.09 327.981c-2.023 5.62-4.245 11.145-6.658 16.566-65.774 12.248-143.072 18.829-223.931 18.829s-158.157-6.581-223.931-18.829c-2.413-5.421-4.636-10.946-6.658-16.566 137.362 27.145 323.814 27.145 461.178 0zm11.568-120.416c-.763-4.974-1.675-9.899-2.732-14.77-144.348 24.549-334.504 24.549-478.852 0-1.057 4.871-1.969 9.796-2.732 14.77 71.176 12.154 154.744 18.683 242.158 18.683s170.982-6.53 242.158-18.683zm-437.601 50.182c-.336-.183-.612-.459-.795-.795l-5.035-9.207c-.759-1.387-2.751-1.387-3.509 0l-5.035 9.207c-.184.336-.459.611-.795.795l-9.207 5.035c-1.387.759-1.387 2.751 0 3.509l9.207 5.035c.336.184.612.459.795.795l5.035 9.207c.759 1.387 2.751 1.387 3.509 0l5.035-9.207c.184-.335.459-.611.795-.795l9.207-5.035c1.387-.759 1.387-2.751 0-3.509zm406.613-9.017c-.336-.184-.612-.459-.795-.795l-5.035-9.207c-.759-1.387-2.751-1.387-3.509 0l-5.035 9.207c-.184.335-.459.611-.795.795l-9.207 5.035c-1.387.759-1.387 2.751 0 3.509l9.207 5.035c.336.183.612.459.795.795l5.035 9.207c.759 1.387 2.751 1.387 3.509 0l5.035-9.207c.184-.336.459-.612.795-.795l9.207-5.035c1.387-.759 1.387-2.751 0-3.509z" fill="#8279c0"/><path d="m463.578 330.364v158.737c0 2.728-2.182 4.967-4.91 5.003-20.9.274-50.67-5.723-70.151-4.749-32.114 1.605-52.302 11.068-84.747 11.639-17.713.312-42.735-10.494-60.533-10.494-22.668 0-38.006 10.708-60.534 10.203-24.305-.545-48.522-10.221-72.64-11.348-22.693-1.06-45.299 5.32-67.805 4.779-2.696-.065-4.835-2.304-4.835-5.001v-158.769c0-5.844 4.983-10.447 10.807-9.972 65.456 5.335 137.118 15.796 202.271 15.957 69.953.172 133.359-10.336 202.253-15.956 5.826-.475 10.824 4.125 10.824 9.971z" fill="#fd9d01"/><path d="m461.873 492.87c-.445.391-.959.704-1.523.917.511-.302 1.018-.608 1.523-.917zm-35.884-140.156c-110.46 15.025-241.151 15-351.542-.077-5.701-.779-9.947-5.647-9.947-11.401v-12.236c0-2.411.078-4.803.23-7.175-5.54-.507-11.044-.988-16.505-1.433-5.823-.475-10.803 4.131-10.803 9.973v158.769c0 2.697 2.139 4.936 4.835 5.001 22.507.541 45.112-5.839 67.805-4.779.61.029 1.22.063 1.83.102-28.638-19.86-47.392-52.969-47.392-90.459v-19.378c0-6.939 6.099-12.312 12.979-11.402 53.4 7.058 112.203 10.781 173.021 10.781 62.531 0 122.932-3.935 177.521-11.384 3.717-.507 6.479-3.697 6.479-7.449v-.004c0-4.548-4.004-8.062-8.511-7.449z" fill="#f57e00"/><path d="m360.5 187.684v158.941c0 2.391-1.691 4.453-4.038 4.906-16.727 3.227-32.285 7.104-52.692 7.463-17.713.312-42.735-11.639-60.534-11.639-22.668 0-38.006 11.853-60.533 11.348-12.779-.286-25.534-3.097-38.263-5.863-2.299-.5-3.939-2.534-3.939-4.886v-160.523c37.229 3.698 74.576 6.83 110 6.917 37.952.094 73.978-2.956 109.999-6.664z" fill="#463b83"/><path d="m227.414 349.192c-14.946 3.308-27.804 9.89-44.712 9.511-12.779-.286-25.534-3.097-38.263-5.863-2.299-.5-3.939-2.534-3.939-4.886v-160.523c22.098 2.195 44.238 4.191 65.992 5.469-19.624 17.403-31.992 42.807-31.992 71.1 0 37.354 21.56 69.673 52.914 85.192z" fill="#012d4e"/><path d="m458.668 215.806c-20.9.274-50.67-5.723-70.151-4.749-32.114 1.605-52.302 11.068-84.747 11.639-17.713.312-42.735-11.639-60.534-11.639-22.668 0-38.006 11.853-60.533 11.348-24.305-.545-48.522-10.221-72.64-11.348-22.693-1.06-45.299 5.32-67.805 4.779-2.696-.065-4.835-2.304-4.835-5.001v-86.845c17.083-30.015 40.324-56.068 68.005-76.44 48.587 5.007 98.493 10.387 145.073 10.502 50.294.124 97.205-5.273 145.204-10.405 27.623 20.358 50.818 46.376 67.874 76.343v86.814c-.001 2.728-2.183 4.967-4.911 5.002z" fill="#fd9d01"/><path d="m100.507 211.011c-19.485.642-38.904 5.291-58.25 4.825-2.697-.065-4.835-2.304-4.835-5.001v-86.845c7.797-13.7 16.878-26.574 27.078-38.46v53.47c0 29.448 14.143 55.592 36.007 72.011zm295.671-136.6c-102.479 11.136-218.468 10.051-318.314-3.255-4.351 4.321-8.542 8.805-12.56 13.441 56.578 8.145 119.719 12.46 185.196 12.46 51.206 0 100.984-2.639 147.311-7.685 3.811-.415 6.689-3.647 6.689-7.48 0-4.474-3.875-7.964-8.322-7.481z" fill="#f57e00"/><path d="m330.653 377.396c-.025-.068-.053-.137-.08-.205-1.422-3.458-4.756-5.692-8.495-5.692h-.007c-3.742.003-7.076 2.242-8.494 5.705-.023.057-.047.115-.068.173l-27.925 73.321c-1.475 3.871.469 8.204 4.34 9.678 3.865 1.474 8.203-.468 9.678-4.339l5.115-13.43h34.514l5.06 13.409c1.133 3.003 3.987 4.854 7.018 4.854.88 0 1.775-.156 2.647-.485 3.875-1.462 5.831-5.79 4.368-9.665zm-20.224 50.211 11.623-30.518 11.517 30.518zm-66.246-40.429v21.845h21.26c4.143 0 7.5 3.358 7.5 7.5s-3.357 7.5-7.5 7.5h-21.26v21.845h23.549c4.143 0 7.5 3.358 7.5 7.5s-3.357 7.5-7.5 7.5h-31.049c-4.143 0-7.5-3.358-7.5-7.5v-73.689c0-4.142 3.357-7.5 7.5-7.5h31.049c4.143 0 7.5 3.358 7.5 7.5s-3.357 7.5-7.5 7.5h-23.549zm169.234-8.178c0 4.142-3.357 7.5-7.5 7.5h-13.118v66.868c0 4.142-3.357 7.5-7.5 7.5s-7.5-3.358-7.5-7.5v-66.868h-12.952c-4.143 0-7.5-3.358-7.5-7.5s3.357-7.5 7.5-7.5h41.07c4.143 0 7.5 3.357 7.5 7.5zm-269.764 0c0 4.142-3.357 7.5-7.5 7.5h-13.118v66.868c0 4.142-3.357 7.5-7.5 7.5s-7.5-3.358-7.5-7.5v-66.868h-12.952c-4.143 0-7.5-3.358-7.5-7.5s3.357-7.5 7.5-7.5h41.07c4.143 0 7.5 3.357 7.5 7.5zm66.547 19.327c0-14.792-12.525-26.827-27.922-26.827h-19.762c-.004 0-.008 0-.012 0s-.008 0-.012 0c-4.143 0-7.5 3.358-7.5 7.5v74.368c0 4.142 3.357 7.5 7.5 7.5s7.5-3.358 7.5-7.5v-25.811l27.078 30.767c1.482 1.685 3.553 2.545 5.633 2.545 1.76 0 3.527-.616 4.952-1.87 3.109-2.736 3.411-7.476.675-10.585l-20.877-23.721c12.933-2.339 22.747-13.272 22.747-26.366zm-27.922 11.827c-2.808 0-7.878.022-12.168.044-.022-4.209-.045-9.15-.045-11.872 0-2.297-.013-7.427-.025-11.827h12.238c7.004 0 12.922 5.416 12.922 11.827 0 6.412-5.918 11.828-12.922 11.828zm47.971-238.654v-74.368c0-4.142 3.357-7.5 7.5-7.5s7.5 3.358 7.5 7.5v74.368c0 4.142-3.357 7.5-7.5 7.5s-7.5-3.358-7.5-7.5zm125.73 0v-74.368c0-4.142 3.357-7.5 7.5-7.5s7.5 3.358 7.5 7.5v20.629l27.43-25.212c3.049-2.803 7.795-2.604 10.597.447 2.804 3.049 2.604 7.794-.446 10.597l-31.761 29.194 34.532 33.316c2.981 2.876 3.066 7.624.19 10.605-1.472 1.525-3.434 2.292-5.398 2.292-1.874 0-3.751-.698-5.206-2.103l-29.938-28.883v23.486c0 4.142-3.357 7.5-7.5 7.5s-7.5-3.358-7.5-7.5zm-48.596 7.5c-24.639 0-44.685-20.045-44.685-44.684s20.046-44.684 44.685-44.684c8.953 0 17.595 2.641 24.988 7.636 3.433 2.319 4.335 6.981 2.017 10.414-2.319 3.432-6.981 4.335-10.413 2.016-4.905-3.314-10.643-5.065-16.592-5.065-16.368 0-29.685 13.316-29.685 29.684s13.317 29.683 29.685 29.683c6.146 0 11.334-1.845 15.419-5.484.796-.709 1.557-1.495 2.262-2.334 2.663-3.173 7.394-3.587 10.566-.924 3.173 2.662 3.587 7.393.924 10.566-1.169 1.394-2.439 2.704-3.775 3.894-6.818 6.072-15.6 9.282-25.396 9.282zm-220.006-81.868c0-4.142 3.357-7.5 7.5-7.5h41.07c4.143 0 7.5 3.358 7.5 7.5s-3.357 7.5-7.5 7.5h-13.118v66.868c0 4.142-3.357 7.5-7.5 7.5s-7.5-3.358-7.5-7.5v-66.868h-12.952c-4.143 0-7.5-3.358-7.5-7.5zm124.558 19.327c0-14.793-12.525-26.828-27.921-26.828h-19.762c-.004 0-.008 0-.012 0s-.008 0-.012 0c-4.143 0-7.5 3.358-7.5 7.5v74.369c0 4.142 3.357 7.5 7.5 7.5s7.5-3.358 7.5-7.5v-25.81l27.077 30.765c1.482 1.685 3.553 2.545 5.633 2.545 1.76 0 3.527-.616 4.952-1.87 3.109-2.736 3.411-7.476.675-10.585l-20.877-23.72c12.932-2.338 22.747-13.271 22.747-26.366zm-27.921 11.827c-2.808 0-7.878.022-12.168.044-.022-4.209-.045-9.149-.045-11.871 0-2.297-.013-7.427-.025-11.828h12.238c7.004 0 12.921 5.416 12.921 11.828s-5.917 11.827-12.921 11.827z" fill="#012d4e"/><path d="m307.508 290.88c12.932-2.338 22.747-13.27 22.747-26.365 0-14.793-12.525-26.828-27.921-26.828h-19.762c-.004 0-.008 0-.012 0s-.008 0-.012 0c-4.143 0-7.5 3.358-7.5 7.5v74.368c0 4.142 3.357 7.5 7.5 7.5s7.5-3.358 7.5-7.5v-25.81l27.077 30.765c1.482 1.685 3.553 2.545 5.633 2.545 1.76 0 3.527-.616 4.952-1.87 3.109-2.736 3.411-7.476.675-10.585zm-5.174-38.192c7.004 0 12.921 5.416 12.921 11.828s-5.917 11.827-12.921 11.827c-2.808 0-7.878.022-12.168.044-.022-4.209-.045-9.149-.045-11.871 0-2.297-.013-7.427-.025-11.828zm-86.905-15c-24.639 0-44.684 20.045-44.684 44.684s20.045 44.684 44.684 44.684 44.684-20.045 44.684-44.684-20.046-44.684-44.684-44.684zm0 74.368c-16.367 0-29.684-13.316-29.684-29.684s13.316-29.684 29.684-29.684 29.684 13.316 29.684 29.684c-.001 16.367-13.317 29.684-29.684 29.684z" fill="#f9eecf"/><path d="m269.124 208.586-9.207 5.035c-.336.183-.612.459-.795.795l-5.035 9.207c-.759 1.387-2.751 1.387-3.509 0l-5.035-9.207c-.184-.336-.459-.612-.795-.795l-9.207-5.035c-1.387-.759-1.387-2.751 0-3.509l9.207-5.035c.336-.184.612-.459.795-.795l5.035-9.207c.759-1.387 2.751-1.387 3.509 0l5.035 9.207c.184.335.459.611.795.795l9.207 5.035c1.387.759 1.387 2.751 0 3.509z" fill="#fff5f5"/><path d="m113.707 323.964-9.207 5.036c-.336.184-.612.459-.795.795l-5.035 9.207c-.759 1.387-2.751 1.387-3.509 0l-5.035-9.207c-.184-.336-.459-.611-.795-.795l-9.207-5.035c-1.387-.759-1.387-2.751 0-3.509l9.207-5.035c.336-.183.612-.459.795-.795l5.035-9.207c.759-1.387 2.751-1.387 3.509 0l5.035 9.207c.184.336.459.612.795.795l9.207 5.035c1.387.757 1.387 2.75 0 3.508zm330.795 85.696-9.207-5.035c-.336-.183-.612-.459-.795-.795l-5.035-9.207c-.759-1.387-2.751-1.387-3.509 0l-5.035 9.207c-.184.335-.459.611-.795.795l-9.207 5.035c-1.387.759-1.387 2.751 0 3.509l9.207 5.035c.336.183.612.459.795.795l5.035 9.207c.759 1.387 2.751 1.387 3.509 0l5.035-9.207c.184-.336.459-.611.795-.795l9.207-5.035c1.387-.758 1.387-2.751 0-3.509zm-28.249-313.238 9.207-5.035c1.387-.759 1.387-2.751 0-3.509l-9.207-5.035c-.336-.184-.612-.459-.795-.795l-5.035-9.207c-.759-1.387-2.751-1.387-3.509 0l-5.035 9.207c-.184.335-.459.611-.795.795l-9.207 5.035c-1.387.759-1.387 2.751 0 3.509l9.207 5.035c.336.183.612.459.795.795l5.035 9.207c.759 1.387 2.751 1.387 3.509 0l5.035-9.207c.184-.336.459-.612.795-.795z" fill="#f7e6b0"/></g></svg>