<svg id="Capa_1" enable-background="new 0 0 501 501" height="512" viewBox="0 0 501 501" width="512" xmlns="http://www.w3.org/2000/svg"><g><path d="m5.5 256c0-135.31 109.69-245 245-245s245 109.69 245 245c0 76.252-34.835 144.369-89.46 189.303-47.588-13.289-100.205-20.667-155.54-20.667s-107.952 7.378-155.54 20.667c-54.625-44.934-89.46-113.051-89.46-189.303z" fill="#c43286"/><path d="m250.5 11c119.135 0 218.409 85.033 240.441 197.717-22.031 112.685-121.306 197.719-240.441 197.719s-218.409-85.033-240.441-197.717c22.032-112.685 121.306-197.719 240.441-197.719z" fill="#f02399"/><path d="m274.5 80c0 16.568-13.431 30-30 30-7.684 0-14.692-2.889-20-7.64-5.308 4.75-12.316 7.64-20 7.64-6.657 0-12.808-2.169-17.785-5.838-5.488 6.043-13.408 9.838-22.215 9.838-16.569 0-30-13.432-30-30s13.431-30 30-30c.384 0 .766.007 1.146.021 1.496-15.169 14.291-27.021 29.854-27.021 1.115 0 2.215.062 3.298.18 1.422-15.246 14.251-27.18 29.869-27.18 16.569 0 30 13.432 30 30 0 7.975-3.112 15.223-8.188 20.596 13.704 2.772 24.021 14.883 24.021 29.404z" fill="#06995f"/><path d="m178.815 61.512-.044.006c-14.444 2.163-25.521 14.622-25.521 29.668 0 9.127 4.076 17.302 10.507 22.804-16.225-.394-29.257-13.67-29.257-29.99 0-16.568 13.431-30 30-30 .384 0 .766.007 1.146.021 1.496-15.169 14.291-27.021 29.854-27.021 1.115 0 2.215.062 3.298.18 1.422-15.246 14.251-27.18 29.869-27.18 7.441 0 14.25 2.71 19.493 7.196-.247-.006-.495-.009-.743-.009-7.146 0-13.708 2.499-18.861 6.669.601 1.079.944 2.322.944 3.645v25c0 4.142-3.358 7.5-7.5 7.5-4.142 0-7.5-3.358-7.5-7.5 0-4.81-4.591-8.294-9.221-6.99-7.183 2.024-16.465 7.108-19.729 19.863-.825 3.221-3.443 5.669-6.735 6.138zm88.185-4.012h-54.686c-4.107 0-7.688 3.164-7.811 7.269-.128 4.247 3.278 7.731 7.497 7.731h5.243c4.008 0 7.257 3.249 7.257 7.257v2.429c0 4.107 3.165 7.688 7.269 7.811 4.247.127 7.731-3.278 7.731-7.497v-2.743c0-4.008 3.249-7.257 7.257-7.257h19.929c4.107 0 7.688-3.164 7.811-7.269.127-4.248-3.278-7.731-7.497-7.731zm-80 22.5c-4.142 0-7.5 3.358-7.5 7.5v15c0 4.142 3.358 7.5 7.5 7.5s7.5-3.358 7.5-7.5v-15c0-4.142-3.358-7.5-7.5-7.5z" fill="#037e4b"/><path d="m238.784 24.256c-2.348 3.522-8.534 3.522-13.816 0s-7.662-9.232-5.314-12.753c2.348-3.522 8.534-3.522 13.816 0 5.283 3.521 7.662 9.231 5.314 12.753zm-36.975 12.407c-5.283-3.522-11.468-3.522-13.816 0s.031 9.232 5.314 12.753c5.283 3.522 11.468 3.522 13.816 0 2.348-3.521-.031-9.231-5.314-12.753zm134.695 17.337c-.385 0-.769.007-1.15.021-1.495-15.169-14.29-27.021-29.854-27.021-1.115 0-2.215.062-3.298.18-1.462-15.685-14.999-27.863-31.223-27.15-15.196.668-27.666 12.913-28.589 28.096-.647 10.64 4.256 20.175 12.088 25.984 3.92 2.908 5.36 8.121 3.176 12.486-2.344 4.685-3.498 10.069-3.064 15.755 1.115 14.633 12.999 26.486 27.635 27.565 11.275.831 21.352-4.574 27.138-13.121 5.14 10.884 16.632 18.179 29.693 17.099 14.669-1.212 26.448-13.237 27.386-27.926 1.113-17.459-12.718-31.968-29.938-31.968z" fill="#08b772"/><path d="m140.5 248.936c-13.807 0-25-11.193-25-25v-10c0-13.807 11.193-25 25-25 13.807 0 25 11.193 25 25v10c0 13.807-11.193 25-25 25z" fill="#b0dde9"/><path d="m341.411 338.941c42.705.545 55.846 58.362 17.564 77.297-32.698 16.173-69.525 25.262-108.475 25.262-43.46 0-84.276-11.316-119.665-31.162-27.406-15.37-24.35-55.916 5.067-66.959 7.652-2.873 15.942-4.444 24.598-4.444h60v-24.141c-46.17-13.059-80-55.508-80-105.859v-90.935h-5.657c-5.326 0-9.977-4.019-10.321-9.335-.377-5.824 4.235-10.665 9.978-10.665h16 4 196c5.523 0 10 4.477 10 10v80.936c13.807 0 25 11.193 25 25v10c0 13.807-11.193 25-25 25-2.468 0-4.853-.358-7.105-1.024-12.254 32.333-39.309 57.384-72.895 66.883v24.141h60c.304 0 .608.002.911.005zm-200.913-90.005c-6.071-4.561-9.998-11.822-9.998-20v-20c0-8.178 3.927-15.439 9.998-20-13.806.001-24.998 11.193-24.998 25v10c0 13.806 11.192 24.999 24.998 25z" fill="#88b9d3"/><path d="m368.972 344.968c27.033 12.05 28.576 49.736 2.877 64.417-35.775 20.436-77.198 32.115-121.349 32.115-47.693 0-92.203-13.628-129.849-37.202 2.387-36.498 32.747-65.363 69.849-65.363h30v1.065c0 16.569 13.431 30 30 30 16.569 0 30-13.431 30-30v-1.064h60c10.138 0 19.773 2.155 28.472 6.032z" fill="#b0dde9"/><path d="m337.178 354.774c5.523 0 10 5.373 10 12s-4.477 12-10 12-10-5.373-10-12 4.477-12 10-12zm-50.178 0c0 4.97 3.358 9 7.5 9s7.5-4.029 7.5-9-3.358-9-7.5-9-7.5 4.03-7.5 9z" fill="#88b9d3"/><path d="m374.479 108.665c-.344 5.315-4.995 9.335-10.321 9.335h-3.658v100.066c0 46.703-34.614 85.993-81.6 97.474-8.796 2.149-18.005 2.149-26.8 0-46.986-11.482-81.6-50.771-81.6-97.474v-100.066h-2.375c-5.178 0-9.375-4.197-9.375-9.375v-1.25c0-5.178 4.197-9.375 9.375-9.375h2.375 8.875 165.125 6 14c5.743 0 10.356 4.841 9.979 10.665z" fill="#b0dde9"/><path d="m317.178 125.667c0-6.627 4.477-12 10-12s10 5.373 10 12-4.477 12-10 12-10-5.373-10-12zm-80.178-15.667c-4.142 0-7.5 4.029-7.5 9 0 4.97 3.358 9 7.5 9s7.5-4.03 7.5-9c0-4.971-3.358-9-7.5-9zm90.178 136c-5.523 0-10 5.373-10 12s4.477 12 10 12 10-5.373 10-12-4.478-12-10-12zm-47.345-117.333c-4.142 0-7.5 4.029-7.5 9s3.358 9 7.5 9 7.5-4.029 7.5-9-3.357-9-7.5-9z" fill="#88b9d3"/><path d="m250.5 238.933c-5.917 0-11.834-2.253-16.339-6.757-2.929-2.93-2.929-7.678 0-10.607 2.929-2.928 7.678-2.928 10.606 0 3.161 3.162 8.304 3.162 11.465 0 2.929-2.928 7.678-2.928 10.606 0 2.929 2.93 2.929 7.678 0 10.607-4.503 4.504-10.421 6.757-16.338 6.757z" fill="#88b9d3"/><path d="m235.5 168.593c0 22.869-15.67 41.407-35 41.407s-35-18.539-35-41.407 15.67-41.407 35-41.407 35 18.538 35 41.407zm65-11.407c-19.33 0-35 18.539-35 41.407s15.67 41.407 35 41.407 35-18.539 35-41.407-15.67-41.407-35-41.407z" fill="#649eb0"/><path d="m218 181.436c0 8.284-6.716 15-15 15s-15-6.716-15-15 6.716-15 15-15 15 6.715 15 15zm80-15c-8.284 0-15 6.716-15 15s6.716 15 15 15 15-6.716 15-15-6.716-15-15-15z" fill="#962437"/><path d="m220.5 173.936c0 4.142-3.358 7.5-7.5 7.5s-7.5-3.358-7.5-7.5 3.358-7.5 7.5-7.5 7.5 3.357 7.5 7.5zm87.5-7.5c-4.142 0-7.5 3.358-7.5 7.5s3.358 7.5 7.5 7.5 7.5-3.358 7.5-7.5-3.358-7.5-7.5-7.5z" fill="#fff5f5"/><path d="m223.844 167.931c-.332 2.741-2.824 4.694-5.565 4.362l-49.637-6.017c-2.741-.333-4.694-2.824-4.362-5.565.665-5.483 5.648-9.389 11.131-8.724l39.709 4.813c5.482.665 9.388 5.648 8.724 11.131zm112.877-7.22c-.665-5.483-5.648-9.389-11.131-8.724l-39.709 4.813c-5.483.665-9.389 5.648-8.724 11.131.332 2.741 2.824 4.694 5.565 4.362l49.637-6.017c2.741-.332 4.694-2.824 4.362-5.565z" fill="#2b6c7e"/><path d="m274 290h-47c-4.142 0-7.5-3.358-7.5-7.5v-12.5c0-4.142 3.358-7.5 7.5-7.5h47c4.142 0 7.5 3.358 7.5 7.5v12.5c0 4.142-3.358 7.5-7.5 7.5z" fill="#f58057"/><path d="m224.506 289.575c.295-10.849 11.82-19.575 25.994-19.575s25.7 8.726 25.994 19.575c-.78.275-1.619.425-2.494.425h-47c-.874 0-1.713-.15-2.494-.425z" fill="#f52c2c"/><path d="m249.5 277.5h-10c-2.761 0-5-2.239-5-5v-10h20v10c0 2.761-2.238 5-5 5z" fill="#fff5f5"/><path d="m150.336 360.809c-11.882 12.544-19.169 29.484-19.169 48.127v61.087c-14.532-8.12-28.152-17.676-40.667-28.478v-32.609c0-29.836 18.666-55.312 44.957-65.387 3.396 6.189 8.449 11.993 14.879 17.26zm215.207-17.26c-12.86 23.437-49.466 41.339-94.71 45.521 6.609.611 13.403.93 20.333.93 41.846 0 78.689-11.602 100.164-29.191-7.133-7.533-15.923-13.48-25.787-17.26z" fill="#e27500"/><path d="m410.5 408.936v32.609c-42.926 37.05-98.847 59.455-160 59.455-47.757 0-92.322-13.665-130-37.296v-54.768c0-21.223 9.445-40.239 24.36-53.077 6.876 6.892 15.983 13.034 26.797 18.144 4.272 2.018 14.176 16.664 14.176 16.664s10.957-7.409 17.166-5.958c6.261 1.463 17.5 23.624 17.5 23.624s12.354-18.966 17.667-18.672c4.055.224 8.169.339 12.333.339 54.376 0 100.304-19.59 115.043-46.451 26.292 10.075 44.958 35.551 44.958 65.387z" fill="#fd9d01"/><path d="m160.5 398.5v85.441c-5.085-2.01-10.088-4.185-15-6.518v-78.923c0-4.142 3.358-7.5 7.5-7.5s7.5 3.358 7.5 7.5zm187.5-7.5c-4.142 0-7.5 3.358-7.5 7.5v31.5h-17v-5c0-2.761-2.239-5-5-5s-5 2.239-5 5v5h-10v-15c0-2.761-2.239-5-5-5s-5 2.239-5 5v15h-10v-5c0-2.761-2.239-5-5-5s-5 2.239-5 5v5h-10v-15c0-2.761-2.239-5-5-5s-5 2.239-5 5v15h-14c-2.761 0-5 2.239-5 5s2.239 5 5 5h14v5c0 2.761 2.239 5 5 5s5-2.239 5-5v-5h10v15c0 2.761 2.239 5 5 5s5-2.239 5-5v-15h10v5c0 2.761 2.239 5 5 5s5-2.239 5-5v-5h10v15c0 2.761 2.239 5 5 5s5-2.239 5-5v-15h17v43.941c5.085-2.01 10.088-4.185 15-6.518v-78.923c0-4.142-3.358-7.5-7.5-7.5z" fill="#e27500"/><path d="m450.5 458h-60v20.563c0 4.142-3.358 7.5-7.5 7.5s-7.5-3.358-7.5-7.5v-20.563-12.5-2.435l-9.046 12.77c-2.394 3.38-7.075 4.179-10.455 1.785-3.38-2.394-4.179-7.075-1.785-10.455l26.626-37.587c6.191-9.857 17.16-16.41 29.66-16.41h5c19.33 0 35 15.67 35 35zm-325-29.833c0-19.33-15.67-35-35-35h-5c-19.33 0-35 15.67-35 35v17.333 12.5 19.563c0 4.142 3.358 7.5 7.5 7.5s7.5-3.358 7.5-7.5v-19.563h60z" fill="#88b9d3"/><path d="m420.5 393.521c-15.375 2.199-27.526 14.39-29.665 29.785-.188 1.352.938 2.461 2.304 2.455h.028c4.142 0 7.5 4.029 7.5 9 0 4.97-3.358 9-7.5 9-.125 0-.249-.004-.372-.011-1.25-.074-2.295.939-2.295 2.191v12.059h5v20.248c0 4.107 3.165 7.688 7.269 7.811 4.247.127 7.731-3.278 7.731-7.497v-20.562h5.333v20.248c0 4.107 3.165 7.688 7.269 7.811 4.247.127 7.731-3.278 7.731-7.497v-20.562h4.667v20.248c0 4.107 3.165 7.688 7.269 7.811 4.247.127 7.731-3.278 7.731-7.497v-20.562-12.5-17.333c0-17.633-13.038-32.219-30-34.646zm5.333 40.753c-5.523 0-10-5.373-10-12s4.477-12 10-12 10 5.373 10 12-4.477 12-10 12zm-279.047 12.89-26.628-37.59c-5.351-8.517-14.268-14.566-24.658-16.053-11.23 1.606-20.74 8.543-25.885 18.166 2.925 2.094 4.885 5.929 4.885 10.313 0 6.223-3.947 11.338-9 11.94v24.06h4.667v19.563c0 4.142 3.358 7.5 7.5 7.5s7.5-3.358 7.5-7.5v-19.563h5.333v19.563c0 4.142 3.358 7.5 7.5 7.5s7.5-3.358 7.5-7.5v-19.563h5v19.563c0 4.142 3.358 7.5 7.5 7.5s7.5-3.358 7.5-7.5v-19.563-12.5-2.435l9.046 12.77c2.394 3.38 7.075 4.179 10.455 1.785 3.381-2.395 4.18-7.076 1.785-10.456zm-38.953-3.403c-4.142 0-7.5-4.03-7.5-9 0-4.971 3.358-9 7.5-9s7.5 4.029 7.5 9c0 4.97-3.357 9-7.5 9z" fill="#b0dde9"/><path d="m383 490c-4.142 0-7.5-3.358-7.5-7.5v-7c0-4.142 3.358-7.5 7.5-7.5 4.142 0 7.5 3.358 7.5 7.5v7c0 4.142-3.358 7.5-7.5 7.5zm27.5-7.5v-7c0-4.142-3.358-7.5-7.5-7.5-4.142 0-7.5 3.358-7.5 7.5v7c0 4.142 3.358 7.5 7.5 7.5 4.142 0 7.5-3.358 7.5-7.5zm20.334 0v-7c0-4.142-3.358-7.5-7.5-7.5-4.142 0-7.5 3.358-7.5 7.5v7c0 4.142 3.358 7.5 7.5 7.5 4.142 0 7.5-3.358 7.5-7.5zm19.666 0v-7c0-4.142-3.358-7.5-7.5-7.5-4.142 0-7.5 3.358-7.5 7.5v7c0 4.142 3.358 7.5 7.5 7.5 4.142 0 7.5-3.358 7.5-7.5zm-87.006-22.487 2.857-4.032c2.394-3.38 1.595-8.061-1.785-10.455-3.38-2.394-8.061-1.595-10.455 1.785l-2.857 4.032c-2.394 3.38-1.595 8.061 1.785 10.455 3.38 2.395 8.061 1.595 10.455-1.785zm-245.494 29.987c4.142 0 7.5-3.358 7.5-7.5v-7c0-4.142-3.358-7.5-7.5-7.5-4.142 0-7.5 3.358-7.5 7.5v7c0 4.142 3.358 7.5 7.5 7.5zm-20 0c4.142 0 7.5-3.358 7.5-7.5v-7c0-4.142-3.358-7.5-7.5-7.5-4.142 0-7.5 3.358-7.5 7.5v7c0 4.142 3.358 7.5 7.5 7.5zm-20.333 0c4.142 0 7.5-3.358 7.5-7.5v-7c0-4.142-3.358-7.5-7.5-7.5-4.142 0-7.5 3.358-7.5 7.5v7c0 4.142 3.358 7.5 7.5 7.5zm-19.667 0c4.142 0 7.5-3.358 7.5-7.5v-7c0-4.142-3.358-7.5-7.5-7.5-4.142 0-7.5 3.358-7.5 7.5v7c0 4.142 3.358 7.5 7.5 7.5zm89.962-28.202c3.38-2.394 4.179-7.075 1.785-10.455l-2.857-4.032c-2.394-3.38-7.075-4.179-10.455-1.785-3.38 2.394-4.179 7.075-1.785 10.455l2.857 4.032c2.394 3.38 7.075 4.18 10.455 1.785z" fill="#2b6c7e"/><path d="m338.625 98h-9.125c-2.761 0-5 2.239-5 5v37c0 5.743-4.841 10.356-10.666 9.978-5.315-.344-9.334-4.995-9.334-10.321v-36.657c0-2.761-2.239-5-5-5-2.761 0-5 2.239-5 5v7c0 5.743-4.841 10.356-10.666 9.978-5.315-.344-9.334-4.995-9.334-10.321v-6.657c0-2.761-2.239-5-5-5h-7.875v-23.875h77z" fill="#08b772"/><path d="m285.535 24.256c-2.348 3.522-8.534 3.522-13.816 0-5.283-3.521-7.662-9.231-5.314-12.753 2.348-3.521 8.534-3.521 13.816 0 5.283 3.521 7.662 9.231 5.314 12.753zm18.06 51.139c-2.348 3.522-8.534 3.522-13.816 0-5.283-3.521-7.662-9.231-5.314-12.753 2.348-3.521 8.534-3.521 13.816 0 5.283 3.521 7.662 9.231 5.314 12.753zm45.626-8.567c-5.283-3.522-11.468-3.522-13.816 0-2.348 3.521.031 9.231 5.314 12.753 5.283 3.521 11.468 3.521 13.816 0s-.031-9.231-5.314-12.753z" fill="#00f1a5"/></g></svg>