<svg id="Capa_1" enable-background="new 0 0 512 512" height="512" viewBox="0 0 512 512" width="512" xmlns="http://www.w3.org/2000/svg"><path d="m256 0c-141.385 0-256 114.615-256 256 0 47.132 12.751 91.281 34.971 129.209l91.814 91.817c37.93 22.222 82.08 34.974 129.215 34.974 141.385 0 256-114.615 256-256s-114.615-256-256-256z" fill="#40718c"/><g fill="#ffe473"><path d="m253.375 74.875h-34.75c-4.142 0-7.5-3.358-7.5-7.5s3.358-7.5 7.5-7.5h34.75c4.142 0 7.5 3.358 7.5 7.5s-3.358 7.5-7.5 7.5z"/><path d="m236 92.25c-4.142 0-7.5-3.358-7.5-7.5v-34.75c0-4.142 3.358-7.5 7.5-7.5s7.5 3.358 7.5 7.5v34.75c0 4.142-3.358 7.5-7.5 7.5z"/><path d="m293.375 442.125h-34.75c-4.142 0-7.5-3.358-7.5-7.5s3.358-7.5 7.5-7.5h34.75c4.142 0 7.5 3.358 7.5 7.5s-3.358 7.5-7.5 7.5z"/><path d="m276 459.5c-4.142 0-7.5-3.358-7.5-7.5v-34.75c0-4.142 3.358-7.5 7.5-7.5s7.5 3.358 7.5 7.5v34.75c0 4.142-3.358 7.5-7.5 7.5z"/><path d="m422.976 277.397c5.127 17.011 18.437 30.321 35.449 35.449 8.271 2.493 8.271 14.204 0 16.697-17.011 5.127-30.321 18.437-35.449 35.449-2.493 8.271-14.204 8.271-16.697 0-5.127-17.011-18.437-30.321-35.449-35.449-8.271-2.493-8.271-14.204 0-16.697 17.011-5.127 30.321-18.437 35.449-35.449 2.493-8.271 14.204-8.271 16.697 0z"/></g><path d="m414.628 321.194c0-12.82 4.83-24.508 12.762-33.357-1.821-3.278-3.309-6.772-4.414-10.44-2.493-8.271-14.204-8.271-16.697 0-5.127 17.011-18.437 30.321-35.449 35.449-8.271 2.493-8.271 14.204 0 16.697 17.011 5.127 30.321 18.437 35.449 35.449 2.493 8.271 14.204 8.271 16.697 0 1.105-3.667 2.593-7.161 4.414-10.44-7.932-8.85-12.762-20.538-12.762-33.358z" fill="#ffcd61"/><path d="m105.72 147.009c5.127 17.011 18.437 30.321 35.449 35.449 8.271 2.493 8.271 14.204 0 16.697-17.011 5.127-30.321 18.437-35.449 35.449-2.493 8.271-14.204 8.271-16.697 0-5.127-17.011-18.437-30.321-35.449-35.449-8.271-2.493-8.271-14.204 0-16.697 17.011-5.127 30.321-18.437 35.449-35.449 2.494-8.271 14.205-8.271 16.697 0z" fill="#ffe473"/><path d="m97.372 190.806c0-12.82 4.83-24.508 12.762-33.357-1.821-3.278-3.309-6.772-4.414-10.44-2.493-8.271-14.204-8.271-16.697 0-5.127 17.011-18.437 30.321-35.449 35.449-8.271 2.493-8.271 14.204 0 16.697 17.011 5.127 30.321 18.437 35.449 35.449 2.493 8.271 14.204 8.271 16.697 0 1.105-3.667 2.593-7.161 4.414-10.44-7.932-8.85-12.762-20.538-12.762-33.358z" fill="#ffcd61"/><path d="m34.933 385.144c22.229 37.969 53.955 69.695 91.924 91.924l250.414-250.414 24.749-116.673-116.673 24.749z" fill="#484e55"/><path d="m126.856 477.067 250.414-250.414 15.23-71.798-298.978 298.978c10.449 8.592 21.596 16.362 33.334 23.234z" fill="#343b41"/><path d="m285.347 134.729 91.924 91.924 116.549-116.549c7.81-7.81 7.81-20.474 0-28.284l-63.64-63.64c-7.81-7.81-20.474-7.81-28.284 0z" fill="#daf0f6"/><path d="m493.82 81.82-28.284-28.284c7.811 7.81 7.81 20.474 0 28.284l-116.55 116.549 28.284 28.284 116.55-116.549c7.81-7.81 7.81-20.474 0-28.284z" fill="#bee5eb"/></svg>