<svg id="Capa_1" enable-background="new 0 0 512 512" height="512" viewBox="0 0 512 512" width="512" xmlns="http://www.w3.org/2000/svg"><path d="m113.734 468.849h284.532c68.579-45.928 113.734-124.112 113.734-212.849 0-141.385-114.615-256-256-256s-256 114.615-256 256c0 88.737 45.155 166.921 113.734 212.849z" fill="#40718c"/><path d="m113.734 468.849c40.688 27.25 89.618 43.151 142.266 43.151s101.578-15.901 142.266-43.151c35.692-36.123 57.734-85.762 57.734-140.556 0-91.382-61.288-168.446-145-192.339v-115.954h-110v115.954c-83.712 23.892-145 100.957-145 192.339 0 54.794 22.042 104.433 57.734 140.556z" fill="#daf0f6"/><path d="m201 135.954c-83.712 23.892-145 100.957-145 192.339 0 54.794 22.042 104.433 57.734 140.557 40.688 27.249 89.618 43.15 142.266 43.15 9.292 0 18.464-.508 27.5-1.473-69.296-31.421-117.5-101.194-117.5-182.234 0-91.382 61.288-168.446 145-192.339v-115.954h-110z" fill="#bee5eb"/><path d="m311 40h-110c-11.046 0-20-8.954-20-20 0-11.046 8.954-20 20-20h110c11.046 0 20 8.954 20 20 0 11.046-8.954 20-20 20z" fill="#daf0f6"/><path d="m221 20c0-11.046 8.954-20 20-20h-40c-11.046 0-20 8.954-20 20 0 11.046 8.954 20 20 20h40c-11.046 0-20-8.954-20-20z" fill="#bee5eb"/><path d="m96 328.293 161.316 116.707 128.873-23.916c18.128-25.321 29.072-56.109 29.775-89.348.027-1.26.039-2.517.036-3.77-.044-21.966-18.048-39.673-40.014-39.673h-239.973c-21.932 0-39.957 17.654-40.013 39.586z" fill="#35af94"/><path d="m166 328.293c0-13.7 1.387-27.074 4.011-40h-33.998c-21.932 0-39.957 17.654-40.013 39.586v.414l78.102 56.504c-5.268-17.919-8.102-36.88-8.102-56.504z" fill="#189681"/><path d="m256 488.293c53.48 0 100.909-26.379 129.977-66.803h-83.379c-25.736 0-46.598-20.863-46.598-46.598 0-25.736-20.863-46.598-46.598-46.598h-113.402c0 88.223 71.775 159.999 160 159.999z" fill="#52c3a3"/><path d="m245.532 487.942c-48.308-36.509-79.532-94.429-79.532-159.649h-70c0 84.707 66.169 154.238 149.532 159.649z" fill="#35af94"/><path d="m395.373 264.748c-5.23 0-10.31-2.739-13.068-7.616-18.475-32.65-49.603-57.423-85.4-67.968-7.946-2.34-12.491-10.68-10.15-18.627 2.341-7.948 10.682-12.49 18.627-10.15 43.203 12.725 80.757 42.603 103.033 81.971 4.08 7.21 1.542 16.362-5.668 20.442-2.334 1.321-4.872 1.948-7.374 1.948z" fill="#fff"/><g fill="#52c3a3"><circle cx="338.333" cy="343" r="20"/><circle cx="140.333" cy="373" r="10"/></g></svg>