<svg id="Capa_1" enable-background="new 0 0 512 512" height="512" viewBox="0 0 512 512" width="512" xmlns="http://www.w3.org/2000/svg"><path d="m256 0c-141.385 0-256 114.615-256 256 0 111.147 70.839 205.735 169.826 241.117l166.928 1.872c101.812-33.82 175.246-129.823 175.246-242.989 0-141.385-114.615-256-256-256z" fill="#484e55"/><path d="m125.224 256.276c5.127 17.011 18.437 30.321 35.449 35.449 8.271 2.493 8.271 14.204 0 16.697-17.011 5.127-30.321 18.437-35.449 35.449-2.493 8.271-14.204 8.271-16.697 0-5.127-17.011-18.437-30.321-35.449-35.449-8.271-2.493-8.271-14.204 0-16.697 17.011-5.127 30.321-18.437 35.449-35.449 2.493-8.271 14.204-8.271 16.697 0z" fill="#ffe473"/><path d="m116.875 300.073c0-12.82 4.83-24.508 12.762-33.357-1.821-3.278-3.309-6.772-4.414-10.44-2.493-8.271-14.204-8.271-16.697 0-5.127 17.011-18.437 30.321-35.449 35.449-8.271 2.493-8.271 14.204 0 16.697 17.011 5.127 30.321 18.437 35.449 35.449 2.493 8.271 14.204 8.271 16.697 0 1.105-3.667 2.593-7.161 4.414-10.44-7.932-8.85-12.762-20.538-12.762-33.358z" fill="#ffcd61"/><path d="m413.473 168.13c5.127 17.011 18.437 30.321 35.449 35.449 8.271 2.493 8.271 14.204 0 16.697-17.011 5.127-30.321 18.437-35.449 35.449-2.493 8.271-14.204 8.271-16.697 0-5.127-17.011-18.437-30.321-35.449-35.449-8.271-2.493-8.271-14.204 0-16.697 17.011-5.127 30.321-18.437 35.449-35.449 2.493-8.271 14.204-8.271 16.697 0z" fill="#ffe473"/><path d="m405.125 211.927c0-12.82 4.83-24.508 12.762-33.357-1.821-3.278-3.309-6.772-4.414-10.44-2.493-8.271-14.204-8.271-16.697 0-5.127 17.011-18.437 30.321-35.449 35.449-8.271 2.493-8.271 14.204 0 16.697 17.011 5.127 30.321 18.437 35.449 35.449 2.493 8.271 14.204 8.271 16.697 0 1.105-3.667 2.593-7.161 4.414-10.44-7.933-8.85-12.762-20.538-12.762-33.358z" fill="#ffcd61"/><path d="m377.95 81.3v239.93c0 23.35-15.38 43.11-36.56 49.7-9.13 2.84-15.48 11.1-15.48 20.66v110.75c-22.22 6.29-45.67 9.66-69.91 9.66-2.36 0-4.71-.03-7.05-.09v-138.64h-49.86v-265.41h32.52v82.02c0 4.58 3.78 8.27 8.38 8.13 4.45-.13 7.88-4.02 7.88-8.47v-173.28c0-8.42 6.4-15.34 14.6-16.18h.03c.79-.08 1.6-.1 2.42-.06.64.03 1.28.1 1.89.21 7.8 1.31 13.58 8.37 13.58 16.49v173.16c0 4.58 3.78 8.27 8.38 8.13 4.45-.13 7.88-4.02 7.88-8.47v-140.76c0-9.24 7.71-16.68 17.05-16.24 8.74.41 15.47 7.94 15.47 16.7v140.64c0 4.58 3.78 8.27 8.38 8.13 4.45-.13 7.88-4.02 7.88-8.47v-107.78c0-8.76 6.73-16.29 15.48-16.7 9.33-.44 17.04 7 17.04 16.24z" fill="#ffd5a0"/><circle cx="174.699" cy="171.909" fill="#fff" r="40.65"/><path d="m159.049 171.909c0-18.088 11.818-33.409 28.15-38.684-3.939-1.272-8.138-1.967-12.5-1.967-22.451 0-40.65 18.2-40.65 40.65 0 22.451 18.2 40.651 40.65 40.651 4.362 0 8.561-.695 12.5-1.967-16.333-5.274-28.15-20.595-28.15-38.683z" fill="#daf0f6"/><path d="m215.35 171.909c-8.98 0-16.26-7.28-16.26-16.26v-56.643c0-8.98 7.28-16.26 16.26-16.26 8.98 0 16.26 7.28 16.26 16.26v56.642c0 8.981-7.28 16.261-16.26 16.261z" fill="#ffe2b8"/><path d="m236.928 269.196h-54.099v-54.464c0-8.755-6.729-16.289-15.474-16.701-9.338-.44-17.046 7.001-17.046 16.242v106.961c0 23.351 15.38 43.109 36.563 49.698 9.126 2.839 15.474 11.1 15.474 20.658v114.76c17.304 3.691 35.249 5.65 53.654 5.65 11.17 0 22.172-.72 32.965-2.107v-136.622-52.037c0-28.74-23.298-52.038-52.037-52.038z" fill="#ffe2b8"/><path d="m336.754 471.275h-145.248v-37.94c0-2.993 2.427-5.42 5.42-5.42h134.408c2.993 0 5.42 2.427 5.42 5.42z" fill="#fff"/><path d="m240.287 427.914h-43.361c-2.993 0-5.42 2.427-5.42 5.42v37.94h43.361v-37.94c0-2.993 2.426-5.42 5.42-5.42z" fill="#daf0f6"/><path d="m169.826 460.434v36.682c26.929 9.626 55.936 14.884 86.174 14.884 28.219 0 55.366-4.578 80.754-13.012v-49.394h-156.088c-5.987 0-10.84 4.854-10.84 10.84z" fill="#4f859b"/><path d="m169.826 460.434v36.682c13.935 4.981 28.428 8.785 43.361 11.3v-47.982c0-5.987 4.853-10.84 10.84-10.84h-43.36c-5.988 0-10.841 4.854-10.841 10.84z" fill="#40718c"/><g fill="#ffe473"><circle cx="191.506" cy="472.358" r="10.84"/><path d="m169.684 88.5h-34.75c-4.142 0-7.5-3.358-7.5-7.5s3.358-7.5 7.5-7.5h34.75c4.142 0 7.5 3.358 7.5 7.5s-3.358 7.5-7.5 7.5z"/><path d="m152.309 105.875c-4.142 0-7.5-3.358-7.5-7.5v-34.75c0-4.142 3.358-7.5 7.5-7.5s7.5 3.358 7.5 7.5v34.75c0 4.142-3.358 7.5-7.5 7.5z"/><path d="m400.474 418.656h-34.75c-4.143 0-7.5-3.358-7.5-7.5s3.357-7.5 7.5-7.5h34.75c4.143 0 7.5 3.358 7.5 7.5s-3.358 7.5-7.5 7.5z"/><path d="m383.099 436.031c-4.143 0-7.5-3.358-7.5-7.5v-34.75c0-4.142 3.357-7.5 7.5-7.5s7.5 3.358 7.5 7.5v34.75c0 4.142-3.358 7.5-7.5 7.5z"/></g></svg>