<svg id="Capa_1" enable-background="new 0 0 512 512" height="512" viewBox="0 0 512 512" width="512" xmlns="http://www.w3.org/2000/svg"><circle cx="256" cy="256" fill="#484e55" r="256"/><path d="m95.958 299.265h77.592v155.963h-77.592z" fill="#c174dc" transform="matrix(-.707 -.707 .707 -.707 -36.715 739.285)"/><path d="m70.488 371.565h155.963v38.796h-155.963z" fill="#ad61c8" transform="matrix(.707 -.707 .707 .707 -232.967 219.494)"/><path d="m172.254 276.908 62.838 62.838c7.594 7.594 7.594 19.907 0 27.501-7.594 7.594-19.907 7.594-27.501 0l-62.838-62.838c-7.594-7.594-7.594-19.907 0-27.501 7.594-7.594 19.907-7.594 27.501 0z" fill="#ffcd61"/><path d="m207.659 339.814c7.594-7.594 7.594-19.907 0-27.501l27.433 27.433c7.594 7.594 7.594 19.907 0 27.501s-19.907 7.594-27.501 0l-27.433-27.433c7.594 7.595 19.907 7.595 27.501 0z" fill="#f4be53"/><path d="m61.944 387.218c-7.235-7.235-18.742-7.561-26.383-1.011 21.987 37.143 53.088 68.244 90.231 90.231 6.55-7.64 6.224-19.148-1.011-26.383z" fill="#ffcd61"/><path d="m97.349 422.623c7.594 7.594 7.594 19.907 0 27.501-1.326 1.326-2.802 2.406-4.365 3.269 10.288 8.506 21.261 16.21 32.809 23.046 6.55-7.64 6.224-19.148-1.011-26.383z" fill="#f4be53"/><path d="m248.843 353.496-90.339-90.339 254.745-254.744c3.466-3.466 8.116-5.492 13.015-5.669l75.686-2.737c5.629-.204 10.247 4.414 10.043 10.043l-2.737 75.686c-.177 4.899-2.203 9.549-5.669 13.015z" fill="#daf0f6"/><path d="m464.087 40.567 1.419-39.242 36.444-1.318c5.629-.204 10.247 4.414 10.043 10.043l-2.737 75.686c-.177 4.899-2.203 9.549-5.669 13.015l-254.744 254.745-45.169-45.169 254.744-254.745c3.466-3.466 5.492-8.117 5.669-13.015z" fill="#bee5eb"/><path d="m159.239 181.306c15.204 15.204 15.204 39.854 0 55.058-.005.005-.009.009-.014.013l143.926 143.926c15.204 15.204 15.204 39.854 0 55.058s-39.854 15.204-55.058 0-15.204-39.854 0-55.058c.009-.009.019-.018.028-.027l-143.38-143.38c-.186-.179-.377-.349-.56-.532-15.204-15.204-15.204-39.854 0-55.058s39.854-15.204 55.058 0z" fill="#ffe473"/><path d="m248.12 380.275c15.176-15.206 15.168-39.835-.027-55.03l55.058 55.058c15.204 15.204 15.204 39.854 0 55.058s-39.854 15.204-55.058 0-15.204-39.854 0-55.058c.009-.009.019-.018.028-.027z" fill="#ffcd61"/><g fill="#ad61c8"><path d="m111.488 354.217h77.592v15h-77.592z" transform="matrix(-.707 -.707 .707 -.707 .777 723.755)"/><path d="m80.456 385.249h77.592v15h-77.592z" transform="matrix(-.707 -.707 .707 -.707 -74.141 754.787)"/></g></svg>