<svg id="Capa_1" enable-background="new 0 0 512 512" height="512" viewBox="0 0 512 512" width="512" xmlns="http://www.w3.org/2000/svg"><path d="m126 476.561 300-29.176c52.753-46.893 86-115.251 86-191.385 0-141.385-114.615-256-256-256s-256 114.615-256 256c0 93.924 50.591 176.018 126 220.561z" fill="#ffe473"/><path d="m136 128h300v128h-300z" fill="#ba623e"/><path d="m136 128h40v128h-40z" fill="#964f32"/><path d="m176 128h220v128h-220z" fill="#964f32"/><path d="m176 128h40v128h-40z" fill="#783823"/><path d="m86 256h300v128h-300z" fill="#d27347"/><path d="m426 384h-300v92.561c38.105 22.508 82.539 35.439 130 35.439 65.251 0 124.788-24.426 170-64.615z" fill="#ba623e"/><path d="m386 384h-220v111.714c28 10.518 58.325 16.286 90 16.286 47.461 0 91.895-12.931 130-35.439z" fill="#964f32"/><path d="m166 495.714c12.873 4.836 26.237 8.665 40 11.39v-123.104h-40z" fill="#783823"/><path d="m126 476.561c12.674 7.486 26.046 13.911 40 19.153v-111.714h-40z" fill="#964f32"/><path d="m86 256h40v128h-40z" fill="#ba623e"/><path d="m126 256h220v128h-220z" fill="#ba623e"/><path d="m126 256h40v128h-40z" fill="#964f32"/><path d="m96 0h260c11.046 0 20 8.954 20 20v108h-300v-108c0-11.046 8.954-20 20-20z" fill="#d27347"/><path d="m136 0h-40c-11.046 0-20 8.954-20 20v108h40v-108c0-11.046 8.954-20 20-20z" fill="#ba623e"/><path d="m116 128v-78c0-5.523 4.477-10 10-10h200c5.523 0 10 4.477 10 10v78z" fill="#ba623e"/><path d="m116 50v78h40v-88h-30c-5.523 0-10 4.477-10 10z" fill="#964f32"/><g fill="#ffe473"><path d="m116 104c-4.142 0-7.5-3.358-7.5-7.5v-25c0-4.142 3.358-7.5 7.5-7.5 4.142 0 7.5 3.358 7.5 7.5v25c0 4.142-3.358 7.5-7.5 7.5z"/><path d="m166 408c-4.142 0-7.5 3.358-7.5 7.5v25c0 4.142 3.358 7.5 7.5 7.5 4.142 0 7.5-3.358 7.5-7.5v-25c0-4.142-3.358-7.5-7.5-7.5z"/><path d="m176 212c-4.142 0-7.5-3.358-7.5-7.5v-25c0-4.142 3.358-7.5 7.5-7.5 4.142 0 7.5 3.358 7.5 7.5v25c0 4.142-3.358 7.5-7.5 7.5z"/><path d="m126 340c-4.142 0-7.5-3.358-7.5-7.5v-25c0-4.142 3.358-7.5 7.5-7.5 4.142 0 7.5 3.358 7.5 7.5v25c0 4.142-3.358 7.5-7.5 7.5z"/></g><path d="m452.255 49h-33.261v-3.994c0-1.782-2.154-2.674-3.414-1.414l-18.994 18.994c-.781.781-.781 2.047 0 2.828l18.994 18.994c1.26 1.26 3.414.368 3.414-1.414v-3.994h33.261c1.105 0 2-.895 2-2v-26c0-1.105-.896-2-2-2z" fill="#804096"/><path d="m462.255 305h-33.261v-3.994c0-1.782-2.154-2.674-3.414-1.414l-18.994 18.994c-.781.781-.781 2.047 0 2.828l18.994 18.994c1.26 1.26 3.414.368 3.414-1.414v-3.994h33.261c1.105 0 2-.895 2-2v-26c0-1.105-.896-2-2-2z" fill="#804096"/><path d="m59.745 207h33.261v3.994c0 1.782 2.154 2.674 3.414 1.414l18.994-18.994c.781-.781.781-2.047 0-2.828l-18.994-18.994c-1.26-1.26-3.414-.368-3.414 1.414v3.994h-33.261c-1.105 0-2 .895-2 2v26c0 1.105.896 2 2 2z" fill="#804096"/></svg>