<svg id="Capa_1" enable-background="new 0 0 512 512" height="512" viewBox="0 0 512 512" width="512" xmlns="http://www.w3.org/2000/svg"><circle cx="256" cy="256" fill="#484e55" r="256"/><path d="m215.071 508.728c13.329 2.142 26.996 3.272 40.929 3.272s27.6-1.13 40.929-3.272l-12.04-66.47h-57.778z" fill="#ffcd61"/><path d="m215.071 508.728c12.843 2.064 26.004 3.174 39.411 3.252l12.63-69.723h-40z" fill="#f4be53"/><path d="m286 462.258h-60c-11.046 0-20-8.954-20-20 0-11.046 8.954-20 20-20h60c11.046 0 20 8.954 20 20 0 11.046-8.954 20-20 20z" fill="#ffe473"/><path d="m246 442.258c0-11.046 8.954-20 20-20h-40c-11.046 0-20 8.954-20 20s8.954 20 20 20h40c-11.046 0-20-8.954-20-20z" fill="#ffcd61"/><path d="m381 300.067v57.191c0 30.376-24.624 55-55 55-30.376 0-55-24.624-55-55v-81.911h-30v81.911c0 30.376-24.624 55-55 55-30.376 0-55-24.624-55-55v-57.191h-30v57.191c0 46.944 38.056 85 85 85h140c46.944 0 85-38.056 85-85v-57.191z" fill="#ffcd61"/><path d="m256 357.258v-81.911h-15v81.911c0 30.376-24.624 55-55 55-30.376 0-55-24.624-55-55v-57.191h-30v57.191c0 46.944 38.056 85 85 85h140c2.529 0 5.027-.132 7.5-.348-43.429-3.8-77.5-40.237-77.5-84.652z" fill="#f4be53"/><ellipse cx="256" cy="45.365" fill="#ffe473" rx="22.5" ry="45.365"/><ellipse cx="256" cy="61.615" fill="#ff823b" rx="9.481" ry="19.115"/><path d="m286 75h-60c-5.523 0-10 4.477-10 10v171h80v-171c0-5.523-4.477-10-10-10z" fill="#daf0f6"/><path d="m266 75h-40c-5.523 0-10 4.477-10 10v171h40v-171c0-5.523 4.477-10 10-10z" fill="#bee5eb"/><path d="m256 325c-26.866 0-48.645-21.779-48.645-48.644v-20.356h97.289v20.356c0 26.865-21.778 48.644-48.644 48.644z" fill="#ffcd61"/><path d="m247.356 276.356v-20.356h-40v20.356c0 26.865 21.778 48.644 48.644 48.644 7.131 0 13.898-1.547 20-4.304-16.886-7.63-28.644-24.606-28.644-44.34z" fill="#f4be53"/><path d="m308.5 263.5h-105c-4.142 0-7.5-3.358-7.5-7.5 0-4.142 3.358-7.5 7.5-7.5h105c4.142 0 7.5 3.358 7.5 7.5 0 4.142-3.358 7.5-7.5 7.5z" fill="#ffe473"/><path d="m236 256c0-4.142 3.358-7.5 7.5-7.5h-40c-4.142 0-7.5 3.358-7.5 7.5s3.358 7.5 7.5 7.5h40c-4.142 0-7.5-3.358-7.5-7.5z" fill="#ffcd61"/><path d="m288.5 332.5h-65c-4.142 0-7.5-3.358-7.5-7.5 0-4.142 3.358-7.5 7.5-7.5h65c4.142 0 7.5 3.358 7.5 7.5 0 4.142-3.358 7.5-7.5 7.5z" fill="#ffe473"/><path d="m256 325c0-4.142 3.358-7.5 7.5-7.5h-40c-4.142 0-7.5 3.358-7.5 7.5s3.358 7.5 7.5 7.5h40c-4.142 0-7.5-3.358-7.5-7.5z" fill="#ffcd61"/><ellipse cx="396" cy="70.084" fill="#ffe473" rx="22.5" ry="45.365"/><ellipse cx="396" cy="86.334" fill="#ff823b" rx="9.481" ry="19.115"/><path d="m426 99.719h-60c-5.523 0-10 4.477-10 10v171h80v-171c0-5.523-4.477-10-10-10z" fill="#daf0f6"/><path d="m406 99.719h-40c-5.523 0-10 4.477-10 10v171h40v-171c0-5.523 4.477-10 10-10z" fill="#bee5eb"/><path d="m396 349.719c-26.866 0-48.645-21.779-48.645-48.644v-20.356h97.289v20.356c0 26.865-21.778 48.644-48.644 48.644z" fill="#ffcd61"/><path d="m387.356 301.075v-20.356h-40v20.356c0 26.866 21.779 48.644 48.644 48.644 7.131 0 13.898-1.547 20-4.304-16.886-7.629-28.644-24.606-28.644-44.34z" fill="#f4be53"/><path d="m448.5 288.219h-105c-4.142 0-7.5-3.358-7.5-7.5 0-4.142 3.358-7.5 7.5-7.5h105c4.142 0 7.5 3.358 7.5 7.5 0 4.142-3.358 7.5-7.5 7.5z" fill="#ffe473"/><path d="m376 280.719c0-4.142 3.358-7.5 7.5-7.5h-40c-4.142 0-7.5 3.358-7.5 7.5s3.358 7.5 7.5 7.5h40c-4.142 0-7.5-3.358-7.5-7.5z" fill="#ffcd61"/><path d="m428.5 357.219h-65c-4.142 0-7.5-3.358-7.5-7.5 0-4.142 3.358-7.5 7.5-7.5h65c4.142 0 7.5 3.358 7.5 7.5 0 4.142-3.358 7.5-7.5 7.5z" fill="#ffe473"/><path d="m396 349.719c0-4.142 3.358-7.5 7.5-7.5h-40c-4.142 0-7.5 3.358-7.5 7.5s3.358 7.5 7.5 7.5h40c-4.142 0-7.5-3.358-7.5-7.5z" fill="#ffcd61"/><ellipse cx="116" cy="70.084" fill="#ffe473" rx="22.5" ry="45.365"/><ellipse cx="116" cy="86.334" fill="#ff823b" rx="9.481" ry="19.115"/><path d="m146 99.719h-60c-5.523 0-10 4.477-10 10v171h80v-171c0-5.523-4.477-10-10-10z" fill="#daf0f6"/><path d="m126 99.719h-40c-5.523 0-10 4.477-10 10v171h40v-171c0-5.523 4.477-10 10-10z" fill="#bee5eb"/><path d="m116 349.719c-26.866 0-48.645-21.779-48.645-48.644v-20.356h97.289v20.356c0 26.865-21.778 48.644-48.644 48.644z" fill="#ffcd61"/><path d="m107.356 301.075v-20.356h-40v20.356c0 26.866 21.779 48.644 48.644 48.644 7.131 0 13.898-1.547 20-4.304-16.886-7.629-28.644-24.606-28.644-44.34z" fill="#f4be53"/><path d="m168.5 288.219h-105c-4.142 0-7.5-3.358-7.5-7.5 0-4.142 3.358-7.5 7.5-7.5h105c4.142 0 7.5 3.358 7.5 7.5 0 4.142-3.358 7.5-7.5 7.5z" fill="#ffe473"/><path d="m96 280.719c0-4.142 3.358-7.5 7.5-7.5h-40c-4.142 0-7.5 3.358-7.5 7.5s3.358 7.5 7.5 7.5h40c-4.142 0-7.5-3.358-7.5-7.5z" fill="#ffcd61"/><path d="m148.5 357.219h-65c-4.142 0-7.5-3.358-7.5-7.5 0-4.142 3.358-7.5 7.5-7.5h65c4.142 0 7.5 3.358 7.5 7.5 0 4.142-3.358 7.5-7.5 7.5z" fill="#ffe473"/><path d="m116 349.719c0-4.142 3.358-7.5 7.5-7.5h-40c-4.142 0-7.5 3.358-7.5 7.5s3.358 7.5 7.5 7.5h40c-4.142 0-7.5-3.358-7.5-7.5z" fill="#ffcd61"/></svg>