<svg id="Capa_1" enable-background="new 0 0 512 512" height="512" viewBox="0 0 512 512" width="512" xmlns="http://www.w3.org/2000/svg"><path d="m96.983 456.621h318.033c59.085-46.895 96.984-119.328 96.984-200.621 0-141.385-114.615-256-256-256s-256 114.615-256 256c0 81.293 37.899 153.726 96.983 200.621z" fill="#35af94"/><path d="m256 478.493c-97.358 0-176.282-78.924-176.282-176.282v-107.883h352.563v107.884c.001 97.357-78.923 176.281-176.281 176.281z" fill="#fa7629"/><path d="m256 512c60.092 0 115.341-20.714 159.017-55.379-27.822-21.179-62.418-36.854-100.974-44.8-4.67-.962-8.043-5.036-8.043-9.803v-97.748h-100v97.748c0 4.768-3.373 8.841-8.043 9.803-38.556 7.946-73.151 23.621-100.974 44.8 43.676 34.665 98.925 55.379 159.017 55.379z" fill="#ffd5a0"/><path d="m307.111 406.57c-.708-1.373-1.111-2.92-1.111-4.553v-97.747h-100v97.748c0 4.768-3.373 8.841-8.043 9.803-38.556 7.946-73.151 23.621-100.974 44.8 12.78 10.143 26.557 19.081 41.15 26.666 38.02-42.924 99.051-72.212 168.978-76.717z" fill="#ffc987"/><path d="m295.243 426.773 26.331-13.285-6.06-7.655c-1.897-2.396-4.785-3.793-7.841-3.793h-103.346c-3.056 0-5.944 1.397-7.841 3.793l-6.06 7.655 26.331 13.285z" fill="#fa877a"/><path d="m256 512c42.269 0 82.135-10.26 117.269-28.404-.103-.622-.204-1.246-.318-1.851-5.838-30.934-40.748-46.343-67.875-30.37-23.713 13.963-36.711 27.119-49.076 27.119s-25.363-13.156-49.076-27.119c-27.127-15.973-62.037-.565-67.875 30.369-.114.605-.216 1.229-.318 1.852 35.134 18.144 75 28.404 117.269 28.404z" fill="#804096"/><path d="m85.984 199.08c23.326-6.25 64.936 2.868 71.186 26.194s-25.226 52.027-48.552 58.278c-23.326 6.25-29.668-12.318-35.919-35.644-6.25-23.327-10.041-42.578 13.285-48.828z" fill="#ffc987"/><path d="m426.016 199.08c-23.326-6.25-64.936 2.868-71.186 26.194s25.226 52.027 48.552 58.278c23.326 6.25 29.668-12.318 35.919-35.644 6.25-23.327 10.041-42.578-13.285-48.828z" fill="#ffd5a0"/><path d="m99.718 205.254c0-86.312 69.97-156.282 156.282-156.282s156.282 69.97 156.282 156.282-22.838 174.016-156.282 174.016-156.282-87.704-156.282-174.016z" fill="#ffe2b8"/><path d="m139.719 205.254v-104.405c-24.865 27.676-40 64.271-40 104.405 0 86.312 22.838 174.016 156.281 174.016 1.88 0 3.73-.023 5.566-.058 1-.02 1.985-.051 2.973-.081.738-.022 1.477-.043 2.208-.07 1.313-.05 2.614-.11 3.904-.178.31-.016.618-.033.927-.05 1.487-.084 2.963-.176 4.421-.282h.001c-115.75-8.453-136.281-91.493-136.281-173.297z" fill="#ffd5a0"/><path d="m256 333.107c-24.864 0-46.956-14.931-56.282-38.039-1.55-3.841.308-8.212 4.148-9.762 3.844-1.552 8.212.308 9.762 4.148 7.024 17.405 23.656 28.652 42.372 28.652 18.717 0 35.349-11.247 42.372-28.652 1.549-3.84 5.915-5.701 9.762-4.148 3.841 1.55 5.698 5.92 4.148 9.762-9.324 23.108-31.417 38.039-56.282 38.039z" fill="#ffc987"/><path d="m256 276.067c-8.45 0-15.461-6.534-16.056-14.963l-8.188-115.959c-.409-5.786 4.175-10.704 9.975-10.704h28.538c5.8 0 10.384 4.919 9.975 10.704l-8.188 115.959c-.595 8.43-7.606 14.963-16.056 14.963z" fill="#ffd5a0"/><path d="m94.729 208.392c.347 53.525 9.634 92.561 29.114 122.324.777 1.188 2.518 1.191 3.314.016 6.357-9.372 28.441-57.519 33.644-141.324h-65.146c-.645 6.245-.968 12.578-.926 18.984z" fill="#ff823b"/><path d="m351.198 189.408c5.204 83.819 27.295 131.965 33.647 141.328.795 1.172 2.532 1.169 3.308-.016 19.861-30.342 29.128-70.322 29.128-125.467 0-5.343-.259-10.626-.74-15.846h-65.343z" fill="#ff823b"/><path d="m345.638 215.642c-4.368-4.476-10.597-7.127-17.436-6.702-11.139.691-20.204 9.757-20.896 20.896-.425 6.84 2.227 13.069 6.702 17.436 5.812 5.672 15.62 1.376 15.62-6.745 0-5.116 4.148-9.264 9.264-9.264 8.121-.001 12.418-9.809 6.746-15.621z" fill="#343b41"/><path d="m166.362 215.642c4.368-4.476 10.597-7.127 17.436-6.702 11.139.691 20.204 9.757 20.896 20.896.425 6.84-2.227 13.069-6.702 17.436-5.812 5.672-15.62 1.376-15.62-6.745 0-5.116-4.148-9.264-9.264-9.264-8.121-.001-12.418-9.809-6.746-15.621z" fill="#343b41"/><path d="m286.533 392.463c-11.614 0-30.533 13.295-30.533 13.295s-18.919-13.295-30.533-13.295-11.614 50.716 0 50.716 30.533-13.295 30.533-13.295 18.919 13.295 30.533 13.295c11.613 0 11.613-50.716 0-50.716z" fill="#fa877a"/><path d="m256 397.431c-7.508 0-13.594 6.086-13.594 13.594v13.594c0 7.508 6.086 13.594 13.594 13.594 7.508 0 13.594-6.086 13.594-13.594v-13.594c0-7.508-6.086-13.594-13.594-13.594z" fill="#fa9c8e"/><path d="m114.758 169.422h282.485l13.073-147.659c1.035-11.695-8.181-21.763-19.923-21.763h-268.786c-11.742 0-20.958 10.068-19.922 21.764z" fill="#484e55"/><path d="m161.607 0h-40c-11.742 0-20.958 10.068-19.922 21.764l13.073 147.659h40l-13.073-147.659c-1.036-11.696 8.18-21.764 19.922-21.764z" fill="#343b41"/><path d="m106.983 179.422h298.033c5.523 0 10-4.477 10-10v-43.061c0-5.523-4.477-10-10-10h-298.033c-5.523 0-10 4.477-10 10v43.061c0 5.523 4.477 10 10 10z" fill="#fa9c8e"/><path d="m136.983 169.422v-43.061c0-5.523 4.477-10 10-10h-40c-5.523 0-10 4.477-10 10v43.061c0 5.523 4.477 10 10 10h40c-5.523 0-10-4.477-10-10z" fill="#fa877a"/><path d="m449.5 160.953h-387c-11.046 0-20 8.954-20 20 0 11.046 8.954 20 20 20h387c11.046 0 20-8.954 20-20 0-11.046-8.954-20-20-20z" fill="#484e55"/><path d="m82.5 180.953c0-11.046 8.954-20 20-20h-40c-11.046 0-20 8.954-20 20s8.954 20 20 20h40c-11.046 0-20-8.955-20-20z" fill="#343b41"/></svg>