<svg id="Capa_1" enable-background="new 0 0 512 512" height="512" viewBox="0 0 512 512" width="512" xmlns="http://www.w3.org/2000/svg"><path d="m481.991 376.34c19.144-35.876 30.009-76.836 30.009-120.34 0-141.385-114.615-256-256-256s-256 114.615-256 256c0 43.504 10.865 84.464 30.009 120.34z" fill="#804096"/><path d="m50 407.992c46.626 63.089 121.53 104.008 206 104.008s159.374-40.919 206-104.008v-29.992h-412z" fill="#964f32"/><path d="m50 407.992c39.881 53.962 100.452 91.699 170 101.49v-113.482h-170z" fill="#783823"/><path d="m110 378v88.31c-14.5-10.08-27.9-21.62-40-34.41-7.14-7.55-13.82-15.53-20-23.9v-30z" fill="#fff"/><path d="m110.5 467.267-.785-.546c-14.459-10.051-27.943-21.65-40.078-34.477-7.137-7.548-13.879-15.604-20.039-23.947l-.098-.132v-30.665h61zm-60-59.432c6.109 8.263 12.792 16.243 19.863 23.722 11.868 12.544 25.031 23.91 39.137 33.795v-86.852h-59z"/><path d="m50 356h412v40h-412z" fill="#ba623e"/><path d="m50 356h170v40h-170z" fill="#964f32"/><path d="m50 356h60v40h-60z" fill="#fff"/><path d="m110.5 396.5h-61v-41h61zm-60-1h59v-39h-59z"/><path d="m50 58.5v349.492c32.019 43.324 77.368 76.196 130 92.536v-185.074c0-47.65-33.841-87.394-78.799-96.515 44.958-9.12 78.799-48.865 78.799-96.515v-63.924z" fill="#fa9c8e"/><g fill="#fa877a"><path d="m61.201 218.939c44.958 9.121 78.799 48.865 78.799 96.515v168.8c6.512 3.317 13.181 6.368 20 9.129v-177.929c0-47.65-33.841-87.394-78.799-96.515 44.958-9.12 78.799-48.865 78.799-96.515v-63.924h-20v63.924c0 47.65-33.841 87.395-78.799 96.515z"/><path d="m100 315.454v143.519c6.433 4.953 13.104 9.611 20 13.945v-157.464c0-44.486-29.499-82.071-70-94.29v8.571c29.849 16.919 50 48.959 50 85.719z"/><path d="m50 208.144v8.571c40.501-12.219 70-49.805 70-94.29v-63.925h-20v63.924c0 36.761-20.151 68.801-50 85.72z"/></g><path d="m50 211.439h77.5c4.142 0 7.5 3.358 7.5 7.5 0 4.142-3.358 7.5-7.5 7.5h-77.5z" fill="#ffe473"/><path d="m92.5 226.439h-42.5v-15h42.5c4.142 0 7.5 3.358 7.5 7.5 0 4.142-3.358 7.5-7.5 7.5z" fill="#ffcd61"/><path d="m462 58.5v349.492c-32.019 43.324-77.368 76.196-130 92.536v-185.074c0-47.65 33.841-87.394 78.799-96.515-44.958-9.12-78.799-48.865-78.799-96.515v-63.924z" fill="#fa9c8e"/><path d="m450.799 218.939c-44.958 9.121-78.799 48.865-78.799 96.515v168.8c-6.512 3.317-13.181 6.368-20 9.129v-177.929c0-47.65 33.841-87.394 78.799-96.515-44.958-9.12-78.799-48.865-78.799-96.515v-63.924h20v63.924c0 47.65 33.841 87.395 78.799 96.515z" fill="#fa877a"/><path d="m412 315.454v143.519c-6.433 4.953-13.104 9.611-20 13.945v-157.464c0-44.486 29.499-82.071 70-94.29v8.571c-29.849 16.919-50 48.959-50 85.719z" fill="#fa877a"/><path d="m462 208.144v8.571c-40.501-12.219-70-49.805-70-94.29v-63.925h20v63.924c0 36.761 20.151 68.801 50 85.72z" fill="#fa877a"/><path d="m462 226.439h-77.5c-4.142 0-7.5-3.358-7.5-7.5 0-4.142 3.358-7.5 7.5-7.5h77.5z" fill="#ffe473"/><path d="m407 218.939c0-4.142 3.358-7.5 7.5-7.5h-30c-4.142 0-7.5 3.358-7.5 7.5s3.358 7.5 7.5 7.5h30c-4.142 0-7.5-3.358-7.5-7.5z" fill="#ffcd61"/><path d="m70 66v365.9c-7.14-7.55-13.82-15.53-20-23.9-7.41-10.02-14.1-20.6-20-31.66v-310.34z" fill="#ba623e"/><path d="m50 66v342c-7.41-10.02-14.1-20.6-20-31.66v-310.34z" fill="#964f32"/><path d="m482 66v310.34c-5.9 11.06-12.59 21.64-20 31.66-6.18 8.37-12.86 16.35-20 23.9v-365.9z" fill="#ba623e"/><path d="m462 66v342c-6.18 8.37-12.86 16.35-20 23.9v-365.9z" fill="#964f32"/><path d="m482 80h-452c-5.523 0-10-4.477-10-10v-50h472v50c0 5.523-4.477 10-10 10z" fill="#ba623e"/><path d="m60 70v-50h-40v50c0 5.523 4.477 10 10 10h40c-5.523 0-10-4.477-10-10z" fill="#964f32"/><path d="m492 0h-472c-11.046 0-20 8.954-20 20 0 11.046 8.954 20 20 20h472c11.046 0 20-8.954 20-20 0-11.046-8.954-20-20-20z" fill="#d27347"/><path d="m40 20c0-11.046 8.954-20 20-20h-40c-11.046 0-20 8.954-20 20 0 11.046 8.954 20 20 20h40c-11.046 0-20-8.954-20-20z" fill="#ba623e"/></svg>