<?xml version="1.0" encoding="iso-8859-1"?>
<!-- Generator: Adobe Illustrator 19.0.0, SVG Export Plug-In . SVG Version: 6.00 Build 0)  -->
<svg version="1.1" id="Capa_1" xmlns="http://www.w3.org/2000/svg" xmlns:xlink="http://www.w3.org/1999/xlink" x="0px" y="0px"
	 viewBox="0 0 512 512" style="enable-background:new 0 0 512 512;" xml:space="preserve">
<path style="fill:#463F5B;" d="M512,256c0,141.385-114.615,256-256,256c-17.721,0-35.035-1.797-51.743-5.235
	c-20.543-4.211-40.197-10.888-58.619-19.707c-11.024-5.277-21.608-11.316-31.692-18.056c-9.801-6.552-19.132-13.761-27.909-21.567
	c-7.576-6.729-14.754-13.897-21.473-21.473c-7.805-8.777-15.015-18.108-21.567-27.909c-6.729-10.083-12.769-20.658-18.045-31.681
	c-8.819-18.432-15.496-38.087-19.717-58.64C1.797,291.025,0,273.721,0,256C0,114.615,114.615,0,256,0S512,114.615,512,256z"/>
<path style="fill:#574D70;" d="M465.643,209.643c0,1.685-0.017,3.372-0.06,5.049c-0.351,14.735-2.216,29.093-5.46,42.93
	c0,0,0,0,0,0.008c-0.83,3.551-1.754,7.068-2.772,10.542c-1.189,4.142-2.516,8.223-3.962,12.245
	c-9.386,26.184-23.839,49.954-42.176,70.133c-2.721,3.003-5.536,5.93-8.438,8.771c-28.161,27.63-64.091,47.362-104.206,55.637
	c-2.927,0.599-5.879,1.146-8.848,1.626h-0.008c-10.979,1.779-22.23,2.704-33.714,2.704c-57.16,0-108.963-22.873-146.784-59.958
	c-10.602-10.405-20.1-21.905-28.306-34.356l-0.008-0.008c-11.414-17.293-20.332-36.367-26.244-56.723
	c-0.008-0.017-0.008-0.043-0.017-0.06c-5.399-18.577-8.283-38.223-8.283-58.537c0-11.475,0.924-22.744,2.704-33.714
	c3.32-20.579,9.643-40.158,18.5-58.264c21.401-43.769,57.605-78.98,102.092-99.114c21.04-9.525,43.938-15.678,67.992-17.757
	C243.695,0.265,249.813,0,256,0C371.783,0,465.643,93.86,465.643,209.643z"/>
<path style="fill:#EDC51C;" d="M326.217,348.891c0,75.87-51.796,139.64-121.96,157.874c-99.871-20.49-178.531-99.15-199.022-199.032
	c18.244-70.154,82.014-121.95,157.874-121.95C253.189,185.783,326.217,258.811,326.217,348.891z"/>
<path style="fill:#FFDE56;" d="M267.348,366.373h46.582c-1.724,15.047-5.653,29.424-11.452,42.799l-40.344-23.291
	c-4.148,11.086-10.094,21.295-17.492,30.26l40.333,23.291c-8.85,11.901-19.414,22.476-31.326,31.326l-23.291-40.333
	c-8.965,7.398-19.163,13.343-30.26,17.492l23.301,40.343c-13.385,5.799-27.763,9.718-42.809,11.442V453.13
	c-5.684,0.94-11.525,1.442-17.481,1.442c-5.956,0-11.786-0.502-17.471-1.442v33.928c-11.024-5.277-21.608-11.316-31.692-18.056
	l12.163-21.086c-11.076-4.148-21.285-10.094-30.25-17.492l-9.822,17.011c-7.576-6.729-14.754-13.897-21.473-21.473l17.011-9.822
	c-7.408-8.965-13.354-19.174-17.492-30.26l-21.086,12.173c-6.729-10.083-12.769-20.658-18.045-31.681H58.87
	c-0.951-5.695-1.452-11.525-1.452-17.481s0.502-11.786,1.452-17.481H12.288c1.724-15.047,5.642-29.424,11.452-42.809l40.344,23.291
	c4.138-11.086,10.083-21.285,17.492-30.26l-40.344-23.28c8.861-11.912,19.435-22.476,31.336-31.326l23.291,40.333
	c8.965-7.398,19.174-13.354,30.25-17.492l-23.28-40.344c13.375-5.799,27.752-9.718,42.809-11.442v46.561
	c5.684-0.94,11.515-1.442,17.471-1.442s11.797,0.502,17.481,1.442v-46.561c15.047,1.724,29.424,5.642,42.809,11.442l-23.301,40.344
	c11.097,4.138,21.295,10.094,30.26,17.492l23.291-40.344c11.912,8.861,22.465,19.425,31.326,31.337l-40.333,23.28
	c7.398,8.976,13.343,19.174,17.492,30.26l40.344-23.28c5.799,13.375,9.728,27.753,11.452,42.799h-46.582
	c0.94,5.695,1.442,11.525,1.442,17.481S268.288,360.678,267.348,366.373z"/>
<g>
	<circle style="fill:#EDC51C;" cx="163.109" cy="348.891" r="94.929"/>
	<path style="fill:#EDC51C;" d="M326.216,348.887c0,25.569-5.883,49.758-16.374,71.304c-21.546,10.501-45.746,16.384-71.314,16.384
		c-90.091,0-163.119-73.017-163.119-163.109c0-25.569,5.883-49.758,16.374-71.304c21.546-10.501,45.746-16.384,71.325-16.384
		C253.188,185.779,326.216,258.807,326.216,348.887z"/>
</g>
<path style="fill:#DB428F;" d="M419.109,256c0,25.569-5.883,49.758-16.374,71.304c-26.457,54.345-82.223,91.805-146.735,91.805
	c-90.091,0-163.119-73.028-163.119-163.109c0-64.502,37.449-120.268,91.794-146.725C206.221,98.774,230.421,92.891,256,92.891
	C346.081,92.891,419.109,165.919,419.109,256z"/>
<path style="fill:#ED55A9;" d="M361.681,256.002c0-5.952-0.499-11.791-1.445-17.476h46.576
	c-1.724-15.053-5.646-29.434-11.445-42.808l-40.345,23.289c-4.147-11.085-10.093-21.291-17.496-30.259l40.338-23.289
	c-8.862-11.911-19.42-22.469-31.33-31.33l-23.289,40.338c-8.961-7.397-19.168-13.349-30.259-17.49l23.295-40.345
	c-13.375-5.799-27.756-9.72-42.808-11.445v46.57c-5.685-0.946-11.524-1.445-17.476-1.445c-5.959,0-11.791,0.499-17.476,1.445v-46.57
	c-15.053,1.724-29.434,5.646-42.808,11.445l23.289,40.345c-11.085,4.141-21.291,10.093-30.259,17.49l-23.289-40.332
	c-11.903,8.854-22.469,19.42-31.33,31.324l40.338,23.289c-7.403,8.967-13.349,19.174-17.49,30.259l-40.345-23.295
	c-5.805,13.382-9.727,27.762-11.451,42.815h46.576c-0.946,5.685-1.445,11.524-1.445,17.476c0,5.952,0.499,11.791,1.445,17.476
	h-46.576c1.724,15.053,5.646,29.433,11.445,42.808l40.352-23.295c4.141,11.092,10.086,21.297,17.49,30.259l-40.338,23.289
	c8.854,11.911,19.42,22.476,31.33,31.33l23.289-40.338c8.967,7.403,19.174,13.349,30.259,17.496l-23.289,40.345
	c13.375,5.799,27.756,9.72,42.808,11.445V360.24c5.685,0.946,11.518,1.445,17.476,1.445c5.952,0,11.791-0.499,17.476-1.445v46.576
	c15.053-1.724,29.434-5.646,42.808-11.445l-23.295-40.345c11.092-4.147,21.297-10.093,30.259-17.496l23.289,40.338
	c11.911-8.854,22.476-19.42,31.33-31.33l-40.338-23.289c7.403-8.961,13.349-19.168,17.496-30.259l40.345,23.295
	c5.799-13.375,9.72-27.756,11.445-42.808h-46.576C361.183,267.793,361.681,261.954,361.681,256.002z"/>
<g>
	<circle style="fill:#DB428F;" cx="256" cy="256" r="94.929"/>
	<path style="fill:#DB428F;" d="M419.109,256c0,25.569-5.883,49.758-16.374,71.304c-21.546,10.501-45.746,16.384-71.314,16.384
		c-90.091,0-163.119-73.017-163.119-163.109c0-25.569,5.883-49.758,16.374-71.304C206.221,98.774,230.421,92.891,256,92.891
		C346.081,92.891,419.109,165.919,419.109,256z"/>
</g>
<circle style="fill:#129BBD;" cx="348.881" cy="163.109" r="163.109"/>
<path style="fill:#3FC0DD;" d="M454.57,163.114c0-5.952-0.499-11.791-1.445-17.476h46.576c-1.724-15.053-5.646-29.434-11.445-42.808
	l-40.345,23.289c-4.147-11.085-10.093-21.291-17.496-30.259l40.338-23.289c-8.862-11.911-19.42-22.469-31.33-31.33l-23.289,40.338
	c-8.961-7.397-19.168-13.349-30.259-17.49l23.295-40.345c-13.375-5.799-27.756-9.72-42.808-11.445v46.57
	c-5.685-0.946-11.524-1.445-17.476-1.445c-5.959,0-11.791,0.499-17.476,1.445V12.298c-15.053,1.724-29.434,5.646-42.808,11.445
	l23.289,40.345c-11.085,4.141-21.291,10.093-30.259,17.49l-23.289-40.332c-11.903,8.854-22.469,19.42-31.33,31.324l40.338,23.289
	c-7.403,8.967-13.349,19.174-17.49,30.259l-40.345-23.295c-5.805,13.382-9.727,27.762-11.451,42.815h46.576
	c-0.946,5.685-1.445,11.524-1.445,17.476s0.499,11.791,1.445,17.476h-46.576c1.724,15.053,5.646,29.433,11.445,42.808l40.352-23.295
	c4.141,11.092,10.086,21.298,17.49,30.259l-40.338,23.289c8.854,11.911,19.42,22.476,31.33,31.33l23.289-40.338
	c8.967,7.403,19.174,13.349,30.259,17.496l-23.289,40.345c13.375,5.799,27.756,9.72,42.808,11.445v-46.576
	c5.685,0.946,11.518,1.445,17.476,1.445c5.952,0,11.791-0.499,17.476-1.445v46.576c15.053-1.724,29.434-5.646,42.808-11.445
	l-23.295-40.345c11.092-4.147,21.297-10.093,30.259-17.496l23.289,40.338c11.911-8.854,22.476-19.42,31.33-31.33l-40.338-23.289
	c7.403-8.961,13.349-19.168,17.496-30.259l40.345,23.295c5.799-13.375,9.72-27.756,11.445-42.808h-46.576
	C454.071,174.903,454.57,169.066,454.57,163.114z"/>
<circle style="fill:#129BBD;" cx="348.881" cy="163.109" r="94.929"/>
<g>
	<path style="fill:#3FC0DD;" d="M319.014,151.95c14.656,0,25.966,6.463,25.966,24.234v2.192c0,18.464-11.54,25.389-25.85,25.389
		c-16.733,0-25.966-9.694-25.966-20.427c0-4.385,2.308-5.655,6.001-5.655c5.078,0,6.232,2.077,6.232,4.847
		c0,6.578,6.001,10.386,13.502,10.386c8.655,0,13.848-4.616,13.848-14.541v-2.192c0-9.81-5.193-14.541-13.733-14.541h-16.733
		c-4.04,0-5.193-1.846-5.193-4.731c0-0.808,0.115-1.962,0.231-2.77l2.654-31.39c0.231-2.539,1.039-4.04,2.77-4.04h34.275
		c2.539,0,3.809,2.77,3.809,5.424c0,2.77-1.27,5.424-3.809,5.424h-26.658l-1.615,22.388h10.27V151.95z"/>
	<path style="fill:#3FC0DD;" d="M353.982,178.031v-33.582c0-18.695,11.194-25.735,25.85-25.735c14.541,0,25.966,7.039,25.966,25.735
		v33.582c0,18.695-11.425,25.735-25.966,25.735C365.176,203.766,353.982,196.726,353.982,178.031z M393.565,144.449
		c0-10.155-5.193-14.887-13.733-14.887c-8.655,0-13.617,4.731-13.617,14.887v33.582c0,10.155,4.962,14.887,13.617,14.887
		c8.54,0,13.733-4.731,13.733-14.887V144.449z"/>
</g>
<g>
</g>
<g>
</g>
<g>
</g>
<g>
</g>
<g>
</g>
<g>
</g>
<g>
</g>
<g>
</g>
<g>
</g>
<g>
</g>
<g>
</g>
<g>
</g>
<g>
</g>
<g>
</g>
<g>
</g>
</svg>
