<?xml version="1.0" encoding="iso-8859-1"?>
<!-- Generator: Adobe Illustrator 19.0.0, SVG Export Plug-In . SVG Version: 6.00 Build 0)  -->
<svg version="1.1" id="Capa_1" xmlns="http://www.w3.org/2000/svg" xmlns:xlink="http://www.w3.org/1999/xlink" x="0px" y="0px"
	 viewBox="0 0 512 512" style="enable-background:new 0 0 512 512;" xml:space="preserve">
<path style="fill:#FFDE56;" d="M512,256c0,141.385-114.615,256-256,256c-23.97,0-47.156-3.291-69.151-9.446
	c-19.372-5.423-37.815-13.072-55.035-22.653c-4.827-2.675-9.55-5.507-14.179-8.485c-0.178-0.115-0.366-0.23-0.543-0.355
	c-37.752-24.43-68.66-58.525-89.224-98.795c-1.62-3.156-3.166-6.363-4.65-9.592C8.307,330.198,0,294.066,0,256
	C0,114.615,114.615,0,256,0S512,114.615,512,256z"/>
<circle style="fill:#FFE584;" cx="256" cy="204.727" r="204.727"/>
<g>
	<path style="fill:#ED55A9;" d="M127.996,193.789v36.609h38.4v-38.4h38.4v38.4h38.4v38.408h38.4v-38.408h42.585h15.675h18.539
		v38.408h38.4v-38.408h38.408v-38.4h38.4v38.4H512v-38.4v-38.4h-38.4v-38.4h-38.4v-38.4h-38.408V38.4h-38.4v38.399h-38.399h-38.399
		V38.4h-38.4v38.399h-38.4v38.4h-38.4v38.4h-38.4v24.515v15.675H127.996z M396.793,115.198v38.4h-38.4v-38.4H396.793z
		 M281.595,115.198v38.4h-38.4v-38.4H281.595z"/>
	<rect x="396.79" y="268.8" style="fill:#ED55A9;" width="38.408" height="38.399"/>
	<rect x="396.79" style="fill:#ED55A9;" width="38.408" height="38.4"/>
	<rect x="204.8" y="268.8" style="fill:#ED55A9;" width="38.4" height="38.399"/>
	<rect x="204.8" style="fill:#ED55A9;" width="38.4" height="38.4"/>
</g>
<path style="fill:#3FC0DD;" d="M383.645,362.214l-20.992-51.419l-51.399,20.992l-21.002-51.399l-20.982-51.399l-51.409,20.992
	l-21.002-51.399l-51.399,20.982l-51.409,20.992l-51.409,21.002l20.992,51.399L12.225,333.96l15.642,38.306
	c20.564,40.27,51.472,74.365,89.224,98.795l9.519-3.887l5.204,12.727c17.22,9.582,35.662,17.23,55.035,22.653l12.163-4.963
	l-20.992-51.409l51.399-20.992l21.002,51.409l51.409-20.982l-20.992-51.43l51.409-20.992l20.992,51.409l51.409-20.982
	L383.645,362.214z M105.618,415.765l-20.982-51.399l51.399-21.002l20.992,51.409L105.618,415.765z M208.436,373.781l-20.992-51.399
	l51.399-20.992l20.992,51.399L208.436,373.781z"/>
<g>
</g>
<g>
</g>
<g>
</g>
<g>
</g>
<g>
</g>
<g>
</g>
<g>
</g>
<g>
</g>
<g>
</g>
<g>
</g>
<g>
</g>
<g>
</g>
<g>
</g>
<g>
</g>
<g>
</g>
</svg>
