<?xml version="1.0" encoding="iso-8859-1"?>
<!-- Generator: Adobe Illustrator 19.0.0, SVG Export Plug-In . SVG Version: 6.00 Build 0)  -->
<svg version="1.1" id="Capa_1" xmlns="http://www.w3.org/2000/svg" xmlns:xlink="http://www.w3.org/1999/xlink" x="0px" y="0px"
	 viewBox="0 0 512 512" style="enable-background:new 0 0 512 512;" xml:space="preserve">
<path style="fill:#FFDE56;" d="M512,256c0,59.005-19.968,113.361-53.53,156.662c-2.644,3.427-5.392,6.792-8.213,10.073
	C403.31,477.383,333.699,512,256,512s-147.31-34.607-194.247-89.255h-0.01c-9.927-11.557-18.84-24.001-26.603-37.219
	C12.81,347.523,0,303.261,0,256c0-53.06,16.144-102.348,43.781-143.224l0.01-0.021C89.819,44.722,167.685,0,256,0
	s166.191,44.722,212.198,112.755C495.856,153.631,512,202.93,512,256z"/>
<path style="fill:#FFE584;" d="M460.178,204.178c0,47.061-15.926,90.414-42.695,124.949c-2.109,2.733-4.301,5.417-6.551,8.034
	c-37.444,43.586-92.964,71.196-154.934,71.196s-117.49-27.602-154.926-71.188h-0.008c-7.917-9.217-15.026-19.143-21.218-29.686
	c-17.809-30.31-28.026-65.612-28.026-103.306c0-42.319,12.875-81.63,34.918-114.231l0.008-0.017C123.459,35.669,185.562,0,256,0
	s132.549,35.669,169.243,89.93C447.303,122.532,460.178,161.852,460.178,204.178z"/>
<path style="fill:#574D70;" d="M324.965,258.612c0,47.609-30.876,237.714-68.963,237.714s-68.963-190.105-68.963-237.714
	s30.876-86.204,68.963-86.204S324.965,211.003,324.965,258.612z"/>
<path style="fill:#463F5B;" d="M256.002,496.327c-38.087,0-68.963-190.109-68.963-237.714s30.877-86.204,68.963-86.204
	c-25.046,0-45.349,38.599-45.349,86.204S230.956,496.327,256.002,496.327z"/>
<path style="fill:#574D70;" d="M512,256c0,63.676-23.249,121.94-61.743,166.734c-35.286-16.771-79.078-80.259-108.701-134.959
	c-9.718-17.962-28.547-29.09-48.974-29.09h-73.164c-20.417,0-39.246,11.128-48.974,29.09
	c-29.612,54.7-73.415,118.188-108.69,134.969h-0.01C23.259,377.95,0,319.687,0,256c0-53.06,16.144-102.348,43.781-143.224
	c17.502-14.137,39.623-22.204,62.725-22.152v-0.031h55.996c3.981,0,7.837-0.982,11.254-2.79c3.417-1.797,6.405-4.43,8.641-7.711
	c4.493-6.583,11.943-10.512,19.905-10.512h107.405c3.981,0,7.837,0.982,11.243,2.79c3.427,1.808,6.405,4.43,8.652,7.722
	c4.493,6.572,11.933,10.501,19.895,10.501h55.996v0.031c23.092-0.052,45.202,8.004,62.704,22.131
	C495.856,153.631,512,202.93,512,256z"/>
<g>
	<path style="fill:#463F5B;" d="M458.47,412.662c-2.644,3.427-5.392,6.792-8.213,10.073
		c-35.286-16.781-79.088-80.259-108.69-134.959c-9.728-17.962-28.557-29.09-48.974-29.09h24.033
		c20.417,0,39.246,11.128,48.974,29.09C390.917,334.545,426.6,387.741,458.47,412.662z"/>
	<path style="fill:#463F5B;" d="M132.138,90.603v0.021C88.482,90.52,48.4,119.369,36.143,163.453
		c-10.971,39.528-19.466,158.354-1.003,222.072C12.81,347.523,0,303.261,0,256c0-53.06,16.144-102.348,43.781-143.224l0.01-0.021
		c17.512-14.127,39.623-22.183,62.715-22.131v-0.021H132.138z"/>
	<circle style="fill:#463F5B;" cx="112.692" cy="192.376" r="88.106"/>
	<circle style="fill:#463F5B;" cx="400.29" cy="192.376" r="88.106"/>
</g>
<g>
	<path style="fill:#574D70;" d="M162.861,167.224H147.94c-5.578,0-10.099-4.521-10.099-10.099v-14.921
		c0-5.578-4.521-10.099-10.099-10.099H97.635c-5.578,0-10.099,4.521-10.099,10.099v14.921c0,5.578-4.521,10.099-10.099,10.099
		H62.516c-5.578,0-10.099,4.521-10.099,10.099v30.108c0,5.578,4.521,10.099,10.099,10.099h14.921
		c5.578,0,10.099,4.521,10.099,10.099v14.921c0,5.578,4.521,10.099,10.099,10.099h30.108c5.578,0,10.099-4.521,10.099-10.099
		v-14.921c0-5.578,4.521-10.099,10.099-10.099h14.921c5.578,0,10.099-4.521,10.099-10.099v-30.108
		C172.96,171.747,168.439,167.224,162.861,167.224z"/>
	<path style="fill:#574D70;" d="M385.675,213.807l36.045-36.045c10.323-10.323,27.058-10.323,37.38,0l0,0
		c10.323,10.323,10.323,27.058,0,37.38l-36.045,36.045c-10.323,10.323-27.058,10.323-37.38,0l0,0
		C375.352,240.865,375.352,224.13,385.675,213.807z"/>
</g>
<g>
	<circle style="fill:#EAF1F9;" cx="439.411" cy="197.454" r="16.992"/>
	<circle style="fill:#EAF1F9;" cx="405.368" cy="231.497" r="16.992"/>
</g>
<path style="fill:#574D70;" d="M341.481,169.613l36.045-36.045c10.323-10.323,27.058-10.323,37.38,0l0,0
	c10.323,10.323,10.323,27.058,0,37.38l-36.045,36.045c-10.323,10.323-27.058,10.323-37.38,0l0,0
	C331.158,196.671,331.158,179.936,341.481,169.613z"/>
<g>
	<circle style="fill:#EAF1F9;" cx="395.212" cy="153.255" r="16.992"/>
	<circle style="fill:#EAF1F9;" cx="361.169" cy="187.298" r="16.992"/>
</g>
<g>
	<path style="fill:#463F5B;" d="M236.324,236.693h-12.256c-5.845,0-10.584-4.739-10.584-10.584l0,0
		c0-5.845,4.739-10.584,10.584-10.584h12.256c5.845,0,10.584,4.739,10.584,10.584l0,0
		C246.907,231.955,242.169,236.693,236.324,236.693z"/>
	<path style="fill:#463F5B;" d="M287.935,236.693H275.68c-5.845,0-10.584-4.739-10.584-10.584l0,0
		c0-5.845,4.739-10.584,10.584-10.584h12.256c5.845,0,10.584,4.739,10.584,10.584l0,0
		C298.52,231.955,293.781,236.693,287.935,236.693z"/>
</g>
<g>
	<path style="fill:#6B6889;" d="M108.398,143.524l-6.874,11.908c-1.907,3.303,0.476,7.432,4.291,7.432h13.749
		c3.815,0,6.198-4.129,4.291-7.432l-6.874-11.908C115.073,140.221,110.305,140.221,108.398,143.524z"/>
	<path style="fill:#6B6889;" d="M116.979,241.23l6.874-11.908c1.907-3.303-0.476-7.432-4.291-7.432h-13.749
		c-3.815,0-6.198,4.129-4.291,7.432l6.874,11.908C110.305,244.533,115.073,244.533,116.979,241.23z"/>
	<path style="fill:#6B6889;" d="M161.541,188.086l-11.908-6.874c-3.303-1.907-7.432,0.476-7.432,4.291v13.749
		c0,3.815,4.129,6.198,7.432,4.291l11.908-6.874C164.845,194.762,164.845,189.994,161.541,188.086z"/>
	<path style="fill:#6B6889;" d="M63.836,196.669l11.908,6.874c3.303,1.907,7.432-0.476,7.432-4.291v-13.749
		c0-3.815-4.129-6.198-7.432-4.291l-11.908,6.874C60.532,189.994,60.532,194.762,63.836,196.669z"/>
</g>
<g>
	<circle style="fill:#463F5B;" cx="187.371" cy="268.79" r="32.045"/>
	<circle style="fill:#463F5B;" cx="324.963" cy="268.79" r="32.045"/>
</g>
<g>
	<circle style="fill:#EAF1F9;" cx="324.963" cy="268.79" r="18.612"/>
	<circle style="fill:#EAF1F9;" cx="187.371" cy="268.79" r="18.612"/>
</g>
<g>
</g>
<g>
</g>
<g>
</g>
<g>
</g>
<g>
</g>
<g>
</g>
<g>
</g>
<g>
</g>
<g>
</g>
<g>
</g>
<g>
</g>
<g>
</g>
<g>
</g>
<g>
</g>
<g>
</g>
</svg>
