<svg id="Capa_1" enable-background="new 0 0 512 512" height="512" viewBox="0 0 512 512" width="512" xmlns="http://www.w3.org/2000/svg"><path d="m512 256.655c0 57.512-18.965 110.594-50.982 153.334-46.693 62.331-363.344 62.331-410.037 0-32.016-42.74-50.981-95.822-50.981-153.334 0-141.385 114.615-256 256-256s256 114.615 256 256z" fill="#484e55"/><path d="m476 266.655-220-25-220 25 14.983 143.332c16.957 22.637 37.581 42.365 60.983 58.322l144.034 18.036 144.034-18.036c23.402-15.956 44.025-35.685 60.983-58.322z" fill="#ffe473"/><path d="m106.658 464.588-.306-3.243-20.352-194.69-.531-5.621-49.469 5.621 14.983 143.332c15.663 20.909 34.456 39.334 55.675 54.601z" fill="#ffcd61"/><path d="m476 216.655-220 25-220-25v-139.505c0-27.614 22.386-50 50-50h37.544l49.956 42 57.5-42h50l60.963 28 46.537-28h37.5c27.614 0 50 22.386 50 50z" fill="#ffe473"/><path d="m86 64.694c0-20.735 16.809-37.544 37.544-37.544h-37.544c-27.614 0-50 22.386-50 50v139.505l50 5.682z" fill="#ffcd61"/><path d="m231 27.15h-107.5c-20.711 0-37.5 16.789-37.5 37.5v92.005c0 5.523 4.477 10 10 10h125c5.523 0 10-4.477 10-10z" fill="#ba623e"/><path d="m388.5 27.15h-107.5v129.505c0 5.523 4.477 10 10 10h125c5.523 0 10-4.477 10-10v-92.005c0-20.711-16.789-37.5-37.5-37.5z" fill="#ba623e"/><path d="m493.5 256.655v-30c0-5.523-4.477-10-10-10h-455c-5.523 0-10 4.477-10 10v30c0 5.523 4.477 10 10 10h455c5.523 0 10-4.477 10-10z" fill="#ffcd61"/><path d="m409.758 461.345h-307.516c36.291 27.304 80.072 45.186 127.715 50h52.086c47.643-4.814 91.425-22.696 127.715-50z" fill="#ffcd61"/><path d="m411.811 402.385 14.189-135.73h-340l14.189 135.73c.532 5.093 4.825 8.96 9.946 8.96h291.731c5.12 0 9.413-3.868 9.945-8.96z" fill="#ba623e"/><path d="m68.5 256.655v-30c0-5.523 4.477-10 10-10h-50c-5.523 0-10 4.477-10 10v30c0 5.523 4.477 10 10 10h50c-5.523 0-10-4.477-10-10z" fill="#f4be53"/><path d="m286 281.655h-60c-5.523 0-10-4.477-10-10v-60c0-5.523 4.477-10 10-10h60c5.523 0 10 4.477 10 10v60c0 5.523-4.477 10-10 10z" fill="#ffe473"/><path d="m256 271.655v-60c0-5.523 4.477-10 10-10h-40c-5.523 0-10 4.477-10 10v60c0 5.523 4.477 10 10 10h40c-5.523 0-10-4.477-10-10z" fill="#ffcd61"/><path d="m271 231.655c0-8.522-7.107-15.385-15.718-14.983-7.595.354-13.856 6.573-14.26 14.165-.313 5.889 2.78 11.074 7.478 13.795v14.523c0 4.142 3.358 7.5 7.5 7.5 4.142 0 7.5-3.358 7.5-7.5v-14.523c4.479-2.595 7.5-7.428 7.5-12.977z" fill="#f4be53"/><g fill="#964f32"><path d="m231 104.403v-15h-85c-5.523 0-10-4.477-10-10v-14.753c0-20.711 16.789-37.5 37.5-37.5h-50c-20.711 0-37.5 16.789-37.5 37.5v92.005c0 5.523 4.477 10 10 10h50c-5.523 0-10-4.477-10-10v-42.252c0-5.523 4.477-10 10-10z"/><path d="m419.221 331.5h-267.433c-5.12 0-9.413-3.868-9.946-8.96l-5.842-55.885h-50l14.189 135.73c.532 5.093 4.825 8.96 9.946 8.96h50c-5.12 0-9.413-3.868-9.946-8.96l-4.688-44.845c-.617-5.902 4.012-11.04 9.946-11.04h262.207z"/><path d="m426 104.403v-15h-85c-5.523 0-10-4.477-10-10v-52.253h-50v129.505c0 5.523 4.477 10 10 10h50c-5.523 0-10-4.477-10-10v-42.252c0-5.523 4.477-10 10-10z"/></g></svg>