<svg id="Capa_1" enable-background="new 0 0 512 512" height="512" viewBox="0 0 512 512" width="512" xmlns="http://www.w3.org/2000/svg"><circle cx="256" cy="256" fill="#ffe473" r="256"/><path d="m487 75h-462c-13.807 0-25-11.193-25-25 0-13.807 11.193-25 25-25h462c13.807 0 25 11.193 25 25 0 13.807-11.193 25-25 25z" fill="#ba623e"/><path d="m456 40v133.97c0 3.93-1.56 7.71-4.35 10.5l-20.03 20.03c-5.8 5.8-5.8 15.2 0 21l13.88 13.88c2.9 2.9 4.35 6.7 4.35 10.5s-1.45 7.6-4.35 10.5c-5.8 5.8-5.8 15.2 0 21l6.15 6.15c2.79 2.79 4.35 6.57 4.35 10.5v117.78c-46.91 58.63-119.07 96.19-200 96.19-39.38 0-76.68-8.89-110-24.78-35.17-16.76-65.91-41.31-90-71.41v-32.13c0-3.93 1.56-7.71 4.35-10.5l20.51-20.5c5.79-5.8 5.79-15.2 0-21l-20.51-20.51c-2.79-2.78-4.35-6.56-4.35-10.5v-260.67z" fill="#c9993f"/><path d="m146 40v447.22c-35.17-16.76-65.91-41.31-90-71.41v-32.13c0-3.93 1.56-7.71 4.35-10.5l20.51-20.5c5.79-5.8 5.79-15.2 0-21l-20.51-20.51c-2.79-2.78-4.35-6.56-4.35-10.5v-260.67z" fill="#bc8835"/><path d="m461 100h-410c-11.046 0-20-8.954-20-20v-60c0-11.046 8.954-20 20-20h410c11.046 0 20 8.954 20 20v60c0 11.046-8.954 20-20 20z" fill="#e3b64b"/><path d="m448.186 42.5h-343.686c-12.426 0-22.5-10.074-22.5-22.5 0-11.046 8.954-20 20-20h-51c-11.046 0-20 8.954-20 20v60c0 11.046 8.954 20 20 20h51c-11.046 0-20-8.954-20-20 0-12.426 10.074-22.5 22.5-22.5h344c4.219 0 7.624-3.483 7.497-7.731-.124-4.104-3.705-7.269-7.811-7.269z" fill="#c9993f"/><g fill="#e3b64b"><path d="m316.451 355.415h-120.902c-2.761 0-5-2.239-5-5v-120.901c0-2.761 2.239-5 5-5h120.901c2.761 0 5 2.239 5 5v120.901c.001 2.761-2.238 5-4.999 5z"/><path d="m287.134 140h113.83c2.761 0 5 2.239 5 5v113.83c0 4.455-5.386 6.685-8.536 3.536l-113.83-113.83c-3.149-3.15-.918-8.536 3.536-8.536z"/><path d="m224.866 439.929h-113.83c-2.761 0-5-2.239-5-5v-113.83c0-4.455 5.386-6.685 8.536-3.536l113.83 113.83c3.149 3.15.918 8.536-3.536 8.536z"/><path d="m405.964 321.099v113.83c0 2.761-2.239 5-5 5h-113.83c-4.455 0-6.685-5.386-3.536-8.536l113.83-113.83c3.151-3.15 8.536-.919 8.536 3.536z"/><path d="m106.036 258.83v-113.83c0-2.761 2.239-5 5-5h113.83c4.455 0 6.685 5.386 3.536 8.536l-113.83 113.83c-3.151 3.149-8.536.919-8.536-3.536z"/><path d="m360.715 263.778 22.651 22.651c1.953 1.953 1.953 5.118 0 7.071l-22.651 22.651c-3.15 3.15-8.536.919-8.536-3.536v-45.302c0-4.454 5.386-6.685 8.536-3.535z"/><path d="m229.814 185.25 22.651-22.651c1.953-1.953 5.118-1.953 7.071 0l22.651 22.651c3.15 3.15.919 8.536-3.536 8.536h-45.302c-4.454-.001-6.685-5.387-3.535-8.536z"/><path d="m151.285 316.151-22.651-22.651c-1.953-1.953-1.953-5.118 0-7.071l22.651-22.651c3.15-3.15 8.536-.919 8.536 3.536v45.302c0 4.454-5.386 6.685-8.536 3.535z"/><path d="m282.186 394.679-22.651 22.651c-1.953 1.953-5.118 1.953-7.071 0l-22.651-22.651c-3.15-3.15-.919-8.536 3.536-8.536h45.302c4.454.001 6.685 5.386 3.535 8.536z"/></g><path d="m146 140h-34.964c-2.761 0-5 2.239-5 5v113.83c0 4.455 5.386 6.685 8.536 3.536l31.428-31.429z" fill="#c9993f"/><path d="m146 269.063-17.366 17.366c-1.953 1.953-1.953 5.118 0 7.071l17.366 17.366z" fill="#c9993f"/><path d="m146 348.992-31.429-31.429c-3.15-3.15-8.536-.919-8.536 3.536v113.83c0 2.761 2.239 5 5 5h34.965z" fill="#c9993f"/></svg>