<svg id="Capa_1" enable-background="new 0 0 512 512" height="512" viewBox="0 0 512 512" width="512" xmlns="http://www.w3.org/2000/svg"><path d="m256 0c-141.385 0-256 114.615-256 256 0 28.306 4.605 55.535 13.088 80.99l167.648 163.758c23.798 7.309 49.07 11.252 75.264 11.252 141.385 0 256-114.615 256-256s-114.615-256-256-256z" fill="#40718c"/><path d="m298.921 388.871 16.835-6.715c3.968-1.583 6.431-5.577 6.065-9.833l-1.557-18.061c-.367-4.256 2.096-8.25 6.064-9.833l16.84-6.719c3.968-1.583 6.431-5.577 6.064-9.833l-1.557-18.061c-.367-4.256 2.096-8.25 6.064-9.833l16.837-6.717c3.968-1.583 6.431-5.577 6.064-9.833l-1.557-18.06c-.367-4.256 2.096-8.25 6.064-9.833l16.838-6.717c3.968-1.583 6.431-5.577 6.064-9.833l-1.556-18.063c-.367-4.256 2.096-8.25 6.064-9.833l16.841-6.72c3.967-1.583 6.43-5.577 6.064-9.833l-1.556-18.064c-.367-4.256 2.096-8.25 6.064-9.833l16.84-6.719c3.967-1.583 6.43-5.577 6.064-9.833l-1.556-18.064c-.367-4.256 2.096-8.25 6.064-9.833l16.84-6.719c3.967-1.583 6.43-5.577 6.064-9.832l-1.556-18.065c-.367-4.256 2.096-8.249 6.064-9.832l9.86-3.934c6.465-2.58 8.183-10.931 3.261-15.853l-55.124-55.122c-3.629-3.629-9.457-3.799-13.292-.39l-335.495 298.303 152.251 152.251c3.784 3.784 9.92 3.784 13.705 0l25.881-25.881c2.022-2.022 3.048-4.835 2.803-7.685l-1.787-20.733c-.367-4.255 2.096-8.25 6.064-9.832z" fill="#daf0f6"/><path d="m265.96 453.002 25.881-25.881c2.022-2.022 3.048-4.835 2.802-7.685l-1.787-20.733c-.367-4.256 2.097-8.251 6.065-9.833l16.835-6.715c3.968-1.583 6.432-5.577 6.065-9.833l-1.557-18.061c-.367-4.256 2.096-8.25 6.064-9.833l16.84-6.719c3.968-1.583 6.431-5.577 6.064-9.833l-1.557-18.061c-.367-4.256 2.096-8.25 6.064-9.833l16.837-6.717c3.968-1.583 6.431-5.577 6.064-9.833l-1.557-18.06c-.367-4.256 2.096-8.25 6.064-9.833l16.838-6.717c3.968-1.583 6.431-5.577 6.064-9.833l-1.556-18.063c-.367-4.256 2.096-8.249 6.064-9.832l16.841-6.72c3.967-1.583 6.43-5.577 6.064-9.833l-1.556-18.064c-.367-4.256 2.096-8.25 6.064-9.833l16.84-6.719c3.967-1.583 6.43-5.577 6.064-9.833l-1.556-18.064c-.367-4.256 2.096-8.25 6.064-9.833l16.84-6.719c3.967-1.583 6.43-5.577 6.064-9.832l-1.556-18.065c-.367-4.256 2.096-8.249 6.064-9.832l9.86-3.934c6.465-2.58 8.183-10.931 3.261-15.853l-8.586-8.586-323.35 323.35 80.278 80.278c3.783 3.785 9.919 3.785 13.703 0z" fill="#bee5eb"/><path d="m159.445 241.31 116.491 116.491c7.569 7.569 7.569 19.841 0 27.41l-45.736 45.736-143.901-143.901 45.736-45.736c7.569-7.569 19.841-7.569 27.41 0z" fill="#c174dc"/><path d="m248.526 330.392 27.41 27.41c7.569 7.569 7.569 19.841 0 27.41l-45.736 45.735-27.41-27.41 45.736-45.736c7.569-7.569 7.569-19.84 0-27.409z" fill="#ad61c8"/><path d="m133.993 472.334 17.362 17.362c4.67 2.095 9.419 4.044 14.233 5.862l64.611-64.611-27.41-27.41z" fill="#c174dc"/><path d="m147.698 486.039 3.657 3.657c4.671 2.095 9.42 4.044 14.233 5.862l64.611-64.611-13.705-13.705z" fill="#ad61c8"/><path d="m86.299 287.046-66.883 66.883c.934 2.254 1.892 4.495 2.888 6.715l22.608 22.608 68.797-68.797z" fill="#c174dc"/><path d="m23.811 332.311h97.293v19.382h-97.293z" fill="#ad61c8" transform="matrix(.707 -.707 .707 .707 -220.609 151.405)"/><path d="m72.594 300.751 143.901 143.901c7.569 7.569 19.841 7.569 27.41 0 7.569-7.569 7.569-19.841 0-27.41l-143.901-143.901c-7.569-7.569-19.841-7.569-27.41 0-7.569 7.569-7.569 19.841 0 27.41z" fill="#d587eb"/><path d="m216.495 417.242c7.569-7.569 7.569-19.841 0-27.41l27.41 27.41c7.569 7.569 7.569 19.841 0 27.41s-19.841 7.569-27.41 0l-27.41-27.41c7.569 7.569 19.841 7.569 27.41 0z" fill="#c174dc"/><path d="m31.207 342.138c-4.916-4.916-11.812-6.618-18.119-5.148 26.039 78.133 88.712 139.512 167.648 163.758.273-5.29-1.589-10.669-5.629-14.709z" fill="#d587eb"/><path d="m147.698 458.629c7.569 7.569 7.569 19.841 0 27.41-.462.462-.943.894-1.438 1.299 11.078 5.264 22.592 9.759 34.476 13.41.273-5.29-1.589-10.669-5.629-14.709z" fill="#c174dc"/><circle cx="243.924" cy="371.506" fill="#daf0f6" r="14.536"/></svg>