<svg id="Capa_1" enable-background="new 0 0 512 512" height="512" viewBox="0 0 512 512" width="512" xmlns="http://www.w3.org/2000/svg"><path d="m119.413 472.54h273.173c71.754-45.355 119.414-125.377 119.414-216.54 0-141.385-114.615-256-256-256s-256 114.615-256 256c0 91.163 47.66 171.185 119.413 216.54z" fill="#484e55"/><path d="m393.709 462v-216.781h-275.418v216.781c0 3.617.393 7.141 1.123 10.54 39.529 24.986 86.364 39.46 136.586 39.46s97.058-14.474 136.587-39.46c.729-3.399 1.122-6.923 1.122-10.54z" fill="#bee5eb"/><path d="m158.291 462v-216.781h-40v216.781c0 3.617.393 7.141 1.123 10.54 17.054 10.78 35.465 19.608 54.926 26.154-9.867-9.133-16.049-22.189-16.049-36.694z" fill="#b1dce0"/><path d="m256 31.062c97.358 0 176.282 78.924 176.282 176.281v146.266c0 11.046-8.954 20-20 20h-312.564c-11.046 0-20-8.954-20-20v-146.266c0-97.357 78.924-176.281 176.282-176.281z" fill="#daf0f6"/><path d="m119.718 353.609v-146.266c0-90.594 68.343-165.213 156.282-175.146-6.565-.742-13.236-1.136-20-1.136-97.358 0-176.281 78.924-176.281 176.281v146.266c0 11.046 8.954 20 20 20h40c-11.046.001-20.001-8.953-20.001-19.999z" fill="#bee5eb"/><g fill="#40718c"><path d="m227.074 314.243 10.465-26.252c6.652-16.686 30.27-16.686 36.922 0l10.465 26.252c3.902 9.788-3.308 20.425-13.846 20.425h-30.16c-10.537-.001-17.748-10.637-13.846-20.425z"/><circle cx="342.282" cy="233.121" r="50"/><circle cx="169.718" cy="233.121" r="50"/><path d="m325.793 373.609v26.099c0 7.709-6.249 13.958-13.958 13.958-7.709 0-13.958-6.249-13.958-13.958v-26.099h-27.917v26.099c0 7.709-6.249 13.958-13.958 13.958-7.709 0-13.958-6.249-13.958-13.958v-26.099h-27.917v26.099c0 7.709-6.249 13.958-13.958 13.958-7.709 0-13.958-6.249-13.958-13.958v-26.099h-27.917v88.391c0 5.523 4.477 10 10 10h45.834v-26.099c0-7.709 6.249-13.958 13.958-13.958 7.709 0 13.958 6.249 13.958 13.958v26.099h27.917v-26.099c0-7.709 6.249-13.958 13.958-13.958 7.709 0 13.958 6.249 13.958 13.958v26.099h45.834c5.523 0 10-4.477 10-10v-88.391z"/></g><path d="m316.472 149.313 13.67-24.369c3.754-6.692 3.348-14.942-1.044-21.234l-1.51-2.163c-5.795-8.301-4.474-19.623 3.077-26.366l19.147-17.099c-11.049-6.959-22.923-12.722-35.444-17.115l-26.635 30.567c-6.683 7.67-6.544 19.135.324 26.641l13.81 15.092c3.374 3.687 5.245 8.504 5.245 13.501v20.097c-.001 5.15 6.841 6.938 9.36 2.448z" fill="#b1dce0"/></svg>