<svg id="Capa_1" enable-background="new 0 0 512 512" height="512" viewBox="0 0 512 512" width="512" xmlns="http://www.w3.org/2000/svg"><path d="m453.578 418.796c36.498-44.246 58.422-100.961 58.422-162.796 0-141.385-114.615-256-256-256s-256 114.615-256 256c0 61.835 21.924 118.55 58.422 162.796z" fill="#484e55"/><path d="m256 10.951 74.755 14.331c3.201.614 3.201 5.196 0 5.81l-74.755 14.331z" fill="#ffcd61"/><path d="m256.091 107.284c-4.143 0-7.5-3.357-7.5-7.5v-88.833c0-4.143 3.357-7.5 7.5-7.5s7.5 3.357 7.5 7.5v88.833c0 4.143-3.358 7.5-7.5 7.5z" fill="#b1dce0"/><path d="m453.578 418.796-19.078-162.796h-357l-19.078 162.796c46.954 56.92 118.029 93.204 197.578 93.204s150.624-36.284 197.578-93.204z" fill="#ad61c8"/><path d="m289.212 82.523-33.212-18.523-33.212 18.523c-35.571 46.454-100.229 115.306-196.455 160.144h229.667 229.667c-96.226-44.838-160.884-113.69-196.455-160.144z" fill="#c174dc"/><path d="m385.647 256h-259.294l-17.813 209.279c41.688 29.427 92.552 46.721 147.46 46.721s105.772-17.294 147.46-46.721z" fill="#c174dc"/><path d="m277.359 82.523-24.122-18.523-24.122 18.523c-25.836 46.454-67.272 115.306-137.163 160.144h161.285 166.81c-69.89-44.838-116.852-113.69-142.688-160.144z" fill="#e6a0fa"/><path d="m333.042 256h-154.084l-12.14 240.025c27.772 10.323 57.815 15.975 89.182 15.975s61.41-5.652 89.182-15.975z" fill="#ad61c8"/><path d="m276 221.396h-40.027l-82.045 269.425c31.274 13.614 65.787 21.179 102.072 21.179 36.342 0 70.906-7.589 102.219-21.243z" fill="#804096"/><path d="m271.032 82.523-14.334-18.523-14.335 18.523c-15.353 46.454-43.26 115.306-84.792 160.144h99.126 97.731c-41.531-44.838-68.043-113.69-83.396-160.144z" fill="#c174dc"/><path d="m260.741 82.523-4.741-18.523-4.741 18.523c-5.077 46.454-14.306 115.306-28.041 160.144h32.782 32.782c-13.735-44.838-22.964-113.69-28.041-160.144z" fill="#e6a0fa"/><path d="m247.542 47.186c-5.509 8.711-13.739 20.951-24.754 35.337h66.424c-11.015-14.385-19.245-26.626-24.754-35.337-3.932-6.217-12.984-6.217-16.916 0z" fill="#daf0f6"/><path d="m256 42.523c-3.246 0-6.492 1.554-8.458 4.663-5.509 8.711-13.739 20.951-24.754 35.337h19.999c4.382-14.385 7.656-26.626 9.848-35.337.782-3.109 2.074-4.663 3.365-4.663z" fill="#bee5eb"/><path d="m26.333 242.667h65.619v32.81c0 18.12-14.689 32.809-32.81 32.809-18.12 0-32.81-14.689-32.81-32.809v-32.81z" fill="#ad61c8"/><path d="m91.952 242.667h65.619v32.81c0 18.12-14.689 32.809-32.81 32.809-18.12 0-32.81-14.689-32.81-32.809v-32.81z" fill="#d587eb"/><path d="m157.571 242.667h65.619v32.81c0 18.12-14.689 32.809-32.809 32.809-18.12 0-32.809-14.689-32.809-32.809v-32.81z" fill="#ad61c8"/><path d="m223.19 242.667h65.619v32.81c0 18.12-14.689 32.809-32.81 32.809-18.12 0-32.81-14.689-32.81-32.809v-32.81z" fill="#d587eb"/><path d="m288.81 242.667h65.619v32.81c0 18.12-14.689 32.809-32.81 32.809-18.12 0-32.81-14.689-32.81-32.809v-32.81z" fill="#ad61c8"/><path d="m354.429 242.667h65.619v32.81c0 18.12-14.689 32.809-32.809 32.809-18.12 0-32.809-14.689-32.809-32.809v-32.81z" fill="#d587eb"/><path d="m420.048 242.667h65.619v32.81c0 18.12-14.689 32.809-32.81 32.809-18.12 0-32.81-14.689-32.81-32.809v-32.81z" fill="#ad61c8"/></svg>