<svg id="Capa_1" enable-background="new 0 0 512 512" height="512" viewBox="0 0 512 512" width="512" xmlns="http://www.w3.org/2000/svg"><circle cx="256" cy="256" fill="#484e55" r="256"/><g fill="#ffe473"><path d="m466.948 263.295h-34.75c-4.143 0-7.5-3.357-7.5-7.5s3.357-7.5 7.5-7.5h34.75c4.143 0 7.5 3.357 7.5 7.5s-3.357 7.5-7.5 7.5z"/><path d="m449.573 280.67c-4.143 0-7.5-3.357-7.5-7.5v-34.75c0-4.143 3.357-7.5 7.5-7.5s7.5 3.357 7.5 7.5v34.75c0 4.143-3.357 7.5-7.5 7.5z"/><path d="m117.855 230.126h-34.75c-4.143 0-7.5-3.357-7.5-7.5s3.357-7.5 7.5-7.5h34.75c4.143 0 7.5 3.357 7.5 7.5s-3.357 7.5-7.5 7.5z"/><path d="m100.48 247.501c-4.143 0-7.5-3.357-7.5-7.5v-34.75c0-4.143 3.357-7.5 7.5-7.5s7.5 3.357 7.5 7.5v34.75c0 4.143-3.357 7.5-7.5 7.5z"/><path d="m208.998 42.203c5.127 17.011 18.437 30.321 35.449 35.449 8.271 2.493 8.271 14.204 0 16.697-17.011 5.127-30.321 18.437-35.449 35.449-2.493 8.271-14.204 8.271-16.697 0-5.127-17.011-18.437-30.321-35.449-35.449-8.271-2.493-8.271-14.204 0-16.697 17.011-5.127 30.321-18.437 35.449-35.449 2.494-8.271 14.205-8.271 16.697 0z"/></g><path d="m200.65 86c0-12.82 4.83-24.508 12.762-33.357-1.821-3.278-3.309-6.772-4.414-10.44-2.493-8.271-14.204-8.271-16.697 0-5.127 17.011-18.437 30.321-35.449 35.449-8.271 2.493-8.271 14.204 0 16.697 17.011 5.127 30.321 18.437 35.449 35.449 2.493 8.271 14.204 8.271 16.697 0 1.105-3.667 2.593-7.161 4.414-10.44-7.932-8.85-12.762-20.538-12.762-33.358z" fill="#ffcd61"/><path d="m352.151 355.456c5.127 17.011 18.437 30.321 35.449 35.449 8.271 2.493 8.271 14.204 0 16.697-17.011 5.127-30.321 18.437-35.449 35.449-2.493 8.271-14.204 8.271-16.697 0-5.127-17.011-18.437-30.321-35.449-35.449-8.271-2.493-8.271-14.204 0-16.697 17.011-5.127 30.321-18.437 35.449-35.449 2.493-8.271 14.204-8.271 16.697 0z" fill="#ffe473"/><path d="m343.803 399.253c0-12.82 4.83-24.508 12.762-33.357-1.821-3.278-3.309-6.772-4.414-10.44-2.493-8.271-14.204-8.271-16.697 0-5.127 17.011-18.437 30.321-35.449 35.449-8.271 2.493-8.271 14.204 0 16.697 17.011 5.127 30.321 18.437 35.449 35.449 2.493 8.271 14.204 8.271 16.697 0 1.105-3.667 2.593-7.161 4.414-10.44-7.932-8.85-12.762-20.539-12.762-33.358z" fill="#ffcd61"/><path d="m492 133.14-7.44 7.44-309.47 309.47c-15.03 15.03-34.56 22.83-54.26 23.4-13.43-8.37-26.03-17.95-37.64-28.57-17.2-15.75-32.24-33.82-44.64-53.71.57-19.7 8.37-39.23 23.4-54.26l316.91-316.91 32.59 32.59 47.96 47.96z" fill="#bee5eb"/><path d="m90.93 422.435c15.806 15.075 40.964 14.24 56.409-1.205l182.614-182.614c3.905-3.905 3.905-10.237 0-14.142l-42.426-42.426c-3.905-3.905-10.237-3.905-14.142 0l-183.146 183.144c-15.822 15.822-15.592 41.713.691 57.243z" fill="#35af94"/><path d="m308.74 203.26-190.216 190.216c-10.446 10.446-25.277 13.884-38.621 10.337 1.88 7.071 5.711 13.727 11.522 19.086 15.867 14.633 40.661 13.584 55.924-1.679l182.604-182.604c3.905-3.905 3.905-10.237 0-14.142z" fill="#189681"/><path d="m492 133.14-7.44 7.44-309.47 309.47c-15.03 15.03-34.56 22.83-54.26 23.4-13.43-8.37-26.03-17.95-37.64-28.57 22.75 2 46.2-5.7 63.62-23.12l316.28-316.28.63-.62z" fill="#b1dce0"/><path d="m364.721 34.142 113.137 113.137c7.81 7.81 20.474 7.81 28.284 0 7.81-7.81 7.81-20.474 0-28.284l-113.137-113.137c-7.81-7.81-20.474-7.81-28.284 0-7.811 7.81-7.811 20.474 0 28.284z" fill="#daf0f6"/><path d="m477.858 118.995c7.811-7.811 7.811-20.474 0-28.284l28.284 28.284c7.81 7.81 7.81 20.474 0 28.284-7.81 7.81-20.474 7.811-28.284 0l-28.284-28.284c7.81 7.81 20.473 7.81 28.284 0z" fill="#bee5eb"/></svg>