<svg id="Capa_1" enable-background="new 0 0 512 512" height="512" viewBox="0 0 512 512" width="512" xmlns="http://www.w3.org/2000/svg"><path d="m256 0c-141.385 0-256 114.615-256 256 0 30.194 5.243 59.16 14.842 86.057l155.101 155.101c26.897 9.599 55.863 14.842 86.057 14.842 141.385 0 256-114.615 256-256s-114.615-256-256-256z" fill="#35af94"/><path d="m440.893 71.107c-11.337-11.337-11.337-29.717 0-41.054l-30.054-30.053c-15.144 15.144-39.698 15.144-54.843 0l-151.914 151.914c15.144 15.144 15.144 39.698 0 54.843l30.054 30.054c11.337-11.337 29.717-11.337 41.054 0s11.337 29.717 0 41.054l30.054 30.054c15.144-15.144 39.698-15.144 54.843 0l151.913-151.915c-15.144-15.144-15.144-39.698 0-54.843l-30.054-30.054c-11.336 11.337-29.717 11.337-41.053 0z" fill="#d587eb"/><path d="m392.097 234.306-114.403-114.403c-11.488-11.488-11.488-30.113 0-41.601l-73.612 73.612c15.144 15.144 15.144 39.698 0 54.843l30.054 30.054c11.337-11.337 29.717-11.337 41.054 0s11.337 29.717 0 41.054l30.054 30.054c15.144-15.144 39.698-15.144 54.843 0l73.612-73.612c-11.489 11.487-30.115 11.487-41.602-.001z" fill="#c174dc"/><path d="m392.097 234.306-114.403-114.403c-11.488-11.488-11.488-30.113 0-41.601l-73.612 73.612c15.144 15.144 15.144 39.698 0 54.843l30.054 30.054c11.337-11.337 29.717-11.337 41.054 0s11.337 29.717 0 41.054l30.054 30.054c15.144-15.144 39.698-15.144 54.843 0l73.612-73.612c-11.489 11.487-30.115 11.487-41.602-.001z" fill="#c174dc"/><g fill="#804096"><path d="m325.308 121.226h65.466v65.466h-65.466z" transform="matrix(.707 -.707 .707 .707 -3.998 298.267)"/><path d="m311.75 94.184 46.291-46.291 46.292 46.291z"/><path d="m404.333 213.733-46.292 46.292-46.291-46.292z"/><path d="m417.816 107.667 46.291 46.292-46.291 46.291z"/><path d="m298.267 200.25-46.292-46.291 46.292-46.292z"/><path d="m379.775 107.667h24.558v24.558z"/><path d="m311.75 132.225v-24.558h24.557z"/></g><path d="m336.307 200.25h-24.557v-24.557z" fill="#632e6e"/><path d="m404.333 175.693v24.557h-24.558z" fill="#804096"/><path d="m305.243 362.76c-15.144-15.144-15.145-39.698 0-54.843l-30.054-30.054c-11.337 11.337-29.717 11.337-41.054 0s-11.337-29.717 0-41.053l-30.054-30.054c-15.145 15.144-39.698 15.144-54.843 0l-134.631 134.633c25.713 72.688 83.316 130.29 156.004 156.004z" fill="#d587eb"/><path d="m185.34 441.063-114.403-114.403c-11.488-11.488-11.488-30.113 0-41.601l-56.33 56.33c25.713 72.688 83.316 130.29 156.004 156.004l56.33-56.33c-11.488 11.488-30.113 11.488-41.601 0z" fill="#c174dc"/><path d="m118.551 327.983h65.466v65.466h-65.466z" fill="#804096" transform="matrix(.707 -.707 .707 .707 -210.754 212.625)"/><path d="m104.993 300.941 46.291-46.291 46.292 46.291z" fill="#804096"/><path d="m197.576 420.49-46.292 46.292-46.291-46.292z" fill="#804096"/><path d="m211.059 314.424 46.291 46.292-46.291 46.291z" fill="#804096"/><path d="m91.51 407.007-46.292-46.291 46.292-46.292z" fill="#804096"/><path d="m91.51 347.233-16.405-16.405-29.887 29.888 46.292 46.291z" fill="#632e6e"/><path d="m164.767 420.49h-59.774l46.291 46.292 29.888-29.887z" fill="#632e6e"/><path d="m173.018 314.424h24.558v24.558z" fill="#804096"/><path d="m104.993 338.982v-24.558h24.558z" fill="#804096"/><path d="m129.551 407.007h-24.558v-24.558z" fill="#632e6e"/><path d="m197.576 382.449v24.558h-24.558z" fill="#804096"/><path d="m281.862 124.072-29.887 29.887 46.292 46.291v-59.774z" fill="#632e6e"/><path d="m387.928 230.138-16.404-16.405h-59.774l46.291 46.292z" fill="#632e6e"/></svg>