<svg id="Capa_1" enable-background="new 0 0 512 512" height="512" viewBox="0 0 512 512" width="512" xmlns="http://www.w3.org/2000/svg"><circle cx="256" cy="256" fill="#484e55" r="256"/><path d="m440.31 78.351-18.09 18.09c-2.361 2.361-5.5 3.662-8.839 3.662s-6.478-1.301-8.839-3.662c-2.361-2.36-3.661-5.5-3.661-8.839s1.3-6.478 3.661-8.839l17.553-17.553c-3.824-3.264-7.743-6.418-11.757-9.456l-16.402 16.402c-5.194 5.193-8.055 12.1-8.055 19.445s2.86 14.252 8.055 19.446c5.194 5.193 12.1 8.055 19.445 8.055s14.251-2.861 19.445-8.055l17.588-17.588c-3.26-3.8-6.629-7.504-10.104-11.108z" fill="#b1dce0"/><path d="m371.274 137.209c-1.92 0-3.84-.732-5.304-2.197-2.928-2.93-2.928-7.679.002-10.607l40.192-40.192c2.929-2.929 7.678-2.929 10.607 0 2.929 2.929 2.929 7.678 0 10.607l-40.195 40.194c-1.464 1.463-3.383 2.195-5.302 2.195z" fill="#bee5eb"/><path d="m351.664 150.336c-80.448-80.448-210.88-80.448-291.328 0s-80.448 210.88 0 291.328 210.88 80.448 291.328 0 80.448-210.88 0-291.328zm-263.044 263.044c-64.723-64.723-64.724-170.036 0-234.759s170.036-64.723 234.759 0 64.724 170.036 0 234.759-170.035 64.723-234.759 0z" fill="#b1dce0"/><path d="m422 296c0-25.483-4.39-50.289-12.799-73.564l28.495-28.495c7.81-7.81 7.81-20.474 0-28.284l-101.353-101.352c-7.81-7.81-20.474-7.81-28.284 0l-42.426 42.426c-7.81 7.81-7.81 20.474 0 28.284l49.608 49.608c60.974 60.974 62.184 160.228 1.38 221.372-60.797 61.138-160.001 61.242-220.93.313-11.716-11.716-30.711-11.716-42.426 0-11.716 11.716-11.716 30.711 0 42.426 40.797 40.798 95.039 63.266 152.735 63.266 57.697 0 111.939-22.468 152.735-63.265s63.265-95.039 63.265-152.735z" fill="#daf0f6"/><path d="m95.691 448.735.017-.017c.972-.973 2.498-1.093 3.623-.302 31.036 21.819 67.946 33.584 106.668 33.584 49.683-.001 96.392-19.348 131.523-54.478s54.477-81.84 54.478-131.523c0-49.681-19.347-96.39-54.478-131.521l-22.392-22.392c-7.81-7.81-7.81-20.474 0-28.284l21.213-21.213c7.81-7.81 20.474-7.811 28.284 0l-28.284-28.284c-7.81-7.81-20.474-7.81-28.284 0l-42.426 42.426c-7.81 7.81-7.81 20.474 0 28.284l49.599 49.599c59.887 59.887 61.627 159.578 2.518 220.234-60.588 62.175-160.411 62.766-221.745 1.773-11.822-11.756-31.18-12.033-42.888-.164-11.568 11.727-11.518 30.611.148 42.278 11.716 11.716 30.711 11.716 42.426 0z" fill="#bee5eb"/><g fill="#4f859b"><circle cx="74.478" cy="427.522" r="15"/><path d="m369.342 153.871c6.026-6.026 5.853-15.904-.52-21.709-5.621-5.12-14.445-5.15-20.099-.067-4.386 3.943-5.864 9.796-4.467 15.042l-10.269 10.269c-2.929 2.929-2.929 7.678 0 10.607 2.929 2.929 7.678 2.929 10.607 0l10.269-10.269c5.001 1.333 10.555.051 14.479-3.873z"/></g></svg>