<svg id="Capa_1" enable-background="new 0 0 512 512" height="512" viewBox="0 0 512 512" width="512" xmlns="http://www.w3.org/2000/svg"><path d="m449.375 423.757c39.01-44.929 62.625-103.584 62.625-167.757 0-141.385-114.615-256-256-256s-256 114.615-256 256c0 64.173 23.615 122.828 62.625 167.757z" fill="#d587eb"/><path d="m175.42 114.412c0 11.046-8.954 20-20 20h-135.42c-11.046 0-20 8.954-20 20 0 11.046 8.954 20 20 20h58.337c11.046 0 20 8.954 20 20v34.883h82.674v-34.883c0-11.046 8.954-20 20-20h129.83c11.046 0 20-8.954 20-20 0-11.046 8.954-20 20-20h121.159c11.046 0 20-8.954 20-20 0-11.046-8.954-20-20-20h-296.58c-11.046 0-20 8.954-20 20z" fill="#e6a0fa"/><path d="m127.548 283.532 106.066 106.066 201.13-229.414-77.782-77.782z" fill="#3c5d78"/><path d="m434.744 160.184-201.13 229.414-28.284-28.284 201.13-229.414z" fill="#384e64"/><path d="m420.602 174.326-77.782-77.782c-7.81-7.81-7.81-20.474 0-28.284 7.81-7.81 20.474-7.81 28.284 0l77.782 77.782c7.81 7.81 7.81 20.474 0 28.284-7.81 7.81-20.474 7.81-28.284 0z" fill="#40718c"/><path d="m420.602 146.042c7.81-7.81 7.81-20.474 0-28.284l28.284 28.284c7.81 7.811 7.81 20.474 0 28.284-7.81 7.81-20.474 7.811-28.284 0l-28.284-28.284c7.81 7.81 20.473 7.81 28.284 0z" fill="#3c5d78"/><path d="m461 236h-410v131c0 20.155 4.147 39.34 11.625 56.757 42.316 48.736 102.754 81.301 170.823 87.243h45.104c68.069-5.943 128.507-38.507 170.823-87.243 7.478-17.417 11.625-36.602 11.625-56.757z" fill="#40718c"/><path d="m256 511c-79.529 0-144-64.471-144-144v-131h-61v131c0 20.155 4.147 39.34 11.625 56.757 42.316 48.736 102.754 81.301 170.823 87.243z" fill="#3c5d78"/><path d="m461 216h-410c-11.046 0-20 8.954-20 20 0 11.046 8.954 20 20 20h410c11.046 0 20-8.954 20-20 0-11.046-8.954-20-20-20z" fill="#4f859b"/><path d="m92 236c0-11.046 8.954-20 20-20h-61c-11.046 0-20 8.954-20 20 0 11.046 8.954 20 20 20h61c-11.046 0-20-8.954-20-20z" fill="#40718c"/><g fill="#4f859b"><path d="m394.799 450.939c-3.54 0-7.092-1.245-9.949-3.778-6.197-5.498-6.765-14.979-1.267-21.176 14.456-16.296 22.417-37.244 22.417-58.985v-42.453c0-8.284 6.716-15 15-15s15 6.716 15 15v42.453c0 29.085-10.645 57.104-29.974 78.894-2.964 3.34-7.086 5.045-11.227 5.045z"/><path d="m118.548 472c39.709 25.322 86.865 40 137.452 40s97.743-14.678 137.452-40z"/></g></svg>