<svg id="Capa_1" enable-background="new 0 0 512 512" height="512" viewBox="0 0 512 512" width="512" xmlns="http://www.w3.org/2000/svg"><circle cx="256" cy="256" fill="#484e55" r="256"/><circle cx="256" cy="256" fill="#daf0f6" r="216"/><path d="m200 256c0-91.029 56.313-168.898 136-200.691-24.743-9.872-51.735-15.309-80-15.309-119.293 0-216 96.707-216 216s96.707 216 216 216c28.265 0 55.257-5.437 80-15.309-79.687-31.793-136-109.662-136-200.691z" fill="#bee5eb"/><circle cx="256" cy="256" fill="#d587eb" r="176"/><path d="m287.016 82.738c-10.071-1.799-20.436-2.738-31.016-2.738-97.047 0-176 78.953-176 176s78.953 176 176 176c10.58 0 20.945-.939 31.016-2.738-52.812-39.376-87.016-102.321-87.016-173.262s34.204-133.886 87.016-173.262z" fill="#c174dc"/><circle cx="256" cy="256" fill="#daf0f6" r="136"/><path d="m200 256c0-51.435 17.983-98.665 47.998-135.758-71.279 4.157-127.998 63.455-127.998 135.758s56.719 131.601 127.998 135.758c-30.015-37.093-47.998-84.323-47.998-135.758z" fill="#bee5eb"/><circle cx="256" cy="256" fill="#d587eb" r="96"/><path d="m200 256c0-31.558 6.773-61.531 18.937-88.554-34.586 14.53-58.937 48.751-58.937 88.554s24.351 74.024 58.937 88.554c-12.164-27.023-18.937-56.996-18.937-88.554z" fill="#c174dc"/><circle cx="256" cy="256" fill="#daf0f6" r="56"/><path d="m445.338 226.749h49.84v58.501h-49.84z" fill="#804096" transform="matrix(0 -1 1 0 214.258 726.258)"/><path d="m441.008 256h58.501v24.92h-58.501z" fill="#632e6e"/><path d="m428.491 227.459v57.082c0 6.899 5.592 12.491 12.491 12.491 6.899 0 12.491-5.592 12.491-12.491v-57.082c0-6.899-5.593-12.491-12.491-12.491-6.898 0-12.491 5.592-12.491 12.491z" fill="#ffcd61"/><path d="m440.983 272.112c-6.899 0-12.491-5.592-12.491-12.491v24.92c0 6.899 5.593 12.491 12.491 12.491s12.491-5.593 12.491-12.491v-24.92c0 6.899-5.593 12.491-12.491 12.491z" fill="#f4be53"/><path d="m487.018 227.459v57.082c0 6.899 5.593 12.491 12.491 12.491 6.899 0 12.491-5.592 12.491-12.491v-57.082c0-6.899-5.592-12.491-12.491-12.491-6.899 0-12.491 5.592-12.491 12.491z" fill="#ffcd61"/><path d="m499.509 272.112c-6.899 0-12.491-5.592-12.491-12.491v24.92c0 6.899 5.592 12.491 12.491 12.491s12.491-5.592 12.491-12.491v-24.92c0 6.899-5.593 12.491-12.491 12.491z" fill="#f4be53"/><path d="m390.98 178.124c0 13.811 11.196 25.008 25.008 25.008h.013v130.744c0 13.811 11.196 25.008 25.008 25.008s25.008-11.196 25.008-25.008c0-13.811-11.196-25.008-25.008-25.008-.008 0-.017.001-.025.001v-130.248c.003-.166.013-.33.013-.496 0-13.811-11.196-25.008-25.008-25.008-13.813 0-25.009 11.196-25.009 25.007z" fill="#ffe473"/><path d="m440.983 308.867c-13.8-.013-24.983-11.204-24.983-25.007v50.015c0 13.811 11.196 25.008 25.008 25.008s25.008-11.196 25.008-25.008c0-13.811-11.196-25.008-25.008-25.008-.008 0-.017.001-.025.001z" fill="#ffcd61"/><path d="m256 223h160v66h-160z" fill="#fff"/><path d="m256 259h160v30h-160z" fill="#daf0f6"/><path d="m256 184c-4.142 0-7.5 3.358-7.5 7.5v135c0 4.142 3.358 7.5 7.5 7.5 4.142 0 7.5-3.358 7.5-7.5v-135c0-4.142-3.358-7.5-7.5-7.5z" fill="#c174dc"/></svg>