<svg id="Layer_1" enable-background="new 0 0 512 512" height="512" viewBox="0 0 512 512" width="512" xmlns="http://www.w3.org/2000/svg"><g><path d="m412.49 445.789c47.7-44.702 77.514-108.261 77.514-178.791 0-135.311-109.691-245.002-245.002-245.002s-245.002 109.691-245.002 245.002c0 36.588 8.034 71.296 22.412 102.475z" fill="#50dd89"/><path d="m249.841 319.737c-1.14-1.807-2.018-3.614-2.707-5.355-2.765-3.914-4.35-8.102-4.35-12.562 0-5.762 0-4.036 0-7.767-10.046 8.981-27.275 20.424-41.463 20.768-.559-.014-1.124-.05-1.691-.097.709 1.341 1.501 2.685 2.395 4.028-.052 5.082-1.728 53.512-45.318 69.356-.499-.216-1.298-.541-2.347-.905l2.623 23.463c6.077 2.921 12.382 5.589 18.912 7.974 16.634 6.071 35.706 6.072 52.336 0 5.975-2.182 11.753-4.609 17.346-7.244l8.156-72.964c.726-6.488-.408-13.175-3.892-18.695z" fill="#ffaa7b"/><path d="m159.858 294.053v7.767c0 4.461-1.584 8.649-4.35 12.562-.689 1.741-1.567 3.547-2.707 5.354-3.483 5.52-4.618 12.207-3.893 18.694l5.638 50.438c1.343.492 2.096.857 2.096.857 47.92-16.968 46.883-71.431 46.883-71.431-.788-1.16-1.487-2.32-2.132-3.477-.024.001-.049.003-.072.004-14.189-.343-31.417-11.786-41.463-20.768z" fill="#fc9460"/><path d="m225.158 417.382c-14.733 5.379-31.63 5.379-46.366 0-7.743-2.827-15.129-6.102-22.149-9.766l8.947 80.036 34.971 20.31c11.027 2.018 22.31 3.303 33.799 3.794l11.562-103.433c-6.609 3.375-13.527 6.417-20.764 9.059z" fill="#73c3f9"/><path d="m200.561 461.985c0-14.871 12.167-27.039 27.039-27.039h15.346l2.976-26.624c-6.608 3.375-13.526 6.417-20.764 9.059-14.733 5.379-31.63 5.379-46.366 0-7.743-2.827-15.129-6.102-22.149-9.766l10.246 91.662c10.901 3.664 22.146 6.575 33.672 8.684z" fill="#49b1f7"/><path d="m108.722 406.694c-.768-.809-1.4-1.72-1.904-2.691-.274.413-.547.83-.817 1.26-2.921.285-13.393 1.659-24.005 7.323-6.675 3.562-14.097 9.278-19.102 18.275 15.232 16.917 32.781 31.706 52.159 43.855l-4.924-20.124c-.363-1.481.198-3.036 1.423-3.944l19.384-14.376c1.827-1.355 2.057-4.002.491-5.652z" fill="#d3dcfb"/><path d="m33.155 362.986c-3.863 1.733-7.464 3.918-10.742 6.488 10.605 22.996 24.669 44.066 41.522 62.547 12.617-23.404 42.946-25.326 42.946-25.326.266-.436.535-.861.806-1.28-1.54-2.16-2.331-4.783-2.192-7.464l2.221-42.864c.244-4.709 1.44-9.326 3.561-13.537 2.322-4.611 5.263-8.893 8.756-12.72l-.431-1.495z" fill="#bec8f7"/><path d="m138.977 384.815c-9.392.259-22.682 4.036-32.976 20.448-.071.007-.166.018-.245.026.341.491.707.966 1.124 1.405l22.705 23.926c1.565 1.65 1.335 4.297-.491 5.652l-19.384 14.376c-1.225.909-1.786 2.463-1.424 3.944l4.591 18.763c17.324 11.115 36.146 20.092 56.086 26.597l-12.514-111.952c-2.291-.964-9.003-3.434-17.472-3.185z" fill="#deeeff"/><path d="m156.642 389.726-5.734-51.294c-.725-6.487.409-13.174 3.893-18.694 5.73-9.081 5.054-18.243 5.054-18.243-18.784 6.525-31.938 17.373-40.254 25.841-4.119 4.194-7.539 8.995-10.168 14.214-2.121 4.211-3.317 8.828-3.561 13.537l-2.221 42.864c-.168 3.234 1 6.394 3.229 8.743 19.354-31.723 49.762-16.968 49.762-16.968z" fill="#d3dcfb"/><path d="m279.045 509.634c51.264-7.128 97.448-30.11 133.445-63.845-4.177-21.809-10.708-41.068-16.033-54.563-4.962-12.574-14.636-22.706-26.969-28.241l-86.447-35.651-.431 1.495c3.493 3.827 6.434 8.109 8.756 12.72 2.121 4.211 3.317 8.828 3.561 13.537l2.221 42.864c.168 3.234-1 6.394-3.229 8.743l-22.705 23.926c-1.565 1.65-1.335 4.297.491 5.652l19.384 14.376c1.225.909 1.786 2.463 1.423 3.944z" fill="#d3dcfb"/><path d="m296.77 355.086c-.244-4.709-1.44-9.326-3.561-13.537-2.629-5.22-6.049-10.021-10.168-14.214-8.317-8.468-21.47-19.316-40.254-25.841 0 0-.676 9.163 5.054 18.243 3.484 5.52 4.618 12.207 3.893 18.694l-19.366 173.249c4.185.212 8.397.32 12.634.32 12.214 0 24.216-.907 35.951-2.633l13.403-54.775c.363-1.481-.198-3.036-1.423-3.944l-19.384-14.376c-1.827-1.355-2.057-4.002-.491-5.652l22.705-23.926c2.229-2.349 3.396-5.509 3.229-8.743z" fill="#deeeff"/><path d="m291.658 288.944c-12.166 2.794-30.133 9.798-30.133 33.471l-.003 3.384c-.032 21.565-.062 41.934 11.695 52.268 2.759 2.425 6.061 4.186 9.922 5.313 7.41-27.719 18.621-53.026 8.519-94.436z" fill="#6c5475"/><path d="m277.689 421.747c-.202-14.779 2.486-27.505 5.842-39.816-21.469-6.285-20.505-32.304-20.505-59.516 0-22.688 16.965-29.293 28.978-32.016-.593-2.534-1.259-5.122-2.018-7.782-6.749-23.638-9.547-42.09-10.153-56.35-5.126 18.497-11.825 34.875-19.985 48.838-4.709 8.058-10.552 15.274-17.339 21.528-10.139 59.151 8.82 103.71 23.74 128.059 3.143 5.132 11.521 2.98 11.44-2.945z" fill="#543e5b"/><path d="m201.976 0c-.681 0-1.358.018-2.031.051-1.313 1.603-3.671 4.868-5.077 9.169-1.779 5.438-2.277 13.482 5.013 21.496-.86 1.01-1.878 2.612-1.87 4.538.005 1.495.601 2.886 1.771 4.151.728-.013 1.456-.026 2.194-.026 15.726 0 29.067 3.027 40.296 7.69.317-2.05.484-4.151.484-6.29.001-22.521-18.257-40.779-40.78-40.779z" fill="#6c5475"/><path d="m161.196 40.781c0 2.139.167 4.239.484 6.29 11.23-4.664 24.571-7.69 40.297-7.69-5.549-4.287 0-8.639 0-8.639-15.154-15.154 0-30.74 0-30.74-22.523-.002-40.781 18.256-40.781 40.779z" fill="#543e5b"/><path d="m201.976 30.74c-.717 0-1.431.012-2.142.034-.85 1.013-1.831 2.589-1.823 4.48.005 1.502.604 2.899 1.785 4.169-.61.638-1.414 1.534-2.321 2.67 1.481-.056 2.976-.094 4.502-.094 19.193 0 34.84 4.505 47.423 10.998 2.234 1.153 4.392 2.407 6.484 3.738-12.631-15.835-32.077-25.995-53.908-25.995z" fill="#73c3f9"/><path d="m201.976 30.74c-21.831 0-41.277 10.159-53.908 25.995 2.092-1.331 4.25-2.585 6.484-3.738 12.019-6.201 26.84-10.579 44.868-10.96 1.507-1.748 2.555-2.657 2.555-2.657-5.548-4.287.001-8.64.001-8.64z" fill="#49b1f7"/><g fill="#6c5475"><path d=""/><path d="m249.399 50.377c-12.583-6.492-28.23-10.997-47.423-10.997-.739 0-1.462.019-2.19.032.003.004.006.008.009.012-5.097 5.335-23.741 28.454-3.133 62.978-.02.028-.046.065-.066.094.545.2 1.085.392 1.638.604 2.401.921 5.081.921 7.482 0 61.107-23.425 67.47 30.211 67.964 46.766.085 2.833 1.277 5.483 3.177 7.624 2.111 2.379 3.672 5.611 4.813 9.344 3.096-2.064 7.903-3.487 12.247-3.385l.001-.013v-40.181c.001-30.448-16.973-58.667-44.519-72.878z"/></g><path d="m110.033 123.256v40.181l.001.013c4.345-.102 9.151 1.321 12.247 3.385 1.141-3.733 2.702-6.965 4.813-9.344 1.9-2.141 3.092-4.79 3.177-7.624.494-16.538 6.846-70.079 67.781-46.833.26-.35.417-.544.417-.544-24.057-39.26 3.508-63.11 3.508-63.11-19.193 0-34.84 4.505-47.423 10.997-27.547 14.211-44.521 42.43-44.521 72.879z" fill="#543e5b"/><path d="m277.348 154.436c-1.893-2.134-2.935-4.627-3.011-7.209-.293-9.828-2.775-33.883-19.446-44.983-11.825-7.874-28.448-7.792-49.408.246-2.262.867-4.753.867-7.014 0-.752-.288-1.486-.544-2.227-.812.141.242.277.481.422.724-3.377 4.711-18.393 28.206-6.023 58.015-1.277 1.269-3.507 3.982-3.645 7.561-.106 2.75 1.02 5.395 3.353 7.881-1.237 1.492-3.096 4.313-3.189 7.879-.074 2.884 1.003 5.642 3.204 8.219-1.185 1.354-2.905 3.854-3.049 7.077-.126 2.798.941 5.506 3.174 8.066-1.618 2.547-3.041 7.268-.091 12.385 2.908 5.043 2.886 9.485 2.794 10.852-1.805 1.964-8.49 10.362-1.507 20.375l6.675 9.57c-1.164 1.842-1.727 4.652.356 7.135v6.987c-1.379 2.918-10.227 23.479 3.017 43.885 4.638.033 9.281-.879 13.601-2.748 18.957-8.202 34.349-21.73 44.514-39.125 10.01-17.13 17.823-37.889 23.228-61.742 2.339-14.874 4.831-48.34-5.728-60.238z" fill="#ffc7ab"/><path d="m200.216 274.75v-7.915c-3.175-3.175 0-6.512 0-6.512l-7.301-10.469c-7.301-10.468 1.717-18.852 1.717-18.852s.893-5.627-2.935-12.266c-3.829-6.639.74-11.746.74-11.746-8.174-8.174 0-15 0-15-8.508-8.508 0-16.178 0-16.178-8.884-8.089 0-15 0-15-14.422-33.272 6.032-58.322 6.032-58.322-20.96-8.035-37.584-8.118-49.407-.247-16.671 11.101-19.153 35.157-19.445 44.984-.077 2.583-1.118 5.075-3.013 7.209-10.439 11.763-8.153 46.131-5.717 60.28 5.394 23.807 13.206 44.565 23.218 61.7 10.164 17.395 25.557 30.923 44.513 39.125 4.719 2.041 9.822 2.944 14.883 2.716-14.711-21.692-3.285-43.507-3.285-43.507z" fill="#ffaa7b"/><path d="m121.073 217.614h-8.753c-7.974 0-14.499-6.525-14.499-14.499v-38.428c0-7.975 6.525-14.499 14.499-14.499h8.753c3.175 0 5.774 2.598 5.774 5.773v55.879c0 3.176-2.598 5.774-5.774 5.774z" fill="#7255ce"/><path d="m290.322 217.614h-8.753c-3.175 0-5.773-2.598-5.773-5.773v-55.879c0-3.175 2.598-5.773 5.773-5.773h8.753c7.974 0 14.499 6.525 14.499 14.499v38.428c0 7.973-6.524 14.498-14.499 14.498z" fill="#9787f4"/><path d="m290.065 160.812h-99.801c-1.296 1.388-3.143 3.913-3.269 7.167-.106 2.75 1.02 5.395 3.353 7.881-1.237 1.492-3.096 4.313-3.189 7.879-.074 2.884 1.003 5.642 3.204 8.219-1.185 1.354-2.905 3.854-3.049 7.077-.124 2.758.917 5.427 3.084 7.955h99.666c12.699 0 23.089-10.39 23.089-23.089 0-12.699-10.39-23.089-23.088-23.089z" fill="#deeeff"/><path d="m192.437 160.812h-79.859c-12.699 0-23.089 10.39-23.089 23.089 0 12.699 10.39 23.089 23.089 23.089h79.859c-8.174-8.174 0-15 0-15-8.508-8.508 0-16.178 0-16.178-8.884-8.09 0-15 0-15z" fill="#bec8f7"/><path d="m272.296 183.9c0-4.385 3.704-8.089 8.089-8.089h-90.079c.015.016.027.032.042.048-1.237 1.492-3.096 4.313-3.189 7.879-.074 2.884 1.003 5.642 3.204 8.219-.009.01-.018.022-.027.032h90.048c-4.384 0-8.088-3.704-8.088-8.089z" fill="#73c3f9"/><path d="m192.437 175.811h-79.859c-4.385 0-8.089 3.704-8.089 8.089s3.704 8.089 8.089 8.089h79.859c-8.508-8.508 0-16.178 0-16.178z" fill="#49b1f7"/><path d="m298.153 183.9c0-4.385-3.704-8.089-8.089-8.089h-11.68c-4.385 0-8.089 3.704-8.089 8.089s3.704 8.089 8.089 8.089h11.68c4.385 0 8.089-3.704 8.089-8.089z" fill="#fc90ce"/><g fill="#fc9460"><path d="m182.961 252.863 7.36-2.902c.828-.326 1.742-.364 2.594-.107l8.482 2.558 8.482-2.558c.852-.257 1.767-.219 2.594.107l7.36 2.902c2.033.802 3.032 3.1 2.23 5.133-.8 2.027-3.094 3.034-5.134 2.23l-6.082-2.398-8.272 2.494c-.801.25-1.637.233-2.359-.001l-8.271-2.494-6.082 2.398c-2.03.799-4.329-.192-5.134-2.23-.8-2.032.199-4.33 2.232-5.132z"/><path d="m198.618 266.835h5.08c2.186 0 3.958 1.772 3.958 3.958s-1.772 3.958-3.958 3.958h-5.08c-2.186 0-3.958-1.772-3.958-3.958.001-2.187 1.772-3.958 3.958-3.958z"/><path d="m183.569 220.117 6.45-1.358c1.856-.389 3.581.378 4.403 1.954 1.382 2.143 3.913 3.39 6.8 3.39 2.885 0 5.415-1.247 6.765-3.336.854-1.629 2.582-2.395 4.436-2.008l6.45 1.358c2.219.467 3.645 2.653 3.178 4.873-.466 2.217-2.651 3.643-4.872 3.178l-3.595-.757c-.046-.01-.093-.014-.139-.014-.176 0-.347.068-.474.194-6.369 6.292-17.129 6.291-23.498.001-.161-.16-.393-.228-.613-.181l-3.595.757c-2.22.464-4.405-.96-4.872-3.178-.469-2.219.957-4.405 3.176-4.873z"/></g><path d="m493.83 12.96h-90.297l.28.279c-2.805 5.534-14.635 32.054 6.573 48.637l6.444 10.657 36.224 37.277-5.344 17.877c-1.113 2.293-15.167 32.632 8.853 52.151h37.266c9.993 0 18.17-8.176 18.17-18.17v-130.538c.001-9.994-8.175-18.17-18.169-18.17z" fill="#856ee5"/><path d="m358.035 12.96c-9.993 0-18.17 8.176-18.17 18.17v130.539c0 9.993 8.176 18.17 18.17 18.17h100.965c-26.333-19.578-9.888-51.602-9.888-51.602l5.632-18.84-36.718-37.786-6.5-10.749c-23.224-17.889-5.869-47.901-5.869-47.901h-47.622z" fill="#7255ce"/><g><path d="m398.405 171.662c-2.264-2.264-2.264-5.935 0-8.2 8.633-8.633 4.966-22.062-1.613-41.561-6.185-18.328-13.194-39.101 1.174-53.469s35.142-7.358 53.469-1.174c19.5 6.58 32.928 10.247 41.561 1.614 2.264-2.265 5.935-2.265 8.2 0 2.264 2.264 2.264 5.935 0 8.2-14.368 14.368-35.141 7.358-53.469 1.174-19.5-6.58-32.928-10.247-41.561-1.614s-4.967 22.062 1.613 41.561c6.185 18.328 13.194 39.101-1.174 53.469-2.264 2.265-5.935 2.265-8.2 0z" fill="#fb7ac0"/></g><path d="m492.996 68.872c-5.775 5.775-13.699 6.042-24.147 3.619s-7.571 3.954-1.898 11.48c12.509 2.752 24.771 2.576 34.246-6.9 2.264-2.264 2.264-5.935 0-8.2-2.266-2.264-5.937-2.264-8.201.001z" fill="#fc90ce"/><g><path d="m350.67 123.927c-2.264-2.265-2.264-5.935 0-8.2 14.368-14.368 35.142-7.358 53.469-1.174 19.5 6.58 32.928 10.247 41.561 1.614s4.967-22.062-1.613-41.561c-6.185-18.328-13.194-39.101 1.174-53.469 2.264-2.264 5.935-2.264 8.2 0 2.264 2.264 2.264 5.935 0 8.2-8.633 8.633-4.966 22.062 1.613 41.561 6.185 18.328 13.194 39.101-1.174 53.469s-35.141 7.358-53.469 1.174c-19.5-6.58-32.928-10.247-41.561-1.614-2.265 2.264-5.935 2.264-8.2 0z" fill="#73c3f9"/><path d="m404.139 114.553c-18.328-6.185-39.101-13.194-53.469 1.174-2.264 2.264-2.264 5.935 0 8.2 2.264 2.264 5.935 2.264 8.2 0 8.633-8.633 22.062-4.966 41.561 1.614-5.694-8.335 3.708-10.988 3.708-10.988z" fill="#49b1f7"/></g><path d="m486.664 70.639-34.971-34.971c-1.88-1.88-4.956-1.88-6.836 0-1.88 1.88-1.88 4.956 0 6.836l34.971 34.971c1.88 1.88 4.956 1.88 6.836 0 1.881-1.879 1.881-4.956 0-6.836z" fill="#9bd8f9"/><path d="m454.744 102.56-34.971-34.971c-1.88-1.88-4.957-1.88-6.836 0-1.88 1.88-1.88 4.956 0 6.836l34.971 34.972c1.88 1.88 4.956 1.88 6.836 0 1.88-1.881 1.88-4.957 0-6.837z" fill="#fcc8ea"/><path d="m438.93 118.374-34.971-34.971c-1.88-1.88-4.956-1.88-6.836 0-1.88 1.88-1.88 4.956 0 6.837l34.971 34.971c1.88 1.88 4.956 1.88 6.836 0 1.88-1.881 1.88-4.957 0-6.837z" fill="#9bd8f9"/><path d="m407.009 150.295-34.971-34.972c-1.88-1.88-4.957-1.88-6.837 0-1.88 1.88-1.88 4.956 0 6.836l34.971 34.971c1.88 1.88 4.956 1.88 6.837 0 1.88-1.879 1.88-4.955 0-6.835z" fill="#fcc8ea"/><path d="m104.275 295.878c24.634-39.737-46.667-65.879-33.817-120.035 9.522-40.131-11.204-51.266-22.579-54.344-30.083 40.689-47.879 91.013-47.879 145.499 0 18.935 2.168 37.359 6.237 55.058 33.579 1.541 82.401-.953 98.038-26.178z" fill="#70f2a4"/><path d="m442.785 411.566c29.677-40.523 47.219-90.49 47.219-144.568 0-21.056-2.659-41.49-7.655-60.989-14.146 10.914-38.347 23.901-73.507 23.901-10.294 0-21.495-.516-32.906-1.109-18.901-.983-36.105 10.858-41.92 28.869-6.705 20.769 3.742 43.129 23.911 51.466 42.315 17.489 84.824 43.735 84.858 102.43z" fill="#70f2a4"/><path d="m362.63 436.317c-4.632-5.53-13.63-2.3-13.63 4.914v47.634c10.75-5.047 21.078-10.844 30.906-17.339-3.47-15.703-10.686-27.342-17.276-35.209z" fill="#bec8f7"/></g></svg>