<svg id="Layer_1" enable-background="new 0 0 511.993 511.993" height="512" viewBox="0 0 511.993 511.993" width="512" xmlns="http://www.w3.org/2000/svg"><g><path d="m23.409 189.823s95.42 139.166 232.448 139.166 232.727-139.166 232.727-139.166c-32.332-97.498-124.24-167.834-232.588-167.834-108.347 0-200.255 70.336-232.587 167.834z" fill="#49b1f7"/><path d="m346.848 145.831-.904-4.314c-3.735-2.944-8.634-6.848-14.27-11.44.079 2.472-.035 4.967-.377 7.455l-3.854 28.078-.019.272c0 18.091-4.383 33.116-10.389 45.229 27.372-9.209 41.518-41.214 29.813-65.28z" fill="#9b4d2f"/><path d="m241.587 21.398c-1.786 10.949 1.719 22.598 10.416 34.621.213.295.455.606.676.905 4.756.46 9.586-.053 14.169-1.577 10.839-3.604 27.836-7.215 41.692-.98 16.309 7.338 14.943 29.787 14.043 42.211-.197 2.71.136 5.424.986 7.975l-.18.152c1.572 5.109 3.139 5.296 5.565 11.622 1.893 4.94 2.822 10.287 2.754 15.708 5.946 4.833 11.034 8.872 14.715 11.763l-4.139-19.765c.375-12.987 1.574-28.837 1.574-28.837 13.186-64.58-40.826-95.737-90.245-95.19-3.134 2.738-10.169 10.002-12.026 21.392z" fill="#ad5c38"/><path d="m194.958 211.112c-6.006-12.113-10.388-27.139-10.388-45.229l-3.875-28.356c-1.008-7.338-.17-14.738 2.423-21.401 2.331-5.982 3.968-6.49 5.493-11.414l-.181-.152c.846-2.519 1.184-5.197.987-7.874-.91-12.391-2.321-34.958 14.035-42.317 13.856-6.235 30.853-2.625 41.692.98 3.083 1.025 6.28 1.574 9.49 1.701-.486-.642-.961-1.28-1.415-1.908-25.246-34.9 2.584-55 2.773-55.136-5.479-.052-10.916.277-16.213.999-48.702 6.636-53.33 34.248-53.352 44.378-.005 2.125-1.182 4.094-3.092 5.023-25.333 12.324-11.675 73.567-11.675 73.567.048.003.1.009.15.013-1.09 7.056-3.121 14.56-6.664 21.846-11.706 24.065 2.441 56.07 29.812 65.28z" fill="#9b4d2f"/><path d="m358.095 105.193c-.11-4.856-4.881-8.28-9.495-6.764-1.042.342-2.033.704-2.975 1.08-9.168 3.663-15.703 11.811-17.619 21.401 2.524 14.47.874 33.188-.707 43.239-.196.863-.401 1.712-.603 2.566 30.175 15.004 31.901-39.388 31.399-61.522z" fill="#ffaa7b"/><path d="m153.898 105.193c.11-4.856 4.881-8.28 9.495-6.764 1.042.342 2.033.704 2.975 1.08 9.168 3.663 15.703 11.811 17.619 21.401-2.524 14.47-.873 33.188.708 43.239.195.863.401 1.712.603 2.566-30.176 15.004-31.902-39.388-31.4-61.522z" fill="#fc9460"/><path d="m392.573 248.493s37.561 32 42.311 61.75l-53.75-30.875z" fill="#98abe5"/><path d="m447.479 254.955c-3.261 1.119-11.557 4.706-16.811 13.53-3.876 6.508-5.224 14.413-4.057 23.561 15.383 22.079 31.099 50.728 41.168 85.268h6.998c5.572-11.029 10.348-22.528 14.224-34.437-9.184-37.998-25.532-69.525-42.229-94.002.1 1.929.323 3.95.707 6.08z" fill="#bec8f7"/><path d="m403.909 198.607c-2.02 19.034-6.492 37.276-11.336 52.616 9.335 9.309 22.645 24.035 36.013 43.69-5.932-32.288 20.619-38.92 20.619-38.92-.328-1.595-.549-3.108-.716-4.578-16.486-24.695-33.545-42.505-44.58-52.808z" fill="#a8b7ef"/><path d="m469.01 216.403c-9.908 2.697-25.103 13.175-21.854 36.502 16.304 24.313 32.094 55.357 40.999 92.575 6.525-19.307 10.698-39.695 12.204-60.821-7.141-29.545-18.83-53.765-31.71-73.343.027 1.619.145 3.313.361 5.087z" fill="#d3dcfb"/><path d="m423.219 160.078c-4.561-3.231-9.362-6.375-14.421-9.413-3.074.323-5.762 3.017-5.393 6.587 1.478 14.301.918 28.908-.863 43.011 11.399 10.6 29.464 29.414 46.656 55.733l.008-.002c-6.678-32.5 21.469-38.45 21.469-38.45-.191-1.315-.31-2.546-.398-3.739-15.745-24.62-33.521-42.122-47.058-53.727z" fill="#bec8f7"/><path d="m487.449 187.679-.12.658c-2.673.135-8.779 1.015-13.339 5.997-4.213 4.605-5.947 11.418-5.168 20.279 12.786 19.921 24.357 44.652 31.163 74.597.658-7.32 1.013-14.727 1.013-22.219 0-26.964-4.368-52.904-12.415-77.168-.372-.721-.753-1.431-1.134-2.144z" fill="#deeeff"/><path d="m422.213 116.044c-26.859-18.326-62.88 3.973-58.049 36.127 7.901 52.586-11.926 99.839-28.433 126.093 3.802 1.334 7.591 2.776 11.399 4.35.72.298 1.547.047 1.977-.603 2.775-4.201 7.623-6.606 12.671-6.302 8.096.504 15.652 1.501 22.731 2.909 10.12-23.852 26.365-71.978 21.719-116.927-.516-4.997 5.202-8.209 9.216-5.189 13.171 9.908 35.824 29.805 55.222 61.043.001 0 .009-.002.009-.002-4.209-28.951 17.909-27.72 17.909-27.72-17.292-33.41-41.968-57.129-66.371-73.779z" fill="#d3dcfb"/><path d="m119.42 248.493s-37.561 32-42.311 61.75l53.75-30.875z" fill="#98abe5"/><path d="m64.514 254.955c3.261 1.119 11.557 4.706 16.812 13.53 3.876 6.508 5.224 14.413 4.057 23.561-15.383 22.079-31.1 50.728-41.168 85.268h-6.998c-5.572-11.029-10.348-22.528-14.224-34.437 9.184-37.998 25.532-69.525 42.229-94.002-.101 1.929-.324 3.95-.708 6.08z" fill="#bec8f7"/><path d="m108.084 198.607c2.02 19.034 6.492 37.276 11.336 52.616-9.335 9.309-22.644 24.035-36.013 43.69 5.932-32.288-20.619-38.92-20.619-38.92.328-1.595.549-3.108.716-4.578 16.486-24.695 33.545-42.505 44.58-52.808z" fill="#a8b7ef"/><path d="m42.983 216.403c9.908 2.697 25.103 13.175 21.854 36.502-16.304 24.313-32.093 55.357-40.999 92.575-6.525-19.307-10.699-39.695-12.204-60.821 7.141-29.545 18.83-53.765 31.71-73.343-.027 1.619-.145 3.313-.361 5.087z" fill="#d3dcfb"/><path d="m88.774 160.078c4.561-3.231 9.362-6.375 14.421-9.413 3.074.323 5.762 3.017 5.393 6.587-1.478 14.301-.919 28.908.863 43.011-11.398 10.6-29.464 29.414-46.656 55.733 0 0-.008-.002-.008-.002 6.678-32.5-21.469-38.45-21.469-38.45.191-1.315.311-2.546.398-3.739 15.745-24.62 33.521-42.122 47.058-53.727z" fill="#bec8f7"/><path d="m24.544 187.679.12.657c2.673.135 8.779 1.015 13.339 5.997 4.213 4.605 5.947 11.418 5.168 20.279-12.786 19.921-24.357 44.652-31.163 74.597-.658-7.32-1.013-14.727-1.013-22.219 0-26.964 4.368-52.904 12.415-77.168.372-.72.754-1.43 1.134-2.143z" fill="#deeeff"/><path d="m89.78 116.044c26.859-18.326 62.88 3.973 58.049 36.127-7.901 52.586 11.926 99.839 28.433 126.093-3.802 1.334-7.591 2.776-11.399 4.35-.72.298-1.548.047-1.977-.603-2.775-4.201-7.624-6.606-12.671-6.302-8.096.504-15.652 1.501-22.731 2.909-10.12-23.852-26.365-71.978-21.719-116.927.517-4.997-5.202-8.209-9.216-5.189-13.171 9.908-35.825 29.805-55.222 61.043-.001 0-.009-.002-.009-.002 4.209-28.951-17.909-27.72-17.909-27.72 17.292-33.41 41.968-57.129 66.371-73.779z" fill="#d3dcfb"/><path d="m319.437 270.722c-1.96-.483-3.727-1.574-4.96-3.172-7.565-9.8-9.596-25.702-9.989-37.114-4.898 5.705-10.038 10.477-14.95 14.291-9.57 7.431-21.379 11.468-33.542 11.468-1.277 0-2.549-.055-3.816-.143.663 1.264 1.423 2.54 2.313 3.822-.054 3.997-.93 32.902-14.75 47.122-.922.225-3.092.829-5.624 2.01 7.022 2.238 14.396 3.415 21.876 3.415 15.977 0 31.49-5.302 44.061-15.064 8.218-6.381 16.918-14.807 24.827-25.215-1.801-.495-3.616-.969-5.446-1.42z" fill="#ffaa7b"/><path d="m255.997 259.406c-.777-1.091-1.457-2.176-2.061-3.253-11.431-.429-22.452-4.415-31.48-11.425-4.912-3.814-10.053-8.586-14.95-14.291-.393 11.411-2.425 27.313-9.99 37.114-1.233 1.598-3 2.689-4.96 3.172-1.829.451-3.644.925-5.447 1.421 7.91 10.407 16.61 18.833 24.827 25.215 7.305 5.673 15.608 9.828 24.414 12.323 2.399-.96 4.154-1.319 4.154-1.319 15.71-15.711 15.493-48.957 15.493-48.957z" fill="#fc9460"/><path d="m330.821 115.611c-.868-2.264-1.962-4.556-3.34-6.719-2.335-3.662-3.361-7.995-3.048-12.314.9-12.424.417-36.721-15.892-44.06-13.855-6.235-30.851-2.625-41.691.979-5.005 1.664-10.305 2.122-15.482 1.419-4.493 4.902-26.171 30.78-14.798 62.257l4.442 9.544c-1.324 2.329-4.798 9.658-.693 16.559l-.025.093c-.95 1.711-7.088 13.768.276 27.411l5.241 12.337c-1.341 2.212-4.633 9.061-.857 18.206l7.449 10.74c-1.257 1.679-2.366 4.516-.818 7.593v7.893c-1.25 2.48-7.57 16.678 2.573 31.819.612.02 1.224.038 1.838.038 12.163 0 23.972-4.036 33.541-11.468 18.333-14.236 39.886-41.68 39.886-82.055l3.855-28.078c1.029-7.486.25-15.131-2.457-22.194z" fill="#ffc7ab"/><path d="m253.085 227.917v-8.637c-2.257-3.963 1.225-7.105 1.225-7.105l-7.969-11.424c-4.257-10.305 1.163-17.482 1.163-17.482l-5.582-13.14c-7.524-13.866-.23-26.186-.23-26.186l.243-.91c-5.011-7.585.774-16.224.774-16.224l-4.73-10.145c-12.404-34.329 15.239-61.523 15.239-61.523v-.001c-2.733-.221-5.446-.768-8.076-1.642-10.839-3.604-27.835-7.214-41.69-.979-16.355 7.359-16.794 31.775-15.884 44.166.315 4.286-.74 8.574-3.057 12.209-1.335 2.095-2.403 4.312-3.257 6.506-2.771 7.119-3.579 14.84-2.541 22.399l3.856 28.084c0 40.376 21.553 67.819 39.886 82.055 9.569 7.431 21.379 11.468 33.541 11.468-11.637-16.338-2.911-31.489-2.911-31.489z" fill="#ffaa7b"/><path d="m391.386 299.987c-6.258-.512-9.587-2.939-16.961-7.097-16.905-9.532-34.075-16.784-52.712-21.588-7.635 10.21-16.101 18.427-24.079 24.623-11.879 9.225-26.539 14.235-41.637 14.235-6.261 0-12.443-.874-18.386-2.541-3.59 1.189-10.019 4.029-13.592 9.897-2.687 4.41-3.223 9.647-1.595 15.567l1.547 112.41h153.465l86.401-60.847c-3.704-33.654-18.629-80.259-72.451-84.659z" fill="#6c5475"/><path d="m240.504 308.361c-9.463-2.21-18.397-6.42-26.145-12.437-7.978-6.195-16.443-14.413-24.079-24.623-18.637 4.804-35.807 12.056-52.712 21.588-7.375 4.158-10.704 6.586-16.961 7.097-53.822 4.4-68.747 51.005-72.452 84.66l86.401 60.846h90.915l-1.55-112.625c-5.629-19.958 16.583-24.506 16.583-24.506z" fill="#543e5b"/><path d="m135.283 449.013-.727-3.519-56.792-39.994c-3.354 5.763-8.01 10.55-13.512 13.991 18.882 23.709 42.074 43.825 68.384 59.19-.366-8.648.257-18.606 2.647-29.668z" fill="#ffaa7b"/><path d="m377.437 445.493-.831 4.024c2.385 10.83 3.068 20.603 2.785 29.143 26.275-15.351 49.44-35.441 68.306-59.117v-23.53z" fill="#ffc7ab"/><path d="m390.826 445.743 52.056-31.531c-3.961-3.858-7.175-8.562-9.35-13.899-4.207-10.322-10.796-19.93-18.847-28.851l-18.154 11.577c4.998 7.446 7.228 16.559 5.924 25.678-2.136 14.954-6.393 27.134-11.629 37.026z" fill="#876d93"/><path d="m109.537 408.718c-1.303-9.118.926-18.231 5.924-25.678l-16.971-10.823c-7.743 8.707-14.079 18.066-18.167 28.097-2.306 5.658-5.776 10.609-10.07 14.59l50.912 30.838c-5.236-9.892-9.491-22.073-11.628-37.024z" fill="#543e5b"/><path d="m122.339 398.826h267.315c8.509-11.396 19.891-19.928 29.444-24.223-13.004-16.003-30.984-29.898-49.152-41.777-6.085-3.978-10.581-8.451-13.87-13.119-15.991 16.059-50.207 42.943-100.078 42.943-48.774 0-82.575-25.715-98.997-41.869-3.211 4.28-7.474 8.372-13.09 12.045-18.406 12.035-36.62 26.138-49.661 42.407 9.258 4.468 19.978 12.731 28.089 23.593z" fill="#ffb332"/><path d="m397.622 356.847s-14.904.98-12.237 13.646l-35.047-25.013 16.802-18.318z" fill="#ff9433"/><path d="m133.331 364.926c-14.554 1.433-12.129-12.238-12.129-12.238l-3.909-.431c-8.571 7.117-16.467 14.77-23.044 22.976 6.009 2.899 12.629 7.405 18.756 13.174z" fill="#ff9433"/><path d="m378.39 445.493c-2.36-10.309-1.374-20.056 1.688-28.893h-156.504l.8 58.117c-.769 2.46-6.053 21.162 5.036 35.842 8.733.943 17.603 1.435 26.587 1.435 45.802 0 88.66-12.582 125.331-34.458.463-9.235-.181-20.002-2.938-32.043z" fill="#bec8f7"/><path d="m133.603 445.493c-2.756 12.041-3.4 22.808-2.937 32.042 30.04 17.92 64.233 29.598 100.794 33.237-12.735-15.289-5.583-35.831-5.583-35.831l-.803-58.342h-93.148c3.061 8.837 4.036 18.587 1.677 28.894z" fill="#a8b7ef"/><path d="m396.072 355.523c15.499 13.108 28.621 28.01 35.461 44.791 3.317 8.137 9.041 14.809 16.165 19.237 10.515-13.196 19.694-27.5 27.338-42.712-4.003-22.92-13.198-49.664-33.491-70.206-7.536.882-46.643 7.472-45.473 48.89z" fill="#ffdd40"/><path d="m442.879 308.008c-17.295-18.175-42.956-31.788-80.935-34.151-7.549-.469-14.216 4.852-15.339 12.332-1.994 13.295-.728 34.208 21.34 48.637 10.238 6.694 20.413 14.03 29.676 22.02-2.258-45.916 45.127-48.83 45.258-48.838z" fill="#ffc839"/><path d="m167.249 286.19c-1.122-7.48-7.789-12.802-15.338-12.332-33.034 2.055-56.745 12.623-73.742 27.299-.929 12.521.042 48.756 41.658 52.659 8.271-6.823 17.153-13.15 26.082-18.988 22.068-14.431 23.334-35.343 21.34-48.638z" fill="#ffdd40"/><path d="m256.778 370.651v60.561c0 5.404-1.188 10.75-3.568 15.602-4.246 8.657-12.675 21.508-27.334 28.128-14.223 6.423-34.591 8.936-48.352 9.92-12.535.896-24.956-2.897-34.836-10.664-13.647-10.729-30.162-30.573-35.152-65.48-1.848-12.926 3.379-25.859 13.575-34.017l42.308-33.846c6.766-5.413 15.172-8.362 23.837-8.362h31.364c21.074 0 38.158 17.084 38.158 38.158z" fill="#bec8f7"/><path d="m235.658 359.267h-27.438c-14.975 0-27.227 12.252-27.227 27.226v66.948c0 14.862 12.07 27.035 26.89 27.218 6.415-1.437 12.639-3.3 17.993-5.717 14.659-6.62 23.088-19.471 27.334-28.128 2.379-4.852 3.568-10.198 3.568-15.602v-60.561c0-.445-.019-.885-.034-1.326-5.002-6.127-12.607-10.058-21.086-10.058z" fill="#d3dcfb"/><g fill="#fc9460"><path d="m275.714 204.035-8.031-3.167c-.903-.356-1.901-.397-2.831-.117l-9.255 2.791-9.255-2.791c-.93-.28-1.927-.239-2.83.117l-8.031 3.167c-2.219.875-3.309 3.383-2.434 5.602.873 2.212 3.376 3.31 5.602 2.434l6.636-2.617 9.026 2.722c.874.273 1.786.254 2.575-.001l9.025-2.721 6.636 2.617c2.215.872 4.724-.209 5.602-2.434.873-2.22-.217-4.728-2.435-5.602z"/><path d="m258.628 219.28h-5.543c-2.385 0-4.318 1.933-4.318 4.318s1.933 4.318 4.318 4.318h5.543c2.385 0 4.318-1.933 4.318-4.318.001-2.385-1.932-4.318-4.318-4.318z"/><path d="m279.848 173.583c-.599-.917-1.517-1.547-2.586-1.772l-7.991-1.682c-1.873-.394-3.546.335-4.363 1.903-.027.051-.056.101-.088.15-1.858 2.874-5.307 4.59-9.224 4.59-3.916 0-7.363-1.716-9.222-4.591-.031-.047-.059-.096-.086-.148-.819-1.57-2.491-2.298-4.366-1.904l-7.991 1.682c-2.21.465-3.63 2.642-3.164 4.853.463 2.208 2.64 3.628 4.854 3.165l4.453-.937c.61-.127 1.233.06 1.668.49 3.755 3.709 8.804 5.564 13.854 5.564 5.049-.001 10.1-1.855 13.854-5.564.44-.434 1.063-.618 1.668-.491l4.455.938c2.209.462 4.387-.956 4.853-3.165.226-1.069.02-2.163-.578-3.081z"/></g><path d="m282.488 138.435c0-1.38.258-2.692.719-3.885-1.793.88-3.241 1.877-4.272 2.718-2.405 1.962-6.588 4.45-8.878 5.765-.433.249-.256.91.243.91h.226c2.125 0 4.238.331 6.257.996 3.5 1.153 6.85 1.726 9.947 1.915-2.545-1.744-4.242-4.861-4.242-8.419z" fill="#edeef2"/><path d="m310.971 140.593c-4.182-3.924-8.202-6.188-11.921-7.334.836 1.506 1.32 3.278 1.32 5.176 0 3.101-1.29 5.867-3.306 7.682 3.043-.629 5.42-1.504 6.891-2.174 3.018-1.374 5.301-1.933 6.658-2.16.565-.095.776-.798.358-1.19z" fill="#edeef2"/><path d="m282.645 134.835c-.51 1.165-.794 2.451-.794 3.804 0 3.501 1.896 6.558 4.716 8.205 4.067.265 7.705-.135 10.685-.766 2.19-1.74 3.596-4.425 3.596-7.439 0-1.975-.603-3.809-1.635-5.328-6.812-2.155-12.621-.547-16.568 1.524z" fill="#73c3f9"/><circle cx="291.252" cy="139.235" fill="#49b1f7" r="3.64"/><path d="m319.017 127.11c-.544-3.577-2.711-11.889-11.168-13.811-8.54-1.941-26.547 1.717-33.836 3.366-1.942.439-3.481 1.916-4.003 3.838l-1.502 5.539c-.128.47.306.9.775.768 5.527-1.551 30.978-8.433 38.731-5.946 5.912 1.896 8.949 4.852 10.291 6.557.254.323.775.096.712-.311z" fill="#ad5c38"/><path d="m229.505 138.435c0-1.38-.258-2.692-.719-3.885 1.793.88 3.241 1.877 4.272 2.718 2.405 1.962 6.588 4.45 8.878 5.765.433.249.256.91-.243.91h-.226c-2.125 0-4.238.331-6.257.996-3.501 1.153-6.85 1.726-9.947 1.915 2.545-1.744 4.242-4.861 4.242-8.419z" fill="#edeef2"/><path d="m201.022 140.593c4.182-3.924 8.203-6.188 11.921-7.334-.836 1.506-1.32 3.278-1.32 5.176 0 3.101 1.29 5.867 3.306 7.682-3.043-.629-5.42-1.504-6.891-2.174-3.018-1.374-5.301-1.933-6.658-2.16-.565-.095-.776-.798-.358-1.19z" fill="#edeef2"/><path d="m229.348 134.835c.51 1.165.795 2.451.795 3.804 0 3.501-1.896 6.558-4.716 8.205-4.067.265-7.705-.135-10.685-.766-2.19-1.74-3.596-4.425-3.596-7.439 0-1.975.603-3.809 1.635-5.328 6.811-2.155 12.62-.547 16.567 1.524z" fill="#73c3f9"/><path d="m217.101 139.235c0 2.01 1.63 3.641 3.64 3.641 2.011 0 3.64-1.63 3.64-3.641s-1.63-3.641-3.64-3.641c-2.01.001-3.64 1.631-3.64 3.641z" fill="#49b1f7"/><path d="m192.976 127.11c.545-3.577 2.711-11.889 11.169-13.811 8.54-1.941 26.547 1.717 33.837 3.366 1.942.439 3.481 1.916 4.002 3.838l1.502 5.539c.128.47-.306.9-.775.768-5.527-1.551-30.978-8.433-38.731-5.946-5.912 1.896-8.949 4.852-10.291 6.557-.255.323-.775.096-.713-.311z" fill="#9b4d2f"/><path d="m38.36 379.595c7.504 14.474 16.413 28.099 26.54 40.706 7.707-4.406 13.912-11.377 17.422-19.987 7.337-18.002 21.902-33.844 38.879-47.626-43.038-3.227-42.973-41.037-41.96-52.449-26.11 21.914-36.755 53.422-40.881 79.356z" fill="#ffc839"/><path d="m187.155 316.22c-6.742-11.678-21.675-15.68-33.354-8.937-.457.264-.898.544-1.331.833-.382 1.991-1.237 9.552 7.211 11.816l10.523 18.226s-3.698 9.082 6.616 12.158c.47-.233.937-.476 1.398-.742 11.679-6.743 15.68-21.676 8.937-33.354z" fill="#deeeff"/><path d="m144.865 340.637c6.742 11.678 21.675 15.68 33.354 8.937-10.791-2.891-7.014-12.148-7.014-12.148l-10.389-17.995c-9.634-2.582-7.014-12.148-7.014-12.148-11.679 6.742-15.68 21.675-8.937 33.354z" fill="#bec8f7"/><ellipse cx="166.01" cy="328.428" fill="#a8b7ef" rx="10.389" ry="10.389" transform="matrix(.923 -.385 .385 .923 -113.679 89.266)"/><path d="m371.588 359.267-23.015-18.412c-6.766-5.413-15.172-8.362-23.837-8.362h-31.364c-21.074 0-38.158 17.084-38.158 38.158v60.561c0 5.404 1.188 10.75 3.568 15.602 4.246 8.657 12.675 21.508 27.334 28.128 14.229 6.426 34.608 8.939 48.369 9.921 8.327.595 16.635-.851 24.156-4.195z" fill="#deeeff"/><path d="m367.128 316.22c-6.742-11.678-21.676-15.68-33.354-8.937-.457.264-.898.544-1.331.833-.382 1.991-1.237 9.552 7.211 11.816l10.523 18.226s-3.698 9.082 6.616 12.159c.47-.233.937-.476 1.398-.742 11.679-6.744 15.68-21.677 8.937-33.355z" fill="#deeeff"/><path d="m390.881 374.701-19.293-15.434h-14.907c-14.975 0-27.227 12.252-27.227 27.226v66.948c0 14.975 12.252 27.226 27.227 27.226h1.96c3.5-1.556 6.831-3.52 9.912-5.886 13.786-10.587 30.821-30.513 35.903-66.064 1.848-12.926-3.378-25.859-13.575-34.016z" fill="#f0f8ff"/><path d="m324.838 340.637c6.742 11.678 21.675 15.68 33.354 8.937-10.791-2.891-7.014-12.148-7.014-12.148l-10.389-17.995c-9.634-2.582-7.014-12.148-7.014-12.148-11.679 6.742-15.68 21.675-8.937 33.354z" fill="#bec8f7"/><circle cx="345.983" cy="328.428" fill="#a8b7ef" r="10.389"/></g></svg>