<svg id="Layer_1" enable-background="new 0 0 512 512" height="512" viewBox="0 0 512 512" width="512" xmlns="http://www.w3.org/2000/svg"><g><path d="m16.278 216.234 106.567 256.443c3.877 2.515 7.827 4.927 11.851 7.225l242.568.023c4.038-2.305 8.002-4.724 11.892-7.248l106.567-256.443c-23.379-110.948-121.819-194.238-239.723-194.238s-216.344 83.29-239.722 194.238z" fill="#f964b2"/><path d="m394.473 256-19.36 47.5 15.25 6.25h42.481c-.001 0-19.066-34.445-38.371-53.75z" fill="#98abe5"/><path d="m449.305 268.818c-3.071.874-10.049 3.587-15.226 11.081-4.513 6.533-6.514 15.003-6.002 25.261 11.83 17.283 23.746 38.433 33.035 63.139h18.008c3.061-6.737 5.835-13.634 8.29-20.68-9.138-34.212-23.991-62.942-39.292-85.752.268 2.234.659 4.549 1.187 6.951z" fill="#bec8f7"/><path d="m403.913 209.614c-2.02 19.034-6.492 37.276-11.336 52.616 9.609 9.583 23.431 24.906 37.193 45.438-2.96-33.671 21.327-37.737 21.327-37.737-.425-1.785-.748-3.473-1.023-5.115-16.97-25.942-34.773-44.569-46.161-55.202z" fill="#a8b7ef"/><path d="m467.806 225.579c-3.046.817-10.052 3.409-14.97 10.731-5.021 7.475-6.368 17.589-4.02 30.1 14.768 22.494 28.934 50.522 37.727 83.671 6.556-18.19 11.024-37.376 13.108-57.273-7.473-29.36-19.43-53.369-32.465-72.701.102 1.758.307 3.582.62 5.472z" fill="#d3dcfb"/><path d="m423.222 171.085c-4.561-3.232-9.362-6.375-14.421-9.413-3.074.323-5.762 3.017-5.393 6.587 1.478 14.301.918 28.908-.863 43.011 11.818 10.991 30.803 30.801 48.551 58.661h.002c-9.265-38.903 18.434-43.204 18.434-43.204-.262-1.384-.445-2.694-.593-3.969-15.406-23.537-32.561-40.395-45.717-51.673z" fill="#bec8f7"/><path d="m483.848 192.24c-3.241 1.077-8.169 3.455-11.871 8.559-4.178 5.76-5.673 13.418-4.462 22.797 12.814 19.517 24.541 43.801 31.676 73.236 1.188-9.78 1.812-19.733 1.812-29.834 0-17.407-1.828-34.384-5.28-50.764-3.518-8.548-7.514-16.528-11.875-23.994z" fill="#deeeff"/><path d="m469.532 226.726c-4.57-24.122 9.006-31.216 15.09-33.157-16.984-29.62-39.81-51.102-62.405-66.519-26.858-18.326-62.88 3.973-58.049 36.127 7.901 52.586-11.926 99.839-28.433 126.093l41.128 17.479 7.65-17.125c10.12-23.852 26.365-71.978 21.719-116.927-.516-4.997 5.202-8.209 9.216-5.189 12.912 9.714 34.937 29.031 54.073 59.219.001.001.011-.001.011-.001z" fill="#d3dcfb"/><path d="m117.528 256 19.36 47.5-15.25 6.25h-42.481s19.065-34.445 38.371-53.75z" fill="#98abe5"/><path d="m62.695 268.818c3.071.874 10.049 3.587 15.226 11.081 4.513 6.533 6.514 15.003 6.002 25.261-11.83 17.283-23.746 38.433-33.035 63.139h-18.008c-3.062-6.737-5.835-13.634-8.29-20.68 9.138-34.212 23.991-62.942 39.292-85.752-.268 2.234-.659 4.549-1.187 6.951z" fill="#bec8f7"/><path d="m108.087 209.614c2.02 19.034 6.492 37.276 11.336 52.616-9.609 9.583-23.431 24.906-37.193 45.438 2.961-33.671-21.327-37.737-21.327-37.737.425-1.785.748-3.473 1.023-5.115 16.97-25.942 34.773-44.569 46.161-55.202z" fill="#a8b7ef"/><path d="m44.194 225.579c3.046.817 10.052 3.409 14.97 10.731 5.021 7.475 6.368 17.589 4.02 30.1-14.768 22.494-28.934 50.522-37.727 83.671-6.556-18.19-11.024-37.376-13.108-57.273 7.473-29.36 19.43-53.369 32.465-72.701-.102 1.758-.307 3.582-.62 5.472z" fill="#d3dcfb"/><path d="m88.778 171.085c4.561-3.232 9.362-6.375 14.421-9.413 3.074.323 5.762 3.017 5.393 6.587-1.478 14.301-.918 28.908.863 43.011-11.818 10.991-30.803 30.801-48.551 58.661h-.002c9.265-38.903-18.435-43.204-18.435-43.204.262-1.384.445-2.694.593-3.969 15.407-23.537 32.562-40.395 45.718-51.673z" fill="#bec8f7"/><path d="m28.152 192.24c3.241 1.077 8.169 3.455 11.871 8.559 4.178 5.76 5.673 13.418 4.462 22.797-12.814 19.517-24.541 43.801-31.676 73.236-1.188-9.78-1.812-19.733-1.812-29.834 0-17.407 1.828-34.384 5.28-50.764 3.519-8.548 7.514-16.528 11.875-23.994z" fill="#deeeff"/><path d="m42.468 226.726c4.57-24.122-9.006-31.216-15.09-33.157 16.984-29.62 39.81-51.102 62.405-66.519 26.858-18.326 62.88 3.973 58.049 36.127-7.901 52.586 11.926 99.839 28.433 126.093l-41.128 17.479-7.65-17.125c-10.12-23.852-26.365-71.978-21.719-116.927.516-4.997-5.202-8.209-9.216-5.189-12.912 9.714-34.937 29.031-54.073 59.219-.001.001-.011-.001-.011-.001z" fill="#d3dcfb"/><path d="m254.729 33.662c11.321 18.104 69.879 165.163 72.235 171.087.384 2.791 4.602 29.822 25.448 42.816 12.872 8.024 29.281 8.838 48.764 2.475.353-.651.716-1.297 1.101-1.933 4.048-6.687 6.379-14.528 6.379-22.916 0-12.833-5.453-24.387-14.168-32.481-10.718-9.955-13.218-24.241-9.378-35.917 14.291-43.463-17.731-59.225-38.325-113.671-17.906-47.344-68.567-44.351-84.957-42.039-.853.12-1.709.202-2.567.259-4.266 4.075-14.539 16.32-4.532 32.32z" fill="#ad5c38"/><path d="m261.828 1.083c-1.932.273-3.881.375-5.828.341-1.948.034-3.896-.069-5.828-.341-16.389-2.313-67.051-5.306-84.958 42.038-20.594 54.445-52.616 70.208-38.325 113.671 3.84 11.677 1.34 25.962-9.378 35.917-8.714 8.094-14.168 19.648-14.168 32.481 0 8.388 2.331 16.229 6.379 22.916 5.076 8.385 7.419 18.181 6.347 27.924-1.384 12.583.827 26.795 11.209 40.379h128.722 128.723c10.381-13.584 12.592-27.796 11.209-40.379-1.072-9.743 1.271-19.539 6.347-27.924-65.528 22.527-73.851-43.74-73.851-43.74s-60.727-152.788-72.428-171.499c-11.702-18.711 5.828-31.784 5.828-31.784z" fill="#9b4d2f"/><path d="m363.098 118.362c-.11-4.856-4.881-8.28-9.495-6.764-1.042.342-2.033.704-2.975 1.08-9.168 3.663-15.703 11.811-17.619 21.401 2.524 14.47.874 33.188-.707 43.239-.195.863-.401 1.712-.603 2.566 30.176 15.005 31.901-39.388 31.399-61.522z" fill="#ffaa7b"/><path d="m148.902 118.362c.11-4.856 4.881-8.28 9.495-6.764 1.042.342 2.033.704 2.975 1.08 9.168 3.663 15.703 11.811 17.619 21.401-2.524 14.47-.873 33.188.708 43.239.195.863.401 1.712.603 2.566-30.177 15.005-31.902-39.388-31.4-61.522z" fill="#fc9460"/><path d="m394.567 315.296s-97.953-17.873-97.953-52.616c0-5.644 0-3.953 0-7.608-9.841 8.797-26.717 20.006-40.615 20.342-.168-.004-.338-.017-.507-.024.75 1.278 1.587 2.558 2.545 3.836-.801 5.271-7.487 43.885-33.306 60.418l-.248.199c-2.855 2.834-6.548 9.877-1.894 17.557-9.945 1.824-47.061 10.909-47.061 44.761v21.005h208.833c1.495 13.798 3.244 32.36 4.793 49.51 14.049-9.114 27.1-19.632 38.968-31.346v-110.296c-12.572-10.357-25.954-14.278-33.555-15.738z" fill="#ffaa7b"/><path d="m225.189 358.5c-7.674-9.625.352-17.591.352-17.591 28.512-18.258 34.072-62.091 34.072-62.091-.892-1.154-1.69-2.309-2.404-3.461-.405.027-.808.048-1.209.058-13.898-.336-30.774-11.545-40.614-20.342v7.608c0 34.743-97.953 52.616-97.953 52.616-7.601 1.46-20.983 5.381-33.556 15.738v110.297c11.868 11.714 24.919 22.232 38.968 31.346 1.549-17.15 3.298-35.712 4.793-49.51h49.391v-21.006c0-38.007 48.16-43.662 48.16-43.662z" fill="#fc9460"/><path d="m128.608 402.161c-6.849 11.453-16.298 21.939-29.352 28.991-6.115 3.304-11.42 6.483-16.055 9.522 1.449 1.442 2.917 2.864 4.402 4.269 9.177 2.954 21.395 7.691 36.38 15.284 1.232-13.298 2.517-26.56 3.655-37.06h17.435c-6.653-11.241-12.193-19.667-12.193-19.667z" fill="#543e5b"/><path d="m412.744 431.152c-13.054-7.052-22.503-17.538-29.352-28.991l-4.272 1.339s-5.539 8.426-12.193 19.667h17.435c1.138 10.501 2.423 23.763 3.655 37.06 14.985-7.592 27.203-12.329 36.379-15.284 1.484-1.405 2.953-2.827 4.402-4.269-4.634-3.039-9.939-6.219-16.054-9.522z" fill="#6c5475"/><path d="m255.5 344.161c-9.629 0-20.139-1.336-30.648-3.389-1.943 2.416-6.9 10.141.258 19.159 15.487.467 28.235 11.798 30.889 26.635 2.711-15.153 15.948-26.658 31.881-26.658 13.208 0 30.95-17.923 42.074-30.912-21.488 7.164-50.781 15.165-74.454 15.165z" fill="#6c5475"/><path d="m225.545 340.906c-15.313-2.945-30.665-7.453-43.326-11.709 10.037 11.694 25.348 27.255 37.894 30.21 3.12-.677 5.076-.907 5.076-.907-7.674-9.625.352-17.591.352-17.591.001-.001.003-.002.004-.003z" fill="#543e5b"/><path d="m330.471 118.314c-1.855-2.09-2.875-4.533-2.95-7.061-.287-9.627-2.718-33.189-19.047-44.062-11.583-7.713-27.866-7.633-48.397.241-1.423.546-2.939.736-4.428.581l-1.1 21.081c-3.757 1.959-9.065 6.905-7.511 14.506-3.427 2.425-14.589 11.804-9.361 28.006l3.818 10.146c-2.952 2.882-6.32 9.22-2.221 17.153l-.112.517c-.833 1.759-6.237 14.451 4.414 27.646l5.737 11.719c-1.635 2.462-6.121 10.337-3.013 18.674 2.317 6.218 4.866 9.038 6.501 10.291-.873 1.738-1.293 4.244.607 6.521v6.897c-1.2 2.673-8.302 20.335 4.318 37.621 4.099-.134 8.178-1.018 11.999-2.671 18.569-8.034 33.646-21.285 43.602-38.324 9.806-16.779 17.458-37.113 22.753-60.478 2.292-14.569 4.733-47.35-5.609-59.004z" fill="#ffc7ab"/><path d="m254.91 241.5v-7.81c-3.006-3.006 0-6.426 0-6.426s-3.779-1.139-7.204-10.329 3.345-18.014 3.345-18.014l-6.203-12.667c-10.897-13.366-4.259-26.339-4.259-26.339l.268-1.233c-5.63-10.193 2.405-16.493 2.405-16.493l-4.181-11.113c-5.781-17.923 9.661-26.81 9.661-26.81-2.786-9.9 7.257-14.204 7.257-14.204l1.149-22.018c-1.332.071-2.674-.127-3.943-.614-20.531-7.871-36.814-7.952-48.395-.242-16.329 10.873-18.76 34.437-19.047 44.063-.075 2.53-1.095 4.971-2.951 7.061-10.225 11.522-7.986 45.186-5.6 59.046 5.283 23.319 12.936 43.652 22.743 60.436 9.956 17.039 25.033 30.29 43.602 38.324 5.052 2.185 10.553 3.034 15.958 2.565-14.102-18.388-4.605-37.183-4.605-37.183z" fill="#ffaa7b"/><g><path d="m318.224 156.027c-4.8-5.414-9.433-8.542-13.726-10.135.843 2.033 1.315 4.389 1.289 6.898-.043 4.257-1.51 8.035-3.77 10.514 3.576-.804 6.37-1.967 8.094-2.861 3.489-1.809 6.121-2.529 7.685-2.814.651-.119.903-1.066.428-1.602z" fill="#deeeff"/></g><path d="m278.159 154.903c-.025 2.519.541 4.852 1.516 6.772 3.704 1.399 7.26 2.143 10.569 2.428-2.761-2.471-4.569-6.747-4.52-11.594.018-1.831.304-3.572.799-5.162-2.14 1.18-3.869 2.539-5.094 3.685-.899.841-2.018 1.752-3.199 2.66-.039.399-.067.8-.071 1.211z" fill="#deeeff"/><g><path d="m278.49 153.496c-2.552 1.979-5.488 3.966-7.347 5.186-.501.329-.307 1.225.268 1.233l.26.004c2.443.033 4.869.514 7.181 1.444.39.157.778.3 1.165.443-1.057-1.808-1.681-4.105-1.655-6.603.005-.584.054-1.151.128-1.707z" fill="#ffaa7b"/></g><g><path d="m285.728 147.804c-.602 1.566-.946 3.298-.964 5.126-.047 4.73 2.093 8.889 5.313 11.159 4.673.422 8.862-.061 12.297-.867 2.542-2.316 4.194-5.921 4.234-9.994.026-2.668-.643-5.155-1.809-7.224-7.804-3.017-14.505-.936-19.071 1.8z" fill="#73c3f9"/></g><g><path d="m296.528 149.862c0-1.997-.598-3.821-1.583-5.228-3.596.381-6.726 1.677-9.218 3.17-.602 1.566-.947 3.298-.965 5.126-.007.705.04 1.395.127 2.071 1.207 1.776 3.025 2.908 5.061 2.908 3.633 0 6.578-3.603 6.578-8.047z" fill="#49b1f7"/></g><g><path d="m302.76 149.857c0 1.006-.815 1.821-1.821 1.821-1.005 0-1.821-.815-1.821-1.821 0-1.005.815-1.821 1.821-1.821 1.006.001 1.821.816 1.821 1.821z" fill="#9bd8f9"/></g><g><path d="m321.365 138.482c-.865-3.739-3.83-12.356-12.93-13.704-9.189-1.361-27.939 3.965-35.516 6.299-2.018.621-3.527 2.309-3.922 4.383l-1.141 5.98c-.097.508.396.927.882.75 5.72-2.087 32.082-11.426 40.483-9.424 6.407 1.527 9.858 4.408 11.415 6.103.295.321.827.039.729-.387z" fill="#ad5c38"/></g><g><path d="m193.777 156.027c4.8-5.414 9.433-8.542 13.726-10.135-.843 2.033-1.315 4.389-1.29 6.898.043 4.257 1.51 8.035 3.77 10.514-3.576-.804-6.37-1.967-8.094-2.861-3.489-1.809-6.121-2.529-7.685-2.814-.651-.119-.902-1.066-.427-1.602z" fill="#deeeff"/></g><path d="m232.556 161.588c.929-1.996 1.465-4.365 1.439-6.911-.003-.284-.02-.563-.038-.841-1.251-.955-2.439-1.918-3.384-2.803-1.225-1.146-2.954-2.505-5.094-3.685.495 1.59.781 3.33.799 5.162.049 4.847-1.759 9.123-4.52 11.594 3.376-.291 7.01-1.06 10.798-2.516z" fill="#deeeff"/><g><path d="m233.51 153.496c2.552 1.979 5.488 3.966 7.347 5.186.501.329.307 1.225-.268 1.233l-.26.004c-2.443.033-4.869.514-7.181 1.444-.39.157-.778.3-1.165.443 1.057-1.808 1.68-4.105 1.655-6.603-.005-.584-.054-1.151-.128-1.707z" fill="#fc9460"/></g><g><path d="m226.272 147.804c.602 1.566.946 3.298.964 5.126.047 4.73-2.093 8.889-5.313 11.159-4.673.422-8.862-.061-12.297-.867-2.542-2.316-4.194-5.921-4.235-9.994-.026-2.668.643-5.155 1.809-7.224 7.805-3.017 14.506-.936 19.072 1.8z" fill="#73c3f9"/></g><g><path d="m215.472 149.862c0-1.997.598-3.821 1.583-5.228 3.596.381 6.726 1.677 9.218 3.17.602 1.566.947 3.298.965 5.126.007.705-.04 1.395-.127 2.071-1.207 1.776-3.025 2.908-5.061 2.908-3.633 0-6.578-3.603-6.578-8.047z" fill="#49b1f7"/></g><g><path d="m209.24 149.857c0 1.006.815 1.821 1.821 1.821 1.005 0 1.821-.815 1.821-1.821 0-1.005-.815-1.821-1.821-1.821-1.006.001-1.821.816-1.821 1.821z" fill="#9bd8f9"/></g><g><path d="m190.635 138.482c.865-3.739 3.83-12.356 12.931-13.704 9.189-1.361 27.938 3.965 35.516 6.299 2.018.621 3.527 2.309 3.923 4.383l1.14 5.98c.097.508-.396.927-.882.75-5.72-2.087-32.081-11.426-40.483-9.424-6.407 1.527-9.858 4.408-11.415 6.103-.296.321-.828.039-.73-.387z" fill="#ad5c38"/></g><path d="m237.884 219.904 7.262-2.864c.817-.322 1.719-.359 2.559-.106l8.369 2.524 8.369-2.524c.841-.253 1.743-.216 2.56.106l7.262 2.864c2.006.791 2.992 3.059 2.201 5.065-.789 2-3.053 2.993-5.065 2.201l-6.001-2.366-8.162 2.461c-.791.247-1.615.229-2.328-.001l-8.16-2.461-6.001 2.366c-2.003.788-4.271-.189-5.065-2.201-.792-2.005.193-4.272 2.2-5.064z" fill="#fc9460"/><path d="m253.333 233.69h5.012c2.157 0 3.905 1.748 3.905 3.905s-1.748 3.905-3.905 3.905h-5.012c-2.157 0-3.905-1.748-3.905-3.905s1.748-3.905 3.905-3.905z" fill="#fc9460"/><path d="m238.484 187.594 6.365-1.34c1.831-.383 3.533.373 4.345 1.928 1.364 2.115 3.861 3.345 6.709 3.345 2.847 0 5.342-1.23 6.675-3.292.842-1.607 2.548-2.363 4.377-1.981l6.364 1.34c2.19.461 3.596 2.618 3.135 4.808-.46 2.188-2.616 3.595-4.807 3.136l-3.548-.747c-.045-.01-.092-.014-.137-.014-.173 0-.342.068-.468.192-6.284 6.208-16.901 6.207-23.185.001-.159-.158-.387-.225-.605-.178l-3.548.747c-2.191.458-4.346-.947-4.807-3.136-.462-2.191.945-4.348 3.135-4.809z" fill="#fc9460"/><path d="m311.688 52.69.393-.106c-33.489 1.18-56.081 14.992-56.081 14.992s-.11-.067-.318-.188l-1.133 21.705c-3.48 1.814-8.28 6.196-7.736 12.871.649.756 1.298 1.511 1.93 2.303 3.707 4.645 10.808 4.645 14.514 0 15.154-18.99 35.197-27.685 53.474-31.371-14.242-8.606-5.043-20.206-5.043-20.206z" fill="#ffdd40"/><path d="m256 67.576s-44.509-27.224-101.198-8.505c-1.721.568-3.086 1.897-3.749 3.584-1.681 4.279 1.732 8.835 6.309 8.404 19.735-1.856 63.713-1.464 91.381 33.208-2.786-9.9 7.257-14.204 7.257-14.204l1.209-23.179c-.794.439-1.209.692-1.209.692z" fill="#ffc839"/><path d="m278.649 56.757c-1.45 1.45-2.879 2.153-4.3 2.091-2.068-.092-3.532-1.814-3.541-1.824l-.175-.181c-.52-.454-12.812-11.148-20.782-13.18-1.885-.482-3.138-1.324-3.723-2.507-.962-1.94.037-4.342.048-4.366l-1.371-.594c-7.561 4.803-12.712 14.315-12.712 25.269 0 15.794 10.703 28.598 23.906 28.598s23.906-12.804 23.906-28.598c0-1.942-.164-3.838-.472-5.672-.242.352-.499.68-.784.964z" fill="#ffb332"/><path d="m279.706 57.821c-1.497-14.072-11.536-24.954-23.706-24.954-4.049 0-7.861 1.209-11.203 3.334-.031.073-2.989 6.959 4.684 8.916 7.714 1.967 20.165 12.855 20.165 12.855s4.452 5.453 10.06-.151z" fill="#ffc839"/><path d="m269.906 61.465c0-10.081-6.368-18.598-13.906-18.598s-13.906 8.517-13.906 18.598 6.368 18.599 13.906 18.599 13.906-8.518 13.906-18.599z" fill="#ff4155"/><path d="m266.611 489.329c-5.534-3.598-9.316-9.226-10.611-15.557-1.296 6.331-5.077 11.96-10.611 15.557-9.05 5.883-23.337 13.037-41.785 15.415-1.696.219-3.423.359-5.17.437 18.465 4.447 37.737 6.819 57.566 6.819s39.101-2.372 57.565-6.819c-1.747-.078-3.474-.219-5.169-.437-18.448-2.378-32.735-9.532-41.785-15.415z" fill="#bec8f7"/><path d="m225.189 358.5c-1.502 0-3.066-.244-4.672-.688-12.195 2.593-44.987 12.527-44.987 44.349v65.392c0 12.879 4.378 25.007 11.842 34.689 6.567 1.913 13.246 3.565 20.029 4.93 16.627-2.807 29.59-9.381 38.008-14.855 6.912-4.496 11.091-12.166 11.091-20.411v-82.093c0-17.294-14.019-31.313-31.311-31.313z" fill="#d3dcfb"/><path d="m178.27 321.009c-2.338-2.969-6.423-3.915-9.836-2.293l-15.253 7.245c-5.196 2.468-8.112 7.982-7.493 13.701.337 3.117.324 6.274-.059 9.415-1.876 15.362-7.348 41.771-23.256 62.223-2.339 7.263-3.617 14.844-3.601 22.549.002.797.013 1.586.033 2.367.437 16.639 6.35 31.687 15.89 43.686 17.171 9.805 35.646 17.581 55.095 23.027-8.052-9.689-12.762-22.144-12.762-35.376v-65.392c0-38.006 48.16-43.661 48.16-43.661-15.69 0-38.003-26.173-46.918-37.491z" fill="#bec8f7"/><path d="m376.888 389.349c-6.43-14.976-9.27-30.063-10.516-40.272-.384-3.141-.396-6.298-.059-9.415.618-5.719-2.297-11.233-7.493-13.701l-15.253-7.245c-3.414-1.621-7.498-.675-9.836 2.293-8.915 11.318-31.228 37.491-46.918 37.491-17.293 0-31.311 14.019-31.311 31.311v82.093c0 8.254 4.19 15.926 11.111 20.424 8.419 5.473 21.382 12.036 38.001 14.84 6.221-1.252 12.355-2.747 18.396-4.461z" fill="#deeeff"/><path d="m393.197 436.108c.019-.746.029-1.499.031-2.259.017-7.705-1.261-15.286-3.601-22.549-5.336-6.861-9.493-14.392-12.74-21.951h-23.917c-18.873 0-34.314 15.441-34.314 34.314v62.389c0 6.036 1.585 11.716 4.352 16.656 19.141-5.431 37.331-13.124 54.256-22.784 9.578-12.041 15.514-27.142 15.933-43.816z" fill="#f0f8ff"/><g fill="#bec8f7"><path d="m270.246 399.174h-28.493c-4.173 0-7.587-3.414-7.587-7.587 0-4.173 3.414-7.587 7.587-7.587h28.493c4.173 0 7.587 3.414 7.587 7.587 0 4.173-3.414 7.587-7.587 7.587z"/><path d="m270.246 431.424h-28.493c-4.173 0-7.587-3.414-7.587-7.587 0-4.173 3.414-7.587 7.587-7.587h28.493c4.173 0 7.587 3.414 7.587 7.587 0 4.173-3.414 7.587-7.587 7.587z"/><path d="m270.246 463.674h-28.493c-4.173 0-7.587-3.414-7.587-7.587 0-4.173 3.414-7.587 7.587-7.587h28.493c4.173 0 7.587 3.414 7.587 7.587 0 4.173-3.414 7.587-7.587 7.587z"/></g><path d="m180.593 298.289c-2.697 6.707-3.989 14.379-2.322 22.72l-32.583 18.653-22.063-33.91 44.358-19.581c7.733-3.412 15.763 4.277 12.61 12.118z" fill="#a8b7ef"/><path d="m331.403 298.289c2.697 6.707 3.993 14.379 2.327 22.72l32.578 18.653 22.06-33.91-44.356-19.581c-7.732-3.412-15.763 4.277-12.609 12.118z" fill="#bec8f7"/><circle cx="259.112" cy="55.25" fill="#ff7186" r="4.583"/><path d="m357.198 59.071c-17.274-5.704-33.413-7.138-47.511-6.38-.013.016-9.423 11.881 5.538 20.509.001 0 .001.001.002.001 15.672-3.383 30.189-3.009 39.411-2.142 4.577.431 7.99-4.125 6.309-8.404-.663-1.687-2.028-3.016-3.749-3.584z" fill="#fee884"/><path d="m102.033 368.629c.534 3.424 2.514 11.692 9.57 17.765 5.904 5.081 13.899 7.357 23.778 6.799 7.663-16.199 10.894-33.034 12.247-44.116.937-7.673-.305-15.452-3.501-22.49-8.651-19.049-29.937-29.04-50.048-23.277-11.226 3.217-23.288 8.904-33.684 18.783v29.457c7.634 10.221 20.455 19.317 41.638 17.079z" fill="#ffdd40"/><path d="m103.343 366.965c-22.555 2.905-35.572-7.11-42.948-17.828v65.385c7.214 9.546 15.106 18.553 23.611 26.939 4.91-3.275 10.607-6.72 17.25-10.308 16.98-9.173 27.866-24.153 34.852-39.518-31.04 2.23-32.765-24.67-32.765-24.67z" fill="#ffc839"/><path d="m50.147 328.964c1.835 8.188 12.155 43.862 51.887 39.665.046.294.107.636.177.997 6.803-15.529 9.78-31.272 11.073-41.861.954-7.817-.31-15.742-3.567-22.912-.009-.019-.018-.039-.026-.058-1.618-3.549-5.338-5.72-9.226-5.409-2.771.222-5.554.719-8.316 1.51-14.501 4.156-30.372 12.353-42.415 28.182z" fill="#ffc839"/><path d="m51.298 327.089c-4.904 6.023-9.244 13.216-12.687 21.822-2.57 6.424-4.443 12.916-5.749 19.388 7.488 16.467 16.749 31.956 27.533 46.231 1.811-1.038 3.676-2.086 5.645-3.149 18.829-10.172 30.301-27.35 37.301-44.417-45.017 5.797-52.042-39.874-52.043-39.875z" fill="#ffb332"/><path d="m411.941 374.355c-4.109-1.471-15.047-4.594-24.832-.508-5.816 2.426-10.189 6.996-13.038 13.561 6.865 16.8 18.137 33.731 36.673 43.744 6.643 3.589 12.34 7.034 17.25 10.308 8.506-8.386 16.397-17.393 23.611-26.939v-76.712c-14.203 2.797-33.253 11.332-39.664 36.546z" fill="#ffdd40"/><path d="m367.873 326.587c-3.197 7.038-4.438 14.817-3.501 22.49 1.246 10.206 4.087 25.289 10.511 40.262 9.77-25.388 38.117-12.965 38.117-12.965 5.79-25.706 24.547-34.33 38.605-37.12v-17.162c-10.397-9.879-22.458-15.566-33.684-18.783-20.112-5.763-41.397 4.229-50.048 23.278z" fill="#ffc839"/><path d="m467.315 336.56c-6.89-.327-45.613-.424-55.357 37.733 7.147 14.521 17.875 28.375 34.002 37.088 1.969 1.064 3.834 2.111 5.645 3.149 10.784-14.275 20.045-29.763 27.533-46.231-1.306-6.473-3.18-12.965-5.749-19.388-1.797-4.49-3.838-8.593-6.074-12.351z" fill="#ffc839"/><path d="m468.216 338.12c-12.387-21.881-31.322-32.34-48.364-37.224-2.762-.791-5.545-1.288-8.316-1.51-3.888-.312-7.608 1.86-9.226 5.409-.009.019-.018.039-.026.058-3.257 7.17-4.521 15.095-3.567 22.912 1.481 12.129 5.16 31.021 14.283 48.607 9.632-42.755 55.143-38.259 55.216-38.252z" fill="#ffb332"/></g></svg>