<svg id="Layer_1" enable-background="new 0 0 511.711 511.711" height="512" viewBox="0 0 511.711 511.711" width="512" xmlns="http://www.w3.org/2000/svg"><g><path d="m134.098 479.359c5.195 2.981 10.512 5.775 15.937 8.378h211.641c5.426-2.602 10.742-5.396 15.937-8.378l60.781-49.251c38.835-43.354 62.463-100.614 62.463-163.399 0-135.311-109.691-245.002-245.002-245.002s-245.002 109.691-245.002 245.002c0 62.786 23.628 120.045 62.463 163.399z" fill="#1c2e7a"/><path d="m389.201 79.967c-11.04-13.031-35.721 6.851-35.721 6.851l-1.227 8.22v35.098c0 7.8-1.194 15.518-3.518 22.868 23.23 11.116 54.438-56.546 40.466-73.037z" fill="#f964b2"/><path d="m159.458 130.136v-34.95l-1.249-8.368s-24.681-19.882-35.721-6.851c-13.975 16.495 17.253 84.192 40.486 73.028-2.322-7.347-3.516-15.062-3.516-22.859z" fill="#f964b2"/><path d="m432.401 366.166c-3.622-29.061-25.111-52.93-53.774-58.942-.395-.083-.777-.159-1.145-.23 0 0-81.52-18.916-81.52-53.224 0-1.69 0-2.717 0-3.413-.418.453-.837.9-1.258 1.334-7.479 7.723-17.81 12.019-28.56 12.019h-6.458c-2.537 11.322-8.663 31.85-21.616 45.068-4.552.576-34.727 5.081-50.217 24.66-7.136 9.019-10.013 19.893-8.553 32.324-.973 2.677-5.795 18.132 9.218 25.508-1.055 3.698-3.754 14.869-2.584 28.952 1.28 15.421 7.674 37.228 30.7 54.252-2.921 4.146-10.965 17.753-4 33.416 14.032 2.499 28.471 3.819 43.221 3.819 37.9 0 73.788-8.61 105.821-23.974 3.627-16.8 7.094-33.77 9.207-44.247l-4.277-33.065v-45.707c7.817 4.513 34.689 22.852 39.049 63.653 1.269 11.875 2.139 21.813 2.731 30.056 10.777-8.59 20.822-18.061 30.009-28.318-1.818-25.58-4.147-49.119-5.994-63.941z" fill="#fc90ce"/><path d="m409.81 457.294c-.593-8.052-1.444-17.66-2.664-29.083-5.236-49-42.04-66-42.04-66v48.31l4.855 37.53c1.836-9.049 3.005-14.974 3.005-14.974.074-.73.689-1.276 1.423-1.276.791 0 1.432.642 1.431 1.434.067 8.817.727 27.565 1.794 46.125 11.334-6.505 22.095-13.893 32.196-22.066z" fill="#f964b2"/><path d="m238.768 310.207c13.656-13.656 19.936-34.992 22.468-46.496h-15.669c-10.75 0-21.081-4.296-28.56-12.019-.421-.434-.839-.881-1.257-1.334v3.412c0 34.308-81.52 53.224-81.52 53.224-.368.07-.751.147-1.145.23-28.663 6.012-50.152 29.88-53.774 58.942-1.847 14.822-4.176 38.361-5.994 63.942 17.446 19.477 37.954 36.152 60.781 49.251 1.067-18.56 1.727-37.308 1.794-46.125-.001-.792.639-1.434 1.43-1.434.734 0 1.349.546 1.423 1.276 0 0 5.439 27.559 11.289 54.661 20.101 9.641 41.722 16.619 64.404 20.483-8.959-18.502 4.309-34.063 4.309-34.063-45.633-32.554-28.415-83.7-28.415-83.7-16.798-7.254-9.5-24.507-9.5-24.507-6.047-48.761 57.936-55.743 57.936-55.743z" fill="#f964b2"/><path d="m347.333 50.913c-2.186-3.975-4.63-7.789-7.301-11.428-6.764-2.227-13.984-3.448-21.493-3.448-23.305 0-43.889 11.607-56.312 29.35-3.12 4.456-9.624 4.456-12.744 0-3.83-5.469-8.436-10.353-13.657-14.496.132 1.029.291 2.071.493 3.136-4.17 3.165-22.163 18.572-12.346 42.087l7.807 53.218c-.822 2.217-3.962 12.409 4.867 18.992l3.324 14.046c-.99 2.839-5.731 17.926 2.557 25.066l1.163 9.617c-.372 3.263-3.832 38.543 18.208 48.656h4.243c10.75 0 21.081-4.296 28.56-12.019 1.864-1.924 3.702-4.028 5.491-6.326 4.135-16.74.035-31.21 6.645-47.156 6.304-15.206 22.801-24.133 35.093-28.863 8.079-12.161 12.279-26.545 12.279-41.213v-52.203c0-9.438-2.329-18.745-6.877-27.016z" fill="#fcb1df"/><path d="m266.143 265.711c-25.988-7.5-20.941-48.658-20.941-48.658l-1.256-10.394c-8.935-6.927-2.411-24.198-2.411-24.198l-3.556-15.024c-9.642-6.727-4.657-17.927-4.657-17.927l-7.891-53.8c-10.834-25.622 12.548-41.033 12.548-41.033-.167-.802-.306-1.59-.433-2.372-11.97-10.144-27.453-16.268-44.375-16.268-7.276 0-14.277 1.154-20.857 3.251-3.138 4.224-5.98 8.685-8.473 13.362-4.264 7.999-6.34 16.983-6.34 26.047v51.438c0 14.667 4.2 29.051 12.279 41.212 12.292 4.73 28.789 13.657 35.093 28.863 6.611 15.946 2.51 30.416 6.645 47.156 1.788 2.298 3.627 4.401 5.49 6.325 7.479 7.723 17.81 12.019 28.56 12.019h20.575z" fill="#fc90ce"/><path d="m297.211 84.186c-27.442 22.099-23.155 59.471-23.155 59.471l55.179-16.658c7.109-14.076 6.914-25.619 4.084-34.43-4.942-15.383-23.524-18.517-36.108-8.383z" fill="#fcc8ea"/><path d="m214.581 84.186c27.442 22.099 23.155 59.471 23.155 59.471l-55.179-16.658c-7.109-14.076-6.914-25.619-4.084-34.43 4.942-15.383 23.524-18.517 36.108-8.383z" fill="#fcc8ea"/><path d="m299.728 104.039c-10.887 5.566-17.703 17.413-21.75 27.57-.177 3.415.266 13.509 11.051 17.762 13.214-.903 23.231-4.55 30.776-9.265 22.071-13.791 3.096-47.914-20.077-36.067z" fill="#856ee5"/><path d="m302.407 102.87c-.886.325-1.779.708-2.679 1.169-7.098 3.629-12.461 9.929-16.459 16.689-.266 1.567-.409 3.192-.409 4.861 0 11.575 6.736 21.132 15.466 22.618 4.39-.817 8.357-1.96 11.93-3.347 4.978-4.05 8.284-11.164 8.284-19.271 0-11.869-7.081-21.618-16.133-22.719z" fill="#5c45bf"/><ellipse cx="299.103" cy="126.999" fill="#3b2aa0" rx="7.663" ry="10.536"/><path d="m308.861 117.57c0 2.463-1.997 4.46-4.46 4.46s-4.46-1.997-4.46-4.46 1.997-4.46 4.46-4.46 4.46 1.996 4.46 4.46z" fill="#856ee5"/><path d="m234.333 133.161c-3.959-10.474-10.904-23.27-22.351-29.122-23.173-11.847-42.147 22.275-20.076 36.068 7.434 4.645 17.274 8.251 30.202 9.22 10.434-3.283 12.098-11.778 12.225-16.166z" fill="#856ee5"/><path d="m209.303 102.87c.886.325 1.779.708 2.679 1.169 7.098 3.629 12.461 9.929 16.459 16.689.266 1.567.41 3.192.41 4.861 0 11.575-6.736 21.132-15.466 22.618-4.39-.817-8.357-1.96-11.93-3.347-4.978-4.05-8.284-11.164-8.284-19.271 0-11.869 7.081-21.618 16.132-22.719z" fill="#5c45bf"/><ellipse cx="212.608" cy="126.999" fill="#3b2aa0" rx="7.663" ry="10.536"/><path d="m202.849 117.57c0 2.463 1.997 4.46 4.46 4.46s4.46-1.997 4.46-4.46-1.997-4.46-4.46-4.46-4.46 1.996-4.46 4.46z" fill="#856ee5"/><g fill="#f964b2"><ellipse cx="270.176" cy="174.164" rx="6.086" ry="8.297"/><ellipse cx="241.535" cy="174.164" rx="6.086" ry="8.297"/><path d="m233.26 130.452c.003.022 2.196 14.242-11.916 18.816 3.729.312 7.707.414 11.978.242 2.978-.12 5.077-2.967 4.333-5.853-.885-3.432-2.3-8.151-4.395-13.205z"/></g><path d="m278.45 130.452c-.003.022-2.196 14.242 11.916 18.816-3.729.312-7.707.414-11.978.242-2.978-.12-5.077-2.967-4.333-5.853.886-3.432 2.301-8.151 4.395-13.205z" fill="#fc90ce"/><path d="m297.932 7.301c-9.131-3.4-19.383-5.843-30.836-6.823-3.636 1.707-10.575 5.447-17.081 11.651-8.287 7.902-17.257 21.369-13.843 41.044 5.077 4.083 9.567 8.868 13.311 14.215 3.12 4.456 9.624 4.456 12.744 0 12.423-17.744 33.007-29.35 56.312-29.35 8.213 0 16.087 1.446 23.388 4.088-10.615-15.479-25.4-27.901-43.995-34.825z" fill="#fc90ce"/><path d="m237.978 54.677c-8.065-38.686 32.166-53.889 32.197-53.9-4.574-.505-9.344-.777-14.32-.777-13.948 0-26.295 2.122-37.166 5.602-20.327 6.507-36.671 19.613-48.287 36.315 7.128-2.503 14.786-3.879 22.769-3.879 17.127 0 32.779 6.274 44.807 16.639z" fill="#f964b2"/><path d="m206.872 199.211c-6.915-16.68-26.095-25.805-38.536-30.122 1.21 1.979 2.508 3.911 3.916 5.775.064.084.128.169.192.253 8.566 11.273 18.06 26.846 25.434 47.11 4.585 12.598 10.686 22.153 17.208 29.406-6.663-19.031-.92-34.829-8.214-52.422z" fill="#f964b2"/><path d="m304.839 199.211c-7.293 17.593-1.551 33.39-8.213 52.421 6.522-7.252 12.623-16.807 17.207-29.405 7.374-20.264 16.868-35.837 25.434-47.11.069-.091.138-.182.206-.272 1.402-1.858 2.695-3.784 3.902-5.756-12.441 4.317-31.621 13.442-38.536 30.122z" fill="#fc90ce"/><path d="m332.923 391.507c-17.81-5.656-40.353-6.181-67.228 6.125-6.241 2.858-13.438 2.858-19.679 0-23.509-10.765-43.703-11.711-60.314-7.993.853.577 1.783 1.125 2.815 1.633-1.055 3.698-3.754 14.869-2.584 28.952 1.261 15.192 7.497 36.577 29.696 53.486 10.366 1.313 20.664 4.45 30.65 9.022 6.084 2.786 13.067 2.787 19.151 0 21.883-10.021 45.246-13.167 67.532-5.263 16.568 5.876 34.542-3.855 38.077-21.075l3.001-12.101c.861-3.47 1.427-6.965 1.723-10.453-6.713-20.168-22.233-35.788-42.84-42.333z" fill="#5c45bf"/><path d="m190.333 390.457c-.906-.391-1.729-.817-2.5-1.262-3.138.615-6.155 1.395-9.045 2.312-20.743 6.587-36.164 22.349-42.827 42.378.296 3.483.858 6.974 1.718 10.443l2.992 12.066c3.535 17.22 21.509 26.951 38.077 21.075 13.137-4.66 26.645-5.475 40-3.312-45.633-32.554-28.415-83.7-28.415-83.7z" fill="#3b2aa0"/><path d="m330.878 365.95c-17.337-5.506-39.282-6.017-65.444 5.962-6.075 2.782-13.082 2.782-19.157 0-26.162-11.98-48.107-11.468-65.444-5.962-.611.194-1.205.412-1.805.621-1.289 4.066-4.298 17.448 8.878 24.376 16.105-3.53 35.646-2.552 58.371 7.854 6.075 2.782 13.082 2.782 19.157 0 26.162-11.98 48.107-11.468 65.444-5.962 22.723 7.216 39.028 25.794 43.761 48.809 6.578-32.009-10.925-65.27-43.761-75.698z" fill="#7255ce"/><path d="m190.333 390.457c-16.798-7.254-9.5-24.507-9.5-24.507-32.632 10.363-50.371 43.569-43.746 75.754 4.683-22.786 20.806-41.579 43.746-48.865 3.026-.961 6.195-1.765 9.5-2.382z" fill="#5c45bf"/><g><path d="m263.392 333.147c-2.457-1.261-3.427-4.274-2.167-6.731l3.188-6.207c9.023-17.571 38.09-22.602 39.322-22.807 2.729-.46 5.3 1.386 5.754 4.109s-1.386 5.3-4.109 5.754c-7.032 1.186-26.491 6.644-32.071 17.512l-3.185 6.203c-1.261 2.456-4.272 3.426-6.732 2.167z" fill="#f964b2"/></g><g><path d="m241.605 330.982-3.187-6.205c-5.605-10.914-25.053-16.341-32.073-17.512-2.724-.454-4.564-3.03-4.109-5.754.453-2.724 3.032-4.566 5.754-4.109 1.232.205 30.301 5.235 39.324 22.807l3.186 6.205c1.262 2.456.293 5.471-2.163 6.733-2.447 1.255-5.467.301-6.732-2.165z" fill="#f964b2"/></g><path d="m385.318 368.981c-1.379-.203-5.261-.518-8.493 1.674-2.352 1.595-3.828 4.122-4.388 7.512-.3 1.812-2.076 3.09-4.719 3.961 8.12 12.669 20.802 22.431 36.347 26.43 10.88 2.799 21.783 2.515 31.825-.277 2.261-.629 4.1-2.299 4.985-4.473 8.057-19.785 7.232-40.794-.369-58.86z" fill="#deeeff"/><path d="m401.037 304.475c-11.19-4.982-24.269-1.602-31.465 8.31-4.77 6.57-8.31 14.197-10.205 22.622-3.852 17.126-.04 34.363 9.175 47.999 2.911-1.032 4.98-2.611 5.375-4.996 1.661-10.051 11.589-7.875 11.589-7.875l55.572-24.2c-7.233-18.159-21.258-33.497-40.041-41.86z" fill="#bec8f7"/><path d="m387.751 314.908c-3.905 5.38-6.804 11.624-8.356 18.523-5.941 26.414 10.379 53.148 36.599 59.894 8.908 2.292 17.836 2.059 26.058-.227 1.851-.515 3.357-1.882 4.082-3.662 13.006-31.939-2.21-67.793-32.62-81.333-9.162-4.079-19.871-1.311-25.763 6.805z" fill="#5c45bf"/><path d="m120.599 369.12c.432 2.012 1.685 5.981 5.13 8.778 3.01 2.442 6.938 3.411 11.701 2.882 3.07-.348 3.79.758 4.026 1.119.486.746.638 1.836.565 3.124 10.032-13.876 14.329-31.801 10.322-49.616-1.895-8.426-5.435-16.052-10.205-22.622-7.196-9.912-20.275-13.292-31.464-8.31-24.977 11.12-41.539 34.57-44.892 60.598z" fill="#deeeff"/><path d="m137.263 379.289c-14.118 1.578-15.382-11.578-15.382-11.578l-55.906-4.127c-1.951 13.121-.546 26.948 4.86 40.224.885 2.174 2.724 3.844 4.985 4.473 10.042 2.792 20.945 3.076 31.825.277 15.183-3.906 27.639-13.306 35.777-25.544-.433-2.551-2.165-4.171-6.159-3.725z" fill="#bec8f7"/><path d="m123.96 314.908c3.905 5.38 6.804 11.624 8.356 18.523 5.941 26.414-10.379 53.148-36.599 59.894-8.908 2.292-17.836 2.059-26.058-.227-1.851-.515-3.357-1.882-4.082-3.662-13.006-31.939 2.21-67.793 32.619-81.333 9.163-4.079 19.872-1.311 25.764 6.805z" fill="#5c45bf"/><circle cx="146.606" cy="384.322" fill="#856ee5" r="10.61"/><ellipse cx="365.105" cy="384.322" fill="#856ee5" rx="10.61" ry="10.611" transform="matrix(.011 -1 1 .011 -23.042 745.357)"/><g><path d="m235.911 210.917c12.533 11.281 27.356 11.281 39.889 0 .792-.713 1.596-1.472 2.407-2.279 2.196-2.185.266-6.808-2.258-5.422-.05.027-.099.054-.149.081-12.533 6.838-27.356 6.838-39.889 0-.049-.027-.099-.054-.149-.081-2.524-1.386-4.454 3.237-2.258 5.422.812.807 1.615 1.566 2.407 2.279z" fill="#f964b2"/></g><path d="m10.854 266.709c0 21.713 2.838 42.76 8.14 62.806 17.519-39.175 59.716-43.463 90.49-49.138 39.769-7.333 66.898-44 16.898-102-30.24-35.078-36.58-69.663-36.87-91.525-48.367 44.756-78.658 108.764-78.658 179.857z" fill="#2a428c"/><path d="m500.858 266.709c0 21.713-2.838 42.76-8.14 62.806-17.519-39.175-59.716-43.463-90.49-49.138-39.769-7.333-66.898-44-16.898-102 30.24-35.078 36.579-69.663 36.869-91.525 48.367 44.756 78.659 108.764 78.659 179.857z" fill="#2a428c"/><ellipse cx="417.262" cy="342.803" fill="#7255ce" rx="15.349" ry="20.75" transform="matrix(.866 -.5 .5 .866 -115.499 254.557)"/><ellipse cx="94.449" cy="342.803" fill="#7255ce" rx="20.75" ry="15.349" transform="matrix(.5 -.866 .866 .5 -249.652 253.198)"/></g></svg>