<svg id="Layer_1" enable-background="new 0 0 512 512" height="512" viewBox="0 0 512 512" width="512" xmlns="http://www.w3.org/2000/svg"><g><ellipse cx="256" cy="266.998" fill="#ffc839" rx="245.002" ry="245.002" transform="matrix(.707 -.707 .707 .707 -113.815 259.221)"/><path d="m248.393 20.867c-3.892 5.632-24.781 38.964 3.753 67.496 29.278 29.278 72.9 128.73 75.401 134.468.167 3.158 2.091 28.389 21.023 42.089 12.915 9.344 30.633 10.975 52.656 4.897.337-.619.685-1.233 1.051-1.838 4.048-6.687 6.379-14.528 6.379-22.916 0-12.833-5.453-24.387-14.168-32.481-10.718-9.955-13.218-24.241-9.378-35.917 14.291-43.463-17.731-59.225-38.325-113.671-17.907-47.344-68.568-44.351-84.958-42.038-1.932.273-3.881.375-5.828.341-1.948.034-3.896-.069-5.828-.341-.579-.082-1.206-.164-1.869-.246z" fill="#6c5475"/><path d="m165.214 62.994c-20.594 54.445-52.616 70.208-38.325 113.671 3.84 11.677 1.34 25.962-9.378 35.917-8.714 8.094-14.168 19.648-14.168 32.481 0 8.388 2.331 16.229 6.379 22.916 5.076 8.385 7.419 18.181 6.347 27.924-1.384 12.583.827 26.795 11.209 40.379h128.722 128.723c10.381-13.584 12.592-27.796 11.209-40.379-1.072-9.743 1.271-19.539 6.347-27.924-70.834 20.479-73.246-45.493-73.246-45.493s-45.275-104.631-75.826-135.182c-30.551-30.552-3.034-66.347-3.034-66.347-16.391-2.314-67.052-5.307-84.959 42.037z" fill="#543e5b"/><path d="m447.621 375.645c-14.925-29.849-41.119-38.184-53.054-40.476 0 0-97.953-17.873-97.953-52.616 0-5.644 0-3.953 0-7.608-9.841 8.798-26.717 20.006-40.615 20.343-1.307-.032-2.641-.16-3.993-.373.567 1.214 1.215 2.43 1.974 3.645-.644.899-1.432 2.36-1.456 4.15-.019 1.3.353 2.545 1.105 3.723-2.735 1.449-7.817 4.853-10.539 11.154-2.577 5.97-2.381 12.986.577 20.88-9.52 1.472-50.558 9.863-51.053 45.125-.54.53-1.465 1.502-2.522 2.828 15.437-1.161 33.188 3.024 52.933 16.551 7.843 5.373 18.102 5.373 25.945 0 70.529-48.321 115.643 22.511 120.561 30.75.294-.801.456-1.221.456-1.221l61.484-47.094c-1.179-3.7-2.461-6.983-3.85-9.761z" fill="#ffaa7b"/><path d="m256 306.978c-4.348-4.348-.161-8.309-.161-8.309-.788-1.176-1.471-2.355-2.066-3.531-13.436-1.371-29.067-11.861-38.388-20.194v7.608c0 34.743-97.953 52.616-97.953 52.616-11.935 2.292-38.129 10.627-53.054 40.476-1.389 2.778-2.67 6.062-3.852 9.761l61.484 47.094s.162.42.456 1.22c3.603-6.036 28.767-45.634 69.681-47.42 1.147-1.329 1.964-2.059 1.964-2.059 0-39.382 51.661-44.547 51.661-44.547-10.508-24.973 10.228-32.715 10.228-32.715z" fill="#fc9460"/><path d="m304.479 327.545c-6.362-1.936-10.603-5.214-12.603-9.739-3.164-7.155.164-15.42.746-16.758l1.671-1.846c-13.045 4.602-26.021 7.48-38.293 7.777-18.138-.439-37.812-6.501-56.976-15.462-3.319-1.552-7.227.151-8.423 3.613-1.595 4.615-4.282 9.015-7.838 13.198-2.523 2.968-1.607 7.511 1.812 9.379 23.536 12.856 48.687 22.243 71.425 22.793 16.029-.388 33.256-5.18 50.272-12.47-.604-.146-1.202-.306-1.793-.485z" fill="#ff4155"/><path d="m329.237 308.327c-3.556-4.183-6.243-8.583-7.838-13.198-1.196-3.462-5.104-5.165-8.423-3.613-7.173 3.354-14.417 6.301-21.625 8.699v.001s-10.374 21.735 12.682 28.759c7.875-3.267 15.719-7.079 23.391-11.269 3.42-1.867 4.336-6.41 1.813-9.379z" fill="#ff7186"/><path d="m256 306.978c-18.138-.439-37.812-6.501-56.976-15.462-3.319-1.552-7.227.151-8.423 3.613-1.595 4.615-4.282 9.015-7.838 13.198-2.523 2.968-1.607 7.511 1.812 9.379 20.056 10.955 41.279 19.369 61.188 21.965-10.486-24.955 10.237-32.693 10.237-32.693z" fill="#e80054"/><path d="m177.837 197.09s-4.885-30.915.741-49.326c-5.105-3.403-14.968-5.064-19.404-.728-9.082 8.879-2.428 22.286.757 30.755.978 2.6 1.608 5.23 1.894 7.866.62 5.725 3.724 14.105 16.596 13.908-.195-.824-.394-1.636-.584-2.475z" fill="#fc9460"/><path d="m354.108 147.037c-4.436-4.337-14.299-2.675-19.404.728 5.626 18.411.741 49.326.741 49.326-.19.839-.389 1.65-.584 2.475 12.872.198 15.976-8.182 16.596-13.908.285-2.635.916-5.265 1.893-7.866 3.186-8.469 9.84-21.876.758-30.755z" fill="#ffaa7b"/><path d="m330.47 138.186c-1.854-2.09-2.875-4.533-2.95-7.061-.287-9.626-2.718-33.189-19.047-44.062-11.582-7.713-27.865-7.633-48.396.241-2.216.85-4.656.85-6.871 0-.888-.341-1.758-.647-2.631-.959.231.311.459.621.699.932-4.48 5.539-25.496 33.867-13.598 64.201l3.808 10.116c-2.125 1.975-6.72 7.68-2.203 17.152l-.13.6c-.668 1.688-6.228 16.827 4.52 27.724l7.695 12.041c-2.035 2.328-6.78 8.89-5.137 17.965l.058.322 6.625 9.498c-1.33 1.472-2.458 4.029-.939 7.299 1.412 3.038 2.063 5.791 2.288 6.895-1.86 3.23-10.846 20.566-.279 37.47-.003.004-.006.009-.009.013 5.339.431 10.765-.423 15.753-2.58 18.569-8.034 33.646-21.285 43.602-38.324 9.806-16.779 17.459-37.113 22.753-60.478 2.291-14.57 4.732-47.35-5.611-59.005z" fill="#ffc7ab"/><path d="m255.839 261.372s-.56-3.622-2.506-7.81 1.577-6.425 1.577-6.425l-7.204-10.33c-1.907-10.526 5.554-17.52 5.554-17.52l-8.411-13.161c-10.735-10.735-4.259-26.339-4.259-26.339l.268-1.233c-5.63-11.195 2.405-16.493 2.405-16.493l-4.181-11.113c-13.031-33.218 14.124-63.646 14.124-63.646-20.531-7.871-36.814-7.952-48.395-.242-16.329 10.873-18.76 34.437-19.047 44.063-.075 2.53-1.095 4.971-2.951 7.061-10.225 11.523-7.986 45.186-5.6 59.046 5.283 23.319 12.936 43.652 22.743 60.436 9.956 17.039 25.033 30.29 43.602 38.324 3.909 1.691 8.088 2.576 12.283 2.678-12.275-18.328-.002-37.296-.002-37.296z" fill="#ffaa7b"/><g><path d="m318.224 175.899c-4.8-5.414-9.433-8.542-13.726-10.135.843 2.033 1.315 4.389 1.289 6.898-.043 4.257-1.51 8.035-3.77 10.514 3.576-.804 6.37-1.967 8.094-2.861 3.489-1.81 6.121-2.529 7.685-2.814.651-.119.902-1.066.428-1.602z" fill="#deeeff"/></g><path d="m278.159 174.776c-.025 2.519.541 4.852 1.516 6.772 3.704 1.399 7.26 2.143 10.568 2.428-2.761-2.471-4.569-6.747-4.52-11.594.018-1.831.304-3.572.799-5.161-2.14 1.18-3.869 2.539-5.094 3.685-.899.841-2.018 1.752-3.199 2.66-.038.397-.066.799-.07 1.21z" fill="#deeeff"/><g><path d="m278.49 173.368c-2.552 1.979-5.488 3.966-7.347 5.186-.501.329-.307 1.225.267 1.233l.26.003c2.443.033 4.869.514 7.181 1.444.39.157.778.3 1.165.443-1.056-1.808-1.68-4.105-1.655-6.603.006-.582.055-1.15.129-1.706z" fill="#ffaa7b"/></g><g><path d="m285.728 167.677c-.602 1.566-.946 3.298-.964 5.126-.047 4.73 2.093 8.889 5.313 11.159 4.673.422 8.862-.061 12.297-.867 2.542-2.316 4.194-5.921 4.234-9.994.026-2.668-.643-5.155-1.809-7.224-7.804-3.018-14.505-.937-19.071 1.8z" fill="#ff4155"/></g><g><path d="m296.528 169.734c0-1.997-.598-3.821-1.583-5.228-3.596.381-6.726 1.677-9.218 3.17-.602 1.566-.947 3.298-.965 5.126-.007.705.04 1.395.127 2.071 1.207 1.776 3.025 2.908 5.061 2.908 3.633 0 6.578-3.603 6.578-8.047z" fill="#cc0053"/></g><g><path d="m302.76 169.73c0 1.005-.815 1.821-1.821 1.821-1.005 0-1.821-.815-1.821-1.821s.815-1.821 1.821-1.821 1.821.815 1.821 1.821z" fill="#f9a0b1"/></g><g><path d="m321.365 158.355c-.865-3.739-3.83-12.356-12.93-13.704-9.189-1.362-27.938 3.965-35.516 6.298-2.018.622-3.527 2.309-3.923 4.383l-1.141 5.98c-.097.507.396.927.882.75 5.72-2.087 32.082-11.427 40.483-9.424 6.407 1.527 9.858 4.408 11.415 6.103.296.322.828.039.73-.386z" fill="#6c5475"/></g><path d="m232.556 181.46c.929-1.996 1.464-4.365 1.439-6.911-.003-.284-.02-.563-.038-.841-1.251-.955-2.439-1.918-3.384-2.802-1.225-1.146-2.954-2.505-5.094-3.685.495 1.59.781 3.33.799 5.161.049 4.847-1.759 9.123-4.52 11.594 3.376-.291 7.01-1.06 10.798-2.516z" fill="#deeeff"/><g><path d="m233.51 173.368c2.552 1.979 5.488 3.966 7.347 5.186.501.329.307 1.225-.268 1.233l-.26.003c-2.443.033-4.869.514-7.181 1.444-.39.157-.778.3-1.165.443 1.057-1.808 1.68-4.105 1.655-6.603-.005-.582-.054-1.15-.128-1.706z" fill="#fc9460"/></g><g><path d="m193.776 175.899c4.8-5.414 9.433-8.542 13.726-10.135-.843 2.033-1.315 4.389-1.29 6.898.043 4.257 1.51 8.035 3.77 10.514-3.576-.804-6.37-1.967-8.094-2.861-3.489-1.81-6.121-2.529-7.685-2.814-.65-.119-.902-1.066-.427-1.602z" fill="#deeeff"/></g><g><path d="m190.635 158.355c.865-3.739 3.83-12.356 12.93-13.704 9.189-1.362 27.938 3.965 35.516 6.298 2.018.622 3.527 2.309 3.923 4.383l1.141 5.98c.097.507-.396.927-.882.75-5.72-2.087-32.081-11.427-40.483-9.424-6.407 1.527-9.858 4.408-11.415 6.103-.296.322-.828.039-.73-.386z" fill="#543e5b"/></g><path d="m237.884 239.777 7.262-2.864c.817-.322 1.719-.359 2.559-.106l8.369 2.524 8.369-2.524c.841-.253 1.743-.216 2.56.106l7.262 2.864c2.006.791 2.992 3.059 2.201 5.065-.789 2-3.053 2.993-5.065 2.201l-6.001-2.366-8.162 2.461c-.791.247-1.615.229-2.328-.001l-8.16-2.461-6.001 2.366c-2.003.788-4.271-.189-5.065-2.201-.792-2.006.193-4.273 2.2-5.064z" fill="#876d93"/><path d="m253.333 253.562h5.012c2.157 0 3.905 1.748 3.905 3.905s-1.748 3.905-3.905 3.905h-5.012c-2.157 0-3.905-1.748-3.905-3.905s1.748-3.905 3.905-3.905z" fill="#fc9460"/><path d="m238.484 207.466 6.364-1.34c1.831-.383 3.533.373 4.345 1.928 1.364 2.115 3.861 3.345 6.709 3.345 2.847 0 5.342-1.23 6.675-3.292.842-1.607 2.548-2.363 4.376-1.981l6.364 1.34c2.19.461 3.596 2.618 3.135 4.808-.46 2.188-2.616 3.595-4.807 3.136l-3.548-.747c-.045-.01-.092-.014-.137-.014-.173 0-.342.068-.468.192-6.284 6.208-16.901 6.207-23.185.001-.159-.158-.387-.225-.605-.178l-3.548.747c-2.19.458-4.346-.947-4.807-3.136-.46-2.191.947-4.348 3.137-4.809z" fill="#fc9460"/><g><path d="m226.272 167.677c.602 1.566.946 3.298.964 5.126.047 4.73-2.093 8.889-5.313 11.159-4.673.422-8.862-.061-12.297-.867-2.542-2.316-4.194-5.921-4.235-9.994-.026-2.668.643-5.155 1.809-7.224 7.805-3.018 14.506-.937 19.072 1.8z" fill="#ff4155"/></g><g><path d="m215.472 169.734c0-1.997.598-3.821 1.583-5.228 3.596.381 6.726 1.677 9.218 3.17.602 1.566.947 3.298.965 5.126.007.705-.04 1.395-.127 2.071-1.207 1.776-3.025 2.908-5.061 2.908-3.633 0-6.578-3.603-6.578-8.047z" fill="#cc0053"/></g><g><path d="m209.24 169.73c0 1.005.815 1.821 1.821 1.821 1.005 0 1.821-.815 1.821-1.821s-.815-1.821-1.821-1.821-1.821.815-1.821 1.821z" fill="#f9a0b1"/></g><path d="m315.714 66.087c-2.058-2.517-2.817-5.799-2.084-9.007.76-3.325 2.97-6.058 6.062-7.498 20.117-9.367 23.568-28.113 22.055-35.228-.711-3.339.44-5.906 1.791-7.656-1.031-2.056-2.263-4.067-3.756-5.998-1.015-1.312-3.119-.668-3.191.989-.347 7.975-2.345 24.03-12.627 28.544-3.819 1.676-10.572 4.211-18.353 7.003-8.324 2.987-12.451 12.335-9.031 20.491 3.192 7.612 11.734 11.263 19.33 8.586-.063-.075-.135-.151-.196-.226z" fill="#ff4155"/><path d="m169.612 11.167c0 .536-.017 1.167-.035 1.879-.226 8.567-.754 28.631 21.781 37.168 4.51 1.914 9.707.135 12.093-4.144l4.544-8.149c-.517-.253-1.05-.485-1.605-.684-7.781-2.792-14.534-5.326-18.353-7.003-9.983-4.383-12.156-19.646-12.592-27.829-2.658 1.077-5.833 3.685-5.833 8.762z" fill="#ff7186"/><path d="m206.608 37.328-4.468 8.012c-2.006 3.598-6.403 5.105-10.194 3.493-23.475-8.894-20.834-30.833-20.834-37.666 0-4.266 2.533-6.258 4.437-7.153-.062-.829-.107-1.61-.139-2.324-.072-1.657-2.177-2.301-3.192-.989-7.075 9.148-8.597 20.041-7.998 29.564.836 13.3 8.947 25.057 20.939 30.868l9.309 4.511c7.962 3.858 17.53.243 20.952-7.916 3.39-8.083-.638-17.327-8.812-20.4z" fill="#ff4155"/><path d="m268.972 431.753c-7.843 3.254-18.102 3.254-25.945 0-19.637-8.147-37.3-10.695-52.678-10.03.588.706 1.206 1.409 1.867 2.105-2.066 3.441-8.414 15.059-10.344 30.738-1.636 13.297-.152 31.513 13.085 49.757 19.515 5.006 39.966 7.677 61.043 7.677 46.859 0 90.64-13.163 127.862-35.982l3.678-27.555c-10.438-9.583-53.779-43.591-118.568-16.71z" fill="#543e5b"/><path d="m194.111 423.623c-.657-.658-1.273-1.313-1.85-1.966-36.431.925-60.397 20.009-67.803 26.806l3.678 27.555c21.132 12.955 44.38 22.793 69.104 28.882-30.484-39.92-3.129-81.277-3.129-81.277z" fill="#45304c"/><path d="m311.746 423.748-2.298-39.071c-12.312 1.39-25.844 6.269-40.476 16.294-7.843 5.373-18.102 5.373-25.945 0-18.976-13.001-36.108-17.365-51.117-16.654-2.549 2.7-8.272 9.774-8.54 19.17-.201 7.049 2.726 13.83 8.695 20.174 14.971-.408 32.051 2.245 50.962 10.091 7.843 3.254 18.102 3.254 25.945 0 15.547-6.45 29.855-9.387 42.774-10.004z" fill="#6c5475"/><path d="m365.798 403.868-10.529 26.891c16.553 6.416 27.646 15.457 32.272 19.704l2.448-17.963s-8.535-15.269-24.191-28.632z" fill="#6c5475"/><path d="m194.111 423.623c-20.488-20.489-.642-38.8-.015-39.369-45.486.637-72.085 48.245-72.085 48.245l2.448 17.963c7.53-6.911 32.182-26.529 69.652-26.839z" fill="#543e5b"/><path d="m122.23 401.24c-6.833-6.392-16.095-14.753-25.386-23.04l-.025.072c-1.848 1.143-8.037 5.433-10.16 12.756-1.477 5.096-.66 10.515 2.427 16.107 8.78 15.902 2.89 20.315 2.866 20.333-3.217 2.027-7.601 6.823-8.221 13.693 13.492 13.351 28.512 25.161 44.802 35.105.467-1.029.742-2.176.742-3.417v-55.349c0-6.163-2.545-12.05-7.045-16.26z" fill="#a98bbc"/><path d="m92.752 428.737s7.36-4.737-2.353-22.328 7.657-27.127 7.657-27.127c-9.821-8.77-19.792-17.559-27.071-23.949-5.58-4.899-14.342-1.94-15.858 5.328-2.025 9.712-3.119 25.259-3.605 41.319 9.735 14.716 21.021 28.313 33.614 40.575.132-9.092 7.616-13.818 7.616-13.818z" fill="#876d93"/><g><path d="m126.267 447.168c-1.562 0-3.144-.406-4.585-1.262l-78.068-46.334c-4.274-2.537-5.683-8.059-3.146-12.333 2.537-4.273 8.056-5.684 12.333-3.146l78.068 46.334c4.275 2.537 5.683 8.059 3.146 12.333-1.682 2.834-4.676 4.408-7.748 4.408z" fill="#6c5475"/></g><path d="m422.387 442.905c-2.821-6.42-.055-13.471.482-14.723.859-.946 4.002-4.787 3.269-9.607-.609-4.006-3.683-7.488-9.136-10.351-5.69-2.986-8.397-7.982-8.046-14.85.274-5.343 2.359-9.863 2.38-9.908l.085-.183.359-2.068c-8.126 7.271-16.005 14.407-22.009 20.024-4.5 4.21-7.045 10.098-7.045 16.26v55.348c0 1.241.275 2.388.742 3.416 14.536-8.873 28.057-19.236 40.39-30.847-.572-.793-1.08-1.622-1.471-2.511z" fill="#876d93"/><path d="m460.478 401.978c-.486-16.059-1.58-31.606-3.605-41.317-1.516-7.269-10.278-10.227-15.858-5.328-8.263 7.254-19.994 17.598-31.038 27.498v.001s-8.814 18.775 6.327 26.722 5.298 17.787 5.298 17.787-5.095 10.674 1.142 19.124c14.26-13.261 26.951-28.185 37.734-44.487z" fill="#a98bbc"/><path d="m471.534 387.239c-2.537-4.273-8.056-5.684-12.333-3.146l-43.717 25.946c-1.665 3.189-5.311 12.539 5.829 17.472l47.075-27.939c4.275-2.537 5.683-8.058 3.146-12.333z" fill="#876d93"/><ellipse cx="256" cy="421.615" fill="#deeeff" rx="19" ry="24.125"/><ellipse cx="256" cy="421.615" fill="#bec8f7" rx="9.5" ry="12.062"/><path d="m421.602 427.34c-13.509-5.659-5.299-17.785-5.298-17.787l-35.172 20.875c-4.274 2.537-5.683 8.059-3.146 12.333 1.682 2.833 4.676 4.407 7.748 4.407 1.561 0 3.143-.406 4.585-1.262z" fill="#6c5475"/><path d="m355.269 430.759s14.548-5.856 10.529-26.891c-13.664-11.662-32.756-21.856-56.35-19.191-.572.691-18.402 22.585 2.298 39.071 17.059-.815 31.688 2.424 43.523 7.011z" fill="#876d93"/><path d="m340.279 14.667c1.508 7.086-2.44 24.811-21.221 33.556-7.119 3.315-9.466 12.383-4.698 18.547 1.073-.255 2.135-.625 3.171-1.126l9.309-4.511c11.992-5.811 20.103-17.568 20.939-30.868.502-7.98-.5-16.917-4.995-24.988-1.73 2.013-3.405 5.162-2.505 9.39z" fill="#ff7186"/><g fill="#ffdd40"><path d="m408.897 75.569c-24.994 18.944 1.213 66.071 16.739 100.029 19.857 43.431 8.976 60.902.611 109.402-6.374 36.958 38.691 57.028 60.504 64.489 9.216-25.778 14.25-53.545 14.25-82.491.001-77.472-35.967-146.533-92.104-191.429z"/><path d="m103.103 75.569c24.994 18.944-1.213 66.071-16.739 100.029-19.858 43.431-8.976 60.902-.612 109.402 6.374 36.958-38.691 57.028-60.504 64.489-9.216-25.778-14.251-53.545-14.251-82.491.001-77.472 35.969-146.533 92.106-191.429z"/></g></g></svg>