<svg id="Layer_1" enable-background="new 0 0 512 512" height="512" viewBox="0 0 512 512" width="512" xmlns="http://www.w3.org/2000/svg"><g><path d="m53.81 405.38h404.379c27.002-39.377 42.813-87.03 42.813-138.382 0-135.311-109.691-245.002-245.002-245.002s-245.002 109.691-245.002 245.002c0 51.352 15.81 99.006 42.812 138.382z" fill="#49b1f7"/><g><path d="m133.868 289.795-51.388-92.967-26.687 12.962c-.133.074-.274.116-.411.176l51.41 93.006z" fill="#6c5475"/><path d="m119.841 284.866c-2.671 1.3-5.892.273-7.319-2.332l-34.699-63.4c-1.527-2.79-.41-6.289 2.451-7.679l8.112-3.94-5.907-10.686-26.687 12.962c-.133.074-.274.116-.411.176l51.41 93.006 27.076-13.178-5.121-9.264z" fill="#543e5b"/><g><path d="m168.044 330.096-15.735-28.467-43.436 24.009 8.077 14.611c22.085-6.551 42.949-9.271 51.094-10.153z" fill="#543e5b"/></g><path d="m87.135 180.688c-3.324-6.013-10.893-8.194-16.907-4.87l-7.133 3.973c-3.847 4.178-4.805 10.493-1.906 15.736 2.54 4.596 7.354 7.116 12.265 6.975l8.811-4.908c6.013-3.323 8.194-10.892 4.87-16.906z" fill="#deeeff"/><path d="m61.647 194.994c-2.901-5.249-1.816-11.614 2.237-15.642l-18.528 10.32c-6.013 3.324-8.194 10.893-4.87 16.907 3.324 6.014 10.893 8.194 16.907 4.87l17.662-9.838c-5.259.781-10.684-1.69-13.408-6.617z" fill="#bec8f7"/><path d="m167.369 282.643c-3.121-5.647-10.229-7.694-15.876-4.573l-24.758 13.685c-2.628 4.033-3.015 9.338-.524 13.845 2.359 4.267 6.695 6.745 11.236 6.93l25.349-14.012c5.647-3.12 7.694-10.228 4.573-15.875z" fill="#deeeff"/><path d="m126.86 304.896c-2.474-4.476-1.969-9.783.837-13.672l-39.037 21.578c-5.647 3.121-7.694 10.229-4.573 15.876 3.121 5.647 10.229 7.694 15.876 4.573l39.488-21.827c-4.973.543-10.018-1.875-12.591-6.528z" fill="#bec8f7"/><g fill="#a98bbc"><path d="m86.24 221.499c0 4.057-3.289 7.346-7.347 7.346-4.057 0-7.346-3.289-7.346-7.346s3.289-7.346 7.346-7.346 7.347 3.289 7.347 7.346z"/><ellipse cx="111.377" cy="279.696" rx="7.346" ry="7.346" transform="matrix(.707 -.707 .707 .707 -165.154 160.676)"/><ellipse cx="100.549" cy="260.297" rx="7.346" ry="7.346" transform="matrix(.707 -.707 .707 .707 -154.608 147.338)"/><ellipse cx="89.721" cy="240.898" rx="7.346" ry="7.346" transform="matrix(.707 -.707 .707 .707 -144.062 134)"/></g></g><path d="m347.797 345.969c3.487-17.634 4.277-37.4-3.133-63.352-1.478-5.177-2.757-10.091-3.874-14.782-3.231 8.951-8.263 15.218-12.613 15.545-5.035 3.177-10.757 4.393-16.292 2.972-.428-.11-.846-.238-1.261-.376-1.637 3.127-4.026 5.86-7.023 7.915l-6.707 4.599c-.857 5.293-1.476 10.464-1.892 15.515 7.841 12.77 23.489 29.234 52.795 31.964z" fill="#543e5b"/><path d="m448.22 390.72c-15.551-25.497-39.435-33.01-50.756-35.184 0 0-43.819-7.999-73.444-23.695-19.492 14.835-45.693 29.555-68.019 30.096-4.884-.118-9.953-.915-15.097-2.243-.234.247-.462.496-.704.741-1.449.568-7.295 3.06-12.5 8.117-5.271 5.124-10.768 13.865-7.781 26.787-4.021.649-14.571 2.722-25.264 7.884-17.876 8.63-27.325 21.803-27.325 38.092v24.579h231.74l.002.001c5.423-3.909 10.682-8.031 15.76-12.36l-.002-.006z" fill="#fc90ce"/><path d="m168.829 441.315c0-38.333 52.954-44.732 52.954-44.732-7.104-25.399 19.252-34.861 19.252-34.861.535-.535 1.046-1.076 1.543-1.619-18.867-4.456-38.906-16.318-54.598-28.261-29.625 15.696-73.444 23.695-73.444 23.695-10.313 1.98-31.055 8.386-46.423 28.785l29.056 69.207-.002.006c5.078 4.329 10.337 8.451 15.76 12.36l.002-.001h55.899c.001-7.249.001-15.466.001-24.579z" fill="#f964b2"/><path d="m297.463 301.82c0-5.762 0-4.036 0-7.767-10.046 8.982-27.275 20.424-41.463 20.768-.496-.012-.997-.041-1.5-.079v14.063c-.003.176-.451 17.597-14.301 31.63-.313.123-.841.341-1.514.65 5.903 1.689 11.73 2.716 17.315 2.852 22.924-.555 49.936-16.059 69.572-31.286-15.89-8.146-28.109-18.435-28.109-30.831z" fill="#ffaa7b"/><path d="m256 314.821c-14.189-.344-31.417-11.786-41.464-20.768v7.767c0 12.396-12.218 22.685-28.109 30.83 15.489 12.012 35.566 24.189 54.607 29.071 14.705-14.703 14.966-32.893 14.966-32.893z" fill="#fc9460"/><path d="m250.63 433.083c-3.026-6.096-6.187-11.588-9.445-16.533-5.999-9.105-13.277-16.118-21.283-21.208-4.032.652-14.568 2.725-25.248 7.881-17.876 8.63-27.325 21.803-27.325 38.092v54.129c27.497 10.685 57.396 16.556 88.671 16.556.056 0 .111-.002.167-.002v-55.316c0-8.185-1.898-16.267-5.537-23.599z" fill="#d3dcfb"/><path d="m168.829 441.315c0-38.137 52.405-44.665 52.941-44.731-42.867-29.31-108.561-1.369-109.285 57.879-.007.613-.011 1.23-.011 1.852 0 3.361.163 6.544.455 9.579 17.11 12.329 35.878 22.497 55.899 30.125.001-9.22.001-28.22.001-54.704z" fill="#bec8f7"/><path d="m399.514 454.463c-.365-29.941-17.329-51.879-39.549-62.485-4.009 1.446-8.461 3.367-12.941 5.91-18.694 10.613-28.575 26.942-28.575 47.224v58.851c29.397-7.73 56.635-20.784 80.622-38.069.292-3.034.455-6.218.455-9.579-.001-.622-.004-1.239-.012-1.852z" fill="#f0f8ff"/><path d="m319.949 445.111c0-32.597 25.437-46.569 41.91-52.201-29.425-15.11-68.92-9.939-91.044 23.64-3.258 4.945-6.419 10.437-9.445 16.533-3.639 7.332-5.537 15.413-5.537 23.599v55.316c.056 0 .111.002.167.002 22.126 0 43.562-2.943 63.949-8.444 0-15.458 0-35.948 0-58.445z" fill="#deeeff"/><path d="m432.234 358.349c-3.647.628-14.888 3.216-21.879 12.047-4.318 5.454-6.176 12.251-5.531 20.222-1.263.185-3.082.612-4.857 1.597 4.707 4.448 8.523 9.429 10.942 14.998 5.587 12.86 9.974 26.146 13.308 37.899 12.68-11.979 24.077-25.299 33.973-39.731-5.217-17.212-12.999-33.915-24.617-45.717-.438-.444-.885-.882-1.339-1.315z" fill="#d3dcfb"/><path d="m433.572 359.664c-29.277-29.738-98.121-35.21-98.121-35.21l-3.302 8.977c-4.953 13.464 2.424 28.384 16.172 32.486 17.256 5.149 39.184 13.872 52.775 27.398 2.676-1.342 5.371-1.337 5.371-1.337-3.42-28.837 27.105-32.314 27.105-32.314z" fill="#bec8f7"/><path d="m404.802 390.256c.009.121.013.24.022.361-2.012.294-5.434 1.2-7.843 4.002-1.928 2.242-2.791 5.208-2.608 8.821 2.898 3.15 5.103 6.405 6.551 9.739 6.033 13.885 10.62 28.331 13.905 40.35 4.733-4.034 9.314-8.24 13.725-12.617-3.199-10.752-7.285-22.72-12.348-34.372-2.624-6.045-6.573-11.453-11.404-16.284z" fill="#deeeff"/><path d="m406.467 391.978c-14.579-15.685-38.494-25.545-58.107-31.397-4.386-1.309-7.936-4.295-9.995-8.408-2.082-4.159-2.345-8.853-.738-13.217l3.303-8.977c1.589-4.319-.625-9.108-4.943-10.697-4.319-1.584-9.106.625-10.697 4.943l-3.302 8.977c-3.164 8.602-2.625 18.235 1.478 26.431 4.141 8.27 11.29 14.277 20.131 16.915 25.059 7.478 43.228 17.526 52.472 28.838v-.005c-2.071-13.434 10.395-13.403 10.398-13.403z" fill="#d3dcfb"/><path d="m179.851 333.431-3.303-8.977s-65.207 5.186-95.685 32.88c-.514 4.091-.97 14.07 5.233 21.75 4.811 5.959 12.506 9.127 22.887 9.429-.07 1.486.044 3.701.895 5.838 13.494-14.121 36.107-23.154 53.801-28.434 13.748-4.102 21.125-19.021 16.172-32.486z" fill="#d3dcfb"/><path d="m78.427 359.664c-11.618 11.801-19.4 28.504-24.617 45.717 9.896 14.432 21.293 27.751 33.973 39.731 3.333-11.753 7.72-25.039 13.307-37.899 2.246-5.169 5.699-9.829 9.946-14.029-.983-3.044-.394-6.147-.394-6.147-34.743 0-28.016-31.248-28.015-31.252-1.473 1.244-2.878 2.536-4.2 3.879z" fill="#bec8f7"/><path d="m190.013 333.202-3.303-8.977c-1.59-4.318-6.378-6.527-10.697-4.943-4.318 1.589-6.532 6.378-4.943 10.697l3.302 8.977c1.606 4.365 1.344 9.059-.738 13.217-2.059 4.113-5.609 7.099-9.995 8.408-18.136 5.411-39.947 14.253-54.657 27.955-.102 2.208.165 6.009 2.713 8.773 2.021 2.19 5.011 3.244 8.893 3.171 10.087-9.306 26.443-17.554 47.815-23.932 8.84-2.637 15.99-8.645 20.131-16.915 4.104-8.196 4.643-17.829 1.479-26.431z" fill="#deeeff"/><path d="m122.402 398.868c-14.239 1.545-11.788-11.678-11.761-11.825-6.402 5.614-11.624 12.073-14.849 19.496-5.063 11.653-9.148 23.621-12.348 34.372 4.412 4.378 8.993 8.583 13.725 12.617 3.285-12.018 7.873-26.465 13.905-40.35 2.163-4.974 5.989-9.777 11.328-14.31z" fill="#d3dcfb"/><path d="m131.227 370.536c-7.245 3.391-10.108 12.207-6.237 19.208l7.047 12.744c3.519 6.365 11.369 8.914 17.956 5.831 7.245-3.392 10.108-12.207 6.237-19.208l-7.047-12.744c-3.519-6.366-11.369-8.914-17.956-5.831z" fill="#d3dcfb"/><path d="m380.773 370.536c7.246 3.391 10.108 12.207 6.237 19.208l-7.047 12.744c-3.519 6.365-11.369 8.914-17.957 5.831-7.245-3.392-10.108-12.207-6.237-19.208l7.047-12.744c3.52-6.366 11.37-8.914 17.957-5.831z" fill="#deeeff"/><path d="m256.655 0c-.709 0-1.413.018-2.113.054-2.058 2.342-6.309 8.055-6.416 15.405-.079 5.407 2.097 10.55 6.472 15.304-.691.899-1.462 2.267-1.546 3.96-.08 1.603.449 3.151 1.574 4.619-.017.019-.038.044-.055.063.692-.012 1.383-.025 2.084-.025 15.725 0 29.067 3.027 40.296 7.69.317-2.05.484-4.151.484-6.29 0-22.522-18.258-40.78-40.78-40.78z" fill="#6c5475"/><path d="m256.655 30.74c-15.82-15.82 0-30.74 0-30.74-22.523 0-40.781 18.258-40.781 40.781 0 2.139.167 4.239.484 6.29 11.23-4.664 24.571-7.69 40.297-7.69-4.75-4.751 0-8.641 0-8.641z" fill="#543e5b"/><path d="m256.655 30.74c-.69 0-1.378.01-2.063.031-.689.899-1.456 2.263-1.54 3.952-.08 1.603.449 3.151 1.574 4.619-.576.641-1.363 1.577-2.232 2.741 1.402-.05 2.818-.083 4.261-.083 19.193 0 34.84 4.505 47.423 10.998 2.234 1.153 4.392 2.407 6.484 3.738-12.63-15.836-32.077-25.996-53.907-25.996z" fill="#deeeff"/><path d="m256.655 30.74c-21.831 0-41.277 10.159-53.908 25.995 2.092-1.331 4.25-2.585 6.484-3.738 12.07-6.227 26.968-10.615 45.101-10.964 1.344-1.7 2.323-2.654 2.323-2.654-4.75-4.749 0-8.639 0-8.639z" fill="#bec8f7"/><g fill="#6c5475"><path d=""/><path d="m304.078 50.377c-12.583-6.492-28.23-10.997-47.423-10.997-.705 0-1.394.019-2.089.03-2.643 2.958-9.352 11.528-9.429 22.439-.051 7.303 2.894 14.174 8.757 20.444-1.228 1.368-2.982 3.854-2.896 6.803.068 2.344 1.246 4.463 3.503 6.311v8.152c1.958.411 4.012.264 5.896-.458 61.107-23.425 67.47 30.211 67.964 46.766.085 2.833 1.277 5.483 3.177 7.624 2.111 2.379 3.672 5.611 4.813 9.344 3.096-2.064 7.903-3.487 12.247-3.385l.001-.013v-40.181c-.001-30.449-16.975-58.668-44.521-72.879z"/></g><path d="m256.655 39.38c-19.193 0-34.84 4.505-47.423 10.997-27.546 14.211-44.52 42.43-44.52 72.879v40.181l.001.013c4.345-.102 9.151 1.321 12.247 3.385 1.141-3.733 2.702-6.965 4.813-9.344 1.9-2.141 3.092-4.79 3.177-7.624.494-16.555 6.857-70.191 67.964-46.766.994.381 2.036.595 3.086.661v-9.089c-7.888-5.808 0-12.358 0-12.358-21.444-21.444.655-42.935.655-42.935z" fill="#543e5b"/><path d="m176.203 214.572s-4.987-31.561.757-50.357c-5.212-3.474-15.281-5.17-19.809-.743-9.272 9.064-2.478 22.752.773 31.398.998 2.655 1.642 5.34 1.933 8.03.633 5.845 3.802 14.4 16.942 14.199-.199-.842-.402-1.671-.596-2.527z" fill="#fc9460"/><path d="m356.159 163.472c-4.528-4.427-14.598-2.731-19.809.743 5.744 18.796.757 50.357.757 50.357-.194.856-.397 1.685-.596 2.527 13.141.202 16.31-8.354 16.943-14.199.291-2.69.935-5.375 1.933-8.03 3.25-8.646 10.044-22.334.772-31.398z" fill="#ffaa7b"/><path d="m332.027 154.436c-1.893-2.134-2.935-4.627-3.011-7.209-.293-9.828-2.775-33.882-19.445-44.983-11.825-7.874-28.448-7.792-49.408.246-1.819.698-3.785.824-5.662.4v15.812c-1.004.936-2.911 3.088-3.135 6.104-.166 2.235.606 4.441 2.298 6.578-4.718 2.983-17.649 12.776-14.365 28.776l2.006 9.436c-2.938 3.235-6.517 10.237-2.423 17.633l-.117.541c-.299.686-1.117 2.931-.218 5.19.453 1.138 1.251 2.064 2.378 2.768-.74 1.588-1.596 4.232-.854 6.986.589 2.184 2.038 3.993 4.317 5.397-1.823 2.971-5.5 10.129-4.14 17.737.861 4.815 3.58 8.933 8.088 12.255-3.936 5.829-17.821 30.236 6.164 54.68v25.436c5.266.335 10.598-.551 15.512-2.677 18.957-8.202 34.349-21.73 44.513-39.125 10.011-17.13 17.823-37.889 23.228-61.742 2.341-14.875 4.832-48.341-5.726-60.239z" fill="#ffc7ab"/><path d="m256 318.279v-26.114c-27.394-27.393-5.561-54.425-5.561-54.425-17.615-11.575-3.898-30.17-3.898-30.17-9.18-4.328-3.547-12.5-3.547-12.5-5.206-1.933-2.799-6.826-2.799-6.826l.274-1.265c-5.543-9.21 2.467-16.916 2.467-16.916l-2.172-10.216c-3.79-18.467 15.236-28.1 15.236-28.1-7.102-7.102 0-12.358 0-12.358v-16.279c-.968-.065-1.93-.267-2.853-.621-20.96-8.035-37.584-8.118-49.407-.247-16.67 11.101-19.152 35.157-19.445 44.984-.077 2.583-1.118 5.075-3.013 7.209-10.439 11.763-8.153 46.131-5.717 60.28 5.394 23.807 13.206 44.565 23.218 61.7 10.164 17.395 25.557 30.923 44.513 39.125 4.043 1.749 8.367 2.655 12.704 2.739z" fill="#ffaa7b"/><path d="m331.889 221.169c-13.15-6.636-37.945-18.304-65.305-26.868-6.886-2.156-14.283-2.156-21.169 0-1.509.472-3.009.956-4.501 1.445-.738 1.59-1.584 4.223-.845 6.967.589 2.184 2.038 3.993 4.317 5.397-1.823 2.971-5.5 10.129-4.14 17.737.861 4.815 3.58 8.933 8.088 12.255-3.936 5.829-17.821 30.236 6.164 54.68v21.037c.5.012.999.032 1.5.032 13.599 0 26.804-4.605 37.504-13.084 16.957-13.436 36.375-37.183 42.581-71.063.637-3.467-1.047-6.946-4.194-8.535z" fill="#fc90ce"/><path d="m256 313.851v-21.686c-27.394-27.393-5.561-54.425-5.561-54.425-17.615-11.575-3.898-30.17-3.898-30.17-9.175-4.326-3.553-12.492-3.547-12.5-26.395 8.482-50.122 19.66-62.883 26.1-3.147 1.588-4.831 5.067-4.195 8.535 6.206 33.88 25.624 57.627 42.581 71.063 10.699 8.478 23.904 13.083 37.503 13.083z" fill="#f964b2"/><path d="m301.326 221.693-38.049-14.982c-4.677-1.842-9.877-1.842-14.554 0l-4.576 1.802c-1.884 3.174-5.203 10.043-3.899 17.335.861 4.815 3.58 8.933 8.088 12.255-3.936 5.829-17.821 30.236 6.164 54.68v26.402h1.5 7.66c5.492 0 10.856-1.662 15.386-4.769l25.555-17.524c5.961-4.087 9.524-10.851 9.524-18.079v-38.325c0-8.299-5.077-15.754-12.799-18.795z" fill="#d3dcfb"/><path d="m250.44 237.74c-17.614-11.574-3.899-30.169-3.899-30.169l-35.866 14.122c-7.723 3.041-12.8 10.496-12.8 18.796v38.325c0 7.228 3.563 13.991 9.524 18.079l25.555 17.523c4.53 3.106 9.894 4.769 15.387 4.769h7.659v-27.019c-27.393-27.394-5.56-54.426-5.56-54.426z" fill="#bec8f7"/><path d="m284.149 246.634-22.589-8.895c-3.574-1.407-7.548-1.407-11.121 0l-2.518.992c-4.385 6.789-16.627 30.402 6.579 54.051v30.902h1.5 5.853c4.197 0 8.296-1.27 11.757-3.644l12.34-8.461c2.671-1.831 4.267-4.862 4.267-8.1v-47.935c0-3.934-2.407-7.468-6.068-8.91z" fill="#deeeff"/><path d="m250.44 237.74-22.589 8.895c-3.661 1.442-6.068 4.976-6.068 8.91v47.934c0 3.238 1.596 6.269 4.267 8.1l12.34 8.462c3.462 2.374 7.56 3.644 11.758 3.644h5.852v-31.519c-27.393-27.394-5.56-54.426-5.56-54.426z" fill="#d3dcfb"/><path d="m256 315.116c5.04 0 9.411-2.947 11.51-7.198v-4.244c0-6.33-5.179-11.51-11.51-11.51-6.33 0-11.51 5.179-11.51 11.51v4.244c2.099 4.252 6.47 7.198 11.51 7.198z" fill="#73c3f9"/><path d="m256 313.851c-6.105 0-11.126-4.822-11.476-10.843-.013.222-.034.442-.034.667v13.643c0 6.33 5.179 11.51 11.51 11.51 6.33 0 11.51-5.179 11.51-11.51v-13.643c0-.225-.021-.445-.034-.667-.35 6.022-5.371 10.843-11.476 10.843z" fill="#49b1f7"/><path d="m291.818 99.165c1.06 5.495 5.69 9.704 11.26 10.236l40.77 3.898c2.057.29 5.235.057 8.152-1.481v-7.662c0-4.976-3.76-9.148-8.709-9.664l-21.293-2.218c-11.126-1.159-22.275-2.021-33.435-2.592 1.031 1.954 2.421 5.162 3.255 9.483z" fill="#fc90ce"/><path d="m352 121.86v-11.757c-3.718 2.297-7.946 1.711-7.946 1.711l-40.833-3.907c-4.945-.473-8.988-4.15-9.93-9.027-.765-3.959-1.971-7.021-2.991-9.104-33.43-1.803-66.966-.975-100.297 2.497l-21.293 2.218c-4.949.516-8.71 4.688-8.71 9.664v17.704c0 4.072 3.48 7.274 7.538 6.936l35.562-2.964c35.206-2.934 70.595-2.934 105.8 0l35.562 2.964c4.058.339 7.538-2.863 7.538-6.935z" fill="#f964b2"/><g><path d="m319.818 184.256c-4.923-5.553-9.674-8.761-14.077-10.395.864 2.086 1.349 4.502 1.322 7.074-.044 4.367-1.549 8.241-3.867 10.783 3.667-.824 6.534-2.017 8.301-2.934 3.578-1.856 6.278-2.593 7.882-2.886.668-.121.926-1.092.439-1.642z" fill="#deeeff"/></g><path d="m278.727 183.103c-.026 2.583.555 4.976 1.555 6.946 3.799 1.435 7.446 2.198 10.839 2.49-2.832-2.534-4.686-6.919-4.636-11.891.019-1.878.312-3.663.819-5.294-2.195 1.21-3.968 2.604-5.225 3.779-.922.862-2.069 1.797-3.281 2.728-.038.409-.067.821-.071 1.242z" fill="#deeeff"/><g><path d="m279.066 181.66c-2.618 2.03-5.629 4.067-7.536 5.319-.514.338-.315 1.257.274 1.265l.267.004c2.506.034 4.994.527 7.365 1.481.4.161.798.308 1.195.454-1.084-1.855-1.724-4.211-1.698-6.772.007-.599.058-1.181.133-1.751z" fill="#ffaa7b"/></g><g><path d="m286.489 175.822c-.617 1.606-.971 3.383-.989 5.257-.048 4.851 2.146 9.117 5.45 11.445 4.793.433 9.089-.063 12.612-.89 2.607-2.376 4.302-6.073 4.343-10.25.027-2.736-.659-5.287-1.855-7.409-8.005-3.094-14.877-.959-19.561 1.847z" fill="#876d93"/></g><g><path d="m297.567 177.932c0-2.049-.613-3.919-1.623-5.362-3.689.39-6.898 1.72-9.454 3.251-.617 1.606-.971 3.383-.989 5.257-.007.723.041 1.431.13 2.124 1.238 1.822 3.103 2.982 5.19 2.982 3.725.002 6.746-3.693 6.746-8.252z" fill="#6c5475"/></g><g><path d="m303.958 177.928c0 1.031-.836 1.867-1.867 1.867s-1.867-.836-1.867-1.867.836-1.867 1.867-1.867 1.867.836 1.867 1.867z" fill="#a98bbc"/></g><g><path d="m323.04 166.262c-.888-3.835-3.928-12.672-13.262-14.055-9.425-1.396-28.654 4.067-36.426 6.46-2.07.637-3.617 2.368-4.023 4.495l-1.17 6.133c-.099.521.406.951.904.769 5.867-2.141 32.904-11.719 41.521-9.665 6.571 1.566 10.11 4.52 11.708 6.259.303.33.849.04.748-.396z" fill="#6c5475"/></g><g><path d="m192.182 184.256c4.923-5.553 9.674-8.761 14.077-10.395-.865 2.086-1.349 4.502-1.323 7.074.044 4.367 1.549 8.241 3.867 10.783-3.667-.824-6.533-2.017-8.301-2.934-3.578-1.856-6.278-2.593-7.882-2.886-.667-.121-.925-1.092-.438-1.642z" fill="#deeeff"/></g><path d="m231.955 189.959c.953-2.047 1.502-4.477 1.476-7.089-.003-.292-.02-.577-.039-.863-1.283-.979-2.501-1.967-3.471-2.874-1.256-1.175-3.03-2.569-5.225-3.779.507 1.631.801 3.415.819 5.294.05 4.971-1.804 9.357-4.636 11.891 3.464-.298 7.191-1.086 11.076-2.58z" fill="#deeeff"/><g><path d="m232.934 181.66c2.618 2.03 5.629 4.067 7.536 5.319.514.338.315 1.257-.274 1.265l-.267.004c-2.506.034-4.994.527-7.365 1.481-.4.161-.798.308-1.195.454 1.084-1.855 1.724-4.211 1.698-6.772-.007-.599-.058-1.181-.133-1.751z" fill="#fc9460"/></g><g><path d="m225.511 175.822c.617 1.606.971 3.383.989 5.257.048 4.851-2.146 9.117-5.45 11.445-4.793.433-9.089-.063-12.612-.89-2.607-2.376-4.302-6.073-4.343-10.25-.027-2.736.659-5.287 1.855-7.409 8.004-3.094 14.877-.959 19.561 1.847z" fill="#876d93"/></g><g><path d="m214.433 177.932c0-2.049.613-3.919 1.623-5.362 3.689.39 6.898 1.72 9.454 3.251.617 1.606.971 3.383.989 5.257.007.723-.041 1.431-.13 2.124-1.238 1.822-3.103 2.982-5.19 2.982-3.725.002-6.746-3.693-6.746-8.252z" fill="#6c5475"/></g><g><path d="m208.042 177.928c0 1.031.836 1.867 1.867 1.867s1.867-.836 1.867-1.867-.836-1.867-1.867-1.867-1.867.836-1.867 1.867z" fill="#a98bbc"/></g><g><path d="m188.96 166.262c.888-3.835 3.928-12.672 13.262-14.055 9.425-1.396 28.654 4.067 36.426 6.46 2.07.637 3.617 2.368 4.023 4.495l1.17 6.133c.099.521-.406.951-.904.769-5.867-2.141-32.904-11.719-41.521-9.665-6.571 1.566-10.11 4.52-11.707 6.259-.304.33-.85.04-.749-.396z" fill="#6c5475"/></g><path d="m256 82.314c-.746 0-1.483.039-2.212.104-1.22 1.39-2.874 3.81-2.791 6.678.068 2.344 1.246 4.463 3.503 6.311v23.294c-1.004.936-2.911 3.088-3.135 6.104-.166 2.235.606 4.441 2.298 6.578-.107.068-.224.143-.339.218.879.095 1.772.147 2.676.147 13.651 0 24.717-11.066 24.717-24.717 0-13.65-11.066-24.717-24.717-24.717z" fill="#deeeff"/><path d="m256 82.314c-13.651 0-24.717 11.066-24.717 24.717s11.066 24.717 24.717 24.717c-7.102-7.102 0-12.358 0-12.358v-24.717c-7.888-5.808 0-12.359 0-12.359z" fill="#d3dcfb"/><ellipse cx="256" cy="107.031" fill="#bec8f7" rx="12.358" ry="12.358" transform="matrix(.961 -.276 .276 .961 -19.588 74.736)"/><path d="m388.856 61.122c-49.696 40.622 29.344 79.049-7.968 171.917-27.53 68.521 62.028 91.308 111.495 98.576 5.617-20.585 8.619-42.25 8.619-64.617 0-86.34-44.666-162.24-112.146-205.876z" fill="#73c3f9"/><path d="m39.422 152.387c31.885-6.845 57.887 14.238 86.306-9.277 24.458-20.237 14.312-56.492.88-84.178-36.676 22.857-66.864 55.135-87.186 93.455z" fill="#73c3f9"/><g><path d="m327.963 230.611c-1.176-.302-2.36-.484-3.545-.553-3.975-.233-7.797 1.783-9.945 5.136-3.648 5.695-6.776 12.898-8.853 20.989-.194.754-.364 1.503-.535 2.252.917 1.504 2.628 3.617 5.516 4.866 3.831 1.657 8.499 1.302 13.876-1.061 1.839-.808 3.455-.759 4.938.146 3.747 2.283 6.209 9.438 7.726 16.525 2.746-3.664 4.908-8.089 6.182-13.051 4.163-16.222-2.714-32.003-15.36-35.249z" fill="#bec8f7"/><path d="m303.245 278.441c.262 4.369 2.896 8.256 6.917 9.984.874.376 1.783.687 2.723.928 9.347 2.399 19.226-2.727 25.428-12.112-2.241-9.755-6.515-19.854-14.439-16.374-14.364 6.308-18.253-4.685-18.253-4.685-2.037 7.933-2.776 15.603-2.376 22.259z" fill="#a8b7ef"/><ellipse cx="333.598" cy="263.364" fill="#d3dcfb" rx="23.64" ry="10.04" transform="matrix(.249 -.969 .969 .249 -4.432 521.014)"/></g><g><path d="m184.037 230.611c1.176-.302 2.36-.484 3.545-.553 3.975-.233 7.797 1.783 9.945 5.136 3.648 5.695 6.776 12.898 8.853 20.989.193.754.364 1.503.535 2.252-.917 1.504-2.628 3.617-5.516 4.866-3.831 1.657-8.499 1.302-13.876-1.061-1.839-.808-3.455-.759-4.938.146-3.747 2.283-6.21 9.438-7.726 16.525-2.746-3.664-4.908-8.089-6.182-13.051-4.163-16.222 2.714-32.003 15.36-35.249z" fill="#bec8f7"/><path d="m208.755 278.441c-.262 4.369-2.896 8.256-6.917 9.984-.874.376-1.783.687-2.723.928-9.347 2.399-19.226-2.727-25.428-12.112 2.241-9.755 6.515-19.854 14.439-16.374 14.364 6.308 18.253-4.685 18.253-4.685 2.037 7.933 2.776 15.603 2.376 22.259z" fill="#a8b7ef"/><ellipse cx="178.402" cy="263.364" fill="#d3dcfb" rx="10.04" ry="23.64" transform="matrix(.969 -.249 .249 .969 -59.873 52.621)"/></g></g></svg>