<svg id="Layer_1" enable-background="new 0 0 512 512" height="512" viewBox="0 0 512 512" width="512" xmlns="http://www.w3.org/2000/svg"><g><path d="m469.226 387.698c20.216-35.627 31.776-76.809 31.776-120.7 0-135.311-109.691-245.002-245.002-245.002s-245.002 109.691-245.002 245.002c0 43.891 11.561 85.073 31.777 120.7z" fill="#50dd89"/><path d="m399.695 331.539c-6.642-.543-10.175-3.119-18.002-7.533-15.99-9.016-32.201-16.114-49.541-21.161-.251.704-.514 1.41-.789 2.117-10.604 27.249-37.211 44.906-66.45 44.906h-18.109c-12.855 0-25.21-3.41-35.919-9.546-1.323 3.755-2.129 5.983-2.156 6.057-.013.031-1.428 3.188-10.786 6.278-1.982.654-7.244 2.392-38.268 76.616-1.694 4.053-3.374 8.106-5.023 12.11h273.421c16.065-15.856 29.951-33.914 41.167-53.686-9.528-27.307-29.275-52.866-69.545-56.158z" fill="#ffaa7b"/><path d="m198.413 354.082c10.551-3.483 11.725-7.187 11.725-7.187s.78-2.15 2.08-5.838c-14.293-7.792-25.809-20.364-31.897-36.18-.252-.654-.493-1.308-.725-1.96-17.245 5.043-33.376 12.117-49.29 21.09-7.827 4.413-11.36 6.99-18.001 7.533-40.271 3.292-60.017 28.851-69.547 56.159 11.216 19.772 25.102 37.83 41.167 53.685h72.35c16.534-40.122 36.309-85.378 42.138-87.302z" fill="#fc9460"/><path d="m256 450.354c-32.383 0-59.552 22.286-67.031 52.355 21.304 6.048 43.788 9.291 67.031 9.291s45.727-3.243 67.031-9.291c-7.479-30.069-34.648-52.355-67.031-52.355z" fill="#543e5b"/><path d="m241.383 377.641c-17.287-5.427-32.048-13.869-44.116-24.562-3.38-.114-69.154-1.556-69.154 58.877v64.035c19.079 11.701 39.879 20.868 61.94 27.019 15.28-10.863 31.926-16.294 44.706-18.932 12.473-2.574 21.367-13.64 21.367-26.375v-60.066c-.001-9.177-5.989-17.247-14.743-19.996z" fill="#6c5475"/><path d="m168.674 313.483c-3.611-8.36-13.209-12.347-21.679-9.002-34.604 13.666-57.649 24.744-71.529 32.045-.094.049-.188.099-.281.15-6.652 3.587-9.271 11.77-5.953 18.56 7.325 14.992 15.142 38.405 13.599 68.291-.313 6.058.076 12.04 1.097 17.859 13.599 13.42 28.76 25.259 45.184 35.223 0-13.488 0-34.1 0-63.651 0-62.026 69.3-58.871 69.3-58.871l.001-.002c-13.044-11.25-23.034-25.082-29.739-40.602z" fill="#543e5b"/><path d="m325.031 411.981c0-35.333 50.081-43.333 50.081-43.333l22.632-50.578c-9.516-4.165-20.387-8.711-32.74-13.589-8.47-3.345-18.068.642-21.679 9.002-12.797 29.622-37.538 53.117-72.708 64.159-8.754 2.749-14.742 10.819-14.742 19.995v60.073c0 12.732 8.892 23.794 21.361 26.367 12.781 2.637 29.43 8.068 44.712 18.933 1.031-.288 2.058-.586 3.083-.887 0-22.088 0-64.784 0-90.142z" fill="#876d93"/><path d="m428.072 441.384c1.022-5.819 1.41-11.801 1.097-17.859-1.543-29.886 6.274-53.299 13.599-68.291 3.318-6.79.699-14.973-5.953-18.56-.093-.05-.187-.1-.281-.15-9.277-4.88-22.656-11.449-40.837-19.349l-22.585 50.471s-50.081 8-50.081 43.333v91.717c40.169-11.4 76.132-32.785 105.041-61.312z" fill="#a98bbc"/><g><path d="m388.554 341.28c-4.575-5.455-9.595-8.045-7.968-17.275 2.112-11.979 9.377-18.573 14.889-21.943 1.178 1.144 2.316 2.421 3.398 3.854 1.433 1.898 3.52 3.195 5.871 3.556 5.47.839 15.828 3.839 22.737 14.545 2.223 3.445 1.807 7.971-1.09 10.872-5.782 5.789-16.851 15.815-30.058 22.649.026-.398.061-.793.061-1.198 0-6.221-3.106-11.72-7.84-15.06z" fill="#ff4155"/><path d="m355.211 292.434c2.127 1.691 4.923 2.272 7.583 1.719 7.249-1.506 22.061-2.761 33.068 8.296-5.425 3.477-12.24 10.015-14.276 21.556-1.865 10.576 4.999 12.433 9.919 19.875-3.371-3.661-8.187-5.973-13.544-5.973-6.113 0-11.524 3.004-14.88 7.599-8.369-9.126-21.293-22.489-35.024-33.961 3.968-8.931 5.908-17.765 6.637-26.237 6.753.014 13.89 1.856 20.517 7.126z" fill="#e80054"/></g><path d="m123.339 341.281c4.575-5.455 9.595-8.045 7.968-17.275-2.112-11.979-9.377-18.573-14.889-21.943-1.178 1.144-2.316 2.421-3.398 3.854-1.433 1.898-3.52 3.195-5.871 3.556-5.47.839-15.828 3.839-22.737 14.545-2.223 3.445-1.807 7.971 1.091 10.872 5.782 5.789 16.851 15.815 30.058 22.649-.026-.398-.06-.793-.06-1.198-.001-6.221 3.105-11.721 7.838-15.06z" fill="#ff4155"/><path d="m156.683 292.434c-2.127 1.691-4.923 2.272-7.583 1.719-7.249-1.506-22.061-2.761-33.068 8.296 5.425 3.477 12.241 10.015 14.276 21.556 1.865 10.576-4.999 12.433-9.919 19.875 3.371-3.661 8.187-5.973 13.544-5.973 6.113 0 11.524 3.004 14.88 7.599 8.369-9.126 21.293-22.489 35.024-33.961-3.968-8.931-5.908-17.765-6.637-26.237-6.753.015-13.89 1.856-20.517 7.126z" fill="#e80054"/><path d="m306.263 53.275 34.854-7.443c-12.912-20.367-33.753-35.775-58.407-42.345 8.438 11.572 16.357 28.469 23.553 49.788z" fill="#ffc839"/><path d="m229.29 3.488c-24.653 6.569-45.495 21.977-58.407 42.345l34.854 7.443c7.196-21.32 15.115-38.217 23.553-49.788z" fill="#ff9433"/><path d="m226.666 4.218c-7.894 11.874-15.311 28.393-22.082 48.811l47.082 10.054c2.856.61 5.81.61 8.666 0l47.082-10.054c-6.771-20.417-14.188-36.937-22.082-48.811-9.278-2.739-19.131-4.218-29.332-4.218s-20.054 1.479-29.334 4.218z" fill="#ffb332"/><path d="m335.414 130.852c-.921-2.403-2.082-4.836-3.545-7.131-2.477-3.887-3.568-8.485-3.235-13.069.955-13.186.443-38.974-16.866-46.762-14.705-6.617-32.744-2.786-44.248 1.039-7.471 2.485-15.568 2.485-23.039 0-11.504-3.825-29.542-7.656-44.248-1.039-2.924 1.316-5.359 3.154-7.398 5.35l43.573 55.553-.774 12.904c-3.376 1.148-8.327 4.436-8.327 10.784 0 7.041-3.589 11.221-3.621 11.258l-.084.104c-.128.172-12.622 17.412.072 35.381 10.896 15.426 8.412 24.612 8.1 25.59-.514.863-2.691 4.887-1.585 9.387.784 3.188 2.997 5.831 6.577 7.855.807.457 3.855 4.493-5.861 39.72 7.779 3.721 16.35 5.694 25.096 5.694 12.909 0 25.442-4.284 35.599-12.171 19.458-15.11 42.333-44.237 42.333-87.089l4.092-29.801c1.089-7.946.262-16.06-2.611-23.557z" fill="#ffc7ab"/><path d="m237.503 236.748c-10.442-5.9-4.37-15.286-4.37-15.286s3.979-9.814-8.236-27.105c-12.215-17.29-.093-33.623-.093-33.623s4.001-4.495 4.001-12.255c0-7.759 8.26-9.635 8.26-9.635l.872-14.531-44.04-56.149c-11.116 10.558-11.354 31.292-10.524 42.599.334 4.549-.785 9.1-3.244 12.957-1.417 2.223-2.551 4.576-3.458 6.906-2.941 7.555-3.798 15.75-2.697 23.773l4.093 29.807c0 42.852 22.875 71.979 42.333 87.089 3.68 2.858 7.675 5.235 11.884 7.114 5.812-21.006 9.419-39.288 5.219-41.661z" fill="#ffaa7b"/><path d="m333.717 223.218c9.821-20.848 1.534-48.624 1.534-48.624h-1.534c-9.336 0-17.035 7.252-17.656 16.567-.967 14.514-4.037 34.705-13.377 44.045-10.97 10.97-25.996 3.476-33.79-1.796-3.804-2.572-8.286-3.937-12.878-3.937h-.016-.01c-4.596 0-9.083 1.367-12.89 3.941-2.157 1.458-4.867 3.085-7.891 4.444-1.895 6.502-6.412 29.336 16.693 46.941 10.985 8.368 6.118 19.11-.043 32.711-5.974 13.186-13.178 29.117-3.71 45.033 16.935 1.465 34.954-1.945 45.78-9.674 70.783-50.54 30.817-110.605 39.788-129.651z" fill="#ad5c38"/><path d="m253.016 283.336c-26.209-19.968-15.568-46.451-15.513-46.588-8.177 4.227-19.463 7.182-28.188-1.542-9.34-9.34-12.41-29.531-13.377-44.045-.621-9.315-9.854-16.567-19.19-16.567 0 0-8.286 27.777 1.534 48.624 8.972 19.046-31.413 79.702 39.789 129.65 8.402 5.894 20.183 9.099 32.329 9.837-19.886-30.604 27.072-60.736 2.616-79.369z" fill="#9b4d2f"/><path d="m256 195.28v6.064c0 7.263 5.05 15.634 12.142 17.199l3.831.846c15.829 3.494 28.856 14.683 34.7 29.802 1.733 4.483 8.398 3.154 8.281-1.65l-.327-15.403c-.397-16.185-11.736-34.201-27.525-37.782l-21.45-6.302c-4.822-1.415-9.652 2.2-9.652 7.226z" fill="#bc6746"/><path d="m220.744 211.631c1.487 4.538 4.816 8.132 9.908 10.704-.027.066-.055.145-.083.214 3.008-1.357 6.168-2.434 9.457-3.16l3.832-.846c7.092-1.566 12.142-9.937 12.142-17.199v-6.064c0-5.026-4.83-8.641-9.652-7.224l-21.45 6.302c-.818.186-1.62.419-2.413.679-1.419 3.031-3.944 9.866-1.741 16.594z" fill="#9b4d2f"/><path d="m197.373 232.139-.327 15.403c-.118 4.804 6.548 6.132 8.281 1.65 4.967-12.852 15.134-22.843 27.79-27.703.01-.017.016-.027.016-.027-19.354-8.279-8.236-27.105-8.236-27.105-15.788 3.581-27.127 21.597-27.524 37.782z" fill="#894029"/><path d="m277.141 220.735-8.195-3.232c-.922-.363-1.94-.405-2.889-.119l-9.445 2.848-9.444-2.848c-.949-.286-1.967-.244-2.888.119l-8.195 3.232c-2.264.893-3.376 3.452-2.483 5.716.89 2.257 3.445 3.378 5.716 2.483l6.772-2.67 9.211 2.777c.892.279 1.823.259 2.628-.001l9.209-2.777 6.772 2.67c2.26.889 4.82-.213 5.716-2.483.891-2.263-.221-4.822-2.485-5.715z" fill="#fc9460"/><path d="m283.033 152.154c0-1.408.264-2.747.734-3.965-1.83.898-3.307 1.915-4.36 2.774-2.454 2.002-6.723 4.541-9.059 5.883-.442.254-.261.928.248.928h.231c2.168 0 4.325.338 6.384 1.016 3.572 1.176 6.99 1.762 10.151 1.955-2.597-1.78-4.329-4.96-4.329-8.591z" fill="#edeef2"/><path d="m312.099 154.356c-4.268-4.004-8.37-6.314-12.164-7.484.853 1.537 1.347 3.345 1.347 5.281 0 3.165-1.317 5.987-3.374 7.839 3.106-.642 5.531-1.534 7.032-2.218 3.08-1.402 5.409-1.973 6.794-2.204.576-.096.792-.814.365-1.214z" fill="#edeef2"/><path d="m283.194 148.48c-.52 1.189-.811 2.501-.811 3.882 0 3.573 1.935 6.692 4.812 8.373 4.15.271 7.862-.137 10.904-.782 2.235-1.776 3.67-4.515 3.67-7.591 0-2.015-.616-3.887-1.668-5.437-6.952-2.199-12.879-.558-16.907 1.555z" fill="#ff4155"/><path d="m295.691 152.97c0 2.052-1.663 3.715-3.715 3.715s-3.715-1.663-3.715-3.715 1.663-3.715 3.715-3.715c2.052.001 3.715 1.664 3.715 3.715z" fill="#cc0053"/><path d="m320.31 140.597c-.555-3.65-2.767-12.133-11.397-14.094-8.714-1.981-27.09 1.753-34.529 3.435-1.982.448-3.553 1.956-4.084 3.917l-1.533 5.652c-.13.48.312.918.791.784 5.64-1.582 31.611-8.605 39.523-6.068 6.033 1.935 9.132 4.951 10.501 6.691.26.33.791.099.728-.317z" fill="#ad5c38"/><path d="m228.967 152.154c0-1.408-.263-2.747-.734-3.965 1.83.898 3.307 1.915 4.36 2.774 2.454 2.002 6.723 4.541 9.059 5.883.442.254.261.928-.248.928h-.231c-2.168 0-4.325.338-6.385 1.016-3.572 1.176-6.99 1.762-10.151 1.955 2.598-1.78 4.33-4.96 4.33-8.591z" fill="#edeef2"/><path d="m199.901 154.356c4.268-4.004 8.37-6.314 12.164-7.484-.853 1.537-1.347 3.345-1.347 5.281 0 3.165 1.316 5.987 3.374 7.839-3.106-.642-5.531-1.534-7.032-2.218-3.08-1.402-5.409-1.973-6.794-2.204-.576-.096-.791-.814-.365-1.214z" fill="#edeef2"/><path d="m228.806 148.48c.52 1.189.811 2.501.811 3.882 0 3.573-1.935 6.692-4.812 8.373-4.15.271-7.862-.137-10.904-.782-2.235-1.776-3.67-4.515-3.67-7.591 0-2.015.615-3.887 1.668-5.437 6.952-2.199 12.879-.558 16.907 1.555z" fill="#ff4155"/><path d="m216.309 152.97c0 2.052 1.663 3.715 3.715 3.715s3.715-1.663 3.715-3.715-1.663-3.715-3.715-3.715c-2.052.001-3.715 1.664-3.715 3.715z" fill="#cc0053"/><path d="m191.69 140.597c.556-3.65 2.766-12.133 11.397-14.094 8.714-1.981 27.089 1.753 34.529 3.435 1.982.448 3.553 1.956 4.084 3.917l1.533 5.652c.13.48-.312.918-.79.784-5.64-1.582-31.611-8.605-39.523-6.068-6.033 1.935-9.132 4.951-10.501 6.691-.261.33-.792.099-.729-.317z" fill="#9b4d2f"/><path d="m354.853 82.922c-3.414-15.511-6.499-25.653-6.499-25.653l-64.408 21.988c-9.686 3.307-19.812 4.828-29.908 4.598v126.735c2.588.595 5.39.005 7.546-1.787l11.795-9.798c3.08-2.558 3.995-6.871 2.292-10.495-11.573-24.643-9.237-40.993-3.429-51.434 5.604-10.073 13.487-16.137 24.981-16.193 7.53-.037 14.35 2.522 19.78 6.771z" fill="#ffdd40"/><path d="m228.054 79.257-64.408-21.988s-3.084 10.142-6.499 25.653l37.77 44.637c5.418-4.166 12.213-6.676 19.699-6.676 11.581 0 19.512 6.074 25.142 16.194 5.808 10.441 8.145 26.791-3.429 51.434-1.702 3.624-.788 7.937 2.292 10.495l11.795 9.798c1.619 1.344 3.601 2.017 5.584 2.017v-126.925c-9.444 0-18.887-1.546-27.946-4.639z" fill="#ffc839"/><path d="m378.574 35.871-7.457 1.593-99.836 41.733c-9.455 3.952-21.106 3.952-30.561 0l-99.836-41.733-7.457-1.593c-2.55-.544-3.881 2.917-1.623 4.221l109.984 63.525c8.795 5.08 19.632 5.08 28.426 0l109.984-63.525c2.257-1.305.926-4.766-1.624-4.221z" fill="#ffb332"/><path d="m308.803 51.197.698-.576-49.168 10.5c-2.856.61-5.81.61-8.666 0l-118.241-25.25c-.458-.098-.875-.062-1.24.062l108.534 45.369c9.455 3.952 21.106 3.952 30.561 0l42.042-17.574c-10.467-3.769-4.52-12.531-4.52-12.531z" fill="#ffdd40"/><path d="m378.574 35.871-71.771 15.326s-6.13 9.017 4.965 12.692c.21.07.444.136.689.2l67.358-28.156c-.366-.125-.783-.16-1.241-.062z" fill="#fee884"/><path d="m256 59.015c-2.893 0-5.648.733-8.155 2.059-.232 1.509-.37 4.173.969 6.402 1.027 1.711 2.68 2.819 4.913 3.293 2.533.539 3.468 12.648.871 29.89-.82.801-2.42 2.679-2.574 5.265-.111 1.843.526 3.638 1.869 5.356.693.087 1.396.132 2.107.132 11.57 0 20.949-11.729 20.949-26.199s-9.379-26.198-20.949-26.198z" fill="#73c3f9"/><path d="m195.957 126.788-38.458-45.45c-4.315 19.278-9.319 47.535-9.319 74.937 0 31.44 10.792 58.034 18.288 72.715 2.285 4.476 8.926 3.571 9.936-1.352 3.25-15.844 8.08-41.269 8.08-52.452 0-4.324-.722-10.003-1.796-16.058-2.309-13.025 3.393-25.356 13.269-32.34z" fill="#ffb332"/><path d="m315.969 126.876c9.87 7.107 15.548 19.644 13.262 32.715-1.028 5.881-1.714 11.381-1.714 15.594 0 11.183 4.829 36.608 8.079 52.452 1.01 4.923 7.651 5.829 9.936 1.352 7.497-14.681 18.288-41.275 18.288-72.715 0-27.402-5.004-55.659-9.319-74.937z" fill="#fee884"/><circle cx="378.068" cy="356.34" fill="#ffc839" r="19.932"/><ellipse cx="382.568" cy="352.908" fill="#ffdd40" rx="9.966" ry="9.966" transform="matrix(.707 -.707 .707 .707 -137.492 373.881)"/><circle cx="133.932" cy="356.34" fill="#ffc839" r="19.932"/><ellipse cx="138.432" cy="352.908" fill="#ffdd40" rx="9.966" ry="9.966" transform="matrix(.23 -.973 .973 .23 -236.841 406.556)"/><path d="m254.038 69.303c-6.688-1.421-4.507-9.008-4.507-9.008-8.403 3.41-14.479 13.274-14.479 24.919 0 14.469 9.379 26.199 20.949 26.199-5.601-5.601 0-10 0-10s4.725-30.69-1.963-32.11z" fill="#49b1f7"/><ellipse cx="256" cy="85.214" fill="#9bd8f9" rx="10.949" ry="16.198"/><g fill="#70f2a4"><path d="m398.778 67.89c-37.723 22.861 7.874 81.193-.241 116.828-6.153 27.022-37.549 69.205 13.586 94.693 36.03 17.96 61.17 44.229 76.575 64.388 7.976-24.156 12.303-49.97 12.303-76.801.001-82.034-40.323-154.642-102.223-199.108z"/><path d="m99.877 279.411c51.135-25.489 19.74-67.671 13.586-94.693-8.115-35.635 37.483-93.967-.241-116.828-61.9 44.467-102.224 117.075-102.224 199.108 0 26.83 4.327 52.645 12.303 76.801 15.406-20.159 40.546-46.428 76.576-64.388z"/></g></g></svg>