<svg id="Layer_1" enable-background="new 0 0 512 512" height="512" viewBox="0 0 512 512" width="512" xmlns="http://www.w3.org/2000/svg"><g><path d="m18.757 339.172h468.38c7.024-22.817 10.812-47.053 10.812-72.174 0-135.311-109.691-245.002-245.002-245.002s-245.002 109.691-245.002 245.002c0 25.122 3.788 49.357 10.812 72.174z" fill="#49b1f7"/><path d="m422.371 182.787c-7.035-5.478-17.065-4.491-22.838 2.246-7.012 8.183-16.42 21.447-21.42 38.174-2.169 7.257.818 15.08 7.267 19.022l7.683 4.7c8.441-28.398 20.046-47.667 32.86-61.376z" fill="#d3dcfb"/><path d="m434.369 171.94-19.009-21.99c-.699-.809-1.153-1.746-1.379-2.72-25.016 20.867-49.3 52.052-59.226 98.701 2.227 1.185 4.411 2.503 6.534 3.991 6.539 4.578 7.338 10.829 7.938 12.117.299-.195 5.811-8.31 14.349-4.685 2.347.995 4.239 2.737 5.437 4.966 1.377-5.966 2.879-11.582 4.492-16.879l-7.343-4.491c-5.881-3.597-8.586-10.708-6.611-17.313 4.875-16.31 13.988-29.303 21.121-37.627 5.25-6.126 14.412-6.996 20.778-2.039l3.455 2.69c4.371-4.802 8.889-8.95 13.477-12.569-1.508-.193-2.951-.923-4.013-2.152z" fill="#bec8f7"/><path d="m153.457 159.442c-.054-2.454-2.023-4.377-4.505-4.377-2.137 0-3.686-2.023-3.135-4.074 2.011-7.503 5.861-23.27 10.78-49.999-1.921-.495-3.931-.736-5.986-.686-12.971.313-22.792 11.471-21.679 24.195.355 4.055 1.776 7.76 3.962 10.863 2.826 4.011 3.704 8.997 2.392 13.725-.622 2.24-.832 4.637-.548 7.1 1.101 9.555 9.558 16.847 19.17 16.508.159-.006.312-.032.469-.041-.651-5.813-.861-10.438-.92-13.214z" fill="#dba783"/><path d="m154.247 112.986c-7.421 0-13.438 6.016-13.438 13.438 0 5.504 3.313 10.229 8.05 12.306 1.518-6.522 3.363-15.014 5.462-25.739-.025-.002-.049-.005-.074-.005z" fill="#c99673"/><path d="m355.283 100.305c-2.064-.05-4.083.194-6.012.694 4.878 26.715 8.75 42.481 10.779 49.985.556 2.057-.996 4.081-3.132 4.081-2.422 0-4.434 1.965-4.484 4.379-.06 2.78-.271 7.403-.921 13.211.159.009.312.036.472.041 9.613.339 18.069-6.953 19.17-16.508.284-2.463.074-4.861-.548-7.1-1.312-4.728-.434-9.714 2.392-13.725 2.187-3.104 3.608-6.808 3.962-10.863 1.115-12.724-8.707-23.882-21.678-24.195z" fill="#e9ba9a"/><path d="m353.247 112.986c-.575 0-1.137.048-1.693.118 2.14 10.98 4.025 19.613 5.568 26.184 5.531-1.664 9.562-6.791 9.562-12.864 0-7.422-6.016-13.438-13.437-13.438z" fill="#dba783"/><path d="m338.948 240.247-.074-.194c-2.493-.827-4.845-1.386-6.748-1.757-1.273-.249-1.864-1.727-1.115-2.786.594-.841 1.17-1.69 1.734-2.543-.853.428-1.659.831-2.401 1.2-6.523 3.237-12.113 3.846-16.617 1.813-6.038-2.727-8.415-9.492-8.83-10.82l2.827-33.964-1.52-.103c-8.157-.555-14.547-7.389-14.547-15.56 0-4.394 1.868-8.611 5.127-11.569 3.291-2.99 7.553-4.403 12.011-3.97l1.514.145 5.76-69.208c2.771-1.607 11-8.017 7.718-26.218-.727-4.027-.074-6.871 1.993-8.692 2.248-1.979 6.018-2.565 9.944-2.476-4.513-7.025-9.833-12.876-15.515-17.398-12.316-9.802-9.176-20.356-6.105-25.893 1.053-1.9-.278-4.26-2.446-4.393-17.456-1.072-31.484 4.114-40.047 8.543-3.129 1.618-6.695.369-8.361-2.313l-.092.147c-2.234 1.441-15.377 10.356-16.67 21.472-.572 4.919 1.241 9.516 5.39 13.664 9.771 9.772 4.969 16.284-.115 23.178-2.422 3.283-4.721 6.399-5.092 9.743-4.629 2.552-26.964 16.691-15.841 46.384l-.394 17.441c-1.07 2.447-1.732 7.108 2.478 9.566l18.143 36.507c-2.792 2.438-10.232 10.421-10.231 26.221l-.357 11.053c-.001 1.351.193 32.955 19.558 47.775.074 3.808-.348 22.924-15.525 33.128-1.034.695-2.467 1.621-4.245 2.745h38.87c4.122 0 8.092-1.559 11.113-4.364l11.633-10.803c1.573-1.461 3.496-2.529 5.559-3.091 13.035-3.544 43.353-13.717 43.353-31.576-.005-8.953-3.908-16.211-11.837-21.034z" fill="#6c5475"/><path d="m348.221 86.412c-2.29-13.435-7.187-25.014-13.522-34.387-7.304.06-14.247 2.657-12.389 12.957 3.667 20.334-7.667 25-7.667 25l-5.703 68.52c-10.196-.984-18.782 7.035-18.782 17.031 0 9.057 7.041 16.452 15.945 17.056l-2.724 32.725s5.583 21.14 27.632 10.195c20.404-28.863 22.699-65.554 22.924-76.033.035-1.62 1.363-2.912 2.984-2.912 3.12 0 5.395-2.96 4.581-5.973-2.44-9.015-7.268-28.909-13.279-64.179z" fill="#876d93"/><path d="m261.497 274.472c-19.562-14.343-19.531-47.003-19.531-47.003l.356-11.005c0-18.518 10.613-25.857 10.613-25.857l-18.892-38.011c-4.891-2.468-2.118-8.129-2.118-8.129l.407-18.044c-12.226-32.142 15.783-45.193 15.783-45.193 0-9.585 20.882-18.853 4.82-34.915s11.311-32.991 11.311-32.991c-1.176-1.129-1.943-2.714-1.953-4.561l-.031-5.794c-.011-2.106-2.135-3.53-4.094-2.756-5.938 2.347-17.278 7.83-26.556 18.215-2.781 3.113-7.923 1.647-8.622-2.468l-.464-2.729c-.32-1.885-2.304-2.994-4.071-2.264-12.082 4.994-52.108 25.124-60.784 75.444-6.082 35.277-10.887 55.178-13.302 64.19-.807 3.01 1.468 5.962 4.583 5.962h.021c1.622 0 2.949 1.288 2.984 2.91.224 10.445 2.503 46.95 22.738 75.775.746 1.063.134 2.56-1.147 2.777-2.193.372-4.313.987-6.348 1.787l-.255.435c-7.592 4.54-11.832 11.768-11.832 21.033 0 17.859 30.317 28.032 43.353 31.576 2.062.562 3.985 1.63 5.559 3.091l11.633 10.803c3.021 2.805 6.991 4.364 11.113 4.364h16.271c.893-.575 1.67-1.082 2.292-1.5 17.776-11.949 16.163-35.142 16.163-35.142z" fill="#543e5b"/><path d="m97.102 440.579c-6.049.104-12.241-.394-18.41-1.375 6.34 6.416 13.034 12.479 20.046 18.167-.612-5.567-1.17-11.189-1.636-16.792z" fill="#fee884"/><path d="m54.79 411.081c7.633 10.479 16.067 20.338 25.23 29.468 5.765.799 11.533 1.169 17.165 1.006-.576-6.794-1.026-13.559-1.302-20.146-15.68-.926-29.442-5.011-41.093-10.328z" fill="#ffdd40"/><path d="m48.614 300.281c-14.903 13.143-24.135 26.758-29.857 38.891 7.141 23.198 17.629 44.929 30.909 64.624 9.049-4.591 13.523-14.332 13.763-14.869.043-.082 7.186-14.376 25.325-51.453 12.259-25.055 2.876-46.866-5.052-58.927-10.789 4.101-22.746 10.85-35.088 21.734z" fill="#fcf2c8"/><path d="m128.184 284.152c-3.4-2.429-4.02-7.163-1.508-10.386-7.003-1.323-23.609-2.926-44.343 5.316 7.789 11.654 17.179 32.989 5.073 57.732-18.347 37.5-25.347 51.5-25.347 51.5s-4.38 9.778-13.231 14.209c2.414 3.629 4.915 7.195 7.514 10.684 11.842 5.081 25.739 8.819 41.506 9.338-1.302-32.883 1.823-61.144 15.432-66.081 35.333-12.817 48.867-29.155 48.867-29.155-8.094-22.134-24.534-36.42-33.963-43.157z" fill="#fee884"/><path d="m408.791 440.579c-.466 5.603-1.023 11.224-1.637 16.792 7.013-5.688 13.706-11.751 20.047-18.167-6.168.981-12.361 1.479-18.41 1.375z" fill="#fee884"/><path d="m408.709 441.555c5.632.164 11.4-.206 17.165-1.006 9.163-9.13 17.596-18.989 25.229-29.468-11.65 5.318-25.413 9.402-41.092 10.328-.276 6.587-.726 13.351-1.302 20.146z" fill="#ffdd40"/><path d="m457.28 300.281c-12.342-10.884-24.299-17.633-35.088-21.735-7.928 12.062-17.311 33.872-5.052 58.927 18.14 37.077 25.282 51.371 25.325 51.453.24.537 4.714 10.278 13.763 14.869 13.28-19.695 23.767-41.426 30.909-64.624-5.722-12.131-14.954-25.747-29.857-38.89z" fill="#fcf2c8"/><path d="m449.552 413.208c2.599-3.489 5.099-7.055 7.514-10.684-8.852-4.431-13.231-14.209-13.231-14.209s-7-14-25.347-51.5c-12.106-24.743-2.716-46.078 5.073-57.732-20.733-8.242-37.34-6.639-44.343-5.316 2.512 3.223 1.891 7.956-1.508 10.386-9.429 6.737-25.869 21.023-33.963 43.157 0 0 13.534 16.338 48.867 29.155 13.61 4.937 16.734 33.198 15.432 66.081 15.767-.519 29.664-4.257 41.506-9.338z" fill="#fee884"/><path d="m323.842 476.135c-7.937-8.618-19.118-13.52-30.833-13.52-8.617 0-29.711 0-51.243 0 .571.727 1.154 1.455 1.76 2.181-1.645 3.082-6.831 13.42-9.688 26.303-1.585 7.144-2.146 13.835-1.728 20.01 6.871.579 13.817.891 20.838.891 32.476 0 63.469-6.334 91.831-17.81-3.579-.928-6.927-2.846-9.583-5.729z" fill="#ffdd40"/><path d="m243.682 462.615c-17.551 0-35.632 0-47.687 0-11.716 0-22.896 4.902-30.833 13.52l-11.354 12.327c-.6.651-1.245 1.238-1.911 1.792 25.235 11.44 52.754 18.724 81.683 20.987-1.603-23.191 11.755-46.625 11.755-46.625-.569-.667-1.115-1.334-1.653-2.001z" fill="#ffc839"/><path d="m395.614 355.465c-35.333-12.817-48.867-29.155-48.867-29.155h-1.051c-.687.974-1.572 1.804-2.606 2.427l-41.038 24.728c-1.88 4.531-6.302 7.483-11.207 7.483-12.131 0-32.43 0-49.394 0 .601.708 1.233 1.415 1.906 2.122-2.599 3.52-10.735 15.411-15.22 31.868-4.824 17.703-6.03 44.068 15.242 69.677h49.629c11.716 0 22.896 4.902 30.833 13.52l11.354 12.327c1.97 2.139 4.322 3.748 6.865 4.819 24.216-9.46 46.558-22.659 66.315-38.892 4.882-45.506 5.534-94.288-12.761-100.924z" fill="#ffc839"/><path d="m243.447 360.948c-12.4 0-23.305 0-28.398 0-4.905 0-9.327-2.953-11.207-7.483l-41.038-24.728c-1.034-.623-1.919-1.453-2.606-2.427h-1.051s-13.533 16.338-48.867 29.155c-18.295 6.637-17.644 55.419-12.762 100.924 16.876 13.866 35.64 25.514 55.845 34.514.146-.149.301-.286.443-.44l11.354-12.327c7.937-8.618 19.118-13.52 30.833-13.52h49.34c-42-49.2 0-101.667 0-101.667-.664-.667-1.288-1.334-1.886-2.001z" fill="#ffb332"/><path d="m180.769 305.685c-9.196-4.439-27.834-14.415-38.723-26.982-4.327-4.994-5.769-11.383-4.598-17.295l-1.646-1.569-11.679 12.398c-3.026 3.212-2.529 8.35 1.061 10.916 9.429 6.737 25.869 21.022 33.963 43.157.676 1.849 1.97 3.411 3.657 4.427l41.038 24.729h2l-17.201-41.46c-1.514-3.649-4.316-6.604-7.872-8.321z" fill="#ffdd40"/><path d="m325.125 305.685c9.196-4.439 27.834-14.415 38.723-26.982 4.327-4.994 5.769-11.383 4.598-17.295l1.646-1.569 11.679 12.398c3.026 3.212 2.529 8.35-1.061 10.916-9.429 6.737-25.869 21.022-33.963 43.157-.676 1.849-1.97 3.411-3.657 4.427l-41.038 24.729h-2l17.201-41.46c1.514-3.649 4.316-6.604 7.872-8.321z" fill="#ffdd40"/><path d="m362.149 248.693c-6.479-4.538-15.46-9.069-26.715-10.564-1.032-.137-1.458 1.302-.506 1.724 6.289 2.788 14.352 8.821 14.352 21.428 0 17.202-31.638 27.245-42.247 30.129-2.312.628-4.429 1.808-6.185 3.439l-11.633 10.803c-2.743 2.548-6.349 3.963-10.093 3.963h-35.769c-4.358 5.265-22.332 29.85-.108 53.333h47.6c4.905 0 9.327-2.953 11.207-7.483l17.201-41.459c1.513-3.647 4.313-6.602 7.869-8.319 9.196-4.439 27.843-14.419 38.732-26.991 7.938-9.166 6.227-23.046-3.705-30.003z" fill="#f0f8ff"/><path d="m226.772 309.615c-3.744 0-7.349-1.416-10.093-3.963l-11.633-10.803c-1.756-1.63-3.873-2.81-6.185-3.439-10.608-2.884-42.246-12.927-42.246-30.129 0-13.674 9.485-19.614 15.904-22.068.727-.278.454-1.368-.321-1.289-12.046 1.236-21.602 5.979-28.408 10.738-9.957 6.962-11.694 20.864-3.737 30.045 10.89 12.566 29.528 22.54 38.721 26.978 3.555 1.716 6.355 4.672 7.869 8.319l17.201 41.459c1.88 4.53 6.302 7.483 11.207 7.483h30.286c-25.933-25.933 0-53.333 0-53.333h-18.565z" fill="#deeeff"/><path d="m359.745 381.615h-27.767s-5.824 5.336 0 11.159v39.422s-5.824 5.336 0 11.16h27.767c6.11 0 11.109-4.999 11.109-11.109v-39.522c.001-6.111-4.998-11.11-11.109-11.11z" fill="#fee884"/><path d="m332.978 381.615h-25.823c-6.11 0-11.109 4.999-11.109 11.109v39.522c0 6.11 4.999 11.109 11.109 11.109h25.823c-5.824-5.824 0-11.16 0-11.16v-39.422c-5.824-5.822 0-11.158 0-11.158z" fill="#ffdd40"/><path d="m316.862 392.774h-6.996c-1.284 0-2.326 1.041-2.326 2.326v24.515h11.648v-24.515c-.001-1.284-1.042-2.326-2.326-2.326z" fill="#ffb332"/><path d="m336.476 432.196h-6.996c-1.284 0-2.326-1.041-2.326-2.326v-23.956h11.648v23.956c0 1.285-1.041 2.326-2.326 2.326z" fill="#f0f8ff"/><path d="m336.476 392.774h-6.996c-1.284 0-2.326 1.041-2.326 2.326v12.015h11.648v-12.015c0-1.284-1.041-2.326-2.326-2.326z" fill="#ffb332"/><path d="m356.091 432.196h-6.996c-1.284 0-2.326-1.041-2.326-2.326v-34.77c0-1.284 1.041-2.326 2.326-2.326h6.996c1.284 0 2.326 1.041 2.326 2.326v34.771c0 1.284-1.042 2.325-2.326 2.325z" fill="#f0f8ff"/><path d="m316.862 432.196h-6.996c-1.284 0-2.326-1.041-2.326-2.326v-10.815h11.648v10.815c-.001 1.285-1.042 2.326-2.326 2.326z" fill="#f0f8ff"/><path d="m136.161 289.977c-6.41 2.72-13.88-.3-16.6-6.71l-4.538-10.696c-2.72-6.41.3-13.88 6.71-16.6 6.41-2.72 13.88.3 16.6 6.71l4.538 10.696c2.719 6.411-.3 13.88-6.71 16.6z" fill="#ffc839"/><path d="m369.733 289.977c6.41 2.72 13.88-.3 16.599-6.71l4.538-10.696c2.72-6.41-.3-13.88-6.71-16.6-6.41-2.72-13.88.3-16.599 6.71l-4.538 10.696c-2.72 6.411.3 13.88 6.71 16.6z" fill="#ffc839"/><path d="m326.698 105.309c-.417-.899.164-1.938 1.149-2.047l.174-.019c1.018-.113 1.598-1.223 1.117-2.127-9.728-18.272-30.317-25.45-36.265-27.19-.853-.25-1.286-1.199-.907-2.003.463-.985-.29-2.108-1.378-2.064-15.293.614-26.756 7.044-32.809 11.372-2.898 2.072-6.766 2.072-9.664 0-.447-.32-.932-.653-1.437-.992-.002.019-.008.038-.01.058-4.629 2.552-26.964 16.691-15.841 46.384l-.394 17.441c-1.07 2.447-1.732 7.108 2.478 9.566l18.143 36.507c-2.792 2.438-10.232 10.421-10.231 26.221l-.357 11.053c-.001 1.337.201 32.306 18.986 47.309 9.798-1.313 28.51-5.844 40.827-21.497 14.058-17.865 12.947-39.791 12.095-47.093-.129-1.102.979-1.926 2-1.492l1.213.516c1.129.48 2.307-.569 1.951-1.744-1.581-5.216-5.939-16.712-16.133-28.243-1.726-1.952-1.447-4.939.557-6.553.123-.099.271-.174.42-.228 14.221-5.155 19.661-15.177 21.51-19.945.413-1.066 1.851-1.232 2.516-.302l.588.824c.742 1.038 2.375.671 2.601-.584 4.35-24.122-.683-38.354-2.899-43.128z" fill="#e9ba9a"/><path d="m261.497 274.472c-19.562-14.343-19.531-47.003-19.531-47.003l.356-11.005c0-18.518 10.613-25.857 10.613-25.857l-18.892-38.011c-4.891-2.468-2.118-8.129-2.118-8.129l.407-18.044c-12.226-32.142 15.783-45.193 15.783-45.193-6.053-4.328-17.516-10.758-32.809-11.372-1.087-.044-1.841 1.079-1.378 2.064.379.805-.053 1.754-.907 2.003-5.948 1.74-26.537 8.918-36.265 27.19-.482.904.098 2.013 1.116 2.127l.175.019c.985.109 1.566 1.148 1.149 2.047-2.216 4.774-7.249 19.006-2.898 43.126.227 1.256 1.86 1.622 2.601.584l.588-.824c.664-.93 2.103-.764 2.516.302 1.848 4.768 7.288 14.79 21.509 19.945.149.054.297.129.42.228 2.004 1.615 2.282 4.601.557 6.553-10.194 11.53-14.553 23.027-16.133 28.243-.356 1.175.821 2.224 1.951 1.744l1.213-.516c1.021-.434 2.129.39 2 1.492-.853 7.301-1.963 29.227 12.095 47.093 17.328 22.021 47.331 22.036 47.331 22.036s3.396-.005 8.551-.842z" fill="#dba783"/><path d="m271.827 152.596c-5.36-.451-10.316 1.213-14.142 4.245-2.759 2.186-6.739 2.186-9.499 0-3.827-3.031-8.782-4.696-14.142-4.245-9.424.793-17.163 8.301-18.204 17.701-1.34 12.105 8.101 22.351 19.936 22.351 1.619 0 3.192-.192 4.699-.555 8.22-1.981 16.701-1.981 24.921 0 1.507.363 3.08.555 4.699.555 11.834 0 21.275-10.246 19.936-22.351-1.041-9.4-8.78-16.908-18.204-17.701z" fill="#dba783"/><g fill="#6c5475"><path d="m235.072 187.44c-5.129 0-9.325-4.196-9.325-9.325 0-5.129 4.196-9.326 9.325-9.326 5.129 0 9.325 4.196 9.325 9.326.001 5.128-4.196 9.325-9.325 9.325z"/><path d="m270.822 187.44c-5.129 0-9.325-4.196-9.325-9.325 0-5.129 4.196-9.326 9.325-9.326 5.129 0 9.325 4.196 9.325 9.326.001 5.128-4.196 9.325-9.325 9.325z"/><ellipse cx="221.819" cy="135.28" rx="14.833" ry="12.557"/></g><ellipse cx="227.63" cy="135.959" fill="#543e5b" rx="9.536" ry="9.536" transform="matrix(.16 -.987 .987 .16 56.964 338.872)"/><path d="m228.481 132.358c0 2.633-2.135 4.768-4.768 4.768s-4.768-2.135-4.768-4.768 2.135-4.768 4.768-4.768c2.634 0 4.768 2.134 4.768 4.768z" fill="#a98bbc"/><ellipse cx="284.076" cy="135.28" fill="#6c5475" rx="14.833" ry="12.557"/><ellipse cx="278.265" cy="135.959" fill="#543e5b" rx="9.536" ry="9.536" transform="matrix(.987 -.16 .16 .987 -18.185 46.329)"/><path d="m277.413 132.358c0 2.633 2.135 4.768 4.768 4.768s4.768-2.135 4.768-4.768-2.135-4.768-4.768-4.768-4.768 2.134-4.768 4.768z" fill="#a98bbc"/><g><path d="m252.934 227.813c-23.45 0-39.947-4.523-50.414-8.89 9.526 11.292 28.527 18.997 50.426 18.997 21.903 0 40.907-7.708 50.431-19.003-10.471 4.369-26.98 8.896-50.443 8.896z" fill="#dba783"/></g><path d="m318.315 203.527c-2.117-2.525-5.894-2.855-8.436-.754-.17.14-17.442 14.04-56.945 14.04-4.499 0-8.695-.187-12.625-.507l.023.03c-.953 1.097-2.239 3.009-2.466 5.521-.196 2.176.439 4.336 1.862 6.443 4.135.323 8.524.512 13.206.512 44.362 0 63.883-16.187 64.691-16.876 2.51-2.136 2.809-5.884.69-8.409z" fill="#f7ccb0"/><path d="m187.593 203.476c-2.15 2.521-1.849 6.308.673 8.458.736.628 16.995 14.118 53.432 16.512-5.652-6.937.623-11.983.623-11.983l-.001-.001c-31.827-2.145-46.001-13.442-46.299-13.684-2.52-2.123-6.287-1.815-8.428.698z" fill="#e9ba9a"/><path d="m474.688 128.199c-13.468 6.121-30.834 16.993-39.988 22.929-5 3.242-8.203 8.513-8.919 14.15l7.088 8.199c2.17 2.51 5.926 2.952 8.576.956 16.642-12.533 33.933-19.409 49.055-25.77 6.88-2.894 11.465-8.814 12.994-15.501-6.688-6.229-16.321-10.638-28.806-4.963z" fill="#f0f8ff"/><path d="m501.315 117.527c-5.528-10.092-17.855-14.324-28.387-9.688-15.189 6.687-36.77 17.387-58.25 34.542-2.809 2.243-3.17 6.388-.82 9.107l13.276 15.358c.258-5.781 3.376-11.213 8.381-14.459 9.298-6.029 26.463-16.763 39.793-22.822 13.32-6.055 22.753.272 27.754 5.196 1.702-5.521 1.277-11.716-1.747-17.234z" fill="#d3dcfb"/><path d="m409.456 208.132-18.45-10.389c-3.204-.063-6.339 1.571-8.021 4.559-1.753 3.113-1.434 6.813.483 9.558l18.138 10.213c1.24.699 2.588 1.03 3.917 1.03 2.796 0 5.51-1.467 6.978-4.076 2.169-3.849.805-8.727-3.045-10.895z" fill="#f0f8ff"/><path d="m383.244 202.589c1.768-3.141 5.189-4.766 8.559-4.397l-15.008-8.451c-3.85-2.171-8.729-.805-10.896 3.046-2.168 3.85-.805 8.727 3.046 10.895l14.898 8.389c-1.987-2.682-2.343-6.385-.599-9.482z" fill="#d3dcfb"/><path d="m61.642 256c49.742-17.009 92.678-37.083 64.667-72.019-20.572-25.657-32.015-60.918-9.25-83.683 17.178-17.178 19.587-35.016 17.992-48.109-75.76 41.669-127.106 122.238-127.106 214.809 0 9.27.519 18.417 1.523 27.419 12.595-15.89 29.629-30.707 52.174-38.417z" fill="#73c3f9"/><path d="m449.184 201.392c-18.375 25.423-29.625 50.923 0 63.923 19.652 8.624 35.844 18.132 46.963 31.435 1.182-9.753 1.801-19.679 1.801-29.751 0-27.373-4.492-53.695-12.774-78.274-12.473-1.495-26.991.215-35.99 12.667z" fill="#73c3f9"/></g></svg>