<svg id="Layer_1" enable-background="new 0 0 512 512" height="512" viewBox="0 0 512 512" width="512" xmlns="http://www.w3.org/2000/svg"><g><path d="m58.883 412.506c30.263 40.928 72.964 72.091 122.524 87.915h149.186c49.56-15.824 92.261-46.987 122.524-87.915l35.826-69.436c7.816-23.949 12.059-49.514 12.059-76.073 0-135.311-109.691-245.002-245.002-245.002s-245.002 109.691-245.002 245.002c0 26.559 4.243 52.123 12.059 76.073z" fill="#50dd89"/><path d="m285.858 432.101c-14.689 0-27.034-10.535-29.858-24.423-2.081 10.234-9.341 18.631-18.892 22.349l16.037 29.33c-2.682 2.9-9.789 11.657-9.955 23.148-.123 8.46 3.548 16.483 10.912 23.847 1.694 1.694 2.962 3.583 3.869 5.622 25.306-.2 49.696-4.234 72.622-11.554v-17.453c0-6.479 1.878-12.82 5.406-18.254l23.287-35.864c-5.172 2.088-10.809 3.25-16.706 3.25h-56.722z" fill="#bec8f7"/><path d="m256 512c1.318 0 2.63-.029 3.943-.05-1-2.506-2.487-4.823-4.551-6.887-23.358-23.358 0-45.399 0-45.399l-16.591-30.345c-3.861 1.779-8.147 2.781-12.659 2.781h-56.722c-5.897 0-11.533-1.162-16.706-3.25l23.286 35.864c3.528 5.434 5.406 11.775 5.406 18.254v17.453c23.522 7.511 48.582 11.579 74.594 11.579z" fill="#a8b7ef"/><path d="m362.253 238.952c-7.721 0-15.067 1.593-21.738 4.459v10.336c0 1.008.817 1.824 1.824 1.824h1.308c23.195 0 42.065 18.87 42.065 42.065v46.334c18.712-8.814 31.668-27.836 31.668-49.891 0-30.445-24.681-55.127-55.127-55.127z" fill="#bec8f7"/><path d="m126.288 297.636c0-23.194 18.87-42.065 42.065-42.065h1.308c1.007 0 1.824-.816 1.824-1.824v-10.336c-6.671-2.866-14.017-4.459-21.738-4.459-30.446 0-55.127 24.681-55.127 55.127 0 22.055 12.956 41.077 31.669 49.891v-46.334z" fill="#bec8f7"/><path d="m245.866 15.273c-24.133 3.244-44.644 17.904-55.928 38.37.993-.084 1.996-.137 3.01-.137h52.918z" fill="#5c45bf"/><path d="m266.134 15.273v38.233h52.918c1.014 0 2.016.053 3.01.137-11.284-20.465-31.795-35.126-55.928-38.37z" fill="#7255ce"/><path d="m216.174 175.718h79.651v63.234h-79.651z" fill="#bec8f7"/><path d="m240.044 175.718h31.911v63.234h-31.911z" fill="#856ee5"/><path d="m171.958 151.688v-65.031c0-3.339.476-6.57 1.347-9.641h-2.618c-10.485 0-19.064 8.579-19.064 19.064v42.861c0 10.485 8.579 19.064 19.064 19.064h1.838c-.372-2.052-.567-4.163-.567-6.317z" fill="#bec8f7"/><path d="m344.151 77.016h-5.456c.87 3.07 1.347 6.302 1.347 9.641v65.031c0 2.154-.195 4.265-.566 6.317h4.675c10.485 0 19.064-8.579 19.064-19.064v-42.861c-.001-10.485-8.579-19.064-19.064-19.064z" fill="#deeeff"/><path d="m314.19 173.57c-2.468-4.15-3.772-9.1-3.772-14.314v-82.24c0-13.555 12.044-18.823 18.5-20.674-6.071-4.812-13.726-7.701-22.027-7.701h-52.413l-.263 10.458c-2.413.4-7.238 1.394-12.118 3.518-9.335 4.064-14.27 10.305-14.27 18.048l.001 86.419c.012.271 1.401 25.701 22.814 37.019 1.52.113 3.083.192 4.749.192 18.646 0 28.563-7.566 41.21-12.611 5.455-2.176 11.081-3.937 16.853-5.025 3.732-.703 7.26-1.999 10.49-3.777-3.998-2.021-7.267-5.128-9.754-9.312z" fill="#5c45bf"/><path d="m327.134 55.014c-7.088 2.326-18.54 8.216-18.54 22.002v82.24c0 5.345 1.297 10.652 4.028 15.246 2.012 3.384 4.997 6.87 9.365 9.381 12.077-5.706 20.487-18.014 20.487-32.196v-67.462c0-12.064-6.089-22.769-15.34-29.211z" fill="#7255ce"/><path d="m256 60.682.303-12.04h-51.193c-19.571 0-35.583 16.012-35.583 35.583v67.463c0 17.095 12.218 31.475 28.352 34.839 6.134 1.279 12.135 3.098 17.94 5.457 12.397 5.039 21.294 12.311 39.574 12.311-24.524-9.728-25.74-37.292-25.74-37.292s0-69.314 0-86.339 26.347-19.982 26.347-19.982z" fill="#3b2aa0"/><path d="m318.95 107.924c0-8.528-6.977-15.505-15.505-15.505h-13.052c-8.527 0-15.504 6.977-15.504 15.505s6.977 15.505 15.504 15.505h13.052c8.528-.001 15.505-6.978 15.505-15.505z" fill="#73c3f9"/><path d="m237.111 107.924c0-8.528-6.977-15.505-15.505-15.505h-13.052c-8.527 0-15.504 6.977-15.504 15.505s6.977 15.505 15.504 15.505h13.052c8.528-.001 15.505-6.978 15.505-15.505z" fill="#73c3f9"/><path d="m256 0c-8.527 0-15.504 6.977-15.504 15.505v29.673c0 8.528 6.977 15.504 15.504 15.504 8.528 0 15.505-6.977 15.505-15.504v-29.673c-.001-8.528-6.978-15.505-15.505-15.505z" fill="#856ee5"/><path d="m256 0c-8.527 0-15.504 6.977-15.504 15.505v5.555c0 8.528 6.977 15.504 15.504 15.504 8.528 0 15.505-6.977 15.505-15.504v-5.555c-.001-8.528-6.978-15.505-15.505-15.505z" fill="#9787f4"/><path d="m317.722 227.603h-91.775c-2.167 2.325-6.088 7.383-6.321 13.751-.18 4.938 1.875 9.589 6.111 13.825.382.382.655.742.868 1.087 14.906.885 27.198 11.898 30.003 26.228 2.926-14.945 16.162-26.314 31.931-26.314h53.8v-3.96c0-13.539-11.078-24.617-24.617-24.617z" fill="#deeeff"/><path d="m228.542 227.603h-34.264c-13.54 0-24.617 11.078-24.617 24.617v3.96h55.016c1.37 0 2.713.116 4.04.282-.292-.867-.844-1.726-1.691-2.573-13.402-13.403 1.516-26.286 1.516-26.286z" fill="#d3dcfb"/><path d="m342.58 434.533h-56.722c-16.756 0-30.466-13.71-30.466-30.466v-117.78c0-17.896 14.642-32.539 32.539-32.539h55.716c24.139 0 43.888 19.75 43.888 43.888v91.941c0 24.726-20.23 44.956-44.955 44.956z" fill="#856ee5"/><path d="m353.793 254.952c-13.695 3.838-23.817 16.457-23.817 31.334v117.78c0 13.968 9.53 25.812 22.407 29.369 20.05-4.506 35.152-22.499 35.152-43.858v-91.941c0-20.648-14.455-38.072-33.742-42.684z" fill="#9787f4"/><path d="m224.069 253.748h-9.005c-17.362 6.322-29.851 23.007-29.851 42.485v94.716c0 20.014 12.872 37.154 30.742 43.584h10.187c16.757 0 30.466-13.71 30.466-30.466v-117.78c0-17.897-14.642-32.539-32.539-32.539z" fill="#7255ce"/><path d="m186.483 389.577v-91.941c0-23.012 17.953-42.022 40.544-43.747-.975-.089-1.96-.141-2.957-.141h-55.716c-24.139 0-43.889 19.75-43.889 43.888v91.941c0 24.726 20.23 44.956 44.956 44.956h56.722c.809 0 1.607-.041 2.4-.104-23.389-1.508-42.06-21.1-42.06-44.852z" fill="#5c45bf"/><path d="m279.105 402.51h-25.228c-1.527 1.575-3.587 4.341-3.895 8.033-.321 3.831 1.294 7.648 4.802 11.354v18.261c-1.566 1.372-5.062 4.958-5.438 9.882-.253 3.328.945 6.559 3.562 9.625h26.196c8.026 0 14.592-6.567 14.592-14.592v-27.969c.001-8.027-6.565-14.594-14.591-14.594z" fill="#deeeff"/><path d="m326.936 283.83c-2.168 1.52-5.186 4.25-6.082 8.166-.812 3.555.278 7.231 3.241 10.927 7.892 9.845.564 34.394-.242 36.987-.684 1.09-3.125 5.434-2.093 10.497.643 3.152 2.489 5.91 5.466 8.233 19.886-.894 35.735-17.294 35.735-37.401 0-20.205-16.004-36.662-36.025-37.409z" fill="#7255ce"/><path d="m330.034 284.075c-1.482-.178-2.987-.281-4.517-.281-20.68 0-37.444 16.764-37.444 37.444s16.764 37.444 37.444 37.444c1.532 0 3.038-.103 4.522-.281-11.712-7.366-4.522-17.706-4.522-17.706s9.019-27.665 0-38.913c-8.889-11.087 4.139-17.524 4.517-17.707z" fill="#5c45bf"/><circle cx="325.517" cy="321.238" fill="#50dd89" r="19.457"/><ellipse cx="329.362" cy="317.978" fill="#70f2a4" rx="8.304" ry="8.304" transform="matrix(.923 -.385 .385 .923 -96.966 151.144)"/><path d="m456.78 212.356c-4.807.614-17.256 3.088-24.854 12.665-5.059 6.375-6.933 14.613-5.583 24.511-.928.048-2.114.142-3.475.317l41.054 36.461c3.026 2.687 5.198 5.989 6.51 9.555 6.767-9.847 10.735-21.767 10.735-34.617-.001-19.981-9.577-37.721-24.387-48.892z" fill="#fee884"/><path d="m428.469 251.31c-6.289-35.367 30.37-37.329 30.38-37.329-10.574-8.71-24.121-13.942-38.89-13.942-15.062 0-28.845 5.451-39.508 14.474 2.802.995 5.463 2.516 7.814 4.604l36.452 32.374c2.288-.216 3.752-.181 3.752-.181z" fill="#ffdd40"/><path d="m466.578 283.303c-.793 4.034-2.609 7.915-5.522 11.195-5.418 6.101-13.324 8.753-20.892 7.803l11.979 9.384c-1.529 2.324-4.464 7.223-6.597 13.474-3.963 11.612-3.181 22.297 2.262 30.901 5.183 8.192 12.193 19.198 20.833 32.711 8.251-14.378 15.072-29.679 20.301-45.699z" fill="#deeeff"/><path d="m454.62 311.307-11.284-8.84c-5.701.038-11.432-1.911-16.005-5.971l-19.713-17.507c-5.126 13.61-12.219 42.295 3.626 71.637 10.65 19.722 27.437 43.083 41.873 61.881 6.021-8.142 11.544-16.672 16.536-25.543-6.328-9.897-14.121-22.111-20.301-31.879-12.567-19.862 5.268-43.778 5.268-43.778z" fill="#d3dcfb"/><path d="m465.138 283.877-38.809-34.467c.005.041.009.081.014.121-5.023.259-17.512 1.827-25.409 10.788-5.407 6.135-7.54 14.469-6.355 24.794l38.832 34.487c9.824 8.725 25 7.826 33.725-1.998 8.726-9.823 7.826-25-1.998-33.725z" fill="#ffdd40"/><path d="m389.481 216.685c-9.824-8.725-25-7.826-33.725 1.999-8.725 9.824-7.826 25 1.998 33.725l38.915 34.561c-5.667-36.68 31.798-35.66 31.799-35.66z" fill="#ffb332"/><path d="m65.708 238.627c5.448 5.648 12.817 8.696 21.928 9.075-.037.906-.039 2.085.039 3.441l36.06-32.026c2.351-2.088 5.012-3.608 7.814-4.604-10.663-9.023-24.445-14.474-39.508-14.474-13.598 0-26.156 4.441-36.316 11.942.088 4.233 1.098 17.435 9.983 26.646z" fill="#fee884"/><path d="m48.078 286.309 41.372-36.743c-.037-2.23.153-3.648.153-3.648-33.324 0-32.056-35.231-32.056-35.232-16.126 11.023-26.714 29.553-26.714 50.561 0 12.851 3.968 24.771 10.735 34.617 1.312-3.566 3.484-6.868 6.51-9.555z" fill="#ffdd40"/><path d="m50.944 294.498c-2.914-3.28-4.729-7.161-5.522-11.195l-22.365 59.767c5.454 16.712 12.653 32.633 21.388 47.549.296-.426.59-.855.86-1.305 5.481-9.136 13.36-22.626 19.775-35.012 6.362-12.286 5.09-22.865 2.901-29.576-1.675-5.137-4.097-8.814-5.434-10.595l9.279-11.83c-7.565.948-15.466-1.705-20.882-7.803z" fill="#deeeff"/><path d="m84.669 296.496c-4.383 3.893-9.832 5.857-15.298 5.98l-9.153 11.668s14.996 16.619 3.242 39.319c-6.276 12.119-13.939 25.278-19.718 34.912-.103.171-.22.329-.327.496 4.705 8.19 9.879 16.075 15.469 23.634 14.435-18.798 31.223-42.159 41.873-61.881 15.845-29.342 8.752-58.027 3.626-71.637z" fill="#d3dcfb"/><path d="m156.244 218.684c-8.725-9.824-23.901-10.723-33.725-1.999l-34.921 31.014c.013.001.025.003.038.003-.171 4.239.28 14.239 7.255 22.239 5.965 6.843 15.185 10.479 27.412 10.837l31.942-28.369c9.825-8.725 10.724-23.902 1.999-33.725z" fill="#ffdd40"/><path d="m124.317 278.989c-39.262 0-34.715-33.068-34.714-33.071l-42.741 37.959c-9.824 8.725-10.723 23.901-1.999 33.725 8.725 9.824 23.901 10.723 33.725 1.998z" fill="#ffb332"/><path d="m256.608 402.51h-23.713c-8.026 0-14.592 6.567-14.592 14.592v27.969c0 8.026 6.567 14.592 14.592 14.592h22.497c-10.235-10.235 1.216-18.646 1.216-18.646v-19.862c-10.894-10.893 0-18.645 0-18.645z" fill="#d3dcfb"/><path d="m262.08 421.156h-12.16c-5.462 0-9.931 4.469-9.931 9.931s4.469 9.931 9.931 9.931h12.161c5.462 0 9.931-4.469 9.931-9.931s-4.47-9.931-9.932-9.931z" fill="#50dd89"/><g fill="#70f2a4"><path d="m492.361 202.34c-14.516-53.185-46.488-99.164-89.396-131.382-9.717 10.333-18.931 25.274-18.931 44.792 0 41.289 23.804 55.956 48.687 60.845 18.386 3.614 41.866 8.792 59.64 25.745z"/><path d="m19.639 202.34c17.774-16.953 41.254-22.132 59.64-25.744 24.882-4.889 48.687-19.557 48.687-60.845 0-19.518-9.215-34.46-18.931-44.792-42.908 32.217-74.88 78.196-89.396 131.381z"/></g></g></svg>