<svg id="Layer_1" enable-background="new 0 0 512 512" height="512" viewBox="0 0 512 512" width="512" xmlns="http://www.w3.org/2000/svg"><g><path d="m31.822 365.954 448.884-1.207c13.045-29.947 20.296-62.999 20.296-97.749 0-135.311-109.691-245.002-245.002-245.002s-245.002 109.691-245.002 245.002c0 35.217 7.445 68.692 20.824 98.956z" fill="#49b1f7"/><g><path d="m99.192 189.551c-.217.174-.44.339-.654.516-24.422 20.165-31.283 53.909-17.713 81.616 3.858-1.773 10.016-4.461 18.496-7.749-10.222-19.682-5.534-44.008 11.952-58.445.393-.324.795-.632 1.196-.942 2.005-13.766-10.281-14.919-13.277-14.996z" fill="#ffdd40"/></g><path d="m187.495 206.158c3.702-4.098 3.382-10.422-.716-14.124-12.02-10.86-27.56-17.04-43.755-17.401-16.214-.376-31.995 5.12-44.486 15.435 0 0 16.311-.653 12.734 15.422 18.042-14.895 44.739-14.301 62.099 1.385 4.098 3.702 10.422 3.381 14.124-.717z" fill="#ffc839"/><g><path d="m150.664 227.09c.06.12 7.369 14.58 24.059 28.801 22.179 18.895 49.689 28.534 81.767 28.644 32.017-.111 59.528-9.749 81.706-28.644 16.69-14.221 23.999-28.681 24.071-28.825 1.212-2.436 3.401-4.067 5.856-4.657-15.14-47.496-59.779-82.149-112.124-82.149-52.279 0-96.87 34.566-112.066 81.969 2.813.385 5.389 2.119 6.731 4.861z" fill="#d3dcfb"/></g><path d="m309.529 194.263h-41.173v55.709c26.987-2.188 50.452-11.631 69.84-28.149 1.801-1.535 3.492-3.072 5.076-4.594 2.146-2.061 4.975-2.948 7.68-2.727-9.669-12.297-24.659-20.239-41.423-20.239z" fill="#6c5475"/><path d="m243.643 194.263h-41.207c-16.838 0-31.885 8.011-41.551 20.4 3.016-.596 6.334.235 8.773 2.576 1.581 1.518 3.268 3.052 5.066 4.583 19.158 16.321 42.299 25.719 68.92 28.053v-55.612z" fill="#543e5b"/><path d="m435.319 278.018 1.663-5.992s-28.646-14.909-86.89-30.477c0 0-25.039 51.13-93.632 51.368-16.853-.059-31.071-3.193-42.94-7.883-.772 2.67-.542 5.631.687 8.836-2.41.547-6.786 1.771-11.205 4.17-8.76 4.756-13.39 11.838-13.39 20.48v184.37c21.113 5.933 43.379 9.11 66.388 9.11 52.749 0 101.602-16.672 141.583-45.031v-23.381c-2.688-15.66-7.988-31.663-5.645-47.408 8.273-55.583 33.754-102.12 43.381-118.162z" fill="#ff8f4a"/><path d="m162.827 241.549c-58.244 15.568-86.89 30.477-86.89 30.477l1.663 5.992c9.627 16.042 35.108 62.579 43.381 118.162 2.343 15.745-2.957 31.747-5.645 47.408v24.018c22.725 15.964 48.286 28.16 75.775 35.695 0-54.008 0-169.741 0-184.78 0-19.71 25.21-23.541 25.21-23.541-1.883-3.898-2.054-6.989-1.397-9.399-37.48-14.194-52.097-44.032-52.097-44.032z" fill="#fe7f46"/><path d="m244.959 292.375v219.365c3.661.163 7.339.26 11.041.26 3.69 0 7.356-.097 11.006-.258v-219.285c-3.397.284-6.907.448-10.546.461-3.982-.014-7.81-.206-11.501-.543z" fill="#fcb686"/><path d="m170.144 387.332h-40.822v-132.438c0-3.243 2.108-6.109 5.204-7.075l25.999-8.111c4.772-1.489 9.619 2.077 9.619 7.075z" fill="#fc6e42"/><path d="m341.821 387.332h40.822v-132.438c0-3.243-2.108-6.109-5.204-7.075l-25.999-8.111c-4.772-1.489-9.619 2.077-9.619 7.075z" fill="#fc6e42"/><path d="m393.95 384.526h-274.98c.746 3.836 1.426 7.72 2.012 11.654 1.44 9.672 1.877 19.441 1.381 29.168h268.194c-.496-9.727-.059-19.496 1.381-29.168.585-3.934 1.266-7.818 2.012-11.654z" fill="#6c5475"/><path d="m120.982 396.18c1.439 9.672 1.877 19.44 1.381 29.168h68.749c0-13.888 0-27.806 0-40.822h-72.142c.746 3.836 1.426 7.72 2.012 11.654z" fill="#543e5b"/><path d="m244.959 384.526h22.047v40.822h-22.047z" fill="#876d93"/><path d="m75.938 272.026c-17.417 30.812-31.321 64.787-42.336 97.857 18.496 39.914 47.416 74.006 83.271 98.788l3.738-16.101c4.291-18.484 5.241-37.621 2.447-56.389-10.278-69.052-47.12-124.155-47.12-124.155z" fill="#fc6e42"/><path d="m427.79 347.214c15.284 1.732 20.969 49.655 21.869 67.974l.039.273c.093.393.187.789.28 1.184 11.382-14.73 21.13-30.788 28.957-47.911-10.954-32.707-24.737-66.253-41.953-96.708 0 0-14.929 22.333-28.432 56.375.581 5.911 3.752 17.058 19.24 18.813z" fill="#fe7f46"/><path d="m427.959 345.724c-19.836-2.248-18.006-20.712-17.993-20.836-8.227 20.119-16.141 44.666-20.104 71.292-2.793 18.769-1.843 37.905 2.447 56.389l3.61 15.552c21.068-14.684 39.716-32.594 55.237-53.01-.006-.139-3.315-67.133-23.197-69.387z" fill="#fc6e42"/><path d="m75.008 333.409-25.074-8.093c-1.66-.536-3.46.306-4.105 1.927-2.068 5.194-4.037 10.401-5.954 15.607 10.3 3.06 17.821 12.58 17.821 23.873 0 9.886-5.757 18.428-14.101 22.456 5.199 9.019 10.965 17.667 17.233 25.915 1.378-1.397 2.469-3.12 3.112-5.115l19.438-60.221c2.203-6.826-1.544-14.145-8.37-16.349z" fill="#deeeff"/><path d="m466.981 326.969c-.646-1.62-2.445-2.461-4.105-1.925l-25.919 8.366c-6.826 2.203-10.574 9.523-8.37 16.349l19.438 60.221c.647 2.005 1.744 3.734 3.132 5.135 11.748-15.455 21.699-32.347 29.549-50.368-4.154-12.531-8.708-25.195-13.725-37.778z" fill="#6c5475"/><g><path d="m164.85 339.966h-30.234c-8.26 0-14.98-6.72-14.98-14.98v-24.348c0-8.26 6.72-14.98 14.98-14.98h30.234c8.259 0 14.979 6.72 14.979 14.98v24.348c0 8.26-6.72 14.98-14.979 14.98zm-30.234-42.892c-1.932 0-3.564 1.632-3.564 3.564v24.348c0 1.932 1.632 3.564 3.564 3.564h30.234c1.931 0 3.562-1.632 3.562-3.564v-24.348c0-1.932-1.632-3.564-3.562-3.564z" fill="#fca163"/></g><g><path d="m170.144 318.521h-40.822c-3.152 0-5.708-2.556-5.708-5.708s2.556-5.708 5.708-5.708h40.822c3.152 0 5.708 2.556 5.708 5.708s-2.556 5.708-5.708 5.708z" fill="#fcb686"/></g><g><path d="m377.349 339.966h-30.234c-8.26 0-14.98-6.72-14.98-14.98v-24.348c0-8.26 6.72-14.98 14.98-14.98h30.234c8.259 0 14.979 6.72 14.979 14.98v24.348c0 8.26-6.72 14.98-14.979 14.98zm-30.234-42.892c-1.932 0-3.564 1.632-3.564 3.564v24.348c0 1.932 1.632 3.564 3.564 3.564h30.234c1.931 0 3.562-1.632 3.562-3.564v-24.348c0-1.932-1.632-3.564-3.562-3.564z" fill="#fca163"/></g><g><path d="m382.643 318.521h-40.822c-3.152 0-5.708-2.556-5.708-5.708s2.556-5.708 5.708-5.708h40.822c3.152 0 5.708 2.556 5.708 5.708s-2.556 5.708-5.708 5.708z" fill="#fcb686"/></g><g><path d="m255.982 332.488c-6.088 0-11.024-4.936-11.024-11.024v-25.82c0-6.088 4.936-11.024 11.024-11.024s11.024 4.936 11.024 11.024v25.82c0 6.088-4.936 11.024-11.024 11.024z" fill="#deeeff"/></g><path d="m254.877 0c-2.922 2.918-10.539 11.651-11.349 24.131-.645 9.913 3.182 19.771 11.377 29.317-.508.453-1.168 1.062-1.931 1.811 4.547.411 9.158-.099 13.537-1.555 10.516-3.497 27.006-7 40.45-.951 15.823 7.12 14.497 28.9 13.624 40.953-.304 4.19.692 8.393 2.957 11.947 1.337 2.098 2.398 4.322 3.24 6.519 1.047 2.73 1.791 7.345 2.251 10.21 2.429-1.177 7.694-2.458 10.664-2.039.363-12.6 1.527-27.977 1.527-27.977 12.686-62.13-38.734-92.38-86.347-92.366z" fill="#ad5c38"/><path d="m256.937.021c-5.64-.101-11.241.217-16.689.96-47.25 6.438-51.741 33.227-51.762 43.056-.005 2.061-1.146 3.971-3 4.873-24.578 11.956-11.327 71.375-11.327 71.375 2.468.165 6.845 1.164 8.772 2.097.472-2.936 1.242-7.621 2.33-10.415.829-2.13 1.865-4.28 3.16-6.313 2.248-3.526 3.271-7.686 2.966-11.845-.883-12.021-2.252-33.916 13.617-41.056 13.443-6.049 29.934-2.546 40.45.951 3.071 1.021 6.257 1.557 9.454 1.66 1.249-1.159 2.029-1.771 2.029-1.771-27.101-30.249-.008-53.564 0-53.572z" fill="#9b4d2f"/><path d="m345.008 120.186c-3.68-3.373-11.908-1.663-15.077.402.694 4.324.734 8.748.134 13.116l-3.74 27.241c0 2.196-.069 4.35-.197 6.467 9.121 2.751 14.548-5.437 15.311-11.056.328-2.419.866-4.803 1.611-7.129 2.426-7.577 11.179-20.591 1.958-29.041z" fill="#ffaa7b"/><path d="m166.957 120.186c3.68-3.373 11.908-1.663 15.077.402-.694 4.324-.734 8.748-.134 13.116l3.74 27.241c0 2.196.069 4.35.197 6.467-9.12 2.751-14.548-5.437-15.311-11.056-.328-2.419-.865-4.803-1.611-7.129-2.426-7.577-11.178-20.591-1.958-29.041z" fill="#fc9460"/><path d="m328.577 112.172c-.842-2.197-1.903-4.421-3.24-6.519-2.265-3.553-3.261-7.757-2.958-11.947.873-12.053.405-35.627-15.418-42.746-13.443-6.049-29.932-2.547-40.448.95-3.801 1.264-7.779 1.798-11.737 1.655-5.437 4.876-26.033 25.643-17.144 53.257l4.397 9.46c-1.528 2.186-5.159 8.724-.647 16.505l-.015.057c-.512.726-1.91 2.921-2.606 6.13-.762 3.508-.809 8.951 3.206 15.091l3.566 37.24 8.209 5.305c-1.078 2.318-1.571 5.985 1.614 9.055v46.004c.209.002.417.013.627.013 11.8 0 23.257-3.916 32.542-11.126 17.787-13.812 38.697-40.438 38.697-79.61l3.74-27.241c.997-7.264.241-14.681-2.385-21.533z" fill="#ffc7ab"/><path d="m256.788 205.029c-4.697-3.963-1.128-8.886-1.128-8.886l-8.768-5.665-3.534-36.905c-7.624-11.319-.676-20.099-.676-20.099l.242-.904c-5.612-8.987.769-16.111.769-16.111l-4.697-10.075c-9.958-30.936 17.942-52.79 17.942-52.79-.006-.006-.01-.012-.016-.018-3.87.109-7.753-.43-11.469-1.666-10.516-3.497-27.005-6.999-40.448-.95-15.868 7.14-16.294 30.828-15.41 42.849.305 4.159-.718 8.319-2.966 11.845-1.295 2.033-2.332 4.183-3.16 6.313-2.688 6.907-3.472 14.397-2.465 21.731l3.741 27.247c0 39.172 20.911 65.798 38.697 79.61 9.284 7.21 20.741 11.126 32.541 11.126.269 0 .537-.013.805-.016z" fill="#ffaa7b"/><path d="m283.193 128.003c0-1.37.256-2.673.714-3.858-1.781.874-3.218 1.864-4.243 2.699-2.389 1.948-6.542 4.419-8.816 5.725-.43.247-.254.904.242.904h.224c2.11 0 4.209.329 6.213.989 3.476 1.145 6.802 1.714 9.878 1.902-2.527-1.732-4.212-4.827-4.212-8.361z" fill="#edeef2"/><path d="m311.478 130.146c-4.153-3.896-8.145-6.145-11.838-7.283.83 1.496 1.31 3.255 1.31 5.14 0 3.08-1.281 5.826-3.283 7.628 3.022-.625 5.382-1.493 6.843-2.159 2.997-1.365 5.264-1.92 6.612-2.145.562-.093.771-.791.356-1.181z" fill="#edeef2"/><path d="m283.349 124.428c-.506 1.157-.789 2.434-.789 3.777 0 3.477 1.883 6.513 4.683 8.148 4.039.263 7.651-.134 10.611-.761 2.175-1.728 3.571-4.394 3.571-7.388 0-1.961-.599-3.782-1.624-5.291-6.764-2.139-12.532-.542-16.452 1.515z" fill="#73c3f9"/><path d="m295.511 128.798c0 1.997-1.618 3.615-3.615 3.615s-3.615-1.618-3.615-3.615 1.619-3.615 3.615-3.615c1.997 0 3.615 1.618 3.615 3.615z" fill="#49b1f7"/><path d="m319.469 116.757c-.541-3.552-2.692-11.807-11.091-13.715-8.48-1.927-26.362 1.705-33.601 3.342-1.929.436-3.457 1.903-3.975 3.811l-1.492 5.5c-.127.467.304.894.77.763 5.488-1.54 30.762-8.374 38.462-5.905 5.871 1.883 8.887 4.818 10.219 6.512.252.322.769.096.708-.308z" fill="#ad5c38"/><path d="m230.578 128.003c0-1.37-.256-2.673-.714-3.858 1.781.874 3.218 1.864 4.243 2.699 2.389 1.948 6.542 4.419 8.816 5.725.43.247.254.904-.242.904h-.224c-2.11 0-4.209.329-6.213.989-3.476 1.145-6.802 1.714-9.878 1.902 2.527-1.732 4.212-4.827 4.212-8.361z" fill="#edeef2"/><path d="m202.293 130.146c4.153-3.896 8.145-6.145 11.838-7.283-.83 1.496-1.31 3.255-1.31 5.14 0 3.08 1.281 5.826 3.283 7.628-3.022-.625-5.382-1.493-6.843-2.159-2.997-1.365-5.264-1.92-6.612-2.145-.562-.093-.771-.791-.356-1.181z" fill="#edeef2"/><path d="m230.422 124.428c.506 1.157.789 2.434.789 3.777 0 3.477-1.883 6.513-4.683 8.148-4.039.263-7.651-.134-10.611-.761-2.175-1.728-3.571-4.394-3.571-7.388 0-1.961.599-3.782 1.624-5.291 6.764-2.139 12.532-.542 16.452 1.515z" fill="#73c3f9"/><path d="m218.26 128.798c0 1.997 1.618 3.615 3.615 3.615s3.615-1.618 3.615-3.615-1.619-3.615-3.615-3.615-3.615 1.618-3.615 3.615z" fill="#49b1f7"/><path d="m194.302 116.757c.541-3.552 2.692-11.807 11.091-13.715 8.48-1.927 26.362 1.705 33.602 3.342 1.928.436 3.457 1.903 3.975 3.811l1.492 5.5c.127.467-.303.894-.769.763-5.488-1.54-30.762-8.374-38.462-5.905-5.871 1.883-8.887 4.818-10.219 6.512-.254.322-.771.096-.71-.308z" fill="#9b4d2f"/><path d="m306.341 192.336c-2.08-12.403-11.029-24.821-22.976-27.53l-1.657-.487c-2.863 2.489-12.139 11.747-6.762 23.058 7.512 2.573 14.071 7.243 18.939 13.386-1.202 5.348-4.974 13.474-16.663 17.604-2.372.838-4.808.961-7.082.514-.702 2.086-3.399 11.262.476 19.094 1.862 3.765 4.963 6.599 9.199 8.486 17.584-9.671 38.776-26.4 45.938-64.721.639-3.419.964-6.896.964-10.374-2.959 7.299-9.108 16.082-20.376 20.97z" fill="#ad5c38"/><path d="m271.586 219.082c-5.867-.501-11.005-4.831-11.77-11.042-.013-.106-.025-.212-.037-.32-.165-1.522-1.44-2.692-2.991-2.692-1.551 0-2.826 1.17-2.991 2.692-.012.108-.024.214-.037.32-1.005 8.164-9.563 13.096-17.406 10.326-10.791-3.813-15.433-11.034-17.428-16.328 5.847-7.997 14.455-13.735 24.363-15.923l3.262-.72c4.754-1.049 8.43-5.69 9.778-10.635.155-.568.962-.568 1.117 0 1.348 4.945 5.024 9.585 9.778 10.635l3.262.72c2.225.491 4.381 1.167 6.459 2.001-.011-.019-.019-.038-.03-.058-7.447-12.917 6.451-23.253 6.451-23.253l-18.26-5.365c-3.174-.932-6.353.696-7.631 3.461-.233.505-.939.505-1.172 0-1.278-2.765-4.457-4.393-7.631-3.461l-18.26 5.365c-12.183 2.762-21.254 15.622-23.097 28.265-12.464-4.701-18.953-14.024-22.064-21.705v.003c0 3.474.324 6.946.961 10.361 7.757 41.575 31.935 57.738 50.212 67.052 12.236 6.236 26.75 6.241 38.99.01 1.932-.983 3.934-2.05 5.974-3.209-16.48-6.447-10.369-24.898-9.802-26.5z" fill="#9b4d2f"/><path d="m276.914 188.059-7.975-3.145c-.897-.353-1.888-.394-2.811-.116l-9.191 2.772-9.191-2.772c-.923-.278-1.914-.237-2.811.116l-7.975 3.145c-2.203.869-3.286 3.359-2.417 5.562.867 2.197 3.352 3.287 5.563 2.417l6.59-2.599 8.963 2.703c.868.271 1.774.252 2.557-.001l8.962-2.702 6.59 2.599c2.2.866 4.691-.207 5.563-2.417.869-2.203-.213-4.693-2.417-5.562z" fill="#fc9460"/><path d="m281.019 157.001c-.595-.911-1.507-1.536-2.569-1.759l-7.935-1.671c-1.86-.391-3.521.333-4.333 1.889-.027.05-.055.1-.087.149-1.846 2.854-5.27 4.559-9.16 4.559-3.889 0-7.312-1.704-9.158-4.559-.03-.047-.058-.095-.085-.147-.813-1.559-2.473-2.282-4.335-1.89l-7.935 1.67c-2.195.462-3.605 2.624-3.143 4.819.46 2.192 2.622 3.603 4.821 3.143l4.422-.931c.606-.126 1.224.06 1.657.487 3.729 3.684 8.743 5.526 13.758 5.526 5.014-.001 10.03-1.842 13.758-5.525.437-.431 1.055-.614 1.656-.487l4.424.931c2.194.459 4.357-.949 4.819-3.143.224-1.063.019-2.15-.575-3.061z" fill="#fc9460"/><path d="m358.671 217.764c-3.119-6.332-10.915-6.916-15.398-2.611-29.736 28.559-73.772 38.774-113.742 30.661-1.655 1.226-4.597 3.727-7.072 7.568-3.197 4.958-6.138 13.101-2.475 24.105-.761.407-1.754 1.038-2.75 1.902 11.982 3.595 25.109 5.618 39.257 5.668 47.473-.165 84.423-22.773 103.716-53.895 1.5-3.774 2.061-6.096 2.061-6.096z" fill="#deeeff"/><path d="m221.852 278.27c-8.01-21.46 9.743-32.054 9.743-32.054l-.002-.005c-23.045-4.3-44.852-14.645-61.935-31.047-4.463-4.286-12.274-3.747-15.402 2.619l-3.591 7.308s.56 2.318 2.057 6.086c13.745 22.16 36.534 40.276 66.244 48.73 1.536-1.145 2.886-1.637 2.886-1.637z" fill="#bec8f7"/><path d="m374.079 221.072c-4.358-2.152-9.645-.361-11.811 3.993-.073.144-7.381 14.604-24.071 28.825-22.178 18.895-49.689 28.534-81.706 28.644-13.049-.045-25.327-1.694-36.812-4.874-1.749.986-4.428 2.948-5.78 6.277-1.197 2.948-1.092 6.282.309 9.933-.295.067-.622.145-.972.233 12.552 3.675 26.929 6.022 43.256 6.078 45.734-.159 76.271-18.277 93.837-33.448 19.16-16.549 27.433-33.183 27.776-33.882 2.137-4.366.334-9.626-4.026-11.779z" fill="#fca163"/><path d="m150.664 225.09c-2.143-4.378-7.43-6.187-11.805-4.042-4.376 2.143-6.187 7.427-4.042 11.805.342.699 8.615 17.333 27.775 33.882 11.81 10.199 29.494 21.723 53.724 28.233-6.026-12.49 5.535-16.698 5.535-16.698-.001-.003-.002-.006-.003-.008-17.628-4.539-33.4-12.677-47.126-24.371-16.689-14.221-23.998-28.681-24.058-28.801z" fill="#ff8f4a"/><path d="m40.579 340.943c-3.108 8.36-6.022 16.717-8.757 25.01 3.803 8.603 8.086 16.944 12.817 24.993 9.154-4.241 15.506-13.504 15.506-24.256 0-12.278-8.284-22.616-19.566-25.747z" fill="#bec8f7"/><path d="m219.001 348.257h-6.716c-4.214 1.564-7.244 5.621-7.244 10.361 0 4.741 3.029 8.798 7.244 10.361h6.716c5.699 0 10.361-4.663 10.361-10.361s-4.662-10.361-10.361-10.361z" fill="#ffdd40"/><path d="m205.737 358.619c0-5.699 4.663-10.361 10.361-10.361h-23.625c-5.699 0-10.361 4.663-10.361 10.361 0 5.699 4.663 10.361 10.361 10.361h23.625c-5.698 0-10.361-4.663-10.361-10.361z" fill="#ffc839"/><path d="m10.998 266.998c0 13.577 1.122 26.889 3.246 39.865 23.18-8.994 42.005-36.555 38.785-65.313-4.379-39.103 11.333-73.264 59-91.872 47.223-18.435 33.572-72.133 25.694-97.275-75.55 41.728-126.725 122.18-126.725 214.595z" fill="#73c3f9"/><path d="m403.67 71.498c-16.541 21.399-41.867 63.521-27.137 106.805 21.052 61.862 67.531 35.397 96.292 97.963 6.782 14.754 15.734 23.132 25.453 27.329 1.788-11.94 2.723-24.159 2.723-36.597.001-79.852-38.208-150.771-97.331-195.5z" fill="#73c3f9"/><path d="m374.079 221.072c-4.358-2.152-9.645-.361-11.811 3.993-.073.144-7.381 14.604-24.071 28.825-.368.314-.738.624-1.108.933-3.939 3.274-4.271 9.199-.721 12.891 3.193 3.322 8.423 3.641 11.972.702.681-.564 1.344-1.125 1.989-1.682 19.16-16.549 27.433-33.183 27.776-33.882 2.137-4.367.334-9.627-4.026-11.78z" fill="#fcb686"/></g></svg>