<svg id="Layer_1" enable-background="new 0 0 512 512" height="512" viewBox="0 0 512 512" width="512" xmlns="http://www.w3.org/2000/svg"><g><path d="m456.274 408.143c28.172-39.9 44.728-88.587 44.728-141.145 0-135.311-109.691-245.002-245.002-245.002s-245.002 109.691-245.002 245.002c0 52.558 16.556 101.245 44.728 141.145z" fill="#1c2e7a"/><path d="m397.463 355.536s-100-18.246-100-53.716c0-5.763 0-4.036 0-7.767-10.046 8.982-27.275 20.424-41.463 20.768-1.309-.032-2.644-.159-3.997-.369.66 1.363 1.408 2.748 2.265 4.155-.717 3.949-6.921 30.831-45.362 52.467-42.676 24.02-54.028 60.481-54.15 60.892-.011.04-.183.726-.368 1.884.582.521 1.154 1.047 1.751 1.562 11.706-8.279 25.322-13.029 39.857-13.029 14.426 0 27.951 4.673 39.6 12.836 12.278 8.605 28.529 8.605 40.807 0 11.648-8.164 25.173-12.836 39.6-12.836 14.535 0 28.151 4.75 39.857 13.029 34.14-29.417 42.34-69.126 43.938-79.385-.825-.188-1.607-.351-2.335-.491z" fill="#f964b2"/><path d="m214.537 301.82c0 35.469-100 53.716-100 53.716-.727.14-1.509.303-2.335.49 1.591 10.215 9.738 49.626 43.512 79.005.228-1.676.491-2.678.491-2.678s10.795-35.971 53.437-59.971c42.641-24 46.197-54.087 46.197-54.087-.764-1.226-1.431-2.43-2.04-3.619-13.733-1.37-29.729-12.101-39.261-20.623-.001 3.931-.001 1.582-.001 7.767z" fill="#ef43a6"/><g><path d="m158.128 434.042c-34.21-29.391-41.964-69.348-43.335-78.554-.164.031-.257.048-.257.048-12.185 2.34-38.926 10.849-54.163 41.322-1.705 3.409-3.247 7.194-4.648 11.285 18.66 26.428 42.424 48.989 69.849 66.27 7.269-17.082 18.645-31.181 32.554-40.371z" fill="#f964b2"/></g><path d="m451.626 396.858c-15.237-30.473-41.979-38.982-54.163-41.322 0 0-.093-.017-.257-.048-1.371 9.206-9.124 49.162-43.334 78.553 12.727 8.41 23.322 20.937 30.602 36.09h.62v-43.727c0-7.054 7.909-10.176 12.279-4.639 6.066 7.687 12.89 18.406 17.495 31.717 15.616-13.311 29.546-28.54 41.408-45.339-1.402-4.091-2.945-7.876-4.65-11.285z" fill="#fc90ce"/><path d="m386.425 474.413c10.189-6.42 19.87-13.572 28.974-21.377-4.6-14.036-11.726-25.285-18.028-33.27-4.37-5.537-13.279-2.415-13.279 4.639v44.946c.816 1.658 1.601 3.34 2.333 5.062z" fill="#f964b2"/><path d="m370.453 480.24c-3.744-7.092-10.376-12.176-18.196-13.946-2.01-.455-4.042-.679-6.063-.679-5.837 0-11.574 1.868-16.35 5.421l-2.549 1.896c-1.621 1.207-3.846 1.158-5.414-.119l-8.522-6.944c-9.434-7.687-22.55-8.279-32.642-1.473l-12.904 8.706c-7.176 4.842-16.449 4.842-23.625 0l-12.904-8.706c-10.091-6.809-23.209-6.214-32.642 1.473l-8.523 6.944c-1.565 1.275-3.792 1.325-5.414.119l-2.549-1.896c-4.69-3.489-10.307-5.344-16.033-5.411 1.413 1.102 2.966 2.156 4.712 3.132-1.283 4.014-4.529 16.799 1.475 28.558 26.114 9.496 54.294 14.685 83.69 14.685 41.865 0 81.269-10.512 115.738-29.023-.616-1.328-1.181-2.539-1.285-2.737z" fill="#fcb1df"/><path d="m172.67 468.041c-1.364-.707-2.617-1.46-3.779-2.245-3.022-.343-6.112-.19-9.147.498-7.82 1.77-14.452 6.854-18.197 13.947-.105.199-.64 1.429-1.221 2.769 10.896 5.848 22.286 10.893 34.09 15.063-8.226-13.953-1.746-30.032-1.746-30.032z" fill="#fc90ce"/><path d="m316.003 419.382c-14.427 0-27.952 4.673-39.6 12.836-12.278 8.605-28.529 8.605-40.807 0-11.648-8.164-25.173-12.836-39.6-12.836-15.254 0-29.494 5.236-41.58 14.287-.9 5.469-2.255 22.846 13.949 33.571 4.499.442 8.957 2.07 12.895 5l2.549 1.896c2.17 1.615 5.16 1.549 7.257-.16l8.523-6.945c8.854-7.215 21.387-7.78 30.855-1.392l12.904 8.706c7.645 5.159 17.657 5.159 25.303 0l12.905-8.706c9.468-6.388 22.001-5.822 30.855 1.392l8.523 6.945c2.097 1.709 5.086 1.774 7.257.16l2.549-1.896c12.755-9.491 30.965-5.359 38.387 8.701.467.885.922 1.787 1.372 2.694 5.778-3.061 11.424-6.336 16.917-9.834-12.771-32.194-39.948-54.419-71.413-54.419z" fill="#fcc8ea"/><path d="m124.585 473.801c5.493 3.498 11.139 6.774 16.917 9.834.45-.907.904-1.809 1.372-2.694 5.867-11.113 18.471-16.016 29.796-12.9-22.682-11.764-16.549-35.368-16.469-35.674-13.665 9.641-24.735 24.086-31.616 41.434z" fill="#fcb1df"/><path d="m335.052 390.406c-19.975-9.072-20.684-40.926-17.814-67.797 2.279-21.336 16.545-33.087 26.741-38.853-.106-.38-.205-.756-.314-1.139-6.749-23.638-9.547-42.09-10.153-56.35-5.126 18.497-11.825 34.875-19.985 48.838-4.709 8.058-10.552 15.274-17.339 21.528-10.139 59.151 8.82 103.71 23.74 128.06 3.144 5.131 11.522 2.979 11.441-2.946-.158-11.421 1.412-21.616 3.683-31.341z" fill="#fee884"/><path d="m256 0c-.706 0-1.408.018-2.105.053l.067.065c-3.056 3.961-11.844 17.576-.076 30.575-.711.834-1.483 2.085-1.623 3.677-.145 1.648.396 3.279 1.612 4.864-.056.051-.127.119-.186.173.766-.015 1.533-.028 2.311-.028 15.726 0 29.067 3.027 40.297 7.691.317-2.05.484-4.15.484-6.29-.001-22.522-18.259-40.78-40.781-40.78z" fill="#fcf2c8"/><path d="m256 30.74c-14.821-14.82 0-30.74 0-30.74-22.523 0-40.781 18.258-40.781 40.781 0 2.139.166 4.239.484 6.29 11.23-4.664 24.571-7.691 40.297-7.691-5.084-5.084 0-8.64 0-8.64z" fill="#fee884"/><path d="m256 30.74c-.73 0-1.457.014-2.181.036-.692.833-1.421 2.052-1.556 3.594-.145 1.648.396 3.279 1.612 4.864-.722.657-1.729 1.636-2.871 2.881 1.641-.068 3.3-.115 4.996-.115 19.193 0 34.84 4.505 47.423 10.998 2.235 1.153 4.392 2.407 6.484 3.738-12.63-15.837-32.076-25.996-53.907-25.996z" fill="#f964b2"/><path d="m256 30.74c-21.83 0-41.277 10.159-53.908 25.995 2.092-1.331 4.249-2.585 6.484-3.738 11.953-6.167 26.677-10.533 44.572-10.956 1.692-1.74 2.852-2.661 2.852-2.661-5.084-5.084 0-8.64 0-8.64z" fill="#ef43a6"/><g fill="#fcf2c8"><path d=""/><path d="m303.423 50.377c-12.583-6.492-28.23-10.997-47.423-10.997-.781 0-1.548.019-2.317.034-3.599 3.318-13.043 13.298-14.706 28.014-1.306 11.56 2.532 23.263 11.409 34.808-.045.037-.097.083-.143.122.668.243 1.335.483 2.017.744 2.401.921 5.081.921 7.482 0 61.107-23.425 67.47 30.211 67.964 46.766.085 2.833 1.277 5.483 3.177 7.624 2.111 2.379 3.672 5.611 4.813 9.344 3.096-2.064 7.903-3.487 12.247-3.385l.001-.013v-40.181c-.001-30.45-16.975-58.669-44.521-72.88z"/></g><path d="m256 39.38c-19.193 0-34.84 4.505-47.423 10.997-27.546 14.211-44.52 42.43-44.52 72.879v40.181l.001.013c4.345-.102 9.151 1.321 12.247 3.385 1.141-3.733 2.702-6.966 4.813-9.344 1.9-2.141 3.092-4.791 3.177-7.624.493-16.52 6.835-69.958 67.581-46.907.393-.312.617-.47.617-.47-29.508-36.892 3.507-63.11 3.507-63.11z" fill="#fee884"/><path d="m175.548 214.572s-4.987-31.561.757-50.357c-5.212-3.474-15.281-5.17-19.809-.743-9.272 9.064-2.478 22.752.773 31.398.998 2.655 1.642 5.34 1.933 8.03.633 5.845 3.802 14.4 16.942 14.199-.199-.842-.402-1.671-.596-2.527z" fill="#fc9460"/><path d="m355.504 163.472c-4.528-4.427-14.598-2.731-19.809.743 5.744 18.796.757 50.357.757 50.357-.194.856-.397 1.685-.596 2.527 13.141.202 16.31-8.354 16.942-14.199.291-2.69.935-5.375 1.933-8.03 3.252-8.646 10.045-22.334.773-31.398z" fill="#ffaa7b"/><path d="m331.372 154.436c-1.893-2.134-2.935-4.627-3.012-7.209-.293-9.828-2.775-33.883-19.446-44.983-11.825-7.874-28.448-7.792-49.408.246-2.262.867-4.753.867-7.015 0-.887-.34-1.756-.646-2.628-.957.176.234.341.469.521.703-2.205 1.839-6.893 6.265-10.529 13.246-7.801 14.977-4.671 30.034-.434 40.345-4.284 4.148-9.819 13.949-4.576 26.312l1.509 17.872c-1.867 4.327-2.811 13.092 5.58 18.639-.212 1.095-.065 2.534 1.038 4.016l-4.243 8.395c-2.693 4.341-4.997 14.733 5.305 23.493l8.88 9.299c-.487.759-.976 1.838-.998 3.133-.023 1.401.499 2.717 1.553 3.915l.807 6.77c-2.315 3.129-12.869 19.398-.224 40.564 5.199.299 10.455-.595 15.305-2.693 18.957-8.201 34.349-21.73 44.513-39.125 10.01-17.13 17.823-37.889 23.228-61.742 2.341-14.875 4.833-48.341-5.726-60.239z" fill="#ffc7ab"/><path d="m242.642 315.541c4.194 1.814 8.693 2.728 13.194 2.75-14.491-23.251.002-40.19.002-40.19l-.937-7.868c-3.342-3.342 0-6.473 0-6.473l-9.836-10.3c-12.182-10.3-5.027-21.663-5.027-21.663l4.727-9.352c-2.429-2.429-.995-4.426-.995-4.426-11.229-6.446-5.889-17.747-5.889-17.747l-1.561-18.502c-6.845-15.778 4.896-25.544 4.896-25.544-15.116-35.156 11.275-53.736 11.275-53.736-20.96-8.035-37.583-8.118-49.407-.247-16.67 11.101-19.152 35.157-19.445 44.984-.077 2.583-1.118 5.075-3.013 7.209-10.439 11.763-8.153 46.131-5.717 60.28 5.393 23.807 13.206 44.565 23.218 61.7 10.165 17.394 25.558 30.923 44.515 39.125z" fill="#ffaa7b"/><path d="m320.976 210.504c-3.193-3.778-2.201-9.917-2.184-10.021.041-.291.925-7.306-6.803-22.854-6.909-13.901 3.713-21.355 4.165-21.663l.331-.223.298-.605c-.493-.123-.983-.259-1.467-.416-13.63-4.417-30.326-4.977-50.293 3.817-5.715 2.517-12.326 2.518-18.044 0-2.61-1.149-5.161-2.131-7.66-2.973.035.086.069.175.104.26-4.284 4.148-9.819 13.949-4.576 26.312l1.509 17.872c-1.867 4.327-2.811 13.092 5.58 18.639-.003.015-.004.031-.007.046 1.942-.697 3.912-1.475 5.918-2.363 5.08-2.249 11.147-2.284 16.308 0 26.681 11.813 47.671 6.21 62.11-2.999-2.261-.407-4.038-1.349-5.289-2.829z" fill="#f964b2"/><path d="m310.646 178.297c7.609 15.31 6.66 21.975 6.66 21.975s-1.962 11.367 7.149 14.175c5.47-3.247 10.074-7.048 13.762-10.735 19.341-19.341 16.544-42.587 12.405-56.161-1.268-4.158-6.587-5.135-9.378-1.803-3.05 3.643-6.973 6.193-10.528 7.933-2.8 1.37-5.874 2.075-8.99 2.075-2.179 0-4.336-.363-6.409-1.035-.001.001-12.28 8.266-4.671 23.576z" fill="#fc90ce"/><path d="m243.759 218.012c-11.213-6.448-5.876-17.74-5.876-17.74l-1.561-18.502c-6.743-15.542 4.54-25.243 4.88-25.53-17.43-6.322-32.224-5.501-44.516-1.518-2.073.671-4.23 1.035-6.409 1.035-3.117 0-6.191-.705-8.99-2.075-3.555-1.74-7.478-4.29-10.528-7.933-2.791-3.333-8.11-2.355-9.378 1.803-4.139 13.573-6.936 36.82 12.405 56.161 12.846 12.846 36.772 27.086 69.973 14.299z" fill="#ef43a6"/><ellipse cx="295.77" cy="191.83" fill="#ffc7ab" rx="24.872" ry="16.885"/><ellipse cx="216.346" cy="191.83" fill="#ffaa7b" rx="24.872" ry="16.885"/><g><path d="m318.685 191.993c-4.836-5.455-9.503-8.605-13.828-10.21.849 2.049 1.325 4.422 1.299 6.949-.043 4.289-1.521 8.095-3.798 10.592 3.602-.81 6.418-1.982 8.154-2.882 3.515-1.823 6.167-2.547 7.742-2.835.656-.12.91-1.074.431-1.614z" fill="#deeeff"/></g><path d="m278.323 190.861c-.025 2.537.545 4.888 1.527 6.823 3.732 1.409 7.314 2.159 10.647 2.446-2.782-2.489-4.603-6.797-4.553-11.68.018-1.845.307-3.598.805-5.2-2.156 1.188-3.898 2.558-5.132 3.712-.905.847-2.033 1.765-3.223 2.68-.038.4-.066.805-.071 1.219z" fill="#deeeff"/><path d="m278.657 189.444c-2.571 1.994-5.529 3.995-7.402 5.225 0 0 0 .001-.001.001.105.42.23.835.379 1.243l.153.002c2.461.034 4.905.518 7.234 1.454.393.158.783.303 1.174.446-1.064-1.822-1.693-4.136-1.668-6.652.007-.588.057-1.16.131-1.719z" fill="#ffaa7b"/><g><path d="m285.948 183.71c-.606 1.577-.953 3.323-.971 5.164-.047 4.765 2.108 8.955 5.353 11.241 4.708.425 8.927-.061 12.389-.874 2.561-2.334 4.225-5.965 4.266-10.068.027-2.688-.647-5.193-1.822-7.278-7.864-3.039-14.615-.942-19.215 1.815z" fill="#73c3f9"/></g><g><path d="m296.829 185.782c0-2.012-.602-3.849-1.594-5.266-3.623.383-6.776 1.689-9.286 3.194-.606 1.577-.954 3.323-.972 5.164-.007.71.041 1.406.128 2.086 1.216 1.789 3.048 2.929 5.098 2.929 3.659 0 6.626-3.63 6.626-8.107z" fill="#49b1f7"/></g><g><path d="m303.107 185.778c0 1.013-.821 1.834-1.834 1.834s-1.834-.821-1.834-1.834.821-1.834 1.834-1.834 1.834.821 1.834 1.834z" fill="#bbe8fc"/></g><g><path d="m193.315 191.993c4.836-5.455 9.503-8.605 13.828-10.21-.849 2.049-1.325 4.422-1.299 6.949.044 4.289 1.521 8.095 3.798 10.592-3.602-.81-6.418-1.982-8.154-2.882-3.515-1.823-6.167-2.547-7.742-2.835-.656-.12-.91-1.074-.431-1.614z" fill="#deeeff"/></g><path d="m232.382 197.596c.936-2.011 1.475-4.398 1.449-6.963-.003-.286-.02-.567-.038-.847-1.26-.962-2.457-1.932-3.41-2.823-1.234-1.154-2.976-2.524-5.132-3.712.498 1.602.786 3.355.805 5.2.049 4.883-1.772 9.191-4.553 11.68 3.402-.294 7.063-1.069 10.879-2.535z" fill="#deeeff"/><path d="m240.745 194.668c-1.873-1.23-4.831-3.231-7.402-5.225.074.56.124 1.132.13 1.719.025 2.516-.603 4.83-1.667 6.652.39-.144.781-.288 1.174-.446 2.329-.936 4.773-1.421 7.234-1.454l.262-.003c.003 0 .004-.001.007-.001.139-.379.255-.764.355-1.153-.03-.031-.056-.064-.093-.089z" fill="#fc9460"/><g><path d="m226.052 183.71c.606 1.577.953 3.323.971 5.164.047 4.765-2.108 8.955-5.353 11.241-4.708.425-8.927-.061-12.389-.874-2.561-2.334-4.225-5.965-4.266-10.068-.026-2.688.648-5.193 1.822-7.278 7.864-3.039 14.615-.942 19.215 1.815z" fill="#73c3f9"/></g><g><path d="m215.171 185.782c0-2.012.602-3.849 1.594-5.266 3.623.383 6.776 1.689 9.286 3.194.606 1.577.954 3.323.972 5.164.007.71-.041 1.406-.128 2.086-1.216 1.789-3.048 2.929-5.098 2.929-3.659 0-6.626-3.63-6.626-8.107z" fill="#49b1f7"/></g><g><path d="m208.893 185.778c0 1.013.821 1.834 1.834 1.834s1.834-.821 1.834-1.834-.821-1.834-1.834-1.834-1.834.821-1.834 1.834z" fill="#bbe8fc"/></g><g fill="#fc9460"><path d="m237.749 256.345 7.316-2.885c.823-.324 1.732-.362 2.578-.107l8.431 2.543 8.431-2.543c.847-.255 1.756-.218 2.579.107l7.316 2.885c2.021.797 3.014 3.082 2.217 5.103-.795 2.015-3.075 3.016-5.103 2.217l-6.046-2.384-8.223 2.48c-.796.249-1.627.231-2.346-.001l-8.221-2.479-6.045 2.384c-2.018.794-4.303-.19-5.103-2.217-.795-2.021.198-4.306 2.219-5.103z"/><path d="m253.313 270.233h5.05c2.173 0 3.934 1.761 3.934 3.934s-1.761 3.934-3.934 3.934h-5.05c-2.173 0-3.934-1.761-3.934-3.934s1.761-3.934 3.934-3.934z"/><path d="m238.354 223.794 6.412-1.35c1.845-.386 3.559.376 4.377 1.942 1.374 2.13 3.889 3.37 6.759 3.37 2.868 0 5.382-1.239 6.725-3.316.849-1.62 2.566-2.381 4.409-1.996l6.411 1.35c2.206.465 3.623 2.638 3.159 4.843-.463 2.204-2.635 3.622-4.843 3.159l-3.574-.753c-.046-.01-.092-.014-.138-.014-.174 0-.344.068-.471.193-6.331 6.254-17.027 6.253-23.357.001-.16-.159-.39-.226-.61-.18l-3.574.753c-2.207.461-4.379-.955-4.843-3.159-.465-2.205.952-4.378 3.158-4.843z"/></g><path d="m394.509 64.897c-20.229 15.633-18.112 45.784-6.588 79.384 16.805 49-1.593 42.667-8.601 121.192-5.106 57.207 66.543 80.138 105.827 88.374 10.242-26.993 15.855-56.264 15.855-86.849 0-83.903-42.185-157.944-106.493-202.101z" fill="#2a428c"/><path d="m132.68 265.473c-7.009-78.526-25.407-72.192-8.601-121.192 11.524-33.6 13.64-63.75-6.588-79.384-64.308 44.157-106.493 118.198-106.493 202.101 0 30.585 5.613 59.856 15.855 86.849 39.285-8.236 110.933-31.167 105.827-88.374z" fill="#2a428c"/><path d="m316 322.382c-2.949 27.618-2.177 60.406 18.776 69.228 7.372-32.565 23.002-59.557 8.888-108.993-.001-.002-.001-.005-.002-.007-10.395 5.765-25.309 17.744-27.662 39.772z" fill="#fcf2c8"/></g></svg>