<svg id="Layer_1" enable-background="new 0 0 512 512" height="512" viewBox="0 0 512 512" width="512" xmlns="http://www.w3.org/2000/svg"><g><path d="m52.728 403.81c9.773 14.491 21.058 27.876 33.623 39.94l169.656-.007 169.656-.007c12.559-12.06 23.84-25.44 33.609-39.926l32.651-70.536c5.91-21.081 9.079-43.307 9.079-66.275 0-135.311-109.691-245.002-245.002-245.002s-245.002 109.69-245.002 245.001c0 22.968 3.169 45.195 9.079 66.275z" fill="#856ee5"/><path d="m174.809 119.821c1.452-2.437 2.944-4.802 4.467-7.106h-14.576c-9.906 0-18.895 5.847-22.869 14.921-5.316 12.14-9.499 24.794-12.504 37.796-3.324 14.383 6.436 28.165 20.502 30.316 2.79-26.749 11.148-52.711 24.98-75.927z" fill="#a8b7ef"/><path d="m382.672 165.433c-3.005-13.001-7.188-25.656-12.504-37.796-3.974-9.074-12.962-14.921-22.869-14.921h-14.576c1.523 2.304 3.015 4.669 4.467 7.106 13.832 23.215 22.19 49.177 24.98 75.928 14.067-2.152 23.826-15.935 20.502-30.317z" fill="#deeeff"/><path d="m462.029 318.476c-4.337 14.599-3.061 25.883 3.689 32.634 6.166 6.166 10.565 11.985 13.62 16.719 5.019-11.104 9.246-22.644 12.585-34.555-8.121-11.631-16.796-20.876-24.808-28.068-1.634 3.511-3.566 8.155-5.086 13.27z" fill="#bec8f7"/><path d="m466.779 350.048c-11.225-11.225-3.573-32.754 1.504-43.782-16.222-14.852-29.996-21.329-31.398-21.965l-7.852-3.565c7.016 21.587 14.247 52.005 18.178 86.361.303 2.645.322 5.25.101 7.793 5.142 8.803 9.126 18.46 11.96 28.921 7.986-11.843 14.958-24.425 20.805-37.617-3.072-4.647-7.382-10.229-13.298-16.146z" fill="#a8b7ef"/><path d="m49.971 318.475c4.337 14.599 3.062 25.883-3.689 32.634-6.166 6.166-10.565 11.985-13.62 16.719-5.019-11.104-9.246-22.644-12.585-34.555 8.121-11.631 16.796-20.876 24.808-28.068 1.634 3.512 3.566 8.156 5.086 13.27z" fill="#bec8f7"/><path d="m45.221 350.048c11.225-11.225 3.573-32.754-1.504-43.782 16.222-14.852 29.996-21.329 31.398-21.965l7.852-3.565c-7.016 21.587-14.247 52.005-18.178 86.361-.303 2.645-.323 5.25-.101 7.793-5.142 8.803-9.126 18.46-11.959 28.921-7.986-11.843-14.959-24.425-20.805-37.617 3.071-4.647 7.381-10.229 13.297-16.146z" fill="#a8b7ef"/><path d="m449.211 367.096c-4.045-35.35-11.585-66.56-18.787-88.241-5.242-15.78-20.075-26.373-36.702-26.373h-13.014c6.706 4.595 12.064 11.262 15.091 19.366 15.021 40.222 24.082 86.943 25.194 136.953 17.903-4.899 30.441-22.284 28.218-41.705z" fill="#deeeff"/><path d="m116.926 271.848c3.026-8.104 8.384-14.771 15.09-19.366h-13.706c-16.694 0-31.494 10.695-36.759 26.537-7.126 21.441-14.706 52.433-18.764 88.031-2.245 19.698 10.645 37.302 28.939 41.93 1.095-50.077 10.161-96.861 25.2-137.132z" fill="#d3dcfb"/><path d="m369.789 423.797.041-.174-.001-.178c-.001-.283-.158-28.688-2.702-59.111-3.439-41.126-9.418-66.215-17.771-74.567-7.634-7.634-9.597-17.007-5.834-27.858 2.567-7.403 7.061-13.051 8.03-14.216l4.38-2.128h-127.631c.498.423 1.017.835 1.582 1.225-2.651 3.074-8.462 10.984-8.539 21.339-.059 7.959 3.291 15.572 9.963 22.648-1.809 1.849-5.052 5.852-5.312 10.999-.199 3.954 1.386 7.728 4.713 11.229v96.491c-1.419 1.32-5.008 5.174-5.312 10.594-.228 4.055 1.419 8.026 4.896 11.82-2.109 3.252-8.471 13.816-11.988 27.948-3.323 13.352-4.466 32.088 6.386 50.148 10.253 1.31 20.701 1.994 31.31 1.994 50.586 0 97.578-15.348 136.608-41.618-30.18-13.49-23.156-45.152-22.819-46.585z" fill="#ff8f4a"/><path d="m426.335 419.25c0-53.949-9.564-104.39-26.171-147.401-6.137-15.893-21.532-26.283-38.568-26.283h-9.096l-1.888.917s-21.836 24.826-2.317 44.345 20.034 132.625 20.034 132.625-7.918 33.47 22.822 47.906c12.329-8.171 23.884-17.417 34.512-27.623.439-8.073.672-16.236.672-24.486z" fill="#fcb686"/><path d="m111.85 271.848c-16.607 43.011-26.171 93.452-26.171 147.402 0 8.255.233 16.423.672 24.5 37.366 35.874 86.083 60.009 140.226 66.491-23.405-37.181 5.631-78.497 5.631-78.497-11.999-11.999 0-21.569 0-21.569v-97.779c-11.32-11.32 1.238-21.569 1.238-21.569-23.111-23.11-1.238-44.345-1.238-44.345-.516-.297-.991-.605-1.446-.917h-80.344c-17.036 0-32.432 10.39-38.568 26.283z" fill="#fc6e42"/><path d="m341.051 114.641c-21.998-36.92-51.99-59.647-85.052-59.647-.501 0-1 .022-1.5.032v14.776c-3.257 3.793-24.224 30.277-.845 57.657-2.562 1.526-7.738 4.882-12.968 9.868-9.645 9.197-14.742 19.559-14.742 29.965v56.143c-.473.806-1.523 2.756-2.259 5.313h144.645v-13.5c0-35.362-9.178-70.228-27.279-100.607z" fill="#d3dcfb"/><path d="m227.446 167.292c0-24.423 28.554-39.442 28.554-39.442-26.585-29.246 0-57.482 0-57.482v-15.374c-33.062 0-63.054 22.728-85.052 59.647-18.101 30.379-27.278 65.245-27.278 100.607v13.5h81.588c.903-2.909 2.187-4.892 2.187-4.892s.001-32.141.001-56.564z" fill="#bec8f7"/><path d="m256 70.368c-7.261 0-13.202-5.941-13.202-13.202v-24.351c0-7.261 5.941-13.202 13.202-13.202 7.261 0 13.202 5.941 13.202 13.202v24.351c0 7.261-5.941 13.202-13.202 13.202z" fill="#deeeff"/><circle cx="256" cy="22.495" fill="#ff4155" r="22.495"/><ellipse cx="261.25" cy="17.556" fill="#ff7186" rx="9.806" ry="9.806" transform="matrix(.16 -.987 .987 .16 202.072 272.621)"/><path d="m336.931 167.23c-3.988-14.041-9.739-27.464-17.156-39.913-.028-.047-.056-.095-.085-.142-5.074-8.496-15.781-11.922-24.775-7.794-11.847 5.436-25.027 8.468-38.915 8.468-.974 0-1.944-.019-2.912-.048-2.709 1.655-7.531 4.882-12.401 9.525-9.645 9.197-14.742 19.559-14.742 29.965v56.143c-.473.806-1.523 2.756-2.259 5.313h119.523v-14.756c0-15.796-1.962-31.564-6.278-46.761z" fill="#6c5475"/><path d="m227.446 167.292c0-24.423 28.554-39.442 28.554-39.442-13.889 0-27.068-3.032-38.916-8.469-8.994-4.127-19.701-.702-24.775 7.795-.028.047-.056.095-.084.142-7.417 12.448-13.168 25.872-17.156 39.913-4.316 15.197-6.278 30.965-6.278 46.763v14.756h56.468c.903-2.909 2.187-4.892 2.187-4.892s0-32.143 0-56.566z" fill="#543e5b"/><g fill="#ff4155"><ellipse cx="214.723" cy="167.292" rx="17.887" ry="17.887" transform="matrix(.23 -.973 .973 .23 2.573 337.835)"/><ellipse cx="297.277" cy="167.292" rx="17.887" ry="17.887" transform="matrix(.707 -.707 .707 .707 -31.223 259.205)"/></g><path d="m367.906 223.857h-142.199c-1.151 2.085-3.849 7.842-2.4 13.854.837 3.476 2.916 6.413 6.164 8.771h138.435c6.054 0 11.007-4.953 11.007-11.007v-.611c0-6.054-4.953-11.007-11.007-11.007z" fill="#deeeff"/><path d="m227.446 223.857h-83.352c-6.054 0-11.007 4.953-11.007 11.007v.611c0 6.054 4.953 11.007 11.007 11.007h88.114c-14.155-8.149-4.762-22.625-4.762-22.625z" fill="#d3dcfb"/><path d="m368.162 421.962c-5.06.56-8.748-.375-10.965-2.792-3.675-4.009-2.331-10.96-2.317-11.026l.038-.189-5.16-96.309-.523-.42c-3.432-2.754-5.196-5.764-5.245-8.944-.086-5.626 5.154-10.206 5.277-10.311l1.242-1.048c-.732-.057-1.468-.095-2.213-.095h-117.037c-1.817 1.869-5.006 5.845-5.264 10.949-.199 3.954 1.386 7.728 4.713 11.229v96.491c-1.419 1.32-5.008 5.174-5.312 10.594-.224 3.996 1.38 7.91 4.754 11.653h118.145c8.632 0 16.393-3.898 21.626-10.014-.644.095-1.234.173-1.759.232z" fill="#d3dcfb"/><path d="m348.295 312.396 5.115 95.446s-3.614 17.68 14.919 15.61c5.205-5.167 8.44-12.314 8.44-20.182v-83.969c0-15.661-12.813-28.474-28.474-28.474 0 0-13.066 11.084 0 21.569z" fill="#deeeff"/><path d="m233.445 290.827h-69.741c-15.661 0-28.474 12.814-28.474 28.474v83.969c0 15.661 12.813 28.474 28.474 28.474h68.504c-11.999-11.999 0-21.569 0-21.569v-97.779c-11.319-11.318 1.234-21.566 1.237-21.569z" fill="#a8b7ef"/><path d="m348.296 312.396h-118.006v97.779h118.005c3.743 0 6.905-3.162 6.905-6.905v-83.969c.001-3.742-3.162-6.905-6.904-6.905z" fill="#876d93"/><path d="m232.208 312.396h-68.504c-3.743 0-6.905 3.162-6.905 6.905v83.969c0 3.743 3.162 6.905 6.905 6.905h68.504z" fill="#6c5475"/><path d="m270.018 383.21c-6.273 0-11.405-5.132-11.405-11.405v-21.037c0-6.273 5.132-11.405 11.405-11.405 6.273 0 11.406 5.133 11.406 11.405v21.037c-.001 6.272-5.133 11.405-11.406 11.405z" fill="#a98bbc"/><path d="m315.64 383.21c-6.273 0-11.405-5.132-11.405-11.405v-21.037c0-6.273 5.132-11.405 11.405-11.405 6.273 0 11.405 5.133 11.405 11.405v21.037c0 6.272-5.132 11.405-11.405 11.405z" fill="#a98bbc"/><circle cx="194.503" cy="361.286" fill="#73c3f9" r="18.662"/><g fill="#9787f4"><path d="m500.935 261.691c-2.21-103.964-69.176-191.982-162.186-225.354-2.918 14.962-2.255 38.097 23.697 51.71 40.667 21.333 53.957 47.527 46 97.13-7.181 44.766 43.224 89.921 92.489 76.514z"/><path d="m10.998 261.691c2.21-103.964 69.176-191.981 162.186-225.353 2.917 14.962 2.255 38.097-23.697 51.71-40.667 21.333-53.957 47.527-46 97.13 7.181 44.765-43.225 89.92-92.489 76.513z"/></g></g></svg>