<svg id="Layer_1" enable-background="new 0 0 512 512" height="512" viewBox="0 0 512 512" width="512" xmlns="http://www.w3.org/2000/svg"><g><path d="m13.655 303.126 99.169 162.69c11.362 8.197 23.452 15.447 36.159 21.628h214.031c12.708-6.18 24.797-13.431 36.16-21.628l99.169-162.69c1.743-11.791 2.657-23.852 2.657-36.128 0-135.311-109.691-245.002-245.002-245.002s-245.002 109.691-245.002 245.002c.002 12.276.917 24.337 2.659 36.128z" fill="#856ee5"/><path d="m362.934 427.566c-18.66 9.054-41.539 5.46-56.158-9.895-12.805-13.449-30.851-21.864-50.775-21.864-8.615 0-16.876 1.58-24.517 4.453 1.017.47 2.072.906 3.168 1.309-1.439 6.454-5.795 33.715 19.119 47.777-4.408 6.331-19.865 32.47.417 62.629.606.004 1.207.026 1.814.026 38.373 0 74.681-8.83 107.016-24.556v-56.658c-.002-1.08-.031-2.154-.084-3.221z" fill="#d3dcfb"/><path d="m256 448.846c-29.362-15.202-19.568-48.243-19.568-48.243-1.001-.335-1.959-.693-2.876-1.073-10.868 3.699-20.568 9.986-28.332 18.141-14.619 15.355-37.498 18.948-56.158 9.895-.053 1.067-.082 2.141-.082 3.22v56.658c32.335 15.726 68.643 24.556 107.016 24.556-23.862-34.382 0-63.154 0-63.154z" fill="#bec8f7"/><path d="m306.776 417.671c-12.805-13.449-30.851-21.864-50.775-21.864-8.615 0-16.876 1.58-24.517 4.453 1.017.47 2.072.906 3.168 1.309-1.423 6.38-5.675 33.082 18.29 47.278h24.565c16.483 0 30.158-12.629 31.83-28.689-.879-.794-1.735-1.619-2.561-2.487z" fill="#4b6bb2"/><path d="m236.432 400.603c-1.001-.335-1.959-.693-2.876-1.073-10.868 3.699-20.568 9.986-28.332 18.141-.826.868-1.682 1.693-2.559 2.485 1.672 16.06 15.347 28.689 31.83 28.689h21.505c-29.362-15.201-19.568-48.242-19.568-48.242z" fill="#3c58a0"/><path d="m77.936 391.043c-15.239 0-29.297-5.029-40.629-13.503 17.797 35.139 43.812 65.403 75.518 88.276l10.587-59.31c-5.844-6.889-10.73-14.61-14.454-22.954-9.301 4.784-19.844 7.491-31.022 7.491z" fill="#38c674"/><path d="m70.013 426.471c.531-1.367.941-2.801 1.208-4.296l5.562-31.161c-14.791-.248-28.429-5.213-39.473-13.467 8.936 17.643 19.943 34.056 32.703 48.924z" fill="#70f2a4"/><path d="m474.693 377.541c-11.333 8.473-25.39 13.502-40.629 13.502-11.178 0-21.722-2.707-31.022-7.49-3.725 8.343-8.61 16.064-14.454 22.954l10.587 59.31c31.707-22.874 57.722-53.138 75.518-88.276z" fill="#38c674"/><path d="m435.217 391.014 5.562 31.161c.267 1.495.677 2.929 1.208 4.296 12.76-14.868 23.767-31.281 32.703-48.923-11.044 8.253-24.682 13.219-39.473 13.466z" fill="#70f2a4"/><path d="m383.49 281.681c8.934-9.957 20.762-17.256 34.164-20.58-11.667-9.437-26.513-15.1-42.687-15.1-13.18 0-25.474 3.765-35.89 10.26 17.074 4.318 32.355 13.267 44.413 25.42z" fill="#d3dcfb"/><path d="m128.51 281.681c12.059-12.153 27.339-21.101 44.413-25.42-10.416-6.495-22.711-10.26-35.89-10.26-16.174 0-31.021 5.662-42.687 15.1 13.401 3.325 25.23 10.623 34.164 20.58z" fill="#d3dcfb"/><path d="m475.341 376.238c11.281-22.605 19.173-47.195 23.004-73.112-8.777-25.672-32.483-44.413-60.769-45.855-6.9 11.277-47.168 83.974 37.765 118.967z" fill="#3c58a0"/><path d="m475.999 374.884c-89.039-36.997-36.028-116.673-35.539-117.404-2.106-.197-4.237-.309-6.396-.309-20.586 0-39.019 9.169-51.478 23.631 16.549 17.189 26.763 40.515 26.763 66.113 0 13.416-2.81 26.206-7.862 37.817 9.673 5.296 20.772 8.311 32.577 8.311 14.505 0 27.938-4.56 38.973-12.306 1.016-1.934 1.997-3.889 2.962-5.853z" fill="#2a428c"/><g><path d="m36.659 376.238c-11.281-22.605-19.173-47.195-23.004-73.112 8.777-25.672 32.483-44.413 60.768-45.855 6.901 11.277 47.169 83.974-37.764 118.967z" fill="#3c58a0"/><path d="m36.001 374.884c89.039-36.997 36.028-116.673 35.539-117.404 2.106-.197 4.237-.309 6.396-.309 20.586 0 39.019 9.169 51.477 23.631-16.549 17.189-26.762 40.515-26.762 66.113 0 13.416 2.81 26.206 7.862 37.817-9.673 5.296-20.772 8.311-32.577 8.311-14.505 0-27.938-4.56-38.973-12.306-1.016-1.934-1.997-3.889-2.962-5.853z" fill="#2a428c"/></g><path d="m256 206.049c-2.238 0-4.457.081-6.656.239-.025 3.84 1.503 7.497 4.564 10.884-1.694 2.725-3.126 7.395-.047 11.432l-18.38 21.644c-.836.438-3.307 1.799-6.435 4.081h86.757c7.946 0 15.672.99 23.065 2.842-15.344-30.258-46.786-51.122-82.868-51.122z" fill="#3c58a0"/><path d="m255.84 228.59c-5.157-5.157 0-11.562 0-11.562-3.817-3.817-5.044-7.548-4.998-10.821-33.902 1.881-63.103 22.158-77.711 50.963 7.393-1.852 15.119-2.842 23.065-2.842h35.487c2.818-1.917 4.749-2.883 4.749-2.883z" fill="#2a428c"/><path d="m245.311 181.987 8.767 12.922c-1.571 1.773-4.631 5.891-4.74 11.182-.081 3.912 1.456 7.636 4.57 11.081-1.694 2.725-3.126 7.395-.047 11.432l-18.38 21.644c-.712.373-2.606 1.412-5.083 3.12h73.52v-71.381z" fill="#d3dcfb"/><path d="m208.082 253.368h25.059c2.005-1.279 3.292-1.922 3.292-1.922l19.408-22.855c-5.157-5.157 0-11.562 0-11.562-11.355-11.356.159-21.959.159-21.959l-8.876-13.083h-39.042z" fill="#bec8f7"/><path d="m275.568 253.368v-5.21c0-10.807-8.761-19.568-19.568-19.568s-19.568 8.761-19.568 19.568v5.21z" fill="#a8b7ef"/><path d="m228.362 149.93c-12.731-1.065-26.32-2.938-40.561-5.934v20.491c0 8.338 3.798 16.223 10.318 21.42l27.066 21.577c1.016.81 2.078 1.551 3.178 2.221v-59.775z" fill="#3c58a0"/><path d="m283.638 149.939v59.766c1.1-.67 2.162-1.411 3.178-2.221l27.066-21.577c6.52-5.197 10.318-13.082 10.318-21.42v-20.588c-6.851 1.434-21.029 4.401-40.562 6.04z" fill="#6289cc"/><path d="m285.423 149.784c-16.167 1.447-36.171 2.013-58.846-.007v58.746c5.192 3.68 11.407 5.674 17.799 5.674h23.248c6.392 0 12.607-1.995 17.799-5.674z" fill="#4b6bb2"/><path d="m177.548 128.167c0-.462-.221-.895-.594-1.166-2.251-1.636-3.595-4.269-3.595-7.044v-22.954c0-2.768 1.344-5.4 3.596-7.038.373-.271.593-.705.593-1.166v-8.908c0-4.959.496-9.862 1.413-14.662h-4.423c-9.252 0-16.822 7.57-16.822 16.822v34.423c0 9.252 7.57 16.822 16.822 16.822h3.01z" fill="#bec8f7"/><path d="m337.462 65.23h-4.423c.917 4.8 1.413 9.703 1.413 14.662v8.908c0 .461.22.894.593 1.166 2.252 1.638 3.596 4.27 3.596 7.038v22.954c0 2.775-1.344 5.408-3.595 7.044-.374.271-.594.705-.594 1.166v5.13h3.01c9.252 0 16.822-7.57 16.822-16.822v-34.424c0-9.252-7.57-16.822-16.822-16.822z" fill="#d3dcfb"/><path d="m309.005 20.138c-8.535 6.073-18.59 16.059-22.697 31.05-2.032 7.419-8.843 12.601-16.562 12.601h-21.604c.085.215.164.43.252.646-2.481 1.168-7.407 4.052-9.555 9.286-1.568 3.82-1.342 8.088.669 12.699-4.85 4.076-25.847 23.825-13.004 50.401-1.334 1.284-3.63 3.969-4.014 7.523-.266 2.463.425 4.868 2.043 7.165 57.993 5.527 99.019-5.965 103.821-6.492 4.163 0 7.539-3.375 7.539-7.539v-57.585c0-23.78-10.401-45.121-26.888-59.755z" fill="#deeeff"/><path d="m228.363 137.185c-15.167-29.53 13-50.333 13-50.333-7.75-15.78 9-21.621 9-21.621-.213-.482-.411-.962-.606-1.441h-7.504c-7.719 0-14.53-5.182-16.562-12.601-4.106-14.991-14.161-24.978-22.696-31.051-16.487 14.635-26.887 35.976-26.887 59.755v57.586c0 4.163 3.375 7.539 7.539 7.539 15.086 3.377 29.475 5.483 42.929 6.682-6.844-7.992 1.787-14.515 1.787-14.515z" fill="#d3dcfb"/><path d="m338.9 124.698c.755-1.425 1.183-3.041 1.183-4.741v-22.954c0-5.606-4.545-10.151-10.152-10.151h-27.292z" fill="#91f9bb"/><path d="m261.48 86.852h-22.476c-5.634 4.895-24.938 24.23-12.499 49.97-.056.054-.122.124-.181.184 26.919 2.298 54.039 1.47 80.812-2.501z" fill="#50dd89"/><path d="m241.362 86.852h-59.293c-5.607 0-10.152 4.545-10.152 10.151v22.954c0 4.752 3.297 8.869 7.934 9.906 16.02 3.586 32.23 6.021 48.508 7.316-15.16-29.528 13.003-50.327 13.003-50.327z" fill="#38c674"/><path d="m267.908.891c-8.212 7.13-32.518 31.731-19.513 63.544-.443.208-.966.474-1.535.796h22.888c8.374 0 15.74-5.584 17.952-13.661 4.018-14.667 14.04-24.474 22.444-30.409-11.479-10.588-26.065-17.851-42.236-20.27z" fill="#bec8f7"/><path d="m269.822 1.214c-4.491-.784-9.105-1.214-13.822-1.214-20.894 0-39.907 8.029-54.144 21.16 8.404 5.935 18.427 15.742 22.444 30.409 2.212 8.077 9.577 13.661 17.952 13.661h8.11c-14.617-33.167 12.555-58.328 19.46-64.016z" fill="#a8b7ef"/><path d="m288.261 200.005c-.015-.013-.031-.025-.047-.038l-3.357-2.69c-1.783-1.429-3.999-2.207-6.284-2.207h-23.384c-2.473 2.773-9.216 12.004-.17 21.942.274.004.547.015.822.015 11.021 0 22.166-3.129 31.97-9.626 2.56-1.696 2.836-5.461.45-7.396z" fill="#deeeff"/><path d="m256 195.07h-22.304c-2.285 0-4.501.778-6.284 2.207l-3.357 2.69c-.189.151-.372.309-.548.473-2.162 2.008-1.761 5.578.709 7.191 9.357 6.109 20.346 9.397 31.625 9.397-11.352-11.352.153-21.952.159-21.958z" fill="#d3dcfb"/><path d="m394.614 293.208c-17.237-25.166-46.178-41.762-78.811-41.762h-82.433c-5.417 3.266-18.437 12.455-23.253 27.733-3.502 11.106-1.881 23.076 4.814 35.581v39.378c-.731 2.244-5.469 18.051 1.234 31.662 3.504 7.114 9.529 12.333 17.913 15.546 6.905-2.289 14.272-3.539 21.92-3.539 19.924 0 37.97 8.415 50.775 21.864 16.229 17.045 42.64 19.605 62.154 6.449 10.745-7.244 19.945-16.618 27.005-27.494z" fill="#6289cc"/><path d="m236.432 251.446h-40.236c-52.507 0-95.468 42.961-95.468 95.468 0 32.883 16.85 62.02 42.341 79.206 19.515 13.156 45.925 10.597 62.154-6.449 8.441-8.866 19.168-15.522 31.201-19.045.004-.015.007-.023.007-.023-32.263-10.779-20-46.221-20-46.221v-40c-22.595-41.667 20.001-62.936 20.001-62.936z" fill="#4b6bb2"/><path d="m11.528 251.058c30.383-30.702 76.419-25.8 118.966-33.506 21.371-3.871 51.22-22.482 4.221-75.915-28.871-32.823-8.98-71.6 3.059-89.265-71.198 39.305-120.741 112.997-126.246 198.686z" fill="#9787f4"/><path d="m500.472 251.058c-5.505-85.689-55.048-159.381-126.246-198.685 12.04 17.664 31.93 56.441 3.059 89.265-46.998 53.433-17.15 72.044 4.221 75.915 42.547 7.705 88.583 2.803 118.966 33.505z" fill="#9787f4"/><path d="m216.432 354.382h-38.716c-11 0-20-9-20-20 0-11 9-20 20-20h38.716c11 0 20 9 20 20 0 11-9 20-20 20z" fill="#49b1f7"/><path d="m216.753 314.398c-10.852.175-19.679 9.092-19.679 19.983 0 10.892 8.827 19.809 19.679 19.983 10.852-.175 19.679-9.092 19.679-19.983 0-10.891-8.827-19.808-19.679-19.983z" fill="#73c3f9"/><path d="m304.567 86.852h-45.015l45.892 47.899c8.945-1.282 17.854-2.906 26.704-4.887 3.493-.782 6.224-3.311 7.36-6.542z" fill="#70f2a4"/><path d="m394.614 293.201c-16.432-23.985-53.693-16.638-59.945 11.755-2.632 11.951-4.056 24.727-4.056 38.003 0 15.941 2.054 31.162 5.786 45.1 7.556 28.222 45.366 33.819 60.558 8.864 8.583-14.097 14.314-31.314 14.314-50.01 0-19.876-6.156-38.384-16.657-53.712z" fill="#79a3e0"/></g></svg>