<svg id="Layer_1" enable-background="new 0 0 512 512" height="512" viewBox="0 0 512 512" width="512" xmlns="http://www.w3.org/2000/svg"><g><path d="m115.909 468.003c19.682 13.743 41.474 24.665 64.796 32.19h150.591c23.322-7.525 45.113-18.447 64.795-32.19l101.889-162.495c1.981-12.547 3.022-25.406 3.022-38.51 0-135.311-109.691-245.002-245.002-245.002s-245.002 109.691-245.002 245.002c0 13.104 1.04 25.963 3.021 38.51z" fill="#1c2e7a"/><path d="m85.472 371.873c-.503 1.319-1.058 2.654-1.679 4.009 1.534 2.46 6.242 10.828 7.545 22.73 1.107 10.103-.213 24.316-10.503 39.65-14.469-14.791-27.09-31.396-37.462-49.463 3.517.025 7.088-.518 10.582-1.702 11.193-3.792 21.759-8.935 31.517-15.224z" fill="#deeeff"/><path d="m79.771 437.183c21.953-32.882 2.313-61.181 2.313-61.181.445-.943.852-1.866 1.232-2.776 8.214-5.09 15.883-10.975 22.886-17.563 13.498 10.849 21.833 17.917 27.596 22.757 1.146 14.216.238 30.01-3.053 46.317-3.239 16.047-8.412 30.739-14.837 43.266-13.027-9.097-25.128-19.427-36.137-30.82z" fill="#bec8f7"/><path d="m164.182 344.491c-16.231-26.766-17.115-30.08-22.913-36.537l-1.578-1.757c-.843 1.54-9.408 26.864-34.644 50.535 36.684 29.427 36.312 31.612 46.865 36.05z" fill="#73c3f9"/><path d="m71.438 328.634c2.966 1.46 11.303 6.315 15.213 16.302 3.336 8.517 2.555 18.488-2.293 29.657-9.449 5.961-19.637 10.857-30.402 14.504-3.106 1.052-6.273 1.6-9.41 1.693-7.145-12.179-13.272-25.026-18.256-38.432 16.962-6.561 32.358-16.256 45.494-28.366-.057 1.503-.166 3.045-.346 4.642z" fill="#49b1f7"/><path d="m113.169 255.761c13.825 3.416 26.33 10.18 36.579 19.413-6.605 42.762-32.087 79.275-67.654 100.805 16.447-34.862-12.277-46.438-12.277-46.438.182-1.415.313-2.79.398-4.129 20.445-18.3 35.621-42.363 42.954-69.651z" fill="#3d9cea"/><path d="m33.544 277.199c6.665 1.433 42.095 10.978 37.949 50.881-12.907 11.395-27.875 20.509-44.281 26.702-6.032-15.711-10.496-32.197-13.192-49.274 4.55-10.723 11.245-20.334 19.524-28.309z" fill="#70f2a4"/><path d="m32.245 278.472c15.146-15.217 35.939-24.803 58.856-25.206 8.484-.15 16.69.94 24.451 3.099-7.459 28.928-23.715 54.312-45.733 73.158 5.692-44.324-37.572-51.051-37.574-51.051z" fill="#38c674"/><path d="m426.527 371.873c.503 1.319 1.058 2.654 1.679 4.009-1.534 2.46-6.242 10.828-7.545 22.73-1.107 10.103.213 24.316 10.503 39.65 14.469-14.791 27.09-31.396 37.462-49.463-3.517.025-7.088-.518-10.582-1.702-11.193-3.792-21.759-8.935-31.517-15.224z" fill="#deeeff"/><path d="m432.229 437.183c-21.953-32.882-2.313-61.181-2.313-61.181-.445-.943-.852-1.866-1.232-2.776-8.214-5.09-15.883-10.975-22.887-17.563-13.498 10.849-21.833 17.917-27.596 22.757-1.146 14.216-.238 30.01 3.053 46.317 3.239 16.047 8.412 30.739 14.837 43.266 13.028-9.097 25.129-19.427 36.138-30.82z" fill="#bec8f7"/><path d="m372.31 306.198c-.909 1.09-4.345 4.415-7.769 10.173l-16.723 28.12 12.27 48.292c10.628-4.47 11.303-7.523 46.865-36.05-25.069-23.516-33.736-48.878-34.643-50.535z" fill="#73c3f9"/><path d="m440.561 328.634c-2.966 1.46-11.303 6.315-15.213 16.302-3.336 8.517-2.555 18.488 2.293 29.657 9.449 5.961 19.637 10.857 30.402 14.504 3.106 1.052 6.273 1.6 9.41 1.693 7.146-12.179 13.272-25.026 18.256-38.432-16.962-6.561-32.358-16.256-45.494-28.366.058 1.503.167 3.045.346 4.642z" fill="#49b1f7"/><path d="m398.831 255.761c-13.825 3.416-26.33 10.18-36.579 19.413 6.605 42.762 32.087 79.275 67.654 100.805-16.448-34.862 12.276-46.438 12.276-46.438-.182-1.415-.313-2.79-.398-4.129-20.444-18.3-35.62-42.363-42.953-69.651z" fill="#3d9cea"/><path d="m478.456 277.199c-6.665 1.433-42.095 10.978-37.949 50.881 12.907 11.395 27.875 20.509 44.281 26.702 6.032-15.711 10.496-32.197 13.192-49.274-4.55-10.723-11.245-20.334-19.524-28.309z" fill="#70f2a4"/><path d="m479.754 278.472c-15.146-15.217-35.939-24.803-58.856-25.206-8.484-.15-16.69.94-24.452 3.099 7.46 28.928 23.715 54.312 45.733 73.158-5.69-44.324 37.574-51.051 37.575-51.051z" fill="#38c674"/><path d="m297.003 230.162h-42.503v12.19c-.012.606-.18 14.557 8.414 20.315.075 3.696-.096 19.897-8.335 28.137l-.389.389-.215 2.612c33.838.494 68.068-10.98 83.474-34.531-5.705-16.873-21.711-29.112-40.446-29.112z" fill="#bec8f7"/><path d="m255.64 291.865c9.889-9.889 8.748-30.044 8.748-30.044-8.667-5.061-8.388-19.439-8.388-19.439v-12.22h-41.003c-18.735 0-34.74 12.238-40.446 29.112 14.964 22.871 47.894 34.413 80.927 34.549z" fill="#a8b7ef"/><path d="m362.792 397.33-13.713-53.967-22.829 38.387c-5.534 9.305-15.561 15.008-26.387 15.008-9.864 0-33.03 0-54.386 0l-.127 1.54c-1.541 3.228-15.463 33.989-5.184 70.115 5.35 18.802 8.939 33.521 11.192 43.541 1.544.029 3.09.046 4.641.046 26.272 0 51.571-4.152 75.296-11.807l20.113-47.802c1.298-3.085 2.754-6.107 4.491-8.968 8.363-13.771 10.886-30.378 6.893-46.093z" fill="#70f2a4"/><path d="m241.61 468.003c-10.778-37.879 5.213-69.302 5.213-69.302l.16-1.943c-13.424 0-26.279 0-34.846 0-10.826 0-20.853-5.703-26.387-15.008l-22.828-38.387-13.713 53.967c-3.993 15.715-1.471 32.322 6.892 46.093 1.737 2.86 3.193 5.883 4.491 8.968l20.113 47.803c22.791 7.354 47.038 11.463 72.201 11.776-2.247-10.019-5.859-24.857-11.296-43.967z" fill="#38c674"/><path d="m333.28 104.48c-2.121 5.044-5.626 9.386-10.122 12.504-18.4 12.761-46.373 18.107-59.654 20.022-4.977.718-10.032.718-15.009 0-13.281-1.915-41.254-7.261-59.654-20.022-4.496-3.118-8.001-7.461-10.122-12.504l-2.232-5.307c-3.257 15.441 2.437 26.147 2.437 26.147l.99 3.177c5.045 6.057 32.191 34.655 76.086 35.632 43.895-.977 71.041-29.575 76.086-35.632l.99-3.177s5.695-10.706 2.437-26.147z" fill="#49b1f7"/><path d="m271.926 135.621-3.295 27.43c25.055-3.707 43.502-16.058 54.059-25.198l-5.164-17.347c-14.493 8.212-32.749 12.748-45.6 15.115z" fill="#73c3f9"/><path d="m194.475 120.506-5.164 17.347c10.557 9.139 29.004 21.491 54.059 25.198l-3.295-27.43c-12.853-2.367-31.108-6.903-45.6-15.115z" fill="#73c3f9"/><path d="m336.877 127.138-3.801-1.818s-25.908 34.975-77.075 34.975c-.777 0-1.53-.033-2.295-.049.258.251.514.504.795.749v81.357c-.011.579-.158 13.3 7.293 19.469h10.308c6.861 0 13.294-3.332 17.252-8.936l8.099-11.466 23.428-22.374c14.924-14.253 23.368-33.992 23.368-54.629v-25.582c-.001-4.992-2.868-9.542-7.372-11.696z" fill="#deeeff"/><path d="m256 160.295c-51.168 0-77.075-34.975-77.075-34.975l-3.801 1.818c-4.504 2.154-7.371 6.704-7.371 11.696v25.582c0 20.637 8.443 40.376 23.368 54.629l23.428 22.374 8.099 11.466c3.958 5.604 10.391 8.936 17.252 8.936h24.489c-8.667-5.061-8.388-19.439-8.388-19.439v-82.087z" fill="#d3dcfb"/><path d="m335.352 50.651c-9.783-11.018-29.735-30.474-54.86-39.021-2.099.983-4.327 2.101-6.622 3.367-10.482 5.779-24.272 15.786-30.44 30.642-5.816 14.008-3.983 29.792 5.447 46.931-2.314 2.709-9.026 11.619-8.375 23.15.48 8.536 4.896 16.503 13.116 23.707 3.3.149 6.61-.005 9.886-.478 13.28-1.915 41.254-7.261 59.654-20.022 4.496-3.118 8.001-7.461 10.122-12.504l6.599-15.691c1.361-3.236 2.062-6.711 2.062-10.221v-12.425c0-6.42-2.326-12.634-6.589-17.435z" fill="#deeeff"/><path d="m282.533 12.346c-8.312-3.054-17.216-4.953-26.533-4.953-36.399 0-66.561 28.852-79.352 43.257-4.263 4.801-6.589 11.015-6.589 17.436v12.425c0 3.51.701 6.985 2.062 10.221l6.599 15.691c2.121 5.043 5.626 9.386 10.122 12.504 18.4 12.761 46.373 18.107 59.654 20.022 2.489.359 4.997.539 7.505.539-28.138-23.144-5.292-46.715-5.292-46.715-26.281-46.528 10.617-70.854 31.824-80.427z" fill="#bec8f7"/><path d="m311.959 30.505c-5.09-5.733-14.083-14.709-25.565-21.443-3.559 1.434-7.906 3.389-12.524 5.935-10.482 5.779-24.272 15.786-30.44 30.642-5.808 13.986-3.987 29.744 5.406 46.853.662.104 1.287.198 1.872.282 3.51.506 7.075.506 10.584 0 9.365-1.351 29.092-5.12 42.068-14.119 3.171-2.199 5.642-5.261 7.138-8.818l4.654-11.065c.96-2.282 1.454-4.732 1.454-7.208v-8.762c0-4.529-1.641-8.911-4.647-12.297z" fill="#73c3f9"/><path d="m256 0c-25.669 0-46.939 20.346-55.959 30.505-3.006 3.385-4.646 7.768-4.646 12.295v8.762c0 2.476.494 4.926 1.454 7.208l4.654 11.065c1.496 3.557 3.967 6.619 7.138 8.818 12.976 8.999 32.702 12.769 42.068 14.119-28.742-50.887 18.085-75.217 37.305-82.734-9.215-5.683-20.142-10.038-32.014-10.038z" fill="#49b1f7"/><path d="m311.825 280.259s.119-.629.345-1.788c-16.831 9.545-38.77 13.983-60.356 13.321-9.787 8.808-45.502 46.947-8.268 106.467-.144.137-.297.285-.456.441h56.774c10.826 0 20.853-5.703 26.387-15.008l29.803-50.117c-44.891-2.154-44.229-53.316-44.229-53.316z" fill="#d3dcfb"/><path d="m356.007 333.655 9.823-16.518c9.379-15.771 26.372-25.436 44.721-25.436 5.515 0 9.296-5.558 7.27-10.688l-10.641-26.944c-1.461-3.7-5.123-6.051-9.096-5.841l-54.773 2.901c-3.201.17-6.056 1.999-7.625 4.794-5.815 10.352-15.302 18.458-26.863 24.335.002.001-.697 53.397 47.184 53.397z" fill="#deeeff"/><path d="m255.64 291.865c.001-.001.001-.003.001-.003-32.995-.091-65.918-12.073-79.326-35.936-1.571-2.796-4.425-4.627-7.627-4.797l-54.773-2.902c-3.972-.21-7.635 2.141-9.096 5.841l-10.641 26.944c-2.026 5.13 1.755 10.688 7.27 10.688 18.35 0 35.342 9.665 44.722 25.436l39.579 66.556c5.534 9.305 15.561 15.008 26.387 15.008h34.686c-43.819-67.841 8.818-106.835 8.818-106.835z" fill="#bec8f7"/><g fill="#2a428c"><path d="m407.226 74.225c-18.508 14.838-35.886 34.423-35.886 55.661 0 45.434 2.107 75.464 39.763 84.604 27.595 6.697 65.887 10.712 89.355 36.354-4.664-71.635-40.096-134.877-93.232-176.619z"/><path d="m11.542 250.843c23.468-25.642 61.76-29.657 89.355-36.354 37.657-9.14 39.763-39.169 39.763-84.604 0-21.238-17.377-40.823-35.886-55.661-53.136 41.743-88.568 104.985-93.232 176.619z"/></g></g></svg>