<svg id="Layer_1" enable-background="new 0 0 512 512" height="512" viewBox="0 0 512 512" width="512" xmlns="http://www.w3.org/2000/svg"><g><path d="m487.457 347.485c8.766-25.212 13.545-52.29 13.545-80.487 0-135.311-109.691-245.002-245.002-245.002s-245.002 109.691-245.002 245.002c0 28.198 4.779 55.276 13.545 80.488z" fill="#856ee5"/><path d="m416.632 300.851c-7.425-.607-11.374-3.487-20.124-8.42-19.262-10.861-38.808-19.235-59.914-24.931-7.014-1.893-12.995-6.64-16.015-13.248-.822-1.799-1.543-3.68-2.191-5.604-1.35 1.824-2.651 3.686-3.867 5.606-21.358 33.716-58.521 33.579-58.521 33.579s-7.693.017-18.08-3.122c-5.797 6.835-17.62 18.354-34.364 22.739-3.001.786-6.602 1.589-10.771 2.519-29.894 6.666-85.535 19.074-85.535 66.53v85.168c21.195 16.223 45.119 29.053 70.958 37.704l67.536 12.415c3.401.14 6.819.213 10.255.213s6.855-.072 10.257-.212l67.536-12.414c25.501-8.537 49.137-21.145 70.124-37.067v-75.726c0-5.476 3.616-8.698 7-9.889 3.392-1.192 8.237-.94 11.671 3.336 8.286 10.323 17.6 24.683 23.123 41.979 17.982-21.985 32.227-47.147 41.746-74.523-12.413-23.85-33.902-43.613-70.824-46.632z" fill="#38c674"/><path d="m213.631 468.003c-21.114 0-38.389-17.275-38.389-38.389v-38.74c0-21.114 17.275-38.389 38.389-38.389 21.114 0 38.389 17.275 38.389 38.389v38.74c-.001 21.114-17.275 38.389-38.389 38.389z" fill="#50dd89"/><path d="m367.646 468.003c-21.114 0-38.389-17.275-38.389-38.389v-38.74c0-21.114 17.275-38.389 38.389-38.389 21.114 0 38.389 17.275 38.389 38.389v38.74c0 21.114-17.275 38.389-38.389 38.389z" fill="#50dd89"/><path d="m446.854 420.609c-5.521-16.8-14.586-30.915-23.097-41.518-7.091-8.834-21.341-3.838-21.341 7.491v76.855c16.551-12.359 31.489-26.757 44.438-42.828z" fill="#2ab663"/><path d="m197.479 254.255c-1.217-1.92-2.518-3.783-3.868-5.606-.648 1.923-1.368 3.803-2.19 5.602-3.021 6.609-9.001 11.357-16.017 13.25-21.104 5.695-40.651 14.069-59.912 24.93-8.75 4.934-12.699 7.814-20.124 8.421-36.922 3.018-58.411 22.783-70.825 46.634 16.117 46.352 45.762 86.373 84.207 115.334 0-24.632 0-57.931 0-86.319 0-52.573 70-61 95.187-67.598 17.626-4.617 29.826-16.815 35.568-23.726-12.628-3.529-29.879-11.748-42.026-30.922z" fill="#2ab663"/><path d="m408.872 429.073c-3.534-.567-6.861 1.839-7.428 5.373-4.016 25.02-22.665 37.184-57.011 37.184-13.606 0-32.188-4.173-53.741-12.068-16.872-6.18-28.208-22.438-28.208-40.454v-86.51l45.581-23.695c3.177-1.651 4.414-5.565 2.762-8.741-1.65-3.177-5.567-4.413-8.741-2.762l-46.086 23.956-46.084-23.957c-3.175-1.652-7.09-.416-8.741 2.762-1.652 3.176-.415 7.091 2.762 8.741l45.581 23.695v86.51c0 18.017-11.336 34.274-28.209 40.454-21.552 7.895-40.135 12.068-53.74 12.068-34.348 0-52.996-12.163-57.011-37.184-.567-3.535-3.895-5.94-7.428-5.373-3.535.567-5.941 3.893-5.374 7.428 2.615 16.295 10.295 28.677 22.827 36.801 11.559 7.494 27.367 11.293 46.986 11.293 15.326 0 34.907-4.327 58.2-12.86 13.262-4.858 23.889-14.499 30.233-26.534 6.343 12.034 16.97 21.676 30.232 26.534 23.293 8.533 42.874 12.86 58.201 12.86 19.618 0 35.427-3.799 46.985-11.293 12.532-8.124 20.212-20.506 22.827-36.801.565-3.534-1.84-6.86-5.375-7.427z" fill="#1ba552"/><path d="m359.337 452.365c3.697-.768 6.273-3.948 6.273-7.656 0-3.624-2.525-6.867-6.273-7.645-4.612-.952-9.331 2.551-9.331 7.645 0 4.7 4.217 8.593 9.331 7.656z" fill="#1ba552"/><path d="m155.719 452.365c3.697-.768 6.273-3.948 6.273-7.656 0-3.624-2.525-6.867-6.273-7.645-4.612-.952-9.33 2.551-9.33 7.645 0 4.7 4.217 8.593 9.33 7.656z" fill="#1ba552"/><g fill="#2ab663"><ellipse cx="152.624" cy="326.374" rx="15.374" ry="15.374" transform="matrix(.23 -.973 .973 .23 -200.085 399.93)"/><circle cx="122.445" cy="347.319" r="23.944"/><circle cx="110.875" cy="382.125" r="16.625"/></g><g><path d="m203.97 407.562c3.851 4.15 9.289 6.469 14.965 6.306 5.662-.143 10.997-2.715 14.637-7.057l5.017-7.031-75.389-78.863c-11.956 13.064-16.825 25.872-10.069 32.629 8.617 8.618 35.551 37.542 50.839 54.016z" fill="#9b4d2f"/></g><path d="m238.012 399.178-5.59 6.67c-7.053 8.415-19.884 8.743-27.353.695-16.399-17.672-42.358-45.537-50.878-54.057-8.608-8.608 2.071-22.424 9.984-30.547l-35.215-36.838c-5.053-5.285-12.923-6.741-19.532-3.613l-35.547 16.825c-3.964 1.876-4.927 7.083-1.897 10.253l194.272 203.223c23.523-.969 46.185-5.266 67.539-12.414z" fill="#894029"/><path d="m383.25 362.431c-12.712-8.697-29.635-6.902-40.237 4.271l-109.328 115.18c-7.171 7.555-9.943 18.099-7.417 28.204l.029.117c6.41.776 12.894 1.314 19.448 1.584l140.693-147.176z" fill="#ad5c38"/><path d="m438.119 298.312-35.547-16.825c-6.609-3.128-14.479-1.672-19.532 3.613l-204.833 214.271c15.898 5.323 32.521 9.062 49.684 11.026l-.169-.676c-2.388-9.553.271-19.665 7.05-26.807l109.328-115.181c10.038-10.575 26.269-12.298 38.303-4.065l2.984 2.042 54.628-57.145c3.032-3.17 2.068-8.377-1.896-10.253z" fill="#9b4d2f"/><path d="m77.797 147.597c-2.905-13.941-8.098-24.341-14.594-31.793-32.702 41.642-52.204 94.141-52.204 151.195 0 3.696.087 7.373.249 11.029 36.901-3.784 77.677-12.019 95.444-29.787 28.86-28.861-18.547-50.992-28.895-100.644z" fill="#9787f4"/><path d="m432.504 147.597c-10.348 49.653-57.755 71.783-28.895 100.644 18.039 18.039 59.795 26.251 97.134 29.956.167-3.712.258-7.444.258-11.198 0-57.515-19.827-110.393-53.007-152.194-6.914 7.51-12.452 18.215-15.49 32.792z" fill="#9787f4"/><path d="m133.918 121.143c4.22-4.269 3.462-11.559 3.359-12.394l-1.653-6.039c1.449 1.381 2.894 2.971 4.317 4.829 7.841 10.23 7.112 18.151 5.119 22.994-1.592 3.869-1.593 8.242-.003 11.996 1.589 3.752 4.554 6.655 9.208 8.077-1.498 10.447-1.992 19.987-1.706 28.675-21.117-6.476-25.436-28.625-26.045-42.051-.201-4.436-1.189-8.76-2.792-12.872 4.476.164 7.908-.9 10.196-3.215z" fill="#1ba552"/><path d="m116.427 95.142c.002-.14.021-.274.03-.412 5.879-.144 13.782 1.776 21.341 10.237l.954 3.484s2.644 17.651-14.452 17.436c-.771-2.221-1.724-4.385-2.839-6.474-4.293-8.038-5.142-17.431-5.034-24.271z" fill="#2ab663"/><path d="m137.501 106.906c.438.028.858.045 1.249.045 3.242 0 5.609-.893 7.035-2.653 2.167-2.675 1.734-6.721 1.556-7.875l-2.206-2.803c4.194 2.368 7.753 4.902 10.484 7.067-.133 4.352.678 8.553 1.685 12.002 1.812 6.204 2.056 12.767.566 19.056-1.694 7.149-2.942 13.926-3.812 20.359-.661-.195-1.305-.405-1.912-.647-8.408-3.351-11.918-13.125-8.473-21.495 1.955-4.75 2.338-12.036-4.923-21.51-.414-.542-.831-1.048-1.249-1.546z" fill="#38c674"/><path d="m116.42 96.184c.001-.352.001-.702.007-1.042.087-5.54 5.186-9.621 10.614-8.504 8.434 1.736 15.892 5.438 21.713 9.153.001.002 2.747 12.66-10.002 12.66-7.88-10.28-16.287-12.437-22.332-12.267z" fill="#50dd89"/><path d="m378.083 121.143c-4.22-4.269-3.462-11.559-3.359-12.394l1.653-6.039c-1.449 1.381-2.894 2.971-4.317 4.829-7.841 10.23-7.112 18.151-5.119 22.994 1.592 3.869 1.593 8.242.003 11.996-1.589 3.752-4.555 6.655-9.208 8.077 1.497 10.447 1.992 19.987 1.706 28.675 21.117-6.476 25.436-28.625 26.045-42.051.201-4.436 1.19-8.76 2.792-12.872-4.476.164-7.908-.9-10.196-3.215z" fill="#1ba552"/><path d="m395.574 95.142c-.002-.14-.021-.274-.03-.412-5.879-.144-13.782 1.776-21.341 10.237l-.954 3.484s-2.644 17.651 14.452 17.436c.771-2.221 1.724-4.385 2.839-6.474 4.293-8.038 5.142-17.431 5.034-24.271z" fill="#2ab663"/><path d="m374.5 106.906c-.438.028-.858.045-1.25.045-3.242 0-5.609-.893-7.035-2.653-2.167-2.675-1.734-6.721-1.556-7.875l2.206-2.803c-4.194 2.368-7.753 4.902-10.484 7.067.133 4.352-.678 8.553-1.685 12.002-1.812 6.204-2.056 12.767-.566 19.056 1.694 7.149 2.942 13.926 3.812 20.359.661-.195 1.305-.405 1.912-.647 8.408-3.351 11.918-13.125 8.473-21.495-1.955-4.75-2.338-12.036 4.923-21.51.415-.542.832-1.048 1.25-1.546z" fill="#38c674"/><path d="m395.581 96.184c0-.352-.001-.702-.007-1.042-.087-5.54-5.186-9.621-10.614-8.504-8.434 1.736-15.892 5.438-21.713 9.153 0 0-2.747 12.66 10.002 12.66 7.879-10.28 16.287-12.437 22.332-12.267z" fill="#50dd89"/><path d="m356.13 131.745c-1.49-6.289-1.246-12.852.566-19.056 2.464-8.437 3.756-21.373-7.077-30.015-3.251-2.594-5.887-5.865-7.56-9.672-7.247-16.488-31.214-58.884-86.059-58.884s-78.812 42.396-86.059 58.883c-1.674 3.807-4.309 7.079-7.56 9.672-10.832 8.642-9.541 21.578-7.077 30.015 1.812 6.204 2.056 12.767.566 19.056-17.113 72.218 10.624 107.15 26.162 120.41 6.091 5.199 11.161 11.452 15.447 18.217 21.358 33.717 58.521 33.581 58.521 33.581s37.163.137 58.521-33.579c4.286-6.765 9.356-13.018 15.447-18.217 15.537-13.261 43.275-48.193 26.162-120.411z" fill="#38c674"/><g fill="#38c674"><path d="m254.003 50.936c-3.147 15.882 1.537 32.658 13.923 49.869l-.399 1.31c.524-.199 1.112-.259 1.723-.122 7.406 1.656 19.387 1.272 34.386-9.993 18.394-13.813 30.975-17.518 39.057-17.675-.223-.434-.436-.874-.634-1.323-6.282-14.294-25.137-48.054-65.779-56.787-6.766 5.403-18.8 17.177-22.277 34.721z"/><path d="m356.13 131.745c-1.49-6.289-1.246-12.852.566-19.056 1.339-4.583 2.326-10.494 1.217-16.324-10.569-6.269-25.624.951-40.295 7.994-9.748 4.68-19.829 9.52-28.542 10.449-12.207 1.303-20.125-1.418-23.024-7.854l-.829 2.723c-1.475 1.234-5.747 5.6-3.85 13.508-2.503.816-6.87 3.384-8.293 11.438-1.795 10.162-4.048 30.001-4.076 30.257-.222 2.938.982 8.806 6.693 11.886-3.233 3.815-9.585 14.014-1.198 28.46v25.47c-2.965 2.864-6.155 9.721-.303 18.679-.806 1.289-2.315 3.91-3.717 7.458h74.552c1.57-1.633 3.208-3.202 4.937-4.678 15.537-13.26 43.275-48.192 26.162-120.41z"/></g><path d="m255.999 231.368v-26.55c-10.584-17.8 2.251-28.557 2.251-28.557-8.375-2.982-7.75-11.268-7.75-11.268s2.25-19.875 4.058-30.109 8.691-10.578 8.691-10.578c-3.126-9.562 3.272-13.74 3.272-13.74l.546-1.792c-.56-.817-1.027-1.703-1.38-2.674-.82-2.253 1.147-4.553 3.451-4.124l.441-1.447c-33.311-45.645-2.411-75.366 8.61-83.882-6.763-1.61-14.141-2.528-22.189-2.528-54.845 0-78.812 42.396-86.059 58.883-.197.449-.41.889-.634 1.323 8.079.158 20.664 3.862 39.057 17.674 15 11.266 26.979 11.651 34.386 9.993 2.353-.527 4.397 1.817 3.564 4.107-2.565 7.058-10.649 10.072-23.39 8.709-8.713-.93-18.794-5.769-28.542-10.449-10.728-5.15-21.659-10.398-30.895-10.398-3.396 0-6.559.72-9.4 2.406-1.109 5.829-.121 11.739 1.217 16.322 1.812 6.204 2.056 12.767.566 19.056-17.113 72.218 10.624 107.15 26.162 120.41 1.729 1.476 3.367 3.044 4.937 4.678h65.068c1.92-4.634 3.962-7.475 3.962-7.475-8.084-11.426 0-17.99 0-17.99z" fill="#2ab663"/><path d="m316.75 174.118c-20.486-12.199-33.683-21.602-40.902-27.114 2.258 2.373 4.812 4.74 7.742 7.02 1.684 1.31 2.439 3.417 1.972 5.5-.463 2.063-1.965 3.568-4.018 4.027-.13.029-.263.056-.395.081-2.51.475-4.816 1.615-6.669 3.298-3.222 2.924-9.905 7.83-18.48 7.83-1.142 0-2.247-.092-3.317-.25.829.838 1.818 1.61 3.015 2.256-3.233 3.815-9.585 14.014-1.198 28.46v25.47c-2.965 2.864-6.155 9.721-.303 18.679-3.236 5.174-17.803 31.78 8.744 53.955 11.772-1.719 35.918-8.232 51.581-32.957 3.069-4.845 6.55-9.419 10.51-13.54 9.775-17.409 28.785-60.641-8.282-82.715z" fill="#50dd89"/><path d="m255.999 249.358c-8.084-11.427 0-17.99 0-17.99v-26.55c-10.584-17.8 2.251-28.557 2.251-28.557-1.168-.416-2.144-.941-2.988-1.526-8.218-.271-14.615-4.964-17.742-7.803-1.853-1.684-4.16-2.824-6.666-3.298-.136-.026-.269-.053-.398-.082-2.054-.458-3.556-1.964-4.018-4.027-.468-2.083.288-4.19 1.972-5.5 2.93-2.28 5.484-4.647 7.742-7.02-7.219 5.512-20.416 14.914-40.902 27.114-37.067 22.074-18.057 65.306-8.281 82.715 3.961 4.121 7.441 8.695 10.51 13.54 21.358 33.714 58.521 33.578 58.521 33.578s3.486.008 8.921-.939c-30.181-24.104-8.922-53.655-8.922-53.655z" fill="#38c674"/><g><path d="m256 229.368s-25.127.552-45.329-10.121c17.934 31.539 45.329 30.111 45.329 30.111s27.394 1.427 45.327-30.111c-20.2 10.673-45.327 10.121-45.327 10.121z" fill="#38c674"/></g><path d="m256 231.368s.742.016 2.065-.011c9.098-10.33 2.602-22.285.025-26.183-1.996-.692-4.247-.369-6 .978-2.924 2.245-7.744 4.949-15.291 6.716-3.865.905-8.671.864-13.669.321-12.121 2.321-18.604-3.712-18.604-3.712-2.236-.607-4.267-1.207-5.982-1.737-1.755-.543-3.116 1.595-1.875 2.95 19.745 21.548 59.331 20.678 59.331 20.678z" fill="#6c5475"/><path d="m313.455 207.739c-1.715.53-3.745 1.13-5.981 1.737 0 0-8.066 5.783-18.603 3.713-4.998.543-9.805.584-13.67-.32-7.547-1.767-12.367-4.47-15.29-6.715-1.159-.89-2.535-1.335-3.911-1.334.001.001 11.875 14.675.001 26.55 0 0 39.585.87 59.33-20.679 1.24-1.357-.121-3.495-1.876-2.952z" fill="#543e5b"/><path d="m284.511 152.84c-13.048-10.152-18.868-21.98-21.262-28.534-.462-1.264-1.249-2.333-2.23-3.167.077.657.183 1.332.354 2.046-2.503.816-6.87 3.384-8.293 11.438-1.795 10.162-4.048 30.001-4.076 30.257-.209 2.773.856 8.153 5.778 11.339.403.02.806.042 1.219.042 8.991 0 15.946-5.003 19.488-8.219 1.668-1.515 3.725-2.517 5.939-2.936.15-.029.298-.059.443-.091 5.673-1.267 7.228-8.605 2.64-12.175z" fill="#70f2a4"/><path d="m256 119.279c-3.229 0-6.141 1.995-7.249 5.027-2.394 6.555-8.214 18.382-21.262 28.534-4.588 3.57-3.033 10.908 2.641 12.175.145.032.292.063.443.091 2.214.419 4.271 1.421 5.939 2.936 3.542 3.216 10.497 8.219 19.488 8.219.689 0 1.362-.038 2.026-.094-8.126-3.053-7.526-11.174-7.526-11.174s2.25-19.875 4.058-30.109 8.691-10.578 8.691-10.578c-1.108-3.033-4.021-5.027-7.249-5.027z" fill="#50dd89"/><g><path d="m289.076 114.809c-5.103.545-9.444.376-12.998-.461-1.303 4.551-3.094 16.143 10.637 20.521 15.375 4.902 52.398-19.799 40.613-35.047-3.22 1.424-6.474 2.985-9.709 4.538-9.749 4.68-19.83 9.519-28.543 10.449z" fill="#ffdd40"/></g><g><path d="m225.285 134.868c13.728-4.377 11.94-15.966 10.637-20.519-3.554.837-7.895 1.005-12.999.459-8.713-.93-18.794-5.769-28.542-10.449-3.236-1.553-6.489-3.113-9.71-4.538-11.783 15.248 25.239 39.949 40.614 35.047z" fill="#ffdd40"/></g><path d="m312.652 128.065c.906-1.809 1.429-3.844 1.429-6.006 0-5.519-3.329-10.255-8.085-12.325-5.786 2.475-11.451 4.437-16.641 5.038-1.36 2.101-2.158 4.599-2.158 7.288 0 6.019 3.956 11.112 9.41 12.825 5.149-1.091 10.849-3.558 16.045-6.82z" fill="#6c5475"/><path d="m206.004 109.734c-4.756 2.07-8.085 6.807-8.085 12.325 0 2.161.523 4.197 1.429 6.006 5.196 3.262 10.896 5.729 16.045 6.819 5.453-1.713 9.41-6.806 9.41-12.825 0-2.689-.798-5.187-2.158-7.288-5.19-.6-10.855-2.562-16.641-5.037z" fill="#6c5475"/><path d="m328.419 99.603c-4.162-.684-7.178-2.435-8.964-5.205-3.331-5.168-1.466-12.336-1.44-12.431l.05-.185.009-1.058c-4.623 2.558-9.723 5.86-15.339 10.077-15.332 11.514-26.919 11.125-33.157 9.728-3.521-.788-6.535 2.694-5.302 6.084 2.027 5.574 8.053 11.493 24.959 9.688 12.724-1.358 27.73-10.549 41.359-16.259-.704-.163-1.423-.315-2.175-.439z" fill="#50dd89"/><g fill="#70f2a4"><path d="m341.988 72.842c.006.013.012.027 0 0-6.224.253-14.559 2.496-25.425 8.748-.094.351-4.413 16.861 11.614 19.493 11.549-5.096 22.281-8.215 30.04-2.692 2.969-22.365-16.227-25.549-16.229-25.549z"/><path d="m341.988 72.842c-.006-.013-.011-.026 0 0z"/></g><path d="m204.36 117.913c0 2.832-2.296 5.128-5.128 5.128s-5.128-2.296-5.128-5.128 2.296-5.128 5.128-5.128 5.128 2.296 5.128 5.128z" fill="#fcf2c8"/><path d="m317.896 117.913c0 2.832-2.296 5.128-5.128 5.128s-5.128-2.296-5.128-5.128 2.296-5.128 5.128-5.128 5.128 2.296 5.128 5.128z" fill="#fcf2c8"/><path d="m304.706 124.033c0 3.986-2.296 7.217-5.128 7.217s-5.128-3.231-5.128-7.217 2.296-7.217 5.128-7.217c2.832-.001 5.128 3.231 5.128 7.217z" fill="#543e5b"/><path d="m217.549 124.033c0 3.986-2.296 7.217-5.128 7.217s-5.128-3.231-5.128-7.217 2.296-7.217 5.128-7.217 5.128 3.231 5.128 7.217z" fill="#543e5b"/><path d="m294.457 240.002c.243 3.908 5.619 4.776 7.088 1.146 3.099-7.658 6.054-17.344 6.603-27.276.084-1.517-.165-3.006-.674-4.396-5.48 1.488-12.199 3.016-18.603 3.713 2.711 7.8 4.975 16.968 5.586 26.813z" fill="#d3dcfb"/><path d="m204.526 209.476c-.509 1.39-.758 2.88-.674 4.396.549 9.932 3.504 19.618 6.603 27.276 1.469 3.63 6.845 2.761 7.088-1.146.611-9.844 2.875-19.013 5.586-26.813-6.404-.696-13.123-2.224-18.603-3.713z" fill="#d3dcfb"/><g fill="#38c674"><path d="m170.012 72.842c.011-.026.006-.013 0 0z"/><path d="m205.645 109.888c-5.028-8.343.994-12.739 10.189-14.348v-.37c-2.105-1.22-4.295-2.66-6.57-4.369-17.926-13.463-30.61-17.607-39.252-17.958-.012.026-.006.013 0 0 0 0-19.199 3.184-16.229 25.549 12.824-9.128 33.767 5.345 53.098 13.345-.429-.592-.846-1.202-1.236-1.849z"/></g><path d="m242.421 100.528c-5.53 1.239-15.267 1.678-28.087-6.259v.004s-18.036 3.019-9.975 16.39c6.377 2.788 12.626 5.022 18.405 5.638 16.906 1.805 22.932-4.115 24.959-9.688 1.233-3.391-1.781-6.873-5.302-6.085z" fill="#50dd89"/><path d="m299.5 223.618c0 6.875-.983 14.125-.983 14.125s.129 2.369 2.847 3.76c.061-.117.129-.227.18-.355 2.749-6.791 5.375-15.179 6.319-23.918-.082-.005-8.363-.453-8.363 6.388z" fill="#deeeff"/><path d="m217.57 239.676c.464-7.043 1.77-13.73 3.474-19.817-3.284-1.42-9.294-3.249-9.294 2.384 0 6.868-.289 16.183 5.82 17.433z" fill="#deeeff"/><path d="m316.178 18.705c-4.127 2.354-19.022 11.856-22.241 27.96-2.237 11.192 1.727 23.02 11.748 35.168 6.066-.05 12.006.888 17.331 3.31 5.934 2.698 10.323 6.867 13.555 11.932 2.217-14.474 8.255-25.942 18.065-34.17 2.565-2.151 5.138-3.845 7.532-5.181-10.036-18.768-27.816-31.027-45.99-39.019z" fill="#ffdd40"/><path d="m317.897 19.474c-30.089-13.707-61.898-15.474-61.898-15.474s-79.858 4.425-106.196 53.774c9.537 5.379 22.04 16.63 25.604 39.33 3.234-5.079 7.629-9.258 13.575-11.961 18.643-8.479 44.824 1.175 57.55 8.078 5.899 3.2 13.035 3.2 18.934 0 9.483-5.144 26.436-11.81 42.175-11.368-.001-.001-.001-.001-.001-.002-33.914-39.864 10.256-62.376 10.257-62.377z" fill="#ffc839"/><path d="m370.522 169.635v-77.079c0-14.197-3.417-26.13-9.066-36.16-9.634 5.381-22.162 16.525-26.11 38.896 13.016 17.92 9.541 49.078 9.163 64.535-.283 11.593-11.835 19.043-20.508 23.014-4.865 2.227-6.689 8.214-3.973 12.824l22.878 38.834c3.202 5.436 11.249 4.962 13.741-.833 8.547-19.877 12.019-42.629 13.264-53.361.41-3.544.611-7.103.611-10.67z" fill="#fee884"/><path d="m187.999 182.841c-8.673-3.971-20.225-11.421-20.509-23.014-.378-15.457-3.853-46.617 9.164-64.537-3.949-22.371-16.477-33.515-26.111-38.895-5.649 10.03-9.066 21.963-9.066 36.161v77.079c0 3.574.201 7.138.614 10.688 1.247 10.739 4.72 33.478 13.262 53.344 2.492 5.795 10.539 6.268 13.741.832l22.877-38.833c2.715-4.61.892-10.598-3.972-12.825z" fill="#ffb332"/><path d="m256 71.657c8.738 0 16.415-4.716 20.648-11.721v-45.431c0-7.978-6.527-14.505-14.505-14.505h-12.285c-7.978 0-14.505 6.527-14.505 14.505v45.431c4.232 7.005 11.909 11.721 20.647 11.721z" fill="#fee884"/><path d="m282.108 90.869c-3.584-6.66-5.46-14.104-5.46-21.667v-13.967c-2.923 8.603-11.09 14.839-20.648 14.839s-17.725-6.236-20.648-14.839v13.966c0 7.563-1.876 15.007-5.46 21.667-2.329 4.327-2.031 9.595.772 13.632l16.325 23.515c4.364 6.286 13.66 6.286 18.024 0l16.325-23.515c2.801-4.036 3.099-9.304.77-13.631z" fill="#ffdd40"/><path d="m102.78 313.674c7.416 8.643 18.479 13.382 32.875 14.123 14.098-16.472 14.552-36.5 6.121-51.573-1.717-3.07-4.932-4.978-8.449-5.056-14.2-.318-28.055 2.59-40.65 8.204-.332 4.073-.992 21.372 10.103 34.302z" fill="#deeeff"/><path d="m136.849 326.356c-48.199-1.751-42.599-47.668-42.599-47.668-11.276 4.784-21.589 11.716-30.29 20.452-2.477 2.487-3.477 6.086-2.584 9.48 5.385 20.473 25.456 36.285 51.649 31.997 8.617-1.411 16.527-5.818 22.272-12.395.538-.615 1.051-1.239 1.552-1.866z" fill="#bec8f7"/><path d="m422.751 280.977c-4.442 1.581-17.699 7.267-24.72 20.798-5.55 10.696-5.789 23.658-.741 38.526.559.118 1.12.225 1.685.317 26.194 4.288 46.264-11.524 51.649-31.997.893-3.394-.107-6.994-2.584-9.48-7.398-7.428-15.96-13.555-25.289-18.164z" fill="#deeeff"/><path d="m424.636 281.936c-13.959-7.287-29.736-11.133-45.963-10.77-3.518.079-6.732 1.986-8.449 5.056-8.504 15.204-7.977 35.45 6.48 52 5.744 6.576 13.655 10.984 22.272 12.395-16.412-46.763 25.659-58.681 25.66-58.681z" fill="#bec8f7"/></g></svg>