<svg id="Layer_1" enable-background="new 0 0 512 512" height="512" viewBox="0 0 512 512" width="512" xmlns="http://www.w3.org/2000/svg"><path d="m474.786 377.355c16.762-33.167 26.216-70.656 26.216-110.357 0-135.311-109.691-245.002-245.002-245.002s-245.002 109.691-245.002 245.002c0 39.973 9.578 77.707 26.556 111.04z" fill="#ffc839"/><path d="m324.867 274.741c-6.507-1.764-11.851-6.446-14.454-12.664-3.881-9.271-5.124-20.562-5.424-29.266-4.948 5.764-10.141 10.584-15.104 14.438-9.668 7.508-21.599 11.586-33.886 11.586-1.153 0-2.3-.048-3.445-.119.596 1.231 1.269 2.485 2.048 3.763.038 21.142-7.105 48.176-24.555 60.727-.528.198-1.991.783-3.865 1.811 9.504 3.828 19.581 5.84 29.818 5.84 19.778 0 38.982-7.451 54.544-21.17 9.092-8.015 18.663-18.318 27.584-30.859-4.349-1.503-8.763-2.867-13.261-4.087z" fill="#49b1f7"/><g fill="#3d9cea"><path d="m256 262.077c-.691-1.114-1.295-2.206-1.842-3.281-11.634-.387-22.86-4.416-32.044-11.548-4.962-3.853-10.156-8.675-15.104-14.438-.3 8.705-1.544 19.995-5.424 29.266-2.603 6.219-7.947 10.9-14.453 12.664-4.497 1.219-8.911 2.583-13.26 4.086 8.921 12.541 18.492 22.844 27.584 30.859 7.986 7.04 16.935 12.416 26.425 15.995 1.687-.839 2.827-1.226 2.827-1.226 26.205-18.667 25.291-62.377 25.291-62.377z"/><circle cx="252.001" cy="284.03" r="10.736"/><ellipse cx="242.778" cy="302.139" rx="16.596" ry="16.596" transform="matrix(.228 -.974 .974 .228 -106.779 469.588)"/><path d="m267.04.696.296.268c-21.98 17.799-34.222 47.491-21.378 78.653-3.582 3.313-17.387 17.954-8.889 39.955l4.319 9.273c-.007.011-.016.025-.023.036h102.545v-40.971c0-44.613-33.681-81.74-76.87-87.214z"/></g><path d="m247.64 80.003c-20.593-48.223 21.847-78.937 21.874-78.957-4.408-.687-8.921-1.046-13.514-1.046-48.351 0-87.91 39.56-87.91 87.91v40.972h74.861l-4.575-9.814c-9.4-24.34 9.264-39.065 9.264-39.065z" fill="#3b8be2"/><g><path d="m358.544 111.827c-.103-4.535-4.559-7.734-8.868-6.318-.974.32-1.899.657-2.779 1.009-8.562 3.421-14.666 11.031-16.456 19.988 2.357 13.515.816 30.996-.661 40.384-.183.806-.374 1.599-.563 2.397 28.184 14.013 29.796-36.788 29.327-57.46z" fill="#49b1f7"/><path d="m153.456 111.827c.103-4.535 4.559-7.734 8.868-6.318.973.32 1.899.657 2.779 1.009 8.562 3.421 14.666 11.031 16.456 19.988-2.357 13.515-.816 30.996.661 40.384.183.806.374 1.599.563 2.397-28.184 14.013-29.796-36.788-29.327-57.46z" fill="#3d9cea"/></g><path d="m331.593 116.805c-.876-2.287-1.982-4.603-3.374-6.788-2.358-3.7-3.396-8.077-3.08-12.441.909-12.551.422-37.098-16.055-44.512-2.5-1.125-5.101-1.932-7.75-2.479-5.738-1.184-11.596 1.529-14.528 6.602-3.03 5.245-6.192 9.654-9.222 13.203-6.158 7.215-13.758 11.133-21.585 11.133-3.474 0-6.903-.776-10.181-2.266.049.12.09.239.139.359-3.582 3.313-17.387 17.954-8.889 39.955l4.319 9.273c-1.433 2.17-4.951 8.778-.65 16.23l-.024.089c-1.158 1.765-7.862 13.028-.137 26.179l-5.793 8.918c-2.318 8.007-.22 17.58 8.134 22.297l9.601 10.053c-1.132 1.832-1.887 4.778.509 7.478l1.107 7.429c-2.045 2.801-10.582 16.367.214 34.523.55.016 1.099.034 1.65.034 12.287 0 24.218-4.078 33.885-11.585 18.522-14.383 40.296-42.108 40.296-82.898l3.895-28.367c1.041-7.56.253-15.283-2.481-22.419z" fill="#73c3f9"/><path d="m256 262.077c-12.48-20.106-.391-34.177-.391-34.177l-1.259-8.449c-3.348-3.349 0-6.951 0-6.951l-10.564-11.061c-11.929-6.57-7.718-20.581-7.718-20.581l6.164-9.488c-8.755-13.955-.225-25.616-.225-25.616l.238-.89c-5.337-8.547.757-15.871.757-15.871l-4.627-9.924c-9.401-24.341 9.263-39.066 9.263-39.066-4.784-1.759-9.298-5.012-13.224-9.612-3.03-3.549-6.191-7.958-9.222-13.202-2.931-5.074-8.789-7.787-14.528-6.603-2.649.546-5.25 1.354-7.75 2.479-16.523 7.435-16.966 32.101-16.047 44.619.318 4.33-.748 8.662-3.088 12.334-1.326 2.08-2.391 4.279-3.246 6.459-2.861 7.291-3.643 15.234-2.577 22.994l3.861 28.123c0 40.79 21.774 68.515 40.296 82.898 9.669 7.507 21.6 11.585 33.887 11.585z" fill="#49b1f7"/><path d="m275.288 204.537-7.856-3.098c-.883-.348-1.86-.388-2.769-.115l-9.054 2.73-9.053-2.73c-.91-.274-1.886-.234-2.769.115l-7.856 3.098c-2.171.856-3.236 3.309-2.381 5.48.854 2.164 3.302 3.238 5.48 2.381l6.492-2.56 8.83 2.663c.855.267 1.747.248 2.519-.001l8.828-2.662 6.492 2.56c2.167.853 4.621-.205 5.48-2.381.853-2.171-.213-4.624-2.383-5.48z" fill="#3d9cea"/><path d="m258.574 219.451h-5.422c-2.333 0-4.224 1.891-4.224 4.224s1.891 4.225 4.224 4.225h5.422c2.333 0 4.225-1.891 4.225-4.225 0-2.333-1.891-4.224-4.225-4.224z" fill="#3d9cea"/><path d="m279.332 174.749c-.586-.897-1.484-1.513-2.53-1.733l-7.817-1.646c-1.832-.385-3.469.328-4.268 1.861-.026.05-.055.099-.086.147-1.818 2.812-5.191 4.49-9.023 4.49-3.831 0-7.203-1.679-9.021-4.491-.03-.046-.058-.093-.084-.144-.801-1.535-2.437-2.247-4.27-1.862l-7.817 1.645c-2.162.455-3.551 2.585-3.096 4.747.453 2.16 2.582 3.549 4.749 3.096l4.356-.917c.597-.124 1.206.059 1.632.479 3.673 3.629 8.612 5.443 13.553 5.443 4.939-.001 9.88-1.814 13.552-5.443.43-.425 1.04-.605 1.632-.48l4.358.917c2.161.452 4.292-.935 4.747-3.096.219-1.046.018-2.116-.567-3.013z" fill="#3d9cea"/><path d="m281.915 140.366c0-1.35.253-2.633.703-3.801-1.754.861-3.17 1.836-4.179 2.659-2.353 1.919-6.444 4.354-8.684 5.64-.424.243-.251.89.238.89h.221c2.079 0 4.146.324 6.12.975 3.424 1.128 6.701 1.689 9.731 1.874-2.49-1.708-4.15-4.756-4.15-8.237z" fill="#ffdd40"/><path d="m309.778 142.477c-4.091-3.838-8.024-6.053-11.661-7.174.818 1.473 1.291 3.207 1.291 5.063 0 3.034-1.262 5.739-3.234 7.514 2.977-.615 5.302-1.471 6.741-2.126 2.953-1.344 5.185-1.891 6.513-2.113.552-.093.759-.78.35-1.164z" fill="#ffdd40"/><path d="m282.069 136.844c-.499 1.14-.777 2.397-.777 3.721 0 3.425 1.855 6.415 4.613 8.027 3.978.259 7.537-.132 10.452-.749 2.143-1.702 3.518-4.328 3.518-7.277 0-1.932-.59-3.726-1.599-5.212-6.664-2.109-12.346-.536-16.207 1.49z" fill="#6c5475"/><path d="m294.049 141.149c0 1.967-1.594 3.561-3.561 3.561s-3.561-1.595-3.561-3.561 1.594-3.561 3.561-3.561c1.967-.001 3.561 1.594 3.561 3.561z" fill="#543e5b"/><path d="m317.649 129.287c-.533-3.499-2.652-11.63-10.925-13.511-8.354-1.899-25.969 1.68-33.1 3.292-1.9.429-3.406 1.875-3.915 3.755l-1.469 5.418c-.125.46.299.88.758.752 5.407-1.517 30.303-8.249 37.887-5.817 5.784 1.855 8.754 4.746 10.067 6.415.249.317.758.095.697-.304z" fill="#543e5b"/><path d="m230.085 140.366c0-1.35-.253-2.633-.703-3.801 1.754.861 3.17 1.836 4.179 2.659 2.353 1.919 6.444 4.354 8.684 5.64.424.243.25.89-.238.89h-.221c-2.079 0-4.146.324-6.12.975-3.424 1.128-6.701 1.689-9.73 1.874 2.489-1.708 4.149-4.756 4.149-8.237z" fill="#ffdd40"/><path d="m202.222 142.477c4.091-3.838 8.024-6.053 11.661-7.174-.818 1.473-1.291 3.207-1.291 5.063 0 3.034 1.262 5.739 3.234 7.514-2.977-.615-5.302-1.471-6.741-2.126-2.952-1.344-5.185-1.891-6.513-2.113-.552-.093-.758-.78-.35-1.164z" fill="#ffdd40"/><path d="m229.931 136.844c.499 1.14.777 2.397.777 3.721 0 3.425-1.855 6.415-4.613 8.027-3.979.259-7.537-.132-10.452-.749-2.143-1.702-3.518-4.328-3.518-7.277 0-1.932.59-3.726 1.599-5.212 6.664-2.109 12.346-.536 16.207 1.49z" fill="#6c5475"/><path d="m217.951 141.149c0 1.967 1.594 3.561 3.561 3.561s3.561-1.595 3.561-3.561-1.594-3.561-3.561-3.561c-1.967-.001-3.561 1.594-3.561 3.561z" fill="#543e5b"/><path d="m194.351 129.287c.533-3.499 2.652-11.63 10.925-13.511 8.354-1.899 25.969 1.68 33.1 3.292 1.9.429 3.406 1.875 3.915 3.755l1.469 5.418c.125.46-.299.88-.758.752-5.407-1.517-30.303-8.249-37.887-5.817-5.783 1.855-8.754 4.746-10.067 6.415-.249.317-.758.095-.697-.304z" fill="#543e5b"/><path d="m299.853 76.737c.099.049.198.096.299.143 5.286 2.46 11.578.181 14.389-4.927 3.45-6.269 8.149-16.855 8.521-28.522.127-3.988-4.768-6.025-7.583-3.197l-18.423 18.509c-5.379 5.405-4.042 14.622 2.797 17.994z" fill="#9bd8f9"/><path d="m212.147 76.737c-.099.049-.199.096-.299.143-5.286 2.46-11.578.181-14.389-4.927-3.45-6.269-8.149-16.855-8.521-28.522-.127-3.988 4.768-6.025 7.583-3.197l18.423 18.509c5.379 5.405 4.042 14.622-2.797 17.994z" fill="#73c3f9"/><path d="m295.594 107.118c.089.044.179.087.27.129 4.773 2.221 10.454.164 12.992-4.448 3.115-5.66 7.358-15.218 7.694-25.752.115-3.601-4.305-5.44-6.846-2.886l-16.634 16.712c-4.858 4.879-3.651 13.201 2.524 16.245z" fill="#b9e7fc"/><path d="m216.406 107.118c-.089.044-.179.087-.27.129-4.773 2.221-10.454.164-12.992-4.448-3.115-5.66-7.357-15.218-7.694-25.752-.115-3.601 4.305-5.44 6.846-2.886l16.634 16.712c4.858 4.879 3.651 13.201-2.524 16.245z" fill="#9bd8f9"/><ellipse cx="247.105" cy="33.746" fill="#3b8be2" rx="13.202" ry="13.202" transform="matrix(.923 -.386 .386 .923 6.11 97.941)"/><path d="m252.27 53.571c0 5.072-4.112 9.184-9.184 9.184s-9.184-4.112-9.184-9.184 4.112-9.184 9.184-9.184c5.073.001 9.184 4.112 9.184 9.184z" fill="#3b8be2"/><path d="m391.008 300.706c-6.272-.513-9.609-2.946-17.002-7.114-15.036-8.479-30.282-15.157-46.578-19.919-3.664-1.07-7.627.166-10.053 3.113-6.606 8.026-13.646 14.648-20.342 19.848-11.907 9.247-26.602 14.269-41.736 14.269-6.276 0-12.472-.876-18.43-2.547-3.599 1.192-10.043 4.038-13.624 9.92-2.693 4.421-3.23 9.67-1.599 15.604l1.551 112.677h153.83l86.606-60.991c-3.713-33.734-18.673-80.449-72.623-84.86z" fill="#6c5475"/><path d="m239.769 309.1c-9.486-2.216-18.441-6.436-26.207-12.466-6.697-5.2-13.736-11.822-20.342-19.848-2.426-2.947-6.389-4.184-10.053-3.113-16.297 4.762-31.542 11.441-46.578 19.919-7.392 4.168-10.729 6.601-17.002 7.114-53.95 4.411-68.91 51.126-72.624 84.86l86.606 60.991h91.131l-1.554-112.892c-5.643-20.006 16.623-24.565 16.623-24.565z" fill="#543e5b"/><path d="m133.569 446.557-56.926-40.089c-3.099 5.325-7.316 9.804-12.274 13.176 18.613 23.336 41.399 43.192 67.229 58.448-.219-8.261.46-17.643 2.7-28.006z" fill="#3d9cea"/><path d="m447.453 419.866v-22.905l-70.427 49.596-.833 4.034c2.31 10.489 3.017 19.978 2.808 28.329 26.327-15.314 49.534-35.393 68.452-59.054z" fill="#49b1f7"/><path d="m390.447 446.808 52.18-31.605c-3.971-3.867-7.192-8.582-9.372-13.932-4.217-10.346-10.822-19.978-18.891-28.92l-18.197 11.605c5.01 7.464 7.245 16.599 5.938 25.738-2.143 14.99-6.409 27.198-11.658 37.114z" fill="#876d93"/><path d="m108.49 409.694c-1.307-9.14.929-18.274 5.938-25.738l-17.012-10.849c-7.761 8.728-14.112 18.109-18.21 28.164-2.312 5.672-5.789 10.635-10.094 14.625l51.033 30.911c-5.247-9.916-9.513-22.125-11.655-37.113z" fill="#543e5b"/><path d="m121.322 399.78h267.949c8.529-11.423 19.938-19.976 29.514-24.28-13.035-16.041-31.058-29.969-49.269-41.877-6.099-3.988-10.606-8.471-13.903-13.15-16.029 16.097-50.327 43.045-100.316 43.045-48.89 0-82.771-25.776-99.232-41.968-3.218 4.29-7.492 8.392-13.121 12.073-18.45 12.063-36.707 26.2-49.779 42.507 9.282 4.479 20.027 12.762 28.157 23.65z" fill="#ff4155"/><path d="m397.259 357.701s-14.94.982-12.267 13.679l-35.131-25.072 16.842-18.362z" fill="#e80054"/><path d="m132.34 365.799c-14.588 1.436-12.158-12.267-12.158-12.267l-3.918-.432c-8.591 7.133-16.506 14.805-23.099 23.03 6.023 2.906 12.659 7.423 18.8 13.205z" fill="#e80054"/><path d="m379.674 417.596h-156.876l.802 58.254c-.746 2.387-5.732 20.032 4.033 34.506 9.309 1.073 18.77 1.644 28.367 1.644 45.647 0 88.369-12.498 124.957-34.236.379-9.054-.301-19.525-2.975-31.207-2.366-10.333-1.378-20.103 1.692-28.961z" fill="#bec8f7"/><path d="m224.301 417.596h-93.369c3.068 8.857 4.045 18.63 1.68 28.961-2.591 11.32-3.306 21.499-3.003 30.359 29.782 17.97 63.698 29.775 99.985 33.664-11.227-15.147-4.488-34.504-4.488-34.504z" fill="#a8b7ef"/><path d="m441.285 307.369c-7.552.883-46.752 7.488-45.58 49.005 15.536 13.139 28.689 28.077 35.545 44.897 3.267 8.016 8.874 14.602 15.844 19.04 10.651-13.258 19.952-27.643 27.692-42.956-4.049-22.888-13.273-49.511-33.501-69.986z" fill="#ff7186"/><path d="m442.624 308.746c-17.336-18.218-43.058-31.864-81.127-34.232-7.567-.471-14.25 4.864-15.375 12.362-1.999 13.326-.73 34.289 21.391 48.752 10.262 6.71 20.462 14.063 29.747 22.073-2.266-46.026 45.232-48.947 45.364-48.955z" fill="#ff4155"/><path d="m166.339 286.876c-1.125-7.498-7.808-12.832-15.375-12.362-33.112 2.06-56.88 12.653-73.917 27.363-.931 12.55.042 48.872 41.757 52.784 8.291-6.839 17.194-13.181 26.144-19.034 22.121-14.462 23.391-35.425 21.391-48.751z" fill="#ff7186"/><path d="m256.081 371.537v60.704c0 5.417-1.191 10.776-3.576 15.639-4.256 8.677-12.705 21.559-27.399 28.195-14.257 6.439-34.673 8.958-48.467 9.943-12.565.898-25.016-2.904-34.919-10.689-13.679-10.754-30.234-30.645-35.235-65.635-1.852-12.957 3.387-25.921 13.607-34.097l42.408-33.927c6.782-5.426 15.208-8.381 23.893-8.381h31.438c21.126 0 38.25 17.124 38.25 38.248z" fill="#bec8f7"/><path d="m234.911 360.126h-27.503c-15.01 0-27.291 12.281-27.291 27.291v67.107c0 14.897 12.098 27.099 26.954 27.283 6.43-1.44 12.669-3.307 18.035-5.731 14.694-6.636 23.143-19.517 27.399-28.195 2.385-4.863 3.576-10.223 3.576-15.639v-60.704c0-.446-.018-.887-.034-1.329-5.015-6.143-12.637-10.083-21.136-10.083z" fill="#d3dcfb"/><path d="m78.123 300.959c-25.35 21.276-36.157 51.575-40.569 77.079 7.71 15.137 16.955 29.357 27.515 42.475 7.112-4.439 12.827-11.109 16.142-19.242 7.355-18.045 21.954-33.924 38.971-47.739-43.14-3.234-43.075-41.134-42.059-52.573z" fill="#ff4155"/><path d="m186.293 316.977c-6.758-11.706-21.727-15.717-33.433-8.958-.458.264-.9.546-1.334.834-.383 1.995-1.24 9.575 7.228 11.844l10.548 18.269s-3.706 9.104 6.632 12.187c.471-.233.939-.477 1.401-.744 11.706-6.757 15.716-21.726 8.958-33.432z" fill="#deeeff"/><path d="m143.902 341.452c6.758 11.706 21.727 15.717 33.433 8.958-10.817-2.898-7.03-12.177-7.03-12.177l-10.414-18.038c-9.657-2.588-7.03-12.177-7.03-12.177-11.707 6.759-15.718 21.728-8.959 33.434z" fill="#bec8f7"/><path d="m175.511 329.215c0 5.752-4.662 10.414-10.414 10.414-5.751 0-10.414-4.663-10.414-10.414s4.663-10.414 10.414-10.414c5.752 0 10.414 4.662 10.414 10.414z" fill="#a8b7ef"/><path d="m371.164 360.126-23.07-18.456c-6.782-5.426-15.208-8.381-23.893-8.381h-31.439c-21.124 0-38.248 17.124-38.248 38.248v60.704c0 5.417 1.191 10.776 3.576 15.639 4.256 8.677 12.705 21.559 27.399 28.195 14.263 6.441 34.69 8.96 48.484 9.945 8.347.596 16.674-.853 24.213-4.205z" fill="#deeeff"/><path d="m366.693 316.977c-6.758-11.706-21.727-15.717-33.433-8.958-.458.264-.9.546-1.334.834-.383 1.995-1.24 9.575 7.228 11.844l10.548 18.269s-3.706 9.104 6.632 12.187c.471-.233.939-.477 1.401-.744 11.706-6.757 15.717-21.726 8.958-33.432z" fill="#deeeff"/><path d="m390.502 375.597-19.339-15.471h-14.943c-15.01 0-27.291 12.281-27.291 27.291v67.107c0 15.01 12.281 27.291 27.291 27.291h1.965c3.508-1.56 6.847-3.529 9.936-5.9 13.818-10.612 30.894-30.586 35.988-66.221 1.853-12.957-3.386-25.92-13.607-34.097z" fill="#f0f8ff"/><path d="m324.302 341.452c6.759 11.706 21.727 15.717 33.433 8.958-10.817-2.898-7.03-12.177-7.03-12.177l-10.414-18.038c-9.657-2.588-7.03-12.177-7.03-12.177-11.707 6.759-15.718 21.728-8.959 33.434z" fill="#bec8f7"/><ellipse cx="345.497" cy="329.215" fill="#a8b7ef" rx="10.414" ry="10.414" transform="matrix(.923 -.385 .385 .923 -100.139 158.454)"/><path d="m381.375 56.48c-5.564 11.017-9.5 28.93 3.737 51.41 22.667 38.492-32.37 68.803-14.221 119.47 15.306 42.732 97.34 13.448 122.661 99.788 4.858-19.246 7.45-39.395 7.45-60.15 0-89.49-47.988-167.761-119.627-210.518z" fill="#ffdd40"/><path d="m130.625 56.48c5.564 11.017 9.5 28.93-3.737 51.41-22.667 38.492 32.37 68.803 14.221 119.47-15.306 42.732-97.34 13.448-122.661 99.788-4.858-19.246-7.45-39.395-7.45-60.15 0-89.49 47.988-167.761 119.627-210.518z" fill="#ffdd40"/><circle cx="274.186" cy="31.447" fill="#3b8be2" r="7.472"/></svg>