<svg id="Layer_1" enable-background="new 0 0 512 512" height="512" viewBox="0 0 512 512" width="512" xmlns="http://www.w3.org/2000/svg"><g><path d="m53.041 404.271h405.917c26.538-39.16 42.043-86.404 42.043-137.272 0-135.311-109.691-245.002-245.002-245.002s-245.002 109.691-245.002 245.002c.001 50.867 15.506 98.112 42.044 137.272z" fill="#1c2e7a"/><path d="m454.559 67.52c-.808-2.703-1.663-5.24-2.521-7.566-2.6-7.048-11.704-8.845-16.841-3.363-7.927 8.459-20.637 18.039-37.543 18.039-14.821 0-26.737 7.036-35.049 14.218.567 15.239 3.867 30.287 10.495 44.045 8.537 17.72 10.244 38.306 3.971 56.336 16.77 5.52 30.869.528 42.94-10.312-32.847-2.794-35.689-42.579-16.856-52.401 20.636-10.763 25.443-25.563 32.507-46.49 3.425-10.152 11.362-12.634 18.897-12.506z" fill="#fe7f46"/><path d="m434.227 79.542-.229.675c-7.028 20.83-11.671 34.591-31.545 44.957-10.506 5.48-15.213 19.88-10.948 33.496 1.574 5.028 7.738 19.447 26.884 21.655 13.448-11.317 24.417-29.93 33.751-49.681 10.939-23.147 7.282-47.598 1.96-64.619-7.882-.017-16.236 2.743-19.873 13.517z" fill="#fca163"/><path d="m57.441 67.52c.808-2.703 1.663-5.24 2.521-7.566 2.6-7.048 11.704-8.845 16.841-3.363 7.928 8.459 20.637 18.039 37.543 18.039 14.821 0 26.737 7.036 35.049 14.218-.567 15.239-3.867 30.287-10.495 44.045-8.537 17.72-10.244 38.306-3.971 56.336-16.77 5.52-30.869.528-42.94-10.312 32.847-2.794 35.689-42.579 16.856-52.401-20.636-10.763-25.443-25.563-32.507-46.49-3.425-10.152-11.362-12.634-18.897-12.506z" fill="#fe7f46"/><path d="m77.773 79.542.229.675c7.028 20.83 11.671 34.591 31.545 44.957 10.506 5.48 15.213 19.88 10.948 33.496-1.574 5.028-7.738 19.447-26.884 21.655-13.448-11.317-24.417-29.93-33.751-49.681-10.939-23.147-7.282-47.598-1.96-64.619 7.882-.017 16.236 2.743 19.873 13.517z" fill="#fc6e42"/><path d="m395.348 323.69c-43.321-1.812-82.534-27.504-89.613-59.664-8.209 10.23-17.582 16.802-25.962 21.011-11.417 5.734-23.182 6.855-34.334 4.501l4.267 17.47c-1.382 3.519-11.639 28.102-30.297 33.486-3.138.905-7.589 1.89-12.743 3.03-29.497 6.521-84.4 18.661-84.4 57.396v71.376c38.454 25.101 84.385 39.704 133.734 39.704 48.787 0 94.241-14.264 132.427-38.843v-59.575c0-3.965 2.241-7.458 5.848-9.114 3.591-1.651 7.683-1.078 10.676 1.494 10.018 8.606 15.097 20.675 15.097 35.867v7.132c14.693-13.254 27.775-28.258 38.911-44.691-1.493-14.621-4.883-31.613-12.161-46.797-9.521-19.863-29.442-32.863-51.45-33.783z" fill="#ff8f4a"/><path d="m352.19 483.012h-33.798c-19.648 0-35.723-16.076-35.723-35.723v-42.906c0-19.648 16.076-35.723 35.723-35.723h33.798c19.648 0 35.723 16.076 35.723 35.723v42.906c0 19.648-16.075 35.723-35.723 35.723z" fill="#fca163"/><path d="m206.266 264.026c-7.129 32.38-46.523 57.861-89.614 59.664-22.008.92-41.929 13.92-51.45 33.783-7.278 15.185-10.668 32.177-12.161 46.797 18.647 27.517 42.742 51.041 70.738 69.022 0-26.332 0-54.113 0-72.373 0-44.231 75.071-52.917 96.049-58.972 20.978-6.054 31.46-34.839 31.46-34.839l-4.211-17.239c-15.558-2.789-30.022-12.396-40.811-25.843z" fill="#fe7f46"/><path d="m405.937 404.814c-7.467-6.414-19.023-1.076-19.023 8.768v60.532c12.339-7.816 23.932-16.702 34.648-26.531 0-2.02 0-3.946 0-5.754-.001-18.63-7.565-30.091-15.625-37.015z" fill="#fe7f46"/><path d="m391.037 442.422c-3.122-.501-6.06 1.625-6.561 4.747-3.548 22.101-20.021 32.846-50.36 32.846-12.018 0-28.433-3.686-47.471-10.66-14.904-5.459-24.917-19.82-24.917-35.735v-65.885l40.263-20.931c2.806-1.458 3.899-4.916 2.44-7.722-1.458-2.806-4.917-3.899-7.722-2.439l-40.709 21.162-40.707-21.162c-2.805-1.459-6.262-.368-7.722 2.439-1.459 2.806-.367 6.263 2.44 7.722l40.263 20.931v65.885c0 15.915-10.014 30.276-24.918 35.735-19.038 6.973-35.452 10.66-47.471 10.66-30.34 0-46.813-10.743-50.36-32.846-.501-3.123-3.44-5.247-6.561-4.747-3.123.501-5.248 3.439-4.747 6.561 2.31 14.394 9.094 25.331 20.163 32.508 10.21 6.62 24.174 9.976 41.504 9.976 13.538 0 30.835-3.822 51.41-11.359 11.715-4.291 21.102-12.808 26.705-23.438 5.603 10.63 14.99 19.147 26.705 23.438 20.576 7.537 37.872 11.359 51.41 11.359 17.33 0 31.294-3.356 41.504-9.976 11.07-7.177 17.853-18.114 20.164-32.508.502-3.122-1.623-6.06-4.745-6.561z" fill="#fc6e42"/><path d="m377.115 132.893c-7.486-15.538-10.734-32.722-10.585-49.969.287-33.169-15.199-82.924-110.697-82.924-.741 0-1.463.012-2.195.018-4.248 4.567-19.063 22.141-19.195 45.19-.033 5.816.881 11.511 2.731 17.065 9.469 28.419 13.39 58.389 10.006 88.152l-.068.595c-1.249 10.982-4.759 21.51-9.559 31.467-2.064 4.282-2.805 10.128 1.048 17.405v19.281c-2.44 2.144-10.751 10.787-6.871 26.261l.123.492 21.807 18.324c-3.66 4.922-15.322 23.536-1.271 44.818 17.689.888 35.667-5.066 49.464-17.876 7.385-6.856 14.013-16.018 18.342-28.255 16.164-45.684 44.813-39.674 57.976-66.683 9.527-19.544 8.612-43.292-1.056-63.361z" fill="#fca163"/><path d="m255.833 0c-95.497 0-110.983 49.755-110.696 82.924.154 17.813-3.981 35.373-11.344 51.593-8.951 19.717-9.568 42.717-.299 61.736 13.163 27.009 41.812 20.999 57.976 66.683 4.329 12.237 10.958 21.398 18.342 28.255 12.508 11.613 28.453 17.58 44.503 17.935-16.96-24.419 1.519-45.1 1.519-45.1l-22.582-18.975c-4.223-16.841 6.918-25.141 6.918-25.141v-20.414c-3.578-6.546-3.176-11.827-1.489-15.759 5.217-12.163 9.115-24.851 10.61-38.002l1.023-9c2.772-24.376-1.171-48.908-10.419-71.631-14.419-35.43 15.938-65.104 15.938-65.104z" fill="#ff8f4a"/><g><path d="m255.834 264.027c-10.276 0-20.549-1.901-28.743-5.704-3.664-1.701-5.255-6.051-3.554-9.715 1.701-3.665 6.049-5.257 9.715-3.555 12.451 5.78 32.711 5.782 45.164 0 3.662-1.701 8.014-.107 9.715 3.555 1.7 3.664.109 8.014-3.555 9.715-8.192 3.801-18.469 5.704-28.742 5.704z" fill="#fc6e42"/></g><circle cx="240.17" cy="209.704" fill="#fc6e42" r="10.207"/><circle cx="271.497" cy="209.704" fill="#fc6e42" r="10.207"/><ellipse cx="202.477" cy="146.324" fill="#deeeff" rx="41.664" ry="25.775"/><ellipse cx="202.477" cy="146.324" fill="#73c3f9" rx="27.01" ry="27.01" transform="matrix(.707 -.707 .707 .707 -44.163 186.03)"/><ellipse cx="202.477" cy="146.324" fill="#3d9cea" rx="13.52" ry="13.52" transform="matrix(.707 -.707 .707 .707 -44.163 186.03)"/><path d="m218.237 137.091c0 3.561-2.886 6.447-6.447 6.447s-6.447-2.886-6.447-6.447 2.886-6.447 6.447-6.447 6.447 2.886 6.447 6.447z" fill="#bbe8fc"/><ellipse cx="309.523" cy="146.324" fill="#deeeff" rx="41.664" ry="25.775"/><ellipse cx="309.523" cy="146.324" fill="#73c3f9" rx="27.01" ry="27.01" transform="matrix(.707 -.707 .707 .707 -12.81 261.723)"/><ellipse cx="309.523" cy="146.324" fill="#3d9cea" rx="13.52" ry="13.52" transform="matrix(.23 -.973 .973 .23 95.999 413.949)"/><path d="m325.283 137.091c0 3.561-2.886 6.447-6.447 6.447s-6.447-2.886-6.447-6.447 2.886-6.447 6.447-6.447 6.447 2.886 6.447 6.447z" fill="#bbe8fc"/><circle cx="240.789" cy="26.059" fill="#ff8f4a" r="15.211"/><circle cx="239.173" cy="64.673" fill="#ff8f4a" r="13.594"/><circle cx="282.957" cy="53.868" fill="#fcb686" r="12.598"/><path d="m282.957 13.129c0 11.048 8.956 20.004 20.004 20.004s20.004-8.956 20.004-20.004c0-.344-.034-.681-.052-1.021-9.897-4.573-21.941-8.098-36.556-10.135-2.146 3.187-3.4 7.025-3.4 11.156z" fill="#fcb686"/><circle cx="243.434" cy="43.915" fill="#ff8f4a" r="17.855"/><path d="m364.672 77.361c9.299-7.163 29.057-25.259 40.479-56.627-8.132-1.905-15.021-.612-20.014 3.801-8.148 7.202-23.363 17.56-31.707 23.092-8.78 5.822-13.515 15.922-12.798 25.912 3.481 2.426 7.652 4.486 12.659 5.968 3.915 1.16 8.147.346 11.381-2.146z" fill="#d3dcfb"/><path d="m342.293 74.63c-1.216-9.921 3.372-19.973 12.004-25.696 9.044-5.997 23.792-16.077 31.878-23.225 5.431-4.8 12.38-4.882 18.425-3.498 1.486-3.937 2.848-8.077 4.035-12.448 1.909-7.028-6.088-12.545-11.974-8.255-14.276 10.403-36.887 24.271-62.961 30.698-6.509 1.604-10.664 8.01-9.44 14.601 1.643 8.847 6.144 20.403 18.033 27.823z" fill="#bec8f7"/><path d="m172.478 62.515c-4.24-.437-8.288-2.186-11.705-5.057-8.801-7.396-30.071-25.742-37.484-36.322-4.32-6.167-4.485-12.038-3.495-16.472-1.554-1.076-3.056-2.135-4.455-3.155-5.886-4.289-13.883 1.227-11.974 8.255 7.811 28.76 24.662 52.728 43.963 67.597 3.235 2.492 7.466 3.306 11.381 2.146 10.505-3.11 18.44-9.221 23.512-17.724-3.087.83-6.341 1.083-9.743.732z" fill="#bec8f7"/><path d="m145.515 278.382c13.063-34.932-12.486-52.666-58.103-75.84-25.362-12.884-40.154-33.664-48.292-49.58-17.947 34.063-28.121 72.858-28.121 114.036 0 27.525 4.548 53.986 12.92 78.682 21.484-59.429 107.181-28.754 121.596-67.298z" fill="#2a428c"/><path d="m366.486 278.382c-13.063-34.932 12.485-52.666 58.103-75.84 25.362-12.884 40.154-33.664 48.292-49.58 17.947 34.063 28.121 72.858 28.121 114.036 0 27.525-4.548 53.986-12.919 78.682-21.486-59.429-107.183-28.754-121.597-67.298z" fill="#2a428c"/><path d="m178.299 32.207c-24.234-5.973-45.466-18.371-59.805-28.444-1.21 4.83-1.232 11.385 3.566 18.233 7.525 10.742 28.98 29.241 37.748 36.611 3.554 2.987 7.898 4.924 12.516 5.4 2.58.266 5.575.241 8.762-.418 3.223-4.791 5.472-10.416 6.653-16.781 1.224-6.591-2.931-12.997-9.44-14.601z" fill="#d3dcfb"/></g></svg>