<svg id="Layer_1" enable-background="new 0 0 511.999 511.999" height="512" viewBox="0 0 511.999 511.999" width="512" xmlns="http://www.w3.org/2000/svg"><g><path d="m38.046 379.001h435.907c17.286-33.569 27.049-71.645 27.049-112.003 0-135.311-109.691-245.002-245.002-245.002s-245.002 109.691-245.002 245.002c0 40.357 9.763 78.433 27.048 112.003z" fill="#856ee5"/><path d="m255.427.007c-2.064 2.336-6.906 8.472-9.785 17.475-3.308 10.341-4.479 26.474 8.365 45.062-.554.503-1.307 1.213-2.199 2.11 5.54.597 11.179.014 16.522-1.763 12.315-4.095 31.627-8.197 47.37-1.113 18.53 8.338 16.978 33.844 15.955 47.959-.356 4.908.811 9.829 3.463 13.991 1.566 2.457 2.808 5.062 3.795 7.634 1.225 3.198 2.097 8.602 2.636 11.957 2.844-1.378 9.01-2.879 12.488-2.387.426-14.756 1.788-32.764 1.788-32.764 14.791-72.446-44.843-107.873-100.398-108.161z" fill="#fcf2c8"/><path d="m237.573 1.148c-55.334 7.539-60.593 38.912-60.617 50.422-.005 2.414-1.343 4.651-3.513 5.707-28.783 14.002-13.264 83.585-13.264 83.585 2.891.193 8.016 1.364 10.273 2.456.552-3.439 1.455-8.925 2.729-12.197.97-2.494 2.184-5.013 3.701-7.393 2.632-4.13 3.831-9.001 3.473-13.871-1.034-14.078-2.637-39.718 15.946-48.08 15.743-7.084 35.055-2.982 47.37 1.113 3.291 1.094 6.694 1.731 10.118 1.924 1.377-1.334 2.222-2.031 2.222-2.031-25.765-35.912 1.445-62.757 1.445-62.757-6.72-.136-13.393.238-19.883 1.122z" fill="#fee884"/><path d="m409.827 340.846c-7.11-.581-10.892-3.339-19.271-8.064-11.716-6.606-23.542-12.25-35.791-16.888-3.042 12.195-13.522 45.723-40.625 67.051h22.673l-58.288 91.639c-10.489 16.491-34.561 16.49-45.049-.001l-36.865-57.962c-.05.944-.048 1.921.017 2.934-8.943-1.031-47.093-3.874-73.334 18.42-7.29 6.193-13.055 13.795-17.321 22.721 41.453 32.155 93.502 51.3 150.027 51.3 94.953 0 177.285-54.019 217.954-132.999-12.311-19.843-32.189-35.539-64.127-38.151z" fill="#e80054"/><path d="m107.183 461.627c24.248-51.276 91.124-40.337 91.124-40.337-.107-.794-.163-1.558-.196-2.309l-22.919-36.035h26.011c-28.157-21.373-40.192-54.995-43.775-67.126-12.317 4.651-24.207 10.321-35.984 16.962-8.379 4.725-12.161 7.483-19.271 8.064-31.939 2.611-51.817 18.308-64.127 38.154 16.694 32.42 40.412 60.629 69.137 82.627z" fill="#cc0053"/><path d="m214.883 384.947c-.085 2.723.18 5.702.899 8.959-4.659 1.745-19.622 8.622-19.188 24.692l36.881 57.987c10.489 16.491 34.56 16.491 45.049.001l58.288-91.639z" fill="#ff4155"/><path d="m175.192 384.947 23.115 36.344c-2.718-20.156 19.248-26.409 19.248-26.409-.938-3.708-1.275-6.998-1.189-9.934h-41.174z" fill="#e80054"/><path d="m311.095 261.825c-5.565 6.482-11.405 11.904-16.986 16.237-10.873 8.444-24.29 13.03-38.109 13.03-.501 0-1-.019-1.5-.031v.033c0 .493-.217 49.427-22.726 70.599-.944.298-1.962.704-3.012 1.221 8.056 3.914 17.542 6.36 28.692 6.36 56.403 0 67.493-62.424 67.493-62.424-10.662-10.664-13.365-30.881-13.852-45.025z" fill="#ffaa7b"/><path d="m200.904 261.825c-.487 14.144-3.19 34.361-13.854 45.024 0 0 9.357 41.684 43.56 56.924 1.181-.527 1.934-.747 1.934-.747 23.515-21.746 23.456-71.935 23.456-71.935-13.819 0-27.236-4.586-38.109-13.03-5.581-4.333-11.422-9.755-16.987-16.236z" fill="#fc9460"/><path d="m360.256 140.747c-4.31-3.95-13.945-1.948-17.657.471.813 5.064.86 10.244.157 15.36l-4.38 31.902c0 2.572-.081 5.095-.23 7.574 10.681 3.222 17.037-6.367 17.931-12.948.385-2.833 1.014-5.625 1.886-8.349 2.841-8.874 13.091-24.114 2.293-34.01z" fill="#ffaa7b"/><path d="m151.744 140.747c4.31-3.95 13.945-1.948 17.657.471-.813 5.064-.86 10.244-.157 15.36l4.38 31.902c0 2.572.081 5.095.23 7.574-10.681 3.222-17.037-6.367-17.93-12.948-.385-2.833-1.014-5.625-1.886-8.349-2.843-8.874-13.092-24.114-2.294-34.01z" fill="#fc9460"/><path d="m256 173.509c-5.088 1.566-9.938 2.764-14.582 3.668 1.084 1.119 2.431 2.164 4.102 3.082-1.464 2.562-3.701 8.018-.635 13.828l-2.192 9.913c-1.386 1.907-8.226 12.359-.817 23.544l1.904 9.224c-.874 3.617-.645 10.774 6.117 14.296 6.466 3.368 6.088 6.622 6.091 6.622v-.001l-.049.227.022.23c.025.268 2.355 21.716 22.119 32.547 5.727-2.171 11.136-5.181 16.028-8.979 20.83-16.175 45.318-47.356 45.318-93.23l3.828-27.881c-14.455 12.889-41.914 26.871-87.254 12.91z" fill="#ffc7ab"/><path d="m279.887 289.967c-20.346-10.314-22.432-31.967-22.432-31.967s.903-4.219-6.864-8.266c-7.768-4.046-5.271-12.927-5.271-12.927l-2.035-9.854c-7.917-11.628.803-22.313.803-22.313l2.384-10.783c-4.22-7.257 1.22-14.191 1.22-14.191-1.826-.821-3.287-1.792-4.466-2.846-37.801 7.921-61.437-4.59-74.48-16.22l3.828 27.88c0 45.874 24.488 77.054 45.318 93.23 10.872 8.443 24.29 13.029 38.109 13.029 8.259-.001 16.37-1.651 23.886-4.772z" fill="#ffaa7b"/><path d="m246.99 123.793c5.729 2.528 12.293 2.531 18.024.007 35.979-15.849 61.344-1.338 77.271 11.405-.376-1.294-.787-2.579-1.272-3.844-.986-2.572-2.229-5.177-3.795-7.634-2.652-4.161-3.819-9.083-3.464-13.991 1.023-14.115.474-41.722-18.056-50.06-15.742-7.083-35.053-2.982-47.368 1.113-4.697 1.562-9.624 2.199-14.511 1.927-2.964 2.717-10.657 10.424-16.708 22.245-4.246 8.296-8.091 19.629-7.833 33.172 5.594 1.09 11.495 2.917 17.712 5.66z" fill="#ffc7ab"/><path d="m265.013 121.8c-5.73 2.524-12.295 2.521-18.024-.007-6.22-2.744-12.124-4.572-17.72-5.661-.096 9.042 1.61 19.119 6.294 29.982l2.332 15.161c-.601 2.188-2.981 13.156 7.624 18.983-.075.131-.152.274-.231.42.796-.324 1.596-.657 2.404-1.013 5.283-2.331 11.336-2.334 16.62-.006 39.419 17.365 65.025-4.792 78.629-16.779l.865-6.302c1.113-8.103.338-16.363-2.396-24.066-15.974-12.565-41.069-26.274-76.397-10.712z" fill="#ff4155"/><path d="m230.748 118.437c-.857-34.15 25.26-55.65 25.262-55.652-4.17.001-8.34-.664-12.342-1.995-12.315-4.095-31.625-8.196-47.368-1.113-18.583 8.361-19.081 36.102-18.047 50.18.358 4.87-.841 9.742-3.473 13.871-1.472 2.31-2.659 4.751-3.615 7.173-.557 1.41-1.019 2.849-1.438 4.298 13.426-10.725 33.571-22.693 61.021-16.762z" fill="#ffaa7b"/><path d="m247.692 179.666c-12.583-5.656-8.264-18.289-8.264-18.289l-2.412-15.681c-4.575-10.546-6.337-20.353-6.288-29.264-26.856-5.795-46.718 5.543-60.135 16.081-2.753 7.777-3.487 16.143-2.362 24.335l.828 6.032c13.602 11.986 39.303 34.139 78.633 16.786z" fill="#e80054"/><ellipse cx="295.769" cy="155.087" fill="#ffc7ab" rx="24.872" ry="16.885"/><ellipse cx="216.345" cy="155.087" fill="#ffaa7b" rx="24.872" ry="16.885"/><path d="m286.095 152.667c0-1.565.293-3.052.815-4.406-2.033.998-3.675 2.128-4.844 3.082-2.727 2.224-7.47 5.046-10.066 6.537-.491.282-.29 1.031.276 1.031h.256c2.409 0 4.806.376 7.094 1.13 3.969 1.307 7.767 1.957 11.279 2.172-2.885-1.978-4.81-5.512-4.81-9.546z" fill="#edeef2"/><path d="m318.392 155.114c-4.742-4.449-9.301-7.016-13.516-8.316.948 1.708 1.496 3.717 1.496 5.869 0 3.516-1.463 6.652-3.749 8.71 3.451-.714 6.145-1.705 7.814-2.465 3.422-1.558 6.01-2.192 7.549-2.449.641-.108.88-.905.406-1.349z" fill="#edeef2"/><path d="m286.274 148.584c-.578 1.321-.901 2.779-.901 4.313 0 3.97 2.15 7.436 5.347 9.304 4.612.301 8.736-.153 12.116-.869 2.483-1.973 4.078-5.017 4.078-8.435 0-2.239-.684-4.319-1.854-6.042-7.724-2.443-14.311-.619-18.786 1.729z" fill="#3d9cea"/><path d="m300.16 153.574c0 2.28-1.848 4.128-4.128 4.128s-4.128-1.848-4.128-4.128 1.848-4.128 4.128-4.128 4.128 1.848 4.128 4.128z" fill="#3c58a0"/><path d="m226.019 152.667c0-1.565-.293-3.052-.815-4.406 2.033.998 3.675 2.128 4.844 3.082 2.727 2.224 7.47 5.046 10.066 6.537.491.282.29 1.031-.276 1.031h-.256c-2.409 0-4.806.376-7.094 1.13-3.969 1.307-7.767 1.957-11.279 2.172 2.886-1.978 4.81-5.512 4.81-9.546z" fill="#edeef2"/><path d="m193.722 155.114c4.742-4.449 9.301-7.016 13.516-8.316-.948 1.708-1.496 3.717-1.496 5.869 0 3.516 1.463 6.652 3.749 8.71-3.451-.714-6.145-1.705-7.814-2.465-3.422-1.558-6.01-2.192-7.549-2.449-.64-.108-.88-.905-.406-1.349z" fill="#edeef2"/><path d="m225.84 148.584c.578 1.321.901 2.779.901 4.313 0 3.97-2.15 7.436-5.347 9.304-4.611.301-8.736-.153-12.116-.869-2.483-1.973-4.078-5.017-4.078-8.435 0-2.239.684-4.319 1.854-6.042 7.725-2.443 14.311-.619 18.786 1.729z" fill="#3d9cea"/><path d="m211.954 153.574c0 2.28 1.848 4.128 4.128 4.128s4.128-1.848 4.128-4.128-1.848-4.128-4.128-4.128-4.128 1.848-4.128 4.128z" fill="#3c58a0"/><g fill="#fc9460"><path d="m280.246 230.588-9.218-3.635c-1.037-.408-2.182-.456-3.249-.134l-10.623 3.203-10.623-3.203c-1.067-.321-2.212-.274-3.249.134l-9.218 3.635c-2.547 1.004-3.798 3.883-2.793 6.429 1.002 2.539 3.875 3.8 6.429 2.793l7.617-3.004 10.36 3.124c1.004.314 2.05.291 2.955-.001l10.358-3.123 7.617 3.004c2.542 1 5.422-.24 6.429-2.793 1.006-2.547-.245-5.425-2.792-6.429z"/><path d="m260.636 248.086h-6.362c-2.738 0-4.957 2.219-4.957 4.957s2.219 4.957 4.957 4.957h6.362c2.738 0 4.957-2.219 4.957-4.957s-2.219-4.957-4.957-4.957z"/><path d="m284.991 195.635c-.687-1.053-1.741-1.775-2.969-2.034l-9.172-1.931c-2.15-.452-4.07.384-5.008 2.184-.031.058-.064.116-.101.172-2.133 3.299-6.091 5.269-10.587 5.269-4.495 0-8.451-1.97-10.585-5.269-.035-.054-.068-.11-.099-.169-.94-1.801-2.859-2.637-5.011-2.185l-9.172 1.93c-2.537.534-4.166 3.033-3.632 5.57.532 2.534 3.03 4.165 5.572 3.633l5.111-1.076c.7-.146 1.415.069 1.915.562 4.31 4.258 10.105 6.387 15.902 6.387 5.795-.001 11.592-2.129 15.902-6.386.505-.498 1.22-.71 1.915-.563l5.113 1.076c2.535.53 5.035-1.097 5.57-3.633.259-1.228.023-2.483-.664-3.537z"/></g><path d="m324.948 306.849c-.392-.392-.752-.823-1.123-1.24l-.272.687-.082.29c-.027.153-2.858 15.573-12.439 30.756-12.741 20.192-30.768 30.431-53.578 30.431-9.785 0-18.776-1.889-26.938-5.633-7.792 3.044-18.944 12.71-14.734 31.766-.04.015-.088.034-.13.05 11.855 5.93 25.887 9.658 42.453 9.658 73.038 0 93.579-72.306 97.098-87.547-9.765-3.721-19.796-6.805-30.255-9.218z" fill="#ff7186"/><path d="m217.555 394.881c-6.47-25.565 14.989-31.855 14.989-31.855.001-.001.001-.001.002-.002-11.747-4.867-21.837-13.458-30.149-25.726-10.297-15.194-13.849-30.624-13.883-30.778l-.073-.325-.368-.476c-.34.378-.665.773-1.023 1.13-10.416 2.404-20.409 5.471-30.138 9.171 3.294 11.891 18.742 59.132 60.643 78.861z" fill="#ff4155"/><path d="m108.124 307.596c6.84-1.601 13.15-4.838 18.415-9.422 8.667 2.556 17.694 8.375 22.713 20.945l6.344 15.892c2.755 6.899.026 14.818-6.347 18.422-6.497 3.675-14.09 10.513-15.636 22.639-18.121-9.695-51.26-22.285-86.009-9.792 0 0 13.472-47.67 60.52-58.684z" fill="#d3dcfb"/><path d="m148.51 352.128c5.782-3.269 8.156-10.392 5.693-16.56l-6.345-15.891c-5.001-12.527-14.086-18.081-22.655-20.389 1.41-1.13 2.764-2.337 4.029-3.649 11.012-11.419 33.255-27.545 66.238-19.266 2.313.581 3.854 2.776 3.67 5.154l-7.003 90.48c-4.54-2.629-10.466-4.226-16.946-4.226-14.083 0-25.563 7.528-25.822 16.846l-1.512.321s-5.855-4.52-15.672-9.627c1.763-12.354 9.561-19.369 16.325-23.193z" fill="#bec8f7"/><path d="m403.88 307.596c-6.84-1.601-13.15-4.838-18.415-9.422-8.667 2.556-17.694 8.375-22.713 20.945l-6.344 15.892c-2.755 6.899-.026 14.818 6.347 18.422 6.497 3.675 14.09 10.513 15.636 22.639 18.121-9.695 51.26-22.285 86.009-9.792 0 0-13.473-47.67-60.52-58.684z" fill="#deeeff"/><path d="m363.494 352.128c-5.782-3.269-8.156-10.392-5.693-16.56l6.345-15.891c5.001-12.527 14.086-18.081 22.655-20.389-1.41-1.13-2.765-2.337-4.03-3.649-11.012-11.419-33.255-27.545-66.238-19.266-2.313.581-3.854 2.776-3.67 5.154l7.003 90.48c4.54-2.629 10.466-4.226 16.946-4.226 14.083 0 25.563 7.528 25.822 16.846l1.512.321s5.855-4.52 15.672-9.627c-1.762-12.354-9.561-19.369-16.324-23.193z" fill="#d3dcfb"/><ellipse cx="336.812" cy="384.947" fill="#ffdd40" rx="27.333" ry="18.667"/><ellipse cx="343.479" cy="382.334" fill="#fee884" rx="13.667" ry="9.333"/><path d="m501.002 266.997c0-76.429-35.002-144.677-89.844-189.608-42.068 17.17 3.381 67.729-29.299 131.289-28.065 54.585 63.772 86.52 115.626 99.823 2.301-13.492 3.517-27.355 3.517-41.504z" fill="#9787f4"/><path d="m10.998 266.997c0-76.429 35.002-144.677 89.844-189.608 42.068 17.17-3.381 67.729 29.299 131.289 28.065 54.585-63.772 86.52-115.626 99.823-2.302-13.492-3.517-27.355-3.517-41.504z" fill="#9787f4"/><ellipse cx="175.192" cy="384.947" fill="#ffdd40" rx="27.333" ry="18.667"/><ellipse cx="181.858" cy="382.334" fill="#fee884" rx="13.667" ry="9.333"/><path d="m427.76 441.699c-6.283-12.398-14.948-20.316-22.285-25.203-6.179-4.116-14.45.334-14.45 7.759v47.198c13.194-8.732 25.496-18.703 36.735-29.754z" fill="#cc0053"/></g></svg>