<svg id="Layer_1" enable-background="new 0 0 512 512" height="512" viewBox="0 0 512 512" width="512" xmlns="http://www.w3.org/2000/svg"><g><path d="m50.579 381.91 448.012-34.812c8.68-25.101 13.408-52.047 13.408-80.1 0-135.311-109.691-245.002-245.002-245.002s-245.002 109.691-245.002 245.002c.001 41.531 10.348 80.639 28.584 114.912z" fill="#856ee5"/><path d="m116.365 283.595-26.024 9.499c-.03.504-.058 1.008-.058 1.519 0 12.329 8.928 22.567 20.669 24.618l9.498-3.641c.015-.264-1.896-6.809 3.398-11.448l6.161-5.398z" fill="#d3dcfb"/><path d="m19.908 297.569c3.15.983 6.579.534 8.763-.2l.139-.055c.272-.123 27.467-12.378 43.231-18.155 3.764-1.379 5.953-3.615 6.51-6.647.937-5.108-3.192-11.233-7.07-15.689l-52.332 19.102c-3.466 1.265-5.267 5.137-4.002 8.603z" fill="#ffdd40"/><path d="m118.647 284.011-29.44-32.689c-.216-.24-.374-.51-.561-.766l-18.71 6.83c5.621 6.343 12.232 16.466 1.59 20.365-16 5.863-43.333 18.196-43.333 18.196s-4.9 1.648-8.96-.228l5.758 15.774c1.265 3.466 5.136 5.267 8.603 4.002l83.102-30.334c.736-.268 1.378-.674 1.951-1.15z" fill="#ffb332"/><path d="m164.636 242.589c4.684-.221 8.324-1.681 10.834-4.35 2.507-2.665 3.219-5.851 3.413-7.76l-12.355-13.718c-7.236-8.035-19.731-8.688-27.766-1.452l-.257.231 25.772 28.616c.153-.605.273-1.138.359-1.567z" fill="#deeeff"/><path d="m163.363 241.118s-.073.618-.309 1.681l23.412 25.995c1.622-1.28 3.302-2.568 5.094-3.862l15.501-3.165-29.61-32.877c.001.001.749 12.228-14.088 12.228z" fill="#d3dcfb"/><path d="m96.313 168.137-29.137-35.901c-5.74-7.072-16.351-7.589-22.751-1.108l-40.01 40.512c-7.429 7.523-5.164 20.135 4.419 24.603l38.57 17.98c45.486-5.897 48.825-37.748 48.909-46.086z" fill="#3c58a0"/><path d="m94.688 166.135c0 .003 3.566 41.156-49.297 47.151l45.911 21.402 28.71-25.857c2.106-1.897 4.862-2.64 7.48-2.278z" fill="#2a428c"/><path d="m107.184 274.999c15.337 1.519 35.587.05 48.397-14.482 6.389-7.247 8.457-14.928 9.055-17.929.017-.001.032-.003.048-.004l-31.585-35.07c-3.411-3.787-9.301-4.095-13.088-.684l-34.095 30.707c-3.787 3.411-4.095 9.301-.684 13.088z" fill="#3c58a0"/><path d="m163.363 241.118c0 .001-4.526 38.347-57.682 32.213l23.523 26.118 13.285-11.638c4.607-4.034 11.639-3.572 15.676 1.035l3.972 4.534c.646-.723 8.817-12.602 25.392-25.43z" fill="#2a428c"/><path d="m288.365 511.062 21.623-4.469v-73.146h-42.75v78.55c7.119-.007 14.166-.322 21.13-.925z" fill="#deeeff"/><path d="m386.48 319.614v-56.087l-101.191-19.264-94.344 19.264v47.92l5.276 8.167z" fill="#bec8f7"/><path d="m207.419 336.947 64.97 100.567h32.647l69.965-100.567z" fill="#3d9cea"/><path d="m76.861 350.521c-14.046 4.608-24.208 16.797-26.281 31.389 21.454 40.321 53.839 73.934 93.21 96.887-7.059-32.926-25.058-92.756-66.929-128.276z" fill="#2a428c"/><path d="m305.036 437.514v70.103l39.495-8.163c4.634-1.546 9.212-3.216 13.719-5.026l4.774-64.054z" fill="#bec8f7"/><path d="m220.149 507.507c15.166 2.937 30.824 4.493 46.848 4.493 1.802 0 3.598-.03 5.391-.068v-74.418l-57.988-7.14z" fill="#a8b7ef"/><path d="m219.549 437.514s-7.824-23.461-23.992-49.627c-4.076-6.597-14.061-.78-10.376 6.044l1.327 2.458c-2.669.82-7.854 2.628-13.098 5.653-10.013 5.777-15.306 13.237-15.306 21.572v62.889c19.682 9.778 40.857 17 63.103 21.206z" fill="#d3dcfb"/><path d="m159.605 487.251c0-10.778 0-47.519 0-63.637 0-19 29.11-26.296 29.11-26.296l-28.206-52.241c-2.156-1.907-4.37-3.755-6.649-5.524l2.05-2.994-9.137-16.922-7.592-5.729c-3.884-2.931-9.004-3.653-13.547-1.911l-29.436 11.286c-3.023 1.159-5.556 3.323-7.173 6.129l-12.164 21.108s40.462 59.444 58.497 123.14c7.791 4.974 15.888 9.51 24.247 13.591z" fill="#bec8f7"/><path d="m190.945 263.527 4.023 23.827c1.593 9.437 6.02 18.166 12.693 25.026l33.164 34.099c4.784 4.919 8.288 10.937 10.202 17.527l21.361 73.508h-52.839l-70.677-98.014c-3.606-5.001-4.719-11.372-3.03-17.302 3.733-13.105 14.448-36.637 45.103-58.671z" fill="#d3dcfb"/><path d="m487.027 327.44c-1.537-1.849-3.53-3.286-5.8-4.156l-29.436-11.286c-4.543-1.742-9.663-1.02-13.547 1.911l-21.256 16.039 6.577 9.606c-44.563 34.598-65.69 97.96-65.69 97.96l-1.361 57.614c37.897-14.882 71.171-38.947 97.118-69.439 4.791-45.876 24.127-82.807 33.395-98.249z" fill="#d3dcfb"/><path d="m386.48 263.527-4.023 23.827c-1.593 9.437-6.02 18.166-12.693 25.026l-33.164 34.099c-4.784 4.919-8.288 10.937-10.202 17.527l-21.361 73.508h52.839l70.677-98.014c3.606-5.001 4.719-11.372 3.03-17.302-3.733-13.105-14.448-36.637-45.103-58.671z" fill="#deeeff"/><path d="m399.145 122.696v58.667c10.295 0 18.718-8.423 18.718-18.718v-21.23c.001-10.296-8.423-18.719-18.718-18.719z" fill="#bec8f7"/><path d="m288.712 0c-.783 0-1.562.012-2.34.03l.268.218c-4.243 5.86-20.72 32.044-.056 60.401-4.099 2.998-16.227 12.969-16.227 25.965v35.908l-5.374 22.871h122.9v-46.22c.002-54.546-44.626-99.173-99.171-99.173z" fill="#6c5475"/><path d="m288.712 0c-54.545 0-99.173 44.627-99.173 99.173v46.221h76.986l5.333-22.698s0-21.416 0-36.082c0-14.667 16.854-25.622 16.854-25.622-24.479-31.956 0-60.992 0-60.992z" fill="#543e5b"/><path d="m373.484 152.46h19.969c2.864 0 5.372-1.591 6.693-3.93v-28.093c0-3.989-3.264-7.253-7.253-7.253h-18.849c-3.989 0-7.253 3.264-7.253 7.253v28.093c1.321 2.34 3.828 3.93 6.693 3.93z" fill="#deeeff"/><path d="m392.893 152.03h-18.849c-3.989 0-7.253-3.264-7.253-7.253v38.845c0 3.989 3.264 7.253 7.253 7.253h18.849c3.989 0 7.253-3.264 7.253-7.253v-38.845c-.001 3.989-3.264 7.253-7.253 7.253z" fill="#d3dcfb"/><path d="m184.133 139.195c4.323-3.962 13.988-1.954 17.711.472-.816 5.079-.862 10.276-.157 15.407l4.394 32.001c0 2.579.081 5.11.231 7.597-10.714 3.232-17.089-6.387-17.986-12.988-.386-2.841-1.017-5.642-1.892-8.375-2.851-8.899-13.132-24.187-2.301-34.114z" fill="#fc9460"/><path d="m373.989 129.781c-.989-2.58-2.236-5.193-3.806-7.658-2.661-4.174-3.831-9.111-3.474-14.034 1.026-14.159.476-41.851-18.112-50.215-15.791-7.105-35.161-2.992-47.515 1.116-4.803 1.597-9.847 2.231-14.844 1.915-4.392 3.277-15.88 13.058-15.88 25.708v35.908l-12.482 53.129c-2.149 1.888-11.173 10.871-3.942 22.939l8.613 28.352c-1.866 3.969-2.852 12.041 5.45 17.786 4.634 3.208 3.05 24.366-.166 45.337 6.656 2.359 13.713 3.599 20.881 3.599 13.862 0 27.321-4.6 38.227-13.069 20.894-16.225 45.458-47.502 45.458-93.518l4.394-32.001c1.172-8.531.284-17.244-2.802-25.294z" fill="#ffc7ab"/><path d="m259.223 176.477 12.636-53.781s0-21.416 0-36.082c0-14.667 16.854-25.622 16.854-25.622-4.179 0-8.358-.667-12.37-2.001-12.353-4.108-31.723-8.222-47.515-1.116-18.64 8.387-19.14 36.214-18.103 50.336.359 4.885-.844 9.772-3.484 13.914-1.522 2.387-2.739 4.914-3.713 7.415-3.158 8.113-4.079 16.913-2.896 25.528l4.395 32.008c0 46.016 24.564 77.293 45.458 93.518 5.665 4.399 12.023 7.744 18.765 9.953 2.997-19.245 5.369-43.06-.4-47.053-9.925-6.869-4.693-16.414-4.693-16.414l-8.844-29.106c-7.711-12.638 3.91-21.497 3.91-21.497z" fill="#ffaa7b"/><path d="m372.167 228.966c10.546-22.387 1.648-52.214 1.648-52.214h-1.648c-10.025 0-18.293 7.787-18.959 17.79-1.038 15.585-4.335 37.267-14.364 47.296-11.78 11.78-27.915 3.733-36.285-1.928-4.084-2.762-8.897-4.228-13.828-4.228h-.018-.01c-4.936 0-9.753 1.467-13.842 4.232-2.316 1.566-5.227 3.312-8.474 4.773-2.035 6.982-6.885 31.502 17.926 50.406 11.796 8.986 6.57 20.521-.046 35.125-6.415 14.159-14.151 31.267-3.984 48.357 18.185 1.574 37.535-2.088 49.16-10.389 76.007-54.268 33.091-118.767 42.724-139.22z" fill="#6c5475"/><path d="m285.508 293.522c-28.144-21.443-16.718-49.881-16.658-50.028-8.781 4.539-20.9 7.713-30.269-1.656-10.03-10.03-13.326-31.711-14.364-47.296-.666-10.003-10.581-17.79-20.606-17.79 0 0-8.898 29.827 1.647 52.214 9.634 20.452-33.732 85.587 42.726 139.221 9.022 6.329 21.674 9.77 34.716 10.564-21.355-32.863 29.069-65.221 2.808-85.229z" fill="#543e5b"/><path d="m288.712 198.966v6.512c0 7.799 5.423 16.788 13.038 18.469l4.114.908c16.997 3.752 30.986 15.767 37.262 32.003 1.861 4.814 9.019 3.387 8.892-1.772l-.351-16.54c-.426-17.38-12.603-36.726-29.557-40.571l-23.033-6.767c-5.178-1.521-10.365 2.361-10.365 7.758z" fill="#876d93"/><path d="m250.854 216.523c1.596 4.873 5.171 8.732 10.639 11.494-.03.071-.059.156-.089.23 3.231-1.457 6.623-2.613 10.155-3.393l4.115-.908c7.616-1.681 13.038-10.67 13.038-18.469v-6.512c0-5.397-5.187-9.279-10.365-7.758l-23.034 6.767c-.878.199-1.74.449-2.591.729-1.523 3.256-4.234 10.596-1.868 17.82z" fill="#6c5475"/><path d="m225.757 238.546-.351 16.54c-.127 5.159 7.032 6.585 8.892 1.772 5.334-13.8 16.252-24.529 29.842-29.748.011-.018.017-.029.017-.029-20.783-8.89-8.844-29.106-8.844-29.106-16.953 3.844-29.13 23.191-29.556 40.571z" fill="#543e5b"/><path d="m263.938 120.311h-15.425c-5.421 4.049-8.953 10.499-8.953 17.747v10.55c0 11.988 6.559 22.507 16.259 28.18 15.093-.491 27.29-12.979 27.29-28.186v-9.119c0-10.546-8.627-19.172-19.171-19.172z" fill="#3c58a0"/><path d="m241.126 148.603v-9.729c0-8.212 4.915-15.316 11.94-18.563h-25.388c-10.544 0-19.171 8.627-19.171 19.171v9.119c0 15.515 12.694 28.21 28.21 28.21h18.181c1.637 0 3.239-.149 4.801-.42-10.877-4.547-18.573-15.311-18.573-27.788z" fill="#2a428c"/><path d="m349.746 119.977h-6.139c-7.879 2.643-13.602 10.098-13.602 18.837v9.455c0 12.257 7.654 22.791 18.409 27.123 11.799-3.375 20.503-14.279 20.503-27.124v-9.119c0-10.545-8.627-19.172-19.171-19.172z" fill="#4b6bb2"/><path d="m330.707 148.267v-9.119c0-10.522 8.591-19.131 19.105-19.167-.022 0-.044-.003-.066-.003h-36.259c-10.544 0-19.171 8.627-19.171 19.171v9.119c0 15.515 12.694 28.21 28.21 28.21h18.181c3.183 0 6.244-.542 9.105-1.525-11.082-3.811-19.105-14.353-19.105-26.686z" fill="#3c58a0"/><path d="m294.129 128.947h-10.833c-3.346 0-6.083 2.738-6.083 6.083 0 3.346 2.738 6.083 6.083 6.083h10.833c3.346 0 6.083-2.738 6.083-6.083s-2.737-6.083-6.083-6.083z" fill="#4b6bb2"/><g><path d="m320.79 259.267c-3.167 0-6.037-2.164-6.804-5.38-.896-3.761 1.427-7.535 5.188-8.432 24.134-5.749 42.038-18.188 50.562-25.09 2.224-1.801 3.5-4.493 3.5-7.384v-35.504c0-3.866 3.134-7 7-7s7 3.134 7 7v35.504c0 7.134-3.167 13.791-8.689 18.264-9.449 7.65-29.304 21.438-56.13 27.829-.544.13-1.09.193-1.627.193z" fill="#bec8f7"/></g><g><path d="m293.289 263.527c-4.418 0-8-3.582-8-8s3.582-8 8-8c8.539 0 17.17-1.024 25.653-3.045 4.295-1.025 8.611 1.63 9.636 5.929 1.023 4.298-1.631 8.612-5.929 9.636-9.695 2.31-19.574 3.48-29.36 3.48z" fill="#73c3f9"/></g><path d="m353.122 439.359h-128.82c-7.15 0-13-5.85-13-13 0-7.15 5.85-13 13-13h128.82c7.15 0 13 5.85 13 13 0 7.15-5.85 13-13 13z" fill="#73c3f9"/><path d="m297.591 426.359c0-7.15 5.85-13 13-13h-86.288c-7.15 0-13 5.85-13 13s5.85 13 13 13h86.288c-7.15 0-13-5.85-13-13z" fill="#49b1f7"/><g><path d="m234.05 373.189-6.98 5.939c-7.075 6.28-7.757 17.092-1.529 24.212l90.7 103.683c9.688-1.975 19.172-4.51 28.406-7.594z" fill="#4b6bb2"/></g><path d="m227.537 403.21c-6.094-6.967-5.426-17.545 1.496-23.69l5.943-5.276-75.682-86.386c-4.57-5.216-12.576-5.745-17.792-1.175l-18.641 16.331c-5.216 4.57-5.745 12.576-1.175 17.792l166.681 190.255c10.075-.871 19.971-2.36 29.66-4.411z" fill="#3c58a0"/><path d="m220.273 341.46-5.939-6.779c-3.57-4.076-9.769-4.485-13.845-.914l-16.361 14.333c-1.182 3.458-.563 7.427 2.018 10.373l6.391 7.295c2.931 3.345 7.506 4.392 11.459 2.996l15.362-13.459c4.076-3.571 4.485-9.769.915-13.845z" fill="#6289cc"/><path d="m192.768 365.427-6.271-7.158c-2.647-3.021-3.214-7.144-1.833-10.639l-21.713 19.023c-4.076 3.571-4.485 9.769-.915 13.845l5.939 6.779c3.571 4.076 9.769 4.485 13.845.914l22.997-20.147c-4.047 1.826-8.971.895-12.049-2.617z" fill="#4b6bb2"/><path d="m427.006 81.464c-3.427 11.367.983 29.603 12.519 53.567 20.5 42.583-31.021 46.25-21.662 104.417 6.418 39.887 63.438 50.947 92.717 54.004.935-8.69 1.42-17.515 1.42-26.453 0-74.153-32.945-140.608-84.994-185.535z" fill="#9787f4"/><path d="m84.228 103.858c8.945 22.951 26.281 58.089 48.589 58.089 23.13 0 43.228-78.112 31.038-117.227-30.459 14.157-57.518 34.386-79.627 59.138z" fill="#9787f4"/><path d="m498.592 347.098-10.192-17.686c-.702-1.219-1.586-2.307-2.599-3.253-9.084 14.879-30.011 53.741-34.438 102.159 20.604-23.533 36.789-51.033 47.229-81.22z" fill="#deeeff"/><path d="m314.479 184.062c-.636-.975-1.612-1.643-2.748-1.883l-8.49-1.788c-1.99-.418-3.768.356-4.636 2.022-.029.054-.059.107-.093.159-1.975 3.054-5.638 4.877-9.801 4.877-4.161 0-7.824-1.823-9.799-4.878-.032-.05-.062-.102-.091-.157-.87-1.668-2.647-2.441-4.638-2.023l-8.491 1.787c-2.348.494-3.857 2.808-3.362 5.156.492 2.346 2.805 3.855 5.158 3.363l4.732-.996c.648-.135 1.31.064 1.772.521 3.99 3.941 9.355 5.912 14.721 5.912 5.365-.001 10.731-1.971 14.721-5.912.467-.461 1.129-.657 1.772-.521l4.733.996c2.347.491 4.661-1.015 5.156-3.363.239-1.134.02-2.296-.616-3.272z" fill="#ffaa7b"/></g></svg>