<svg id="Layer_1" enable-background="new 0 0 512 512" height="512" viewBox="0 0 512 512" width="512" xmlns="http://www.w3.org/2000/svg"><g><path d="m442.392 425.99c36.536-42.793 58.606-98.309 58.606-158.988 0-135.309-109.689-244.998-244.998-244.998s-244.998 109.689-244.998 244.998c0 60.679 22.07 116.195 58.606 158.988z" fill="#f9e9bd"/><g><path d="m409.975 408.97v-254.995c0-84.687-69.289-153.975-153.975-153.975s-153.975 69.288-153.975 153.975v254.995z" fill="#665364"/></g><path d="m283.856 404.367c-6.437-6.795-2.415-15.245.621-19.75 1.223-1.815.878-4.264-.839-5.621-28.196-22.271-11.541-48.417-7.509-53.93.521-.712.808-1.567.808-2.449v-11.237c0-1.591-.921-3.013-2.334-3.744-15.555-8.046-12.761-24.74-12.08-27.874.069-.32.175-.626.317-.921l17.408-36.216c.634-1.319 1.914-2.21 3.371-2.346l23.091-2.165c3.049-.286 4.761-3.649 3.199-6.282l-59.552-100.422c-.633-1.067-1.718-1.773-2.944-1.964-42.203-6.57-42.794-44.676-41.869-56.908.155-2.044-1.209-3.904-3.208-4.357-12.347-2.798-12.998-12.54-12.23-18.272.303-2.256-1.283-4.276-3.528-4.649-12.3-2.048-12.054-12.753-10.835-18.9.232-1.169-.042-2.312-.662-3.214-43.764 27.232-73.056 75.772-73.056 130.83v254.994h182.483c.728-1.5.536-3.349-.652-4.603z" fill="#543e5b"/><path d="m256 27.531c-69.546 0-126.443 56.904-126.443 126.443v254.996h252.886v-254.996c0-69.546-56.904-126.443-126.443-126.443z" fill="#7f6a7e"/><path d="m283.856 404.367c-6.437-6.795-2.415-15.245.621-19.75 1.223-1.815.878-4.264-.839-5.621-28.196-22.271-11.541-48.417-7.509-53.93.521-.712.808-1.567.808-2.449v-11.237c0-1.591-.921-3.013-2.334-3.744-15.555-8.046-12.761-24.74-12.08-27.874.069-.32.175-.626.317-.921l17.408-36.216c.634-1.319 1.914-2.21 3.371-2.346l23.091-2.165c3.049-.286 4.761-3.649 3.199-6.282l-59.552-100.422c-.633-1.067-1.718-1.773-2.944-1.964-42.203-6.57-42.794-44.676-41.869-56.908.155-2.044-1.209-3.904-3.208-4.357-12.347-2.798-12.998-12.54-12.23-18.272.159-1.184-.211-2.295-.915-3.145-35.74 22.405-59.634 62.152-59.634 107.211v254.995h154.951c.728-1.5.536-3.349-.652-4.603z" fill="#665364"/><path d="m260.105 55.148c-56.235-2.309-103.016 43.081-103.016 98.827v218.54c0 4.928 3.995 8.923 8.923 8.923h179.975c4.928 0 8.923-3.995 8.923-8.923v-217.293c.001-53.246-41.603-97.89-94.805-100.074z" fill="#543e5b"/><path d="m283.638 378.996c-28.196-22.271-11.541-48.417-7.509-53.93.521-.712.808-1.567.808-2.449v-11.237c0-1.591-.921-3.013-2.334-3.744-15.555-8.046-12.761-24.74-12.08-27.874.069-.32.175-.626.317-.921l17.408-36.216c.634-1.319 1.914-2.21 3.371-2.346l23.091-2.165c3.049-.286 4.761-3.649 3.199-6.282l-59.552-100.422c-.633-1.067-1.718-1.773-2.944-1.964-42.203-6.57-42.794-44.676-41.869-56.908.084-1.107-.288-2.151-.954-2.955-28.427 17.429-47.501 48.798-47.501 84.392v218.54c0 4.928 3.995 8.923 8.923 8.923h119.1c-.183-.934-.672-1.809-1.474-2.442z" fill="#422953"/><g><path d="m297.241 324.013h-82.482c-4.224 0-7.648-3.424-7.648-7.648s3.424-7.648 7.648-7.648h82.482c4.224 0 7.648 3.423 7.648 7.648s-3.424 7.648-7.648 7.648z" fill="#665364"/></g><g><path d="m269.289 351.28h-26.577c-4.224 0-7.648-3.424-7.648-7.648s3.424-7.648 7.648-7.648h26.577c4.224 0 7.648 3.424 7.648 7.648-.001 4.225-3.425 7.648-7.648 7.648z" fill="#7f6a7e"/></g><g><path d="m315.691 245.843h-119.382c-2.725 0-5.244-1.45-6.613-3.806s-1.381-5.263-.031-7.63l59.691-104.686c1.361-2.387 3.896-3.86 6.644-3.86 2.747 0 5.283 1.473 6.643 3.86l59.691 104.686c1.35 2.367 1.338 5.274-.031 7.63-1.368 2.356-3.887 3.806-6.612 3.806zm-106.217-15.296h93.053l-46.527-81.598z" fill="#30144a"/></g><g><path d="m256 283.109c-2.747 0-5.283-1.473-6.644-3.86l-59.691-104.686c-1.35-2.367-1.338-5.274.031-7.63s3.888-3.806 6.613-3.806h119.382c2.725 0 5.244 1.45 6.613 3.806s1.381 5.263.031 7.63l-59.691 104.686c-1.361 2.387-3.897 3.86-6.644 3.86zm-46.526-104.686 46.526 81.598 46.526-81.598z" fill="#30144a"/></g><path d="m415.458 406.931h-318.916c-12.321 0-23.044 7.171-28.216 17.543 4.835 5.756 9.925 11.289 15.261 16.576.025 0 .05-.003.075-.003h344.676c.025 0 .049.003.075.003 5.337-5.287 10.427-10.82 15.262-16.576-5.173-10.372-15.895-17.543-28.217-17.543z" fill="#b5b5b5"/><path d="m283.849 437.57c-11.737-11.154-4.603-22.423.039-27.642.751-.845 1.093-1.932 1.04-2.997h-188.386c-12.321 0-23.044 7.171-28.216 17.542 4.835 5.756 9.925 11.289 15.262 16.576.025 0 .05-.003.075-.003h201.46c.134-1.252-.298-2.548-1.274-3.476z" fill="#a5a4a4"/><path d="m83.662 439.007c-.686 0-1.365.028-2.04.069 44.424 45.015 106.138 72.924 174.378 72.924s129.954-27.909 174.378-72.924c-.676-.042-1.354-.069-2.04-.069z" fill="#dbdbdb"/><path d="m284.201 443.237c1.01-1.217 1.192-2.849.621-4.23h-201.16c-.686 0-1.364.028-2.04.069 44.424 45.015 106.138 72.924 174.378 72.924 12.952 0 25.668-1.011 38.076-2.948-40.244-23.306-18.193-55.786-9.875-65.815z" fill="#c8c8c8"/></g></svg>