<svg id="Layer_1" enable-background="new 0 0 512 512" height="512" viewBox="0 0 512 512" width="512" xmlns="http://www.w3.org/2000/svg"><g><path d="m79.711 96.885s73.656 358.21 114.39 407.22c6.033 1.57 12.155 2.922 18.359 4.035l13.933 2.074c9.707 1.17 19.585 1.786 29.607 1.786 120.678 0 220.971-87.252 241.251-202.112l3.144-59.968c-8.772-127.337-114.83-227.916-244.395-227.916-69.224 0-131.733 28.719-176.289 74.881z" fill="#f9e9bd"/><path d="m212.458 508.14c4.601.825 9.251 1.51 13.937 2.074 54.495-79.358 144.259-136.57 193.444-163.856 84.376-46.808 100.879-163.558 27.299-233.624v-.001c-60.276-57.398-154.598-53.912-210.673 7.786l-20.753 22.834-.063.069c-5.756 6.286-12.73 18.025-15.499 26.086l-27.799 80.932c-1.018 2.962 1.184 6.046 4.316 6.046h45.423c3.222 0 5.43 3.249 4.242 6.245l-20.508 51.748c-1.187 2.995 1.02 6.245 4.242 6.245h36.264c3.15 0 5.353 3.116 4.302 6.086l-40.386 114.098c-1.051 2.97 1.152 6.086 4.302 6.086h17.527c3.286 0 5.495 3.369 4.185 6.382z" fill="#ff4155"/><path d="m217.527 340.727h-36.264c-3.222 0-5.43-3.249-4.242-6.244l20.508-51.748c1.187-2.995-1.02-6.245-4.242-6.245h-45.423c-3.132 0-5.333-3.083-4.316-6.046l31.418-91.467c1.851-5.388.603-11.358-3.251-15.553l-.061-.066-20.753-22.834c-19.967-21.969-44.785-36.55-71.187-43.637-42.535 44.068-68.709 104.032-68.709 170.117 0 113.924 77.761 209.68 183.099 237.103l13.355-30.726c1.31-3.014-.899-6.382-4.185-6.382h-17.527c-3.15 0-5.353-3.117-4.302-6.086l40.386-114.098c1.049-2.972-1.154-6.088-4.304-6.088z" fill="#e80054"/><path d="m374.073 56.93c-8.027 6.081-22.72 17.15-22.72 43.557 0 0 13.57 101.823 140.254 207.862 1.642 1.374 3.707 1.856 5.645 1.54 2.459-13.926 3.747-28.255 3.747-42.887 0-5.744-.214-11.438-.602-17.083-100.227-90.697-121.789-171.912-126.324-192.989z" fill="#422953"/><path d="m405.004 133.923c-8.165 25.807-34.803 22.868-34.804 22.868 13.953 30.056 37.885 69.508 78.573 111.725-8.392-39.257 25.96-43.301 25.96-43.301l.001-.001c-32.496-33.335-54.646-64.668-69.73-91.291z" fill="#30144a"/><path d="m474.228 56.93c8.027 6.081 22.721 17.15 22.721 43.557 0 0-13.57 101.823-140.254 207.862-3.231 2.704-8.103 1.968-10.415-1.553l-19.824-30.19c-1.973-3.005-1.368-7.012 1.398-9.308 117.481-97.52 141.551-187.953 146.374-210.368z" fill="#543e5b"/><path d="m424.151 38.034c37.054 0 67.703 25.598 72.798 62.453.49-4.1.749-8.289.749-12.551 0-48.566-32.928-87.936-73.547-87.936s-73.547 39.37-73.547 87.936c0 4.262.259 8.451.749 12.551 5.095-36.855 35.743-62.453 72.798-62.453z" fill="#665364"/><path d="m424.151 0c-40.619 0-73.547 39.37-73.547 87.936 0 4.262.259 8.452.749 12.551 5.095-36.856 35.744-62.453 72.798-62.453-24.019-18.082 0-38.034 0-38.034z" fill="#543e5b"/><path d="m471.897 169.442c-37.266-.002-26.858-38.62-26.858-38.62-21.099 38.105-56.801 86.354-117.183 136.477-2.766 2.296-3.371 6.303-1.398 9.308l19.824 30.19c2.313 3.522 7.184 4.258 10.415 1.553 60.768-50.867 95.499-100.756 115.2-138.908z" fill="#422953"/><path d="m215.649 143.422c-5.755 6.286-12.73 18.025-15.499 26.086l-27.799 80.932c-1.018 2.962 1.184 6.046 4.316 6.046h45.423c3.222 0 5.43 3.249 4.243 6.245l-20.508 51.748c-1.187 2.995 1.02 6.245 4.242 6.245h36.264c3.15 0 5.353 3.116 4.302 6.086l-40.386 114.098c-1.051 2.97 1.152 6.086 4.302 6.086h17.527c3.286 0 5.495 3.369 4.185 6.382l-23.803 54.764c4.601.825 9.251 1.51 13.937 2.074 43.98-64.046 110.928-113.663 160.982-144.77-176.792-18.671-171.665-222.091-171.665-222.091z" fill="#e80054"/><g fill="#ff7186"><ellipse cx="314.518" cy="151.783" rx="23.414" ry="23.414" transform="matrix(.946 -.323 .323 .946 -32.167 109.721)"/><ellipse cx="295.055" cy="195.586" rx="12.886" ry="12.886" transform="matrix(.996 -.086 .086 .996 -15.746 26.134)"/></g></g></svg>