<svg id="Layer_1" enable-background="new 0 0 512 512" height="512" viewBox="0 0 512 512" width="512" xmlns="http://www.w3.org/2000/svg"><g><path d="m474.743 377.436c16.787-33.185 26.255-70.702 26.255-110.434 0-135.309-109.689-244.998-244.998-244.998s-244.998 109.689-244.998 244.998c0 39.732 9.468 77.249 26.255 110.435z" fill="#ffdd40"/><path d="m84.356 347.215c-20.806-4.891-42.245 7.703-48.092 28.222 12.157 24.588 28.313 46.841 47.628 65.909 5.97 1.398 12.266-.247 16.851-4.399 3.26-2.952 6.825-5.619 10.595-7.925l1.004-.614v-43.629c0-7.079 3.523-13.71 9.425-17.734l.917-.626v-9.796c0-8.413 5.341-16.039 13.291-18.977l1.372-.508v-11.867c-13.818 2.104-27.1 8.151-38.014 18.036-4.071 3.687-9.632 5.164-14.977 3.908z" fill="#7f4223"/><path d="m330.736 323.039c1.665-9.644 9.628-17.059 19.363-18.032l1.891-.19v-219.681l-19.473-16.054h-9.739c-11.578 0-22.626-5.353-29.406-14.738-8.37-11.585-21.988-19.125-37.373-19.125s-29.003 7.54-37.373 19.125c-6.78 9.385-17.828 14.738-29.406 14.738h-25.293c-15.776 0-28.683 12.907-28.683 28.683v239.329c2.398-.885 4.985-1.369 7.68-1.369h185.621z" fill="#665364"/><path d="m253.885 330.513c-5.967-8.802-1.212-15.993 1.54-19.04 1.052-1.165 1.613-2.69 1.613-4.259v-50.916c0-1.405-.443-2.786-1.313-3.889-5.055-6.411-1.784-12.836.164-15.644.749-1.079 1.149-2.354 1.149-3.666v-62.082c0-2.666-1.663-5.019-4.14-6.005-12.313-4.899-12.71-18.322-11.903-25.704.304-2.778-1.214-5.381-3.733-6.591-7.268-3.492-8.408-10.12-8.262-14.527.083-2.496-1.285-4.798-3.503-5.945-9.069-4.689-9.648-14.872-9.032-21.115.281-2.851-1.331-5.485-3.951-6.645-8.104-3.588-7.977-11.474-7.098-16.07.192-1.004.111-2.013-.176-2.959-4.934 2.361-10.412 3.627-16.018 3.627h-25.293c-15.776 0-28.683 12.907-28.683 28.683v239.329c2.398-.885 4.985-1.369 7.68-1.369h111.876c.444-1.75.138-3.656-.917-5.213z" fill="#543e5b"/><path d="m350.099 305.007 1.891-.19v-210.055c-.908-1.181-2.318-1.956-3.92-1.956h-25.293c-19.341 0-37.523-9.185-48.636-24.57-8.962-12.404-27.322-12.403-36.284.001-11.114 15.384-29.296 24.569-48.637 24.569h-25.292c-2.735 0-4.96 2.224-4.96 4.96v208.822c0 1.827 1.487 3.314 3.315 3.314h176.119c3.26-2.687 7.293-4.455 11.697-4.895z" fill="#543e5b"/><path d="m257.038 256.298c0-1.405-.443-2.786-1.313-3.889-5.055-6.411-1.784-12.836.164-15.644.749-1.079 1.149-2.354 1.149-3.666v-62.082c0-2.666-1.663-5.019-4.14-6.005-12.313-4.899-12.71-18.322-11.903-25.704.304-2.778-1.214-5.381-3.733-6.591-7.268-3.492-8.408-10.12-8.262-14.527.083-2.496-1.285-4.798-3.503-5.945-9.069-4.689-9.648-14.872-9.032-21.115.153-1.552-.27-3.03-1.096-4.25-8.034 3.829-16.954 5.926-26.147 5.926h-25.292c-2.735 0-4.96 2.224-4.96 4.96v208.822c0 1.828 1.487 3.315 3.315 3.315h94.145c.386-.839.609-1.75.609-2.688v-50.917z" fill="#422953"/><g><path d="m291.28 145.253c-20.368-17.075-50.148-17.112-70.562 0-4.91 4.114-12.229 3.474-16.346-1.438-4.117-4.911-3.473-12.229 1.438-16.346 28.975-24.289 71.33-24.35 100.378 0 4.911 4.117 5.555 11.435 1.438 16.346-4.104 4.895-11.42 5.567-16.346 1.438z" fill="#665364"/></g><path d="m204.373 143.815c4.117 4.912 11.436 5.552 16.346 1.438 5.758-4.827 12.262-8.288 19.089-10.388-.642-.895-1.501-1.645-2.546-2.147-7.268-3.492-8.408-10.12-8.262-14.527.045-1.358-.352-2.652-1.069-3.74-7.874 3.027-15.363 7.355-22.12 13.02-4.911 4.115-5.555 11.433-1.438 16.344z" fill="#543e5b"/><g fill="#30144a"><path d="m257.038 235.298c4.142 0 7.5-3.357 7.5-7.5v-54.07c0-4.143-3.358-7.5-7.5-7.5s-7.5 3.357-7.5 7.5v54.07c0 4.143 3.358 7.5 7.5 7.5z"/><path d="m225.449 232.753c2.74 3.114 7.48 3.408 10.585.675 3.109-2.736 3.412-7.475.675-10.585l-12.99-14.759c8.65-2.976 14.86-10.953 14.86-20.304 0-11.884-10.025-21.552-22.348-21.552h-14.368s-.006.001-.009.001c0 0-.006-.001-.009-.001-4.142 0-7.5 3.357-7.5 7.5v54.07c0 4.143 3.358 7.5 7.5 7.5s7.5-3.357 7.5-7.5v-13.342zm-9.217-51.525c3.983 0 7.348 3 7.348 6.552s-3.365 6.553-7.348 6.553c-1.609 0-4.24.01-6.81.021-.034-6.9-.012-4.859-.036-13.126z"/><path d="m302.191 166.228h-15.056c-4.13 0-7.5 3.363-7.5 7.5v54.07c0 4.143 3.358 7.5 7.5 7.5s7.5-3.357 7.5-7.5v-16.027c2.819-.014 5.783-.026 7.556-.026 12.714 0 23.058-10.21 23.058-22.759 0-12.548-10.344-22.758-23.058-22.758zm0 30.517c-1.761 0-4.689.012-7.492.025-.038-7.809-.016-5.867-.042-15.543h7.534c4.368 0 8.058 3.553 8.058 7.759 0 4.207-3.69 7.759-8.058 7.759z"/></g><path d="m285.244 253.881h-58.489c-4.142 0-7.5 3.357-7.5 7.5s3.358 7.5 7.5 7.5h58.489c4.142 0 7.5-3.357 7.5-7.5 0-4.142-3.358-7.5-7.5-7.5z" fill="#665364"/><path d="m265.423 278.467h-18.846c-4.142 0-7.5 3.357-7.5 7.5s3.358 7.5 7.5 7.5h18.846c4.142 0 7.5-3.357 7.5-7.5s-3.358-7.5-7.5-7.5z" fill="#665364"/><path d="m430.841 438.602c18.109-18.448 33.317-39.747 44.895-63.166-5.847-20.522-27.289-33.127-48.111-28.218-3.503.826-7.097.465-10.304-.917 8.265 5.925 13.519 15.602 13.519 26.345v65.956z" fill="#7f4223"/><path d="m326.276 340.775 1.445-.263 1.076-6.233h-185.87c-12.289 0-22.344 10.055-22.344 22.343v10.133c3.773-2.574 8.324-4.083 13.211-4.083h167.469c3.586-11.107 13.017-19.72 25.013-21.897z" fill="#b5b5b5"/><path d="m255.008 334.279h-112.082c-12.289 0-22.344 10.055-22.344 22.343v10.133c3.773-2.574 8.324-4.083 13.21-4.083h121.75c.084-1.569-.399-3.145-1.45-4.38-7.01-8.24-3.489-16.058-.281-20.425.785-1.067 1.176-2.323 1.197-3.588z" fill="#a5a4a4"/><path d="m299.696 372.646c0-4.002.733-7.853 2.075-11.421h-167.978c-12.954 0-23.553 10.599-23.553 23.553v44.553c21.277-13.015 47.988-14.307 70.495-3.198 6.46 3.189 14.192 1.705 19.129-3.542 26.423-28.084 69.257-31.625 99.83-10.659v-39.286z" fill="#dbdbdb"/><path d="m110.241 384.778v44.553c21.277-13.015 47.988-14.307 70.496-3.198 6.46 3.189 14.192 1.705 19.129-3.542 16.768-17.822 40.145-25.745 62.803-23.809-.015-1.864-.838-3.694-2.351-4.973-11.752-9.937-8.184-22.597-5.335-28.805.552-1.202.696-2.523.473-3.779h-121.663c-12.954.001-23.552 10.599-23.552 23.553z" fill="#b5b5b5"/><path d="m349.89 86.127h30.758v220.961h-30.758z" fill="#f1935d"/><path d="m365.269 252.994c-8.494 0-15.379-6.885-15.379-15.379v69.473h30.758v-69.473c0 8.494-6.885 15.379-15.379 15.379z" fill="#e1715a"/><path d="m401.872 322.682c-1.984-11.496-11.957-19.895-23.624-19.895h-25.958c-11.666 0-21.639 8.399-23.623 19.895l-3.373 19.544h79.952z" fill="#e1715a"/><path d="m358.609 322.683c1.87-10.836 10.838-18.913 21.631-19.806-.658-.055-1.321-.089-1.992-.089h-25.958c-11.666 0-21.639 8.399-23.623 19.895l-3.374 19.544h49.774c-10.36-.001-18.22-9.335-16.458-19.544z" fill="#c15655"/><path d="m432.942 436.45v-63.804c0-19.057-15.448-34.505-34.504-34.505h-66.337c-19.057 0-34.505 15.448-34.505 34.505v38.967c5.214 3.328 10.112 7.323 14.538 12.027 4.937 5.246 12.668 6.732 19.127 3.543 26.594-13.129 59.016-8.924 81.418 11.368 3.854 3.491 9.049 4.996 14.127 4.066 2.079-2.021 4.129-4.072 6.136-6.167z" fill="#e9efff"/><path d="m332.101 338.141c-19.057 0-34.505 15.448-34.505 34.505v38.967c5.214 3.328 10.112 7.323 14.539 12.028 4.937 5.246 12.668 6.732 19.126 3.543 10.734-5.3 22.418-7.771 34.009-7.504v-51.595c-14.576-14.576-1.147-29.944-1.147-29.944z" fill="#dae2fe"/><g><path d="m333.764 439.329c-4.142 0-7.5-3.357-7.5-7.5v-56.244c0-4.143 3.358-7.5 7.5-7.5s7.5 3.357 7.5 7.5v56.244c0 4.143-3.358 7.5-7.5 7.5z" fill="#bec8f7"/></g><g><path d="m396.774 440.789c-4.142 0-7.5-3.358-7.5-7.5v-57.704c0-4.143 3.358-7.5 7.5-7.5s7.5 3.357 7.5 7.5v57.704c0 4.143-3.358 7.5-7.5 7.5z" fill="#bec8f7"/></g><g><path d="m365.269 432.873c-4.142 0-7.5-3.358-7.5-7.5v-49.788c0-4.143 3.358-7.5 7.5-7.5s7.5 3.357 7.5 7.5v49.788c0 4.143-3.358 7.5-7.5 7.5z" fill="#bec8f7"/></g><path d="m412.678 435.401c-22.402-20.292-54.824-24.497-81.418-11.368-6.459 3.189-14.19 1.702-19.126-3.543-30.245-32.142-82.016-32.155-112.269 0-4.937 5.247-12.669 6.731-19.129 3.542-26.559-13.109-58.974-8.956-81.403 11.358-4.07 3.686-9.631 5.164-14.977 3.907-1.028-.241-2.057-.425-3.086-.582 44.449 45.226 106.308 73.285 174.73 73.285s130.282-28.06 174.732-73.286c-1.036.159-2.071.344-3.106.587-5.334 1.258-10.885-.22-14.948-3.9z" fill="#b06428"/><g><path d="m205.883 468.446c7.112-1.139 12.683-6.703 13.671-13.837 3.586-25.902 20.871-47.98 45.04-57.74-23.253-2.566-47.485 5.294-64.729 23.622-4.936 5.247-12.669 6.73-19.129 3.542-26.559-13.109-58.974-8.956-81.403 11.358-4.07 3.686-9.631 5.164-14.977 3.907-1.027-.242-2.057-.425-3.086-.582 22.577 22.971 49.653 41.501 79.792 54.188 11.343-12.586 26.842-21.577 44.821-24.458z" fill="#985326"/></g><g><g><path d="m380.648 93.627h-30.758c-1.741 0-3.428-.605-4.771-1.713l-20.181-16.639c-9.257-6.827-14.777-17.745-14.777-29.255v-23.431c0-4.143 3.358-7.5 7.5-7.5s7.5 3.357 7.5 7.5v23.432c0 6.807 3.287 13.262 8.793 17.266.123.089.243.182.36.278l18.269 15.062h25.371l18.269-15.062c.117-.097.237-.189.36-.278 5.506-4.004 8.793-10.458 8.793-17.266v-23.432c0-4.143 3.358-7.5 7.5-7.5s7.5 3.357 7.5 7.5v23.432c0 11.51-5.52 22.428-14.776 29.255l-20.181 16.639c-1.343 1.107-3.03 1.712-4.771 1.712z" fill="#e9efff"/></g></g><path d="m349.891 93.627h30.758c1.741 0 3.428-.605 4.771-1.713l16.598-13.685c-10.177-2.544-7.448-13.301-7.448-13.301l-16.615 13.698h-25.371l-18.269-15.062c-.117-.097-.237-.189-.36-.278-5.506-4.004-8.793-10.459-8.793-17.266v-23.431c0-4.143-3.357-7.5-7.5-7.5-4.142 0-7.5 3.357-7.5 7.5v23.432c0 11.51 5.52 22.428 14.777 29.255l20.181 16.639c1.342 1.107 3.029 1.712 4.771 1.712z" fill="#bec8f7"/><path d="m409.45 0h-88.543c-8.494 0-15.379 6.885-15.379 15.379 0 8.493 6.885 15.379 15.379 15.379h88.543c8.494 0 15.379-6.885 15.379-15.379s-6.885-15.379-15.379-15.379z" fill="#ff7186"/><path d="m360.725 15.379c0-8.494 6.886-15.379 15.38-15.379h-55.198c-8.494 0-15.379 6.885-15.379 15.379s6.885 15.379 15.379 15.379h55.198c-8.494 0-15.38-6.885-15.38-15.379z" fill="#ff4155"/><circle cx="267.168" cy="441.019" fill="#7f4223" r="11.688"/><circle cx="207.924" cy="457.302" fill="#c47037" r="11.688"/><circle cx="351.991" cy="468.991" fill="#7f4223" r="11.688"/><circle cx="135.246" cy="457.302" fill="#7f4223" r="11.688"/><circle cx="272.508" cy="492.367" fill="#c47037" r="11.688"/><circle cx="74.336" cy="390.517" fill="#b06428" r="11.688"/></g></svg>