<svg id="Layer_1" enable-background="new 0 0 512 512" height="512" viewBox="0 0 512 512" width="512" xmlns="http://www.w3.org/2000/svg"><g><path d="m474.797 377.326c16.752-33.158 26.201-70.636 26.201-110.324 0-135.309-109.689-244.998-244.998-244.998s-244.998 109.689-244.998 244.998c0 39.688 9.448 77.166 26.201 110.324z" fill="#81c66d"/><path d="m256 512c96.415 0 179.808-55.702 219.791-136.674l-33.91-114.062c-3.147-11.22-13.376-18.974-25.029-18.974h-50.72v22.383c-3.294-1.568-6.971-2.449-10.845-2.449h-198.573c-3.874 0-7.551.882-10.845 2.449v-22.383h-50.72c-11.653 0-21.882 7.755-25.029 18.974l-33.911 114.062c39.983 80.971 123.376 136.674 219.791 136.674z" fill="#c47037"/><path d="m87.595 444.891 45.702-137.066c-61.038 5.976-63.178-46.562-63.178-46.562l-33.911 114.063c12.928 26.179 30.41 49.698 51.387 69.565z" fill="#b06428"/><path d="m425.155 444.23-32.689-116.541c-1.285 0-2.894 0-4.786 0v145.946c13.441-8.584 25.991-18.441 37.475-29.405z" fill="#b06428"/><path d="m86.845 444.23c11.484 10.964 24.035 20.821 37.476 29.405v-145.946c-1.89 0-3.498 0-4.787 0z" fill="#985326"/><path d="m119.535 470.497c39.001 26.207 85.945 41.503 136.465 41.503s97.465-15.297 136.466-41.503v-142.808h-272.931z" fill="#7f4223"/><path d="m192.201 460.497v-69.925c0-31.456 22.742-57.582 52.676-62.883h-125.342v142.808c27.864 18.723 59.785 31.873 94.165 37.858-13.491-11.932-21.499-29.308-21.499-47.858z" fill="#70361c"/><path d="m156.714 262.223h198.573c3.874 0 7.551.882 10.845 2.449v-199.295c0-14.388-11.772-26.16-26.16-26.16h-23.068c-10.559 0-20.635-4.882-26.819-13.442-7.633-10.565-20.053-17.442-34.085-17.442-14.031 0-26.452 6.877-34.085 17.442-6.184 8.559-16.26 13.442-26.819 13.442h-23.068c-14.388 0-26.16 11.772-26.16 26.16v199.295c3.295-1.567 6.972-2.449 10.846-2.449z" fill="#543e5b"/><path d="m253.778 258.841v-62.091c0-1.371-.51-2.708-1.463-3.694-5.409-5.592-2.209-10.385-.038-12.6.976-.995 1.501-2.341 1.501-3.735v-66.564c0-2.355-1.54-4.4-3.772-5.151-15.746-5.297-16.849-19.992-16.323-27.432.168-2.376-1.304-4.508-3.514-5.398-4.541-1.829-5.638-5.631-5.722-8.632-.063-2.248-1.421-4.301-3.555-5.013-6.133-2.048-7.25-7.473-7.203-11.337.027-2.248-1.341-4.24-3.441-5.041-2.584-.986-4.052-2.683-4.854-4.54-3.295 1.047-6.768 1.605-10.298 1.605h-23.068c-14.388 0-26.16 11.772-26.16 26.16v199.295c3.294-1.568 6.972-2.449 10.845-2.449h95.851c.78-.954 1.214-2.145 1.214-3.383z" fill="#422953"/><g fill="#30144a"><path d="m245.445 114.36v56.452c0 4.603 3.731 8.333 8.333 8.333s8.333-3.73 8.333-8.333v-56.452c0-4.603-3.731-8.333-8.333-8.333s-8.333 3.73-8.333 8.333z"/><path d="m220.421 176.318c3.045 3.46 8.311 3.786 11.761.75 3.455-3.04 3.791-8.306.75-11.761l-13.087-14.869c8.863-3.357 15.164-11.676 15.164-21.406 0-12.685-10.692-23.005-23.835-23.005h-15.001s-.006 0-.009 0h-.009c-4.602 0-8.333 3.73-8.333 8.333v56.452c0 4.603 3.731 8.333 8.333 8.333s8.333-3.73 8.333-8.333v-12.597zm-9.246-53.625c3.886 0 7.168 2.903 7.168 6.338s-3.282 6.338-7.168 6.338c-1.576 0-4.09.009-6.61.021-.031-6.663-.011-4.713-.033-12.696h6.643z"/><path d="m300.919 106.027h-15.718c-4.587 0-8.333 3.738-8.333 8.333v56.452c0 4.603 3.731 8.333 8.333 8.333s8.333-3.73 8.333-8.333v-16.233c2.788-.014 5.639-.025 7.385-.025 13.552 0 24.576-10.885 24.576-24.264.001-13.379-11.024-24.263-24.576-24.263zm0 31.861c-1.734 0-4.55.011-7.32.025-.034-6.91-.016-5.571-.04-15.219h7.361c4.288 0 7.91 3.479 7.91 7.596-.001 4.118-3.623 7.598-7.911 7.598z"/></g><path d="m286.533 194.408h-61.065c-4.602 0-8.333 3.73-8.333 8.333s3.731 8.333 8.333 8.333h61.065c4.602 0 8.333-3.731 8.333-8.333s-3.731-8.333-8.333-8.333z" fill="#665364"/><path d="m247.764 202.741c0-4.603 3.731-8.333 8.333-8.333h-30.629c-4.602 0-8.333 3.73-8.333 8.333s3.731 8.333 8.333 8.333h30.629c-4.602.001-8.333-3.73-8.333-8.333z" fill="#543e5b"/><path d="m265.839 220.077h-19.676c-4.602 0-8.333 3.73-8.333 8.333s3.731 8.333 8.333 8.333h19.676c4.602 0 8.333-3.73 8.333-8.333s-3.731-8.333-8.333-8.333z" fill="#665364"/><path d="m249.662 228.41c0-4.603 3.732-8.333 8.334-8.333h-11.834c-4.602 0-8.333 3.73-8.333 8.333s3.731 8.333 8.333 8.333h11.834c-4.602 0-8.334-3.73-8.334-8.333z" fill="#543e5b"/><path d="m221.846 82.709c8.926-9.62 21.055-14.918 34.154-14.918s25.228 5.297 34.154 14.918c1.642 1.77 3.873 2.665 6.111 2.665 2.028 0 4.062-.737 5.666-2.224 3.374-3.13 3.571-8.404.441-11.777-11.94-12.869-28.841-20.249-46.372-20.249s-34.432 7.38-46.372 20.247c-3.13 3.374-2.933 8.647.44 11.777 3.375 3.133 8.647 2.935 11.778-.439z" fill="#665364"/><path d="m209.628 71.372c-3.13 3.374-2.933 8.647.441 11.778 3.375 3.132 8.646 2.934 11.777-.44 3.21-3.459 6.839-6.35 10.773-8.646-.614-.819-1.451-1.484-2.45-1.887-4.541-1.829-5.638-5.631-5.722-8.632-.034-1.205-.449-2.346-1.147-3.262-5.01 3.024-9.63 6.733-13.672 11.089z" fill="#543e5b"/><g><path d="m154.202 263.46v-198.082c0-9.83 7.997-17.827 17.827-17.827h23.068c13.379 0 25.93-6.316 33.574-16.895 6.328-8.76 16.545-13.99 27.33-13.99 10.784 0 21.002 5.23 27.33 13.99 7.643 10.578 20.194 16.895 33.574 16.895h23.068c9.83 0 17.827 7.997 17.827 17.827v198.082c6.624.658 12.516 3.889 16.667 8.67v-206.752c0-19.02-15.474-34.493-34.493-34.493h-23.068c-8.045 0-15.545-3.734-20.064-9.989-9.455-13.085-24.722-20.896-40.842-20.896s-31.387 7.811-40.839 20.895c-4.519 6.255-12.02 9.989-20.065 9.989h-23.068c-19.02 0-34.493 15.473-34.493 34.493v206.753c4.151-4.78 10.043-8.012 16.667-8.67z" fill="#665364"/></g><path d="m212.494 43.791c-.58-.715-1.339-1.291-2.246-1.638-5.124-1.955-5.865-6.7-5.71-9.952.048-1.019-.211-1.998-.698-2.848-2.75.998-5.708 1.532-8.744 1.532h-23.067c-19.02 0-34.494 15.473-34.494 34.493v206.752c4.151-4.78 10.043-8.012 16.667-8.669v-198.083c0-9.83 7.997-17.827 17.827-17.827h23.067c6.103 0 12.027-1.327 17.398-3.76z" fill="#543e5b"/><g><path d="m146.325 288.63h219.35c5.558 0 10.734 1.717 15.027 4.645v-6.747c0-13.978-11.437-25.415-25.415-25.415h-198.573c-13.978 0-25.415 11.437-25.415 25.415v6.747c4.292-2.928 9.468-4.645 15.026-4.645z" fill="#b5b5b5"/></g><path d="m250.427 282.965c-6.43-9.576-.875-17.439 1.946-20.49.374-.405.659-.872.887-1.364h-96.545c-13.978 0-25.415 11.437-25.415 25.415v6.747c4.292-2.928 9.468-4.645 15.026-4.645h104.359c.963-1.731.91-3.923-.258-5.663z" fill="#a5a4a4"/><path d="m365.675 286.985h-219.35c-14.735 0-26.791 12.056-26.791 26.791v13.913h272.932v-13.913c0-14.735-12.056-26.791-26.791-26.791z" fill="#dbdbdb"/><path d="m243.384 325.65c-11.712-17.074-.664-29.896 6.066-35.522.994-.831 1.593-1.952 1.809-3.143h-104.934c-14.735 0-26.79 12.056-26.79 26.791v13.913h124.713c-.149-.721-.437-1.417-.864-2.039z" fill="#b5b5b5"/></g></svg>