<svg id="Layer_1" enable-background="new 0 0 512 512" height="512" viewBox="0 0 512 512" width="512" xmlns="http://www.w3.org/2000/svg"><g><path d="m11.521 251.245c-.331 5.211-.518 10.462-.518 15.757 0 18.778 2.12 37.06 6.12 54.626l4.311 16.267c1.366 4.525 2.844 9.001 4.461 13.412l464.951-14.346c6.595-22.17 10.153-45.648 10.153-69.96 0-135.309-109.689-244.997-244.998-244.997-120.559 0-220.777 87.079-241.195 201.771z" fill="#81c66d"/><path d="m174.304 324.48c.381-4.089.998-8.387 1.747-12.837-28.41-11.396-61.56-5.999-84.955 15.19-4.533 4.105-10.725 5.751-16.678 4.351-19.043-4.476-38.558 4.206-48.525 20.122 8.842 24.127 21.376 46.472 36.909 66.361 3.836-.13 7.735.219 11.616 1.131 5.953 1.399 12.146-.246 16.678-4.351 24.977-22.622 61.075-27.246 90.651-12.648 7.194 3.551 15.805 1.898 21.302-3.944 2.139-2.273 4.376-4.399 6.696-6.384v-2.174c-5.767-10.252-9.754-15.238-18.186-25.033-10.568-12.274-18.915-21.971-17.255-39.784z" fill="#7f4223"/><g><path d="m175.472 267.534c-4.658-13.881-13.065-23.044-24.988-27.236-8.819-3.1-16.308-2.306-16.381-2.295-4.463.541-8.523-2.635-9.066-7.099-.544-4.463 2.635-8.523 7.098-9.067 15.011-1.833 46.62 4.288 58.776 40.517 1.431 4.263-.866 8.879-5.129 10.309-4.24 1.423-8.872-.843-10.31-5.129z" fill="#dae2fe"/></g><g><path d="m133.124 238.064c-5.347 0-9.236-5.063-7.879-10.217 8.101-30.783-10.215-54.633-10.4-54.871-2.774-3.54-2.153-8.657 1.387-11.431 3.54-2.772 8.657-2.152 11.431 1.387.963 1.229 23.468 30.54 13.331 69.06-.963 3.654-4.261 6.072-7.87 6.072z" fill="#dae2fe"/></g><g><path d="m146.065 333.878c-17.257-37.589-59.856-41.767-60.285-41.805-4.479-.395-7.79-4.347-7.395-8.826.395-4.48 4.347-7.799 8.827-7.395 2.134.188 52.493 5.143 73.652 51.232 1.876 4.087.084 8.92-4.003 10.797-4.119 1.889-8.934.055-10.796-4.003z" fill="#dae2fe"/></g><g><path d="m86.503 292.107c-5.22 0-9.103-4.844-7.949-9.941 11.337-50.093-16.066-68.782-16.344-68.965-3.757-2.471-4.8-7.52-2.329-11.277s7.52-4.799 11.277-2.329c1.521 1.001 37.077 25.192 23.278 86.165-.854 3.782-4.212 6.347-7.933 6.347z" fill="#dae2fe"/></g><g><path d="m106.783 393.192c-20.652-56.787-74.742-57.876-75.286-57.88-4.497-.036-8.112-3.711-8.076-8.208.035-4.474 3.675-8.076 8.14-8.076h.067c.682.005 16.932.232 36.128 8.791 17.739 7.909 41.565 24.705 54.331 59.808 1.537 4.226-.643 8.898-4.869 10.435-4.218 1.533-8.895-.636-10.435-4.87z" fill="#dae2fe"/></g><path d="m23.728 324.954c-1.224 4.327 1.292 8.827 5.619 10.05 4.314 1.223 8.824-1.281 10.051-5.619 10.324-36.502 2.208-61.64-6.418-76.3-6.82-11.59-15.049-18.652-19.371-21.845-.963 6.587-1.66 13.26-2.088 20.007 10.038 11.082 23.343 34.331 12.207 73.707z" fill="#dae2fe"/><path d="m202.303 69.078c-4.061-1.927-8.918-.198-10.847 3.863-.152.32-15.622 32.386-55.034 70.464-25.624 24.757-65.204 55.444-121.616 80.367-1.104 6.2-1.969 12.483-2.597 18.835 63.445-26.506 107.495-60.407 135.528-87.491 41.518-40.112 57.759-73.777 58.43-75.19 1.928-4.063.199-8.92-3.864-10.848z" fill="#e9efff"/><path d="m196.738 99.776c-4.336-1.193-8.815 1.357-10.008 5.692-.122.441-12.548 44.773-45.656 96.188-32.248 50.081-73.775 91.344-123.952 119.97 1.252 5.497 2.697 10.921 4.312 16.271 54.453-30.164 99.233-74.315 133.64-127.903 34.315-53.441 46.844-98.332 47.361-100.217 1.187-4.335-1.363-8.81-5.697-10.001z" fill="#e9efff"/><g><path d="m96.654 409.418c-3.18-3.181-3.18-8.335 0-11.516 18.853-18.852 38.443-48.22 56.651-84.927 13.895-28.01 22.152-50.59 22.234-50.815 1.537-4.225 6.208-6.407 10.434-4.868 4.225 1.536 6.406 6.206 4.87 10.432-1.376 3.786-34.256 93.275-82.675 141.694-3.18 3.18-8.334 3.179-11.514 0z" fill="#e9efff"/></g><path d="m386.196 283.323c-6.117-1.018-21.7-.754-34.247 23.649-2.158 4.198-6.122 7.078-10.605 7.704-30.733 4.293-81.509-9.298-106.007-28.404-3.569-2.784-5.562-7.261-5.333-11.975 1.336-27.41-12.027-35.429-17.834-37.604l-1.811-.679c-.069 1.543-11.27 48.711 2.885 74.839 3.612 6.668 9.191 13.594 16.363 20.026 17.91 16.063 41.348 24.572 65.406 24.572h22.339c10.132 0 20.189-2.376 29.008-7.364.619-.35 1.228-.709 1.827-1.077 25.302-15.539 39.22-62.025 39.918-63.37z" fill="#7f4223"/><path d="m234.141 334.509c23.652 19.1 54.085 27.255 84.119 22.54 9.881-1.551 19.976-4.524 28.653-9.852.142-.087.28-.185.421-.274v-1.299l-1.164-5.921c-.962-4.897-5.902-7.934-10.702-6.567-3.792 1.08-7.647 1.894-11.47 2.494-30.034 4.715-60.467-3.44-84.119-22.54-3.011-2.431-5.942-5.063-8.686-7.895-3.473-3.584-9.269-3.424-12.551.336l-3.968 4.545-.173 2.014c4.848 8.763 11.987 16.24 19.64 22.419z" fill="#f4d99d"/><path d="m239.88 313.09c-3.011-2.431-5.942-5.063-8.686-7.894-3.473-3.585-9.269-3.424-12.551.336l-3.968 4.545-.173 2.014c4.848 8.762 11.987 16.239 19.639 22.418 5.011 4.047 10.329 7.596 15.88 10.642.433-1.463.409-3.051-.102-4.532-1.81-5.243.958-8.956 3.708-11.194 1.636-1.332 2.702-3.233 2.906-5.27-5.833-3.137-11.41-6.83-16.653-11.065z" fill="#e5c88f"/><path d="m344.836 314.028c-.92.318-1.872.552-2.846.688-23.987 3.351-56.04-5.324-56.04-5.324s-32.096-8.513-51.194-23.409c-.776-.605-1.483-1.284-2.121-2.019-1.667 8.983-6.071 15.487-2.711 20.052 16.926 22.999 49.042 31.441 49.042 31.441s32.033 8.747 58.192-2.707c5.192-2.275 4.629-10.109 7.678-18.722z" fill="#f9e9bd"/><path d="m234.756 285.983c-.776-.605-1.483-1.284-2.121-2.02-1.667 8.984-6.071 15.487-2.711 20.052 7.199 9.782 17.143 16.922 26.198 21.908.415-1.147.566-2.383.358-3.627-1.183-7.077 2.668-11.767 6.122-14.462 1.7-1.327 2.733-3.274 2.931-5.332-10.019-3.958-21.826-9.538-30.777-16.519z" fill="#f4d99d"/><path d="m456.685 331.189c-5.941 1.4-12.122-.245-16.646-4.343-11.142-10.092-24.512-16.6-38.533-19.422-11.613 25.94-17.736 51.976-26.413 70.858-3.545 7.716-8.424 13.285-15.342 17.51l-.268 1.856c27.408-9.189 58.387-3.269 80.556 16.812 2.387 2.162 5.237 3.633 8.268 4.343 19.002-24.039 33.581-51.729 42.538-81.842-9.89-6.184-22.118-8.612-34.16-5.772z" fill="#7f4223"/><path d="m209.313 391.854c34.208-29.668 87.082-27.662 118.76 6.001 5.497 5.842 14.107 7.497 21.299 3.946 3.607-1.78 7.311-3.27 11.078-4.48 6.536-3.953 12.059-9.412 16.162-18.343 10.795-23.496 17.458-57.255 35.359-88.596-5.657.767-11.302-.058-16.462-2.903-3.267-1.801-6.364-2.873-9.294-3.369-6.676 19.308-19.762 49.772-38.881 61.512-8.677 5.328-18.772 8.301-28.653 9.852-30.034 4.715-60.467-3.44-84.119-22.54-7.781-6.283-15.037-13.905-19.888-22.859-10.687-19.727-6.787-52.653-2.915-72.712-2.785-1.035-6.004-1.655-9.733-1.73-5.891-.116-11.193-2.224-15.708-5.717-.168 36.093-11.277 68.66-13.676 94.406-2.698 28.943 20.492 37.827 35.345 65.243.425.788.871 1.545 1.326 2.289z" fill="#f9e9bd"/><path d="m250.304 343.5c-5.501-3.029-10.773-6.552-15.742-10.565-7.781-6.283-15.037-13.906-19.888-22.859-10.686-19.727-6.787-52.652-2.915-72.711-2.785-1.035-6.003-1.655-9.733-1.73-5.891-.116-11.192-2.224-15.708-5.717-.167 36.093-11.276 68.66-13.676 94.407-2.697 28.943 20.493 37.827 35.345 65.243.425.785.872 1.542 1.326 2.286 10.371-8.994 22.46-15.058 35.151-18.23 1.33-1.956 1.722-4.432.912-6.676-3.154-8.731.445-15.6 3.403-19.38.925-1.183 1.436-2.607 1.525-4.068z" fill="#f4d99d"/><path d="m450.738 214.401c17.333-27.148 71.432-127.501-21.119-201.324-4.678-3.731-9.543-7.168-14.568-10.305-7.215-4.503-16.662-3.43-22.693 2.567-.034.033-.067.067-.101.101-5.819 5.799-11.287 12.214-18.526 16.098-10.279 5.515-23.735 5.748-31.409 14.532-1.966 2.251-3.412 4.947-5.583 7-5.939 5.616-15.532 4.881-23.12 1.841-7.588-3.039-14.43-7.977-22.363-9.942-8.25-2.044-17.575-.869-24.661-5.562-2.988-1.979-5.266-4.829-7.749-7.413-.05-.052-.1-.104-.15-.156-8.547-8.825-22.873-8.277-31.017.922-36.713 41.463-37.911 100.288-36.943 121.973.223 4.999-1.942 9.796-5.645 13.073-28.358 25.097-13.552 78.06 16.714 78.66 24.532.487 27.228 24.334 26.574 37.751-.256 5.262 1.981 10.236 5.958 13.338 19.098 14.896 51.194 23.409 51.194 23.409s32.053 8.675 56.04 5.324c4.995-.698 9.42-3.887 11.829-8.572 6.142-11.947 20.4-31.251 41.889-19.407 26.511 14.613 65.815-23.851 53.804-59.765-1.572-4.688-1.048-9.925 1.645-14.143z" fill="#fcf4d9"/><path d="m288.098 37.881c.916-.9 1.563-2.001 1.927-3.186-7.936-1.662-16.695-.827-23.432-5.288-2.988-1.979-5.266-4.83-7.749-7.414-.05-.052-.1-.104-.15-.155-8.547-8.825-22.872-8.277-31.017.922-36.712 41.463-37.911 100.288-36.943 121.973.223 4.999-1.941 9.796-5.645 13.073-28.358 25.097-13.552 78.06 16.713 78.66 24.532.487 27.228 24.334 26.574 37.751-.256 5.262 1.981 10.236 5.958 13.338 8.983 7.006 20.84 12.6 30.882 16.56.473-1.451.509-3.038.019-4.555-5.663-17.546 4.13-30.083 8.942-34.927 1.541-1.551 2.314-3.702 2.139-5.881l-1.413-17.577c-.237-2.948-2.191-5.462-4.968-6.478-18.332-6.698-16.305-25.107-14.719-32.33.391-1.779 1.408-3.352 2.866-4.443 28.32-21.203 10.897-54.75 8.574-58.919-.168-.302-.321-.616-.45-.938-20.946-52.364 11.332-89.798 21.892-100.186z" fill="#f9e9bd"/><g><path d="m362.183 94.045-6.299-10.499c-.198-.329-.525-.57-.898-.663l-14.597-3.607c-4.743-1.168-7.006-3.657-9.51-5.284-4.597-3.326-7.342-8.699-7.342-14.373v-13.461c0-4.497 3.645-8.142 8.142-8.142s8.142 3.645 8.142 8.142v13.462c0 .465.225.905.602 1.178 3.328 2.368 3.378 2.547 3.866 2.668l14.603 3.608c4.55 1.125 8.542 4.074 10.955 8.092l6.299 10.501c2.314 3.856 1.063 8.857-2.793 11.171-3.863 2.318-8.862 1.055-11.17-2.793z" fill="#f4d99d"/></g><g><path d="m439.1 96.309c-2.709 0-5.357-1.351-6.903-3.813-2.391-3.808-1.242-8.834 2.566-11.225l1.732-1.088c17.249-10.824 23.4-4.9 36.285-11.09 4.053-1.949 8.918-.239 10.864 3.814 1.947 4.054.239 8.918-3.815 10.865-15.719 7.549-21.93 2.203-34.677 10.202-1.092.558-2.865 2.335-6.052 2.335z" fill="#f4d99d"/></g><path d="m256 512c78.856 0 149-37.264 193.812-95.134-3.59-.529-6.995-2.116-9.774-4.633-24.947-22.597-61.052-27.28-90.667-12.659-7.192 3.551-15.802 1.896-21.299-3.946-33.681-35.793-91.332-35.807-125.023 0-5.497 5.843-14.108 7.495-21.302 3.945-29.576-14.598-65.674-9.974-90.651 12.648-4.533 4.105-10.725 5.751-16.678 4.351-4.437-1.043-8.899-1.36-13.261-1.05 44.764 58.636 115.379 96.478 194.843 96.478z" fill="#b06428"/><path d="m245.554 371.126c-15.746 3.717-30.618 11.87-42.504 24.503-5.498 5.843-14.108 7.495-21.302 3.944-29.576-14.598-65.674-9.974-90.651 12.648-4.533 4.105-10.725 5.75-16.678 4.351-4.437-1.043-8.899-1.36-13.261-1.05 33.082 43.333 80.291 75.288 134.749 89.026-7.692-34.323 10.924-51.368 24.274-58.936 6.075-3.444 9.18-10.56 7.489-17.335-7.852-31.444 17.293-56.566 17.884-57.151z" fill="#985326"/><ellipse cx="287.085" cy="414.359" fill="#7f4223" rx="12.689" ry="12.689" transform="matrix(.23 -.973 .973 .23 -182.148 598.564)"/><circle cx="222.768" cy="432.036" fill="#c47037" r="12.689"/><ellipse cx="379.17" cy="444.725" fill="#7f4223" rx="12.689" ry="12.689" transform="matrix(.707 -.707 .707 .707 -203.412 398.371)"/><circle cx="143.867" cy="432.036" fill="#7f4223" r="12.689"/><ellipse cx="292.882" cy="470.103" fill="#c47037" rx="12.689" ry="12.689" transform="matrix(.707 -.707 .707 .707 -246.63 344.789)"/><ellipse cx="415.582" cy="342.763" fill="#70361c" rx="12.689" ry="12.689" transform="matrix(.973 -.23 .23 .973 -67.634 104.651)"/><ellipse cx="451.009" cy="375.803" fill="#b06428" rx="12.689" ry="12.689" transform="matrix(.707 -.707 .707 .707 -133.635 428.981)"/><path d="m284.439 142.178c7.95 1.91 14.115 8.322 15.491 16.382 1.747 10.23 1.019 23.871-12.078 31.433-22.778 13.151-65.315 14.987-66.344-7.729s-4.274-46.71 21.086-46.011c16.085.443 31.699 3.488 41.845 5.925z" fill="#f4d99d"/><path d="m299.93 158.559c-1.376-8.06-7.541-14.472-15.492-16.382-4.903-1.178-11.091-2.496-17.984-3.595.069.141.127.287.203.423 2.323 4.169 19.746 37.716-8.574 58.919-.553.413-1.042.897-1.458 1.435 11.019-.996 22.554-4.36 31.226-9.367 13.098-7.561 13.826-21.203 12.079-31.433z" fill="#e5c88f"/><g><path d="m441.642 231.836c-.827-1.871-20.035-46.312-1.399-88.934 1.801-4.121 6.602-6.002 10.723-4.198 4.12 1.801 5.999 6.602 4.198 10.723-15.8 36.135 1.199 75.435 1.372 75.828 1.818 4.113-.043 8.92-4.156 10.739-4.131 1.825-8.928-.063-10.738-4.158z" fill="#f4d99d"/></g><path d="m370.865 165.335c-7.84-2.321-16.385.15-21.607 6.442-6.628 7.986-12.818 20.164-5.257 33.261 13.151 22.778 49.071 45.637 61.32 26.479s27.056-38.315 4.745-50.39c-14.151-7.659-29.195-12.829-39.201-15.792z" fill="#f4d99d"/><g><path d="m178.516 162.611c-2.651-3.627-1.862-8.716 1.76-11.37.479-.355 34.759-26.076 39.111-64.99.499-4.47 4.535-7.695 8.997-7.186 4.469.499 7.687 4.527 7.187 8.997-5.171 46.229-44.027 75.113-45.678 76.32-3.647 2.664-8.734 1.845-11.377-1.771z" fill="#f4d99d"/></g><path d="m327.19 239.662c-1.561-1.879-2.416-4.234-2.566-6.673-.377-6.096-1.793-11.27-3.483-15.428-3.204-7.881-13.037-10.516-19.752-5.293-3.543 2.756-7.356 6.528-10.731 11.619-1.349 2.036-3.267 3.648-5.559 4.495-5.119 1.893-14.154 6.958-14.186 19.146-.037 14.507 12.139 22.259 21.901 20.574 2.803-.484 5.648.278 7.834 2.099 7.611 6.341 22.032 5.715 29.254-6.867 6.067-10.569.775-19.473-2.712-23.672z" fill="#f4d99d"/><g fill="#e5c88f"><path d="m327.19 239.662c-1.561-1.879-2.415-4.234-2.566-6.672-.376-6.096-1.793-11.27-3.483-15.428-2.326-5.722-8.144-8.659-13.729-7.851 2.919 2.191 4.932 5.606 5.117 9.656.205 4.484-.188 9.833-1.869 15.706-.672 2.349-.653 4.854.19 7.146 1.884 5.122 3.898 15.283-5.35 23.22-1.995 1.713-4.083 2.97-6.193 3.84.467.271.92.571 1.342.923 7.611 6.341 22.033 5.715 29.253-6.867 6.067-10.569.775-19.475-2.712-23.673z"/><path d="m405.322 231.517c12.249-19.158 27.056-38.315 4.745-50.39-3.754-2.031-7.567-3.882-11.335-5.568s10.365 40.873-34 52.015c0 0-.008.002-.013.003 15.095 11.213 32.734 16.248 40.603 3.94z"/></g></g></svg>