<svg id="Layer_1" enable-background="new 0 0 512 512" height="512" viewBox="0 0 512 512" width="512" xmlns="http://www.w3.org/2000/svg"><g><path d="m355.593 490.897c23.029-10.26 44.178-23.969 62.801-40.47l20.702-20.66c38.5-43.278 61.902-100.285 61.902-162.766 0-135.309-109.689-244.998-244.998-244.998s-244.998 109.691-244.998 244.999c0 81.292 39.603 153.323 100.557 197.89z" fill="#543e5b"/><path d="m349.848 454.945c-2.805-7.232-2.978-13.852-.528-20.238 4.815-12.552-4.23-26.134-17.674-26.463-2.578-.063-9.151-.599-14.524-4.208-5.481-3.682-8.381-9.923-8.866-19.079-.811-15.31 5.63-18.619 12.04-19.836 13.175-2.5 20.042-17.304 13.307-28.917-1.227-2.116-3.513-8.53 1.736-22.391 15.551-41.068-21.083-104.724-103.042-104.724-81.208 0-118.776 63.173-103.043 104.724 5.249 13.861 2.963 20.275 1.737 22.39-3.15 5.432-3.468 12.093-.85 17.818 2.638 5.769 7.93 9.919 14.158 11.101 6.407 1.217 12.849 4.526 12.038 19.836-.485 9.156-3.386 15.397-8.867 19.079-5.372 3.609-11.946 4.146-14.522 4.208-13.44.329-22.492 13.906-17.675 26.463 2.45 6.386 2.277 13.006-.528 20.238-1.271 3.275-2.327 6.596-3.185 9.947 4.97 3.633 10.083 7.082 15.327 10.341l210.774 22.81c6.091-2.153 12.074-4.536 17.933-7.146.644-11.867-1.123-24.033-5.746-35.953z" fill="#e1715a"/><path d="m111.559 464.892c4.97 3.633 10.083 7.082 15.327 10.341l210.774 22.81c6.091-2.153 12.074-4.536 17.933-7.146.645-11.866-1.121-24.032-5.745-35.952-2.805-7.232-2.978-13.852-.528-20.238 4.815-12.552-4.23-26.134-17.674-26.463-2.578-.063-9.151-.599-14.524-4.208-5.481-3.682-8.381-9.923-8.866-19.079-.15-2.829-.051-5.246.249-7.318-7.508 1.45-10.983-2.628-12.468-5.538-.766-1.499-2.378-2.396-4.053-2.221-18.91 1.976-25.906-9.745-27.712-13.704-.391-.856-1.065-1.542-1.909-1.957l-60.088-29.481c-.871-.427-1.866-.498-2.802-.245-32.452 8.735-50.978-29.605-55.639-40.823-.677-1.629-2.336-2.636-4.094-2.485-5.896.504-8.417-2.974-9.486-5.764-.27-.703-.727-1.283-1.295-1.711-4.344 13.8-4.331 27.886.295 40.103 5.249 13.861 2.963 20.275 1.737 22.39-3.15 5.432-3.468 12.093-.85 17.818 2.638 5.769 7.93 9.919 14.158 11.101 6.407 1.217 12.849 4.526 12.038 19.836-.485 9.156-3.386 15.397-8.867 19.079-5.372 3.609-11.946 4.146-14.522 4.208-13.44.329-22.492 13.906-17.675 26.463 2.45 6.386 2.277 13.006-.528 20.238-1.272 3.275-2.328 6.595-3.186 9.946z" fill="#c15655"/><g><path d="m274.281 71.123h-24.636c-4.142 0-7.5-3.357-7.5-7.5s3.358-7.5 7.5-7.5h24.636c4.142 0 7.5 3.357 7.5 7.5 0 4.142-3.358 7.5-7.5 7.5z" fill="#c15655"/></g><g><path d="m214.947 71.123h-24.636c-4.142 0-7.5-3.357-7.5-7.5s3.358-7.5 7.5-7.5h24.636c4.142 0 7.5 3.357 7.5 7.5 0 4.142-3.358 7.5-7.5 7.5z" fill="#c15655"/></g><g><path d="m274.281 94.685h-24.636c-4.142 0-7.5-3.357-7.5-7.5s3.358-7.5 7.5-7.5h24.636c4.142 0 7.5 3.357 7.5 7.5s-3.358 7.5-7.5 7.5z" fill="#c15655"/></g><g><path d="m214.947 94.685h-24.636c-4.142 0-7.5-3.357-7.5-7.5s3.358-7.5 7.5-7.5h24.636c4.142 0 7.5 3.357 7.5 7.5s-3.358 7.5-7.5 7.5z" fill="#c15655"/></g><g><path d="m375.213 355.117c-3.312 0-6.342-2.21-7.24-5.561l-85.846-320.382c-1.072-4.001 1.302-8.114 5.304-9.186 4.003-1.076 8.113 1.302 9.186 5.303l85.846 320.383c1.072 4.001-1.302 8.114-5.304 9.186-.65.174-1.304.257-1.946.257z" fill="#e9efff"/></g><path d="m382.462 345.674-16.181-60.388c-.361 3.404-2.758 6.398-6.264 7.336-2.81.757-5.697.01-7.78-1.789l15.735 58.724c1.076 4.017 5.205 6.373 9.186 5.303 4.002-1.072 6.376-5.185 5.304-9.186z" fill="#bec8f7"/><path d="m321.998 18.537c-2.457-9.17-10.243-16.339-20.137-17.123l-17.568-1.386c-6.135-.484-10.902 5.248-9.31 11.191l4.424 16.513c.977 3.647 4.145 6.282 7.909 6.579l23.863 1.882c8.009.632 15.237 5.252 18.83 12.249z" fill="#f1935d"/><g><path d="m398.156 339.119c-3.311 0-6.342-2.21-7.24-5.561l-80.637-300.944c-1.072-4.001 1.302-8.114 5.304-9.186 3.998-1.075 8.114 1.303 9.186 5.303l80.638 300.944c1.072 4.001-1.302 8.114-5.304 9.185-.651.176-1.304.259-1.947.259z" fill="#e1715a"/></g><path d="m405.406 329.676-13.506-50.405c-.541 3.087-2.805 5.738-6.031 6.602-.721.194-1.445.286-2.157.286-2.42 0-4.701-1.07-6.262-2.86l13.467 50.26c.898 3.351 3.928 5.561 7.24 5.561.643 0 1.296-.083 1.946-.258 4-1.072 6.374-5.185 5.303-9.186z" fill="#c15655"/><path d="m335.315 429.335c1.109-2.89-.942-6.019-4.036-6.095-11.098-.27-36.293-5.24-38.002-37.488-1.39-26.221 14.074-33.44 24.219-35.367 3.038-.577 4.682-3.981 3.131-6.656-3.48-6-6.219-16.999.684-35.228 11.387-30.07-16.362-84.412-89.014-84.412s-100.401 54.342-89.014 84.412c6.903 18.229 4.164 29.227.684 35.228-1.551 2.675.093 6.079 3.13 6.656 10.145 1.927 25.609 9.146 24.219 35.367-1.709 32.248-26.905 37.218-38.003 37.488-3.094.076-5.144 3.205-4.036 6.095 4.319 11.259 2.98 21.938-.548 31.035-1.751 4.514-2.996 9.08-3.787 13.653 37.902 24.044 82.851 37.977 131.058 37.977 29.446 0 57.676-5.199 83.829-14.722 1.86-12.095.773-24.691-3.966-36.908-3.528-9.097-4.867-19.777-.548-31.035z" fill="#f1935d"/><path d="m335.315 429.335c1.109-2.89-.941-6.02-4.036-6.095-11.098-.27-36.294-5.24-38.003-37.489-.318-5.994.253-10.984 1.432-15.156-.782-.543-1.74-.818-2.725-.715-18.91 1.976-25.906-9.745-27.712-13.704-.391-.856-1.065-1.542-1.909-1.957l-60.088-29.481c-.871-.427-1.866-.498-2.802-.245-32.452 8.735-50.978-29.605-55.639-40.823-.312-.75-.838-1.36-1.48-1.794-2.332 9.587-1.995 18.906.928 26.624 6.902 18.23 4.164 29.228.684 35.228-1.551 2.675.093 6.079 3.131 6.655 10.145 1.927 25.609 9.146 24.219 35.367-1.709 32.25-26.905 37.22-38.002 37.49-3.094.075-5.145 3.205-4.036 6.095 4.319 11.259 2.98 21.939-.548 31.035-1.751 4.514-2.997 9.08-3.787 13.653 37.902 24.044 82.851 37.977 131.058 37.977 29.446 0 57.677-5.199 83.83-14.722 1.86-12.095.772-24.69-3.966-36.908-3.529-9.097-4.868-19.776-.549-31.035z" fill="#e1715a"/><path d="m252.565 106.251c-14.169 0-26.37 0-40.539 0l-3.692 248.653c-.146 3.737 2.845 6.847 6.585 6.847h17.376 17.376c3.74 0 6.731-3.109 6.585-6.847z" fill="#c15655"/><path d="m222.376 506.565c.331 1.076.622 2.162.891 3.253 5.825.778 11.716 1.346 17.663 1.708.359-1.669.781-3.325 1.285-4.96l4.669-15.147c-10.205 0-18.973 0-29.177 0z" fill="#f1935d"/><path d="m257.672 463.751h-25.376-25.376c-3.74 0-6.731 3.109-6.585 6.847l.659 13.521c.227 4.647 4.06 8.299 8.713 8.299h45.177c4.653 0 8.487-3.652 8.713-8.299l.659-13.521c.147-3.737-2.844-6.847-6.584-6.847z" fill="#c15655"/><path d="m233.062 485.043-.76-15.59c-.087-2.228.797-4.256 2.263-5.702h-2.268-25.377c-3.74 0-6.731 3.109-6.585 6.847l.659 13.521c.227 4.647 4.06 8.299 8.713 8.299h27.135c-2.186-1.743-3.634-4.379-3.78-7.375z" fill="#ad4949"/><g><path d="m263.1 114.578c-2.466 1.765-5.483 2.831-8.796 2.831h-6.194l.647 237.58v108.763c0 4.143 3.358 7.5 7.5 7.5s7.5-3.357 7.5-7.5v-108.848c0-.056 0-.112-.002-.168z" fill="#e9efff"/></g><g><path d="m210.287 117.409c-3.308 0-6.327-1.065-8.795-2.831l-.655 240.158c-.001.056-.002.112-.002.168v108.848c0 4.143 3.358 7.5 7.5 7.5s7.5-3.357 7.5-7.5v-108.763l.646-237.58z" fill="#e9efff"/></g><g><path d="m224.796 117.409v346.343c0 4.143 3.358 7.5 7.5 7.5s7.5-3.357 7.5-7.5v-346.343z" fill="#e9efff"/></g><g><path d="m256.257 380.594c-4.142 0-7.5-3.357-7.5-7.5v90.658c0 4.143 3.358 7.5 7.5 7.5s7.5-3.357 7.5-7.5v-90.658c0 4.143-3.358 7.5-7.5 7.5z" fill="#bec8f7"/></g><g><path d="m208.335 380.594c-4.142 0-7.5-3.357-7.5-7.5v90.658c0 4.143 3.358 7.5 7.5 7.5s7.5-3.357 7.5-7.5v-90.658c0 4.143-3.358 7.5-7.5 7.5z" fill="#bec8f7"/></g><path d="m232.296 380.594c-4.142 0-7.5-3.357-7.5-7.5v90.658c0 4.143 3.358 7.5 7.5 7.5s7.5-3.357 7.5-7.5v-90.658c0 4.143-3.358 7.5-7.5 7.5z" fill="#bec8f7"/><path d="m261.863 102.949-8.972-52.488c-.63-3.683-3.822-6.376-7.559-6.376h-26.073c-3.737 0-6.929 2.693-7.559 6.376l-8.972 52.488c-.801 4.684 2.807 8.961 7.559 8.961h44.017c4.752-.001 8.36-4.278 7.559-8.961z" fill="#e1715a"/><path d="m237.474 104.409c-7.446-2.75-6.054-11.5-6.054-11.5s0-22.75 0-30.5 6.054-10.824 6.054-10.824c-.822-.823 0-1.343 0-1.343l-4.845-6.157h-13.37c-3.737 0-6.929 2.693-7.559 6.376l-8.972 52.487c-.801 4.684 2.807 8.961 7.559 8.961h24.184c-.549-4.375 3.003-7.5 3.003-7.5z" fill="#c15655"/><g><path d="m254.305 119.409h-44.018c-9.387 0-16.537-8.45-14.951-17.724l8.972-52.488c1.249-7.308 7.537-12.612 14.951-12.612h26.073c7.415 0 13.702 5.305 14.951 12.612l8.972 52.488c1.583 9.254-5.544 17.724-14.95 17.724zm-35.046-67.824c-.082 0-.152.059-.166.14l-8.972 52.488c-.007.041-.013.077.037.137s.087.06.129.06h44.018c.042 0 .079 0 .129-.06s.044-.096.037-.137l-8.972-52.488c-.014-.081-.084-.14-.166-.14z" fill="#f1935d"/></g><path d="m237.474 104.409h-27.187c-.042 0-.079 0-.129-.06s-.044-.096-.037-.137l8.972-52.488c.014-.081.084-.14.166-.14h18.215c-.822-.823 0-1.343 0-1.343l-10.746-13.657h-7.469c-7.415 0-13.702 5.305-14.951 12.612l-8.972 52.488c-1.585 9.273 5.564 17.724 14.951 17.724h29.349c-10.309-7.825-2.162-14.999-2.162-14.999z" fill="#e1715a"/><circle cx="232.296" cy="26.001" fill="#e1715a" r="24.783"/><circle cx="237.474" cy="22.004" fill="#f1935d" r="12.391"/><g><path d="m262.12 424.752h-59.647c-4.142 0-7.5-3.357-7.5-7.5s3.358-7.5 7.5-7.5h59.647c4.142 0 7.5 3.357 7.5 7.5 0 4.142-3.358 7.5-7.5 7.5z" fill="#c15655"/></g><g><path d="m308.257 464.807c-12.991 0-24.2-8.459-26.652-20.114l-9.375-44.546c-.126-.1-.456-.283-.973-.283-4.142 0-7.5-3.357-7.5-7.5s3.358-7.5 7.5-7.5c7.583 0 14.15 5.057 15.616 12.023l9.411 44.717c.984 4.677 6.131 8.203 11.973 8.203 4.142 0 7.5 3.357 7.5 7.5 0 4.142-3.358 7.5-7.5 7.5zm-35.974-64.613h.01z" fill="#c15655"/></g><g><path d="m156.335 464.807c-4.142 0-7.5-3.358-7.5-7.5 0-4.143 3.358-7.5 7.5-7.5 5.842 0 10.989-3.526 11.973-8.202l9.411-44.719c1.465-6.966 8.033-12.022 15.616-12.022 4.142 0 7.5 3.357 7.5 7.5s-3.358 7.5-7.5 7.5c-.518 0-.847.184-.974.283l-9.374 44.547c-2.452 11.654-13.661 20.113-26.652 20.113z" fill="#c15655"/></g><g><path d="m156.335 464.807c-4.142 0-7.5-3.358-7.5-7.5 0-4.143 3.358-7.5 7.5-7.5 5.842 0 10.989-3.526 11.973-8.202l9.411-44.719c1.465-6.966 8.033-12.022 15.616-12.022 4.142 0 7.5 3.357 7.5 7.5s-3.358 7.5-7.5 7.5c-.518 0-.847.184-.974.283l-9.374 44.547c-2.452 11.654-13.661 20.113-26.652 20.113z" fill="#c15655"/></g><path d="m365.707 350.163c-7.16 1.918-11.408 9.277-9.49 16.437l2.638 9.844c1.249 4.661 4.903 8.292 9.572 9.512l37.524 9.801-14.094-52.601z" fill="#e1715a"/><path d="m380.89 389.211 25.061 6.545-14.094-52.601-26.15 7.007c0 .001 21.859 6.476 15.183 39.049z" fill="#c15655"/><path d="m439.097 429.767-24.355-90.894c-2.021-7.542-9.773-12.018-17.315-9.997s-12.018 9.773-9.997 17.315l25.909 96.695c.838 3.127 2.67 5.715 5.055 7.543 7.303-6.472 14.217-13.371 20.703-20.662z" fill="#f1935d"/></g></svg>