<svg height="511pt" viewBox="0 -15 511.99934 511" width="511pt" xmlns="http://www.w3.org/2000/svg"><path d="m512 256.5c0 124.851562-101.214844 226.066406-226.066406 226.066406-124.851563 0-226.066406-101.214844-226.066406-226.066406 0-124.855469 101.214843-226.066406 226.066406-226.066406 124.851562 0 226.066406 101.210937 226.066406 226.066406zm0 0" fill="#95d6fc"/><path d="m459.75 348.464844c-11.433594-9.527344-27.746094-14.15625-49.871094-14.15625-15.820312 0-27.574218 4.40625-38.941406 8.667968-17.054688 6.394532-32.207031 12.070313-57.109375 1.539063-10.039063-4.246094-13.808594-16.550781-7.964844-25.753906l19.257813-30.742188c6.042968-9.644531 16.167968-15.992187 27.484375-17.21875l39.382812-4.277343-71.410156-15.621094c-8.796875-1.925782-14.957031-10.253906-13.621094-19.15625.539063-3.605469 2.171875-6.722656 4.472657-9.140625-.058594-.03125-.121094-.058594-.179688-.089844-3.757812-1.859375-3.738281-7.117187-.015625-9.042969 12.089844-6.25 20.148437-19.207031 19.234375-33.957031-1.097656-17.679687-15.355469-32.066406-33.027344-33.300781-20.855468-1.457032-38.226562 15.027344-38.226562 35.574218 0 6.15625 1.5625 11.953126 4.3125 17.007813 3.023437 5.5625-.234375 12.410156-6.492188 13.378906-.089844.011719-.179687.027344-.265625.039063l-.019531.003906c-1.363281.207031-3.578125.136719-4.925781-.152344l-144.21875-31.058594c-1.394531 4.707032-2.542969 9.5-3.425781 14.367188-1.226563 6.753906-1.929688 13.554688-2.128907 20.351562l114.917969 29.929688c8.066406 2.101562 12.589844 10.648438 9.84375 18.519531-5.207031 14.917969-7.898438 28.382813-7.921875 46.167969l-.074219 48.988281c0 6.917969-1.359375 13.855469-2.804687 21.203125-3.878907 19.773438-8.277344 42.183594 10.945312 75.3125 3.894531 6.710938 6.886719 13.804688 8.960938 21.152344 13.269531 3 26.980469 4.820312 41.023437 5.371094l6.25-21.742188c.765625-2.753906 3.832032-4.445312 6.789063-3.101562 13.65625 6.230468 50.347656 18.570312 97.199219-.542969 1.074218-.4375 2.265624-.425781 3.328124-.027344 35.484376-18.550781 65.425782-46.238281 86.707032-79.945312-3.789063-12.667969-9.390625-21.816407-17.464844-28.546875zm0 0" fill="#f2ba88"/><path d="m324.410156 289.152344.710938-1.132813c6.042968-9.644531 16.171875-15.992187 27.484375-17.21875l39.382812-4.277343-66.523437-14.554688c2.074218 10.785156 2.480468 23.472656-1.054688 37.183594zm0 0" fill="#e5a876"/><path d="m302.6875 323.367188c-54.722656-33.234376-65.648438-94.441407-67.691406-112.410157-.484375-4.222656 2.550781-8.039062 6.777344-8.519531 4.21875-.46875 8.039062 2.554688 8.519531 6.777344 1.84375 16.210937 11.652343 71.394531 60.386719 100.996094 3.632812 2.207031 4.792968 6.941406 2.585937 10.574218-2.214844 3.644532-6.957031 4.785156-10.578125 2.582032zm0 0" fill="#bc4c2e"/><path d="m284.300781 288.164062c-26.207031-29.519531-32.558593-66.230468-34.007812-78.949218-.480469-4.222656-4.300781-7.246094-8.519531-6.777344-4.226563.480469-7.261719 4.292969-6.78125 8.519531 1.597656 14.011719 8.589843 54.300781 37.527343 87.128907-1.566406-6.921876 5.347657-12.605469 11.78125-9.921876zm0 0" fill="#a0391e"/><path d="m124.710938 367.074219c-2.296876-3.574219-1.265626-8.339844 2.3125-10.636719l189.042968-121.609375-120.9375-190.851563c-2.277344-3.59375-1.210937-8.347656 2.382813-10.625 3.589843-2.277343 8.347656-1.207031 10.621093 2.382813l125.03125 197.3125c2.265626 3.574219 1.222657 8.304687-2.335937 10.59375l-195.476563 125.746094c-3.585937 2.304687-8.34375 1.257812-10.640624-2.3125zm0 0" fill="#ebeaec"/><path d="m333.164062 233.046875-33.070312-52.191406c-.78125 6.136719-6.90625 10.195312-12.921875 8.375l28.894531 45.597656-60.613281 38.992187c6.09375.957032 10 7.183594 7.980469 13.175782l67.394531-43.351563c3.558594-2.292969 4.601563-7.023437 2.335937-10.597656zm0 0" fill="#ccccce"/><path d="m213.199219 19.910156c1.898437-8.613281-3.539063-17.132812-12.152344-19.03125-8.609375-1.902344-17.128906 3.539063-19.03125 12.148438-1.152344 2.964844-5.164063 43.324218-42.429687 71.773437-31.5 24.050781-53.558594 58.632813-62.109376 97.382813-8.550781 38.75-3.09375 79.402344 15.363282 114.476562 21.742187 41.316406 8.484375 79.832032 8.285156 82.960938-1.898438 8.613281 3.542969 17.132812 12.152344 19.03125 8.609375 1.902344 17.132812-3.539063 19.03125-12.148438.1875-3.203125 16.613281-51.84375-11.210938-104.714844-14.945312-28.402343-19.363281-61.332031-12.4375-92.726562 6.929688-31.390625 24.792969-59.40625 50.304688-78.878906 47.464844-36.242188 53.042968-87.253906 54.234375-90.273438zm0 0" fill="#bc4c2e"/><path d="m146.121094 121.335938c-14.757813 4.726562-27.695313-10.816407-20.695313-24.414063-23.953125 22.921875-40.746093 52.613281-47.949219 85.261719-8.550781 38.746094-3.09375 79.402344 15.363282 114.476562 21.742187 41.316406 8.484375 79.832032 8.285156 82.960938-1.898438 8.609375 3.539062 17.132812 12.152344 19.03125 8.609375 1.898437 17.128906-3.539063 19.03125-12.152344.1875-3.199219 16.609375-51.839844-11.210938-104.710938-14.949218-28.402343-19.363281-61.335937-12.4375-92.726562 5.695313-25.816406 18.796875-49.347656 37.460938-67.726562zm0 0" fill="#a0391e"/><path d="m111.449219 130.113281c-6.972657-1.539062-14.097657 1.746094-17.507813 8.023438-7.472656 13.746093-13.046875 28.5625-16.464844 44.046875-3.09375 14.019531-4.351562 28.285156-3.828124 42.449218.269531 7.253907 5.4375 13.398438 12.523437 14.960938h.007813c10.140624 2.238281 19.800781-5.648438 19.398437-16.023438-.445313-11.511718.5625-23.109374 3.078125-34.507812 2.769531-12.554688 7.292969-24.566406 13.355469-35.710938 5.085937-9.34375-.175781-20.949218-10.5625-23.238281zm0 0" fill="#751d0c"/><path d="m305.792969 239.445312c-.449219-.015624-.902344-.074218-1.355469-.171874l-295.8125-64.398438c-4.15625-.90625-6.789062-5.007812-5.882812-9.160156.902343-4.15625 5.003906-6.792969 9.15625-5.886719l295.8125 64.398437c4.15625.90625 6.789062 5.007813 5.886718 9.160157-.808594 3.703125-4.148437 6.195312-7.804687 6.058593zm0 0" fill="#684261"/><path d="m307.710938 224.226562-50.199219-10.925781c3.839843 4.96875 2.246093 12.125-3.222657 15.054688l50.144532 10.917969c.457031.097656.910156.15625 1.359375.171874 3.65625.136719 6.996093-2.359374 7.800781-6.058593.90625-4.152344-1.726562-8.253907-5.882812-9.160157zm0 0" fill="#603256"/><path d="m418.632812 272.351562-98.542968-21.554687c-9.140625-2-14.925782-11.03125-12.925782-20.167969 1.996094-9.140625 11.027344-14.925781 20.164063-12.925781l98.542969 21.554687c9.136718 2 14.925781 11.03125 12.925781 20.167969-1.984375 9.074219-10.964844 14.9375-20.164063 12.925781zm0 0" fill="#fcd2a4"/><path d="m363.601562 243.195312c1.722657-7.871093 8.363282-13.398437 15.988282-14.0625l-52.261719-11.433593c-9.136719-1.996094-18.167969 3.789062-20.164063 12.929687-2 9.136719 3.785157 18.164063 12.925782 20.164063l51.101562 11.179687c-5.972656-3.984375-9.21875-11.339844-7.589844-18.777344zm0 0" fill="#f2ba88"/><path d="m59.433594 167.550781-22.675782-4.9375 14.363282-9.167969c4.769531-3.046874 6.171875-9.40625 3.125-14.175781-3.042969-4.769531-9.40625-6.171875-14.175782-3.128906l-35.292968 22.535156c-.027344.015625-.054688.035157-.082032.050781-4.7382808 3.058594-6.121093 9.398438-3.082031 14.148438l22.554688 35.332031c3.039062 4.753907 9.390625 6.183594 14.175781 3.128907 4.773438-3.046876 6.175781-9.40625 3.128906-14.175782l-9.273437-14.527344 22.847656 4.972657c1.386719.300781 2.75-.574219 3.050781-1.957031l3.296875-15.042969c.304688-1.386719-.582031-2.753907-1.960937-3.054688zm0 0" fill="#ebeaec"/><path d="m230.398438 458.015625c-3.976563-17.992187-10.132813-24.664063-15.671876-36.566406 3.300782 15.265625 8.671876 22.75 9.160157 42.21875l1.316406 10.632812c3.777344 1.050781 7.59375 2.003907 11.445313 2.859375zm0 0" fill="#93451d"/><path d="m459.75 348.464844c-11.433594-9.527344-27.746094-14.15625-49.871094-14.15625-15.820312 0-27.574218 4.40625-38.941406 8.667968-17.054688 6.390626-32.207031 12.070313-57.109375 1.539063-4.636719-1.960937-7.914063-5.648437-9.546875-9.949219-2.734375 2.492188-12.78125 12.066406-18.160156 23.203125-.644532 1.328125-2.570313 1.199219-3.023438-.203125l-2.5625-7.898437c-.316406-.976563-1.4375-1.425781-2.335937-.933594-4.382813 2.390625-16.007813 9.40625-22.78125 19.828125-.839844 1.292969-2.828125.820312-2.992188-.710938l-1.316406-12.304687c-.117187-1.085937-1.238281-1.757813-2.246094-1.339844-5.183593 2.136719-19.492187 9.246094-32.933593 26.761719-3.859376 19.667969-8.058594 41.992188 11.027343 74.882812 3.894531 6.707032 6.886719 13.800782 8.960938 21.152344 13.269531 2.996094 26.980469 4.816406 41.023437 5.367188l6.25-21.742188c.765625-2.753906 3.832032-4.445312 6.785156-3.097656 13.660157 6.226562 50.351563 18.570312 97.199219-.542969 1.078125-.4375 2.269531-.425781 3.332031-.03125 35.484376-18.546875 65.425782-46.234375 86.707032-79.941406-3.789063-12.671875-9.390625-21.820313-17.464844-28.550781zm0 0" fill="#b2622d"/><path d="m334.363281 400.414062c0-22.695312 11.441407-42.714843 28.863281-54.617187-14.1875 4.925781-28.292968 7.644531-49.394531-1.28125-4.640625-1.960937-7.914062-5.648437-9.546875-9.945313-2.738281 2.488282-12.785156 12.066407-18.164062 23.199219-.644532 1.328125-2.566406 1.203125-3.023438-.203125l-2.558594-7.898437c-.316406-.976563-1.4375-1.421875-2.339843-.929688-4.382813 2.390625-16.007813 9.402344-22.78125 19.828125-.835938 1.289063-2.828125.816406-2.992188-.714844l-1.316406-12.304687c-.117187-1.085937-1.234375-1.753906-2.246094-1.339844-5.183593 2.140625-19.492187 9.25-32.933593 26.765625-3.859376 19.664063-8.054688 41.988282 11.03125 74.878906 3.890624 6.710938 6.882812 13.800782 8.957031 21.152344 13.269531 2.996094 26.984375 4.820313 41.023437 5.371094l6.25-21.746094c.765625-2.75 3.835938-4.441406 6.789063-3.097656 12.4375 5.671875 43.980469 16.402344 84.894531 3.847656-23.800781-10.003906-40.511719-33.53125-40.511719-60.964844zm0 0" fill="#a35224"/></svg>