<svg height="512pt" viewBox="0 -4 512.00038 512" width="512pt" xmlns="http://www.w3.org/2000/svg"><path d="m512 251.523438c0 138.914062-112.609375 251.527343-251.523438 251.527343-138.914062 0-251.527343-112.613281-251.527343-251.527343 0-138.910157 112.613281-251.523438 251.527343-251.523438 138.914063 0 251.523438 112.613281 251.523438 251.523438zm0 0" fill="#603256"/><path d="m23.085938 330.941406c33.25 99.992188 127.554687 172.109375 238.714843 172.109375 111.164063 0 205.46875-72.117187 238.71875-172.109375zm0 0" fill="#441f41"/><path d="m264.8125 330.941406h-241.726562c33.25 99.992188 127.554687 172.109375 238.714843 172.109375 1.128907 0 2.25-.019531 3.371094-.035156-79.839844-25.628906-78.15625-146.082031-.359375-172.074219zm0 0" fill="#4f2649"/><path d="m3.835938 181.324219c-3.6875-2.152344-4.933594-6.882813-2.78125-10.570313 14.113281-24.1875 36.914062-24.1875 61.058593-24.1875 25.355469 0 30.503907-12.679687 30.710938-13.21875l-.058594.167969 14.683594 4.816406c-.316407.964844-8.191407 23.6875-45.335938 23.6875-26.46875 0-38.980469 1.566407-47.710937 16.523438-2.160156 3.703125-6.902344 4.921875-10.566406 2.78125zm0 0" fill="#ff5252"/><path d="m92.765625 133.515625.058594-.167969c-.183594.480469-4.230469 10.414063-22.632813 12.734375 3.675782.921875 6.402344 4.242188 6.402344 8.207031 0 2.921876-1.476562 5.496094-3.730469 7.019532 27.949219-3.835938 34.304688-22.113282 34.585938-22.980469zm0 0" fill="#e53535"/><path d="m124.628906 122.640625c.476563-1.140625-.804687-2.222656-1.851562-1.566406-11.554688 7.234375-24.808594 8.785156-37.671875 8.875 9.519531 3.285156 16.285156 11.4375 18.019531 21.027343 12.894531-11.417968 19.195312-22.789062 21.503906-28.335937zm0 0" fill="#dad9dd"/><path d="m36.269531 132.039062c-4.71875 1.617188-9.035156 2.699219-12.820312 3.414063 4.128906 6.367187 9.613281 13.480469 15.636719 17.660156.457031.320313 1.066406-.09375.9375-.636719-.769532-3.234374-2.589844-11.355468-3.753907-20.4375zm0 0" fill="#dad9dd"/><path d="m33.769531 139.394531c.046875-.015625.09375-.027343.140625-.039062 1.207032-.335938 2.421875-.230469 3.492188.203125-.40625-2.367188-.796875-4.902344-1.132813-7.519532-4.71875 1.617188-9.035156 2.699219-12.820312 3.414063 1.851562 2.851563 3.972656 5.855469 6.296875 8.675781.226562-2.132812 1.707031-4.097656 4.023437-4.734375zm0 0" fill="#ccccce"/><path d="m57.394531 157.878906c-.367187-.417968-1.054687-.160156-1.058593.398438-.050782 5.886718 1.640624 12.578125 3.765624 18.636718 4.113282-1.335937 7.988282-2.789062 11.628907-4.339843-6.660157-6.136719-12.15625-12.21875-14.335938-14.695313zm0 0" fill="#dad9dd"/><path d="m65.125 166.167969c-.375 1.410156-1.394531 2.660156-2.949219 3.222656-.039062.011719-.078125.027344-.117187.042969-1.535156.554687-3.15625.234375-4.367188-.671875.652344 2.757812 1.484375 5.515625 2.410156 8.152343 4.113282-1.335937 7.988282-2.789062 11.628907-4.34375-2.382813-2.195312-4.617188-4.382812-6.605469-6.402343zm0 0" fill="#ccccce"/><path d="m500.96875 325.390625h-258.882812c-12.425782-.34375-18.125-5.253906-30.511719-8.992187-2.027344-.613282-4.253907-1.21875-6.679688-1.792969-13.347656-3.144531-26.257812-7.933594-38.273437-14.542969l-1.0625-.582031c-5.859375-3.222657-12.4375-4.914063-19.128906-4.914063l-26.511719 3.320313c-12.117188 0-22.628907 6.847656-27.882813 16.886719-5.410156 10.335937-14.277344 18.441406-24.917968 23.230468l-5.824219 2.621094c-8.769531 3.945312-13.234375 13.804688-10.414063 23l2.066406 6.734375c.921876 3.007813 3.75 5.03125 6.890626 4.890625 5.9375-.261719 16.316406-1.558594 28.90625-6.6875 19.125-7.792969 54.648437 5.582031 81.203124-11.042969 1.046876-.65625 2.324219.425781 1.851563 1.566407-4.453125 10.691406-23.671875 43.027343-76.503906 55.582031-3.539063.839843-4.558594 5.386719-1.722657 7.667969 7.902344 6.351562 18.375 8.5 28.144532 5.777343 21.648437-6.035156 55.980468-16.625 66.6875-28.761719 5.976562-6.773437 14.089844-11.296874 22.976562-12.921874l1.429688-.261719c3.546875-.648438 7.144531-.972657 10.75-.972657h41.269531v-.035156h208.757813c11.589843-18.449218 20.859374-38.507812 27.382812-59.769531zm0 0" fill="#5fc16a"/><path d="m283.558594 337.757812c0 11.589844 9.398437 20.984376 20.984375 20.984376 11.589843 0 20.984375-9.394532 20.984375-20.984376 0-4.628906-1.515625-8.898437-4.058594-12.367187h-33.851562c-2.539063 3.46875-4.058594 7.738281-4.058594 12.367187zm0 0" fill="#69d173"/><path d="m473.582031 385.160156h-36.984375c-43.953125 0-79.585937-35.632812-79.585937-79.582031v-77.246094c0-76.964843-62.386719-139.355469-139.351563-139.355469h-21.363281c-13.417969 0-19.042969-5.148437-31.886719-9.023437-2.027344-.613281-4.257812-1.222656-6.683594-1.792969-13.347656-3.148437-26.253906-7.9375-38.273437-14.542968l-1.058594-.582032c-5.859375-3.222656-12.441406-4.914062-19.128906-4.914062l-26.515625 3.320312c-12.113281 0-22.625 6.851563-27.878906 16.886719-5.414063 10.335937-14.28125 18.441406-24.917969 23.230469l-5.824219 2.621094c-8.773437 3.945312-13.238281 13.804687-10.417968 23l2.066406 6.734374c.921875 3.007813 3.75 5.027344 6.894531 4.890626 5.933594-.261719 16.3125-1.558594 28.902344-6.6875 19.125-7.792969 54.652343 5.578124 81.203125-11.042969 1.046875-.65625 2.328125.421875 1.851562 1.566406-4.449218 10.6875-23.667968 43.027344-76.503906 55.578125-3.539062.84375-4.558594 5.390625-1.722656 7.667969 7.902344 6.351562 18.378906 8.503906 28.144531 5.78125 21.648437-6.035157 55.980469-16.625 66.6875-28.765625 5.976563-6.773438 14.089844-11.292969 22.976563-12.917969l1.429687-.261719c3.546875-.648437 7.144531-.976562 10.75-.976562h41.269531c43.953125 0 79.582032 35.628906 79.582032 79.582031v77.246094c0 72.085937 54.734374 131.386719 124.914062 138.613281 20.050781-16.84375 37.433594-36.761719 51.425781-59.027344zm0 0" fill="#55b160"/><path d="m473.582031 385.160156h-36.984375c-43.953125 0-79.585937-35.632812-79.585937-79.582031v-77.246094c0-76.964843-62.386719-139.355469-139.351563-139.355469h-21.363281c-13.417969 0-19.042969-5.148437-31.886719-9.023437-2.027344-.613281-4.257812-1.222656-6.683594-1.792969-13.347656-3.148437-26.253906-7.9375-38.273437-14.542968l-1.058594-.582032c-5.859375-3.222656-12.441406-4.914062-19.128906-4.914062l-26.515625 3.320312c-12.113281 0-22.625 6.851563-27.878906 16.886719-5.414063 10.335937-14.28125 18.441406-24.917969 23.230469l-5.824219 2.621094c-8.773437 3.945312-13.238281 13.804687-10.417968 23l2.066406 6.734374c.921875 3.007813 3.75 5.027344 6.894531 4.890626 5.933594-.261719 16.3125-1.558594 28.902344-6.6875 19.125-7.792969 54.652343 5.578124 81.203125-11.042969 1.046875-.65625 2.328125.421875 1.851562 1.566406-4.449218 10.6875-23.667968 43.027344-76.503906 55.578125-3.539062.84375-4.558594 5.390625-1.722656 7.667969 7.902344 6.351562 18.378906 8.503906 28.144531 5.78125 21.648437-6.035157 55.980469-16.625 66.6875-28.765625 5.976563-6.773438 14.089844-11.292969 22.976563-12.917969l1.429687-.261719c3.546875-.648437 7.144531-.976562 10.75-.976562h41.269531c43.953125 0 79.582032 35.628906 79.582032 79.582031v77.246094c0 72.085937 54.734374 131.386719 124.914062 138.613281 20.050781-16.84375 37.433594-36.761719 51.425781-59.027344zm0 0" fill="#55b160"/><path d="m240.800781 133.347656c0-17.769531 13.910157-32.289062 31.433594-33.273437-16.761719-7.140625-35.203125-11.097657-54.574219-11.097657h-21.363281c-13.414063 0-19.042969-5.148437-31.886719-9.023437-2.027344-.613281-4.257812-1.222656-6.683594-1.792969-13.347656-3.148437-26.253906-7.9375-38.269531-14.542968l-1.0625-.582032c-5.859375-3.222656-12.441406-4.914062-19.128906-4.914062l-26.515625 3.320312c-12.113281 0-22.625 6.851563-27.878906 16.886719-5.410156 10.335937-14.28125 18.441406-24.917969 23.230469l-5.824219 2.621094c-8.773437 3.945312-13.234375 13.804687-10.414062 23l2.0625 6.734374c.921875 3.007813 3.753906 5.027344 6.894531 4.890626 5.933594-.261719 16.316406-1.558594 28.902344-6.6875 19.125-7.792969 54.652343 5.578124 81.203125-11.042969 1.050781-.65625 2.328125.421875 1.851562 1.566406-4.449218 10.6875-23.667968 43.027344-76.503906 55.578125-3.539062.84375-4.554688 5.390625-1.722656 7.667969 7.902344 6.351562 18.378906 8.503906 28.144531 5.78125 21.652344-6.035157 55.980469-16.625 66.691406-28.765625 5.976563-6.773438 14.085938-11.292969 22.972657-12.917969l1.429687-.261719c3.546875-.648437 7.144531-.976562 10.75-.976562h41.269531c11.09375 0 21.652344 2.273437 31.246094 6.375-5.046875-5.839844-8.105469-13.445313-8.105469-21.773438zm0 0" fill="#49a552"/><path d="m62.570312 91.042969 28.539063-10.402344c2.277344-.832031 4.195313 1.878906 2.652344 3.75l-10 12.15625c-4.785157 5.8125-13.480469 6.394531-18.996094 1.265625l-3-2.789062c-1.304687-1.210938-.867187-3.375.804687-3.980469zm0 0" fill="#603256"/><path d="m75.492188 91.644531-3-2.789062c-.363282-.339844-.578126-.75-.679688-1.183594l-9.242188 3.367187c-1.671874.609376-2.109374 2.769532-.804687 3.980469l3 2.792969c5.515625 5.125 14.210937 4.546875 18.996094-1.269531l1.171875-1.421875c-3.355469.140625-6.769532-.992188-9.441406-3.476563zm0 0" fill="#4f2649"/><path d="m503.726562 295.710938c0-58.585938-47.664062-106.25-106.253906-106.25h-12.371094v.039062h-8.992187c-13.414063 0-19.042969-5.148438-31.886719-9.027344-2.027344-.609375-4.257812-1.21875-6.683594-1.789062-13.347656-3.148438-26.253906-7.9375-38.273437-14.542969l-1.058594-.585937c-5.859375-3.222657-12.441406-4.910157-19.128906-4.910157l-26.515625 3.320313c-12.113281 0-22.625 6.847656-27.878906 16.886718-5.414063 10.332032-14.28125 18.441407-24.917969 23.226563l-5.824219 2.621094c-8.773437 3.949219-13.234375 13.808593-10.414062 23.003906l2.0625 6.734375c.921875 3.003906 3.753906 5.027344 6.894531 4.890625 5.9375-.261719 16.316406-1.5625 28.90625-6.691406 19.121094-7.789063 54.648437 5.582031 81.199219-11.042969 1.050781-.65625 2.328125.425781 1.855468 1.570312-4.453124 10.6875-23.671874 43.023438-76.507812 55.578126-3.535156.839843-4.554688 5.390624-1.722656 7.664062 7.90625 6.355469 18.378906 8.503906 28.148437 5.78125 21.648438-6.035156 55.976563-16.625 66.6875-28.761719 5.976563-6.773437 14.085938-11.296875 22.972657-12.921875l1.433593-.261718c3.546875-.648438 7.140625-.972657 10.746094-.972657h42.851563c24.902343.832031 44.90625 21.339844 44.90625 46.441407v42.964843c0 22.828125 7.238281 43.996094 19.535156 61.332031 18.316406-24.996093 32.125-53.496093 40.234375-84.316406v-19.980468zm0 0" fill="#69d173"/><g fill="#7cdd83"><path d="m446.832031 201.835938c0-.066407-.011719-.132813-.011719-.199219-11.667968-6.144531-24.609374-10.1875-38.320312-11.609375-2.292969 3.363281-3.636719 7.429687-3.636719 11.804687 0 11.589844 9.394531 20.984375 20.980469 20.984375 11.589844 0 20.988281-9.394531 20.988281-20.980468zm0 0"/><path d="m454.179688 295.949219c-3.714844 0-7.195313.972656-10.222657 2.664062v36.636719c3.027344 1.691406 6.507813 2.667969 10.222657 2.667969 11.589843 0 20.984374-9.394531 20.984374-20.984375s-9.394531-20.984375-20.984374-20.984375zm0 0"/><path d="m500 267.796875c-3.667969-13.460937-9.921875-25.863281-18.195312-36.644531-9.195313 2.230468-16.03125 10.492187-16.03125 20.371094 0 11.589843 9.394531 20.984374 20.984374 20.984374 5.019532 0 9.628907-1.769531 13.242188-4.710937zm0 0"/></g><path d="m357.410156 313.515625c-.261718-2.613281-.398437-5.257813-.398437-7.9375v-30.148437c-2.621094-1.175782-5.515625-1.847657-8.574219-1.847657-11.589844 0-20.984375 9.394531-20.984375 20.984375s9.394531 20.984375 20.984375 20.984375c3.214844 0 6.246094-.742187 8.972656-2.035156zm0 0" fill="#5fc16a"/><path d="m203.265625 114.941406c-11.589844 0-20.984375 9.394532-20.984375 20.984375 0 4.832031 1.652344 9.273438 4.398438 12.820313h30.980468c.722656 0 1.433594.035156 2.148438.054687 2.773437-3.558593 4.441406-8.019531 4.441406-12.878906 0-11.585937-9.398438-20.980469-20.984375-20.980469zm0 0" fill="#55b160"/><path d="m308.542969 122.691406c-9.332031-8.035156-19.746094-14.855468-30.984375-20.214844-6.492188 3.570313-10.894532 10.46875-10.894532 18.398438 0 11.589844 9.394532 20.984375 20.984376 20.984375 10.976562 0 19.96875-8.429687 20.894531-19.167969zm0 0" fill="#5fc16a"/><path d="m240.820312 351.386719c-11.589843 0-20.984374 9.394531-20.984374 20.984375 0 4.835937 1.652343 9.273437 4.398437 12.820312h33.171875c2.746094-3.546875 4.398438-7.984375 4.398438-12.820312-.003907-11.589844-9.394532-20.984375-20.984376-20.984375zm0 0" fill="#69d173"/><path d="m122.777344 121.074219c-6.203125 3.882812-12.894532 6.117187-19.753906 7.378906 5.1875 2.429687 8.789062 7.660156 8.839843 13.753906 7.144531-8.152343 11.054688-15.457031 12.765625-19.566406.476563-1.144531-.804687-2.222656-1.851562-1.566406zm0 0" fill="#ccccce"/><path d="m51 417.769531c-3.6875-2.148437-4.929688-6.882812-2.78125-10.566406 14.113281-24.1875 36.917969-24.1875 61.058594-24.1875 25.355468 0 30.503906-12.679687 30.710937-13.21875l-.058593.167969 14.6875 4.8125c-.320313.96875-8.191407 23.691406-45.339844 23.691406-26.46875 0-38.980469 1.5625-47.707032 16.519531-2.164062 3.707031-6.902343 4.925781-10.570312 2.78125zm0 0" fill="#ff5252"/><path d="m139.929688 369.964844.058593-.167969c-.183593.476563-4.230469 10.414063-22.632812 12.730469 3.675781.925781 6.402343 4.242187 6.402343 8.207031 0 2.921875-1.476562 5.496094-3.726562 7.019531 27.945312-3.835937 34.300781-22.109375 34.585938-22.976562zm0 0" fill="#e53535"/><path d="m171.792969 359.089844c.476562-1.144532-.800781-2.226563-1.851563-1.570313-11.554687 7.234375-24.808594 8.789063-37.671875 8.875 9.523438 3.285157 16.289063 11.4375 18.023438 21.027344 12.890625-11.414063 19.191406-22.789063 21.5-28.332031zm0 0" fill="#dad9dd"/><path d="m83.4375 368.484375c-4.71875 1.617187-9.039062 2.699219-12.820312 3.414063 4.125 6.371093 9.609374 13.480468 15.632812 17.664062.457031.316406 1.070312-.09375.9375-.636719-.769531-3.238281-2.585938-11.355469-3.75-20.441406zm0 0" fill="#dad9dd"/><path d="m80.933594 375.839844c.046875-.011719.09375-.027344.140625-.039063 1.210937-.335937 2.421875-.230469 3.492187.203125-.402344-2.363281-.792968-4.898437-1.128906-7.519531-4.71875 1.617187-9.039062 2.699219-12.820312 3.414063 1.847656 2.855468 3.972656 5.855468 6.292968 8.679687.226563-2.136719 1.707032-4.101563 4.023438-4.738281zm0 0" fill="#ccccce"/><path d="m104.5625 394.328125c-.367188-.421875-1.058594-.160156-1.0625.398437-.050781 5.886719 1.640625 12.578126 3.765625 18.632813 4.113281-1.332031 7.988281-2.785156 11.632813-4.339844-6.660157-6.136719-12.160157-12.21875-14.335938-14.691406zm0 0" fill="#dad9dd"/><path d="m112.292969 402.613281c-.375 1.410157-1.394531 2.660157-2.953125 3.222657-.039063.015624-.078125.027343-.117188.042968-1.535156.554688-3.15625.234375-4.367187-.667968.652343 2.757812 1.484375 5.511718 2.410156 8.148437 4.113281-1.332031 7.988281-2.785156 11.632813-4.339844-2.386719-2.199219-4.617188-4.386719-6.605469-6.40625zm0 0" fill="#ccccce"/><path d="m169.941406 357.519531c-6.199218 3.882813-12.894531 6.121094-19.75 7.382813 5.183594 2.429687 8.789063 7.660156 8.835938 13.75 7.148437-8.148438 11.058594-15.457032 12.765625-19.5625.476562-1.144532-.800781-2.226563-1.851563-1.570313zm0 0" fill="#ccccce"/><path d="m195.3125 355.027344c0-16.035156 9.417969-29.867188 23.019531-36.28125-2.058593-.796875-4.269531-1.597656-6.757812-2.347656-2.027344-.613282-4.253907-1.21875-6.679688-1.792969-13.347656-3.144531-26.257812-7.933594-38.273437-14.542969l-1.0625-.582031c-5.859375-3.222657-12.4375-4.914063-19.128906-4.914063l-26.511719 3.320313c-12.117188 0-22.628907 6.847656-27.882813 16.886719-5.410156 10.335937-14.277344 18.441406-24.917968 23.230468l-5.824219 2.621094c-8.769531 3.945312-13.234375 13.804688-10.414063 23.003906l2.066406 6.730469c.921876 3.011719 3.75 5.03125 6.890626 4.890625 5.9375-.261719 16.316406-1.558594 28.90625-6.6875 19.125-7.789062 54.648437 5.582031 81.203124-11.042969 1.046876-.65625 2.324219.425781 1.851563 1.566407-4.453125 10.6875-23.671875 43.027343-76.503906 55.582031-3.539063.839843-4.558594 5.386719-1.722657 7.664062 7.902344 6.355469 18.375 8.503907 28.144532 5.78125 21.648437-6.035156 55.980468-16.625 66.6875-28.761719 5.816406-6.59375 13.660156-11.046874 22.269531-12.777343-9.347656-7.339844-15.359375-18.738281-15.359375-31.546875zm0 0" fill="#55b160"/><path d="m109.738281 327.488281 28.535157-10.402343c2.28125-.828126 4.195312 1.878906 2.65625 3.753906l-10 12.152344c-4.785157 5.816406-13.484376 6.394531-19 1.265624l-3-2.789062c-1.300782-1.210938-.863282-3.371094.808593-3.980469zm0 0" fill="#603256"/><path d="m122.660156 328.09375-3-2.789062c-.363281-.339844-.578125-.753907-.683594-1.183594l-9.238281 3.367187c-1.671875.609375-2.109375 2.769531-.808593 3.980469l3.003906 2.789062c5.515625 5.128907 14.210937 4.550782 18.996094-1.265624l1.171874-1.425782c-3.359374.140625-6.773437-.992187-9.441406-3.472656zm0 0" fill="#4f2649"/><path d="m183.648438 281.796875c-3.6875-2.148437-4.929688-6.882813-2.78125-10.570313 14.113281-24.183593 36.917968-24.183593 61.058593-24.183593 25.355469 0 30.503907-12.679688 30.710938-13.21875l-.058594.167969 14.683594 4.8125c-.316407.964843-8.1875 23.691406-45.335938 23.691406-26.46875 0-38.980469 1.5625-47.710937 16.519531-2.160156 3.707031-6.898438 4.921875-10.566406 2.78125zm0 0" fill="#ff5252"/><path d="m272.578125 233.992188.058594-.167969c-.183594.476562-4.230469 10.414062-22.632813 12.730469 3.675782.925781 6.402344 4.242187 6.402344 8.207031 0 2.921875-1.480469 5.496093-3.730469 7.019531 27.949219-3.835938 34.304688-22.113281 34.585938-22.976562zm0 0" fill="#e53535"/><path d="m304.441406 223.113281c.476563-1.140625-.800781-2.222656-1.851562-1.566406-11.554688 7.234375-24.808594 8.789063-37.671875 8.878906 9.523437 3.28125 16.289062 11.433594 18.023437 21.023438 12.890625-11.417969 19.191406-22.789063 21.5-28.335938zm0 0" fill="#dad9dd"/><path d="m216.085938 232.511719c-4.71875 1.617187-9.039063 2.699219-12.824219 3.414062 4.128906 6.371094 9.613281 13.480469 15.636719 17.664063.457031.316406 1.066406-.09375.9375-.636719-.769532-3.238281-2.585938-11.355469-3.75-20.441406zm0 0" fill="#dad9dd"/><path d="m213.582031 239.867188c.046875-.011719.09375-.027344.140625-.039063 1.207032-.335937 2.421875-.230469 3.492188.203125-.402344-2.363281-.792969-4.898438-1.128906-7.519531-4.71875 1.617187-9.039063 2.699219-12.820313 3.414062 1.847656 2.855469 3.972656 5.855469 6.292969 8.679688.226562-2.136719 1.707031-4.101563 4.023437-4.738281zm0 0" fill="#ccccce"/><path d="m237.210938 258.351562c-.371094-.417968-1.058594-.15625-1.0625.402344-.050782 5.886719 1.640624 12.578125 3.765624 18.632813 4.113282-1.332031 7.988282-2.785157 11.632813-4.339844-6.660156-6.136719-12.160156-12.21875-14.335937-14.695313zm0 0" fill="#dad9dd"/><path d="m244.9375 266.640625c-.375 1.410156-1.390625 2.660156-2.949219 3.222656-.039062.015625-.078125.027344-.117187.042969-1.535156.554688-3.15625.234375-4.367188-.671875.652344 2.761719 1.484375 5.515625 2.410156 8.152344 4.113282-1.332031 7.988282-2.785157 11.632813-4.339844-2.386719-2.199219-4.617187-4.386719-6.609375-6.40625zm0 0" fill="#ccccce"/><path d="m302.589844 221.546875c-6.199219 3.882813-12.894532 6.121094-19.75 7.382813 5.183594 2.425781 8.789062 7.660156 8.835937 13.75 7.148438-8.148438 11.054688-15.457032 12.765625-19.566407.476563-1.140625-.800781-2.222656-1.851562-1.566406zm0 0" fill="#ccccce"/><path d="m359.519531 219.433594c0-13.199219 7.714844-24.597656 18.882813-29.933594h-2.289063c-13.417969 0-19.046875-5.148438-31.890625-9.027344-2.027344-.613281-4.257812-1.21875-6.679687-1.789062-13.347657-3.148438-26.257813-7.9375-38.273438-14.546875l-1.0625-.582031c-5.859375-3.222657-12.441406-4.914063-19.128906-4.914063l-26.515625 3.324219c-12.113281 0-22.625 6.847656-27.878906 16.882812-5.410156 10.335938-14.277344 18.445313-24.917969 23.230469l-5.824219 2.621094c-8.773437 3.949219-13.234375 13.804687-10.414062 23.003906l2.0625 6.730469c.921875 3.007812 3.753906 5.03125 6.894531 4.890625 5.9375-.261719 16.316406-1.558594 28.902344-6.6875 19.125-7.792969 54.652343 5.582031 81.203125-11.042969 1.050781-.65625 2.328125.421875 1.851562 1.566406-4.449218 10.6875-23.667968 43.027344-76.503906 55.578125-3.539062.84375-4.558594 5.390625-1.722656 7.667969 7.90625 6.355469 18.378906 8.503906 28.148437 5.78125 21.648438-6.035156 55.976563-16.625 66.6875-28.765625 5.976563-6.773437 14.085938-11.292969 22.972657-12.917969l1.433593-.261718c3.542969-.648438 7.140625-.976563 10.746094-.976563h21.988281c-11.054687-5.375-18.671875-16.710937-18.671875-29.832031zm0 0" fill="#5fc16a"/><path d="m242.386719 191.515625 28.535156-10.402344c2.28125-.828125 4.195313 1.878907 2.65625 3.75l-10 12.15625c-4.785156 5.816407-13.484375 6.394531-19 1.265625l-3-2.789062c-1.300781-1.210938-.863281-3.371094.808594-3.980469zm0 0" fill="#603256"/><path d="m255.308594 192.121094-3-2.792969c-.363282-.335937-.578125-.75-.683594-1.183594l-9.238281 3.371094c-1.671875.609375-2.109375 2.769531-.808594 3.980469l3.003906 2.789062c5.511719 5.128906 14.210938 4.550782 18.996094-1.265625l1.171875-1.425781c-3.359375.140625-6.773438-.992188-9.441406-3.472656zm0 0" fill="#4f2649"/></svg>