<svg height="512pt" viewBox="-8 0 512 512.00026" width="512pt" xmlns="http://www.w3.org/2000/svg"><path d="m495.605469 264.195312c0 136.859376-110.945313 247.804688-247.800781 247.804688-136.859376 0-247.804688-110.945312-247.804688-247.804688 0-136.855468 110.945312-247.800781 247.804688-247.800781 136.855468 0 247.800781 110.945313 247.800781 247.800781zm0 0" fill="#ff5252"/><path d="m470.765625 372.441406c-2.273437-68.066406-43.589844-93.152344-57.476563-99.679687-3.171874-1.492188-6.066406-3.582031-8.601562-6.113281-.832031-.832032-1.671875-1.648438-2.511719-2.457032-21.089843-20.203125-47.378906-34.015625-75.71875-40.65625-6.40625 20.3125-20.722656 37.3125-39.894531 46.996094-24.375 12.308594-53.144531 12.308594-77.515625 0h-.003906c-19.171875-9.683594-33.488281-26.683594-39.894531-46.996094-28.339844 6.640625-54.628907 20.453125-75.71875 40.65625-.84375.808594-1.679688 1.628906-2.511719 2.460938-2.535157 2.527344-5.429688 4.621094-8.605469 6.113281-13.886719 6.527344-55.199219 31.609375-57.472656 99.675781 40.179687 82.613282 124.917968 139.558594 222.964844 139.558594 98.042968 0 182.78125-56.945312 222.960937-139.558594zm0 0" fill="#f7c696"/><path d="m402.175781 264.191406c-21.089843-20.203125-47.378906-34.015625-75.71875-40.65625-6.40625 20.3125-20.722656 37.3125-39.894531 46.996094-24.375 12.308594-53.144531 12.308594-77.515625 0h-.003906c-19.171875-9.683594-33.488281-26.683594-39.894531-46.996094-28.339844 6.640625-54.628907 20.453125-75.71875 40.65625-.84375.808594-1.679688 1.628906-2.511719 2.457032-2.535157 2.53125-5.429688 4.621093-8.605469 6.113281h.003906c36.695313-6.308594 59.199219 7.285156 69.117188 15.636719 3.023437 2.546874 6.71875 4.109374 10.628906 4.671874 42.027344 6.070313 62.542969 41.085938 62.542969 41.085938l5.0625 6.234375c9.351562 11.507813 26.917969 11.507813 36.269531 0l5.0625-6.234375s15.992188-30.523438 61.804688-41.03125c4-.917969 9.96875-3.691406 13.207031-6.21875 10.71875-8.359375 32.695312-20.09375 67.277343-14.144531-3.171874-1.492188-6.066406-3.582031-8.601562-6.113281-.832031-.828126-1.667969-1.648438-2.511719-2.457032zm0 0" fill="#f2ba88"/><path d="m395.902344 462.882812c.644531-4.167968.980468-8.402343.980468-12.648437v-45.574219c0-4.140625-3.355468-7.5-7.5-7.5-4.140624 0-7.5 3.359375-7.5 7.5v45.574219c0 8.839844-1.742187 17.582031-5.042968 25.542969 6.558594-4.007813 12.921875-8.308594 19.0625-12.894532zm0 0" fill="#e5a876"/><path d="m367.152344 419.375c-2.191406-3.515625-1.117188-8.140625 2.394531-10.332031 6.011719-3.75 11.507813-8.28125 16.335937-13.46875l10.0625-10.8125c2.820313-3.035157 7.566407-3.207031 10.597657-.382813 3.03125 2.820313 3.207031 7.566406.382812 10.597656l-10.0625 10.816407c-5.726562 6.152343-12.246093 11.527343-19.375 15.976562-3.53125 2.203125-8.152343 1.105469-10.335937-2.394531zm0 0" fill="#e5a876"/><path d="m247.804688 512c20.589843 0 40.585937-2.519531 59.714843-7.253906l-39.03125-18.453125-20.683593-21.667969-15.6875 25.675781s5.386718 10.15625 2.855468 21.367188c4.25.214843 8.527344.332031 12.832032.332031zm0 0" fill="#f2ba88"/><path d="m277.449219 481.121094c-13.453125-6.40625-22.144531-20.175782-22.144531-35.074219v-71.273437c0-14.898438 8.691406-28.667969 22.144531-35.074219 3.742187-1.78125 5.328125-6.257813 3.546875-9.996094s-6.253906-5.328125-9.996094-3.546875c-9.835938 4.683594-17.832031 12.210938-23.195312 21.304688-5.367188-9.09375-13.363282-16.621094-23.199219-21.304688-3.742188-1.78125-8.21875-.191406-9.996094 3.546875-1.78125 3.738281-.195313 8.214844 3.546875 9.996094 13.453125 6.40625 22.148438 20.175781 22.148438 35.074219v71.273437c0 14.898437-8.695313 28.667969-22.148438 35.074219l-30.390625 14.46875c-.621094.289062-5.90625 2.585937-12.730469 5.542968 7.671875 2.355469 15.5 4.351563 23.46875 5.960938l26.101563-12.429688c9.835937-4.683593 17.832031-12.207031 23.199219-21.300781 5.363281 9.09375 13.359374 16.617188 23.195312 21.300781.050781.023438 12.214844 5.824219 26.085938 12.433594 7.722656-1.558594 15.3125-3.480468 22.753906-5.738281-9.359375-4.46875-22.847656-10.910156-42.390625-20.238281zm0 0" fill="#e5a876"/><path d="m113.722656 450.234375v-45.574219c0-4.140625-3.359375-7.5-7.5-7.5s-7.5 3.359375-7.5 7.5v45.574219c0 4.246094.335938 8.480469.980469 12.648437 6.140625 4.582032 12.503906 8.886719 19.066406 12.894532-3.304687-7.960938-5.046875-16.703125-5.046875-25.542969zm0 0" fill="#e5a876"/><path d="m128.453125 419.375c2.191406-3.515625 1.117187-8.140625-2.394531-10.332031-6.011719-3.75-11.507813-8.28125-16.332032-13.46875l-10.0625-10.8125c-2.824218-3.035157-7.570312-3.207031-10.601562-.382813-3.03125 2.820313-3.203125 7.566406-.382812 10.597656l10.0625 10.816407c5.726562 6.152343 12.246093 11.527343 19.375 15.976562 3.53125 2.203125 8.152343 1.105469 10.335937-2.394531zm0 0" fill="#e5a876"/><g fill="#f2ba88"><path d="m70.261719 279.757812c-17.75 12.257813-43.636719 39.199219-45.421875 92.683594 9.039062 18.582032 20.335937 35.859375 33.527344 51.488282-15.726563-77.425782 11.894531-144.167969 11.894531-144.171876zm0 0"/><path d="m151.835938 139.59375c-4.148438-11.503906-6.335938-23.949219-6.144532-36.925781.023438-1.425781.082032-2.84375.160156-4.257813l-1.523437-.625s-11.929687-14.210937-25.816406-17.960937c-2.433594-.65625-4.46875 1.855469-3.332031 4.109375 2.429687 4.8125 4.957031 12.546875 2.089843 20.722656-7.328125 20.90625-4.011719 52.839844 36.632813 44.015625zm0 0"/><path d="m378.066406 104.65625c-2.867187-8.179688-.339844-15.910156 2.089844-20.722656 1.136719-2.253906-.894531-4.769532-3.332031-4.113282-13.886719 3.75-25.816407 17.960938-25.816407 17.960938l-1.253906.519531c.109375 1.964844.171875 3.945313.171875 5.933594 0 12.414063-2.175781 24.316406-6.15625 35.355469l-2.082031 9.136718c40.410156 8.636719 43.691406-23.207031 36.378906-44.070312zm0 0"/></g><path d="m147.855469 125.414062c-19.050781 2.4375-28.488281-5.300781-31.996094-16.0625-5.238281 20.621094.339844 47.503907 38.042969 39.316407l-2.066406-9.078125c-1.652344-4.582032-2.976563-9.320313-3.980469-14.175782zm0 0" fill="#e5a876"/><path d="m347.738281 125.449219c-1 4.84375-2.320312 9.570312-3.96875 14.140625l-2.082031 9.136718c37.476562 8.011719 43.019531-18.796874 37.792969-39.371093-3.496094 10.710937-12.863281 18.433593-31.742188 16.09375zm0 0" fill="#e5a876"/><path d="m246.476562.0078125c-56.171874.6992185-102.070312 46.4921875-102.898437 102.6601565-.191406 12.976562 1.996094 25.417969 6.144531 36.921875l7.566406 33.214844 6.96875 7.179687c18.59375 14.699219 13.816407 31.691406 23.921876 44.058594.632812.773437.289062 1.929687-.671876 2.199219l-1.914062.535156c-.898438.253906-1.292969 1.3125-.761719 2.082031 3.105469 4.535156 13.21875 17.320313 29.019531 18.433594 1.003907.070312 1.589844 1.160156 1.089844 2.035156l-.9375 1.640625c-.515625.902344.121094 2.027344 1.164063 2.046875 5.902343.101563 23.789062-.558594 30.027343-9.949219.585938-.878906 1.550782-1.433594 2.605469-1.433594 1.058594 0 2.019531.554688 2.605469 1.433594 6.242188 9.390625 24.125 10.050782 30.03125 9.949219 1.042969-.019531 1.675781-1.144531 1.160156-2.046875l-.9375-1.640625c-.496094-.875.089844-1.964844 1.09375-2.035156 15.800782-1.113281 25.910156-16.011719 29.019532-20.546875.527343-.769532.136718-1.832032-.765626-2.082032l-1.910156-.535156c-.960937-.269531-1.304687-1.425781-.675781-2.199218 10.984375-13.4375 5.890625-27.683594 23.925781-41.945313l6.96875-7.179687 7.570313-33.214844c3.976562-11.039063 6.152343-22.941406 6.152343-35.355469 0-58.007813-47.386718-104.949219-105.5625-104.2265625zm0 0" fill="#fcd2a4"/><path d="m188.945312 143.925781c-23.453124-65.046875 22.113282-133.859375 89.773438-139.257812-10.167969-3.152344-21.003906-4.800781-32.242188-4.6601565-56.171874.6992185-102.070312 46.4921875-102.898437 102.6601565-.191406 12.976562 1.996094 25.421875 6.144531 36.925781l7.566406 33.210938 6.96875 7.179687c18.59375 14.703125 13.816407 31.691406 23.921876 44.0625.632812.769531.289062 1.925781-.671876 2.195313l-1.914062.535156c-.898438.253906-1.292969 1.3125-.761719 2.085937 2.832031 4.128907 11.480469 15.109375 24.945313 17.867188zm0 0" fill="#f7c696"/><path d="m313.757812 23.863281s-8.492187 26.96875 8.585938 51.324219c4.226562 6.03125 12.304688 8.027344 18.761719 4.480469 55.132812-30.289063 83.742187 64.507812 49.039062 104.097656-2.648437 3.023437 1.046875 7.371094 4.503907 5.324219 16.828124-9.976563 35.855468-29.15625 40.375-65.589844 8.707031-70.199219-58.996094-128.269531-121.265626-99.636719zm0 0" fill="#bc4c2e"/><path d="m181.542969 23.863281s8.488281 26.96875-8.585938 51.324219c-4.230469 6.03125-12.308593 8.027344-18.761719 4.480469-55.136718-30.289063-83.746093 64.507812-49.039062 104.097656 2.648438 3.023437-1.050781 7.371094-4.503906 5.324219-16.828125-9.976563-35.859375-29.15625-40.378906-65.589844-8.707032-70.199219 59-128.269531 121.269531-99.636719zm0 0" fill="#bc4c2e"/><path d="m363.539062 73.871094c40.148438 2.023437 55.726563 76.675781 26.605469 109.894531-2.648437 3.023437 1.046875 7.371094 4.503907 5.324219 29.5-17.488282 42.789062-50.425782 40.972656-83.25-28.226563-40.804688-72.082032-31.96875-72.082032-31.96875zm0 0" fill="#a0391e"/><path d="m131.75 73.871094c-40.152344 2.023437-55.730469 76.675781-26.605469 109.894531 2.648438 3.023437-1.046875 7.371094-4.503906 5.324219-16.828125-9.972656-35.859375-29.15625-40.375-65.589844-.746094-5.992188-.917969-11.890625-.597656-17.660156 28.226562-40.804688 72.082031-31.96875 72.082031-31.96875zm0 0" fill="#a0391e"/><path d="m224.109375 228.078125c-3.117187 0-6.070313-1.847656-7.335937-4.902344-1.671876-4.050781.257812-8.6875 4.304687-10.359375l14.144531-5.84375c1.695313-.699218 3.585938-.789062 5.34375-.253906l9.554688 2.921875c4.1875 1.277344 6.546875 5.714844 5.265625 9.902344s-5.714844 6.539062-9.902344 5.265625l-6.835937-2.089844-11.515626 4.757812c-.992187.410157-2.015624.601563-3.023437.601563zm0 0" fill="#f2ba88"/><path d="m271.496094 228.078125c-1.007813 0-2.03125-.191406-3.023438-.601563l-11.515625-4.757812-6.835937 2.089844c-4.1875 1.273437-8.621094-1.078125-9.902344-5.265625s1.078125-8.625 5.265625-9.902344l9.554687-2.921875c1.757813-.535156 3.648438-.445312 5.347657.253906l14.140625 5.84375c4.046875 1.671875 5.976562 6.308594 4.304687 10.359375-1.265625 3.054688-4.21875 4.902344-7.335937 4.902344zm0 0" fill="#f2ba88"/><path d="m263.585938 194.480469c-4.378907 0-7.929688-3.550781-7.929688-7.929688 0-2.71875-4.183594-5.816406-7.855469-5.816406-3.667969 0-7.851562 3.097656-7.851562 5.816406 0 4.378907-3.550781 7.929688-7.929688 7.929688-4.378906 0-7.929687-3.550781-7.929687-7.929688 0-10.253906 9.738281-21.679687 23.710937-21.679687 13.976563 0 23.714844 11.425781 23.714844 21.679687 0 4.378907-3.550781 7.929688-7.929687 7.929688zm0 0" fill="#f2ba88"/><path d="m268.773438 137.410156 43.117187-15.785156c3.882813-1.421875 7.675781 2.292969 6.335937 6.203125-4.84375 14.117187-18.070312 37.210937-50.230468 18.441406-3.59375-2.09375-3.128906-7.429687.777344-8.859375zm0 0" fill="#ff5252"/><path d="m338.316406 172.804688c-5.109375 4.929687-18.882812 11.238281-24.121094 29.75-1.871093 6.613281-4.746093 14.3125-8.886718 19.375-.628906.773437-.285156 1.929687.675781 2.199218l1.910156.535156c.902344.25 1.292969 1.3125.765625 2.082032-3.109375 4.535156-13.21875 17.320312-29.019531 18.433594-1.003906.070312-1.59375 1.160156-1.09375 2.03125l.9375 1.640624c.515625.90625-.121094 2.03125-1.160156 2.046876-5.90625.101562-21.675781-.558594-27.917969-9.945313-.582031-.878906-1.546875-1.433594-2.601562-1.433594-1.058594 0-2.023438.554688-2.605469 1.433594-6.242188 9.386719-22.011719 10.046875-27.917969 9.945313-1.039062-.015626-1.675781-1.140626-1.160156-2.046876l.9375-1.640624c.5-.871094-.089844-1.960938-1.09375-2.03125-15.800782-1.113282-24.851563-11.785157-27.960938-16.320313-.527344-.769531-.136718-1.828125.765625-2.082031l1.910157-.535156c.960937-.269532 1.304687-1.425782.675781-2.199219-4.144531-5.066407-8.082031-14.890625-9.949219-21.503907-5.230469-18.503906-19.007812-24.8125-24.117188-29.734374-2.582031 32.855468 2.097657 69.058593 4.136719 82.597656.3125 2.066406 2.964844 2.726562 4.214844 1.050781l.597656-.800781c1.128907-1.507813 3.488281-1.148438 4.105469.632812 4.988281 14.398438 15.074219 28.351563 19.132812 33.632813.898438 1.167969 2.636719 1.222656 3.621094.125l2.734375-3.066407c.785157-.882812 2.101563-1.035156 3.082031-.375 27.714844 18.617188 48.886719 19.632813 48.886719 19.632813s21.175781-1.015625 48.890625-19.632813c.980469-.660156 2.296875-.507812 3.085938.375l2.734375 3.066407c.980469 1.097656 2.71875 1.042969 3.621093-.125 4.058594-5.28125 14.140626-19.234375 19.132813-33.632813.617187-1.78125 2.972656-2.140625 4.101563-.632812l.597656.800781c1.253906 1.675781 3.902344 1.015625 4.214844-1.050781 2.042968-13.539063 6.722656-49.738282 4.136718-82.597656zm0 0" fill="#a0391e"/><path d="m226.832031 137.410156-43.117187-15.785156c-3.882813-1.421875-7.675782 2.292969-6.335938 6.203125 4.84375 14.117187 18.066406 37.210937 50.230469 18.441406 3.589844-2.09375 3.128906-7.429687-.777344-8.859375zm0 0" fill="#ff5252"/><path d="m239.871094 273.960938c-15.925782-15.925782 1.597656-29.082032 1.597656-29.082032-7.394531 5.652344-19.242188 6.105469-24.1875 6.019532-1.039062-.015626-1.675781-1.140626-1.160156-2.042969l.9375-1.644531c.5-.875-.089844-1.960938-1.09375-2.03125-15.800782-1.113282-24.851563-11.785157-27.960938-16.320313-.527344-.769531-.136718-1.828125.765625-2.082031l1.910157-.535156c.960937-.269532 1.304687-1.425782.675781-2.199219-4.144531-5.066407-8.082031-14.890625-9.949219-21.503907-5.230469-18.503906-19.007812-24.8125-24.117188-29.734374-2.582031 32.855468 2.097657 69.058593 4.136719 82.597656.3125 2.066406 2.964844 2.726562 4.214844 1.050781l.597656-.800781c1.128907-1.507813 3.488281-1.148438 4.105469.632812 4.988281 14.398438 15.074219 28.351563 19.132812 33.632813.898438 1.167969 2.636719 1.222656 3.621094.125l2.734375-3.066407c.785157-.878906 2.101563-1.035156 3.082031-.375 27.714844 18.617188 48.886719 19.632813 48.886719 19.632813-11.195312-11.195313 7.996094-16.347656-7.929687-32.273437zm0 0" fill="#84260d"/><path d="m227.609375 146.269531c3.589844-2.09375 3.128906-7.429687-.777344-8.859375l-21.589843-7.902344c-7.757813 5.507813-9.101563 16.359376-3.082032 23.574219 6.769532.917969 15.132813-.789062 25.449219-6.8125zm0 0" fill="#e53535"/><path d="m265.628906 141.226562c-.035156.378907-.046875.757813-.058594 1.140626.101563 1.523437.890626 3.007812 2.425782 3.90625 10.761718 6.277343 19.398437 7.867187 26.3125 6.679687 6-7.347656 4.425781-18.269531-3.4375-23.632813l-22.097656 8.089844c-1.820313.664063-2.882813 2.179688-3.144532 3.816406zm0 0" fill="#e53535"/><path d="m379.566406 23.777344c.382813 0 .761719.015625 1.140625.03125-20.328125-9.261719-44.003906-10.496094-66.949219.054687 0 0-8.492187 26.96875 8.585938 51.324219 4.230469 6.03125 12.304688 8.027344 18.761719 4.480469 5.816406-3.191407 13.894531-6.300781 22.730469-5.777344-22.015626-15.363281-11.171876-50.113281 15.730468-50.113281zm0 0" fill="#a0391e"/><path d="m115.730469 23.777344c-.382813 0-.761719.015625-1.136719.03125 20.324219-9.261719 44.003906-10.496094 66.945312.054687 0 0 8.492188 26.96875-8.585937 51.324219-4.226563 6.03125-12.304687 8.027344-18.757813 4.480469-5.816406-3.191407-13.898437-6.300781-22.730468-5.777344 22.011718-15.363281 11.171875-50.113281-15.734375-50.113281zm0 0" fill="#a0391e"/></svg>