<svg height="512pt" viewBox="-10 0 512 512.00027" width="512pt" xmlns="http://www.w3.org/2000/svg"><path d="m487.773438 243.886719c0 134.695312-109.191407 243.886719-243.886719 243.886719-134.695313 0-243.886719-109.191407-243.886719-243.886719 0-134.695313 109.191406-243.886719 243.886719-243.886719 134.695312 0 243.886719 109.191406 243.886719 243.886719zm0 0" fill="#603256"/><path d="m383.851562 142.699219v353.210937c0 12.511719-13.667968 20.222656-24.375 13.746094l-107.277343-64.867188c-5.109375-3.089843-11.511719-3.089843-16.625 0l-107.277344 64.867188c-10.703125 6.476562-24.375-1.234375-24.375-13.746094v-353.210937zm0 0" fill="#ffcb37"/><path d="m128.210938 196.726562h231.355468c10.402344 0 19.472656 5.6875 24.285156 14.117188v-68.144531h-279.929687v68.144531c4.816406-8.429688 13.882813-14.117188 24.289063-14.117188zm0 0" fill="#fcac1f"/><path d="m355.640625 142.699219v325.183593c0 2.851563-3.113281 4.605469-5.550781 3.132813l-83.292969-50.363281c-14.125-8.542969-31.6875-8.550782-45.820313 0l-83.292968 50.363281c-2.4375 1.472656-5.550782-.28125-5.550782-3.132813v-325.183593zm0 0" fill="#f44040"/><path d="m132.132812 142.699219h223.507813v54.027343h-223.507813zm0 0" fill="#e53535"/><path d="m47.058594 99.878906v39.164063c-7.546875 0-14.480469-2.613281-19.957032-6.980469 5.824219-11.269531 12.507813-22.023438 19.957032-32.183594zm0 0" fill="#ff941f"/><path d="m477.1875 92.882812h-11.863281c2.089843 4.257813 3.269531 9.042969 3.269531 14.105469s-1.179688 9.847657-3.269531 14.105469h11.863281c7.789062 0 14.105469-6.316406 14.105469-14.105469 0-7.789062-6.316407-14.105469-14.105469-14.105469zm0 0" fill="#ff941f"/><path d="m472.769531 106.988281c0-17.703125-14.351562-32.054687-32.054687-32.054687v64.109375c17.707031 0 32.054687-14.351563 32.054687-32.054688zm0 0" fill="#fcac1f"/><path d="m440.714844 107.933594v31.109375c17.707031 0 32.054687-14.351563 32.054687-32.054688 0-5.644531-1.464843-10.949219-4.027343-15.554687-5.472657 9.835937-15.96875 16.5-28.027344 16.5zm0 0" fill="#ff941f"/><path d="m60.117188 83.554688c2.277343-2.609376 4.605468-5.171876 6.988281-7.679688h353.5625c2.382812 2.507812 4.710937 5.070312 6.988281 7.679688v55.488281h-367.539062zm0 0" fill="#fcac1f"/><path d="m60.117188 107.460938h367.539062v31.582031h-367.539062zm0 0" fill="#ff941f"/><path d="m104.730469 69.085938h278.3125c4.511719 0 8.167969 3.652343 8.167969 8.164062v60.421875c0 4.507813-3.65625 8.164063-8.167969 8.164063h-278.3125c-4.507813 0-8.164063-3.65625-8.164063-8.164063v-60.421875c0-4.511719 3.65625-8.164062 8.164063-8.164062zm0 0" fill="#ff5252"/><path d="m383.042969 107.308594h-278.3125c-4.507813 0-8.164063-3.65625-8.164063-8.164063v38.527344c0 4.507813 3.65625 8.164063 8.164063 8.164063h278.3125c4.511719 0 8.167969-3.65625 8.167969-8.164063v-38.527344c0 4.507813-3.65625 8.164063-8.167969 8.164063zm0 0" fill="#f44040"/><path d="m60.117188 152.207031c-7.789063 0-14.101563-6.316406-14.101563-14.105469v-36.792968c8.078125-11.191406 17.085937-21.671875 26.90625-31.328125.828125 1.796875 1.304687 3.789062 1.304687 5.898437v62.222656c-.003906 7.789063-6.316406 14.105469-14.109374 14.105469zm0 0" fill="#ffcb37"/><path d="m427.65625 152.207031c-7.789062 0-14.105469-6.316406-14.105469-14.105469v-62.226562c0-7.789062 6.316407-14.105469 14.105469-14.105469s14.105469 6.316407 14.105469 14.105469v62.226562c0 7.789063-6.316407 14.105469-14.105469 14.105469zm0 0" fill="#ffcb37"/><g fill="#fcac1f"><path d="m60.117188 120.152344c-7.789063 0-14.101563-6.316406-14.101563-14.105469v32.054687c0 7.789063 6.3125 14.105469 14.101563 14.105469 7.792968 0 14.105468-6.316406 14.105468-14.105469v-32.054687c0 7.789063-6.3125 14.105469-14.105468 14.105469zm0 0"/><path d="m427.65625 120.152344c-7.789062 0-14.105469-6.316406-14.105469-14.105469v32.054687c0 7.789063 6.316407 14.105469 14.105469 14.105469s14.105469-6.316406 14.105469-14.105469v-32.054687c0 7.789063-6.316407 14.105469-14.105469 14.105469zm0 0"/></g></svg>