<svg height="512pt" viewBox="0 0 512 512" width="512pt" xmlns="http://www.w3.org/2000/svg"><path d="m512 256c0 141.386719-114.613281 256-256 256s-256-114.613281-256-256 114.613281-256 256-256 256 114.613281 256 256zm0 0" fill="#95d6fc"/><path d="m155.195312 142.300781c-10.550781-8.671875-17.007812-21.738281-16.824218-36.246093l.007812-.476563-.449218-.167969c-18.75-6.960937-40.851563-1.53125-54.007813 15.441406-15.980469 20.621094-12.191406 49.75 7.488281 65.828126l.304688.25.363281-.140626c23.378906-8.796874 41.144531 4.464844 41.6875 4.644532l-.320313-1.992188c-2.875-16.210937 4.832032-35.792968 21.671876-46.039062l.816406-.496094zm0 0" fill="#4b2fc1"/><path d="m307.128906 97.230469c-5.484375-43.265625-62.371094-56.980469-86.699218-20.191407l-.273438.414063.308594.386719c9.605468 11.957031 9.824218 24.382812 9.960937 24.917968l.808594-.285156c26.488281-9.265625 55.152344 7.203125 60.507813 34.648438l.238281 1.21875.898437-.859375c10.804688-10.371094 16.132813-25.414063 14.25-40.25zm0 0" fill="#6f42db"/><path d="m178.507812 59.589844c-41.253906 5.230468-56.144531 57.476562-24.175781 83.757812l.371094.304688.410156-.25c13.316407-8.101563 30.171875-9.058594 44.5625-1.851563l.875.4375.101563-.96875c3.273437-30.378906 30.953125-38.621093 31.089844-38.71875-2.679688-27.390625-27.074219-46.023437-53.234376-42.710937zm0 0" fill="#5e3ace"/><path d="m339.144531 287.574219-.410156-.808594-.660156.621094c-13.59375 12.820312-32.828125 15.675781-48.855469 9.199219l-1.019531-.414063.089843 1.09375c1.144532 14.324219-4.613281 28.589844-15.402343 38.160156l-.429688.523438.441407.507812c5.414062 4.996094 9.59375 11.285157 12.082031 18.183594l.125.34375.351562.085937c39.25 9.652344 71.890625-31.421874 53.6875-67.496093zm0 0" fill="#7d58ed"/><path d="m336.875 217.371094-.4375-.367188-.433594.371094c-14.4375 12.289062-35.339844 14.699219-52.457031 5.058594l-.988281-.558594c-.089844.355469 1.179687 22.414062-18.675782 37.164062l-.863281.640626.949219.503906c24.125 12.832031 24.238281 37.109375 24.386719 37.515625l.386719.15625c19.128906 7.714843 41.855468 2.324219 55.25-14.960938 15.777343-20.359375 12.375-49.265625-7.117188-65.523437zm0 0" fill="#764de4"/><path d="m345.007812 154.980469-.058593-.089844c-15.570313-22.078125-39.351563-20.070313-39.488281-20.105469v.003906c-7.472657.097657-11.394532 1.65625-13.730469 2.210938l.109375.597656c3.707031 20.101563-5.980469 39.929688-24.097656 49.332032l-.859376.449218c.273438.386719 16.121094 12.699219 15.652344 35.628906l-.007812.40625.351562.199219c43.816406 24.679688 90.957032-27.613281 62.128906-68.632812zm0 0" fill="#6f42db"/><path d="m293.597656 140.027344c-3.292968-25.96875-27.105468-44.414063-53.074218-41.125-21.90625 2.777344-38.855469 20.035156-41.222657 41.96875l-.046875.46875.417969.210937c23.507813 11.769531 25.089844 35.554688 25.191406 35.8125.300781.003907 23.175781-7.261719 42.746094 10.679688l.347656.324219.421875-.222657c17.574219-9.125 27.710938-28.464843 25.21875-48.117187zm0 0" fill="#764de4"/><path d="m382.265625 33.269531c-15.785156 4.117188-31.878906 12.4375-44.5625 28.171875 0 0-14.683594 22.96875-14.5625 49.632813.09375 20.289062 7.367187 43.859375 11.046875 54.496093.621094 1.800782 3.191406 1.71875 3.699219-.117187l2.789062-10.109375c.503907-1.828125 3.050781-1.921875 3.691407-.140625 4.136718 11.539063 15.851562 36.257813 43.613281 50.410156 1.292969.660157 2.835937-.285156 2.828125-1.738281l-.054688-11.601562c-.007812-1.503907 1.621094-2.445313 2.914063-1.679688 7.105469 4.203125 26.480469 13.746094 50.84375 9.976562 23.625-3.65625 47.523437 2.863282 63.882812 12.496094-13.023437-77.128906-60.53125-142.53125-126.128906-179.796875zm0 0" fill="#7cdd83"/><path d="m378.148438 143.441406c0-34.449218 22.980468-63.519531 54.441406-72.757812-15.128906-14.421875-32.019532-27.015625-50.320313-37.414063-15.785156 4.117188-31.882812 12.4375-44.566406 28.171875 0 0-14.683594 22.96875-14.5625 49.632813.09375 20.289062 7.367187 43.859375 11.046875 54.496093.625 1.800782 3.191406 1.71875 3.699219-.117187l2.792969-10.109375c.503906-1.828125 3.050781-1.921875 3.6875-.140625 4.136718 11.539063 15.851562 36.257813 43.613281 50.410156 1.292969.660157 2.835937-.285156 2.828125-1.738281l-.050782-11.601562c-.007812-1.503907 1.617188-2.445313 2.910157-1.679688.503906.296875 1.078125.625 1.703125.96875-10.761719-13.089844-17.222656-29.851562-17.222656-48.121094zm0 0" fill="#69d173"/><path d="m439.042969 157.449219c4.972656 2.644531 11.125.746093 13.757812-4.210938 2.636719-4.960937.75-11.121093-4.210937-13.757812-72.300782-38.402344-120.171875-104.808594-138.605469-133.757813-8.597656-1.847656-17.355469-3.265625-26.253906-4.222656 4.210937 7.78125 57.792969 104.152344 155.3125 155.949219zm0 0" fill="#55b160"/><path d="m379.125 151.703125c-4.15625 0-8.058594-2.566406-9.5625-6.699219-9.429688-25.933594-6.804688-47.957031-6.691406-48.882812.703125-5.574219 5.792968-9.519532 11.367187-8.824219 5.5625.699219 9.507813 5.769531 8.828125 11.332031-.039062.328125-2.027344 18.402344 5.617188 39.421875 1.921875 5.28125-.804688 11.117188-6.082032 13.039063-1.148437.417968-2.324218.613281-3.476562.613281zm0 0" fill="#55b160"/><path d="m396.535156 127.636719c-3.839844 0-7.523437-2.171875-9.246094-5.871094-2.359374-5.074219-.210937-11.085937 4.847657-13.476563.75-.355468 18.824219-8.730468 51.453125-8.878906h.050781c5.59375 0 10.144531 4.523438 10.171875 10.125.023438 5.617188-4.511719 10.195313-10.128906 10.222656-27.683594.125-42.753906 6.882813-42.90625 6.949219-1.375.628907-2.820313.929688-4.242188.929688zm0 0" fill="#55b160"/><path d="m226.105469 176.433594c-3.484375-25.71875-27.261719-43.988282-53.011719-40.71875-26.921875 3.414062-45.074219 28.558594-40.980469 54.0625l.113281.707031c.210938.207031 18.90625 10.160156 21.886719 33.65625l.121094 1.292969.871094-.40625c18.226562-8.453125 34.933593-1.785156 35.214843-1.75l-.007812-.949219c-.171875-21.542969 14.332031-40.105469 35.277344-45.140625l.597656-.144531zm0 0" fill="#6f42db"/><path d="m155.457031 223.96875c-3.300781-26.023438-27.039062-44.433594-53.070312-41.128906-46.679688 5.921875-56.972657 69.09375-14.898438 89.738281l.300781.148437c.230469-.054687 18.703126-10.546874 40-.761718.007813.089844.019532.171875.027344.257812l1.351563-.125c-.015625-.136718-.117188-1.171875-.105469-1.035156h-.003906c-1.789063-19.226562 8.585937-37.582031 26.066406-45.910156l.4375-.207032zm0 0" fill="#5e3ace"/><path d="m268.515625 187.035156c-11.511719-10.546875-27.566406-14.9375-43.242187-11.167968-21.5625 5.183593-36.496094 24.292968-36.316407 46.472656l.570313-.003906-.199219.613281c16.144531 5.300781 28.136719 19.234375 31.066406 35.855469l-.007812.003906c.082031.5.277343 1.675781.335937 2.171875l.675782-.082031.671874-.085938c-.03125-.25-.097656-.75-.175781-1.246094 12.667969-6.273437 28.359375-6.683594 42.074219.613282l.378906.203124.34375-.257812c23.816406-17.695312 25.914063-52.839844 3.824219-73.089844zm0 0" fill="#7d58ed"/><path d="m273.816406 335.460938-.449218-.414063-.460938.40625c-14.078125 12.472656-34.1875 15.015625-50.757812 6.921875l-1.101563-.539062c-.046875.378906 4.148437 22.894531-14.441406 40.074218l-.714844.660156.867187.441407c12.867188 6.578125 22.011719 18.996093 24.46875 33.214843l.078126.453126.449218.09375c17.359375 3.679687 35.882813-2.519532 47.382813-17.363282 15.503906-20.003906 12.285156-47.707031-5.320313-63.949218zm0 0" fill="#764de4"/><path d="m171.8125 468.042969c-17.046875-5.4375-29.515625-20.410157-31.765625-38.144531l-.164063-1.296876-.964843.878907c-14.199219 12.929687-34.757813 15.585937-51.625 7.144531l-.515625-.257812-.339844.46875c-7.019531 9.773437-10.054688 21.726562-8.542969 33.65625 3.039063 23.953124 23.527344 41.507812 47.070313 41.507812 24.835937 0 45.195312-19.277344 47.320312-43.25l.046875-.542969zm0 0" fill="#7d58ed"/><g fill="#6f42db"><path d="m289.445312 294.9375c-4.152343-32.765625-39.535156-51.148438-68.617187-36.355469l-.441406.226563c-.019531.136718 6.65625 31.117187-22.324219 47.898437l-1.023438.59375 1.027344.582031c12.789063 7.253907 21.179688 19.765626 23.027344 34.335938.019531.160156.035156.320312.050781.480469l.074219.730469.335938.164062c33.6875 16.457031 72.644531-11.164062 67.890624-48.65625zm0 0"/><path d="m232.898438 418.121094c-1.972657-15.578125-11.515626-29.15625-25.523438-36.316406l-.421875-.214844-.347656.320312c-14.210938 13.136719-34.953125 15.871094-51.941407 7.335938l-1.125-.566406.148438 1.253906c1.75 14.746094-3.773438 29.53125-14.769531 39.546875l-.261719.238281.042969.347656c1.597656 12.582032 7.996093 23.785156 18.019531 31.554688 20.699219 16.039062 50.5 12.34375 66.609375-8.445313 7.769531-10.023437 11.167969-22.472656 9.570313-35.054687zm0 0"/><path d="m129.375 344.195312c1.910156-23.203124 19.832031-34.394531 22.503906-35.921874l.019532.011718.882812-.515625-.351562-1.050781-.445313.054688c-12.832031-7.390626-21.378906-20.578126-22.882813-35.332032l-.039062-.378906-.347656-.164062c-8.140625-3.820313-17.160156-5.238282-26.097656-4.109376-12.582032 1.597657-23.789063 7.996094-31.554688 18.019532-7.769531 10.023437-11.167969 22.472656-9.574219 35.050781 3.203125 25.242187 23.46875 35.109375 23.722657 35.34375.359374-.15625 7.117187-4.355469 16.886718-5.597656 9.128906-1.160157 18.28125.40625 26.472656 4.523437l1.125.566406-.144531-1.25c-.371093-3.167968-.425781-6.105468-.175781-9.25zm0 0"/></g><path d="m222.070312 260.8125c-3.292968-25.984375-26.980468-44.421875-53.074218-41.128906-20.570313 2.609375-36.46875 17.488281-40.503906 37.902344-6.9375 35.109374 23.285156 50.5625 23.40625 50.699218.136718-.039062 22.433593-13.878906 46.179687-.394531l.339844.191406.335937-.195312c16.570313-9.597657 25.726563-28.078125 23.316406-47.074219zm0 0" fill="#764de4"/><path d="m155.035156 389.773438-.042968-.363282-.324219-.160156c-13.875-6.972656-23.265625-20.359375-25.121094-35.804688l-.042969-.363281-.324218-.160156c-19.78125-9.945313-44.578126-5.007813-58.8125 13.355469-7.765626 10.027344-11.164063 22.472656-9.570313 35.054687 3.296875 25.988281 27.117187 44.421875 53.070313 41.128907 25.761718-3.265626 44.230468-26.902344 41.167968-52.6875zm0 0" fill="#764de4"/><path d="m222.4375 342.046875c-3.296875-26.027344-27.027344-44.421875-53.070312-41.128906-26.03125 3.300781-44.429688 27.039062-41.128907 53.070312 1.597657 12.582031 7.996094 23.789063 18.019531 31.558594 33.40625 25.886719 81.46875-1.808594 76.179688-43.5zm0 0" fill="#7d58ed"/><path d="m345.4375 53.679688c-16.21875-19.148438-28.152344-36.492188-35.453125-47.957032-8.597656-1.847656-17.355469-3.265625-26.253906-4.222656 2.238281 4.132812 18.414062 33.285156 47.71875 67.46875-2.070313-8.609375 5.167969-16.59375 13.988281-15.289062zm0 0" fill="#49a552"/><path d="m275.703125.746094c2.632813 21.554687.664063 41.601562-1.628906 55.222656-4.847657 18.558594-12.164063 37.871094-22.875 57.203125-2.722657 4.917969-.945313 11.105469 3.96875 13.832031 4.929687 2.726563 11.113281.929688 13.828125-3.96875 23.191406-41.855468 31.667968-83.585937 33.414062-118.828125-8.757812-1.601562-17.664062-2.769531-26.707031-3.460937zm0 0" fill="#69d173"/><path d="m266.894531 207.617188c0 5.601562-4.539062 10.140624-10.140625 10.140624-5.601562 0-10.140625-4.539062-10.140625-10.140624 0-5.601563 4.539063-10.140626 10.140625-10.140626 5.601563 0 10.140625 4.539063 10.140625 10.140626zm0 0" fill="#8267f4"/><path d="m185.492188 347.882812c0 5.601563-4.542969 10.140626-10.144532 10.140626-5.601562 0-10.140625-4.539063-10.140625-10.140626 0-5.601562 4.539063-10.144531 10.140625-10.144531 5.601563 0 10.144532 4.542969 10.144532 10.144531zm0 0" fill="#8267f4"/><path d="m202.109375 337.738281c0 2.800781-2.273437 5.074219-5.074219 5.074219-2.796875 0-5.070312-2.273438-5.070312-5.074219s2.273437-5.070312 5.070312-5.070312c2.800782 0 5.074219 2.269531 5.074219 5.070312zm0 0" fill="#8267f4"/><path d="m273.699219 57.355469c7.976562-3.820313 17.261719 1.351562 18.332031 10.023437 6.398438-22.320312 9.414062-43.734375 10.378906-63.171875-8.753906-1.605469-17.664062-2.773437-26.707031-3.460937 2.585937 21.179687.53125 47.121094-2.003906 56.609375zm0 0" fill="#55b160"/></svg>