<svg height="512pt" viewBox="-10 0 512 512" width="512pt" xmlns="http://www.w3.org/2000/svg"><path d="m491.253906 266.375c0 135.65625-109.972656 245.625-245.628906 245.625s-245.625-109.96875-245.625-245.625 109.96875-245.628906 245.625-245.628906 245.628906 109.972656 245.628906 245.628906zm0 0" fill="#a0391e"/><path d="m120.265625 21.96875c5.472656 0 10.597656 1.464844 15.023437 4.007812v-10.957031c0-8.292969-6.726562-15.019531-15.023437-15.019531-8.292969 0-15.019531 6.726562-15.019531 15.019531v10.957031c4.425781-2.546874 9.550781-4.007812 15.019531-4.007812zm0 0" fill="#ff941f"/><path d="m143.65625 69.980469c4.238281-5.199219 6.785156-11.832031 6.785156-19.058594 0-16.664063-13.507812-30.171875-30.171875-30.171875-16.664062 0-30.171875 13.507812-30.171875 30.171875 0 7.226563 2.542969 13.859375 6.78125 19.058594zm0 0" fill="#ffcb37"/><path d="m121.121094 63.859375c-11.480469-12.078125-11-31.175781 1.078125-42.65625.132812-.125.273437-.234375.40625-.355469-.773438-.058594-1.550781-.097656-2.339844-.097656-16.664063 0-30.171875 13.507812-30.171875 30.171875 0 7.226563 2.546875 13.859375 6.785156 19.058594h32.457032c-2.988282-1.515625-5.777344-3.554688-8.214844-6.121094zm0 0" fill="#fcac1f"/><g fill="#ebeaec"><path d="m318.15625 345.109375c-5.046875 0-9.140625-4.09375-9.140625-9.140625v-196.875c0-5.050781 4.09375-9.140625 9.140625-9.140625 5.050781 0 9.144531 4.089844 9.144531 9.140625v196.875c0 5.046875-4.09375 9.140625-9.144531 9.140625zm0 0"/><path d="m361.980469 279.144531c-5.046875 0-9.140625-4.09375-9.140625-9.140625v-128.066406c0-5.046875 4.09375-9.140625 9.140625-9.140625 5.050781 0 9.140625 4.09375 9.140625 9.140625v128.066406c0 5.046875-4.089844 9.140625-9.140625 9.140625zm0 0"/><path d="m274.335938 411.054688c-5.050782 0-9.140626-4.089844-9.140626-9.140626v-249.335937c0-5.046875 4.089844-9.140625 9.140626-9.140625 5.046874 0 9.140624 4.09375 9.140624 9.140625v249.335937c0 5.050782-4.09375 9.140626-9.140624 9.140626zm0 0"/><path d="m230.511719 477c-5.046875 0-9.140625-4.089844-9.140625-9.140625v-309.414063c0-5.046874 4.09375-9.140624 9.140625-9.140624s9.140625 4.09375 9.140625 9.140624v309.414063c0 5.050781-4.09375 9.140625-9.140625 9.140625zm0 0"/></g><path d="m318.15625 273.773438c-5.046875 0-9.140625-4.089844-9.140625-9.140626v71.335938c0 5.046875 4.09375 9.140625 9.140625 9.140625 5.050781 0 9.144531-4.09375 9.144531-9.140625v-71.335938c0 5.050782-4.09375 9.140626-9.144531 9.140626zm0 0" fill="#ccccce"/><path d="m361.980469 207.808594c-5.046875 0-9.140625-4.089844-9.140625-9.140625v71.335937c0 5.046875 4.09375 9.140625 9.140625 9.140625 5.050781 0 9.140625-4.09375 9.140625-9.140625v-71.335937c0 5.050781-4.089844 9.140625-9.140625 9.140625zm0 0" fill="#ccccce"/><path d="m274.335938 339.722656c-5.050782 0-9.140626-4.09375-9.140626-9.140625v71.332031c0 5.050782 4.089844 9.140626 9.140626 9.140626 5.046874 0 9.140624-4.089844 9.140624-9.140626v-71.332031c0 5.046875-4.09375 9.140625-9.140624 9.140625zm0 0" fill="#ccccce"/><path d="m230.511719 405.667969c-5.046875 0-9.140625-4.09375-9.140625-9.140625v71.332031c0 5.050781 4.09375 9.140625 9.140625 9.140625s9.140625-4.089844 9.140625-9.140625v-71.332031c0 5.046875-4.09375 9.140625-9.140625 9.140625zm0 0" fill="#ccccce"/><path d="m186.6875 135.941406c-5.046875 0-9.140625 4.089844-9.140625 9.140625v357.351563c6.003906 1.726562 12.097656 3.238281 18.28125 4.511718v-361.863281c0-5.050781-4.089844-9.140625-9.140625-9.140625zm0 0" fill="#ebeaec"/><path d="m195.828125 435.074219c-.835937 4.285156-4.609375 7.519531-9.140625 7.519531s-8.300781-3.234375-9.140625-7.519531v67.359375c6.003906 1.726562 12.097656 3.238281 18.28125 4.511718zm0 0" fill="#ccccce"/><path d="m416.347656 170.753906-223.03125 335.644532c20.800782 4.511718 42.375 6.382812 64.5 5.296874l178.183594-333.90625zm0 0" fill="#ff941f"/><path d="m448.199219 143.636719-81.105469-29.042969c-18.515625-6.632812-39.0625-7.097656-57.859375-1.3125l-53.875 16.578125c-11.199219 3.445313-23.394531 3.039063-34.339844-1.148437l-78.15625-29.910157v41.695313l64.238281 24.582031c19.03125 7.285156 40.238282 7.992187 59.714844 2l53.875-16.578125c10.808594-3.328125 22.625-3.058594 33.273438.753906l81.101562 29.042969c10.136719 3.632813 21.277344-1.660156 24.898438-11.765625 3.625-10.121094-1.644532-21.269531-11.765625-24.894531zm0 0" fill="#fcac1f"/><path d="m271.554688 124.878906-16.191407 4.980469c-11.203125 3.449219-23.398437 3.039063-34.34375-1.148437l-78.15625-29.910157v41.699219l64.238281 24.582031c19.03125 7.28125 40.238282 7.992188 59.714844 1.996094l16.632813-5.117187c-18.453125-1.777344-25.894531-24.835938-11.894531-37.082032zm0 0" fill="#ff941f"/><path d="m440.4375 170.753906c-5.121094 0-9.152344-4.207031-9.152344-9.144531 0-5.746094 5.261719-10.082031 10.929688-8.96875 4.394531.914063 7.351562 4.695313 7.351562 8.96875 0 5.179687-4.242187 9.144531-9.128906 9.144531zm0 0" fill="#ff941f"/><path d="m95.230469 460.570312c15.347656 11.902344 32.136719 22.03125 50.070312 30.066407v-397.929688h-50.070312zm0 0" fill="#ffcb37"/><path d="m95.230469 460.570312c15.347656 11.902344 32.136719 22.03125 50.070312 30.066407v-397.929688h-50.070312zm0 0" fill="#ffcb37"/><path d="m120.519531 387.269531h-.503906c-11.683594 0-21.554687-7.738281-24.78125-18.367187v91.667968c15.34375 11.902344 32.132813 22.03125 50.070313 30.066407v-121.734375c-3.230469 10.628906-13.101563 18.367187-24.785157 18.367187zm0 0" fill="#fcac1f"/><path d="m145.300781 98.800781h-50.070312c-8.292969 0-15.019531-6.722656-15.019531-15.019531s6.726562-15.019531 15.019531-15.019531h50.070312c8.296875 0 15.023438 6.722656 15.023438 15.019531s-6.726563 15.019531-15.023438 15.019531zm0 0" fill="#fcac1f"/><path d="m116.628906 83.78125c0-8.296875 6.726563-15.019531 15.023438-15.019531h-36.421875c-8.292969 0-15.019531 6.722656-15.019531 15.019531s6.726562 15.019531 15.019531 15.019531h36.421875c-8.296875 0-15.023438-6.722656-15.023438-15.019531zm0 0" fill="#ff941f"/><path d="m282.875 371.621094-89.558594 134.777344c20.761719 4.503906 42.332032 6.382812 64.5 5.296874l61.289063-114.847656c-17.625 14.765625-44.085938-3.207031-36.230469-25.226562zm0 0" fill="#ff7b22"/></svg>