<svg height="511pt" viewBox="-11 0 511 511.99981" width="511pt" xmlns="http://www.w3.org/2000/svg"><path d="m257.722656 46.707031c-128.484375-.742187-233.246094 102.808594-233.992187 231.292969-.742188 128.488281 102.808593 233.246094 231.292969 233.992188 128.484374.746093 233.246093-102.808594 233.992187-231.292969s-102.808594-233.246094-231.292969-233.992188zm0 0" fill="#ff941f"/><path d="m465.582031 177.527344-348.191406-.4375c-7.71875-.011719-14.039063 6.296875-14.050781 14.015625l-.042969 21.050781 375.996094.472656c-3.632813-12.144531-8.234375-23.875-13.710938-35.101562zm0 0" fill="#fff"/><path d="m363.832031 190.714844c.007813-5.523438 2.839844-10.417969 7.121094-13.304688l-253.5625-.320312c-7.71875-.011719-14.042969 6.296875-14.050781 14.015625l-.042969 21.050781 260.492187.328125zm0 0" fill="#ebeaec"/><path d="m484.863281 240.902344c.328125 0 .644531-.03125.96875-.050782-1.808593-10.847656-4.371093-21.441406-7.625-31.730468l-463.46875-.585938c-12.703125-.015625-19.027343 15.386719-9.976562 24.300782 46.9375 46.238281 110.160156 72.191406 176.046875 72.277343 32.683594.039063 59.144531 26.566407 59.105468 59.25l-.003906 2.425781c-.042968 34.875-28.347656 63.109376-63.222656 63.0625-5.5-.003906-9.964844 4.449219-9.972656 9.949219l-.058594 34.089844 216.902344.273437c19.46875-12.738281 36.925781-28.308593 51.761718-46.148437-32.054687-7.972656-55.796874-36.957031-55.753906-71.472656l.011719-10.625c.078125-58.070313 47.214844-105.089844 105.285156-105.015625zm0 0" fill="#dad9dd"/><path d="m379.570312 356.601562c-12.96875 28.796876-41.976562 48.777344-75.59375 48.582032-26.203124-.152344-49.457031-12.539063-64.429687-31.695313-3.386719 31.71875-30.246094 56.40625-62.859375 56.367188-5.5-.007813-9.964844 4.445312-9.972656 9.949219l-.058594 34.089843 216.902344.269531c19.472656-12.738281 36.925781-28.308593 51.761718-46.144531-32.039062-7.972656-55.769531-36.925781-55.75-71.417969zm0 0" fill="#ccccce"/><path d="m121.765625 469.113281c37.636719 26.746094 83.578125 42.59375 133.253906 42.882813 49.675781.289062 95.800781-15.023438 133.742188-41.332032zm0 0" fill="#dad9dd"/><path d="m284.449219 470.058594-162.683594-.945313c37.636719 26.746094 83.578125 42.59375 133.253906 42.882813 8.789063.050781 17.464844-.398438 26.003907-1.296875-17.035157-7.875-15.378907-35.429688 3.425781-40.640625zm0 0" fill="#bcbcc1"/><path d="m429.664062 406.96875c-2.160156-4.335938-7.429687-6.09375-11.765624-3.9375-.722657.363281-1.378907.808594-1.953126 1.328125-.589843-.542969-1.265624-1.015625-2.015624-1.394531-4.332032-2.171875-9.601563-.417969-11.773438 3.910156l-21.308594 42.480469c-4.480468 8.929687-5.332031 18.941406-2.671875 28.226562 5.503907-3.390625 10.863281-6.992187 16.050781-10.8125.019532-3.253906.78125-6.515625 2.300782-9.550781l19.351562-38.578125 9.992188 20.042969c4.335937-4.609375 8.496094-9.390625 12.449218-14.347656zm0 0" fill="#bc4c2e"/><path d="m258.851562 168.902344 134.390626 233.449218c7.25 12.59375 23.335937 16.925782 35.933593 9.675782 12.59375-7.25 16.929688-23.339844 9.675781-35.933594l-134.390624-233.449219zm0 0" fill="#7c5577"/><path d="m319.1875 220.96875c10.652344-6.132812 23.679688-4.382812 32.339844 3.429688l-47.066406-81.753907-45.609376 26.253907 47.0625 81.753906c-2.402343-11.410156 2.621094-23.550782 13.273438-29.683594zm0 0" fill="#4f2649"/><path d="m279.03125 203.925781 45.613281-26.257812 102.621094 178.277343-45.609375 26.253907zm0 0" fill="#684261"/><g fill="#603256"><path d="m279.019531 203.914062 26.890625 46.714844c-2.390625-11.402344 2.632813-23.53125 13.277344-29.660156 10.65625-6.132812 23.679688-4.382812 32.339844 3.429688l-26.90625-46.734376zm0 0"/><path d="m416.457031 398.796875c-4.785156-.027344-8.75-3.941406-8.722656-8.820313.03125-5.515624 5.164063-9.675781 10.539063-8.535156 4.007812.773438 7.027343 4.410156 7.003906 8.636719-.027344 4.777344-3.902344 8.746094-8.820313 8.71875zm0 0"/><path d="m305.621094 142.640625-47.351563 27.257813c-7.558593 4.351562-17.328125 1.550781-21.820312-6.253907-4.492188-7.804687-2.007813-17.65625 5.550781-22.003906l47.351562-27.261719c7.554688-4.347656 17.324219-1.550781 21.816407 6.253906 4.492187 7.804688 2.007812 17.660157-5.546875 22.007813zm0 0"/></g><path d="m324.113281.00390625-45.332031 1.16015575c-1.9375.050782-3.828125.582032-5.503906 1.546876l-122.839844 70.714843c-4.039062 2.324219-5.425781 7.484375-3.101562 11.519531l44.097656 76.597657c2.324218 4.039062 7.480468 5.425781 11.515625 3.101562l122.839843-70.714843c1.675782-.964844 3.085938-2.332032 4.101563-3.980469l23.769531-38.617188c2.238282-3.632812 2.304688-8.199219.175782-11.898437l-19.347657-33.605469c-2.128906-3.699219-6.113281-5.933594-10.375-5.82421875zm0 0" fill="#ebeaec"/><path d="m260.921875 123.652344-45.921875-79.773438c-1.316406-2.28125-1.480469-4.910156-.691406-7.222656l-63.871094 36.769531c-4.039062 2.324219-5.425781 7.484375-3.101562 11.519531l44.097656 76.597657c2.324218 4.039062 7.480468 5.425781 11.515625 3.101562l63.871093-36.765625c-2.394531-.480468-4.582031-1.941406-5.898437-4.226562zm0 0" fill="#dad9dd"/><path d="m160.214844 107.304688 174.785156-100.613282 18.355469 31.886719-174.785157 100.613281zm0 0" fill="#dad9dd"/><path d="m160.214844 107.304688 68.578125-39.476563 18.355469 31.886719-68.578126 39.480468zm0 0" fill="#ccccce"/><path d="m391.054688 429.003906-10.207032 20.355469c-4.480468 8.929687-5.332031 18.9375-2.671875 28.222656 5.503907-3.386719 10.863281-6.988281 16.050781-10.8125.019532-3.25.78125-6.511719 2.300782-9.546875l9.191406-18.320312c-7.019531 4.160156-15.914062-1.644532-14.664062-9.898438zm0 0" fill="#a0391e"/></svg>