<svg height="512pt" viewBox="0 -13 512.00033 512" width="512pt" xmlns="http://www.w3.org/2000/svg"><path d="m512 243.492188c0 134.476562-109.015625 243.492187-243.492188 243.492187-134.476562 0-243.492187-109.015625-243.492187-243.492187 0-134.476563 109.015625-243.492188 243.492187-243.492188 134.476563 0 243.492188 109.015625 243.492188 243.492188zm0 0" fill="#69d173"/><path d="m82.703125 372.824219c-8.324219 1.3125-16.734375 1.734375-25.09375 1.277343h-.003906s18.265625 25.085938 36.363281 33.058594c.644531.285156 1.304688-.375 1.011719-1.019531-2.195313-4.835937-8.339844-18.917969-12.277344-33.316406zm0 0" fill="#dad9dd"/><path d="m85.917969 383.253906c-1.144531-3.367187-2.246094-6.886718-3.214844-10.429687-8.324219 1.3125-16.734375 1.734375-25.09375 1.277343h-.003906s5.550781 7.617188 13.554687 15.785157c-1.828125-8.679688 9.5-13.730469 14.757813-6.632813zm0 0" fill="#ccccce"/><path d="m125.101562 394.914062c-.683593-.167968-1.207031.601563-.808593 1.183594 5.460937 7.96875 14.933593 15.214844 23.203125 20.550782 3.148437-1.246094 5.546875-4.046876 6.160156-7.550782l1.527344-8.746094c-13.144532-1.46875-25.496094-4.3125-30.082032-5.4375zm0 0" fill="#dad9dd"/><path d="m143.957031 398.769531c1.734375 4.824219-1.257812 9.996094-6.238281 10.941407 3.238281 2.550781 6.597656 4.886718 9.777344 6.9375 7.585937-3 6.230468-11.472657 7.6875-16.296876-3.875-.433593-7.671875-.988281-11.226563-1.582031zm0 0" fill="#ccccce"/><path d="m137.324219 376.761719c-1.4375-3.160157-4.558594-10.277344-7.652344-18.847657l-13.671875 5.074219c6.046875 5.863281 13.1875 11.648438 20.304688 14.785157.648437.28125 1.308593-.371094 1.019531-1.011719zm0 0" fill="#dad9dd"/><path d="m132.1875 364.585938c-.816406-2.082032-1.667969-4.320313-2.515625-6.671876l-13.671875 5.074219c2.550781 2.472657 5.300781 4.933594 8.15625 7.183594.042969-4.101563 4.117188-6.996094 8.03125-5.585937zm0 0" fill="#ccccce"/><path d="m161.332031 128.753906c2.40625 6.261719 2.257813 13.050782-.125 19.035156l28.414063-23.550781c7.984375-6.617187 11.171875-17.414062 8.0625-27.3125l-5.019532-15.984375c-12.644531-9.070312-27.324218-18.257812-43.214843-25.710937-7.222657-3.386719-14.902344 3.75-12.042969 11.199219zm0 0" fill="#4b68d1"/><path d="m197.683594 96.925781-5.019532-15.984375c-3.5625-2.558594-7.304687-5.121094-11.171874-7.652344.605468 2.328126.929687 4.769532.929687 7.285157 0 15.820312-12.738281 28.65625-28.515625 28.828125l7.429688 19.351562c2.402343 6.261719 2.253906 13.050782-.125 19.035156l28.410156-23.550781c7.984375-6.621093 11.171875-17.414062 8.0625-27.3125zm0 0" fill="#3752a0"/><path d="m458.78125 91.566406c-11.65625-1.039062-25.386719-1.265625-40.625.308594-1.160156.121094-1.875-1.230469-1.113281-2.109375l12.578125-14.460937c.765625-.882813.046875-2.246094-1.113282-2.113282l-146.921874 16.921875c-6.792969.78125-13.546876-1.703125-18.195313-6.714843-12.476563-13.449219-40.316406-40.984376-74.972656-59.953126-6.835938-3.742187-14.753907 2.753907-12.417969 10.1875l19.546875 62.222657c3.109375 9.898437-.082031 20.691406-8.066406 27.3125l-55.847657 46.296875c-10.722656 8.886718-18.261718 21.015625-21.488281 34.5625l-7.351562 30.890625c-2.976563 12.496093-9.628907 23.808593-19.101563 32.484375l-79.640625 72.929687c-6.289062 5.757813-5.074219 15.988281 2.382813 20.117188 30.394531 16.824219 66.613281 19.550781 99.183594 7.460937l52.007812-19.300781c2.617188-.972656 5.300781 1.261719 4.820312 4.011719l-9.859374 56.476562c-.835938 4.769532-4.980469 8.253906-9.824219 8.253906-2.667969 0-3.625 3.523438-1.324219 4.871094l12.28125 7.199219c6.433594 3.773437 14.695312 1.453125 18.238281-5.109375 11.96875-22.191406 39.792969-67.113281 69.742188-68.835938.871093-.050781 1.464843-.894531 1.164062-1.714843l-3.3125-9.117188c-.296875-.8125.273438-1.679687 1.136719-1.71875 9.1875-.40625 52.929688.261719 76.347656 47.242188.609375 1.21875 2.433594.808593 2.433594-.554688v-23.214843c0-1.003907 1.097656-1.617188 1.957031-1.089844 8.527344 5.230468 43.296875 28.476562 70.535157 74.90625.660156 1.121094 2.386718.640625 2.386718-.664063v-26.089843c0-1.109376 1.3125-1.703126 2.132813-.953126 3.769531 3.417969 12.191406 11.277344 22.621093 22.328126 56.574219-44.585938 92.898438-113.722657 92.898438-191.34375 0-57.46875-19.921875-110.277344-53.21875-151.925782zm0 0" fill="#5e73dd"/><path d="m383.546875 311.90625c-151.207031-114.5-6.125-138.832031-52.863281-170.691406-46.738282-31.863282 23.988281-59.519532 23.988281-59.519532l-73.085937 8.417969c-6.792969.78125-13.546876-1.703125-18.195313-6.714843-12.476563-13.449219-40.316406-40.984376-74.96875-59.953126-6.835937-3.742187-14.757813 2.753907-12.421875 10.1875l19.546875 62.222657c3.109375 9.898437-.078125 20.691406-8.066406 27.3125l-55.847657 46.292969c-10.71875 8.886718-18.261718 21.019531-21.488281 34.566406l-7.351562 30.890625c-2.976563 12.492187-9.628907 23.808593-19.101563 32.484375l-79.640625 72.929687c-6.289062 5.757813-5.074219 15.988281 2.382813 20.117188 30.394531 16.824219 66.613281 19.550781 99.183594 7.460937l52.007812-19.300781c2.617188-.972656 5.300781 1.261719 4.820312 4.011719l-9.859374 56.476562c-.835938 4.769532-4.980469 8.253906-9.824219 8.253906-2.667969 0-3.625 3.523438-1.324219 4.871094l12.28125 7.199219c6.433594 3.773437 14.695312 1.453125 18.238281-5.109375 11.96875-22.191406 39.792969-67.113281 69.742188-68.835938.871093-.050781 1.464843-.894531 1.164062-1.714843l-3.3125-9.117188c-.296875-.8125.273438-1.679687 1.136719-1.71875 9.1875-.40625 52.929688.261719 76.347656 47.242188.609375 1.21875 2.433594.808593 2.433594-.554688v-23.214843c0-1.003907 1.097656-1.617188 1.957031-1.089844 8.527344 5.230468 43.296875 28.476562 70.535157 74.90625.660156 1.121094 2.386718.640625 2.386718-.664063v-26.089843c0-1.109376 1.3125-1.703126 2.132813-.953126 3.648437 3.3125 11.667969 10.796876 21.644531 21.300782 25.414062-32.167969 28.902344-73.832032-34.578125-121.902344zm0 0" fill="#4b68d1"/><path d="m469.167969 334.917969c-1.003907-.472657-2.082031.476562-1.757813 1.539062l7.683594 24.9375c.382812 1.246094-1.125 2.214844-2.085938 1.332031-39.703124-36.347656-79.769531-48.328124-89.460937-50.820312-.972656-.25-1.839844.660156-1.546875 1.621094l6.835938 22.1875c.398437 1.300781-1.226563 2.230468-2.167969 1.246094-19.753907-20.730469-41.226563-26.511719-58.074219-26.980469-15.121094-.421875-26.328125 3.851562-32.566406 5.230469-19.625 5.117187-37.835938 14.582031-53.304688 27.667968 12.367188-.105468 52.308594 3.148438 74.3125 47.292969.609375 1.21875 2.4375.804687 2.4375-.554687v-23.214844c0-1.003906 1.097656-1.617188 1.953125-1.09375 8.527344 5.234375 43.296875 28.480468 70.535157 74.90625.660156 1.125 2.386718.644531 2.386718-.660156v-26.089844c0-1.113282 1.3125-1.703125 2.136719-.953125 3.765625 3.417969 12.1875 11.277343 22.617187 22.324219 30.066407-23.691407 54.398438-54.324219 70.613282-89.472657-9.53125-5.171875-16.875-8.726562-20.546875-10.445312zm0 0" fill="#7a93ed"/><path d="m158.289062 249.730469c-2.167968 0-4.265624-1.03125-5.578124-2.871094-1.769532-2.472656-1.695313-5.820313.179687-8.214844l38.371094-48.972656c2.023437-2.578125 5.585937-3.367187 8.507812-1.882813 2.917969 1.488282 4.378907 4.832032 3.484375 7.984376l-11.222656 39.535156c-.613281 2.152344-2.234375 3.871094-4.347656 4.605468l-27.144532 9.4375c-.738281.257813-1.496093.378907-2.25.378907zm0 0" fill="#3752a0"/><path d="m6.433594 360.449219c12.390625 6.859375 25.75 11.332031 39.433594 13.453125 2.675781-6.125 4.167968-12.882813 4.167968-19.992188 0-15.652344-7.191406-29.621094-18.445312-38.796875l-27.539063 25.21875c-6.289062 5.757813-5.074219 15.988281 2.382813 20.117188zm0 0" fill="#3752a0"/><path d="m174.886719 214.753906c-1.230469 0-2.429688.140625-3.585938.390625l-13.160156 16.800781c.167969 6.601563 4.140625 12.246094 9.816406 14.828126l19.730469-6.859376c.945312-.332031 1.785156-.867187 2.488281-1.539062.941407-2.097656 1.472657-4.410156 1.472657-6.855469 0-9.261719-7.503907-16.765625-16.761719-16.765625zm0 0" fill="#304987"/><path d="m158.140625 231.945312-5.25 6.699219c-1.875 2.398438-1.949219 5.742188-.179687 8.214844 1.3125 1.839844 3.410156 2.875 5.582031 2.875.75 0 1.511719-.125 2.25-.382813l7.414062-2.578124c-5.675781-2.582032-9.648437-8.226563-9.816406-14.828126zm0 0" fill="#ebeaec"/><path d="m317.039062 390.171875c.605469 1.21875 2.433594.804687 2.433594-.558594v-23.214843c0-1.003907 1.097656-1.617188 1.953125-1.089844 8.53125 5.230468 43.296875 28.476562 70.535157 74.90625.660156 1.125 2.386718.640625 2.386718-.660156v-26.089844c0-1.113282 1.3125-1.703125 2.136719-.957032 3.765625 3.417969 12.1875 11.28125 22.621094 22.328126 12.246093-9.652344 23.523437-20.476563 33.707031-32.269532l-54.472656-43.394531c-1.269532-1.007813-3.121094.070313-2.863282 1.671875l2.574219 16.144531c.25 1.582031-1.554687 2.660157-2.828125 1.691407-84.0625-63.816407-152.5-35.804688-152.5-35.804688 12.367188-.105469 52.308594 3.148438 74.316406 47.296875zm0 0" fill="#6c83e5"/></svg>