<svg height="512pt" viewBox="-14 0 512 512.00125" width="512pt" xmlns="http://www.w3.org/2000/svg"><path d="m484.664062 269.667969c0 133.835937-108.496093 242.332031-242.332031 242.332031-133.835937 0-242.332031-108.496094-242.332031-242.332031 0-133.835938 108.496094-242.332031 242.332031-242.332031 133.835938 0 242.332031 108.496093 242.332031 242.332031zm0 0" fill="#ff941f"/><path d="m155.757812 132.441406c1.4375 0 2.847657.113282 4.226563.328125l.050781-.785156c36.609375-14.992187 21.796875-45.976563 46.042969-43.082031 18.566406 2.21875 29.375-6.289063 33.835937-11.015625 1.320313-1.398438 3.519532-1.398438 4.839844 0 4.460938 4.726562 15.269532 13.234375 33.835938 11.015625 24.246094-2.894532 9.433594 28.089844 46.042968 43.082031l.050782.785156c1.378906-.214843 2.789062-.328125 4.226562-.328125 6.808594 0 13.023438 2.511719 17.785156 6.65625v-65.867187c-8.152343-41.914063-24.875-22.054688-47.742187-53.628907-22.867187-31.578124-56.621094-15.515624-56.621094-15.515624s-33.753906-16.0625-56.621093 15.515624c-22.867188 31.574219-39.589844 11.714844-47.742188 53.628907v65.867187c4.761719-4.144531 10.980469-6.65625 17.789062-6.65625zm0 0" fill="#ebeaec"/><path d="m187.636719 99.226562v-38.808593c8.152343-41.917969 24.875-22.054688 47.742187-53.632813 1.066406-1.472656 2.15625-2.84375 3.269532-4.113281-9.367188-3.101563-34.636719-8.339844-52.9375 16.929687-22.867188 31.578126-39.589844 11.714844-47.742188 53.632813v65.863281c4.761719-4.140625 10.980469-6.65625 17.785156-6.65625 1.441406 0 2.851563.113282 4.230469.328125l.050781-.785156c18.21875-7.460937 23.699219-18.878906 27.601563-28.117187zm0 0" fill="#dad9dd"/><path d="m165.496094 189.597656c-1.773438-3.945312-3.226563-8.011718-4.363282-12.160156v.003906c-1.738281.351563-3.535156.535156-5.375.535156-6.808593 0-13.027343-2.515624-17.789062-6.65625v2.476563c0 20.957031 16.378906 41.351563 37.035156 42.5625-3.207031-8.914063-6.5625-20.214844-9.507812-26.761719zm0 0" fill="#ebeaec"/><path d="m328.910156 177.976562c-1.847656 0-3.652344-.1875-5.394531-.539062-1.152344 4.207031-2.625 8.328125-4.425781 12.332031-2.921875 6.515625-6.25 17.753907-9.425782 26.589844 20.65625-1.210937 37.03125-21.601563 37.03125-42.5625v-2.476563c-4.761718 4.140626-10.976562 6.65625-17.785156 6.65625zm0 0" fill="#ebeaec"/><path d="m328.5625 126.269531c-1.457031 0-2.886719.117188-4.28125.335938l1.679688 25.957031c.617187 9.496094-.367188 18.988281-2.863282 28.105469 1.765625.355469 3.59375.546875 5.464844.546875 15.171875 0 27.472656-12.300782 27.472656-27.472656-.003906-15.171876-12.300781-27.472657-27.472656-27.472657zm0 0" fill="#f7c696"/><path d="m158.742188 152.582031 1.683593-25.964843c-1.398437-.21875-2.828125-.335938-4.289062-.335938-15.191407 0-27.503907 12.316406-27.503907 27.507812 0 15.1875 12.3125 27.503907 27.503907 27.503907 1.867187 0 3.691406-.1875 5.453125-.542969-2.5-9.132812-3.464844-18.65625-2.847656-28.167969zm0 0" fill="#f7c696"/><path d="m328.5625 157.160156c-.824219 0-1.636719-.042968-2.441406-.117187.09375 7.992187-.917969 15.941406-3.023438 23.625 1.765625.355469 3.59375.546875 5.464844.546875 15.171875 0 27.46875-12.300782 27.46875-27.472656 0-4.316407-.996094-8.394532-2.769531-12.027344-4.457031 9.140625-13.84375 15.445312-24.699219 15.445312zm0 0" fill="#f2ba88"/><path d="m158.582031 157.125c-.804687.070312-1.621093.113281-2.445312.113281-10.875 0-20.277344-6.316406-24.738281-15.480469-1.769532 3.636719-2.765626 7.714844-2.765626 12.027344 0 15.191406 12.3125 27.507813 27.503907 27.507813 1.867187 0 3.691406-.1875 5.453125-.542969-2.101563-7.679688-3.101563-15.636719-3.007813-23.625zm0 0" fill="#f2ba88"/><path d="m454.460938 386.886719c-1.566407-70.863281-31.460938-90.925781-46.746094-103.140625-21.359375-17.0625-74.382813-23.847656-90.375-19.773438-6.605469 1.867188-13.71875-.660156-17.527344-6.367187-1.460938-2.1875-2.554688-4.117188-3.375-5.828125-4.386719 6.875-10.238281 12.765625-17.269531 17.164062l-15.71875 9.835938c-12.917969 8.082031-29.316407 8.082031-42.230469 0l-15.730469-9.839844c-7.027343-4.398438-12.875-10.289062-17.257812-17.160156-.824219 1.714844-1.914063 3.640625-3.375 5.828125-3.808594 5.707031-10.925781 8.230469-17.527344 6.367187-15.996094-4.074218-69.019531 2.710938-90.378906 19.773438-15.285157 12.210937-45.179688 32.277344-46.746094 103.140625 41.308594 74.597656 120.816406 125.113281 212.128906 125.113281 91.316407 0 170.820313-50.515625 212.128907-125.113281zm0 0" fill="#f7c696"/><path d="m172.640625 501.828125c22.070313 6.617187 45.464844 10.171875 69.691406 10.171875 7.351563 0 14.625-.332031 21.808594-.972656v-53.609375c-12.5 0-23.25-17.039063-23.25-17.039063-17 30.207032-63.5 35.386719-63.5 35.386719 11.25 16.84375-4.746094 26.058594-4.75 26.0625zm0 0" fill="#f2ba88"/><g fill="#e5a876"><path d="m377.019531 422.421875c-4.472656.5625-7.644531 4.648437-7.082031 9.125.039062.292969 2.496094 20.550781-.085938 44.210937 5.9375-3.683593 11.714844-7.605468 17.296876-11.769531.875-19.03125-.871094-33.421875-1.003907-34.484375-.566406-4.476562-4.644531-7.636718-9.125-7.082031zm0 0"/><path d="m107.644531 422.421875c-4.476562-.554687-8.558593 2.605469-9.121093 7.082031-.136719 1.0625-1.878907 15.453125-1.003907 34.484375 5.585938 4.167969 11.363281 8.09375 17.308594 11.777344-2.5625-23.539063-.160156-43.757813-.101563-44.21875.5625-4.476563-2.605468-8.5625-7.082031-9.125zm0 0"/><path d="m391.777344 410.535156c-3.71875-2.554687-8.800782-1.609375-11.355469 2.105469l-9.109375 13.257813c-17.523438 25.5-40.222656 31.3125-49.222656 36.683593-8.707032 4.261719-18.722656 4.316407-27.476563.148438l-26.101562-12.425781c-10.941407-5.210938-18.011719-16.410157-18.011719-28.527344 0-20.722656 0-62.835938 0-75.363282 0-4.511718-3.65625-8.167968-8.164062-8.167968-4.511719 0-8.167969 3.65625-8.167969 8.167968v75.363282c0 12.117187-7.070313 23.316406-18.015625 28.527344l-26.097656 12.425781c-8.753907 4.167969-18.769532 4.117187-27.476563-.148438-9.261719-5.527343-31.816406-11.355469-49.222656-36.683593l-9.109375-13.257813c-2.554688-3.71875-7.636719-4.660156-11.355469-2.105469-3.714844 2.554688-4.660156 7.640625-2.105469 11.355469l9.113282 13.257813c20.3125 29.5625 46.605468 36.734374 55.5 42.101562 13.203124 6.464844 28.390624 6.554688 41.683593.226562 19.609375-10.636718 34.097657-12.378906 45.253907-29.023437 11.128906 16.601563 25.367187 18.234375 45.253906 29.023437 13.269531 6.316407 28.464844 6.246094 41.683594-.226562 8.867187-5.351562 35.164062-12.503906 55.5-42.101562l9.109374-13.257813c2.554688-3.714844 1.609376-8.800781-2.105468-11.355469zm0 0"/></g><path d="m324.632812 126.542969c-36.609374-14.996094-21.796874-45.980469-46.042968-43.085938-18.566406 2.21875-29.375-6.289062-33.835938-11.015625-1.320312-1.398437-3.519531-1.398437-4.839844 0-4.460937 4.726563-15.269531 13.234375-33.835937 11.015625-24.246094-2.894531-9.433594 28.089844-46.042969 43.082031l-1.710937 26.390626c-.886719 13.699218 1.546875 27.417968 7.175781 39.933593 5.015625 11.160157 11.242188 26.625 15.855469 43.449219 3.707031 13.515625 12.257812 25.191406 24.136719 32.625l15.726562 9.839844c12.917969 8.082031 29.3125 8.082031 42.230469 0l15.71875-9.835938c11.886719-7.4375 20.4375-19.117187 24.148437-32.636718 4.589844-16.734376 10.773438-32.121094 15.777344-43.265626 5.644531-12.574218 8.140625-26.328124 7.25-40.082031zm0 0" fill="#fcd2a4"/><path d="m249.273438 275.121094-15.730469-9.839844c-11.851563-7.417969-20.417969-19.054688-24.113281-32.539062-4.613282-16.855469-10.851563-32.355469-15.878907-43.535157-5.628906-12.515625-8.058593-26.234375-7.171875-39.933593l1.027344-41.761719c.117188-4.6875.871094-9.269531 2.179688-13.671875-4.328126 9.730468-8.167969 23.941406-29.550782 32.703125l-1.710937 26.390625c-.886719 13.695312 1.546875 27.414062 7.171875 39.933594 5.019531 11.15625 11.246094 26.625 15.859375 43.449218 3.707031 13.511719 12.253906 25.1875 24.132812 32.621094l15.730469 9.839844c12.175781 7.621094 27.4375 8.050781 39.96875 1.308594-4.148438-.988282-8.179688-2.625-11.914062-4.964844zm0 0" fill="#f7c696"/><path d="m349.023438 260.960938c-3.742188.902343-7.648438.304687-11.15625-1.277344-10.214844-4.605469-20.527344 4.289062-20.527344 4.289062s-3.082032 160.679688-110.796875 245.394532c11.675781 1.726562 23.621093 2.632812 35.78125 2.632812h.015625c35.816406 0 69.8125-7.777344 100.402344-21.722656 44.660156-117.296875 26.660156-222.484375 26.660156-222.484375-7.175782-8.035157-15.109375-8.105469-20.378906-6.832031zm0 0" fill="#ebeaec"/><path d="m351.59375 260.503906c-.90625.109375-1.773438.265625-2.570312.457032-3.742188.902343-7.648438.304687-11.15625-1.277344-.910157-.410156-1.824219-.707032-2.726563-.921875.882813 18.40625 2.390625 98.628906-31.765625 181.996093-1.710938 4.171876.285156 8.941407 4.457031 10.652344 4.1875 1.710938 8.949219-.296875 10.65625-4.460937 34.335938-83.800781 34.105469-162.761719 33.105469-186.445313zm0 0" fill="#dad9dd"/><path d="m323.515625 180.703125c-9.753906 0-17.796875 7.574219-18.441406 17.308594-1.011719 15.160156-4.21875 36.25-13.972657 46.007812-11.460937 11.460938-27.15625 3.628907-35.300781-1.875-3.972656-2.6875-8.652343-4.113281-13.449219-4.113281h-.027343c-4.800781 0-9.488281 1.425781-13.464844 4.117188-8.144531 5.503906-23.835937 13.328124-35.292969 1.871093-9.757812-9.757812-12.960937-30.847656-13.972656-46.007812-.648438-9.734375-8.691406-17.308594-18.441406-17.308594 0 0-10.257813 29.015625 0 50.792969 9.371094 19.894531-20.925782 65.414062 56.265625 113.316406 15.269531 9.476562 34.5625 9.476562 49.828125 0 77.195312-47.90625 46.898437-93.421875 56.269531-113.316406 10.257813-21.777344 0-50.792969 0-50.792969zm0 0" fill="#ebeaec"/><path d="m216.449219 284.839844c-18.132813-18.136719 0-36.4375 0-36.4375-7.433594 2.417968-15.9375 2.5625-22.882813-4.382813-9.753906-9.757812-12.960937-30.847656-13.972656-46.011719-.648438-9.730468-8.691406-17.304687-18.441406-17.304687 0 0-10.257813 29.015625 0 50.792969 9.371094 19.894531-20.925782 65.414062 56.265625 113.316406 10.039062 6.230469 21.816406 8.335938 33.050781 6.375-31.765625-21.703125-15.890625-48.21875-34.019531-66.347656zm0 0" fill="#dad9dd"/><path d="m260.84375 161.664062c-4.167969-1.730468-6.140625-6.507812-4.414062-10.671874 3.664062-8.835938 13.15625-14.03125 22.578124-12.355469l8.539063 1.523437c4.441406.792969 7.398437 5.03125 6.609375 9.472656-.792969 4.4375-5.035156 7.398438-9.476562 6.605469l-8.535157-1.523437c-1.960937-.351563-3.863281.695312-4.625 2.535156-1.738281 4.179688-6.519531 6.136719-10.675781 4.414062zm0 0" fill="#84260d"/><path d="m213.148438 157.25c-.761719-1.839844-2.671876-2.875-4.628907-2.53125l-8.535156 1.519531c-4.433594.792969-8.679687-2.164062-9.472656-6.605469-.792969-4.441406 2.164062-8.679687 6.605469-9.472656l8.539062-1.523437c9.414062-1.675781 18.914062 3.519531 22.578125 12.355469 1.726563 4.164062-.246094 8.941406-4.414063 10.671874-4.183593 1.734376-8.949218-.265624-10.671874-4.414062zm0 0" fill="#84260d"/><path d="m264.789062 220.097656c-.050781 0-5.273437-.113281-9.742187-2.628906-2.199219-1.238281-4.851563-1.386719-7.175781-.40625l-5.539063 2.335938-5.535156-2.335938c-2.328125-.980469-4.976563-.832031-7.179687.40625-4.421876 2.488281-9.585938 2.621094-9.789063 2.625-4.488281.027344-8.121094 3.671875-8.121094 8.167969 0 4.511719 3.65625 8.167969 8.167969 8.167969.808594 0 7.09375-.097657 13.949219-2.894532l5.335937 2.25c2.046875.863282 4.308594.863282 6.347656 0l5.332032-2.25c6.855468 2.800782 13.140625 2.894532 13.949218 2.894532 4.511719 0 8.167969-3.65625 8.167969-8.167969s-3.65625-8.164063-8.167969-8.164063zm0 0" fill="#f2ba88"/><path d="m242.332031 198.175781v6.332031c0 7.585938 5.277344 16.332032 12.683594 17.964844l4.003906.882813c16.53125 3.652343 30.140625 15.339843 36.246094 31.132812 1.808594 4.683594 8.773437 3.296875 8.648437-1.722656l-.339843-16.089844c-.414063-16.90625-12.257813-35.726562-28.753907-39.464843l-22.40625-6.585938c-5.035156-1.476562-10.082031 2.296875-10.082031 7.550781zm0 0" fill="#ebeaec"/><path d="m242.332031 198.175781v6.332031c0 7.585938-5.273437 16.332032-12.683593 17.964844l-4 .882813c-16.535157 3.652343-30.144532 15.339843-36.246094 31.132812-1.8125 4.683594-8.773438 3.296875-8.652344-1.722656l.339844-16.089844c.417968-16.90625 12.261718-35.726562 28.753906-39.464843l22.40625-6.585938c5.039062-1.476562 10.082031 2.296875 10.082031 7.550781zm0 0" fill="#dad9dd"/><path d="m194.148438 213.878906c0-4.519531 1.8125-8.613281 4.738281-11.613281-10.550781 7.597656-17.480469 21.554687-17.792969 34.410156l-.34375 16.089844c-.121094 5.019531 6.839844 6.40625 8.652344 1.722656 3.875-10.023437 10.777344-18.386719 19.527344-24.09375-8.3125-.917969-14.78125-7.957031-14.78125-16.515625zm0 0" fill="#ccccce"/><path d="m269.605469 218.609375c0-8.203125 6.648437-14.851563 14.851562-14.851563 1.339844 0 2.632813.191407 3.867188.523438-3.953125-3.421875-8.511719-5.941406-13.503907-7.070312l-22.40625-6.585938c-5.035156-1.480469-10.082031 2.296875-10.082031 7.546875v6.335937c0 7.585938 5.273438 16.332032 12.683594 17.964844l4 .886719c5.574219 1.230469 10.804687 3.390625 15.539063 6.300781-3.03125-2.722656-4.949219-6.65625-4.949219-11.050781zm0 0" fill="#dad9dd"/><path d="m262.878906 184.578125-8.371094-1.5c-1.902343-.34375-3.867187 0-5.539062.972656l-6.636719 3.847657-6.632812-3.847657c-1.675781-.972656-3.636719-1.3125-5.542969-.972656l-8.371094 1.5c-4.441406.796875-7.390625 5.042969-6.59375 9.480469.796875 4.441406 5.042969 7.390625 9.480469 6.597656l5.421875-.972656 8.140625 4.71875c.007813.007812.019531.007812.027344.015625 2.425781 1.390625 5.488281 1.515625 8.136719 0 .011718-.007813.019531-.007813.03125-.015625l8.140624-4.722656 5.425782.972656c4.429687.804687 8.683594-2.152344 9.480468-6.59375.796876-4.4375-2.15625-8.683594-6.597656-9.480469zm0 0" fill="#f2ba88"/><path d="m331.441406 386.179688c0-.964844.085938-1.910157.210938-2.84375-7.5625 16.34375-30.636719 16.660156-38.644532.527343-16.007812 43.769531-42.53125 90.953125-86.464843 125.503907 11.675781 1.726562 23.621093 2.632812 35.78125 2.632812h.015625c35.816406 0 69.8125-7.777344 100.402344-21.722656 11.609374-30.492188 18.976562-60.15625 23.535156-87.375-13.914063 11.160156-34.835938 1.3125-34.835938-16.722656zm0 0" fill="#dad9dd"/><path d="m72.28125 382.886719c1.566406-70.863281 31.460938-90.929688 46.746094-103.140625 9.597656-7.667969 25.59375-13.253906 41.746094-16.71875-20.742188-1.503906-64.816407 5.53125-83.824219 20.71875-15.285157 12.210937-45.179688 32.277344-46.746094 103.140625 10.890625 19.664062 24.4375 37.65625 40.15625 53.492187zm0 0" fill="#f2ba88"/></svg>