<svg id="Capa_1" enable-background="new 0 0 512 512" height="512" viewBox="0 0 512 512" width="512" xmlns="http://www.w3.org/2000/svg"><path d="m60.034 420.73c-37.464-44.521-60.034-101.99-60.034-164.73 0-141.385 114.615-256 256-256s256 114.615 256 256z" fill="#d587eb"/><path d="m452.04 256v-233.57c0-12.37-10.03-22.4-22.4-22.4h-347.28c-12.37 0-22.4 10.03-22.4 22.4v398.21c11.906 14.161 25.328 27.001 40 38.298h199.715z" fill="#daf0f6"/><path d="m256.018 511.97 155.982-255.97v-165.97c-27.614 0-50-22.386-50-50h-212.04c0 27.614-22.386 50-50 50v368.908c42.251 32.534 94.938 52.185 152.18 53.031h3.878z" fill="#804096"/><g fill="#632e6e"><path d="m209.676 149.846h92.648v92.648h-92.648z"/><path d="m242.508 302.31h-92.648v-92.648z"/><path d="m362.14 209.662v92.648h-92.648z"/><path d="m149.86 182.678v-92.648h92.648z"/><path d="m324.073 171.595 24.575 24.575-24.575 24.575z"/><path d="m231.425 128.097 24.575-24.575 24.575 24.575z"/><path d="m187.927 220.745-24.575-24.575 24.575-24.575z"/><path d="m280.575 264.243-24.575 24.575-24.575-24.575z"/><path d="m209.676 383.875h92.648v92.648h-92.648z"/><path d="m214.875 508.706-65.015-65.015v45.309c20.381 9.303 42.19 16.018 65.015 19.706z"/><path d="m149.86 416.707v-92.648h92.648z"/><path d="m231.425 362.126 24.575-24.575 24.575 24.575z"/><path d="m187.927 454.774-24.575-24.575 24.575-24.575z"/><path d="m244.899 511.746c3.682.157 7.38.254 11.101.254s7.419-.097 11.101-.254l13.474-13.474h-49.15z"/><path d="m269.492 90.03h92.648v92.648z"/></g><path d="m99.96 22.43c0-12.37 10.03-22.4 22.4-22.4h-40c-12.37 0-22.4 10.03-22.4 22.4v398.21c11.906 14.161 25.328 27.001 40 38.298z" fill="#bee5eb"/><path d="m99.96 90.03v368.908c15.377 11.841 32.142 21.965 50 30.107v-449.015c0 27.614-22.386 50-50 50z" fill="#632e6e"/><path d="m362.14 489.019v-45.327l-65.003 65.002c22.818-3.686 44.628-10.379 65.003-19.675z" fill="#fff"/><path d="m295.69 509.434 66.95-66.95v46.855l-.292.134c-20.698 9.443-42.611 16.075-65.131 19.714zm65.951-64.536-63.05 63.049c21.788-3.657 42.988-10.129 63.05-19.251z"/><path d="m296 508.882 212.882-212.882c2.045-13.034 3.118-26.391 3.118-40h-233.595c-12.374 0-22.405 10.031-22.405 22.405v233.595c13.609 0 26.966-1.072 40-3.118z" fill="#daf0f6"/><path d="m256 278.405v233.595c13.609 0 26.966-1.072 40-3.118v-230.477c0-12.374 10.031-22.405 22.405-22.405h-40c-12.374 0-22.405 10.031-22.405 22.405z" fill="#bee5eb"/><path d="m508.882 296h-162.882c0 27.614-22.386 50-50 50v162.882c109.349-17.159 195.723-103.533 212.882-212.882z" fill="#804096"/><path d="m296 346v162.882c17.304-2.715 34.03-7.169 50-13.168v-199.714c0 27.614-22.386 50-50 50z" fill="#632e6e"/><path d="m463.562 405.846h-57.825v57.794c22.221-16.052 41.761-35.581 57.825-57.794z" fill="#632e6e"/><path d="m465.552 346.03 21.107 21.107c3.317-6.871 6.339-13.911 9.043-21.107z" fill="#632e6e"/><path d="m345.92 495.745c7.183-2.695 14.209-5.709 21.068-9.015l-21.068-21.068z" fill="#632e6e"/><path d="m345.92 438.678v-92.648h92.648z" fill="#632e6e"/><path d="m427.485 384.097 24.575-24.575 24.575 24.575z" fill="#632e6e"/><path d="m383.987 476.745-24.575-24.575 24.575-24.575z" fill="#632e6e"/></svg>