<svg id="Capa_1" enable-background="new 0 0 512.005 512.005" height="512" viewBox="0 0 512.005 512.005" width="512" xmlns="http://www.w3.org/2000/svg"><path d="m256 .002c-141.385 0-256 114.615-256 256 0 57.708 19.101 110.951 51.316 153.766h50.919v50.918c42.815 32.215 96.058 51.316 153.766 51.316 141.385 0 256-114.615 256-256s-114.616-256-256.001-256z" fill="#d587eb"/><path d="m506.01 200.692v.01c-10.51 43.58-34.76 87.54-71.83 124.61-68.63 68.63-160.9 93.3-230.58 68.26-19.09-6.86-40.44-1.25-53.93 13.89l-47.43 53.23c-19.27-14.5-36.43-31.66-50.93-50.93l53.23-47.43c15.14-13.49 20.75-34.84 13.89-53.93-25.04-69.68-.37-161.95 68.26-230.58 37.07-37.07 81.04-61.32 124.62-71.83 59.72-14.41 118.71-3.03 158.22 36.48s50.89 98.5 36.48 158.22z" fill="#40718c"/><path d="m506.01 200.702c-10.51 43.58-34.76 87.54-71.83 124.61-68.63 68.63-160.9 93.3-230.58 68.26-19.09-6.86-40.44-1.25-53.93 13.89l-47.43 53.23c-19.27-14.5-36.43-31.66-50.93-50.93l53.23-47.43c10.87-9.69 16.83-23.42 16.79-37.47 29.99 18.09 67.1 25.19 107.54 20.14 53.42-6.68 106.24-33.76 148.74-76.26s69.58-95.32 76.26-148.74c1.04-8.32 1.56-16.5 1.58-24.5.07-28.39-6.2-54.58-18.34-77.12 11.8 6.35 22.7 14.37 32.42 24.09 39.52 39.51 50.9 98.51 36.48 158.23z" fill="#3c5d78"/><path d="m179.62 332.383c24.132 24.132 59.95 34.607 100.853 29.494 44.64-5.58 89.182-28.611 125.421-64.849s59.27-80.781 64.849-125.421c5.113-40.903-5.362-76.721-29.494-100.853s-59.95-34.607-100.853-29.494c-44.64 5.58-89.182 28.611-125.421 64.849s-59.27 80.781-64.849 125.421c-5.114 40.903 5.361 76.72 29.494 100.853z" fill="#daf0f6"/><path d="m201.82 208.931c-2.019 0-4.07-.41-6.037-1.275-7.582-3.338-11.022-12.191-7.684-19.773 3.667-8.328 8.05-16.606 13.028-24.603 4.378-7.033 13.626-9.186 20.662-4.807 7.033 4.378 9.185 13.628 4.807 20.662-4.229 6.794-7.944 13.805-11.04 20.837-2.472 5.616-7.97 8.959-13.736 8.959z" fill="#fff"/><path d="m243.259 149.393c-3.839 0-7.678-1.464-10.606-4.394-5.858-5.858-5.858-15.355 0-21.213 32.328-32.328 71.693-52.827 110.844-57.72 16.054-2.007 31.021-1.199 44.481 2.402 8.002 2.141 12.754 10.364 10.613 18.367s-10.362 12.757-18.367 10.613c-9.704-2.596-20.809-3.139-33.006-1.614-32.565 4.07-65.718 21.531-93.353 49.165-2.928 2.93-6.767 4.394-10.606 4.394z" fill="#fff"/><path d="m228.866 344.999c53.422-6.677 106.247-33.759 148.744-76.256s69.579-95.322 76.256-148.744c1.342-10.736 1.813-21.232 1.464-31.428 13.944 22.545 19.386 51.253 15.413 83.035-5.58 44.64-28.611 89.182-64.849 125.421s-80.781 59.27-125.421 64.849c-31.782 3.973-60.49-1.47-83.035-15.414 10.196.35 20.692-.121 31.428-1.463z" fill="#bee5eb"/></svg>