<svg id="Capa_1" enable-background="new 0 0 512 512" height="512" viewBox="0 0 512 512" width="512" xmlns="http://www.w3.org/2000/svg"><path d="m81 442.823h350c49.845-46.709 81-113.123 81-186.823 0-141.385-114.615-256-256-256s-256 114.615-256 256c0 73.7 31.155 140.114 81 186.823z" fill="#484e55"/><path d="m141 115v52c0 2.761 2.239 5 5 5h30c2.761 0 5-2.239 5-5v-52c0-41.421 33.579-75 75-75 41.421 0 75 33.579 75 75v169.769h40v-169.769c0-63.513-51.487-115-115-115-63.513 0-115 51.487-115 115z" fill="#daf0f6"/><path d="m256 20c-52.467 0-95 42.533-95 95v57h15c2.761 0 5-2.239 5-5v-52c0-41.421 33.579-75 75-75 41.421 0 75 33.579 75 75v169.769h20v-169.769c0-52.467-42.533-95-95-95z" fill="#bee5eb"/><path d="m431 262c0-27.614-22.386-50-50-50h-250c-27.614 0-50 22.386-50 50v180.823c45.777 42.897 107.315 69.177 175 69.177s129.223-26.28 175-69.177z" fill="#ffe473"/><path d="m81 262v180.823c16.178 15.161 34.321 28.247 54.014 38.828-2.581-6.033-4.014-12.674-4.014-19.651v-200c0-27.614 22.386-50 50-50h-50c-27.614 0-50 22.386-50 50z" fill="#ffcd61"/><path d="m216 312h-140c-2.761 0-5-2.239-5-5v-40c0-2.761 2.239-5 5-5h140c2.761 0 5 2.239 5 5v40c0 2.761-2.239 5-5 5z" fill="#ffcd61"/><path d="m121 307v-40c0-2.761 2.239-5 5-5h-50c-2.761 0-5 2.239-5 5v40c0 2.761 2.239 5 5 5h50c-2.761 0-5-2.239-5-5z" fill="#f4be53"/><path d="m216 387h-140c-2.761 0-5-2.239-5-5v-40c0-2.761 2.239-5 5-5h140c2.761 0 5 2.239 5 5v40c0 2.761-2.239 5-5 5z" fill="#ffcd61"/><path d="m121 382v-40c0-2.761 2.239-5 5-5h-50c-2.761 0-5 2.239-5 5v40c0 2.761 2.239 5 5 5h50c-2.761 0-5-2.239-5-5z" fill="#f4be53"/><path d="m216 412h-140c-2.761 0-5 2.239-5 5v15.943c10.14 10.599 21.187 20.321 33.008 29.057h111.992c2.761 0 5-2.239 5-5v-40c0-2.761-2.239-5-5-5z" fill="#ffcd61"/><path d="m126 412h-50c-2.761 0-5 2.239-5 5v15.943c10.14 10.599 21.187 20.321 33.008 29.057h21.992c-2.761 0-5-2.239-5-5v-40c0-2.761 2.239-5 5-5z" fill="#f4be53"/></svg>