<svg id="Capa_1" enable-background="new 0 0 512 512" height="512" viewBox="0 0 512 512" width="512" xmlns="http://www.w3.org/2000/svg"><path d="m457.607 413.78c34.075-43.479 54.393-98.256 54.393-157.78 0-141.385-114.615-256-256-256s-256 114.615-256 256c0 59.524 20.318 114.301 54.393 157.78z" fill="#484e55"/><path d="m347.356 71.046s-27.502 39.512-91.356 39.512-91.356-39.512-91.356-39.512v424.153c28.377 10.844 59.168 16.801 91.356 16.801s62.979-5.957 91.356-16.802z" fill="#ad61c8"/><path d="m241.72 235.14v276.47c-76.02-4.18-143.21-41.54-187.33-97.83v-130.44c0-13.75 3.3-27.08 9.39-38.99s14.96-22.39 26.11-30.44c6.58-4.75 9.64-13.01 7.74-20.9l-27.29-113.27-3.63-15.06c-3.03-12.58 6.51-24.68 19.45-24.68h97.33c11.43 0 20.02 9.37 20.02 19.98 0 2.2-.37 4.45-1.16 6.68-4.63 13.09-6.89 26.65-6.89 40.13 0 27.66 9.53 54.93 27.7 76.86 12 14.48 18.56 32.69 18.56 51.49z" fill="#d587eb"/><path d="m129.89 213.91c-22.29 16.1-35.5 41.93-35.5 69.43v171.2c-14.8-12.05-28.22-25.73-40-40.76v-130.44c0-13.75 3.3-27.08 9.39-38.99s14.96-22.39 26.11-30.44c6.58-4.75 9.64-13.01 7.74-20.9l-27.29-113.27-3.63-15.06c-3.03-12.58 6.51-24.68 19.45-24.68h40c-12.94 0-22.48 12.1-19.45 24.68l30.92 128.33c1.9 7.89-1.16 16.15-7.74 20.9z" fill="#c174dc"/><path d="m457.61 283.34v130.44c-44.12 56.29-111.31 93.65-187.33 97.83v-276.47c0-18.8 6.56-37.01 18.56-51.49 18.17-21.93 27.7-49.2 27.7-76.86 0-13.48-2.26-27.04-6.89-40.13-.79-2.23-1.16-4.48-1.16-6.68 0-10.61 8.59-19.98 20.02-19.98h97.33c12.94 0 22.48 12.1 19.45 24.68l-3.63 15.06-27.29 113.27c-1.9 7.89 1.16 16.15 7.74 20.9 11.15 8.05 20.02 18.53 26.11 30.44s9.39 25.24 9.39 38.99z" fill="#d587eb"/><g fill="#c174dc"><path d="m371.146 232.302c-3.535 2.159-4.651 6.774-2.492 10.31 7.493 12.271 11.454 26.356 11.454 40.732v196.594c5.109-2.838 10.113-5.84 15-9.01v-187.584c0-17.135-4.721-33.923-13.652-48.549-2.16-3.536-6.775-4.653-10.31-2.493z"/><path d="m140.854 232.302c-3.537-2.158-8.152-1.043-10.31 2.493-8.931 14.626-13.652 31.414-13.652 48.549v187.585c4.887 3.169 9.891 6.172 15 9.01v-196.595c0-14.376 3.96-28.461 11.454-40.732 2.159-3.536 1.044-8.151-2.492-10.31z"/><path d="m349.65 66.66c14.12 39.95 6.21 84.37-20.81 116.99-12 14.48-18.56 32.69-18.56 51.49v271.09c-12.99 2.81-26.35 4.63-40 5.38v-276.47c0-9.4 1.64-18.65 4.78-27.36 3.14-8.72 7.78-16.89 13.78-24.13 18.17-21.93 27.7-49.2 27.7-76.86 0-13.48-2.26-27.04-6.89-40.13-4.59-13.01 5.06-26.66 18.86-26.66h40c-11.43 0-20.02 9.36-20.02 19.97 0 2.2.37 4.46 1.16 6.69z"/></g><path d="m256 278.796c-48.735 0-67.68-35.118-68.463-36.613-1.921-3.67-.503-8.202 3.166-10.123 3.661-1.915 8.178-.512 10.107 3.136.655 1.218 15.846 28.601 55.19 28.601 39.382 0 54.564-27.437 55.192-28.604 1.952-3.636 6.484-5.031 10.13-3.096 3.646 1.933 5.055 6.431 3.141 10.087-.783 1.494-19.728 36.612-68.463 36.612z" fill="#daf0f6"/><circle cx="194.182" cy="238.704" fill="#ffe473" r="20"/><path d="m194.182 238.704c0-7.398 4.028-13.843 10-17.302-2.944-1.705-6.353-2.698-10-2.698-11.046 0-20 8.954-20 20s8.954 20 20 20c3.647 0 7.056-.992 10-2.698-5.972-3.459-10-9.903-10-17.302z" fill="#ffcd61"/><circle cx="317.818" cy="238.704" fill="#ffe473" r="20"/><path d="m317.818 238.704c0-7.398 4.028-13.843 10-17.302-2.944-1.705-6.353-2.698-10-2.698-11.046 0-20 8.954-20 20s8.954 20 20 20c3.647 0 7.056-.992 10-2.698-5.972-3.459-10-9.903-10-17.302z" fill="#ffcd61"/><path d="m256 369.5c-48.735 0-67.68-35.118-68.463-36.613-1.921-3.67-.503-8.202 3.166-10.123 3.661-1.914 8.178-.512 10.107 3.136.655 1.218 15.846 28.601 55.19 28.601 39.382 0 54.564-27.437 55.192-28.604 1.952-3.636 6.484-5.031 10.13-3.096 3.646 1.933 5.055 6.431 3.141 10.087-.783 1.494-19.728 36.612-68.463 36.612z" fill="#daf0f6"/><circle cx="194.182" cy="329.408" fill="#ffe473" r="20"/><path d="m194.182 329.408c0-7.398 4.028-13.843 10-17.302-2.944-1.705-6.353-2.698-10-2.698-11.046 0-20 8.954-20 20s8.954 20 20 20c3.647 0 7.056-.992 10-2.698-5.972-3.459-10-9.903-10-17.302z" fill="#ffcd61"/><circle cx="317.818" cy="329.408" fill="#ffe473" r="20"/><path d="m317.818 329.408c0-7.398 4.028-13.843 10-17.302-2.944-1.705-6.353-2.698-10-2.698-11.046 0-20 8.954-20 20s8.954 20 20 20c3.647 0 7.056-.992 10-2.698-5.972-3.459-10-9.903-10-17.302z" fill="#ffcd61"/><path d="m256 460.204c-48.735 0-67.68-35.118-68.463-36.613-1.921-3.67-.503-8.202 3.166-10.123 3.661-1.915 8.178-.512 10.107 3.136.655 1.218 15.846 28.601 55.19 28.601 39.382 0 54.564-27.437 55.192-28.604 1.952-3.636 6.484-5.031 10.13-3.096 3.646 1.933 5.055 6.431 3.141 10.087-.783 1.494-19.728 36.612-68.463 36.612z" fill="#daf0f6"/><circle cx="194.182" cy="420.112" fill="#ffe473" r="20"/><path d="m194.182 420.112c0-7.398 4.028-13.843 10-17.302-2.944-1.705-6.353-2.698-10-2.698-11.046 0-20 8.954-20 20s8.954 20 20 20c3.647 0 7.056-.992 10-2.698-5.972-3.459-10-9.903-10-17.302z" fill="#ffcd61"/><circle cx="317.818" cy="420.112" fill="#ffe473" r="20"/><path d="m317.818 420.112c0-7.398 4.028-13.843 10-17.302-2.944-1.705-6.353-2.698-10-2.698-11.046 0-20 8.954-20 20s8.954 20 20 20c3.647 0 7.056-.992 10-2.698-5.972-3.459-10-9.903-10-17.302z" fill="#ffcd61"/></svg>