<svg id="Capa_1" enable-background="new 0 0 512 512" height="512" viewBox="0 0 512 512" width="512" xmlns="http://www.w3.org/2000/svg"><path d="m445.463 428.164c41.339-45.467 66.537-105.873 66.537-172.164 0-141.385-114.615-256-256-256s-256 114.615-256 256c0 66.291 25.198 126.697 66.537 172.164z" fill="#484e55"/><path d="m458.852 361.227c0-177.986-202.852-241.56-202.852-241.56s-202.852 63.574-202.852 241.56c0 25.579 4.748 47.823 13.388 66.937 46.829 51.503 114.37 83.836 189.464 83.836 75.093 0 142.635-32.333 189.463-83.836 8.641-19.114 13.389-41.358 13.389-66.937z" fill="#e3b64b"/><path d="m164.747 304.826c0-77.212 42.244-144.551 104.875-180.186-8.543-3.381-13.621-4.974-13.621-4.974s-202.853 63.575-202.853 241.561c0 25.579 4.748 47.823 13.388 66.937 46.829 51.503 114.37 83.836 189.464 83.836 21.062 0 41.53-2.546 61.114-7.343-87.82-24.031-152.367-104.386-152.367-199.831z" fill="#c9993f"/><path d="m351.738 61.843c4.354-14.698-6.839-29.372-22.166-29.072-.181.004-.364.005-.548.005-18.258 0-18.258-17.526-36.517-17.526-18.256 0-18.256 17.526-36.512 17.526-18.257 0-18.257-17.526-36.513-17.526s-18.256 17.526-36.511 17.526c-.183 0-.363-.002-.542-.005-15.327-.297-26.52 14.373-22.166 29.072l21.798 73.582 73.939 21.908 73.94-21.908z" fill="#e3b64b"/><path d="m341.958 124h-171.916c-11.046 0-20 8.954-20 20 0 11.046 8.954 20 20 20h171.917c11.046 0 20-8.954 20-20-.001-11.046-8.955-20-20.001-20z" fill="#ffe473"/><path d="m210.042 144c0-11.046 8.954-20 20-20h-60c-11.046 0-20 8.954-20 20 0 11.046 8.954 20 20 20h60c-11.046 0-20-8.954-20-20z" fill="#ffcd61"/><path d="m113.469 155.152h-34.75c-4.142 0-7.5-3.357-7.5-7.5s3.358-7.5 7.5-7.5h34.75c4.142 0 7.5 3.357 7.5 7.5s-3.358 7.5-7.5 7.5z" fill="#ffe473"/><path d="m96.094 172.527c-4.142 0-7.5-3.357-7.5-7.5v-34.75c0-4.143 3.358-7.5 7.5-7.5s7.5 3.357 7.5 7.5v34.75c0 4.143-3.358 7.5-7.5 7.5z" fill="#ffe473"/><path d="m451.901 63.536c5.127 17.011 18.437 30.321 35.449 35.449 8.271 2.493 8.271 14.204 0 16.697-17.011 5.127-30.321 18.437-35.449 35.449-2.493 8.271-14.204 8.271-16.697 0-5.127-17.011-18.437-30.321-35.449-35.449-8.271-2.493-8.271-14.204 0-16.697 17.011-5.127 30.321-18.437 35.449-35.449 2.494-8.27 14.205-8.27 16.697 0z" fill="#ffe473"/><g fill="#ffcd61"><path d="m443.553 107.333c0-12.82 4.83-24.508 12.762-33.357-1.821-3.278-3.309-6.772-4.414-10.44-2.493-8.271-14.204-8.271-16.697 0-5.127 17.011-18.437 30.321-35.449 35.449-8.271 2.493-8.271 14.204 0 16.697 17.011 5.127 30.321 18.437 35.449 35.449 2.493 8.271 14.204 8.271 16.697 0 1.105-3.667 2.593-7.161 4.414-10.44-7.932-8.85-12.762-20.538-12.762-33.358z"/><path d="m211.561 293.561h88.878v88.878h-88.878z" transform="matrix(0 1 -1 0 594 82)"/><path d="m357.821 350.943v88.878h-88.878z"/><path d="m154.179 325.057v-88.878h88.878z"/><path d="m243.057 439.821h-88.878v-88.878z"/><path d="m268.943 236.179h88.878v88.878z"/><path d="m279.575 403.303-23.575 23.575-23.575-23.575z"/><path d="m321.303 314.425 23.575 23.575-23.575 23.575z"/><path d="m232.425 272.697 23.575-23.575 23.575 23.575z"/><path d="m190.697 361.575-23.575-23.575 23.575-23.575z"/><path d="m374.112 417.833c15.425-22.777 24.437-50.252 24.437-79.833s-9.012-57.056-24.437-79.833z"/><path d="m335.833 456.112h-159.666c22.777 15.425 50.252 24.437 79.833 24.437s57.056-9.011 79.833-24.437z"/></g><path d="m137.888 258.167c-15.425 22.777-24.437 50.252-24.437 79.833s9.012 57.056 24.437 79.833z" fill="#c9993f"/><path d="m335.833 219.888c-22.777-15.425-50.252-24.437-79.833-24.437s-57.056 9.012-79.833 24.437z" fill="#ffcd61"/><path d="m164.747 304.826c0-24.062 4.104-47.164 11.647-68.647h-22.215v88.878l10.784-10.784c-.14-3.132-.216-6.28-.216-9.447z" fill="#e3b64b"/><path d="m176.223 372.987-22.044-22.044v88.878h60.606c-16.745-19.469-29.94-42.079-38.562-66.834z" fill="#e3b64b"/><path d="m261.966 480.419c-11.301-7.091-21.874-15.234-31.57-24.307h-54.229c22.777 15.426 50.252 24.437 79.833 24.437 1.999 0 3.987-.049 5.966-.13z" fill="#e3b64b"/></svg>