<svg id="Capa_1" enable-background="new 0 0 512.5 512.5" height="512" viewBox="0 0 512.5 512.5" width="512" xmlns="http://www.w3.org/2000/svg"><path d="m427.56 446.25 72.968-266c-32.373-104.274-129.606-180-244.528-180-37.902 0-73.876 8.246-106.238 23.027l-131.892 138.827c-2.352 5.943-4.489 11.995-6.399 18.146l72.968 266c45.397 41.017 105.559 66 171.56 66s126.164-24.983 171.561-66z" fill="#484e55"/><path d="m76.497 438.75h159.503v-251h-226.717c-6.041 21.804-9.283 44.772-9.283 68.5 0 71.455 29.287 136.06 76.497 182.5z" fill="#c174dc"/><path d="m238.5 431.25h-169.323c4.879 5.207 9.967 10.215 15.262 15h154.061c4.142 0 7.5-3.358 7.5-7.5s-3.358-7.5-7.5-7.5z" fill="#d587eb"/><path d="m238.5 180.25h-227.028c-1.532 4.936-2.902 9.942-4.139 15h231.167c4.142 0 7.5-3.358 7.5-7.5 0-4.142-3.358-7.5-7.5-7.5z" fill="#d587eb"/><path d="m64.321 195.25h-56.988c-4.78 19.551-7.333 39.976-7.333 61 0 65.092 24.307 124.497 64.321 169.668z" fill="#ad61c8"/><path d="m196 215.25h-156c0 11.046-8.954 20-20 20v120.359c8.417 19.968 19.304 38.635 32.262 55.641h143.738c0-11.046 8.954-20 20-20v-156c-11.046 0-20-8.954-20-20z" fill="#804096"/><g fill="#632e6e"><path d="m20 235.25v120.359c8.417 19.968 19.304 38.635 32.262 55.641h12.059v-196h-24.321c0 11.046-8.954 20-20 20z"/><path d="m85.267 280.517h65.466v65.466h-65.466z"/><path d="m127.534 238.25h65.466v65.466z"/><path d="m108.466 388.25h-65.466v-65.466z"/><path d="m193 322.784v65.466h-65.466z"/><path d="m43 303.716v-65.466h65.466z"/><path d="m166.101 295.885 17.365 17.365-17.365 17.365z"/><path d="m100.635 265.149 17.365-17.365 17.365 17.365z"/><path d="m69.899 330.615-17.365-17.365 17.365-17.365z"/><path d="m135.365 361.351-17.365 17.365-17.365-17.365z"/></g><path d="m176 499.483c12.912 4.244 26.273 7.495 40 9.649v-62.882h-40z" fill="#c174dc"/><path d="m176 499.483c6.554 2.155 13.224 4.051 20 5.678v-58.911h-20z" fill="#ad61c8"/><path d="m276 187.75v251h159.503c47.21-46.44 76.497-111.045 76.497-182.5 0-23.728-3.242-46.696-9.283-68.5z" fill="#fff"/><path d="m435.708 439.25h-160.208v-252h227.597l.102.366c6.172 22.277 9.301 45.369 9.301 68.634 0 69.298-27.22 134.237-76.646 182.856zm-159.208-1h158.798c49.142-48.414 76.202-113.04 76.202-182 0-23.047-3.083-45.923-9.164-68h-225.836z"/><path d="m273.5 431.25c-4.142 0-7.5 3.358-7.5 7.5s3.358 7.5 7.5 7.5h154.06c5.296-4.785 10.383-9.793 15.262-15z" fill="#d587eb"/><path d="m306 438.75c0-4.142 3.358-7.5 7.5-7.5h-40c-4.142 0-7.5 3.358-7.5 7.5s3.358 7.5 7.5 7.5h40c-4.142 0-7.5-3.358-7.5-7.5z" fill="#c174dc"/><path d="m500.528 180.25h-227.028c-4.142 0-7.5 3.358-7.5 7.5 0 4.142 3.358 7.5 7.5 7.5h231.167c-1.236-5.058-2.606-10.064-4.139-15z" fill="#d587eb"/><path d="m306 187.75c0-4.142 3.358-7.5 7.5-7.5h-40c-4.142 0-7.5 3.358-7.5 7.5 0 4.142 3.358 7.5 7.5 7.5h40c-4.142 0-7.5-3.358-7.5-7.5z" fill="#c174dc"/><path d="m276 195.25v236h166.823c42.897-45.777 69.177-107.315 69.177-175 0-21.024-2.553-41.449-7.333-61z" fill="#c174dc"/><path d="m276 195.25h64.321v236h-64.321z" fill="#ad61c8"/><path d="m492 355.609v-120.359c-11.046 0-20-8.954-20-20h-156c0 11.046-8.954 20-20 20v156c11.046 0 20 8.954 20 20h143.738c12.958-17.006 23.845-35.673 32.262-55.641z" fill="#804096"/><path d="m340.321 215.25h-24.321c0 11.046-8.954 20-20 20v156c11.046 0 20 8.954 20 20h24.321z" fill="#632e6e"/><path d="m361.267 280.517h65.466v65.466h-65.466z" fill="#632e6e" transform="matrix(-1 0 0 -1 788 626.5)"/><path d="m384.466 238.25h-65.466v65.466z" fill="#632e6e"/><path d="m403.534 388.25h65.466v-65.466z" fill="#632e6e"/><path d="m319 322.784v65.466h65.466z" fill="#632e6e"/><path d="m469 303.716v-65.466h-65.466z" fill="#632e6e"/><path d="m345.899 295.885-17.365 17.365 17.365 17.365z" fill="#632e6e"/><path d="m64.321 238.25h-21.321v65.466l21.321-21.321z" fill="#572563"/><path d="m64.321 301.463-11.787 11.787 11.787 11.787z" fill="#572563"/><path d="m340.321 238.25h-21.321v65.466l21.321-21.321z" fill="#572563"/><path d="m340.321 301.463-11.787 11.787 11.787 11.787z" fill="#572563"/><path d="m340.321 344.105-21.321-21.321v65.466h21.321z" fill="#572563"/><path d="m411.365 265.149-17.365-17.365-17.365 17.365z" fill="#632e6e"/><path d="m442.101 330.615 17.365-17.365-17.365-17.365z" fill="#632e6e"/><path d="m376.635 361.351 17.365 17.365 17.365-17.365z" fill="#632e6e"/><path d="m296 509.132c13.727-2.154 27.088-5.405 40-9.649v-53.233h-40z" fill="#ad61c8"/><path d="m316 505.161c6.776-1.627 13.446-3.523 20-5.678v-53.233h-20z" fill="#c174dc"/><path d="m294.015 31.742-144.253-8.465c-59.973 27.393-107.528 77.254-131.892 138.827h12.5c1.876 0 3.657-.829 4.865-2.265l8.789-10.447c1.804-2.145 4.8-2.855 7.375-1.748l10.925 4.694c2.575 1.107 5.571.396 7.375-1.748l7.656-9.101c1.804-2.144 4.8-2.854 7.374-1.748l10.929 4.695c2.575 1.106 5.57.396 7.374-1.748l7.656-9.101c1.804-2.145 4.8-2.855 7.375-1.749l10.926 4.695c2.575 1.106 5.57.396 7.375-1.749l7.656-9.1c1.804-2.145 4.8-2.855 7.375-1.749l10.927 4.695c2.575 1.106 5.57.396 7.375-1.748l7.657-9.102c1.804-2.144 4.799-2.854 7.374-1.748l10.93 4.695c2.575 1.106 5.57.396 7.374-1.748l7.658-9.102c1.804-2.144 4.799-2.854 7.374-1.748l10.929 4.695c2.575 1.106 5.57.396 7.374-1.748l7.658-9.102c1.804-2.145 4.799-2.854 7.374-1.749l10.929 4.695c2.575 1.106 5.57.396 7.374-1.748l7.658-9.102c1.804-2.144 4.799-2.854 7.374-1.748l6.399 2.749c4.196 1.802 8.867-1.275 8.867-5.841v-51.141c0-3.367-2.624-6.15-5.985-6.347z" fill="#daf0f6"/><path d="m17.87 162.104h12.5c1.876 0 3.657-.829 4.865-2.265l8.789-10.447c1.804-2.145 4.8-2.855 7.375-1.748l10.925 4.694c2.575 1.107 5.571.396 7.375-1.748l7.656-9.1c1.804-2.145 4.8-2.855 7.374-1.749l10.929 4.695c2.575 1.106 5.57.396 7.374-1.748l7.656-9.101c1.804-2.145 4.8-2.855 7.375-1.749l10.926 4.695c2.575 1.106 5.57.396 7.375-1.749l7.656-9.1c1.804-2.145 4.8-2.855 7.375-1.748l10.927 4.695c2.575 1.106 5.57.396 7.375-1.748l7.657-9.101c1.804-2.144 4.799-2.854 7.374-1.748l10.93 4.695c2.575 1.106 5.57.396 7.374-1.749l7.658-9.102c1.804-2.144 4.799-2.854 7.374-1.748l10.929 4.695c2.575 1.106 5.57.396 7.374-1.748l7.658-9.102c1.804-2.144 4.799-2.854 7.374-1.748l10.929 4.695c2.575 1.106 5.57.396 7.374-1.748l7.658-9.102c1.804-2.144 4.799-2.854 7.374-1.748l6.399 2.749c4.196 1.802 8.867-1.275 8.867-5.841v-7.966h-230.837c-21.822 23.289-39.348 50.652-51.293 80.838z" fill="#bee5eb"/><path d="m64.321 344.105-21.321-21.321v65.466h21.321z" fill="#572563"/></svg>