<svg id="Capa_1" enable-background="new 0 0 512 512" height="512" viewBox="0 0 512 512" width="512" xmlns="http://www.w3.org/2000/svg"><circle cx="256" cy="256" fill="#40718c" r="256"/><path d="m204.246 47.034c0 11.046-8.954 20-20 20h-135.42c-11.046 0-20 8.954-20 20 0 11.046 8.954 20 20 20h58.337c11.046 0 20 8.954 20 20v34.883h82.674v-34.883c0-11.046 8.954-20 20-20h129.83c11.046 0 20-8.954 20-20 0-11.046 8.954-20 20-20h63.927c11.046 0 20-8.954 20-20 0-11.046-8.954-20-20-20h-239.348c-11.045 0-20 8.955-20 20z" fill="#daf0f6"/><path d="m206.964 329.536c-11.716-11.716-30.711-11.716-42.426 0l-98.296 98.296c13.483 14.88 28.697 28.159 45.315 39.538l95.407-95.407c11.715-11.716 11.715-30.711 0-42.427z" fill="#282e33"/><path d="m164.537 329.536-98.296 98.296c6.719 7.416 13.872 14.431 21.409 21.017l98.1-98.1c7.851-7.85 18.968-10.432 28.975-7.762-1.315-4.927-3.896-9.586-7.762-13.452-11.715-11.715-30.71-11.714-42.426.001z" fill="#343b41"/><path d="m445.759 427.832-98.296-98.296c-11.716-11.716-30.711-11.716-42.426 0-11.716 11.716-11.716 30.711 0 42.426l95.407 95.407c16.618-11.378 31.832-24.656 45.315-39.537z" fill="#343b41"/><path d="m326.25 350.749c-7.851-7.85-10.432-18.968-7.762-28.975-4.927 1.315-9.586 3.896-13.452 7.762-11.716 11.716-11.716 30.711 0 42.426l95.407 95.407c8.336-5.708 16.319-11.892 23.906-18.521z" fill="#282e33"/><path d="m87.389 158c-16.773 28.796-26.389 62.273-26.389 98 0 107.695 87.304 195 195 195s195-87.305 195-195c0-35.727-9.616-69.204-26.389-98z" fill="#343b41"/><path d="m101 256c0-35.727 9.616-69.204 26.389-98h-40c-16.773 28.796-26.389 62.273-26.389 98 0 107.695 87.304 195 195 195 6.752 0 13.424-.344 20-1.014-98.3-10.015-175-93.043-175-193.986z" fill="#282e33"/><path d="m436 178h-360c-11.046 0-20-8.954-20-20 0-11.046 8.954-20 20-20h360c11.046 0 20 8.954 20 20 0 11.046-8.954 20-20 20z" fill="#484e55"/><path d="m96 158c0-11.046 8.954-20 20-20h-40c-11.046 0-20 8.954-20 20 0 11.046 8.954 20 20 20h40c-11.046 0-20-8.954-20-20z" fill="#343b41"/><g fill="#484e55"><path d="m364.564 381.528c-3.884 0-7.764-1.499-10.7-4.487-5.807-5.909-5.723-15.406.187-21.212 5.273-5.182 10.174-10.817 14.564-16.75 4.928-6.66 14.322-8.063 20.98-3.135 6.659 4.928 8.063 14.321 3.135 20.98-5.322 7.193-11.263 14.025-17.654 20.305-2.92 2.868-6.718 4.299-10.512 4.299z"/><path d="m400.674 326.642c-1.796 0-3.622-.325-5.397-1.01-7.729-2.982-11.576-11.666-8.594-19.395 6.182-16.021 9.317-32.923 9.317-50.237 0-11.168-1.324-22.284-3.935-33.037-1.955-8.051 2.986-16.161 11.037-18.116 8.05-1.955 16.16 2.988 18.115 11.037 3.175 13.069 4.783 26.565 4.783 40.116 0 21.021-3.812 41.558-11.329 61.039-2.297 5.953-7.978 9.603-13.997 9.603z"/><path d="m256 367.68c-16.569 0-30 13.431-30 30v112.561c9.842 1.149 19.849 1.759 30 1.759s20.158-.61 30-1.759v-112.561c0-16.569-13.431-30-30-30z"/></g><path d="m226 397.68v112.561c9.842 1.149 19.849 1.759 30 1.759v-114.32c0-11.102 6.036-20.789 15-25.977-4.414-2.554-9.534-4.023-15-4.023-16.569 0-30 13.431-30 30z" fill="#282e33"/></svg>