<svg id="Capa_1" enable-background="new 0 0 512 512" height="512" viewBox="0 0 512 512" width="512" xmlns="http://www.w3.org/2000/svg"><circle cx="256" cy="256" fill="#804096" r="256"/><path d="m256 482c-60.367 0-117.12-23.508-159.806-66.194s-66.194-99.439-66.194-159.806 23.508-117.12 66.194-159.806 99.439-66.194 159.806-66.194 117.12 23.508 159.806 66.194 66.194 99.439 66.194 159.806-23.508 117.12-66.194 159.806-99.439 66.194-159.806 66.194z" fill="#ad61c8"/><path d="m479.774 287.842-138.049-24.342h140.139c.081-2.494.136-4.993.136-7.5s-.056-5.006-.136-7.5h-140.139l138.05-24.342c-.696-4.967-1.557-9.894-2.576-14.777l-138.08 24.347 131.798-47.971c-1.55-4.759-3.265-9.458-5.129-14.096l-131.796 47.97 121.464-70.127c-2.357-4.401-4.876-8.724-7.531-12.972l-121.434 70.11 107.379-90.102c-3.082-3.915-6.304-7.741-9.662-11.474l-107.36 90.086 90.086-107.36c-3.733-3.358-7.559-6.58-11.474-9.662l-90.101 107.379 70.11-121.434c-4.248-2.656-8.571-5.174-12.972-7.531l-70.127 121.464 47.97-131.796c-4.639-1.864-9.338-3.579-14.096-5.129l-47.971 131.798 24.347-138.08c-4.883-1.019-9.81-1.879-14.777-2.576l-24.343 138.05v-140.139c-2.494-.08-4.993-.136-7.5-.136s-5.006.056-7.5.136v140.139l-24.342-138.05c-4.967.696-9.894 1.557-14.777 2.576l24.347 138.08-47.97-131.798c-4.759 1.55-9.458 3.265-14.096 5.129l47.97 131.796-70.128-121.464c-4.401 2.357-8.724 4.876-12.972 7.531l70.11 121.434-90.102-107.379c-3.915 3.082-7.741 6.304-11.474 9.662l90.086 107.36-107.36-90.086c-3.358 3.733-6.58 7.559-9.662 11.474l107.379 90.101-121.434-70.11c-2.656 4.248-5.174 8.571-7.531 12.972l121.464 70.127-131.796-47.97c-1.864 4.639-3.579 9.338-5.129 14.096l131.798 47.971-138.08-24.347c-1.019 4.883-1.879 9.81-2.575 14.777l138.05 24.342h-140.14c-.08 2.495-.136 4.994-.136 7.501s.056 5.006.136 7.5h140.139l-138.05 24.342c.696 4.967 1.557 9.894 2.575 14.777l138.08-24.347-131.797 47.97c1.55 4.759 3.265 9.458 5.129 14.096l131.796-47.97-121.464 70.128c2.357 4.401 4.876 8.724 7.531 12.972l121.434-70.11-107.379 90.102c3.082 3.915 6.304 7.741 9.662 11.474l107.36-90.086-90.086 107.36c3.733 3.358 7.559 6.58 11.474 9.662l90.101-107.379-70.11 121.434c4.248 2.656 8.571 5.174 12.972 7.531l70.128-121.464-47.97 131.796c4.639 1.864 9.338 3.579 14.096 5.129l47.971-131.798-24.347 138.08c4.883 1.019 9.81 1.879 14.777 2.576l24.342-138.05v140.139c2.494.081 4.993.136 7.5.136s5.006-.056 7.5-.136v-140.139l24.342 138.05c4.967-.696 9.894-1.557 14.777-2.576l-24.347-138.08 47.971 131.798c4.759-1.55 9.458-3.265 14.096-5.129l-47.97-131.796 70.127 121.464c4.401-2.357 8.724-4.876 12.972-7.531l-70.11-121.434 90.102 107.379c3.915-3.082 7.741-6.304 11.474-9.662l-90.086-107.36 107.36 90.086c3.358-3.733 6.58-7.559 9.662-11.474l-107.379-90.101 121.434 70.11c2.656-4.248 5.174-8.571 7.531-12.972l-121.464-70.127 131.796 47.97c1.864-4.639 3.579-9.338 5.129-14.096l-131.798-47.971 138.08 24.347c1.019-4.884 1.879-9.811 2.575-14.778z" fill="#804096"/><circle cx="256" cy="256" fill="#d587eb" r="206"/><g fill="#804096"><path d="m201.445 201.445h109.11v109.11h-109.11z" transform="matrix(.707 .707 -.707 .707 256 -106.039)"/><path d="m355.624 178.847 77.153 77.153-77.153 77.153z"/><path d="m156.376 333.153-77.153-77.153 77.153-77.153z"/><path d="m333.153 355.624-77.153 77.153-77.153-77.153z"/><path d="m178.847 156.376 77.153-77.153 77.153 77.153z"/><path d="m333.153 292.223v40.93h-40.93z"/><path d="m292.223 178.847h40.93v40.93z"/><path d="m178.847 219.777v-40.93h40.93z"/><path d="m219.777 333.153h-40.93v-40.93z"/><path d="m427.832 222.771c-6.382-33.163-22.41-64.836-48.088-90.514s-57.352-41.706-90.514-48.088z"/><path d="m427.832 289.229-138.603 138.603c33.163-6.382 64.836-22.41 90.514-48.088s41.707-57.352 48.089-90.515z"/><path d="m84.168 289.229c6.382 33.163 22.41 64.836 48.088 90.514s57.352 41.706 90.514 48.088z"/><path d="m222.771 84.168c-33.163 6.382-64.836 22.41-90.514 48.088s-41.706 57.352-48.088 90.514z"/></g></svg>