<svg id="Capa_1" enable-background="new 0 0 512 512" height="512" viewBox="0 0 512 512" width="512" xmlns="http://www.w3.org/2000/svg"><circle cx="256" cy="256" fill="#804096" r="256"/><path d="m171.295 460.497-119.792-119.792v-169.41l119.792-119.792h169.41l119.792 119.792v169.41l-119.792 119.792z" fill="#fa9c8e"/><path d="m226.501 256c0-86.165 53.295-159.875 128.715-189.986l-14.511-14.511h-169.41l-119.792 119.792v169.411l119.792 119.792h169.411l14.511-14.511c-75.421-30.112-128.716-103.822-128.716-189.987z" fill="#fa877a"/><path d="m340.705 51.503-38.722 93.484 65.03 65.03 93.484-38.722z" fill="#fab0a5"/><path d="m460.497 340.705-93.484-38.722-65.03 65.03 38.722 93.484z" fill="#fab0a5"/><path d="m210.017 367.013-38.722 93.484-119.792-119.792 93.484-38.722z" fill="#fa9c8e"/><path d="m171.295 51.503 38.722 93.484-65.03 65.03-93.484-38.722z" fill="#fa9c8e"/><path d="m210.017 367.013-65.03-65.03v-91.966l65.03-65.03h91.966l65.03 65.03v91.966l-65.03 65.03z" fill="#ffcfc3"/><path d="m226.501 256c0-40.927 12.03-79.041 32.737-111.013h-49.221l-65.03 65.03v91.965l65.03 65.03h49.221c-20.706-31.971-32.737-70.085-32.737-111.012z" fill="#fab0a5"/><path d="m329.566 433.603 11.14 26.894 14.511-14.511c-8.874-3.542-17.442-7.684-25.651-12.383z" fill="#fa9c8e"/><path d="m355.216 66.014-14.511-14.511-11.14 26.894c8.21-4.699 16.778-8.841 25.651-12.383z" fill="#fa9c8e"/><g fill="#ffe473"><path d="m482 54.875h-34.75c-4.142 0-7.5-3.357-7.5-7.5s3.358-7.5 7.5-7.5h34.75c4.142 0 7.5 3.357 7.5 7.5s-3.358 7.5-7.5 7.5z"/><path d="m464.625 72.25c-4.142 0-7.5-3.357-7.5-7.5v-34.75c0-4.143 3.358-7.5 7.5-7.5s7.5 3.357 7.5 7.5v34.75c0 4.143-3.358 7.5-7.5 7.5z"/><path d="m78.348 26.203c5.127 17.011 18.437 30.321 35.449 35.449 8.271 2.493 8.271 14.204 0 16.697-17.011 5.127-30.321 18.437-35.449 35.449-2.493 8.271-14.204 8.271-16.697 0-5.127-17.011-18.437-30.321-35.449-35.449-8.271-2.493-8.271-14.204 0-16.697 17.011-5.127 30.321-18.437 35.449-35.449 2.494-8.271 14.204-8.271 16.697 0z"/></g><path d="m70 70c0-12.82 4.83-24.508 12.762-33.357-1.821-3.278-3.309-6.772-4.414-10.44-2.493-8.271-14.204-8.271-16.697 0-5.127 17.011-18.437 30.321-35.449 35.449-8.271 2.493-8.271 14.204 0 16.697 17.011 5.127 30.321 18.437 35.449 35.449 2.493 8.271 14.204 8.271 16.697 0 1.105-3.667 2.593-7.161 4.414-10.44-7.932-8.85-12.762-20.538-12.762-33.358z" fill="#ffcd61"/><path d="m376.858 259.28c5.127 17.011 18.437 30.321 35.449 35.449 8.271 2.493 8.271 14.204 0 16.697-17.011 5.127-30.321 18.437-35.449 35.449-2.493 8.271-14.204 8.271-16.697 0-5.127-17.011-18.437-30.321-35.449-35.449-8.271-2.493-8.271-14.204 0-16.697 17.011-5.127 30.321-18.437 35.449-35.449 2.494-8.27 14.205-8.27 16.697 0z" fill="#ffe473"/><path d="m368.51 303.077c0-12.82 4.83-24.508 12.762-33.357-1.821-3.278-3.309-6.772-4.414-10.44-2.493-8.271-14.204-8.271-16.697 0-5.127 17.011-18.437 30.321-35.449 35.449-8.271 2.493-8.271 14.204 0 16.697 17.011 5.127 30.321 18.437 35.449 35.449 2.493 8.271 14.204 8.271 16.697 0 1.105-3.667 2.593-7.161 4.414-10.44-7.932-8.85-12.762-20.538-12.762-33.358z" fill="#ffcd61"/></svg>