<svg id="Capa_1" enable-background="new 0 0 512 512" height="512" viewBox="0 0 512 512" width="512" xmlns="http://www.w3.org/2000/svg"><path d="m512 256c0 141.385-114.615 256-256 256-56.59 0-108.891-18.362-151.271-49.452-10.808-7.929-12.863-24.794-22.287-34.285-9.428-9.496-26.226-11.618-34.082-22.49-30.428-42.112-48.36-93.849-48.36-149.773 0-141.385 114.615-256 256-256s256 114.615 256 256z" fill="#484e55"/><path d="m48.374 405.763c15.708 21.739 34.745 40.91 56.366 56.771l118.476-118.476-56.569-56.569z" fill="#ffcd61"/><path d="m74.341 436.364c9.424 9.491 19.591 18.241 30.399 26.17l118.476-118.476-28.284-28.284z" fill="#f4be53"/><path d="m264.513 350h144.974l102.513-102.513v-144.974l-102.513-102.513h-144.974l-102.513 102.513v144.974z" fill="#fa9c8e"/><path d="m354.85 192.85c52.14-52.139 64.494-128.992 37.076-192.85h17.561l102.513 102.513v144.975l-102.513 102.512h-144.974l-102.513-102.513v-17.561c63.858 27.418 140.711 15.064 192.85-37.076z" fill="#fa877a"/><path d="m409.487 0-33.137 80h-78.7l-33.137-80z" fill="#fab0a5"/><path d="m162 102.513 80 33.137v78.7l-80 33.137z" fill="#fab0a5"/><path d="m297.65 270-33.137 80h144.974l-33.137-80z" fill="#fa9c8e"/><path d="m512 102.513-80 33.137v78.7l80 33.137z" fill="#fa9c8e"/><path d="m297.65 270h78.7l55.65-55.65v-78.7l-55.65-55.65h-78.7l-55.65 55.65v78.7z" fill="#ffcfc3"/><path d="m354.85 192.85c24.766-24.766 40.549-55.108 47.365-86.985l29.785 29.785v78.701l-55.65 55.649h-78.7l-29.784-29.784c31.876-6.817 62.219-22.6 86.984-47.366z" fill="#fab0a5"/><path d="m185.014 237.954-23.014 9.533v-17.561c7.513 3.226 15.204 5.904 23.014 8.028z" fill="#fff"/><path d="m161.5 248.235v-19.068l.697.299c7.437 3.193 15.157 5.886 22.949 8.005l1.413.384zm1-17.552v16.056l20.98-8.69c-7.116-2-14.164-4.475-20.98-7.366z"/><path d="m391.926 0h17.561l-9.533 23.014c-2.124-7.81-4.802-15.501-8.028-23.014z" fill="#fa9c8e"/><path d="m115.769 273.744h194.975v50h-194.975z" fill="#ffcd61" transform="matrix(-.707 -.707 .707 -.707 152.808 660.782)"/><path d="m235.977 316.464h50v60h-50z" fill="#f4be53" transform="matrix(.707 -.707 .707 .707 -168.549 286.016)"/><path d="m107.544 200.102 204.354 204.354c15.621 15.621 15.621 40.948 0 56.569s-40.948 15.621-56.569 0-15.621-40.948 0-56.569l-147.785-147.785c-15.621 15.621-40.948 15.621-56.569 0s-15.621-40.948 0-56.569 40.948-15.621 56.569 0z" fill="#ffe473"/><path d="m255.329 347.888 56.569 56.569c15.621 15.621 15.621 40.948 0 56.569s-40.948 15.621-56.569 0-15.621-40.948 0-56.569c15.621-15.622 15.621-40.948 0-56.569z" fill="#ffcd61"/></svg>