<svg id="Capa_1" enable-background="new 0 0 512 512" height="512" viewBox="0 0 512 512" width="512" xmlns="http://www.w3.org/2000/svg"><path d="m88.105 449.253h335.789c53.978-46.935 88.106-116.107 88.106-193.253 0-141.385-114.615-256-256-256s-256 114.615-256 256c0 77.146 34.128 146.318 88.105 193.253z" fill="#40718c"/><path d="m114.044 42.947c-24.322 16.238-45.714 36.519-63.196 59.899l213.831 77.995 69.632-16.106-42.988-57.097z" fill="#484e55"/><path d="m50.847 102.846 213.831 77.995 42.85-9.912-240.443-87.681c-5.725 6.257-11.15 12.794-16.238 19.598z" fill="#343b41"/><path d="m291.322 107.638-26.644 73.203 92.813 33.781c6.22 2.264 13.097-.943 15.361-7.163l18.446-50.679c2.264-6.22-.943-13.097-7.163-15.361z" fill="#daf0f6"/><path d="m372.852 207.459 8.198-22.524c-2.264 6.22-9.141 9.427-15.361 7.163l-92.813-33.781-8.198 22.524 92.813 33.781c6.22 2.264 13.097-.943 15.361-7.163z" fill="#bee5eb"/><path d="m88.105 449.253c44.947 39.082 103.656 62.747 167.895 62.747s122.948-23.665 167.895-62.747l-9.382-193.253h-317.026z" fill="#484e55"/><path d="m88.105 449.253c11.959 10.399 24.899 19.696 38.653 27.756l10.729-221.009h-40z" fill="#343b41"/><path d="m433.52 258.469h-355.04v90c0 5.523 4.477 10 10 10h335.04c5.523 0 10-4.477 10-10z" fill="#fa9c8e"/><path d="m128.48 358.469h-40c-5.523 0-10-4.477-10-10v-90h40v90c0 5.523 4.478 10 10 10z" fill="#fa877a"/><path d="m492 236h-472c-11.046 0-20 8.954-20 20 0 11.046 8.954 20 20 20h472c11.046 0 20-8.954 20-20 0-11.046-8.954-20-20-20z" fill="#484e55"/><path d="m40 256c0 11.046 8.954 20 20 20h-40c-11.046 0-20-8.954-20-20s8.954-20 20-20h40c-11.046 0-20 8.954-20 20z" fill="#343b41"/><g fill="#ffe473"><path d="m168.375 202.95h-34.75c-4.142 0-7.5-3.357-7.5-7.5s3.358-7.5 7.5-7.5h34.75c4.142 0 7.5 3.357 7.5 7.5s-3.358 7.5-7.5 7.5z"/><path d="m151 220.325c-4.142 0-7.5-3.357-7.5-7.5v-34.75c0-4.143 3.358-7.5 7.5-7.5s7.5 3.357 7.5 7.5v34.75c0 4.143-3.358 7.5-7.5 7.5z"/><path d="m310.401 52.471h-34.75c-4.143 0-7.5-3.357-7.5-7.5s3.357-7.5 7.5-7.5h34.75c4.143 0 7.5 3.357 7.5 7.5s-3.357 7.5-7.5 7.5z"/><path d="m293.026 69.846c-4.143 0-7.5-3.357-7.5-7.5v-34.75c0-4.143 3.357-7.5 7.5-7.5s7.5 3.357 7.5 7.5v34.75c0 4.142-3.357 7.5-7.5 7.5z"/><path d="m454.762 44.255c5.127 17.011 18.437 30.321 35.449 35.449 8.271 2.493 8.271 14.204 0 16.697-17.011 5.127-30.321 18.437-35.449 35.449-2.493 8.271-14.204 8.271-16.697 0-5.127-17.011-18.437-30.321-35.449-35.449-8.271-2.493-8.271-14.204 0-16.697 17.011-5.127 30.321-18.437 35.449-35.449 2.493-8.27 14.204-8.27 16.697 0z"/></g><path d="m446.413 88.052c0-12.82 4.83-24.508 12.762-33.357-1.821-3.278-3.309-6.772-4.414-10.44-2.493-8.271-14.204-8.271-16.697 0-5.127 17.011-18.437 30.321-35.449 35.449-8.271 2.493-8.271 14.204 0 16.697 17.011 5.127 30.321 18.437 35.449 35.449 2.493 8.271 14.204 8.271 16.697 0 1.105-3.667 2.593-7.161 4.414-10.44-7.932-8.85-12.762-20.538-12.762-33.358z" fill="#ffcd61"/></svg>