<svg id="Capa_1" enable-background="new 0 0 512 512" height="512" viewBox="0 0 512 512" width="512" xmlns="http://www.w3.org/2000/svg"><path d="m96.983 456.621h318.033c59.085-46.895 96.984-119.328 96.984-200.621 0-141.385-114.615-256-256-256s-256 114.615-256 256c0 81.293 37.899 153.726 96.983 200.621z" fill="#d587eb"/><path d="m206 304.27h100v119.397h-100z" fill="#ffc987"/><path d="m197.957 411.821c-38.556 7.946-73.151 23.621-100.974 44.8 43.676 34.665 98.925 55.379 159.017 55.379s115.341-20.714 159.017-55.379c-27.822-21.179-62.418-36.854-100.974-44.8z" fill="#484e55"/><path d="m214 508.556c13.666 2.257 27.694 3.444 42 3.444s28.334-1.187 42-3.444v-96.735h-84z" fill="#bee5eb"/><path d="m197.957 411.821c-38.556 7.946-73.151 23.621-100.974 44.8 12.78 10.143 26.557 19.081 41.15 26.666 30.733-34.697 76.505-60.476 129.854-71.466z" fill="#343b41"/><path d="m85.984 199.08c23.326-6.25 64.936 2.868 71.186 26.194s-25.226 52.027-48.552 58.278c-23.326 6.25-29.668-12.318-35.919-35.644-6.25-23.327-10.041-42.578 13.285-48.828z" fill="#ffc987"/><path d="m426.016 199.08c-23.326-6.25-64.936 2.868-71.186 26.194s25.226 52.027 48.552 58.278c23.326 6.25 29.668-12.318 35.919-35.644 6.25-23.327 10.041-42.578-13.285-48.828z" fill="#ffd5a0"/><path d="m99.718 205.254c0-86.312 69.97-156.282 156.282-156.282s156.282 69.97 156.282 156.282-22.838 174.016-156.282 174.016-156.282-87.704-156.282-174.016z" fill="#ffe2b8"/><path d="m139.719 205.254v-104.405c-24.865 27.676-40 64.271-40 104.405 0 86.312 22.838 174.016 156.281 174.016 1.88 0 3.73-.023 5.566-.058 1-.02 1.985-.051 2.973-.081.738-.022 1.477-.043 2.208-.07 1.313-.05 2.614-.11 3.904-.178.31-.016.618-.033.927-.05 1.487-.084 2.963-.176 4.421-.282h.001c-115.75-8.453-136.281-91.493-136.281-173.297z" fill="#ffd5a0"/><path d="m255.43 48.974c-86.3.308-156.186 72.644-155.704 158.944.062 11.072.516 22.152 1.544 33.052 13.101 0 24.466-9.05 27.398-21.819l13.656-59.462h113.676 113.667l13.656 59.462c2.932 12.769 14.297 21.819 27.398 21.819h.01c1.11-11.774 1.551-23.758 1.551-35.715-.001-86.503-70.278-156.59-156.852-156.281z" fill="#ff823b"/><path d="m256 333.107c-24.865 0-46.957-14.932-56.282-38.039-1.55-3.841.307-8.212 4.148-9.762 3.842-1.551 8.211.308 9.762 4.148 7.024 17.405 23.656 28.652 42.372 28.652s35.348-11.247 42.372-28.652c1.55-3.842 5.92-5.698 9.762-4.148s5.699 5.921 4.148 9.762c-9.325 23.108-31.417 38.039-56.282 38.039z" fill="#ffc987"/><path d="m256 276.067c-8.45 0-15.461-6.534-16.056-14.963l-8.188-115.959c-.409-5.786 4.175-10.704 9.975-10.704h28.538c5.8 0 10.384 4.919 9.975 10.704l-8.188 115.959c-.595 8.43-7.606 14.963-16.056 14.963z" fill="#ffd5a0"/><path d="m345.638 215.642c-4.368-4.476-10.597-7.127-17.436-6.702-11.139.691-20.204 9.757-20.896 20.896-.425 6.84 2.227 13.069 6.702 17.436 5.812 5.672 15.62 1.376 15.62-6.745 0-5.116 4.148-9.264 9.264-9.264 8.121-.001 12.418-9.809 6.746-15.621z" fill="#343b41"/><path d="m166.362 215.642c4.368-4.476 10.597-7.127 17.436-6.702 11.139.691 20.204 9.757 20.896 20.896.425 6.84-2.227 13.069-6.702 17.436-5.812 5.672-15.62 1.376-15.62-6.745 0-5.116-4.148-9.264-9.264-9.264-8.121-.001-12.418-9.809-6.746-15.621z" fill="#343b41"/><path d="m114.758 169.422h282.485l13.073-147.659c1.035-11.695-8.181-21.763-19.923-21.763h-268.786c-11.742 0-20.958 10.068-19.922 21.764z" fill="#484e55"/><path d="m161.607 0h-40c-11.742 0-20.958 10.068-19.922 21.764l13.073 147.659h40l-13.073-147.659c-1.036-11.696 8.18-21.764 19.922-21.764z" fill="#343b41"/><path d="m106.983 179.422h298.033c5.523 0 10-4.477 10-10v-43.061c0-5.523-4.477-10-10-10h-298.033c-5.523 0-10 4.477-10 10v43.061c0 5.523 4.477 10 10 10z" fill="#fa9c8e"/><path d="m136.983 169.422v-43.061c0-5.523 4.477-10 10-10h-40c-5.523 0-10 4.477-10 10v43.061c0 5.523 4.477 10 10 10h40c-5.523 0-10-4.477-10-10z" fill="#fa877a"/><path d="m204.327 402.039c-3.056 0-5.944 1.397-7.841 3.793l-6.06 7.655 49.574 25.013h32l49.574-25.012-6.06-7.655c-1.897-2.396-4.785-3.793-7.841-3.793h-103.346z" fill="#daf0f6"/><path d="m300.922 410.245c-17.087 0-44.922 19.56-44.922 19.56s-27.835-19.56-44.922-19.56-17.087 74.618 0 74.618 44.922-19.56 44.922-19.56 27.835 19.56 44.922 19.56 17.087-74.618 0-74.618z" fill="#fa877a"/><path d="m256 417.554c-11.046 0-20 8.954-20 20v20c0 11.046 8.954 20 20 20 11.046 0 20-8.954 20-20v-20c0-11.046-8.954-20-20-20z" fill="#fa9c8e"/><path d="m449.5 160.953h-387c-11.046 0-20 8.954-20 20 0 11.046 8.954 20 20 20h387c11.046 0 20-8.954 20-20 0-11.046-8.954-20-20-20z" fill="#484e55"/><path d="m82.5 180.953c0-11.046 8.954-20 20-20h-40c-11.046 0-20 8.954-20 20s8.954 20 20 20h40c-11.046 0-20-8.955-20-20z" fill="#343b41"/></svg>