<svg id="Capa_1" enable-background="new 0 0 512 512" height="512" viewBox="0 0 512 512" width="512" xmlns="http://www.w3.org/2000/svg"><path d="m60.034 420.73c-37.464-44.521-60.034-101.99-60.034-164.73 0-141.385 114.615-256 256-256s256 114.615 256 256z" fill="#804096"/><path d="m452.04 256v-233.57c0-12.37-10.03-22.4-22.4-22.4h-347.28c-12.37 0-22.4 10.03-22.4 22.4v398.21c46.19 54.94 115.06 90.19 192.18 91.33h3.883z" fill="#daf0f6"/><path d="m99.96 22.43c0-12.37 10.03-22.4 22.4-22.4h-40c-12.37 0-22.4 10.03-22.4 22.4v398.21c11.906 14.161 25.328 27.001 40 38.298z" fill="#bee5eb"/><path d="m356.551 247.042-82.986-104.8c-8.97-11.328-26.159-11.328-35.129 0l-82.986 104.8c-16.735 21.135-14.98 51.455 4.082 70.518 9.981 9.981 22.948 15.144 36.026 15.518v.037h25.612v33.939c0 6.187 5.015 11.202 11.202 11.202h45.893c6.187 0 11.202-5.015 11.202-11.202v-33.939h25.612v-.004c13.537-.041 27.062-5.222 37.39-15.55 19.062-19.064 20.817-49.385 4.082-70.519z" fill="#40718c"/><g fill="#3c5d78"><path d="m263.854 333.113v-.036c-13.078-.373-26.044-5.536-36.026-15.518-19.062-19.062-20.818-49.383-4.082-70.518l66.402-83.857-16.584-20.944c-8.97-11.328-26.159-11.328-35.129 0l-82.986 104.801c-16.735 21.135-14.98 51.455 4.082 70.518 9.981 9.981 22.948 15.144 36.026 15.518v.036h25.612v33.939c0 6.187 5.015 11.202 11.202 11.202h45.893c6.187 0 11.202-5.015 11.202-11.202v-33.939z"/><path d="m160.49 122.913c-3.031 0-5.885-1.851-7.019-4.854l-20.748-54.977-20.947 54.999c-1.475 3.87-5.807 5.814-9.678 4.339-3.871-1.474-5.813-5.807-4.339-9.678l26.5-69.581c.021-.057.044-.114.067-.17 1.403-3.431 4.705-5.65 8.412-5.654h.01c3.703 0 7.005 2.211 8.415 5.637.028.068.055.137.082.207l26.26 69.583c1.462 3.875-.494 8.203-4.369 9.665-.871.328-1.766.484-2.646.484z"/><path d="m152.357 105.582h-39.324c-4.142 0-7.5-3.358-7.5-7.5s3.358-7.5 7.5-7.5h39.324c4.142 0 7.5 3.358 7.5 7.5s-3.357 7.5-7.5 7.5z"/></g><path d="m296 508.882 212.882-212.882c2.045-13.034 3.118-26.391 3.118-40h-233.595c-12.374 0-22.405 10.031-22.405 22.405v233.595c13.609 0 26.966-1.072 40-3.118z" fill="#daf0f6"/><path d="m256 278.405v233.595c13.609 0 26.966-1.072 40-3.118v-230.477c0-12.374 10.031-22.405 22.405-22.405h-40c-12.374 0-22.405 10.031-22.405 22.405z" fill="#bee5eb"/><path d="m296 508.882c109.349-17.159 195.723-103.533 212.882-212.882h-212.882z" fill="#fa9c8e"/><path d="m296 508.882c13.727-2.154 27.088-5.405 40-9.649v-203.233h-40z" fill="#fa877a"/></svg>