<svg id="Capa_1" enable-background="new 0 0 512 512" height="512" viewBox="0 0 512 512" width="512" xmlns="http://www.w3.org/2000/svg"><path d="m470.992 395.01c25.938-40.032 41.008-87.759 41.008-139.01 0-141.385-114.615-256-256-256s-256 114.615-256 256c0 51.251 15.07 98.978 41.008 139.01z" fill="#ffe473"/><path d="m471 20v375.01c-11.36 17.54-24.81 33.6-40 47.84-12.26 11.48-270.81 55.07-310 30.7v-453.55c0-11.05 8.95-20 20-20h310c11.05 0 20 8.95 20 20z" fill="#ba623e"/><path d="m431 20v256.822h-310v-256.822c0-11.05 8.95-20 20-20h270c11.05 0 20 8.95 20 20z" fill="#964f32"/><path d="m431 50v392.85c-11.56 10.82-23.678 20.708-40 30.7l-220-1.55c-5.52 0-10-4.48-10-10v-412c0-5.52 4.48-10 10-10h250c5.52 0 10 4.48 10 10z" fill="#daf0f6"/><path d="m391 20v453.55c-39.19 24.37-85.45 38.45-135 38.45s-95.81-14.08-135-38.45c-14.34-8.92-27.74-19.22-40-30.7-15.19-14.24-28.64-30.3-40-47.84v-375.01c0-11.05 8.95-20 20-20h310c11.05 0 20 8.95 20 20z" fill="#d27347"/><g fill="#ba623e"><path d="m111 20c0-11.05 8.95-20 20-20h-70c-11.05 0-20 8.95-20 20v375.01c11.36 17.54 24.81 33.6 40 47.84 9.363 8.768 19.396 16.841 30 24.143z"/><path d="m157.069 115.659h117.863v117.863h-117.863z"/><path d="m233.164 39.564h117.863v117.862z"/><path d="m198.836 309.618h-117.863v-117.863z"/><path d="m351.027 191.755v117.863h-117.863z"/><path d="m80.973 157.426v-117.862h117.863z"/><path d="m302.599 143.327 31.264 31.264-31.264 31.263z"/><path d="m184.737 87.992 31.263-31.264 31.263 31.264z"/><path d="m129.401 205.854-31.264-31.263 31.264-31.264z"/><path d="m247.263 261.19-31.263 31.263-31.263-31.263z"/><path d="m256 512c6.368 0 12.68-.237 18.931-.694v-100.15h-117.862v81.016c30.436 12.766 63.857 19.828 98.931 19.828z"/><path d="m233.164 335.061h117.863v117.862z"/><path d="m302.599 438.824 31.264 31.264-31.264 31.263z"/><path d="m184.737 383.489 31.263-31.264 31.263 31.264z"/><path d="m129.401 438.824-24.122 24.122c5.101 3.721 10.345 7.26 15.721 10.604 2.764 1.719 5.568 3.381 8.401 4.996z"/><path d="m80.973 442.798c1.743 1.634 3.51 3.242 5.298 4.828l112.564-112.564h-117.862z"/></g><path d="m111 39.564h-30.027v117.862l30.027-30.027z" fill="#964f32"/><path d="m111 161.728-12.862 12.863 12.862 12.862z" fill="#964f32"/><path d="m111 221.782-30.027-30.027v117.863h30.027z" fill="#964f32"/><path d="m111 422.896v-87.836h-30.027v107.737c1.743 1.634 3.51 3.242 5.298 4.828z" fill="#964f32"/><path d="m111 457.225-5.708 5.708c.487.356.971.716 1.461 1.068.213.153.427.306.641.458 1.101.786 2.207 1.564 3.321 2.333.095.066.19.131.286.197v-9.764z" fill="#964f32"/></svg>