<svg id="Capa_1" enable-background="new 0 0 512 512" height="512" viewBox="0 0 512 512" width="512" xmlns="http://www.w3.org/2000/svg"><circle cx="256" cy="256" fill="#804096" r="256"/><path d="m512 140c0 12.41-5.65 23.49-14.52 30.82-6.92 5.74-15.8 9.18-25.48 9.18h-76c-11.05 0-20 8.95-20 20v282.18c-24.56 13.06-51.5 22.24-80 26.71v-103.07c0-11.04-4.48-21.04-11.72-28.28s-17.24-11.72-28.28-11.72c-22.09 0-40 17.91-40 40v103.07c-28.5-4.47-55.44-13.65-80-26.71v-282.18c0-11.05-8.95-20-20-20h-76c-9.68 0-18.56-3.44-25.48-9.18-.97-.8-1.91-1.65-2.8-2.54-7.24-7.24-11.72-17.24-11.72-28.28 0-22.09 17.91-40 40-40h432c11.04 0 21.04 4.48 28.28 11.72s11.72 17.24 11.72 28.28z" fill="#ffcd61"/><path d="m216 100v408.89c-28.5-4.47-55.44-13.65-80-26.71v-282.18c0-11.05-8.95-20-20-20h-76c-9.68 0-18.56-3.44-25.48-9.18-.97-.8-1.91-1.65-2.8-2.54-7.24-7.24-11.72-17.24-11.72-28.28 0-22.09 17.91-40 40-40z" fill="#f4be53"/><circle cx="256" cy="100" fill="#ffe473" r="100"/><path d="m196 100c0-48.379 34.355-88.732 80-97.998-6.462-1.312-13.15-2.002-20-2.002-55.229 0-100 44.771-100 100 0 55.228 44.771 100 100 100 6.85 0 13.538-.69 20-2.002-45.645-9.266-80-49.619-80-97.998z" fill="#ffcd61"/><path d="m410 56.473h-102.333c-4.143 0-7.5-3.357-7.5-7.5s3.357-7.5 7.5-7.5h102.333c4.143 0 7.5 3.357 7.5 7.5s-3.357 7.5-7.5 7.5z" fill="#daf0f6"/><circle cx="410" cy="48.973" fill="#fa9c8e" r="20"/><path d="m410 48.973c0-7.398 4.028-13.843 10-17.303-2.944-1.706-6.353-2.697-10-2.697-11.046 0-20 8.954-20 20s8.954 20 20 20c3.647 0 7.056-.992 10-2.697-5.972-3.461-10-9.905-10-17.303z" fill="#fa877a"/><path d="m450.167 257.356h-102.334c-4.143 0-7.5-3.357-7.5-7.5s3.357-7.5 7.5-7.5h102.334c4.143 0 7.5 3.357 7.5 7.5s-3.357 7.5-7.5 7.5z" fill="#daf0f6"/><circle cx="450.167" cy="249.856" fill="#fa9c8e" r="20"/><path d="m450.167 249.856c0-7.398 4.028-13.843 10-17.303-2.944-1.706-6.353-2.697-10-2.697-11.046 0-20 8.954-20 20s8.954 20 20 20c3.647 0 7.056-.992 10-2.697-5.973-3.46-10-9.904-10-17.303z" fill="#fa877a"/><path d="m164.167 323.91h-102.334c-4.143 0-7.5-3.357-7.5-7.5s3.357-7.5 7.5-7.5h102.334c4.143 0 7.5 3.357 7.5 7.5s-3.357 7.5-7.5 7.5z" fill="#daf0f6"/><circle cx="61.833" cy="316.411" fill="#fa9c8e" r="20"/><path d="m61.833 316.411c0-7.398 4.028-13.843 10-17.303-2.944-1.706-6.353-2.697-10-2.697-11.046 0-20 8.954-20 20s8.954 20 20 20c3.647 0 7.056-.992 10-2.697-5.972-3.46-10-9.905-10-17.303z" fill="#fa877a"/><g fill="#f4be53"><path d="m276 240.298h-120c-4.142 0-7.5-3.358-7.5-7.5 0-4.142 3.358-7.5 7.5-7.5h120c4.142 0 7.5 3.358 7.5 7.5 0 4.142-3.358 7.5-7.5 7.5z"/><path d="m376 331.411h-45.167c-4.142 0-7.5-3.358-7.5-7.5 0-4.142 3.358-7.5 7.5-7.5h45.167z"/><path d="m296 441.621h15.167c4.142 0 7.5 3.358 7.5 7.5 0 4.142-3.358 7.5-7.5 7.5h-15.167z"/></g><path d="m350.977 131.362h-56.643c-4.142 0-7.5 3.358-7.5 7.5s3.358 7.5 7.5 7.5h50.285c2.508-4.785 4.641-9.798 6.358-15z" fill="#ffcd61"/></svg>