<svg id="Capa_1" enable-background="new 0 0 512 512" height="512" viewBox="0 0 512 512" width="512" xmlns="http://www.w3.org/2000/svg"><path d="m96.983 456.621h318.033c59.085-46.895 96.984-119.328 96.984-200.621 0-141.385-114.615-256-256-256s-256 114.615-256 256c0 81.293 37.899 153.726 96.983 200.621z" fill="#804096"/><path d="m197.957 411.821c-38.556 7.946-73.151 23.621-100.974 44.8 43.676 34.665 98.925 55.379 159.017 55.379s115.341-20.714 159.017-55.379c-27.822-21.179-62.418-36.854-100.974-44.8z" fill="#c174dc"/><path d="m197.957 411.821c-38.556 7.946-73.151 23.621-100.974 44.8 12.78 10.143 26.557 19.081 41.15 26.666 30.733-34.697 76.505-60.476 129.854-71.466z" fill="#ad61c8"/><path d="m85.984 199.08c23.326-6.25 64.936 2.868 71.186 26.194s-25.226 52.027-48.552 58.278c-23.326 6.25-29.668-12.318-35.919-35.644-6.25-23.327-10.041-42.578 13.285-48.828z" fill="#ffd5a0"/><path d="m426.016 199.08c-23.326-6.25-64.936 2.868-71.186 26.194s25.226 52.027 48.552 58.278c23.326 6.25 29.668-12.318 35.919-35.644 6.25-23.327 10.041-42.578-13.285-48.828z" fill="#ffd5a0"/><path d="m444.049 39.99c0-15.009-100.049-39.99-188.049-39.99-56.182 0-188.049 169.422-188.049 169.422h188.049 188.049s-42.764-54.943-89.962-102.252c45.62-9.136 89.962-19.891 89.962-27.18z" fill="#c174dc"/><path d="m295.733 49.278c10.329-10.884 27.467-11.416 38.498-1.245 6.69 6.169 13.398 12.661 20.018 19.3-.054-.054-.108-.109-.162-.163 45.62-9.136 89.962-19.891 89.962-27.18 0-15.009-100.049-39.99-188.049-39.99-56.182 0-188.049 169.422-188.049 169.422h113.768z" fill="#ad61c8"/><path d="m256 467.554c-86.312 0-156.282-69.97-156.282-156.281v-141.85h312.563v141.85c.001 86.311-69.969 156.281-156.281 156.281z" fill="#fff"/><path d="m139.719 311.273v-141.85h-40v141.85c0 86.312 69.97 156.281 156.281 156.281 6.776 0 13.451-.432 20-1.269-76.867-9.819-136.281-75.477-136.281-155.012z" fill="#daf0f6"/><path d="m322.281 276.067h-132.562c-27.614 0-50-22.386-50-50v-56.645h232.563v56.645c-.001 27.615-22.386 50-50.001 50z" fill="#ffe2b8"/><path d="m181.719 226.067v-56.645h-42v56.645c0 27.614 22.386 50 50 50h42c-27.615 0-50-22.385-50-50z" fill="#ffd5a0"/><path d="m256 236.067c-28.311 0-51.261 22.95-51.261 51.261 0 15.872 12.867 28.739 28.739 28.739h45.044c15.872 0 28.739-12.867 28.739-28.739 0-28.31-22.95-51.261-51.261-51.261z" fill="#fff"/><path d="m244.739 287.328c0-21.215 12.888-39.418 31.261-47.212-6.145-2.607-12.904-4.049-20-4.049-28.311 0-51.261 22.95-51.261 51.261 0 15.872 12.867 28.739 28.739 28.739h40c-15.872.001-28.739-12.867-28.739-28.739z" fill="#daf0f6"/><path d="m233.47 169.422 6.474 91.682c.595 8.429 7.607 14.963 16.057 14.963s15.461-6.534 16.057-14.963l6.474-91.682z" fill="#ffd5a0"/><path d="m345.638 215.642c-4.368-4.476-10.597-7.127-17.436-6.702-11.139.691-20.204 9.757-20.896 20.896-.425 6.84 2.227 13.069 6.702 17.436 5.812 5.672 15.62 1.376 15.62-6.745 0-5.116 4.148-9.264 9.264-9.264 8.121-.001 12.418-9.809 6.746-15.621z" fill="#343b41"/><path d="m166.362 215.642c4.368-4.476 10.597-7.127 17.436-6.702 11.139.691 20.204 9.757 20.896 20.896.425 6.84-2.227 13.069-6.702 17.436-5.812 5.672-15.62 1.376-15.62-6.745 0-5.116-4.148-9.264-9.264-9.264-8.121-.001-12.418-9.809-6.746-15.621z" fill="#343b41"/><path d="m52.5 200.953h407c5.523 0 10-4.477 10-10v-43.061c0-5.523-4.477-10-10-10h-407c-5.523 0-10 4.477-10 10v43.061c0 5.523 4.477 10 10 10z" fill="#d587eb"/><path d="m85 190.953v-43.061c0-5.523 4.477-10 10-10h-42.5c-5.523 0-10 4.477-10 10v43.061c0 5.523 4.477 10 10 10h42.5c-5.523 0-10-4.478-10-10z" fill="#c174dc"/></svg>