<svg id="Layer_1" enable-background="new 0 0 511 511" height="512" viewBox="0 0 511 511" width="512" xmlns="http://www.w3.org/2000/svg"><g><g><path d="m269 .366-11.193 8.41-15.807-8.41c-86.216 4.683-138.74 52.775-138.892 52.86 0 0-2.413 3.011-2.864 5.013-3.665 16.27-7.09 38.075-7.09 53.987 0 135.195 114.01 244.766 249.205 244.766 52.061 0 109.982-24.951 148.747-54.952.867-.671 3.618-5.18 3.618-5.18.171-1.043 5.568-22.537 5.568-52.068.001-130.665-102.375-237.419-231.292-244.426z" fill="#dff6fd"/><g><path d="m494.725 296.861c-41.816 33.307-94.772 53.222-152.387 53.222-135.195 0-244.793-109.598-244.793-244.793 0-17.87 1.927-35.282 5.563-52.063-.006.004.006-.004 0 0-56.298 44.849-92.401 113.993-92.401 191.566 0 135.195 109.598 244.793 244.793 244.793 116.32 0 215.146-81.578 239.225-192.725z" fill="#c4e2ff"/></g></g><g><path d="m306.525 83.603c-22.281-6.857-37.525-27.385-37.525-50.698v-32.539c-4.469-.243-8.97-.366-13.5-.366-4.587 0-9.087.127-13.5.366v32.536c0 23.176-15.005 43.823-37.17 50.592-45.541 13.907-83.114 46.071-104.189 87.962 27.445 106.571 126.948 185.536 241.718 185.536 17.921 0 36.536-2.957 54.825-8.058 19.884-28.198 31.562-62.597 31.562-99.723.001-77.922-51.443-143.827-122.221-165.608z" fill="#fd3581"/><g><path d="m405.509 335.928c-26.566 16.555-57.934 26.127-91.543 26.118-95.332-.026-173.262-78.033-173.198-173.365.021-31.551 8.481-61.127 23.238-86.599-49.081 30.587-81.752 85.038-81.752 147.129 0 64.479 35.23 120.722 87.486 150.552 7.422 4.237 12.077 12.05 12.077 20.596v37.938c0 9.248 7.568 17.102 16.814 16.93 8.967-.167 16.186-7.489 16.186-16.497v-29.301c0-5.956 5.361-10.478 11.231-9.474l.195.033c4.613.789 7.987 4.788 7.987 9.468v53.471c0 14.984 11.748 27.65 26.726 28.061 15.541.427 28.274-12.044 28.274-27.489v-54.417c0-5.714 3.906-10.646 9.441-12.067.085-.022.171-.044.256-.066 7.919-2.046 15.661 3.829 15.661 12.009v18.438c0 9.248 7.568 17.102 16.814 16.93 8.967-.167 16.186-7.489 16.186-16.497 0 0-.012-21.633-.024-36.948-.007-9.026 4.348-17.439 11.577-22.845 18.753-14.021 34.574-31.751 46.368-52.108z" fill="#e41e7f"/></g><g><circle cx="255.5" cy="249.211" fill="#fff" r="147.641"/></g><g><path d="m293.753 352.305c-81.54 0-147.641-66.101-147.641-147.641 0-26.133 6.799-50.674 18.71-71.967-34.665 27.017-56.963 69.16-56.963 116.514 0 81.54 66.101 147.641 147.641 147.641 55.407 0 103.677-30.527 128.931-75.674-25.024 19.504-56.492 31.127-90.678 31.127z" fill="#f9f3f1"/></g><g><circle cx="255.5" cy="264.212" fill="#f9f3f1" r="65.906"/></g><g><circle cx="255.5" cy="249.211" fill="#00f2a6" r="65.906"/></g><g><path d="m269.053 297.535c-36.399 0-65.906-29.507-65.906-65.906 0-11.145 2.777-21.637 7.661-30.841-13.04 12.041-21.213 29.275-21.213 48.423 0 36.399 29.507 65.906 65.906 65.906 25.254 0 47.179-14.21 58.245-35.065-11.748 10.848-27.443 17.483-44.693 17.483z" fill="#14d1b2"/></g><g><circle cx="255.5" cy="249.211" fill="#004281" r="28.49"/></g><path d="m376.611 150.565c-7.118 5.41-16.877 5.733-24.337.804l-6.333-4.184c-2.304-1.522-5.406-.888-6.928 1.416-1.522 2.304-.888 5.406 1.416 6.928l11.982 7.916c1.896 1.253 1.987 4.003.178 5.379l-6.123 4.654c-3.141 2.388-5.448 5.707-6.589 9.484l-4.202 13.902c-.799 2.643.696 5.434 3.339 6.233 2.643.799 5.434-.696 6.233-3.34l3.263-10.796c1.142-3.777 3.448-7.097 6.59-9.485l27.563-20.949z" fill="#fd3581"/><g><path d="m363.057 351.722-6.286-31.026c-.893-4.406-4.766-7.573-9.261-7.573-7.454 0-13.496-6.042-13.496-13.496v-13.256c0-2.761 2.239-5 5-5 2.761 0 5 2.239 5 5v9.693c0 3.899 3.16 7.059 7.059 7.059 7.18 0 13.366 5.059 14.792 12.096l6.993 34.517z" fill="#fd3581"/></g><g><path d="m160.059 377.234-6.691-7.431 16.626-14.973c2.965-2.67 6.813-4.147 10.802-4.147h12.521c2.761 0 5 2.239 5 5 0 2.761-2.239 5-5 5h-8.681c-3.989 0-7.837 1.477-10.802 4.147z" fill="#e41e7f"/></g><g><path d="m115.001 319.651-3.791-9.254 10.367-4.247c3.295-1.35 6.11-3.657 8.08-6.623l1.885-2.838c1.528-2.3 4.631-2.926 6.931-1.398 2.3 1.528 2.926 4.632 1.398 6.932l-3.584 5.395c-1.97 2.966-4.785 5.272-8.079 6.622z" fill="#e41e7f"/></g><path d="m165.155 197.583-30.535-3.34c-4.054-.443-7.786-2.42-10.431-5.524l-12.524-14.7-7.611 6.485 15.1 17.723c2.645 3.105 6.377 5.081 10.431 5.524l7.868.861c2.24.245 3.964 2.092 4.054 4.343l.28 6.971c.111 2.759 2.437 4.906 5.197 4.795 2.759-.111 4.906-2.438 4.795-5.197l-.165-4.103c-.112-2.782 2.277-5.012 5.044-4.709l7.409.81c2.745.3 5.213-1.681 5.514-4.426.301-2.744-1.68-5.213-4.426-5.513z" fill="#e41e7f"/><g><circle cx="276.53" cy="225.43" fill="#fff" r="14.801"/></g></g></g></svg>