<svg id="Layer_1" enable-background="new 0 0 510 510" height="512" viewBox="0 0 510 510" width="512" xmlns="http://www.w3.org/2000/svg"><g><g><path d="m495.331 169.551-81.417-113.991c-43.585-34.774-98.822-55.56-158.914-55.56-46.606 0-84.713 12.486-111.899 25.607l-57.216 91.299c0 140.833 118.763 254.972 259.596 254.972 54.231 0 114.568-25.992 154.949-57.243.903-.699 3.769-5.396 3.769-5.396.178-1.087 5.8-23.477 5.8-54.239.001-29.972-5.17-58.736-14.668-85.449z" fill="#004281"/><path d="m345.459 364.679c-140.833 0-255-114.167-255-255l-26.732-23.301c-39.656 44.946-63.727 103.974-63.727 168.622 0 33.03 6.28 64.594 17.711 93.562l28.607 17.656-2.768 31.355c45.825 67.83 123.43 112.427 211.45 112.427 121.17 0 224.116-84.98 249.2-200.761-43.56 34.695-98.725 55.44-158.741 55.44z" fill="#00366d"/></g><path d="m399.174 246.585c-36.86 16.99-79.51 22.09-121.99 11.663-99.683-24.468-160.657-125.112-136.19-224.795.649-2.644 1.352-5.259 2.107-7.846-30.054 14.506-46.761 29.789-46.848 29.838-11.727 9.343-22.613 19.698-32.526 30.933-5.016 10.792-9.064 22.225-12.008 34.219-24.467 99.683 36.507 200.327 136.19 224.794 85.765 21.052 173.395-21.213 211.265-98.806z" fill="#ffe177"/><path d="m495.331 169.551c-16.089-45.248-44.594-84.611-81.417-113.99-12.866 7.512-22.228 20.371-25.048 35.53-1.364-.182-2.752-.285-4.166-.285-17.199 0-31.141 13.943-31.141 31.141 0 3.604.619 7.061 1.745 10.28h-1.004c-10.407 0-18.844 8.437-18.844 18.844s8.437 18.843 18.844 18.843h137.336c1.265-.001 2.5-.126 3.695-.363z" fill="#dff6fd"/><path d="m159.977 327.388c-1.242-28.491-24.725-51.21-53.521-51.21-26.223 0-48.032 18.843-52.661 43.724-1.399-.187-2.824-.293-4.274-.293-16.634 0-30.299 12.713-31.81 28.952 7.327 18.568 16.771 36.07 28.034 52.208h113.486c10.677 0 19.332-8.655 19.332-19.332 0-5.295-2.133-10.09-5.582-13.581 3.799-4.366 6.115-10.056 6.115-16.298.001-11.751-8.161-21.574-19.119-24.17z" fill="#dff6fd"/><g><g><g><path d="m265.876 321.692-65.371 7.352c-12.715-.378-25.074 4.228-34.441 12.835-8.706 8-14.209 18.892-15.484 30.647l-4.945 45.607 26.209-17.672c7.977-5.378 17.54-7.783 27.064-6.804l35.543 3.651 1.719-14.723c1.408-12.053 11.079-21.368 22.997-22.15z" fill="#814ba1"/></g><g><path d="m262.123 325.445 7.352-65.371c-.378-12.715 4.228-25.074 12.835-34.441 8-8.706 18.892-14.209 30.647-15.484l45.607-4.945-17.672 26.209c-5.378 7.977-7.783 17.54-6.804 27.064l3.651 35.543-14.723 1.719c-12.053 1.408-21.368 11.079-22.15 22.997z" fill="#814ba1"/></g></g><path d="m263.716 304.699c-.614-1.129-1.399-2.19-2.354-3.145-1.216-1.216-2.605-2.156-4.087-2.819-3.629-1.624-8.842-5.244-11.564-7.21-.501-.362-1.187.098-1.034.696.838 3.278-.149 6.815-2.641 9.281-.017.017-.035.034-.052.052s-.035.035-.052.052c-2.452 2.478-5.963 3.467-9.225 2.655-.604-.15-1.061.542-.69 1.042 1.979 2.659 5.525 7.658 7.005 11.214.839 2.015 2.18 3.87 4.024 5.375.658.537 1.356 1.002 2.083 1.397.664 7.929 5.077 17.024 12.673 24.62 12.98 12.98 30.338 16.666 38.77 8.234s4.746-25.79-8.234-38.77c-7.595-7.598-16.693-12.011-24.622-12.674z" fill="#814ba1"/></g><g><g><g><path d="m392.501 420.41-40.461-32.28c-6.864-7.284-16.303-11.598-26.303-12.021-9.295-.393-18.416 2.605-25.666 8.437l-28.125 22.623 24.414 4.75c7.43 1.446 14.089 5.429 18.843 11.272l17.744 21.806 9.148-7.235c7.489-5.923 18.053-5.725 25.119.471z" fill="#af66da"/></g><g><path d="m388.326 420.41 40.461-32.28c6.864-7.284 16.303-11.598 26.303-12.021 9.295-.393 18.416 2.605 25.666 8.437l28.125 22.623-24.414 4.75c-7.43 1.446-14.089 5.429-18.843 11.272l-17.744 21.806-9.148-7.235c-7.489-5.923-18.053-5.725-25.119.471z" fill="#af66da"/></g></g><g><path d="m400.754 409.754c.287-.97.44-1.997.44-3.06 0-1.354-.25-2.649-.705-3.842-1.116-2.923-2.002-7.837-2.423-10.445-.077-.48-.715-.606-.962-.188-1.358 2.29-3.874 3.709-6.633 3.694-.019 0-.038 0-.058 0s-.039 0-.058 0c-2.743.014-5.247-1.389-6.61-3.655-.252-.42-.892-.289-.963.196-.379 2.581-1.187 7.334-2.342 10.137-.654 1.588-.94 3.366-.751 5.229.067.665.197 1.312.382 1.936-4.042 4.781-6.647 12.296-6.647 20.749 0 14.443 7.606 26.151 16.989 26.151s16.989-11.708 16.989-26.151c.001-8.453-2.605-15.97-6.648-20.751z" fill="#af66da"/></g></g><g fill="#fef48b"><circle cx="271.767" cy="145.425" r="8.364"/><circle cx="180.377" cy="82.716" r="10.389"/><circle cx="273.587" cy="49.485" r="10.184"/><circle cx="454.678" cy="282.254" r="6.076"/><circle cx="230.247" cy="450.827" r="5.83"/><circle cx="30.881" cy="270.751" r="5.427"/></g></g></svg>