<svg id="Layer_1" enable-background="new 0 0 510 510" height="512" viewBox="0 0 510 510" width="512" xmlns="http://www.w3.org/2000/svg"><g><g><path d="m497.605 176.243-109.547-138.819c-38.736-23.739-84.299-37.424-133.058-37.424-98.131 0-158.58 55.352-158.747 55.445 0 0-2.513 3.137-2.983 5.222-3.818 16.948-7.385 39.663-7.385 56.238 0 140.833 118.763 254.972 259.596 254.972 54.231 0 114.568-25.992 154.949-57.243.903-.699 3.77-5.396 3.77-5.396.177-1.087 5.8-23.477 5.8-54.239 0-27.484-4.348-53.953-12.395-78.756z" fill="#bd80e1"/><path d="m345.459 364.679c-140.833 0-255-114.167-255-255 0-18.615 2.008-36.753 5.795-54.234-58.645 46.72-96.254 118.747-96.254 199.555 0 97.731 54.979 182.62 135.695 225.427l5.068-8.964 4.932 13.989c33.128 15.74 70.188 24.548 109.305 24.548 39.133 0 76.366-8.864 109.689-24.766l4.999-23.019 5 17.973c64.861-34.533 113.349-96.348 129.511-170.95-43.559 34.696-98.724 55.441-158.74 55.441z" fill="#af66da"/></g><g><path d="m145.696 374.013c0-2.762-2.239-5-5-5s-5 2.238-5 5v106.414c3.291 1.745 6.625 3.421 10 5.025z" fill="#004281"/><path d="m369.688 403.814c-2.762 0-5 2.238-5 5v76.419c3.374-1.61 6.708-3.292 10-5.045v-71.375c0-2.761-2.238-4.999-5-4.999z" fill="#004281"/><path d="m388.057 37.424c-5.999-.983-12.132-1.492-18.37-1.492-70.698 0-128.011 65.335-128.011 145.93 0 80.594 57.312 203.172 128.011 203.172 70.698 0 128.011-122.577 128.011-203.172 0-1.882-.031-3.755-.093-5.619-18.908-58.287-58.237-107.373-109.548-138.819z" fill="#fff"/><g><path d="m408.072 318.791c-59.29 0-107.353-102.797-107.353-170.385 0-50.36 26.686-93.608 64.815-112.388-68.775 2.501-123.857 66.836-123.857 145.845 0 80.595 57.312 203.172 128.011 203.172 50.31 0 93.834-62.074 114.757-126.919-19.463 34.556-46.49 60.675-76.373 60.675z" fill="#f9f3f1"/></g><g><path d="m350.84 422.194-.497.126c-7.757 1.966-13.571-7.049-8.58-13.304l27.926-35.003 27.926 35.003c4.991 6.255-.824 15.27-8.58 13.304l-.497-.126c-12.372-3.135-25.328-3.135-37.698 0z" fill="#f9f3f1"/></g><g><path d="m268.706 146.741c0 80.595-57.312 203.172-128.011 203.172s-128.01-122.577-128.01-203.172 57.312-145.929 128.011-145.929 128.01 65.334 128.01 145.929z" fill="#fec344"/></g><g><path d="m179.08 283.67c-59.29 0-107.353-102.797-107.353-170.385 0-50.36 26.686-93.608 64.815-112.388-68.775 2.5-123.857 66.835-123.857 145.844 0 80.595 57.312 203.172 128.011 203.172 50.31 0 93.834-62.074 114.757-126.919-19.463 34.558-46.49 60.676-76.373 60.676z" fill="#fe9722"/></g><g><path d="m121.848 387.073-.497.126c-7.757 1.966-13.571-7.049-8.58-13.304l27.926-35.003 27.926 35.003c4.99 6.255-.824 15.27-8.58 13.304l-.497-.126c-12.372-3.135-25.329-3.135-37.698 0z" fill="#fe9722"/></g><g><path d="m66.035 134.008 17.12-23.332c2.638-3.595 8.008-3.595 10.647 0l17.12 23.332c3.2 4.361.086 10.509-5.323 10.509h-34.24c-5.41 0-8.525-6.148-5.324-10.509z" fill="#b9390e"/></g><g><path d="m157.216 134.008 17.12-23.332c2.638-3.595 8.008-3.595 10.647 0l17.12 23.332c3.2 4.361.086 10.509-5.323 10.509h-34.24c-5.41 0-8.524-6.148-5.324-10.509z" fill="#b9390e"/></g><g><path d="m122.103 169.107 9.128 12.439c1.407 1.917 4.27 1.917 5.676 0l9.128-12.439c1.706-2.325.046-5.603-2.838-5.603h-18.255c-2.885 0-4.545 3.278-2.839 5.603z" fill="#b9390e"/></g><g><path d="m88.636 204.451c-5.273 0-8.607 5.688-6.012 10.278 11.444 20.242 33.159 33.908 58.071 33.908s46.627-13.666 58.071-33.908c2.595-4.59-.739-10.278-6.012-10.278z" fill="#b9390e"/></g><g><path d="m165.8 223.68h-17.15c-1.514 0-2.741-1.227-2.741-2.741v-19.891h22.631v19.891c.001 1.513-1.226 2.741-2.74 2.741z" fill="#fec344"/></g><g><path d="m131.22 253.02h-22.631v-19.89c0-1.514 1.227-2.741 2.741-2.741h17.15c1.514 0 2.741 1.227 2.741 2.741v19.89z" fill="#fec344"/></g><g><path d="m108.588 232.813v20.207h14.99c-5.316-6.099-10.329-12.9-14.99-20.207z" fill="#fe9722"/></g><g><ellipse cx="369.688" cy="275.735" fill="#004281" rx="29.261" ry="52.056"/></g><g><path d="m314.839 146.766c-5.222 0-9.743 3.692-10.715 8.822-.48 2.534-.735 5.186-.735 7.916 0 17.954 11.002 32.509 24.575 32.509 5.612 0 10.571-2.369 14.538-6.257 16-15.678 4.279-42.99-18.122-42.99z" fill="#004281"/></g><g><path d="m411.169 146.766c-22.985 0-34.425 28.568-17.238 43.829 3.816 3.389 8.453 5.418 13.627 5.418 13.572 0 24.574-14.555 24.574-32.509 0-2.731-.255-5.382-.735-7.916-.971-5.131-5.493-8.822-10.715-8.822z" fill="#004281"/></g></g></g></svg>