<svg id="Layer_1" enable-background="new 0 0 510 510" height="512" viewBox="0 0 510 510" width="512" xmlns="http://www.w3.org/2000/svg"><g><g><path d="m488.169 151.608-86.091-104.944c-41.56-29.393-92.302-46.664-147.078-46.664-98.131 0-158.58 55.352-158.747 55.445 0 0-2.513 3.137-2.983 5.222-3.818 16.948-7.385 39.663-7.385 56.238 0 140.833 118.763 254.972 259.596 254.972 54.231 0 114.568-25.992 154.949-57.243.903-.699 3.769-5.396 3.769-5.396.178-1.087 5.8-23.477 5.8-54.239.001-36.805-7.797-71.789-21.83-103.391z" fill="#dff6fd"/><path d="m345.459 364.679c-140.833 0-255-114.167-255-255 0-18.615 2.007-36.753 5.795-54.234-58.645 46.72-96.254 118.747-96.254 199.555 0 49.204 13.936 95.153 38.076 134.115l140.996 109.39c23.983 7.47 49.485 11.495 75.928 11.495 121.17 0 224.116-84.98 249.2-200.761-43.56 34.695-98.724 55.44-158.741 55.44z" fill="#c4e2ff"/></g><g><path d="m488.169 151.608c-18.779-42.287-48.723-78.516-86.091-104.944l-34.263-5.132-103.211 160.905 91.768 226.281 34.792 5.212 14.636-29.308h24.037l23.406-19.867z" fill="#fef48b"/></g><g><path d="m188.452 14.663-56.978 380.365 224.898 33.689c.901-15.309 4.827-30.063 11.443-44.323l.448-332.393h-.448v-10.469z" fill="#ffe177"/></g><g><path d="m315.187 40.482h14v167.255h-14z" fill="#ffac47" transform="matrix(.148 -.989 .989 .148 151.716 424.355)"/></g><g><path d="m384.299 138.628h14v59.45h-14z" fill="#ffac47" transform="matrix(.148 -.989 .989 .148 166.833 530.392)"/></g><g><path d="m280.431 99.289h14v107.009h-14z" fill="#ffe177" transform="matrix(.148 -.989 .989 .148 93.74 414.416)"/></g><g><path d="m356.994 145.839h14v104.628h-14z" fill="#ffac47" transform="matrix(.148 -.989 .989 .148 114.104 528.775)"/></g><g><path d="m254.398 150.582h14v64.403h-14z" fill="#ffe177" transform="matrix(.148 -.989 .989 .148 41.906 414.219)"/></g><g><path d="m291.377 147.6h14v149.228h-14z" fill="#ffac47" transform="matrix(.148 -.989 .989 .148 34.41 484.377)"/></g><g><path d="m334.617 197.683h14v129.797h-14z" fill="#ffac47" transform="matrix(.148 -.989 .989 .148 31.325 561.53)"/></g><g><path d="m232.219 227.426h14v39.633h-14z" fill="#ffe177" transform="matrix(.148 -.989 .989 .148 -40.738 447.189)"/></g><g><path d="m377.177 286.003h14v33.688h-14z" fill="#ffac47" transform="matrix(.148 -.989 .989 .148 27.762 637.925)"/></g><g><path d="m271.348 222.592h14v128.807h-14z" fill="#ffe177" transform="matrix(.148 -.989 .989 .148 -46.716 519.755)"/></g><g><path d="m255.604 265.022h14v107.009h-14z" fill="#ffe177" transform="matrix(.148 -.989 .989 .148 -91.31 531.046)"/></g><g><path d="m354.773 52.363v-32.609c0-10.829-8.779-19.608-19.608-19.608h-193.775c-26.116 0-47.288 21.171-47.288 47.288v382.935l260.671-45.613.448-332.393h-.448z" fill="#af66da"/></g><path d="m38.076 120.909v268.206c3.402 5.491 7.007 10.844 10.805 16.047l46.679 35.01v-384.172c-22.647 18.171-42.129 40.127-57.484 64.909z" fill="#814ba1"/><g><path d="m95.559 139.511v-87.148c0-28.838 23.378-52.217 52.216-52.217h-57.483c-28.838 0-52.216 23.378-52.216 52.217v87.148z" fill="#814ba1"/></g><path d="m348.235 401.851h-243.108c-21.001 0-32.329 24.634-18.661 40.578l11.714 13.664c7.111 5.553 14.524 10.738 22.211 15.524l58.681 17.571h175.701c-13.323-31.157-14.783-60.138-6.538-87.337z" fill="#fe9722"/><path d="m94.568 436.972c0-13.524 5.141-25.846 13.576-35.121h-42.44c-6.82 0-11.569 6.774-9.244 13.185 12.289 15.226 26.293 29.01 41.719 41.057-2.33-5.921-3.611-12.372-3.611-19.121z" fill="#ff6400"/><g><g><path d="m104.671 384.756v17.84h243.331c1.787-6.033 4.052-11.978 6.771-17.84z" fill="#ffac47"/></g></g><g><path d="m48.88 405.162c2.448 3.354 4.976 6.646 7.581 9.874 9.113-7.759 20.925-12.441 33.831-12.441h17.188c9.57-10.933 23.629-17.838 39.3-17.84h-56.488c-16.867.001-31.865 7.998-41.412 20.407z" fill="#fe9722"/></g><g><path d="m176.098 427.688h106.442v12.484h-106.442z" fill="#ff6400"/></g><path d="m149.731 427.688-15.106 22.617 14.104 36.563c9.796 4.497 19.926 8.392 30.342 11.636v-70.816z" fill="#00f2a6"/><g><path d="m149.731 427.688h-29.34v43.929c9.39 5.847 19.187 11.101 29.34 15.709z" fill="#14d1b2"/></g><g><g><path d="m232.344 317.909-46.276.002-.001-12.736 7.222-34.644 39.055 34.641z" fill="#814ba1"/></g><g><path d="m144.321 182.945-.001-12.736 79.229-20.51 50.364 20.503v12.736z" fill="#814ba1"/></g><g><path d="m201.17 70.515h31.167v234.658h-31.167z" fill="#fedf30"/></g><g><path d="m186.061 70.516h17.056v234.658h-17.056z" fill="#fec344"/></g><g><path d="m194.146 90.439h46.277v113.255h-46.277z" fill="#fedf30" transform="matrix(0 1 -1 0 364.34 -70.225)"/></g><g><path d="m130.268 137.983h46.277v18.174h-46.277z" fill="#fec344" transform="matrix(0 1 -1 0 300.469 -6.344)"/></g></g></g></svg>