<svg id="Layer_1" enable-background="new 0 0 511.409 511.409" height="512" viewBox="0 0 511.409 511.409" width="512" xmlns="http://www.w3.org/2000/svg"><g><g><path d="m255 .806c-98.131 0-158.58 55.352-158.747 55.445 0 0-2.513 3.137-2.983 5.222-3.818 16.948-7.385 39.663-7.385 56.238 0 140.833 118.763 254.972 259.596 254.972 54.231 0 114.568-25.992 154.949-57.243.903-.699 3.769-5.396 3.769-5.396.178-1.087 5.8-23.477 5.8-54.239.001-140.832-114.166-254.999-254.999-254.999z" fill="#dff6fd"/><path d="m345.459 365.485c-140.833 0-255-114.167-255-255 0-18.615 2.007-36.753 5.795-54.234-58.645 46.72-96.254 118.747-96.254 199.555 0 68.238 26.803 130.215 70.455 175.979l23.136 10.162 2.384 13.211c43.602 34.827 98.882 55.648 159.024 55.648 28.974 0 56.906-4.859 82.98-13.836l7.324-11.591 16.264 2.124c71.405-32.896 125.397-97.907 142.631-177.458-43.558 34.695-98.723 55.44-158.739 55.44z" fill="#c4e2ff"/></g><g><g><path d="m511.409 191.379c0-105.363-85.413-190.776-190.776-190.776-73.416 0-118.64 41.411-118.765 41.481 0 0-1.88 2.347-2.232 3.907-2.857 12.68-5.525 29.674-5.525 42.074 0 105.363 88.852 190.755 194.214 190.755 40.573 0 85.713-19.446 115.924-42.826.676-.523 2.82-4.037 2.82-4.037.133-.813 4.34-17.564 4.34-40.578z" fill="#fef48b"/><g><path d="m507.069 231.957c-32.589 25.957-73.86 41.477-118.761 41.477-105.363 0-190.776-85.413-190.776-190.776 0-13.927 1.502-27.496 4.335-40.575-.004.003.004-.003 0 0-43.875 34.953-72.011 88.839-72.011 149.295 0 105.363 85.413 190.776 190.776 190.776 90.653.001 167.672-63.576 186.437-150.197z" fill="#ffe177"/></g></g><g fill="#ffe177"><circle cx="406.622" cy="243.306" r="35.514"/><circle cx="363.042" cy="133.175" r="20.906"/><circle cx="445.389" cy="158.535" r="12.408"/><circle cx="213.938" cy="88.356" r="20.538"/><path d="m300.062 1.703c-1.363 3.389-2.12 7.087-2.12 10.964 0 16.246 13.17 29.416 29.416 29.416s29.416-13.17 29.416-29.416c0-3.1-.483-6.087-1.372-8.893-11.275-2.077-22.894-3.171-34.77-3.171-7.128 0-13.988.394-20.57 1.1z"/></g></g><ellipse cx="200.129" cy="324.759" fill="#af66da" rx="149.221" ry="130.399"/><ellipse cx="200.702" cy="331.364" fill="#814ba1" rx="116.982" ry="137.005"/><g><circle cx="141.551" cy="189.841" fill="#af66da" r="66.697"/><circle cx="141.551" cy="189.841" fill="#fff" r="46.21"/><circle cx="141.551" cy="189.841" fill="#00366d" r="28.464"/></g><g><circle cx="262.94" cy="189.841" fill="#af66da" r="66.697"/><circle cx="262.94" cy="189.841" fill="#fff" r="46.21"/><circle cx="262.94" cy="189.841" fill="#00366d" r="28.464"/><g fill="#fff"><circle cx="259.518" cy="186.42" r="9.347"/><circle cx="144.321" cy="185.333" r="9.347"/></g></g><path d="m220.23 215.592c0 16.711-8.743 40.946-19.528 40.946s-19.527-24.235-19.527-40.946 8.743-30.259 19.528-30.259 19.527 13.548 19.527 30.259z" fill="#fe9722"/><path d="m296.725 104.166v-.023c0-4.185-5.06-6.281-8.02-3.322-14.37 14.37-33.861 22.444-54.184 22.444h-67.808c-20.323 0-39.813-8.073-54.184-22.444-2.959-2.959-8.02-.863-8.02 3.322 0 12.214 4.989 23.899 13.812 32.346l65.894 63.088c9.216 8.824 23.749 8.817 32.957-.014l65.767-63.078c8.808-8.445 13.786-20.118 13.786-32.319z" fill="#814ba1"/><g fill="#af66da"><path d="m148.158 328.087c-9.075 0-16.702-9.186-18.874-21.624-.405 2.319-.621 4.75-.621 7.256 0 15.95 8.728 28.88 19.495 28.88s19.495-12.93 19.495-28.88c0-2.506-.216-4.937-.621-7.256-2.173 12.438-9.799 21.624-18.874 21.624z"/><path d="m252.1 328.087c-9.075 0-16.702-9.186-18.874-21.624-.405 2.319-.621 4.75-.621 7.256 0 15.95 8.728 28.88 19.495 28.88s19.495-12.93 19.495-28.88c0-2.506-.216-4.937-.621-7.256-2.173 12.438-9.799 21.624-18.874 21.624z"/><path d="m200.129 287.084c-9.075 0-16.702-9.186-18.874-21.624-.405 2.319-.621 4.75-.621 7.256 0 15.95 8.728 28.88 19.495 28.88s19.495-12.93 19.495-28.88c0-2.506-.216-4.937-.621-7.256-2.173 12.438-9.799 21.624-18.874 21.624z"/><path d="m200.129 373.319c-9.075 0-16.702-9.186-18.874-21.624-.405 2.319-.621 4.75-.621 7.256 0 15.95 8.728 28.88 19.495 28.88s19.495-12.93 19.495-28.88c0-2.506-.216-4.937-.621-7.256-2.173 12.438-9.799 21.624-18.874 21.624z"/><path d="m113.087 373.319c-9.075 0-16.702-9.186-18.874-21.624-.405 2.319-.621 4.75-.621 7.256 0 15.95 8.728 28.88 19.495 28.88s19.495-12.93 19.495-28.88c0-2.506-.216-4.937-.621-7.256-2.172 12.438-9.799 21.624-18.874 21.624z"/></g><path d="m95.976 455.158h275.132v-23.373h-300.652c7.965 8.351 16.492 16.162 25.52 23.373z" fill="#004281"/><path d="m318.857 444.792h-33.054l52.178 52.178c8.047-2.771 15.918-5.933 23.588-9.467z" fill="#004281"/><path d="m286.811 373.319c-9.075 0-16.702-9.186-18.874-21.624-.405 2.319-.621 4.75-.621 7.256 0 15.95 8.728 28.88 19.495 28.88s19.495-12.93 19.495-28.88c0-2.506-.216-4.937-.621-7.256-2.172 12.438-9.798 21.624-18.874 21.624z" fill="#af66da"/><path d="m168.808 473.323c6.83 0 12.366-5.537 12.366-12.366v-43.634c0-6.83-5.537-12.366-12.366-12.366-6.83 0-12.366 5.537-12.366 12.366v43.634c0 6.829 5.537 12.366 12.366 12.366z" fill="#fec344"/><path d="m144.321 473.323c6.83 0 12.366-5.537 12.366-12.366v-43.634c0-6.83-5.537-12.366-12.366-12.366-6.83 0-12.366 5.537-12.366 12.366v43.634c-.001 6.829 5.536 12.366 12.366 12.366z" fill="#fe9722"/><path d="m132.583 460.957v-43.634c0-6.83-5.537-12.366-12.366-12.366s-12.366 5.537-12.366 12.366v43.634c0 1.211.175 2.38.499 3.486 4.353 3.065 8.805 5.997 13.352 8.791 6.129-.734 10.881-5.95 10.881-12.277z" fill="#ff6400"/><path d="m279.296 473.323c6.83 0 12.366-5.537 12.366-12.366v-43.634c0-6.83-5.537-12.366-12.366-12.366-6.83 0-12.366 5.537-12.366 12.366v43.634c0 6.829 5.536 12.366 12.366 12.366z" fill="#fec344"/><path d="m254.808 473.323c6.83 0 12.366-5.537 12.366-12.366v-43.634c0-6.83-5.537-12.366-12.366-12.366-6.83 0-12.366 5.537-12.366 12.366v43.634c0 6.829 5.537 12.366 12.366 12.366z" fill="#fe9722"/><path d="m230.704 473.323c6.83 0 12.366-5.537 12.366-12.366v-43.634c0-6.83-5.537-12.366-12.366-12.366-6.83 0-12.366 5.537-12.366 12.366v43.634c0 6.829 5.536 12.366 12.366 12.366z" fill="#ff6400"/></g></svg>