<svg id="Layer_1" enable-background="new 0 0 512.137 512.137" height="512" viewBox="0 0 512.137 512.137" width="512" xmlns="http://www.w3.org/2000/svg"><g><g><path d="m256.069 17.998c-95.079 0-153.649 53.631-153.81 53.721 0 0-2.435 3.039-2.89 5.06-3.699 16.421-7.156 38.43-7.156 54.489 0 136.453 115.07 247.043 251.523 247.043 52.545 0 111.005-25.184 150.13-55.463.875-.677 3.652-5.229 3.652-5.229.172-1.053 5.62-22.746 5.62-52.552.001-136.452-110.616-247.069-247.069-247.069z" fill="#ffdbeb"/><path d="m343.714 371.336c-136.453 0-247.07-110.617-247.07-247.07 0-18.036 1.945-35.61 5.615-52.547-56.821 45.267-93.26 115.054-93.26 193.349 0 58.796 20.537 112.794 54.83 155.214l384.52-.044c23.687-29.304 40.849-64.212 49.17-102.618-42.205 33.616-95.654 53.716-153.805 53.716z" fill="#ffceed"/></g><path d="m401.488 386.011-92.872-20.551-52.25-1.574-109.061 36.972v86.096c32.818 16.122 69.73 25.183 108.764 25.183 77.208 0 146.776-35.613 192.276-91.903-10.018-17.076-26.524-29.72-46.857-34.223z" fill="#00f2a6"/><path d="m255.805 353.774-145.107 32.207c-20.276 4.498-36.822 17.138-46.856 34.29 22.839 28.251 51.767 51.374 84.804 67.35v-29.672c0-33.476 22.366-63.244 54.823-71.438.74-.187 1.485-.364 2.235-.53l97.675-21.679z" fill="#14d1b2"/><path d="m256.365 444.527c28.857 0 52.25-23.393 52.25-52.25v-26.817l-52.81-11.686-51.69 11.473v27.03c0 28.857 23.393 52.25 52.25 52.25z" fill="#14d1b2"/><g><g><g><path d="m256.365 424.491c-20.662 0-37.412-16.75-37.412-37.412v-83.797h74.824v83.797c.001 20.662-16.749 37.412-37.412 37.412z" fill="#f79480"/></g></g></g><g><g><g><path d="m293.777 354.763v-42.157h-74.824v42.157c0 20.662 16.75 37.412 37.412 37.412 20.663.001 37.412-16.749 37.412-37.412z" fill="#ea806b"/></g></g></g><path d="m84.88 198.793c0 84.928 76.777 153.776 171.486 153.776v-307.552c-94.71 0-171.486 68.848-171.486 153.776z" fill="#eb4f02"/><path d="m256.365 45.017v307.551c94.709 0 171.486-68.848 171.486-153.776s-76.777-153.775-171.486-153.775z" fill="#ff6400"/><path d="m130.167 198.793c0 89.134 56.501 161.391 126.199 161.391v-322.782c-69.698 0-126.199 72.257-126.199 161.391z" fill="#ff6400"/><path d="m256.365 37.402v322.782c69.698 0 126.199-72.257 126.199-161.391s-56.501-161.391-126.199-161.391z" fill="#fe9722"/><path d="m186.446 198.793c0 89.134 31.304 161.391 69.919 161.391v-322.782c-38.615 0-69.919 72.257-69.919 161.391z" fill="#fe9722"/><path d="m256.365 37.402v322.782c38.615 0 69.919-72.257 69.919-161.391s-31.303-161.391-69.919-161.391z" fill="#ffac47"/><path d="m284.288 30.826c-5.28-1.785-9.072-6.461-9.834-11.982-.004-.032-.009-.065-.013-.097-.889-6.249-1.682-12.497-2.479-18.746h-13.277c-.396 3.103-9.103 22.939-22.922 36.493-14.008 13.739-33.126 21.215-33.126 26.862 0 10.65 6.981 19.64 29.384 23.58 7.573 1.332 15.913 2.069 24.672 2.069 34.669 0 62.773-11.552 62.773-25.802-.001-10.447-14.031-25.228-35.178-32.377z" fill="#14d1b2"/><path d="m258.699 17.645-.015-17.645h-17.262c-.797 6.249-1.59 12.498-2.479 18.746-.059.427-.118.855-.178 1.282-.764 5.485-4.535 10.054-9.737 11.953-20.537 7.497-35.109 21.312-35.109 31.222 0 10.65 15.698 19.792 38.101 23.732-6.848-20.435 5.008-37.646 20.707-54.194 3.86-4.069 5.977-9.487 5.972-15.096z" fill="#11abb9"/><path d="m194.914 253.574c-4.446 0-7.817 4.133-6.788 8.458 5.569 23.424 33.869 41.249 67.943 41.249s62.374-17.826 67.943-41.249c1.028-4.326-2.342-8.458-6.788-8.458z" fill="#00366d"/><path d="m289.095 265.618h-14.61c-1.232 0-2.231-.999-2.231-2.231v-16.84h19.071v16.84c0 1.233-.999 2.231-2.23 2.231z" fill="#ffac47"/><circle cx="202.636" cy="179.662" fill="#ff6400" r="33.126"/><circle cx="202.636" cy="171.661" fill="#fff" r="33.126"/><circle cx="202.636" cy="171.661" fill="#00366d" r="24.494"/><circle cx="301.642" cy="179.662" fill="#fe9722" r="33.126"/><circle cx="301.642" cy="171.661" fill="#fff" r="33.126"/><circle cx="301.642" cy="171.661" fill="#00366d" r="24.494"/><g fill="#fff"><circle cx="214.024" cy="154.071" r="9.908"/><circle cx="313.288" cy="154.071" r="9.908"/></g></g></svg>