<?xml version="1.0" encoding="UTF-8"?><svg xmlns="http://www.w3.org/2000/svg" width="300" height="300" viewBox="0 0 300 300" fill="none" version="1.2" baseProfile="tiny-ps"><title>Devz LLC</title><rect width="300" height="300" fill="#373A59"></rect><g><path d="M63.2426 143.936C63.2426 126.008 51.8666 119.6 34.3706 119.6H15.1466V125.144L20.4026 125.576V163.952L15.1466 164.456V170H32.3546C49.2746 170 63.2426 164.24 63.2426 143.936ZM32.2826 164.096V125.576H33.3626C44.0186 125.576 50.5706 128.672 50.5706 144.368C50.5706 158.048 45.7466 164.096 34.0106 164.096H32.2826ZM83.7845 164.456V149.48C83.7845 144.152 86.2325 139.256 90.2645 139.256C91.4885 139.256 92.3525 139.76 92.3525 140.984C92.3525 141.272 92.2805 141.56 92.2085 141.92L89.3285 142.784C89.2565 146.528 90.8405 149.336 95.3765 149.336C99.4805 149.336 102.361 146.528 102.361 141.776C102.361 135.728 98.6165 133.136 93.7925 133.136C87.9605 133.136 85.1525 136.52 83.4245 139.904H83.1365L82.6325 133.712L67.9445 134.216V139.112L72.6245 139.616V164.456L67.9445 164.96V170H91.9925V164.96L83.7845 164.456ZM119.428 151.208C109.924 151.208 104.452 153.512 104.452 161.36C104.452 168.272 109.276 170.792 115.036 170.792C121.156 170.792 123.892 167.768 125.188 165.392C126.052 168.848 127.996 170.792 132.604 170.792C136.204 170.792 139.372 169.424 140.74 168.488L139.732 164.816C138.652 165.248 137.932 165.392 137.356 165.392C135.844 165.392 135.7 164.168 135.7 161.576V146.744C135.7 136.376 130.228 133.136 120.652 133.136C111.364 133.136 106.18 137.024 106.18 142.712C106.18 145.88 107.908 148.4 111.796 148.4C115.54 148.4 117.34 146.312 117.34 143.432C117.34 142.568 117.124 141.56 116.908 140.624H114.172C114.1 140.264 114.028 139.904 114.028 139.616C114.028 137.744 115.972 137.24 118.132 137.24C123.244 137.24 124.54 140.48 124.54 146.024V151.208H119.428ZM119.86 165.392C117.052 165.392 115.9 163.88 115.9 160.496C115.9 156.752 117.196 154.952 121.732 154.952H124.54V159.416C124.54 163.808 122.308 165.392 119.86 165.392ZM162.92 137.6C165.512 137.6 167.24 138.392 167.24 140.552C167.24 140.984 167.168 141.416 167.024 141.92H164.288C163.928 142.928 163.784 144.08 163.784 145.016C163.784 147.752 165.44 150.416 169.112 150.416C173 150.416 175.16 147.608 175.16 143.936C175.16 138.248 171.056 133.136 161.696 133.136C149.888 133.136 142.76 140.696 142.76 152.864C142.76 163.952 148.952 170.792 160.472 170.792C170.552 170.792 174.368 163.88 175.376 159.848L170.192 158.048C168.824 161.288 167.024 164.888 162.488 164.888C156.296 164.888 154.568 160.064 154.568 151.712C154.568 143.504 156.8 137.6 162.92 137.6ZM193.952 133.712L178.76 134.36V138.968L182.792 139.472V159.056C182.792 167.48 186.968 170.792 194.168 170.792C201.224 170.792 204.032 167.264 205.832 163.52H206.264L206.696 170H220.664V164.96L216.2 164.456V133.64L201.08 134.288V138.968L205.04 139.472V155.816C205.04 161.864 202.16 164.096 198.488 164.096C194.528 164.096 193.952 161.504 193.952 157.616V133.712ZM224.39 116.576V121.4L229.214 121.904V164.528L224.39 165.032V170H245.342V165.032L240.374 164.528V116L224.39 116.576ZM264.061 151.208C254.557 151.208 249.085 153.512 249.085 161.36C249.085 168.272 253.909 170.792 259.669 170.792C265.789 170.792 268.525 167.768 269.821 165.392C270.685 168.848 272.629 170.792 277.237 170.792C280.837 170.792 284.005 169.424 285.373 168.488L284.365 164.816C283.285 165.248 282.565 165.392 281.989 165.392C280.477 165.392 280.333 164.168 280.333 161.576V146.744C280.333 136.376 274.861 133.136 265.285 133.136C255.997 133.136 250.813 137.024 250.813 142.712C250.813 145.88 252.541 148.4 256.429 148.4C260.173 148.4 261.973 146.312 261.973 143.432C261.973 142.568 261.757 141.56 261.541 140.624H258.805C258.733 140.264 258.661 139.904 258.661 139.616C258.661 137.744 260.605 137.24 262.765 137.24C267.877 137.24 269.173 140.48 269.173 146.024V151.208H264.061ZM264.493 165.392C261.685 165.392 260.533 163.88 260.533 160.496C260.533 156.752 261.829 154.952 266.365 154.952H269.173V159.416C269.173 163.808 266.941 165.392 264.493 165.392Z" fill="#BD93F9"></path></g></svg>