<svg width="871" height="221" viewBox="0 0 871 221" fill="none" xmlns="http://www.w3.org/2000/svg">
<path d="M383.414 140.86L371.513 173.923C371.513 175.251 370.189 175.251 370.189 175.251H351.675C350.351 175.251 350.351 175.251 350.351 173.923C360.929 146.155 376.8 98.5453 388.701 66.8016C388.701 65.4844 390.026 62.837 390.026 56.2249C390.026 54.9013 390.026 54.9013 391.35 54.9013H416.475C417.8 53.5776 417.8 54.9013 417.8 54.9013C431.017 93.2515 446.891 134.249 460.115 172.606C460.115 173.924 460.115 173.924 458.797 173.924H437.63C436.312 173.924 436.312 173.924 436.312 172.606L424.405 139.545H383.414V140.86ZM420.44 122.349C416.475 110.448 407.216 85.3222 404.574 72.0973C401.927 83.9985 393.991 105.158 388.702 122.349H420.44ZM472.022 130.284C472.022 103.835 491.859 82.6739 523.59 82.6739C527.568 82.6739 531.532 82.6739 534.181 83.9976V44.3237C534.181 43 534.181 43 535.498 43H555.335C556.652 43 556.652 43 556.652 44.3237V164.664C556.652 165.992 556.652 165.992 555.335 165.992C543.428 171.275 530.202 175.251 518.308 175.251C490.529 176.57 472.022 162.028 472.022 130.284ZM532.849 102.511C530.202 101.187 526.237 101.187 522.272 101.187C505.083 101.187 494.506 111.771 494.506 130.284C494.506 151.438 506.4 159.381 520.956 159.381C524.92 159.381 530.202 158.051 534.18 158.051V102.511H532.849ZM667.744 128.967C667.744 158.052 649.224 176.57 622.775 176.57C591.043 176.57 577.819 152.769 577.819 130.284C577.819 102.511 596.326 83.9976 624.105 83.9976C651.872 82.6739 667.744 103.835 667.744 128.967ZM600.303 128.967C600.303 147.474 608.234 159.382 622.776 159.382C634.683 159.382 643.943 151.439 643.943 128.967C643.943 111.771 637.331 98.5463 621.46 98.5463C609.55 99.8635 600.303 110.448 600.303 128.967ZM707.418 44.3237C708.737 44.3237 708.737 44.3237 708.737 45.6474V87.9622C715.348 85.3213 721.961 83.9976 728.573 83.9976C753.705 83.9976 769.577 102.511 769.577 126.32C769.577 158.051 744.444 177.888 715.348 177.888C706.1 177.888 696.841 176.57 687.581 173.923C686.264 173.923 686.264 172.605 686.264 172.605V45.6474C686.264 44.3237 686.264 44.3237 687.581 44.3237H707.418ZM724.608 101.187C719.326 101.187 714.031 102.511 710.066 103.835V158.051C712.713 159.381 716.678 159.381 720.642 159.381C733.867 159.381 749.739 148.803 749.739 127.635C748.41 110.448 737.833 101.187 724.608 101.187ZM811.898 134.249C811.898 148.804 821.145 158.051 839.665 158.051C846.276 158.051 854.207 156.733 862.149 154.086C862.149 154.086 863.467 154.086 863.467 155.416V169.958C863.467 171.275 863.467 171.275 862.149 172.605C855.537 176.569 846.276 177.888 834.369 177.888C801.308 177.888 788.082 155.416 788.082 131.6C788.082 105.157 803.954 83.9967 831.734 83.9967C859.501 83.9967 870.077 105.157 870.077 122.347C870.077 130.284 868.761 134.248 868.761 134.248L811.898 134.249ZM840.981 119.7C847.594 119.7 848.925 118.384 848.925 118.384V115.736C848.925 110.448 844.96 98.5463 830.405 98.5463C818.51 98.5463 811.898 107.799 810.569 119.7H840.981Z" fill="white"/>
<path d="M157.372 0L249.945 220.848V0H157.372ZM0 0V220.848L92.5728 0H0ZM84.6362 175.892H126.958L145.472 220.848H183.822L124.311 80.6651L84.6362 175.892Z" fill="white"/>
</svg>
