<svg width="100" height="60" viewBox="0 0 100 60" fill="none" xmlns="http://www.w3.org/2000/svg">
<path d="M12.9693 31.3165C12.1832 31.3165 11.4912 31.146 10.8933 30.8051C10.2954 30.4533 9.8304 29.9695 9.49824 29.3537C9.16608 28.7269 9 28.0068 9 27.1931C9 26.2144 9.24358 25.3567 9.73075 24.62C10.229 23.8833 10.9321 23.317 11.84 22.9212C12.7589 22.5254 13.8329 22.3274 15.0619 22.3274C15.6266 22.3274 16.0861 22.3659 16.4404 22.4429V22.0965C16.4404 21.2608 16.2854 20.6396 15.9754 20.2327C15.6654 19.8149 15.1948 19.606 14.5637 19.606C13.5451 19.606 12.8918 20.1393 12.6039 21.2059C12.5154 21.5137 12.3327 21.6457 12.0559 21.6017L9.79719 21.2059C9.6311 21.1729 9.51485 21.1014 9.44842 20.9915C9.39306 20.8815 9.38752 20.733 9.43181 20.5461C9.71968 19.4246 10.3286 18.5559 11.2587 17.9401C12.1998 17.3134 13.379 17 14.7962 17C16.4791 17 17.7579 17.4508 18.6326 18.3525C19.5184 19.2541 19.9613 20.5681 19.9613 22.2944V30.5907C19.9613 30.7117 19.917 30.8161 19.8284 30.9041C19.7509 30.9811 19.6513 31.0195 19.5295 31.0195H17.3705C17.1047 31.0195 16.9386 30.8766 16.8722 30.5907L16.54 29.0403H16.4072C16.1082 29.766 15.6598 30.3268 15.0619 30.7226C14.4751 31.1185 13.7776 31.3165 12.9693 31.3165ZM12.6205 26.7972C12.6205 27.3799 12.77 27.8473 13.069 28.1991C13.379 28.54 13.7942 28.7105 14.3146 28.7105C15.001 28.7105 15.527 28.4081 15.8923 27.8033C16.2577 27.1875 16.4404 26.3079 16.4404 25.1643V24.2902C16.1304 24.2352 15.837 24.2077 15.5602 24.2077C14.6523 24.2077 13.9326 24.4441 13.4011 24.9169C12.8807 25.3788 12.6205 26.0055 12.6205 26.7972ZM22.0207 17.7257C22.0207 17.6048 22.0594 17.5058 22.137 17.4288C22.2255 17.3409 22.3307 17.2969 22.4525 17.2969H24.6448C24.7666 17.2969 24.8662 17.3354 24.9437 17.4123C25.0323 17.4893 25.0877 17.5938 25.1098 17.7257L25.4419 19.3421H25.5748C25.8737 18.5834 26.3 18.0061 26.8536 17.6103C27.4183 17.2034 28.0826 17 28.8465 17C29.6659 17 30.369 17.2144 30.9558 17.6432C31.5537 18.0721 32.0132 18.6823 32.3342 19.474H32.4672C32.9543 18.6384 33.5023 18.0171 34.1114 17.6103C34.7203 17.2034 35.4012 17 36.1541 17C36.9735 17 37.682 17.2199 38.2799 17.6597C38.8889 18.0996 39.3539 18.7263 39.6751 19.54C39.9961 20.3537 40.1566 21.3158 40.1566 22.4264V30.5907C40.1566 30.7117 40.1124 30.8161 40.0238 30.9041C39.9463 30.9811 39.8466 31.0195 39.7248 31.0195H37.0675C36.9458 31.0195 36.8406 30.9811 36.752 30.9041C36.6745 30.8161 36.6357 30.7117 36.6357 30.5907V22.6903C36.6357 21.8876 36.4807 21.2718 36.1707 20.843C35.8607 20.4142 35.4123 20.1998 34.8255 20.1998C34.1833 20.1998 33.6906 20.4527 33.3474 20.9585C33.0152 21.4643 32.8491 22.1955 32.8491 23.1521V30.5907C32.8491 30.7117 32.8048 30.8161 32.7163 30.9041C32.6387 30.9811 32.5391 31.0195 32.4173 31.0195H29.76C29.6383 31.0195 29.533 30.9811 29.4445 30.9041C29.367 30.8161 29.3282 30.7117 29.3282 30.5907V22.6903C29.3282 21.8876 29.1732 21.2718 28.8632 20.843C28.5531 20.4142 28.1048 20.1998 27.518 20.1998C26.8758 20.1998 26.3831 20.4527 26.0398 20.9585C25.7077 21.4643 25.5416 22.1955 25.5416 23.1521V30.5907C25.5416 30.7117 25.4973 30.8161 25.4087 30.9041C25.3312 30.9811 25.2316 31.0195 25.1098 31.0195H22.4525C22.3307 31.0195 22.2255 30.9811 22.137 30.9041C22.0594 30.8161 22.0207 30.7117 22.0207 30.5907V17.7257ZM41.8839 27.1931C41.8839 26.2144 42.1274 25.3567 42.6147 24.62C43.1129 23.8833 43.816 23.317 44.7239 22.9212C45.6428 22.5254 46.7168 22.3274 47.9458 22.3274C48.5105 22.3274 48.97 22.3659 49.3242 22.4429V22.0965C49.3242 21.2608 49.1693 20.6396 48.8592 20.2327C48.5493 19.8149 48.0787 19.606 47.4476 19.606C46.429 19.606 45.7757 20.1393 45.4878 21.2059C45.3992 21.5137 45.2165 21.6457 44.9398 21.6017L42.6811 21.2059C42.515 21.1729 42.3988 21.1014 42.3323 20.9915C42.2769 20.8815 42.2714 20.733 42.3157 20.5461C42.6035 19.4246 43.2125 18.5559 44.1426 17.9401C45.0837 17.3134 46.2628 17 47.6801 17C49.363 17 50.6418 17.4508 51.5165 18.3525C52.4023 19.2541 52.8452 20.5681 52.8452 22.2944V30.5907C52.8452 30.7117 52.8009 30.8161 52.7123 30.9041C52.6348 30.9811 52.5352 31.0195 52.4133 31.0195H50.2543C49.9886 31.0195 49.8226 30.8766 49.756 30.5907L49.424 29.0403H49.291C48.9921 29.766 48.5437 30.3268 47.9458 30.7226C47.359 31.1185 46.6615 31.3165 45.8532 31.3165C45.0449 31.3165 44.375 31.146 43.7772 30.8051C43.1793 30.4533 42.7143 29.9695 42.3821 29.3537C42.0499 28.7269 41.8839 28.0068 41.8839 27.1931ZM45.5044 26.7972C45.5044 27.3799 45.6539 27.8473 45.9528 28.1991C46.2628 28.54 46.6781 28.7105 47.1985 28.7105C47.8849 28.7105 48.4108 28.4081 48.7762 27.8033C49.1415 27.1875 49.3242 26.3079 49.3242 25.1643V24.2902C49.0143 24.2352 48.7209 24.2077 48.4441 24.2077C47.5361 24.2077 46.8164 24.4441 46.285 24.9169C45.7646 25.3788 45.5044 26.0055 45.5044 26.7972ZM54.6388 28.595C54.6388 28.3531 54.7052 28.1441 54.8382 27.9682L60.5181 20.0678H55.2035C55.0817 20.0678 54.9765 20.0293 54.8879 19.9524C54.8104 19.8644 54.7717 19.7599 54.7717 19.639V17.7257C54.7717 17.6048 54.8104 17.5058 54.8879 17.4288C54.9765 17.3409 55.0817 17.2969 55.2035 17.2969H63.9393C64.0611 17.2969 64.1607 17.3409 64.2382 17.4288C64.3269 17.5058 64.3712 17.6048 64.3712 17.7257V19.7214C64.3712 19.9633 64.3047 20.1723 64.1718 20.3482L59.0234 27.3745C59.3334 27.3195 59.6489 27.292 59.9701 27.292C60.7672 27.292 61.498 27.3635 62.1622 27.5064C62.8377 27.6383 63.5352 27.8583 64.2549 28.1661C64.5096 28.2761 64.6368 28.4631 64.6368 28.7269V30.6237C64.6368 30.7996 64.5815 30.9205 64.4708 30.9866C64.3601 31.0416 64.2217 31.0361 64.0556 30.97C63.2252 30.6622 62.4889 30.4478 61.8467 30.3268C61.2156 30.1949 60.5236 30.1289 59.7707 30.1289C59.0178 30.1289 58.2982 30.1949 57.5784 30.3268C56.8699 30.4588 56.0837 30.6732 55.2201 30.97C55.0541 31.025 54.9157 31.025 54.805 30.97C54.6942 30.9041 54.6388 30.7887 54.6388 30.6237V28.595ZM65.3676 24.1582C65.3676 22.8167 65.6278 21.6017 66.1482 20.5131C66.6686 19.4136 67.3827 18.5559 68.2906 17.9401C69.2096 17.3134 70.2283 17 71.3465 17C72.4648 17 73.4945 17.3134 74.4024 17.9401C75.3214 18.5559 76.0411 19.4136 76.5614 20.5131C77.0929 21.6017 77.3586 22.8167 77.3586 24.1582C77.3586 25.4997 77.0929 26.7202 76.5614 27.8198C76.0411 28.9084 75.3214 29.766 74.4024 30.3928C73.4945 31.0086 72.4759 31.3165 71.3465 31.3165C70.2172 31.3165 69.2096 31.0086 68.2906 30.3928C67.3827 29.766 66.6686 28.9084 66.1482 27.8198C65.6278 26.7202 65.3676 25.4997 65.3676 24.1582ZM69.0214 24.1582C69.0214 25.5547 69.2206 26.6323 69.6192 27.391C70.0178 28.1386 70.5936 28.5126 71.3465 28.5126C72.0994 28.5126 72.6807 28.1386 73.0904 27.391C73.5 26.6323 73.7048 25.5547 73.7048 24.1582C73.7048 22.7618 73.5 21.6897 73.0904 20.942C72.6807 20.1833 72.0994 19.8039 71.3465 19.8039C70.5936 19.8039 70.0178 20.1833 69.6192 20.942C69.2206 21.6897 69.0214 22.7618 69.0214 24.1582ZM79.1523 17.7257C79.1523 17.6048 79.191 17.5058 79.2685 17.4288C79.3571 17.3409 79.4623 17.2969 79.584 17.2969H81.7763C81.8982 17.2969 81.9978 17.3354 82.0753 17.4123C82.1638 17.4893 82.2192 17.5938 82.2413 17.7257L82.5735 19.3421H82.7064C83.0053 18.5944 83.4427 18.0171 84.0184 17.6103C84.6052 17.2034 85.2917 17 86.0778 17C86.9193 17 87.6445 17.2199 88.2535 17.6597C88.8735 18.0996 89.3496 18.7263 89.6818 19.54C90.014 20.3537 90.18 21.3158 90.18 22.4264V30.5907C90.18 30.7117 90.1357 30.8161 90.0472 30.9041C89.9697 30.9811 89.87 31.0195 89.7482 31.0195H87.0909C86.9691 31.0195 86.8639 30.9811 86.7754 30.9041C86.6979 30.8161 86.6591 30.7117 86.6591 30.5907V22.6903C86.6591 21.8876 86.493 21.2718 86.1609 20.843C85.8287 20.4142 85.3582 20.1998 84.7491 20.1998C84.0738 20.1998 83.5589 20.4527 83.2047 20.9585C82.8503 21.4643 82.6731 22.1955 82.6731 23.1521V30.5907C82.6731 30.7117 82.6289 30.8161 82.5403 30.9041C82.4628 30.9811 82.3632 31.0195 82.2413 31.0195H79.584C79.4623 31.0195 79.3571 30.9811 79.2685 30.9041C79.191 30.8161 79.1523 30.7117 79.1523 30.5907V17.7257Z" fill="white"/>
<path d="M18.2343 32.9158C18.0239 33.0807 17.9796 33.3556 18.1014 33.7404C18.2121 34.0813 18.4723 34.5047 18.882 35.0105C20.5317 37.0337 22.497 38.716 24.7778 40.0575C27.0587 41.399 29.5 42.3886 32.1019 43.0264C34.715 43.6751 37.3833 43.9994 40.107 43.9994C43.5947 43.9994 46.9163 43.4936 50.0718 42.482C53.2274 41.4815 55.8625 40.074 57.9773 38.2597C58.7191 37.6109 59.09 37.0941 59.09 36.7093C59.09 36.5663 59.0291 36.4234 58.9073 36.2805C58.7412 36.1155 58.5419 36.0605 58.3094 36.1155C58.0769 36.1705 57.7503 36.3079 57.3296 36.5279C55.3033 37.5834 52.8343 38.4246 49.9223 39.0514C47.0215 39.6892 43.9933 40.008 40.8378 40.008C36.9294 40.008 33.1538 39.4802 29.5111 38.4246C25.8684 37.369 22.6409 35.7197 19.8287 33.4765C19.419 33.1577 19.0868 32.9542 18.8321 32.8663C18.5886 32.7783 18.3892 32.7948 18.2343 32.9158Z" fill="white"/>
<path d="M55.1371 33.7409C54.9045 33.9608 54.8437 34.1917 54.9544 34.4337C55.0318 34.6096 55.1813 34.7086 55.4027 34.7306C55.6242 34.7635 55.9398 34.7415 56.3494 34.6645C57.0138 34.5216 57.7058 34.4227 58.4254 34.3677C59.1451 34.3237 59.7707 34.3347 60.3022 34.4007C60.8336 34.4777 61.1658 34.6096 61.2986 34.7965C61.498 35.0934 61.426 35.7202 61.0827 36.6768C60.7505 37.6334 60.2966 38.5625 59.7209 39.4642C59.4995 39.827 59.3665 40.113 59.3223 40.3219C59.278 40.5307 59.3333 40.7067 59.4884 40.8497C59.588 40.9486 59.6987 40.9981 59.8205 40.9981C60.1416 40.9981 60.6066 40.7177 61.2156 40.1569C62.3117 39.2113 63.0812 38.0897 63.5241 36.7922C63.7677 36.1215 63.9171 35.4178 63.9725 34.6811C64.0279 33.9444 63.9448 33.4166 63.7234 33.0976C63.513 32.7898 63.048 32.5369 62.3283 32.3389C61.6197 32.141 60.9056 32.0421 60.1859 32.0421C58.7797 32.0421 57.4455 32.3719 56.1834 33.0317C55.7184 33.2846 55.3695 33.521 55.1371 33.7409Z" fill="white"/>
</svg>
