<svg width="100" height="60" viewBox="0 0 100 60" fill="none" xmlns="http://www.w3.org/2000/svg">
<g clip-path="url(#clip0_1_2)">
<path d="M28.2851 38.5369H23.7133L22.3224 35.1286H14.7398L13.4721 38.5369H9L15.8314 21.3287H20.726L28.2851 38.5369ZM18.3726 25.4282L15.8607 32.1315H21.0782L18.3726 25.4282ZM44.7767 21.3287H48.4565V38.5369H44.2309V27.8116L39.659 33.21H39.0135L34.4416 27.7877V38.513H30.216V21.3287H33.8958L39.3362 27.7282L44.7767 21.3287ZM59.1613 21.3287C65.3471 21.3287 68.5515 25.2375 68.5515 29.9566C68.5515 34.9022 65.4704 38.5369 58.7094 38.5369H51.6785V21.3287H59.1613ZM55.9041 35.3848H58.6625C62.9115 35.3848 64.1792 32.4592 64.1792 29.9328C64.1792 26.9536 62.6122 24.4808 58.6155 24.4808H55.9041V35.3848Z" fill="white"/>
<path d="M76.9264 26.4948V34.2885H84.6029L79.1214 39.8596H71.4449V32.06L76.9264 26.4948ZM91 20V39.6928L85.6711 34.2825V25.4103H76.9323L71.6092 20H91Z" fill="white"/>
</g>
<defs>
<clipPath id="clip0_1_2">
<rect width="82" height="20" fill="white" transform="translate(9 20)"/>
</clipPath>
</defs>
</svg>
