<svg width="100" height="60" viewBox="0 0 100 60" fill="none" xmlns="http://www.w3.org/2000/svg">
<g clip-path="url(#clip0_1_2)">
<path d="M28.8365 30.8782C28.8031 27.3351 31.7003 25.6328 31.8306 25.5517C30.1999 23.1435 27.667 22.8125 26.7648 22.7754C24.6094 22.5525 22.5577 24.0589 21.4617 24.0589C20.3656 24.0589 18.6781 22.8058 16.8904 22.8429C14.5379 22.8767 12.3692 24.2244 11.1562 26.3522C8.71686 30.6282 10.5347 36.978 12.9172 40.4536C14.0834 42.1525 15.4669 44.0676 17.2914 43.9966C19.049 43.9257 19.7107 42.8483 21.8292 42.8483C23.9478 42.8483 24.5459 43.9966 26.4005 43.9628C28.2885 43.9257 29.4848 42.2268 30.641 40.5211C31.9709 38.5452 32.5223 36.6369 32.5557 36.5356C32.5123 36.5187 28.8766 35.1103 28.8365 30.8782Z" fill="white"/>
<path d="M25.3512 20.4719C26.3203 19.2864 26.9719 17.6415 26.7948 16C25.4014 16.0574 23.7139 16.939 22.7147 18.1245C21.8192 19.1715 21.0339 20.8468 21.2478 22.4545C22.7949 22.5761 24.3855 21.654 25.3512 20.4719ZM41.0567 34.3604L39.4527 39.2748H37.391L42.6406 23.6569H45.0465L50.3162 39.2748H48.1843L46.5335 34.3604H41.0567ZM46.1225 32.7831L44.6121 28.2876C44.2679 27.2676 44.0407 26.3421 43.8101 25.4369H43.7667C43.5361 26.3624 43.2855 27.3115 42.9881 28.2639L41.4777 32.7797L46.1225 32.7831ZM51.8801 31.7192C51.8801 30.2837 51.8366 29.1218 51.7865 28.0579H53.5976L53.6912 29.9831H53.7347C54.56 28.6152 55.8666 27.8046 57.6777 27.8046C60.361 27.8046 62.376 30.0979 62.376 33.5059C62.376 37.5387 59.9467 39.5281 57.3335 39.5281C55.8666 39.5281 54.5834 38.8796 53.9184 37.7684H53.875V43.8615H51.8801V31.7192ZM53.8717 34.7083C53.8717 35.0123 53.9151 35.2859 53.9652 35.5426C54.3328 36.9544 55.5458 37.9305 56.9927 37.9305C59.1246 37.9305 60.3644 36.1708 60.3644 33.5971C60.3644 31.3476 59.1948 29.4292 57.0629 29.4292C55.6895 29.4292 54.4063 30.4256 54.012 31.9556C53.9418 32.2089 53.875 32.5129 53.875 32.7899L53.8717 34.7083ZM64.4611 31.7192C64.4611 30.2837 64.4177 29.1218 64.3676 28.0579H66.1787L66.2723 29.9831H66.3157C67.1411 28.6152 68.4476 27.8046 70.2588 27.8046C72.9421 27.8046 74.9571 30.0979 74.9571 33.5059C74.9571 37.5387 72.5277 39.5281 69.9146 39.5281C68.4476 39.5281 67.1645 38.8796 66.4995 37.7684H66.4561V43.8615H64.4611V31.7192ZM66.4561 34.7083C66.4561 35.0123 66.4995 35.2859 66.5496 35.5426C66.9172 36.9544 68.1302 37.9305 69.5771 37.9305C71.709 37.9305 72.9488 36.1708 72.9488 33.5971C72.9488 31.3476 71.7792 29.4292 69.6473 29.4292C68.2739 29.4292 66.9907 30.4256 66.5964 31.9556C66.5262 32.2089 66.4594 32.5129 66.4594 32.7899L66.4561 34.7083ZM77.0455 22.8227H79.0639V39.2714H77.0455V22.8227ZM83.1205 34.0362C83.164 36.7923 84.9083 37.9305 86.9233 37.9305C88.3668 37.9305 89.239 37.6772 89.9942 37.353L90.3384 38.8121C89.6299 39.1363 88.4136 39.5078 86.6493 39.5078C83.2342 39.5078 81.1924 37.2381 81.1924 33.8538C81.1924 30.4695 83.164 27.8046 86.3953 27.8046C90.0176 27.8046 90.9799 31.0234 90.9799 33.0871C90.9799 33.5059 90.9365 33.8268 90.9098 34.0362H83.1205ZM89.0351 32.5771C89.0585 31.2801 88.5072 29.2637 86.2382 29.2637C84.1965 29.2637 83.3043 31.1653 83.1439 32.5771H89.0351Z" fill="white"/>
</g>
<defs>
<clipPath id="clip0_1_2">
<rect width="81" height="28" fill="white" transform="translate(10 16)"/>
</clipPath>
</defs>
</svg>
