<svg width="2424" height="829" viewBox="0 0 2424 829" fill="none" xmlns="http://www.w3.org/2000/svg">
<g clip-path="url(#clip0_3_15)">
<path d="M563.7 440.5C562.7 335.6 649.4 285.2 653.3 282.8C604.5 211.5 528.7 201.7 501.7 200.6C437.2 194 375.8 238.6 343 238.6C310.2 238.6 259.7 201.5 206.2 202.6C135.8 203.6 70.9001 243.5 34.6001 306.5C-38.3999 433.1 16.0001 621.1 87.3001 724C122.2 774.3 163.6 831 218.2 828.9C270.8 826.8 290.6 794.9 354 794.9C417.4 794.9 435.3 828.9 490.8 827.9C547.3 826.8 583.1 776.5 617.7 726C657.5 667.5 674 611 675 608C673.7 607.5 564.9 565.8 563.7 440.5Z" fill="white"/>
<path d="M459.4 132.4C488.4 97.3 507.9 48.6 502.6 0C460.9 1.7 410.4 27.8 380.5 62.9C353.7 93.9 330.2 143.5 336.6 191.1C382.9 194.7 430.5 167.4 459.4 132.4ZM929.4 543.6L881.4 689.1H819.7L976.8 226.7H1048.8L1206.5 689.1H1142.7L1093.3 543.6H929.4ZM1081 496.9L1035.8 363.8C1025.5 333.6 1018.7 306.2 1011.8 279.4H1010.5C1003.6 306.8 996.1 334.9 987.2 363.1L942 496.8L1081 496.9ZM1253.3 465.4C1253.3 422.9 1252 388.5 1250.5 357H1304.7L1307.5 414H1308.8C1333.5 373.5 1372.6 349.5 1426.8 349.5C1507.1 349.5 1567.4 417.4 1567.4 518.3C1567.4 637.7 1494.7 696.6 1416.5 696.6C1372.6 696.6 1334.2 677.4 1314.3 644.5H1313V824.9H1253.3V465.4ZM1312.9 553.9C1312.9 562.9 1314.2 571 1315.7 578.6C1326.7 620.4 1363 649.3 1406.3 649.3C1470.1 649.3 1507.2 597.2 1507.2 521C1507.2 454.4 1472.2 397.6 1408.4 397.6C1367.3 397.6 1328.9 427.1 1317.1 472.4C1315 479.9 1313 488.9 1313 497.1L1312.9 553.9ZM1629.8 465.4C1629.8 422.9 1628.5 388.5 1627 357H1681.2L1684 414H1685.3C1710 373.5 1749.1 349.5 1803.3 349.5C1883.6 349.5 1943.9 417.4 1943.9 518.3C1943.9 637.7 1871.2 696.6 1793 696.6C1749.1 696.6 1710.7 677.4 1690.8 644.5H1689.5V824.9H1629.8V465.4ZM1689.5 553.9C1689.5 562.9 1690.8 571 1692.3 578.6C1703.3 620.4 1739.6 649.3 1782.9 649.3C1846.7 649.3 1883.8 597.2 1883.8 521C1883.8 454.4 1848.8 397.6 1785 397.6C1743.9 397.6 1705.5 427.1 1693.7 472.4C1691.6 479.9 1689.6 488.9 1689.6 497.1L1689.5 553.9ZM2006.4 202H2066.8V689H2006.4V202ZM2188.2 534C2189.5 615.6 2241.7 649.3 2302 649.3C2345.2 649.3 2371.3 641.8 2393.9 632.2L2404.2 675.4C2383 685 2346.6 696 2293.8 696C2191.6 696 2130.5 628.8 2130.5 528.6C2130.5 428.4 2189.5 349.5 2286.2 349.5C2394.6 349.5 2423.4 444.8 2423.4 505.9C2423.4 518.3 2422.1 527.8 2421.3 534H2188.2ZM2365.2 490.8C2365.9 452.4 2349.4 392.7 2281.5 392.7C2220.4 392.7 2193.7 449 2188.9 490.8H2365.2Z" fill="white"/>
</g>
<defs>
<clipPath id="clip0_3_15">
<rect width="2423.5" height="829" fill="white"/>
</clipPath>
</defs>
</svg>
