<svg width="100" height="60" viewBox="0 0 100 60" fill="none" xmlns="http://www.w3.org/2000/svg">
<g clip-path="url(#clip0_1_2)">
<path d="M88.4459 33.5009L90.7206 35.0226C89.9823 36.1139 88.2164 37.9861 85.1635 37.9861C81.3722 37.9861 78.5488 35.0427 78.5488 31.2983C78.5488 27.3136 81.4022 24.6105 84.8442 24.6105C88.3062 24.6105 90.0023 27.3737 90.551 28.8654L90.8503 29.6263L81.9309 33.3307C82.6094 34.6722 83.6669 35.353 85.1635 35.353C86.66 35.353 87.6976 34.6122 88.4459 33.5009ZM81.4521 31.088L87.4083 28.6051C87.079 27.7742 86.1013 27.1835 84.934 27.1835C83.4474 27.1835 81.3822 28.505 81.4521 31.088Z" fill="white"/>
<path d="M74.2487 17.7925H77.122V37.3754H74.2487V17.7925Z" fill="white"/>
<path d="M69.7192 25.1311H72.4928V37.025C72.4928 41.9608 69.5895 43.9931 66.1574 43.9931C62.9249 43.9931 60.9794 41.8106 60.251 40.0385L62.7952 38.9773C63.2541 40.0685 64.3615 41.3601 66.1574 41.3601C68.3623 41.3601 69.7192 39.9885 69.7192 37.4255V36.4643H69.6194C68.9609 37.2653 67.7038 37.9861 66.1075 37.9861C62.7752 37.9861 59.7223 35.0727 59.7223 31.3183C59.7223 27.5439 62.7752 24.6005 66.1075 24.6005C67.6938 24.6005 68.9609 25.3113 69.6194 26.0922H69.7192V25.1311ZM69.9187 31.3183C69.9187 28.9555 68.3523 27.2335 66.3569 27.2335C64.3416 27.2335 62.6455 28.9555 62.6455 31.3183C62.6455 33.651 64.3416 35.343 66.3569 35.343C68.3523 35.353 69.9187 33.651 69.9187 31.3183Z" fill="white"/>
<path d="M43.9487 31.2683C43.9487 35.1228 40.9556 37.9561 37.2841 37.9561C33.6126 37.9561 30.6195 35.1128 30.6195 31.2683C30.6195 27.3937 33.6126 24.5704 37.2841 24.5704C40.9556 24.5704 43.9487 27.3937 43.9487 31.2683ZM41.0354 31.2683C41.0354 28.8654 39.2994 27.2135 37.2841 27.2135C35.2688 27.2135 33.5328 28.8654 33.5328 31.2683C33.5328 33.651 35.2688 35.323 37.2841 35.323C39.2994 35.323 41.0354 33.651 41.0354 31.2683Z" fill="white"/>
<path d="M58.5051 31.2983C58.5051 35.1528 55.512 37.9861 51.8405 37.9861C48.1689 37.9861 45.1759 35.1528 45.1759 31.2983C45.1759 27.4238 48.1689 24.6105 51.8405 24.6105C55.512 24.6105 58.5051 27.4137 58.5051 31.2983ZM55.5818 31.2983C55.5818 28.8955 53.8458 27.2435 51.8305 27.2435C49.8151 27.2435 48.0792 28.8955 48.0792 31.2983C48.0792 33.6811 49.8151 35.353 51.8305 35.353C53.8558 35.353 55.5818 33.6711 55.5818 31.2983Z" fill="white"/>
<path d="M19.6648 35.0527C15.4845 35.0527 12.212 31.6687 12.212 27.4738C12.212 23.2789 15.4845 19.8949 19.6648 19.8949C21.9196 19.8949 23.5658 20.786 24.783 21.9273L26.7884 19.915C25.0923 18.2831 22.8275 17.0416 19.6648 17.0416C13.938 17.0416 9.11918 21.7271 9.11918 27.4738C9.11918 33.2205 13.938 37.906 19.6648 37.906C22.7577 37.906 25.0923 36.8848 26.9181 34.9826C28.7937 33.1004 29.3724 30.4573 29.3724 28.3148C29.3724 27.644 29.2926 26.9532 29.2028 26.4426H19.6648V29.2259H26.4591C26.2596 30.9679 25.7108 32.1593 24.9027 32.9702C23.925 33.9614 22.3785 35.0527 19.6648 35.0527Z" fill="white"/>
</g>
<defs>
<clipPath id="clip0_1_2">
<rect width="82" height="27" fill="white" transform="translate(9 17)"/>
</clipPath>
</defs>
</svg>
