<svg width="512" height="168" viewBox="0 0 512 168" fill="none" xmlns="http://www.w3.org/2000/svg">
<g clip-path="url(#clip0_3_18)">
<path d="M496.052 102.672L510.256 112.141C505.646 118.931 494.62 130.58 475.557 130.58C451.885 130.58 434.256 112.265 434.256 88.9671C434.256 64.1737 452.072 47.354 473.564 47.354C495.18 47.354 505.771 64.5474 509.197 73.8294L511.066 78.5638L455.374 101.613C459.61 109.961 466.213 114.197 475.557 114.197C484.902 114.197 491.38 109.587 496.052 102.672ZM452.384 87.6589L489.574 72.2098C487.518 67.0393 481.413 63.3638 474.125 63.3638C464.843 63.3638 451.948 71.5868 452.384 87.6589Z" fill="white"/>
<path d="M407.406 4.93103H425.348V126.78H407.406V4.93103Z" fill="white"/>
<path d="M379.125 50.5934H396.443V124.6C396.443 155.311 378.315 167.957 356.885 167.957C336.702 167.957 324.554 154.377 320.006 143.351L335.892 136.747C338.757 143.538 345.672 151.574 356.885 151.574C370.652 151.574 379.125 143.039 379.125 127.092V121.111H378.502C374.39 126.095 366.541 130.58 356.574 130.58C335.767 130.58 316.705 112.452 316.705 89.0917C316.705 65.6065 335.767 47.2917 356.574 47.2917C366.479 47.2917 374.39 51.7147 378.502 56.5737H379.125V50.5934ZM380.37 89.0917C380.37 74.3901 370.59 63.6753 358.131 63.6753C345.547 63.6753 334.957 74.3901 334.957 89.0917C334.957 103.606 345.547 114.134 358.131 114.134C370.59 114.197 380.37 103.606 380.37 89.0917Z" fill="white"/>
<path d="M218.216 88.7803C218.216 112.764 199.528 130.393 176.603 130.393C153.679 130.393 134.99 112.702 134.99 88.7803C134.99 64.672 153.679 47.1048 176.603 47.1048C199.528 47.1048 218.216 64.672 218.216 88.7803ZM200.026 88.7803C200.026 73.8294 189.187 63.5507 176.603 63.5507C164.02 63.5507 153.18 73.8294 153.18 88.7803C153.18 103.606 164.02 114.01 176.603 114.01C189.187 114.01 200.026 103.606 200.026 88.7803Z" fill="white"/>
<path d="M309.105 88.9671C309.105 112.951 290.416 130.58 267.492 130.58C244.567 130.58 225.879 112.951 225.879 88.9671C225.879 64.8589 244.567 47.354 267.492 47.354C290.416 47.354 309.105 64.7966 309.105 88.9671ZM290.852 88.9671C290.852 74.0163 280.013 63.7376 267.429 63.7376C254.846 63.7376 244.006 74.0163 244.006 88.9671C244.006 103.793 254.846 114.197 267.429 114.197C280.075 114.197 290.852 103.731 290.852 88.9671Z" fill="white"/>
<path d="M66.5901 112.328C40.4884 112.328 20.0556 91.272 20.0556 65.1704C20.0556 39.0688 40.4884 18.013 66.5901 18.013C80.6687 18.013 90.9474 23.5573 98.5474 30.6589L111.069 18.1376C100.479 7.9835 86.3376 0.258911 66.5901 0.258911C30.8327 0.258911 0.744141 29.413 0.744141 65.1704C0.744141 100.928 30.8327 130.082 66.5901 130.082C85.9015 130.082 100.479 123.728 111.879 111.892C123.59 100.18 127.203 83.7343 127.203 70.4032C127.203 66.2294 126.705 61.9311 126.144 58.754H66.5901V76.072H109.013C107.767 86.9114 104.341 94.3245 99.295 99.3704C93.1901 105.538 83.5343 112.328 66.5901 112.328Z" fill="white"/>
</g>
<defs>
<clipPath id="clip0_3_18">
<rect width="512" height="168" fill="white"/>
</clipPath>
</defs>
</svg>
