<svg width="512" height="205" viewBox="0 0 512 205" fill="none" xmlns="http://www.w3.org/2000/svg">
<g clip-path="url(#clip0_3_26)">
<path d="M99.5555 190.061V204.283H0V190.061H99.5555ZM255.138 190.06C245.152 199.241 232.071 204.319 218.505 204.282L113.778 204.141V190.06H255.138ZM403.166 190.06L398.2 204.282L393.278 190.06H403.166ZM355.556 190.061V204.283H284.445V190.061H355.556ZM512 190.061V204.283H440.889V190.061H512ZM271.247 162.909C270.026 167.898 268.1 172.687 265.525 177.131H113.778V162.909H271.247ZM412.698 162.909L407.706 177.132H388.739L383.747 162.909H412.698ZM355.556 162.909V177.131H284.445V162.909H355.556ZM512 162.909V177.131H440.889V162.909H512ZM99.5555 162.909V177.131H0V162.909H99.5555ZM71.111 135.757V149.98H28.4443V135.757H71.111ZM184.889 135.757V149.98H142.222V135.757H184.889ZM270.906 135.757C272.166 140.393 272.806 145.176 272.808 149.98H224.97V135.757H270.906ZM422.23 135.757L417.237 149.98H379.208L374.214 135.757H422.23ZM355.556 135.757V149.98H312.889V135.757H355.556ZM483.556 135.757V149.98H440.889V135.757H483.556ZM71.111 108.606V122.828H28.4443V108.606H71.111ZM355.556 108.606V122.828H312.889V108.606H355.556ZM483.556 108.606V122.828H440.889V108.606H483.556ZM253.646 108.605C258.382 112.635 262.395 117.445 265.509 122.827H142.222V108.605H253.646ZM431.762 108.605L426.77 122.828H369.675L364.683 108.605H431.762ZM394.224 81.455L398.222 92.951L402.219 81.455H483.555V95.6774H440.89V82.6086L436.301 95.6774H360.144L355.555 82.607V95.6774H312.89V81.455H394.224ZM142.222 81.4543L265.51 81.4551C262.396 86.8378 258.383 91.6479 253.646 95.6774H142.222V81.4543ZM71.111 81.4543V95.6766H28.4443V81.4543H71.111ZM71.111 54.303V68.5252H28.4443V54.303H71.111ZM184.889 54.303V68.5252H142.222V54.303H184.889ZM272.808 54.3031C272.806 59.1072 272.166 63.8896 270.906 68.5254H224.97V54.3031H272.808ZM384.782 54.303L389.728 68.5254H312.89V54.303H384.782ZM483.555 54.303V68.5254H406.717L411.662 54.303H483.555ZM99.5555 27.1515V41.3737H0V27.1515H99.5555ZM265.525 27.1515C268.1 31.5956 270.026 36.3845 271.247 41.3734H113.778V27.1515H265.525ZM512 27.151V41.3734H416.158L421.104 27.151H512ZM375.341 27.151L380.286 41.3734H284.445V27.151H375.341ZM99.5555 9.85716e-05V14.2223H0V9.85716e-05H99.5555ZM218.505 4.91529e-05C232.067 -0.0182214 245.141 5.0576 255.138 14.2222H113.778V4.91529e-05H218.505ZM512 0.000578572V14.223H425.6L430.546 0.000578572H512ZM365.899 0.000578572L370.845 14.223H284.445V0.000578572H365.899Z" fill="white"/>
</g>
<defs>
<clipPath id="clip0_3_26">
<rect width="512" height="205" fill="white"/>
</clipPath>
</defs>
</svg>
