<svg width="512" height="216" viewBox="0 0 512 216" fill="none" xmlns="http://www.w3.org/2000/svg">
<g clip-path="url(#clip0_3_29)">
<path d="M40.3003 3.01178H0V43.3121H40.3003V3.01178Z" fill="white"/>
<path d="M39.2964 212.975V67.693H1.00392V212.831H39.2964V212.975ZM292.858 214.409V178.841C287.265 178.841 282.532 178.555 279.09 177.981C275.075 177.407 272.063 175.973 270.055 173.965C268.047 171.957 266.756 169.089 266.039 165.217C265.466 161.631 265.179 156.899 265.179 151.162V100.536H292.858V67.693H265.179V11.1866H226.886V151.592C226.886 163.496 227.89 173.535 229.898 181.566C231.906 189.454 235.348 195.908 240.081 200.784C244.813 205.661 251.124 209.103 258.725 211.254C266.469 213.405 276.222 214.409 287.839 214.409H292.858ZM512 212.975V0H473.708V212.975H512ZM190.028 82.0347C179.415 70.5613 164.5 64.8247 145.569 64.8247C136.39 64.8247 127.928 66.6891 120.471 70.4179C112.869 74.1468 106.559 79.3098 101.396 85.907L99.3882 88.6319V86.1938V67.693H61.6695V212.831H99.6751V135.529V140.836C99.6751 139.975 99.6751 139.115 99.6751 138.254C100.105 124.63 103.404 114.59 109.714 108.137C116.455 101.253 124.63 97.8106 133.952 97.8106C144.995 97.8106 153.457 101.253 159.05 107.85C164.5 114.447 167.368 123.769 167.368 135.673V136.103V212.831H205.947V130.51C206.091 109.858 200.641 93.5081 190.028 82.0347ZM453.916 140.119C453.916 129.649 452.052 119.897 448.466 110.718C444.737 101.683 439.574 93.6515 433.12 86.7675C426.523 79.8835 418.635 74.577 409.457 70.7048C400.278 66.8325 390.095 64.9681 379.052 64.9681C368.583 64.9681 358.687 66.9759 349.508 70.8482C340.329 74.8639 332.298 80.1703 325.557 86.9109C318.817 93.6515 313.367 101.683 309.495 110.862C305.479 120.04 303.615 129.936 303.615 140.406C303.615 150.875 305.479 160.771 309.208 169.95C312.937 179.128 318.243 187.16 324.84 193.9C331.438 200.641 339.612 206.091 349.078 209.963C358.543 213.979 369.013 215.987 380.199 215.987C412.612 215.987 432.69 201.215 444.737 187.447L417.201 166.508C411.464 173.392 397.696 182.714 380.486 182.714C369.73 182.714 360.838 180.276 354.097 175.256C347.357 170.38 342.767 163.496 340.329 155.034L339.899 153.743H453.916V140.119ZM340.186 126.781C340.186 116.168 352.376 97.6672 378.622 97.5238C404.867 97.5238 417.201 116.025 417.201 126.638L340.186 126.781Z" fill="white"/>
</g>
<defs>
<clipPath id="clip0_3_29">
<rect width="512" height="216" fill="white"/>
</clipPath>
</defs>
</svg>
