<svg width="100" height="60" viewBox="0 0 100 60" fill="none" xmlns="http://www.w3.org/2000/svg">
<g clip-path="url(#clip0_1_2)">
<path d="M12.6539 32.466C12.6539 33.3783 12.8598 34.0788 13.1289 34.5025C13.4818 35.0576 14.0081 35.2927 14.5447 35.2927C15.2368 35.2927 15.8699 35.1257 17.0901 33.4847C18.0675 32.1694 19.2193 30.3231 19.9943 29.1657L21.3067 27.2048C22.2184 25.8429 23.2736 24.329 24.4834 23.3028C25.4712 22.4653 26.5366 22 27.609 22C29.4092 22 31.1241 23.0145 32.4365 24.9173C33.8728 27.0012 34.57 29.626 34.57 32.3347C34.57 33.945 34.2436 35.1282 33.6882 36.063C33.1516 36.967 32.1058 37.8702 30.3465 37.8702V35.2927C31.8529 35.2927 32.2289 33.9467 32.2289 32.4062C32.2289 30.2109 31.7025 27.7747 30.5431 26.034C29.7203 24.7993 28.6539 24.0448 27.4808 24.0448C26.212 24.0448 25.1909 24.9754 24.0434 26.6348C23.4334 27.5163 22.8071 28.5907 22.1039 29.803L21.3297 31.1366C19.7747 33.8179 19.3808 34.4286 18.6033 35.4365C17.2404 37.2013 16.0767 37.8702 14.5447 37.8702C12.7273 37.8702 11.5781 37.1049 10.8664 35.9516C10.2854 35.0119 10 33.7788 10 32.3738L12.6539 32.466Z" fill="white"/>
<path d="M12.0925 25.0993C13.3092 23.2754 15.0651 22 17.079 22C18.2453 22 19.4047 22.3357 20.6154 23.297C21.9398 24.3481 23.3513 26.0789 25.1123 28.9314L25.7437 29.955C27.268 32.4245 28.1353 33.6949 28.6428 34.294C29.2956 35.0634 29.7527 35.2927 30.3466 35.2927C31.8529 35.2927 32.2289 33.9467 32.2289 32.4062L34.57 32.3347C34.57 33.945 34.2436 35.1282 33.6882 36.063C33.1516 36.967 32.1058 37.8702 30.3466 37.8702C29.2529 37.8702 28.284 37.6392 27.2125 36.6562C26.3888 35.9018 25.4259 34.5615 24.6851 33.3567L22.4815 29.7772C21.3759 27.9808 20.3617 26.6414 19.7747 26.0348C19.1433 25.3826 18.3316 24.5949 17.0362 24.5949C15.9878 24.5949 15.0975 25.3103 14.3525 26.4046L12.0925 25.0993Z" fill="white"/>
<path d="M17.0362 24.5949C15.9878 24.5949 15.0975 25.3103 14.3525 26.4046C13.299 27.9509 12.6539 30.2542 12.6539 32.466C12.6539 33.3783 12.8598 34.0788 13.1289 34.5025L10.8664 35.9516C10.2854 35.0119 10 33.7788 10 32.3738C10 29.8188 10.7211 27.1557 12.0925 25.0993C13.3092 23.2754 15.0651 22 17.079 22L17.0362 24.5949Z" fill="white"/>
<path d="M39.729 22.5019H42.799L48.0187 31.685L53.2393 22.5019H56.2426V37.591H53.7383V26.0265L49.1603 34.0347H46.8106L42.2334 26.0265V37.591H39.729V22.5019ZM64.0897 28.1279C62.2937 28.1279 61.212 29.4424 60.9531 31.0701H67.0486C66.923 29.3933 65.9285 28.1279 64.0897 28.1279ZM58.4701 31.9974C58.4701 28.5724 60.7463 26.0797 64.1333 26.0797C67.4647 26.0797 69.4538 28.5408 69.4538 32.1802V32.849H60.9531C61.2547 34.6197 62.4629 35.8129 64.411 35.8129C65.9652 35.8129 66.9367 35.3517 67.8578 34.5084L69.1881 36.0929C67.9347 37.2138 66.3403 37.8602 64.3221 37.8602C60.6558 37.8602 58.4701 35.2603 58.4701 31.9974ZM72.4905 28.3439H70.1852V26.3498H72.4905V23.0519H74.9068V26.3498H78.4091V28.3439H74.9068V33.3983C74.9068 35.1241 75.4742 35.7373 76.8686 35.7373C77.5051 35.7373 77.87 35.6841 78.4091 35.5968V37.5694C77.7375 37.7538 77.0967 37.8386 76.4029 37.8386C73.7943 37.8386 72.4905 36.4527 72.4905 33.6783V28.3439ZM88.5837 30.2832C88.0984 29.0917 87.0158 28.2143 85.4248 28.2143C83.3571 28.2143 82.0336 29.6409 82.0336 31.965C82.0336 34.2308 83.252 35.7265 85.3257 35.7265C86.956 35.7265 88.1197 34.8042 88.5837 33.6567V30.2832ZM91 37.591H88.6281V36.0173C87.9651 36.9437 86.7586 37.8602 84.8045 37.8602C81.6619 37.8602 79.5617 35.3019 79.5617 31.965C79.5617 28.5965 81.7123 26.0797 84.9378 26.0797C86.5322 26.0797 87.7831 26.6996 88.6281 27.7939V26.3498H91V37.591Z" fill="white"/>
</g>
<defs>
<clipPath id="clip0_1_2">
<rect width="81" height="16" fill="white" transform="translate(10 22)"/>
</clipPath>
</defs>
</svg>
