<svg width="512" height="110" viewBox="0 0 512 110" fill="none" xmlns="http://www.w3.org/2000/svg">
<g clip-path="url(#clip0_3_37)">
<path d="M512 49.4487V40.4443H500.818V26.4457L500.442 26.5615L489.939 29.7746L489.733 29.8378V40.4443H473.156V34.5362C473.156 31.7849 473.771 29.6793 474.984 28.2752C476.188 26.8877 477.91 26.1826 480.106 26.1826C481.685 26.1826 483.32 26.5547 484.965 27.2883L485.378 27.4722V17.9893L485.184 17.9181C483.649 17.3665 481.561 17.0885 478.974 17.0885C475.712 17.0885 472.749 17.798 470.164 19.2046C467.578 20.6131 465.544 22.6239 464.119 25.1809C462.699 27.7347 461.979 30.6841 461.979 33.948V40.4443H454.193V49.4487H461.979V87.382H473.156V49.4487H489.733V73.5549C489.733 83.4829 494.415 88.5144 503.651 88.5144C505.169 88.5144 506.765 88.3361 508.397 87.9875C510.057 87.6303 511.187 87.273 511.853 86.8917L512 86.805V77.7171L511.546 78.018C510.939 78.4229 510.184 78.7529 509.298 78.9981C508.408 79.2482 507.665 79.3738 507.09 79.3738C504.926 79.3738 503.326 78.7907 502.332 77.6404C501.328 76.4795 500.818 74.4488 500.818 71.609V49.4487H512ZM429.232 79.3747C425.175 79.3747 421.977 78.0294 419.722 75.3796C417.455 72.7162 416.305 68.9192 416.305 64.0951C416.305 59.1181 417.455 55.2227 419.724 52.5122C421.979 49.8197 425.147 48.4534 429.141 48.4534C433.016 48.4534 436.101 49.7585 438.311 52.3346C440.532 54.9237 441.659 58.7881 441.659 63.8233C441.659 68.9205 440.599 72.8357 438.509 75.4545C436.434 78.0542 433.313 79.3747 429.232 79.3747ZM429.73 39.3135C421.99 39.3135 415.842 41.5813 411.459 46.0543C407.079 50.528 404.858 56.7185 404.858 64.4561C404.858 71.8049 407.026 77.7161 411.302 82.0226C415.578 86.331 421.398 88.5134 428.597 88.5134C436.1 88.5134 442.125 86.214 446.507 81.679C450.888 77.1484 453.107 71.0168 453.107 63.4599C453.107 55.996 451.024 50.0408 446.915 45.7627C442.803 41.4828 437.02 39.3135 429.73 39.3135ZM386.836 39.3132C381.571 39.3132 377.217 40.6598 373.889 43.3151C370.543 45.986 368.845 49.4895 368.845 53.7285C368.845 55.932 369.211 57.8896 369.933 59.5494C370.658 61.2154 371.781 62.6815 373.273 63.9123C374.754 65.1331 377.038 66.4122 380.067 67.713C382.612 68.7605 384.511 69.647 385.717 70.3454C386.896 71.0295 387.733 71.718 388.205 72.3878C388.664 73.0435 388.897 73.9406 388.897 75.0488C388.897 78.2019 386.536 79.736 381.677 79.736C379.874 79.736 377.818 79.3602 375.566 78.6179C373.312 77.8768 371.207 76.8114 369.309 75.445L368.845 75.1125V85.8732L369.015 85.9525C370.597 86.6824 372.591 87.2978 374.941 87.7826C377.287 88.2673 379.417 88.5144 381.269 88.5144C386.982 88.5144 391.583 87.161 394.94 84.4902C398.318 81.8008 400.031 78.2149 400.031 73.8285C400.031 70.6649 399.109 67.9513 397.292 65.7634C395.488 63.5928 392.356 61.6005 387.988 59.8391C384.508 58.4424 382.278 57.2828 381.359 56.3932C380.472 55.5332 380.022 54.3173 380.022 52.7776C380.022 51.4125 380.578 50.3191 381.719 49.4332C382.868 48.5429 384.468 48.0903 386.475 48.0903C388.338 48.0903 390.243 48.3844 392.138 48.9608C394.032 49.5372 395.694 50.3092 397.083 51.254L397.539 51.566V41.3581L397.364 41.2826C396.083 40.7335 394.394 40.2636 392.343 39.8822C390.3 39.5045 388.447 39.3132 386.836 39.3132ZM339.706 79.3747C335.65 79.3747 332.451 78.0294 330.197 75.3796C327.929 72.7162 326.782 68.9205 326.782 64.0951C326.782 59.1181 327.93 55.2227 330.2 52.5122C332.453 49.8197 335.621 48.4534 339.616 48.4534C343.491 48.4534 346.576 49.7585 348.786 52.3346C351.007 54.9237 352.134 58.7881 352.134 63.8233C352.134 68.9205 351.073 72.8357 348.983 75.4545C346.908 78.0542 343.788 79.3747 339.706 79.3747ZM340.205 39.3135C332.463 39.3135 326.315 41.5813 321.935 46.0543C317.554 50.528 315.332 56.7185 315.332 64.4561C315.332 71.808 317.501 77.7161 321.777 82.0226C326.053 86.331 331.872 88.5134 339.073 88.5134C346.574 88.5134 352.601 86.214 356.982 81.679C361.362 77.1484 363.583 71.0168 363.583 63.4599C363.583 55.996 361.499 50.0408 357.389 45.7627C353.276 41.4828 347.494 39.3135 340.205 39.3135ZM298.365 48.5726V40.4443H287.324V87.3808H298.365V63.3711C298.365 59.2881 299.29 55.9344 301.117 53.401C302.92 50.898 305.324 49.6294 308.258 49.6294C309.252 49.6294 310.368 49.7935 311.577 50.1179C312.774 50.4405 313.641 50.7903 314.152 51.1586L314.616 51.4948V40.3639L314.437 40.2871C313.409 39.85 311.954 39.6296 310.114 39.6296C307.339 39.6296 304.856 40.5211 302.73 42.2763C300.863 43.8191 299.513 45.9346 298.482 48.5726H298.365ZM267.552 39.3132C262.487 39.3132 257.968 40.3998 254.125 42.5406C250.274 44.6865 247.296 47.7504 245.27 51.6465C243.253 55.5332 242.229 60.0732 242.229 65.1356C242.229 69.5703 243.222 73.6403 245.184 77.2268C247.148 80.8195 249.928 83.6302 253.446 85.5798C256.96 87.5269 261.021 88.5144 265.517 88.5144C270.763 88.5144 275.243 87.465 278.835 85.3965L278.98 85.313V75.198L278.517 75.5366C276.89 76.7216 275.071 77.6676 273.115 78.3492C271.163 79.0302 269.384 79.3745 267.825 79.3745C263.492 79.3745 260.015 78.0186 257.49 75.3465C254.96 72.6701 253.677 68.9128 253.677 64.184C253.677 59.4256 255.015 55.5716 257.651 52.7274C260.28 49.8919 263.764 48.4537 268.007 48.4537C271.636 48.4537 275.172 49.6827 278.518 52.1096L278.98 52.4458V41.7878L278.831 41.7036C277.572 40.9991 275.855 40.4171 273.723 39.9757C271.601 39.5355 269.525 39.3132 267.552 39.3132ZM234.625 40.4445H223.583V87.3809H234.625V40.4445ZM229.217 20.4491C227.4 20.4491 225.815 21.0676 224.513 22.2935C223.205 23.523 222.541 25.0708 222.541 26.8972C222.541 28.695 223.197 30.2143 224.492 31.4111C225.778 32.6041 227.368 33.209 229.217 33.209C231.065 33.209 232.661 32.6041 233.963 31.4129C235.273 30.2143 235.938 28.695 235.938 26.8972C235.938 25.1346 235.291 23.6023 234.017 22.343C232.744 21.0862 231.128 20.4491 229.217 20.4491ZM201.669 36.9816V87.3806H212.937V21.8865H197.342L177.519 70.5335L158.283 21.8865H142.053V87.3806H152.642V36.9766H153.006L173.319 87.3806H181.31L201.305 36.9816H201.669Z" fill="white"/>
<path d="M51.9394 51.9394H0V0H51.9394V51.9394Z" fill="white"/>
<path d="M109.287 51.9394H57.348V0H109.287V51.9394Z" fill="white"/>
<path d="M51.9382 109.307H0V57.3678H51.9382V109.307Z" fill="white"/>
<path d="M109.287 109.307H57.348V57.3678H109.287V109.307Z" fill="white"/>
</g>
<defs>
<clipPath id="clip0_3_37">
<rect width="512" height="110" fill="white"/>
</clipPath>
</defs>
</svg>
