<svg width="100" height="60" viewBox="0 0 100 60" fill="none" xmlns="http://www.w3.org/2000/svg">
<g clip-path="url(#clip0_1_2)">
<path d="M91 29.0916V27.6182H89.2092V25.3275L89.1489 25.3464L87.4668 25.8722L87.4337 25.8825V27.6182H84.7789V26.6514C84.7789 26.2012 84.8774 25.8566 85.0716 25.6268C85.2644 25.3998 85.5403 25.2844 85.892 25.2844C86.1449 25.2844 86.4068 25.3453 86.6702 25.4654L86.7363 25.4954V23.9437L86.7052 23.9321C86.4594 23.8418 86.125 23.7963 85.7106 23.7963C85.1883 23.7963 84.7136 23.9124 84.2998 24.1426C83.8856 24.373 83.5598 24.7021 83.3316 25.1205C83.1042 25.5384 82.9888 26.021 82.9888 26.5551V27.6182H81.7418V29.0916H82.9888V35.2989H84.7789V29.0916H87.4337V33.0362C87.4337 34.6608 88.1837 35.4842 89.6628 35.4842C89.9059 35.4842 90.1617 35.455 90.4229 35.398C90.6888 35.3395 90.8698 35.281 90.9764 35.2186L91 35.2045V33.7173L90.9272 33.7666C90.83 33.8328 90.7091 33.8868 90.5672 33.927C90.4247 33.9679 90.3057 33.9884 90.2136 33.9884C89.8671 33.9884 89.6108 33.893 89.4516 33.7048C89.2908 33.5148 89.2092 33.1825 89.2092 32.7178V29.0916H91ZM77.7442 33.9886C77.0944 33.9886 76.5822 33.7684 76.2212 33.3348C75.858 32.899 75.6739 32.2777 75.6739 31.4883C75.6739 30.6739 75.858 30.0364 76.2214 29.5929C76.5826 29.1523 77.0899 28.9287 77.7296 28.9287C78.3503 28.9287 78.8444 29.1423 79.1983 29.5638C79.554 29.9875 79.7345 30.6199 79.7345 31.4438C79.7345 32.2779 79.5647 32.9186 79.23 33.3471C78.8976 33.7725 78.3978 33.9886 77.7442 33.9886ZM77.8239 27.4331C76.5843 27.4331 75.5997 27.8042 74.8977 28.5362C74.1962 29.2682 73.8405 30.2812 73.8405 31.5474C73.8405 32.7499 74.1877 33.7172 74.8726 34.4219C75.5574 35.1269 76.4895 35.484 77.6425 35.484C78.8442 35.484 79.8091 35.1077 80.5109 34.3657C81.2125 33.6243 81.5679 32.6209 81.5679 31.3844C81.5679 30.163 81.2344 29.1885 80.5762 28.4884C79.9177 27.7881 78.9915 27.4331 77.8239 27.4331ZM70.9542 27.4331C70.111 27.4331 69.4136 27.6534 68.8807 28.0879C68.3447 28.525 68.0728 29.0983 68.0728 29.7919C68.0728 30.1525 68.1315 30.4728 68.247 30.7444C68.3632 31.0171 68.5431 31.257 68.782 31.4584C69.0192 31.6581 69.385 31.8675 69.8701 32.0803C70.2777 32.2517 70.5818 32.3968 70.775 32.5111C70.9638 32.623 71.0978 32.7357 71.1735 32.8453C71.2469 32.9526 71.2843 33.0994 71.2843 33.2807C71.2843 33.7967 70.9062 34.0477 70.1279 34.0477C69.8393 34.0477 69.51 33.9862 69.1492 33.8647C68.7883 33.7435 68.4511 33.5691 68.1471 33.3455L68.0728 33.2911V35.052L68.1001 35.065C68.3534 35.1844 68.6727 35.2851 69.0491 35.3644C69.4248 35.4437 69.7661 35.4842 70.0626 35.4842C70.9776 35.4842 71.7145 35.2627 72.2521 34.8257C72.7932 34.3856 73.0674 33.7988 73.0674 33.081C73.0674 32.5633 72.9198 32.1193 72.6288 31.7613C72.3398 31.4061 71.8383 31.0801 71.1387 30.7919C70.5813 30.5633 70.2243 30.3736 70.077 30.228C69.935 30.0873 69.863 29.8883 69.863 29.6363C69.863 29.4129 69.9519 29.234 70.1346 29.0891C70.3188 28.9434 70.575 28.8693 70.8964 28.8693C71.1947 28.8693 71.4999 28.9174 71.8033 29.0118C72.1066 29.1061 72.3729 29.2324 72.5953 29.387L72.6684 29.4381V27.7677L72.6404 27.7553C72.4352 27.6655 72.1647 27.5886 71.8362 27.5262C71.509 27.4644 71.2122 27.4331 70.9542 27.4331ZM63.406 33.9886C62.7565 33.9886 62.2441 33.7684 61.8831 33.3348C61.5198 32.899 61.3361 32.2779 61.3361 31.4883C61.3361 30.6739 61.52 30.0364 61.8835 29.5929C62.2445 29.1523 62.7517 28.9287 63.3917 28.9287C64.0122 28.9287 64.5063 29.1423 64.8602 29.5638C65.216 29.9875 65.3965 30.6199 65.3965 31.4438C65.3965 32.2779 65.2266 32.9186 64.8919 33.3471C64.5595 33.7725 64.0599 33.9886 63.406 33.9886ZM63.486 27.4331C62.246 27.4331 61.2614 27.8042 60.5598 28.5362C59.8583 29.2682 59.5023 30.2812 59.5023 31.5474C59.5023 32.7504 59.8498 33.7172 60.5346 34.4219C61.2195 35.1269 62.1514 35.484 63.3046 35.484C64.506 35.484 65.4712 35.1077 66.1729 34.3657C66.8744 33.6243 67.23 32.6209 67.23 31.3844C67.23 30.163 66.8964 29.1885 66.2381 28.4884C65.5794 27.7881 64.6534 27.4331 63.486 27.4331ZM56.785 28.9482V27.6182H55.0167V35.2987H56.785V31.3698C56.785 30.7017 56.9332 30.1529 57.2257 29.7384C57.5146 29.3288 57.8995 29.1212 58.3694 29.1212C58.5286 29.1212 58.7074 29.148 58.901 29.2011C59.0927 29.2539 59.2315 29.3111 59.3134 29.3714L59.3877 29.4264V27.605L59.359 27.5924C59.1943 27.5209 58.9614 27.4848 58.6666 27.4848C58.2223 27.4848 57.8246 27.6307 57.484 27.9179C57.1851 28.1704 56.9689 28.5166 56.8037 28.9482H56.785ZM51.8501 27.4331C51.0389 27.4331 50.3152 27.6109 49.6997 27.9612C49.083 28.3123 48.606 28.8137 48.2815 29.4512C47.9585 30.0873 47.7945 30.8302 47.7945 31.6586C47.7945 32.3842 47.9535 33.0502 48.2678 33.6371C48.5823 34.225 49.0275 34.6849 49.591 35.004C50.1537 35.3226 50.8041 35.4842 51.5241 35.4842C52.3645 35.4842 53.0819 35.3124 53.6572 34.974L53.6804 34.9603V33.3051L53.6062 33.3605C53.3456 33.5544 53.0544 33.7092 52.7411 33.8208C52.4285 33.9322 52.1435 33.9885 51.8938 33.9885C51.1999 33.9885 50.6429 33.7667 50.2386 33.3294C49.8334 32.8915 49.6279 32.2766 49.6279 31.5028C49.6279 30.7242 49.8422 30.0935 50.2645 29.6281C50.6854 29.1641 51.2434 28.9288 51.9229 28.9288C52.5042 28.9288 53.0705 29.1299 53.6064 29.527L53.6804 29.582V27.838L53.6565 27.8242C53.4549 27.7089 53.1799 27.6137 52.8384 27.5415C52.4985 27.4694 52.1661 27.4331 51.8501 27.4331ZM46.5766 27.6182H44.8083V35.2987H46.5766V27.6182ZM45.7105 24.3462C45.4195 24.3462 45.1656 24.4474 44.9571 24.648C44.7477 24.8492 44.6414 25.1025 44.6414 25.4014C44.6414 25.6956 44.7464 25.9442 44.9537 26.14C45.1598 26.3352 45.4144 26.4342 45.7105 26.4342C46.0064 26.4342 46.2621 26.3352 46.4706 26.1403C46.6805 25.9442 46.7869 25.6956 46.7869 25.4014C46.7869 25.1129 46.6834 24.8622 46.4792 24.6561C46.2754 24.4505 46.0167 24.3462 45.7105 24.3462ZM41.2985 27.0515V35.2987H43.1031V24.5814H40.6055L37.4308 32.5418L34.35 24.5814H31.7507V35.2987H33.4465V27.0507H33.5048L36.7581 35.2987H38.0378L41.2403 27.0515H41.2985Z" fill="white"/>
<path d="M17.3184 29.4992H9V21H17.3184V29.4992Z" fill="white"/>
<path d="M26.503 29.4992H18.1846V21H26.503V29.4992Z" fill="white"/>
<path d="M17.3182 38.8866H9V30.3875H17.3182V38.8866Z" fill="white"/>
<path d="M26.503 38.8866H18.1846V30.3875H26.503V38.8866Z" fill="white"/>
</g>
<defs>
<clipPath id="clip0_1_2">
<rect width="82" height="18" fill="white" transform="translate(9 21)"/>
</clipPath>
</defs>
</svg>
