<svg width="100" height="60" viewBox="0 0 100 60" fill="none" xmlns="http://www.w3.org/2000/svg">
<g clip-path="url(#clip0_1_2)">
<path d="M63.5584 19V34.9744C65.5378 35.0661 67.5122 35.1769 69.4809 35.3076V38.6944C66.3687 38.4879 63.2433 38.3303 60.105 38.2228V19H63.5584ZM91 19.0019L86.5033 29.3792L90.9989 40.9273L90.9939 40.9295C89.6843 40.7435 88.3731 40.5679 87.058 40.3996L84.5334 33.9182L81.9848 39.7979C80.777 39.6652 79.5675 39.5396 78.3553 39.4219L82.739 29.3098L78.7243 19.0019H82.46L84.7078 24.7703L87.2073 19.0019H91ZM48.2532 38.0549L48.2531 19.0018H57.8929V22.419H51.7064V26.8479H56.3873V30.2347H51.7064V38.0541L48.2532 38.0549ZM35.3585 22.4193L35.3584 19.0017H46.0394V22.4191H42.4255V38.1476C41.2728 38.1776 40.1214 38.2132 38.9724 38.2564V22.4193H35.3585ZM23.5531 39.241V19.0022H33.1448V22.4194H27.0059V27.0483C28.4162 27.0304 30.4215 27.01 31.6691 27.013V30.4C30.1075 30.3807 28.3447 30.4213 27.0059 30.4346V35.5621C29.0462 35.4024 31.0928 35.2626 33.1448 35.1446V38.5317C29.9331 38.7159 26.7357 38.9531 23.5531 39.241ZM16.779 31.4115L16.7787 19.0017H20.2321V39.5603C18.9697 39.6895 17.7097 39.8271 16.4519 39.9723L12.4531 28.5372V40.4621C11.2998 40.6116 10.1488 40.7675 9 40.9302V19.0019H12.2818L16.779 31.4115ZM72.3298 38.8987V19.0019H75.7832V39.1826C74.6336 39.0807 73.4828 38.9865 72.3298 38.8987Z" fill="white"/>
</g>
<defs>
<clipPath id="clip0_1_2">
<rect width="82" height="22" fill="white" transform="translate(9 19)"/>
</clipPath>
</defs>
</svg>
