<svg width="100" height="60" viewBox="0 0 100 60" fill="none" xmlns="http://www.w3.org/2000/svg">
<g clip-path="url(#clip0_1_2)">
<path d="M59.0976 25.0031V35.4256H61.9829V25.0031H59.0976ZM36.3969 24.9854V35.4167H39.3081V27.3172L41.5782 27.3261C42.3233 27.3261 42.8432 27.5115 43.1984 27.9002C43.6577 28.3948 43.8396 29.1986 43.8396 30.656V35.4167H46.6642V29.6579C46.6642 25.5419 44.0909 24.9854 41.5782 24.9854H36.3969ZM63.7504 25.0031V35.4256H68.4292C70.9246 35.4256 71.739 35.0016 72.6141 34.0565C73.238 33.3941 73.6365 31.9279 73.6365 30.3292C73.6365 28.8629 73.2986 27.5557 72.7008 26.7431C71.6437 25.2857 70.1014 25.0031 67.7967 25.0031H63.7504ZM66.6097 27.2642H67.8487C69.6509 27.2642 70.8119 28.0857 70.8119 30.2232C70.8119 32.3607 69.6509 33.1909 67.8487 33.1909H66.6097V27.2642ZM54.9387 25.0031L52.53 33.2616L50.2253 25.0031H47.1061L50.3986 35.4256H54.5575L57.8846 25.0031H54.9387ZM74.9882 35.4256H77.8734V25.0031H74.9882V35.4256ZM83.0807 25.0031L79.0518 35.4167H81.8937L82.5349 33.5707H87.3003L87.9068 35.4079H91L86.9364 25.0031H83.0807ZM84.9522 26.9021L86.7025 31.7777H83.15L84.9522 26.9021Z" fill="white"/>
<path d="M17.777 26.7343V25.3034C17.9157 25.2946 18.0543 25.2857 18.1929 25.2857C22.0399 25.1621 24.5613 28.6598 24.5613 28.6598C24.5613 28.6598 21.8407 32.5108 18.9208 32.5108C18.5309 32.5108 18.1496 32.449 17.7857 32.3253V27.9797C19.2847 28.1652 19.5879 28.8364 20.4803 30.3645L22.4818 28.651C22.4818 28.651 21.0175 26.6989 18.5568 26.6989C18.2969 26.6901 18.037 26.7078 17.777 26.7343ZM17.777 22V24.1375L18.1929 24.111C23.5389 23.9255 27.0306 28.5803 27.0306 28.5803C27.0306 28.5803 23.0277 33.5442 18.8601 33.5442C18.4962 33.5442 18.141 33.5089 17.7857 33.4471V34.772C18.0803 34.8073 18.3836 34.8338 18.6781 34.8338C22.5598 34.8338 25.3671 32.8111 28.0877 30.4263C28.5382 30.7973 30.3838 31.6894 30.765 32.078C28.183 34.2862 22.1612 36.0615 18.7475 36.0615C18.4182 36.0615 18.1063 36.0439 17.7944 36.0085V37.8722H32.5412V22H17.777ZM17.777 32.3253V33.4559C14.19 32.8023 13.1936 28.9954 13.1936 28.9954C13.1936 28.9954 14.9178 27.0523 17.777 26.7343V27.9708H17.7684C16.2694 27.7854 15.0911 29.2162 15.0911 29.2162C15.0911 29.2162 15.7582 31.6275 17.777 32.3253ZM11.4087 28.8364C11.4087 28.8364 13.5315 25.639 17.7857 25.3034V24.1375C13.0723 24.5261 9 28.5891 9 28.5891C9 28.5891 11.3047 35.3902 17.777 36.0085V34.772C13.029 34.1713 11.4087 28.8364 11.4087 28.8364Z" fill="white"/>
</g>
<defs>
<clipPath id="clip0_1_2">
<rect width="82" height="16" fill="white" transform="translate(9 22)"/>
</clipPath>
</defs>
</svg>
