<svg width="100" height="60" viewBox="0 0 100 60" fill="none" xmlns="http://www.w3.org/2000/svg">
<g clip-path="url(#clip0_1_2)">
<path d="M44.4 32.1094H49.8184L46.9534 27.3842L41.695 35.9276H39.3018L45.6977 25.6652C45.9758 25.2505 46.4393 25 46.9534 25C47.4505 25 47.914 25.2419 48.1836 25.6479L54.6048 35.9276H52.2116L51.0825 34.0185H45.5966L44.4 32.1094ZM69.259 34.0185V25.1037H67.2281V34.891C67.2281 35.1588 67.3293 35.4179 67.5231 35.6166C67.7169 35.8153 67.9781 35.9276 68.2646 35.9276H77.5256L78.7222 34.0185H69.259ZM35.6615 32.4204C37.6334 32.4204 39.2344 30.7877 39.2344 28.7664C39.2344 26.745 37.6334 25.1037 35.6615 25.1037H26.7771V35.9276H28.8071V27.0128H35.5266C36.4705 27.0128 37.2289 27.7988 37.2289 28.7664C37.2289 29.7339 36.4705 30.52 35.5266 30.52L29.8015 30.5113L35.8637 35.9276H38.8131L34.7345 32.4204H35.6615ZM14.2803 35.9276C11.3654 35.9276 9 33.5089 9 30.52C9 27.5311 11.3654 25.1037 14.2803 25.1037H20.4174C23.3331 25.1037 25.6968 27.5311 25.6968 30.52C25.6968 33.5089 23.3331 35.9276 20.4174 35.9276H14.2803ZM20.2809 34.0185C22.1694 34.0185 23.6988 32.455 23.6988 30.52C23.6988 28.5849 22.1694 27.0128 20.2809 27.0128H14.4159C12.5283 27.0128 10.998 28.5849 10.998 30.52C10.998 32.455 12.5283 34.0185 14.4159 34.0185H20.2809ZM58.8435 35.9276C55.9278 35.9276 53.5599 33.5089 53.5599 30.52C53.5599 27.5311 55.9278 25.1037 58.8435 25.1037H66.1326L64.9445 27.0128H58.9783C57.0907 27.0128 55.5571 28.5849 55.5571 30.52C55.5571 32.455 57.0907 34.0185 58.9783 34.0185H66.3011L65.1046 35.9276H58.8435ZM83.6772 34.0185C82.1182 34.0185 80.7952 32.9474 80.3907 31.4702H89.0703L90.2669 29.5611H80.3907C80.7952 28.0926 82.1182 27.0128 83.6772 27.0128H89.6349L90.8399 25.1037H83.5423C80.6267 25.1037 78.2588 27.5311 78.2588 30.52C78.2588 33.5089 80.6267 35.9276 83.5423 35.9276H89.8034L91 34.0185H83.6772Z" fill="white"/>
</g>
<defs>
<clipPath id="clip0_1_2">
<rect width="82" height="11" fill="white" transform="translate(9 25)"/>
</clipPath>
</defs>
</svg>
