<svg width="1280" height="340" viewBox="0 0 1280 340" fill="none" xmlns="http://www.w3.org/2000/svg">
<g clip-path="url(#clip0_3_48)">
<path d="M409.3 67.8616C406.666 67.8616 404.428 69.774 404.016 72.3781L373.523 265.757C373.412 266.464 373.456 267.186 373.651 267.874C373.845 268.562 374.187 269.199 374.652 269.743C375.116 270.286 375.693 270.722 376.343 271.022C376.992 271.321 377.699 271.476 378.414 271.476H414.576C417.207 271.476 419.448 269.56 419.86 266.959L428.817 210.172C429.226 207.572 431.467 205.655 434.101 205.655H466.979C505.394 205.655 538.004 177.627 543.961 139.646C549.966 101.344 520.044 67.9448 477.634 67.8616H409.3ZM444.453 111.031H470.759C492.415 111.031 499.468 123.81 497.238 137.942C495.008 152.103 484.055 162.535 463.105 162.535H436.331L444.453 111.031ZM617.51 124.176C608.379 124.211 597.872 126.081 586.076 130.995C559.018 142.273 546.024 165.581 540.506 182.574C540.506 182.574 522.943 234.418 562.624 262.9C562.624 262.9 599.425 290.321 640.853 261.211L640.138 265.757C640.027 266.463 640.071 267.185 640.265 267.872C640.46 268.559 640.8 269.197 641.264 269.74C641.728 270.283 642.304 270.72 642.953 271.019C643.601 271.319 644.307 271.475 645.021 271.476H679.351C681.985 271.476 684.222 269.56 684.634 266.959L705.516 134.532C705.628 133.826 705.586 133.104 705.392 132.416C705.198 131.727 704.857 131.089 704.393 130.545C703.929 130.001 703.353 129.564 702.704 129.263C702.055 128.963 701.348 128.807 700.633 128.806H666.304C663.67 128.806 661.428 130.723 661.02 133.323L659.898 140.451C659.898 140.451 644.908 124.074 617.51 124.176ZM618.633 166.004C622.575 166.004 626.18 166.549 629.416 167.588C644.228 172.343 652.626 186.573 650.195 201.997C647.198 220.989 631.623 234.973 611.648 234.973C607.71 234.973 604.104 234.433 600.865 233.393C586.057 228.639 577.606 214.409 580.036 198.985C583.033 179.993 598.658 166.004 618.633 166.004Z" fill="white" fill-opacity="0.6"/>
<path d="M903.661 67.8616C901.027 67.8616 898.79 69.774 898.378 72.3781L867.885 265.757C867.774 266.464 867.817 267.186 868.012 267.874C868.207 268.562 868.549 269.199 869.013 269.743C869.478 270.286 870.055 270.722 870.704 271.022C871.354 271.321 872.06 271.476 872.775 271.476H908.938C911.568 271.476 913.81 269.56 914.222 266.959L923.179 210.172C923.587 207.572 925.828 205.655 928.463 205.655H961.341C999.756 205.655 1032.36 177.627 1038.31 139.646C1044.32 101.344 1014.41 67.9448 971.995 67.8616H903.661ZM938.815 111.031H965.12C986.777 111.031 993.83 123.81 991.6 137.942C989.37 152.103 978.421 162.535 957.467 162.535H930.693L938.815 111.031ZM1111.87 124.176C1102.74 124.211 1092.23 126.081 1080.43 130.995C1053.38 142.273 1040.38 165.581 1034.86 182.574C1034.86 182.574 1017.31 234.418 1056.99 262.9C1056.99 262.9 1093.78 290.321 1135.21 261.211L1134.5 265.757C1134.39 266.464 1134.43 267.186 1134.63 267.874C1134.82 268.562 1135.16 269.199 1135.63 269.743C1136.09 270.286 1136.67 270.722 1137.32 271.022C1137.97 271.321 1138.68 271.476 1139.39 271.476H1173.72C1176.35 271.476 1178.59 269.56 1179 266.959L1199.89 134.532C1200 133.825 1199.96 133.103 1199.76 132.414C1199.57 131.725 1199.23 131.086 1198.76 130.542C1198.3 129.998 1197.72 129.561 1197.07 129.261C1196.42 128.961 1195.71 128.806 1195 128.806H1160.67C1158.03 128.806 1155.79 130.723 1155.39 133.323L1154.26 140.451C1154.26 140.451 1139.27 124.074 1111.87 124.176ZM1112.99 166.004C1116.93 166.004 1120.54 166.549 1123.77 167.588C1138.59 172.343 1146.98 186.573 1144.55 201.997C1141.56 220.989 1125.98 234.973 1106.01 234.973C1102.07 234.973 1098.46 234.433 1095.22 233.393C1080.41 228.639 1071.96 214.409 1074.39 198.985C1077.39 179.993 1093.02 166.004 1112.99 166.004Z" fill="white"/>
<path d="M721.806 128.806C719.085 128.806 717.15 131.463 717.981 134.052L755.618 250.843L721.587 305.881C719.935 308.553 721.855 312.004 724.996 312.004H765.218C766.368 312.003 767.499 311.705 768.5 311.14C769.502 310.574 770.341 309.76 770.936 308.776L876.048 134.891C877.662 132.219 875.735 128.803 872.613 128.803H832.395C831.234 128.804 830.092 129.107 829.084 129.683C828.075 130.259 827.234 131.087 826.642 132.087L785.268 201.94L764.265 132.605C763.581 130.348 761.499 128.803 759.144 128.803L721.806 128.806Z" fill="white" fill-opacity="0.6"/>
<path d="M1238.89 67.8616C1236.26 67.8616 1234.02 69.7778 1233.61 72.3781L1203.11 265.75C1203 266.457 1203.04 267.18 1203.23 267.869C1203.43 268.557 1203.77 269.196 1204.23 269.74C1204.7 270.285 1205.28 270.722 1205.93 271.021C1206.58 271.321 1207.28 271.476 1208 271.476H1244.16C1246.79 271.476 1249.03 269.56 1249.45 266.959L1279.94 73.58C1280.05 72.8743 1280.01 72.1529 1279.81 71.4655C1279.62 70.778 1279.28 70.1408 1278.81 69.5976C1278.35 69.0543 1277.77 68.6178 1277.12 68.3182C1276.48 68.0185 1275.77 67.8628 1275.06 67.8616H1238.89Z" fill="white"/>
<path d="M107.822 67.8616C105.493 67.8635 103.24 68.6961 101.47 70.2098C99.6991 71.7235 98.5261 73.819 98.1618 76.1199L82.1104 177.925C82.8587 173.17 86.9556 169.667 91.7707 169.667H138.807C186.145 169.667 226.314 135.133 233.654 88.3353C234.2 84.8414 234.51 81.3147 234.58 77.7791C222.55 71.4711 208.418 67.8616 192.933 67.8616H107.822Z" fill="white" fill-opacity="0.4"/>
<path d="M234.58 77.7828C234.51 81.3184 234.2 84.8452 233.654 88.339C226.314 135.137 186.142 169.671 138.807 169.671H91.7706C86.9593 169.671 82.8586 173.17 82.1103 177.929L67.3511 271.48L58.1065 330.168C57.926 331.302 57.9936 332.462 58.3048 333.567C58.616 334.672 59.1635 335.696 59.909 336.569C60.6546 337.443 61.5807 338.144 62.6235 338.624C63.6663 339.104 64.8009 339.353 65.949 339.352H117.003C119.332 339.35 121.585 338.518 123.355 337.004C125.126 335.49 126.299 333.395 126.663 331.094L140.111 245.802C140.475 243.499 141.649 241.403 143.421 239.889C145.194 238.375 147.448 237.543 149.779 237.543H179.837C227.176 237.543 267.345 203.01 274.684 156.212C279.896 122.997 263.168 92.7724 234.58 77.7828Z" fill="white"/>
<path d="M49.8218 0.000244141C45.0105 0.000244141 40.9098 3.50009 40.1614 8.25095L0.0983569 262.295C-0.661327 267.118 3.06538 271.48 7.94853 271.48H67.3588L82.1104 177.929L98.1618 76.1236C98.5261 73.8228 99.6991 71.7273 101.47 70.2136C103.241 68.6999 105.493 67.8673 107.822 67.8654H192.933C208.422 67.8654 222.55 71.4786 234.58 77.7829C235.404 35.1763 200.247 0.000244141 151.91 0.000244141H49.8218Z" fill="white" fill-opacity="0.6"/>
</g>
<defs>
<clipPath id="clip0_3_48">
<rect width="1280" height="339.345" fill="white"/>
</clipPath>
</defs>
</svg>
