<svg width="100" height="60" viewBox="0 0 100 60" fill="none" xmlns="http://www.w3.org/2000/svg">
<g clip-path="url(#clip0_1_2)">
<path d="M31.1322 27.2608C31.3519 27.2608 31.5403 27.4361 31.5403 27.6631V35.349C31.5403 35.5656 31.3414 35.741 31.1322 35.741H30.0753C29.8764 35.741 29.6776 35.5863 29.6776 35.3696V34.6578C29.1439 35.4315 28.2231 35.968 26.8836 35.968C24.6442 35.968 23.2629 34.503 23.2629 32.3262V27.6425C23.2629 27.4258 23.4618 27.2504 23.6711 27.2504H24.728C24.9477 27.2504 25.1256 27.4258 25.1256 27.6425V32.027C25.1256 33.4404 25.879 34.3792 27.365 34.3792C28.8195 34.3792 29.6776 33.4095 29.6776 32.0477V27.6425C29.6776 27.4258 29.8764 27.2504 30.0753 27.2504H31.1322M15.5402 23C11.9196 23 9 25.7752 9 29.4788C9 33.1928 11.9196 35.9577 15.5402 35.9577C16.1576 35.9577 16.7541 35.8751 17.3192 35.7204L18.0308 37.5258C18.104 37.7218 18.2505 37.8456 18.5121 37.8456H19.6423C19.9143 37.8456 20.1132 37.6702 19.9876 37.3298L19.0667 34.9673C20.8771 33.8428 22.0805 31.8517 22.0805 29.4685C22.0805 25.7752 19.1609 23 15.5402 23ZM18.3865 33.2444L17.5599 31.1295C17.4866 30.9541 17.3401 30.789 17.0262 30.789H15.9483C15.6763 30.789 15.467 30.9644 15.5926 31.3049L16.6809 34.08C16.3251 34.1729 15.9379 34.2142 15.5402 34.2142C12.8927 34.2142 11.0092 32.1612 11.0092 29.4788C11.0092 26.7965 12.8927 24.7435 15.5402 24.7435C18.1877 24.7435 20.0713 26.7965 20.0713 29.4788C20.0713 31.047 19.433 32.3881 18.3865 33.2444ZM90.9675 35.3077C91.0616 35.5244 90.9465 35.7307 90.6849 35.7307H89.5025C89.2827 35.7307 89.1048 35.6275 89.0316 35.4109L86.8445 29.6129L84.626 35.4109C84.5319 35.6379 84.3749 35.7307 84.1552 35.7307H83.0982C82.8785 35.7307 82.7215 35.6379 82.6274 35.4109L80.388 29.582L78.18 35.4109C78.0858 35.6275 77.9288 35.7307 77.7091 35.7307H76.5999C76.3801 35.7307 76.2232 35.6275 76.129 35.4109L73.9419 29.582L71.6816 35.4109C71.5874 35.6379 71.4305 35.7307 71.2107 35.7307H70.1538C69.9341 35.7307 69.7771 35.6379 69.6829 35.4109L67.4749 29.582L65.267 35.4109C65.1937 35.6275 65.0158 35.7307 64.7961 35.7307H63.645C63.3729 35.7307 63.2683 35.5141 63.3624 35.3077L66.3552 27.5909C66.4494 27.3639 66.6064 27.2504 66.8261 27.2504H68.1133C68.333 27.2504 68.49 27.3536 68.5842 27.5909L70.7398 33.2238L72.8746 27.5909C72.9687 27.3639 73.1257 27.2504 73.3455 27.2504H74.6116C74.8314 27.2504 74.9884 27.3536 75.0825 27.5909L77.1963 33.2238L79.3101 27.5909C79.4043 27.3639 79.5613 27.2504 79.781 27.2504H81.0577C81.2774 27.2504 81.4344 27.3536 81.5286 27.5909L83.6738 33.2238L85.7667 27.5909C85.8608 27.3639 86.0178 27.2504 86.2376 27.2504H87.5247C87.7444 27.2504 87.9014 27.3536 87.9956 27.5909L90.9675 35.3077ZM41.3768 27.2608H40.3199C40.1001 27.2608 39.9118 27.4361 39.9118 27.6631V28.3646C39.3781 27.5703 38.3316 27.0028 37.0969 27.0028C34.7633 27.0028 32.7646 28.8186 32.7646 31.4699C32.7646 34.1523 34.7738 35.9577 37.0864 35.9577C38.3421 35.9577 39.3572 35.3903 39.9222 34.5959V35.3387C39.9222 35.5553 40.1211 35.7307 40.3303 35.7307H41.3872C41.607 35.7307 41.7849 35.5553 41.7849 35.3387V27.6631C41.7744 27.4361 41.5965 27.2608 41.3768 27.2608ZM37.2957 34.2657C35.7574 34.2657 34.6587 33.0277 34.6587 31.4906C34.6587 29.9328 35.7469 28.736 37.2957 28.736C38.8235 28.736 39.9327 29.9328 39.9327 31.4906C39.9222 33.0381 38.813 34.2657 37.2957 34.2657ZM53.9864 34.534C54.2166 34.8125 54.0177 35.0292 53.8922 35.122C53.1597 35.6688 52.1865 35.968 51.1296 35.968C48.4612 35.968 46.6822 34.0388 46.6822 31.5009C46.6822 28.963 48.4612 27.0132 51.1296 27.0132C52.1865 27.0132 53.1492 27.3123 53.8922 27.8591C54.0177 27.952 54.1956 28.1377 53.9864 28.4472L53.4841 29.1384C53.2852 29.4066 53.055 29.3344 52.8562 29.2106C52.3853 28.9321 51.8307 28.6948 51.1924 28.6948C49.6332 28.6948 48.5972 29.9328 48.5972 31.5009C48.5972 33.069 49.6332 34.2967 51.1924 34.2967C51.8412 34.2967 52.3539 34.0491 52.8248 33.7809C53.0236 33.6777 53.2329 33.5848 53.4527 33.8737L53.9864 34.534ZM58.9674 27.0235C56.4559 27.0235 54.4572 28.963 54.4572 31.4906C54.4572 34.0388 56.4664 35.9577 58.9674 35.9577C61.4788 35.9577 63.4776 34.0285 63.4776 31.4906C63.488 28.9733 61.4788 27.0235 58.9674 27.0235ZM58.9674 34.2554C57.4291 34.2554 56.3304 33.0381 56.3304 31.5009C56.3304 29.9431 57.4187 28.7464 58.9674 28.7464C60.5057 28.7464 61.6044 29.9431 61.6044 31.5009C61.6044 33.0381 60.5161 34.2554 58.9674 34.2554ZM45.0812 23.227C45.3114 23.227 45.4788 23.423 45.4788 23.6293V35.3284C45.4788 35.545 45.3219 35.7307 45.0812 35.7307H44.0243C43.8045 35.7307 43.6162 35.5347 43.6162 35.3284V23.6396C43.6162 23.423 43.815 23.2373 44.0243 23.2373H45.0812" fill="white"/>
</g>
<defs>
<clipPath id="clip0_1_2">
<rect width="82" height="15" fill="white" transform="translate(9 23)"/>
</clipPath>
</defs>
</svg>
