<svg width="100" height="60" viewBox="0 0 100 60" fill="none" xmlns="http://www.w3.org/2000/svg">
<g clip-path="url(#clip0_1_2)">
<path d="M30.7417 1.04125C35.9636 1.04126 40.6041 3.50894 43.5464 7.33226C46.2205 4.56311 49.9436 2.84597 54.061 2.84593C59.5345 2.84593 64.31 5.87906 66.853 10.3821C69.0628 9.40075 71.5089 8.85478 74.0825 8.85472C83.9545 8.85472 91.9583 16.8778 91.9585 26.7746C91.9585 36.6728 83.9546 44.6965 74.0825 44.6965C72.8779 44.6965 71.7005 44.5768 70.562 44.3479C68.3225 48.3179 64.055 51.0002 59.1567 51.0002C57.1063 51.0002 55.1668 50.5296 53.4399 49.6926C51.1698 54.9997 45.8806 58.7208 39.7163 58.7209C33.2968 58.7209 27.8252 54.6842 25.7251 49.0227C24.8075 49.2163 23.8568 49.3166 22.8813 49.3166C15.2381 49.3166 9.0415 43.0952 9.0415 35.4192C9.04162 30.2755 11.8252 25.784 15.9614 23.3811C15.1099 21.4337 14.6362 19.2842 14.6362 17.0246C14.6363 8.19714 21.8477 1.04125 30.7417 1.04125ZM57.3296 21.1799C56.4603 21.1799 55.7752 21.4242 55.2944 21.9055C54.8161 22.3844 54.4916 23.1135 54.3286 24.0725L54.269 24.3948H53.1782C53.1782 24.3948 53.0456 24.3905 53.0171 24.5334L52.8384 25.5276C52.8254 25.6215 52.8671 25.6818 52.9946 25.6819H54.0561L52.979 31.6594C52.8952 32.1404 52.7983 32.5357 52.6909 32.8362C52.5859 33.1317 52.4834 33.3539 52.356 33.5159C52.2332 33.6707 52.1171 33.7858 51.9165 33.8528C51.7511 33.9079 51.5592 33.9338 51.3501 33.9338C51.2344 33.9338 51.0798 33.9153 50.9653 33.8918C50.8521 33.8695 50.7917 33.8452 50.7056 33.8088C50.7056 33.8088 50.5813 33.7617 50.5317 33.885C50.4925 33.9879 50.2095 34.7607 50.1753 34.8557C50.1423 34.9507 50.1893 35.0247 50.2495 35.0471C50.3912 35.0964 50.4965 35.1293 50.689 35.175C50.9559 35.2373 51.1816 35.2405 51.3931 35.2405C51.8347 35.2405 52.2385 35.1785 52.5727 35.0588C52.9082 34.9379 53.2016 34.7277 53.4614 34.4436C53.7413 34.1361 53.9168 33.8143 54.0845 33.3743C54.251 32.9399 54.3939 32.3999 54.5073 31.7707L55.5913 25.6819H57.1733C57.1733 25.6819 57.3073 25.6865 57.3345 25.5422L57.5142 24.5491C57.526 24.454 57.4855 24.3948 57.3569 24.3948H55.8198C55.8285 24.3571 55.8984 23.8216 56.0737 23.3176C56.1493 23.1028 56.2913 22.9276 56.4106 22.8078C56.5287 22.6906 56.6643 22.6069 56.813 22.5588C56.9654 22.5095 57.1394 22.4866 57.3296 22.4866C57.4737 22.4866 57.6166 22.5033 57.7241 22.5256C57.8728 22.5573 57.9312 22.5735 57.9702 22.5852C58.1269 22.6319 58.1485 22.586 58.1792 22.511L58.5464 21.509C58.5842 21.401 58.4906 21.3549 58.4575 21.342C58.304 21.2951 58.1647 21.2637 57.9829 21.2297C57.7987 21.1969 57.5788 21.1799 57.3296 21.1799ZM23.897 24.2278C22.3402 24.2278 21.2534 25.1618 21.2534 26.5012V26.5295C21.2535 27.9416 22.4524 28.3997 23.5757 28.719L23.7563 28.7737C24.5748 29.0237 25.2798 29.2389 25.2798 29.8118V29.8401C25.2796 30.3633 24.8215 30.753 24.0825 30.7532C23.7955 30.7532 22.8797 30.7471 21.8911 30.1262C21.7718 30.057 21.702 30.0066 21.6099 29.9514C21.5614 29.9209 21.4394 29.8679 21.3862 30.0276L21.0513 30.9524C20.9995 31.0868 21.0695 31.1155 21.0864 31.1389C21.2422 31.2515 21.4007 31.3328 21.5601 31.4231C22.4058 31.8692 23.2045 31.9993 24.0395 31.9993C25.7404 31.9993 26.7964 31.1 26.7964 29.6526V29.6252C26.7964 28.287 25.6044 27.8004 24.4858 27.4494L24.3403 27.4026C23.4972 27.1303 22.7701 26.8955 22.77 26.344V26.3147C22.77 25.8428 23.195 25.4954 23.854 25.4953C24.5863 25.4953 25.4562 25.7366 26.0161 26.0442C26.0222 26.048 26.1807 26.1469 26.2397 25.9914C26.2731 25.9062 26.5569 25.1488 26.5864 25.0666C26.6182 24.9775 26.5613 24.9114 26.5034 24.8762C25.8645 24.4901 24.981 24.2258 24.0669 24.2258L23.897 24.2278ZM48.7964 24.2278C47.2397 24.2278 46.1528 25.1619 46.1528 26.5012V26.5295C46.1529 27.9415 47.3519 28.3997 48.4751 28.719L48.6558 28.7737C49.4743 29.0237 50.1811 29.2389 50.1811 29.8118V29.8401C50.1809 30.3634 49.7212 30.7532 48.9819 30.7532C48.6948 30.7532 47.7791 30.7472 46.7905 30.1262C46.6715 30.0571 46.6008 30.0088 46.5112 29.9514C46.4805 29.9314 46.3362 29.8761 46.2866 30.0276L45.9507 30.9524C45.8988 31.0872 45.9702 31.1154 45.9868 31.1389C46.1427 31.2516 46.301 31.3327 46.4604 31.4231C47.3061 31.8691 48.1049 31.9993 48.9399 31.9993C50.6405 31.9991 51.6958 31.0998 51.6958 29.6526V29.6252C51.6958 28.2871 50.5047 27.8004 49.3862 27.4494L49.2407 27.4026C48.3974 27.1303 47.6695 26.8956 47.6694 26.344V26.3147C47.6694 25.8428 48.0953 25.4953 48.7544 25.4953C49.4866 25.4954 50.3557 25.7367 50.9155 26.0442C50.9155 26.0442 51.0799 26.1499 51.1401 25.9914C51.1738 25.9054 51.4563 25.1487 51.4858 25.0666C51.5177 24.9775 51.4616 24.9115 51.4038 24.8762C50.7648 24.49 49.8805 24.2258 48.9663 24.2258L48.7964 24.2278ZM41.8979 24.2483C41.2993 24.2483 40.7537 24.3484 40.312 24.5549C39.8691 24.7615 39.4963 25.0438 39.2046 25.3948C38.913 25.7445 38.6935 26.1611 38.5542 26.634C38.4149 27.1046 38.3423 27.6174 38.3423 28.1584C38.3423 28.709 38.4157 29.2225 38.561 29.6838C38.7075 30.1486 38.9418 30.5585 39.2583 30.8977C39.5736 31.2392 39.9798 31.507 40.4663 31.6936C40.9493 31.879 41.5362 31.975 42.2104 31.9739C43.5983 31.9692 44.3301 31.6618 44.6313 31.4963C44.6844 31.467 44.7351 31.4146 44.6714 31.2668L44.3579 30.3928C44.3095 30.2625 44.1763 30.3108 44.1763 30.3108C43.8326 30.4376 43.3447 30.6647 42.2026 30.6623C41.4587 30.6612 40.9062 30.4432 40.5601 30.1018C40.2045 29.752 40.0302 29.2374 39.9995 28.5119L44.8061 28.5168C44.8124 28.5166 44.9319 28.5113 44.9448 28.3928C44.9495 28.3412 45.1107 27.4107 44.8013 26.3342C44.6807 25.8824 44.383 25.4259 44.187 25.217C43.8775 24.886 43.5749 24.6547 43.2749 24.5256C42.8828 24.359 42.4128 24.2483 41.8979 24.2483ZM80.3882 24.2483C79.7882 24.2483 79.243 24.3483 78.8013 24.5549C78.3584 24.7615 77.9865 25.0438 77.6948 25.3948C77.4032 25.7445 77.1838 26.1611 77.0444 26.634C76.9039 27.1046 76.8325 27.6174 76.8325 28.1584C76.8325 28.709 76.906 29.2225 77.0513 29.6838C77.1977 30.1486 77.4311 30.5585 77.7476 30.8977C78.0629 31.2393 78.4699 31.5069 78.9565 31.6936C79.4395 31.879 80.0264 31.975 80.7007 31.9739C82.0879 31.9692 82.8191 31.6619 83.1206 31.4963C83.1738 31.467 83.2254 31.4147 83.1616 31.2668L82.8472 30.3928C82.8005 30.2642 82.6699 30.3096 82.6665 30.3108C82.3228 30.4376 81.8336 30.6647 80.6938 30.6623C79.9485 30.6612 79.3954 30.4434 79.0493 30.1018C78.6938 29.752 78.5204 29.2374 78.4897 28.5119L83.2964 28.5168C83.3049 28.5165 83.4223 28.5101 83.4351 28.3928C83.4398 28.3412 83.6008 27.4107 83.2925 26.3342C83.172 25.8825 82.8733 25.426 82.6772 25.217C82.3678 24.886 82.0651 24.6547 81.7651 24.5256C81.3731 24.359 80.903 24.2483 80.3882 24.2483ZM30.897 24.2405C30.5367 24.2405 29.9561 24.2903 29.6089 24.3596C29.5918 24.3629 28.5552 24.5638 28.1265 24.8967C28.1237 24.8984 28.0333 24.9576 28.0845 25.0871L28.4243 25.9953C28.4667 26.1123 28.5806 26.0738 28.5815 26.0735C28.5815 26.0735 28.6181 26.0591 28.6606 26.0344C29.5759 25.5395 30.7306 25.5498 30.7544 25.55C31.2741 25.55 31.6736 25.6532 31.9429 25.8586C32.2051 26.0582 32.3384 26.3601 32.3384 26.9963V27.1975C31.9308 27.1396 31.5566 27.1056 31.5464 27.1047C31.3516 27.0906 31.0986 27.0823 30.7964 27.0823C30.3842 27.0823 29.986 27.1348 29.6128 27.2346C29.2373 27.3344 28.8994 27.49 28.6089 27.6965C28.3171 27.9043 28.0817 28.17 27.9116 28.4846C27.7417 28.7991 27.6558 29.1699 27.6558 29.5852C27.6558 30.0078 27.729 30.3755 27.8755 30.676C28.0219 30.9776 28.2332 31.2285 28.5024 31.4221C28.7694 31.6158 29.0992 31.7583 29.4819 31.844C29.8586 31.9296 30.2859 31.9729 30.7534 31.9729C31.2459 31.9729 31.7374 31.9328 32.2134 31.8518C32.6847 31.772 33.2637 31.6558 33.4243 31.6194C33.5837 31.5818 33.7612 31.5344 33.7612 31.5344C33.8774 31.5056 33.871 31.3838 33.8706 31.3782L33.8686 27.01C33.8686 26.0521 33.6107 25.3418 33.104 24.9016C32.5997 24.4627 31.857 24.2405 30.897 24.2405ZM61.1118 24.2483C60.5355 24.2483 60.0228 24.3503 59.5894 24.551C59.1547 24.7529 58.7881 25.0301 58.4976 25.3752C58.2094 25.7203 57.9926 26.1337 57.852 26.6008C57.7139 27.0668 57.644 27.5763 57.644 28.1174C57.644 28.6586 57.7139 29.1692 57.852 29.634C57.9926 30.1011 58.2081 30.5145 58.4985 30.8596C58.7879 31.2047 59.1559 31.481 59.5894 31.677C60.024 31.8729 60.5355 31.9729 61.1118 31.9729C61.687 31.9729 62.1987 31.873 62.6333 31.677C63.0667 31.481 63.4338 31.2047 63.7231 30.8596C64.0125 30.5157 64.2302 30.1024 64.3696 29.634C64.509 29.168 64.5786 28.6574 64.5786 28.1174C64.5786 27.5775 64.509 27.0668 64.3696 26.6008C64.2302 26.1324 64.0125 25.7192 63.7231 25.3752C63.4338 25.0302 63.0679 24.7529 62.6333 24.551C62.1998 24.3503 61.687 24.2483 61.1118 24.2483ZM74.2095 24.2414C73.613 24.2414 73.0812 24.3423 72.6265 24.5442C72.173 24.7449 71.7876 25.0214 71.4829 25.3664C71.1783 25.7115 70.9472 26.125 70.7925 26.592C70.6389 27.0581 70.561 27.5704 70.561 28.1116C70.5611 29.2817 70.8784 30.2276 71.5054 30.9202C72.1337 31.615 73.0775 31.9689 74.3081 31.969C75.0357 31.969 75.7826 31.8217 76.3188 31.6116C76.3241 31.6089 76.4201 31.5589 76.3765 31.4436L76.0278 30.4875C75.9806 30.3502 75.8472 30.4016 75.8472 30.4016C75.6405 30.4802 75.4208 30.5527 75.187 30.5891C74.9496 30.6255 74.6886 30.6448 74.4087 30.6448C73.7214 30.6447 73.1756 30.4417 72.7847 30.0403C72.3925 29.6388 72.173 28.9895 72.1753 28.1116C72.1777 27.3121 72.3718 26.711 72.7202 26.2532C73.0663 25.7978 73.5927 25.5637 74.2954 25.5637C74.8812 25.5637 75.3277 25.6309 75.7954 25.7776C75.7954 25.7776 75.9073 25.8255 75.9604 25.6799C76.0844 25.3372 76.1768 25.0918 76.3091 24.7151C76.3466 24.6087 76.2555 24.5631 76.2222 24.55C76.038 24.4785 75.6032 24.3621 75.2749 24.3127C74.9679 24.2658 74.6086 24.2415 74.2095 24.2414ZM69.4321 24.3352C68.8286 24.2988 68.4929 24.3996 68.1929 24.5334C67.8952 24.6673 67.5646 24.8838 67.3804 25.1291V24.5481C67.3804 24.4671 67.322 24.4016 67.2417 24.4016H66.0102C65.9299 24.4016 65.8716 24.4671 65.8716 24.5481V31.6721C65.8717 31.7517 65.9379 31.8175 66.0181 31.8176H67.2808C67.361 31.8176 67.4261 31.7518 67.4263 31.6721V28.1125C67.4263 27.6348 67.4792 27.1579 67.5854 26.8586C67.6894 26.5629 67.8316 26.3257 68.0063 26.1555C68.1822 25.9866 68.3817 25.8679 68.6001 25.801C68.8233 25.7329 69.0708 25.7112 69.2456 25.7112C69.4927 25.7112 69.7636 25.7735 69.7729 25.7756C69.8649 25.7862 69.917 25.7298 69.9477 25.6467C70.0304 25.4284 70.2642 24.7742 70.3091 24.6438C70.3455 24.5363 70.2699 24.4849 70.2378 24.4729C70.1563 24.4412 69.7475 24.3552 69.4321 24.3352ZM35.5747 21.3342C35.4945 21.3342 35.4372 21.3982 35.437 21.4778V31.6721C35.437 31.7519 35.4944 31.8166 35.5747 31.8166H36.8491C36.9293 31.8165 36.9868 31.7519 36.9868 31.6721V21.4778C36.9866 21.3982 36.9292 21.3343 36.8491 21.3342H35.5747ZM31.0356 28.2873C31.7243 28.2967 32.3403 28.3977 32.3403 28.3977V30.5696H32.3413C32.3413 30.5696 31.7307 30.6993 31.0435 30.7405C30.0825 30.7981 29.6458 30.4715 29.6343 30.4612C29.4465 30.3121 29.4197 30.2742 29.356 30.178C29.2616 30.0312 29.2134 29.822 29.2134 29.5569C29.2135 29.1368 29.3528 28.8351 29.6421 28.6321C29.6483 28.625 30.0669 28.2746 31.0356 28.2873ZM61.1118 25.5432C61.7424 25.5432 62.1946 25.7603 62.4946 26.2063C62.7958 26.6571 62.9497 27.3004 62.9497 28.1174C62.9497 28.9356 62.796 29.5799 62.4936 30.0354C62.1948 30.4861 61.7425 30.7053 61.1118 30.7053C60.4799 30.7053 60.0299 30.4873 59.7358 30.0354C59.4382 29.5811 59.2866 28.9356 59.2866 28.1174C59.2866 27.3004 59.4382 26.6571 59.7358 26.2063C60.0299 25.7603 60.4799 25.5432 61.1118 25.5432ZM41.7847 25.5139C42.4152 25.5139 42.8323 25.7604 43.1323 26.2063C43.3295 26.5008 43.4154 26.8955 43.4497 27.3332H40.022C40.0905 26.8791 40.2158 26.5009 40.4106 26.2063C40.7047 25.7591 41.154 25.5139 41.7847 25.5139ZM80.2749 25.5139C80.9052 25.514 81.3219 25.7606 81.6206 26.2063C81.819 26.5009 81.9057 26.8955 81.9399 27.3332H78.5122C78.5795 26.8791 78.706 26.5009 78.9009 26.2063C79.195 25.7592 79.6443 25.5139 80.2749 25.5139Z" fill="white"/>
</g>
<defs>
<clipPath id="clip0_1_2">
<rect width="83" height="58" fill="white" transform="translate(9 1)"/>
</clipPath>
</defs>
</svg>
