<svg width="100" height="60" viewBox="0 0 100 60" fill="none" xmlns="http://www.w3.org/2000/svg">
<path d="M9.50805 23L9 24.9834H13.7079L11.9805 31.9001L10.7104 37.0028H13.7926L15.0627 31.9001L16.79 24.9834H21.481L21.9721 23H9.50805ZM86.257 24.2036L85.6134 26.8143H83.1409L82.6668 28.7469H91.71L86.257 24.2036ZM25.5115 26.2379C23.6324 26.2379 22.0026 26.7296 20.6173 27.7128C19.2395 28.7103 18.3447 30.017 17.9416 31.6288C17.9179 31.7231 17.8928 31.8078 17.8739 31.9001C17.5643 33.3966 17.8387 34.6172 18.7037 35.5449C19.6256 36.5213 21.0482 37.0028 22.9713 37.0028C26.2492 37.0028 28.7617 35.001 29.017 34.782L27.5945 34.4599C27.2599 34.5372 25.4377 35.0654 23.6148 34.9007C21.3151 34.6938 20.7935 33.0081 20.9222 32.1713H30.1517L30.2364 31.9001L30.3041 31.6119C30.7227 29.9315 30.5012 28.6099 29.6436 27.6619C28.7793 26.7058 27.4096 26.2379 25.5115 26.2379ZM52.8614 26.2379C50.884 26.2379 49.0957 26.7512 47.4761 27.7976C45.8537 28.8445 44.8586 30.1417 44.4786 31.6627C44.4576 31.7461 44.4271 31.818 44.4109 31.9001C44.127 33.3119 44.503 34.506 45.5286 35.477C46.6165 36.4955 48.1562 37.0028 50.1518 37.0028C51.3609 37.0028 52.6297 36.7519 53.9621 36.2569L54.7411 33.1545C53.8551 33.8374 53.112 34.291 52.5227 34.5277C51.9144 34.7718 51.2566 34.9007 50.5413 34.9007C49.4202 34.9007 48.5721 34.5996 48.0011 33.9852C47.4957 33.4319 47.3149 32.7294 47.4591 31.9001C47.4754 31.8085 47.5032 31.7231 47.5269 31.6288C47.7606 30.6944 48.3228 29.9092 49.2204 29.2894C50.1159 28.6696 51.1299 28.357 52.2517 28.357C52.9664 28.357 53.5449 28.4784 54.0129 28.7299C54.4898 28.9734 54.9897 29.4304 55.5032 30.0861L56.2822 26.9499C55.2722 26.4692 54.1328 26.2379 52.8614 26.2379ZM64.0215 26.2379C62.1417 26.2379 60.5119 26.7296 59.1273 27.7128C57.7488 28.7103 56.8539 30.017 56.4516 31.6288C56.4279 31.7231 56.4034 31.8078 56.3838 31.9001C56.0736 33.3966 56.3472 34.6172 57.2136 35.5449C58.1342 36.5213 59.5588 37.0028 61.4812 37.0028C64.7578 37.0028 67.2723 35.001 67.527 34.782L66.1045 34.4599C65.7698 34.5372 63.9476 35.0654 62.1248 34.9007C59.8257 34.6938 59.302 33.0081 59.4321 32.1713H68.6616L68.7463 31.9001L68.814 31.6119C69.234 29.9315 69.0267 28.6099 68.1705 27.6619C67.3062 26.7058 65.9202 26.2379 64.0215 26.2379ZM40.0078 26.5261C38.7018 26.5261 37.4249 26.9303 36.1805 27.7467L33.4201 26.8143L32.15 31.9001L30.8799 37.0028H33.8774L35.0967 32.0865C35.1123 32.0235 35.1319 31.957 35.1474 31.9001C35.459 30.7283 35.877 29.8929 36.3837 29.408C36.927 28.8927 37.6816 28.6452 38.6699 28.6452C39.579 28.6452 40.1676 28.8303 40.4142 29.2216C40.6709 29.604 40.6655 30.3025 40.4142 31.3067L40.2787 31.9001L38.9917 37.0028H41.9891L43.2593 31.9001L43.5471 30.7473C43.9068 29.3104 43.8079 28.2817 43.2423 27.645C42.59 26.8991 41.5089 26.5261 40.0078 26.5261ZM78.2637 26.5261C76.957 26.5261 75.6821 26.9303 74.4364 27.7467L71.676 26.8143L70.4059 31.9001L69.1358 37.0028H72.1333L73.3526 32.0865C73.3688 32.0235 73.3872 31.957 73.4034 31.9001C73.7163 30.7283 74.1316 29.8929 74.6396 29.408C75.1836 28.8927 75.9361 28.6452 76.9258 28.6452C77.8342 28.6452 78.4229 28.8303 78.6701 29.2216C78.9262 29.604 78.9214 30.3025 78.6701 31.3067L78.5177 31.9001L77.2476 37.0028H80.2451L81.5152 31.9001L81.8031 30.7473C82.1628 29.3104 82.0632 28.2817 81.4982 27.645C80.8466 26.8991 79.7635 26.5261 78.2637 26.5261ZM25.0373 28.357C26.6265 28.357 27.476 28.9822 27.5776 30.2387H21.5996C21.7689 29.9458 21.9654 29.6895 22.2092 29.4589C22.451 29.2297 22.724 29.0256 23.0221 28.8656C23.3283 28.6974 23.6487 28.5767 23.9874 28.4926C24.3274 28.4017 24.6756 28.357 25.0373 28.357ZM63.5473 28.357C65.1365 28.357 65.9873 28.9822 66.0875 30.2387H60.1095C60.2802 29.9458 60.4773 29.6895 60.7192 29.4589C60.9623 29.2297 61.2374 29.0256 61.532 28.8656C61.8409 28.6974 62.1586 28.5767 62.4973 28.4926C62.8387 28.4017 63.1849 28.357 63.5473 28.357ZM85.0207 29.1877L84.3433 31.9001L83.0563 37.0028H86.0368L87.3239 31.9001L88.0013 29.1877H85.0207Z" fill="white"/>
</svg>
