<svg width="512" height="116" viewBox="0 0 512 116" fill="none" xmlns="http://www.w3.org/2000/svg">
<g clip-path="url(#clip0_3_71)">
<path d="M255.42 28.9757C235.427 28.9757 221.012 42.0147 221.012 61.5733C221.012 81.1319 237.238 94.1709 257.231 94.1709C269.311 94.1709 279.959 89.3899 286.551 81.3311L272.697 73.3265C269.039 77.3288 263.479 79.665 257.231 79.665C248.557 79.665 241.186 75.1375 238.452 67.8936H289.195C289.594 65.8653 289.829 63.7646 289.829 61.5552C289.829 42.0147 275.414 28.9757 255.42 28.9757ZM238.289 55.2349C240.552 48.0091 246.746 43.4635 255.402 43.4635C264.077 43.4635 270.271 48.0091 272.516 55.2349H238.289ZM450.427 28.9757C430.433 28.9757 416.018 42.0147 416.018 61.5733C416.018 81.1319 432.244 94.1709 452.238 94.1709C464.317 94.1709 474.965 89.3899 481.557 81.3311L467.703 73.3265C464.045 77.3288 458.486 79.665 452.238 79.665C443.563 79.665 436.192 75.1375 433.458 67.8936H484.201C484.6 65.8653 484.835 63.7646 484.835 61.5552C484.835 42.0147 470.42 28.9757 450.427 28.9757ZM433.313 55.2349C435.577 48.0091 441.77 43.4635 450.427 43.4635C459.101 43.4635 465.295 48.0091 467.54 55.2349H433.313ZM362.63 61.5733C362.63 72.4392 369.729 79.6831 380.74 79.6831C388.201 79.6831 393.797 76.2965 396.677 70.7731L410.585 78.7957C404.826 88.3939 394.033 94.1709 380.74 94.1709C360.729 94.1709 346.332 81.1319 346.332 61.5733C346.332 42.0147 360.747 28.9757 380.74 28.9757C394.033 28.9757 404.808 34.7527 410.585 44.3509L396.677 52.3735C393.797 46.85 388.201 43.4635 380.74 43.4635C369.748 43.4635 362.63 50.7074 362.63 61.5733ZM512 9.0549V92.3599H495.701V9.0549H512ZM66.9157 0L133.831 115.903H0L66.9157 0ZM234.214 9.0549L184.032 95.9819L133.849 9.0549H152.666L184.032 63.3843L215.398 9.0549H234.214ZM340.899 30.7866V48.335C339.088 47.8098 337.168 47.4477 335.104 47.4477C324.582 47.4477 316.994 54.6916 316.994 65.5574V92.3599H300.695V30.7866H316.994V47.4477C316.994 38.2479 327.697 30.7866 340.899 30.7866Z" fill="white"/>
</g>
<defs>
<clipPath id="clip0_3_71">
<rect width="512" height="116" fill="white"/>
</clipPath>
</defs>
</svg>
