<svg width="190" height="190" viewBox="0 0 190 190" fill="none" xmlns="http://www.w3.org/2000/svg">
<g filter="url(#filter0_d_604_189)">
<circle cx="95" cy="95" r="75" fill="white" fill-opacity="0.18" shape-rendering="crispEdges"/>
</g>
<g clip-path="url(#clip0_604_189)">
<path d="M95 165C133.66 165 165 133.66 165 95C165 56.3401 133.66 25 95 25C56.3401 25 25 56.3401 25 95C25 133.66 56.3401 165 95 165Z" fill="black" fill-opacity="0.24"/>
<path d="M153.503 83.6581C153.503 100.319 146.557 115.357 135.403 126.035C131.708 129.574 127.55 132.631 123.03 135.111C114.667 139.703 105.059 142.315 94.8455 142.315C84.6318 142.315 75.0289 139.706 66.6658 135.114C65.3178 134.376 64.0037 133.586 62.7251 132.746C59.7085 130.771 56.8855 128.52 54.2903 126.035C43.1357 115.359 36.1877 100.319 36.1877 83.6578C36.1877 51.262 62.4497 25 94.8455 25C127.241 25 153.503 51.2623 153.503 83.6581Z" fill="white" fill-opacity="0.3"/>
<path d="M143.397 145.571C138.988 149.794 134.026 153.443 128.631 156.403C118.652 161.883 107.186 165 94.9973 165C82.8088 165 71.3488 161.886 61.3689 156.406C55.9745 153.448 51.0116 149.797 46.6002 145.571C51.0775 134.205 61.966 126.068 74.8116 125.611C75.1887 125.594 75.5715 125.585 75.9546 125.585H114.043C114.426 125.585 114.809 125.594 115.186 125.611C128.032 126.068 138.92 134.206 143.397 145.571Z" fill="#0E0D11"/>
<path d="M94.9973 147.674C94.9973 147.674 143.476 112.481 141.733 109.313C139.131 104.579 135.267 101.349 131.45 99.1579C125.043 95.4813 118.76 94.7354 118.76 94.7354L80.1704 127.487L94.9973 147.674Z" fill="#1B1A23"/>
<path d="M94.9973 147.674C94.9973 147.674 143.476 112.481 141.733 109.313C139.131 104.579 135.267 101.349 131.45 99.1578C135.353 103.476 139.1 110.045 133.335 115.807C132.404 116.739 131.379 117.37 130.287 117.749C126.476 119.074 122.93 121.065 120.008 123.848L94.9973 147.674Z" fill="#0E0D11"/>
<path d="M94.9973 147.674C94.9973 147.674 46.519 112.481 48.2611 109.313C50.8634 104.579 54.7276 101.349 58.5442 99.1579C64.9514 95.4813 71.2347 94.7354 71.2347 94.7354L94.9973 147.674Z" fill="#1B1A23"/>
<path d="M135.102 65.9344L121.749 73.8097V89.8293C121.749 93.5166 124.738 96.5059 128.426 96.5059C132.113 96.5059 135.102 93.5166 135.102 89.8293V65.9344Z" fill="#A5FB9D"/>
<path d="M54.8917 65.9344L68.2447 73.8097V89.8293C68.2447 93.5166 65.2555 96.5059 61.5682 96.5059C57.8809 96.5059 54.8917 93.5166 54.8917 89.8293V65.9344Z" fill="#A5FB9D"/>
<path d="M109.826 109.273V125.202C109.826 133.391 103.188 140.029 94.9984 140.029C86.8092 140.029 80.1707 133.391 80.1707 125.202V109.273H109.826Z" fill="#A5FB9D"/>
<path d="M128.012 64.663V92.6572C128.012 101.774 124.317 110.029 118.346 116C112.366 121.98 104.114 125.672 94.9973 125.672C76.7631 125.672 61.983 110.891 61.983 92.6572V64.663C61.983 63.1571 62.0831 61.6715 62.2802 60.2201C62.8859 55.703 64.4086 51.4773 66.6544 47.7317C72.4173 38.0974 117.58 38.0974 123.34 47.7317C125.586 51.4775 127.109 55.7032 127.714 60.2201C127.911 61.6715 128.012 63.1571 128.012 64.663Z" fill="#DFFEDC"/>
<path d="M71.5476 92.6575V64.6635C71.5476 48.0552 83.814 34.3155 99.7803 31.9979C98.2184 31.7709 96.6223 31.6487 94.997 31.6487C76.7639 31.6487 61.9822 46.4304 61.9822 64.6635V92.6575C61.9822 110.891 76.7639 125.672 94.997 125.672C96.6221 125.672 98.2181 125.55 99.7805 125.323C83.814 123.006 71.5476 109.266 71.5476 92.6575Z" fill="#A5FB9D"/>
<path d="M69.2829 60.2204C69.2829 60.5652 69.2963 60.907 69.3231 61.2452C69.6408 65.2842 68.1812 69.2835 65.1182 71.9355C64.1609 72.7646 63.1095 73.4884 61.9827 74.0891V64.6635C61.9827 58.472 63.6856 52.6833 66.6541 47.7319C68.4484 49.7291 69.774 52.1548 70.4625 54.8378C69.7056 56.4746 69.2829 58.3003 69.2829 60.2204Z" fill="#0E0D11"/>
<path d="M128.012 64.6629V74.0885C126.885 73.4878 125.834 72.764 124.876 71.9349C121.814 69.2829 120.353 65.2836 120.671 61.2446C120.698 60.9064 120.711 60.5646 120.711 60.2198C120.711 58.2997 120.289 56.474 119.531 54.8369C120.22 52.1539 121.546 49.7283 123.34 47.7311C126.309 52.6828 128.012 58.4714 128.012 64.6629Z" fill="#0E0D11"/>
<path d="M113.404 71.4581H76.5903L86.9166 79.2019H88.0555C90.0456 79.2019 91.6589 80.8149 91.6589 82.8052V88.3929C91.6589 90.2318 93.0974 91.809 94.9357 91.8426C96.8085 91.8768 98.3378 90.3688 98.3378 88.5037V82.8052C98.3378 80.8152 99.9511 79.2019 101.941 79.2019H103.078L113.404 71.4581Z" fill="#A5FB9D"/>
<path d="M71.8194 72.5627L72.971 67.465C73.1765 66.5554 74.0808 65.9842 74.9907 66.1896L88.3959 69.2183C90.2257 69.6316 90.1186 72.274 88.2613 72.538L73.7044 74.6069C72.5338 74.7734 71.559 73.7164 71.8194 72.5627Z" fill="#0E0D11"/>
<path d="M118.175 72.5626L117.023 67.465C116.818 66.5553 115.914 65.9841 115.004 66.1895L101.598 69.2182C99.7687 69.6315 99.8757 72.274 101.733 72.5378L116.29 74.6068C117.46 74.7733 118.435 73.7163 118.175 72.5626Z" fill="#0E0D11"/>
<path d="M98.6162 116.791H91.3784C90.642 116.791 90.0448 116.194 90.0448 115.458C90.0448 114.721 90.6417 114.124 91.3784 114.124H98.6162C99.3526 114.124 99.9498 114.721 99.9498 115.458C99.9495 116.195 99.3526 116.791 98.6162 116.791Z" fill="#A5FB9D"/>
<path d="M123.34 47.7315C117.58 38.0972 107.043 31.6487 94.997 31.6487C82.9542 31.6487 72.4171 38.0972 66.6541 47.7315C64.4083 51.4773 62.8856 55.703 62.2799 60.2199H69.2826C69.2826 53.1198 75.0399 47.3629 82.1397 47.3629C82.3122 47.3629 82.4842 47.3664 82.6551 47.3733C88.6833 47.6111 93.3791 52.7179 93.3791 58.751V60.5075C93.3791 61.4009 94.1034 62.1252 94.9967 62.1252C95.89 62.1252 96.6144 61.4009 96.6144 60.5075V58.751C96.6144 52.7179 101.31 47.6111 107.338 47.3733C107.509 47.3664 107.681 47.3629 107.854 47.3629C114.954 47.3629 120.711 53.1201 120.711 60.2199H127.714C127.109 55.703 125.586 51.4773 123.34 47.7315Z" fill="#0E0D11"/>
<path d="M94.9973 147.674C94.9973 147.674 46.519 112.481 48.2611 109.313C50.8634 104.579 54.7276 101.349 58.5442 99.158C54.642 103.476 50.8943 110.045 56.6597 115.808C57.591 116.739 58.6159 117.37 59.7074 117.749C63.5189 119.075 67.0645 121.065 69.9862 123.848L94.9973 147.674Z" fill="#0E0D11"/>
<path d="M106.604 145.612L95.7881 149.62C95.2786 149.809 94.7184 149.809 94.209 149.62L83.3934 145.612C81.9095 145.062 80.3317 146.16 80.3317 147.743V154.412C80.3317 155.994 81.9095 157.092 83.3934 156.542L94.209 152.534C94.7184 152.345 95.2786 152.345 95.7881 152.534L106.604 156.542C108.088 157.092 109.665 155.994 109.665 154.412V147.743C109.665 146.16 108.088 145.062 106.604 145.612Z" fill="#65F859"/>
<circle cx="83" cy="83" r="10" fill="black"/>
<circle cx="108" cy="83" r="10" fill="black"/>
<path d="M92 81C92 81 93.6579 78.5 95.5 78.5C97.3421 78.5 99 81 99 81" stroke="black"/>
<path d="M80 97.1074C80 97.1074 88.7763 103.243 95.1569 103.208C98.948 103.188 104.604 100.974 104.604 100.974" stroke="black" stroke-width="2" stroke-linecap="round"/>
<circle cx="87" cy="79" r="2" fill="white"/>
<circle cx="114" cy="83" r="1" fill="white"/>
<circle cx="113" cy="79" r="2" fill="white"/>
</g>
<defs>
<filter id="filter0_d_604_189" x="0" y="0" width="190" height="190" filterUnits="userSpaceOnUse" color-interpolation-filters="sRGB">
<feFlood flood-opacity="0" result="BackgroundImageFix"/>
<feColorMatrix in="SourceAlpha" type="matrix" values="0 0 0 0 0 0 0 0 0 0 0 0 0 0 0 0 0 0 127 0" result="hardAlpha"/>
<feOffset/>
<feGaussianBlur stdDeviation="10"/>
<feComposite in2="hardAlpha" operator="out"/>
<feColorMatrix type="matrix" values="0 0 0 0 1 0 0 0 0 1 0 0 0 0 1 0 0 0 0.06 0"/>
<feBlend mode="normal" in2="BackgroundImageFix" result="effect1_dropShadow_604_189"/>
<feBlend mode="normal" in="SourceGraphic" in2="effect1_dropShadow_604_189" result="shape"/>
</filter>
<clipPath id="clip0_604_189">
<rect width="140" height="140" fill="white" transform="translate(25 25)"/>
</clipPath>
</defs>
</svg>
