<svg height="512pt" viewBox="-13 0 512 512.00013" width="512pt" xmlns="http://www.w3.org/2000/svg"><path d="m485.414062 269.292969c0 134.042969-108.664062 242.707031-242.707031 242.707031s-242.707031-108.664062-242.707031-242.707031 108.664062-242.707031 242.707031-242.707031 242.707031 108.664062 242.707031 242.707031zm0 0" fill="#69d173"/><path d="m304.546875 236.324219-45.875-26.53125-138.753906 64.589843c-53.335938 24.816407-80.8125 75.277344-81.402344 126.148438 49.164063 76.339844 137.367187 120.152344 230.667969 110.023438 33.929687-27.941407 55.261718-71.59375 50.328125-122.140626zm0 0" fill="#bc4c2e"/><path d="m319.4375 387.640625c-21.542969 27.1875-54.792969 44.695313-92.175781 44.863281-80.890625.371094-138.152344-78.894531-112.808594-155.429687-49.742187 25.640625-75.367187 74.355469-75.9375 123.457031 49.167969 76.339844 137.367187 120.152344 230.667969 110.023438 33.929687-27.941407 55.261718-71.59375 50.328125-122.140626zm0 0" fill="#a0391e"/><path d="m207.902344 422.742188c-.097656-22.359376-18.308594-40.40625-40.667969-40.304688-22.359375.097656-40.40625 18.308594-40.304687 40.667969.097656 22.363281 18.308593 40.40625 40.667968 40.308593 22.363282-.101562 40.40625-18.3125 40.304688-40.671874zm0 0" fill="#603256"/><path d="m165.453125 382.476562c-21.523437 1.039063-38.605469 18.863282-38.507813 40.617188.101563 22.363281 18.3125 40.40625 40.671876 40.304688 14.210937-.0625 26.667968-7.445313 33.839843-18.554688-33.226562 1.605469-53.636719-35.070312-36.003906-62.367188zm0 0" fill="#4f2649"/><path d="m187.519531 387.753906c-8.800781-5.027344-18.691406-6.378906-27.914062-4.554687l163.398437-286.007813 46.011719 26.289063-163.394531 286.003906c-3.113282-8.867187-9.300782-16.703125-18.101563-21.730469zm0 0" fill="#ebeaec"/><path d="m180.507812 346.613281-20.902343 36.585938c9.222656-1.824219 19.113281-.472657 27.914062 4.554687s14.988281 12.863282 18.101563 21.730469l21.105468-36.9375c-19.898437 13.832031-47.648437-1.167969-46.21875-25.933594zm0 0" fill="#ccccce"/><path d="m129.246094 436.335938-20.28125 35.5c14.6875 9.71875 30.488281 17.878906 47.179687 24.253906l19.117188-33.464844c-19.769531 3.90625-39.347657-7.300781-46.015625-26.289062zm0 0" fill="#ccccce"/><path d="m367.175781 5.601562c5.554688-1.910156 11.664063-1.332031 16.761719 1.582032 11.078125 6.328125 20.597656 11.765625 31.671875 18.09375 5.101563 2.914062 8.699219 7.878906 9.875 13.636718.996094 4.859376.1875 9.914063-2.273437 14.21875l-17.882813 31.300782c-3.679687 6.4375-10.558594 10.378906-17.96875 10.289062l-13.566406-.160156c-9.898438-5.65625-18.40625-10.515625-28.304688-16.171875l-7.027343-11.605469c-3.839844-6.339844-3.941407-14.265625-.261719-20.703125l17.882812-31.300781c2.457031-4.304688 6.402344-7.570312 11.09375-9.179688zm0 0" fill="#bc4c2e"/><path d="m359.296875 82.070312c-4.257813-7.03125-4.367187-15.8125-.292969-22.945312l19.820313-34.691406c2.726562-4.773438 7.09375-8.390625 12.292969-10.171875 1.1875-.410157 2.394531-.710938 3.609374-.914063-3.5-2-7.050781-4.03125-10.789062-6.167968-5.097656-2.914063-11.207031-3.488282-16.761719-1.582032-4.691406 1.613282-8.636719 4.875-11.09375 9.183594l-17.882812 31.300781c-3.679688 6.4375-3.578125 14.363281.261719 20.703125l7.027343 11.605469c6.21875 3.554687 11.894531 6.796875 17.707031 10.117187zm0 0" fill="#a0391e"/><path d="m349.984375 103.378906c-3.839844-2.195312-8.738281-.859375-10.933594 2.980469l-214.285156 375.085937c4.664063 2.597657 9.417969 5.046876 14.261719 7.339844l213.941406-374.472656c2.195312-3.84375.859375-8.738281-2.984375-10.933594zm0 0" fill="#ccccce"/><g fill="#84260d"><path d="m438.902344 74.449219c-1.347656 0-2.714844-.339844-3.96875-1.054688l-17.566406-10.035156c-3.84375-2.195313-5.175782-7.089844-2.980469-10.933594 2.195312-3.84375 7.089843-5.175781 10.929687-2.984375l17.566406 10.035156c3.84375 2.195313 5.179688 7.089844 2.984376 10.933594-1.480469 2.589844-4.183594 4.039063-6.964844 4.039063zm0 0"/><path d="m423.710938 101.035156c-1.347657 0-2.710938-.339844-3.964844-1.054687l-17.566406-10.035157c-3.84375-2.195312-5.179688-7.089843-2.984376-10.933593 2.195313-3.84375 7.09375-5.175781 10.933594-2.980469l17.566406 10.035156c3.84375 2.191406 5.175782 7.089844 2.980469 10.929688-1.476562 2.589844-4.179687 4.039062-6.964843 4.039062zm0 0"/><path d="m354.207031 26.0625c-1.351562 0-2.714843-.339844-3.96875-1.054688l-17.566406-10.035156c-3.84375-2.195312-5.175781-7.089844-2.984375-10.933594 2.199219-3.84375 7.09375-5.175781 10.933594-2.980468l17.566406 10.035156c3.84375 2.195312 5.179688 7.089844 2.984375 10.933594-1.480469 2.585937-4.183594 4.035156-6.964844 4.035156zm0 0"/><path d="m339.015625 52.648438c-1.347656 0-2.710937-.339844-3.964844-1.054688l-17.566406-10.035156c-3.84375-2.195313-5.179687-7.089844-2.984375-10.933594 2.199219-3.84375 7.09375-5.175781 10.933594-2.980469l17.566406 10.035157c3.84375 2.191406 5.175781 7.089843 2.980469 10.929687-1.476563 2.589844-4.183594 4.039063-6.964844 4.039063zm0 0"/></g><path d="m345.488281 78.390625c7.753907 4.429687 20.550781 11.742187 28.304688 16.171875l-4.777344 28.917969c-15.316406-8.75-30.695313-17.535157-46.011719-26.289063zm0 0" fill="#a0391e"/><path d="m357.09375 92.242188c1.964844-1.644532 4.210938-2.792969 6.574219-3.464844-6.378907-3.644532-13.285157-7.589844-18.179688-10.386719l-22.484375 18.800781c9.894532 5.652344 19.808594 11.316406 29.71875 16.980469-3.671875-7.070313-2.386718-16.277344 4.371094-21.929687zm0 0" fill="#84260d"/><path d="m197.386719 379.105469c-4.734375 0-8.574219-3.839844-8.574219-8.578125 0-.480469.046875-.949219.125-1.40625l-64.171875 112.324218c4.664063 2.597657 9.417969 5.046876 14.261719 7.339844l63.757812-111.597656c-1.472656 1.195312-3.351562 1.917969-5.398437 1.917969zm0 0" fill="#bcbcc1"/></svg>