<svg height="512pt" viewBox="0 0 512 512" width="512pt" xmlns="http://www.w3.org/2000/svg"><path d="m256 0c141.386719 0 256 114.613281 256 256 0 93.785156-50.429688 175.789062-125.65625 220.378906-38.179688 22.628906-82.742188-69.578125-130.34375-69.578125-48.027344 0-92.964844 91.972657-131.371094 68.964844-74.65625-44.722656-124.628906-126.40625-124.628906-219.765625 0-141.386719 114.613281-256 256-256zm0 0" fill="#ff941f"/><path d="m124.636719 475.753906c38.40625 23.007813 83.335937 36.246094 131.363281 36.246094 47.601562 0 92.15625-13.007812 130.335938-35.636719v-267.1875h-261.699219zm0 0" fill="#ebeaec"/><g fill="#dad9dd"><path d="m219.183594 474.960938v-219.851563c0-25.367187 20.5625-45.933594 45.929687-45.933594h-140.476562v266.578125c33.308593 19.957032 71.527343 32.554688 112.417969 35.550782-11.097657-8.585938-17.871094-21.910157-17.871094-36.34375zm0 0"/><path d="m466.847656 99.148438h-422.816406c0 16.703124 13.542969 30.246093 30.246094 30.246093h362.324218c16.703126 0 30.246094-13.542969 30.246094-30.246093zm0 0"/><path d="m466.847656 68.902344h-422.816406c0-16.707032 13.542969-30.246094 30.246094-30.246094h362.324218c16.703126 0 30.246094 13.539062 30.246094 30.246094zm0 0"/></g><path d="m213.53125 99.148438h-169.5c0 16.703124 13.542969 30.246093 30.246094 30.246093h169.5c-16.703125 0-30.246094-13.542969-30.246094-30.246093zm0 0" fill="#ccccce"/><path d="m243.777344 38.65625h-169.5c-16.703125 0-30.246094 13.542969-30.246094 30.246094h169.5c0-16.707032 13.542969-30.246094 30.246094-30.246094zm0 0" fill="#ccccce"/><path d="m467.71875 99.726562h-423.4375c-8.351562 0-15.125-7.042968-15.125-15.730468s6.773438-15.730469 15.125-15.730469h423.4375c8.351562 0 15.125 7.042969 15.125 15.730469s-6.769531 15.730468-15.125 15.730468zm0 0" fill="#ebeaec"/><path d="m199.816406 83.996094c0-8.6875 6.773438-15.730469 15.125-15.730469h-170.660156c-8.351562 0-15.125 7.042969-15.125 15.730469s6.773438 15.730468 15.125 15.730468h170.660156c-8.355468 0-15.125-7.042968-15.125-15.730468zm0 0" fill="#dad9dd"/><path d="m436.355469 127.152344h-361.832031c-24.589844 0-44.527344 19.9375-44.527344 44.527344 0 24.59375 19.9375 44.53125 44.527344 44.53125 14.734374 0 27.789062-7.164063 35.890624-18.191407.429688-7.964843 7.007813-14.296875 15.082032-14.296875h259.886718c8.074219 0 14.652344 6.332032 15.082032 14.296875 8.101562 11.027344 21.15625 18.1875 35.886718 18.1875 24.59375 0 44.53125-19.933593 44.53125-44.527343 0-24.589844-19.9375-44.527344-44.527343-44.527344zm0 0" fill="#ebeaec"/><path d="m218.441406 154.25c0-10.707031 4.554688-20.34375 11.828125-27.097656h-155.746093c-24.589844 0-44.527344 19.9375-44.527344 44.53125 0 24.589844 19.9375 44.527344 44.527344 44.527344 14.734374 0 27.789062-7.160157 35.890624-18.1875.429688-7.96875 7.007813-14.300782 15.082032-14.300782h107.597656c-8.898438-6.753906-14.652344-17.441406-14.652344-29.472656zm0 0" fill="#dad9dd"/><path d="m442.945312 156.738281c-6.65625-6.257812-15.367187-9.390625-24.507812-8.820312-16.472656 1.023437-29.636719 14.222656-30.621094 30.679687l-.023437.40625c-.078125 1.644532-.226563 3.261719-.410157 4.867188 7.132813.945312 12.6875 6.855468 13.082032 14.152344.324218.441406.671875.867187 1.011718 1.292968 1.738282-6.234375 2.777344-12.757812 3.101563-19.53125l.011719-.164062c.46875-7.882813 7.011718-14.441406 14.890625-14.929688 4.460937-.292968 8.71875 1.246094 11.960937 4.292969 3.246094 3.050781 5.03125 7.179687 5.03125 11.632813 0 4.640624 3.761719 8.402343 8.402344 8.402343s8.402344-3.761719 8.402344-8.402343c0-9.007813-3.765625-17.710938-10.332032-23.878907zm0 0" fill="#dad9dd"/><path d="m123.234375 178.949219-.019531-.371094c-.984375-16.476563-14.152344-29.671875-30.625-30.699219-9.15625-.566406-17.851563 2.5625-24.511719 8.820313-6.5625 6.167969-10.328125 14.871093-10.328125 23.875 0 4.644531 3.761719 8.402343 8.402344 8.402343s8.402344-3.757812 8.402344-8.402343c0-4.449219 1.785156-8.582031 5.03125-11.628907 3.242187-3.046874 7.5-4.574218 11.960937-4.296874 7.882813.492187 14.421875 7.050781 14.894531 14.949218l.011719.179688c.324219 6.714844 1.34375 13.199218 3.054687 19.40625.304688-.386719.613282-.765625.90625-1.164063.398438-7.34375 6.023438-13.289062 13.230469-14.171875-.179687-1.617187-.332031-3.246094-.410156-4.898437zm0 0" fill="#ccccce"/><path d="m385.386719 182.601562h-259.890625c-8.355469 0-15.125 6.773438-15.125 15.125 0 8.351563 6.769531 15.121094 15.125 15.121094h259.886718c8.355469 0 15.125-6.769531 15.125-15.121094 0-8.351562-6.769531-15.125-15.121093-15.125zm0 0" fill="#dad9dd"/><path d="m221.863281 197.726562c0-8.351562 6.773438-15.125 15.125-15.125h-111.492187c-8.355469 0-15.125 6.773438-15.125 15.125 0 8.351563 6.769531 15.121094 15.125 15.121094h111.492187c-8.351562 0-15.125-6.769531-15.125-15.121094zm0 0" fill="#ccccce"/><path d="m326.1875 258.03125c-8.351562 0-15.125 6.769531-15.125 15.121094v232.890625c10.332031-2.265625 20.425781-5.152344 30.246094-8.621094v-224.269531c0-8.351563-6.769532-15.121094-15.121094-15.121094zm0 0" fill="#dad9dd"/><path d="m199.816406 505.800781v-232.648437c0-8.351563-6.769531-15.121094-15.121094-15.121094-8.351562 0-15.125 6.769531-15.125 15.121094v223.875c9.820313 3.519531 19.914063 6.457031 30.246094 8.773437zm0 0" fill="#ccccce"/><path d="m255.441406 258.03125c-8.351562 0-15.125 6.769531-15.125 15.121094v238.355468c5.191406.3125 10.414063.492188 15.683594.492188 4.890625 0 9.742188-.152344 14.5625-.421875v-238.425781c0-8.351563-6.769531-15.121094-15.121094-15.121094zm0 0" fill="#dad9dd"/><path d="m326.1875 407.179688c-8.351562 0-15.125-6.769532-15.125-15.121094v113.984375c10.332031-2.265625 20.425781-5.152344 30.246094-8.621094v-105.363281c0 8.351562-6.769532 15.121094-15.121094 15.121094zm0 0" fill="#ccccce"/><path d="m184.695312 407.179688c-8.351562 0-15.125-6.769532-15.125-15.121094v104.96875c9.820313 3.519531 19.914063 6.457031 30.246094 8.773437v-113.742187c0 8.351562-6.769531 15.121094-15.121094 15.121094zm0 0" fill="#bebec2"/><path d="m255.441406 407.179688c-8.351562 0-15.125-6.769532-15.125-15.121094v119.449218c5.191406.3125 10.414063.492188 15.683594.492188 4.890625 0 9.742188-.152344 14.5625-.421875v-119.519531c0 8.351562-6.769531 15.121094-15.121094 15.121094zm0 0" fill="#ccccce"/></svg>