<svg height="511pt" viewBox="-8 0 511 511.99963" width="511pt" xmlns="http://www.w3.org/2000/svg"><path d="m496.105469 264.195312c0 136.859376-110.945313 247.804688-247.800781 247.804688-136.859376 0-247.804688-110.945312-247.804688-247.804688 0-136.855468 110.945312-247.800781 247.804688-247.800781 136.855468 0 247.800781 110.945313 247.800781 247.800781zm0 0" fill="#ff941f"/><path d="m471.277344 372.441406c-2.273438-68.070312-43.589844-93.152344-57.476563-99.679687-3.175781-1.492188-6.066406-3.582031-8.601562-6.113281-.832031-.832032-1.671875-1.648438-2.511719-2.457032-21.09375-20.207031-47.382812-34.015625-75.71875-40.65625-6.40625 20.3125-20.722656 37.3125-39.898438 46.996094-24.371093 12.308594-53.140624 12.308594-77.515624 0-19.171876-9.683594-33.492188-26.683594-39.894532-46.996094-28.339844 6.640625-54.628906 20.453125-75.71875 40.65625-.84375.808594-1.679687 1.628906-2.515625 2.460938-2.53125 2.527344-5.425781 4.621094-8.601562 6.109375-13.886719 6.527343-55.199219 31.613281-57.472657 99.679687 40.179688 82.613282 124.917969 139.558594 222.960938 139.558594 98.046875 0 182.785156-56.945312 222.964844-139.558594zm0 0" fill="#f7c696"/><path d="m402.6875 264.191406c-21.09375-20.203125-47.382812-34.015625-75.71875-40.65625-6.40625 20.3125-20.722656 37.3125-39.898438 46.996094-24.371093 12.308594-53.140624 12.308594-77.515624 0-19.171876-9.683594-33.492188-26.683594-39.894532-46.996094-28.339844 6.640625-54.628906 20.453125-75.71875 40.65625-.84375.808594-1.679687 1.628906-2.515625 2.457032-2.53125 2.53125-5.425781 4.621093-8.601562 6.113281 36.699219-6.3125 59.203125 7.285156 69.117187 15.636719 3.023438 2.546874 6.722656 4.105468 10.632813 4.671874 42.027343 6.070313 62.539062 41.085938 62.539062 41.085938l5.066407 6.230469c9.351562 11.511719 26.917968 11.511719 36.265624.003906l5.066407-6.234375s15.988281-30.523438 61.804687-41.03125c4-.917969 9.96875-3.691406 13.207032-6.21875 10.714843-8.359375 32.695312-20.089844 67.277343-14.144531-3.175781-1.492188-6.066406-3.582031-8.601562-6.113281-.832031-.828126-1.671875-1.648438-2.511719-2.457032zm0 0" fill="#f2ba88"/><path d="m396.414062 462.882812c.644532-4.167968.980469-8.402343.980469-12.648437v-45.574219c0-4.140625-3.359375-7.5-7.5-7.5s-7.5 3.359375-7.5 7.5v45.574219c0 8.839844-1.742187 17.582031-5.046875 25.542969 6.5625-4.007813 12.925782-8.3125 19.066406-12.894532zm0 0" fill="#e5a876"/><path d="m367.664062 419.375c-2.191406-3.515625-1.121093-8.140625 2.394532-10.332031 6.011718-3.75 11.507812-8.28125 16.332031-13.46875l10.0625-10.816407c2.824219-3.03125 7.570313-3.203124 10.601563-.382812 3.03125 2.824219 3.203124 7.570312.382812 10.601562l-10.0625 10.816407c-5.726562 6.152343-12.246094 11.527343-19.375 15.976562-3.53125 2.203125-8.152344 1.105469-10.335938-2.394531zm0 0" fill="#e5a876"/><path d="m248.3125 512c20.589844 0 40.589844-2.519531 59.71875-7.253906l-39.035156-18.453125-20.683594-21.667969-15.683594 25.671875s5.386719 10.15625 2.855469 21.371094c4.25.214843 8.527344.332031 12.828125.332031zm0 0" fill="#f2ba88"/><g fill="#e5a876"><path d="m277.960938 481.121094c-13.453126-6.40625-22.148438-20.175782-22.148438-35.074219v-71.269531c0-14.902344 8.695312-28.671875 22.148438-35.078125 3.738281-1.78125 5.328124-6.253907 3.546874-9.996094-1.78125-3.738281-6.257812-5.328125-9.996093-3.546875-9.835938 4.683594-17.832031 12.210938-23.199219 21.304688-5.363281-9.09375-13.359375-16.621094-23.199219-21.304688-3.738281-1.78125-8.214843-.191406-9.996093 3.546875-1.78125 3.742187-.191407 8.214844 3.546874 9.996094 13.457032 6.40625 22.148438 20.175781 22.148438 35.078125v71.269531c0 14.898437-8.691406 28.667969-22.148438 35.074219l-30.386718 14.46875c-.621094.289062-5.90625 2.585937-12.734375 5.542968 7.675781 2.351563 15.5 4.351563 23.472656 5.960938l26.097656-12.429688c9.835938-4.683593 17.835938-12.207031 23.199219-21.300781 5.367188 9.09375 13.363281 16.617188 23.199219 21.300781.046875.023438 12.210937 5.824219 26.085937 12.429688 7.722656-1.558594 15.3125-3.476562 22.753906-5.734375-9.359374-4.472656-22.847656-10.910156-42.390624-20.238281zm0 0"/><path d="m114.234375 450.234375v-45.574219c0-4.140625-3.359375-7.5-7.5-7.5-4.144531 0-7.5 3.359375-7.5 7.5v45.574219c0 4.246094.335937 8.476563.980469 12.644531 6.140625 4.585938 12.503906 8.890625 19.066406 12.898438-3.304688-7.960938-5.046875-16.703125-5.046875-25.542969zm0 0"/><path d="m128.960938 419.375c2.195312-3.515625 1.121093-8.140625-2.390626-10.332031-6.011718-3.75-11.507812-8.28125-16.335937-13.46875l-10.0625-10.816407c-2.820313-3.03125-7.566406-3.203124-10.597656-.382812-3.035157 2.824219-3.207031 7.570312-.382813 10.601562l10.0625 10.816407c5.726563 6.152343 12.242188 11.527343 19.375 15.976562 3.53125 2.203125 8.152344 1.105469 10.332032-2.394531zm0 0"/></g><path d="m70.773438 279.757812c-17.75 12.257813-43.636719 39.199219-45.421876 92.683594 9.039063 18.582032 20.335938 35.859375 33.527344 51.488282-15.730468-77.425782 11.894532-144.167969 11.894532-144.171876zm0 0" fill="#f2ba88"/><path d="m443.03125 22.425781c-16.089844-14.933593-33.808594-20.414062-45.765625-22.3867185-2.769531-.4570315-4.042969 3.2812495-1.597656 4.6562495 18.351562 10.335938 26.664062 25.105469 30.425781 35.972657 2.601562 7.527343-1.765625 15.675781-9.457031 17.746093l-79.488281 21.390626c4.71875 4.367187 8.929687 9.898437 12.398437 16.839843.003906.007813.011719.015625.015625.023438.824219 1.65625 2.238281 2.945312 3.988281 3.546875l48.917969 16.851562 25.953125-11.34375c33.265625-14.542968 41.222656-58.601562 14.609375-83.296875zm0 0" fill="#ebeaec"/><path d="m428.417969 103.226562c-23.78125 0-33.296875-30.71875-13.863281-44.25l-77.40625 20.828126c4.714843 4.371093 8.929687 9.898437 12.398437 16.839843.003906.007813.007813.015625.011719.023438.828125 1.65625 2.238281 2.945312 3.988281 3.546875l48.921875 16.855468 25.953125-11.347656c2.25-.984375 4.371094-2.109375 6.386719-3.351562-2.035156.554687-4.175782.855468-6.390625.855468zm0 0" fill="#ccccce"/><path d="m53.574219 22.425781c16.089843-14.933593 33.8125-20.414062 45.765625-22.3867185 2.769531-.4570315 4.042968 3.2812495 1.597656 4.6562495-18.351562 10.335938-26.664062 25.101563-30.421875 35.972657-2.605469 7.527343 1.761719 15.675781 9.457031 17.746093l79.484375 21.390626c-4.714843 4.367187-8.929687 9.898437-12.398437 16.839843-.003906.007813-.007813.015625-.007813.015625-.832031 1.664063-2.246093 2.953125-3.996093 3.554688l-48.917969 16.851562-25.953125-11.34375c-33.265625-14.542968-41.222656-58.601562-14.609375-83.296875zm0 0" fill="#ebeaec"/><path d="m68.183594 103.226562c23.785156 0 33.300781-30.71875 13.867187-44.25l77.40625 20.828126c-4.71875 4.371093-8.929687 9.898437-12.398437 16.839843-.003906.007813-.011719.015625-.015625.023438-.824219 1.65625-2.238281 2.945312-3.988281 3.546875l-48.917969 16.855468-25.953125-11.347656c-2.25-.984375-4.371094-2.109375-6.390625-3.351562 2.039062.554687 4.179687.855468 6.390625.855468zm0 0" fill="#ccccce"/><path d="m427.980469 122.632812-71.148438-24.511718c-1.777343-.613282-3.246093-1.894532-4.085937-3.578125l-.011719-.023438c-18.011719-36.023437-56.023437-34.152343-80.875-28.222656-15.5 3.699219-31.609375 3.699219-47.109375 0-24.855469-5.929687-62.867188-7.800781-80.878906 28.222656l-.011719.023438c-.839844 1.683593-2.308594 2.964843-4.085937 3.578125l-71.144532 24.511718c-3.964844 1.363282-5.625 6.0625-3.382812 9.605469 7.140625 11.292969 25.492187 30.96875 63.085937 20.730469 2.316407-.628906 4.621094 1.015625 4.835938 3.40625 3.179687 35.722656 19.621093 66.773438 29.808593 76.960938 7.621094 7.621093 13.777344 18.449218 18.132813 27.667968 9.773437 20.703125-3.335937 37.167969-4.125 39.675782-5.605469 10.503906-5.855469 23.046874-.679687 33.769531 5.867187 12.152343 18.171874 19.875 31.667968 19.875h80.664063c13.492187 0 25.800781-7.722657 31.667969-19.875 5.175781-10.722657 4.921874-23.265625-.679688-33.769531-.792969-2.507813-13.898438-18.972657-4.125-39.675782 4.351562-9.21875 10.511719-20.046875 18.132812-27.667968 10.1875-10.1875 26.628907-41.238282 29.808594-76.960938.210938-2.390625 2.519532-4.035156 4.835938-3.40625 37.59375 10.238281 55.945312-9.4375 63.085937-20.730469 2.238281-3.542969.578125-8.242187-3.382812-9.605469zm0 0" fill="#a0391e"/><path d="m211.199219 280.566406c32.746093-42.398437 22.835937-95.105468 22.835937-95.105468l-15.664062-5.667969c-7.425782 5.667969-18.132813.375-18.132813-8.96875v-1.40625s21.464844-13.457031 6.015625-52.351563c-15.453125-38.890625 18.492188-50.769531 18.492188-50.769531-24.851563-5.933594-62.863282-7.804687-80.875 28.21875l-.011719.027344c-.84375 1.679687-2.308594 2.964843-4.085937 3.578125l-71.148438 24.507812c-3.960938 1.367188-5.621094 6.066406-3.382812 9.605469 7.144531 11.296875 25.492187 30.972656 63.085937 20.734375 2.316406-.632812 4.625 1.015625 4.835937 3.402344 3.179688 35.722656 19.621094 66.773437 29.808594 76.960937 7.621094 7.621094 13.78125 18.449219 18.132813 27.667969 9.773437 20.703125-3.332031 37.167969-4.125 39.675781-5.492188 10.296875-5.839844 22.554688-.976563 33.132813 5.816406 12.652344 18.75 20.511718 32.679688 20.511718h15.171875c-4.566407-5.609374-24.667969-33.355468-12.65625-73.753906zm0 0" fill="#84260d"/><path d="m288.636719 352.199219c-4.476563 0-76.191407 0-80.664063 0-.578125 0-1.148437-.035157-1.71875-.0625 8.574219 14.265625 24.195313 23.808593 42.050782 23.808593 17.851562 0 33.472656-9.542968 42.046874-23.808593-.570312.027343-1.140624.0625-1.714843.0625zm0 0" fill="#a0391e"/><path d="m255.203125 361.113281c0-3.535156 1.527344-6.703125 3.945313-8.917969-21.964844 0-48.511719 0-51.179688 0-.574219 0-1.144531-.03125-1.714844-.058593 8.570313 14.261719 24.191406 23.808593 42.050782 23.808593 5.882812 0 11.515624-1.054687 16.738281-2.957031-5.601563-1.054687-9.839844-5.964843-9.839844-11.875zm0 0" fill="#84260d"/><path d="m333.882812 142.871094-57.5625 40.726562 12.550782 11.152344c4.140625 3.679688 9.902344 2.695312 13.066406-2.226562zm0 0" fill="#f44040"/><path d="m300.621094 181.753906c-3.660156-3.253906-5.039063-7.964844-4.253906-12.335937l-20.046876 14.179687 12.550782 11.152344c4.140625 3.679688 9.902344 2.695312 13.070312-2.226562l5.570313-8.660157c-2.351563.398438-4.824219-.277343-6.890625-2.109375zm0 0" fill="#e53535"/><path d="m162.722656 142.871094 57.5625 40.726562-12.550781 11.152344c-4.136719 3.679688-9.898437 2.695312-13.066406-2.226562zm0 0" fill="#f44040"/><path d="m195.984375 181.753906c3.660156-3.253906 5.039063-7.964844 4.253906-12.335937l20.046875 14.179687-12.550781 11.152344c-4.140625 3.679688-9.902344 2.695312-13.070313-2.226562l-5.570312-8.660157c2.351562.398438 4.824219-.277343 6.890625-2.109375zm0 0" fill="#e53535"/><path d="m241.296875 291.964844c3.960937 3.710937 10.050781 3.710937 14.011719 0 7.828125-7.339844 18.445312-11.726563 30.097656-11.398438-13.28125-22.652344-20.351562-48.765625-20.351562-75.441406v-25.613281l-16.75-9.589844-16.757813 9.589844v25.613281c0 26.675781-7.066406 52.789062-20.347656 75.441406 11.652343-.328125 22.273437 4.058594 30.097656 11.398438zm0 0" fill="#cc5740"/><path d="m238.269531 207.863281c9.28125-5.3125 21.25-2.5 27.09375 6.734375-.503906-7.988281-.222656-10.785156-.304687-35.085937l-16.753906-9.589844-16.757813 9.589844c-.078125 24.261719.199219 27.09375-.304687 35.085937 1.734374-2.738281 4.117187-5.070312 7.027343-6.734375zm0 0" fill="#bc4c2e"/><path d="m319.625 300.675781c-.308594-.96875-2.460938-4.042969-4.417969-8.636719-7.007812-7.582031-16.738281-12.625-27.578125-13.484374-12.519531-.988282-24 3.480468-32.320312 11.285156-3.960938 3.710937-10.050782 3.710937-14.011719 0-8.320313-7.800782-19.800781-12.273438-32.320313-11.285156-10.839843.859374-20.570312 5.902343-27.578124 13.488281-1.957032 4.59375-4.109376 7.664062-4.417969 8.632812-5.601563 10.503907-5.851563 23.050781-.675781 33.769531 5.863281 12.15625 18.171874 19.878907 31.667968 19.878907h80.664063c13.492187 0 25.800781-7.722657 31.667969-19.878907 5.171874-10.71875 4.921874-23.265624-.679688-33.769531zm0 0" fill="#bc4c2e"/><path d="m246.902344 334.445312c-5.175782-10.71875-4.921875-23.265624.679687-33.765624.304688-.972657 2.457031-4.042969 4.414063-8.636719.0625-.066407.128906-.128907.191406-.199219-3.609375 1.492188-7.867188.828125-10.890625-2.003906-8.320313-7.800782-19.800781-12.273438-32.320313-11.285156-10.839843.859374-20.570312 5.902343-27.578124 13.488281-1.957032 4.59375-4.109376 7.664062-4.417969 8.636719-5.601563 10.5-5.851563 23.046874-.675781 33.765624 5.863281 12.152344 18.171874 19.878907 31.667968 19.878907h70.597656c-13.496093 0-25.800781-7.726563-31.667968-19.878907zm0 0" fill="#a0391e"/><path d="m248.304688 403.636719c-30.730469 0-55.730469-24.578125-55.730469-54.789063 0-14.664062 5.816406-28.441406 16.378906-38.796875 3.144531-3.082031 8.1875-3.03125 11.269531.113281 3.082032 3.140626 3.03125 8.1875-.113281 11.265626-7.476563 7.332031-11.597656 17.070312-11.597656 27.417968 0 21.425782 17.851562 38.851563 39.792969 38.851563 21.9375 0 39.789062-17.429688 39.789062-38.851563 0-10.644531-4.324219-20.578125-12.175781-27.96875-3.203125-3.019531-3.355469-8.0625-.335938-11.265625 3.015625-3.203125 8.058594-3.355469 11.261719-.335937 11.082031 10.433594 17.183594 24.488281 17.183594 39.570312.003906 30.210938-24.996094 54.789063-55.722656 54.789063zm0 0" fill="#ebeaec"/><path d="m268.300781 382.414062c-5.878906 3.355469-12.710937 5.285157-19.996093 5.285157-21.941407 0-39.792969-17.429688-39.792969-38.851563 0-10.351562 4.121093-20.085937 11.597656-27.417968 3.144531-3.082032 3.195313-8.125.113281-11.269532-3.082031-3.144531-8.125-3.195312-11.269531-.109375-10.5625 10.351563-16.378906 24.132813-16.378906 38.796875 0 30.210938 25 54.789063 55.730469 54.789063 10.175781 0 19.71875-2.710938 27.941406-7.414063-7.679688.933594-12.503906-7.800781-7.945313-13.808594zm0 0" fill="#ccccce"/><path d="m290.96875 322.597656h-22.078125c-4.398437 0-7.96875-3.566406-7.96875-7.96875 0-4.398437 3.570313-7.96875 7.96875-7.96875h22.078125c4.398438 0 7.964844 3.570313 7.964844 7.96875.003906 4.402344-3.566406 7.96875-7.964844 7.96875zm0 0" fill="#cc5740"/><path d="m227.714844 322.597656h-22.074219c-4.402344 0-7.96875-3.566406-7.96875-7.96875 0-4.398437 3.566406-7.96875 7.96875-7.96875h22.074219c4.398437 0 7.96875 3.570313 7.96875 7.96875 0 4.402344-3.570313 7.96875-7.96875 7.96875zm0 0" fill="#cc5740"/><path d="m342.808594 149.753906c-.566406-4.367187-4.5625-7.449218-8.925782-6.882812l-18.972656 2.453125c-.007812.003906-.015625.003906-.023437.003906-.214844.054687-1.492188.148437-2.953125.984375-.011719.007812-.023438.011719-.03125.019531h-.007813c-.019531.011719-.039062.023438-.058593.035157l-39.492188 22.753906c-.058594.03125-.113281.074218-.171875.109375-.050781.03125-.109375.058593-.160156.089843-4.199219 2.703126-9.621094 2.394532-13.492188-.761718l-5.179687-4.226563c-3.410156-2.785156-8.429688-2.273437-11.210938 1.136719s-2.273437 8.429688 1.136719 11.210938l5.179687 4.226562c8.96875 7.316406 21.652344 8.34375 31.796876 2.050781.019531-.011719.035156-.015625.054687-.027343l38.179687-21.996094 17.449219-2.257813c4.363281-.5625 7.445313-4.558593 6.882813-8.921875zm0 0" fill="#84260d"/><path d="m254.476562 165.46875c-2.78125-3.40625-7.800781-3.917969-11.210937-1.136719l-5.183594 4.226563c-3.867187 3.15625-9.289062 3.464844-13.488281.761718-.058594-.035156-.117188-.0625-.171875-.097656-.054687-.03125-.105469-.070312-.160156-.101562l-39.492188-22.753906c-.019531-.011719-.039062-.023438-.058593-.035157h-.007813c-.011719-.007812-.023437-.011719-.035156-.019531-.894531-.511719-1.855469-.835938-2.917969-.980469h-.019531c-.015625-.003906-.03125-.007812-.046875-.007812l-18.960938-2.453125c-4.367187-.5625-8.359375 2.515625-8.925781 6.882812-.5625 4.363282 2.519531 8.359375 6.882813 8.921875l17.449218 2.257813 38.179688 21.996094c.015625.007812.035156.015624.050781.023437 10.210937 6.335937 22.890625 5.222656 31.796875-2.046875l5.183594-4.226562c3.410156-2.78125 3.921875-7.800782 1.136718-11.210938zm0 0" fill="#751d0c"/><path d="m288.621094 159.742188-16.277344 9.378906c-.058594.03125-.109375.074218-.167969.109375-.054687.03125-.109375.058593-.164062.089843-4.199219 2.703126-9.621094 2.394532-13.488281-.761718l-5.183594-4.226563c-3.410156-2.785156-8.429688-2.273437-11.210938 1.136719s-2.273437 8.429688 1.136719 11.210938l5.183594 4.226562c8.964843 7.316406 21.648437 8.34375 31.792969 2.050781.019531-.011719.039062-.015625.054687-.027343l16.074219-9.261719c-7.359375.210937-11.707032-7.949219-7.75-13.925781zm0 0" fill="#751d0c"/></svg>