<svg height="512pt" viewBox="-17 0 512 512.00035" width="512pt" xmlns="http://www.w3.org/2000/svg"><path d="m239.691406 34.8125c-131.769531-.605469-239.082031 105.722656-239.68749975 237.496094-.60546825 131.769531 105.72265575 239.082031 237.49218775 239.6875 131.773437.605468 239.085937-105.722656 239.691406-237.496094.605469-131.769531-105.726562-239.082031-237.496094-239.6875zm0 0" fill="#603256"/><path d="m293.207031 446.664062-107.8125-.007812c-8.207031 0-14.859375-6.652344-14.859375-14.859375s6.652344-14.859375 14.859375-14.859375l107.8125.003906c8.207031.003906 14.859375 6.65625 14.859375 14.863282 0 8.207031-6.652344 14.859374-14.859375 14.859374zm0 0" fill="#84260d"/><path d="m219.0625 431.796875c0-6.96875 4.574219-12.863281 10.882812-14.855469l-44.550781-.003906c-8.207031 0-14.859375 6.652344-14.859375 14.859375s6.652344 14.859375 14.859375 14.859375l44.5625.003906c-6.316406-1.992187-10.894531-7.890625-10.894531-14.863281zm0 0" fill="#751d0c"/><g fill="#ebeaec"><path d="m239.484375 358.375c-4.109375-.019531-7.433594-3.355469-7.433594-7.46875l.019531-340.945312c0-4.128907 3.34375-7.472657 7.472657-7.472657h.035156c4.109375.019531 7.433594 3.355469 7.433594 7.472657l-.019531 340.941406c0 4.128906-3.34375 7.472656-7.472657 7.472656-.011719 0-.023437 0-.035156 0zm0 0"/><path d="m273.492188 358.378906c-4.113282-.019531-7.4375-3.359375-7.4375-7.472656l.019531-315.929688c0-4.125 3.34375-7.46875 7.46875-7.46875h.035156c4.113281.015626 7.4375 3.355469 7.4375 7.46875l-.019531 315.929688c0 4.125-3.34375 7.472656-7.46875 7.472656-.011719 0-.023438 0-.035156 0zm0 0"/><path d="m307.496094 363.914062c-4.113282-.019531-7.4375-3.359374-7.4375-7.472656l.019531-296.503906c0-4.128906 3.34375-7.472656 7.46875-7.472656h.035156c4.113281.019531 7.4375 3.355468 7.4375 7.472656l-.019531 296.503906c0 4.125-3.34375 7.472656-7.46875 7.472656-.011719 0-.023438 0-.035156 0zm0 0"/><path d="m307.496094 363.914062c-4.113282-.019531-7.4375-3.359374-7.4375-7.472656l.019531-296.503906c0-4.128906 3.34375-7.472656 7.46875-7.472656h.035156c4.113281.019531 7.4375 3.355468 7.4375 7.472656l-.019531 296.503906c0 4.125-3.34375 7.472656-7.46875 7.472656-.011719 0-.023438 0-.035156 0zm0 0"/><path d="m171.476562 363.902344c-4.113281-.015625-7.4375-3.355469-7.4375-7.46875l.019532-296.503906c0-4.128907 3.34375-7.472657 7.46875-7.472657h.035156c4.109375.019531 7.4375 3.355469 7.4375 7.472657l-.019531 296.503906c0 4.125-3.34375 7.46875-7.46875 7.46875-.011719 0-.023438 0-.035157 0zm0 0"/><path d="m205.480469 358.375c-4.109375-.019531-7.433594-3.359375-7.433594-7.472656l.015625-315.929688c0-4.125 3.347656-7.46875 7.472656-7.46875h.035156c4.109376.019532 7.433594 3.355469 7.433594 7.46875l-.015625 315.929688c-.003906 4.128906-3.347656 7.472656-7.472656 7.472656-.011719 0-.023437 0-.035156 0zm0 0"/></g><path d="m239.722656 324.550781c-.011718 0-.023437 0-.035156 0-3.699219-.015625-6.792969-2.578125-7.636719-6.023437v32.375c0 4.117187 3.324219 7.453125 7.4375 7.472656h.03125c4.128907 0 7.472657-3.34375 7.472657-7.472656l.003906-31.144532c-1.210938 2.816407-4.007813 4.792969-7.273438 4.792969zm0 0" fill="#c2c0cc"/><path d="m273.699219 324.707031c-.011719 0-.023438 0-.035157 0-4.042968-.019531-7.335937-3.167969-7.609374-7.144531v33.34375c0 4.117188 3.324218 7.453125 7.4375 7.472656h.035156c4.125 0 7.46875-3.34375 7.46875-7.472656l.003906-31.511719c-.996094 3.082031-3.886719 5.3125-7.300781 5.3125zm0 0" fill="#c2c0cc"/><path d="m307.738281 324.863281c-.011719 0-.023437 0-.035156 0-3.863281-.015625-7.050781-2.847656-7.640625-6.550781l-.003906 38.128906c0 4.113282 3.324218 7.453125 7.4375 7.472656h.035156c4.125 0 7.46875-3.347656 7.46875-7.472656l.003906-36.578125c-1.121094 2.921875-3.945312 5-7.265625 5zm0 0" fill="#c2c0cc"/><path d="m171.71875 324.238281c-.011719 0-.027344 0-.039062 0-3.960938-.019531-7.214844-3.019531-7.636719-6.871093l-.003907 39.066406c0 4.113281 3.324219 7.453125 7.4375 7.46875h.03125c4.128907 0 7.472657-3.34375 7.472657-7.46875v-37.320313c-1.066407 2.988281-3.910157 5.125-7.261719 5.125zm0 0" fill="#c2c0cc"/><path d="m205.691406 324.394531c-.011718 0-.023437 0-.035156 0-4.050781-.019531-7.351562-3.179687-7.609375-7.171875v33.679688c0 4.117187 3.324219 7.453125 7.433594 7.472656h.035156c4.125 0 7.46875-3.34375 7.46875-7.472656l.003906-31.816406c-.996093 3.082031-3.882812 5.308593-7.296875 5.308593zm0 0" fill="#c2c0cc"/><path d="m352.808594 92.359375c-33.515625 20.570313-73.789063 31.40625-113.285156 31.417969-.035157.003906-.066407.003906-.101563.003906-39.429687-.003906-79.65625-10.8125-113.117187-31.292969 2.582031 9.984375 3.089843 20.664063 1.101562 31.476563 33.910156 17.53125 73.449219 26.707031 112.015625 26.710937h.113281c38.605469-.015625 78.175782-9.210937 112.109375-26.785156-1.980469-10.832031-1.445312-21.535156 1.164063-31.53125zm0 0" fill="#ff941f"/><path d="m352.808594 92.359375c-11.648438 7.152344-24.117188 13.121094-37.082032 17.871094 10.359376 6.980469 9.957032 22.300781-.753906 28.738281 12.707032-4.027344 25.027344-9.046875 36.671875-15.078125-1.980469-10.832031-1.445312-21.535156 1.164063-31.53125zm0 0" fill="#f27916"/><path d="m170.855469 407.867188.003906-46.484376c0-1.789062.453125-3.476562 1.242187-4.949218-46.6875-11.066406-120.007812-44.011719-79.628906-140.164063 14.09375-33.5625 27.8125-60.421875 34.972656-84.207031 14.230469-47.261719-21.144531-94.867188-70.503906-94.871094-17.890625 0-32.25 15.117188-31 33.273438 1.078125 15.632812 13.964844 28.167968 29.621094 28.84375 9.679688.417968 18.429688-3.597656 24.398438-10.183594 1.730468-1.90625 4.375-2.683594 6.859374-2.023438 9.339844 2.484376 15.464844 12.160157 12.929688 22.074219-4.648438 18.171875-21.730469 58.46875-36.976562 83.675781-61.027344 100.925782-8.421876 207.84375 112.460937 223.527344-2.648437-1.902344-4.378906-5.003906-4.378906-8.511718zm0 0" fill="#ffcb37"/><path d="m422.136719 37.210938c-49.359375-.003907-84.738281 47.597656-70.515625 94.863281 7.160156 23.785156 20.871094 50.644531 34.964844 84.210937 40.367187 96.15625-32.960938 129.09375-79.644532 140.15625.789063 1.472656 1.242188 3.160156 1.242188 4.949219l-.003906 46.484375c0 3.507812-1.730469 6.605469-4.378907 8.507812 120.882813-15.667968 173.503907-122.582031 112.484375-223.511718-15.242187-25.210938-32.320312-65.507813-36.964844-83.683594-2.535156-9.910156 3.589844-19.585938 12.929688-22.070312 2.488281-.660157 5.132812.117187 6.859375 2.023437 5.96875 6.585937 14.71875 10.605469 24.398437 10.1875 15.65625-.675781 28.546876-13.207031 29.625-28.839844 1.25-18.15625-13.105468-33.273437-30.996093-33.277343zm0 0" fill="#ffcb37"/><path d="m85.785156 147.105469c10.925782 5.621093 19.589844 16.390625 25.621094 26.011719 6.574219-14.910157 12.238281-28.425782 16.039062-41.054688 14.230469-47.265625-21.144531-94.867188-70.503906-94.871094-17.890625 0-32.25 15.117188-31 33.273438 1.078125 15.632812 13.964844 28.167968 29.621094 28.84375 9.679688.417968 18.429688-3.597656 24.398438-10.1875 1.730468-1.90625 4.375-2.679688 6.859374-2.019532 9.339844 2.484376 15.464844 12.15625 12.929688 22.070313-2.261719 8.839844-7.464844 22.914063-13.964844 37.933594zm0 0" fill="#fcac1f"/><path d="m393.28125 147.125c-10.925781 5.621094-19.59375 16.386719-25.625 26.003906-6.574219-14.910156-12.234375-28.421875-16.035156-41.054687-14.226563-47.265625 21.15625-94.867188 70.515625-94.863281 17.890625.003906 32.25 15.121093 30.996093 33.277343-1.078124 15.632813-13.96875 28.164063-29.625 28.839844-9.679687.417969-18.429687-3.601563-24.398437-10.1875-1.726563-1.90625-4.371094-2.683594-6.859375-2.023437-9.339844 2.484374-15.464844 12.15625-12.929688 22.070312 2.257813 8.839844 7.460938 22.914062 13.960938 37.9375zm0 0" fill="#fcac1f"/><path d="m85.785156 147.105469c10.925782 5.621093 19.589844 16.390625 25.621094 26.011719 6.574219-14.910157 12.238281-28.425782 16.039062-41.054688 14.230469-47.265625-21.144531-94.867188-70.503906-94.871094-17.890625 0-32.25 15.117188-31 33.273438 1.078125 15.632812 13.964844 28.167968 29.621094 28.84375 9.679688.417968 18.429688-3.597656 24.398438-10.1875 1.730468-1.90625 4.375-2.679688 6.859374-2.019532 9.339844 2.484376 15.464844 12.15625 12.929688 22.070313-2.261719 8.839844-7.464844 22.914063-13.964844 37.933594zm0 0" fill="#fcac1f"/><path d="m324.46875 445.253906-169.90625-.011718c-11.527344 0-20.871094 9.34375-20.871094 20.871093v6.023438l211.644532.015625v-6.027344c.003906-11.527344-9.339844-20.871094-20.867188-20.871094zm0 0" fill="#a0391e"/><path d="m206.152344 467.113281c.003906-12.023437 9.707031-21.777343 21.714844-21.863281l-73.304688-.003906c-11.527344-.003906-20.871094 9.339844-20.871094 20.867187v6.027344l72.460938.003906zm0 0" fill="#84260d"/><path d="m115.09375 112.625c-4.09375-.019531-7.453125-3.363281-7.4375-7.503906.019531-3.691406 2.714844-6.675782 6.042969-7.296875 4.492187-.878907 8.921875 2.539062 8.902343 7.363281-.019531 4.179688-3.449218 7.457031-7.507812 7.4375zm0 0" fill="#ff941f"/><path d="m171.484375 69.890625c-5.382813-.023437-9.941406-4.40625-9.914063-10.007813.027344-6.359374 5.894532-10.953124 11.949219-9.707031 4.574219.882813 7.996094 5.027344 7.972657 9.800781-.023438 5.566407-4.613282 9.941407-10.007813 9.914063zm0 0" fill="#c2c0cc"/><path d="m307.5 69.898438c-5.523438-.023438-9.9375-4.566407-9.914062-10.003907.03125-6.332031 5.894531-10.96875 11.949218-9.71875 4.738282.984375 7.996094 5.121094 7.972656 9.808594-.023437 5.535156-4.582031 9.941406-10.007812 9.914063zm0 0" fill="#c2c0cc"/><path d="m273.496094 44.9375c-6.207032-.027344-10.996094-5.761719-9.707032-11.949219 1.457032-7.582031 11.132813-10.796875 16.828126-5.023437 2.75 2.777344 3.710937 7.046875 2.101562 10.859375-1.585938 3.816406-5.316406 6.132812-9.222656 6.113281zm0 0" fill="#c2c0cc"/><path d="m239.496094 19.917969c-5.445313-.023438-9.941406-4.445313-9.917969-10.007813.027344-6.363281 5.925781-10.949218 11.949219-9.707031 4.78125.996094 7.996094 5.160156 7.972656 9.800781-.023438 5.429688-4.453125 9.9375-10.003906 9.914063zm0 0" fill="#c2c0cc"/><path d="m205.492188 44.933594c-5.398438-.023438-9.941407-4.414063-9.917969-10.003906.023437-4.953126 3.65625-8.910157 8.054687-9.726563 5.996094-1.1875 11.898438 3.402344 11.871094 9.816406-.027344 5.484375-4.519531 9.941407-10.007812 9.914063zm0 0" fill="#c2c0cc"/><path d="m392.125 87.160156c-12.542969-12.859375-11.183594-33.839844 3.160156-44.933594-34.351562 13.417969-55.132812 51.738282-43.664062 89.847657 3.800781 12.632812 9.460937 26.144531 16.035156 41.054687 6.03125-9.617187 14.699219-20.382812 25.625-26.003906-6.5-15.023438-11.703125-29.097656-13.960938-37.9375-2.523437-9.867188 3.535157-19.492188 12.804688-22.027344zm0 0" fill="#ff941f"/><path d="m363.757812 112.644531c-3.976562-.019531-7.457031-3.253906-7.4375-7.503906.023438-4.667969 4.3125-8.226563 8.96875-7.292969 3.480469.742188 5.988282 3.757813 5.972657 7.359375-.019531 4.152344-3.433594 7.457031-7.503907 7.4375zm0 0" fill="#f27916"/><path d="m89.585938 88.105469c-2.144532-14.835938 11.929687-26.378907 25.832031-22.015625-13.273438-17.355469-34.175781-28.898438-58.476563-28.898438-17.890625 0-32.25 15.117188-31 33.273438 1.078125 15.632812 13.964844 28.167968 29.621094 28.84375 9.679688.417968 18.429688-3.597656 24.398438-10.1875 1.730468-1.90625 4.375-2.679688 6.859374-2.019532.960938.253907 1.878907.605469 2.765626 1.003907zm0 0" fill="#ff941f"/><path d="m133.003906 470.140625c-7.039062 0-13.421875 2.785156-18.121094 7.3125 35.769532 21.734375 77.710938 34.339844 122.613282 34.542969 46.097656.214844 89.195312-12.675782 125.789062-35.152344-4.628906-4.15625-10.75-6.691406-17.460937-6.691406zm0 0" fill="#bc4c2e"/><path d="m362.511719 333.132812c-17.441407 12.144532-38.324219 19.222657-55.570313 23.308594.789063 1.476563 1.242188 3.160156 1.242188 4.949219l-.003906 46.484375c0 3.507812-1.730469 6.609375-4.378907 8.511719 38.921875-5.046875 70.753907-19.5625 94.003907-40.28125-25.796876 7.832031-47.804688-19.597657-35.292969-42.972657zm0 0" fill="#fcac1f"/><path d="m116.523438 333.132812c17.441406 12.144532 38.324218 19.222657 55.570312 23.308594-.789062 1.476563-1.242188 3.160156-1.242188 4.949219l.003907 46.484375c0 3.507812 1.730469 6.609375 4.378906 8.511719-38.921875-5.046875-70.753906-19.5625-94.007813-40.28125 25.820313 7.835937 47.800782-19.617188 35.296876-42.972657zm0 0" fill="#fcac1f"/><path d="m297.699219 350.90625-116.355469-.003906c-5.789062 0-10.484375 4.691406-10.484375 10.480468l-.003906 46.484376c0 5.789062 4.695312 10.480468 10.484375 10.480468l116.355468.007813c5.789063 0 10.484376-4.691407 10.484376-10.480469l.003906-46.484375c0-5.789063-4.695313-10.480469-10.484375-10.484375zm0 0" fill="#bc4c2e"/><path d="m229.648438 418.347656c-5.789063 0-10.484376-4.691406-10.484376-10.480468l.003907-46.484376c0-5.769531 4.664062-10.449218 10.429687-10.476562l-48.253906-.003906c-5.789062 0-10.484375 4.691406-10.484375 10.480468l-.003906 46.484376c0 5.789062 4.695312 10.480468 10.484375 10.480468l48.308594.003906zm0 0" fill="#a0391e"/><path d="m198.648438 390.808594c-4.128907-.019532-7.457032-3.371094-7.4375-7.503906.019531-4.058594 3.320312-7.457032 7.503906-7.4375 4.1875.019531 7.457031 3.472656 7.4375 7.503906-.019532 4.113281-3.390625 7.457031-7.503906 7.4375zm0 0" fill="#84260d"/><path d="m280.324219 390.816406c-4.234375-.019531-7.457031-3.503906-7.4375-7.503906.019531-4.617188 4.316406-8.265625 8.96875-7.28125 3.367187.644531 5.988281 3.703125 5.972656 7.347656-.019531 4.140625-3.398437 7.457032-7.503906 7.4375zm0 0" fill="#84260d"/><path d="m194.824219 489.964844c0-8.453125 4.570312-15.832032 11.371093-19.820313l-73.191406-.003906c-7.039062 0-13.421875 2.785156-18.121094 7.3125 27.324219 16.601563 58.257813 27.871094 91.355469 32.359375-6.824219-3.980469-11.414062-11.375-11.414062-19.847656zm0 0" fill="#a0391e"/></svg>