<svg height="512pt" viewBox="-11 0 512 512" width="512pt" xmlns="http://www.w3.org/2000/svg"><path d="m490 267c0 135.308594-109.691406 245-245 245s-245-109.691406-245-245 109.691406-245 245-245 245 109.691406 245 245zm0 0" fill="#85a0dd"/><path d="m412.769531 145.109375c-5.398437 3.921875-13.027343 4.679687-21.734375 3.144531v215.957032c0 .457031.304688.855468.746094.96875 3.496094.914062 6.75 2.46875 9.679688 4.621093.179687.128907.386718.191407.59375.191407.261718 0 .523437-.101563.722656-.304688l.3125-.328125c-5.179688-36.171875 21.660156-102.359375 49.28125-102.359375-34.246094 0-67.308594-101.761719-39.601563-121.890625zm0 0" fill="#eef6ff"/><path d="m314.5625 184.148438h24.441406c6.265625 0 12.550782 3.9375 15.28125 9.574218l21.847656 45.085938c.171876.351562.523438.566406.898438.566406.074219 0 .152344-.007812.226562-.027344.453126-.101562.773438-.507812.773438-.972656v-93.785156c-1.410156-.527344-2.832031-1.097656-4.261719-1.707032l-19.667969 23.136719c-3.496093 4.109375-9.703124 6.980469-15.097656 6.980469h-23.320312c-.53125 0-.96875.414062-1 .941406-.171875 3.039063-.542969 6.074219-1.105469 9.019532-.054687.292968.023437.59375.214844.824218.191406.230469.472656.363282.769531.363282zm0 0" fill="#eef6ff"/><path d="m304.898438 134.035156c3.75 6.25 6.484374 13.042969 8.125 20.1875.105468.457032.507812.777344.972656.777344h24.777344c.085937 0 .171874-.011719.253906-.03125.40625-.109375.976562-.371094 1.320312-.613281.070313-.046875.132813-.105469.1875-.171875l16.832032-19.796875c-11.152344-6.761719-21.910157-15.277344-30.511719-24.265625l-21.820313 22.707031c-.3125.324219-.371094.820313-.136718 1.207031zm0 0" fill="#eef6ff"/><path d="m174.511719 95.972656 21.730469 22.609375c.195312.203125.457031.308594.722656.308594.242187 0 .484375-.089844.675781-.269531 11.136719-10.285156 24.953125-16.558594 39.964844-18.140625.507812-.054688.894531-.484375.894531-.996094v-5.417969c-27.101562-1.113281-52.679688-9.207031-57.578125-24.289062 2.457031 7.570312-.335937 16.777344-6.410156 26.195312zm0 0" fill="#eef6ff"/><path d="m251.5 99.484375c0 .511719.386719.941406.894531.996094 15.011719 1.582031 28.832031 7.855469 39.964844 18.144531.191406.175781.433594.265625.675781.265625.265625 0 .527344-.105469.722656-.308594l21.730469-22.609375c-6.074219-9.421875-8.867187-18.625-6.40625-26.195312-4.898437 15.082031-30.480469 23.175781-57.582031 24.289062zm0 0" fill="#eef6ff"/><path d="m327.429688 423.285156 10.363281-18.09375c2.523437-4.410156 8.046875-7.609375 13.125-7.609375h4.242187c.289063 0 .5625-.125.75-.339843.191406-.214844.28125-.5.242188-.785157-.082032-.65625-.140625-1.335937-.179688-2.011719-.027344-.53125-.464844-.945312-.996094-.945312h-4.058593c-4.710938 0-10.136719-2.507812-13.191407-6.101562l-23.613281-27.777344c-1.125-1.324219-1.664062-3.007813-1.523437-4.734375.140625-1.734375.945312-3.304688 2.265625-4.429688 1.175781-.996093 2.667969-1.546875 4.207031-1.546875 1.914062 0 3.71875.835938 4.957031 2.289063l23.613281 27.78125c.648438.683593 2.363282 1.46875 3.257813 1.519531h5.417969c.398437 0 .761718-.238281.917968-.609375.15625-.367187.078126-.792969-.199218-1.082031l-13.714844-14.273438c-3.109375-3.230468-5.277344-8.621094-5.277344-13.105468v-25.429688c0-3.585938 2.914063-6.5 6.5-6.5 3.582032 0 6.5 2.914062 6.5 6.5v25.429688c.011719 1.089843.902344 3.304687 1.644532 4.09375l13.613281 14.164062c.195312.203125.457031.304688.722656.304688.207031 0 .414063-.0625.589844-.191407 2.929687-2.152343 6.1875-3.707031 9.679687-4.621093.441406-.113282.75-.511719.75-.96875v-86.199219c0-.414063-.253906-.785157-.640625-.9375-2.15625-.824219-3.886719-2.40625-4.878906-4.453125l-33.875-69.910156c-.167969-.34375-.515625-.5625-.898437-.5625h-30.214844c-.367188 0-.707032.203124-.878906.527343-.765626 1.4375-1.605469 2.878907-2.496094 4.296875-.230469.363282-.199219.835938.074218 1.167969 1.007813 1.214844 1.796876 2.5 2.351563 3.816406l27.855469 66.328125c2.503906 5.957032.949218 13.542969-3.695313 18.039063l-59.054687 57.144531c-1.691406 1.632812-3.910156 2.53125-6.257813 2.53125-2.460937 0-4.761719-.976562-6.46875-2.742188-1.671875-1.730468-2.570312-4.003906-2.53125-6.40625.039063-2.40625 1.011719-4.648437 2.738281-6.320312l57.738282-55.867188c.292968-.285156.382812-.722656.226562-1.105468l-25.277344-60.179688c-.125-.292968-.378906-.511718-.691406-.582031-.074218-.019531-.152344-.027344-.230468-.027344-.234376 0-.464844.082031-.648438.238281-3.851562 3.28125-8.082031 6.160157-12.574219 8.546876-.273437.144531-.464843.410156-.515625.714843-.050781.304688.039063.617188.25.84375 7.496094 8.152344 11.625 18.738281 11.625 29.8125 0 18.191407-11.433594 34.753907-28.449218 41.207031-.390626.144532-.644532.519532-.644532.933594v6.074219c0 3.582031-2.917968 6.5-6.5 6.5-3.585937 0-6.5-2.917969-6.5-6.5v-3.175781c0-.269532-.109375-.527344-.300781-.714844-.1875-.183594-.441406-.285156-.699219-.285156-.007812 0-.402344.011718-.402344.011718-.1875.003907-.378906.011719-.566406.011719-.191406 0-.378906-.007812-.566406-.011719 0 0-.398438-.011718-.402344-.011718-.261718 0-.511718.101562-.699218.285156-.191407.1875-.300782.445312-.300782.714844v3.175781c0 3.582031-2.917968 6.5-6.5 6.5-3.585937 0-6.5-2.917969-6.5-6.5v-6.074219c0-.414062-.257812-.789062-.644531-.933594-17.019531-6.453124-28.449219-23.011718-28.449219-41.207031 0-11.074219 4.128906-21.660156 11.621094-29.8125.210938-.226562.304688-.539062.25-.84375-.050781-.304687-.242188-.570312-.515625-.714843-4.492187-2.390626-8.722656-5.265626-12.570313-8.546876-.183593-.15625-.414062-.242187-.652343-.242187-.074219 0-.152344.011719-.230469.027344-.308594.074219-.566406.292969-.6875.585937l-25.277344 60.179688c-.160156.378906-.070312.820312.226563 1.105468l57.734375 55.867188c1.730468 1.667969 2.703125 3.914062 2.742187 6.320312.039063 2.402344-.859375 4.675782-2.53125 6.40625-1.710937 1.765626-4.007812 2.738282-6.46875 2.738282-2.347656 0-4.570312-.898438-6.257812-2.53125l-59.058594-57.140625c-4.644531-4.496094-6.199219-12.082031-3.695313-18.042969l27.859376-66.324219c.554687-1.316406 1.34375-2.601562 2.347656-3.816406.277344-.332031.308594-.800781.078125-1.167969-.894531-1.421875-1.734375-2.867187-2.496094-4.296875-.175781-.324219-.511719-.527343-.882813-.527343h-30.210937c-.382813 0-.734375.21875-.902344.5625l-33.875 69.90625c-1.515625 3.132812-4.625 5.078124-8.105469 5.078124-1.363281 0-2.679687-.300781-3.917968-.902343-2.164063-1.046875-3.789063-2.875-4.578125-5.148438-.789063-2.269531-.644531-4.710937.402343-6.875l34.429688-71.046875c2.734375-5.636718 9.015625-9.574218 15.28125-9.574218h24.4375c.300781 0 .582031-.132813.773438-.363282.1875-.226562.265624-.53125.210937-.824218-.558594-2.945313-.933594-5.980469-1.105469-9.019532-.03125-.527344-.46875-.941406-1-.941406h-23.320312c-5.390625 0-11.601563-2.871094-15.09375-6.980469l-19.667969-23.136719c-15.59375 6.652344-30.238281 8.59375-38.996094 2.230469 27.699219 20.125-5.363281 121.886719-39.609375 121.886719 34.246094 0 67.308594 101.761719 39.605469 121.890625 27.703125-20.128906 114.265625 42.761719 103.683594 75.332031 10.582031-32.570312 117.582031-32.570312 128.164062 0-3.742187-11.523437 4.679688-26.839844 18.347657-40.9375zm0 0" fill="#eef6ff"/><path d="m149.464844 154.183594c.054687.066406.117187.121094.1875.171875.34375.242187.914062.503906 1.324218.613281.082032.019531.164063.03125.25.03125h24.777344c.464844 0 .867188-.324219.972656-.777344 1.640626-7.144531 4.375-13.9375 8.128907-20.1875.230469-.386718.175781-.882812-.136719-1.207031l-21.824219-22.707031c-8.597656 8.988281-19.359375 17.503906-30.507812 24.265625zm0 0" fill="#eef6ff"/><path d="m357.015625 162.589844c6.820313 3.355468 13.71875 6.113281 20.484375 8.074218-.019531.480469-.03125.96875-.042969 1.457032-.101562 4.796875.125 9.5625.578125 14.199218v-41.730468c-1.414062-.527344-2.835937-1.097656-4.265625-1.707032zm0 0" fill="#d9eafc"/><path d="m350.890625 380.5h5.417969c.398437 0 .761718-.238281.917968-.609375.15625-.367187.078126-.792969-.199218-1.082031l-4.761719-4.957032c-2.042969 1.089844-4.074219 2.230469-6.085937 3.417969l1.453124 1.710938c.648438.683593 2.363282 1.46875 3.257813 1.519531zm0 0" fill="#d9eafc"/><path d="m148.949219 153.578125c11.660156-7.429687 22.546875-16.273437 31.5-25.449219l-17.304688-18.007812c-8.601562 8.988281-19.359375 17.503906-30.507812 24.265625zm0 0" fill="#d9eafc"/><path d="m341.050781 153.578125 16.3125-19.191406c-11.148437-6.761719-21.90625-15.277344-30.507812-24.265625l-17.304688 18.003906c8.953125 9.175781 19.839844 18.019531 31.5 25.453125zm0 0" fill="#d9eafc"/><path d="m367.015625 369.992188c.203125 0 .414063-.0625.589844-.191407 2.929687-2.152343 6.183593-3.707031 9.679687-4.621093.441406-.113282.75-.511719.75-.96875v-16.527344c-.453125 4.636718-.679687 9.398437-.578125 14.195312.011719.488282.023438.976563.042969 1.457032-4.261719 1.234374-8.570312 2.792968-12.882812 4.609374l1.675781 1.742188c.195312.203125.457031.304688.722656.304688zm0 0" fill="#d9eafc"/><path d="m412.769531 145.109375c-5.398437 3.921875-13.027343 4.679687-21.734375 3.144531v87.75c4.058594 9.59375 9.578125 20.261719 16.894532 29.898438.28125.371094.5625.734375.84375 1.097656-.28125.359375-.5625.726562-.84375 1.097656-7.316407 9.636719-12.835938 20.304688-16.894532 29.902344v66.214844c0 .453125.304688.851562.746094.964844 3.496094.914062 6.75 2.46875 9.679688 4.621093.179687.128907.386718.195313.59375.195313.261718 0 .523437-.105469.722656-.308594l.3125-.328125c-5.179688-36.171875 21.660156-102.359375 49.28125-102.359375-34.246094 0-67.308594-101.761719-39.601563-121.890625zm0 0" fill="#d9eafc"/><path d="m327.429688 423.285156 10.363281-18.09375c2.523437-4.410156 8.046875-7.609375 13.125-7.609375h4.242187c.289063 0 .5625-.125.75-.339843.191406-.214844.28125-.5.242188-.785157-.082032-.65625-.140625-1.335937-.179688-2.011719-.027344-.53125-.464844-.945312-.996094-.945312h-4.058593c-4.710938 0-10.136719-2.507812-13.191407-6.101562l-2.589843-3.046876c-15.113281 10.488282-28.515625 23.144532-37.445313 35.433594-.726562 1-1.417968 1.992188-2.082031 2.972656-.425781-.15625-.863281-.3125-1.300781-.464843-17.789063-6.195313-36.632813-7.496094-49.304688-7.496094-12.675781 0-31.519531 1.300781-49.308594 7.496094-.4375.152343-.871093.308593-1.304687.464843-.660156-.980468-1.355469-1.972656-2.078125-2.972656-16.851562-23.191406-49.644531-47.703125-79.808594-56.449218.015625-.480469.03125-.964844.042969-1.453126.394531-18.832031-4.191406-37.15625-8.105469-49.210937-3.917968-12.054687-10.976562-29.570313-22.367187-44.574219-.285157-.371094-.5625-.738281-.847657-1.097656.285157-.359375.5625-.726562.847657-1.097656 11.390625-15 18.449219-32.519532 22.367187-44.574219 3.917969-12.054687 8.5-30.375 8.105469-49.207031-.011719-.488282-.027344-.972656-.042969-1.457032 6.765625-1.960937 13.660156-4.71875 20.480469-8.074218l-16.75-19.707032c-15.597656 6.652344-30.242187 8.59375-39 2.230469 27.703125 20.125-5.359375 121.886719-39.605469 121.886719 34.246094 0 67.308594 101.761719 39.605469 121.890625 27.703125-20.128906 114.265625 42.761719 103.683594 75.332031 10.582031-32.570312 117.582031-32.570312 128.164062 0-3.742187-11.523437 4.679688-26.839844 18.347657-40.9375zm0 0" fill="#d9eafc"/><path d="m174.511719 95.972656 17.683593 18.398438c.035157-.054688.078126-.105469.117188-.15625.726562-1 1.417969-1.992188 2.082031-2.972656.425781.15625.863281.3125 1.300781.464843 2.484376.863281 4.984376 1.625 7.488282 2.308594 10.042968-7.554687 21.808594-12.207031 34.421875-13.535156.507812-.054688.894531-.484375.894531-.996094v-5.417969c-27.101562-1.117187-52.679688-9.207031-57.578125-24.289062 2.457031 7.570312-.335937 16.777344-6.410156 26.195312zm0 0" fill="#d9eafc"/><path d="m251.5 99.484375c0 .511719.386719.941406.894531.996094 12.613281 1.328125 24.378907 5.984375 34.421875 13.535156 2.503906-.683594 5.007813-1.445313 7.488282-2.308594.441406-.152343.875-.308593 1.304687-.464843.660156.980468 1.355469 1.972656 2.082031 2.972656.039063.050781.078125.101562.117188.15625l17.679687-18.398438c-6.074219-9.417968-8.867187-18.625-6.40625-26.191406-4.898437 15.082031-30.480469 23.171875-57.582031 24.285156zm0 0" fill="#d9eafc"/><g fill="#c3ddf4"><path d="m230.03125 311.140625v-6.074219c0-.414062-.257812-.789062-.644531-.933594-1.300781-.492187-2.5625-1.054687-3.796875-1.660156l-8.152344 25.09375 12 11.613282 7-21.542969c-3.542969-.050781-6.40625-2.945313-6.40625-6.496094zm0 0"/><path d="m264.414062 302.472656c-1.234374.605469-2.5 1.167969-3.800781 1.660156-.386719.148438-.644531.519532-.644531.933594v6.074219c0 3.550781-2.863281 6.441406-6.398438 6.496094l7 21.539062 12-11.613281zm0 0"/><path d="m202.507812 274.5c-1.027343-3.722656-1.570312-7.609375-1.570312-11.574219 0-1.148437.054688-2.289062.144531-3.425781h-18.101562l-6.300781 15zm0 0"/><path d="m346.980469 183.636719c-1.085938.785156-2.734375 1-4.039063 1.027343 4.824219 1.234376 9.1875 4.613282 11.34375 9.058594l1.140625 2.355469c.121094-.109375.246094-.214844.375-.308594.003907-.003906.007813-.003906.011719-.007812l22.21875-16.144531v-18.542969zm0 0"/><path d="m176.207031 183.785156c.1875-.226562.265625-.53125.210938-.824218-.558594-2.945313-.929688-5.980469-1.105469-9.019532-.015625-.3125-.191406-.574218-.429688-.746094-7.773437 5.441407-16.160156 9.558594-22.917968 10.953126h23.472656c.296875 0 .578125-.132813.769531-.363282zm0 0"/><path d="m204.097656 246.550781c1.863282-4.648437 4.523438-8.976562 7.90625-12.796875l-13.949218-10.136718-5.96875 14.207031zm0 0"/><path d="m413.09375 394.445312c-.035156.648438-.09375 1.296876-.171875 1.933594 2.1875-.046875 4.328125-1.042968 5.765625-2.894531-.179688.003906-.359375.015625-.539062.015625h-4.054688c-.53125 0-.972656.414062-1 .945312zm0 0"/><path d="m412.761719 380.5h2.089843c-.632812-.832031-1.199218-1.785156-1.707031-2.84375l-1.105469 1.152344c-.277343.289062-.355468.714844-.199218 1.082031.15625.371094.519531.609375.921875.609375zm0 0"/><path d="m350.800781 410.605469c-.523437.121093-1.28125.554687-1.648437.953125-.046875.054687-.09375.117187-.128906.179687l-2.578126 4.496094c2.507813-1.964844 5.082032-3.855469 7.695313-5.65625h-3.117187c-.074219.003906-.148438.011719-.222657.027344zm0 0"/><path d="m391.03125 364.210938c0 .457031.308594.855468.75.96875.648438.167968 1.285156.367187 1.917969.582031l-2.667969-1.9375zm0 0"/><path d="m355.160156 397.582031c.289063 0 .5625-.125.75-.339843.191406-.214844.277344-.5.242188-.785157-.082032-.65625-.144532-1.335937-.179688-2.011719-.027344-.53125-.464844-.945312-1-.945312h-1.988281c-.347656.214844-.695313.421875-1.046875.640625-2.671875 1.664063-5.300781 3.414063-7.871094 5.230469 2.160156-1.128906 4.550782-1.789063 6.851563-1.789063zm0 0"/><path d="m137.554688 140.171875c.167968-.105469.339843-.203125.507812-.3125 11.296875-7.027344 21.808594-15.515625 30.28125-24.328125l-10.386719-10.808594c-8.558593 9.03125-19.308593 17.417969-30.222656 23.898438zm0 0"/><path d="m251.5 99.484375c0 .511719.386719.941406.894531.996094 1.714844.179687 3.410157.429687 5.089844.730469 12.550781-.988282 25.484375-3.515626 36.117187-8.058594l-6.777343 20.867187c1.90625 1.433594 3.757812 2.960938 5.535156 4.605469.191406.175781.433594.265625.675781.265625.265625 0 .527344-.105469.722656-.308594l11.109376-11.558593 2.972656-9.148438c.71875 1.199219 1.507812 2.414062 2.328125 3.632812l10.679687-11.109374c-4.460937-7.371094-6.109375-13.757813-4.632812-18.300782.25-.769531.371094-1.550781.371094-2.316406 0-3.164062-2.015626-6.101562-5.1875-7.132812-3.941407-1.285157-8.167969.875-9.449219 4.816406-3.292969 10.136718-24.453125 17.964844-50.449219 19.097656zm0 0"/><path d="m169.15625 90.398438 10.675781 11.109374c.824219-1.21875 1.613281-2.4375 2.332031-3.640624l2.976563 9.164062 11.101563 11.550781c.195312.203125.457031.308594.722656.308594.242187 0 .484375-.089844.675781-.269531 1.78125-1.640625 3.632813-3.167969 5.542969-4.605469l-6.78125-20.863281c10.632812 4.542968 23.566406 7.070312 36.113281 8.058594 1.679687-.300782 3.375-.550782 5.089844-.730469.507812-.054688.894531-.484375.894531-.996094v-12.925781c-25.996094-1.132813-47.152344-8.960938-50.445312-19.097656-1.28125-3.9375-5.515626-6.097657-9.453126-4.816407-3.167968 1.03125-5.183593 3.972657-5.183593 7.132813 0 .769531.117187 1.550781.367187 2.320312 1.480469 4.542969-.167968 10.929688-4.628906 18.300782zm0 0"/><path d="m452.371094 259.5c-11.535156 0-26.96875-20.726562-35.898438-48.214844-8.933594-27.484375-8.628906-53.324218.703125-60.105468 2.019531-1.464844 3.089844-3.753907 3.09375-6.070313 0-1.53125-.464843-3.074219-1.433593-4.40625-2.4375-3.351563-7.125-4.09375-10.476563-1.65625-2.246094 1.628906-5.425781 2.457031-9.449219 2.457031-2.4375 0-5.085937-.3125-7.878906-.875v29.542969l4.289062-3.113281c-1.382812 15.40625 1.929688 33.617187 6.882813 48.863281 4.957031 15.246094 12.972656 31.929687 23.148437 43.578125h-34.316406v15h34.316406c-10.175781 11.652344-18.191406 28.335938-23.148437 43.578125-4.890625 15.054687-8.171875 32.988281-6.925781 48.269531 2.1875.886719 4.257812 2.039063 6.183594 3.453125.175781.128907.386718.195313.59375.195313.261718 0 .523437-.105469.71875-.308594l7.242187-7.535156c-.375-11.007813 1.761719-24.992188 6.457031-39.4375 8.929688-27.488282 24.363282-48.214844 35.898438-48.214844 4.140625 0 7.5-3.359375 7.5-7.5 0-4.144531-3.359375-7.5-7.5-7.5zm0 0"/><path d="m332.046875 104.722656-10.390625 10.808594c8.472656 8.8125 18.984375 17.300781 30.28125 24.328125.171875.105469.339844.207031.507812.3125l9.820313-11.550781c-10.914063-6.480469-21.664063-14.867188-30.21875-23.898438zm0 0"/><path d="m323.101562 440.136719c-.726562-.769531-1.261718-1.710938-1.546874-2.761719-.457032-1.675781-.230469-3.429688.632812-4.933594l15.605469-27.25c.601562-1.054687 1.382812-2.039062 2.277343-2.925781-11.355468 8.523437-21.289062 18.261719-28.222656 27.804687-1.480468 2.042969-2.816406 4.0625-4.007812 6.054688l-14.925782-45.933594c-.0625-.253906-.136718-.503906-.226562-.746094-.605469-2.597656 1.097656-6.976562 4.621094-11.828124 4.355468-5.992188 10.835937-11.933594 17.8125-16.8125l-1.007813-1.183594c-1.125-1.324219-1.667969-3.007813-1.523437-4.734375.136718-1.734375.945312-3.304688 2.265625-4.429688 1.175781-.996093 2.667969-1.546875 4.207031-1.546875 1.914062 0 3.71875.835938 4.957031 2.289063l2.429688 2.859375c4.09375-2.011719 8.0625-3.480469 11.585937-4.207032v-23.851562c0-3.585938 2.914063-6.5 6.5-6.5 3.582032 0 6.5 2.914062 6.5 6.5v25.429688c.003906.585937.269532 1.492187.621094 2.328124l19.222656 13.964844c2.019532-1.105468 4.164063-1.957031 6.40625-2.542968.441406-.113282.75-.511719.75-.96875v-9.832032l-22.261718-16.171875c-4.191407-3.105469-5.164063-17.351562.578124-35.027343 5.003907-15.398438 12.597657-25.691407 17.921876-28.121094-.714844-.703125-1.3125-1.519532-1.757813-2.4375l-33.875-69.910156c-.167969-.34375-.519531-.5625-.902344-.5625h-16.234375l-14.59375 10.605468 5.964844 14.203125 24.472656-17.777343c.125 8.578124 2.011719 17.886718 4.738282 26.277343 2.726562 8.390625 6.671874 17.027344 11.609374 24.042969h-27.152343l6.300781 15h20.851562c-4.9375 7.015625-8.882812 15.652344-11.609374 24.042969-2.726563 8.390625-4.609376 17.695312-4.738282 26.277343l-20.59375-14.964843-10.945312 10.589843 22.742187 16.523438c-16.105469 5.503906-33.542969 18.742188-42.820312 31.097656l-6.96875-21.449218-7.078125 6.851562c-1.542969 1.492188-3.53125 2.359375-5.652344 2.503906l5.433594 16.722656c-8.203125-2.535156-17.636719-3.613281-26.460938-3.613281-8.820312 0-18.253906 1.078125-26.453125 3.609375l5.433594-16.71875c-2.125-.140625-4.117187-1.011718-5.660156-2.503906l-7.074219-6.847656-6.96875 21.449218c-9.277344-12.355468-26.714844-25.59375-42.820312-31.101562l22.738281-16.519531-10.945313-10.589844-20.59375 14.960937c-.128906-8.578124-2.015625-17.882812-4.738281-26.273437-2.730469-8.390625-6.671875-17.03125-11.613281-24.050781h20.851562l6.300782-15h-27.152344c4.941406-7.015625 8.886718-15.65625 11.613281-24.046875s4.609375-17.695313 4.738281-26.273438l24.472656 17.777344 5.964844-14.207031-14.589844-10.601563h-16.242187c-.382813 0-.734375.21875-.898437.566407l-33.878907 69.90625c-.449219.929687-1.054687 1.738281-1.753906 2.441406 5.328125 2.433594 12.917969 12.726562 17.921875 28.121094 5.753906 17.714843 4.765625 31.984374.550781 35.046874-.003906.003907-.007812.003907-.007812.007813l-39.515625 28.707031c1.386718-15.40625-1.929688-33.617187-6.882813-48.863281s-12.972656-31.929687-23.144531-43.582031h37.859375c-.703125-.832032-1.257813-1.792969-1.628906-2.851563-.789063-2.273437-.644531-4.714843.402343-6.875l2.554688-5.273437h-39.195312c10.175781-11.648438 18.195312-28.335938 23.148437-43.582032 4.953125-15.246093 8.265625-33.457031 6.882813-48.863281l39.496093 28.695313c.011719.007812.015625.015625.023438.019531.128906.09375.253906.199219.375.308594l1.140625-2.351563c2.15625-4.449218 6.519531-7.828125 11.34375-9.0625-1.300782-.027344-2.9375-.238281-4.019532-1.015625l-39.476562-28.679687c5.585938-1.277344 11.554688-3.335938 17.742188-6.117188l-10.167969-11.960937c-7.351563 2.925781-14.265625 4.613281-20.046875 4.613281-4.023438 0-7.199219-.828125-9.449219-2.460938-3.351563-2.433593-8.039063-1.691406-10.476563 1.660157-.964843 1.332031-1.429687 2.875-1.429687 4.40625 0 2.316406 1.070313 4.605469 3.089844 6.070312 9.332031 6.78125 9.636719 32.621094.703125 60.105469-8.925782 27.488281-24.363282 48.21875-35.898438 48.21875-4.140625 0-7.5 3.359375-7.5 7.5s3.359375 7.5 7.5 7.5c11.535156 0 26.96875 20.726562 35.902344 48.214844 8.929688 27.488281 8.625 53.328125-.707031 60.105468-2.019531 1.46875-3.089844 3.753907-3.089844 6.070313 0 1.53125.464844 3.074219 1.433594 4.40625 2.433593 3.351563 7.125 4.09375 10.476562 1.660156 2.246094-1.632812 5.421875-2.460937 9.445313-2.460937 21.1875 0 57.601562 22.546875 74.925781 46.394531 6.796875 9.351563 9.554687 17.523437 7.769531 23.011719-.25.769531-.367187 1.550781-.367187 2.320312 0 3.160156 2.015625 6.101563 5.183593 7.132813 3.941407 1.28125 8.171876-.878907 9.453126-4.816407 3.5625-10.972656 28.046874-19.242187 56.945312-19.242187 28.902344 0 53.382812 8.269531 56.949219 19.242187 1.03125 3.167969 3.96875 5.183594 7.128906 5.183594.183594 0 .367187-.007812.550781-.019531 3.894532-.269531 6.972656-3.515625 6.972656-7.480469 0-.960937-.179687-1.878906-.507812-2.71875-1.457031-5.230468 1.023438-12.761718 7.007812-21.367187zm-140.9375-4.003907c-1.191406-1.996093-2.527343-4.019531-4.011718-6.058593-9.261719-12.75-23.875-25.847657-40.089844-35.933594-12.140625-7.554687-23.996094-12.707031-34.5-15.105469l39.460938-28.671875c1.175781-.851562 3.027343-1.03125 4.375-1.03125 12.484374 0 34.921874 14.011719 45.292968 28.289063 3.667969 5.050781 5.367188 9.585937 4.539063 12.136718-.003907.007813-.003907.015626-.007813.027344zm62.835938-3.835937c-16.03125 0-34.371094 2.472656-48.597656 8.550781l15.109375-46.496094c1.664062-4.945312 14.910156-10.269531 33.488281-10.269531 18.628906 0 31.894531 5.351563 33.507812 10.308594.003907.007813.007813.015625.011719.027344l15.085938 46.429687c-14.226563-6.078125-32.570313-8.550781-48.605469-8.550781zm0 0"/><path d="m377.378906 139.644531c-.113281-.039062-.230468-.058593-.347656-.058593-.285156 0-.566406.125-.761719.351562l-7.574219 8.910156c3.175782 1.429688 6.296876 2.667969 9.335938 3.707032v-11.96875c0-.421876-.261719-.796876-.652344-.941407zm0 0"/><path d="m282.914062 285.273438c-2.558593 4.332031-5.847656 8.222656-9.726562 11.472656l17.835938 12.957031 10.945312-10.589844zm0 0"/><path d="m315.117188 173.195312c-.242188.167969-.414063.433594-.433594.746094-.171875 3.039063-.542969 6.074219-1.101563 9.019532-.058593.292968.023438.597656.210938.824218.191406.230469.472656.363282.769531.363282h23.472656c-6.757812-1.394532-15.140625-5.511719-22.917968-10.953126zm0 0"/><path d="m288.917969 259.5c.089843 1.136719.144531 2.277344.144531 3.425781 0 3.964844-.542969 7.851563-1.570312 11.574219h25.828124l-6.300781-15zm0 0"/><path d="m216.8125 296.75c-3.878906-3.253906-7.167969-7.140625-9.726562-11.472656l-19.050782 13.839844 10.945313 10.589843zm0 0"/><path d="m278 233.753906c3.382812 3.824219 6.042969 8.148438 7.90625 12.796875l12.007812-8.726562-5.964843-14.203125zm0 0"/></g><path d="m245 100.089844c2.535156 0 5.035156.140625 7.5.40625v-78.371094c-2.492188-.074219-4.988281-.125-7.5-.125s-5.007812.050781-7.5.125v78.371094c2.464844-.265625 4.964844-.40625 7.5-.40625zm0 0" fill="#eef6ff"/><path d="m377.03125 240.667969 11.683594 24.101562c1.046875 2.164063 1.191406 4.605469.402344 6.878907-.789063 2.269531-2.414063 4.097656-4.578126 5.144531-1.238281.601562-2.554687.902343-3.917968.902343-1.265625 0-2.480469-.261718-3.589844-.742187v88.300781c2.394531-.652344 4.90625-1.003906 7.5-1.003906 2.597656 0 5.109375.351562 7.5 1.003906v-243.859375l-15 17.644531zm0 0" fill="#eef6ff"/><path d="m392.03125 93.601562v-22.585937c-4.863281-3.65625-9.863281-7.136719-15-10.429687v50.660156zm0 0" fill="#eef6ff"/><path d="m380.621094 277.699219c-3.480469 0-6.589844-1.945313-8.105469-5.078125l-33.875-69.910156c-.167969-.34375-.519531-.5625-.902344-.5625h-29.707031c2.914062-5.671876 5.035156-11.714844 6.324219-18h24.648437c6.265625 0 12.550782 3.9375 15.28125 9.574218l34.429688 71.046875c1.046875 2.164063 1.191406 4.605469.402344 6.875-.789063 2.273438-2.414063 4.101563-4.578126 5.148438-1.238281.601562-2.554687.90625-3.917968.90625zm0 0" fill="#231f20"/><path d="m358.796875 442.425781c-.019531-.070312-.039063-.152343-.042969-.222656l7.957032-18.953125c0-.136719-.019532-.269531-.019532-.40625 0-2.003906.347656-4.003906 1.039063-5.949219.144531-.410156.003906-.871093-.34375-1.132812-6.277344-4.707031-10.238281-11.558594-11.214844-19.179688h-5.253906c-5.414063 0-11.300781 3.410157-13.992188 8.109375l-15.605469 27.25c-2.058593 3.59375-.8125 8.179688 2.78125 10.238282 3.59375 2.058593 8.175782.8125 10.234376-2.78125l15.554687-27.160157c.226563-.246093.804687-.582031 1.132813-.65625h4.710937c-.605469.839844-1.121094 1.738281-1.519531 2.6875l-9.394532 22.367188c-2.273437 5.410156-.859374 12.300781 3.355469 16.382812l22.605469 21.871094c2.976562 2.878906 7.722656 2.800781 10.605469-.175781 2.878906-2.976563 2.800781-7.726563-.175781-10.605469zm0 0" fill="#231f20"/><path d="m447.746094 431.941406-15.601563-27.25c-2.691406-4.699218-8.578125-8.109375-13.996093-8.109375h-5.25c-.976563 7.621094-4.941407 14.472657-11.21875 19.179688-.347657.261719-.488282.722656-.339844 1.132812.6875 1.945313 1.039062 3.945313 1.039062 5.949219 0 .136719-.019531.269531-.023437.40625l7.960937 18.953125c-.007812.070313-.023437.152344-.046875.222656l-22.410156 21.683594c-2.976563 2.878906-3.054687 7.628906-.175781 10.605469 1.472656 1.519531 3.429687 2.285156 5.390625 2.285156 1.878906 0 3.757812-.699219 5.214843-2.109375l22.601563-21.871094c4.21875-4.082031 5.628906-10.972656 3.355469-16.378906l-9.394532-22.371094c-.398437-.949219-.914062-1.847656-1.515624-2.6875h4.710937c.324219.074219.902344.410157 1.128906.65625l15.554688 27.160157c1.382812 2.417968 3.914062 3.773437 6.515625 3.773437 1.261718 0 2.542968-.320313 3.71875-.992187 3.59375-2.058594 4.839844-6.640626 2.78125-10.238282zm0 0" fill="#231f20"/><path d="m355.925781 392.859375c0-9.496094 4.652344-17.921875 11.796875-23.128906l-14.316406-14.894531c-.566406-.605469-1.363281-2.578126-1.371094-3.410157v-25.425781c0-4.140625-3.359375-7.5-7.5-7.5s-7.5 3.359375-7.5 7.5v25.429688c0 4.71875 2.285156 10.394531 5.558594 13.800781l13.714844 14.269531h-5.367188c-.652344-.035156-2.113281-.710938-2.546875-1.167969l-23.613281-27.777343c-2.683594-3.160157-7.417969-3.542969-10.570312-.859376-3.15625 2.683594-3.542969 7.414063-.859376 10.574219l23.613282 27.777344c3.230468 3.800781 8.96875 6.453125 13.953125 6.453125h5.054687c-.03125-.542969-.046875-1.089844-.046875-1.640625zm0 0" fill="#231f20"/><path d="m454.855469 349.695312c-3.15625-2.679687-7.886719-2.296874-10.570313.859376l-23.597656 27.757812c-.449219.476562-1.910156 1.152344-2.539062 1.1875h-5.390626l13.714844-14.269531c3.269532-3.40625 5.554688-9.082031 5.554688-13.804688v-25.425781c0-4.140625-3.355469-7.5-7.5-7.5-4.140625 0-7.5 3.359375-7.5 7.5v25.425781c-.007813.832031-.800782 2.804688-1.371094 3.410157l-14.3125 14.894531c7.140625 5.207031 11.796875 13.632812 11.796875 23.128906 0 .550781-.019531 1.097656-.046875 1.640625h5.054688c4.984374 0 10.722656-2.652344 13.953124-6.453125l23.613282-27.777344c2.683594-3.15625 2.296875-7.890625-.859375-10.574219zm0 0" fill="#231f20"/><path d="m414.140625 392.859375c0-16.351563-13.253906-29.609375-29.605469-29.609375-16.351562 0-29.609375 13.257812-29.609375 29.609375 0 9.695313 4.660157 18.300781 11.863281 23.703125-.699218 1.964844-1.097656 4.074219-1.097656 6.28125 0 10.402344 8.4375 18.839844 18.84375 18.839844s18.84375-8.4375 18.84375-18.839844c0-2.207031-.398437-4.316406-1.097656-6.28125 7.199219-5.402344 11.859375-14.007812 11.859375-23.703125zm0 0" fill="#333031"/><path d="m377.550781 422.84375c0-2.207031.398438-4.316406 1.09375-6.28125-7.203125-5.402344-11.863281-14.007812-11.863281-23.703125 0-14.320313 10.167969-26.269531 23.679688-29.015625-1.914063-.390625-3.898438-.59375-5.929688-.59375-16.351562 0-29.605469 13.257812-29.605469 29.609375 0 9.691406 4.660157 18.300781 11.859375 23.699219-.695312 1.96875-1.09375 4.078125-1.09375 6.28125 0 10.40625 8.4375 18.84375 18.84375 18.84375 2.074219 0 4.0625-.347656 5.929688-.96875-7.5-2.484375-12.914063-9.539063-12.914063-17.871094zm0 0" fill="#231f20"/><path d="m197.679688 118.632812-37.582032-39.105468c-.292968-.40625-.683594-1.367188-.753906-1.867188v-67.660156c0-5.523438-4.476562-10-10-10s-10 4.476562-10 10v67.773438c0 5.3125 2.570312 11.703124 6.253906 15.535156l39.386719 40.980468c3.464844-5.816406 7.746094-11.089843 12.695313-15.65625zm0 0" fill="#231f20"/><path d="m340.65625 0c-5.523438 0-10 4.476562-10 10v67.660156c-.070312.5-.460938 1.457032-.753906 1.867188l-37.582032 39.105468c4.945313 4.566407 9.230469 9.839844 12.695313 15.65625l39.386719-40.980468c3.683594-3.832032 6.253906-10.222656 6.253906-15.535156v-67.773438c0-5.523438-4.476562-10-10-10zm0 0" fill="#231f20"/><path d="m173.796875 283.949219 25.695313-61.175781c-5.367188-4.625-10.023438-10.042969-13.785157-16.082032-1.347656 1.441406-2.449219 3.089844-3.203125 4.878906l-27.859375 66.328126c-2.65625 6.324218-1.007812 14.375 3.921875 19.144531l59.058594 57.144531c1.941406 1.878906 4.445312 2.8125 6.953125 2.8125 2.613281 0 5.226563-1.019531 7.1875-3.046875 3.839844-3.96875 3.734375-10.296875-.234375-14.136719zm0 0" fill="#231f20"/><path d="m176.464844 183.148438h-25.46875c-6.632813 0-13.285156 4.167968-16.179688 10.136718l-34.429687 71.050782c-2.410157 4.96875-.332031 10.949218 4.636719 13.359374 4.972656 2.410157 10.953124.332032 13.359374-4.640624l33.878907-69.90625h31.363281c-3.351562-6.167969-5.789062-12.894532-7.160156-20zm0 0" fill="#231f20"/><path d="m389.613281 264.335938-34.429687-71.046876c-2.894532-5.972656-9.546875-10.140624-16.179688-10.140624h-25.472656c-1.371094 7.105468-3.804688 13.835937-7.160156 20h31.367187l33.875 69.910156c1.730469 3.5625 5.292969 5.640625 9.007813 5.640625 1.460937 0 2.949218-.324219 4.351562-1.003907 4.972656-2.410156 7.050782-8.390624 4.640625-13.359374zm0 0" fill="#231f20"/><path d="m307.496094 211.570312c-.753906-1.792968-1.855469-3.4375-3.203125-4.882812-3.761719 6.039062-8.417969 11.460938-13.785157 16.085938l25.695313 61.175781-57.734375 55.863281c-3.96875 3.839844-4.074219 10.171875-.234375 14.140625s10.171875 4.074219 14.140625.234375l59.058594-57.144531c4.925781-4.769531 6.578125-12.820313 3.921875-19.144531zm0 0" fill="#231f20"/><path d="m419.324219 75.390625c-4.207031-3.574219-10.515625-3.0625-14.09375 1.144531l-65.457031 77c-.246094.175782-.710938.390625-1 .464844h-25.808594c1.191406 5.109375 1.847656 10.429688 1.847656 15.898438 0 1.378906-.050781 2.742187-.132812 4.101562h24.324218c5.667969 0 12.1875-3.015625 15.859375-7.332031l65.605469-77.179688c3.578125-4.210937 3.0625-10.519531-1.144531-14.097656zm0 0" fill="#231f20"/><path d="m175.1875 169.898438c0-5.46875.652344-10.789063 1.847656-15.898438h-25.808594c-.292968-.074219-.753906-.289062-1-.464844l-65.457031-77c-3.578125-4.210937-9.886719-4.722656-14.09375-1.144531-4.210937 3.578125-4.722656 9.886719-1.144531 14.097656l65.605469 77.179688c3.671875 4.316406 10.191406 7.332031 15.859375 7.332031h24.320312c-.078125-1.359375-.128906-2.722656-.128906-4.101562zm0 0" fill="#231f20"/><path d="m245 99.089844c-39.105469 0-70.8125 31.703125-70.8125 70.808594 0 27.492187 15.679688 51.308593 38.570312 63.039062 8.050782-8.648438 19.523438-14.070312 32.242188-14.070312s24.191406 5.421874 32.242188 14.070312c22.890624-11.730469 38.570312-35.546875 38.570312-63.039062 0-39.105469-31.707031-70.808594-70.8125-70.808594zm0 0" fill="#333031"/><path d="m221.898438 225.429688c-16.378907-12.96875-26.898438-33.015626-26.898438-55.53125 0-35.570313 26.234375-65.007813 60.40625-70.042969-3.398438-.5-6.871094-.765625-10.40625-.765625-39.105469 0-70.8125 31.703125-70.8125 70.808594 0 27.492187 15.679688 51.308593 38.570312 63.039062 2.691407-2.890625 5.765626-5.421875 9.140626-7.507812zm0 0" fill="#231f20"/><path d="m290.0625 262.925781c0-24.886719-20.175781-45.0625-45.0625-45.0625s-45.0625 20.175781-45.0625 45.0625c0 19.265625 12.089844 35.695313 29.09375 42.140625v6.074219c0 4.144531 3.359375 7.5 7.5 7.5s7.5-3.355469 7.5-7.5v-3.175781c.324219.007812.644531.023437.96875.023437s.644531-.015625.96875-.023437v3.175781c0 4.144531 3.355469 7.5 7.5 7.5 4.140625 0 7.5-3.355469 7.5-7.5v-6.074219c17.003906-6.445312 29.09375-22.878906 29.09375-42.140625zm0 0" fill="#231f20"/><path d="m239.09375 311.140625v-6.074219c-17.003906-6.445312-29.09375-22.875-29.09375-42.140625 0-23.183593 17.511719-42.269531 40.03125-44.773437-1.652344-.183594-3.332031-.285156-5.03125-.285156-24.886719 0-45.0625 20.171874-45.0625 45.0625 0 19.261718 12.089844 35.691406 29.09375 42.140624v6.074219c0 4.140625 3.359375 7.5 7.5 7.5 1.9375 0 3.699219-.742187 5.03125-1.949219-1.511719-1.375-2.46875-3.351562-2.46875-5.554687zm0 0"/><path d="m238.484375 274.144531c0 4.101563-3.324219 7.429688-7.429687 7.429688-4.101563 0-7.425782-3.328125-7.425782-7.429688 0-4.101562 3.324219-7.429687 7.425782-7.429687 4.105468 0 7.429687 3.328125 7.429687 7.429687zm0 0" fill="#fff"/><path d="m266.371094 274.144531c0 4.101563-3.324219 7.429688-7.425782 7.429688-4.105468 0-7.429687-3.328125-7.429687-7.429688 0-4.101562 3.324219-7.429687 7.429687-7.429687 4.101563 0 7.425782 3.328125 7.425782 7.429687zm0 0" fill="#fff"/><path d="m174.828125 160.507812h140.34375c-1.460937-11.039062-5.449219-21.277343-11.390625-30.101562h-117.5625c-5.941406 8.824219-9.929688 19.0625-11.390625 30.101562zm0 0" fill="#b7092b"/><path d="m186.21875 130.40625c-5.941406 8.824219-9.929688 19.0625-11.390625 30.101562h20.828125c1.460938-11.039062 5.449219-21.277343 11.390625-30.101562zm0 0" fill="#a00026"/><path d="m191.628906 216.410156h106.742188c7.410156-8.496094 12.816406-18.769531 15.507812-30.101562h-137.757812c2.6875 11.332031 8.101562 21.605468 15.507812 30.101562zm0 0" fill="#b7092b"/><path d="m176.121094 186.308594c2.6875 11.332031 8.101562 21.605468 15.507812 30.101562h20.882813c-7.410157-8.496094-12.820313-18.769531-15.511719-30.101562zm0 0" fill="#a00026"/></svg>