<svg height="512pt" viewBox="-11 0 512 512.00167" width="512pt" xmlns="http://www.w3.org/2000/svg"><path d="m490 267c0 135.3125-109.6875 245-245 245-135.308594 0-245-109.6875-245-245 0-135.308594 109.691406-245 245-245 135.3125 0 245 109.691406 245 245zm0 0" fill="#37c47a"/><path d="m352 448.023438v15.976562c0 1.105469-.894531 2-2 2h-210c-1.101562 0-2-.894531-2-2v-15.976562h-58.078125c43.546875 39.738281 101.480469 63.976562 165.078125 63.976562 63.601562 0 121.53125-24.238281 165.082031-63.976562zm0 0" fill="#794091"/><path d="m98.027344 224.492188c1.21875-1.265626 2.925781-1.988282 4.683594-1.988282 1.753906 0 3.460937.722656 4.679687 1.988282l60.765625 63.113281c.195312.199219.457031.304687.722656.304687.125 0 .253906-.023437.375-.070312.375-.152344.625-.523438.625-.929688v-76.90625h-108.378906v52.425782zm0 0" fill="#1a2b63"/><path d="m320.125 286.914062c0 .40625.246094.773438.625.925782.121094.046875.246094.074218.375.074218.265625 0 .527344-.109374.71875-.308593l60.769531-63.113281c1.214844-1.265626 2.921875-1.988282 4.679688-1.988282 1.757812 0 3.464843.722656 4.683593 1.988282l36.527344 37.9375v-52.429688h-108.378906zm0 0" fill="#1a2b63"/><path d="m82 241.136719v-31.136719h-20.5v52.429688zm0 0" fill="#11204c"/><path d="m341.152344 146.328125c1.96875 2.996094 1.132812 7.035156-1.859375 9.003906-1.066407.703125-2.300781 1.070313-3.566407 1.070313-2.195312 0-4.230468-1.09375-5.4375-2.925782l-8.332031-12.664062c-.1875-.289062-.503906-.453125-.832031-.453125-.097656 0-.195312.015625-.289062.042969-.421876.128906-.710938.515625-.710938.957031v69.644531h128.902344c1.789062 0 3.4375-.953125 4.332031-2.5.894531-1.550781.894531-3.453125 0-5l-43.550781-75.433594c-.894532-1.546874-2.542969-2.5-4.328125-2.5h-77.988281zm0 0" fill="#445ea0"/><path d="m40.972656 211h128.90625v-69.640625c0-.441406-.292968-.832031-.714844-.957031-.09375-.027344-.191406-.042969-.285156-.042969-.332031 0-.648437.164063-.835937.453125l-8.332031 12.660156c-1.207032 1.835938-3.238282 2.929688-5.4375 2.929688-1.265626 0-2.5-.371094-3.566407-1.070313-2.992187-1.96875-3.828125-6.007812-1.855469-9.003906l13.65625-20.757813h-77.984374c-1.785157 0-3.4375.953126-4.332032 2.5l-43.546875 75.429688c-.894531 1.546875-.894531 3.453125 0 5 .890625 1.546875 2.542969 2.5 4.328125 2.5zm0 0" fill="#445ea0"/><path d="m57.617188 208.5c-.894532-1.546875-.894532-3.453125 0-5l43.546874-75.429688c.894532-1.546874 2.546876-2.5 4.332032-2.5h-20.972656c-1.785157 0-3.4375.953126-4.332032 2.5l-43.546875 75.429688c-.894531 1.546875-.894531 3.453125 0 5 .890625 1.546875 2.542969 2.5 4.328125 2.5h20.972656c-1.785156 0-3.4375-.953125-4.328124-2.5zm0 0" fill="#2e4c89"/><path d="m138 446c0-1.101562.898438-2 2-2h15c.554688 0 1-.445312 1-1v-14.976562c0-1.101563.898438-2 2-2h10.878906c.550782 0 1-.449219 1-1v-116.890626l-66.449218-69.011718c-.1875-.195313-.449219-.304688-.71875-.304688-.273438 0-.535157.109375-.722657.304688l-70.007812 72.710937v76.261719c13.027343 22.867188 29.625 43.425781 49.039062 60.929688h56.980469zm0 0" fill="#333031"/><path d="m103.429688 239.121094c-.1875-.195313-.449219-.304688-.71875-.304688-.273438 0-.535157.109375-.722657.304688l-70.007812 72.710937v76.261719c6.09375 10.699219 12.980469 20.882812 20.5625 30.496094v-106.128906l60.75-63.097657zm0 0" fill="#231f20"/><path d="m169.878906 287.949219-61.769531-64.148438c-1.414063-1.46875-3.363281-2.296875-5.402344-2.296875-2.039062 0-3.988281.828125-5.402343 2.296875l-84.289063 87.542969c-2.875 2.984375-2.785156 7.734375.199219 10.605469 1.453125 1.402343 3.328125 2.097656 5.199218 2.097656 1.96875 0 3.933594-.769531 5.40625-2.296875l78.886719-81.933594 67.167969 69.761719v-21.628906zm0 0"/><path d="m82.238281 382.175781c-2.753906 0-4.992187-2.238281-4.992187-4.992187v-53.921875c0-13.214844 10.75-23.964844 23.964844-23.964844h2.996093c13.214844 0 23.964844 10.75 23.964844 23.964844v53.921875c0 2.753906-2.234375 4.992187-4.992187 4.992187zm0 0" fill="#ffca51"/><path d="m104.207031 291.796875h-2.996093c-17.347657 0-31.464844 14.117187-31.464844 31.464844v53.921875c0 6.886718 5.605468 12.492187 12.492187 12.492187h40.941407c6.886718 0 12.492187-5.605469 12.492187-12.492187v-53.921875c0-17.347657-14.117187-31.464844-31.464844-31.464844zm16.464844 31.464844v11.472656h-10.460937v-26.789063c6.113281 2.40625 10.460937 8.359376 10.460937 15.316407zm-25.460937-15.316407v26.789063h-10.464844v-11.472656c0-6.957031 4.347656-12.910157 10.464844-15.316407zm-10.464844 41.789063h10.464844v24.941406h-10.464844zm25.464844 24.941406v-24.941406h10.460937v24.941406zm0 0" fill="#231f20"/><path d="m388.011719 239.121094c-.1875-.195313-.449219-.308594-.71875-.308594-.273438 0-.535157.113281-.722657.308594l-66.449218 69.011718v116.890626c0 .550781.449218 1 1 1h10.878906c1.105469 0 2 .898437 2 2v14.976562c0 .554688.449219 1 1 1h15c1.105469 0 2 .898438 2 2v3.023438h56.980469c19.417969-17.503907 36.015625-38.066407 49.042969-60.933594v-76.257813zm0 0" fill="#333031"/><path d="m320.125 425.023438c0 .550781.445312 1 1 1h10.875c1.105469 0 2 .898437 2 2v14.976562c0 .554688.449219 1 1 1h2.542969v-131.539062l60.542969-62.878907-10.074219-10.460937c-.1875-.195313-.445313-.308594-.71875-.308594-.273438 0-.53125.113281-.722657.308594l-66.445312 69.011718zm0 0" fill="#231f20"/><path d="m476.988281 311.34375-84.292969-87.542969c-1.414062-1.46875-3.363281-2.300781-5.402343-2.300781-2.039063 0-3.988281.832031-5.402344 2.300781l-61.765625 64.148438v21.628906l67.167969-69.761719 78.890625 81.933594c1.472656 1.527344 3.4375 2.296875 5.402344 2.296875 1.871093 0 3.746093-.695313 5.203124-2.097656 2.980469-2.871094 3.070313-7.621094.199219-10.605469zm0 0"/><path d="m366.824219 382.175781c-2.757813 0-4.992188-2.238281-4.992188-4.992187v-53.921875c0-13.214844 10.75-23.964844 23.964844-23.964844h2.996094c13.210937 0 23.960937 10.75 23.960937 23.964844v53.921875c0 2.753906-2.230468 4.992187-4.992187 4.992187zm0 0" fill="#ffca51"/><path d="m388.792969 291.796875h-2.996094c-17.351563 0-31.464844 14.117187-31.464844 31.464844v53.921875c0 6.886718 5.601563 12.492187 12.492188 12.492187h40.9375c6.890625 0 12.492187-5.605469 12.492187-12.492187v-53.921875c0-17.347657-14.113281-31.464844-31.460937-31.464844zm16.460937 31.464844v11.472656h-10.460937v-26.789063c6.117187 2.40625 10.460937 8.359376 10.460937 15.316407zm-25.460937-15.316407v26.789063h-10.460938v-11.472656c0-6.957031 4.347657-12.910157 10.460938-15.316407zm-10.460938 41.789063h10.460938v24.941406h-10.460938zm25.460938 24.941406v-24.941406h10.460937v24.941406zm0 0" fill="#231f20"/><path d="m321.125 426.023438v-286.484376l-75.289062-114.441406c-.183594-.28125-.5-.449218-.835938-.449218s-.648438.167968-.835938.449218l-75.285156 114.441406v286.484376zm0 0" fill="#2e4c89"/><path d="m186.386719 426.023438v-287.195313l67.792969-101.042969-8.34375-12.6875c-.1875-.28125-.5-.449218-.835938-.449218s-.652344.167968-.835938.449218l-75.289062 114.441406v286.484376zm0 0" fill="#293d7c"/><path d="m335.726562 157.402344c-2.441406 0-4.832031-1.1875-6.273437-3.378906l-84.453125-128.375-84.453125 128.375c-2.277344 3.460937-6.929687 4.421874-10.390625 2.144531-3.457031-2.277344-4.417969-6.925781-2.140625-10.386719l90.71875-137.902344c1.386719-2.109375 3.742187-3.378906 6.265625-3.378906s4.878906 1.269531 6.265625 3.378906l90.722656 137.902344c2.273438 3.460938 1.3125 8.109375-2.144531 10.386719-1.273438.835937-2.703125 1.234375-4.117188 1.234375zm0 0" fill="#1a2b63"/><path d="m286.574219 426.023438v-79.042969c0-2.75-2.25-5-5-5h-73.148438c-2.75 0-5 2.25-5 5v79.042969zm0 0" fill="#333031"/><path d="m224 426.023438v-79.042969c0-2.75 2.25-5 5-5h-20.574219c-2.75 0-5 2.25-5 5v79.042969zm0 0" fill="#231f20"/><path d="m210.925781 426.023438v-76.542969h26.574219v76.542969h15v-76.542969h26.574219v76.542969h15v-79.042969c0-6.894531-5.605469-12.5-12.5-12.5h-73.148438c-6.890625 0-12.5 5.605469-12.5 12.5v79.042969zm0 0"/><path d="m170.433594 25.503906-28.109375-7.476562c-.203125-.054688-.410157-.019532-.578125.078125-.167969.097656-.300782.257812-.355469.460937-3.566406 13.3125-10.675781 25.0625-20.527344 34.203125l-13.234375-11.917969c-.171875-.15625-.417968-.203124-.636718-.121093-.03125.011719-.066407.027343-.097657.042969-.164062.097656-.28125.265624-.304687.460937l-.695313 5.0625-10.945312 6.320313-4.949219-1.960938c-.183594-.074219-.382812-.054688-.546875.039062-.03125.019532-.0625.039063-.089844.0625-.175781.148438-.257812.386719-.210937.609376l3.738281 17.574218c-12.863281 3.976563-26.617187 4.269532-39.957031.695313-.195313-.054688-.402344-.023438-.578125.074219-.171875.101562-.300781.269531-.351563.460937l-7.515625 28.050781c-.085937.316406.042969.652344.316407.832032.242187.160156.550781.167968.796874.023437.03125-.015625.0625-.039063.089844-.0625.507813-.398437 1.042969-.761719 1.585938-1.074219 6.269531-3.621094 14.3125-1.464844 17.929687 4.800782.164063.285156.324219.597656.496094.957031.125.261719.382813.429687.671875.4375.140625 0 .277344-.035157.394531-.105469.125-.070312.226563-.171875.292969-.300781 1.152344-2.171875 2.890625-3.972657 5.027344-5.207031 6.101562-3.523438 13.847656-1.628907 17.628906 4.316406.160156.25.449219.386718.746094.34375.097656-.015625.191406-.046875.273437-.09375.164063-.097656.292969-.253906.351563-.441406.964844-3.214844 3.097656-5.914063 6-7.589844 12.804687-7.394532 38.496094 16.925781 38.496094 16.925781.246093.179687.574218.199219.839843.046875.261719-.152344.410157-.445312.375-.75 0 0-7.792969-34.648438 4.597657-41.800781 2.90625-1.679688 6.304687-2.175781 9.574218-1.40625.195313.046875.390625.015625.554688-.082031.085937-.046876.160156-.113282.222656-.191407.183594-.234375.210938-.554687.070312-.820312-3.253906-6.246094-1.023437-13.898438 5.082032-17.421875 2.136718-1.234375 4.5625-1.839844 7.019531-1.75.144531.003906.289063-.03125.410156-.101563.117188-.070312.214844-.167969.285157-.292969.136718-.253906.121093-.5625-.039063-.800781-.230469-.328125-.417969-.625-.582031-.90625-3.617188-6.269531-1.464844-14.3125 4.804687-17.929687.542969-.3125 1.121094-.59375 1.71875-.832032.035157-.011718.066407-.03125.097657-.046874.246093-.144532.398437-.414063.378906-.703126-.015625-.328124-.242188-.609374-.5625-.691406zm0 0" fill="#231f20"/><path d="m62.191406 71.484375c-3.097656-.417969-6.1875-1.023437-9.257812-1.847656-.195313-.050781-.402344-.023438-.578125.078125-.171875.101562-.300781.265625-.351563.460937l-7.515625 28.046875c-.085937.316406.042969.652344.316407.832032.242187.160156.550781.167968.796874.023437.03125-.015625.0625-.039063.089844-.0625.507813-.398437 1.042969-.761719 1.585938-1.074219 2.597656-1.5 5.496094-1.996094 8.261718-1.628906zm0 0"/><path d="m426.898438 52.261719-14.589844-25.167969c-.105469-.179688-.273438-.300781-.460938-.351562-.191406-.050782-.398437-.03125-.578125.078124-11.9375 6.890626-25.273437 10.167969-38.703125 9.667969l-.933594-17.785156c-.007812-.234375-.148437-.441406-.359374-.539063-.03125-.011718-.066407-.027343-.101563-.035156-.183594-.050781-.386719-.011718-.542969.105469l-4.070312 3.09375-12.210938-3.269531-2.109375-4.890625c-.078125-.179688-.230469-.308594-.414062-.359375-.035157-.007813-.074219-.015625-.113281-.019532-.226563-.015624-.449219.089844-.578126.285157l-9.78125 15.066406c-11.90625-6.28125-21.839843-15.800781-28.742187-27.761719-.105469-.171875-.269531-.300781-.464844-.3515622-.195312-.0546876-.402343-.0273438-.578125.0742182l-25.144531 14.515626c-.285156.167968-.429687.492187-.363281.816406.058594.285156.273437.507812.546875.578125.035156.011719.070312.019531.109375.023437.640625.074219 1.273437.195313 1.882812.359375 6.988282 1.875 11.152344 9.085938 9.28125 16.074219-.085937.316406-.191406.652344-.328125 1.027344-.09375.269531-.03125.574218.167969.78125.101562.101562.222656.171875.351562.207031.140626.039063.285157.039063.421876-.007813 2.351562-.71875 4.855468-.765624 7.234374-.125 6.808594 1.824219 10.945313 8.636719 9.414063 15.515626-.0625.289062.046875.59375.285156.773437.078125.058594.167969.101563.261719.125.183594.050781.382812.03125.558594-.0625 2.957031-1.59375 6.371094-1.992187 9.613281-1.125 14.277344 3.828125 15.253906 39.191406 15.253906 39.191406.042969.300781.261719.546875.554688.625.296875.078125.609375-.023437.796875-.265625 0 0 18.992187-30.011718 32.8125-26.308594 3.238281.871094 5.996094 2.921876 7.761718 5.777344.105469.167969.265626.285156.453126.335938.09375.023437.191406.03125.289062.019531.296875-.039063.542969-.242187.632812-.527344 2.113282-6.71875 9.101563-10.554687 15.910157-8.730469 2.382812.640626 4.527343 1.929688 6.203125 3.726563.097656.109375.226562.183594.359375.21875.132812.035156.273437.035156.410156-.003906.277344-.082031.480469-.3125.535156-.59375.070313-.394531.148438-.734375.230469-1.050781 1.875-6.992188 9.085938-11.15625 16.074219-9.28125.609375.160156 1.214843.371093 1.804687.625.035156.015624.070313.027343.105469.039062.273437.070312.570313-.015625.765625-.230469.214844-.242187.25-.601562.085938-.882812zm0 0" fill="#231f20"/><path d="m320.699219 11.734375c-3.019531-3.480469-5.738281-7.269531-8.09375-11.351563-.101563-.175781-.265625-.304687-.460938-.3554682-.195312-.0507813-.402343-.02343755-.578125.0781252l-25.144531 14.515625c-.285156.164062-.433594.492187-.363281.8125.058594.285156.269531.507812.542968.582031.039063.011719.074219.015625.109376.019531.640624.078125 1.277343.199219 1.882812.363282 4.449219 1.191406 7.746094 4.546874 9.078125 8.632812zm0 0"/><path d="m222.410156 192.5c-3.042968 0-5.511718-2.464844-5.511718-5.507812v-59.511719c0-14.585938 11.867187-26.449219 26.449218-26.449219h3.308594c14.582031 0 26.445312 11.863281 26.445312 26.449219v59.511719c0 3.042968-2.464843 5.507812-5.507812 5.507812zm0 0" fill="#fe3745"/><path d="m233 186.992188v-59.511719c0-12.378907 8.550781-22.792969 20.050781-25.660157-2.046875-.511718-4.191406-.789062-6.394531-.789062h-3.308594c-14.582031 0-26.449218 11.863281-26.449218 26.449219v59.511719c0 3.042968 2.46875 5.507812 5.511718 5.507812h16.101563c-3.042969 0-5.511719-2.464844-5.511719-5.507812zm0 0" fill="#ea2a3d"/><path d="m246.65625 93.53125h-3.308594c-18.71875 0-33.949218 15.230469-33.949218 33.949219v59.511719c0 7.171874 5.835937 13.007812 13.011718 13.007812h45.183594c7.171875 0 13.007812-5.835938 13.007812-13.007812v-59.511719c0-18.71875-15.226562-33.949219-33.945312-33.949219zm18.945312 33.949219v13.4375h-13.101562v-31.453125c7.59375 2.472656 13.101562 9.609375 13.101562 18.015625zm-28.101562-18.015625v31.453125h-13.101562v-13.4375c0-8.40625 5.507812-15.542969 13.101562-18.015625zm-13.101562 46.457031h13.101562v29.078125h-13.101562zm28.101562 29.078125v-29.078125h13.101562v29.078125zm0 0" fill="#1a2b63"/><path d="m222.410156 313c-3.042968 0-5.511718-2.464844-5.511718-5.507812v-59.511719c0-14.582031 11.867187-26.449219 26.449218-26.449219h3.308594c14.582031 0 26.445312 11.863281 26.445312 26.449219v59.511719c0 3.042968-2.464843 5.507812-5.507812 5.507812zm0 0" fill="#fe3745"/><path d="m233 307.492188v-59.511719c0-12.378907 8.550781-22.792969 20.050781-25.660157-2.046875-.511718-4.191406-.789062-6.394531-.789062h-3.308594c-14.582031 0-26.449218 11.863281-26.449218 26.449219v59.511719c0 3.042968 2.46875 5.507812 5.511718 5.507812h16.101563c-3.042969 0-5.511719-2.464844-5.511719-5.507812zm0 0" fill="#ea2a3d"/><path d="m246.65625 214.03125h-3.308594c-18.71875 0-33.949218 15.230469-33.949218 33.949219v59.511719c0 7.171874 5.835937 13.007812 13.011718 13.007812h45.183594c7.171875 0 13.007812-5.835938 13.007812-13.007812v-59.511719c0-18.71875-15.226562-33.949219-33.945312-33.949219zm18.945312 33.949219v13.441406h-13.101562v-31.457031c7.59375 2.472656 13.101562 9.609375 13.101562 18.015625zm-28.101562-18.015625v31.457031h-13.101562v-13.441406c0-8.40625 5.507812-15.542969 13.101562-18.015625zm-13.101562 46.457031h13.101562v29.078125h-13.101562zm28.101562 29.078125v-29.078125h13.101562v29.078125zm0 0" fill="#1a2b63"/><path d="m335 444v-15.976562c0-1.648438-1.347656-3-3-3h-174c-1.648438 0-3 1.351562-3 3v15.976562zm0 0" fill="#b7092b"/><path d="m175 444v-15.976562c0-1.648438 1.351562-3 3-3h-20c-1.648438 0-3 1.351562-3 3v15.976562zm0 0" fill="#a00026"/><path d="m353 464c0 1.652344-1.347656 3-3 3h-210c-1.648438 0-3-1.347656-3-3v-18c0-1.648438 1.351562-3 3-3h210c1.652344 0 3 1.351562 3 3zm0 0" fill="#fe3745"/><path d="m157 464v-18c0-1.648438 1.351562-3 3-3h-20c-1.648438 0-3 1.351562-3 3v18c0 1.652344 1.351562 3 3 3h20c-1.648438 0-3-1.347656-3-3zm0 0" fill="#ea2a3d"/></svg>