<svg height="512pt" viewBox="-11 0 512 512" width="512pt" xmlns="http://www.w3.org/2000/svg"><path d="m490 267c0 135.308594-109.691406 245-245 245s-245-109.691406-245-245 109.691406-245 245-245 245 109.691406 245 245zm0 0" fill="#ffd00d"/><path d="m87.933594 455c42.527344 35.570312 97.289062 57 157.066406 57s114.539062-21.429688 157.066406-57zm0 0" fill="#8e5e3d"/><path d="m245 141.90625c-2.558594 0-5.0625-.242188-7.5-.683594v11.535156h15v-11.542968c-2.441406.445312-4.941406.691406-7.5.691406zm0 0" fill="#424f59"/><path d="m178.386719 302c-1.273438 0-2.511719-.183594-3.703125-.503906v34.832031h140.636718v-81.394531c-.417968.039062-.839843.066406-1.269531.066406h-46.761719c-7.722656 0-14-6.28125-14-14v-41.738281c0-8.820313-7.179687-16-16-16h-21.5c-8.820312 0-16 7.179687-16 16v8.109375c0 7.722656-6.28125 14-14 14h-9.839843c-.429688 0-.851563-.023438-1.269531-.0625v23.71875c1.195312-.320313 2.429687-.507813 3.707031-.507813 9.0625 0 16.4375 8.523438 16.4375 19v19.480469c0 10.476562-7.375 19-16.4375 19zm0 0" fill="#fe3745"/><path d="m178.386719 302c-1.273438 0-2.511719-.183594-3.703125-.503906v34.832031h31.316406v-149.691406c-3.769531 2.929687-6.210938 7.492187-6.210938 12.628906v8.109375c0 7.71875-6.28125 14-14 14h-9.839843c-.429688 0-.851563-.027344-1.269531-.066406v23.71875c1.195312-.320313 2.429687-.503906 3.707031-.503906 9.0625 0 16.4375 8.523437 16.4375 19v19.476562c0 10.476562-7.375 19-16.4375 19zm0 0" fill="#ea2a3d"/><path d="m421.421875 248c-21.582031 0-39.144531 17.558594-39.144531 39.144531v49.183594h20v-49.183594c0-10.558593 8.589844-19.144531 19.144531-19.144531s19.144531 8.585938 19.144531 19.144531v24.65625c0 5.523438 4.476563 10 10 10 5.519532 0 10-4.476562 10-10v-24.65625c0-21.585937-17.558594-39.144531-39.144531-39.144531zm0 0" fill="#924eb5"/><path d="m175.949219 151.757812c-8.25 0-15 6.75-15 15v40.617188c0 8.25 6.75 15 15 15h9.839843c8.25 0 15-6.75 15-15v-8.109375c0-8.25 6.75-15 15-15h21.5c8.25 0 15 6.75 15 15v41.734375c0 8.25 6.75 15 15 15h46.761719c8.25 0 15-6.75 15-15v-74.242188c0-8.25-6.75-15-15-15zm0 0" fill="#b7092b"/><path d="m181.898438 207.375v-40.617188c0-8.25 6.75-15 15-15h-20.949219c-8.25 0-15 6.75-15 15v40.617188c0 8.25 6.75 15 15 15h9.839843c1.960938 0 3.832032-.394531 5.554688-1.085938-5.519531-2.21875-9.445312-7.625-9.445312-13.914062zm0 0" fill="#a00026"/><path d="m245 142.90625c-23.511719 0-43.058594-19.128906-43.570312-42.644531l.015624-1.671875c.464844-35.539063 13.84375-69.617188 37.671876-95.976563 1.5-1.664062 3.644531-2.613281 5.882812-2.613281s4.378906.949219 5.882812 2.609375c23.828126 26.347656 37.203126 60.316406 37.664063 95.648437l.023437 1.71875c-.511718 23.792969-20.058593 42.929688-43.570312 42.929688zm0 0" fill="#ef8318"/><path d="m217.761719 100.257812.015625-1.667968c.453125-34.386719 12.992187-67.40625 35.390625-93.390625-.75-.871094-1.511719-1.734375-2.285157-2.589844-1.503906-1.660156-3.644531-2.609375-5.882812-2.609375s-4.382812.949219-5.882812 2.609375c-23.828126 26.363281-37.207032 60.441406-37.675782 95.980469l-.011718 1.667968c.511718 23.515626 20.058593 42.648438 43.570312 42.648438 2.777344 0 5.5-.28125 8.144531-.792969-19.699219-3.824219-34.929687-21.132812-35.382812-41.855469zm0 0" fill="#db722c"/><path d="m269.449219 96.570312c0 13.5-10.945313 24.445313-24.449219 24.445313s-24.449219-10.945313-24.449219-24.445313c0-13.503906 10.945313-24.449218 24.449219-24.449218s24.449219 10.945312 24.449219 24.449218zm0 0" fill="#ffaf10"/><path d="m105.773438 407.957031h278.453124l31.375-65.148437c.777344-1.617188.671876-3.519532-.285156-5.039063-.953125-1.523437-2.621094-2.441406-4.417968-2.441406h-331.796876c-1.796874 0-3.464843.921875-4.417968 2.441406-.957032 1.519531-1.0625 3.421875-.285156 5.039063zm0 0" fill="#794091"/><path d="m105.773438 407.957031h31.117187l-31.375-65.148437c-.777344-1.617188-.671875-3.519532.285156-5.039063.953125-1.523437 2.621094-2.441406 4.417969-2.441406h-31.117188c-1.796874 0-3.464843.921875-4.417968 2.441406-.957032 1.519531-1.0625 3.421875-.285156 5.039063zm0 0" fill="#62317c"/><path d="m473.523438 451c0 2.75-2.25 5-5 5h-447.042969c-2.75 0-5-2.25-5-5v-39.042969c0-2.75 2.25-5 5-5h447.039062c2.75 0 5 2.25 5 5v39.042969zm0 0" fill="#bf7e52"/><path d="m47.957031 451v-39.042969c0-2.75 2.25-5 5-5h-31.476562c-2.75 0-5 2.25-5 5v39.042969c0 2.75 2.25 5 5 5h31.476562c-2.75 0-5-2.25-5-5zm0 0" fill="#a5683f"/><path d="m195.824219 283c0 11-7.847657 20-17.4375 20-9.589844 0-17.4375-9-17.4375-20v-19.476562c0-11 7.847656-20 17.4375-20 9.589843 0 17.4375 9 17.4375 20zm0 0" fill="#b7092b"/><path d="m181.125 283v-19.476562c0-6.695313 2.914062-12.632813 7.351562-16.269532-2.855468-2.339844-6.332031-3.730468-10.089843-3.730468-9.589844 0-17.4375 9-17.4375 20v19.476562c0 11 7.847656 20 17.4375 20 3.757812 0 7.234375-1.394531 10.089843-3.734375-4.4375-3.632813-7.351562-9.574219-7.351562-16.265625zm0 0" fill="#a00026"/></svg>