<svg height="512pt" viewBox="-11 0 512 512.00092" width="512pt" xmlns="http://www.w3.org/2000/svg"><path d="m490 245c0 135.308594-109.691406 245-245 245s-245-109.691406-245-245 109.691406-245 245-245 245 109.691406 245 245zm0 0" fill="#293d7c"/><path d="m323.855469 487.3125c-6.230469-25.957031-12.464844-51.914062-18.695313-77.871094h-9.789062c-1.980469 4.554688-6.519532 7.753906-11.796875 7.753906-4.753907 0-9.101563-2.609374-11.347657-6.8125l-.4375-.824218-.441406.824218c-2.246094 4.203126-6.59375 6.8125-11.347656 6.8125s-9.105469-2.609374-11.347656-6.8125l-.441406-.824218-.441407.824218c-2.246093 4.203126-6.59375 6.8125-11.347656 6.8125-5.277344 0-9.816406-3.199218-11.796875-7.753906h-15.6875c-1.980469 4.554688-6.519531 7.753906-11.796875 7.753906-4.753906 0-9.101563-2.609374-11.347656-6.8125l-.441407-.828124-.441406.828124c-2.242187 4.203126-6.589844 6.8125-11.34375 6.8125-.535156 0-1.0625-.039062-1.582031-.101562-5.621094 23.402344-11.238281 46.8125-16.859375 70.21875-2.0625 8.183594 6.03125 17.265625 18.210938 19.429688 12.175781 2.179687 22.855468-3.550782 23.75-11.941407-1.085938 8.371094 7.96875 16.429688 20.277343 17.144531 12.304688.734376 22.222657-6.210937 22.128907-14.644531-.097657 8.4375 9.824218 15.378907 22.128906 14.644531 12.304687-.714843 21.359375-8.773437 20.273437-17.144531.898438 8.390625 11.574219 14.121094 23.75 11.941407 12.179688-2.164063 20.273438-11.246094 18.210938-19.429688zm0 0" fill="#794091"/><path d="m338.503906 10.996094c-40.609375 0-77.183594 17.238281-102.835937 44.785156 9.53125 1.019531 18.792969 3.253906 27.65625 6.699219l.148437.058593 53.046875-14.214843c.230469-.0625.472657-.09375.714844-.09375 1.234375 0 2.328125.839843 2.648437 2.039062 4.121094 15.375-2.542968 31.839844-16.203124 40.039063l-.5.300781.371093.449219c12.671875 15.273437 19.371094 33.410156 19.371094 52.445312 0 23.820313-10.769531 46.488282-29.746094 63.066406l.878907.417969c33.984374 16.160157 51.945312 44.578125 51.945312 82.175781 0 .839844-.039062 1.726563-.097656 2.644532 74.15625-3.851563 133.101562-65.195313 133.101562-140.3125 0-77.59375-62.902344-140.5-140.5-140.5zm0 0" fill="#ffe2b8"/><path d="m262.164062 62.042969c22.574219-27.300781 55.269532-45.933594 92.339844-50.136719-5.253906-.59375-10.589844-.910156-16-.910156-40.609375 0-77.183594 17.238281-102.835937 44.785156 9.117187.976562 17.988281 3.070312 26.496093 6.261719zm0 0" fill="#ffd782"/><path d="m422.550781 53.320312c-15.300781-12.472656-35.710937-12.765624-45.589843-.652343-9.875 12.113281-5.476563 32.046875 9.828124 44.523437 15.300782 12.472656 35.710938 12.765625 45.585938.652344 9.878906-12.113281 5.476562-32.046875-9.824219-44.523438zm0 0" fill="#ffc987"/><path d="m453.410156 127.757812c-9.292968-7.574218-21.683594-7.753906-27.679687-.398437-5.996094 7.355469-3.328125 19.460937 5.964843 27.035156 9.289063 7.574219 21.683594 7.75 27.679688.394531 5.996094-7.355468 3.324219-19.457031-5.964844-27.03125zm0 0" fill="#ffc987"/><path d="m394.1875 127.046875c-7.1875-5.859375-16.773438-5.996094-21.410156-.308594-4.636719 5.691407-2.570313 15.050781 4.617187 20.910157 7.183594 5.859374 16.769531 5.996093 21.40625.304687 4.640625-5.6875 2.574219-15.050781-4.613281-20.90625zm0 0" fill="#ffc987"/><path d="m169.449219 487.3125c5.972656-24.875 11.945312-49.75 17.917969-74.628906-.597657-.699219-1.128907-1.464844-1.574219-2.296875l-.441407-.828125-.441406.828125c-2.242187 4.199219-6.589844 6.808593-11.347656 6.808593-.53125 0-1.058594-.035156-1.578125-.101562-5.621094 23.40625-11.242187 46.8125-16.859375 70.222656-2.0625 8.179688 6.03125 17.261719 18.210938 19.429688 4.367187.78125 8.542968.539062 12.144531-.472656-10.949219-2.796876-17.96875-11.277344-16.03125-18.960938zm0 0" fill="#62317c"/><path d="m236.421875 417.195312c-5.277344 0-9.816406-3.199218-11.796875-7.753906h-15.6875c-.542969 1.246094-1.277344 2.382813-2.167969 3.386719-3.226562 27.324219-6.457031 54.648437-9.683593 81.976563-1.085938 8.367187 7.96875 16.425781 20.277343 17.144531 12.304688.730469 22.222657-6.210938 22.125-14.648438 0-26.828125 0-53.65625 0-80.480469-.988281.242188-2.019531.375-3.066406.375zm0 0" fill="#924eb5"/><path d="m323.855469 487.3125c-6.230469-25.957031-12.464844-51.914062-18.695313-77.871094h-9.789062c-1.980469 4.554688-6.519532 7.753906-11.796875 7.753906-4.753907 0-9.101563-2.609374-11.347657-6.8125l-.253906-.476562c0 .5.015625 1.003906.070313 1.511719 3.285156 27.792969 6.566406 55.589843 9.851562 83.382812.894531 8.390625 11.574219 14.121094 23.75 11.941407 12.179688-2.164063 20.273438-11.246094 18.210938-19.429688zm0 0" fill="#924eb5"/><path d="m139.847656 264.644531c0-19.46875 6.824219-38.441406 19.222656-53.414062l.332032-.402344-.414063-.316406c-1.949219-1.492188-3.824219-3.046875-5.621093-4.660157-32.035157 15.054688-53.011719 42.492188-53.011719 83.3125 0 19.945313 16.234375 63.09375 30.25 93.261719h6.613281c.277344-2.402343 1.214844-4.601562 2.628906-6.414062zm0 0" fill="#924eb5"/><path d="m293.992188 205.855469c-1.800782 1.609375-3.671876 3.164062-5.625 4.65625l-.410157.316406.332031.402344c12.394532 14.972656 19.21875 33.945312 19.21875 53.414062v117.78125h7.320313c14.410156-29.078125 32.171875-72.398437 32.171875-93.261719 0-40.816406-20.972656-68.257812-53.007812-83.308593zm0 0" fill="#924eb5"/><path d="m136.867188 381.425781c.386718-2.070312 1.257812-3.964843 2.480468-5.578125v-7.441406c-12.175781-28.324219-23.992187-62.226562-23.992187-79.242188 0-36.488281 16.765625-62.285156 43.207031-78.101562.042969-.046875.082031-.101562.121094-.152344-2.007813-1.539062-3.945313-3.148437-5.8125-4.824218-31.753906 15.101562-52.511719 42.472656-52.511719 83.078124 0 19.726563 15.878906 62.148438 29.785156 92.261719zm0 0" fill="#854ba3"/><path d="m323.425781 143.503906c0-19.761718-7.246093-38.011718-19.488281-52.769531 13.566406-8.140625 20.722656-24.574219 16.429688-40.597656-.464844-1.730469-2.242188-2.761719-3.976563-2.296875l-52.886719 14.171875c-12.199218-4.738281-25.667968-7.371094-39.824218-7.371094-14.160157 0-27.625 2.632813-39.824219 7.371094l-52.886719-14.171875c-1.734375-.460938-3.511719.566406-3.976562 2.296875-4.292969 16.023437 2.863281 32.457031 16.429687 40.597656-12.246094 14.757813-19.488281 33.007813-19.488281 52.769531 0 26.957032 13.476562 51.109375 34.75 67.40625-12.074219 14.589844-19.335938 33.3125-19.335938 53.734375v112.046875c2.316406-3.40625 6.222656-5.648437 10.640625-5.648437 4.753907 0 9.101563 2.609375 11.347657 6.8125l.441406.824219.441406-.824219c2.242188-4.203125 6.589844-6.8125 11.347656-6.8125 4.753906 0 9.101563 2.609375 11.34375 6.8125l.441406.824219.441407-.824219c2.246093-4.203125 6.59375-6.8125 11.347656-6.8125 6.589844 0 12.03125 4.984375 12.769531 11.382812h13.746094c.734375-6.398437 6.175781-11.382812 12.765625-11.382812 4.753906 0 9.105469 2.609375 11.347656 6.8125l.441407.824219.441406-.824219c2.242187-4.203125 6.59375-6.8125 11.347656-6.8125s9.101562 2.609375 11.347656 6.8125l.441406.824219.441407-.824219c2.242187-4.203125 6.589843-6.8125 11.347656-6.8125 6.589844 0 12.027344 4.984375 12.765625 11.382812h11.667969v-117.78125c0-20.421875-7.261719-39.144531-19.335938-53.734375 21.273438-16.296875 34.75-40.449218 34.75-67.40625zm0 0" fill="#794091"/><path d="m262.714844 93.628906c-14.355469 0-27.609375 7.207032-35.449219 19.277344-.789063 1.214844-2.140625 1.949219-3.585937 1.949219-1.449219 0-2.800782-.734375-3.589844-1.949219-7.839844-12.070312-21.089844-19.277344-35.449219-19.277344-23.292969 0-42.242187 18.949219-42.242187 42.246094 0 23.292969 18.949218 42.242188 42.242187 42.242188h22.453125c-.976562-3.054688-1.527344-6.085938-1.527344-8.71875 0-9.988282 8.125-18.113282 18.113282-18.113282 9.984374 0 18.109374 8.125 18.109374 18.113282 0 2.632812-.546874 5.664062-1.523437 8.71875h22.449219c23.292968 0 42.242187-18.949219 42.242187-42.242188s-18.949219-42.246094-42.242187-42.246094zm0 0" fill="#924eb5"/><path d="m262.828125 160.359375c-10.011719 0-19.339844-5.382813-24.339844-14.042969-1.523437-2.636718-2.601562-5.484375-3.207031-8.46875-.441406-2.191406.5625-4.417968 2.5-5.539062l37.570312-21.691406c.808594-.464844 1.707032-.695313 2.601563-.695313 1.238281 0 2.46875.441406 3.441406 1.300781 2.28125 2.015625 4.210938 4.375 5.734375 7.011719 3.75 6.496094 4.746094 14.0625 2.804688 21.308594-1.941406 7.246093-6.589844 13.300781-13.085938 17.050781-4.265625 2.464844-9.113281 3.765625-14.019531 3.765625zm0 0" fill="#ffaf10"/><path d="m283.226562 149.953125c-4.265624 2.460937-9.113281 3.765625-14.015624 3.765625-10.015626 0-19.34375-5.382812-24.34375-14.042969-1.519532-2.636719-2.597657-5.484375-3.203126-8.46875-.074218-.363281-.09375-.726562-.089843-1.085937l-3.792969 2.1875c-1.9375 1.121094-2.941406 3.347656-2.5 5.539062.605469 2.984375 1.683594 5.832032 3.207031 8.46875 5 8.660156 14.328125 14.042969 24.339844 14.042969 4.90625 0 9.753906-1.300781 14.019531-3.765625 3.710938-2.144531 6.816406-5.039062 9.160156-8.480469-.886718.660157-1.808593 1.28125-2.78125 1.839844zm0 0" fill="#ef9614"/><path d="m242.789062 169.398438c0 10.554687-8.554687 27.605468-19.109374 27.605468-10.554688 0-19.113282-17.050781-19.113282-27.605468 0-10.554688 8.558594-19.113282 19.113282-19.113282 10.554687 0 19.109374 8.558594 19.109374 19.113282zm0 0" fill="#ffaf10"/><path d="m214.777344 169.398438c0-8.785157 5.933594-16.164063 14.007812-18.402344-1.628906-.449219-3.335937-.707032-5.105468-.707032-10.554688 0-19.113282 8.554688-19.113282 19.109376 0 10.554687 8.558594 27.605468 19.113282 27.605468 1.769531 0 3.480468-.488281 5.105468-1.332031-8.074218-4.210937-14.007812-17.488281-14.007812-26.273437zm0 0" fill="#ef9614"/><path d="m265.632812 116.230469-18.269531 10.546875c-.265625 1.097656-.417969 2.234375-.417969 3.410156 0 8.042969 6.519532 14.5625 14.5625 14.5625 8.039063 0 14.558594-6.519531 14.558594-14.5625.003906-6.605469-4.402344-12.179688-10.433594-13.957031zm0 0" fill="#2e4c89"/><path d="m267.5625 138.519531c-8.042969 0-14.5625-6.519531-14.5625-14.558593 0-.152344.011719-.296876.015625-.445313l-5.652344 3.261719c-.265625 1.097656-.417969 2.234375-.417969 3.410156 0 8.042969 6.519532 14.5625 14.5625 14.5625 5.667969 0 10.570313-3.246094 12.976563-7.976562-2.0625 1.113281-4.417969 1.746093-6.921875 1.746093zm0 0" fill="#293d7c"/><path d="m184.527344 160.359375c10.015625 0 19.339844-5.382813 24.34375-14.042969 1.519531-2.636718 2.597656-5.484375 3.203125-8.46875.441406-2.191406-.5625-4.417968-2.496094-5.539062l-37.574219-21.691406c-.808594-.464844-1.707031-.695313-2.597656-.695313-1.242188 0-2.472656.441406-3.445312 1.300781-2.28125 2.015625-4.210938 4.375-5.730469 7.011719-3.753907 6.496094-4.746094 14.0625-2.808594 21.308594 1.945313 7.246093 6.589844 13.300781 13.085937 17.050781 4.269532 2.464844 9.117188 3.765625 14.019532 3.765625zm0 0" fill="#ffaf10"/><path d="m181.054688 156.59375c-6.496094-3.75-11.144532-9.808594-13.085938-17.050781-1.941406-7.246094-.945312-14.816407 2.808594-21.3125 1.21875-2.113281 2.714844-4.039063 4.429687-5.761719l-3.203125-1.851562c-.808594-.46875-1.707031-.695313-2.597656-.695313-1.238281 0-2.46875.441406-3.445312 1.300781-2.28125 2.015625-4.210938 4.375-5.730469 7.007813-3.75 6.496093-4.746094 14.066406-2.804688 21.3125 1.941407 7.246093 6.585938 13.300781 13.082031 17.050781 4.269532 2.464844 9.117188 3.765625 14.019532 3.765625h.003906c1.785156 0 3.546875-.179687 5.269531-.507813-3.058593-.589843-6.023437-1.683593-8.746093-3.257812zm0 0" fill="#ef9614"/><path d="m181.722656 116.230469 18.269532 10.546875c.265624 1.097656.417968 2.234375.417968 3.410156 0 8.042969-6.515625 14.5625-14.558594 14.5625-8.042968 0-14.5625-6.519531-14.5625-14.5625 0-6.605469 4.402344-12.179688 10.433594-13.957031zm0 0" fill="#2e4c89"/><path d="m181.878906 130.1875c0-4.382812 1.945313-8.304688 5.015625-10.972656l-5.171875-2.984375c-6.027344 1.777343-10.433594 7.351562-10.433594 13.957031 0 8.042969 6.519532 14.5625 14.5625 14.5625 1.871094 0 3.652344-.363281 5.292969-1.007812-5.421875-2.121094-9.265625-7.382813-9.265625-13.554688zm0 0" fill="#293d7c"/><g fill="#924eb5"><path d="m165.917969 267.3125c-6.132813 0-11.121094-4.992188-11.121094-11.125v-9.269531c0-1.023438.828125-1.855469 1.851563-1.855469h18.542968c1.019532 0 1.851563.832031 1.851563 1.855469v9.269531c0 6.132812-4.992188 11.125-11.125 11.125zm0 0"/><path d="m204.425781 267.3125c-6.132812 0-11.125-4.992188-11.125-11.125v-9.269531c0-1.023438.832031-1.855469 1.855469-1.855469h18.539062c1.023438 0 1.855469.832031 1.855469 1.855469v9.269531c0 6.132812-4.992187 11.125-11.125 11.125zm0 0"/><path d="m242.929688 267.3125c-6.132813 0-11.121094-4.992188-11.121094-11.125v-9.269531c0-1.023438.828125-1.855469 1.851562-1.855469h18.542969c1.023437 0 1.851563.832031 1.851563 1.855469v9.269531c0 6.132812-4.988282 11.125-11.125 11.125zm0 0"/><path d="m281.4375 267.3125c-6.132812 0-11.121094-4.992188-11.121094-11.125v-9.269531c0-1.023438.828125-1.855469 1.851563-1.855469h18.542969c1.019531 0 1.851562.832031 1.851562 1.855469v9.269531c0 6.132812-4.992188 11.125-11.125 11.125zm0 0"/><path d="m184.316406 305.816406c-6.132812 0-11.125-4.988281-11.125-11.125v-9.269531c0-1.023437.832032-1.851563 1.855469-1.851563h18.539063c1.023437 0 1.855468.828126 1.855468 1.851563v9.269531c0 6.136719-4.992187 11.125-11.125 11.125zm0 0"/><path d="m223.679688 305.816406c-6.136719 0-11.125-4.988281-11.125-11.125v-9.269531c0-1.023437.832031-1.851563 1.855468-1.851563h18.539063c1.023437 0 1.855469.828126 1.855469 1.851563v9.269531c-.003907 6.136719-4.992188 11.125-11.125 11.125zm0 0"/><path d="m263.039062 305.816406c-6.132812 0-11.125-4.988281-11.125-11.125v-9.269531c0-1.023437.832032-1.851563 1.855469-1.851563h18.539063c1.023437 0 1.855468.828126 1.855468 1.851563v9.269531c0 6.136719-4.988281 11.125-11.125 11.125zm0 0"/></g><path d="m81.753906 192c-1.863281 0-3.480468-1.289062-3.890625-3.109375-3.21875-14.230469-5.015625-16.03125-19.246093-19.246094-1.824219-.414062-3.109376-2.027343-3.109376-3.890625 0-1.867187 1.289063-3.480468 3.109376-3.890625 14.230468-3.214843 16.027343-5.015625 19.242187-19.25.410156-1.816406 2.03125-3.109375 3.890625-3.105469 1.867188-.003906 3.480469 1.292969 3.890625 3.109376 3.21875 14.230468 5.015625 16.03125 19.25 19.246093 1.816406.410157 3.105469 2.023438 3.109375 3.890625-.003906 1.863282-1.292969 3.480469-3.113281 3.890625-14.230469 3.214844-16.027344 5.015625-19.246094 19.246094-.40625 1.820313-2.023437 3.109375-3.886719 3.109375zm0 0" fill="#ffd00d"/><path d="m442.753906 310.492188c-.941406 0-1.757812-.652344-1.964844-1.570313-1.625-7.183594-2.53125-8.089844-9.714843-9.710937-.917969-.210938-1.566407-1.023438-1.566407-1.964844s.648438-1.757813 1.566407-1.960938c7.183593-1.625 8.089843-2.53125 9.714843-9.714844.207032-.917968 1.023438-1.570312 1.964844-1.570312s1.753906.652344 1.960938 1.570312c1.625 7.183594 2.53125 8.089844 9.714844 9.710938.917968.210938 1.570312 1.023438 1.570312 1.964844s-.652344 1.757812-1.570312 1.964844c-7.183594 1.621093-8.089844 2.53125-9.714844 9.710937-.207032.917969-1.019532 1.570313-1.960938 1.570313zm0 0" fill="#fff"/><path d="m58.753906 234c-.941406 0-1.757812-.652344-1.964844-1.570312-1.625-7.183594-2.53125-8.089844-9.714843-9.710938-.917969-.210938-1.566407-1.023438-1.566407-1.964844s.648438-1.757812 1.566407-1.960937c7.183593-1.625 8.089843-2.53125 9.714843-9.714844.207032-.917969 1.023438-1.570313 1.964844-1.570313s1.753906.652344 1.960938 1.570313c1.625 7.183594 2.53125 8.089844 9.714844 9.710937.917968.210938 1.570312 1.023438 1.570312 1.96875 0 .9375-.652344 1.753907-1.570312 1.960938-7.183594 1.621094-8.089844 2.53125-9.714844 9.710938-.207032.917968-1.019532 1.570312-1.960938 1.570312zm0 0" fill="#fff"/><path d="m398.753906 358c-1.582031 0-2.949218-1.09375-3.296875-2.636719-2.730469-12.0625-4.253906-13.585937-16.316406-16.3125-1.542969-.347656-2.636719-1.714843-2.636719-3.296875 0-1.578125 1.09375-2.949218 2.636719-3.296875 12.0625-2.726562 13.585937-4.25 16.3125-16.3125.351563-1.539062 1.71875-2.636719 3.300781-2.632812 1.578125-.003907 2.945313 1.09375 3.292969 2.632812 2.730469 12.066407 4.253906 13.585938 16.316406 16.3125 1.539063.351563 2.632813 1.714844 2.636719 3.300781-.003906 1.578126-1.097656 2.945313-2.636719 3.296876-12.066406 2.722656-13.589843 4.25-16.316406 16.308593-.34375 1.542969-1.714844 2.636719-3.292969 2.636719zm0 0" fill="#ffd00d"/><path d="m184.226562 210.347656c-.152343-1.351562-.847656-2.582031-1.925781-3.40625-15.257812-11.6875-25.742187-27.210937-30.269531-44.246094-6.015625-7.300781-9.632812-16.644531-9.632812-26.820312 0-15.75 8.671874-29.503906 21.480468-36.765625 1.246094-1.761719 2.5625-3.492187 3.964844-5.179687.929688-1.121094 1.324219-2.59375 1.082031-4.035157-.246093-1.433593-1.105469-2.695312-2.355469-3.445312-11.351562-6.8125-17.167968-20.144531-14.636718-32.988281l-20.964844-5.621094c-1.734375-.460938-3.515625.566406-3.980469 2.296875-4.292969 16.023437 2.867188 32.457031 16.429688 40.597656-12.242188 14.757813-19.484375 33.007813-19.484375 52.769531 0 26.957032 13.476562 51.109375 34.75 67.40625-12.078125 14.589844-19.335938 33.3125-19.335938 53.734375v112.046875c2.316406-3.40625 6.21875-5.648437 10.640625-5.648437 4.753907 0 9.101563 2.609375 11.347657 6.8125l.441406.824219.4375-.824219c.710937-1.328125 1.632812-2.496094 2.707031-3.476563v-107.117187c-5.667969-.507813-10.128906-5.277344-10.128906-11.074219v-9.273438c0-1.019531.832031-1.851562 1.855469-1.851562h10.75c2.878906-11.289062 8.210937-21.902344 15.710937-30.964844.867187-1.046875 1.273437-2.402344 1.117187-3.75zm0 0" fill="#62317c"/><path d="m223.808594 381.425781h-14.054688c.160156.800781.246094 1.628907.246094 2.476563v20.433594c0 2.210937-.558594 4.289062-1.542969 6.105468h16.652344c-.984375-1.816406-1.546875-3.898437-1.546875-6.105468v-20.433594c0-.847656.085938-1.675782.246094-2.476563zm0 0" fill="#a5683f"/><path d="m296.191406 381.425781c.15625.800781.242188 1.628907.242188 2.476563v20.433594c0 2.210937-.558594 4.289062-1.542969 6.105468h130.804687c8.3125-9.074218 15.949219-18.769531 22.832032-29.015625zm0 0" fill="#a5683f"/><path d="m137.128906 404.335938v-20.433594c0-.847656.085938-1.675782.242188-2.480469h-127.371094c-5.5 0-10 4.5-10 10v9.019531c0 5.5 4.5 10 10 10h128.671875c-.984375-1.816406-1.542969-3.898437-1.542969-6.105468zm0 0" fill="#a5683f"/><path d="m31.476562 400.441406v-9.015625c0-5.5 4.5-10 10-10h-31.476562c-5.5 0-10 4.5-10 10v9.015625c0 5.5 4.5 10 10 10h31.476562c-5.5 0-10-4.5-10-10zm0 0" fill="#8e5e3d"/><path d="m197.140625 370.542969c-5.105469 0-9.542969 2.867187-11.789063 7.078125-2.25-4.210938-6.683593-7.078125-11.789062-7.078125s-9.539062 2.867187-11.785156 7.078125c-2.25-4.210938-6.683594-7.078125-11.789063-7.078125-7.378906 0-13.359375 5.980469-13.359375 13.359375v20.433594c0 7.378906 5.980469 13.359374 13.359375 13.359374 5.105469 0 9.539063-2.867187 11.789063-7.074218 2.246094 4.207031 6.679687 7.074218 11.785156 7.074218s9.539062-2.867187 11.789062-7.074218c2.25 4.207031 6.683594 7.074218 11.789063 7.074218 7.375 0 13.359375-5.980468 13.359375-13.359374v-20.433594c0-7.378906-5.980469-13.359375-13.359375-13.359375zm0 0" fill="#ffaf10"/><path d="m147 404.335938v-20.433594c0-5.535156 3.367188-10.285156 8.164062-12.3125-1.589843-.671875-3.339843-1.050782-5.175781-1.050782-7.378906 0-13.359375 5.984376-13.359375 13.363282v20.433594c0 7.375 5.980469 13.359374 13.359375 13.359374 1.835938 0 3.585938-.378906 5.175781-1.050781-4.796874-2.023437-8.164062-6.773437-8.164062-12.308593zm0 0" fill="#ef9614"/><path d="m283.574219 370.542969c-5.105469 0-9.539063 2.867187-11.789063 7.078125-2.25-4.210938-6.683594-7.078125-11.785156-7.078125-5.109375 0-9.542969 2.867187-11.789062 7.078125-2.25-4.210938-6.683594-7.078125-11.789063-7.078125-7.378906 0-13.359375 5.980469-13.359375 13.359375v20.433594c0 7.378906 5.980469 13.359374 13.359375 13.359374 5.105469 0 9.539063-2.867187 11.789063-7.074218 2.246093 4.207031 6.679687 7.074218 11.789062 7.074218 5.101562 0 9.535156-2.867187 11.785156-7.074218 2.25 4.207031 6.683594 7.074218 11.789063 7.074218 7.378906 0 13.359375-5.980468 13.359375-13.359374v-20.433594c0-7.378906-5.980469-13.359375-13.359375-13.359375zm0 0" fill="#ffaf10"/><path d="m233.128906 404.335938v-20.433594c0-5.597656 3.445313-10.382813 8.324219-12.371094-1.554687-.632812-3.25-.988281-5.03125-.988281-7.378906 0-13.359375 5.980469-13.359375 13.359375v20.433594c0 7.378906 5.980469 13.359374 13.359375 13.359374 1.78125 0 3.480469-.355468 5.03125-.988281-4.878906-1.988281-8.324219-6.777343-8.324219-12.371093zm0 0" fill="#ef9614"/></svg>