<svg height="512pt" viewBox="-11 0 512 512" width="512pt" xmlns="http://www.w3.org/2000/svg"><path d="m490 267c0 135.308594-109.691406 245-245 245s-245-109.691406-245-245 109.691406-245 245-245 245 109.691406 245 245zm0 0" fill="#2cb0f2"/><path d="m172.714844 0c-68.101563 0-123.5 55.402344-123.5 123.5v15c0-68.207031 55.292968-123.5 123.5-123.5 68.207031 0 123.5 55.292969 123.5 123.5v-15c0-68.097656-55.402344-123.5-123.5-123.5zm0 0" fill="#a5683f"/><path d="m281.3125 80.875c17.710938-11.855469 29.402344-32.039062 29.402344-54.910156 0-6.726563-1.015625-13.371094-3.011719-19.746094-.734375-2.355469-2.917969-3.957031-5.382813-3.957031-2.46875 0-4.648437 1.601562-5.386718 3.957031-6.457032 20.621094-24.066406 35.15625-45.035156 37.894531 12.015624 10.207031 22.042968 22.683594 29.414062 36.761719zm0 0" fill="#fe3745"/><path d="m64.113281 80.875c7.371094-14.078125 17.398438-26.554688 29.414063-36.761719-20.96875-2.738281-38.578125-17.273437-45.035156-37.894531-.734376-2.355469-2.917969-3.957031-5.386719-3.957031s-4.648438 1.601562-5.386719 3.957031c-1.996094 6.375-3.007812 13.019531-3.007812 19.746094.003906 22.871094 11.691406 43.054687 29.402343 54.910156zm0 0" fill="#fe3745"/><path d="m64.113281 80.875c1.628907-3.113281 3.382813-6.148438 5.265625-9.097656-13.199218-12.082032-21.496094-29.429688-21.496094-48.691406 0-4.792969.519532-9.539063 1.535157-14.175782-.328125-.886718-.640625-1.78125-.925781-2.691406-.734376-2.355469-2.917969-3.957031-5.386719-3.957031s-4.648438 1.601562-5.386719 3.957031c-1.996094 6.375-3.007812 13.019531-3.007812 19.746094.003906 22.871094 11.691406 43.054687 29.402343 54.910156zm0 0" fill="#ea2a3d"/><path d="m172.714844 14c-68.207032 0-123.5 55.292969-123.5 123.5v30c0-68.097656 55.398437-123.5 123.5-123.5 68.097656 0 123.5 55.402344 123.5 123.5v-30c0-68.207031-55.292969-123.5-123.5-123.5zm0 0" fill="#b7092b"/><g fill="#a5683f"><path d="m296.214844 304v-43.351562l-38.195313 48.351562h33.195313c2.757812 0 5-2.238281 5-5zm0 0"/><path d="m49.214844 304c0 2.761719 2.234375 5 5 5h33.191406l-38.191406-48.351562zm0 0"/><path d="m88.507812 249-.773437-1.464844c-7.210937-13.675781-11.019531-29.105468-11.019531-44.617187v-57.910157c0-2.207031 1.792968-4 4-4h80.542968c15.246094 0 29.59375-7.484374 38.375-20.019531.746094-1.066406 1.972657-1.703125 3.273438-1.703125 1.304688 0 2.527344.636719 3.277344 1.703125 8.78125 12.535157 23.125 20.019531 38.371094 20.019531h20.15625c2.203124 0 4 1.792969 4 4v57.90625c0 15.515626-3.8125 30.941407-11.023438 44.617188l-.769531 1.46875h39.292969v-82.5c0-68.097656-55.402344-123.5-123.5-123.5-68.097657 0-123.5 55.402344-123.5 123.5v82.5zm0 0"/></g><path d="m49.214844 260.648438v43.351562c0 2.761719 2.234375 5 5 5h20.785156c-2.761719 0-5-2.238281-5-5v-17.035156zm0 0" fill="#8e5e3d"/><path d="m70 249v-29.011719c-8.152344-.117187-14.785156-6.808593-14.785156-14.988281v-21c0-8.179688 6.632812-14.871094 14.785156-14.988281v-2.511719c0-64.597656 49.855469-117.761719 113.105469-123.058594-3.425781-.289062-6.890625-.441406-10.390625-.441406-68.101563 0-123.5 55.402344-123.5 123.5v82.5zm0 0" fill="#8e5e3d"/><path d="m76.714844 202.917969v-33.917969h-6.5c-8.25 0-15 6.75-15 15v21c0 8.25 6.75 15 15 15h8.023437c-1-5.546875-1.523437-11.253906-1.523437-17.082031zm0 0" fill="#ffe2b8"/><path d="m275.214844 169h-6.503906v33.917969c0 5.828125-.523438 11.535156-1.523438 17.082031h8.027344c8.25 0 15-6.75 15-15v-21c0-8.25-6.75-15-15-15zm0 0" fill="#ffc987"/><path d="m370.214844 398.398438c-3.121094 0-5.664063-2.542969-5.664063-5.667969l-.003906-2.164063c.003906-3.125 2.546875-5.667968 5.671875-5.667968l-.003906-2c-1.507813 0-2.929688-.589844-4.003906-1.664063-1.070313-1.074219-1.664063-2.496094-1.660157-4.003906v-2.164063c0-1.503906.589844-2.925781 1.664063-4 1.070312-1.074218 2.492187-1.664062 3.996094-1.664062l.003906-2c-3.125-.003906-5.664063-2.542969-5.667969-5.667969v-1.382813c-.859375.675782-1.683594 1.414063-2.46875 2.21875l-17.191406 17.675782s-52.765625-56.402344-53.949219-57.285156c-4.023438-3.554688-9.296875-5.71875-15.054688-5.71875h-23.101562l48.296875-61.140626c1.1875-1.503906 1.410156-3.554687.574219-5.28125-.835938-1.722656-2.582032-2.820312-4.5-2.820312h-39.707032c-16.171874 30.269531-48.085937 50.914062-84.734374 50.914062-36.648438 0-68.558594-20.644531-84.730469-50.914062h-39.710938c-1.914062 0-3.664062 1.09375-4.5 2.820312-.835937 1.726563-.609375 3.773438.578125 5.277344l48.296875 61.144532h-23.101562c-12.546875 0-22.8125 10.265624-22.8125 22.8125v70.867187c44.535156 61.25 116.746093 101.078125 198.269531 101.078125 18.449219 0 36.414062-2.054688 53.695312-5.917969v-102.0625l24.789063 26.597657c5.359375 5.75 12.925781 9.09375 20.765625 9.179687h.304688c7.730468 0 15.242187-3.171875 20.65625-8.734375l11.222656-11.539062v-21.125zm0 0" fill="#b7092b"/><path d="m72.574219 350.054688c0-9.820313 7.992187-17.8125 17.8125-17.8125h23.101562c1.914063 0 3.664063-1.09375 4.5-2.820313.835938-1.726563.609375-3.773437-.578125-5.277344l-57.347656-76.144531h-11.792969c-1.914062 0-3.664062 1.09375-4.5 2.820312-.835937 1.726563-.609375 3.773438.578125 5.277344l48.296875 61.144532h-23.101562c-12.546875 0-22.8125 10.265624-22.8125 22.8125v70.867187c7.796875 10.726563 16.445312 20.789063 25.84375 30.101563zm0 0" fill="#a00026"/><path d="m172.714844 298.914062c-12.710938 0-24.851563-2.488281-35.964844-6.996093l33.265625 51.871093c1.484375 2.316407 3.910156 2.316407 5.394531 0l33.265625-51.867187c-11.113281 4.503906-23.253906 6.992187-35.960937 6.992187zm0 0" fill="#ffc987"/><path d="m136.75 291.917969 33.265625 51.871093c1.484375 2.316407 3.910156 2.316407 5.394531 0l7.453125-11.617187-21.777343-33.960937c-8.503907-1.03125-16.664063-3.179688-24.335938-6.292969zm0 0" fill="#efb06c"/><path d="m172.714844 299.914062c-53.488282 0-97-43.511718-97-96.996093v-57.910157c0-2.761718 2.238281-5 5-5h80.542968c14.921876 0 28.960938-7.324218 37.554688-19.59375.9375-1.335937 2.464844-2.128906 4.097656-2.128906 1.628906 0 3.15625.792969 4.09375 2.128906 8.59375 12.269532 22.632813 19.59375 37.554688 19.59375h20.15625c2.757812 0 5 2.238282 5 5v57.910157c-.003906 53.484375-43.515625 96.996093-97 96.996093zm0 0" fill="#ffe2b8"/><path d="m96.003906 202.917969v-57.910157c0-2.761718 2.234375-5 5-5h-20.289062c-2.761719 0-5 2.238282-5 5v57.910157c0 53.484375 43.511718 96.996093 97 96.996093 3.421875 0 6.808594-.179687 10.140625-.527343-48.734375-5.089844-86.851563-46.410157-86.851563-96.46875zm0 0" fill="#ffc987"/><path d="m135.171875 186.746094c0 7.40625-6.003906 13.40625-13.40625 13.40625-7.40625 0-13.410156-6-13.410156-13.40625v-13.410156c0-7.402344 6.003906-13.402344 13.410156-13.402344 7.402344 0 13.40625 6 13.40625 13.402344zm0 0" fill="#293d7c"/><path d="m237.066406 186.746094c0 7.40625-6 13.40625-13.40625 13.40625-7.402344 0-13.40625-6-13.40625-13.40625v-13.410156c0-7.402344 6.003906-13.402344 13.40625-13.402344 7.40625 0 13.40625 6 13.40625 13.402344zm0 0" fill="#293d7c"/><path d="m172.710938 269.292969c-12.449219 0-24.898438-4.738281-34.378907-14.214844-2.929687-2.929687-2.929687-7.679687 0-10.609375 2.929688-2.929688 7.679688-2.929688 10.605469 0 13.109375 13.109375 34.4375 13.109375 47.546875 0 2.929687-2.929688 7.675781-2.929688 10.605469 0 2.929687 2.929688 2.929687 7.679688 0 10.609375-9.476563 9.476563-21.925782 14.214844-34.378906 14.214844zm0 0" fill="#ff9f60"/><path d="m185.1875 226.5h-17.789062c-5.789063 0-10.5-4.710938-10.5-10.5v-32.070312c0-4.144532 3.359374-7.5 7.5-7.5 4.144531 0 7.5 3.355468 7.5 7.5v27.570312h13.285156c4.144531 0 7.5 3.359375 7.5 7.5s-3.355469 7.5-7.496094 7.5zm0 0" fill="#ff9f60"/><path d="m375.433594 398.398438v76.015624c5.132812-3.234374 10.136718-6.652343 15-10.246093v-65.769531zm0 0" fill="#ef9614"/><path d="m390.433594 338.398438v-100.773438c-2.335938.875-4.859375 1.375-7.5 1.375s-5.160156-.5-7.5-1.375v100.773438zm0 0" fill="#ef9614"/><path d="m430.601562 91.214844v70.785156c0 19.84375-12.234374 36.871094-29.550781 43.96875 2.132813 3.335938 3.382813 7.285156 3.382813 11.53125 0 1.140625-.113282 2.25-.285156 3.34375 24.136718-8.660156 41.453124-31.765625 41.453124-58.84375v-70.785156zm0 0" fill="#a00026"/><path d="m375.601562 75v122.316406c2.292969-.835937 4.753907-1.316406 7.332032-1.316406 2.707031 0 5.285156.523438 7.667968 1.4375v-122.4375zm0 0" fill="#a00026"/><path d="m335.601562 162v-70.785156h-15v70.785156c0 26.949219 17.144532 49.96875 41.101563 58.726562-.160156-1.054687-.265625-2.128906-.265625-3.226562 0-4.292969 1.277344-8.285156 3.453125-11.644531-17.179687-7.160157-29.289063-24.117188-29.289063-43.855469zm0 0" fill="#a00026"/><path d="m368.078125 76c-1.648437 0-2.324219-1.167969-1.5-2.597656l15.023437-26.015625c.824219-1.429688 2.175782-1.429688 3 0l15.019532 26.015625c.824218 1.429687.152344 2.597656-1.5 2.597656zm0 0" fill="#b7092b"/><path d="m312.933594 92.214844c-1.648438 0-2.324219-1.171875-1.5-2.601563l15.023437-26.015625c.824219-1.429687 2.175781-1.429687 3 0l15.019531 26.015625c.824219 1.429688.152344 2.601563-1.5 2.601563zm0 0" fill="#b7092b"/><path d="m422.457031 92.214844c-1.648437 0-2.324219-1.171875-1.5-2.601563l15.023438-26.015625c.824219-1.429687 2.171875-1.429687 3 0l15.019531 26.015625c.824219 1.429688.148438 2.601563-1.5 2.601563zm0 0" fill="#b7092b"/><path d="m405.433594 217.5c0 12.425781-10.070313 22.5-22.5 22.5-12.425782 0-22.5-10.074219-22.5-22.5s10.074218-22.5 22.5-22.5c12.429687 0 22.5 10.074219 22.5 22.5zm0 0" fill="#ea2a3d"/><path d="m374 217.5c0-10.0625 6.605469-18.578125 15.71875-21.457031-2.144531-.675781-4.417969-1.042969-6.785156-1.042969-12.425782 0-22.5 10.074219-22.5 22.5s10.074218 22.5 22.5 22.5c2.363281 0 4.640625-.367188 6.785156-1.042969-9.113281-2.878906-15.71875-11.394531-15.71875-21.457031zm0 0" fill="#b7092b"/><path d="m370.214844 399.398438h26.667968c3.664063 0 6.667969-3 6.667969-6.664063v-48.667969c0-3.667968-3-6.667968-6.667969-6.667968h-26.667968c-3.664063 0-6.664063 3-6.664063 6.667968v2.167969c0 3.664063 3 6.664063 6.667969 6.664063-3.667969 0-6.667969 3-6.667969 6.667968v2.167969c0 3.664063 3 6.664063 6.667969 6.664063-3.667969 0-6.667969 3-6.667969 6.667968v2.164063c0 3.667969 3 6.667969 6.667969 6.667969-3.667969 0-6.667969 3-6.667969 6.667968v2.164063c0 3.667969 3 6.667969 6.664063 6.667969zm0 0" fill="#ffc987"/><path d="m187 379.5c0 7.457031-6.042969 13.5-13.5 13.5s-13.5-6.042969-13.5-13.5 6.042969-13.5 13.5-13.5 13.5 6.042969 13.5 13.5zm0 0" fill="#231f20"/><path d="m187 424.5c0 7.457031-6.042969 13.5-13.5 13.5s-13.5-6.042969-13.5-13.5 6.042969-13.5 13.5-13.5 13.5 6.042969 13.5 13.5zm0 0" fill="#231f20"/></svg>