<svg height="512pt" viewBox="-11 0 512 512" width="512pt" xmlns="http://www.w3.org/2000/svg"><path d="m490 267c0 135.308594-109.691406 245-245 245s-245-109.691406-245-245 109.691406-245 245-245 245 109.691406 245 245zm0 0" fill="#85a0dd"/><path d="m245.773438 314.863281-.773438-.953125-.773438.953125c-6.90625 8.484375-18.132812 13.984375-33.363281 16.347657l-2.878906.449218 2.546875 1.414063c10.507812 5.839843 22.425781 8.925781 34.46875 8.925781s23.960938-3.085938 34.46875-8.925781l2.546875-1.414063-2.878906-.449218c-15.230469-2.363282-26.453125-7.863282-33.363281-16.347657zm0 0" fill="#ffe2b8"/><path d="m380.402344 216h-270.804688c-3.582031 2.746094-5.914062 7.054688-5.914062 11.894531v34.035157c0 8.25 6.75 15 15 15h14.703125c3.078125 14.257812 8.835937 27.53125 16.703125 39.273437l73.746094-28.261719c1.289062 4.445313 5.347656 7.558594 10.070312 7.558594h22.1875c4.722656 0 8.78125-3.113281 10.070312-7.558594l73.746094 28.261719c7.867188-11.742187 13.625-25.015625 16.703125-39.273437h14.703125c8.25 0 15-6.75 15-15v-34.035157c0-4.839843-2.332031-9.148437-5.914062-11.894531zm0 0" fill="#ffe2b8"/><path d="m76 370.632812-30.808594 38.179688c9.113282 12.820312 19.453125 24.703125 30.808594 35.523438zm0 0" fill="#794091"/><path d="m441.277344 390.726562c0 1.933594-.757813 3.757813-2.136719 5.136719-1.378906 1.378907-3.203125 2.136719-5.136719 2.136719h-5.6875v31.519531c13.945313-15.714843 25.902344-33.234375 35.46875-52.167969l-22.507812-33.007812zm0 0" fill="#794091"/><path d="m405.316406 398h-4.410156c-4.007812 0-7.273438-3.265625-7.273438-7.273438v-2.691406c0-4.007812 3.265626-7.273437 7.277344-7.273437v-2c-1.9375 0-3.761718-.757813-5.140625-2.140625-1.378906-1.375-2.136719-3.199219-2.132812-5.132813l-.003907-2.691406c0-1.933594.757813-3.757813 2.136719-5.136719 1.378907-1.378906 3.203125-2.136718 5.136719-2.136718v-2c-3.757812 0-6.855469-2.863282-7.234375-6.523438h-73.140625c-5.257812 8.410156-12.613281 17.871094-22.25 28.675781l-.199219.222657-.042969.292968c-3.695312 23.851563-19.136718 50.636719-32.757812 74.269532-6.144531 10.660156-11.949219 20.726562-16.695312 30.3125-.679688 1.375-2.054688 2.226562-3.585938 2.226562s-2.902344-.851562-3.585938-2.226562c-4.746093-9.585938-10.546874-19.652344-16.691406-30.3125-13.625-23.632813-29.0625-50.417969-32.757812-74.273438l-.046875-.289062-.195313-.222657c-9.640625-10.804687-16.996094-20.265625-22.253906-28.675781h-79.46875c-8.25 0-15 6.75-15 15v75.40625c44.058594 42.464844 103.976562 68.59375 170 68.59375 61.3125 0 117.347656-22.539062 160.316406-59.761719zm0 0" fill="#62317c"/><path d="m95 368c0-8.25 6.75-15 15-15h-20c-8.25 0-15 6.75-15 15v75.40625c6.34375 6.113281 13.027344 11.878906 20 17.285156zm0 0" fill="#4a2363"/><path d="m119.367188 261.929688v-34.035157c0-4.839843 2.332031-9.148437 5.914062-11.894531h-15.683594c-3.582031 2.746094-5.914062 7.054688-5.914062 11.894531v34.035157c0 8.25 6.75 15 15 15h15.683594c-8.25 0-15-6.75-15-15zm0 0" fill="#ffc987"/><path d="m189.609375 276.347656c-7.050781 0-12.785156-5.734375-12.785156-12.785156v-15.78125c0-7.046875 5.734375-12.78125 12.785156-12.78125 7.046875 0 12.78125 5.734375 12.78125 12.78125v15.78125c0 7.050781-5.734375 12.785156-12.78125 12.785156zm0 0" fill="#1a2b63"/><path d="m300.390625 276.347656c-7.046875 0-12.78125-5.734375-12.78125-12.785156v-15.78125c0-7.046875 5.734375-12.78125 12.78125-12.78125 7.050781 0 12.785156 5.734375 12.785156 12.78125v15.78125c0 7.050781-5.734375 12.785156-12.785156 12.785156zm0 0" fill="#1a2b63"/><path d="m161.777344 216c-.175782.636719-.277344 1.308594-.277344 2 0 4.144531 3.359375 7.5 7.5 7.5h37.089844c4.144531 0 7.5-3.355469 7.5-7.5 0-.691406-.101563-1.363281-.277344-2zm0 0" fill="#eef6ff"/><path d="m275.730469 216c-.175781.636719-.277344 1.308594-.277344 2 0 4.144531 3.359375 7.5 7.5 7.5h37.09375c4.140625 0 7.5-3.355469 7.5-7.5 0-.691406-.105469-1.363281-.28125-2zm0 0" fill="#eef6ff"/><path d="m339.183594 216v36.816406c0 32.351563-16.402344 43.476563-41.324219 47.273438l42.050781 16.109375c12.160156-18.144531 19.273438-39.945313 19.273438-63.382813v-36.816406zm0 0" fill="#fff"/><path d="m298.160156 332.574219h-.003906c-6.421875 0-12.34375-.394531-17.773438-1.164063-10.398437 6.09375-22.488281 9.589844-35.382812 9.589844s-24.984375-3.496094-35.382812-9.589844c-5.429688.769532-11.351563 1.164063-17.773438 1.164063-11.910156 0-23.636719-1.339844-33.226562-2.894531 2.523437 15.914062 15.949218 34.269531 32.359374 52.664062 3.71875 24.007812 19 50.539062 32.878907 74.617188 6.136719 10.644531 11.933593 20.699218 16.664062 30.257812.84375 1.703125 2.578125 2.78125 4.480469 2.78125s3.636719-1.078125 4.480469-2.78125c4.730469-9.558594 10.527343-19.613281 16.664062-30.257812 13.878907-24.078126 29.160157-50.609376 32.878907-74.617188 16.410156-18.398438 29.835937-36.75 32.359374-52.664062-9.589843 1.550781-21.316406 2.894531-33.222656 2.894531zm0 0" fill="#fff"/><path d="m211.6875 382.34375c-15.570312-17.453125-28.453125-34.867188-31.886719-50.195312-7.617187-.515626-14.863281-1.445313-21.183593-2.464844 2.519531 15.910156 15.949218 34.265625 32.355468 52.660156 3.722656 24.011719 19.003906 50.542969 32.878906 74.617188 6.136719 10.644531 11.933594 20.703124 16.667969 30.257812.84375 1.703125 2.578125 2.78125 4.480469 2.78125 1.898438 0 3.636719-1.078125 4.480469-2.78125 1.8125-3.664062 3.789062-7.402344 5.875-11.222656-3.355469-6.132813-7.007813-12.472656-10.789063-19.035156-13.878906-24.074219-29.160156-50.609376-32.878906-74.617188zm0 0" fill="#eef6ff"/><path d="m192.140625 300.089844c-24.921875-3.792969-41.324219-14.917969-41.324219-47.269532v-36.820312h-20v36.816406c0 23.4375 7.113282 45.238282 19.273438 63.382813zm0 0" fill="#fff"/><path d="m158.261719 313.070312c-10.921875-17.503906-17.261719-38.144531-17.261719-60.253906v-36.816406h-10.183594v36.816406c0 23.4375 7.113282 45.238282 19.273438 63.382813zm0 0" fill="#eef6ff"/><path d="m354.171875 320.597656-88.722656-34c-.765625 4.480469-4.664063 7.902344-9.355469 7.902344h-22.1875c-4.691406 0-8.589844-3.425781-9.355469-7.902344l-88.722656 34c-1.148437.4375-1.886719 1.566406-1.824219 2.796875.058594 1.226563.902344 2.277344 2.085938 2.601563 1.128906.3125 27.886718 7.578125 55.753906 7.578125 25.53125 0 43.386719-6.078125 53.15625-18.082031 9.769531 12.003906 27.621094 18.082031 53.15625 18.082031 27.867188 0 54.625-7.269531 55.75-7.578125 1.1875-.324219 2.027344-1.375 2.089844-2.601563.0625-1.230469-.675782-2.359375-1.824219-2.796875zm0 0" fill="#eef6ff"/><path d="m256.09375 295.5h-22.1875c-5.789062 0-10.5-4.710938-10.5-10.5v-33c0-4.144531 3.359375-7.5 7.5-7.5 4.144531 0 7.5 3.355469 7.5 7.5v28.5h13.1875v-5.5c0-4.144531 3.359375-7.5 7.5-7.5s7.5 3.355469 7.5 7.5v10c0 5.789062-4.710938 10.5-10.5 10.5zm0 0" fill="#ff9f60"/><path d="m438.445312 206.742188c-3.503906-3.90625-9.753906-8.53125-20.8125-13.292969l-25.671874 12.835937c-1.613282.808594-3.34375 1.214844-5.136719 1.214844-3.703125 0-7.199219-1.792969-9.355469-4.800781l-26.183594-36.53125c-1.359375-1.898438-2.0625-4.117188-2.128906-6.351563l-98.8125-156.328125c-1.402344-2.21875-3.347656-3.488281-5.34375-3.488281s-3.941406 1.269531-5.34375 3.488281l-109.148438 172.679688c-.75 1.183593-1.960937 2-3.339843 2.25-7.832031 1.410156-15.289063 2.972656-22.175781 4.640625-37.328126 9.050781-50.71875 19.214844-55.378907 26.152344-1.035156 1.535156-1.132812 3.507812-.265625 5.140624.871094 1.632813 2.5625 2.648438 4.414063 2.648438h363.382812zm0 0" fill="#62317c"/><path d="m177.023438 152 83.597656-132.253906-10.277344-16.257813c-1.402344-2.21875-3.347656-3.488281-5.34375-3.488281s-3.941406 1.269531-5.34375 3.488281l-109.148438 172.679688 15.277344-24.167969zm0 0" fill="#4a2363"/><path d="m127.167969 178.417969c-7.832031 1.410156-15.289063 2.972656-22.175781 4.640625-37.328126 9.050781-50.71875 19.214844-55.378907 26.152344-1.035156 1.535156-1.132812 3.507812-.265625 5.140624.871094 1.632813 2.5625 2.648438 4.414063 2.648438h31.242187c-1.855468 0-3.542968-1.015625-4.414062-2.648438-.871094-1.632812-.769532-3.605468.261718-5.140624 4.664063-6.9375 18.054688-17.105469 55.382813-26.152344 6.882813-1.667969 14.34375-3.230469 22.171875-4.640625 1.378906-.25 2.589844-1.066407 3.339844-2.25h-31.238282c-.75 1.183593-1.960937 2-3.339843 2.25zm0 0" fill="#4a2363"/><path d="m215.367188 52.675781c.296874.214844.652343.324219 1.003906.324219.273437 0 .546875-.066406.796875-.195312l5.832031-3.066407 5.832031 3.066407c.25.128906.523438.195312.796875.195312.355469 0 .707032-.109375 1.003906-.328125.523438-.382813.789063-1.027344.679688-1.667969l-1.113281-6.496094 4.71875-4.601562c.464843-.453125.632812-1.132812.433593-1.75-.203124-.621094-.738281-1.070312-1.378906-1.164062l-6.523437-.949219-2.917969-5.90625c-.226562-.46875-.65625-.785157-1.148438-.898438l-8.863281 14.019531 1.285157 1.25-1.117188 6.496094c-.109375.640625.152344 1.285156.679688 1.671875zm0 0" fill="#ffd00d"/><g fill="#fff"><path d="m259.800781 44.507812-1.113281 6.496094c-.109375.640625.15625 1.285156.679688 1.671875.296874.214844.652343.324219 1.003906.324219.273437 0 .546875-.066406.796875-.195312l5.832031-3.066407 5.832031 3.066407c.25.128906.523438.195312.796875.195312.351563 0 .707032-.109375 1.003906-.328125.523438-.382813.789063-1.027344.679688-1.667969l-1.113281-6.496094 1.28125-1.25-8.863281-14.023437c-.492188.113281-.921876.433594-1.148438.898437l-2.917969 5.910157-6.523437.949219c-.640625.09375-1.175782.542968-1.378906 1.160156-.199219.621094-.03125 1.300781.433593 1.753906zm0 0"/><path d="m206.195312 120.816406c-.273437 0-.546874-.066406-.796874-.195312l-5.832032-3.066406-5.832031 3.066406c-.25.128906-.523437.195312-.796875.195312-.351562 0-.707031-.109375-1.003906-.328125-.523438-.382812-.789063-1.027343-.679688-1.667969l1.113282-6.496093-4.71875-4.601563c-.464844-.453125-.632813-1.132812-.429688-1.75.199219-.621094.734375-1.070312 1.378906-1.164062l6.519532-.949219 2.917968-5.90625c.285156-.585937.878906-.953125 1.53125-.953125.648438 0 1.246094.367188 1.53125.953125l2.917969 5.90625 6.519531.949219c.644532.09375 1.179688.542968 1.378906 1.164062.199219.617188.03125 1.296875-.433593 1.75l-4.71875 4.601563 1.113281 6.496093c.109375.640626-.152344 1.285157-.679688 1.667969-.292968.21875-.644531.328125-1 .328125zm0 0"/><path d="m88.234375 195.324219-1.113281 6.496093c-.109375.640626.152344 1.285157.679687 1.667969.296875.21875.648438.328125 1.003907.328125.269531 0 .546874-.066406.796874-.195312l5.832032-3.066406 5.832031 3.066406c.25.128906.523437.195312.796875.195312.351562 0 .707031-.109375 1.003906-.328125.523438-.382812.789063-1.027343.679688-1.667969l-1.113282-6.496093 4.71875-4.601563c.464844-.453125.632813-1.132812.429688-1.75-.199219-.621094-.734375-1.070312-1.378906-1.164062l-6.519532-.949219-1.097656-2.226563c-2.738281.726563-5.324218 1.457032-7.777344 2.1875l-.023437.042969-.21875.03125c-2.753906.824219-5.335937 1.652344-7.75 2.480469-.039063.496094.136719.992188.5 1.351562zm0 0"/></g><path d="m163.195312 203.816406c-.273437 0-.546874-.066406-.796874-.195312l-5.832032-3.066406-5.832031 3.066406c-.25.128906-.523437.195312-.796875.195312-.351562 0-.707031-.109375-1.003906-.328125-.523438-.382812-.789063-1.027343-.679688-1.667969l1.113282-6.496093-4.71875-4.601563c-.464844-.453125-.632813-1.132812-.429688-1.75.199219-.621094.734375-1.070312 1.378906-1.164062l6.519532-.949219 2.917968-5.90625c.285156-.585937.878906-.953125 1.53125-.953125.648438 0 1.246094.367188 1.53125.953125l2.917969 5.90625 6.519531.949219c.644532.09375 1.179688.542968 1.378906 1.164062.199219.617188.03125 1.296875-.433593 1.75l-4.71875 4.601563 1.113281 6.496093c.109375.640626-.152344 1.285157-.679688 1.667969-.292968.21875-.644531.328125-1 .328125zm0 0" fill="#ffd00d"/><path d="m224.328125 203.816406c-.269531 0-.542969-.066406-.792969-.195312l-5.835937-3.066406-5.832031 3.066406c-.25.128906-.523438.195312-.792969.195312-.355469 0-.707031-.109375-1.003907-.328125-.527343-.382812-.792968-1.027343-.679687-1.667969l1.113281-6.496093-4.71875-4.601563c-.46875-.453125-.636718-1.132812-.433594-1.75.199219-.621094.734376-1.070312 1.378907-1.164062l6.519531-.949219 2.917969-5.90625c.289062-.585937.882812-.953125 1.53125-.953125.652343 0 1.246093.367188 1.53125.953125l2.917969 5.90625 6.523437.949219c.640625.09375 1.175781.542968 1.378906 1.164062.199219.617188.03125 1.296875-.433593 1.75l-4.71875 4.601563 1.113281 6.496093c.109375.640626-.15625 1.285157-.679688 1.667969-.296875.21875-.648437.328125-1.003906.328125zm0 0" fill="#fff"/><path d="m285.460938 203.816406c-.269532 0-.542969-.066406-.792969-.195312l-5.832031-3.066406-5.835938 3.066406c-.25.128906-.523438.195312-.792969.195312-.355469 0-.707031-.109375-1.003906-.328125-.527344-.382812-.792969-1.027343-.679687-1.667969l1.113281-6.496093-4.71875-4.601563c-.46875-.453125-.636719-1.132812-.433594-1.75.199219-.621094.734375-1.070312 1.378906-1.164062l6.519531-.949219 2.917969-5.90625c.289063-.585937.882813-.953125 1.53125-.953125.648438 0 1.246094.367188 1.53125.953125l2.917969 5.90625 6.519531.949219c.644531.09375 1.179688.542968 1.378907 1.164062.203124.617188.035156 1.296875-.433594 1.75l-4.71875 4.601563 1.117187 6.496093c.109375.640626-.15625 1.285157-.679687 1.667969-.296875.21875-.648438.328125-1.003906.328125zm0 0" fill="#ffd00d"/><path d="m346.597656 203.816406c-.273437 0-.546875-.066406-.796875-.195312l-5.832031-3.066406-5.832031 3.066406c-.25.128906-.527344.195312-.796875.195312-.355469 0-.707032-.109375-1.003906-.328125-.527344-.382812-.789063-1.027343-.679688-1.667969l1.113281-6.496093-4.71875-4.601563c-.464843-.453125-.632812-1.132812-.433593-1.75.203124-.621094.738281-1.070312 1.378906-1.164062l6.523437-.949219 2.917969-5.90625c.285156-.585937.878906-.953125 1.53125-.953125.648438 0 1.246094.367188 1.53125.953125l2.917969 5.90625 6.519531.949219c.644531.09375 1.179688.542968 1.378906 1.164062.203125.617188.035156 1.296875-.433594 1.75l-4.71875 4.601563 1.113282 6.496093c.113281.640626-.152344 1.285157-.679688 1.667969-.292968.21875-.648437.328125-1 .328125zm0 0" fill="#fff"/><path d="m251.628906 93c-.273437 0-.546875-.066406-.796875-.195312l-5.832031-3.066407-5.832031 3.066407c-.25.128906-.523438.195312-.796875.195312-.355469 0-.707032-.109375-1.003906-.328125-.523438-.382813-.789063-1.027344-.679688-1.667969l1.113281-6.496094-4.71875-4.601562c-.464843-.453125-.632812-1.132812-.433593-1.75.203124-.621094.738281-1.070312 1.378906-1.164062l6.523437-.949219 2.917969-5.90625c.285156-.585938.878906-.953125 1.53125-.953125.648438 0 1.242188.367187 1.53125.953125l2.917969 5.90625 6.519531.949219c.644531.09375 1.179688.542968 1.378906 1.164062.203125.617188.035156 1.296875-.433594 1.75l-4.71875 4.601562 1.117188 6.496094c.109375.640625-.15625 1.285156-.679688 1.667969-.296874.21875-.652343.328125-1.003906.328125zm0 0" fill="#fff"/><path d="m297.0625 120.816406c-.273438 0-.546875-.066406-.796875-.195312l-5.832031-3.066406-5.832032 3.066406c-.25.128906-.523437.195312-.796874.195312-.355469 0-.707032-.109375-1.003907-.328125-.527343-.382812-.789062-1.027343-.679687-1.667969l1.113281-6.496093-4.71875-4.601563c-.464844-.453125-.632813-1.132812-.433594-1.75.203125-.621094.738281-1.070312 1.378907-1.164062l6.523437-.949219 2.917969-5.90625c.285156-.585937.878906-.953125 1.53125-.953125.648437 0 1.246094.367188 1.53125.953125l2.917968 5.90625 6.519532.949219c.644531.09375 1.179687.542968 1.378906 1.164062.203125.617188.035156 1.296875-.433594 1.75l-4.71875 4.601563 1.113282 6.496093c.113281.640626-.152344 1.285157-.679688 1.667969-.292969.21875-.648438.328125-1 .328125zm0 0" fill="#ffd00d"/><path d="m351.285156 166.167969c-1.359375-1.898438-2.0625-4.117188-2.128906-6.351563l-4.941406-7.816406h-70.960938c-5.386718 10.105469-16.027344 17-28.253906 17s-22.871094-6.894531-28.253906-17h-70.960938l-15.277344 24.167969h227.945313zm0 0" fill="#924eb5"/><path d="m145.785156 152-15.277344 24.167969h31.492188l15.277344-24.167969zm0 0" fill="#794091"/><path d="m385.0625 411.816406c-.273438 0-.546875-.066406-.796875-.195312l-5.832031-3.066406-5.832032 3.066406c-.25.128906-.523437.195312-.796874.195312-.355469 0-.707032-.109375-1.003907-.328125-.527343-.382812-.789062-1.027343-.679687-1.667969l1.113281-6.496093-4.71875-4.601563c-.464844-.453125-.632813-1.132812-.433594-1.75.203125-.621094.738281-1.070312 1.378907-1.164062l6.523437-.949219 2.917969-5.90625c.285156-.585937.878906-.953125 1.53125-.953125.648437 0 1.246094.367188 1.53125.953125l2.917968 5.90625 6.519532.949219c.644531.09375 1.179687.542968 1.378906 1.164062.203125.617188.035156 1.296875-.433594 1.75l-4.71875 4.601563 1.113282 6.496093c.113281.640626-.152344 1.285157-.679688 1.667969-.292969.21875-.648438.328125-1 .328125zm0 0" fill="#ffd00d"/><path d="m330.195312 406c-.273437 0-.546874-.066406-.796874-.195312l-5.832032-3.066407-5.832031 3.066407c-.25.128906-.523437.195312-.796875.195312-.351562 0-.707031-.109375-1.003906-.324219-.523438-.386719-.789063-1.03125-.679688-1.671875l1.113282-6.496094-4.71875-4.601562c-.464844-.453125-.632813-1.132812-.429688-1.75.199219-.621094.734375-1.070312 1.378906-1.164062l6.519532-.945313 2.917968-5.910156c.285156-.582031.878906-.953125 1.53125-.953125.648438 0 1.246094.371094 1.53125.953125l2.917969 5.910156 6.519531.945313c.644532.09375 1.179688.542968 1.378906 1.164062.203126.617188.035157 1.296875-.429687 1.75l-4.71875 4.601562 1.113281 6.496094c.109375.640625-.15625 1.285156-.679687 1.671875-.296875.214844-.648438.324219-1.003907.324219zm0 0" fill="#ffd00d"/><path d="m355.328125 456.816406c-.269531 0-.542969-.066406-.792969-.195312l-5.835937-3.066406-5.832031 3.066406c-.25.128906-.523438.195312-.792969.195312-.355469 0-.707031-.109375-1.003907-.328125-.527343-.382812-.792968-1.027343-.679687-1.667969l1.113281-6.496093-4.71875-4.601563c-.46875-.453125-.636718-1.132812-.433594-1.75.199219-.621094.734376-1.070312 1.378907-1.164062l6.519531-.949219 2.917969-5.90625c.289062-.585937.882812-.953125 1.53125-.953125.652343 0 1.246093.367188 1.53125.953125l2.917969 5.90625 6.523437.949219c.640625.09375 1.175781.542968 1.378906 1.164062.199219.617188.03125 1.296875-.433593 1.75l-4.71875 4.601563 1.113281 6.496093c.109375.640626-.15625 1.285157-.679688 1.667969-.296875.21875-.648437.328125-1.003906.328125zm0 0" fill="#fff"/><path d="m174.0625 406c-.273438 0-.546875-.066406-.796875-.195312l-5.832031-3.066407-5.832032 3.066407c-.25.128906-.523437.195312-.796874.195312-.355469 0-.707032-.109375-1.003907-.324219-.527343-.386719-.789062-1.03125-.679687-1.671875l1.113281-6.496094-4.71875-4.601562c-.464844-.453125-.632813-1.132812-.433594-1.75.203125-.621094.738281-1.070312 1.378907-1.164062l6.523437-.945313 2.914063-5.910156c.289062-.582031.882812-.953125 1.53125-.953125.652343 0 1.246093.371094 1.535156.953125l2.914062 5.910156 6.523438.945313c.644531.09375 1.175781.542968 1.378906 1.164062.199219.617188.03125 1.296875-.433594 1.75l-4.71875 4.601562 1.113282 6.496094c.109374.640625-.152344 1.285156-.679688 1.671875-.292969.214844-.648438.324219-1 .324219zm0 0" fill="#ffd00d"/><path d="m119.195312 411.816406c-.273437 0-.546874-.066406-.796874-.195312l-5.832032-3.066406-5.832031 3.066406c-.25.128906-.523437.195312-.796875.195312-.351562 0-.707031-.109375-1.003906-.328125-.523438-.382812-.789063-1.027343-.679688-1.667969l1.113282-6.496093-4.71875-4.601563c-.464844-.453125-.632813-1.132812-.429688-1.75.199219-.621094.734375-1.070312 1.378906-1.164062l6.519532-.949219 2.914062-5.90625c.289062-.585937.882812-.953125 1.535156-.953125.648438 0 1.242188.367188 1.53125.953125l2.914063 5.90625 6.523437.949219c.644532.09375 1.179688.542968 1.378906 1.164062.199219.617188.03125 1.296875-.433593 1.75l-4.71875 4.601563 1.113281 6.496093c.109375.640626-.152344 1.285157-.679688 1.667969-.292968.21875-.644531.328125-1 .328125zm0 0" fill="#fff"/><path d="m145.0625 456.816406c-.273438 0-.546875-.066406-.796875-.195312l-5.832031-3.066406-5.832032 3.066406c-.25.128906-.523437.195312-.796874.195312-.355469 0-.707032-.109375-1.003907-.328125-.527343-.382812-.789062-1.027343-.679687-1.667969l1.113281-6.496093-4.71875-4.601563c-.464844-.453125-.632813-1.132812-.433594-1.75.203125-.621094.738281-1.070312 1.378907-1.164062l6.523437-.949219 2.914063-5.90625c.289062-.585937.882812-.953125 1.53125-.953125.652343 0 1.246093.367188 1.535156.953125l2.914062 5.90625 6.523438.949219c.644531.09375 1.175781.542968 1.378906 1.164062.199219.617188.03125 1.296875-.433594 1.75l-4.71875 4.601563 1.113282 6.496093c.109374.640626-.152344 1.285157-.679688 1.667969-.292969.21875-.648438.328125-1 .328125zm0 0" fill="#ffd00d"/><path d="m196.0625 486c-.273438 0-.546875-.066406-.796875-.195312l-5.832031-3.066407-5.832032 3.066407c-.25.128906-.523437.195312-.796874.195312-.355469 0-.707032-.109375-1.003907-.324219-.527343-.386719-.789062-1.03125-.679687-1.671875l1.113281-6.496094-4.71875-4.601562c-.464844-.453125-.632813-1.132812-.433594-1.75.203125-.621094.738281-1.070312 1.378907-1.164062l6.523437-.945313 2.914063-5.910156c.289062-.582031.882812-.953125 1.53125-.953125.652343 0 1.246093.371094 1.535156.953125l2.914062 5.910156 6.523438.945313c.644531.09375 1.175781.542968 1.378906 1.164062.199219.617188.03125 1.296875-.433594 1.75l-4.71875 4.601562 1.113282 6.496094c.109374.640625-.152344 1.285156-.679688 1.671875-.292969.214844-.648438.324219-1 .324219zm0 0" fill="#fff"/><path d="m306.195312 486c-.273437 0-.546874-.066406-.796874-.195312l-5.832032-3.066407-5.832031 3.066407c-.25.128906-.523437.195312-.796875.195312-.351562 0-.707031-.109375-1.003906-.324219-.523438-.386719-.789063-1.03125-.679688-1.671875l1.113282-6.496094-4.71875-4.601562c-.464844-.453125-.632813-1.132812-.429688-1.75.199219-.621094.734375-1.070312 1.378906-1.164062l6.519532-.945313 2.917968-5.910156c.285156-.582031.878906-.953125 1.53125-.953125.648438 0 1.246094.371094 1.53125.953125l2.917969 5.910156 6.519531.945313c.644532.09375 1.179688.542968 1.378906 1.164062.203126.617188.035157 1.296875-.429687 1.75l-4.71875 4.601562 1.113281 6.496094c.109375.640625-.15625 1.285156-.679687 1.671875-.296875.214844-.648438.324219-1.003907.324219zm0 0" fill="#ffd00d"/><path d="m245 170c-18.195312 0-33-14.804688-33-33s14.804688-33 33-33c.265625 0 .527344.015625.789062.035156.152344.011719.304688.019532.453126.027344.449218.015625.832031.328125.9375.761719.105468.4375-.089844.890625-.484376 1.109375-6.8125 3.820312-11.046874 11.039062-11.046874 18.832031 0 11.902344 9.683593 21.585937 21.585937 21.585937 7.792969 0 15.007813-4.234374 18.832031-11.050781.179688-.320312.519532-.511719.871094-.511719.078125 0 .160156.011719.238281.03125.433594.105469.746094.484376.761719.933594.003906.152344.015625.304688.027344.457032.015625.261718.035156.523437.035156.789062 0 18.195312-14.804688 33-33 33zm0 0" fill="#ffd00d"/><path d="m255 160c-18.195312 0-33-14.804688-33-33 0-6.542969 1.921875-12.644531 5.222656-17.777344-9.148437 5.871094-15.222656 16.125-15.222656 27.777344 0 18.195312 14.804688 33 33 33 11.652344 0 21.90625-6.074219 27.777344-15.222656-5.132813 3.300781-11.234375 5.222656-17.777344 5.222656zm0 0" fill="#ffaf10"/><path d="m404.316406 398v55.117188c8.914063-7.636719 17.269532-15.898438 25-24.726563v-30.390625zm0 0" fill="#8e5e3d"/><path d="m482.773438 151.675781-31.179688-39.097656c-2.371094-2.972656-5.96875-4.707031-9.773438-4.707031h-50.007812c-3.804688 0-7.402344 1.734375-9.773438 4.707031l-31.179687 39.097656c-3.484375 4.375-3.644531 10.53125-.386719 15.078125l26.183594 36.527344c3.578125 4.992188 10.253906 6.648438 15.75 3.898438l38-19c3.050781-1.523438 5.34375-4.230469 6.351562-7.484376 1.007813-3.257812.640626-6.785156-1.015624-9.765624l-10-18c-3.351563-6.035157-10.960938-8.210938-16.996094-4.859376-6.035156 3.355469-8.210938 10.964844-4.855469 17l3.660156 6.585938-16.785156 8.394531-14.464844-20.179687 21.53125-27h37.96875l23.671875 29.683594-8.449218 37.015624-39.628907 19.085938c-4.328125 2.085938-7.078125 6.460938-7.078125 11.265625v93.125h25v-85.273437l37.980469-18.289063c3.425781-1.648437 5.914063-4.769531 6.761719-8.480469l11.125-48.753906c.847656-3.707031-.039063-7.601562-2.410156-10.574219zm0 0" fill="#8e5e3d"/><path d="m400.90625 399h33.097656c4.550782 0 8.277344-3.726562 8.273438-8.273438v-60.402343c.003906-4.550781-3.722656-8.273438-8.273438-8.273438h-33.097656c-4.550781 0-8.273438 3.722657-8.273438 8.273438v2.6875c0 4.554687 3.722657 8.273437 8.273438 8.273437-4.550781 0-8.273438 3.726563-8.273438 8.277344v2.691406c0 4.546875 3.726563 8.269532 8.273438 8.269532-4.550781 0-8.273438 3.726562-8.273438 8.273437l.003907 2.6875c-.003907 4.554687 3.71875 8.277344 8.273437 8.277344-4.554687 0-8.277344 3.722656-8.277344 8.273437v2.6875c0 4.550782 3.722657 8.277344 8.273438 8.277344zm0 0" fill="#ffe2b8"/><path d="m408.003906 390.726562-.003906-2.691406c.003906-4.550781 3.722656-8.273437 8.277344-8.273437-4.554688 0-8.277344-3.722657-8.273438-8.273438v-2.6875c-.003906-4.550781 3.722656-8.277343 8.269532-8.273437-4.546876-.003906-8.269532-3.726563-8.273438-8.273438v-2.695312c0-4.546875 3.726562-8.273438 8.273438-8.273438-4.550782 0-8.269532-3.722656-8.269532-8.273437l-.003906-2.6875c.003906-4.550781 3.722656-8.269531 8.269531-8.273438l-15.359375-.003906c-4.550781.003906-8.273437 3.726563-8.277344 8.277344l.003907 2.6875c0 4.550781 3.722656 8.273437 8.269531 8.273437-4.550781 0-8.273438 3.726563-8.273438 8.273438v2.691406c.003907 4.550781 3.726563 8.273438 8.273438 8.273438-4.546875 0-8.273438 3.722656-8.269531 8.273437v2.6875c-.003907 4.554687 3.71875 8.277344 8.273437 8.273437-4.554687.003907-8.273437 3.726563-8.277344 8.277344l.003907 2.6875c0 4.550782 3.722656 8.273438 8.273437 8.273438h15.367188c-4.550782.003906-8.273438-3.722656-8.273438-8.269532zm0 0" fill="#ffc987"/></svg>