<svg height="512pt" viewBox="-11 0 512 512" width="512pt" xmlns="http://www.w3.org/2000/svg"><path d="m490 267c0 135.308594-109.691406 245-245 245s-245-109.691406-245-245 109.691406-245 245-245 245 109.691406 245 245zm0 0" fill="#424f59"/><path d="m144.78125 162v16.78125c0 30.460938 13.640625 58.914062 37.429688 78.058594.882812.710937 1.996093 1.101562 3.132812 1.101562.582031 0 1.152344-.097656 1.703125-.296875 1.632813-.59375 2.859375-2.019531 3.199219-3.71875 3.589844-17.917969 19.46875-30.925781 37.753906-30.925781h.769531c-.035156-.328125-.054687-.660156-.054687-1v-33c0-3.585938 2.917968-6.5 6.5-6.5 3.585937 0 6.5 2.914062 6.5 6.5v29.5h17.964844c2.964843 0 5.464843 1.992188 6.246093 4.710938 16.589844 1.703124 30.496094 14.09375 33.828125 30.714843.339844 1.703125 1.5625 3.128907 3.195313 3.71875.550781.199219 1.125.300781 1.703125.300781 1.136718 0 2.25-.394531 3.136718-1.105468 23.789063-19.144532 37.429688-47.59375 37.429688-78.058594v-16.78125zm0 0" fill="#ffe2b8"/><path d="m130.816406 211.816406v-49.816406h-21.316406c-.597656 0-1.160156-.140625-1.671875-.378906-5.058594 2.550781-8.558594 7.785156-8.558594 13.8125v35.097656c0 8.507812 6.960938 15.46875 15.46875 15.46875h16.957031c-.578124-4.648438-.878906-9.378906-.878906-14.183594zm0 0" fill="#ffe2b8"/><path d="m382.171875 161.621094c-.511719.238281-1.074219.378906-1.671875.378906h-21.316406v49.816406c0 4.804688-.300782 9.535156-.878906 14.183594h16.957031c8.507812 0 15.46875-6.960938 15.46875-15.46875v-35.097656c0-6.027344-3.5-11.261719-8.558594-13.8125zm0 0" fill="#ffe2b8"/><path d="m245 363c-11.867188 0-22.363281-5.941406-28.699219-15h-122.300781v68.675781c.925781-.457031 1.964844-.722656 3.066406-.722656h13.933594v-18.953125c0-2.207031 1.792969-4 4-4h260c2.207031 0 4 1.792969 4 4v18.953125h13.933594c1.101562 0 2.140625.265625 3.066406.722656v-68.675781h-122.304688c-6.332031 9.058594-16.828124 15-28.695312 15zm0 0" fill="#fff"/><path d="m94 348v68.675781c.925781-.457031 1.964844-.722656 3.066406-.722656h13.933594v-18.953125c0-1.859375 1.28125-3.410156 3-3.855469v-45.144531zm0 0" fill="#eef6ff"/><path d="m210 328v-7.492188l-.6875-.226562c-.269531-.089844-.535156-.1875-.804688-.28125h-94.507812c-11 0-20 9-20 20v9.441406h123.367188c-4.609376-5.929687-7.367188-13.367187-7.367188-21.441406zm0 0" fill="#333031"/><path d="m376 320h-94.507812c-.273438.09375-.535157.191406-.804688.28125l-.6875.226562v7.492188c0 8.074219-2.757812 15.511719-7.367188 21.441406h123.367188v-9.441406c0-11-9-20-20-20zm0 0" fill="#333031"/><path d="m134 320h-20c-11 0-20 9-20 20v9.441406h20v-9.441406c0-11 9-20 20-20zm0 0" fill="#231f20"/><path d="m111 397c0-2.207031 1.792969-4 4-4h260c2.207031 0 4 1.792969 4 4v7h17v-29.441406h-302v29.441406h17zm0 0" fill="#333031"/><path d="m111 397c0-1.859375 1.28125-3.410156 3-3.855469v-18.585937h-20v29.441406h17zm0 0" fill="#231f20"/><path d="m245 326c-12.574219 0-24.675781-2.050781-36-5.820312v7.820312c0 19.882812 16.117188 36 36 36s36-16.117188 36-36v-7.820312c-11.324219 3.769531-23.425781 5.820312-36 5.820312zm0 0" fill="#ffc987"/><path d="m229 328v-3.128906c-6.882812-.96875-13.566406-2.546875-20-4.691406v7.820312c0 19.882812 16.117188 36 36 36 3.472656 0 6.824219-.503906 10-1.417969-15.015625-4.335937-26-18.171875-26-34.582031zm0 0" fill="#efb06c"/><path d="m114 210.53125v-35.097656c0-5.738282 3.175781-10.765625 7.847656-13.433594h-12.347656c-.597656 0-1.160156-.140625-1.671875-.378906-5.058594 2.550781-8.558594 7.785156-8.558594 13.8125v35.097656c0 8.507812 6.960938 15.46875 15.46875 15.46875h14.730469c-8.507812 0-15.46875-6.960938-15.46875-15.46875zm0 0" fill="#efb06c"/><path d="m344.222656 162v16.78125c0 30.160156-13.507812 58.324219-37.058594 77.277344-.722656.582031-1.609374.882812-2.507812.882812-.460938 0-.921875-.078125-1.363281-.238281-1.316407-.476563-2.285157-1.605469-2.558594-2.976563-3.453125-17.222656-17.96875-30.023437-35.214844-31.570312.417969.859375.660157 1.824219.660157 2.84375 0 3.585938-2.914063 6.5-6.5 6.5h-21.464844c-5.238282 0-9.5-4.261719-9.5-9.5h-.714844c-18.761719 0-35.050781 13.34375-38.734375 31.726562-.273437 1.371094-1.242187 2.5-2.558594 2.976563-.441406.160156-.902343.238281-1.363281.238281-.898438 0-1.785156-.300781-2.507812-.882812-23.550782-18.953125-37.054688-47.121094-37.054688-77.277344v-16.78125h-15.964844v49.816406c0 63.511719 51.671875 115.183594 115.183594 115.183594s115.183594-51.671875 115.183594-115.183594v-49.816406zm0 0" fill="#bf7e52"/><path d="m150.996094 210.585938c-3.417969-10.105469-5.214844-20.820313-5.214844-31.804688v-16.78125h-15.964844v49.816406c0 63.511719 51.671875 115.183594 115.183594 115.183594 22.535156 0 43.574219-6.511719 61.347656-17.738281-12.617187 4.757812-26.273437 7.367187-40.53125 7.367187-60.4375 0-110.148437-46.785156-114.820312-106.042968zm0 0" fill="#a5683f"/><path d="m264.5 272.5h-39c-4.140625 0-7.5-3.355469-7.5-7.5s3.359375-7.5 7.5-7.5h39c4.144531 0 7.5 3.355469 7.5 7.5s-3.355469 7.5-7.5 7.5zm0 0" fill="#ff9f60"/><path d="m369 93.910156v-20.265625h1.441406c-10.074218-42.234375-48.054687-73.644531-93.375-73.644531h-64.132812c-45.320313 0-83.300782 31.410156-93.375 73.644531h.917968v20.269531h-3.511718c-.015625.691407-.027344 21.085938-.027344 21.085938h256.125s-.011719-20.394531-.027344-21.085938h-4.035156zm0 0" fill="#eef6ff"/><path d="m212.933594 0c-45.320313 0-83.300782 31.410156-93.375 73.644531h.917968v20.269531h-3.511718c-.015625.691407-.027344 21.085938-.027344 21.085938h20.9375v-19.003906c0-53.015625 42.980469-95.996094 95.996094-95.996094zm0 0" fill="#d9eafc"/><path d="m259.683594 232.5h-21.46875c-5.789063 0-10.5-4.710938-10.5-10.5v-33c0-4.144531 3.359375-7.5 7.5-7.5 4.144531 0 7.5 3.355469 7.5 7.5v28.5h16.96875c4.140625 0 7.5 3.355469 7.5 7.5s-3.359375 7.5-7.5 7.5zm0 0" fill="#ff9f60"/><path d="m200.808594 203.5625c0 8.722656-7.066406 15.785156-15.78125 15.785156-8.71875 0-15.785156-7.0625-15.785156-15.785156v-15.78125c0-8.71875 7.066406-15.78125 15.785156-15.78125 8.714844 0 15.78125 7.0625 15.78125 15.78125zm0 0" fill="#1a2b63"/><path d="m179.433594 203.5625v-15.78125c0-6.933594 4.476562-12.804688 10.6875-14.925781-1.601563-.546875-3.308594-.855469-5.097656-.855469-8.714844 0-15.78125 7.0625-15.78125 15.78125v15.78125c0 8.71875 7.066406 15.785156 15.78125 15.785156 1.789062 0 3.496093-.3125 5.097656-.859375-6.210938-2.121093-10.6875-7.992187-10.6875-14.925781zm0 0" fill="#11204c"/><path d="m319 203.5625c0 8.722656-7.066406 15.785156-15.78125 15.785156s-15.78125-7.0625-15.78125-15.785156v-15.78125c0-8.71875 7.066406-15.78125 15.78125-15.78125s15.78125 7.0625 15.78125 15.78125zm0 0" fill="#1a2b63"/><path d="m298 203.5625v-15.78125c0-6.863281 4.386719-12.683594 10.5-14.855469-1.652344-.589843-3.425781-.925781-5.28125-.925781-8.714844 0-15.78125 7.0625-15.78125 15.78125v15.78125c0 8.71875 7.066406 15.785156 15.78125 15.785156 1.855469 0 3.628906-.335937 5.28125-.925781-6.113281-2.175781-10.5-7.996094-10.5-14.859375zm0 0" fill="#11204c"/><path d="m385.5 158c0 2.75-2.25 5-5 5h-271c-2.75 0-5-2.25-5-5v-39c0-2.75 2.25-5 5-5h271c2.75 0 5 2.25 5 5zm0 0" fill="#fff"/><path d="m115 158v-39c0-2.75 2.25-5 5-5h-10.5c-2.75 0-5 2.25-5 5v39c0 2.75 2.25 5 5 5h10.5c-2.75 0-5-2.25-5-5zm0 0" fill="#eef6ff"/><g fill="#333031"><path d="m125 114h29.441406v49h-29.441406zm0 0"/><path d="m177.640625 114h29.441406v49h-29.441406zm0 0"/><path d="m230.277344 114h29.445312v49h-29.445312zm0 0"/><path d="m282.917969 114h29.441406v49h-29.441406zm0 0"/><path d="m335.558594 114h29.441406v49h-29.441406zm0 0"/><path d="m116.964844 93.910156h256.070312c-.148437-6.960937-1.039062-13.742187-2.59375-20.265625h-250.882812c-1.554688 6.523438-2.445313 13.304688-2.59375 20.265625zm0 0"/><path d="m127.59375 52h234.8125c-3.804688-7.363281-8.53125-14.167969-14.03125-20.265625h-206.75c-5.5 6.097656-10.226562 12.902344-14.03125 20.265625zm0 0"/><path d="m212.933594 0c-15.40625 0-29.964844 3.636719-42.867188 10.089844h149.871094c-12.90625-6.453125-27.464844-10.089844-42.871094-10.089844zm0 0"/></g><path d="m361.066406 488.046875c-3.839844 0-6.964844-3.128906-6.96875-6.972656l.003906-2.582031c0-3.84375 3.125-6.96875 6.964844-6.96875v-2c-3.84375 0-6.96875-3.125-6.96875-6.96875v-2.589844c.003906-3.839844 3.128906-6.964844 6.96875-6.964844v-2c-1.851562 0-3.597656-.730469-4.917968-2.050781-1.320313-1.316407-2.046876-3.066407-2.046876-4.917969v-2.585938c0-1.855468.722657-3.601562 2.042969-4.921874 1.320313-1.320313 3.066407-2.046876 4.921875-2.046876l.003906-2c-3.839843 0-6.96875-3.128906-6.972656-6.96875l.003906-2.585937c0-3.84375 3.125-6.96875 6.964844-6.972656h18.933594v-18.949219c0-2.75-2.25-5-5-5h-260c-2.75 0-5 2.25-5 5v18.953125h18.933594c3.839844 0 6.964844 3.128906 6.964844 6.96875l.003906 2.589844c-.003906 3.839843-3.128906 6.964843-6.972656 6.96875l.003906 2c1.855468 0 3.601562.726562 4.921875 2.046875 1.320312 1.320312 2.042969 3.066406 2.042969 4.917968v2.589844c0 1.851563-.722657 3.597656-2.046876 4.917969-1.320312 1.320313-3.066406 2.046875-4.917968 2.046875v2c3.839844 0 6.964844 3.125 6.96875 6.96875v2.589844c0 3.839844-3.125 6.964844-6.96875 6.964844v2c3.839844 0 6.964844 3.125 6.964844 6.96875l.003906 2.585937c-.003906 3.84375-3.128906 6.96875-6.96875 6.972656l-18.933594-.003906v18.953125c0 2.75 2.25 5 5 5h260c2.75 0 5-2.25 5-5v-18.953125zm0 0" fill="#ffaf10"/><path d="m130 507v-10c-2.75 0-5-2.25-5-5v-3.953125h-15v18.953125c0 2.75 2.25 5 5 5h20c-2.75 0-5-2.25-5-5zm0 0" fill="#ef9614"/><path d="m128.929688 434.476562c.363281 0 .71875.035157 1.070312.089844v-2.179687c-.351562.054687-.703125.089843-1.070312.089843zm0 0" fill="#ef9614"/><path d="m130 469.433594c-.347656.054687-.703125.089844-1.066406.089844v2c.363281 0 .71875.035156 1.066406.089843zm0 0" fill="#ef9614"/><path d="m128.933594 453c.363281 0 .71875.035156 1.066406.089844v-2.179688c-.351562.054688-.703125.089844-1.066406.089844zm0 0" fill="#ef9614"/><path d="m125 412c0-2.75 2.25-5 5-5v-10c0-2.75 2.25-5 5-5h-20c-2.75 0-5 2.25-5 5v18.953125h15zm0 0" fill="#ef9614"/><path d="m361.066406 488.046875c-3.839844 0-6.964844-3.128906-6.96875-6.972656l.003906-2.582031c0-3.84375 3.125-6.96875 6.964844-6.96875v-2c-3.84375 0-6.96875-3.125-6.96875-6.96875v-2.589844c.003906-3.839844 3.128906-6.964844 6.96875-6.964844v-2c-1.851562 0-3.597656-.730469-4.917968-2.050781-1.320313-1.316407-2.046876-3.066407-2.046876-4.917969v-2.585938c0-1.855468.722657-3.601562 2.042969-4.921874 1.320313-1.320313 3.066407-2.046876 4.921875-2.046876l.003906-2c-3.839843 0-6.96875-3.128906-6.972656-6.96875l.003906-2.585937c0-3.84375 3.125-6.96875 6.964844-6.972656h3.933594v-3.949219c0-2.75-2.25-5-5-5h-230c-2.75 0-5 2.25-5 5v3.953125h3.933594c3.839844 0 6.964844 3.128906 6.964844 6.96875l.003906 2.589844c-.003906 3.839843-3.128906 6.964843-6.972656 6.96875l.003906 2c1.855468 0 3.601562.726562 4.921875 2.046875 1.320312 1.320312 2.042969 3.066406 2.042969 4.917968v2.589844c0 1.851563-.722657 3.597656-2.046876 4.917969-1.320312 1.320313-3.066406 2.046875-4.917968 2.046875v2c3.839844 0 6.964844 3.125 6.96875 6.96875v2.589844c0 3.839844-3.125 6.964844-6.96875 6.964844v2c3.839844 0 6.964844 3.125 6.964844 6.96875l.003906 2.585937c-.003906 3.84375-3.128906 6.96875-6.96875 6.972656h-3.933594v3.949219c0 2.75 2.25 5 5 5h230c2.75 0 5-2.25 5-5v-3.953125zm0 0" fill="#ef8318"/><path d="m150 407h-20c-2.75 0-5 2.25-5 5v3.953125h3.933594c3.839844 0 6.964844 3.128906 6.964844 6.96875l.003906 2.589844c-.003906 3.839843-3.128906 6.964843-6.972656 6.96875l.003906 2c1.855468 0 3.601562.726562 4.921875 2.046875 1.320312 1.320312 2.042969 3.066406 2.042969 4.917968v2.589844c0 1.851563-.722657 3.597656-2.046876 4.917969-1.320312 1.320313-3.066406 2.046875-4.917968 2.046875v2c3.839844 0 6.964844 3.125 6.96875 6.96875v2.589844c0 3.839844-3.125 6.964844-6.96875 6.964844v2c3.839844 0 6.964844 3.125 6.964844 6.96875l.003906 2.585937c-.003906 3.84375-3.128906 6.96875-6.96875 6.972656h-3.933594v3.949219c0 2.75 2.25 5 5 5h20c-2.75 0-5-2.25-5-5v-80c0-2.75 2.25-5 5-5zm0 0" fill="#db722c"/><path d="m128.933594 414.953125h-31.867188c-4.382812 0-7.96875 3.585937-7.96875 7.96875v58.15625c0 4.382813 3.585938 7.96875 7.96875 7.96875h31.867188c4.378906 0 7.964844-3.585937 7.96875-7.972656l-.003906-2.585938c0-4.382812-3.582032-7.964843-7.964844-7.964843 4.382812 0 7.96875-3.589844 7.96875-7.96875v-2.589844c-.003906-4.378906-3.589844-7.964844-7.96875-7.964844 4.378906 0 7.96875-3.585938 7.964844-7.96875v-2.585938c.003906-4.382812-3.582032-7.96875-7.96875-7.96875 4.386718 0 7.96875-3.585937 7.972656-7.96875l-.003906-2.585937c0-4.382813-3.585938-7.96875-7.964844-7.96875zm0 0" fill="#ffc987"/><path d="m113.164062 489.046875c-4.382812 0-7.96875-3.585937-7.96875-7.96875v-58.15625c0-4.382813 3.585938-7.96875 7.96875-7.96875h-16.097656c-4.382812 0-7.96875 3.585937-7.96875 7.96875v58.15625c0 4.382813 3.585938 7.96875 7.96875 7.96875h31.867188.015625zm0 0" fill="#efb06c"/><path d="m361.066406 414.953125h31.867188c4.382812 0 7.96875 3.585937 7.96875 7.96875v58.15625c0 4.382813-3.585938 7.96875-7.96875 7.96875h-31.867188c-4.378906 0-7.964844-3.585937-7.96875-7.972656l.003906-2.585938c0-4.382812 3.582032-7.964843 7.964844-7.964843-4.382812 0-7.96875-3.589844-7.96875-7.96875v-2.589844c.003906-4.378906 3.589844-7.964844 7.96875-7.964844-4.378906 0-7.96875-3.585938-7.964844-7.96875v-2.585938c-.003906-4.382812 3.582032-7.96875 7.96875-7.96875-4.386718 0-7.96875-3.585937-7.972656-7.96875l.003906-2.585937c0-4.382813 3.585938-7.96875 7.964844-7.96875zm0 0" fill="#ffc987"/><path d="m258.84375 486.707031c-11.953125 0-21.675781-9.84375-21.675781-21.941406 0-4.144531 3.359375-7.5 7.5-7.5s7.5 3.355469 7.5 7.5c0 3.828125 2.996093 6.941406 6.675781 6.941406 3.683594 0 6.679688-3.113281 6.679688-6.941406 0-2.601563-1.382813-4.964844-3.609376-6.167969-2.421874-1.308594-3.933593-3.839844-3.933593-6.59375 0-2.757812 1.507812-5.289062 3.929687-6.597656 2.230469-1.207031 3.613282-3.570312 3.613282-6.167969 0-3.828125-2.996094-6.945312-6.679688-6.945312-3.679688 0-6.675781 3.117187-6.675781 6.945312 0 4.140625-3.359375 7.5-7.5 7.5s-7.5-3.359375-7.5-7.5c0-12.101562 9.722656-21.945312 21.675781-21.945312s21.679688 9.84375 21.679688 21.945312c0 4.667969-1.457032 9.105469-4.039063 12.761719 2.582031 3.65625 4.039063 8.09375 4.039063 12.765625-.003907 12.097656-9.726563 21.941406-21.679688 21.941406zm0 0"/><path d="m301.730469 486.707031c-4.140625 0-7.5-3.359375-7.5-7.5v-46.914062h-.230469c-4.144531 0-7.5-3.355469-7.5-7.5 0-4.140625 3.355469-7.5 7.5-7.5h7.730469c4.144531 0 7.5 3.359375 7.5 7.5v54.414062c0 4.140625-3.355469 7.5-7.5 7.5zm0 0"/><path d="m205.339844 486.707031c-13.320313 0-24.160156-10.808593-24.160156-24.089843v-21.234376c0-13.28125 10.839843-24.089843 24.160156-24.089843 13.320312 0 24.160156 10.808593 24.160156 24.089843v21.234376c0 13.28125-10.839844 24.089843-24.160156 24.089843zm0-54.414062c-5.050782 0-9.160156 4.078125-9.160156 9.089843v21.234376c0 5.011718 4.109374 9.089843 9.160156 9.089843 5.050781 0 9.160156-4.078125 9.160156-9.089843v-21.234376c0-5.011718-4.109375-9.089843-9.160156-9.089843zm0 0"/></svg>