<svg height="511pt" viewBox="-10 1 511 511.999" width="511pt" xmlns="http://www.w3.org/2000/svg"><path d="m490.5 267c0 135.308594-109.691406 245-245 245s-245-109.691406-245-245c0-135.3125 109.691406-245 245-245s245 109.6875 245 245zm0 0" fill="#794091"/><path d="m238.410156 72.179688c0-.917969.035156-1.824219.066406-2.734376-22.222656 1.851563-51.070312 13.4375-67.5625 41.523438-.546874.929688-.550781 2.078125-.019531 3.011719.535157.933593 1.527344 1.507812 2.605469 1.507812h79.65625c-9.238281-12.007812-14.746094-27.023437-14.746094-43.308593zm0 0" fill="#ff9518"/><path d="m238.410156 72.179688c0-.917969.035156-1.824219.066406-2.734376-22.222656 1.851563-51.070312 13.4375-67.5625 41.523438-.546874.929688-.550781 2.078125-.019531 3.011719.535157.933593 1.527344 1.507812 2.605469 1.507812h14.277344c12.769531-20.957031 32.488281-32.472656 50.886718-37.507812-.15625-1.917969-.253906-3.847657-.253906-5.800781zm0 0" fill="#ef8318"/><path d="m367.925781 389.371094c-2.953125-13.382813-7.074219-25.894532-12.292969-36.949219-.414062-.867187-1.285156-1.421875-2.25-1.421875-.960937 0-1.835937.554688-2.246093 1.421875-6.199219 13.132813-10.867188 28.304687-13.84375 44.578125h26.664062c1.144531 0 2.25.152344 3.316407.417969.175781-2.699219.386718-5.382813.652343-8.046875zm0 0" fill="#37c47a"/><path d="m95.445312 453.734375c-1.601562-1.699219-2.980468-3.546875-4.160156-5.492187-.429687 2.679687-.890625 5.339843-1.410156 7.957031 7.375 6.070312 15.109375 11.722656 23.164062 16.910156v-36.96875zm0 0" fill="#37c47a"/><path d="m270 397v-33.6875c-4.917969 1.402344-9.921875 2.546875-15 3.40625v30.28125zm0 0" fill="#ff9518"/><path d="m318 397v-58.191406c-4.800781 3.765625-9.808594 7.195312-15 10.277344v47.914062zm0 0" fill="#ff9518"/><path d="m366.730469 413.484375c0-5.742187.207031-11.449219.601562-17.085937-1.085937-.253907-2.210937-.398438-3.375-.398438h-165.289062l-54.371094 54.371094c-9.382813-9.964844-11.664063-24.746094-5.628906-37.109375l-1.605469-1.144531-25.023438 25.023437v35.335937c38.398438 24.992188 84.230469 39.523438 133.460938 39.523438 47.519531 0 91.867188-13.542969 129.425781-36.960938-5.339843-18.835937-8.195312-39.929687-8.195312-61.554687zm0 0" fill="#d9eafc"/><path d="m350.609375 406.972656h-162.914063l-15 15h175.414063v67.550782c5.097656-2.355469 10.097656-4.882813 15-7.570313v-62.480469c0-6.894531-5.609375-12.5-12.5-12.5zm0 0" fill="#c3ddf4"/><path d="m138.667969 413.265625-1.605469-1.148437-9.171875 9.171874v60.664063c4.898437 2.6875 9.902344 5.214844 15 7.570313v-40.765626c-8.179687-9.902343-9.9375-23.78125-4.222656-35.492187zm0 0" fill="#c3ddf4"/><g fill="#02af8e"><path d="m400.132812 432.484375c0-14.84375 1.355469-29.4375 3.925782-43.226563-2.324219-23.179687-7.957032-44.917968-16.425782-62.859374-.414062-.871094-1.285156-1.425782-2.25-1.425782-.960937 0-1.835937.554688-2.246093 1.425782-11.375 24.085937-17.636719 55.015624-17.636719 87.085937 0 21.875 2.917969 43.210937 8.378906 62.210937 9.59375-5.917968 18.757813-12.46875 27.417969-19.609374-.757813-7.738282-1.164063-15.632813-1.164063-23.601563zm0 0"/><path d="m61.417969 396.996094 29.046875-29.050782c-2.976563-16.253906-7.640625-31.40625-13.832032-44.523437-.414062-.867187-1.285156-1.421875-2.25-1.421875-.960937 0-1.835937.554688-2.246093 1.421875-7.292969 15.449219-12.480469 33.714844-15.265625 53.285156 1.820312 6.523438 3.335937 13.308594 4.546875 20.289063zm0 0"/><path d="m89.816406 416.625-1.605468-1.144531-20.285157 20.28125c6.894531 7.257812 14.214844 14.097656 21.945313 20.464843.519531-2.628906.980468-5.296874 1.414062-7.984374-5.742187-9.453126-6.472656-21.363282-1.46875-31.617188zm0 0"/><path d="m89.816406 416.625-1.605468-1.144531-20.285157 20.28125c6.894531 7.257812 14.214844 14.097656 21.945313 20.464843.519531-2.628906.980468-5.296874 1.414062-7.984374-5.742187-9.453126-6.472656-21.363282-1.46875-31.617188zm0 0"/></g><path d="m49.058594 409.203125 13.53125-13.53125c-2.964844-16.53125-7.671875-31.9375-13.957032-45.25-.414062-.867187-1.289062-1.421875-2.25-1.421875-.960937 0-1.835937.554688-2.246093 1.421875-5.179688 10.96875-9.285157 23.367187-12.238281 36.632813 4.6875 8.320312 9.851562 16.332031 15.445312 24.011718.546875-.636718 1.113281-1.261718 1.714844-1.863281zm0 0" fill="#37c47a"/><path d="m186.449219 361.523438-42.164063 42.167968c-13.285156 13.285156-13.285156 34.820313 0 48.105469l83.121094-83.121094c-13.972656-.363281-27.789062-2.78125-40.957031-7.152343zm0 0" fill="#231f20"/><path d="m198.445312 364.910156c-4.046874-.957031-8.050781-2.078125-11.996093-3.386718l-42.164063 42.167968c-13.285156 13.285156-13.285156 34.820313 0 48.105469l6.75-6.75c-6.300781-12.722656-4.164062-28.558594 6.425782-39.152344zm0 0"/><path d="m161.800781 350.625-.253906-.144531-.292969.019531c-2.320312.128906-4.5625.195312-6.667968.195312-.917969 0-1.828126-.035156-2.738282-.054687l-56.414062 56.414063c-13.285156 13.285156-13.285156 34.824218 0 48.105468l93.007812-93.007812c-9.238281-2.914063-18.179687-6.757813-26.640625-11.527344zm0 0" fill="#231f20"/><path d="m166.632812 353.210938c-1.625-.832032-3.238281-1.6875-4.832031-2.585938l-.253906-.144531-.292969.019531c-2.320312.128906-4.5625.195312-6.667968.195312-.917969 0-1.828126-.035156-2.738282-.054687l-56.414062 56.414063c-13.285156 13.285156-13.285156 34.824218 0 48.105468l5.972656-5.972656c-5.515625-12.476562-3.167969-27.582031 7.054688-37.808594zm0 0"/><path d="m114.261719 342.738281-65.203125 65.203125c-13.28125 13.285156-13.28125 34.820313 0 48.105469l105.355468-105.355469c-14.617187-.023437-28.15625-2.742187-40.152343-7.953125zm0 0" fill="#333031"/><path d="m125.976562 346.890625c-4.046874-1.132813-7.957031-2.519531-11.714843-4.152344l-65.203125 65.203125c-13.28125 13.285156-13.28125 34.820313 0 48.105469l6.328125-6.328125c-6.105469-12.664062-3.917969-28.320312 6.585937-38.824219zm0 0" fill="#231f20"/><path d="m340.203125 136.429688c-8.773437 4.199218-18.535156 6.648437-28.832031 6.90625 7.753906 17.648437 10.082031 38.515624 6.515625 61.015624-5.324219 33.5625-23.175781 66.96875-50.273438 94.0625-30.976562 30.976563-71.183593 50.035157-108.625 51.75 54.503907 32.078126 125.804688 24.722657 172.601563-22.074218 52.488281-52.488282 55.355468-135.796875 8.613281-191.660156zm0 0" fill="#333031"/><path d="m309.589844 143.359375c-19.15625 0-36.558594-7.621094-49.367188-19.972656l-169.445312 198.9375c-1.765625 2.070312-1.550782 5.171875.480468 6.980469 16.464844 14.644531 38.363282 22.386718 63.324219 22.390624h.007813c38.957031 0 81.613281-19.398437 114.105468-51.890624 27.097657-27.097657 44.949219-60.503907 50.273438-94.0625 3.664062-23.101563 1.125-44.492188-7.132812-62.4375-.75.023437-1.496094.054687-2.246094.054687zm0 0" fill="#231f20"/><path d="m111.695312 322.324219 161.15625-189.203125c-4.574218-2.765625-8.800781-6.042969-12.628906-9.730469l-169.445312 198.933594c-1.765625 2.070312-1.550782 5.171875.480468 6.980469 16.464844 14.644531 38.363282 22.386718 63.324219 22.390624h.007813c3.503906 0 7.039062-.164062 10.59375-.472656-20.675782-1.855468-38.851563-9.328125-53.007813-21.917968-2.03125-1.808594-2.246093-4.910157-.480469-6.980469zm0 0"/><path d="m381.769531 72.179688c0 39.863281-32.316406 72.179687-72.179687 72.179687-39.867188 0-72.179688-32.316406-72.179688-72.179687 0-39.863282 32.3125-72.179688 72.179688-72.179688 39.863281 0 72.179687 32.316406 72.179687 72.179688zm0 0" fill="#333031"/><path d="m293.910156 84.210938c-13.59375 0-25.78125-8.617188-30.328125-21.441407-.582031-1.640625-.332031-3.464843.671875-4.886719 1.003906-1.421874 2.640625-2.269531 4.378906-2.269531h50.554688c1.742188 0 3.375.847657 4.378906 2.269531 1.007813 1.421876 1.257813 3.246094.675782 4.886719-4.546876 12.824219-16.738282 21.441407-30.332032 21.441407zm0 0" fill="#ffd00d"/><path d="m284.53125 62.769531c-.582031-1.640625-.332031-3.464843.671875-4.886719 1.003906-1.421874 2.640625-2.269531 4.378906-2.269531h-20.949219c-1.738281 0-3.375.847657-4.378906 2.269531-1.003906 1.421876-1.253906 3.246094-.671875 4.886719 4.546875 12.824219 16.734375 21.441407 30.328125 21.441407 3.636719 0 7.160156-.632813 10.476563-1.78125-9.085938-3.144532-16.523438-10.265626-19.855469-19.660157zm0 0" fill="#ffaf10"/><path d="m436.441406 420.503906c11.90625-14.792968 22.136719-31 30.386719-48.328125-2.449219-22.386719-7.980469-43.359375-16.195313-60.753906-.410156-.867187-1.285156-1.421875-2.246093-1.421875-.964844 0-1.835938.554688-2.25 1.421875-8.746094 18.523437-14.453125 41.097656-16.632813 65.121094 3.660156 13.742187 6.015625 28.613281 6.9375 43.960937zm0 0" fill="#02af8e"/><path d="m437.867188 418.726562c-1.523438-27.070312-7.5-52.707031-17.234376-73.328124-.414062-.867188-1.285156-1.421876-2.25-1.421876-.960937 0-1.835937.554688-2.246093 1.421876-11.375 24.085937-17.636719 55.015624-17.636719 87.085937 0 8.390625.441406 16.699219 1.273438 24.832031 14.074218-11.421875 26.859374-24.363281 38.09375-38.589844zm0 0" fill="#37c47a"/><path d="m287 459h-83c-4.140625 0-7.5-3.359375-7.5-7.5 0-4.144531 3.359375-7.5 7.5-7.5h83c4.140625 0 7.5 3.355469 7.5 7.5 0 4.140625-3.359375 7.5-7.5 7.5zm0 0" fill="#c3ddf4"/><path d="m271.753906 487.5h-52.507812c-4.144532 0-7.5-3.359375-7.5-7.5 0-4.144531 3.355468-7.5 7.5-7.5h52.507812c4.144532 0 7.5 3.355469 7.5 7.5 0 4.140625-3.355468 7.5-7.5 7.5zm0 0" fill="#c3ddf4"/></svg>