<svg height="512pt" viewBox="-11 0 512 512.001" width="512pt" xmlns="http://www.w3.org/2000/svg"><path d="m490 267c0 135.308594-109.691406 245-245 245s-245-109.691406-245-245 109.691406-245 245-245 245 109.691406 245 245zm0 0" fill="#ffdd8d"/><path d="m490 267c0 135.308594-109.691406 245-245 245s-245-109.691406-245-245 109.691406-245 245-245 245 109.691406 245 245zm0 0" fill="#ffdd8d"/><path d="m490 267c0 135.308594-109.691406 245-245 245s-245-109.691406-245-245 109.691406-245 245-245 245 109.691406 245 245zm0 0" fill="#ff9518"/><path d="m396.371094 346h8v33.042969h-8zm0 0" fill="#b2762f"/><path d="m294.859375 506.902344c34.191406-7.070313 65.777344-21.265625 93.140625-40.96875v-17.304688h-1.628906c-4.964844 0-9-4.039062-9-9v-3.515625l-29.632813-29.632812c-4.15625-4.15625-4.15625-10.917969 0-15.070313l.824219-.824218c2.003906-2.003907 4.679688-3.109376 7.535156-3.109376 2.855469 0 5.53125 1.105469 7.535156 3.109376l13.734376 13.734374v-58.320312h-64.273438l23.894531 37.964844c.5625.894531.734375 1.941406.484375 2.949218-.25 1.011719-.890625 1.855469-1.804687 2.386719l-31.851563 18.390625c-1.476562.847656-2.285156 2.046875-2.285156 3.363282 0 1.320312.808594 2.515624 2.285156 3.367187l19.84375 11.457031c1.9375 1.117188 2.851563 3.808594 2 5.875zm0 0" fill="#b2762f"/><path d="m176.90625 346h-64.273438v58.320312l13.730469-13.734374c2.003907-2.003907 4.683594-3.105469 7.539063-3.105469 2.855468 0 5.53125 1.101562 7.535156 3.105469l.824219.824218c2.003906 2.003906 3.105469 4.679688 3.105469 7.535156 0 2.855469-1.101563 5.535157-3.105469 7.539063l-29.628907 29.628906v3.515625c0 4.960938-4.039062 9-9 9h-2.632812v16.582032c27.710938 20.164062 59.804688 34.660156 94.589844 41.789062l-31.25-75.242188c-.851563-2.070312.0625-4.761718 2-5.875l19.84375-11.457031c1.472656-.855469 2.285156-2.046875 2.285156-3.367187 0-1.320313-.8125-2.515625-2.285156-3.367188l-31.855469-18.390625c-.914063-.527343-1.554687-1.375-1.804687-2.382812-.25-1.007813-.078126-2.054688.484374-2.949219zm0 0" fill="#b2762f"/><path d="m85.632812 346h8v33.042969h-8zm0 0" fill="#b2762f"/><path d="m337.835938 383.433594-34.261719-54.429688h-13.574219v178.847656c1.957031-.363281 3.910156-.742187 5.851562-1.148437l30.734376-74.566406c1.046874-2.542969-.042969-5.75-2.425782-7.125l-19.84375-11.453125c-2.382812-1.375-2.382812-3.625 0-5l31.851563-18.394532c2.382812-1.375 3.132812-4.402343 1.667969-6.730468zm0 0" fill="#8e5e3d"/><path d="m79.902344 448c7.007812 6.394531 14.382812 12.386719 22.097656 17.941406v-17.941406zm0 0" fill="#8e5e3d"/><path d="m387 448v18.671875c8.082031-5.757813 15.792969-11.996094 23.101562-18.671875zm0 0" fill="#8e5e3d"/><path d="m200 329.003906h-13.574219l-34.261719 54.429688c-1.464843 2.328125-.714843 5.355468 1.667969 6.730468l31.851563 18.390626c2.382812 1.375 2.382812 3.625 0 5l-19.84375 11.457031c-2.378906 1.375-3.472656 4.582031-2.425782 7.125l30.734376 74.5625c1.941406.410156 3.894531.789062 5.851562 1.152343zm0 0" fill="#8e5e3d"/><path d="m199 329.003906v178.667969c14.902344 2.828125 30.273438 4.328125 46 4.328125s31.097656-1.496094 46-4.328125v-178.667969zm0 0" fill="#fff"/><path d="m199 329.003906v48.996094c0 8.25 6.75 15 15 15h62c8.25 0 15-6.75 15-15v-48.996094zm0 0" fill="#37c47a"/><path d="m214 393c-8.25 0-15-6.75-15-15v129.667969c6.578125 1.25 13.25 2.222656 20 2.941406v-117.609375zm0 0" fill="#eef6ff"/><path d="m219 378v-48.996094h-20v48.996094c0 8.25 6.75 15 15 15h20c-8.25 0-15-6.75-15-15zm0 0" fill="#2bb381"/><path d="m153.398438 271.246094c-.847657-.398438-1.65625-.847656-2.453126-1.320313h-18.945312v27.148438h24.847656v-20.398438c0-2.3125-1.355468-4.445312-3.449218-5.429687zm0 0" fill="#7d8193"/><path d="m358 269.925781h-18.945312c-.792969.472657-1.605469.921875-2.453126 1.320313-2.09375.984375-3.445312 3.117187-3.445312 5.429687v20.398438h24.84375zm0 0" fill="#7d8193"/><path d="m375.34375 305c0 2.75-2.25 5-5 5h-8.6875c-2.75 0-5-2.25-5-5v-43c0-2.75 2.25-5 5-5h8.6875c2.75 0 5 2.25 5 5zm0 0" fill="#999cad"/><path d="m133.34375 305c0 2.75-2.25 5-5 5h-8.6875c-2.75 0-5-2.25-5-5v-43c0-2.75 2.25-5 5-5h8.6875c2.75 0 5 2.25 5 5zm0 0" fill="#999cad"/><path d="m136.6875 162.0625h-16.6875c-8.25 0-15 6.75-15 15v37.75c0 8.25 6.75 15 15 15h16.6875zm0 0" fill="#60d882"/><path d="m370 162.0625h-16.6875v67.75h16.6875c8.25 0 15-6.75 15-15v-37.75c0-8.25-6.75-15-15-15zm0 0" fill="#37c47a"/><path d="m136.6875 188.4375h-14.800781c-4.140625 0-7.5 3.359375-7.5 7.5 0 4.144531 3.359375 7.5 7.5 7.5h14.800781zm0 0" fill="#02af8e"/><path d="m368.113281 188.4375h-14.800781v15h14.800781c4.140625 0 7.5-3.355469 7.5-7.5 0-4.140625-3.359375-7.5-7.5-7.5zm0 0" fill="#02af8e"/><path d="m317.675781 115.5625c-.933593.585938-2.007812.890625-3.109375.890625h-.363281c-3.238281 0-5.875-2.632813-5.875-5.875v-19.042969l-38.515625 24.027344c-.933594.585938-2.007812.890625-3.109375.890625h-.363281c-3.238282 0-5.875-2.632813-5.875-5.875v-19.042969l-38.511719 24.027344c-.933594.585938-2.011719.890625-3.109375.890625h-.367188c-3.238281 0-5.875-2.632813-5.875-5.875v-19.042969l-38.515624 24.027344c-.933594.585938-2.007813.890625-3.109376.890625h-.363281c-3.242187 0-5.875-2.632813-5.875-5.875v-19.042969l-29.050781 18.121094v135.34375c0 11.558594 6.785156 22.214844 17.289062 27.148438 1.75.824218 2.871094 2.589843 2.871094 4.527343v23.324219c0 16.542969 13.457032 30 30 30h118.308594c16.542969 0 30-13.457031 30-30v-23.324219c0-1.9375 1.121094-3.703125 2.875-4.527343 10.5-4.933594 17.285156-15.59375 17.285156-27.148438v-152.292969zm0 0" fill="#60d882"/><path d="m141.5 120.867188c0-4.140626 3.359375-7.5 7.5-7.5 3.683594 0 6.738281 2.65625 7.375 6.15625v-21.59375l-20.6875 12.910156v12.09375h5.8125zm0 0" fill="#37c47a"/><path d="m176.53125 300.003906v-23.328125c0-1.9375-1.117188-3.699219-2.871094-4.523437-10.5-4.9375-17.285156-15.59375-17.285156-27.148438v-26.839844c-10.300781-5.945312-17.25-17.066406-17.25-29.785156 0-12.722656 6.949219-23.84375 17.25-29.785156v-17.246094c-.636719 3.496094-3.691406 6.152344-7.375 6.152344-4.140625 0-7.5-3.355469-7.5-7.5v-2.066406h-5.8125v107.070312c0 11.554688 6.785156 22.210938 17.285156 27.148438 1.753906.824218 2.875 2.585937 2.875 4.523437v23.328125c0 16.539063 13.457032 30 30 30h20.6875c-16.542968 0-30.003906-13.460937-30.003906-30zm0 0" fill="#37c47a"/><path d="m135.6875 162.0625v-51.222656l28.046875-17.503906v17.242187c0 3.796875 3.082031 6.875 6.875 6.875h.367187c1.285157 0 2.546876-.359375 3.640626-1.039063l36.984374-23.078124v17.242187c0 3.796875 3.078126 6.875 6.875 6.875h.363282c1.289062 0 2.550781-.359375 3.640625-1.039063l36.984375-23.078124v17.242187c0 3.796875 3.078125 6.875 6.875 6.875h.363281c1.289063 0 2.546875-.359375 3.640625-1.039063l36.984375-23.078124v17.242187c0 3.796875 3.078125 6.875 6.875 6.875h.363281c1.285156 0 2.546875-.359375 3.640625-1.039063l36.105469-22.527343v68.175781h14.4375v-113.9375c0-26.535156-21.585938-48.125-48.125-48.125h-151.25c-26.535156 0-48.125 21.589844-48.125 48.125v113.9375zm0 0" fill="#293d7c"/><path d="m142 48.125c0-26.535156 21.589844-48.125 48.125-48.125h-20.75c-26.535156 0-48.125 21.589844-48.125 48.125v113.9375h14.4375v-51.222656l6.3125-3.941406zm0 0" fill="#1a2b63"/><path d="m267.742188 229.003906c-4.144532 0-7.5 3.355469-7.5 7.5v4.875h-23.609376s0-52.089844 0-53c0-18.957031-15.304687-34.375-34.257812-34.375h-28.875c-18.957031 0-34.375 15.417969-34.375 34.375 0 18.953125 15.421875 34.375 34.375 34.375h28.875c7.132812 0 13.761719-2.1875 19.257812-5.917968v27.042968c0 6.890625 5.609376 12.5 12.5 12.5h28.609376c6.890624 0 12.5-5.609375 12.5-12.5v-7.375c0-4.144531-3.359376-7.5-7.5-7.5zm0 0" fill="#02af8e"/><path d="m223 188.378906c0 11.390625-9.234375 20.625-20.625 20.625h-28.875c-11.390625 0-20.625-9.234375-20.625-20.625 0-11.394531 9.234375-20.625 20.625-20.625h28.875c11.390625 0 20.625 9.230469 20.625 20.625zm0 0" fill="#fff"/><path d="m163 188.378906c0-11.394531 9.234375-20.625 20.625-20.625h-10.125c-11.390625 0-20.625 9.230469-20.625 20.625 0 11.390625 9.234375 20.625 20.625 20.625h10.125c-11.390625 0-20.625-9.234375-20.625-20.625zm0 0" fill="#d9eafc"/><path d="m287.625 222.753906c-18.953125 0-34.375-15.421875-34.375-34.375 0-18.957031 15.421875-34.375 34.375-34.375h28.875c18.957031 0 34.375 15.417969 34.375 34.375 0 18.953125-15.417969 34.375-34.375 34.375zm0 0" fill="#02af8e"/><path d="m337.125 188.378906c0 11.390625-9.234375 20.625-20.625 20.625h-28.875c-11.390625 0-20.625-9.234375-20.625-20.625 0-11.394531 9.234375-20.625 20.625-20.625h28.875c11.390625 0 20.625 9.230469 20.625 20.625zm0 0" fill="#fff"/><path d="m277.875 188.378906c0-11.394531 9.234375-20.625 20.625-20.625h-10.875c-11.390625 0-20.625 9.230469-20.625 20.625 0 11.390625 9.234375 20.625 20.625 20.625h10.875c-11.390625 0-20.625-9.234375-20.625-20.625zm0 0" fill="#d9eafc"/><path d="m290.375 292.128906h-90.75c-4.140625 0-7.5-3.359375-7.5-7.5 0-4.144531 3.359375-7.5 7.5-7.5h90.75c4.144531 0 7.5 3.355469 7.5 7.5 0 4.140625-3.355469 7.5-7.5 7.5zm0 0" fill="#02af8e"/><path d="m198.25 187.6875c0 5.695312-4.617188 10.316406-10.3125 10.316406s-10.3125-4.621094-10.3125-10.316406 4.617188-10.3125 10.3125-10.3125 10.3125 4.617188 10.3125 10.3125zm0 0" fill="#293d7c"/><path d="m312.375 187.6875c0 5.695312-4.617188 10.316406-10.3125 10.316406s-10.3125-4.621094-10.3125-10.316406 4.617188-10.3125 10.3125-10.3125 10.3125 4.617188 10.3125 10.3125zm0 0" fill="#293d7c"/><g fill="#02af8e"><path d="m156.5 122.933594h34v15h-34zm0 0"/><path d="m205.5 122.933594h79v15h-79zm0 0"/><path d="m299.5 122.933594h32v15h-32zm0 0"/><path d="m346.5 122.933594h7.8125v15h-7.8125zm0 0"/><path d="m135.6875 122.933594h5.8125v15h-5.8125zm0 0"/></g><path d="m149 147.5c-4.140625 0-7.5-3.359375-7.5-7.5v-19.132812c0-4.140626 3.359375-7.5 7.5-7.5s7.5 3.359374 7.5 7.5v19.132812c0 4.140625-3.359375 7.5-7.5 7.5zm0 0" fill="#999cad"/><path d="m198 147.5c-4.140625 0-7.5-3.359375-7.5-7.5v-19.132812c0-4.140626 3.359375-7.5 7.5-7.5s7.5 3.359374 7.5 7.5v19.132812c0 4.140625-3.359375 7.5-7.5 7.5zm0 0" fill="#999cad"/><path d="m292 147.5c-4.140625 0-7.5-3.359375-7.5-7.5v-19.132812c0-4.140626 3.359375-7.5 7.5-7.5 4.144531 0 7.5 3.359374 7.5 7.5v19.132812c0 4.140625-3.355469 7.5-7.5 7.5zm0 0" fill="#999cad"/><path d="m339 147.5c-4.140625 0-7.5-3.359375-7.5-7.5v-19.132812c0-4.140626 3.359375-7.5 7.5-7.5 4.144531 0 7.5 3.359374 7.5 7.5v19.132812c0 4.140625-3.355469 7.5-7.5 7.5zm0 0" fill="#999cad"/><path d="m478.371094 331c0-5.5-4.5-10-10-10h-1c-5.5 0-10 4.5-10 10v47.042969h-6v-52.042969c0-5.5-4.5-10-10-10h-1c-5.5 0-10 4.5-10 10v52.042969h-6v-52.042969c0-5.5-4.5-10-10-10h-1c-5.5 0-10 4.5-10 10v52.042969h-6v-47.042969c0-5.5-4.5-10-10-10h-1c-5.5 0-10 4.5-10 10v70.90625l-12.027344-12.027344c-4.535156-4.535156-11.953125-4.535156-16.488281 0l-.824219.824219c-4.53125 4.535156-4.53125 11.953125 0 16.484375l29.339844 29.339844v3.101562c0 5.5 4.5 10 10 10h21.925781c32.128906-28.746094 56.621094-65.839844 70.074219-107.875zm0 0" fill="#60d882"/><path d="m418.667969 439h-21.929688c-5.5 0-10-4.5-10-10v-3.101562l-29.335937-29.335938c-2.691406-2.691406-3.773438-6.394531-3.269532-9.910156-2.304687.390625-4.511718 1.457031-6.277343 3.226562l-.824219.824219c-4.53125 4.535156-4.53125 11.953125 0 16.484375l29.339844 29.339844v3.101562c0 5.5 4.5 10 10 10h21.925781c6.027344-5.394531 11.785156-11.078125 17.25-17.035156-2.253906 2.175781-4.542969 4.316406-6.878906 6.40625zm0 0" fill="#37c47a"/><path d="m142.144531 389.878906c-4.53125-4.535156-11.949219-4.535156-16.484375 0l-12.027344 12.023438v-70.902344c0-5.5-4.5-10-10-10h-1c-5.5 0-10 4.5-10 10v47.042969h-6v-52.042969c0-5.5-4.5-10-10-10h-1c-5.5 0-10 4.5-10 10v52.042969h-6v-52.042969c0-5.5-4.5-10-10-10h-1c-5.5 0-10 4.5-10 10v52.042969h-6v-47.042969c0-5.5-4.5-10-10-10h-1c-5.5 0-10 4.5-10 10v10.753906c13.453126 42.035156 37.945313 79.128906 70.070313 107.875h21.929687c5.5 0 10-4.5 10-10v-3.105468l29.335938-29.335938c4.535156-4.53125 4.535156-11.953125 0-16.484375zm0 0" fill="#60d882"/><path d="m416 427.5c-4.140625 0-7.5-3.359375-7.5-7.5 0-8.414062-6.847656-15.261719-15.261719-15.261719-4.144531 0-7.5-3.359375-7.5-7.5 0-4.144531 3.355469-7.5 7.5-7.5 16.6875 0 30.261719 13.574219 30.261719 30.261719 0 4.140625-3.355469 7.5-7.5 7.5zm0 0" fill="#02af8e"/><path d="m74 427.5c-4.140625 0-7.5-3.359375-7.5-7.5 0-16.6875 13.578125-30.261719 30.265625-30.261719 4.140625 0 7.5 3.355469 7.5 7.5 0 4.140625-3.359375 7.5-7.5 7.5-8.417969 0-15.265625 6.847657-15.265625 15.261719 0 4.140625-3.359375 7.5-7.5 7.5zm0 0" fill="#02af8e"/></svg>