<svg height="512pt" viewBox="-9 0 512 512" width="512pt" xmlns="http://www.w3.org/2000/svg"><path d="m492 267c0 135.308594-109.691406 245-245 245s-245-109.691406-245-245 109.691406-245 245-245 245 109.691406 245 245zm0 0" fill="#a00026"/><path d="m87.550781 453c42.855469 36.773438 98.554688 59 159.449219 59s116.59375-22.226562 159.449219-59zm0 0" fill="#159e97"/><g fill="#ef8318"><path d="m161.5 407.5h33v15h-33zm0 0"/><path d="m253.5 407.5h33v15h-33zm0 0"/><path d="m299.5 407.5h33v15h-33zm0 0"/><path d="m207.5 407.5h33v15h-33zm0 0"/><path d="m88.308594 407.5h14.191406v15h-14.191406zm0 0"/><path d="m115.5 407.5h33v15h-33zm0 0"/><path d="m391.5 407.5h13.191406v15h-13.191406zm0 0"/><path d="m345.5 407.5h33v15h-33zm0 0"/></g><path d="m254.5 254v-123c0-4.144531-3.359375-7.5-7.5-7.5s-7.5 3.355469-7.5 7.5v123zm0 0" fill="#ff9518"/><path d="m300.5 162.09375v-23.09375c0-4.144531-3.359375-7.5-7.5-7.5s-7.5 3.355469-7.5 7.5v17.371094c5.109375 1.597656 10.121094 3.496094 15 5.722656zm0 0" fill="#ff9518"/><path d="m208.5 156.371094v-17.371094c0-4.144531-3.359375-7.5-7.5-7.5s-7.5 3.355469-7.5 7.5v23.09375c4.878906-2.226562 9.890625-4.125 15-5.722656zm0 0" fill="#ff9518"/><path d="m392.5 219.5v-26.25c0-4.144531-3.359375-7.5-7.5-7.5s-7.5 3.355469-7.5 7.5v26.25zm0 0" fill="#ff9518"/><path d="m346.5 197.421875v-34.996094c0-4.144531-3.359375-7.5-7.5-7.5s-7.5 3.355469-7.5 7.5v19.628907c5.417969 4.703124 10.4375 9.839843 15 15.367187zm0 0" fill="#ff9518"/><path d="m162.5 182.054688v-19.628907c0-4.144531-3.359375-7.5-7.5-7.5s-7.5 3.355469-7.5 7.5v34.996094c4.5625-5.527344 9.582031-10.664063 15-15.367187zm0 0" fill="#ff9518"/><path d="m392.5 439.5v-207h-15v207h-31v-219.652344c-4.335938-7.253906-9.367188-13.921875-15-19.9375v239.589844h-31v-263.066406c-4.824219-2.496094-9.835938-4.652344-15-6.449219v269.515625h-31v-106.5h-15v106.5h-31v-269.519531c-5.164062 1.800781-10.175781 3.957031-15 6.453125v263.066406h-31v-239.589844c-5.632812 6.015625-10.667969 12.683594-15 19.9375v219.652344h-31v-207h-15v207h-13.191406v14.128906c.335937.289063.671875.585938 1.011718.871094h315.359376c.003906-.003906.007812-.007812.015624-.011719v-14.988281zm0 0" fill="#ff9518"/><path d="m116.5 219.5v-26.25c0-4.144531-3.359375-7.5-7.5-7.5s-7.5 3.355469-7.5 7.5v26.25zm0 0" fill="#ff9518"/><path d="m361.824219 218.5c-10.523438-19.777344-25.984375-36.527344-44.945313-48.636719-20.859375-13.324219-45.023437-20.363281-69.878906-20.363281-24.859375 0-49.023438 7.039062-69.878906 20.363281-18.960938 12.109375-34.421875 28.859375-44.941406 48.636719h-43.871094v15h48.464844c2.871093 0 5.492187-1.640625 6.746093-4.21875 19.429688-39.960938 59.082031-64.78125 103.480469-64.78125s84.050781 24.820312 103.480469 64.78125c1.257812 2.578125 3.875 4.21875 6.746093 4.21875h47.46875v-15zm0 0" fill="#ef8318"/><path d="m381.644531 0-27.371093.0507812c-.195313 0-.375.0820308-.503907.2109378-.128906.128906-.210937.308593-.210937.507812 0 12.96875-3.601563 25.378907-10.328125 36.082031l-14.929688-7.605468c-.195312-.097656-.429687-.082032-.609375.042968-.027344.019532-.054687.042969-.078125.066407-.125.125-.191406.304687-.167969.488281l.605469 4.773438-8.410156 8.410156-4.980469-.578125c-.179687-.023438-.359375.042969-.484375.167969-.023437.023437-.046875.050781-.066406.082031-.125.175781-.140625.410156-.042969.601562l7.675782 15.0625c-10.71875 6.746094-23.152344 10.363281-36.144532 10.363281-.191406 0-.371094.074219-.507812.207032-.132813.136718-.207032.316406-.207032.507812v27.320313c0 .308593.195313.582031.488282.679687.257812.085938.542968.019532.730468-.171875.023438-.023437.046876-.050781.070313-.078125.359375-.488281.757813-.945312 1.175781-1.367187 4.816406-4.8125 12.652344-4.8125 17.464844 0 .21875.21875.441406.460937.683594.746093.179687.207032.453125.300782.71875.234376.128906-.03125.246094-.097657.335937-.1875.09375-.09375.160157-.214844.191407-.347657.519531-2.257812 1.660156-4.316406 3.296874-5.957031 4.691407-4.6875 12.191407-4.851562 17.074219-.371094.207031.191406.507813.242188.765625.132813.085938-.035157.164063-.089844.226563-.152344.125-.125.203125-.300781.210937-.484375.09375-3.160156 1.375-6.128906 3.605469-8.359375 9.839844-9.839844 39.109375 6.007813 39.109375 6.007813.269531.105468.570312.042968.773438-.160157.203124-.203125.265624-.507812.160156-.773437 0 0-15.523438-29.59375-6.003906-39.113282 2.234374-2.230468 5.203124-3.511718 8.359374-3.605468.1875-.007813.359376-.085938.488282-.210938.0625-.0625.117187-.140625.152344-.230468.109374-.257813.058593-.554688-.132813-.761719-4.480469-4.882813-4.316406-12.382813.371094-17.074219 1.640625-1.640625 3.699219-2.777344 5.957031-3.296875.132812-.03125.25-.097656.34375-.191406s.160156-.207031.191406-.339844c.0625-.261719-.027344-.535156-.234375-.714844-.285156-.242187-.527343-.464843-.746093-.683593-4.816407-4.816407-4.816407-12.648438 0-17.464844.417968-.417969.875-.8125 1.359374-1.175782.027344-.019531.054688-.042968.078126-.066406.191406-.1875.261718-.472656.171874-.730468-.09375-.296876-.367187-.492188-.675781-.492188zm0 0" fill="#231f20"/><path d="m210.851562 102.484375-.039062-20.320313c0-.144531-.0625-.277343-.15625-.375-.097656-.09375-.230469-.152343-.378906-.152343-9.628906 0-18.839844-2.675781-26.789063-7.667969l5.648438-11.085938c.074219-.144531.0625-.316406-.03125-.449218-.015625-.023438-.03125-.042969-.050781-.0625-.09375-.09375-.226563-.140625-.363282-.125l-3.542968.453125-6.242188-6.246094.429688-3.695313c.015624-.136718-.035157-.265624-.128907-.359374-.019531-.015626-.035156-.035157-.058593-.050782-.132813-.089844-.304688-.105468-.449219-.03125l-11.179688 5.699219c-5.011719-7.957031-7.695312-17.1875-7.695312-26.832031 0-.144532-.054688-.277344-.15625-.378906-.097657-.101563-.234375-.15625-.375-.15625h-20.28125c-.230469 0-.433594.148437-.503907.367187-.066406.1875-.015624.398437.125.542969.019532.015625.039063.03125.058594.046875.363282.273437.703125.566406 1.015625.875 3.574219 3.578125 3.574219 9.394531 0 12.96875-.160156.160156-.34375.328125-.554687.507812-.15625.128907-.222656.335938-.171875.53125.023437.097657.070312.183594.136719.25.070312.070313.160156.117188.261718.140625 1.671875.386719 3.203125 1.234375 4.417969 2.449219 3.484375 3.484375 3.605469 9.050781.277344 12.675781-.140625.152344-.179688.375-.097657.566406.027344.066407.0625.121094.113282.171876.09375.09375.222656.148437.359375.152343 2.347656.070313 4.550781 1.023438 6.207031 2.679688 7.304688 7.304687-4.460938 29.035156-4.460938 29.035156-.078124.199219-.03125.425781.117188.574219.152344.152344.378906.199218.574219.117187 0 0 21.972656-11.523437 29.039062-4.453125 1.660157 1.65625 2.609375 3.859375 2.679688 6.203125.003906.140625.0625.269531.15625.359375.046875.050782.101562.089844.167969.113282.191406.082031.414062.042968.566406-.097657 3.625-3.324219 9.191406-3.203125 12.675781.277344 1.21875 1.21875 2.0625 2.746094 2.449219 4.421875.023437.097656.070312.1875.140625.257812.066406.066407.152343.113282.25.140626.195312.046874.398437-.019532.535156-.171876.179687-.214843.34375-.394531.503906-.554687 3.578125-3.578125 9.390625-3.578125 12.964844 0 .3125.308594.605469.648437.875 1.007813.015625.019531.03125.039062.050781.058593.140625.140625.347656.191407.542969.128907.21875-.070313.367187-.277344.367187-.507813zm0 0" fill="#231f20"/><path d="m275.5 329c0 2.75-2.25 5-5 5h-47c-2.75 0-5-2.25-5-5v-71c0-2.75 2.25-5 5-5h47c2.75 0 5 2.25 5 5zm0 0" fill="#ffc987"/><path d="m231.5 329v-71c0-2.75 2.25-5 5-5h-13c-2.75 0-5 2.25-5 5v71c0 2.75 2.25 5 5 5h13c-2.75 0-5-2.25-5-5zm0 0" fill="#efb06c"/><path d="m258 282c0-6.074219-4.925781-11-11-11s-11 4.925781-11 11c0 4.070312 2.214844 7.613281 5.5 9.515625v18.484375c0 2.75 2.25 5 5 5h1c2.75 0 5-2.25 5-5v-18.484375c3.285156-1.902344 5.5-5.445313 5.5-9.515625zm0 0" fill="#231f20"/><path d="m8.597656 197.4375v126.21875c12.3125 52.019531 41.214844 97.613281 80.804688 130.914062v-257.132812zm0 0" fill="#293d7c"/><path d="m8.597656 197.4375v126.21875c4.679688 19.765625 11.757813 38.597656 20.902344 56.1875v-182.40625zm0 0" fill="#1a2b63"/><path d="m21.769531 170.5625h54.460938c10.320312-8.132812 16.914062-20.765625 16.8125-34.921875-.175781-24.324219-20.039063-43.902344-44.363281-43.722656-24.324219.171875-43.898438 20.03125-43.722657 44.359375.101563 13.925781 6.660157 26.285156 16.8125 34.285156zm0 0" fill="#ffc987"/><path d="m21.769531 170.5625h20.550781c-10.15625-7.996094-16.71875-20.355469-16.820312-34.285156-.148438-20.902344 14.285156-38.492188 33.785156-43.144532-3.402344-.816406-6.949218-1.242187-10.601562-1.214843-24.324219.171875-43.902344 20.03125-43.726563 44.359375.101563 13.925781 6.660157 26.285156 16.8125 34.285156zm0 0" fill="#efb06c"/><path d="m98 193.4375c0 2.75-2.25 5-5 5h-88c-2.75 0-5-2.25-5-5v-18.875c0-2.75 2.25-5 5-5h88c2.75 0 5 2.25 5 5zm0 0" fill="#1a2b63"/><path d="m20.5 193.4375v-18.875c0-2.75 2.25-5 5-5h-20.5c-2.75 0-5 2.25-5 5v18.875c0 2.75 2.25 5 5 5h20.5c-2.75 0-5-2.25-5-5zm0 0" fill="#11204c"/><path d="m54.808594 300.9375h-11.617188c-.566406 0-1.140625-.117188-1.691406-.324219v12.324219c0 2.75 2.25 5 5 5h5c2.75 0 5-2.25 5-5v-12.324219c-.550781.207031-1.125.324219-1.691406.324219zm0 0" fill="#231f20"/><path d="m26.992188 256.4375c-.222657.695312-.265626 1.484375-.042969 2.335938l9.980469 38.324218c.691406 2.660156 3.511718 4.839844 6.261718 4.839844h11.617188c2.75 0 5.566406-2.179688 6.257812-4.839844l9.984375-38.324218c.222657-.851563.175781-1.640626-.042969-2.335938zm0 0" fill="#ffaf10"/><path d="m23.6875 257.4375c-2.75 0-3.605469-1.769531-1.90625-3.929688l24.125-30.644531c1.703125-2.160156 4.484375-2.160156 6.1875 0l24.125 30.644531c1.703125 2.160157.84375 3.929688-1.90625 3.929688zm0 0" fill="#231f20"/><path d="m32.1875 253.507812 22.015625-27.960937-2.109375-2.683594c-1.703125-2.160156-4.484375-2.160156-6.1875 0l-24.125 30.644531c-1.703125 2.160157-.84375 3.929688 1.90625 3.929688h10.410156c-2.75 0-3.609375-1.769531-1.910156-3.929688zm0 0"/><path d="m59.5 274.4375c0 5.796875-4.699219 10.5-10.5 10.5s-10.5-4.703125-10.5-10.5c0-5.800781 4.699219-10.5 10.5-10.5s10.5 4.699219 10.5 10.5zm0 0" fill="#fff"/><path d="m403.597656 197.4375v257.976562c39.058594-32.5 67.855469-76.910156 80.804688-127.660156v-130.316406zm0 0" fill="#293d7c"/><path d="m403.597656 197.4375v257.976562c7.34375-6.105468 14.324219-12.640624 20.902344-19.554687v-238.421875zm0 0" fill="#1a2b63"/><path d="m416.769531 170.5625h54.460938c10.320312-8.132812 16.914062-20.765625 16.8125-34.921875-.175781-24.324219-20.039063-43.902344-44.363281-43.722656-24.324219.171875-43.898438 20.03125-43.722657 44.359375.101563 13.925781 6.660157 26.285156 16.8125 34.285156zm0 0" fill="#ffc987"/><path d="m416.769531 170.5625h20.550781c-10.15625-7.996094-16.71875-20.355469-16.820312-34.285156-.148438-20.902344 14.285156-38.492188 33.785156-43.144532-3.402344-.816406-6.949218-1.242187-10.601562-1.214843-24.324219.171875-43.902344 20.03125-43.726563 44.359375.101563 13.925781 6.660157 26.285156 16.8125 34.285156zm0 0" fill="#efb06c"/><path d="m493 193.4375c0 2.75-2.25 5-5 5h-88c-2.75 0-5-2.25-5-5v-18.875c0-2.75 2.25-5 5-5h88c2.75 0 5 2.25 5 5zm0 0" fill="#1a2b63"/><path d="m415.5 193.4375v-18.875c0-2.75 2.25-5 5-5h-20.5c-2.75 0-5 2.25-5 5v18.875c0 2.75 2.25 5 5 5h20.5c-2.75 0-5-2.25-5-5zm0 0" fill="#11204c"/><path d="m449.808594 300.9375h-11.617188c-.566406 0-1.140625-.117188-1.691406-.324219v12.324219c0 2.75 2.25 5 5 5h5c2.75 0 5-2.25 5-5v-12.324219c-.550781.207031-1.125.324219-1.691406.324219zm0 0" fill="#231f20"/><path d="m421.992188 256.4375c-.222657.695312-.265626 1.484375-.042969 2.335938l9.980469 38.324218c.695312 2.660156 3.511718 4.839844 6.261718 4.839844h11.617188c2.75 0 5.566406-2.179688 6.261718-4.839844l9.980469-38.324218c.222657-.851563.179688-1.640626-.042969-2.335938zm0 0" fill="#ffaf10"/><path d="m418.6875 257.4375c-2.75 0-3.605469-1.769531-1.90625-3.929688l24.125-30.644531c1.703125-2.160156 4.484375-2.160156 6.1875 0l24.125 30.644531c1.703125 2.160157.84375 3.929688-1.90625 3.929688zm0 0" fill="#231f20"/><path d="m427.1875 253.507812 22.015625-27.960937-2.109375-2.683594c-1.703125-2.160156-4.484375-2.160156-6.1875 0l-24.125 30.644531c-1.703125 2.160157-.84375 3.929688 1.90625 3.929688h10.410156c-2.75 0-3.609375-1.769531-1.910156-3.929688zm0 0"/><path d="m454.5 274.4375c0 5.796875-4.699219 10.5-10.5 10.5s-10.5-4.703125-10.5-10.5c0-5.800781 4.699219-10.5 10.5-10.5s10.5 4.699219 10.5 10.5zm0 0" fill="#fff"/></svg>