<svg height="512pt" viewBox="-11 0 512 512" width="512pt" xmlns="http://www.w3.org/2000/svg"><path d="m490 267c0 135.308594-109.691406 245-245 245s-245-109.691406-245-245 109.691406-245 245-245 245 109.691406 245 245zm0 0" fill="#1a2b63"/><path d="m31.792969 282h6.789062v-4.707031c0-4.023438 3.269531-7.296875 7.292969-7.296875h33.433594l-3.023438-8.300782c-.21875-.597656-.296875-1.167968-.265625-1.695312h-36.722656c-4.5625 0-8.292969 3.730469-8.292969 8.296875v13.746094c.257813-.027344.519532-.042969.789063-.042969zm0 0" fill="#efb06c"/><path d="m77.738281 269.996094h55.261719v-12.996094h-55c-2.75 0-4.230469 2.113281-3.289062 4.695312zm0 0" fill="#eef6ff"/><path d="m129.011719 310.664062v-22.234374c0-4.6875-3.8125-8.5-8.5-8.5h-6.785157v1h6.785157c4.140625 0 7.5 3.359374 7.5 7.5v47.804687c0 4.144531-3.359375 7.5-7.5 7.5h-15.890625l1.796875 4.933594h3.402343c2.203126 0 4 1.792969 4 4v16.296875l3 8.234375c.945313 2.582031 3.832032 3.9375 6.417969 3.003906l9.761719-3.511719v-66.027344zm0 0" fill="#eef6ff"/><g fill="#d9eafc"><path d="m124.363281 341.457031c-1.082031.800781-2.410156 1.277344-3.851562 1.277344h-16.257813l2.164063 5.929687h3.398437c2.207032 0 4 1.796876 4 4v16.300782l3.003906 8.234375c.941407 2.582031 3.832032 3.9375 6.417969 3.003906l9.761719-3.511719v-11.542968zm0 0"/><path d="m114.011719 329.734375v-15.917969c.054687-.121094.09375-.246094.140625-.367187l-.566406-1.558594c-.664063 3.34375-3.621094 5.875-7.15625 5.875l-2.695313.003906c-4.019531-.003906-7.292969-3.277343-7.296875-7.300781h-2c.003906 1.140625-.265625 2.238281-.761719 3.234375l5.84375 16.027344h14.492188zm0 0"/><path d="m77.738281 269.996094h20.570313l-3.023438-8.300782c-.941406-2.582031.535156-4.695312 3.285156-4.695312h-20.570312c-2.75 0-4.230469 2.113281-3.289062 4.695312zm0 0"/></g><path d="m245 512c80.039062 0 151.109375-38.386719 195.820312-97.75-1.296874-.308594-2.59375-.613281-3.898437-.898438-3.851563-.84375-6.828125-3.890624-7.582031-7.761718l-24.4375-125.671875c-.023438-.121094-.042969-.242188-.0625-.351563-5.707032-36.535156-19.253906-62.078125-40.261719-75.917968-2.78125-1.832032-4.441406-4.917969-4.441406-8.25v-81.328126c0-62.898437-51.171875-114.070312-114.070313-114.070312-62.894531 0-114.066406 51.171875-114.066406 114.066406v370.359375c33.8125 17.609375 72.238281 27.574219 113 27.574219zm0 0" fill="#eef6ff"/><path d="m154 158.597656v-44.300781c0-21.195313 8.648438-40.367187 22.601562-54.191406 16.945313-31.417969 48.191407-54.027344 84.964844-59.046875-5.070312-.695313-10.242187-1.058594-15.5-1.058594-62.894531 0-114.066406 51.171875-114.066406 114.066406v370.359375c9.949219 5.179688 20.304688 9.695313 31 13.496094v-303.363281c-5.738281-10.714844-9-22.953125-9-35.960938zm0 0" fill="#d9eafc"/><path d="m218.261719 382.996094c.941406 2.582031 3.832031 3.9375 6.417969 3.003906l111.617187-40.175781c2.585937-.929688 4.703125-3.941407 4.703125-6.691407v-71.335937c0-2.75-2.25-5-5-5h-156.558594c-2.75 0-4.230468 2.113281-3.289062 4.699219zm0 0" fill="#d9eafc"/><path d="m197.152344 267.496094c-.941406-2.585938.539062-4.699219 3.289062-4.699219h-21c-2.75 0-4.230468 2.113281-3.289062 4.699219l42.109375 115.5c.941406 2.582031 3.832031 3.9375 6.417969 3.003906l13.859374-4.988281zm0 0" fill="#c3ddf4"/><path d="m55.820312 342.332031c0-5.230469 2-9.992187 5.257813-13.597656h-21.785156v-15.144531c-.453125-.945313-.710938-2-.714844-3.117188l.003906-29.542968h-6.789062c-4.144531 0-7.5 3.355468-7.5 7.5v47.804687c0 4.140625 3.355469 7.5 7.5 7.5h24.097656c-.03125-.464844-.070313-.929687-.070313-1.402344zm0 0" fill="#82502e"/><path d="m120.511719 280.929688h-6.785157v29.542968c0 1.121094-.261718 2.175782-.714843 3.125v15.136719h-21.785157c3.257813 3.605469 5.257813 8.367187 5.257813 13.597656 0 .472657-.039063.9375-.070313 1.402344h24.097657c4.140625 0 7.5-3.355469 7.5-7.5v-47.804687c0-4.140626-3.359375-7.5-7.5-7.5zm0 0" fill="#82502e"/><path d="m193.386719 311.664062-15.554688-42.667968h-131.957031c-4.5625 0-8.292969 3.734375-8.292969 8.296875l-.003906 33.179687c.003906 4.5625 3.734375 8.292969 8.300781 8.296875l2.691406-.003906c4.5625 0 8.296876-3.730469 8.292969-8.289063 0 4.558594 3.738281 8.292969 8.296875 8.292969h2.699219c4.558594-.003906 8.292969-3.734375 8.292969-8.292969 0 4.558594 3.734375 8.292969 8.292968 8.289063h2.695313c4.5625.003906 8.296875-3.726563 8.296875-8.292969 0 4.566406 3.730469 8.292969 8.296875 8.296875l2.691406-.003906c4.5625 0 8.296875-3.730469 8.296875-8.292969v-29.542968h5.785156c4.144532 0 7.5 3.359374 7.5 7.5v23.234374zm0 0" fill="#ffe2b8"/><path d="m50.855469 310.472656v-33.179687c0-4.5625 3.734375-8.296875 8.292969-8.296875h-13.273438c-4.5625 0-8.292969 3.734375-8.292969 8.296875l-.003906 33.179687c.003906 4.5625 3.734375 8.292969 8.300781 8.296875l2.691406-.003906c2.007813 0 3.851563-.722656 5.292969-1.917969-1.835937-1.527344-3.007812-3.820312-3.007812-6.375zm0 0" fill="#ffc987"/><path d="m96.527344 348.664062c.625-2 .957031-4.125.957031-6.332031 0-11.78125-9.550781-21.332031-21.332031-21.332031s-21.332032 9.550781-21.332032 21.332031c0 2.207031.335938 4.332031.957032 6.332031zm0 0" fill="#bf7e52"/><path d="m65.976562 348.664062c-.625-2-.976562-4.125-.976562-6.332031 0-10.023437 6.925781-18.410156 16.242188-20.695312-1.632813-.398438-3.332032-.636719-5.089844-.636719-11.78125 0-21.332032 9.550781-21.332032 21.332031 0 2.207031.335938 4.332031.957032 6.332031zm0 0" fill="#a5683f"/><path d="m44.152344 376h64v66.726562h-64zm0 0" fill="#ffaf10"/><path d="m60 415.964844v-39.964844h-15.847656v66.726562h15c-2.707032-3.578124-4.332032-8.019531-4.332032-12.851562 0-5.320312 1.957032-10.175781 5.179688-13.910156zm0 0" fill="#ef9614"/><path d="m93.148438 442.726562c2.710937-3.578124 4.335937-8.019531 4.335937-12.851562 0-11.78125-9.550781-21.332031-21.332031-21.332031s-21.332032 9.550781-21.332032 21.332031c0 4.832031 1.625 9.273438 4.332032 12.851562zm0 0" fill="#ffd00d"/><path d="m114.820312 372c0 2.75-2.25 5-5 5h-67.335937c-2.75 0-5-2.25-5-5v-19.335938c0-2.75 2.25-5 5-5h67.335937c2.75 0 5 2.25 5 5zm0 0" fill="#8e5e3d"/><path d="m58 372v-19.335938c0-2.75 2.25-5 5-5h-20.515625c-2.75 0-5 2.25-5 5v19.335938c0 2.75 2.25 5 5 5h20.515625c-2.75 0-5-2.25-5-5zm0 0" fill="#82502e"/><path d="m119.152344 460c0 2.75-2.25 5-5 5h-76c-2.75 0-5-2.25-5-5v-13.273438c0-2.75 2.25-5 5-5h76c2.75 0 5 2.25 5 5zm0 0" fill="#8e5e3d"/><path d="m54 460v-13.273438c0-2.75 2.25-5 5-5h-20.847656c-2.75 0-5 2.25-5 5v13.273438c0 2.75 2.25 5 5 5h20.847656c-2.75 0-5-2.25-5-5zm0 0" fill="#82502e"/><path d="m89.160156 404.675781c-.695312 0-1.300781-.484375-1.457031-1.167969-1.203125-5.332031-1.878906-6.007812-7.210937-7.210937-.683594-.15625-1.167969-.761719-1.167969-1.457031 0-.703125.484375-1.308594 1.167969-1.460938 5.332031-1.203125 6.007812-1.878906 7.210937-7.214844.15625-.679687.761719-1.164062 1.457031-1.164062.699219 0 1.304688.484375 1.460938 1.164062 1.207031 5.335938 1.878906 6.011719 7.214844 7.214844.679687.152344 1.164062.757813 1.164062 1.460938 0 .695312-.484375 1.300781-1.164062 1.457031-5.335938 1.203125-6.011719 1.878906-7.214844 7.210937-.15625.683594-.761719 1.167969-1.460938 1.167969zm0 0" fill="#ffdd8d"/><path d="m34.917969 422.636719c-1.339844 0-2.507813-.929688-2.804688-2.242188-2.316406-10.257812-3.613281-11.554687-13.875-13.871093-1.3125-.300782-2.238281-1.460938-2.238281-2.804688 0-1.347656.929688-2.511719 2.238281-2.804688 10.261719-2.316406 11.558594-3.613281 13.875-13.875.296875-1.3125 1.464844-2.242187 2.804688-2.242187 1.34375 0 2.507812.933594 2.804687 2.242187 2.320313 10.261719 3.613282 11.554688 13.875 13.871094 1.308594.300782 2.242188 1.457032 2.242188 2.808594 0 1.34375-.933594 2.507812-2.242188 2.804688-10.261718 2.316406-11.558594 3.613281-13.875 13.871093-.292968 1.3125-1.460937 2.242188-2.804687 2.242188zm0 0" fill="#ffd00d"/><path d="m306.59375 158.597656c0 42.140625-34.160156 76.296875-76.296875 76.296875s-76.296875-34.15625-76.296875-76.296875v-44.300781c0-42.140625 34.160156-76.296875 76.296875-76.296875s76.296875 34.15625 76.296875 76.296875zm0 0" fill="#ffe2b8"/><path d="m175 158.597656v-44.300781c0-7.761719 1.175781-15.242187 3.332031-22.296875h-21.011719c-2.152343 7.054688-3.320312 14.539062-3.320312 22.296875v44.300781c0 42.140625 34.160156 76.296875 76.296875 76.296875 3.5625 0 7.0625-.261719 10.5-.734375-37.167969-5.121094-65.796875-36.988281-65.796875-75.5625zm0 0" fill="#ffc987"/><path d="m262.320312 45.058594c.03125.644531.054688 1.289062.054688 1.941406 0 9.535156-3.042969 18.351562-8.195312 25.558594 7.902343 11.726562 21.304687 19.441406 36.511718 19.441406h12.582032c-6.363282-20.855469-21.425782-37.898438-40.953126-46.941406zm0 0" fill="#ffaf10"/><path d="m198.429688 150.863281c0 5.554688-4.503907 10.054688-10.054688 10.054688-5.554688 0-10.058594-4.5-10.058594-10.054688v-10.054687c0-5.550782 4.503906-10.054688 10.058594-10.054688 5.550781 0 10.054688 4.503906 10.054688 10.054688zm0 0" fill="#994334"/><path d="m274.84375 150.863281c0 5.554688-4.5 10.054688-10.054688 10.054688-5.550781 0-10.054687-4.5-10.054687-10.054688v-10.054687c0-5.550782 4.503906-10.054688 10.054687-10.054688 5.554688 0 10.054688 4.503906 10.054688 10.054688zm0 0" fill="#994334"/><path d="m226.582031 209.183594c-15.359375 0-27.859375-12.496094-27.859375-27.859375 0-2.105469 1.710938-3.8125 3.820313-3.8125h48.078125c2.109375 0 3.816406 1.707031 3.816406 3.8125 0 15.363281-12.496094 27.859375-27.855469 27.859375zm0 0" fill="#ff9f60"/><path d="m213.285156 181.324219c0-2.105469 1.710938-3.816407 3.820313-3.816407h-14.5625c-2.109375 0-3.820313 1.710938-3.820313 3.816407 0 15.359375 12.5 27.859375 27.859375 27.859375 2.519531 0 4.957031-.34375 7.28125-.972656-11.839843-3.207032-20.578125-14.046876-20.578125-26.886719zm0 0" fill="#ff8d4d"/><path d="m230.605469 168.027344h-5.210938c-5.699219 0-10.335937-4.636719-10.335937-10.335938v-13.863281c0-4.144531 3.359375-7.5 7.5-7.5 4.144531 0 7.5 3.355469 7.5 7.5v9.199219h.546875c4.140625 0 7.5 3.355468 7.5 7.5 0 4.140625-3.359375 7.5-7.5 7.5zm0 0" fill="#ff9f60"/><path d="m200.707031 125.828125c-1.921875 0-3.839843-.730469-5.304687-2.195313-2.144532-2.144531-4.992188-3.324218-8.023438-3.324218s-5.882812 1.179687-8.023437 3.324218c-2.929688 2.929688-7.679688 2.929688-10.609375 0-2.929688-2.929687-2.929688-7.675781 0-10.605468 4.976562-4.976563 11.59375-7.71875 18.632812-7.71875 7.035156 0 13.652344 2.742187 18.632813 7.71875 2.925781 2.929687 2.925781 7.679687-.003907 10.605468-1.460937 1.464844-3.382812 2.195313-5.300781 2.195313zm0 0" fill="#ef9614"/><path d="m279.113281 125.828125c-1.917969 0-3.839843-.730469-5.304687-2.195313-2.140625-2.144531-4.992188-3.324218-8.023438-3.324218s-5.878906 1.179687-8.023437 3.324218c-2.929688 2.929688-7.675781 2.929688-10.605469 0-2.929688-2.929687-2.929688-7.675781 0-10.605468 4.976562-4.976563 11.59375-7.71875 18.628906-7.71875 7.039063 0 13.65625 2.742187 18.632813 7.71875 2.929687 2.929687 2.929687 7.679687 0 10.605468-1.464844 1.464844-3.386719 2.195313-5.304688 2.195313zm0 0" fill="#ef9614"/><path d="m157.320312 92h62.371094c24.300782 0 44-19.699219 44-44 0-.785156-.019531-1.566406-.0625-2.347656-10.070312-4.898438-21.378906-7.652344-33.332031-7.652344-34.378906 0-63.441406 22.742188-72.976563 54zm0 0" fill="#ef9614"/><path d="m240.652344 38.703125c-3.386719-.460937-6.84375-.703125-10.355469-.703125-34.378906 0-63.4375 22.742188-72.976563 54h20.679688c8.566406-28.074219 32.882812-49.265625 62.652344-53.296875zm0 0" fill="#ef8318"/></svg>