<svg height="512pt" viewBox="-11 0 512 512" width="512pt" xmlns="http://www.w3.org/2000/svg"><path d="m490 267c0 135.308594-109.691406 245-245 245s-245-109.691406-245-245 109.691406-245 245-245 245 109.691406 245 245zm0 0" fill="#293d7c"/><path d="m474.425781 86.121094v-12.28125c0-4.488282-3.636719-8.125-8.125-8.125-3.53125 0-6.527343 2.253906-7.652343 5.402344-1.121094-3.148438-4.117188-5.402344-7.648438-5.402344-3.527344 0-6.527344 2.253906-7.648438 5.398437-1.121093-3.144531-4.117187-5.398437-7.648437-5.398437-4.488281 0-8.128906 3.636718-8.128906 8.125v13.320312c-2.382813 4.074219-3.753907 8.808594-3.753907 13.863282v160.191406h-20.820312v74.203125c.417969.355469.941406.582031 1.515625.582031.929687 0 1.773437-.546875 2.152344-1.394531l8.097656-18.03125 8.097656 18.03125c.378907.847656 1.222657 1.394531 2.152344 1.394531s1.773437-.546875 2.152344-1.394531l8.097656-18.03125 8.097656 18.03125c.378907.847656 1.222657 1.394531 2.152344 1.394531s1.773437-.546875 2.152344-1.394531c0 0 31.152343-28.894531 31.152343-70.894531v-162.6875c0-5.492188-1.617187-10.609376-4.394531-14.902344zm0 0" fill="#37c47a"/><path d="m87 261.214844h-20.820312v-160.191406c0-5.054688-1.371094-9.789063-3.753907-13.863282v-13.320312c0-4.488282-3.636719-8.125-8.125-8.125-3.53125 0-6.527343 2.253906-7.652343 5.402344-1.121094-3.148438-4.117188-5.402344-7.648438-5.402344-3.527344 0-6.527344 2.253906-7.648438 5.398437-1.121093-3.144531-4.117187-5.398437-7.648437-5.398437-4.488281 0-8.128906 3.636718-8.128906 8.125v12.28125c-2.773438 4.296875-4.390625 9.410156-4.390625 14.902344v162.691406c0 41 31.148437 70.890625 31.148437 70.890625.382813.847656 1.226563 1.394531 2.152344 1.394531.929687 0 1.773437-.546875 2.15625-1.394531l8.09375-18.027344 8.097656 18.027344c.382813.847656 1.226563 1.394531 2.152344 1.394531.929687 0 1.773437-.546875 2.15625-1.394531l8.09375-18.027344 8.097656 18.027344c.382813.847656 1.226563 1.394531 2.152344 1.394531.574219 0 1.097656-.226562 1.519531-.582031v-74.203125zm0 0" fill="#37c47a"/><path d="m33.359375 134.605469c-5.488281-2.230469-9.359375-7.605469-9.359375-13.894531v-16c0-7.125 4.972656-13.078126 11.636719-14.605469.601562-1.390625 1.304687-2.726563 2.117187-3.984375v-12.28125c0-3.25 1.914063-6.050782 4.675782-7.351563-1.042969-.488281-2.199219-.773437-3.429688-.773437-3.53125 0-6.527344 2.253906-7.648438 5.398437-1.121093-3.144531-4.121093-5.398437-7.648437-5.398437-4.488281 0-8.128906 3.636718-8.128906 8.125v12.28125c-2.777344 4.296875-4.394531 9.410156-4.394531 14.902344v162.691406c0 41 31.152343 70.890625 31.152343 70.890625.382813.847656 1.222657 1.394531 2.152344 1.394531s1.773437-.546875 2.152344-1.394531l6.296875-14.015625c-8.863282-12.617188-19.574219-32.832032-19.574219-56.875zm0 0" fill="#2bb381"/><path d="m201.492188 62.957031-26.945313-60.003906c-.808594-1.796875-2.59375-2.953125-4.5625-2.953125s-3.753906 1.15625-4.5625 2.953125l-17.265625 38.445313c5.988281 4.667968 9.84375 11.941406 9.84375 20.101562 0 3.820312-.828125 7.5-2.457031 10.929688l-.847657 1.78125 1.9375-.367188c5.292969-1.007812 10.707032-1.515625 16.09375-1.515625h25.144532c.148437-3.558594 1.476562-6.8125 3.621094-9.371094zm0 0" fill="#ffd00d"/><path d="m165.421875 2.953125-12.59375 28.046875h34.3125l-12.59375-28.046875c-.808594-1.796875-2.59375-2.953125-4.5625-2.953125s-3.753906 1.15625-4.5625 2.953125zm0 0" fill="#ffaf10"/><path d="m342.386719 42.613281-17.808594-39.664062c-.808594-1.792969-2.59375-2.949219-4.5625-2.949219s-3.753906 1.15625-4.5625 2.953125l-26.941406 60.003906c2.144531 2.558594 3.46875 5.816407 3.617187 9.371094h25.144532c6.148437 0 12.300781.660156 18.292968 1.960937l2.039063.445313-.929688-1.867187c-1.777343-3.554688-2.675781-7.378907-2.675781-11.367188 0-7.480469 3.238281-14.21875 8.386719-18.886719zm0 0" fill="#ffd00d"/><path d="m315.453125 2.953125-12.59375 28.046875h34.3125l-12.59375-28.046875c-.808594-1.796875-2.59375-2.953125-4.5625-2.953125s-3.753906 1.15625-4.5625 2.953125zm0 0" fill="#ffaf10"/><path d="m366.917969 86.941406c11.023437-3.210937 19.082031-13.382812 19.082031-25.441406 0-14.636719-11.863281-26.5-26.5-26.5s-26.5 11.863281-26.5 26.5c0 4.246094 1.003906 8.257812 2.777344 11.8125-5.960938-1.296875-12.152344-1.984375-18.503906-1.984375h-25.203126c.058594.542969.089844 1.09375.089844 1.65625v42.03125c0 8.625-7.011718 15.636719-15.636718 15.636719-6.71875 0-12.671876-4.28125-14.8125-10.660156l-.949219-2.820313-.949219 2.820313c-2.140625 6.378906-8.09375 10.660156-14.8125 10.660156s-12.671875-4.28125-14.8125-10.660156l-.949219-2.820313-.949219 2.820313c-2.140624 6.378906-8.09375 10.660156-14.8125 10.660156-8.621093 0-15.636718-7.011719-15.636718-15.636719v-42.03125c0-.5625.03125-1.113281.089844-1.65625h-25.203126c-47.898437 0-86.726562 38.828125-86.726562 86.726563v295.328124c42.796875 36.542969 98.316406 58.617188 159 58.617188s116.203125-22.074219 159-58.617188v-295.328124c0-29.433594-14.664062-55.4375-37.082031-71.113282zm0 0" fill="#02af8e"/><path d="m197.929688 71.328125h-25.203126c-5.566406 0-11.007812.53125-16.28125 1.53125 1.636719-3.441406 2.554688-7.292969 2.554688-11.359375 0-14.636719-11.863281-26.5-26.5-26.5s-26.5 11.863281-26.5 26.5c0 11.554688 7.398438 21.378906 17.714844 25.003906-22.773438 15.628906-37.714844 41.84375-37.714844 71.550782v295.328124c8.214844 7.015626 16.902344 13.488282 26 19.382813v-314.710937c0-47.628907 38.398438-86.285157 85.925781-86.714844 0-.003906.003907-.007813.003907-.011719zm0 0" fill="#159e97"/><path d="m303.738281 104.144531h-11.578125v10.871094c0 8.625-7.011718 15.640625-15.636718 15.640625-6.71875 0-12.671876-4.285156-14.8125-10.660156l-.949219-2.820313-.949219 2.820313c-2.140625 6.375-8.09375 10.660156-14.8125 10.660156s-12.671875-4.285156-14.8125-10.660156l-.949219-2.820313-.949219 2.820313c-2.140624 6.375-8.09375 10.660156-14.8125 10.660156-8.621093 0-15.636718-7.015625-15.636718-15.640625v-10.871094h-11.578125c-38.277344 0-69.414063 31.140625-69.414063 69.417969 0 29.59375 18.75 55.957031 46.65625 65.597656.574219.199219 1.175782.296875 1.769532.296875.847656 0 1.691406-.199219 2.460937-.589843 1.3125-.667969 2.292969-1.839844 2.726563-3.246094 5.605468-18.304688 22.265624-30.605469 41.457031-30.605469h66.164062c19.191407 0 35.851563 12.300781 41.457031 30.605469.433594 1.40625 1.414063 2.578125 2.726563 3.246094.769531.390624 1.613281.589843 2.460937.589843.597657 0 1.195313-.101562 1.769532-.296875 27.90625-9.640625 46.65625-36.003906 46.65625-65.597656 0-38.277344-31.136719-69.417969-69.414063-69.417969zm0 0" fill="#fff"/><path d="m137.691406 173.5625c0-35.132812 26.238282-64.234375 60.144532-68.78125v-.636719h-11.574219c-38.277344 0-69.417969 31.140625-69.417969 69.417969 0 29.59375 18.75 55.957031 46.660156 65.597656.574219.199219 1.171875.296875 1.769532.296875.847656 0 1.691406-.199219 2.457031-.589843 1.3125-.667969 2.296875-1.839844 2.730469-3.246094.265624-.863282.5625-1.710938.875-2.546875-20.566407-12.351563-33.644532-34.800781-33.644532-59.511719zm0 0" fill="#eef6ff"/><path d="m167.105469 182.734375c-16.445313-9.492187-22.097657-30.59375-12.601563-47.042969 2.050782-3.558594 6.605469-4.777344 10.164063-2.722656l58.71875 33.902344c3.558593 2.054687 4.777343 6.605468 2.722656 10.164062-9.496094 16.445313-30.597656 22.101563-47.042969 12.605469zm0 0" fill="#ea2a3d"/><path d="m323.140625 182.734375c16.445313-9.492187 22.097656-30.59375 12.601563-47.042969-2.054688-3.558594-6.605469-4.777344-10.164063-2.722656l-58.71875 33.902344c-3.558594 2.054687-4.777344 6.605468-2.722656 10.164062 9.496093 16.445313 30.597656 22.101563 47.042969 12.605469zm0 0" fill="#ea2a3d"/><path d="m305.195312 252.738281c0 14.976563-12.140624 27.117188-27.113281 27.117188h-66.164062c-14.972657 0-27.113281-12.140625-27.113281-27.117188v-4.335937c0-14.976563 12.140624-27.117188 27.113281-27.117188h66.164062c14.976563 0 27.113281 12.140625 27.113281 27.117188zm0 0" fill="#ff9f60"/><path d="m198.605469 252.738281v-4.335937c0-1.273438.09375-2.519532.261719-3.746094-.273438-.238281-.519532-.519531-.671876-.863281l-6.191406-13.785157c-4.46875 4.832032-7.199218 11.292969-7.199218 18.394532v4.335937c0 14.976563 12.140624 27.117188 27.113281 27.117188h1.628906c0-.945313.09375-1.863281.230469-2.769531-8.988282-4.417969-15.171875-13.65625-15.171875-24.347657zm0 0" fill="#ff8d4d"/><path d="m278.082031 221.285156h-66.164062c-7.871094 0-14.960938 3.359375-19.914063 8.71875l6.191406 13.789063c.410157.917969 1.324219 1.511719 2.335938 1.511719 1.007812-.003907 1.921875-.59375 2.332031-1.511719l8.785157-19.558594 8.78125 19.558594c.414062.917969 1.328124 1.511719 2.335937 1.511719 1.007813-.003907 1.921875-.59375 2.335937-1.511719l8.78125-19.558594 8.78125 19.558594c.414063.917969 1.328126 1.511719 2.335938 1.511719 1.007812-.003907 1.921875-.59375 2.335938-1.511719l8.78125-19.558594 8.78125 19.558594c.414062.917969 1.328124 1.511719 2.335937 1.511719 1.007813-.003907 1.921875-.59375 2.335937-1.511719l8.78125-19.558594 8.78125 19.558594c.414063.917969 1.328126 1.511719 2.335938 1.511719 1.007812-.003907 1.921875-.59375 2.335938-1.511719l6.191406-13.789063c-4.953125-5.359375-12.042969-8.71875-19.914063-8.71875zm0 0" fill="#ffd782"/><path d="m258.015625 261.417969c-5.082031 0-9.679687 2.054687-13.015625 5.378906-3.335938-3.324219-7.933594-5.378906-13.015625-5.378906-10.183594 0-18.4375 8.253906-18.4375 18.4375h62.90625c0-10.183594-8.253906-18.4375-18.4375-18.4375zm0 0" fill="#ffd782"/><path d="m276.523438 56.347656c-7.332032 0-55.714844 0-63.046876 0-9.191406 0-16.640624 7.449219-16.640624 16.636719v42.03125c0 9.191406 7.449218 16.640625 16.640624 16.640625 7.332032 0 13.546876-4.753906 15.761719-11.34375 2.210938 6.589844 8.425781 11.34375 15.761719 11.34375s13.550781-4.753906 15.761719-11.34375c2.214843 6.589844 8.429687 11.34375 15.765625 11.34375 9.1875 0 16.636718-7.449219 16.636718-16.640625v-42.03125c-.003906-9.191406-7.449218-16.636719-16.640624-16.636719zm0 0" fill="#ef8318"/><path d="m217.675781 115.015625v-42.03125c0-9.191406 7.449219-16.640625 16.640625-16.640625-9.792968 0-18.125 0-20.839844 0-9.1875 0-16.636718 7.449219-16.636718 16.640625v42.03125c0 9.1875 7.445312 16.636719 16.636718 16.636719 3.945313 0 7.5625-1.382813 10.410157-3.679688-3.785157-3.050781-6.210938-7.71875-6.210938-12.957031zm0 0" fill="#db722c"/><g fill="#37c47a"><path d="m132.5 73c-6.339844 0-11.5-5.160156-11.5-11.5s5.160156-11.5 11.5-11.5 11.5 5.160156 11.5 11.5-5.160156 11.5-11.5 11.5zm0 0"/><path d="m359.5 73c-6.339844 0-11.5-5.160156-11.5-11.5s5.160156-11.5 11.5-11.5 11.5 5.160156 11.5 11.5-5.160156 11.5-11.5 11.5zm0 0"/><path d="m144.253906 337.246094c-6.136718 0-11.125-4.988282-11.125-11.121094v-9.269531c0-1.027344.832032-1.855469 1.851563-1.855469h18.542969c1.023437 0 1.855468.828125 1.855468 1.855469v9.269531c-.003906 6.132812-4.992187 11.121094-11.125 11.121094zm0 0"/></g><path d="m195.253906 337.246094c-6.136718 0-11.125-4.988282-11.125-11.121094v-9.269531c0-1.027344.832032-1.855469 1.851563-1.855469h18.542969c1.023437 0 1.855468.828125 1.855468 1.855469v9.269531c-.003906 6.132812-4.992187 11.121094-11.125 11.121094zm0 0" fill="#60d882"/><path d="m246.253906 337.246094c-6.136718 0-11.125-4.988282-11.125-11.121094v-9.269531c0-1.027344.832032-1.855469 1.851563-1.855469h18.542969c1.023437 0 1.855468.828125 1.855468 1.855469v9.269531c-.003906 6.132812-4.992187 11.121094-11.125 11.121094zm0 0" fill="#37c47a"/><path d="m297.253906 337.246094c-6.136718 0-11.125-4.988282-11.125-11.121094v-9.269531c0-1.027344.832032-1.855469 1.851563-1.855469h18.542969c1.023437 0 1.855468.828125 1.855468 1.855469v9.269531c-.003906 6.132812-4.992187 11.121094-11.125 11.121094zm0 0" fill="#60d882"/><path d="m348.253906 337.246094c-6.136718 0-11.125-4.988282-11.125-11.121094v-9.269531c0-1.027344.832032-1.855469 1.851563-1.855469h18.542969c1.023437 0 1.855468.828125 1.855468 1.855469v9.269531c-.003906 6.132812-4.992187 11.121094-11.125 11.121094zm0 0" fill="#37c47a"/><path d="m144.253906 448.246094c-6.136718 0-11.125-4.988282-11.125-11.121094v-9.269531c0-1.027344.832032-1.855469 1.851563-1.855469h18.542969c1.023437 0 1.855468.828125 1.855468 1.855469v9.269531c-.003906 6.132812-4.992187 11.121094-11.125 11.121094zm0 0" fill="#37c47a"/><path d="m195.253906 448.246094c-6.136718 0-11.125-4.988282-11.125-11.121094v-9.269531c0-1.027344.832032-1.855469 1.851563-1.855469h18.542969c1.023437 0 1.855468.828125 1.855468 1.855469v9.269531c-.003906 6.132812-4.992187 11.121094-11.125 11.121094zm0 0" fill="#60d882"/><path d="m246.253906 448.246094c-6.136718 0-11.125-4.988282-11.125-11.121094v-9.269531c0-1.027344.832032-1.855469 1.851563-1.855469h18.542969c1.023437 0 1.855468.828125 1.855468 1.855469v9.269531c-.003906 6.132812-4.992187 11.121094-11.125 11.121094zm0 0" fill="#37c47a"/><path d="m297.253906 448.246094c-6.136718 0-11.125-4.988282-11.125-11.121094v-9.269531c0-1.027344.832032-1.855469 1.851563-1.855469h18.542969c1.023437 0 1.855468.828125 1.855468 1.855469v9.269531c-.003906 6.132812-4.992187 11.121094-11.125 11.121094zm0 0" fill="#60d882"/><path d="m348.253906 448.246094c-6.136718 0-11.125-4.988282-11.125-11.121094v-9.269531c0-1.027344.832032-1.855469 1.851563-1.855469h18.542969c1.023437 0 1.855468.828125 1.855468 1.855469v9.269531c-.003906 6.132812-4.992187 11.121094-11.125 11.121094zm0 0" fill="#37c47a"/><path d="m117.5 392c-6.132812 0-11.125-4.988281-11.125-11.125v-9.269531c0-1.023438.832031-1.851563 1.855469-1.851563h18.539062c1.023438 0 1.855469.828125 1.855469 1.851563v9.269531c0 6.136719-4.988281 11.125-11.125 11.125zm0 0" fill="#37c47a"/><path d="m168.5 392c-6.132812 0-11.125-4.988281-11.125-11.125v-9.269531c0-1.023438.832031-1.851563 1.855469-1.851563h18.539062c1.023438 0 1.855469.828125 1.855469 1.851563v9.269531c0 6.136719-4.988281 11.125-11.125 11.125zm0 0" fill="#60d882"/><path d="m219.5 392c-6.132812 0-11.125-4.988281-11.125-11.125v-9.269531c0-1.023438.832031-1.851563 1.855469-1.851563h18.539062c1.023438 0 1.855469.828125 1.855469 1.851563v9.269531c0 6.136719-4.988281 11.125-11.125 11.125zm0 0" fill="#37c47a"/><path d="m270.5 392c-6.132812 0-11.125-4.988281-11.125-11.125v-9.269531c0-1.023438.832031-1.851563 1.855469-1.851563h18.539062c1.023438 0 1.851563.828125 1.851563 1.851563v9.269531c.003906 6.136719-4.984375 11.125-11.121094 11.125zm0 0" fill="#60d882"/><path d="m321.5 392c-6.132812 0-11.125-4.988281-11.125-11.125v-9.269531c0-1.023438.832031-1.851563 1.855469-1.851563h18.539062c1.023438 0 1.851563.828125 1.851563 1.851563v9.269531c.003906 6.136719-4.984375 11.125-11.121094 11.125zm0 0" fill="#37c47a"/><path d="m372.5 392c-6.132812 0-11.125-4.988281-11.125-11.125v-9.269531c0-1.023438.832031-1.851563 1.855469-1.851563h18.539062c1.023438 0 1.851563.828125 1.851563 1.851563v9.269531c.003906 6.136719-4.984375 11.125-11.121094 11.125zm0 0" fill="#60d882"/><path d="m466 120.714844c0 8.28125-6.714844 15-15 15s-15-6.71875-15-15v-16c0-8.285156 6.714844-15 15-15s15 6.714844 15 15zm0 0" fill="#02af8e"/><path d="m446 120.714844v-16c0-6.53125 4.179688-12.070313 10-14.128906-1.566406-.554688-3.242188-.871094-5-.871094-8.285156 0-15 6.714844-15 15v16c0 8.28125 6.714844 15 15 15 1.757812 0 3.433594-.320313 5-.875-5.820312-2.058594-10-7.597656-10-14.125zm0 0" fill="#159e97"/><path d="m54 120.714844c0 8.28125-6.714844 15-15 15s-15-6.71875-15-15v-16c0-8.285156 6.714844-15 15-15s15 6.714844 15 15zm0 0" fill="#02af8e"/><path d="m34 120.714844v-16c0-6.53125 4.179688-12.070313 10-14.128906-1.566406-.554688-3.242188-.871094-5-.871094-8.285156 0-15 6.714844-15 15v16c0 8.28125 6.714844 15 15 15 1.757812 0 3.433594-.320313 5-.875-5.820312-2.058594-10-7.597656-10-14.125zm0 0" fill="#159e97"/><path d="m172.25 159.5c0 9.113281 7.386719 16.5 16.5 16.5s16.5-7.386719 16.5-16.5c0-1.128906-.113281-2.226562-.328125-3.289062l-21.394531-12.355469c-6.550782 2.1875-11.277344 8.359375-11.277344 15.644531zm0 0" fill="#a00026"/><path d="m284.75 159.5c0 9.113281 7.386719 16.5 16.5 16.5s16.5-7.386719 16.5-16.5c0-7.230469-4.65625-13.355469-11.128906-15.589844l-21.5625 12.453125c-.199219 1.015625-.308594 2.0625-.308594 3.136719zm0 0" fill="#a00026"/></svg>