<svg height="512pt" viewBox="0 -5 512 511" width="512pt" xmlns="http://www.w3.org/2000/svg"><path d="m501 256.5c0 135.308594-109.691406 245-245 245s-245-109.691406-245-245 109.691406-245 245-245 245 109.691406 245 245zm0 0" fill="#ffaf10"/><path d="m104.4375 449c41.699219 32.878906 94.339844 52.5 151.5625 52.5 57.226562 0 109.863281-19.621094 151.5625-52.5zm0 0" fill="#293d7c"/><path d="m230.773438 219.171875c7.722656 0 14 6.277344 14 14v181.828125h150.820312c31.675781-26.5625 50.628906-66.265625 50.628906-108.253906 0-61.972656-41.457031-117.597656-100.8125-135.269532-6.554687-1.949218-11.128906-8.085937-11.128906-14.925781v-65.109375h-58.40625v65.109375c0 6.839844-4.574219 12.976563-11.128906 14.925781-28.28125 8.421876-52.496094 25.460938-70.101563 47.695313zm0 0" fill="#37c47a"/><path d="m275.875 91.441406v65.109375c0 6.457031-4.082031 12.285157-10.054688 14.554688l.003907.003906 18.066406 13.125c4.128906-2.859375 6.757813-7.632813 6.757813-12.820313v-79.972656zm0 0" fill="#02af8e"/><path d="m222.996094 219.171875c12.394531-11.785156 26.964844-21.402344 43.160156-28.089844l-18.34375-13.328125c-21.039062 9.386719-39.164062 23.769532-53.144531 41.417969zm0 0" fill="#02af8e"/><path d="m285.949219 185.730469-20.125-14.621094c-.355469.132813-.714844.257813-1.078125.367187-5.824219 1.734376-11.476563 3.839844-16.9375 6.277344l25.546875 18.558594c3.425781-4.328125 7.707031-7.945312 12.59375-10.582031zm0 0" fill="#d9eafc"/><path d="m244.773438 404.769531h121.449218c33.632813-20.996093 54.398438-58.261719 54.398438-98.023437 0-5.789063-.449219-11.507813-1.304688-17.125h-174.542968zm0 0" fill="#f24976"/><path d="m274.371094 45.65625h61.414062l3.777344-35.214844c.585938-5.46875-3.433594-9.941406-8.933594-9.941406h-51.105468c-5.5 0-9.519532 4.476562-8.933594 9.941406zm0 0" fill="#2e4c89"/><path d="m274.371094 45.65625h20.464844l-3.777344-35.214844c-.589844-5.46875 3.429687-9.941406 8.929687-9.941406h-20.460937c-5.5 0-9.519532 4.476562-8.933594 9.941406zm0 0" fill="#293d7c"/><path d="m357.984375 82.441406c0 5.5-4.5 10-10 10h-85.8125c-5.5 0-10-4.5-10-10v-27.785156c0-5.5 4.5-10 10-10h85.8125c5.5 0 10 4.5 10 10zm0 0" fill="#2bb381"/><path d="m273 82.441406v-27.785156c0-5.5 4.5-10 10-10h-20.828125c-5.5 0-10 4.5-10 10v27.785156c0 5.5 4.5 10 10 10h20.828125c-5.5 0-10-4.5-10-10zm0 0" fill="#159e97"/><path d="m356.585938 361.320312c0 12.324219-9.988282 22.3125-22.3125 22.3125-12.324219 0-22.3125-9.988281-22.3125-22.3125 0-12.324218 9.988281-22.3125 22.3125-22.3125 12.324218 0 22.3125 9.988282 22.3125 22.3125zm0 0" fill="#f87eab"/><path d="m316.019531 317.371094c0 7.46875-6.054687 13.523437-13.523437 13.523437s-13.523438-6.054687-13.523438-13.523437 6.054688-13.523438 13.523438-13.523438 13.523437 6.054688 13.523437 13.523438zm0 0" fill="#f87eab"/><path d="m283.375 375.523438c0 7.46875-6.054688 13.523437-13.523438 13.523437s-13.523437-6.054687-13.523437-13.523437 6.054687-13.523438 13.523437-13.523438 13.523438 6.054688 13.523438 13.523438zm0 0" fill="#f87eab"/><path d="m336.796875 196.3125 25.550781-18.558594c-5.460937-2.4375-11.109375-4.542968-16.9375-6.277344-.367187-.109374-.726562-.234374-1.078125-.371093l-20.128906 14.625c4.890625 2.636719 9.171875 6.253906 12.59375 10.582031zm0 0" fill="#d9eafc"/><path d="m298.679688 275.109375c-7.367188 0-13.636719-5.511719-14.578126-12.820313l-.507812-3.949218c-.136719-1.042969-.714844-1.984375-1.597656-2.574219-11.492188-7.726563-18.351563-20.59375-18.351563-34.417969 0-22.851562 18.585938-41.4375 41.433594-41.4375s41.4375 18.585938 41.4375 41.4375c0 13.824219-6.859375 26.6875-18.355469 34.417969-.878906.589844-1.460937 1.53125-1.59375 2.578125l-.511718 3.945312c-.941407 7.308594-7.207032 12.820313-14.578126 12.820313zm0 0" fill="#fff"/><path d="m299.589844 262.289062-.511719-3.949218c-.136719-1.042969-.714844-1.984375-1.597656-2.574219-11.492188-7.726563-18.351563-20.59375-18.351563-34.417969 0-20.203125 14.53125-37.0625 33.691406-40.699218-2.511718-.476563-5.097656-.738282-7.742187-.738282-22.847656 0-41.4375 18.589844-41.4375 41.4375 0 13.824219 6.863281 26.691406 18.351563 34.417969.882812.589844 1.460937 1.53125 1.597656 2.578125l.511718 3.945312c.9375 7.308594 7.207032 12.820313 14.578126 12.820313h12.796874c.453126 0 .898438-.019531 1.34375-.0625-6.773437-.621094-12.347656-5.898437-13.230468-12.757813zm0 0" fill="#eef6ff"/><path d="m301.101562 223.253906c0 7.328125-5.945312 13.265625-13.269531 13.265625s-13.269531-5.9375-13.269531-13.265625 5.941406-13.269531 13.269531-13.269531c7.324219 0 13.269531 5.941406 13.269531 13.269531zm0 0" fill="#ea2a3d"/><path d="m335.59375 223.253906c0 7.328125-5.941406 13.265625-13.269531 13.265625-7.324219 0-13.265625-5.9375-13.265625-13.265625s5.941406-13.269531 13.265625-13.269531c7.328125 0 13.269531 5.941406 13.269531 13.269531zm0 0" fill="#ea2a3d"/><path d="m127.257812 167.988281h57.035157l3.574219-27.203125c.71875-5.453125-3.195313-9.914062-8.695313-9.914062h-46.792969c-5.5 0-9.414062 4.460937-8.695312 9.914062zm0 0" fill="#333031"/><path d="m127.257812 167.988281h20.402344l-3.574218-27.203125c-.71875-5.453125 3.195312-9.914062 8.695312-9.914062h-20.402344c-5.5 0-9.414062 4.460937-8.695312 9.914062zm0 0" fill="#231f20"/><path d="m125.078125 191.972656h61.394531v27.199219h-61.394531zm0 0" fill="#b2762f"/><path d="m125.078125 191.972656h20.921875v27.199219h-20.921875zm0 0" fill="#a5683f"/><path d="m204.472656 182.972656c0 5.5-4.5 10-10 10h-77.394531c-5.5 0-10-4.5-10-10v-5.984375c0-5.5 4.5-10 10-10h77.394531c5.5 0 10 4.5 10 10zm0 0" fill="#8e5e3d"/><path d="m138.605469 182.972656v-5.984375c0-5.5 4.5-10 10-10h-31.527344c-5.5 0-10 4.5-10 10v5.984375c0 5.5 4.5 10 10 10h31.527344c-5.5 0-10-4.5-10-10zm0 0" fill="#82502e"/><path d="m245.773438 415v-181.828125c0-8.25-6.75-15-15-15h-150c-8.25 0-15 6.75-15 15v181.828125zm0 0" fill="#8e5e3d"/><path d="m79.273438 273.972656h6.726562v-40.800781c0-8.25 6.75-15 15-15h-20.226562c-8.25 0-15 6.75-15 15v67.953125h13.5zm0 0" fill="#82502e"/><path d="m65.773438 401.023438h13.5v13.976562h-13.5zm0 0" fill="#82502e"/><path d="m79.273438 273.972656h153v27.152344h-153zm0 0" fill="#333031"/><path d="m79.273438 401.023438h153v13.976562h-153zm0 0" fill="#333031"/><path d="m65.773438 301.125h180v99.898438h-180zm0 0" fill="#794091"/><path d="m65.773438 301.125h20.226562v99.898438h-20.226562zm0 0" fill="#62317c"/><path d="m181.269531 330.976562c1.988281 3.699219 3.117188 7.929688 3.117188 12.417969v2.550781l18.601562-8.675781c-2.4375-1.121093-4.460937-3.074219-5.628906-5.585937-1.167969-2.5-1.390625-5.269532-.664063-7.902344zm0 0" fill="#c6c4c6"/><path d="m127.164062 343.394531c0-4.488281 1.128907-8.714843 3.117188-12.417969l-15.429688-7.195312c.699219 2.542969.542969 5.332031-.65625 7.902344-1.171874 2.511718-3.195312 4.464844-5.628906 5.585937l18.597656 8.675781zm0 0" fill="#c6c4c6"/><path d="m174.882812 368.195312 21.8125 10.167969c-.726562-2.628906-.503906-5.398437.660157-7.898437 1.167969-2.511719 3.195312-4.464844 5.628906-5.589844l-19.746094-9.207031c-1.480469 4.886719-4.359375 9.226562-8.355469 12.527343zm0 0" fill="#c6c4c6"/><path d="m136.667969 368.195312c-3.996094-3.304687-6.871094-7.644531-8.355469-12.527343l-19.746094 9.207031c2.433594 1.125 4.457032 3.078125 5.628906 5.589844 1.199219 2.570312 1.355469 5.359375.65625 7.902344zm0 0" fill="#c6c4c6"/><g fill="#fff"><path d="m219.113281 321.539062c2.917969 6.257813.210938 13.691407-6.046875 16.609376-6.253906 2.917968-13.691406.210937-16.609375-6.046876-2.917969-6.253906-.214843-13.691406 6.046875-16.609374 6.257813-2.917969 13.691406-.210938 16.609375 6.046874zm0 0"/><path d="m115.09375 370.042969c2.917969 6.257812.210938 13.695312-6.046875 16.609375-6.257813 2.917968-13.691406.210937-16.609375-6.042969-2.917969-6.257813-.210938-13.695313 6.042969-16.613281 6.257812-2.917969 13.695312-.210938 16.613281 6.046875zm0 0"/><path d="m92.4375 321.539062c-2.921875 6.257813-.210938 13.695313 6.042969 16.609376 6.257812 2.917968 13.695312.210937 16.613281-6.046876 2.917969-6.253906.210938-13.691406-6.046875-16.609374-6.257813-2.917969-13.695313-.210938-16.609375 6.046874zm0 0"/><path d="m196.453125 370.042969c-2.914063 6.257812-.207031 13.695312 6.050781 16.609375 6.257813 2.917968 13.691406.210937 16.609375-6.042969 2.917969-6.257813.210938-13.695313-6.046875-16.613281-6.253906-2.917969-13.691406-.210938-16.613281 6.046875zm0 0"/><path d="m158.054688 316.066406h-4.554688c-15.09375 0-27.328125 12.234375-27.328125 27.328125v4.550781c0 9.964844 5.332031 18.675782 13.292969 23.449219.210937 8.144531 6.859375 14.683594 15.054687 14.683594h2.511719c8.195312 0 14.847656-6.539063 15.058594-14.683594 7.960937-4.773437 13.292968-13.484375 13.292968-23.449219v-4.550781c0-15.09375-12.238281-27.328125-27.328124-27.328125zm0 0"/></g><path d="m153.292969 371.398438c-7.960938-4.777344-13.292969-13.488282-13.292969-23.453126v-4.550781c0-13.511719 9.808594-24.722656 22.691406-26.929687-1.507812-.257813-3.054687-.398438-4.636718-.398438h-4.558594c-15.089844 0-27.324219 12.234375-27.324219 27.328125v4.550781c0 9.964844 5.328125 18.675782 13.289063 23.449219.210937 8.144531 6.863281 14.683594 15.058593 14.683594h2.511719c2.003906 0 3.910156-.394531 5.660156-1.105469-5.402344-2.191406-9.242187-7.421875-9.398437-13.574218zm0 0" fill="#eef6ff"/><path d="m145.355469 355.742188c-4.109375 0-7.441407-3.332032-7.441407-7.441407v-7.742187c0-4.109375 3.332032-7.441406 7.441407-7.441406 4.113281 0 7.441406 3.332031 7.441406 7.441406v7.742187c.003906 4.109375-3.328125 7.441407-7.441406 7.441407zm0 0" fill="#424f59"/><path d="m166.191406 355.742188c-4.105468 0-7.4375-3.332032-7.4375-7.441407v-7.742187c0-4.109375 3.332032-7.441406 7.4375-7.441406 4.113282 0 7.445313 3.332031 7.445313 7.441406v7.742187c0 4.109375-3.332031 7.441407-7.445313 7.441407zm0 0" fill="#424f59"/><path d="m512 445c0 2.75-2.25 5-5 5h-502c-2.75 0-5-2.25-5-5v-26c0-2.75 2.25-5 5-5h502c2.75 0 5 2.25 5 5zm0 0" fill="#2e4c89"/><path d="m30 445v-26c0-2.75 2.25-5 5-5h-30c-2.75 0-5 2.25-5 5v26c0 2.75 2.25 5 5 5h30c-2.75 0-5-2.25-5-5zm0 0" fill="#293d7c"/></svg>