<svg height="512pt" viewBox="-11 0 512 512.002" width="512pt" xmlns="http://www.w3.org/2000/svg"><path d="m490 267.003906c0 135.308594-109.6875 245-245 245-135.308594 0-245-109.691406-245-245 0-135.3125 109.691406-245 245-245 135.3125 0 245 109.6875 245 245zm0 0" fill="#91e0e8"/><path d="m179.875 31.058594c0 17.15625-13.90625 31.0625-31.058594 31.0625-17.15625 0-31.058594-13.90625-31.058594-31.0625 0-17.152344 13.902344-31.058594 31.058594-31.058594 17.152344 0 31.058594 13.90625 31.058594 31.058594zm0 0" fill="#37c47a"/><path d="m148.816406.00390625c-3.375 0-6.625.54296875-9.667968 1.53906275l39.1875 39.183593c.992187-3.042968 1.539062-6.289062 1.539062-9.667968 0-1.050782-.054688-2.089844-.15625-3.117188l-27.785156-27.785156c-1.027344-.1015625-2.066406-.15234375-3.117188-.15234375zm0 0" fill="#60d882"/><path d="m131.273438 5.433594c-2.773438 1.902344-5.222657 4.238281-7.25 6.917968l43.5 43.496094c2.679687-2.023437 5.019531-4.472656 6.921874-7.246094zm0 0" fill="#60d882"/><path d="m119.824219 19.914062c-1.332031 3.460938-2.066407 7.21875-2.066407 11.144532 0 .328125.011719.65625.023438.980468l30.050781 30.050782c.328125.011718.652344.027344.984375.027344 3.925782 0 7.683594-.738282 11.144532-2.070313zm0 0" fill="#60d882"/><path d="m414.175781 140.542969c-.605469-.632813-1.398437-1.050781-2.261719-1.191407l-21.828124-3.613281c-.21875.390625-.457032.769531-.734376 1.132813l-14.054687 18.277344c-.277344.359374-.585937.683593-.90625.992187l9.097656 20.175781c.359375.796875.96875 1.457032 1.734375 1.878906 3.984375 2.199219 9.082032 1.132813 11.859375-2.476562 1.734375-2.253906 2.332031-5.140625 1.644531-7.914062 2.859376-.046876 5.492188-1.367188 7.230469-3.625 1.734375-2.257813 2.332031-5.140626 1.644531-7.914063 2.859376-.046875 5.492188-1.371094 7.226563-3.625 2.777344-3.609375 2.496094-8.808594-.652344-12.097656zm0 0" fill="#fe3745"/><path d="m256.355469 63.691406 14.054687-18.28125c.277344-.355468.585938-.683594.910156-.992187l-9.097656-20.175781c-.363281-.796876-.96875-1.457032-1.734375-1.878907-3.984375-2.199219-9.085937-1.132812-11.859375 2.476563-1.738281 2.257812-2.335937 5.140625-1.648437 7.917968-2.859375.046876-5.492188 1.367188-7.226563 3.621094-1.734375 2.257813-2.335937 5.140625-1.648437 7.917969-2.855469.046875-5.492188 1.367187-7.226563 3.621094-2.777344 3.609375-2.496094 8.8125.652344 12.097656.605469.632813 1.398438 1.050781 2.261719 1.195313l21.828125 3.609374c.21875-.390624.457031-.769531.734375-1.128906zm0 0" fill="#fe3745"/><path d="m236.410156 54.195312c1.734375-2.253906 4.371094-3.578124 7.226563-3.625-.6875-2.773437-.085938-5.65625 1.648437-7.914062s4.367188-3.578125 7.226563-3.625c-.6875-2.773438-.089844-5.660156 1.644531-7.914062 2.285156-2.972657 6.144531-4.214844 9.664062-3.335938l-1.597656-3.542969c-.359375-.796875-.96875-1.453125-1.734375-1.875-3.984375-2.199219-9.085937-1.132812-11.859375 2.476563-1.734375 2.253906-2.335937 5.140625-1.648437 7.914062-2.855469.046875-5.492188 1.367188-7.226563 3.625-1.734375 2.253906-2.335937 5.140625-1.644531 7.914063-2.859375.046875-5.496094 1.367187-7.230469 3.625-2.773437 3.609375-2.492187 8.808593.652344 12.097656.605469.632813 1.398438 1.050781 2.261719 1.191406l.832031.136719c-.394531-2.464844.1875-5.070312 1.785156-7.148438zm0 0" fill="#ea2a3d"/><path d="m388.882812 124.527344c-2.816406-2.164063-6.632812-2.25-9.734374-.550782-.625 1.855469-1.539063 3.621094-2.761719 5.210938l-11.84375 15.402344c-1.234375 1.601562-2.699219 2.953125-4.335938 4.035156-.835937 3.421875.226563 7.078125 3.039063 9.238281 3.878906 2.980469 9.65625 2.035157 12.839844-2.105469l14.058593-18.277343c3.183594-4.140625 2.617188-9.96875-1.261719-12.953125zm0 0" fill="#52bbef"/><path d="m269.320312 71.371094 11.84375-15.402344c1.234376-1.601562 2.699219-2.953125 4.335938-4.035156.832031-3.421875-.230469-7.078125-3.039062-9.238282-3.878907-2.980468-9.65625-2.035156-12.84375 2.105469l-14.054688 18.277344c-3.183594 4.140625-2.617188 9.972656 1.261719 12.953125 2.816406 2.164062 6.628906 2.25 9.730469.554688.617187-1.832032 1.523437-3.601563 2.765624-5.214844zm0 0" fill="#52bbef"/><path d="m261.257812 67.601562 14.054688-18.277343c2.371094-3.082031 6.175781-4.390625 9.570312-3.628907-.558593-1.148437-1.363281-2.183593-2.421874-3-3.878907-2.980468-9.65625-2.035156-12.84375 2.105469l-14.054688 18.277344c-3.183594 4.140625-2.617188 9.972656 1.261719 12.953125.992187.761719 2.109375 1.265625 3.273437 1.523438-1.480468-3.050782-1.15625-6.945313 1.160156-9.953126zm0 0" fill="#2cb0f2"/><path d="m365.335938 145.199219c-6.371094 8.28125-18.355469 9.84375-26.640626 3.476562l-66.6875-51.277343c-8.28125-6.371094-9.847656-18.355469-3.480468-26.636719l11.84375-15.402344c6.371094-8.28125 18.355468-9.84375 26.640625-3.476563l66.6875 51.277344c8.28125 6.371094 9.847656 18.355469 3.476562 26.636719zm0 0" fill="#fe3745"/><path d="m279.441406 80.113281 12.382813-16.101562c5.355469-6.960938 14.507812-9.375 22.390625-6.589844l-7.203125-5.539063c-8.285157-6.367187-20.269531-4.804687-26.640625 3.476563l-11.84375 15.402344c-6.367188 8.277343-4.800782 20.265625 3.480468 26.636719l5.855469 4.5c-3.730469-6.722657-3.386719-15.328126 1.578125-21.785157zm0 0" fill="#ea2a3d"/><path d="m313.085938 79.289062c-5.238282.191407-9.039063.6875-14.152344 1.847657-.1875-5.238281-.683594-9.039063-1.847656-14.148438 5.238281-.1875 9.042968-.6875 14.152343-1.847656.191407 5.238281.6875 9.039063 1.847657 14.148437zm0 0" fill="#fff"/><path d="m329.273438 91.738281c-5.238282.1875-9.039063.6875-14.152344 1.847657-.1875-5.238282-.683594-9.039063-1.847656-14.152344 5.238281-.1875 9.039062-.6875 14.152343-1.847656.191407 5.238281.6875 9.042968 1.847657 14.152343zm0 0" fill="#ffd00d"/><path d="m345.460938 104.183594c-5.238282.191406-9.039063.6875-14.152344 1.847656-.1875-5.234375-.683594-9.039062-1.847656-14.148438 5.238281-.191406 9.039062-.6875 14.152343-1.847656.191407 5.238282.6875 9.039063 1.847657 14.148438zm0 0" fill="#fff"/><path d="m361.648438 116.632812c-5.238282.1875-9.039063.6875-14.152344 1.847657-.1875-5.238281-.6875-9.039063-1.847656-14.152344 5.238281-.1875 9.039062-.683594 14.152343-1.847656.191407 5.238281.6875 9.042969 1.847657 14.152343zm0 0" fill="#ffd00d"/><path d="m332.621094 121.269531c1.164062 5.109375 1.65625 8.914063 1.847656 14.148438 5.113281-1.160157 8.914062-1.65625 14.152344-1.847657-1.160156-5.109374-1.65625-8.910156-1.847656-14.148437-5.113282 1.160156-8.914063 1.65625-14.152344 1.847656zm0 0" fill="#fff"/><path d="m316.433594 108.820312c1.164062 5.113282 1.660156 8.914063 1.847656 14.152344 5.113281-1.160156 8.914062-1.660156 14.152344-1.847656-1.160156-5.113281-1.65625-8.914062-1.847656-14.152344-5.113282 1.164063-8.914063 1.660156-14.152344 1.847656zm0 0" fill="#ffd00d"/><path d="m300.246094 96.375c1.160156 5.109375 1.660156 8.910156 1.847656 14.148438 5.113281-1.160157 8.914062-1.65625 14.152344-1.847657-1.160156-5.109375-1.65625-8.910156-1.847656-14.148437-5.113282 1.160156-8.914063 1.65625-14.152344 1.847656zm0 0" fill="#fff"/><path d="m284.058594 83.925781c1.164062 5.109375 1.660156 8.914063 1.847656 14.152344 5.113281-1.164063 8.914062-1.660156 14.152344-1.847656-1.160156-5.113281-1.65625-8.914063-1.847656-14.152344-5.113282 1.160156-8.914063 1.660156-14.152344 1.847656zm0 0" fill="#ffd00d"/><path d="m369.488281 224.714844h40.640625c-2.289062-15.511719-15.644531-27.421875-31.792968-27.421875-5.117188 0-9.953126 1.199219-14.246094 3.328125 3.71875 5.234375 5.914062 11.621094 5.914062 18.519531 0 1.902344-.191406 3.761719-.515625 5.574219zm0 0" fill="#02af8e"/><path d="m369.75 215.183594c4.3125-7.710938 11.710938-13.464844 20.523438-15.589844-3.691407-1.480469-7.71875-2.300781-11.9375-2.300781-5.117188 0-9.953126 1.199219-14.25 3.328125 3 4.21875 5 9.183594 5.664062 14.5625zm0 0" fill="#159e97"/><path d="m221.375 188.457031c1.996094 0 3.910156.34375 5.707031.953125l.140625-.503906c.226563-.832031.578125-1.597656 1.039063-2.28125l.683593-1.007812c-.007812-.046876-.011718-.097657-.019531-.144532l-20.386719-6.167968c-.632812-.191407-1.195312-.589844-1.589843-1.121094-2.429688-3.308594-2.070313-7.988282.832031-10.890625 1.582031-1.578125 3.679688-2.449219 5.910156-2.449219.324219 0 .648438.019531.972656.054688l1.25.140624-.113281-1c-5.015625-3.46875-11.097656-5.507812-17.65625-5.507812-16.773437 0-30.421875 13.300781-31.019531 29.925781zm0 0" fill="#fff"/><path d="m221.375 188.457031c1.996094 0 3.910156.34375 5.707031.953125l.140625-.503906c.226563-.832031.578125-1.597656 1.039063-2.28125l.378906-.5625-.96875-.96875-19.132813-5.789062c-.632812-.191407-1.195312-.589844-1.585937-1.121094-2.429687-3.308594-2.074219-7.988282.828125-10.890625.355469-.355469.738281-.667969 1.140625-.949219l-7.65625-7.65625c-1.027344-.101562-2.066406-.15625-3.117187-.15625-3.378907 0-6.625.546875-9.667969 1.542969l28.386719 28.382812zm0 0" fill="#e26693"/><path d="m205.101562 188.457031-24.5-24.496093c-2.773437 1.902343-5.222656 4.238281-7.246093 6.917968l17.574219 17.578125zm0 0" fill="#e26693"/><path d="m179.164062 188.457031-10.011718-10.011719c-1.203125 3.125-1.90625 6.492188-2.03125 10.011719zm0 0" fill="#e26693"/><path d="m314.128906 196.300781.695313.605469.660156-.644531c6.035156-5.921875 14.007813-9.183594 22.453125-9.183594.652344 0 1.300781.027344 1.945312.0625-1.042968-16.820313-15.011718-30.136719-32.09375-30.136719-14.101562 0-26.074218 9.082032-30.414062 21.710938 12.351562 1.523437 25.453125 7.734375 36.753906 17.585937zm0 0" fill="#ffd00d"/><path d="m289.570312 181.65625c2.882813-12.054688 12.546876-21.476562 24.746094-23.992188-2.105468-.433593-4.289062-.660156-6.527344-.660156-14.101562 0-26.074218 9.082032-30.414062 21.710938 4.015625.496094 8.109375 1.488281 12.195312 2.941406zm0 0" fill="#ffaf10"/><path d="m335.375 224.714844h35.144531c.308594-1.8125.484375-3.671875.484375-5.574219 0-18.261719-14.804687-33.0625-33.066406-33.0625-9.382812 0-17.847656 3.914063-23.867188 10.195313 1.503907 1.304687 2.980469 2.660156 4.410157 4.089843 7.355469 7.351563 13.101562 15.707031 16.894531 24.351563zm0 0" fill="#f87eab"/><path d="m370.5 224.714844c.3125-1.8125.503906-3.671875.503906-5.574219 0-1.121094-.058594-2.230469-.167968-3.320313l-29.578126-29.578124c-1.09375-.105469-2.199218-.164063-3.320312-.164063-3.59375 0-7.050781.582031-10.289062 1.640625l37 36.996094zm0 0" fill="#e26693"/><path d="m333.933594 221.609375 3.105468 3.105469h15.085938l-32.859375-32.855469c-1.882813 1.289063-3.605469 2.785156-5.179687 4.429687 1.496093 1.300782 2.96875 2.648438 4.394531 4.074219 6.46875 6.46875 11.703125 13.710938 15.453125 21.246094zm0 0" fill="#e26693"/><path d="m229.136719 185.539062 17.660156-17.660156c.257813-.261718.539063-.492187.828125-.707031l-6.105469-20.179687c-.253906-.84375-.777343-1.582032-1.488281-2.105469-3.699219-2.71875-8.941406-2.316407-12.1875.929687-2.03125 2.03125-3.007812 4.835938-2.683594 7.703125-2.863281-.328125-5.671875.652344-7.703125 2.679688-2.03125 2.03125-3.007812 4.839843-2.679687 7.703125-2.867188-.324219-5.675782.652344-7.707032 2.683594-3.246093 3.246093-3.644531 8.488281-.925781 12.1875.519531.710937 1.257813 1.234374 2.101563 1.488281l20.179687 6.101562c.21875-.289062.453125-.566406.710938-.824219zm0 0" fill="#ea2a3d"/><path d="m213.941406 173.714844c2.03125-2.027344 4.839844-3.007813 7.707032-2.679688-.328126-2.867187.648437-5.675781 2.679687-7.703125 2.03125-2.03125 4.835937-3.007812 7.703125-2.683593-.328125-2.863282.652344-5.671876 2.683594-7.703126 2.089844-2.089843 5.003906-2.992187 7.804687-2.648437l-1-3.304687c-.253906-.84375-.777343-1.582032-1.488281-2.105469-3.699219-2.71875-8.9375-2.316407-12.1875.929687-2.03125 2.03125-3.007812 4.835938-2.679688 7.703125-2.867187-.328125-5.675781.652344-7.707031 2.679688-2.027343 2.03125-3.003906 4.839843-2.679687 7.703125-2.867188-.324219-5.671875.652344-7.703125 2.683594-3.25 3.246093-3.648438 8.488281-.929688 12.1875.523438.710937 1.261719 1.234374 2.105469 1.488281l3 .910156c-.226562-2.691406.691406-5.453125 2.691406-7.457031zm0 0" fill="#b7092b"/><path d="m253.648438 204.09375 18.761718-10.046875c.421875-.226563.894532-.34375 1.371094-.34375.144531 0 .292969.011719.441406.03125 3.859375.589844 6.769532 3.984375 6.769532 7.890625 0 2.441406-1.101563 4.71875-3.019532 6.246094l-.984375.785156.984375.78125c1.917969 1.527344 3.019532 3.804688 3.019532 6.246094s-1.101563 4.71875-3.019532 6.246094l-.984375.785156.984375.78125c.453125.363281.84375.78125 1.199219 1.222656h57.277344c-3.757813-8.703125-9.550781-17.351562-17.261719-25.0625-19.421875-19.417969-44.753906-26.804688-62.019531-19.589844l-15.84375 15.84375c-.25.597656-.480469 1.207032-.695313 1.820313 1.398438-1.175781 3.128906-1.851563 4.949219-1.851563 4.320313 0 7.847656 3.644532 8.070313 8.214844zm0 0" fill="#ea2a3d"/><path d="m325.449219 206.628906c-1.921875-2.390625-4.011719-4.722656-6.261719-6.972656-3.714844-3.714844-7.648438-6.984375-11.695312-9.800781l-60.113282-.003907-6.011718 6.011719c-.25.601563-.480469 1.214844-.703126 1.832031 1.394532-1.15625 3.109376-1.820312 4.914063-1.820312 4.316406 0 7.847656 3.648438 8.070313 8.21875l18.761718-10.046875c.421875-.226563.894532-.347656 1.371094-.347656.144531 0 .292969.011719.441406.035156 3.859375.589844 6.769532 3.980469 6.769532 7.890625 0 1.847656-.632813 3.597656-1.769532 5.003906zm0 0" fill="#a00026"/><path d="m279.179688 224.714844h57.285156c-.539063-1.246094-1.113282-2.496094-1.734375-3.742188h-55.765625c-.304688.339844-.628906.664063-.992188.957032l-.984375.78125.984375.78125c.425782.34375.832032.757812 1.207032 1.222656zm0 0" fill="#a00026"/><path d="m253.671875 224.714844h26.761719c-.503906-.742188-1.113282-1.425782-1.839844-2.003906 2.160156-1.71875 3.398438-4.28125 3.398438-7.027344 0-2.75-1.238282-5.3125-3.398438-7.03125 2.160156-1.71875 3.398438-4.28125 3.398438-7.027344 0-4.398438-3.273438-8.214844-7.621094-8.878906-.835938-.128906-1.6875.019531-2.433594.417968l-18.402344 9.855469c.082032.496094.136719 1.003907.136719 1.527344zm0 0" fill="#2bb381"/><path d="m258.78125 167.523438-.351562-.351563c-3.394532-3.394531-8.945313-3.394531-12.339844 0l-17.660156 17.660156c-1.214844 1.210938-1.964844 2.707031-2.308594 4.277344 5.289062 1.457031 9.691406 5.296875 11.820312 10.617187l.371094.921876.519531-.847657c.738281-1.199219 1.71875-2.15625 2.84375-2.828125l17.105469-17.109375c3.394531-3.390625 3.394531-8.945312 0-12.339843zm0 0" fill="#794091"/><path d="m246.089844 167.171875-17.660156 17.660156c-1.214844 1.210938-1.964844 2.707031-2.308594 4.277344 5.289062 1.457031 9.691406 5.296875 11.820312 10.617187l.371094.921876.519531-.847657c.417969-.679687.921875-1.277343 1.476563-1.796875-.71875-.1875-1.292969-.363281-1.410156-.480468l-.351563-.351563c-3.394531-3.394531-3.394531-8.949219 0-12.339844l17.65625-17.660156c.351563-.347656.726563-.652344 1.113281-.929687-3.402344-2.417969-8.179687-2.113282-11.226562.929687zm0 0" fill="#62317c"/><path d="m245.578125 195.378906c-3.21875 0-6.011719 1.929688-7.484375 4.742188.714844 1.929687 1.128906 4.007812 1.128906 6.179687v18.417969h14.949219v-20.167969c0-5.046875-3.867187-9.171875-8.59375-9.171875zm0 0" fill="#e26693"/><path d="m79.507812 215.683594c0 2.746094 1.238282 5.308594 3.398438 7.027344-.726562.578124-1.335938 1.257812-1.839844 2.003906h27.265625v-20.167969c0-.433594.039063-.859375.101563-1.277344l-18.871094-10.105469c-.746094-.398437-1.597656-.546874-2.433594-.417968-4.34375.664062-7.621094 4.480468-7.621094 8.878906 0 2.746094 1.238282 5.308594 3.398438 7.027344-2.160156 1.71875-3.398438 4.28125-3.398438 7.03125zm0 0" fill="#2bb381"/><path d="m79.507812 215.683594c0 2.746094 1.238282 5.308594 3.398438 7.027344-.726562.578124-1.335938 1.257812-1.839844 2.003906h10.496094c.5-.746094 1.113281-1.425782 1.839844-2.003906-2.164063-1.71875-3.402344-4.28125-3.402344-7.027344 0-2.75 1.238281-5.3125 3.402344-7.03125-2.164063-1.71875-3.402344-4.28125-3.402344-7.027344 0-2.589844 1.144531-4.976562 2.96875-6.636719l-3.40625-1.824219c-.746094-.398437-1.597656-.546874-2.433594-.417968-4.34375.664062-7.621094 4.480468-7.621094 8.878906 0 2.746094 1.238282 5.308594 3.398438 7.027344-2.160156 1.71875-3.398438 4.28125-3.398438 7.03125zm0 0" fill="#28a5a5"/><path d="m122.78125 224.714844v-18.414063c0-1.953125.339844-3.824219.9375-5.578125-1.367188-3.144531-4.347656-5.347656-7.792969-5.347656-4.726562 0-8.59375 4.128906-8.59375 9.171875v20.167969zm0 0" fill="#e26693"/><path d="m114 224.714844v-20.167969c0-3.78125 2.175781-7.050781 5.257812-8.449219-1.027343-.464844-2.152343-.722656-3.332031-.722656-4.726562 0-8.59375 4.128906-8.59375 9.171875v20.167969zm0 0" fill="#f24976"/><path d="m239.722656 224.714844v-18.414063c0-10.089843-8.257812-18.34375-18.347656-18.34375h-81.246094c-10.089844 0-18.347656 8.253907-18.347656 18.34375v18.414063zm0 0" fill="#2bb381"/><path d="m132 224.714844v-18.414063c0-10.089843 8.257812-18.34375 18.347656-18.34375h-10.21875c-10.09375 0-18.347656 8.253907-18.347656 18.34375v18.414063zm0 0" fill="#28a5a5"/><path d="m160.914062 205.363281c-3.898437 3.230469-6.515624 5.847657-9.746093 9.746094-3.226563-3.898437-5.847657-6.515625-9.746094-9.746094 3.898437-3.226562 6.519531-5.847656 9.746094-9.746093 3.230469 3.898437 5.847656 6.519531 9.746093 9.746093zm0 0" fill="#fff"/><path d="m180.636719 205.363281c-3.898438 3.230469-6.515625 5.847657-9.746094 9.746094-3.230469-3.898437-5.847656-6.515625-9.746094-9.746094 3.898438-3.226562 6.515625-5.847656 9.746094-9.746093 3.230469 3.898437 5.847656 6.519531 9.746094 9.746093zm0 0" fill="#ffd00d"/><path d="m200.359375 205.363281c-3.898437 3.230469-6.519531 5.847657-9.746094 9.746094-3.230469-3.898437-5.847656-6.515625-9.75-9.746094 3.902344-3.226562 6.519531-5.847656 9.75-9.746093 3.230469 3.898437 5.847657 6.519531 9.746094 9.746093zm0 0" fill="#fff"/><path d="m220.078125 205.363281c-3.898437 3.230469-6.515625 5.847657-9.746094 9.746094-3.230469-3.898437-5.847656-6.515625-9.746093-9.746094 3.898437-3.226562 6.515624-5.847656 9.746093-9.746093 3.230469 3.898437 5.847657 6.519531 9.746094 9.746093zm0 0" fill="#ffd00d"/><path d="m218.570312 224.714844c-3.09375-2.675782-5.449218-5.09375-8.238281-8.457032-2.789062 3.363282-5.140625 5.78125-8.234375 8.457032zm0 0" fill="#fff"/><path d="m198.851562 224.714844c-3.097656-2.675782-5.449218-5.09375-8.238281-8.457032-2.789062 3.363282-5.140625 5.78125-8.238281 8.457032zm0 0" fill="#ffd00d"/><path d="m179.128906 224.714844c-3.097656-2.675782-5.449218-5.09375-8.238281-8.457032-2.789063 3.363282-5.140625 5.78125-8.238281 8.457032zm0 0" fill="#fff"/><path d="m159.40625 224.714844c-3.09375-2.675782-5.449219-5.09375-8.238281-8.457032-2.785157 3.363282-5.140625 5.78125-8.234375 8.457032zm0 0" fill="#ffd00d"/><path d="m418.070312 264.292969h-346.136718c-18.640625 23.277343-29.792969 52.804687-29.792969 84.945312v26.722657c0 12.050781 1.574219 23.734374 4.515625 34.859374 44.53125 61.308594 116.777344 101.183594 198.34375 101.183594 81.570312 0 153.816406-39.875 198.347656-101.183594 2.941406-11.125 4.515625-22.808593 4.515625-34.859374v-26.722657c0-32.140625-11.15625-61.667969-29.792969-84.945312zm0 0" fill="#db722c"/><path d="m134.113281 264.292969c-11.941406 23.277343-19.089843 52.804687-19.089843 84.945312v26.722657c0 53.753906 19.980468 100.21875 48.976562 122.316406 25.359375 8.878906 52.613281 13.726562 81 13.726562 28.390625 0 55.644531-4.847656 81-13.726562 29-22.09375 48.976562-68.5625 48.976562-122.316406v-26.722657c0-32.140625-7.148437-61.667969-19.085937-84.945312zm0 0" fill="#ef8318"/><path d="m196.292969 264.292969c-5.246094 23.277343-8.386719 52.804687-8.386719 84.945312v26.722657c0 69.113281 14.507812 126.183593 33.292969 134.886718 7.832031.753906 15.769531 1.15625 23.800781 1.15625s15.96875-.402344 23.804688-1.15625c18.78125-8.703125 33.289062-65.773437 33.289062-134.886718v-26.722657c0-32.140625-3.140625-61.667969-8.386719-84.945312zm0 0" fill="#db722c"/><g fill="#333031"><path d="m218.832031 359.300781c-2.089843 0-4.023437-1.117187-5.066406-2.929687-1.046875-1.808594-1.046875-4.042969 0-5.851563l26.164063-45.320312c1.046874-1.808594 2.980468-2.925781 5.070312-2.925781s4.023438 1.117187 5.070312 2.925781l26.167969 45.320312c1.046875 1.808594 1.046875 4.042969 0 5.851563-1.046875 1.8125-2.980469 2.929687-5.070312 2.929687zm0 0"/><path d="m296.800781 334.304688c-2.332031 0-4.4375-1.378907-5.367187-3.515626-.933594-2.136718-.503906-4.621093 1.082031-6.324218l36.382813-39.074219c1.109374-1.1875 2.660156-1.863281 4.285156-1.863281s3.175781.675781 4.285156 1.863281l36.378906 39.074219c1.585938 1.703125 2.011719 4.1875 1.082032 6.324218-.929688 2.136719-3.039063 3.515626-5.367188 3.515626zm0 0"/><path d="m120.4375 334.304688c-2.328125 0-4.4375-1.378907-5.367188-3.515626-.933593-2.136718-.503906-4.621093 1.082032-6.324218l36.378906-39.074219c1.109375-1.1875 2.660156-1.863281 4.285156-1.863281 1.628906 0 3.179688.675781 4.285156 1.863281l36.382813 39.074219c1.589844 1.703125 2.015625 4.1875 1.085937 6.324218-.929687 2.136719-3.039062 3.515626-5.371093 3.515626zm0 0"/><path d="m325.316406 377.921875c-1.078125-1.25-2.84375-1.25-3.921875 0l-11.75 13.597656c-1.078125 1.246094-2.84375 1.246094-3.921875 0l-11.75-13.597656c-1.078125-1.25-2.84375-1.25-3.921875 0l-11.746093 13.597656c-1.082032 1.246094-2.84375 1.246094-3.925782 0l-11.746094-13.597656c-1.082031-1.25-2.847656-1.25-3.925781 0l-11.746093 13.597656c-1.078126 1.246094-2.84375 1.246094-3.925782 0l-11.746094-13.597656c-1.078124-1.25-2.84375-1.25-3.921874 0l-11.75 13.597656c-1.078126 1.246094-2.84375 1.246094-3.921876 0l-11.75-13.597656c-1.078124-1.25-2.84375-1.25-3.921874 0l-11.75 13.597656c-1.078126 1.246094-2.84375 1.246094-3.921876 0l-11.746093-13.597656c-1.078125-1.25-2.84375-1.25-3.921875 0l-10.511719 12.164063c-1.082031 1.25-1.199219 3.382812-.269531 4.746093l35.625 51.988281c.933594 1.359376 2.566406 1.441407 3.632812.183594l16.335938-19.351562c1.0625-1.261719 2.808594-1.261719 3.871094 0l12.910156 15.289062c1.066406 1.261719 2.808594 1.261719 3.871094 0l12.910156-15.289062c1.066406-1.261719 2.808594-1.261719 3.871094 0l12.910156 15.289062c1.066406 1.261719 2.808594 1.261719 3.871094 0l12.910156-15.289062c1.0625-1.261719 2.808594-1.261719 3.871094 0l16.34375 19.351562c1.0625 1.257813 2.699218 1.175782 3.632812-.183594l35.625-51.992187c.929688-1.359375.8125-3.492187-.269531-4.742187zm0 0"/></g><path d="m234.742188 356.371094c-1.046876-1.808594-1.046876-4.042969 0-5.851563l20.746093-35.933593-5.417969-9.386719c-1.042968-1.8125-2.976562-2.925781-5.066406-2.925781-2.09375 0-4.027344 1.113281-5.074218 2.925781l-26.164063 45.320312c-1.046875 1.808594-1.046875 4.042969 0 5.851563 1.042969 1.8125 2.976563 2.929687 5.070313 2.929687h20.976562c-2.089844 0-4.027344-1.117187-5.070312-2.929687zm0 0" fill="#231f20"/><path d="m312.015625 330.789062c-.929687-2.136718-.503906-4.617187 1.082031-6.324218l30.375-32.621094-6.003906-6.449219c-1.109375-1.191406-2.660156-1.867187-4.285156-1.867187s-3.175782.675781-4.285156 1.867187l-36.382813 39.070313c-1.585937 1.707031-2.011719 4.1875-1.082031 6.324218.929687 2.136719 3.039062 3.519532 5.367187 3.519532h20.582031c-2.328124-.003906-4.4375-1.382813-5.367187-3.519532zm0 0" fill="#231f20"/><path d="m136.015625 330.789062c-.933594-2.136718-.503906-4.617187 1.082031-6.324218l30.191406-32.425782-6.1875-6.644531c-1.105468-1.191406-2.65625-1.867187-4.285156-1.867187-1.625 0-3.175781.675781-4.285156 1.867187l-36.378906 39.070313c-1.585938 1.707031-2.015625 4.1875-1.082032 6.324218.929688 2.136719 3.039063 3.519532 5.367188 3.519532h20.945312c-2.328124-.003906-4.4375-1.382813-5.367187-3.519532zm0 0" fill="#231f20"/><path d="m174.628906 394.828125c-.933594-1.359375-.8125-3.492187.265625-4.742187l2.113281-2.445313-8.398437-9.722656c-1.078125-1.246094-2.84375-1.246094-3.921875 0l-10.511719 12.167969c-1.082031 1.25-1.199219 3.382812-.269531 4.742187l35.625 51.992187c.933594 1.359376 2.566406 1.441407 3.632812.183594l9.5-11.257812zm0 0" fill="#231f20"/><path d="m452.742188 249.359375c-.996094-6.023437-6.148438-10.394531-12.253907-10.394531h-11.632812v15h9.429687c1.515625 9.882812 2.285156 19.925781 2.285156 29.886718 0 107.828126-87.730468 195.554688-195.570312 195.554688-107.835938 0-195.566406-87.726562-195.566406-195.554688 0-9.960937.765625-20.003906 2.28125-29.886718h9.429687v-15h-11.632812c-6.105469 0-11.257813 4.375-12.25 10.394531-1.878907 11.382813-2.828125 22.988281-2.828125 34.492187 0 116.101563 94.460937 210.554688 210.566406 210.554688 116.109375 0 210.570312-94.457031 210.570312-210.554688 0-11.503906-.953124-23.109374-2.828124-34.492187zm0 0" fill="#ffd782"/><path d="m429.855469 255.292969c0 5.5-4.5 10-10 10h-349.710938c-5.5 0-10-4.5-10-10v-21.078125c0-5.5 4.5-10 10-10h349.710938c5.5 0 10 4.5 10 10zm0 0" fill="#ff9518"/><path d="m91.289062 255.292969v-21.078125c0-5.5 4.5-10 10-10h-31.144531c-5.5 0-10 4.5-10 10v21.078125c0 5.5 4.5 10 10 10h31.144531c-5.5 0-10-4.5-10-10zm0 0" fill="#ef8318"/><path d="m228.777344 89.65625c-1.234375-2.136719-3.34375-3.570312-5.792969-3.933594.90625-2.304687.722656-4.851562-.511719-6.984375-1.234375-2.136719-3.34375-3.570312-5.792968-3.9375.90625-2.300781.722656-4.847656-.511719-6.984375-1.972657-3.414062-6.230469-4.910156-9.902344-3.476562-.703125.273437-1.304687.769531-1.703125 1.414062l-11.179688 18.011719 10.191407 17.644531 21.1875-.675781c.757812-.023437 1.484375-.292969 2.078125-.765625 3.074218-2.464844 3.910156-6.898438 1.9375-10.3125zm0 0" fill="#ff9518"/><path d="m84.097656 146.855469-21.1875.675781c-.757812.027344-1.484375.292969-2.074218.769531-3.078126 2.460938-3.910157 6.894531-1.941407 10.3125 1.234375 2.132813 3.34375 3.566407 5.792969 3.933594-.90625 2.304687-.71875 4.851563.511719 6.984375 1.234375 2.132812 3.347656 3.566406 5.792969 3.933594-.90625 2.304687-.71875 4.851562.511718 6.984375 1.972656 3.417969 6.230469 4.910156 9.902344 3.480469.707031-.277344 1.304688-.773438 1.703125-1.414063l11.179687-18.011719zm0 0" fill="#ff9518"/><path d="m80.441406 179.21875c-1.230468-2.136719-1.417968-4.683594-.511718-6.988281-2.449219-.367188-4.5625-1.796875-5.792969-3.933594s-1.417969-4.679687-.511719-6.984375c-2.449219-.367188-4.5625-1.800781-5.792969-3.933594-1.90625-3.304687-1.183593-7.550781 1.648438-10.058594l-6.570313.210938c-.753906.023438-1.484375.292969-2.074218.765625-3.078126 2.464844-3.910157 6.898437-1.9375 10.316406 1.230468 2.132813 3.339843 3.566407 5.789062 3.933594-.90625 2.304687-.71875 4.847656.515625 6.984375 1.230469 2.132812 3.34375 3.566406 5.789063 3.933594-.902344 2.304687-.71875 4.847656.515624 6.984375 1.96875 3.414062 6.226563 4.910156 9.898438 3.476562.707031-.273437 1.304688-.769531 1.703125-1.414062l.242187-.390625c-1.175781-.683594-2.195312-1.667969-2.910156-2.902344zm0 0" fill="#ef8318"/><path d="m182.226562 91.257812c-12.65625-10.054687-35.5-9.636718-56.078124 2.242188-20.578126 11.878906-32.359376 31.453125-29.976563 47.441406l9.273437 16.066406c12.65625 10.054688 35.5 9.640626 56.078126-2.242187 20.578124-11.878906 32.359374-31.453125 29.980468-47.4375zm0 0" fill="#ff9518"/><path d="m126.148438 93.5c-20.578126 11.878906-32.359376 31.453125-29.976563 47.441406l9.269531 16.058594c7.046875 5.601562 17.25 7.960938 28.46875 6.890625-10.800781-1.09375-19.785156-5.820313-24.515625-14.015625-9.773437-16.917969 2.273438-42.15625 26.898438-56.375 9.121093-5.265625 18.683593-8.273438 27.613281-9.125-11.5-1.164062-25.058594 1.792969-37.757812 9.125zm0 0" fill="#ef8318"/><path d="m204.703125 101.371094c2.0625 3.570312.828125 8.175781-2.742187 10.234375l-.367188.214843c-3.570312 2.058594-8.175781.824219-10.234375-2.742187l-10.722656-18.566406c-2.058594-3.570313-.824219-8.175781 2.742187-10.234375l.371094-.214844c3.566406-2.058594 8.171875-.824219 10.234375 2.742188zm0 0" fill="#60d882"/><path d="m201.65625 109.078125-10.71875-18.566406c-1.832031-3.171875-1.054688-7.164063 1.648438-9.457031-2.347657-2.164063-5.9375-2.667969-8.835938-.992188l-.371094.214844c-3.566406 2.058594-4.800781 6.664062-2.742187 10.234375l10.722656 18.566406c2.058594 3.566406 6.664063 4.800781 10.234375 2.742187l.367188-.214843c.398437-.226563.757812-.492188 1.097656-.777344-.542969-.5-1.015625-1.085937-1.402344-1.75zm0 0" fill="#37c47a"/><path d="m107.035156 157.757812c2.058594 3.566407.828125 8.171876-2.742187 10.234376l-.371094.214843c-3.570313 2.058594-8.171875.824219-10.234375-2.742187l-10.722656-18.570313c-2.058594-3.566406-.824219-8.171875 2.746094-10.230469l.367187-.214843c3.570313-2.058594 8.175781-.828125 10.234375 2.742187zm0 0" fill="#60d882"/><path d="m103.71875 165.464844-10.722656-18.570313c-1.859375-3.222656-1.023438-7.289062 1.789062-9.5625-2.347656-2.066406-5.855468-2.527343-8.707031-.882812l-.367187.210937c-3.570313 2.0625-4.804688 6.667969-2.746094 10.234375l10.722656 18.570313c2.058594 3.566406 6.664062 4.800781 10.234375 2.738281l.371094-.214844c.34375-.195312.65625-.425781.953125-.667969-.589844-.519531-1.109375-1.136718-1.527344-1.855468zm0 0" fill="#37c47a"/><path d="m122.148438 125.085938c-1.710938 4.609374-2.640626 8.082031-3.464844 12.925781-4.609375-1.707031-8.082032-2.640625-12.925782-3.460938 1.710938-4.609375 2.640626-8.082031 3.464844-12.925781 4.605469 1.707031 8.078125 2.636719 12.925782 3.460938zm0 0" fill="#fff"/><path d="m138.730469 115.511719c-1.710938 4.609375-2.640625 8.082031-3.464844 12.925781-4.609375-1.707031-8.078125-2.640625-12.925781-3.460938 1.710937-4.609374 2.640625-8.082031 3.464844-12.925781 4.609374 1.707031 8.082031 2.640625 12.925781 3.460938zm0 0" fill="#ffd00d"/><path d="m155.316406 105.9375c-1.710937 4.609375-2.640625 8.082031-3.464844 12.925781-4.609374-1.710937-8.082031-2.640625-12.925781-3.460937 1.710938-4.609375 2.640625-8.082032 3.460938-12.925782 4.609375 1.710938 8.082031 2.640626 12.929687 3.460938zm0 0" fill="#fff"/><path d="m171.894531 96.363281c-1.707031 4.609375-2.640625 8.082031-3.460937 12.929688-4.609375-1.710938-8.082032-2.640625-12.925782-3.464844 1.710938-4.605469 2.640626-8.082031 3.460938-12.925781 4.609375 1.710937 8.082031 2.640625 12.925781 3.460937zm0 0" fill="#ffd00d"/><path d="m165.527344 123.179688c4.84375.824218 8.316406 1.753906 12.925781 3.464843.824219-4.84375 1.753906-8.316406 3.460937-12.925781-4.84375-.824219-8.316406-1.753906-12.925781-3.460938-.820312 4.84375-1.753906 8.316407-3.460937 12.921876zm0 0" fill="#fff"/><path d="m148.945312 132.753906c4.84375.824219 8.316407 1.753906 12.925782 3.464844.820312-4.847656 1.753906-8.320312 3.460937-12.925781-4.84375-.824219-8.316406-1.753907-12.925781-3.464844-.820312 4.847656-1.753906 8.320313-3.460938 12.925781zm0 0" fill="#ffd00d"/><path d="m132.359375 142.328125c4.84375.824219 8.320313 1.753906 12.925781 3.464844.824219-4.847657 1.753906-8.320313 3.464844-12.925781-4.84375-.824219-8.316406-1.753907-12.925781-3.464844-.824219 4.84375-1.753907 8.316406-3.464844 12.925781zm0 0" fill="#fff"/><path d="m115.777344 151.902344c4.84375.824218 8.316406 1.753906 12.925781 3.460937.824219-4.84375 1.753906-8.316406 3.464844-12.925781-4.847657-.820312-8.320313-1.75-12.925781-3.460938-.824219 4.84375-1.753907 8.316407-3.464844 12.925782zm0 0" fill="#ffd00d"/><path d="m412.324219 49.09375c0 17.152344-13.90625 31.058594-31.0625 31.058594-17.152344 0-31.058594-13.90625-31.058594-31.058594 0-17.15625 13.90625-31.0625 31.058594-31.0625 17.15625 0 31.0625 13.90625 31.0625 31.0625zm0 0" fill="#02af8e"/><path d="m381.261719 18.035156c-3.375 0-6.621094.546875-9.664063 1.542969l39.183594 39.183594c.996094-3.042969 1.539062-6.292969 1.539062-9.667969 0-1.050781-.050781-2.089844-.15625-3.117188l-27.785156-27.785156c-1.023437-.101562-2.0625-.15625-3.117187-.15625zm0 0" fill="#0f9390"/><path d="m363.722656 23.464844c-2.777344 1.902344-5.226562 4.242187-7.25 6.921875l43.5 43.496093c2.679688-2.027343 5.019532-4.476562 6.921875-7.25zm0 0" fill="#0f9390"/><path d="m352.273438 37.949219c-1.332032 3.460937-2.070313 7.214843-2.070313 11.144531 0 .328125.015625.652344.027344.980469l30.050781 30.050781c.328125.011719.652344.027344.980469.027344 3.929687 0 7.683593-.738282 11.144531-2.070313zm0 0" fill="#0f9390"/></svg>