<svg height="511pt" viewBox="-10 0 511 511.99977" width="511pt" xmlns="http://www.w3.org/2000/svg"><path d="m490.5 267c0 135.308594-109.691406 245-245 245s-245-109.691406-245-245 109.691406-245 245-245 245 109.691406 245 245zm0 0" fill="#ea2a3d"/><path d="m314.160156 337.082031-.996094.75.949219.808594c19.210938 16.332031 30.226563 40.128906 30.226563 65.285156v87.300781c19.078125-8.425781 36.886718-19.203124 53.042968-31.980468-2.03125-54.492188-32.742187-101.648438-77.476562-126.8125-1.863281 1.609375-3.78125 3.160156-5.746094 4.648437zm0 0" fill="#a00026"/><path d="m176.726562 338.78125c-3.539062-1.4375-7.230468-2.484375-11.019531-3.152344-17.75 10.976563-33.070312 25.496094-44.972656 42.578125 1.808594-.933593 3.855469-1.464843 6.019531-1.464843 1.503906 0 2.996094.261718 4.433594.78125l1.515625.546874-.183594-1.601562c-.0625-.539062-.09375-1.015625-.09375-1.457031 0-7.269531 5.914063-13.179688 13.183594-13.179688 3.773437 0 7.3125 1.621094 9.796875 4.394531 5.09375-10.375 12.296875-19.738281 21.320312-27.445312zm0 0" fill="#a00026"/><path d="m154.660156 365.460938c.703125.667968 1.347656 1.40625 1.898438 2.234374l.832031 1.242188.832031-1.242188c2.453125-3.671874 6.554688-5.867187 10.960938-5.867187 7.265625 0 13.179687 5.914063 13.179687 13.183594 0 .285156-.015625.570312-.035156.851562l-.097656 1.261719 1.25-.199219c.765625-.121093 1.453125-.179687 2.097656-.179687 6.710937 0 12.328125 5.035156 13.070313 11.714844l.097656.890624h12.234375l-.023438-1.023437c-.332031-14.351563-6.183593-27.804687-16.476562-37.882813-5.46875-5.355468-11.867188-9.417968-18.816407-12.066406-8.675781 7.507813-15.847656 16.703125-21.003906 27.082032zm0 0" fill="#333031"/><path d="m314.761719 337.878906c8.570312-6.484375 16.199219-14.140625 22.664062-22.726562h-25.789062c-16.304688 13.6875-37.3125 21.945312-60.210938 21.945312h-11.851562c-22.898438 0-43.90625-8.257812-60.210938-21.945312h-25.789062c3.234375 4.296875 6.761719 8.363281 10.554687 12.164062 30.289063 3.917969 54.21875 29.792969 54.832032 61.050782l.019531.980468h2.675781c1.46875 0 2.855469.777344 3.625 2.03125 5.398438 8.808594 8.808594 18.464844 10.140625 28.695313l.113281.871093h6.753906c3.835938 0 7.445313 1.496094 10.15625 4.207032 2.710938 2.710937 4.207032 6.320312 4.207032 10.15625v26.332031c0 7.917969-6.445313 14.355469-14.363282 14.355469h-8.773437c-3.742187 0-7.289063-1.4375-9.984375-4.050782l-.828125-.800781-.679687.933594c-10.871094 14.980469-26.847657 25.566406-44.851563 30.238281 21.691406 6.292969 44.609375 9.683594 68.328125 9.683594 35.558594 0 69.34375-7.585938 99.839844-21.210938v-86.863281c0-26.46875-11.878906-50.148437-30.578125-66.046875zm0 0" fill="#333031"/><path d="m154.660156 365.460938c.703125.667968 1.347656 1.40625 1.898438 2.234374l.832031 1.242188.832031-1.242188c2.453125-3.671874 6.554688-5.867187 10.960938-5.867187 2.664062 0 5.140625.800781 7.214844 2.164063 3.441406-6.609376 7.703124-12.722657 12.664062-18.195313-4.125-3.113281-8.628906-5.601563-13.398438-7.421875-8.675781 7.511719-15.847656 16.707031-21.003906 27.085938zm0 0" fill="#231f20"/><path d="m164.128906 327.316406c11.382813 1.472656 21.855469 6.039063 30.539063 12.835938.839843-.773438 1.691406-1.535156 2.558593-2.273438-8.566406-6.480468-16.1875-14.140625-22.648437-22.726562h-21.003906c3.234375 4.300781 6.761719 8.363281 10.554687 12.164062zm0 0" fill="#231f20"/><path d="m325.042969 383c-11.191407 0-20.296875 8.394531-20.296875 20.492188v23.039062h-51.101563c1.941407 2.503906 3.007813 5.554688 3.007813 8.777344v26.332031c0 5.0625-2.640625 9.511719-6.609375 12.070313h90.296875c2.761718 0 5-2.238282 5-5v-65.21875c0-12.097657-9.105469-20.492188-20.296875-20.492188zm0 0" fill="#231f20"/><path d="m251.425781 337.097656h-11.851562c-5.703125 0-11.289063-.515625-16.714844-1.496094l13.863281 21.984376c4.828125 7.660156 12.726563 7.660156 17.554688 0l13.863281-21.984376c-5.425781.980469-11.011719 1.496094-16.714844 1.496094zm0 0" fill="#ffc987"/><path d="m237.621094 337.070312c-5.027344-.101562-9.957032-.597656-14.761719-1.46875l13.863281 21.984376c4.25 6.742187 10.875 7.542968 15.695313 2.417968-.65625-.699218-1.28125-1.5-1.859375-2.417968zm0 0" fill="#efb06c"/><path d="m129.476562 213.238281c3.660157-2.933593 8.296876-4.703125 13.34375-4.703125h2.972657v-12.613281c0-1.625 1.324219-2.949219 2.949219-2.949219h124.417968c1.183594 0 2.292969-.574218 2.96875-1.539062l10.25-14.519532h-156.902344zm0 0" fill="#ef8318"/><path d="m294.859375 176.914062 10.25 14.523438c.679687.960938 1.789063 1.539062 2.964844 1.539062h34.183593c1.625 0 2.949219 1.320313 2.949219 2.949219v12.613281h2.972657c5.046874 0 9.683593 1.765626 13.34375 4.699219v-36.324219zm0 0" fill="#ef8318"/><path d="m348.179688 268.40625h-6.378907l-.210937.726562c-5.429688 18.941407-16.605469 35.171876-31.273438 47.019532h36.207032c8.25 0 15-6.75 15-15v-37.445313c-3.660157 2.933594-8.296876 4.699219-13.34375 4.699219zm0 0" fill="#ef8318"/><path d="m149.410156 269.132812-.210937-.726562h-6.378907c-5.046874 0-9.683593-1.765625-13.34375-4.699219v37.445313c0 8.25 6.75 15 15 15h36.207032c-14.667969-11.847656-25.84375-28.078125-31.273438-47.019532zm0 0" fill="#ef8318"/><path d="m129.476562 176.914062v36.324219c3.660157-2.933593 8.296876-4.699219 13.34375-4.699219h1.972657v-12.613281c0-2.179687 1.773437-3.949219 3.949219-3.949219h1.710937v-15.0625zm0 0" fill="#db722c"/><path d="m150.453125 301.152344v-25.570313c-.851563-2.347656-1.605469-4.746093-2.273437-7.175781h-5.359376c-5.046874 0-9.683593-1.765625-13.34375-4.699219v37.445313c0 8.25 6.75 15 15 15h20.976563c-8.25 0-15-6.75-15-15zm0 0" fill="#db722c"/><path d="m145.792969 243.316406v-35.777344h-2.972657c-12.359374 0-22.378906 10.019532-22.378906 22.378907v17.113281c0 12.359375 10.019532 22.378906 22.378906 22.378906h6.671876c-2.40625-8.289062-3.699219-17.042968-3.699219-26.09375zm0 0" fill="#ffe2b8"/><path d="m348.179688 207.535156h-2.972657v35.78125c0 9.050782-1.296875 17.804688-3.699219 26.089844h6.671876c12.359374 0 22.378906-10.019531 22.378906-22.378906v-17.113282c0-12.355468-10.019532-22.378906-22.378906-22.378906zm0 0" fill="#ffc987"/><path d="m342.257812 191.976562h-34.183593c-.851563 0-1.65625-.417968-2.148438-1.117187l-9.839843-13.945313h-10.929688l-9.84375 13.945313c-.492188.699219-1.296875 1.117187-2.152344 1.117187h-124.417968c-2.175782 0-3.949219 1.769532-3.949219 3.949219v47.390625c0 52.261719 42.519531 94.78125 94.78125 94.78125h11.851562c52.261719 0 94.78125-42.519531 94.78125-94.78125v-47.390625c0-2.179687-1.773437-3.949219-3.949219-3.949219zm0 0" fill="#ffe2b8"/><path d="m165.5 243.316406v-47.390625c0-2.179687 1.769531-3.949219 3.949219-3.949219h-20.707031c-2.175782 0-3.949219 1.769532-3.949219 3.949219v47.390625c0 52.261719 42.519531 94.78125 94.78125 94.78125h11.851562c1.484375 0 2.960938-.039062 4.425781-.105468-50.214843-2.324219-90.351562-43.898438-90.351562-94.675782zm0 0" fill="#ffc987"/><path d="m356.148438 154.761719c-.226563-.515625-.515626-1.046875-.882813-1.59375l-54.996094-81.875c-3.066406-4.566407-1.089843-7.929688 4.390625-7.476563l46.839844 6.183594c5.480469.453125 6.707031-5.152344 2-8l-101.167969-60.503906c-4.703125-2.847656-11.15625-1.5039065-14.335937 2.980468l-105.503906 148.835938c-.351563.496094-.628907.980469-.859376 1.453125h224.515626zm0 0" fill="#231f20"/><path d="m163.183594 154.761719c.230468-.472657.507812-.953125.859375-1.449219l101.859375-143.703125-13.570313-8.113281c-4.707031-2.847656-11.15625-1.5039065-14.339843 2.980468l-105.5 148.835938c-.351563.496094-.628907.980469-.859376 1.453125h31.550782zm0 0"/><path d="m419.945312 166.914062c0 5.5-4.5 10-10 10h-328.890624c-5.5 0-10-4.5-10-10v-3.148437c0-5.5 4.5-10 10-10h328.890624c5.5 0 10 4.5 10 10zm0 0" fill="#333031"/><path d="m102.5 166.914062v-3.148437c0-5.5 4.5-10 10-10h-31.445312c-5.5 0-10 4.5-10 10v3.148437c0 5.5 4.5 10 10 10h31.445312c-5.5 0-10-4.5-10-10zm0 0" fill="#231f20"/><path d="m136.027344 380.5625.707031.695312.703125-.695312c2.484375-2.460938 5.78125-3.820312 9.273438-3.820312 2.824218 0 5.523437.894531 7.8125 2.582031l.59375.441406.59375-.441406c.273437-.203125.558593-.390625.84375-.574219-.355469-1.183594-.550782-2.4375-.550782-3.738281 0-2.539063.734375-4.902344 1.980469-6.914063-2.425781-4.335937-7.054687-7.269531-12.375-7.269531-7.832031 0-14.179687 6.351563-14.179687 14.183594 0 .921875.09375 1.816406.261718 2.6875 1.601563.648437 3.074219 1.613281 4.335938 2.863281zm0 0" fill="#f87eab"/><path d="m136.027344 380.5625.707031.695312.703125-.695312c1.261719-1.25 2.730469-2.210938 4.328125-2.859375-.167969-.871094-.265625-1.769531-.265625-2.695313 0-6.054687 3.804688-11.210937 9.144531-13.242187-1.566406-.597656-3.257812-.9375-5.035156-.9375-7.832031 0-14.183594 6.351563-14.183594 14.179687 0 .921876.097657 1.820313.265625 2.691407 1.601563.648437 3.074219 1.613281 4.335938 2.863281zm0 0" fill="#e26693"/><path d="m155.710938 379.324219c2.285156-1.6875 4.988281-2.582031 7.808593-2.582031 3.996094 0 7.730469 1.789062 10.25 4.90625l.78125.960937.777344-.960937c2.011719-2.492188 4.808594-4.113282 7.882813-4.671876.089843-.644531.152343-1.296874.152343-1.96875 0-7.828124-6.347656-14.179687-14.179687-14.179687-7.832032 0-14.179688 6.351563-14.179688 14.179687 0 1.515626.242188 2.96875.679688 4.335938zm0 0" fill="#2cb0f2"/><path d="m155.710938 379.324219c2.285156-1.6875 4.988281-2.582031 7.808593-2.582031.589844 0 1.171875.050781 1.75.128906-.082031-.609375-.132812-1.230469-.132812-1.863282 0-6.042968 3.789062-11.1875 9.113281-13.230468-1.574219-.605469-3.277344-.949219-5.066406-.949219-7.832032 0-14.183594 6.351563-14.183594 14.179687 0 1.515626.242188 2.96875.683594 4.335938zm0 0" fill="#2da1dc"/><path d="m133.519531 389.347656.097657-.890625c.339843-3.085937 1.738281-5.8125 3.796874-7.867187-2.601562-2.964844-6.40625-4.847656-10.660156-4.847656-7.636718 0-13.847656 6.042968-14.152344 13.605468zm0 0" fill="#60d882"/><path d="m150.324219 389.347656.101562-.890625c.429688-3.878906 2.515625-7.195312 5.5-9.300781-2.480469-2.121094-5.691406-3.414062-9.214843-3.414062-7.636719 0-13.847657 6.042968-14.148438 13.605468zm0 0" fill="#ffd00d"/><path d="m141.160156 389.347656c.246094-6.074218 4.300782-11.167968 9.855469-12.933594-1.355469-.433593-2.800781-.671874-4.304687-.671874-7.636719 0-13.847657 6.042968-14.148438 13.605468zm0 0" fill="#ffaf10"/><path d="m199.730469 389.347656c-.304688-7.5625-6.511719-13.605468-14.152344-13.605468-7.636719 0-13.847656 6.042968-14.152344 13.605468zm0 0" fill="#aec1ed"/><path d="m172.386719 389.347656.097656-.890625c.277344-2.492187 1.234375-4.757812 2.679687-6.617187-2.5625-3.683594-6.816406-6.097656-11.644531-6.097656-7.636719 0-13.847656 6.042968-14.152343 13.605468zm0 0" fill="#fff"/><path d="m157.523438 389.347656c.246093-6.15625 4.414062-11.300781 10.078124-13-1.292968-.390625-2.664062-.605468-4.082031-.605468-7.636719 0-13.847656 6.042968-14.152343 13.605468zm0 0" fill="#d9eafc"/><path d="m123.160156 389.347656c.230469-5.710937 3.832032-10.550781 8.875-12.578125-1.632812-.65625-3.414062-1.027343-5.28125-1.027343-7.636718 0-13.847656 6.042968-14.152344 13.605468zm0 0" fill="#37c47a"/><path d="m181.523438 389.347656c.234374-5.796875 3.945312-10.691406 9.109374-12.660156-1.574218-.601562-3.273437-.945312-5.054687-.945312-7.636719 0-13.847656 6.042968-14.148437 13.605468zm0 0" fill="#85a0dd"/><path d="m102.339844 390v-.386719c0-29.679687 24.148437-53.828125 53.828125-53.828125 29.679687 0 53.824219 24.148438 53.824219 53.828125v.386719h10v-.386719c0-35.195312-28.632813-63.828125-63.824219-63.828125-35.195313 0-63.828125 28.632813-63.828125 63.828125v.386719zm0 0" fill="#fff"/><path d="m233.515625 420.949219h3.042969c-1.226563-10.585938-4.765625-20.855469-10.421875-30.09375-.957031-1.558594-2.652344-2.507813-4.480469-2.507813h-130.980469c-1.828125 0-3.523437.949219-4.476562 2.507813-5.660157 9.238281-9.195313 19.507812-10.425781 30.09375h3.046874c3.835938 0 7.441407 1.492187 10.152344 4.207031 2.710938 2.710938 4.207032 6.316406 4.207032 10.152344v26.332031c0 3.992187-1.640626 7.605469-4.277344 10.207031 14.523437 20.574219 39.25 34.152344 67.265625 34.152344 28.011719 0 52.738281-13.574219 67.257812-34.144531-.019531-.023438-.042969-.039063-.066406-.0625-2.710937-2.710938-4.203125-6.316407-4.203125-10.152344l-.003906-26.332031c0-7.917969 6.445312-14.359375 14.363281-14.359375zm0 0" fill="#ff9518"/><path d="m107.84375 426.765625c0 32.253906 9.667969 60.472656 24.011719 75.6875 7.675781 2.300781 15.839843 3.546875 24.308593 3.546875 8.472657 0 16.636719-1.246094 24.316407-3.546875 14.34375-15.214844 24.007812-43.433594 24.007812-75.6875 0-13.335937-1.691406-26.492187-4.902343-38.417969h-86.839844c-3.210938 11.925782-4.902344 25.082032-4.902344 38.417969zm0 0" fill="#ef8318"/><path d="m137.257812 426.765625c0 34.621094 4.355469 64.609375 10.65625 78.839844 2.714844.261719 5.46875.394531 8.25.394531 2.789063 0 5.539063-.132812 8.253907-.394531 6.300781-14.230469 10.65625-44.21875 10.65625-78.839844 0-13.335937-.664063-26.492187-1.917969-38.417969h-33.980469c-1.257812 11.925782-1.917969 25.082032-1.917969 38.417969zm0 0" fill="#ff9518"/><g fill="#333031"><path d="m145.339844 449.273438c-.863282 0-1.664063-.460938-2.09375-1.210938-.433594-.746094-.433594-1.671875 0-2.421875l10.824218-18.746094c.429688-.75 1.230469-1.210937 2.097657-1.210937.863281 0 1.664062.460937 2.097656 1.210937l10.824219 18.746094c.433594.75.433594 1.675781 0 2.421875-.433594.75-1.234375 1.210938-2.097656 1.210938zm0 0"/><path d="m177.59375 432.835938c-.960938 0-1.832031-.570313-2.21875-1.457032-.386719-.882812-.210938-1.910156.449219-2.617187l15.046875-16.160157c.460937-.492187 1.101562-.773437 1.773437-.773437s1.316407.28125 1.773438.773437l15.050781 16.160157c.65625.707031.832031 1.734375.445312 2.617187-.382812.882813-1.257812 1.457032-2.21875 1.457032zm0 0"/><path d="m104.636719 432.835938c-.960938 0-1.835938-.570313-2.21875-1.457032-.386719-.882812-.210938-1.910156.449219-2.617187l15.046874-16.160157c.457032-.492187 1.101563-.773437 1.773438-.773437s1.3125.28125 1.773438.773437l15.050781 16.160157c.65625.707031.832031 1.734375.445312 2.617187-.382812.882813-1.253906 1.457032-2.21875 1.457032zm0 0"/><path d="m188.808594 462.152344c2.195312 4.726562-1.207032 10.9375-7.871094 12.804687-16.199219 4.546875-33.347656 4.546875-49.542969 0-6.664062-1.867187-10.066406-8.078125-7.871093-12.804687 2.195312-4.75 7.914062-6.796875 12.980468-5.398438 12.855469 3.609375 26.464844 3.609375 39.320313 0 5.070312-1.398437 10.789062.648438 12.984375 5.398438zm0 0"/></g><path d="m153.332031 448.066406c-.433593-.75-.433593-1.675781 0-2.421875l7.878907-13.648437-2.945313-5.101563c-.433594-.75-1.234375-1.210937-2.097656-1.210937s-1.664063.460937-2.097657 1.210937l-10.824218 18.75c-.433594.75-.433594 1.671875 0 2.421875.433594.746094 1.230468 1.210938 2.097656 1.210938h10.085938c-.867188-.003906-1.664063-.464844-2.097657-1.210938zm0 0" fill="#231f20"/><path d="m185.699219 431.378906c-.382813-.882812-.207031-1.910156.449219-2.617187l11.660156-12.519531-3.390625-3.640626c-.457031-.492187-1.101563-.773437-1.773438-.773437s-1.3125.28125-1.769531.773437l-15.050781 16.164063c-.65625.703125-.832031 1.730469-.449219 2.613281.386719.886719 1.257812 1.457032 2.222656 1.457032h10.324219c-.964844 0-1.835937-.574219-2.222656-1.457032zm0 0" fill="#231f20"/><path d="m112.703125 431.378906c-.386719-.882812-.210937-1.910156.449219-2.617187l11.679687-12.542969-3.371093-3.617188c-.460938-.492187-1.101563-.773437-1.773438-.773437s-1.316406.28125-1.773438.773437l-15.046874 16.160157c-.660157.707031-.835938 1.734375-.449219 2.617187.382812.882813 1.257812 1.457032 2.21875 1.457032h10.285156c-.960937 0-1.835937-.574219-2.21875-1.457032zm0 0" fill="#231f20"/><path d="m207.285156 236.328125c0 7.539063-6.109375 13.648437-13.644531 13.648437-7.539063 0-13.648437-6.109374-13.648437-13.648437v-13.644531c0-7.539063 6.109374-13.648438 13.648437-13.648438 7.535156 0 13.644531 6.109375 13.644531 13.648438zm0 0" fill="#994334"/><path d="m311.007812 236.328125c0 7.539063-6.109374 13.648437-13.648437 13.648437-7.535156 0-13.648437-6.109374-13.648437-13.648437v-13.644531c0-7.539063 6.113281-13.648438 13.648437-13.648438 7.539063 0 13.648437 6.109375 13.648437 13.648438zm0 0" fill="#994334"/><path d="m245.5 315.484375c-20.847656 0-37.8125-16.960937-37.8125-37.808594 0-2.859375 2.320312-5.179687 5.183594-5.179687h65.261718c2.859376 0 5.179688 2.320312 5.179688 5.179687 0 20.847657-16.964844 37.808594-37.8125 37.808594zm0 0" fill="#ff9f60"/><path d="m228.5 277.675781c0-2.859375 2.320312-5.179687 5.179688-5.179687h-20.808594c-2.859375 0-5.183594 2.320312-5.183594 5.179687 0 20.847657 16.964844 37.808594 37.8125 37.808594 3.609375 0 7.097656-.519531 10.40625-1.464844-15.804688-4.535156-27.40625-19.105469-27.40625-36.34375zm0 0" fill="#ff8d4d"/><path d="m250.957031 256.941406h-7.917969c-5.789062 0-10.5-4.707031-10.5-10.5v-19.664062c0-4.144532 3.359376-7.5 7.5-7.5 4.144532 0 7.5 3.355468 7.5 7.5v15.164062h3.417969c4.144531 0 7.5 3.359375 7.5 7.5 0 4.144532-3.355469 7.5-7.5 7.5zm0 0" fill="#ff9f60"/><path d="m78.820312 419.949219c8.480469 0 15.359376 6.875 15.359376 15.359375v26.332031c0 8.480469-6.878907 15.359375-15.363282 15.359375h-8.773437c-8.484375 0-15.363281-6.878906-15.363281-15.359375v-26.332031c0-8.484375 6.878906-15.359375 15.359374-15.359375zm0 0" fill="#ffc987"/><path d="m68.5 461.640625v-26.332031c0-7.625 5.558594-13.929688 12.839844-15.136719-.820313-.136719-1.660156-.222656-2.519532-.222656h-8.777343c-8.484375 0-15.359375 6.875-15.359375 15.359375v26.332031c-.003906 8.480469 6.875 15.359375 15.359375 15.359375h8.773437c.863282 0 1.699219-.089844 2.523438-.222656-7.28125-1.207032-12.839844-7.515625-12.839844-15.136719zm0 0" fill="#efb06c"/><path d="m242.292969 419.949219c8.484375 0 15.359375 6.875 15.359375 15.359375v26.332031c0 8.480469-6.878906 15.359375-15.363282 15.359375h-8.773437c-8.484375 0-15.363281-6.878906-15.359375-15.359375l-.003906-26.332031c0-8.484375 6.878906-15.359375 15.363281-15.359375zm0 0" fill="#ffc987"/><path d="m230.5 461.640625v-26.332031c0-7.878906 5.933594-14.363282 13.574219-15.246094-.585938-.070312-1.175781-.113281-1.78125-.113281h-8.777344c-8.484375 0-15.363281 6.875-15.363281 15.359375l.003906 26.332031c-.003906 8.480469 6.875 15.359375 15.359375 15.359375h8.773437c.605469 0 1.199219-.042969 1.785157-.109375-7.640625-.890625-13.574219-7.371094-13.574219-15.25zm0 0" fill="#efb06c"/><path d="m145.421875 474.957031c-6.660156-1.867187-10.066406-8.078125-7.871094-12.804687.839844-1.8125 2.191407-3.226563 3.824219-4.210938-1.632812-.339844-3.257812-.734375-4.871094-1.1875-5.066406-1.398437-10.785156.652344-12.980468 5.398438-2.195313 4.726562 1.207031 10.9375 7.871093 12.804687 10.371094 2.910157 21.132813 3.949219 31.785157 3.132813-5.984376-.460938-11.933594-1.496094-17.757813-3.132813zm0 0" fill="#231f20"/></svg>