<svg height="512pt" viewBox="-11 0 512 512" width="512pt" xmlns="http://www.w3.org/2000/svg"><path d="m490 267c0 135.308594-109.691406 245-245 245s-245-109.691406-245-245 109.691406-245 245-245 245 109.691406 245 245zm0 0" fill="#924eb5"/><path d="m150.03125 408.046875c-1.957031-1.453125-3.609375-4.738281-3.609375-7.179687v-8.167969l-28.125 70.75v-13.097657c0-2.902343-2.375-5.273437-5.273437-5.273437h-36.273438c22.648438 21.40625 49.382812 38.523437 78.902344 50.097656v-82.957031zm0 0" fill="#2e4c89"/><path d="m366.605469 392.699219v8.167969c0 2.441406-1.65625 5.726562-3.613281 7.179687l-5.621094 4.171875v72.53125c11.839844-6.121094 23.117187-13.171875 33.730468-21.066406.957032-.726563 1.914063-1.453125 2.859376-2.175782zm0 0" fill="#2e4c89"/><path d="m292.691406 372.816406h39.808594c.554688 0 1-.449218 1-1v-151.425781h-153.976562v151.425781c0 .554688.449218 1 1 1h39.808593c.554688 0 1-.445312 1-1v-19.617187c7.621094 2.257812 15.542969 3.402343 23.566407 3.402343h23.226562c8.023438 0 15.945312-1.144531 23.566406-3.402343v19.617187c0 .554688.449219 1 1 1zm0 0" fill="#db722c"/><path d="m335.921875 428.148438c-.539063.398437-1.054687.621093-1.449219.621093-.902344 0-.972656-1.40625-.972656-1.835937v-55.117188h-40.808594v-20.96875c-7.828125 2.460938-16.085937 3.753906-24.566406 3.753906h-23.226562c-8.476563 0-16.738282-1.292968-24.566407-3.753906v20.96875h-40.808593v55.117188c0 .65625-.125 1.195312-.355469 1.515625-.15625.222656-.347657.316406-.613281.316406-.398438 0-.910157-.21875-1.449219-.617187l-22.453125-16.671876v83.320313c27.957031 11.097656 58.4375 17.203125 90.347656 17.203125 40.910156 0 79.46875-10.039062 113.371094-27.773438v-72.75zm0 0" fill="#293d7c"/><path d="m146.421875 220.390625h-24.867187c-.757813 1.636719-1.410157 3.300781-1.964844 4.980469-.019532 1.574218.414062 3.160156 1.3125 4.386718l18.191406 24.847657c.5625.773437.582031 1.230469.515625 1.363281s-.402344.273438-.976563.273438c-.148437 0-.304687-.007813-.472656-.023438l-18.78125-2.042969c2.214844 7.117188 6.125 13.757813 11.617188 19.253907 4.488281 4.484374 9.726562 7.945312 15.425781 10.277343zm0 0" fill="#37c47a"/><path d="m333.5 220.390625h-153.976562v102.96875c15.066406 19.601563 38.738281 32.242187 65.375 32.242187h23.226562c26.636719 0 50.3125-12.640624 65.378906-32.242187v-102.96875zm0 0" fill="#37c47a"/><path d="m391.472656 220.390625h-24.867187v63.316406c5.699219-2.332031 10.9375-5.792969 15.421875-10.277343 13.929687-13.929688 17.695312-35.1875 9.445312-53.039063zm0 0" fill="#37c47a"/><path d="m121.554688 220.390625c-.757813 1.636719-1.410157 3.300781-1.964844 4.980469-.019532 1.574218.414062 3.160156 1.3125 4.386718l6.820312 9.316407c.136719-6.339844 1.542969-12.703125 4.308594-18.683594zm0 0" fill="#2bb381"/><path d="m146.421875 277.730469c-1.730469-1.3125-3.386719-2.742188-4.949219-4.300781-5.191406-5.195313-8.96875-11.402344-11.238281-18.074219l-10.855469-1.183594c2.214844 7.121094 6.125 13.757813 11.617188 19.253906 4.488281 4.488281 9.722656 7.957031 15.425781 10.292969zm0 0" fill="#2bb381"/><path d="m154.652344 411.476562v83.320313c6.734375 2.671875 13.617187 5.046875 20.625 7.125v-75.128906zm0 0" fill="#1a2b63"/><path d="m443.28125 45.9375-185.4375-45.773438c-.4375-.1093745-.886719-.164062-1.332031-.164062-1.980469 0-3.828125 1.066406-4.820313 2.785156l-74.800781 129.5625h35.074219c1.230468-6.792968 7.179687-11.964844 14.320312-11.964844h60.457032c7.140624 0 13.085937 5.171876 14.320312 11.964844h35.34375l-26.007812-45.441406c-.902344-1.578125-.980469-3.496094-.203126-5.140625.777344-1.648437 2.308594-2.808594 4.101563-3.113281l128.585937-21.824219c2.585938-.4375 4.53125-2.660156 4.628907-5.28125.09375-2.621094-1.683594-4.980469-4.230469-5.609375zm0 0" fill="#293d7c"/><path d="m208.128906 132.347656 72.996094-126.4375-23.28125-5.746094c-.4375-.1093745-.886719-.164062-1.332031-.164062-1.980469 0-3.828125 1.066406-4.820313 2.785156l-74.800781 129.5625zm0 0" fill="#1a2b63"/><path d="m283.308594 139.382812c0-.554687-.449219-1-1-1h-51.589844c-.554688 0-1 .445313-1 1v23.777344c8.835938-.484375 17.773438-.742187 26.792969-.742187s17.957031.257812 26.792969.742187v-23.777344zm0 0" fill="#aec1ed"/><path d="m301.308594 134.949219v29.535156c22.859375 2.117187 44.808594 5.832031 65.207031 10.988281l-23.523437-41.089844c-1.070313-1.878906-3.070313-3.035156-5.230469-3.035156h-36.921875c.292968 1.152344.46875 2.355469.46875 3.601563zm0 0" fill="#aec1ed"/><path d="m211.71875 134.949219c0-1.246094.171875-2.449219.46875-3.601563h-36.585938c-2.15625 0-4.144531 1.148438-5.222656 3.015625l-23.714844 41.070313c20.355469-5.136719 42.253907-8.835938 65.054688-10.949219zm0 0" fill="#aec1ed"/><path d="m181.847656 168.234375 19.558594-33.875c1.078125-1.863281 3.070312-3.011719 5.222656-3.011719h-31.027344c-2.152343 0-4.144531 1.148438-5.222656 3.011719l-23.710937 41.074219c11.289062-2.847656 23.050781-5.257813 35.179687-7.199219zm0 0" fill="#85a0dd"/><path d="m230.71875 163.105469v-23.722657h51.589844v23.722657c6.730468.355469 13.402344.839843 20 1.464843v-29.621093c0-8.585938-6.984375-15.566407-15.566406-15.566407h-60.457032c-8.585937 0-15.566406 6.980469-15.566406 15.566407v29.621093c6.59375-.625 13.265625-1.109374 20-1.464843zm0 0" fill="#ffca51"/><path d="m280.644531 432.53125 30.445313-60.714844h-12.453125l-26.691407 53.226563c3.347657 1.9375 6.296876 4.484375 8.699219 7.488281zm0 0" fill="#85a0dd"/><path d="m241.078125 425.042969-26.6875-53.226563h-12.453125l30.445312 60.714844c2.402344-3.003906 5.351563-5.550781 8.695313-7.488281zm0 0" fill="#85a0dd"/><path d="m278.554688 345h-23.226563c-34.011719 0-63.203125-20.597656-75.804687-49.992188v28.355469c15.074218 19.597657 38.742187 32.238281 65.375 32.238281h23.226562c25.71875 0 48.679688-11.78125 63.796875-30.230468-14.382813 12.230468-33.007813 19.628906-53.367187 19.628906zm0 0" fill="#2bb381"/><g fill="#60d882"><path d="m182.601562 282.761719c-1.113281 0-2.164062.28125-3.078124.78125v11.316406c.914062.5 1.960937.78125 3.078124.78125 3.554688 0 6.441407-2.882813 6.441407-6.441406 0-3.554688-2.882813-6.4375-6.441407-6.4375zm0 0"/><path d="m216.875 289.199219c0 3.558593-2.882812 6.441406-6.441406 6.441406s-6.441406-2.882813-6.441406-6.441406c0-3.554688 2.882812-6.441407 6.441406-6.441407s6.441406 2.886719 6.441406 6.441407zm0 0"/><path d="m203.011719 306.375c0 3.558594-2.886719 6.441406-6.441407 6.441406-3.558593 0-6.441406-2.882812-6.441406-6.441406 0-3.554688 2.882813-6.4375 6.441406-6.4375 3.554688 0 6.441407 2.882812 6.441407 6.4375zm0 0"/><path d="m309.035156 289.199219c0 3.558593-2.886718 6.441406-6.441406 6.441406-3.558594 0-6.441406-2.882813-6.441406-6.441406 0-3.554688 2.882812-6.441407 6.441406-6.441407 3.554688 0 6.441406 2.886719 6.441406 6.441407zm0 0"/><path d="m333.5 283.542969c-.914062-.5-1.960938-.78125-3.078125-.78125-3.554687 0-6.441406 2.882812-6.441406 6.4375 0 3.558593 2.882812 6.441406 6.441406 6.441406 1.113281 0 2.164063-.285156 3.078125-.78125zm0 0"/><path d="m323 306.375c0 3.558594-2.882812 6.441406-6.441406 6.441406s-6.441406-2.882812-6.441406-6.441406c0-3.554688 2.882812-6.441406 6.441406-6.441406s6.441406 2.886718 6.441406 6.441406zm0 0"/></g><path d="m241.777344 249.496094c-4.699219-8.6875-13.894532-14.605469-24.449219-14.605469h-37.804687v25.777344c4.84375 4.105469 11.101562 6.589843 17.933593 6.589843h44.320313zm0 0" fill="#fff"/><path d="m222.558594 251.167969c0 5.464843-4.429688 9.890625-9.890625 9.890625-5.464844 0-9.890625-4.425782-9.890625-9.890625 0-5.460938 4.425781-9.890625 9.890625-9.890625 5.460937 0 9.890625 4.429687 9.890625 9.890625zm0 0" fill="#445ea0"/><path d="m333.5 234.890625h-37.804688c-15.3125 0-27.773437 12.460937-27.773437 27.773437 0 .527344.03125 1.042969.070313 1.558594l.019531.292969c.101562 1.542969 1.382812 2.742187 2.929687 2.742187h44.625c6.832032 0 13.089844-2.484374 17.933594-6.589843zm0 0" fill="#fff"/><path d="m310.25 251.167969c0 5.464843-4.429688 9.890625-9.890625 9.890625s-9.890625-4.425782-9.890625-9.890625c0-5.460938 4.429688-9.890625 9.890625-9.890625s9.890625 4.429687 9.890625 9.890625zm0 0" fill="#445ea0"/><path d="m273.210938 292.71875h-18.933594c-6.894532 0-12.5-5.605469-12.5-12.5v-40.875c0-4.140625 3.359375-7.5 7.5-7.5s7.5 3.359375 7.5 7.5v38.375h16.433594c4.140624 0 7.5 3.359375 7.5 7.5 0 4.144531-3.359376 7.5-7.5 7.5zm0 0" fill="#159e97"/><path d="m145.421875 220.390625v180.480469c0 2.75 1.804687 6.339844 4.015625 7.980468l27.070312 20.101563c2.210938 1.636719 4.015626.730469 4.015626-2.019531v-206.542969zm0 0" fill="#ef8318"/><path d="m155.898438 390.523438v-170.132813h-10.476563v180.480469c0 2.75 1.808594 6.339844 4.015625 7.980468l27.074219 20.101563c2.207031 1.636719 4.011719.730469 4.011719-2.019531v-13.128906l-20.609376-15.300782c-2.210937-1.640625-4.015624-5.230468-4.015624-7.980468zm0 0" fill="#db722c"/><path d="m332.5 220.390625v206.542969c0 2.75 1.808594 3.65625 4.015625 2.019531l27.074219-20.101563c2.207031-1.640624 4.015625-5.230468 4.015625-7.980468v-180.480469zm0 0" fill="#ef8318"/><path d="m455.179688 213.039062c-44.449219-32.324218-118.714844-51.621093-198.667969-51.621093-58.945313 0-114.785157 10.5-157.878907 28.96875l1.5 3.398437c1.085938 2.460938 3.992188 4.316406 6.761719 4.316406.21875 0 .4375-.011718.652344-.035156l30.613281-3.332031c.167969-.015625.324219-.023437.472656-.023437.574219 0 .910157.140624.976563.273437.070313.132813.046875.589844-.515625 1.363281l-18.191406 24.847656c-.046875.0625-.074219.132813-.117188.195313h331.679688c2 0 3.769531-1.285156 4.390625-3.1875.617187-1.902344-.058594-3.984375-1.675781-5.164063zm0 0" fill="#293d7c"/><path d="m100.132812 193.785156c1.082032 2.460938 3.988282 4.316406 6.757813 4.316406.222656 0 .4375-.011718.65625-.035156l30.613281-3.332031c.167969-.015625.324219-.023437.472656-.023437.574219 0 .90625.140624.976563.273437.035156.070313.042969.226563-.03125.464844 38.308594-18.652344 88.636719-30.457031 142.960937-33.332031-8.585937-.453126-17.269531-.699219-26.027343-.699219-58.945313 0-114.785157 10.5-157.878907 28.96875zm0 0" fill="#1a2b63"/><path d="m251.589844 493.160156c-5.671875 0-10.496094-4.242187-11.222656-9.867187l-.390626-3.039063c-.105468-.804687-.550781-1.53125-1.226562-1.984375-8.847656-5.945312-14.128906-15.84375-14.128906-26.484375 0-17.585937 14.308594-31.890625 31.890625-31.890625 17.585937 0 31.890625 14.304688 31.890625 31.890625 0 10.636719-5.28125 20.539063-14.125 26.484375-.675782.457031-1.125 1.179688-1.230469 1.988281l-.390625 3.035157c-.722656 5.625-5.546875 9.867187-11.21875 9.867187zm0 0" fill="#fff"/><path d="m250.746094 483.292969-.390625-3.039063c-.101563-.804687-.550781-1.53125-1.226563-1.984375-8.847656-5.945312-14.128906-15.84375-14.128906-26.484375 0-15.816406 11.578125-28.976562 26.699219-31.464844-1.6875-.277343-3.417969-.425781-5.1875-.425781-17.582031 0-31.890625 14.304688-31.890625 31.890625 0 10.640625 5.28125 20.539063 14.128906 26.484375.675781.457031 1.121094 1.179688 1.226562 1.984375l.390626 3.039063c.726562 5.625 5.546874 9.867187 11.21875 9.867187h9.851562c.085938 0 .175781-.011718.261719-.011718-5.554688-.128907-10.238281-4.316407-10.953125-9.855469zm0 0" fill="#d9eafc"/><path d="m253.449219 453.25c0 5.640625-4.570313 10.210938-10.210938 10.210938s-10.210937-4.570313-10.210937-10.210938 4.570312-10.210938 10.210937-10.210938 10.210938 4.570313 10.210938 10.210938zm0 0" fill="#445ea0"/><path d="m279.996094 453.25c0 5.640625-4.570313 10.210938-10.210938 10.210938-5.636718 0-10.210937-4.570313-10.210937-10.210938s4.574219-10.210938 10.210937-10.210938c5.640625 0 10.210938 4.570313 10.210938 10.210938zm0 0" fill="#445ea0"/><path d="m256.511719 337.308594c-17.101563 0-31.597657-12.222656-34.46875-29.0625-.230469-1.355469.148437-2.742188 1.035156-3.792969s2.1875-1.65625 3.5625-1.65625h59.746094c1.375 0 2.675781.605469 3.5625 1.65625s1.265625 2.4375 1.035156 3.792969c-2.875 16.839844-17.371094 29.0625-34.472656 29.0625zm0 0" fill="#159e97"/><path d="m242.996094 308.246094c-.230469-1.355469.144531-2.742188 1.03125-3.792969.886718-1.050781 2.191406-1.65625 3.566406-1.65625h-20.953125c-1.375 0-2.675781.605469-3.566406 1.65625-.882813 1.050781-1.261719 2.4375-1.03125 3.792969 2.871093 16.839844 17.367187 29.0625 34.46875 29.0625 3.640625 0 7.160156-.558594 10.476562-1.59375-12.265625-3.824219-21.730469-14.214844-23.992187-27.46875zm0 0" fill="#0f9390"/><path d="m94.277344 381.5625v-111.117188l-6.570313 14.902344c-.363281.828125-.757812 1.128906-.929687 1.128906s-.5625-.300781-.929688-1.128906l-6.570312-14.902344v111.117188zm0 0" fill="#bf7e52"/><path d="m84.933594 165.203125c1.015625-2.300781 2.675781-2.300781 3.6875 0l12.425781 28.179687c1.015625 2.300782 3.890625 3.960938 6.390625 3.6875l30.617188-3.328124c2.5-.273438 3.328124 1.164062 1.84375 3.195312l-18.191407 24.847656c-1.484375 2.03125-1.484375 5.351563 0 7.378906l18.191407 24.851563c1.484374 2.027344.65625 3.464844-1.84375 3.195313l-30.617188-3.328126c-2.5-.273437-5.375 1.386719-6.390625 3.6875l-12.425781 28.179688c-1.011719 2.300781-2.675782 2.300781-3.6875 0l-12.425782-28.179688c-1.015624-2.300781-3.890624-3.960937-6.390624-3.6875l-30.613282 3.328126c-2.5.273437-3.332031-1.164063-1.847656-3.195313l18.191406-24.847656c1.488282-2.03125 1.488282-5.351563 0-7.382813l-18.191406-24.847656c-1.484375-2.03125-.652344-3.46875 1.847656-3.195312l30.613282 3.328124c2.5.273438 5.375-1.386718 6.390624-3.6875zm0 0" fill="#ffd00d"/><path d="m54.019531 254.015625 18.191407-24.847656c1.484374-2.03125 1.484374-5.351563 0-7.382813l-18.191407-24.847656c-.332031-.453125-.53125-.871094-.636719-1.25l-17.878906-1.945312c-2.503906-.273438-3.332031 1.164062-1.847656 3.195312l18.191406 24.847656c1.484375 2.03125 1.484375 5.351563 0 7.382813l-18.191406 24.847656c-1.484375 2.027344-.65625 3.46875 1.847656 3.195313l17.878906-1.945313c.109376-.378906.308594-.796875.636719-1.25zm0 0" fill="#ffaf10"/><path d="m109.824219 426.277344-.003907-2.5c0-4.21875-3.457031-7.679688-7.679687-7.679688 4.222656 0 7.679687-3.457031 7.679687-7.679687v-2.496094c.003907-4.226563-3.453124-7.683594-7.679687-7.683594 4.226563 0 7.679687-3.457031 7.683594-7.679687l-.003907-2.496094c0-4.226562-3.457031-7.683594-7.679687-7.683594h-30.726563c-4.226562 0-7.683593 3.457032-7.683593 7.679688v43.765625c6.421875 7.054687 13.25 13.726562 20.441406 19.992187h17.964844c4.226562 0 7.683593-3.457031 7.683593-7.683594v-2.492187c0-4.226563-3.457031-7.683594-7.683593-7.683594 4.226562.003907 7.6875-3.457031 7.6875-7.679687zm0 0" fill="#37c47a"/><path d="m84 388.0625c0-4.222656 3.457031-7.679688 7.683594-7.679688h-20.269532c-4.226562 0-7.683593 3.457032-7.683593 7.679688v43.761719c6.367187 6.996093 13.140625 13.617187 20.269531 19.839843zm0 0" fill="#2bb381"/></svg>