<svg height="512pt" viewBox="-11 0 512 512" width="512pt" xmlns="http://www.w3.org/2000/svg"><path d="m490 267c0 135.308594-109.691406 245-245 245s-245-109.691406-245-245 109.691406-245 245-245 245 109.691406 245 245zm0 0" fill="#0f9390"/><path d="m405.542969 452.070312-71.644531-126.324218c-.652344.828125-1.34375 1.625-2.125 2.367187l-.417969.390625.128906.558594c.671875 2.949219 1.015625 5.957031 1.015625 8.9375v157.910156c26.957031-10.3125 51.632812-25.25 73.042969-43.839844zm0 0" fill="#62317c"/><path d="m150.847656 335.007812-16.5625 29.203126c2.140625-1.496094 4.734375-2.382813 7.53125-2.382813 5.664063 0 10.675782 3.617187 12.480469 8.996094l.945313 2.832031.949218-2.832031c.332032-.988281.773438-1.917969 1.308594-2.777344v-30.046875c0-1.054688.058594-2.109375.140625-3.164062-.65625-.023438-1.3125-.050782-1.976563-.050782-1.613281 0-3.222656.082032-4.816406.222656zm0 0" fill="#62317c"/><path d="m181.734375 377.117188 1.25-.203126c.710937-.113281 1.417969-.171874 2.09375-.171874 6.710937 0 12.328125 5.039062 13.070313 11.71875l.097656.886718h12.230468l-.023437-1.023437c-.332031-14.351563-6.183594-27.804688-16.476563-37.882813-10.078124-9.867187-23.304687-15.382812-37.335937-15.628906-.082031 1.050781-.140625 2.113281-.140625 3.1875v32.019531c2.015625-4.929687 6.804688-8.1875 12.183594-8.1875 7.265625 0 13.179687 5.910157 13.179687 13.179688 0 .285156-.015625.5625-.035156.84375zm0 0" fill="#794091"/><path d="m339.5 312.5c0-7.671875-3.839844-14.441406-9.703125-18.503906-16.703125 25.910156-45.816406 43.101562-78.871094 43.101562h-11.851562c-33.054688 0-62.167969-17.191406-78.871094-43.101562-5.863281 4.0625-9.703125 10.832031-9.703125 18.503906 0 5.429688 1.933594 10.402344 5.136719 14.289062.007812 0 .019531-.003906.03125-.003906 33.957031 0 62.121093 27.625 62.789062 61.582032l.019531.980468h2.679688c1.46875 0 2.859375.777344 3.625 2.03125 5.398438 8.808594 8.8125 18.464844 10.144531 28.695313l.109375.871093h6.757813c3.835937 0 7.441406 1.496094 10.152343 4.207032 2.714844 2.710937 4.207032 6.320312 4.207032 10.15625v26.332031c0 7.917969-6.441406 14.355469-14.359375 14.355469h-8.777344c-3.742187 0-7.285156-1.4375-9.984375-4.050782l-.828125-.800781-.675781.933594c-10.875 14.984375-26.855469 25.570313-44.867188 30.242187 21.691406 6.292969 44.617188 9.679688 68.339844 9.679688 31.210938 0 61.050781-5.847656 88.5-16.484375v-157.515625c0-3.152344-.367188-6.214844-1.039062-9.160156 4.332031-4.101563 7.039062-9.902344 7.039062-16.339844zm0 0" fill="#794091"/><path d="m224.78125 391.378906c2.394531 3.90625 4.371094 7.984375 5.976562 12.199219 1.339844-2.105469 3.445313-2.859375 7.964844-3.882813.949219-.210937 1.621094-1.054687 1.621094-2.023437 0-.976563-.675781-1.8125-1.621094-2.027344-7.414062-1.675781-8.351562-2.613281-10.027344-10.027343-.210937-.945313-1.050781-1.621094-2.023437-1.617188-.96875-.003906-1.8125.671875-2.027344 1.617188-.414062 1.828124-.78125 3.257812-1.210937 4.40625.539062.34375 1.007812.796874 1.347656 1.355468zm0 0" fill="#fff"/><path d="m174.273438 346.644531c-.945313.210938-1.617188 1.054688-1.617188 2.027344 0 .96875.667969 1.808594 1.617188 2.023437 7.414062 1.675782 8.351562 2.613282 10.027343 10.027344.214844.949219 1.054688 1.621094 2.027344 1.621094.96875 0 1.8125-.671875 2.023437-1.621094 1.382813-6.117187 2.273438-7.824218 6.703126-9.175781-.359376-.371094-.710938-.742187-1.078126-1.105469-3.421874-3.351562-7.214843-6.191406-11.273437-8.503906-1.320313 2.757812-3.359375 3.5625-8.429687 4.707031zm0 0" fill="#ffd00d"/><path d="m250.925781 337.097656h-11.851562c-6.300781 0-12.457031-.628906-18.414063-1.820312 1.378906 12.222656 11.75 21.722656 24.339844 21.722656s22.960938-9.5 24.339844-21.722656c-5.957032 1.191406-12.113282 1.820312-18.414063 1.820312zm0 0" fill="#ffc987"/><path d="m236.441406 337.058594c-5.386718-.148438-10.65625-.757813-15.78125-1.78125 1.378906 12.222656 11.75 21.722656 24.339844 21.722656 2.710938 0 5.3125-.445312 7.75-1.257812-8.328125-2.777344-14.652344-9.90625-16.308594-18.683594zm0 0" fill="#efb06c"/><path d="m313.203125 383c-11.191406 0-20.296875 8.394531-20.296875 20.492188v23.039062h-39.761719c1.945313 2.503906 3.007813 5.558594 3.007813 8.777344v26.332031c0 5.0625-2.640625 9.511719-6.609375 12.070313h78.957031c2.761719 0 5-2.238282 5-5v-65.21875c0-12.097657-9.105469-20.492188-20.296875-20.492188zm0 0" fill="#924eb5"/><path d="m145.292969 243.316406v-35.78125h-2.972657c-12.359374 0-22.378906 10.023438-22.378906 22.378906v17.113282c0 12.359375 10.019532 22.378906 22.378906 22.378906h6.671876c-2.40625-8.285156-3.699219-17.039062-3.699219-26.089844zm0 0" fill="#ffe2b8"/><path d="m347.679688 207.535156h-2.972657v35.78125c0 9.050782-1.292969 17.804688-3.699219 26.089844h6.671876c12.359374 0 22.378906-10.019531 22.378906-22.378906v-17.113282c0-12.355468-10.019532-22.378906-22.378906-22.378906zm0 0" fill="#ffc987"/><path d="m144.292969 188v55.316406c0 52.261719 42.519531 94.78125 94.78125 94.78125h11.851562c52.261719 0 94.78125-42.519531 94.78125-94.78125v-55.316406zm0 0" fill="#ffe2b8"/><path d="m165 243.316406v-55.316406h-20.707031v55.316406c0 52.261719 42.519531 94.78125 94.78125 94.78125h11.851562c1.484375 0 2.960938-.039062 4.425781-.109375-50.214843-2.320312-90.351562-43.894531-90.351562-94.671875zm0 0" fill="#ffc987"/><path d="m211.984375 188h-36.972656c-1.824219 1.367188-3.011719 3.542969-3.011719 6 0 4.140625 3.355469 7.5 7.5 7.5h28c4.140625 0 7.5-3.359375 7.5-7.5 0-2.457031-1.1875-4.632812-3.015625-6zm0 0" fill="#db722c"/><path d="m314.984375 188h-36.972656c-1.824219 1.367188-3.011719 3.542969-3.011719 6 0 4.140625 3.355469 7.5 7.5 7.5h28c4.140625 0 7.5-3.359375 7.5-7.5 0-2.457031-1.1875-4.632812-3.015625-6zm0 0" fill="#db722c"/><path d="m358.011719 188h-26.304688v46l14 10v-36.464844h1.972657c4.140624 0 8.015624 1.128906 11.34375 3.09375v-22.824218c-.324219.117187-.664063.195312-1.011719.195312zm0 0" fill="#db722c"/><path d="m131.988281 188c-.351562 0-.6875-.078125-1.011719-.195312v22.824218c3.328126-1.964844 7.203126-3.09375 11.34375-3.09375h1.972657v36.464844l14-10v-46zm0 0" fill="#db722c"/><path d="m135.527344 380.5625.707031.699219.703125-.699219c2.484375-2.460938 5.78125-3.820312 9.277344-3.820312 2.820312 0 5.519531.894531 7.808594 2.582031l.59375.441406.59375-.441406c.039062-.027344.082031-.054688.121093-.082031.171875-.542969.320313-1.097657.425781-1.667969-.164062-.828125-.253906-1.6875-.253906-2.5625 0-.878907.089844-1.734375.253906-2.5625-1.207031-6.609375-6.984374-11.621094-13.9375-11.621094-7.832031 0-14.183593 6.351563-14.183593 14.183594 0 .621093.054687 1.226562.132812 1.828125 2.921875.332031 5.636719 1.621094 7.757813 3.722656zm0 0" fill="#f87eab"/><path d="m155.210938 379.324219c2.285156-1.6875 4.988281-2.582031 7.808593-2.582031 3.996094 0 7.734375 1.789062 10.25 4.90625l.78125.960937.777344-.960937c2.011719-2.492188 4.808594-4.113282 7.886719-4.671876.085937-.644531.148437-1.296874.148437-1.964843 0-7.832031-6.347656-14.183594-14.179687-14.183594-7.832032 0-14.179688 6.351563-14.179688 14.183594 0 1.511719.242188 2.964843.679688 4.332031zm0 0" fill="#2cb0f2"/><path d="m133.058594 389.347656c.152344-3.410156 1.585937-6.496094 3.855468-8.753906-2.601562-2.96875-6.40625-4.851562-10.660156-4.851562-7.640625 0-13.847656 6.042968-14.152344 13.605468zm0 0" fill="#60d882"/><path d="m149.875 389.347656c.183594-4.203125 2.328125-7.898437 5.558594-10.183594-2.480469-2.128906-5.699219-3.421874-9.21875-3.421874-7.640625 0-13.851563 6.042968-14.152344 13.605468zm0 0" fill="#ffd00d"/><path d="m199.230469 389.347656c-.304688-7.5625-6.511719-13.605468-14.152344-13.605468-4.832031 0-9.097656 2.425781-11.65625 6.117187 1.625 2.089844 2.632813 4.675781 2.753906 7.488281zm0 0" fill="#aec1ed"/><path d="m177.171875 389.347656c-.304687-7.5625-6.515625-13.605468-14.152344-13.605468s-13.847656 6.042968-14.152343 13.605468zm0 0" fill="#fff"/><path d="m101.847656 389.347656c.144532-29.558594 24.226563-53.558594 53.820313-53.558594 29.589843 0 53.675781 24 53.816406 53.558594h10c-.140625-35.070312-28.710937-63.558594-63.816406-63.558594s-63.675781 28.488282-63.820313 63.558594zm0 0" fill="#fff"/><path d="m233.015625 420.949219h3.042969c-1.226563-10.585938-4.761719-20.855469-10.421875-30.09375-.957031-1.558594-2.652344-2.507813-4.480469-2.507813h-130.980469c-1.828125 0-3.523437.953125-4.476562 2.507813-5.660157 9.238281-9.195313 19.507812-10.425781 30.09375h3.046874c3.835938 0 7.441407 1.492187 10.152344 4.207031 2.710938 2.710938 4.207032 6.316406 4.207032 10.152344v26.332031c0 3.992187-1.640626 7.605469-4.277344 10.207031 14.523437 20.574219 39.25 34.152344 67.261718 34.152344 28.015626 0 52.738282-13.574219 67.261719-34.144531-.019531-.023438-.042969-.039063-.066406-.0625-2.710937-2.710938-4.207031-6.316407-4.207031-10.152344v-26.332031c0-7.917969 6.445312-14.359375 14.363281-14.359375zm0 0" fill="#ff9518"/><path d="m107.34375 426.765625c0 32.253906 9.667969 60.472656 24.011719 75.6875 7.675781 2.300781 15.839843 3.546875 24.308593 3.546875 8.472657 0 16.636719-1.246094 24.316407-3.546875 14.34375-15.214844 24.007812-43.433594 24.007812-75.6875 0-13.335937-1.691406-26.492187-4.902343-38.417969h-86.839844c-3.210938 11.925782-4.902344 25.082032-4.902344 38.417969zm0 0" fill="#ef8318"/><path d="m136.757812 426.765625c0 34.621094 4.355469 64.609375 10.65625 78.839844 2.714844.261719 5.46875.394531 8.25.394531 2.789063 0 5.539063-.132812 8.253907-.394531 6.300781-14.230469 10.65625-44.21875 10.65625-78.839844 0-13.335937-.664063-26.492187-1.917969-38.417969h-33.980469c-1.253906 11.925782-1.917969 25.082032-1.917969 38.417969zm0 0" fill="#ff9518"/><path d="m144.839844 449.273438c-.863282 0-1.664063-.460938-2.09375-1.210938-.433594-.746094-.433594-1.671875 0-2.421875l10.824218-18.746094c.433594-.75 1.230469-1.210937 2.097657-1.210937.863281 0 1.664062.460937 2.097656 1.210937l10.824219 18.746094c.433594.75.433594 1.675781 0 2.421875-.433594.75-1.234375 1.210938-2.097656 1.210938zm0 0" fill="#333031"/><path d="m177.09375 432.835938c-.960938 0-1.832031-.570313-2.21875-1.457032-.386719-.882812-.210938-1.910156.449219-2.617187l15.046875-16.160157c.460937-.492187 1.101562-.773437 1.773437-.773437s1.316407.28125 1.773438.773437l15.050781 16.160157c.65625.707031.832031 1.734375.445312 2.617187-.382812.882813-1.257812 1.457032-2.21875 1.457032zm0 0" fill="#333031"/><path d="m104.136719 432.835938c-.960938 0-1.835938-.570313-2.21875-1.457032-.386719-.882812-.207031-1.910156.449219-2.617187l15.046874-16.160157c.457032-.492187 1.101563-.773437 1.773438-.773437s1.316406.28125 1.773438.773437l15.050781 16.160157c.65625.707031.832031 1.734375.445312 2.617187-.382812.882813-1.253906 1.457032-2.21875 1.457032zm0 0" fill="#333031"/><path d="m188.308594 462.152344c2.195312 4.726562-1.207032 10.9375-7.871094 12.804687-16.199219 4.546875-33.347656 4.546875-49.542969 0-6.664062-1.867187-10.066406-8.078125-7.871093-12.804687 2.195312-4.75 7.914062-6.796875 12.980468-5.398438 12.855469 3.609375 26.464844 3.609375 39.320313 0 5.070312-1.398437 10.789062.648438 12.984375 5.398438zm0 0" fill="#333031"/><path d="m152.832031 448.066406c-.433593-.75-.433593-1.675781 0-2.421875l7.878907-13.648437-2.945313-5.101563c-.433594-.75-1.234375-1.210937-2.097656-1.210937s-1.664063.460937-2.097657 1.210937l-10.824218 18.75c-.433594.75-.433594 1.671875 0 2.421875.429687.746094 1.230468 1.210938 2.09375 1.210938h10.089844c-.867188-.003906-1.664063-.464844-2.097657-1.210938zm0 0" fill="#231f20"/><path d="m185.199219 431.378906c-.382813-.882812-.207031-1.910156.449219-2.617187l11.660156-12.519531-3.390625-3.640626c-.457031-.492187-1.101563-.773437-1.773438-.773437s-1.3125.28125-1.769531.773437l-15.050781 16.164063c-.65625.703125-.832031 1.730469-.449219 2.617187.386719.882813 1.257812 1.453126 2.222656 1.453126h10.324219c-.964844 0-1.835937-.574219-2.222656-1.457032zm0 0" fill="#231f20"/><path d="m112.203125 431.378906c-.386719-.882812-.210937-1.910156.449219-2.617187l11.679687-12.542969-3.371093-3.617188c-.457032-.492187-1.101563-.773437-1.773438-.773437s-1.316406.28125-1.773438.773437l-15.046874 16.160157c-.65625.707031-.835938 1.734375-.449219 2.617187.382812.882813 1.257812 1.457032 2.21875 1.457032h10.285156c-.960937 0-1.835937-.574219-2.21875-1.457032zm0 0" fill="#231f20"/><path d="m140.921875 474.957031c-6.660156-1.867187-10.066406-8.078125-7.871094-12.804687 1.042969-2.25 2.878907-3.886719 5.0625-4.847656-.707031-.171876-1.410156-.355469-2.109375-.550782-5.066406-1.398437-10.785156.652344-12.980468 5.398438-2.195313 4.726562 1.207031 10.9375 7.871093 12.804687 9.722657 2.730469 19.789063 3.808594 29.785157 3.261719-6.65625-.367188-13.285157-1.445312-19.757813-3.261719zm0 0" fill="#231f20"/><path d="m206.785156 236.328125c0 7.539063-6.109375 13.648437-13.644531 13.648437-7.539063 0-13.648437-6.109374-13.648437-13.648437v-13.644531c0-7.539063 6.109374-13.648438 13.648437-13.648438 7.535156 0 13.644531 6.109375 13.644531 13.648438zm0 0" fill="#994334"/><path d="m310.507812 236.328125c0 7.539063-6.109374 13.648437-13.648437 13.648437-7.535156 0-13.644531-6.109374-13.644531-13.648437v-13.644531c0-7.539063 6.109375-13.648438 13.644531-13.648438 7.539063 0 13.648437 6.109375 13.648437 13.648438zm0 0" fill="#994334"/><path d="m245 315.484375c-20.847656 0-37.8125-16.960937-37.8125-37.808594 0-2.863281 2.320312-5.179687 5.183594-5.179687h65.261718c2.859376 0 5.179688 2.316406 5.179688 5.179687-.003906 20.847657-16.964844 37.808594-37.8125 37.808594zm0 0" fill="#ff9f60"/><path d="m228 277.675781c0-2.859375 2.320312-5.179687 5.179688-5.179687h-20.808594c-2.859375 0-5.183594 2.320312-5.183594 5.179687 0 20.847657 16.964844 37.808594 37.8125 37.808594 3.609375 0 7.097656-.515625 10.40625-1.464844-15.804688-4.535156-27.40625-19.105469-27.40625-36.34375zm0 0" fill="#ff8d4d"/><path d="m250.460938 256.941406h-7.921876c-5.789062 0-10.5-4.707031-10.5-10.5v-19.664062c0-4.140625 3.359376-7.5 7.5-7.5 4.144532 0 7.5 3.359375 7.5 7.5v15.164062h3.421876c4.140624 0 7.5 3.359375 7.5 7.5 0 4.144532-3.359376 7.5-7.5 7.5zm0 0" fill="#ff9f60"/><path d="m78.320312 419.949219c8.480469 0 15.359376 6.875 15.359376 15.359375v26.332031c0 8.480469-6.878907 15.359375-15.363282 15.359375h-8.773437c-8.484375 0-15.363281-6.878906-15.363281-15.359375v-26.332031c0-8.484375 6.878906-15.359375 15.363281-15.359375zm0 0" fill="#ffc987"/><path d="m241.792969 419.949219c8.480469 0 15.359375 6.875 15.359375 15.359375v26.332031c0 8.480469-6.878906 15.359375-15.363282 15.359375h-8.773437c-8.484375 0-15.363281-6.878906-15.363281-15.359375v-26.332031c0-8.484375 6.878906-15.359375 15.363281-15.359375zm0 0" fill="#ffc987"/><path d="m131.988281 189.546875c-.894531 0-1.742187-.398437-2.316406-1.085937-.570313-.6875-.808594-1.597657-.644531-2.476563 8.355468-44.910156 45.390625-93.765625 81.207031-141.015625 11.503906-15.179688 22.371094-29.515625 32.296875-43.683594.566406-.804687 1.484375-1.285156 2.46875-1.285156s1.902344.480469 2.46875 1.285156c9.929688 14.171875 20.796875 28.503906 32.296875 43.683594 35.816406 47.25 72.851563 96.105469 81.207031 141.015625.164063.878906-.070312 1.789063-.644531 2.476563s-1.421875 1.085937-2.316406 1.085937zm0 0" fill="#924eb5"/><path d="m153.003906 185.984375c8.355469-44.910156 45.390625-93.765625 81.207032-141.015625 7.933593-10.464844 15.550781-20.527344 22.777343-30.414062-3.253906-4.453126-6.4375-8.871094-9.519531-13.269532-.566406-.804687-1.484375-1.285156-2.46875-1.285156s-1.902344.480469-2.46875 1.285156c-9.925781 14.167969-20.792969 28.503906-32.296875 43.683594-35.816406 47.25-72.851563 96.105469-81.207031 141.015625-.164063.878906.070312 1.789063.644531 2.476563.574219.691406 1.421875 1.089843 2.316406 1.089843h23.980469c-.898438 0-1.746094-.398437-2.320312-1.089843-.574219-.691407-.808594-1.597657-.644532-2.476563zm0 0" fill="#794091"/><path d="m200.671875 135c-.972656 0-1.8125-.671875-2.027344-1.621094-1.675781-7.410156-2.613281-8.347656-10.027343-10.023437-.945313-.214844-1.617188-1.054688-1.617188-2.027344s.671875-1.8125 1.617188-2.023437c7.414062-1.675782 8.351562-2.613282 10.027343-10.027344.210938-.945313 1.054688-1.621094 2.027344-1.621094.96875 0 1.808594.671875 2.023437 1.621094 1.675782 7.414062 2.613282 8.351562 10.027344 10.023437.945313.214844 1.617188 1.054688 1.621094 2.027344-.003906.972656-.675781 1.8125-1.625 2.027344-7.410156 1.675781-8.347656 2.613281-10.023438 10.023437-.210937.949219-1.054687 1.621094-2.023437 1.621094zm0 0" fill="#ffd00d"/><path d="m244.671875 135c-.972656 0-1.8125-.671875-2.027344-1.621094-1.675781-7.410156-2.613281-8.347656-10.027343-10.023437-.945313-.214844-1.617188-1.054688-1.617188-2.027344s.671875-1.8125 1.617188-2.023437c7.414062-1.675782 8.351562-2.613282 10.027343-10.027344.210938-.945313 1.054688-1.621094 2.027344-1.621094.96875 0 1.808594.671875 2.023437 1.621094 1.675782 7.414062 2.613282 8.351562 10.027344 10.023437.945313.214844 1.617188 1.054688 1.621094 2.027344-.003906.972656-.675781 1.8125-1.625 2.027344-7.410156 1.675781-8.347656 2.613281-10.023438 10.023437-.210937.949219-1.054687 1.621094-2.023437 1.621094zm0 0" fill="#ffd00d"/><path d="m288.671875 135c-.972656 0-1.8125-.671875-2.027344-1.621094-1.675781-7.410156-2.613281-8.347656-10.027343-10.023437-.945313-.214844-1.617188-1.054688-1.617188-2.027344s.671875-1.8125 1.617188-2.023437c7.414062-1.675782 8.351562-2.613282 10.027343-10.027344.214844-.945313 1.058594-1.621094 2.027344-1.621094s1.8125.671875 2.023437 1.621094c1.675782 7.414062 2.613282 8.351562 10.027344 10.023437.945313.214844 1.617188 1.054688 1.621094 2.027344-.003906.972656-.675781 1.8125-1.621094 2.027344-7.414062 1.675781-8.351562 2.613281-10.027344 10.023437-.210937.949219-1.054687 1.621094-2.023437 1.621094zm0 0" fill="#fff"/><path d="m329.253906 114.113281c-1.316406 3.144531-3.289062 3.980469-8.636718 5.1875-.945313.214844-1.617188 1.054688-1.617188 2.027344s.671875 1.8125 1.617188 2.027344c7.414062 1.671875 8.351562 2.609375 10.027343 10.023437.214844.949219 1.054688 1.621094 2.027344 1.621094.96875 0 1.8125-.671875 2.023437-1.621094.710938-3.152344 1.296876-5.125 2.296876-6.492187-2.460938-4.246094-5.042969-8.503907-7.738282-12.773438zm0 0" fill="#ffd00d"/><path d="m154.300781 133.378906c.214844.949219 1.054688 1.621094 2.027344 1.621094.96875 0 1.8125-.671875 2.023437-1.621094 1.675782-7.410156 2.613282-8.351562 10.027344-10.023437.945313-.214844 1.617188-1.054688 1.621094-2.027344-.003906-.972656-.675781-1.8125-1.621094-2.027344-4.792968-1.082031-6.875-1.867187-8.203125-4.28125-2.664062 4.246094-5.222656 8.484375-7.652343 12.707031.703124 1.3125 1.199218 3.089844 1.777343 5.652344zm0 0" fill="#ffd00d"/><path d="m176.972656 91.378906c.214844.949219 1.054688 1.621094 2.027344 1.621094.96875 0 1.8125-.671875 2.023438-1.621094 1.675781-7.410156 2.613281-8.351562 10.027343-10.023437.945313-.214844 1.621094-1.054688 1.621094-2.027344s-.675781-1.8125-1.621094-2.027344c-1.722656-.390625-3.082031-.738281-4.195312-1.140625-3.441407 4.703125-6.828125 9.410156-10.140625 14.117188.085937.351562.167968.714844.257812 1.101562zm0 0" fill="#ffd00d"/><path d="m223 93c-.972656 0-1.8125-.671875-2.027344-1.621094-1.675781-7.410156-2.613281-8.347656-10.027344-10.023437-.949218-.214844-1.617187-1.054688-1.617187-2.027344s.671875-1.8125 1.617187-2.023437c7.414063-1.675782 8.351563-2.613282 10.027344-10.027344.210938-.945313 1.054688-1.621094 2.023438-1.621094.972656 0 1.8125.671875 2.027344 1.621094 1.675781 7.414062 2.613281 8.351562 10.027343 10.023437.945313.214844 1.617188 1.054688 1.621094 2.027344-.003906.972656-.675781 1.8125-1.625 2.027344-7.410156 1.675781-8.347656 2.613281-10.023437 10.023437-.210938.949219-1.054688 1.621094-2.023438 1.621094zm0 0" fill="#fff"/><g fill="#ffd00d"><path d="m267 93c-.972656 0-1.8125-.671875-2.027344-1.621094-1.675781-7.410156-2.613281-8.347656-10.027344-10.023437-.949218-.214844-1.617187-1.054688-1.617187-2.027344s.671875-1.8125 1.617187-2.023437c7.414063-1.675782 8.351563-2.613282 10.027344-10.027344.210938-.945313 1.054688-1.621094 2.023438-1.621094.972656 0 1.8125.671875 2.027344 1.621094 1.675781 7.414062 2.613281 8.351562 10.027343 10.023437.945313.214844 1.617188 1.054688 1.621094 2.027344-.003906.972656-.675781 1.8125-1.625 2.027344-7.410156 1.675781-8.347656 2.613281-10.023437 10.023437-.210938.949219-1.054688 1.621094-2.023438 1.621094zm0 0"/><path d="m303.144531 76.164062c-1.113281.398438-2.476562.75-4.195312 1.140626-.949219.210937-1.621094 1.050781-1.621094 2.023437s.671875 1.8125 1.621094 2.027344c7.410156 1.675781 8.347656 2.613281 10.023437 10.023437.214844.949219 1.058594 1.621094 2.027344 1.621094.972656 0 1.8125-.671875 2.023438-1.621094.089843-.390625.175781-.75.261718-1.105468-3.3125-4.703126-6.699218-9.410157-10.140625-14.109376zm0 0"/><path d="m244.671875 48c-.972656 0-1.8125-.671875-2.027344-1.621094-1.675781-7.410156-2.613281-8.347656-10.027343-10.023437-.945313-.214844-1.617188-1.054688-1.617188-2.027344s.671875-1.8125 1.617188-2.023437c7.414062-1.675782 8.351562-2.613282 10.027343-10.027344.210938-.945313 1.054688-1.621094 2.027344-1.621094.96875 0 1.808594.671875 2.023437 1.621094 1.675782 7.414062 2.613282 8.351562 10.027344 10.023437.945313.214844 1.617188 1.054688 1.621094 2.027344-.003906.972656-.675781 1.8125-1.625 2.027344-7.410156 1.675781-8.347656 2.613281-10.023438 10.023437-.210937.949219-1.054687 1.621094-2.023437 1.621094zm0 0"/><path d="m223.015625 180.34375c-.96875 0-1.8125-.671875-2.027344-1.621094-1.675781-7.414062-2.609375-8.351562-10.023437-10.027344-.949219-.214843-1.621094-1.054687-1.621094-2.023437 0-.972656.671875-1.816406 1.621094-2.027344 7.414062-1.675781 8.347656-2.613281 10.023437-10.027343.210938-.945313 1.058594-1.617188 2.027344-1.617188s1.808594.671875 2.023437 1.621094c1.675782 7.414062 2.613282 8.347656 10.027344 10.023437.945313.214844 1.617188 1.054688 1.621094 2.027344-.003906.972656-.675781 1.8125-1.625 2.027344-7.410156 1.671875-8.347656 2.609375-10.023438 10.023437-.210937.949219-1.054687 1.621094-2.023437 1.621094zm0 0"/></g><path d="m267.015625 180.34375c-.96875 0-1.8125-.671875-2.027344-1.621094-1.675781-7.414062-2.609375-8.351562-10.023437-10.027344-.949219-.214843-1.621094-1.054687-1.621094-2.023437 0-.972656.671875-1.816406 1.621094-2.027344 7.414062-1.675781 8.347656-2.613281 10.023437-10.027343.210938-.945313 1.058594-1.617188 2.027344-1.617188s1.808594.671875 2.023437 1.621094c1.675782 7.414062 2.613282 8.347656 10.027344 10.023437.945313.214844 1.617188 1.054688 1.621094 2.027344-.003906.972656-.675781 1.8125-1.625 2.027344-7.410156 1.671875-8.347656 2.609375-10.023438 10.023437-.210937.949219-1.054687 1.621094-2.023437 1.621094zm0 0" fill="#fff"/><path d="m311.015625 180.34375c-.96875 0-1.8125-.671875-2.027344-1.621094-1.675781-7.414062-2.609375-8.351562-10.023437-10.027344-.949219-.214843-1.621094-1.054687-1.621094-2.023437 0-.972656.671875-1.816406 1.621094-2.027344 7.414062-1.675781 8.347656-2.613281 10.023437-10.027343.210938-.945313 1.058594-1.617188 2.027344-1.617188s1.808594.671875 2.023437 1.621094c1.675782 7.414062 2.613282 8.347656 10.027344 10.023437.945313.214844 1.617188 1.054688 1.621094 2.027344-.003906.972656-.675781 1.8125-1.625 2.027344-7.410156 1.671875-8.347656 2.609375-10.023438 10.023437-.210937.949219-1.054687 1.621094-2.023437 1.621094zm0 0" fill="#ffd00d"/><path d="m306.328125 362.34375c-.972656 0-1.8125-.671875-2.027344-1.621094-1.675781-7.414062-2.613281-8.351562-10.027343-10.027344-.949219-.214843-1.617188-1.054687-1.617188-2.023437 0-.972656.671875-1.816406 1.617188-2.027344 7.414062-1.675781 8.351562-2.613281 10.027343-10.027343.210938-.945313 1.054688-1.617188 2.023438-1.617188.972656 0 1.8125.671875 2.027343 1.621094 1.675782 7.414062 2.613282 8.347656 10.027344 10.023437.945313.214844 1.617188 1.054688 1.617188 2.027344s-.671875 1.8125-1.621094 2.027344c-7.410156 1.671875-8.347656 2.609375-10.023438 10.023437-.210937.949219-1.054687 1.621094-2.023437 1.621094zm0 0" fill="#fff"/><path d="m276.671875 411.34375c-.972656 0-1.8125-.671875-2.027344-1.621094-1.675781-7.414062-2.613281-8.351562-10.027343-10.027344-.945313-.214843-1.617188-1.054687-1.617188-2.023437 0-.972656.671875-1.816406 1.617188-2.027344 7.414062-1.675781 8.351562-2.613281 10.027343-10.027343.214844-.945313 1.058594-1.617188 2.027344-1.617188s1.8125.671875 2.023437 1.621094c1.675782 7.414062 2.613282 8.347656 10.027344 10.023437.945313.214844 1.617188 1.054688 1.621094 2.027344-.003906.972656-.675781 1.8125-1.621094 2.027344-7.414062 1.671875-8.351562 2.609375-10.027344 10.023437-.210937.949219-1.054687 1.621094-2.023437 1.621094zm0 0" fill="#ffd00d"/><path d="m238.722656 503.300781c-7.414062-1.671875-8.351562-2.609375-10.027344-10.023437-.210937-.949219-1.050781-1.621094-2.023437-1.621094-.96875 0-1.8125.671875-2.027344 1.621094-1.675781 7.414062-2.609375 8.351562-10.023437 10.023437-.945313.214844-1.617188 1.054688-1.617188 2.027344s.667969 1.8125 1.617188 2.027344c4.316406.972656 6.433594 1.707031 7.78125 3.609375 2.707031.246094 5.425781.4375 8.160156.597656 1.328125-2.359375 3.417969-3.136719 8.160156-4.207031.949219-.214844 1.621094-1.054688 1.625-2.027344-.003906-.972656-.679687-1.8125-1.625-2.027344zm0 0" fill="#ffd00d"/><path d="m288.722656 507.355469c.949219-.214844 1.621094-1.054688 1.621094-2.027344s-.675781-1.8125-1.621094-2.027344c-7.414062-1.671875-8.351562-2.609375-10.027344-10.023437-.210937-.949219-1.050781-1.621094-2.023437-1.621094-.96875 0-1.8125.671875-2.027344 1.621094-1.675781 7.414062-2.609375 8.351562-10.023437 10.023437-.949219.214844-1.621094 1.054688-1.621094 2.027344s.671875 1.8125 1.621094 2.027344c3.953125.890625 6.054687 1.582031 7.417968 3.152343 3.785157-.417968 7.542969-.917968 11.273438-1.503906 1.285156-.636718 3.003906-1.105468 5.410156-1.648437zm0 0" fill="#ffd00d"/><path d="m351.671875 411.34375c-.972656 0-1.8125-.671875-2.027344-1.621094-1.675781-7.414062-2.613281-8.351562-10.027343-10.027344-.945313-.214843-1.617188-1.054687-1.617188-2.023437 0-.972656.671875-1.816406 1.617188-2.027344 7.414062-1.675781 8.351562-2.613281 10.027343-10.027343.214844-.945313 1.058594-1.617188 2.027344-1.617188s1.8125.671875 2.023437 1.621094c1.675782 7.414062 2.613282 8.347656 10.027344 10.023437.945313.214844 1.617188 1.054688 1.621094 2.027344-.003906.972656-.675781 1.8125-1.621094 2.027344-7.414062 1.671875-8.351562 2.609375-10.027344 10.023437-.210937.949219-1.054687 1.621094-2.023437 1.621094zm0 0" fill="#ffd00d"/><path d="m367.671875 459c-.972656 0-1.8125-.671875-2.027344-1.621094-1.675781-7.410156-2.613281-8.347656-10.027343-10.023437-.945313-.214844-1.617188-1.054688-1.617188-2.027344s.671875-1.8125 1.617188-2.023437c7.414062-1.675782 8.351562-2.613282 10.027343-10.027344.214844-.945313 1.058594-1.621094 2.027344-1.621094s1.8125.671875 2.023437 1.621094c1.675782 7.414062 2.613282 8.351562 10.027344 10.023437.945313.214844 1.617188 1.054688 1.621094 2.027344-.003906.972656-.675781 1.8125-1.621094 2.027344-7.414062 1.675781-8.351562 2.613281-10.027344 10.023437-.210937.949219-1.054687 1.621094-2.023437 1.621094zm0 0" fill="#fff"/><path d="m352.277344 157.464844c-1.378906 4.84375-2.984375 5.75-9.3125 7.179687-.949219.210938-1.621094 1.054688-1.621094 2.027344 0 .96875.671875 1.808594 1.621094 2.023437 7.414062 1.675782 8.347656 2.613282 10.023437 10.027344.214844.949219 1.058594 1.621094 2.027344 1.621094s1.8125-.671875 2.023437-1.621094c.402344-1.773437.761719-3.167968 1.175782-4.300781-1.601563-5.601563-3.601563-11.261719-5.9375-16.957031zm0 0" fill="#ffd00d"/><path d="m132.644531 178.722656c.214844.949219 1.054688 1.621094 2.027344 1.621094.96875 0 1.8125-.671875 2.023437-1.621094 1.675782-7.414062 2.613282-8.351562 10.027344-10.027344.949219-.210937 1.621094-1.054687 1.621094-2.023437 0-.976563-.675781-1.8125-1.621094-2.027344-6.128906-1.386719-7.828125-2.277343-9.183594-6.730469-2.328124 5.71875-4.3125 11.394532-5.894531 17.015626.339844 1.039062.65625 2.273437 1 3.792968zm0 0" fill="#ffd00d"/><path d="m178.671875 180.34375c-.972656 0-1.8125-.671875-2.027344-1.621094-1.675781-7.414062-2.613281-8.351562-10.027343-10.027344-.945313-.214843-1.617188-1.054687-1.617188-2.023437 0-.972656.671875-1.816406 1.617188-2.027344 7.414062-1.675781 8.351562-2.613281 10.027343-10.027343.210938-.945313 1.054688-1.617188 2.027344-1.617188.96875 0 1.808594.671875 2.023437 1.621094 1.675782 7.414062 2.613282 8.347656 10.027344 10.023437.945313.214844 1.617188 1.054688 1.621094 2.027344-.003906.972656-.675781 1.8125-1.625 2.027344-7.410156 1.671875-8.347656 2.609375-10.023438 10.023437-.210937.949219-1.054687 1.621094-2.023437 1.621094zm0 0" fill="#fff"/><path d="m68.355469 461.640625-.003907-26.332031c0-7.558594 5.464844-13.828125 12.660157-15.109375-.875-.152344-1.773438-.25-2.691407-.25h-8.777343c-8.484375 0-15.363281 6.875-15.363281 15.359375v26.332031c0 8.480469 6.878906 15.359375 15.363281 15.359375h8.773437c.921875 0 1.816406-.097656 2.695313-.253906-7.195313-1.277344-12.660157-7.546875-12.65625-15.105469zm0 0" fill="#efb06c"/><path d="m231.828125 461.640625v-26.332031c0-7.558594 5.464844-13.828125 12.652344-15.109375-.871094-.152344-1.769531-.25-2.6875-.25h-8.777344c-8.484375 0-15.363281 6.875-15.363281 15.359375l.003906 26.332031c-.003906 8.480469 6.875 15.359375 15.359375 15.359375h8.773437c.921876 0 1.816407-.097656 2.691407-.253906-7.191407-1.28125-12.652344-7.546875-12.652344-15.105469zm0 0" fill="#efb06c"/></svg>