<svg width="1200" height="558" viewBox="0 0 1200 558" fill="none" xmlns="http://www.w3.org/2000/svg">
<g clip-path="url(#clip0_2814_104)">
<rect width="1200" height="558" fill="#F8F7F2"/>
<g opacity="0.24">
<g opacity="0.2">
<path d="M268.777 539.436C268.41 537.471 268.68 534.948 268.881 533.057C270.361 519.191 281.764 509.816 293.737 511.378C296.588 511.751 299.373 512.751 301.516 514.311C308.295 504.97 318.658 499.934 330.059 501.422C343.169 503.133 353.06 513.37 356.343 525.941C361.138 518.9 368.453 515.379 376.434 516.42L377.002 516.495C382.641 496.142 400.858 482.543 420.239 485.073C426.51 485.892 432.579 488.6 437.44 491.794C449.35 472.26 470.279 460.294 493.084 463.271C503.916 464.685 513.27 469.102 521.215 475.889C535.207 458.543 556.501 448.542 579.308 451.519C607.811 455.239 630.238 477.976 636.907 507.603C641.034 506.863 645.089 506.755 649.65 507.35C670.173 510.028 685.393 529.908 685.317 552.266L689.31 552.787C757.853 561.734 752.54 611.527 750.455 631.066C750.455 631.066 699.015 624.352 681.912 622.12C681.912 622.12 670.345 640.261 634.504 649.293C598.662 658.325 510.274 651.815 459.145 640.115C408.016 628.414 270.316 568.397 270.316 568.397C262.904 567.43 202.148 559.5 202.148 559.5C204.026 552.711 264.015 540.73 268.777 539.436Z" fill="#B89F7A"/>
<path d="M495.38 405.814C495.737 404.629 495.737 403.046 495.737 401.861C495.737 393.166 489.295 386.447 481.776 386.447C479.985 386.447 478.195 386.841 476.764 387.632C473.183 381.308 467.098 377.357 459.938 377.357C451.705 377.357 444.903 382.89 442.039 390.4C439.534 385.658 435.236 382.89 430.225 382.89H429.868C427.72 369.847 417.337 359.967 405.166 359.967C401.228 359.967 397.29 361.152 394.069 362.735C387.983 349.692 375.812 340.603 361.491 340.603C354.688 340.603 348.603 342.579 343.234 346.136C335.715 334.278 323.187 326.374 308.865 326.374C290.966 326.374 275.573 338.626 269.485 356.411C266.978 355.62 264.473 355.225 261.609 355.225C248.721 355.225 237.981 366.292 236.55 380.125H234.043C191 380.125 191 411.349 191 423.601C191 423.601 223.303 423.601 234.043 423.601H492.513C497.168 423.601 535.321 423.601 535.321 423.601C534.606 419.251 498.244 406.999 495.38 405.814Z" fill="#B89F7A"/>
</g>
<path d="M289.371 499.127L288.487 479.989L307.92 475.278L306.742 437.296H305.565L307.92 426.107L309.098 431.112L312.631 423.457V420.513H311.453L314.103 415.213H315.575V403.141H314.103L317.048 382.53L320.581 403.141H319.403V412.268L343.547 404.024V390.48L345.608 381.941L350.613 343.076V339.248H349.141V338.07H350.613V335.715H351.791V338.07H352.969V339.248H351.791V343.076L353.558 381.941L356.208 390.48V399.902L388.89 388.419V376.053H387.712L391.246 359.27L395.368 376.053H394.484V399.313L399.49 397.841V396.663H398.312L401.551 376.053L400.373 373.992L413.917 331.004L414.212 323.349L411.562 321.288V317.754L408.912 316.282V304.505H408.028L409.795 298.322L411.562 304.505L412.739 301.266L414.212 306.566L415.389 304.21L418.039 311.571L417.156 312.454V319.815L427.167 287.722L428.345 273L428.933 287.722L458.377 373.992L457.199 376.053V386.947L455.433 388.419V389.891L454.549 390.48V435.529L455.433 436.118V439.357L466.327 443.479L466.032 428.168H464.56L474.571 384.591L475.16 373.992V384.591L486.349 428.168H483.993L486.349 499.127H289.371Z" fill="#A69475"/>
<path d="M347.698 530.69C349.473 530.213 351.439 529.793 353.314 529.484C353.95 528.044 355.663 526.918 357.778 526.462L357.422 525.521L356.979 522.403L360.838 517.284L363.054 511.787L365.95 509.465L365.524 506.472L365.818 504.24L364.278 505.994L362.761 504.949L362.415 501.821L361.534 506.373L364.064 508.033L360.986 510.422L358.556 514.833L355.063 517.749L355.055 515.489L353.696 510.773L356.011 504.368L359.193 502.01L361.025 491.776L357.386 490.493L356.046 488.813L356.33 486.457L354.367 489.154L356.019 491.842L358.96 493.28L355.941 498.928L351.169 501.932L349.365 506.394L345.471 499.503L343.063 496.279L342 489.509L338.212 486.637L337.038 484.994L336.88 486.625L339.991 490.648L340.106 495.597L341.823 500.729L337.29 500.47L334.103 497.257L332.694 492.728L331.972 490.602L329.415 488.753L328.474 486.6L328.904 489.627L331.144 492.307L332.191 498.327L329.931 498.183L328.222 496.497L329.933 500.3L333.325 500.333L336.112 503.799L343.888 505.728L346.389 516.268L346.52 529.716C346.988 529.913 347.396 530.25 347.699 530.69L347.698 530.69Z" fill="#80623C"/>
<path d="M439.149 532.386C440.97 532.36 442.966 532.438 444.85 532.601C445.761 531.352 447.654 530.676 449.801 530.755L449.647 529.747L449.85 526.59L454.64 522.545L457.91 517.723L461.196 516.172L461.39 513.141L462.13 511.033L460.277 512.365L459.016 510.967L459.315 507.824L457.534 512.054L459.655 514.304L456.179 515.875L452.921 519.583L448.935 521.566L449.386 519.355L449.024 514.409L452.576 508.724L456.147 507.209L460.006 497.661L456.732 495.505L455.772 493.53L456.526 491.298L454.071 493.446L455.129 496.483L457.695 498.619L453.613 503.39L448.366 505.141L445.706 509.054L443.324 501.353L441.639 497.604L441.983 490.723L438.887 486.977L438.08 485.079L437.595 486.634L439.8 491.338L438.906 496.204L439.53 501.645L435.179 500.267L432.736 496.336L432.287 491.56L432.018 489.303L429.909 486.861L429.433 484.524L429.236 487.589L430.867 490.764L430.661 496.907L428.494 496.206L427.177 494.133L428.066 498.275L431.355 499.15L433.358 503.229L440.52 507.044L440.808 517.966L438.202 531.142C438.617 531.45 438.945 531.881 439.149 532.386L439.149 532.386Z" fill="#80623C"/>
<path d="M567.554 559.397C565.849 558.715 563.946 558.067 562.122 557.539C561.662 556.034 560.096 554.714 558.051 554.013L558.517 553.12L559.329 550.076L556.109 544.539L554.566 538.82L551.967 536.174L552.749 533.251L552.723 531.001L554.042 532.924L555.674 532.065L556.391 529L556.722 533.623L554.012 534.973L556.782 537.708L558.668 542.374L561.787 545.681L562.066 543.438L563.979 538.915L562.445 532.283L559.568 529.567L558.972 519.189L562.738 518.344L564.269 516.834L564.269 514.461L565.896 517.369L563.935 519.844L560.842 520.926L563.165 526.889L567.545 530.434L568.803 535.077L573.492 528.693L576.269 525.776L578.133 519.178L582.238 516.772L583.6 515.279L583.562 516.917L579.992 520.546L579.286 525.446L576.969 530.34L581.501 530.616L585.049 527.801L586.989 523.47L587.96 521.444L590.72 519.91L591.912 517.883L591.123 520.838L588.579 523.235L586.819 529.088L589.081 529.212L590.979 527.739L588.825 531.314L585.453 530.947L582.272 534.061L574.321 535.06L570.578 545.232L568.84 558.57C568.352 558.709 567.906 558.996 567.553 559.397L567.554 559.397Z" fill="#80623C"/>
<path d="M432.183 533.027L426.872 536.389V616.313H574.679V557.082L567.304 549.839L565.828 545.442L561.993 543.89V542.08L554.913 534.579L554.027 530.958L552.257 528.889L550.487 528.113L551.077 526.302L549.307 525.267L546.357 515.18L544.882 513.111L540.456 511.042L538.981 507.679L534.556 505.61H532.786L531.901 504.317H530.131L527.77 502.247H524.525L523.64 501.73H522.165L520.985 500.178L513.904 497.074L511.249 495.522L508.299 495.005L491.187 496.298L490.597 497.85L483.812 498.885L482.337 501.213V502.247L481.452 503.023V504.317L479.386 507.162L477.616 511.559L472.601 510.007L464.045 510.524L457.85 514.663L454.604 515.439L452.834 518.025H446.639L443.983 519.836H438.968L436.018 522.94L432.183 524.233V533.027Z" fill="#8F8059"/>
<path d="M229.6 527.429L224.3 531.527V616.313H550.535L519.62 529.99V527.173L516.381 525.636V522.306L510.492 517.695V515.133L492.237 511.291V509.498L486.937 500.789L488.998 498.74L486.937 495.154L479.576 494.385L476.926 489.775L472.51 489.006L466.915 486.188V483.627L463.971 476.455L454.844 471.588L438.355 460.573H435.705H432.172L415.683 452.377L406.556 450.84L389.773 456.219L384.179 461.086H377.112L374.757 463.391L370.635 464.672L368.574 466.209H366.513H362.979L361.802 465.184L356.796 464.672L354.441 465.184H352.969L340.013 471.588L336.775 473.637H331.475L332.358 474.662L327.647 477.479L325.88 476.455L323.23 475.43H319.403L310.275 478.248L307.625 480.297L305.859 479.016L304.092 480.297L297.026 477.479L294.376 479.016L292.315 477.479L280.243 481.834L273.765 480.297L268.76 484.652L264.343 486.188L259.927 492.592L256.982 494.385V497.715L251.094 500.533L249.621 504.631L247.266 506.168V507.705L243.438 509.242L239.316 514.109H236.666V516.414L233.133 518.463L232.25 520.769V522.562L229.6 525.892V527.429Z" fill="#8F8059"/>
<path d="M428.052 320.11H426.285V317.46C426.285 317.46 426.58 316.577 427.168 316.577C427.757 316.577 428.052 317.46 428.052 317.46V320.11Z" fill="#F8F7F2"/>
<path d="M415.098 313.632H413.331V310.982C413.331 310.982 413.625 310.099 414.214 310.099C414.803 310.099 415.098 310.982 415.098 310.982V313.632Z" fill="#F8F7F2"/>
<path d="M392.131 374.875H390.364V372.225C390.364 372.225 390.659 371.342 391.248 371.342C391.836 371.342 392.131 372.225 392.131 372.225V374.875Z" fill="#F8F7F2"/>
<path d="M352.087 381.353H350.32V378.703C350.32 378.703 350.615 377.819 351.204 377.819C351.792 377.819 352.087 378.703 352.087 378.703V381.353Z" fill="#F8F7F2"/>
<path d="M318.522 401.963H316.755V399.313C316.755 399.313 317.049 398.43 317.638 398.43C318.227 398.43 318.522 399.313 318.522 399.313V401.963Z" fill="#F8F7F2"/>
<path d="M479.284 426.696H475.162V420.513C475.162 420.513 475.849 418.452 477.223 418.452C478.597 418.452 479.284 420.513 479.284 420.513V426.696Z" fill="#F8F7F2"/>
<path d="M407.442 394.897H404.498V390.48C404.498 390.48 404.989 389.008 405.97 389.008C406.952 389.008 407.442 390.48 407.442 390.48V394.897Z" fill="#F8F7F2"/>
<path d="M308.511 436.118H307.333V434.351C307.333 434.351 307.529 433.762 307.922 433.762C308.314 433.762 308.511 434.351 308.511 434.351V436.118Z" fill="#F8F7F2"/>
<path d="M454.552 384.297H452.196V380.764C452.196 380.764 452.589 379.586 453.374 379.586C454.159 379.586 454.552 380.764 454.552 380.764V384.297Z" fill="#F8F7F2"/>
<path d="M203.535 493.147L209.437 489.174L208.257 484.558L207.398 465.02L209.437 459.974L210.51 461.37L212.335 470.495L209.974 476.185L211.584 478.439V486.491L214.052 487.779L218.988 486.491L221.993 481.552L220.598 477.58V465.02L229.183 452.567L228.11 446.233C228.882 443.833 229.641 442.441 234.442 439.469C234.442 439.469 236.159 438.396 238.305 439.469C240.452 440.543 238.447 445.977 236.159 451.493C236.159 451.493 238.305 447.736 240.022 442.475C241.739 437.215 239.164 431.74 239.164 431.74C241.513 433.728 242.755 435.328 244.637 440.328C247.274 447.876 247.628 452.181 246.461 459.974C244.717 470.585 242.617 473.381 239.164 479.191C242.306 476.688 243.976 476.47 247.427 469.958C248.656 471.035 246.912 474.489 243.829 480.594L243.779 480.693L243.834 480.615C245.661 478.019 246.702 476.54 251.72 465.02L250.325 462.443C250.325 462.443 251.72 459.545 253.974 458.901C256.227 458.256 256.12 459.545 256.12 459.545C256.12 459.545 259.447 458.256 256.12 452.245C252.793 446.233 248.715 437.43 248.715 437.43C248.715 437.43 241.83 426.12 238.305 418.428C233.914 408.845 229.291 392.985 229.291 392.985L228.432 388.798L225.535 382.357L221.886 377.526L222.53 370.441L224.569 363.033L227.574 372.91L223.818 376.238L226.93 379.673L229.291 388.154L234.764 394.595V397.064L232.618 398.567L234.764 399.748H235.944V401.788H237.661V403.828H239.164V405.223L242.061 406.512C242.061 406.512 261.594 432.643 275.973 447.736C284.828 457.03 299.69 470.495 299.69 470.495L247.857 406.512L246.032 402.647L244.637 395.776L246.032 394.595L244.637 392.985C244.637 392.985 244.109 390.958 243.779 389.657C241.659 381.318 238.842 368.186 238.842 368.186H237.018V365.61L233.905 359.598L232.51 350.58L233.905 346.5L231.974 345.749V341.133L225.535 339.737C225.535 339.737 221.508 337.088 220.169 334.477C218.686 331.585 219.203 326.211 219.203 326.211C219.203 326.211 217.872 320.404 214.91 319.018C212.671 317.97 210.78 317.892 208.579 319.018C206.942 319.855 207.072 321.785 205.359 322.453C203.915 323.017 202.918 322.706 201.388 322.453C197.649 321.836 195.922 319.863 193.232 317.193C190.815 314.793 188.296 310 188.296 310C188.296 310 187.838 313.065 188.296 314.938C189.26 318.884 195.486 322.453 195.486 322.453L186.793 319.018L192.159 323.527C192.159 323.527 189.001 321.677 186.793 320.95C182.76 319.623 175.954 320.091 175.954 320.091C175.954 320.091 181.389 320.855 184.432 322.453C188.37 324.52 192.696 330.29 192.696 330.29C192.696 330.29 181.348 328.654 174.023 328.358C169.291 328.166 166.578 329.073 161.896 328.358C157.571 327.697 151.164 325.137 151.164 325.137C151.164 325.137 157.471 331.768 162.54 334.477C166.049 336.352 172.091 338.019 172.091 338.019L146.12 333.725C146.12 333.725 159.929 341.564 169.73 342.958C175.746 343.814 185.291 342.958 185.291 342.958C185.291 342.958 178.684 347.464 174.023 349.506C170.242 351.163 165.246 352.292 160.806 353.039L150.199 354.337C150.199 354.337 155.032 354.011 160.806 353.039L185.291 350.043C185.291 350.043 172.272 356.315 163.291 356.914C155.697 357.42 143.974 354.337 143.974 354.337C143.974 354.337 155.607 357.993 163.291 358.095C169.289 358.174 178.53 356.162 178.53 356.162L177.135 358.095L166.189 359.49C166.189 359.49 171.405 361.637 174.774 361.101C176.62 360.807 179.281 359.49 179.281 359.49L185.291 356.162C185.291 356.162 183.418 359.49 181.642 361.101C176.304 365.943 167.798 363.57 163.291 363.033C160.746 362.73 158.167 361.366 156.404 360.236L154.169 358.632C154.169 358.632 155.044 359.364 156.404 360.236L163.291 365.18L177.135 364.107L167.798 369.474L186.793 360.457L185.291 363.033L183.681 366.576C178.189 375.69 174.983 378.02 169.194 380.639L161.896 383.967C161.896 383.967 172.842 381.391 174.023 380.639C175.203 379.888 180.784 374.198 180.784 374.198L178.53 383.323L172.842 392.985L167.798 396.742L163.291 400.178H165.652L169.194 398.889L164.579 404.15L180.784 394.595L185.291 390.838V388.154L192.696 372.91V370.441L194.306 369.474V367.649L196.667 363.033V366.576L197.74 367.649L196.667 369.474L197.74 372.051V377.526L195.486 379.673V381.391H194.306C188.447 390.592 188.175 390.937 186.793 392.985H185.291L172.842 400.178L174.774 402.539C165.675 409.622 167.342 410.369 164.579 411.059C164.579 411.059 162.411 418.587 160.072 419.609C160.072 419.609 154.92 427.338 148.696 430.666C142.472 433.994 147 440.328 147 440.328L140.5 449.131L135 477.58C135 477.58 136.891 477.58 158.998 450.849C181.106 424.118 163.291 449.131 163.291 449.131L162.647 452.567L165.652 450.205L168.013 455.251C161.587 459.335 160.653 460.323 158.033 462.551L168.013 459.974L163.291 470.495L162.647 472.212C162.647 472.212 160.715 473.93 158.033 477.58C155.35 481.23 151.916 491.214 151.916 491.214C151.916 491.214 153.418 487.457 160.716 478.439C168.013 469.421 170.803 471.139 170.803 471.139L173.057 470.495L176.169 468.67L177.779 469.421C177.779 469.421 178.423 468.67 180.676 468.026C182.93 467.382 182.93 469.421 182.93 469.421C182.327 471.788 181.273 473.103 178.423 475.433L181.857 473.93C181.857 473.93 183.467 473.179 183.467 476.185V479.191L179.174 486.491L196.13 468.67L199.779 483.163L198.169 484.558L199.779 485.524L200.637 492.073L203.535 493.147Z" fill="#80623C"/>
<path d="M231.425 565.187L222.422 568.55V648.473H473V589.242L460.496 582L457.995 577.603L451.493 576.051V574.24L439.49 566.739L437.989 563.118L434.988 561.049L431.987 560.273L432.988 558.462L429.987 557.428L424.985 547.34L422.484 545.271L414.982 543.202L412.481 539.839L404.979 537.77H401.978L400.477 536.477H397.476L393.475 534.408H387.973L386.473 533.89H383.972L381.972 532.339L369.968 529.235L365.466 527.683L360.465 527.165L331.456 528.459L330.456 530.011L318.952 531.045L316.451 533.373V534.408L314.951 535.184V536.477L311.45 539.322L308.449 543.719L299.946 542.167L285.442 542.685L274.938 546.823L269.437 547.599L266.436 550.185H255.932L251.431 551.996H242.928L237.927 555.1L231.425 556.393V565.187Z" fill="#8F8059"/>
<path d="M-112.015 559.589L-121 563.687V648.473H432.069L379.657 562.151V559.333L374.166 557.796V554.466L364.183 549.855V547.294L333.235 543.452V541.658L324.25 532.949L327.745 530.9L324.25 527.314L311.771 526.546L307.279 521.935L299.792 521.166L290.308 518.349V515.787L285.316 508.615L269.842 503.748L241.889 492.734H237.397H231.407L203.454 484.537L187.98 483L159.528 488.379L150.044 493.246H138.064L134.071 495.551L127.082 496.832L123.588 498.369H120.094H114.104L112.108 497.344L103.622 496.832L99.6286 497.344H97.1328L75.1698 503.748L69.679 505.797H60.6941L62.1916 506.822L54.205 509.64L51.2101 508.615L46.7177 507.59H40.2286L24.7546 510.408L20.2622 512.457L17.2672 511.177L14.2723 512.457L2.29243 509.64L-2.2 511.177L-5.69411 509.64L-26.1597 513.994L-37.1412 512.457L-45.6269 516.812L-53.1143 518.349L-60.6017 524.753L-65.5933 526.546V529.876L-75.5765 532.693L-78.0723 536.792L-82.0655 538.329V539.865L-88.5546 541.402L-95.5429 546.269H-100.035V548.575L-106.025 550.624L-107.523 552.929V554.722L-112.015 558.052V559.589Z" fill="#8F8059"/>
</g>
<path d="M64.68 70.804L66.948 68.494L69.762 71.434L73.962 63.034L68.208 63.58L67.872 60.85L63.672 72.988L60.48 71.854L67.452 51.778L70.644 52.912L68.124 60.178L80.472 59.044L80.892 62.362L74.718 62.95L77.28 64.252L72.324 74.122L82.068 84.286L79.464 86.764L64.68 70.804ZM45.444 59.128L52.752 58.414L51.786 53.038L55.23 52.408L56.238 58.12L62.328 57.532L62.706 60.682L45.822 62.236L45.444 59.128ZM51.24 81.556L54.936 82.144L56.574 68.2L53.256 68.704L52.836 66.352L48.468 84.832L45.024 83.824L50.232 62.446L53.592 63.16L52.92 65.974L60.522 64.882L58.044 86.554L50.862 83.908L51.24 81.556ZM67.536 75.886L70.098 78.658L65.646 87.478L62.622 85.84L67.536 75.886ZM68.502 120.17L65.184 119.372L65.562 118.112L59.64 118.448L60.06 120.002L56.742 120.674L54.558 112.82L57.876 112.148L58.842 115.592L66.444 115.172L67.536 111.56L70.854 112.316L70.056 114.962L80.136 114.416L80.262 117.314L69.174 117.902L68.502 120.17ZM46.032 116.348L54.138 115.886L54.936 118.7L46.158 119.204L46.032 116.348ZM64.008 128.444L72.408 128.696L72.702 126.806L63.588 127.226L63.42 124.916L72.996 124.496L73.29 122.48L63.126 123.656L62.748 121.178L76.986 119.582L75.138 131.09L63.84 130.754L64.008 128.444ZM58.212 121.136L61.32 120.59L63.084 131.342L59.934 131.888L58.212 121.136ZM51.156 120.674L56.952 125.168L54.894 127.604L49.14 123.11L51.156 120.674ZM47.418 126.764L53.676 130.922L51.828 133.526L45.612 129.41L47.418 126.764ZM70.182 144.782L74.298 145.496L75.642 139.532L70.602 139.364L72.828 140.96L64.932 149.024L62.37 147.302L70.308 139.364L64.428 139.196L66.36 140.834L58.38 147.05L56.238 145.076L64.008 139.154L62.412 139.112L62.328 137.474L56.07 142.43L53.886 140.372L60.186 135.668L54.978 135.962L54.81 133.316L81.564 131.636L81.732 134.324L62.496 135.5L63.798 136.298L63.336 136.676L79.506 137.012L76.776 148.856L69.636 147.05L70.182 144.782ZM51.996 135.038L54.726 136.802L48.006 147.092L45.318 145.37L51.996 135.038ZM58.212 192.72L68.754 193.476L69.174 190.662L57.96 190.788L57.834 188.268L69.552 188.058L69.888 185.664L57.75 186.252L57.54 183.732L70.266 183.06L70.644 180.54L57.036 181.926L56.28 179.028L60.48 178.608L58.128 177.18L61.11 172.896L64.008 174.534L60.984 178.566L74.676 177.222L71.694 196.5L57.96 195.492L58.212 192.72ZM51.408 178.104L54.852 177.81L56.7 196.5L53.256 196.794L51.408 178.104ZM72.744 198.432L75.012 196.5L81.144 203.388L78.624 205.698L72.744 198.432ZM62.538 196.542L67.2 199.986L65.058 202.506L60.522 198.852L62.538 196.542ZM50.106 198.096L52.92 199.86L48.594 207.42L45.612 205.446L50.106 198.096ZM55.23 198.432L58.716 198.684L57.918 205.026L70.56 204.522L68.922 201.204L71.274 199.902L76.062 207.462L54.096 208.344L55.23 198.432ZM63.126 245.488L70.224 239.944L51.282 241.456L51.114 238.096L72.618 236.5L75.726 239.23L66.36 247.252L63.126 245.488ZM56.574 265.06L63.21 265.942L61.656 247.294L65.394 246.874L65.688 250.612L80.976 249.688L81.186 253.132L65.982 254.056L67.326 270.478L56.112 267.706L56.574 265.06ZM44.982 251.914L60.606 250.948L60.9 254.392L45.192 255.316L44.982 251.914ZM63.042 329.336C63.882 328.188 64.764 326.858 65.688 325.346C66.612 323.806 67.536 322.196 68.46 320.516C69.412 318.836 70.308 317.17 71.148 315.518C71.988 313.866 72.73 312.326 73.374 310.898C74.018 309.47 74.508 308.252 74.844 307.244C71.82 304.976 68.95 303.842 66.234 303.842C64.05 303.842 61.838 304.556 59.598 305.984C57.386 307.384 54.992 309.484 52.416 312.284L49.77 309.764C52.766 306.684 55.594 304.36 58.254 302.792C60.942 301.224 63.672 300.44 66.444 300.44C68.544 300.44 70.728 300.902 72.996 301.826C75.264 302.75 77.686 304.136 80.262 305.984C79.814 307.02 79.198 308.364 78.414 310.016C77.63 311.64 76.748 313.418 75.768 315.35C74.788 317.254 73.752 319.186 72.66 321.146C71.568 323.078 70.476 324.912 69.384 326.648C68.292 328.356 67.256 329.798 66.276 330.974L63.042 329.336ZM67.704 309.176C67.116 310.352 66.374 311.724 65.478 313.292C64.61 314.832 63.7 316.414 62.748 318.038C61.796 319.662 60.872 321.174 59.976 322.574C59.08 323.946 58.31 325.052 57.666 325.892C57.05 325.332 56.294 324.576 55.398 323.624C54.502 322.672 53.578 321.65 52.626 320.558C51.674 319.438 50.764 318.36 49.896 317.324C49.028 316.288 48.286 315.406 47.67 314.678C47.054 313.95 46.676 313.502 46.536 313.334L48.804 310.814L57.288 320.054C57.988 318.99 58.744 317.772 59.556 316.4C60.396 315 61.208 313.544 61.992 312.032C62.804 310.52 63.504 309.078 64.092 307.706L67.704 309.176ZM60.018 367.068L73.416 367.53L73.92 360.81L60.06 361.776L59.682 358.962L77.532 357.66L76.524 370.386L59.934 369.882L60.018 367.068ZM52.92 357.702L56.238 358.038L52.626 391.806L49.308 391.512L52.92 357.702ZM60.816 362.952L72.492 363.078L72.282 365.766L60.858 365.598L60.816 362.952ZM45.486 365.976L48.594 365.472L49.77 376.098L46.62 376.644L45.486 365.976ZM78.036 374.166L60.942 375.468L60.606 372.528L81.816 370.974L80.556 377.694L77.406 377.19L78.036 374.166ZM56.952 371.226L60.018 371.646L59.052 379.542L55.902 379.122L56.952 371.226ZM72.114 385.002L74.424 385.254L74.886 380.886L70.77 381.348L70.392 392.94L67.116 392.772L67.494 381.684L64.344 382.062L64.008 379.332L67.578 378.912L67.662 376.14L70.98 376.266L70.896 378.492L78.75 377.568L77.112 389.328L71.82 387.06L72.114 385.002ZM59.514 378.198L62.664 377.82L63.462 388.446L60.312 388.824L59.514 378.198ZM60.69 423.826L62.664 423.91L62.412 422.524L65.016 422.146L65.394 423.994L67.662 424.036L68.166 421.768L70.938 422.23L70.476 424.12L72.828 424.204L73.5 420.718L59.85 421.81L59.556 419.416L77.364 417.988L75.306 426.388L60.522 426.052L60.69 423.826ZM55.314 419.122L58.38 418.576L60.018 426.724L56.994 427.312L55.314 419.122ZM45.78 421.768L48.51 419.626L54.012 425.674L51.198 427.858L45.78 421.768ZM54.558 428.656L78.96 426.976L79.212 429.58L54.81 431.218L54.558 428.656ZM52.29 439.534L48.048 440.626L46.2 438.736L50.526 432.94L45.108 433.906L44.52 430.882L51.87 429.79L54.726 432.646L50.694 437.476L53.34 436.678L56.07 439.03L48.426 451.168L45.15 449.74L52.29 439.534ZM64.764 440.71L56.658 445.372L54.768 442.978L64.344 438.232L62.58 438.148L62.664 435.88L71.442 436.3L71.862 433.906L62.454 434.704L62.034 432.436L75.642 431.218L73.752 438.82L64.974 438.274L66.486 439.744L65.184 440.458L67.914 440.584L67.62 447.262L64.47 447.136L64.764 440.71ZM57.582 432.1L60.648 431.722L61.908 438.568L58.8 439.156L57.582 432.1ZM69.972 439.618L72.828 441.382L76.272 437.77L78.624 439.534L75.222 442.852L79.128 445.246L77.196 447.766L68.124 441.676L69.972 439.618ZM52.626 445.792L81.816 450.496L81.144 453.73L51.912 448.732L52.626 445.792Z" fill="#EBE5DA"/>
</g>
<defs>
<clipPath id="clip0_2814_104">
<rect width="1200" height="558" fill="white"/>
</clipPath>
</defs>
</svg>
