<svg height="512pt" viewBox="0 0 512 512" width="512pt" xmlns="http://www.w3.org/2000/svg"><path d="m466.066406 372.734375c15.339844-32.011719 23.933594-67.867187 23.933594-105.734375 0-135.308594-109.6875-245-245-245-135.308594 0-245 109.691406-245 245 0 24.042969 3.480469 47.269531 9.933594 69.21875zm0 0" fill="#162680"/><path d="m10.355469 333.476562c-.347657.234376-.683594.472657-1.027344.707032 29.207031 102.648437 123.660156 177.816406 235.671875 177.816406 98.210938 0 182.910156-57.792969 221.980469-141.222656-121.800781-115.816406-311.839844-135.503906-456.625-37.300782zm0 0" fill="#a2ec00"/><path d="m245 512c98.199219 0 182.890625-57.78125 221.964844-141.195312-10.621094-10.09375-21.75-19.464844-33.332032-28.089844-8.109374 17.738281-12.453124 36.980468-12.761718 56.429687-.320313 20.53125-10.390625 39.679688-27.386719 51.207031-17.011719 11.539063-38.539063 13.789063-57.753906 6.496094-41.332031-15.6875-89.394531-11.675781-128.761719 15.027344-12.507812 8.484375-23.203125 18.632812-32.011719 29.945312 22.195313 6.613282 45.703125 10.179688 70.042969 10.179688zm0 0" fill="#d7f9b7"/><path d="m9.324219 334.171875c11.488281 40.386719 33.085937 76.519531 61.875 105.496094 14.75-14.878907 24.140625-33.472657 27.296875-53.292969 2.707031-16.996094 12.136718-32.316406 26.597656-42.125 17.007812-11.535156 38.535156-13.785156 57.75-6.492188 41.332031 15.6875 89.394531 11.671876 128.761719-15.027343 12.25-8.308594 22.761719-18.214844 31.464843-29.246094-115.515624-42.957031-239.023437-23.902344-333.746093 40.6875zm0 0" fill="#48d85c"/><path d="m59.570312 56.527344h-17.542968c-7.542969 0-13.714844-6.171875-13.714844-13.714844v-13.964844c0-7.542968 6.171875-13.714844 13.714844-13.714844h17.542968c7.542969 0 13.714844 6.171876 13.714844 13.714844v13.964844c0 7.542969-6.171875 13.714844-13.714844 13.714844zm0 0" fill="#fc9949"/><path d="m57.289062 0h-16.261718c-6.992188 0-12.710938 5.722656-12.710938 12.714844v5.898437c0 6.992188 5.71875 12.714844 12.710938 12.714844h16.261718c6.992188 0 12.714844-5.722656 12.714844-12.714844v-5.898437c0-6.992188-5.722656-12.714844-12.714844-12.714844zm0 0" fill="#fbb362"/><path d="m69.414062 12.699219c-5.765624 0-10.480468 4.714843-10.480468 10.480469v8.242187s-9.773438 6.359375-9.773438 21.199219h22.492188s8.242187-10.953125 8.242187-21.199219v-8.242187c0-5.765626-4.714843-10.480469-10.480469-10.480469zm0 0" fill="#face7a"/><path d="m337.058594 286.144531-3.496094 17.1875c-1.5 7.390625 3.316406 14.667969 10.710938 16.171875l13.679687 2.78125c7.394531 1.503906 14.671875-3.316406 16.175781-10.707031l3.492188-17.1875c1.503906-7.394531-3.316406-14.671875-10.707032-16.171875l-13.683593-2.785156c-7.390625-1.5-14.671875 3.316406-16.171875 10.710937zm0 0" fill="#fc9949"/><path d="m244.125 92.210938c-102.160156 0-72.628906 0-138 0-10.179688 0-18.503906 8.324218-18.503906 18.5v67.5625c1.15625-.175782 2.339844-.265626 3.546875-.265626h167.914062c1.207031 0 2.390625.089844 3.546875.265626v-67.5625c0-10.171876-8.324218-18.5-18.503906-18.5zm0 0" fill="#face7a"/><path d="m247.675781 146.308594c-10.457031 0-18.933593-8.476563-18.933593-18.929688 0-1.152344.121093-2.277344.320312-3.371094h-107.949219c-2.421875 7.671876-9.585937 13.234376-18.058593 13.234376-6.375 0-12.003907-3.160157-15.433594-7.992188v49.023438c1.15625-.175782 2.339844-.265626 3.546875-.265626h167.914062c1.207031 0 2.390625.089844 3.546875.265626v-39.316407c-3.460937 4.464844-8.867187 7.351563-14.953125 7.351563zm0 0" fill="#fbb362"/><path d="m114.753906 347.214844v127.316406c8.523438 5.359375 17.398438 10.207031 26.585938 14.503906h20.59375v-138.414062c0-6.800782 4.871094-12.816406 11.609375-13.753906 7.960937-1.113282 14.773437 5.039062 14.773437 12.78125v139.386718h47.179688v-332.625c-27.910156 0-92.628906 0-120.738282 0v190.804688zm0 0" fill="#e0f9fe"/><path d="m114.753906 156.410156v318.121094c8.523438 5.359375 17.398438 10.207031 26.585938 14.5h20.59375v-138.410156c0-6.800782 4.875-12.816406 11.609375-13.753906 1.945312-.273438 3.816406-.105469 5.542969.40625-9.949219-10.792969-5.304688-26.105469-5.304688-26.105469l-15.441406-21.144531v-120.839844c0-.972656-.25-1.929688-.722656-2.777344-2.425782-4.335938-2.347657-7.617188-1.398438-9.996094-16.292969 0-31.28125 0-41.464844 0zm0 0" fill="#b9e9fd"/><path d="m235.496094 489.804688v-.769532h-47.179688v16.359375c18.195313 4.3125 37.171875 6.605469 56.683594 6.605469 3.28125 0 6.542969-.085938 9.792969-.210938-2.410157-1.753906-5.074219-3.296874-7.957031-4.628906-6.828126-3.160156-11.339844-9.832031-11.339844-17.355468zm0 0" fill="#83d3fc"/><path d="m161.933594 497.546875v-8.515625h-20.59375c6.707031 3.136719 13.574218 5.984375 20.59375 8.515625zm0 0" fill="#83d3fc"/><path d="m173.988281 24.96875c36.875 0 66.769531 30.988281 66.769531 69.207031 0 22.777344-10.617187 42.984375-27 55.597657-12.503906 2.652343-25.875 4.089843-39.769531 4.089843-13.898437 0-27.265625-1.4375-39.769531-4.089843-16.382812-12.613282-27-32.820313-27-55.597657.003906-38.21875 29.894531-69.207031 66.769531-69.207031zm0 0" fill="#e0f9fe"/><path d="m107.222656 94.179688c0 22.777343 10.617188 42.980468 26.996094 55.59375 7.738281 1.640624 15.808594 2.816406 24.125 3.476562.011719-.011719.023438-.027344.035156-.039062 1.144532-1.125 1.601563-2.714844 1.472656-4.316407-.0625-.792969.167969-1.445312.519532-1.972656.945312-1.402344 1.042968-3.171875.578125-4.800781-.453125-1.59375-.113281-2.875.460937-3.835938 1.070313-1.792968 1.15625-3.984375.15625-5.8125-20.453125-37.394531-5.183594-62.238281 1.542969-70.496094 1.300781-1.597656 1.660156-3.773437.894531-5.683593-.753906-1.882813-.175781-3.460938.667969-4.613281 1.132813-1.550782 1.539063-3.542969.816406-5.320313-6.0625-14.957031 8.503907-21.386719 8.503907-21.386719-36.878907-.003906-66.769532 30.984375-66.769532 69.207032zm0 0" fill="#b9e9fd"/><path d="m123.441406 68.785156c1.167969-2.691406 3.320313-4.828125 6.003906-6.011718 6.945313-3.058594 22.664063-8.691407 44.285157-8.691407 21.625 0 37.34375 5.632813 44.289062 8.691407 2.683594 1.183593 4.835938 3.320312 6.003907 6.011718 3.199218 7.386719 8.308593 24.109375.925781 44.550782-10.019531 27.746093-51.214844 28.429687-51.214844 28.429687s-41.195313-.683594-51.21875-28.429687c-7.382813-20.441407-2.273437-37.164063.925781-44.550782zm0 0" fill="#1d319b"/><path d="m160.769531 140.207031c.074219-.742187.320313-1.382812.640625-1.921875 1.070313-1.792968 1.15625-3.984375.15625-5.816406-20.453125-37.390625-5.183594-62.234375 1.542969-70.496094 1.300781-1.59375 1.660156-3.769531.894531-5.679687-.253906-.632813-.347656-1.226563-.34375-1.785157-16.421875 1.355469-28.398437 5.707032-34.210937 8.269532-2.6875 1.179687-4.839844 3.316406-6.003907 6.007812-3.203124 7.386719-8.3125 24.109375-.929687 44.554688 6.359375 17.609375 25.28125 24.3125 38.253906 26.867187zm0 0" fill="#162680"/><path d="m173.65625 146.308594c-1.808594-.03125-44.457031-1.085938-55.414062-31.425782-7.804688-21.605468-2.703126-39.285156 1.03125-47.902343 1.617187-3.738281 4.578124-6.707031 8.339843-8.363281 27.433594-12.089844 64.769531-12.105469 92.238281 0 3.757813 1.65625 6.71875 4.625 8.339844 8.363281 3.734375 8.617187 8.832032 26.296875 1.03125 47.902343-10.960937 30.339844-53.605468 31.394532-55.414062 31.425782-.066406 0-.085938 0-.152344 0zm-42.378906-79.375c-1.660156.730468-2.960938 2.03125-3.664063 3.65625-3.199219 7.382812-7.5625 22.550781-.824219 41.203125 8.660157 23.976562 44.996094 25.375 46.941407 25.429687 1.882812-.058594 38.304687-1.511718 46.945312-25.429687 6.734375-18.652344 2.375-33.820313-.824219-41.203125-.707031-1.625-2.007812-2.925782-3.664062-3.65625-25.113281-11.066406-59.777344-11.074219-84.910156 0zm0 0" fill="#83d3fc"/><path d="m161.136719 144.929688c.148437-.921876.074219-1.886719-.1875-2.808594-.457031-1.59375-.113281-2.875.460937-3.835938.449219-.757812.714844-1.585937.808594-2.429687-11.980469-2.261719-29.71875-8.253907-35.429688-24.0625-6.738281-18.652344-2.375-33.820313.820313-41.203125.707031-1.625 2.007813-2.925782 3.667969-3.65625 9.929687-4.375 21.347656-7.015625 33.074218-7.933594.105469-.902344 0-1.832031-.351562-2.707031-.753906-1.886719-.175781-3.460938.664062-4.613281.421876-.574219.738282-1.210938.941407-1.871094-13.429688.84375-26.570313 3.773437-37.992188 8.808594-3.761719 1.65625-6.722656 4.625-8.339843 8.363281-3.734376 8.617187-8.835938 26.296875-1.03125 47.902343 7.34375 20.332032 28.914062 27.511719 42.894531 30.046876zm0 0" fill="#61b6ff"/><path d="m173.988281 168.207031c14.15625 0 28.109375-1.4375 41.46875-4.269531 4.417969-.9375 7.238281-5.28125 6.300781-9.699219-.933593-4.417969-5.28125-7.238281-9.695312-6.300781-12.246094 2.597656-25.054688 3.914062-38.074219 3.914062s-25.828125-1.316406-38.074219-3.914062c-4.421874-.9375-8.757812 1.882812-9.695312 6.300781s1.882812 8.761719 6.300781 9.699219c13.363281 2.832031 27.3125 4.269531 41.46875 4.269531zm0 0" fill="#83d3fc"/><path d="m132.523438 163.9375c8.328124 1.765625 16.886718 2.988281 25.582031 3.660156-.121094-.410156-.28125-.8125-.492188-1.191406-3.800781-6.800781-1.449219-11.023438.765625-13.195312.554688-.542969.941406-1.195313 1.1875-1.90625-8.046875-.609376-15.960937-1.734376-23.648437-3.367188-4.421875-.9375-8.761719 1.882812-9.699219 6.300781s1.886719 8.761719 6.304688 9.699219zm0 0" fill="#61b6ff"/><path d="m161.925781 263.015625h-10.855469c-2.246093 0-4.070312-1.820313-4.070312-4.070313 0-2.246093 1.820312-4.070312 4.070312-4.070312h10.855469c2.246094 0 4.070313 1.824219 4.070313 4.070312 0 2.25-1.824219 4.070313-4.070313 4.070313zm0 0" fill="#83d3fc"/><path d="m205.621094 245.851562h-60.992188c-3.675781 0-6.683594-3.007812-6.683594-6.683593v-43.730469c0-3.675781 3.007813-6.683594 6.683594-6.683594h60.992188c3.675781 0 6.683594 3.007813 6.683594 6.683594v43.730469c0 3.675781-3.007813 6.683593-6.683594 6.683593zm0 0" fill="#1d319b"/><path d="m157.335938 239.167969v-43.730469c0-3.675781 3.007812-6.683594 6.683593-6.683594h-19.390625c-3.675781 0-6.683594 3.007813-6.683594 6.683594v43.730469c0 3.675781 3.007813 6.683593 6.683594 6.683593h19.390625c-3.675781 0-6.683593-3.007812-6.683593-6.683593zm0 0" fill="#162680"/><path d="m205.621094 249.734375h-60.992188c-5.828125 0-10.570312-4.738281-10.570312-10.570313v-43.726562c0-5.828125 4.742187-10.570312 10.570312-10.570312h60.992188c5.828125 0 10.570312 4.742187 10.570312 10.570312v43.726562c0 5.832032-4.742187 10.570313-10.570312 10.570313zm-60.992188-57.09375c-1.542968 0-2.800781 1.253906-2.800781 2.796875v43.730469c0 1.542969 1.257813 2.796875 2.800781 2.796875h60.992188c1.542968 0 2.800781-1.253906 2.800781-2.796875v-43.730469c0-1.542969-1.257813-2.796875-2.800781-2.796875zm0 0" fill="#61b6ff"/><path d="m158.265625 241.964844h-13.636719c-1.542968 0-2.800781-1.253906-2.800781-2.796875v-43.730469c0-1.542969 1.257813-2.796875 2.800781-2.796875h13.613282c-4.527344-4.578125-1.558594-7.046875-.371094-7.773437h-13.246094c-5.828125 0-10.570312 4.742187-10.570312 10.570312v43.730469c0 5.828125 4.742187 10.570312 10.570312 10.570312h13.644531c-5.640625-4.597656-.449219-7.535156-.003906-7.773437zm0 0" fill="#5294e5"/><path d="m207.664062 263.015625c-2.144531 0-3.886718-1.738281-3.886718-3.886719v-9.578125c0-2.144531 1.738281-3.886719 3.886718-3.886719 2.144532 0 3.886719 1.742188 3.886719 3.886719v9.578125c0 2.148438-1.738281 3.886719-3.886719 3.886719zm0 0" fill="#b9e9fd"/><path d="m193.042969 263.015625c-2.144531 0-3.886719-1.738281-3.886719-3.886719v-9.578125c0-2.144531 1.738281-3.886719 3.886719-3.886719 2.148437 0 3.886719 1.742188 3.886719 3.886719v9.578125c0 2.148438-1.742188 3.886719-3.886719 3.886719zm0 0" fill="#b9e9fd"/><path d="m156.5 213.972656c-2.804688 0-5.183594-2.28125-5.183594-5.183594 0-3.328124 3.066406-5.707031 6.191406-5.078124 2.457032.5 4.171876 2.625 4.171876 5.078124 0 2.894532-2.367188 5.183594-5.179688 5.183594zm0 0" fill="#face7a"/><path d="m156.5 231c-2.792969 0-5.183594-2.269531-5.183594-5.1875 0-3.304688 3.046875-5.710938 6.191406-5.078125 2.449219.496094 4.171876 2.625 4.171876 5.078125 0 2.867188-2.34375 5.1875-5.179688 5.1875zm0 0" fill="#fc7ea8"/><path d="m500.765625 170.03125h-30.445313v16.457031c0 10.148438-8.226562 18.375-18.378906 18.375v.027344c-10.335937 0-18.679687 8.535156-18.367187 18.941406.300781 10.058594 9.078125 17.8125 19.136719 17.8125h48.054687c6.203125 0 11.234375-5.03125 11.234375-11.234375v-49.144531c0-6.207031-5.03125-11.234375-11.234375-11.234375zm0 0" fill="#f948b4"/><path d="m478.917969 230.410156v-49.148437c0-6.203125 5.03125-11.234375 11.234375-11.234375h-19.832032v16.460937c0 10.148438-8.226562 18.375-18.378906 18.375v.027344c-10.335937 0-18.679687 8.535156-18.367187 18.941406.300781 10.058594 9.074219 17.8125 19.136719 17.8125h37.441406c-6.203125 0-11.234375-5.03125-11.234375-11.234375zm0 0" fill="#f6159c"/><path d="m451.941406 168.109375h-18.375v55.15625c0-10.148437 8.226563-18.378906 18.375-18.378906v-.023438c10.152344 0 18.378906-8.226562 18.378906-18.378906 0-10.148437-8.226562-18.375-18.378906-18.375zm0 0" fill="#f948b4"/><path d="m448.207031 96.496094h-64.664062c.136719 1.398437.082031 2.839844-.199219 4.292968l-5.914062 67.320313h74.511718c10.152344 0 18.378906 8.226563 18.378906 18.378906 0-6.613281 0-64.886719 0-67.878906 0-12.214844-9.898437-22.113281-22.113281-22.113281zm0 0" fill="#fc7acd"/><path d="m420.160156 145.945312 2.90625-35.871093c1.183594-6.105469 5.207032-11.042969 10.53125-13.582031h-50.054687c.136719 1.402343.085937 2.84375-.199219 4.296874l-5.914062 67.320313h56.90625c-9.617188-2.34375-16.160157-11.9375-14.175782-22.164063zm0 0" fill="#f948b4"/><path d="m376.992188 164.636719c-5.183594-.394531-9.710938 3.5-10.101563 8.6875l-23.957031 318.296875c6.703125-2.921875 13.25-6.132813 19.621094-9.625l23.125-307.257813c.390624-5.1875-3.496094-9.710937-8.6875-10.101562zm0 0" fill="#e0f9fe"/><path d="m371.292969 248.070312c-4.179688-.34375-7.679688-2.785156-9.558594-6.203124l-18.796875 249.753906c6.699219-2.925782 13.246094-6.132813 19.617188-9.625l17.84375-237.058594c-2.386719 2.1875-5.628907 3.417969-9.105469 3.132812zm0 0" fill="#b9e9fd"/><path d="m376.300781 185.808594c-.296875 0-.597656-.011719-.898437-.035156-6.484375-.488282-11.347656-6.140626-10.859375-12.625l6.222656-82.679688c.488281-6.488281 6.160156-11.339844 12.628906-10.859375 6.484375.488281 11.34375 6.140625 10.859375 12.625l-6.226562 82.679687c-.464844 6.1875-5.625 10.894532-11.726563 10.894532zm0 0" fill="#b9e9fd"/><path d="m379.71875 146.933594c-.324219 0-.648438-.015625-.972656-.039063-5.726563-.429687-10.28125-4.578125-11.480469-9.902343l-2.722656 36.15625c-.484375 6.484374 4.375 12.136718 10.859375 12.625.300781.023437.601562.035156.898437.035156 6.101563 0 11.265625-4.707032 11.730469-10.894532l2.566406-34.105468c-2.257812 3.699218-6.328125 6.125-10.878906 6.125zm0 0" fill="#83d3fc"/><path d="m235.496094 156.410156s38.785156 3.648438 46.949218 80.273438l3.175782 18.765625c.003906.023437.007812.046875.011718.066406.535157 3.019531 2.871094 5.40625 5.820313 6.246094l40.453125 11.898437-5.183594 37.921875-46.773437-11.324219c-14.300781-3.40625-26.152344-13.726562-30.875-27.648437-.179688-.53125-.351563-1.0625-.511719-1.597656l-13.070312-43.3125v-71.289063zm0 0" fill="#e0f9fe"/><path d="m281.761719 230.996094c-9.429688-71.105469-46.265625-74.582032-46.265625-74.582032v71.285157l10.65625 35.320312c2.449218-45.703125 35.515625-32.0625 35.609375-32.023437zm0 0" fill="#b9e9fd"/><path d="m70.023438 128.058594.238281-73.976563h-38.664063v93.632813c0 10.644531 4.980469 20.671875 13.460938 27.105468l69.699218 52.878907v-71.285157l-38.6875-18.6875c-3.707031-1.792968-6.058593-5.550781-6.046874-9.667968zm0 0" fill="#e0f9fe"/><path d="m69.769531 193.570312 44.984375 34.128907v-71.285157l-38.683594-18.6875s20.355469 35.964844-6.300781 55.84375zm0 0" fill="#b9e9fd"/><path d="m70.261719 61.148438h-38.664063c-3.902344 0-7.066406-3.164063-7.066406-7.066407 0-3.902343 3.164062-7.0625 7.066406-7.0625h38.664063c3.902343 0 7.0625 3.160157 7.0625 7.0625 0 3.902344-3.160157 7.066407-7.0625 7.066407zm0 0" fill="#83d3fc"/><path d="m43.605469 54.082031c0-3.902343 3.164062-7.066406 7.066406-7.066406h-19.074219c-3.902344 0-7.066406 3.164063-7.066406 7.066406 0 3.902344 3.164062 7.066407 7.066406 7.066407h19.074219c-3.902344 0-7.066406-3.164063-7.066406-7.066407zm0 0" fill="#61b6ff"/><path d="m235.496094 234.765625c-3.902344 0-7.066406-3.164063-7.066406-7.066406v-71.289063c0-3.898437 3.164062-7.0625 7.066406-7.0625s7.066406 3.160156 7.066406 7.0625v71.289063c-.003906 3.902343-3.164062 7.066406-7.066406 7.066406zm0 0" fill="#83d3fc"/><path d="m114.753906 234.765625c-3.902344 0-7.0625-3.164063-7.0625-7.066406v-71.285157c0-3.902343 3.160156-7.066406 7.0625-7.066406 3.90625 0 7.066406 3.164063 7.066406 7.066406v71.285157c0 3.902343-3.160156 7.066406-7.066406 7.066406zm0 0" fill="#83d3fc"/><path d="m235.496094 192.054688c-3.902344 0-7.066406-3.160157-7.066406-7.0625v42.707031c0 3.902343 3.164062 7.066406 7.066406 7.066406s7.066406-3.164063 7.066406-7.066406v-42.707031c-.003906 3.902343-3.164062 7.0625-7.066406 7.0625zm0 0" fill="#61b6ff"/><path d="m114.753906 192.054688c-3.902344 0-7.0625-3.160157-7.0625-7.0625v42.707031c0 3.902343 3.160156 7.066406 7.0625 7.066406 3.90625 0 7.066406-3.164063 7.066406-7.066406v-42.707031c0 3.902343-3.160156 7.0625-7.066406 7.0625zm0 0" fill="#61b6ff"/><path d="m234.554688 280.796875h-118.859376c-3.496093 0-6.359374 2.859375-6.359374 6.355469v9.667968c0 3.496094 2.863281 6.355469 6.359374 6.355469h118.859376c3.496093 0 6.359374-2.859375 6.359374-6.355469v-9.667968c0-3.496094-2.863281-6.355469-6.359374-6.355469zm0 0" fill="#83d3fc"/><path d="m203.777344 296.820312v-9.667968c0-3.496094 2.863281-6.355469 6.359375-6.355469h-94.441407c-3.496093 0-6.359374 2.859375-6.359374 6.355469v9.667968c0 3.496094 2.863281 6.355469 6.359374 6.355469h94.441407c-3.496094 0-6.359375-2.859375-6.359375-6.355469zm0 0" fill="#61b6ff"/><path d="m391.996094 299.640625-3.238282 15.933594c-1.394531 6.851562-8.140624 11.320312-14.992187 9.925781l-14.53125-2.953125c-6.851563-1.390625-11.320313-8.136719-9.925781-14.992187l3.238281-15.933594c1.390625-6.851563 8.136719-11.320313 14.992187-9.925782l14.53125 2.953126c6.851563 1.394531 11.320313 8.136718 9.925782 14.992187zm0 0" fill="#fbb362"/><path d="m381.96875 285.226562c-1.148438 5.652344-6.710938 9.332032-12.359375 8.183594l-8.078125-1.640625s-8.179688 8.3125-22.722656 5.355469l4.484375-22.042969s12.375-5.894531 22.414062-3.855469l8.078125 1.644532c5.648438 1.148437 9.332032 6.707031 8.183594 12.355468zm0 0" fill="#face7a"/><path d="m329.277344 318.769531c-1.125.269531-2.335938.261719-3.53125-.070312-3.761719-1.046875-5.960938-4.941407-4.910156-8.699219l10.59375-38.035156c1.046874-3.757813 4.945312-5.957032 8.703124-4.910156 3.757813 1.046874 5.957032 4.945312 4.910157 8.703124l-10.59375 38.03125c-.714844 2.5625-2.753907 4.402344-5.171875 4.980469zm0 0" fill="#83d3fc"/><path d="m335.824219 296.550781c-1.230469.292969-2.550781.289063-3.851563-.074219-3.082031-.859374-5.195312-3.46875-5.574218-6.453124l-5.566407 19.972656c-1.046875 3.761718 1.152344 7.65625 4.910157 8.703125 1.195312.335937 2.40625.339843 3.535156.070312 2.414062-.578125 4.453125-2.417969 5.167968-4.980469l5.523438-19.828124c-1.066406 1.289062-2.527344 2.203124-4.144531 2.589843zm0 0" fill="#61b6ff"/><path d="m331.90625 137.585938c-7.355469 0-13.574219-5.980469-13.574219-13.574219 0-6.304688 4.351563-11.964844 10.914063-13.316407 8.25-1.652343 16.234375 4.648438 16.234375 13.316407 0 7.460937-6.078125 13.574219-13.574219 13.574219zm0 0" fill="#4374d3"/><path d="m331.90625 49.40625c-7.355469 0-13.574219-5.980469-13.574219-13.574219 0-6.304687 4.351563-11.964843 10.914063-13.316406 8.25-1.652344 16.234375 4.648437 16.234375 13.316406 0 7.460938-6.078125 13.574219-13.574219 13.574219zm0 0" fill="#fadda0"/><path d="m283.699219 76.0625c-5.691407 0-10.179688-4.644531-10.179688-10.183594 0-4.671875 3.21875-8.941406 8.199219-9.976562 6.167969-1.242188 12.164062 3.480468 12.164062 9.976562 0 5.699219-4.640624 10.183594-10.183593 10.183594zm0 0" fill="#83d3fc"/><path d="m208.96875 83.234375c0 5.8125-4.710938 10.523437-10.523438 10.523437s-10.523437-4.710937-10.523437-10.523437 4.710937-10.527344 10.523437-10.527344 10.523438 4.714844 10.523438 10.527344zm0 0" fill="#3957c9"/><path d="m185.789062 98.585938c0 2.945312-2.386718 5.332031-5.332031 5.332031-2.945312 0-5.332031-2.386719-5.332031-5.332031 0-2.941407 2.386719-5.332032 5.332031-5.332032 2.945313 0 5.332031 2.390625 5.332031 5.332032zm0 0" fill="#3957c9"/><path d="m106.53125 76.296875c-1.523438 5.808594-2.339844 11.921875-2.339844 18.234375 0 5.300781.578125 10.460938 1.664063 15.417969.691406 3.148437 4.539062 4.390625 6.914062 2.210937 4.710938-4.320312 8.816407-11.359375 8.816407-19.3125 0-7.449218-3.753907-14.09375-8.0625-18.460937-2.257813-2.289063-6.175782-1.199219-6.992188 1.910156zm0 0" fill="#61b6ff"/><path d="m112.390625 93.210938c-3.242187 0-6.132813-1.507813-8.007813-3.859376-.125 1.710938-.191406 3.4375-.191406 5.175782 0 5.300781.578125 10.460937 1.667969 15.421875.6875 3.144531 4.535156 4.390625 6.910156 2.210937 4.714844-4.320312 8.816407-11.363281 8.816407-19.316406 0-1.546875-.164063-3.0625-.460938-4.53125-1.800781 2.9375-5.039062 4.898438-8.734375 4.898438zm0 0" fill="#5294e5"/><path d="m241.445312 76.296875c1.527344 5.808594 2.339844 11.921875 2.339844 18.234375 0 5.300781-.574218 10.460938-1.664062 15.417969-.691406 3.148437-4.539063 4.390625-6.914063 2.210937-4.710937-4.320312-8.816406-11.359375-8.816406-19.3125 0-7.449218 3.753906-14.09375 8.066406-18.460937 2.257813-2.289063 6.175781-1.199219 6.988281 1.910156zm0 0" fill="#61b6ff"/><path d="m235.589844 93.210938c3.242187 0 6.128906-1.507813 8.007812-3.859376.121094 1.710938.1875 3.4375.1875 5.175782 0 5.300781-.574218 10.460937-1.664062 15.421875-.691406 3.144531-4.539063 4.390625-6.914063 2.210937-4.710937-4.320312-8.816406-11.363281-8.816406-19.316406 0-1.546875.164063-3.0625.460937-4.53125 1.800782 2.9375 5.039063 4.898438 8.738282 4.898438zm0 0" fill="#5294e5"/><path d="m194.792969 303.363281v-22.359375c0-4.292968-3.515625-7.808594-7.808594-7.808594h-23.714844c-4.296875 0-7.808593 3.515626-7.808593 7.808594v22.359375c0 4.292969 3.511718 7.804688 7.808593 7.804688h23.714844c4.292969 0 7.808594-3.511719 7.808594-7.804688zm0 0" fill="#61b6ff"/><path d="m173.777344 273.195312h-10.511719c-4.292969 0-7.804687 3.515626-7.804687 7.808594v22.359375c0 4.292969 3.511718 7.804688 7.804687 7.804688h10.511719c-5.007813-3.875 0-7.597657 0-7.597657v-22.773437c-4.492188-4.492187 0-7.601563 0-7.601563zm0 0" fill="#5294e5"/><path d="m184.214844 280.796875h-18.179688c-1.488281 0-2.707031 1.214844-2.707031 2.707031v17.359375c0 1.492188 1.21875 2.710938 2.707031 2.710938h18.179688c1.488281 0 2.703125-1.21875 2.703125-2.710938v-17.359375c.003906-1.492187-1.214844-2.707031-2.703125-2.707031zm0 0" fill="#5294e5"/><path d="m163.328125 283.503906v17.359375c0 1.492188 1.21875 2.710938 2.707031 2.710938h7.742188v-22.777344h-7.742188c-1.488281 0-2.707031 1.214844-2.707031 2.707031zm0 0" fill="#4374d3"/><path d="m200.277344 217.304688c0 7.5-6.082032 13.582031-13.585938 13.582031-7.5 0-13.582031-6.082031-13.582031-13.582031 0-7.503907 6.082031-13.585938 13.582031-13.585938 7.503906 0 13.585938 6.082031 13.585938 13.585938zm0 0" fill="#4374d3"/><path d="m191.316406 221.644531c-4.953125 0-8.964844-4.015625-8.964844-8.964843 0-4.242188 2.953126-7.785157 6.910157-8.714844-8.429688-1.617188-16.152344 4.855468-16.152344 13.339844 0 7.503906 6.082031 13.582031 13.582031 13.582031 8.484375 0 14.957032-7.714844 13.339844-16.152344-.929688 3.957031-4.476562 6.910156-8.714844 6.910156zm0 0" fill="#3957c9"/></svg>