<svg height="511pt" viewBox="-10 0 511 511.99883" width="511pt" xmlns="http://www.w3.org/2000/svg"><path d="m483.085938 184.996094-8.601563-27.257813c-15.171875-39.785156-40.398437-74.601562-72.59375-101.328125l-9.792969-7.730468c-.003906 0-.003906 0-.003906 0l-30.34375-19.390626c-33.457031-18.066406-71.59375-28.566406-112.121094-29.2382808l-98.402344 18.7578128c-88.511718 36.933594-150.726562 124.292968-150.726562 226.191406 0 135.3125 109.691406 245 245 245s245-109.691406 245-245c0-20.703125-2.578125-40.800781-7.414062-60.003906zm0 0" fill="#f6159c"/><path d="m392.09375 48.679688c-9.59375-7.175782-19.734375-13.660157-30.34375-19.390626-17.117188 16.226563-37.121094 33-60.511719 49.964844-137.515625 99.71875-80.429687 117.761719-172.476562 180.457032-12.878907 8.777343-23.585938 17.375-32.558594 25.488281.945313 1.238281 1.65625 2.449219 1.570313 3.699219-.101563 1.507812-1.335938 2.867187-2.636719 4.3125-.328125.363281-.65625.726562-.964844 1.089843-4.160156 4.886719-5.910156 11.566407-4.6875 17.867188l.121094.601562c.203125.964844.394531 1.878907.203125 2.578125-.207032.757813-.875 1.441406-1.648438 2.230469-.402344.414063-.820312.835937-1.207031 1.316406-.984375 1.203125-1.6875 2.621094-2.148437 4.332031l-1.046876 3.847657 3.523438-1.871094c2.769531-1.472656 5.617188-2.421875 8.46875-2.824219 3.914062-.550781 7.847656-.144531 12.011719.285156 2.113281.21875 4.300781.445313 6.480469.535157 5 .199219 10.378906-.292969 16.929687-1.554688 9.675781-1.859375 19.261719 3.621094 22.78125 13.039063 1.113281 2.972656 3.25 5.550781 5.316406 8.046875 2.816407 3.398437 5.472657 6.605469 5.21875 10.316406-.222656 3.273437-2.652343 5.964844-5.226562 8.8125-.59375.660156-1.1875 1.316406-1.75 1.980469-7.375 8.664062-10.480469 20.511718-8.308594 31.683594.070313.363281.144531.730468.222656 1.09375.40625 1.949218.789063 3.792968.347657 5.421874-.476563 1.761719-1.898438 3.210938-3.402344 4.746094-.71875.734375-1.460938 1.492188-2.136719 2.316406-4.585937 5.632813-4.820313 12.871094-5.046875 19.871094-.160156 5-.328125 10.164063-2.117188 14.558594-2.003906 4.925781-5.875 8.699219-9.972656 12.691406-3.53125 3.4375-7.183594 6.996094-9.644531 11.425782-1.121094 2.023437-1.980469 4.195312-2.8125 6.292968-1.519531 3.839844-2.953125 7.46875-5.800781 9.902344-1.921875 1.644531-4.351563 2.613281-6.929688 3.636719-2.316406.921875-4.714844 1.875-6.847656 3.390625-2.160156 1.535156-3.855469 3.503906-5.496094 5.410156-.597656.695312-1.191406 1.390625-1.8125 2.058594-.429687.46875-.890625.90625-1.347656 1.351562 30.453125-.511718 71.636719-14.234375 119.625-63.464844 1.675781-1.71875.230469-4.585937-2.148438-4.257812-19.222656 2.636719-63.683593 3.515625 15.746094-63.75 105.035156-88.953125-24.035156-114.695312 117.566406-257.097656 21.867188-21.988282 39.949219-42.863282 54.898438-62.441406zm0 0" fill="#face7a"/><path d="m146.375 406.78125c-.71875.734375-1.464844 1.492188-2.136719 2.320312-4.585937 5.628907-4.820312 12.867188-5.046875 19.871094-.164062 4.996094-.328125 10.160156-2.117187 14.554688-2.007813 4.925781-5.878907 8.699218-9.976563 12.691406-3.53125 3.441406-7.183594 6.996094-9.640625 11.429688-1.125 2.019531-1.984375 4.191406-2.8125 6.289062-1.519531 3.839844-2.957031 7.46875-5.800781 9.902344-1.921875 1.644531-4.355469 2.613281-6.929688 3.636718-2.320312.921876-4.714843 1.875-6.847656 3.390626-2.164062 1.535156-3.855468 3.503906-5.496094 5.410156-.597656.695312-1.195312 1.390625-1.8125 2.0625-.433593.464844-.894531.90625-1.351562 1.347656 30.457031-.507812 71.640625-14.234375 119.625-63.464844 1.675781-1.71875.234375-4.585937-2.144531-4.257812-19.226563 2.640625-63.6875 3.519531 15.742187-63.75-37.703125 4.945312-39.421875-17-36.445312-32.039063 1.320312-6.671875-2.996094-13.066406-9.664063-14.40625-19.234375-3.867187-24.945312-15.910156-26.445312-24.902343-.910157-5.476563-5.5625-9.605469-11.101563-9.945313-23.207031-1.433594-10.46875-24.695313-10.246094-25.101563-11.527343 8.042969-21.269531 15.917969-29.523437 23.378907.949219 1.238281 1.65625 2.449219 1.570313 3.699219-.101563 1.507812-1.332032 2.871093-2.632813 4.3125-.332031.363281-.660156.726562-.96875 1.09375-4.160156 4.886718-5.910156 11.566406-4.683594 17.863281l.121094.605469c.199219.964843.390625 1.875.199219 2.578124-.203125.757813-.871094 1.4375-1.648438 2.226563-.402344.414063-.820312.839844-1.207031 1.316406-.980469 1.207031-1.683594 2.621094-2.148437 4.332031l-1.042969 3.847657 3.523437-1.871094c2.765625-1.472656 5.617188-2.421875 8.46875-2.820313 3.910156-.550781 7.84375-.148437 12.007813.28125 2.117187.21875 4.304687.445313 6.484375.535157 4.996094.199219 10.375-.292969 16.929687-1.554688 9.671875-1.859375 19.257813 3.621094 22.78125 13.039063 1.109375 2.972656 3.25 5.550781 5.316407 8.046875 2.8125 3.398437 5.472656 6.605469 5.21875 10.316406-.222657 3.273437-2.65625 5.964844-5.226563 8.8125-.597656.660156-1.191406 1.316406-1.753906 1.976563-7.375 8.667968-10.480469 20.515624-8.308594 31.6875.070313.363281.144531.726562.222656 1.09375.40625 1.949218.789063 3.789062.347657 5.421874-.472657 1.757813-1.894532 3.207032-3.398438 4.742188zm0 0" fill="#fbb362"/><path d="m483.085938 184.996094c-2.34375-9.3125-5.226563-18.40625-8.601563-27.257813-10.015625 9.160157-21.460937 18.5625-34.550781 28.054688-88.769532 64.371093-51.921875 76.019531-111.339844 116.492187-.039062.027344-.078125.054688-.121094.082032-6.359375 4.339843-11.195312 10.597656-13.8125 17.839843-5.59375 15.46875-15.117187 25.5625-15.117187 25.5625l2.273437-1.210937c1.789063-.949219 3.628906-1.5625 5.46875-1.820313 2.523438-.355469 5.0625-.09375 7.753906.183594 1.363282.140625 2.777344.289063 4.183594.34375 3.226563.128906 6.699219-.1875 10.929688-1.003906 6.242187-1.199219 12.433594 2.339843 14.703125 8.417969.71875 1.917968 2.097656 3.585937 3.433593 5.195312 1.816407 2.191406 3.535157 4.265625 3.371094 6.660156-.144531 2.113282-1.714844 3.851563-3.375 5.6875-.386718.425782-.769531.847656-1.132812 1.277344-4.757813 5.59375-6.765625 13.242188-5.363282 20.453125.046876.234375.09375.46875.144532.707031.261718 1.257813.507812 2.445313.226562 3.496094-.308594 1.140625-1.226562 2.074219-2.199218 3.066406-.460938.472656-.941407.960938-1.378907 1.496094-2.960937 3.636719-3.109375 8.308594-3.257812 12.828125-.101563 3.222656-.210938 6.558594-1.367188 9.394531-1.292969 3.179688-3.792969 5.617188-6.4375 8.191406-2.28125 2.222657-4.636719 4.519532-6.226562 7.378907-.722657 1.304687-1.277344 2.707031-1.816407 4.0625-.980468 2.480469-1.90625 4.820312-3.742187 6.390625-1.242187 1.0625-2.8125 1.6875-4.472656 2.347656-1.496094.597656-3.042969 1.210938-4.421875 2.191406-1.394532.988282-2.488282 2.261719-3.546875 3.492188-.386719.445312-.773438.894531-1.171875 1.328125-.277344.300781-.574219.585937-.871094.871093 19.660156-.328124 46.246094-9.1875 77.222656-40.964843 1.078125-1.109375.148438-2.964844-1.382812-2.753907-12.40625 1.707032-41.121094 2.28125 10.160156-41.152343 67.804688-57.421875-15.515625-74.039063 75.894531-165.960938 7.28125-7.320312 13.902344-14.445312 19.941407-21.367187zm0 0" fill="#face7a"/><path d="m151.226562 18.808594c-12.957031 32.414062-27.300781 60.335937-27.300781 60.335937h3.046875c4.421875-2.570312 9.175782-4.714843 12.582032-8.496093 3-3.332032 4.664062-7.628907 7.101562-11.394532 3.390625-5.242187 8.652344-9.59375 14.835938-10.464844 4.015624-.5625 8.082031.355469 12.136718.519532 1.339844.054687 2.671875.003906 4.007813-.089844 16.5625-15.535156 14.34375-26.09375 35.117187-47.035156-21.519531 2.875-42.152344 8.539062-61.527344 16.625zm0 0" fill="#fbb362"/><path d="m170.207031 11.804688c-6.449219 2.078124-12.78125 4.414062-18.980469 7.003906-12.957031 32.414062-27.300781 60.335937-27.300781 60.335937h3.046875c4.421875-2.570312 9.175782-4.714843 12.582032-8.496093 3-3.332032 4.664062-7.628907 7.101562-11.394532 3.390625-5.242187 8.652344-9.59375 14.835938-10.464844 4.015624-.5625 8.082031.355469 12.136718.519532 1.339844.054687 2.671875.003906 4.007813-.089844 10.691406-10.027344 13.5625-17.984375 19.835937-27.996094-17.25 3.839844-24.386718-3.6875-27.265625-9.417968zm0 0" fill="#fc9949"/><path d="m131.058594 321.046875c6.28125-1.210937 12.519531.582031 17.183594 4.496094 2.742187 2.300781 4.941406 5.335937 6.285156 8.925781 1.074218 2.875 3.179687 5.414062 5.214844 7.871094 2.210937 2.671875 4.324218 5.230468 5.082031 8.054687 13.730469-11.253906 27.617187-30.851562 35.070312-58.488281 5.394531-19.988281 15.101563-38.3125 24.15625-52.433594.535157-.835937.367188-1.929687-.390625-2.566406-.757812-.636719-1.863281-.609375-2.59375.0625-12.335937 11.371094-28.695312 24.113281-47.441406 32.890625-30.519531 14.296875-48.511719 35.429687-55.355469 52.738281 3.835938-.125 7.992188-.628906 12.789063-1.550781zm0 0" fill="#fbb362"/><path d="m131.058594 321.046875c6.28125-1.210937 12.519531.582031 17.183594 4.496094 2.742187 2.300781 4.941406 5.335937 6.285156 8.925781 1.074218 2.875 3.179687 5.414062 5.214844 7.871094 2.210937 2.671875 4.324218 5.230468 5.082031 8.054687 6.183593-5.070312 12.390625-11.84375 18.039062-20.269531-1.300781-4.136719-4.769531-7.4375-9.347656-8.359375-19.230469-3.863281-24.945313-15.90625-26.441406-24.902344-.484375-2.902343-2.03125-5.421875-4.195313-7.207031-12.402344 10.824219-20.511718 22.570312-24.613281 32.941406 3.839844-.125 7.996094-.628906 12.792969-1.550781zm0 0" fill="#fc9949"/><path d="m69.390625 253.53125c-2.226563-4.214844-.613281-9.433594 3.601563-11.664062.285156-.152344 28.84375-15.46875 40.433593-36.367188 2.3125-4.171875 7.566407-5.679688 11.742188-3.367188 4.171875 2.3125 5.679687 7.570313 3.367187 11.742188-14.109375 25.445312-46.117187 42.546875-47.472656 43.265625-4.210938 2.21875-9.4375.625-11.671875-3.609375zm0 0" fill="#face7a"/><path d="m245.5 0c-12.019531 0-23.828125.882812-35.382812 2.554688-19.707032 20.476562-17.363282 30.914062-34.984376 46.753906 2.476563-.085938 5.152344-.410156 8.234376-1.003906 6.226562-1.203126 12.398437 2.328124 14.664062 8.390624.71875 1.925782 2.101562 3.59375 3.4375 5.207032 4.589844 5.542968 4.441406 7.378906-.003906 12.300781-6.128906 6.792969-7.910156 14.519531-6.503906 21.761719 1.164062 5.625.125 4.652344-3.199219 8.734375-4.828125 5.929687-2.195313 14.472656-4.238281 21.136719 3.304687-4.066407 8.523437-9.257813 16.332031-15.871094 46.320312-39.230469-5.550781-51.945313 45.773437-109.9140628-1.375-.0195312-2.75-.0507812-4.128906-.0507812zm0 0" fill="#face7a"/><path d="m199.765625 20.664062c-1.546875.414063-3.007813.726563-4.410156.976563-5.875 9.6875-9.003907 17.585937-20.222657 27.667969 2.476563-.085938 5.152344-.410156 8.234376-1.003906 6.226562-1.203126 12.398437 2.328124 14.664062 8.390624.71875 1.925782 2.101562 3.59375 3.4375 5.207032 4.589844 5.542968 4.441406 7.378906-.003906 12.300781-6.128906 6.792969-7.910156 14.519531-6.503906 21.761719 1.164062 5.625.125 4.652344-3.199219 8.734375-4.828125 5.929687-2.195313 14.472656-4.238281 21.136719 3.304687-4.066407 8.523437-9.257813 16.332031-15.871094 26.851562-22.742188 20.707031-36.574219 20.796875-55.476563-23.28125-9.003906 3.78125-41.492187-24.886719-33.824219zm0 0" fill="#fbb362"/><path d="m175.476562 143.058594c3.289063-5.921875 10.167969-9.414063 12.722657-15.691406 2.855469-7.011719-.324219-16.066407 4.457031-21.9375 1.332031-1.632813 3.238281-2.941407 3.789062-4.976563.414063-1.53125-.050781-3.148437-.351562-4.707031-1.328125-6.832032.609375-14.21875 5.117188-19.519532 1.980468-2.324218 4.558593-4.566406 4.769531-7.613281.324219-4.761719-5.257813-8.003906-6.871094-12.320312-2.328125-6.230469-8.902344-10.476563-15.960937-9.121094-3.527344.679687-7.089844 1.128906-10.671876.984375-4.054687-.164062-8.117187-1.082031-12.136718-.515625-6.179688.867187-11.445313 5.21875-14.835938 10.460937-2.433594 3.765626-4.097656 8.0625-7.101562 11.394532-3.898438 4.328125-9.566406 6.515625-14.476563 9.648437-9.453125 6.035157-16.105469 15.691407-20.691406 25.925781-2.113281 4.714844-3.863281 9.6875-4.175781 14.84375-.285156 4.738282.644531 9.457032 1.671875 14.089844 1.101562 4.945313 2.351562 9.9375 4.824219 14.359375 1.808593 3.242188 4.222656 6.097657 6.730468 8.832031 4.84375 5.285157 10.3125 10.351563 17.097656 12.667969 9.214844 3.148438 20.164063.375 26.769532-6.777343 1.476562-1.597657 2.769531-3.40625 4.542968-4.667969 2.753907-1.953125 6.410157-2.40625 8.976563-4.597657 3.121094-2.675781 3.808594-7.164062 5.804687-10.761718zm0 0" fill="#fc9949"/><path d="m118.964844 468.484375c5.09375-9.171875 15.75-14.585937 19.707031-24.304687 4.425781-10.867188-.503906-24.890626 6.90625-33.988282 2.058594-2.53125 5.015625-4.554687 5.867187-7.703125.640626-2.378906-.074218-4.878906-.546874-7.296875-2.054688-10.578125.949218-22.027344 7.929687-30.238281 3.066406-3.601563 7.066406-7.070313 7.386719-11.789063.503906-7.382812-8.140625-12.402343-10.640625-19.089843-3.609375-9.648438-13.792969-16.230469-24.726563-14.128907-5.46875 1.054688-10.980468 1.75-16.535156 1.527344-6.28125-.253906-12.574219-1.679687-18.800781-.804687-9.574219 1.347656-17.726563 8.089843-22.976563 16.207031-3.773437 5.835938-6.351562 12.492188-11.003906 17.65625-6.039062 6.703125-14.820312 10.085938-22.425781 14.941406-14.644531 9.351563-24.949219 24.308594-32.054688 40.160156-3.277343 7.308594-5.984375 15.007813-6.46875 23-.445312 7.335938.996094 14.648438 2.59375 21.820313 1.703125 7.664063 3.640625 15.394531 7.464844 22.25 2.800781 5.019531 6.546875 9.441406 10.429687 13.679687 7.503907 8.1875 15.972657 16.03125 26.484376 19.625 14.273437 4.875 31.238281.582032 41.46875-10.5 2.289062-2.476562 4.289062-5.28125 7.039062-7.230468 4.261719-3.027344 9.933594-3.726563 13.902344-7.125 4.839844-4.140625 5.90625-11.097656 9-16.667969zm0 0" fill="#fd7e31"/><path d="m129.925781 366.703125c-.492187-4.742187-4.726562-8.195313-9.480469-7.699219-.675781.070313-6.796874.78125-13.023437 4.21875-9.160156 5.054688-14.203125 13.523438-14.203125 23.851563 0 2.683593.089844 5.066406.238281 7.171875.378907 5.308594 5.476563 8.980468 10.648438 7.722656 4.074219-.988281 6.878906-4.757812 6.582031-8.941406-.117188-1.683594-.195312-3.660156-.195312-5.953125 0-9.019531 9.828124-10.660157 11.730468-10.890625 4.746094-.488282 8.195313-4.734375 7.703125-9.480469zm0 0" fill="#fc9949"/><path d="m56.984375 469.582031 18.71875-67.742187c-13.476563-25.488282-8.957031-49.679688-3.042969-65.152344-.042968.0625-.085937.125-.128906.1875-3.773438 5.832031-6.351562 12.492188-11 17.652344-6.039062 6.703125-14.824219 10.089844-22.425781 14.945312-14.644531 9.351563-24.949219 24.304688-32.054688 40.160156-3.277343 7.308594-5.984375 15.003907-6.46875 23-.445312 7.335938.992188 14.644532 2.589844 21.820313 1.707031 7.664063 3.644531 15.390625 7.46875 22.246094 2.800781 5.019531 6.546875 9.445312 10.429687 13.683593 7.503907 8.1875 15.972657 16.03125 26.484376 19.625 4.597656 1.570313 9.472656 2.175782 14.3125 1.921876-20.5625-20.644532-4.882813-42.347657-4.882813-42.347657zm0 0" fill="#fc5d1f"/><path d="m72.8125 462.671875c-3.597656-8.242187-2.089844-12.324219.648438-19.734375 3.222656-8.726562 7.640624-20.679688 2.242187-41.09375-1.21875-4.613281-5.945313-7.367188-10.558594-6.144531-4.609375 1.21875-7.359375 5.945312-6.140625 10.558593 4 15.132813 1.210938 22.691407-1.746094 30.691407-3.117187 8.445312-6.652343 18.015625-.273437 32.632812 7.671875 17.570313 20.429687 28.109375 28.40625 33.332031 1.28125-1.054687 2.503906-2.179687 3.632813-3.402343 2.289062-2.480469 4.289062-5.28125 7.039062-7.234375.832031-.589844 1.726562-1.074219 2.640625-1.523438-3.769531-2.007812-18.261719-10.613281-25.890625-28.082031zm0 0" fill="#fc9949"/><path d="m73.839844 351.636719c2.769531-4.984375 8.554687-7.921875 10.703125-13.199219 2.402343-5.902344-.277344-13.515625 3.75-18.457031 1.117187-1.371094 2.722656-2.472657 3.183593-4.183594.347657-1.289063-.042968-2.648437-.296874-3.960937-1.117188-5.742188.515624-11.960938 4.308593-16.417969 1.664063-1.957031 3.835938-3.839844 4.007813-6.402344.273437-4.007813-4.421875-6.734375-5.777344-10.363281-1.960938-5.242188-7.488281-8.816406-13.425781-7.671875-2.96875.570312-5.964844.949219-8.980469.828125-3.410156-.136719-6.828125-.914063-10.207031-.4375-5.199219.734375-9.625 4.394531-12.476563 8.800781-2.050781 3.167969-3.449218 6.785156-5.972656 9.585937-3.28125 3.640626-8.050781 5.480469-12.179688 8.117188-7.953124 5.078125-13.546874 13.195312-17.40625 21.804688-1.777343 3.96875-3.246093 8.148437-3.511718 12.488281-.242188 3.984375.539062 7.953125 1.40625 11.851562.925781 4.160157 1.976562 8.355469 4.054687 12.078125 1.523438 2.726563 3.554688 5.128906 5.664063 7.429688 4.074218 4.445312 8.671875 8.707031 14.378906 10.65625 7.75 2.648437 16.960938.316406 22.519531-5.703125 1.242188-1.34375 2.328125-2.867188 3.824219-3.925781 2.3125-1.644532 5.390625-2.023438 7.546875-3.867188 2.628906-2.25 3.207031-6.027344 4.886719-9.050781zm0 0" fill="#fc9949"/><path d="m57.179688 355.117188c-3.234376-2.335938-6.453126-4.785157-8.917969-7.925782-2.683594-3.421875-4.359375-7.523437-5.664063-11.671875-2.828125-9-4.03125-18.789062-1.457031-27.863281 1.335937-4.710938 3.683594-9.253906 3.71875-14.152344.015625-1.90625-.324219-3.773437-.734375-5.640625-.453125.660157-.933594 1.296875-1.46875 1.894531-3.28125 3.640626-8.050781 5.476563-12.179688 8.113282-7.949218 5.078125-13.546874 13.199218-17.40625 21.808594-1.777343 3.96875-3.246093 8.148437-3.511718 12.488281-.242188 3.984375.539062 7.953125 1.40625 11.851562.925781 4.160157 1.976562 8.355469 4.054687 12.078125 1.523438 2.726563 3.554688 5.128906 5.664063 7.429688 4.074218 4.445312 8.671875 8.703125 14.378906 10.65625 7.75 2.644531 16.960938.3125 22.519531-5.703125 1.242188-1.34375 2.328125-2.867188 3.824219-3.925781 1.988281-1.414063 4.546875-1.898438 6.59375-3.179688-3.925781-1.417969-7.429688-3.808594-10.820312-6.257812zm0 0" fill="#fd7e31"/><path d="m339.964844 397.222656c-.464844.476563-.945313.964844-1.378906 1.496094-2.960938 3.636719-3.113282 8.308594-3.257813 12.828125-.105469 3.226563-.214844 6.5625-1.367187 9.398437-1.296876 3.179688-3.796876 5.613282-6.441407 8.191407-2.277343 2.222656-4.636719 4.515625-6.226562 7.378906-.722657 1.304687-1.277344 2.703125-1.8125 4.058594-.980469 2.480469-1.910157 4.824219-3.746094 6.394531-1.238281 1.0625-2.808594 1.6875-4.472656 2.347656-1.496094.59375-3.042969 1.210938-4.421875 2.1875-1.394532.992188-2.488282 2.261719-3.546875 3.492188-.386719.449218-.769531.898437-1.171875 1.328125-.277344.304687-.574219.585937-.871094.875 19.660156-.332031 46.246094-9.1875 77.222656-40.96875 1.078125-1.105469.152344-2.960938-1.378906-2.75-12.410156 1.703125-41.125 2.277343 10.15625-41.152344-36.679688-6.503906 10.183594-34.496094-23.816406-45.496094-33.992188-10.996093-6.207032-49.140625-6.191406-49.160156-6.195313 7.328125-14.808594 15.1875-28.648438 24.613281-.039062.027344-.078125.054688-.121094.082032-6.359375 4.34375-11.195312 10.597656-13.8125 17.839843-5.59375 15.46875-15.117187 25.5625-15.117187 25.5625l2.273437-1.207031c1.789063-.949219 3.628906-1.5625 5.46875-1.824219 2.523438-.351562 5.0625-.09375 7.753906.1875 1.363282.140625 2.777344.285157 4.183594.34375 3.226563.128907 6.699219-.191406 10.929688-1.003906 6.242187-1.203125 12.433594 2.335937 14.703125 8.414063.71875 1.921874 2.097656 3.585937 3.433593 5.195312 1.816407 2.195312 3.535157 4.265625 3.371094 6.660156-.144531 2.113282-1.714844 3.851563-3.375 5.691406-.386718.421876-.769531.847657-1.132812 1.273438-4.757813 5.597656-6.765625 13.242188-5.363282 20.453125.046876.234375.09375.472656.144532.707031.261718 1.261719.507812 2.449219.226562 3.5-.308594 1.136719-1.226562 2.074219-2.195312 3.0625zm0 0" fill="#fbb362"/><path d="m322.269531 437.054688c3.289063-5.921876 10.167969-9.417969 12.726563-15.691407 2.855468-7.015625-.328125-16.066406 4.457031-21.941406 1.328125-1.632813 3.234375-2.941406 3.785156-4.972656.414063-1.535157-.050781-3.148438-.351562-4.710938-1.328125-6.828125.609375-14.21875 5.117187-19.515625 1.980469-2.328125 4.5625-4.566406 4.769532-7.613281.324218-4.765625-5.257813-8.007813-6.867188-12.320313-2.332031-6.230468-8.90625-10.480468-15.964844-9.121093-3.527344.679687-7.085937 1.128906-10.671875.984375-4.054687-.164063-8.117187-1.085938-12.136719-.519532-6.179687.871094-11.445312 5.222657-14.832031 10.460938-2.4375 3.765625-4.101562 8.066406-7.101562 11.398438-3.898438 4.328124-9.570313 6.511718-14.476563 9.648437-9.453125 6.035156-16.105468 15.6875-20.695312 25.921875-2.113282 4.71875-3.859375 9.6875-4.175782 14.847656-.285156 4.734375.644532 9.457032 1.675782 14.085938 1.101562 4.949218 2.351562 9.9375 4.820312 14.363281 1.808594 3.238281 4.226563 6.09375 6.730469 8.832031 4.84375 5.285156 10.3125 10.347656 17.097656 12.667969 9.210938 3.148437 20.164063.375 26.769531-6.777344 1.476563-1.601562 2.769532-3.410156 4.542969-4.671875 2.753907-1.953125 6.410157-2.402344 8.976563-4.597656 3.121094-2.671875 3.808594-7.164062 5.804687-10.757812zm0 0" fill="#fc9949"/><path d="m270.71875 373.140625c-9.453125 6.035156-16.105469 15.6875-20.695312 25.925781-2.113282 4.714844-3.859376 9.683594-4.171876 14.84375-.289062 4.738282.640626 9.457032 1.671876 14.089844 1.101562 4.945312 2.351562 9.933594 4.820312 14.359375 1.808594 3.242187 4.226562 6.097656 6.730469 8.832031 4.195312 4.578125 8.863281 8.988282 14.445312 11.59375-1.449219-8.667968 2.132813-12.609375 5.46875-14.394531 3.417969-1.824219 5.792969-5.144531 6.734375-8.902344l11.578125-46.234375c-19.378906-12.582031-12.105469-29.761718-12.105469-29.761718-3.898437 4.328124-9.566406 6.511718-14.476562 9.648437zm0 0" fill="#fd7e31"/><path d="m295.285156 432.078125c-1.828125-4.191406-1.199218-5.898437.484375-10.453125 2.222657-6.019531 5.265625-14.261719 1.535157-28.371094-1.21875-4.613281-5.945313-7.367187-10.558594-6.144531-4.613282 1.21875-7.363282 5.945313-6.144532 10.558594 2.335938 8.835937.773438 13.066406-1.039062 17.96875-2.101562 5.699219-4.722656 12.789062-.109375 23.351562 4.429687 10.144531 12.132813 17.730469 18.066406 22.453125 2-1.1875 3.839844-2.644531 5.421875-4.359375 1.480469-1.601562 2.769532-3.410156 4.546875-4.671875 1.246094-.882812 2.679688-1.460937 4.113281-2.03125-4.136718-2.824218-12.386718-9.304687-16.316406-18.300781zm0 0" fill="#fbb362"/><path d="m123.925781 79.144531c-9.453125 6.035157-16.105469 15.691407-20.695312 25.925781-2.113281 4.714844-3.859375 9.6875-4.171875 14.84375-.289063 4.738282.640625 9.457032 1.671875 14.089844 1.101562 4.945313 2.351562 9.9375 4.820312 14.359375 1.808594 3.242188 4.226563 6.097657 6.734375 8.832031 4.84375 5.285157 10.308594 10.351563 17.09375 12.667969.730469.25 1.46875.449219 2.21875.625-4.34375-9-1.484375-13.636719 1.4375-15.886719 2.527344-1.953124 4.386719-4.644531 5.058594-7.769531l10.859375-50.703125c-18.105469-12.328125-10.550781-26.632812-10.550781-26.632812-3.898438 4.328125-9.570313 6.515625-14.476563 9.648437zm0 0" fill="#fd7e31"/><path d="m148.492188 138.082031c-1.832032-4.191406-1.199219-5.894531.484374-10.453125 2.222657-6.015625 5.265626-14.257812 1.535157-28.371094-1.222657-4.613281-5.945313-7.359374-10.558594-6.144531-4.613281 1.222657-7.363281 5.949219-6.144531 10.558594 2.335937 8.835937.773437 13.070313-1.039063 17.972656-2.101562 5.695313-4.722656 12.785157-.109375 23.347657 4.898438 11.21875 12.863282 18.382812 18.355469 22.273437 1.886719-1.15625 3.628906-2.546875 5.132813-4.179687 1.480468-1.597657 2.769531-3.40625 4.542968-4.667969 1.5-1.0625 3.261719-1.683594 4.976563-2.382813-.410157-.289062-.847657-.550781-1.320313-.769531-.101562-.046875-10.640625-5.238281-15.855468-17.183594zm0 0" fill="#fbb362"/></svg>