<svg height="512pt" viewBox="-11 0 512 512.00335" width="512pt" xmlns="http://www.w3.org/2000/svg"><path d="m73.070312 441.53125.003907-.007812 104.628906 61.113281c19.726563 5.621093 40.46875 8.832031 61.886719 9.296875v-.003906l213.339844-115.320313c17.488281-28 29.480468-59.78125 34.464843-93.839844l-4.964843-96.425781c-26.992188-105.96875-123.054688-184.34375-237.429688-184.34375-22.933594 0-45.132812 3.160156-66.183594 9.054688l-85.96875 43.921874c-26.269531 20.839844-48.15625 46.957032-64.070312 76.746094l6.4375 241.882813c10.601562 17.53125 23.34375 33.625 37.855468 47.925781zm0 0" fill="#162680"/><path d="m357.054688 102.523438 27.613281-47.828126c-5.433594.296876-11.011719-.921874-16.074219-3.847656-5.066406-2.921875-8.90625-7.144531-11.367188-11.996094l-27.617187 47.828126zm0 0" fill="#e0f9fe"/><path d="m354.484375 75.214844c-6.390625-3.691406-9.398437-10.984375-7.957031-17.835938l-16.917969 29.300782 27.445313 15.84375 17.015624-29.46875c-5.210937 4.792968-13.128906 5.886718-19.585937 2.160156zm0 0" fill="#b9e9fd"/><path d="m395.292969 3.90625c-13.894531-8.019531-31.65625-3.261719-39.679688 10.632812-8.019531 13.890626-3.261719 31.65625 10.632813 39.675782 13.890625 8.023437 31.65625 3.261718 39.675781-10.628906 8.023437-13.894532 3.261719-31.65625-10.628906-39.679688zm0 0" fill="#83d3fc"/><path d="m384.21875 42.34375c-9.289062-5.363281-12.46875-17.238281-7.109375-26.523438 4.621094-8.003906 14.078125-11.457031 22.546875-8.832031-1.335938-1.140625-2.789062-2.183593-4.363281-3.09375-13.894531-8.019531-31.660157-3.257812-39.679688 10.632813-8.019531 13.894531-3.261719 31.660156 10.632813 39.679687 13.890625 8.023438 31.65625 3.261719 39.679687-10.628906.910157-1.578125 1.644531-3.207031 2.230469-4.859375-6.019531 6.507812-15.933594 8.242188-23.9375 3.625zm0 0" fill="#61b6ff"/><path d="m269.003906 305.386719c-2.035156-4.414063-.105468-9.644531 4.308594-11.679688l128.441406-59.210937c4.414063-2.035156 9.644532-.109375 11.679688 4.308594 2.035156 4.414062.105468 9.644531-4.308594 11.679687l-128.441406 59.210937c-4.40625 2.03125-9.640625.109376-11.679688-4.308593zm0 0" fill="#face7a"/><path d="m325.496094 279.304688c-1.511719-3.28125-1.234375-6.921876.414062-9.84375l-52.597656 24.246093c-4.414062 2.035157-6.34375 7.265625-4.308594 11.679688 2.039063 4.417969 7.273438 6.339843 11.679688 4.308593l52.683594-24.289062c-3.339844-.613281-6.339844-2.777344-7.871094-6.101562zm0 0" fill="#fbb362"/><path d="m197.953125 264.363281c4.839844-.445312 8.402344-4.730469 7.957031-9.570312l-12.9375-140.839844c-.445312-4.839844-4.730468-8.40625-9.574218-7.960937-4.839844.445312-8.402344 4.730468-7.957032 9.574218l12.941406 140.839844c.441407 4.832031 4.722657 8.402344 9.570313 7.957031zm0 0" fill="#face7a"/><path d="m205.910156 254.792969-5.125-55.789063c-1.785156 2.640625-4.699218 4.492188-8.125 4.808594-3.753906.34375-7.234375-1.242188-9.472656-3.929688l5.191406 56.523438c.445313 4.832031 4.726563 8.402344 9.570313 7.960938 4.84375-.449219 8.40625-4.734376 7.960937-9.574219zm0 0" fill="#fbb362"/><path d="m231.429688 210.472656-12.617188 21.851563c-4.125 7.148437-10.414062 12.265625-17.558594 15.015625 5.957032-.390625 12.085938.914062 17.640625 4.121094l50.8125 29.335937c5.554688 3.207031 9.75 7.867187 12.390625 13.214844-1.191406-7.5625.097656-15.5625 4.222656-22.710938l12.617188-21.851562c5.226562-9.050781 13.917969-14.847657 23.429688-16.699219l-.03125-.019531c-7.527344 1.820312-15.734376.871093-22.96875-3.304688l-50.8125-29.335937c-7.234376-4.175782-12.15625-10.808594-14.34375-18.238282l-.035157-.015624c3.152344 9.160156 2.480469 19.585937-2.746093 28.636718zm0 0" fill="#dcb1f3"/><path d="m262.625 257.621094 12.617188-21.855469c3.203124-5.550781 5.539062-11.125 6.964843-16.246094l-33.652343-19.429687c-7.234376-4.175782-12.160157-10.8125-14.34375-18.238282l-.035157-.019531c3.152344 9.164063 2.480469 19.589844-2.746093 28.640625l-12.617188 21.851563c-4.125 7.144531-10.414062 12.261719-17.558594 15.015625 5.953125-.390625 12.085938.914062 17.640625 4.121094l33.867188 19.554687c3.472656-3.671875 6.867187-8.207031 9.863281-13.394531zm0 0" fill="#c78fe8"/><path d="m287.675781 98.710938 79.925781 46.144531c4.445313 2.566406 8.136719 5.9375 11.011719 9.820312l4.375-7.582031c8.632813-14.949219 3.511719-34.0625-11.4375-42.695312l-50.8125-29.335938c-14.949219-8.628906-34.066406-3.507812-42.695312 11.441406l-4.378907 7.582032c4.800782.546874 9.570313 2.058593 14.011719 4.625zm0 0" fill="#c78fe8"/><path d="m331.253906 207.8125-79.925781-46.144531c-4.445313-2.566407-8.136719-5.9375-11.011719-9.824219l-4.375 7.585938c-8.632812 14.949218-3.511718 34.0625 11.4375 42.691406l50.8125 29.339844c14.949219 8.628906 34.066406 3.507812 42.695313-11.441407l4.378906-7.582031c-4.800781-.546875-9.566406-2.058594-14.011719-4.625zm0 0" fill="#c78fe8"/><path d="m320.738281 75.066406c-14.949219-8.632812-34.0625-3.511718-42.695312 11.4375l-4.375 7.585938c4.800781.546875 9.566406 2.054687 14.007812 4.621094l35.257813 20.355468 2.878906-4.980468c8.628906-14.949219 22.230469-23.257813 30.371094-18.554688zm0 0" fill="#b26cde"/><path d="m283.710938 187.007812 2.875-4.984374-35.257813-20.355469c-4.445313-2.566407-8.136719-5.9375-11.007813-9.820313l-4.378906 7.582032c-8.632812 14.949218-3.507812 34.0625 11.441406 42.695312l35.445313 20.464844c-8.144531-4.707032-7.75-20.632813.882813-35.582032zm0 0" fill="#b26cde"/><path d="m368.484375 143.332031-79.929687-46.148437c-18.226563-10.519532-41.53125-4.277344-52.054688 13.949218-10.523438 18.230469-4.28125 41.535157 13.945312 52.058594l79.929688 46.148438c18.226562 10.523437 41.53125 4.277344 52.058594-13.949219 10.523437-18.226563 4.277344-41.535156-13.949219-52.058594zm0 0" fill="#b26cde"/><path d="m288.726562 141.289062c8.882813-15.386718 22.839844-24.714843 34.386719-24.152343l-34.554687-19.949219c-18.226563-10.523438-41.535156-4.277344-52.058594 13.949219-10.523438 18.226562-4.277344 41.53125 13.949219 52.054687l34.554687 19.953125c-6.261718-9.71875-5.160156-26.472656 3.722656-41.855469zm0 0" fill="#9d4ad3"/><path d="m270.882812 278.765625-50.8125-29.339844c-14.949218-8.628906-34.0625-3.507812-42.695312 11.441407l-104.300781 180.65625c28.824219 28.398437 64.640625 49.71875 104.640625 61.117187l104.605468-181.183594c8.632813-14.945312 3.511719-34.0625-11.4375-42.691406zm0 0" fill="#e0f9fe"/><g fill="#b9e9fd"><path d="m177.714844 502.640625 30.464844-52.761719-6.851563-7.488281c-.496094-.546875-1.238281-.78125-1.96875-.667969-3.949219.605469-5.597656-1.769531-6.265625-3.460937-.339844-.863281-1.191406-1.429688-2.117188-1.355469-5.136718.398438-6.980468-2.226562-7.640624-4.085938-.347657-.972656-1.308594-1.59375-2.328126-1.449218-38.308593 5.480468-48.1875-21.101563-50.183593-28.53125-.273438-1.011719-1.234375-1.632813-2.277344-1.550782-3.363281.253907-4.910156-1.785156-5.605469-3.375-.410156-.945312-1.390625-1.476562-2.402344-1.304687-6.007812 1.023437-5.796874-4.636719-5.796874-4.636719l-10.363282-4.671875-31.304687 54.222657c28.824219 28.398437 64.640625 49.71875 104.640625 61.117187zm0 0"/><path d="m262.058594 356.554688 17.964844-31.113282c-.523438-.382812-1.070313-.742187-1.644532-1.074218-8.644531-4.992188-19.699218-2.03125-24.6875 6.613281-4.992187 8.644531-2.03125 19.699219 6.613282 24.691406.574218.332031 1.160156.621094 1.753906.882813zm0 0"/><path d="m231.484375 409.511719 17.964844-31.117188c-.523438-.382812-1.066407-.742187-1.640625-1.074219-8.648438-4.992187-19.699219-2.03125-24.691406 6.613282-4.992188 8.648437-2.027344 19.699218 6.617187 24.691406.570313.332031 1.15625.621094 1.75.886719zm0 0"/><path d="m201.03125 462.257812 17.964844-31.113281c-.523438-.382812-1.070313-.746093-1.644532-1.078125-8.644531-4.988281-19.699218-2.027344-24.691406 6.617188-4.988281 8.644531-2.027344 19.699218 6.617188 24.691406.574218.332031 1.160156.621094 1.753906.882812zm0 0"/></g><path d="m199.277344 461.375c.574218.332031 1.160156.621094 1.753906.882812l7.148438-12.378906-6.851563-7.488281c-.496094-.546875-1.238281-.78125-1.96875-.667969-3.949219.605469-5.597656-1.769531-6.265625-3.460937-.15625-.394531-.421875-.71875-.746094-.957031-4.511718 8.546874-1.511718 19.195312 6.929688 24.070312zm0 0" fill="#83d3fc"/><path d="m176.828125 265.734375c-.574219-.332031-1.160156-.621094-1.753906-.882813l-17.960938 31.113282c.523438.382812 1.066407.746094 1.640625 1.078125 8.644532 4.988281 19.699219 2.027343 24.691406-6.617188 4.988282-8.644531 2.027344-19.699219-6.617187-24.691406zm0 0" fill="#b9e9fd"/><path d="m146.257812 318.6875c-.574218-.332031-1.160156-.621094-1.753906-.882812l-17.964844 31.113281c.523438.382812 1.066407.746093 1.640626 1.078125 8.644531 4.992187 19.699218 2.027344 24.691406-6.617188 4.992187-8.644531 2.03125-19.699218-6.613282-24.691406zm0 0" fill="#b9e9fd"/><path d="m115.800781 370.878906c-.574219-.332031-1.160156-.625-1.753906-.886718l-17.960937 31.117187c.519531.382813 1.066406.742187 1.640624 1.074219 8.644532 4.992187 19.699219 2.03125 24.691407-6.617188 4.988281-8.644531 2.027343-19.699218-6.617188-24.6875zm0 0" fill="#b9e9fd"/><path d="m104.125 387.183594-8.039062 13.925781c.523437.382813 1.066406.742187 1.640624 1.074219 8.246094 4.761718 18.671876 2.273437 23.949219-5.46875-.351562-.132813-.742187-.175782-1.136719-.105469-6.003906 1.023437-5.792968-4.640625-5.792968-4.640625zm0 0" fill="#83d3fc"/><path d="m297.074219 366.195312-32.210938-18.597656c-4.210937-2.433594-5.652343-7.816406-3.222656-12.023437 2.429687-4.210938 7.816406-5.652344 12.023437-3.222657l32.214844 18.597657c4.207032 2.429687 5.652344 7.8125 3.21875 12.023437-2.429687 4.210938-7.8125 5.652344-12.023437 3.222656zm0 0" fill="#4374d3"/><path d="m235.929688 472.101562-32.210938-18.597656c-4.210938-2.429687-5.652344-7.816406-3.222656-12.023437 2.429687-4.210938 7.8125-5.652344 12.023437-3.222657l32.210938 18.597657c4.210937 2.429687 5.65625 7.8125 3.222656 12.023437-2.429687 4.210938-7.8125 5.652344-12.023437 3.222656zm0 0" fill="#4374d3"/><path d="m266.503906 419.148438-32.210937-18.597657c-4.210938-2.433593-5.65625-7.816406-3.222657-12.027343 2.429688-4.210938 7.8125-5.652344 12.023438-3.21875l32.210938 18.597656c4.210937 2.429687 5.652343 7.8125 3.222656 12.023437-2.429688 4.210938-7.8125 5.652344-12.023438 3.222657zm0 0" fill="#4374d3"/><path d="m131.652344 270.6875 32.210937 18.597656c4.210938 2.433594 9.59375.988282 12.027344-3.222656 2.429687-4.210938.988281-9.589844-3.222656-12.023438l-32.210938-18.597656c-4.210937-2.429687-9.59375-.988281-12.027343 3.222656-2.429688 4.210938-.988282 9.59375 3.222656 12.023438zm0 0" fill="#5294e5"/><path d="m70.507812 376.59375 32.210938 18.597656c4.210938 2.433594 9.59375.988282 12.023438-3.222656 2.433593-4.207031.988281-9.589844-3.21875-12.023438l-32.214844-18.597656c-4.207032-2.429687-9.589844-.988281-12.023438 3.222656-2.429687 4.210938-.988281 9.59375 3.222656 12.023438zm0 0" fill="#5294e5"/><path d="m101.082031 323.640625 32.210938 18.597656c4.210937 2.429688 9.59375.988281 12.023437-3.222656 2.433594-4.210937.988282-9.59375-3.222656-12.023437l-32.210938-18.597657c-4.210937-2.429687-9.59375-.988281-12.023437 3.222657-2.429687 4.210937-.988281 9.59375 3.222656 12.023437zm0 0" fill="#5294e5"/><path d="m119.484375 217.734375c-9.527344-5.503906-87.574219-50.5625-96.027344-55.441406-32.167969 67.933593-30.957031 146.929687 1.839844 213.210937l2.324219 1.339844c15.445312 8.917969 35.378906 3.578125 44.296875-11.867188 10.167969-17.609374 43.050781-74.566406 58.945312-102.101562 9.1875-15.910156 4.066407-36.222656-11.378906-45.140625zm0 0" fill="#5294e5"/><path d="m72.425781 190.5625c-22.210937-12.820312-44.65625-25.78125-48.96875-28.269531-22.9375 48.4375-28.886719 102.496093-18.535156 153.558593l68.152344-118.226562c-1.054688-2.886719-1.144531-5.203125-.648438-7.0625zm0 0" fill="#4374d3"/><path d="m128.367188 209.222656-99.589844-57.5c-2.765625 5.175782-5.351563 10.464844-7.75 15.855469l98.539062 56.890625c11.832032 6.832031 15.898438 22.015625 9.066406 33.84375l-61.546874 106.609375c-6.832032 11.828125-22.015626 15.898437-33.847657 9.066406l-11.90625-6.871093c4.097657 9.136718 8.734375 17.984374 13.878907 26.488281 17.921874 4.535156 37.429687-3.101563 47.121093-19.882813l61.546875-106.605468c11.683594-20.238282 4.726563-46.210938-15.511718-57.894532zm0 0" fill="#61b6ff"/><path d="m21.027344 167.578125 52.046875 30.046875c-4.769531-13.039062 10.125-14.480469 10.125-14.480469l-54.421875-31.421875c-2.765625 5.175782-5.351563 10.464844-7.75 15.855469zm0 0" fill="#5294e5"/><path d="m207.980469 327.152344c-14.492188-8.363282-33.019531-3.398438-41.386719 11.089844l-43.058594 74.585937c-8.367187 14.488281-3.402344 33.015625 11.089844 41.382813 14.488281 8.367187 33.015625 3.402343 41.382812-11.089844l43.058594-74.582032c8.367188-14.492187 3.402344-33.019531-11.085937-41.386718zm0 0" fill="#83d3fc"/><path d="m134.621094 454.210938c14.492187 8.367187 33.019531 3.402343 41.386718-11.089844l6.546876-11.34375c-.433594-.324219-.980469-.488282-1.550782-.40625-38.308594 5.480468-48.1875-21.101563-50.179687-28.53125-.136719-.503906-.441407-.910156-.84375-1.179688l-6.449219 11.167969c-8.363281 14.488281-3.398438 33.015625 11.089844 41.382813zm0 0" fill="#61b6ff"/><path d="m382.433594 195.390625c3.023437-5.238281 4.652344-10.890625 5.023437-16.542969-7.75-3.15625-16.832031-.210937-21.132812 7.242188-4.304688 7.449218-2.316407 16.789062 4.292969 21.921875 4.710937-3.144531 8.792968-7.386719 11.816406-12.621094zm0 0" fill="#9d4ad3"/><path d="m248.3125 98.511719c-4.707031 3.144531-8.789062 7.386719-11.8125 12.621093-3.023438 5.238282-4.65625 10.894532-5.023438 16.542969 7.75 3.15625 16.832032.210938 21.132813-7.242187 4.300781-7.449219 2.3125-16.789063-4.296875-21.921875zm0 0" fill="#8634c6"/><path d="m408.210938 220.4375-32.210938-18.597656c-4.210938-2.433594-5.65625-7.816406-3.222656-12.027344 2.429687-4.207031 7.8125-5.648438 12.023437-3.21875l32.210938 18.597656c4.210937 2.429688 5.652343 7.8125 3.222656 12.023438-2.429687 4.210937-7.8125 5.652344-12.023437 3.222656zm0 0" fill="#face7a"/><path d="m485.105469 218.054688-45.820313-26.453126c-5.976562-3.453124-13.617187-1.402343-17.066406 4.574219l-19.214844 33.277344c-3.449218 5.976563-1.402344 13.617187 4.574219 17.070313 17.410156 10.050781 68 39.257812 81.015625 46.773437 2.722656-25.515625 1.449219-50.917969-3.488281-75.242187zm0 0" fill="#5294e5"/><path d="m443.140625 256.890625 21.476563-40.5c-1.144532-4.433594-.667969-7.605469.503906-9.875l-25.835938-14.914063c-5.976562-3.453124-13.617187-1.402343-17.066406 4.574219l-19.214844 33.277344c-3.449218 5.976563-1.402344 13.617187 4.574219 17.070313 6.03125 3.480468 16.046875 9.261718 27.097656 15.644531 2.660157-4.414063 8.464844-5.277344 8.464844-5.277344zm0 0" fill="#4374d3"/><path d="m489.429688 283.613281-77.449219-44.714843c-1.761719-1.019532-2.371094-3.28125-1.351563-5.046876l19.214844-33.277343c1.015625-1.765625 3.28125-2.371094 5.042969-1.351563l52.242187 30.160156c-1.203125-7.808593-2.777344-15.492187-4.699218-23.039062l-38.742188-22.367188c-10.167969-5.875-23.21875-2.375-29.089844 7.792969l-19.214844 33.277344c-5.871093 10.171875-2.375 23.222656 7.796876 29.09375l84.214843 48.625c.921875-6.308594 1.601563-12.695313 2.035157-19.152344zm0 0" fill="#61b6ff"/><path d="m411.980469 238.898438c-1.765625-1.015626-2.371094-3.28125-1.351563-5.046876l19.210938-33.277343c1.019531-1.761719 3.28125-2.367188 5.046875-1.351563l29.730469 17.164063c-3.558594-13.773438 8.523437-15.40625 8.523437-15.40625l-29.453125-17.003907c-10.171875-5.871093-23.222656-2.375-29.09375 7.796876l-19.210938 33.277343c-5.875 10.171875-2.375 23.222657 7.792969 29.09375l31.089844 17.949219c-4.40625-13.238281 8.875-15.203125 8.875-15.203125zm0 0" fill="#5294e5"/><path d="m349.019531 350.257812c-15.445312-8.917968-35.597656-3.199218-44.785156 12.710938-13.25 22.953125-47.710937 82.640625-58.945313 102.105469-8.917968 15.441406-3.578124 35.378906 11.867188 44.292969l3.65625 2.113281c75.320312-4.800781 143.234375-43.917969 185.609375-104.988281-4.875-2.816407-94.777344-54.71875-97.402344-56.234376zm0 0" fill="#5294e5"/><path d="m349.019531 350.257812c-15.445312-8.917968-35.597656-3.199218-44.785156 12.710938-13.25 22.953125-47.710937 82.640625-58.945313 102.105469-8.917968 15.441406-3.578124 35.378906 11.867188 44.292969l3.65625 2.113281c13.691406-.875 27.128906-2.894531 40.222656-5.957031l77.421875-131.582032c-.816406-2.882812-.949219-5.195312-.648437-7.0625-15.554688-8.984375-27.84375-16.078125-28.789063-16.621094zm0 0" fill="#4374d3"/><path d="m256.820312 503.078125c-11.832031-6.832031-15.898437-22.015625-9.066406-33.847656l61.546875-106.605469c6.832031-11.832031 22.015625-15.902344 33.847657-9.070312l99.898437 57.675781c3.464844-4.746094 6.761719-9.625 9.882813-14.621094l-100.980469-58.300781c-20.238281-11.683594-46.207031-4.726563-57.894531 15.515625l-61.546876 106.605469c-9.875 17.101562-6.433593 38.292968 7.078126 51.503906 1.800781.039062 3.605468.070312 5.414062.070312 8.46875 0 16.835938-.429687 25.082031-1.269531zm0 0" fill="#61b6ff"/><path d="m351.949219 338.308594c-20.238281-11.683594-46.207031-4.726563-57.894531 15.511718l-61.546876 106.605469c-9.875 17.101563-6.433593 38.296875 7.078126 51.503907 1.800781.039062 3.605468.070312 5.414062.070312 8.46875 0 16.835938-.429688 25.082031-1.269531l-13.261719-7.652344c-11.832031-6.832031-15.898437-22.015625-9.066406-33.847656l61.546875-106.605469c6.832031-11.832031 22.015625-15.902344 33.847657-9.070312l35.308593 20.386718c-4.21875-14.894531 9.597657-14.789062 9.597657-14.789062zm0 0" fill="#5294e5"/><path d="m233.605469 119.628906-32.210938-18.597656c-4.210937-2.429688-5.652343-7.8125-3.222656-12.023438 2.433594-4.210937 7.816406-5.652343 12.023437-3.222656l32.214844 18.597656c4.207032 2.433594 5.652344 7.816407 3.222656 12.027344-2.433593 4.207032-7.816406 5.648438-12.027343 3.21875zm0 0" fill="#face7a"/><path d="m210.828125 59.699219-43.507813-25.117188c-23.390624 7.8125-46.011718 19.335938-66.882812 34.613281 9.914062 5.722657 70.449219 40.671876 78.683594 45.425782 5.976562 3.449218 13.617187 1.402344 17.070312-4.574219l19.210938-33.277344c3.453125-5.976562 1.402344-13.617187-4.574219-17.070312zm0 0" fill="#5294e5"/><path d="m167.320312 34.582031c-23.390624 7.8125-46.011718 19.335938-66.882812 34.613281 4.492188 2.589844 19.359375 11.175782 35.050781 20.234376 2.804688-4.304688 9.246094-4.824219 9.246094-4.824219l24.179687-38.9375c-.558593-4.121094.246094-7.09375 1.601563-9.242188zm0 0" fill="#4374d3"/><path d="m206.429688 67.324219c1.761718 1.019531 2.367187 3.28125 1.351562 5.046875l-19.214844 33.277344c-1.015625 1.761718-3.28125 2.371093-5.042968 1.351562l-75.152344-43.390625c-5.328125 3.589844-10.503906 7.382813-15.523438 11.367187l81.871094 47.269532c10.171875 5.871094 23.222656 2.375 29.09375-7.796875l19.214844-33.277344c5.871094-10.171875 2.371094-23.222656-7.796875-29.09375l-36.414063-21.023437c-7.597656 2.125-15.046875 4.613281-22.328125 7.4375zm0 0" fill="#61b6ff"/><path d="m144.734375 84.605469-36.363281-20.996094c-5.328125 3.589844-10.503906 7.382813-15.523438 11.367187l42.582032 24.585938c-5.496094-13.773438 9.304687-14.957031 9.304687-14.957031zm0 0" fill="#5294e5"/><path d="m176.269531 31.800781c-6.714843 1.960938-13.316406 4.183594-19.78125 6.691407l12.429688 7.175781c-1.226563-8.976563 4.03125-12.53125 7.351562-13.867188zm0 0" fill="#5294e5"/></svg>