<svg height="512pt" viewBox="0 0 512 512.00002" width="512pt" xmlns="http://www.w3.org/2000/svg"><path d="m410.746094 447.410156c48.714844-44.777344 79.253906-109.023437 79.253906-180.410156 0-135.3125-109.6875-245-245-245-135.308594-.003906-245 109.6875-245 244.996094 0 49.089844 14.445312 94.800781 39.304688 133.132812zm0 0" fill="#a2ec00"/><path d="m493.71875 47.804688c-12.351562-27.046876-36.8125-42.375-54.632812-34.238282-17.820313 8.140625-22.253907 36.664063-9.902344 63.710938 12.351562 27.046875 36.8125 42.375 54.632812 34.238281 17.820313-8.140625 22.253906-36.664063 9.902344-63.710937zm0 0" fill="#5294e5"/><path d="m493.730469 47.792969c-.007813-.023438-.019531-.046875-.03125-.070313l-8.265625 3.3125c-1.230469.492188-2.234375 1.453125-2.722656 2.691406-1.085938 2.746094-3.957032 7.503907-10.640626 6.503907-2.054687-.308594-4.082031.78125-5.015624 2.636719-3.574219 7.101562-14.070313 21.660156-37.859376 14.398437 12.351563 27.046875 36.8125 42.378906 54.632813 34.238281 17.824219-8.140625 22.257813-36.664062 9.902344-63.710937zm0 0" fill="#4374d3"/><path d="m224.113281 69.015625c-6.007812 0-11.949219.285156-17.8125.84375 30.632813 20.527344 53.214844 88.296875 53.660157 169.070313h44.832031c0-108.0625-43.96875-161.707032-48.707031-167.171876-10.386719-1.792968-21.066407-2.742187-31.972657-2.742187zm0 0" fill="#3957c9"/><path d="m283.851562 120.875c-12.050781-30.175781-25.285156-46.257812-27.765624-49.117188-10.386719-1.796874-21.066407-2.742187-31.972657-2.742187-6.007812 0-11.949219.285156-17.8125.839844 13.367188 8.960937 25.199219 26.914062 34.332031 51.015625h43.21875zm0 0" fill="#5294e5"/><path d="m141.871094 89.179688c-55.207032 28.488281-93.949219 84.414062-98.183594 149.753906h140.984375c-1.78125-94.292969-31.824219-137.1875-42.800781-149.753906zm0 0" fill="#5294e5"/><path d="m141.871094 89.179688c-55.207032 28.488281-93.949219 84.414062-98.183594 149.753906h81.917969c.03125-.792969.0625-1.582032.0625-2.378906 0-60.246094 31.503906-78.652344 41.25-82.910157 1.832031-.796875 3.457031-2.007812 4.679687-3.585937.164063-.214844.332032-.414063.496094-.621094-10.101562-34.132812-23.617188-52.695312-30.222656-60.257812zm0 0" fill="#4374d3"/><path d="m356.183594 127.242188c10.792968 30.3125 17.371094 69.203124 17.613281 111.6875h32.792969c-2.921875-43.019532-21.523438-81.964844-50.40625-111.6875zm0 0" fill="#5294e5"/><path d="m271.222656 65.3125c-11.234375 1.011719-17.308594 5.96875-17.308594 5.96875s48.503907 53.433594 48.503907 167.648438h30.660156c-.484375-88.492188-27.195313-161.363282-61.855469-173.617188zm0 0" fill="#b9e9fd"/><path d="m271.222656 65.3125c-11.238281 1.011719-17.308594 5.96875-17.308594 5.96875s18.40625 20.292969 32.542969 62.570312h31.941407c-11.210938-36.347656-27.972657-61.75-47.175782-68.539062zm0 0" fill="#83d3fc"/><path d="m408.71875 297.152344c-5.074219 0-348.066406 0-367.160156 0-1.015625 0-2.007813-.101563-2.96875-.285156v102.167968c34.835937 54.347656 91.027344 94.589844 157.324218 108.042969v-.003906c15.859376 3.226562 32.273438 4.925781 49.085938 4.925781 64.390625 0 122.964844-24.851562 166.691406-65.46875v-149.664062c-.964844.183593-1.957031.285156-2.972656.285156zm0 0" fill="#f948b4"/><path d="m38.589844 296.867188v102.167968c18.195312 28.394532 42.105468 52.765625 70.085937 71.539063v-141.933594c0-14.035156 8.390625-26.101563 20.421875-31.488281h-87.539062c-1.015625 0-2.007813-.101563-2.96875-.285156zm0 0" fill="#c6237c"/><path d="m322.171875 363.917969c-29.925781 0-54.1875 24.261719-54.1875 54.183593v92.816407c39.617187-3.6875 76.496094-16.796875 108.367187-37.078125v-55.738282c.003907-29.921874-24.257812-54.183593-54.179687-54.183593zm0 0" fill="#3957c9"/><path d="m322.171875 355.523438c-34.507813 0-62.582031 28.074218-62.582031 62.578124v93.453126c5.648437-.332032 11.253906-.839844 16.792968-1.546876v-82.390624h37.390626v28.597656h-.488282c-4.636718 0-8.394531 3.757812-8.394531 8.398437 0 4.636719 3.757813 8.394531 8.394531 8.394531h.488282v29.191407c5.6875-1.660157 11.285156-3.515625 16.792968-5.570313v-23.621094h.351563c4.636719 0 8.394531-3.757812 8.394531-8.394531s-3.757812-8.398437-8.394531-8.398437h-.351563v-28.597656h37.390625v51.328124c5.753907-3.34375 11.351563-6.921874 16.792969-10.707031v-50.136719c0-34.503906-28.074219-62.578124-62.578125-62.578124zm-8.398437 54.183593h-36.609376c3.453126-18.527343 18.082032-33.171875 36.609376-36.617187zm16.792968 0v-36.617187c18.527344 3.445312 33.160156 18.089844 36.609375 36.617187zm0 0" fill="#5294e5"/><path d="m360.078125 132.070312c-11.113281-35.117187-41.226563-60.867187-77.640625-66.410156-4.96875-.734375-9.3125-.644531-13.039062-.148437 34.390624 12.828125 60.824218 85.394531 61.300781 173.417969h44.605469c-.21875-40.261719-5.867188-77.296876-15.226563-106.859376zm0 0" fill="#e0f9fe"/><path d="m360.078125 132.070312c-11.113281-35.117187-41.226563-60.867187-77.640625-66.410156-4.96875-.734375-9.3125-.644531-13.039062-.148437 18.972656 7.078125 35.519531 32.339843 46.625 68.339843h44.597656c-.183594-.589843-.355469-1.195312-.542969-1.78125zm0 0" fill="#b9e9fd"/><path d="m375.304688 339.757812h-145.765626c-4.636718 0-8.394531-3.757812-8.394531-8.394531s3.757813-8.398437 8.394531-8.398437h145.765626c4.636718 0 8.398437 3.757812 8.398437 8.398437-.003906 4.636719-3.761719 8.394531-8.398437 8.394531zm0 0" fill="#fc7acd"/><path d="m383.699219 331.363281c0-4.636719-3.757813-8.398437-8.394531-8.398437h-41.597657c-4.636719 0-8.394531 3.761718-8.394531 8.398437s3.757812 8.394531 8.394531 8.394531h41.597657c4.636718 0 8.394531-3.757812 8.394531-8.394531zm0 0" fill="#ffade5"/><path d="m161.121094 339.757812h-87.742188c-4.636718 0-8.398437-3.757812-8.398437-8.394531s3.761719-8.398437 8.398437-8.398437h87.742188c4.636718 0 8.394531 3.757812 8.394531 8.398437 0 4.636719-3.757813 8.394531-8.394531 8.394531zm0 0" fill="#ffade5"/><path d="m101.234375 331.363281c0-4.636719 3.757813-8.398437 8.394531-8.398437h-36.25c-4.636718 0-8.394531 3.761718-8.394531 8.398437s3.757813 8.394531 8.394531 8.394531h36.25c-4.636718 0-8.394531-3.757812-8.394531-8.394531zm0 0" fill="#fc7acd"/><path d="m339.039062 125.671875c-8.488281-18.589844-8.015624-37.960937.003907-49.0625l-.320313-.640625-39.5 45.285156-.71875 1.601563c.902344 6.335937 1.730469 13.109375 4.707032 19.625 4.097656 8.96875 11.386718 17.15625 18.535156 23.28125l.746094.019531 57.53125-6.703125-.554688-1.125c-15.53125.886719-32.296875-14.472656-40.429688-32.28125zm0 0" fill="#b9e9fd"/><path d="m304.921875 145.851562 34.082031-20.261718c-8.449218-18.5625-7.96875-37.894532.042969-48.980469l-.320313-.644531-39.503906 45.289062-.71875 1.601563c.902344 6.335937 1.734375 13.109375 4.707032 19.621093.519531 1.140626 1.09375 2.265626 1.710937 3.375zm0 0" fill="#83d3fc"/><path d="m428.898438 25.789062-83.082032 44.914063c-15.769531 7.203125-19.691406 32.441406-8.761718 56.371094 9.964843 21.824219 32.890624 39.976562 50.621093 29.0625l82.382813-44.535157c-31.777344-4.671874-57.011719-56.585937-41.160156-85.8125zm0 0" fill="#e0f9fe"/><path d="m337.253906 127.488281c1.152344-11.316406 6.199219-20.429687 14.691406-24.304687l74.234376-40.132813c-3.367188-13.183593-3.007813-26.703125 2.71875-37.261719l-83.082032 44.914063c-15.769531 7.203125-19.691406 32.441406-8.761718 56.371094.0625.140625.132812.277343.199218.414062zm0 0" fill="#b9e9fd"/><path d="m468.5625 59.292969c-7.535156-16.503907-22.460938-25.859375-33.335938-20.890625-10.875 4.964844-13.582031 22.371094-6.042968 38.875 7.535156 16.503906 22.464844 25.859375 33.335937 20.894531 10.875-4.96875 13.582031-22.375 6.042969-38.878906zm0 0" fill="#3957c9"/><path d="m256.175781 199.796875 66.320313-34.015625c-7.117188-5.953125-14.390625-14.054688-18.441406-22.925781-3.289063-7.203125-4.152344-14.6875-4.832032-21.601563l-51.835937 26.589844c3.980469 15.835938 6.976562 33.328125 8.789062 51.953125zm0 0" fill="#83d3fc"/><path d="m258.761719 168.753906 11.339843-5.816406c8.019532-4.117188 17.878907-1.664062 22.953126 5.789062 1.199218 1.765626 2.667968 3.703126 4.46875 5.914063.753906.925781 1.589843 1.8125 2.492187 2.671875l22.480469-11.53125c-7.117188-5.953125-14.390625-14.054688-18.441406-22.925781-3.292969-7.203125-4.152344-14.6875-4.832032-21.601563l-51.835937 26.589844c1.996093 7.933594 3.742187 16.28125 5.214843 24.976562 1.875-1.550781 3.929688-2.921874 6.160157-4.066406zm0 0" fill="#61b6ff"/><path d="m188.332031 63.476562h-18.921875c-2.539062.097657-7.316406.636719-12.484375 2.976563 33.261719 15.136719 58.53125 86.429687 59 172.480469h44.605469c-.53125-97.125-32.648438-175.457032-72.199219-175.457032zm0 0" fill="#e0f9fe"/><path d="m188.332031 63.476562h-18.921875c-2.539062.097657-7.316406.636719-12.484375 2.976563 19.390625 8.824219 36.058594 36.734375 46.6875 75.519531 3.171875.542969 6.515625-.195312 9.210938-2.132812 21.269531-15.308594 35.230469 1.886718 35.375 2.066406-12.976563-47.316406-34.945313-78.429688-59.867188-78.429688zm0 0" fill="#b9e9fd"/><path d="m157.503906 66.195312c-6.539062 2.808594-13.816406 8.460938-17.996094 19.808594l-1.613281 5.292969s42.53125 36.589844 42.53125 147.636719h35.5l1.144531-4.003906c-1.222656-84.773438-26.523437-154.421876-59.566406-168.734376zm0 0" fill="#b9e9fd"/><path d="m157.503906 66.195312c-6.539062 2.808594-13.816406 8.460938-17.996094 19.808594l-1.613281 5.292969s19.113281 16.445313 31.714844 60.742187c.738281-.578124 1.410156-1.234374 1.988281-1.980468 11.585938-14.976563 21.828125-13.171875 28.023438-9.535156 1.621094.949218 3.410156 1.472656 5.21875 1.59375-10.738282-39.265626-27.664063-67.402344-47.335938-75.921876zm0 0" fill="#83d3fc"/><path d="m495.65625 103.339844c-5.933594-1.738282-9.335938-7.957032-7.597656-13.890625 9.378906-32.023438-24.351563-74.832031-44.3125-65.714844-2.710938 1.242187-4.96875 3.453125-6.707032 6.578125-3.003906 5.402344-9.816406 7.347656-15.222656 4.347656-5.402344-3.003906-7.347656-9.820312-4.34375-15.222656 4.046875-7.289062 9.917969-12.84375 16.972656-16.066406 41.132813-18.78125 89.003907 44.886718 75.097657 92.371094-1.742188 5.949218-7.976563 9.332031-13.886719 7.597656zm0 0" fill="#e0f9fe"/><path d="m417.472656 19.4375c3.003906-5.40625 9.816406-7.347656 15.222656-4.347656 5.402344 3.003906 7.347657 9.820312 4.34375 15.222656-10.222656 18.390625 1.691407 54.199219 23.367188 67.78125 4.066406 2.550781 11.914062 6.359375 18.773438 3.226562 5.15625-2.351562 7.671874-7.753906 8.878906-11.871093 1.738281-5.929688 7.957031-9.339844 13.886718-7.59375 5.933594 1.734375 9.335938 7.953125 7.601563 13.886719-3.5625 12.152343-11.039063 21.367187-21.066406 25.945312-44.902344 20.503906-96.222657-56.894531-71.007813-102.25zm0 0" fill="#83d3fc"/><path d="m408.71875 267.449219c-.585938 0-353.929688 0-369.398438 0-8.859374 0-16.042968 7.179687-16.042968 16.039062 0 8.863281 7.183594 16.042969 16.042968 16.042969h153.023438s0 0-.003906 0h216.378906c8.859375 0 16.042969-7.183594 16.042969-16.042969s-7.183594-16.039062-16.042969-16.039062zm0 0" fill="#fc7acd"/><path d="m362.613281 283.488281c0 8.863281 7.179688 16.042969 16.039063 16.042969h30.070312c8.859375-.003906 16.039063-7.183594 16.039063-16.042969 0-8.855469-7.183594-16.039062-16.042969-16.039062-.105469 0-11.4375 0-30.066406 0-8.859375 0-16.039063 7.179687-16.039063 16.039062zm0 0" fill="#ffade5"/><path d="m109.628906 283.488281c0-8.859375 7.179688-16.039062 16.039063-16.039062h-86.347657c-8.859374 0-16.042968 7.179687-16.042968 16.039062 0 8.863281 7.183594 16.042969 16.042968 16.042969h86.351563c-8.863281 0-16.042969-7.183594-16.042969-16.042969zm0 0" fill="#f948b4"/><path d="m408.71875 236.554688c-.585938 0-353.929688 0-369.398438 0-8.859374 0-16.042968 7.183593-16.042968 16.042968s7.183594 16.039063 16.042968 16.039063h153.023438s0 0-.003906 0h216.378906c8.859375 0 16.042969-7.179688 16.042969-16.039063 0-8.863281-7.183594-16.042968-16.042969-16.042968zm0 0" fill="#83d3fc"/><path d="m424.761719 252.597656c0-8.863281-7.183594-16.042968-16.042969-16.042968-.105469 0-11.4375 0-30.066406 0-8.859375 0-16.039063 7.183593-16.039063 16.042968s7.179688 16.039063 16.039063 16.039063h30.066406c8.859375 0 16.042969-7.183594 16.042969-16.039063zm0 0" fill="#b9e9fd"/><path d="m109.628906 252.597656c0-8.859375 7.179688-16.042968 16.039063-16.042968h-86.347657c-8.859374 0-16.042968 7.183593-16.042968 16.042968s7.183594 16.039063 16.042968 16.039063h86.351563c-8.863281 0-16.042969-7.183594-16.042969-16.039063zm0 0" fill="#61b6ff"/><path d="m297.132812 409.707031h-19.96875c3.382813-18.152343 17.496094-32.570312 35.492188-36.390625l.023438-.050781s-11.382813-3.488281-7.414063-15.402344c-26.316406 7.394531-45.675781 31.589844-45.675781 60.238281v93.453126c5.648437-.332032 11.253906-.839844 16.792968-1.546876v-82.390624h20.296876l.011718-.007813c.003906 0-10.792968-8.65625.441406-17.902344zm0 0" fill="#4374d3"/></svg>