<svg height="512pt" viewBox="-13 0 512 512.00075" width="512pt" xmlns="http://www.w3.org/2000/svg"><path d="m486.570312 268.714844c0 134.363281-108.921874 243.285156-243.285156 243.285156-134.363281 0-243.285156-108.921875-243.285156-243.285156 0-134.363282 108.921875-243.285156 243.285156-243.285156 134.363282 0 243.285156 108.921874 243.285156 243.285156zm0 0" fill="#ff941f"/><path d="m340.53125 66.699219c13.375-11.742188 44.511719-34.523438 90.636719-41.238281-4.472657-1.65625-9.121094-2.949219-13.921875-3.820313-12.640625-2.296875-25.054688-5.691406-36.851563-10.78125l-4.707031-2.03125c-27.265625-11.769531-58.183594-11.769531-85.453125 0l-4.707031 2.03125c-11.796875 5.089844-24.210938 8.484375-36.851563 10.78125-4.765625.863281-9.386719 2.148437-13.832031 3.789063 46.238281 6.675781 77.449219 29.507812 90.84375 41.269531 4.710938 4.132812 7.421875 10.078125 7.421875 16.34375 0-6.265625 2.710937-12.210938 7.421875-16.34375zm0 0" fill="#fcd2a4"/><path d="m337.1875 22.550781c0-8.683593 3.953125-16.445312 10.160156-21.578125-19.21875-2.589844-38.972656.023438-57.113281 7.855469l-4.707031 2.03125c-11.796875 5.089844-24.210938 8.484375-36.851563 10.78125-4.765625.863281-9.386719 2.148437-13.832031 3.789063 46.238281 6.675781 77.449219 29.507812 90.84375 41.269531 4.710938 4.132812 7.421875 10.078125 7.421875 16.34375 0-6.269531 2.710937-12.210938 7.421875-16.34375 4.96875-4.363281 12.394531-10.25 22.121094-16.269531-14.273438-1.28125-25.464844-13.269532-25.464844-27.878907zm0 0" fill="#f7c696"/><path d="m412.007812 242.1875h.003907c-6.4375-28.535156-1.59375-52.507812 5.160156-65.617188-4.121094.867188-8.347656 1.429688-12.667969 1.632813-17.960937.851563-34.707031-4.148437-48.519531-13.242187.007813-.011719.011719-.023438.011719-.023438-.011719.019531-.027344.050781-.042969.082031l-18.429687 32.347657c-2.011719 3.535156-7.109376 3.535156-9.125 0l-18.085938-31.753907c-.128906-.21875-.234375-.445312-.351562-.667969v.003907c-13.816407 9.101562-30.570313 14.105469-48.539063 13.253906-11.777344-.554687-22.917969-3.667969-32.886719-8.785156-.667968 7.808593-3.460937 21.597656-7.800781 27.605469 73.449219-14.109376 143.3125 55.464843 108.460937 142.65625-23.410156 58.65625-94.058593 117.769531-159.324218 161.035156 23.167968 7.324218 47.828125 11.285156 73.414062 11.285156 30.289063 0 59.277344-5.550781 86.023438-15.664062 12.265625-10.539063 23.859375-22.425782 34.527344-35.628907 54.71875-67.738281 70.675781-151.964843 48.171874-218.519531zm0 0" fill="#f7c696"/><path d="m250.671875 455.945312c0-7.261718 1.53125-14.160156 4.273437-20.410156-26.390624 23.878906-56.253906 46.078125-85.074218 65.179688 23.167968 7.324218 47.828125 11.285156 73.414062 11.285156 17.8125 0 35.171875-1.933594 51.894532-5.574219-25.089844-3.140625-44.507813-24.535156-44.507813-50.480469zm0 0" fill="#f2ba88"/><path d="m335.753906 270.738281c7.554688-23.566406 29.632813-40.632812 55.710938-40.632812 6.605468 0 12.949218 1.113281 18.871094 3.132812-3.703126-24.566406.800781-44.953125 6.835937-56.664062-4.121094.863281-8.347656 1.429687-12.667969 1.632812-17.960937.847657-34.707031-4.152343-48.519531-13.246093.007813-.011719.011719-.023438.011719-.023438-.011719.019531-.027344.050781-.042969.082031l-18.429687 32.347657c-2.011719 3.535156-7.109376 3.535156-9.125 0l-18.085938-31.753907c-.128906-.21875-.234375-.445312-.351562-.667969v.003907c-13.816407 9.101562-30.570313 14.105469-48.539063 13.257812-11.777344-.558593-22.917969-3.667969-32.886719-8.789062-.667968 7.808593-3.460937 21.597656-7.800781 27.609375 52.4375-10.078125 103.039063 22.511718 115.019531 73.710937zm0 0" fill="#e5a876"/><path d="m459.480469 42.484375c-1.652344 1.019531-3.445313 2-5.402344 2.921875-34.089844 16.085938-42.664063 41.164062-94.785156 53.554688-13.347657 3.171874-26.183594-6.863282-26.183594-20.582032 0 13.71875-12.839844 23.753906-26.1875 20.582032-52.121094-12.390626-60.695313-37.46875-94.785156-53.554688-2.027344-.957031-3.886719-1.96875-5.585938-3.035156-14.570312 15.289062-23.246093 38.882812-22.359375 61.867187 1.609375 41.796875 35.449219 75.953125 77.230469 77.921875 17.96875.847656 34.722656-4.152344 48.539063-13.253906-9.453126-17.691406 3.179687-39.773438 23.402343-39.484375 20.046875.285156 32.546875 21.984375 22.621094 39.496094 13.8125 9.09375 30.558594 14.089843 48.519531 13.242187 41.785156-1.96875 75.621094-36.125 77.234375-77.921875.882813-22.929687-7.75-46.472656-22.257812-61.753906zm0 0" fill="#f7c696"/><path d="m434.539062 58.425781c-20.164062 14.617188-34.25 31.722657-73.664062 41.457031 1.058594 25.238282 21.847656 45.382813 47.351562 45.382813 26.179688 0 47.402344-21.226563 47.402344-47.40625 0-16.445313-8.375-30.929687-21.089844-39.433594zm0 0" fill="#95d6fc"/><path d="m360.875 99.882812c1.058594 25.238282 21.847656 45.382813 47.351562 45.382813 14.292969 0 27.101563-6.335937 35.792969-16.34375-1.566406.359375-3.1875.566406-4.859375.566406-11.945312 0-21.625-9.679687-21.625-21.625l-25.507812-19.308593c-8.472656 4.316406-18.503906 8.203124-31.152344 11.328124zm0 0" fill="#5bbbf4"/><path d="m305.054688 99.808594c-39.285157-9.765625-53.324219-26.878906-73.511719-41.480469-12.800781 8.488281-21.246094 23.019531-21.246094 39.53125 0 26.179687 21.222656 47.402344 47.402344 47.402344 25.527343 0 46.332031-20.179688 47.355469-45.453125zm0 0" fill="#95d6fc"/><path d="m265.949219 118.269531-.09375-.03125 9.46875-29.113281c-18.660157-9.269531-29.738281-20.640625-43.78125-30.796875-12.800781 8.488281-21.246094 23.019531-21.246094 39.53125 0 26.671875 22.046875 48.273437 49.027344 47.363281-3.636719-9.324218-1.1875-20.128906 6.625-26.953125zm0 0" fill="#5bbbf4"/><path d="m239.214844 192.964844c-39.410156 0-73.5625 22.40625-90.488282 55.15625l-.023437-.007813-95.894531 171.945313c30.148437 37.890625 71.355468 66.585937 118.75 81.1875 84.726562-55.382813 161.945312-124.652344 168.945312-196.003906 6.136719-60.585938-41.363281-112.277344-101.289062-112.277344zm0 0" fill="#b2622d"/><path d="m213.546875 196.242188c-28.238281 7.339843-51.703125 26.5-64.820313 51.878906l-.023437-.007813-95.894531 171.945313c24.863281 31.246094 57.242187 56.234375 94.414062 72.226562 65.824219-53.804687 123.582032-119.492187 129.085938-187.042968 4.339844-51.605469-23.628906-96.75-62.761719-109zm0 0" fill="#c16f38"/><path d="m148.726562 248.121094-.023437-.003906-95.894531 171.941406c18.957031 23.824218 42.28125 44.015625 68.769531 59.347656 47.230469-51.242188 86.648437-111.910156 90.691406-174.164062 2.640625-39.375-9.714843-74.984376-29.574219-95.097657-14.285156 9.5625-26.03125 22.617188-33.96875 37.976563zm0 0" fill="#b2622d"/><path d="m52.808594 420.058594c11.953125 15.019531 25.636718 28.597656 40.757812 40.421875 29.679688-46.964844 52.898438-100.484375 55.566406-155.238281.914063-18.160157-.566406-35.515626-3.890624-50.921876zm0 0" fill="#c16f38"/><path d="m421.730469 93.621094c0-7.425782-3.273438-14.066406-8.4375-18.617188-10.570313 8.027344-22.675781 15.734375-41.007813 21.652344 1.503906 12.277344 11.941406 21.789062 24.621094 21.789062 13.710938 0 24.824219-11.117187 24.824219-24.824218zm0 0" fill="#603256"/><path d="m293.65625 96.570312c-18.273438-5.9375-30.335938-13.65625-40.890625-21.683593-5.242187 4.550781-8.570313 11.246093-8.570313 18.730469 0 13.710937 11.113282 24.828124 24.824219 24.828124 12.710938 0 23.171875-9.558593 24.636719-21.875zm0 0" fill="#603256"/><path d="m262.230469 110.25c-2.296875-9.097656.75-18.289062 7.164062-24.261719-6.222656-3.527343-11.601562-7.277343-16.628906-11.101562-5.242187 4.550781-8.570313 11.246093-8.570313 18.730469 0 12.640624 9.445313 23.0625 21.660157 24.617187-1.628907-2.359375-2.882813-5.039063-3.625-7.984375zm0 0" fill="#4f2649"/><path d="m333.363281 129.421875c-20.476562-.292969-33.1875 22.355469-23.050781 40.148437l18.089844 31.753907c2.011718 3.535156 7.109375 3.535156 9.121094 0l18.429687-32.347657c9.984375-17.523437-2.523437-39.269531-22.589844-39.554687zm0 0" fill="#ffcb37"/><path d="m331.175781 166.300781c-.929687-14.078125 7.90625-25.738281 19.585938-30.03125-4.503907-4.121093-10.507813-6.75-17.398438-6.851562-20.476562-.289063-33.1875 22.359375-23.050781 40.152343l18.089844 31.75c1.136718 2 3.257812 2.867188 5.253906 2.605469zm0 0" fill="#fcac1f"/><path d="m239.214844 192.964844c-8.863282 0-17.453125 1.152344-25.648438 3.285156 39.121094 12.257812 67.082032 57.394531 62.738282 108.988281-.792969 9.773438-2.699219 19.503907-5.550782 29.167969l.011719.007812c25.289063 14.519532 52.085937-5.105468 68.785156-22.085937.382813-2.363281.71875-4.722656.949219-7.089844 6.140625-60.582031-41.359375-112.273437-101.285156-112.273437zm0 0" fill="#c16f38"/><path d="m182.695312 210.171875c.003907-.003906.007813-.007813.015626-.011719l-.011719-.011718zm0 0" fill="#ce7f49"/><path d="m213.546875 196.242188c-11.148437 2.898437-21.523437 7.675781-30.835937 13.917968 19.847656 20.117188 32.199218 55.714844 29.558593 95.082032-1.195312 18.425781-5.503906 36.710937-12.183593 54.65625 40.140624 17.101562 70.667968-25.484376 70.667968-25.484376l.003906-.007812 2.6875-10.449219c1.371094-6.21875 2.351563-12.457031 2.863282-18.714843 4.339844-51.605469-23.628906-96.75-62.761719-109zm0 0" fill="#ce7f49"/><path d="m182.695312 210.144531c-14.285156 9.5625-26.03125 22.617188-33.96875 37.976563l-.023437-.003906-3.460937 6.203124c3.324218 15.40625 4.804687 32.761719 3.890624 50.921876-1.230468 25.242187-6.839843 50.222656-15.425781 74.425781 33.789063 10.625 66.378907-19.769531 66.378907-19.769531 6.679687-17.945313 10.988281-36.230469 12.183593-54.65625 2.640625-39.375-9.714843-74.984376-29.574219-95.097657zm0 0" fill="#c16f38"/><path d="m145.242188 254.320312-80.425782 144.210938c43.609375 10.902344 68.878906-18.851562 68.890625-18.867188 8.585938-24.199218 14.195313-49.179687 15.425781-74.421874.914063-18.160157-.570312-35.515626-3.890624-50.921876zm0 0" fill="#ce7f49"/><path d="m333.105469 81.015625c0-6.113281-2.644531-11.910156-7.238281-15.945313-14.585938-12.808593-50.808594-39.085937-104.925782-41.863281-9.839844-.503906-18.863281-6.246093-22.949218-15.210937-.066407-.148438-.132813-.292969-.195313-.441406-1.503906-3.460938-6.597656-2.960938-7.257813.753906-2.289062 12.878906-.007812 29.542968 21.597657 39.738281 34.089843 16.082031 42.664062 41.164063 94.785156 53.550781 13.347656 3.171875 26.183594-6.863281 26.183594-20.582031zm0 0" fill="#b2622d"/><path d="m412.753906 108.125c-9.429687 0-17.078125-7.648438-17.078125-17.082031 0-1.667969.25-3.277344.695313-4.804688-6.796875 3.816407-14.605469 7.359375-24.085938 10.417969 1.5 12.277344 11.941406 21.789062 24.621094 21.789062 8.597656 0 16.171875-4.371093 20.625-11.011718-1.515625.441406-3.117188.691406-4.777344.691406zm0 0" fill="#4f2649"/><path d="m333.105469 81.015625c0-6.113281 2.648437-11.910156 7.242187-15.945313 14.585938-12.808593 50.808594-39.085937 104.925782-41.863281 9.839843-.503906 18.863281-6.246093 22.949218-15.210937.066406-.148438.132813-.292969.195313-.441406 1.503906-3.460938 6.597656-2.960938 7.257812.753906 2.289063 12.878906.007813 29.542968-21.597656 39.738281-34.089844 16.082031-42.664063 41.164063-94.785156 53.550781-13.347657 3.171875-26.1875-6.863281-26.1875-20.582031zm0 0" fill="#c16f38"/><path d="m412.167969 75.847656c-13.335938 0-24.148438-10.8125-24.148438-24.148437 0-7.972657 3.867188-15.039063 9.828125-19.4375-28.15625 9.554687-47.707031 24.210937-57.5 32.808593-4.59375 4.035157-7.238281 9.832032-7.238281 15.945313 0 13.71875 12.835937 23.753906 26.183594 20.582031 26.449219-6.285156 41.683593-15.839844 54.726562-25.828125-.609375.046875-1.226562.078125-1.851562.078125zm0 0" fill="#b2622d"/><path d="m292.957031 42.757812c-18.269531-9.507812-42.46875-18.03125-72.015625-19.550781-9.839844-.503906-18.863281-6.246093-22.949218-15.210937-.066407-.148438-.132813-.292969-.195313-.441406-1.503906-3.460938-6.597656-2.960938-7.257813.753906-2.289062 12.878906-.007812 29.542968 21.597657 39.738281 22.941406 10.824219 34.328125 25.71875 55.203125 38.082031-15.191406-19.058594 1.011718-47.527344 25.617187-43.371094zm0 0" fill="#a35224"/></svg>