<svg height="511pt" viewBox="0 -15 511.99997 511" width="511pt" xmlns="http://www.w3.org/2000/svg"><path d="m496.675781 241.191406c0 132.929688-107.761719 240.691406-240.691406 240.691406s-240.691406-107.761718-240.691406-240.691406c0-132.929687 107.761719-240.691406 240.691406-240.691406s240.691406 107.761719 240.691406 240.691406zm0 0" fill="#603256"/><path d="m496.675781 241.191406c0 132.929688-107.761719 240.691406-240.691406 240.691406s-240.691406-107.761718-240.691406-240.691406c0-132.929687 107.761719-240.691406 240.691406-240.691406s240.691406 107.761719 240.691406 240.691406zm0 0" fill="#603256"/><path d="m281.257812 458.429688c-68.589843-2.367188-113.582031-25.53125-139.246093-44.542969-27.605469-20.449219-39.46875-40.652344-39.769531-41.171875-.039063-.070313-.082032-.144532-.125-.214844-16.425782-30.816406-25.238282-65.359375-25.402344-101.050781-.359375-79.082031 42.363281-152.167969 111.492187-190.742188 4.78125-2.664062 6.496094-8.707031 3.828125-13.488281-2.667968-4.78125-8.707031-6.492188-13.488281-3.824219-75.433594 42.089844-122.050781 121.84375-121.660156 208.144531.277343 60.523438 23.351562 118.035157 64.976562 161.933594 7.238281 7.636719 14.921875 14.71875 22.984375 21.253906 33.246094 17.339844 71.042969 27.15625 111.136719 27.15625 16.46875 0 32.546875-1.660156 48.085937-4.8125-2.460937-10.4375-11.613281-18.253906-22.8125-18.640624zm0 0" fill="#55b160"/><path d="m102.242188 372.714844c-.039063-.070313-.082032-.144532-.125-.214844-16.425782-30.816406-25.238282-65.359375-25.402344-101.050781-.359375-79.082031 42.363281-152.167969 111.492187-190.742188 4.78125-2.664062 6.496094-8.707031 3.828125-13.488281-2.667968-4.78125-8.707031-6.492188-13.488281-3.824219-75.433594 42.089844-122.050781 121.84375-121.660156 208.144531.277343 60.523438 23.351562 118.035157 64.976562 161.933594 7.234375 7.632813 14.910157 14.71875 22.96875 21.246094 9.324219 4.863281 19 9.136719 28.992188 12.765625-.878907-13.097656 8.949219-24.085937 21.574219-25.136719-22.960938-8.457031-40.578126-18.976562-53.386719-28.460937-27.605469-20.449219-39.46875-40.652344-39.769531-41.171875zm0 0" fill="#49a552"/><path d="m94.292969 72.035156c-1.796875-.585937-3.746094-.003906-4.933594 1.464844-17.148437 21.230469-7.765625 53.046875 18.265625 61.5 1.796875.585938 3.746094.003906 4.933594-1.464844 17.148437-21.230468 7.765625-53.046875-18.265625-61.5zm0 0" fill="#69d173"/><path d="m175.035156 149.195312c.644532 1.777344.125 3.75-1.304687 4.980469-20.671875 17.816407-52.773438 9.457031-62.054688-16.289062-.640625-1.777344-.125-3.746094 1.308594-4.980469 20.667969-17.816406 52.769531-9.453125 62.050781 16.289062zm0 0" fill="#7cdd83"/><path d="m151.546875 198.882812c1.222656 1.78125 1.21875 4.109376-.007813 5.886719-17.722656 25.6875-55.65625 25.710938-73.363281-.089843-1.222656-1.78125-1.21875-4.109376.007813-5.886719 17.722656-25.6875 55.652344-25.710938 73.363281.089843zm0 0" fill="#7cdd83"/><path d="m79.203125 197.625c-.769531 2.019531-2.683594 3.34375-4.847656 3.347656-31.203125.058594-52.828125-31.105468-41.703125-60.355468.769531-2.019532 2.683594-3.34375 4.847656-3.347657 31.203125-.058593 52.828125 31.105469 41.703125 60.355469zm0 0" fill="#69d173"/><path d="m142.429688 254.683594c1.847656 1.425781 2.617187 3.816406 1.945312 6.050781-9.675781 32.246094-48.609375 44.851563-75.347656 24.234375-1.84375-1.421875-2.613282-3.8125-1.945313-6.046875 9.675781-32.246094 48.609375-44.855469 75.347657-24.238281zm0 0" fill="#7cdd83"/><path d="m66.761719 279.375c-.121094 2.328125-1.648438 4.324219-3.863281 5.042969-32.019532 10.410156-64.554688-14.414063-62.8320318-48.132813.1171878-2.328125 1.6445318-4.324218 3.8632818-5.042968 32.015624-10.410157 64.550781 14.414062 62.832031 48.132812zm0 0" fill="#69d173"/><path d="m154.808594 314.675781c2.277344.910157 3.75 3.109375 3.714844 5.5625-.476563 35.449219-36.257813 59.46875-69.289063 46.320313-2.28125-.90625-3.75-3.105469-3.71875-5.558594.476563-35.449219 36.257813-59.46875 69.292969-46.324219zm0 0" fill="#7cdd83"/><path d="m118.023438 314.414062c-19.679688 7.535157-32.230469 26.070313-32.503907 46.585938-.035156 2.453125 1.433594 4.652344 3.714844 5.558594 17.585937 7 37.582031 3.714844 52.035156-8.902344-23.441406 6.390625-42.976562-25.65625-23.246093-43.242188zm0 0" fill="#69d173"/><path d="m85.320312 361.550781c.550782 2.390625-.417968 4.851563-2.453124 6.222657-29.410157 19.796874-69.53125 4.0625-77.535157-30.578126-.554687-2.390624.417969-4.851562 2.453125-6.222656 29.410156-19.796875 69.53125-4.0625 77.535156 30.578125zm0 0" fill="#69d173"/><path d="m194.902344 348.769531c2.765625-.457031 5.5.828125 6.914062 3.25 20.417969 34.96875-.433594 79.554688-40.511718 86.152344-2.765626.457031-5.5-.828125-6.914063-3.25-20.421875-34.96875.441406-79.554687 40.511719-86.152344zm0 0" fill="#7cdd83"/><path d="m161.042969 367.429688c-16.832031 18.976562-19.125 46.132812-6.652344 67.492187 1.414063 2.421875 4.148437 3.707031 6.914063 3.25 19.996093-3.289063 37.464843-16.894531 44.902343-37.125-20.40625 17.625-57.6875-4.03125-45.164062-33.617187zm0 0" fill="#69d173"/><path d="m100.621094 425.011719c13.53125 11.445312 28.335937 21.421875 44.179687 29.691406 1.414063-2.480469 2.667969-5.054687 3.707031-7.722656 1.015626-2.613281.324219-5.554688-1.753906-7.4375-12.207031-11.058594-28.9375-16.746094-46.132812-14.53125zm0 0" fill="#69d173"/><path d="m111.101562 244.710938c-20.640624.859374-38.152343 14.65625-44.019531 34.210937-.667969 2.234375.101563 4.625 1.945313 6.046875 14.332031 11.050781 34.003906 13.445312 51.058594 4.820312-23.449219-2.292968-29.90625-33.839843-8.984376-45.078124zm0 0" fill="#69d173"/><path d="m105.730469 202.175781c0-11.058593 8.265625-20.179687 18.957031-21.535156-18.09375-4.09375-36.289062 3.347656-46.503906 18.152344-1.226563 1.777343-1.230469 4.105469-.007813 5.886719 9.8125 14.296874 27.011719 21.742187 44.46875 18.667968-9.679687-2.183594-16.914062-10.832031-16.914062-21.171875zm0 0" fill="#69d173"/><path d="m151.859375 125.855469c-13.808594-5.070313-28.488281-1.902344-38.875 7.050781-1.433594 1.234375-1.949219 3.203125-1.308594 4.980469 4.945313 13.722656 17.300781 24.015625 32.8125 25.554687-16.328125-9.804687-11.398437-34.726562 7.371094-37.585937zm0 0" fill="#69d173"/><g fill="#55b160"><path d="m61.359375 329.132812c-17.183594-9.914062-37.8125-8.769531-53.574219 1.839844-2.035156 1.371094-3.007812 3.832032-2.453125 6.222656 4.554688 19.710938 20.367188 35.019532 40.820313 38.503907-14.222656-16.117188-6.058594-41.902344 15.207031-46.566407zm0 0"/><path d="m55.625 246.074219c-12.863281-15.347657-33.316406-20.808594-51.695312-14.835938-2.21875.722657-3.746094 2.714844-3.8632818 5.042969-1.0312502 20.152344 10.5156248 38.585938 28.8359378 46.542969-12.773438-18.476563 4.839844-43.28125 26.722656-36.75zm0 0"/><path d="m77.878906 162.828125c-7.566406-16.046875-23.421875-25.589844-40.378906-25.558594-2.160156.003907-4.078125 1.328125-4.847656 3.347657-6.3125 16.597656-2.226563 35.222656 10.429687 47.648437-3.363281-19.871094 17.472657-34.410156 34.796875-25.4375zm0 0"/><path d="m120.386719 101.078125c-2.980469-14.167969-13.207031-24.859375-26.089844-29.042969-1.796875-.585937-3.75-.003906-4.9375 1.464844-9.339844 11.566406-11.515625 27.640625-4.683594 41.609375 2.902344-16.542969 22.378907-24.125 35.710938-14.03125zm0 0"/><path d="m333.453125 62.316406c-4.78125-2.667968-10.820313-.953125-13.488281 3.828125-2.667969 4.78125-.953125 10.820313 3.828125 13.488281 69.128906 38.570313 111.851562 111.660157 111.492187 190.738282-.164062 35.691406-8.976562 70.238281-25.402344 101.050781-.042968.070313-.085937.144531-.125.214844-.300781.519531-12.164062 20.722656-39.769531 41.171875-25.664062 19.015625-70.65625 42.175781-139.246093 44.546875-11.566407.398437-20.953126 8.722656-23.035157 19.679687 15.597657 3.175782 31.742188 4.847656 48.277344 4.847656 38.613281 0 75.09375-9.109374 107.4375-25.269531 9.429687-7.335937 18.371094-15.410156 26.714844-24.214843 41.625-43.898438 64.699219-101.410157 64.976562-161.933594.390625-86.300782-46.222656-166.054688-121.660156-208.148438zm0 0"/></g><path d="m390.203125 395.484375c-5.472656 5.433594-12.171875 11.367187-20.214844 17.324219-25.664062 19.015625-70.65625 42.175781-139.246093 44.546875-11.566407.398437-20.953126 8.722656-23.035157 19.683593 15.597657 3.175782 31.742188 4.84375 48.277344 4.84375 38.613281 0 75.09375-9.105468 107.4375-25.269531 9.429687-7.335937 18.371094-15.410156 26.714844-24.214843 6.746093-7.113282 12.992187-14.585938 18.746093-22.371094-9.695312 4.410156-20.605468-3.808594-18.679687-14.542969zm0 0" fill="#49a552"/><path d="m417.707031 70.957031c1.796875-.585937 3.75-.003906 4.9375 1.464844 17.144531 21.230469 7.761719 53.046875-18.265625 61.5-1.796875.585937-3.75.003906-4.9375-1.464844-17.148437-21.230469-7.765625-53.046875 18.265625-61.5zm0 0" fill="#7cdd83"/><path d="m336.964844 148.121094c-.640625 1.777344-.125 3.746094 1.304687 4.980468 20.671875 17.8125 52.773438 9.453126 62.054688-16.292968.640625-1.777344.125-3.746094-1.308594-4.980469-20.667969-17.8125-52.769531-9.453125-62.050781 16.292969zm0 0" fill="#69d173"/><path d="m360.453125 197.804688c-1.222656 1.78125-1.21875 4.109374.007813 5.886718 17.722656 25.6875 55.65625 25.714844 73.363281-.089844 1.222656-1.78125 1.21875-4.109374-.007813-5.886718-17.71875-25.683594-55.652344-25.710938-73.363281.089844zm0 0" fill="#69d173"/><path d="m432.800781 196.550781c.765625 2.019531 2.683594 3.339844 4.84375 3.347657 31.203125.058593 52.828125-31.109376 41.703125-60.359376-.769531-2.019531-2.683594-3.34375-4.84375-3.347656-31.207031-.058594-52.832031 31.109375-41.703125 60.359375zm0 0" fill="#7cdd83"/><path d="m369.570312 253.609375c-1.84375 1.421875-2.613281 3.8125-1.945312 6.046875 9.675781 32.246094 48.609375 44.855469 75.347656 24.234375 1.847656-1.421875 2.617188-3.8125 1.945313-6.046875-9.675781-32.246094-48.609375-44.851562-75.347657-24.234375zm0 0" fill="#69d173"/><path d="m445.242188 278.296875c.117187 2.328125 1.644531 4.324219 3.863281 5.042969 32.015625 10.410156 64.550781-14.414063 62.828125-48.132813-.117188-2.328125-1.644532-4.324219-3.863282-5.042969-32.015624-10.410156-64.550781 14.414063-62.828124 48.132813zm0 0" fill="#7cdd83"/><path d="m357.191406 313.597656c-2.277344.910156-3.75 3.109375-3.714844 5.5625.476563 35.449219 36.257813 59.472656 69.289063 46.320313 2.28125-.90625 3.75-3.105469 3.71875-5.558594-.476563-35.449219-36.257813-59.46875-69.292969-46.324219zm0 0" fill="#69d173"/><path d="m426.679688 360.472656c-.550782 2.390625.417968 4.855469 2.453124 6.226563 29.410157 19.792969 69.53125 4.066406 77.535157-30.582031.554687-2.390626-.417969-4.851563-2.453125-6.222657-29.410156-19.796875-69.53125-4.0625-77.535156 30.578125zm0 0" fill="#7cdd83"/><path d="m317.101562 347.691406c-2.765624-.457031-5.5.828125-6.914062 3.25-20.417969 34.96875.433594 79.558594 40.507812 86.15625 2.769532.453125 5.503907-.832031 6.917969-3.253906 20.417969-34.96875-.441406-79.554688-40.511719-86.152344zm0 0" fill="#69d173"/><path d="m365.246094 438.464844c-2.078125 1.882812-2.769532 4.824218-1.753906 7.4375 1.152343 2.960937 2.558593 5.8125 4.171874 8.535156 16.085938-8.441406 31.097657-18.640625 44.78125-30.359375-17.566406-2.59375-34.742187 3.097656-47.199218 14.386719zm0 0" fill="#69d173"/><path d="m315.441406 411.753906c0-24.863281 29.1875-38.230468 48.03125-22.34375-6.09375-22.148437-24.359375-38.09375-46.371094-41.71875-2.765624-.457031-5.5.828125-6.914062 3.25-12.425781 21.277344-10.042969 47.847656 5.820312 66.542969-.371093-1.855469-.566406-3.769531-.566406-5.730469zm0 0" fill="#55b160"/><path d="m408.945312 322.261719c-14.425781-12.410157-34.269531-15.621094-51.753906-8.660157-2.277344.90625-3.75 3.105469-3.714844 5.558594.289063 21.554688 14.039063 40.292969 34.160157 47.195313-13.066407-17.679688-1.101563-43.320313 21.308593-44.09375zm0 0" fill="#55b160"/><path d="m419.59375 248.269531c-16.75-7.96875-35.925781-5.53125-50.023438 5.335938-1.847656 1.425781-2.617187 3.816406-1.945312 6.050781 6.238281 20.785156 25.566406 34.863281 47.378906 34.226562-20.46875-9.980468-17.261718-39.996093 4.589844-45.613281zm0 0" fill="#55b160"/><path d="m406.339844 179.414062c-18.125-3.804687-35.933594 3.890626-45.886719 18.390626-1.222656 1.78125-1.21875 4.109374.007813 5.890624 10.90625 15.804688 30.578124 22.859376 49.074218 17.484376-20.152344-5.472657-22.25-33.277344-3.195312-41.765626zm0 0" fill="#55b160"/><path d="m382.011719 157.203125c-18.445313 0-26.375-23.644531-11.449219-34.714844-15.714844 1.238281-28.523438 11.558594-33.597656 25.632813-.640625 1.777344-.125 3.746094 1.304687 4.980468 12.554688 10.816407 30.671875 12.65625 45.261719 4.023438-.5.039062-1.003906.078125-1.519531.078125zm0 0" fill="#55b160"/><path d="m470.933594 321.511719c-21.632813 2.160156-39.355469 17.769531-44.253906 38.960937-.550782 2.390625.417968 4.855469 2.453124 6.226563 16.023438 10.78125 36.933594 11.722656 54.121094 1.515625-20.871094-5.378906-27.871094-31.65625-12.320312-46.703125zm0 0" fill="#69d173"/><path d="m475.296875 231.257812c-19.089844 7.671876-31.105469 26.503907-30.054687 47.039063.117187 2.328125 1.644531 4.324219 3.863281 5.046875 17.648437 5.738281 37.445312.964844 50.5-13.441406-22.304688 4.445312-37.578125-21.0625-24.308594-38.644532zm0 0" fill="#69d173"/><path d="m444.246094 147.957031c-13.644532 12.574219-17.839844 31.78125-11.445313 48.59375.765625 2.019531 2.683594 3.339844 4.84375 3.347657 16.957031.03125 32.875-9.523438 40.4375-25.675782-17.765625 13.222656-42.449219-5.253906-33.835937-26.265625zm0 0" fill="#69d173"/><path d="m397.554688 86.011719c-9.566407 13.992187-9.089844 32.855469 1.886718 46.445312 1.1875 1.472657 3.136719 2.050781 4.933594 1.46875 13.804688-4.484375 24.234375-16.296875 26.496094-31.257812-12.941406 14.765625-37.394532 2.730469-33.316406-16.65625zm0 0" fill="#69d173"/></svg>