<svg height="512pt" viewBox="-14 0 512 512.00002" width="512pt" xmlns="http://www.w3.org/2000/svg"><path d="m483.808594 284.191406c0 125.816406-101.996094 227.808594-227.808594 227.808594-125.816406 0-227.808594-101.992188-227.808594-227.808594s101.992188-227.808594 227.808594-227.808594c125.8125 0 227.808594 101.992188 227.808594 227.808594zm0 0" fill="#ff941f"/><path d="m474.226562 340.46875c-4.671874-18.375-11.992187-31.222656-23.042968-40.433594-14.160156-11.796875-34.363282-17.53125-61.761719-17.53125-19.59375 0-34.152344 5.457032-48.230469 10.730469-21.734375 8.148437-40.972656 15.359375-73.441406.722656-12.089844-5.449219-19.84375-17.519531-19.84375-30.78125v-61.675781l28.207031-20.171875c5.132813-3.667969 6.621094-10.726563 3.257813-16.0625-15.417969-24.46875-41.402344-34.511719-52.964844-37.921875-3.234375-.953125-6.765625-.410156-9.453125 1.625-4.789063 3.625-11.023437 6.710938-17.820313 9.316406 3.609376 26.097656 15.308594 41.722656 25.882813 50.738282v.011718l-11.355469 38.917969c-3.238281 11.101563-11.917968 19.785156-23.015625 23.03125v19.15625c0 4.9375-2.648437 9.25-6.589843 11.621094l.882812 20.769531c.304688 6.773438-4.777344 12.582031-11.53125 13.175781l-20.746094 1.824219c-.414062 7.238281-1.835937 14.550781-3.34375 22.222656-4.804687 24.488282-10.253906 52.242188 13.554688 93.273438 5.914062 10.1875 10.175781 21.078125 12.679687 32.410156l8.730469 26.734375c.625 2.832031.957031 5.722656 1.023438 8.625 9.984374 3.257813 20.269531 5.855469 30.808593 7.714844l.0625-9.363281c0-4.558594 1.265625-7.476563 1.65625-9.113282l14.6875-51.089844c.945313-3.40625 4.746094-5.503906 8.402344-3.835937 16.917969 7.710937 62.359375 23 120.378906-.671875 2.960938-1.207031 6.644531.207031 7.667969 3.902344 3.3125 11.941406 8.789062 23.445312 16.183594 33.515625 43.230468-29.808594 75.65625-74.160157 90.199218-125.996094-.289062-1.746094-.652343-3.539063-1.125-5.390625zm0 0" fill="#f2ba88"/><path d="m370.261719 438.339844c-1.011719-3.648438-4.667969-5.121094-7.667969-3.898438 0 0-1.699219 21 8.53125 46.351563 5.09375-2.984375 10.054688-6.164063 14.882812-9.527344-7.171874-9.917969-12.496093-21.199219-15.746093-32.925781zm0 0" fill="#93451d"/><path d="m185.773438 492.175781-8.730469-26.738281c-4.925781-22.285156-12.546875-30.546875-19.410157-45.289062 4.089844 18.90625 10.742188 28.175781 11.34375 52.285156l2.910157 23.527344c4.894531 1.945312 9.871093 3.71875 14.925781 5.328124-.03125-1.824218-.179688-5.210937-1.039062-9.113281zm0 0" fill="#93451d"/><path d="m171.558594 130.179688c.941406-5.769532 2.152344-7.339844 13.527344-39.894532 1.238281-3.496094-.476563-7.34375-3.910157-8.753906l-10.714843-4.40625c-4.855469-2-7.464844 1.769531-19.910157 7.410156-.855469.4375-1.617187.984375-2.324219 1.582032-9.046874 24.75 2.480469 53.210937 21.1875 57.238281zm0 0" fill="#f2ba88"/><path d="m149.542969 277.601562-3.992188-33.722656s-1.53125-3.609375-3.363281-9.695312l-31.265625 11.085937c.414063 6.25.628906 12.648438.628906 19.164063 0 9.296875-.441406 18.359375-1.273437 27.089844zm0 0" fill="#f2ba88"/><path d="m127.542969 245.109375c.011719.027344.019531.050781.027343.078125.328126.835938.542969 1.703125.648438 2.59375l3.394531 28.667969c.375 3.183593-.703125 6.257812-2.769531 8.488281l20.699219-7.335938-3.992188-33.722656s-1.53125-3.609375-3.363281-9.695312l-18.027344 6.390625c1.46875 1.144531 2.660156 2.679687 3.382813 4.535156zm0 0" fill="#e5a876"/><path d="m256.953125 106.964844c-2.71875-7.648438-5.574219-20-5.570313-38.125.015626-38.027344-30.875-68.839844-68.902343-68.839844h-59.917969c-3.660156 0-5.71875 4.207031-3.476562 7.097656l35.4375 45.6875c7.203124-5.585937 16.242187-8.921875 26.066406-8.921875 23.515625 0 42.578125 19.066407 42.578125 42.582031 0 4.734376.609375 9.683594 1.570312 14.574219l26.429688 11.378907c3.480469 1.496093 7.054687-1.867188 5.785156-5.433594zm0 0" fill="#ff5252"/><path d="m204.273438 48.089844c0-4.417969 3.460937-8.023438 7.820312-8.269532-.777344-1.882812-1.210938-3.941406-1.210938-6.105468 0-8.847656 7.171876-16.015625 16.015626-16.015625.617187 0 1.222656.042969 1.824218.109375-12.234375-11.066406-28.457031-17.808594-46.242187-17.808594h-59.917969c-3.660156 0-5.71875 4.207031-3.476562 7.097656l35.4375 45.6875c7.203124-5.585937 16.242187-8.921875 26.066406-8.921875 9.113281 0 17.554687 2.875 24.480468 7.753907-.503906-1.070313-.796874-2.265626-.796874-3.527344zm0 0" fill="#e53535"/><path d="m237.078125 88.023438c0-32.605469-26.429687-59.035157-59.035156-59.035157-12.554688 0-24.183594 3.929688-33.75 10.609375l10.230469 13.1875c7.203124-5.585937 16.242187-8.921875 26.066406-8.921875 23.515625 0 42.578125 19.066407 42.578125 42.582031 0 4.734376.609375 9.683594 1.570312 14.574219l14.304688 6.160157c-1.210938-6.4375-1.964844-12.933594-1.964844-19.15625zm0 0" fill="#7c5577"/><path d="m205.070312 51.617188c-.503906-1.070313-.792968-2.265626-.792968-3.527344 0-4.417969 3.460937-8.023438 7.820312-8.269532-.003906-.003906-.003906-.007812-.007812-.011718-9.621094-6.808594-21.363282-10.824219-34.046875-10.824219-12.550781 0-24.183594 3.929687-33.75 10.613281l10.230469 13.1875c7.203124-5.585937 16.242187-8.921875 26.066406-8.921875 8.480468 0 17.09375 2.550781 24.480468 7.753907zm0 0" fill="#603256"/><path d="m148.855469 111.921875-1.078125-16.058594c-.222656-3.304687 1.550781-6.425781 4.503906-7.925781l14.113281-7.179688c.816407-.414062 1.769531-.453124 2.613281-.105468l10.71875 4.40625c1.546876.636718 2.324219 2.375 1.765626 3.949218-11.640626 33.367188-12.679688 34.3125-13.695313 40.558594l-3.359375 20.628906c11.574219-2.195312 26.359375-5.710937 38.597656-10.945312-.152344.066406-.296875.132812-.449218.195312 5.40625-2.28125 10.339843-4.890624 14.289062-7.867187 2.722656-2.050781 6.253906-2.652344 9.523438-1.6875 1.835937.539063 4.042968 1.25 6.511718 2.160156.726563-1.75.824219-3.785156.019532-5.765625-4.269532-10.507812-9.757813-26.804687-9.757813-41.109375 0-23.515625-19.066406-42.582031-42.582031-42.582031s-42.578125 19.066406-42.578125 42.582031l-5.269531 38.941407c-.191407 1.414062 1.375 2.394531 2.5625 1.605468l10.050781-6.695312c2.355469-1.570313 3.691406-4.28125 3.5-7.105469zm0 0" fill="#ebeaec"/><path d="m474.226562 340.46875c-4.671874-18.375-11.992187-31.222656-23.042968-40.433594-14.160156-11.796875-34.363282-17.53125-61.761719-17.53125-19.59375 0-34.152344 5.457032-48.230469 10.734375-21.121094 7.917969-39.886718 14.953125-70.726562 1.90625-5.742188-2.429687-9.804688-6.996093-11.824219-12.316406-3.390625 3.082031-15.832031 14.941406-22.496094 28.730469-.792969 1.644531-3.179687 1.488281-3.742187-.25l-3.171875-9.78125c-.390625-1.210938-1.78125-1.765625-2.894531-1.15625-5.429688 2.960937-19.824219 11.648437-28.214844 24.554687-1.035156 1.597657-3.5 1.015625-3.703125-.882812l-1.632813-15.238281c-.144531-1.34375-1.53125-2.175782-2.78125-1.660157-6.421875 2.652344-24.140625 11.453125-40.789062 33.148438-4.78125 24.355469-9.976563 52.003906 13.660156 92.738281 5.910156 10.1875 10.171875 21.074219 12.675781 32.40625l8.730469 26.738281c.625 2.828125.957031 5.722657 1.023438 8.625 9.984374 3.257813 20.269531 5.851563 30.808593 7.714844l.0625-9.367187c0-4.554688 1.269531-7.472657 1.65625-9.109376l14.6875-51.089843c.945313-3.410157 4.746094-5.503907 8.40625-3.835938 16.914063 7.710938 62.355469 22.996094 120.378907-.671875 2.957031-1.207031 6.640624.207032 7.664062 3.902344 3.3125 11.941406 8.789062 23.445312 16.183594 33.515625 43.230468-29.808594 75.65625-74.160156 90.203125-125.996094-.289063-1.75-.65625-3.542969-1.128907-5.394531zm0 0" fill="#b2622d"/><path d="m283.085938 361.199219c0-23.503907 10.222656-44.617188 26.453124-59.15625-11.203124 1.132812-23.625-.363281-39.074218-6.898438-5.742188-2.429687-9.804688-6.996093-11.824219-12.320312-3.390625 3.085937-15.832031 14.945312-22.496094 28.734375-.792969 1.644531-3.179687 1.488281-3.742187-.25l-3.171875-9.785156c-.390625-1.207032-1.78125-1.761719-2.894531-1.152344-5.429688 2.960937-19.824219 11.644531-28.214844 24.554687-1.035156 1.597657-3.5 1.011719-3.703125-.882812l-1.632813-15.238281c-.144531-1.34375-1.53125-2.175782-2.78125-1.660157-6.421875 2.648438-24.140625 11.453125-40.789062 33.144531-4.78125 24.359376-9.976563 52.007813 13.660156 92.738282 5.910156 10.191406 10.171875 21.078125 12.675781 32.410156l8.730469 26.738281c.625 2.828125.957031 5.722657 1.023438 8.625 9.984374 3.253907 20.269531 5.851563 30.808593 7.714844l.0625-9.367187c0-4.554688 1.269531-7.472657 1.65625-9.113282l14.6875-51.085937c.945313-3.410157 4.746094-5.503907 8.40625-3.835938 15.601563 7.113281 55.476563 20.667969 107.109375 4.152344-36.949218-6.796875-64.949218-39.152344-64.949218-78.066406zm0 0" fill="#a35224"/><path d="m187.816406 281.796875c-2.03125 1.210937-4.390625 1.917969-6.925781 1.917969l-31.378906-.074219.144531 1.34375 3.136719 28.511719c0 1.878906-.09375 3.761718-.238281 5.652344l24.667968-2.167969c6.75-.59375 11.835938-6.402344 11.53125-13.175781zm0 0" fill="#ebeaec"/><path d="m174.578125 317.214844c-2.503906-2.210938-4.210937-5.320313-4.601563-8.863282l-1.316406-11.996093c-.574218-5.230469 1.777344-9.867188 5.53125-12.648438-.011718-.003906-.027344-.007812-.039062-.007812l-24.640625-.058594.144531 1.34375 3.136719 28.511719c0 1.882812-.09375 3.765625-.238281 5.652344zm0 0" fill="#dad9dd"/><path d="m185.761719 283.359375c-4.179688 0-8.015625-2.769531-9.183594-6.992187-1.40625-5.078126 1.570313-10.328126 6.644531-11.734376l62.140625-17.203124c5.074219-1.398438 10.328125 1.570312 11.734375 6.644531 1.40625 5.078125-1.570312 10.328125-6.644531 11.734375l-62.140625 17.203125c-.851562.234375-1.707031.347656-2.550781.347656zm0 0" fill="#684261"/><path d="m217.25 265.027344c-1.058594-3.820313-.011719-7.722656 2.429688-10.488282l-36.457032 10.09375c-5.074218 1.402344-8.050781 6.65625-6.644531 11.730469 1.167969 4.226563 5.003906 6.996094 9.183594 6.996094.839843 0 1.699219-.113281 2.546875-.347656l36.691406-10.160157c-3.636719-1.050781-6.664062-3.90625-7.75-7.824218zm0 0" fill="#603256"/><path d="m102.140625 420.417969c-2.445313-4.660157-.652344-10.425781 4.011719-12.871094l352.824218-185.136719c4.660157-2.441406 10.425782-.648437 12.871094 4.015625 2.449219 4.664063.652344 10.425781-4.011718 12.875l-352.820313 185.128907c-4.667969 2.449218-10.425781.652343-12.875-4.011719zm0 0" fill="#ffcb37"/><path d="m305.921875 302.722656-199.769531 104.820313c-4.664063 2.449219-6.460938 8.210937-4.011719 12.875 2.445313 4.660156 8.207031 6.460937 12.875 4.011719l199.128906-104.484376c-8.085937-1.148437-12.433593-10.183593-8.222656-17.222656zm0 0" fill="#fcac1f"/><path d="m103.328125 407.480469c-5.527344-4.089844-13.167969-3.742188-18.363281.757812l-54.925782 47.582031c-1.597656 1.386719-.253906 3.984376 1.800782 3.476563l70.558594-17.488281c6.644531-1.648438 11.316406-7.664063 11.175781-14.507813-.152344-7.667969-4.066407-15.246093-10.246094-19.820312zm0 0" fill="#ebeaec"/><path d="m97.046875 423.03125c5.214844-2.957031 11.632813-2.445312 16.25 1.117188-1.003906-6.542969-4.640625-12.726563-9.96875-16.667969-5.523437-4.089844-13.167969-3.742188-18.363281.757812l-54.925782 47.582031c-1.597656 1.386719-.25 3.984376 1.800782 3.476563l2.171875-.539063zm0 0" fill="#dad9dd"/><path d="m113.578125 264.433594c0-70.101563-23.078125-126.929688-51.554687-126.929688-28.472657 0-51.554688 56.828125-51.554688 126.929688 0 70.101562 23.082031 126.929687 51.554688 126.929687 28.476562 0 51.554687-56.828125 51.554687-126.929687zm0 0" fill="#dad9dd"/><path d="m96.972656 264.554688c-5.742187 0-10.960937-2.21875-14.855468-5.839844-6.589844 7.636718-16.332032 12.476562-27.207032 12.476562-15.597656 0-28.871094-9.941406-33.835937-23.832031h-10.136719c-.304688 5.582031-.46875 11.28125-.46875 17.074219 0 70.101562 23.082031 126.929687 51.554688 126.929687 28.472656 0 51.554687-56.832031 51.554687-126.929687 0-2.507813-.03125-5-.089844-7.46875-4 4.640625-9.910156 7.589844-16.515625 7.589844zm0 0" fill="#ccccce"/><path d="m62.023438 137.5c-12.34375 0-23.671876 10.6875-32.550782 28.507812 3.769532-2.898437 7.765625-4.464843 11.910156-4.464843 22.539063 0 40.808594 46.0625 40.808594 102.886719 0 56.824218-18.269531 102.890624-40.808594 102.890624-4.144531 0-8.140624-1.570312-11.910156-4.464843 8.878906 17.816406 20.207032 28.503906 32.550782 28.503906 28.472656 0 51.554687-56.828125 51.554687-126.929687 0-70.101563-23.082031-126.929688-51.554687-126.929688zm0 0" fill="#ebeaec"/><path d="m113.578125 264.429688c0-2.503907-.03125-4.996094-.089844-7.464844-4 4.640625-9.90625 7.589844-16.515625 7.589844-5.738281 0-10.953125-2.214844-14.847656-5.832032.042969 1.890625.0625 3.792969.0625 5.710938 0 56.824218-18.269531 102.886718-40.804688 102.886718-4.144531 0-8.140624-1.566406-11.910156-4.464843 6.65625 13.363281 17.699219 28.507812 32.550782 28.507812 11.121093 0 21.421874-8.671875 29.84375-23.417969 16.277343-28.492187 21.710937-70.734374 21.710937-103.515624zm0 0" fill="#dad9dd"/><path d="m23.527344 247.355469c-1.390625-4.167969-6.0625-6.242188-10.125-4.566407-7.867188 3.246094-13.402344 10.976563-13.402344 20.015626 0 9.035156 5.535156 16.765624 13.402344 20.011718 4.0625 1.675782 8.734375-.398437 10.125-4.566406 1.621094-4.855469 2.5-10.046875 2.5-15.445312 0-5.402344-.878906-10.59375-2.5-15.449219zm0 0" fill="#ccccce"/><path d="m.890625 256.679688c-.574219 1.941406-.890625 3.992187-.890625 6.125 0 9.035156 5.535156 16.765624 13.402344 20.011718 4.0625 1.675782 8.734375-.398437 10.125-4.566406 1.621094-4.855469 2.5-10.046875 2.5-15.445312 0-2.488282-.195313-4.929688-.554688-7.316407-3.28125 11.339844-20.476562 12.058594-24.582031 1.191407zm0 0" fill="#bcbcc1"/><path d="m318.054688 223.054688-37.160157-48.992188c-.617187 2.835938-2.253906 5.464844-4.78125 7.269531l-28.207031 20.171875s-.089844-.03125-.21875-.070312l31.914062 42.078125c1.847657 2.429687 2.054688 5.730469.527344 8.378906l-48.222656 83.597656c-5.933594 10.285157-2.40625 23.429688 7.878906 29.363281 10.332032 5.960938 23.460938 2.351563 29.363282-7.878906l51.691406-89.613281c8.089844-14.019531 6.996094-31.410156-2.785156-44.304687zm0 0" fill="#f2ba88"/><path d="m318.054688 223.054688-37.160157-48.992188c-.617187 2.835938-2.253906 5.464844-4.78125 7.269531l-28.207031 20.171875s-.089844-.03125-.21875-.070312l31.914062 42.078125c1.847657 2.429687 2.054688 5.730469.527344 8.378906l-12.039062 20.871094c15.949218-10.171875 37.460937 1.125 37.460937 20.5625 0 .191406-.007812.378906-.011719.570312l15.304688-26.53125c8.085938-14.023437 6.992188-31.414062-2.789062-44.308593zm0 0" fill="#e5a876"/><path d="m163.796875 248.476562-18.785156-5.742187 4.644531 42.25h31.234375c7.492187 0 13.570313-6.074219 13.570313-13.570313v-21.699218c-10.082032 2.949218-20.855469 2.515625-30.664063-1.238282zm0 0" fill="#dad9dd"/><path d="m166.386719 273.464844-1.230469-11.207032c-.539062-4.882812 1.664062-9.214843 5.167969-11.8125-2.210938-.503906-4.390625-1.152343-6.527344-1.96875l-18.785156-5.742187 4.644531 42.25h29.589844c-6.597656 0-12.136719-4.964844-12.859375-11.519531zm0 0" fill="#ccccce"/><path d="m202.582031 136.902344c.152344-.0625.300781-.132813.449219-.195313-16.902344 7.230469-38.699219 11.191407-50.125 12.902344-5.101562.761719-9.378906 4.273437-11.089844 9.140625-14.246094 40.484375 3.320313 85.128906 3.320313 85.128906l18.660156 7.136719c9.808594 3.753906 20.582031 4.191406 30.664063 1.242187 11.097656-3.246093 19.773437-11.929687 23.011718-23.03125l11.355469-38.917968v-.011719c-10.929687-9.320313-23.09375-25.671875-26.246094-53.394531zm0 0" fill="#ccccce"/><path d="m191.1875 246.722656c-13.023438-4.980468-22.664062-16.273437-25.339844-29.957031-3.351562-17.121094-5.324218-41.546875 2.808594-64.65625.867188-2.46875 2.386719-4.597656 4.332031-6.210937-7.851562 1.742187-14.996093 2.953124-20.082031 3.710937-5.101562.765625-9.378906 4.273437-11.089844 9.140625-14.242187 40.488281 3.324219 85.128906 3.324219 85.128906l18.65625 7.140625c9.8125 3.753907 20.582031 4.191407 30.664063 1.242188 2.40625-.707031 4.691406-1.679688 6.839843-2.863281-3.4375-.53125-6.828125-1.417969-10.113281-2.675782zm0 0" fill="#bcbcc1"/><path d="m247.90625 201.503906 28.207031-20.171875c5.132813-3.671875 6.621094-10.726562 3.257813-16.066406-15.421875-24.476563-41.417969-34.519531-52.976563-37.921875-3.265625-.960938-6.800781-.363281-9.523437 1.6875-3.949219 2.976562-8.878906 5.589844-14.289063 7.871094 6.054688 53.226562 45.324219 64.601562 45.324219 64.601562zm0 0" fill="#684261"/><path d="m318.097656 220.515625-4.851562-6.402344c-.898438-1.183593-2.5625-1.507812-3.820313-.714843-9.71875 6.121093-16.183593 16.941406-16.183593 29.277343 0 14.800781 9.304687 27.425781 22.382812 32.359375 1.320312.5 2.8125-.046875 3.515625-1.269531l2.082031-3.609375c9.039063-15.667969 7.808594-35.230469-3.125-49.640625zm0 0" fill="#ebeaec"/><path d="m297.039062 256.152344c0-10.53125 8.535157-19.066406 19.066407-19.066406 3.886719 0 7.496093 1.167968 10.511719 3.164062-1.179688-7.03125-4.027344-13.816406-8.519532-19.734375l-4.851562-6.402344c-.898438-1.183593-2.5625-1.507812-3.820313-.71875-9.71875 6.121094-16.183593 16.945313-16.183593 29.28125 0 5.820313 1.457031 11.292969 3.996093 16.105469-.117187-.863281-.199219-1.734375-.199219-2.628906zm0 0" fill="#ccccce"/><path d="m169.007812 80.652344 9.265626 3.808594c-1.96875-3.449219-3.097657-7.4375-3.097657-11.695313 0-15.191406 14.183594-26.519531 29.097657-22.980469-6.769532-4.539062-14.917969-7.191406-23.683594-7.191406-23.519532 0-42.582032 19.0625-42.582032 42.578125l-5.269531 38.945313c-.1875 1.414062 1.375 2.394531 2.566407 1.601562l10.050781-6.691406c2.355469-1.570313 3.691406-4.28125 3.5-7.105469l-1.078125-16.058594c-.222656-3.304687 1.546875-6.425781 4.5-7.925781l14.117187-7.179688c.816407-.414062 1.769531-.453124 2.613281-.105468zm0 0" fill="#dad9dd"/><path d="m267.679688 150.894531c-14.667969-14.269531-32.320313-20.910156-41.285157-23.550781-3.265625-.960938-6.800781-.363281-9.523437 1.6875-3.949219 2.976562-8.878906 5.589844-14.289063 7.871094 3.261719 28.664062 16.152344 45.1875 27.359375 54.332031-6.613281-23.417969 14.0625-45.34375 37.738282-40.339844zm0 0" fill="#603256"/></svg>