<svg height="511pt" viewBox="-16 0 511 511.99952" width="511pt" xmlns="http://www.w3.org/2000/svg"><path d="m479 272.75c0 132.132812-107.113281 239.25-239.25 239.25-132.132812 0-239.25-107.117188-239.25-239.25 0-132.136719 107.117188-239.253906 239.25-239.253906 132.136719 0 239.25 107.117187 239.25 239.253906zm0 0" fill="#5e73dd"/><path d="m397.84375 71.074219c-6.214844-32.59375 6.765625-56.972657 13.957031-67.46875 1.261719-1.839844-.5625-4.210938-2.664062-3.464844-17.691407 6.308594-51.652344 23.453125-57.027344 58.882813-4.730469 31.179687-29.371094 49.253906-40.953125 56.144531-1.839844 1.097656-4.027344-.699219-3.339844-2.730469 4.347656-12.785156 1.714844-28.015625-.578125-36.894531-.566406-2.1875-3.613281-2.328125-4.382812-.203125-9.402344 25.949218-32.90625 28.90625-58.609375 40.808594-40.808594 18.894531-33.351563 60.875-33.351563 60.875l119.957031 69.253906c80.996094-53.5 79.460938-109.796875 66.992188-175.203125zm0 0" fill="#ffcb37"/><path d="m294.171875 148.929688c-11.898437-3.980469-20.476563-15.210938-20.476563-28.449219 0-8.109375 3.21875-15.457031 8.449219-20.859375-10.734375 6.261718-23.992187 10.085937-37.898437 16.527344-40.808594 18.894531-33.351563 60.875-33.351563 60.875l37.800781 21.824218zm0 0" fill="#fcac1f"/><path d="m290.898438 31.691406c1.027343-.292968 1.824218.894532 1.167968 1.734375-2.996094 3.828125-8.023437 11.769531-8.921875 22.832031-.914062 11.257813-9.570312 15.109376-12.5 18.296876-1.941406 1.65625-4.914062 1.09375-6.117187-1.152344-.351563-1.019532-4.621094-6.363282-2.667969-15.25.003906-.023438.007813-.046875.015625-.070313 3.640625-16.757812 20.382812-23.917969 29.023438-26.390625zm0 0" fill="#ffcb37"/><path d="m328.535156 33.496094c-6.007812 0-11.179687-4.871094-11.179687-11.175782 0-7.09375 6.554687-12.335937 13.367187-10.964843 5.292969 1.089843 8.988282 5.671875 8.988282 10.964843 0 6.214844-5.089844 11.175782-11.175782 11.175782zm0 0" fill="#fcac1f"/><path d="m322.703125 230.28125c.917969-15.554688-2.300781-28.183594 9.089844-38.21875.933593-.824219.25-2.355469-.984375-2.203125-5.007813.613281-13.335938 2.332031-19.007813 7.132813-.898437.761718-2.257812.003906-2.066406-1.160157 1.195313-7.316406 5.484375-23.574219 20.496094-32.273437 17.054687-9.886719 18.996093-30.722656 18.660156-41.050782-.039063-1.222656-1.621094-1.679687-2.308594-.667968-3.925781 5.796875-13.792969 17.351562-31.730469 20.734375-31.835937 6-58.292968 14.972656-71.652343 53.101562l77.4375 44.707031c1.097656-2.921874 1.839843-6.269531 2.066406-10.101562zm0 0" fill="#fcac1f"/><path d="m273.695312 186.414062c0-15.800781 7.585938-29.832031 19.3125-38.652343-21.910156 6.789062-39.648437 18.917969-49.804687 47.914062l47.121094 27.207031c-10.183594-8.859374-16.628907-21.90625-16.628907-36.46875zm0 0" fill="#ff941f"/><path d="m347.933594 259.828125c.132812-3.984375-1.808594-7.609375-5.082032-9.5l-140.578124-81.164063c-3.277344-1.890624-7.382813-1.757812-10.769532.347657l-25.652344 15.964843 181.085938 104.550782zm0 0" fill="#ebeaec"/><path d="m152.609375 208.414062c-21.152344 36.636719-18 80.472657 4.539063 112.128907l77.167968 44.554687c38.683594 3.6875 78.226563-15.496094 99.375-52.132812zm0 0" fill="#ebeaec"/><path d="m246.847656 200.957031c2.03125-1.714843 4.191406-2.574219 6.09375-2.539062l-50.667968-29.253907c-3.277344-1.890624-7.382813-1.757812-10.769532.347657l-25.652344 15.964843 58.984376 34.054688zm0 0" fill="#dad9dd"/><path d="m211.40625 242.363281-58.796875-33.949219c-21.152344 36.636719-18 80.472657 4.539063 112.128907l40.953124 23.644531c-11.164062-26.628906-7.019531-65.585938 13.304688-101.824219zm0 0" fill="#dad9dd"/><path d="m92.550781 461.359375c15.75 12.3125 33.089844 22.683594 51.648438 30.777344l71.472656-105.519531-67.835937-39.167969zm0 0" fill="#ebeaec"/><path d="m118.984375 467.296875 42.292969-87.140625c4.539062-9.355469 15.144531-13.65625 24.652344-10.710938l-38.097657-21.996093-55.285156 113.914062c7.777344 6.074219 15.941406 11.671875 24.441406 16.761719-.320312-3.617188.308594-7.355469 1.996094-10.828125zm0 0" fill="#dad9dd"/><path d="m291.464844 313.300781c0 4.167969-3.378906 7.546875-7.550782 7.546875-4.167968 0-7.546874-3.378906-7.546874-7.546875 0-4.171875 3.378906-7.550781 7.546874-7.550781 4.171876 0 7.550782 3.378906 7.550782 7.550781zm0 0" fill="#fff"/><path d="m263.269531 317.710938c0 8.835937-7.164062 16-16 16-8.835937 0-16-7.164063-16-16 0-8.835938 7.164063-16 16-16 8.835938 0 16 7.164062 16 16zm0 0" fill="#fff"/><path d="m240.25 384.800781c4.164062-7.21875 1.691406-16.445312-5.523438-20.609375l-76.996093-44.453125c-7.214844-4.167969-16.445313-1.695312-20.609375 5.519531-4.167969 7.21875-1.695313 16.445313 5.523437 20.613282l76.992188 44.453125c7.21875 4.164062 16.445312 1.691406 20.613281-5.523438zm0 0" fill="#dad9dd"/><path d="m180.34375 350.214844c3.457031-5.992188 10.179688-8.902344 16.621094-7.828125l-39.234375-22.652344c-7.214844-4.164063-16.445313-1.691406-20.609375 5.523437-4.167969 7.21875-1.695313 16.445313 5.523437 20.613282l39.230469 22.652344c-4.152344-5.042969-4.988281-12.320313-1.53125-18.308594zm0 0" fill="#ccccce"/><path d="m337.507812 316.933594-190.242187-109.835938c-7.21875-4.167968-9.691406-13.394531-5.523437-20.613281 4.164062-7.214844 13.394531-9.6875 20.609374-5.523437l190.242188 109.839843c7.21875 4.164063 9.691406 13.394531 5.523438 20.609375-4.164063 7.21875-13.394532 9.6875-20.609376 5.523438zm0 0" fill="#dad9dd"/><path d="m209.582031 225.652344c3.355469-5.808594 9.691407-8.808594 15.960938-8.207032l-63.191407-36.484374c-7.214843-4.164063-16.445312-1.691407-20.609374 5.523437-4.167969 7.21875-1.695313 16.445313 5.523437 20.613281l63.1875 36.480469c-3.652344-5.128906-4.222656-12.113281-.871094-17.925781zm0 0" fill="#ccccce"/></svg>