<svg height="511pt" viewBox="-8 0 511 511.99969" width="511pt" xmlns="http://www.w3.org/2000/svg"><path d="m495.035156 247.265625c0 136.5625-110.707031 247.269531-247.269531 247.269531s-247.265625-110.707031-247.265625-247.269531c0-136.558594 110.703125-247.265625 247.265625-247.265625s247.269531 110.707031 247.269531 247.265625zm0 0" fill="#603256"/><path d="m10.1875 315.988281c29.773438 103.125 124.863281 178.546875 237.578125 178.546875s207.804687-75.421875 237.582031-178.546875zm0 0" fill="#84260d"/><path d="m214.796875 315.988281h-204.609375c26.425781 91.523438 104.300781 161.222657 200.285156 175.742188-56.949218-41.410157-54.425781-136.710938 4.324219-175.742188zm0 0" fill="#751d0c"/><path d="m491.71875 287.730469c-10.820312-13.363281-25.136719-26.300781-44.027344-36.105469-46.257812-24.015625-79.507812-69.992188-93.015625-119.0625-19.714843 15.222656-46.429687 3.75-46.429687-21.582031 0-1.167969.074218-2.316407.199218-3.445313-39.664062-6.4375-115.617187-13.59375-202.570312-15.925781v43.335937c0 4.667969-2.355469 9.015626-6.261719 11.566407l-17.953125 14.902343v189.890626h52.816406l336.667969 2.105468c9.757813-20.496094 16.765625-42.546875 20.574219-65.679687zm0 0" fill="#ff5252"/><path d="m146.644531 93.078125c-13.242187-.597656-26.863281-1.09375-40.769531-1.46875v43.335937c0 4.667969-2.355469 9.015626-6.261719 11.566407l-17.953125 14.902343v189.890626h52.816406l12.167969.078124zm0 0" fill="#f44040"/><path d="m485.347656 315.988281h-403.6875v35.316407h52.816406l336.667969 2.105468c5.699219-11.976562 10.464844-24.480468 14.203125-37.421875zm0 0" fill="#f44040"/><path d="m146.644531 351.382812v-35.394531h-64.984375v35.316407h52.816406zm0 0" fill="#e53535"/><path d="m72.191406 95.792969v67.546875c0 3.925781 4.355469 6.28125 7.640625 4.136718l24.65625-16.09375c3.90625-2.546874 6.257813-6.898437 6.257813-11.5625v-43.339843c-12.484375-.332031-25.34375-.566407-38.554688-.6875zm0 0" fill="#ff941f"/><path d="m91.628906 120.410156c.136719 0 .273438.003906.410156.003906 8.675782.160157 15.972657 5.777344 18.707032 13.53125v-37.464843c-12.484375-.332031-25.347656-.566407-38.554688-.6875v38.140625c2.824219-7.988282 10.480469-13.6875 19.4375-13.523438zm0 0" fill="#ff7b22"/><path d="m336.144531 85.519531c2.085938 0 4.34375.273438 6.703125.804688-.289062-.09375-.574218-.195313-.875-.273438-33.644531-8.714843-133.875-22.078125-272.097656-23.164062-.042969 0-.089844 0-.132812 0-9.019532 0-16.367188 7.273437-16.4375 16.308593-.070313 9.082032 7.230468 16.5 16.3125 16.574219 106.421874.835938 190.660156 9.21875 236.394531 16.636719 1.710937-15.128906 14.546875-26.886719 30.132812-26.886719zm0 0" fill="#fcac1f"/><path d="m457.96875 222.441406c-48.472656-25.160156-65.730469-68.285156-71.707031-91.75-7.296875-28.652344-33.789063-45.171875-50.117188-45.171875-16.753906 0-30.332031 13.578125-30.332031 30.332031 0 25.332032 29.152344 39.242188 48.859375 24.007813 7.578125 29.019531 29.007813 81.074219 88.148437 111.765625 10.761719 5.585938 30.496094 17.242188 48.097657 40.726562 2.683593-14.542968 4.097656-29.53125 4.113281-44.847656-10.265625-8.964844-22.476562-17.492187-37.0625-25.0625zm0 0" fill="#ffcb37"/><path d="m68.945312 352.820312h-44.832031c5.421875 11.472657 11.691407 22.464844 18.746094 32.882813h26.085937c-5.066406-3.710937-8.367187-9.683594-8.367187-16.441406 0-6.757813 3.300781-12.730469 8.367187-16.441407zm0 0" fill="#bc4c2e"/><path d="m449.933594 389.65625c9.003906-12.757812 16.835937-26.402344 23.328125-40.785156-124.953125 0-377.859375 0-394.722657 0-11.265624 0-20.394531 9.128906-20.394531 20.390625 0 11.265625 9.128907 20.394531 20.394531 20.394531zm0 0" fill="#bc4c2e"/><path d="m196.644531 369.261719c0-11.261719 9.128907-20.390625 20.394531-20.390625-72.601562 0-130.714843 0-138.5 0-11.265624 0-20.394531 9.128906-20.394531 20.390625 0 11.265625 9.128907 20.394531 20.394531 20.394531h138.5c-11.265624 0-20.394531-9.128906-20.394531-20.394531zm0 0" fill="#a0391e"/><path d="m79.226562 378.390625c-5.167968 0-9.132812-4.21875-9.132812-9.125 0-5.9375 5.460938-10.0625 10.910156-8.960937 4.460938.933593 7.355469 4.75 7.355469 8.960937 0 4.992187-4.046875 9.125-9.132813 9.125zm0 0" fill="#84260d"/><path d="m204.375 492.855469c68.261719 39.410156 155.542969 16.023437 194.953125-52.238281 39.40625-68.257813 16.019531-155.539063-52.238281-194.949219-68.257813-39.410157-155.539063-16.023438-194.949219 52.238281-39.410156 68.257812-16.023437 155.539062 52.234375 194.949219zm122.136719-211.546875c48.574219 28.046875 65.21875 90.160156 37.171875 138.730468-28.042969 48.574219-90.15625 65.21875-138.730469 37.175782-48.574219-28.046875-65.214844-90.15625-37.171875-138.730469s90.15625-65.21875 138.730469-37.175781zm0 0" fill="#fcac1f"/><g fill="#ff941f"><path d="m287.941406 396.980469c-7.761718 3.421875-16.640625 3.429687-24.417968 0-.445313 2.320312-8.941407 21.589843-3.398438 48.121093l5.261719 25.199219c3.402343.34375 6.851562.519531 10.34375.519531 3.492187 0 6.945312-.175781 10.347656-.519531l5.261719-25.199219c5.492187-26.285156-2.996094-46.039062-3.398438-48.121093zm0 0"/><path d="m287.941406 396.980469c-7.761718 3.421875-16.640625 3.429687-24.417968 0-.445313 2.320312-8.941407 21.589843-3.398438 48.121093l5.261719 25.199219c6.707031.675781 13.65625.710938 20.691406 0 2.3125-16.839843 12.644531-39.054687 3.136719-69.273437zm0 0"/><path d="m263.523438 341.546875c7.761718-3.425781 16.640624-3.433594 24.417968 0l1.273438-4.050781c9.511718-30.230469-.816406-52.367188-3.136719-69.269532-3.402344-.34375-6.851563-.523437-10.347656-.523437-3.492188 0-6.941407.179687-10.34375.523437-2.308594 16.824219-12.644531 39.050782-3.136719 69.269532zm0 0"/></g><path d="m260.054688 329.003906c.773437 4.417969 3.355468 12.140625 3.46875 12.542969 7.949218-3.507813 16.835937-3.34375 24.417968 0 .785156-2.726563 2.714844-7.648437 4.058594-15.792969-10.695312 0-19.199219-9.007812-18.5625-19.6875.605469-10.117187 2.421875-15.175781 6.332031-34.875.359375-1.730468 1.800781-3.003906 3.542969-3.207031-2.5-.183594-5.03125-.28125-7.582031-.28125-3.492188 0-6.941407.179687-10.34375.523437-2.957031 18.765626-10.519531 34.96875-5.382813 60.496094zm0 0" fill="#ff7b22"/><path d="m279.769531 467.332031c-3.976562-19.855469-5.546875-24.351562-6.238281-33.507812-.808594-10.753907 7.765625-19.90625 18.550781-19.90625h.105469c-1.339844-8.820313-3.496094-14.308594-4.246094-16.9375-3.015625 1.328125-6.289062 2.175781-9.722656 2.457031-5.101562.417969-10.082031-.421875-14.695312-2.457031-.75 2.554687-2.445313 7.0625-3.71875 13.859375-4.75 25.183594 2.769531 41.84375 5.585937 59.457031 5.957031.605469 11.925781.683594 17.925781.242187-1.746094-.199218-3.1875-1.472656-3.546875-3.207031zm0 0" fill="#ff7b22"/><path d="m257.824219 393.710938c-6.847657-5.011719-11.292969-12.695313-12.210938-21.144532-2.230469.773438-23.167969 3.050782-43.375 21.117188l-19.1875 17.15625c2.765625 6.144531 6.210938 12.183594 10.34375 17.917968 15.738281-6.414062 40.144531-8.574218 61.5625-31.917968zm0 0" fill="#ff941f"/><path d="m293.621094 344.847656c6.847656 5.011719 11.292968 12.695313 12.207031 21.144532l4.144531-.917969c30.9375-6.878907 44.941406-26.890625 58.421875-37.355469-1.402343-3.117188-2.976562-6.195312-4.71875-9.21875-1.746093-3.023438-3.625-5.925781-5.625-8.699219-15.726562 6.414063-40.144531 8.578125-61.5625 31.921875zm0 0" fill="#ff941f"/><path d="m302.75 335.574219c-3.441406 2.878906-8.835938 8.976562-9.128906 9.273437 7.011718 5.132813 11.316406 12.910156 12.207031 21.144532 2.757813-.683594 7.992187-1.476563 15.707031-4.378907-5.351562-9.265625-1.796875-21.132812 7.769532-25.917969 9.0625-4.535156 14.355468-5.492187 33.367187-11.957031 1.679687-.550781 3.503906.058594 4.550781 1.46875-1.09375-2.261719-2.273437-4.496093-3.546875-6.707031-1.746093-3.023438-3.625-5.925781-5.625-8.699219-17.730469 6.824219-35.546875 8.375-55.082031 25.589844zm0 0" fill="#ff7b22"/><path d="m192.808594 421.808594c15.207031-13.367188 18.316406-16.976563 25.898437-22.152344 8.910157-6.082031 21.125-3.230469 26.515625 6.109375l.050782.09375c6.972656-5.570313 10.644531-10.183594 12.546874-12.148437-2.65625-1.945313-5.027343-4.355469-6.988281-7.191407-2.914062-4.207031-4.675781-8.941406-5.21875-13.953125-2.585937.628906-7.339843 1.414063-13.863281 3.707032-24.183594 8.480468-34.851562 23.320312-48.699219 34.566406 2.453125 5.460937 5.367188 10.671875 8.753907 15.644531-.699219-1.609375-.316407-3.496094 1.003906-4.675781zm0 0" fill="#ff7b22"/><path d="m305.832031 372.53125c-.917969 8.433594-5.351562 16.125-12.210937 21.144531 1.789062 1.546875 14.226562 18.539063 39.976562 27.003907l24.453125 8.042968c3.941407-5.46875 7.445313-11.472656 10.34375-17.917968-13.421875-10.421876-27.496093-30.480469-58.421875-37.355469zm0 0" fill="#ff941f"/><path d="m245.613281 365.960938c.917969-8.4375 5.347657-16.125 12.210938-21.148438l-2.871094-3.125c-21.421875-23.351562-45.757813-25.476562-61.558594-31.917969-2 2.773438-3.878906 5.671875-5.625 8.695313-1.746093 3.023437-3.316406 6.101562-4.71875 9.21875 13.417969 10.414062 27.496094 30.476562 58.421875 37.355468zm0 0" fill="#ff941f"/><path d="m233.019531 362.691406c4.214844 1.542969 12.191407 3.164063 12.59375 3.269532.941407-8.640626 5.523438-16.253907 12.210938-21.148438-1.972657-2.046875-5.273438-6.179688-11.644531-11.410156-5.351563 9.265625-17.40625 12.121094-26.335938 6.230468-8.457031-5.582031-11.929688-9.6875-27.035156-22.917968-1.320313-1.179688-1.703125-3.0625-1.003906-4.675782-1.410157 2.078126-2.757813 4.21875-4.035157 6.425782-1.746093 3.023437-3.316406 6.101562-4.71875 9.21875 14.773438 11.945312 25.023438 26.597656 49.699219 34.910156zm0 0" fill="#ff7b22"/><path d="m362.671875 414.785156c-19.179687-6.484375-23.859375-7.375-32.136719-11.351562-9.71875-4.675782-13.355468-16.679688-7.964844-26.019532l.054688-.089843c-4.121094-1.613281-8.351562-2.917969-12.652344-3.875l-4.140625-.917969c-.355469 3.273438-1.261719 6.53125-2.734375 9.648438-2.1875 4.625-5.40625 8.519531-9.476562 11.496093 1.835937 1.925781 4.894531 5.652344 10.144531 10.152344 19.433594 16.707031 37.621094 18.523437 54.285156 24.894531 3.5-4.859375 6.554688-9.988281 9.171875-15.40625-1.046875 1.410156-2.871094 2.019532-4.550781 1.46875zm0 0" fill="#ff7b22"/><path d="m290.867188 343.039062c-14.484376-8.363281-33.007813-3.398437-41.371094 11.085938-8.363282 14.484375-3.402344 33.007812 11.082031 41.371094 14.488281 8.363281 33.011719 3.402344 41.375-11.085938 8.363281-14.484375 3.398437-33.007812-11.085937-41.371094zm0 0" fill="#fcac1f"/><path d="m325.269531 480.695312c-4.109375-7.113281-4.121093-15.464843-.773437-22.332031-30.0625 16.414063-67.710938 17.230469-99.542969-1.148437-48.574219-28.046875-65.214844-90.15625-37.171875-138.730469 9.082031-15.730469 21.742188-28.109375 36.351562-36.710937-18.289062-.03125-29.699218-19.792969-20.582031-35.648438-20.671875 12.09375-38.582031 29.554688-51.410156 51.78125-39.410156 68.257812-16.023437 155.539062 52.234375 194.949219 45.964844 26.539062 100.550781 24.597656 143.339844-.339844-8.84375.6875-17.714844-3.625-22.445313-11.820313zm0 0" fill="#ff941f"/><path d="m275.285156 380.246094c1.0625-1.835938 2.5625-3.277344 4.292969-4.277344l-7.730469-13.390625c-3.519531 2.011719-7.980468 2.167969-11.742187-.007813-5.625-3.246093-7.59375-10.480468-4.273438-16.140624-15.632812 13.628906-13.246093 38.667968 4.757813 49.058593 7.886718 4.554688 16.972656 5.152344 24.960937 2.414063-8.984375.078125-14.84375-9.722656-10.265625-17.65625zm0 0" fill="#ff941f"/><path d="m280.296875 361.359375c4.359375 2.515625 5.859375 8.117187 3.351563 12.464844-2.523438 4.367187-8.109376 5.867187-12.480469 3.34375-4.375-2.527344-5.859375-8.117188-3.339844-12.476563 2.488281-4.3125 8.0625-5.878906 12.46875-3.332031zm0 0" fill="#ffcb37"/><path d="m341.972656 86.050781c-14.261718-3.695312-40.496094-8.222656-76.511718-12.300781 11.53125 8.6875 9.902343 26.289062-2.84375 32.804688 16.886718 1.914062 31.460937 3.914062 43.394531 5.851562 1.710937-15.128906 14.546875-26.886719 30.132812-26.886719 2.085938 0 4.34375.273438 6.703125.804688-.289062-.09375-.574218-.195313-.875-.273438zm0 0" fill="#ff7b22"/><path d="m386.261719 130.691406c-7.296875-28.652344-33.789063-45.171875-50.117188-45.171875-16.753906 0-30.332031 13.578125-30.332031 30.332031 0 22.527344 23.058594 36.023438 42.023438 28.015626 3.742187-1.578126 8.019531.460937 9.234374 4.335937 1.40625 4.488281 3.109376 9.332031 5.171876 14.414063 1.414062-14.960938 18.96875-21.984376 30.359374-12.632813-2.902343-7.1875-4.941406-13.785156-6.339843-19.292969zm0 0" fill="#fcac1f"/></svg>