<svg height="512pt" viewBox="-9 0 512 512.0005" width="512pt" xmlns="http://www.w3.org/2000/svg"><path d="m493.101562 265.449219c0 136.167969-110.382812 246.550781-246.550781 246.550781-136.164062 0-246.550781-110.382812-246.550781-246.550781s110.386719-246.550781 246.550781-246.550781c136.167969 0 246.550781 110.382812 246.550781 246.550781zm0 0" fill="#5e73dd"/><path d="m226.503906 101.015625v40.226563c6.386719-.957032 12.917969-1.46875 19.566406-1.496094 6.976563-.023438 13.832032.480468 20.527344 1.46875v-40.199219zm0 0" fill="#a0391e"/><path d="m363.339844 323.378906c-.457032-1.460937-1.539063-2.621094-2.964844-3.179687l-18.566406-7.257813c-12.847656-5.023437-27.277344-4.332031-39.511719 1.863282l-32.832031 14.621093c-4.324219 1.925781-6.832032 6.535157-6.105469 11.210938l9.503906 60.921875c.371094 2.398437-.675781 4.832031-2.675781 6.207031l-20.042969 13.773437c-2.148437 1.476563-5.039062 1.476563-7.1875 0l-20.042969-13.773437c-2-1.375-3.050781-3.808594-2.675781-6.207031l9.5-60.921875c.730469-4.675781-1.777343-9.285157-6.101562-11.210938l-32.757813-14.589843c-12.308594-6.226563-26.738281-6.914063-39.585937-1.894532l-18.566407 7.257813c-1.425781.554687-2.507812 1.714843-2.960937 3.175781-.457031 1.464844-.226563 3.03125.628906 4.304688l12.449219 18.433593c3.121094 4.625 4.773438 10.015625 4.773438 15.59375v65.371094c0 16.445313 10.859374 31.324219 27.019531 37.015625 5.765625 2.03125 9.636719 7.503906 9.636719 13.613281v10.460938l2.652343-1.996094c34.960938-26.273437 84-26.542969 119.257813-.65625l2.640625 1.9375v-9.746094c0-6.109375 3.871093-11.582031 9.636719-13.613281 16.160156-5.691406 27.019531-20.566406 27.019531-37.015625v-65.371094c0-5.578125 1.652343-10.972656 4.773437-15.59375l12.449219-18.433593c.859375-1.273438 1.089844-2.839844.636719-4.300782zm0 0" fill="#603256"/><path d="m360.375 320.199219c-14.394531-4.867188-23.253906-11.453125-39.195312-10.484375-9.179688 15.433594-19.398438 23.082031-19.398438 40v86.460937c0 14.390625-6.289062 27.867188-16.734375 37.523438 13.851563 5.640625 22.113281 12.664062 23.78125 13.757812v-9.75c0-6.109375 3.871094-11.582031 9.632813-13.609375 16.164062-5.695312 27.023437-20.570312 27.023437-37.015625v-65.371093c0-13.089844 7.992187-18.785157 17.222656-34.03125 1.800781-2.667969.660157-6.308594-2.332031-7.480469zm0 0" fill="#4f2649"/><path d="m364.140625 322.871094c-.578125-1.621094-1.816406-2.902344-3.429687-3.53125l-18.566407-7.257813c-13.074219-5.113281-27.753906-4.414062-40.28125 1.902344l-32.773437 14.597656c-4.703125 2.09375-7.433594 7.109375-6.640625 12.199219l9.503906 60.921875c.320313 2.042969-.578125 4.125-2.289063 5.300781l-20.042968 13.773438c-1.835938 1.265625-4.304688 1.265625-6.140625 0l-20.042969-13.773438c-1.707031-1.175781-2.605469-3.253906-2.285156-5.300781l9.503906-60.921875c.792969-5.085938-1.9375-10.101562-6.640625-12.199219l-32.773437-14.597656c-12.53125-6.316406-27.210938-7.015625-40.28125-1.902344l-18.566407 7.257813c-1.617187.628906-2.855469 1.910156-3.433593 3.53125l-18.523438-7.277344v120.78125c0 13.25 1.910156 26.054688 5.445312 38.167969 21.375 13.386719 44.945313 23.589843 70.050782 29.9375v-26.773438c0-6.835937-4.316406-12.910156-10.742188-15.175781-15.277344-5.382812-25.914062-19.253906-25.914062-35.449219v-65.371093c0-5.890626-1.757813-11.644532-5.054688-16.523438l-12.449218-18.4375c-1.203126-1.78125-.445313-4.222656 1.5625-5.007812l18.566406-7.253907c12.421875-4.859375 26.328125-4.191406 38.234375 1.828125l32.832031 14.625c3.648438 1.625 5.753906 5.492188 5.136719 9.4375l-9.503907 60.921875c-.472656 3.042969.839844 6.085938 3.375 7.828125l20.046876 13.777344c2.730468 1.875 6.332031 1.875 9.0625 0l20.042968-13.777344c2.539063-1.742187 3.851563-4.785156 3.375-7.828125l-9.5-60.921875c-.617187-3.945312 1.488282-7.8125 5.136719-9.4375l32.832031-14.625c11.90625-6.023437 25.8125-6.6875 38.234375-1.828125l18.566407 7.253907c2.003906.785156 2.765624 3.226562 1.558593 5.007812l-12.449219 18.4375c-3.292968 4.878906-5.054687 10.632812-5.054687 16.523438v65.371093c0 16.195313-10.636719 30.066407-25.914063 35.449219-6.425781 2.265625-10.742187 8.339844-10.742187 15.175781v26.773438c25.109375-6.347657 48.675781-16.550781 70.054687-29.9375 3.53125-12.113281 5.441407-24.917969 5.441407-38.167969v-120.78125zm0 0" fill="#dad9dd"/><path d="m191.679688 262.007812c35.898437-9.875 73.847656-9.875 109.746093 0l81.242188 22.355469v-9.605469c0-75.335937-61.203125-136.375-136.597657-136.113281-75.226562.257813-135.632812 62.363281-135.632812 137.589844v8.128906zm0 0" fill="#dad9dd"/><path d="m280.945312 217.871094c0-25.921875 14.847657-48.367188 36.488282-59.332032-20.773438-12.699218-45.210938-19.988281-71.363282-19.894531-75.226562.257813-135.632812 62.363281-135.632812 137.589844v8.128906l81.242188-22.355469c34.316406-9.4375 70.503906-9.832031 104.984374-1.222656-9.800781-11.582031-15.71875-26.554687-15.71875-42.914062zm0 0" fill="#ccccce"/><path d="m387.402344 282.984375-85.292969-23.464844c-36.363281-10.007812-74.753906-10.007812-111.117187 0l-85.289063 23.464844c-5.332031 1.46875-9.027344 6.316406-9.027344 11.847656v9.757813c0 5.050781 3.09375 9.585937 7.792969 11.433594l27.300781 10.726562c-1.203125-1.785156-.441406-4.222656 1.5625-5.007812l18.566407-7.257813c12.425781-4.855469 26.328124-4.191406 38.234374 1.832031l32.832032 14.625c3.648437 1.625 5.753906 5.492188 5.136718 9.4375l-9.5 60.921875c-.476562 3.042969.835938 6.085938 3.375 7.832031l20.042969 13.773438c2.730469 1.875 6.335938 1.875 9.066407 0l20.042968-13.773438c2.535156-1.746093 3.847656-4.789062 3.375-7.832031l-9.503906-60.921875c-.617188-3.945312 1.488281-7.8125 5.140625-9.4375l32.832031-14.625c11.902344-6.023437 25.808594-6.6875 38.230469-1.832031l18.566406 7.257813c2.003907.785156 2.765625 3.222656 1.5625 5.007812l27.300781-10.726562c4.703126-1.847657 7.792969-6.382813 7.792969-11.433594v-9.757813c.003907-5.527343-3.691406-10.378906-9.023437-11.847656zm0 0" fill="#ebeaec"/><path d="m226.503906 140.136719v50.636719c0 11.074218 8.976563 20.046874 20.046875 20.046874 11.070313 0 20.046875-8.972656 20.046875-20.046874v-50.664063c-6.695312-.988281-13.550781-1.492187-20.527344-1.46875-6.648437.023437-13.179687.539063-19.566406 1.496094zm0 0" fill="#dad9dd"/><path d="m246.070312 138.644531c-6.648437.019531-13.179687.539063-19.566406 1.492188v46.828125c0-11.074219 8.976563-20.046875 20.046875-20.046875 11.070313 0 20.046875 8.972656 20.046875 20.046875v-46.851563c-6.695312-.992187-13.550781-1.496093-20.527344-1.46875zm0 0" fill="#bcbcc1"/><path d="m290.242188 20.769531-36.089844-18.898437c-4.761719-2.492188-10.441406-2.492188-15.203125 0l-36.089844 18.898437c-3.128906 1.089844-4.308594 4.890625-2.355469 7.5625l7.140625 9.761719c14.746094 20.164062 12.070313 38.203125 16.28125 60.503906.183594 1.386719 1.367188 2.417969 2.765625 2.417969h39.722656c1.398438 0 2.578126-1.03125 2.765626-2.417969 4.21875-22.347656 1.535156-40.34375 16.28125-60.503906l7.140624-9.761719c1.953126-2.671875.769532-6.472656-2.359374-7.5625zm0 0" fill="#ff5252"/><path d="m251.507812 98.417969c1.273438-21.5625 2.160157-27.492188 1.859376-38.132813-.277344-9.671875-.035157-18.820312-2.769532-26.84375l-3.570312-10.488281c-.976563-2.867187-.386719-6.949219 1.179687-8.117187l9.753907-10.972657-3.808594-1.992187c-4.761719-2.496094-10.441406-2.496094-15.203125 0l-36.089844 18.898437c-3.128906 1.085938-4.308594 4.886719-2.355469 7.558594l7.140625 9.765625c6.550781 8.953125 10.757813 19.40625 12.234375 30.40625l4.042969 30.09375c.1875 1.386719 1.371094 2.421875 2.769531 2.421875h26.199219c-.695313 0-1.289063-1.109375-1.382813-2.597656zm0 0" fill="#f44040"/><path d="m265 340.382812c-.617188-3.949218 1.488281-7.816406 5.140625-9.441406l19.023437-8.472656c-31.265624-12.335938-27.449218-57.882812 5.335938-64.886719-34.078125-8.015625-69.671875-7.371093-103.507812 1.9375l-85.289063 23.46875c-5.335937 1.464844-9.027344 6.316407-9.027344 11.847657v9.753906c0 5.050781 3.089844 9.589844 7.792969 11.4375l27.300781 10.722656c-1.203125-1.78125-.441406-4.222656 1.5625-5.007812l18.566407-7.253907c12.425781-4.859375 26.328124-4.191406 38.230468 1.828125l32.832032 14.625c3.648437 1.625 5.757812 5.492188 5.140624 9.4375l-9.503906 60.921875c-.472656 3.042969.839844 6.085938 3.375 7.832031l20.042969 13.773438c2.734375 1.875 6.335937 1.875 9.066406 0l20.042969-13.773438c2.539062-1.746093 3.851562-4.789062 3.375-7.832031zm0 0" fill="#dad9dd"/><path d="m175.191406 462.53125c-15.277344-5.382812-25.914062-19.253906-25.914062-35.449219v-3.769531c-8.796875 14.292969-29.34375 14.792969-38.839844.984375v12.078125c0 13.253906 1.910156 26.054688 5.445312 38.167969 21.375 13.386719 44.941407 23.59375 70.050782 29.941406v-26.777344c0-6.835937-4.316406-12.910156-10.742188-15.175781zm0 0" fill="#ccccce"/><path d="m343.824219 423.3125v3.769531c0 16.195313-10.632813 30.066407-25.910157 35.449219-6.425781 2.265625-10.746093 8.339844-10.746093 15.175781v26.773438c25.109375-6.347657 48.679687-16.550781 70.054687-29.9375 3.53125-12.113281 5.445313-24.917969 5.445313-38.167969v-12.078125c-9.515625 13.835937-30.058594 13.285156-38.84375-.984375zm0 0" fill="#ccccce"/><g fill="#ebeaec"><path d="m347.609375 201.628906c-.609375-3.167968-3.671875-5.242187-6.839844-4.636718-3.167969.609374-5.242187 3.671874-4.632812 6.839843s3.667969 5.242188 6.839843 4.632813c3.167969-.609375 5.242188-3.667969 4.632813-6.835938zm0 0"/><path d="m330.011719 214.933594c-1.292969-6.710938-7.78125-11.109375-14.496094-9.820313-6.710937 1.292969-11.109375 7.78125-9.820313 14.492188 1.292969 6.714843 7.78125 11.113281 14.496094 9.824219 6.710938-1.292969 11.109375-7.78125 9.820313-14.496094zm0 0"/></g></svg>