<svg height="511pt" viewBox="-7 0 511 511.99969" width="511pt" xmlns="http://www.w3.org/2000/svg"><path d="m248.882812 15.230469c137.179688 0 248.386719 111.207031 248.386719 248.386719 0 70.789062-29.613281 134.660156-77.128906 179.902343-44.5625 42.433594-104.867187-27.015625-171.257813-27.015625-66.390624 0-126.699218 69.449219-171.261718 27.015625-47.507813-45.246093-77.121094-109.117187-77.121094-179.902343 0-137.179688 111.203125-248.386719 248.382812-248.386719zm0 0" fill="#603256"/><path d="m422.382812 223.964844c-3.332031.863281-6.871093-.242188-9.113281-2.855469-27.871093-32.449219-40.4375-75.3125-34.5-117.671875l6.636719-47.335938c-20.351562-13.414062-42.789062-23.917968-66.726562-30.914062-13.148438 25.253906-39.523438 42.628906-69.796876 42.765625-30.269531-.132813-56.644531-17.511719-69.796874-42.761719-23.9375 6.996094-46.371094 17.496094-66.722657 30.910156l6.636719 47.335938c5.9375 42.359375-6.632812 85.226562-34.5 117.671875h-.003906c-2.242188 2.613281-5.777344 3.722656-9.113282 2.855469-6.386718-1.652344-12.335937 3.878906-11.144531 10.367187 6.128907 43.316407 30.105469 105.863281 14.253907 200.296875-.496094 2.957032-.765626 5.929688-.867188 8.890625 44.5625 42.433594 104.867188 68.480469 171.257812 68.480469 66.390626 0 126.695313-26.046875 171.257813-68.480469-.097656-2.960937-.367187-5.933593-.867187-8.890625-15.84375-94.398437 8.105468-156.824218 14.257812-200.296875 1.1875-6.492187-4.761719-12.023437-11.148438-10.367187zm0 0" fill="#bebec2"/><path d="m422.382812 223.964844c-3.332031.863281-6.871093-.242188-9.113281-2.855469-27.871093-32.445313-40.4375-75.3125-34.5-117.671875l6.636719-47.335938c-20.355469-13.417968-42.796875-23.921874-66.738281-30.917968-5.015625 9.621094-11.941407 18.101562-20.28125 24.917968v456.957032c46.65625-9.433594 88.570312-31.941406 121.753906-63.539063-.097656-2.960937-.367187-5.933593-.863281-8.890625-15.847656-94.398437 8.101562-156.824218 14.253906-200.296875 1.1875-6.492187-4.761719-12.023437-11.148438-10.367187zm0 0" fill="#ccccce"/><path d="m84.5 221.109375c27.871094-32.445313 40.4375-75.3125 34.5-117.671875l-11.511719-82.117188c-.242187-1.722656.808594-3.367187 2.472657-3.871093l57.175781-17.34375c1.984375-.492188 3.953125.800781 4.316406 2.808593 6.644531 36.746094 38.886719 64.867188 77.429687 65.039063v172.316406l-14.746093 24.152344c-6.40625 10.496094-16.988281 17.753906-29.082031 19.957031l-28.683594 5.226563c-22.710938 4.136719-45.902344-4.128907-60.882813-21.691407l-37.269531-43.695312c2.390625-.148438 4.667969-1.234375 6.28125-3.109375zm0 0" fill="#ebeaec"/><path d="m413.269531 221.109375c-27.871093-32.445313-40.441406-75.3125-34.5-117.671875l11.511719-82.117188c.238281-1.722656-.808594-3.367187-2.476562-3.871093l-57.175782-17.34375c-1.980468-.492188-3.953125.800781-4.316406 2.808593-6.644531 36.746094-38.882812 64.867188-77.429688 65.039063v172.316406l14.746094 24.152344c6.410156 10.496094 16.988282 17.753906 29.085938 19.957031l28.679687 5.226563c22.710938 4.136719 45.90625-4.128907 60.886719-21.691407l37.269531-43.695312c-2.390625-.148438-4.671875-1.234375-6.28125-3.109375zm0 0" fill="#f5f4f6"/><path d="m292.710938 284.378906 28.683593 5.226563c8.296875 1.511719 16.65625 1.359375 24.65625-.289063 0 0-2.0625 11.597656-3.398437 31.015625-.882813 12.871094-13.105469 21.878907-25.652344 18.863281l-52.148438-12.523437c-9.363281-2.25-15.96875-10.628906-15.96875-20.261719v-66.140625l14.746094 24.152344c6.40625 10.496094 16.988282 17.753906 29.082032 19.957031zm0 0" fill="#fff"/><path d="m205.054688 284.378906-28.683594 5.226563c-8.296875 1.511719-16.652344 1.359375-24.652344-.289063 0 0 2.0625 11.597656 3.394531 31.015625.886719 12.871094 13.109375 21.878907 25.65625 18.863281l52.144531-12.523437c9.367188-2.25 15.96875-10.628906 15.96875-20.261719v-66.140625l-14.746093 24.152344c-6.40625 10.496094-16.988281 17.753906-29.082031 19.957031zm0 0" fill="#ebeaec"/><path d="m80.996094 325.816406 53.699218-8.097656c8.574219-1.292969 16.621094 2.226562 21.640626 8.378906.851562 2.332032 2.109374 4.449219 3.664062 6.285156 5.628906 14.484376-2.25 31.84375-18.554688 34.136719l-57.652343 8.109375c.136719-17.613281-.988281-33.839844-2.796875-48.8125zm0 0" fill="#ebeaec"/><path d="m83.789062 374.914062 51.96875-7.835937c7.699219-1.164063 14.976563 1.558594 20.019532 6.582031l-.007813.527344c-.285156 6.570312 2.46875 12.398438 6.878907 16.359375v2.15625c0 4.203125-1.128907 8.167969-3.097657 11.605469-1.757812 1.671875-3.277343 3.578125-4.535156 5.660156-3.382813 3.09375-7.679687 5.230469-12.507813 5.90625l-62.480468 8.792969c2.511718-17.71875 3.628906-34.269531 3.761718-49.753907zm0 0" fill="#dad9dd"/><path d="m150.15625 429.378906c1.183594-8.746094 1.140625-9.1875 1.574219-11.191406-4.46875-2.433594-9.75-3.496094-15.238281-2.671875l-56.382813 8.503906c-.488281 3.496094-1.015625 7.019531-1.617187 10.609375-.496094 2.957032-.777344 5.921875-.875 8.882813 10.539062 10.035156 21.96875 19.144531 34.144531 27.222656l31.753906-4.46875c8.273437-1.164063 15.535156-6.605469 18.933594-14.460937-8.292969-3.609376-13.914063-12.484376-12.292969-22.425782zm0 0" fill="#ebeaec"/><path d="m413.980469 374.914062-51.964844-7.835937c-7.703125-1.164063-14.980469 1.558594-20.019531 6.582031l.003906.527344c.285156 6.570312-2.46875 12.398438-6.878906 16.359375v2.15625c0 4.203125 1.128906 8.167969 3.097656 11.605469 1.757812 1.671875 3.277344 3.578125 4.535156 5.660156 3.382813 3.09375 7.679688 5.230469 12.507813 5.90625l62.484375 8.792969c-2.515625-17.71875-3.632813-34.269531-3.765625-49.753907zm0 0" fill="#ebeaec"/><path d="m127.125 7.988281 19.699219-5.976562c1.898437-.578125 3.898437.53125 4.414062 2.445312l4.648438 17.1875c1.988281 7.355469-2.085938 15.21875-9.417969 17.308594-7.441406 2.125-15.117188-2.269531-17.117188-9.667969l-4.597656-17.015625c-.496094-1.835937.554688-3.730469 2.371094-4.28125zm0 0" fill="#bc4c2e"/><path d="m141.601562 24.90625-4.597656-17.011719c-.304687-1.117187-.023437-2.253906.644532-3.097656l-10.523438 3.191406c-1.816406.550781-2.867188 2.449219-2.371094 4.28125l4.597656 17.011719c2 7.402344 9.675782 11.792969 17.117188 9.671875 2.546875-.726563 4.691406-2.160156 6.335938-4.019531-5.230469-.816406-9.738282-4.609375-11.203126-10.027344zm0 0" fill="#a0391e"/><path d="m370.640625 7.988281-19.699219-5.976562c-1.898437-.578125-3.898437.53125-4.414062 2.445312l-4.644532 17.1875c-1.988281 7.355469 2.085938 15.21875 9.414063 17.308594 7.445313 2.125 15.117187-2.269531 17.117187-9.667969l4.601563-17.015625c.496094-1.835937-.554687-3.730469-2.375-4.28125zm0 0" fill="#bc4c2e"/><path d="m354.882812 24.976562 4.644532-17.1875c.332031-1.222656 1.269531-2.113281 2.398437-2.445312l-10.984375-3.332031c-1.898437-.574219-3.894531.53125-4.414062 2.445312l-4.644532 17.1875c-1.988281 7.359375 2.085938 15.222657 9.417969 17.3125 2.5.710938 5.023438.671875 7.355469.046875-3.582031-3.492187-5.164062-8.878906-3.773438-14.027344zm0 0" fill="#a0391e"/><path d="m72.425781 324.835938-3.65625-20.261719c-.355469-1.949219.976563-3.804688 2.9375-4.097657l17.609375-2.625c7.539063-1.125 14.878906 3.832032 16.105469 11.355469 1.246094 7.636719-4.007813 14.753907-11.585937 15.882813l-17.433594 2.597656c-1.878906.28125-3.640625-.984375-3.976563-2.851562zm0 0" fill="#bc4c2e"/><path d="m71.859375 423.199219 2.316406-20.453125c.222657-1.972656 2.03125-3.367188 3.996094-3.085938l17.617187 2.542969c7.546876 1.089844 13.152344 7.945313 12.167969 15.503906-1 7.671875-8.074219 12.980469-15.660156 11.886719l-17.445313-2.519531c-1.878906-.269531-3.203124-1.984375-2.992187-3.875zm0 0" fill="#bc4c2e"/><path d="m328.753906 454.453125-54.167968-12.949219c-13.105469-3.144531-25.703126 6.785156-25.703126 20.261719v50.234375c38.285157 0 74.546876-8.671875 106.933594-24.140625-.3125-15.605469-11.203125-29.613281-27.0625-33.40625zm0 0" fill="#ebeaec"/><path d="m347.609375 429.378906c2.394531 14.671875-10.980469 27.027344-25.433594 23.558594l-57.324219-13.769531c-9.367187-2.25-15.96875-10.628907-15.96875-20.261719v-13.347656c0-13.476563 12.597657-23.40625 25.699219-20.261719l51.332031 12.328125c10.894532 2.617188 19.050782 11.675781 20.515626 22.785156zm0 0" fill="#fff"/><path d="m342 374.183594c.59375 13.824218-12.226562 24.367187-25.679688 21.136718l-51.46875-12.359374c-9.363281-2.25-15.96875-10.628907-15.96875-20.261719v-13.429688c0-13.476562 12.597657-23.40625 25.703126-20.261719l46.558593 11.183594c12.039063 2.890625 20.582031 13.582032 20.746094 25.957032zm0 0" fill="#ebeaec"/><path d="m223.183594 441.503906-54.171875 12.949219c-15.855469 3.792969-26.75 17.800781-27.0625 33.40625 32.390625 15.46875 68.648437 24.140625 106.933593 24.140625v-50.234375c0-13.476563-12.597656-23.40625-25.699218-20.261719zm0 0" fill="#dad9dd"/><path d="m150.15625 429.378906c-2.390625 14.671875 10.980469 27.027344 25.433594 23.558594l57.324218-13.769531c9.367188-2.25 15.972657-10.628907 15.972657-20.261719v-13.347656c0-13.476563-12.601563-23.40625-25.703125-20.261719l-51.328125 12.328125c-10.894531 2.617188-19.050781 11.675781-20.515625 22.785156zm0 0" fill="#ebeaec"/><path d="m155.769531 374.183594c-.59375 13.824218 12.226563 24.367187 25.679688 21.136718l51.464843-12.359374c9.367188-2.25 15.96875-10.628907 15.96875-20.261719v-13.429688c0-13.476562-12.597656-23.40625-25.699218-20.261719l-46.5625 11.183594c-12.035156 2.890625-20.578125 13.582032-20.746094 25.957032zm0 0" fill="#dad9dd"/><path d="m311.632812 394.195312-37.046874-8.898437c-13.105469-3.144531-25.703126 6.785156-25.703126 20.261719v13.347656c0 9.632812 6.605469 18.011719 15.96875 20.261719l38 9.125c-15.414062-16.582031-11.074218-43.226563 8.78125-54.097657zm0 0" fill="#ebeaec"/><path d="m309.121094 337.304688-34.535156-8.296876c-13.105469-3.144531-25.703126 6.785157-25.703126 20.261719v13.429688c0 9.632812 6.605469 18.011719 15.96875 20.261719l46.628907 11.199218c-20.335938-13.019531-21.535157-42.210937-2.359375-56.855468zm0 0" fill="#dad9dd"/><path d="m306.632812 286.914062-13.921874-2.535156c-12.09375-2.203125-22.675782-9.464844-29.082032-19.957031l-14.746094-24.152344v66.144531c0 9.632813 6.605469 18.007813 15.96875 20.257813l43.957032 10.558594c-15.03125-13.082031-16-36.019531-2.175782-50.316407zm0 0" fill="#ebeaec"/><path d="m386.550781 419.46875c-6.226562-6.277344-10.070312-14.910156-10.070312-24.445312 0-9.414063 3.75-17.941407 9.828125-24.195313-.03125-.035156-.0625-.070313-.097656-.101563l-24.195313-3.648437c-7.703125-1.164063-14.980469 1.558594-20.019531 6.582031l.003906.523438c.285156 6.574218-2.46875 12.402344-6.878906 16.363281v2.152344c0 4.207031 1.128906 8.171875 3.097656 11.609375 1.757812 1.667968 3.277344 3.578125 4.535156 5.660156 3.382813 3.089844 7.679688 5.226562 12.507813 5.90625l30.636719 4.308594c.214843-.238282.429687-.480469.652343-.714844zm0 0" fill="#dad9dd"/><path d="m274.585938 441.503906c-13.105469-3.144531-25.703126 6.785156-25.703126 20.261719v50.234375c13.390626 0 26.527344-1.074219 39.339844-3.113281-5.988281-20.925781-.6875-44.109375 15.300782-60.464844zm0 0" fill="#dad9dd"/><path d="m413.269531 221.109375c-16.984375-19.773437-28.273437-43.417969-33.167969-68.460937.003907.292968.019532.578124.019532.871093 0 36.242188-29.378906 65.621094-65.617188 65.621094-36.242187 0-65.621094-29.378906-65.621094-65.621094v86.75l14.746094 24.15625c6.40625 10.492188 16.988282 17.753907 29.082032 19.957031l28.683593 5.222657c22.710938 4.136719 45.90625-4.125 60.882813-21.6875l37.269531-43.695313c-2.386719-.152344-4.667969-1.238281-6.277344-3.113281zm0 0" fill="#ebeaec"/><path d="m84.5 221.109375c16.984375-19.773437 28.273438-43.417969 33.164062-68.460937-.003906.292968-.019531.578124-.019531.871093 0 36.242188 29.378907 65.621094 65.621094 65.621094 36.238281 0 65.617187-29.378906 65.617187-65.621094v86.75l-14.746093 24.15625c-6.40625 10.492188-16.988281 17.753907-29.082031 19.957031l-28.683594 5.222657c-22.710938 4.136719-45.902344-4.125-60.882813-21.6875l-37.269531-43.699219c2.390625-.148438 4.667969-1.234375 6.28125-3.109375zm0 0" fill="#dad9dd"/><path d="m416.773438 325.816406-53.695313-8.097656c-8.578125-1.292969-16.625 2.226562-21.644531 8.378906-.851563 2.332032-2.105469 4.449219-3.664063 6.285156-2.070312 5.328126-1.484375 9.445313-1.585937 10.960938 0 11.554688 8.507812 21.539062 20.140625 23.175781l57.652343 8.109375c-.136718-17.613281.992188-33.839844 2.796876-48.8125zm0 0" fill="#fff"/><path d="m419.277344 434.628906c-.601563-3.589844-1.125-7.113281-1.617188-10.609375l-56.382812-8.503906c-5.488282-.824219-10.769532.238281-15.238282 2.671875.4375 2.007812.402344 2.519531 1.574219 11.191406 1.621094 9.945313-4 18.816406-12.292969 22.425782 3.398438 7.855468 10.660157 13.296874 18.933594 14.460937l31.75 4.46875c12.175782-8.078125 23.605469-17.1875 34.148438-27.226563-.097656-2.957031-.378906-5.925781-.875-8.878906zm0 0" fill="#fff"/><path d="m425.34375 324.835938 3.65625-20.261719c.351562-1.949219-.980469-3.804688-2.941406-4.097657l-17.609375-2.625c-7.539063-1.125-14.875 3.832032-16.105469 11.355469-1.246094 7.636719 4.007812 14.753907 11.589844 15.882813l17.429687 2.597656c1.878907.28125 3.640625-.984375 3.980469-2.851562zm0 0" fill="#bc4c2e"/><path d="m103.890625 304.863281c-2.265625 4.410157-6.539063 7.703125-11.800781 8.484375l-20.089844 2.996094c-.378906.054688-.746094.039062-1.109375-.007812l1.535156 8.496093c.335938 1.871094 2.097657 3.132813 3.976563 2.855469l17.429687-2.601562c7.582031-1.128907 12.835938-8.242188 11.589844-15.882813-.257813-1.570313-.792969-3.023437-1.53125-4.339844zm0 0" fill="#a0391e"/><path d="m424.980469 316.003906-19.613281-2.925781c-5.113282-.761719-9.265626-3.945313-11.488282-8.21875-.738281 1.316406-1.273437 2.769531-1.53125 4.347656-1.246094 7.636719 4.007813 14.75 11.585938 15.882813l17.433594 2.597656c1.878906.28125 3.636718-.984375 3.976562-2.851562l1.636719-9.066407c-.617188.238281-1.296875.339844-2 .234375zm0 0" fill="#a0391e"/><path d="m425.90625 423.199219-2.316406-20.453125c-.222656-1.972656-2.03125-3.367188-3.992188-3.085938l-17.621094 2.542969c-7.542968 1.089844-13.152343 7.945313-12.164062 15.503906 1 7.671875 8.074219 12.980469 15.660156 11.886719l17.441406-2.519531c1.882813-.269531 3.207032-1.984375 2.992188-3.875zm0 0" fill="#bc4c2e"/><path d="m425.90625 423.199219-1.046875-9.242188c-.582031.625-1.363281 1.074219-2.273437 1.203125l-19.347657 2.792969c-5.085937.734375-9.957031-1.136719-13.265625-4.605469-.285156 1.398438-.355468 2.863282-.160156 4.359375 1 7.671875 8.074219 12.980469 15.660156 11.886719l17.445313-2.519531c1.878906-.269531 3.203125-1.984375 2.988281-3.875zm0 0" fill="#a0391e"/><path d="m71.859375 423.199219 1.046875-9.242188c.585938.625 1.363281 1.074219 2.273438 1.203125l19.351562 2.792969c5.085938.734375 9.953125-1.136719 13.261719-4.605469.285156 1.398438.355469 2.863282.164062 4.359375-1 7.671875-8.078125 12.980469-15.664062 11.886719l-17.441407-2.519531c-1.878906-.269531-3.203124-1.984375-2.992187-3.875zm0 0" fill="#a0391e"/><path d="m377.03125 443.335938c0-9.25 3.621094-17.648438 9.519531-23.867188-.054687-.054688-.105469-.109375-.15625-.164062l-25.117187-3.789063c-5.488282-.824219-10.769532.242187-15.238282 2.671875.4375 2.003906.402344 2.519531 1.574219 11.191406 1.621094 9.941406-4 18.816406-12.292969 22.425782 3.398438 7.855468 10.660157 13.296874 18.933594 14.460937l31.75 4.464844c.828125-.546875 1.652344-1.09375 2.472656-1.652344-7.023437-6.347656-11.445312-15.527344-11.445312-25.742187zm0 0" fill="#ebeaec"/><path d="m375.890625 346.042969c0-9.726563 4.003906-18.511719 10.445313-24.816407l-23.257813-3.507812c-8.578125-1.292969-16.625 2.226562-21.644531 8.378906-.851563 2.332032-2.105469 4.449219-3.664063 6.285156-2.070312 5.328126-1.484375 9.441407-1.585937 10.960938 0 11.550781 8.507812 21.539062 20.140625 23.175781l29.882812 4.203125c-6.363281-6.292968-10.316406-15.023437-10.316406-24.679687zm0 0" fill="#ebeaec"/><g fill="#fff"><path d="m359.382812 75.097656c-.617187-3.480468-3.9375-5.800781-7.417968-5.1875-3.480469.617188-5.800782 3.941406-5.183594 7.421875s3.9375 5.800781 7.417969 5.183594 5.800781-3.9375 5.183593-7.417969zm0 0"/><path d="m346.464844 97.84375c-1.351563-7.628906-8.632813-12.714844-16.261719-11.363281-7.628906 1.351562-12.71875 8.628906-11.363281 16.257812 1.351562 7.628907 8.628906 12.71875 16.257812 11.367188 7.628906-1.351563 12.71875-8.632813 11.367188-16.261719zm0 0"/></g></svg>