<svg height="512pt" viewBox="0 -30 512.00143 512" width="512pt" xmlns="http://www.w3.org/2000/svg"><path d="m512 225.859375c0 124.738281-101.117188 225.859375-225.859375 225.859375-124.738281 0-225.855469-101.121094-225.855469-225.859375s101.117188-225.859375 225.855469-225.859375c124.742187 0 225.859375 101.121094 225.859375 225.859375zm0 0" fill="#5e73dd"/><path d="m225.789062 134.195312c-78.234374 0-146.917968 40.859376-185.902343 102.398438l360.03125 184.402344c15.675781-9.164063 30.148437-20.15625 43.125-32.691406 1.742187-11.144532 2.664062-22.558594 2.664062-34.191407 0-121.457031-98.460937-219.917969-219.917969-219.917969zm0 0" fill="#ffcb37"/><path d="m395.007812 219.191406c1.351563-.019531 2.699219-.03125 4.054688-.03125.125 0 .246094.003906.371094.003906-93.835938-120.570312-278.171875-111.027343-359.546875 17.429688l268.648437 137.597656c-36.398437-61.695312 1.5-153.613281 86.472656-155zm0 0" fill="#fcac1f"/><path d="m39.886719 236.589844 360.03125 184.402344c13.25-7.742188 25.636719-16.792969 36.992187-26.976563l-371.546875-190.296875c-9.480469 10.109375-18.027343 21.109375-25.476562 32.871094zm0 0" fill="#fcac1f"/><path d="m399.917969 420.996094-360.03125-184.40625-33.769531 12.425781c-7.640626 2.8125-8.277344 13.371094-1.03125 17.082031l344.652343 176.527344c17.726563-5.191406 34.550781-12.5 50.179688-21.628906zm0 0" fill="#ff941f"/><path d="m468.21875 92.21875c-1.824219 1.039062-3.671875 2.0625-5.554688 3.050781-18.855468 12.929688-43.148437 24.253907-74.398437 32.632813-4.394531 1.175781-7.734375 5.101562-7.917969 9.941406-.398437 10.394531-2.265625 17.820312-2.386718 18.519531 0 0 60.25 8.589844 111.730468-28.5-6.066406-12.574219-13.273437-24.496093-21.472656-35.644531zm0 0" fill="#dad9dd"/><path d="m489.738281 127.960938c-.238281.125-.480469.261718-.722656.386718-51.328125 36.53125-111.054687 28.015625-111.054687 28.015625-1.898438 8.414063-5.214844 17.632813-10.957032 25.753907 63.03125 19.234374 107.050782 7.457031 137.398438-14.503907-3.667969-13.777343-8.589844-27.042969-14.664063-39.652343zm0 0" fill="#ebeaec"/><path d="m509.539062 192.460938-38.429687-7.652344-.027344-.003906c-26.988281 9.113281-61.109375 10.425781-104.078125-2.6875-3.84375 5.4375-8.769531 10.386718-15.101562 14.25 0 0 68.457031 58.777343 159.527344 13.503906-.410157-5.867188-1.042969-11.675782-1.890626-17.410156zm0 0" fill="#dad9dd"/><path d="m351.902344 196.367188s44.179687 37.929687 108.769531 29.382812l23.515625 16.035156c3.535156 2.414063 2.820312 7.8125-1.21875 9.226563-25.1875 8.835937-95.296875 26.121093-135.773438-36.546875-3.503906-6.214844-1.382812-14.378906 4.707032-18.097656zm0 0" fill="#ebeaec"/><path d="m437.703125 151.769531-.003906.003907c-33.039063 8.394531-59.738281 4.589843-59.738281 4.589843.121093-.699219 1.988281-8.121093 2.386718-18.519531.183594-4.839844 3.523438-8.765625 7.917969-9.945312 31.25-8.375 55.542969-19.703126 74.398437-32.628907 0 .003907 7.453126 36.871094-24.960937 56.5zm0 0" fill="#ccccce"/><path d="m413.535156 119.960938c-7.878906 2.867187-16.277344 5.527343-25.269531 7.941406-4.394531 1.179687-7.734375 5.105468-7.917969 9.941406-.398437 10.398438-2.265625 17.820312-2.386718 18.519531 0 0 19.121093 2.726563 45.023437-1.523437-14.558594-5.003906-19.523437-23.183594-9.449219-34.878906zm0 0" fill="#bcbcc1"/><path d="m377.960938 156.363281s42.300781 6.03125 86.296874-13.832031c-2.085937 9.375-9.785156 34.03125-34.910156 49.25-18.363281.308594-39.054687-2.558594-62.34375-9.667969 5.742188-8.117187 9.0625-17.335937 10.957032-25.75zm0 0" fill="#dad9dd"/><path d="m418.75 155.480469c-23.722656 3.3125-40.789062.882812-40.789062.882812-1.894532 8.414063-5.214844 17.632813-10.957032 25.753907 15.167969 4.628906 29.222656 7.449218 42.261719 8.773437-10.644531-11.765625-5.511719-30.574219 9.484375-35.410156zm0 0" fill="#ccccce"/><path d="m367.003906 182.113281c30.613282 9.34375 56.726563 11.359375 78.980469 8.453125 0 0-5.144531 23.210938-32.207031 33.707032-38.125-7.519532-61.875-27.90625-61.875-27.90625 6.332031-3.863282 11.257812-8.8125 15.101562-14.253907zm0 0" fill="#ccccce"/><path d="m409.199219 190.890625c.027343 0 .054687.003906.082031.003906-13.039062-1.324219-27.105469-4.148437-42.277344-8.78125-3.84375 5.441407-8.769531 10.386719-15.101562 14.253907 0 0 15.988281 13.710937 42.769531 22.792968-8.398437-11.714844-.085937-28.269531 14.527344-28.269531zm0 0" fill="#bcbcc1"/><path d="m351.902344 196.367188s27.464844 23.570312 70.738281 29.359374c0 0-19.316406 18.007813-51.476563 15.058594-8.644531-6.582031-16.777343-15.183594-23.96875-26.320312-3.503906-6.214844-1.382812-14.378906 4.707032-18.097656zm0 0" fill="#dad9dd"/><path d="m387.722656 216.609375c-22.570312-8.882813-35.820312-20.242187-35.820312-20.242187-6.089844 3.71875-8.210938 11.882812-4.707032 18.097656 6.75 10.453125 14.324219 18.667968 22.378907 25.082031-3.503907-11.757813 5.621093-23.644531 18.148437-22.9375zm0 0" fill="#ccccce"/><path d="m443.757812 64.113281c-29.082031 17.796875-59.527343 25.351563-79.667968 29.714844-13.097656 2.839844-22.578125 14.183594-23.097656 27.578125-.816407 21.003906-6.96875 49.632812-33.203126 57.566406 9.878907 6.636719 16.378907 17.914063 16.378907 30.710938 0 6.890625-1.890625 13.335937-5.171875 18.859375l28.980468-12.882813c-3.507812-6.21875-1.382812-14.378906 4.707032-18.097656 23.808594-14.542969 27.902344-44.3125 28.441406-58.527344.179688-4.695312 3.378906-8.722656 7.917969-9.941406 34.191406-9.167969 60.066406-21.851562 79.585937-36.3125-7.480468-10.242188-15.804687-19.832031-24.871094-28.667969zm0 0" fill="#ebeaec"/><path d="m374.246094 91.523438c-3.605469.863281-7.007813 1.625-10.15625 2.304687-13.097656 2.839844-22.578125 14.1875-23.097656 27.578125-.820313 21.003906-6.972657 49.636719-33.203126 57.566406 9.878907 6.636719 16.378907 17.914063 16.378907 30.710938 0 6.890625-1.890625 13.335937-5.171875 18.859375l28.976562-12.882813c-3.503906-6.214844-1.378906-14.378906 4.710938-18.097656 23.808594-14.539062 27.898437-44.3125 28.441406-58.523438.125-3.238281 1.683594-6.15625 4.125-8.058593-20.105469-1.710938-27.292969-27.5625-11.003906-39.457031zm0 0" fill="#dad9dd"/><path d="m321.421875 191.191406c-10.207031-17.683594-32.820313-23.742187-50.503906-13.53125-17.683594 10.207032-23.742188 32.820313-13.53125 50.503906 10.210937 17.683594 32.820312 23.742188 50.503906 13.53125 17.683594-10.210937 23.742187-32.820312 13.53125-50.503906zm0 0" fill="#fff"/><path d="m295.867188 321.777344-230.503907-118.058594c-9.480469 10.109375-18.023437 21.109375-25.476562 32.875l233.585937 119.636719c-11.191406-16.542969 3.28125-37.90625 22.394532-34.453125zm0 0" fill="#ff941f"/><path d="m273.472656 356.234375c-12.804687-6.558594-225.425781-115.460937-233.585937-119.644531l-33.769531 12.425781c-7.640626 2.8125-8.28125 13.371094-1.03125 17.085937l248.640624 127.347657c-8.714843-15.957031 1.832032-35.511719 19.746094-37.214844zm0 0" fill="#ff7b22"/><path d="m287.550781 172.757812c-5.671875.28125-11.367187 1.871094-16.625 4.90625-17.683593 10.210938-23.742187 32.820313-13.535156 50.503907 10.210937 17.683593 32.824219 23.742187 50.507813 13.535156 5.257812-3.039063 9.480468-7.175781 12.558593-11.949219-30.046875 1.488282-49.257812-31.652344-32.90625-56.996094zm0 0" fill="#ebeaec"/></svg>