<svg height="512pt" viewBox="0 0 512 512" width="512pt" xmlns="http://www.w3.org/2000/svg"><path d="m512 256c0 141.386719-114.613281 256-256 256s-256-114.613281-256-256 114.613281-256 256-256 256 114.613281 256 256zm0 0" fill="#5e73dd"/><path d="m449.414062 423.714844c-.449218-1.964844-.96875-3.6875-1.558593-5.117188-1.699219-4.109375-2.433594-8.558594-2.433594-13.046875 0-67.523437-27.777344-86.109375-41.792969-97.304687-19.0625-15.230469-66.398437-21.289063-80.675781-17.652344-5.894531 1.667969-12.242187-.585938-15.644531-5.683594-1.300782-1.953125-2.277344-3.675781-3.011719-5.199218-3.914063 6.132812-9.140625 11.390624-15.414063 15.316406l-14.035156 8.78125c-11.53125 7.214844-26.167968 7.214844-37.695312 0l-14.042969-8.785156c-6.269531-3.921876-11.492187-9.183594-15.40625-15.3125-.734375 1.527343-1.710937 3.246093-3.011719 5.199218-3.402344 5.097656-9.75 7.351563-15.644531 5.683594-14.277344-3.636719-61.613281 2.421875-80.675781 17.652344-14.015625 11.195312-41.792969 29.78125-41.792969 97.304687 0 4.488281-.734375 8.9375-2.433594 13.046875-.589843 1.429688-1.109375 3.15625-1.558593 5.117188 46.9375 54.082031 116.179687 88.285156 193.414062 88.285156s146.476562-34.203125 193.414062-88.285156zm0 0" fill="#f7c696"/><g fill="#f2ba88"><path d="m400.675781 467.203125c-12.9375-20.175781-9.394531-35.640625-9.394531-35.640625l-29.109375 28.074219 11.503906 14.40625v9.34375c9.351563-4.851563 18.367188-10.257813 27-16.183594zm0 0"/><path d="m117.160156 302.75c-3.316406 1.675781-6.300781 3.503906-8.792968 5.496094-14.015626 11.195312-41.789063 29.78125-41.789063 97.304687 0 4.488281-.734375 8.9375-2.433594 13.046875-.59375 1.429688-1.109375 3.15625-1.558593 5.117188 7.410156 8.539062 15.382812 16.578125 23.847656 24.070312 2.105468-6.976562 4.390625-14.417968 4.710937-15.191406 1.699219-4.105469 2.433594-8.554688 2.433594-13.042969 0-60.671875 22.421875-81.832031 37.140625-93.625-4.632812-8.996093-9.589844-17.097656-13.558594-23.175781zm0 0"/><path d="m303.773438 280.480469c-3.855469 5.800781-8.882813 10.789062-14.890626 14.546875l-14.035156 8.78125c-11.527344 7.214844-26.164062 7.214844-37.695312 0l-14.039063-8.785156c-6.273437-3.921876-11.496093-9.183594-15.410156-15.3125-.03125.066406-.070313.140624-.105469.207031v91.808593h96.175782zm0 0"/></g><path d="m249.414062 347.117188v-32.351563c0-2.285156.769532-4.28125 2.011719-5.847656-4.980469-.648438-9.855469-2.34375-14.273437-5.105469l-14.042969-8.785156c-6.269531-3.925782-11.492187-9.183594-15.40625-15.316406-.03125.066406-.070313.140624-.105469.207031v91.808593h51.371094c-5.933594-6.488281-9.554688-15.125-9.554688-24.609374zm0 0" fill="#e5a876"/><path d="m356.523438 460.695312c-2.609376-3.066406-2.238282-7.667968.828124-10.277343 5.246094-4.464844 9.882813-9.601563 13.785157-15.277344l8.128906-11.835937c2.28125-3.316407 6.820313-4.160157 10.136719-1.878907 3.320312 2.28125 4.160156 6.816407 1.878906 10.136719l-8.128906 11.835938c-4.628906 6.730468-10.128906 12.828124-16.351563 18.125-3.078125 2.617187-7.679687 2.222656-10.277343-.828126zm0 0" fill="#e5a876"/><path d="m141.511719 458.210938c-4.71875-4.472657-8.980469-9.457032-12.660157-14.8125l-8.132812-11.835938c-2.28125-3.320312-1.441406-7.859375 1.878906-10.136719 3.316406-2.28125 7.855469-1.441406 10.136719 1.878907l8.132813 11.835937c3.101562 4.511719 6.691406 8.714844 10.671874 12.484375 2.921876 2.769531 3.046876 7.382812.277344 10.304688-2.761718 2.917968-7.375 3.054687-10.304687.28125zm0 0" fill="#e5a876"/><path d="m377.628906 477.976562c0-5.164062-1.890625-10.183593-5.421875-13.953124-25.140625-26.835938-29.3125-63.316407-28.871093-87.09375h-5.015626c-10.796874 0-20.539062 7.28125-22.804687 17.835937-1.777344 8.273437-10.117187 13.402344-18.328125 11.203125-7.652344-2.050781-12.179688-9.96875-10.582031-17.726562l5.449219-26.472657c-23.53125 8.320313-49.210938 8.320313-72.742188 0l5.449219 26.472657c1.597656 7.757812-2.929688 15.675781-10.582031 17.726562-8.214844 2.199219-16.550782-2.929688-18.328126-11.203125-2.265624-10.554687-12.007812-17.835937-22.804687-17.835937h-5.015625c.433594 23.398437-3.597656 59.089843-27.675781 85.796874-4.21875 4.675782-6.617188 10.714844-6.617188 17.011719.023438.441407.050781.851563.074219 1.273438 36.3125 19.761719 77.9375 30.988281 122.1875 30.988281 43.9375 0 85.28125-11.074219 121.410156-30.574219.085938-1.109375.160156-2.246093.21875-3.449219zm0 0" fill="#ff941f"/><path d="m255.160156 368c-12.128906-.058594-24.246094-2.128906-35.84375-6.230469l5.449219 26.472657c1.597656 7.757812-2.933594 15.675781-10.582031 17.726562-8.214844 2.199219-16.554688-2.929688-18.328125-11.203125-2.265625-10.554687-12.011719-17.835937-22.808594-17.835937h-5.015625c.4375 23.398437-3.59375 59.089843-27.675781 85.796874-4.214844 4.675782-6.613281 10.714844-6.613281 17.011719.019531.441407.046874.851563.074218 1.273438 36.082032 19.636719 77.410156 30.839843 121.34375 30.980469zm0 0" fill="#ff7b22"/><path d="m312.753906 478.144531c-4.636718-.226562-9.242187-1.359375-13.535156-3.40625l-23.296875-11.089843c-5.359375-2.554688-9.867187-19.347657-13.257813-28.683594-1.066406-2.9375-3.851562-4.894532-6.976562-4.894532s-5.910156 1.957032-6.976562 4.894532c-3.394532 9.335937-7.898438 26.128906-13.257813 28.683594l-23.296875 11.089843c-4.296875 2.046875-8.898438 3.179688-13.535156 3.40625 2.101562 8.40625 4.34375 18.203125 6.382812 28.769531 16.476563 3.332032 33.53125 5.085938 50.996094 5.085938 17.234375 0 34.066406-1.714844 50.347656-4.960938 2.042969-10.613281 4.296875-20.457031 6.40625-28.894531zm0 0" fill="#fcac1f"/><path d="m277.804688 464.542969-1.882813-.898438c-5.363281-2.550781-9.867187-19.34375-13.257813-28.679687-1.066406-2.9375-3.851562-4.894532-6.976562-4.894532s-5.910156 1.957032-6.976562 4.894532c-3.394532 9.335937-7.898438 26.128906-13.261719 28.679687l-23.292969 11.09375c-4.296875 2.046875-8.898438 3.179688-13.535156 3.40625 2.101562 8.402344 4.34375 18.203125 6.378906 28.765625 16.480469 3.335938 33.535156 5.089844 51 5.089844 3.664062 0 7.308594-.09375 10.9375-.246094-15.609375-14.746094-9.539062-40.816406 10.867188-47.210937zm0 0" fill="#ff941f"/><path d="m403.035156 300.886719c-.011718-.007813-.027344-.023438-.042968-.03125-20.609376-16.46875-72.75-21.070313-88.183594-17.140625-2.246094.636718-4.554688.734375-6.761719.367187l-21.53125 104.585938c-1.605469 7.808593 3.253906 15.488281 10.996094 17.382812 8.164062 1.992188 16.367187-3.195312 18.039062-11.460937 2.101563-10.371094 11.488281-17.660156 22.074219-17.660156h20.003906c7.082032 0 13.316406-4.660157 15.316406-11.453126 4.132813-14.015624 13.945313-39.648437 30.585938-57.007812 2.097656-2.1875 1.875-5.691406-.496094-7.582031zm0 0" fill="#a0391e"/><path d="m352.464844 346.144531c-23.539063 0-43.371094-15.808593-49.496094-37.382812l-16.453125 79.910156c-1.605469 7.804687 3.253906 15.484375 10.996094 17.378906 8.164062 1.996094 16.367187-3.195312 18.039062-11.457031 2.101563-10.375 11.488281-17.664062 22.074219-17.664062h20.003906c7.082032 0 13.316406-4.660157 15.316406-11.453126 2.351563-7.972656 6.542969-19.710937 12.785157-31.542968-8.96875 7.613281-20.578125 12.210937-33.265625 12.210937zm0 0" fill="#84260d"/><path d="m108.335938 300.886719c.011718-.007813.027343-.023438.042968-.03125 20.609375-16.46875 72.75-21.070313 88.183594-17.140625 2.246094.636718 4.550781.734375 6.761719.367187l21.527343 104.585938c1.609376 7.808593-3.25 15.488281-10.992187 17.382812-8.167969 1.992188-16.367187-3.195312-18.042969-11.460937-2.097656-10.371094-11.488281-17.660156-22.070312-17.660156h-20.003906c-7.085938 0-13.316407-4.660157-15.316407-11.453126-4.132812-14.015624-13.945312-39.648437-30.589843-57.007812-2.097657-2.1875-1.871094-5.691406.5-7.582031zm0 0" fill="#a0391e"/><path d="m158.90625 346.144531c23.535156 0 43.371094-15.808593 49.496094-37.382812l16.449218 79.910156c1.609376 7.804687-3.25 15.484375-10.992187 17.378906-8.167969 1.996094-16.367187-3.195312-18.042969-11.457031-2.097656-10.375-11.488281-17.664062-22.070312-17.664062h-20.003906c-7.085938 0-13.316407-4.660157-15.316407-11.453126-2.351562-7.972656-6.546875-19.710937-12.789062-31.542968 8.972656 7.613281 20.582031 12.210937 33.269531 12.210937zm0 0" fill="#84260d"/><path d="m167.421875 471.671875 13.863281 6.789063c9.726563 4.761718 21.09375 4.820312 30.867188.167968l23.296875-11.09375c12.359375-5.886718 20.234375-18.359375 20.234375-32.050781v-67.472656c-12.300782 0-24.605469-2.082031-36.371094-6.242188l5.449219 26.472657c1.597656 7.757812-2.929688 15.675781-10.582031 17.726562-8.214844 2.199219-16.550782-2.929688-18.328126-11.203125-2.265624-10.554687-12.007812-17.835937-22.804687-17.835937h-5.015625c.402344 21.582031-3.011719 53.617187-22.4375 79.417968 6.410156 6.191406 13.765625 11.375 21.828125 15.324219zm0 0" fill="#ffcb37"/><path d="m255.683594 380.847656v54.636719c0 13.691406 7.875 26.164063 20.238281 32.050781l23.296875 11.09375c9.777344 4.652344 21.144531 4.589844 30.867188-.167968l13.863281-6.789063c8.0625-3.945313 15.414062-9.128906 21.816406-15.316406-19.425781-25.800781-22.828125-57.84375-22.425781-79.425781h-5.019532c-10.792968 0-20.539062 7.28125-22.804687 17.835937-1.773437 8.273437-10.113281 13.402344-18.328125 11.203125-7.652344-2.050781-12.179688-9.96875-10.582031-17.726562l5.449219-26.472657c-11.765626 4.160157-24.066407 6.242188-36.371094 6.242188zm0 0" fill="#f9d987"/><path d="m331.410156 165.96875c-24.410156-9.996094-25.15625-27.953125-32.003906-35.328125-12.964844-2.1875-27.730469-3.425781-43.40625-3.425781s-30.441406 1.238281-43.40625 3.425781c-6.847656 7.375-7.59375 25.332031-32.003906 35.328125l-1.527344 25.503906c-.789062 12.226563 3.324219 24.472656 8.347656 35.644532 4.480469 9.964843 10.035156 23.769531 14.15625 38.785156 3.308594 12.066406 10.941406 22.488281 21.542969 29.121094l14.042969 8.785156c11.53125 7.214844 26.167968 7.214844 37.695312 0l14.035156-8.78125c10.609376-6.636719 18.242188-17.0625 21.554688-29.128906 4.097656-14.941407 9.617188-28.675782 14.082031-38.625 5.039063-11.226563 9.214844-23.503907 8.417969-35.78125zm0 0" fill="#fcd2a4"/><path d="m276.046875 246.5c-.042969 0-4.707031-.101562-8.699219-2.347656-1.960937-1.101563-4.328125-1.238282-6.40625-.363282l-4.941406 2.085938-4.941406-2.085938c-2.078125-.875-4.445313-.742187-6.410156.363282-3.945313 2.222656-8.554688 2.34375-8.738282 2.347656-4.007812.023438-7.246094 3.277344-7.246094 7.289062 0 4.027344 3.261719 7.289063 7.289063 7.289063.722656 0 6.332031-.085937 12.453125-2.582031l4.761719 2.007812c1.742187.734375 3.785156.796875 5.667969 0l4.761718-2.007812c6.117188 2.496094 11.726563 2.582031 12.449219 2.582031 4.027344 0 7.292969-3.261719 7.292969-7.289063-.003906-4.027343-3.265625-7.289062-7.292969-7.289062zm0 0" fill="#f2ba88"/><path d="m294.660156 180.070312-7.621094-1.359374c-8.402343-1.496094-16.882812 3.140624-20.152343 11.027343-1.542969 3.71875.21875 7.984375 3.9375 9.527344 3.703125 1.535156 7.976562-.203125 9.527343-3.941406.683594-1.640625 2.386719-2.570313 4.132813-2.257813l7.617187 1.359375c3.96875.707031 7.75-1.9375 8.457032-5.898437.707031-3.964844-1.933594-7.75-5.898438-8.457032zm0 0" fill="#84260d"/><path d="m237.777344 199.265625c3.71875-1.542969 5.480468-5.808594 3.9375-9.527344-3.269532-7.886719-11.746094-12.519531-20.15625-11.027343l-7.621094 1.359374c-3.960938.707032-6.601562 4.492188-5.894531 8.457032.707031 3.960937 4.492187 6.605468 8.453125 5.898437l7.621094-1.359375c1.75-.304687 3.449218.617188 4.132812 2.257813 1.539062 3.710937 5.796875 5.488281 9.527344 3.941406zm0 0" fill="#84260d"/><path d="m258.292969 264.519531h-4.585938c-4.027343 0-7.292969 3.261719-7.292969 7.289063s3.265626 7.292968 7.292969 7.292968h4.585938c4.027343 0 7.289062-3.265624 7.289062-7.292968 0-4.023438-3.261719-7.289063-7.289062-7.289063zm0 0" fill="#f2ba88"/><path d="m271.832031.503906c-5.238281-.320312-10.515625-.503906-15.832031-.503906-5.53125 0-11.011719.195312-16.453125.539062l3.195313 23.777344h25.890624zm0 0" fill="#ff5252"/><path d="m242.742188 24.316406v25.972656c4.121093-.613281 8.339843-.949218 12.632812-.964843 4.503906-.015625 8.929688.3125 13.253906.949219v-25.957032zm0 0" fill="#84260d"/><path d="m255.375 48.613281c-48.578125.167969-87.585938 40.269531-87.585938 88.847657v103.40625c0 32.425781 17.566407 60.746093 43.695313 75.980468 2.242187 1.308594 5.058594-.339844 5.058594-2.9375v-46.351562c0-4.414063-2.789063-8.339844-6.9375-9.800782-9.863281-3.472656-16.734375-12.433593-16.734375-22.890624v-42.214844c0-3.800782-1.136719-7.515625-3.261719-10.667969l-8.039063-11.90625c-.78125-1.148437-.289062-2.726563 1.003907-3.230469l11.992187-4.6875c8.023438-3.136718 17-2.707031 24.6875 1.183594l21.199219 9.441406c2.359375 1.050782 3.71875 3.550782 3.320313 6.097656l-6.136719 39.339844c-.304688 1.960938.542969 3.929688 2.179687 5.054688l12.941406 8.894531c1.765626 1.210937 4.09375 1.210937 5.855469 0l12.941407-8.894531c1.640624-1.128906 2.484374-3.09375 2.179687-5.054688l-6.136719-39.339844c-.394531-2.546874.964844-5.046874 3.320313-6.097656l21.199219-9.441406c7.6875-3.890625 16.667968-4.320312 24.691406-1.183594l11.988281 4.6875c1.292969.503906 1.785156 2.082032 1.007813 3.230469l-8.039063 11.90625c-2.128906 3.152344-3.265625 6.867187-3.265625 10.667969v42.214844c0 10.457031-6.867188 19.414062-16.734375 22.890624-4.148437 1.464844-6.9375 5.386719-6.9375 9.800782v46.351562c0 2.597656 2.816406 4.246094 5.0625 2.9375 26.128906-15.234375 43.691406-43.554687 43.691406-75.980468v-104.359376c-.003906-48.648437-39.523437-88.0625-88.207031-87.894531zm0 0" fill="#dad9dd"/><path d="m286.457031 125.378906-.242187 40.59375 5.902344-2.628906c7.6875-3.890625 16.667968-4.320312 24.691406-1.183594l11.988281 4.6875c1.292969.507813 1.785156 2.082032 1.007813 3.234375l-8.039063 11.902344c-2.128906 3.152344-3.265625 6.867187-3.265625 10.671875v42.210938c0 6.746093-2.867188 12.855468-7.539062 17.28125h31.894531c.472656-3.691407.722656-7.457032.722656-11.28125v-104.359376c0-30.085937-15.117187-56.640624-38.171875-72.484374-40.382812 8.441406-18.949219 61.355468-18.949219 61.355468zm0 0" fill="#ebeaec"/><path d="m346.636719 141.820312-55.074219-15.152343c-23.484375-6.460938-48.273438-6.460938-71.753906 0l-55.074219 15.152343c-3.441406.949219-5.828125 4.078126-5.828125 7.652344v6.296875c0 3.261719 1.996094 6.191407 5.03125 7.386719l17.632812 6.925781c-.78125-1.152343-.289062-2.726562 1.003907-3.234375l11.992187-4.6875c8.023438-3.132812 17-2.703125 24.6875 1.183594l21.199219 9.441406c2.359375 1.050782 3.71875 3.550782 3.320313 6.097656l-6.136719 39.339844c-.304688 1.964844.542969 3.929688 2.179687 5.054688l12.941406 8.894531c1.765626 1.210937 4.09375 1.210937 5.855469 0l12.941407-8.894531c1.640624-1.125 2.484374-3.089844 2.179687-5.054688l-6.136719-39.339844c-.394531-2.546874.964844-5.046874 3.320313-6.097656l21.199219-9.441406c7.6875-3.890625 16.667968-4.320312 24.691406-1.183594l11.988281 4.6875c1.292969.507813 1.785156 2.082032 1.007813 3.234375l17.628906-6.925781c3.035156-1.195312 5.03125-4.125 5.03125-7.386719v-6.296875c0-3.574218-2.386719-6.703125-5.828125-7.652344zm0 0" fill="#fff"/><path d="m267.597656 178.882812c-.398437-2.546874.960938-5.046874 3.316406-6.097656l15.296876-6.8125c-7.367188-3.75-12.414063-11.398437-12.414063-20.234375 0-8.929687 5.160156-16.652343 12.660156-20.359375-21.949219-5.128906-44.863281-4.707031-66.648437 1.289063l-55.074219 15.152343c-3.445313.949219-5.828125 4.078126-5.828125 7.652344v6.296875c0 3.261719 1.996094 6.191407 5.03125 7.386719l17.628906 6.925781c-.777344-1.152343-.285156-2.726562 1.007813-3.234375l11.988281-4.6875c8.023438-3.132812 17.003906-2.703125 24.691406 1.183594l21.199219 9.441406c2.355469 1.050782 3.71875 3.550782 3.320313 6.097656l-6.136719 39.339844c-.308594 1.964844.539062 3.929688 2.179687 5.054688l12.941406 8.894531c1.761719 1.210937 4.089844 1.210937 5.855469 0l12.941407-8.894531c1.636718-1.125 2.484374-3.089844 2.179687-5.054688zm0 0" fill="#ebeaec"/><path d="m242.742188 49.578125v32.699219c0 7.148437 5.792968 12.945312 12.945312 12.945312 7.148438 0 12.941406-5.796875 12.941406-12.945312v-32.714844c-4.324218-.640625-8.75-.964844-13.253906-.949219-4.292969.015625-8.511719.347657-12.632812.964844zm0 0" fill="#ccccce"/><path d="m255.375 48.613281c-4.292969.015625-8.511719.347657-12.636719.964844v30.980469c0-7.152344 5.796875-12.945313 12.945313-12.945313 7.152344 0 12.945312 5.792969 12.945312 12.945313v-30.996094c-4.324218-.640625-8.75-.964844-13.253906-.949219zm0 0" fill="#bcbcc1"/><path d="m318.75 381.875c-5.609375-9.71875-18.039062-13.046875-27.757812-7.4375-9.71875 5.613281-13.050782 18.039062-7.4375 27.757812 5.613281 9.71875 18.039062 13.050782 27.757812 7.4375 9.71875-5.609374 13.050781-18.039062 7.4375-27.757812zm0 0" fill="#ebeaec"/><path d="m301.160156 392.046875c-3.757812-6.511719-3.488281-14.226563.007813-20.304687-3.457031-.003907-6.957031.855468-10.167969 2.707031-9.71875 5.613281-13.050781 18.039062-7.4375 27.757812 5.609375 9.71875 18.039062 13.050781 27.757812 7.4375 3.207032-1.851562 5.703126-4.457031 7.429688-7.453125-7.015625-.007812-13.832031-3.632812-17.589844-10.144531zm0 0" fill="#dad9dd"/><path d="m227.804688 381.875c-5.613282-9.71875-18.039063-13.046875-27.757813-7.4375-9.722656 5.613281-13.050781 18.039062-7.4375 27.757812 5.609375 9.722657 18.039063 13.050782 27.757813 7.4375 9.71875-5.609374 13.046874-18.039062 7.4375-27.757812zm0 0" fill="#ebeaec"/><path d="m210.21875 371.742188c-3.457031-.003907-6.957031.855468-10.167969 2.707031-9.71875 5.613281-13.050781 18.039062-7.4375 27.757812 5.609375 9.71875 18.039063 13.050781 27.757813 7.4375 3.207031-1.851562 5.703125-4.457031 7.429687-7.453125-15.632812-.023437-25.390625-16.878906-17.582031-30.449218zm0 0" fill="#dad9dd"/><path d="m345.519531 407.109375c-23.019531 29.441406-67.492187 28.878906-89.835937-.855469v29.230469c0 13.691406 7.875 26.164063 20.238281 32.050781l23.296875 11.09375c9.777344 4.652344 21.144531 4.589844 30.867188-.167968l13.863281-6.789063c8.0625-3.945313 15.414062-9.128906 21.816406-15.316406-11.578125-15.378907-17.464844-32.972657-20.246094-49.246094zm0 0" fill="#ffcb37"/><path d="m165.839844 407.109375c23.019531 29.441406 67.496094 28.878906 89.835937-.855469v29.230469c0 13.691406-7.871093 26.164063-20.234375 32.050781l-23.296875 11.09375c-9.777343 4.652344-21.144531 4.589844-30.867187-.167968l-13.863282-6.789063c-8.0625-3.945313-15.414062-9.128906-21.816406-15.316406 11.578125-15.378907 17.460938-32.972657 20.242188-49.246094zm0 0" fill="#fcac1f"/><path d="m209.605469 257.757812c-7.933594-2.792968-13.917969-9.136718-15.964844-16.949218-2.605469 4.40625-7.394531 7.367187-12.882813 7.367187-5.546874 0-10.378906-3.023437-12.96875-7.503906v.195313c0 32.425781 17.5625 60.746093 43.691407 75.980468 2.246093 1.308594 5.0625-.339844 5.0625-2.9375v-46.351562c0-4.414063-2.789063-8.339844-6.9375-9.800782zm0 0" fill="#ccccce"/><path d="m331.476562 248.175781c-5.949218 0-11.074218-3.480469-13.492187-8.503906-1.738281 8.332031-7.90625 15.15625-16.21875 18.085937-4.148437 1.460938-6.9375 5.386719-6.9375 9.800782v46.351562c0 2.597656 2.816406 4.246094 5.058594 2.9375 25.820312-15.050781 43.261719-42.882812 43.671875-74.824218-2.722656 3.722656-7.113282 6.152343-12.082032 6.152343zm0 0" fill="#ccccce"/></svg>