<svg height="512pt" viewBox="0 0 512 512" width="512pt" xmlns="http://www.w3.org/2000/svg"><path d="m512 256c0 78.5-35.328125 148.738281-90.960938 195.699219-14.9375 12.609375-31.339843 23.539062-48.917968 32.511719h-.011719c-29.980469 15.277343-63.347656 24.828124-98.699219 27.210937-5.75.378906-11.558594.578125-17.410156.578125s-11.660156-.199219-17.421875-.578125c-5.957031-.402344-11.867187-1-17.707031-1.8125-28.800782-3.949219-56.070313-12.699219-80.992188-25.398437-17.578125-8.972657-33.980468-19.902344-48.917968-32.511719-55.632813-46.960938-90.960938-117.199219-90.960938-195.699219 0-141.378906 114.621094-256 256-256s256 114.621094 256 256zm0 0" fill="#68fcdf"/><path d="m512 256c0 26.050781-3.890625 51.191406-11.128906 74.871094-32.011719 104.847656-129.542969 181.128906-244.871094 181.128906-104.558594 0-194.488281-62.699219-234.230469-152.550781-14-31.628907-21.769531-66.628907-21.769531-103.449219 0-46.21875 12.25-89.570312 33.679688-127 44.121093 77.070312 127.160156 129 222.320312 129s178.210938-51.929688 222.320312-129c21.429688 37.429688 33.679688 80.78125 33.679688 127zm0 0" fill="#10e2c4"/><path d="m481.261719 377.699219c-7.160157 13.222656-15.433594 25.742187-24.722657 37.429687-.148437.191406-.300781.382813-.460937.570313-46.90625 58.691406-119.097656 96.300781-200.078125 96.300781s-153.171875-37.609375-200.078125-96.300781c-.160156-.1875-.3125-.378907-.460937-.570313-9.289063-11.6875-17.5625-24.207031-24.722657-37.429687zm0 0" fill="#1aba9f"/><path d="m375.839844 275.8125h-19.082032v-61.136719c0-55.792969-45.394531-101.183593-101.1875-101.183593-55.792968 0-101.183593 45.390624-101.183593 101.183593v61.136719h-19.085938v-61.136719c0-66.316406 53.953125-120.265625 120.269531-120.265625 66.316407 0 120.269532 53.949219 120.269532 120.265625zm0 0" fill="#323b5a"/><path d="m404.628906 391.441406c0 2.929688-.078125 5.847656-.25 8.738282-.027344.351562-.050781.699218-.070312 1.050781-.078125 1.199219-.167969 2.398437-.277344 3.589843-.070312.898438-.160156 1.800782-.261719 2.691407-.140625 1.296875-.289062 2.589843-.46875 3.878906-.0625.460937-.121093.910156-.191406 1.371094-.070313.488281-.140625.988281-.21875 1.488281-.109375.71875-.230469 1.449219-.351563 2.171875-.058593.367187-.128906.75-.199218 1.117187-.128906.761719-.269532 1.511719-.417969 2.261719-.140625.769531-.300781 1.527344-.460937 2.300781-.109376.546876-.230469 1.089844-.351563 1.628907-.648437 2.929687-1.378906 5.828125-2.210937 8.691406-.257813.929687-.539063 1.847656-.820313 2.769531-.007813.046875-.027344.097656-.039063.148438-.277343.910156-.570312 1.820312-.867187 2.71875-.011719.03125-.023437.0625-.03125.089844-.160156.472656-.3125.941406-.480469 1.402343-.230468.6875-.46875 1.378907-.71875 2.070313-.320312.890625-.652344 1.777344-.980468 2.660156-.230469.609375-.472657 1.21875-.710938 1.820312-.480469 1.21875-.980469 2.4375-1.5 3.636719-.199219.492188-.421875.980469-.628906 1.472657-.761719 1.71875-1.550782 3.417968-2.371094 5.109374-.320312.648438-.640625 1.308594-.96875 1.949219-1.320312 2.621094-2.710938 5.199219-4.191406 7.742188-.441406.757812-.890625 1.507812-1.351563 2.257812-.257812.449219-.539062.910157-.828125 1.359375-.5.8125-1.011718 1.621094-1.53125 2.421875-.648437 1.019531-1.320312 2.019531-2.007812 3.027344-.402344.59375-.8125 1.191406-1.230469 1.773437-.089844.136719-.191406.277344-.300781.417969-.46875.671875-.941406 1.332031-1.429688 1.992188-.082031.117187-.171875.238281-.261718.359375-.5.667968-1 1.339844-1.507813 2-.660156.867187-1.339844 1.738281-2.019531 2.589844-.0625.058593-.109375.128906-.160156.199218.050781-.058594.097656-.128906.148437-.199218-29.980469 15.277343-63.347656 24.828124-98.699219 27.210937-5.75.378906-11.558594.578125-17.410156.578125s-11.660156-.199219-17.421875-.578125c-5.957031-.402344-11.867187-1-17.707031-1.8125-28.800782-3.949219-56.070313-12.699219-80.992188-25.398437-20.339844-25.421876-32.507812-57.671876-32.507812-92.769532 0-36.671875 13.289062-70.242187 35.308594-96.160156h226.640624c22.019532 25.917969 35.308594 59.488281 35.308594 96.160156zm0 0" fill="#747e9e"/><path d="m404.628906 391.441406c0 2.929688-.078125 5.847656-.25 8.738282-.027344.351562-.050781.699218-.070312 1.050781-.078125 1.199219-.167969 2.398437-.277344 3.589843-.070312.898438-.160156 1.800782-.261719 2.691407-.140625 1.296875-.289062 2.589843-.46875 3.878906-.0625.460937-.121093.910156-.191406 1.371094-.070313.488281-.140625.988281-.21875 1.488281-.109375.71875-.230469 1.449219-.351563 2.171875-.058593.367187-.128906.75-.199218 1.117187-.128906.761719-.269532 1.511719-.417969 2.261719-.140625.769531-.300781 1.527344-.460937 2.300781-.109376.546876-.230469 1.089844-.351563 1.628907-.648437 2.929687-1.378906 5.828125-2.210937 8.691406-.257813.929687-.539063 1.847656-.820313 2.769531-.007813.046875-.027344.097656-.039063.148438-.277343.910156-.570312 1.820312-.867187 2.71875-.011719.03125-.023437.0625-.03125.089844-.160156.472656-.3125.941406-.480469 1.402343-.230468.6875-.46875 1.378907-.71875 2.070313-.320312.890625-.652344 1.777344-.980468 2.660156-.230469.609375-.472657 1.21875-.710938 1.820312-.480469 1.21875-.980469 2.4375-1.5 3.636719-.199219.492188-.421875.980469-.628906 1.472657-.761719 1.71875-1.550782 3.417968-2.371094 5.109374-.320312.648438-.640625 1.308594-.96875 1.949219-1.320312 2.621094-2.710938 5.199219-4.191406 7.742188-.441406.757812-.890625 1.507812-1.351563 2.257812-.257812.449219-.539062.910157-.828125 1.359375-.5.8125-1.011718 1.621094-1.53125 2.421875-.648437 1.019531-1.320312 2.019531-2.007812 3.027344-.402344.59375-.8125 1.191406-1.230469 1.773437-.089844.136719-.191406.277344-.300781.417969-.46875.671875-.941406 1.332031-1.429688 1.992188-.082031.117187-.171875.238281-.261718.359375-.5.667968-1 1.339844-1.507813 2-.660156.867187-1.339844 1.738281-2.019531 2.589844-.0625.058593-.109375.128906-.160156.199218.050781-.058594.097656-.128906.148437-.199218-29.980469 15.277343-63.347656 24.828124-98.699219 27.210937-5.75.378906-11.558594.578125-17.410156.578125s-11.660156-.199219-17.421875-.578125c-5.957031-.402344-11.867187-1-17.707031-1.8125-28.121094-31.339844-45.222656-72.75-45.222656-118.167969 0-35.453125 10.421874-68.472656 28.371093-96.160156h165.300781c22.019532 25.917969 35.308594 59.488281 35.308594 96.160156zm0 0" fill="#474f6f"/><path d="m404.628906 391.441406c0 2.929688-.078125 5.847656-.25 8.738282-.027344.351562-.050781.699218-.070312 1.050781-.078125 1.199219-.167969 2.398437-.277344 3.589843-.070312.898438-.160156 1.800782-.261719 2.691407-.140625 1.296875-.289062 2.589843-.46875 3.878906-.0625.460937-.121093.910156-.191406 1.371094-.070313.488281-.140625.988281-.21875 1.488281-.109375.71875-.230469 1.449219-.351563 2.171875-.058593.367187-.128906.75-.199218 1.117187-.128906.761719-.269532 1.511719-.417969 2.261719-.140625.769531-.300781 1.527344-.460937 2.300781-.109376.546876-.230469 1.089844-.351563 1.628907-.648437 2.929687-1.378906 5.828125-2.210937 8.691406-.257813.929687-.539063 1.847656-.820313 2.769531-.007813.046875-.027344.097656-.039063.148438-.277343.910156-.570312 1.820312-.867187 2.71875-.011719.03125-.023437.0625-.03125.089844-.160156.472656-.3125.941406-.480469 1.402343-.230468.6875-.46875 1.378907-.71875 2.070313-.320312.890625-.652344 1.777344-.980468 2.660156-.230469.609375-.472657 1.21875-.710938 1.820312-.480469 1.21875-.980469 2.4375-1.5 3.636719-.199219.492188-.421875.980469-.628906 1.472657-.761719 1.71875-1.550782 3.417968-2.371094 5.109374-.320312.648438-.640625 1.308594-.96875 1.949219-1.320312 2.621094-2.710938 5.199219-4.191406 7.742188-.441406.757812-.890625 1.507812-1.351563 2.257812-.257812.449219-.539062.910157-.828125 1.359375-.5.8125-1.011718 1.621094-1.53125 2.421875-.648437 1.019531-1.320312 2.019531-2.007812 3.027344-.402344.59375-.8125 1.191406-1.230469 1.773437-.089844.136719-.191406.277344-.300781.417969-.46875.671875-.941406 1.332031-1.429688 1.992188-.082031.117187-.171875.238281-.261718.359375-.5.667968-1 1.339844-1.507813 2-.660156.867187-1.339844 1.738281-2.019531 2.589844h-.011719c-29.980469 15.277343-63.347656 24.828124-98.699219 27.210937-5.75.378906-11.558594.578125-17.410156.578125v-216.71875h113.320312c22.019532 25.917969 35.308594 59.488281 35.308594 96.160156zm0 0" fill="#323b5a"/><path d="m394.105469 257.46875-24.785157 37.8125h-226.644531l-24.777343-37.8125zm0 0" fill="#747e9e"/><path d="m394.105469 257.46875-24.785157 37.8125h-165.300781l-24.777343-37.8125zm0 0" fill="#474f6f"/><path d="m394.105469 257.46875-24.785157 37.8125h-113.316406v-37.8125zm0 0" fill="#323b5a"/><g fill="#fff"><path d="m85.289062 306.652344h-1.523437c-6.753906 0-12.226563-5.472656-12.226563-12.226563v-1.523437h-8.71875v1.523437c0 6.753907-5.472656 12.226563-12.226562 12.226563h-1.523438v8.71875h1.523438c6.753906 0 12.226562 5.472656 12.226562 12.226562v1.523438h8.71875v-1.523438c0-6.753906 5.472657-12.226562 12.226563-12.226562h1.523437zm0 0"/><path d="m137.289062 99.652344h-1.523437c-6.753906 0-12.226563-5.472656-12.226563-12.226563v-1.523437h-8.71875v1.523437c0 6.753907-5.472656 12.226563-12.226562 12.226563h-1.523438v8.71875h1.523438c6.753906 0 12.226562 5.472656 12.226562 12.226562v1.523438h8.71875v-1.523438c0-6.753906 5.472657-12.226562 12.226563-12.226562h1.523437zm0 0"/><path d="m427.839844 306.652344h1.523437c6.753907 0 12.226563-5.472656 12.226563-12.226563v-1.523437h8.71875v1.523437c0 6.753907 5.472656 12.226563 12.226562 12.226563h1.523438v8.71875h-1.523438c-6.753906 0-12.226562 5.472656-12.226562 12.226562v1.523438h-8.71875v-1.523438c0-6.753906-5.472656-12.226562-12.226563-12.226562h-1.523437zm0 0"/><path d="m375.839844 99.652344h1.523437c6.753907 0 12.226563-5.472656 12.226563-12.226563v-1.523437h8.71875v1.523437c0 6.753907 5.472656 12.226563 12.226562 12.226563h1.523438v8.71875h-1.523438c-6.753906 0-12.226562 5.472656-12.226562 12.226562v1.523438h-8.71875v-1.523438c0-6.753906-5.472656-12.226562-12.226563-12.226562h-1.523437zm0 0"/><path d="m274.109375 188.652344h-1.523437c-6.753907 0-12.226563-5.472656-12.226563-12.226563v-1.523437h-8.71875v1.523437c0 6.753907-5.472656 12.226563-12.226563 12.226563h-1.523437v8.71875h1.523437c6.753907 0 12.226563 5.472656 12.226563 12.226562v1.523438h8.71875v-1.523438c0-6.753906 5.472656-12.226562 12.226563-12.226562h1.523437zm0 0"/></g></svg>