<svg height="512pt" viewBox="0 0 512 512" width="512pt" xmlns="http://www.w3.org/2000/svg"><path d="m512 256c0 141.386719-114.613281 256-256 256s-256-114.613281-256-256 114.613281-256 256-256 256 114.613281 256 256zm0 0" fill="#68fcdf"/><path d="m512 256c0 26.050781-3.890625 51.191406-11.128906 74.871094-32.011719 104.847656-129.542969 181.128906-244.871094 181.128906-104.558594 0-194.488281-62.699219-234.230469-152.550781-14-31.628907-21.769531-66.628907-21.769531-103.449219 0-46.21875 12.25-89.570312 33.679688-127 44.121093 77.070312 127.160156 129 222.320312 129s178.210938-51.929688 222.320312-129c21.429688 37.429688 33.679688 80.78125 33.679688 127zm0 0" fill="#10e2c4"/><path d="m30.742188 377.703125c7.15625 13.21875 15.429687 25.738281 24.71875 37.425781 46.898437 59.019532 119.300781 96.871094 200.539062 96.871094s153.640625-37.851562 200.539062-96.871094c9.289063-11.6875 17.5625-24.207031 24.71875-37.425781zm0 0" fill="#1aba9f"/><path d="m273.410156 511.421875c-5.75.378906-11.558594.578125-17.410156.578125s-11.660156-.199219-17.421875-.578125l5.542969-229.402344 1.410156-58.140625.269531-11.097656.078125-3.320312h20.230469l.082031 3.308593.269532 11.089844 1.410156 58.160156zm0 0" fill="#fff"/><path d="m273.410156 511.421875c-5.75.378906-11.558594.578125-17.410156.578125v-302.539062h10.109375l.082031 3.308593.269532 11.089844 1.410156 58.160156zm0 0" fill="#e4ebf8"/><path d="m383.871094 174.675781c-10.386719-24.765625-27.90625-46.46875-51.03125-61.832031-8.707032-5.785156-18.203125-10.660156-28.414063-14.46875-15.972656-5.953125-32.332031-8.769531-48.429687-8.769531-18.585938 0-36.816406 3.765625-53.628906 10.828125-24.757813 10.386718-46.46875 27.90625-61.824219 51.03125-5.785157 8.710937-10.667969 18.203125-14.46875 28.421875-12.828125 34.398437-11.113281 70.667969 2.058593 102.050781 10.386719 24.757812 27.90625 46.46875 51.027344 61.832031 8.710938 5.777344 18.207032 10.660157 28.417969 14.460938 15.960937 5.953125 32.332031 8.777343 48.417969 8.769531 18.589844 0 36.820312-3.765625 53.640625-10.828125 24.757812-10.386719 46.46875-27.90625 61.824219-51.027344 5.785156-8.703125 10.660156-18.207031 14.46875-28.417969 12.820312-34.40625 11.109374-70.675781-2.058594-102.050781zm0 0" fill="#ff3445"/><path d="m385.929688 276.726562c-3.808594 10.210938-8.6875 19.714844-14.46875 28.414063-15.355469 23.125-37.070313 40.644531-61.824219 51.03125-16.820313 7.058594-35.050781 10.828125-53.640625 10.828125v-277.394531c16.097656 0 32.457031 2.816406 48.429687 8.769531 10.210938 3.808594 19.707031 8.683594 28.414063 14.46875 23.125 15.363281 40.644531 37.066406 51.03125 61.832031 13.167968 31.375 14.878906 67.644531 2.058594 102.050781zm0 0" fill="#dd1265"/><path d="m383.871094 174.675781c-49.191406-6.296875-98.101563 14.453125-127.867188 53.628907.839844-13.234376 3.613282-26.578126 8.480469-39.644532 12.828125-34.414062 37.855469-60.710937 68.359375-75.816406 23.121094 15.359375 40.640625 37.070312 51.027344 61.832031zm0 0" fill="#e4ebf8"/><path d="m371.464844 305.144531c-15.363282 23.125-37.074219 40.640625-61.832032 51.03125 6.296876-49.195312-14.457031-98.105469-53.628906-127.871093 13.234375.839843 26.574219 3.617187 39.640625 8.484374 34.414063 12.824219 60.710938 37.855469 75.820313 68.355469zm0 0" fill="#e4ebf8"/><g fill="#fff"><path d="m128.132812 281.933594c10.386719 24.757812 27.902344 46.472656 51.027344 61.832031 30.5-15.105469 55.53125-41.40625 68.355469-75.816406 4.871094-13.066407 7.644531-26.410157 8.484375-39.644531-29.765625 39.175781-78.675781 59.925781-127.867188 53.628906zm0 0"/><path d="m256 228.304688c-13.234375-.839844-26.574219-3.617188-39.640625-8.484376-34.414063-12.824218-60.714844-37.855468-75.820313-68.355468 15.359376-23.125 37.074219-40.644532 61.832032-51.03125-6.296875 49.195312 14.453125 98.105468 53.628906 127.871094zm0 0"/></g></svg>