<svg height="512pt" viewBox="0 0 512 512" width="512pt" xmlns="http://www.w3.org/2000/svg"><path d="m512 256c0 18.191406-1.898438 35.929688-5.511719 53.039062-5.679687 27-15.628906 52.441407-29.097656 75.570313-25.199219 43.300781-62.75 78.53125-107.820313 100.878906-34.191406 16.953125-72.710937 26.492188-113.449218 26.511719h-.121094c-11.480469 0-22.78125-.761719-33.859375-2.230469-28.160156-3.710937-54.871094-12.007812-79.371094-24.121093-45.21875-22.328126-82.890625-57.628907-108.160156-101.039063-13.46875-23.128906-23.417969-48.570313-29.097656-75.570313-3.613281-17.109374-5.511719-34.847656-5.511719-53.039062 0-141.378906 114.621094-256 256-256s256 114.621094 256 256zm0 0" fill="#b5e237"/><path d="m512 256c0 26.050781-3.890625 51.191406-11.128906 74.871094-32.011719 104.847656-129.542969 181.128906-244.871094 181.128906-104.558594 0-194.488281-62.699219-234.230469-152.550781-14-31.628907-21.769531-66.628907-21.769531-103.449219 0-46.21875 12.25-89.570312 33.679688-127 44.121093 77.070312 127.160156 129 222.320312 129s178.210938-51.929688 222.320312-129c21.429688 37.429688 33.679688 80.78125 33.679688 127zm0 0" fill="#95d600"/><path d="m30.742188 377.703125c7.15625 13.21875 15.429687 25.738281 24.71875 37.425781 46.898437 59.019532 119.300781 96.871094 200.539062 96.871094s153.640625-37.851562 200.539062-96.871094c9.289063-11.6875 17.5625-24.207031 24.71875-37.425781zm0 0" fill="#85af12"/><path d="m506.488281 309.039062c-5.679687 27-15.628906 52.441407-29.097656 75.570313-9.210937-3.5-15.78125-14.21875-27.710937-10.289063-15.988282 5.269532-9.640626 26.308594-25.628907 31.578126-15.070312 4.960937-21.582031-13.429688-35.660156-11.167969l-.199219-.210938-44.601562-46.597656 44.601562-46.601563 34.019532-35.539062c11.839843-12.371094 31.027343-12.371094 42.867187 0zm0 0" fill="#c7d9ff"/><path d="m168.410156 347.921875-44.359375 46.347656-.441406.460938c-14.078125-2.261719-20.589844 16.128906-35.660156 11.167969-15.988281-5.269532-9.640625-26.308594-25.628907-31.578126-11.929687-3.929687-18.5 6.789063-27.710937 10.289063-13.46875-23.128906-23.417969-48.570313-29.097656-75.570313l41.410156-43.257812c11.839844-12.371094 31.027344-12.371094 42.867187 0l34.261719 35.789062zm0 0" fill="#fff"/><path d="m388.191406 249.421875v166.566406c-.03125 24.082031-6.242187 48.160157-18.621094 69.5-34.191406 16.953125-72.710937 26.492188-113.449218 26.511719h-31.882813c-.707031-.738281-1.417969-1.480469-2.097656-2.230469-28.160156-3.710937-54.871094-12.007812-79.371094-24.121093-12.441406-21.378907-18.679687-45.519532-18.71875-69.660157v-166.566406c-.039062-34.890625 12.847657-69.792969 38.6875-96.410156 25.78125-26.570313 59.582031-39.851563 93.382813-39.851563h.617187c.839844 0 1.703125.019532 2.550781.039063h.050782c2.039062.050781 4.089844.152343 6.128906.300781 1.019531.070312 2.042969.160156 3.0625.261719.890625.078125 1.777344.179687 2.667969.289062.152343.007813.289062.027344.429687.050781 1 .117188 2 .25 3 .398438.5625.078125 1.121094.160156 1.671875.261719.640625.089843 1.277344.199219 1.917969.308593.992188.167969 1.980469.351563 2.972656.550782.898438.179687 1.796875.367187 2.6875.570312.851563.179688 1.699219.378906 2.550782.589844.140624.019531.269531.058594.398437.097656.832031.191406 1.660156.410156 2.480469.632813.203125.046875.402344.097656.601562.160156.75.199219 1.5.40625 2.25.636719.269532.070312.53125.140625.789063.230468.609375.179688 1.222656.359376 1.832031.5625.539062.160157 1.078125.328126 1.617188.519532.3125.089844.613281.1875.921874.308594.691407.21875 1.371094.460937 2.050782.710937.628906.21875 1.257812.449219 1.890625.6875.117187.03125.238281.082031.359375.132813.910156.339843 1.820312.699218 2.71875 1.058593.070312.019531.140625.050781.210937.089844.910157.359375 1.820313.742187 2.71875 1.128906.039063.011719.070313.03125.109375.050781.902344.390626 1.792969.789063 2.679688 1.199219.132812.050781.261718.113281.382812.183594.660156.296875 1.320313.609375 1.96875.929687.441406.207032.878906.417969 1.320313.660157.667969.316406 1.320312.660156 1.980469 1 .078124.039062.167968.078125.25.128906.890624.46875 1.789062.949219 2.667968 1.4375.859375.472656 1.710938.960937 2.5625 1.460937.199219.101563.398438.222657.597656.351563.691407.410156 1.382813.820313 2.070313 1.25.261719.148437.519531.308594.78125.480469.679687.417968 1.359375.859375 2.03125 1.300781.179687.109375.347656.21875.527344.347656.730469.480469 1.460937.960938 2.179687 1.460938.140625.089843.28125.191406.421875.289062.757813.53125 1.507813 1.058594 2.257813 1.609375.070312.042969.140625.101563.222656.160156.820312.589844 1.628906 1.199219 2.4375 1.820313.859375.652344 1.710938 1.320313 2.5625 2.011719 4.238281 3.398437 8.328125 7.117187 12.230469 11.140625 25.828125 26.617187 38.726562 61.519531 38.679687 96.410156zm0 0" fill="#fff"/><path d="m388.191406 249.421875v166.566406c-.03125 24.082031-6.242187 48.160157-18.621094 69.5-34.191406 16.953125-72.710937 26.492188-113.449218 26.511719h-31.882813c-.707031-.738281-1.417969-1.480469-2.097656-2.230469-25.421875-27.328125-38.140625-62.558593-38.199219-97.789062v-173.53125c-.011718-5.238281.269532-10.488281.828125-15.699219 3.289063-30.960938 16.441407-61 39.46875-84.738281 9.671875-9.960938 20.433594-18.132813 31.882813-24.5.199218-.121094.410156-.230469.609375-.339844 0-.011719.007812-.011719.007812-.011719.839844 0 1.703125.019532 2.550781.039063h.050782c2.039062.050781 4.089844.152343 6.128906.300781 1.019531.070312 2.042969.160156 3.0625.261719.890625.078125 1.777344.179687 2.667969.289062.152343.007813.289062.027344.429687.050781 1 .117188 2 .25 3 .398438.5625.078125 1.121094.160156 1.671875.261719.640625.089843 1.277344.199219 1.917969.308593.992188.167969 1.980469.351563 2.972656.550782.898438.179687 1.796875.367187 2.6875.570312.851563.179688 1.699219.378906 2.550782.589844.140624.019531.269531.058594.398437.097656.832031.191406 1.660156.410156 2.480469.632813.203125.046875.402344.097656.601562.160156.75.199219 1.5.40625 2.25.636719.269532.070312.53125.140625.789063.230468.609375.179688 1.222656.359376 1.832031.5625.539062.160157 1.078125.328126 1.617188.519532.3125.089844.613281.1875.921874.308594.691407.21875 1.371094.460937 2.050782.710937.628906.21875 1.257812.449219 1.890625.6875.117187.03125.238281.082031.359375.132813.910156.339843 1.820312.699218 2.71875 1.058593.070312.019531.140625.050781.210937.089844.910157.359375 1.820313.742187 2.71875 1.128906.039063.011719.070313.03125.109375.050781.902344.390626 1.792969.789063 2.679688 1.199219.132812.050781.261718.113281.382812.183594.660156.296875 1.320313.609375 1.96875.929687.441406.207032.878906.417969 1.320313.660157.667969.316406 1.320312.660156 1.980469 1 .078124.039062.167968.078125.25.128906.890624.46875 1.789062.949219 2.667968 1.4375.859375.472656 1.710938.960937 2.5625 1.460937.199219.101563.398438.222657.597656.351563.691407.410156 1.382813.820313 2.070313 1.25.261719.148437.519531.308594.78125.480469.679687.417968 1.359375.859375 2.03125 1.300781.179687.109375.347656.21875.527344.347656.730469.480469 1.460937.960938 2.179687 1.460938.140625.089843.28125.191406.421875.289062.757813.53125 1.507813 1.058594 2.257813 1.609375.070312.042969.140625.101563.222656.160156.820312.589844 1.628906 1.199219 2.4375 1.820313.859375.652344 1.710938 1.320313 2.5625 2.011719 4.238281 3.398437 8.328125 7.117187 12.230469 11.140625 25.828125 26.617187 38.726562 61.519531 38.679687 96.410156zm0 0" fill="#e4ebf8"/><path d="m388.191406 249.421875v166.566406c-.03125 24.082031-6.242187 48.160157-18.621094 69.5-34.191406 16.953125-72.710937 26.492188-113.449218 26.511719v-398.839844c.199218 0 .410156 0 .609375.011719.847656 0 1.710937.007813 2.558593.027344h.050782c2.039062.050781 4.089844.152343 6.128906.300781 1.019531.070312 2.042969.160156 3.0625.261719.890625.078125 1.777344.179687 2.667969.289062.152343.007813.289062.027344.429687.050781 1 .117188 2 .25 3 .398438.5625.078125 1.121094.160156 1.671875.261719.640625.089843 1.277344.199219 1.917969.308593.992188.167969 1.980469.351563 2.972656.550782.898438.179687 1.796875.367187 2.6875.570312.851563.179688 1.699219.378906 2.550782.589844.140624.019531.269531.058594.398437.097656.832031.191406 1.660156.410156 2.480469.632813.203125.046875.402344.097656.601562.160156.75.199219 1.5.40625 2.25.636719.269532.070312.53125.140625.789063.230468.609375.179688 1.222656.359376 1.832031.5625.539062.160157 1.078125.328126 1.617188.519532.3125.089844.613281.1875.921874.308594.691407.21875 1.371094.460937 2.050782.710937.628906.21875 1.257812.449219 1.890625.6875.117187.03125.238281.082031.359375.132813.910156.339843 1.820312.699218 2.71875 1.058593.070312.019531.140625.050781.210937.089844.910157.359375 1.820313.742187 2.71875 1.128906.039063.011719.070313.03125.109375.050781.902344.390626 1.792969.789063 2.679688 1.199219.132812.050781.261718.113281.382812.183594.660156.296875 1.320313.609375 1.96875.929687.441406.207032.878906.417969 1.320313.660157.667969.316406 1.320312.660156 1.980469 1 .078124.039062.167968.078125.25.128906.890624.46875 1.789062.949219 2.667968 1.4375.859375.472656 1.710938.960937 2.5625 1.460937.199219.101563.398438.222657.597656.351563.691407.410156 1.382813.820313 2.070313 1.25.261719.148437.519531.308594.78125.480469.679687.417968 1.359375.859375 2.03125 1.300781.179687.109375.347656.21875.527344.347656.730469.480469 1.460937.960938 2.179687 1.460938.140625.089843.28125.191406.421875.289062.757813.53125 1.507813 1.058594 2.257813 1.609375.070312.042969.140625.101563.222656.160156.820312.589844 1.628906 1.199219 2.4375 1.820313.859375.652344 1.710938 1.320313 2.5625 2.011719 4.238281 3.398437 8.328125 7.117187 12.230469 11.140625 25.828125 26.617187 38.726562 61.519531 38.679687 96.410156zm0 0" fill="#c7d9ff"/><path d="m167.996094 240.277344c-15.238282 15.921875-1.042969 42.773437 19.960937 37.746094 12.902344-3.089844 25.160157-9.882813 35.214844-20.386719 10.050781-10.503907 16.554687-23.308594 19.511719-36.789063 4.808594-21.945312-20.890625-36.777344-36.128906-20.859375zm0 0" fill="#323b5a"/><path d="m344.246094 240.277344c15.238281 15.921875 1.042968 42.773437-19.960938 37.746094-12.902344-3.089844-25.160156-9.882813-35.214844-20.386719-10.050781-10.503907-16.554687-23.308594-19.511718-36.789063-4.8125-21.945312 20.890625-36.777344 36.128906-20.859375zm0 0" fill="#20273a"/><path d="m297.664062 357.707031h-83.085937c-22.507813 0-33.042969-29.082031-16.199219-44.667969 15.375-14.222656 35.59375-22.859374 57.742188-22.859374 22.148437 0 42.367187 8.636718 57.742187 22.859374 16.84375 15.585938 6.308594 44.667969-16.199219 44.667969zm0 0" fill="#323b5a"/><path d="m297.664062 357.707031h-41.542968v-67.527343c22.148437 0 42.367187 8.636718 57.742187 22.859374 16.84375 15.585938 6.308594 44.667969-16.199219 44.667969zm0 0" fill="#20273a"/></svg>