<svg height="512pt" viewBox="0 0 512 512" width="512pt" xmlns="http://www.w3.org/2000/svg"><path d="m512 256c0 39.558594-8.980469 77.03125-25.011719 110.480469-6.609375 13.808593-14.429687 26.917969-23.308593 39.21875-34.28125 47.480469-84.441407 82.730469-142.691407 97.972656-20.75 5.4375-42.527343 8.328125-64.988281 8.328125-23.53125 0-46.308594-3.171875-67.949219-9.121094-108.402343-29.769531-188.050781-129.027344-188.050781-246.878906 0-141.378906 114.621094-256 256-256s256 114.621094 256 256zm0 0" fill="#9e69e2"/><path d="m512 256c0 26.050781-3.890625 51.191406-11.128906 74.871094-32.011719 104.847656-129.542969 181.128906-244.871094 181.128906-104.558594 0-194.488281-62.699219-234.230469-152.550781-14-31.628907-21.769531-66.628907-21.769531-103.449219 0-46.21875 12.25-89.570312 33.679688-127 44.121093 77.070312 127.160156 129 222.320312 129s178.210938-51.929688 222.320312-129c21.429688 37.429688 33.679688 80.78125 33.679688 127zm0 0" fill="#8e4fd2"/><path d="m481.261719 377.699219c-7.160157 13.222656-15.433594 25.742187-24.722657 37.429687-8.4375 10.632813-17.71875 20.570313-27.71875 29.722656-45.539062 41.699219-106.210937 67.148438-172.820312 67.148438s-127.28125-25.449219-172.820312-67.148438c-10-9.152343-19.28125-19.089843-27.71875-29.722656-9.289063-11.6875-17.5625-24.207031-24.722657-37.429687zm0 0" fill="#7038ba"/><path d="m360.609375 407.5v13.929688c-13.378906 0-24.230469 10.851562-24.230469 24.230468h-181.699218c0-13.378906-10.851563-24.230468-24.230469-24.230468v-13.929688c0-.011719.011719-.03125.03125-.03125h230.097656c.023437 0 .03125.019531.03125.03125zm0 0" fill="#ff9f00"/><path d="m360.609375 407.5v13.929688c-13.378906 0-24.230469 10.851562-24.230469 24.230468h-92.429687v-38.191406h116.628906c.023437 0 .03125.019531.03125.03125zm0 0" fill="#ed771b"/><path d="m323.664062 206.917969v200.527343c0 .015626-.011718.027344-.027343.027344h-160.238281c-.015626 0-.03125-.011718-.03125-.027344v-200.527343c0-.015625.015624-.03125.03125-.03125h160.238281c.015625 0 .027343.015625.027343.03125zm0 0" fill="#fff"/><path d="m323.664062 206.917969v200.527343c0 .015626-.011718.027344-.027343.027344h-120.363281c-.015626 0-.027344-.011718-.027344-.027344v-200.527343c0-.015625.011718-.03125.027344-.03125h120.363281c.015625 0 .027343.015625.027343.03125zm0 0" fill="#e4ebf8"/><path d="m323.664062 206.917969v200.527343c0 .015626-.011718.027344-.027343.027344h-79.652344c-.015625 0-.03125-.011718-.03125-.027344v-200.527343c0-.015625.015625-.03125.03125-.03125h79.652344c.015625 0 .027343.015625.027343.03125zm0 0" fill="#c7d9ff"/><path d="m323.621094 206.882812c.019531 0 .035156.023438.027344.042969-11.953126 32.675781-43.324219 56-80.132813 56-36.8125 0-68.179687-23.324219-80.132813-56-.007812-.019531.003907-.042969.027344-.042969zm0 0" fill="#65b2ff"/><path d="m390.25 395.328125v24.292969c0 .019531-.011719.027344-.03125.027344h-259.738281c-.019531 0-.03125-.007813-.03125-.027344v-24.300782c0-.011718.011719-.03125.03125-.03125h113.46875l146.269531.011719c.019531 0 .03125.007813.03125.027344zm0 0" fill="#ffe955"/><path d="m390.25 395.328125v24.292969c0 .019531-.011719.027344-.03125.027344h-146.269531v-24.359376l146.269531.011719c.019531 0 .03125.007813.03125.027344zm0 0" fill="#ffd112"/><path d="m284.660156 193.757812c-11.363281 11.359376-26.25 17.039063-41.140625 17.039063-14.898437 0-29.785156-5.679687-41.148437-17.039063-22.722656-22.71875-22.722656-59.566406 0-82.292968l2.074218-2.070313c.015626-.015625.039063-.011719.046876.007813 2.632812 7.652344 6.664062 14.867187 12.023437 21.234375 3.589844 4.253906 7.765625 8.125 12.503906 11.496093 4.597657 3.261719 9.472657 5.867188 14.5 7.832032.730469.28125 1.457031.554687 2.1875.808594-.757812-.957032-1.484375-1.921876-2.1875-2.914063-7.042969-9.914063-11.167969-21.476563-12.140625-33.339844-1.246094-15.148437 2.632813-30.800781 12.121094-44.164062.011719-.015625.03125-.015625.046875-.003907l41.113281 41.117188c22.722656 22.722656 22.722656 59.570312 0 82.289062zm0 0" fill="#ffd112"/><path d="m284.660156 193.757812c-11.355468 11.351563-26.230468 17.027344-41.109375 17.039063-.019531 0-.03125-.015625-.03125-.03125v-140.371094c0-.023437.03125-.039062.050781-.019531l41.089844 41.089844c22.722656 22.726562 22.722656 59.574218 0 82.292968zm0 0" fill="#ff9f00"/><path d="m265.882812 169.488281c-6.175781 6.175781-14.273437 9.265625-22.363281 9.265625-8.097656 0-16.195312-3.089844-22.375-9.265625-10.527343-10.527343-12.085937-26.640625-4.652343-38.816406.011718-.015625.035156-.019531.046874-.003906 3.582032 4.242187 7.75 8.101562 12.476563 11.460937 4.597656 3.265625 9.476563 5.871094 14.503906 7.835938.726563.28125 1.457031.554687 2.183594.808594-.753906-.957032-1.480469-1.921876-2.183594-2.914063-7.042969-9.910156-11.167969-21.46875-12.140625-33.328125-.003906-.007812 0-.015625.007813-.023438l12.109375-12.113281c.011718-.011719.03125-.011719.042968 0l22.34375 22.351563c12.355469 12.355468 12.355469 32.386718 0 44.742187zm0 0" fill="#ffe955"/><path d="m265.882812 169.488281c-6.167968 6.167969-14.253906 9.257813-22.332031 9.265625-.019531 0-.03125-.015625-.03125-.03125v-76.277344c0-.023437.03125-.039062.050781-.019531l22.3125 22.320313c12.355469 12.355468 12.355469 32.386718 0 44.742187zm0 0" fill="#ffd112"/><path d="m421.898438 292.578125c-34.367188 1.230469-61.289063 30.132813-61.289063 64.53125v62.621094c0 .019531.011719.03125.03125.03125h62.621094c15.179687 0 29.289062-5.242188 40.417969-14.0625 8.878906-12.300781 16.699218-25.410157 23.308593-39.21875.433594-2.621094.703125-5.300781.800781-8.019531 1.320313-36.902344-28.980468-67.199219-65.890624-65.882813zm1.589843 102.613281h-38.277343c-.019532 0-.03125-.011718-.03125-.03125v-38.28125c0-21.777344 17.511718-39.910156 39.289062-39.769531 21.332031.128906 38.660156 17.449219 38.792969 38.789063.136719 21.78125-17.992188 39.292968-39.773438 39.292968zm0 0" fill="#ff9f00"/><path d="m487.789062 358.460938c-.097656 2.71875-.367187 5.398437-.800781 8.019531-6.609375 13.808593-14.429687 26.917969-23.308593 39.21875-11.128907 8.820312-25.238282 14.0625-40.417969 14.0625h-292.78125c-.019531 0-.03125-.011719-.03125-.03125v-12.230469c0-.011719.011719-.03125.03125-.03125h291.769531c27.910156 0 51.410156-21.910156 52.210938-49.808594.839843-29.550781-23.28125-53.660156-52.820313-52.820312-27.902344.800781-49.820313 24.300781-49.820313 52.210937v38.21875c0 .011719-.011718.03125-.019531.03125h-11.160156c-.019531 0-.03125-.019531-.03125-.03125v-38.160156c0-34.398437 26.921875-63.300781 61.289063-64.53125 36.910156-1.316406 67.210937 28.980469 65.890624 65.882813zm0 0" fill="#ffd112"/><path d="m428.820312 444.851562c-45.539062 41.699219-106.210937 67.148438-172.820312 67.148438s-127.28125-25.449219-172.820312-67.148438zm0 0" fill="#c55835"/><path d="m360.609375 407.46875v12.152344c0 .019531-.007813.027344-.023437.027344h-116.636719v-12.179688zm0 0" fill="#ff9f00"/></svg>