<svg height="512pt" viewBox="0 0 512 512" width="512pt" xmlns="http://www.w3.org/2000/svg"><path d="m512 256c0 80.558594-37.21875 152.449219-95.410156 199.371094-27.699219 22.347656-60.148438 39.027344-95.601563 48.300781-20.75 5.4375-42.527343 8.328125-64.988281 8.328125-23.53125 0-46.308594-3.171875-67.949219-9.121094-31.429687-8.628906-60.429687-23.097656-85.78125-42.160156-62.109375-46.71875-102.269531-121.027344-102.269531-204.71875 0-85.140625 41.558594-160.570312 105.511719-207.109375 11.457031-8.351563 23.636719-15.761719 36.4375-22.140625 24.339843-12.128906 50.878906-20.511719 78.871093-24.339844 7.609376-1.058594 15.320313-1.769531 23.128907-2.128906 1.910156-.089844 3.820312-.160156 5.742187-.203125 2.089844-.0585938 4.199219-.078125 6.308594-.078125 9.230469 0 18.339844.488281 27.320312 1.449219 8.757813.921875 17.390626 2.300781 25.871094 4.101562.648438.128907 1.296875.269531 1.949219.410157 6.289063 1.367187 12.5 2.988281 18.597656 4.828124.703125.210938 1.402344.421876 2.101563.640626 104.351562 32.320312 180.160156 129.589843 180.160156 244.570312zm0 0" fill="#9e69e2"/><path d="m512 256c0 26.050781-3.890625 51.191406-11.128906 74.871094-32.011719 104.847656-129.542969 181.128906-244.871094 181.128906-104.558594 0-194.488281-62.699219-234.230469-152.550781-14-31.628907-21.769531-66.628907-21.769531-103.449219 0-46.21875 12.25-89.570312 33.679688-127 44.121093 77.070312 127.160156 129 222.320312 129s178.210938-51.929688 222.320312-129c21.429688 37.429688 33.679688 80.78125 33.679688 127zm0 0" fill="#8e4fd2"/><path d="m481.261719 377.699219c-7.160157 13.222656-15.433594 25.742187-24.722657 37.429687-8.4375 10.632813-17.71875 20.570313-27.71875 29.722656-45.539062 41.699219-106.210937 67.148438-172.820312 67.148438s-127.28125-25.449219-172.820312-67.148438c-10-9.152343-19.28125-19.089843-27.71875-29.722656-9.289063-11.6875-17.5625-24.207031-24.722657-37.429687zm0 0" fill="#7038ba"/><path d="m443.769531 232.96875v19h-8.371093v29.660156c-11.457032 11.460938-17.878907 17.882813-29.339844 29.339844h-28.058594v20.53125h13.03125l6.75 46.671875h32.230469v19h-20.589844l7.167969 58.199219c-27.699219 22.347656-60.148438 39.027344-95.601563 48.300781-20.75 5.4375-42.527343 8.328125-64.988281 8.328125-23.53125 0-46.308594-3.171875-67.949219-9.121094-31.429687-8.628906-60.429687-23.097656-85.78125-42.160156l7.839844-63.546875h-20.589844v-19h34.640625v-32.261719h-30.121094c-11.460937-11.460937-17.878906-17.878906-29.328124-29.339844v-29.660156h-8.371094v-19h8.371094v-35h.039062l-5.28125-9.601562 21.191406-41.410156 21.191406 41.410156-5.28125 9.601562h.039063v35h8.371094v19h-8.371094v13.191406l13.902344 13.898438h13.648437v-8.089844h-7v-19h7v-49l-10.46875-19 41.96875-82 41.96875 82-10.46875 19v49h7v19h-7v26.011719h29v10.988281l-29 29v6.261719h46.941406v-29.683594h-7.691406v-16.988281h7.691406v-31.328125l-15.773437-15.371094v-30.75h15.371094v15.371094h15.371093v-15.371094h15.378907v15.371094h15.371093v-15.371094h15.378907v30.75l-15.777344 15.371094h-.070313v31.328125h7.6875v16.988281h-7.6875v29.683594h17.75l6.75-46.671875h11.148438v-91.621094h-7v-19h7v-58.160156l-10.46875-19 41.96875-82 41.96875 82-10.46875 19v58.160156h7v19h-7v39.179688h11.601562c5.417969-5.429688 8.457032-8.46875 13.886719-13.898438v-13.191406h-8.367187v-19h8.367187v-35h.050781l-5.289062-9.597656 21.199219-41.410156 21.191406 41.410156-5.289063 9.597656h.046876v35zm0 0" fill="#323b5a"/><path d="m443.769531 232.96875v19h-8.371093v29.660156c-11.457032 11.460938-17.878907 17.882813-29.339844 29.339844h-28.058594v20.53125h13.03125l6.75 46.671875h32.230469v19h-20.589844l7.167969 58.199219c-27.699219 22.347656-60.148438 39.027344-95.601563 48.300781-20.75 5.4375-42.527343 8.328125-64.988281 8.328125v-257.949219h8.449219v15.371094h15.371093v-15.371094h15.378907v30.75l-15.777344 15.371094h-.070313v31.328125h7.6875v16.988281h-7.6875v29.683594h17.75l6.75-46.671875h11.148438v-91.621094h-7v-19h7v-58.160156l-10.46875-19 41.96875-82 41.96875 82-10.46875 19v58.160156h7v19h-7v39.179688h11.601562c5.417969-5.429688 8.457032-8.46875 13.886719-13.898438v-13.191406h-8.367187v-19h8.367187v-35h.050781l-5.289062-9.597656 21.199219-41.410156 21.191406 41.410156-5.289063 9.597656h.046876v35zm0 0" fill="#20273a"/><g fill="#ffd112"><path d="m153.660156 257.398438v7.371093h-8c1.050782-3.742187 4.140625-6.621093 8-7.371093zm0 0"/><path d="m145.261719 268.769531h8.398437v7.027344h-8.398437zm0 0"/><path d="m145.261719 279.796875h8.398437v12.589844h-8.398437zm0 0"/><path d="m165.660156 264.769531h-8v-7.371093c2.070313.398437 3.917969 1.417968 5.351563 2.847656 1.238281 1.242187 2.167969 2.792968 2.648437 4.523437zm0 0"/><path d="m157.660156 268.769531h8.398438v7.027344h-8.398438zm0 0"/><path d="m157.660156 279.796875h8.398438v12.589844h-8.398438zm0 0"/><path d="m79.269531 246.746094v5.125h-5.558593c.726562-2.601563 2.875-4.601563 5.558593-5.125zm0 0"/><path d="m73.429688 254.648438h5.839843v4.886718h-5.839843zm0 0"/><path d="m73.429688 262.316406h5.839843v8.753906h-5.839843zm0 0"/><path d="m87.609375 251.871094h-5.558594v-5.125c1.4375.277344 2.722657.988281 3.71875 1.980468.863281.863282 1.507813 1.941407 1.839844 3.144532zm0 0"/><path d="m82.050781 254.648438h5.839844v4.886718h-5.839844zm0 0"/><path d="m82.050781 262.316406h5.839844v8.753906h-5.839844zm0 0"/><path d="m420.835938 211.804688v5.125h5.558593c-.726562-2.601563-2.875-4.601563-5.558593-5.125zm0 0"/><path d="m420.835938 219.710938h5.839843v4.886718h-5.839843zm0 0"/><path d="m420.835938 227.378906h5.839843v8.75h-5.839843zm0 0"/><path d="m412.492188 216.929688h5.5625v-5.125c-1.4375.28125-2.726563.988281-3.71875 1.980468-.863282.863282-1.507813 1.941406-1.84375 3.144532zm0 0"/><path d="m412.214844 219.710938h5.839844v4.886718h-5.839844zm0 0"/><path d="m412.214844 227.378906h5.839844v8.75h-5.839844zm0 0"/><path d="m255.210938 303.953125v6.585937h-7.148438c.9375-3.339843 3.699219-5.917968 7.148438-6.585937zm0 0"/><path d="m247.703125 314.117188h7.507813v6.28125h-7.507813zm0 0"/><path d="m247.703125 323.976562h7.507813v11.253907h-7.507813zm0 0"/><path d="m265.9375 310.539062h-7.148438v-6.585937c1.847657.359375 3.503907 1.269531 4.78125 2.546875 1.109376 1.109375 1.9375 2.492188 2.367188 4.039062zm0 0"/><path d="m258.789062 314.117188h7.507813v6.28125h-7.507813zm0 0"/><path d="m258.789062 323.976562h7.507813v11.253907h-7.507813zm0 0"/><path d="m344.054688 173.261719v11.523437h-12.507813c1.640625-5.847656 6.472656-10.351562 12.507813-11.523437zm0 0"/><path d="m330.921875 191.039062h13.132813v10.992188h-13.132813zm0 0"/><path d="m330.921875 208.285156h13.132813v19.6875h-13.132813zm0 0"/><path d="m362.816406 184.785156h-12.507812v-11.523437c3.238281.625 6.128906 2.21875 8.367187 4.457031 1.9375 1.9375 3.390625 4.363281 4.140625 7.066406zm0 0"/><path d="m350.308594 191.039062h13.132812v10.992188h-13.132812zm0 0"/><path d="m350.308594 208.285156h13.132812v19.6875h-13.132812zm0 0"/><path d="m153.027344 424.074219v7.367187h-8c1.050781-3.738281 4.140625-6.617187 8-7.367187zm0 0"/><path d="m144.628906 435.441406h8.398438v7.03125h-8.398438zm0 0"/><path d="m144.628906 446.472656h8.398438v8h-8.398438zm0 0"/><path d="m165.027344 431.441406h-8v-7.367187c2.070312.398437 3.921875 1.417969 5.351562 2.847656 1.238282 1.242187 2.171875 2.792969 2.648438 4.519531zm0 0"/><path d="m157.027344 435.441406h8.402344v7.03125h-8.402344zm0 0"/><path d="m157.027344 446.472656h8.402344v8h-8.402344zm0 0"/><path d="m184.128906 424.074219v7.367187h-8c1.050782-3.738281 4.140625-6.617187 8-7.367187zm0 0"/><path d="m175.730469 435.441406h8.398437v7.03125h-8.398437zm0 0"/><path d="m175.730469 446.472656h8.398437v8h-8.398437zm0 0"/><path d="m196.128906 431.441406h-8v-7.367187c2.070313.398437 3.921875 1.417969 5.351563 2.847656 1.238281 1.242187 2.167969 2.792969 2.648437 4.519531zm0 0"/><path d="m188.128906 435.441406h8.398438v7.03125h-8.398438zm0 0"/><path d="m188.128906 446.472656h8.398438v8h-8.398438zm0 0"/><path d="m215.230469 424.074219v7.367187h-8c1.046875-3.738281 4.136719-6.617187 8-7.367187zm0 0"/><path d="m206.828125 435.441406h8.402344v7.03125h-8.402344zm0 0"/><path d="m206.828125 446.472656h8.402344v8h-8.402344zm0 0"/><path d="m227.230469 431.441406h-8v-7.367187c2.070312.398437 3.917969 1.417969 5.347656 2.847656 1.242187 1.242187 2.171875 2.792969 2.652344 4.519531zm0 0"/><path d="m219.230469 435.441406h8.398437v7.03125h-8.398437zm0 0"/><path d="m219.230469 446.472656h8.398437v8h-8.398437zm0 0"/><path d="m300.296875 424.074219v7.367187h-8c1.050781-3.738281 4.140625-6.617187 8-7.367187zm0 0"/><path d="m291.894531 435.441406h8.402344v7.03125h-8.402344zm0 0"/><path d="m291.894531 446.472656h8.402344v8h-8.402344zm0 0"/><path d="m312.296875 431.441406h-8v-7.367187c2.070313.398437 3.917969 1.417969 5.347656 2.847656 1.242188 1.242187 2.171875 2.792969 2.652344 4.519531zm0 0"/><path d="m304.296875 435.441406h8.398437v7.03125h-8.398437zm0 0"/><path d="m304.296875 446.472656h8.398437v8h-8.398437zm0 0"/><path d="m331.394531 424.074219v7.367187h-8c1.050781-3.738281 4.140625-6.617187 8-7.367187zm0 0"/><path d="m322.996094 435.441406h8.398437v7.03125h-8.398437zm0 0"/><path d="m322.996094 446.472656h8.398437v8h-8.398437zm0 0"/><path d="m343.394531 431.441406h-8v-7.367187c2.070313.398437 3.921875 1.417969 5.351563 2.847656 1.238281 1.242187 2.167968 2.792969 2.648437 4.519531zm0 0"/><path d="m335.394531 435.441406h8.402344v7.03125h-8.402344zm0 0"/><path d="m335.394531 446.472656h8.402344v8h-8.402344zm0 0"/><path d="m362.496094 424.074219v7.367187h-8c1.050781-3.738281 4.140625-6.617187 8-7.367187zm0 0"/><path d="m354.097656 435.441406h8.398438v7.03125h-8.398438zm0 0"/><path d="m354.097656 446.472656h8.398438v8h-8.398438zm0 0"/><path d="m374.496094 431.441406h-8v-7.367187c2.070312.398437 3.917968 1.417969 5.351562 2.847656 1.238282 1.242187 2.167969 2.792969 2.648438 4.519531zm0 0"/><path d="m366.496094 435.441406h8.398437v7.03125h-8.398437zm0 0"/><path d="m366.496094 446.472656h8.398437v8h-8.398437zm0 0"/><path d="m258.507812 83.78125h27.390626l-69.738282 78.167969 29.109375-59.730469h-28.960937l26.171875-45.199219h-25.730469l32.941406-56.941406c2.089844-.0585938 4.199219-.078125 6.308594-.078125 3.558594 0 7.109375.0703125 10.628906.21875 5.609375.230469 11.179688.640625 16.691406 1.230469l-20.039062 31.960937 26.566406-1.691406zm0 0"/></g><path d="m258.507812 83.78125h27.390626l-69.738282 78.167969 44.191406-66.949219h-23.851562l27-49.5h-23.671875l26.800781-45.28125c5.609375.230469 11.179688.640625 16.691406 1.230469l-20.039062 31.960937 26.566406-1.691406zm0 0" fill="#ff9f00"/><path d="m117.894531 116.46875h-1.527343c-6.75 0-12.226563-5.472656-12.226563-12.226562v-1.523438h-8.714844v1.523438c0 6.753906-5.472656 12.226562-12.226562 12.226562h-1.523438v8.714844h1.523438c6.753906 0 12.226562 5.476562 12.226562 12.226562v1.527344h8.71875v-1.527344c0-6.75 5.472657-12.226562 12.226563-12.226562h1.523437zm0 0" fill="#fff"/><path d="m256.761719 188.8125h-1.523438c-6.753906 0-12.226562-5.472656-12.226562-12.226562v-1.523438h-8.714844v1.523438c0 6.753906-5.476563 12.226562-12.230469 12.226562h-1.523437v8.714844h1.523437c6.753906 0 12.230469 5.476562 12.230469 12.226562v1.527344h8.714844v-1.527344c0-6.75 5.472656-12.226562 12.226562-12.226562h1.523438zm0 0" fill="#fff"/><path d="m436.164062 106.53125h-1.523437c-6.753906 0-12.226563-5.472656-12.226563-12.226562v-1.523438h-8.71875v1.523438c0 6.753906-5.472656 12.226562-12.226562 12.226562h-1.523438v8.71875h1.523438c6.753906 0 12.226562 5.472656 12.226562 12.226562v1.523438h8.71875v-1.523438c0-6.753906 5.472657-12.230468 12.226563-12.230468h1.523437zm0 0" fill="#fff"/></svg>