<svg height="512pt" viewBox="0 0 512 512" width="512pt" xmlns="http://www.w3.org/2000/svg"><path d="m512 256c0 4.640625-.121094 9.25-.371094 13.820312-2.308594 43.550782-15.519531 84.21875-36.929687 119.320313-.199219.320313-.390625.640625-.589844.949219-7.980469 12.960937-17.078125 25.140625-27.160156 36.429687-12.480469 13.960938-26.46875 26.550781-41.710938 37.5-38.148437 27.421875-84.136719 44.601563-133.96875 47.53125-5.050781.300781-10.140625.449219-15.269531.449219s-10.21875-.148438-15.269531-.449219c-49.269531-2.890625-94.800781-19.730469-132.699219-46.621093-16.460938-11.679688-31.480469-25.257813-44.742188-40.410157-7.359374-8.410156-14.1875-17.308593-20.410156-26.640625-24.6875-37.019531-40-80.839844-42.507812-128.058594-.25-4.570312-.371094-9.179687-.371094-13.820312 0-141.378906 114.621094-256 256-256s256 114.621094 256 256zm0 0" fill="#9e69e2"/><path d="m512 256c0 26.050781-3.890625 51.191406-11.128906 74.871094-32.011719 104.847656-129.542969 181.128906-244.871094 181.128906-104.558594 0-194.488281-62.699219-234.230469-152.550781-14-31.628907-21.769531-66.628907-21.769531-103.449219 0-46.21875 12.25-89.570312 33.679688-127 44.121093 77.070312 127.160156 129 222.320312 129s178.210938-51.929688 222.320312-129c21.429688 37.429688 33.679688 80.78125 33.679688 127zm0 0" fill="#8e4fd2"/><path d="m30.742188 377.703125c7.15625 13.21875 15.429687 25.738281 24.71875 37.425781 46.898437 59.019532 119.300781 96.871094 200.539062 96.871094s153.640625-37.851562 200.539062-96.871094c9.289063-11.6875 17.5625-24.207031 24.71875-37.425781zm0 0" fill="#7038ba"/><path d="m247.109375 424.519531c-5.359375 22.269531-25.109375 40.410157-51.128906 40.410157h-87.949219c-16.460938-11.679688-31.480469-25.257813-44.742188-40.410157-7.359374-8.410156-14.1875-17.308593-20.410156-26.640625 1.160156-3.957031 2.832032-7.878906 5.03125-11.699218l.511719-.898438 19.96875-34.5625 22.640625-39.238281 8.179688-14.160157c10.097656-17.5 27.777343-26.25 45.46875-26.25 17.691406 0 35.371093 8.75 45.46875 26.25l8.179687 14.160157 22.640625 39.238281 19.972656 34.5625.507813.898438c7.199219 12.46875 8.628906 26.03125 5.660156 38.339843zm0 0" fill="#ff3b5a"/><path d="m247.105469 424.523438c-5.351563 22.265624-25.105469 40.410156-51.125 40.410156h-51.300781v-193.863282c17.6875 0 35.375 8.753907 45.472656 26.253907l8.175781 14.152343 22.644531 39.242188 19.964844 34.566406.515625.898438c7.195313 12.460937 8.621094 26.027344 5.652344 38.339844zm0 0" fill="#ba0d5c"/><path d="m220.972656 350.71875h-152.585937l22.648437-39.242188h107.292969zm0 0" fill="#fff"/><path d="m247.109375 424.519531h-183.820313c-7.359374-8.410156-14.1875-17.308593-20.410156-26.640625 1.160156-3.957031 2.832032-7.878906 5.03125-11.699218l.511719-.898438h192.519531l.507813.898438c7.199219 12.46875 8.628906 26.03125 5.660156 38.339843zm0 0" fill="#fff"/><path d="m220.972656 350.71875h-76.292968v-39.242188h53.648437zm0 0" fill="#e4ebf8"/><path d="m247.105469 424.523438h-102.425781v-39.238282h96.257812l.515625.898438c7.195313 12.460937 8.621094 26.027344 5.652344 38.339844zm0 0" fill="#e4ebf8"/><path d="m328.382812 207.238281c-3.785156 15.734375-17.742187 28.554688-36.128906 28.554688h-72.507812c-18.386719 0-32.34375-12.820313-36.128906-28.554688-2.097657-8.703125-1.089844-18.289062 3.996093-27.09375l.363281-.636719 14.109376-24.429687 16.003906-27.726563 5.773437-10.003906c7.140625-12.367187 19.636719-18.554687 32.136719-18.554687 12.496094 0 24.996094 6.1875 32.132812 18.554687l5.777344 10.003906 16.003906 27.726563 14.109376 24.429687.363281.636719c5.085937 8.804688 6.09375 18.390625 3.996093 27.09375zm0 0" fill="#ffd112"/><path d="m328.382812 207.238281c-3.785156 15.734375-17.742187 28.554688-36.128906 28.554688h-36.253906v-137c12.496094 0 24.996094 6.1875 32.132812 18.554687l5.777344 10.003906 16.003906 27.726563 14.109376 24.429687.363281.636719c5.085937 8.804688 6.09375 18.390625 3.996093 27.09375zm0 0" fill="#ff9f00"/><path d="m309.914062 155.078125h-107.828124l16.003906-27.730469h75.820312zm0 0" fill="#fff"/><path d="m328.382812 207.238281h-144.765624c-2.097657-8.703125-1.089844-18.289062 3.996093-27.09375l.363281-.636719h136.046876l.363281.636719c5.085937 8.804688 6.09375 18.390625 3.996093 27.09375zm0 0" fill="#fff"/><path d="m309.914062 155.078125h-53.914062v-27.730469h37.910156zm0 0" fill="#e4ebf8"/><path d="m328.382812 207.238281h-72.382812v-27.730469h68.023438l.363281.636719c5.085937 8.804688 6.09375 18.390625 3.996093 27.09375zm0 0" fill="#e4ebf8"/><path d="m474.699219 389.140625c-.199219.320313-.390625.640625-.589844.949219-7.980469 12.960937-17.078125 25.140625-27.160156 36.429687-12.480469 13.960938-26.46875 26.550781-41.710938 37.5h-66.949219c-24.160156 0-42.488281-16.839843-47.460937-37.5-2.757813-11.429687-1.429687-24.03125 5.25-35.597656l.480469-.832031 18.53125-32.078125 21.019531-36.433594 7.589844-13.136719c9.371093-16.242187 25.789062-24.363281 42.199219-24.363281 16.421874 0 32.839843 8.121094 42.210937 24.363281l7.589844 13.136719 21.019531 36.433594zm0 0" fill="#b5e237"/><path d="m474.699219 389.140625c-.199219.320313-.390625.640625-.589844.949219-7.980469 12.960937-17.078125 25.140625-27.160156 36.429687-12.480469 13.960938-26.46875 26.550781-41.710938 37.5h-19.339843v-179.941406c16.421874 0 32.839843 8.121094 42.210937 24.363281l7.589844 13.136719 21.019531 36.433594zm0 0" fill="#85af12"/><path d="m456.722656 358.003906h-141.632812l21.019531-36.421875h99.589844zm0 0" fill="#fff"/><path d="m474.109375 390.089844c-7.980469 12.960937-17.078125 25.140625-27.160156 36.429687h-156.121094c-2.757813-11.429687-1.429687-24.03125 5.25-35.597656l.480469-.832031zm0 0" fill="#fff"/><g fill="#e4ebf8"><path d="m456.722656 358.003906h-70.816406v-36.421875h49.792969zm0 0"/><path d="m474.109375 390.089844c-7.980469 12.960937-17.078125 25.140625-27.160156 36.429687h-61.050781v-36.429687zm0 0"/></g></svg>