<svg height="512pt" viewBox="0 0 512 512" width="512pt" xmlns="http://www.w3.org/2000/svg"><path d="m512 256c0 89.480469-45.910156 168.238281-115.460938 214.011719-9.429687 6.199219-19.289062 11.796875-29.539062 16.726562-23.390625 11.28125-48.75 19.101563-75.441406 22.8125-11.617188 1.609375-23.488282 2.449219-35.558594 2.449219h-.011719c-12.058593 0-23.929687-.839844-35.546875-2.449219-26.691406-3.710937-52.0625-11.53125-75.453125-22.820312-10.238281-4.929688-20.097656-10.519531-29.527343-16.71875-69.550782-45.773438-115.460938-124.53125-115.460938-214.011719 0-141.378906 114.621094-256 256-256s256 114.621094 256 256zm0 0" fill="#ffe955"/><path d="m512 256c0 26.050781-3.890625 51.191406-11.128906 74.871094-32.011719 104.847656-129.542969 181.128906-244.871094 181.128906-104.558594 0-194.488281-62.699219-234.230469-152.550781-14-31.628907-21.769531-66.628907-21.769531-103.449219 0-46.21875 12.25-89.570312 33.679688-127 44.121093 77.070312 127.160156 129 222.320312 129s178.210938-51.929688 222.320312-129c21.429688 37.429688 33.679688 80.78125 33.679688 127zm0 0" fill="#ffd112"/><path d="m30.742188 377.703125c7.15625 13.21875 15.429687 25.738281 24.71875 37.425781 46.898437 59.019532 119.300781 96.871094 200.539062 96.871094s153.640625-37.851562 200.539062-96.871094c9.289063-11.6875 17.5625-24.207031 24.71875-37.425781zm0 0" fill="#ff9f00"/><path d="m405.296875 288.917969c0 82.453125-66.84375 149.296875-149.296875 149.296875s-149.296875-66.84375-149.296875-149.296875c0-28.851563 8.183594-55.796875 22.371094-78.632813 26.324219-42.417968 73.324219-70.664062 126.925781-70.664062s100.601562 28.246094 126.925781 70.664062c14.1875 22.835938 22.371094 49.78125 22.371094 78.632813zm0 0" fill="#c55835"/><path d="m405.296875 288.917969c0 82.453125-66.84375 149.296875-149.296875 149.296875v-298.59375c53.601562 0 100.601562 28.246094 126.925781 70.664062 14.1875 22.835938 22.371094 49.78125 22.371094 78.632813zm0 0" fill="#a63914"/><path d="m256 139.621094v70.664062h-126.925781c26.324219-42.417968 73.324219-70.664062 126.925781-70.664062zm0 0" fill="#a63914"/><path d="m382.925781 210.285156h-126.925781v-70.664062c53.601562 0 100.601562 28.246094 126.925781 70.664062zm0 0" fill="#7a2d1a"/><g fill="#e4ebf8"><path d="m190.863281 201.601562 10.390625-10.121093c2.171875-2.191407 5.226563-3.234375 8.292969-2.894531 1.824219.199218 3.71875-.40625 5.105469-1.8125 2.304687-2.339844 2.378906-6.132813.160156-8.550782-1.691406-1.839844-4.195312-2.417968-6.402344-1.742187.632813-2.140625.089844-4.558594-1.632812-6.226563-2.359375-2.285156-6.15625-2.320312-8.554688-.078125-1.511718 1.417969-2.152344 3.390625-1.925781 5.285157.367187 3.058593-.644531 6.128906-2.816406 8.316406l-10.386719 10.125c-2.171875 2.191406-5.230469 3.234375-8.292969 2.894531-1.824219-.203125-3.71875.402344-5.109375 1.8125-2.304687 2.335937-2.375 6.128906-.15625 8.546875 1.6875 1.839844 4.195313 2.417969 6.398438 1.742188-.632813 2.144531-.085938 4.558593 1.636718 6.226562 2.359376 2.285156 6.15625 2.320312 8.550782.078125 1.515625-1.414063 2.15625-3.390625 1.929687-5.28125-.371093-3.0625.644531-6.128906 2.8125-8.320313zm0 0"/><path d="m341.222656 229.691406 10.390625-10.121094c2.167969-2.191406 5.226563-3.234374 8.292969-2.894531 1.820312.203125 3.714844-.402343 5.105469-1.8125 2.304687-2.339843 2.378906-6.132812.15625-8.550781-1.6875-1.835938-4.195313-2.417969-6.398438-1.742188.632813-2.140624.085938-4.558593-1.632812-6.226562-2.359375-2.285156-6.15625-2.320312-8.554688-.074219-1.511719 1.414063-2.152343 3.390625-1.925781 5.28125.367188 3.0625-.648438 6.128907-2.816406 8.320313l-10.390625 10.121094c-2.171875 2.191406-5.226563 3.234374-8.292969 2.894531-1.820312-.203125-3.71875.402343-5.105469 1.8125-2.304687 2.335937-2.378906 6.132812-.15625 8.550781 1.6875 1.835938 4.195313 2.414062 6.398438 1.742188-.632813 2.140624-.085938 4.558593 1.636719 6.226562 2.355468 2.285156 6.152343 2.320312 8.550781.074219 1.511719-1.414063 2.15625-3.390625 1.925781-5.28125-.367188-3.0625.644531-6.128907 2.816406-8.320313zm0 0"/><path d="m264.867188 174.96875 13.988281 3.832031c2.992187.757813 5.4375 2.867188 6.699219 5.679688.75 1.675781 2.230468 3.003906 4.148437 3.488281 3.183594.800781 6.492187-1.058594 7.453125-4.199219.730469-2.382812-.042969-4.839843-1.742188-6.398437 2.167969-.539063 3.976563-2.234375 4.539063-4.5625.777344-3.191406-1.113281-6.484375-4.265625-7.414063-1.984375-.585937-4.015625-.140625-5.53125 1.015625-2.453125 1.867188-5.609375 2.546875-8.597656 1.785156l-13.992188-3.828124c-2.988281-.761719-5.433594-2.871094-6.695312-5.683594-.75-1.675782-2.230469-3.003906-4.148438-3.484375-3.183594-.804688-6.492187 1.054687-7.453125 4.195312-.730469 2.386719.042969 4.839844 1.742188 6.398438-2.167969.539062-3.976563 2.234375-4.542969 4.5625-.773438 3.191406 1.117188 6.484375 4.269531 7.414062 1.984375.589844 4.015625.140625 5.527344-1.011719 2.457031-1.871093 5.613281-2.550781 8.601563-1.789062zm0 0"/><path d="m152.640625 243.414062 13.992187 3.832032c2.988282.761718 5.433594 2.867187 6.695313 5.683594.75 1.671874 2.230469 3 4.152344 3.484374 3.179687.800782 6.488281-1.058593 7.449219-4.195312.730468-2.386719-.042969-4.839844-1.738282-6.402344 2.167969-.539062 3.972656-2.230468 4.539063-4.5625.773437-3.191406-1.117188-6.480468-4.265625-7.414062-1.988282-.585938-4.015625-.136719-5.53125 1.015625-2.453125 1.871093-5.613282 2.546875-8.601563 1.789062l-13.988281-3.832031c-2.988281-.761719-5.4375-2.867188-6.699219-5.683594-.75-1.671875-2.230469-3-4.148437-3.484375-3.183594-.800781-6.492188 1.058594-7.449219 4.195313-.730469 2.386718.039063 4.84375 1.738281 6.402344-2.167968.539062-3.972656 2.230468-4.539062 4.5625-.777344 3.191406 1.117187 6.480468 4.265625 7.414062 1.984375.585938 4.015625.136719 5.53125-1.015625 2.453125-1.867187 5.609375-2.550781 8.597656-1.789063zm0 0"/><path d="m249.183594 227.515625 10.144531 10.367187c2.199219 2.164063 3.25 5.21875 2.917969 8.285157-.199219 1.824219.410156 3.71875 1.824218 5.101562 2.339844 2.300781 6.136719 2.363281 8.546876.136719 1.835937-1.691406 2.40625-4.199219 1.730468-6.402344 2.140625.628906 4.554688.074219 6.21875-1.648437 2.28125-2.367188 2.308594-6.164063.058594-8.554688-1.421875-1.511719-3.398438-2.144531-5.285156-1.914062-3.0625.375-6.132813-.632813-8.328125-2.796875l-10.148438-10.363282c-2.195312-2.167968-3.246093-5.21875-2.914062-8.289062.195312-1.824219-.414063-3.714844-1.824219-5.101562-2.34375-2.300782-6.136719-2.363282-8.550781-.136719-1.832031 1.691406-2.40625 4.203125-1.726563 6.40625-2.144531-.628907-4.558594-.078125-6.21875 1.648437-2.28125 2.363282-2.308594 6.160156-.058594 8.554688 1.417969 1.507812 3.398438 2.144531 5.285157 1.914062 3.0625-.378906 6.132812.628906 8.328125 2.792969zm0 0"/></g><path d="m452.890625 267.011719-56.351563 203c-9.429687 6.199219-19.289062 11.796875-29.539062 16.726562-23.390625 11.28125-48.75 19.101563-75.441406 22.8125-11.617188 1.609375-23.488282 2.449219-35.558594 2.449219h-.011719c-12.058593 0-23.929687-.839844-35.546875-2.449219-26.691406-3.710937-52.0625-11.53125-75.453125-22.820312-10.238281-4.929688-20.097656-10.519531-29.527343-16.71875l-56.351563-203 47.660156 26.386719 1.558594.863281 49.222656-27.25 49.21875 27.25 49.21875-27.25.011719.007812 49.21875 27.242188 49.222656-27.25 49.21875 27.238281v.011719h.011719l1.558594-.863281zm0 0" fill="#dd1265"/><path d="m452.890625 267.011719-56.351563 203c-9.429687 6.199219-19.289062 11.796875-29.539062 16.726562-23.390625 11.28125-48.75 19.101563-75.441406 22.8125-11.617188 1.609375-23.488282 2.449219-35.558594 2.449219h-.011719v-244.988281l.011719.007812 49.21875 27.242188 49.222656-27.25 49.21875 27.238281v.011719h.011719l1.558594-.863281zm0 0" fill="#ba0d5c"/><path d="m220.441406 509.550781c-26.691406-3.710937-52.0625-11.53125-75.453125-22.820312l-26.648437-139.910157v-.011718l-10.011719-52.546875 49.222656-27.25 49.21875 27.25 2.308594 36.4375v.011719l1.28125 20.148437 2 31.371094 2.25 35.429687.101563 1.648438.847656 13.371094.589844 9.261718zm0 0" fill="#8e4fd2"/><path d="m403.660156 294.25v.011719l-10.019531 52.589843v.019532l-26.640625 139.867187c-23.390625 11.28125-48.75 19.101563-75.441406 22.8125l4.292968-67.601562.578126-9.269531.960937-15.019532 2.238281-35.410156 3.28125-51.550781 2.308594-36.4375 49.222656-27.25zm0 0" fill="#7038ba"/><path d="m288.398438 470.542969c-1.113282 6.972656-4.421876 13.210937-9.199219 17.984375-5.933594 5.9375-14.136719 9.609375-23.195313 9.609375h-.003906c-1.089844 0-2.164062-.050781-3.230469-.15625-14.875-1.453125-26.835937-12.835938-29.164062-27.433594-.410157-2.578125 1.617187-4.898437 4.226562-4.898437 1.816407 0 3.464844.734374 4.65625 1.925781.578125.578125 1.046875 1.261719 1.375 2.015625.359375.808594.554688 1.703125.554688 2.644531v1.210937c0 1.273438.363281 2.460938.988281 3.472657 1.164062 1.867187 3.238281 3.113281 5.601562 3.113281h1.210938c3.636719 0 6.585938-2.949219 6.585938-6.585938v-1.210937c0-3.636719 2.953124-6.585937 6.589843-6.585937h1.210938c3.636719 0 6.585937 2.949218 6.585937 6.585937v1.210937c0 3.636719 2.953125 6.585938 6.589844 6.585938h1.207031c3.640625 0 6.589844-2.949219 6.589844-6.585938v-1.210937c0-3.636719 2.949219-6.585937 6.585937-6.585937h.003907c2.613281 0 4.640625 2.320312 4.230469 4.894531zm0 0" fill="#fff"/><path d="m288.398438 470.542969c-1.113282 6.972656-4.421876 13.210937-9.199219 17.984375-5.933594 5.9375-14.136719 9.609375-23.195313 9.609375h-.003906c-1.089844 0-2.164062-.050781-3.230469-.15625-8.179687-4.507813-14.464843-12.027344-17.363281-21.0625 1.164062 1.867187 3.238281 3.113281 5.601562 3.113281h1.210938c3.636719 0 6.585938-2.949219 6.585938-6.585938v-1.210937c0-3.636719 2.953124-6.585937 6.589843-6.585937h1.210938c3.636719 0 6.585937 2.949218 6.585937 6.585937v1.210937c0 3.636719 2.953125 6.585938 6.589844 6.585938h1.207031c3.640625 0 6.589844-2.949219 6.589844-6.585938v-1.210937c0-3.636719 2.949219-6.585937 6.585937-6.585937h.003907c2.613281 0 4.640625 2.320312 4.230469 4.894531zm0 0" fill="#e4ebf8"/><path d="m330.515625 402.980469c.164063 22.128906-9.324219 42.046875-24.503906 55.796875v.003906c-1.492188 1.347656-3.871094.289062-3.871094-1.71875v-3.023438c0-2.667968-2.164063-4.828124-4.832031-4.828124h-3.519532c-2.667968 0-4.832031 2.160156-4.832031 4.828124v3.523438c0 2.667969-2.164062 4.828125-4.828125 4.828125h-3.523437c-2.667969 0-4.832031-2.160156-4.832031-4.828125v-3.523438c0-2.667968-2.160157-4.828124-4.828126-4.828124h-3.519531c-2.667969 0-4.832031 2.160156-4.832031 4.828124v3.523438c0 2.667969-2.164062 4.828125-4.832031 4.828125h-3.519531c-.539063 0-1.058594-.089844-1.542969-.253906-.460938-.152344-.890625-.375-1.273438-.652344-1.222656-.875-2.015625-2.308594-2.015625-3.921875v-3.523438c0-2.667968-2.164062-4.828124-4.828125-4.828124h-3.519531c-1.753906 0-3.289062.929687-4.132812 2.324218-.445313.730469-.703126 1.585938-.703126 2.503906v3.523438c0 2.664062-2.160156 4.828125-4.828124 4.828125h-3.519532c-2.667968 0-4.832031-2.164063-4.832031-4.828125v-3.523438c0-2.667968-2.164063-4.828124-4.832031-4.828124h-3.519532c-2.667968 0-4.832031 2.160156-4.832031 4.828124v3.03125c0 2.003907-2.375 3.058594-3.859375 1.71875l-.007812-.007812c-15.054688-13.632812-24.515625-33.332031-24.515625-55.238281 0-40.691407 32.613281-73.761719 73.125-74.507813.464843-.007812.929687-.011718 1.394531-.011718.179688 0 .351562 0 .527344.003906 40.726562.269531 73.683594 32.984375 73.988281 73.953125zm0 0" fill="#fff"/><path d="m330.515625 402.980469c.164063 22.128906-9.324219 42.046875-24.503906 55.796875v.003906c-1.492188 1.347656-3.871094.289062-3.871094-1.71875v-3.023438c0-2.667968-2.164063-4.828124-4.832031-4.828124h-3.519532c-2.667968 0-4.832031 2.160156-4.832031 4.828124v3.523438c0 2.667969-2.164062 4.828125-4.828125 4.828125h-3.523437c-2.667969 0-4.832031-2.160156-4.832031-4.828125v-3.523438c0-2.667968-2.160157-4.828124-4.828126-4.828124h-3.519531c-2.667969 0-4.832031 2.160156-4.832031 4.828124v3.523438c0 2.667969-2.164062 4.828125-4.832031 4.828125h-3.519531c-.539063 0-1.058594-.089844-1.542969-.253906-.425781-.210938-.851563-.425781-1.273438-.652344-1.222656-.875-2.015625-2.308594-2.015625-3.921875v-3.523438c0-2.667968-2.164062-4.828124-4.828125-4.828124h-3.519531c-1.753906 0-3.289062.929687-4.132812 2.324218-15.273438-13.4375-24.910157-33.128906-24.910157-55.066406 0-30.265625 18.339844-56.246094 44.507813-67.445312 40.726562.273437 73.683594 32.988281 73.988281 73.957031zm0 0" fill="#e4ebf8"/><path d="m330.515625 402.980469c.164063 22.128906-9.324219 42.046875-24.503906 55.796875v.003906c-1.492188 1.347656-3.871094.289062-3.871094-1.71875v-3.023438c0-2.667968-2.164063-4.828124-4.832031-4.828124h-3.519532c-2.667968 0-4.832031 2.160156-4.832031 4.828124v3.523438c0 2.667969-2.164062 4.828125-4.828125 4.828125h-3.523437c-2.667969 0-4.832031-2.160156-4.832031-4.828125v-3.523438c0-2.667968-2.160157-4.828124-4.828126-4.828124h-3.519531c-2.667969 0-4.832031 2.160156-4.832031 4.828124v3.523438c0 2.667969-2.164062 4.828125-4.832031 4.828125h-1.761719v-133.367187c40.972656-.007813 74.210938 32.8125 74.515625 73.957031zm0 0" fill="#c7d9ff"/><path d="m253.128906 419.21875-7.230468 12.519531c-1.273438 2.210938.320312 4.976563 2.875 4.976563h14.457031c2.554687 0 4.148437-2.765625 2.871093-4.976563l-7.226562-12.519531c-1.277344-2.210938-4.46875-2.210938-5.746094 0zm0 0" fill="#313b5a"/><path d="m249.105469 406.890625c.003906-.195313.003906-.390625.003906-.585937 0-14.921876-11.941406-26.976563-26.863281-27.113282-15.089844-.136718-27.363282 12.054688-27.363282 27.113282v.25c.078126 8.414062 6.964844 15.179687 15.378907 15.179687h23.472656c8.285156 0 15.191406-6.558594 15.371094-14.84375zm0 0" fill="#313b5a"/><path d="m317.113281 406.890625c.003907-.195313.003907-.390625.003907-.585937 0-14.921876-11.9375-26.976563-26.859376-27.113282-15.09375-.136718-27.367187 12.054688-27.367187 27.113282v.25c.078125 8.414062 6.964844 15.179687 15.378906 15.179687h23.472657c8.285156 0 15.195312-6.558594 15.371093-14.84375zm0 0" fill="#313b5a"/><path d="m288.398438 470.542969c-1.113282 6.972656-4.421876 13.210937-9.199219 17.984375-5.933594 5.9375-14.136719 9.609375-23.195313 9.609375h-.003906v-32.492188h.605469c3.636719 0 6.585937 2.953125 6.585937 6.589844v1.210937c0 3.636719 2.953125 6.585938 6.589844 6.585938h1.210938c3.636718 0 6.585937-2.949219 6.585937-6.585938v-1.210937c0-3.636719 2.953125-6.589844 6.589844-6.589844h.003906c2.609375.003907 4.636719 2.324219 4.226563 4.898438zm0 0" fill="#c7d9ff"/><path d="m233.867188 469.589844c.355468.808594.554687 1.703125.554687 2.644531v.914063c-.242187-1.164063-.429687-2.355469-.554687-3.558594zm0 0" fill="#e4ebf8"/></svg>