<svg height="512pt" viewBox="-11 0 512 512" width="512pt" xmlns="http://www.w3.org/2000/svg"><path d="m489.714844 244.855469c0 91.304687-49.984375 170.953125-124.082032 213.035156 0 .011719 0 .011719-.011718.011719-35.636719 20.25-76.851563 31.8125-120.765625 31.8125-9.992188 0-19.855469-.601563-29.542969-1.769532-32.855469-3.949218-63.710938-14.40625-91.238281-30.054687-74.089844-42.09375-124.074219-121.730469-124.074219-213.035156 0-135.222657 109.632812-244.855469 244.855469-244.855469 135.226562 0 244.859375 109.632812 244.859375 244.855469zm0 0" fill="#65b2ff"/><path d="m489.714844 244.855469c0 24.917969-3.722656 48.964843-10.644532 71.613281-30.617187 100.285156-123.902343 173.246094-234.214843 173.246094-100.007813 0-186.023438-59.972656-224.03125-145.910156-13.390625-30.253907-20.824219-63.730469-20.824219-98.949219 0-44.207031 11.71875-85.667969 32.214844-121.46875 42.199218 73.714843 121.625 123.382812 212.640625 123.382812 91.019531 0 170.453125-49.667969 212.644531-123.382812 20.496094 35.800781 32.214844 77.261719 32.214844 121.46875zm0 0" fill="#0f9be8"/><path d="m29.402344 361.265625c6.847656 12.640625 14.761718 24.617187 23.644531 35.796875 44.859375 56.449219 114.105469 92.652344 191.808594 92.652344 77.707031 0 146.953125-36.203125 191.8125-92.652344 8.882812-11.179688 16.796875-23.15625 23.644531-35.796875zm0 0" fill="#0066e8"/><path d="m368.257812 245.445312c0 21.023438-17.046874 38.070313-38.070312 38.070313-15.496094 0-28.828125-9.265625-34.769531-22.554687-4.664063 3.910156-10.695313 6.261718-17.265625 6.261718-10.308594 0-19.265625-5.796875-23.785156-14.308594-2.503907 3.625-5.753907 6.714844-9.511719 9.03125-4.875 3.027344-10.617188 4.765626-16.765625 4.765626-14.355469 0-26.488282-9.453126-30.523438-22.476563.011719.410156.03125.808594.03125 1.210937 0 21.023438-17.046875 38.070313-38.070312 38.070313-21.023438 0-38.070313-17.046875-38.070313-38.070313 0-21.027343 17.046875-38.074218 38.070313-38.074218 1.375 0 2.738281.078125 4.078125.222656 2.082031-12.800781 13.179687-22.566406 26.566406-22.566406 12.503906 0 23.007813 8.523437 26.035156 20.082031 3.667969-1.472656 7.679688-2.292969 11.882813-2.292969.386718 0 .785156.011719 1.171875.035156 2.640625-7.328124 8.359375-13.191406 15.59375-16.003906 3.015625-1.175781 6.308593-1.820312 9.746093-1.820312 6.226563 0 11.957032 2.117187 16.523438 5.675781 5.230469-12.589844 17.65625-21.445313 32.140625-21.445313 19.230469 0 34.8125 15.582032 34.8125 34.800782 0 1.386718-.089844 2.75-.242187 4.078125 17.355468 3.546875 30.421874 18.898437 30.421874 37.308593zm0 0" fill="#b5e237"/><path d="m368.257812 245.445312c0 21.023438-17.046874 38.070313-38.070312 38.070313-15.496094 0-28.828125-9.265625-34.769531-22.554687-4.664063 3.910156-10.695313 6.261718-17.265625 6.261718-10.308594 0-19.265625-5.796875-23.785156-14.308594-2.503907 3.625-5.753907 6.714844-9.511719 9.03125v-75.097656c3.015625-1.175781 6.308593-1.820312 9.746093-1.820312 6.226563 0 11.957032 2.117187 16.523438 5.675781 5.230469-12.589844 17.65625-21.445313 32.140625-21.445313 19.230469 0 34.8125 15.582032 34.8125 34.800782 0 1.386718-.089844 2.75-.242187 4.078125 17.355468 3.546875 30.421874 18.898437 30.421874 37.308593zm0 0" fill="#95d600"/><path d="m244.855469 511.664062c.164062.117188.335937.222657.507812.335938h-.507812zm0 0" fill="#747e9e"/><path d="m406.710938 350.15625c0 7.257812-.476563 14.402344-1.40625 21.414062-.113282.890626-.238282 1.769532-.371094 2.660157-.050782.296875-.085938.601562-.136719.898437-.191406 1.214844-.390625 2.417969-.601563 3.617188-.363281 2.015625-.753906 4.015625-1.183593 5.996094-.277344 1.234374-.554688 2.464843-.851563 3.691406-.640625 2.640625-1.351562 5.261718-2.125 7.863281-.179687.628906-.371094 1.261719-.574218 1.890625-1.175782 3.789062-2.488282 7.527344-3.941407 11.203125-.140625.371094-.285156.734375-.429687 1.097656-4.265625 10.597657-9.613282 20.652344-15.925782 30.003907-.34375.519531-.6875 1.023437-1.042968 1.53125-3.5 5.070312-7.277344 9.929687-11.324219 14.558593-.277344.316407-.5625.632813-.839844.945313-.105469.125-.210937.25-.324219.363281 0 .011719 0 .011719-.011718.011719-35.636719 20.25-76.851563 31.8125-120.765625 31.8125-9.992188 0-19.855469-.601563-29.542969-1.769532-32.855469-3.949218-63.710938-14.40625-91.238281-30.054687-25.546875-28.605469-41.070313-66.359375-41.070313-107.734375 0-39.933594 14.480469-76.488281 38.449219-104.714844h246.808594c23.96875 28.226563 38.449219 64.78125 38.449219 104.714844zm0 0" fill="#747e9e"/><path d="m406.710938 350.15625c0 7.257812-.476563 14.402344-1.40625 21.414062-.113282.890626-.238282 1.769532-.371094 2.660157-.050782.296875-.085938.601562-.136719.898437-.191406 1.214844-.390625 2.417969-.601563 3.617188-.363281 2.015625-.753906 4.015625-1.183593 5.996094-.277344 1.234374-.554688 2.464843-.851563 3.691406-.640625 2.640625-1.351562 5.261718-2.125 7.863281-.179687.628906-.371094 1.261719-.574218 1.890625-1.175782 3.789062-2.488282 7.527344-3.941407 11.203125-.140625.371094-.285156.734375-.429687 1.097656-4.265625 10.597657-9.613282 20.652344-15.925782 30.003907-.34375.519531-.6875 1.023437-1.042968 1.53125-3.5 5.070312-7.277344 9.929687-11.324219 14.558593-.277344.316407-.5625.632813-.839844.945313-.105469.125-.210937.25-.324219.363281 0 .011719 0 .011719-.011718.011719-35.636719 20.25-76.851563 31.8125-120.765625 31.8125-9.992188 0-19.855469-.601563-29.542969-1.769532-35.761719-34.996093-57.953125-83.808593-57.953125-137.789062 0-23.941406 4.371094-46.867188 12.347656-68.015625 4.886719-12.949219 11.125-25.242187 18.546875-36.699219h180.007813c23.96875 28.226563 38.449219 64.78125 38.449219 104.714844zm0 0" fill="#474f6f"/><path d="m245.363281 512h-.507812v-.335938c.164062.117188.335937.222657.507812.335938zm0 0" fill="#323b5a"/><path d="m406.710938 350.15625c0 7.257812-.476563 14.402344-1.40625 21.414062-.113282.890626-.238282 1.769532-.371094 2.660157-.050782.296875-.085938.601562-.136719.898437-.191406 1.214844-.390625 2.417969-.601563 3.617188-.363281 2.015625-.753906 4.015625-1.183593 5.996094-.277344 1.234374-.554688 2.464843-.851563 3.691406-.640625 2.640625-1.351562 5.261718-2.125 7.863281-.179687.628906-.371094 1.261719-.574218 1.890625-1.175782 3.789062-2.488282 7.527344-3.941407 11.203125-.140625.371094-.285156.734375-.429687 1.097656-4.265625 10.597657-9.613282 20.652344-15.925782 30.003907-.34375.519531-.6875 1.023437-1.042968 1.53125-3.5 5.070312-7.277344 9.929687-11.324219 14.558593-.277344.316407-.5625.632813-.839844.945313-.105469.125-.210937.25-.324219.363281 0 .011719 0 .011719-.011718.011719-35.636719 20.25-76.851563 31.8125-120.765625 31.8125v-244.273438h123.40625c23.96875 28.226563 38.449219 64.78125 38.449219 104.714844zm0 0" fill="#323b5a"/><path d="m157.515625 160.296875c0 6.304687-5.109375 11.414063-11.414063 11.414063-6.304687 0-11.417968-5.109376-11.417968-11.414063 0-6.308594 5.113281-11.417969 11.417968-11.417969 6.304688 0 11.414063 5.109375 11.414063 11.417969zm0 0" fill="#fff"/><path d="m216.375 152.816406c0 9.164063-7.425781 16.589844-16.585938 16.589844-9.164062 0-16.589843-7.425781-16.589843-16.589844 0-9.160156 7.425781-16.585937 16.589843-16.585937 9.160157 0 16.585938 7.425781 16.585938 16.585937zm0 0" fill="#b5e237"/><path d="m352.882812 131.882812c0 11.5625-9.371093 20.933594-20.933593 20.933594-11.558594 0-20.933594-9.371094-20.933594-20.933594 0-11.558593 9.375-20.933593 20.933594-20.933593 11.5625 0 20.933593 9.375 20.933593 20.933593zm0 0" fill="#b5e237"/><g fill="#fff"><path d="m282.03125 160.296875c0 6.304687-5.109375 11.414063-11.414062 11.414063-6.304688 0-11.417969-5.109376-11.417969-11.414063 0-6.308594 5.113281-11.417969 11.417969-11.417969 6.304687 0 11.414062 5.109375 11.414062 11.417969zm0 0"/><path d="m244.617188 98.632812c0 10.867188-8.808594 19.675782-19.675782 19.675782-10.863281 0-19.671875-8.808594-19.671875-19.675782 0-10.863281 8.808594-19.675781 19.671875-19.675781 10.867188 0 19.675782 8.8125 19.675782 19.675781zm0 0"/><path d="m453.144531 286.660156h-1.457031c-6.460938 0-11.695312-5.234375-11.695312-11.695312v-1.457032h-8.335938v1.457032c0 6.460937-5.238281 11.695312-11.695312 11.695312h-1.460938v8.335938h1.460938c6.457031 0 11.695312 5.234375 11.695312 11.695312v1.457032h8.335938v-1.457032c0-6.460937 5.234374-11.695312 11.695312-11.695312h1.457031zm0 0"/><path d="m96.574219 148.59375h-1.457031c-6.457032 0-11.695313-5.234375-11.695313-11.695312v-1.457032h-8.335937v1.457032c0 6.460937-5.234376 11.695312-11.695313 11.695312h-1.457031v8.335938h1.457031c6.460937 0 11.695313 5.238281 11.695313 11.695312v1.457031h8.335937v-1.457031c0-6.457031 5.238281-11.695312 11.695313-11.695312h1.457031zm0 0"/><path d="m429.101562 163.867188h-1.457031c-6.457031 0-11.695312-5.238282-11.695312-11.695313v-1.457031h-8.335938v1.457031c0 6.457031-5.234375 11.695313-11.695312 11.695313h-1.457031v8.335937h1.457031c6.460937 0 11.695312 5.234375 11.695312 11.695313v1.457031h8.335938v-1.457031c0-6.460938 5.238281-11.695313 11.695312-11.695313h1.457031zm0 0"/><path d="m73.257812 288.257812h-1.457031c-6.460937 0-11.695312-5.238281-11.695312-11.695312v-1.457031h-8.335938v1.457031c0 6.457031-5.234375 11.695312-11.695312 11.695312h-1.457031v8.335938h1.457031c6.460937 0 11.695312 5.234375 11.695312 11.695312v1.457032h8.335938v-1.457032c0-6.460937 5.234375-11.695312 11.695312-11.695312h1.457031zm0 0"/></g></svg>