<svg height="512pt" viewBox="0 0 512 512" width="512pt" xmlns="http://www.w3.org/2000/svg"><path d="m512 256c0 141.386719-114.613281 256-256 256s-256-114.613281-256-256 114.613281-256 256-256 256 114.613281 256 256zm0 0" fill="#b5e237"/><path d="m512 256c0 26.050781-3.890625 51.191406-11.128906 74.871094-32.011719 104.847656-129.542969 181.128906-244.871094 181.128906-104.558594 0-194.488281-62.699219-234.230469-152.550781-14-31.628907-21.769531-66.628907-21.769531-103.449219 0-46.21875 12.25-89.570312 33.679688-127 44.121093 77.070312 127.160156 129 222.320312 129s178.210938-51.929688 222.320312-129c21.429688 37.429688 33.679688 80.78125 33.679688 127zm0 0" fill="#95d600"/><path d="m30.742188 377.703125c7.15625 13.21875 15.429687 25.738281 24.71875 37.425781 46.898437 59.019532 119.300781 96.871094 200.539062 96.871094s153.640625-37.851562 200.539062-96.871094c9.289063-11.6875 17.5625-24.207031 24.71875-37.425781zm0 0" fill="#85af12"/><path d="m471.179688 298.089844c0 35.707031-9.914063 69.097656-27.144532 97.566406l-.285156-3.460938c0-26.519531-21.496094-48.015624-48.015625-48.015624-26.515625 0-48.011719 21.496093-48.011719 48.015624l-.003906-.023437c-.078125-.503906-1.371094-8.597656-2.945312-12.277344-4.808594-11.28125-16-19.1875-29.035157-19.1875-17.433593 0-31.558593 14.132813-31.558593 31.558594l-7.394532-87.921875c21.253906-.304688 41.574219-4.480469 60.289063-11.847656 46.445312-18.28125 82.988281-56.226563 99.382812-103.585938l7.578125 11.609375c17.230469 28.472657 27.144532 61.867188 27.144532 97.570313zm0 0" fill="#8e4fd2"/><path d="m347.71875 392.171875c-.078125-.503906-1.371094-8.597656-2.945312-12.277344-4.808594-11.28125-16-19.1875-29.039063-19.1875-17.429687 0-31.558594 14.132813-31.558594 31.558594l-7.390625-87.921875c21.253906-.304688 41.574219-4.480469 60.289063-11.847656zm0 0" fill="#7038ba"/><path d="m444.035156 200.523438-7.578125-11.613282c-23 66.441406-85.667969 114.363282-159.671875 115.433594l1.601563 19.050781 19.835937-.695312c12.910156-1.617188 25.59375-4.535157 37.90625-8.738281 18.371094-6.273438 35.652344-15.308594 51.355469-26.847657 15.515625-11.398437 29.195313-25.015625 40.65625-40.484375 3.5-4.726562 6.773437-9.597656 9.816406-14.597656 2.761719 6.496094 5.113281 13.164062 7.039063 19.957031 4.21875 14.917969 6.359375 30.429688 6.359375 46.101563s-2.140625 31.179687-6.359375 46.097656c-.042969.15625-3.601563 11.464844-7.589844 24.136719 4.035156 7.03125 6.347656 15.183593 6.347656 23.871093l.28125 3.460938c17.230469-28.46875 27.144532-61.859375 27.144532-97.566406 0-35.703125-9.914063-69.097656-27.144532-97.566406zm0 0" fill="#323b5a"/><path d="m40.824219 298.089844c0 35.707031 9.914062 69.097656 27.144531 97.566406l.285156-3.460938c0-26.519531 21.496094-48.015624 48.015625-48.015624 26.515625 0 48.011719 21.496093 48.011719 48.015624l.003906-.023437c.078125-.503906 1.371094-8.597656 2.941406-12.277344 4.8125-11.28125 16.003907-19.1875 29.039063-19.1875 17.433594 0 31.558594 14.132813 31.558594 31.558594l7.390625-87.921875c-21.253906-.304688-41.574219-4.480469-60.285156-11.847656-46.445313-18.28125-82.988282-56.226563-99.382813-103.585938l-7.578125 11.609375c-17.230469 28.472657-27.144531 61.867188-27.144531 97.570313zm0 0" fill="#9e69e2"/><path d="m164.285156 392.171875c.078125-.503906 1.371094-8.597656 2.945313-12.277344 4.808593-11.28125 16-19.1875 29.035156-19.1875 17.433594 0 31.558594 14.132813 31.558594 31.558594l7.394531-87.921875c-21.253906-.304688-41.574219-4.480469-60.289062-11.847656zm0 0" fill="#8e4fd2"/><path d="m40.824219 298.089844c0 35.707031 9.914062 69.097656 27.144531 97.566406l.285156-3.460938c0-8.6875 2.308594-16.839843 6.34375-23.871093-3.988281-12.671875-7.546875-23.980469-7.589844-24.136719-4.21875-14.917969-6.359374-30.425781-6.359374-46.097656s2.140624-31.183594 6.359374-46.101563c1.925782-6.792969 4.277344-13.460937 7.039063-19.957031 3.042969 5 6.316406 9.871094 9.816406 14.597656 11.460938 15.46875 25.140625 29.085938 40.65625 40.484375 15.703125 11.539063 32.984375 20.570313 51.355469 26.847657 12.3125 4.203124 25 7.121093 37.90625 8.738281l19.835938.695312 1.601562-19.050781c-74.003906-1.074219-136.671875-48.992188-159.671875-115.433594l-7.578125 11.613282c-17.230469 28.46875-27.144531 61.863281-27.144531 97.566406zm0 0" fill="#474f6f"/><path d="m246.351562 435.761719c-2.570312 28.175781-8.199218 54.117187-15.957031 76.238281-3.535156-24.117188-4.320312-51.195312-1.75-79.367188 1.734375-19 4.859375-36.980468 9.085938-53.460937 1.753906-6.835937 8.960937-5.5625 9.429687 1.667969 1.132813 17.425781.925782 35.925781-.808594 54.921875zm0 0" fill="#474f6f"/><path d="m265.648438 435.761719c2.574218 28.175781 8.203124 54.117187 15.957031 76.238281 3.539062-24.117188 4.324219-51.195312 1.75-79.367188-1.734375-19-4.855469-36.980468-9.085938-53.460937-1.753906-6.835937-8.957031-5.5625-9.429687 1.667969-1.132813 17.425781-.925782 35.925781.808594 54.921875zm0 0" fill="#323b5a"/><path d="m304.238281 342.359375c0 4.707031-.230469 9.320313-.683593 13.808594-3.773438 37.457031-22.636719 66.214843-45.632813 67.734375-.636719.046875-1.273437.066406-1.917969.066406-23.863281 0-43.675781-29.308594-47.550781-67.800781-.453125-4.488281-.6875-9.101563-.6875-13.808594 0-4.546875.21875-9.011719.640625-13.359375 3.773438-38.714844 23.644531-68.246094 47.597656-68.246094.644532 0 1.28125.019532 1.917969.066406 22.234375 1.46875 40.601563 28.402344 45.207031 64.035157.726563 5.636719 1.109375 11.496093 1.109375 17.503906zm0 0" fill="#474f6f"/><path d="m304.238281 342.359375c0 4.707031-.230469 9.320313-.683593 13.808594-3.773438 37.457031-22.636719 66.214843-45.632813 67.734375v-163.082032c22.230469 1.46875 40.601563 28.398438 45.207031 64.035157.726563 5.636719 1.109375 11.496093 1.109375 17.503906zm0 0" fill="#323b5a"/><path d="m304.238281 342.359375c0 4.707031-.234375 9.320313-.6875 13.808594-14.492187 9.804687-30.59375 15.269531-47.550781 15.269531s-33.054688-5.464844-47.550781-15.269531c-.449219-4.488281-.6875-9.101563-.6875-13.808594 0-45.066406 21.597656-81.605469 48.238281-81.605469s48.238281 36.539063 48.238281 81.605469zm0 0" fill="#323b5a"/><path d="m329.488281 155.8125 13.925781 24.320312c22.828126 39.855469 18.445313 89.390626-11.609374 124.445313-.371094.429687-.742188.863281-1.121094 1.289063-2.964844 3.378906-6.117188 6.5-9.417969 9.371093-18.003906 15.648438-40.574219 23.761719-63.3125 24.332031-22.59375.566407-45.351563-6.3125-63.960937-20.648437-4.941407-3.800781-9.589844-8.128906-13.863282-12.984375-.375-.429688-.75-.859375-1.121094-1.289062-30.734374-35.78125-33.148437-87.078126-6.5-125.820313l12.804688-18.625 1.144531 41.328125c19.644531-19.085938 45.679688-28.191406 71.421875-27.316406 23.460938.792968 46.675782 9.882812 64.59375 27.257812zm0 0" fill="#474f6f"/><path d="m329.488281 155.8125 13.925781 24.320312c22.828126 39.855469 18.445313 89.390626-11.609374 124.445313-.371094.429687-.742188.863281-1.121094 1.289063-2.964844 3.378906-6.117188 6.5-9.417969 9.371093-18.003906 15.648438-40.574219 23.761719-63.3125 24.332031l-.074219-165.355468c23.460938.792968 46.675782 9.882812 64.59375 27.253906zm0 0" fill="#323b5a"/><path d="m252.324219 281.59375c-11.527344 15.269531-32.398438 21.265625-50.71875 13.296875-18.320313-7.964844-28.167969-27.320313-24.859375-46.164063l24.859375 10.808594c.214843 11.914063 3.441406 22.734375 8.609375 30.929688 4.089844-6.496094 6.957031-14.644532 8.074218-23.675782zm0 0" fill="#ffd112"/><path d="m259.703125 281.589844c11.542969 15.261718 32.417969 21.234375 50.730469 13.253906 18.3125-7.984375 28.140625-27.347656 24.8125-46.191406l-24.847656 10.835937c-.203126 11.910157-3.417969 22.734375-8.578126 30.933594-4.09375-6.492187-6.96875-14.636719-8.09375-23.664063zm0 0" fill="#ff9f00"/></svg>