<svg height="512pt" viewBox="0 0 512 512" width="512pt" xmlns="http://www.w3.org/2000/svg"><path d="m512 256c0 105.21875-63.480469 195.609375-154.230469 234.96875-8.257812 3.582031-16.738281 6.742188-25.417969 9.453125-24.113281 7.519531-49.761718 11.578125-76.351562 11.578125s-52.238281-4.058594-76.351562-11.578125c-8.679688-2.710937-17.160157-5.871094-25.417969-9.453125-90.75-39.359375-154.230469-129.75-154.230469-234.96875 0-141.378906 114.621094-256 256-256s256 114.621094 256 256zm0 0" fill="#ffe955"/><path d="m512 256c0 26.050781-3.890625 51.191406-11.128906 74.871094-32.011719 104.847656-129.542969 181.128906-244.871094 181.128906-104.558594 0-194.488281-62.699219-234.230469-152.550781-14-31.628907-21.769531-66.628907-21.769531-103.449219 0-46.21875 12.25-89.570312 33.679688-127 44.121093 77.070312 127.160156 129 222.320312 129s178.210938-51.929688 222.320312-129c21.429688 37.429688 33.679688 80.78125 33.679688 127zm0 0" fill="#ffd112"/><path d="m30.742188 377.703125c7.15625 13.21875 15.429687 25.738281 24.71875 37.425781 46.898437 59.019532 119.300781 96.871094 200.539062 96.871094s153.640625-37.851562 200.539062-96.871094c9.289063-11.6875 17.5625-24.207031 24.71875-37.425781zm0 0" fill="#ff9f00"/><path d="m349.992188 82.171875h-187.984376c-21.867187 0-39.597656 17.726563-39.597656 39.59375v235.5c0 21.867187 17.730469 39.59375 39.597656 39.59375h48.421876c9.082031 0 16.441406 7.363281 16.441406 16.445313v26.265624h58.257812v-26.265624c0-9.082032 7.359375-16.445313 16.441406-16.445313h48.421876c21.867187 0 39.597656-17.726563 39.597656-39.59375v-235.5c0-21.867187-17.730469-39.59375-39.597656-39.59375zm0 0" fill="#fff"/><path d="m349.992188 82.171875h-93.992188v357.398437h29.128906v-26.265624c0-9.082032 7.359375-16.445313 16.441406-16.445313h48.421876c21.867187 0 39.597656-17.726563 39.597656-39.59375v-235.5c0-21.867187-17.730469-39.59375-39.597656-39.59375zm0 0" fill="#d0f6ff"/><g fill="#dd1265"><path d="m355.441406 151.871094v175.300781c0 16.273437-13.195312 29.46875-29.472656 29.46875h-27.691406c-17.257813 0-31.246094 13.988281-31.246094 31.246094v31.863281h-22.058594v-31.863281c0-17.257813-13.992187-31.246094-31.25-31.246094h-27.691406c-16.277344 0-29.472656-13.195313-29.472656-29.46875v-175.300781c0-16.292969 13.191406-29.480469 29.472656-29.480469h139.9375c.382812 0 .761719.007813 1.140625.03125 15.75.589844 28.332031 13.539063 28.332031 29.449219zm0 0"/><path d="m274.035156 504.535156c-4.976562 4.976563-11.507812 7.464844-18.035156 7.464844s-13.058594-2.488281-18.035156-7.464844c-9.960938-9.960937-9.960938-26.109375 0-36.070312l18.035156-18.035156 18.035156 18.035156c9.960938 9.960937 9.960938 26.109375 0 36.070312zm0 0"/><path d="m220.011719 458.851562-27.941407 33.6875c-3.410156 4.109376-7.78125 6.710938-12.421874 7.882813-8.679688-2.710937-17.160157-5.871094-25.417969-9.453125-.859375-1.277344-1.609375-2.679688-2.230469-4.199219-.121094-.289062-.230469-.578125-.339844-.878906-4.570312-12.410156 1.300782-26.46875 13.328125-31.960937 8.351563-3.808594 17.582031-2.757813 24.640625 1.878906 8.972656 5.902344 20.191406 7.242187 30.109375 3.152344zm0 0"/></g><path d="m360.339844 485.890625c-.109375.300781-.21875.589844-.339844.878906-.621094 1.519531-1.371094 2.921875-2.230469 4.199219-8.257812 3.582031-16.738281 6.742188-25.417969 9.453125-4.640624-1.171875-9.011718-3.773437-12.421874-7.882813l-27.941407-33.6875.273438.109376c9.917969 4.089843 21.136719 2.75 30.109375-3.152344 7.058594-4.636719 16.300781-5.6875 24.640625-1.878906 12.027343 5.492187 17.898437 19.550781 13.328125 31.960937zm0 0" fill="#ba0d5c"/><path d="m355.441406 160.71875v166.453125c0 16.273437-13.195312 29.46875-29.472656 29.46875h-27.691406c-17.257813 0-31.246094 13.988281-31.246094 31.246094v31.863281h-11.03125v-297.359375h69.96875c.382812 0 .761719.007813 1.140625.03125 15.75.777344 28.332031 17.628906 28.332031 38.296875zm0 0" fill="#ba0d5c"/><path d="m274.035156 504.535156c-4.976562 4.976563-11.507812 7.464844-18.035156 7.464844v-61.570312l18.035156 18.035156c9.960938 9.960937 9.960938 26.109375 0 36.070312zm0 0" fill="#ba0d5c"/><path d="m328.019531 172.945312v39.339844c0 12.515625-10.148437 22.664063-22.667969 22.664063h-98.703124c-12.519532 0-22.667969-10.148438-22.667969-22.664063v-39.339844c0-12.519531 10.148437-22.667968 22.667969-22.667968h98.703124c12.519532 0 22.667969 10.148437 22.667969 22.667968zm0 0" fill="#fff"/><path d="m328.019531 172.945312v39.339844c0 12.515625-10.148437 22.664063-22.667969 22.664063h-49.347656v-84.671875h49.347656c12.519532 0 22.667969 10.148437 22.667969 22.667968zm0 0" fill="#d0f6ff"/><path d="m304.769531 218.375h-95.472656c-5.523437 0-10-4.476562-10-10s4.476563-10 10-10h95.472656c5.523438 0 10 4.476562 10 10s-4.476562 10-10 10zm0 0" fill="#323b5a"/><path d="m304.769531 187.003906h-95.472656c-5.523437 0-10-4.480468-10-10 0-5.523437 4.476563-10 10-10h95.472656c5.523438 0 10 4.476563 10 10 0 5.519532-4.476562 10-10 10zm0 0" fill="#323b5a"/></svg>