<svg height="512pt" viewBox="0 0 512 512" width="512pt" xmlns="http://www.w3.org/2000/svg"><path d="m512 256c0 141.386719-114.613281 256-256 256s-256-114.613281-256-256 114.613281-256 256-256 256 114.613281 256 256zm0 0" fill="#65b2ff"/><path d="m512 256c0 26.050781-3.890625 51.191406-11.128906 74.871094-32.011719 104.847656-129.542969 181.128906-244.871094 181.128906-104.558594 0-194.488281-62.699219-234.230469-152.550781-14-31.628907-21.769531-66.628907-21.769531-103.449219 0-46.21875 12.25-89.570312 33.679688-127 44.121093 77.070312 127.160156 129 222.320312 129s178.210938-51.929688 222.320312-129c21.429688 37.429688 33.679688 80.78125 33.679688 127zm0 0" fill="#0f9be8"/><path d="m481.261719 377.699219c-7.160157 13.222656-15.433594 25.742187-24.722657 37.429687-41.019531 51.621094-101.550781 87.050782-170.4375 95.121094-4.3125.511719-8.660156.898438-13.042968 1.191406-.007813 0-.019532 0-.019532 0-5.628906.367188-11.308593.558594-17.039062.558594-6.609375 0-13.160156-.25-19.640625-.738281-6.078125-.460938-12.109375-1.140625-18.058594-2.023438-65.742187-9.699219-123.332031-44.398437-162.839843-94.109375-9.289063-11.6875-17.5625-24.207031-24.722657-37.429687zm0 0" fill="#0066e8"/><path d="m274.441406 511.621094c1.109375.117187 2.25.167968 3.398438.140625-1.148438.027343-2.289063-.011719-3.398438-.140625zm0 0" fill="#fff"/><path d="m303.960938 486.46875c-.019532.429688-.0625.851562-.101563 1.269531-.039063.371094-.078125.730469-.140625 1.089844-.007812.121094-.027344.230469-.046875.34375-.03125.207031-.0625.40625-.101563.609375-.039062.238281-.089843.480469-.140624.707031-.128907.660157-.300782 1.300781-.480469 1.941407-.148438.519531-.320313 1.019531-.5 1.519531-.089844.261719-.179688.511719-.289063.761719-.300781.789062-.648437 1.558593-1.03125 2.300781-.058594.136719-.128906.269531-.207031.398437-.140625.28125-.300781.570313-.460937.839844-.402344.710938-.839844 1.390625-1.300782 2.050781-.269531.378907-.539062.757813-.832031 1.121094-.167969.226563-.347656.449219-.527344.65625-.160156.191406-.332031.382813-.5.570313-.199219.242187-.410156.472656-.628906.691406-.453125.488281-.921875.949218-1.410156 1.390625-.152344.140625-.300781.269531-.453125.398437-.347656.320313-.707032.621094-1.078125.890625-.5.402344-1 .769531-1.519531 1.128907-.269532.191406-.539063.363281-.820313.53125-.21875.140624-.441406.269531-.660156.398437-.082031.0625-.171875.113281-.261719.152344-.207031.128906-.429688.25-.648438.371093-.070312.039063-.148437.078126-.230468.117188-.21875.121094-.449219.230469-.679688.351562-.082031.039063-.171875.078126-.261718.121094-.226563.109375-.476563.21875-.71875.328125-.589844.269531-1.210938.511719-1.828126.730469-4.3125.511719-8.660156.898438-13.042968 1.191406-.007813 0-.019532 0-.019532 0-.167968-.019531-.328124-.050781-.480468-.082031-.289063-.050781-.570313-.109375-.859375-.167969-.289063-.0625-.589844-.132812-.890625-.203125-.320313-.078125-.636719-.160156-.957032-.257812-.460937-.128907-.921874-.269531-1.363281-.429688-.386719-.128906-.777343-.28125-1.167969-.429687-.261718-.109375-.519531-.222656-.78125-.332032-.300781-.128906-.597656-.269531-.898437-.410156-.511719-.25-1-.507812-1.492187-.777344-.257813-.152343-.507813-.300781-.769532-.453124-.640625-.378907-1.257812-.796876-1.859375-1.238282-.347656-.25-.691406-.511718-1.019531-.78125-.261719-.207031-.519531-.417968-.78125-.660156-.179688-.140625-.359375-.296875-.527344-.46875-.011718-.011719-.03125-.019531-.042968-.03125-.308594-.277344-.609376-.570312-.898438-.867188-.300781-.292968-.578125-.589843-.859375-.902343-.03125-.039063-.070313-.078125-.101563-.121094-.140624-.148437-.269531-.296875-.398437-.457031-.261719-.292969-.5-.589844-.742187-.890625-.257813-.332031-.507813-.679688-.75-1.03125-.046876-.058594-.097657-.121094-.128907-.1875-.269531-.371094-.507812-.742188-.75-1.121094-.039062-.0625-.078125-.121094-.109375-.179687-.238281-.390626-.46875-.789063-.691406-1.191407-.019531.039063-.039062.070313-.058594.109375-3.550781 6.621094-9.808594 11.582032-17.300781 13.382813-6.078125-.460938-12.109375-1.140625-18.058594-2.023438-8.351562-4.136719-14.320312-12.527343-14.929687-22.289062-.5625-9.140625 3.457031-17.371094 9.988281-22.609375 10.378906-8.308594 16.519531-20.800782 16.460937-34.101563l-.03125-52.539062-.078124-126.46875h47.167968l.070313 126.46875.03125 52.320312c.058593 13.289063 6.320312 25.730469 16.78125 33.941407 6.578125 5.167968 10.679687 13.367187 10.199219 22.507812zm0 0" fill="#fff"/><path d="m303.960938 486.46875c-.019532.429688-.0625.851562-.101563 1.269531-.039063.371094-.078125.730469-.140625 1.089844-.007812.121094-.027344.230469-.046875.34375-.03125.207031-.0625.40625-.101563.609375-.039062.238281-.089843.480469-.140624.707031-.128907.660157-.300782 1.300781-.480469 1.941407-.148438.519531-.320313 1.019531-.5 1.519531-.089844.261719-.179688.511719-.289063.761719-.300781.789062-.648437 1.558593-1.03125 2.300781-.058594.136719-.128906.269531-.207031.398437-.140625.28125-.300781.570313-.460937.839844-.402344.710938-.839844 1.390625-1.300782 2.050781-.269531.378907-.539062.757813-.832031 1.121094-.167969.226563-.347656.449219-.527344.65625-.160156.191406-.332031.382813-.5.570313-.199219.242187-.410156.472656-.628906.691406-.453125.488281-.921875.949218-1.410156 1.390625-.152344.140625-.300781.269531-.453125.398437-.347656.320313-.707032.621094-1.078125.890625-.492188.410157-1 .78125-1.519531 1.128907-.269532.191406-.539063.363281-.820313.53125-.21875.140624-.441406.269531-.660156.398437-.082031.0625-.171875.113281-.261719.152344-.207031.128906-.429688.25-.648438.371093-.070312.039063-.148437.078126-.230468.117188-.21875.121094-.449219.230469-.679688.351562-.082031.039063-.171875.078126-.261718.121094-.226563.109375-.476563.21875-.71875.328125-.589844.269531-1.210938.511719-1.828126.730469-4.3125.511719-8.660156.898438-13.042968 1.191406-.007813 0-.019532 0-.019532 0-.167968-.019531-.328124-.050781-.480468-.082031-.289063-.050781-.570313-.109375-.859375-.167969-.289063-.0625-.589844-.132812-.890625-.203125-.320313-.078125-.636719-.160156-.957032-.257812-.460937-.128907-.910156-.269531-1.363281-.429688-.386719-.128906-.777343-.28125-1.167969-.429687-.261718-.109375-.519531-.222656-.78125-.332032-.300781-.128906-.597656-.269531-.898437-.410156-.511719-.25-1-.507812-1.492187-.777344-.257813-.152343-.507813-.300781-.769532-.453124-.640625-.378907-1.257812-.796876-1.859375-1.238282-.347656-.25-.691406-.511718-1.019531-.78125-.261719-.207031-.519531-.417968-.78125-.660156-.179688-.140625-.359375-.296875-.527344-.46875-.011718-.011719-.03125-.019531-.042968-.03125-.308594-.277344-.609376-.570312-.898438-.867188-.300781-.292968-.578125-.589843-.859375-.902343-.03125-.039063-.070313-.078125-.101563-.121094-.140624-.148437-.269531-.296875-.398437-.457031-.261719-.292969-.5-.589844-.742187-.890625-.257813-.332031-.507813-.679688-.75-1.03125-.046876-.058594-.097657-.121094-.128907-.1875-.269531-.371094-.507812-.742188-.75-1.121094-.039062-.0625-.078125-.121094-.109375-.179687-.238281-.390626-.46875-.789063-.691406-1.191407-.019531.039063-.039062.070313-.058594.109375v-246.648437h23.21875l.070313 126.46875.03125 52.320312c.058593 13.289063 6.320312 25.730469 16.78125 33.941407 6.578125 5.167968 10.679687 13.367187 10.199219 22.507812zm0 0" fill="#e4ebf8"/><path d="m362.511719 176.464844v162.714844c0 27-21.890625 48.890624-48.890625 48.890624h-115.242188c-27 0-48.890625-21.890624-48.890625-48.890624v-162.714844c0-50.671875 41.082031-91.75 91.75-91.75h29.523438c50.667969 0 91.75 41.078125 91.75 91.75zm0 0" fill="#b5e237"/><path d="m362.511719 176.464844v162.714844c0 27-21.890625 48.890624-48.890625 48.890624h-57.621094v-303.355468h14.761719c50.667969 0 91.75 41.078125 91.75 91.75zm0 0" fill="#95d600"/><path d="m320.398438 156.898438v74.0625c0 30.640624-24.839844 55.480468-55.46875 55.480468h-17.859376c-30.628906 0-55.46875-24.839844-55.46875-55.480468v-74.0625c0-16.328126 13.226563-29.558594 29.558594-29.558594h1.558594l11.480469 24.21875 4.332031-24.21875h52.308594c16.332031 0 29.558594 13.230468 29.558594 29.558594zm0 0" fill="#fff"/><path d="m320.398438 156.902344v74.0625c0 30.640625-24.839844 55.480468-55.46875 55.480468h-8.929688v-159.101562h34.839844c16.332031 0 29.558594 13.230469 29.558594 29.558594zm0 0" fill="#e4ebf8"/><path d="m320.398438 328.363281c0 4.28125-1.738282 8.160157-4.539063 10.960938s-6.679687 4.539062-10.960937 4.539062h-97.796876c-8.5625 0-15.5-6.9375-15.5-15.5 0-4.277343 1.738282-8.160156 4.539063-10.960937 2.800781-2.796875 6.679687-4.539063 10.960937-4.539063h97.796876c8.5625 0 15.5 6.941407 15.5 15.5zm0 0" fill="#95d600"/><path d="m320.398438 328.363281c0 4.28125-1.738282 8.160157-4.539063 10.960938s-6.679687 4.539062-10.960937 4.539062h-48.898438v-31h48.898438c8.5625 0 15.5 6.941407 15.5 15.5zm0 0" fill="#85af12"/></svg>