<svg height="512pt" viewBox="0 0 512 512" width="512pt" xmlns="http://www.w3.org/2000/svg"><path d="m512 256c0 81.46875-38.058594 154.050781-97.371094 200.941406-43.277344 34.207032-97.890625 54.75-157.269531 55.046875-.449219.011719-.910156.011719-1.359375.011719-59.910156 0-115.019531-20.589844-158.628906-55.058594-59.3125-46.890625-97.371094-119.472656-97.371094-200.941406 0-141.378906 114.621094-256 256-256s256 114.621094 256 256zm0 0" fill="#65b2ff"/><path d="m512 256c0 26.050781-3.890625 51.191406-11.128906 74.871094-32.011719 104.847656-129.542969 181.128906-244.871094 181.128906-104.558594 0-194.488281-62.699219-234.230469-152.550781-14-31.628907-21.769531-66.628907-21.769531-103.449219 0-46.21875 12.25-89.570312 33.679688-127 44.121093 77.070312 127.160156 129 222.320312 129s178.210938-51.929688 222.320312-129c21.429688 37.429688 33.679688 80.78125 33.679688 127zm0 0" fill="#0f9be8"/><path d="m30.742188 377.703125c7.15625 13.21875 15.429687 25.738281 24.71875 37.425781 46.898437 59.019532 119.300781 96.871094 200.539062 96.871094s153.640625-37.851562 200.539062-96.871094c9.289063-11.6875 17.5625-24.207031 24.71875-37.425781zm0 0" fill="#0066e8"/><path d="m147.058594 163.640625 10.851562 28.140625h196.199219l10.859375-28.136719-108.96875-48.683593zm0 0" fill="#323b5a"/><path d="m414.628906 456.941406c-43.277344 34.207032-97.890625 54.75-157.269531 55.046875-.449219.011719-.910156.011719-1.359375.011719-59.910156 0-115.019531-20.589844-158.628906-55.058594 6.839844-34.480468 24.640625-65.011718 49.617187-87.800781 3.390625-3.089844 6.902344-6.039063 10.542969-8.832031.4375-.339844.878906-.679688 1.320312-1.007813 3.269532-2.460937 6.628907-4.800781 10.089844-7.011719 2.25-1.449218 4.546875-2.839843 6.878906-4.167968 4.339844-2.492188 8.800782-4.769532 13.378907-6.859375 3.371093-1.53125 6.789062-2.941407 10.28125-4.25 10.917969-4.0625 22.390625-6.992188 34.289062-8.632813 7.261719-1 14.679688-1.507812 22.21875-1.507812h.011719.011719.007812c.441407 0 .902344 0 1.339844.007812 7.492187.050782 14.878906.640625 22.101563 1.691406h.007812c.992188.140626 1.972656.300782 2.960938.460938.980468.160156 1.949218.328125 2.921874.507812.019532 0 .039063 0 .046876.011719.851562.148438 1.703124.308594 2.542968.480469.796875.160156 1.609375.328125 2.410156.507812.570313.109376 1.128907.242188 1.699219.371094 1.257813.28125 2.507813.578125 3.75.898438.558594.140625 1.121094.28125 1.679688.429687 3.417969.902344 6.789062 1.921875 10.121093 3.042969.820313.269531 1.636719.558594 2.449219.847656.660157.230469 1.308594.460938 1.949219.699219.191406.070313.371094.140625.550781.203125v.007812c.050781.011719.089844.019532.128907.039063.050781.023437.089843.042969.128906.050781.710937.269532 1.410156.53125 2.101562.8125.800782.308594 1.601563.628906 2.390625.949219.007813.007813.027344.007813.050781.019531.777344.328125 1.570313.648438 2.347657.988282.789062.339843 1.582031.679687 2.359375 1.042968.792968.347656 1.570312.699219 2.351562 1.070313.78125.359375 1.550782.726562 2.320313 1.109375.898437.4375 1.800781.890625 2.691406 1.339844.636719.328124 1.269531.648437 1.898437.988281.449219.230469.910157.480469 1.359376.730469.5.261718 1 .539062 1.5.820312.671874.359375 1.339843.738281 2 1.121094.050781.027344.101562.050781.140624.078125 1.300782.75 2.589844 1.511719 3.871094 2.289062.519532.320313 1.046875.652344 1.570313.980469.9375.582031 1.867187 1.179688 2.789062 1.792969.667969.4375 1.347657.886719 2.019531 1.339843.078126.046876.148438.097657.21875.148438.660157.460938 1.332032.910156 1.980469 1.378906 1.429688 1 2.839844 2.019532 4.230469 3.070313.648438.480469 1.289062.972656 1.929688 1.472656 3.46875 2.6875 6.832031 5.507813 10.070312 8.46875 24.980469 22.789063 42.789062 53.320313 49.628906 87.800781zm0 0" fill="#fff"/><path d="m414.628906 456.941406c-43.277344 34.207032-97.890625 54.75-157.269531 55.046875v-185.109375c7.492187.050782 14.878906.640625 22.101563 1.691406h.007812c.992188.140626 1.972656.300782 2.960938.460938.980468.160156 1.949218.328125 2.921874.507812.019532 0 .039063 0 .046876.011719.851562.148438 1.703124.308594 2.542968.480469.796875.160156 1.609375.328125 2.410156.507812.570313.109376 1.128907.242188 1.699219.371094 1.257813.28125 2.507813.578125 3.75.898438.558594.140625 1.121094.28125 1.679688.429687 3.417969.902344 6.789062 1.921875 10.121093 3.042969.820313.269531 1.636719.558594 2.449219.847656.660157.230469 1.308594.460938 1.949219.699219.191406.070313.371094.140625.550781.203125.050781.019531.089844.039062.128907.046875.050781.023437.089843.042969.128906.050781.710937.269532 1.410156.53125 2.101562.8125.800782.308594 1.601563.628906 2.390625.949219.007813.007813.027344.007813.050781.019531.777344.328125 1.570313.648438 2.347657.988282.789062.339843 1.582031.679687 2.359375 1.042968.792968.347656 1.570312.699219 2.351562 1.070313.78125.359375 1.550782.726562 2.320313 1.109375.898437.4375 1.800781.890625 2.691406 1.339844.636719.328124 1.269531.648437 1.898437.988281.449219.230469.910157.480469 1.359376.730469.5.261718 1 .539062 1.5.820312.671874.359375 1.339843.738281 2 1.121094v.007812c.050781.019532.089843.042969.140624.070313 1.300782.75 2.589844 1.511719 3.871094 2.289062.519532.320313 1.046875.652344 1.570313.980469.9375.582031 1.867187 1.179688 2.789062 1.792969.667969.4375 1.347657.886719 2.019531 1.339843.078126.046876.148438.097657.21875.148438.660157.460938 1.332032.910156 1.980469 1.378906 1.429688 1 2.839844 2.019532 4.230469 3.070313.648438.480469 1.289062.972656 1.929688 1.472656 3.46875 2.6875 6.832031 5.507813 10.070312 8.46875 24.980469 22.789063 42.789062 53.320313 49.628906 87.800781zm0 0" fill="#e4ebf8"/><path d="m166.675781 317.621094h175.085938v34.671875h-175.085938zm0 0" fill="#474f6f"/><path d="m140.699219 300.777344h35.125v68.359375h-35.125zm0 0" fill="#747e9e"/><path d="m157.527344 300.777344h18.296875v68.359375h-18.296875zm0 0" fill="#474f6f"/><path d="m336.175781 300.777344h35.125v68.359375h-35.125zm0 0" fill="#747e9e"/><path d="m353.003906 300.777344h18.296875v68.359375h-18.296875zm0 0" fill="#474f6f"/><path d="m364.964844 147.855469v15.785156h-217.90625v-15.785156c0-30.085938 12.195312-48.726563 31.910156-59.835938s46.960938-14.699219 77.035156-14.699219h.460938c59.96875.078126 108.5 14.511719 108.5 74.535157zm0 0" fill="#474f6f"/><path d="m364.96875 147.859375v15.785156h-108.507812l.011718-9.199219v-81.125c59.957032.074219 108.496094 14.519532 108.496094 74.539063zm0 0" fill="#323b5a"/><path d="m368.710938 187.070312c13.863281 0 25.097656 11.234376 25.097656 25.097657 0 25.246093-20.464844 45.714843-45.710938 45.714843v-70.867187zm0 0" fill="#95d600"/><path d="m143.316406 187.070312c-13.863281 0-25.097656 11.234376-25.097656 25.097657 0 25.246093 20.464844 45.714843 45.714844 45.714843v-70.867187zm0 0" fill="#b5e237"/><path d="m199.476562 277.519531v80.445313c0 31.21875 25.308594 56.539062 56.539063 56.539062 31.214844 0 56.539063-25.320312 56.539063-56.539062v-80.445313zm0 0" fill="#85af12"/><path d="m199.476562 277.519531v80.445313c0 31.21875 25.308594 56.539062 56.539063 56.539062v-136.984375zm0 0" fill="#95d600"/><path d="m354.105469 191.785156v36.976563c0 54.179687-43.925781 98.105469-98.09375 98.105469-.011719 0-.011719 0-.011719 0-54.179688 0-98.09375-43.9375-98.09375-98.105469v-36.976563c0-5.582031.472656-11.039062 1.382812-16.355468 6.398438-38.210938 34.886719-68.933594 71.890626-78.566407 7.929687-2.078125 16.246093-3.167969 24.820312-3.167969h.011719c8.5625 0 16.890625 1.09375 24.808593 3.144532 37.003907 9.65625 65.515626 40.382812 71.917969 78.589844.917969 5.316406 1.367188 10.773437 1.367188 16.355468zm0 0" fill="#95d600"/><path d="m256 93.691406v233.175782c-21.054688 0-40.542969-6.636719-56.527344-17.925782-25.144531-17.757812-41.5625-47.054687-41.5625-80.179687v-36.976563c0-5.582031.472656-11.039062 1.378906-16.355468 6.402344-38.210938 34.890626-68.933594 71.890626-78.566407 7.929687-2.078125 16.246093-3.171875 24.820312-3.171875zm0 0" fill="#b5e237"/><path d="m256.015625 250.507812c-4.546875 0-8.230469-3.6875-8.230469-8.230468v-36.511719c0-4.546875 3.683594-8.230469 8.230469-8.230469 4.542969 0 8.226563 3.683594 8.226563 8.230469v36.511719c0 4.542968-3.683594 8.230468-8.226563 8.230468zm0 0" fill="#85af12"/><path d="m298.863281 210.324219c0 6.667969-5.40625 12.074219-12.078125 12.074219-6.667968 0-12.074218-5.40625-12.074218-12.074219 0-6.671875 5.40625-12.078125 12.074218-12.078125 6.671875 0 12.078125 5.40625 12.078125 12.078125zm0 0" fill="#323b5a"/><path d="m237.316406 210.324219c0 6.667969-5.40625 12.074219-12.074218 12.074219-6.671876 0-12.078126-5.40625-12.078126-12.074219 0-6.671875 5.40625-12.078125 12.078126-12.078125 6.667968 0 12.074218 5.40625 12.074218 12.078125zm0 0" fill="#323b5a"/><path d="m354.105469 191.785156v18.496094h-196.199219v-18.496094c0-1.601562.039062-3.195312.125-4.773437.136719-3.007813.421875-5.976563.847656-8.910157.070313-.535156.148438-1.082031.234375-1.617187.0625-.347656.113281-.707031.171875-1.054687.113282-.699219.238282-1.40625.375-2.101563 7.070313-37.226563 35.199219-67.007813 71.519532-76.464844 7.929687-2.078125 16.242187-3.171875 24.820312-3.171875h.011719c8.5625 0 16.890625 1.09375 24.808593 3.148438 36.316407 9.480468 64.457032 39.261718 71.542969 76.488281.136719.695313.261719 1.402344.371094 2.101563.0625.347656.125.707031.175781 1.054687.085938.535156.175782 1.082031.234375 1.617187.4375 2.933594.710938 5.902344.847657 8.910157.074218 1.578125.113281 3.171875.113281 4.773437zm0 0" fill="#85af12"/><path d="m256 93.691406v116.589844h-98.09375v-18.496094c0-5.582031.472656-11.039062 1.382812-16.355468 6.398438-38.210938 34.886719-68.933594 71.890626-78.566407 7.929687-2.078125 16.246093-3.171875 24.820312-3.171875zm0 0" fill="#95d600"/><path d="m174.378906 163.640625c12.398438 0 22.71875-9.898437 22.808594-22.292969.003906-.085937.003906-.167968.003906-.253906v-2.832031c17.363282 10.273437 37.628906 16.179687 59.273438 16.179687 21.265625 0 41.199218-5.695312 58.367187-15.628906v.953125.265625c.09375 13.125 11.011719 23.609375 24.140625 23.609375h13.976563c-7.230469-46.871094-47.632813-82.789063-96.484375-83.007813-.152344-.011718-.304688-.011718-.460938-.011718-27.089844 0-51.613281 10.976562-69.363281 28.738281-14.386719 14.386719-24.324219 33.230469-27.570313 54.28125zm0 0" fill="#474f6f"/><path d="m352.960938 163.644531h-29.59375c-5.445313-6.539062-8.539063-15.039062-8.539063-23.875v-.957031c-17.164063 9.929688-37.101563 15.632812-58.355469 15.632812v-73.816406c48.847656.226563 89.253906 36.144532 96.488282 83.015625zm0 0" fill="#323b5a"/><path d="m286.785156 280.273438h-61.570312c-4.546875 0-8.230469-3.683594-8.230469-8.230469s3.683594-8.230469 8.230469-8.230469h61.570312c4.546875 0 8.230469 3.683594 8.230469 8.230469s-3.683594 8.230469-8.230469 8.230469zm0 0" fill="#85af12"/><path d="m199.472656 270.339844v38.601562c-25.144531-17.757812-41.5625-47.054687-41.5625-80.179687 22.953125 0 41.5625 18.621093 41.5625 41.578125zm0 0" fill="#95d600"/><path d="m312.554688 270.339844v38.601562c25.144531-17.757812 41.5625-47.054687 41.5625-80.179687-22.957032 0-41.5625 18.621093-41.5625 41.578125zm0 0" fill="#85af12"/><path d="m353.992188 187.011719h-195.960938l1.628906-13.683594h192.703125c.136719.695313.261719 1.402344.371094 2.101563.0625.347656.125.707031.175781 1.054687.085938.535156.175782 1.082031.234375 1.617187.4375 2.933594.710938 5.902344.847657 8.910157zm0 0" fill="#718e09"/><path d="m256 173.328125v13.683594h-97.96875c.1875-3.925781.609375-7.792969 1.253906-11.582031.113282-.699219.238282-1.40625.375-2.101563zm0 0" fill="#85af12"/></svg>