<svg height="512pt" viewBox="0 0 512 512" width="512pt" xmlns="http://www.w3.org/2000/svg"><path d="m512 256c0 81.441406-38.03125 154-97.300781 200.878906-11.089844 8.78125-22.929688 16.652344-35.398438 23.519532-10.941406 6.03125-22.371093 11.28125-34.222656 15.660156-27.738281 10.3125-57.75 15.941406-89.078125 15.941406s-61.339844-5.628906-89.078125-15.941406c-11.851563-4.378906-23.28125-9.628906-34.222656-15.660156-12.46875-6.867188-24.308594-14.75-35.398438-23.519532-59.269531-46.878906-97.300781-119.4375-97.300781-200.878906 0-141.378906 114.621094-256 256-256s256 114.621094 256 256zm0 0" fill="#b5e237"/><path d="m512 256c0 26.050781-3.890625 51.191406-11.128906 74.871094-32.011719 104.847656-129.542969 181.128906-244.871094 181.128906-104.558594 0-194.488281-62.699219-234.230469-152.550781-14-31.628907-21.769531-66.628907-21.769531-103.449219 0-46.21875 12.25-89.570312 33.679688-127 44.121093 77.070312 127.160156 129 222.320312 129s178.210938-51.929688 222.320312-129c21.429688 37.429688 33.679688 80.78125 33.679688 127zm0 0" fill="#95d600"/><path d="m30.742188 377.703125c7.15625 13.21875 15.429687 25.738281 24.71875 37.425781 46.898437 59.019532 119.300781 96.871094 200.539062 96.871094s153.640625-37.851562 200.539062-96.871094c9.289063-11.6875 17.5625-24.207031 24.71875-37.425781zm0 0" fill="#85af12"/><path d="m398.070312 154.308594c15.90625 54.3125 5.292969 110.085937-24.253906 153.476562-9.378906-8.601562-19.351562-16.503906-29.808594-23.65625-16.78125-11.472656-34.820312-21.027344-53.757812-28.445312 51.875-32.65625 83.882812-89.734375 84.855469-150.851563.089843.140625.179687.277344.269531.414063 9.738281 14.757812 17.46875 31.203125 22.695312 49.0625zm0 0" fill="#e52929"/><path d="m375.375 105.246094c.785156 3.292968 1.496094 6.628906 2.144531 9.988281 11.695313 60.929687-1.929687 120.84375-33.511719 168.894531-16.78125-11.472656-34.820312-21.027344-53.757812-28.445312 51.875-32.65625 83.882812-89.734375 84.855469-150.851563.089843.136719.179687.277344.269531.414063zm0 0" fill="#ba0d5c"/><path d="m113.929688 154.308594c-15.90625 54.3125-5.292969 110.085937 24.253906 153.476562 9.378906-8.601562 19.351562-16.503906 29.808594-23.65625 16.78125-11.472656 34.820312-21.027344 53.757812-28.445312-51.875-32.65625-83.882812-89.734375-84.855469-150.851563-.089843.140625-.179687.277344-.269531.414063-9.738281 14.757812-17.46875 31.203125-22.695312 49.0625zm0 0" fill="#e52929"/><path d="m136.625 105.246094c-.785156 3.292968-1.496094 6.628906-2.144531 9.988281-11.695313 60.929687 1.929687 120.84375 33.511719 168.894531 16.78125-11.472656 34.820312-21.027344 53.757812-28.445312-51.875-32.65625-83.882812-89.734375-84.855469-150.851563-.089843.136719-.179687.277344-.269531.414063zm0 0" fill="#ba0d5c"/><path d="m419.710938 423.621094-5.011719 33.257812c-11.089844 8.78125-22.929688 16.652344-35.398438 23.519532-10.941406 6.03125-22.371093 11.28125-34.222656 15.660156l12.722656-84.410156.320313-1.308594c5.71875-23.929688 2.199218-48.53125-9.941406-69.261719-.25-.429687-.519532-.878906-.789063-1.339844-6.871094-11.347656-15.660156-21.207031-26.160156-29.316406-18.78125-14.542969-41.289063-22.230469-65.109375-22.261719h-.121094c-23.859375 0-46.421875 7.699219-65.21875 22.25-10.5 8.121094-19.300781 17.980469-26.152344 29.300782-.269531.460937-.539062.898437-.800781 1.347656-12.148437 20.742187-15.679687 45.339844-9.949219 69.28125l.320313 1.308594 12.722656 84.410156c-11.851563-4.378906-23.28125-9.628906-34.222656-15.660156-12.46875-6.867188-24.308594-14.75-35.398438-23.519532l-5.011719-33.257812c-9.070312-39.390625-2.988281-79.960938 17.171876-114.382813.410156-.707031.839843-1.429687 1.269531-2.148437 10.878906-17.980469 24.839843-33.628906 41.488281-46.511719 29.941406-23.167969 65.832031-35.417969 103.78125-35.417969h.121094c37.910156.03125 73.75 12.269532 103.667968 35.429688 16.640626 12.871094 30.601563 28.53125 41.480469 46.511718.421875.6875.839844 1.398438 1.261719 2.117188 20.167969 34.460938 26.238281 75.019531 17.179688 114.402344zm0 0" fill="#474f6f"/><path d="m419.710938 423.621094-5.011719 33.257812c-11.089844 8.78125-22.929688 16.652344-35.398438 23.519532-10.941406 6.03125-22.371093 11.28125-34.222656 15.660156l12.722656-84.410156.320313-1.308594c5.71875-23.929688 2.199218-48.53125-9.941406-69.261719-.25-.429687-.519532-.878906-.789063-1.339844-6.871094-11.347656-15.660156-21.207031-26.160156-29.316406-.589844-.453125-1.179688-.902344-1.769531-1.34375-.382813-.277344-.761719-.558594-1.140626-.828125-1.421874-1.03125-2.851562-2.011719-4.300781-2.960938-.539062-.347656-1.078125-.699218-1.628906-1.039062-.359375-.21875-.71875-.441406-1.082031-.660156-.277344-.179688-.570313-.351563-.847656-.511719-1.441407-.867187-2.902344-1.6875-4.382813-2.476563-.539063-.292968-1.089844-.582031-1.636719-.863281-.203125-.097656-.402344-.199219-.601562-.296875-.519532-.269531-1.039063-.519531-1.558594-.769531-.640625-.3125-1.28125-.613281-1.929688-.910156-1.882812-.871094-3.792968-1.671875-5.710937-2.421875-.921875-.359375-1.851563-.699219-2.78125-1.03125-.6875-.25-1.390625-.488282-2.078125-.71875-.160156-.058594-.320312-.109375-.480469-.160156-.089843-.03125-.179687-.058594-.269531-.089844-.542969-.179688-1.082031-.351563-1.621094-.511719-1.039062-.316406-2.089844-.617187-3.140625-.90625-.847656-.242187-1.710937-.460937-2.558593-.660156-.859376-.222657-1.730469-.421875-2.589844-.613281-.132813-.027344-.261719-.046876-.382813-.078126-.777343-.171874-1.566406-.332031-2.347656-.480468-.902344-.167969-1.789063-.328125-2.691406-.480469-1.328125-.230469-2.660157-.417969-4-.578125-3.007813-.390625-6.058594-.652344-9.128907-.769531-1.398437-.0625-2.800781-.089844-4.210937-.101563h-.238281v-63c20.800781.019532 40.96875 3.710938 59.878906 10.871094 14.949219 5.640625 29.109375 13.449219 42.171875 23.328125.539063.402344 1.078125.8125 1.617187 1.230469 9.839844 7.609375 18.75 16.199218 26.609376 25.671875 5.472656 6.539062 10.429687 13.5 14.871093 20.839843.421875.6875.839844 1.398438 1.261719 2.117188 20.167969 34.460938 26.238281 75.019531 17.179688 114.402344zm0 0" fill="#323b5a"/><path d="m388.75 417.671875-9.449219 62.726563c-10.941406 6.03125-22.371093 11.28125-34.222656 15.660156l12.722656-84.410156.320313-1.308594c5.71875-23.929688 2.199218-48.53125-9.941406-69.261719-.25-.429687-.519532-.878906-.789063-1.339844-6.871094-11.347656-15.660156-21.207031-26.160156-29.316406-.589844-.453125-1.179688-.902344-1.769531-1.34375-.382813-.277344-.761719-.558594-1.140626-.828125-.269531-.199219-.539062-.398438-.820312-.589844-1.148438-.808594-2.308594-1.601562-3.480469-2.371094-.539062-.347656-1.078125-.699218-1.628906-1.039062-.082031-.050781-.152344-.101562-.230469-.140625-.558594-.347656-1.128906-.699219-1.699218-1.03125-.371094-.226563-.742188-.449219-1.109376-.648437-.460937-.28125-.929687-.539063-1.390624-.800782-2.492188-1.398437-5.03125-2.6875-7.609376-3.867187-.472656-.222657-.941406-.433594-1.410156-.640625-.480468-.199219-.953125-.410156-1.421875-.609375-.480469-.203125-.949219-.390625-1.429687-.589844-.480469-.203125-.960938-.390625-1.449219-.582031-.832031-.320313-1.660156-.628906-2.5-.941406-.050781-.007813-.109375-.027344-.160156-.046876-.730469-.261718-1.46875-.523437-2.199219-.761718-.160156-.058594-.320312-.109375-.480469-.160156-.089843-.03125-.179687-.058594-.269531-.089844-.542969-.167969-1.082031-.339844-1.621094-.511719-.039062-.007813-.070312-.019531-.109375-.027344-.171875-.050781-.332031-.109375-.5-.152343-1.679687-.507813-3.378906-.96875-5.089843-1.386719-.859376-.222657-1.730469-.421875-2.589844-.613281-.0625-.007813-.121094-.019532-.171875-.027344-.847657-.191406-1.710938-.371094-2.558594-.53125-.902344-.167969-1.789063-.328125-2.691406-.480469-1.328125-.230469-2.660157-.417969-4-.578125-.75-.101562-1.507813-.191406-2.257813-.269531-.410156-.042969-.8125-.082031-1.210937-.121094-.410157-.039063-.832031-.082031-1.242188-.109375-.707031-.0625-1.410156-.109375-2.117187-.152344-.769532-.050781-1.53125-.089844-2.300782-.117187-1.398437-.0625-2.800781-.089844-4.210937-.101563h-.359375c-23.859375 0-46.421875 7.699219-65.21875 22.25-10.5 8.121094-19.300781 17.980469-26.152344 29.300782-.269531.460937-.539062.898437-.800781 1.347656-12.148437 20.742187-15.679687 45.339844-9.949219 69.28125l.320313 1.308594 12.722656 84.410156c-11.851563-4.378906-23.28125-9.628906-34.222656-15.660156l-9.449219-62.726563c-7.519531-31.421875-2.929688-64.640625 13.390625-92.523437.339844-.578126.6875-1.160157 1.039063-1.738282 8.851562-14.628906 20.339843-27.488281 33.820312-37.910156 23.359375-18.078125 52.671875-28.839844 84.5-28.839844h.121094c31.777344.03125 61.050781 10.78125 84.390625 28.839844 13.46875 10.421875 24.957031 23.28125 33.808593 37.910156.351563.578125.699219 1.167969 1.050782 1.761719 16.308594 27.867187 20.898437 61.089844 13.378906 92.5zm0 0" fill="#323b5a"/><path d="m388.75 417.671875-9.449219 62.726563c-10.941406 6.03125-22.371093 11.28125-34.222656 15.660156l12.722656-84.410156.320313-1.308594c5.71875-23.929688 2.199218-48.53125-9.941406-69.261719-.25-.429687-.519532-.878906-.789063-1.339844-6.871094-11.347656-15.660156-21.207031-26.160156-29.316406-.589844-.453125-1.179688-.902344-1.769531-1.34375-.382813-.277344-.761719-.558594-1.140626-.828125-1.421874-1.03125-2.851562-2.011719-4.300781-2.960938-.539062-.347656-1.078125-.699218-1.628906-1.039062-.359375-.21875-.71875-.441406-1.082031-.660156-.277344-.179688-.570313-.351563-.847656-.511719-1.441407-.867187-2.902344-1.6875-4.382813-2.476563-.546875-.292968-1.089844-.582031-1.636719-.863281-.203125-.097656-.402344-.199219-.601562-.296875-.519532-.261718-1.039063-.519531-1.558594-.769531-.640625-.3125-1.28125-.613281-1.929688-.910156-1.882812-.871094-3.792968-1.671875-5.710937-2.421875-.921875-.359375-1.851563-.699219-2.78125-1.03125-.6875-.25-1.390625-.488282-2.078125-.71875-.160156-.058594-.320312-.109375-.480469-.160156-.628906-.210938-1.261719-.410157-1.890625-.601563-1.039062-.316406-2.089844-.617187-3.140625-.90625-.847656-.230469-1.710937-.453125-2.558593-.660156-.859376-.222657-1.730469-.421875-2.589844-.613281-.132813-.027344-.261719-.046876-.382813-.078126-.777343-.171874-1.566406-.332031-2.347656-.480468-.902344-.167969-1.789063-.328125-2.691406-.480469-1.328125-.21875-2.660157-.417969-4-.578125-3.007813-.390625-6.058594-.652344-9.128907-.769531-1.398437-.0625-2.800781-.089844-4.210937-.101563h-.238281v-31.5c31.777344.03125 61.050781 10.78125 84.390625 28.839844 13.46875 10.421875 24.957031 23.28125 33.808593 37.910156.351563.578125.699219 1.167969 1.050782 1.761719 16.308594 27.867187 20.898437 61.089844 13.378906 92.5zm0 0" fill="#20273a"/></svg>