<svg height="512pt" viewBox="0 0 512 512" width="512pt" xmlns="http://www.w3.org/2000/svg"><path d="m512 256c0 24.550781-3.460938 48.289062-9.910156 70.769531v.011719c-2.070313 7.21875-4.460938 14.308594-7.128906 21.257812-3.480469 9.011719-7.449219 17.769532-11.882813 26.25-24.019531 46.03125-61.628906 83.851563-107.519531 108.132813-14.257813 7.546875-29.320313 13.777344-45.019532 18.546875-3.160156.960938-6.339843 1.859375-9.550781 2.703125-14.539062 3.808594-29.578125 6.367187-45 7.558594-5.148437.398437-10.359375.640625-15.597656.710937-.691406.019532-1.378906.027344-2.070313.039063-.429687.007812-.859374.007812-1.289062.007812-.25.011719-.5.011719-.75.011719h-.28125c-.949219 0-1.898438-.011719-2.851562-.03125-.410157 0-.808594-.007812-1.21875-.019531-5.308594-.070313-10.570313-.308594-15.789063-.71875-13.921875-1.058594-27.53125-3.242188-40.730469-6.449219-2.46875-.589844-4.921875-1.230469-7.359375-1.902344-11.769531-3.230468-23.199219-7.277344-34.230469-12.089844-52.570312-22.910156-95.949218-62.960937-123.089843-113.089843-3.441407-6.347657-6.621094-12.871094-9.53125-19.539063-4.621094-10.601562-8.539063-21.570312-11.710938-32.859375-6.179687-22.039062-9.488281-45.28125-9.488281-69.300781 0-85.140625 41.558594-160.570312 105.511719-207.109375 11.457031-8.351563 23.636719-15.761719 36.4375-22.140625 24.339843-12.128906 50.878906-20.511719 78.871093-24.339844 7.609376-1.058594 15.320313-1.769531 23.128907-2.128906 1.910156-.089844 3.820312-.160156 5.742187-.203125 2.089844-.0585938 4.199219-.078125 6.308594-.078125 9.230469 0 18.339844.488281 27.320312 1.449219 8.757813.921875 17.390626 2.300781 25.871094 4.101562.648438.128907 1.296875.269531 1.949219.410157 6.289063 1.367187 12.5 2.988281 18.597656 4.828124.703125.210938 1.402344.421876 2.101563.640626 104.351562 32.320312 180.160156 129.589843 180.160156 244.570312zm0 0" fill="#9e69e2"/><path d="m512 256c0 26.050781-3.890625 51.191406-11.128906 74.871094-32.011719 104.847656-129.542969 181.128906-244.871094 181.128906-104.558594 0-194.488281-62.699219-234.230469-152.550781-14-31.628907-21.769531-66.628907-21.769531-103.449219 0-46.21875 12.25-89.570312 33.679688-127 44.121093 77.070312 127.160156 129 222.320312 129s178.210938-51.929688 222.320312-129c21.429688 37.429688 33.679688 80.78125 33.679688 127zm0 0" fill="#8e4fd2"/><path d="m500.871094 330.871094c-32.011719 104.847656-129.542969 181.128906-244.871094 181.128906" fill="#8e4fd2"/><path d="m481.261719 377.699219c-7.160157 13.222656-15.433594 25.742187-24.722657 37.429687-8.4375 10.632813-17.71875 20.570313-27.71875 29.722656-45.539062 41.699219-106.210937 67.148438-172.820312 67.148438s-127.28125-25.449219-172.820312-67.148438c-10-9.152343-19.28125-19.089843-27.71875-29.722656-9.289063-11.6875-17.5625-24.207031-24.722657-37.429687zm0 0" fill="#7038ba"/><path d="m413.726562 354.273438c0 87.019531-70.472656 157.582031-157.453124 157.726562h-.273438c-87.105469 0-157.730469-70.613281-157.730469-157.726562 0-87.109376 70.621094-157.722657 157.730469-157.722657h.269531c86.984375.144531 157.457031 70.703125 157.457031 157.722657zm0 0" fill="#ffe955"/><path d="m413.726562 354.273438c0 87.019531-70.472656 157.582031-157.453124 157.726562-55.632813-30.589844-93.339844-89.757812-93.339844-157.726562s37.703125-127.128907 93.335937-157.722657c86.984375.144531 157.457031 70.703125 157.457031 157.722657zm0 0" fill="#ffd112"/><path d="m413.726562 354.273438c0 87.113281-70.621093 157.726562-157.726562 157.726562v-315.449219c87.105469 0 157.726562 70.613281 157.726562 157.722657zm0 0" fill="#ff9f00"/><path d="m207.988281 383.183594c0 16.390625-13.285156 29.675781-29.675781 29.675781-16.386719 0-29.671875-13.285156-29.671875-29.675781 0-16.386719 13.285156-29.671875 29.671875-29.671875 16.390625 0 29.675781 13.285156 29.675781 29.671875zm0 0" fill="#ff9f00"/><path d="m197.492188 262.304688c0 8.214843-6.660157 14.871093-14.871094 14.871093-8.214844 0-14.875-6.65625-14.875-14.871093 0-8.214844 6.660156-14.871094 14.875-14.871094 8.210937 0 14.871094 6.65625 14.871094 14.871094zm0 0" fill="#ff9f00"/><path d="m325.859375 422.597656c0 8.214844-6.660156 14.871094-14.871094 14.871094-8.214843 0-14.875-6.65625-14.875-14.871094s6.660157-14.871094 14.875-14.871094c8.210938 0 14.871094 6.65625 14.871094 14.871094zm0 0" fill="#ed771b"/><path d="m340.730469 287.789062c0 8.214844-6.65625 14.871094-14.871094 14.871094s-14.871094-6.65625-14.871094-14.871094c0-8.214843 6.65625-14.871093 14.871094-14.871093s14.871094 6.65625 14.871094 14.871093zm0 0" fill="#ed771b"/><path d="m392.625 354.273438c0 13.09375-10.613281 23.707031-23.707031 23.707031s-23.707031-10.613281-23.707031-23.707031c0-13.089844 10.613281-23.703126 23.707031-23.703126s23.707031 10.613282 23.707031 23.703126zm0 0" fill="#ed771b"/><path d="m241.714844 450.851562c0 8.214844-6.660156 14.871094-14.871094 14.871094-8.214844 0-14.871094-6.65625-14.871094-14.871094 0-8.214843 6.65625-14.871093 14.871094-14.871093 8.210938 0 14.871094 6.65625 14.871094 14.871093zm0 0" fill="#ff9f00"/><path d="m375.558594 482.421875c-14.257813 7.546875-29.320313 13.777344-45.019532 18.546875-3.160156.960938-6.339843 1.859375-9.550781 2.703125-14.539062 3.808594-29.578125 6.367187-45 7.558594h-39.847656c-13.921875-1.058594-27.53125-3.242188-40.730469-6.449219-2.46875-.589844-4.921875-1.230469-7.359375-1.902344-11.769531-3.230468-23.199219-7.277344-34.230469-12.089844 3.570313-3.019531 7.691407-5.398437 12.199219-6.949218 3.949219-1.378906 8.199219-2.121094 12.621094-2.121094 1.878906 0 3.71875.140625 5.519531.402344 1.78125-9.359375 5.46875-18.042969 10.640625-25.621094 12.328125-18.101562 33.109375-29.988281 56.667969-29.988281 1.519531 0 3.03125.046875 4.53125.136719 23.820312 1.5625 44.320312 15.300781 55.339844 35.050781 6.070312-2.429688 12.679687-3.777344 19.609375-3.777344 12.429687 0 23.851562 4.289063 32.871093 11.46875 4.601563 3.660156 8.570313 8.058594 11.738282 13.03125zm0 0" fill="#fff"/><path d="m330.539062 500.96875c-3.160156.960938-6.339843 1.859375-9.550781 2.703125-14.539062 3.808594-29.578125 6.367187-45 7.558594h-39.847656c-13.921875-1.058594-27.53125-3.242188-40.730469-6.449219.820313-1.332031 1.769532-2.5625 2.851563-3.679688 4.039062-4.210937 9.71875-6.839843 16.007812-6.839843 1.082031 0 2.140625.078125 3.171875.226562.578125-3.019531 1.5-5.917969 2.730469-8.648437 6.117187-13.699219 19.847656-23.269532 35.828125-23.328125h.148438c14.800781 0 27.691406 8.167969 34.429687 20.238281 3.480469-1.398438 7.292969-2.171875 11.273437-2.171875 10.859376 0 20.378907 5.691406 25.75 14.261719v.011718c1.207032 1.910157 2.199219 3.957032 2.9375 6.117188zm0 0" fill="#d0f6ff"/><g fill="#fff"><path d="m273.347656 153.96875c-7.175781 0-12.988281-5.816406-12.988281-12.988281 0-.421875-.34375-.761719-.761719-.761719h-7.191406c-.421875 0-.761719.339844-.761719.761719 0 7.171875-5.816406 12.988281-12.992187 12.988281-.417969 0-.761719.339844-.761719.761719v7.191406c0 .421875.34375.761719.761719.761719 7.175781 0 12.992187 5.816406 12.992187 12.988281 0 .421875.339844.761719.761719.761719h7.191406c.417969 0 .761719-.339844.761719-.761719 0-7.171875 5.8125-12.988281 12.988281-12.988281.421875 0 .761719-.339844.761719-.761719v-7.191406c0-.417969-.339844-.761719-.761719-.761719zm0 0"/><path d="m157.46875 80.867188c-7.171875 0-12.988281-5.816407-12.988281-12.988282 0-.421875-.339844-.765625-.761719-.765625h-7.191406c-.421875 0-.761719.34375-.761719.765625 0 7.171875-5.816406 12.988282-12.988281 12.988282-.421875 0-.761719.339843-.761719.761718v7.191406c0 .417969.339844.761719.761719.761719 7.171875 0 12.988281 5.8125 12.988281 12.988281 0 .421876.339844.761719.761719.761719h7.191406c.421875 0 .761719-.339843.761719-.761719 0-7.175781 5.816406-12.988281 12.988281-12.988281.421875 0 .761719-.34375.761719-.761719v-7.191406c0-.421875-.339844-.761718-.761719-.761718zm0 0"/><path d="m389.222656 80.867188c-7.171875 0-12.988281-5.816407-12.988281-12.988282 0-.421875-.339844-.765625-.761719-.765625h-7.191406c-.421875 0-.761719.34375-.761719.765625 0 7.171875-5.816406 12.988282-12.988281 12.988282-.421875 0-.761719.339843-.761719.761718v7.191406c0 .417969.339844.761719.761719.761719 7.171875 0 12.988281 5.8125 12.988281 12.988281 0 .421876.339844.761719.761719.761719h7.191406c.421875 0 .761719-.339843.761719-.761719 0-7.175781 5.816406-12.988281 12.988281-12.988281.421875 0 .761719-.34375.761719-.761719v-7.191406c0-.421875-.339844-.761718-.761719-.761718zm0 0"/><path d="m82.804688 185.53125c-7.175782 0-12.992188-5.8125-12.992188-12.988281 0-.421875-.339844-.761719-.761719-.761719h-7.191406c-.417969 0-.761719.339844-.761719.761719 0 7.175781-5.8125 12.988281-12.988281 12.988281-.421875 0-.761719.34375-.761719.765625v7.1875c0 .421875.339844.761719.761719.761719 7.175781 0 12.988281 5.816406 12.988281 12.992187 0 .417969.34375.761719.761719.761719h7.191406c.421875 0 .761719-.34375.761719-.761719 0-7.175781 5.816406-12.992187 12.992188-12.992187.417968 0 .761718-.339844.761718-.761719v-7.1875c0-.421875-.34375-.765625-.761718-.765625zm0 0"/><path d="m444.558594 185.53125c-7.175782 0-12.992188-5.8125-12.992188-12.988281 0-.421875-.339844-.761719-.761718-.761719h-7.191407c-.417969 0-.761719.339844-.761719.761719 0 7.175781-5.8125 12.988281-12.988281 12.988281-.421875 0-.761719.34375-.761719.765625v7.1875c0 .421875.339844.761719.761719.761719 7.175781 0 12.988281 5.816406 12.988281 12.992187 0 .417969.34375.761719.761719.761719h7.191407c.421874 0 .761718-.34375.761718-.761719 0-7.175781 5.816406-12.992187 12.992188-12.992187.417968 0 .761718-.339844.761718-.761719v-7.1875c0-.421875-.34375-.765625-.761718-.765625zm0 0"/><path d="m150.148438 377.328125c0 .132813-.007813.25-.007813.371094h-119.410156c-3.441407-6.347657-6.621094-12.871094-9.53125-19.539063-4.621094-10.601562-8.539063-21.570312-11.710938-32.859375 9.601563-8.859375 22.433594-14.269531 36.53125-14.269531 20.261719 0 37.902344 11.179688 47.121094 27.699219 1.960937-.78125 3.988281-1.429688 6.089844-1.910157 3-.699218 6.128906-1.070312 9.339843-1.070312 21.898438 0 39.851563 16.941406 41.460938 38.429688.078125 1.039062.117188 2.089843.117188 3.148437zm0 0"/></g><path d="m109.578125 377.488281c0 .070313-.007813.140625-.007813.210938h-78.839843c-3.441407-6.347657-6.621094-12.871094-9.53125-19.539063 4.75-11.050781 15.722656-18.789062 28.5-18.789062 11.652343 0 21.800781 6.417968 27.101562 15.917968 2.738281-1.097656 5.730469-1.710937 8.871094-1.710937 4.636719 0 8.957031 1.320313 12.628906 3.613281 6.769531 4.21875 11.277344 11.738282 11.277344 20.296875zm0 0" fill="#d0f6ff"/><path d="m502.089844 326.769531v.011719c-2.070313 7.21875-4.460938 14.308594-7.128906 21.257812-3.480469 9.011719-7.449219 17.769532-11.882813 26.25h-124.117187c3.5-14.550781 16.578124-25.359374 32.199218-25.359374.289063 0 .570313 0 .851563.011718 1.316406.039063 2.609375.148438 3.886719.328125 2.070312-10.847656 7.121093-20.648437 14.273437-28.5 10.769531-11.839843 26.296875-19.28125 43.566406-19.28125 20.023438 0 37.703125 10 48.351563 25.28125zm0 0" fill="#fff"/><path d="m494.960938 348.039062c-3.480469 9.011719-7.449219 17.769532-11.882813 26.25h-79.816406c1.347656-5.617187 5.199219-10.277343 10.296875-12.71875 2.492187-1.199218 5.269531-1.859374 8.222656-1.859374.917969 0 1.828125.070312 2.71875.199218 2.988281-15.648437 16.738281-27.480468 33.261719-27.480468 12.71875 0 23.796875 7.011718 29.589843 17.378906 2.378907-.949219 4.9375-1.558594 7.609376-1.769532zm0 0" fill="#d0f6ff"/></svg>