<svg height="512pt" viewBox="0 0 512 512" width="512pt" xmlns="http://www.w3.org/2000/svg"><path d="m512 256c0 93.578125-50.21875 175.441406-125.179688 220.089844-38.289062 22.808594-83.019531 35.910156-130.820312 35.910156h-.011719c-47.789062 0-92.527343-13.101562-130.808593-35.910156-74.960938-44.648438-125.179688-126.511719-125.179688-220.089844 0-141.378906 114.621094-256 256-256s256 114.621094 256 256zm0 0" fill="#b5e237"/><path d="m512 256c0 26.050781-3.890625 51.191406-11.128906 74.871094-32.011719 104.847656-129.542969 181.128906-244.871094 181.128906-104.558594 0-194.488281-62.699219-234.230469-152.550781-14-31.628907-21.769531-66.628907-21.769531-103.449219 0-46.21875 12.25-89.570312 33.679688-127 44.121093 77.070312 127.160156 129 222.320312 129s178.210938-51.929688 222.320312-129c21.429688 37.429688 33.679688 80.78125 33.679688 127zm0 0" fill="#95d600"/><path d="m30.742188 377.703125c7.15625 13.21875 15.429687 25.738281 24.71875 37.425781 46.898437 59.019532 119.300781 96.871094 200.539062 96.871094s153.640625-37.851562 200.539062-96.871094c9.289063-11.6875 17.5625-24.207031 24.71875-37.425781zm0 0" fill="#85af12"/><path d="m387.730469 370.328125v96.671875c0 3.109375-.320313 6.148438-.910157 9.089844-38.289062 22.808594-83.019531 35.910156-130.820312 35.910156h-.011719c-47.789062 0-92.527343-13.101562-130.808593-35.910156-.589844-2.941406-.910157-5.980469-.910157-9.089844v-95.128906c0-32.082032 11.511719-63.132813 32.421875-87.421875 19.519532-22.679688 27.589844-52.628907 22.136719-82.179688l-.109375-.558593c-1.660156-9.0625 5.292969-17.410157 14.492188-17.410157h125.570312c8.277344 0 14.75 6.757813 14.75 14.710938 0 .886719-.082031 1.789062-.25 2.699219-5.472656 29.628906 2.6875 59.710937 22.417969 82.507812 20.660156 23.890625 32.03125 54.472656 32.03125 86.109375zm0 0" fill="#fff"/><path d="m387.730469 370.328125v96.671875c0 3.109375-.320313 6.148438-.910157 9.089844-38.289062 22.808594-83.019531 35.910156-130.820312 35.910156h-.011719v-327.699219h62.792969c8.277344 0 14.75 6.757813 14.75 14.710938 0 .886719-.082031 1.789062-.25 2.699219-5.472656 29.628906 2.6875 59.710937 22.417969 82.507812 20.660156 23.890625 32.03125 54.472656 32.03125 86.109375zm0 0" fill="#e4ebf8"/><path d="m358.734375 374.171875v92.828125c0 8.820312-7.179687 16-16.007813 16h-173.460937c-8.820313 0-16-7.179688-16-16v-92.828125zm0 0" fill="#8e4fd2"/><path d="m358.734375 374.171875v92.828125c0 8.820312-7.179687 16-16.007813 16h-86.730468v-108.828125zm0 0" fill="#7038ba"/><path d="m320.429688 371.121094c0 35.578125-28.851563 64.429687-64.429688 64.429687h-.011719c-35.578125-.011719-64.417969-28.851562-64.417969-64.429687 0-35.582032 28.839844-64.410156 64.417969-64.421875h.011719c35.578125 0 64.429688 28.839843 64.429688 64.421875zm0 0" fill="#65b2ff"/><path d="m320.429688 371.121094c0 35.578125-28.851563 64.429687-64.429688 64.429687h-.011719v-128.851562h.011719c35.578125 0 64.429688 28.839843 64.429688 64.421875zm0 0" fill="#0f9be8"/><path d="m306.261719 157.300781v74.238281c0 15.269532-12.382813 27.640626-27.652344 27.640626h-45.21875c-15.269531 0-27.652344-12.371094-27.652344-27.640626v-74.238281c0-15.261719 12.382813-27.640625 27.652344-27.640625h45.21875c15.269531 0 27.652344 12.378906 27.652344 27.640625zm0 0" fill="#a63914"/><path d="m306.261719 157.300781v74.238281c0 15.269532-12.382813 27.640626-27.652344 27.640626h-22.609375v-129.519532h22.609375c15.269531 0 27.652344 12.378906 27.652344 27.640625zm0 0" fill="#7a2d1a"/><path d="m306.261719 184.300781v47.238281c0 15.269532-12.382813 27.640626-27.652344 27.640626h-45.21875c-15.269531 0-27.652344-12.371094-27.652344-27.640626v-47.238281zm0 0" fill="#ff9f00"/><path d="m306.261719 184.300781v47.238281c0 15.269532-12.382813 27.640626-27.652344 27.640626h-22.609375v-74.878907zm0 0" fill="#ed771b"/><path d="m271.980469 405.796875c-.550781 3.4375-2.183594 6.515625-4.539063 8.871094-2.925781 2.929687-6.972656 4.738281-11.4375 4.738281h-.003906c-.539062 0-1.066406-.023438-1.59375-.078125-7.335938-.714844-13.234375-6.328125-14.382812-13.527344-.203126-1.273437.796874-2.417969 2.082031-2.417969.898437 0 1.710937.363282 2.300781.953126.28125.28125.515625.621093.675781.992187.175781.398437.273438.839844.273438 1.304687v.597657c0 .628906.179687 1.214843.488281 1.710937.574219.921875 1.597656 1.539063 2.761719 1.539063h.597656c1.792969 0 3.25-1.457031 3.25-3.25v-.597657c0-1.792968 1.453125-3.246093 3.246094-3.246093h.597656c1.796875 0 3.25 1.453125 3.25 3.246093v.597657c0 1.792969 1.457031 3.25 3.25 3.25h.597656c1.792969 0 3.246094-1.457031 3.246094-3.25v-.597657c0-1.792968 1.457031-3.246093 3.25-3.246093 1.289063-.003907 2.292969 1.140625 2.089844 2.410156zm0 0" fill="#fff"/><path d="m271.980469 405.796875c-.550781 3.4375-2.183594 6.515625-4.539063 8.871094-2.925781 2.929687-6.972656 4.738281-11.4375 4.738281h-.003906c-.539062 0-1.066406-.023438-1.59375-.078125-4.035156-2.21875-7.132812-5.929687-8.5625-10.386719.574219.921875 1.597656 1.539063 2.761719 1.539063h.597656c1.792969 0 3.25-1.457031 3.25-3.25v-.597657c0-1.792968 1.453125-3.25 3.246094-3.25h.597656c1.796875 0 3.25 1.457032 3.25 3.25v.597657c0 1.792969 1.457031 3.25 3.25 3.25h.597656c1.792969 0 3.246094-1.457031 3.246094-3.25v-.597657c0-1.792968 1.457031-3.25 3.25-3.25 1.289063 0 2.292969 1.144532 2.089844 2.414063zm0 0" fill="#e4ebf8"/><path d="m292.753906 372.476562c.078125 10.914063-4.601562 20.738282-12.089844 27.519532-.734374.664062-1.90625.144531-1.90625-.847656v-1.488282c0-1.316406-1.070312-2.382812-2.382812-2.382812h-1.738281c-1.316407 0-2.382813 1.066406-2.382813 2.382812v1.738282c0 1.3125-1.066406 2.378906-2.382812 2.378906h-1.734375c-1.316407 0-2.382813-1.066406-2.382813-2.378906v-1.738282c0-1.316406-1.066406-2.382812-2.382812-2.382812h-1.734375c-1.320313 0-2.382813 1.066406-2.382813 2.382812v1.738282c0 1.3125-1.070312 2.378906-2.382812 2.378906h-1.738282c-.265624 0-.519531-.042969-.761718-.125-.226563-.074219-.4375-.183594-.628906-.320313-.601563-.433593-.992188-1.140625-.992188-1.933593v-1.738282c0-1.316406-1.066406-2.382812-2.382812-2.382812h-1.734376c-.867187 0-1.621093.460937-2.039062 1.148437-.21875.359375-.347656.78125-.347656 1.234375v1.738282c0 1.3125-1.066406 2.378906-2.378906 2.378906h-1.738282c-1.316406 0-2.382812-1.066406-2.382812-2.378906v-1.738282c0-1.316406-1.066406-2.382812-2.382813-2.382812h-1.734375c-1.316406 0-2.382812 1.066406-2.382812 2.382812v1.492188c0 .992187-1.171875 1.511718-1.902344.847656l-.003906-.003906c-7.425782-6.722656-12.09375-16.4375-12.09375-27.242188 0-20.070312 16.085937-36.378906 36.066406-36.746094.230469-.003906.460938-.007812.691406-.007812h.257813c20.085937.132812 36.339843 16.269531 36.492187 36.476562zm0 0" fill="#fff"/><path d="m292.753906 372.476562c.078125 10.914063-4.601562 20.738282-12.089844 27.519532-.734374.664062-1.90625.144531-1.90625-.847656v-1.488282c0-1.316406-1.070312-2.382812-2.382812-2.382812h-1.738281c-1.316407 0-2.382813 1.066406-2.382813 2.382812v1.738282c0 1.3125-1.066406 2.378906-2.382812 2.378906h-1.734375c-1.316407 0-2.382813-1.066406-2.382813-2.378906v-1.738282c0-1.316406-1.066406-2.382812-2.382812-2.382812h-1.734375c-1.320313 0-2.382813 1.066406-2.382813 2.382812v1.738282c0 1.3125-1.070312 2.378906-2.382812 2.378906h-1.738282c-.265624 0-.519531-.042969-.761718-.125-.210938-.105469-.417969-.210938-.628906-.320313-.601563-.433593-.992188-1.140625-.992188-1.933593v-1.738282c0-1.316406-1.066406-2.382812-2.382812-2.382812h-1.734376c-.867187 0-1.621093.460937-2.039062 1.148437-7.53125-6.628906-12.285156-16.339843-12.285156-27.160156 0-14.925781 9.046875-27.742187 21.953125-33.261719 20.085937.128906 36.339843 16.265625 36.492187 36.472656zm0 0" fill="#e4ebf8"/><path d="m292.753906 372.476562c.078125 10.914063-4.601562 20.738282-12.089844 27.519532-.734374.664062-1.90625.144531-1.90625-.847656v-1.488282c0-1.316406-1.070312-2.382812-2.382812-2.382812h-1.738281c-1.316407 0-2.382813 1.066406-2.382813 2.382812v1.738282c0 1.3125-1.066406 2.378906-2.382812 2.378906h-1.734375c-1.316407 0-2.382813-1.066406-2.382813-2.378906v-1.738282c0-1.316406-1.066406-2.382812-2.382812-2.382812h-1.734375c-1.320313 0-2.382813 1.066406-2.382813 2.382812v1.738282c0 1.3125-1.070312 2.378906-2.382812 2.378906h-.871094v-65.777344c20.207031-.003906 36.601562 16.183594 36.753906 36.476562zm0 0" fill="#c7d9ff"/><path d="m254.585938 380.484375-3.566407 6.175781c-.632812 1.089844.15625 2.453125 1.414063 2.453125h7.132812c1.257813 0 2.042969-1.363281 1.414063-2.453125l-3.566407-6.175781c-.628906-1.089844-2.199218-1.089844-2.828124 0zm0 0" fill="#313b5a"/><path d="m252.597656 374.40625c.003906-.097656.003906-.191406.003906-.289062 0-7.359376-5.886718-13.308594-13.25-13.375-7.441406-.066407-13.496093 5.945312-13.496093 13.375v.121093c.039062 4.152344 3.433593 7.488281 7.585937 7.488281h11.578125c4.085938 0 7.492188-3.238281 7.578125-7.320312zm0 0" fill="#313b5a"/><path d="m286.140625 374.40625c.003906-.097656.003906-.191406.003906-.289062 0-7.359376-5.890625-13.308594-13.25-13.375-7.441406-.066407-13.496093 5.945312-13.496093 13.375v.121093c.039062 4.152344 3.433593 7.488281 7.585937 7.488281h11.578125c4.085938 0 7.492188-3.238281 7.578125-7.320312zm0 0" fill="#313b5a"/><path d="m271.980469 405.796875c-.550781 3.4375-2.183594 6.515625-4.539063 8.871094-2.925781 2.929687-6.972656 4.738281-11.4375 4.738281h-.003906v-16.023438h.296875c1.796875 0 3.25 1.457032 3.25 3.25v.597657c0 1.792969 1.457031 3.246093 3.25 3.246093h.597656c1.792969 0 3.246094-1.453124 3.246094-3.246093v-.597657c0-1.792968 1.457031-3.25 3.25-3.25 1.289063 0 2.292969 1.144532 2.089844 2.414063zm0 0" fill="#c7d9ff"/><path d="m245.082031 405.328125c.175781.398437.273438.839844.273438 1.304687v.453126c-.117188-.578126-.210938-1.164063-.273438-1.757813zm0 0" fill="#e4ebf8"/><g fill="#fff"><path d="m387.894531 221.09375h1.527344c6.75 0 12.226563-5.476562 12.226563-12.226562v-1.523438h8.714843v1.523438c0 6.75 5.472657 12.226562 12.226563 12.226562h1.523437v8.714844h-1.523437c-6.753906 0-12.226563 5.472656-12.226563 12.226562v1.527344h-8.714843v-1.527344c0-6.753906-5.476563-12.226562-12.226563-12.226562h-1.527344zm0 0"/><path d="m335.894531 99.652344h1.527344c6.75 0 12.226563-5.472656 12.226563-12.226563v-1.523437h8.714843v1.523437c0 6.753907 5.472657 12.226563 12.226563 12.226563h1.523437v8.71875h-1.523437c-6.753906 0-12.226563 5.472656-12.226563 12.226562v1.523438h-8.714843v-1.523438c0-6.753906-5.476563-12.226562-12.226563-12.226562h-1.527344zm0 0"/><path d="m124.105469 221.09375h-1.527344c-6.75 0-12.226563-5.476562-12.226563-12.226562v-1.523438h-8.714843v1.523438c0 6.75-5.472657 12.226562-12.226563 12.226562h-1.523437v8.714844h1.523437c6.753906 0 12.226563 5.472656 12.226563 12.226562v1.527344h8.714843v-1.527344c0-6.753906 5.476563-12.226562 12.226563-12.226562h1.527344zm0 0"/><path d="m176.105469 99.652344h-1.527344c-6.75 0-12.226563-5.472656-12.226563-12.226563v-1.523437h-8.714843v1.523437c0 6.753907-5.472657 12.226563-12.226563 12.226563h-1.523437v8.71875h1.523437c6.753906 0 12.226563 5.472656 12.226563 12.226562v1.523438h8.714843v-1.523438c0-6.753906 5.476563-12.226562 12.226563-12.226562h1.527344zm0 0"/></g></svg>