<svg height="512pt" viewBox="0 0 512 512" width="512pt" xmlns="http://www.w3.org/2000/svg"><path d="m512 256c0 141.386719-114.613281 256-256 256s-256-114.613281-256-256 114.613281-256 256-256 256 114.613281 256 256zm0 0" fill="#68fcdf"/><path d="m512 256c0 26.050781-3.890625 51.191406-11.128906 74.871094-32.011719 104.847656-129.542969 181.128906-244.871094 181.128906-104.558594 0-194.488281-62.699219-234.230469-152.550781-14-31.628907-21.769531-66.628907-21.769531-103.449219 0-46.21875 12.25-89.570312 33.679688-127 44.121093 77.070312 127.160156 129 222.320312 129s178.210938-51.929688 222.320312-129c21.429688 37.429688 33.679688 80.78125 33.679688 127zm0 0" fill="#10e2c4"/><path d="m481.261719 377.699219c-7.160157 13.222656-15.433594 25.742187-24.722657 37.429687-44.96875 56.589844-113.367187 93.710938-190.539062 96.671875-3.308594.140625-6.648438.199219-10 .199219s-6.691406-.058594-10-.199219c-77.171875-2.960937-145.570312-40.082031-190.539062-96.671875-9.289063-11.6875-17.5625-24.207031-24.722657-37.429687zm0 0" fill="#1aba9f"/><path d="m114.125 319h283.75v20h-283.75zm0 0" fill="#313b5a"/><path d="m266 187.121094v324.679687c-3.308594.140625-6.648438.199219-10 .199219s-6.691406-.058594-10-.199219v-324.679687zm0 0" fill="#313b5a"/><path d="m307.789062 426.988281v38.011719l-16.628906-9.820312-11.71875 9.820312-11.722656-9.820312-11.71875 9.820312-11.71875-9.820312-11.722656 9.820312-11.71875-9.820312-16.628906 9.820312v-38.011719zm0 0" fill="#c55835"/><path d="m307.789062 426.988281v38.011719l-16.628906-9.820312-11.71875 9.820312-11.722656-9.820312-11.71875 9.820312v-38.011719zm0 0" fill="#a63914"/><path d="m265.445312 121.078125-3.59375 39.582031h-11.703124l-3.59375-39.582031zm0 0" fill="#95d600"/><path d="m265.445312 121.078125-3.59375 39.582031h-5.847656v-39.582031zm0 0" fill="#85af12"/><path d="m265.445312 121.078125c0 5.210937-4.226562 9.445313-9.445312 9.445313s-9.445312-4.234376-9.445312-9.445313zm0 0" fill="#00a042"/><path d="m343.710938 238.324219c0 30.609375-15.683594 45.164062-39.445313 51.726562-13.84375 3.832031-30.429687 4.949219-48.261719 4.949219h-.003906c-17.824219 0-34.414062-1.117188-48.261719-4.949219-23.765625-6.5625-39.449219-21.117187-39.449219-51.726562 0-24.730469 10.234376-47.066407 26.699219-63.011719 15.785157-15.292969 37.300781-24.699219 61.011719-24.699219h.003906c23.710938 0 45.21875 9.410157 61.007813 24.699219 16.464843 15.941406 26.699219 38.28125 26.699219 63.011719zm0 0" fill="#a63914"/><path d="m254.554688 294.996094c-17.277344-.058594-33.34375-1.214844-46.816407-4.945313-23.765625-6.5625-39.449219-21.117187-39.449219-51.726562 0-24.730469 10.234376-47.066407 26.699219-63.011719 14.203125-13.757812 33.046875-22.75 53.953125-24.410156-36.367187 3.164062-64.382812 33.859375-64.785156 70.65625-.003906.414062-.007812.832031-.007812 1.246094 0 .839843.007812 1.675781.027343 2.507812.851563 38.386719 32.089844 69.152344 70.378907 69.683594zm0 0" fill="#ffd112"/><path d="m228.003906 222.804688c0 28.515624 10.773438 54.199218 28 72.195312h-.542968c-.300782 0-.601563-.003906-.902344-.003906-38.292969-.53125-69.527344-31.300782-70.382813-69.6875-.019531-.832032-.027343-1.667969-.027343-2.503906 0-.414063.003906-.832032.007812-1.246094.40625-36.796875 28.417969-67.492188 64.785156-70.65625.285156-.023438.574219-.046875.859375-.066406.292969-.019532.585938-.039063.878907-.058594.292968-.019532.589843-.039063.882812-.050782.316406-.019531.640625-.03125.964844-.046874 1.152344-.042969 2.308594-.066407 3.472656-.066407h.003906c-17.226562 17.992188-28 43.683594-28 72.191407zm0 0" fill="#ff9f00"/><path d="m283.996094 222.804688c0 28.515624-10.769532 54.191406-27.992188 72.195312-17.226562-17.996094-28-43.679688-28-72.195312 0-28.507813 10.773438-54.199219 28-72.191407 17.222656 18.003907 27.992188 43.683594 27.992188 72.191407zm0 0" fill="#ed771b"/><path d="m317.011719 175.3125c-14.203125-13.753906-33.042969-22.75-53.949219-24.410156-.285156-.019532-.570312-.042969-.859375-.066406-.292969-.019532-.585937-.039063-.878906-.058594-.289063-.015625-.585938-.035156-.878907-.050782-.320312-.015624-.640624-.03125-.960937-.042968-1.15625-.046875-2.3125-.070313-3.480469-.070313 17.222656 18.003907 27.992188 43.683594 27.992188 72.191407 0 28.511718-10.769532 54.191406-27.992188 72.195312h.535156c.300782 0 .601563-.003906.902344-.003906 17.285156-.058594 33.351563-1.214844 46.824219-4.945313 23.761719-6.5625 39.441406-21.117187 39.441406-51.726562.003907-24.730469-10.230469-47.070313-26.695312-63.011719zm0 0" fill="#a63914"/><g fill="#313b5a"><path d="m199.472656 194.003906c-.003906 11.941406 7.699219 23 19.699219 26.71875 12.003906 3.71875 24.609375-1.054687 31.355469-10.90625zm0 0"/><path d="m312.527344 194.003906c.003906 11.941406-7.699219 23-19.699219 26.71875-12.003906 3.71875-24.609375-1.054687-31.355469-10.90625zm0 0"/><path d="m325.890625 219.523438c-3.601563 24.667968-19.953125 45.199218-42.152344 54.683593v-12.640625l-5.8125 9.664063c-2.597656 4.3125-6.996093 7.238281-11.980469 7.941406-3.25.457031-6.570312.695313-9.945312.695313h-.191406c-3.316406-.011719-6.578125-.25-9.769532-.699219-4.976562-.703125-9.367187-3.632813-11.960937-7.941407l-5.8125-9.660156v12.644532c-22.203125-9.484376-38.554687-30.019532-42.15625-54.6875 6.769531 7.46875 14.722656 13.84375 23.5625 18.839843l12.070313 17.578125.222656-11.761718c8.601562 3.332031 17.824218 5.4375 27.441406 6.097656l6.671875 13.089844 6.519531-13.089844c9.613282-.660156 18.832032-2.765625 27.433594-6.097656l-.21875 11.765624 12.519531-17.582031c8.832031-4.996093 16.785157-11.375 23.558594-18.839843zm0 0"/><path d="m256 223.507812-8.90625 15.425782h17.8125zm0 0"/></g><path d="m381.5 302.070312v53.167969h-62.828125v79.75h-125.34375v-79.75h-62.828125v-53.167969h98.121094c10.878906 10.878907 17.660156 17.660157 27.378906 27.378907 9.71875-9.71875 16.5-16.5 27.378906-27.378907zm0 0" fill="#fff"/><path d="m381.5 302.070312v53.167969h-62.828125v79.75h-62.671875v-105.539062c9.71875-9.71875 16.5-16.5 27.378906-27.378907zm0 0" fill="#d0f6ff"/><path d="m341.53125 182.589844h-171.0625l37.859375-74 47.671875 12.429687 47.671875-12.429687zm0 0" fill="#ffa87a"/><path d="m341.53125 182.589844h-85.53125v-61.570313l47.671875-12.429687zm0 0" fill="#ed771b"/><path d="m394.570312 178.390625c-12.511718 3.980469-25.300781 6.988281-38.242187 8.988281-12.9375 2.019532-26.027344 3.03125-39.15625 3.03125h-122.34375c-26.257813 0-52.367187-4.058594-77.398437-12.019531zm0 0" fill="#ed771b"/><path d="m394.570312 178.390625c-12.511718 3.980469-25.300781 6.988281-38.242187 8.988281-12.9375 2.019532-26.027344 3.03125-39.15625 3.03125h-61.171875v-12.019531zm0 0" fill="#c55835"/></svg>