<svg height="512pt" viewBox="0 0 512 512" width="512pt" xmlns="http://www.w3.org/2000/svg"><path d="m512 256c0 72.988281-30.550781 138.839844-79.550781 185.480469-17.339844 16.5-36.988281 30.589843-58.417969 41.738281-35.320312 18.390625-75.460938 28.78125-118.03125 28.78125s-82.710938-10.390625-118.03125-28.78125c-21.429688-11.148438-41.078125-25.238281-58.417969-41.738281-49-46.640625-79.550781-112.492188-79.550781-185.480469 0-141.378906 114.621094-256 256-256s256 114.621094 256 256zm0 0" fill="#65b2ff"/><path d="m512 256c0 26.050781-3.890625 51.191406-11.128906 74.871094-32.011719 104.847656-129.542969 181.128906-244.871094 181.128906-104.558594 0-194.488281-62.699219-234.230469-152.550781-14-31.628907-21.769531-66.628907-21.769531-103.449219 0-46.21875 12.25-89.570312 33.679688-127 44.121093 77.070312 127.160156 129 222.320312 129s178.210938-51.929688 222.320312-129c21.429688 37.429688 33.679688 80.78125 33.679688 127zm0 0" fill="#0f9be8"/><path d="m30.742188 377.703125c7.15625 13.21875 15.429687 25.738281 24.71875 37.425781 46.898437 59.019532 119.300781 96.871094 200.539062 96.871094s153.640625-37.851562 200.539062-96.871094c9.289063-11.6875 17.5625-24.207031 24.71875-37.425781zm0 0" fill="#0066e8"/><path d="m447.890625 184.789062c-4.78125 4.839844-11.300781 6.921876-17.570313 6.230469-10.539062-1.167969-21.058593 2.421875-28.519531 9.960938l-23.410156 23.441406-82.460937 82.546875-6.960938 6.972656-6.367188 6.378906-26.601562 26.628907-43.96875 44.019531-31.28125 31.3125-33.011719 33.046875c-7.296875 7.371094-10.789062 17.601563-9.769531 27.890625-21.429688-11.148438-41.078125-25.238281-58.417969-41.738281 3.96875-2.269531 8.507813-3.160157 12.929688-2.671875 10.539062 1.160156 21.058593-2.417969 28.519531-9.957032l19.820312-19.839843 34.660157-34.710938 4.238281-4.242187 48.332031-48.378906 1.347657-1.359376 26.601562-26.628906 94.449219-94.5625 24.609375-24.640625c7.472656-7.527343 10.953125-18.078125 9.691406-28.609375-.789062-6.507812 1.421875-13.300781 6.621094-18.167968 8.25-7.722657 21.308594-7.589844 29.417968.257812 5.929688 5.742188 7.800782 14.050781 5.621094 21.421875 7.589844-2.320313 16.210938-.332031 22.019532 5.988281 7.628906 8.3125 7.378906 21.371094-.539063 29.410156zm0 0" fill="#e4ebf8"/><path d="m374.03125 483.21875c1.019531-10.289062-2.472656-20.519531-9.769531-27.890625l-33.011719-33.046875-75.25-75.332031-26.601562-26.628907-6.769532-6.78125s0 0-.007812-.007812l-6.121094-6.121094-57.078125-57.148437-25.8125-25.839844-23.410156-23.441406c-7.460938-7.539063-17.980469-11.128907-28.519531-9.960938-6.269532.691407-12.789063-1.390625-17.570313-6.230469-7.917969-8.039062-8.167969-21.097656-.539063-29.410156 5.808594-6.320312 14.429688-8.308594 22.019532-5.988281-2.179688-7.371094-.308594-15.679687 5.621094-21.421875 8.109374-7.847656 21.167968-7.980469 29.417968-.257812 5.199219 4.867187 7.410156 11.660156 6.621094 18.167968-1.261719 10.53125 2.21875 21.082032 9.691406 28.609375l24.617188 24.640625 18.210937 18.242188 76.230469 76.320312 26.601562 26.628906 1.320313 1.320313 48.359375 48.417969 42.558594 42.613281 16.160156 16.179687c7.460938 7.539063 17.980469 11.117188 28.519531 9.957032 4.421875-.488282 8.960938.402344 12.929688 2.671875-17.339844 16.5-36.988281 30.589843-58.417969 41.738281zm0 0" fill="#e4ebf8"/><path d="m314.230469 436.96875c-2.003907 12.53125-7.949219 23.746094-16.53125 32.324219-10.667969 10.671875-25.410157 17.273437-41.691407 17.273437h-.007812c-1.960938 0-3.890625-.097656-5.804688-.285156-26.730468-2.605469-48.226562-23.066406-52.410156-49.304688-.746094-4.632812 2.902344-8.804687 7.589844-8.804687 3.269531 0 6.230469 1.324219 8.375 3.46875 1.03125 1.035156 1.878906 2.261719 2.46875 3.617187.640625 1.453126.996094 3.0625.996094 4.753907v2.175781c0 2.289062.652344 4.425781 1.777344 6.242188 2.089843 3.359374 5.816406 5.597656 10.066406 5.597656h2.171875c6.539062 0 11.84375-5.300782 11.84375-11.839844v-2.171875c0-6.539063 5.304687-11.84375 11.839843-11.84375h2.175782c6.535156 0 11.839844 5.304687 11.839844 11.84375v2.171875c0 6.539062 5.304687 11.839844 11.839843 11.839844h2.175781c6.535157 0 11.839844-5.300782 11.839844-11.839844v-2.171875c0-6.539063 5.304688-11.84375 11.84375-11.84375h.003906c4.6875 0 8.335938 4.171875 7.597657 8.796875zm0 0" fill="#fff"/><path d="m314.230469 436.96875c-2.003907 12.53125-7.949219 23.746094-16.53125 32.324219-10.667969 10.671875-25.410157 17.273437-41.691407 17.273437h-.007812c-1.960938 0-3.890625-.097656-5.804688-.285156-14.699218-8.097656-25.996093-21.613281-31.203124-37.851562 2.089843 3.359374 5.816406 5.597656 10.066406 5.597656h2.175781c6.535156 0 11.839844-5.300782 11.839844-11.839844v-2.171875c0-6.539063 5.304687-11.84375 11.839843-11.84375h2.175782c6.535156 0 11.839844 5.304687 11.839844 11.84375v2.171875c0 6.539062 5.304687 11.839844 11.839843 11.839844h2.175781c6.539063 0 11.839844-5.300782 11.839844-11.839844v-2.171875c0-6.539063 5.304688-11.84375 11.84375-11.84375h.003906c4.6875 0 8.335938 4.171875 7.597657 8.796875zm0 0" fill="#e4ebf8"/><path d="m389.925781 315.550781c.289063 39.769531-16.757812 75.5625-44.042969 100.273438l-.003906.011719c-2.679687 2.417968-6.957031.515624-6.957031-3.089844v-5.433594c0-4.792969-3.886719-8.679688-8.679687-8.679688h-6.328126c-4.796874 0-8.683593 3.886719-8.683593 8.679688v6.332031c0 4.792969-3.886719 8.679688-8.679688 8.679688h-6.328125c-4.796875 0-8.683594-3.886719-8.683594-8.679688v-6.332031c0-4.792969-3.890624-8.679688-8.679687-8.679688h-6.328125c-4.796875 0-8.683594 3.886719-8.683594 8.679688v6.332031c0 4.792969-3.890625 8.679688-8.683594 8.679688h-6.324218c-.96875 0-1.902344-.164063-2.773438-.457031-.828125-.277344-1.597656-.675782-2.292968-1.175782-2.191407-1.570312-3.621094-4.144531-3.621094-7.046875v-6.332031c0-4.792969-3.886719-8.679688-8.679688-8.679688h-6.324218c-3.152344 0-5.910157 1.675782-7.425782 4.175782-.796875 1.316406-1.261718 2.855468-1.261718 4.503906v6.332031c0 4.789063-3.886719 8.679688-8.679688 8.679688h-6.328125c-4.796875 0-8.683594-3.890625-8.683594-8.679688v-6.332031c0-4.792969-3.886719-8.679688-8.679687-8.679688h-6.328125c-4.796875 0-8.683594 3.886719-8.683594 8.679688v5.449219c0 3.601562-4.265625 5.496093-6.933594 3.082031l-.011719-.007812c-27.058593-24.5-44.0625-59.910157-44.0625-99.28125 0-73.128907 58.609376-132.566407 131.421876-133.90625.832031-.015626 1.671874-.023438 2.507812-.023438.316406 0 .628906 0 .949219.003906 73.195312.488282 132.425781 59.285156 132.976562 132.921875zm0 0" fill="#fff"/><path d="m389.925781 315.550781c.289063 39.769531-16.757812 75.5625-44.042969 100.273438l-.003906.011719c-2.679687 2.417968-6.957031.515624-6.957031-3.089844v-5.433594c0-4.792969-3.886719-8.679688-8.679687-8.679688h-6.328126c-4.796874 0-8.683593 3.886719-8.683593 8.679688v6.332031c0 4.792969-3.886719 8.679688-8.679688 8.679688h-6.328125c-4.796875 0-8.683594-3.886719-8.683594-8.679688v-6.332031c0-4.792969-3.890624-8.679688-8.679687-8.679688h-6.328125c-4.796875 0-8.683594 3.886719-8.683594 8.679688v6.332031c0 4.792969-3.890625 8.679688-8.683594 8.679688h-6.324218c-.96875 0-1.902344-.164063-2.773438-.457031-.769531-.382813-1.535156-.769532-2.292968-1.175782-2.191407-1.570312-3.621094-4.144531-3.621094-7.046875v-6.332031c0-4.792969-3.886719-8.679688-8.679688-8.679688h-6.324218c-3.152344 0-5.910157 1.675782-7.425782 4.175782-27.445312-24.148438-44.769531-59.535156-44.769531-98.964844 0-54.394531 32.960937-101.089844 79.992187-121.210938 73.199219.484376 132.429688 59.28125 132.980469 132.917969zm0 0" fill="#e4ebf8"/><path d="m389.925781 315.550781c.289063 39.769531-16.757812 75.5625-44.042969 100.273438l-.003906.011719c-2.679687 2.417968-6.957031.515624-6.957031-3.089844v-5.433594c0-4.792969-3.886719-8.679688-8.679687-8.679688h-6.328126c-4.796874 0-8.683593 3.886719-8.683593 8.679688v6.332031c0 4.792969-3.886719 8.679688-8.679688 8.679688h-6.328125c-4.796875 0-8.683594-3.886719-8.683594-8.679688v-6.332031c0-4.792969-3.890624-8.679688-8.679687-8.679688h-6.328125c-4.796875 0-8.683594 3.886719-8.683594 8.679688v6.332031c0 4.792969-3.890625 8.679688-8.683594 8.679688h-3.164062v-239.695313c73.632812-.019531 133.375 58.96875 133.925781 132.921875zm0 0" fill="#c7d9ff"/><g fill="#313b5a"><path d="m250.839844 344.730469-12.992188 22.503906c-2.292968 3.972656.574219 8.941406 5.160156 8.941406h25.984376c4.589843 0 7.457031-4.96875 5.164062-8.941406l-12.996094-22.503906c-2.292968-3.972657-8.027344-3.972657-10.320312 0zm0 0"/><path d="m243.605469 322.578125c.007812-.351563.011719-.703125.011719-1.054687 0-26.820313-21.460938-48.488282-48.277344-48.730469-27.121094-.246094-49.183594 21.664062-49.183594 48.726562 0 .152344 0 .300781.003906.453125.136719 15.121094 12.515625 27.277344 27.640625 27.277344h42.183594c14.886719 0 27.304687-11.789062 27.621094-26.671875zm0 0"/><path d="m365.835938 322.578125c.003906-.351563.007812-.703125.007812-1.054687 0-26.820313-21.457031-48.488282-48.277344-48.730469-27.121094-.246094-49.179687 21.664062-49.179687 48.726562v.453125c.136719 15.121094 12.515625 27.277344 27.640625 27.277344h42.1875c14.886718 0 27.300781-11.789062 27.621094-26.671875zm0 0"/></g><path d="m314.230469 436.96875c-2.003907 12.53125-7.949219 23.746094-16.53125 32.324219-10.667969 10.671875-25.410157 17.273437-41.691407 17.273437h-.007812v-58.394531h1.089844c6.535156 0 11.839844 5.304687 11.839844 11.839844v2.175781c0 6.539062 5.304687 11.839844 11.839843 11.839844h2.175781c6.539063 0 11.839844-5.304688 11.839844-11.839844v-2.175781c0-6.535157 5.304688-11.839844 11.84375-11.839844h.003906c4.6875 0 8.335938 4.171875 7.597657 8.796875zm0 0" fill="#c7d9ff"/><path d="m216.21875 435.257812c.640625 1.453126.996094 3.0625.996094 4.753907v1.644531c-.433594-2.097656-.769532-4.234375-.996094-6.398438zm0 0" fill="#e4ebf8"/></svg>