<svg height="512pt" viewBox="0 0 512 512" width="512pt" xmlns="http://www.w3.org/2000/svg"><path d="m512 256c0 118.921875-81.101562 218.921875-191.011719 247.671875-9.457031 2.476563-19.136719 4.429687-28.988281 5.816406-11.761719 1.652344-23.78125 2.511719-36 2.511719-.300781 0-.609375 0-.910156-.011719-6.648438-.007812-13.25-.289062-19.769532-.816406-5.789062-.460937-11.519531-1.113281-17.179687-1.960937-10.242187-1.5-20.28125-3.632813-30.089844-6.332032-108.402343-29.769531-188.050781-129.027344-188.050781-246.878906 0-85.140625 41.558594-160.570312 105.511719-207.109375 11.457031-8.351563 23.636719-15.761719 36.4375-22.140625 24.339843-12.128906 50.878906-20.511719 78.871093-24.339844 7.609376-1.058594 15.320313-1.769531 23.128907-2.128906 1.910156-.089844 3.820312-.160156 5.742187-.203125 2.089844-.0585938 4.199219-.078125 6.308594-.078125 9.230469 0 18.339844.488281 27.320312 1.449219 8.757813.921875 17.390626 2.300781 25.871094 4.101562.648438.128907 1.296875.269531 1.949219.410157 6.289063 1.367187 12.5 2.988281 18.597656 4.828124.703125.210938 1.402344.421876 2.101563.640626 104.351562 32.320312 180.160156 129.589843 180.160156 244.570312zm0 0" fill="#9e69e2"/><path d="m512 256c0 26.050781-3.890625 51.191406-11.128906 74.871094-32.011719 104.847656-129.542969 181.128906-244.871094 181.128906-104.558594 0-194.488281-62.699219-234.230469-152.550781-14-31.628907-21.769531-66.628907-21.769531-103.449219 0-46.21875 12.25-89.570312 33.679688-127 44.121093 77.070312 127.160156 129 222.320312 129s178.210938-51.929688 222.320312-129c21.429688 37.429688 33.679688 80.78125 33.679688 127zm0 0" fill="#8e4fd2"/><path d="m481.261719 377.699219c-7.160157 13.222656-15.433594 25.742187-24.722657 37.429687-8.4375 10.632813-17.71875 20.570313-27.71875 29.722656-45.539062 41.699219-106.210937 67.148438-172.820312 67.148438s-127.28125-25.449219-172.820312-67.148438c-10-9.152343-19.28125-19.089843-27.71875-29.722656-9.289063-11.6875-17.5625-24.207031-24.722657-37.429687zm0 0" fill="#7038ba"/><path d="m309.730469 333.46875-2.628907 26.140625-7.203124 71.511719-7.898438 78.367187c-11.761719 1.652344-23.78125 2.511719-36 2.511719-.300781 0-.609375 0-.910156-.011719-6.648438-.007812-13.25-.289062-19.769532-.816406-5.789062-.460937-11.519531-1.113281-17.179687-1.960937l-7.859375-78.089844-7.210938-71.511719-2.628906-26.140625zm0 0" fill="#474f6f"/><path d="m309.730469 333.46875-2.628907 26.140625-7.210937 71.511719-7.890625 78.367187c-11.761719 1.652344-23.78125 2.511719-36 2.511719-.300781 0-.609375 0-.910156-.011719-6.648438-.007812-13.25-.289062-19.769532-.816406l-.082031-1.183594-5.558593-78.867187-5.050782-71.511719-.289062-4.199219v-.03125l-1.550782-21.910156zm0 0" fill="#323b5a"/><path d="m309.730469 333.46875-2.628907 26.140625-7.210937 71.511719-7.890625 78.367187c-11.761719 1.652344-23.78125 2.511719-36 2.511719-.300781 0-.609375 0-.910156-.011719v-178.519531zm0 0" fill="#20273a"/><path d="m348.167969 251.777344-24.863281 107.828125h-134.609376l-24.863281-107.828125zm0 0" fill="#474f6f"/><path d="m348.167969 251.777344-24.863281 107.828125h-98l-24.863282-107.828125zm0 0" fill="#323b5a"/><path d="m348.167969 251.777344-24.863281 107.828125h-67.300782v-107.828125zm0 0" fill="#20273a"/><path d="m314.269531 238.667969c-16.089843 16.089843-37.175781 24.128906-58.261719 24.128906-21.097656 0-42.179687-8.039063-58.273437-24.128906-32.179687-32.167969-32.179687-84.351563 0-116.53125l2.9375-2.9375c.019531-.019531.058594-.011719.066406.015625 3.730469 10.835937 9.4375 21.054687 17.027344 30.070312 5.082031 6.023438 10.996094 11.503906 17.703125 16.273438 6.511719 4.625 13.421875 8.3125 20.539062 11.097656 1.03125.398438 2.0625.78125 3.09375 1.140625-1.070312-1.351563-2.097656-2.71875-3.09375-4.125-9.976562-14.039063-15.816406-30.414063-17.195312-47.214844-1.761719-21.453125 3.730469-43.617187 17.167969-62.542969.011719-.019531.042969-.023437.0625-.003906l58.226562 58.226563c32.179688 32.179687 32.179688 84.363281 0 116.53125zm0 0" fill="#ffd112"/><path d="m314.269531 238.667969c-16.078125 16.078125-37.148437 24.117187-58.21875 24.128906-.023437 0-.042969-.019531-.042969-.039063v-198.78125c0-.039062.046876-.054687.070313-.03125l58.191406 58.191407c32.179688 32.179687 32.179688 84.363281 0 116.53125zm0 0" fill="#ff9f00"/><path d="m287.679688 204.300781c-8.746094 8.75-20.214844 13.121094-31.671876 13.121094-11.46875 0-22.933593-4.371094-31.683593-13.121094-14.90625-14.90625-17.113281-37.726562-6.589844-54.964843.015625-.027344.050781-.027344.070313-.007813 5.074218 6.011719 10.972656 11.472656 17.667968 16.234375 6.511719 4.621094 13.417969 8.308594 20.539063 11.09375 1.027343.398438 2.0625.78125 3.09375 1.144531-1.070313-1.355469-2.101563-2.722656-3.09375-4.125-9.976563-14.035156-15.8125-30.40625-17.195313-47.195312 0-.011719.003906-.027344.011719-.035157l17.152344-17.152343c.015625-.015625.042969-.015625.058593 0l31.644532 31.652343c17.492187 17.496094 17.492187 45.863282-.003906 63.355469zm0 0" fill="#ffe955"/><path d="m287.679688 204.300781c-8.734376 8.738281-20.1875 13.109375-31.628907 13.121094-.023437 0-.042969-.019531-.042969-.039063v-108.019531c0-.035156.046876-.054687.070313-.027343l31.601563 31.613281c17.496093 17.492187 17.496093 45.859375 0 63.351562zm0 0" fill="#ffd112"/><path d="m157.574219 251.777344h196.851562v40.28125h-196.851562zm0 0" fill="#474f6f"/><path d="m354.425781 251.777344v40.28125h-144.695312l-9.289063-40.28125zm0 0" fill="#323b5a"/><path d="m256.003906 251.777344h98.421875v40.28125h-98.421875zm0 0" fill="#20273a"/><path d="m299.898438 431.121094-7.898438 78.367187c-11.761719 1.652344-23.78125 2.511719-36 2.511719-.300781 0-.609375 0-.910156-.011719-6.648438-.007812-13.25-.289062-19.769532-.816406-5.789062-.460937-11.519531-1.113281-17.179687-1.960937l-7.859375-78.089844zm0 0" fill="#ed771b"/><path d="m299.898438 431.121094-7.898438 78.367187c-11.761719 1.652344-23.78125 2.511719-36 2.511719-.300781 0-.609375 0-.910156-.011719-6.648438-.007812-13.25-.289062-19.769532-.816406l-.082031-1.183594-5.566406-78.867187zm0 0" fill="#a63914"/><path d="m299.898438 431.121094-7.898438 78.367187c-11.761719 1.652344-23.78125 2.511719-36 2.511719-.300781 0-.609375 0-.910156-.011719v-80.867187zm0 0" fill="#7a2d1a"/><g fill="#fff"><path d="m157.46875 428.878906c-7.171875 0-12.988281 5.816406-12.988281 12.988282 0 .421874-.339844.761718-.761719.761718h-7.191406c-.421875 0-.761719-.339844-.761719-.761718 0-7.171876-5.816406-12.988282-12.988281-12.988282-.421875 0-.761719-.339844-.761719-.761718v-7.191407c0-.421875.339844-.761719.761719-.761719 7.171875 0 12.988281-5.816406 12.988281-12.988281 0-.421875.339844-.761719.761719-.761719h7.191406c.421875 0 .761719.339844.761719.761719 0 7.171875 5.816406 12.988281 12.988281 12.988281.421875 0 .761719.339844.761719.761719v7.191407c0 .417968-.339844.761718-.761719.761718zm0 0"/><path d="m389.222656 428.878906c-7.171875 0-12.988281 5.816406-12.988281 12.988282 0 .421874-.339844.761718-.761719.761718h-7.191406c-.421875 0-.761719-.339844-.761719-.761718 0-7.171876-5.816406-12.988282-12.988281-12.988282-.421875 0-.761719-.339844-.761719-.761718v-7.191407c0-.421875.339844-.761719.761719-.761719 7.171875 0 12.988281-5.816406 12.988281-12.988281 0-.421875.339844-.761719.761719-.761719h7.191406c.421875 0 .761719.339844.761719.761719 0 7.171875 5.816406 12.988281 12.988281 12.988281.421875 0 .761719.339844.761719.761719v7.191407c0 .417968-.339844.761718-.761719.761718zm0 0"/><path d="m82.804688 324.210938c-7.175782 0-12.992188 5.816406-12.992188 12.988281 0 .421875-.339844.765625-.761719.765625h-7.191406c-.417969 0-.761719-.34375-.761719-.765625 0-7.171875-5.8125-12.988281-12.988281-12.988281-.421875 0-.761719-.339844-.761719-.761719v-7.191407c0-.417968.339844-.761718.761719-.761718 7.175781 0 12.988281-5.8125 12.988281-12.988282 0-.421874.34375-.761718.761719-.761718h7.191406c.421875 0 .761719.339844.761719.761718 0 7.175782 5.816406 12.988282 12.992188 12.988282.417968 0 .761718.34375.761718.761718v7.191407c0 .421875-.34375.761719-.761718.761719zm0 0"/><path d="m444.558594 324.210938c-7.175782 0-12.992188 5.816406-12.992188 12.988281 0 .421875-.339844.765625-.761718.765625h-7.191407c-.417969 0-.761719-.34375-.761719-.765625 0-7.171875-5.8125-12.988281-12.988281-12.988281-.421875 0-.761719-.339844-.761719-.761719v-7.191407c0-.417968.339844-.761718.761719-.761718 7.175781 0 12.988281-5.8125 12.988281-12.988282 0-.421874.34375-.761718.761719-.761718h7.191407c.421874 0 .761718.339844.761718.761718 0 7.175782 5.816406 12.988282 12.992188 12.988282.417968 0 .761718.34375.761718.761718v7.191407c0 .421875-.34375.761719-.761718.761719zm0 0"/></g></svg>