<svg height="512pt" viewBox="0 0 512 512" width="512pt" xmlns="http://www.w3.org/2000/svg"><path d="m512 256c0 74.609375-31.929688 141.78125-82.859375 188.570312-4.402344 4.039063-8.941406 7.929688-13.609375 11.648438-43.761719 34.910156-99.210938 55.78125-159.53125 55.78125h-.210938c-63.070312-.050781-120.808593-22.921875-165.398437-60.78125-3.921875-3.328125-7.742187-6.769531-11.449219-10.328125-48.652344-46.589844-78.941406-112.210937-78.941406-184.890625 0-141.378906 114.621094-256 256-256s256 114.621094 256 256zm0 0" fill="#ffe955"/><path d="m512 256c0 26.050781-3.890625 51.191406-11.128906 74.871094-32.011719 104.847656-129.542969 181.128906-244.871094 181.128906-104.558594 0-194.488281-62.699219-234.230469-152.550781-14-31.628907-21.769531-66.628907-21.769531-103.449219 0-46.21875 12.25-89.570312 33.679688-127 44.121093 77.070312 127.160156 129 222.320312 129s178.210938-51.929688 222.320312-129c21.429688 37.429688 33.679688 80.78125 33.679688 127zm0 0" fill="#ffd112"/><path d="m30.742188 377.703125c7.15625 13.21875 15.429687 25.738281 24.71875 37.425781 46.898437 59.019532 119.300781 96.871094 200.539062 96.871094s153.640625-37.851562 200.539062-96.871094c9.289063-11.6875 17.5625-24.207031 24.71875-37.425781zm0 0" fill="#ff9f00"/><path d="m371.109375 102.78125h-11.910156c-5.429688 0-9.847657 4.421875-9.847657 9.851562v45.449219c0 46.070313-33.320312 84.851563-78.292968 92.140625v14.75h.292968c4.078126 0 7.898438 1.609375 10.757813 4.519532 2.851563 2.910156 4.378906 6.761718 4.300781 10.832031-.148437 8.140625-7.03125 14.757812-15.351562 14.777343v170.632813c0 8.296875-6.75 15.058594-15.058594 15.058594s-15.058594-6.761719-15.058594-15.058594v-170.632813h-.292968c-4.078126 0-7.898438-1.597656-10.757813-4.519531-2.851563-2.910156-4.378906-6.75-4.300781-10.828125.148437-8.132812 7.03125-14.761718 15.351562-14.78125v-14.75c-44.972656-7.289062-78.292968-46.070312-78.292968-92.140625v-45.449219c0-2.628906-1.027344-5.101562-2.886719-6.96875-1.863281-1.851562-4.332031-2.882812-6.960938-2.882812h-11.910156l36.820313-43.21875 36.820312 43.21875h-11.910156c-5.429688 0-9.851563 4.421875-9.851563 9.851562v45.449219c0 29.191407 20.308594 54.539063 48.171875 61.382813v-106.832032c0-2.628906-1.03125-5.101562-2.890625-6.96875-1.859375-1.851562-4.332031-2.882812-6.960937-2.882812h-11.910156l36.820312-43.21875 36.820312 43.21875h-11.910156c-5.429687 0-9.851562 4.421875-9.851562 9.851562v106.832032c27.863281-6.84375 48.171875-32.191406 48.171875-61.382813v-45.449219c0-2.628906-1.03125-5.101562-2.890625-6.96875-1.859375-1.851562-4.328125-2.882812-6.960938-2.882812h-11.910156l36.820312-43.21875zm0 0" fill="#ff3445"/><path d="m371.109375 102.78125h-11.910156c-5.429688 0-9.847657 4.421875-9.847657 9.851562v45.449219c0 46.070313-33.320312 84.851563-78.292968 92.140625v14.75h.292968c4.078126 0 7.898438 1.609375 10.757813 4.519532 2.851563 2.910156 4.378906 6.761718 4.300781 10.832031-.148437 8.140625-7.03125 14.757812-15.351562 14.777343v170.632813c0 8.296875-6.75 15.058594-15.058594 15.058594v-421.230469l36.820312 43.21875h-11.910156c-5.429687 0-9.851562 4.421875-9.851562 9.851562v106.832032c27.863281-6.84375 48.171875-32.191406 48.171875-61.382813v-45.449219c0-2.628906-1.03125-5.101562-2.890625-6.96875-1.859375-1.851562-4.328125-2.882812-6.960938-2.882812h-11.910156l36.820312-43.21875zm0 0" fill="#dd1265"/><path d="m240.941406 295.101562h30.117188v16.199219h-30.117188zm0 0" fill="#ba0d5c"/><path d="m429.140625 444.570312c-4.402344 4.039063-8.941406 7.929688-13.609375 11.648438-43.761719 34.910156-99.210938 55.78125-159.53125 55.78125h-.210938c-63.070312-.050781-120.808593-22.921875-165.398437-60.78125l-11.449219-10.328125c3.71875-7.351563 5.75-15.53125 5.699219-24.039063-.050781-7.660156-1.410156-15.320312-4.082031-22.601562 8.820312 3.230469 17.082031 8.378906 24.160156 15.460938 12.011719 12 18.460938 27.460937 19.402344 43.1875.148437-.148438.277344-.308594.429687-.457032 5.238281-5.242187 11.359375-9.050781 17.890625-11.453125-2.050781 5.589844-3.0625 11.480469-3.019531 17.363281v.1875c.089844 7.871094 9.167969 12.382813 15.5 7.722657 1.296875-.953125 2.628906-1.863281 4.007813-2.703125 16.082031-9.910156 26.609374-26.980469 26.730468-45.867188.050782-7.941406-1.308594-15.890625-4.082031-23.441406 8.820313 3.230469 17.082031 8.378906 24.160156 15.460938 12.011719 12 18.460938 27.460937 19.402344 43.1875.140625-.148438.28125-.308594.429687-.457032 5.238282-5.242187 11.359376-9.050781 17.890626-11.453125-2.050782 5.589844-3.0625 11.480469-3.019532 17.363281v.277344c.109375 7.929688 8.707032 12.402344 15.347656 8.722656.539063-.292968 1.0625-.640624 1.5625-1.042968 1.320313-1.058594 2.777344-1.9375 4.207032-2.828125 16.011718-9.921875 26.492187-26.949219 26.613281-45.789063.046875-7.941406-1.3125-15.890625-4.082031-23.441406 8.820312 3.230469 17.082031 8.378906 24.160156 15.460938 12.011719 12 18.460938 27.460937 19.398438 43.1875.140624-.148438.28125-.308594.429687-.457032 5.242187-5.242187 11.363281-9.050781 17.890625-11.453125-2.046875 5.589844-3.058594 11.480469-3.019531 17.363281v.277344c.121093 8.441406 9.859375 12.960938 16.621093 7.902344 1.410157-1.050781 2.871094-2.050781 4.378907-2.972656 16.070312-9.910156 26.609375-26.980469 26.730469-45.867188.050781-7.941406-1.308594-15.890625-4.078126-23.441406 8.820313 3.230469 17.078126 8.378906 24.160157 15.460938 1.5 1.5 2.917969 3.050781 4.238281 4.660156.328125.398437.660156.800781.980469 1.207031.320312.402344.640625.8125.949219 1.230469.308593.410156.609374.820312.910156 1.242187.300781.417969.601562.839844.878906 1.257813.292969.421875.582031.851562.851562 1.28125.28125.421875.558594.851562.820313 1.289062.53125.871094 1.050781 1.742188 1.539063 2.632813.730468 1.316406 1.421874 2.660156 2.058593 4.027343.421875.910157.832031 1.820313 1.210938 2.75.378906.921876.742187 1.851563 1.082031 2.789063.167969.472656.339844.941406.488281 1.410156.511719 1.492188.960938 3.011719 1.359375 4.542969.101563.390625.199219.777344.292969 1.179688.269531 1.109374.507813 2.230468.71875 3.359374zm0 0" fill="#dd1265"/><path d="m429.140625 444.570312c-4.402344 4.039063-8.941406 7.929688-13.609375 11.648438-43.761719 34.910156-99.210938 55.78125-159.53125 55.78125h-.210938v-44.648438c.539063-.292968 1.0625-.640624 1.5625-1.042968 1.320313-1.058594 2.777344-1.9375 4.207032-2.828125 16.011718-9.921875 26.492187-26.949219 26.613281-45.789063.046875-7.941406-1.3125-15.890625-4.082031-23.441406 8.820312 3.230469 17.082031 8.378906 24.160156 15.460938 12.011719 12 18.460938 27.460937 19.398438 43.1875.140624-.148438.28125-.308594.429687-.457032 5.242187-5.242187 11.363281-9.050781 17.890625-11.453125-2.046875 5.589844-3.058594 11.480469-3.019531 17.363281v.277344c.121093 8.441406 9.859375 12.960938 16.621093 7.902344 1.410157-1.050781 2.871094-2.050781 4.378907-2.972656 16.070312-9.910156 26.609375-26.980469 26.730469-45.867188.050781-7.941406-1.308594-15.890625-4.078126-23.441406 8.820313 3.230469 17.078126 8.378906 24.160157 15.460938 1.5 1.5 2.917969 3.050781 4.238281 4.660156.328125.398437.660156.800781.980469 1.207031.320312.402344.640625.8125.949219 1.230469.308593.410156.609374.820312.910156 1.242187.300781.417969.601562.839844.878906 1.257813.292969.421875.582031.851562.851562 1.28125.28125.421875.558594.851562.820313 1.289062.53125.871094 1.050781 1.742188 1.539063 2.632813.730468 1.316406 1.421874 2.660156 2.058593 4.027343.421875.910157.832031 1.820313 1.210938 2.75.378906.921876.742187 1.851563 1.082031 2.789063.167969.472656.339844.941406.488281 1.410156.511719 1.492188.960938 3.011719 1.359375 4.542969.101563.390625.199219.777344.292969 1.179688.269531 1.109374.507813 2.230468.71875 3.359374zm0 0" fill="#ba0d5c"/><path d="m415.308594 455.019531c.050781.410157.132812.800781.222656 1.199219-43.761719 34.910156-99.210938 55.78125-159.53125 55.78125h-.210938c-63.070312-.050781-120.808593-22.921875-165.398437-60.78125.007813-.027344.03125-.058594.050781-.089844 4.507813-7.789062 7.429688-16.328125 8.609375-25.097656 5.960938 8.019531 9.488281 17.648438 10.089844 27.757812.359375 5.929688 4.179687 11.089844 9.738281 13.160157 1.710938.640625 3.480469.949219 5.230469.949219.71875 0 1.441406-.046876 2.152344-.160157 3.71875 9.023438 12.648437 15.402344 22.976562 15.402344 5.261719 0 10.300781-1.660156 14.570313-4.800781.972656-.710938 1.972656-1.390625 2.992187-2.011719 18.570313-11.449219 30.609375-29.839844 33.289063-50.269531 5.949218 8.019531 9.46875 17.632812 10.070312 27.730468.359375 5.929688 4.167969 11.089844 9.738282 13.160157 1.710937.640625 3.480468.949219 5.230468.949219.691406 0 1.371094-.046876 2.050782-.136719 1.359374 3.457031 3.5 6.578125 6.320312 9.179687 4.710938 4.328125 10.839844 6.71875 17.261719 6.71875 1.707031 0 3.386719-.171875 5.027343-.5 3.960938-.789062 7.671876-2.53125 10.929688-5.140625.53125-.417969 1.460938-.988281 2.441406-1.597656l.308594-.191406c18.480469-11.460938 30.460938-29.800781 33.132812-50.171875 5.949219 8.019531 9.46875 17.632812 10.070313 27.730468.359375 5.929688 4.167969 11.089844 9.738281 13.160157 1.699219.640625 3.480469.949219 5.230469.949219.6875 0 1.371094-.046876 2.050781-.136719 1.359375 3.457031 3.5 6.578125 6.320313 9.179687 4.707031 4.328125 10.839843 6.71875 17.257812 6.71875 5.53125 0 10.808594-1.769531 15.28125-5.109375 1.058594-.789062 2.148438-1.539062 3.269531-2.222656 18.570313-11.449219 30.609376-29.839844 33.289063-50.269531 5.949219 8.019531 9.46875 17.632812 10.070313 27.730468.03125.410157.070312.832032.128906 1.230469zm0 0" fill="#ff3445"/><g fill="#dd1265"><path d="m415.308594 455.019531c.050781.410157.132812.800781.222656 1.199219-43.761719 34.910156-99.210938 55.78125-159.53125 55.78125h-.210938v-28.839844c3.960938-.789062 7.671876-2.53125 10.929688-5.140625.53125-.417969 1.460938-.988281 2.441406-1.597656l.308594-.191406c18.480469-11.460938 30.460938-29.800781 33.132812-50.171875 5.949219 8.019531 9.46875 17.632812 10.070313 27.730468.359375 5.929688 4.167969 11.089844 9.738281 13.160157 1.699219.640625 3.480469.949219 5.230469.949219.6875 0 1.371094-.046876 2.050781-.136719 1.359375 3.457031 3.5 6.578125 6.320313 9.179687 4.707031 4.328125 10.839843 6.71875 17.257812 6.71875 5.53125 0 10.808594-1.769531 15.28125-5.109375 1.058594-.789062 2.148438-1.539062 3.269531-2.222656 18.570313-11.449219 30.609376-29.839844 33.289063-50.269531 5.949219 8.019531 9.46875 17.632812 10.070313 27.730468.03125.410157.070312.832032.128906 1.230469zm0 0"/><path d="m434.03125 346.613281c-11.5-11.5-13.761719-28.730469-6.796875-42.484375-3.382813 1.703125-6.546875 3.96875-9.371094 6.792969-14.320312 14.320313-14.320312 37.539063 0 51.859375 11.5 11.496094 13.765625 28.730469 6.796875 42.484375 3.382813-1.707031 6.550782-3.972656 9.371094-6.792969 14.320312-14.320312 14.320312-37.539062 0-51.859375zm0 0"/><path d="m359.597656 392.316406c-9.289062-9.285156-11.117187-23.207031-5.492187-34.316406-2.730469 1.378906-5.289063 3.207031-7.570313 5.488281-11.566406 11.566407-11.566406 30.320313 0 41.890625 9.289063 9.285156 11.117188 23.207032 5.492188 34.316406 2.730468-1.378906 5.289062-3.207031 7.570312-5.488281 11.566406-11.566406 11.566406-30.320312 0-41.890625zm0 0"/><path d="m172.710938 336.457031c-9.289063-9.289062-11.117188-23.207031-5.492188-34.316406-2.730469 1.375-5.289062 3.207031-7.570312 5.488281-11.566407 11.566406-11.566407 30.320313 0 41.886719 9.289062 9.289063 11.117187 23.207031 5.492187 34.320313 2.730469-1.378907 5.289063-3.207032 7.570313-5.488282 11.566406-11.570312 11.566406-30.324218 0-41.890625zm0 0"/><path d="m77 336.960938c-8.570312-8.570313-10.257812-21.410157-5.066406-31.664063-2.519532 1.273437-4.878906 2.960937-6.984375 5.0625-10.671875 10.675781-10.671875 27.980469 0 38.652344 8.570312 8.570312 10.257812 21.410156 5.066406 31.664062 2.519531-1.273437 4.882813-2.960937 6.984375-5.0625 10.671875-10.675781 10.671875-27.976562 0-38.652343zm0 0"/></g></svg>