<svg id="Layer_1" enable-background="new 0 0 512 512" height="512" viewBox="0 0 512 512" width="512" xmlns="http://www.w3.org/2000/svg"><g><path d="m476.453 374c15.722-32.331 24.549-68.634 24.549-107.002 0-135.311-109.691-245.002-245.002-245.002s-245.002 109.691-245.002 245.002c0 38.368 8.827 74.671 24.549 107.002z" fill="#ffc839"/><path d="m162.943 177.729c-21.612-25.697-28.622-58.455-22.723-88.747-10.074.686-18.109 9.119-18.109 19.359v22.097c0 24.852 18.482 45.593 42.379 49.168-.513-.628-1.025-1.257-1.547-1.877z" fill="#1ba552"/><path d="m371.852 88.985c5.686 30.355-1.341 63.232-22.796 88.743-.522.62-1.033 1.249-1.547 1.877 23.897-3.575 42.378-24.316 42.378-49.168v-22.097c.001-10.215-7.995-18.634-18.035-19.355z" fill="#38c674"/><path d="m455.269 345.775c-9.943-20.745-30.749-34.321-53.734-35.283-45.244-1.893-86.198-28.725-93.592-62.312-8.573 10.685-18.362 17.548-27.114 21.943-7.749 3.892-15.652 5.748-23.433 5.9l.404 1.982c-.169 2.542-2.538 31.455-22.815 45.19-5.966-.241-62.071-1.63-93.635 28.135-14.494 13.669-21.844 31.895-21.844 54.17v64.971c39.004 26.223 85.959 41.529 136.494 41.529 90.196 0 168.994-48.748 211.522-121.326-1.751-14.322-5.303-30.399-12.253-44.899z" fill="#38c674"/><path d="m356.452 474.042c-20.01 0-36.381-16.371-36.381-36.381v-36.714c0-20.009 16.371-36.381 36.381-36.381 20.009 0 36.381 16.371 36.381 36.381v36.714c0 20.01-16.371 36.381-36.381 36.381z" fill="#50dd89"/><path d="m217.78 474.042c-20.01 0-36.381-16.371-36.381-36.381v-36.714c0-20.009 16.371-36.381 36.381-36.381 20.01 0 36.381 16.371 36.381 36.381v36.714c0 20.01-16.371 36.381-36.381 36.381z" fill="#50dd89"/><path d="m390.995 375.807v95.66c11.481-7.597 22.288-16.132 32.305-25.501 0-6.399 0-13.663 0-21.633 0-30.666-32.305-48.526-32.305-48.526z" fill="#2ab663"/><path d="m258.913 275.964c-20.768 1.001-40.798-10.266-54.855-27.784-7.445 33.818-48.589 60.43-93.592 62.312-22.985.961-43.79 14.538-53.734 35.283-6.95 14.501-10.503 30.578-12.254 44.9 19.005 32.433 45.256 60.101 76.527 80.793 0-13.02 0-33.555 0-65.967 0-87.5 114.403-80.784 114.403-80.784 22.408-14.784 23.9-46.818 23.9-46.818z" fill="#2ab663"/><path d="m360.052 53.066c-11.78.915-26.35 6.097-41.531 21.278-22.99 22.99-54.328 30.852-83.045 23.835l.439 1.926c-2.306 2.02-8.551 8.626-5.496 18.732l-7.956 29.366 2.368 12.983c-.262 1.106-.912 4.551-.053 8.782.925 4.557 3.832 10.913 12.389 15.562l4.28 12.588c-2.014 3.85-10.389 20.785-5.363 27.143v10.068c-.316 2.232-3.649 30.223 23.223 42.568 7.4-.442 14.73-2.365 21.521-5.775 13.959-7.011 30.557-20.295 40.652-45.357 8.329-20.678 19.05-36.569 28.725-48.073 16.313-19.397 25.037-44.056 25.037-69.401 0-.441 0-.882 0-1.323 0-19.791-5.464-38.685-15.19-54.902z" fill="#50dd89"/><path d="m237.584 235.439v-10.744c-5.694-5.694 5.493-26.447 5.493-26.447l-4.68-13.764c-16.354-8.516-12.03-23.245-12.03-23.245l-2.367-12.971 7.982-29.462c-3.768-11.57 5.602-18.128 5.602-18.128l-.486-2.134c-15.886-3.56-31.041-11.623-43.618-24.2-14.971-14.971-29.346-20.214-41.039-21.234-10.016 16.551-15.682 35.879-15.682 56.183v1.436c0 24.911 9.003 48.9 25.037 67.965 9.675 11.504 20.396 27.395 28.725 48.073 10.094 25.062 26.693 38.346 40.652 45.357 9.785 4.914 20.69 6.744 31.311 5.494-29.989-11.783-24.9-42.179-24.9-42.179z" fill="#38c674"/><path d="m282.999 116.624c-7.831 4.53-11.033 14.486-6.755 22.458 1.815 3.383 4.883 6.483 9.955 8.399 16.599 6.269 56.843-26.981 56.843-26.981 2.988-6.647-1.471-14.22-8.728-14.898-12.534-1.173-31.786-.274-51.315 11.022z" fill="#70f2a4"/><path d="m229.001 116.624c7.831 4.53 11.033 14.486 6.755 22.458-1.815 3.383-4.883 6.483-9.955 8.399-16.599 6.269-56.843-26.981-56.843-26.981-2.988-6.647 1.471-14.22 8.728-14.898 12.534-1.173 31.786-.274 51.315 11.022z" fill="#70f2a4"/><g><path d="m226.105 229.521c18.786 12.457 41.004 12.457 59.79 0 1.188-.788 2.392-1.626 3.607-2.517 3.292-2.413.399-7.518-3.385-5.988-.074.03-.149.06-.223.09-18.786 7.551-41.004 7.551-59.79 0-.074-.03-.148-.06-.223-.09-3.784-1.53-6.676 3.575-3.385 5.988 1.217.891 2.421 1.729 3.609 2.517z" fill="#1ba552"/></g><path d="m226.373 148.544c-5.428-11.589-19.72-27.039-57.367-28.044-2.022-.054-3.492 1.93-2.836 3.844 3.094 9.022 14.08 30.959 48.656 35.93 9.654-1.732 11.277-9.211 11.547-11.73z" fill="#856ee5"/><path d="m196.28 124.592c-5.561 2.912-9.361 8.729-9.361 15.442 0 6.146 3.189 11.538 7.995 14.642 2.05.919 4.229 1.771 6.563 2.532.936.156 1.891.256 2.872.256 9.297 0 16.872-7.285 17.381-16.454-4.881-6.228-12.753-12.472-25.45-16.418z" fill="#5c45bf"/><path d="m212.641 159.916c4.206.713 8.758 1.183 13.725 1.324 1.828.052 3.277-1.577 2.968-3.379-.435-2.537-1.389-6.257-3.477-10.38h-.008s.062 11.302-13.208 12.435z" fill="#1ba552"/><ellipse cx="204.37" cy="140.609" fill="#3b2aa0" rx="5.492" ry="9.047"/><path d="m214.321 145.714c0 1.773-1.437 3.209-3.209 3.209-1.773 0-3.209-1.437-3.209-3.209s1.437-3.209 3.209-3.209c1.772-.001 3.209 1.436 3.209 3.209z" fill="#7255ce"/><path d="m285.626 148.544c5.428-11.589 19.72-27.039 57.367-28.044 2.022-.054 3.492 1.93 2.836 3.844-3.094 9.022-14.08 30.959-48.655 35.93-9.654-1.732-11.277-9.211-11.548-11.73z" fill="#856ee5"/><path d="m315.72 124.592c5.561 2.912 9.361 8.729 9.361 15.442 0 6.146-3.189 11.538-7.995 14.642-2.05.919-4.229 1.771-6.563 2.532-.936.156-1.891.256-2.872.256-9.297 0-16.872-7.285-17.381-16.454 4.881-6.228 12.752-12.472 25.45-16.418z" fill="#5c45bf"/><path d="m299.359 159.916c-4.206.713-8.758 1.183-13.725 1.324-1.828.052-3.277-1.577-2.968-3.379.435-2.537 1.389-6.257 3.477-10.38h.008s-.062 11.302 13.208 12.435z" fill="#1ba552"/><ellipse cx="307.63" cy="140.609" fill="#3b2aa0" rx="5.492" ry="9.047"/><ellipse cx="268.924" cy="189.202" fill="#1ba552" rx="5.492" ry="9.047"/><ellipse cx="243.076" cy="189.202" fill="#1ba552" rx="5.492" ry="9.047"/><path d="m297.679 145.714c0 1.773 1.437 3.209 3.209 3.209s3.209-1.437 3.209-3.209-1.437-3.209-3.209-3.209c-1.773-.001-3.209 1.436-3.209 3.209z" fill="#7255ce"/><path d="m398.888 436.103c-3.303-.53-6.413 1.719-6.943 5.023-3.754 23.386-21.185 34.755-53.288 34.755-12.717 0-30.086-3.901-50.232-11.28-15.771-5.777-26.366-20.972-26.366-37.813v-80.861l42.604-22.148c2.97-1.543 4.126-5.202 2.582-8.171-1.542-2.97-5.203-4.125-8.171-2.581l-43.074 22.394-43.074-22.392c-2.968-1.544-6.626-.389-8.171 2.581-1.544 2.969-.388 6.627 2.581 8.171l42.604 22.148v80.861c0 16.84-10.596 32.036-26.367 37.813-20.145 7.379-37.514 11.28-50.231 11.28-32.105 0-49.535-11.368-53.288-34.755-.53-3.304-3.64-5.552-6.943-5.023-3.304.53-5.553 3.639-5.022 6.943 2.444 15.231 9.623 26.804 21.336 34.398 10.804 7.004 25.58 10.556 43.918 10.556 14.325 0 32.628-4.044 54.399-12.02 12.396-4.54 22.329-13.552 28.258-24.801 5.929 11.248 15.862 20.261 28.258 24.801 21.772 7.976 40.075 12.02 54.4 12.02 18.337 0 33.113-3.551 43.917-10.556 11.714-7.594 18.892-19.167 21.337-34.398.529-3.306-1.719-6.414-5.024-6.945z" fill="#1ba552"/><path d="m465.772 344.906c-1.823-3.202-3.84-6.286-6.046-9.227l-52.377 42.918c-2.026.069-8.839.688-13.522 5.74-2.63 2.837-4.104 6.544-4.414 11.054 12.122 12.365 28.798 20.269 47.262 20.825 4.95.149 9.784-.229 14.457-1.069 5.253-6.908 10.133-14.111 14.641-21.565v-48.676z" fill="#7255ce"/><path d="m407.591 302.691c-13.519-2.701-27.042 4.247-32.49 16.911-3.611 8.394-5.611 17.644-5.606 27.363.009 19.462 8.219 37.192 21.361 49.848.274-17.083 17.038-16.724 17.038-16.724l52.724-43.202c-12.454-17.204-31.113-29.818-53.027-34.196z" fill="#5c45bf"/><path d="m422.188 303.587c-11.069-2.211-22.142 3.478-26.602 13.847-2.957 6.873-4.594 14.446-4.59 22.405.014 30.471 24.549 55.785 55.005 56.703 6.93.209 13.587-.833 19.771-2.906 4.852-8.02 9.253-16.344 13.177-24.931-1.973-31.736-25.252-58.824-56.761-65.118z" fill="#856ee5"/><path d="m102.499 380.631c-.314 2.324-.766 8.911 3.213 13.793 2.671 3.277 6.761 5.07 12.145 5.373 15.051-12.767 24.639-31.79 24.648-52.831.004-9.72-1.995-18.969-5.606-27.363-5.447-12.664-18.971-19.612-32.49-16.911-20.671 4.13-38.446 15.589-50.848 31.316z" fill="#7255ce"/><path d="m104.106 380.09-49.604-47.257c-3.087 3.779-5.855 7.819-8.274 12.071v48.68c4.508 7.454 9.388 14.658 14.641 21.565 4.674.84 9.508 1.218 14.457 1.069 16.937-.511 32.362-7.212 44.156-17.859-19.135-.016-15.376-18.269-15.376-18.269z" fill="#5c45bf"/><path d="m121.005 339.838c.004-7.958-1.634-15.532-4.59-22.405-4.46-10.369-15.533-16.058-26.602-13.847-31.509 6.295-54.789 33.382-56.761 65.118 3.924 8.587 8.325 16.91 13.177 24.931 6.185 2.073 12.841 3.115 19.771 2.906 30.456-.919 54.991-26.232 55.005-56.703z" fill="#856ee5"/><path d="m318.203 13.698-.073.208h-124.327c-17.916 9.504-32.553 23.869-42.511 41.116 11.894.771 26.723 5.856 42.188 21.321 34.96 34.96 89.807 35.235 125.042 0 15.662-15.662 30.673-20.68 42.642-21.35-9.953-17.405-24.75-31.868-42.961-41.295z" fill="#5c45bf"/><path d="m318.13 13.659c-4.658-2.406-9.527-4.499-14.608-6.209-13.578-4.568-29.346-7.45-47.522-7.45-15.753 0-29.698 2.165-41.975 5.716-7.113 2.057-13.872 4.821-20.222 8.19-.9 3.601-1.382 7.333-1.382 11.16 0 29.676 28.465 53.733 63.579 53.733s63.579-24.057 63.579-53.733c0-3.915-.508-7.729-1.449-11.407z" fill="#7255ce"/><path d="m10.998 266.998c0 .971.026 1.937.037 2.906 22.131 9.566 64.509 23.706 98.299 10.096 48-19.333 60.667-58.93 17.333-88.798-33.01-22.753-48.474-63.687-32.804-107.862-50.812 44.891-82.865 110.526-82.865 183.658z" fill="#ffdd40"/><path d="m501.002 266.998c0 .971-.026 1.937-.037 2.906-22.131 9.566-64.509 23.706-98.298 10.096-48-19.333-60.667-58.93-17.333-88.798 33.01-22.753 48.474-63.687 32.804-107.862 50.811 44.891 82.864 110.526 82.864 183.658z" fill="#ffdd40"/><ellipse cx="279.069" cy="25.2" fill="#856ee5" rx="23.069" ry="16.926"/><g fill="#9787f4"><path d="m463.414 339.117c5.73 9.924 4.424 21.406-2.918 25.645-7.341 4.238-17.938-.371-23.668-10.296s-4.424-21.406 2.918-25.645c7.342-4.238 17.938.372 23.668 10.296z"/><ellipse cx="92.185" cy="346.792" rx="20.75" ry="15.349" transform="matrix(.5 -.866 .866 .5 -254.238 253.229)"/></g></g></svg>