<svg id="Layer_1" enable-background="new 0 0 512 512" height="512" viewBox="0 0 512 512" width="512" xmlns="http://www.w3.org/2000/svg"><g><path d="m79.222 436.62h353.555c42.251-44.022 68.224-103.787 68.224-169.622 0-135.311-109.691-245.002-245.002-245.002s-245.002 109.691-245.002 245.002c.001 65.835 25.974 125.6 68.225 169.622z" fill="#856ee5"/><path d="m198.573 196.538c-40.007-11.639-72.5-31.524-83.908-39.03l-4.403-1.536s-22.973-13.431-34.505 0c-12.591 14.664 12.009 95.335 122.816 116.592z" fill="#bec8f7"/><path d="m392.572 239.769c43.259-31.815 52.394-73.64 43.672-83.797-11.533-13.431-34.505 0-34.505 0l-4.403 1.536c-4.374 2.878-11.858 7.579-21.668 12.934-3.808 8.465-20.584 50.941 16.904 69.327z" fill="#d3dcfb"/><path d="m378.367 168.955c-15.916 8.875-38.777 19.961-64.839 27.554v76.036c34.484-6.63 60.61-19.016 79.862-33.373-40.07-20.835-15.023-70.217-15.023-70.217z" fill="#bec8f7"/><g><path d="m375.012 261.69c-9.211-8.555-11.359-20.831-8.059-30.866 7.095-21.578.906-35.211-8.997-51.898-32.573 15.427-69.341 26.53-105.086 25.864.002-.003.004-.007.006-.01-36.812-.687-72.408-13.344-98.83-25.856-9.904 16.688-16.094 30.321-8.998 51.9 3.3 10.035 1.152 22.311-8.059 30.866-7.489 6.956-12.175 16.885-12.175 27.913 0 7.208 2.003 13.947 5.482 19.693 4.362 7.206 6.375 15.624 5.454 23.997-1.189 10.813.711 23.027 9.632 34.701h110.618 110.619c8.921-11.673 10.821-23.887 9.632-34.701-.921-8.373 1.092-16.791 5.454-23.997 3.479-5.747 5.482-12.485 5.482-19.693.001-11.028-4.686-20.958-12.175-27.913z" fill="#543e5b"/></g><path d="m290.903 321.82c0-4.851 0-3.397 0-6.538-8.457 7.56-22.959 17.193-34.903 17.482-.304-.007-.616-.046-.923-.065-.043 12.379-1.52 42.537-14.339 55.355-15.239 15.238-32.233 23.05-34.864 24.206-.726-.08-2.294-.227-4.486-.321 10.537 8.948 22.482 16.395 35.615 22.077 12.429 5.375 26.68 5.376 39.107 0 27.749-12.006 50.281-31.809 65.16-57.272.03-.051.06-.102.089-.153 4.858-8.328 14.138-12.899 23.546-11.717-22.398-5.187-74.002-19.676-74.002-43.054z" fill="#ffaa7b"/><path d="m256.588 332.722c-.195.009-.394.037-.588.042-11.944-.289-26.446-9.921-34.903-17.482v6.538c0 23.043-50.131 37.448-73.017 42.824 9.407-1.195 18.696 3.39 23.546 11.727.072.124.145.249.217.373 8.263 14.141 18.894 26.528 31.46 36.812 1.786.113 2.796.24 2.796.24s18.788-7.771 35.7-24.682c13.264-13.263 14.76-43.823 14.789-56.392z" fill="#fc9460"/><path d="m422.664 400.433c-12.981-25.962-35.764-33.211-46.144-35.205 0 0-3.588-.655-9.29-1.957-10.174-2.323-20.613 2.305-25.871 11.319-.03.051-.06.102-.089.153-14.879 25.463-37.41 45.266-65.16 57.272-12.427 5.376-26.678 5.375-39.107 0-12.076-5.225-23.161-11.929-33.06-19.931-8.494-.633-37.802-1.273-58.834 17.263-11.891 10.479-18.951 25.273-21.091 44.068 15.659 10.031 32.526 18.342 50.347 24.639l.002-.004h163.267l.002.003c36.439-12.877 68.926-34.12 95.142-61.435-2.184-14.382-5.46-26.878-10.114-36.185z" fill="#deeeff"/><path d="m206.1 413.796s.018-.008.027-.011c-13.799-10.706-25.411-23.857-34.283-39.041-.072-.124-.145-.248-.217-.373-5.254-9.032-15.718-13.677-25.897-11.32-6.256 1.448-10.249 2.178-10.249 2.178-10.381 1.993-33.163 9.243-46.144 35.205-4.653 9.307-7.929 21.803-10.113 36.187 13.777 14.355 29.301 27.012 46.206 37.68 7.431-69.771 80.67-60.505 80.67-60.505z" fill="#bec8f7"/><path d="m408.819 34.956c-31.252-18.19-48.154 24.753-110.074-23.789-77.203-60.522-135.94 144.672-135.94 144.672l111.496 1.612-7.454-25.873c2.558-3.734 13.755-22.864-5.586-47.424-10.769-13.674-9.683-24.431-6.875-31.046 4.079-9.613 14.617-16.627 26.848-17.867 19.202-1.948 39.818 30.463 44.537 38.356-.674-14.51 44.468 10.447 58.229-18.758 4.735-10.049 18.695-13.924 24.036-14.952 2.41-.464 2.904-3.696.783-4.931z" fill="#bec8f7"/><path d="m327.115 78.538c-1.453-3.406-1.682-5.7-.962-7.217-6.139-10.009-25.949-39.511-45.069-37.571-23 2.333-42 24.667-21 51.333s5.121 46.211 5.121 46.211l7.529 26.135 74.461 1.077s-9.852-56-20.08-79.968z" fill="#d3dcfb"/><path d="m337.633 498.051c2.39-7.848 3.682-16.174 3.682-24.804 0-47.119-38.197-85.316-85.316-85.316s-85.316 38.197-85.316 85.316c0 8.63 1.292 16.956 3.682 24.804 25.538 9.023 53.009 13.949 81.635 13.949s56.097-4.926 81.633-13.949z" fill="#fb7ac0"/><path d="m332.05 434.594c-8.583-16.854-22.589-30.475-39.734-38.554-4.789-1.3-9.823-2.007-15.024-2.007-31.609 0-57.233 25.624-57.233 57.233s25.624 57.233 57.233 57.233 57.233-25.624 57.233-57.233c0-5.8-.87-11.396-2.475-16.672z" fill="#fc90ce"/><circle cx="288.637" cy="437.009" fill="#fcb1df" r="23.213"/><path d="m113.863 308.394c1.038-17.182-5.143-34.008-17.05-46.439-7.442-7.77-15.553-16.51-24.049-26.539-59.014-69.666-9.545-100.403 54.986-118.741 48.362-13.743 37.262-54.178 28.663-73.579-85.679 38.166-145.415 124.053-145.415 223.902 0 35.239 7.445 68.737 20.84 99.015 7.838.76 16.221.822 24.674.257 30.943-2.065 55.48-26.921 57.351-57.876z" fill="#9787f4"/><path d="m468.852 145.601c2.72 25.041.344 62.926-29.617 92.887-5.869 5.869-12.656 11.488-19.724 16.922-13.904 10.69-21.99 27.284-21.99 44.822 0 31.947 26.394 57.528 58.329 56.66 11.321-.308 21.404-1.833 29.511-3.588 10.107-26.844 15.64-55.928 15.64-86.307.001-44.171-11.694-85.609-32.149-121.396z" fill="#9787f4"/><path d="m188.829 248.377s-4.198-26.567.637-42.389c-4.387-2.924-12.863-4.352-16.675-.625-7.805 7.63-2.086 19.152.65 26.43.84 2.235 1.382 4.495 1.627 6.759.532 4.92 3.2 12.122 14.262 11.952-.166-.709-.337-1.406-.501-2.127z" fill="#fc9460"/><path d="m340.311 205.363c-3.812-3.727-12.288-2.299-16.675.625 4.835 15.822.637 42.389.637 42.389-.164.721-.335 1.418-.502 2.127 11.061.17 13.729-7.032 14.262-11.952.245-2.264.787-4.525 1.627-6.759 2.737-7.278 8.455-18.8.651-26.43z" fill="#ffaa7b"/><path d="m319.997 197.757c-1.594-1.796-2.47-3.895-2.535-6.068-.247-8.273-2.336-28.521-16.369-37.865-9.954-6.628-23.947-6.559-41.59.207-1.904.73-4.001.73-5.905 0-.747-.286-1.477-.543-2.211-.805.159.199.308.398.47.597-5.079 3.947-25.722 22.457-11.61 52.991l3.311 8.8c-2.59 2.497-5.595 8.031-1.935 14.815l-.089.412c-.479.769-2.05 3.54-2.515 7.429-.486 4.072.196 10.169 6.097 16.293l-.42 6.774c-.765 1.663-4.613 11.171 2.866 19.714l-.753 6.194c-.14.582-.757 3.602.728 6.17.839 1.452 2.166 2.478 3.949 3.055l3.119 5.655c-.255 1.626-.955 7.427.765 13.83 1.52 5.66 5.234 12.635 14.14 16.635 15.167-6.965 27.509-18.042 35.755-32.153 8.427-14.42 15.003-31.894 19.553-51.973 1.97-12.521 4.067-40.692-4.821-50.707z" fill="#ffc7ab"/><path d="m255.861 301.91-3.56-6.457c-6.037-1.596-4.307-7.992-4.307-7.992l.828-6.81c-8.249-8.94-2.94-19.01-2.94-19.01l.467-7.541c-11.448-11.448-3.685-22.794-3.685-22.794l.232-1.067c-4.99-8.676 2.082-14.273 2.082-14.273l-3.619-9.617c-15.71-33.936 12.241-52.318 12.241-52.318-17.644-6.764-31.637-6.834-41.589-.208-14.033 9.344-16.122 29.594-16.368 37.867-.065 2.174-.941 4.272-2.536 6.068-8.787 9.902-6.863 38.831-4.813 50.742 4.54 20.04 11.117 37.513 19.544 51.937 8.556 14.642 21.513 26.03 37.47 32.934 7.148 3.091 15.343 3.091 22.489 0 1.081-.468 2.145-.96 3.198-1.468-19.423-7.856-15.134-29.993-15.134-29.993z" fill="#ffaa7b"/><g><path d="m309.85 227.94c-4.154-4.686-8.163-7.392-11.878-8.771.729 1.76 1.138 3.799 1.116 5.969-.037 3.684-1.307 6.954-3.263 9.099 3.095-.695 5.513-1.702 7.005-2.476 3.019-1.566 5.298-2.188 6.651-2.435.562-.103.78-.922.369-1.386z" fill="#deeeff"/></g><path d="m275.177 226.968c-.022 2.18.468 4.199 1.312 5.861 3.206 1.211 6.283 1.855 9.146 2.101-2.389-2.138-3.954-5.839-3.912-10.033.016-1.585.263-3.091.691-4.467-1.852 1.021-3.349 2.197-4.409 3.189-.778.727-1.746 1.516-2.769 2.302-.031.343-.056.691-.059 1.047z" fill="#deeeff"/><g><path d="m275.463 225.75c-2.209 1.713-4.75 3.432-6.359 4.488-.434.285-.266 1.061.232 1.067l.225.003c2.115.029 4.214.445 6.215 1.249.338.136.673.26 1.008.383-.914-1.565-1.454-3.553-1.433-5.714.006-.504.048-.995.112-1.476z" fill="#ffaa7b"/></g><g><path d="m281.727 220.824c-.521 1.355-.819 2.854-.835 4.436-.04 4.093 1.811 7.693 4.598 9.657 4.044.365 7.669-.053 10.642-.751 2.2-2.005 3.63-5.124 3.665-8.649.023-2.309-.556-4.461-1.565-6.252-6.754-2.61-12.553-.809-16.505 1.559z" fill="#ff4155"/></g><g><path d="m291.074 222.605c0-1.729-.518-3.307-1.37-4.524-3.112.329-5.82 1.451-7.977 2.744-.521 1.355-.819 2.854-.835 4.436-.006.61.035 1.208.11 1.792 1.044 1.537 2.618 2.516 4.38 2.516 3.143 0 5.692-3.118 5.692-6.964z" fill="#e80054"/></g><g><path d="m296.467 222.601c0 .87-.705 1.576-1.576 1.576-.87 0-1.576-.705-1.576-1.576 0-.87.706-1.576 1.576-1.576.871 0 1.576.706 1.576 1.576z" fill="#ff7186"/></g><g><path d="m312.568 212.757c-.749-3.236-3.314-10.693-11.19-11.86-7.953-1.178-24.179 3.432-30.736 5.451-1.747.538-3.052 1.998-3.395 3.793l-.987 5.175c-.084.439.343.802.763.649 4.95-1.806 27.764-9.889 35.035-8.156 5.544 1.322 8.531 3.814 9.879 5.281.256.279.716.035.631-.333z" fill="#543e5b"/></g><g><path d="m202.15 227.94c4.154-4.686 8.163-7.392 11.878-8.771-.729 1.76-1.138 3.799-1.116 5.969.037 3.684 1.307 6.954 3.263 9.099-3.095-.695-5.513-1.702-7.005-2.476-3.019-1.566-5.298-2.188-6.651-2.435-.562-.103-.78-.922-.369-1.386z" fill="#deeeff"/></g><path d="m235.711 232.753c.804-1.727 1.267-3.778 1.245-5.981-.003-.246-.017-.487-.033-.728-1.083-.826-2.11-1.66-2.929-2.425-1.06-.992-2.557-2.168-4.409-3.189.428 1.376.675 2.882.691 4.467.042 4.195-1.522 7.895-3.912 10.033 2.924-.252 6.069-.917 9.347-2.177z" fill="#deeeff"/><g><path d="m236.537 225.75c2.209 1.713 4.75 3.432 6.359 4.488.434.285.266 1.061-.232 1.067l-.225.003c-2.115.029-4.214.445-6.215 1.249-.338.136-.673.26-1.008.383.914-1.565 1.454-3.553 1.433-5.714-.006-.504-.049-.995-.112-1.476z" fill="#fc9460"/></g><g><path d="m230.273 220.824c.521 1.355.819 2.854.835 4.436.04 4.093-1.811 7.693-4.598 9.657-4.044.365-7.669-.053-10.642-.751-2.2-2.005-3.63-5.124-3.665-8.649-.023-2.309.556-4.461 1.565-6.252 6.754-2.61 12.553-.809 16.505 1.559z" fill="#ff4155"/></g><g><path d="m220.926 222.605c0-1.729.518-3.307 1.37-4.524 3.112.329 5.82 1.451 7.977 2.744.521 1.355.819 2.854.835 4.436.006.61-.035 1.208-.11 1.792-1.044 1.537-2.618 2.516-4.38 2.516-3.143 0-5.692-3.118-5.692-6.964z" fill="#e80054"/></g><g><path d="m215.533 222.601c0 .87.706 1.576 1.576 1.576s1.576-.705 1.576-1.576c0-.87-.706-1.576-1.576-1.576-.871 0-1.576.706-1.576 1.576z" fill="#ff7186"/></g><g><path d="m199.432 212.757c.749-3.236 3.314-10.693 11.19-11.86 7.952-1.178 24.179 3.432 30.736 5.451 1.747.538 3.052 1.998 3.395 3.793l.987 5.175c.084.439-.343.802-.763.649-4.95-1.806-27.764-9.889-35.035-8.156-5.544 1.322-8.531 3.814-9.879 5.281-.256.279-.717.035-.631-.333z" fill="#543e5b"/></g><g fill="#fc9460"><path d="m240.322 283.221 6.285-2.478c.707-.278 1.488-.311 2.215-.091l7.243 2.184 7.242-2.184c.728-.219 1.509-.187 2.215.091l6.285 2.478c1.736.685 2.589 2.647 1.905 4.384-.683 1.731-2.642 2.591-4.384 1.905l-5.193-2.048-7.063 2.13c-.684.214-1.398.198-2.015-.001l-7.062-2.129-5.193 2.048c-1.733.682-3.697-.164-4.384-1.905-.685-1.737.167-3.699 1.904-4.384z"/><path d="m253.692 295.152h4.338c1.867 0 3.379 1.513 3.379 3.379 0 1.867-1.513 3.379-3.379 3.379h-4.338c-1.867 0-3.38-1.513-3.38-3.379 0-1.867 1.513-3.379 3.38-3.379z"/><path d="m240.841 255.259 5.508-1.159c1.585-.332 3.058.323 3.76 1.668 1.18 1.83 3.341 2.895 5.806 2.895 2.464 0 4.623-1.065 5.777-2.849.729-1.391 2.205-2.045 3.788-1.714l5.507 1.159c1.895.399 3.112 2.266 2.713 4.161-.398 1.893-2.264 3.111-4.16 2.714l-3.07-.647c-.039-.008-.079-.012-.119-.012-.15 0-.296.059-.405.166-5.439 5.372-14.627 5.372-20.065.001-.138-.136-.335-.194-.524-.154l-3.07.647c-1.896.396-3.762-.82-4.16-2.714-.398-1.896.819-3.763 2.714-4.162z"/></g><path d="m324.443 142.237c-30.869-8.215-52.136-10.51-62.062-11.15-39.998 14.534-18.25 37.744-18.25 37.744 14.763 18.281 12.993 30.675 8.738 37.959 1.043.02 2.086.033 3.131.033 74.912 0 145.738-50.85 145.738-50.85s-33.37-2.046-77.295-13.736z" fill="#deeeff"/><path d="m265.204 131.294c-6.052-.49-9.205-.455-9.205-.455s-24.517-.292-68.442 11.398c-43.926 11.69-77.296 13.735-77.296 13.735s69.322 49.762 143.34 50.825c4.512-6.99 6.999-19.362-8.026-37.967.001.001-21.905-23.376 19.629-37.536z" fill="#d3dcfb"/><path d="m387.188 289.603c0-11.028-4.686-20.958-12.175-27.913-5.35-4.969-8.302-11.194-9.203-17.505-10.125 5.859-39.263 24.767-39.263 48.315 0 26.963 9.221 60.182 49.881 50.14.235-3.196.156-6.328-.176-9.347-.921-8.373 1.092-16.791 5.454-23.997 3.479-5.746 5.482-12.485 5.482-19.693z" fill="#6c5475"/><path d="m406.949 459.965c-3.775-13.168-10.118-23.162-15.978-30.159-4.632-5.53-13.63-2.3-13.63 4.914v45.144c10.368-5.921 20.26-12.578 29.608-19.899z" fill="#bec8f7"/><path d="m317.65 346.268-9.333-7.727c-1.625-1.345-4-1.158-5.436.386-12.112 13.016-28.992 20.409-46.88 20.409-1.229 0-2.451-.043-3.67-.112l.069.092s-11.115 6.717-5.891 19.482c3.132.353 6.299.539 9.492.539 23.75 0 46.144-9.929 62.071-27.38 1.512-1.658 1.307-4.257-.422-5.689z" fill="#ffdd40"/><path d="m209.119 338.927c-1.437-1.544-3.812-1.731-5.436-.386l-9.333 7.727c-1.73 1.432-1.935 4.031-.421 5.69 14.259 15.623 33.703 25.211 54.66 27.049-5.433-12.901 5.811-19.69 5.811-19.69l-.016-.022c-17.285-.432-33.518-7.746-45.265-20.368z" fill="#ffb332"/></g></svg>