<svg id="Layer_1" enable-background="new 0 0 512 512" height="512" viewBox="0 0 512 512" width="512" xmlns="http://www.w3.org/2000/svg"><g><path d="m125.696 474.495c6.989 4.398 14.215 8.45 21.656 12.138l217.289.003c7.443-3.689 14.671-7.742 21.662-12.142l77.116-77.07c23.8-37.77 37.582-82.486 37.582-130.426 0-135.311-109.691-245.002-245.002-245.002s-245.002 109.691-245.002 245.002c0 47.943 13.784 92.661 37.586 130.432z" fill="#e80054"/><path d="m395.65 90.663-18.168 8.453c-1.999 3.09-5.049 8.96-4.152 14.993.612 4.113 2.945 7.561 6.919 10.258 10.587-11.464 16.6-22.448 19.721-29.44 1.225-2.74-1.598-5.53-4.32-4.264z" fill="#d3dcfb"/><path d="m380.236 97.836-29.766 13.85v36.402c13.177-7.665 23.213-16.411 30.797-24.833-14.215-9.435-1.031-25.419-1.031-25.419z" fill="#bec8f7"/><path d="m409.525 50.919-33.597 15.633c.826.414 1.681.805 2.601 1.144-2.272 3.225-6.547 10.441-5.393 17.785.654 4.168 2.941 7.709 6.805 10.545l-.754.737-.108.118c-.104.127-1.066 1.314-2.182 3.176 21.822-16.218 32.425-34.737 36.949-44.874 1.224-2.741-1.599-5.531-4.321-4.264z" fill="#deeeff"/><path d="m350.47 115.418c12.849-5.728 23.319-12.542 31.831-19.607-16.884-10.501-1.305-28.884-1.305-28.884-1.2-.347-2.286-.755-3.3-1.198l-27.226 12.668z" fill="#d3dcfb"/><path d="m423.4 11.175-55.614 25.877c-1.349 3.638-4.108 12.982-.463 20.904 2.064 4.488 5.829 7.758 11.206 9.74-.236.335-.496.721-.767 1.137 30.783-17.756 44.614-41.42 49.959-53.395 1.224-2.74-1.599-5.53-4.321-4.263z" fill="#f0f8ff"/><path d="m337.528 57.364c6.178 3.793 12.943 10.523 12.943 17.773v5.946c11.75-3.968 21.835-8.841 30.508-14.161-22.285-6.451-11.203-30.795-11.203-30.795l-38.022 17.692z" fill="#deeeff"/><g><path d="m116.35 90.663 18.168 8.453c1.999 3.09 5.049 8.96 4.152 14.993-.612 4.113-2.945 7.561-6.919 10.258-10.587-11.464-16.6-22.448-19.721-29.44-1.225-2.74 1.598-5.53 4.32-4.264z" fill="#d3dcfb"/><path d="m131.764 97.836 29.766 13.85v36.402c-13.177-7.665-23.213-16.411-30.797-24.833 14.215-9.435 1.031-25.419 1.031-25.419z" fill="#bec8f7"/><path d="m102.475 50.919 33.597 15.633c-.826.414-1.681.805-2.601 1.144 2.273 3.225 6.547 10.441 5.393 17.785-.654 4.168-2.941 7.709-6.805 10.545l.754.737.108.118c.105.127 1.066 1.314 2.182 3.176-21.822-16.218-32.425-34.737-36.949-44.874-1.224-2.741 1.599-5.531 4.321-4.264z" fill="#deeeff"/><path d="m161.53 115.418c-12.849-5.728-23.32-12.542-31.831-19.607 16.884-10.501 1.305-28.884 1.305-28.884 1.2-.347 2.286-.755 3.3-1.198l27.226 12.668z" fill="#d3dcfb"/><path d="m88.6 11.175 55.614 25.877c1.349 3.638 4.108 12.982.463 20.904-2.064 4.488-5.829 7.758-11.206 9.74.236.335.496.721.767 1.137-30.783-17.756-44.614-41.42-49.959-53.395-1.224-2.74 1.599-5.53 4.321-4.263z" fill="#f0f8ff"/><path d="m174.472 57.364c-6.178 3.793-12.943 10.523-12.943 17.773v5.946c-11.75-3.968-21.836-8.841-30.508-14.161 22.285-6.451 11.203-30.795 11.203-30.795l38.022 17.692z" fill="#deeeff"/></g><path d="m162.4 137.896c-11.915.958-21.37 11.001-21.37 23.152v19.031c0 12.151 9.455 22.194 21.37 23.152z" fill="#ffc839"/><path d="m349.6 137.896v65.336c11.915-.958 21.37-11.001 21.37-23.152v-19.031c.001-12.151-9.454-22.194-21.37-23.153z" fill="#ffdd40"/><path d="m298.271 318.295c3.041 0 5.929 1.227 8.113 3.343 9.621 9.324 25.73 16.86 41.748 22.575 3.194-17.192 3.697-36.501-3.468-61.595-6.749-23.638-9.547-42.09-10.153-56.35-5.126 18.497-11.825 34.875-19.985 48.838-4.708 8.058-10.552 15.274-17.339 21.527-1.278 7.457-2.091 14.68-2.511 21.662z" fill="#6c5475"/><path d="m205.616 321.638c2.184-2.116 5.072-3.343 8.113-3.343h4.905c-.42-6.982-1.233-14.205-2.511-21.662-6.787-6.254-12.63-13.469-17.339-21.527-8.16-13.964-14.859-30.341-19.985-48.838-.606 14.26-3.404 32.712-10.153 56.35-7.103 24.878-6.672 44.072-3.552 61.153 15.61-5.66 31.147-13.047 40.522-22.133z" fill="#543e5b"/><path d="m407.029 358.043c-3.683-1.22-6.959-2.006-9.566-2.507 0 0-60.784-11.093-87.571-32.791-.294.405-.625.79-1.035 1.119-15.371 12.33-35.575 24.25-52.857 24.7-3.497-.091-7.114-.658-10.786-1.597.203.872.432 1.757.711 2.666-.424 3.143-4.832 30.668-30.242 45.734-1.152.406-7.443 2.871-10.011 9.037-1.743 4.184-1.362 9.042 1.127 14.458-3.485 2.317-13.962 10.022-22.286 23.802-1.557 2.578-3.08 5.466-4.471 8.649h75.958 102.769c13.711 0 25.282 9.915 27.534 23.18 7.169-4.512 14.082-9.393 20.725-14.601v-101.849z" fill="#ffaa7b"/><path d="m203.143 323.864c-.41-.329-.741-.714-1.035-1.119-26.787 21.698-87.572 32.791-87.572 32.791-2.405.462-5.383 1.17-8.722 2.234v102.797c6.383 4.958 13.018 9.609 19.881 13.928 2.252-13.265 13.823-23.18 27.535-23.18h28.434c9.778-21.681 27.067-31.903 27.067-31.903-8.88-17.403 7.582-22.673 7.582-22.673 27.924-16.462 31.14-47.241 31.14-47.241-.229-.726-.426-1.436-.605-2.136-14.947-3.372-30.981-13.291-43.705-23.498z" fill="#fc9460"/><path d="m309.671 317.717c-4.699-5.682-7.495-11.884-7.495-18.605 0-6.898 0-4.832 0-9.298-11.188 10.752-30.375 24.452-46.176 24.863-1.293-.034-2.61-.164-3.942-.367.537 1.2 1.146 2.407 1.835 3.617-3.404 2.983-13.291 13.498-8.116 31.184 3.479.854 6.905 1.366 10.223 1.453 17.282-.45 37.486-12.37 52.857-24.7 2.506-2.011 2.862-5.67.814-8.147z" fill="#ffc839"/><path d="m209.824 299.113c0 6.721-2.796 12.923-7.495 18.605-2.048 2.476-1.692 6.136.814 8.147 12.895 10.344 29.191 20.396 44.311 23.633-6.575-20.817 8.385-31.221 8.385-31.221-.765-1.254-1.436-2.504-2.029-3.746-15.352-1.52-33.309-14.455-43.986-24.716z" fill="#ffb332"/><path d="m256.655 0c-1.273 0-2.53.066-3.773.181l1.078.407c-2.242 2.503-5.897 7.557-6.15 14.114-.215 5.573 2.068 10.973 6.788 16.065-.689.901-1.46 2.274-1.542 3.971-.077 1.592.446 3.131 1.558 4.589-.022.024-.049.054-.071.079.701-.012 1.401-.025 2.112-.025 15.725 0 29.067 3.027 40.297 7.69.317-2.05.484-4.151.484-6.29-.001-22.523-18.259-40.781-40.781-40.781z" fill="#6c5475"/><path d="m256.655 30.74c-16.557-16.557 0-30.74 0-30.74-22.522 0-40.781 18.258-40.781 40.781 0 2.139.166 4.239.484 6.29 11.23-4.664 24.571-7.69 40.297-7.69-4.738-4.739 0-8.641 0-8.641z" fill="#543e5b"/><path d="m256.655 30.74c-.689 0-1.375.01-2.059.031-.689.901-1.457 2.271-1.539 3.966-.077 1.592.446 3.131 1.558 4.589-.59.642-1.392 1.577-2.278 2.759 1.421-.051 2.856-.086 4.318-.086 19.193 0 34.84 4.505 47.423 10.998 2.235 1.153 4.392 2.407 6.484 3.738-12.63-15.835-32.077-25.995-53.907-25.995z" fill="#d3dcfb"/><path d="m256.655 30.74c-21.831 0-41.277 10.159-53.908 25.995 2.092-1.331 4.25-2.586 6.484-3.738 12.048-6.216 26.912-10.599 45-10.962 1.399-1.724 2.423-2.655 2.423-2.655-4.737-4.738.001-8.64.001-8.64z" fill="#bec8f7"/><g fill="#6c5475"><path d=""/><path d="m304.078 50.377c-12.583-6.492-28.23-10.997-47.423-10.997-.714 0-1.413.019-2.117.031-4.359 4.778-19.201 24.105-.126 48.318l-2.457 15.019c.321.12.635.229.959.354 2.401.921 5.081.921 7.482 0 61.107-23.425 67.47 30.211 67.964 46.766.085 2.833 1.277 5.483 3.177 7.624 2.111 2.379 3.672 5.611 4.813 9.344 3.096-2.064 7.903-3.488 12.247-3.385l.001-.013v-40.181c0-30.45-16.974-58.669-44.52-72.88z"/></g><path d="m256.655 39.38c-19.193 0-34.84 4.505-47.423 10.997-27.546 14.211-44.52 42.43-44.52 72.879v40.181l.001.013c4.345-.102 9.151 1.321 12.247 3.385 1.141-3.733 2.702-6.965 4.813-9.344 1.9-2.141 3.092-4.79 3.177-7.624.494-16.555 6.857-70.191 67.964-46.766.157.06.318.106.477.158l2.609-15.945c-22.029-27.333.655-47.934.655-47.934z" fill="#543e5b"/><path d="m332.027 154.436c-1.893-2.134-2.935-4.627-3.011-7.209-.293-9.828-2.775-33.882-19.446-44.983-11.825-7.874-28.448-7.792-49.408.246-2.262.867-4.753.867-7.014 0-.367-.141-.722-.26-1.086-.396l-11.821 72.247 1.34 4.241c-1.687 2.099-5.955 8.6-2.294 17.005l-.126.582c-.845 1.831-6.888 16.127 4.425 27.679l4.947 11.378c-1.478 2.269-5.27 9.376-2.256 18.9l.069.219 6.724 9.641c-1.052 1.726-1.776 4.499.341 7.025v6.842c-1.517 2.833-10.374 21.004.483 40.074-.079.07-.166.147-.252.225 5.544.495 11.19-.371 16.372-2.612 18.957-8.202 34.349-21.73 44.513-39.125 10.011-17.13 17.823-37.889 23.228-61.742 2.339-14.873 4.831-48.339-5.728-60.237z" fill="#ffc7ab"/><path d="m254.91 278.24v-7.81c-3.044-3.044 0-6.426 0-6.426l-7.204-10.33c-3.407-10.765 2.537-18.276 2.537-18.276l-5.394-12.405c-11.709-11.709-4.259-26.339-4.259-26.339l.268-1.233c-4.505-9.643 2.405-16.493 2.405-16.493l-1.484-4.698 11.719-71.625c-.117-.04-.235-.072-.351-.116-20.96-8.035-37.584-8.119-49.407-.247-16.671 11.101-19.152 35.157-19.445 44.984-.077 2.583-1.118 5.075-3.013 7.209-10.439 11.763-8.153 46.131-5.717 60.28 5.394 23.807 13.206 44.565 23.218 61.7 10.164 17.395 25.557 30.924 44.513 39.125 3.992 1.726 8.259 2.63 12.542 2.734-12.521-20.537-.928-40.034-.928-40.034z" fill="#ffaa7b"/><g><path d="m318.224 192.766c-4.8-5.414-9.433-8.542-13.726-10.135.843 2.033 1.315 4.389 1.289 6.898-.043 4.257-1.51 8.035-3.77 10.514 3.576-.804 6.37-1.967 8.094-2.861 3.489-1.81 6.121-2.529 7.685-2.814.651-.119.902-1.065.428-1.602z" fill="#deeeff"/></g><path d="m278.159 191.643c-.025 2.519.541 4.852 1.516 6.772 3.704 1.399 7.26 2.143 10.569 2.428-2.761-2.471-4.569-6.747-4.52-11.594.018-1.831.304-3.572.799-5.162-2.14 1.18-3.869 2.539-5.094 3.685-.899.841-2.018 1.752-3.199 2.66-.039.398-.067.8-.071 1.211z" fill="#deeeff"/><g><path d="m278.49 190.236c-2.552 1.979-5.488 3.966-7.347 5.186-.501.329-.307 1.225.267 1.233l.26.003c2.443.033 4.869.514 7.181 1.444.39.157.778.3 1.165.443-1.056-1.808-1.68-4.105-1.655-6.603.006-.583.055-1.151.129-1.706z" fill="#ffaa7b"/></g><g><path d="m285.728 184.544c-.602 1.566-.946 3.298-.964 5.126-.047 4.73 2.093 8.889 5.313 11.159 4.673.422 8.862-.061 12.297-.867 2.542-2.316 4.194-5.921 4.234-9.994.026-2.668-.643-5.155-1.809-7.224-7.804-3.018-14.505-.937-19.071 1.8z" fill="#73c3f9"/></g><g><path d="m296.528 186.601c0-1.997-.598-3.821-1.583-5.228-3.596.381-6.726 1.677-9.218 3.17-.602 1.566-.947 3.298-.965 5.126-.007.705.04 1.395.127 2.071 1.207 1.776 3.025 2.908 5.061 2.908 3.633 0 6.578-3.603 6.578-8.047z" fill="#49b1f7"/></g><g><path d="m302.76 186.597c0 1.006-.815 1.821-1.821 1.821-1.005 0-1.821-.815-1.821-1.821 0-1.005.815-1.821 1.821-1.821s1.821.815 1.821 1.821z" fill="#9bd8f9"/></g><g><path d="m321.365 175.222c-.865-3.739-3.83-12.356-12.93-13.704-9.189-1.361-27.938 3.965-35.516 6.299-2.018.622-3.527 2.309-3.923 4.383l-1.14 5.98c-.097.508.396.927.882.75 5.72-2.087 32.082-11.426 40.483-9.424 6.407 1.527 9.858 4.408 11.415 6.103.295.321.827.039.729-.387z" fill="#6c5475"/></g><g><path d="m190.635 175.222c.865-3.739 3.83-12.356 12.93-13.704 9.189-1.361 27.939 3.965 35.516 6.299 2.019.622 3.527 2.309 3.923 4.383l1.141 5.98c.097.508-.396.927-.882.75-5.72-2.087-32.081-11.426-40.483-9.424-6.407 1.527-9.858 4.408-11.415 6.103-.296.321-.828.039-.73-.387z" fill="#543e5b"/></g><g fill="#fc9460"><path d="m237.884 256.644 7.262-2.864c.817-.322 1.719-.359 2.56-.106l8.369 2.524 8.369-2.524c.841-.253 1.743-.216 2.56.106l7.262 2.864c2.006.791 2.992 3.059 2.201 5.065-.789 2-3.053 2.993-5.065 2.201l-6.001-2.366-8.162 2.461c-.791.247-1.615.229-2.328-.001l-8.161-2.461-6.001 2.366c-2.003.788-4.271-.189-5.065-2.201-.792-2.005.193-4.273 2.2-5.064z"/><path d="m253.333 270.43h5.012c2.157 0 3.905 1.748 3.905 3.905s-1.748 3.905-3.905 3.905h-5.012c-2.157 0-3.905-1.748-3.905-3.905s1.748-3.905 3.905-3.905z"/><path d="m238.484 224.333 6.365-1.34c1.831-.383 3.533.373 4.345 1.928 1.364 2.115 3.861 3.345 6.709 3.345 2.847 0 5.342-1.23 6.675-3.292.842-1.607 2.548-2.363 4.376-1.981l6.364 1.34c2.19.461 3.596 2.618 3.135 4.808-.46 2.188-2.616 3.595-4.807 3.136l-3.548-.747c-.045-.01-.092-.014-.137-.014-.173 0-.342.068-.468.192-6.284 6.208-16.901 6.207-23.185.001-.159-.158-.387-.224-.605-.178l-3.548.747c-2.191.458-4.346-.948-4.807-3.136-.461-2.191.946-4.348 3.136-4.809z"/></g><path d="m256 449.315v62.685c20.847 0 41.082-2.612 60.404-7.512-9.321-8.03-13.042-22.875-13.042-40.382 0-20.095 7.485-39.777 23.906-51.496-1.093-.496-6.182-1.392-10.34-4.649-22.227 5.994-47.853 17.859-60.928 41.354z" fill="#ffdd40"/><path d="m357.467 401.851s-19.631.211-42.315 6.601c2.087 1.852 4.921 3.477 8.74 4.673 0 0-22.03 15.274-22.03 50.982 0 19.701 4.575 33.195 12.785 40.81 17.478-4.294 34.216-10.461 49.994-18.281 9.794-11.194 18.092-25.422 23.619-43.507-11.942-12.59-20.746-25.918-27.176-38.134z" fill="#fee884"/><path d="m204.642 410.868c.149 2.504.86 5.171 2.158 7.995-3.485 2.317-13.962 10.022-22.286 23.802-7.252 12.004-13.787 30.582-9.409 55.647 25.327 8.856 52.545 13.688 80.895 13.688v-62.685c-11.229-20.178-31.717-31.776-51.358-38.447z" fill="#ffc839"/><path d="m154.533 401.851-3.617 3.144c-6.43 12.216-15.234 25.544-27.176 38.134 5.526 18.083 13.82 32.313 23.613 43.504 9.455 4.686 19.251 8.788 29.349 12.241-10.097-54.549 32.03-79.463 32.03-79.463-1.545-3.028-2.31-5.68-2.541-8.01-26.35-9.282-51.658-9.55-51.658-9.55z" fill="#ffb332"/><path d="m312.683 402.764c-2.971-6.263-.466-13.241-.221-13.889l.796-1.585c-26.882 11.801-43.546 30.429-51.547 41.314-2.835 3.857-8.586 3.857-11.421 0-6.274-8.535-17.875-21.829-35.548-32.861-2.168.937-6.919 3.499-9.069 8.662-1.722 4.134-1.362 8.93 1.049 14.27 17.881 6.495 35.651 16.685 49.279 32.64 19.162-22.435 46.509-33.484 70.846-38.859-2.367-.768-10.759-2.519-14.164-9.692z" fill="#4b6bb2"/><path d="m362.583 407.779c-1.1-2.004-2.14-3.983-3.116-5.928-4.247-8.464-7.586-16.706-10.219-24.362-14.557 1.789-27.233 5.741-38.166 10.793-.141.353-7.296 18.548 12.81 24.843 0 0-.011.008-.013.009 14.587-3.471 28.272-4.863 38.704-5.355z" fill="#6289cc"/><path d="m208.732 419.411c-8.804-17.253 7.291-22.578 7.569-22.669-13.851-8.931-31.563-16.551-53.55-19.253-2.632 7.655-5.972 15.898-10.219 24.362-.976 1.945-2.016 3.925-3.116 5.928 15.263.719 37.483 3.356 59.312 11.634z" fill="#3c58a0"/><path d="m449.593 375.937c-5.386-.113-24.958.473-38.503 13.944-9.384 9.333-13.726 22.791-12.919 40.019-2.149.103-5.857.71-8.615 3.448-.025.025-.045.054-.07.08 6.773 7.624 14.615 14.907 23.677 21.511 19.593-16.402 36.58-35.808 50.257-57.514-3.561-7.405-8.09-14.669-13.827-21.488z" fill="#ffc839"/><path d="m346.678 333.981s3.703 56.303 43.809 100.561c3.571-3.693 9.271-3.129 9.271-3.129-3.727-57.733 51.053-53.928 51.113-53.924-18.546-22.983-50.338-41.265-104.193-43.508z" fill="#ffb332"/><path d="m398.165 429.709c.003.064.002.126.005.19-2.149.103-5.857.71-8.615 3.448-2.312 2.296-3.445 5.55-3.38 9.689 5.821 6.146 12.394 12.114 19.8 17.693 4.858-3.766 9.573-7.706 14.13-11.819-7.955-5.605-15.282-11.997-21.94-19.201z" fill="#fee884"/><path d="m399.758 431.413s0-.003 0-.005c-10.108-10.582-18.761-22.937-25.91-37.05-16.02-31.625-18.17-60.688-18.19-60.978-.331-4.953-4.602-8.725-9.568-8.379-4.96.325-8.717 4.609-8.392 9.569.086 1.309 2.302 32.469 19.77 67.28 6.796 13.544 16.536 28.705 30.299 42.831-1.331-14.589 11.991-13.268 11.991-13.268z" fill="#ffdd40"/><path d="m69.786 368.079c.489 3.288 2.419 13.358 8.744 23.564 6.876 11.095 20.405 24.284 45.942 24.733.318 1.986 1.306 5.565 4.362 7.997.235.187.489.345.738.51 32.555-42.368 35.749-90.904 35.749-90.904-46.261 1.929-76.243 15.691-95.535 34.1z" fill="#ffc839"/><path d="m125.822 414.889c-49.786 0-54.688-48.061-54.689-48.07-10.082 9.271-17.347 19.792-22.549 30.612 13.677 21.704 30.664 41.11 50.256 57.511 12.858-9.369 23.252-20.108 31.64-31.238-4.527-2.933-4.658-8.815-4.658-8.815z" fill="#ffb332"/><path d="m165.911 325.001c-4.967-.346-9.237 3.426-9.568 8.379-.02.29-2.171 29.353-18.19 60.978-4.058 8.011-8.604 15.452-13.621 22.329.367 2.03 1.393 5.371 4.304 7.686 2.665 2.122 6.246 2.858 10.645 2.224 6.15-8.448 11.102-16.872 15.053-24.747 17.468-34.811 19.684-65.972 19.77-67.28.323-4.96-3.433-9.244-8.393-9.569z" fill="#fee884"/><path d="m125.822 414.889c-.002 0-.004 0-.006 0-9.538 13.483-20.861 24.835-33.91 34.032 4.553 4.11 9.264 8.046 14.118 11.809 14.584-10.988 25.927-23.49 34.7-35.864-14.627 3.044-14.902-9.977-14.902-9.977z" fill="#ffdd40"/><path d="m256.203 87.314h-.204c-1.582 0-3.119.529-4.377 1.488-17.451 13.314-36.216 4.513-52.026-3.772-5.173 2.359-13.735 7.811-13.735 18.077v31.669s.07 7.397 7.302 12.413c2.975-1.051 6.202-1.332 9.37-.675 14.167 2.938 30.585 17.217 41.449 28.165 3.167 3.191 7.484 4.969 11.98 4.969h1.105l4.307-32.776z" fill="#ffc839"/><path d="m187.862 134.776s0-16.962 0-31.669c0-9.598 7.487-14.99 12.689-17.579-1.809-.942-3.582-1.883-5.311-2.791-11.88-6.237-11.161-19.56-9.326-27.836.556-2.506-2.205-4.437-4.392-3.094l-13.619 8.362c-4.605 2.828-8.373 9.562-8.373 14.966v131.378c0 6.813 5.26 13.432 9.425 18.823l4.501 5.825c1.403 1.816 4.309.824 4.309-1.471v-57.833c0-7.615 3.036-14.918 8.437-20.29 2.345-2.332 5.244-3.987 8.357-4.812-6.635-4.996-6.697-11.979-6.697-11.979z" fill="#ffb332"/><path d="m299.666 144.004c-1.357-2.59-1.981-5.502-1.981-8.426v-28.22c0-7.943 4.844-14.859 9.387-19.6-14.601 7.229-31.169 12.891-46.696 1.044-1.257-.959-2.795-1.488-4.376-1.488v92.333c4.519 0 8.857-1.787 12.041-4.994 9.283-9.351 22.609-21.116 35.123-26.176-1.561-1.335-2.689-2.93-3.498-4.473z" fill="#ffdd40"/><path d="m344.098 60.171-13.635-8.373c-2.194-1.347-4.932.595-4.375 3.109 1.834 8.277 2.55 21.595-9.327 27.831-4.189 2.199-8.633 4.598-13.242 6.724-4.028 4.627-7.832 10.859-7.832 17.897v28.22c0 2.924.624 5.836 1.981 8.426.923 1.762 2.263 3.591 4.189 5.025 2.462-1.081 4.899-1.922 7.275-2.443 6.022-1.321 12.298.637 16.669 4.984 5.401 5.372 8.436 12.674 8.436 20.29v57.833c0 2.294 2.906 3.286 4.309 1.471l4.501-5.825c4.165-5.39 9.425-12.01 9.425-18.823v-131.38c-.002-6.105-3.172-11.772-8.374-14.966z" fill="#fee884"/><ellipse cx="256" cy="134.776" fill="#ffb332" rx="16.043" ry="19.358"/><ellipse cx="259.822" cy="130.472" fill="#ffc839" rx="8.022" ry="9.679"/><g><path d="m193.828 192.766c4.8-5.414 9.433-8.542 13.726-10.135-.843 2.033-1.315 4.389-1.289 6.898.043 4.257 1.51 8.035 3.77 10.514-3.576-.804-6.37-1.967-8.094-2.861-3.489-1.81-6.121-2.529-7.685-2.814-.651-.119-.903-1.065-.428-1.602z" fill="#deeeff"/></g><path d="m233.893 191.643c.025 2.519-.541 4.852-1.516 6.772-3.704 1.399-7.26 2.143-10.569 2.428 2.761-2.471 4.569-6.747 4.52-11.594-.018-1.831-.304-3.572-.799-5.162 2.14 1.18 3.869 2.539 5.094 3.685.899.841 2.018 1.752 3.199 2.66.039.398.067.8.071 1.211z" fill="#deeeff"/><g><path d="m233.562 190.236c2.552 1.979 5.488 3.966 7.347 5.186.501.329.307 1.225-.268 1.233l-.26.003c-2.443.033-4.869.514-7.181 1.444-.39.157-.778.3-1.165.443 1.056-1.808 1.68-4.105 1.655-6.603-.005-.583-.054-1.151-.128-1.706z" fill="#fc9460"/></g><g><path d="m226.324 184.544c.602 1.566.946 3.298.964 5.126.047 4.73-2.093 8.889-5.313 11.159-4.673.422-8.862-.061-12.297-.867-2.542-2.316-4.194-5.921-4.234-9.994-.026-2.668.643-5.155 1.809-7.224 7.804-3.018 14.505-.937 19.071 1.8z" fill="#73c3f9"/></g><g><path d="m215.524 186.601c0-1.997.598-3.821 1.583-5.228 3.596.381 6.726 1.677 9.218 3.17.602 1.566.947 3.298.965 5.126.007.705-.04 1.395-.127 2.071-1.207 1.776-3.025 2.908-5.061 2.908-3.633 0-6.578-3.603-6.578-8.047z" fill="#49b1f7"/></g><g><path d="m209.292 186.597c0 1.006.815 1.821 1.821 1.821 1.005 0 1.821-.815 1.821-1.821 0-1.005-.815-1.821-1.821-1.821s-1.821.815-1.821 1.821z" fill="#9bd8f9"/></g><path d="m444.322 110.287c-47.557 17.366-17.745 58.508-49.345 87.028-40.092 36.184-34.667 103.333 18.111 119.77 29.451 9.172 53.077 29.823 68.212 46.289 12.675-29.581 19.702-62.155 19.702-96.375 0-59.608-21.294-114.235-56.68-156.712z" fill="#ff4155"/><path d="m117.023 197.314c-31.6-28.52-1.788-69.661-49.345-87.028-35.385 42.477-56.68 97.105-56.68 156.711 0 34.22 7.026 66.794 19.702 96.375 15.135-16.466 38.761-37.117 68.212-46.289 52.777-16.435 58.203-83.585 18.111-119.769z" fill="#ff4155"/></g></svg>