<svg id="Layer_1" enable-background="new 0 0 512 512" height="512" viewBox="0 0 512 512" width="512" xmlns="http://www.w3.org/2000/svg"><g><path d="m21.81 339.171h468.38c7.024-22.817 10.812-47.053 10.812-72.174 0-135.311-109.691-245.002-245.002-245.002s-245.002 109.691-245.002 245.002c0 25.122 3.788 49.357 10.812 72.174z" fill="#856ee5"/><path d="m100.155 440.579c-6.049.104-12.241-.394-18.41-1.375 6.34 6.416 13.034 12.479 20.046 18.167-.613-5.568-1.17-11.189-1.636-16.792z" fill="#deeeff"/><path d="m57.843 411.08c7.633 10.479 16.067 20.338 25.23 29.468 5.765.799 11.533 1.169 17.165 1.006-.576-6.794-1.026-13.559-1.302-20.146-15.68-.926-29.443-5.01-41.093-10.328z" fill="#d3dcfb"/><path d="m51.667 300.281c-14.903 13.143-24.135 26.758-29.857 38.891 7.141 23.198 17.629 44.929 30.909 64.624 9.049-4.591 13.523-14.333 13.763-14.869.043-.082 7.186-14.376 25.325-51.453 12.259-25.055 2.876-46.866-5.052-58.927-10.79 4.1-22.747 10.85-35.088 21.734z" fill="#f0f8ff"/><path d="m131.237 284.151c-3.4-2.429-4.02-7.163-1.508-10.386-7.002-1.323-23.609-2.926-44.343 5.316 7.789 11.654 17.179 32.989 5.074 57.732-18.347 37.5-25.347 51.5-25.347 51.5s-4.38 9.778-13.231 14.209c2.414 3.629 4.915 7.195 7.514 10.684 11.842 5.081 25.739 8.819 41.506 9.338-1.302-32.883 1.823-61.144 15.432-66.081 35.333-12.817 48.867-29.155 48.867-29.155-8.096-22.134-24.536-36.42-33.964-43.157z" fill="#deeeff"/><path d="m345.35 242.611c-6.937-4.484-14.683-4.997-14.683-4.997h-26.91c.631 6.683 1.901 13.991 4.372 20.481 2.702 7.097 10.669 12.451 17.99 14.47 5.927 1.634 11.705 3.533 17.386 5.658 6.042-4.598 10.329-10.226 10.329-16.942-.001-9.208-4.12-15.056-8.484-18.67z" fill="#4b6bb2"/><path d="m185.882 272.565c7.32-2.019 15.288-7.373 17.99-14.47 2.471-6.49 3.741-13.798 4.372-20.481h-26.91c-4.708 0-8.864 1.18-12.406 2.867.356-.079.709-.161 1.071-.235-.095.057-.19.114-.285.173-5.268 3.242-11.547 9.492-11.547 20.861 0 6.716 4.287 12.345 10.329 16.943 5.681-2.125 11.459-4.024 17.386-5.658z" fill="#2a428c"/><path d="m254.842 0c-3.06 3.056-11.037 12.202-11.886 25.272-.676 10.382 3.333 20.706 11.915 30.704-.533.474-1.223 1.112-2.022 1.897 4.762.431 9.592-.104 14.178-1.629 11.013-3.663 28.284-7.331 42.363-.996 16.571 7.457 15.183 30.267 14.269 42.89-.318 4.389.725 8.79 3.097 12.512 1.4 2.197 2.512 4.527 3.394 6.827 1.096 2.86 1.876 7.693 2.358 10.693 2.543-1.232 8.058-2.575 11.168-2.135.381-13.196 1.599-29.3 1.599-29.3 13.284-65.069-40.568-96.75-90.433-96.735z" fill="#ad5c38"/><path d="m257 .022c-5.907-.106-11.772.227-17.479 1.005-49.485 6.742-54.188 34.799-54.21 45.092-.005 2.159-1.201 4.159-3.142 5.104-25.74 12.522-11.862 74.751-11.862 74.751 2.585.173 7.169 1.219 9.187 2.197.494-3.075 1.301-7.981 2.44-10.908.868-2.23 1.953-4.483 3.31-6.611 2.354-3.693 3.426-8.05 3.106-12.405-.925-12.59-2.358-35.52 14.261-42.998 14.079-6.335 31.349-2.667 42.363.996 3.216 1.069 6.553 1.631 9.901 1.739 1.308-1.213 2.125-1.854 2.125-1.854-28.384-31.682-.009-56.1 0-56.108z" fill="#9b4d2f"/><path d="m326.118 270.565c-7.321-2.019-13.288-7.373-15.99-14.47-3.435-9.022-4.571-19.645-4.857-27.936-4.976 5.797-10.2 10.645-15.19 14.521-9.639 7.485-21.514 11.575-33.758 11.646l4.157 8.769c.373 1.388 4.548 18.904-13.339 45.688-.536.803-1.105 1.58-1.7 2.332h36.736c4.136 0 8.083-1.55 11.113-4.363l11.633-10.803c1.575-1.462 3.497-2.531 5.559-3.091 8.61-2.34 24.754-7.574 34.727-16.003-6.229-2.391-12.573-4.492-19.091-6.29z" fill="#ffaa7b"/><path d="m221.919 242.68c-4.991-3.876-10.214-8.725-15.191-14.521-.285 8.291-1.422 18.914-4.857 27.936-2.702 7.097-8.669 12.451-15.99 14.47-6.518 1.798-12.863 3.899-19.089 6.289 9.973 8.429 26.117 13.663 34.726 16.003 2.062.56 3.983 1.629 5.559 3.091l11.633 10.803c3.03 2.813 6.978 4.363 11.113 4.363h17.502c.364-.491.72-.989 1.061-1.499 19.167-28.7 13.5-47.05 13.5-47.05l-3.921-8.272c-.655.023-1.31.041-1.966.041-12.357-.002-24.356-4.103-34.08-11.654z" fill="#fc9460"/><path d="m349.236 125.87c-3.854-3.532-12.471-1.742-15.79.421.727 4.529.769 9.161.14 13.736l-3.917 28.53c0 2.3-.073 4.556-.206 6.773 9.552 2.881 15.236-5.694 16.035-11.579.344-2.533.907-5.03 1.687-7.467 2.541-7.935 11.707-21.565 2.051-30.414z" fill="#ffaa7b"/><path d="m162.764 125.87c3.854-3.532 12.471-1.742 15.79.421-.727 4.529-.769 9.161-.14 13.736l3.917 28.53c0 2.3.073 4.556.206 6.773-9.552 2.881-15.236-5.694-16.035-11.579-.344-2.533-.906-5.03-1.687-7.467-2.541-7.935-11.708-21.565-2.051-30.414z" fill="#fc9460"/><path d="m332.027 117.477c-.882-2.3-1.993-4.63-3.394-6.827-2.372-3.721-3.415-8.123-3.097-12.512.915-12.623.424-37.312-16.147-44.768-14.078-6.335-31.348-2.667-42.361.995-3.981 1.324-8.147 1.883-12.292 1.733-5.694 5.106-27.264 26.855-17.955 55.776l4.605 9.907c-1.601 2.289-5.403 9.137-.678 17.285l-.016.06c-.536.76-2 3.06-2.729 6.42-.798 3.674-.848 9.374 3.357 15.805l3.734 39.001 8.598 5.556c-1.129 2.428-1.645 6.268 1.691 9.483v48.18c.219.002.437.013.656.013 12.358 0 24.357-4.101 34.081-11.652 18.628-14.465 40.528-42.35 40.528-83.375l3.917-28.53c1.045-7.606.253-15.374-2.498-22.55z" fill="#ffc7ab"/><path d="m256.843 214.726c-4.919-4.151-1.181-9.307-1.181-9.307l-9.182-5.933-3.702-38.651c-7.984-11.854-.708-21.049-.708-21.049l.253-.946c-5.877-9.412.805-16.873.805-16.873l-4.919-10.551c-10.429-32.4 18.791-55.287 18.791-55.287-.006-.007-.011-.013-.017-.019-4.053.114-8.12-.451-12.011-1.745-11.013-3.662-28.282-7.33-42.361-.995-16.619 7.478-17.065 32.286-16.139 44.876.32 4.355-.752 8.712-3.106 12.405-1.357 2.129-2.442 4.381-3.31 6.611-2.816 7.233-3.637 15.078-2.582 22.759l3.918 28.536c0 41.025 21.9 68.91 40.528 83.375 9.723 7.551 21.722 11.652 34.08 11.652.282 0 .562-.013.843-.017z" fill="#ffaa7b"/><path d="m411.844 440.579c-.466 5.603-1.023 11.224-1.637 16.792 7.013-5.688 13.706-11.751 20.047-18.167-6.169.981-12.361 1.479-18.41 1.375z" fill="#deeeff"/><path d="m411.762 441.554c5.632.164 11.4-.206 17.165-1.006 9.163-9.13 17.596-18.989 25.229-29.468-11.65 5.318-25.413 9.402-41.092 10.328-.276 6.588-.726 13.352-1.302 20.146z" fill="#d3dcfb"/><path d="m460.333 300.281c-12.342-10.884-24.299-17.633-35.088-21.735-7.928 12.062-17.311 33.872-5.052 58.927 18.14 37.077 25.282 51.371 25.325 51.453.24.537 4.714 10.278 13.763 14.869 13.28-19.695 23.767-41.426 30.909-64.624-5.722-12.132-14.954-25.747-29.857-38.89z" fill="#f0f8ff"/><path d="m452.605 413.207c2.599-3.489 5.1-7.055 7.514-10.684-8.852-4.431-13.231-14.209-13.231-14.209s-7-14-25.347-51.5c-12.106-24.743-2.716-46.078 5.074-57.732-20.733-8.242-37.34-6.639-44.343-5.316 2.512 3.223 1.891 7.956-1.508 10.386-9.429 6.737-25.869 21.023-33.963 43.157 0 0 13.534 16.338 48.867 29.155 13.61 4.937 16.734 33.198 15.432 66.081 15.766-.519 29.663-4.257 41.505-9.338z" fill="#deeeff"/><path d="m326.895 476.134c-7.937-8.618-19.118-13.52-30.833-13.52-8.617 0-29.711 0-51.243 0 .571.727 1.154 1.455 1.76 2.181-1.646 3.082-6.831 13.42-9.688 26.303-1.585 7.144-2.146 13.835-1.728 20.01 6.869.58 13.816.892 20.837.892 32.476 0 63.469-6.334 91.831-17.81-3.579-.928-6.927-2.846-9.583-5.729z" fill="#4b6bb2"/><path d="m246.735 462.614c-17.551 0-35.632 0-47.687 0-11.716 0-22.896 4.902-30.833 13.52l-11.354 12.327c-.6.651-1.245 1.238-1.911 1.792 25.235 11.44 52.754 18.724 81.683 20.987-1.603-23.191 11.755-46.625 11.755-46.625-.569-.667-1.115-1.334-1.653-2.001z" fill="#2a428c"/><path d="m398.667 355.464c-35.333-12.817-48.867-29.155-48.867-29.155h-1.051c-.687.974-1.572 1.804-2.606 2.427l-41.038 24.728c-1.88 4.531-6.302 7.483-11.207 7.483-12.131 0-32.43 0-49.394 0 .601.708 1.233 1.415 1.906 2.122-2.599 3.52-10.735 15.411-15.22 31.868-4.824 17.703-6.03 44.068 15.242 69.677h49.629c11.716 0 22.896 4.902 30.833 13.52l11.354 12.327c1.97 2.139 4.322 3.748 6.865 4.819 24.216-9.46 46.558-22.659 66.315-38.892 4.882-45.505 5.534-94.287-12.761-100.924z" fill="#bec8f7"/><path d="m246.5 360.947c-12.4 0-23.305 0-28.398 0-4.905 0-9.327-2.953-11.207-7.483l-41.038-24.728c-1.034-.623-1.919-1.453-2.606-2.427h-1.051s-13.533 16.338-48.867 29.155c-18.295 6.637-17.644 55.419-12.762 100.924 16.876 13.866 35.64 25.514 55.845 34.514.146-.149.301-.286.443-.44l11.354-12.327c7.937-8.618 19.118-13.52 30.833-13.52h49.34c-42-49.2 0-101.667 0-101.667-.664-.667-1.288-1.333-1.886-2.001z" fill="#a8b7ef"/><path d="m183.822 305.684c-9.196-4.439-27.834-14.415-38.723-26.982-4.327-4.994-5.769-11.383-4.598-17.295l-1.646-1.569-11.679 12.398c-3.026 3.212-2.529 8.35 1.061 10.916 9.429 6.737 25.869 21.022 33.963 43.157.676 1.849 1.971 3.411 3.657 4.427l41.038 24.729h2l-17.201-41.46c-1.514-3.648-4.316-6.604-7.872-8.321z" fill="#d3dcfb"/><path d="m328.178 305.684c9.196-4.439 27.834-14.415 38.723-26.982 4.327-4.994 5.769-11.383 4.598-17.295l1.646-1.569 11.679 12.398c3.026 3.212 2.529 8.35-1.061 10.916-9.429 6.737-25.869 21.022-33.963 43.157-.676 1.849-1.97 3.411-3.657 4.427l-41.038 24.729h-2l17.201-41.46c1.513-3.648 4.315-6.604 7.872-8.321z" fill="#d3dcfb"/><path d="m365.201 248.692c-7.916-5.544-19.565-11.078-34.535-11.078 0 0 21.667 3 21.667 23.666 0 17.202-31.638 27.245-42.247 30.129-2.312.628-4.429 1.808-6.185 3.439l-11.633 10.803c-2.744 2.547-6.349 3.963-10.093 3.963-11.928 0-23.848 0-35.769 0-4.358 5.265-22.332 29.85-.108 53.333h47.6c4.905 0 9.327-2.953 11.207-7.483l17.201-41.46c1.513-3.648 4.315-6.603 7.872-8.32 9.196-4.439 27.834-14.415 38.723-26.982 7.942-9.168 6.235-23.051-3.7-30.01z" fill="#f0f8ff"/><path d="m229.824 309.614c-3.744 0-7.349-1.416-10.093-3.963l-11.633-10.803c-1.756-1.63-3.873-2.81-6.185-3.439-10.608-2.884-42.246-12.927-42.246-30.129 0-20.666 21.667-23.666 21.667-23.666-14.969 0-26.619 5.533-34.535 11.078-9.935 6.959-11.642 20.842-3.699 30.01 10.888 12.567 29.527 22.543 38.723 26.982 3.556 1.717 6.358 4.672 7.872 8.32l17.201 41.46c1.88 4.531 6.302 7.483 11.207 7.483h30.286c-25.933-25.933 0-53.333 0-53.333-6.188 0-12.379 0-18.565 0z" fill="#deeeff"/><path d="m362.798 381.614h-27.767s-5.824 5.336 0 11.159v39.422s-5.824 5.336 0 11.16h27.767c6.11 0 11.109-4.999 11.109-11.109v-39.522c.001-6.111-4.999-11.11-11.109-11.11z" fill="#deeeff"/><path d="m336.031 381.614h-25.823c-6.11 0-11.109 4.999-11.109 11.109v39.522c0 6.11 4.999 11.109 11.109 11.109h25.823c-5.824-5.824 0-11.16 0-11.16v-39.422c-5.824-5.822 0-11.158 0-11.158z" fill="#d3dcfb"/><path d="m319.915 392.774h-6.996c-1.285 0-2.326 1.041-2.326 2.326v24.515h11.648v-24.515c-.001-1.285-1.042-2.326-2.326-2.326z" fill="#bec8f7"/><path d="m339.529 432.196h-6.996c-1.284 0-2.326-1.041-2.326-2.326v-23.956h11.648v23.956c0 1.285-1.041 2.326-2.326 2.326z" fill="#fb7ac0"/><path d="m339.529 392.774h-6.996c-1.284 0-2.326 1.041-2.326 2.326v12.015h11.648v-12.015c0-1.285-1.041-2.326-2.326-2.326z" fill="#bec8f7"/><path d="m359.144 432.196h-6.996c-1.284 0-2.326-1.041-2.326-2.326v-34.771c0-1.284 1.041-2.326 2.326-2.326h6.996c1.284 0 2.326 1.041 2.326 2.326v34.771c0 1.285-1.042 2.326-2.326 2.326z" fill="#ffdd40"/><path d="m319.915 432.196h-6.996c-1.285 0-2.326-1.041-2.326-2.326v-10.815h11.648v10.815c-.001 1.285-1.042 2.326-2.326 2.326z" fill="#73c3f9"/><path d="m284.497 134.057c0-1.435.269-2.8.748-4.041-1.865.915-3.371 1.952-4.443 2.827-2.502 2.04-6.851 4.629-9.233 5.996-.45.259-.266.946.253.946h.235c2.21 0 4.408.345 6.507 1.036 3.641 1.199 7.124 1.796 10.345 1.992-2.647-1.814-4.412-5.055-4.412-8.756z" fill="#edeef2"/><path d="m314.12 136.302c-4.35-4.081-8.531-6.435-12.397-7.627.87 1.566 1.372 3.409 1.372 5.383 0 3.225-1.342 6.101-3.438 7.989 3.165-.654 5.637-1.564 7.167-2.261 3.139-1.429 5.513-2.011 6.924-2.247.588-.098.807-.83.372-1.237z" fill="#edeef2"/><path d="m284.661 130.313c-.53 1.212-.826 2.549-.826 3.956 0 3.641 1.972 6.82 4.904 8.534 4.23.276 8.013-.14 11.113-.797 2.278-1.81 3.74-4.602 3.74-7.737 0-2.054-.627-3.961-1.7-5.542-7.085-2.24-13.126-.568-17.231 1.586z" fill="#73c3f9"/><path d="m297.398 134.889c0 2.091-1.695 3.786-3.786 3.786s-3.786-1.695-3.786-3.786 1.695-3.786 3.786-3.786 3.786 1.695 3.786 3.786z" fill="#49b1f7"/><path d="m322.488 122.279c-.566-3.72-2.82-12.365-11.615-14.364-8.881-2.019-27.609 1.786-35.191 3.5-2.02.456-3.621 1.993-4.163 3.992l-1.562 5.76c-.133.489.318.936.806.799 5.748-1.613 32.217-8.771 40.281-6.184 6.149 1.972 9.307 5.046 10.703 6.82.265.336.806.1.741-.323z" fill="#ad5c38"/><path d="m229.394 134.057c0-1.435-.268-2.8-.748-4.041 1.865.915 3.371 1.952 4.443 2.827 2.502 2.04 6.851 4.629 9.233 5.996.45.259.266.946-.253.946h-.235c-2.21 0-4.408.345-6.507 1.036-3.641 1.199-7.124 1.796-10.345 1.992 2.647-1.814 4.412-5.055 4.412-8.756z" fill="#edeef2"/><path d="m199.771 136.302c4.35-4.081 8.531-6.435 12.397-7.627-.87 1.566-1.372 3.409-1.372 5.383 0 3.225 1.341 6.101 3.438 7.989-3.165-.654-5.637-1.564-7.167-2.261-3.139-1.429-5.513-2.011-6.924-2.247-.587-.098-.807-.83-.372-1.237z" fill="#edeef2"/><path d="m229.23 130.313c.53 1.212.826 2.549.826 3.956 0 3.641-1.972 6.82-4.904 8.534-4.23.276-8.013-.14-11.113-.797-2.278-1.81-3.74-4.602-3.74-7.737 0-2.054.627-3.961 1.7-5.542 7.085-2.24 13.126-.568 17.231 1.586z" fill="#73c3f9"/><path d="m216.493 134.889c0 2.091 1.695 3.786 3.786 3.786s3.786-1.695 3.786-3.786-1.695-3.786-3.786-3.786-3.786 1.695-3.786 3.786z" fill="#49b1f7"/><path d="m191.402 122.279c.566-3.72 2.82-12.365 11.615-14.364 8.881-2.019 27.609 1.786 35.191 3.5 2.02.456 3.621 1.993 4.163 3.992l1.562 5.76c.133.489-.318.936-.806.799-5.748-1.613-32.217-8.771-40.281-6.184-6.149 1.972-9.307 5.046-10.703 6.82-.264.336-.805.1-.741-.323z" fill="#9b4d2f"/><path d="m139.214 289.977c-6.41 2.72-13.88-.3-16.599-6.71l-4.538-10.696c-2.72-6.41.3-13.88 6.71-16.6 6.41-2.72 13.88.3 16.6 6.71l4.538 10.696c2.718 6.41-.301 13.88-6.711 16.6z" fill="#4b6bb2"/><path d="m372.786 289.977c6.41 2.72 13.88-.3 16.599-6.71l4.538-10.696c2.72-6.41-.3-13.88-6.71-16.6-6.41-2.72-13.88.3-16.6 6.71l-4.538 10.696c-2.719 6.41.301 13.88 6.711 16.6z" fill="#4b6bb2"/><path d="m308.74 201.433c-2.179-12.989-11.55-25.995-24.062-28.833l-1.736-.51c-2.999 2.607-12.713 12.302-7.082 24.148 7.867 2.695 14.737 7.586 19.835 14.019-1.259 5.601-5.21 14.111-17.451 18.436-2.485.878-5.035 1.007-7.417.538-.735 2.184-3.559 11.794.498 19.997 1.95 3.943 5.198 6.911 9.635 8.888 18.415-10.128 40.61-27.648 48.11-67.782.669-3.581 1.009-7.222 1.009-10.865-3.098 7.646-9.538 16.844-21.339 21.964z" fill="#ad5c38"/><path d="m272.341 229.444c-6.145-.525-11.526-5.059-12.326-11.564-.013-.111-.026-.222-.039-.335-.173-1.594-1.507-2.82-3.132-2.82-1.625 0-2.96 1.225-3.132 2.82-.012.113-.025.224-.038.335-1.052 8.55-10.015 13.716-18.229 10.814-11.301-3.993-16.163-11.556-18.252-17.101 6.123-8.376 15.139-14.385 25.516-16.676l3.416-.754c4.979-1.099 8.829-5.96 10.241-11.138.162-.595 1.007-.595 1.169 0 1.412 5.178 5.262 10.039 10.24 11.138l3.416.754c2.33.514 4.588 1.222 6.764 2.096-.011-.02-.02-.04-.031-.06-7.799-13.527 6.756-24.353 6.756-24.353l-19.124-5.619c-3.324-.977-6.653.729-7.992 3.624-.244.529-.983.529-1.228 0-1.339-2.895-4.668-4.601-7.992-3.624l-19.124 5.619c-12.759 2.893-22.259 16.36-24.189 29.602-13.054-4.923-19.849-14.688-23.107-22.732v.003c0 3.638.339 7.274 1.007 10.851 8.124 43.541 33.446 60.469 52.587 70.224 12.815 6.531 28.016 6.536 40.834.01 2.023-1.03 4.12-2.147 6.256-3.361-17.261-6.752-10.861-26.075-10.267-27.753z" fill="#9b4d2f"/><path d="m277.922 196.953-8.353-3.294c-.939-.37-1.977-.413-2.944-.122l-9.626 2.903-9.625-2.903c-.967-.291-2.005-.249-2.944.122l-8.353 3.294c-2.308.91-3.441 3.518-2.531 5.826.908 2.301 3.511 3.443 5.826 2.531l6.902-2.721 9.387 2.831c.909.284 1.858.264 2.678-.001l9.386-2.83 6.902 2.721c2.304.906 4.913-.217 5.826-2.531.909-2.308-.224-4.916-2.531-5.826z" fill="#fc9460"/><path d="m282.221 164.426c-.623-.954-1.578-1.608-2.69-1.843l-8.311-1.75c-1.948-.41-3.688.348-4.537 1.979-.028.053-.058.105-.091.156-1.933 2.989-5.519 4.774-9.593 4.774-4.073 0-7.658-1.785-9.591-4.775-.032-.049-.061-.099-.089-.154-.852-1.632-2.59-2.389-4.54-1.98l-8.311 1.749c-2.299.484-3.775 2.748-3.291 5.047.482 2.296 2.745 3.773 5.049 3.292l4.631-.975c.635-.132 1.282.063 1.735.51 3.906 3.858 9.156 5.787 14.409 5.787 5.251-.001 10.504-1.929 14.409-5.786.457-.451 1.105-.643 1.735-.51l4.633.975c2.297.481 4.563-.994 5.047-3.292.232-1.111.018-2.249-.604-3.204z" fill="#fc9460"/><g fill="#9787f4"><path d="m402.052 70.277c-11.262 14.511-28.144 33.37-19.052 62.523 13.061 41.879-35.68 70.18 12.221 102.725 35.044 23.81 82.836 19.585 105.238 47.731.353-5.375.543-10.794.543-16.258 0-80.58-38.905-152.068-98.95-196.721z"/><path d="m109.948 70.277c11.262 14.511 28.144 33.37 19.052 62.523-13.061 41.879 35.68 70.18-12.221 102.725-35.044 23.81-82.836 19.585-105.238 47.731-.353-5.375-.543-10.794-.543-16.258 0-80.58 38.904-152.068 98.95-196.721z"/></g></g></svg>