<svg id="Layer_1" enable-background="new 0 0 512 512" height="512" viewBox="0 0 512 512" width="512" xmlns="http://www.w3.org/2000/svg"><g><path d="m53.694 405.212 404.6.016c26.939-39.347 42.708-86.945 42.708-138.231 0-135.311-109.691-245.002-245.002-245.002s-245.002 109.691-245.002 245.002c0 51.28 15.764 98.871 42.696 138.215z" fill="#856ee5"/><path d="m320.78 340.808c.119-6.187.579-12.428 1.22-18.427 2.166-20.284 14.98-32.041 25.113-38.277-.501-2.047-1.05-4.13-1.658-6.258-1.382-4.839-2.591-9.451-3.659-13.868-16.713 11.969-33.834 22.684-44.411 29.084-1.124 6.774-1.854 13.348-2.273 19.732 6.929 9.401 15.387 18.956 25.668 28.014z" fill="#543e5b"/><path d="m344.537 358.47c5.898-21.13 10.329-43.566 2.316-75.402-10.344 5.93-24.561 17.85-26.853 39.314-.581 5.438-1.012 11.074-1.178 16.689 7.513 6.817 16.051 13.371 25.715 19.399z" fill="#6c5475"/><path d="m152.403 438.918c-1.537 20.339-5.768 35.499-9.866 45.258l75.07 24.822.005.003c9.166 1.443 18.504 2.367 27.978 2.763h20.819c9.934-.415 19.715-1.421 29.309-2.986l75.033-25.288c22.166-11.777 42.318-26.844 59.783-44.572z" fill="#49b1f7"/><path d="m81.466 438.918c17.802 18.07 38.392 33.382 61.065 45.256l1.374.454c3.862-9.094 8.424-24 10.016-45.71z" fill="#3d9cea"/><path d="m414.589 356.297c-6.245-2.663-11.843-4.11-15.865-4.882 0 0-31.57-5.763-59.391-17.103-13.968 13.003-48.422 41.252-84.142 41.252-10.683 0-21.293-2.535-31.303-6.425l-.871 1.669c-.018 0-.034 0-.052 0-6.17 0-38.236.904-56.865 19.089-8.685 8.478-13.089 19.482-13.089 32.706 0 6.525-.28 12.626-.767 18.315h276.304c9.263-9.19 17.788-19.119 25.496-29.684z" fill="#73c3f9"/><path d="m153.773 440.918c.468-5.626.738-11.722.738-18.315 0-51.961 69.41-50.287 69.41-50.287l1.378-2.64c-23.509-8.781-43.866-25.286-54.254-34.711-27.411 10.909-57.771 16.45-57.771 16.45-12.293 2.361-39.273 10.946-54.646 41.691-1.82 3.64-3.459 7.698-4.935 12.107 8.784 12.833 18.753 24.788 29.757 35.706h70.323z" fill="#49b1f7"/><path d="m217.608 508.998v-35.157h-25.998c-7.444 0-13.5 6.056-13.5 13.5v11.997c12.731 4.268 25.928 7.524 39.498 9.66z" fill="#3c58a0"/><path d="m179.61 487.341c0-6.6 5.4-12 12-12h25.998v-26.009c0 6.6-5.4 12-12 12h-51.096c-6.6 0-12-5.4-12-12v34.835c11.83 6.195 24.231 11.445 37.098 15.666z" fill="#2a428c"/><path d="m332.919 487.341v12.31c13.159-4.348 25.828-9.77 37.894-16.182v-9.628h-24.394c-7.444 0-13.5 6.056-13.5 13.5z" fill="#3c58a0"/><path d="m334.419 487.341c0-6.6 5.4-12 12-12h24.394v-26.009c0 6.6-5.4 12-12 12h-51.096c-6.6 0-12-5.4-12-12v59.446c13.291-2.167 26.221-5.404 38.702-9.618z" fill="#2a428c"/><path d="m358.813 422.603h-17.788c-4.773 1.746-8.21 6.328-8.21 11.686v17.357c0 5.358 3.437 9.941 8.21 11.686h17.788c6.6 0 12-5.4 12-12v-16.729c0-6.6-5.4-12-12-12z" fill="#4b6bb2"/><path d="m333.265 451.332v-16.729c0-6.6 5.4-12 12-12h-37.548c-6.6 0-12 5.4-12 12v16.729c0 6.6 5.4 12 12 12h37.548c-6.6 0-12-5.4-12-12z" fill="#3c58a0"/><path d="m297.833 297.22c0-5.814 0-4.072 0-7.836-10.136 9.061-27.518 20.607-41.833 20.953-1.179-.029-2.38-.14-3.594-.312.782 1.473 1.696 2.933 2.784 4.364.108 2.854-.041 18.429-15.552 25.281l-.48.212-11.03 21.135c8.745 2.997 17.878 4.872 27.065 4.872 30.523 0 60.123-20.629 76.807-34.745-18.767-8.614-34.167-19.943-34.167-33.924z" fill="#ffaa7b"/><path d="m256.662 313.842c-.928-1.186-1.728-2.392-2.432-3.609-13.955-1.188-30.341-12.157-40.063-20.849v7.836c0 14.336-16.195 25.88-35.606 34.573 12.132 10.02 30.562 23.025 51.007 29.706l10.677-20.457c17.968-7.939 16.417-27.2 16.417-27.2z" fill="#fc9460"/><path d="m313.334 314.236c-10.799 11.007-25.625 19.618-38.785 25.262-11.3 4.847-18.686 15.881-18.686 28.177v12.313s45.559-3.126 85.045-40.221c1.931-1.814 2.07-4.844.322-6.836l-16.197-18.454c-3.072-3.501-8.437-3.566-11.699-.241z" fill="#ffdd40"/><path d="m238.548 340.147c-4.596 2.148-20.686 11.189-16.474 30.892-.328.045-.711.102-1.119.163 20.073 7.764 34.908 8.786 34.908 8.786v-12.313c0-11.787-6.798-22.399-17.315-27.528z" fill="#ffc839"/><path d="m240.244 341.042c-.99-.561-2.005-1.088-3.067-1.543-13.16-5.645-27.986-14.255-38.785-25.262-3.262-3.325-8.627-3.26-11.699.241l-16.197 18.454c-1.748 1.992-1.609 5.021.322 6.836 18.081 16.987 37.433 26.847 53.103 32.55-6.004-22.73 15.797-31.078 16.323-31.276z" fill="#ffb332"/><path d="m256.02 432.435h-.041c-4.579 0-8.525 2.66-10.409 6.514v72.816c3.46.145 6.934.236 10.43.236s6.97-.091 10.43-.236v-72.816c-1.884-3.855-5.83-6.514-10.41-6.514z" fill="#3d9cea"/><path d="m256 401.321c-4.19 0-7.949-1.935-10.43-4.955v44.524c1.28-4.55 5.451-7.89 10.411-7.89h.038c4.96 0 9.13 3.34 10.411 7.89v-44.524c-2.481 3.02-6.24 4.955-10.43 4.955z" fill="#3b8be2"/><path d="m256 403.322c-7.425 0-13.5-6.075-13.5-13.5v-18c0-7.425 6.075-13.5 13.5-13.5 7.425 0 13.5 6.075 13.5 13.5v18c0 7.424-6.075 13.5-13.5 13.5z" fill="#deeeff"/><path d="m457.805 405.934-28.544-41.405h.001c-4.998-3.577-10.017-6.247-14.673-8.232-5.978 7.42-9.564 16.85-9.564 27.121 0 21.819 16.151 39.857 37.148 42.832 5.554-6.486 10.771-13.268 15.632-20.316z" fill="#deeeff"/><path d="m453.371 393.106c-6.593-13.185-15.321-22.286-24.109-28.577-4.81 4.847-7.784 11.52-7.784 18.889 0 14.811 12.007 26.819 26.819 26.819 2.494 0 4.905-.347 7.195-.986.949-1.329 1.88-2.673 2.803-4.022-1.475-4.408-3.105-8.485-4.924-12.123z" fill="#d3dcfb"/><path d="m413.506 339.283c-2.826-.825-5.66-1.512-8.481-2.054l-.156-.029c-.133-.024-9.283-1.712-21.83-5.004-2.989 1.535-9.03 5.371-12.047 12.48-2.57 6.057-2.317 13.028.736 20.729 14.525 3.911 25.493 5.974 26.761 6.208 1.022.197 2.293.476 3.753.864 3.806 1.01 7.769-.978 9.192-4.65l7.114-18.357c1.632-4.215-.703-8.919-5.042-10.187z" fill="#3c58a0"/><path d="m205.608 422.603h-17.788c-4.773 1.746-8.21 6.328-8.21 11.686v17.357c0 5.358 3.437 9.941 8.21 11.686h17.788c6.6 0 12-5.4 12-12v-16.729c0-6.6-5.4-12-12-12z" fill="#4b6bb2"/><path d="m180.06 451.332v-16.729c0-6.6 5.4-12 12-12h-37.548c-6.6 0-12 5.4-12 12v16.729c0 6.6 5.4 12 12 12h37.548c-6.6 0-12-5.4-12-12z" fill="#3c58a0"/><path d="m385.325 332.787c-6.414-1.639-13.875-3.727-21.559-6.261l-9.307-3.068c-4.039-1.332-8.393.863-9.725 4.902l-6.137 18.613c-1.332 4.039.863 8.393 4.902 9.725l9.307 3.068c7.309 2.41 14.399 4.449 20.734 6.123-10.483-24.59 11.784-33.102 11.785-33.102z" fill="#2a428c"/><path d="m98.482 339.283c2.826-.825 5.66-1.512 8.481-2.054l.156-.029c.133-.024 9.283-1.712 21.83-5.004 2.989 1.535 9.03 5.371 12.047 12.48 2.57 6.057 2.317 13.028-.736 20.729-14.525 3.911-25.493 5.974-26.761 6.208-1.022.197-2.293.476-3.753.864-3.806 1.01-7.769-.978-9.192-4.65l-7.114-18.357c-1.632-4.215.703-8.919 5.042-10.187z" fill="#3c58a0"/><path d="m126.663 332.787c6.414-1.639 13.875-3.727 21.559-6.261l9.307-3.068c4.039-1.332 8.393.863 9.725 4.902l6.137 18.613c1.332 4.039-.863 8.393-4.902 9.725l-9.307 3.068c-7.309 2.41-14.399 4.449-20.734 6.123 10.483-24.59-11.784-33.102-11.785-33.102z" fill="#2a428c"/><path d="m347.633 240.526-183.266-14.066v-41.791h183.266z" fill="#3c58a0"/><path d="m329.667 141.249c-.296-9.915-2.8-34.185-19.619-45.384-9.034-6.016-20.849-7.419-35.233-4.229-.318.423-.631.862-.935 1.33-3.247 1.914-27.702 16.73-33.161 31.813-1.464.693-4.855 2.651-6.367 6.458-1.251 3.149-.92 6.746.981 10.695l1.631 58.455c-.994 3.606-1.013 10.966 5.365 15.399l-1.069 7.975c-1.109 1.893-6.086 11.775 1.704 25.32l9.834 10.359c-.536.771-1.083 1.877-1.134 3.231-.057 1.501.5 2.931 1.657 4.256v7.492c-1.438 2.897-10.546 22.83 1.437 39.365 5.225.291 10.506-.613 15.379-2.722 19.126-8.275 34.656-21.924 44.91-39.474 10.1-17.283 17.982-38.227 23.435-62.293 2.361-15.006 4.874-48.771-5.778-60.775-1.909-2.151-2.96-4.667-3.037-7.271z" fill="#ffc7ab"/><path d="m241.921 125.89c5.098-15.674 33.028-31.813 33.028-31.813.717-1.139 1.451-2.1 2.193-2.91-5.292 1.008-10.934 2.641-16.944 4.945-2.282.875-4.795.875-7.077 0-21.147-8.107-37.919-8.191-49.848-.249-16.819 11.199-19.323 35.47-19.619 45.385-.077 2.606-1.128 5.12-3.04 7.273-10.532 11.868-8.225 46.542-5.768 60.817 5.442 24.019 13.324 44.962 23.425 62.25 10.255 17.55 25.785 31.199 44.91 39.474 4.284 1.853 8.882 2.779 13.479 2.779-13.613-17.388-1.842-39.062-1.842-39.062v-8.445c-3.737-3.737 0-6.948 0-6.948l-10.557-11.055c-8.136-14.147-1.56-24.059-1.56-24.059l1.238-9.23c-8.326-5.021-5.473-14.468-5.473-14.468l-1.646-59.013c-5.823-11.662 5.101-15.671 5.101-15.671z" fill="#ffaa7b"/><path d="m374.176 94.077h-.544c.058.723.093 1.448.093 2.176v109.02h.451c13.732 0 24.967-11.235 24.967-24.967v-61.262c0-13.732-11.235-24.967-24.967-24.967z" fill="#73c3f9"/><path d="m330.691 127.58c.333-4.592.49-10.673-.136-17.016h-79.84c-4.42 4.42-8.218 9.302-9.996 14.215-1.464.693-4.855 2.651-6.367 6.458-1.251 3.149-.92 6.746.981 10.695l.111 3.965h101.185c-.748-1.655-1.604-3.299-2.611-4.878-2.548-3.997-3.669-8.725-3.327-13.439z" fill="#4b6bb2"/><path d="m236.824 141.565c-5.827-11.666 5.098-15.674 5.098-15.674 1.713-5.267 6.008-10.585 10.952-15.327h-71.428c-.631 6.397-.466 12.526-.127 17.132.344 4.678-.808 9.358-3.336 13.325-1.006 1.579-1.865 3.223-2.613 4.877h61.575z" fill="#3c58a0"/><path d="m340.435 194.088 1.365-.549c.089-.629.152-1.266.152-1.918v-35.509c0-8.035-6.513-14.548-14.548-14.548h-42.27z" fill="#bbe8fc"/><path d="m248.25 141.564h-14.265c-3.646 2.929-6.645 6.527-7.838 10.857-1.179 4.276-.486 8.759 2.06 13.399 2.586 4.713 3.42 10.146 2.225 15.387-1.33 5.835-.396 13.227 6.652 20.387 1.504-1.012 2.879-2.204 4.087-3.549 3.611-4.02 8.641-6.476 14.045-6.476h1.892c5.244 0 10.124 2.4 13.593 6.332 3.983 4.513 9.796 7.373 16.255 7.373h25.652l1.912-.768z" fill="#73c3f9"/><path d="m287.077 141.565h-41.548l67.078 63.71h15.693c6.856 0 12.559-5.128 13.5-11.734z" fill="#9bd8f9"/><path d="m236.824 141.565h-52.227c-8.035 0-14.548 6.513-14.548 14.548v35.509c0 7.509 6.143 13.652 13.652 13.652h41.344c5.063 0 9.726-1.762 13.426-4.696-6.781-6.781-7.512-13.402-6.47-18.42 1.212-5.837.528-11.973-2.327-17.207-5.713-10.471-.25-18.167 7.15-23.386z" fill="#49b1f7"/><path d="m324.077 71.044c-5.603-1.201-24.008-3.416-32.32 16.634-1.791-1.03-4.841-2.305-8.354-1.759-3.653.571-6.856 2.94-9.523 7.046-3.034 1.789-24.58 14.842-31.848 28.852h13.968 49.272c2.46 0 4.861.506 7.083 1.434h12.74c2.014 0 3.96.473 5.716 1.337-.269-23.248-2.359-42.992-5.244-59.403-.584 1.835-1.084 3.784-1.49 5.859z" fill="#ffc839"/><path d="m325.267 72.886c.254-1.5.559-2.891.89-4.225-3.714-22.63-8.985-39.243-13.348-50.22-15.298-6.865-34.015-11.358-56.809-11.358s-41.511 4.493-56.809 11.357c-7.39 18.594-17.39 53.341-18.002 106.147 1.756-.864 3.702-1.337 5.716-1.337h12.74c2.222-.928 4.623-1.434 7.083-1.434h37.01c7.922-14.276 31.212-27.74 31.212-27.74 7.757-12.32 17.528-4.11 17.528-4.11 8.951-24.762 32.789-17.08 32.789-17.08z" fill="#ffb332"/><path d="m335.062 127.932 15.908 19.172c.445.537.846 1.104 1.226 1.683.329-.64.678-1.199 1.05-1.665 9.655-12.117 21.425-4.629 21.921-4.305l.509.337.315-.061v-50.595c0-3.517-.664-6.999-1.981-10.26-3.117-7.719-10.258-22.466-23.668-36.868-2.817-.151-8.488.136-14.021 3.972-5.654 3.919-9.586 10.417-11.725 19.333 2.578 15.543 4.423 33.927 4.705 55.275 2.225.762 4.22 2.125 5.761 3.982z" fill="#deeeff"/><path d="m365.936 245.392c-4.591 1.783-8.34 1.858-11.142.227-4.163-2.423-5.03-7.94-5.033-7.94-.079-.898-.157-1.828-.235-2.783-.651.626-1.345 1.213-2.091 1.745l-40.177 28.63c-5.06 3.606-11.019 5.511-17.232 5.511h-4.286l-1.952 1.434c-3.145 2.31-6.945 3.556-10.848 3.556-3.371 0-6.104 2.733-6.104 6.104v13.288c0 3.371 2.733 6.104 6.104 6.104h3.892c6.714 0 13.296-1.834 19.048-5.297 15.544-9.357 47.996-29.67 70.598-49.181.836-.722 1.617-1.493 2.352-2.3-1.221.331-2.203.633-2.894.902z" fill="#deeeff"/><path d="m375.992 225.96v-84.396c-.001 0-13.257-8.759-23.918 4.623-.294.369-.573.796-.841 1.262 2.603 3.291 4.043 7.382 4.043 11.587v62.386c0 5.74-2.66 11.166-7.15 14.693.088 1.09.14 1.693.14 1.693s2.164 15.208 18.212 8.982c6.053-5.225 9.514-12.834 9.514-20.83z" fill="#f0f8ff"/><path d="m310.784 17.559c4.667 11.477 10.598 29.788 14.482 55.327h.001c5.074-30.003 26.598-25.85 26.61-25.847-9.806-10.935-23.169-21.835-41.093-29.48z" fill="#d3dcfb"/><path d="m336.166 127.016c-2.733-3.294-6.791-5.199-11.07-5.199h-19.823c5.158 0 10.079 2.165 13.565 5.967l17.739 19.352c3.111 3.394 4.837 7.831 4.837 12.434v54.354c0 10.03-4.774 19.462-12.857 25.4l-44.768 32.891h6.238c6.476 0 12.79-2.02 18.064-5.778l40.177-28.63c5.298-3.776 8.444-9.88 8.444-16.386v-62.386c0-4.692-1.64-9.237-4.637-12.848z" fill="#d3dcfb"/><path d="m295.587 114.23v7.586l-6.676 1.337c-21.676 4.342-43.993 4.395-65.69.157l-6.809-1.33v-7.75l22.53-24.001h34.115z" fill="#2a428c"/><path d="m138.275 96.253c0-.728.036-1.453.093-2.176h-.545c-13.732 0-24.967 11.235-24.967 24.967v61.262c0 13.732 11.235 24.967 24.967 24.967h.451v-109.02z" fill="#49b1f7"/><path d="m179.977 237.622-15.412-10.982c-4.92-3.506-7.841-9.175-7.841-15.216v-52.388c0-4.358 1.523-8.579 4.306-11.933l15.908-19.171c1.541-1.858 3.536-3.22 5.758-3.982.708-53.421 11.18-88.342 18.52-106.391-40.644 17.337-57.866 51.404-63.227 64.679-1.317 3.261-1.981 6.743-1.981 10.26v123.343c0 8.028 3.436 15.702 9.514 20.949 6.468 5.583 13.741 11.231 21.195 16.669 5.512 4.022 13.261.085 13.261-6.738v-9.099z" fill="#d3dcfb"/><path d="m179.977 230.105c0-2.241-.764-4.421-2.19-6.15-4.6-5.581-7.2-12.64-7.2-20.03v-44.355c0-4.604 1.726-9.04 4.837-12.434l17.74-19.352c3.485-3.802 8.407-5.967 13.564-5.967h-19.824c-4.28 0-8.337 1.906-11.07 5.199l-15.908 19.171c-2.996 3.611-4.636 8.156-4.636 12.848v52.386c0 6.506 3.146 12.611 8.444 16.386l16.243 11.575z" fill="#bec8f7"/><path d="m284.859 281.787h-9.216c-4.844 0-8.807-3.963-8.807-8.806 0-4.844 3.963-8.806 8.807-8.806h9.216c4.844 0 8.806 3.963 8.806 8.806 0 4.843-3.963 8.806-8.806 8.806z" fill="#73c3f9"/><g fill="#fc9460"><path d="m236.412 251.43 7.852-3.096c.883-.348 1.859-.388 2.768-.114l9.049 2.729 9.049-2.729c.91-.274 1.885-.234 2.768.114l7.852 3.096c2.169.855 3.235 3.307 2.38 5.477-.853 2.163-3.301 3.237-5.477 2.379l-6.489-2.559-8.825 2.661c-.855.267-1.747.248-2.517-.001l-8.824-2.661-6.488 2.559c-2.166.852-4.619-.204-5.477-2.379-.856-2.169.209-4.621 2.379-5.476z"/><path d="m253.116 266.336h5.42c2.332 0 4.222 1.89 4.222 4.222s-1.89 4.222-4.222 4.222h-5.42c-2.332 0-4.222-1.89-4.222-4.222s1.89-4.222 4.222-4.222z"/><path d="m237.061 216.494 6.882-1.448c1.98-.415 3.82.403 4.697 2.084 1.475 2.286 4.175 3.617 7.255 3.617 3.078 0 5.777-1.33 7.218-3.559.911-1.738 2.755-2.555 4.732-2.142l6.881 1.448c2.368.499 3.889 2.831 3.39 5.198-.497 2.365-2.828 3.887-5.198 3.391l-3.836-.808c-.049-.011-.099-.015-.148-.015-.187 0-.37.073-.506.207-6.795 6.712-18.275 6.711-25.069.001-.172-.17-.419-.243-.654-.193l-3.836.808c-2.368.495-4.7-1.024-5.198-3.391-.499-2.367 1.022-4.7 3.39-5.198z"/></g><path d="m239.598 38.048c3.024 5.961 9.186 10.064 16.34 10.064 7.119 0 13.257-4.061 16.299-9.97l-.562-37.045 1.794-.623c-1.08-.308-2.218-.474-3.39-.474h-28.157c-1.334 0-2.619.224-3.83.62.743.19 1.485.381 2.224.573-.169 4.403-.452 19.791-.718 36.855z" fill="#73c3f9"/><g><path d="m255.943 46.995c-7.836 0-14.392-5.349-16.288-12.574-.361 22.62-.707 49.494-.712 57.809h34.115l-.874-57.609c-1.963 7.122-8.475 12.374-16.241 12.374z" fill="#49b1f7"/></g><path d="m442.616 108.269c-8.754 6.23-16.116 15.111-16.116 28.049 0 30.413 15.169 74.15-12.5 94.413-38.008 27.833-53.667 63.167-9.428 84.928 29.986 14.751 61.651 14.363 80.555 38.24 10.254-27.008 15.876-56.296 15.876-86.901-.001-60.556-21.983-115.971-58.387-158.729z" fill="#9787f4"/><path d="m69.384 108.269c8.754 6.23 16.116 15.111 16.116 28.049 0 30.413-15.169 74.15 12.5 94.413 38.008 27.833 53.667 63.167 9.428 84.928-29.986 14.751-61.651 14.363-80.555 38.24-10.254-27.008-15.875-56.296-15.875-86.901 0-60.556 21.982-115.971 58.386-158.729z" fill="#9787f4"/><path d="m229.674 10.778-13.261 103.452 22.53-22.001c0-15.072 2.979-92.23 2.979-92.23-6.213.001-11.458 4.616-12.248 10.779z" fill="#3d9cea"/><path d="m295.587 114.23-13.261-103.452c-.79-6.163-6.035-10.778-12.247-10.778l2.979 92.23z" fill="#49b1f7"/><path d="m282.326 10.777c-.79-6.162-6.035-10.777-12.247-10.777l2.979 92.23 1.892 1.847c7.757-12.32 17.528-4.11 17.528-4.11z" fill="#3d9cea"/></g></svg>