<svg id="Layer_1" enable-background="new 0 0 512 512" height="512" viewBox="0 0 512 512" width="512" xmlns="http://www.w3.org/2000/svg"><g><path d="m500.646 280.183-87.56-201.191c-42.53-35.574-97.303-56.996-157.086-56.996s-114.555 21.422-157.085 56.996l-87.56 201.191c1.902 35.821 11.499 69.598 27.165 99.715l74.986 86.415c7.142 5.115 14.574 9.849 22.259 14.187h240.469c7.686-4.338 15.118-9.072 22.26-14.187l74.986-86.415c15.667-30.118 25.264-63.895 27.166-99.715z" fill="#856ee5"/><path d="m79.633 362.85c1.677 2.816 4.888 8.689 7.338 16.072 4.547 13.705 4.176 26.003-1.073 35.564-4.047 7.373-7.159 13.808-9.509 19.112-14.894-16.052-27.67-34.096-37.868-53.7 2.98-13.351 8.09-24.006 12.462-31.331 9.411 2.395 20.362 6.403 31.769 13.055-.957.484-1.989.9-3.119 1.228z" fill="#6c5475"/><path d="m75.277 432.394c2.331-5.214 5.378-11.473 9.307-18.63 12.334-22.467-7.323-51.889-7.323-51.889 1.477-.282 2.767-.678 3.9-1.161 11.911 6.718 24.377 16.285 36.151 29.902v25.111c0 9.481 3.039 18.552 8.446 26.016-1.217 1.799-2.409 3.539-3.547 5.172-4.109 5.899-7.052 12.486-8.705 19.396-13.902-9.954-26.71-21.336-38.229-33.917z" fill="#543e5b"/><path d="m30.627 323.074.794-.199c1.071 1.879 3.004 3.269 5.466 3.437 12.516.852 33.678 3.992 54.162 14.863-.523.516-1.069 1.028-1.667 1.532.653 2.422 1.863 8.632-1.092 13.778-1.763 3.071-4.67 5.206-8.657 6.364.099.166.203.344.312.53-13.281-7.636-25.916-11.709-36.179-13.848-11.873-2.473-18.261-15.465-13.139-26.457z" fill="#6289cc"/><path d="m125.676 370.958c-4.383 6.253-6.735 13.703-6.735 21.339v4.983c-13.428-16.773-27.966-27.955-41.679-35.402l-.002-.003c16.26-3.105 10.396-19.697 10.396-19.697.719-.568 1.365-1.148 1.98-1.733 12.988 6.662 25.792 16.362 36.04 30.513z" fill="#4b6bb2"/><path d="m31.535 318.244c18.57-29.27 43.09-41.825 62.074-47.16l-.79 38.317c1.906 2.955 12.011 20.272-3.438 33.306.037.137.076.289.116.449-19.928-10.857-40.691-13.959-52.884-14.788-4.989-.339-7.757-5.901-5.078-10.124z" fill="#4b6bb2"/><path d="m91.31 309.841.79-38.322c17.671-5.248 30.939-4.212 30.939-4.212l3.197 1.702 32.088 39.704c2.688 3.326 5.76 6.298 9.13 8.885-5.522 2.944-10.427 7.165-14.227 12.585l-30.116 42.96c-.494-.662-.992-1.339-1.496-2.034-9.668-13.35-21.711-22.561-33.958-28.929v-.001c17.155-13.553 3.653-32.338 3.653-32.338z" fill="#3c58a0"/><path d="m104.341 266.166c-14.458 2.184-36.155 8.59-55.86 26.845-2.484 2.301-2.719 6.171-.435 8.672 7.317 8.009 18.133 12.763 30.035 11.828 17.46-1.372 31.693-15.266 33.507-32.685.346-3.317.24-6.552-.256-9.656-.528-3.304-3.685-5.504-6.991-5.004z" fill="#ffdd40"/><path d="m364.482 28.395c-27.956-12.027-72.609-28.395-108.563-28.395-.658 0-1.324.017-1.988.028-2.816 3.574-10.574 15.668-.674 30.462-1.229 1.465-3.276 4.488-3.362 8.445-.077 3.576 1.444 7.03 4.523 10.273v25.824c-.895 1.032-1.821 2.51-2.306 4.21 1.293-.006 2.583-.013 3.887-.013 31.203 0 60.072 1.671 82.358 1.854 1.327-.643 2.553-1.303 3.648-1.982l26.326-20.397c10.682-8.273 8.562-24.97-3.849-30.309z" fill="#deeeff"/><path d="m147.357 28.395c-12.411 5.339-14.531 22.036-3.851 30.311l26.326 20.397c1.096.68 2.323 1.34 3.651 1.983 22.651-.166 49.806-1.769 80.223-1.848.748-2.137 2.212-3.617 2.212-3.617v-27.021c-9.731-9.731-.742-17.974-.742-17.974-12.406-17.272.743-30.626.743-30.626-35.953 0-80.607 16.368-108.562 28.395z" fill="#bec8f7"/><path d="m307.888 231.23c-5.241 6.105-10.741 11.211-15.997 15.292-10.24 7.952-22.877 12.271-35.891 12.271-.533 0-1.064-.019-1.595-.033l.09.267c-.08 3.535-1.262 42.718-14.196 56.396-1.476.157-3.49.767-5.32 2.139 5.637 1.828 12.66 3.285 21.012 3.285 16.714 0 28.274-5.88 33.794-8.833l27.54-42.834c-7.063-10.557-9.039-26.399-9.437-37.95z" fill="#ffaa7b"/><path d="m220.109 246.523c-5.256-4.081-10.757-9.188-15.998-15.292-.398 11.551-2.374 27.392-9.437 37.949l27.532 42.822c3.09 1.645 8 4.191 14.629 6.13 2.132-1.203 4.137-1.251 4.137-1.251 14.454-14.453 15.028-58.087 15.028-58.087-13.014 0-25.651-4.319-35.891-12.271z" fill="#fc9460"/><path d="m165.084 156.62h18.941c6.468 0 11.996-4.168 14.072-9.945v-14.338c0-7.929-6.488-14.417-14.417-14.417h-18.252c-7.929 0-14.417 6.488-14.417 14.417v14.337c2.076 5.778 7.605 9.946 14.073 9.946z" fill="#2a428c"/><path d="m165.429 156.076h18.252c7.929 0 14.417-6.488 14.417-14.417v34.155c0 7.929-6.488 14.417-14.417 14.417h-18.252c-7.929 0-14.417-6.488-14.417-14.417v-34.155c0 7.929 6.488 14.417 14.417 14.417z" fill="#1c2e7a"/><path d="m329.949 156.484h18.769c6.629 0 12.277-4.41 14.159-10.44v-13.706c0-7.929-6.488-14.417-14.417-14.417h-18.252c-7.929 0-14.417 6.488-14.417 14.417v13.706c1.881 6.03 7.529 10.44 14.158 10.44z" fill="#3c58a0"/><path d="m348.46 156.076h-18.252c-7.929 0-14.417-6.488-14.417-14.417v34.155c0 7.929 6.488 14.417 14.417 14.417h18.252c7.929 0 14.417-6.488 14.417-14.417v-34.155c-.001 7.929-6.488 14.417-14.417 14.417z" fill="#2a428c"/><g><path d="m326.874 130.38c-18.505 6.386-44.043 10.361-70.874 10.361-5.298 0-10.544-.157-15.696-.455-1.13 3.119-1.651 7.606 1.26 12.626l-.015.056c-.506.717-1.888 2.889-2.577 6.061-.753 3.469-.8 8.85 3.17 14.921l3.526 36.822 8.117 5.245c-1.066 2.292-1.553 5.918 1.596 8.953v45.487c.207.002.413.013.62.013 11.668 0 22.996-3.872 32.176-11 17.587-13.657 38.263-39.983 38.263-78.716l3.699-26.935c.986-7.181.238-14.515-2.358-21.291-.277-.716-.584-1.432-.907-2.148z" fill="#ffc7ab"/></g><g><path d="m255.681 215.555-8.669-5.602-3.495-36.491c-7.538-11.192-.669-19.873-.669-19.873l.239-.893c-3.124-5.004-2.489-9.423-1.338-12.33-21.499-1.127-41.432-4.745-56.625-9.988-.293.648-.572 1.298-.824 1.946-2.658 6.829-3.434 14.236-2.438 21.487l3.699 26.941c0 38.732 20.676 65.058 38.262 78.716 9.18 7.128 20.509 11 32.176 11 .266 0 .531-.012.796-.016v-46.112c-4.643-3.917-1.114-8.785-1.114-8.785z" fill="#ffaa7b"/></g><path d="m305.793 211.792c-2.057-12.263-10.905-24.543-22.718-27.221l-1.639-.481c-2.831 2.461-12.003 11.615-6.686 22.799 7.427 2.544 13.913 7.162 18.726 13.236-1.189 5.288-4.918 13.322-16.476 17.406-2.346.829-4.754.951-7.003.508-.694 2.062-3.361 11.135.471 18.879 1.841 3.723 4.907 6.525 9.096 8.391 17.386-9.562 38.341-26.103 45.422-63.994.632-3.381.953-6.819.953-10.258-2.924 7.217-9.004 15.902-20.146 20.735z" fill="#6c5475"/><path d="m271.428 238.238c-5.801-.495-10.882-4.776-11.637-10.918-.013-.104-.025-.21-.037-.316-.163-1.505-1.423-2.662-2.957-2.662-1.534 0-2.794 1.157-2.957 2.662-.012.106-.024.212-.036.316-.993 8.072-9.456 12.949-17.21 10.209-10.67-3.77-15.259-10.91-17.232-16.145 5.781-7.907 14.292-13.581 24.09-15.743l3.225-.712c4.7-1.038 8.335-5.626 9.668-10.515.153-.562.951-.562 1.104 0 1.333 4.889 4.967 9.478 9.668 10.515l3.225.712c2.199.486 4.332 1.154 6.386 1.979-.011-.019-.019-.038-.03-.057-7.363-12.771 6.378-22.992 6.378-22.992l-18.055-5.305c-3.139-.922-6.281.688-7.545 3.422-.231.499-.928.499-1.159 0-1.264-2.734-4.407-4.344-7.545-3.422l-18.055 5.305c-12.046 2.731-21.015 15.446-22.837 27.947-12.325-4.648-18.74-13.867-21.816-21.462v.003c0 3.435.32 6.868.95 10.244 7.67 41.108 31.577 57.09 49.648 66.299 12.099 6.166 26.45 6.171 38.552.01 1.91-.973 3.89-2.027 5.907-3.173-16.296-6.374-10.253-24.617-9.693-26.201z" fill="#543e5b"/><path d="m276.697 207.563-7.886-3.11c-.887-.349-1.867-.39-2.779-.115l-9.088 2.741-9.087-2.741c-.913-.275-1.893-.235-2.779.115l-7.886 3.11c-2.179.859-3.249 3.321-2.389 5.5.857 2.172 3.314 3.25 5.5 2.389l6.516-2.569 8.863 2.673c.859.268 1.754.249 2.528-.001l8.861-2.672 6.516 2.569c2.175.856 4.638-.205 5.5-2.389.858-2.179-.212-4.641-2.39-5.5z" fill="#fc9460"/><path d="m280.756 176.854c-.588-.901-1.49-1.519-2.54-1.74l-7.846-1.652c-1.839-.387-3.482.329-4.284 1.868-.026.05-.055.099-.086.147-1.825 2.822-5.211 4.507-9.057 4.507-3.845 0-7.23-1.685-9.055-4.508-.03-.046-.058-.094-.084-.145-.804-1.541-2.446-2.256-4.286-1.869l-7.846 1.651c-2.17.457-3.564 2.594-3.107 4.765.455 2.168 2.592 3.563 4.766 3.108l4.373-.92c.599-.125 1.21.059 1.638.481 3.687 3.642 8.645 5.464 13.604 5.464 4.958-.001 9.917-1.821 13.603-5.463.432-.426 1.043-.607 1.638-.482l4.374.921c2.169.454 4.308-.938 4.765-3.108.219-1.05.017-2.124-.57-3.025z" fill="#fc9460"/><path d="m432.367 362.85c-1.677 2.816-4.888 8.689-7.338 16.072-4.547 13.705-4.176 26.003 1.073 35.564 4.047 7.373 7.159 13.808 9.51 19.112 14.894-16.052 27.67-34.096 37.868-53.7-2.98-13.351-8.09-24.006-12.462-31.331-9.411 2.395-20.362 6.403-31.769 13.055.956.484 1.988.9 3.118 1.228z" fill="#6c5475"/><path d="m436.723 432.394c-2.332-5.214-5.378-11.473-9.307-18.63-12.333-22.467 7.323-51.889 7.323-51.889-1.477-.282-2.767-.678-3.9-1.161-11.911 6.718-24.377 16.285-36.151 29.902v25.111c0 9.481-3.039 18.552-8.446 26.016 1.217 1.799 2.409 3.539 3.547 5.172 4.109 5.899 7.052 12.486 8.704 19.396 13.903-9.954 26.711-21.336 38.23-33.917z" fill="#543e5b"/><path d="m372.714 455.729-27.128 17.871c-6.528 4.301-14.111 6.575-21.93 6.575h-28.211c-20.013 0-36.635-15.635-37.841-35.596-.051-.849-.755-1.51-1.605-1.51s-1.553.662-1.605 1.51c-1.206 19.961-17.827 35.596-37.841 35.596h-4.277l2.142 1.782c-1.276 1.614-3.375 4.762-4.633 9.271-1.112 3.987-1.662 9.594.214 16.446 14.9 2.833 30.275 4.324 46 4.324 43.697 0 84.713-11.453 120.235-31.5-.005-9.788-1.649-18.287-3.52-24.769z" fill="#6c5475"/><path d="m216.554 481.784-1.933-1.608h-26.278c-7.819 0-15.402-2.274-21.93-6.575l-27.127-17.871c-1.871 6.482-3.515 14.981-3.521 24.771 23.205 13.096 48.756 22.522 75.866 27.486-4.909-16.523 4.923-26.203 4.923-26.203z" fill="#543e5b"/><path d="m255.991 318.576c-7.072 0-13.143-1.084-18.217-2.536-2.311.863-4.902 2.685-6.33 6.107-.78-.329-1.827-.73-3.074-1.125l14.999 23.329c.452-.08 11.3-4.813 24.065-.406l1.193.412 23.032-35.821c-3.066 1.231-15.518 10.04-35.668 10.04z" fill="#6c5475"/><path d="m220.352 308.551 9.309 14.478c1.679.642 2.667 1.176 2.667 1.176 1.911-7.192 8.646-7.324 8.646-7.324.005-.005.009-.01.013-.014-11.209-2.597-18.219-7.346-20.635-8.316z" fill="#543e5b"/><path d="m255.991 365.299-27.344-42.507-12.326-3.366c-6.837.41-14.606 3.336-20.921 12.304-2.998 1.392-20.259 10.424-15.86 31.849v63.312c0 16.55 7.296 32.114 20.019 42.702l14.651 12.191h2.345c21.83 0 39.526-17.696 39.526-39.526v-77.098z" fill="#d3dcfb"/><path d="m181.04 426.891v-36.134-27.333c-4.71-22.474 15.352-30.495 15.352-30.495 8.153-11.849 18.843-12.93 26.439-11.725l-28.176-7.693c-16.039-4.379-33.531 1.238-43.321 15.204l-29.72 42.395c-4.196 5.986-6.447 13.119-6.447 20.429v26.334c0 14.915 7.497 28.832 19.952 37.037l30.41 20.035c6.772 4.462 14.705 6.84 22.815 6.84h28.21l-16.036-13.345c-12.341-10.271-19.478-25.494-19.478-41.549z" fill="#bec8f7"/><path d="m195.4 331.729c-.195.091-.454.216-.761.373l38.602 18.189c3.377-2.889 7.282-5.176 11.555-6.693l-13.949-21.696c-6.065-2.419-23.401-7.278-35.447 9.827z" fill="#bec8f7"/><path d="m191.633 260.912c-5.144-9.285-14.195-15.772-24.651-17.6-10.55-1.844-24.788-1.405-40.623 7.051-2.161 1.154-3.741 2.912-4.712 4.935l48.594 65.067c1.297.757 2.619 1.476 3.983 2.118l22.167 10.445c14.142-20.552 35.935-8.723 35.935-8.723z" fill="#a8b7ef"/><path d="m481.373 323.074-.794-.199c-1.071 1.879-3.004 3.269-5.466 3.437-12.516.852-33.678 3.992-54.162 14.863.523.516 1.069 1.028 1.667 1.532-.653 2.422-1.863 8.632 1.092 13.778 1.763 3.071 4.67 5.206 8.657 6.364-.099.166-.203.344-.312.53 13.281-7.636 25.916-11.709 36.179-13.848 11.873-2.473 18.261-15.465 13.139-26.457z" fill="#6289cc"/><path d="m386.324 370.958c4.383 6.253 6.735 13.703 6.735 21.339v4.983c13.428-16.773 27.967-27.955 41.68-35.402l.001-.003c-16.26-3.105-10.396-19.697-10.396-19.697-.719-.568-1.365-1.148-1.98-1.733-12.989 6.662-25.792 16.362-36.04 30.513z" fill="#4b6bb2"/><path d="m480.465 318.244c-18.57-29.27-43.09-41.825-62.074-47.16l.79 38.317c-1.906 2.955-12.011 20.272 3.438 33.306-.037.137-.076.289-.116.449 19.929-10.857 40.691-13.959 52.884-14.788 4.989-.339 7.757-5.901 5.078-10.124z" fill="#4b6bb2"/><path d="m420.69 309.841-.79-38.322c-17.671-5.248-30.939-4.212-30.939-4.212l-3.197 1.702-32.088 39.704c-2.688 3.326-5.76 6.298-9.13 8.885 5.522 2.944 10.427 7.165 14.227 12.585l30.116 42.96c.494-.662.992-1.339 1.496-2.034 9.668-13.35 21.711-22.561 33.958-28.929v-.001c-17.155-13.553-3.653-32.338-3.653-32.338z" fill="#3c58a0"/><path d="m331.504 454.277v-51.533c0-16.792 13.661-30.453 30.453-30.453h29.191c-.254-.394-.493-.797-.763-1.182l-29.72-42.395c-9.79-13.966-27.282-19.583-43.321-15.204l-33.991 9.281-27.344 42.507-.089-.139v77.098c0 21.83 17.697 39.526 39.526 39.526h28.21c6.451 0 12.779-1.528 18.511-4.389-6.52-5.588-10.663-13.875-10.663-23.117z" fill="#deeeff"/><path d="m330.003 402.744v51.533c0 9.44 4.152 17.954 10.717 23.817 1.987-.898 3.914-1.94 5.751-3.15l30.41-20.035c12.455-8.206 19.951-22.122 19.951-37.037v-26.334c0-7.31-2.251-14.443-6.447-20.429l-.223-.318h-28.205c-17.574 0-31.954 14.378-31.954 31.953z" fill="#f0f8ff"/><path d="m390.356 255.305c-.971-2.026-2.552-3.787-4.716-4.942-15.835-8.456-30.073-8.896-40.623-7.051-10.456 1.828-19.507 8.315-24.651 17.6l-53.163 82.686c4.273 1.517 8.178 3.804 11.555 6.693l59.016-27.808c1.37-.645 2.697-1.367 4-2.127z" fill="#d3dcfb"/><path d="m407.659 266.166c14.458 2.184 36.155 8.59 55.86 26.845 2.484 2.301 2.719 6.171.435 8.672-7.317 8.009-18.134 12.763-30.035 11.828-17.46-1.372-31.693-15.266-33.508-32.685-.346-3.317-.24-6.552.256-9.656.529-3.304 3.686-5.504 6.992-5.004z" fill="#73c3f9"/><path d="m330.297 161.448 1.201-.483c.079-.553.133-1.114.133-1.688v-31.245c0-7.07-5.731-12.801-12.801-12.801h-37.195z" fill="#bbe8fc"/><path d="m249.181 115.23h-12.552c-3.208 2.578-5.847 5.743-6.897 9.553-1.597 5.789.707 12.008 6.847 18.498-3.584 4.939-6.747 15.096 2.777 24.771 1.319-.887 2.524-1.931 3.585-3.11 3.178-3.533 7.587-5.712 12.339-5.712h1.443c4.752 0 9.16 2.179 12.339 5.712 3.501 3.891 8.562 6.348 14.179 6.348h22.572l1.682-.676z" fill="#73c3f9"/><path d="m283.346 115.23h-36.559l59.024 56.06h13.808c6.033 0 11.051-4.512 11.879-10.325z" fill="#9bd8f9"/><path d="m239.126 115.23h-45.957c-7.07 0-12.801 5.731-12.801 12.801v31.246c0 6.607 5.406 12.013 12.013 12.013h36.38c4.455 0 8.559-1.55 11.814-4.132-12.286-12.287-2.001-23.977-2.001-23.977-13.064-13.063-7.587-22.21.552-27.951z" fill="#49b1f7"/><path d="m232.408 377.09c0-5.096 1.622-9.811 4.37-13.667h-55.738c-7.517 0-13.667 6.15-13.667 13.667s6.15 13.667 13.667 13.667h55.738c-2.748-3.856-4.37-8.571-4.37-13.667z" fill="#ff7186"/><path d="m330.798 363.424h-55.594c2.748 3.856 4.37 8.571 4.37 13.667s-1.622 9.81-4.37 13.667h55.594c7.517 0 13.667-6.15 13.667-13.667s-6.15-13.667-13.667-13.667z" fill="#73c3f9"/><circle cx="256.081" cy="377.09" fill="#d3dcfb" r="36.674"/><circle cx="255.919" cy="377.09" fill="#4b6bb2" r="23.592"/><path d="m256 77.23c-1.034 0-2.053.007-3.08.01-1.322 2.526-1.931 5.978.548 9.229-2.16 2.691-6.537 10.107.095 20.306-1.473.456-3.605 1.179-5.999 2.185 3.814.095 7.791.146 11.936.146 66.5 0 82.668-13.005 82.668-13.005v-16.998c-22.754 0-53.16-1.873-86.168-1.873z" fill="#6289cc"/><path d="m255.469 86.482c-3.484-3.484-2.08-7.19-.785-9.247-32.466.049-61.254 1.868-84.851 1.868v16.997s21.313 11.958 81.707 12.939c2.649-.945 4.46-1.403 4.46-1.403-9.75-12.926-.531-21.154-.531-21.154z" fill="#4b6bb2"/><path d="m342.168 96.1c-23.013 7.182-53.16 11.537-86.168 11.537-1.646 0-3.279-.019-4.91-.041-6.73 2.383-18.788 7.864-21.358 17.187-1.576 5.714.655 11.847 6.617 18.246 6.413.466 12.992.712 19.652.712 52.267 0 99.639-15.084 99.639-33.691-.001-4.976-8.034-9.699-13.472-13.95z" fill="#4b6bb2"/><path d="m256 107.637c-33.008 0-63.154-4.355-86.167-11.537-5.439 4.251-13.471 8.974-13.471 13.95 0 16.51 37.295 30.244 82.212 33.131-24.863-24.863 17.426-35.544 17.426-35.544z" fill="#3c58a0"/><path d="m268.281 69.417s-.781-7.936.357-14.028c.859-4.602 4.809-5.337 6.691-5.421-1.459-3.509-1.302-7.792 2.089-12.891.462-.695.347-1.627-.243-2.217l-3.894-3.894c-.539-.538-1.351-.676-2.034-.34-3.269 1.608-8.481 2.971-14.423-.001-.519-.259-1.127-.259-1.646 0-5.942 2.972-11.154 1.609-14.423.001-.684-.336-1.496-.198-2.035.34l-3.894 3.894c-.59.59-.705 1.521-.243 2.217 4.39 6.6 3.372 11.84.425 15.794-6.755 9.062-3.7 21.978 6.205 27.423 6.736 3.703 12.521 5.645 14.257 6.188.35.11.711.11 1.062 0 1.736-.543 7.521-2.485 14.257-6.188 1.551-.852 2.933-1.888 4.137-3.063-7.387-1.224-6.645-7.814-6.645-7.814z" fill="#ffdd40"/><path d="m255.177 30.625c-5.942 2.972-11.154 1.609-14.423.001-.684-.336-1.496-.198-2.035.34l-3.894 3.894c-.59.59-.705 1.521-.243 2.217 4.39 6.6 3.372 11.84.425 15.794-6.755 9.062-3.7 21.978 6.205 27.423 6.736 3.703 12.521 5.645 14.257 6.188-5.181-5.181.45-10.861.45-10.861v-27.021c-9.73-9.731-.742-17.975-.742-17.975z" fill="#ffc839"/><path d="m340.329 170.845c-3.313 0-6 2.687-6 6v23.394c0 10.812-5.241 20.613-13.804 26.607l.151.161s-2.188 9.652 8.02 8.748c10.974-8.266 17.633-21.251 17.633-35.516v-23.394c0-3.313-2.687-6-6-6z" fill="#deeeff"/><path d="m330.004 234.731c-10.569 1.133-8.328-8.723-8.328-8.723l-.01-.011c-2.368 1.817-5.004 3.345-7.889 4.49-3.512 1.395-7.206 2.544-10.98 3.417-3.228.747-5.24 3.97-4.493 7.198.642 2.773 3.11 4.648 5.841 4.648.447 0 .902-.05 1.357-.155 4.358-1.009 8.632-2.339 12.701-3.954 4.355-1.727 8.314-4.073 11.801-6.91z" fill="#bec8f7"/><g><path d="m283.329 249.062c-3.866 0-7-3.134-7-7s3.134-7 7-7c6.655 0 13.13-.718 19.243-2.132 3.764-.873 7.527 1.475 8.397 5.241.872 3.767-1.475 7.526-5.241 8.398-7.146 1.654-14.682 2.493-22.399 2.493z" fill="#73c3f9"/></g><path d="m413.085 78.992c-9.703 8.805-19.819 21.042-24.165 36.291-10.02 35.155-17.765 104.582 48.497 125.83 32.887 10.545 52.156 26.087 63.228 39.07.232-4.366.357-8.761.357-13.185 0-75.528-34.185-143.063-87.917-188.006z" fill="#9787f4"/><path d="m98.915 78.992c9.703 8.805 19.819 21.042 24.166 36.291 10.02 35.155 17.765 104.582-48.497 125.83-32.887 10.545-52.156 26.087-63.228 39.07-.232-4.366-.356-8.761-.356-13.185-.002-75.528 34.183-143.063 87.915-188.006z" fill="#9787f4"/><g fill="#6289cc"><circle cx="262.219" cy="370.791" r="9.302"/><path d="m177.071 304.46c-.067-2.912-.917-5.744-2.393-8.254-4.015-6.83-14.283-23.58-23.678-32.975-8.41-8.41-21.479-8.582-29.353-7.933-1.808 3.765-1.474 8.464 1.391 12.009l33.14 41.004c3.921 4.852 8.697 8.922 14.063 12.053 5.891-4.555 6.937-11.27 6.83-15.904z"/><path d="m334.939 304.46c.067-2.912.917-5.744 2.393-8.254 4.015-6.83 14.283-23.58 23.678-32.975 8.41-8.41 21.479-8.582 29.353-7.933 1.808 3.765 1.474 8.464-1.391 12.009l-33.14 41.004c-3.921 4.852-8.697 8.922-14.063 12.053-5.891-4.555-6.937-11.27-6.83-15.904z"/></g><path d="m427.756 284.208c0 6.709 5.439 12.149 12.149 12.149s12.149-5.439 12.149-12.149c0-.149-.017-.293-.022-.441-6.119-4.253-12.258-7.548-18.158-10.096-3.653 2.096-6.118 6.025-6.118 10.537z" fill="#9bd8f9"/><path d="m111.319 282.811c-2.007-5.518-7.282-9.467-13.494-9.467-7.937 0-14.371 6.434-14.371 14.371s6.434 14.371 14.371 14.371c1.638 0 3.206-.288 4.673-.793 4.543-5.101 7.693-11.465 8.821-18.482z" fill="#fee884"/><path d="m267.638 55.389c-1.138 6.092-.357 14.028-.357 14.028s-.827 7.121 7.501 7.947c6.605-6.318 7.948-16.794 2.211-24.492-.668-.896-1.229-1.862-1.659-2.891 0-.001-6.559-.684-7.696 5.408z" fill="#fcf2c8"/><circle cx="255.919" cy="62.11" fill="#ffb332" r="13.51"/></g></svg>