<svg id="Layer_1" enable-background="new 0 0 512 512" height="512" viewBox="0 0 512 512" width="512" xmlns="http://www.w3.org/2000/svg"><g><path d="m125.308 474.252c11.408 7.209 23.449 13.507 36.026 18.781h189.331c12.578-5.274 24.618-11.571 36.026-18.78l70.146-66.921c27.826-39.749 44.165-88.13 44.165-140.333 0-135.311-109.691-245.002-245.002-245.002s-245.002 109.691-245.002 245.002c0 52.203 16.339 100.584 44.165 140.333z" fill="#856ee5"/><path d="m58.697 388.614c2.989-13.25 4.648-30.536 5.446-41.072l17.318 11.678c4.87 8.294 15.82 29.884 11.587 50.258-2.829 13.618-4.456 26.427-5.364 35.52-12.062-11.41-22.972-24.025-32.522-37.667.963-6.238 2.127-12.471 3.535-18.717z" fill="#6c5475"/><path d="m78.909 357.499 44.591 30.069 8.507 43.432-6.699 43.253c-14.089-8.903-27.199-19.21-39.151-30.711.965-8.604 2.498-19.543 4.891-31.063 5.382-25.904-13.787-53.789-13.787-53.789s.596-.434 1.648-1.191z" fill="#543e5b"/><path d="m58.984 336.39 2.903-9.364c9.177 2.257 19.244 5.697 29.161 10.96-.523.516-1.069 1.028-1.667 1.532.653 2.422 1.863 8.632-1.092 13.778-1.763 3.071-4.67 5.206-8.657 6.364.099.165.203.344.312.53-4.383-2.52-8.695-4.65-12.874-6.451-6.732-2.901-10.257-10.347-8.086-17.349z" fill="#f9a0b1"/><path d="m125.676 367.768c-4.384 6.253-6.735 13.703-6.735 21.339v4.983c-13.429-16.773-27.967-27.955-41.679-35.402l-.002-.003c16.26-3.105 10.396-19.697 10.396-19.697.719-.568 1.365-1.148 1.98-1.733 12.988 6.662 25.792 16.362 36.04 30.513z" fill="#ff7186"/><path d="m46.825 315.028c-3.351-9.117-.645-19.331 6.716-25.668 13.622-11.727 27.968-18.066 40.068-21.466l-.79 38.317c1.906 2.955 12.011 20.272-3.438 33.306.037.137.076.289.116.449-9.024-4.916-18.214-8.238-26.703-10.48-7.364-1.944-13.341-7.309-15.969-14.458z" fill="#ff7186"/><path d="m91.31 306.652.79-38.322c17.671-5.248 30.939-4.212 30.939-4.212l3.197 1.702 32.088 39.704c2.688 3.325 5.76 6.298 9.13 8.885-5.522 2.944-10.427 7.165-14.227 12.586l-30.116 42.96c-.494-.662-.992-1.339-1.496-2.034-9.668-13.35-21.711-22.561-33.958-28.929v-.001c17.155-13.554 3.653-32.339 3.653-32.339z" fill="#ff4155"/><path d="m166.724 241.6c10.036 1.755 18.637 7.896 23.648 16.934l1.621 2.521c.292.454.797.707 1.347.686 13.595-.771 22.461-15.851 24.172-25.8.41-2.392-12.542-10.015-24.67-48.391-.297-.939-1.405-1.341-2.231-.816-2.069 1.307-4.436 1.997-6.848 1.997h-16.663c2.465 7.976.689 17.615-6.581 24.367-6.008 5.58-9.768 13.547-9.768 22.394 0 1.876.186 3.706.509 5.488 5.137-.484 10.299-.285 15.464.62z" fill="#fee884"/><path d="m330.288 188.73c-2.995 0-5.921-1.063-8.238-2.993-.821-.681-2.075-.315-2.393.708-7.227 23.316-17.367 45.128-37.076 59.372-1.14.823-.613 2.628.787 2.713 4.591.275 12.52-.677 16.333-1.255 2.105 6.104 8.873 13.94 18.979 14.45.534.017 1.046-.234 1.337-.687l1.662-2.591c4.959-8.952 13.56-15.094 23.597-16.849 5.165-.903 10.326-1.102 15.462-.618.324-1.783.51-3.613.51-5.49 0-8.848-3.76-16.814-9.768-22.394-7.27-6.753-9.046-16.391-6.581-24.367h-14.611z" fill="#fee884"/><path d="m453.302 388.614c-2.988-13.25-4.647-30.536-5.446-41.072l-17.318 11.678c-4.87 8.294-15.82 29.884-11.587 50.258 2.829 13.618 4.456 26.427 5.364 35.52 12.062-11.41 22.973-24.025 32.522-37.667-.962-6.238-2.126-12.471-3.535-18.717z" fill="#6c5475"/><path d="m433.091 357.499-44.591 30.068-8.507 43.432 6.699 43.253c14.089-8.903 27.199-19.21 39.151-30.711-.965-8.604-2.498-19.543-4.891-31.063-5.382-25.904 13.787-53.789 13.787-53.789s-.597-.433-1.648-1.19z" fill="#543e5b"/><path d="m300.766 245.585c-3.756.654-16.277 2.257-19.65 1.085-6.835 4.587-15.528 9.368-23.727 9.734l.001.001c-.111.006-.958.032-1.518.028 0 0-.001-.001-.001-.002-.167-.001-.337-.013-.504-.018-.425 12.559-3.004 38.596-16.378 57.264-.068.095-.151.192-.226.288 5.562 1.178 11.325 1.811 17.239 1.811 11.419 0 22.294-2.315 32.193-6.488l31.512-49.012c-10.707.001-17.54-8.894-18.941-14.691z" fill="#ffaa7b"/><path d="m255.87 256.433s-.001-.001-.001-.002c-13.496-.095-30.475-12.455-39.601-22.49-.955 10.386-10.519 26.337-23.973 26.337l31.511 49.011c5.302 2.234 10.891 3.916 16.686 5.015.18-.211.346-.42.494-.627 13.377-18.671 15.954-44.715 16.378-57.271-.161.007-.956.03-1.494.027z" fill="#fc9460"/><path d="m333.821 443.282c-8.46-8.472-19.234-16.033-31.313-21.483-6.736-3.039-14.062-4.546-21.451-4.546-8.625 0-18.425 0-28.16 0l1.023 2s-33.088 17.129-33.088 48.629v41.594c11.486 1.653 23.224 2.524 35.168 2.524 33.56 0 65.54-6.755 94.666-18.968 1.936-17.588 4.88-30.917 7.274-39.685-8.805-.041-17.529-3.466-24.119-10.065z" fill="#6c5475"/><path d="m209.065 422.067c-11.08 5.081-21.805 12.274-30.764 21.257-6.614 6.631-15.382 10.065-24.223 10.087 2.391 8.77 5.326 22.077 7.257 39.622 19.361 8.118 39.988 13.807 61.497 16.721 0-10.665 0-24.806 0-39.872 0-31.5 33.088-48.629 33.088-48.629l-2.045-4c-7.817 0-15.618 0-22.759 0-7.614 0-15.131 1.641-22.051 4.814z" fill="#543e5b"/><path d="m97.967 264.141c-12.725 2.731-29.094 8.685-44.7 21.503-5.814 4.775-5.363 13.812.791 18.141 6.701 4.713 15.051 7.239 24.016 6.536 17.461-1.369 31.697-15.261 33.514-32.68.069-.658.12-1.312.153-1.963.383-7.42-6.509-13.096-13.774-11.537z" fill="#ffdd40"/><path d="m255.991 315.386c-7.072 0-13.144-1.084-18.217-2.536-2.311.863-4.902 2.685-6.331 6.107-.78-.329-1.827-.73-3.074-1.125l14.999 23.329c.452-.08 11.3-4.813 24.065-.406l1.193.412 23.032-35.821c-3.065 1.232-15.517 10.04-35.667 10.04z" fill="#6c5475"/><path d="m220.352 305.362 9.309 14.478c1.679.642 2.667 1.176 2.667 1.176 1.911-7.192 8.646-7.324 8.646-7.324.005-.005.009-.01.013-.014-11.209-2.597-18.219-7.347-20.635-8.316z" fill="#543e5b"/><path d="m179.54 423.701c0 6.657 1.199 13.147 3.438 19.225 9.25-8.14 18.772-13.505 26.087-16.859 6.92-3.173 14.437-4.815 22.05-4.815h24.965v-59.282l-.09.139-27.344-42.507-12.326-3.366c-6.837.41-14.606 3.336-20.921 12.304-2.998 1.392-20.259 10.424-15.86 31.849v63.312z" fill="#d3dcfb"/><path d="m184.202 441.872c-2.06-5.769-3.161-11.904-3.161-18.171v-36.134-27.333c-4.71-22.474 15.352-30.496 15.352-30.496 8.153-11.849 18.842-12.93 26.439-11.725l-28.176-7.693c-16.039-4.379-33.531 1.238-43.321 15.204l-29.72 42.395c-4.196 5.986-6.448 13.119-6.448 20.429v26.334c0 14.915 7.497 28.831 19.952 37.037l.1.066c13.592 8.954 31.587 7.062 43.082-4.461 1.943-1.948 3.918-3.763 5.901-5.452z" fill="#bec8f7"/><path d="m195.4 328.54c-.195.091-.454.216-.761.373l38.602 18.189c3.377-2.889 7.282-5.176 11.555-6.693l-13.949-21.696c-6.065-2.419-23.401-7.278-35.447 9.827z" fill="#bec8f7"/><path d="m191.633 257.722c-5.144-9.285-14.195-15.772-24.651-17.6-10.55-1.844-24.788-1.404-40.623 7.051-2.161 1.154-3.741 2.912-4.712 4.935l48.595 65.067c1.297.757 2.619 1.476 3.983 2.118l22.167 10.445c14.142-20.552 35.935-8.723 35.935-8.723z" fill="#a8b7ef"/><path d="m453.016 336.39-2.904-9.364c-9.177 2.257-19.244 5.697-29.161 10.96.523.516 1.069 1.028 1.667 1.532-.653 2.422-1.863 8.632 1.092 13.778 1.763 3.071 4.67 5.206 8.657 6.364-.099.165-.203.344-.312.53 4.383-2.52 8.695-4.65 12.874-6.451 6.733-2.901 10.258-10.347 8.087-17.349z" fill="#f9a0b1"/><path d="m386.324 367.768c4.383 6.253 6.735 13.703 6.735 21.339v4.983c13.429-16.773 27.967-27.955 41.68-35.402l.001-.003c-16.26-3.105-10.396-19.697-10.396-19.697-.719-.568-1.365-1.148-1.98-1.733-12.989 6.662-25.792 16.362-36.04 30.513z" fill="#ff7186"/><path d="m465.175 315.028c3.351-9.117.645-19.331-6.716-25.668-13.622-11.727-27.969-18.066-40.068-21.466l.79 38.317c-1.906 2.955-12.011 20.272 3.438 33.306-.037.137-.076.289-.116.449 9.024-4.916 18.214-8.238 26.703-10.48 7.364-1.944 13.34-7.309 15.969-14.458z" fill="#ff7186"/><path d="m420.69 306.652-.79-38.322c-17.671-5.248-30.939-4.212-30.939-4.212l-3.197 1.702-32.088 39.704c-2.688 3.325-5.76 6.298-9.13 8.885 5.522 2.944 10.427 7.165 14.227 12.586l30.116 42.96c.494-.662.992-1.339 1.496-2.034 9.668-13.35 21.711-22.561 33.958-28.929v-.001c-17.155-13.554-3.653-32.339-3.653-32.339z" fill="#ff4155"/><path d="m390.385 367.919-29.72-42.395c-9.79-13.965-27.282-19.583-43.321-15.204l-33.991 9.281-27.344 42.507-.089-.139v59.283h25.137c7.389 0 14.716 1.507 21.451 4.546 7.991 3.606 18.789 9.674 28.996 19.242v-45.486c0-16.792 13.661-30.453 30.453-30.453h29.191c-.254-.394-.493-.797-.763-1.182z" fill="#deeeff"/><path d="m390.376 367.906-.214-.305h-28.205c-17.574 0-31.953 14.379-31.953 31.953v44.106c1.282 1.153 2.556 2.36 3.818 3.623 11.493 11.508 29.477 13.385 43.059 4.437 12.455-8.206 19.952-22.122 19.952-37.038v-26.334c-.001-7.315-2.255-14.454-6.457-20.442z" fill="#f0f8ff"/><path d="m390.356 252.115c-.971-2.026-2.552-3.787-4.716-4.942-15.835-8.456-30.072-8.896-40.623-7.051-10.456 1.828-19.508 8.315-24.651 17.6l-53.163 82.686c4.273 1.517 8.178 3.804 11.555 6.693l59.016-27.808c1.37-.645 2.697-1.367 3.999-2.127z" fill="#d3dcfb"/><path d="m414.033 264.141c12.725 2.731 29.095 8.685 44.7 21.503 5.814 4.775 5.363 13.812-.79 18.141-6.701 4.713-15.051 7.239-24.016 6.536-17.46-1.369-31.697-15.261-33.514-32.68-.069-.658-.119-1.312-.153-1.963-.384-7.42 6.508-13.096 13.773-11.537z" fill="#73c3f9"/><path d="m232.408 373.901c0-5.096 1.622-9.81 4.37-13.667h-55.738c-7.517 0-13.667 6.15-13.667 13.667s6.15 13.667 13.667 13.667h55.738c-2.748-3.857-4.37-8.571-4.37-13.667z" fill="#ff7186"/><path d="m330.798 360.234h-55.594c2.748 3.856 4.37 8.57 4.37 13.667 0 5.096-1.622 9.81-4.37 13.667h55.594c7.517 0 13.667-6.15 13.667-13.667s-6.15-13.667-13.667-13.667z" fill="#73c3f9"/><circle cx="256.081" cy="373.901" fill="#d3dcfb" r="36.674"/><ellipse cx="255.919" cy="373.901" fill="#4b6bb2" rx="23.592" ry="23.592" transform="matrix(.707 -.707 .707 .707 -189.431 290.475)"/><ellipse cx="262.219" cy="367.601" fill="#6289cc" rx="9.302" ry="9.302" transform="matrix(.663 -.749 .749 .663 -186.856 320.478)"/><path d="m177.071 301.27c-.067-2.912-.917-5.744-2.393-8.254-4.015-6.83-14.283-23.58-23.678-32.975-8.41-8.41-21.479-8.582-29.353-7.933-1.808 3.765-1.474 8.464 1.391 12.01l33.14 41.004c3.921 4.852 8.697 8.922 14.063 12.053 5.891-4.555 6.937-11.271 6.83-15.905z" fill="#d3dcfb"/><path d="m334.938 301.27c.067-2.912.917-5.744 2.393-8.254 4.015-6.83 14.283-23.58 23.678-32.975 8.41-8.41 21.479-8.582 29.353-7.933 1.808 3.765 1.474 8.464-1.391 12.01l-33.14 41.004c-3.921 4.852-8.697 8.922-14.063 12.053-5.89-4.555-6.936-11.271-6.83-15.905z" fill="#deeeff"/><path d="m427.756 281.019c0 6.71 5.439 12.149 12.149 12.149s12.149-5.439 12.149-12.149c0-.149-.017-.293-.022-.441-6.119-4.254-12.258-7.548-18.158-10.096-3.653 2.096-6.118 6.025-6.118 10.537z" fill="#9bd8f9"/><path d="m111.319 279.621c-2.007-5.518-7.282-9.467-13.494-9.467-7.937 0-14.371 6.434-14.371 14.371s6.434 14.371 14.371 14.371c1.638 0 3.206-.288 4.673-.793 4.543-5.1 7.693-11.465 8.821-18.482z" fill="#fee884"/><path d="m165.165 156.62h18.941c6.468 0 11.996-4.168 14.072-9.945v-14.338c0-7.929-6.488-14.417-14.417-14.417h-18.252c-7.929 0-14.417 6.488-14.417 14.417v14.337c2.076 5.778 7.604 9.946 14.073 9.946z" fill="#f9a0b1"/><path d="m165.509 156.076h18.252c7.929 0 14.417-6.488 14.417-14.417v34.155c0 7.929-6.488 14.417-14.417 14.417h-18.252c-7.929 0-14.417-6.488-14.417-14.417v-34.155c.001 7.929 6.488 14.417 14.417 14.417z" fill="#ff7186"/><path d="m330.03 156.484h18.769c6.629 0 12.277-4.41 14.158-10.44v-13.706c0-7.929-6.488-14.417-14.417-14.417h-18.252c-7.929 0-14.417 6.488-14.417 14.417v13.706c1.882 6.03 7.53 10.44 14.159 10.44z" fill="#f9a0b1"/><path d="m348.54 156.076h-18.252c-7.929 0-14.417-6.488-14.417-14.417v34.155c0 7.929 6.488 14.417 14.417 14.417h18.252c7.929 0 14.417-6.488 14.417-14.417v-34.155c0 7.929-6.488 14.417-14.417 14.417z" fill="#ff7186"/><g><path d="m319.7 169.29c-13.133 0-23.81 0-36.38 0-5.616 0-10.678-2.458-14.179-6.348-6.663-7.406-17.551-7.366-24.23-1.794.365.594.795 1.18 1.298 1.757-1.39 2.188-2.613 6.245-.078 10.64 2.499 4.333 2.479 8.149 2.4 9.323-1.551 1.687-7.294 8.903-1.295 17.505l5.735 8.222c-1 1.583-1.483 3.997.306 6.13v6.003c-1.185 2.507-8.786 20.172 2.592 37.704 3.984.029 7.973-.755 11.685-2.361 16.287-7.046 29.511-18.67 38.244-33.615 8.6-14.717 15.313-32.553 19.957-53.046.096-.614.193-1.275.289-1.958-1.842 1.161-4.015 1.838-6.344 1.838z" fill="#ffc7ab"/></g><g><path d="m254.567 221.026v-6.801c-2.728-2.728 0-5.595 0-5.595l-6.273-8.994c-6.273-8.994 1.475-16.197 1.475-16.197s.767-4.835-2.522-10.538c-1.833-3.179-1.426-5.949-.706-7.778.704-1.789.281-3.302-.597-4.783-2.711 1.941-2.803 2.843-5.293 4.814l.003.003c-.301.239-.823.628-1.219.894-.001-.001-.002-.002-.003-.003-3.035 2.042-6.677 3.241-10.592 3.241h-36.38c-2.338 0-4.519-.687-6.37-1.855.105.71.212 1.389.319 2.012 4.634 20.454 11.346 38.288 19.948 53.01 8.732 14.945 21.957 26.568 38.244 33.615 4.054 1.754 8.439 2.529 12.787 2.333-12.637-18.636-2.821-37.378-2.821-37.378z" fill="#ffaa7b"/></g><g fill="#fc9460"><path d="m239.742 202.222 6.324-2.493c.711-.28 1.497-.313 2.229-.092l7.287 2.197 7.287-2.197c.732-.221 1.518-.188 2.229.092l6.323 2.493c1.747.689 2.605 2.663 1.916 4.41-.687 1.742-2.658 2.606-4.411 1.916l-5.225-2.06-7.107 2.143c-.688.215-1.406.2-2.027 0l-7.106-2.143-5.225 2.06c-1.744.686-3.719-.165-4.411-1.916-.688-1.746.17-3.721 1.917-4.41z"/><path d="m253.194 214.226h4.364c1.878 0 3.4 1.522 3.4 3.4s-1.522 3.4-3.4 3.4h-4.364c-1.878 0-3.4-1.522-3.4-3.4s1.522-3.4 3.4-3.4z"/><path d="m240.265 174.088 5.542-1.166c1.595-.334 3.076.324 3.783 1.678 1.188 1.841 3.362 2.912 5.842 2.912 2.479 0 4.652-1.071 5.812-2.866.734-1.4 2.218-2.058 3.811-1.725l5.541 1.166c1.907.402 3.132 2.28 2.73 4.186-.4 1.905-2.278 3.13-4.186 2.73l-3.089-.651c-.04-.008-.08-.012-.12-.012-.151 0-.298.059-.407.167-5.472 5.405-14.717 5.405-20.188.001-.139-.137-.337-.196-.527-.155l-3.089.651c-1.907.399-3.785-.825-4.186-2.73-.401-1.906.824-3.784 2.731-4.186z"/></g><path d="m364.562 28.395c-27.955-12.027-72.609-28.395-108.562-28.395-.658 0-1.324.017-1.988.028-2.816 3.574-10.574 15.668-.674 30.462-1.229 1.465-3.276 4.488-3.362 8.445-.077 3.576 1.444 7.03 4.523 10.273v25.824c-.895 1.032-1.821 2.51-2.306 4.21 1.293-.006 2.583-.013 3.887-.013 31.203 0 60.072 1.671 82.358 1.854 1.327-.643 2.553-1.303 3.648-1.982l26.326-20.397c10.681-8.273 8.561-24.97-3.85-30.309z" fill="#deeeff"/><path d="m147.438 28.395c-12.411 5.339-14.531 22.036-3.851 30.311l26.326 20.397c1.096.68 2.323 1.34 3.651 1.983 22.651-.165 49.806-1.769 80.223-1.848.748-2.137 2.213-3.618 2.213-3.618v-27.02c-9.731-9.731-.742-17.974-.742-17.974-12.407-17.272.742-30.626.742-30.626-35.954 0-80.607 16.368-108.562 28.395z" fill="#bec8f7"/><path d="m330.378 161.448 1.201-.483c.079-.553.134-1.113.134-1.688v-31.245c0-7.07-5.731-12.801-12.802-12.801h-37.195z" fill="#bbe8fc"/><path d="m249.262 115.23h-12.552c-3.208 2.578-5.847 5.743-6.897 9.553-1.597 5.789.707 12.008 6.847 18.498-3.584 4.938-6.747 15.096 2.777 24.771 1.319-.887 2.524-1.931 3.584-3.11 3.178-3.533 7.587-5.712 12.339-5.712h1.443c4.752 0 9.16 2.179 12.339 5.712 3.501 3.891 8.562 6.348 14.179 6.348h22.572l1.682-.676z" fill="#73c3f9"/><path d="m283.427 115.23h-36.559l59.024 56.06h13.808c6.033 0 11.051-4.512 11.879-10.326z" fill="#9bd8f9"/><path d="m239.207 115.23h-45.957c-7.07 0-12.801 5.731-12.801 12.801v31.246c0 6.607 5.406 12.013 12.013 12.013h36.38c4.455 0 8.559-1.551 11.814-4.132-12.286-12.287-2.001-23.977-2.001-23.977-13.064-13.063-7.587-22.21.552-27.951z" fill="#49b1f7"/><path d="m256.081 77.23c-1.034 0-2.053.007-3.08.01-1.323 2.526-1.931 5.978.548 9.229-2.16 2.691-6.537 10.107.095 20.306-1.473.456-3.604 1.179-5.998 2.185 3.814.095 7.79.146 11.936.146 66.5 0 82.668-13.005 82.668-13.005v-16.998c-22.755 0-53.162-1.873-86.169-1.873z" fill="#6289cc"/><path d="m255.55 86.482c-3.484-3.484-2.08-7.19-.785-9.247-32.466.049-61.254 1.868-84.851 1.868v16.997s21.313 11.958 81.708 12.939c2.649-.945 4.46-1.403 4.46-1.403-9.751-12.926-.532-21.154-.532-21.154z" fill="#4b6bb2"/><path d="m342.248 96.1c-23.013 7.182-53.16 11.537-86.168 11.537-1.646 0-3.279-.019-4.91-.041-6.73 2.383-18.788 7.864-21.358 17.187-1.576 5.714.655 11.847 6.617 18.246 6.413.466 12.992.712 19.652.712 52.267 0 99.639-15.084 99.639-33.691-.001-4.976-8.033-9.699-13.472-13.95z" fill="#4b6bb2"/><path d="m256.081 107.637c-33.008 0-63.155-4.355-86.167-11.537-5.439 4.251-13.471 8.974-13.471 13.95 0 16.51 37.295 30.244 82.212 33.131-24.863-24.863 17.426-35.544 17.426-35.544z" fill="#3c58a0"/><path d="m268.361 69.417s-.781-7.936.357-14.028c.859-4.602 4.809-5.337 6.691-5.421-1.459-3.509-1.302-7.792 2.089-12.891.462-.695.347-1.626-.243-2.216l-3.894-3.894c-.539-.539-1.351-.676-2.034-.34-3.269 1.608-8.481 2.971-14.423-.001-.519-.26-1.127-.26-1.646 0-5.942 2.972-11.154 1.609-14.423.001-.684-.336-1.496-.198-2.035.34l-3.894 3.894c-.59.59-.705 1.521-.243 2.216 4.39 6.6 3.372 11.84.425 15.794-6.755 9.062-3.7 21.978 6.205 27.423 6.736 3.703 12.521 5.645 14.257 6.188.35.11.711.11 1.062 0 1.736-.543 7.521-2.485 14.257-6.188 1.551-.852 2.933-1.888 4.137-3.063-7.387-1.224-6.645-7.814-6.645-7.814z" fill="#ffdd40"/><path d="m255.258 30.625c-5.942 2.972-11.154 1.609-14.423.001-.684-.336-1.496-.198-2.035.34l-3.894 3.894c-.59.59-.705 1.521-.243 2.216 4.39 6.6 3.372 11.84.425 15.794-6.755 9.062-3.7 21.978 6.205 27.423 6.736 3.703 12.521 5.645 14.257 6.188-5.182-5.181.45-10.861.45-10.861v-27.02c-9.731-9.731-.742-17.975-.742-17.975z" fill="#ffc839"/><path d="m340.409 170.845c-3.313 0-6 2.687-6 6v23.394c0 10.812-5.241 20.613-13.804 26.607l.151.161s-2.188 9.652 8.02 8.748c10.974-8.266 17.633-21.251 17.633-35.516v-23.394c0-3.313-2.686-6-6-6z" fill="#deeeff"/><path d="m330.084 234.731c-10.569 1.133-8.328-8.723-8.328-8.723l-.01-.011c-2.368 1.817-5.004 3.345-7.889 4.49-3.512 1.395-7.206 2.544-10.979 3.417-3.229.747-5.24 3.97-4.493 7.198.642 2.773 3.11 4.648 5.841 4.648.447 0 .902-.05 1.357-.155 4.358-1.009 8.632-2.339 12.701-3.954 4.355-1.727 8.314-4.073 11.8-6.91z" fill="#bec8f7"/><g><path d="m283.409 249.062c-3.866 0-7-3.134-7-7s3.134-7 7-7c6.655 0 13.13-.718 19.243-2.132 3.764-.873 7.527 1.475 8.397 5.241.872 3.767-1.475 7.526-5.241 8.398-7.146 1.654-14.682 2.493-22.399 2.493z" fill="#73c3f9"/></g><path d="m267.718 55.389c-1.137 6.092-.357 14.028-.357 14.028s-.827 7.121 7.501 7.947c6.605-6.318 7.948-16.794 2.211-24.492-.668-.896-1.229-1.862-1.659-2.891 0-.001-6.558-.684-7.696 5.408z" fill="#fcf2c8"/><circle cx="256" cy="62.11" fill="#ffb332" r="13.51"/><path d="m405.882 73.195c-12.762 10.327-27.119 29.004-14.403 55.854 20.521 43.334-25.483 91.036 26.519 110.185 31.473 11.589 61.091 20.458 82.351 45.634.426-5.902.652-11.859.652-17.869.001-78.852-37.257-148.991-95.119-193.804z" fill="#9787f4"/><path d="m106.118 73.195c12.762 10.327 27.119 29.004 14.404 55.854-20.522 43.333 25.482 91.035-26.52 110.184-31.473 11.589-61.091 20.458-82.351 45.634-.426-5.902-.652-11.859-.652-17.869-.001-78.851 37.257-148.99 95.119-193.803z" fill="#9787f4"/></g></svg>