<svg id="Layer_1" enable-background="new 0 0 512 512" height="512" viewBox="0 0 512 512" width="512" xmlns="http://www.w3.org/2000/svg"><g><path d="m37.531 377.991h436.939c16.963-33.322 26.533-71.039 26.533-110.993 0-135.311-109.691-245.002-245.002-245.002s-245.002 109.691-245.002 245.002c-.001 39.954 9.568 77.671 26.532 110.993z" fill="#50dd89"/><path d="m329.736 294.164c-6.966-1.889-12.688-6.901-15.475-13.56-4.155-9.927-5.487-22.016-5.807-31.335-5.298 6.171-10.858 11.333-16.171 15.458-10.352 8.039-23.126 12.405-36.282 12.405-1.234 0-2.463-.051-3.689-.127.638 1.318 1.359 2.66 2.193 4.029.041 22.637-7.607 51.582-26.291 65.021-.565.212-2.132.838-4.139 1.939 10.175 4.098 20.965 6.253 31.926 6.253 21.176 0 41.738-7.978 58.4-22.667 9.735-8.582 19.982-19.613 29.534-33.04-4.658-1.609-9.384-3.07-14.199-4.376z" fill="#49b1f7"/><g fill="#3d9cea"><path d="m256 280.604c-.74-1.192-1.387-2.362-1.972-3.513-12.456-.414-24.476-4.728-34.309-12.364-5.313-4.126-10.874-9.288-16.172-15.458-.321 9.32-1.653 21.409-5.808 31.336-2.787 6.658-8.509 11.671-15.475 13.56-4.815 1.306-9.541 2.766-14.197 4.375 9.551 13.427 19.799 24.458 29.534 33.04 8.55 7.538 18.132 13.294 28.293 17.126 1.806-.898 3.027-1.313 3.027-1.313 28.058-19.988 27.079-66.789 27.079-66.789z"/><ellipse cx="251.719" cy="304.11" rx="11.495" ry="11.495" transform="matrix(.16 -.987 .987 .16 -88.669 504.062)"/><circle cx="241.844" cy="323.499" r="17.769"/><path d="m267.821.746.317.287c-23.534 19.058-36.641 50.849-22.889 84.214-3.835 3.548-18.616 19.224-9.518 42.78l4.624 9.929c-.008.012-.017.027-.025.039h109.794v-43.87c.001-47.767-36.061-87.519-82.303-93.379z"/></g><path d="m247.048 85.659c-22.048-51.633 23.392-84.518 23.421-84.539-4.719-.736-9.551-1.12-14.469-1.12-51.769 0-94.125 42.356-94.125 94.125v43.869h80.154l-4.898-10.507c-10.066-26.062 9.917-41.828 9.917-41.828z" fill="#3b8be2"/><g><path d="m365.793 119.733c-.11-4.856-4.881-8.28-9.495-6.764-1.042.342-2.033.704-2.975 1.08-9.168 3.663-15.703 11.811-17.619 21.401 2.524 14.47.873 33.188-.708 43.239-.195.863-.401 1.712-.603 2.566 30.177 15.004 31.902-39.388 31.4-61.522z" fill="#49b1f7"/><path d="m146.207 119.733c.11-4.856 4.881-8.28 9.495-6.764 1.042.342 2.033.704 2.975 1.08 9.168 3.663 15.703 11.811 17.619 21.401-2.524 14.47-.873 33.188.708 43.239.195.863.401 1.712.603 2.566-30.177 15.004-31.902-39.388-31.4-61.522z" fill="#3d9cea"/></g><path d="m336.937 125.063c-.939-2.449-2.122-4.929-3.613-7.268-2.525-3.962-3.636-8.648-3.298-13.32.974-13.438.452-39.721-17.19-47.659-2.677-1.204-5.462-2.069-8.298-2.654-6.144-1.268-12.416 1.637-15.555 7.069-3.244 5.616-6.63 10.336-9.874 14.136-6.593 7.725-14.73 11.92-23.111 11.92-3.72 0-7.391-.831-10.901-2.426.052.128.096.256.149.384-3.835 3.548-18.616 19.224-9.518 42.78l4.624 9.929c-1.534 2.323-5.301 9.398-.696 17.378l-.025.096c-1.239 1.89-8.418 13.949-.147 28.029l-6.203 9.549c-2.481 8.573-.236 18.823 8.709 23.873l10.28 10.764c-1.212 1.961-2.02 5.116.545 8.007l1.185 7.954c-2.189 2.999-11.33 17.524.229 36.963.589.018 1.177.037 1.767.037 13.156 0 25.93-4.366 36.281-12.404 19.831-15.4 43.145-45.085 43.145-88.759l4.17-30.372c1.116-8.096.273-16.366-2.655-24.006z" fill="#73c3f9"/><path d="m256 280.604c-13.362-21.527-.419-36.593-.419-36.593l-1.348-9.046c-3.585-3.585 0-7.442 0-7.442l-11.311-11.843c-12.773-7.035-8.264-22.036-8.264-22.036l6.6-10.159c-9.374-14.942-.241-27.427-.241-27.427l.255-.953c-5.714-9.151.811-16.993.811-16.993l-4.954-10.626c-10.065-26.062 9.918-41.828 9.918-41.828-5.122-1.883-9.955-5.366-14.159-10.291-3.244-3.8-6.629-8.521-9.873-14.136-3.139-5.432-9.41-8.337-15.555-7.069-2.836.585-5.621 1.45-8.298 2.654-17.691 7.961-18.166 34.371-17.182 47.774.341 4.636-.801 9.274-3.306 13.206-1.419 2.227-2.56 4.581-3.476 6.915-3.064 7.806-3.9 16.311-2.76 24.619l4.134 30.111c0 43.674 23.314 73.359 43.145 88.759 10.353 8.038 23.127 12.404 36.283 12.404z" fill="#49b1f7"/><path d="m390.213 471.99 38.997-31.736c18.162-18.159 33.493-39.15 45.259-62.263-10.108-27.183-30.425-52.107-70.68-55.398-6.831-.558-10.465-3.208-18.515-7.747-12.885-7.266-25.92-13.3-39.536-18.074-3.021-1.059-6.361.095-8.12 2.77-2.627 3.995-5.381 7.759-8.21 11.303-8.068 22.547-16.763 41.014-25.013 55.308-13.807 23.923-30.847 36.917-48.396 36.917-16.9 0-33.327-12.055-46.85-34.312-.071 1.003-.082 2.044-.02 3.124-35.014 1.204-89.268 11.744-89.268 47.001v51.834c38.937 26.072 85.76 41.283 136.139 41.283 49.552 0 95.663-14.717 134.213-40.01z" fill="#ad5c38"/><path d="m121.362 418.882c0-44.5 89.401-45.544 89.401-45.544-.091-.768-.133-1.509-.154-2.238-1.017-1.596-2.021-3.24-3.006-4.948-8.25-14.294-16.945-32.761-25.013-55.308-2.829-3.543-5.583-7.308-8.21-11.303-1.759-2.675-5.099-3.829-8.12-2.77-13.615 4.774-26.651 10.808-39.536 18.074-8.05 4.539-11.684 7.189-18.515 7.747-40.255 3.291-60.572 28.215-70.68 55.398 19.37 38.049 48.39 70.358 83.832 93.717.001-13.305.001-31.577.001-52.825z" fill="#9b4d2f"/><path d="m304.397 335.621c-13.807 10.723-30.847 16.546-48.396 16.546-10.047 0-19.924-1.917-29.126-5.561-4.623 2.04-17.909 9.21-17.775 24.068 13.533 22.31 29.979 34.393 46.9 34.393 17.549 0 34.589-12.994 48.396-36.917 8.692-15.059 17.879-34.74 26.304-58.954-8.425 10.855-17.611 19.676-26.303 26.425z" fill="#9b4d2f"/><path d="m228.921 347.393c.005-.004.01-.008.016-.012-7.634-2.779-14.843-6.721-21.333-11.76-8.692-6.749-17.878-15.571-26.303-26.424 8.425 24.214 17.612 43.896 26.303 58.954 1.035 1.793 2.09 3.517 3.16 5.186-2.266-19.043 18.157-25.944 18.157-25.944z" fill="#894029"/><path d="m276.651 218.997-8.412-3.317c-.946-.373-1.991-.416-2.965-.123l-9.694 2.923-9.693-2.923c-.974-.293-2.019-.25-2.965.123l-8.412 3.317c-2.324.916-3.465 3.543-2.549 5.867.914 2.317 3.536 3.467 5.867 2.549l6.951-2.741 9.454 2.851c.916.286 1.871.266 2.697-.001l9.452-2.85 6.951 2.741c2.32.913 4.948-.219 5.867-2.549.917-2.324-.225-4.95-2.549-5.867z" fill="#3d9cea"/><path d="m258.757 234.965h-5.806c-2.498 0-4.523 2.025-4.523 4.523s2.025 4.523 4.523 4.523h5.806c2.498 0 4.523-2.025 4.523-4.523s-2.025-4.523-4.523-4.523z" fill="#3d9cea"/><path d="m280.981 187.103c-.627-.961-1.589-1.62-2.709-1.856l-8.369-1.762c-1.962-.413-3.714.351-4.57 1.993-.028.053-.058.106-.092.157-1.947 3.01-5.558 4.808-9.661 4.808-4.101 0-7.712-1.797-9.659-4.808-.032-.049-.062-.1-.09-.155-.858-1.644-2.609-2.406-4.572-1.994l-8.37 1.761c-2.315.487-3.802 2.768-3.314 5.083.485 2.312 2.765 3.8 5.084 3.315l4.664-.982c.639-.133 1.291.063 1.747.513 3.933 3.885 9.221 5.828 14.511 5.828 5.288-.001 10.578-1.943 14.511-5.827.461-.455 1.113-.648 1.747-.514l4.666.982c2.314.484 4.595-1.001 5.082-3.315.236-1.12.021-2.266-.606-3.227z" fill="#3d9cea"/><path d="m283.747 150.29c0-1.445.271-2.82.753-4.07-1.878.922-3.395 1.966-4.475 2.847-2.519 2.055-6.9 4.661-9.298 6.038-.454.261-.268.953.255.953h.237c2.226 0 4.439.347 6.553 1.043 3.666 1.208 7.174 1.808 10.419 2.006-2.667-1.827-4.444-5.091-4.444-8.817z" fill="#ffdd40"/><path d="m313.58 152.55c-4.38-4.109-8.591-6.481-12.485-7.681.876 1.577 1.382 3.433 1.382 5.421 0 3.248-1.351 6.145-3.463 8.046 3.188-.659 5.676-1.575 7.217-2.277 3.161-1.439 5.552-2.025 6.973-2.263.593-.099.813-.836.376-1.246z" fill="#ffdd40"/><path d="m283.912 146.519c-.534 1.22-.832 2.567-.832 3.984 0 3.667 1.986 6.869 4.939 8.594 4.26.278 8.07-.141 11.191-.803 2.294-1.822 3.767-4.634 3.767-7.792 0-2.069-.632-3.989-1.712-5.581-7.135-2.256-13.219-.572-17.353 1.598z" fill="#6c5475"/><circle cx="292.926" cy="151.127" fill="#543e5b" r="3.813"/><path d="m322.007 138.427c-.57-3.746-2.84-12.453-11.698-14.466-8.944-2.033-27.805 1.799-35.44 3.525-2.034.46-3.646 2.007-4.192 4.02l-1.573 5.801c-.133.493.32.943.812.805 5.789-1.624 32.445-8.833 40.566-6.228 6.192 1.986 9.373 5.082 10.779 6.868.266.34.811.102.746-.325z" fill="#543e5b"/><path d="m228.253 150.29c0-1.445-.27-2.82-.753-4.07 1.878.922 3.395 1.966 4.475 2.847 2.519 2.055 6.9 4.661 9.298 6.038.454.261.268.953-.255.953h-.237c-2.226 0-4.439.347-6.553 1.043-3.666 1.208-7.174 1.808-10.419 2.006 2.667-1.827 4.444-5.091 4.444-8.817z" fill="#ffdd40"/><path d="m198.42 152.55c4.38-4.109 8.591-6.481 12.485-7.681-.876 1.577-1.382 3.433-1.382 5.421 0 3.248 1.351 6.145 3.463 8.046-3.188-.659-5.676-1.575-7.217-2.277-3.161-1.439-5.552-2.025-6.973-2.263-.592-.099-.813-.836-.376-1.246z" fill="#ffdd40"/><path d="m228.088 146.519c.534 1.22.832 2.567.832 3.984 0 3.667-1.986 6.869-4.939 8.594-4.26.278-8.07-.141-11.191-.803-2.294-1.822-3.767-4.634-3.767-7.792 0-2.069.632-3.989 1.712-5.581 7.135-2.256 13.219-.572 17.353 1.598z" fill="#6c5475"/><circle cx="219.074" cy="151.127" fill="#543e5b" r="3.813"/><path d="m189.993 138.427c.57-3.746 2.84-12.453 11.698-14.466 8.944-2.033 27.805 1.799 35.44 3.525 2.034.46 3.646 2.007 4.192 4.02l1.573 5.801c.134.493-.32.943-.811.805-5.789-1.624-32.445-8.833-40.566-6.228-6.192 1.986-9.373 5.082-10.779 6.868-.267.34-.812.102-.747-.325z" fill="#543e5b"/><path d="m302.953 82.162c.106.052.212.103.32.153 5.66 2.634 12.397.194 15.407-5.275 3.694-6.712 8.725-18.047 9.124-30.539.136-4.271-5.105-6.451-8.119-3.423l-19.726 19.818c-5.759 5.787-4.328 15.656 2.994 19.266z" fill="#9bd8f9"/><path d="m209.047 82.162c-.106.052-.212.103-.32.153-5.66 2.634-12.397.194-15.407-5.275-3.694-6.712-8.725-18.047-9.124-30.539-.136-4.271 5.105-6.451 8.119-3.423l19.726 19.818c5.759 5.787 4.328 15.656-2.994 19.266z" fill="#73c3f9"/><path d="m298.393 114.691c.095.047.192.093.289.139 5.11 2.378 11.193.175 13.91-4.763 3.335-6.06 7.878-16.294 8.237-27.573.123-3.856-4.609-5.825-7.33-3.091l-17.81 17.893c-5.199 5.225-3.907 14.136 2.704 17.395z" fill="#b9e7fc"/><path d="m213.607 114.691c-.095.047-.192.093-.289.139-5.11 2.378-11.193.175-13.91-4.763-3.335-6.06-7.878-16.294-8.238-27.573-.123-3.856 4.609-5.825 7.33-3.091l17.81 17.893c5.2 5.225 3.908 14.136-2.703 17.395z" fill="#9bd8f9"/><path d="m398.778 67.89c-37.723 22.861 7.874 81.193-.241 116.828-6.153 27.022-54.603 80.331 10.325 101.331 45.23 14.629 64.431 37.592 79.836 57.75 7.976-24.156 12.303-49.97 12.303-76.801.001-82.034-40.323-154.642-102.223-199.108z" fill="#70f2a4"/><path d="m113.222 67.89c37.723 22.861-7.874 81.193.241 116.828 6.153 27.022 54.603 80.331-10.325 101.331-45.23 14.629-64.431 37.592-79.836 57.75-7.976-24.156-12.303-49.97-12.303-76.801-.001-82.034 40.323-154.642 102.223-199.108z" fill="#70f2a4"/><path d="m405.112 386.981c-5.37-5.655-14.9-1.808-14.9 5.991v79.018c14.075-9.235 27.14-19.881 38.997-31.736-2.782-25.672-14.288-42.944-24.097-53.273z" fill="#9b4d2f"/><circle cx="275.472" cy="33.67" fill="#3b8be2" r="8"/><circle cx="246.477" cy="36.132" fill="#3b8be2" r="14.136"/><ellipse cx="242.174" cy="57.359" fill="#3b8be2" rx="9.833" ry="9.833" transform="matrix(.923 -.385 .385 .923 -3.416 97.655)"/></g></svg>