<svg id="Layer_1" enable-background="new 0 0 512 512" height="512" viewBox="0 0 512 512" width="512" xmlns="http://www.w3.org/2000/svg"><g><path d="m471.798 383.087c18.626-34.552 29.204-74.084 29.204-116.089 0-135.311-109.691-245.002-245.002-245.002s-245.002 109.691-245.002 245.002c0 42.005 10.578 81.537 29.204 116.089z" fill="#ffc839"/><path d="m162.943 177.729c-21.612-25.697-28.622-58.455-22.723-88.747-10.074.686-18.109 9.119-18.109 19.359v22.097c0 24.852 18.482 45.593 42.378 49.168-.512-.628-1.024-1.257-1.546-1.877z" fill="#1ba552"/><g><path d="m250.029 305.629c.076.752.128 1.509.128 2.277v15.04l2.145-1.021c4.764-2.269 8.462.699 9.54 1.021v-15.039c0-9.745 6.244-18.369 15.538-21.46 16.569-5.511 26.388-14.298 30.766-19.046 1.58-1.713 3.506-3.063 5.631-4.003-2.693-4.861-4.677-9.956-5.835-15.218-8.574 10.685-18.362 17.548-27.115 21.944-7.749 3.892-15.652 5.748-23.433 5.9l.404 1.982c-.111 1.68-1.19 14.893-7.769 27.623z" fill="#38c674"/></g><g><path d="m203.853 267.4c4.378 4.748 14.196 13.535 30.766 19.046 9.294 3.091 15.538 11.715 15.538 21.46v.677c8.392-14.626 9.15-30.685 9.15-30.685l-.394-1.934c-20.768 1.001-40.798-10.266-54.855-27.784-1.161 5.272-3.141 10.368-5.826 15.223 2.121.938 4.043 2.286 5.621 3.997z" fill="#2ab663"/></g><path d="m360.052 53.066c-11.78.915-26.35 6.097-41.531 21.277-22.99 22.99-54.328 30.852-83.045 23.836l.439 1.925c-2.306 2.021-8.551 8.627-5.496 18.732l-7.956 29.366 2.368 12.983c-.262 1.107-.912 4.551-.053 8.782.925 4.557 3.832 10.913 12.389 15.562l4.28 12.588c-2.014 3.85-10.389 20.785-5.363 27.143v10.068c-.316 2.231-3.649 30.223 23.223 42.568 7.4-.442 14.73-2.365 21.521-5.775 13.959-7.011 30.557-20.295 40.652-45.357 8.329-20.678 19.05-36.569 28.725-48.073 16.313-19.397 25.037-44.057 25.037-69.401 0-.441 0-.882 0-1.322 0-19.791-5.464-38.685-15.19-54.902z" fill="#50dd89"/><path d="m237.584 235.439v-10.744c-5.694-5.694 5.492-26.447 5.492-26.447l-4.68-13.763c-16.354-8.516-12.03-23.245-12.03-23.245l-2.366-12.972 7.982-29.462c-3.768-11.57 5.602-18.128 5.602-18.128l-.487-2.134c-15.886-3.56-31.041-11.623-43.618-24.2-14.971-14.971-29.346-20.214-41.039-21.233-10.016 16.551-15.682 35.879-15.682 56.183v1.436c0 24.911 9.003 48.9 25.037 67.965 9.675 11.504 20.396 27.395 28.725 48.073 10.094 25.062 26.693 38.346 40.652 45.357 9.785 4.914 20.69 6.744 31.311 5.494-29.988-11.784-24.899-42.18-24.899-42.18z" fill="#38c674"/><path d="m229.001 116.624c7.831 4.53 11.033 14.486 6.755 22.458-1.815 3.383-4.883 6.483-9.955 8.399-16.599 6.269-56.843-26.981-56.843-26.981-2.988-6.647 1.471-14.22 8.728-14.898 12.534-1.173 31.786-.274 51.315 11.022z" fill="#70f2a4"/><g><path d="m226.105 229.521c18.786 12.457 41.004 12.457 59.79 0 1.188-.788 2.392-1.626 3.607-2.517 3.292-2.413.399-7.518-3.384-5.988-.074.03-.149.06-.223.09-18.786 7.551-41.004 7.551-59.79 0-.074-.03-.148-.06-.223-.09-3.784-1.53-6.676 3.575-3.385 5.988 1.216.891 2.42 1.729 3.608 2.517z" fill="#1ba552"/></g><path d="m226.373 148.544c-5.428-11.589-19.72-27.039-57.367-28.044-2.022-.054-3.492 1.93-2.836 3.844 3.094 9.022 14.08 30.959 48.656 35.93 9.654-1.732 11.277-9.211 11.547-11.73z" fill="#856ee5"/><path d="m196.28 124.592c-5.561 2.912-9.361 8.729-9.361 15.442 0 6.146 3.189 11.538 7.995 14.642 2.05.918 4.229 1.771 6.563 2.532.936.156 1.891.256 2.872.256 9.297 0 16.872-7.285 17.381-16.454-4.881-6.228-12.753-12.472-25.45-16.418z" fill="#5c45bf"/><path d="m212.641 159.915c4.206.713 8.758 1.183 13.725 1.324 1.828.052 3.277-1.577 2.968-3.379-.435-2.537-1.389-6.257-3.477-10.38h-.008c0 .001.062 11.303-13.208 12.435z" fill="#1ba552"/><ellipse cx="204.37" cy="140.609" fill="#3b2aa0" rx="5.492" ry="9.047"/><path d="m214.321 145.714c0 1.773-1.437 3.209-3.209 3.209-1.773 0-3.209-1.437-3.209-3.209s1.437-3.209 3.209-3.209c1.772-.001 3.209 1.436 3.209 3.209z" fill="#7255ce"/><ellipse cx="268.923" cy="189.202" fill="#1ba552" rx="5.492" ry="9.047"/><ellipse cx="243.076" cy="189.202" fill="#1ba552" rx="5.492" ry="9.047"/><path d="m318.202 13.698-.073.208h-124.326c-17.916 9.504-32.553 23.869-42.511 41.116 11.894.771 26.723 5.856 42.188 21.321 34.96 34.96 89.807 35.235 125.042 0 15.662-15.662 30.673-20.68 42.642-21.35-9.953-17.405-24.75-31.868-42.962-41.295z" fill="#5c45bf"/><path d="m318.13 13.659c-4.658-2.406-9.527-4.499-14.608-6.209-13.578-4.568-29.347-7.45-47.522-7.45-15.753 0-29.698 2.165-41.975 5.716-7.113 2.057-13.872 4.821-20.222 8.19-.9 3.601-1.382 7.333-1.382 11.16 0 29.676 28.465 53.733 63.579 53.733s63.579-24.057 63.579-53.733c0-3.915-.508-7.729-1.449-11.407z" fill="#7255ce"/><ellipse cx="279.069" cy="25.2" fill="#856ee5" rx="23.069" ry="16.926"/><path d="m368.865 296.029c-6.985-3.497-14.052-6.63-21.277-9.38-.124 1.144-.623 2.202-1.475 3.003-34.334 32.289-67.511 41.08-80.182 43.36-.694.125-1.198.729-1.198 1.433v39.478c0 4.816-3.918 8.734-8.734 8.734s-8.734-3.918-8.734-8.734v-39.478c0-.704-.504-1.308-1.198-1.433-6.986-1.257-20.214-4.504-36.424-12.568.033.424.057.842.105 1.274-4.525.859-18.895 4.007-33.472 11.631-23.062 12.062-35.252 29.616-35.252 50.764v99.257c34.288 18.263 73.417 28.63 114.976 28.63 72.303 0 137.281-31.327 182.125-81.14v-43.978z" fill="#6c5475"/><path d="m142.525 384.114c0-50.268 68.895-61.168 68.895-61.168-.086-.585-.138-1.151-.197-1.72-13.551-6.56-29.317-16.507-45.337-31.573-.852-.801-1.352-1.859-1.475-3.003-7.225 2.75-14.292 5.883-21.277 9.38l-69.26 90.852v43.978c19.445 21.599 42.68 39.715 68.651 53.316 0-19.593 0-62.656 0-100.062z" fill="#543e5b"/><path d="m320.953 260.382c-5.265 0-10.34 2.13-13.909 6.001-6 6.506-16.079 13.965-30.137 18.64-9.872 3.283-16.564 12.479-16.564 22.883v27.355s42.382-2.805 86.768-44.548c2.56-2.408 2.664-6.443.201-8.951l-17.237-17.554c-2.404-2.447-5.691-3.826-9.122-3.826z" fill="#876d93"/><path d="m235.093 285.023c-.713-.237-1.409-.486-2.102-.737-5.875 2.675-25.895 13.613-23.242 37.434-.184.035-.39.075-.605.118 24.662 12.237 42.513 13.424 42.513 13.424v-27.355c0-10.405-6.692-19.601-16.564-22.884z" fill="#876d93"/><path d="m204.956 266.383c-3.569-3.871-8.644-6.001-13.909-6.001-3.431 0-6.718 1.379-9.121 3.827l-17.237 17.554c-2.462 2.508-2.359 6.543.201 8.951 16.475 15.495 32.673 25.621 46.531 32.233-4.105-27.936 23.673-37.923 23.673-37.923-14.059-4.676-24.139-12.134-30.138-18.641z" fill="#6c5475"/><path d="m471.798 383.087c-6.652-32.711-25.027-69.539-73.675-73.516-6.569-.537-10.063-3.085-17.805-7.45-3.8-2.143-7.614-4.17-11.452-6.091-6.522 12.833-13.062 36.479 12.351 55.817 29.634 22.55 20.041 65.398 56.909 79.017 13.028-14.471 24.357-30.499 33.672-47.777z" fill="#876d93"/><path d="m131.682 302.121c-7.741 4.365-11.236 6.913-17.805 7.45-48.648 3.977-67.024 40.805-73.675 73.516 9.314 17.278 20.644 33.306 33.672 47.777 36.869-13.619 27.275-56.467 56.909-79.017 25.413-19.338 18.873-42.984 12.351-55.817-3.837 1.921-7.651 3.948-11.452 6.091z" fill="#6c5475"/><path d="m264.734 373.924c0 4.816-3.918 8.734-8.734 8.734s-8.734-3.918-8.734-8.734v-16.104h-.895v153.974c3.196.124 6.403.206 9.629.206s6.433-.082 9.629-.206v-153.974h-.895z" fill="#fb7ac0"/><path d="m377.165 186.945h-13.8c-5.007 0-9.103-4.096-9.103-9.103v-92.102c0-5.006 4.096-9.103 9.103-9.103h13.8c12.573 0 22.86 10.287 22.86 22.86v64.587c0 12.574-10.287 22.861-22.86 22.861z" fill="#6c5475"/><path d="m371.564 105.329h-51.573c-1.745 2.036-4.696 6.218-4.355 10.945.208 2.882 1.572 5.453 4.062 7.669-1.818 1.925-4.506 5.522-4.553 10.004-.036 3.493 1.51 6.786 4.601 9.809-1.751 1.751-4.29 4.985-4.4 9.098-.087 3.315 1.4 6.469 4.409 9.399h51.809c15.654 0 28.462-12.808 28.462-28.461-.001-15.655-12.808-28.463-28.462-28.463z" fill="#deeeff"/><path d="m322.436 105.329h-28.639c-15.751 0-28.507 12.793-28.461 28.545.046 15.687 12.775 28.379 28.461 28.379h28.639c-11.932-9.75 0-18.491 0-18.491-12.38-10.185 0-19.942 0-19.942-11.335-7.893 0-18.491 0-18.491z" fill="#bec8f7"/><path d="m359.632 123.82h-40.063c.045.04.083.083.128.123-1.818 1.925-4.506 5.522-4.553 10.004-.036 3.493 1.51 6.786 4.601 9.809-.002.002-.004.005-.006.007h39.892c-5.405 0-9.971-4.566-9.971-9.971.001-5.406 4.567-9.972 9.972-9.972z" fill="#fb7ac0"/><path d="m285.241 133.791c0 5.507 4.464 9.971 9.971 9.971h27.224c-12.38-10.185 0-19.942 0-19.942h-27.224c-5.507 0-9.971 4.464-9.971 9.971z" fill="#f964b2"/><path d="m381.535 133.791c0-5.405-4.566-9.971-9.971-9.971h-14.397c-5.405 0-9.971 4.566-9.971 9.971s4.566 9.971 9.971 9.971h14.397c5.405 0 9.971-4.566 9.971-9.971z" fill="#6c5475"/><path d="m370.771 172.377c-3.955 0-7.163 3.207-7.163 7.163v17.926c0 12.907-6.256 24.607-16.479 31.763l.18.193s-2.612 11.522 9.574 10.443c13.1-9.868 21.05-25.368 21.05-42.398v-17.926c.001-3.957-3.206-7.164-7.162-7.164z" fill="#deeeff"/><path d="m358.446 238.641c-12.616 1.353-9.941-10.414-9.941-10.414l-.012-.012c-2.827 2.169-5.974 3.993-9.418 5.36-4.192 1.665-8.602 3.037-13.107 4.079-3.854.892-6.256 4.739-5.364 8.593.766 3.311 3.713 5.549 6.973 5.549.534 0 1.077-.059 1.621-.185 5.203-1.204 10.304-2.792 15.162-4.72 5.198-2.063 9.924-4.864 14.086-8.25z" fill="#bec8f7"/><g><path d="m302.727 255.749c-4.615 0-8.356-3.741-8.356-8.356s3.741-8.356 8.356-8.356c7.945 0 15.674-.857 22.972-2.545 4.493-1.042 8.986 1.76 10.025 6.257 1.041 4.496-1.76 8.985-6.257 10.025-8.532 1.974-17.528 2.975-26.74 2.975z" fill="#f964b2"/></g><path d="m420.56 406.902c-6.745-8.842-20.864-4.065-20.864 7.056v51.469c12.337-8.95 23.814-19.013 34.266-30.058v-3.274c-3.091-9.789-8.127-18.277-13.402-25.193z" fill="#543e5b"/><path d="m256 357.493c4.783 0 8.881-3.031 10.5-7.262v-20.151c0-5.775-4.725-10.5-10.5-10.5s-10.5 4.725-10.5 10.5v20.151c1.619 4.231 5.717 7.262 10.5 7.262z" fill="#deeeff"/><path d="m256 356.746c-5.775 0-10.5-4.725-10.5-10.5v29.333c0 5.775 4.725 10.5 10.5 10.5s10.5-4.725 10.5-10.5v-29.333c0 5.775-4.725 10.5-10.5 10.5z" fill="#bec8f7"/><g fill="#ffdd40"><path d="m141.025 246.645c12.5-39.737-46.405-57.263-46.405-96.989 0-22.621-9.431-39.575-17.555-49.99-40.972 43.795-66.067 102.629-66.067 167.333 0 23.896 3.427 46.989 9.808 68.822 19.215-66.246 109.065-53.717 120.219-89.176z"/><path d="m427.635 156.371c3.376 23.611-3.728 34.697-13.129 43.21-13.018 11.79-18.938 29.529-16.184 46.876 3.043 19.171 16.389 35.083 34.707 41.504 22.27 7.806 46.175 17.577 60.645 38.708 4.782-19.1 7.328-39.087 7.328-59.67 0-60.393-21.864-115.67-58.091-158.381-8.134 10.866-18.22 27.163-15.276 47.753z"/></g></g></svg>