<svg id="Layer_1" enable-background="new 0 0 512 512" height="512" viewBox="0 0 512 512" width="512" xmlns="http://www.w3.org/2000/svg"><g><path d="m31.822 365.954 448.884-1.207c13.045-29.947 20.296-62.999 20.296-97.749 0-135.311-109.691-245.002-245.002-245.002s-245.002 109.691-245.002 245.002c0 35.218 7.445 68.692 20.824 98.956z" fill="#49b1f7"/><path d="m425.755 153.649c11.544 0 20.936 9.392 20.936 20.934v76.134s8.996 9.004 18 0v-76.134c0-21.469-17.467-38.934-38.936-38.934-4.971 0-9 4.029-9 9s4.029 9 9 9z" fill="#d3dcfb"/><path d="m437.382 302.282c1.174 0 2.367-.23 3.515-.719 14.454-6.14 23.794-20.215 23.794-35.856v-16.989c-9.004 9.004-18 0-18 0v16.989c0 8.406-5.037 15.978-12.831 19.29-4.575 1.943-6.708 7.228-4.765 11.802 1.455 3.427 4.785 5.483 8.287 5.483z" fill="#bec8f7"/><path d="m200.582 94.382h-65.589c-23.659 0-43.017 19.357-43.017 43.017v129.317h108.606z" fill="#a8b7ef"/><path d="m377.007 94.382h-66.669v172.333h109.686v-129.317c0-23.659-19.358-43.016-43.017-43.016z" fill="#bec8f7"/><path d="m406.844 181.626c10.143 0 18.859-6.397 22.327-15.355v-48.431c0-12.28-10.047-22.327-22.327-22.327-12.28 0-22.327 10.047-22.327 22.327v48.432c3.468 8.957 12.184 15.354 22.327 15.354z" fill="#deeeff"/><path d="m105.156 181.626c10.143 0 18.859-6.397 22.327-15.355v-48.431c0-12.28-10.047-22.327-22.327-22.327-12.28 0-22.327 10.047-22.327 22.327v48.432c3.468 8.957 12.184 15.354 22.327 15.354z" fill="#deeeff"/><path d="m406.844 180.02c-12.28 0-22.327-10.047-22.327-22.327v59.399c0 12.28 10.047 22.327 22.327 22.327 12.28 0 22.327-10.047 22.327-22.327v-59.399c0 12.28-10.047 22.327-22.327 22.327z" fill="#d3dcfb"/><path d="m105.156 180.02c-12.28 0-22.327-10.047-22.327-22.327v59.399c0 12.28 10.047 22.327 22.327 22.327 12.28 0 22.327-10.047 22.327-22.327v-59.399c0 12.28-10.047 22.327-22.327 22.327z" fill="#d3dcfb"/><path d="m99.321 263.934c-10.222-19.682-5.533-44.008 11.952-58.445 18.042-14.896 44.739-14.301 62.099 1.385 4.099 3.703 10.422 3.383 14.124-.716 3.702-4.098 3.382-10.422-.716-14.124-12.021-10.86-27.56-17.04-43.755-17.401-16.214-.376-31.995 5.12-44.486 15.435-24.422 20.165-31.282 53.909-17.713 81.616 3.857-1.774 10.015-4.461 18.495-7.75z" fill="#ffdd40"/><path d="m339.711 209.827c-24.8 10.83-53.747 16.555-83.711 16.555-6.91 0-13.762-.318-20.526-.92.282.481.55.964.837 1.445-2.499 2.405-8.19 9.413-2.559 19.33-1.182.531-2.306 1.114-3.371 1.744 37.851 7.426 79.22-1.535 108.58-26.902 3.387-5.398 6.443-11.146 9.164-17.172-2.39 2.523-5.231 4.531-8.414 5.92z" fill="#876d93"/><path d="m163.877 203.91c2.421 5.361 5.102 10.506 8.052 15.374 17.009 15.436 38.341 25.148 60.791 29.138 1.902-1.006 3.242-1.463 3.242-1.463-8.15-12.173 2.28-19.751 2.28-19.751-.322-.532-.617-1.06-.932-1.591-23.232-1.876-45.424-7.232-65.022-15.79-3.181-1.389-6.022-3.395-8.411-5.917z" fill="#6c5475"/><path d="m142.229 128.632c0-20.588 4.294-40.045 11.905-57.342-2.749.971-5.429 2.015-8.015 3.144-3.558 1.553-6.491 4.242-8.448 7.595-7.82 13.396-12.368 29.404-12.368 46.603 0 17.2 4.549 33.206 12.368 46.603 1.957 3.353 4.891 6.042 8.449 7.595 2.586 1.129 5.266 2.173 8.015 3.144-7.612-17.297-11.906-36.754-11.906-57.342z" fill="#6c5475"/><path d="m369.771 128.632c0-20.588-4.293-40.045-11.905-57.342 2.749.971 5.429 2.015 8.015 3.144 3.558 1.553 6.491 4.242 8.448 7.595 7.82 13.396 12.368 29.404 12.368 46.603 0 17.2-4.549 33.206-12.368 46.603-1.957 3.353-4.891 6.042-8.449 7.595-2.586 1.129-5.266 2.173-8.015 3.144 7.612-17.297 11.906-36.754 11.906-57.342z" fill="#a98bbc"/><path d="m435.319 278.018 1.663-5.992s-28.646-14.909-86.89-30.477c0 0-25.04 51.13-93.632 51.368-17.728-.061-32.539-3.527-44.768-8.626l2.882 10.044c-4.561 3.247-23.068 18.502-10.176 44.289-1.857 1.999-6.207 7.378-5.777 13.509.268 3.826 2.321 7.199 6.105 10.035v85.66c-1.398 1.4-5.136 5.671-5.336 11.484-.139 4.044 1.449 7.943 4.725 11.609-2.601 2.662-8.781 9.996-9.12 19.86-.171 4.979 1.181 9.845 4.016 14.545 18.287 4.362 37.367 6.674 56.989 6.674 52.312 0 100.787-16.406 140.583-44.338v-24.074c-2.688-15.66-6.988-31.663-4.645-47.408 8.273-55.583 33.754-102.12 43.381-118.162z" fill="#ff8f4a"/><path d="m162.828 241.55c-58.244 15.568-86.89 30.477-86.89 30.477l1.663 5.992c9.627 16.042 35.108 62.579 43.381 118.162 2.343 15.745-1.957 31.748-4.645 47.408v24.711c25.211 17.524 53.869 30.43 84.75 37.507-12.795-19.208 5.139-34.836 5.139-34.836-12.023-12.023 0-22.5 0-22.5v-87.068c-13.803-9.645 0-22.501 0-22.501-15.136-28.812 10.09-43.935 10.09-43.935l-2.857-9.957c-36.395-14.404-50.631-43.46-50.631-43.46z" fill="#fe7f46"/><path d="m244.959 292.375v219.365c3.661.163 7.34.26 11.041.26 3.69 0 7.356-.097 11.006-.258v-219.285c-3.397.284-6.907.448-10.546.46-3.981-.013-7.81-.205-11.501-.542z" fill="#fcb686"/><path d="m170.144 387.333h-40.822v-132.438c0-3.243 2.108-6.109 5.204-7.075l25.999-8.112c4.772-1.489 9.619 2.077 9.619 7.075z" fill="#fc6e42"/><path d="m341.821 387.333h40.822v-132.438c0-3.243-2.108-6.109-5.204-7.075l-25.999-8.112c-4.772-1.489-9.619 2.077-9.619 7.075z" fill="#fc6e42"/><path d="m393.95 384.527h-274.98c.746 3.836 1.426 7.719 2.012 11.654 1.44 9.672 1.877 19.441 1.381 29.168h268.194c-.496-9.727-.059-19.496 1.381-29.168.585-3.935 1.266-7.818 2.012-11.654z" fill="#6c5475"/><path d="m305.774 338.903h-99.548c-.721 0-1.435.028-2.145.07-1.989 2.224-5.868 7.352-5.46 13.16.268 3.826 2.321 7.199 6.105 10.035v85.66c-1.398 1.4-5.136 5.671-5.336 11.484-.138 4.037 1.445 7.929 4.708 11.589.704.042 1.413.069 2.128.069h99.548c19.677 0 35.686-16.009 35.686-35.685v-60.697c0-19.676-16.009-35.685-35.686-35.685z" fill="#d3dcfb"/><path d="m170.54 374.589v60.697c0 19.677 16.008 35.685 35.686 35.685-12.023-12.023 0-22.5 0-22.5v-87.068c-13.803-9.645 0-22.501 0-22.501-19.677.001-35.686 16.01-35.686 35.687z" fill="#bec8f7"/><path d="m60.82 415.078c15.719 20.686 34.649 38.8 56.053 53.594l3.738-16.101c4.291-18.484 5.241-37.621 2.447-56.39-10.277-69.051-47.12-124.154-47.12-124.154-15.555 27.519-28.301 57.558-38.696 87.224z" fill="#fc6e42"/><path d="m414.718 337.822c3.285 3.573 7.961 5.385 13.896 5.385 8.165 0 24.255 20.26 39.567 42.891l10.546-17.977c-10.921-32.513-24.636-65.829-41.744-96.095 0 0-14.058 21.032-27.229 53.383.292 3.39 1.367 8.502 4.964 12.413z" fill="#fe7f46"/><path d="m469.03 384.649c-14.979-22.114-31.465-42.943-40.417-42.943-19.078 0-17.421-19.775-17.42-19.784-8.659 20.649-17.171 46.311-21.33 74.258-2.793 18.769-1.843 37.906 2.447 56.39l3.61 15.552c21.072-14.687 39.723-32.601 55.246-53.022z" fill="#fc6e42"/><path d="m75.008 333.41-25.074-8.094c-1.66-.536-3.46.306-4.105 1.927-2.068 5.193-4.037 10.401-5.954 15.607 10.3 3.06 17.821 12.58 17.821 23.873 0 9.886-5.757 18.428-14.101 22.456 5.199 9.019 10.965 17.667 17.233 25.915 1.378-1.397 2.468-3.12 3.112-5.115l19.438-60.221c2.203-6.825-1.544-14.145-8.37-16.348z" fill="#deeeff"/><path d="m466.982 326.969c-.646-1.62-2.445-2.461-4.105-1.925l-25.919 8.366c-6.826 2.203-10.573 9.522-8.37 16.349l19.438 60.221c.647 2.004 1.744 3.734 3.132 5.135 11.748-15.456 21.699-32.348 29.549-50.368-4.154-12.531-8.708-25.194-13.725-37.778z" fill="#6c5475"/><g><path d="m164.85 339.966h-30.234c-8.26 0-14.98-6.72-14.98-14.98v-24.348c0-8.26 6.72-14.98 14.98-14.98h30.234c8.259 0 14.979 6.72 14.979 14.98v24.348c0 8.261-6.719 14.98-14.979 14.98zm-30.234-42.891c-1.932 0-3.564 1.632-3.564 3.564v24.348c0 1.932 1.632 3.563 3.564 3.563h30.234c1.931 0 3.562-1.632 3.562-3.563v-24.348c0-1.932-1.632-3.564-3.562-3.564z" fill="#fca163"/></g><g><path d="m170.144 318.521h-40.822c-3.152 0-5.708-2.556-5.708-5.708s2.556-5.708 5.708-5.708h40.822c3.152 0 5.708 2.556 5.708 5.708s-2.556 5.708-5.708 5.708z" fill="#fcb686"/></g><g><path d="m377.349 339.966h-30.234c-8.26 0-14.98-6.72-14.98-14.98v-24.348c0-8.26 6.72-14.98 14.98-14.98h30.234c8.259 0 14.979 6.72 14.979 14.98v24.348c0 8.261-6.719 14.98-14.979 14.98zm-30.234-42.891c-1.932 0-3.564 1.632-3.564 3.564v24.348c0 1.932 1.632 3.563 3.564 3.563h30.234c1.931 0 3.562-1.632 3.562-3.563v-24.348c0-1.932-1.632-3.564-3.562-3.564z" fill="#fca163"/></g><g><path d="m382.643 318.521h-40.822c-3.152 0-5.708-2.556-5.708-5.708s2.556-5.708 5.708-5.708h40.822c3.152 0 5.708 2.556 5.708 5.708s-2.556 5.708-5.708 5.708z" fill="#fcb686"/></g><g><path d="m255.983 332.488c-6.088 0-11.024-4.936-11.024-11.024v-25.82c0-6.088 4.936-11.024 11.024-11.024s11.024 4.936 11.024 11.024v25.82c-.001 6.088-4.937 11.024-11.024 11.024z" fill="#deeeff"/></g><path d="m343.273 215.154c-46.313 44.48-127.314 44.468-173.616.01-4.463-4.285-12.273-3.747-15.402 2.619l-3.591 7.308s.56 2.318 2.057 6.086c19.07 30.745 55.545 53.713 103.769 53.88 47.473-.165 84.423-22.773 103.716-53.895 1.5-3.774 2.061-6.096 2.061-6.096l-3.596-7.301c-3.118-6.332-10.915-6.917-15.398-2.611z" fill="#deeeff"/><path d="m221.852 278.27c-9.177-23.445 14.11-31.311 14.11-31.311 0-.001-.001-.001-.001-.001-24.648-3.761-48.145-14.357-66.304-31.794-4.463-4.286-12.274-3.747-15.402 2.619l-3.591 7.308s.56 2.318 2.057 6.086c14.249 22.973 38.219 41.599 69.543 49.62.019-.906-.109-1.753-.412-2.527z" fill="#d3dcfb"/><path d="m40.579 340.944c-3.108 8.36-6.022 16.716-8.757 25.01 3.803 8.603 8.086 16.944 12.817 24.993 9.154-4.241 15.506-13.504 15.506-24.256 0-12.279-8.284-22.616-19.566-25.747z" fill="#bec8f7"/><path d="m256 0c-.751 0-1.499.02-2.247.039.022.019.051.044.072.062-7.709 8.685-8.651 19.747.107 29.29-.46.501-.911 1.019-1.367 1.529 1.144-.017 2.287-.039 3.434-.039 28.271 0 55.632 5.101 79.464 14.773-19.475-28.006-47.855-45.654-79.463-45.654z" fill="#d3dcfb"/><path d="m256 0c-31.608 0-59.989 17.648-79.464 45.655 23.432-9.51 50.279-14.589 78.046-14.757.907-1 1.419-1.516 1.419-1.516-15.307-15.306-.001-29.382-.001-29.382z" fill="#bec8f7"/><path d="m291.238 47.277c25.243 18.436 57.345 50.361 79.243 102.477 1.005-6.876 1.545-13.928 1.545-21.123 0-26.203-6.93-50.59-18.843-71-2.982-5.108-7.451-9.205-12.871-11.571-22.458-9.806-49.139-15.803-77.884-16.585 8.702 4.478 18.537 10.299 28.81 17.802z" fill="#876d93"/><path d="m316.065 137.843c-17.944-24.995-39.371-46.671-63.683-64.428-6.967-5.088-13.769-9.54-20.285-13.46-14.622 26.4-23.042 58.039-21.068 89.316 1.651 26.174 10.157 52.288 25.282 77.637-.039.038-.082.08-.123.121 6.487.552 13.094.854 19.811.854 31.195 0 60.188-6.146 84.312-16.679 4.505-1.967 8.339-5.142 11.221-9.086-9.65-23.314-21.503-44.826-35.467-64.275z" fill="#543e5b"/><path d="m233.525 60.811c-17.652-10.77-33.228-17.513-43.924-21.456-6.217 1.978-12.206 4.214-17.913 6.707-5.421 2.367-9.89 6.463-12.871 11.571-11.913 20.409-18.843 44.796-18.843 71s6.93 50.59 18.843 70.999c2.982 5.108 7.451 9.205 12.871 11.571 19.477 8.504 42.131 14.144 66.552 16.002-42.906-70.966-24.12-131.602-4.715-166.394z" fill="#45304c"/><path d="m265.935 29.605c-3.286-.139-6.595-.224-9.935-.224-.695 0-1.384.014-2.077.021-8.511 9.273-16.148 20.055-22.549 31.852 38.496 23.225 87.788 66.043 119.111 142.225.996-1.204 1.903-2.487 2.697-3.848 9.113-15.611 15.296-33.555 17.706-52.855-28.338-65.997-73.319-100.274-104.953-117.171z" fill="#6c5475"/><path d="m187.331 40.095c10.607 3.788 26.831 10.619 45.469 22.021 11.364-20.775 23.2-32.734 23.2-32.734-24.718 0-48.042 3.87-68.669 10.713z" fill="#543e5b"/><path d="m305.774 361.404h-50.314v87.068h50.314c7.252 0 13.186-5.934 13.186-13.185v-60.697c0-7.253-5.934-13.186-13.186-13.186z" fill="#deeeff"/><path d="m256.46 361.404h-50.234c-7.252 0-13.186 5.933-13.186 13.185v60.697c0 7.252 5.934 13.185 13.186 13.185h50.234z" fill="#a8b7ef"/><ellipse cx="285.808" cy="388.762" fill="#49b1f7" rx="12.51" ry="12.51" transform="matrix(.21 -.978 .978 .21 -154.284 586.605)"/><circle cx="285.808" cy="421.113" fill="#ff8f4a" r="12.51"/><g><path d="m374.079 221.073c-4.358-2.152-9.645-.361-11.811 3.993-.073.144-7.381 14.604-24.072 28.825-22.178 18.895-49.689 28.534-81.706 28.644-13.049-.045-25.327-1.694-36.812-4.874-1.75.986-4.428 2.948-5.78 6.277-1.197 2.948-1.092 6.282.309 9.933-.295.067-.622.145-.972.233 12.552 3.675 26.929 6.022 43.256 6.078 45.734-.159 76.271-18.277 93.837-33.448 19.16-16.549 27.433-33.183 27.776-33.882 2.138-4.367.335-9.626-4.025-11.779z" fill="#fca163"/><path d="m150.664 225.09c-2.143-4.378-7.43-6.187-11.805-4.042-4.376 2.143-6.187 7.428-4.042 11.805.342.699 8.615 17.333 27.775 33.882 11.809 10.199 29.494 21.723 53.724 28.233-6.026-12.49 5.535-16.698 5.535-16.698-.001-.003-.002-.006-.003-.008-17.628-4.539-33.4-12.677-47.126-24.371-16.689-14.221-23.997-28.681-24.058-28.801z" fill="#ff8f4a"/><path d="m374.079 221.073c-4.358-2.152-9.645-.361-11.811 3.993-.073.144-7.381 14.604-24.072 28.825-.368.314-.737.624-1.108.933-3.939 3.274-4.271 9.199-.721 12.892 3.193 3.322 8.423 3.641 11.972.702.681-.564 1.344-1.125 1.989-1.682 19.16-16.549 27.433-33.183 27.776-33.882 2.138-4.369.335-9.628-4.025-11.781z" fill="#fcb686"/></g></g></svg>