<svg id="Layer_1" enable-background="new 0 0 512 512" height="512" viewBox="0 0 512 512" width="512" xmlns="http://www.w3.org/2000/svg"><g><path d="m487.457 347.485c8.766-25.212 13.545-52.289 13.545-80.487 0-135.311-109.691-245.002-245.002-245.002s-245.002 109.691-245.002 245.002c0 28.198 4.779 55.276 13.545 80.488z" fill="#ffc839"/><path d="m133.918 107.025c4.22-4.269 3.462-11.559 3.359-12.394l-1.653-6.039c1.449 1.381 2.894 2.971 4.317 4.829 7.841 10.23 7.112 18.151 5.119 22.994-1.592 3.869-1.593 8.242-.003 11.996 1.589 3.752 4.554 6.655 9.208 8.077-1.498 10.447-1.992 19.987-1.706 28.675-21.117-6.476-25.436-28.625-26.045-42.051-.201-4.437-1.189-8.76-2.792-12.872 4.476.164 7.908-.9 10.196-3.215z" fill="#1ba552"/><path d="m116.427 81.024c.002-.14.021-.274.03-.412 5.879-.144 13.782 1.776 21.341 10.237l.954 3.485s2.644 17.651-14.452 17.436c-.771-2.221-1.724-4.385-2.839-6.474-4.293-8.039-5.142-17.432-5.034-24.272z" fill="#2ab663"/><path d="m137.501 92.788c.438.028.858.045 1.249.045 3.242 0 5.609-.893 7.035-2.653 2.167-2.675 1.734-6.721 1.556-7.875l-2.206-2.803c4.194 2.368 7.753 4.902 10.484 7.067-.133 4.352.678 8.553 1.685 12.002 1.812 6.204 2.056 12.767.566 19.056-1.694 7.149-2.942 13.926-3.812 20.359-.661-.195-1.305-.405-1.912-.647-8.408-3.351-11.918-13.125-8.473-21.495 1.955-4.75 2.338-12.036-4.923-21.51-.414-.542-.831-1.049-1.249-1.546z" fill="#38c674"/><path d="m116.42 82.066c.001-.352.001-.702.007-1.042.087-5.54 5.186-9.621 10.614-8.504 8.434 1.736 15.892 5.438 21.713 9.153.001.002 2.747 12.66-10.002 12.66-7.88-10.28-16.287-12.438-22.332-12.267z" fill="#50dd89"/><path d="m378.083 107.025c-4.22-4.269-3.462-11.559-3.359-12.394l1.653-6.039c-1.449 1.381-2.894 2.971-4.317 4.829-7.841 10.23-7.112 18.151-5.119 22.994 1.592 3.869 1.593 8.242.003 11.996-1.589 3.752-4.555 6.655-9.208 8.077 1.497 10.447 1.992 19.987 1.706 28.675 21.117-6.476 25.436-28.625 26.045-42.051.201-4.437 1.19-8.76 2.792-12.872-4.476.164-7.908-.9-10.196-3.215z" fill="#1ba552"/><path d="m395.574 81.024c-.002-.14-.021-.274-.03-.412-5.879-.144-13.782 1.776-21.341 10.237l-.954 3.485s-2.644 17.651 14.452 17.436c.771-2.221 1.724-4.385 2.839-6.474 4.293-8.039 5.142-17.432 5.034-24.272z" fill="#2ab663"/><path d="m374.5 92.788c-.438.028-.858.045-1.25.045-3.242 0-5.609-.893-7.035-2.653-2.167-2.675-1.734-6.721-1.556-7.875l2.206-2.803c-4.194 2.368-7.753 4.902-10.484 7.067.133 4.352-.678 8.553-1.685 12.002-1.812 6.204-2.056 12.767-.566 19.056 1.694 7.149 2.942 13.926 3.812 20.359.661-.195 1.305-.405 1.912-.647 8.408-3.351 11.918-13.125 8.473-21.495-1.955-4.75-2.338-12.036 4.923-21.51.415-.542.832-1.049 1.25-1.546z" fill="#38c674"/><path d="m395.581 82.066c0-.352-.001-.702-.007-1.042-.087-5.54-5.186-9.621-10.614-8.504-8.434 1.736-15.892 5.438-21.713 9.153 0 .002-2.747 12.66 10.002 12.66 7.879-10.28 16.287-12.438 22.332-12.267z" fill="#50dd89"/><path d="m403.917 386.582c0-5.476 3.616-8.698 7-9.889 3.392-1.192 8.237-.94 11.671 3.336 8.286 10.323 17.6 24.683 23.123 41.98 17.982-21.985 32.227-47.147 41.746-74.524-12.414-23.852-33.903-43.616-70.825-46.634-7.425-.607-11.374-3.487-20.124-8.421-19.262-10.861-38.808-19.235-59.914-24.93-7.014-1.893-12.995-6.64-16.015-13.248-.822-1.799-1.543-3.68-2.191-5.604-1.35 1.824-2.651 3.686-3.867 5.606-21.358 33.716-58.521 33.579-58.521 33.579s-7.693.017-18.08-3.121c-5.797 6.835-17.62 18.354-34.364 22.739-3.001.786-6.602 1.589-10.771 2.518-29.894 6.666-85.535 19.074-85.535 66.53v85.168c41.242 31.568 92.8 50.333 148.75 50.333 55.573 0 106.815-18.51 147.917-49.693z" fill="#38c674"/><path d="m213.631 468.003c-21.114 0-38.389-17.275-38.389-38.389v-38.74c0-21.114 17.275-38.389 38.389-38.389 21.114 0 38.389 17.275 38.389 38.389v38.74c-.001 21.114-17.275 38.389-38.389 38.389z" fill="#50dd89"/><path d="m367.646 468.003c-21.114 0-38.389-17.275-38.389-38.389v-38.74c0-21.114 17.275-38.389 38.389-38.389 21.114 0 38.389 17.275 38.389 38.389v38.74c0 21.114-17.275 38.389-38.389 38.389z" fill="#50dd89"/><path d="m446.854 420.609c-5.521-16.8-14.586-30.915-23.097-41.518-7.091-8.834-21.341-3.838-21.341 7.491v76.855c16.551-12.359 31.489-26.757 44.438-42.828z" fill="#2ab663"/><path d="m197.479 254.255c-1.217-1.92-2.518-3.783-3.868-5.607-.648 1.923-1.368 3.803-2.19 5.602-3.021 6.609-9.001 11.357-16.017 13.25-21.104 5.695-40.651 14.069-59.912 24.93-8.75 4.934-12.699 7.814-20.124 8.421-36.922 3.018-58.411 22.783-70.825 46.634 16.117 46.352 45.762 86.373 84.207 115.334 0-24.632 0-57.93 0-86.319 0-52.573 70-61 95.187-67.598 17.626-4.617 29.826-16.815 35.568-23.726-12.628-3.528-29.879-11.747-42.026-30.921z" fill="#2ab663"/><path d="m356.13 117.627c-1.49-6.289-1.246-12.852.566-19.056 2.464-8.437 3.756-21.373-7.077-30.015-3.251-2.593-5.887-5.865-7.56-9.672-7.247-16.488-31.214-58.884-86.059-58.884s-78.812 42.396-86.059 58.883c-1.674 3.807-4.309 7.079-7.56 9.672-10.832 8.642-9.541 21.578-7.077 30.015 1.812 6.204 2.056 12.767.566 19.056-17.113 72.218 10.624 107.15 26.162 120.41 6.091 5.199 11.161 11.452 15.447 18.217 21.358 33.717 58.521 33.58 58.521 33.58s37.163.137 58.521-33.579c4.286-6.765 9.356-13.019 15.447-18.217 15.537-13.26 43.275-48.192 26.162-120.41z" fill="#38c674"/><g fill="#38c674"><path d="m254.003 36.817c-3.147 15.882 1.537 32.658 13.923 49.869l-.399 1.31c.524-.199 1.112-.259 1.723-.122 7.406 1.656 19.387 1.272 34.386-9.993 18.394-13.813 30.975-17.518 39.057-17.675-.223-.434-.436-.874-.634-1.323-6.282-14.294-25.137-48.054-65.779-56.786-6.766 5.403-18.8 17.177-22.277 34.72z"/><path d="m356.13 117.627c-1.49-6.289-1.246-12.852.566-19.056 1.339-4.583 2.326-10.494 1.217-16.324-10.569-6.269-25.624.951-40.295 7.994-9.748 4.68-19.829 9.52-28.542 10.449-12.207 1.303-20.125-1.418-23.024-7.854l-.829 2.723c-1.475 1.234-5.747 5.6-3.85 13.508-2.503.816-6.87 3.384-8.293 11.438-1.795 10.162-4.048 30.001-4.076 30.257-.222 2.938.982 8.806 6.693 11.886-3.233 3.815-9.585 14.014-1.198 28.46v25.47c-2.965 2.864-6.155 9.721-.303 18.679-.806 1.289-2.315 3.91-3.717 7.458h74.552c1.57-1.633 3.208-3.202 4.937-4.678 15.537-13.26 43.275-48.192 26.162-120.41z"/></g><path d="m255.999 217.25v-26.55c-10.584-17.8 2.251-28.557 2.251-28.557-8.375-2.982-7.75-11.268-7.75-11.268s2.25-19.875 4.058-30.109 8.691-10.578 8.691-10.578c-3.126-9.562 3.272-13.74 3.272-13.74l.546-1.792c-.56-.817-1.027-1.703-1.38-2.674-.82-2.252 1.147-4.553 3.451-4.124l.441-1.447c-33.311-45.646-2.411-75.366 8.61-83.882-6.763-1.61-14.141-2.529-22.189-2.529-54.845 0-78.812 42.396-86.059 58.883-.197.449-.41.889-.634 1.323 8.079.158 20.664 3.862 39.057 17.674 15 11.266 26.979 11.651 34.386 9.993 2.353-.527 4.397 1.817 3.564 4.107-2.565 7.058-10.649 10.072-23.39 8.709-8.713-.93-18.794-5.769-28.542-10.449-10.728-5.15-21.659-10.398-30.895-10.398-3.396 0-6.559.72-9.4 2.406-1.109 5.829-.121 11.739 1.217 16.322 1.812 6.204 2.056 12.767.566 19.056-17.113 72.218 10.624 107.15 26.162 120.41 1.729 1.476 3.367 3.044 4.937 4.678h65.068c1.92-4.634 3.962-7.475 3.962-7.475-8.084-11.425 0-17.989 0-17.989z" fill="#2ab663"/><path d="m316.75 160c-20.486-12.199-33.683-21.602-40.902-27.114 2.258 2.373 4.812 4.74 7.742 7.02 1.684 1.31 2.439 3.418 1.972 5.5-.463 2.063-1.965 3.568-4.018 4.027-.13.029-.263.056-.395.081-2.51.475-4.816 1.615-6.669 3.298-3.222 2.924-9.905 7.83-18.48 7.83-1.142 0-2.247-.092-3.317-.25.829.838 1.818 1.61 3.015 2.255-3.233 3.815-9.585 14.014-1.198 28.46v25.47c-2.965 2.864-6.155 9.721-.303 18.679-3.236 5.174-17.803 31.78 8.744 53.955 11.772-1.719 35.918-8.232 51.581-32.957 3.069-4.845 6.55-9.419 10.51-13.54 9.775-17.408 28.785-60.64-8.282-82.714z" fill="#50dd89"/><path d="m255.999 235.24c-8.084-11.427 0-17.99 0-17.99v-26.55c-10.584-17.8 2.251-28.557 2.251-28.557-1.168-.416-2.144-.941-2.988-1.526-8.218-.271-14.615-4.965-17.742-7.803-1.853-1.684-4.16-2.824-6.666-3.298-.136-.026-.269-.053-.398-.082-2.054-.458-3.556-1.964-4.018-4.027-.468-2.082.288-4.19 1.972-5.5 2.93-2.28 5.484-4.647 7.742-7.02-7.219 5.512-20.416 14.914-40.902 27.114-37.067 22.074-18.057 65.306-8.281 82.715 3.961 4.121 7.441 8.695 10.51 13.54 21.358 33.714 58.521 33.577 58.521 33.577s3.486.008 8.921-.939c-30.181-24.103-8.922-53.654-8.922-53.654z" fill="#38c674"/><g><path d="m256 215.25s-25.127.552-45.329-10.121c17.934 31.538 45.329 30.111 45.329 30.111s27.394 1.427 45.327-30.111c-20.2 10.673-45.327 10.121-45.327 10.121z" fill="#38c674"/></g><path d="m256 217.25s.742.016 2.065-.011c9.098-10.33 2.602-22.285.025-26.183-1.996-.692-4.247-.369-6 .978-2.924 2.245-7.744 4.949-15.291 6.716-3.865.905-8.671.864-13.669.321-12.121 2.321-18.604-3.712-18.604-3.712-2.236-.608-4.267-1.207-5.982-1.737-1.755-.543-3.116 1.595-1.875 2.95 19.745 21.548 59.331 20.678 59.331 20.678z" fill="#6c5475"/><path d="m313.455 193.621c-1.715.53-3.745 1.13-5.981 1.737 0 0-8.066 5.783-18.603 3.713-4.998.543-9.805.584-13.67-.32-7.547-1.767-12.367-4.47-15.29-6.715-1.159-.89-2.535-1.335-3.911-1.334.001.001 11.875 14.675.001 26.55 0 0 39.585.87 59.33-20.679 1.24-1.357-.121-3.495-1.876-2.952z" fill="#543e5b"/><path d="m284.511 138.722c-13.048-10.152-18.868-21.98-21.262-28.535-.462-1.264-1.249-2.333-2.23-3.167.077.657.183 1.332.354 2.046-2.503.816-6.87 3.384-8.293 11.438-1.795 10.162-4.048 30.001-4.076 30.257-.209 2.773.856 8.153 5.778 11.339.403.02.806.042 1.219.042 8.991 0 15.946-5.003 19.488-8.219 1.668-1.515 3.725-2.517 5.939-2.936.15-.029.298-.059.443-.091 5.673-1.266 7.228-8.604 2.64-12.174z" fill="#70f2a4"/><path d="m256 105.16c-3.229 0-6.141 1.995-7.249 5.027-2.394 6.555-8.214 18.382-21.262 28.535-4.588 3.57-3.033 10.908 2.641 12.175.145.032.292.063.443.091 2.214.419 4.271 1.421 5.939 2.936 3.542 3.216 10.497 8.219 19.488 8.219.689 0 1.362-.038 2.026-.094-8.126-3.052-7.526-11.174-7.526-11.174s2.25-19.875 4.058-30.109 8.691-10.578 8.691-10.578c-1.108-3.033-4.021-5.028-7.249-5.028z" fill="#50dd89"/><g><path d="m289.076 100.69c-5.103.545-9.444.376-12.998-.461-1.303 4.551-3.094 16.143 10.637 20.521 15.375 4.902 52.398-19.799 40.613-35.047-3.22 1.424-6.474 2.985-9.709 4.538-9.749 4.68-19.83 9.52-28.543 10.449z" fill="#ffdd40"/></g><g><path d="m225.285 120.75c13.728-4.377 11.94-15.966 10.637-20.519-3.554.837-7.895 1.005-12.999.459-8.713-.93-18.794-5.769-28.542-10.449-3.236-1.553-6.489-3.113-9.71-4.538-11.783 15.248 25.239 39.949 40.614 35.047z" fill="#ffdd40"/></g><path d="m312.652 113.947c.906-1.809 1.429-3.844 1.429-6.006 0-5.519-3.329-10.255-8.085-12.325-5.786 2.475-11.451 4.437-16.641 5.038-1.36 2.101-2.158 4.599-2.158 7.288 0 6.019 3.956 11.112 9.41 12.825 5.149-1.091 10.849-3.558 16.045-6.82z" fill="#6c5475"/><path d="m206.004 95.616c-4.756 2.07-8.085 6.807-8.085 12.325 0 2.161.523 4.197 1.429 6.006 5.196 3.262 10.896 5.729 16.045 6.819 5.453-1.713 9.41-6.806 9.41-12.825 0-2.689-.798-5.187-2.158-7.288-5.19-.6-10.855-2.562-16.641-5.037z" fill="#6c5475"/><path d="m328.419 85.485c-4.162-.684-7.178-2.435-8.964-5.205-3.331-5.167-1.466-12.336-1.44-12.431l.05-.186.009-1.058c-4.623 2.558-9.723 5.86-15.339 10.077-15.332 11.514-26.919 11.125-33.157 9.728-3.521-.788-6.535 2.694-5.302 6.084 2.027 5.574 8.053 11.493 24.959 9.688 12.724-1.358 27.73-10.549 41.359-16.259-.704-.163-1.423-.315-2.175-.438z" fill="#50dd89"/><g fill="#70f2a4"><path d="m341.988 58.724c.006.013.012.026 0 0-6.224.253-14.559 2.496-25.425 8.749-.094.351-4.413 16.861 11.614 19.493 11.549-5.096 22.281-8.215 30.04-2.692 2.969-22.366-16.227-25.55-16.229-25.55z"/><path d="m341.988 58.724c-.006-.013-.011-.026 0 0z"/></g><path d="m204.36 103.795c0 2.832-2.296 5.128-5.128 5.128s-5.128-2.296-5.128-5.128 2.296-5.128 5.128-5.128 5.128 2.296 5.128 5.128z" fill="#fcf2c8"/><path d="m317.896 103.795c0 2.832-2.296 5.128-5.128 5.128s-5.128-2.296-5.128-5.128 2.296-5.128 5.128-5.128 5.128 2.296 5.128 5.128z" fill="#fcf2c8"/><path d="m304.706 109.914c0 3.986-2.296 7.217-5.128 7.217s-5.128-3.231-5.128-7.217 2.296-7.217 5.128-7.217 5.128 3.232 5.128 7.217z" fill="#543e5b"/><path d="m217.549 109.914c0 3.986-2.296 7.217-5.128 7.217s-5.128-3.231-5.128-7.217 2.296-7.217 5.128-7.217 5.128 3.232 5.128 7.217z" fill="#543e5b"/><path d="m408.872 429.073c-3.534-.567-6.861 1.839-7.428 5.373-4.016 25.02-22.665 37.184-57.011 37.184-13.606 0-32.188-4.173-53.741-12.068-16.872-6.18-28.208-22.438-28.208-40.454v-86.51l45.581-23.695c3.177-1.651 4.414-5.565 2.762-8.741-1.65-3.177-5.567-4.414-8.741-2.762l-46.086 23.956-46.084-23.957c-3.175-1.652-7.09-.416-8.741 2.762-1.652 3.176-.415 7.09 2.762 8.741l45.581 23.695v86.51c0 18.017-11.336 34.274-28.209 40.454-21.552 7.895-40.135 12.068-53.74 12.068-34.348 0-52.996-12.163-57.011-37.184-.567-3.535-3.895-5.94-7.428-5.373-3.535.567-5.941 3.893-5.374 7.428 2.615 16.295 10.295 28.677 22.827 36.801 11.559 7.494 27.367 11.293 46.986 11.293 15.326 0 34.907-4.327 58.2-12.86 13.262-4.858 23.889-14.499 30.233-26.534 6.343 12.034 16.97 21.676 30.232 26.534 23.293 8.533 42.874 12.86 58.201 12.86 19.618 0 35.427-3.799 46.985-11.293 12.532-8.124 20.212-20.506 22.827-36.801.565-3.534-1.84-6.86-5.375-7.427z" fill="#1ba552"/><path d="m359.337 452.365c3.697-.768 6.273-3.948 6.273-7.656 0-3.624-2.525-6.867-6.273-7.645-4.612-.952-9.331 2.551-9.331 7.645 0 4.7 4.217 8.593 9.331 7.656z" fill="#1ba552"/><path d="m155.719 452.365c3.697-.768 6.273-3.948 6.273-7.656 0-3.624-2.525-6.867-6.273-7.645-4.612-.952-9.33 2.551-9.33 7.645 0 4.7 4.217 8.593 9.33 7.656z" fill="#1ba552"/><path d="m194.464 27.236-3.865-3.432c-1.25-1.11-2.053-2.638-2.258-4.298-.077-.62-.047-1.239.046-1.849-.289.199-.568.395-.873.597-5.027 3.325-9.377 4.32-12.933 2.961-5.671-2.17-7.724-9.726-7.758-9.854l-.334-.883-11.59 13.05c-3.359 3.782-3.696 9.527-.477 13.43 3.596 4.361 9.787 4.839 13.981 1.704 1.189-.889 2.63-1.376 4.114-1.376 1.683 0 3.308.617 4.567 1.735l3.865 3.432c4.157 3.692 10.508 3.364 14.263-.737 3.836-4.189 3.499-10.708-.748-14.48z" fill="#38c674"/><path d="m188.341 19.506c-.184-1.487.133-2.989.881-4.288 2.589-4.496 1.425-10.515-3.227-13.594-4.264-2.822-10.006-1.842-13.401 1.981l-7.222 8.132c0 .001 5.059 19.608 22.969 7.769z" fill="#50dd89"/><path d="m340.875 36.73c-1.857-4.637-1.931-8.603-.221-11.786 2.833-5.271 9.737-6.94 10.357-7.08l.947-.123-12.552-14.136c-3.395-3.823-9.138-4.803-13.401-1.981-4.652 3.079-5.816 9.099-3.227 13.594.748 1.299 1.065 2.801.881 4.288-.205 1.66-1.008 3.188-2.258 4.298l-3.865 3.432c-4.247 3.772-4.584 10.291-.748 14.481 3.755 4.101 10.106 4.429 14.263.737l3.865-3.432c1.258-1.118 2.883-1.735 4.567-1.735.597 0 1.181.099 1.75.251-.117-.272-.247-.531-.358-.808z" fill="#50dd89"/><path d="m294.457 225.884c.243 3.908 5.619 4.776 7.088 1.146 3.099-7.658 6.054-17.344 6.603-27.276.084-1.517-.165-3.006-.674-4.396-5.48 1.489-12.199 3.016-18.603 3.713 2.711 7.8 4.975 16.968 5.586 26.813z" fill="#d3dcfb"/><path d="m204.526 195.358c-.509 1.39-.758 2.879-.674 4.396.549 9.932 3.504 19.618 6.603 27.276 1.469 3.63 6.845 2.761 7.088-1.146.611-9.844 2.875-19.013 5.586-26.813-6.404-.696-13.123-2.224-18.603-3.713z" fill="#d3dcfb"/><g fill="#38c674"><path d="m170.012 58.724c.011-.026.006-.013 0 0z"/><path d="m205.645 95.77c-5.028-8.343.994-12.739 10.189-14.348v-.37c-2.105-1.22-4.295-2.66-6.57-4.369-17.926-13.463-30.61-17.607-39.252-17.958-.012.027-.006.013 0 0 0 0-19.199 3.184-16.229 25.549 12.824-9.128 33.767 5.345 53.098 13.345-.429-.592-.846-1.202-1.236-1.849z"/></g><path d="m242.421 86.41c-5.53 1.239-15.267 1.678-28.087-6.259v.004s-18.036 3.019-9.975 16.389c6.377 2.788 12.626 5.022 18.405 5.638 16.906 1.805 22.932-4.115 24.959-9.688 1.233-3.39-1.781-6.872-5.302-6.084z" fill="#50dd89"/><path d="m73.826 103.187c-39.053 43.403-62.828 100.828-62.828 163.811 0 4.434.125 8.839.358 13.215 41.708-2.23 101.271-9.436 123.809-31.973 28.86-28.86-18.547-50.991-28.895-100.644-5.261-25.241-18.009-38.893-32.444-44.409z" fill="#ffdd40"/><path d="m438.174 103.187c39.053 43.403 62.828 100.827 62.828 163.811 0 4.434-.125 8.839-.357 13.215-41.708-2.23-101.271-9.436-123.809-31.973-28.86-28.86 18.547-50.991 28.895-100.644 5.26-25.241 18.008-38.893 32.443-44.409z" fill="#ffdd40"/><path d="m357.578 36.959c3.218-3.903 2.882-9.648-.477-13.43l-6.345-7.145c-.001 0-18.165 3.69-11.273 20.903 1.484 0 2.925.487 4.114 1.376 4.194 3.135 10.384 2.657 13.981-1.704z" fill="#70f2a4"/><g fill="#2ab663"><circle cx="259.553" cy="26.5" r="6.5"/><ellipse cx="257.021" cy="43.605" rx="15.104" ry="15.105" transform="matrix(.383 -.924 .924 .383 118.378 264.374)"/><ellipse cx="257.333" cy="62.75" rx="11.917" ry="11.917" transform="matrix(.035 -.999 .999 .035 185.555 317.713)"/><ellipse cx="152.624" cy="326.374" rx="15.374" ry="15.374" transform="matrix(.243 -.97 .97 .243 -201.062 395.081)"/><circle cx="122.445" cy="347.319" r="23.944"/><circle cx="110.875" cy="382.125" r="16.625"/></g><path d="m299.5 209.5c0 6.875-.983 14.125-.983 14.125s.129 2.369 2.847 3.76c.061-.117.129-.227.18-.355 2.749-6.791 5.375-15.179 6.319-23.918-.082-.005-8.363-.453-8.363 6.388z" fill="#deeeff"/><path d="m217.57 225.558c.464-7.043 1.77-13.73 3.474-19.817-3.284-1.42-9.294-3.249-9.294 2.384 0 6.868-.289 16.183 5.82 17.433z" fill="#deeeff"/></g></svg>