<svg id="Layer_1" enable-background="new 0 0 512 512" height="512" viewBox="0 0 512 512" width="512" xmlns="http://www.w3.org/2000/svg"><g><path d="m16.114 216.987h479.772c-23.09-111.326-121.714-194.991-239.886-194.991s-216.796 83.665-239.886 194.991z" fill="#49b1f7"/><path d="m385.721 107.591c4.66 7.841 17.355 8.073 21.983.166-.057-14.728-9.131-27.322-21.99-32.562.001.045.007.089.007.134z" fill="#4b6bb2"/><path d="m385.721 105.103v35.492c12.896-5.257 21.988-17.913 21.988-32.698 0-.816-.038-1.624-.093-2.427-3.323 10.029-18.729 9.64-21.895-.367z" fill="#3c58a0"/><path d="m365.229 479.548c-11.206 0-21.971-4.741-29.535-13.008l-19.807-21.649c-6.612-7.227-15.957-11.343-25.752-11.343h-68.268c-.867 0-1.729.044-2.587.107.268.308.519.617.807.923-1.435 3.366-5.983 15.111-6.471 29.674-.457 13.654 2.781 32.005 19.191 46.657 7.634.716 15.37 1.091 23.193 1.091 44.393 0 86.028-11.807 121.937-32.452z" fill="#4b6bb2"/><path d="m221.866 435.548c-.657-.657-1.235-1.307-1.778-1.954-9.141.466-17.763 4.508-23.974 11.296l-19.807 21.649c-7.564 8.267-18.329 13.008-29.535 13.008h-12.708c29.826 17.148 63.605 28.19 99.632 31.442-33.24-29.722-11.83-75.441-11.83-75.441z" fill="#3c58a0"/><path d="m106.9 192.335c6.87 13.85 12.488 29.711 16.509 47.101l84.487-43.617c-13.425-7.669-25.323-18.809-34.295-33.437l-48.72 12.561c-8.554 2.205-15.981 7.502-20.861 14.858 1.205.417 2.26 1.285 2.88 2.534z" fill="#a8b7ef"/><path d="m388.591 239.436c4.021-17.39 9.638-33.252 16.509-47.101.62-1.249 1.675-2.117 2.881-2.535-4.88-7.356-12.308-12.653-20.861-14.858l-48.72-12.561c-8.972 14.628-20.87 25.768-34.295 33.437z" fill="#a8b7ef"/><path d="m397.993 403.353c-19.728-60.826-20.181-119.311-8.851-166.248l-82.677-42.683c-28.246 17.238-63.824 18.626-93.263 4.192l-5.834 109.921c-1.328 2.229-8.377 14.716-10.671 32.225-2.262 17.264-.048 42.695 23.036 66.473-.761.796-1.788 1.999-2.773 3.533 1.628-.13 3.262-.217 4.906-.217h68.268c17.328 0 33.976 7.333 45.673 20.117l19.807 21.648c2.462 2.691 5.967 4.234 9.615 4.234h46.002c10.415-8.539 20.109-17.924 28.988-28.043l.993-4.06c-7.492-4.827-40.32-12.158-43.219-21.092z" fill="#2a428c"/><path d="m221.866 408.548c-45.79-45.79-13.021-98.268-13.021-98.268l5.888-110.923c-3.137-1.469-6.21-3.11-9.199-4.935l-82.677 42.683c11.331 46.937-17.123 105.422-36.851 166.248-2.899 8.935-8.726 16.266-16.218 21.092l.606 2.478c9.251 10.727 19.417 20.641 30.375 29.625h46.002c3.648 0 7.153-1.543 9.615-4.234l19.807-21.648c11.252-12.297 27.087-19.531 43.699-20.065 1.104-1.318 1.974-2.053 1.974-2.053z" fill="#1c2e7a"/><path d="m328.702 459.029c-1.016-5.93-.104-10.438 2.708-13.4 3.539-3.725 9.345-4.271 12.446-4.271 1.266 0 2.081.091 2.108.094l.303.036 1.006-.29-11.467-12.533c-11.697-12.784-28.345-20.117-45.673-20.117h-68.268c-1.128 0-2.253.035-3.375.096-1.953 2.407-4.412 6.395-4.628 11.398-.217 5.033 1.876 9.919 6.223 14.536-.121.284-.271.648-.431 1.048.734-.047 1.471-.078 2.212-.078h68.268c9.795 0 19.14 4.116 25.752 11.343l13.37 14.614c-.221-.837-.415-1.665-.554-2.476z" fill="#6289cc"/><path d="m365.229 454.548c-3.648 0-7.153-1.543-9.615-4.234l-9.47-10.35s-22.698-2.748-18.921 19.319l8.47 9.258c7.564 8.267 18.329 13.008 29.535 13.008h9.131c13.982-7.729 27.125-16.786 39.265-27h-48.395z" fill="#79a3e0"/><path d="m221.866 408.548c-17.328 0-33.976 7.333-45.673 20.117l-19.807 21.648c-2.462 2.691-5.967 4.234-9.615 4.234h-48.396c12.14 10.214 25.283 19.271 39.265 27h9.131c11.206 0 21.971-4.741 29.535-13.008l19.807-21.649c6.612-7.227 15.957-11.343 25.752-11.343-14.664-14.664.001-26.999.001-26.999z" fill="#4b6bb2"/><path d="m104.019 287.632s-34.393 51.546-89.384 21.616c-2.388-13.725-3.637-27.841-3.637-42.25 0-17.139 1.767-33.865 5.116-50.011 16.969-8.044 39.488-14.167 69.265-15.392-.025.798.119 1.613.493 2.384 11.134 22.998 18.61 52.227 20.188 85.213-.667-.481-1.345-.991-2.041-1.56z" fill="#deeeff"/><path d="m104.019 284.632c.633.518 1.251.991 1.861 1.435 1.997 33.497-2.091 70.999-14.703 109.881-2.098 6.467-8.088 10.812-14.906 10.812h-21.503c-20.545-29.525-34.761-63.782-40.681-100.809 55.312 30.577 89.932-21.319 89.932-21.319z" fill="#d3dcfb"/><path d="m131.223 285.445s-8.422 17.101-26.702 2.576c-.729-13.341-2.382-25.055-4.332-34.892-4.704-23.726-11.795-40.5-15.667-48.497-1.477-3.05-.403-6.722 2.499-8.471l11.951-7.203c3.29-1.983 7.565-.731 9.272 2.71 4.545 9.16 12.688 28.029 18.145 54.792 2.246 11.016 4.16 24.144 5.029 39.085z" fill="#6289cc"/><path d="m75.137 432.261c-7.747-8.474-14.902-17.498-21.41-27h22.543c6.166 0 11.583-3.929 13.479-9.775 14.076-43.398 16.54-81.181 14.576-110.615 18.317 14.724 26.802-2.233 26.893-2.416 2.238 32.484-.41 73.957-15.785 121.362-5.52 17.014-21.258 28.445-39.163 28.445h-1.133z" fill="#4b6bb2"/><path d="m407.981 287.632s34.393 51.546 89.384 21.616c2.388-13.725 3.637-27.841 3.637-42.25 0-17.139-1.767-33.865-5.116-50.011-16.969-8.044-39.488-14.167-69.265-15.392.025.798-.119 1.613-.493 2.384-11.134 22.998-18.61 52.227-20.188 85.213.667-.481 1.345-.991 2.041-1.56z" fill="#deeeff"/><path d="m407.981 284.632c-.633.518-1.251.991-1.861 1.435-1.997 33.497 2.091 70.999 14.703 109.881 2.098 6.467 8.088 10.812 14.906 10.812h21.503c20.545-29.525 34.761-63.782 40.681-100.809-55.312 30.577-89.932-21.319-89.932-21.319z" fill="#d3dcfb"/><path d="m380.777 285.445s8.422 17.101 26.702 2.576c.729-13.341 2.382-25.055 4.332-34.892 4.704-23.726 11.795-40.5 15.667-48.497 1.477-3.05.403-6.722-2.499-8.471l-11.951-7.203c-3.29-1.983-7.564-.731-9.272 2.71-4.545 9.16-12.688 28.029-18.145 54.792-2.246 11.016-4.16 24.144-5.029 39.085z" fill="#6289cc"/><path d="m436.863 432.261c7.748-8.474 14.902-17.498 21.41-27h-22.543c-6.166 0-11.583-3.929-13.479-9.775-14.076-43.398-16.54-81.181-14.576-110.615-18.317 14.724-26.802-2.233-26.893-2.416-2.238 32.484.41 73.957 15.785 121.362 5.52 17.014 21.258 28.445 39.163 28.445h1.133z" fill="#4b6bb2"/><path d="m324.225 221.547c-5.317 4.538-10.416 10.548-14.745 17.38-12.771 20.166-36.541 30.717-53.485 30.717h-.003c-.497 0-34.204-.301-53.471-30.717-4.33-6.835-9.429-12.845-14.745-17.38-3.938-3.361-8.913-8.424-13.626-15.515 3.923 50.872 39.068 90.683 81.851 90.683s77.928-39.811 81.851-90.683c-4.714 7.09-9.69 12.154-13.627 15.515z" fill="#2ab663"/><g><path d="m301.771 297.882c-4.086 0-8.123-1.848-10.777-5.358-4.497-5.946-3.322-14.413 2.625-18.91 9.94-7.517 18.452-18.02 24.615-30.374 3.329-6.671 11.439-9.382 18.106-6.054 6.672 3.328 9.382 11.436 6.054 18.107-8.012 16.059-19.247 29.841-32.49 39.856-2.437 1.842-5.297 2.733-8.133 2.733z" fill="#deeeff"/></g><g><path d="m210.23 297.882c-2.837 0-5.696-.891-8.133-2.733-13.243-10.015-24.479-23.797-32.489-39.856-3.328-6.672-.618-14.778 6.054-18.107 6.671-3.331 14.779-.619 18.107 6.054 6.163 12.355 14.674 22.857 24.614 30.374 5.947 4.497 7.122 12.963 2.625 18.91-2.655 3.51-6.693 5.358-10.778 5.358z" fill="#deeeff"/></g><path d="m303.155 254.611h-45.005l4.196 15.655s-8.603 6.172-3.918 17.144c.984 2.304-3.047 10.842-10.011 22.87h54.738c5.963 0 10.842-4.879 10.842-10.842v-33.985c-.001-5.963-4.88-10.842-10.842-10.842z" fill="#6289cc"/><path d="m264.346 270.266-4.196-15.655h-51.304c-5.963 0-10.842 4.879-10.842 10.842v33.985c0 5.963 4.879 10.842 10.842 10.842h41.57c6.964-12.028 10.995-20.565 10.011-22.87-4.685-10.972 3.919-17.144 3.919-17.144z" fill="#4b6bb2"/><path d="m141.79 100.123c3.948-3.994 3.239-10.814 3.143-11.594l-1.547-5.65c1.355 1.292 2.707 2.779 4.039 4.517 7.335 9.571 6.654 16.98 4.789 21.511-1.489 3.62-1.49 7.71-.003 11.223 1.487 3.51 4.261 6.225 8.614 7.556-1.401 9.773-1.864 18.698-1.596 26.826-19.755-6.059-23.796-26.779-24.365-39.339-.188-4.15-1.113-8.195-2.612-12.042 4.187.154 7.397-.842 9.538-3.008z" fill="#1ba552"/><path d="m125.427 75.799c.002-.131.02-.257.028-.386 5.5-.135 12.893 1.661 19.964 9.577l.892 3.26s2.474 16.513-13.52 16.312c-.721-2.078-1.613-4.102-2.656-6.057-4.015-7.52-4.809-16.307-4.708-22.706z" fill="#2ab663"/><path d="m145.142 86.805c.409.026.803.042 1.169.042 3.033 0 5.248-.835 6.581-2.482 2.027-2.502 1.623-6.287 1.455-7.368l-2.063-2.622c3.923 2.215 7.253 4.586 9.808 6.611-.124 4.071.634 8.001 1.576 11.228 1.695 5.804 1.924 11.944.529 17.827-1.585 6.688-2.752 13.028-3.566 19.046-.618-.182-1.221-.379-1.789-.606-7.866-3.135-11.149-12.278-7.927-20.109 1.829-4.443 2.187-11.26-4.605-20.123-.387-.505-.777-.979-1.168-1.444z" fill="#38c674"/><path d="m125.42 76.774c.001-.329.001-.657.006-.974.082-5.183 4.852-9.001 9.929-7.956 7.89 1.624 14.867 5.087 20.312 8.563.001.002 2.57 11.844-9.357 11.844-7.369-9.618-15.235-11.637-20.89-11.477z" fill="#50dd89"/><path d="m349.673 110.042c-1.394-5.883-1.166-12.023.529-17.827 2.305-7.893 3.513-19.995-6.62-28.08-3.041-2.426-5.507-5.487-7.073-9.049-6.78-15.424-29.201-55.086-80.509-55.086s-73.73 39.662-80.509 55.086c-1.566 3.562-4.032 6.622-7.073 9.049-10.134 8.085-8.926 20.187-6.62 28.08 1.695 5.804 1.924 11.944.529 17.827-16.009 67.561 9.939 100.24 24.475 112.646 5.699 4.864 10.442 10.714 14.451 17.043 19.98 31.54 54.747 31.412 54.747 31.412s34.767.128 54.747-31.413c4.009-6.329 8.752-12.179 14.451-17.043 14.535-12.405 40.484-45.084 24.475-112.645z" fill="#38c674"/><g fill="#38c674"><path d="m254.131 34.443c-2.945 14.858 1.438 30.552 13.025 46.653l-.373 1.225c.49-.186 1.04-.242 1.612-.114 6.929 1.549 18.136 1.19 32.168-9.348 17.208-12.923 28.978-16.389 36.538-16.535-.209-.406-.408-.817-.593-1.237-5.877-13.372-23.516-44.955-61.537-53.125-6.329 5.054-17.587 16.069-20.84 32.481z"/><path d="m349.673 110.042c-1.394-5.883-1.166-12.023.529-17.827 1.253-4.288 2.176-9.818 1.138-15.271-9.887-5.865-23.971.89-37.696 7.478-9.12 4.378-18.55 8.906-26.701 9.775-11.42 1.219-18.827-1.326-21.539-7.348l-.776 2.547c-1.38 1.155-5.376 5.238-3.602 12.637-2.341.764-6.427 3.166-7.758 10.701-1.679 9.507-3.787 28.067-3.813 28.306-.207 2.749.919 8.238 6.262 11.12-3.025 3.569-8.967 13.11-1.121 26.625v23.827c-2.774 2.68-5.758 9.094-.283 17.474-.754 1.206-2.166 3.658-3.478 6.977h69.745c1.469-1.528 3.001-2.996 4.618-4.376 14.535-12.405 40.484-45.084 24.475-112.645z"/></g><path d="m255.999 203.241v-24.838c-9.902-16.652 2.106-26.716 2.106-26.716-7.835-2.79-7.25-10.541-7.25-10.541s2.105-18.593 3.796-28.167 8.131-9.896 8.131-9.896c-2.925-8.946 3.061-12.854 3.061-12.854l.511-1.677c-.524-.764-.961-1.593-1.291-2.502-.767-2.107 1.073-4.259 3.229-3.858l.412-1.354c-31.163-42.702-2.256-70.506 8.055-78.472-6.328-1.507-13.23-2.366-20.759-2.366-51.308 0-73.73 39.662-80.509 55.086-.185.42-.384.832-.593 1.238 7.558.148 19.331 3.613 36.539 16.535 14.033 10.54 25.239 10.9 32.168 9.348 2.202-.493 4.114 1.7 3.334 3.843-2.399 6.603-9.962 9.423-21.881 8.147-8.151-.87-17.582-5.397-26.702-9.775-10.036-4.818-20.262-9.728-28.902-9.728-3.177 0-6.136.674-8.794 2.251-1.037 5.453-.113 10.982 1.139 15.269 1.695 5.804 1.924 11.944.529 17.827-16.009 67.561 9.939 100.24 24.475 112.646 1.617 1.381 3.15 2.848 4.618 4.376h60.872c1.797-4.335 3.707-6.993 3.707-6.993-7.564-10.689-.001-16.829-.001-16.829z" fill="#2ab663"/><path d="m312.832 149.682c-19.165-11.413-31.511-20.209-38.264-25.365 2.112 2.22 4.501 4.435 7.242 6.567 1.575 1.225 2.282 3.197 1.845 5.145-.433 1.93-1.838 3.338-3.758 3.767-.122.027-.246.053-.369.076-2.348.444-4.506 1.511-6.239 3.086-3.014 2.736-9.267 7.325-17.289 7.325-1.068 0-2.102-.086-3.104-.234.776.784 1.701 1.506 2.82 2.11-3.025 3.569-8.967 13.11-1.121 26.625v23.827c-2.774 2.68-5.758 9.094-.283 17.474-3.028 4.84-16.655 29.73 8.18 50.475 11.013-1.608 33.602-7.701 48.255-30.832 2.871-4.533 6.127-8.812 9.833-12.667 9.144-16.284 26.929-56.728-7.748-77.379z" fill="#50dd89"/><path d="m255.999 220.071c-7.563-10.69 0-16.83 0-16.83v-24.838c-9.902-16.652 2.106-26.716 2.106-26.716-1.092-.389-2.006-.88-2.795-1.428-7.688-.254-13.672-4.644-16.598-7.3-1.734-1.575-3.892-2.642-6.236-3.086-.127-.024-.251-.05-.372-.077-1.921-.429-3.326-1.837-3.759-3.767-.438-1.948.27-3.92 1.844-5.145 2.741-2.133 5.13-4.347 7.243-6.567-6.753 5.157-19.1 13.953-38.264 25.365-34.677 20.651-16.892 61.094-7.747 77.381 3.705 3.855 6.961 8.134 9.832 12.667 19.98 31.541 54.747 31.413 54.747 31.413s3.261.007 8.346-.878c-28.236-22.549-8.347-50.194-8.347-50.194z" fill="#38c674"/><g><path d="m256 201.37s-23.507.517-42.406-9.469c16.777 29.505 42.406 28.17 42.406 28.17s25.627 1.335 42.404-28.169c-18.898 9.984-42.404 9.468-42.404 9.468z" fill="#38c674"/></g><path d="m256 203.241s.694.015 1.932-.01c8.511-9.664 2.434-20.848.023-24.494-1.867-.647-3.973-.345-5.613.915-2.735 2.1-7.245 4.63-14.305 6.283-3.615.846-8.112.808-12.787.3-11.339 2.171-17.404-3.473-17.404-3.473-2.092-.568-3.992-1.129-5.597-1.625-1.642-.508-2.915 1.492-1.754 2.76 18.471 20.158 55.505 19.344 55.505 19.344z" fill="#6c5475"/><path d="m309.75 181.135c-1.605.496-3.504 1.057-5.595 1.625 0 0-7.546 5.41-17.404 3.473-4.675.508-9.172.547-12.788-.3-7.06-1.653-11.57-4.182-14.304-6.282-1.084-.832-2.371-1.248-3.659-1.248 0 0 11.109 13.729.001 24.838 0 0 37.032.814 55.504-19.346 1.16-1.267-.113-3.267-1.755-2.76z" fill="#543e5b"/><path d="m282.672 129.777c-12.207-9.498-17.652-20.562-19.891-26.695-.432-1.183-1.168-2.182-2.086-2.963.072.614.171 1.246.331 1.914-2.341.764-6.427 3.166-7.758 10.701-1.679 9.507-3.787 28.067-3.813 28.306-.196 2.594.801 7.627 5.405 10.608.377.019.754.039 1.14.039 8.411 0 14.917-4.68 18.231-7.689 1.561-1.417 3.485-2.354 5.556-2.746.141-.027.279-.055.414-.085 5.308-1.186 6.763-8.05 2.471-11.39z" fill="#70f2a4"/><path d="m256 98.379c-3.02 0-5.745 1.866-6.781 4.703-2.239 6.132-7.684 17.197-19.891 26.695-4.293 3.34-2.838 10.204 2.47 11.39.135.03.274.059.414.085 2.072.392 3.995 1.329 5.556 2.746 3.314 3.009 9.82 7.689 18.231 7.689.645 0 1.274-.036 1.896-.088-7.602-2.856-7.041-10.453-7.041-10.453s2.105-18.593 3.796-28.167 8.131-9.896 8.131-9.896c-1.036-2.838-3.761-4.704-6.781-4.704z" fill="#50dd89"/><g><path d="m286.943 94.197c-4.774.509-8.835.352-12.16-.431-1.219 4.258-2.894 15.102 9.951 19.197 14.384 4.586 49.019-18.523 37.994-32.787-3.013 1.332-6.057 2.793-9.083 4.245-9.12 4.379-18.551 8.907-26.702 9.776z" fill="#ffdd40"/></g><g><path d="m227.266 112.963c12.843-4.095 11.17-14.937 9.951-19.196-3.325.783-7.386.941-12.16.43-8.151-.87-17.582-5.397-26.702-9.775-3.027-1.453-6.071-2.912-9.083-4.245-11.025 14.264 23.61 37.373 37.994 32.786z" fill="#ffdd40"/></g><path d="m308.999 106.599c.848-1.693 1.337-3.596 1.337-5.619 0-5.163-3.114-9.594-7.564-11.531-5.413 2.316-10.713 4.151-15.568 4.713-1.272 1.965-2.018 4.303-2.018 6.818 0 5.631 3.701 10.395 8.803 11.998 4.816-1.019 10.149-3.327 15.01-6.379z" fill="#6c5475"/><path d="m209.227 89.45c-4.45 1.937-7.564 6.368-7.564 11.531 0 2.022.489 3.926 1.337 5.619 4.861 3.052 10.193 5.36 15.01 6.379 5.102-1.603 8.803-6.367 8.803-11.998 0-2.515-.747-4.853-2.018-6.818-4.855-.562-10.155-2.397-15.568-4.713z" fill="#6c5475"/><path d="m323.749 79.972c-3.894-.639-6.715-2.278-8.386-4.869-3.116-4.834-1.371-11.541-1.347-11.63l.047-.174.009-.99c-4.325 2.393-9.096 5.482-14.35 9.427-14.344 10.772-25.183 10.408-31.019 9.101-3.293-.737-6.113 2.52-4.96 5.692 1.896 5.214 7.533 10.752 23.349 9.063 11.904-1.271 25.942-9.869 38.692-15.211-.66-.151-1.332-.293-2.035-.409z" fill="#50dd89"/><g fill="#70f2a4"><path d="m336.442 54.937c.006.012.011.025 0 0-5.823.236-13.62 2.335-23.786 8.184-.088.329-4.128 15.774 10.865 18.236 10.804-4.768 20.844-7.685 28.103-2.519 2.779-20.922-15.18-23.901-15.182-23.901z"/><path d="m336.442 54.937c-.005-.012-.01-.024 0 0z"/></g><path d="m207.69 97.102c0 2.65-2.148 4.798-4.797 4.798s-4.798-2.148-4.798-4.798 2.148-4.797 4.798-4.797 4.797 2.147 4.797 4.797z" fill="#fcf2c8"/><path d="m313.905 97.102c0 2.65-2.148 4.798-4.798 4.798s-4.797-2.148-4.797-4.798 2.148-4.797 4.797-4.797c2.65-.001 4.798 2.147 4.798 4.797z" fill="#fcf2c8"/><path d="m301.565 102.827c0 3.729-2.148 6.752-4.797 6.752-2.65 0-4.797-3.023-4.797-6.752s2.148-6.752 4.797-6.752 4.797 3.023 4.797 6.752z" fill="#543e5b"/><path d="m220.028 102.827c0 3.729-2.148 6.752-4.798 6.752s-4.797-3.023-4.797-6.752 2.148-6.752 4.797-6.752c2.65 0 4.798 3.023 4.798 6.752z" fill="#543e5b"/><path d="m198.432 25.48-3.616-3.211c-1.169-1.039-1.921-2.468-2.113-4.021-.072-.58-.044-1.16.043-1.729-.27.186-.531.37-.816.558-4.703 3.11-8.772 4.042-12.099 2.77-5.305-2.03-7.226-9.098-7.258-9.219l-.312-.826-10.842 12.209c-3.142 3.538-3.457 8.913-.447 12.564 3.365 4.08 9.156 4.526 13.079 1.594 1.112-.831 2.46-1.287 3.849-1.287 1.574 0 3.095.578 4.272 1.623l3.616 3.211c3.889 3.454 9.831 3.147 13.343-.689 3.589-3.92 3.274-10.019-.699-13.547z" fill="#38c674"/><path d="m192.703 18.248c-.172-1.391.125-2.797.824-4.011 2.422-4.206 1.333-9.837-3.019-12.718-3.989-2.64-9.361-1.723-12.537 1.853l-6.756 7.608s4.734 18.344 21.488 7.268z" fill="#50dd89"/><path d="m335.401 34.361c-1.738-4.338-1.806-8.048-.207-11.026 2.65-4.931 9.109-6.492 9.69-6.624l.886-.115-11.743-13.224c-3.176-3.576-8.548-4.493-12.537-1.853-4.352 2.881-5.441 8.512-3.019 12.718.699 1.215.996 2.62.824 4.011-.192 1.553-.944 2.982-2.113 4.021l-3.616 3.211c-3.974 3.529-4.289 9.628-.7 13.547 3.512 3.836 9.454 4.144 13.343.689l3.616-3.211c1.177-1.046 2.698-1.623 4.272-1.623.558 0 1.105.093 1.637.235-.107-.254-.228-.496-.333-.756z" fill="#50dd89"/><path d="m291.977 211.317c.227 3.656 5.257 4.468 6.631 1.072 2.899-7.164 5.664-16.225 6.177-25.517.079-1.419-.154-2.812-.63-4.113-5.127 1.393-11.412 2.822-17.404 3.473 2.536 7.299 4.654 15.876 5.226 25.085z" fill="#d3dcfb"/><path d="m207.845 182.76c-.476 1.301-.709 2.694-.63 4.112.514 9.292 3.278 18.353 6.177 25.517 1.374 3.396 6.404 2.583 6.631-1.072.571-9.21 2.69-17.787 5.226-25.084-5.992-.651-12.278-2.08-17.404-3.473z" fill="#d3dcfb"/><g fill="#38c674"><path d="m175.557 54.937c.01-.024.005-.012 0 0z"/><path d="m208.891 89.594c-4.704-7.805.93-11.917 9.532-13.423v-.346c-1.969-1.141-4.018-2.489-6.146-4.087-16.771-12.594-28.636-16.472-36.721-16.8-.011.025-.005.012 0 0 0 0-17.961 2.979-15.182 23.901 11.998-8.539 31.589 5.001 49.674 12.485-.402-.554-.792-1.125-1.157-1.73z"/></g><path d="m243.297 80.838c-5.173 1.159-14.282 1.57-26.276-5.855v.003s-16.873 2.825-9.331 15.333c5.966 2.608 11.812 4.698 17.218 5.275 15.816 1.688 21.454-3.849 23.349-9.063 1.153-3.173-1.667-6.431-4.96-5.693z" fill="#50dd89"/><path d="m351.027 34.576c3.011-3.651 2.696-9.026-.447-12.564l-5.936-6.684s-16.994 3.452-10.546 19.555c1.389 0 2.737.456 3.849 1.287 3.924 2.932 9.715 2.486 13.08-1.594z" fill="#70f2a4"/><g fill="#2ab663"><path d="m265.405 24.791c0 3.358-2.722 6.081-6.081 6.081-3.358 0-6.081-2.722-6.081-6.081 0-3.358 2.723-6.081 6.081-6.081s6.081 2.723 6.081 6.081z"/><ellipse cx="256.955" cy="40.793" rx="14.13" ry="14.131" transform="matrix(.16 -.987 .987 .16 175.529 287.895)"/><ellipse cx="257.247" cy="58.704" rx="11.148" ry="11.148" transform="matrix(.707 -.707 .707 .707 33.836 199.095)"/></g><path d="m296.695 195.99c0 6.432-.919 13.214-.919 13.214s.121 2.216 2.664 3.518c.057-.11.12-.212.169-.332 2.571-6.353 5.028-14.201 5.911-22.376-.078-.004-7.825-.423-7.825 5.976z" fill="#deeeff"/><path d="m220.048 211.013c.434-6.589 1.655-12.845 3.25-18.539-3.072-1.328-8.695-3.04-8.695 2.23 0 6.425-.27 15.139 5.445 16.309z" fill="#deeeff"/><path d="m256 333.882c-10.49 0-19.073-8.583-19.073-19.073v-8.855c0-10.49 8.583-19.073 19.073-19.073 10.49 0 19.073 8.583 19.073 19.073v8.855c0 10.49-8.583 19.073-19.073 19.073z" fill="#3c58a0"/><path d="m342.376 365.382h-30.305c-7.548 0-13.667-6.119-13.667-13.667 0-7.548 6.119-13.667 13.667-13.667h30.305c7.548 0 13.667 6.119 13.667 13.667-.001 7.548-6.119 13.667-13.667 13.667z" fill="#73c3f9"/><path d="m113.67 181.168c-6.673-12.022-21.969-16.399-33.991-9.726s-16.399 21.969-9.726 33.991l19.988 36.011c6.673 12.022 21.969 16.399 33.991 9.726s16.399-21.969 9.726-33.991z" fill="#d3dcfb"/><path d="m432.322 171.442c-12.022-6.673-27.318-2.296-33.991 9.726l-19.988 36.011c-6.673 12.022-2.296 27.318 9.726 33.991s27.318 2.296 33.991-9.726l19.988-36.011c6.673-12.022 2.296-27.318-9.726-33.991z" fill="#d3dcfb"/><circle cx="396.618" cy="235.767" fill="#deeeff" r="25"/><path d="m355.221 115.422h22.052c4.152 0 7.887-1.843 10.448-4.745v-35.347c0-6.6-5.4-12-12-12h-18.948c-6.6 0-12 5.4-12 12v35.347c2.561 2.902 6.296 4.745 10.448 4.745z" fill="#d3dcfb"/><path d="m376.486 114.919h-20.477c-4.793 0-8.991-2.642-11.236-6.535v35.124c0 6.6 5.4 12 12 12h18.948c6.6 0 12-5.4 12-12v-35.124c-2.244 3.894-6.442 6.535-11.235 6.535z" fill="#a8b7ef"/><path d="m363.302 154.037-25.759 14.872c-5.382 3.107-12.328 1.246-15.436-4.136-3.107-5.382-1.246-12.328 4.136-15.436l25.759-14.872c5.382-3.107 12.328-1.246 15.436 4.136 3.107 5.383 1.246 12.329-4.136 15.436z" fill="#deeeff"/><circle cx="115.382" cy="235.767" fill="#deeeff" r="25"/></g></svg>