<svg id="Layer_1" enable-background="new 0 0 512 512" height="512" viewBox="0 0 512 512" width="512" xmlns="http://www.w3.org/2000/svg"><g><path d="m30.434 362.78h451.133c12.51-29.423 19.436-61.794 19.436-95.782 0-135.311-109.691-245.002-245.002-245.002s-245.002 109.691-245.002 245.002c-.001 33.989 6.925 66.359 19.435 95.782z" fill="#1c2e7a"/><path d="m145.362 279.95c27.284-27.284-26-55.693-50-107.842-14.789-32.135-11.351-64.264-6.534-84.196-47.884 44.717-77.83 108.399-77.83 179.085 0 22.077 2.939 43.464 8.415 63.812 26.768-58.694 100.577-25.486 125.949-50.859z" fill="#2a428c"/><path d="m366.638 279.95c-27.284-27.284 26-55.693 50-107.842 14.789-32.135 11.351-64.264 6.534-84.196 47.884 44.717 77.83 108.399 77.83 179.085 0 22.077-2.939 43.464-8.415 63.812-26.768-58.694-100.577-25.486-125.949-50.859z" fill="#2a428c"/><path d="m142.162 133.182c6.859-15.109 10.711-31.466 10.567-48.058-.023-2.64.065-5.394.294-8.22l-3.163-.533c-13.445-2.265-26.299 6.882-28.564 20.328l-4.111 24.404c-2.234 13.261 6.637 25.94 19.781 28.457 1.08-5.604 2.808-11.118 5.196-16.378z" fill="#3d9cea"/><path d="m394.816 121.102-4.111-24.404c-2.265-13.445-15.119-22.593-28.564-20.328l-3.478.586c.226 2.808.313 5.544.29 8.167-.144 16.592 3.708 32.949 10.567 48.058 2.396 5.279 4.128 10.814 5.208 16.438 13.312-2.377 22.339-15.153 20.088-28.517z" fill="#49b1f7"/><path d="m250.7 293.642c1.102 1.018 2.303 1.985 3.617 2.894-1.291 5.693-8.667 35.1-26.901 53.633-3.715.39-25.127 3.064-46.257 14.593-21.443 11.699-47.005 35.125-47.005 80.286v34.55c35.888 20.613 77.49 32.402 121.846 32.402 55.574 0 106.823-18.507 147.928-49.69v-55.003c0-3.079 1.631-5.764 4.362-7.181 2.735-1.418 5.875-1.204 8.396.572 8.201 5.777 17.337 14.684 23.405 27.953 17.109-19.47 31.186-41.67 41.475-65.871-.102-.164-.199-.328-.303-.492-20.422-32.014-53.54-34.773-73.411-29.254-19.87 5.52-79.482 4.415-104.32-33.118-4.138-6.253-6.411-13.154-7.512-19.967-13.111 10.378-29.407 14.942-45.32 13.693z" fill="#49b1f7"/><g fill="#3d9cea"><path d="m135.654 480.442c0-10.442 0-22.194 0-35.394 0-86 92.446-93.439 92.446-93.439 21.006-21.005 27.9-55.751 27.9-55.751-1.028-.669-1.972-1.362-2.848-2.073-13.218-.541-26.298-5.073-37.207-13.606-1.114 6.739-3.386 13.555-7.478 19.738-24.838 37.533-84.45 38.637-104.32 33.118-19.87-5.52-52.988-2.76-73.411 29.254-.104.163-.201.328-.303.492 21.194 49.845 58.43 91.22 105.221 117.661z"/><path d="m417.551 399.472c-6.359-4.48-15.123.056-15.123 7.835v56.126c14.17-10.58 27.156-22.657 38.725-35.997-6.323-13.474-15.672-22.378-23.602-27.964z"/></g><path d="m253.872.016c-4.194 5.228-21.352 29.461.469 51.826v63.532c-5.552 1.311-27.719 7.874-27.719 28.984v30.983c-.057 1.103-.423 13.542 11.088 18.126l1.574 16.346c-2.706 2.41-12.581 12.424-6.406 25.341l.096.2 15.773 17.309c-2.074 3.483-8.37 15.351-5.885 27.36 1.3 6.284 4.809 11.581 10.436 15.777 16.684.647 33.576-5.061 46.585-17.138 7.067-6.562 13.41-15.329 17.553-27.039 15.468-43.718 42.885-37.967 55.481-63.813 8.871-18.201 8.279-40.212-.286-59.081-7.046-15.523-11.004-32.327-10.856-49.373.273-31.743-14.547-79.356-105.935-79.356-.664 0-1.311.011-1.968.016z" fill="#73c3f9"/><path d="m194.246 251.623c4.143 11.71 10.486 20.478 17.553 27.039 12.388 11.501 28.297 17.229 44.196 17.192-23.854-15.525-5.376-43.363-5.376-43.363l-16.388-17.983c-6.632-13.874 6.62-24.059 6.62-24.059l-1.739-18.061c-12-4.119-10.991-17.006-10.991-17.006s0-8 0-31.023c0-23.024 27.719-27.774 27.719-27.774v-65.36c-24.506-24.506 0-51.225 0-51.225-91.388 0-106.208 47.614-105.933 79.356.147 17.046-3.81 33.85-10.856 49.374-8.565 18.869-9.157 40.879-.286 59.08 12.596 25.846 40.013 20.095 55.481 63.813z" fill="#49b1f7"/><g><path d="m255.841 252.666c-9.834 0-19.665-1.819-27.506-5.459-3.506-1.628-5.029-5.791-3.401-9.297 1.627-3.507 5.789-5.03 9.297-3.402 11.915 5.531 31.304 5.533 43.221 0 3.505-1.628 7.669-.102 9.297 3.402 1.627 3.507.105 7.669-3.402 9.297-7.84 3.639-17.675 5.459-27.506 5.459z" fill="#3b8be2"/></g><ellipse cx="315.708" cy="158.233" fill="#2a428c" rx="39.161" ry="32.68"/><ellipse cx="240.851" cy="200.681" fill="#3b8be2" rx="9.768" ry="9.768" transform="matrix(.924 -.383 .383 .924 -58.463 107.445)"/><ellipse cx="270.83" cy="200.681" fill="#3b8be2" rx="9.768" ry="9.768" transform="matrix(.924 -.383 .383 .924 -56.181 118.918)"/><ellipse cx="195.973" cy="158.233" fill="#2a428c" rx="39.162" ry="32.68"/><ellipse cx="195.973" cy="158.233" fill="#70f2a4" rx="27.719" ry="27.719" transform="matrix(.707 -.707 .707 .707 -54.489 184.919)"/><circle cx="195.973" cy="158.233" fill="#38c674" r="13.875"/><circle cx="205.53" cy="148.757" fill="#91f9bb" r="6.616"/><ellipse cx="255.84" cy="83.905" fill="#2a428c" rx="39.161" ry="32.68"/><ellipse cx="255.84" cy="83.905" fill="#70f2a4" rx="27.719" ry="27.719" transform="matrix(.707 -.707 .707 .707 15.604 205.482)"/><circle cx="255.84" cy="83.905" fill="#38c674" r="13.875"/><circle cx="265.398" cy="74.429" fill="#91f9bb" r="6.616"/><ellipse cx="315.708" cy="158.233" fill="#70f2a4" rx="27.719" ry="27.719" transform="matrix(.707 -.707 .707 .707 -19.419 269.585)"/><circle cx="315.708" cy="158.233" fill="#38c674" r="13.875"/><circle cx="325.266" cy="148.757" fill="#91f9bb" r="6.616"/><g><path d="m288.426 495.293c-15.771-5.777-26.366-20.972-26.366-37.813v-80.86l42.604-22.147c2.97-1.543 4.126-5.202 2.582-8.171-1.542-2.969-5.203-4.125-8.171-2.581l-43.075 22.392-43.074-22.392c-2.968-1.544-6.626-.389-8.171 2.581-1.544 2.969-.388 6.627 2.581 8.171l42.604 22.147v80.86c0 16.841-10.596 32.036-26.367 37.813-10.761 3.942-20.72 6.88-29.611 8.773 8.524 2.225 17.228 4.003 26.088 5.306 2.514-.844 5.076-1.742 7.691-2.7 12.396-4.541 22.329-13.553 28.258-24.801 5.929 11.249 15.862 20.261 28.258 24.801 2.615.958 5.177 1.856 7.692 2.7 8.859-1.303 17.563-3.081 26.088-5.306-8.891-1.892-18.85-4.831-29.611-8.773z" fill="#3b8be2"/></g><path d="m455.471 341.357c2.01-11.052 4.434-36.577-7.574-66.18-6.997 3.863-11.06 9.2-11.776 15.537-1.167 10.341-5.329 27.456-7.706 36.737-2.501 9.767.614 19.977 7.531 26.611 4.028-.51 8.312-1.723 12.818-3.881 3.525-1.687 6.008-4.98 6.707-8.824z" fill="#d3dcfb"/><path d="m437.826 353.772c-7.227-6.266-10.416-16.348-7.957-25.949 2.576-10.06 6.585-26.679 7.743-36.941.778-6.893 5.66-11.408 10.842-14.302-1.47-3.749-3.158-7.563-5.118-11.429-3.153-6.216-12.37-5.004-13.799 1.817-3.466 16.544-10.629 40.897-25.025 62.186-3.593 5.314-2.435 12.529 2.661 16.425 6.841 5.229 17.45 10.549 30.653 8.193z" fill="#bec8f7"/><path d="m84.44 275.495c-5.165 4.24-12.578 12.335-12.578 23.887 0 16.741 8.082 38.915 8.426 39.851l.041.102c.209.461 3.749 8.009 12.836 12.741 4.601-1.689 8.528-4.101 11.661-6.496 5.096-3.896 6.254-11.111 2.661-16.425-12.089-17.879-19.065-37.9-23.047-53.66z" fill="#d3dcfb"/><path d="m95.089 351.316c-9.744-4.548-13.394-12.601-13.394-12.601s-8.333-22.667-8.333-39.333c0-10.488 6.598-18.069 11.492-22.251-.945-3.618-1.735-7.031-2.391-10.163-1.429-6.822-10.646-8.033-13.799-1.817-17.125 33.767-14.369 63.923-12.135 76.206.699 3.844 3.182 7.137 6.706 8.824 12.608 6.04 23.483 4.708 31.854 1.135z" fill="#bec8f7"/></g></svg>