<svg id="Layer_1" enable-background="new 0 0 512 512" height="512" viewBox="0 0 512 512" width="512" xmlns="http://www.w3.org/2000/svg"><g><path d="m54.569 406.474 402.863-.001c27.462-39.587 43.57-87.646 43.57-139.475 0-135.311-109.691-245.002-245.002-245.002s-245.002 109.691-245.002 245.002c0 51.829 16.108 99.889 43.571 139.476z" fill="#49b1f7"/><g><path d="m349.13 296.854c-.583-2.041-1.128-4.032-1.655-6-10.307 3.585-26.776 19.646-23.059 47.261l-27.594-6.508c-3.838 52.18 13.436 91.731 27.375 114.479 3.302 5.39 12.102 3.13 12.017-3.094-.704-51.509 32.004-79.283 12.916-146.138z" fill="#6c5475"/></g><path d="m324.869 341.114c-3.736-28.291 13.316-44.462 23.355-47.509-6.428-23.273-9.15-41.625-9.759-55.941-5.384 19.429-12.42 36.631-20.992 51.298-4.946 8.464-11.083 16.043-18.212 22.612-1.343 7.837-2.179 15.416-2.619 22.753z" fill="#543e5b"/><path d="m404.589 373.445s-105.037-19.165-105.037-56.421c0-6.053 0-4.239 0-8.158-10.552 9.433-28.649 21.452-43.552 21.813-.499-.012-1.002-.039-1.508-.077l.007.114c-.015.971-.271 14.721-2.769 31.874-2.359 16.2-7.25 38.789-17.162 54.646-5.936 4.17-14.548 15.555-7.245 30.643-2.885 2.31-11.127 9.579-16.649 21.2-6.065 12.762-6.146 25.124-3.428 36.068 15.755 3.182 32.059 4.853 48.754 4.853 82.39 0 155.28-40.669 199.693-103.027-16.311-24.034-39.736-31.345-51.104-33.528z" fill="#ffaa7b"/><path d="m212.448 308.865v8.158c0 37.256-105.037 56.421-105.037 56.421-11.368 2.183-34.793 9.494-51.104 33.529 35.713 50.141 89.84 86.253 152.511 98.48-9.319-35.85 20.405-57.143 20.405-57.143-10.027-18.887 6.45-30.014 6.45-30.014 19.673-31.151 20.327-87.617 20.327-87.617-14.904-.361-32.999-12.38-43.552-21.814z" fill="#fc9460"/><path d="m387.607 369.729c-10.361-2.519-24.194-6.311-37.827-11.361-.681 1.114-1.361 2.23-2.056 3.324-15.989 25.166-40.203 44.738-70.024 56.604-13.355 5.313-28.67 5.313-42.027 0-.548-.218-1.08-.457-1.624-.681-5.9 4.45-13.819 15.609-6.726 30.264-.457.366-1.061.871-1.756 1.484 26.323 7.297 54.627 4.956 79.674-7.04 8.034-3.848 16.554-5.916 25.378-5.916 16.25 0 31.462 7.023 44.511 19.247-3.659-32.483 6.338-67.994 12.477-85.925z" fill="#3c58a0"/><path d="m165.649 361.692c-.782-1.231-1.549-2.485-2.315-3.743-13.992 5.259-28.298 9.189-38.942 11.778 6.139 17.931 16.136 53.443 12.477 85.926 13.049-12.224 28.262-19.246 44.511-19.246 8.824 0 17.345 2.068 25.378 5.916 6.655 3.188 13.541 5.688 20.558 7.514 1.181-1.006 1.905-1.526 1.905-1.526-10.027-18.887 6.45-30.014 6.45-30.014-29.819-11.867-54.033-31.439-70.022-56.605z" fill="#2a428c"/><path d="m139.089 453.639c3.063-32.199-6.852-66.945-12.851-84.365-11.169 2.771-18.828 4.171-18.828 4.171-11.528 2.214-35.457 9.694-51.791 34.546 17.976 25.501 40.697 47.414 66.877 64.462 5.036-7.241 10.6-13.568 16.593-18.814z" fill="#f964b2"/><path d="m404.589 373.445s-7.658-1.4-18.828-4.171c-5.999 17.42-15.914 52.167-12.851 84.366 5.993 5.246 11.558 11.573 16.592 18.814 26.181-17.048 48.901-38.961 66.877-64.462-16.333-24.853-40.262-32.333-51.79-34.547z" fill="#fc90ce"/><path d="m298.26 444.159.277-.915c-22.765 9.162-47.735 10.706-71.236 4.588.008.016.014.031.021.047-2.885 2.31-11.127 9.579-16.649 21.2-6.456 13.585-6.132 26.718-2.869 38.168 15.583 3.111 31.697 4.753 48.196 4.753 20.105 0 39.642-2.426 58.338-6.996-30.534-21.51-16.078-60.845-16.078-60.845z" fill="#4b6bb2"/><path d="m330.619 434.406c-8.825 0-17.345 2.068-25.378 5.916-2.95 1.413-5.947 2.685-8.979 3.83l-.002.006s-14.607 39.766 16.594 61.195c28.038-6.668 54.212-18.149 77.596-33.529-15.673-23.209-36.705-37.418-59.831-37.418z" fill="#6289cc"/><path d="m181.381 434.406c-23.126 0-44.158 14.208-59.831 37.418 26.214 17.242 55.933 29.587 87.858 35.738-11.077-37.122 19.816-59.253 19.816-59.253l-.001-.001c-7.676-1.856-15.207-4.511-22.463-7.987-8.035-3.846-16.555-5.915-25.379-5.915z" fill="#3c58a0"/><path d="m256.688 0c-.7 0-1.396.02-2.088.053-3.194 3.74-11.704 16.205.072 32.073-.773.865-1.675 2.231-1.827 4-.148 1.725.426 3.429 1.708 5.085-.059.053-.135.124-.197.181.774-.014 1.548-.028 2.332-.028 16.518 0 30.531 3.179 42.326 8.078.333-2.154.508-4.36.508-6.606.001-23.658-19.177-42.836-42.834-42.836z" fill="#6c5475"/><path d="m256.688 0c-23.657 0-42.835 19.178-42.835 42.835 0 2.247.175 4.453.508 6.606 11.796-4.898 25.809-8.078 42.326-8.078-5.323-5.323 0-9.075 0-9.075-14.811-18.657.001-32.288.001-32.288z" fill="#543e5b"/><g><path d="m206.876 55.667c13.218-6.819 29.652-11.552 49.812-11.552s36.595 4.732 49.812 11.552c2.347 1.211 4.613 2.528 6.811 3.926-13.267-16.633-33.693-27.304-56.623-27.304s-43.356 10.671-56.623 27.304c2.197-1.398 4.464-2.716 6.811-3.926z" fill="#fc90ce"/></g><path d="m256.688 32.289c-22.93 0-43.356 10.671-56.623 27.304 2.198-1.398 4.464-2.716 6.811-3.926 12.545-6.472 27.994-11.056 46.77-11.507 1.806-1.823 3.042-2.796 3.042-2.796-5.323-5.323 0-9.075 0-9.075z" fill="#f964b2"/><g><path d="" fill="#3c58a0"/><path d="m306.5 52.915c-13.217-6.819-29.652-11.551-49.812-11.551-.789 0-1.562.02-2.339.034-3.891 3.517-14.535 14.477-16.121 30.382-1.193 11.954 3.047 23.929 12.605 35.612-.053.041-.111.087-.167.131.694.252 1.385.501 2.093.772 2.523.967 5.337.967 7.859 0 64.185-24.605 70.868 31.733 71.387 49.122.089 2.976 1.341 5.759 3.337 8.008 2.217 2.498 3.857 5.894 5.055 9.814 3.252-2.168 8.301-3.663 12.864-3.556l.001-.013v-42.205c0-31.983-17.829-61.623-46.762-76.55z" fill="#6c5475"/></g><path d="m172.979 175.239c1.198-3.921 2.838-7.316 5.055-9.814 1.996-2.249 3.248-5.032 3.337-8.008.518-17.349 7.177-73.461 70.951-49.283.434-.318.682-.481.682-.481-32.33-37.962 3.684-66.289 3.684-66.289-20.16 0-36.595 4.732-49.812 11.551-28.933 14.927-46.762 44.567-46.762 76.55v42.205l.001.013c4.563-.107 9.612 1.388 12.864 3.556z" fill="#543e5b"/><path d="m172.184 225.38s-5.238-33.151.795-52.893c-5.474-3.649-16.05-5.43-20.807-.78-9.739 9.521-2.603 23.898.812 32.98 1.048 2.788 1.725 5.609 2.031 8.434.664 6.139 3.993 15.126 17.796 14.914-.21-.885-.424-1.756-.627-2.655z" fill="#fc9460"/><path d="m361.204 171.706c-4.757-4.65-15.333-2.869-20.807.78 6.033 19.743.795 52.893.795 52.893-.204.899-.417 1.77-.626 2.654 13.803.212 17.131-8.774 17.796-14.914.306-2.826.982-5.646 2.03-8.434 3.415-9.081 10.551-23.458.812-32.979z" fill="#ffaa7b"/><path d="m335.856 162.215c-1.989-2.241-3.083-4.86-3.163-7.572-.308-10.323-2.915-35.589-20.425-47.249-12.42-8.271-29.881-8.185-51.897.258-2.376.911-4.992.911-7.368 0-.932-.357-1.843-.678-2.759-1.005.198.248.384.497.587.744-6.338 4.926-32.096 28.022-14.487 66.123l4.132 10.98c-3.231 3.116-6.981 10.021-2.415 18.486l-.111.514c-.598.959-2.559 4.417-3.139 9.27-.606 5.081.244 12.689 7.608 20.33l-.524 8.453c-.954 2.075-5.756 13.939 3.576 24.6l-.939 7.73c-.175.727-.944 4.495.908 7.699 1.047 1.812 2.703 3.092 4.928 3.812l3.892 7.057c-.318 2.028-1.191 9.268.955 17.258 1.897 7.063 6.531 15.766 17.644 20.758 18.926-8.692 34.326-22.513 44.615-40.121 10.515-17.993 18.721-39.798 24.398-64.852 2.458-15.624 5.075-50.775-6.016-63.273z" fill="#ffc7ab"/><path d="m255.826 292.18-4.443-8.057c-7.533-1.991-5.374-9.973-5.374-9.973l1.033-8.498c-10.294-11.155-3.668-23.722-3.668-23.722l.583-9.41c-14.284-14.285-4.599-28.443-4.599-28.443l.289-1.332c-6.227-10.826 2.597-17.81 2.597-17.81l-4.515-12.001c-19.604-42.346 15.274-65.283 15.274-65.283-22.016-8.44-39.477-8.527-51.896-.259-17.51 11.66-20.117 36.928-20.425 47.25-.081 2.713-1.174 5.331-3.165 7.572-10.965 12.356-8.563 48.454-6.005 63.316 5.665 25.006 13.872 46.809 24.388 64.808 10.676 18.271 26.844 32.481 46.756 41.096 8.919 3.857 19.145 3.858 28.062 0 1.349-.583 2.677-1.198 3.991-1.832-24.234-9.8-18.883-37.422-18.883-37.422z" fill="#ffaa7b"/><path d="m151.57 405.434c6.045-3.418 8.527-10.866 5.952-17.315l-6.634-16.615c-4.992-12.503-13.874-18.354-22.464-20.96-5.243 4.534-11.51 7.739-18.303 9.329-31.85 7.456-48.268 31.709-55.553 46.601 2.082 3.002 4.229 5.955 6.44 8.857 29.98-6.433 57.571 4.026 73.807 12.585 2.304-11.816 10.015-18.67 16.755-22.482z" fill="#d3dcfb"/><path d="m401.878 359.873c-6.532-1.529-12.572-4.558-17.689-8.818-8.582 2.459-17.563 8.159-22.56 20.674l-6.489 16.252c-2.519 6.309-.091 13.593 5.822 16.937 6.751 3.818 14.494 10.758 16.538 22.832 16.277-8.527 43.707-18.81 73.492-12.419 2.211-2.902 4.358-5.855 6.44-8.857-7.286-14.893-23.704-39.145-55.554-46.601z" fill="#deeeff"/><path d="m361.492 404.404c-5.782-3.269-8.156-10.392-5.693-16.56l6.345-15.891c5.001-12.527 14.086-18.081 22.655-20.389-1.41-1.13-2.765-2.337-4.03-3.649-11.012-11.419-33.255-27.545-66.238-19.266-2.313.581-3.854 2.776-3.67 5.154l7.003 90.48c4.54-2.629 10.466-4.226 16.946-4.226 14.083 0 25.563 7.528 25.822 16.846l1.512.321s5.855-4.52 15.672-9.627c-1.762-12.353-9.56-19.368-16.324-23.193z" fill="#d3dcfb"/><path d="m150.508 404.404c5.782-3.269 8.156-10.392 5.693-16.56l-6.345-15.891c-5.001-12.527-14.086-18.081-22.655-20.389 1.41-1.13 2.765-2.337 4.03-3.649 11.012-11.419 33.255-27.545 66.238-19.266 2.313.581 3.854 2.776 3.67 5.154l-7.003 90.48c-4.54-2.629-10.466-4.226-16.946-4.226-14.083 0-25.563 7.528-25.822 16.846l-1.512.321s-5.855-4.52-15.672-9.627c1.762-12.353 9.56-19.368 16.324-23.193z" fill="#bec8f7"/><ellipse cx="334.81" cy="437.223" fill="#ffdd40" rx="27.333" ry="18.667"/><ellipse cx="341.185" cy="434.406" fill="#fee884" rx="13.465" ry="9.196"/><g><path d="m323.194 199.879c-5.184-5.847-10.186-9.224-14.822-10.945.91 2.196 1.42 4.74 1.392 7.449-.047 4.597-1.631 8.677-4.071 11.354 3.862-.868 6.879-2.124 8.741-3.089 3.768-1.954 6.61-2.731 8.299-3.039.702-.129.974-1.151.461-1.73z" fill="#deeeff"/></g><path d="m279.929 198.665c-.027 2.72.584 5.239 1.637 7.313 4 1.51 7.84 2.314 11.413 2.622-2.982-2.668-4.934-7.286-4.881-12.52.02-1.978.329-3.857.863-5.574-2.311 1.274-4.178 2.742-5.501 3.979-.97.908-2.179 1.892-3.455 2.872-.041.431-.071.864-.076 1.308z" fill="#deeeff"/><g><path d="m280.287 197.146c-2.756 2.137-5.927 4.282-7.934 5.601-.541.355-.331 1.323.289 1.332l.281.004c2.638.036 5.258.555 7.755 1.559.422.169.84.324 1.258.478-1.141-1.953-1.815-4.433-1.788-7.13.006-.632.059-1.244.139-1.844z" fill="#ffaa7b"/></g><g><path d="m288.102 190.999c-.65 1.691-1.022 3.562-1.041 5.536-.05 5.108 2.26 9.599 5.738 12.05 5.047.456 9.57-.066 13.28-.937 2.745-2.501 4.529-6.394 4.573-10.792.028-2.881-.694-5.567-1.953-7.801-8.429-3.259-15.665-1.011-20.597 1.944z" fill="#4b6bb2"/></g><g><path d="m299.766 193.221c0-2.157-.646-4.126-1.709-5.645-3.884.411-7.263 1.811-9.954 3.423-.65 1.691-1.022 3.562-1.042 5.536-.007.761.044 1.507.137 2.236 1.303 1.918 3.267 3.14 5.465 3.14 3.923 0 7.103-3.891 7.103-8.69z" fill="#2a428c"/></g><g><path d="m306.495 193.216c0 1.086-.88 1.966-1.966 1.966s-1.966-.88-1.966-1.966.88-1.966 1.966-1.966 1.966.88 1.966 1.966z" fill="#6289cc"/></g><g><path d="m326.586 180.932c-.934-4.038-4.136-13.343-13.963-14.799-9.923-1.47-30.17 4.282-38.353 6.801-2.18.671-3.809 2.493-4.236 4.733l-1.232 6.458c-.105.548.428 1.001.952.81 6.177-2.254 34.644-12.339 43.717-10.177 6.918 1.649 10.645 4.76 12.327 6.59.32.349.895.044.788-.416z" fill="#543e5b"/></g><g><path d="m188.806 199.879c5.184-5.847 10.186-9.224 14.822-10.945-.91 2.196-1.42 4.74-1.392 7.449.046 4.597 1.631 8.677 4.071 11.354-3.861-.868-6.879-2.124-8.741-3.089-3.768-1.954-6.61-2.731-8.299-3.039-.702-.129-.974-1.151-.461-1.73z" fill="#deeeff"/></g><path d="m230.683 205.884c1.004-2.156 1.582-4.714 1.554-7.464-.003-.307-.021-.608-.041-.908-1.351-1.031-2.634-2.071-3.655-3.026-1.323-1.238-3.19-2.705-5.501-3.979.534 1.717.843 3.596.863 5.574.053 5.234-1.899 9.852-4.881 12.52 3.646-.314 7.57-1.145 11.661-2.717z" fill="#deeeff"/><g><path d="m231.713 197.146c2.756 2.137 5.927 4.282 7.934 5.601.541.355.331 1.323-.289 1.332l-.281.004c-2.638.036-5.258.555-7.755 1.559-.422.169-.84.324-1.258.478 1.141-1.953 1.815-4.433 1.788-7.13-.006-.632-.059-1.244-.139-1.844z" fill="#fc9460"/></g><g><path d="m223.898 190.999c.65 1.691 1.022 3.562 1.042 5.536.05 5.108-2.26 9.599-5.738 12.05-5.046.456-9.57-.066-13.28-.937-2.745-2.501-4.53-6.394-4.573-10.792-.029-2.881.694-5.567 1.953-7.801 8.428-3.259 15.665-1.011 20.596 1.944z" fill="#4b6bb2"/></g><g><path d="m212.234 193.221c0-2.157.646-4.126 1.709-5.645 3.884.411 7.263 1.811 9.954 3.423.65 1.691 1.022 3.562 1.042 5.536.007.761-.044 1.507-.137 2.236-1.303 1.918-3.267 3.14-5.465 3.14-3.923 0-7.103-3.891-7.103-8.69z" fill="#2a428c"/></g><g><path d="m205.505 193.216c0 1.086.88 1.966 1.966 1.966s1.966-.88 1.966-1.966-.88-1.966-1.966-1.966-1.966.88-1.966 1.966z" fill="#6289cc"/></g><g><path d="m185.413 180.932c.935-4.038 4.136-13.343 13.963-14.799 9.923-1.47 30.17 4.282 38.353 6.801 2.18.671 3.809 2.493 4.236 4.733l1.232 6.458c.105.548-.428 1.001-.952.81-6.177-2.254-34.644-12.339-43.717-10.177-6.918 1.649-10.645 4.76-12.327 6.59-.319.349-.894.044-.788-.416z" fill="#543e5b"/></g><g fill="#fc9460"><path d="m236.436 268.859 7.842-3.092c.882-.348 1.856-.388 2.764-.114l9.038 2.725 9.037-2.725c.908-.273 1.882-.233 2.764.114l7.842 3.092c2.167.854 3.231 3.303 2.376 5.47-.852 2.16-3.296 3.233-5.47 2.376l-6.48-2.555-8.814 2.658c-.854.267-1.744.248-2.514-.001l-8.812-2.657-6.48 2.555c-2.163.851-4.613-.204-5.47-2.376-.853-2.167.211-4.616 2.377-5.47z"/><path d="m253.12 283.746h5.413c2.329 0 4.217 1.888 4.217 4.217s-1.888 4.217-4.217 4.217h-5.413c-2.329 0-4.217-1.888-4.217-4.217s1.888-4.217 4.217-4.217z"/><path d="m237.085 233.967 6.873-1.447c1.978-.414 3.815.402 4.692 2.082 1.473 2.284 4.169 3.612 7.245 3.612 3.074 0 5.769-1.329 7.208-3.555.91-1.736 2.751-2.552 4.726-2.139l6.872 1.447c2.365.498 3.884 2.827 3.386 5.192-.497 2.362-2.825 3.882-5.191 3.386l-3.831-.807c-.049-.01-.099-.015-.148-.015-.187 0-.369.073-.505.207-6.786 6.704-18.252 6.703-25.037.001-.172-.17-.418-.242-.653-.193l-3.831.807c-2.365.494-4.694-1.023-5.191-3.386-.499-2.365 1.02-4.694 3.385-5.192z"/></g><path d="m394.509 64.897c-20.229 15.633-18.112 45.784-6.588 79.384 16.805 49-1.593 42.667-8.601 121.192-5.106 57.207 66.543 80.138 105.827 88.374 10.242-26.993 15.855-56.264 15.855-86.849 0-83.903-42.185-157.944-106.493-202.101z" fill="#73c3f9"/><path d="m132.68 265.473c-7.009-78.526-25.407-72.192-8.601-121.192 11.524-33.6 13.64-63.75-6.588-79.384-64.308 44.157-106.493 118.198-106.493 202.101 0 30.585 5.613 59.856 15.855 86.849 39.285-8.236 110.933-31.167 105.827-88.374z" fill="#73c3f9"/><ellipse cx="177.19" cy="437.223" fill="#ffdd40" rx="27.333" ry="18.667"/><ellipse cx="183.565" cy="434.406" fill="#fee884" rx="13.465" ry="9.196"/></g></svg>