<svg id="Layer_1" enable-background="new 0 0 512 512" height="512" viewBox="0 0 512 512" width="512" xmlns="http://www.w3.org/2000/svg"><path d="m471.798 383.087c18.626-34.552 29.204-74.084 29.204-116.089 0-135.311-109.691-245.002-245.002-245.002s-245.002 109.691-245.002 245.002c0 42.005 10.578 81.537 29.204 116.089z" fill="#49b1f7"/><path d="m307.942 248.18c-8.573 10.684-18.362 17.548-27.114 21.943-27.709 13.917-57.674 1.855-76.77-21.943-1.161 5.271-3.141 10.368-5.826 15.223 2.121.939 4.044 2.287 5.622 3.998 4.378 4.748 14.196 13.535 30.766 19.046 8.746 2.909 15.344 10.694 15.538 22.137v14.363l2.145-1.021c4.764-2.27 8.462.699 9.54 1.021v-15.039c0-9.745 6.244-18.369 15.538-21.46 16.569-5.511 26.388-14.298 30.765-19.046 1.58-1.713 3.506-3.063 5.631-4.003-2.693-4.862-4.676-9.958-5.835-15.219z" fill="#ffc839"/><path d="m368.865 296.029c-6.985-3.497-14.052-6.63-21.277-9.38-.124 1.144-.623 2.202-1.475 3.003-34.333 32.289-67.511 41.08-80.182 43.36-.694.125-1.198.729-1.198 1.433v39.478c0 4.816-3.918 8.734-8.734 8.734s-8.734-3.918-8.734-8.734v-39.478c0-.704-.504-1.308-1.198-1.433-6.986-1.257-20.214-4.504-36.424-12.568.033.424.057.842.105 1.274-4.525.859-18.895 4.007-33.472 11.631-23.062 12.062-35.252 29.616-35.252 50.764v99.257c34.288 18.263 73.417 28.63 114.976 28.63 72.303 0 137.281-31.327 182.126-81.14v-43.978z" fill="#d3dcfb"/><path d="m142.525 384.114c0-50.268 68.895-61.168 68.895-61.168-.086-.585-.138-1.151-.197-1.72-13.551-6.56-29.317-16.507-45.337-31.573-.852-.801-1.352-1.859-1.475-3.003-7.225 2.75-14.292 5.883-21.277 9.38l-69.26 90.852v43.978c19.445 21.599 42.68 39.715 68.651 53.316 0-19.593 0-62.656 0-100.062z" fill="#bec8f7"/><path d="m320.953 260.382c-5.265 0-10.34 2.13-13.909 6.001-6 6.506-16.079 13.965-30.137 18.64-9.872 3.283-16.564 12.479-16.564 22.883v27.355s42.381-2.805 86.768-44.548c2.56-2.408 2.664-6.443.201-8.951l-17.237-17.554c-2.404-2.447-5.691-3.826-9.122-3.826z" fill="#deeeff"/><path d="m235.093 285.023c-.713-.237-1.409-.486-2.102-.737-5.875 2.675-25.894 13.613-23.242 37.434-.184.035-.39.075-.605.118 24.662 12.237 42.513 13.424 42.513 13.424v-27.355c0-10.405-6.692-19.601-16.564-22.884z" fill="#deeeff"/><path d="m204.956 266.383c-3.569-3.871-8.644-6.001-13.909-6.001-3.431 0-6.718 1.379-9.121 3.827l-17.237 17.554c-2.462 2.508-2.359 6.543.201 8.951 16.475 15.495 32.673 25.621 46.531 32.233-4.105-27.936 23.673-37.923 23.673-37.923-14.059-4.676-24.139-12.134-30.138-18.641z" fill="#d3dcfb"/><path d="m471.798 383.087c-6.652-32.711-25.027-69.539-73.675-73.516-6.569-.537-10.063-3.085-17.805-7.45-3.8-2.143-7.614-4.17-11.452-6.091-6.523 12.833-13.062 36.479 12.351 55.817 29.634 22.55 20.041 65.398 56.909 79.017 13.028-14.471 24.357-30.499 33.672-47.777z" fill="#ff4155"/><path d="m131.682 302.121c-7.742 4.365-11.236 6.913-17.805 7.45-48.648 3.977-67.024 40.805-73.675 73.516 9.314 17.278 20.644 33.306 33.672 47.777 36.869-13.619 27.275-56.467 56.909-79.017 25.413-19.338 18.873-42.984 12.351-55.817-3.837 1.921-7.651 3.948-11.452 6.091z" fill="#e80054"/><path d="m264.734 373.924c0 4.816-3.918 8.734-8.734 8.734s-8.734-3.918-8.734-8.734v-16.104h-.895v153.974c3.196.124 6.403.206 9.629.206s6.433-.082 9.629-.206v-153.974h-.895z" fill="#ff4155"/><path d="m420.56 406.902c-6.745-8.842-20.864-4.065-20.864 7.056v51.469c12.337-8.95 23.814-19.013 34.266-30.058v-3.274c-3.091-9.789-8.127-18.277-13.402-25.193z" fill="#bec8f7"/><path d="m256 357.493c4.783 0 8.881-3.031 10.5-7.262v-20.151c0-5.775-4.725-10.5-10.5-10.5s-10.5 4.725-10.5 10.5v20.151c1.619 4.231 5.717 7.262 10.5 7.262z" fill="#6c5475"/><path d="m256 356.746c-5.775 0-10.5-4.725-10.5-10.5v29.333c0 5.775 4.725 10.5 10.5 10.5s10.5-4.725 10.5-10.5v-29.333c0 5.775-4.725 10.5-10.5 10.5z" fill="#543e5b"/><path d="m142.162 133.182c6.859-15.109 10.71-31.466 10.567-48.058-.023-2.64.065-5.394.294-8.22l-3.163-.533c-13.445-2.265-26.299 6.882-28.564 20.328l-4.111 24.404c-2.234 13.261 6.637 25.94 19.781 28.458 1.08-5.605 2.808-11.119 5.196-16.379z" fill="#ffc839"/><path d="m394.816 121.102-4.111-24.404c-2.265-13.445-15.119-22.593-28.564-20.328l-3.478.586c.226 2.808.313 5.545.29 8.167-.143 16.592 3.708 32.949 10.567 48.058 2.396 5.279 4.128 10.814 5.208 16.438 13.312-2.377 22.339-15.153 20.088-28.517z" fill="#ffdd40"/><path d="m372.63 128.729c-7.046-15.523-11.004-32.327-10.856-49.373.274-31.743-14.545-79.356-105.934-79.356-.71 0-1.4.012-2.101.017-4.065 4.37-18.243 21.188-18.369 43.246-.084 14.841 6.273 28.864 18.898 41.689l-9.326 82.011c-2.758 1.948-12.966 10.401-5.593 24.328v18.451c-2.335 2.052-10.288 10.323-6.575 25.131l.118.471 20.868 17.535c-3.503 4.71-14.662 22.523-1.216 42.89 16.928.85 34.132-4.848 47.336-17.106 7.067-6.562 13.41-15.329 17.553-27.039 15.468-43.718 42.885-37.967 55.481-63.814 8.873-18.201 8.282-40.212-.284-59.081z" fill="#fee884"/><path d="m255.84 0c-91.388 0-106.208 47.614-105.934 79.356.147 17.046-3.81 33.851-10.856 49.374-8.565 18.869-9.157 40.879-.286 59.08 12.597 25.847 40.013 20.095 55.481 63.814 4.143 11.71 10.486 20.478 17.553 27.039 11.97 11.113 27.229 16.823 42.588 17.163-16.23-23.369 1.454-43.159 1.454-43.159l-21.61-18.158c-4.041-16.116 6.62-24.059 6.62-24.059v-19.536c-8.218-15.035 5.504-23.091 5.504-23.091l9.485-83.416c-42.682-42.684.001-84.407.001-84.407z" fill="#ffdd40"/><g><path d="m255.841 252.666c-9.834 0-19.665-1.819-27.506-5.459-3.506-1.628-5.029-5.791-3.401-9.297 1.627-3.507 5.789-5.03 9.297-3.402 11.915 5.531 31.304 5.533 43.221 0 3.505-1.628 7.669-.103 9.297 3.402 1.627 3.507.104 7.669-3.402 9.297-7.84 3.639-17.675 5.459-27.506 5.459z" fill="#ffb332"/></g><circle cx="240.851" cy="200.681" fill="#ffb332" r="9.768"/><circle cx="270.83" cy="200.681" fill="#ffb332" r="9.768"/><ellipse cx="255.84" cy="127.09" fill="#deeeff" rx="65.841" ry="40.732"/><ellipse cx="255.84" cy="127.09" fill="#4b6bb2" rx="42.684" ry="42.684" transform="matrix(.707 -.707 .707 .707 -14.932 218.13)"/><ellipse cx="255.84" cy="127.09" fill="#2a428c" rx="21.366" ry="21.366" transform="matrix(.828 -.561 .561 .828 -27.233 165.502)"/><path d="m280.746 112.498c0 5.627-4.561 10.188-10.188 10.188s-10.188-4.561-10.188-10.188 4.561-10.188 10.188-10.188 10.188 4.561 10.188 10.188z" fill="#79a3e0"/><path d="m400.005 4.3c-33.608-14.42-66.462 10.042-89.064 34.695-3.049 3.326-2.914 8.47.276 11.66 3.511 3.511 9.286 3.249 12.458-.57 29.942-36.053 58.195-41.37 75.061-40.336 3.204.197 4.219-4.183 1.269-5.449z" fill="#ffc839"/><path d="m111.995 4.3c33.608-14.42 66.462 10.042 89.064 34.695 3.049 3.326 2.914 8.47-.276 11.66-3.511 3.511-9.286 3.249-12.458-.57-29.942-36.053-58.195-41.37-75.061-40.336-3.204.197-4.219-4.183-1.269-5.449z" fill="#ffb332"/><path d="m132.365 252.666c10.283-43.305-47.477-50.124-42.144-110.284 1.569-17.7-3.386-33.462-9.963-46.066-42.858 44.121-69.26 104.314-69.26 170.683 0 19.097 2.193 37.681 6.328 55.52 40.815-32.254 104.575-25.785 115.039-69.853z" fill="#73c3f9"/><path d="m379.635 252.666c-10.283-43.305 47.477-50.124 42.144-110.284-1.569-17.7 3.386-33.462 9.963-46.066 42.858 44.121 69.26 104.314 69.26 170.683 0 19.097-2.193 37.681-6.328 55.52-40.815-32.254-104.575-25.785-115.039-69.853z" fill="#73c3f9"/><ellipse cx="241.444" cy="24.938" fill="#ffdd40" rx="14.556" ry="14.556" transform="matrix(.183 -.983 .983 .183 172.685 257.724)"/><ellipse cx="239.897" cy="61.891" fill="#ffdd40" rx="13.009" ry="13.009" transform="matrix(.303 -.953 .953 .303 108.184 271.73)"/><circle cx="281.797" cy="51.55" fill="#fcf2c8" r="12.056"/><path d="m281.797 12.564c0 10.572 8.571 19.143 19.143 19.143s19.143-8.571 19.143-19.143c0-.33-.033-.651-.049-.977-9.471-4.376-20.997-7.75-34.983-9.699-2.054 3.05-3.254 6.722-3.254 10.676z" fill="#fcf2c8"/><ellipse cx="243.975" cy="42.025" fill="#ffdd40" rx="17.087" ry="17.087" transform="matrix(.961 -.277 .277 .961 -2.1 69.175)"/></svg>