<svg id="Layer_1" enable-background="new 0 0 512 512" height="512" viewBox="0 0 512 512" width="512" xmlns="http://www.w3.org/2000/svg"><g><path d="m23.754 345.216 85.044 117.64c11.267 8.481 23.285 16.016 35.944 22.479h222.518c12.658-6.463 24.677-13.998 35.944-22.479l85.043-117.64c8.27-24.563 12.756-50.866 12.756-78.218 0-102.846-63.377-190.876-153.2-227.205-25.83 18.615-57.533 29.589-91.803 29.589s-65.973-10.974-91.802-29.588c-89.823 36.329-153.2 124.359-153.2 227.205 0 27.351 4.486 53.653 12.756 78.217z" fill="#1c2e7a"/><path d="m256 461.428c-1.318 0-2.632-.013-3.945-.035.641.735 1.301 1.468 1.999 2.194-2.109 3.212-7.594 13.19-4.591 26.404 1.742 7.665 5.986 14.984 12.684 21.917 37.779-.931 73.439-10.4 105.112-26.573 7.809-17.838 12.486-37.806 13.182-58.95-36.221 22.221-78.831 35.043-124.441 35.043z" fill="#ff4155"/><path d="m256 463.428c-.673-.673-1.305-1.345-1.919-2.017-44.885-.355-86.81-13.118-122.522-35.026.696 21.145 5.373 41.112 13.182 58.951 33.387 17.046 71.199 26.664 111.259 26.664 2.76 0 5.506-.056 8.244-.146-25.959-25.816-8.244-48.426-8.244-48.426z" fill="#e80054"/><path d="m460.095 402.564c11.742-17.641 21.263-36.889 28.151-57.348-3.138-10.252-8.063-19.343-14.271-26.629-8.805 19.861-20.265 38.277-33.895 54.839.998 10.525 5.398 23.497 20.015 29.138z" fill="#ff4155"/><path d="m442.092 370.982c-12.959 16.178-27.977 30.635-44.669 42.961 1.711 2.567 3.558 4.98 5.529 7.211 5.985 6.774 7.865 16.191 4.707 24.662-1.966 5.273-3.471 10.997-4.456 17.04 22.812-17.172 42.521-38.242 58.154-62.212-14.803-5.731-18.641-19.325-19.265-29.662z" fill="#e80054"/><g><path d="m51.905 402.564c-11.742-17.641-21.263-36.889-28.151-57.348 3.138-10.252 8.063-19.343 14.271-26.629 8.805 19.861 20.265 38.277 33.894 54.839-.997 10.525-5.397 23.497-20.014 29.138z" fill="#ff4155"/><path d="m69.908 370.982c12.959 16.178 27.977 30.635 44.669 42.961-1.711 2.567-3.558 4.98-5.529 7.211-5.985 6.774-7.865 16.191-4.707 24.662 1.966 5.273 3.471 10.997 4.456 17.04-22.812-17.172-42.521-38.242-58.154-62.212 14.803-5.731 18.641-19.325 19.265-29.662z" fill="#e80054"/></g><path d="m323.438 239.35c-.054-.065-.108-.131-.162-.196l-24.617-29.697h-34.78l1.25 5.94c-1.471 1.999-6.279 8.989-8.935 18.284-4.009 14.033-1.136 26.725 8.306 36.8-1.596 1.902-4.426 6.051-4.043 11.188.317 4.263 2.753 8.18 7.246 11.661-1.802 2.133-5.273 6.774-7.31 12.932-2.501 7.562-3.188 18.798 7.214 30.072-2.033 1.465-5.727 4.479-9.158 9.036 30.48-1.483 56.918-30.539 71.068-73.095 3.752-11.288 1.491-23.751-6.079-32.925z" fill="#e80054"/><path d="m256 345.44c1.504 0 2.996-.088 4.481-.221 4.626-5.744 9.443-8.638 9.443-8.638-21.62-21.62 0-43.483 0-43.483-15.772-10.95-3.364-22.645-3.364-22.645-24.032-24.032.177-54.698.177-54.698l-1.326-6.299h-52.071l-24.617 29.697c-.056.067-.112.135-.167.202-7.565 9.173-9.825 21.634-6.074 32.918 14.529 43.693 42.009 73.167 73.518 73.167z" fill="#cc0053"/><path d="m264.5 270.48c-1.596 1.902-4.426 6.051-4.043 11.188.317 4.263 2.753 8.18 7.246 11.661-.183.217-.387.466-.602.734 11.041-3.328 20.303-11.373 27.486-21.061l-7.532-20.318c-1.538 4.359-4.845 7.979-9.123 9.876l-14.679 6.506c.407.476.812.951 1.247 1.414z" fill="#ff4155"/><path d="m256 295.71c4.926 0 9.573-.941 13.924-2.612-15.772-10.95-3.364-22.645-3.364-22.645-.667-.667-1.291-1.34-1.885-2.016l-1.795.795c-4.372 1.94-9.387 1.94-13.761 0l-15.052-6.672c-3.757-1.666-6.755-4.667-8.475-8.323l-7.36 19.852c9.406 12.251 22.201 21.621 37.768 21.621z" fill="#e80054"/><path d="m210.336 242.663c-1.292-5.493-2.897-11.561-4.824-17.59-.816 1.939-9.432 23.635-1.45 57.208 1.373 5.775 9.409 6.266 11.473.7l8.732-23.553c-6.983-3.1-12.191-9.366-13.931-16.765z" fill="#deeeff"/><path d="m301.664 242.663c-1.74 7.399-6.948 13.665-13.93 16.764l8.732 23.553c2.063 5.566 10.1 5.075 11.473-.7 7.982-33.573-.634-55.269-1.45-57.208-1.928 6.03-3.533 12.098-4.825 17.591z" fill="#deeeff"/><path d="m354.727 110.669c-7.993-15.914-2.756-38.332 2.873-54.025-13.924 18.803-29.143 36.728-41.879 51.727-14.736 17.355-26.376 31.064-30.775 39.591-5.558 10.775-3.622 22.242 5.6 33.158 2.936 3.478 4.268 7.915 3.746 12.494-.528 4.642-2.977 8.91-6.717 11.71l-21.106 15.803c-1.99 1.49-4.236 2.491-6.572 3.019-1.344 2.738-2.682 5.963-3.702 9.534-4.009 14.033-1.136 26.725 8.306 36.8-.246.293-.523.647-.812 1.042.972-.3 1.932-.652 2.872-1.069l21.773-9.651c7.439-3.298 12.927-9.875 14.791-17.795 3.415-14.514 10.213-37.874 20.371-48.031 15.276-15.278 44.767-57.356 31.231-84.307z" fill="#ff7186"/><path d="m223.667 260.802 21.773 9.651c6.725 2.982 14.396 2.982 21.12 0-16.537-16.537-10.231-36.215-4.689-46.881-5.41 1.913-11.597 1.106-16.339-2.444l-21.106-15.803c-3.741-2.801-6.189-7.07-6.717-11.712-.521-4.577.809-9.014 3.746-12.492 9.222-10.916 11.157-22.382 5.599-33.158-4.399-8.528-16.039-22.238-30.778-39.594-12.735-14.999-27.952-32.923-41.876-51.725 5.629 15.693 10.866 38.111 2.873 54.025-13.536 26.95 15.954 69.028 31.232 84.306 10.158 10.158 16.956 33.517 20.37 48.031 1.864 7.921 7.353 14.498 14.792 17.796z" fill="#ff4155"/><path d="m221.181 156.02c2.896 0 5.708-.359 8.398-1.026-.504-2.367-1.331-4.715-2.525-7.031-4.399-8.528-16.039-22.238-30.778-39.594-1.527-1.798-3.091-3.641-4.683-5.52-3.312 5.329-5.231 11.615-5.231 18.352 0 19.23 15.589 34.819 34.819 34.819z" fill="#ffdd40"/><path d="m290.819 156.02c-2.896 0-5.708-.359-8.398-1.026.504-2.367 1.331-4.715 2.525-7.031 4.399-8.528 16.039-22.238 30.778-39.594 1.527-1.798 3.091-3.641 4.683-5.52 3.312 5.329 5.231 11.615 5.231 18.352 0 19.23-15.589 34.819-34.819 34.819z" fill="#ffdd40"/><path d="m435.881 230.686c-26.515 15.389-63.075 32.498-85.774 25.931-8.291-2.398-17.06 2.011-19.928 10.152-13.493 38.301-36.851 65.285-64.067 70.702-4.338 3.461-12.044 11.046-14.648 22.864-2.596 11.779.588 24.59 9.464 38.096-.474.41-1.09.959-1.801 1.627 84.314-1.392 154.963-58.935 176.175-136.861 2.906-10.679 3.121-21.881.579-32.511z" fill="#d3dcfb"/><path d="m269.924 336.581s-.004-.004-.006-.006c-4.532 1.253-9.179 1.915-13.918 1.915-31.442 0-58.957-28.663-74.11-71.523-2.873-8.126-11.609-12.813-19.879-10.385-22.692 6.661-59.331-10.481-85.893-25.898-2.542 10.63-2.327 21.833.579 32.512 21.475 78.889 93.612 136.895 179.303 136.895 1.814 0 3.619-.036 5.42-.087.937-.836 1.504-1.284 1.504-1.284-27.937-41.162 7-62.139 7-62.139z" fill="#bec8f7"/><path d="m481.376 230.751c-.309-.66-.623-1.316-.942-1.968-5.18-10.589-18.38-14.399-28.3-8.031-6.279 4.03-13.983 8.751-22.443 13.453 2.684 10.537 2.539 21.693-.351 32.311-20.381 74.876-87.977 130.288-168.83 132.281-4.582 4.043-18.055 17.332-19.081 34.631-.628 10.582 3.565 20.659 12.459 29.978.705.006 1.407.022 2.113.022 109.913 0 202.442-74.403 229.985-175.589 5.166-18.986 3.737-39.27-4.61-57.088z" fill="#deeeff"/><path d="m262.924 398.72c-2.298.087-4.605.138-6.924.138-82.841 0-152.58-56.077-173.339-132.342-2.89-10.618-3.036-21.774-.352-32.311-8.44-4.69-16.127-9.399-22.398-13.424-9.941-6.379-23.154-2.608-28.345 8.001-.319.652-.633 1.309-.942 1.968-8.347 17.818-9.777 38.102-4.609 57.088 27.543 101.187 120.072 175.59 229.985 175.59-33.158-33.158 6.924-64.708 6.924-64.708z" fill="#d3dcfb"/><ellipse cx="305.931" cy="133.242" fill="#543e5b" rx="16.992" ry="16.992" transform="matrix(.707 -.707 .707 .707 -4.611 255.352)"/><circle cx="318.75" cy="126.437" fill="#a98bbc" r="6.805"/><ellipse cx="206.069" cy="133.242" fill="#543e5b" rx="16.992" ry="16.992" transform="matrix(.707 -.707 .707 .707 -33.861 184.738)"/><path d="m390.574 6.173c1.9-4.15-3.061-8.043-6.633-5.201-14.462 11.507-38.388 28.267-57.518 30.542-8.556 1.017-16.392-.995-23.7-4.857-15.726-8.31-33.231-12.122-50.594-11.455-9.103 13.045-22.039 39.026-8.175 68.322 11.151 23.564 7.782 45.188 4.811 64.267-3.674 23.582-6.849 43.976 21.052 57.089l2.77 13.612 15.921-11.921c8.405-6.294 10.001-18.43 3.226-26.452-6.712-7.947-11.82-19.004-5.405-31.442 11.701-22.689 78.345-85.942 104.245-142.504z" fill="#f9a0b1"/><path d="m273.913 217.496-2.78-13.659c-49.679-22.716-.271-66.955-25.825-120.955-13.959-29.498-.32-55.35 8.63-67.733-15.393.314-30.726 4.144-44.661 11.508-7.309 3.862-15.144 5.875-23.701 4.857-19.13-2.275-43.057-19.036-57.519-30.543-3.572-2.842-8.532 1.053-6.632 5.203 25.9 56.561 92.543 119.813 104.246 142.501 6.416 12.439 1.308 23.496-5.404 31.442-6.776 8.022-5.18 20.158 3.226 26.452l21.106 15.803c6.758 5.06 16.042 5.06 22.8 0z" fill="#ff7186"/><path d="m245.162 212.441c-.973-7.078-6.929-12.636-14.057-13.139-2.34-.165-4.575.199-6.602.984-3.025 1.171-3.648 5.297-1.058 7.249.016.012.032.024.047.036l14.996 11.229c2.668 1.998 6.514.28 6.773-3.043.085-1.077.056-2.186-.099-3.316z" fill="#e80054"/><path d="m280.895 199.302c-7.127.503-13.084 6.06-14.057 13.139-.155 1.13-.184 2.238-.101 3.315.258 3.323 4.105 5.04 6.773 3.043l14.996-11.228c.016-.012.032-.024.047-.036 2.59-1.952 1.967-6.078-1.058-7.249-2.025-.785-4.26-1.149-6.6-.984z" fill="#e80054"/><circle cx="193.25" cy="126.437" fill="#a98bbc" r="6.805"/><path d="m488.452 189.4c-16.075-48.166-46.704-89.669-86.667-119.302-8.463 9.197-15.577 23.316-10.137 42.986 10.869 39.298-40.048 63.881-13.631 90.298 25.302 25.302 76.99-31.666 110.435-13.982z" fill="#2a428c"/><path d="m23.548 189.4c33.445-17.684 85.133 39.284 110.435 13.982 26.416-26.417-24.5-51-13.631-90.298 5.44-19.67-1.674-33.79-10.137-42.987-39.963 29.634-70.592 71.137-86.667 119.303z" fill="#2a428c"/><g fill="#ff7186"><circle cx="245.231" cy="64.053" r="12.329"/><ellipse cx="249.153" cy="89.672" rx="19.574" ry="19.574" transform="matrix(.707 -.707 .707 .707 9.568 202.442)"/><ellipse cx="251.73" cy="118.862" rx="12.076" ry="12.076" transform="matrix(.707 -.707 .707 .707 -10.318 212.814)"/><ellipse cx="283.589" cy="49.47" rx="9.676" ry="9.676" transform="matrix(.707 -.707 .707 .707 48.081 215.017)"/><circle cx="232.903" cy="51.725" r="9.676"/></g></g></svg>