<svg id="Layer_1" enable-background="new 0 0 512 512" height="512" viewBox="0 0 512 512" width="512" xmlns="http://www.w3.org/2000/svg"><g><path d="m21.81 339.172h468.38c7.024-22.817 10.812-47.053 10.812-72.174 0-135.311-109.691-245.002-245.002-245.002s-245.002 109.691-245.002 245.002c0 25.121 3.788 49.357 10.812 72.174z" fill="#1c2e7a"/><path d="m100.155 440.579c-6.049.104-12.241-.394-18.41-1.375 6.341 6.416 13.034 12.479 20.046 18.167-.612-5.568-1.17-11.189-1.636-16.792z" fill="#deeeff"/><path d="m57.843 411.081c7.633 10.479 16.067 20.338 25.23 29.468 5.765.799 11.532 1.169 17.165 1.006-.576-6.794-1.026-13.559-1.302-20.146-15.68-.926-29.442-5.011-41.093-10.328z" fill="#d3dcfb"/><path d="m51.667 300.281c-14.903 13.143-24.135 26.758-29.857 38.891 7.141 23.198 17.629 44.929 30.909 64.624 9.049-4.591 13.523-14.332 13.763-14.869.043-.082 7.186-14.376 25.325-51.453 12.258-25.055 2.876-46.866-5.052-58.927-10.789 4.101-22.746 10.85-35.088 21.734z" fill="#f0f8ff"/><path d="m131.237 284.152c-3.4-2.429-4.02-7.163-1.508-10.386-7.003-1.323-23.609-2.926-44.343 5.316 7.789 11.654 17.179 32.989 5.073 57.732-18.347 37.5-25.347 51.5-25.347 51.5s-4.38 9.778-13.231 14.209c2.414 3.629 4.915 7.195 7.514 10.684 11.842 5.081 25.739 8.819 41.506 9.338-1.302-32.883 1.823-61.144 15.432-66.081 35.333-12.817 48.867-29.155 48.867-29.155-8.094-22.135-24.534-36.42-33.963-43.157z" fill="#deeeff"/><path d="m345.35 242.612c-6.937-4.484-14.683-4.997-14.683-4.997h-26.91c.631 6.683 1.901 13.991 4.372 20.48 2.702 7.097 10.669 12.451 17.99 14.47 5.927 1.635 11.705 3.533 17.386 5.658 6.042-4.598 10.329-10.226 10.329-16.942-.001-9.207-4.12-15.055-8.484-18.669z" fill="#5c45bf"/><path d="m185.882 272.565c7.32-2.019 15.288-7.373 17.99-14.47 2.471-6.489 3.741-13.798 4.372-20.481h-26.91c-4.708 0-8.864 1.18-12.405 2.867.356-.079.709-.161 1.071-.235-.095.057-.19.114-.285.173-5.268 3.242-11.547 9.492-11.547 20.861 0 6.716 4.287 12.345 10.329 16.943 5.68-2.124 11.458-4.023 17.385-5.658z" fill="#3b2aa0"/><path d="m310.128 256.095c-.945-2.483-1.703-5.092-2.33-7.736-8.539 10.582-18.267 17.393-26.97 21.764-5.822 2.924-12.042 4.746-18.361 5.487.005.002.01.004.016.007-.326.038-1.058.105-1.742.165-1.051 7.938-4.411 19.242-13.6 33.001-.536.803-1.105 1.58-1.7 2.332h36.736c4.136 0 8.083-1.55 11.113-4.363l11.633-10.803c1.575-1.462 3.497-2.531 5.559-3.091 8.61-2.34 24.754-7.574 34.727-16.003-6.226-2.389-12.571-4.491-19.089-6.289-7.322-2.02-13.29-7.374-15.992-14.471z" fill="#38c674"/><path d="m259.307 275.898c-.005-.003-.01-.005-.015-.008-9.598.571-19.313-1.344-28.12-5.768-8.703-4.371-18.431-11.182-26.97-21.764-.628 2.644-1.385 5.253-2.33 7.736-2.702 7.097-8.669 12.451-15.99 14.47-6.518 1.798-12.863 3.899-19.089 6.289 9.973 8.429 26.117 13.663 34.727 16.003 2.062.56 3.983 1.629 5.559 3.091l11.633 10.803c3.03 2.814 6.978 4.363 11.113 4.363h17.502c.364-.491.72-.989 1.061-1.5 9.465-14.173 12.869-25.815 13.896-33.976-.803.086-2.685.244-2.977.261z" fill="#1ba552"/><path d="m411.844 440.579c-.465 5.603-1.023 11.224-1.637 16.792 7.013-5.688 13.706-11.751 20.047-18.167-6.168.981-12.361 1.479-18.41 1.375z" fill="#deeeff"/><path d="m411.762 441.555c5.632.164 11.4-.206 17.165-1.006 9.163-9.13 17.596-18.989 25.229-29.468-11.65 5.318-25.413 9.402-41.092 10.328-.276 6.587-.726 13.351-1.302 20.146z" fill="#d3dcfb"/><path d="m460.333 300.281c-12.342-10.884-24.299-17.633-35.088-21.735-7.928 12.062-17.311 33.872-5.052 58.927 18.139 37.077 25.282 51.371 25.325 51.453.24.537 4.714 10.278 13.763 14.869 13.28-19.695 23.768-41.426 30.909-64.624-5.722-12.132-14.954-25.747-29.857-38.89z" fill="#f0f8ff"/><path d="m452.605 413.208c2.599-3.489 5.099-7.055 7.514-10.684-8.852-4.431-13.231-14.209-13.231-14.209s-7-14-25.347-51.5c-12.106-24.743-2.716-46.078 5.073-57.732-20.733-8.242-37.34-6.639-44.343-5.316 2.512 3.223 1.892 7.956-1.508 10.386-9.429 6.737-25.868 21.023-33.963 43.157 0 0 13.533 16.338 48.867 29.155 13.609 4.937 16.734 33.198 15.432 66.081 15.767-.52 29.664-4.257 41.506-9.338z" fill="#deeeff"/><path d="m326.895 476.135c-7.937-8.618-19.118-13.52-30.834-13.52-8.616 0-29.711 0-51.243 0 .571.727 1.154 1.455 1.76 2.181-1.645 3.082-6.831 13.42-9.688 26.303-1.585 7.144-2.146 13.835-1.728 20.01 6.871.579 13.817.891 20.838.891 32.476 0 63.469-6.334 91.831-17.81-3.579-.928-6.927-2.846-9.583-5.729z" fill="#7255ce"/><path d="m246.735 462.615c-17.551 0-35.632 0-47.687 0-11.716 0-22.896 4.902-30.833 13.52l-11.354 12.327c-.6.651-1.245 1.238-1.911 1.792 25.235 11.44 52.754 18.724 81.683 20.987-1.603-23.191 11.755-46.625 11.755-46.625-.569-.667-1.115-1.334-1.653-2.001z" fill="#5c45bf"/><path d="m398.667 355.464c-35.333-12.817-48.867-29.155-48.867-29.155h-1.051c-.687.974-1.572 1.804-2.606 2.427l-41.038 24.728c-1.88 4.531-6.302 7.483-11.207 7.483-12.131 0-32.43 0-49.394 0 .601.708 1.233 1.415 1.906 2.122-2.599 3.52-10.735 15.411-15.22 31.868-4.824 17.703-6.03 44.068 15.242 69.677h49.629c11.716 0 22.897 4.902 30.834 13.52l11.354 12.327c1.97 2.139 4.322 3.748 6.865 4.819 24.216-9.46 46.558-22.659 66.315-38.892 4.881-45.505 5.533-94.287-12.762-100.924z" fill="#9787f4"/><path d="m246.5 360.948c-12.4 0-23.305 0-28.398 0-4.905 0-9.327-2.953-11.207-7.483l-41.038-24.728c-1.034-.623-1.919-1.453-2.606-2.427h-1.051s-13.533 16.338-48.867 29.155c-18.295 6.637-17.644 55.419-12.762 100.924 16.876 13.866 35.64 25.513 55.845 34.513.146-.149.301-.286.443-.44l11.354-12.327c7.937-8.618 19.118-13.52 30.833-13.52h49.34c-42-49.2 0-101.667 0-101.667-.664-.666-1.288-1.333-1.886-2z" fill="#856ee5"/><path d="m183.822 305.685c-9.196-4.439-27.834-14.415-38.723-26.982-4.327-4.994-5.769-11.383-4.598-17.295l-1.646-1.569-11.679 12.398c-3.026 3.212-2.529 8.35 1.061 10.916 9.429 6.737 25.869 21.022 33.963 43.157.676 1.849 1.971 3.411 3.657 4.427l41.038 24.729h2l-17.201-41.46c-1.514-3.649-4.316-6.604-7.872-8.321z" fill="#d3dcfb"/><path d="m328.178 305.685c9.196-4.439 27.834-14.415 38.723-26.982 4.327-4.994 5.769-11.383 4.598-17.295l1.646-1.569 11.679 12.398c3.026 3.212 2.529 8.35-1.061 10.916-9.429 6.737-25.869 21.022-33.963 43.157-.676 1.849-1.97 3.411-3.657 4.427l-41.038 24.729h-2l17.201-41.46c1.514-3.649 4.316-6.604 7.872-8.321z" fill="#d3dcfb"/><path d="m365.201 248.692c-7.916-5.544-19.565-11.078-34.535-11.078 0 0 21.667 3 21.667 23.667 0 17.202-31.638 27.245-42.247 30.129-2.312.628-4.429 1.808-6.185 3.439l-11.633 10.803c-2.744 2.547-6.349 3.963-10.093 3.963-11.928 0-23.848 0-35.769 0-4.358 5.265-22.332 29.85-.108 53.333h47.6c4.905 0 9.327-2.953 11.207-7.483l17.201-41.459c1.513-3.648 4.315-6.604 7.872-8.32 9.196-4.439 27.835-14.415 38.723-26.982 7.942-9.169 6.235-23.053-3.7-30.012z" fill="#f0f8ff"/><path d="m229.824 309.615c-3.744 0-7.349-1.416-10.093-3.963l-11.633-10.803c-1.756-1.63-3.873-2.81-6.185-3.439-10.608-2.884-42.246-12.927-42.246-30.129 0-20.667 21.667-23.667 21.667-23.667-14.969 0-26.619 5.533-34.535 11.078-9.935 6.959-11.642 20.842-3.699 30.01 10.888 12.567 29.527 22.543 38.723 26.982 3.556 1.717 6.358 4.672 7.872 8.32l17.201 41.459c1.88 4.531 6.302 7.483 11.207 7.483h30.286c-25.933-25.933 0-53.333 0-53.333-6.188.002-12.378.002-18.565.002z" fill="#deeeff"/><path d="m362.798 381.615h-27.767s-5.824 5.336 0 11.159v39.422s-5.824 5.336 0 11.16h27.767c6.11 0 11.109-4.999 11.109-11.109v-39.522c.001-6.111-4.998-11.11-11.109-11.11z" fill="#856ee5"/><path d="m336.031 381.615h-25.823c-6.11 0-11.109 4.999-11.109 11.109v39.522c0 6.11 4.999 11.109 11.109 11.109h25.823c-5.824-5.824 0-11.16 0-11.16v-39.422c-5.824-5.822 0-11.158 0-11.158z" fill="#7255ce"/><path d="m319.915 392.774h-6.996c-1.285 0-2.326 1.041-2.326 2.326v24.515h11.648v-24.515c0-1.285-1.042-2.326-2.326-2.326z" fill="#5c45bf"/><path d="m339.529 432.196h-6.996c-1.284 0-2.326-1.041-2.326-2.326v-23.956h11.648v23.956c0 1.285-1.041 2.326-2.326 2.326z" fill="#fb7ac0"/><path d="m339.529 392.774h-6.996c-1.284 0-2.326 1.041-2.326 2.326v12.015h11.648v-12.015c0-1.285-1.041-2.326-2.326-2.326z" fill="#5c45bf"/><path d="m359.144 432.196h-6.996c-1.284 0-2.326-1.041-2.326-2.326v-34.77c0-1.284 1.041-2.326 2.326-2.326h6.996c1.284 0 2.326 1.041 2.326 2.326v34.771c0 1.284-1.042 2.325-2.326 2.325z" fill="#ffdd40"/><path d="m319.915 432.196h-6.996c-1.285 0-2.326-1.041-2.326-2.326v-10.815h11.648v10.815c0 1.285-1.042 2.326-2.326 2.326z" fill="#73c3f9"/><path d="m139.214 289.977c-6.41 2.72-13.88-.3-16.6-6.71l-4.538-10.696c-2.72-6.41.3-13.88 6.71-16.599 6.41-2.72 13.88.3 16.599 6.71l4.538 10.696c2.72 6.41-.299 13.879-6.709 16.599z" fill="#50dd89"/><path d="m372.786 289.977c6.41 2.72 13.88-.3 16.599-6.71l4.538-10.696c2.72-6.41-.299-13.88-6.71-16.599-6.41-2.72-13.88.3-16.599 6.71l-4.538 10.696c-2.719 6.41.3 13.879 6.71 16.599z" fill="#50dd89"/><path d="m162.943 177.729c-21.613-25.697-28.622-58.455-22.723-88.747-10.074.686-18.109 9.119-18.109 19.359v22.097c0 24.852 18.481 45.593 42.379 49.168-.513-.628-1.025-1.257-1.547-1.877z" fill="#1ba552"/><path d="m371.852 88.985c5.686 30.355-1.341 63.231-22.796 88.743-.522.62-1.034 1.249-1.547 1.877 23.897-3.575 42.378-24.316 42.378-49.168v-22.097c.001-10.215-7.995-18.634-18.035-19.355z" fill="#38c674"/><path d="m360.052 53.066c-11.78.915-26.35 6.097-41.531 21.277-22.99 22.99-54.328 30.852-83.045 23.836l.439 1.925c-2.306 2.021-8.551 8.627-5.496 18.732l-7.956 29.366 2.368 12.983c-.262 1.107-.912 4.551-.053 8.782.925 4.557 3.832 10.913 12.389 15.562l4.28 12.588c-2.014 3.85-10.389 20.785-5.363 27.143v10.068c-.316 2.231-3.649 30.223 23.223 42.568 7.4-.442 14.73-2.365 21.521-5.775 13.959-7.011 30.557-20.295 40.652-45.357 8.329-20.678 19.05-36.569 28.725-48.073 16.313-19.397 25.037-44.057 25.037-69.401 0-.441 0-.882 0-1.322 0-19.791-5.464-38.685-15.19-54.902z" fill="#50dd89"/><path d="m237.584 235.439v-10.744c-5.694-5.694 5.493-26.447 5.493-26.447l-4.68-13.763c-16.354-8.516-12.03-23.245-12.03-23.245l-2.367-12.972 7.982-29.462c-3.768-11.57 5.602-18.128 5.602-18.128l-.486-2.134c-15.886-3.56-31.041-11.623-43.618-24.2-14.971-14.971-29.346-20.214-41.039-21.233-10.016 16.551-15.682 35.879-15.682 56.183v1.436c0 24.911 9.003 48.9 25.037 67.965 9.675 11.504 20.396 27.395 28.725 48.073 10.094 25.062 26.693 38.346 40.652 45.357 9.785 4.914 20.69 6.744 31.311 5.494-29.989-11.784-24.9-42.18-24.9-42.18z" fill="#38c674"/><path d="m282.999 116.624c-7.831 4.53-11.033 14.486-6.755 22.458 1.815 3.383 4.883 6.483 9.955 8.399 16.599 6.269 56.843-26.981 56.843-26.981 2.988-6.647-1.472-14.22-8.728-14.898-12.534-1.173-31.786-.274-51.315 11.022z" fill="#70f2a4"/><path d="m229.001 116.624c7.831 4.53 11.033 14.486 6.755 22.458-1.815 3.383-4.883 6.483-9.955 8.399-16.599 6.269-56.843-26.981-56.843-26.981-2.988-6.647 1.471-14.22 8.728-14.898 12.534-1.173 31.786-.274 51.315 11.022z" fill="#70f2a4"/><g><path d="m226.105 229.521c18.786 12.457 41.004 12.457 59.79 0 1.188-.788 2.392-1.626 3.607-2.517 3.292-2.413.399-7.518-3.385-5.988-.074.03-.149.06-.223.09-18.786 7.551-41.004 7.551-59.79 0-.074-.03-.148-.06-.223-.09-3.784-1.53-6.676 3.575-3.385 5.988 1.217.891 2.421 1.729 3.609 2.517z" fill="#1ba552"/></g><path d="m226.374 148.544c-5.428-11.589-19.72-27.039-57.367-28.044-2.022-.054-3.492 1.93-2.836 3.844 3.094 9.022 14.08 30.959 48.656 35.93 9.653-1.732 11.276-9.211 11.547-11.73z" fill="#856ee5"/><path d="m196.28 124.592c-5.561 2.912-9.361 8.729-9.361 15.442 0 6.146 3.189 11.538 7.995 14.642 2.05.918 4.229 1.771 6.563 2.532.936.156 1.891.256 2.872.256 9.297 0 16.872-7.285 17.381-16.454-4.881-6.228-12.753-12.472-25.45-16.418z" fill="#5c45bf"/><path d="m212.641 159.915c4.206.713 8.758 1.183 13.725 1.324 1.828.052 3.277-1.577 2.968-3.379-.435-2.537-1.389-6.257-3.477-10.38h-.008c0 .001.062 11.303-13.208 12.435z" fill="#1ba552"/><ellipse cx="204.37" cy="140.609" fill="#3b2aa0" rx="5.492" ry="9.047"/><path d="m214.321 145.714c0 1.773-1.437 3.209-3.209 3.209s-3.209-1.437-3.209-3.209 1.437-3.209 3.209-3.209 3.209 1.436 3.209 3.209z" fill="#7255ce"/><path d="m285.626 148.544c5.428-11.589 19.72-27.039 57.367-28.044 2.022-.054 3.492 1.93 2.836 3.844-3.094 9.022-14.08 30.959-48.655 35.93-9.654-1.732-11.277-9.211-11.548-11.73z" fill="#856ee5"/><path d="m315.72 124.592c5.561 2.912 9.361 8.729 9.361 15.442 0 6.146-3.189 11.538-7.995 14.642-2.05.918-4.229 1.771-6.563 2.532-.936.156-1.891.256-2.872.256-9.297 0-16.872-7.285-17.381-16.454 4.881-6.228 12.752-12.472 25.45-16.418z" fill="#5c45bf"/><path d="m299.359 159.915c-4.206.713-8.758 1.183-13.725 1.324-1.828.052-3.277-1.577-2.968-3.379.435-2.537 1.389-6.257 3.477-10.38h.008c0 .001-.062 11.303 13.208 12.435z" fill="#1ba552"/><ellipse cx="307.63" cy="140.609" fill="#3b2aa0" rx="5.492" ry="9.047"/><ellipse cx="268.924" cy="189.202" fill="#1ba552" rx="5.492" ry="9.047"/><ellipse cx="243.076" cy="189.202" fill="#1ba552" rx="5.492" ry="9.047"/><path d="m297.679 145.714c0 1.773 1.437 3.209 3.209 3.209s3.209-1.437 3.209-3.209-1.437-3.209-3.209-3.209-3.209 1.436-3.209 3.209z" fill="#7255ce"/><path d="m318.203 13.698-.073.208h-124.327c-17.916 9.504-32.553 23.869-42.512 41.116 11.894.771 26.723 5.856 42.188 21.321 34.96 34.96 89.807 35.235 125.042 0 15.662-15.662 30.673-20.68 42.642-21.35-9.952-17.405-24.749-31.868-42.96-41.295z" fill="#5c45bf"/><path d="m318.13 13.659c-4.658-2.406-9.527-4.499-14.608-6.209-13.578-4.568-29.346-7.45-47.522-7.45-15.753 0-29.698 2.165-41.975 5.716-7.113 2.057-13.872 4.821-20.222 8.19-.9 3.601-1.382 7.333-1.382 11.16 0 29.676 28.465 53.733 63.579 53.733s63.579-24.057 63.579-53.733c0-3.915-.508-7.729-1.449-11.407z" fill="#7255ce"/><ellipse cx="279.069" cy="25.2" fill="#856ee5" rx="23.069" ry="16.926"/><g fill="#2a428c"><path d="m413.047 145.028c2.647 13.441-.345 26.155-5.988 37.472-12.869 25.809-1.8 57.059 24.627 68.605 23.872 10.43 49.079 25.796 67.217 48.07 1.383-10.53 2.099-21.27 2.099-32.178 0-67.183-27.05-128.041-70.841-172.303-11.281 9.498-22.021 25.418-17.114 50.334z"/><path d="m80.315 251.106c26.427-11.546 37.496-42.797 24.627-68.605-5.643-11.317-8.635-24.031-5.988-37.472 4.907-24.916-5.834-40.836-17.114-50.333-43.792 44.261-70.842 105.12-70.842 172.303 0 10.908.716 21.648 2.099 32.178 18.139-22.275 43.345-37.641 67.218-48.071z"/></g></g></svg>