<svg id="Layer_1" enable-background="new 0 0 511.996 511.996" height="512" viewBox="0 0 511.996 511.996" width="512" xmlns="http://www.w3.org/2000/svg"><g><path d="m36.117 375.147h439.761c16.077-32.62 25.122-69.328 25.122-108.153 0-135.311-109.691-245.002-245.002-245.002s-245.002 109.691-245.002 245.002c0 38.825 9.046 75.533 25.121 108.153z" fill="#50dd89"/><path d="m124.129 316.419 33.09-13.527-18.99-26.476c-.914 1.209-2.027 2.3-3.343 3.211l-25.088 17.351c-1.155.799-2.388 1.399-3.657 1.826l14.318 19.962c1.044-.975 2.278-1.778 3.67-2.347z" fill="#856ee5"/><path d="m99.923 233.289-29.007-40.442c-4.687-6.535-13.869-8.047-20.404-3.36s-8.047 13.869-3.359 20.404l27.668 38.575c20.463 3.652 24.365-9.933 25.102-15.177z" fill="#deeeff"/><path d="m387.867 316.419c1.391.569 2.625 1.372 3.671 2.347l14.318-19.962c-1.269-.427-2.502-1.027-3.657-1.826l-25.088-17.351c-1.316-.91-2.429-2.002-3.343-3.211l-18.99 26.476z" fill="#856ee5"/><path d="m412.073 233.289 29.007-40.442c4.687-6.535 13.869-8.047 20.404-3.36s8.047 13.869 3.359 20.404l-27.668 38.575c-20.463 3.652-24.365-9.933-25.102-15.177z" fill="#deeeff"/><path d="m413.494 231.307-20.016 27.907 24.055 16.637 20.491-28.569c-24.473 4.84-24.53-15.973-24.53-15.975z" fill="#bec8f7"/><path d="m98.502 231.307 20.016 27.907-24.055 16.637-20.491-28.569c24.474 4.84 24.53-15.973 24.53-15.975z" fill="#bec8f7"/><path d="m402.199 298.978-25.088-17.351c-6.723-4.649-8.328-13.906-3.565-20.548 4.65-6.483 13.637-8.042 20.199-3.504l25.088 17.351c6.722 4.649 8.328 13.906 3.564 20.548-4.649 6.483-13.637 8.042-20.198 3.504z" fill="#9787f4"/><path d="m109.797 298.978 25.088-17.351c6.723-4.649 8.328-13.906 3.564-20.548-4.65-6.483-13.637-8.042-20.199-3.504l-25.088 17.351c-6.722 4.649-8.328 13.906-3.564 20.548 4.65 6.483 13.638 8.042 20.199 3.504z" fill="#9787f4"/><path d="m393.571 328.168-11.021 44.328c-.105.428-.018.88.238 1.237 7.586 10.56 12.735 22.899 14.892 35.686.122.724.749 1.251 1.478 1.251h.034c.745-.017 1.364-.577 1.455-1.316.475-3.846 1.182-7.675 2.104-11.382l17.331-69.699c.049-.199.122-.385.181-.578-5.456-1.566-11.369-2.671-17.816-3.198-3.61-.295-6.321-1.185-9.273-2.629.749 1.964.931 4.153.397 6.3z" fill="#9787f4"/><path d="m308.451 249.266c-5.298 6.171-10.858 11.333-16.171 15.458-10.352 8.039-23.125 12.405-36.282 12.405-1.033 0-2.062-.037-3.09-.09-.856 3.473-1.017 8.268 1.954 13.306-.179 2.968-1.461 20.036-7.622 29.875-1.021.325-3.197 1.141-5.412 2.697 4.438.688 9.151 1.083 14.171 1.083 19.03 0 33.825-5.575 45.077-12.053l9.871-42.003c-1.619-7.155-2.284-14.52-2.496-20.678z" fill="#ffaa7b"/><path d="m254.458 277.097c-12.61-.327-24.794-4.649-34.741-12.373-5.313-4.126-10.874-9.288-16.172-15.458-.212 6.159-.877 13.524-2.495 20.678l9.868 41.992c8.784 5.07 19.741 9.572 33.208 11.302 2.212-1.261 4.074-1.735 4.074-1.735 7.315-11.127 8.185-31.537 8.185-31.537-3.035-4.88-2.793-9.577-1.927-12.869z" fill="#fc9460"/><path d="m91.913 328.273 17.331 69.699c.922 3.707 1.63 7.537 2.104 11.383.091.739.71 1.3 1.455 1.316.749-.023 1.39-.517 1.513-1.251 2.156-12.787 7.306-25.128 14.892-35.688.257-.358.344-.81.238-1.237l-11.02-44.328c-.534-2.147-.352-4.336.396-6.299-2.952 1.443-5.663 2.333-9.273 2.629-6.447.527-12.361 1.632-17.816 3.198.059.194.131.38.18.578z" fill="#856ee5"/><path d="m401.165 436.409c-.083-.513-.156-1.025-.23-1.538l-.017-.122c-.105-.732-.727-1.276-1.466-1.286-.006 0-.013 0-.018 0-.73 0-1.357.526-1.478 1.249-5.288 31.094-32.046 53.662-63.624 53.662h-40.37c-17.394 0-32.404-11.792-36.504-28.677-.164-.673-.766-1.146-1.458-1.146s-1.294.474-1.458 1.146c-4.1 16.885-19.11 28.677-36.504 28.677h-18.667l15.296 9.245c-1.151 1.323-2.561 3.481-2.75 6.25-.099 1.446.157 2.88.732 4.294 14.071 2.515 28.556 3.833 43.351 3.833 29.931 0 58.604-5.373 85.115-15.201l38.053-17.994c8.591-5.008 16.85-10.522 24.736-16.504l1.23-1.49z" fill="#6c5475"/><path d="m214.432 508.466c-3.39-6.526 2.666-11.129 2.666-11.129l-14.828-8.962h-24.604c-31.578 0-58.336-22.568-63.624-53.662-.122-.729-.779-1.225-1.497-1.249-.739.01-1.36.555-1.466 1.286l-.018.122c-.074.513-.147 1.025-.23 1.536l-3.967 24.4 1.23 1.49c7.886 5.982 16.146 11.496 24.737 16.504l38.052 17.994c13.96 5.174 28.523 9.099 43.549 11.67z" fill="#543e5b"/><path d="m128.623 375.405c13.415-18.496 33.729-31.659 57.168-35.711l-9.773-46.487-51.889 21.211c-5.56 2.273-8.609 8.282-7.16 14.112z" fill="#543e5b"/><path d="m387.867 314.419-51.889-21.211-9.775 46.497c23.742 4.106 43.903 17.416 57.169 35.706l11.655-46.88c1.45-5.829-1.599-11.839-7.16-14.112z" fill="#6c5475"/><path d="m255.074 0c-3.969 5.138-20.488 29.573-1.444 58.932-1.264.431-3.049 1.11-5.11 2.08 6.368 1.305 13.003.927 19.216-1.139 11.725-3.899 30.11-7.804 45.098-1.06 17.641 7.938 16.164 32.221 15.19 45.659-.339 4.672.772 9.358 3.297 13.32 1.491 2.339 2.674 4.819 3.613 7.268 1.167 3.044 1.997 8.19 2.51 11.383 2.708-1.312 8.578-2.741 11.889-2.273.405-14.048 1.702-31.192 1.702-31.192 14.117-69.136-42.963-102.863-95.961-102.978z" fill="#fcf2c8"/><path d="m238.455 1.09c-52.68 7.178-57.687 37.046-57.711 48.004-.005 2.298-1.278 4.428-3.344 5.433-27.402 13.33-12.628 79.577-12.628 79.577 2.752.184 7.632 1.298 9.78 2.339.526-3.274 1.385-8.497 2.598-11.612.924-2.374 2.079-4.772 3.523-7.038 2.506-3.931 3.647-8.569 3.307-13.206-.985-13.403-2.51-37.813 15.182-45.774 14.988-6.744 33.374-2.839 45.098 1.06 2.25.748 4.557 1.27 6.885 1.576 2.898-1.195 4.853-1.677 4.853-1.677-22.506-32.555.222-58.883.986-59.751-6.261-.11-12.479.245-18.529 1.069z" fill="#fee884"/><path d="m355.255 133.994c-4.103-3.76-13.276-1.854-16.81.448.774 4.821.818 9.753.15 14.623l-4.17 30.372c0 2.448-.077 4.85-.219 7.211 10.169 3.067 16.22-6.062 17.071-12.327.366-2.697.965-5.355 1.796-7.949 2.704-8.447 12.462-22.957 2.182-32.378z" fill="#856ee5"/><path d="m156.742 133.994c4.103-3.76 13.276-1.854 16.81.448-.774 4.821-.818 9.753-.149 14.623l4.17 30.372c0 2.448.077 4.85.219 7.211-10.169 3.067-16.22-6.062-17.071-12.327-.366-2.697-.965-5.355-1.796-7.949-2.705-8.447-12.463-22.957-2.183-32.378z" fill="#7255ce"/><path d="m336.935 125.059c-.939-2.449-2.122-4.929-3.613-7.268-2.525-3.962-3.636-8.648-3.297-13.32.974-13.438.451-39.721-17.19-47.659-14.987-6.744-33.372-2.839-45.096 1.059-5.105 1.698-10.497 2.251-15.791 1.672-8.599 3.308-29.077 13.97-26.934 39.961-1.326 2.11-6.622 11.166-8.496 23.913-1.923 13.082-.397 32.572 17.6 51.498-.508 1.796-1.293 5.858.519 9.695 1.286 2.724 3.595 4.771 6.873 6.102-.326 1.905-.582 5.441 1.107 8.57 1.157 2.145 3.002 3.715 5.492 4.68v13.984c-2.109 2.534-4.316 7.759 0 12.536v14.436c-1.95 2.279-3.941 7.235.197 12.723l6.4 14.754c-.726 1.315-2.11 4.284-2.312 8.083 1.198.073 2.399.122 3.605.122 13.156 0 25.93-4.366 36.281-12.404 19.831-15.4 43.145-45.085 43.145-88.759l4.17-30.372c1.111-8.096.268-16.366-2.66-24.006z" fill="#ffc7ab"/><path d="m256.386 272.502-6.778-15.625c-5.028-6.501 0-11.368 0-11.368v-15.625c-5.553-5.553 0-11.368 0-11.368v-15.625c-9.445-2.82-6.354-13.139-6.354-13.139-11.882-3.875-7.435-15.23-7.435-15.23-35.158-36.181-9.267-74.637-9.267-74.637-3-32.159 29.446-40.115 29.446-40.115-3.966 0-7.933-.633-11.74-1.899-11.725-3.899-30.109-7.803-45.096-1.059-17.691 7.96-18.166 34.371-17.181 47.774.341 4.636-.801 9.274-3.307 13.206-1.444 2.266-2.599 4.664-3.523 7.038-2.998 7.701-3.871 16.052-2.748 24.229l4.171 30.379c0 43.674 23.314 73.359 43.145 88.759 9.802 7.612 21.779 11.925 34.193 12.361.25-4.722 2.474-8.056 2.474-8.056z" fill="#ffaa7b"/><path d="m333.926 164.027c-5.154 3.015-15.19 7.966-29.244 10.728v24.491c9.561-1.664 32.39-7.451 51.391-26.452l-13.881-8.642c-2.523-1.572-5.701-1.626-8.266-.125z" fill="#9787f4"/><path d="m340.542 195.677c-2.462-.643-4.15-1.802-5.017-3.44-1.408-2.664-.303-5.878-.279-5.947l.043-.14c.113-.443.228-.892.342-1.339-8.756 4.814-19.45 9.311-30.949 11.073v62.539l16.801-19.322v-25.159c0-2.76 1.479-5.336 3.86-6.723 3.967-2.31 9.881-5.706 15.534-8.772 1.036-.562 2.092-.917 3.16-1.095-1.217-.804-2.392-1.387-3.495-1.675z" fill="#d3dcfb"/><path d="m353.242 173.179c-4.238 3.317-11.014 8.167-19.407 12.6-.003.007-3.227 8.85 6.326 11.349.604.158 1.236.419 1.891.768 1.143-.455 2.306-.684 3.485-.684 2.02 0 4.088.669 6.187 2.003 2.893-6.564 5.292-14.467 6.097-23.541.22-2.481-2.617-4.03-4.579-2.495z" fill="#f0f8ff"/><path d="m207.315 174.755c-14.054-2.762-24.09-7.713-29.244-10.728-2.565-1.501-5.744-1.446-8.266.124l-13.881 8.642c19.001 19.001 41.831 24.789 51.391 26.452z" fill="#9787f4"/><path d="m154.175 175.673c.805 9.08 3.207 16.986 6.102 23.553 2.876-1.817 6.728-3.01 10.842-.78 5.653 3.066 11.567 6.463 15.534 8.772 2.381 1.387 3.86 3.963 3.86 6.723v25.159l16.801 19.322v-62.539c-21.432-3.285-40.078-16.065-48.561-22.704-1.96-1.535-4.798.014-4.578 2.494z" fill="#bec8f7"/><path d="m299.117 178.801-35.121-13.676c-5.144-2.003-10.852-2.003-15.995 0l-16.803 6.543c.923 1.084 1.891 2.167 2.919 3.248-.508 1.796-1.293 5.858.519 9.695 1.286 2.724 3.595 4.771 6.873 6.102-.326 1.905-.582 5.441 1.107 8.57 1.157 2.145 3.002 3.715 5.492 4.68v13.984c-2.109 2.534-4.316 7.759 0 12.536v14.436c-1.95 2.279-3.941 7.235.197 12.723l6.4 14.754c-.954 1.727-3.038 6.306-2.092 11.874 1.125.064 2.253.108 3.385.108 13.274 0 26.166-4.442 36.622-12.618l9.242-7.226c2.726-2.132 4.32-5.4 4.32-8.861v-66.539c0-4.572-2.806-8.674-7.065-10.333z" fill="#f0f8ff"/><path d="m256.386 272.502-6.778-15.625c-5.028-6.501 0-11.368 0-11.368v-15.625c-5.553-5.553 0-11.368 0-11.368v-15.625c-9.445-2.82-6.354-13.139-6.354-13.139-11.882-3.875-7.435-15.23-7.435-15.23-1.109-1.141-2.156-2.285-3.147-3.429l-19.793 7.707c-4.26 1.659-7.065 5.761-7.065 10.332v66.539c0 3.461 1.593 6.729 4.32 8.861l9.242 7.226c9.973 7.798 22.163 12.189 34.785 12.58-1.253-6.622 2.225-11.836 2.225-11.836z" fill="#d3dcfb"/><path d="m285.614 196.322-26.447-10.297c-2.039-.794-4.301-.794-6.339 0l-11.654 4.537c.113.049.219.104.334.15-.326 1.905-.582 5.441 1.107 8.57 1.157 2.145 3.002 3.715 5.492 4.68v13.984c-2.109 2.534-4.316 7.759 0 12.536v14.436c-1.95 2.279-3.941 7.235.197 12.723l6.4 14.754c-1.263 2.286-4.498 9.566-.068 17.526.454.014.896.043 1.361.043 15.226 0 24.596-7.723 29.722-11.965 1.877-1.553 2.962-3.859 2.962-6.295v-70.896c.001-1.984-1.217-3.766-3.067-4.486z" fill="#d3dcfb"/><path d="m256.379 289.952c-5.612-9.034.007-17.45.007-17.45l-6.778-15.625c-5.028-6.501 0-11.368 0-11.368v-15.625c-5.553-5.553 0-11.368 0-11.368v-15.625c-9.445-2.82-6.354-13.139-6.354-13.139l-16.872 6.569c-1.849.72-3.067 2.501-3.067 4.486v70.885c0 2.439 1.089 4.749 2.97 6.302 5.155 4.255 14.471 11.969 29.713 11.969.13.001.252-.01.381-.011z" fill="#bec8f7"/><path d="m255.998 321.869c-3.886 0-7.568-.266-11.055-.744-2.533 1.174-6.104 3.433-8.099 7.406-1.846 3.675-1.947 7.996-.308 12.867-.554.075-1.223.172-1.98.292 9.788 4.779 17.277 13.715 19.984 24.865.164.672.766 1.146 1.458 1.146s1.294-.474 1.458-1.146c4.082-16.81 19.026-28.6 36.343-28.674.693-.003 1.295-.481 1.453-1.157l6.985-29.724c-10.407 7.259-25.437 14.869-46.239 14.869z" fill="#9787f4"/><path d="m248.2 321.501.002-.003c-16.852-1.6-29.393-8.19-38.449-14.519l6.991 29.745c.158.676.76 1.154 1.453 1.157 6.724.029 13.086 1.831 18.597 5 1.163-.158 1.819-.219 1.819-.219-7.022-16.964 9.587-21.161 9.587-21.161z" fill="#856ee5"/><path d="m341.933 155.84c3.783-8.074 6.25-17.575 6.25-28.419v-8.792c0-10.351-8.392-18.743-18.743-18.743h-46.817z" fill="#bbe8fc"/><path d="m245.513 99.886h-20.735c-1.619 2.657-6.481 11.422-8.261 23.532-1.923 13.082-.397 32.572 17.6 51.498-.02.072-.042.153-.063.232l12.889-4.57c5.799-2.395 12.31-2.395 18.109 0l35.384 12.547c6.332 3.471 14.079 2.985 19.952-1.215 2.104-1.505 4.268-3.271 6.417-5.284z" fill="#73c3f9"/><path d="m191.607 181.91c5.873 4.201 13.62 4.686 19.952 1.215l24.26-8.602c-35.158-36.181-9.267-74.637-9.267-74.637h-43.996c-10.352 0-18.743 8.392-18.743 18.743v8.792c0 26.767 15.027 45.357 27.794 54.489z" fill="#49b1f7"/><g fill="#a8b7ef"><path d="m263.164 218.517h-13.557c-4.297 0-7.812-3.516-7.812-7.812 0-4.297 3.516-7.812 7.812-7.812h13.557c4.297 0 7.812 3.516 7.812 7.812.001 4.296-3.515 7.812-7.812 7.812z"/><path d="m263.164 245.51h-13.557c-4.297 0-7.812-3.516-7.812-7.812 0-4.297 3.516-7.812 7.812-7.812h13.557c4.297 0 7.812 3.516 7.812 7.812.001 4.296-3.515 7.812-7.812 7.812z"/><path d="m263.164 272.502h-13.557c-4.297 0-7.812-3.516-7.812-7.812 0-4.297 3.516-7.812 7.812-7.812h13.557c4.297 0 7.812 3.516 7.812 7.812.001 4.297-3.515 7.812-7.812 7.812z"/><path d="m337.11 221.128s8.993-8.418 15.209-23.308c-3.199-1.972-7.492-3.223-12.158-.692-5.668 3.074-11.616 6.491-15.574 8.795-2.855 1.662-4.606 4.715-4.606 8.019v26.885z"/><path d="m187.408 205.923c-3.958-2.304-9.906-5.721-15.574-8.795-4.666-2.531-8.959-1.28-12.158.692 6.216 14.89 15.209 23.308 15.209 23.308l17.128 19.698v-26.884c.001-3.305-1.75-6.357-4.605-8.019z"/></g><path d="m283.653 99.886h-39.139l81.789 77.209c5.93-5.44 11.779-12.794 15.938-21.937z" fill="#9bd8f9"/><path d="m294.898 338.378h15.951c6.173 0 12.199.63 18.02 1.82l5.111-24.31c-.374.179-.724.349-1.05.509-19.885 9.74-30.781-8.145-31.234-8.91l-.047-.074c-.257-.382-.517-.769-.776-1.157l-7.558 32.163c.525-.022 1.052-.041 1.583-.041z" fill="#876d93"/><path d="m183.126 340.192c5.821-1.19 11.848-1.815 18.021-1.815h15.951c.534 0 1.059.037 1.589.058l-16.915-71.976-23.716 16.275c-3.709 2.545-5.523 7.071-4.597 11.473z" fill="#876d93"/><path d="m361.029 351.751c-20.704 2.323-36.854 19.929-36.854 41.244v80.936c0 8.677 2.68 16.737 7.25 23.406h1.319c2.828 0 5.61-.194 8.347-.531 13.324-4.935 26.098-11 38.214-18.071 12.978-12.325 21.083-29.732 21.083-49.042v-3.776c0-30.856-15.608-58.064-39.359-74.166z" fill="#f0f8ff"/><path d="m325.675 473.931v-80.936c0-21.174 16.451-38.496 37.268-39.907-14.676-10.517-32.661-16.71-52.094-16.71h-15.951c-22.098 0-40.011 17.914-40.011 40.011v80.936c0 22.098 17.914 40.011 40.011 40.011h37.846c.165 0 .329-.007.494-.008-4.754-6.581-7.563-14.659-7.563-23.397z" fill="#deeeff"/><path d="m236.509 341.402c-4.707.636-17.095 2.767-29.656 8.765-20.914 9.986-31.968 25.966-31.968 46.211v53.535c0 14.596 7.76 28.353 20.25 35.902l19.061 11.521h2.901c22.097 0 40.011-17.914 40.011-40.011v-80.936c.001-15.052-8.315-28.157-20.599-34.987z" fill="#d3dcfb"/><path d="m201.147 336.378c-49.451 0-89.539 40.088-89.539 89.539v3.776c0 19.311 8.105 36.717 21.082 49.043 12.116 7.071 24.89 13.135 38.214 18.07 2.737.337 5.519.531 8.347.531h37.846l-21.186-12.805c-12.12-7.326-19.526-20.456-19.526-34.618v-53.536c0-48 62.227-53.715 62.227-53.715-6.214-3.973-13.592-6.285-21.515-6.285z" fill="#bec8f7"/><g fill="#70f2a4"><path d="m480.501 168.781c-19.022-43.419-50.263-80.257-89.381-106.171-3.724 21.229-7.269 46.087-11.567 65.254-8.747 39.012 8.667 57.567 50.333 37.348 23.355-11.334 40.669-7.694 50.615 3.569z"/><path d="m490.098 194.516c.748 13.505-3.287 28.998-12.712 43.181-30.982 46.623-22.423 70.384 13.054 100.624 6.858-22.571 10.56-46.515 10.56-71.327 0-25.232-3.819-49.572-10.902-72.478z"/></g><g fill="#70f2a4"><path d="m31.495 168.781c19.022-43.419 50.263-80.257 89.381-106.171 3.724 21.229 7.269 46.087 11.567 65.254 8.747 39.012-8.667 57.567-50.333 37.348-23.355-11.334-40.669-7.694-50.615 3.569z"/><path d="m21.898 194.516c-.748 13.505 3.287 28.998 12.712 43.181 30.982 46.623 22.423 70.384-13.054 100.624-6.858-22.571-10.56-46.515-10.56-71.327 0-25.232 3.819-49.572 10.902-72.478z"/></g><path d="m101.625 361.115-.478 1.157c-3.399.827-16.451 4.765-24.998 18.004-7.703 11.933-9.434 27.83-5.187 47.266 11.149 12.839 23.602 24.516 37.171 34.803l4.178-25.696c2.112-12.988 1.564-26.269-1.612-39.038z" fill="#deeeff"/><path d="m102.235 363.567-8.866-35.656c-2.082-8.372-12.077-11.717-18.881-6.413-17.985 14.02-30.167 33.153-38.371 53.649 9.821 19.93 22.286 38.316 36.912 54.735-14.129-58.173 29.205-66.315 29.206-66.315z" fill="#d3dcfb"/><path d="m418.319 375.525c7.428 19.09 20.912 29.806 39.023 31.057 6.922-9.967 13.131-20.466 18.536-31.435-8.204-20.496-20.386-39.629-38.371-53.649-6.804-5.305-16.799-1.96-18.881 6.413l-5.835 23.468c.494 5.428 1.843 14.676 5.528 24.146z" fill="#deeeff"/><path d="m458.329 405.145c-43.871-2.24-44.322-58.654-44.322-58.654l-12.711 51.119c-3.175 12.769-3.723 26.051-1.612 39.038l4.178 25.696c21.092-15.989 39.502-35.322 54.467-57.199z" fill="#d3dcfb"/><path d="m338.537 294.208c.926-4.402-.888-8.928-4.597-11.473l-23.716-16.275-9.821 41.788s11.765 19.985 33.186 9.494z" fill="#a98bbc"/></g></svg>