<svg id="Layer_1" enable-background="new 0 0 512 512" height="512" viewBox="0 0 512 512" width="512" xmlns="http://www.w3.org/2000/svg"><g><path d="m51.274 401.602h409.451c25.451-38.631 40.276-84.882 40.276-134.604 0-135.311-109.691-245.002-245.002-245.002s-245.001 109.691-245.001 245.002c0 49.721 14.825 95.973 40.276 134.604z" fill="#e80054"/><path d="m344.664 282.618c-1.264-4.426-2.388-8.669-3.387-12.738-6.901 5.642-18.626 17.085-14.371 26.872 5.007 11.519 9.384 22.368 19.155 22.967l4.102-5.804c-.537-9.449-2.205-19.759-5.499-31.297z" fill="#6c5475"/><path d="m328 296.653c-4.049-9.314 6.77-20.164 13.53-25.773-1.787-7.186-3.188-13.841-4.25-19.981l-32.267 37.584c-1.016 6.084-5.812 7.897-8.138 10.132-.26 1.615-.491 3.215-.71 4.808 1.117 10.214 6.907 14.432 8.055 16.303.571-1.221.678-6.276 5.909-8.152 2.506-.896 5.207-.549 7.408.961l10.438 7.163c5.649 3.879 3.402 10.075 3.422 10.442l5.662 2.315 9.51-13.457c-9.459-.627-13.709-11.163-18.569-22.345z" fill="#543e5b"/><g><path d="m177.083 331.961-27.185-37.54c-.915 1.209-2.027 2.3-3.344 3.211l-25.088 17.351c-1.155.799-2.388 1.399-3.657 1.826l22.016 30.383z" fill="#ffc839"/></g><path d="m111.592 251.293-29.007-40.442c-4.687-6.535-13.869-8.047-20.404-3.359-6.535 4.687-8.047 13.869-3.359 20.404l27.668 38.574c20.463 3.652 24.365-9.933 25.102-15.177z" fill="#deeeff"/><g><path d="m372.619 347.372 21.572-30.564c-1.269-.427-2.502-1.027-3.657-1.826l-25.088-17.351c-1.316-.91-2.429-2.001-3.344-3.211l-26.676 37.748z" fill="#ffc839"/></g><path d="m400.408 251.293 29.007-40.442c4.687-6.535 13.869-8.047 20.404-3.359 6.535 4.687 8.047 13.869 3.359 20.404l-27.668 38.574c-20.463 3.652-24.365-9.933-25.102-15.177z" fill="#deeeff"/><path d="m401.829 249.311-20.016 27.907 24.055 16.637 20.491-28.569c-24.473 4.839-24.53-15.974-24.53-15.975z" fill="#bec8f7"/><path d="m110.171 249.311 20.016 27.907-24.055 16.637-20.491-28.569c24.473 4.839 24.53-15.974 24.53-15.975z" fill="#bec8f7"/><path d="m390.534 316.982-25.088-17.351c-6.723-4.649-8.328-13.906-3.564-20.548 4.65-6.483 13.637-8.042 20.199-3.504l25.088 17.351c6.722 4.649 8.328 13.906 3.565 20.548-4.651 6.483-13.638 8.042-20.2 3.504z" fill="#ffdd40"/><path d="m121.466 316.982 25.088-17.351c6.723-4.649 8.328-13.906 3.564-20.548-4.65-6.483-13.637-8.042-20.199-3.504l-25.088 17.351c-6.722 4.649-8.328 13.906-3.564 20.548 4.65 6.483 13.637 8.042 20.199 3.504z" fill="#ffdd40"/><path d="m297.463 301.82c0-5.763 0-4.036 0-7.767-10.046 8.982-27.275 20.424-41.463 20.768-1.537-.037-3.111-.212-4.707-.492.124 2.497.983 5.25 3.158 8.063-.341 3.455-2.466 21.432-10.32 29.48-.518.295-1.816 1.09-3.276 2.386 4.685.86 9.72 1.365 15.146 1.365 18.265 0 32.254-5.626 42.701-11.921l6.048-25.735c-4.55-4.911-7.287-10.293-7.287-16.147z" fill="#ffaa7b"/><path d="m245.046 353.081c9.298-9.298 10.954-31.154 10.954-31.154-2.123-2.569-3.011-5.083-3.197-7.366-13.504-1.771-28.964-12.191-38.267-20.508v7.767c0 5.854-2.736 11.236-7.285 16.147l6.045 25.723c7.758 4.686 17.471 8.995 29.463 10.9 1.302-1.009 2.287-1.509 2.287-1.509z" fill="#fc9460"/><path d="m256 353.871c-4.714 0-9.096-.43-13.183-1.161-3.273 2.28-10.32 8.609-6.97 19.162-.806.21-1.614.43-2.423.661 10.333 4.079 18.369 12.951 21.117 24.269.164.673.766 1.147 1.458 1.147s1.294-.474 1.458-1.147c3.803-15.661 17.727-26.646 33.86-26.715.694-.003 1.296-.482 1.454-1.157l6.902-29.371c-9.693 6.889-23.866 14.312-43.673 14.312z" fill="#6c5475"/><path d="m212.32 339.538 6.907 29.392c.158.676.76 1.154 1.454 1.157 5.313.022 10.383 1.236 14.935 3.403 1.403-.38 2.207-.56 2.207-.56-5.427-13.451 7.223-19.849 7.223-19.849l.004-.004c-14.233-2.087-24.926-7.982-32.73-13.539z" fill="#543e5b"/><g><path d="m254.542 483.781c-3.413 14.055-14.943 24.317-28.919 26.345 9.954 1.231 20.09 1.874 30.377 1.874s20.423-.643 30.377-1.874c-13.975-2.029-25.505-12.29-28.919-26.345-.164-.672-.766-1.145-1.458-1.145s-1.294.473-1.458 1.145z" fill="#6c5475"/></g><path d="m256 0c-.661 0-1.318.019-1.972.05-2.959 3.858-11.879 17.633-.158 30.627-2.481 2.73-2.7 5.965-.139 8.688-.014.013-.032.03-.046.043.768-.015 1.536-.028 2.315-.028 15.725 0 29.067 3.027 40.296 7.691.317-2.05.484-4.15.484-6.29 0-22.523-18.258-40.781-40.78-40.781z" fill="#6c5475"/><path d="m215.219 40.781c0 2.139.167 4.239.484 6.29 11.23-4.664 24.571-7.691 40.297-7.691-5.833-4.418 0-8.639 0-8.639-14.695-14.696 0-30.741 0-30.741-22.522 0-40.781 18.258-40.781 40.781z" fill="#543e5b"/><path d="m256 30.74c-.742 0-1.48.014-2.216.037-2.396 2.709-2.583 5.897-.053 8.586-.713.654-1.669 1.583-2.749 2.752 1.648-.068 3.314-.115 5.018-.115 19.193 0 34.84 4.505 47.423 10.998 2.234 1.153 4.392 2.407 6.484 3.738-12.63-15.837-32.077-25.996-53.907-25.996z" fill="#ffdd40"/><path d="m256 30.74c-21.831 0-41.278 10.159-53.908 25.995 2.092-1.331 4.249-2.585 6.484-3.738 11.951-6.166 26.672-10.532 44.564-10.956 1.698-1.736 2.86-2.662 2.86-2.662-5.833-4.418 0-8.639 0-8.639z" fill="#ffb332"/><g fill="#6c5475"><path d=""/><path d="m303.423 50.377c-12.583-6.492-28.23-10.997-47.423-10.997-.783 0-1.55.019-2.322.034-3.703 3.406-13.561 13.771-15.087 28.785-1.136 11.174 2.63 22.378 11.197 33.335-.359.09-.713.187-1.066.283 1.16.402 2.334.823 3.536 1.283 2.402.921 5.081.921 7.482 0 61.107-23.425 67.47 30.211 67.964 46.766.085 2.833 1.277 5.483 3.177 7.624 2.111 2.379 3.672 5.611 4.813 9.344 3.096-2.064 7.903-3.487 12.247-3.385l.001-.013v-40.181c.001-30.448-16.973-58.667-44.519-72.878z"/></g><path d="m256 39.38c-19.193 0-34.84 4.505-47.423 10.997-27.546 14.211-44.52 42.43-44.52 72.879v40.181l.001.013c4.344-.102 9.151 1.321 12.247 3.385 1.141-3.733 2.702-6.966 4.813-9.344 1.9-2.141 3.092-4.791 3.177-7.624.491-16.463 6.796-69.588 66.967-47.134.779-.172 1.229-.243 1.229-.243-30.259-36.226 3.509-63.11 3.509-63.11z" fill="#543e5b"/><path d="m331.37 154.436c-1.893-2.134-2.935-4.627-3.012-7.209-.293-9.828-2.775-33.883-19.446-44.983-11.824-7.874-28.448-7.792-49.408.246-2.262.867-4.753.867-7.014 0-.923-.354-1.826-.672-2.732-.995.01.013.02.027.03.04-15.298 3.826-26.06 14.085-23.609 30.002-1.303 2.165-6.204 10.971-7.871 23.442-1.724 12.892-.117 32.196 17.131 51.334-2.529 6.884-.529 13.246 6.449 16.188-1.107 5.864.559 11.344 6.221 13.448v13.957c-2.124 2.525-4.344 7.739 0 12.541v14.44c-.846.983-2.549 3.33-2.582 6.335-.075 6.839 7.206 6.694 9.288 20.791-1.384 1.77-5.132 7.415-2.777 14.041 5.846.688 11.841-.143 17.318-2.513 18.957-8.201 34.349-21.73 44.514-39.125 10.01-17.13 17.823-37.889 23.228-61.742 2.34-14.874 4.831-48.34-5.728-60.238z" fill="#ffc7ab"/><path d="m253.713 318.208c-3.166-7.525 2.675-13.742 2.675-13.742s-.969-9.815-6.778-15.625c-5.81-5.81 0-11.368 0-11.368v-15.625c-5.587-5.587 0-11.368 0-11.368v-15.625c-9.266-2.527-5.962-13.291-5.962-13.291-11.978-4.068-6.462-15.562-6.462-15.562-33.793-36.665-9.435-74.153-9.435-74.153-4.25-24.782 24.741-29.36 24.741-29.36-20.96-8.035-37.584-8.118-49.407-.247-16.671 11.101-19.153 35.157-19.446 44.984-.077 2.583-1.118 5.075-3.013 7.209-10.439 11.763-8.153 46.131-5.717 60.28 5.394 23.807 13.206 44.565 23.218 61.7 10.164 17.395 25.557 30.924 44.513 39.125 3.535 1.529 7.286 2.412 11.073 2.668z" fill="#ffaa7b"/><path d="m355.257 165.958c-4.103-3.76-13.276-1.854-16.81.448.774 4.821.818 9.753.15 14.623l-4.17 30.372c0 2.448-.077 4.85-.219 7.211 10.169 3.067 16.22-6.062 17.071-12.327.366-2.697.965-5.355 1.796-7.949 2.704-8.447 12.461-22.958 2.182-32.378z" fill="#ffc839"/><path d="m156.744 165.958c4.103-3.76 13.276-1.854 16.81.448-.774 4.821-.818 9.753-.149 14.623l4.17 30.372c0 2.448.077 4.85.219 7.211-10.168 3.067-16.22-6.062-17.071-12.327-.366-2.697-.965-5.355-1.796-7.949-2.705-8.447-12.463-22.958-2.183-32.378z" fill="#ffb332"/><path d="m333.928 195.99c-5.154 3.015-15.19 7.966-29.244 10.728v24.491c9.561-1.664 32.39-7.451 51.391-26.452l-13.881-8.642c-2.523-1.571-5.701-1.626-8.266-.125z" fill="#ffdd40"/><path d="m340.614 227.66c-2.362-.743-3.896-1.938-4.56-3.551-1.2-2.917.638-6.46.654-6.491l.21-.392-.094-1.116c-8.968 5.06-20.116 9.892-32.141 11.736v62.539l16.801-19.322v-25.16c0-2.76 1.479-5.336 3.86-6.723 3.967-2.31 9.881-5.706 15.534-8.772 1.476-.8 2.989-1.204 4.529-1.226-2.307-.734-3.958-1.259-4.793-1.522z" fill="#d3dcfb"/><path d="m345.54 229.175c2.02 0 4.088.669 6.187 2.003 2.893-6.564 5.292-14.467 6.097-23.541.22-2.481-2.618-4.029-4.579-2.494-3.974 3.111-10.18 7.569-17.858 11.768s-4.892 9.14 4.777 12.181c.47.148 1.2.379 2.151.682 1.06-.39 2.135-.599 3.225-.599z" fill="#f0f8ff"/><path d="m207.316 206.718c-14.054-2.762-24.09-7.713-29.244-10.728-2.565-1.501-5.744-1.446-8.266.124l-13.881 8.642c19.001 19.001 41.831 24.788 51.391 26.452z" fill="#ffdd40"/><path d="m154.177 207.637c.805 9.08 3.207 16.986 6.102 23.553 2.876-1.817 6.728-3.01 10.842-.78 5.653 3.066 11.567 6.463 15.534 8.772 2.381 1.387 3.86 3.963 3.86 6.723v25.159l16.801 19.322v-62.539c-21.432-3.285-40.078-16.065-48.561-22.704-1.96-1.536-4.798.013-4.578 2.494z" fill="#bec8f7"/><path d="m299.119 210.764-35.121-13.676c-5.144-2.003-10.852-2.003-15.995 0l-15.338 5.973c.879 1.084 1.799 2.168 2.775 3.252-2.529 6.884-.529 13.246 6.449 16.188-1.107 5.864.559 11.344 6.221 13.448v13.957c-2.124 2.525-4.344 7.739 0 12.541v14.44c-.846.983-2.549 3.33-2.582 6.335-.075 6.839 7.206 6.694 9.288 20.791-1.25 1.599-4.432 6.361-3.299 12.151 1.488.113 2.983.177 4.484.177 13.274 0 26.166-4.442 36.622-12.618l9.241-7.227c2.727-2.132 4.32-5.4 4.32-8.861v-66.539c0-4.571-2.806-8.673-7.065-10.332z" fill="#f0f8ff"/><path d="m256.388 304.466s-.969-9.815-6.778-15.625c-5.81-5.81 0-11.368 0-11.368v-15.625c-5.587-5.587 0-11.368 0-11.368v-15.625c-9.266-2.527-5.962-13.291-5.962-13.291-11.978-4.068-6.462-15.562-6.462-15.562-1.078-1.17-2.096-2.341-3.058-3.511l-21.246 8.273c-4.26 1.659-7.065 5.761-7.065 10.332v66.539c0 3.461 1.593 6.729 4.32 8.861l9.242 7.227c9.686 7.573 21.462 11.935 33.695 12.538-1.551-6.62 3.314-11.795 3.314-11.795z" fill="#d3dcfb"/><path d="m285.616 228.286-26.447-10.297c-2.039-.793-4.301-.793-6.339 0l-11.233 4.374c.1.044.19.095.292.138-1.107 5.864.559 11.344 6.221 13.448v13.957c-2.124 2.525-4.344 7.739 0 12.541v14.44c-.846.983-2.549 3.33-2.582 6.335-.075 6.839 7.206 6.694 9.288 20.791-1.643 2.103-6.623 9.669-.749 17.854.638.028 1.273.061 1.934.061 15.226 0 24.596-7.723 29.722-11.965 1.877-1.553 2.962-3.859 2.962-6.295v-70.896c-.001-1.985-1.219-3.766-3.069-4.486z" fill="#d3dcfb"/><path d="m256.388 304.466s-.969-9.815-6.778-15.625c-5.81-5.81 0-11.368 0-11.368v-15.625c-5.587-5.587 0-11.368 0-11.368v-15.625c-9.266-2.527-5.962-13.291-5.962-13.291l-17.263 6.722c-1.85.72-3.067 2.501-3.067 4.486v70.885c0 2.44 1.089 4.749 2.97 6.302 5.155 4.256 14.471 11.969 29.713 11.969-7.501-9.08.387-17.462.387-17.462z" fill="#bec8f7"/><path d="m341.935 187.803c3.783-8.075 6.25-17.575 6.25-28.419v-8.792c0-10.352-8.392-18.743-18.743-18.743h-46.817z" fill="#bbe8fc"/><path d="m245.515 131.849h-19.52c-1.519 2.589-6.087 11.163-7.687 23.129-1.724 12.892-.117 32.196 17.131 51.334-.043.117-.074.233-.115.35l11.621-4.121c5.799-2.395 12.31-2.395 18.109 0l35.384 12.547c6.332 3.471 14.079 2.986 19.952-1.215 2.104-1.505 4.268-3.271 6.418-5.284z" fill="#73c3f9"/><path d="m191.609 213.873c5.873 4.201 13.62 4.686 19.952 1.215l25.624-9.086c-33.793-36.665-9.435-74.153-9.435-74.153h-45.191c-10.352 0-18.743 8.392-18.743 18.743v8.792c-.001 26.768 15.026 45.358 27.793 54.489z" fill="#49b1f7"/><g fill="#a8b7ef"><path d="m263.166 250.48h-13.557c-4.297 0-7.812-3.516-7.812-7.812 0-4.297 3.516-7.812 7.812-7.812h13.557c4.297 0 7.812 3.516 7.812 7.812 0 4.296-3.515 7.812-7.812 7.812z"/><path d="m263.166 277.473h-13.557c-4.297 0-7.812-3.516-7.812-7.812 0-4.297 3.516-7.812 7.812-7.812h13.557c4.297 0 7.812 3.516 7.812 7.812 0 4.296-3.515 7.812-7.812 7.812z"/><path d="m263.166 304.466h-13.557c-4.297 0-7.812-3.516-7.812-7.812 0-4.297 3.516-7.812 7.812-7.812h13.557c4.297 0 7.812 3.516 7.812 7.812 0 4.296-3.515 7.812-7.812 7.812z"/><path d="m337.112 253.091s8.993-8.418 15.209-23.308c-3.199-1.972-7.492-3.223-12.158-.692-5.668 3.074-11.616 6.491-15.574 8.795-2.855 1.662-4.606 4.715-4.606 8.019v26.885z"/><path d="m187.41 237.886c-3.958-2.304-9.907-5.721-15.574-8.795-4.666-2.531-8.959-1.28-12.158.692 6.216 14.89 15.209 23.308 15.209 23.308l17.128 19.698v-26.885c.001-3.303-1.75-6.356-4.605-8.018z"/></g><path d="m283.655 131.849h-39.139l81.789 77.209c5.93-5.44 11.779-12.794 15.938-21.937z" fill="#9bd8f9"/><path d="m136.771 404.174c12.546-17.187 31.626-29.301 53.597-32.652l-9.097-43.274-48.482 19.818c-5.195 2.124-8.044 7.739-6.69 13.185z" fill="#a8b7ef"/><path d="m375.228 404.174 10.671-42.923c1.354-5.446-1.495-11.061-6.69-13.185l-48.482-19.818-9.097 43.274c21.973 3.351 41.053 15.465 53.598 32.652z" fill="#d3dcfb"/><path d="m329.03 346.634c-20.092 10.578-29.146-3.89-30.876-7.159l-7.314 31.125c.21-.004.418-.016.629-.016h17.743c5.096 0 10.076.49 14.914 1.383l5.375-25.569c-.163.078-.322.158-.471.236z" fill="#deeeff"/><path d="m187.875 371.966c4.838-.893 9.817-1.383 14.914-1.383h17.743c.211 0 .419.012.629.016l-12.574-53.504c-1.565-6.66-9.333-9.666-14.973-5.795l-10.438 7.162c-3.465 2.378-5.16 6.607-4.295 10.72z" fill="#d3dcfb"/><path d="m320.446 492.978v-70.402c0-19.304 15.704-35.008 35.007-35.008h7.352c-14.831-11.849-33.67-18.984-53.593-18.984h-17.743c-20.162 0-36.507 16.344-36.507 36.507v70.403c0 16.771 11.313 30.891 26.721 35.169 13.788-1.436 27.233-4.022 40.244-7.65-.964-3.201-1.481-6.574-1.481-10.035z" fill="#deeeff"/><path d="m393.908 450.28c0-26.051-13.194-49.253-33.03-64.212h-5.426c-20.162 0-36.507 16.344-36.507 36.507v70.403c0 3.628.532 7.132 1.517 10.439 26.545-7.222 51.298-18.79 73.445-33.9v-19.237z" fill="#f0f8ff"/><path d="m235.737 371.902c-25.802 6.757-53.487 23.734-53.487 50.609v44.089c0 10.689 3.761 21.106 10.589 29.331l8.188 9.863c9.562 2.193 19.336 3.832 29.29 4.868 15.408-4.278 26.721-18.398 26.721-35.169v-70.403c0-14.734-8.733-27.42-21.301-33.188z" fill="#d3dcfb"/><path d="m237.819 372.932c-5.146-2.773-11.033-4.348-17.288-4.348h-17.743c-45.12 0-84.697 36.577-84.697 81.697v19.236c25.422 17.345 54.276 30.028 85.335 36.82l-9.434-11.363c-6.62-7.973-10.243-18.01-10.243-28.373v-44.089c.001-37.482 53.912-49.545 54.07-49.58z" fill="#bec8f7"/><path d="m402.448 337.534c-1.517 5.31-9.93 38.14 5.348 65.15 6.803 12.029 17.346 21.048 31.411 26.949 7.817-8.803 15.018-18.165 21.519-28.032-8.847-19.433-20.764-39.306-36.632-55.312-6.322-6.377-14.148-9.119-21.795-8.979z" fill="#ffdd40"/><path d="m440.243 428.449c-56.42-23.261-36.655-89.524-36.169-91.122-16.183-.66-32.141 11.844-32.006 30.804l.228 32.18c.112 15.685 3.408 31.183 9.689 45.556l10.131 23.182c.19.436.393.862.598 1.288 17.609-11.865 33.576-25.972 47.529-41.888z" fill="#ffc839"/><path d="m100.422 389.017c-8.687 16.56-17.13 36.933-12.504 56.199 9.74 9.193 20.222 17.61 31.369 25.119.205-.425.407-.852.598-1.288l10.131-23.182c6.281-14.373 9.577-29.871 9.689-45.556l.175-24.699c-9.68-1.619-30.843-3.013-39.458 13.407z" fill="#ffdd40"/><path d="m377.23 54.053c-5.387 23.673-11.504 58.1-9.126 84.648 2.059 22.98 22.143 39.082 43.942 38.139 60.788-2.629 79.483 38.815 54.37 82.16-30.668 52.933-33.425 94.363 8.002 119.094 16.996-33.347 26.584-71.101 26.584-111.096 0-91.207-49.843-170.766-123.772-212.945z" fill="#ff4155"/><path d="m134.77 54.053c5.387 23.673 11.504 58.1 9.126 84.648-2.059 22.98-22.143 39.082-43.942 38.139-60.788-2.629-79.483 38.815-54.37 82.16 30.668 52.933 33.425 94.363-8.002 119.094-16.996-33.347-26.583-71.101-26.583-111.096-.001-91.207 49.842-170.766 123.771-212.945z" fill="#ff4155"/><path d="m329.03 348.634 4.089-19.451c.865-4.113-.83-8.342-4.295-10.72l-10.438-7.162c-5.64-3.871-13.409-.864-14.973 5.795l-5.579 23.739c0-.001 8.657 19.665 31.196 7.799z" fill="#f0f8ff"/><path d="m139.869 377.152.064-9.021c.193-27.246-32.844-41.192-52.027-21.842-15.867 16.006-27.784 35.879-36.632 55.312 11.021 16.729 24.04 32.024 38.711 45.555-5.879-19.599 2.921-40.582 11.765-57.441 8.181-15.594 28.898-14.105 38.119-12.563z" fill="#ffc839"/></g></svg>