<svg id="Layer_1" enable-background="new 0 0 512 512" height="512" viewBox="0 0 512 512" width="512" xmlns="http://www.w3.org/2000/svg"><g><path d="m21.81 339.172h468.38c7.024-22.817 10.812-47.053 10.812-72.174 0-135.311-109.691-245.002-245.002-245.002s-245.002 109.691-245.002 245.002c0 25.121 3.788 49.357 10.812 72.174z" fill="#49b1f7"/><path d="m259.291 1.475c-6.767 6.187-27.959 29.233-7.897 59.974 22.316 34.197 72.685 124.904 74.742 128.612.526 1.464 5.028 13.023 17.521 18.229 9.822 4.092 21.775 3.087 35.558-2.956 3.399-11.831 3.423-24.729-.539-36.948-2.172-6.696-2.054-13.811.02-20.121 13.514-41.099-16.767-56.004-36.241-107.489-16.931-44.769-64.837-41.939-80.335-39.751-1.233.174-2.276.253-3.214.29z" fill="#ad5c38"/><path d="m262.12 1.025c-2.648.373-4.447.319-6.12.322-1.693-.004-3.407.06-6.12-.322-15.498-2.187-63.405-5.017-80.337 39.752-19.474 51.484-49.755 66.39-36.241 107.489 2.075 6.31 2.192 13.424.021 20.121-10.262 31.644 6.114 67.883 39.036 78.201 25.977 8.142 54.173 13.851 83.642 13.851s57.665-5.709 83.641-13.851c20.875-6.542 35.084-23.51 40.082-43.116-41.127 18.712-52.214-14.027-52.214-14.027s-51.898-93.63-74.86-128.816 9.47-59.604 9.47-59.604z" fill="#9b4d2f"/><path d="m345.35 242.612c-6.937-4.484-14.683-4.997-14.683-4.997h-38.91c.631 6.683 1.901 13.991 4.372 20.48 2.702 7.097 22.669 17.451 29.99 19.47 5.927 1.634 11.705 3.533 17.386 5.658 6.042-4.598 10.329-15.226 10.329-21.942-.001-9.207-4.12-15.055-8.484-18.669z" fill="#4b6bb2"/><path d="m185.882 277.566c7.32-2.019 27.288-12.373 29.99-19.47 2.471-6.49 3.741-13.798 4.372-20.481h-38.91c-4.708 0-8.864 1.18-12.405 2.867.356-.079.709-.161 1.071-.235-.095.057-.19.114-.285.173-5.268 3.242-11.547 9.492-11.547 20.861 0 6.716 4.287 17.345 10.329 21.943 5.68-2.125 11.458-4.024 17.385-5.658z" fill="#2a428c"/><path d="m295.279 244.682c-7.637 7.163-16.563 13.025-26.529 17.337-5.072 2.194-10.61 3.014-16.031 2.462.512.886 1.055 1.777 1.662 2.676.217 3.273 1.407 26.6-7.294 41.711-.801 1.392-2.667 3.495-5.38 6.159 10.135 1.371 21.372 1.255 31.286-.385 24.12-3.992 43.705-10.577 56.638-19.043 7.427-4.861 13.895-10.327 19.367-16.338-22.964-7.395-48.734-18.961-53.719-34.579z" fill="#ffaa7b"/><path d="m255.849 266.646c-.469-.682-.909-1.36-1.322-2.035-3.856-.176-7.686-1.037-11.282-2.592-9.965-4.311-18.89-10.172-26.526-17.334-4.988 15.618-30.758 27.183-53.722 34.577 5.47 6.007 11.939 11.473 19.367 16.336 12.932 8.466 32.517 15.051 56.637 19.043 1.489.246 3.013.451 4.554.629 2.413-2.416 4.073-4.336 4.833-5.655 9.68-16.809 7.461-42.969 7.461-42.969z" fill="#fc9460"/><path d="m179.197 167.628s-4.761-30.13.722-48.073c-4.975-3.316-14.588-4.936-18.911-.709-8.851 8.653-2.366 21.72.738 29.974.953 2.534 1.568 5.098 1.846 7.666.604 5.58 3.629 13.747 16.174 13.555-.19-.804-.384-1.596-.569-2.413z" fill="#fc9460"/><path d="m350.992 118.846c-4.323-4.227-13.936-2.607-18.911.709 5.483 17.944.723 48.073.723 48.073-.185.817-.379 1.609-.569 2.413 12.545.193 15.57-7.975 16.174-13.555.278-2.568.893-5.132 1.845-7.666 3.104-8.254 9.589-21.321.738-29.974z" fill="#ffaa7b"/><path d="m327.953 110.219c-1.808-2.037-2.802-4.417-2.875-6.882-.28-9.382-2.649-32.346-18.564-42.943-11.288-7.517-27.158-7.439-47.168.235-2.159.828-4.537.828-6.697 0-.542-.208-1.069-.388-1.605-.585-4.656 4.209-32.191 31.138-12.299 62.439l3.525 9.367c-2.837 2.926-6.076 9.121-2.098 16.166l-.066.309c-3.022 4.654-5.85 15.506 3.59 25.633l-3.952 7.82c-.066.143-6.481 14.342 5.085 22.009l8.205 8.591c-.954 1.664-1.513 4.214.509 6.562l.745 6.259c-1.064 1.462-3.993 5.883-5.616 12.252-1.771 6.947-2.219 17.57 5.344 29.13 5.003.307 10.066-.542 14.735-2.562 18.097-7.83 32.792-20.745 42.495-37.351 9.557-16.353 17.015-36.171 22.175-58.942 2.233-14.2 4.612-46.148-5.468-57.507z" fill="#ffc7ab"/><path d="m255.581 231.315.031-7.723c-2.899-2.899-1.064-6.466-1.064-6.466l-5.047-9.588c-10.817-7.022-5.661-22.411-5.661-22.411l2.147-8.525c-12.436-12.436-5.226-25.96-5.226-25.96l.348-1c-5.474-8.929 2.32-16.791 2.32-16.791l-2.918-9.932c-21.268-33.257 12.138-62.29 12.138-62.29-20.01-7.671-35.879-7.75-47.166-.236-15.914 10.597-18.283 33.562-18.563 42.944-.074 2.466-1.067 4.845-2.876 6.882-9.966 11.23-7.783 44.039-5.458 57.546 5.149 22.727 12.607 42.544 22.165 58.902 9.703 16.606 24.398 29.521 42.495 37.351 4.006 1.733 8.302 2.606 12.602 2.626-15.261-22.168-.267-35.329-.267-35.329z" fill="#ffaa7b"/><path d="m100.155 440.579c-6.049.104-12.241-.394-18.41-1.374 6.341 6.416 13.034 12.479 20.046 18.167-.612-5.568-1.17-11.19-1.636-16.793z" fill="#fc90ce"/><path d="m57.843 411.081c7.633 10.479 16.067 20.338 25.23 29.468 5.765.799 11.532 1.169 17.165 1.006-.576-6.794-1.026-13.559-1.302-20.146-15.68-.926-29.442-5.011-41.093-10.328z" fill="#fb7ac0"/><path d="m51.667 300.281c-14.903 13.143-24.135 26.758-29.857 38.891 7.141 23.198 17.629 44.929 30.909 64.624 9.049-4.591 13.523-14.332 13.763-14.869.043-.082 7.186-14.376 25.325-51.453 12.258-25.055 2.876-46.866-5.052-58.927-10.789 4.101-22.746 10.85-35.088 21.734z" fill="#fc90ce"/><path d="m131.237 284.152c-3.4-2.429-4.02-7.163-1.508-10.386-7.003-1.323-23.609-2.926-44.343 5.316 7.789 11.654 17.179 32.989 5.073 57.732-18.347 37.5-25.347 51.5-25.347 51.5s-4.38 9.778-13.231 14.209c2.414 3.629 4.915 7.195 7.514 10.684 11.842 5.081 25.739 8.819 41.506 9.338-1.302-32.883 1.823-61.144 15.432-66.081 35.333-12.817 48.867-29.155 48.867-29.155-8.094-22.135-24.534-36.42-33.963-43.157z" fill="#fcb1df"/><path d="m411.845 440.579c-.466 5.603-1.023 11.224-1.637 16.792 7.013-5.688 13.706-11.751 20.047-18.167-6.169.981-12.362 1.479-18.41 1.375z" fill="#fc90ce"/><path d="m411.762 441.555c5.632.164 11.4-.207 17.165-1.006 9.163-9.13 17.596-18.989 25.229-29.468-11.65 5.318-25.413 9.402-41.092 10.328-.276 6.587-.726 13.351-1.302 20.146z" fill="#fb7ac0"/><path d="m460.333 300.281c-12.342-10.884-24.299-17.633-35.088-21.735-7.928 12.062-17.311 33.872-5.052 58.927 18.139 37.077 25.282 51.371 25.325 51.453.24.537 4.714 10.278 13.763 14.869 13.28-19.695 23.768-41.426 30.909-64.624-5.722-12.132-14.954-25.747-29.857-38.89z" fill="#fcb1df"/><path d="m452.605 413.208c2.599-3.489 5.099-7.055 7.514-10.684-8.852-4.431-13.231-14.209-13.231-14.209s-7-14-25.347-51.5c-12.106-24.743-2.716-46.078 5.073-57.732-20.733-8.242-37.34-6.639-44.343-5.316 2.512 3.223 1.891 7.957-1.508 10.386-9.429 6.737-25.868 21.022-33.963 43.157 0 0 13.534 16.338 48.867 29.155 13.609 4.937 16.734 33.198 15.432 66.081 15.767-.52 29.664-4.257 41.506-9.338z" fill="#fc90ce"/><path d="m326.895 476.135c-7.937-8.618-19.118-13.52-30.833-13.52-8.617 0-29.711 0-51.243 0 .571.728 1.154 1.455 1.76 2.181-1.645 3.082-6.831 13.42-9.688 26.303-1.585 7.144-2.146 13.835-1.728 20.01 6.87.579 13.816.891 20.837.891 32.476 0 63.469-6.334 91.831-17.809-3.579-.928-6.927-2.846-9.583-5.729z" fill="#fb7ac0"/><path d="m246.735 462.615c-17.551 0-35.632 0-47.687 0-11.716 0-22.896 4.902-30.833 13.52l-11.354 12.327c-.6.651-1.245 1.238-1.911 1.792 25.235 11.44 52.754 18.724 81.683 20.987-1.603-23.191 11.755-46.625 11.755-46.625-.569-.667-1.115-1.334-1.653-2.001z" fill="#f964b2"/><path d="m398.667 355.464c-35.333-12.817-48.867-29.155-48.867-29.155h-1.051c-.687.974-1.572 1.804-2.606 2.427l-41.038 24.729c-1.88 4.531-6.302 7.483-11.207 7.483-12.131 0-32.43 0-49.394 0 .601.708 1.233 1.415 1.906 2.122-2.599 3.52-10.735 15.411-15.22 31.868-4.824 17.703-6.03 44.068 15.242 69.677h49.629c11.716 0 22.897 4.902 30.833 13.52l11.354 12.327c1.97 2.139 4.322 3.748 6.865 4.819 24.216-9.46 46.558-22.659 66.315-38.892 4.882-45.506 5.534-94.288-12.761-100.925z" fill="#d3dcfb"/><path d="m246.5 360.948c-12.4 0-23.305 0-28.398 0-4.905 0-9.327-2.953-11.207-7.483l-41.038-24.729c-1.034-.623-1.919-1.453-2.606-2.427h-1.051s-13.534 16.338-48.867 29.155c-18.295 6.637-17.644 55.419-12.762 100.924 16.876 13.866 35.64 25.513 55.845 34.513.146-.149.301-.286.443-.44l11.354-12.327c7.937-8.618 19.118-13.52 30.833-13.52h49.34c-42-49.2 0-101.667 0-101.667-.664-.665-1.287-1.332-1.886-1.999z" fill="#bec8f7"/><path d="m183.822 305.685c-9.196-4.439-27.834-14.415-38.723-26.982-4.327-4.994-5.769-11.384-4.598-17.295l-1.646-1.569-11.679 12.398c-3.026 3.212-2.529 8.35 1.061 10.916 9.429 6.737 25.869 21.022 33.963 43.157.676 1.849 1.97 3.411 3.657 4.427l41.038 24.729h2l-17.201-41.46c-1.514-3.649-4.316-6.604-7.872-8.321z" fill="#d3dcfb"/><path d="m328.178 305.685c9.196-4.439 27.834-14.415 38.723-26.982 4.327-4.994 5.769-11.384 4.598-17.295l1.646-1.569 11.679 12.398c3.026 3.212 2.529 8.35-1.061 10.916-9.429 6.737-25.869 21.022-33.963 43.157-.676 1.849-1.97 3.411-3.657 4.427l-41.038 24.729h-2l17.201-41.46c1.514-3.649 4.316-6.604 7.872-8.321z" fill="#d3dcfb"/><path d="m365.201 248.692c-7.916-5.544-19.565-11.078-34.535-11.078 0 0 21.667 3 21.667 23.667 0 17.202-31.638 27.245-42.247 30.129-2.312.628-4.429 1.808-6.185 3.439l-11.633 10.803c-2.744 2.547-6.349 3.963-10.093 3.963-11.928 0-23.848 0-35.769 0-4.358 5.265-22.332 29.85-.108 53.333h47.6c4.905 0 9.327-2.953 11.207-7.483l17.201-41.46c1.513-3.648 4.315-6.603 7.872-8.32 9.196-4.439 27.835-14.415 38.723-26.982 7.942-9.168 6.235-23.052-3.7-30.011z" fill="#f0f8ff"/><path d="m229.824 309.615c-3.744 0-7.349-1.416-10.093-3.963l-11.633-10.803c-1.756-1.63-3.873-2.81-6.185-3.439-10.608-2.884-42.246-12.927-42.246-30.129 0-20.667 21.667-23.667 21.667-23.667-14.969 0-26.619 5.533-34.535 11.078-9.935 6.959-11.642 20.842-3.699 30.01 10.888 12.567 29.527 22.543 38.723 26.982 3.556 1.717 6.358 4.672 7.872 8.32l17.202 41.46c1.88 4.531 6.302 7.483 11.207 7.483h30.286c-25.933-25.933 0-53.333 0-53.333-6.189.001-12.379.001-18.566.001z" fill="#deeeff"/><path d="m362.798 381.615h-27.767s-5.824 5.336 0 11.159v39.422s-5.824 5.335 0 11.16h27.767c6.11 0 11.109-4.999 11.109-11.109v-39.522c.001-6.111-4.998-11.11-11.109-11.11z" fill="#4b6bb2"/><path d="m336.031 381.615h-25.823c-6.11 0-11.109 4.999-11.109 11.109v39.522c0 6.11 4.999 11.109 11.109 11.109h25.823c-5.824-5.824 0-11.16 0-11.16v-39.422c-5.824-5.822 0-11.158 0-11.158z" fill="#3c58a0"/><path d="m319.915 392.774h-6.996c-1.285 0-2.326 1.041-2.326 2.326v24.515h11.648v-24.515c0-1.284-1.042-2.326-2.326-2.326z" fill="#2a428c"/><path d="m339.529 432.196h-6.996c-1.284 0-2.326-1.041-2.326-2.326v-23.956h11.648v23.956c0 1.285-1.041 2.326-2.326 2.326z" fill="#fb7ac0"/><path d="m339.529 392.774h-6.996c-1.284 0-2.326 1.041-2.326 2.326v12.015h11.648v-12.015c0-1.284-1.041-2.326-2.326-2.326z" fill="#2a428c"/><path d="m359.144 432.196h-6.996c-1.284 0-2.326-1.041-2.326-2.326v-34.77c0-1.284 1.041-2.326 2.326-2.326h6.996c1.285 0 2.326 1.041 2.326 2.326v34.771c0 1.284-1.041 2.325-2.326 2.325z" fill="#ffdd40"/><path d="m319.915 432.196h-6.996c-1.285 0-2.326-1.041-2.326-2.326v-10.815h11.648v10.815c0 1.285-1.042 2.326-2.326 2.326z" fill="#73c3f9"/><path d="m139.214 289.977c-6.41 2.72-13.88-.3-16.599-6.71l-4.538-10.696c-2.72-6.41.3-13.88 6.71-16.6 6.41-2.72 13.88.3 16.6 6.71l4.538 10.696c2.718 6.411-.301 13.88-6.711 16.6z" fill="#fb7ac0"/><path d="m372.786 289.977c6.41 2.72 13.88-.3 16.599-6.71l4.538-10.696c2.72-6.41-.299-13.88-6.709-16.6-6.41-2.72-13.88.3-16.6 6.71l-4.538 10.696c-2.719 6.411.3 13.88 6.71 16.6z" fill="#fb7ac0"/><g><path d="m317.529 146.796c-4.747-5.354-9.327-8.446-13.572-10.022.833 2.011 1.3 4.34 1.275 6.821-.043 4.21-1.493 7.945-3.728 10.396 3.536-.795 6.299-1.945 8.003-2.829 3.45-1.789 6.053-2.5 7.599-2.783.643-.117.892-1.053.423-1.583z" fill="#deeeff"/></g><path d="m277.911 145.685c-.025 2.491.535 4.798 1.499 6.697 3.663 1.383 7.179 2.12 10.45 2.401-2.73-2.443-4.518-6.671-4.469-11.464.018-1.811.301-3.532.79-5.104-2.116 1.167-3.826 2.51-5.037 3.644-.889.831-1.995 1.732-3.164 2.63-.036.392-.064.79-.069 1.196z" fill="#deeeff"/><g><path d="m278.239 144.294c-2.524 1.957-5.427 3.921-7.265 5.128-.496.326-.303 1.212.264 1.219l.257.003c2.416.033 4.815.508 7.101 1.427.386.155.769.297 1.152.438-1.045-1.788-1.662-4.06-1.637-6.529.006-.576.055-1.137.128-1.686z" fill="#ffaa7b"/></g><g><path d="m285.396 138.665c-.595 1.548-.936 3.261-.953 5.069-.046 4.677 2.069 8.79 5.254 11.034 4.621.417 8.763-.06 12.16-.858 2.513-2.29 4.147-5.855 4.187-9.882.026-2.638-.635-5.097-1.788-7.143-7.719-2.984-14.345-.925-18.86 1.78z" fill="#73c3f9"/></g><g><path d="m296.076 140.7c0-1.975-.591-3.778-1.565-5.169-3.556.376-6.65 1.658-9.115 3.135-.595 1.548-.936 3.261-.954 5.069-.007.697.04 1.38.125 2.048 1.193 1.756 2.991 2.875 5.004 2.875 3.593-.001 6.505-3.564 6.505-7.958z" fill="#49b1f7"/></g><g><path d="m302.238 140.695c0 .994-.806 1.8-1.801 1.8-.994 0-1.8-.806-1.8-1.8s.806-1.8 1.8-1.8c.995 0 1.801.806 1.801 1.8z" fill="#bbe8fc"/></g><g><path d="m320.635 129.448c-.856-3.697-3.787-12.218-12.786-13.551-9.086-1.346-27.626 3.921-35.119 6.228-1.996.615-3.487 2.283-3.879 4.334l-1.128 5.913c-.096.502.392.917.872.741 5.656-2.064 31.723-11.299 40.031-9.318 6.335 1.51 9.748 4.358 11.288 6.035.292.318.818.039.721-.382z" fill="#ad5c38"/></g><g><path d="m194.472 146.796c4.747-5.354 9.327-8.446 13.572-10.022-.833 2.011-1.3 4.34-1.275 6.821.043 4.21 1.493 7.945 3.728 10.396-3.536-.795-6.299-1.945-8.004-2.829-3.45-1.789-6.053-2.5-7.599-2.783-.643-.117-.892-1.053-.422-1.583z" fill="#deeeff"/></g><path d="m232.818 152.295c.919-1.974 1.448-4.317 1.423-6.834-.003-.281-.02-.557-.038-.832-1.237-.944-2.411-1.896-3.347-2.771-1.211-1.133-2.921-2.477-5.037-3.644.489 1.572.772 3.293.79 5.104.048 4.793-1.739 9.021-4.469 11.464 3.339-.287 6.932-1.047 10.678-2.487z" fill="#deeeff"/><g><path d="m233.761 144.294c2.524 1.957 5.427 3.921 7.265 5.128.496.326.303 1.212-.265 1.219l-.257.003c-2.416.033-4.815.508-7.101 1.427-.386.155-.769.297-1.152.438 1.045-1.788 1.662-4.06 1.637-6.529-.005-.576-.054-1.137-.127-1.686z" fill="#fc9460"/></g><g><path d="m226.605 138.665c.595 1.548.936 3.261.954 5.069.046 4.677-2.069 8.79-5.254 11.034-4.621.417-8.763-.06-12.16-.858-2.513-2.29-4.148-5.855-4.187-9.882-.026-2.638.635-5.097 1.789-7.143 7.716-2.984 14.342-.925 18.858 1.78z" fill="#73c3f9"/></g><g><path d="m215.924 140.7c0-1.975.591-3.778 1.565-5.169 3.556.376 6.651 1.658 9.115 3.135.595 1.548.936 3.261.954 5.069.007.697-.04 1.38-.125 2.048-1.193 1.756-2.992 2.875-5.004 2.875-3.592-.001-6.505-3.564-6.505-7.958z" fill="#49b1f7"/></g><g><path d="m209.762 140.695c0 .994.806 1.8 1.801 1.8.994 0 1.8-.806 1.8-1.8s-.806-1.8-1.8-1.8-1.801.806-1.801 1.8z" fill="#bbe8fc"/></g><g><path d="m191.365 129.448c.856-3.697 3.787-12.218 12.786-13.551 9.087-1.346 27.626 3.921 35.119 6.228 1.996.615 3.488 2.283 3.879 4.334l1.128 5.913c.096.502-.392.917-.872.741-5.656-2.064-31.723-11.299-40.031-9.318-6.335 1.51-9.748 4.358-11.288 6.035-.292.318-.818.039-.721-.382z" fill="#9b4d2f"/></g><g fill="#fc9460"><path d="m238.086 209.96 7.181-2.832c.807-.318 1.7-.355 2.531-.104l8.276 2.496 8.275-2.496c.832-.251 1.724-.214 2.531.104l7.181 2.832c1.984.782 2.958 3.025 2.176 5.009-.78 1.978-3.019 2.96-5.009 2.176l-5.934-2.34-8.071 2.434c-.782.244-1.597.227-2.302-.001l-8.069-2.433-5.934 2.34c-1.981.779-4.224-.187-5.009-2.176-.781-1.984.193-4.227 2.177-5.009z"/><path d="m253.363 223.592h4.956c2.133 0 3.861 1.729 3.861 3.861 0 2.133-1.729 3.861-3.861 3.861h-4.956c-2.133 0-3.861-1.729-3.861-3.861 0-2.133 1.728-3.861 3.861-3.861z"/><path d="m238.68 178.01 6.293-1.325c1.811-.379 3.493.369 4.296 1.906 1.349 2.091 3.818 3.307 6.634 3.307 2.815 0 5.283-1.217 6.601-3.255.833-1.59 2.519-2.337 4.328-1.959l6.293 1.325c2.165.456 3.556 2.589 3.1 4.754-.455 2.163-2.587 3.555-4.754 3.101l-3.508-.739c-.045-.01-.091-.014-.136-.014-.171 0-.338.067-.463.189-6.214 6.138-16.713 6.138-22.926.001-.157-.156-.383-.222-.598-.176l-3.508.739c-2.166.453-4.298-.937-4.754-3.101-.455-2.164.936-4.297 3.102-4.753z"/></g><path d="m102.914 115.79c6.591-16.596 6.396-31.032 3.409-42.753-57.978 44.807-95.325 115.018-95.325 193.961 0 8.6.455 17.093 1.32 25.464 16.024-21.97 40.069-27.367 73.929-43.037 55.579-25.723-10.166-66.067 16.667-133.635z" fill="#73c3f9"/><path d="m409.086 115.79c-6.591-16.596-6.397-31.032-3.409-42.753 57.978 44.807 95.324 115.018 95.324 193.961 0 8.6-.455 17.093-1.32 25.464-16.024-21.97-40.069-27.367-73.929-43.037-55.578-25.723 10.167-66.067-16.666-133.635z" fill="#73c3f9"/></g></svg>