<svg id="Layer_1" enable-background="new 0 0 512 512" height="512" viewBox="0 0 512 512" width="512" xmlns="http://www.w3.org/2000/svg"><g><path d="m31.822 365.954 448.884-1.207c13.045-29.947 20.296-62.999 20.296-97.749 0-135.311-109.691-245.002-245.002-245.002s-245.002 109.691-245.002 245.002c0 35.218 7.445 68.692 20.824 98.956z" fill="#50dd89"/><g><path d="m99.192 189.551c-.217.174-.44.339-.654.516-24.422 20.165-31.283 53.909-17.713 81.616 3.858-1.773 10.016-4.461 18.496-7.749-10.222-19.682-5.533-44.008 11.952-58.445.393-.324.795-.632 1.196-.942 2.005-13.765-10.281-14.919-13.277-14.996z" fill="#73c3f9"/></g><path d="m187.495 206.158c3.702-4.098 3.382-10.422-.716-14.124-12.02-10.86-27.56-17.04-43.755-17.401-16.214-.376-31.995 5.12-44.486 15.435 0 0 16.311-.653 12.734 15.422 18.042-14.895 44.739-14.301 62.099 1.385 4.099 3.702 10.422 3.382 14.124-.717z" fill="#49b1f7"/><g><path d="m150.664 227.09c.06.12 7.369 14.58 24.059 28.801 22.179 18.895 49.689 28.534 81.767 28.644 32.017-.111 59.528-9.749 81.706-28.644 16.69-14.221 23.999-28.681 24.071-28.825 1.212-2.436 3.401-4.067 5.856-4.657-15.14-47.496-59.779-82.149-112.124-82.149-52.279 0-96.87 34.566-112.066 81.969 2.813.386 5.389 2.119 6.731 4.861z" fill="#d3dcfb"/></g><g><path d="m169.657 217.24c1.581 1.518 3.269 3.052 5.066 4.583 22.179 18.895 49.689 28.534 81.767 28.644 32.017-.111 59.528-9.749 81.706-28.644 1.801-1.535 3.492-3.072 5.077-4.594 2.146-2.061 4.975-2.948 7.68-2.727-9.67-12.297-24.66-20.239-41.424-20.239h-107.093c-16.838 0-31.885 8.012-41.551 20.401 3.016-.596 6.334.235 8.772 2.576z" fill="#6c5475"/></g><path d="m435.319 278.019 1.663-5.992s-28.646-14.909-86.89-30.477c0 0-25.039 51.13-93.632 51.368-16.853-.059-31.071-3.193-42.94-7.883-.772 2.67-.542 5.631.687 8.836-2.41.547-6.786 1.772-11.205 4.17-8.76 4.756-13.39 11.838-13.39 20.48v184.37c21.113 5.933 43.379 9.109 66.388 9.109 52.749 0 101.602-16.672 141.583-45.031v-23.381c-2.688-15.66-7.988-31.663-5.645-47.408 8.273-55.583 33.754-102.119 43.381-118.161z" fill="#ff8f4a"/><path d="m162.828 241.55c-58.244 15.568-86.89 30.477-86.89 30.477l1.663 5.992c9.627 16.042 35.108 62.579 43.381 118.162 2.343 15.745-2.958 31.747-5.645 47.408v24.018c22.725 15.964 48.287 28.16 75.775 35.695 0-54.008 0-169.741 0-184.78 0-19.71 25.21-23.541 25.21-23.541-1.883-3.898-2.054-6.989-1.398-9.399-37.48-14.194-52.096-44.032-52.096-44.032z" fill="#fe7f46"/><path d="m244.959 292.375v219.366c3.661.162 7.34.259 11.041.259 3.69 0 7.356-.097 11.006-.258v-219.285c-3.397.284-6.906.448-10.546.461-3.982-.014-7.81-.206-11.501-.543z" fill="#876d93"/><path d="m170.144 387.333h-40.822v-132.438c0-3.243 2.108-6.109 5.204-7.075l25.999-8.111c4.772-1.489 9.619 2.077 9.619 7.075z" fill="#fc6e42"/><path d="m341.821 387.333h40.822v-132.438c0-3.243-2.108-6.109-5.204-7.075l-25.999-8.111c-4.772-1.489-9.619 2.077-9.619 7.075z" fill="#fc6e42"/><path d="m393.95 384.526h-204.838v40.822h201.445c-.496-9.728-.059-19.496 1.381-29.168.585-3.934 1.266-7.817 2.012-11.654z" fill="#fcb686"/><path d="m120.982 396.181c1.439 9.672 1.877 19.44 1.381 29.168h68.749c0-13.887 0-27.805 0-40.822h-72.142c.746 3.836 1.426 7.719 2.012 11.654z" fill="#ff8f4a"/><path d="m244.959 384.527h22.047v40.822h-22.047z" fill="#fccaa7"/><path d="m123.058 396.181c-10.278-69.051-47.12-124.154-47.12-124.154-17.315 30.632-31.155 64.389-42.14 97.275l27.008 45.757c15.722 20.695 34.656 38.814 56.067 53.612l3.738-16.101c4.29-18.484 5.24-37.621 2.447-56.389z" fill="#543e5b"/><path d="m427.79 347.215c15.284 1.732 20.969 49.655 21.869 67.974l.039.273c.093.393.187.789.28 1.184 11.382-14.73 21.13-30.788 28.957-47.911-10.954-32.707-24.737-66.253-41.953-96.708 0 0-14.929 22.333-28.432 56.375.582 5.911 3.752 17.058 19.24 18.813z" fill="#6c5475"/><path d="m427.959 345.725c-19.836-2.248-18.006-20.712-17.993-20.836-8.227 20.119-16.141 44.666-20.104 71.292-2.793 18.769-1.844 37.906 2.447 56.389l3.61 15.552c21.068-14.684 39.716-32.594 55.237-53.01-.006-.14-3.315-67.134-23.197-69.387z" fill="#543e5b"/><path d="m75.008 333.41-25.074-8.094c-1.66-.536-3.46.306-4.105 1.927-2.068 5.194-4.037 10.401-5.954 15.607 10.3 3.06 17.821 12.58 17.821 23.873 0 9.887-5.757 18.428-14.101 22.456 5.199 9.019 10.965 17.667 17.233 25.915 1.378-1.398 2.469-3.12 3.113-5.115l19.438-60.221c2.202-6.825-1.545-14.145-8.371-16.348z" fill="#deeeff"/><path d="m466.981 326.969c-.646-1.62-2.445-2.461-4.104-1.925l-25.919 8.366c-6.826 2.203-10.574 9.523-8.37 16.349l19.438 60.221c.647 2.005 1.744 3.734 3.132 5.135 11.748-15.455 21.699-32.347 29.549-50.368-4.154-12.531-8.709-25.194-13.726-37.778z" fill="#ff8f4a"/><g><path d="m164.85 339.966h-30.235c-8.26 0-14.98-6.72-14.98-14.98v-24.348c0-8.26 6.72-14.98 14.98-14.98h30.235c8.259 0 14.979 6.72 14.979 14.98v24.348c0 8.261-6.719 14.98-14.979 14.98zm-30.234-42.891c-1.932 0-3.564 1.632-3.564 3.564v24.348c0 1.932 1.632 3.564 3.564 3.564h30.235c1.931 0 3.562-1.632 3.562-3.564v-24.348c0-1.932-1.632-3.564-3.562-3.564z" fill="#fca163"/></g><g><path d="m170.144 318.521h-40.822c-3.152 0-5.708-2.556-5.708-5.708s2.556-5.708 5.708-5.708h40.822c3.152 0 5.708 2.556 5.708 5.708s-2.556 5.708-5.708 5.708z" fill="#fcb686"/></g><g><path d="m377.349 339.966h-30.235c-8.26 0-14.98-6.72-14.98-14.98v-24.348c0-8.26 6.72-14.98 14.98-14.98h30.235c8.259 0 14.979 6.72 14.979 14.98v24.348c0 8.261-6.719 14.98-14.979 14.98zm-30.234-42.891c-1.932 0-3.564 1.632-3.564 3.564v24.348c0 1.932 1.632 3.564 3.564 3.564h30.235c1.931 0 3.562-1.632 3.562-3.564v-24.348c0-1.932-1.632-3.564-3.562-3.564z" fill="#fca163"/></g><g><path d="m382.643 318.521h-40.822c-3.152 0-5.708-2.556-5.708-5.708s2.556-5.708 5.708-5.708h40.822c3.152 0 5.708 2.556 5.708 5.708s-2.556 5.708-5.708 5.708z" fill="#fcb686"/></g><g><path d="m255.983 332.488c-6.088 0-11.024-4.936-11.024-11.024v-25.82c0-6.088 4.936-11.024 11.024-11.024s11.024 4.936 11.024 11.024v25.82c-.001 6.088-4.937 11.024-11.024 11.024z" fill="#deeeff"/></g><path d="m40.579 340.944c-3.108 8.36-6.022 16.716-8.757 25.01 3.803 8.603 8.086 16.944 12.817 24.993 9.154-4.241 15.506-13.504 15.506-24.256 0-12.279-8.284-22.616-19.566-25.747z" fill="#bec8f7"/><path d="m166.279 143.786c-.048-2.213-1.825-3.947-4.063-3.947-1.927 0-3.324-1.825-2.827-3.674 1.813-6.766 5.286-20.985 9.721-45.09-1.733-.446-3.545-.664-5.398-.619-11.697.282-20.554 10.345-19.55 21.819.32 3.657 1.601 6.998 3.573 9.797 2.549 3.617 3.34 8.114 2.157 12.377-.561 2.02-.75 4.182-.494 6.403.993 8.617 8.619 15.193 17.288 14.887.144-.005.281-.029.423-.037-.587-5.241-.777-9.412-.83-11.916z" fill="#dba783"/><path d="m166.991 101.892c-6.693 0-12.118 5.425-12.118 12.118 0 4.964 2.987 9.224 7.259 11.097 1.369-5.882 3.033-13.54 4.926-23.212-.023 0-.044-.003-.067-.003z" fill="#c99673"/><path d="m348.288 90.456c-1.862-.045-3.682.175-5.422.626 4.399 24.092 7.891 38.31 9.721 45.077.502 1.855-.898 3.68-2.824 3.68-2.184 0-3.998 1.772-4.044 3.949-.054 2.507-.244 6.676-.831 11.914.143.008.282.032.426.037 8.669.306 16.295-6.27 17.288-14.887.256-2.221.066-4.383-.494-6.403-1.183-4.263-.392-8.76 2.157-12.377 1.972-2.799 3.254-6.14 3.573-9.797 1.004-11.474-7.853-21.537-19.55-21.819z" fill="#e9ba9a"/><path d="m346.451 101.892c-.518 0-1.026.043-1.527.106 1.93 9.902 3.63 17.687 5.021 23.613 4.988-1.501 8.624-6.124 8.624-11.601 0-6.693-5.425-12.118-12.118-12.118z" fill="#dba783"/><path d="m235.697 129.97c-.965 2.207-1.562 6.41 2.234 8.626l16.362 32.922c-2.518 2.199-9.228 9.398-9.227 23.646l-.322 9.967c-.001 1.218.174 29.719 17.637 43.084.009.455.009 1.157-.028 2.045 29.521-1.204 55.031-10.782 75.843-28.514.259-.221.498-.441.752-.661-1.484-1.656-3.275-3.141-5.392-4.429l-.067-.175c-2.249-.746-4.369-1.25-6.086-1.585-1.148-.224-1.681-1.557-1.006-2.513.536-.758 1.055-1.524 1.564-2.294-.769.386-1.496.75-2.165 1.082-5.883 2.919-10.924 3.468-14.986 1.635-5.445-2.459-7.589-8.56-7.963-9.758l2.55-30.629-1.37-.093c-7.356-.5-13.118-6.663-13.118-14.032 0-3.962 1.685-7.766 4.624-10.433 2.968-2.697 6.811-3.971 10.831-3.58l1.365.131 5.194-62.413c2.499-1.449 9.92-7.229 6.96-23.643-.655-3.632-.067-6.197 1.797-7.839 2.027-1.785 5.427-2.313 8.967-2.233-4.07-6.335-8.868-11.612-13.992-15.69-11.106-8.839-8.275-18.358-5.506-23.35.95-1.713-.251-3.841-2.206-3.961-15.742-.967-28.392 3.71-36.115 7.705-2.822 1.459-6.037.333-7.54-2.086l-.083.133c-2.015 1.3-13.867 9.339-15.033 19.363-.516 4.436 1.119 8.582 4.86 12.323 8.812 8.813 4.481 14.685-.104 20.902-2.184 2.961-4.257 5.771-4.592 8.786-4.174 2.301-24.316 15.053-14.285 41.829z" fill="#6c5475"/><path d="m341.919 77.927c-2.065-12.116-6.481-22.557-12.195-31.011-6.587.054-12.848 2.396-11.173 11.685 3.307 18.337-6.914 22.545-6.914 22.545l-5.143 61.792c-9.194-.888-16.938 6.344-16.938 15.359 0 8.168 6.349 14.837 14.379 15.382l-2.456 29.512s5.035 19.064 24.919 9.194c18.401-26.029 20.47-59.118 20.673-68.568.031-1.461 1.23-2.626 2.691-2.626 2.814 0 4.866-2.67 4.131-5.386-2.199-8.13-6.553-26.071-11.974-57.878z" fill="#876d93"/><path d="m162.216 141.191h.019c1.463 0 2.66 1.162 2.691 2.624.202 9.419 2.258 42.34 20.505 68.334.673.958.12 2.309-1.034 2.504-1.978.336-3.889.89-5.724 1.612l-.23.392c-1.906 1.139-3.568 2.473-4.988 3.975.423.371.832.742 1.268 1.114 22.179 18.895 49.689 28.533 81.767 28.644 2.44-.009 4.844-.091 7.231-.21.058-1.666-.011-2.66-.011-2.66-17.641-12.935-17.613-42.388-17.613-42.388l.321-9.924c0-16.7 9.571-23.318 9.571-23.318l-17.037-34.278c-4.411-2.226-1.91-7.331-1.91-7.331l.367-16.272c-11.026-28.986 14.233-40.755 14.233-40.755 0-8.644 18.831-17.002 4.347-31.487-14.485-14.485 10.2-29.751 10.2-29.751-1.061-1.018-1.753-2.448-1.762-4.113l-.028-5.225c-.01-1.9-1.925-3.184-3.692-2.486-5.355 2.116-15.581 7.061-23.949 16.427-2.508 2.807-7.145 1.486-7.775-2.226l-.418-2.461c-.289-1.7-2.077-2.7-3.671-2.042-10.896 4.504-46.992 22.658-54.816 68.036-5.485 31.813-9.818 49.76-11.996 57.888-.727 2.714 1.324 5.377 4.134 5.377z" fill="#543e5b"/><path d="m322.509 94.968c-.376-.81.148-1.747 1.036-1.846l.157-.017c.918-.102 1.441-1.103 1.007-1.918-8.773-16.478-27.34-22.951-32.704-24.52-.77-.225-1.159-1.081-.818-1.807.418-.888-.262-1.901-1.242-1.861-13.792.554-24.129 6.353-29.587 10.255-2.613 1.868-6.102 1.868-8.715 0-.403-.288-.841-.589-1.296-.895-.002.017-.007.035-.009.052-4.174 2.301-24.316 15.053-14.285 41.829l-.355 15.729c-.965 2.207-1.562 6.41 2.234 8.626l16.362 32.922c-2.518 2.199-9.228 9.398-9.227 23.646l-.322 9.967c-.001 1.206.182 29.134 17.122 42.663 8.836-1.184 25.71-5.27 36.818-19.386 12.678-16.111 11.676-35.884 10.907-42.469-.116-.994.883-1.737 1.804-1.346l1.094.465c1.018.433 2.08-.513 1.759-1.572-1.425-4.704-5.356-15.071-14.549-25.47-1.556-1.76-1.305-4.454.502-5.91.111-.09.244-.157.379-.206 12.825-4.649 17.731-13.687 19.398-17.986.372-.961 1.67-1.111 2.269-.272l.53.743c.669.936 2.142.605 2.346-.527 3.923-21.749-.616-34.583-2.615-38.889z" fill="#e9ba9a"/><path d="m263.71 247.521c-17.641-12.935-17.613-42.388-17.613-42.388l.321-9.924c0-16.7 9.571-23.318 9.571-23.318l-17.037-34.279c-4.411-2.226-1.91-7.331-1.91-7.331l.367-16.272c-11.026-28.986 14.233-40.755 14.233-40.755-5.458-3.903-15.796-9.701-29.587-10.255-.98-.039-1.66.973-1.242 1.861.342.726-.048 1.582-.818 1.807-5.364 1.569-23.931 8.043-32.704 24.52-.434.815.089 1.816 1.007 1.918l.158.017c.888.099 1.412 1.035 1.036 1.846-1.999 4.305-6.538 17.14-2.613 38.891.204 1.132 1.677 1.463 2.346.527l.53-.743c.599-.839 1.896-.689 2.269.272 1.667 4.3 6.573 13.337 19.397 17.986.134.049.267.116.379.206 1.807 1.456 2.058 4.15.502 5.91-9.193 10.398-13.124 20.766-14.549 25.47-.321 1.059.74 2.005 1.759 1.572l1.094-.465c.921-.392 1.92.352 1.804 1.346-.769 6.584-1.771 26.357 10.907 42.469 15.626 19.859 42.683 19.873 42.683 19.873s3.062-.006 7.71-.761z" fill="#dba783"/><path d="m273.026 137.613c-4.834-.407-9.303 1.094-12.754 3.828-2.488 1.971-6.078 1.971-8.566 0-3.451-2.734-7.92-4.235-12.754-3.828-8.499.715-15.478 7.486-16.416 15.963-1.208 10.917 7.306 20.157 17.978 20.157 1.46 0 2.879-.174 4.238-.501 7.413-1.787 15.061-1.787 22.474 0 1.359.327 2.777.501 4.238.501 10.672 0 19.186-9.24 17.978-20.157-.938-8.478-7.917-15.248-16.416-15.963z" fill="#dba783"/><g fill="#6c5475"><path d="m239.88 169.035c-4.625 0-8.41-3.784-8.41-8.41 0-4.625 3.784-8.41 8.41-8.41 4.625 0 8.41 3.784 8.41 8.41 0 4.626-3.784 8.41-8.41 8.41z"/><path d="m272.12 169.035c-4.625 0-8.41-3.784-8.41-8.41 0-4.625 3.784-8.41 8.41-8.41 4.625 0 8.41 3.784 8.41 8.41 0 4.626-3.784 8.41-8.41 8.41z"/><ellipse cx="227.928" cy="121.997" rx="13.377" ry="11.324"/></g><path d="m241.769 122.61c0 4.75-3.85 8.6-8.6 8.6s-8.6-3.85-8.6-8.6 3.85-8.6 8.6-8.6 8.6 3.85 8.6 8.6z" fill="#543e5b"/><path d="m233.937 119.362c0 2.375-1.925 4.3-4.3 4.3s-4.3-1.925-4.3-4.3 1.925-4.3 4.3-4.3 4.3 1.925 4.3 4.3z" fill="#a98bbc"/><ellipse cx="284.072" cy="121.997" fill="#6c5475" rx="13.377" ry="11.324"/><path d="m270.232 122.61c0 4.75 3.85 8.6 8.6 8.6 4.749 0 8.6-3.85 8.6-8.6s-3.85-8.6-8.6-8.6-8.6 3.85-8.6 8.6z" fill="#543e5b"/><path d="m278.064 119.362c0 2.375 1.925 4.3 4.3 4.3s4.3-1.925 4.3-4.3-1.925-4.3-4.3-4.3-4.3 1.925-4.3 4.3z" fill="#a98bbc"/><g><path d="m255.988 205.444c-21.147 0-36.025-4.079-45.464-8.017 8.591 10.183 25.726 17.132 45.475 17.132 19.753 0 36.89-6.951 45.479-17.137-9.442 3.94-24.331 8.022-45.49 8.022z" fill="#dba783"/></g><path d="m314.95 183.543c-1.909-2.277-5.315-2.574-7.607-.68-.153.126-15.73 12.661-51.354 12.661-4.057 0-7.841-.169-11.385-.457l.021.027c-.859.989-2.019 2.713-2.224 4.979-.177 1.962.396 3.91 1.679 5.811 3.729.292 7.687.462 11.909.462 40.006 0 57.61-14.597 58.339-15.219 2.263-1.928 2.533-5.307.622-7.584z" fill="#f7ccb0"/><path d="m197.063 183.497c-1.939 2.274-1.667 5.688.607 7.628.664.567 15.326 12.732 48.186 14.891-5.097-6.256.562-10.806.562-10.806l-.001-.001c-28.702-1.935-41.484-12.122-41.753-12.341-2.273-1.915-5.67-1.638-7.601.629z" fill="#e9ba9a"/><path d="m358.672 217.765c-3.119-6.332-10.915-6.916-15.398-2.611-29.736 28.559-73.772 38.774-113.742 30.661-1.655 1.226-4.597 3.727-7.072 7.568-3.197 4.958-6.138 13.101-2.475 24.105-.761.407-1.754 1.038-2.75 1.902 11.982 3.595 25.109 5.618 39.257 5.668 47.473-.165 84.423-22.773 103.716-53.895 1.5-3.774 2.061-6.096 2.061-6.096z" fill="#deeeff"/><path d="m221.852 278.27c-8.01-21.461 9.743-32.054 9.743-32.054l-.002-.005c-23.045-4.3-44.852-14.645-61.935-31.047-4.463-4.286-12.274-3.747-15.402 2.619l-3.591 7.308s.56 2.318 2.057 6.086c13.745 22.16 36.534 40.276 66.244 48.73 1.536-1.145 2.886-1.637 2.886-1.637z" fill="#bec8f7"/><path d="m415.039 80.653c-9.213 10.239-22.588 29.108-28.263 56.777-7.767 37.871 10.77 76.268 44.806 94.6 14.744 7.941 29.477 18.638 41.244 44.237 6.782 14.754 15.734 23.132 25.453 27.329 1.789-11.94 2.723-24.159 2.723-36.597 0-74.608-33.36-141.41-85.963-186.346z" fill="#70f2a4"/><path d="m125.179 118.938c5.89-23.328.409-44.514-4.124-56.439-66.309 43.843-110.057 119.056-110.057 204.499 0 13.577 1.122 26.889 3.246 39.865 23.18-8.994 42.005-36.555 38.785-65.313-3.839-34.277 7.779-64.749 42.812-84.282 14.625-8.154 25.239-22.095 29.338-38.33z" fill="#70f2a4"/><path d="m219.001 348.258h-6.716c-4.214 1.564-7.244 5.621-7.244 10.361 0 4.741 3.029 8.798 7.244 10.361h6.716c5.699 0 10.361-4.663 10.361-10.361 0-5.699-4.662-10.361-10.361-10.361z" fill="#ffdd40"/><path d="m205.737 358.619c0-5.699 4.663-10.361 10.361-10.361h-23.625c-5.699 0-10.361 4.663-10.361 10.361 0 5.699 4.663 10.361 10.361 10.361h23.625c-5.698.001-10.361-4.662-10.361-10.361z" fill="#ffc839"/><path d="m374.079 221.073c-4.358-2.152-9.645-.361-11.811 3.993-.073.144-7.381 14.604-24.071 28.825-22.178 18.895-49.689 28.534-81.706 28.644-13.049-.045-25.327-1.694-36.812-4.874-1.749.986-4.428 2.948-5.78 6.277-1.197 2.948-1.092 6.282.309 9.933-.295.067-.622.145-.972.233 12.552 3.675 26.929 6.022 43.256 6.078 45.734-.159 76.271-18.277 93.837-33.448 19.16-16.549 27.433-33.183 27.776-33.882 2.137-4.367.334-9.626-4.026-11.779z" fill="#876d93"/><path d="m150.664 225.09c-2.143-4.379-7.43-6.187-11.805-4.042-4.376 2.143-6.187 7.427-4.042 11.805.342.699 8.615 17.333 27.775 33.882 11.81 10.199 29.494 21.723 53.724 28.233-6.026-12.49 5.535-16.698 5.535-16.698-.001-.003-.002-.006-.003-.008-17.628-4.539-33.4-12.677-47.126-24.371-16.689-14.221-23.997-28.681-24.058-28.801z" fill="#6c5475"/><path d="m374.079 221.073c-4.358-2.152-9.645-.361-11.811 3.993-.073.144-7.381 14.604-24.071 28.825-.368.314-.738.625-1.108.933-3.939 3.274-4.271 9.199-.722 12.892 3.193 3.322 8.423 3.641 11.972.702.681-.564 1.344-1.125 1.989-1.682 19.16-16.549 27.433-33.183 27.776-33.882 2.138-4.369.335-9.628-4.025-11.781z" fill="#a98bbc"/></g></svg>