<svg id="Layer_1" enable-background="new 0 0 512 512" height="512" viewBox="0 0 512 512" width="512" xmlns="http://www.w3.org/2000/svg"><g><path d="m21.81 339.172h468.38c7.024-22.817 10.812-47.053 10.812-72.174 0-135.311-109.691-245.002-245.002-245.002s-245.002 109.691-245.002 245.002c0 25.121 3.788 49.357 10.812 72.174z" fill="#856ee5"/><path d="m381.941 172.93c-6.325 5.77-9.533 13.639-9.533 23.385v72.087c-1.066 2.439-3.89 8.91-7.504 17.292h52.396v-123.662c-7.935-.05-24.638 1.12-35.359 10.898z" fill="#bec8f7"/><path d="m372.202 101.314h-232.404c-24.804 0-45.099 20.294-45.099 45.099v139.28h271.846c4.31-10 7.362-16.978 7.362-16.978s0-41.4 0-72.4c0-30.142 31.656-32.814 43.393-32.77v-17.132c.001-24.804-20.294-45.099-45.098-45.099z" fill="#a8b7ef"/><path d="m128.334 188.997c-1.331-4.116-4.83-6.611-6.733-7.708-25.788 9.501-44.23 34.319-44.23 63.365v38.665c6.492-2.418 12.549-3.875 18-4.7v-33.965c0-21.13 13.312-39.2 31.986-46.29 1.586-3.297 1.922-6.443.977-9.367z" fill="#deeeff"/><path d="m125.185 199.247c6.038-2.628 12.693-4.094 19.687-4.094h22.603l-5.111-14.215c-.449-1.25-.85-2.514-1.227-3.785h-16.265c-8.874 0-17.346 1.738-25.115 4.865.401.177 12.396 5.583 5.435 17.217z" fill="#d3dcfb"/><path d="m195.182 252.689c0-5.279-.888-10.348-2.514-15.074h-11.334c-4.135 0-7.876.752-11.241 1.988l-.094.645c-.095.057-.19.114-.285.173-5.268 3.242-11.547 9.492-11.547 20.86 0 10.944 11.386 18.997 23.202 24.412 8.524-8.407 13.813-20.085 13.813-33.004z" fill="#2a428c"/><path d="m342.001 240.247-.052-.523c-6.229-1.979-11.283-2.109-11.283-2.109h-11.334c-1.626 4.726-2.514 9.795-2.514 15.074 0 12.919 5.289 24.597 13.813 33.004 11.816-5.415 23.202-13.468 23.202-24.412 0-8.953-3.902-16.211-11.832-21.034z" fill="#4b6bb2"/><path d="m319.436 247.044c0-7.42 1.676-14.447 4.662-20.73h-74.664l1.912 46.289c-1.114 1.323-2.349 4.034-.919 7.077-1.148 1.119-3.487 3.825-3.844 7.581-.269 2.846.649 5.668 2.733 8.402-1.194.921-3.148 2.801-3.835 5.648-.672 2.781.025 5.761 2.072 8.855.205.311.365.628.504.948h34.118c4.135 0 8.082-1.55 11.113-4.364l11.633-10.803c1.573-1.461 3.496-2.529 5.559-3.091 6.198-1.685 16.298-4.877 25.193-9.673-9.957-8.857-16.237-21.762-16.237-36.139z" fill="#bec8f7"/><path d="m192.564 247.044c0 14.377-6.279 27.281-16.238 36.14 8.895 4.797 18.995 7.988 25.193 9.673 2.062.561 3.985 1.63 5.559 3.091l11.633 10.803c3.031 2.814 6.979 4.364 11.113 4.364h19.31c-.184-.508-.421-1.01-.746-1.5-5.975-9.033 2.386-13.739 2.386-13.739-7.776-9.063.902-15.977.902-15.977-2.374-3.916.686-6.924.686-6.924l-1.928-46.66h-62.533c2.987 6.283 4.663 13.31 4.663 20.729z" fill="#a8b7ef"/><path d="m376.109 123.018v-10.342c0-12.949-9.967-23.68-22.608-24.908v34.977c4.355 8.739 18.232 9.067 22.608.273z" fill="#d3dcfb"/><path d="m158.499 122.339v-34.571c-12.641 1.228-22.608 11.959-22.608 24.908v9.878c4.159 9.145 18.443 8.833 22.608-.215z" fill="#d3dcfb"/><path d="m353.501 116.854v42.701c0 1.386-.057 2.769-.14 4.15 12.707-1.162 22.747-11.923 22.747-24.919v-22.422c0 .406-.01.81-.029 1.212-.699 14.49-22.484 13.733-22.578-.722z" fill="#bec8f7"/><path d="m158.499 159.556v-42.718c-.076 14.471-21.879 15.233-22.579.738-.019-.402-.029-.805-.029-1.212v22.422c0 12.996 10.041 23.757 22.747 24.919-.083-1.38-.139-2.763-.139-4.149z" fill="#bec8f7"/><path d="m307.91 15.485c-3.358-1.605-6.865-2.838-10.452-3.742v41.059c-.28 1.215-1.474 7.372 1.981 11.833 2.034 2.628 5.218 4.11 9.48 4.42l-31.48 137.147c-4.306 1.815-10.794 7.115-8.868 16.378 1.395 6.703-14.268 27.474-27.726 42.971 5.356 2.017 10.498 3.264 15.155 3.264 19.25 0 46.769-21.172 63.586-30.96 9.393-5.466 16.618-13.997 20.295-24.224l11.755-32.694c2.765-7.691 4.179-15.802 4.179-23.975v-81.648c0-32.092-29.854-51.206-47.905-59.829z" fill="#deeeff"/><path d="m298.958 52.981v-40.86c-5.064-1.424-10.32-2.14-15.611-2.14-17.406 0-37.29 0-54.695 0-8.494 0-16.898 1.842-24.563 5.504-18.051 8.623-47.905 27.736-47.905 59.83v81.648c0 8.173 1.414 16.284 4.179 23.975l11.755 32.694c3.677 10.227 10.903 18.757 20.295 24.224 13.123 7.637 32.762 22.206 49.903 28.238 10.052-11.671 29.451-35.514 27.723-43.819-2.322-11.165 8.682-14.96 8.682-14.96l32.065-139.699c-15.713.08-11.828-14.635-11.828-14.635z" fill="#d3dcfb"/><path d="m267.375 44.647c-5.445 0-9.875-4.43-9.875-9.874v-25.417c0-4.348 2.829-8.041 6.74-9.356h-17.803c-4.64 0-8.437 3.797-8.437 8.437v62.127h36v-28.49c-1.754 1.593-4.074 2.573-6.625 2.573z" fill="#bec8f7"/><path d="m274 68.564h-36l-18.2 17.25s20.588 1.833 36.2 1.833 36.2-1.833 36.2-1.833z" fill="#a8b7ef"/><path d="m100.156 440.579c-6.049.104-12.241-.394-18.41-1.375 6.34 6.416 13.034 12.479 20.046 18.167-.613-5.568-1.171-11.189-1.636-16.792z" fill="#deeeff"/><path d="m57.843 411.081c7.633 10.479 16.067 20.338 25.23 29.468 5.765.799 11.533 1.169 17.165 1.006-.576-6.794-1.026-13.559-1.302-20.146-15.68-.926-29.442-5.011-41.093-10.328z" fill="#d3dcfb"/><path d="m51.667 300.281c-14.903 13.143-24.135 26.758-29.857 38.891 7.141 23.198 17.629 44.929 30.909 64.624 9.049-4.591 13.523-14.332 13.763-14.869.043-.082 7.186-14.376 25.325-51.453 12.259-25.055 2.876-46.866-5.052-58.927-10.789 4.101-22.746 10.85-35.088 21.734z" fill="#f0f8ff"/><path d="m131.237 284.152c-3.4-2.429-4.02-7.163-1.508-10.386-7.003-1.323-23.609-2.926-44.343 5.316 7.789 11.654 17.179 32.989 5.074 57.732-18.347 37.5-25.347 51.5-25.347 51.5s-4.38 9.778-13.231 14.209c2.414 3.629 4.915 7.195 7.514 10.684 11.842 5.081 25.739 8.819 41.506 9.338-1.302-32.883 1.823-61.144 15.432-66.081 35.333-12.817 48.867-29.155 48.867-29.155-8.095-22.135-24.535-36.42-33.964-43.157z" fill="#deeeff"/><path d="m411.845 440.579c-.466 5.603-1.023 11.224-1.637 16.792 7.013-5.688 13.706-11.751 20.047-18.167-6.169.981-12.362 1.479-18.41 1.375z" fill="#deeeff"/><path d="m411.762 441.555c5.632.164 11.4-.206 17.165-1.006 9.163-9.13 17.596-18.989 25.229-29.468-11.65 5.318-25.413 9.402-41.092 10.328-.276 6.587-.726 13.351-1.302 20.146z" fill="#d3dcfb"/><path d="m460.333 300.281c-12.342-10.884-24.299-17.633-35.088-21.735-7.928 12.062-17.311 33.872-5.052 58.927 18.14 37.077 25.282 51.371 25.325 51.453.24.537 4.714 10.278 13.763 14.869 13.28-19.695 23.767-41.426 30.909-64.624-5.722-12.132-14.954-25.747-29.857-38.89z" fill="#f0f8ff"/><path d="m452.605 413.208c2.599-3.489 5.099-7.055 7.514-10.684-8.852-4.431-13.231-14.209-13.231-14.209s-7-14-25.347-51.5c-12.106-24.743-2.716-46.078 5.074-57.732-20.733-8.242-37.34-6.639-44.343-5.316 2.512 3.223 1.891 7.956-1.508 10.386-9.429 6.737-25.869 21.023-33.963 43.157 0 0 13.534 16.338 48.867 29.155 13.61 4.937 16.734 33.198 15.432 66.081 15.766-.52 29.663-4.257 41.505-9.338z" fill="#deeeff"/><path d="m326.895 476.135c-7.937-8.618-19.118-13.52-30.833-13.52-8.617 0-29.711 0-51.243 0 .571.727 1.154 1.455 1.76 2.181-1.645 3.082-6.831 13.42-9.688 26.303-1.585 7.144-2.146 13.835-1.728 20.01 6.87.579 13.817.891 20.837.891 32.476 0 63.469-6.334 91.831-17.81-3.579-.928-6.927-2.846-9.583-5.729z" fill="#4b6bb2"/><path d="m246.735 462.615c-17.551 0-35.632 0-47.687 0-11.716 0-22.897 4.902-30.834 13.52l-11.354 12.327c-.6.651-1.245 1.238-1.911 1.792 25.235 11.44 52.754 18.724 81.683 20.987-1.603-23.191 11.755-46.625 11.755-46.625-.568-.667-1.114-1.334-1.652-2.001z" fill="#2a428c"/><path d="m398.667 355.464c-35.333-12.817-48.867-29.155-48.867-29.155h-1.051c-.687.974-1.572 1.804-2.606 2.427l-41.038 24.728c-1.88 4.531-6.302 7.483-11.207 7.483-12.131 0-32.43 0-49.394 0 .601.708 1.233 1.415 1.906 2.122-2.599 3.52-10.735 15.411-15.22 31.868-4.824 17.703-6.03 44.068 15.242 69.677h49.629c11.716 0 22.896 4.902 30.833 13.52l11.354 12.327c1.97 2.139 4.322 3.748 6.865 4.819 24.216-9.46 46.558-22.659 66.315-38.892 4.882-45.505 5.534-94.287-12.761-100.924z" fill="#bec8f7"/><path d="m246.5 360.948c-12.4 0-23.305 0-28.398 0-4.905 0-9.327-2.953-11.207-7.483l-41.038-24.728c-1.034-.623-1.919-1.453-2.606-2.427h-1.051s-13.533 16.338-48.867 29.155c-18.295 6.637-17.644 55.419-12.762 100.924 16.876 13.866 35.64 25.513 55.846 34.513.146-.149.301-.286.443-.44l11.354-12.327c7.937-8.618 19.118-13.52 30.834-13.52h49.34c-42-49.2 0-101.667 0-101.667-.666-.666-1.289-1.333-1.888-2z" fill="#a8b7ef"/><path d="m183.822 305.685c-9.196-4.439-27.834-14.415-38.723-26.982-4.327-4.994-5.769-11.383-4.598-17.295l-1.646-1.569-11.679 12.398c-3.026 3.212-2.529 8.35 1.061 10.916 9.429 6.737 25.869 21.022 33.963 43.157.676 1.849 1.97 3.411 3.657 4.427l41.038 24.729h2l-17.201-41.46c-1.514-3.649-4.316-6.604-7.872-8.321z" fill="#d3dcfb"/><path d="m328.178 305.685c9.196-4.439 27.834-14.415 38.723-26.982 4.327-4.994 5.769-11.383 4.598-17.295l1.646-1.569 11.679 12.398c3.026 3.212 2.529 8.35-1.061 10.916-9.429 6.737-25.869 21.022-33.963 43.157-.676 1.849-1.97 3.411-3.657 4.427l-41.038 24.729h-2l17.201-41.46c1.514-3.649 4.316-6.604 7.872-8.321z" fill="#d3dcfb"/><path d="m365.201 248.692c-7.916-5.544-19.565-11.078-34.535-11.078 0 0 21.667 3 21.667 23.667 0 17.202-31.638 27.245-42.247 30.129-2.312.628-4.429 1.808-6.185 3.439l-11.633 10.803c-2.744 2.547-6.349 3.963-10.093 3.963-11.928 0-23.848 0-35.769 0-4.358 5.265-22.332 29.85-.108 53.333h47.6c4.905 0 9.327-2.953 11.207-7.483l17.201-41.459c1.513-3.648 4.315-6.604 7.872-8.32 9.196-4.439 27.835-14.415 38.723-26.982 7.943-9.169 6.236-23.053-3.7-30.012z" fill="#f0f8ff"/><path d="m229.824 309.615c-3.744 0-7.349-1.416-10.093-3.963l-11.633-10.803c-1.756-1.63-3.873-2.81-6.185-3.439-10.608-2.884-42.246-12.927-42.246-30.129 0-20.667 21.667-23.667 21.667-23.667-14.969 0-26.619 5.533-34.535 11.078-9.935 6.959-11.642 20.842-3.699 30.01 10.888 12.567 29.527 22.543 38.723 26.982 3.556 1.717 6.358 4.672 7.872 8.32l17.201 41.459c1.88 4.531 6.302 7.483 11.207 7.483h30.286c-25.933-25.933 0-53.333 0-53.333-6.188.002-12.378.002-18.565.002z" fill="#deeeff"/><path d="m362.799 381.615h-27.767s-5.824 5.336 0 11.159v39.422s-5.824 5.336 0 11.16h27.767c6.11 0 11.109-4.999 11.109-11.109v-39.522c0-6.111-4.999-11.11-11.109-11.11z" fill="#deeeff"/><path d="m336.031 381.615h-25.823c-6.11 0-11.109 4.999-11.109 11.109v39.522c0 6.11 4.999 11.109 11.109 11.109h25.823c-5.824-5.824 0-11.16 0-11.16v-39.422c-5.824-5.822 0-11.158 0-11.158z" fill="#d3dcfb"/><path d="m319.915 392.774h-6.996c-1.284 0-2.326 1.041-2.326 2.326v24.515h11.648v-24.515c0-1.285-1.042-2.326-2.326-2.326z" fill="#bec8f7"/><path d="m339.53 432.196h-6.996c-1.284 0-2.326-1.041-2.326-2.326v-23.956h11.648v23.956c-.001 1.285-1.042 2.326-2.326 2.326z" fill="#fb7ac0"/><path d="m339.53 392.774h-6.996c-1.284 0-2.326 1.041-2.326 2.326v12.015h11.648v-12.015c-.001-1.285-1.042-2.326-2.326-2.326z" fill="#bec8f7"/><path d="m359.144 432.196h-6.996c-1.284 0-2.326-1.041-2.326-2.326v-34.77c0-1.284 1.041-2.326 2.326-2.326h6.996c1.284 0 2.326 1.041 2.326 2.326v34.771c0 1.284-1.041 2.325-2.326 2.325z" fill="#ffdd40"/><path d="m319.915 432.196h-6.996c-1.284 0-2.326-1.041-2.326-2.326v-10.815h11.648v10.815c0 1.285-1.042 2.326-2.326 2.326z" fill="#73c3f9"/><path d="m139.214 289.977c-6.41 2.72-13.88-.3-16.6-6.71l-4.538-10.696c-2.72-6.41.3-13.88 6.71-16.599 6.41-2.72 13.88.3 16.599 6.71l4.538 10.696c2.72 6.41-.299 13.879-6.709 16.599z" fill="#4b6bb2"/><path d="m372.786 289.977c6.41 2.72 13.88-.3 16.599-6.71l4.538-10.696c2.72-6.41-.3-13.88-6.71-16.599-6.41-2.72-13.88.3-16.599 6.71l-4.538 10.696c-2.719 6.41.3 13.879 6.71 16.599z" fill="#4b6bb2"/><path d="m217.862 91.527c-.762-.251-1.471-.652-2.054-1.223l-18.793-18.402c-2.042-1.999-5.302-2.016-7.364-.038l-17.877 17.146c-1.868 1.791-2.923 4.267-2.923 6.855v63.449c0 18.773 27.809 40.1 38.996 47.919 2.767 1.934 6.355 2.228 9.397.765l11.99-5.763c1.254-.603 2.627-.916 4.018-.92z" fill="#1c2e7a"/><path d="m340.226 89.01-17.876-17.146c-2.062-1.978-5.323-1.961-7.364.038l-18.794 18.402c-.583.571-1.292.972-2.053 1.223l-15.389 109.789c1.391.004 2.763.317 4.017.92l11.99 5.763c3.043 1.462 6.63 1.169 9.397-.765 11.187-7.819 38.996-29.145 38.996-47.919v-63.45c-.001-2.588-1.057-5.063-2.924-6.855z" fill="#3c58a0"/><path d="m278.722 201.314c.513 0 1.02.056 1.523.14l15.533-110.818c-.934.746-2.083 1.178-3.289 1.178h-36.489-36.49c-1.205 0-2.354-.432-3.287-1.177l15.533 110.817c.502-.083 1.01-.14 1.522-.14h22.722z" fill="#2a428c"/><path d="m233.278 195.314c-1.444 0-2.887.231-4.277.635-1.378 3.081-2.044 8.168 2.456 11.875l.376-.181c.447-.216.947-.329 1.444-.329h45.444c.497 0 .995.113 1.445.33l.606.291c-.307-.567-.561-1.029-.744-1.356-1.331-2.371-1.73-4.481-1.186-6.27.717-2.355 2.891-3.476 2.903-3.482l.577-.283.229-.722c-1.252-.323-2.541-.507-3.831-.507h-45.442z" fill="#4b6bb2"/><path d="m318.692 75.17c-2.782 0-4.715-.686-5.743-2.037-1.544-2.027-.726-5.082-.717-5.112l.102-.358-.249-1.127c-.45.327-.888.679-1.297 1.08l-18.588 18.198h-72.4l-1.355-1.327-.05.428c-1.048.71-2.931 2.29-3.755 4.892-.699 2.205-.488 4.616.613 7.178 1.336.543 2.776.829 4.258.829h72.98c2.973 0 5.779-1.146 7.898-3.224l18.304-17.921 1.207 1.157.841-2.657h-2.049z" fill="#4b6bb2"/><path d="m230.909 195.523c-1.479.233-2.931.658-4.275 1.305l-11.988 5.763c-1.083.521-2.373.418-3.361-.275-17.612-12.311-36.433-30.072-36.433-43.001v-63.45c0-.948.393-1.868 1.076-2.524l17.38-16.671 18.303 17.921c1.56 1.528 3.491 2.546 5.583 2.981-4.413-8.237 2.606-11.757 2.606-11.757l-18.586-18.197c-4.384-4.296-11.288-4.333-15.717-.083l-17.876 17.146c-3.031 2.907-4.77 6.984-4.77 11.185v63.449c0 8.884 5.399 27.562 41.557 52.836 4.533 3.17 10.446 3.65 15.436 1.257l11.99-5.764c.447-.216.947-.329 1.444-.329-6.622-4.442-2.623-11.367-2.369-11.792z" fill="#3c58a0"/><path d="m263.5 272.975h-15c-6.6 0-12-5.4-12-12v-28.66c0-6.6 5.4-12 12-12h15c6.6 0 12 5.4 12 12v28.66c0 6.6-5.4 12-12 12z" fill="#bec8f7"/><path d="m269.055 261.006h-8.182c-3.6 0-6.545-2.945-6.545-6.545v-15.633c0-3.6 2.946-6.546 6.545-6.546h8.182c3.6 0 6.546 2.946 6.546 6.546v15.633c-.001 3.6-2.946 6.545-6.546 6.545z" fill="#d3dcfb"/><path d="m330.237 263.175c-2.441-3.683-7.405-4.689-11.088-2.25-18.811 12.467-40.648 19.055-63.149 19.055-1.909 0-3.811-.065-5.71-.159-1.185 1.188-3.363 3.818-3.707 7.441-.269 2.846.649 5.668 2.733 8.402-.045.035-.097.08-.144.117 2.27.118 4.544.199 6.828.199 25.654 0 50.547-7.51 71.987-21.718 3.684-2.441 4.691-7.404 2.25-11.087z" fill="#deeeff"/><path d="m181.763 263.175c-2.44 3.683-1.434 8.646 2.25 11.088 19.98 13.24 42.958 20.656 66.756 21.606-7.765-9.06.908-15.97.908-15.97l-.001-.001c-20.968-.789-41.221-7.306-58.825-18.972-3.683-2.443-8.647-1.435-11.088 2.249z" fill="#d3dcfb"/><path d="m213.292 32.785c3.762 0 6.972-2.45 8.134-5.83v-11.173c0-4.474-3.66-8.134-8.134-8.134s-8.134 3.66-8.134 8.134v11.173c1.162 3.381 4.372 5.83 8.134 5.83z" fill="#bec8f7"/><path d="m298.958 33.008c3.644 0 6.791-2.238 8.134-5.408v-11.818c0-4.474-3.66-8.134-8.134-8.134s-8.134 3.66-8.134 8.134v11.819c1.344 3.169 4.49 5.407 8.134 5.407z" fill="#bec8f7"/><path d="m213.292 32.314c-4.474 0-8.134-3.66-8.134-8.134v20.667c0 4.474 3.66 8.134 8.134 8.134s8.134-3.66 8.134-8.134v-20.666c0 4.473-3.661 8.133-8.134 8.133z" fill="#a8b7ef"/><path d="m298.958 32.314c-4.474 0-8.134-3.66-8.134-8.134v20.667c0 4.474 3.66 8.134 8.134 8.134s8.134-3.66 8.134-8.134v-20.666c0 4.473-3.66 8.133-8.134 8.133z" fill="#a8b7ef"/><path d="m292.158 213.407c2.104 1.011 4.375 1.51 6.637 1.51 3.096 0 6.176-.934 8.796-2.766 36.159-25.275 41.559-43.953 41.559-52.837v-63.449c0-4.2-1.738-8.276-4.771-11.185l-17.876-17.146c-4.429-4.247-11.332-4.212-15.715.081 0 0-2.578 9.055 7.904 9.055l17.38 16.671c.685.656 1.077 1.577 1.077 2.524v63.449c0 12.928-18.82 30.689-36.435 43.002-.988.69-2.274.795-3.359.274l-11.986-5.761c-1.366-.657-2.84-1.088-4.344-1.318-.675.36-6.749 3.883-2.303 11.802.497 0 .995.113 1.445.33z" fill="#6289cc"/><path d="m265.563 0h-4.629c-2.974 2.057-4.934 5.487-4.934 9.356v25.417c0 6.256 5.119 11.375 11.375 11.375 2.469 0 4.755-.806 6.625-2.157v-35.554c0-4.64-3.797-8.437-8.437-8.437z" fill="#deeeff"/><path d="m256 57.529c3.771 0 6.987-2.466 8.134-5.863v-10.76c0-4.474-3.66-8.134-8.134-8.134s-8.134 3.66-8.134 8.134v10.76c1.146 3.397 4.363 5.863 8.134 5.863z" fill="#73c3f9"/><path d="m256 57.076c-4.474 0-8.134-3.66-8.134-8.134v21.03c0 4.474 3.66 8.134 8.134 8.134s8.134-3.66 8.134-8.134v-21.03c0 4.474-3.66 8.134-8.134 8.134z" fill="#49b1f7"/><path d="m311.161 283.704c5.704-2.668 11.239-5.758 16.56-9.266 3.584-2.362 4.93-7.133 2.776-10.845-2.333-4.022-7.529-5.198-11.348-2.669-4.719 3.128-9.632 5.878-14.696 8.251-3.743 1.753-5.538 6.061-4.094 9.934.02.055.041.11.061.165 1.612 4.319 6.566 6.384 10.741 4.43z" fill="#f0f8ff"/><g fill="#9787f4"><path d="m448.779 179.002v45.503c0 29.635 22.775 54.235 51.83 56.455.26-4.621.392-9.276.392-13.961 0-43.927-11.57-85.146-31.814-120.796-10.827 8.336-20.408 19.476-20.408 32.799z"/><path d="m58.289 203.684c20.794-17.943 14.829-45.729 7.163-63.389-2.431-5.599-5.887-10.378-9.739-14.423-28.163 39.897-44.714 88.577-44.714 141.126 0 10.257.642 20.362 1.867 30.287 59.625-25.688 20.496-72.091 45.423-93.601z"/></g></g></svg>