<svg id="Layer_1" enable-background="new 0 0 511.996 511.996" height="512" viewBox="0 0 511.996 511.996" width="512" xmlns="http://www.w3.org/2000/svg"><g><path d="m16.308 317.908 100.917 151.005c7.893 5.435 16.12 10.417 24.646 14.914h228.253c8.525-4.496 16.752-9.478 24.646-14.914l100.917-151.005c3.472-16.426 5.312-33.454 5.312-50.914 0-135.311-109.691-245.002-245.002-245.002s-245.002 109.691-245.002 245.002c.001 17.46 1.841 34.488 5.313 50.914z" fill="#50dd89"/><g><path d="m256.298 280.601c13.156 0 25.93-4.366 36.281-12.404.131-.102.263-.204.394-.308 5.268-4.132 11.394-6.582 17.686-7.358-2.525-8.376-3.438-17.567-3.692-24.964-5.148 5.997-10.551 11.012-15.714 15.021-10.059 7.811-22.472 12.054-35.256 12.054-.464 0-.925-.017-1.388-.029v.03c0 .184-.033 7.692-1.448 17.865 1.044.055 2.089.093 3.137.093z" fill="#ffaa7b"/></g><g><path d="m219.623 267.889c.132.103.263.206.394.308 9.901 7.689 22.019 12.007 34.567 12.369 1.422-10.352 1.414-17.924 1.414-17.924-12.784 0-25.197-4.243-35.255-12.054-5.163-4.009-10.566-9.025-15.714-15.021-.254 7.377-1.161 16.54-3.671 24.898 6.495.693 12.835 3.165 18.265 7.424z" fill="#fc9460"/></g><g><path d="m336.326 265.265c-12.996-9.556-30.66-9.332-43.352.624-.132.103-.263.206-.394.308-10.351 8.038-23.125 12.404-36.281 12.404-1.008 0-2.012-.034-3.014-.085-1.204 4.464-5.774 26.044 17.095 29.591 8.679-8.264 20.398-13.361 33.257-13.361h67.992c4.566 0 8.984.655 13.179 1.853v-8.52c-20.752-5.483-36.676-14.132-48.482-22.814z" fill="#deeeff"/></g><path d="m254.844 278.582-.004-.012c-12.639-.31-24.855-4.633-34.823-12.374-.131-.102-.263-.204-.394-.308-12.692-9.955-30.356-10.18-43.352-.624-11.806 8.682-27.73 17.331-48.481 22.815v8.348c4.016-1.09 8.23-1.681 12.578-1.681h67.992c23.82 0 43.748 17.467 47.638 40.223 1.968-11.514 8.046-21.668 16.652-28.896-.002 0-.003 0-.005-.001-26.351-2.424-17.801-27.49-17.801-27.49z" fill="#bec8f7"/><path d="m194.234 294.746v-32.213c0-4.145-3.392-7.537-7.537-7.537h-12.26c-9.044 0-16.444 7.4-16.444 16.444v23.306z" fill="#a8b7ef"/><path d="m354.003 294.746v-23.306c0-9.044-7.4-16.444-16.444-16.444h-12.26c-4.145 0-7.537 3.392-7.537 7.537v32.213z" fill="#bec8f7"/><g><path d="m254.295 430.246 5.792 54.058c-1.969 2.736-10.445 15.816-2.284 27.674 25.848-.188 50.74-4.382 74.095-11.985v-69.747z" fill="#9787f4"/></g><path d="m180.098 437.336v62.657c23.9 7.78 49.405 12.003 75.9 12.003 1.218 0 2.431-.019 3.645-.036-9.709-12.706 1.997-27.232 1.997-27.232l-5.838-54.482h-68.25z" fill="#856ee5"/><path d="m321.218 454.413h-17.582c-.099 0-.197-.007-.296-.008 12.693 16.548 19.709 34.764 23.379 47.212 15.139-4.557 29.658-10.539 43.407-17.79 9.66-21.717 24.174-40.289 24.174-40.289v-21.64c-18.101 19.942-44.194 32.515-73.082 32.515z" fill="#7255ce"/><path d="m437.779 398.116c-3.587 2.488-15.461 12.11-12.415 28.651 1.048 5.688 1.891 10.624 2.558 14.736 14.386-14.168 27.042-30.085 37.588-47.435-8.784 3.255-18.38 3.899-28.08 2.568.104.486.217.977.349 1.48z" fill="#deeeff"/><path d="m426.84 426.496c-3.408-18.5 12.681-27.727 12.681-27.727-.196-.656-.358-1.292-.503-1.917-7.151-.821-14.38-2.744-21.404-5.529-1.165-.297-2.337-.685-3.523-1.201-5.441 14.988-14.423 28.313-25.921 38.957 1.199 14.538 3.711 28.081 6.6 39.834 12.355-8.508 23.889-18.121 34.464-28.693-.638-3.897-1.43-8.49-2.394-13.724z" fill="#bec8f7"/><path d="m432.816 269.532c-33.075-16.304-71.947 8.201-71.095 45.066.01.421.022.842.038 1.264.679 18.19 7.449 35.285 18.298 49.203l39.593-4.851 25.253 14.547c-3.737 2.849-10.611 10.119-7.124 23.354-.151.104-.32.226-.499.356 3.439.466 6.928.746 10.465.772 5.717.042 11.124-.865 16.122-2.543 4.792-7.663 9.17-15.61 13.107-23.809v-68.408c-12.024-14.55-27.06-26.522-44.158-34.951z" fill="#7255ce"/><path d="m447.759 374.675-27.794-16.01-40.94 5.016c14.269 19.047 36.063 32.449 60.494 35.084-5.223-17.474 8.24-24.09 8.24-24.09z" fill="#5c45bf"/><path d="m470.307 284.572c-6.084 1.824-39.18 13.379-40.089 48.897h-37.377c11.631 23.916 36.316 41.372 63.531 41.974 7.146.158 14.057-.738 20.603-2.518 8.312-17.308 14.64-35.746 18.713-55.017-6.308-12.672-14.962-23.966-25.381-33.336z" fill="#deeeff"/><path d="m411.302 257.061c-5.227-.728-10.379 1.687-13.318 6.07-8.166 12.182-12.728 26.981-12.134 42.883.382 10.23 3.151 20.063 7.73 28.954h38.119c0-39.435 39.905-49.205 39.924-49.21-16.322-15.148-37.182-25.472-60.321-28.697z" fill="#bec8f7"/><path d="m321.218 457.413h-17.582c-26.586 0-48.337-21.752-48.337-48.337v-67.992c0-26.586 21.752-48.337 48.337-48.337h67.992c26.585 0 48.337 21.752 48.337 48.337v17.582c0 54.311-44.436 98.747-98.747 98.747z" fill="#ff7186"/><path d="m419.965 358.665v-14.364c-7.022-5.822-16.02-9.332-25.798-9.332h-21.735c-22.293 0-40.534 18.24-40.534 40.534v55.085c0 9.374 3.234 18.025 8.63 24.911 45.149-9.044 79.437-49.127 79.437-96.834z" fill="#f9a0b1"/><path d="m190.778 454.413c-28.888 0-54.981-12.572-73.081-32.515v21.64s14.514 18.572 24.174 40.289c13.748 7.251 28.268 13.233 43.407 17.79 3.669-12.448 10.686-30.664 23.379-47.212-.099.001-.197.008-.296.008z" fill="#7255ce"/><path d="m82.856 440.313c6.266-23.271-1.226-36.732-8.083-43.705-9.77 1.369-19.44.739-28.287-2.54 10.249 16.862 22.484 32.38 36.37 46.245z" fill="#deeeff"/><path d="m123.826 429.079c-11.498-10.643-20.48-23.968-25.921-38.957-1.186.516-2.358.904-3.523 1.201-7.019 2.783-14.244 4.706-21.39 5.527 6.678 6.318 14.623 19.137 8.654 42.238 10.88 11.017 22.787 21.016 35.58 29.825 2.889-11.752 5.401-25.296 6.6-39.834z" fill="#bec8f7"/><path d="m79.18 269.532c-17.099 8.428-32.134 20.4-44.159 34.952v68.408c3.938 8.199 8.316 16.146 13.108 23.809 4.998 1.677 10.404 2.585 16.122 2.543 45.621-.335 84.311-38.529 85.986-83.381.016-.422.029-.844.038-1.264.853-36.866-38.02-61.37-71.095-45.067z" fill="#7255ce"/><path d="m114.012 263.131c-2.938-4.383-8.091-6.799-13.317-6.07-22.362 3.116-42.589 12.869-58.654 27.194-.846 5.648-2.361 22.718 7.43 35.723 6.722 8.928 17.369 14.01 31.654 15.108l18.018 15.253 1.572 7.107c14.789-12.869 24.682-31.388 25.431-51.432.594-15.901-3.968-30.7-12.134-42.883z" fill="#deeeff"/><path d="m100.498 349.521-18.777-15.895c-47.836-3.356-37.967-50.558-37.888-50.934-11.38 9.722-20.789 21.684-27.525 35.216 4.073 19.271 10.401 37.709 18.713 55.017 6.547 1.78 13.457 2.676 20.603 2.518 17.41-.385 33.787-7.67 46.376-19.126z" fill="#bec8f7"/><path d="m190.778 457.413h17.582c26.585 0 48.337-21.752 48.337-48.337v-67.992c0-26.586-21.752-48.337-48.337-48.337h-67.992c-26.585 0-48.337 21.752-48.337 48.337v17.582c0 54.311 44.436 98.747 98.747 98.747z" fill="#e80054"/><path d="m208.36 457.413c26.585 0 48.337-21.752 48.337-48.337v-60.467c-7.438-8.353-18.255-13.64-30.252-13.64h-21.735c-22.293 0-40.534 18.24-40.534 40.534v55.085c0 9.513 3.329 18.281 8.87 25.216 5.757 1.055 11.682 1.609 17.731 1.609z" fill="#ff4155"/><path d="m254.9.001.113.08c-3.813 3.298-13.229 12.675-15.074 26.219-1.352 9.92 1.677 19.907 9.003 29.704-.37.353-.831.811-1.347 1.349 6.592 1.729 13.57 1.532 20.065-.628 11.108-3.694 28.527-7.394 42.728-1.004 16.714 7.521 15.314 30.527 14.392 43.259-.321 4.426.732 8.866 3.124 12.62 1.413 2.216 2.533 4.565 3.423 6.886 1.105 2.884 1.892 7.759 2.378 10.785 2.565-1.243 8.127-2.597 11.264-2.153.384-13.31 1.613-29.553 1.613-29.553 13.441-65.834-41.256-97.779-91.682-97.564z" fill="#6c5475"/><path d="m257.464.018c-5.929-.102-11.817.234-17.545 1.014-49.911 6.801-54.655 35.099-54.677 45.481-.005 2.177-1.211 4.195-3.169 5.148-25.962 12.63-11.964 75.394-11.964 75.394 2.607.174 7.231 1.23 9.266 2.216.498-3.102 1.312-8.05 2.461-11.002.875-2.249 1.97-4.521 3.338-6.668 2.374-3.725 3.456-8.119 3.133-12.512-.933-12.699-2.379-35.826 14.383-43.368 14.2-6.39 31.619-2.69 42.728 1.004 1.271.423 2.565.744 3.867 1.017 1.037-1.024 1.686-1.556 1.686-1.556-25.03-32.005 5.447-55.381 6.493-56.168z" fill="#543e5b"/><path d="m162.5 126.951c3.887-3.563 12.578-1.757 15.926.425-.733 4.567-.775 9.24-.141 13.855l3.951 28.775c0 2.32.073 4.595.207 6.832-9.634 2.906-15.367-5.743-16.173-11.679-.347-2.555-.914-5.074-1.701-7.531-2.563-8.004-11.808-21.751-2.069-30.677z" fill="#fc9460"/><path d="m333.221 118.485c-.889-2.32-2.01-4.67-3.423-6.886-2.392-3.753-3.445-8.193-3.124-12.62.922-12.732.428-37.633-16.286-45.154-14.2-6.389-31.617-2.69-42.726 1.004-6.115 2.034-12.662 2.324-18.91.91.065.088.125.176.19.264-5.028 4.793-25.283 26.825-10.474 58.265l4.842 10.387c-1.848 2.372-6.32 9.605-.717 18.491l-.153.573.005.216c.003.138.314 13.899-2.674 26.844l-.224 9.865c-1.768 2.343-8.842 13.239 2.328 24.936l10.614 11.113c-.489.526-.982 1.241-1.297 2.177-.632 1.877-.349 4.021.841 6.374 1.705 3.369 1.056 24.377.078 40.428 1.468.116 2.944.178 4.426.178 12.465 0 24.567-4.137 34.374-11.752 18.789-14.59 40.877-42.715 40.877-84.093l3.951-28.776c1.056-7.67.257-15.505-2.518-22.744z" fill="#ffc7ab"/><path d="m202.69 53.826c-16.762 7.542-17.211 32.564-16.278 45.263.323 4.393-.758 8.787-3.133 12.512-1.368 2.147-2.463 4.419-3.338 6.668-2.84 7.296-3.668 15.208-2.604 22.955l3.952 28.782c0 41.378 22.088 69.503 40.877 84.093 9.034 7.016 20.018 11.07 31.437 11.666.733-12.163 1.925-36.943-.229-41.199-2.875-5.68 1.332-7.727 1.332-7.727l-11.743-12.296c-11.743-12.296-1.923-23.365-1.923-23.365l.196-10.061c3.069-13.295 2.712-27.22 2.712-27.22l.27-1.009c-6.907-10.233.859-17.998.859-17.998l-5.247-11.255c-16.42-34.861 11.143-57.449 11.143-57.449s-.001-.001-.001-.001c-1.877-.3-3.735-.75-5.554-1.355-11.11-3.694-28.528-7.393-42.728-1.004z" fill="#ffaa7b"/><path d="m257.768 391.681c-2.705 1.896-6.471 5.304-7.589 10.189-1.013 4.436.347 9.023 4.044 13.634 9.848 12.285.704 42.916-.302 46.151-.854 1.36-3.899 6.781-2.611 13.097.803 3.933 3.106 7.374 6.82 10.273 24.813-1.115 44.589-21.579 44.589-46.667 0-25.21-19.969-45.745-44.951-46.677z" fill="#deeeff"/><path d="m261.634 391.987c-1.849-.222-3.727-.351-5.636-.351-25.804 0-46.721 20.918-46.721 46.722 0 25.803 20.918 46.721 46.721 46.721 1.911 0 3.791-.128 5.642-.351-14.613-9.191-5.642-22.093-5.642-22.093s11.253-34.52 0-48.555c-11.091-13.833 5.165-21.864 5.636-22.093z" fill="#bec8f7"/><ellipse cx="255.998" cy="438.358" fill="#49b1f7" rx="24.277" ry="24.277" transform="matrix(.232 -.973 .973 .232 -229.816 585.591)"/><circle cx="260.796" cy="434.291" fill="#73c3f9" r="10.361"/><path d="m350.375 97.564h-18.201c-3.734 0-6.788 3.055-6.788 6.788v47.793l17.056 4.816s-1.342 17.078 15.164 21.834c8.233-2.985 14.168-10.876 14.168-20.107v-39.727c0-11.767-9.63-21.397-21.399-21.397z" fill="#856ee5"/><path d="m358.795 178.346c-17.265-4.135-15.889-21.528-15.889-21.528l-17.52-4.948v21.43c0 3.734 3.055 6.788 6.788 6.788h18.201c2.986 0 5.832-.625 8.42-1.742z" fill="#7255ce"/><path d="m351.727 42.486c-11.648 2.417-20.546 6.548-26.47 12.316-5.51 5.364-8.304 12.074-8.304 19.944v12.771c0 10.67 5.508 20.642 14.733 26.675 6.449 4.22 9.72 10.227 9.72 17.854v25.259c8.815-2.475 15.286-10.552 15.286-20.158v-75.558c0-5.971-1.339-11.87-3.989-17.221-.302-.611-.628-1.24-.976-1.882z" fill="#deeeff"/><path d="m352.45 43.866c-4.688-9.236-14.316-22.009-33.717-31.156-4.087-1.927-8.979-.499-11.402 3.315l-27.005 42.489c-2.54 3.997-3.889 8.634-3.889 13.37v73.909c0 6.799 5.511 12.31 12.31 12.31h46.991c2.523 0 4.93-.469 7.17-1.286 0-6.171 0-14.673 0-24.772 0-9.653-4.952-15.546-10.399-19.109-8.643-5.653-14.055-15.094-14.055-25.421v-12.77c-.001-19.729 18.314-27.683 33.996-30.879z" fill="#bec8f7"/><path d="m284.563 111.879c-.606.35-1.19.723-1.763 1.107-.308 1.935-.487 5.347 1.31 8.208 1.361 2.168 3.553 3.578 6.522 4.196l16.399 28.404c-.393 1.431-1.007 4.757.595 7.902 1.173 2.301 3.257 3.997 6.195 5.062.625-.307 1.247-.629 1.86-.983 14.883-8.592 19.982-27.623 11.389-42.506s-27.624-19.983-42.507-11.39z" fill="#856ee5"/><path d="m284.563 111.879c-14.883 8.593-19.982 27.623-11.389 42.506s27.623 19.982 42.506 11.389c-10.596-2.839-7.021-12.16-7.021-12.16l-17.075-29.574c-10.177-1.625-7.021-12.161-7.021-12.161z" fill="#7255ce"/><ellipse cx="300.121" cy="138.826" fill="#73c3f9" rx="17.075" ry="17.075" transform="matrix(.231 -.973 .973 .231 95.603 398.668)"/><path d="m314.909 132.601c0-1.24-.27-2.415-.745-3.478-1.162-1.678-2.617-3.135-4.29-4.303-1.069-.482-2.252-.757-3.501-.757-4.715 0-8.537 3.822-8.537 8.537s3.822 8.537 8.537 8.537 8.536-3.821 8.536-8.536z" fill="#9bd8f9"/><g fill="#fc9460"><path d="m277.981 207.988-8.734-3.444c-.982-.387-2.067-.432-3.078-.127l-10.065 3.035-10.064-3.035c-1.011-.304-2.096-.26-3.078.127l-8.734 3.444c-2.413.951-3.598 3.679-2.646 6.091.949 2.406 3.671 3.6 6.091 2.646l7.217-2.846 9.816 2.96c.951.297 1.942.276 2.8-.001l9.814-2.959 7.216 2.846c2.409.948 5.137-.227 6.091-2.646.952-2.413-.233-5.14-2.646-6.091z"/><path d="m259.401 224.566h-6.028c-2.594 0-4.696 2.102-4.696 4.696s2.102 4.696 4.696 4.696h6.028c2.594 0 4.696-2.102 4.696-4.696 0-2.593-2.102-4.696-4.696-4.696z"/><path d="m282.476 174.873c-.651-.997-1.65-1.682-2.813-1.927l-8.69-1.829c-2.037-.428-3.856.364-4.744 2.069-.029.055-.061.11-.095.163-2.021 3.126-5.771 4.992-10.031 4.992-4.258 0-8.007-1.866-10.029-4.992-.033-.051-.064-.104-.093-.161-.89-1.707-2.709-2.498-4.747-2.07l-8.69 1.829c-2.403.506-3.947 2.873-3.441 5.277.504 2.401 2.871 3.946 5.279 3.442l4.843-1.019c.663-.138 1.34.066 1.814.533 4.084 4.034 9.574 6.051 15.066 6.051 5.491-.001 10.983-2.017 15.066-6.05.478-.472 1.156-.672 1.814-.533l4.844 1.02c2.402.503 4.771-1.039 5.277-3.442.244-1.166.021-2.355-.63-3.353z"/></g><path d="m230.426 137.787c0-1.531-.286-2.986-.798-4.31 1.989.976 3.595 2.082 4.74 3.015 2.668 2.176 7.308 4.937 9.848 6.396.48.276.284 1.009-.27 1.009h-.251c-2.357 0-4.702.368-6.941 1.105-3.883 1.279-7.599 1.915-11.035 2.125 2.824-1.935 4.707-5.393 4.707-9.34z" fill="#edeef2"/><path d="m198.828 140.181c4.639-4.353 9.099-6.864 13.224-8.136-.928 1.671-1.464 3.636-1.464 5.742 0 3.44 1.431 6.508 3.667 8.522-3.376-.698-6.012-1.668-7.644-2.411-3.348-1.525-5.88-2.145-7.386-2.396-.627-.106-.861-.886-.397-1.321z" fill="#edeef2"/><path d="m230.251 133.793c.565 1.292.882 2.719.882 4.22 0 3.884-2.103 7.275-5.231 9.103-4.512.294-8.547-.149-11.853-.85-2.43-1.93-3.99-4.908-3.99-8.253 0-2.191.669-4.225 1.814-5.911 7.556-2.39 14-.606 18.378 1.691z" fill="#6c5475"/><path d="m216.665 138.675c0 2.23 1.808 4.039 4.039 4.039 2.23 0 4.038-1.808 4.038-4.039 0-2.23-1.808-4.039-4.038-4.039-2.231 0-4.039 1.808-4.039 4.039z" fill="#543e5b"/><path d="m189.902 125.223c.604-3.968 3.008-13.189 12.39-15.322 9.473-2.153 29.45 1.905 37.537 3.734 2.154.487 3.862 2.126 4.44 4.258l1.666 6.145c.141.521-.339.998-.859.852-6.131-1.72-34.365-9.355-42.966-6.596-6.559 2.104-9.927 5.383-11.416 7.274-.284.359-.861.107-.792-.345z" fill="#6c5475"/><path d="m294.566 254.385c3.05-2.021 3.378-6.505.536-8.811-.018-.015-.037-.03-.056-.045l-3.999-3.204c-2.124-1.701-4.763-2.628-7.484-2.628h-53.454c-2.721 0-5.361.927-7.485 2.628l-3.999 3.204c-.225.18-.443.368-.652.563-2.575 2.392-2.098 6.644.845 8.565 11.146 7.277 24.234 11.193 37.668 11.193 13.127.001 26.403-3.727 38.08-11.465z" fill="#bec8f7"/><path d="m262.901 231.407h-12.723c-5.36 0-9.745 4.385-9.745 9.745v20.931c0 1.667 1.181 3.104 2.817 3.424 4.335.85 8.765 1.291 13.236 1.291 4.454 0 8.924-.437 13.344-1.309 1.635-.323 2.816-1.758 2.816-3.424v-20.913c0-5.359-4.385-9.745-9.745-9.745z" fill="#856ee5"/><path d="m366.069 116.546h-4.403c-3.305 1.355-5.65 4.608-5.65 8.386s2.345 7.031 5.65 8.386h4.403c4.612 0 8.386-3.774 8.386-8.386s-3.774-8.386-8.386-8.386z" fill="#73c3f9"/><path d="m356.692 124.932c0-4.612 3.774-8.386 8.386-8.386h-17.762c-4.612 0-8.386 3.774-8.386 8.386s3.773 8.386 8.386 8.386h17.762c-4.612 0-8.386-3.774-8.386-8.386z" fill="#49b1f7"/><path d="m394.512 64.896c-3.812 11.351-3.593 25.497 2.294 41.625 18.453 50.545-22 66.536-8 109.345 12.552 38.379 73.804 34.807 111.166 28.746-6.757-74.594-46.939-139.53-105.46-179.716z" fill="#70f2a4"/><path d="m12.744 237.718c27.634 6.286 116.896 22.608 132.346-24.635 14-42.808-26.453-58.8-8-109.345 7.459-20.431 5.844-37.698-1.576-50.106-66.289 37.513-113.353 105.017-122.77 184.086z" fill="#70f2a4"/><path d="m424.948 331.819h-4.647c-3.488 1.43-5.963 4.863-5.963 8.851 0 3.987 2.475 7.421 5.963 8.851h4.647c4.868 0 8.851-3.983 8.851-8.851s-3.983-8.851-8.851-8.851z" fill="#73c3f9"/><path d="m415.051 340.67c0-4.868 3.983-8.851 8.851-8.851h-18.748c-4.868 0-8.851 3.983-8.851 8.851s3.983 8.851 8.851 8.851h18.748c-4.868 0-8.851-3.983-8.851-8.851z" fill="#49b1f7"/><path d="m106.842 331.819h-4.647c-3.488 1.43-5.963 4.863-5.963 8.851 0 3.987 2.475 7.421 5.963 8.851h4.647c4.868 0 8.851-3.983 8.851-8.851s-3.983-8.851-8.851-8.851z" fill="#73c3f9"/><path d="m96.945 340.67c0-4.868 3.983-8.851 8.851-8.851h-18.747c-4.868 0-8.851 3.983-8.851 8.851s3.983 8.851 8.851 8.851h18.748c-4.869 0-8.852-3.983-8.852-8.851z" fill="#49b1f7"/><path d="m265.895 331.819h-4.647c-3.488 1.43-5.963 4.863-5.963 8.851 0 3.987 2.475 7.421 5.963 8.851h4.647c4.868 0 8.851-3.983 8.851-8.851s-3.983-8.851-8.851-8.851z" fill="#deeeff"/><path d="m255.998 340.67c0-4.868 3.983-8.851 8.851-8.851h-18.748c-4.868 0-8.851 3.983-8.851 8.851s3.983 8.851 8.851 8.851h18.748c-4.868 0-8.851-3.983-8.851-8.851z" fill="#bec8f7"/></g></svg>