<svg id="Layer_1" enable-background="new 0 0 512 512" height="512" viewBox="0 0 512 512" width="512" xmlns="http://www.w3.org/2000/svg"><g><path d="m54.153 405.871 66.088 65.089.008.009c14.793 9.865 30.719 18.161 47.543 24.656h176.415c16.999-6.563 33.085-14.961 48.008-24.962l66.005-65.328c26.983-39.368 42.781-87.005 42.781-138.337 0-135.311-109.691-245.002-245.002-245.002s-245.002 109.691-245.002 245.002c0 51.567 15.945 99.404 43.155 138.876z" fill="#ffc839"/><path d="m111.396 399.685c2.758-3.471 4.108-6.823 4.605-9.908-5.478 1.362-11.163 2.113-16.98 2.155-14.228.104-26.272-6.449-34.121-16.255-3.429 9.335-7.285 19.195-10.746 30.193 8.389 12.17 17.861 23.531 28.256 33.972 28.236-7.729 28.986-40.157 28.986-40.157z" fill="#d3dcfb"/><path d="m114.681 390.09c-.566 2.789-1.877 5.79-4.337 8.887 0 0-.772 32.505-29.587 39.199 11.962 12.246 25.189 23.25 39.485 32.784 6.105-21.286 11.717-43.907 14.51-63.079 1.333-9.146 1.283-17.737.3-25.718-6.328 3.578-13.179 6.279-20.371 7.927z" fill="#bec8f7"/><path d="m297.744 472.383c-6.107-2.576-12.395-4.548-18.779-5.943-.003.004-.006.007-.009.01-7.502-1.642-15.137-2.454-22.772-2.472.856 1.54 1.943 3.089 3.334 4.628-2.857 2.851-10.013 11.075-10.44 22.262-.278 7.275 2.362 14.361 7.839 21.125 20.384-.075 40.178-2.645 59.101-7.41v-24.491z" fill="#9787f4"/><path d="m261.642 468.665c-1.553-1.553-2.762-3.119-3.712-4.677-14.841-.276-29.723 2.509-43.675 8.395l-18.273 7.708v24.491c19.207 4.837 39.31 7.418 60.018 7.418.952 0 1.902-.011 2.851-.022-20.155-23.623 2.791-43.313 2.791-43.313z" fill="#856ee5"/><path d="m297.744 472.383c-.35-.148-.707-.274-1.058-.418 8.239 12.131 12.928 24.807 15.453 33.564 10.994-2.578 21.7-5.901 32.069-9.904.636-1.643 1.318-3.275 2.034-4.884-3.116.03-6.297-.556-9.376-1.855z" fill="#856ee5"/><path d="m175.135 488.885c-3.08 1.299-6.261 1.885-9.376 1.855.716 1.61 1.398 3.241 2.034 4.884 10.368 4.003 21.074 7.326 32.069 9.904 2.525-8.759 7.216-21.438 15.457-33.571-.353.145-.71.276-1.063.424z" fill="#7255ce"/><path d="m397.888 390.099c.065 3.619 1.237 7.612 4.316 11.638.264 4.096 3.006 31.166 28.496 36.993 10.114-10.289 19.338-21.456 27.521-33.395-3.417-10.782-7.203-20.471-10.577-29.653-7.85 9.806-19.894 16.359-34.121 16.255-5.342-.039-10.572-.68-15.635-1.838z" fill="#d3dcfb"/><path d="m431.934 437.479c-27.548-5.586-28.257-36.291-28.257-36.291-3.044-3.832-4.18-7.506-4.299-10.757-7.747-1.603-15.115-4.435-21.885-8.265-.982 7.982-1.032 16.573.3 25.719 2.78 19.082 8.352 41.58 14.423 62.778 14.394-9.647 27.703-20.785 39.718-33.184z" fill="#bec8f7"/><path d="m256.597 0c-.608 0-1.212.017-1.812.046-2.771 3.246-10.155 14.061.063 27.829-.67.751-1.453 1.936-1.585 3.471-.129 1.496.369 2.975 1.482 4.412-.051.046-.117.108-.171.157.671-.012 1.343-.024 2.024-.024 14.332 0 26.491 2.759 36.725 7.009.289-1.869.441-3.783.441-5.732-.001-20.528-16.641-37.168-37.167-37.168z" fill="#6c5475"/><path d="m256.597 0c-20.527 0-37.167 16.64-37.167 37.167 0 1.95.152 3.864.441 5.732 10.235-4.25 22.393-7.009 36.725-7.009-4.618-4.618 0-7.874 0-7.874-12.851-16.189.001-28.016.001-28.016z" fill="#543e5b"/><g><path d="m213.376 48.301c11.468-5.917 25.728-10.023 43.221-10.023 17.492 0 31.752 4.106 43.22 10.023 2.037 1.051 4.003 2.194 5.91 3.407-11.511-14.432-29.234-23.691-49.13-23.691s-37.619 9.259-49.13 23.691c1.906-1.214 3.873-2.357 5.909-3.407z" fill="#fc90ce"/></g><path d="m256.597 28.016c-19.896 0-37.619 9.259-49.13 23.691 1.907-1.213 3.873-2.356 5.91-3.407 10.885-5.616 24.29-9.593 40.581-9.984 1.567-1.582 2.64-2.426 2.64-2.426-4.62-4.619-.001-7.874-.001-7.874z" fill="#f964b2"/><g><path d="" fill="#3c58a0"/><path d="m299.817 45.913c-11.468-5.917-25.728-10.023-43.22-10.023-.684 0-1.355.017-2.03.03-3.376 3.052-12.612 12.562-13.988 26.361-1.035 10.372 2.644 20.762 10.937 30.9-.046.036-.096.075-.144.113.602.218 1.202.435 1.816.67 2.189.839 4.631.839 6.819 0 55.692-21.35 61.491 27.534 61.941 42.621.077 2.582 1.163 4.997 2.895 6.948 1.924 2.168 3.347 5.114 4.386 8.516 2.822-1.881 7.202-3.178 11.162-3.085l.001-.011v-36.62c0-27.751-15.47-53.469-40.575-66.42z" fill="#6c5475"/></g><path d="m341.619 202.962h-12.445c-2.553 0-4.641-2.089-4.641-4.641v-47.142c0-2.553 2.089-4.641 4.641-4.641h12.445c8.047 0 14.631 6.584 14.631 14.631v27.163c0 8.046-6.584 14.63-14.631 14.63z" fill="#bec8f7"/><g><path d="m251.745 318.153c1.41.073 2.826.121 4.255.121 23.311 0 44.255-9.992 57.627-18.285-11.56-6.864-19.838-15.176-19.838-24.915 0-5.252 0-3.678 0-7.079-9.156 8.186-24.858 18.614-37.789 18.927-.433-.01-.87-.034-1.309-.067l.006.099c-.013.842-.236 12.773-2.403 27.656-.166 1.142-.353 2.333-.549 3.543z" fill="#ffaa7b"/></g><g><path d="m253.057 318.216c2.779-17.221 2.943-31.294 2.943-31.294-12.931-.313-28.633-10.742-37.789-18.927v7.079c0 9.739-8.278 18.051-19.838 24.915 12.806 7.942 32.559 17.437 54.684 18.227z" fill="#fc9460"/></g><path d="m183.965 152.05c1.04-3.402 2.462-6.348 4.386-8.516 1.732-1.951 2.818-4.366 2.895-6.948.449-15.053 6.227-63.74 61.563-42.761.377-.276.592-.418.592-.418-28.052-32.938 3.197-57.517 3.197-57.517-17.492 0-31.752 4.106-43.221 10.023-25.105 12.952-40.574 38.67-40.574 66.421v36.62l.001.011c3.958-.093 8.339 1.204 11.161 3.085z" fill="#543e5b"/><path d="m183.275 195.556s-4.545-28.764.69-45.894c-4.75-3.166-13.926-4.712-18.054-.677-8.45 8.261-2.259 20.736.704 28.616.91 2.419 1.497 4.867 1.762 7.318.577 5.327 3.465 13.124 15.441 12.94-.181-.767-.367-1.523-.543-2.303z" fill="#fc9460"/><path d="m325.289 140.75c-1.725-1.945-2.675-4.217-2.744-6.57-.267-8.957-2.529-30.88-17.722-40.997-10.777-7.176-25.927-7.102-45.029.224-2.061.791-4.332.791-6.393 0-.808-.31-1.599-.588-2.394-.872.172.215.333.431.509.646-5.499 4.274-27.849 24.314-12.57 57.373l3.585 9.528c-2.804 2.704-6.058 8.695-2.096 16.04l-.096.446c-.519.832-2.22 3.833-2.723 8.043-.526 4.409.212 11.009 6.602 17.64l-.455 7.335c-.828 1.801-4.994 12.095 3.103 21.344l-.815 6.707c-.152.63-.819 3.9.788 6.68.908 1.572 2.345 2.683 4.276 3.307l3.377 6.123c-.276 1.76-1.034 8.041.829 14.974 1.646 6.128 5.667 13.68 15.309 18.011 16.421-7.541 29.784-19.534 38.712-34.812 9.123-15.612 16.244-34.531 21.17-56.27 2.13-13.556 4.4-44.056-5.223-54.9z" fill="#ffc7ab"/><path d="m255.849 253.517-3.855-6.991c-6.536-1.728-4.663-8.653-4.663-8.653l.896-7.373c-8.931-9.679-3.183-20.583-3.183-20.583l.506-8.165c-12.394-12.394-3.99-24.679-3.99-24.679l.251-1.155c-5.403-9.394 2.254-15.454 2.254-15.454l-3.918-10.413c-17.009-36.742 13.253-56.644 13.253-56.644-19.103-7.323-34.253-7.399-45.029-.225-15.193 10.117-17.455 32.041-17.722 40.998-.07 2.354-1.019 4.625-2.746 6.57-9.514 10.721-7.43 42.043-5.211 54.938 4.915 21.697 12.036 40.615 21.161 56.232 9.263 15.853 23.292 28.183 40.569 35.658 7.738 3.347 16.611 3.347 24.348 0 1.17-.506 2.323-1.039 3.462-1.59-21.026-8.504-16.383-32.471-16.383-32.471z" fill="#ffaa7b"/><g><path d="m197.697 173.429c4.498-5.073 8.838-8.003 12.861-9.496-.79 1.905-1.232 4.113-1.208 6.463.04 3.989 1.415 7.529 3.532 9.851-3.351-.753-5.969-1.843-7.584-2.68-3.269-1.695-5.736-2.369-7.201-2.637-.609-.111-.845-.998-.4-1.501z" fill="#deeeff"/></g><path d="m234.033 178.64c.871-1.87 1.372-4.09 1.348-6.476-.003-.266-.018-.527-.036-.788-1.172-.895-2.285-1.797-3.171-2.626-1.148-1.074-2.768-2.347-4.773-3.453.463 1.49.731 3.12.749 4.836.046 4.542-1.648 8.548-4.235 10.863 3.164-.271 6.569-.992 10.118-2.356z" fill="#deeeff"/><g><path d="m234.927 171.058c2.391 1.854 5.142 3.716 6.884 4.859.47.309.287 1.148-.251 1.155l-.244.003c-2.289.031-4.562.482-6.729 1.353-.366.147-.729.281-1.092.415.99-1.694 1.574-3.847 1.551-6.187-.004-.546-.05-1.077-.119-1.598z" fill="#fc9460"/></g><g><path d="m228.146 165.725c.564 1.467.887 3.09.904 4.803.044 4.432-1.961 8.329-4.979 10.456-4.379.396-8.303-.057-11.522-.813-2.382-2.17-3.93-5.548-3.968-9.364-.025-2.5.602-4.83 1.695-6.769 7.312-2.827 13.591-.877 17.87 1.687z" fill="#4b6bb2"/></g><g><path d="m218.025 167.653c0-1.872.56-3.58 1.483-4.898 3.37.357 6.302 1.571 8.637 2.971.564 1.467.887 3.09.904 4.803.006.661-.038 1.308-.119 1.94-1.131 1.664-2.834 2.725-4.742 2.725-3.403-.001-6.163-3.377-6.163-7.541z" fill="#2a428c"/></g><g><path d="m212.187 167.648c0 .942.764 1.706 1.706 1.706s1.706-.764 1.706-1.706-.764-1.706-1.706-1.706c-.943.001-1.706.764-1.706 1.706z" fill="#6289cc"/></g><g><path d="m194.754 156.99c.811-3.504 3.589-11.577 12.116-12.841 8.61-1.276 26.178 3.715 33.278 5.901 1.891.582 3.305 2.163 3.675 4.107l1.069 5.603c.091.475-.371.869-.826.703-5.36-1.956-30.06-10.707-37.932-8.83-6.003 1.431-9.237 4.13-10.696 5.718-.278.303-.776.038-.684-.361z" fill="#543e5b"/></g><g fill="#fc9460"><path d="m239.025 233.282 6.805-2.683c.765-.302 1.611-.336 2.398-.099l7.842 2.365 7.841-2.365c.788-.237 1.633-.202 2.398.099l6.805 2.683c1.88.741 2.803 2.866 2.062 4.746-.739 1.874-2.86 2.805-4.746 2.062l-5.623-2.217-7.648 2.306c-.741.232-1.513.215-2.181-.001l-7.646-2.305-5.623 2.217c-1.877.738-4.002-.177-4.746-2.062-.741-1.88.182-4.005 2.062-4.746z"/><path d="m253.501 246.199h4.696c2.021 0 3.659 1.638 3.659 3.659s-1.638 3.659-3.659 3.659h-4.696c-2.021 0-3.659-1.638-3.659-3.659s1.638-3.659 3.659-3.659z"/><path d="m239.588 203.007 5.963-1.255c1.716-.359 3.31.349 4.071 1.806 1.278 1.981 3.617 3.134 6.286 3.134 2.668 0 5.006-1.153 6.255-3.084.789-1.506 2.387-2.214 4.101-1.856l5.963 1.255c2.052.432 3.37 2.453 2.938 4.505-.431 2.05-2.451 3.368-4.504 2.938l-3.324-.7c-.043-.009-.086-.013-.128-.013-.162 0-.321.063-.439.18-5.888 5.817-15.836 5.816-21.724.001-.149-.148-.363-.21-.567-.167l-3.324.7c-2.052.429-4.073-.888-4.504-2.938-.433-2.053.885-4.074 2.937-4.506z"/></g><path d="m404.524 318.806c-8.98 13.219-16.61 34.133-2.43 59.049-3.483 4.339-7.151 13.5-.55 22.98 3.913.685 7.912 1.073 11.978 1.103 32.971.242 54.272-35.224 38.615-64.241-7.731-14.328-18.356-26.857-31.072-36.843-4.737 3.913-11.138 10.001-16.541 17.952z" fill="#856ee5"/><path d="m403.928 378.027c-21.834-37.085 5.207-65.422 18.348-76.214-6.731-5.429-14.059-10.147-21.89-14.007-29.102-14.345-63.305 7.216-62.555 39.653.009.37.02.741.034 1.112 1.351 36.184 30.088 67.424 65.796 72.597-9.822-12.387.267-23.141.267-23.141z" fill="#7255ce"/><path d="m427.164 296.259c-2.925 1.962-14.05 9.904-22.64 22.547-8.909 13.114-16.477 33.804-2.751 58.459 6.141 2.262 12.651 3.582 19.34 3.73 7.616.168 14.935-1.005 21.738-3.299 14.935-5.036 22.805-21.293 17.585-36.165-6.426-18.307-18.129-34.125-33.277-45.648z" fill="#9787f4"/><path d="m428.673 297.064c-13.36-10.579-29.529-17.766-47.215-20.23-4.599-.641-9.132 1.484-11.718 5.341-7.185 10.719-11.199 23.74-10.677 37.732.991 26.525 20.162 50.031 44.861 58.113-28.067-47.685 24.673-80.909 24.749-80.956z" fill="#856ee5"/><path d="m344.969 79.074c-1.761 1.168-3.623 2.48-5.494 3.926-10.91 8.428-16.441 16.839-16.441 25v54.262c0 3.473 1.488 6.598 3.849 8.796h9.032c8.146 0 14.75-6.604 14.75-14.75v-60.183c0-4.203-.942-8.355-2.808-12.121-.752-1.52-1.707-3.188-2.888-4.93z" fill="#deeeff"/><path d="m323.946 61.721c-2.877-1.356-6.32-.351-8.026 2.333l-19.008 29.907c-1.788 2.813-2.738 6.077-2.738 9.411v59.022c0 4.785 3.879 8.665 8.665 8.665h26.44c-2.858-1.884-4.746-5.117-4.746-8.796v-54.263c0-11.39 12.019-21.542 21.26-27.668-3.783-6.017-10.392-13.211-21.847-18.611z" fill="#bec8f7"/><path d="m325.573 146.538h-27.686l.522.331c-1.242 1.606-2.96 4.454-3.016 7.968-.047 2.911 1.039 5.678 3.229 8.243-1.16 1.333-2.818 3.758-2.828 6.739-.007 2.24.895 4.344 2.685 6.27-1.308 1.322-3.13 3.705-3.4 6.906-.259 3.06.947 6.111 3.568 9.088h26.927c6.024 0 10.953-4.929 10.953-10.952v-23.641c-.002-6.024-4.93-10.952-10.954-10.952z" fill="#9787f4"/><path d="m300.692 146.538h-24.881c-6.024 0-10.953 4.929-10.953 10.952v23.641c0 6.024 4.929 10.952 10.953 10.952h24.881c-9.333-9.333 0-15.95 0-15.95-7.646-6.554 0-13.025 0-13.025-8.55-8.55 0-16.57 0-16.57z" fill="#856ee5"/><path d="m315.907 163.108h-17.309c-1.159 1.338-2.794 3.748-2.804 6.71-.007 2.24.895 4.344 2.685 6.27-.013.014-.028.031-.042.045h17.471c3.582 0 6.513-2.931 6.513-6.513-.001-3.581-2.932-6.512-6.514-6.512z" fill="#73c3f9"/><path d="m300.692 163.108h-15.215c-3.582 0-6.513 2.931-6.513 6.513s2.931 6.513 6.513 6.513h15.215c-7.646-6.555 0-13.026 0-13.026z" fill="#49b1f7"/><path d="m174.168 327.459c-.008.37-.02.741-.034 1.112-1.474 39.464-35.516 73.071-75.657 73.365-32.97.242-54.272-35.224-38.615-64.241 11.621-21.536 29.749-39.043 51.751-49.889 29.102-14.345 63.305 7.217 62.555 39.653z" fill="#7255ce"/><path d="m142.261 282.174c-2.585-3.857-7.119-5.982-11.718-5.341-17.848 2.487-34.151 9.783-47.581 20.522l.095.01c-.222 4.816-.129 20.044 8.891 29.993 5.266 5.809 12.634 8.753 21.9 8.753 8.048 0 14.485 2.573 19.134 7.648 3.157 3.446 5.198 7.717 6.514 11.997 7.946-10.182 12.948-22.643 13.441-35.851.523-13.99-3.491-27.011-10.676-37.731z" fill="#9787f4"/><path d="m113.848 334.611c-32.967 0-29.205-38.528-29.2-38.585-15.056 11.51-26.686 27.275-33.085 45.505-5.22 14.872 2.65 31.129 17.585 36.165 6.803 2.294 14.122 3.467 21.739 3.299 19.868-.439 38.202-11.093 49.72-26.725-3.353-9.968-10.732-19.659-26.759-19.659z" fill="#856ee5"/><path d="m365.008 299.454-24.796-8.215c-7.357-2.438-15.455-1.358-21.845 3.027-5.647 3.876-13.578 8.695-23.03 12.804-.001-.001-.003-.002-.004-.003-11.34 4.931-24.867 8.842-39.333 8.842-1.49 0-2.969-.047-4.439-.127l.149.223c-1.126 2.6-4.224 10.954-1.527 18.989 1.601 4.771 4.947 8.548 9.953 11.234l.007 91.274c-2.28 2.757-13.051 17.242-.695 31.022 6.654.215 13.294 1.026 19.834 2.457.003-.003.006-.007.01-.011 6.474 1.414 12.851 3.414 19.045 6.027l39.674 16.737c13.272 5.599 28.416-1.719 32.328-15.583 4.697-16.646 9.577-39.422 9.577-62.198v-95.855c0-9.375-6.009-17.695-14.908-20.644z" fill="#deeeff"/><path d="m261.636 345.314c-18.389-9.102-8.213-29.447-8.213-29.447l-.001-.001c-25.455-.808-47.77-13.352-59.789-21.601-6.39-4.385-14.488-5.465-21.845-3.027l-24.796 8.215c-8.9 2.949-14.908 11.269-14.908 20.644v95.855c0 22.776 4.88 45.552 9.577 62.198 3.912 13.863 19.056 21.181 32.327 15.582l39.675-16.737c15.29-6.45 31.683-9.225 47.934-8.379-14.655-14.721.045-30.562.045-30.562z" fill="#bec8f7"/><path d="m257.77 345.009c-2.705 1.896-6.471 5.304-7.589 10.189-1.013 4.436.347 9.023 4.044 13.634 9.848 12.285.704 42.916-.302 46.151-.854 1.36-3.899 6.781-2.611 13.097.803 3.933 3.106 7.374 6.82 10.273 24.813-1.115 44.589-21.579 44.589-46.668 0-25.21-19.969-45.745-44.951-46.676z" fill="#9787f4"/><path d="m261.636 345.314c-1.849-.223-3.727-.351-5.636-.351-25.804 0-46.722 20.918-46.722 46.722 0 25.803 20.918 46.721 46.722 46.721 1.911 0 3.791-.128 5.642-.351-14.613-9.191-5.642-22.093-5.642-22.093s11.254-34.52 0-48.555c-11.091-13.832 5.165-21.864 5.636-22.093z" fill="#856ee5"/><ellipse cx="256" cy="391.685" fill="#49b1f7" rx="24.277" ry="24.277" transform="matrix(.232 -.973 .973 .232 -184.417 549.755)"/><ellipse cx="260.798" cy="387.618" fill="#73c3f9" rx="10.361" ry="10.361" transform="matrix(.16 -.987 .987 .16 -163.488 583.18)"/><path d="m366.254 48.161c-1.544 31.281 28.387 77.905 28.387 103.387 0 37.152-52.587 87.457 19.704 108.57 40.483 11.823 65.809 39.345 80.262 62.708 4.182-17.932 6.395-36.622 6.395-55.828 0-95.65-54.819-178.487-134.748-218.837z" fill="#ffdd40"/><path d="m145.746 48.161c1.544 31.281-28.387 77.905-28.387 103.387 0 37.152 52.587 87.457-19.704 108.57-40.483 11.823-65.809 39.345-80.262 62.708-4.182-17.932-6.394-36.622-6.394-55.828-.001-95.65 54.818-178.487 134.747-218.837z" fill="#ffdd40"/><path d="m139.052 326.823h-4.089c-3.069 1.259-5.247 4.279-5.247 7.788 0 3.508 2.178 6.529 5.247 7.788h4.089c4.283 0 7.788-3.505 7.788-7.788-.001-4.283-3.505-7.788-7.788-7.788z" fill="#fcb1df"/><path d="m130.344 334.611c0-4.283 3.505-7.788 7.788-7.788h-16.496c-4.283 0-7.788 3.505-7.788 7.788s3.505 7.788 7.788 7.788h16.496c-4.284 0-7.788-3.505-7.788-7.788z" fill="#fc90ce"/><path d="m390.364 326.823h-4.089c-3.069 1.259-5.247 4.279-5.247 7.788 0 3.508 2.178 6.529 5.247 7.788h4.089c4.283 0 7.788-3.505 7.788-7.788s-3.505-7.788-7.788-7.788z" fill="#fcb1df"/><path d="m381.656 334.611c0-4.283 3.504-7.788 7.788-7.788h-16.496c-4.283 0-7.788 3.505-7.788 7.788s3.504 7.788 7.788 7.788h16.496c-4.283 0-7.788-3.505-7.788-7.788z" fill="#fc90ce"/></g></svg>