<svg id="Layer_1" enable-background="new 0 0 512 512" height="512" viewBox="0 0 512 512" width="512" xmlns="http://www.w3.org/2000/svg"><g><path d="m463.097 397.942c24-37.878 37.905-82.785 37.905-130.944 0-135.311-109.691-245.002-245.002-245.002s-245.002 109.691-245.002 245.002c0 48.159 13.905 93.066 37.905 130.945z" fill="#ffc839"/><g><path d="m312.757 307.361c-4.58-9.831-5.998-22.312-6.324-31.805-5.094 5.934-10.44 10.896-15.548 14.863-9.953 7.729-22.234 11.927-34.884 11.927-1.144 0-2.284-.046-3.42-.115l2.385 2.873s2.143 15.611-2.095 25.711c21.739.629 43.626-5.176 62.551-17.41l1.011-.654c-1.49-1.571-2.74-3.38-3.676-5.39z" fill="#ff7186"/></g><path d="m256 305.915-3.039-3.66c-11.567-.617-22.691-4.728-31.844-11.836-5.108-3.967-10.455-8.93-15.549-14.863-.327 9.493-1.744 21.974-6.325 31.805-.928 1.992-2.165 3.787-3.638 5.348l1.847 1.173c17.131 10.88 36.622 16.516 56.203 16.943 4.476-9.39 2.345-24.91 2.345-24.91z" fill="#ff4155"/><path d="m86.388 355.371c-18.97 9.135-30.516 25.215-37.485 42.571 11.654 18.393 25.687 35.127 41.672 49.768-4.65-23.202-7.781-50.561-6.979-80.967.107-4.009 1.093-7.871 2.792-11.372z" fill="#ff4155"/><path d="m178.135 321.898c7.512 17.386 26.93 48.204 72.587 59.268 1.911.463 3.407 1.993 3.811 3.898.148.693.759 1.189 1.468 1.189s1.32-.496 1.468-1.189c.403-1.905 1.899-3.436 3.811-3.898 45.657-11.064 65.075-41.883 72.587-59.268.144-.333.308-.651.475-.966-.798-.249-1.588-.514-2.391-.753-.473.567-1.039 1.074-1.692 1.496-4.029 1.944-30.128 24.182-74.198 24.182-43.725 0-70.125-22.171-74.265-24.148-.674-.428-1.254-.947-1.739-1.53-.804.24-1.596.505-2.395.754.165.314.329.631.473.965z" fill="#543e5b"/><path d="m425.613 355.373c1.699 3.5 2.685 7.361 2.791 11.37.802 30.406-2.329 57.765-6.979 80.967 15.985-14.641 30.019-31.375 41.673-49.768-6.97-17.355-18.516-33.434-37.485-42.569z" fill="#ff7186"/><path d="m182.599 500.783c23.175 7.275 47.825 11.217 73.401 11.217s50.226-3.942 73.401-11.217v-70.45h-146.802z" fill="#543e5b"/><path d="m329.401 430.333h-90.151l-23.029 40.833s39.184-1.557 52 19c4.168 6.685 7.135 14.024 9.249 20.89 17.933-1.565 35.313-5.057 51.931-10.273z" fill="#45304c"/><path d="m322.904 247.269v-57.479c0-5.625 1.889-11.057 5.319-15.295 4.378-5.408 10.33-21.613 7.668-42.077-1.438-11.067-6.054-19.234-13.715-24.274-9.591-6.312-22.229-6.161-32.196.38l-33.98 22.293-33.98-22.294c-9.969-6.541-22.606-6.689-32.196-.38-7.661 5.04-12.276 13.207-13.715 24.274-2.662 20.464 3.29 36.669 7.668 42.077 3.431 4.238 5.319 9.67 5.319 15.295v57.479c0 1.135-.669 2.021-1.56 2.434 8.228 20.167 21.567 34.956 33.582 44.286 9.952 7.729 22.234 11.926 34.883 11.926s24.931-4.198 34.883-11.926c12.015-9.33 25.354-24.12 33.582-44.286-.892-.412-1.562-1.297-1.562-2.433z" fill="#f9a0b1"/><path d="m256.863 255.906c-5.122-5.122-1.577-9.865-1.577-9.865l-8.899-8.54s5.125-24.75-3.985-37.044-.239-24.049-.239-24.049l.253-.946c-5.471-9.914.805-16.874.805-16.874s0 0-4.919-10.551 5.748-16.504 5.748-16.504l-1.058-9.248-20.974-13.76c-9.969-6.541-22.606-6.689-32.196-.38-7.661 5.04-12.276 13.207-13.715 24.274-2.662 20.464 3.29 36.669 7.668 42.077 3.431 4.238 5.319 9.67 5.319 15.295v57.479c0 1.135-.669 2.021-1.56 2.434 8.228 20.167 21.567 34.956 33.582 44.286 9.952 7.729 22.234 11.926 34.883 11.926.288 0 .575-.013.863-.018v-49.992z" fill="#ff7186"/><path d="m277.546 237.575-8.353-3.294c-.939-.37-1.977-.413-2.944-.122l-9.626 2.903-9.625-2.903c-.967-.291-2.005-.249-2.944.122l-8.353 3.294c-2.308.91-3.441 3.518-2.531 5.826.908 2.301 3.511 3.443 5.826 2.531l6.902-2.721 9.387 2.831c.909.284 1.858.264 2.678-.001l9.386-2.83 6.902 2.721c2.304.906 4.913-.217 5.826-2.531.91-2.308-.223-4.917-2.531-5.826z" fill="#ff4155"/><path d="m284.592 170.679c0-1.435.269-2.8.748-4.041-1.865.915-3.371 1.952-4.443 2.827-2.502 2.04-6.851 4.629-9.233 5.996-.45.259-.266.946.253.946h.235c2.21 0 4.408.345 6.507 1.036 3.641 1.199 7.124 1.796 10.345 1.992-2.647-1.815-4.412-5.056-4.412-8.756z" fill="#edeef2"/><path d="m314.215 172.923c-4.35-4.081-8.531-6.435-12.397-7.627.87 1.566 1.372 3.409 1.372 5.383 0 3.225-1.342 6.101-3.438 7.989 3.165-.654 5.637-1.564 7.167-2.261 3.139-1.429 5.513-2.011 6.924-2.247.587-.098.806-.829.372-1.237z" fill="#edeef2"/><path d="m284.755 166.934c-.53 1.212-.826 2.549-.826 3.956 0 3.641 1.972 6.82 4.904 8.534 4.23.276 8.013-.14 11.113-.797 2.278-1.81 3.74-4.602 3.74-7.737 0-2.054-.627-3.961-1.7-5.542-7.085-2.24-13.126-.568-17.231 1.586z" fill="#ff4155"/><path d="m297.492 171.511c0 2.091-1.695 3.786-3.786 3.786s-3.786-1.695-3.786-3.786 1.695-3.786 3.786-3.786 3.786 1.695 3.786 3.786z" fill="#cc0053"/><path d="m322.583 158.9c-.566-3.72-2.82-12.365-11.615-14.364-8.881-2.019-27.609 1.786-35.191 3.5-2.02.456-3.621 1.993-4.163 3.992l-1.562 5.76c-.133.489.318.936.806.799 5.748-1.613 32.217-8.771 40.281-6.184 6.149 1.972 9.307 5.046 10.703 6.82.264.337.805.101.741-.323z" fill="#6c5475"/><path d="m229.488 170.679c0-1.435-.268-2.8-.748-4.041 1.865.915 3.371 1.952 4.443 2.827 2.502 2.04 6.851 4.629 9.233 5.996.45.259.266.946-.253.946h-.235c-2.21 0-4.408.345-6.507 1.036-3.641 1.199-7.124 1.796-10.345 1.992 2.647-1.815 4.412-5.056 4.412-8.756z" fill="#edeef2"/><path d="m199.865 172.923c4.35-4.081 8.531-6.435 12.397-7.627-.87 1.566-1.372 3.409-1.372 5.383 0 3.225 1.341 6.101 3.438 7.989-3.165-.654-5.637-1.564-7.167-2.261-3.139-1.429-5.513-2.011-6.924-2.247-.587-.098-.806-.829-.372-1.237z" fill="#edeef2"/><path d="m229.325 166.934c.53 1.212.826 2.549.826 3.956 0 3.641-1.972 6.82-4.904 8.534-4.23.276-8.013-.14-11.113-.797-2.278-1.81-3.74-4.602-3.74-7.737 0-2.054.627-3.961 1.7-5.542 7.085-2.24 13.126-.568 17.231 1.586z" fill="#ff4155"/><path d="m216.588 171.511c0 2.091 1.695 3.786 3.786 3.786s3.786-1.695 3.786-3.786-1.695-3.786-3.786-3.786-3.786 1.695-3.786 3.786z" fill="#cc0053"/><path d="m191.497 158.9c.566-3.72 2.82-12.365 11.615-14.364 8.881-2.019 27.609 1.786 35.191 3.5 2.02.456 3.621 1.993 4.163 3.992l1.562 5.76c.133.489-.318.936-.806.799-5.748-1.613-32.217-8.771-40.281-6.184-6.149 1.972-9.307 5.046-10.703 6.82-.264.337-.805.101-.741-.323z" fill="#6c5475"/><path d="m309.982 242.3c-2.23-13.295-11.823-26.608-24.629-29.512l-1.904-.559c-3.632 2.498-14.06 11.133-8.015 24.453 8.427 2.686 15.784 7.823 21.195 14.651-1.289 5.732-5.332 14.443-17.862 18.871-3.175 1.122-6.459 1.063-9.375.087-.732 1.124-5.938 9.548-4.074 19.02 1.101 5.595 4.448 10.383 9.943 14.247.524-.242 1.05-.476 1.566-.739 19.59-9.973 45.634-27.302 53.964-71.877.685-3.666 1.033-7.393 1.033-11.121-3.171 7.823-9.762 17.239-21.842 22.479z" fill="#6c5475"/><path d="m257.599 210.747c-.25.541-1.007.541-1.257 0-1.37-2.964-4.778-4.709-8.18-3.71l-19.574 5.751c-13.06 2.961-22.783 16.746-24.759 30.299-13.361-5.039-20.317-15.034-23.652-23.268v.004c0 3.724.347 7.446 1.03 11.106 8.315 44.567 34.234 61.893 53.825 71.878 13.117 6.685 28.676 6.69 41.796.01-19.06-12.682-6.106-31.818-6.106-31.818s.088-.103.235-.281c-5.525-1.177-10.105-5.559-10.847-11.584-.014-.113-.027-.227-.04-.343-.177-1.632-1.543-2.886-3.206-2.886-1.663 0-3.029 1.254-3.206 2.886-.013.115-.026.229-.04.343-1.077 8.751-10.251 14.039-18.658 11.069-11.568-4.087-16.544-11.828-18.682-17.504 6.267-8.572 15.495-14.723 26.117-17.068l3.497-.772c5.096-1.125 9.037-6.1 10.482-11.4.166-.609 1.031-.609 1.197 0 1.445 5.3 5.385 10.275 10.482 11.4l3.497.772c2.023.447 3.992 1.037 5.903 1.75-8.269-15.638 7.903-24.594 7.903-24.594l-19.574-5.751c-3.406-.999-6.813.747-8.183 3.711z" fill="#543e5b"/><path d="m321.352 109.397c6.095 4.01 11.467 11.027 13.052 23.215 2.518 19.358-2.776 35.293-7.347 40.94-.194.24-.363.496-.548.742l29.349 9.408v-56.568c0-23.189-8.819-46.163-23.834-63.407l-5.44 16.198c-2.022.949-8.087 4.26-10.96 10.907-2.022 4.681-1.993 9.977.031 15.747 1.979.699 3.894 1.631 5.697 2.818z" fill="#d3dcfb"/><path d="m296.197 39.091c-11.266-3.913-24.554-8.401-40.197-8.401-15.643 0-28.931 4.488-40.197 8.401-35.947 12.486-59.663 49.99-59.663 88.043v89.342c0 9.566 4.738 18.511 12.652 23.886l15.267 10.369c2.779 1.887 6.537-.103 6.537-3.462v-57.478c0-5.897-1.943-11.655-5.653-16.239-4.571-5.647-9.865-21.582-7.347-40.94 1.585-12.188 6.957-19.205 13.052-23.215 9.233-6.074 21.308-5.682 30.548.38l34.804 22.835 34.803-22.835c8.005-5.252 18.134-6.239 26.703-2.463-.001-.002-.001-.005-.002-.007-7.632-19.193 10.291-26.278 10.291-26.278l5.371-15.992c-9.793-11.681-22.373-20.876-36.969-25.946z" fill="#bec8f7"/><path d="m256 100.875s-1.487 9.625 5.888 13.125c7.374 3.5 12.586-1.499 12.587-1.5v-80.378c0-2.436-1.849-4.485-4.275-4.705-4.527-.41-9.257-.627-14.199-.627v74.085z" fill="#deeeff"/><path d="m239.657 128.649 11.952 7.841c2.666 1.749 6.116 1.749 8.783 0l11.952-7.841c1.33-.873 2.131-2.357 2.131-3.947v-12.202c-11.747 5-13.946-6.179-13.946-6.179l-3.987-79.526c-.182-.001-.359-.006-.541-.006-4.942 0-9.672.217-14.199.627-2.426.22-4.275 2.269-4.275 4.705v92.58c-.001 1.592.8 3.075 2.13 3.948z" fill="#d3dcfb"/><g fill="#ff7186"><path d="m281.846 204.048c-.623-.954-1.578-1.609-2.69-1.843l-8.311-1.75c-1.948-.41-3.688.348-4.537 1.979-.028.053-.058.105-.091.156-1.933 2.989-5.519 4.774-9.593 4.774-4.073 0-7.658-1.785-9.591-4.775-.032-.049-.061-.099-.089-.154-.852-1.632-2.59-2.389-4.54-1.98l-8.311 1.749c-2.299.484-3.775 2.748-3.291 5.047.482 2.296 2.745 3.774 5.049 3.292l4.631-.975c.635-.132 1.282.063 1.735.51 3.906 3.858 9.156 5.787 14.409 5.787 5.251-.001 10.504-1.929 14.409-5.786.457-.451 1.105-.643 1.735-.51l4.633.975c2.297.481 4.563-.994 5.047-3.292.232-1.112.018-2.25-.604-3.204z"/><path d="m313.756 69.788c3.22 5.423 8.813 10.665 18.526 12.36 3.926.685 7.973.052 11.559-1.686l36.566-17.718c12.306-5.963 20.63-18.028 21.487-31.676.615-9.786-.951-20.98-8.236-30.375-1.03-1.329-3.174-.622-3.247 1.058-.357 8.186-2.409 24.655-12.957 29.286-10.077 4.424-40.08 14.673-56.689 20.263-7.645 2.573-11.128 11.552-7.009 18.488z"/><path d="m198.244 69.788c-3.22 5.423-8.813 10.665-18.526 12.36-3.926.685-7.973.052-11.559-1.686l-36.566-17.718c-12.306-5.963-20.63-18.028-21.487-31.676-.615-9.786.951-20.98 8.236-30.375 1.03-1.329 3.174-.622 3.247 1.058.357 8.186 2.408 24.655 12.957 29.286 10.077 4.424 40.08 14.673 56.689 20.263 7.644 2.573 11.127 11.552 7.009 18.488z"/></g><path d="m256 108c-3.85 0-7-3.15-7-7v-78c0-3.85 3.15-7 7-7 3.85 0 7 3.15 7 7v78c0 3.85-3.15 7-7 7z" fill="#ff4155"/><path d="m256 16c-3.85 0-7 3.15-7 7v7c0 3.85 3.15 7 7 7s7-3.15 7-7v-7c0-3.85-3.15-7-7-7z" fill="#ff7186"/><path d="m256 67.996c-3.85 0-7-3.15-7-7v40.004c0 3.85 3.15 7 7 7s7-3.15 7-7v-40.004c0 3.85-3.15 7-7 7z" fill="#e80054"/><path d="m251.075 379.708c-44.76-10.846-63.945-40.773-71.563-58.406-3.165-7.327-11.577-10.822-19-7.89-30.328 11.978-50.525 21.687-62.691 28.086-9.403 4.946-15.443 14.585-15.724 25.205-.783 29.687 2.123 56.401 6.533 79.196 26.659 24.951 58.888 44.024 94.633 55.122 13.167-15.347 30.142-23.46 44.403-27.737 16.988-5.095 28.491-20.916 28.491-38.651v-48.529c-.001-3.055-2.114-5.677-5.082-6.396z" fill="#6c5475"/><path d="m315.269 348.206c-11.489 12.829-28.72 25.292-54.344 31.501-2.968.719-5.082 3.341-5.082 6.395v48.529c0 17.736 11.503 33.556 28.491 38.651 14.26 4.277 31.236 12.391 44.403 27.737 18.095-5.618 35.284-13.287 51.31-22.72 16.494-85.197-64.776-130.091-64.778-130.093z" fill="#876d93"/><path d="m429.903 366.703c-.28-10.621-6.321-20.259-15.724-25.205-12.165-6.399-32.363-16.108-62.69-28.086-7.424-2.932-15.835.563-19 7.89-3.257 7.538-8.639 17.323-17.219 26.904 0 0-5.432 27.172 19.593 32.566 25.025 5.395 44.137 69.312 44.137 69.312s-7.018 16.097 1.047 28.216c15.632-9.201 30.159-20.081 43.322-32.401 4.41-22.795 7.317-49.509 6.534-79.196z" fill="#a98bbc"/><g><path d="m256.059 347.355c-23.463 0-46.929-6.511-67.453-19.545l-7.616-4.837c-4.195-2.665-5.437-8.227-2.773-12.423 2.665-4.195 8.225-5.436 12.423-2.772l7.616 4.837c35.431 22.502 81.101 22.317 116.351-.471l6.693-4.326c4.174-2.699 9.745-1.502 12.444 2.672 2.698 4.174 1.502 9.745-2.673 12.443l-6.693 4.328c-20.714 13.391-44.516 20.094-68.319 20.094z" fill="#876d93"/></g><circle cx="348.552" cy="420.781" fill="#bec8f7" r="33.283"/><circle cx="163.448" cy="420.781" fill="#bec8f7" r="33.283"/><g><path d="m348.553 378.498c23.315 0 42.282 18.968 42.282 42.283 0 23.314-18.968 42.282-42.282 42.282-23.315 0-42.283-18.968-42.283-42.282-.001-23.315 18.967-42.283 42.283-42.283zm0 66.566c13.39 0 24.282-10.893 24.282-24.282 0-13.39-10.893-24.283-24.282-24.283-13.39 0-24.283 10.894-24.283 24.283-.001 13.389 10.893 24.282 24.283 24.282z" fill="#d3dcfb"/></g><g><path d="m163.448 463.064c-23.315 0-42.283-18.968-42.283-42.283 0-23.314 18.968-42.282 42.283-42.282 23.314 0 42.282 18.968 42.282 42.282 0 23.315-18.967 42.283-42.282 42.283zm0-66.566c-13.39 0-24.283 10.893-24.283 24.282 0 13.39 10.894 24.283 24.283 24.283 13.39 0 24.282-10.894 24.282-24.283s-10.892-24.282-24.282-24.282z" fill="#d3dcfb"/></g><path d="m501.002 266.998c0-72.105-31.153-136.931-80.729-181.764-71.975 18.997-15.612 103.99-38.439 148.734-24.386 47.801 11.72 63.532 48.196 78.408 20.516 8.367 48.876-6.453 69.766-21.024.791-8.012 1.206-16.134 1.206-24.354z" fill="#ffdd40"/><path d="m10.998 266.998c0-72.105 31.153-136.931 80.729-181.764 71.975 18.997 15.612 103.99 38.439 148.734 24.387 47.801-11.72 63.532-48.195 78.408-20.516 8.367-48.876-6.453-69.766-21.024-.792-8.012-1.207-16.134-1.207-24.354z" fill="#ffdd40"/><path d="m330.275 394.072.009.014c2.218 3.499 6.542 5.041 10.463 3.703 3.023-1.031 6.312-1.482 9.736-1.215 11.643.908 21.145 10.238 22.241 21.864.704 7.47-2 14.332-6.735 19.219-2.877 2.97-3.316 7.535-1.103 11.028 3.131 4.94 10.056 5.613 14.114 1.4 7.932-8.236 12.564-19.669 11.74-32.153-1.372-20.803-18.068-37.702-38.855-39.304-5.987-.461-11.74.333-17.024 2.146-5.46 1.873-7.677 8.42-4.586 13.298z" fill="#deeeff"/><path d="m145.171 394.072.009.014c2.218 3.499 6.542 5.041 10.463 3.703 3.023-1.031 6.312-1.482 9.736-1.215 11.643.908 21.145 10.238 22.241 21.864.704 7.47-2 14.332-6.735 19.219-2.877 2.97-3.316 7.535-1.103 11.028 3.131 4.94 10.056 5.613 14.114 1.4 7.932-8.236 12.564-19.669 11.74-32.153-1.372-20.803-18.068-37.702-38.855-39.304-5.987-.461-11.74.333-17.024 2.146-5.46 1.873-7.677 8.42-4.586 13.298z" fill="#deeeff"/><path d="m282.671 334.614c.894 5.271 6.243 8.504 11.343 6.9 10.577-3.325 20.8-8.071 30.364-14.253l6.439-4.163c4.024-2.602 5.574-7.911 3.237-12.094-2.562-4.586-8.413-5.992-12.753-3.185l-6.693 4.326c-8.157 5.273-16.875 9.327-25.893 12.174-4.219 1.332-6.854 5.513-6.114 9.875z" fill="#a98bbc"/><path d="m327.113 173.484c-3.699 4.632-5.708 10.379-5.708 16.307v57.478c0 3.359 3.758 5.35 6.537 3.462l15.267-10.369c7.914-5.375 12.651-14.32 12.651-23.886v-34.099c0-8.692-7.046-15.739-15.739-15.739-5.056 0-9.718 2.495-12.763 6.531-.083.108-.164.213-.245.315z" fill="#deeeff"/><path d="m338.001 80.019c-2.749-8.519 1.397-17.734 9.595-21.328 8.222-3.604 18.588-8.127 27.292-11.858 17.5-7.5 20.333-20.167 19.167-28.667-.739-5.384 1.663-9.157 3.524-11.204-1.072-2.15-2.357-4.253-3.921-6.269-1.03-1.329-3.174-.622-3.247 1.057-.357 8.186-2.409 24.655-12.957 29.286-10.077 4.424-40.08 14.673-56.689 20.263-7.645 2.573-11.128 11.553-7.009 18.488 3.22 5.423 8.813 10.665 18.526 12.36 2.129.371 4.29.343 6.397-.027z" fill="#ff4155"/><path d="m198.244 69.788c4.118-6.936.635-15.915-7.01-18.488-2.391-.805-5.065-1.708-7.911-2.675l-4.482 5.482c-3.947 4.827-10.47 6.721-16.381 4.735-6.653-2.235-15.737-5.509-24.336-9.342-16.263-7.25-17.987-17.75-20.237-30.25-1.201-6.672 1.444-10.066 4.172-11.782-.259-2.127-.399-4.088-.47-5.717-.073-1.68-2.217-2.386-3.247-1.057-7.284 9.394-8.851 20.589-8.236 30.375.858 13.648 9.181 25.713 21.487 31.676l36.566 17.718c3.586 1.738 7.633 2.371 11.559 1.686 9.713-1.696 15.306-6.938 18.526-12.361z" fill="#ff4155"/></g></svg>