<svg id="Layer_1" enable-background="new 0 0 511.998 511.998" height="512" viewBox="0 0 511.998 511.998" width="512" xmlns="http://www.w3.org/2000/svg"><g><path d="m49.195 398.409h413.608c24.182-37.976 38.198-83.056 38.198-131.413 0-135.311-109.691-245.002-245.002-245.002s-245.002 109.691-245.002 245.002c0 48.357 14.016 93.438 38.198 131.413z" fill="#f964b2"/><path d="m392.502 367.279h49.898c10.184-24.594 4.613-58.304-23.264-86.181-15.578-15.578-23.266-32.758-26.987-47.154-5.257-3.813-10.618-8.785-15.952-15.239-1.943-2.351-4.901-3.445-7.908-2.922-3.07.531-5.539 2.602-6.605 5.54l-.045.124c-8.214 22.553 3.048 44.273 14.971 67.268 12.808 24.704 25.977 50.109 15.892 78.564z" fill="#2a428c"/><path d="m119.496 367.279c-10.085-28.455 3.084-53.86 15.892-78.563 11.923-22.995 23.185-44.716 14.971-67.268l-.045-.124c-1.067-2.938-3.536-5.01-6.606-5.54-3.009-.524-5.964.571-7.907 2.922-5.333 6.453-10.695 11.424-15.951 15.237-3.721 14.396-11.409 31.577-26.988 47.156-27.877 27.877-33.447 61.586-23.263 86.181h49.897z" fill="#1c2e7a"/><path d="m432.733 238.885c-48.255-33.121-37.219-115.206-68.798-175.316-12.516-23.823-30.823-39.019-48.818-48.708-8.853-4.766-18.159-8.374-27.698-10.847-6.738 2.867-29.317 13.837-38.291 35.353-5.473 13.122-4.769 27.684 2.09 43.298-3.297 2.974-13.967 14.184-7.917 30.042-1.581 1.118-4.516 3.55-6.819 7.502-2.98 5.115-5.423 13.841-.157 26.304l4.201 11.165c-1.91 2.341-7.068 9.883-2.466 18.358l-.138.635c-.734 1.761-6.729 17.287 4.217 29.171l-4.558 9.016c-2.871 4.624-5.33 15.706 5.667 25.053l9.626 10.078c-1.24 2.046-2.073 5.375.7 8.325l3.353 7.032c-1.238 4.213-7.326 29.005 16.968 39.723 3.611 1.594 5.467 3.691 5.671 6.415.858 11.461-26.532 31.458-37.158 38.196l-.178.112-.14.158c-4.877 5.489-10.124 11.328-15.58 17.329h167.576c19.131-55.409-47.717-99.519-31.037-145.318.015-.042.03-.084.046-.126 1.847-5.089 8.498-6.347 11.947-2.174 21.228 25.685 43.134 28.208 55.756 26.877 3.864-.407 5.139-5.453 1.935-7.653z" fill="#3c58a0"/><path d="m243.21 350.946s56.79-36 31.29-47.25-15.967-38.467-15.967-38.467l-3.71-7.783c-3.589-3.589 0-7.59 0-7.59l-10.544-11.04c-13.058-11.041-5.389-23.221-5.389-23.221l5.068-10.025c-12.043-12.043-4.599-28.443-4.599-28.443l.289-1.332c-5.602-9.526 2.597-17.81 2.597-17.81l-4.515-12.001c-9.77-23.128 7.427-32.695 7.427-32.695-7.844-18.323 7.89-30.213 7.89-30.213-25.272-55.504 36.716-78.395 36.788-78.421-30.796-8.649-64.249-5.248-92.952 10.205-17.995 9.689-36.303 24.884-48.818 48.708-31.579 60.11-20.543 142.195-68.798 175.316-3.204 2.2-1.929 7.245 1.936 7.653 12.622 1.331 34.527-1.192 55.756-26.877 3.449-4.173 10.1-2.915 11.947 2.174.015.042.031.084.046.126 16.68 45.799-50.168 89.909-31.037 145.318h110.573c8.921-9.804 14.722-16.332 14.722-16.332z" fill="#2a428c"/><path d="m298.86 289.127c0-5.957 0-4.172 0-8.028-10.385 9.284-28.194 21.113-42.861 21.468-.538-.013-1.081-.046-1.627-.089l.124.345c-.054 3.408-1.26 40.651-27.371 60.173-.709.078-2.305.265-4.583.582 15.963 24.226 30.494 53.835 33.457 84.21 5.256-53.894 46.93-105.38 68.406-128.657-14.68-8.109-25.545-18.12-25.545-30.004z" fill="#bec8f7"/><path d="m213.138 289.127c0 11.884-10.865 21.895-25.545 30.003 9.6 10.405 23.233 26.458 35.848 45.832 2.702-.364 4.25-.519 4.25-.519 28.526-21.003 28.308-61.876 28.308-61.876-14.667-.355-32.476-12.184-42.861-21.468z" fill="#a8b7ef"/><path d="m173.513 198.938s-5.155-32.625.782-52.054c-5.387-3.591-15.796-5.344-20.477-.768-9.584 9.37-2.562 23.519.799 32.456 1.032 2.744 1.697 5.52 1.998 8.301.654 6.042 3.93 14.886 17.513 14.677-.204-.87-.415-1.727-.615-2.612z" fill="#bec8f7"/><path d="m359.534 146.116c-4.681-4.577-15.09-2.823-20.477.768 5.938 19.429.782 52.054.782 52.054-.201.885-.411 1.742-.616 2.612 13.584.209 16.86-8.635 17.513-14.677.301-2.781.967-5.556 1.998-8.301 3.362-8.937 10.384-23.086.8-32.456z" fill="#bec8f7"/><path d="m334.588 136.776c-1.957-2.206-3.034-4.783-3.113-7.452-.158-5.317-.941-14.661-4.117-24.006h-1.586c-8.947-.91-16.461 1.008-22.351 5.704-.372.297-.956.143-1.111-.32-.52-1.543-1.065-3.993-.707-6.9.285-2.298-1.521-4.297-3.833-4.22-7.286.256-31.788 2.907-41.185 26.289-.244.606-1.096.603-1.338 0-3.109-7.737-7.875-13.193-13.121-17.055.286 1.264.667 2.559 1.175 3.891-1.581 1.118-4.516 3.55-6.819 7.502-2.98 5.115-5.423 13.841-.157 26.304l4.201 11.165c-1.91 2.341-7.068 9.883-2.466 18.358l-.138.635c-.734 1.761-6.729 17.287 4.217 29.171l-4.558 9.016c-2.871 4.624-5.33 15.706 5.667 25.053l9.626 10.078c-1.24 2.046-2.073 5.375.7 8.325l3.353 7.032c-1.175 3.999-6.701 26.535 13.522 37.98.012-.005.024-.009.036-.015 19.596-8.478 35.507-22.463 46.014-40.444 10.348-17.707 18.424-39.166 24.011-63.823 2.417-15.376 4.993-49.969-5.922-62.268z" fill="#deeeff"/><path d="m258.532 265.229-3.71-7.783c-3.589-3.589 0-7.59 0-7.59l-10.544-11.04c-13.058-11.041-5.389-23.221-5.389-23.221l5.068-10.025c-12.043-12.043-4.599-28.443-4.599-28.443l.289-1.332c-5.602-9.526 2.597-17.81 2.597-17.81l-4.515-12.001c-9.77-23.128 7.427-32.695 7.427-32.695-.428-.999-.773-1.975-1.067-2.934-10.969-9.191-24.846-10.592-30.025-10.774-2.267-.099-4.121 1.896-3.835 4.219.359 2.91-.186 5.359-.706 6.902-.098.292-.33.399-.46.438-.11.034-.396.086-.667-.13-5.53-4.403-12.511-6.357-20.774-5.817h-1.587c-3.211 9.387-3.999 18.79-4.158 24.13-.079 2.67-1.156 5.246-3.114 7.452-10.791 12.16-8.428 47.685-5.91 62.311 5.575 24.609 13.651 46.067 24.001 63.779 10.507 17.981 26.418 31.966 46.014 40.444 8.777 3.796 18.841 3.796 27.616 0 .559-.242 1.103-.504 1.656-.754-22.532-11.841-13.608-37.326-13.608-37.326z" fill="#d3dcfb"/><path d="m268.624 277.946c-3.231 0-5.875-2.644-5.875-5.875v-21.91c0-3.231 2.644-5.875 5.875-5.875 3.231 0 5.875 2.644 5.875 5.875v21.91c0 3.231-2.644 5.875-5.875 5.875z" fill="#70f2a4"/><g><path d="m219.2 181.634s-4.47 20.017-1.636 45.833c.192 1.749-2.264 2.356-2.896.714-3.252-8.438-7.3-21.336-8.713-36.021-.374-3.892-2.394-7.449-5.632-9.64-2.741-1.855-6.009-4.743-8.325-8.949z" fill="#3c58a0"/></g><path d="m292.798 181.634s4.47 20.017 1.636 45.833c-.192 1.749 2.264 2.356 2.896.714 3.252-8.438 7.3-21.336 8.713-36.021.374-3.892 2.394-7.449 5.632-9.64 2.741-1.855 6.009-4.743 8.325-8.949z" fill="#3c58a0"/><g><path d="m323.193 172.928c-5.184-5.847-10.186-9.224-14.822-10.945.91 2.196 1.42 4.74 1.392 7.449-.046 4.598-1.631 8.677-4.071 11.354 3.862-.868 6.879-2.124 8.741-3.089 3.768-1.954 6.61-2.731 8.299-3.039.702-.129.974-1.152.461-1.73z" fill="#3c58a0"/></g><path d="m279.928 171.714c-.027 2.72.584 5.239 1.637 7.313 4 1.51 7.84 2.315 11.413 2.621-2.982-2.668-4.934-7.286-4.881-12.52.02-1.978.329-3.857.863-5.574-2.311 1.274-4.178 2.742-5.501 3.979-.97.908-2.179 1.892-3.455 2.872-.041.431-.071.865-.076 1.309z" fill="#3c58a0"/><g><path d="m280.286 170.195c-2.756 2.137-5.927 4.282-7.934 5.601-.541.355-.331 1.323.289 1.332l.281.004c2.638.036 5.258.555 7.755 1.559.422.17.84.324 1.258.478-1.141-1.953-1.815-4.433-1.788-7.13.006-.632.059-1.244.139-1.844z" fill="#bec8f7"/></g><g><path d="m288.102 164.048c-.65 1.691-1.022 3.562-1.042 5.535-.05 5.108 2.26 9.599 5.738 12.05 5.046.456 9.57-.066 13.28-.937 2.745-2.501 4.529-6.394 4.573-10.792.029-2.881-.694-5.567-1.953-7.801-8.429-3.258-15.665-1.01-20.596 1.945z" fill="#73c3f9"/></g><g><path d="m299.765 166.27c0-2.157-.646-4.126-1.709-5.645-3.884.411-7.263 1.811-9.954 3.424-.65 1.691-1.022 3.562-1.042 5.535-.007.761.044 1.507.137 2.236 1.303 1.918 3.267 3.14 5.465 3.14 3.923 0 7.103-3.891 7.103-8.69z" fill="#4fabf7"/></g><g><path d="m306.494 166.265c0 1.086-.88 1.966-1.966 1.966s-1.966-.88-1.966-1.966.88-1.966 1.966-1.966 1.966.88 1.966 1.966z" fill="#9bd8f9"/></g><g><path d="m326.586 153.981c-.934-4.038-4.136-13.343-13.963-14.799-9.923-1.47-30.17 4.282-38.353 6.801-2.18.671-3.809 2.493-4.236 4.733l-1.232 6.458c-.105.548.428 1.001.952.81 6.177-2.254 34.644-12.339 43.717-10.176 6.918 1.649 10.645 4.76 12.327 6.59.319.348.894.043.788-.417z" fill="#3c58a0"/></g><g><path d="m188.805 172.928c5.184-5.847 10.186-9.224 14.822-10.945-.91 2.196-1.42 4.74-1.392 7.449.046 4.598 1.631 8.677 4.071 11.354-3.861-.868-6.879-2.124-8.741-3.089-3.768-1.954-6.61-2.731-8.299-3.039-.702-.129-.974-1.152-.461-1.73z" fill="#3c58a0"/></g><path d="m230.682 178.933c1.004-2.156 1.581-4.714 1.554-7.464-.003-.307-.021-.608-.041-.908-1.351-1.031-2.634-2.071-3.655-3.026-1.323-1.238-3.19-2.705-5.501-3.979.534 1.717.843 3.596.863 5.574.053 5.234-1.899 9.852-4.881 12.52 3.646-.314 7.571-1.145 11.661-2.717z" fill="#3c58a0"/><g><path d="m231.712 170.195c2.756 2.137 5.927 4.282 7.934 5.601.541.355.331 1.323-.289 1.332l-.281.004c-2.639.036-5.258.555-7.755 1.559-.422.17-.84.324-1.258.478 1.141-1.953 1.815-4.433 1.788-7.13-.006-.632-.059-1.244-.139-1.844z" fill="#bec8f7"/></g><g><path d="m223.897 164.048c.65 1.691 1.022 3.562 1.042 5.535.05 5.108-2.26 9.599-5.738 12.05-5.046.456-9.57-.066-13.28-.937-2.745-2.501-4.529-6.394-4.573-10.792-.029-2.881.694-5.567 1.953-7.801 8.428-3.258 15.665-1.01 20.596 1.945z" fill="#73c3f9"/></g><g><path d="m212.233 166.27c0-2.157.646-4.126 1.709-5.645 3.884.411 7.263 1.811 9.954 3.424.65 1.691 1.022 3.562 1.042 5.535.007.761-.044 1.507-.137 2.236-1.303 1.918-3.267 3.14-5.465 3.14-3.922 0-7.103-3.891-7.103-8.69z" fill="#4fabf7"/></g><g><path d="m205.504 166.265c0 1.086.88 1.966 1.966 1.966s1.966-.88 1.966-1.966-.88-1.966-1.966-1.966-1.966.88-1.966 1.966z" fill="#9bd8f9"/></g><g><path d="m185.413 153.981c.935-4.038 4.136-13.343 13.963-14.799 9.923-1.47 30.17 4.282 38.353 6.801 2.18.671 3.809 2.493 4.236 4.733l1.232 6.458c.105.548-.428 1.001-.952.81-6.177-2.254-34.644-12.339-43.717-10.176-6.918 1.649-10.645 4.76-12.327 6.59-.32.348-.895.043-.788-.417z" fill="#3c58a0"/></g><path d="m236.436 241.908 7.842-3.092c.882-.348 1.856-.388 2.764-.114l9.038 2.725 9.037-2.725c.908-.273 1.882-.233 2.764.114l7.842 3.092c2.167.854 3.231 3.303 2.377 5.47-.852 2.16-3.296 3.232-5.47 2.376l-6.48-2.555-8.814 2.658c-.854.267-1.744.248-2.514-.001l-8.812-2.657-6.48 2.555c-2.163.851-4.613-.204-5.47-2.376-.855-2.167.209-4.616 2.376-5.47z" fill="#3c58a0"/><path d="m253.119 256.795h5.413c2.329 0 4.217 1.888 4.217 4.217s-1.888 4.217-4.217 4.217h-5.413c-2.329 0-4.217-1.888-4.217-4.217 0-2.33 1.888-4.217 4.217-4.217z" fill="#3c58a0"/><path d="m237.084 207.016 6.873-1.447c1.978-.414 3.815.402 4.692 2.082 1.473 2.284 4.169 3.612 7.245 3.612 3.074 0 5.769-1.329 7.208-3.555.91-1.736 2.751-2.552 4.726-2.139l6.872 1.447c2.365.498 3.884 2.827 3.386 5.192-.497 2.362-2.825 3.882-5.191 3.386l-3.831-.807c-.049-.01-.099-.015-.148-.015-.187 0-.369.073-.505.207-6.786 6.704-18.252 6.703-25.037.001-.172-.17-.418-.242-.654-.192l-3.831.807c-2.365.494-4.694-1.023-5.191-3.386-.498-2.366 1.021-4.695 3.386-5.193z" fill="#bec8f7"/><path d="m311.375 82.825c-12.222-8.139-29.404-8.055-51.068.252-2.337.896-4.925.896-7.261 0-.659-.253-1.301-.474-1.952-.711.044.1.08.199.124.299-3.188 2.875-13.268 13.454-8.459 28.488 4.437 3.638 8.401 8.569 11.097 15.277.746 1.857 3.375 1.857 4.121 0 8.952-22.277 31.856-25.069 39.846-25.35 1.389-.049 2.462 1.157 2.292 2.537-.381 3.087.149 5.713.773 7.564.486 1.443 2.278 1.963 3.469 1.013 7.074-5.641 15.794-6.277 23.581-5.089-2.805-9.092-7.774-18.428-16.563-24.28z" fill="#73c3f9"/><path d="m207.463 112.184c1.197.953 2.993.448 3.482-1.002.624-1.852 1.154-4.477.773-7.565-.17-1.38.903-2.586 2.292-2.537 6.026.212 20.535 1.858 31.144 12.21l.001-.001c-7.844-18.323 7.89-30.213 7.89-30.213-21.664-8.304-38.846-8.39-51.067-.254-8.722 5.808-13.683 15.046-16.499 24.072 7.365-.864 15.389.038 21.984 5.29z" fill="#49b1f7"/><path d="m226.794 363.032c-4.492.512-28.614 3.546-52.454 12.062-35.224 12.582-53.842 31.376-53.842 54.352v41.695c38.808 25.813 85.396 40.858 135.5 40.858.173 0 .344-.006.517-.007 0-17.502 0-38.755 0-63.046.001-30.649-13.832-61.073-29.721-85.914z" fill="#49b1f7"/><path d="m191.01 317.168c-30.368 18.201-81.242 27.485-81.242 27.485-12.595 2.419-40.238 11.215-55.989 42.715-1.674 3.349-3.195 7.054-4.584 11.041 18.749 29.443 43.615 54.608 72.804 73.717 0-12.237 0-26.577 0-42.68 0-54.5 105.692-65.003 105.692-65.003h.001c-12.823-20.324-27.146-37.037-36.682-47.275z" fill="#3d9cea"/><path d="m396.06 417.332c0-4.353 2.847-7.009 5.511-8.043 2.649-1.027 6.518-.989 9.435 2.201 5.573 6.096 12.355 15.346 18.316 28.653 12.611-12.624 23.854-26.615 33.482-41.735-1.39-3.988-2.91-7.693-4.585-11.041-15.75-31.5-43.393-40.296-55.988-42.715 0 0-50.874-9.284-81.242-27.485-21.068 22.621-65.506 76.844-65.506 131.778v63.046c.173 0 .344.007.517.007 52.084 0 100.365-16.259 140.061-43.97v-50.696z" fill="#73c3f9"/><path d="m430.468 438.986c-5.768-12.746-12.385-21.977-18.356-28.508-6.217-6.8-17.552-2.36-17.552 6.854v51.739c12.918-8.876 24.94-18.959 35.908-30.085z" fill="#49b1f7"/><g fill="#fb7ac0"><path d="m416.593 81.968c-9.905 13.987-16.282 34.097-4.98 60.152 23.991 55.308 56.491 75.187 47.781 127.283-6.871 41.098-5.327 74.513 22.384 92.849 12.372-29.283 19.223-61.467 19.223-95.256 0-73.874-32.698-140.108-84.408-185.028z"/><path d="m95.405 81.968c9.905 13.987 16.282 34.097 4.98 60.152-23.991 55.308-56.491 75.187-47.781 127.283 6.871 41.098 5.328 74.513-22.383 92.849-12.372-29.283-19.223-61.467-19.223-95.256-.001-73.874 32.697-140.108 84.407-185.028z"/></g></g></svg>