<svg id="Layer_1" enable-background="new 0 0 512 512" height="512" viewBox="0 0 512 512" width="512" xmlns="http://www.w3.org/2000/svg"><g><ellipse cx="256" cy="266.998" fill="#50dd89" rx="245.002" ry="245.002" transform="matrix(.707 -.707 .707 .707 -113.815 259.221)"/><path d="m132.123 247.407-51.388-92.967-26.687 12.962c-.133.074-.274.116-.411.176l51.41 93.006z" fill="#6c5475"/><path d="m118.096 242.478c-2.671 1.3-5.892.273-7.318-2.333l-34.699-63.4c-1.527-2.79-.41-6.289 2.451-7.679l8.112-3.94-5.907-10.686-26.687 12.962c-.133.074-.274.116-.411.176l51.41 93.006 27.076-13.178-5.121-9.264z" fill="#543e5b"/><g><path d="m166.298 287.709-15.735-28.467-43.435 24.009 8.077 14.611c22.084-6.551 42.948-9.272 51.093-10.153z" fill="#543e5b"/></g><path d="m85.389 138.301c-3.324-6.013-10.893-8.194-16.907-4.87l-7.133 3.973c-3.847 4.178-4.804 10.493-1.906 15.736 2.54 4.596 7.354 7.116 12.265 6.975l8.811-4.908c6.014-3.324 8.194-10.893 4.87-16.906z" fill="#deeeff"/><path d="m59.901 152.606c-2.901-5.249-1.816-11.614 2.237-15.642l-18.528 10.32c-6.013 3.324-8.194 10.893-4.87 16.907 3.324 6.013 10.893 8.194 16.907 4.87l17.662-9.838c-5.258.781-10.684-1.69-13.408-6.617z" fill="#bec8f7"/><path d="m165.623 240.256c-3.121-5.647-10.229-7.694-15.876-4.573l-24.758 13.685c-2.628 4.034-3.015 9.338-.524 13.845 2.359 4.267 6.695 6.746 11.236 6.93l25.349-14.012c5.647-3.121 7.694-10.229 4.573-15.875z" fill="#deeeff"/><path d="m125.115 262.508c-2.474-4.476-1.969-9.783.837-13.672l-39.037 21.578c-5.647 3.121-7.694 10.229-4.573 15.876 3.121 5.647 10.229 7.694 15.876 4.573l39.488-21.827c-4.974.544-10.019-1.874-12.591-6.528z" fill="#bec8f7"/><path d="m308.453 249.269c-5.298 6.171-10.858 11.333-16.171 15.459-10.352 8.039-23.126 12.405-36.282 12.405-.5 0-.999-.018-1.498-.031l.001 14.77c-.003.04-.309 4.083-2.958 5.378l-.535.263-.21.558c-.01.027-.344.898-1.063 2.391 2.081.128 4.168.208 6.263.208 20.014 0 39.517-5.894 56.183-16.849.976-.641 2.079-.9 3.154-.829-5.006-10.322-6.537-23.642-6.884-33.723z" fill="#ffaa7b"/><path d="m256 277.133c-13.156 0-25.93-4.366-36.282-12.405-5.313-4.126-10.874-9.288-16.172-15.459-.347 10.081-1.878 23.401-6.885 33.72 1.075-.07 2.179.188 3.155.83 15.374 10.106 33.163 15.892 51.54 16.731.574-1.235.848-1.953.848-1.953 3.509-1.717 3.795-6.639 3.795-6.639v-14.825z" fill="#fc9460"/><path d="m417.863 382.964c-6.986-16.078-29.613-30.536-63.716-40.712-9.825-2.931-17.771-9.608-22.373-18.799-4.56-9.109-5.159-19.815-1.642-29.375l.659-1.79c-.847-.366-1.581-.682-2.21-.954-3.627-1.566-6.771-4.129-8.849-7.49-.056-.091-.112-.183-.168-.275-1.549-2.554-4.884-3.39-7.381-1.749-16.666 10.955-36.168 16.849-56.183 16.849-1.798 0-3.59-.064-5.378-.159-.789 1.882-4.275 9.594-11.807 18.387-14.372 16.779-32.225 24.577-44.701 28.167-1.453.244-16.5 2.954-31.777 12.863-14.586 9.462-31.975 27.511-31.975 59.761v59.666c36.736 21.993 79.705 34.646 125.638 34.646 69.314 0 131.895-28.79 176.458-75.06l1.549-6.579c-3.686-13.83-9.006-30.967-16.144-47.397z" fill="#ad5c38"/><path d="m199.817 281.819c-2.496-1.641-5.832-.805-7.381 1.749-.056.092-.112.184-.168.275-2.077 3.361-5.221 5.924-8.848 7.49-.316.136-.661.285-1.029.445l.478 1.3c3.516 9.56 2.918 20.267-1.642 29.375-4.602 9.191-12.548 15.868-22.373 18.799-34.103 10.176-56.73 24.635-63.716 40.712-7.62 17.54-13.169 35.887-16.869 50.155l1.273 4.822c15.434 16.025 33.033 29.949 52.321 41.311 0-15.288 0-35.591 0-60.564 0-61.128 62.582-71.158 62.582-71.158 44.582-12.786 57.76-47.932 57.76-47.932h.001c-18.678-.697-36.779-6.517-52.389-16.779z" fill="#9b4d2f"/><path d="m234.03 383.601.114.041-57.075-53.358c-4.373 4.649-9.903 8.085-16.215 9.968-6.047 1.804-11.725 3.746-17.027 5.805l66.594 62.256c27.257-2.358 23.609-24.712 23.609-24.712z" fill="#894029"/><path d="m240.161 436.116 23.807-24.593-30.938-28.923s3.657 22.391-23.672 24.719z" fill="#773624"/><path d="m291.869 437.607c-2.472 2.37-5.459 6.172-6.018 11.086-.592 5.201 1.662 10.394 6.701 15.432 12.904 12.904 32.574 30.406 38.918 36.007 6.64-2.144 13.16-4.554 19.537-7.239z" fill="#894029"/><path d="m292.969 438.635-27.968-26.146-23.807 24.593 72.746 68.007c6.501-1.577 12.901-3.412 19.189-5.492-5.467-4.817-26.062-23.078-39.517-36.533-11.241-11.241-5.019-20.256-.643-24.429z" fill="#773624"/><g><path d="m353.147 341.252c-.823-.246-1.633-.518-2.429-.815l-9.059 7.386c-2.382 1.941-3.817 4.816-3.94 7.888-.122 3.07 1.082 6.05 3.303 8.175l4.867 4.654 23.36-21.839c-5.037-1.927-10.405-3.749-16.102-5.449z" fill="#9b4d2f"/><path d="m342.06 362.801c-4.008-3.833-3.751-10.312.548-13.816l9.793-7.983c-6.289-2.02-11.781-5.581-16.072-10.374l-27.655 25.854c.378.203.743.439 1.071.745l21.776 20.358c.873.816 1.371 1.864 1.534 2.954l13.932-13.025z" fill="#894029"/></g><path d="m295.658 368.649-133.438 124.746c11.965 4.962 24.406 9.004 37.239 12.036l119.492-111.708z" fill="#9b4d2f"/><path d="m195.569 484.617 86.604-79.031c4.549-4.152 11.444-4.374 16.251-.523l4.522 3.622 16.004-14.962-23.293-25.074-133.437 124.746c8.876 3.681 18.016 6.853 27.382 9.485-1.348-6.701.898-13.637 5.967-18.263z" fill="#894029"/><path d="m221.924 367.568-12.386-11.579c-2.062-1.927-5.264-1.927-7.326 0l-7.425 6.941c-2.839 5.749-1.788 12.942 3.192 17.597 4.135 3.866 9.907 4.946 14.971 3.267l8.974-8.39c2.267-2.119 2.267-5.716 0-7.836z" fill="#deeeff"/><path d="m198.434 380c-5.121-4.788-5.973-12.339-2.585-18.064l-16.663 15.577c-2.268 2.12-2.268 5.717 0 7.837l12.386 11.579c2.062 1.927 5.264 1.927 7.326 0l15.132-14.147c-5.153 2.163-11.288 1.244-15.596-2.782z" fill="#d3dcfb"/><path d="m256 0c-.734 0-1.465.011-2.195.028-3.617 3.639-14.092 15.534-14.568 31.66-.343 11.585 4.586 22.756 14.654 33.223-1.335 1.492-3.354 4.318-3.273 7.702.057 2.385 1.12 4.578 3.163 6.539-1.113 1.258-2.559 3.4-2.734 6.17-.163 2.583.794 5.114 2.847 7.544-1.154 1.245-2.75 3.469-2.947 6.392-.163 2.42.647 4.804 2.412 7.11-4.496 1.691-13.955 6.686-13.955 18.738l.739 6.5c-.494.961-1.593 3.344-2.203 6.386h112.184v-43.867c.001-51.769-42.355-94.125-94.124-94.125z" fill="#6c5475"/><path d="m256 0c-51.769 0-94.125 42.356-94.125 94.125v43.869h77.605c.761-3.559 2.209-6.092 2.209-6.092l-.783-6.794c-.001-14.707 15.094-18.008 15.094-18.008-8.038-8.038 0-14.162 0-14.162-7.807-7.807 0-13.858 0-13.858-8.737-6.734 0-14.162 0-14.162-34.379-34.379 0-64.918 0-64.918z" fill="#543e5b"/><path d="m354.779 133.935c-4.083-3.742-13.212-1.845-16.729.446.771 4.798.814 9.706.149 14.553l-4.15 30.226c0 2.436-.077 4.827-.218 7.176 10.12 3.052 16.142-6.033 16.989-12.267.365-2.684.961-5.329 1.787-7.91 2.691-8.408 12.402-22.848 2.172-32.224z" fill="#ffaa7b"/><path d="m157.221 133.935c4.083-3.742 13.212-1.845 16.729.446-.77 4.798-.814 9.706-.149 14.553l4.15 30.226c0 2.436.077 4.827.218 7.176-10.119 3.052-16.142-6.033-16.988-12.267-.364-2.684-.961-5.329-1.787-7.91-2.692-8.408-12.403-22.848-2.173-32.224z" fill="#fc9460"/><path d="m336.937 125.063c-.939-2.449-2.122-4.929-3.613-7.268-2.525-3.961-3.636-8.648-3.297-13.32.6-8.278.625-21.426-3.562-32.161h-75.831c-.001.101-.018.197-.015.299.057 2.385 1.12 4.578 3.163 6.539-1.113 1.258-2.559 3.4-2.734 6.17-.163 2.583.794 5.114 2.847 7.544-1.154 1.245-2.75 3.469-2.947 6.392-.163 2.42.647 4.804 2.412 7.11-4.496 1.691-13.955 6.686-13.955 18.738l.739 6.5c-1.042 2.028-4.807 10.346-.893 17.958l-.094.352c-.726 2.113-.949 6.33 2.686 8.747-.173.557-.349 1.271-.472 2.064 1.342-.439 2.689-.873 4.045-1.297 6.886-2.156 14.283-2.156 21.169 0 27.359 8.564 52.155 20.232 65.305 26.868 1.332.672 2.382 1.695 3.125 2.901.26-3.174.412-6.421.412-9.759l4.17-30.372c1.111-8.095.268-16.365-2.66-24.005z" fill="#ffc7ab"/><path d="m181.982 104.59c.341 4.636-.801 9.274-3.307 13.206-1.444 2.266-2.6 4.664-3.523 7.038-2.997 7.701-3.871 16.052-2.749 24.229l4.171 30.379c0 3.338.152 6.584.412 9.759.743-1.206 1.792-2.229 3.125-2.901 12.759-6.439 36.482-17.615 62.873-26.096.29-1.323.709-2.227.709-2.227-5.002-2.256-3.102-7.617-3.102-7.617l.262-.98c-4.562-8.053.834-17.477.834-17.477l-.783-6.794c.001-14.708 15.096-18.009 15.096-18.009-8.038-8.038 0-14.162 0-14.162-7.807-7.807 0-13.858 0-13.858-2.96-2.281-3.911-4.641-3.879-6.766h-66.586c-4.206 10.785-4.16 24.006-3.553 32.276z" fill="#ffaa7b"/><path d="m284.536 144.425c0-1.486.278-2.9.774-4.185-1.932.948-3.491 2.022-4.602 2.928-2.591 2.113-7.096 4.794-9.563 6.21-.466.268-.276.98.262.98h.243c2.289 0 4.565.357 6.74 1.073 3.771 1.242 7.379 1.86 10.715 2.063-2.74-1.879-4.569-5.236-4.569-9.069z" fill="#edeef2"/><path d="m315.219 146.75c-4.505-4.227-8.836-6.665-12.841-7.9.901 1.622 1.422 3.531 1.422 5.575 0 3.341-1.39 6.32-3.561 8.275 3.278-.678 5.838-1.62 7.423-2.342 3.251-1.48 5.71-2.082 7.172-2.327.608-.101.835-.859.385-1.281z" fill="#edeef2"/><path d="m284.706 140.547c-.549 1.255-.856 2.64-.856 4.097 0 3.772 2.042 7.064 5.08 8.839 4.381.286 8.3-.145 11.51-.825 2.359-1.874 3.874-4.766 3.874-8.014 0-2.127-.65-4.103-1.761-5.74-7.338-2.32-13.595-.588-17.847 1.643z" fill="#6c5475"/><path d="m297.898 145.287c0 2.166-1.756 3.922-3.922 3.922s-3.922-1.756-3.922-3.922 1.756-3.922 3.922-3.922c2.167 0 3.922 1.756 3.922 3.922z" fill="#543e5b"/><path d="m323.886 132.225c-.586-3.853-2.92-12.807-12.031-14.877-9.199-2.091-28.596 1.85-36.449 3.625-2.092.473-3.75 2.064-4.311 4.134l-1.618 5.966c-.137.507.329.969.835.828 5.954-1.67 33.369-9.084 41.721-6.405 6.369 2.043 9.64 5.227 11.085 7.064.274.349.835.104.768-.335z" fill="#6c5475"/><path d="m227.463 144.425c0-1.486-.278-2.9-.774-4.185 1.932.948 3.491 2.022 4.602 2.928 2.591 2.113 7.096 4.794 9.563 6.21.467.268.276.98-.262.98h-.243c-2.289 0-4.566.357-6.74 1.073-3.771 1.242-7.378 1.86-10.715 2.063 2.741-1.879 4.569-5.236 4.569-9.069z" fill="#edeef2"/><path d="m196.781 146.75c4.505-4.227 8.836-6.665 12.841-7.9-.901 1.622-1.421 3.531-1.421 5.575 0 3.341 1.389 6.32 3.561 8.275-3.278-.678-5.838-1.62-7.423-2.342-3.251-1.48-5.71-2.082-7.172-2.327-.608-.101-.836-.859-.386-1.281z" fill="#edeef2"/><path d="m227.294 140.547c.549 1.255.856 2.64.856 4.097 0 3.772-2.042 7.064-5.08 8.839-4.381.286-8.299-.145-11.51-.825-2.359-1.874-3.874-4.766-3.874-8.014 0-2.127.65-4.103 1.761-5.74 7.338-2.32 13.595-.588 17.847 1.643z" fill="#6c5475"/><path d="m214.102 145.287c0 2.166 1.756 3.922 3.921 3.922s3.921-1.756 3.921-3.922-1.756-3.922-3.921-3.922-3.921 1.756-3.921 3.922z" fill="#543e5b"/><path d="m188.114 132.225c.587-3.853 2.921-12.807 12.031-14.877 9.199-2.091 28.596 1.85 36.449 3.625 2.092.473 3.75 2.064 4.311 4.134l1.618 5.966c.137.507-.329.969-.835.828-5.953-1.67-33.369-9.084-41.721-6.405-6.369 2.043-9.64 5.227-11.085 7.064-.274.349-.835.104-.768-.335z" fill="#6c5475"/><path d="m331.889 184.3c-13.15-6.636-37.945-18.304-65.305-26.868-6.886-2.156-14.283-2.156-21.169 0-1.225.383-2.443.775-3.657 1.17.029.02.054.043.084.062-.538 1.728-1.159 4.865.154 7.726.826 1.8 2.253 3.184 4.256 4.131-4.614 6.357-8.682 18.86 2.365 30.625-1.221 2.508-4.301 9.496-5.526 18.389-1.986 14.426 1.957 26.994 11.408 36.391l.002 21.025c.499.013.998.032 1.498.032 13.599 0 26.804-4.605 37.504-13.084 16.957-13.436 36.375-37.183 42.581-71.063.636-3.469-1.048-6.948-4.195-8.536z" fill="#ad5c38"/><path d="m256 276.981v-21.686c-23.046-22.251-5.561-54.425-5.561-54.425-15.6-15.6-1.716-31.029-1.716-31.029-9.279-2.633-5.055-11.809-5.03-11.863-26.673 8.508-50.709 19.825-63.582 26.321-3.147 1.588-4.831 5.067-4.195 8.535 6.206 33.88 25.624 57.627 42.581 71.063 10.699 8.479 23.904 13.084 37.503 13.084z" fill="#9b4d2f"/><path d="m301.326 184.823-38.048-14.982c-4.677-1.842-9.877-1.842-14.554 0l-2.755 1.085c-4.49 6.472-8.17 18.698 2.649 30.22-1.221 2.508-4.301 9.496-5.526 18.389-1.986 14.426 1.957 26.994 11.408 36.391l.002 26.39h1.498 7.66c5.493 0 10.856-1.662 15.386-4.769l25.556-17.524c5.961-4.087 9.524-10.851 9.524-18.079v-38.325c-.001-8.3-5.078-15.755-12.8-18.796z" fill="#d3dcfb"/><path d="m250.44 200.87c-15.6-15.6-1.716-31.029-1.716-31.029l-38.049 14.982c-7.723 3.041-12.8 10.496-12.8 18.796v38.325c0 7.228 3.563 13.991 9.524 18.079l25.555 17.523c4.53 3.106 9.894 4.769 15.387 4.769h7.659v-27.019c-23.046-22.252-5.56-54.426-5.56-54.426z" fill="#bec8f7"/><path d="m284.149 209.764-22.589-8.895c-3.573-1.407-7.548-1.407-11.121 0l-2.082.82c-1.352 2.878-4.121 9.527-5.266 17.845-1.986 14.426 1.957 26.994 11.408 36.391l.003 30.89h1.498 5.853c4.197 0 8.296-1.27 11.757-3.644l12.34-8.461c2.671-1.831 4.267-4.862 4.267-8.1v-47.935c0-3.935-2.407-7.469-6.068-8.911z" fill="#deeeff"/><path d="m250.44 200.87-22.589 8.895c-3.661 1.442-6.068 4.976-6.068 8.91v47.934c0 3.238 1.596 6.268 4.267 8.1l12.34 8.462c3.462 2.374 7.56 3.644 11.758 3.644h5.852v-31.519c-23.046-22.252-5.56-54.426-5.56-54.426z" fill="#d3dcfb"/><path d="m256 274.924c5.297 0 9.822-3.42 11.508-8.157-.021-6.313-5.19-11.472-11.508-11.472s-11.487 5.159-11.508 11.472c1.686 4.737 6.211 8.157 11.508 8.157z" fill="#73c3f9"/><path d="m256 274.331c-5.65 0-10.372-4.13-11.324-9.518-.115.648-.186 1.311-.186 1.991v13.644c0 6.33 5.179 11.51 11.51 11.51 6.33 0 11.51-5.179 11.51-11.51v-13.644c0-.68-.071-1.343-.186-1.991-.951 5.388-5.673 9.518-11.324 9.518z" fill="#49b1f7"/><path d="m184.037 193.74c1.176-.302 2.36-.484 3.545-.553 3.975-.233 7.797 1.783 9.945 5.136 3.648 5.695 6.776 12.897 8.853 20.989.193.754.364 1.503.535 2.252-.917 1.504-2.628 3.617-5.516 4.866-3.831 1.657-8.499 1.302-13.876-1.061-1.839-.808-3.455-.759-4.938.146-3.747 2.283-6.21 9.438-7.726 16.525-2.746-3.664-4.908-8.089-6.182-13.051-4.163-16.221 2.714-32.003 15.36-35.249z" fill="#bec8f7"/><path d="m208.755 241.571c-.262 4.369-2.896 8.256-6.917 9.984-.874.376-1.783.687-2.723.928-9.347 2.399-19.226-2.727-25.428-12.112 2.241-9.755 6.515-19.854 14.439-16.374 14.364 6.308 18.253-4.685 18.253-4.685 2.037 7.933 2.776 15.603 2.376 22.259z" fill="#a8b7ef"/><ellipse cx="178.402" cy="226.493" fill="#d3dcfb" rx="10.04" ry="23.64" transform="matrix(.969 -.249 .249 .969 -50.707 51.463)"/><path d="m327.963 193.74c-1.176-.302-2.36-.484-3.545-.553-3.975-.233-7.797 1.783-9.945 5.136-3.648 5.695-6.776 12.897-8.853 20.989-.193.754-.364 1.503-.535 2.252.917 1.504 2.628 3.617 5.516 4.866 3.831 1.657 8.499 1.302 13.876-1.061 1.839-.808 3.455-.759 4.938.146 3.746 2.283 6.209 9.438 7.726 16.525 2.746-3.664 4.908-8.089 6.182-13.051 4.163-16.221-2.714-32.003-15.36-35.249z" fill="#bec8f7"/><path d="m303.245 241.571c.262 4.369 2.896 8.256 6.917 9.984.874.376 1.783.687 2.723.928 9.347 2.399 19.226-2.727 25.427-12.112-2.241-9.755-6.515-19.854-14.439-16.374-14.364 6.308-18.253-4.685-18.253-4.685-2.036 7.933-2.775 15.603-2.375 22.259z" fill="#a8b7ef"/><ellipse cx="333.598" cy="226.493" fill="#d3dcfb" rx="23.64" ry="10.04" transform="matrix(.249 -.969 .969 .249 31.28 493.31)"/><path d="m328.181 86.648c-4.474 0-8.135-3.66-8.135-8.135v-9.516h-157.51c-3.61 0-6.536 2.926-6.536 6.536v20.953c0 3.61 2.926 6.536 6.536 6.536h186.928c3.61 0 6.536-2.926 6.536-6.536v-9.838z" fill="#9b4d2f"/><path d="m297.897 64.919h-44.012c-1.335 1.494-3.347 4.316-3.266 7.695.057 2.385 1.12 4.578 3.163 6.539-1.113 1.258-2.559 3.4-2.734 6.17-.163 2.583.794 5.114 2.847 7.544-1.154 1.245-2.75 3.469-2.947 6.392-.163 2.42.647 4.804 2.412 7.11-.52.196-1.112.441-1.743.731h46.281c4.475 0 8.103-3.628 8.103-8.103v-25.976c-.001-4.475-3.629-8.102-8.104-8.102z" fill="#deeeff"/><path d="m256 64.919h-41.897c-4.475 0-8.103 3.628-8.103 8.103v25.976c0 4.475 3.628 8.103 8.103 8.103h41.897c-8.038-8.038 0-14.162 0-14.162-7.807-7.807 0-13.858 0-13.858-8.737-6.735 0-14.162 0-14.162z" fill="#d3dcfb"/><path d="m284.476 79.08h-30.763c.024.024.045.049.07.072-1.113 1.258-2.559 3.4-2.734 6.17-.163 2.583.794 5.114 2.847 7.544-.02.022-.043.05-.063.072h30.645c3.827 0 6.929-3.102 6.929-6.929-.002-3.826-3.104-6.929-6.931-6.929z" fill="#d3dcfb"/><path d="m256 79.08h-28.476c-3.827 0-6.929 3.102-6.929 6.929s3.102 6.929 6.929 6.929h28.476c-7.807-7.806 0-13.858 0-13.858z" fill="#bec8f7"/><path d="m427.797 307.981c-3.625 1.288-13.031 5.419-18.122 14.988-3.964 7.449-4.362 16.428-1.189 26.71-1.55.282-3.809.886-5.906 2.157 10.349 6.9 18.956 15.318 23.379 25.497 7.249 16.685 12.68 34.013 16.55 48.521 13.879-16.28 25.665-34.395 34.94-53.937-5.778-17.922-14.152-35.087-26.302-47.429-6.39-6.492-14.48-11.939-23.35-16.507z" fill="#d3dcfb"/><path d="m429.655 308.956c-36.44-19.535-87.56-23.601-87.56-23.601l-3.67 9.978c-5.505 14.964 2.695 31.545 17.973 36.104 14.984 4.471 33.141 11.365 47.572 21.335 3.136-1.67 6.503-1.839 6.503-1.839-11.55-33.697 19.15-41.968 19.182-41.977z" fill="#bec8f7"/><path d="m408.407 349.405c.028.092.051.182.079.274-2.471.45-6.744 1.712-9.288 5.201-1.835 2.517-2.42 5.679-1.755 9.415 8.487 6.114 14.409 12.741 17.42 19.669 8.134 18.723 13.909 38.367 17.593 52.986 5.147-5.343 10.049-10.922 14.698-16.713-3.754-13.266-8.807-28.694-15.306-43.652-4.69-10.797-13.175-19.764-23.441-27.18z" fill="#deeeff"/><path d="m410.473 350.933c-15.838-12.064-36.482-20.191-54.031-25.427-4.874-1.455-8.82-4.773-11.108-9.344-2.314-4.622-2.606-9.839-.821-14.69l3.67-9.977c1.766-4.8-.694-10.122-5.493-11.888-4.8-1.76-10.121.694-11.888 5.493l-3.67 9.977c-3.516 9.56-2.918 20.267 1.642 29.375 4.602 9.191 12.548 15.868 22.373 18.799 20.491 6.115 36.832 13.776 48.133 22.405-3.748-13.989 11.192-14.723 11.193-14.723z" fill="#d3dcfb"/><path d="m173.575 295.333-3.67-9.978s-54.233 4.312-90.799 25.399c-.94 4.423-3.094 18.289 4.049 28.426 4.23 6.002 10.938 9.567 19.958 10.611-.249 1.58-.431 4.026.157 6.501 15.028-11.891 35.645-19.877 52.332-24.857 15.278-4.557 23.477-21.138 17.973-36.102z" fill="#d3dcfb"/><path d="m60.853 324.487c-12.15 12.342-20.524 29.507-26.302 47.429 9.275 19.542 21.061 37.657 34.94 53.937 3.87-14.508 9.301-31.835 16.55-48.521 3.714-8.547 10.38-15.851 18.547-22.061-.62-3.494.333-6.811.333-6.811-33.787-2.665-24.044-38.695-24.039-38.713-7.566 4.19-14.445 9.068-20.029 14.74z" fill="#bec8f7"/><path d="m184.868 295.077-3.67-9.977c-1.768-4.799-7.089-7.254-11.888-5.493-4.799 1.766-7.259 7.088-5.493 11.888l3.67 9.977c1.785 4.851 1.493 10.068-.821 14.69-2.288 4.571-6.234 7.889-11.108 9.344-16.985 5.068-36.865 12.848-52.486 24.28.014.002.027.004.041.005-.389 2.47-.625 7.058 2.011 10.562 1.904 2.531 4.897 3.979 8.901 4.331 11.24-8.232 27.111-15.549 46.828-21.432 9.825-2.931 17.771-9.608 22.373-18.799 4.56-9.109 5.159-19.815 1.642-29.376z" fill="#deeeff"/><path d="m116.008 363.275c-15.354 0-11.087-14.814-11.087-14.814-10.861 7.595-19.878 16.865-24.769 28.123-6.499 14.958-11.552 30.386-15.306 43.652 4.649 5.792 9.551 11.371 14.698 16.713 3.685-14.619 9.459-34.263 17.593-52.986 3.179-7.315 9.607-14.294 18.871-20.688z" fill="#d3dcfb"/><g fill="#a98bbc"><ellipse cx="77.147" cy="179.112" rx="7.346" ry="7.346" transform="matrix(.23 -.973 .973 .23 -114.898 213.044)"/><ellipse cx="109.631" cy="237.309" rx="7.346" ry="7.346" transform="matrix(.707 -.707 .707 .707 -135.692 147.027)"/><ellipse cx="98.803" cy="217.91" rx="7.346" ry="7.346" transform="matrix(.235 -.972 .972 .235 -136.216 262.775)"/><ellipse cx="87.975" cy="198.511" rx="7.346" ry="7.346" transform="matrix(.707 -.707 .707 .707 -114.601 120.35)"/></g><path d="m17.984 325.246c21.612-10.651 50.014-30.759 46.577-61.917-3.937-35.694-17.691-65.976-40.86-74.389-8.235 24.518-12.703 50.765-12.703 78.057 0 20.075 2.432 39.578 6.986 58.249z" fill="#70f2a4"/><path d="m394.702 65.022c-.787.596-1.535 1.22-2.245 1.869-8.358 7.641-11.187 19.597-7.753 30.388 8.16 25.644 14.82 57.284-2.379 100.092-27.067 67.369 63.15 95.191 116.224 104.29 1.604-11.326 2.452-22.895 2.452-34.664.001-83.82-42.098-157.802-106.299-201.975z" fill="#70f2a4"/><path d="m332.813 377.513-7.148-6.682c-5.181-2.078-11.286-1.125-15.593 2.901-4.956 4.633-5.961 11.814-3.058 17.507l6.087 5.69c2.062 1.927 5.264 1.927 7.326 0l12.386-11.579c2.268-2.12 2.268-5.717 0-7.837z" fill="#deeeff"/><path d="m310.663 374.383c4.576-4.278 11.259-4.975 16.536-2.118l-17.41-16.276c-2.062-1.927-5.264-1.927-7.326 0l-12.386 11.579c-2.268 2.12-2.268 5.717 0 7.837l18.375 17.178c-3.685-5.66-2.958-13.368 2.211-18.2z" fill="#d3dcfb"/><path d="m421.053 448.019c-2.79-15.297-7.696-26.618-12.385-34.552-3.356-5.679-12.056-3.302-12.056 3.294v50.87c8.568-6.017 16.727-12.573 24.441-19.612z" fill="#9b4d2f"/><path d="m349.464 68.997h-31.395c-.008.151-.023.299-.023.452v11.064c0 4.474 3.661 8.135 8.135 8.135h29.819v-13.115c0-3.61-2.926-6.536-6.536-6.536z" fill="#ad5c38"/></g></svg>