<svg id="Layer_1" enable-background="new 0 0 512.004 512.004" height="512" viewBox="0 0 512.004 512.004" width="512" xmlns="http://www.w3.org/2000/svg"><g><path d="m34.798 372.445 77.081 92.684c15.496 11.292 32.364 20.811 50.312 28.257h187.622c17.948-7.446 34.816-16.965 50.313-28.257l77.081-92.683c15.251-31.938 23.798-67.691 23.798-105.443 0-135.311-109.691-245.002-245.002-245.002-135.312 0-245.003 109.69-245.003 245.001 0 37.752 8.547 73.506 23.798 105.443z" fill="#50dd89"/><path d="m74.053 392.967c2.744 3.994 12.066 19.993-.684 37.309-15.439-17.254-28.48-36.7-38.571-57.83 2.809-10.547 8.963-19.726 17.25-26.345l1.214 3.323c2.511 6.874 3.784 14.07 3.784 21.389 0 10.57 7.649 19.37 17.699 21.199z" fill="#3c58a0"/><path d="m72.338 429.129c13.838-19.094-.139-36.161-.139-36.161l.954-1.317c1.747.458 3.57.727 5.458.727h12.877c16.161 0 20.58-15.186 20.711-15.355.473.195 8.658 6.307 21.484 8.612-.044 10.353-3.207 19.968-8.611 27.947-8.571 12.655-12.842 27.665-12.789 42.95 0 .1.001.199.001.299 0 2.823-.139 5.594-.405 8.299-14.46-10.537-27.718-22.62-39.541-36.001z" fill="#2a428c"/><path d="m168.246 283.65-22.438 56.817c-5.696.657-15.764.474-20.444-7.789l18.614-47.136c.96-2.431 1.453-5.021 1.453-7.634v-3.425c8.925.34 17.321 2.738 24.729 6.735-.837.601-1.516 1.427-1.914 2.432z" fill="#73c3f9"/><path d="m112.335 374.351 2.22-14.301 12.019-30.435c3.587 9.867 14.111 10.098 19.795 9.434l-6.891 17.45c-2.744 6.948 2.377 14.475 9.846 14.475l4.806 15.989c-3.528.686-7.169 1.056-10.898 1.056-11.809 0-22.774-3.606-31.86-9.775.426-1.251.754-2.55.963-3.893z" fill="#49b1f7"/><path d="m25.593 240.241 5.896-6.751c6.563-7.515 16.179-11.693 26.147-11.263 23.893 1.032 41.973 4.317 55.418 8.177.639 2.463 2.37 9.825 2.921 19.213.618 10.533-.23 25.62-7.785 37.675-6.611 10.549-17.205 17.146-31.487 19.605-.353.061-.693.144-1.041.214-.4-.237-.797-.478-1.214-.693l-47.408-24.413-6.104-16.712c-3.134-8.574-1.349-18.175 4.657-25.052z" fill="#deeeff"/><path d="m74.447 306.419-.783-.403c.91-.228 1.835-.433 2.783-.597 53.951-9.293 34.961-75.368 34.926-75.486 9.725 2.68 17.139 5.676 22.628 8.41 8.179 4.073 13.376 12.384 13.376 21.521v18.045c0 2.614-.493 5.204-1.453 7.634l-29.424 74.507-2.22 14.301c-1.744 11.238-11.42 19.528-22.793 19.528h-12.876c-2.818 0-5.518-.507-8.014-1.433l15.611-59.667c2.736-10.457-2.151-21.411-11.761-26.36z" fill="#d3dcfb"/><path d="m76.447 305.419-50.321-25.913 25.727 70.433c2.443 6.689 3.693 13.754 3.693 20.874 0 10.513 7.036 19.376 16.653 22.155l16.01-61.189c2.735-10.457-2.152-21.411-11.762-26.36z" fill="#bec8f7"/><path d="m437.951 392.967c-2.744 3.994-12.066 19.993.684 37.309 15.439-17.254 28.48-36.7 38.571-57.83-2.809-10.547-8.963-19.726-17.25-26.345l-1.214 3.323c-2.511 6.874-3.784 14.07-3.784 21.389 0 10.57-7.649 19.37-17.699 21.199z" fill="#3c58a0"/><path d="m439.666 429.129c-13.838-19.094.139-36.161.139-36.161l-.954-1.317c-1.747.458-3.57.727-5.458.727h-12.877c-16.161 0-20.58-15.186-20.711-15.355-.473.195-8.658 6.307-21.484 8.612.044 10.353 3.207 19.968 8.611 27.947 8.571 12.655 12.842 27.665 12.789 42.95v.299c0 2.823.139 5.594.405 8.299 14.459-10.537 27.717-22.62 39.54-36.001z" fill="#2a428c"/><path d="m337.332 480.56-21.928-36.874c-8.363 9.461-20.542 15.104-33.377 15.104h-37.204c.679.868 1.428 1.732 2.26 2.59.096 2.386.316 12.205-1.907 23.136-1.717 8.441-5.205 18.853-12.254 26.4 7.599.711 15.295 1.089 23.08 1.089 33.233 0 64.914-6.63 93.811-18.618-5.027-3.19-9.336-7.539-12.481-12.827z" fill="#deeeff"/><path d="m196.6 443.686-21.928 36.874c-3.145 5.289-7.454 9.637-12.481 12.827 22.694 9.415 47.11 15.507 72.641 17.696 15.775-17.944 13.722-50.346 13.722-50.346-.657-.657-1.237-1.304-1.784-1.947h-16.795c-12.834 0-25.012-5.643-33.375-15.104z" fill="#d3dcfb"/><path d="m306.665 407.599-10.235 17.211c-3.005 5.052-8.524 8.191-14.403 8.191h-36.084c.203.305.401.609.61.916-1.934 1.815-5.77 6.138-6.183 12.162-.341 4.969 1.718 9.893 6.111 14.658h35.546c15.61 0 30.263-8.335 38.241-21.75l9.707-16.323z" fill="#73c3f9"/><path d="m215.574 424.81-10.235-17.211-23.31 15.063 9.707 16.323c7.978 13.416 22.631 21.751 38.24 21.751h18.578c-15.118-15.118 0-26.569 0-26.569-.276-.391-.536-.778-.8-1.167h-17.778c-5.879.001-11.397-3.138-14.402-8.19z" fill="#49b1f7"/><path d="m301.196 285.55c-1.19-2.598-1.833-9.193-2.112-11.83-.14.14-.278.281-.43.408-13.459 11.228-28.96 16.589-44.355 16.216l-.011 1.97-.001.236.07.224c.022.069 2.11 6.849.169 12.389-.533.436-1.599 1.354-2.935 2.729 20.177 1.1 41.283-5.345 50.557-19.355-.196-1.015-.509-2.017-.952-2.987z" fill="#3c58a0"/><path d="m255.788 292.324.011-1.949c-14.81.001-29.585-5.315-42.414-15.86-.178-.147-.344-.306-.505-.47-.296 2.533-.93 9.014-2.072 11.506-.443.969-.756 1.972-.953 2.987 8.228 12.427 25.784 18.907 43.74 19.44 1.324-1.255 2.193-1.901 2.193-1.901 2.398-6.186 0-13.753 0-13.753z" fill="#2a428c"/><path d="m456.89 256.17h.957v.957h-.957z" fill="#3c58a0"/><path d="m219.773 260.812c.345-.348.706-.663 1.075-.962-23.108-11.899-41.529-27.609-53.695-39.685v6.272c0 5.941 2.346 11.642 6.551 15.838 10.621 10.597 24.125 22.246 39.979 32.162-2.964-7.452 4.41-11.174 6.09-13.625z" fill="#bec8f7"/><path d="m291.359 259.744c1.166.919 5.432 5.32 5.527 5.42 2.307 2.356 2.645 6.408 1.236 9.4 15.942-9.943 29.512-21.647 40.178-32.29 4.205-4.196 6.551-9.897 6.551-15.838v-6.272c-12.13 12.041-30.48 27.693-53.492 39.58z" fill="#bec8f7"/><path d="m354.558 131.879c-.737.741-1.542 1.428-2.419 2.049-.215.152-.383.361-.487.604-.517 1.218-12.341 29.661-1.653 54.788 11.066-.171 20.068-9.27 20.068-20.375v-17.279c0-9.533-6.632-17.588-15.509-19.787z" fill="#73c3f9"/><path d="m160.352 134.531c-.104-.242-.272-.451-.487-.604-.876-.62-1.682-1.308-2.419-2.049-8.877 2.2-15.509 10.254-15.509 19.786v17.279c0 11.105 9.001 20.203 20.067 20.375 10.689-25.126-1.135-53.569-1.652-54.787z" fill="#49b1f7"/><path d="m262.041 41.411c-3.462 2.46-11.791 8.902-19.188 18.718-12.245 16.25-15.97 34.106-10.815 51.731-.659.289-1.525.71-2.502 1.265 7.156 4.853 15.854 9.111 26.465 12.234 44.087-12.977 55.434-45.43 58.316-59.566.301-1.476.82-2.881 1.51-4.19-12.946-11.385-32.111-18.988-53.786-20.192z" fill="#bec8f7"/><path d="m256.002 41.223c-24.143 0-45.687 7.947-59.827 20.379.69 1.308 1.21 2.713 1.511 4.19 2.234 10.955 9.564 32.907 33.264 48.273 1.732-.924 2.927-1.325 2.927-1.325-13.636-42.845 30.327-71.004 30.602-71.179-2.784-.218-5.611-.338-8.477-.338z" fill="#a8b7ef"/><path d="m351.83 189.992c-11.519-25.149 1.129-54.905 1.129-54.905l-2.983.218-79.682 56.381c-2.472 1.749-5.425 2.688-8.452 2.688-.141 0-11.922 0-11.68 0-3.028 0-5.981-.939-8.453-2.688l-30.954-21.902c.544 1.637 1.258 3.318 2.145 5.04 8.246 16.022 12.442 23.804 13.592 25.915-1.837 5.202-11.54 37.992 28.005 55.5l-.095 16.483c6.694.212 13.419-.895 19.778-3.342 32.52-12.519 57.861-34.278 72.648-49.302 7.845-7.974 9.661-19.916 5.002-30.086z" fill="#3c58a0"/><path d="m256.002 255.257c-43.082-18.463-27.866-54.638-27.866-54.638s-3.996-7.233-13.902-26.483c-.498-.968-.915-1.897-1.289-2.805l-50.917-36.027-2.983-.218s12.648 29.756 1.129 54.905c-4.659 10.17-2.843 22.112 5.003 30.084 14.787 15.024 40.128 36.784 72.648 49.302 5.82 2.24 11.947 3.364 18.076 3.376z" fill="#2a428c"/><path d="m241.71 191.685-56.568-40.026v16.549c0 9.857 6.126 18.676 15.362 22.117l27.632 10.294c3.212 1.196 6.826.409 9.249-2.014l5.939-5.939c-.555-.293-1.098-.615-1.614-.981z" fill="#ff4155"/><path d="m294.627 174.468c-1.262 5.331-1.061 13.345 8.506 18.974l8.367-3.117c9.237-3.441 15.362-12.26 15.362-22.117v-16.548z" fill="#ff7186"/><path d="m270.295 191.685c-.517.366-1.059.688-1.615.981l5.939 5.939c2.423 2.423 6.038 3.21 9.249 2.014l20.929-7.797c-10.008-5.525-10.447-13.555-9.251-19.005z" fill="#ff4155"/><path d="m250.162 196.266h3.292c-4.409-11.432-15.168-34.387-36.918-56.818.305 2.416.874 4.929 1.718 7.536-2.01 1.222-5.998 4.211-7.838 9.521-1.629 4.702-1.18 10.03 1.329 15.87l29.965 21.203c2.471 1.749 5.424 2.688 8.452 2.688z" fill="#bec8f7"/><path d="m159.045 135.086 55.188 39.05c-9.907-19.25 5.843-26.443 5.843-26.443-.789-2.243-1.335-4.341-1.707-6.327-14.573-15.486-34.309-30.886-60.746-42.246l-5.213 11.523c-3.929 8.686-1.146 18.938 6.635 24.443z" fill="#a8b7ef"/><path d="m359.594 110.644-5.213-11.523c-63.672 27.358-88.506 78.155-95.831 97.145h3.292c3.028 0 5.981-.939 8.453-2.688l82.664-58.491c7.782-5.506 10.564-15.758 6.635-24.443z" fill="#d3dcfb"/><path d="m365.521 2.338c-1.321-3.39-6.238-3-6.995.56-2.91 13.685-11.796 35.324-38.635 51.343-3.634 2.169-6.149 5.8-6.994 9.947-2.812 13.792-13.882 45.454-56.894 58.114l-1.896 22.176c-.735 8.592-.77 17.23-.107 25.829l2.003 25.959h2.98c7.862-17.498 33.024-62.476 95.399-97.145 3.196-1.776 5.861-4.393 7.641-7.587 6.816-12.232 20.648-45.174 3.498-89.196z" fill="#deeeff"/><path d="m299.258 263.587c-.021-.021-.042-.043-.063-.063l-4.502-4.541c-2.391-2.412-5.362-3.726-8.425-3.726h-31.354c-3.316 4.682-12.357 20.265-.228 37.041.367.007.734.026 1.102.026 14.777 0 29.721-5.283 42.866-16.25 3.434-2.865 3.803-9.22.604-12.487z" fill="#deeeff"/><path d="m256.002 255.258h-29.906c-3.063 0-6.035 1.314-8.426 3.726-4.594 4.652-4.626 4.625-5.236 5.339-2.898 3.39-2.361 9.416.951 12.139 12.546 10.313 27.28 15.863 42.403 15.863-15.22-19.164.206-37.058.214-37.067z" fill="#d3dcfb"/><path d="m191.809 385.093c-5.565-9.358-15.648-15.093-26.535-15.093h-16.923c-.013 0-.025-.002-.038-.002l-.936.976 14.2 47.239c2.444 8.131 12.003 11.648 19.134 7.039l25.268-16.33z" fill="#bec8f7"/><path d="m343.758 283.65 22.438 56.817c5.696.657 15.764.474 20.444-7.789l-18.615-47.136c-.96-2.431-1.453-5.021-1.453-7.634v-3.425c-8.925.34-17.321 2.738-24.729 6.735.838.601 1.518 1.427 1.915 2.432z" fill="#73c3f9"/><path d="m399.669 374.351-2.22-14.301-12.019-30.435c-3.587 9.867-14.111 10.098-19.795 9.434l6.891 17.45c2.744 6.948-2.377 14.475-9.846 14.475l-4.806 15.989c3.528.686 7.169 1.056 10.898 1.056 11.809 0 22.774-3.606 31.86-9.775-.425-1.251-.754-2.55-.963-3.893z" fill="#49b1f7"/><path d="m320.195 385.093c5.565-9.358 15.648-15.093 26.535-15.093h16.923c.013 0 .025-.002.038-.002l.936.976-14.2 47.239c-2.444 8.131-12.003 11.648-19.134 7.039l-25.268-16.33z" fill="#d3dcfb"/><path d="m374.473 356.499-20.72-52.466h-6.05c-10.887 0-20.97 5.734-26.535 15.092l-23.484 39.49c-3.284 5.521-9.233 8.905-15.656 8.905-10.896 0-22.831 0-34.441 0 .332.558.672 1.12 1.026 1.685-5.066 4.839-26.63 28.729-2.059 64.712-.17.16-.359.346-.555.544h36.03c6.424 0 12.373-3.384 15.656-8.905l23.484-39.49c5.565-9.358 15.648-15.092 26.535-15.092h16.923c7.469 0 12.59-7.528 9.846-14.475z" fill="#deeeff"/><path d="m214.32 358.615-23.484-39.49c-5.565-9.358-15.648-15.092-26.535-15.092h-6.049l-20.72 52.466c-2.744 6.948 2.377 14.475 9.846 14.475h16.922c10.888 0 20.97 5.734 26.535 15.092l23.484 39.49c3.283 5.521 9.233 8.905 15.657 8.905h18.22c.226-.193.358-.293.358-.293-28.336-40.219 2.002-64.701 2.002-64.701-.422-.653-.828-1.302-1.22-1.946-6.623 0-13.161 0-19.361 0-6.423-.001-12.372-3.385-15.655-8.906z" fill="#d3dcfb"/><path d="m345.704 283.65c-.867-2.195-3.04-3.59-5.397-3.466l-32.499 1.722c-1.899.101-3.593 1.186-4.524 2.844-8.327 14.823-29.313 21.91-49.766 21.283-5.807 5.226-26.998 27.856-4.906 63.171-.085.081-.176.169-.271.262h33.686c6.424 0 12.373-3.384 15.656-8.905l23.484-39.49c5.565-9.358 15.648-15.092 26.535-15.092h6.818z" fill="#f0f8ff"/><path d="m255.788 306.076s.001-.001.001-.001c-19.578-.054-39.114-7.164-47.068-21.324-.931-1.658-2.625-2.744-4.524-2.844l-32.499-1.722c-2.357-.125-4.53 1.271-5.397 3.466l-8.818 22.329h6.818c10.888 0 20.97 5.734 26.535 15.092l23.484 39.49c3.283 5.521 9.233 8.905 15.657 8.905h20.58c-26-40.254 5.231-63.391 5.231-63.391z" fill="#deeeff"/><path d="m486.411 240.241-5.896-6.751c-6.563-7.515-16.179-11.693-26.147-11.263-23.893 1.032-41.973 4.317-55.418 8.177-.639 2.463-2.37 9.825-2.921 19.213-.618 10.533.23 25.62 7.785 37.675 6.611 10.549 17.205 17.146 31.487 19.605.353.061.693.144 1.041.214.4-.237.797-.478 1.214-.693l47.408-24.413 6.104-16.712c3.134-8.574 1.349-18.175-4.657-25.052z" fill="#deeeff"/><path d="m437.557 306.419.783-.403c-.91-.228-1.835-.433-2.783-.597-53.951-9.293-34.961-75.368-34.926-75.486-9.725 2.68-17.139 5.676-22.628 8.41-8.179 4.073-13.376 12.384-13.376 21.521v18.045c0 2.614.493 5.204 1.453 7.634l29.424 74.507 2.22 14.301c1.744 11.238 11.42 19.528 22.793 19.528h12.878c2.818 0 5.518-.507 8.014-1.433l-15.612-59.667c-2.737-10.457 2.151-21.411 11.76-26.36z" fill="#d3dcfb"/><path d="m435.557 305.419 50.322-25.913-25.727 70.433c-2.443 6.689-3.693 13.754-3.693 20.874 0 10.513-7.036 19.376-16.653 22.155l-16.01-61.189c-2.736-10.457 2.152-21.411 11.761-26.36z" fill="#bec8f7"/><path d="m232.039 111.859c-2.881 1.266-9.579 4.888-13.268 12.412-2.926 5.966-3.277 12.987-1.06 20.902 20.26 21.376 30.732 40.899 35.312 51.093h2.98v-73.964c-9.484-2.792-17.412-6.509-24.044-10.753.029.103.05.207.08.31z" fill="#d3dcfb"/><path d="m220.074 147.694.002-.001c-9.564-27.193 13.801-34.953 13.801-34.953-.002-.007-.004-.013-.006-.02-24.958-15.029-32.513-37.498-34.764-48.533-.846-4.147-3.36-7.777-6.994-9.947-26.835-16.015-35.722-37.65-38.633-51.335-.758-3.561-5.677-3.954-6.998-.562-17.147 44.02-3.316 76.959 3.501 89.191 1.78 3.194 4.444 5.811 7.641 7.587 27.469 15.268 47.714 32.534 62.45 48.573z" fill="#bec8f7"/><g fill="#70f2a4"><path d="m402.726 70.777c-11.065 19.508-25.65 54.712-10.81 86.883 22 47.692 43.925 44.005 70.792 44.005 12.679 0 23.186 3.555 31.621 8.361-13.467-56.539-46.518-105.483-91.603-139.249z"/><path d="m17.675 210.027c8.435-4.807 18.942-8.361 31.621-8.361 26.867 0 48.792 3.686 70.792-44.005 14.841-32.172.255-67.376-10.81-86.883-45.085 33.765-78.135 82.709-91.603 139.249z"/></g></g></svg>