<svg id="Layer_1" enable-background="new 0 0 512 512" height="512" viewBox="0 0 512 512" width="512" xmlns="http://www.w3.org/2000/svg"><g><path d="m432.731 424.407c35.738-42.576 57.273-97.476 57.273-157.412 0-135.311-109.691-245.002-245.002-245.002s-245.002 109.691-245.002 245.002c0 24.042 3.479 47.268 9.933 69.221z" fill="#49b1f7"/><path d="m253.774 249.266c-5.298 6.171-10.858 11.333-16.171 15.459-10.352 8.039-23.126 12.405-36.282 12.405-1.383 0-2.76-.059-4.133-.155.739 1.355 1.603 2.73 2.629 4.121-.061 4.328-1.073 36.514-17.368 53.705-1.138-.47-3.151-1.153-5.775-1.487 4.9 4.388 10.506 8.933 16.938 13.601 1.923 1.396 2.894 3.598 2.791 5.781h9.836c-.103-2.182.867-4.384 2.791-5.781 40.061-29.073 48.396-53.457 50.064-63.775l1.405-.577c-4.86-10.258-6.382-23.343-6.725-33.297z" fill="#ffaa7b"/><path d="m201.321 280.602c-.9-1.188-1.673-2.362-2.352-3.521-12.321-.488-24.196-4.797-33.929-12.356-5.313-4.126-10.874-9.288-16.172-15.459-.349 10.141-1.922 23.534-7.005 33.873h1.685c1.438 8.901 7.857 28.275 35.314 52.095 2.466.583 3.925 1.369 3.925 1.369 18.798-18.796 18.534-56.001 18.534-56.001z" fill="#fc9460"/><path d="m259.363 364.511c-4.704 6.866-9.209 12.728-12.178 16.456-3.045 3.824-8.62 4.676-12.694 1.938-11.221-7.541-20.815-18.565-26.889-26.485-1.297-1.69-1.65-3.802-1.153-5.723h-10.255c.497 1.919.144 4.031-1.154 5.723-6.073 7.92-15.668 18.944-26.889 26.485-4.074 2.737-9.651 1.887-12.694-1.938-2.969-3.728-7.474-9.59-12.178-16.456l-1.547-.336 14.677 131.301c4.412 1.712 8.891 3.286 13.423 4.745l64.589 11.531c3.306.141 6.627.229 9.966.237l16.561-148.152z" fill="#49b1f7"/><path d="m189.53 393.029c-.346-.024-.673-.132-.97-.298-2.508 10.121-11.934 58.484-18.796 107.478 20.512 6.613 42.203 10.594 64.68 11.547-6.903-52.702-17.657-108.108-20.361-119.025-.297.166-.624.274-.97.297-3.895.267-7.843 2.135-11.792 2.135-3.948.001-7.896-1.867-11.791-2.134z" fill="#4b6bb2"/><path d="m222.456 497.753c-12.205-2.123-21.115-12.717-21.115-25.105v-41.305c0-13.369 9.876-16.897 17.098-17.693-1.971-10.189-3.534-17.606-4.355-20.919-.297.166-.624.274-.97.297-3.895.267-7.843 2.135-11.792 2.135-3.948 0-7.896-1.868-11.791-2.135-.346-.024-.673-.132-.97-.298-2.508 10.121-11.934 58.484-18.796 107.478 20.512 6.613 42.203 10.594 64.68 11.547-.532-4.06-1.086-8.136-1.658-12.206z" fill="#3c58a0"/><path d="m207.602 356.419c-1.297-1.69-1.65-3.802-1.153-5.723h-10.255c.497 1.919.144 4.031-1.154 5.723-4.449 5.802-10.794 13.267-18.278 19.812 4.012 6.429 7.635 13.946 11.102 17.939.426.49 1.018.815 1.666.859 3.895.267 7.843 2.135 11.791 2.135 3.949 0 7.897-1.868 11.792-2.135.648-.044 1.24-.369 1.666-.859 3.467-3.993 7.09-11.509 11.102-17.939-7.484-6.545-13.829-14.01-18.279-19.812z" fill="#4b6bb2"/><path d="m257.976 278.01s2.262 29.889-49.827 67.691c-3.738 2.713-4.548 7.966-1.737 11.631 5.637 7.35 15.568 18.971 27.242 26.817 4.748 3.191 11.143 2.227 14.705-2.248 3.39-4.259 7.872-10.144 12.453-16.852l6.626-59.277c.571-5.105-.01-10.273-1.751-15.049-2.846-3.272-5.033-7.301-6.711-11.686-.635-.67-1-1.027-1-1.027z" fill="#73c3f9"/><path d="m194.493 345.701c-5.576-4.047-10.526-8.002-14.926-11.841-3.131-.795-7.891-1.32-13.452.378-9.068 2.771-17.039 10.401-23.705 22.689-.417-.135-.94-.292-1.539-.458l.959 8.58c4.581 6.708 9.062 12.594 12.453 16.852 3.563 4.475 9.958 5.439 14.705 2.248 11.675-7.846 21.605-19.467 27.243-26.817 2.811-3.665 2-8.918-1.738-11.631z" fill="#73c3f9"/><path d="m182.786 336.604c-40.021-33.39-38.12-58.594-38.12-58.594s-.365.357-1.001 1.026c-1.678 4.385-3.865 8.413-6.71 11.686-1.741 4.776-2.322 9.945-1.751 15.05l5.848 52.311c1.331.389 2.077.687 2.077.687 17.791-33.971 39.649-22.17 39.657-22.166z" fill="#49b1f7"/><path d="m199.339.005c-4.694 5.622-25.346 33.403-.002 59.883-.34.45-.772 1.034-1.276 1.736 5.038.443 10.147-.138 14.999-1.751 11.725-3.899 30.11-7.804 45.098-1.06 17.641 7.938 16.164 32.221 15.19 45.659-.339 4.672.772 9.358 3.297 13.32 1.491 2.339 2.674 4.819 3.613 7.268 1.167 3.045 1.997 8.19 2.51 11.384 2.708-1.312 8.578-2.741 11.889-2.273.405-14.048 1.702-31.193 1.702-31.193 14.21-69.596-43.727-103.308-97.02-102.973z" fill="#6c5475"/><path d="m183.779 1.091c-52.68 7.178-57.687 37.046-57.71 48.004-.005 2.298-1.278 4.428-3.344 5.433-27.402 13.33-12.628 79.577-12.628 79.577 2.752.184 7.632 1.298 9.78 2.339.526-3.274 1.385-8.497 2.598-11.612.924-2.374 2.079-4.772 3.523-7.038 2.506-3.931 3.647-8.569 3.307-13.206-.985-13.403-2.511-37.813 15.182-45.774 14.988-6.744 33.373-2.839 45.098 1.06 3.332 1.108 6.786 1.731 10.255 1.869.919-1.26 1.483-1.971 1.483-1.971-29.065-29.065-.025-59.736-.001-59.762-5.929-.056-11.812.3-17.543 1.081z" fill="#543e5b"/><path d="m282.258 125.06c-.939-2.449-2.122-4.929-3.613-7.268-2.525-3.962-3.636-8.648-3.297-13.32.974-13.438.451-39.721-17.19-47.659-14.987-6.744-33.372-2.839-45.096 1.059-4.498 1.496-9.218 2.101-13.898 1.829.059.062.114.125.173.187-3.631 4.813-17.837 24.829-17.837 43.356 0 14.983.798 20.691 1.312 22.812-1.113 1.263-3.209 4.12-3.291 7.812-.059 2.661.922 5.2 2.917 7.565-1.253 1.447-3.159 4.216-3.289 7.771-.107 2.945 1.009 5.784 3.321 8.454-1.144 1.43-2.856 4.123-2.91 7.485-.044 2.73.995 5.32 3.092 7.714-1.788 3.522-2.994 9.724 2.574 13.726l5.161 12.903c-1.664 2.451-6.139 10.562-.42 20.185l8.142 11.679c-1.176 2.047-2.077 5.444.312 8.286v8.325c-1.841 2.648-10.372 16.591 1.022 32.601.625.02 1.251.039 1.878.039 13.156 0 25.93-4.366 36.281-12.404 19.831-15.4 43.145-45.085 43.145-88.759l4.17-30.372c1.112-8.096.269-16.366-2.659-24.006z" fill="#ffc7ab"/><path d="m199.922 248.447v-9.392c-3.385-3.385 0-7.727 0-7.727l-8.665-12.423c-6.368-10.717.831-19.206.831-19.206l-5.637-14.094c-7.174-4.75-1.951-12.968-1.951-12.968-7.742-7.742 0-15 0-15-8.68-8.68 0-16.178 0-16.178-7.831-7.831 0-15 0-15s-1.5-2.713-1.5-23.216 18.321-43.472 18.321-43.472c-3.966 0-7.933-.633-11.74-1.899-11.725-3.899-30.109-7.803-45.096-1.059-17.691 7.96-18.166 34.371-17.182 47.774.34 4.637-.801 9.275-3.307 13.206-1.444 2.266-2.599 4.664-3.523 7.038-2.998 7.7-3.871 16.052-2.748 24.229l4.171 30.379c0 43.674 23.314 73.359 43.145 88.759 10.351 8.038 23.125 12.404 36.281 12.404-13.179-17.396-1.4-32.155-1.4-32.155z" fill="#ffaa7b"/><path d="m291.165 507.635c56.456-10.766 106.035-40.897 141.567-83.228-4.509-24.534-11.843-46.247-17.793-61.326-5.386-13.649-15.888-24.648-29.275-30.656l-86.24-38.7-.468 1.622c3.792 4.155 6.984 8.802 9.505 13.807 2.302 4.571 3.601 9.583 3.866 14.695l2.411 46.529c.182 3.51-1.085 6.941-3.505 9.491l-24.647 25.971c-1.699 1.791-1.45 4.665.533 6.135l21.042 15.606c1.33.986 1.939 2.673 1.545 4.282z" fill="#d3dcfb"/><path d="m314.326 323.851c-.265-5.112-1.563-10.124-3.866-14.695-2.854-5.666-6.566-10.877-11.037-15.43-9.028-9.192-23.626-20.968-44.017-28.051 0 0 .553 11.033 5.807 19.803 3.641 6.078 5.013 13.251 4.226 20.293l-23.049 206.193c.871.009 1.739.033 2.612.033 16.521 0 32.657-1.646 48.261-4.764l18.442-75.368c.393-1.608-.215-3.295-1.545-4.282l-21.042-15.606c-1.983-1.471-2.233-4.344-.533-6.135l24.647-25.971c2.419-2.55 3.686-5.981 3.505-9.491z" fill="#deeeff"/><path d="m91.41 379.871c-.798-.84-1.456-1.783-1.993-2.786-.301.452-.601.908-.897 1.379-2.91.378-13.585 2.184-24.389 9.28-6.497 4.268-13.699 10.981-18.723 21.335 15.411 21.611 34.242 40.615 55.708 56.218l-8.18-33.431c-.393-1.608.215-3.295 1.545-4.282l21.042-15.606c1.983-1.471 2.233-4.344.533-6.135z" fill="#d3dcfb"/><path d="m16.979 332.426c-2.451 1.1-4.802 2.37-7.046 3.79 7.927 26.962 20.375 51.983 36.452 74.207 12.999-27.862 43.025-30.552 43.025-30.552.29-.471.584-.93.878-1.384-1.674-2.345-2.534-5.195-2.383-8.107l2.411-46.529c.265-5.112 1.563-10.124 3.866-14.695 2.521-5.005 5.713-9.653 9.505-13.807l-.468-1.622z" fill="#bec8f7"/><path d="m142.41 356.927c-2.765-.895-9.725-2.73-18.375-1.929-10.073.933-24.358 5.774-35.515 23.465-.065.008-.154.022-.227.032.342.479.706.944 1.117 1.376l24.646 25.971c1.699 1.791 1.45 4.665-.533 6.135l-21.042 15.606c-1.33.986-1.938 2.673-1.545 4.282l7.746 31.655c18.16 13.543 38.267 24.615 59.816 32.749l-15.661-140.102c-.141.256-.286.501-.427.76z" fill="#deeeff"/><path d="m143.128 358.77-5.924-52.999c-.787-7.042.585-14.215 4.225-20.293 5.253-8.77 5.807-19.803 5.807-19.803-20.39 7.083-34.989 18.859-44.017 28.051-4.471 4.552-8.183 9.764-11.037 15.43-2.303 4.571-3.601 9.583-3.866 14.695l-2.411 46.529c-.182 3.51 1.085 6.941 3.505 9.491 21.078-34.21 53.718-21.101 53.718-21.101z" fill="#d3dcfb"/><path d="m119.08 183.262h-8.753c-7.975 0-14.499-6.524-14.499-14.499v-38.428c0-7.975 6.525-14.499 14.499-14.499h8.753c3.175 0 5.773 2.598 5.773 5.774v55.879c.001 3.175-2.597 5.773-5.773 5.773z" fill="#7255ce"/><path d="m294.329 183.262h-8.753c-3.176 0-5.774-2.598-5.774-5.773v-55.879c0-3.175 2.598-5.774 5.774-5.774h8.753c7.974 0 14.499 6.525 14.499 14.499v38.428c0 7.974-6.524 14.499-14.499 14.499z" fill="#9787f4"/><path d="m294.071 126.46h-111.596c-1.152 1.408-2.879 4.057-2.953 7.409-.059 2.661.922 5.2 2.917 7.565-1.253 1.447-3.159 4.216-3.289 7.771-.107 2.945 1.009 5.784 3.321 8.454-1.144 1.43-2.856 4.123-2.91 7.485-.043 2.647.942 5.161 2.913 7.493h111.598c12.699 0 23.089-10.39 23.089-23.089s-10.391-23.088-23.09-23.088z" fill="#deeeff"/><path d="m184.5 126.46h-73.915c-12.699 0-23.089 10.39-23.089 23.089s10.39 23.089 23.089 23.089h73.915c-7.742-7.742 0-15 0-15-8.68-8.68 0-16.178 0-16.178-7.831-7.831 0-15 0-15z" fill="#bec8f7"/><path d="m276.303 149.549c0-4.385 3.704-8.089 8.089-8.089h-101.974c-1.253 1.453-3.139 4.209-3.268 7.745-.107 2.937 1.004 5.769 3.304 8.432h101.938c-4.385.001-8.089-3.703-8.089-8.088z" fill="#73c3f9"/><path d="m184.5 141.46h-73.915c-4.385 0-8.089 3.704-8.089 8.089s3.704 8.089 8.089 8.089h73.915c-8.68-8.68 0-16.178 0-16.178z" fill="#49b1f7"/><path d="m302.16 149.549c0-4.385-3.704-8.089-8.089-8.089h-11.68c-4.385 0-8.089 3.704-8.089 8.089s3.704 8.089 8.089 8.089h11.68c4.385 0 8.089-3.704 8.089-8.089z" fill="#fc90ce"/><g fill="#fc9460"><path d="m223.197 222.477-8.734-3.444c-.982-.387-2.067-.432-3.078-.127l-10.065 3.035-10.064-3.035c-1.011-.305-2.096-.26-3.078.127l-8.734 3.444c-2.413.951-3.598 3.679-2.646 6.091.949 2.406 3.671 3.6 6.092 2.646l7.216-2.846 9.816 2.96c.951.297 1.942.276 2.8-.001l9.814-2.959 7.217 2.846c2.409.948 5.137-.227 6.091-2.646.951-2.413-.234-5.14-2.647-6.091z"/><path d="m204.618 239.055h-6.028c-2.594 0-4.696 2.102-4.696 4.696s2.102 4.696 4.696 4.696h6.028c2.594 0 4.696-2.102 4.696-4.696s-2.102-4.696-4.696-4.696z"/><path d="m227.693 189.362c-.651-.997-1.65-1.682-2.813-1.927l-8.689-1.829c-2.037-.428-3.856.364-4.744 2.069-.029.055-.061.11-.095.163-2.021 3.126-5.771 4.992-10.031 4.992-4.258 0-8.007-1.866-10.029-4.992-.033-.051-.064-.104-.093-.161-.891-1.707-2.709-2.498-4.747-2.07l-8.69 1.829c-2.404.506-3.947 2.874-3.441 5.277.504 2.401 2.871 3.946 5.279 3.442l4.843-1.019c.663-.138 1.34.066 1.814.533 4.084 4.034 9.574 6.051 15.066 6.051 5.491-.001 10.983-2.017 15.066-6.05.478-.472 1.156-.672 1.814-.534l4.844 1.02c2.402.502 4.771-1.039 5.277-3.442.243-1.165.02-2.354-.631-3.352z"/></g><path d="m493.83 12.957h-90.297l.28.279c-2.805 5.534-14.635 32.054 6.573 48.637l6.444 10.657 36.224 37.277-5.344 17.877c-1.113 2.293-15.167 32.632 8.853 52.151h37.266c9.993 0 18.17-8.176 18.17-18.17v-130.538c.001-9.993-8.175-18.17-18.169-18.17z" fill="#856ee5"/><path d="m358.035 12.957c-9.993 0-18.17 8.176-18.17 18.17v130.539c0 9.993 8.176 18.17 18.17 18.17h100.965c-26.333-19.578-9.888-51.602-9.888-51.602l5.632-18.84-36.718-37.786-6.5-10.749c-23.224-17.889-5.869-47.901-5.869-47.901h-47.622z" fill="#7255ce"/><g><path d="m398.405 171.659c-2.264-2.264-2.264-5.935 0-8.2 8.633-8.633 4.966-22.062-1.613-41.561-6.185-18.328-13.194-39.101 1.174-53.469s35.142-7.358 53.469-1.174c19.5 6.58 32.928 10.247 41.561 1.614 2.264-2.264 5.935-2.264 8.2 0 2.264 2.264 2.264 5.935 0 8.2-14.368 14.368-35.141 7.358-53.469 1.174-19.5-6.58-32.928-10.247-41.561-1.614s-4.967 22.062 1.613 41.561c6.185 18.328 13.194 39.101-1.174 53.469-2.264 2.265-5.935 2.265-8.2 0z" fill="#fb7ac0"/></g><path d="m492.996 68.869c-5.775 5.775-13.699 6.042-24.147 3.619s-7.571 3.954-1.898 11.48c12.509 2.752 24.771 2.576 34.246-6.9 2.264-2.264 2.264-5.935 0-8.2-2.266-2.264-5.937-2.264-8.201.001z" fill="#fc90ce"/><g><path d="m350.67 123.924c-2.264-2.264-2.264-5.935 0-8.2 14.368-14.368 35.142-7.358 53.469-1.174 19.5 6.58 32.928 10.247 41.561 1.614s4.967-22.062-1.613-41.561c-6.185-18.328-13.194-39.101 1.174-53.469 2.264-2.264 5.935-2.264 8.2 0 2.264 2.264 2.264 5.935 0 8.2-8.633 8.633-4.966 22.062 1.613 41.561 6.185 18.328 13.194 39.101-1.174 53.469s-35.141 7.358-53.469 1.174c-19.5-6.58-32.928-10.247-41.561-1.614-2.265 2.265-5.935 2.265-8.2 0z" fill="#73c3f9"/><path d="m404.139 114.551c-18.328-6.185-39.101-13.194-53.469 1.174-2.264 2.264-2.264 5.935 0 8.2 2.264 2.264 5.935 2.264 8.2 0 8.633-8.633 22.062-4.966 41.561 1.614-5.694-8.336 3.708-10.988 3.708-10.988z" fill="#49b1f7"/></g><path d="m486.664 70.636-34.971-34.972c-1.88-1.88-4.956-1.88-6.836 0-1.88 1.88-1.88 4.956 0 6.836l34.971 34.972c1.88 1.88 4.956 1.88 6.836 0 1.881-1.879 1.881-4.955 0-6.836z" fill="#9bd8f9"/><path d="m454.744 102.557-34.971-34.971c-1.88-1.88-4.957-1.88-6.836 0-1.88 1.88-1.88 4.956 0 6.836l34.971 34.972c1.88 1.88 4.956 1.88 6.836 0 1.88-1.88 1.88-4.957 0-6.837z" fill="#fcc8ea"/><path d="m438.93 118.371-34.972-34.971c-1.88-1.88-4.956-1.88-6.836 0-1.88 1.88-1.88 4.956 0 6.836l34.971 34.971c1.88 1.88 4.956 1.88 6.836 0 1.881-1.88 1.881-4.956.001-6.836z" fill="#9bd8f9"/><path d="m407.009 150.292-34.971-34.971c-1.88-1.88-4.957-1.88-6.837 0-1.88 1.88-1.88 4.956 0 6.836l34.971 34.972c1.88 1.88 4.956 1.88 6.837 0 1.88-1.881 1.88-4.957 0-6.837z" fill="#fcc8ea"/><path d="m98.622 259.409c23.984-38.689-45.436-64.142-32.925-116.87 4.504-18.982 2.056-31.3-2.921-39.295-39.023 43.396-62.776 100.797-62.776 163.751 0 5.978.216 11.906.638 17.776 32.719 1.738 82.361-.161 97.984-25.362z" fill="#73c3f9"/><path d="m344.13 215.67c-12.635.801-23.422 9.402-26.977 21.553-4.258 14.554 2.996 29.987 16.91 36.017 43.247 18.743 121.539 33.871 129.965 103.628 16.615-33.045 25.976-70.363 25.976-109.873 0-20.616-2.56-40.632-7.355-59.761-12.823 6.019-29.384 10.72-49.918 10.72-27.66 0-62.269-3.953-88.601-2.284z" fill="#73c3f9"/><path d="m379.63 416.429c-4.632-5.53-13.63-2.3-13.63 4.914v58.711c11.292-6.426 22.018-13.727 32.097-21.805-2.694-19.088-10.984-32.886-18.467-41.82z" fill="#bec8f7"/></g></svg>