<svg id="Layer_1" enable-background="new 0 0 512 512" height="512" viewBox="0 0 512 512" width="512" xmlns="http://www.w3.org/2000/svg"><g><path d="m64.273 419.525 398.844-21.614c23.988-37.871 37.886-82.767 37.886-130.912 0-135.311-109.691-245.002-245.002-245.002s-245.002 109.691-245.002 245.002c-.001 57.667 19.934 110.673 53.274 152.526z" fill="#f964b2"/><path d="m346.377 389.516c-19.975-9.072-20.684-40.926-17.814-67.797 2.279-21.336 16.545-33.087 26.741-38.853-.106-.38-.205-.756-.314-1.139-6.749-23.638-9.547-42.09-10.153-56.35-5.126 18.497-11.825 34.875-19.985 48.838-4.709 8.058-10.552 15.274-17.339 21.528-10.139 59.151 8.82 103.71 23.74 128.059 3.144 5.131 11.522 2.98 11.441-2.946-.157-11.42 1.413-21.615 3.683-31.34z" fill="#fee884"/><path d="m327.326 321.492c-2.949 27.618-2.177 60.406 18.776 69.228 7.372-32.565 23.002-59.557 8.888-108.993-.001-.002-.001-.005-.002-.007-10.395 5.766-25.31 17.744-27.662 39.772z" fill="#fcf2c8"/><path d="m308.461 301.82c0-5.762 0-4.036 0-7.767-10.046 8.982-27.275 20.424-41.463 20.768-2.441-.059-4.973-.453-7.541-1.1.758 1.716 1.671 3.456 2.771 5.211-.923 4.79-5.013 22.43-16.223 29.419-1.232.491-6.55 2.763-11.522 7.169l26.541 38.657h11.949l48.648-70.855c-7.984-6.271-13.16-13.44-13.16-21.502z" fill="#ffaa7b"/><path d="m263.14 314.471c-13.344-2.016-28.454-12.236-37.605-20.418v7.767c0 8.062-5.176 15.23-13.159 21.501l23.82 34.694c5.269-4.774 11.148-6.966 11.148-6.966 14.456-8.765 18.044-32.754 18.044-32.754-.855-1.284-1.597-2.56-2.248-3.824z" fill="#fc9460"/><path d="m408.461 355.536s-23.093-4.216-47.084-12.529c.023.212.054.422.05.639-.026 1.35-.585 2.604-1.572 3.533-25.059 23.568-49.524 34.987-66.303 40.479-8.572 2.806-17.535 4.203-26.555 4.203s-17.983-1.397-26.555-4.203c-4.327-1.416-9.168-3.231-14.395-5.542.048.178.081.353.132.531-9.594.317-33.205 2.434-46.263 15.141-5.992 5.833-9.03 13.146-9.03 21.737v77.272c26.513 9.826 55.184 15.203 85.114 15.203 54.157 0 104.2-17.585 144.759-47.339v-33.68c0-32.829 9.826-56.86 24.493-70.148-6.619-2.938-12.576-4.488-16.791-5.297z" fill="#3c58a0"/><path d="m173.888 497.886c0-19.185 0-53.902 0-78.361 0-35.457 56.54-33.918 56.54-33.918-.283-.659-.525-1.303-.754-1.941-15.683-6.48-35.414-17.566-55.533-36.487-.987-.929-1.546-2.184-1.572-3.533-.004-.217.027-.427.05-.639-23.991 8.313-47.084 12.529-47.084 12.529-4.215.809-10.171 2.359-16.791 5.298 14.667 13.287 24.493 37.318 24.493 70.148v48.079c12.855 7.457 26.453 13.774 40.651 18.825z" fill="#2a428c"/><path d="m267.653 0c-1.351 0-2.686.069-4.004.198-1.767 2.421-4.16 6.403-5.186 11.312-1.473 7.047.311 13.582 5.301 19.44-.575 1.04-1.086 2.394-1.127 3.968-.033 1.282.238 2.525.807 3.709-.345.261-.721.56-1.108.876 1.743-.078 3.513-.122 5.318-.122 15.725 0 29.067 3.027 40.296 7.69.317-2.05.484-4.151.484-6.29-.001-22.523-18.259-40.781-40.781-40.781z" fill="#fcf2c8"/><path d="m267.653 30.74c-15.071-15.071 0-30.74 0-30.74-22.523 0-40.781 18.258-40.781 40.781 0 2.139.167 4.239.484 6.29 11.23-4.664 24.571-7.69 40.297-7.69-4.543-4.544 0-8.641 0-8.641z" fill="#fee884"/><path d="m267.653 30.74c-1.332 0-2.654.039-3.967.114.027.031.05.064.077.095-.575 1.04-1.086 2.394-1.127 3.968-.033 1.282.238 2.525.807 3.709-1.187.899-2.656 2.132-4.21 3.683 2.731-.196 5.53-.309 8.42-.309 19.193 0 34.84 4.505 47.423 10.998 2.235 1.153 4.392 2.407 6.484 3.738-12.63-15.836-32.077-25.996-53.907-25.996z" fill="#4b6bb2"/><path d="m267.653 30.74c-21.831 0-41.277 10.159-53.908 25.995 2.092-1.331 4.25-2.585 6.484-3.738 11.769-6.072 26.218-10.404 43.741-10.94 2.143-1.789 3.682-2.677 3.682-2.677-4.542-4.543.001-8.64.001-8.64z" fill="#3c58a0"/><g fill="#fcf2c8"><path d=""/><path d="m315.076 50.377c-12.583-6.492-28.23-10.997-47.423-10.997-1.811 0-3.58.052-5.328.131-4.44 3.621-11.339 10.822-13.661 21.963-2.559 12.283 1.213 25.79 11.189 40.167 1.328.453 2.674.93 4.058 1.461 2.401.921 5.081.921 7.483 0 61.107-23.425 67.47 30.211 67.964 46.766.085 2.833 1.277 5.483 3.177 7.624 2.111 2.379 3.672 5.611 4.813 9.344 3.096-2.064 7.903-3.487 12.247-3.385l.001-.013v-40.181c0-30.45-16.974-58.669-44.52-72.88z"/></g><path d="m267.653 39.38c-19.193 0-34.84 4.505-47.424 10.997-27.546 14.211-44.52 42.43-44.52 72.879v40.181l.001.013c4.345-.102 9.151 1.321 12.247 3.385 1.141-3.733 2.702-6.965 4.813-9.344 1.9-2.141 3.092-4.79 3.177-7.624.493-16.524 6.838-69.99 67.634-46.888.359-.323.564-.49.564-.49-31.742-42.824 3.508-63.109 3.508-63.109z" fill="#fee884"/><path d="m343.025 154.436c-1.893-2.134-2.935-4.627-3.011-7.209-.293-9.828-2.775-33.882-19.446-44.983-11.824-7.874-28.448-7.792-49.408.246-2.262.867-4.753.867-7.014 0-1.664-.638-3.29-1.207-4.899-1.745.309.455.605.909.926 1.365-6.114 6.181-25.546 29.398-13.643 64.717l3.704 9.844c-3.304 4.016-5.428 10.67-2.185 18.253l-.003.016c-.907 2.137-6.033 15.822 4.663 29.904l4.055 10.706c-1.997 3.162-5.13 10.396-1.236 20.886l6.556 9.56c-.933 1.507-1.957 4.119-.869 7.411v6.799c-2.237 3.927-9.963 19.89.294 37.517 6.523 1.204 13.34.484 19.503-2.182 18.957-8.202 34.349-21.73 44.514-39.125 10.011-17.13 17.823-37.889 23.228-61.742 2.338-14.874 4.829-48.34-5.729-60.238z" fill="#ffc7ab"/><path d="m265.331 318.206c-12.904-19.484-1.117-37.172-1.117-37.172v-8.152c-1.674-4.183 1.646-6.707 1.646-6.707l-7.52-10.782c-4.548-12.256 1.798-19.404 1.798-19.404l-4.78-12.621c-10.856-13.939-4.445-27.493-4.445-27.493l.279-1.287c-5.113-10.561 2.511-17.216 2.511-17.216l-4.364-11.6c-13.55-40.21 14.808-63.281 14.808-63.281-20.96-8.035-37.584-8.118-49.407-.247-16.671 11.101-19.152 35.157-19.445 44.984-.077 2.583-1.118 5.075-3.013 7.209-10.439 11.763-8.153 46.131-5.717 60.28 5.393 23.807 13.206 44.565 23.218 61.7 10.164 17.395 25.557 30.923 44.513 39.125 3.522 1.523 7.261 2.404 11.035 2.664z" fill="#ffaa7b"/><path d="m361.09 339.049-17.734-18.059c-2.44-2.484-5.76-3.939-9.242-3.972-5.492-.051-10.798 2.149-14.519 6.183-3.463 3.755-8.244 7.818-14.327 11.513-20.165 12.249-32.994 33.566-33.76 57.031 10.979 0 21.873-2.038 32.058-6.138 16.063-6.465 36.504-17.749 57.374-37.391 2.617-2.461 2.666-6.605.15-9.167z" fill="#4b6bb2"/><path d="m226.953 365.622c-2.258 5.271-2.516 10.989-.772 17.024-.72.024-1.528.06-2.396.107 2.284 1.039 4.505 1.993 6.643 2.853 10.185 4.099 21.079 6.138 32.058 6.138-.527-16.136-6.758-31.257-17.157-43.112-3.232 1.397-13.962 6.685-18.376 16.99z" fill="#4b6bb2"/><path d="m247.344 351.049c-5.123-6.395-11.397-11.949-18.618-16.335-6.082-3.694-10.864-7.757-14.326-11.513-3.72-4.034-9.027-6.234-14.519-6.183-3.482.032-6.802 1.487-9.242 3.971l-17.733 18.059c-2.516 2.562-2.467 6.706.148 9.167 20.869 19.642 41.31 30.926 57.374 37.391-10.461-24.373 16.916-34.557 16.916-34.557z" fill="#3c58a0"/><path d="m463.116 397.91c-.166-.348-.321-.711-.492-1.052-10.39-20.779-26.126-31.341-38.951-36.703-14.819 13.515-24.414 37.656-24.414 70.826v34.774c25.363-18.313 47.08-41.357 63.857-67.845z" fill="#70f2a4"/><path d="m110.323 360.156c-12.825 5.362-28.561 15.924-38.951 36.703-3.19 6.38-5.481 14.039-7.099 22.666 19.382 24.331 43.292 44.892 70.464 60.4 0-16.134 0-33.152 0-48.944 0-33.169-9.596-57.31-24.414-70.825z" fill="#50dd89"/><path d="m359.533 454.981h-51.569c-4.656 0-8.465-3.809-8.465-8.465 0-4.656 3.809-8.465 8.465-8.465h51.569c4.656 0 8.465 3.809 8.465 8.465 0 4.656-3.809 8.465-8.465 8.465z" fill="#70f2a4"/><path d="m226.033 454.981h-51.569c-4.656 0-8.465-3.809-8.465-8.465 0-4.656 3.809-8.465 8.465-8.465h51.569c4.656 0 8.465 3.809 8.465 8.465 0 4.656-3.809 8.465-8.465 8.465z" fill="#70f2a4"/><path d="m331.998 446.516c0-4.656 3.809-8.465 8.465-8.465h-32.5c-4.656 0-8.465 3.809-8.465 8.465s3.809 8.465 8.465 8.465h32.5c-4.656 0-8.465-3.809-8.465-8.465z" fill="#50dd89"/><path d="m198.498 446.516c0-4.656 3.809-8.465 8.465-8.465h-32.5c-4.656 0-8.465 3.809-8.465 8.465s3.809 8.465 8.465 8.465h32.5c-4.656 0-8.465-3.809-8.465-8.465z" fill="#50dd89"/><path d="m353.594 216.146h-9.038c-3.279 0-5.962-2.683-5.962-5.962v-57.701c0-3.279 2.683-5.962 5.962-5.962h9.038c8.235 0 14.972 6.737 14.972 14.972v39.681c0 8.234-6.738 14.972-14.972 14.972z" fill="#4b6bb2"/><path d="m172.038 185.861h9.47c2.395 0 4.483-1.368 5.531-3.36v-30.019c0-3.279-2.683-5.962-5.962-5.962h-9.038c-8.234 0-14.972 6.737-14.972 14.972v13.354c2.001 6.365 7.969 11.015 14.971 11.015z" fill="#4b6bb2"/><path d="m181.077 185.146h-9.038c-8.234 0-14.972-6.737-14.972-14.972v31c0 8.234 6.737 14.972 14.972 14.972h9.038c3.279 0 5.962-2.683 5.962-5.962v-31c0 3.279-2.682 5.962-5.962 5.962z" fill="#3c58a0"/><path d="m353.087 157.491h-43.202c-1.462 1.706-3.934 5.209-3.648 9.169.174 2.414 1.316 4.568 3.402 6.424-1.522 1.612-3.774 4.626-3.814 8.38-.03 2.926 1.265 5.685 3.854 8.217-1.467 1.467-3.594 4.176-3.685 7.621-.073 2.777 1.173 5.419 3.693 7.874h43.399c13.113 0 23.842-10.729 23.842-23.842.001-13.114-10.728-23.843-23.841-23.843z" fill="#deeeff"/><path d="m311.934 157.491h-23.991c-13.195 0-23.88 10.717-23.842 23.911.038 13.14 10.701 23.772 23.842 23.772h23.991c-9.995-8.167 0-15.489 0-15.489-10.37-8.532 0-16.706 0-16.706-9.496-6.611 0-15.488 0-15.488z" fill="#bec8f7"/><path d="m343.092 172.98h-33.56c.037.034.069.07.107.103-1.522 1.612-3.774 4.626-3.814 8.38-.03 2.926 1.265 5.685 3.854 8.217-.002.002-.003.004-.005.005h33.417c-4.528 0-8.353-3.825-8.353-8.353.001-4.527 3.826-8.352 8.354-8.352z" fill="#73c3f9"/><path d="m280.775 181.333c0 4.613 3.74 8.353 8.353 8.353h22.805c-10.37-8.532 0-16.706 0-16.706h-22.805c-4.613 0-8.353 3.74-8.353 8.353z" fill="#49b1f7"/><path d="m361.44 181.333c0-4.528-3.825-8.353-8.353-8.353h-12.061c-4.528 0-8.353 3.825-8.353 8.353s3.825 8.353 8.353 8.353h12.061c4.528 0 8.353-3.825 8.353-8.353z" fill="#50dd89"/><path d="m346.179 209.467c-3.313 0-6 2.686-6 6v23.393c0 10.812-5.241 20.613-13.804 26.607l.151.161s-2.188 9.652 8.02 8.748c10.974-8.266 17.633-21.251 17.633-35.516v-23.393c0-3.313-2.687-6-6-6z" fill="#deeeff"/><path d="m335.853 273.353c-10.569 1.133-8.328-8.723-8.328-8.723l-.01-.01c-2.368 1.817-5.004 3.345-7.889 4.49-3.512 1.395-7.206 2.544-10.98 3.417-3.228.747-5.24 3.97-4.493 7.198.642 2.773 3.11 4.648 5.841 4.648.447 0 .902-.05 1.358-.155 4.358-1.009 8.632-2.339 12.701-3.954 4.355-1.728 8.314-4.074 11.8-6.911z" fill="#bec8f7"/><g><path d="m289.179 287.684c-3.866 0-7-3.134-7-7s3.134-7 7-7c6.655 0 13.13-.718 19.243-2.132 3.764-.873 7.527 1.475 8.397 5.241.872 3.767-1.475 7.526-5.241 8.397-7.146 1.655-14.682 2.494-22.399 2.494z" fill="#4b6bb2"/></g><path d="m164.963 211.109c-6.759 0-53.158 0-90.272 0-1.134 2.42-4.492 10.657-1.569 18.034 1.814 4.58 5.671 7.899 11.462 9.868 2.484.845 3.952 1.996 4.487 3.52 1.377 3.917-2.908 10.643-7.87 18.432-6.105 9.583-13.703 21.51-13.703 33.586 0 24.213 30.979 55.52 36.355 60.768-.878 2.335-2.65 8.321-.502 14.221 1.265 3.476 3.681 6.301 7.161 8.45h54.451c9.993 0 18.17-8.176 18.17-18.17v-130.539c-.001-9.994-8.177-18.17-18.17-18.17z" fill="#deeeff"/><path d="m29.168 211.109c-9.993 0-18.17 8.176-18.17 18.17v130.539c0 9.993 8.176 18.17 18.17 18.17h84.476c-15.467-7.163-8.017-23.043-8.017-23.043s-36.629-34.794-36.629-60.396c0-25.603 35.363-50.398 16.068-56.957-19.295-6.56-8.705-26.482-8.705-26.482-22.068-.001-41.153-.001-47.193-.001z" fill="#bec8f7"/><path d="m154.022 282.548h-9.034c-1.487 0-2.805-.956-3.26-2.371-.785-2.44-1.766-4.792-2.921-7.039-.681-1.324-.427-2.934.626-3.987l6.392-6.392c1.343-1.343 1.343-3.52 0-4.863l-12.107-12.107c-1.343-1.343-3.52-1.343-4.863 0l-6.379 6.379c-1.054 1.054-2.666 1.308-3.991.624-2.251-1.161-4.607-2.145-7.052-2.934-1.414-.456-2.368-1.774-2.368-3.259v-9.007c0-1.899-1.54-3.439-3.439-3.439h-17.122c-1.899 0-3.439 1.54-3.439 3.439v8.979c0 1.487-.957 2.807-2.373 3.261-.646.208-1.286.43-1.92.665-.914 2.503-2.357 8.772 4.277 12.264-.78 2.449-.851 4.679-.279 6.563 3.716-1.819 7.888-2.843 12.296-2.843 15.477 0 28.068 12.592 28.068 28.068 0 13.278-9.271 24.424-21.677 27.325.778 1.912 2.389 3.672 5.19 4.947-.3 2.189-.452 8.693 7.525 10.588.781-.35 1.555-.713 2.314-1.104 1.325-.683 2.937-.43 3.991.625l6.379 6.379c1.343 1.343 3.52 1.343 4.863 0l12.107-12.107c1.343-1.343 1.343-3.52 0-4.863l-6.392-6.392c-1.053-1.053-1.307-2.663-.627-3.987 1.156-2.247 2.136-4.599 2.921-7.039.455-1.415 1.774-2.371 3.26-2.371h9.034c1.899 0 3.439-1.54 3.439-3.439v-17.122c0-1.901-1.539-3.441-3.439-3.441z" fill="#49b1f7"/><path d="m110.145 326.934c.089-.601-.228-1.188-.782-1.436-2.471-1.103-3.784-2.546-4.431-4.011-2.498.731-5.136 1.13-7.867 1.13-15.477 0-28.068-12.592-28.068-28.068 0-11.608 7.084-21.594 17.156-25.86-.557-2.108-.055-4.317.366-5.599.207-.629-.094-1.306-.682-1.61-6.021-3.107-4.329-8.863-3.487-10.905.087-.212.112-.437.091-.656-2.364.773-4.646 1.726-6.827 2.848-1.324.681-2.934.426-3.987-.626l-6.351-6.351c-1.343-1.343-3.52-1.343-4.863 0l-12.107 12.107c-1.343 1.343-1.343 3.52 0 4.863l6.338 6.338c1.054 1.054 1.308 2.665.625 3.99-1.167 2.263-2.157 4.632-2.947 7.091-.455 1.415-1.774 2.37-3.26 2.37h-8.952c-1.899 0-3.439 1.539-3.439 3.439v17.122c0 1.899 1.54 3.439 3.439 3.439h8.952c1.486 0 2.805.956 3.26 2.37.791 2.459 1.78 4.828 2.947 7.091.683 1.325.429 2.936-.625 3.99l-6.338 6.338c-1.343 1.343-1.343 3.52 0 4.863l12.107 12.107c1.343 1.343 3.52 1.343 4.863 0l6.351-6.352c1.053-1.053 2.663-1.307 3.987-.626 2.259 1.162 4.624 2.147 7.078 2.935 1.416.454 2.373 1.774 2.373 3.261v8.979c0 1.899 1.54 3.439 3.439 3.439h17.122c1.899 0 3.439-1.54 3.439-3.439v-9.007c0-1.486.955-2.803 2.368-3.26 2.293-.74 4.504-1.658 6.627-2.726-.186-.179-.413-.319-.682-.366-7.563-1.333-7.577-6.886-7.233-9.212z" fill="#3d9cea"/><path d="m97.065 260.48c-4.261 0-8.339.794-12.102 2.229.031.017.055.035.086.051-1.631 5.121-.186 9.298 3.835 11.298 2.532-1.015 5.291-1.579 8.181-1.579 12.169 0 22.068 9.899 22.068 22.068 0 9.962-6.637 18.4-15.72 21.133-1.269 3.772-.548 8.35 4.956 10.999 13.244-4.674 22.763-17.309 22.763-32.132.002-18.784-15.281-34.067-34.067-34.067z" fill="#9bd8f9"/><path d="m109.363 325.498c-6.739-3.007-4.918-8.55-4.216-10.152.041-.094.048-.195.065-.294-2.522 1.006-5.269 1.565-8.146 1.565-12.169 0-22.068-9.899-22.068-22.068 0-9.972 6.65-18.416 15.747-21.141-.134-.132-.295-.239-.474-.312-5.567-2.288-4.516-7.676-3.751-10.006.102-.311.079-.633-.041-.917-13.616 4.464-23.481 17.286-23.481 32.376 0 18.785 15.283 34.068 34.068 34.068 4.57 0 8.93-.911 12.917-2.551-.139-.244-.35-.447-.62-.568z" fill="#73c3f9"/><g><path d="m202.048 191.815c5.011-5.652 9.846-8.916 14.327-10.579-.88 2.123-1.372 4.582-1.346 7.2.045 4.444 1.576 8.387 3.935 10.975-3.733-.839-6.649-2.053-8.449-2.986-3.642-1.889-6.39-2.639-8.022-2.938-.679-.124-.941-1.113-.445-1.672z" fill="#deeeff"/></g><path d="m242.526 197.62c.97-2.084 1.529-4.557 1.502-7.215-.003-.296-.021-.588-.04-.878-1.306-.997-2.546-2.002-3.533-2.925-1.279-1.196-3.083-2.615-5.318-3.846.516 1.66.815 3.476.834 5.388.051 5.059-1.836 9.523-4.718 12.102 3.526-.304 7.319-1.107 11.273-2.626z" fill="#deeeff"/><g><path d="m243.522 189.173c2.664 2.066 5.729 4.139 7.669 5.414.523.344.32 1.279-.279 1.287l-.271.004c-2.55.035-5.083.537-7.496 1.507-.408.164-.812.313-1.216.462 1.103-1.888 1.754-4.285 1.728-6.892-.006-.61-.058-1.202-.135-1.782z" fill="#fc9460"/></g><g><path d="m235.968 183.232c.628 1.634.988 3.443 1.007 5.351.049 4.937-2.184 9.279-5.546 11.648-4.878.441-9.25-.064-12.836-.906-2.653-2.418-4.378-6.18-4.42-10.432-.028-2.785.671-5.381 1.888-7.541 8.145-3.149 15.14-.976 19.907 1.88z" fill="#73c3f9"/></g><g><path d="m224.694 185.379c0-2.085.624-3.988 1.652-5.457 3.754.397 7.02 1.75 9.622 3.309.628 1.634.988 3.443 1.007 5.351.007.736-.042 1.457-.132 2.161-1.259 1.854-3.158 3.035-5.282 3.035-3.793.001-6.867-3.76-6.867-8.399z" fill="#49b1f7"/></g><g><path d="m218.189 185.375c0 1.05.851 1.901 1.9 1.901s1.9-.851 1.9-1.901c0-1.049-.851-1.9-1.9-1.9s-1.9.85-1.9 1.9z" fill="#9bd8f9"/></g><g><path d="m198.769 173.501c.903-3.903 3.998-12.897 13.497-14.305 9.592-1.421 29.163 4.139 37.072 6.574 2.107.649 3.681 2.41 4.094 4.575l1.19 6.242c.101.53-.414.968-.92.783-5.971-2.179-33.487-11.927-42.257-9.837-6.687 1.594-10.29 4.601-11.915 6.37-.309.337-.864.043-.761-.402z" fill="#fee884"/></g><g fill="#fc9460"><path d="m248.088 258.492 7.581-2.989c.853-.336 1.794-.375 2.672-.11l8.736 2.634 8.735-2.634c.878-.264 1.819-.226 2.672.11l7.581 2.989c2.094.826 3.123 3.193 2.297 5.287-.824 2.088-3.186 3.125-5.287 2.297l-6.264-2.47-8.52 2.569c-.825.258-1.686.239-2.43-.001l-8.518-2.568-6.264 2.47c-2.091.823-4.459-.197-5.287-2.297-.827-2.094.201-4.461 2.296-5.287z"/><path d="m264.214 272.882h5.232c2.251 0 4.076 1.825 4.076 4.076s-1.825 4.076-4.076 4.076h-5.232c-2.251 0-4.076-1.825-4.076-4.076s1.825-4.076 4.076-4.076z"/><path d="m248.714 224.765 6.643-1.398c1.911-.4 3.688.389 4.535 2.012 1.424 2.207 4.03 3.492 7.003 3.492 2.972 0 5.577-1.284 6.968-3.436.88-1.678 2.659-2.467 4.568-2.068l6.643 1.398c2.286.481 3.754 2.733 3.273 5.018-.48 2.283-2.73 3.752-5.018 3.273l-3.703-.78c-.047-.01-.096-.015-.143-.015-.181 0-.357.071-.488.2-6.56 6.48-17.642 6.479-24.201.001-.166-.164-.404-.234-.632-.186l-3.703.78c-2.286.478-4.537-.989-5.018-3.273-.481-2.285.987-4.537 3.273-5.018z"/></g><path d="m150.81 45.676c-52.323 24.913-94.422 67.824-118.276 120.738 10.574 8.835 25.556 17.061 44.728 17.061 41.425 0 70.494-20.952 58.427-64.34-10.827-38.932-2.999-58.383 15.121-73.459z" fill="#fb7ac0"/><path d="m396.224 66.085c-20.569 28.76-7.064 65.429 8.163 102.105 20.5 49.376-46.167 62.124-27.459 116.182 13.128 37.935 76.092 52.146 112.486 57.249 7.52-23.529 11.587-48.6 11.587-74.624.001-83.154-41.436-156.621-104.777-200.912z" fill="#fb7ac0"/></g></svg>