<svg id="Layer_1" enable-background="new 0 0 512 512" height="512" viewBox="0 0 512 512" width="512" xmlns="http://www.w3.org/2000/svg"><g><path d="m473.424 380.004c17.611-33.814 27.578-72.244 27.578-113.006 0-135.311-109.691-245.002-245.002-245.002s-245.002 109.691-245.002 245.002c0 40.763 9.967 79.193 27.578 113.007z" fill="#ffc839"/><path d="m386.076 466.715 43.243-26.574c17.583-17.603 32.505-37.866 44.104-60.136-9.677-27.932-29.8-54.137-70.974-57.503-6.769-.553-10.37-3.179-18.347-7.677-17.977-10.137-36.226-17.897-55.993-23.094-5.132-1.349-9.581-4.665-12.07-9.352-5.569-10.49-7.225-24.57-7.587-35.11-5.298 6.171-10.858 11.333-16.171 15.458-10.352 8.039-23.125 12.405-36.282 12.405-2.044 0-4.076-.118-6.094-.326 1.039 1.484 2.4 2.927 4.179 4.273-4.308 8.394-33.352 61.386-85.17 73.305-24.065 5.536-40.104 22.896-46.38 50.206-4.573 19.897-2.459 37.944-2.248 39.611v28.799c38.85 25.901 85.516 41 135.713 41 46.059 0 89.144-12.716 125.947-34.821z" fill="#49b1f7"/><path d="m251.93 274.981c-11.704-.804-22.932-5.047-32.212-12.254-5.313-4.126-10.874-9.288-16.172-15.458-.363 10.539-2.018 24.62-7.588 35.11-2.488 4.687-6.937 8.002-12.069 9.352-19.766 5.197-38.016 12.957-55.993 23.094-7.977 4.498-11.578 7.124-18.347 7.677-41.174 3.366-61.297 29.571-70.974 57.503 19.439 37.324 48.209 69.01 83.211 91.978v-29.878s-9.928-75.057 47.464-88.258c57.394-13.201 86.75-75.243 86.75-75.243-1.687-1.136-3.018-2.358-4.07-3.623z" fill="#3d9cea"/><path d="m355.256 131.998-.04-.036c-2.223-2.02-3.771-4.624-4.537-7.471l-94.679 129.211-6.4-8.735c-1.771 2.513-2.841 6.322-.54 11.051-1.381 3.004-5.626 14.348 4.359 22.529.858.037 1.719.058 2.581.058 13.156 0 25.93-4.366 36.281-12.404 17.432-13.537 37.549-38.117 42.161-73.53.486-3.736 3.182-6.809 6.809-7.826 5.906-1.656 9.395-7.874 10.026-12.518.366-2.697.965-5.355 1.796-7.948 2.705-8.45 12.463-22.96 2.183-32.381z" fill="#73c3f9"/><path d="m250.738 256c-2.388-4.36-1.51-7.631-.182-9.728l-89.236-121.781c-.766 2.846-2.314 5.451-4.537 7.471l-.04.036c-10.28 9.421-.522 23.931 2.183 32.379.83 2.593 1.429 5.252 1.796 7.948.631 4.645 4.12 10.862 10.026 12.518 3.627 1.017 6.323 4.091 6.809 7.826 4.612 35.413 24.729 59.993 42.161 73.53 10.351 8.038 23.125 12.404 36.281 12.404-13.025-8.776-5.261-22.603-5.261-22.603z" fill="#49b1f7"/><path d="m350.125 120.457v-26.332c0-26.736-11.298-50.96-29.354-68.137l-57.592 78.597c-3.556 4.853-10.801 4.852-14.357 0l-30.396-41.482c-6.906 23.158-6.31 47.612-3.623 67.304l10.326 32.083c-1.059 4.759-.845 13.845 6.924 17.449l.549 1.148 1.597 7.576c-.781 2.703-4.342 17.652 8.579 28.577 7.123 6.021 9.49 8.636 10.276 9.698-1.684 1.531-3.39 4.601-1.172 8.56 1.797 3.208.605 6.122.172 6.979-1.062.747-2.258 1.967-3.121 3.577l7.069 9.647 95.125-129.818c-.644-1.72-1.002-3.551-1.002-5.426z" fill="#4b6bb2"/><path d="m243.745 216.095c-13.561-11.465-8.001-27.363-8.001-27.363l-1.713-8.13-.866-1.812c-9.61-3.968-6.481-16.362-6.481-16.362l-10.396-32.225c-3.68-26.972-1.783-48.497 3.198-65.653l-28.257-38.562c-18.056 17.177-29.354 41.401-29.354 68.137v26.332c0 1.875-.358 3.706-.999 5.426l89.064 121.547c1.133-2.572 3.25-3.908 3.25-3.908s2.586-4.141 0-8.758 1.506-7.205 1.506-7.205 2.61 0-10.951-11.464z" fill="#3c58a0"/><path d="m272.402 1.442c-7.647 3.168-19.324 9.374-30.412 20.732-12.186 12.482-19.667 27.167-23.986 42.354l30.817 42.057c3.556 4.852 10.801 4.853 14.357 0l58.448-79.765c-13.257-12.931-30.284-22.013-49.224-25.378z" fill="#3c58a0"/><path d="m256 0c-25.46 0-48.639 10.249-65.627 26.82l28.695 39.161c11.842-42.871 42.872-58.964 56.091-64.001-6.191-1.294-12.598-1.98-19.159-1.98z" fill="#2a428c"/><path d="m316.44 183.466c-12.697 1.744-33.038.88-55.874-14.125-2.772-1.821-6.362-1.821-9.133 0-7.019 4.612-13.8 7.883-20.197 10.158.269.149.527.305.816.439l.549 1.148 1.597 7.576c-.781 2.703-4.342 17.652 8.579 28.577 7.123 6.021 9.49 8.636 10.276 9.698-1.684 1.531-3.39 4.601-1.172 8.56 1.797 3.208.605 6.122.172 6.979-2.691 1.895-6.281 6.784-2.993 13.54-.017.036-.035.079-.053.118.567-.083 1.143-.135 1.732-.135h10.524c2.822 0 5.423.987 7.477 2.634 2.71 2.172 6.522 2.282 9.543.567 1.828-1.038 3.584-2.206 5.25-3.499 9.902-7.689 33.455-29.589 38.299-66.778l.009-.072c.409-3.137-2.266-5.816-5.401-5.385z" fill="#ffc7ab"/><path d="m253.19 243.522s2.586-4.141 0-8.758 1.506-7.205 1.506-7.205 2.611-.001-10.95-11.465c-13.561-11.465-8.001-27.363-8.001-27.363l-1.713-8.13-.866-1.812c-.001-.001-.002-.001-.003-.002-15.236 5.833-28.422 5.94-37.606 4.678-3.134-.431-5.809 2.249-5.396 5.386l.009.072c4.843 37.187 28.398 59.088 38.299 66.778 1.666 1.293 3.422 2.461 5.25 3.499 3.021 1.715 6.832 1.605 9.543-.567 2.054-1.646 4.655-2.634 7.477-2.634-4.455-8.131 2.451-12.477 2.451-12.477z" fill="#ffaa7b"/><g><ellipse cx="295.712" cy="147.088" fill="#ffc7ab" rx="24.872" ry="16.885"/><ellipse cx="216.288" cy="147.088" fill="#ffaa7b" rx="24.872" ry="16.885"/><path d="m286.038 144.667c0-1.565.293-3.052.815-4.406-2.033.998-3.675 2.128-4.844 3.082-2.727 2.224-7.47 5.046-10.066 6.537-.491.282-.29 1.031.276 1.031h.256c2.409 0 4.806.376 7.094 1.13 3.969 1.307 7.767 1.957 11.279 2.172-2.886-1.978-4.81-5.511-4.81-9.546z" fill="#edeef2"/><path d="m318.335 147.114c-4.742-4.449-9.301-7.016-13.516-8.316.948 1.708 1.496 3.717 1.496 5.869 0 3.516-1.463 6.652-3.749 8.71 3.451-.714 6.145-1.705 7.814-2.465 3.422-1.558 6.011-2.192 7.549-2.449.641-.107.88-.904.406-1.349z" fill="#edeef2"/><path d="m286.217 140.585c-.578 1.321-.901 2.779-.901 4.313 0 3.97 2.15 7.436 5.347 9.304 4.612.301 8.736-.153 12.116-.869 2.483-1.973 4.078-5.017 4.078-8.435 0-2.239-.684-4.319-1.854-6.042-7.725-2.443-14.311-.619-18.786 1.729z" fill="#3d9cea"/><path d="m300.103 145.574c0 2.28-1.848 4.128-4.128 4.128s-4.128-1.848-4.128-4.128 1.848-4.128 4.128-4.128c2.28.001 4.128 1.849 4.128 4.128z" fill="#3c58a0"/><path d="m225.962 144.667c0-1.565-.293-3.052-.815-4.406 2.033.998 3.675 2.128 4.844 3.082 2.727 2.224 7.47 5.046 10.066 6.537.491.282.291 1.031-.276 1.031h-.256c-2.409 0-4.806.376-7.094 1.13-3.969 1.307-7.767 1.957-11.279 2.172 2.885-1.978 4.81-5.511 4.81-9.546z" fill="#edeef2"/><path d="m193.665 147.114c4.742-4.449 9.301-7.016 13.516-8.316-.948 1.708-1.496 3.717-1.496 5.869 0 3.516 1.463 6.652 3.749 8.71-3.451-.714-6.145-1.705-7.814-2.465-3.422-1.558-6.01-2.192-7.549-2.449-.641-.107-.88-.904-.406-1.349z" fill="#edeef2"/><path d="m225.783 140.585c.578 1.321.901 2.779.901 4.313 0 3.97-2.15 7.436-5.347 9.304-4.611.301-8.736-.153-12.116-.869-2.483-1.973-4.078-5.017-4.078-8.435 0-2.239.684-4.319 1.854-6.042 7.724-2.443 14.311-.619 18.786 1.729z" fill="#3d9cea"/><path d="m211.897 145.574c0 2.28 1.848 4.128 4.128 4.128s4.128-1.848 4.128-4.128-1.848-4.128-4.128-4.128c-2.28.001-4.128 1.849-4.128 4.128z" fill="#3c58a0"/></g><g fill="#fc9460"><path d="m276.398 219.306-8.144-3.211c-.916-.361-1.928-.403-2.87-.119l-9.385 2.83-9.384-2.83c-.943-.284-1.954-.242-2.87.119l-8.144 3.211c-2.25.887-3.355 3.43-2.468 5.68.885 2.243 3.423 3.357 5.68 2.468l6.729-2.654 9.153 2.76c.887.277 1.811.257 2.611-.001l9.151-2.759 6.729 2.654c2.246.884 4.79-.212 5.68-2.468.887-2.25-.218-4.793-2.468-5.68z"/><path d="m258.81 234.765h-5.621c-2.419 0-4.379 1.96-4.379 4.379s1.96 4.379 4.379 4.379h5.621c2.419 0 4.379-1.96 4.379-4.379s-1.96-4.379-4.379-4.379z"/><path d="m280.59 182.398c-.607-.93-1.538-1.568-2.623-1.797l-8.103-1.706c-1.899-.399-3.595.34-4.424 1.929-.027.051-.056.103-.089.152-1.884 2.915-5.381 4.655-9.353 4.655-3.971 0-7.466-1.74-9.351-4.655-.031-.048-.06-.097-.087-.15-.83-1.591-2.526-2.33-4.426-1.93l-8.103 1.705c-2.241.472-3.681 2.679-3.209 4.92.47 2.239 2.677 3.679 4.922 3.21l4.516-.95c.619-.129 1.25.061 1.691.497 3.808 3.762 8.927 5.642 14.048 5.642 5.12-.001 10.241-1.881 14.048-5.642.446-.44 1.078-.627 1.691-.497l4.517.951c2.24.469 4.448-.969 4.92-3.209.23-1.085.022-2.194-.585-3.125z"/></g><path d="m351.357 458.64c3.411-.709 5.788-3.643 5.788-7.065 0-3.344-2.33-6.336-5.788-7.055-4.256-.879-8.61 2.354-8.61 7.055 0 4.337 3.892 7.93 8.61 7.065z" fill="#3b8be2"/><path d="m163.463 458.64c3.411-.709 5.788-3.643 5.788-7.065 0-3.344-2.33-6.336-5.788-7.055-4.256-.879-8.61 2.354-8.61 7.055 0 4.337 3.891 7.93 8.61 7.065z" fill="#3b8be2"/><path d="m398.778 67.89c-37.723 22.861 7.874 81.193-.241 116.828-6.153 27.022-37.549 69.205 13.586 94.693 36.03 17.96 61.17 44.229 76.575 64.388 7.976-24.156 12.303-49.97 12.303-76.801.001-82.034-40.323-154.642-102.223-199.108z" fill="#ffdd40"/><path d="m99.877 279.411c51.135-25.489 19.739-67.671 13.586-94.693-8.115-35.635 37.483-93.967-.241-116.828-61.9 44.467-102.224 117.075-102.224 199.108 0 26.83 4.327 52.645 12.303 76.801 15.406-20.159 40.546-46.428 76.576-64.388z" fill="#ffdd40"/><path d="m429.32 440.141c-2.608-26.17-14.284-43.71-24.207-54.16-5.37-5.655-14.9-1.808-14.9 5.991v50.134c2.021 18.723-12.688 29.878-12.688 29.878v7.792c19.01-10.884 36.42-24.243 51.795-39.635z" fill="#3d9cea"/><path d="m397.067 437.147c-3.261-.523-6.331 1.697-6.854 4.958-3.706 23.088-20.915 34.312-52.609 34.312-12.555 0-29.703-3.851-49.592-11.136-15.569-5.703-26.03-20.705-26.03-37.331v-79.83l42.061-21.866c2.932-1.523 4.073-5.135 2.549-8.066-1.523-2.932-5.137-4.073-8.066-2.548l-42.526 22.107-42.525-22.107c-2.93-1.524-6.542-.384-8.066 2.548-1.524 2.931-.383 6.543 2.548 8.066l42.061 21.866v79.83c0 16.626-10.461 31.628-26.031 37.331-19.888 7.285-37.035 11.136-49.591 11.136-31.695 0-48.904-11.223-52.609-34.312-.523-3.262-3.594-5.481-6.854-4.958-3.262.523-5.482 3.592-4.959 6.854 2.413 15.037 9.5 26.462 21.064 33.96 10.666 6.915 25.254 10.421 43.358 10.421 14.143 0 32.212-3.993 53.706-11.867 12.238-4.482 22.045-13.38 27.898-24.485 5.854 11.105 15.66 20.002 27.897 24.485 21.495 7.874 39.564 11.867 53.706 11.867 18.103 0 32.692-3.506 43.357-10.421 11.564-7.497 18.651-18.923 21.065-33.96.524-3.262-1.696-6.331-4.958-6.854z" fill="#3b8be2"/></g></svg>