<?xml version="1.0" encoding="iso-8859-1"?>
<!-- Generator: Adobe Illustrator 19.0.0, SVG Export Plug-In . SVG Version: 6.00 Build 0)  -->
<svg version="1.1" id="Capa_1" xmlns="http://www.w3.org/2000/svg" xmlns:xlink="http://www.w3.org/1999/xlink" x="0px" y="0px"
	 viewBox="0 0 512 512" style="enable-background:new 0 0 512 512;" xml:space="preserve">
<path style="fill:#574D70;" d="M512,256c0,36.31-7.555,70.865-21.201,102.149c-2.748,6.311-5.736,12.476-8.965,18.505
	c-2.278,4.253-4.671,8.432-7.189,12.539C429.704,462.838,348.599,512,256,512S82.296,462.838,37.355,389.193
	c-2.518-4.106-4.911-8.286-7.189-12.539c-3.229-6.029-6.217-12.194-8.965-18.505C7.555,326.865,0,292.31,0,256
	C0,114.615,114.615,0,256,0S512,114.615,512,256z"/>
<rect x="61.659" y="16.188" style="fill:#DD98F2;" width="388.681" height="278.977"/>
<path style="fill:#E6BDF9;" d="M490.799,358.149c-2.748,6.311-5.736,12.476-8.965,18.505c-2.278,4.253-4.671,8.432-7.189,12.539
	H37.355c-2.518-4.106-4.911-8.286-7.189-12.539c-3.229-6.029-6.217-12.194-8.965-18.505l40.458-62.986h388.681L490.799,358.149z"/>
<path style="fill:#DD98F2;" d="M481.834,376.654C438.711,457.206,353.761,512,256,512S73.289,457.206,30.166,376.654H481.834z"/>
<path style="fill:#DB428F;" d="M408.906,108.307c-101.937-2.893-203.875-2.893-305.812,0c-5.819,0.165-10.623,4.624-11.227,10.413
	c-5.013,48.054-5.013,96.109,0,144.162c0.604,5.79,5.408,10.248,11.227,10.413c101.937,2.893,203.875,2.893,305.812,0
	c5.819-0.165,10.623-4.624,11.227-10.413c5.013-48.054,5.013-96.108,0-144.162C419.53,112.93,414.725,108.472,408.906,108.307z"/>
<path style="fill:#574D70;" d="M433.739,0H78.261c-9.169,0-16.602,7.433-16.602,16.602v62.164c0,9.169,7.433,16.602,16.602,16.602
	h355.478c9.169,0,16.602-7.433,16.602-16.602V16.602C450.342,7.433,442.908,0,433.739,0z"/>
<path style="fill:#DB428F;" d="M438.847,16.603v62.161c0,2.821-2.288,5.11-5.11,5.11H78.263c-2.821,0-5.11-2.288-5.11-5.11V16.603
	c0-2.821,2.288-5.11,5.11-5.11h355.474C436.558,11.494,438.847,13.782,438.847,16.603z"/>
<path style="fill:#ED55A9;" d="M438.847,32.277v46.488c0,2.821-2.288,5.11-5.11,5.11H78.263c-2.821,0-5.11-2.288-5.11-5.11V32.277
	c0-2.821,2.288-5.11,5.11-5.11h355.474C436.558,27.167,438.847,29.456,438.847,32.277z"/>
<g>
	<path style="fill:#FFE584;" d="M105.077,68.293c0-0.204,0.068-0.475,0.136-0.747l12.63-41.422c0.747-2.376,3.802-3.531,6.927-3.531
		c3.123,0,6.18,1.155,6.926,3.531l12.699,41.422c0.068,0.272,0.136,0.543,0.136,0.747c0,2.512-3.87,4.346-6.791,4.346
		c-1.698,0-3.055-0.543-3.463-1.97l-2.308-8.488H117.64l-2.308,8.488c-0.408,1.426-1.766,1.97-3.463,1.97
		C108.947,72.64,105.077,70.806,105.077,68.293z M129.726,54.034l-4.957-18.199l-4.957,18.199H129.726z"/>
	<path style="fill:#FFE584;" d="M162.187,26.192c0-1.698,1.29-3.192,3.26-3.192h14.056c9.303,0,16.705,3.463,16.705,14.532
		c0,7.605-3.463,11.952-8.216,13.784l8.284,15.007c0.272,0.408,0.34,0.883,0.34,1.223c0,2.649-3.531,5.5-6.655,5.5
		c-1.357,0-2.648-0.543-3.395-1.97l-9.303-18.063h-4.482v16.365c0,2.173-2.649,3.26-5.297,3.26s-5.297-1.087-5.297-3.26V26.192
		H162.187z M172.78,32.236v12.631h6.723c3.802,0,6.112-1.562,6.112-6.315s-2.308-6.315-6.112-6.315H172.78z"/>
	<path style="fill:#FFE584;" d="M231.723,32.236c-3.87,0-6.112,2.173-6.112,6.791v17.994c0,4.617,2.241,6.791,6.18,6.791
		c5.432,0,5.772-4.142,5.976-6.791c0.204-2.512,2.512-3.191,5.229-3.191c3.667,0,5.365,0.951,5.365,5.025
		c0,9.031-7.334,14.193-17.044,14.193c-8.895,0-16.297-4.346-16.297-16.026V39.027c0-11.68,7.402-16.026,16.297-16.026
		c9.71,0,17.044,4.889,17.044,13.514c0,4.074-1.698,5.025-5.297,5.025c-2.852,0-5.161-0.747-5.297-3.191
		C237.7,36.582,237.495,32.236,231.723,32.236z"/>
	<path style="fill:#FFE584;" d="M264.048,68.293c0-0.204,0.068-0.475,0.136-0.747l12.63-41.422c0.747-2.376,3.802-3.531,6.927-3.531
		c3.123,0,6.18,1.155,6.926,3.531l12.699,41.422c0.068,0.272,0.136,0.543,0.136,0.747c0,2.512-3.871,4.346-6.791,4.346
		c-1.698,0-3.055-0.543-3.463-1.97l-2.309-8.488H276.61l-2.308,8.488c-0.408,1.426-1.766,1.97-3.463,1.97
		C267.918,72.64,264.048,70.806,264.048,68.293z M288.697,54.034l-4.957-18.199l-4.957,18.199H288.697z"/>
	<path style="fill:#FFE584;" d="M337.795,23.001c9.371,0,16.705,4.346,16.705,16.026v17.588c0,11.68-7.334,16.026-16.705,16.026
		h-12.019c-2.784,0-4.617-1.494-4.617-3.191V26.192c0-1.698,1.834-3.192,4.617-3.192h12.019V23.001z M331.751,32.236v31.168h6.044
		c3.802,0,6.112-2.173,6.112-6.791V39.027c0-4.617-2.308-6.791-6.112-6.791C337.795,32.236,331.751,32.236,331.751,32.236z"/>
	<path style="fill:#FFE584;" d="M385.534,43.712h10.186c2.038,0,3.191,1.97,3.191,4.142c0,1.833-0.951,4.006-3.191,4.006h-10.186
		v11.544h18.199c2.038,0,3.191,2.173,3.191,4.685c0,2.173-0.951,4.549-3.191,4.549h-24.175c-2.308,0-4.617-1.087-4.617-3.26V26.26
		c0-2.173,2.308-3.26,4.617-3.26h24.175c2.241,0,3.191,2.377,3.191,4.549c0,2.512-1.154,4.685-3.191,4.685h-18.199V43.712z"/>
</g>
<path style="fill:#D6DFE8;" d="M358.307,263.877v-29.234v-29.234h-29.229v-29.225v-29.229h-29.234v-29.229h-29.229h-29.229h-29.23
	v29.229h-29.234v29.229v29.225h-29.229v29.234v29.234h29.229v-29.234h29.234v29.234h29.229v-29.234h29.229v29.234h29.229v-29.234
	h29.234v29.234H358.307z M212.156,205.414v-29.229h29.229v29.229L212.156,205.414L212.156,205.414z M270.615,205.414v-29.229h29.229
	v29.229L270.615,205.414L270.615,205.414z"/>
<polygon style="fill:#DB428F;" points="354.221,349.975 406.814,340.571 442.689,349.975 442.689,368.783 354.221,368.783 "/>
<polygon style="fill:#ED55A9;" points="358.401,300.517 421.791,300.517 442.689,349.975 354.221,349.975 "/>
<path style="fill:#D6DFE8;" d="M406.466,247.578v72.098c0,6.729-5.454,12.184-12.194,12.184c-0.115,0-0.23,0-0.345-0.01
	c-6.572-0.178-11.839-5.559-11.839-12.173v-72.098H406.466z"/>
<path style="fill:#B6C5D3;" d="M393.928,247.578v84.271c-6.572-0.178-11.839-5.559-11.839-12.173v-72.098H393.928z"/>
<path style="fill:#463F5B;" d="M429.663,244.903c0,11.536-5.517,21.786-14.075,28.254c-5.925,4.483-13.312,7.137-21.316,7.137
	c-19.54,0-35.391-15.851-35.391-35.391c0-19.55,15.851-35.401,35.391-35.401c8.004,0,15.391,2.654,21.316,7.137
	C424.146,223.107,429.663,233.357,429.663,244.903z"/>
<path style="fill:#574D70;" d="M429.663,244.903c0,11.536-5.517,21.786-14.075,28.254c-1.045,0.115-2.111,0.178-3.187,0.178
	c-15.705,0-28.442-12.727-28.442-28.432c0-15.715,12.737-28.442,28.442-28.442c1.076,0,2.142,0.063,3.187,0.178
	C424.146,223.107,429.663,233.357,429.663,244.903z"/>
<polygon style="fill:#129BBD;" points="165.094,349.975 112.501,340.571 76.627,349.975 76.627,368.783 165.094,368.783 "/>
<polygon style="fill:#3FC0DD;" points="160.914,300.517 97.524,300.517 76.627,349.975 165.094,349.975 "/>
<path style="fill:#D6DFE8;" d="M137.237,247.578v72.098c0,6.729-5.454,12.184-12.194,12.184c-0.115,0-0.23,0-0.345-0.01
	c-6.572-0.178-11.839-5.559-11.839-12.173v-72.098H137.237z"/>
<path style="fill:#B6C5D3;" d="M124.698,247.578v84.271c-6.572-0.178-11.839-5.559-11.839-12.173v-72.098H124.698z"/>
<path style="fill:#463F5B;" d="M160.434,244.903c0,11.536-5.517,21.786-14.075,28.254c-5.925,4.483-13.312,7.137-21.316,7.137
	c-19.54,0-35.391-15.851-35.391-35.391c0-19.55,15.851-35.401,35.391-35.401c8.004,0,15.391,2.654,21.316,7.137
	C154.917,223.107,160.434,233.357,160.434,244.903z"/>
<path style="fill:#574D70;" d="M160.434,244.903c0,11.536-5.517,21.786-14.075,28.254c-1.045,0.115-2.111,0.178-3.187,0.178
	c-15.705,0-28.442-12.727-28.442-28.432c0-15.715,12.737-28.442,28.442-28.442c1.076,0,2.142,0.063,3.187,0.178
	C154.917,223.107,160.434,233.357,160.434,244.903z"/>
<path style="fill:#DB428F;" d="M189.301,355.547c0,5.579,9.513,10.101,21.246,10.101c11.733,0,21.246-4.522,21.246-10.101v-10.101
	H189.3v10.101H189.301z"/>
<ellipse style="fill:#ED55A9;" cx="210.547" cy="345.443" rx="21.246" ry="10.101"/>
<path style="fill:#DB428F;" d="M280.207,355.547c0,5.579,9.513,10.101,21.246,10.101c11.733,0,21.246-4.522,21.246-10.101v-10.101
	h-42.493v10.101H280.207z"/>
<ellipse style="fill:#ED55A9;" cx="301.453" cy="345.443" rx="21.246" ry="10.101"/>
<rect x="129.567" y="402.568" style="fill:#463F5B;" width="75.233" height="28.735"/>
<rect x="129.567" y="412.494" style="fill:#574D70;" width="75.233" height="28.735"/>
<g>
	<rect x="141.061" y="423.466" style="fill:#463F5B;" width="52.245" height="6.792"/>
	<rect x="308.245" y="402.568" style="fill:#463F5B;" width="75.233" height="28.735"/>
</g>
<rect x="308.245" y="412.494" style="fill:#574D70;" width="75.233" height="28.735"/>
<rect x="319.739" y="423.466" style="fill:#463F5B;" width="52.245" height="6.792"/>
<g>
</g>
<g>
</g>
<g>
</g>
<g>
</g>
<g>
</g>
<g>
</g>
<g>
</g>
<g>
</g>
<g>
</g>
<g>
</g>
<g>
</g>
<g>
</g>
<g>
</g>
<g>
</g>
<g>
</g>
</svg>
