<svg id="Capa_1" enable-background="new 0 0 512 512" height="512" viewBox="0 0 512 512" width="512" xmlns="http://www.w3.org/2000/svg"><g><g><path d="m456.969 407.139c27.744-39.712 44.031-88.02 44.031-140.139 0-135.31-109.69-245-245-245s-245 109.69-245 245c0 52.119 16.287 100.427 44.031 140.139z" fill="#7255ce"/></g><g><g><path d="m458.881 231.19c13.614-19.161-2.665-31.284-2.665-31.284 10.949-28.155-15.381-29.85-15.381-29.85s6.778-14.599 0-26.07-19.813-9.907-19.813-9.907 1.564-20.334-8.342-28.155-24.506-6.257-24.506-6.257 1.573-19.813-11.21-26.591-27.895-1.564-27.895-1.564-7.3-15.642-23.463-19.813-30.241 8.342-30.241 8.342-10.949-22.941-39.365-22.941-39.365 22.941-39.365 22.941-14.078-12.513-30.241-8.342-23.463 19.813-23.463 19.813-15.112-5.214-27.895 1.564-11.21 26.591-11.21 26.591-14.599-1.564-24.506 6.257-8.342 28.155-8.342 28.155-13.035-1.564-19.813 9.907 0 26.07 0 26.07-26.33 1.695-15.381 29.85c0 0-16.279 12.122-2.665 31.284 0 0-17.67 15.251 2.665 32.848 0 0 3.519 30.893 21.117 41.06 8.106 4.684 46.751 18.772 86.079 32.607 29.721 10.413 60.972 57.334 93.021 57.334s63.299-46.921 93.021-57.334c39.327-13.835 77.972-27.923 86.079-32.607 17.597-10.167 21.116-41.06 21.116-41.06 20.333-17.597 2.664-32.848 2.664-32.848z" fill="#e9efff"/></g><g><path d="m226.204 233.893c-.08.015-.161.03-.241.044-6.643 1.231-13.168-2.627-15.181-9.076l-47.854-153.348s7.299-15.643 23.464-19.815 30.249 8.344 30.249 8.344l20.217 159.146c.882 6.945-3.769 13.44-10.654 14.705z" fill="#dae2fe"/></g><g><path d="m183.328 248.149c-.066.033-.132.066-.198.098-5.217 2.595-11.549.939-14.891-3.833l-77.262-110.339s-1.559-20.328 8.344-28.15c9.903-7.821 24.509-6.263 24.509-6.263l64.921 132.67c2.871 5.867.428 12.916-5.423 15.817z" fill="#dae2fe"/></g><g><path d="m150.377 269.776c-.045.038-.09.076-.135.114-3.449 2.918-8.492 2.937-11.937.014l-82.525-70.001c-10.948-28.149 15.391-29.848 15.391-29.848l80.001 86.439c3.562 3.848 3.212 9.899-.795 13.282z" fill="#dae2fe"/></g><g><path d="m127.443 293.444c-.035.045-.071.089-.106.134-2.66 3.37-7.337 4.374-11.133 2.369l-60.424-31.905c-20.328-17.603-2.66-32.854-2.66-32.854l72.354 49.422c4.249 2.903 5.161 8.799 1.969 12.834z" fill="#dae2fe"/></g><g><path d="m349.072 71.513-47.855 153.348c-2.013 6.449-8.538 10.306-15.181 9.076-.08-.015-.161-.03-.241-.044-6.885-1.265-11.536-7.76-10.654-14.704l20.217-159.146s14.084-12.516 30.249-8.344c16.167 4.172 23.465 19.814 23.465 19.814z" fill="#dae2fe"/></g><g><path d="m421.023 134.075-77.262 110.339c-3.342 4.773-9.674 6.428-14.891 3.833-.066-.033-.132-.066-.198-.098-5.851-2.9-8.293-9.95-5.423-15.816l64.921-132.67s14.607-1.559 24.509 6.263c9.903 7.821 8.344 28.149 8.344 28.149z" fill="#dae2fe"/></g><g><path d="m456.219 199.903-82.517 70.01c-3.444 2.922-8.486 2.905-11.935-.011-.049-.042-.099-.084-.149-.125-4.009-3.382-4.36-9.435-.797-13.285l80.007-86.437c.001 0 26.339 1.698 15.391 29.848z" fill="#dae2fe"/></g><g><path d="m456.219 264.042-60.424 31.905c-3.797 2.005-8.473 1.001-11.133-2.369-.035-.045-.071-.089-.106-.134-3.192-4.035-2.28-9.931 1.969-12.833l72.354-49.422c0-.001 17.668 15.25-2.66 32.853z" fill="#dae2fe"/></g></g><g><path d="m461.468 328.529c-7.097-60.844-101.459-130.556-101.459-180.806v-30.58c0-23.009-3.452-58.398-23.022-80.72s-47.107-36.423-80.987-36.423-48.457 5.638-62.095 12-14.549 34.073-14.549 34.073c-16.99 18.715-27.365 43.666-27.365 71.07v30.58c0 50.25-94.362 119.962-101.459 180.806-7.062 60.537 84.064 100.943 205.468 101.349 121.404-.406 212.53-40.812 205.468-101.349z" fill="#ffdd40"/></g><g><path d="m339.906 182.909h-143.906v-90.553s2.064-69.143 60-92.356c-33.88 0-48.457 5.638-62.095 12s-14.549 34.073-14.549 34.073c-16.99 18.715-27.365 43.666-27.365 71.07v30.58c0 50.25-94.362 119.962-101.459 180.806-7.062 60.537 84.064 100.943 205.468 101.349 6.041-.02 12.004-.144 17.886-.36 135.561-134.093 66.02-246.609 66.02-246.609z" fill="#ffc839"/></g><g><path d="m456.949 407.139c-8.256-22.709-16.99-42.685-24.722-51.911-.904-1.078-1.795-2.019-2.668-2.79-6.623-5.848-19.39-11.382-34.352-16.323-37.928-12.525-89.968-21.232-91.82-21.54h-94.772c-1.853.307-53.892 9.014-91.82 21.54-14.961 4.941-27.729 10.475-34.352 16.323-.874.772-1.765 1.712-2.668 2.79-7.732 9.226-16.467 29.203-24.722 51.911-.001.009-.001.018-.002.026 17.68 25.299 40.016 47.101 65.762 64.172l.002-.008h52.315s49.133 40.67 82.872 40.67 82.872-40.67 82.872-40.67h52.315l.002.008c25.745-17.071 48.082-38.873 65.762-64.172-.003-.008-.003-.017-.004-.026z" fill="#f3d6ac"/></g><g><path d="m120.812 471.33h52.315s49.133 40.67 82.872 40.67c-97.665-30.364-114.074-137.112-116.569-182.561-7.761 2.068-15.452 4.303-22.637 6.676-14.961 4.941-27.729 10.475-34.352 16.323-.874.772-1.765 1.712-2.668 2.79-7.732 9.226-16.467 29.203-24.722 51.911-.001.009-.001.018-.002.026 17.68 25.299 40.016 47.101 65.762 64.172z" fill="#eabe8d"/></g><g><path d="m256 512c9.878 0 21.076-3.489 31.974-8.42-14.917-8.16-22.976-20.335-27.275-31.718-1.63-4.317-7.729-4.309-9.346.013-4.265 11.401-12.29 23.594-27.223 31.752 10.866 4.906 22.023 8.373 31.87 8.373z" fill="#eabe8d"/></g><g><path d="m276.616 369.362s10.767-11.809 23.703-11.809 55.191 11.809 55.191 11.809z" fill="#eabe8d"/></g><g><path d="m235.384 369.362s-10.767-11.809-23.703-11.809-55.191 11.809-55.191 11.809z" fill="#eabe8d"/></g><g><path d="m391.147 471.33c6.374-4.223 12.555-8.713 18.491-13.499-4.027-11.7-11.689-21.884-21.736-29.06v42.559z" fill="#eabe8d"/></g><g><path d="m124.098 471.33v-42.559c-10.047 7.176-17.708 17.36-21.736 29.06 5.936 4.786 12.117 9.277 18.491 13.499z" fill="#d8a97c"/></g><g><path d="m208.614 221.239v93.336s19.021 20.093 47.17 20.093c.073 0 .143-.005.216-.005 28.031-.103 47.386-20.088 47.386-20.088v-93.336z" fill="#f3d6ac"/></g><g><path d="m208.614 220.734v93.841c94.723 0 94.772-53.4 94.772-53.4v-40.44h-94.772z" fill="#eabe8d"/></g><g><path d="m180.942 160.072s-10.385-25.285-28.897-19.415.448 60.664 36.573 64.116z" fill="#eabe8d"/></g><g><path d="m196 92.356c-6.171 33.533-27.477 51.149-27.549 51.209-.029 1.226-.048 2.456-.048 3.695 0 64.505 39.219 140.155 87.597 140.155 39.611 0 73.076-50.717 83.906-104.506-92.184-9.194-143.906-90.553-143.906-90.553z" fill="#f8e6cc"/></g><g><path d="m208.403 147.259c0-12.042 1.369-23.451 3.908-34.046-10.742-12.096-16.311-20.857-16.311-20.857-6.171 33.533-27.477 51.149-27.549 51.209-.029 1.226-.048 2.456-.048 3.695 0 64.505 39.219 140.155 87.597 140.155 6.881 0 13.576-1.535 20-4.346-38.741-16.953-67.597-80.48-67.597-135.81z" fill="#f3d6ac"/></g><g><path d="m123.525 430.01c-5.083 11.116-6.792 23.941-3.878 37.022.604 2.713 1.146 4.246 1.165 4.298v.009c38.749 25.687 85.216 40.661 135.188 40.661-50.211-29.794-85.836-101.359-87.435-188.45-.058-3.163-3.008-5.477-6.092-4.774-7.283 1.659-14.914 3.508-22.491 5.517-2.18.578-3.696 2.53-3.728 4.785-.521 36.74-6.887 76.281-12.729 100.932z" fill="#e9efff"/></g><g><path d="m388.475 430.01c5.083 11.116 6.792 23.941 3.878 37.022-.604 2.713-1.146 4.246-1.165 4.298v.009c-38.749 25.687-85.216 40.661-135.188 40.661 50.211-29.794 85.836-101.359 87.435-188.45.058-3.163 3.008-5.477 6.092-4.774 7.283 1.659 14.914 3.508 22.491 5.517 2.18.578 3.696 2.53 3.728 4.785.521 36.74 6.887 76.281 12.729 100.932z" fill="#fff"/></g><g><g><path d="m256 242.667c-8.818 0-17.315-3.214-23.925-9.05-2.07-1.827-2.267-4.987-.439-7.057 1.827-2.071 4.987-2.267 7.058-.439 4.782 4.222 10.928 6.546 17.307 6.546s12.525-2.325 17.307-6.546c2.07-1.827 5.229-1.631 7.058.439 1.827 2.07 1.631 5.23-.439 7.057-6.612 5.837-15.109 9.05-23.927 9.05z" fill="#eabe8d"/></g></g><g><g><path d="m242.013 192.447 8.436-13.441c2.569-4.093 8.533-4.093 11.102 0l8.436 13.441c2.739 4.365-.398 10.038-5.551 10.038h-16.871c-5.154-.001-8.291-5.674-5.552-10.038z" fill="#f3d6ac"/></g></g><g><path d="m201.001 154.483c-.043 3.495 1.371 7.004 4.242 9.539 4.675 4.128 11.84 4.128 16.515 0 2.871-2.535 4.284-6.044 4.242-9.539-.055-4.538-5.629-6.716-8.838-3.507-2.022 2.022-5.3 2.022-7.322 0-3.21-3.209-8.784-1.031-8.839 3.507z" fill="#162544"/></g><g><path d="m196 128.036v.005c0 3.045 1.951 5.736 4.829 6.731 8.513 2.944 16.772 2.959 25.337-.003 2.88-.996 4.834-3.685 4.834-6.733 0-4.883-4.783-8.211-9.427-6.701-5.247 1.706-10.9 1.706-16.147 0-4.642-1.51-9.426 1.818-9.426 6.701z" fill="#ff9100"/></g></g></svg>