<svg id="Capa_1" enable-background="new 0 0 512 512" height="512" viewBox="0 0 512 512" width="512" xmlns="http://www.w3.org/2000/svg"><g><g><path d="m445.935 421.748c34.417-42.19 55.065-96.055 55.065-154.748 0-135.31-109.69-245-245-245s-245 109.69-245 245c0 58.693 20.649 112.558 55.065 154.748z" fill="#73c3f9"/></g><g><circle cx="256" cy="242" fill="#4fabf7" r="200"/></g><g><g><path d="m256 512c76.617 0 145.009-35.177 189.935-90.252 8.202-15.543 11.619-33.277 9.265-50.757-1.35-10.029-4.586-20.269-11.004-29.276-13.123-18.418-31.805-26.762-45.048-30.515-9.585-2.716-17.909-8.565-23.886-16.535-21.752-29.011-64.654-40.536-64.654-40.536h-109.217s-42.901 11.526-64.654 40.536c-5.976 7.97-14.301 13.819-23.885 16.535-13.243 3.753-31.926 12.097-45.049 30.515-6.417 9.007-9.654 19.247-11.004 29.276-2.353 17.48 1.063 35.214 9.266 50.757 44.926 55.075 113.318 90.252 189.935 90.252z" fill="#2d2296"/></g><g><path d="m390.989 307.979c-6.151-3.155-11.522-7.706-15.726-13.314-21.753-29.011-64.654-40.536-64.654-40.536h-109.218s-42.901 11.526-64.654 40.536c-4.205 5.608-9.576 10.159-15.727 13.314 33.396-11.096 84.508-4.289 121.609 38.276 7.051 8.09 19.71 8.09 26.761 0 37.101-42.566 88.213-49.372 121.609-38.276z" fill="#1c1784"/></g><g><path d="m389.427 420.695-19.054 27.065c-3.72 5.284-9.779 8.428-16.241 8.428h-63.983c-9.378 0-17.478-6.559-19.428-15.731l-8.723-41.027c-.602-2.832-3.103-4.857-5.998-4.857-2.895 0-5.396 2.025-5.998 4.857l-8.723 41.027c-1.95 9.173-10.05 15.731-19.428 15.731h-63.983c-6.462 0-12.521-3.144-16.241-8.428l-19.054-27.065c-4.13-5.866-13.246-1.086-10.77 5.647l9.391 25.533c1.197 3.255 1.421 6.789.645 10.169l-1.99 8.66c13.247 8.872 27.409 16.481 42.312 22.666.208-10.546 8.83-19.433 19.856-19.433h39.833c9.378 0 17.478 6.559 19.428 15.731l4.701 22.111c3.325.134 6.662.22 10.02.22s6.695-.087 10.02-.22l4.701-22.111c1.95-9.173 10.05-15.731 19.428-15.731h39.833c11.027 0 19.648 8.887 19.856 19.433 14.903-6.185 29.065-13.794 42.312-22.666l-1.99-8.66c-.777-3.38-.553-6.914.645-10.169l9.391-25.533c2.478-6.733-6.638-11.513-10.768-5.647z" fill="#1c1784"/></g></g><g><g><circle cx="376.571" cy="283.601" fill="#7255ce" r="10.475"/></g><g><circle cx="135.429" cy="283.601" fill="#7255ce" r="10.475"/></g><g><path d="m461.308 244.563c-24.372-80.126-100.109-71.525-76.511-47.327 22.354 12.336 39.283 32.919 46.447 56.472 4.332 14.241 4.391 27.728.169 37.975-4.268 10.356-14.021 17.919-23.191 17.984-.043 0-.085.001-.127.001-7.707-.001-16.578-4.982-23.759-13.35-6.332-7.38-11.182-16.516-16.316-26.188-1.196-2.253-2.392-4.504-3.608-6.739-11.036-20.281-26.185-35.904-45.024-46.435-18.267-10.212-39.594-15.389-63.387-15.389s-45.12 5.178-63.387 15.389c-18.839 10.531-33.988 26.155-45.024 46.435-1.216 2.235-2.412 4.486-3.608 6.739-5.134 9.672-9.984 18.807-16.316 26.188-7.18 8.368-16.052 13.35-23.759 13.35-.042 0-.084-.001-.127-.001-9.17-.065-18.923-7.629-23.191-17.984-4.223-10.247-4.163-23.734.169-37.975 7.164-23.553 24.093-44.136 46.447-56.472 23.598-24.198-52.139-32.798-76.511 47.327-4.555 14.973-8.106 37.381.841 59.092 9.163 22.235 30.069 37.279 52.022 37.435.116.001.234.002.35.002 17.005.001 34.337-8.845 47.608-24.311 8.604-10.028 14.511-21.155 20.224-31.917 1.145-2.157 2.289-4.313 3.453-6.453 16.401-30.139 43.59-45.421 80.81-45.421s64.409 15.282 80.81 45.421c1.164 2.139 2.308 4.295 3.453 6.453 5.712 10.761 11.62 21.888 20.224 31.917 13.271 15.466 30.603 24.312 47.608 24.311.116 0 .234-.001.35-.002 21.952-.155 42.858-15.2 52.022-37.435 8.945-21.712 5.394-44.119.839-59.092z" fill="#4432ad"/></g><g><path d="m322.503 238.368c-6.794-10.771-8.453-23.958-4.223-35.969 4.2-11.925 5.984-20.781 5.984-20.781v-38.344h-136.528v38.344s1.784 8.856 5.984 20.781c4.23 12.011 2.571 25.199-4.223 35.969-7.634 12.102-12.058 26.421-12.058 41.758v87.275c0 8.46 6.502 15.74 14.953 16.138 9.023.425 16.471-6.765 16.471-15.694v-87.718c0-4.644.676-9.133 1.935-13.373 2.741-9.233 13.428-13.444 21.754-8.602l.423.246c4.527 2.632 7.312 7.473 7.312 12.71v29.898c0 8.677 7.035 15.712 15.712 15.712 8.677 0 15.712-7.035 15.712-15.712v-29.898c0-5.236 2.784-10.076 7.31-12.708l.425-.247c8.325-4.842 19.012-.632 21.753 8.6 1.259 4.241 1.936 8.73 1.936 13.375v87.275c0 8.46 6.502 15.74 14.953 16.138 9.023.425 16.471-6.765 16.471-15.694v-87.718c.001-15.34-4.423-29.658-12.056-41.761z" fill="#7255ce"/></g><g><path d="m187.736 181.617s1.784 8.856 5.984 20.781c4.23 12.011 2.571 25.199-4.223 35.969-7.634 12.102-12.058 26.421-12.058 41.758v87.275c0 8.46 6.502 15.74 14.953 16.138 9.023.425 16.471-6.765 16.471-15.694v-87.718c0-4.644.676-9.133 1.935-13.373 2.741-9.233 13.428-13.444 21.754-8.602l.423.246c4.527 2.632 7.312 7.473 7.312 12.71v29.898c0 8.677 7.035 15.712 15.712 15.712 8.678 0 15.712-7.034 15.712-15.712v-29.898c-29.315-18.796-46.895-60.551-49.124-127.833h-34.852v38.343z" fill="#5c45bf"/></g><g><g><circle cx="311.049" cy="194.439" fill="#e9efff" r="21.389"/></g><g><circle cx="311.049" cy="194.439" fill="#162544" r="11.955"/></g></g><g><g><circle cx="200.951" cy="194.439" fill="#e9efff" r="21.389"/></g><g><circle cx="200.951" cy="194.439" fill="#162544" r="11.955"/></g></g><g><circle cx="107.526" cy="209.075" fill="#7255ce" r="10.475"/></g><g><circle cx="77.216" cy="246.516" fill="#7255ce" r="10.475"/></g><g><circle cx="86.577" cy="300.717" fill="#7255ce" r="10.475"/></g><g><circle cx="404.474" cy="209.075" fill="#7255ce" r="10.475"/></g><g><circle cx="434.784" cy="246.516" fill="#7255ce" r="10.475"/></g><g><circle cx="425.423" cy="300.717" fill="#7255ce" r="10.475"/></g><g><circle cx="205.498" cy="346.717" fill="#7255ce" r="10.475"/></g><g><circle cx="306.502" cy="346.717" fill="#816cd8" r="10.475"/></g><g><circle cx="256" cy="104.747" fill="#5c45bf" r="104.747"/></g><g><path d="m236.715 178.814c-40.906-40.906-40.906-107.228 0-148.134 13.421-13.421 29.578-22.439 46.676-27.053-35.014-9.45-73.973-.432-101.459 27.053-40.906 40.906-40.906 107.228 0 148.134 27.485 27.485 66.444 36.503 101.459 27.053-17.097-4.614-33.255-13.632-46.676-27.053z" fill="#4432ad"/></g><g><circle cx="306.502" cy="125.592" fill="#4432ad" r="13.696"/></g><g><circle cx="283.391" cy="88.138" fill="#4432ad" r="9.13"/></g><g><circle cx="186.57" cy="140.978" fill="#2d2296" r="9.13"/></g></g></g></svg>