<svg id="Capa_1" enable-background="new 0 0 512 512" height="512" viewBox="0 0 512 512" width="512" xmlns="http://www.w3.org/2000/svg"><g><g><path d="m456.951 407.166c27.755-39.718 44.049-88.036 44.049-140.166 0-135.31-109.69-245-245-245s-245 109.69-245 245c0 52.13 16.294 100.448 44.049 140.166z" fill="#ffdd40"/></g><g><circle cx="256" cy="242" fill="#ffc839" r="200"/></g><g><ellipse cx="256" cy="345.977" fill="#a05838" rx="180" ry="80"/></g><g><path d="m378.774 56.872c4.46 0 6.705-5.412 3.533-8.546-25.851-25.541-66.988-42.94-126.307-42.94s-100.456 17.399-126.306 42.94c-3.173 3.135-.927 8.546 3.533 8.546h10.571s-14.847 25.849-9.923 56.361c.657 4.073 5.678 5.661 8.543 2.692l10.158-10.523s-5.193 25.885.424 49.827h206c5.617-23.941.424-49.827.424-49.827l10.158 10.523c2.866 2.969 7.886 1.381 8.543-2.692 4.924-30.512-9.923-56.361-9.923-56.361z" fill="#2d3c6b"/></g><g><path d="m133.226 56.872h10.571s-14.847 25.849-9.923 56.361c.657 4.073 5.678 5.661 8.543 2.692l10.158-10.523s-5.193 25.885.424 49.827h68.042v-72.476c-13.261-34.9 8.257-77.367 34.959-77.367-59.319 0-100.456 17.399-126.306 42.94-3.173 3.135-.928 8.546 3.532 8.546z" fill="#213159"/></g><g><path d="m185.693 165.835c4.281 9.642-.591 20.92-10.338 24.957-9.746 4.037-20.92-.591-24.957-10.338-4.037-9.746-7.339-17.717-13.702-33.079s32.54-18.606 48.997 18.46z" fill="#21b75d"/></g><g><path d="m326.307 165.835c-4.281 9.642.591 20.92 10.338 24.957 9.746 4.037 20.92-.591 24.957-10.338 4.037-9.746 7.339-17.717 13.702-33.079 6.363-15.361-32.54-18.606-48.997 18.46z" fill="#38c674"/></g><g><path d="m256 512c83.18 0 156.665-41.461 200.951-104.835-.001-.009-.001-.017-.002-.026-8.256-22.709-16.99-42.685-24.722-51.911-.904-1.078-1.794-2.019-2.668-2.79-6.623-5.848-19.39-11.382-34.352-16.323-37.928-12.525-89.968-21.232-91.82-21.54h-94.772c-1.853.307-53.892 9.014-91.82 21.54-14.961 4.941-27.729 10.475-34.352 16.323-.874.772-1.765 1.712-2.668 2.79-7.732 9.226-16.467 29.203-24.722 51.911-.001.009-.001.018-.002.026 44.284 63.374 117.769 104.835 200.949 104.835z" fill="#21b75d"/></g><g><path d="m139.431 329.439c-7.761 2.068-15.452 4.303-22.637 6.676-14.961 4.941-27.729 10.475-34.352 16.323-.874.772-1.765 1.712-2.668 2.79-7.732 9.226-16.467 29.203-24.722 51.911-.001.009-.001.018-.002.026 44.285 63.374 117.77 104.835 200.95 104.835-97.665-30.364-114.074-137.112-116.569-182.561z" fill="#14a34d"/></g><g><path d="m276.616 369.362s10.767-11.809 23.703-11.809 55.191 11.809 55.191 11.809z" fill="#14a34d"/></g><g><path d="m235.384 369.362s-10.767-11.809-23.703-11.809-55.191 11.809-55.191 11.809z" fill="#14a34d"/></g><g><path d="m208.614 221.239v93.336s19.021 20.093 47.17 20.093c.073 0 .143-.005.216-.005 28.031-.103 47.386-20.088 47.386-20.088v-93.336z" fill="#21b75d"/></g><g><path d="m208.614 220.734v93.841c94.723 0 94.772-53.4 94.772-53.4v-40.44h-94.772z" fill="#14a34d"/></g><g><path d="m91.07 426.843v21.327c7.157 6.519 14.704 12.617 22.599 18.262l-12.035-41.103c-1.75-5.98-10.564-4.716-10.564 1.514z" fill="#0c913c"/></g><g><path d="m420.93 426.843v21.327c-7.157 6.519-14.704 12.617-22.599 18.262l12.035-41.103c1.75-5.98 10.564-4.716 10.564 1.514z" fill="#14a34d"/></g><g><g><path d="m310.387 84.681c-1.682 5.231-3.895 10.768-6.796 16.554-1.217 2.426-4.725 2.276-5.691-.26-2.774-7.282-6.941-18.22-6.941-18.221-6.205 14.036-16.409 28.814-33.112 41.314h-3.693c-16.703-12.501-26.908-27.279-33.112-41.314-.001.001-4.167 10.938-6.941 18.221-.966 2.535-4.474 2.687-5.691.262-2.858-5.699-5.048-11.156-6.721-16.317l-36.354 57.248-.001-.001c-.034 1.349-.057 2.702-.057 4.067 0 66.807 40.618 145.158 90.724 145.158s90.724-78.351 90.724-145.158c0-1.49-.027-2.967-.067-4.438z" fill="#49d88b"/></g><g><path d="m206.704 146.232c0-15.835 2.292-30.608 6.441-43.944-1.443 1.157-3.786.841-4.736-1.052-2.858-5.699-5.048-11.156-6.721-16.317l-36.354 57.248-.001-.001c-.034 1.349-.057 2.702-.057 4.067 0 66.807 40.618 145.158 90.724 145.158 7.127 0 14.061-1.589 20.714-4.501-40.124-17.56-70.01-83.353-70.01-140.658z" fill="#38c674"/></g></g><g><path d="m201.001 162.085c-.043-3.495 1.371-7.004 4.242-9.539 4.675-4.128 11.84-4.128 16.515 0 2.871 2.535 4.284 6.044 4.242 9.539-.055 4.538-5.629 6.716-8.838 3.507-2.022-2.022-5.3-2.022-7.322 0-3.21 3.21-8.784 1.032-8.839-3.507z" fill="#162544"/></g><g><path d="m310.999 162.085c.043-3.495-1.371-7.004-4.242-9.539-4.675-4.128-11.84-4.128-16.515 0-2.871 2.535-4.284 6.044-4.242 9.539.055 4.538 5.629 6.716 8.838 3.507 2.022-2.022 5.3-2.022 7.322 0 3.21 3.21 8.784 1.032 8.839-3.507z" fill="#162544"/></g><g><path d="m196 132.917v-.005c0-3.045 1.951-5.736 4.829-6.731 8.513-2.944 16.772-2.959 25.337.003 2.88.996 4.834 3.685 4.834 6.733 0 4.883-4.783 8.211-9.427 6.701-5.247-1.706-10.9-1.706-16.147 0-4.642 1.51-9.426-1.818-9.426-6.701z" fill="#213159"/></g><g><path d="m316 132.917v-.005c0-3.045-1.951-5.736-4.829-6.731-8.513-2.944-16.772-2.959-25.337.003-2.88.996-4.834 3.685-4.834 6.733 0 4.883 4.783 8.211 9.427 6.701 5.247-1.706 10.9-1.706 16.147 0 4.643 1.51 9.426-1.818 9.426-6.701z" fill="#213159"/></g><g><path d="m256 512c27.792 0 54.498-4.635 79.398-13.162l-44.768-7.557c-8.391-1.416-14.967-7.988-16.39-16.378l-12.405-73.165c-.483-2.847-2.949-4.93-5.836-4.93-2.887 0-5.353 2.083-5.836 4.93l-12.405 73.165c-1.423 8.39-7.998 14.961-16.39 16.378l-44.768 7.557c24.902 8.527 51.608 13.162 79.4 13.162z" fill="#14a34d"/></g><g><ellipse cx="256" cy="30" fill="#f8e6cc" rx="60" ry="30"/></g><g><path d="m236 30c0-13.061 16.699-24.167 40-28.286-6.257-1.106-12.985-1.714-20-1.714-33.137 0-60 13.431-60 30s26.863 30 60 30c7.015 0 13.743-.608 20-1.714-23.301-4.119-40-15.225-40-28.286z" fill="#f3d6ac"/></g><g><path d="m261.006 278.826c18.727-10.968 50.598-35.749 54.581-78.474.463-4.966-2.874-9.492-7.733-10.615-23.714-5.479-37.951-14.968-45.35-21.393-3.723-3.233-9.286-3.233-13.009 0-7.399 6.425-21.636 15.915-45.35 21.393-4.859 1.123-8.196 5.649-7.733 10.615 3.983 42.725 35.854 67.506 54.581 78.474 3.089 1.808 6.925 1.808 10.013 0z" fill="#ffdd40"/></g><g><path d="m236.413 200.351c-.463-4.966 2.874-9.492 7.733-10.615 13.553-3.131 24-7.573 31.854-12.003-5.888-3.322-10.325-6.637-13.495-9.39-3.723-3.233-9.286-3.233-13.009 0-7.399 6.425-21.636 15.915-45.35 21.393-4.859 1.123-8.196 5.649-7.733 10.615 3.983 42.725 35.854 67.506 54.581 78.474 3.088 1.808 6.925 1.808 10.013 0 4.44-2.601 9.622-5.989 14.994-10.198-17.283-13.541-36.55-35.682-39.588-68.276z" fill="#ffc839"/></g><g><path d="m284.901 210.688c-8.605 0-15.606-7.001-15.606-15.606 0-2.762 2.238-5 5-5s5 2.238 5 5c0 3.092 2.515 5.606 5.606 5.606 2.762 0 5 2.238 5 5s-2.238 5-5 5z" fill="#ffb332"/></g><g><path d="m227.099 210.688c-2.762 0-5-2.238-5-5s2.238-5 5-5c3.092 0 5.606-2.515 5.606-5.606 0-2.762 2.238-5 5-5s5 2.238 5 5c0 8.605-7.001 15.606-15.606 15.606z" fill="#ffb332"/></g></g></svg>