<svg id="Capa_1" enable-background="new 0 0 512 512" height="512" viewBox="0 0 512 512" width="512" xmlns="http://www.w3.org/2000/svg"><g><g><path d="m456.951 407.166c27.755-39.718 44.049-88.036 44.049-140.166 0-135.31-109.69-245-245-245s-245 109.69-245 245c0 52.13 16.294 100.448 44.049 140.166z" fill="#2d3c6b"/></g><g><circle cx="256" cy="242" fill="#213159" r="200"/></g><g><path d="m256 512c83.18 0 156.665-41.461 200.951-104.835-.001-.009-.001-.017-.002-.026-8.256-22.709-16.99-42.685-24.722-51.911-.904-1.078-1.794-2.019-2.668-2.79-6.623-5.848-19.39-11.382-34.352-16.323-37.928-12.525-89.968-21.232-91.82-21.54h-94.772c-1.853.307-53.892 9.014-91.82 21.54-14.961 4.941-27.729 10.475-34.352 16.323-.874.772-1.765 1.712-2.668 2.79-7.732 9.226-16.467 29.203-24.722 51.911-.001.009-.001.018-.002.026 44.284 63.374 117.769 104.835 200.949 104.835z" fill="#dae2fe"/></g><g><path d="m139.431 329.439c-7.761 2.068-15.452 4.303-22.637 6.676-14.961 4.941-27.729 10.475-34.352 16.323-.874.772-1.765 1.712-2.668 2.79-7.732 9.226-16.467 29.203-24.722 51.911-.001.009-.001.018-.002.026 44.285 63.374 117.77 104.835 200.95 104.835-97.665-30.364-114.074-137.112-116.569-182.561z" fill="#bec8f7"/></g><g><path d="m91.07 426.843v21.327c7.157 6.519 14.704 12.617 22.599 18.262l-12.035-41.103c-1.75-5.98-10.564-4.716-10.564 1.514z" fill="#acbbef"/></g><g><path d="m420.93 426.843v21.327c-7.157 6.519-14.704 12.617-22.599 18.262l12.035-41.103c1.75-5.98 10.564-4.716 10.564 1.514z" fill="#bec8f7"/></g><g><path d="m256 512c27.792 0 54.498-4.635 79.398-13.162l-44.768-7.557c-8.391-1.416-14.967-7.988-16.39-16.378l-12.405-73.165c-.483-2.847-2.949-4.93-5.836-4.93-2.887 0-5.353 2.083-5.836 4.93l-12.405 73.165c-1.423 8.39-7.998 14.961-16.39 16.378l-44.768 7.557c24.902 8.527 51.608 13.162 79.4 13.162z" fill="#bec8f7"/></g><g><path d="m427.242 327.456-93.596-12.881-155.828.074-93.061 12.806c-9.355 1.287-14.305 11.839-9.228 19.802 37.967 59.558 104.605 99.062 180.471 99.062s142.503-39.503 180.47-99.061c5.077-7.963.127-18.515-9.228-19.802z" fill="#ff9100"/></g><g><path d="m427.242 327.456-6.267-.863c-39.227 47.494-98.565 77.764-164.975 77.764s-125.748-30.27-164.975-77.765l-6.267.863c-9.355 1.287-14.305 11.839-9.228 19.802 37.967 59.558 104.605 99.062 180.471 99.062s142.503-39.503 180.47-99.061c5.076-7.963.126-18.515-9.229-19.802z" fill="#ffb332"/></g><g><path d="m208.614 221.239v93.336s19.021 20.093 47.17 20.093c.073 0 .143-.005.216-.005 28.031-.103 47.386-20.088 47.386-20.088v-93.336z" fill="#bec8f7"/></g><g><path d="m208.614 220.734v93.841c94.723 0 94.772-53.4 94.772-53.4v-40.44h-94.772z" fill="#acbbef"/></g><g><g><path d="m214.152 339.237v-30.689l-12.514-15.345 12.514-15.345v-237.081l-59.155 17.18-.507 1.142-16.974 3.934c-4.019 7.14-8.399 17.835-12.907 30.689l8.264 15.345-18.137 15.345c-2.954 9.861-5.893 20.212-8.755 30.689l8.755 15.453-16.86 15.236c-2.716 10.611-5.288 20.973-7.649 30.689l15.241 15.345-22.528 15.345c-3.053 13.159-5.262 23.07-6.292 27.735-.216.977-.377 1.963-.485 2.955l27.525 30.689c13.988 0 25.328 11.34 25.328 25.328 0 1.807.092 3.591.233 5.361l17.07 15.345-6.716 15.345c11.873 18.455 32.577 30.689 56.152 30.689h8.913c5.237 0 9.483-4.246 9.483-9.483v-21.206l-10.471-15.345z" fill="#ffc839"/></g><g><path d="m97.876 185.79h116.275v-30.689h-108.17c-2.795 10.229-5.515 20.57-8.105 30.689z" fill="#1a7fd3"/></g><g><path d="m82.94 247.169h131.212v-30.689h-123.925c-2.749 11.312-5.213 21.751-7.287 30.689z" fill="#1a7fd3"/></g><g><path d="m214.152 277.858h-137.989c-.108.995-.163 1.997-.163 3.001 0 15.291 12.396 27.688 27.687 27.688h.014 110.451z" fill="#1a7fd3"/></g><g><path d="m139.603 369.926h74.548v-30.689h-84.903c.896 11.247 4.575 21.704 10.355 30.689z" fill="#1a7fd3"/></g><g><path d="m114.736 124.412h99.416v-30.689h-89.543c-3.253 9.274-6.572 19.67-9.873 30.689z" fill="#1a7fd3"/></g><g><path d="m365.681 354.581 17.07-15.345c.141-1.771.233-3.555.233-5.361 0-13.988 11.34-25.328 25.328-25.328l27.525-30.689c-.108-.992-.27-1.977-.485-2.955-1.029-4.664-3.238-14.575-6.292-27.735l-22.528-15.344 15.241-15.345c-2.361-9.717-4.934-20.078-7.649-30.689l-16.859-15.236 8.755-15.453c-2.862-10.477-5.801-20.828-8.755-30.689l-18.137-15.345 8.264-15.345c-4.508-12.854-8.888-23.55-12.907-30.689l-16.974-3.934-.507-1.142-59.155-17.18v237.081l12.514 15.345-12.514 15.345v30.689l10.471 15.345-10.471 15.345v21.206c0 5.237 4.246 9.483 9.483 9.483h8.913c23.575 0 44.279-12.234 56.152-30.689z" fill="#ffdd40"/></g><g><path d="m414.124 185.79h-116.276v-30.689h108.172c2.794 10.229 5.514 20.57 8.104 30.689z" fill="#2e8be6"/></g><g><path d="m429.06 247.169h-131.212v-30.689h123.925c2.749 11.312 5.213 21.751 7.287 30.689z" fill="#2e8be6"/></g><g><path d="m297.848 277.858h137.989c.108.995.163 1.997.163 3.001 0 15.291-12.396 27.688-27.688 27.688-.005 0-.009 0-.014 0h-110.45z" fill="#2e8be6"/></g><g><path d="m372.397 369.926h-74.549v-30.689h84.903c-.895 11.247-4.574 21.704-10.354 30.689z" fill="#2e8be6"/></g><g><path d="m397.264 124.412h-99.416v-30.689h89.543c3.253 9.274 6.572 19.67 9.873 30.689z" fill="#2e8be6"/></g><g><path d="m374.484 63.033-16.974-3.934-8.682-19.547c-10.591-7.241-22.652-13.393-35.355-18.159l-19.541 10.032-18.459-19.673c-6.563-.881-13.089-1.354-19.474-1.354s-12.911.473-19.474 1.354l-18.459 19.673-19.541-10.032c-12.703 4.766-24.764 10.918-35.355 18.159l-8.682 19.547-16.974 3.934s9.796 6.825 14.087 36.21l.004-.015 104.395 15.205 104.393-15.204.006.002c4.292-29.375 14.085-36.198 14.085-36.198z" fill="#ffdd40"/></g><g><path d="m151.603 99.244.005-.015 26.02 3.79c-4.819-21.156-9.637-42.311-14.456-63.466-10.135 6.929-18.929 14.846-25.655 23.481-.001-.001 9.794 6.824 14.086 36.21z" fill="#4fabf7"/></g><g><path d="m241.021 112.251c-1.499-33.5-2.997-66.999-4.495-100.499-12.774 1.714-25.686 5.021-37.999 9.64 3.887 28.789 7.773 57.578 11.66 86.367z" fill="#4fabf7"/></g><g><path d="m301.814 107.76c3.887-28.789 7.773-57.578 11.66-86.367-12.313-4.62-25.226-7.926-37.999-9.64-1.499 33.5-2.997 66.999-4.496 100.499z" fill="#4fabf7"/></g><g><path d="m360.393 99.229.006.002c4.292-29.375 14.085-36.198 14.085-36.198-6.726-8.635-15.52-16.552-25.655-23.481-4.818 21.155-9.637 42.311-14.456 63.466z" fill="#4fabf7"/></g><g><path d="m169.398 136.86c2.99-8.97 7.293-17.227 12.634-24.609h147.936c5.341 7.382 9.644 15.639 12.634 24.609l9.708 29.125c10.236 30.707-1.347 64.466-28.279 82.42-17.059 11.372-37.102 17.441-57.604 17.441h-20.856c-20.502 0-40.545-6.069-57.604-17.441-26.932-17.954-38.515-51.713-28.279-82.42z" fill="#dae2fe"/></g><g><path d="m198.119 165.986 9.708-29.125c2.99-8.97 7.294-17.227 12.634-24.609h-38.429c-5.341 7.382-9.644 15.639-12.634 24.609l-9.708 29.125c-10.236 30.707 1.347 64.466 28.279 82.42 17.059 11.373 37.102 17.441 57.604 17.441h20.856c2.941 0 5.872-.129 8.787-.376-17.404-1.478-34.205-7.324-48.817-17.065-26.933-17.955-38.516-51.713-28.28-82.42z" fill="#bec8f7"/></g><g><path d="m198.76 145.56c14.18-.278 25.773 11.315 25.495 25.495-.265 13.485-12.084 24.5-25.572 24.5-7.966 0-14.424 6.458-14.424 14.424v3.256c0 2.761-2.239 5-5 5-2.761 0-5-2.239-5-5v-42.103c.001-13.488 11.016-25.308 24.501-25.572z" fill="#3c5082"/></g><g><path d="m199.778 112.251c1.76 7.465 7.066 14.148 15.604 16.954 8.525 2.802 14.725 10.195 15.997 19.078l3.903 27.244h41.434l3.903-27.244c1.273-8.883 7.472-16.276 15.997-19.078 8.538-2.806 13.844-9.489 15.604-16.954z" fill="#bec8f7"/></g><g><path d="m281 177.029c0 13.807-11.193 42.518-25 42.518s-25-28.711-25-42.518 50-13.807 50 0z" fill="#ffdd40"/></g><g><path d="m247.831 177.029c0-5.327 7.443-8.596 16.585-9.813-14.554-1.937-33.415 1.332-33.415 9.813 0 13.807 11.193 42.518 25 42.518 2.953 0 5.785-1.321 8.415-3.521-9.667-8.087-16.585-28.143-16.585-38.997z" fill="#ffc839"/></g><g><circle cx="199.26" cy="170.554" fill="#162544" r="10"/></g><g><path d="m313.24 145.56c-14.18-.278-25.773 11.315-25.495 25.495.265 13.485 12.084 24.5 25.572 24.5 7.966 0 14.424 6.458 14.424 14.424v3.256c0 2.761 2.239 5 5 5 2.761 0 5-2.239 5-5v-42.103c-.001-13.488-11.016-25.308-24.501-25.572z" fill="#3c5082"/></g><g><circle cx="312.74" cy="170.554" fill="#162544" r="10"/></g><g><path d="m151.607 99.229c.564 3.861 1.032 8.111 1.371 12.787.718 9.912 8.975 17.591 18.914 17.591h84.108 84.108c9.938 0 18.195-7.679 18.914-17.591.339-4.676.807-8.926 1.371-12.787z" fill="#ffc839"/></g><g><path d="m256 148.573c-10.721 0-19.651-8.218-20.542-18.901l-7.908-94.898h56.899l-7.908 94.898c-.89 10.683-9.821 18.901-20.541 18.901z" fill="#ffb332"/></g><g><path d="m281.876 65.653 2.573-30.879h-56.899l7.908 94.898c.89 10.683 9.821 18.901 20.542 18.901 3.992 0 7.733-1.142 10.906-3.124-5.349-3.34-9.077-9.072-9.636-15.777l-4.708-56.497c1.154.097 2.301.149 3.438.149 8.498 0 17.549-2.734 25.876-7.671z" fill="#ff9100"/></g><g><path d="m256 59.099c17.07 0 37.933-17.038 37.933-32.761s-16.15-26.338-37.933-26.338-37.933 10.616-37.933 26.338 20.863 32.761 37.933 32.761z" fill="#ffdd40"/></g><g><path d="m246.517 26.338c0-12.043 9.482-21.084 23.708-24.658-4.346-1.092-9.128-1.68-14.225-1.68-21.783 0-37.933 10.616-37.933 26.338s20.863 32.761 37.933 32.761c4.627 0 9.531-1.26 14.225-3.398-12.621-5.751-23.708-17.903-23.708-29.363z" fill="#ffc839"/></g><g><path d="m193.846 114.418c0-8.389 6.8-15.189 15.189-15.189h-57.427c.564 3.861 1.032 8.111 1.371 12.787.718 9.912 8.975 17.591 18.914 17.591h37.143c-8.39-.001-15.19-6.801-15.19-15.189z" fill="#ffb332"/></g></g></g></svg>