<svg height="512pt" viewBox="-11 0 512 512" width="512pt" xmlns="http://www.w3.org/2000/svg"><path d="m490 267c0 135.308594-109.691406 245-245 245s-245-109.691406-245-245 109.691406-245 245-245 245 109.691406 245 245zm0 0" fill="#2cb0f2"/><path d="m407 360h-31.949219l-87.082031 84.632812-5.757812 26.5c-1.664063 7.644532-9.386719 13.867188-17.210938 13.867188h-40c-7.824219 0-15.546875-6.222656-17.210938-13.867188l-5.757812-26.5-87.082031-84.632812h-31.949219c-8.25 0-15 6.75-15 15v61.390625c44.601562 46.589844 107.410156 75.609375 177 75.609375s132.398438-29.019531 177-75.609375v-61.390625c0-8.25-6.75-15-15-15zm0 0" fill="#231f20"/><path d="m98 375c0-8.25 6.75-15 15-15h-30c-8.25 0-15 6.75-15 15v61.390625c9.246094 9.660156 19.289062 18.550781 30 26.601563zm0 0"/><path d="m461.457031 269.023438c-1.476562-3.640626-5.015625-6.023438-8.941406-6.023438h-118.78125l-16.101563 22.035156c-.5625.765625-.9375 1.667969-1.082031 2.605469-2.21875 14.015625-10.34375 26.019531-21.550781 33.636719v18.191406l7.953125-3.6875c.796875-.367188 1.648437-.554688 2.527344-.554688 1.152343 0 2.273437.324219 3.242187.945313 1.738282 1.109375 2.777344 3.007813 2.777344 5.070313v67.042968c0 2.066406-1.039062 3.960938-2.777344 5.070313-.96875.621093-2.089844.949219-3.242187.949219-.878907 0-1.730469-.191407-2.53125-.558594l-7.507813-3.480469-7.855468 36.132813 171.65625-166.828126c2.816406-2.738281 3.691406-6.910156 2.214843-10.546874zm0 0" fill="#ea2a3d"/><path d="m194.558594 410.265625-7.511719 3.480469c-.785156.363281-1.660156.558594-2.527344.558594-1.152343 0-2.273437-.328126-3.242187-.949219-1.738282-1.109375-2.777344-3.003907-2.777344-5.070313v-67.042968c0-2.0625 1.039062-3.960938 2.777344-5.070313.96875-.621094 2.089844-.945313 3.242187-.945313.878907 0 1.730469.1875 2.527344.554688l7.953125 3.6875v-18.191406c-11.207031-7.617188-19.332031-19.621094-21.550781-33.640625-.144531-.9375-.519531-1.835938-1.082031-2.601563l-16.101563-22.035156h-118.78125c-3.929687 0-7.464844 2.382812-8.941406 6.023438-1.476563 3.636718-.601563 7.808593 2.214843 10.546874l171.65625 166.828126zm0 0" fill="#ea2a3d"/><path d="m291.90625 67.28125c-16.128906 0-31.601562 5.902344-43.570312 16.617188-.949219.851562-2.144532 1.277343-3.335938 1.277343s-2.386719-.425781-3.335938-1.277343c-11.96875-10.714844-27.441406-16.617188-43.570312-16.617188-36.101562 0-65.472656 29.371094-65.472656 65.472656v82.242188c0 9.566406 4.59375 23.632812 10.238281 31.359375l28.703125 39.269531c.46875.640625.777344 1.386719.898438 2.171875 2.230468 14.109375 10.335937 26.222656 21.539062 34.003906v16.101563l-6.53125-3.027344c-.941406-.433594-1.945312-.648438-2.949219-.648438-1.320312 0-2.632812.371094-3.78125 1.101563-2.015625 1.289063-3.238281 3.519531-3.238281 5.914063v67.042968c0 2.394532 1.222656 4.625 3.238281 5.914063 1.148438.734375 2.460938 1.105469 3.78125 1.105469 1 0 2.007813-.214844 2.949219-.652344l6.378906-2.957032 12.964844 59.648438c1.753906 8.0625 9.9375 14.65625 18.1875 14.65625h40c8.25 0 16.433594-6.59375 18.183594-14.65625l12.96875-59.648438 6.378906 2.957032c.9375.4375 1.945312.652344 2.949219.652344 1.320312 0 2.632812-.371094 3.777343-1.105469 2.019532-1.289063 3.238282-3.519531 3.238282-5.914063v-67.042968c0-2.394532-1.21875-4.625-3.238282-5.914063-1.144531-.730469-2.457031-1.101563-3.777343-1.101563-1.003907 0-2.011719.214844-2.949219.648438l-6.53125 3.027344v-16.097656c11.203125-7.785157 19.304688-19.898438 21.535156-34.007813.125-.785156.433594-1.527344.902344-2.167969l28.703125-39.273437c5.644531-7.726563 10.238281-21.792969 10.238281-31.359375v-82.238282c0-36.105468-29.371094-65.476562-65.472656-65.476562zm0 0" fill="#b7092b"/><path d="m194.558594 410.265625-7.511719 3.480469c-.785156.363281-1.660156.558594-2.527344.558594-1.152343 0-2.273437-.328126-3.242187-.949219-1.738282-1.109375-2.777344-3.003907-2.777344-5.070313v-15.417968l-116.574219-113.296876c-2.816406-2.738281-3.695312-6.910156-2.214843-10.550781 1.476562-3.640625 5.011718-6.019531 8.941406-6.019531h-31.167969c-3.929687 0-7.464844 2.378906-8.941406 6.019531-1.476563 3.640625-.601563 7.8125 2.214843 10.550781l171.65625 166.828126zm0 0" fill="#b7092b"/><path d="m261.933594 394.734375-.484375.390625c-4.640625 3.75-10.480469 5.816406-16.449219 5.816406s-11.808594-2.066406-16.445312-5.816406l-.484376-.390625-34.4375 15.960937 13.183594 60.648438c1.753906 8.058594 9.9375 14.65625 18.1875 14.65625h40c8.25 0 16.433594-6.597656 18.183594-14.65625l13.183594-60.648438zm0 0" fill="#fff"/><path d="m227.664062 471.34375-15.089843-69.429688-18.945313 8.78125 13.183594 60.648438c1.753906 8.0625 9.9375 14.65625 18.1875 14.65625h20.851562c-8.25 0-16.433593-6.597656-18.1875-14.65625zm0 0" fill="#eef6ff"/><path d="m228.066406 354.796875.484375-.394531c4.640625-3.75 10.480469-5.816406 16.449219-5.816406s11.808594 2.066406 16.445312 5.816406l.484376.394531 34.070312-15.789063v-18.414062c-8.296875 5.929688-18.390625 9.40625-29.085938 9.40625h-43.828124c-10.695313 0-20.789063-3.476562-29.085938-9.40625v18.414062zm0 0" fill="#eef6ff"/><path d="m214 348.273438v-19.121094c-7.289062-1.367188-14.101562-4.339844-20-8.558594v18.414062zm0 0" fill="#d9eafc"/><path d="m309.261719 335.328125c-1.148438-.730469-2.460938-1.101563-3.78125-1.101563-1.003907 0-2.007813.214844-2.949219.648438l-41.484375 19.226562c6.160156 4.796876 10.132813 12.269532 10.132813 20.664063 0 8.390625-3.972657 15.867187-10.132813 20.660156l41.484375 19.226563c.941406.4375 1.945312.652344 2.949219.652344 1.320312 0 2.632812-.375 3.78125-1.105469 2.015625-1.289063 3.238281-3.519531 3.238281-5.914063v-67.042968c0-2.394532-1.222656-4.625-3.238281-5.914063zm0 0" fill="#a00026"/><path d="m218.820312 374.765625c0-8.390625 3.976563-15.867187 10.132813-20.660156l-41.484375-19.226563c-.941406-.4375-1.945312-.652344-2.949219-.652344-1.320312 0-2.632812.371094-3.777343 1.101563-2.019532 1.292969-3.242188 3.523437-3.242188 5.917969v67.039062c0 2.398438 1.222656 4.625 3.242188 5.917969 1.144531.730469 2.457031 1.101563 3.777343 1.101563 1.003907 0 2.011719-.214844 2.949219-.652344l41.484375-19.226563c-6.15625-4.792969-10.132813-12.269531-10.132813-20.660156zm0 0" fill="#b7092b"/><path d="m198 408.285156v-67.042968c0-.480469.0625-.949219.15625-1.410157l-10.6875-4.953125c-.941406-.4375-1.945312-.652344-2.949219-.652344-1.320312 0-2.632812.371094-3.777343 1.101563-2.019532 1.292969-3.242188 3.523437-3.242188 5.917969v67.039062c0 2.398438 1.222656 4.625 3.242188 5.917969 1.144531.730469 2.457031 1.101563 3.777343 1.101563 1.003907 0 2.011719-.214844 2.949219-.652344l10.6875-4.953125c-.09375-.460938-.15625-.933594-.15625-1.414063zm0 0" fill="#a00026"/><path d="m272.179688 374.765625c0 15.007813-12.167969 27.175781-27.179688 27.175781s-27.179688-12.167968-27.179688-27.175781c0-15.011719 12.167969-27.179687 27.179688-27.179687s27.179688 12.167968 27.179688 27.179687zm0 0" fill="#b7092b"/><path d="m231.644531 374.765625c0-12.621094 8.605469-23.230469 20.265625-26.289063-2.207031-.578124-4.519531-.890624-6.910156-.890624-15.007812 0-27.175781 12.167968-27.175781 27.179687 0 15.007813 12.167969 27.175781 27.175781 27.175781 2.390625 0 4.703125-.308594 6.910156-.890625-11.660156-3.054687-20.265625-13.664062-20.265625-26.285156zm0 0" fill="#a00026"/><g fill="#333031"><path d="m255 423c0 5.523438-4.476562 10-10 10s-10-4.476562-10-10 4.476562-10 10-10 10 4.476562 10 10zm0 0"/><path d="m255 463c0 5.523438-4.476562 10-10 10s-10-4.476562-10-10 4.476562-10 10-10 10 4.476562 10 10zm0 0"/><path d="m133.621094 142.535156v-9.777344c0-35.550781 28.921875-64.472656 64.472656-64.472656 15.878906 0 31.117188 5.808594 42.902344 16.359375 1.105468.988281 2.523437 1.53125 4.003906 1.53125s2.898438-.542969 4.003906-1.53125c11.78125-10.550781 27.019532-16.359375 42.902344-16.359375 35.550781 0 64.472656 28.921875 64.472656 64.472656v9.777344h16.523438v-66.835937c0-41.808594-33.890625-75.699219-75.699219-75.699219h-104.40625c-41.808594 0-75.699219 33.890625-75.699219 75.699219v66.835937zm0 0"/></g><path d="m133.621094 142.535156v-9.777344c0-8.21875 1.5625-16.074218 4.378906-23.308593v-33.75c0-41.808594 33.890625-75.699219 75.695312-75.699219h-20.898437c-41.808594 0-75.699219 33.890625-75.699219 75.699219v66.835937zm0 0" fill="#231f20"/><path d="m133.621094 214.996094v-73.460938h-29.34375c-2.363282 0-4.277344 1.917969-4.277344 4.277344v41.753906c0 19.804688 15.425781 36.0625 34.890625 37.421875-.804687-3.546875-1.269531-6.996093-1.269531-9.992187zm0 0" fill="#eef6ff"/><path d="m385.722656 141.535156h-29.34375v73.460938c0 2.996094-.464844 6.445312-1.269531 9.992187 19.464844-1.355469 34.890625-17.617187 34.890625-37.421875v-41.753906c0-2.359375-1.914062-4.277344-4.277344-4.277344zm0 0" fill="#eef6ff"/><path d="m133.847656 218.859375c-10.144531-6.726563-16.847656-18.238281-16.847656-31.292969v-41.753906c0-2.359375 1.914062-4.277344 4.277344-4.277344h-17c-2.363282 0-4.277344 1.917969-4.277344 4.277344v41.753906c0 19.804688 15.425781 36.0625 34.890625 37.421875-.480469-2.101562-.832031-4.171875-1.042969-6.128906zm0 0" fill="#d9eafc"/><path d="m223.085938 331c-24.964844 0-46.730469-18.574219-50.621094-43.203125-.125-.785156-.433594-1.527344-.902344-2.167969l-28.703125-39.273437c-5.644531-7.726563-10.238281-21.792969-10.238281-31.359375v-82.238282c0-36.105468 29.371094-65.472656 65.472656-65.472656 16.128906 0 31.601562 5.898438 43.570312 16.617188.949219.847656 2.144532 1.273437 3.335938 1.273437 1.195312 0 2.386719-.425781 3.335938-1.277343 11.96875-10.714844 27.441406-16.613282 43.570312-16.613282 36.101562 0 65.472656 29.371094 65.472656 65.472656v82.238282c0 9.566406-4.59375 23.632812-10.238281 31.359375l-28.699219 39.273437c-.46875.640625-.777344 1.382813-.902344 2.167969-3.894531 24.628906-25.660156 43.203125-50.625 43.203125zm0 0" fill="#d9eafc"/><path d="m193.085938 287.796875c-.125-.785156-.433594-1.527344-.902344-2.167969l-28.703125-39.273437c-5.644531-7.726563-10.234375-21.792969-10.234375-31.359375v-82.238282c0-32.585937 23.925781-59.675781 55.128906-64.648437-3.378906-.535156-6.8125-.824219-10.28125-.824219-36.101562 0-65.472656 29.371094-65.472656 65.472656v82.238282c0 9.566406 4.59375 23.632812 10.238281 31.359375l28.703125 39.273437c.46875.640625.777344 1.382813.902344 2.167969 3.890625 24.628906 25.65625 43.203125 50.621094 43.203125h20.621093c-24.964843 0-46.726562-18.574219-50.621093-43.203125zm0 0" fill="#c3ddf4"/><path d="m258.757812 226.5h-27.511718c-6.34375 0-11.5-5.160156-11.5-11.5v-52.429688c0-4.140624 3.355468-7.5 7.5-7.5 4.140625 0 7.5 3.359376 7.5 7.5v48.929688h20.511718v-7.09375c0-4.140625 3.355469-7.5 7.5-7.5 4.140626 0 7.5 3.359375 7.5 7.5v10.59375c0 6.339844-5.160156 11.5-11.5 11.5zm0 0" fill="#aec1ed"/><path d="m201.289062 162.328125c0 9.65625-7.828124 17.484375-17.484374 17.484375s-17.484376-7.828125-17.484376-17.484375 7.828126-17.484375 17.484376-17.484375 17.484374 7.828125 17.484374 17.484375zm0 0" fill="#293d7c"/><path d="m211.273438 149.042969c-2.59375 0-5.113282-1.34375-6.503907-3.753907-4.6875-8.117187-12.25-13.925781-21.289062-16.347656-9.039063-2.421875-18.492188-1.175781-26.613281 3.511719-3.585938 2.074219-8.175782.84375-10.246094-2.742187-2.070313-3.589844-.84375-8.175782 2.746094-10.246094 11.589843-6.691406 25.082031-8.472656 37.992187-5.011719 12.914063 3.457031 23.710937 11.746094 30.402344 23.335937 2.070312 3.589844.839843 8.175782-2.746094 10.246094-1.179687.683594-2.46875 1.007813-3.742187 1.007813zm0 0" fill="#333031"/><path d="m323.679688 162.328125c0 9.65625-7.828126 17.484375-17.484376 17.484375s-17.484374-7.828125-17.484374-17.484375 7.828124-17.484375 17.484374-17.484375 17.484376 7.828125 17.484376 17.484375zm0 0" fill="#293d7c"/><path d="m278.726562 149.042969c-1.269531 0-2.5625-.324219-3.742187-1.007813-3.585937-2.070312-4.816406-6.65625-2.746094-10.242187 6.695313-11.59375 17.488281-19.878907 30.402344-23.339844 12.910156-3.460937 26.40625-1.679687 37.996094 5.011719 3.585937 2.070312 4.816406 6.660156 2.746093 10.246094-2.074218 3.589843-6.664062 4.816406-10.246093 2.746093-8.121094-4.6875-17.574219-5.9375-26.613281-3.515625-9.042969 2.425782-16.605469 8.230469-21.292969 16.351563-1.390625 2.40625-3.910157 3.75-6.503907 3.75zm0 0" fill="#333031"/><path d="m201.730469 259.5 11.226562 29.042969c.597657 1.539062 1.566407 1.539062 2.164063 0l11.226562-29.042969zm0 0" fill="#fff"/><path d="m263.652344 259.5 11.226562 29.042969c.597656 1.539062 1.570313 1.539062 2.164063 0l11.226562-29.042969zm0 0" fill="#fff"/><path d="m302.191406 260.5h-114.382812c-4.144532 0-7.5-3.359375-7.5-7.5s3.355468-7.5 7.5-7.5h114.382812c4.144532 0 7.5 3.359375 7.5 7.5s-3.355468 7.5-7.5 7.5zm0 0" fill="#aec1ed"/></svg>