<svg height="512pt" viewBox="-11 0 512 512" width="512pt" xmlns="http://www.w3.org/2000/svg"><path d="m490 267c0 135.308594-109.691406 245-245 245s-245-109.691406-245-245 109.691406-245 245-245 245 109.691406 245 245zm0 0" fill="#ef8318"/><path d="m357.0625 359h-80.410156l-62.703125 99.582031c-.628907.996094-1.707031 1.59375-2.886719 1.59375s-2.261719-.597656-2.890625-1.59375l-62.703125-99.582031h-80.40625c-8.25 0-15 6.75-15 15v41.398438c44.757812 58.707031 115.417969 96.601562 194.9375 96.601562 46.523438 0 90.015625-12.96875 127.0625-35.480469v-102.519531c0-8.25-6.75-15-15-15zm0 0" fill="#d9eafc"/><path d="m71 374c0-8.25 6.75-15 15-15h-20.9375c-8.25 0-15 6.75-15 15v41.398438c6.453125 8.464843 13.460938 16.480468 20.9375 24.027343zm0 0" fill="#c3ddf4"/><g fill="#2e4c89"><path d="m158.890625 380.3125h-108.828125v19.375h121.027344zm0 0"/><path d="m263.234375 380.3125-12.199219 19.375h121.027344v-19.375zm0 0"/><path d="m183.644531 419.625h-130.289062c5.386719 6.757812 11.128906 13.226562 17.191406 19.375h125.296875zm0 0"/><path d="m238.480469 419.625-12.199219 19.375h145.78125v-19.375zm0 0"/><path d="m213.65625 458.9375c-.644531.773438-1.570312 1.238281-2.59375 1.238281s-1.953125-.46875-2.59375-1.238281h-115.730469c8.925781 7.089844 18.359375 13.566406 28.234375 19.375h82.140625c1.699219-2.59375 4.625-4.3125 7.949219-4.3125s6.25 1.71875 7.949219 4.3125h150.015625c1.011718-.59375 2.03125-1.183594 3.035156-1.792969v-17.582031zm0 0"/><path d="m326.070312 498.25h-162.140624c25.378906 8.898438 52.65625 13.75 81.070312 13.75s55.691406-4.851562 81.070312-13.75zm0 0"/></g><path d="m281.179688 341h-15.640626c-16.171874 8.917969-34.742187 14-54.476562 14-19.738281 0-38.304688-5.082031-54.476562-14h-15.640626c-1.605468 0-3.085937.871094-3.863281 2.277344-.777343 1.410156-.726562 3.125.128907 4.484375l70.117187 111.351562c.808594 1.285157 2.21875 2.0625 3.734375 2.0625s2.925781-.777343 3.734375-2.0625l70.113281-111.351562c.859375-1.359375.90625-3.074219.128906-4.484375-.773437-1.40625-2.253906-2.277344-3.859374-2.277344zm0 0" fill="#fff"/><path d="m152.492188 343.277344c.777343-1.40625 2.257812-2.277344 3.863281-2.277344h-15.410157c-1.605468 0-3.085937.871094-3.863281 2.277344-.777343 1.410156-.726562 3.125.128907 4.484375l70.117187 111.351562c.808594 1.285157 2.21875 2.0625 3.734375 2.0625s2.925781-.777343 3.734375-2.0625l3.96875-6.304687-66.144531-105.046875c-.855469-1.359375-.90625-3.074219-.128906-4.484375zm0 0" fill="#eef6ff"/><path d="m211.0625 355c-12.957031 0-25.410156-2.195312-37.011719-6.222656v15.621094c0 2.75 1.214844 6.894531 2.699219 9.207031l31.613281 49.300781c1.484375 2.316406 3.914063 2.316406 5.398438 0l31.613281-49.300781c1.484375-2.3125 2.699219-6.457031 2.699219-9.207031v-15.621094c-11.601563 4.027344-24.054688 6.222656-37.011719 6.222656zm0 0" fill="#ffc987"/><path d="m195 364.398438v-10.542969c-7.222656-1.03125-14.230469-2.746094-20.949219-5.078125v15.621094c0 2.75 1.214844 6.894531 2.699219 9.207031l31.613281 49.300781c1.484375 2.316406 3.914063 2.316406 5.398438 0l7.773437-12.125-23.835937-37.175781c-1.484375-2.3125-2.699219-6.457031-2.699219-9.207031zm0 0" fill="#efb06c"/><path d="m84.746094 202.964844h13.132812v-17.167969h-18.238281v18.085937c1.597656-.582031 3.3125-.917968 5.105469-.917968zm0 0" fill="#a5683f"/><path d="m342.484375 203.882812v-18.085937h-18.238281v17.167969h13.132812c1.792969 0 3.507813.335937 5.105469.917968zm0 0" fill="#a5683f"/><path d="m97.878906 241.816406v-39.925781h-13.132812c-8.25 0-15 6.75-15 15v34.035156c0 8.25 6.75 15 15 15h15.726562c-1.695312-7.769531-2.59375-15.835937-2.59375-24.109375zm0 0" fill="#ffe2b8"/><path d="m337.378906 201.894531h-13.132812v39.925781c0 8.269532-.902344 16.335938-2.59375 24.109376h15.726562c8.25 0 15-6.75 15-15v-34.035157c0-8.25-6.75-15-15-15zm0 0" fill="#ffc987"/><path d="m80 250.929688v-34.035157c0-8.25 6.75-15 15-15h-10.253906c-8.25 0-15 6.75-15 15v34.035157c0 8.25 6.75 15 15 15h10.253906c-8.25 0-15-6.75-15-15zm0 0" fill="#ffc987"/><path d="m96.878906 165.203125v76.613281c0 62.960938 51.222656 114.183594 114.183594 114.183594s114.183594-51.222656 114.183594-114.183594v-76.613281zm0 0" fill="#ffe2b8"/><path d="m117.632812 241.816406v-56.019531h-20.753906v56.019531c0 62.960938 51.222656 114.183594 114.183594 114.183594 3.5 0 6.957031-.167969 10.378906-.476562-58.117187-5.261719-103.808594-54.242188-103.808594-113.707032zm0 0" fill="#ffc987"/><path d="m229 215.554688v-2.324219c0-3.710938 3.019531-6.734375 6.734375-6.734375h7.734375l-60.511719-20.699219h-46.34375l92.433594 31.621094c-.027344-.617188-.046875-1.238281-.046875-1.863281zm0 0" fill="#994334"/><path d="m304.078125 227.230469c-1.582031 4.945312-4.140625 9.453125-7.441406 13.308593l28.300781 9.683594c.203125-2.777344.308594-5.578125.308594-8.402344v-7.347656zm0 0" fill="#994334"/><path d="m166.871094 239.214844c0 8.722656-7.066406 15.785156-15.78125 15.785156-8.71875 0-15.785156-7.0625-15.785156-15.785156v-15.78125c0-8.71875 7.066406-15.78125 15.785156-15.78125 8.714844 0 15.78125 7.0625 15.78125 15.78125zm0 0" fill="#1a2b63"/><path d="m211.0625 318.625c-14.316406 0-28.632812-5.449219-39.53125-16.347656-2.929688-2.925782-2.929688-7.675782 0-10.605469s7.675781-2.929687 10.605469 0c15.949219 15.945313 41.898437 15.945313 57.847656 0 2.929687-2.929687 7.679687-2.929687 10.609375 0 2.925781 2.929687 2.925781 7.679687 0 10.605469-10.902344 10.898437-25.214844 16.347656-39.53125 16.347656zm0 0" fill="#ff9f60"/><path d="m225.746094 273.5h-21.46875c-5.789063 0-10.5-4.710938-10.5-10.5v-38.285156c0-4.144532 3.359375-7.5 7.5-7.5 4.144531 0 7.5 3.355468 7.5 7.5v33.785156h16.96875c4.140625 0 7.5 3.355469 7.5 7.5s-3.359375 7.5-7.5 7.5zm0 0" fill="#ff9f60"/><path d="m221.5625 483.5c0 5.800781-4.703125 10.5-10.5 10.5-5.800781 0-10.5-4.699219-10.5-10.5s4.699219-10.5 10.5-10.5c5.796875 0 10.5 4.699219 10.5 10.5zm0 0" fill="#fff"/><path d="m79.640625 165.203125h262.84375v21.796875h-262.84375zm0 0" fill="#b7092b"/><path d="m79.640625 165.203125h17.238281v21.796875h-17.238281zm0 0" fill="#a00026"/><path d="m12.332031 166.203125c-3.136719 0-5.679687-2.542969-5.679687-5.679687v-24.597657c0-3.035156 2.386718-5.535156 5.417968-5.671875 47.503907-2.199218 72.558594-34.15625 96.785157-65.0625 25.125-32.050781 51.105469-65.191406 102.207031-65.191406s77.082031 33.140625 102.203125 65.1875c24.230469 30.910156 49.285156 62.867188 96.789063 65.066406 3.03125.136719 5.417968 2.636719 5.417968 5.671875v24.597657c0 3.136718-2.542968 5.679687-5.679687 5.679687zm0 0" fill="#293d7c"/><path d="m17 146.722656c0-3.035156 2.386719-5.535156 5.414062-5.675781 47.507813-2.195313 72.558594-34.152344 96.785157-65.058594 25.128906-32.054687 51.109375-65.191406 102.207031-65.191406 31.894531 0 54 12.90625 72.21875 30.398437-20.246094-22.710937-44.398438-41.195312-82.5625-41.195312-51.101562 0-77.082031 33.140625-102.207031 65.191406-24.230469 30.90625-49.28125 62.863282-96.785157 65.0625-3.03125.140625-5.417968 2.636719-5.417968 5.671875v24.601563c0 3.136718 2.542968 5.679687 5.679687 5.679687h4.667969zm0 0" fill="#1a2b63"/><path d="m239.386719 79.96875c2.207031 4.109375 3.464843 8.808594 3.464843 13.796875v2.832031l20.667969-9.636718c-2.707031-1.246094-4.957031-3.421876-6.253906-6.207032-1.296875-2.777344-1.542969-5.859375-.738281-8.78125zm0 0" fill="#c6c4c6"/><path d="m179.269531 93.765625c0-4.988281 1.257813-9.6875 3.464844-13.796875l-17.144531-7.996094c.777344 2.824219.605468 5.925782-.730469 8.78125-1.296875 2.785156-3.546875 4.960938-6.253906 6.207032l20.664062 9.636718zm0 0" fill="#c6c4c6"/><path d="m232.292969 121.320312 24.234375 11.300782c-.808594-2.921875-.5625-6.003906.734375-8.777344 1.300781-2.789062 3.550781-4.960938 6.253906-6.210938l-21.941406-10.230468c-1.644531 5.425781-4.84375 10.25-9.28125 13.917968zm0 0" fill="#c6c4c6"/><path d="m189.828125 121.320312c-4.4375-3.667968-7.632813-8.492187-9.28125-13.917968l-21.941406 10.230468c2.707031 1.246094 4.957031 3.421876 6.253906 6.207032 1.332031 2.859375 1.507813 5.960937.730469 8.785156zm0 0" fill="#c6c4c6"/><path d="m281.4375 69.480469c3.246094 6.953125.234375 15.214843-6.714844 18.457031-6.953125 3.242188-15.214844.234375-18.457031-6.71875-3.246094-6.953125-.238281-15.214844 6.714844-18.457031 6.953125-3.242188 15.214843-.234375 18.457031 6.71875zm0 0" fill="#fff"/><path d="m167.164062 129.246094c0 7.667968-6.21875 13.886718-13.890624 13.886718-7.671876 0-13.886719-6.21875-13.886719-13.886718 0-7.671875 6.214843-13.890625 13.886719-13.890625 7.671874 0 13.890624 6.21875 13.890624 13.890625zm0 0" fill="#fff"/><path d="m140.6875 69.480469c-3.246094 6.953125-.238281 15.214843 6.714844 18.457031s15.214844.234375 18.457031-6.71875.238281-15.214844-6.714844-18.457031c-6.957031-3.242188-15.21875-.234375-18.457031 6.71875zm0 0" fill="#fff"/><path d="m256.261719 123.375c-3.242188 6.953125-.230469 15.21875 6.71875 18.457031 6.953125 3.242188 15.214843.234375 18.457031-6.71875 3.246094-6.949219.234375-15.214843-6.714844-18.457031-6.953125-3.242188-15.21875-.230469-18.460937 6.71875zm0 0" fill="#fff"/><path d="m213.59375 63.402344h-5.0625c-16.769531 0-30.363281 13.59375-30.363281 30.363281v5.058594c0 11.066406 5.921875 20.746093 14.769531 26.054687.234375 9.046875 7.621094 16.3125 16.726562 16.3125h2.792969c9.105469 0 16.496094-7.265625 16.730469-16.3125 8.84375-5.308594 14.765625-14.984375 14.765625-26.054687v-5.058594c.003906-16.769531-13.59375-30.363281-30.359375-30.363281zm0 0" fill="#fff"/><path d="m204.980469 124.878906c-8.84375-5.308594-14.765625-14.984375-14.765625-26.054687v-5.058594c0-15.589844 11.746094-28.425781 26.871094-30.160156-1.148438-.128907-2.3125-.203125-3.492188-.203125h-5.0625c-16.769531 0-30.363281 13.59375-30.363281 30.363281v5.058594c0 11.066406 5.921875 20.746093 14.769531 26.054687.234375 9.046875 7.621094 16.3125 16.726562 16.3125h2.792969c1.605469 0 3.15625-.238281 4.625-.660156-6.859375-1.96875-11.90625-8.203125-12.101562-15.652344zm0 0" fill="#eef6ff"/><path d="m199.484375 107.484375c-4.566406 0-8.265625-3.703125-8.265625-8.269531v-8.601563c0-4.566406 3.703125-8.269531 8.265625-8.269531 4.570313 0 8.269531 3.703125 8.269531 8.269531v8.601563c0 4.566406-3.699218 8.269531-8.269531 8.269531zm0 0" fill="#424f59"/><path d="m222.636719 107.484375c-4.566407 0-8.269531-3.703125-8.269531-8.269531v-8.601563c0-4.566406 3.703124-8.269531 8.269531-8.269531 4.566406 0 8.269531 3.703125 8.269531 8.269531v8.601563c0 4.566406-3.703125 8.269531-8.269531 8.269531zm0 0" fill="#424f59"/><path d="m386.5625 377v89.980469c22.886719-16.226563 42.859375-36.296875 59-59.253907v-30.726562zm0 0" fill="#ffc987"/><path d="m386.5625 377v89.980469c7.101562-5.035157 13.921875-10.441407 20.4375-16.191407v-73.789062zm0 0" fill="#efb06c"/><path d="m378.566406 339v34c0 2.75 2.25 5 5 5h64.992188c2.75 0 5-2.25 5-5v-34zm0 0" fill="#b7092b"/><path d="m399.007812 373v-34h-20.441406v34c0 2.75 2.25 5 5 5h20.441406c-2.75 0-5-2.25-5-5zm0 0" fill="#a00026"/><path d="m385.015625 249.8125c4.140625 0 7.5-3.359375 7.5-7.5 0-12.984375 10.5625-23.546875 23.546875-23.546875s23.546875 10.5625 23.546875 23.546875c0 12.980469-10.5625 23.546875-23.546875 23.546875-4.140625 0-7.5 3.355469-7.5 7.5v16.820313c2.445312-.390626 4.949219-.601563 7.5-.601563s5.054688.210937 7.5.601563v-10.054688c17.675781-3.5 31.046875-19.125 31.046875-37.816406 0-21.253906-17.292969-38.542969-38.546875-38.542969s-38.546875 17.289063-38.546875 38.542969c0 4.144531 3.359375 7.503906 7.5 7.503906zm0 0" fill="#d9eafc"/><path d="m370.914062 340c-1.730468 0-3.136718-1.402344-3.136718-3.136719 0-26.625 21.660156-48.28125 48.285156-48.28125s48.285156 21.65625 48.285156 48.28125c0 1.730469-1.40625 3.136719-3.136718 3.136719zm0 0" fill="#c3ddf4"/><path d="m388.433594 336.863281c0-23.078125 16.277344-42.417969 37.957031-47.160156-3.332031-.726563-6.785156-1.121094-10.328125-1.121094-26.625 0-48.285156 21.65625-48.285156 48.28125 0 1.730469 1.40625 3.136719 3.136718 3.136719h20.652344c-1.730468 0-3.132812-1.402344-3.132812-3.136719zm0 0" fill="#aec1ed"/><path d="m267.449219 255c-21.753907 0-39.449219-17.695312-39.449219-39.445312v-2.324219c0-4.269531 3.464844-7.734375 7.734375-7.734375h63.425781c4.273438 0 7.734375 3.464844 7.734375 7.734375v2.324219c.003907 21.75-17.695312 39.445312-39.445312 39.445312zm0 0" fill="#b7092b"/><path d="m249 215.554688v-2.324219c0-4.269531 3.464844-7.734375 7.734375-7.734375h-21c-4.269531 0-7.734375 3.464844-7.734375 7.734375v2.324219c0 21.75 17.695312 39.445312 39.449219 39.445312 3.636719 0 7.152343-.503906 10.5-1.429688-16.671875-4.609374-28.949219-19.902343-28.949219-38.015624zm0 0" fill="#a00026"/></svg>