<svg height="511pt" viewBox="-10 0 511 511.9998" width="511pt" xmlns="http://www.w3.org/2000/svg"><path d="m490.5 267c0 135.308594-109.691406 245-245 245s-245-109.691406-245-245 109.691406-245 245-245 245 109.691406 245 245zm0 0" fill="#994334"/><path d="m490.5 267c0 135.308594-109.691406 245-245 245s-245-109.691406-245-245 109.691406-245 245-245 245 109.691406 245 245zm0 0" fill="#37c47a"/><path d="m367.667969 368.5c0-5.890625 1.453125-11.445312 4-16.34375-6.195313-14.882812-16.855469-27.4375-30.3125-35.992188l-27.984375 44.824219c-.503906.804688-1.113282 1.25-1.71875 1.25-.609375 0-1.234375-.476562-1.714844-1.3125l-12.222656-21.167969c-.84375-1.464843-2.089844-2.304687-3.417969-2.304687-1.320313 0-2.527344.792969-3.398437 2.226563l-43.65625 71.84375c-.503907.828124-1.121094 1.28125-1.742188 1.28125s-1.238281-.453126-1.742188-1.28125l-43.652343-71.84375c-.875-1.433594-2.082031-2.226563-3.402344-2.226563-1.324219 0-2.570313.839844-3.417969 2.304687l-12.222656 21.167969c-.480469.835938-1.105469 1.3125-1.714844 1.3125-.59375 0-1.21875-.457031-1.714844-1.25l-27.984374-44.824219c-13.457032 8.558594-24.121094 21.109376-30.316407 35.992188 2.550781 4.894531 4 10.453125 4 16.34375v110.902344c35.960938 20.734375 77.675781 32.597656 122.167969 32.597656s86.207031-11.863281 122.167969-32.597656zm0 0" fill="#683f23"/><path d="m283.699219 436.777344c-1.996094 1.890625-4.753907 1.492187-6.128907-.890625l-4.011718-6.949219c-1.375-2.378906-3.667969-2.40625-5.097656-.054688l-20.363282 33.515626c-1.429687 2.347656-3.765625 2.347656-5.195312 0l-20.363282-33.515626c-1.429687-2.351562-3.722656-2.324218-5.097656.054688l-4.011718 6.949219c-1.375 2.382812-4.132813 2.78125-6.128907.890625l-27.808593-26.339844c-1.996094-1.890625-4.207032-3.4375-4.914063-3.4375s-.089844 1.90625 1.363281 4.238281l32.339844 51.800781c1.457031 2.332032 3.773438 2.292969 5.148438-.089843l4.011718-6.949219c1.375-2.378906 3.667969-2.40625 5.09375-.054688l20.367188 33.515626c1.429687 2.351562 3.765625 2.351562 5.191406 0l20.367188-33.515626c1.429687-2.351562 3.722656-2.324218 5.097656.054688l4.011718 6.949219c1.375 2.382812 3.691407 2.421875 5.148438.089843l32.335938-51.800781c1.457031-2.332031 2.070312-4.238281 1.363281-4.238281-.703125 0-2.917969 1.546875-4.914063 3.4375zm0 0" fill="#82502e"/><path d="m371.546875 88.878906c38.671875-30.070312 24.0625-85.414062 24.0625-85.414062-.703125-2.65625-3.402344-4.097656-6-3.195313l-75.921875 26.316407c24.949219 13.988281 45.363281 35.570312 57.859375 62.292968zm0 0" fill="#683f23"/><path d="m371.546875 88.878906c38.671875-30.070312 24.0625-85.414062 24.0625-85.414062-.703125-2.65625-2.828125-3.203125-4.71875-1.210938l-45.90625 48.332032c10.792969 11.023437 19.832031 23.902343 26.5625 38.292968zm0 0" fill="#ffe2b8"/><path d="m119.453125 88.878906c12.496094-26.722656 32.910156-48.304687 57.859375-62.292968l-75.921875-26.316407c-2.597656-.902343-5.296875.539063-6 3.195313 0 0-14.609375 55.34375 24.0625 85.414062zm0 0" fill="#683f23"/><path d="m119.453125 88.878906c6.730469-14.390625 15.769531-27.269531 26.5625-38.292968l-45.90625-48.332032c-1.890625-1.992187-4.015625-1.445312-4.71875 1.210938 0 0-14.609375 55.34375 24.0625 85.414062zm0 0" fill="#ffe2b8"/><path d="m119.453125 88.878906c1.972656-4.222656 4.164063-8.296875 6.519531-12.25-18.664062-21.15625-18.851562-49.425781-17.109375-65.15625l-8.753906-9.21875c-1.890625-1.992187-4.015625-1.445312-4.71875 1.210938 0 0-14.609375 55.34375 24.0625 85.414062zm0 0" fill="#ffc987"/><path d="m436.75 189.746094c2.089844-1.78125 2.214844-4.832032.269531-6.777344l-30.273437-30.273438c-1.945313-1.945312-1.453125-4.390624 1.089844-5.429687l17.175781-7.03125c2.542969-1.039063 2.757812-3.144531.472656-4.675781l-46.785156-31.351563c-18.398438-55.96875-71.074219-96.382812-133.199219-96.382812s-114.800781 40.414062-133.195312 96.382812l-46.789063 31.351563c-2.285156 1.53125-2.070313 3.636718.472656 4.675781l17.175781 7.03125c2.542969 1.039063 3.035157 3.484375 1.09375 5.429687l-30.273437 30.273438c-1.945313 1.945312-1.824219 4.996094.269531 6.777344l29.734375 25.351562c2.089844 1.785156 2.199219 4.820313.238281 6.75l-19.296874 18.988282c-1.960938 1.929687-1.511719 4.425781.996093 5.550781l54.09375 24.210937 56.761719 90.917969c1.457031 2.335937 3.773438 2.292969 5.148438-.085937l12.222656-21.171876c1.375-2.382812 3.667968-2.40625 5.097656-.058593l43.65625 71.84375c1.425781 2.351562 3.761719 2.351562 5.191406 0l43.65625-71.84375c1.425782-2.347657 3.722656-2.324219 5.097656.058593l12.222657 21.171876c1.375 2.378906 3.691406 2.421874 5.148437.085937l56.761719-90.917969 54.089844-24.210937c2.511719-1.125 2.960937-3.621094 1-5.550781l-19.300781-18.988282c-1.957032-1.929687-1.851563-4.964844.242187-6.75zm0 0" fill="#82502e"/><path d="m245.5 323.511719c-61.945312 0-112.339844-50.394531-112.339844-112.339844v-42.828125c0-34.558594 28.113282-62.671875 62.667969-62.671875 17.703125 0 34.039063 7.144531 45.996094 20.113281.945312 1.027344 2.277343 1.613282 3.675781 1.613282 1.394531 0 2.730469-.585938 3.675781-1.613282 11.957031-12.96875 28.292969-20.113281 45.992188-20.113281 34.558593 0 62.671875 28.113281 62.671875 62.671875v42.828125c0 61.945313-50.394532 112.339844-112.339844 112.339844zm0 0" fill="#ffe2b8"/><path d="m187.296875 291.09375c-20.65625-20.382812-33.480469-48.679688-33.480469-79.921875v-42.828125c0-31.0625 22.71875-56.90625 52.410156-61.816406-3.394531-.558594-6.867187-.855469-10.398437-.855469-34.554687 0-62.667969 28.113281-62.667969 62.671875v42.828125c0 61.945313 50.394532 112.339844 112.339844 112.339844 3.484375 0 6.929688-.167969 10.332031-.480469-17.035156-1.558594-32.980469-6.9375-46.976562-15.269531-9.800781-1.289063-17.953125-7.808594-21.558594-16.667969zm0 0" fill="#ffc987"/><path d="m212.507812 173.320312c-.554687 0-1.117187-.0625-1.679687-.1875l-45.804687-10.480468c-4.039063-.921875-6.566407-4.945313-5.640626-8.984375.925782-4.039063 4.945313-6.558594 8.984376-5.636719l45.804687 10.476562c4.039063.925782 6.5625 4.945313 5.640625 8.984376-.796875 3.476562-3.886719 5.828124-7.304688 5.828124zm0 0" fill="#8e5e3d"/><path d="m278.492188 173.320312c-3.417969 0-6.507813-2.351562-7.304688-5.828124-.921875-4.039063 1.601562-8.058594 5.640625-8.984376l45.804687-10.476562c4.039063-.917969 8.0625 1.601562 8.984376 5.636719.921874 4.039062-1.601563 8.0625-5.640626 8.984375l-45.804687 10.480468c-.5625.128907-1.125.1875-1.679687.1875zm0 0" fill="#8e5e3d"/><path d="m186.335938 224.507812c-7.53125 0-13.65625-6.128906-13.65625-13.65625v-16.859374c0-7.523438 6.125-13.648438 13.65625-13.648438 7.527343 0 13.652343 6.125 13.652343 13.648438v16.859374c0 7.527344-6.125 13.65625-13.652343 13.65625zm0 0" fill="#1a2b63"/><path d="m304.664062 224.507812c-7.527343 0-13.652343-6.128906-13.652343-13.65625v-16.859374c0-7.523438 6.125-13.648438 13.652343-13.648438 7.53125 0 13.65625 6.125 13.65625 13.648438v16.859374c0 7.527344-6.125 13.65625-13.65625 13.65625zm0 0" fill="#1a2b63"/><path d="m257.554688 238.957031h-24.109376c-5.789062 0-10.5-4.710937-10.5-10.5v-35.457031c0-4.144531 3.359376-7.5 7.5-7.5 4.140626 0 7.5 3.355469 7.5 7.5v30.957031h15.109376v-6.390625c0-4.144531 3.359374-7.5 7.5-7.5 4.140624 0 7.5 3.355469 7.5 7.5v10.890625c0 5.789063-4.710938 10.5-10.5 10.5zm0 0" fill="#ff9f60"/><g fill="#fff"><path d="m388.929688 335.988281-4.078126-18.238281c-1.34375-6.019531-3.542968-6.019531-4.886718 0l-4.273438 19.105469c-.695312 3.109375-.214844 5.921875 1.097656 7.917969 3.355469-3.726563 7.488282-6.738282 12.140626-8.785157zm0 0"/><path d="m403.167969 333c2.035156 0 4.027343.183594 5.96875.511719l-3.523438-15.761719c-1.34375-6.019531-3.542969-6.019531-4.890625 0l-3.523437 15.761719c1.945312-.328125 3.9375-.511719 5.96875-.511719zm0 0"/><path d="m429.550781 344.773438c1.3125-1.996094 1.789063-4.808594 1.09375-7.917969l-4.269531-19.105469c-1.34375-6.019531-3.546875-6.019531-4.890625 0l-4.078125 18.238281c4.652344 2.046875 8.785156 5.058594 12.144531 8.785157zm0 0"/></g><path d="m439.667969 416.402344v-47.902344c0-20.15625-16.339844-36.5-36.5-36.5-20.15625 0-36.5 16.34375-36.5 36.5v111.476562c28.367187-16.171874 53.179687-37.851562 73-63.574218zm0 0" fill="#8e5e3d"/><path d="m381.667969 385.5v-13c0-6.832031 3.195312-12.902344 8.164062-16.84375 3.996094-10.617188 12.792969-18.882812 23.753907-22.140625-3.300782-.980469-6.796876-1.515625-10.417969-1.515625-20.15625 0-36.5 16.339844-36.5 36.5v111.476562c7.179687-4.09375 14.132812-8.542968 20.832031-13.316406v-66.472656c-3.605469-3.84375-5.832031-9-5.832031-14.6875zm0 0" fill="#82502e"/><path d="m424.667969 385.5c0 11.875-9.625 21.5-21.5 21.5s-21.5-9.625-21.5-21.5v-13c0-11.875 9.625-21.5 21.5-21.5s21.5 9.625 21.5 21.5zm0 0" fill="#b2762f"/><path d="m392.5 385.5v-13c0-10 6.835938-18.382812 16.085938-20.785156-1.734376-.449219-3.542969-.714844-5.417969-.714844-11.875 0-21.5 9.625-21.5 21.5v13c0 11.875 9.625 21.5 21.5 21.5 1.875 0 3.683593-.265625 5.417969-.714844-9.25-2.40625-16.085938-10.785156-16.085938-20.785156zm0 0" fill="#a5683f"/><path d="m73.59375 335.988281-4.078125-18.238281c-1.347656-6.019531-3.546875-6.019531-4.890625 0l-4.269531 19.105469c-.695313 3.109375-.21875 5.921875 1.09375 7.917969 3.359375-3.726563 7.492187-6.738282 12.144531-8.785157zm0 0" fill="#fff"/><path d="m87.832031 333c2.03125 0 4.023438.183594 5.96875.511719l-3.523437-15.761719c-1.347656-6.019531-3.546875-6.019531-4.890625 0l-3.523438 15.761719c1.941407-.328125 3.933594-.511719 5.96875-.511719zm0 0" fill="#fff"/><path d="m114.210938 344.773438c1.3125-1.996094 1.792968-4.808594 1.097656-7.917969l-4.273438-19.105469c-1.34375-6.019531-3.542968-6.019531-4.886718 0l-4.078126 18.238281c4.652344 2.046875 8.785157 5.058594 12.140626 8.785157zm0 0" fill="#fff"/><path d="m87.832031 332c-20.160156 0-36.5 16.34375-36.5 36.5v47.902344c19.820313 25.722656 44.632813 47.402344 73 63.574218v-111.476562c0-20.15625-16.34375-36.5-36.5-36.5zm0 0" fill="#8e5e3d"/><path d="m66.332031 385.5v-13c0-6.375 2.789063-12.085938 7.199219-16.023438 3.878906-11.117187 12.988281-19.785156 24.382812-23.054687-3.203124-.917969-6.582031-1.421875-10.082031-1.421875-20.160156 0-36.5 16.34375-36.5 36.5v47.902344c6.242188 8.101562 12.980469 15.796875 20.167969 23.050781v-39.992187c-3.214844-3.757813-5.167969-8.628907-5.167969-13.960938zm0 0" fill="#82502e"/><path d="m109.332031 385.5c0 11.875-9.628906 21.5-21.5 21.5-11.875 0-21.5-9.625-21.5-21.5v-13c0-11.875 9.625-21.5 21.5-21.5 11.871094 0 21.5 9.625 21.5 21.5zm0 0" fill="#b2762f"/><path d="m76.5 385.5v-13c0-10.121094 7-18.582031 16.414062-20.871094-1.632812-.394531-3.328124-.628906-5.082031-.628906-11.875 0-21.5 9.625-21.5 21.5v13c0 11.875 9.625 21.5 21.5 21.5 1.753907 0 3.449219-.234375 5.082031-.628906-9.414062-2.289063-16.414062-10.753906-16.414062-20.871094zm0 0" fill="#a5683f"/><path d="m305.695312 280.886719c0 14.972656-12.140624 27.113281-27.113281 27.113281h-66.164062c-14.972657 0-27.113281-12.140625-27.113281-27.113281v-4.34375c0-14.972657 12.140624-27.113281 27.113281-27.113281h66.164062c14.972657 0 27.113281 12.140624 27.113281 27.113281zm0 0" fill="#ff9f60"/><path d="m198.304688 280.886719v-4.34375c0-1.566407.140624-3.101563.394531-4.601563 0 0-.003907-.003906-.003907-.007812l-6.191406-13.785156c-4.46875 4.835937-7.199218 11.296874-7.199218 18.394531v4.34375c0 14.972656 12.140624 27.113281 27.113281 27.113281h1.628906c0-.820312.070313-1.628906.175781-2.421875-9.386718-4.261719-15.917968-13.710937-15.917968-24.691406zm0 0" fill="#ff8d4d"/><path d="m278.582031 249.429688h-66.164062c-7.875 0-14.960938 3.359374-19.914063 8.71875l6.191406 13.789062c.410157.917969 1.324219 1.511719 2.335938 1.511719 1.007812-.003907 1.921875-.59375 2.332031-1.511719l8.785157-19.558594 8.78125 19.558594c.414062.917969 1.328124 1.511719 2.335937 1.511719 1.007813-.003907 1.921875-.59375 2.335937-1.511719l8.78125-19.558594 8.78125 19.558594c.414063.917969 1.328126 1.511719 2.335938 1.511719 1.007812-.003907 1.921875-.59375 2.335938-1.511719l8.78125-19.558594 8.78125 19.558594c.414062.917969 1.328124 1.511719 2.335937 1.511719 1.007813-.003907 1.921875-.59375 2.335937-1.511719l8.78125-19.558594 8.78125 19.558594c.414063.917969 1.328126 1.511719 2.335938 1.511719 1.007812-.003907 1.921875-.59375 2.335938-1.511719l6.191406-13.789062c-4.953125-5.359376-12.042969-8.71875-19.914063-8.71875zm0 0" fill="#fff"/><path d="m258.515625 289.558594c-5.082031 0-9.679687 2.058594-13.015625 5.382812-3.335938-3.324218-7.933594-5.382812-13.015625-5.382812-10.183594 0-18.441406 8.257812-18.441406 18.441406h62.910156c0-10.183594-8.253906-18.441406-18.4375-18.441406zm0 0" fill="#ffd782"/></svg>