<svg height="512pt" viewBox="-6 0 512 512" width="512pt" xmlns="http://www.w3.org/2000/svg"><path d="m490 267c0 135.308594-109.691406 245-245 245s-245-109.691406-245-245 109.691406-245 245-245 245 109.691406 245 245zm0 0" fill="#ef8318"/><path d="m490 267c0 135.308594-109.691406 245-245 245s-245-109.691406-245-245 109.691406-245 245-245 245 109.691406 245 245zm0 0" fill="#bf7e52"/><path d="m168.582031 267h-7.03125c-14.363281 0-26 11.640625-26 26 0 5.375 1.640625 10.363281 4.433594 14.507812 1.148437-.1875 2.316406-.304687 3.5-.304687 5.777344 0 11.214844 2.25 15.300781 6.339844l14.03125 14.027343 36.390625-36.394531-1.496093-.527343c-14.839844-5.214844-28.058594-13.371094-39.128907-23.648438zm0 0" fill="#333031"/><path d="m187.207031 453.144531c1.121094-1.125 2.621094-1.742187 4.222657-1.742187 1.601562 0 3.101562.621094 4.226562 1.746094l1.605469 1.597656c1.023437 1.027344 1.636719 2.40625 1.722656 3.878906l.128906 2.226562 7.285157-7.289062-42.042969-42.042969-5.585938 5.589844 1.160157.644531c.496093.273438.941406.605469 1.324218.988282l1.601563 1.601562c2.328125 2.332031 2.328125 6.125 0 8.457031l1.414062 1.414063c1.125-1.125 2.625-1.746094 4.226563-1.746094 1.601562 0 3.101562.621094 4.222656 1.742188l1.601562 1.605468c1.125 1.121094 1.746094 2.621094 1.746094 4.222656 0 1.601563-.617187 3.101563-1.742187 4.222657l1.414062 1.417969c1.121094-1.125 2.625-1.742188 4.226563-1.742188 1.601562 0 3.101562.617188 4.226562 1.742188l1.605469 1.601562c1.121094 1.121094 1.738281 2.621094 1.738281 4.226562 0 1.601563-.617187 3.101563-1.738281 4.222657zm0 0" fill="#333031"/><path d="m151.402344 348.980469 12.21875-12.21875-14.027344-14.027344c-1.632812-1.632813-3.804688-2.53125-6.109375-2.53125-2.308594 0-4.480469.898437-6.109375 2.53125-1.632812 1.628906-2.527344 3.800781-2.527344 6.109375 0 2.3125.898438 4.480469 2.527344 6.109375zm0 0" fill="#333031"/><path d="m357.449219 322.066406-5.566407 5.570313 4.367188 4.367187c.757812.753906 1.171875 1.757813 1.171875 2.824219 0 1.070313-.414063 2.074219-1.171875 2.828125-.753906.757812-1.761719 1.171875-2.828125 1.171875s-2.074219-.414063-2.828125-1.171875l-4.367188-4.363281-8.066406 8.066406 4.367188 4.367187c.753906.753907 1.171875 1.757813 1.171875 2.828126 0 1.066406-.417969 2.070312-1.171875 2.828124-.757813.753907-1.761719 1.171876-2.828125 1.171876-1.066407 0-2.074219-.417969-2.828125-1.171876l-4.367188-4.367187-4.285156 4.285156 3.96875 3.964844c2.246094 2.246094 3.480469 5.242187 3.480469 8.441406s-1.234375 6.199219-3.480469 8.441407l-3.5 3.503906 5.242188 5.242187c2.328124 2.332031 2.332031 6.121094 0 8.449219l-36.007813 36.007812c-1.121094 1.125-2.621094 1.742188-4.222656 1.742188-1.601563 0-3.105469-.621094-4.226563-1.742188l-5.246094-5.242187-47.195312 47.195313c-2.246094 2.246093-5.242188 3.480468-8.441406 3.480468-3.199219 0-6.199219-1.234375-8.445313-3.480468l-4.550781-4.550782-11.6875 11.683594c-4.878906 4.878906-11.386719 7.566406-18.320312 7.566406-1.941407 0-3.898438-.222656-5.816407-.65625l-.539062-.125-1.699219 1.703125c-1.125 1.121094-2.625 1.738281-4.226562 1.738281-1.601563 0-3.101563-.617187-4.226563-1.738281l-36.007813-36.007812c-1.121093-1.121094-1.738281-2.625-1.738281-4.226563 0-1.601562.617188-3.101562 1.742188-4.226562l3.019531-3.015625-.046875-.472657c-.089844-.886718-.136719-1.777343-.136719-2.648437 0-6.9375 2.6875-13.441406 7.566406-18.320313l11.6875-11.6875-20.109374-20.105468c-4.652344-4.65625-4.65625-12.230469 0-16.886719l7.15625-7.15625-14.03125-14.027344c-3.730469-3.734375-5.804688-8.503906-6.234376-13.394531-7.726562 8.457031-12.445312 19.699219-12.445312 32.054688v.648437l-29.90625 84.273437c43.585938 39.914063 101.648438 64.273438 165.40625 64.273438 65.371094 0 124.761719-25.605469 168.691406-67.332031l-33.226562-83.480469c-.558594-16.617188-9.640625-31.0625-23.015625-39.121094zm0 0" fill="#333031"/><path d="m109.5 363.453125-29.90625 84.273437c9.332031 8.542969 19.335938 16.359376 29.90625 23.386719zm0 0"/><path d="m144.332031 341.914062c2.597657-5.296874 6.152344-10.035156 10.4375-14l-5.175781-5.179687c-1.632812-1.632813-3.804688-2.53125-6.109375-2.53125-2.308594 0-4.480469.898437-6.109375 2.53125-1.632812 1.628906-2.527344 3.800781-2.527344 6.109375 0 2.3125.898438 4.480469 2.527344 6.109375zm0 0" fill="#231f20"/><path d="m135.550781 293c0 5.375 1.640625 10.363281 4.433594 14.507812 1.148437-.1875 2.316406-.304687 3.5-.304687 5.777344 0 11.214844 2.25 15.300781 6.339844l6.828125 6.824219c4.222657-2.132813 8.800781-3.664063 13.632813-4.460938-8.152344-4.386719-13.695313-13-13.695313-22.90625 0-8.195312 3.792969-15.496094 9.714844-20.265625-2.304687-1.828125-4.535156-3.738281-6.683594-5.734375h-7.03125c-14.363281 0-26 11.640625-26 26zm0 0" fill="#231f20"/><path d="m133.398438 447.246094-.328126-.324219c-1.121093-1.121094-1.738281-2.625-1.738281-4.226563 0-1.601562.617188-3.101562 1.742188-4.226562l3.019531-3.015625-.046875-.472656c-.089844-.886719-.136719-1.777344-.136719-2.648438 0-4.726562 1.25-9.253906 3.589844-13.203125v-32.46875l-4.445312-4.441406c-4.652344-4.65625-4.65625-12.230469 0-16.890625l4.492187-4.488281c.066406-1.648438.21875-3.277344.449219-4.878906l-11.816406-11.8125c-3.730469-3.734376-5.804688-8.503907-6.234376-13.394532-7.726562 8.453125-12.445312 19.695313-12.445312 32.050782v108.328124c.003906.003907.003906.003907.007812.003907zm0 0" fill="#231f20"/><path d="m152.800781 418.738281c1.125-1.121093 2.625-1.738281 4.226563-1.738281.933594 0 1.832031.21875 2.644531.617188l5.390625-5.390626-10.605469-10.609374-11.6875 11.6875c-5.066406 5.066406-7.859375 11.824218-7.859375 19.027343 0 1.351563.101563 2.691407.292969 4.007813zm0 0" fill="#ea2a3d"/><path d="m205.691406 452.855469-6.746094 6.746093c-.136718 1.3125-.679687 2.59375-1.683593 3.597657l-18.847657 18.84375c2.308594.628906 4.710938.964843 7.171876.964843 7.199218 0 13.957031-2.792968 19.027343-7.859374l11.6875-11.683594zm0 0" fill="#ea2a3d"/><path d="m108 45.328125c0 5.320313 4.3125 9.636719 9.636719 9.636719h1.375v85.0625c1.152343-.320313 2.363281-.507813 3.617187-.507813h9.917969v-2.066406c0-62.007813 50.445313-112.453125 112.453125-112.453125s112.453125 50.445312 112.453125 112.453125v2.066406h9.917969c.210937 0 .417968.023438.628906.03125v-81.621093c0-27.613282-22.386719-50-50-50h-11.355469c-8.109375 0-15.761719 1.941406-22.535156 5.371093-6.746094-8.125-16.921875-13.300781-28.304687-13.300781h-138.167969c-5.320313 0-9.636719 4.3125-9.636719 9.636719 0 4.035156 2.484375 7.488281 6.003906 8.921875-3.519531 1.4375-6.003906 4.886718-6.003906 8.925781 0 4.035156 2.484375 7.484375 6.003906 8.921875-3.519531 1.433594-6.003906 4.882812-6.003906 8.921875zm0 0" fill="#1a2b63"/><path d="m108 45.328125c0 5.320313 4.3125 9.636719 9.636719 9.636719h1.375v85.0625c1.152343-.320313 2.363281-.507813 3.617187-.507813h9.917969v-2.066406c0-22.425781 6.605469-43.339844 17.964844-60.902344v-21.585937h-1.375c-5.320313 0-9.636719-4.316406-9.636719-9.636719 0-4.039063 2.484375-7.488281 6.003906-8.925781-3.519531-1.433594-6.003906-4.886719-6.003906-8.921875 0-4.035157 2.484375-7.488281 6.003906-8.921875-3.519531-1.433594-6.003906-4.886719-6.003906-8.921875 0-5.324219 4.316406-9.636719 9.636719-9.636719h-31.5c-5.320313 0-9.636719 4.3125-9.636719 9.636719 0 4.035156 2.484375 7.488281 6.003906 8.921875-3.519531 1.4375-6.003906 4.886718-6.003906 8.925781 0 4.035156 2.484375 7.484375 6.003906 8.921875-3.519531 1.433594-6.003906 4.882812-6.003906 8.921875zm0 0" fill="#11204c"/><path d="m132.546875 184.546875v-46.027344h-9.917969c-7.992187 0-14.53125 6.539063-14.53125 14.53125v32.972657c0 7.992187 6.539063 14.53125 14.53125 14.53125h11.0625c-.75-5.230469-1.144531-10.574219-1.144531-16.007813zm0 0" fill="#ffc987"/><path d="m358.992188 197.503906 3.054687 3.050782h.800781l7.667969-7.664063-3.453125-3.453125c-.753906-.757812-1.171875-1.761719-1.171875-2.828125 0-1.070313.417969-2.074219 1.171875-2.828125.757812-.757812 1.761719-1.171875 2.828125-1.171875 1.070313 0 2.074219.414063 2.828125 1.171875l3.453125 3.453125 5.730469-5.734375v-4.671875l-1.117188-1.113281c-.753906-.757813-1.171875-1.761719-1.171875-2.828125 0-1.070313.417969-2.074219 1.171875-2.828125.328125-.328125.710938-.582032 1.117188-.773438v-16.230468c0-7.992188-6.539063-14.53125-14.53125-14.53125h-9.917969v46.027343c0 4-.21875 7.953125-.632813 11.847657.820313.132812 1.578126.507812 2.171876 1.105468zm0 0" fill="#ffc987"/><path d="m245 24c-62.65625 0-113.453125 50.796875-113.453125 113.453125v47.09375c0 49.855469 32.160156 92.199219 76.867187 107.421875l21.796876-21.792969c2.242187-2.242187 5.242187-3.480469 8.441406-3.480469 3.199218 0 6.195312 1.238282 8.441406 3.484376l23.066406 23.0625 4.28125-4.28125-3.453125-3.453126c-1.558593-1.5625-1.558593-4.097656.003907-5.65625.753906-.757812 1.757812-1.171874 2.828124-1.171874 1.066407 0 2.070313.414062 2.828126 1.171874l3.453124 3.453126 8.066407-8.070313-3.453125-3.453125c-.753906-.753906-1.171875-1.757812-1.171875-2.828125 0-1.066406.417969-2.070313 1.171875-2.824219.753906-.757812 1.761718-1.175781 2.828125-1.175781 1.066406 0 2.074219.417969 2.828125 1.175781l3.453125 3.449219 8.066406-8.066406-3.453125-3.453125c-.753906-.753906-1.171875-1.757813-1.171875-2.828125 0-1.066407.417969-2.070313 1.171875-2.828125.753906-.753906 1.761719-1.171875 2.828125-1.171875 1.070313 0 2.074219.417969 2.828125 1.171875l3.453125 3.453125 8.066406-8.066407-3.453125-3.453124c-.753906-.757813-1.167968-1.761719-1.167968-2.828126 0-1.070312.414062-2.074218 1.171874-2.828124.753907-.757813 1.757813-1.171876 2.828126-1.171876 1.066406 0 2.070312.414063 2.828124 1.171876l3.453126 3.453124 8.066406-8.070312-3.453125-3.453125c-.753907-.753906-1.171875-1.757813-1.171875-2.828125 0-1.066406.417968-2.070312 1.171875-2.828125.753906-.753906 1.761719-1.171875 2.828125-1.171875s2.074218.417969 2.828125 1.171875l3.453125 3.453125 8.066406-8.066406-3.453125-3.453125c-.753906-.753907-1.171875-1.757813-1.171875-2.828125 0-1.066406.417969-2.070313 1.171875-2.828125.753906-.753907 1.761719-1.171875 2.828125-1.171875 1.070312 0 2.074219.417968 2.828125 1.171875l3.453125 3.453125 7.460938-7.460938c.070312-.339844.128906-.679687.195312-1.019531l-3.042969-3.039063c-.753906-.757812-1.171875-1.761718-1.171875-2.828124 0-1.070313.417969-2.074219 1.171875-2.828126.757813-.757812 1.761719-1.171874 2.828125-1.171874.578125 0 1.128906.128906 1.640625.359374.425781-3.992187.648438-8.042968.648438-12.144531v-47.097656c.003906-62.65625-50.792969-113.453125-113.449219-113.453125zm0 0" fill="#fff"/><path d="m208.414062 291.96875 9.808594-9.804688c-33.300781-19.765624-55.628906-56.082031-55.628906-97.617187v-18.394531c-9.996094-12.160156-11.992188-29.746094-3.667969-44.160156 1.1875-2.058594 3.152344-3.375 5.308594-3.820313 8.292969-48.449219 47.3125-86.40625 96.289063-93.109375-5.078126-.695312-10.257813-1.0625-15.523438-1.0625-62.65625 0-113.453125 50.796875-113.453125 113.453125v47.09375c0 49.855469 32.160156 92.199219 76.867187 107.421875zm0 0" fill="#d9eafc"/><path d="m173.15625 175.105469c-18.5625-10.71875-24.949219-34.546875-14.230469-53.113281 2.203125-3.816407 7.082031-5.125 10.898438-2.921876l53.53125 30.90625c3.816406 2.207032 5.125 7.082032 2.921875 10.894532-10.71875 18.570312-34.546875 24.957031-53.121094 14.234375zm0 0" fill="#333031"/><path d="m193.933594 175.105469c-17.863282-10.316407-24.445313-32.765625-15.363282-50.988281l-8.746093-5.046876c-3.8125-2.203124-8.695313-.898437-10.898438 2.921876-10.71875 18.566406-4.332031 42.394531 14.234375 53.113281 9.375 5.414062 20.085938 6.460937 29.777344 3.785156-3.082031-.855469-6.109375-2.113281-9.003906-3.785156zm0 0" fill="#231f20"/><path d="m316.84375 175.105469c-18.570312 10.722656-42.398438 4.335937-53.121094-14.230469-2.199218-3.8125-.894531-8.691406 2.921875-10.894531l53.535157-30.910157c3.8125-2.203124 8.691406-.894531 10.890624 2.921876 10.726563 18.566406 4.335938 42.394531-14.226562 53.113281zm0 0" fill="#333031"/><path d="m279.945312 149.871094c-1.355468-2.351563-1.375-5.113282-.292968-7.402344l-13.007813 7.511719c-3.816406 2.203125-5.125 7.082031-2.921875 10.894531 10.71875 18.566406 34.546875 24.953125 53.117188 14.230469 3.785156-2.183594 7.050781-4.917969 9.78125-8.035157-17.324219 6.152344-37.160156-.71875-46.675782-17.199218zm0 0" fill="#231f20"/><g fill="#333031"><path d="m222 208.554688c0 6.628906-5.371094 12-12 12s-12-5.371094-12-12c0-6.625 5.371094-12 12-12s12 5.375 12 12zm0 0"/><path d="m257 208.554688c0 6.628906-5.371094 12-12 12s-12-5.371094-12-12c0-6.625 5.371094-12 12-12s12 5.375 12 12zm0 0"/><path d="m292 208.554688c0 6.628906-5.371094 12-12 12s-12-5.371094-12-12c0-6.625 5.371094-12 12-12s12 5.375 12 12zm0 0"/><path d="m222 239.554688c0 6.628906-5.371094 12-12 12s-12-5.371094-12-12c0-6.625 5.371094-12 12-12s12 5.375 12 12zm0 0"/><path d="m257 239.554688c0 6.628906-5.371094 12-12 12s-12-5.371094-12-12c0-6.625 5.371094-12 12-12s12 5.375 12 12zm0 0"/><path d="m292 239.554688c0 6.628906-5.371094 12-12 12s-12-5.371094-12-12c0-6.625 5.371094-12 12-12s12 5.375 12 12zm0 0"/></g><path d="m408.195312 272.738281 4.992188-4.992187-.6875-.746094c-21-46 47-69 28-98-8.335938-12.71875-9.535156-26-8.273438-36.921875l-3.902343-3.902344c-1.953125-1.953125-5.121094-1.953125-7.070313 0-1.953125 1.953125-1.953125 5.117188 0 7.070313l3.578125 3.578125c-2.652343 1.621093-5.164062 3.5625-7.480469 5.828125l-2.75-2.753906c-1.953124-1.953126-5.121093-1.953126-7.074218 0-1.953125 1.953124-1.953125 5.117187 0 7.070312l2.746094 2.746094-6.652344 6.652344-2.746094-2.746094c-1.949219-1.949219-5.117188-1.949219-7.070312 0-1.953126 1.953125-1.953126 5.121094 0 7.070312l2.746093 2.746094-6.652343 6.65625-2.746094-2.746094c-1.953125-1.953125-5.121094-1.953125-7.070313 0-1.953125 1.953125-1.953125 5.117188 0 7.070313l2.742188 2.742187-6.652344 6.65625-2.742187-2.746094c-1.953126-1.953124-5.121094-1.953124-7.070313 0-1.953125 1.953126-1.953125 5.117188 0 7.070313l2.742187 2.746094-6.652343 6.652343-2.746094-2.746093c-1.949219-1.953125-5.117187-1.953125-7.070313 0-1.953124 1.953125-1.953124 5.117187 0 7.070312l2.746094 2.746094-6.652344 6.652344-2.746093-2.742188c-1.953125-1.953125-5.121094-1.953125-7.070313 0-1.953125 1.949219-1.953125 5.117188 0 7.070313l2.746094 2.742187-6.652344 6.652344-2.746094-2.742187c-1.953124-1.953126-5.121093-1.953126-7.070312 0-1.953125 1.949218-1.953125 5.117187 0 7.070312l2.746094 2.742188-6.65625 6.65625-2.742188-2.746094c-1.953125-1.953125-5.121094-1.953125-7.070312 0-1.953125 1.953125-1.953125 5.117187-.003906 7.070312l2.746093 2.746094-6.652343 6.652344-2.746094-2.742188c-1.953125-1.953125-5.121094-1.953125-7.070313 0-1.953125 1.949219-1.953125 5.117188 0 7.070313l2.746094 2.742187-6.65625 6.652344-2.742187-2.742188c-1.953126-1.953124-5.121094-1.953124-7.070313 0-1.953125 1.949219-1.953125 5.117188 0 7.070313l2.746094 2.742187-6.65625 6.65625-2.742188-2.746093c-1.953125-1.953125-5.121093-1.953125-7.074219 0-1.949218 1.953125-1.949218 5.117187 0 7.070312l2.746094 2.746094-3.574218 3.574219 59.472656 59.476562 3.574218-3.578125 3.660157 3.660157c.976562.976562 2.257812 1.464843 3.535156 1.464843s2.558594-.488281 3.535156-1.464843c1.953125-1.953126 1.953125-5.121094 0-7.074219l-3.660156-3.65625 6.65625-6.65625 3.65625 3.660156c.976563.976563 2.257813 1.464844 3.535156 1.464844 1.28125 0 2.558594-.488281 3.535157-1.464844 1.953124-1.953125 1.953124-5.117187 0-7.070313l-3.65625-3.65625 6.652343-6.65625 3.65625 3.660157c.976563.976562 2.257813 1.464843 3.535157 1.464843 1.28125 0 2.5625-.488281 3.535156-1.464843 1.953125-1.953125 1.953125-5.117188 0-7.070313l-3.65625-3.660156 6.652344-6.652344 3.660156 3.660156c.976562.976563 2.257812 1.464844 3.535156 1.464844s2.558594-.488281 3.535156-1.46875c1.953125-1.949218 1.953125-5.117187 0-7.070312l-3.660156-3.65625 6.652344-6.652344 3.660156 3.65625c.976562.976562 2.257812 1.464844 3.535156 1.464844 1.28125 0 2.5625-.488282 3.539063-1.464844 1.949219-1.953125 1.949219-5.117188-.003907-7.070312l-3.65625-3.65625 6.652344-6.65625 3.65625 3.660156c.976563.976562 2.257813 1.464844 3.535156 1.464844 1.28125 0 2.5625-.488282 3.535157-1.464844 1.953125-1.953125 1.953125-5.117188 0-7.070313zm0 0" fill="#999cad"/><path d="m434.441406 156.410156c-1.132812-3.472656-1.84375-6.910156-2.238281-10.265625-2.960937 1.511719-5.699219 3.488281-8.117187 5.90625l-147.5625 147.554688 7.070312 7.070312 147.558594-147.554687c1.019531-1.019532 2.121094-1.921875 3.289062-2.710938zm0 0" fill="#c3ddf4"/><path d="m408.855469 243.796875-94.070313 94.070313 7.070313 7.070312 87.457031-87.457031c-1.03125-4.808594-1.105469-9.359375-.457031-13.683594zm0 0" fill="#c3ddf4"/><path d="m152.109375 348.273438-14.027344-14.027344c-2.980469-2.976563-2.980469-7.824219 0-10.804688 1.441407-1.441406 3.359375-2.238281 5.402344-2.238281 2.039063 0 3.957031.796875 5.402344 2.238281l14.027343 14.027344 10.605469-10.605469-14.027343-14.027343c-4.277344-4.277344-9.960938-6.632813-16.011719-6.632813-6.046875 0-11.730469 2.355469-16.007813 6.632813-8.828125 8.828124-8.828125 23.191406 0 32.019531l14.027344 14.027343zm0 0" fill="#ea2a3d"/><path d="m269.738281 405.625c-2.328125-2.328125-2.328125-6.121094.003907-8.449219l1.601562-1.605469c1.125-1.121093 2.625-1.742187 4.226562-1.742187 1.601563 0 3.101563.621094 4.226563 1.746094l1.414063-1.417969c-1.125-1.121094-1.742188-2.625-1.742188-4.226562 0-1.601563.617188-3.101563 1.742188-4.222657l1.605468-1.601562c1.121094-1.125 2.621094-1.746094 4.222656-1.746094 1.601563 0 3.101563.621094 4.222657 1.742187l1.414062-1.414062c-2.324219-2.328125-2.324219-6.121094 0-8.453125l1.605469-1.601563c1.121094-1.121093 2.621094-1.742187 4.226562-1.742187 1.601563 0 3.101563.621094 4.222657 1.742187l1.414062-1.414062c-1.121093-1.121094-1.738281-2.621094-1.738281-4.222656 0-1.601563.617188-3.101563 1.742188-4.226563l1.601562-1.605469c1.121094-1.121093 2.625-1.738281 4.226562-1.738281 1.601563 0 3.101563.617188 4.226563 1.738281l15.191406 15.195313 3.5-3.5c5.035157-5.035156 5.035157-13.269531 0-18.300781l-85.089843-85.089844c-5.03125-5.035156-13.265626-5.035156-18.300782 0l-95.152344 95.152344c-5.035156 5.035156-5.035156 13.269531 0 18.300781l85.089844 85.089844c5.03125 5.035156 13.269532 5.035156 18.300782 0l47.195312-47.195313zm0 0" fill="#a00026"/><path d="m240.285156 447.144531-12.503906-12.5c-6.707031.847657-13.714844-1.28125-18.867188-6.429687-5.148437-5.148438-7.273437-12.160156-6.429687-18.867188l-48.039063-48.042968c-3.71875-3.714844-4.703124-9.15625-2.976562-13.800782l-17.121094 17.121094c-5.03125 5.03125-5.03125 13.265625 0 18.300781l85.089844 85.089844c5.035156 5.03125 13.269531 5.03125 18.300781 0l19.859375-19.859375c-5.113281 4.03125-12.601562 3.699219-17.3125-1.011719zm0 0" fill="#820022"/><path d="m247.570312 412.203125c0 12.503906-10.136718 22.644531-22.640624 22.644531-12.507813 0-22.644532-10.140625-22.644532-22.644531 0-12.507813 10.136719-22.644531 22.644532-22.644531 12.503906 0 22.640624 10.136718 22.640624 22.644531zm0 0" fill="#ea2a3d"/><path d="m350.824219 284.050781c0 6.90625-5.59375 12.5-12.5 12.5-6.902344 0-12.5-5.59375-12.5-12.5 0-6.902343 5.597656-12.5 12.5-12.5 6.90625 0 12.5 5.597657 12.5 12.5zm0 0" fill="#c3ddf4"/><path d="m391.996094 242.878906c0 6.902344-5.59375 12.5-12.5 12.5-6.902344 0-12.5-5.597656-12.5-12.5s5.597656-12.5 12.5-12.5c6.90625 0 12.5 5.597656 12.5 12.5zm0 0" fill="#c3ddf4"/><path d="m424.105469 213.722656c3.054687-3.925781 6.1875-7.699218 9.035156-11.382812.171875-3.40625-1.027344-6.871094-3.628906-9.472656-4.882813-4.882813-12.796875-4.882813-17.679688 0-4.878906 4.878906-4.882812 12.796874 0 17.675781 3.324219 3.324219 8.050781 4.378906 12.273438 3.179687zm0 0" fill="#c3ddf4"/><path d="m257.816406 389.457031c-1.921875 0-3.839844-.734375-5.304687-2.195312-2.929688-2.933594-2.929688-7.679688 0-10.609375l32.023437-32.023438c2.929688-2.925781 7.675782-2.925781 10.605469 0 2.929687 2.929688 2.929687 7.679688 0 10.609375l-32.023437 32.023438c-1.464844 1.460937-3.382813 2.195312-5.300782 2.195312zm0 0" fill="#ea2a3d"/><path d="m240.429688 372.070312c-1.917969 0-3.839844-.730468-5.304688-2.195312-2.929688-2.929688-2.929688-7.675781 0-10.605469l32.023438-32.023437c2.929687-2.929688 7.679687-2.929688 10.609374 0 2.925782 2.929687 2.925782 7.679687 0 10.605468l-32.023437 32.023438c-1.464844 1.464844-3.386719 2.195312-5.304687 2.195312zm0 0" fill="#ea2a3d"/><path d="m223.046875 354.6875c-1.921875 0-3.839844-.730469-5.304687-2.195312-2.929688-2.929688-2.929688-7.675782 0-10.605469l32.023437-32.023438c2.929687-2.929687 7.675781-2.929687 10.605469 0 2.929687 2.929688 2.929687 7.675781 0 10.609375l-32.023438 32.019532c-1.464844 1.464843-3.382812 2.195312-5.300781 2.195312zm0 0" fill="#ea2a3d"/><path d="m133.398438 447.246094-23.890626 23.890625c14.496094 9.640625 30.070313 17.785156 46.515626 24.195312l12.730468-12.730469zm0 0"/><path d="m152.09375 418.03125-19.726562 19.730469c-2.714844 2.714843-2.714844 7.152343-.003907 9.867187l36.007813 36.007813c2.710937 2.710937 7.152344 2.710937 9.863281-.003907l19.730469-19.726562c2.710937-2.714844 2.710937-7.152344 0-9.867188l-1.601563-1.601562c-2.714843-2.714844-7.152343-2.714844-9.863281-.003906 2.710938-2.710938 2.710938-7.152344 0-9.863282l-1.605469-1.601562c-2.714843-2.710938-7.152343-2.710938-9.863281 0 2.710938-2.710938 2.710938-7.152344-.003906-9.863281l-1.601563-1.601563c-2.710937-2.71875-7.152343-2.71875-9.863281 0 2.710938-2.71875 2.710938-7.152344 0-9.867187l-1.605469-1.601563c-2.710937-2.714844-7.148437-2.714844-9.863281-.003906zm0 0" fill="#ffe2b8"/><path d="m178.632812 473.90625-37.039062-37.039062c-1.722656-1.722657-2.378906-4.117188-1.976562-6.355469l-7.25 7.253906c-2.714844 2.710937-2.714844 7.148437-.003907 9.863281l36.007813 36.007813c2.710937 2.710937 7.152344 2.710937 9.863281 0l8.152344-8.152344c-2.585938 1.035156-5.667969.507813-7.753907-1.578125zm0 0" fill="#ffc987"/><path d="m462.980469 335.257812c-5.242188 0-9.5-4.230468-9.5-9.433593 0-1.722657.46875-3.410157 1.363281-4.878907l7.398438-13.511718c.148437-.269532.429687-.433594.734374-.433594.308594 0 .589844.164062.738282.433594l7.394531 13.511718c.898437 1.46875 1.367187 3.15625 1.367187 4.878907.003907 5.203125-4.257812 9.433593-9.496093 9.433593zm0 0" fill="#b7092b"/><path d="m438.945312 372.863281c0 4.769531-3.863281 8.632813-8.632812 8.632813-4.765625 0-8.632812-3.863282-8.632812-8.632813v-12.230469c0-4.765624 3.867187-8.632812 8.632812-8.632812 4.769531 0 8.632812 3.867188 8.632812 8.632812zm0 0" fill="#b7092b"/><path d="m496.214844 171.550781-7.566406-.324219c-.183594-2.21875-.535157-4.421874-1.070313-6.59375l6.191406-3.574218c2.390625-1.382813 3.210938-4.441406 1.832031-6.832032-1.382812-2.390624-4.441406-3.214843-6.832031-1.828124l-4.78125 2.757812c-1.46875-2.792969-3.285156-5.453125-5.425781-7.925781l4.660156-4.664063c1.953125-1.953125 1.953125-5.117187 0-7.070312-1.949218-1.953125-5.117187-1.953125-7.070312 0l-4.984375 4.984375c-2.117188-1.511719-4.339844-2.8125-6.644531-3.886719l3.089843-5.351562c1.382813-2.394532.5625-5.449219-1.828125-6.832032-2.390625-1.378906-5.449218-.5625-6.832031 1.828125l-4.15625 7.195313c-1.882813-.367188-3.789063-.59375-5.699219-.703125l-.316406-7.421875c-.117188-2.757813-2.476562-4.902344-5.207031-4.78125-2.757813.117187-4.898438 2.449218-4.78125 5.207031l.324219 7.628906c-1.519532.277344-3.027344.640625-4.515626 1.085938l-3.710937-3.710938c-1.519531 11.160157-.566406 25.019531 8.109375 38.261719 19 29-49 52-28 98l1.410156 1.527344 2.441406-2.441406 3.65625 3.65625c.882813.886718 2.019532 1.347656 3.171876 1.433593v60.136719c0 5.089844 3.726562 9.230469 8.304687 9.230469s8.300781-4.140625 8.300781-9.230469v-65.730469c0-5.085937 3.726563-9.222656 8.304688-9.222656 4.574218 0 8.300781 4.136719 8.300781 9.222656v20.757813c0 5.085937 3.726563 9.226562 8.304687 9.226562 4.578126 0 8.304688-4.140625 8.304688-9.226562v-73.398438l1.90625 1.90625c.980469.976563 2.257812 1.464844 3.535156 1.464844 1.28125 0 2.5625-.488281 3.539063-1.464844 1.949219-1.953125 1.949219-5.117187-.003907-7.070312l-3.664062-3.667969c2.261719-2.316406 4.203125-4.828125 5.828125-7.480469l4.492187 4.492188c.972657.976562 2.253907 1.464844 3.53125 1.464844 1.28125 0 2.5625-.488282 3.535157-1.464844 1.953125-1.949219 1.953125-5.117188 0-7.070313l-7.1875-7.1875c.558593-1.855469.980469-3.742187 1.277343-5.644531l7.496094.320312c.074219.003907.144532.003907.21875.003907 2.664063 0 4.878906-2.101563 4.992188-4.785157.117187-2.757812-2.023438-5.089843-4.78125-5.207031zm0 0" fill="#b7092b"/><path d="m380.464844 361.1875c.015625.539062.035156 1.074219.035156 1.617188v73.765624l-46.898438-46.894531-35.355468 35.351563 59.523437 59.519531c20.507813-10.648437 39.320313-24.109375 55.925781-39.878906zm0 0"/><path d="m269.03125 406.332031 19.730469 19.726563c2.714843 2.714844 7.152343 2.714844 9.867187.003906l36.007813-36.007812c2.710937-2.710938 2.710937-7.152344-.003907-9.863282l-19.726562-19.730468c-2.714844-2.710938-7.152344-2.710938-9.871094 0l-1.597656 1.601562c-2.714844 2.714844-2.714844 7.152344-.003906 9.863281-2.710938-2.710937-7.152344-2.710937-9.863282 0l-1.605468 1.605469c-2.707032 2.714844-2.707032 7.152344.003906 9.863281-2.710938-2.710937-7.152344-2.710937-9.863281.003907l-1.601563 1.601562c-2.71875 2.710938-2.71875 7.152344 0 9.863281-2.71875-2.710937-7.152344-2.710937-9.867187 0l-1.601563 1.605469c-2.714844 2.710938-2.714844 7.148438-.003906 9.863281zm0 0" fill="#ffe2b8"/><path d="m334.636719 380.191406-7.425781-7.429687c.710937 2.441406.109374 5.191406-1.804688 7.105469l-37.039062 37.039062c-1.863282 1.863281-4.519532 2.476562-6.90625 1.851562l7.304687 7.304688c2.710937 2.710938 7.148437 2.714844 9.863281 0l36.007813-36.007812c2.710937-2.710938 2.710937-7.152344 0-9.863282zm0 0" fill="#ffc987"/></svg>