<svg id="Layer_1" enable-background="new 0 0 512 512" height="512" viewBox="0 0 512 512" width="512" xmlns="http://www.w3.org/2000/svg"><g><path d="m40.575 383.792h430.851c18.862-34.718 29.577-74.504 29.577-116.794 0-135.311-109.691-245.002-245.002-245.002s-245.002 109.691-245.002 245.002c-.001 42.289 10.714 82.076 29.576 116.794z" fill="#f964b2"/><path d="m405.184 207.591c-11.546-10.724-14.239-26.113-10.102-38.691 15.395-46.819-19.101-63.799-41.285-122.449-19.29-51-73.864-47.776-91.519-45.285-2.082.294-4.181.404-6.278.368-.722.013-1.443.001-2.165-.023l.081.079c-2.111 2.435-6.982 8.732-10.067 18.122-6.502 19.787.144 37.554 7.001 49.115 1.938 2.803 2.951 4.828 3.106 5.148l.409.849 3.27-.001.409-.848c.656-1.357 16.52-33.17 54.555-26.451 16.624 2.933 28.582 15.987 35.545 38.8 5.608 18.379 7.104 39.273 7.883 59.115.313 7.983-.266 16.485-.826 24.708-1.771 25.987-3.603 52.858 22.631 66.562 17.133 8.95 27.363 20.966 31.275 36.733l.052.158c.823-.379 1.404-.519 1.404-.519.875-1.994 1.876-3.939 3.013-5.816 4.361-7.203 6.871-15.65 6.871-24.685-.001-13.823-5.875-26.269-15.263-34.989z" fill="#6c5475"/><path d="m249.722 1.167c-17.655-2.491-72.229-5.715-91.519 45.285-22.184 58.65-56.679 75.63-41.285 122.449 4.136 12.578 1.444 27.967-10.102 38.691-9.387 8.719-15.262 21.166-15.262 34.99 0 9.035 2.511 17.482 6.872 24.685 1.136 1.877 2.137 3.822 3.013 5.816 0 0 .529.258 1.277.787l.125-.209.054-.217c3.912-15.768 14.143-27.783 31.275-36.733 26.234-13.704 24.402-40.575 22.631-66.562-.561-8.223-1.14-16.725-.826-24.708.779-19.842 2.275-40.736 7.883-59.115 6.963-22.812 18.922-35.866 35.545-38.8 38.036-6.718 53.898 25.094 54.555 26.451l.162.337c.751-.654 1.189-.989 1.189-.989l-2.912-4.831c-23.799-39.555 3.603-66.959 3.603-66.959-2.098.036-4.197-.074-6.278-.368z" fill="#543e5b"/><path d="m405.9 307.632s-.018-.109-.049-.296c-4.091-11.716-12.591-25.308-30.167-33.913-23.027-11.272-61.659-39.643-61.659-103.001v-.4l-20.78-36.14h-60.514c1.005 4.643 2.561 9.521 4.821 14.617l3.836 10.195c-2.186 2.007-7.045 7.863-2.303 17.158l-.218.513c-.075.153-7.258 15.191 4.08 27.465l-4.253 8.413c-.071.143-6.934 14.382 5.377 23.461l8.857 9.274c-.964 1.614-1.513 4.163.473 6.882v6.91c-1.901 3.04-12.733 22.152 1.68 41.922-.853 3.675-5.69 22.506-18.599 40.152h19.518 138.663c6.702-8.77 10.227-17.782 11.667-26.515z" fill="#6c5475"/><path d="m256.693 300.35c-15.832-21.032-1.791-41.137-1.791-41.137v-7.868c-2.999-3.62 0-6.473 0-6.473l-9.836-10.299c-11.585-8.434-5.027-21.663-5.027-21.663l4.727-9.352c-11.792-11.792-4.552-26.531-4.552-26.531l.531-1.246c-6.03-10.976 2.423-16.615 2.423-16.615l-4.212-11.195c-2.173-4.904-3.699-9.602-4.7-14.088h-15.501l-20.581 35.792-.199.348v.4c0 63.357-38.632 91.729-61.659 103.001-17.167 8.405-25.673 21.566-29.872 33.09-.427 4.512-.774 7.816-.774 7.816 1.441 8.733 4.965 17.745 11.667 26.515h121.044c14.124-19.724 18.312-40.495 18.312-40.495z" fill="#543e5b"/><path d="m378.526 235.382c-33.5-17.5-19.695-56.793-21-90-1.304-33.207-5-92.333-44.667-99.333s-56.166 27.276-56.166 27.276l55.833 97.097c0 54.041 28 87.46 62.5 104.349 20.678 10.123 28.418 27.364 31.305 39.559.963-5.838 1.004-11.552.407-16.983-.915-8.315.487-16.662 3.824-24.264-3.675-14.809-13.103-27.811-32.036-37.701z" fill="#a98bbc"/><path d="m133.474 235.382c33.5-17.5 19.695-56.793 21-90 1.304-33.207 5-92.333 44.667-99.333s56.166 27.276 56.166 27.276l-55.832 97.097c0 54.041-28 87.46-62.5 104.349-20.678 10.123-28.418 27.364-31.305 39.559-.963-5.838-1.004-11.552-.407-16.983.915-8.315-.487-16.662-3.825-24.264 3.675-14.809 13.103-27.811 32.036-37.701z" fill="#876d93"/><path d="m367.793 130.72c-.11-4.856-4.881-8.28-9.495-6.764-1.042.342-2.033.704-2.975 1.08-9.168 3.663-15.703 11.811-17.619 21.401 2.524 14.47.874 33.188-.707 43.239-.196.863-.401 1.712-.603 2.566 30.176 15.004 31.901-39.388 31.399-61.522z" fill="#38c674"/><path d="m144.207 130.72c.11-4.856 4.881-8.28 9.495-6.764 1.042.342 2.033.704 2.975 1.08 9.168 3.663 15.703 11.811 17.619 21.401-2.524 14.47-.873 33.188.708 43.239.195.863.401 1.712.603 2.566-30.177 15.004-31.902-39.388-31.4-61.522z" fill="#2ab663"/><path d="m462.419 383.248c-16.077-32.155-44.295-41.133-57.151-43.602 0 0-105.517-19.253-105.517-56.679 0-6.08 0-4.259 0-8.195-10.601 9.477-28.78 21.551-43.751 21.914-1.206-.029-2.435-.142-3.677-.316.798 1.434 1.703 2.876 2.758 4.324-1.251 5.389-11.052 43.365-42.336 62.408-15.086 9.184-33.034 20.509-35.545 23.885l-.021-.017c-.525.69-12.9 17.184-17.622 42.931-3.012 16.423-3.097 38.837 8.059 63.664 27.418 10.609 57.219 16.435 88.384 16.435 89.086 0 167.059-47.551 209.942-118.652-1.098-2.871-2.266-5.588-3.523-8.1z" fill="#38c674"/><path d="m254.161 296.577c-14.597-1.237-31.741-12.714-41.912-21.806v8.195c0 37.426-105.517 56.679-105.517 56.679-12.857 2.469-41.074 11.447-57.151 43.602-1.256 2.513-2.424 5.229-3.522 8.1 28.234 46.812 71.68 83.413 123.492 102.958-27.414-58.773 8.823-106.429 8.823-106.429s.653-2.495 35.153-23.495 43.168-64.032 43.168-64.032c-.952-1.262-1.789-2.521-2.534-3.772z" fill="#2ab663"/><path d="m335.529 127.45c-1.998-2.251-3.097-4.883-3.178-7.606-.309-10.37-2.928-35.752-20.518-47.465-12.477-8.309-30.017-8.222-52.134.259-2.043.784-4.262.891-6.356.333l.01.016c-2.652 2.27-9.774 8.958-15.267 19.565-6.226 12.025-11.368 31.507-.534 55.946l3.836 10.195c-2.186 2.007-7.045 7.863-2.303 17.158l-.218.513c-.075.153-7.258 15.191 4.08 27.465l-4.253 8.413c-.071.143-6.934 14.382 5.377 23.461l8.857 9.274c-.964 1.614-1.513 4.163.473 6.882v6.91c-1.889 3.021-12.586 21.913 1.423 41.55 5.197.171 10.425-.781 15.269-2.877 20.003-8.654 36.245-22.93 46.969-41.284 10.563-18.075 18.807-39.98 24.51-65.148 2.469-15.693 5.098-51.005-6.043-63.56z" fill="#50dd89"/><path d="m254.902 259.213v-7.868c-2.999-3.62 0-6.473 0-6.473l-9.836-10.299c-11.585-8.434-5.027-21.663-5.027-21.663l4.727-9.352c-11.792-11.792-4.552-26.531-4.552-26.531l.531-1.246c-6.03-10.976 2.423-16.615 2.423-16.615l-4.212-11.195c-20.57-46.412 16.351-74.646 16.351-74.646l-.02-.032c-1.015-.07-2.023-.283-2.99-.654-22.117-8.479-39.657-8.566-52.133-.26-17.59 11.713-20.209 37.097-20.518 47.466-.081 2.725-1.18 5.355-3.179 7.606-11.015 12.412-8.602 48.676-6.033 63.606 5.691 25.12 13.935 47.023 24.499 65.104 10.725 18.354 26.967 32.63 46.969 41.284 4.692 2.029 9.743 2.985 14.778 2.889-15.811-21.027-1.778-41.121-1.778-41.121z" fill="#38c674"/><g><path d="m318.685 173.106c-4.836-5.455-9.503-8.605-13.828-10.21.849 2.048 1.325 4.422 1.299 6.949-.043 4.289-1.521 8.095-3.798 10.592 3.602-.809 6.418-1.982 8.154-2.882 3.515-1.823 6.167-2.547 7.742-2.835.656-.12.91-1.074.431-1.614z" fill="#ffdd40"/></g><path d="m278.323 171.974c-.026 2.538.545 4.888 1.527 6.822 3.732 1.409 7.314 2.159 10.647 2.446-2.782-2.489-4.603-6.797-4.553-11.68.018-1.845.307-3.598.805-5.2-2.156 1.188-3.898 2.558-5.132 3.712-.905.847-2.033 1.765-3.223 2.68-.038.401-.066.806-.071 1.22z" fill="#ffdd40"/><g><path d="m278.657 170.556c-2.571 1.994-5.529 3.995-7.402 5.225-.505.332-.309 1.234.27 1.242l.262.003c2.461.033 4.905.518 7.234 1.454.393.158.783.303 1.174.446-1.064-1.822-1.693-4.136-1.668-6.652.006-.586.056-1.158.13-1.718z" fill="#ffb332"/></g><g><path d="m285.948 164.822c-.606 1.577-.953 3.323-.971 5.164-.047 4.765 2.108 8.955 5.353 11.241 4.708.425 8.927-.061 12.389-.874 2.561-2.334 4.225-5.965 4.266-10.068.027-2.688-.647-5.193-1.822-7.278-7.864-3.038-14.615-.942-19.215 1.815z" fill="#876d93"/></g><g><path d="m296.829 166.895c0-2.012-.602-3.849-1.595-5.266-3.623.383-6.775 1.689-9.286 3.194-.606 1.577-.954 3.323-.972 5.164-.007.71.041 1.406.128 2.086 1.216 1.789 3.048 2.929 5.098 2.929 3.66 0 6.627-3.63 6.627-8.107z" fill="#6c5475"/></g><g><path d="m303.107 166.89c0 1.013-.821 1.834-1.834 1.834s-1.834-.821-1.834-1.834.821-1.834 1.834-1.834 1.834.821 1.834 1.834z" fill="#a98bbc"/></g><g><path d="m321.85 155.431c-.872-3.767-3.858-12.447-13.026-13.806-9.257-1.372-28.146 3.995-35.779 6.345-2.034.626-3.553 2.326-3.952 4.416l-1.149 6.024c-.098.511.399.934.888.755 5.763-2.103 32.32-11.511 40.784-9.494 6.454 1.539 9.931 4.44 11.5 6.148.297.325.833.041.734-.388z" fill="#6c5475"/></g><g><path d="m193.315 173.106c4.836-5.455 9.503-8.605 13.828-10.21-.849 2.048-1.325 4.422-1.299 6.949.044 4.289 1.521 8.095 3.798 10.592-3.602-.809-6.418-1.982-8.154-2.882-3.515-1.823-6.167-2.547-7.742-2.835-.656-.12-.91-1.074-.431-1.614z" fill="#ffdd40"/></g><path d="m232.382 178.708c.936-2.011 1.475-4.398 1.449-6.963-.003-.286-.02-.567-.038-.847-1.26-.962-2.457-1.932-3.41-2.823-1.234-1.154-2.976-2.524-5.132-3.712.498 1.602.786 3.355.805 5.2.049 4.883-1.772 9.191-4.553 11.68 3.402-.294 7.063-1.068 10.879-2.535z" fill="#ffdd40"/><g><path d="m233.343 170.556c2.571 1.994 5.529 3.995 7.402 5.225.505.332.309 1.234-.269 1.242l-.262.003c-2.461.033-4.905.518-7.234 1.454-.393.158-.783.303-1.174.446 1.064-1.822 1.693-4.136 1.668-6.652-.007-.586-.057-1.158-.131-1.718z" fill="#ffb332"/></g><g><path d="m226.052 164.822c.606 1.577.954 3.323.972 5.164.047 4.765-2.108 8.955-5.353 11.241-4.708.425-8.927-.061-12.389-.874-2.561-2.334-4.225-5.965-4.266-10.068-.026-2.688.648-5.193 1.822-7.278 7.863-3.038 14.614-.942 19.214 1.815z" fill="#876d93"/></g><g><path d="m215.171 166.895c0-2.012.602-3.849 1.595-5.266 3.623.383 6.775 1.689 9.286 3.194.607 1.577.954 3.323.972 5.164.007.71-.041 1.406-.128 2.086-1.216 1.789-3.048 2.929-5.098 2.929-3.66 0-6.627-3.63-6.627-8.107z" fill="#6c5475"/></g><g><path d="m208.893 166.89c0 1.013.821 1.834 1.834 1.834s1.834-.821 1.834-1.834-.821-1.834-1.834-1.834-1.834.821-1.834 1.834z" fill="#a98bbc"/></g><g><path d="m190.15 155.431c.872-3.767 3.858-12.447 13.027-13.806 9.257-1.372 28.146 3.995 35.779 6.345 2.033.626 3.553 2.326 3.952 4.416l1.149 6.024c.097.511-.399.934-.888.755-5.763-2.103-32.32-11.511-40.784-9.494-6.454 1.539-9.931 4.44-11.5 6.148-.298.325-.834.041-.735-.388z" fill="#6c5475"/></g><path d="m237.749 237.457 7.316-2.885c.823-.324 1.732-.362 2.578-.106l8.431 2.543 8.431-2.543c.847-.255 1.756-.218 2.579.106l7.316 2.885c2.021.797 3.014 3.081 2.217 5.103-.795 2.015-3.075 3.016-5.103 2.217l-6.045-2.384-8.223 2.479c-.796.249-1.627.231-2.346-.001l-8.221-2.479-6.045 2.384c-2.018.794-4.303-.19-5.103-2.217-.796-2.02.197-4.305 2.218-5.102z" fill="#2ab663"/><path d="m253.313 251.345h5.049c2.173 0 3.934 1.761 3.934 3.934s-1.761 3.934-3.934 3.934h-5.049c-2.173 0-3.934-1.761-3.934-3.934s1.761-3.934 3.934-3.934z" fill="#2ab663"/><path d="m238.354 204.907 6.412-1.35c1.845-.386 3.559.376 4.377 1.942 1.374 2.13 3.889 3.37 6.759 3.37 2.868 0 5.382-1.239 6.725-3.316.849-1.619 2.566-2.381 4.409-1.996l6.411 1.35c2.206.465 3.623 2.638 3.159 4.843-.463 2.204-2.635 3.622-4.843 3.159l-3.574-.753c-.046-.01-.092-.014-.138-.014-.174 0-.344.068-.471.193-6.331 6.254-17.027 6.253-23.357.001-.16-.159-.39-.226-.61-.18l-3.574.753c-2.207.461-4.379-.955-4.843-3.159-.465-2.205.952-4.378 3.158-4.843z" fill="#2ab663"/><path d="m301.436 94.418c3.397 1.646 7.49.404 9.406-2.848 28.278-47.974 57.142-54.291 72.929-53.323 2.445.15 3.22-3.192.969-4.158-37.531-16.103-73.835 31.343-86.179 49.787-2.445 3.653-1.08 8.625 2.875 10.542z" fill="#70f2a4"/><path d="m210.564 94.418c-3.397 1.646-7.489.404-9.406-2.848-28.278-47.974-57.142-54.291-72.929-53.323-2.445.15-3.22-3.192-.969-4.158 37.531-16.103 73.835 31.343 86.179 49.787 2.444 3.653 1.08 8.625-2.875 10.542z" fill="#70f2a4"/><path d="m43.725 389.404c36.55 11.239 52.034-20.691 55.045-27.994-11.528-17.102-24.071-29.984-31.741-37.139-3.672-3.425-9.592-2.357-11.877 2.114-11.035 21.592-15.084 40.693-14.577 57.406 1.025 1.887 2.077 3.757 3.15 5.613z" fill="#bec8f7"/><path d="m120.5 406.358c-5.208-17.587-13.708-33.285-22.72-46.404 0 0-14.657 42.747-57.206 23.837 17.142 31.553 41.021 58.91 69.697 80.163.504-21.489 4.906-44.93 10.229-57.596z" fill="#a8b7ef"/><path d="m468.275 389.404c-36.55 11.239-52.034-20.691-55.045-27.994 11.528-17.102 24.071-29.984 31.741-37.139 3.672-3.425 9.592-2.357 11.877 2.114 11.035 21.592 15.084 40.693 14.577 57.406-1.025 1.887-2.077 3.757-3.15 5.613z" fill="#d3dcfb"/><path d="m391.5 406.358c5.208-17.587 13.708-33.285 22.72-46.404 0 0 14.657 42.747 57.206 23.837-17.143 31.553-41.021 58.91-69.697 80.163-.504-21.489-4.906-44.93-10.229-57.596z" fill="#bec8f7"/><path d="m422.725 87.497c-5.641 6.571-7.946 17.6 1.134 36.096 21.333 43.456-6.333 49.843 20.167 86.649 24.93 34.626-30.042 81.193 51.003 110.763 3.909-17.376 5.973-35.451 5.973-54.007 0-70.906-30.133-134.763-78.277-179.501z" fill="#fb7ac0"/><path d="m89.275 87.497c5.641 6.571 7.946 17.6-1.134 36.096-21.333 43.456 6.333 49.843-20.167 86.649-24.93 34.626 30.042 81.193-51.003 110.763-3.909-17.376-5.974-35.451-5.974-54.007.001-70.906 30.134-134.763 78.278-179.501z" fill="#fb7ac0"/><g fill="#38c674"><circle cx="243.009" cy="90.471" r="7.089"/><ellipse cx="267.931" cy="104.338" rx="9.195" ry="9.195" transform="matrix(.952 -.306 .306 .952 -19.079 87.056)"/><ellipse cx="237.812" cy="107.929" rx="12.786" ry="12.786" transform="matrix(.832 -.555 .555 .832 -19.903 150.194)"/><circle cx="234.552" cy="127.408" r="9.527"/></g><ellipse cx="238.579" cy="339.282" fill="#2ab663" rx="11.892" ry="11.892" transform="matrix(.925 -.38 .38 .925 -111.012 116.082)"/><circle cx="250.471" cy="384.538" fill="#2ab663" r="11.892"/><ellipse cx="201.766" cy="388.542" fill="#2ab663" rx="23.394" ry="23.394" transform="matrix(.88 -.476 .476 .88 -160.534 142.752)"/><circle cx="223.299" cy="359.954" fill="#2ab663" r="15.279"/><path d="m380.246 382.501c-3.983-5.547-11.06-7.891-17.606-5.942-46.759 13.919-78.506 42.567-99.744 71.771-3.413 4.694-10.378 4.694-13.792 0-16.756-23.04-40.06-45.728-72.108-61.116-1.617 2.196-12.963 18.278-17.439 42.686-3.11 16.956-3.098 40.298 9.184 66.087 27.107 10.34 56.518 16.013 87.259 16.013 55.482 0 106.648-18.452 147.719-49.54 1.154-39.387-14.066-66.857-23.473-79.959z" fill="#deeeff"/><path d="m178.372 387.877c-8.963-4.396-18.615-8.223-29.013-11.318-6.545-1.949-13.622.395-17.605 5.942-9.407 13.102-24.627 40.573-23.473 79.959 18.863 14.278 39.861 25.881 62.423 34.265-29.576-59.879 7.668-108.847 7.668-108.848z" fill="#d3dcfb"/></g></svg>