<svg id="Layer_1" enable-background="new 0 0 512 512" height="512" viewBox="0 0 512 512" width="512" xmlns="http://www.w3.org/2000/svg"><g><path d="m40.189 383.06 52.994 66.993c20.955 18.651 45.128 33.76 71.589 44.384l182.441.006c26.468-10.625 50.646-25.735 71.605-44.39l52.994-66.992c18.618-34.546 29.191-74.068 29.191-116.063 0-135.311-109.691-245.002-245.002-245.002s-245.002 109.691-245.002 245.002c-.001 41.995 10.572 81.517 29.19 116.062z" fill="#e80054"/><path d="m56.565 379.451c2.048 3.618 6.973 13.781 3.85 23.168-.818 2.456-2.128 4.655-3.905 6.598-5.963-8.346-11.427-17.074-16.322-26.157l2.599-16.892c4.167 4.998 9.149 9.285 14.727 12.693-.314.199-.625.397-.949.59z" fill="#d3dcfb"/><path d="m54.497 378.918c.545-.307 1.074-.619 1.594-.935 8.274 5.381 17.97 8.76 28.403 9.45l-7.246 47.095c-7.809-8.328-15.021-17.217-21.616-26.572 10.264-11.656-1.135-29.038-1.135-29.038z" fill="#bec8f7"/><path d="m72.633 315.098c3.074 7.192 16.987 44.568-16.067 64.354.202.356.437.793.684 1.27-16.942-10.477-28.235-29.215-28.235-50.598 0-17.118 7.244-32.536 18.822-43.384 6.132 11.104 14.882 20.596 25.561 27.822-.257.177-.503.359-.765.536z" fill="#876d93"/><path d="m54.507 378.913c37.511-21.132 16.237-64.364 16.237-64.364.459-.298.899-.601 1.342-.903 5.044 3.555 10.529 6.606 16.401 9.055 12.817 5.347 20.381 13.134 21.036 13.643.016.332-2.031 9.376 4.32 17.943 4.491 6.059 11.393 9.534 18.934 9.534 1.467 0 2.91.183 4.307.514-10.762 15.264-28.517 25.245-48.613 25.245-12.631 0-24.334-3.951-33.964-10.667z" fill="#6c5475"/><path d="m95.398 265.368c1.843 14.514-.662 34.816-22.765 49.729.125.292.269.639.425 1.026-12.739-8.491-23.043-20.247-29.433-34.398l-1.079-2.391c-7.704-17.061 4.182-36.525 22.879-37.465l22.41-1.127c2.4 4.858 6.198 13.885 7.563 24.626z" fill="#d3dcfb"/><path d="m113.043 342.122c-6.846-7.773-15.407-13.981-25.133-18.038-6.107-2.547-11.866-5.749-17.165-9.537 36.84-23.887 21.085-62.53 15.447-73.722l57.194-2.875c-.521.787-.942 1.659-1.23 2.608l-28.084 92.402c-.921 3.032-1.25 6.128-1.029 9.162z" fill="#bec8f7"/><path d="m74.662 431.75 7.643-49.674c.882-5.732 6.293-9.7 12.025-8.818s9.7 6.293 8.818 12.025l-9.965 64.77c-6.488-5.775-12.679-11.876-18.521-18.303z" fill="#ffdd40"/><path d="m455.435 379.451c-2.048 3.618-6.973 13.781-3.85 23.168.818 2.456 2.128 4.655 3.905 6.598 5.963-8.346 11.427-17.074 16.322-26.157l-2.599-16.892c-4.167 4.998-9.149 9.285-14.727 12.693.314.199.625.397.949.59z" fill="#d3dcfb"/><path d="m457.503 378.918c-.545-.307-1.074-.619-1.594-.935-8.274 5.381-17.97 8.76-28.403 9.45l7.246 47.095c7.809-8.328 15.021-17.217 21.616-26.572-10.264-11.656 1.135-29.038 1.135-29.038z" fill="#bec8f7"/><path d="m349.951 440.334-10.215-17.646-19.755 41.062c-5.892 12.241-18.476 20.151-32.059 20.151h-36.079c.562.697 1.189 1.386 1.919 2.058-7.129 7.383-8.558 16.945-1.847 25.992 1.36.022 2.719.049 4.085.049 32.24 0 63.019-6.239 91.213-17.557l6.186-34.433c1.214-6.76-.007-13.731-3.448-19.676z" fill="#6c5475"/><path d="m256 485.901c-.837-.669-1.557-1.336-2.184-2h-29.738c-13.584 0-26.167-7.91-32.057-20.151l-19.782-41.115-10.42 18.243c-3.406 5.964-4.588 12.942-3.334 19.696l6.286 33.863c27.564 11.067 57.604 17.263 89.061 17.537-11.831-14.493 2.168-26.073 2.168-26.073z" fill="#543e5b"/><path d="m439.367 315.098c-3.074 7.192-16.987 44.568 16.067 64.354-.202.356-.437.793-.684 1.27 16.942-10.477 28.235-29.215 28.235-50.598 0-17.118-7.244-32.536-18.822-43.384-6.132 11.104-14.882 20.596-25.561 27.822.257.177.503.359.765.536z" fill="#876d93"/><path d="m457.493 378.913c-37.512-21.132-16.237-64.364-16.237-64.364-.459-.298-.899-.601-1.342-.903-5.044 3.555-10.529 6.606-16.401 9.055-12.817 5.347-20.38 13.134-21.036 13.643-.016.332 2.03 9.376-4.32 17.943-4.491 6.059-11.392 9.534-18.934 9.534-1.467 0-2.909.183-4.307.514 10.762 15.264 28.517 25.245 48.613 25.245 12.631 0 24.334-3.951 33.964-10.667z" fill="#6c5475"/><path d="m416.603 265.368c-1.843 14.514.662 34.816 22.765 49.729-.125.292-.269.639-.426 1.026 12.739-8.491 23.043-20.247 29.433-34.398l1.079-2.391c7.704-17.061-4.182-36.525-22.879-37.465l-22.41-1.127c-2.4 4.858-6.198 13.885-7.562 24.626z" fill="#d3dcfb"/><path d="m398.957 342.122c6.846-7.773 15.407-13.981 25.133-18.038 6.107-2.547 11.866-5.749 17.165-9.537-36.84-23.887-21.085-62.53-15.447-73.722l-57.194-2.875c.521.787.942 1.659 1.23 2.608l28.084 92.402c.921 3.032 1.251 6.128 1.029 9.162z" fill="#bec8f7"/><path d="m305.949 195.097h-60.803l2.725 19.776c.047.44 1.151 10.026 8.374 12.776-2.665 5.121-9.196 20.566.801 33.607.194 1.983.719 11.447-6.244 16.272-1.126.173-4.726.795-9.222 2.193 4.568.879 9.375 1.382 14.42 1.382 33.804 0 57.139-22.189 66.796-33.437 3.488-4.062 8.587-6.377 13.941-6.377h5.777v-9.629c-.001-20.109-16.455-36.563-36.565-36.563z" fill="#bec8f7"/><path d="m244.928 280.286c3.801-.983 6.43-1.322 6.43-1.322 8.995-5.918 7.129-18.297 7.129-18.297-12.042-15.215 0-33.951 0-33.951-8-1.417-9.125-12-9.125-12l-2.703-19.619h-40.608c-20.111 0-36.565 16.454-36.565 36.565v9.629h5.777c5.354 0 10.454 2.314 13.941 6.377 8.563 9.973 27.888 28.537 55.724 32.618z" fill="#a8b7ef"/><path d="m175.516 146.071-4.297-89.285c-13.839 6.168-23.553 20.063-23.553 36.125v19.609c0 17.964 12.15 33.219 28.635 37.98-.438-1.42-.711-2.904-.785-4.429z" fill="#d3dcfb"/><path d="m340.78 56.786-4.297 89.286c-.073 1.524-.346 3.008-.785 4.429 16.485-4.761 28.635-20.016 28.635-37.98v-19.61c0-16.062-9.714-29.957-23.553-36.125z" fill="#d3dcfb"/><path d="m301.648 173.145c-5.049 2.447-8.794 6.954-10.276 12.365l-9.165 33.453c-1.009 3.682-4.378 6.253-8.195 6.253h-21.477c1.012 1.005 2.226 1.868 3.712 2.434-1.792 3.444-5.325 11.558-4.412 20.468h34.385c7.557 0 14.18-5.053 16.177-12.341l19.297-72.351z" fill="#543e5b"/><path d="m258.487 226.715c-1.41-.249-2.603-.788-3.618-1.499h-16.881c-3.816 0-7.186-2.571-8.195-6.253l-9.165-33.453c-1.482-5.411-5.227-9.918-10.276-12.365l-20.043-9.718 19.297 72.35c1.997 7.288 8.62 12.341 16.177 12.341h27.529c-1.271-11.354 5.175-21.403 5.175-21.403z" fill="#45304c"/><path d="m269.5 225.048h-17.128c1.043 1.077 2.307 2.004 3.873 2.601-2.625 5.044-8.989 20.104.374 33.017h12.881c6.6 0 12-5.4 12-12v-11.618c0-6.6-5.4-12-12-12z" fill="#f0f8ff"/><path d="m230.5 237.048v11.618c0 6.6 5.4 12 12 12h15.987c-12.042-15.215 0-33.951 0-33.951-1.521-.269-2.791-.871-3.855-1.667h-12.132c-6.6 0-12 5.4-12 12z" fill="#d3dcfb"/><path d="m338.799 27.544c-12.927-8.826-44.82-27.544-82.799-27.544-.766 0-1.525.02-2.287.035-5.661 5.329-26.701 28.053-14.648 61.598-5.693 1.829-8.647 6.551-6.706 13.38l-2.493 28.34c-1.628 3.573-2.533 10.784 4.678 14.811l13.327 96.71c.042.4.974 8.327 6.551 11.842h19.588c4.504 0 8.452-3.012 9.642-7.356l9.165-33.453c1.368-4.994 4.825-9.153 9.484-11.412l27.08-13.13c5.911-2.866 9.785-8.731 10.101-15.293l5.143-106.859c.224-4.64-1.989-9.05-5.826-11.669z" fill="#876d93"/><path d="m256 0c-38.048 0-69.989 18.787-82.87 27.592-3.809 2.604-5.978 7.011-5.756 11.62l5.143 106.859c.316 6.561 4.19 12.427 10.101 15.293l27.08 13.13c4.659 2.259 8.116 6.419 9.484 11.412l9.165 33.453c1.19 4.344 5.138 7.356 9.642 7.356h20.498c-8-1.417-9.125-12-9.125-12l-13.438-97.521c-9-4.438-4.588-13.445-4.588-13.445l2.541-28.886c-3.234-10.768 7.18-12.179 7.18-12.179-14.969-38.697 14.943-62.684 14.943-62.684z" fill="#6c5475"/><path d="m238.935 61.24c.046.132.083.26.13.393-5.693 1.829-8.647 6.551-6.706 13.38l-2.493 28.34c-1.6 3.511-2.483 10.527 4.328 14.591 11.615-4.8 19.811-16.246 19.811-29.573 0-11.43-6.029-21.473-15.07-27.131z" fill="#6c5475"/><path d="m222.017 120.357c4.973 0 9.684-1.141 13.887-3.175-8.97-4.441-4.566-13.433-4.566-13.433l2.541-28.886c-3.234-10.768 7.18-12.179 7.18-12.179-5.324-3.957-11.914-6.303-19.042-6.303-17.638 0-31.987 14.35-31.987 31.988-.001 17.639 14.349 31.988 31.987 31.988z" fill="#543e5b"/><path d="m352.095 123.054h-9.303c-3.375 0-6.136-2.761-6.136-6.136v-59.389c0-3.375 2.761-6.136 6.136-6.136h9.303c8.475 0 15.41 6.934 15.41 15.41v40.841c0 8.476-6.935 15.41-15.41 15.41z" fill="#a98bbc"/><path d="m351.573 62.684h-34.173c-1.505 1.756-4.049 5.361-3.755 9.437.179 2.485 1.355 4.702 3.502 6.612-1.567 1.659-3.885 4.761-3.925 8.625-.031 3.011 1.302 5.851 3.967 8.457-1.51 1.51-3.699 4.298-3.793 7.844-.075 2.858 1.207 5.577 3.801 8.104h34.376c13.496 0 24.539-11.043 24.539-24.539 0-13.497-11.042-24.54-24.539-24.54z" fill="#deeeff"/><path d="m319.509 62.684h-24.692c-13.58 0-24.578 11.03-24.539 24.611.039 13.525 11.014 24.468 24.539 24.468h24.692c-10.287-8.406 0-15.942 0-15.942-10.673-8.781 0-17.194 0-17.194-9.773-6.806 0-15.943 0-15.943z" fill="#bec8f7"/><path d="m341.286 78.626h-24.249c.039.035.072.072.111.106-1.567 1.659-3.885 4.761-3.925 8.625-.031 3.011 1.302 5.851 3.967 8.457-.002.002-.004.004-.005.006h24.102c-4.66 0-8.597-3.937-8.597-8.597-.001-4.66 3.935-8.597 8.596-8.597z" fill="#73c3f9"/><path d="m287.44 87.223c0 4.748 3.849 8.597 8.597 8.597h23.472c-10.673-8.781 0-17.194 0-17.194h-23.472c-4.748 0-8.597 3.849-8.597 8.597z" fill="#49b1f7"/><path d="m360.17 87.223c0-4.66-3.937-8.597-8.597-8.597h-12.413c-4.66 0-8.597 3.937-8.597 8.597s3.937 8.597 8.597 8.597h12.413c4.66 0 8.597-3.936 8.597-8.597z" fill="#ff7186"/><path d="m222.017 70.382c-9.918 0-17.987 8.069-17.987 17.988 0 9.918 8.069 17.987 17.987 17.987 9.919 0 17.988-8.069 17.988-17.987 0-9.919-8.069-17.988-17.988-17.988z" fill="#ff7186"/><path d="m393.641 335.869-26.104-85.891c-1.929-6.348-7.783-10.688-14.418-10.688h-16.381c-5.354 0-10.453 2.314-13.941 6.377-9.657 11.248-32.991 33.437-66.796 33.437-3.387 0-6.664-.232-9.838-.644-9.887 2.363-30.967 9.662-30.967 28.921l.001 23.958c-.015.516-.173 12.287 13.803 18.405-8.283 18.845-4.155 39.406 16.399 51.501-3.177 6.834-16.01 38.841 8.438 64.583-3.157 3.106-4.898 6.579-4.972 10.072h39.058c9.827 0 18.786-5.631 23.047-14.487l43.584-90.586c4.561-9.479 14.15-15.507 24.67-15.507 10.115.001 17.359-9.771 14.417-19.451z" fill="#876d93"/><path d="m256 465.901c-28.54-28.54-8.638-65.259-8.638-65.259-33.667-18.739-16.333-51.688-16.333-51.688-14.667-5.593-14.333-17.573-14.333-17.573s0 0 0-24 34.662-28.418 34.662-28.418c.007-.004.013-.009.02-.014-31.307-1.893-52.964-22.556-62.174-33.283-3.488-4.062-8.587-6.377-13.941-6.377h-16.381c-6.635 0-12.489 4.339-14.418 10.688l-26.104 85.891c-2.942 9.68 4.301 19.452 14.418 19.452 10.52 0 20.109 6.028 24.67 15.507l43.584 90.586c4.261 8.855 13.219 14.487 23.047 14.487h26.285c.188-5.769 5.636-9.999 5.636-9.999z" fill="#6c5475"/><path d="m335.471 369.9c-6.16-12.804-19.112-20.945-33.32-20.945h-74.805c.531.271 1.076.537 1.654.79-8.283 18.845-4.155 39.406 16.399 51.501-3.177 6.834-16.01 38.841 8.438 64.583-3.157 3.106-4.898 6.579-4.972 10.072h39.058c9.827 0 18.786-5.631 23.047-14.487l34.266-71.22z" fill="#6c5475"/><path d="m209.85 348.955c-14.208 0-27.16 8.141-33.32 20.944l-9.764 20.294 34.266 71.22c4.261 8.855 13.219 14.487 23.047 14.487h26.285c.188-5.77 5.636-9.999 5.636-9.999-28.54-28.54-8.638-65.259-8.638-65.259-33.667-18.739-16.333-51.688-16.333-51.688h-21.179z" fill="#543e5b"/><path d="m317.864 416.947c-4.796-9.967-14.878-16.305-25.938-16.305h-47.507c.326.201.644.407.979.604-3.177 6.834-16.01 38.841 8.438 64.583-3.157 3.106-4.898 6.579-4.972 10.072h39.058c9.827 0 18.786-5.631 23.047-14.487l14.145-29.4z" fill="#543e5b"/><path d="m220.074 400.642c-11.061 0-21.143 6.337-25.938 16.304l-7.249 15.067 14.145 29.4c4.261 8.855 13.219 14.487 23.047 14.487h26.285c.188-5.77 5.636-9.999 5.636-9.999-28.54-28.54-8.638-65.259-8.638-65.259z" fill="#45304c"/><path d="m403.209 332.961-28.084-92.402c-1.605-5.284-7.193-8.266-12.476-6.66-5.284 1.606-8.266 7.192-6.659 12.477l28.082 92.401c.646 2.126-.21 3.728-.778 4.494-.567.767-1.85 2.051-4.071 2.051-14.272 0-27.493 8.31-33.683 21.171l-43.582 90.585c-2.58 5.36-8.089 8.824-14.036 8.824h-34.154c-6.186 6.138-6.866 13.692-.062 20h34.217c13.583 0 26.167-7.91 32.059-20.151l43.582-90.586c2.878-5.979 9.024-9.843 15.66-9.843 8.021 0 15.361-3.696 20.139-10.141 4.776-6.445 6.178-14.543 3.846-22.22z" fill="#a98bbc"/><path d="m256 465.901h-31.922c-5.947 0-11.456-3.463-14.034-8.823l-43.585-90.586c-6.188-12.861-19.409-21.171-33.682-21.171-2.221 0-3.504-1.284-4.071-2.051-.568-.766-1.425-2.368-.779-4.493l28.083-92.402c1.606-5.284-1.375-10.87-6.659-12.477-5.287-1.606-10.871 1.377-12.476 6.66l-28.084 92.403c-2.332 7.676-.93 15.774 3.848 22.219 4.777 6.444 12.117 10.141 20.139 10.141 6.636 0 12.782 3.863 15.659 9.843l43.585 90.586c5.89 12.241 18.473 20.151 32.057 20.151h31.921c-12.696-10.147 0-20 0-20z" fill="#876d93"/><ellipse cx="325.529" cy="314.548" fill="#ff7186" rx="11.833" ry="11.833" transform="matrix(.23 -.973 .973 .23 -55.396 559.101)"/><ellipse cx="285.862" cy="314.548" fill="#73c3f9" rx="11.833" ry="11.833" transform="matrix(.924 -.383 .383 .924 -98.613 133.339)"/><path d="m437.338 431.75-7.643-49.674c-.882-5.732-6.293-9.7-12.025-8.818s-9.7 6.293-8.818 12.025l9.966 64.77c6.487-5.775 12.678-11.876 18.52-18.303z" fill="#ffdd40"/><g fill="#ff4155"><path d="m11.122 259.516c22.079-45.661 78.514-51.997 109.316-51.837 12.638.065 23.842-8.118 27.739-20.14 3.491-10.767.39-22.543-7.858-30.293-13.279-12.477-23.843-26.121-21.084-61.425.911-11.655-4.292-19.229-11.134-24.146-57.14 43.333-94.678 111.155-96.979 187.841z"/><path d="m500.878 259.516c-2.301-76.686-39.839-144.507-96.978-187.841-6.842 4.916-12.045 12.49-11.134 24.146 2.758 35.304-7.805 48.948-21.084 61.425-8.249 7.75-11.349 19.526-7.859 30.293 3.897 12.022 15.102 20.206 27.739 20.14 30.802-.161 87.237 6.176 109.316 51.837z"/></g></g></svg>