<svg id="Layer_1" enable-background="new 0 0 512 512" height="512" viewBox="0 0 512 512" width="512" xmlns="http://www.w3.org/2000/svg"><g><path d="m44.109 390.051c26.591 45.69 67.527 82.001 116.648 102.746l38.621 12.614h.001c18.176 4.301 37.13 6.589 56.621 6.589s38.445-2.288 56.622-6.589l38.621-12.614c49.122-20.745 90.058-57.057 116.649-102.747l19.984-43.753c8.504-24.872 13.126-51.545 13.126-79.299 0-135.311-109.691-245.002-245.002-245.002s-245.002 109.691-245.002 245.002c0 27.754 4.622 54.427 13.127 79.3z" fill="#49b1f7"/><path d="m92.941 290.688c-.505 1.739-.791 3.57-.791 5.466v24.847c0 4.48 1.529 8.609 4.068 11.932-19.43 10.485-38.159 30.526-52.109 57.118-8.024-13.788-14.744-28.427-19.985-43.753 19.455-27.203 43.549-46.488 68.817-55.61z" fill="#deeeff"/><path d="m41.752 325.082c15.614-16.123 33.101-27.864 51.19-34.395-.505 1.739-.791 3.57-.791 5.466v24.847c0 4.48 1.529 8.609 4.068 11.932-9.81 5.293-19.439 13.03-28.366 22.809 0 0 0-.005.001-.008 3.459-31.616-26.044-30.652-26.102-30.651z" fill="#d3dcfb"/><path d="m203.343 441.531c3.487 13.543 12.058 25.039 23.559 32.34-10.42 7.136-19.831 17.96-27.524 31.54-13.327-3.153-26.238-7.384-38.624-12.615 11.05-21.8 25.659-39.373 42.589-51.265z" fill="#deeeff"/><path d="m204.717 496.845c-2.653-28.352-30.663-25.449-31.026-25.41 8.687-12.087 18.677-22.196 29.652-29.905 3.487 13.543 12.058 25.039 23.559 32.34-8.121 5.563-15.625 13.374-22.185 22.975z" fill="#d3dcfb"/><path d="m419.059 290.688c.505 1.739.791 3.57.791 5.466v24.847c0 4.48-1.529 8.609-4.068 11.932 19.43 10.485 38.159 30.526 52.109 57.118 8.024-13.788 14.744-28.427 19.984-43.753-19.454-27.203-43.548-46.488-68.816-55.61z" fill="#deeeff"/><path d="m470.248 325.082c-15.614-16.123-33.101-27.864-51.19-34.395.505 1.739.791 3.57.791 5.466v24.847c0 4.48-1.529 8.609-4.068 11.932 9.81 5.293 19.439 13.03 28.366 22.809l-.001-.008c-3.459-31.616 26.044-30.652 26.102-30.651z" fill="#d3dcfb"/><path d="m402.107 276.412h-6.041v64.332h6.041c10.859 0 19.743-8.884 19.743-19.743v-24.847c0-10.858-8.884-19.742-19.743-19.742z" fill="#6c5475"/><path d="m109.893 276.412h6.041v64.332h-6.041c-10.859 0-19.743-8.884-19.743-19.743v-24.847c0-10.858 8.884-19.742 19.743-19.742z" fill="#543e5b"/><path d="m288.783 430.646c-10.416-4.2-21.418-6.429-32.783-6.429-11.364 0-22.367 2.229-32.783 6.429z" fill="#bec8f7"/><path d="m308.657 441.531c-3.487 13.543-12.058 25.039-23.559 32.34 10.42 7.136 19.831 17.96 27.524 31.54 13.327-3.153 26.238-7.384 38.624-12.615-11.05-21.8-25.659-39.373-42.589-51.265z" fill="#deeeff"/><path d="m307.283 496.845c2.653-28.352 30.663-25.449 31.026-25.41-8.686-12.087-18.677-22.196-29.652-29.905-3.487 13.543-12.058 25.039-23.559 32.34 8.121 5.563 15.625 13.374 22.185 22.975z" fill="#d3dcfb"/><path d="m129.169 313.249c5.587 0 10.711-2.038 14.695-5.395v-55.323h-7.698c-11.931 0-21.693 9.762-21.693 21.693v33.63c3.985 3.357 9.109 5.395 14.696 5.395z" fill="#bec8f7"/><path d="m129.169 312.121c-5.842 0-11.093-2.601-14.695-6.687v40.155c0 11.932 9.762 21.693 21.693 21.693h7.698v-61.849c-3.603 4.087-8.854 6.688-14.696 6.688z" fill="#a8b7ef"/><path d="m382.831 314.186c5.463 0 10.527-1.745 14.695-4.688v-35.273c0-11.931-9.762-21.693-21.693-21.693h-7.698v56.966c4.169 2.943 9.233 4.688 14.696 4.688z" fill="#d3dcfb"/><path d="m382.831 312.121c-5.842 0-11.094-2.601-14.695-6.687v61.849h7.698c11.931 0 21.693-9.762 21.693-21.693v-40.155c-3.602 4.085-8.854 6.686-14.696 6.686z" fill="#bec8f7"/><path d="m251.366 430.646c.754.768 1.569 1.519 2.456 2.249-4.774 5.668-22.349 29.703.035 53.369.712.025 1.424.052 2.143.052 31.379 0 56.994-24.668 58.517-55.669h-63.151z" fill="#543e5b"/><path d="m256 486.315c-26.548-26.547 0-53.618 0-53.618-.902-.676-1.721-1.361-2.476-2.051h-56.041c1.523 31.001 27.138 55.669 58.517 55.669z" fill="#45304c"/><path d="m254.794 394.114-.203 1.339c-1.903 1.953-10.203 11.12-9.549 21.854.351 5.767 3.229 10.936 8.55 15.391h60.15c21.221 0 38.583-17.362 38.583-38.583h-97.531z" fill="#6c5475"/><path d="m256 396.165.311-2.051h-96.635c0 21.221 17.362 38.583 38.583 38.583h57.741c-21.362-16.017 0-36.532 0-36.532z" fill="#543e5b"/><path d="m265.411 254 1.2 2.24-3.194 16.685c-1.865.532-6.16 1.948-10.496 4.729-7.635 4.9-11.671 11.686-11.671 19.624v81.739c-.003.13-.11 11.843 10.591 17.148h107.749c6.769 0 12.308-5.539 12.308-12.308v-129.857z" fill="#deeeff"/><path d="m140.103 383.858c0 6.769 5.539 12.308 12.308 12.308h103.589c-13.529-3.883-13.25-17.117-13.25-17.117s0-63.667 0-81.77 21.963-23.145 21.963-23.145l3.471-18.134-1.072-2h-127.01v129.858z" fill="#d3dcfb"/><path d="m242.411 223.649h-90c-6.769 0-12.308 5.539-12.308 12.308v20.043h102.308z" fill="#bec8f7"/><path d="m359.59 223.649h-86.913v32.351h99.221v-20.044c0-6.768-5.539-12.307-12.308-12.307z" fill="#d3dcfb"/><path d="m302.161 228.687c-.015-6.036-5.03-10.872-11.066-10.872h-36.595v8.816c0 .711.128 16.887 11.033 23.677-1.158 2.361-3.062 7.392-1.402 12.445 1.255 3.825 4.265 6.822 8.938 8.934 17.042-6.789 29.092-23.425 29.092-42.888 0-.036 0-.074 0-.112z" fill="#bec8f7"/><path d="m220.905 217.815c-6.036 0-11.051 4.835-11.066 10.872v.113c0 25.494 20.667 46.161 46.161 46.161 6.769 0 13.191-1.469 18.982-4.086-16.713-6.507-7.427-21.145-7.427-21.145-11.557-5.903-11.555-23.098-11.555-23.098v-8.816h-35.095z" fill="#a8b7ef"/><path d="m251.822 189.93c.762.936 1.645 1.843 2.678 2.712v33.99c0 .711.128 16.887 11.033 23.677-.043.087-.088.185-.133.279 11.117-3.909 19.146-14.529 19.146-26.939v-33.719z" fill="#6c5475"/><path d="m227.454 223.649c0 15.701 12.846 28.546 28.546 28.546 4.108 0 8.016-.886 11.555-2.466-11.557-5.902-11.555-23.097-11.555-23.097v-34.702c-.835-.661-1.563-1.329-2.196-2h-26.35z" fill="#543e5b"/><path d="m254.5 69.877c-1.367 1.991-2.752 5.753-.551 9.047-.53.53-1.201 1.257-1.897 2.139h67.022c-14.951-18.351-37.7-30.129-63.074-30.129-.502 0-1.001.013-1.5.022z" fill="#6c5475"/><path d="m256 79.063c-3.841-3.84 0-8.695 0-8.695v-19.434c-25.374 0-48.123 11.778-63.075 30.129h61.081c1.11-1.265 1.994-2 1.994-2z" fill="#543e5b"/><path d="m148.872 103.33h-6.04c-10.859 0-19.743 8.884-19.743 19.743v24.847c0 10.859 8.884 19.743 19.743 19.743h6.04z" fill="#a8b7ef"/><path d="m369.169 103.33h-6.041v64.332h6.041c10.858 0 19.743-8.884 19.743-19.743v-24.847c0-10.857-8.884-19.742-19.743-19.742z" fill="#bec8f7"/><path d="m344.119 79.063h-90.306c-2.036 2.07-5.856 6.717-5.691 12.318.112 3.831 2.046 7.332 5.753 10.423-5.158 6.635-27.463 38.817.031 67.629-1.868 2.072-5.461 6.814-5.263 12.466.128 3.685 1.847 7.049 5.075 10.031h90.401c13.211 0 24.02-10.809 24.02-24.02v-64.827c0-13.211-10.809-24.02-24.02-24.02z" fill="#deeeff"/><path d="m256 79.063h-88.119c-13.211 0-24.02 10.809-24.02 24.02v64.827c0 13.211 10.809 24.02 24.02 24.02h88.119c-13.196-10.452 0-22.5 0-22.5-31.782-31.782 0-67.867 0-67.867-14.362-10.569 0-22.5 0-22.5z" fill="#bec8f7"/><path d="m344.119 101.562h-90.512c.093.08.173.162.268.241-5.158 6.635-27.461 38.815.029 67.626h90.215c.781 0 1.521-.739 1.521-1.521v-64.826c0-.78-.74-1.52-1.521-1.52z" fill="#6c5475"/><path d="m167.881 101.562c-.781 0-1.521.739-1.521 1.521v64.826c0 .781.739 1.521 1.521 1.521h88.119c-31.782-31.782 0-67.867 0-67.867h-88.119z" fill="#543e5b"/><circle cx="208.667" cy="135.3" fill="#50dd89" r="18.984"/><circle cx="303.333" cy="135.3" fill="#50dd89" r="18.984"/><path d="m256 70.368c-7.261 0-13.202-5.941-13.202-13.202v-24.351c0-7.261 5.941-13.202 13.202-13.202 7.261 0 13.202 5.941 13.202 13.202v24.351c0 7.261-5.941 13.202-13.202 13.202z" fill="#deeeff"/><circle cx="256" cy="22.495" fill="#ff4155" r="22.495"/><ellipse cx="261.25" cy="17.556" fill="#ff7186" rx="9.806" ry="9.806" transform="matrix(.16 -.987 .987 .16 202.073 272.621)"/><path d="m293.37 365.143c-6.192 0-11.257-5.066-11.257-11.257v-45.35c0-6.192 5.066-11.257 11.257-11.257 6.192 0 11.258 5.066 11.258 11.257v45.35c-.001 6.192-5.067 11.257-11.258 11.257z" fill="#73c3f9"/><path d="m329.448 365.143c-6.192 0-11.257-5.066-11.257-11.257v-45.35c0-6.192 5.066-11.257 11.257-11.257 6.192 0 11.257 5.066 11.257 11.257v45.35c0 6.192-5.065 11.257-11.257 11.257z" fill="#ffdd40"/><path d="m293.37 333.81c-6.191 0-11.257-5.066-11.257-11.257v31.333c0 6.192 5.066 11.258 11.257 11.258 6.192 0 11.258-5.066 11.258-11.258v-31.333c-.001 6.191-5.067 11.257-11.258 11.257z" fill="#49b1f7"/><path d="m329.448 333.81c-6.192 0-11.258-5.066-11.258-11.257v31.333c0 6.192 5.066 11.258 11.258 11.258s11.257-5.066 11.257-11.258v-31.333c0 6.191-5.065 11.257-11.257 11.257z" fill="#ffc839"/><g fill="#73c3f9"><path d="m331.547 33.885c4.886 14.436 16.736 37.775 43.473 45.178 39.676 10.985 57.984 52.292 45.83 79.972-12.154 27.681-23.761 77.985 15.179 107.963 26.557 20.444 51.425 15.171 64.782 9.589.123-3.182.191-6.377.191-9.589 0-108.946-71.117-201.266-169.455-233.113z"/><path d="m453.008 412.634c-9.039-12.513-22.988-25.699-40.383-22.583-22.645 4.056-76.415 51.056-36.656 90.6 30.24-17.02 56.497-40.272 77.039-68.017z"/><path d="m180.453 33.885c-4.886 14.436-16.736 37.775-43.473 45.178-39.675 10.985-57.984 52.292-45.83 79.972 12.154 27.681 23.761 77.985-15.179 107.963-26.556 20.444-51.425 15.171-64.782 9.589-.123-3.182-.191-6.377-.191-9.589 0-108.946 71.117-201.266 169.455-233.113z"/><path d="m58.992 412.634c9.039-12.513 22.988-25.699 40.383-22.583 22.645 4.056 76.415 51.056 36.655 90.6-30.239-17.02-56.496-40.272-77.038-68.017z"/></g></g></svg>