<svg id="Capa_1" enable-background="new 0 0 501 501" height="512" viewBox="0 0 501 501" width="512" xmlns="http://www.w3.org/2000/svg"><g><path d="m495.5 256c0 135.31-109.69 245-245 245s-245-109.69-245-245 109.69-245 245-245 245 109.69 245 245z" fill="#012d4e"/><path d="m495.5 256c0 36.029-7.777 70.242-21.745 101.051-36.904 39.938-89.728 64.948-148.393 64.948-111.561 0-201.999-90.438-201.999-201.999 0-106.709 82.742-194.091 187.567-201.491 106.086 26.912 184.57 123.036 184.57 237.491z" fill="#056099"/><path d="m310.748 18.463c-37.103 29.552-63.569 71.892-72.728 120.349-.56 2.961 2.293 5.489 5.148 4.525 12.963-4.378 28.75-2.626 43.912 8.719.323.241.616.535.857.858 25.873 34.645 1.728 72.549-31.27 72.549-3.621 0-7.135-.457-10.488-1.315-2.917-.747-5.571 1.989-4.791 4.898 23.109 86.112 101.706 149.508 195.111 149.508 4.51 0 8.984-.148 13.42-.439.83-.054 1.625-.366 2.273-.888 7.493-6.052 14.545-12.629 21.099-19.674.308-.331.56-.711.745-1.123 13.791-30.648 21.464-64.643 21.464-100.43 0-114.521-78.574-210.689-184.752-237.537zm118.154 137.496c-35.167 26.142-74.549-13.24-48.407-48.406.242-.326.539-.622.865-.865 35.166-26.136 74.543 13.239 48.407 48.406-.243.326-.539.623-.865.865zm42.167 73.047c-25.198 18.539-53.304-9.566-34.767-34.765.244-.332.545-.633.877-.877 25.199-18.542 53.308 9.567 34.767 34.765-.244.332-.545.633-.877.877z" fill="#3180c2"/><path d="m74.75 158.596c0 4.142-3.358 7.5-7.5 7.5s-7.5-3.358-7.5-7.5 3.358-7.5 7.5-7.5 7.5 3.358 7.5 7.5z" fill="#fdf7bd"/><path d="m49 247.014c0 4.142-3.358 7.5-7.5 7.5s-7.5-3.358-7.5-7.5 3.358-7.5 7.5-7.5 7.5 3.357 7.5 7.5zm126.638-207.014c-4.142 0-7.5 3.358-7.5 7.5s3.358 7.5 7.5 7.5 7.5-3.358 7.5-7.5-3.358-7.5-7.5-7.5z" fill="#b1c9eb"/><path d="m485.731 324.719c-7.086 24.296-17.834 47.032-31.607 67.569-4.78 7.127-69.932 61.943-79.625 61.943-38.66 0-70-31.34-70-70s31.34-70 70-70c20.669 0 39.246 8.958 52.06 23.204 9.17-10.674 22.766-17.435 37.941-17.435 7.591 0 14.787 1.692 21.231 4.719zm-271.231 5.281c-21.579 0-40.877 9.764-53.718 25.115-2.749-3.135-6.784-5.115-11.282-5.115-8.284 0-15 6.716-15 15 0 .341.012.679.034 1.015-7.509-3.845-16.018-6.015-25.034-6.015-11.57 0-22.306 3.573-31.165 9.675-9.161-17.631-27.592-29.675-48.835-29.675-3.049 0-6.041.248-8.955.726 25.526 69.257 81.447 123.807 151.583 147.471 13.29 4.484 112.372-52.951 112.372-88.197 0-38.66-31.34-70-70-70zm-60 10c5.523 0 10-4.477 10-10s-4.477-10-10-10-10 4.477-10 10 4.477 10 10 10zm-85-15c0 8.284 6.716 15 15 15s15-6.716 15-15c0-3.089-.934-5.961-2.535-8.347 1.576-1.768 2.535-4.098 2.535-6.653 0-5.523-4.477-10-10-10-2.662 0-5.081 1.041-6.873 2.737-2.558-4.614-7.478-7.737-13.127-7.737-8.284 0-15 6.716-15 15s6.716 15 15 15zm30-75c8.284 0 15-6.716 15-15s-6.716-15-15-15-15 6.716-15 15 6.716 15 15 15z" fill="#a62b2b"/><path d="m431.141 260.859c-6.126 9.191-18.543 11.675-27.734 5.547l-19.229-12.818c-2.292-1.528-5.112-2.043-7.795-1.423l-48.395 11.168c-13.163 3.038-22.488 14.759-22.488 28.268v198.165h-110v-192.599c0-8.488-3.082-16.687-8.674-23.073l-8.752-9.995-71.401-75.044c-.753-.792-1.432-1.635-2.035-2.519-5.014-4.41-8.178-10.872-8.178-18.074 0-10.11 6.235-18.763 15.07-22.325l13.341-32.401c4.205-10.213 15.893-15.083 26.108-10.878 10.213 4.205 15.084 15.895 10.878 26.108l-14.789 35.918c-1.503 3.649-.721 7.839 2 10.698 8.448 8.879 26.887 28.259 37.817 39.746 3.112 3.271 8.617 1.065 8.617-3.536v-.381c0-12.41-1.812-24.753-5.378-36.64l-14.779-49.26c-.088-.293-.169-.588-.243-.883-2.705-4.312-4.08-9.542-3.552-15.116 1.095-11.561 10.582-20.74 22.16-21.645.836-.065 1.641-.081 2.439-.061l63.404-71.329c7.339-8.256 19.979-8.998 28.235-1.661 8.256 7.339 8.999 19.979 1.661 28.235l-68.876 77.486c-2.305 2.593-3.101 6.194-2.104 9.517l17.319 57.73c.352 1.175 1.434 1.979 2.66 1.979 1.266 0 2.372-.856 2.689-2.082l18.66-72.087c-1.34-3.055-2.088-6.453-2.088-10.035 0-13.289 10.288-24.062 22.979-24.062 1.808 0 3.568.219 5.256.633l59.656-36.313c9.434-5.743 21.74-2.752 27.483 6.684 5.744 9.435 2.751 21.74-6.684 27.483l-63.086 38.402c-2.222 1.353-3.829 3.518-4.481 6.036l-16.292 62.937c-.315 1.217.604 2.404 1.861 2.404.423 0 .833-.139 1.169-.396l73.256-56.094c2.956-9.71 11.982-16.775 22.659-16.775 9.396 0 17.515 5.472 21.342 13.404l20.198 11.632c9.572 5.513 12.863 17.74 7.35 27.312-5.511 9.573-17.739 12.863-27.312 7.35l-13.913-8.012c-3.498-2.015-7.865-1.728-11.07.726l-71.91 55.063c-.421.322-.668.823-.668 1.353 0 1.096 1.02 1.907 2.087 1.661l67.387-15.551c4.088-3.745 9.536-6.031 15.517-6.031 11.493 0 21.015 8.438 22.71 19.456l12.392 8.261c9.189 6.129 11.674 18.546 5.546 27.737z" fill="#f5c02c"/><path d="m193.393 101.464c-1.952-1.953-1.952-5.118 0-7.071 1.952-1.953 5.118-1.953 7.071 0l6.702 6.702c1.952 1.953 1.952 5.118 0 7.071-1.953 1.953-5.118 1.953-7.071 0zm-8.762 15.202 10.396 7.797c2.209 1.657 5.343 1.209 7-1s1.209-5.343-1-7l-10.396-7.797c-2.209-1.657-5.343-1.209-7 1-1.657 2.21-1.209 5.344 1 7zm109.833-11.308c1.953 1.953 5.119 1.953 7.071 0s1.953-5.118 0-7.071l-6.702-6.702c-1.952-1.953-5.118-1.953-7.071 0s-1.953 5.118 0 7.071zm-24.938 1.579 14.37 10.777c2.209 1.657 5.343 1.209 7-1 1.657-2.209 1.209-5.343-1-7l-14.37-10.777c-2.209-1.657-5.343-1.209-7 1s-1.209 5.343 1 7zm114.589 39.661c.053 2.761 2.334 4.956 5.095 4.904 2.761-.053 4.956-2.334 4.903-5.095l-.272-14.208c-.053-2.761-2.334-4.956-5.095-4.903s-4.956 2.334-4.903 5.095zm13.257 74.932c-1.99-1.915-5.155-1.854-7.07.135l-9.855 10.239c-1.915 1.99-1.854 5.155.135 7.07 1.99 1.915 5.155 1.854 7.07-.135l9.854-10.239c1.917-1.99 1.856-5.155-.134-7.07zm-21.478-83.056c-.844-2.629-3.66-4.076-6.289-3.232s-4.076 3.66-3.232 6.289l1.234 3.843c.844 2.629 3.66 4.076 6.289 3.232s4.076-3.66 3.232-6.289zm-6.728 84.371c-2.49-1.194-5.476-.143-6.67 2.347l-1.745 3.639c-1.194 2.49-.143 5.476 2.347 6.67s5.476.143 6.67-2.347l1.745-3.639c1.194-2.489.143-5.476-2.347-6.67zm-84.666 71.92c0-2.923-2.509-5.261-5.491-4.977-2.6.248-4.509 2.58-4.509 5.191v2.785c0 1.105-.895 2-2 2h-6c-1.105 0-2-.895-2-2v-12.784c0-2.612-1.909-4.944-4.509-5.191-2.982-.284-5.491 2.053-5.491 4.977v13c0 1.105-.895 2-2 2h-6c-1.105 0-2-.895-2-2v-2.785c0-2.612-1.909-4.944-4.509-5.191-2.982-.284-5.491 2.053-5.491 4.977v3c0 1.105-.895 2-2 2h-4.958c-2.761 0-5-2.239-5-5v-7.364c0-8.488-3.082-16.687-8.674-23.072l-8.753-9.996-71.402-75.044c-.753-.792-1.432-1.635-2.035-2.519-2.169-1.908-3.992-4.2-5.363-6.771h2.97c2.611 0 4.943-1.909 5.191-4.509.284-2.982-2.053-5.491-4.977-5.491h-5.965c-.023-.432-.035-.866-.035-1.304 0-10.11 28.411-54.726 28.411-54.726.081-.195.164-.389.25-.58-.35-.171-.708-.333-1.072-.486-10.209-4.277-22.2 1.068-26.414 11.303l-13.147 31.929c-8.834 3.562-15.07 12.215-15.07 22.325 0 7.202 3.164 13.665 8.178 18.074.603.884 1.282 1.727 2.035 2.519l71.401 75.044 8.752 9.995c5.592 6.386 8.674 14.585 8.674 23.073v192.598l27.045-9.765v-165.235c0-2.761 2.239-5 5-5h4.958c1.105 0 2 .895 2 2v12.785c0 2.611 1.909 4.943 4.509 5.191 2.982.284 5.491-2.053 5.491-4.977v-13c0-1.105.895-2 2-2h6c1.105 0 2 .895 2 2v2.785c0 2.611 1.909 4.943 4.509 5.191 2.982.284 5.491-2.053 5.491-4.977v-3c0-1.105.895-2 2-2h6c1.105 0 2 .895 2 2v12.785c0 2.611 1.909 4.943 4.509 5.191 2.982.284 5.491-2.053 5.491-4.977v-13c0-1.105.895-2 2-2h19v-10h-19c-1.105 0-2-.895-2-2z" fill="#f19b0b"/><path d="m157.605 92.27-6.292-3.004c-7.476-3.569-16.43-.402-19.999 7.074l-9.068 18.995c-2.379 4.984-.268 10.953 4.716 13.333l6.292 3.004c4.984 2.379 10.953.268 13.333-4.716l13.377-28.02c1.188-2.492.133-5.477-2.359-6.666z" fill="#c98001"/><path d="m385.2 45.903c1.362 2.402.52 5.453-1.882 6.816l-27.007 15.319c-4.804 2.725-10.907 1.04-13.632-3.764l-3.44-6.065c-2.725-4.804-1.04-10.907 3.764-13.632l18.308-10.385c7.206-4.087 16.361-1.56 20.448 5.646zm-95.748-41.545c-5.877-5.838-15.375-5.806-21.213.071l-14.834 14.934c-3.892 3.918-3.871 10.25.047 14.142l4.947 4.914c3.918 3.892 10.25 3.871 14.142-.048l21.881-22.029c1.946-1.959 1.936-5.125-.023-7.071zm116.377 156.818 27.18 15.009c2.417 1.335 5.459.457 6.794-1.96l3.37-6.104c4.005-7.252 1.372-16.377-5.88-20.382l-18.426-10.175c-4.835-2.67-10.918-.915-13.588 3.92l-3.37 6.104c-2.67 4.835-.915 10.918 3.92 13.588zm33.597 77.861-17.721-11.359c-4.65-2.98-10.835-1.627-13.815 3.022l-3.762 5.87c-2.98 4.65-1.627 10.835 3.022 13.815l26.14 16.755c2.325 1.49 5.417.814 6.908-1.511l3.763-5.87c4.469-6.974 2.44-16.252-4.535-20.722z" fill="#d98800"/><path d="m454.125 392.288c-43.967 65.56-118.756 108.712-203.625 108.712-27.409 0-53.767-4.501-78.375-12.804 8.656-16.942 24.013-29.892 42.575-35.356-.132-.928-.2-1.876-.2-2.84 0-11.046 8.954-20 20-20 3.791 0 7.336 1.055 10.357 2.887 3.564-35.319 33.384-62.887 69.643-62.887 22.223 0 42.027 10.356 54.85 26.505 12.189-10.297 27.944-16.505 45.15-16.505 14.709 0 28.358 4.537 39.625 12.288zm-294.625 7.712c-8.284 0-15 6.716-15 15-8.284 0-15 6.716-15 15s6.716 15 15 15 15-6.716 15-15c8.284 0 15-6.716 15-15s-6.716-15-15-15zm-45-20c-5.523 0-10 4.477-10 10s4.477 10 10 10 10-4.477 10-10-4.477-10-10-10z" fill="#fc5426"/><path d="m270.667 443c-.529 10.895-21.977 2.408-29 9.667-6.751 6.978-6.288 19.096-11.667 24.833-8.916 9.512-20.982 16.393-23.487 19.562-11.777-2.135-23.261-5.112-34.388-8.866 8.656-16.942 24.013-29.892 42.575-35.356-.132-.928-.2-1.876-.2-2.84 0-11.046 8.954-20 20-20 3.791 0 7.336 1.055 10.357 2.887 3.564-35.319 33.384-62.887 69.643-62.887 7.043 0 13.844 1.041 20.256 2.976-44.506 11.024-62.256 32.274-64.089 70.024zm43.833-43c-5.523 0-10 4.477-10 10s4.477 10 10 10 10-4.477 10-10-4.477-10-10-10zm20 20c-5.523 0-10 4.477-10 10s4.477 10 10 10 10-4.477 10-10-4.477-10-10-10zm-50 40c-5.523 0-10 4.477-10 10s4.477 10 10 10 10-4.477 10-10-4.477-10-10-10zm130-60c-5.523 0-10 4.477-10 10s4.477 10 10 10 10-4.477 10-10-4.477-10-10-10z" fill="#f52c2c"/></g></svg>