<svg id="Capa_1" enable-background="new 0 0 501 501" height="512" viewBox="0 0 501 501" width="512" xmlns="http://www.w3.org/2000/svg"><g><path d="m490.035 245c0 135.31-109.698 245-245.018 245s-245.017-109.69-245.017-245 109.698-245 245.018-245 245.017 109.69 245.017 245z" fill="#006e66"/><path d="m467.481 267.552c0 61.916-22.969 118.468-60.852 161.6-43.135 37.88-99.691 60.848-161.611 60.848-135.32 0-245.018-109.69-245.018-245 0-61.916 22.969-118.468 60.852-161.6 43.135-37.88 99.691-60.848 161.611-60.848 135.32 0 245.018 109.69 245.018 245z" fill="#06995f"/><path d="m434.032 179h-70.007c-8.284 0-15-6.716-15-15 0-8.284 6.716-15 15-15h70.007c8.284 0 15 6.716 15 15 0 8.284-6.716 15-15 15z" fill="#01988c"/><path d="m438.823 283.896c0 84.072-48.282 156.868-118.632 192.177-25.199 9.016-52.351 13.927-80.65 13.927-103.553 0-191.306-65.98-224.65-158.016-3.567-15.528-5.891-31.479-5.891-48.089.001-118.683 96.22-214.895 214.912-214.895s214.911 96.212 214.911 214.896z" fill="#f3d373"/><path d="m223.912 69c-45.624 0-87.927 14.216-122.721 38.459-20.692 29.693-34.079 64.855-37.559 102.882 14.65 4.182 25.375 17.668 25.375 33.659 0 14.479-8.793 26.905-21.33 32.229 21.085 96.551 107.082 168.838 209.963 168.838 45.624 0 87.927-14.216 122.721-38.459 24.245-34.792 38.462-77.092 38.462-122.713 0-118.683-96.219-214.895-214.911-214.895zm-114.904 120c-11.046 0-20.001-8.954-20.001-20s8.955-20 20.001-20 20.001 8.954 20.001 20-8.955 20-20.001 20zm270.019 130c-16.57 0-30.002-13.431-30.002-30s13.432-30 30.002-30 30.002 13.431 30.002 30-13.432 30-30.002 30z" fill="#fcf498"/><path d="m484.035 199h-70.005c-8.285 0-15.001-6.716-15.001-15s6.716-15 15.001-15h63.988c3.168 9.716 5.745 19.7 7.688 29.908-.549.061-1.107.092-1.671.092zm-35.186-90c-7.097-10.615-15.002-20.644-23.626-30h-1.193c-8.285 0-15.001 6.716-15.001 15s6.716 15 15.001 15zm.183 145c0 8.284 6.716 15 15.001 15h24.841c.768-7.896 1.161-15.902 1.161-24 0-2.006-.024-4.006-.072-6h-25.93c-8.285 0-15.001 6.716-15.001 15zm-255.018-212.917c8.285 0 15.001-6.716 15.001-15s-6.716-15-15.001-15h-22.077c-22.492 7.019-43.591 17.191-62.781 30z" fill="#0ab59e"/><path d="m319.355 86.306c36.094 36.578 58.373 86.821 58.373 142.267 0 68.123-33.631 178.377-85.196 224.824-15.24 3.662-31.15 5.603-47.514 5.603s-32.274-1.94-47.514-5.603c-51.565-46.447-85.196-156.701-85.196-224.824 0-55.446 22.278-105.689 58.373-142.267 40.952-41.502 107.721-41.502 148.674 0z" fill="#056099"/><path d="m319.355 86.306c-40.953-41.502-107.721-41.502-148.675 0-3.793 3.844-7.433 7.838-10.911 11.974-7.443 21.092-11.493 43.786-11.493 67.425 0 50.063 18.162 95.884 48.258 131.234.005.005.009.011.014.016.844.991 2.091 1.545 3.392 1.538 8.019-.045 16.615.154 19.53.599-1.05 2.807-2.829 5.909-5.173 8.736-1.627 1.963-1.309 4.905.74 6.422 45.661 33.807 111.936 27.954 150.521-17.451.226-.267.452-.533.677-.801 7.443-21.092 11.493-43.785 11.493-67.425 0-55.446-22.279-105.689-58.373-142.267zm-28.135 152.081c-2.92 5.8-8.495 12.078-15.467 14.437-.371.126-.987.126-1.358 0-8.041-2.721-14.225-10.656-16.619-17.058 4.622-.705 23.535-.794 31.77-.267 1.431.091 2.319 1.607 1.674 2.888zm-71.503 50.426c-6.971-2.359-12.546-8.637-15.467-14.437-.645-1.281.244-2.797 1.675-2.888 7.043-.451 21.899-.451 28.942 0 1.431.092 2.32 1.608 1.675 2.888-2.92 5.8-8.495 12.078-15.467 14.437-.371.126-.987.126-1.358 0zm25.98 27.337c-.371.126-.987.126-1.358 0-6.971-2.359-12.546-8.637-15.467-14.437-.645-1.281.244-2.797 1.675-2.888 7.043-.451 21.899-.451 28.942 0 1.431.092 2.32 1.607 1.675 2.888-2.921 5.8-8.496 12.078-15.467 14.437zm31.911-27.337c-.371.126-.987.126-1.358 0-6.971-2.359-12.546-8.637-15.467-14.437-.645-1.281.244-2.797 1.675-2.888 7.043-.451 21.899-.451 28.942 0 1.431.092 2.32 1.608 1.675 2.888-2.92 5.8-8.495 12.078-15.467 14.437z" fill="#3180c2"/><path d="m199.225 65.745c28.827-14.087 62.757-14.087 91.584 0-15.889.158-34.494 7.523-45.809 20.636-11.307-13.104-29.893-20.468-45.775-20.636z" fill="#012d4e"/><path d="m279.936 183.34c0 35.813-14.751 66.028-34.919 75.479-20.168-9.451-34.919-39.666-34.919-75.479s14.751-66.028 34.919-75.479c20.168 9.451 34.919 39.666 34.919 75.479z" fill="#f57e00"/><path d="m279.936 183.34c0 35.813-14.751 66.028-34.919 75.479-1.13-.529-2.243-1.124-3.337-1.782-6.206-20.446-9.893-45.989-9.893-73.697s3.686-53.251 9.893-73.697c1.094-.657 2.207-1.252 3.337-1.782 20.168 9.451 34.919 39.666 34.919 75.479z" fill="#fd9d01"/><path d="m499.335 339.601c-23.576 21.963-50.129 41.222-78.506 55.253-12.806 20.921-28.368 39.651-46.907 54.839 10.673 1.956 21.277 4.625 31.735 8.012 5.59 1.811 3.946 10.142-1.916 9.729-17.869-1.26-37.321.17-57.255 3.927-6.132 1.156-12.105 3.016-17.888 5.358-.025.01-.05.02-.075.03-26.027 9.6-54.258 14.024-83.818 13.875-76.221-.384-143.778-29.239-189.144-84.604.801 6.158 1.9 12.114 3.305 17.809 1.171 4.742-5.42 7.272-7.697 2.95-9.562-18.15-16.266-37.417-20.023-57.082-.301-.552-.601-1.106-.899-1.662-4.987-9.303-9.377-19.059-13.158-29.153-7.78-20.771 20.516-35.501 33.03-17.187 6.427 9.406 13.141 19.452 20.41 29.622 15.249 21.338 37.686 36.44 63.213 42.459 15.346 3.618 32.026 6.896 42.982 7.147 5.875.135 6.736 8.583 1.001 9.865-15.208 3.4-30.575 5.336-45.883 5.841 27.408 19.886 61.729 33.442 106.863 32.996 83.22-.822 173.249-79.828 210.174-151.688 2.686-5.226 10.663-2.313 9.313 3.405-4.177 17.695-9.65 35.195-16.503 51.987 18.8-5.98 36.334-13.41 51.656-21.923 5.257-2.921 10.391 4.095 5.99 8.195z" fill="#c64b1a"/><path d="m55.561 406.021c.801 6.158 1.9 12.114 3.305 17.809 1.171 4.742-5.42 7.272-7.697 2.95-9.562-18.15-16.266-37.417-20.023-57.082-.301-.552-.601-1.106-.899-1.662-15.677-29.246-25.497-59.703-28.943-97.608 18.209 7.158 33.231 28.522 50.861 54.269 20.948 72.066 73.001 131.014 140.709 161.022-54.745-10.408-102.546-37.268-137.313-79.698z" fill="#a62b2b"/><path d="m282.521 501h-.002c-8.008 0-14.5-6.492-14.5-14.5v-33c0-8.008 6.492-14.5 14.5-14.5h.002c8.008 0 14.5 6.492 14.5 14.5v33c0 8.008-6.492 14.5-14.5 14.5zm48.003-44.5v-33c0-8.008-6.492-14.5-14.5-14.5h-.002c-8.008 0-14.5 6.492-14.5 14.5v33c0 8.008 6.492 14.5 14.5 14.5h.002c8.008 0 14.5-6.492 14.5-14.5zm-127.259 20v-33c0-8.008-6.492-14.5-14.5-14.5h-.002c-8.008 0-14.5 6.492-14.5 14.5v33c0 8.008 6.492 14.5 14.5 14.5h.002c8.008 0 14.5-6.492 14.5-14.5zm33.752 10v-33c0-8.008-6.492-14.5-14.5-14.5h-.002c-8.008 0-14.5 6.492-14.5 14.5v33c0 8.008 6.492 14.5 14.5 14.5h.002c8.008 0 14.5-6.492 14.5-14.5z" fill="#f57e00"/><path d="m282.521 479h-.002c-8.008 0-14.5-6.492-14.5-14.5v-11c0-8.008 6.492-14.5 14.5-14.5h.002c8.008 0 14.5 6.492 14.5 14.5v11c0 8.008-6.492 14.5-14.5 14.5zm48.003-44.5v-11c0-8.008-6.492-14.5-14.5-14.5h-.002c-8.008 0-14.5 6.492-14.5 14.5v11c0 8.008 6.492 14.5 14.5 14.5h.002c8.008 0 14.5-6.492 14.5-14.5zm-127.259 20v-11c0-8.008-6.492-14.5-14.5-14.5h-.002c-8.008 0-14.5 6.492-14.5 14.5v11c0 8.008 6.492 14.5 14.5 14.5h.002c8.008 0 14.5-6.492 14.5-14.5zm33.752 10v-11c0-8.008-6.492-14.5-14.5-14.5h-.002c-8.008 0-14.5 6.492-14.5 14.5v11c0 8.008 6.492 14.5 14.5 14.5h.002c8.008 0 14.5-6.492 14.5-14.5z" fill="#fd9d01"/><path d="m183.211 191.529c2.817 15.369 3.888 31.31 3.01 47.597-2.217 41.117-22.06 114.394-46.961 161.13-4.625 8.681-11.922 4.028-11.73-1.183 1.146-31.24.604-46.265-3.199-61.774-2.687 4.048-5.437 8.033-8.244 11.938-1.853 2.578-5.911 1.698-6.531-1.416-10.347-51.935-10.379-109.823-1.661-150.067 9.169-42.323 30.947-78.667 60.541-105.946 12.961 30.706 18.47 64.854 14.775 99.721zm198.93 6.225c-9.169-42.323-30.947-78.667-60.541-105.946-12.962 30.706-18.471 64.854-14.775 99.721-2.817 15.369-3.888 31.31-3.01 47.597 2.217 41.117 19.619 126.847 43.312 174.207 1.421 2.84 9.292 2.616 10.399-.36 5.504-14.797 4.376-60.166 8.179-75.675 2.687 4.048 5.437 8.033 8.244 11.938 1.853 2.578 5.911 1.698 6.531-1.416 10.347-51.934 10.379-109.822 1.661-150.066z" fill="#012d4e"/><path d="m382.141 197.754c6.916 31.925 8.325 74.955 3.447 117.308-3.049 1.087-6.169 1.65-9.342 1.65-35.231 0-63.791-69.356-63.791-154.911 0-20.709 1.673-40.468 4.71-58.525 1.364-3.871 2.844-7.695 4.436-11.468 29.593 27.279 51.371 63.623 60.54 105.946zm-213.706-105.946c-10.451 9.633-19.927 20.398-28.218 32.156-6.346 24.075-10.024 52.693-10.024 83.398 0 36.006 5.059 69.143 13.544 95.448 5.079 15.746 27.56 15.294 31.791-.701 5.973-22.582 9.685-44.301 10.693-62.983.878-16.287-.193-32.228-3.01-47.597 3.696-34.867-1.814-69.015-14.776-99.721z" fill="#463b83"/><path d="m381.552 130.132c0 38.667-31.348 70.013-70.018 70.013-31.013 0-57.316-20.162-66.517-48.092-9.201 27.93-35.504 48.092-66.517 48.092-38.67 0-70.018-31.346-70.018-70.013s31.348-70.013 70.018-70.013c31.013 0 57.316 20.161 66.517 48.092 9.201-27.93 35.504-48.092 66.517-48.092 38.67 0 70.018 31.346 70.018 70.013z" fill="#012d4e"/><path d="m248.519 130.132c0 38.667-31.348 70.013-70.018 70.013-2.894 0-5.747-.176-8.549-.517-18.507-15.12-30.661-40.605-30.661-69.496s12.154-54.376 30.661-69.496c2.802-.341 5.655-.517 8.549-.517 38.669 0 70.018 31.346 70.018 70.013zm63.015-70.013c-2.894 0-5.747.176-8.549.517-18.507 15.12-30.661 40.605-30.661 69.496s12.154 54.376 30.661 69.496c2.802.341 5.655.517 8.549.517 38.67 0 70.018-31.346 70.018-70.013s-31.348-70.013-70.018-70.013z" fill="#463b83"/><path d="m227.513 130.132c0 27.067-21.944 49.009-49.012 49.009s-49.012-21.942-49.012-49.009 21.944-49.009 49.012-49.009 49.012 21.942 49.012 49.009zm84.021-49.009c-27.069 0-49.013 21.942-49.013 49.009s21.944 49.009 49.013 49.009 49.012-21.942 49.012-49.009-21.943-49.009-49.012-49.009z" fill="#f5c02c"/><path d="m218.411 118.229c0 15.467-12.539 28.005-28.007 28.005s-28.007-12.538-28.007-28.005 12.539-28.005 28.007-28.005 28.007 12.539 28.007 28.005zm105.026-28.005c-15.468 0-28.007 12.538-28.007 28.005s12.539 28.005 28.007 28.005 28.007-12.538 28.007-28.005-12.539-28.005-28.007-28.005z" fill="#fded32"/><path d="m199.506 130.132c0 11.6-9.404 21.004-21.005 21.004s-21.005-9.404-21.005-21.004 9.404-21.004 21.005-21.004c11.6 0 21.005 9.403 21.005 21.004zm112.028-21.004c-11.601 0-21.005 9.404-21.005 21.004s9.404 21.004 21.005 21.004 21.005-9.404 21.005-21.004-9.404-21.004-21.005-21.004z" fill="#463b83"/><path d="m193.904 135.733c1.724 0 3.399-.208 5.002-.599-2.244 9.185-10.529 16.002-20.406 16.002-11.601 0-21.005-9.404-21.005-21.004 0-9.876 6.817-18.161 16.003-20.405-.392 1.603-.599 3.278-.599 5.002 0 11.6 9.405 21.004 21.005 21.004zm133.034 0c-11.601 0-21.005-9.404-21.005-21.004 0-1.724.208-3.399.599-5.002-9.186 2.244-16.003 10.528-16.003 20.405 0 11.6 9.404 21.004 21.005 21.004 9.877 0 18.162-6.817 20.406-16.002-1.603.391-3.278.599-5.002.599z" fill="#012d4e"/><path d="m275.088 25.517c0 4.142-3.358 7.5-7.501 7.5-4.142 0-7.501-3.358-7.501-7.5s3.358-7.5 7.501-7.5 7.501 3.358 7.501 7.5z" fill="#04d481"/><path d="m71.132 106.5c0 4.142-3.358 7.5-7.501 7.5s-7.501-3.358-7.501-7.5 3.358-7.5 7.501-7.5 7.501 3.358 7.501 7.5zm387.212 109.067c-4.142 0-7.501 3.358-7.501 7.5s3.358 7.5 7.501 7.5 7.501-3.358 7.501-7.5-3.359-7.5-7.501-7.5z" fill="#b0dde9"/><path d="m199 149c0 5.523-4.477 10-10 10s-10-4.477-10-10 4.477-10 10-10 10 4.477 10 10zm130-10c-5.523 0-10 4.477-10 10s4.477 10 10 10 10-4.477 10-10-4.477-10-10-10z" fill="#fded32"/><path d="m397.763 64.874c-8.062 21.767-29.389 35.998-52.842 34.815h-199.842c-23.452 1.182-44.78-13.048-52.842-34.815-.527-1.423.703-2.885 2.2-2.634 8.771 1.473 36.234 4.06 97.204-5.228 17.145-2.612 40.189 4.864 53.359 20.127 13.17-15.263 36.214-22.739 53.359-20.127 60.97 9.288 88.433 6.701 97.204 5.228 1.497-.251 2.727 1.211 2.2 2.634z" fill="#f52c2c"/><path d="m347.612 91.345 10.46 9.904c3.099 2.935 1.748 8.134-2.389 9.188l-55.692 14.185c-24.722 6.297-44.653 24.483-53.209 48.454-.27.758-.978 1.269-1.783 1.269-.804 0-1.512-.511-1.783-1.269-8.555-23.972-28.487-42.158-53.209-48.454l-55.692-14.185c-4.136-1.053-5.488-6.253-2.389-9.188l10.46-9.904c-22.881-11.027-26.289-28.366-22.737-53.21.239-1.672 2.246-2.404 3.538-1.315 8.297 6.996 36.074 27.131 100.4 47.173 8.908 2.776 16.075 8.375 21.411 15.556 5.336-7.18 12.503-12.78 21.411-15.556 64.325-20.042 92.102-40.177 100.4-47.173 1.291-1.088 3.299-.357 3.538 1.315 3.554 24.845.146 42.183-22.735 53.21z" fill="#fc5426"/></g></svg>