<svg id="Capa_1" enable-background="new 0 0 501 501" height="512" viewBox="0 0 501 501" width="512" xmlns="http://www.w3.org/2000/svg"><g><path d="m495.5 256c0 135.31-109.69 245-245 245s-245-109.69-245-245 109.69-245 245-245 245 109.69 245 245z" fill="#f5c02c"/><path d="m480.511 340.573c-34.441 93.636-124.426 160.427-230.011 160.427-135.31 0-245-109.69-245-245 0-92.87 51.673-173.671 127.836-215.221-17.761 33.066-27.836 70.876-27.836 111.038 0 129.787 105.213 235 235 235 52.46 0 100.906-17.19 140.011-46.244zm-174.725-251.859c-.836-2.758-1.286-5.683-1.286-8.714 0-16.569 13.431-30 30-30 3.031 0 5.956.45 8.714 1.286-3.733-12.319-15.176-21.286-28.714-21.286-16.569 0-30 13.431-30 30 0 13.538 8.967 24.981 21.286 28.714z" fill="#f19b0b"/><path d="m434.872 162.067c5.989 5.201 6.894 14.165 2.065 20.457l-17.437 25.003c-8.547 12.256-11.338 117.593-35 142.473-22.667 23.833-26.82-8.197-30 0-12.849 33.121-26.706 94.049-50 119.201-9.989 10.786-26.858 11.367-37.663 1.4-4.956-4.571-13.062-30.861-42.337-70.601-7.502-10.184-22.517 20.161-30 10-29.092-39.503-15.547-145.994-20-150h-32.526c3.985-10.556 8.971-17.618 20-20 11.421-2.466 144.146 114.472 147.9 103.406l24.626-133.406c4.709-13.88 17.953-23.038 32.602-22.543l12.301.416c11.245.38 21.919-4.954 28.366-14.175l15.298-21.88zm26.624 169.082c8.282 16.142-1.532 36.816-17.553 36.87-.1 0-.199.001-.299.001s-.199 0-.299-.001c-16.021-.054-25.835-20.728-17.553-36.87 4.519-8.809 10.121-15.91 16.442-20.677.835-.629 1.985-.629 2.819 0 6.322 4.767 11.923 11.869 16.443 20.677zm-246.292 114.636c8.282 16.142-1.532 36.816-17.553 36.87-.1 0-.199.001-.299.001s-.199 0-.299-.001c-16.021-.054-25.835-20.728-17.553-36.87 4.519-8.809 10.121-15.91 16.442-20.677.835-.629 1.985-.629 2.819 0 6.322 4.767 11.923 11.868 16.443 20.677z" fill="#a90033"/><path d="m454.619 340.315c3.586 2.721 3.553 8.803-.075 13.584-3.628 4.782-9.475 6.453-13.062 3.732-3.586-2.721-3.553-8.803.075-13.584 3.628-4.782 9.476-6.453 13.062-3.732zm-246.292 114.636c3.586 2.721 3.553 8.803-.075 13.584-3.628 4.782-9.476 6.453-13.062 3.732s-3.553-8.803.075-13.584c3.628-4.782 9.476-6.453 13.062-3.732z" fill="#d63d24"/><path d="m463.44 149.397-140.609-140.608c-13.487-13.488-35.971-11.129-46.366 4.863l-163.666 251.794c0 31.242 25.326 56.568 56.568 56.568l62.315 62.315c12.221 12.22 32.212 11.615 43.671-1.322l188.709-213.058c5.259-5.938 4.987-14.943-.622-20.552zm-134.974-71.334c-9.763 9.763-25.592 9.763-35.355 0s-9.763-25.592 0-35.355 25.592-9.763 35.355 0 9.763 25.592 0 35.355z" fill="#69c3da"/><path d="m464.062 169.949-8.902 10.051-190.373 214.937c-5.73 6.469-15.726 6.772-21.837.661l-51.046-51.046 41.959-64.552h-89.363c-1.233-4.644 1.65-20 1.65-20h100.713l19.5-30h-130.524l19.5-30h130.524l13-20h-130.524l39-60h130.524l37.889-58.291 76.637 76.637 11.051 11.051c5.609 5.609 5.881 14.614.622 20.552z" fill="#b0dde9"/><path d="m456.212 178.813-1.052 1.187h-156.297l39-60h96.18l18.346 18.346zm-222.349 101.187h132.726l17.714-20h-137.44zm32.5-50h144.511l26.572-30h-151.583z" fill="#e1ebf0"/><path d="m360.294 46.251c-9.455-9.455-23.333-11.122-34.366-5.764-9.8-7.476-23.86-6.736-32.817 2.22-9.763 9.763-9.763 25.592 0 35.355.668.668 1.365 1.291 2.086 1.867l-144.936 222.98-37.463-37.462 163.667-251.795c10.395-15.992 32.879-18.351 46.366-4.863z" fill="#528ed7"/><path d="m155.339 200h61.813l-19.5 30h-61.813zm-42.54 65.446 14.554 14.554h37.799l13-20h-61.813zm94.54-145.446-39 60h61.813l39-60z" fill="#75a5d3"/><path d="m112.799 265.446 56.568 56.568-82.222 107.522c-1.113 1.948-2.344 3.847-3.692 5.686-27.578-25.716-49.214-57.721-62.624-93.732 5.745-1.392 11.655-1.927 17.527-1.601z" fill="#012d4e"/><path d="m150.261 302.909 19.106 19.106-82.222 107.521c-1.113 1.948-2.344 3.847-3.692 5.686-16.475-15.363-30.83-32.97-42.577-52.335 10.121-5.719 21.55-8.267 32.835-7.642z" fill="#463b83"/><path d="m154.283 348.107-63.64-63.64c-5.858-5.858-5.858-15.355 0-21.213 5.858-5.858 15.355-5.858 21.213 0l63.64 63.64c5.858 5.858 5.858 15.355 0 21.213-5.858 5.857-15.355 5.857-21.213 0zm-84.783 11.893c-8.284 0-15 6.716-15 15s6.716 15 15 15 15-6.716 15-15-6.716-15-15-15z" fill="#b0dde9"/><path d="m154.283 348.107-29.088-29.088c-5.858-5.858-5.858-15.355 0-21.213 5.858-5.858 15.355-5.858 21.213 0l29.088 29.088c5.858 5.858 5.858 15.355 0 21.213-5.858 5.857-15.355 5.857-21.213 0zm-99.617 29.128c1.079 7.224 7.309 12.765 14.834 12.765 8.284 0 15-6.716 15-15 0-2.88-.812-5.57-2.219-7.854l-8.57 8.099c-6.39-.355-12.827.309-19.045 1.99z" fill="#fff5f5"/><path d="m419.335 437.612c14.239 27.752-2.633 63.295-30.177 63.388-.172 0-.343 0-.514 0s-.343 0-.514-.001c-27.544-.093-44.416-35.635-30.177-63.388 7.77-15.144 17.4-27.353 28.268-35.548 1.435-1.082 3.412-1.082 4.847 0 10.867 8.196 20.497 20.405 28.267 35.549zm44.105-288.215c5.609 5.609 5.881 14.615.622 20.552l-19.151 23.716c-9.387 11.624-23.38 76.543-33.063 109.484-2.779 9.455-12.74 14.821-22.175 11.974-8.417-2.541-17.443 1.447-21.191 9.4-15.145 32.136-33.403 80.282-58.407 103.736-10.722 10.057-27.59 9.451-37.669-1.25-10.411-11.055-24.47-26.088-33.876-35.831l22.91-49.781c4.717-10.25 14.312-17.407 25.482-19.008 11.566-1.657 21.413-9.266 25.935-20.04l47.091-112.191c5.673-13.515 19.528-21.719 34.106-20.196l12.242 1.279c11.191 1.169 22.213-3.401 29.292-12.147l16.798-20.751z" fill="#f52c2c"/><path d="m407.877 456.047c6.6 5.007 6.539 16.2-.137 25s-17.438 11.875-24.038 6.868-6.539-16.2.137-25 17.438-11.874 24.038-6.868zm4.334-284.718c-9.101 20.641-20.881 73.987-29.358 102.825-2.779 9.455-12.74 14.821-22.175 11.974-8.417-2.541-17.443 1.447-21.191 9.4-15.145 32.136-33.403 80.282-58.407 103.736-6.922 6.492-16.457 8.414-25.043 6.118-3.639-.973-6.881-3.064-9.476-5.794-2.896-3.048-5.585-5.877-8.031-8.41l22.653-49.223c4.78-10.386 14.373-17.954 25.692-19.56 11.586-1.644 21.453-9.258 25.982-20.046l47.091-112.191c5.673-13.515 19.528-21.719 34.106-20.196l12.242 1.279c1.984.206 3.962.233 5.915.088z" fill="#fc5426"/></g></svg>