<svg id="Capa_1" enable-background="new 0 0 501 501" height="512" viewBox="0 0 501 501" width="512" xmlns="http://www.w3.org/2000/svg"><g><path d="m0 256c0-135.133 109.404-244.714 244.471-244.999 133.407-.282 241.976 105.109 245.444 238.471 1.636 62.905-20.446 120.626-57.945 164.863-.093.11-.186.22-.28.329-14.752 17.34-40.012 21.114-59.457 9.274-37.085-22.58-80.64-35.586-127.233-35.586-58.046 0-111.378 20.187-153.357 53.922-1.737 1.396-4.206 1.36-5.899-.09-52.484-44.935-85.744-111.675-85.744-186.184z" fill="#012d4e"/><path d="m245 11c113.827 0 209.523 77.625 237.041 182.825-27.518 105.2-123.214 182.824-237.041 182.824s-209.523-77.624-237.041-182.824c27.518-105.2 123.214-182.825 237.041-182.825z" fill="#463b83"/><path d="m499.952 268.815c-2.671 2.355-10.708-3.224-19.029-.054-7.869 2.998-8.577 9.911-12.227 9.75-5.521-.245-19.697-57.719-44.385-38.429-11.959 9.345-8.314 26.224-26.133 34.399.683 3.472.482 7.163-.766 10.738-.91 2.607-3.761 3.983-6.368 3.072-2.608-.91-3.983-3.761-3.073-6.369.457-1.309.641-2.648.582-3.956-6.007 1.629-11.751 1.939-17.903.073-16.327-4.951-36.951-23.004-53.252-40.719 5.177-5.526 10.833-10.72 16.959-15.518 29.068 28.329 48.158 22.811 52.974 15.854 9.441-13.638 18.96-29.515 37.813-35.877 8.197-2.766 15.401-3.619 22.751-1.873.945-1.033 1.991-1.965 3.119-2.784 4.271-3.1 9.721-4.574 15.332-3.682 2.727.433 4.587 2.995 4.153 5.722-.433 2.728-2.995 4.587-5.723 4.153-2.195-.348-4.342.007-6.211.897 4.198 2.366 8.598 5.59 13.381 9.783 25.52 22.375 31.886 51.399 28.006 54.82zm-384.622-12.825c-19.173-7.911-28.605 7.268-43.991 5.38-31.098-3.816-.48-54.481-4.212-58.558-2.467-2.695-7.855 1.693-15.54-1.751-8.126-3.643-9.863-13.271-13.417-13.494-5.163-.325-21.184 24.7-18.96 58.563.013.198.027.395.04.591-3.47-.45-7.1-.022-10.555 1.42-2.549 1.064-3.752 3.993-2.688 6.541s3.993 3.75 6.54 2.688c2.659-1.11 5.519-1.052 8.006-.063.154.822.319 1.623.496 2.403-3.179 1.054-6.144 2.898-8.579 5.519-1.88 2.024-1.764 5.188.26 7.066 2.023 1.879 5.187 1.762 7.066-.259 1.245-1.34 2.758-2.286 4.381-2.83 3.945 8.592 10.261 14.085 19.49 18.657 17.829 8.833 35.787 4.337 52.106 1.369 8.324-1.514 25.724 8.083 26.247 48.669 7.724.939 15.396 1.267 22.964 1.019 1-24.052-.818-51.402-8.862-66.448-4.413-8.257-11.481-12.639-20.792-16.482z" fill="#968dca"/><path d="m405 360v81.545c-42.926 37.05-98.847 59.455-160 59.455-61.154 0-117.074-22.406-160-59.455v-81.545c0-38.66 31.34-70 70-70h180c38.66 0 70 31.34 70 70z" fill="#81ade2"/><path d="m402.669 340.423c1.667-.229 3.389-.256 5.136-.057 2.743.312 4.715 2.79 4.402 5.533-.313 2.745-2.789 4.715-5.534 4.403-.794-.09-1.578-.09-2.341-.007.44 3.172.667 6.412.667 9.705v81.545c-42.925 37.05-98.846 59.455-159.999 59.455-47.757 0-92.322-13.665-130-37.296v-103.704c0-38.66 31.34-70 70-70h150c27.379 0 51.086 15.718 62.591 38.624 2.788-3.214 6.588-5.597 11.049-6.595 2.695-.603 5.368 1.094 5.97 3.788.603 2.696-1.093 5.368-3.789 5.971-4.342.971-7.467 4.492-8.152 8.635z" fill="#b0dde9"/><path d="m388.333 163.334v13.333c0 18.41-14.924 33.333-33.333 33.333-.621 0-1.238-.018-1.85-.051-18.511 41.289-59.971 70.051-108.15 70.051-65.424 0-102.528-53.037-102.528-118.461v-43.077c0-65.425 37.103-118.462 102.528-118.462 65.425 0 118.462 53.037 118.462 118.461v12.623c14.311 3.745 24.871 16.764 24.871 32.25z" fill="#b0dde9"/><path d="m264.231 278.446c-6.259 1.022-12.683 1.554-19.231 1.554-48.271 0-89.799-28.873-108.257-70.29-1.443.19-2.915.29-4.41.29-18.409 0-33.333-14.924-33.333-33.333v-13.333c0-16.433 11.891-30.088 27.538-32.831v-12.041c0-65.425 53.037-118.462 118.462-118.462 6.548 0 12.972.532 19.231 1.554-56.279 9.187-99.231 58.031-99.231 116.907v38.208c.437 2.153.667 4.382.667 6.665v10.842c5.632 53.114 46.366 95.749 98.564 104.27z" fill="#81ade2"/><path d="m132.331 210c-18.409-.001-33.331-14.925-33.331-33.333v-13.333c0-18.409 14.923-33.332 33.331-33.333-8.095 6.081-13.331 15.761-13.331 26.666v26.667c0 10.904 5.236 20.584 13.331 26.666z" fill="#5592ca"/><path d="m355 120v40c0 60.751-49.249 110-110 110-60.751 0-110-49.249-110-110v-40c0-60.751 49.249-110 110-110 60.751 0 110 49.249 110 110z" fill="#c68978"/><path d="m355 120v40c0 55.663-41.345 101.669-95 108.985-53.655-7.316-95-53.322-95-108.985v-40c0-55.663 41.345-101.669 95-108.985 53.655 7.316 95 53.322 95 108.985z" fill="#e1a595"/><path d="m229 130c0 16.569-10.447 30-23.333 30s-23.333-13.431-23.333-30 10.447-30 23.333-30 23.333 13.431 23.333 30zm101.667-60c-6.444 0-11.667 6.716-11.667 15s5.223 15 11.667 15 11.667-6.716 11.667-15-5.224-15-11.667-15zm-3.889 40c-4.296 0-7.778 4.477-7.778 10s3.482 10 7.778 10 7.778-4.477 7.778-10-3.483-10-7.778-10zm-26.272-30c-2.625 0-4.753 2.736-4.753 6.111s2.128 6.111 4.753 6.111 4.753-2.736 4.753-6.111-2.128-6.111-4.753-6.111zm-14.839 20c-12.887 0-23.333 13.431-23.333 30s10.447 30 23.333 30 23.333-13.431 23.333-30-10.447-30-23.333-30z" fill="#c68978"/><path d="m212.5 127.5c0 8.284-6.716 15-15 15s-15-6.716-15-15c0-8.284 6.716-15 15-15s15 6.716 15 15zm80-15c-8.284 0-15 6.716-15 15 0 8.284 6.716 15 15 15s15-6.716 15-15c0-8.284-6.716-15-15-15z" fill="#533022"/><path d="m207.5 112.5c4.142 0 7.5 3.358 7.5 7.5s-3.358 7.5-7.5 7.5-7.5-3.358-7.5-7.5 3.358-7.5 7.5-7.5zm87.5 7.5c0 4.142 3.358 7.5 7.5 7.5s7.5-3.358 7.5-7.5-3.358-7.5-7.5-7.5-7.5 3.358-7.5 7.5z" fill="#fff5f5"/><path d="m230.163 105.867c-.479 2.72-3.073 4.536-5.792 4.056l-30.176-5.321c-2.719-.479-4.535-3.073-4.056-5.792s3.073-4.535 5.792-4.056l30.176 5.321c2.72.48 4.536 3.073 4.056 5.792zm69.698-7.057c-.479-2.719-3.073-4.535-5.792-4.056l-30.176 5.321c-2.719.479-4.535 3.073-4.056 5.792.479 2.72 3.073 4.536 5.792 4.056l30.176-5.321c2.719-.479 4.535-3.073 4.056-5.792z" fill="#533022"/><path d="m245 0c59.555 0 108.846 43.948 117.21 101.182-20.982-18.449-65.581-31.182-117.21-31.182-38.694 0-73.439 7.152-97.254 18.502-7.96 3.794 37.699-88.502 97.254-88.502zm0 180c-41.271 0-78.051-8.137-101.865-20.826-6.582-3.507 36.44 120.826 101.865 120.826 65.425 0 118.462-53.037 118.462-118.461v-13.854c-20.422 19.058-65.783 32.315-118.462 32.315z" fill="#b0dde9"/><g fill="#81ade2"><path d="m275 276.168v13.832c0 16.568-13.431 30-30 30s-30-13.432-30-30v-13.832c-50.898-13.284-88.462-59.57-88.462-114.629v-13.854c8.76 8.175 22.11 15.283 38.658 20.735 2.977 51.977 39.465 94.977 88.189 107.728 7.077 1.852 14.539 1.879 21.615.02zm-147.661-204.027c-1.88 2.024-1.764 5.188.26 7.066 1.463 1.358 3.521 1.673 5.259.98-2.301 6.745-4.012 13.764-5.068 20.994 9.899-8.704 26.317-16.497 44.987-21.919 14.046-40.493 48.179-70.644 91.455-77.708-6.26-1.023-12.684-1.554-19.232-1.554-45.079 0-84.276 25.179-104.296 62.241-.297-.439-.611-.866-.941-1.281-3.285-4.128-8.143-7.008-13.787-7.651-2.744-.312-5.222 1.659-5.534 4.402-.312 2.744 1.66 5.22 4.402 5.534 3.296.375 6.069 2.231 7.732 4.827-1.907 1.036-3.68 2.394-5.237 4.069z"/><path d="m358.121 293.909c4.491 1.571 8.773 3.586 12.793 5.995-93.581 37.43-111.77 56.743-283.113 40.428.978-3.346 2.198-6.588 3.642-9.706 168.81 14.881 172.154-3.641 266.678-36.717zm46.879 109.902c-82.074 26.235-217.587 40.201-292.858 33.565-1.443 3.118-2.664 6.36-3.642 9.706 75.903 7.227 210.056-6.582 296.5-32.962zm-318.302-59.206c-.737 3.284-1.243 6.655-1.501 10.096 88.359 31.912 227.945 42.944 319.802 25.192v-10.189c-90.936 18.131-230.939 7.057-318.301-25.099zm156.092-312.206c-33.302 4.882-66.295 11.866-96.531 20.593-2.675 4.026-5.11 8.226-7.286 12.578 57.718-17.837 127.256-29.072 189.727-30.938-3.401-3.396-7.008-6.586-10.8-9.55-24.505 1.13-49.896 3.621-75.11 7.317zm96.997 200.203c-48.261 15.033-103.965 25.624-156.573 30.027 5.256 3.219 10.782 6.041 16.537 8.421 43.016-4.543 87.355-12.965 127.611-24.368 4.5-4.354 8.657-9.063 12.425-14.08zm45.253-83.732c-58.44 40.177-147.192 76.327-226.185 93.982 2.728 2.889 5.6 5.642 8.604 8.245 77.381-18.178 162.806-53.2 220.584-92.178-.471-3.558-1.502-6.938-3.003-10.049z"/><path d="m155 367.5v116.441c-5.086-2.01-10.088-4.185-15-6.518v-109.923c0-4.142 3.358-7.5 7.5-7.5s7.5 3.358 7.5 7.5zm187.5-7.5c-4.142 0-7.5 3.358-7.5 7.5v116.441c5.085-2.01 10.088-4.185 15-6.518v-109.923c0-4.142-3.358-7.5-7.5-7.5z"/></g><path d="m431.97 406.606v7.728c-22.319 26.329-50.099 47.881-81.591 62.908-3.616-6.356-5.682-13.709-5.682-21.545v-32.727c0-6.025 4.884-10.909 10.909-10.909s10.909 4.884 10.909 10.909v16.364c0 3.012 2.442 5.455 5.455 5.455 3.012 0 5.454-2.442 5.454-5.455v-32.728c0-15.062 12.21-27.272 27.273-27.272 15.062-.001 27.273 12.21 27.273 27.272zm-287.879-2.849c-6.025 0-10.909 4.884-10.909 10.909v16.364c0 3.012-2.442 5.455-5.455 5.455-3.012 0-5.455-2.442-5.455-5.455v-32.728c0-15.062-12.21-27.272-27.273-27.272-15.062 0-27.273 12.21-27.273 27.272v49.091c0 24.1 19.537 43.636 43.636 43.636 24.1 0 43.636-19.537 43.636-43.636v-32.728c.002-6.023-4.882-10.908-10.907-10.908z" fill="#e1ebf0"/><path d="m105.988 490.702c-21.563-2.65-38.26-21.028-38.26-43.308v-49.091c0-15.062 12.21-27.273 27.273-27.273.45 0 .897.011 1.342.033-4.23 5.678-6.796 13.129-6.796 21.289v58.017c-.002 16.328 6.42 30.884 16.441 40.333zm249.618-78.641c-6.025 0-10.909 4.884-10.909 10.909v32.728c0 7.835 2.066 15.188 5.682 21.545 6.044-2.884 11.951-6.008 17.709-9.36-1.122-3.867-1.724-7.956-1.724-12.185l.261-32.239c0-.436.375-11.398-11.019-11.398z" fill="#b3d1e1"/><path d="m245 250c-12.841 0-23.25-10.409-23.25-23.25v-3.5c0-12.841 10.409-23.25 23.25-23.25 12.841 0 23.25 10.409 23.25 23.25v3.5c0 12.841-10.409 23.25-23.25 23.25z" fill="#c68978"/><path d="m268.25 223.25v3.5c0 10.261-6.647 18.969-15.87 22.054-9.223-3.085-15.87-11.793-15.87-22.054v-3.5c0-10.261 6.647-18.969 15.87-22.054 9.223 3.085 15.87 11.793 15.87 22.054z" fill="#e1a595"/><path d="m244.927 240c-8.284-.04-14.967-6.789-14.927-15.073.04-8.284 6.789-14.967 15.073-14.927 8.284.04 14.967 6.789 14.927 15.073-.041 8.284-6.789 14.967-15.073 14.927z" fill="#533022"/></g></svg>