<svg id="Capa_1" enable-background="new 0 0 501 501" height="512" viewBox="0 0 501 501" width="512" xmlns="http://www.w3.org/2000/svg"><g><path d="m495.5 245c0 135.31-109.69 245-245 245s-245-109.69-245-245 109.69-245 245-245 245 109.69 245 245z" fill="#f5c02c"/><path d="m464.5 322.573c-47.056 48.514-117.175 100.395-162.932 102.98-2.256.127-4.328-1.324-4.98-3.487-12.012-39.87 7.338-112.558 33.099-171.126-5.698-4.815-11.408-9.743-17.121-14.778-53.404 35.92-122.47 68.203-164.184 63.253-2.243-.266-4.031-2.054-4.297-4.297-4.95-41.714 27.333-110.78 63.253-164.184-5.035-5.713-9.963-11.423-14.778-17.121-56.65 24.917-126.51 43.836-167.104 34.179 25.104-58.161 72.095-104.661 130.594-129.123 23.713 31.532 49.514 71.81 53.711 87-.993.482-1.993.962-2.998 1.441 3.099 3.638 6.237 7.272 9.412 10.9.344-.479.688-.956 1.031-1.432 22.197 10.561 95.386 83.493 108.706 107.936.487.893.218 2.008-.608 2.601l-.014.01c3.628 3.175 7.262 6.313 10.9 9.412.227-.476.454-.951.682-1.425.441-.918 1.493-1.374 2.458-1.049 26.387 8.876 110.916 68.285 125.17 88.31z" fill="#f19b0b"/><path d="m488.912 301.672c-1.026 4.331-2.166 8.617-3.418 12.855-62.972 17.353-146.407 26.908-234.994 26.908s-172.022-9.555-234.994-26.908c-1.252-4.239-2.393-8.525-3.418-12.856 1.841-1.683 4.48-2.412 7.065-1.698 127.564 35.254 335.131 35.254 462.695 0 2.581-.714 5.222.015 7.064 1.699zm-40.745-201.451c-3.324-4.531-6.8-8.943-10.42-13.229-112.02 21.625-262.473 21.625-374.493 0-3.62 4.286-7.096 8.698-10.42 13.229 56.992 11.693 125.626 18.012 197.667 18.012s140.674-6.319 197.666-18.012z" fill="#d54d00"/><path d="m484.837 173.285c-6.865 35.874-17.954 67.612-33.786 85.339-1.505 1.685-3.997 2.124-5.986 1.056-40.035-21.497-81.297-97.041-103.58-160.566-.332-.948.084-1.997.983-2.444 13.706-6.817 50.727-15.267 85.285-20.805 26.005 27.246 45.792 60.478 57.084 97.42z" fill="#fc5426"/><path d="m475.335 211.283c-6.321 19.656-14.373 36.243-24.284 47.341-1.505 1.685-3.997 2.124-5.986 1.056-40.035-21.497-81.297-97.041-103.58-160.566-.332-.948.084-1.997.983-2.444 9.062-4.507 28.316-9.728 50.311-14.349-1.542 11.174-1.854 23.13-.733 35.475 5.091 56.085 37.802 98.955 73.062 95.755 3.523-.321 6.938-1.089 10.227-2.268z" fill="#f52c2c"/><path d="m159.516 99.114c-22.283 63.525-63.545 139.069-103.58 160.566-1.99 1.069-4.482.629-5.986-1.056-15.832-17.728-26.922-49.465-33.786-85.339 11.292-36.942 31.079-70.174 57.084-97.42 34.558 5.538 71.579 13.989 85.285 20.805.899.447 1.315 1.496.983 2.444z" fill="#fc7117"/><path d="m88.969 230.885c-10.821 12.794-21.973 22.857-33.033 28.795-1.99 1.069-4.482.629-5.986-1.056-15.832-17.728-26.922-49.465-33.786-85.339 8.004-26.188 20.278-50.511 36.01-72.16-2.485 10.871-3.84 22.605-3.84 34.843-.001 43.138 16.84 80.019 40.635 94.917z" fill="#fc5f00"/><path d="m126.895 173.311c-5.341 9.967-10.964 19.605-16.789 28.655-17.791 5.786-36.574 8.791-55.814 8.791-9.998 0-19.873-.812-29.549-2.403-2.124-6.89-4.042-14.131-5.76-21.625 36.051 8.097 74.38 3.625 107.912-13.418zm21.16-80.778c-7.606-2.539-17.436-5.168-28.397-7.696-20.842 9.301-43.281 13.926-65.712 13.879-4.705 6.311-9.113 12.857-13.204 19.617 4.486.332 9.005.5 13.549.5 33.598 0 65.801-9.161 93.764-26.3zm-120.151 49.973c-2.866 6.215-5.481 12.571-7.829 19.054 11.161 2.14 22.605 3.234 34.216 3.234 31.348 0 61.481-7.975 88.091-22.965 5.102-11.305 9.773-22.682 13.907-33.793-36.657 30.376-83.797 41.866-128.385 34.47zm298.367 179.097c-26.074-7.695-125.467-7.695-151.541 0-.963.284-1.555 1.245-1.392 2.236 10.913 66.429 38.43 147.991 74.124 176.113 1.774 1.398 4.304 1.398 6.079 0 35.694-28.122 63.211-109.684 74.124-176.113.161-.991-.431-1.952-1.394-2.236z" fill="#f52c2c"/><path d="m438.355 87.716-25.43 144.219c-5.603-6.536-11.121-13.812-16.494-21.636l23.475-133.134c2.622-.449 5.241-.883 7.846-1.3 3.66 3.834 7.196 7.786 10.603 11.851zm-60.565-2.047-12.435 70.522c4.799 9.845 9.899 19.522 15.23 28.802l18.326-103.931c-7.348 1.474-14.475 3.025-21.121 4.607zm76.996 24.035-24.619 139.624c4.959 4.196 9.937 7.689 14.897 10.352 1.101.591 2.354.72 3.51.434l21.758-123.398c-4.618-9.358-9.815-18.377-15.546-27.012zm-251.953 254.629c-9.573 0-17.333-7.76-17.333-17.333s7.76-17.333 17.333-17.333 17.333 7.76 17.333 17.333-7.76 17.333-17.333 17.333zm95.334-34.666c-9.573 0-17.333 7.76-17.333 17.333s7.76 17.333 17.333 17.333 17.333-7.76 17.333-17.333-7.76-17.333-17.333-17.333zm-47.667 34.666c9.573 0 17.333-7.76 17.333-17.333s-7.76-17.333-17.333-17.333-17.333 7.76-17.333 17.333 7.76 17.333 17.333 17.333zm0 69.334c-9.573 0-17.333 7.76-17.333 17.333s7.76 17.333 17.333 17.333 17.333-7.76 17.333-17.333-7.76-17.333-17.333-17.333zm23.833-52c-9.573 0-17.333 7.76-17.333 17.333s7.76 17.333 17.333 17.333 17.333-7.76 17.333-17.333-7.76-17.333-17.333-17.333zm-30.333 17.333c0-9.573-7.76-17.333-17.333-17.333s-17.333 7.76-17.333 17.333 7.76 17.333 17.333 17.333 17.333-7.76 17.333-17.333z" fill="#fc5f00"/><path d="m58.298 190.591c23.595-.586 47.083-6.346 68.597-17.28-5.341 9.967-10.964 19.605-16.789 28.655-13.385 4.353-27.332 7.132-41.613 8.241-3.887-5.825-7.317-12.414-10.195-19.616zm89.757-98.058c-7.606-2.539-17.436-5.168-28.397-7.696-20.842 9.301-43.281 13.926-65.712 13.879-.596.799-1.187 1.602-1.773 2.409-1.294 5.662-2.282 11.559-2.932 17.638 1.679.046 3.363.069 5.05.069 33.598.001 65.801-9.16 93.764-26.299zm-99.496 52.043c.365 6.951 1.169 13.703 2.367 20.188 1.121.021 2.243.031 3.367.031 31.348 0 61.481-7.975 88.091-22.965 5.102-11.305 9.773-22.682 13.907-33.793-31.035 25.715-69.582 37.894-107.732 36.539zm277.712 177.027c-15.755-4.65-58.281-6.49-95.225-5.521-3.454 12.525-5.37 26.365-5.37 40.918 0 53.792 26.188 97.855 59.39 101.696 20.103-37.598 35.183-89.72 42.598-134.857.162-.991-.43-1.952-1.393-2.236z" fill="#fc5426"/><path d="m247.679 433.895c.918-.15 1.861-.229 2.821-.229 9.573 0 17.333 7.76 17.333 17.333 0 .602-.031 1.196-.091 1.782-7.428-4.324-14.213-10.774-20.063-18.886zm-3.679-34.895c0-9.271-7.278-16.842-16.433-17.311 1.79 11.449 4.796 22.133 8.788 31.685 4.613-3.114 7.645-8.39 7.645-14.374zm6.5-34.667c9.573 0 17.333-7.76 17.333-17.333s-7.76-17.333-17.333-17.333-17.333 7.76-17.333 17.333 7.76 17.333 17.333 17.333zm47.667-34.666c-9.573 0-17.333 7.76-17.333 17.333s7.76 17.333 17.333 17.333 17.333-7.76 17.333-17.333-7.76-17.333-17.333-17.333zm-23.834 52c-9.573 0-17.333 7.76-17.333 17.333s7.76 17.333 17.333 17.333 17.333-7.76 17.333-17.333-7.76-17.333-17.333-17.333zm182.467-168.206 13.532-76.746c-4.618-9.357-9.815-18.376-15.546-27.011l-17.113 97.055c6.097 3.655 12.53 5.964 19.127 6.702zm-64.022-131.14c-1.542 11.174-1.854 23.13-.733 35.475.043.478.089.955.136 1.431l6.729-38.165c-2.063.414-4.109.834-6.132 1.259zm27.294 109.086 18.283-103.691c-3.407-4.065-6.943-8.017-10.603-11.851-2.605.417-5.224.851-7.846 1.3l-15.628 88.633c4.399 9.793 9.752 18.446 15.794 25.609z" fill="#fc7117"/><path d="m247.461 276.75c-35.694-28.122-63.211-109.684-74.124-176.113-.163-.991.429-1.952 1.393-2.236 26.074-7.695 125.467-7.695 151.541 0 .963.284 1.555 1.245 1.393 2.236-10.913 66.429-38.43 147.991-74.124 176.113-1.775 1.398-4.305 1.398-6.079 0zm-88.928 42.122c-24.107-11.989-120.34-29.032-148.436-26.397 11.598 59.064 44.42 110.519 90.196 146.093 23.875-32.983 45.27-77.473 59.223-117.251.332-.949-.084-1.997-.983-2.445zm289.53 161.954c30.269-33.893 43.204-118.994 42.416-186.309-.012-1.004-.762-1.848-1.76-1.96-27.014-3.051-124.897 14.209-149.239 26.315-.899.447-1.315 1.496-.983 2.444 22.282 63.525 63.544 139.069 103.579 160.566 1.991 1.069 4.483.629 5.987-1.056z" fill="#012d4e"/><path d="m314.567 114.885-16.165-20.575c-3.273-.261-6.703-.492-10.252-.692l-16.398 20.871-17.166-21.849c-2.722-.014-5.45-.014-8.172 0l-17.166 21.849-16.398-20.871c-3.55.2-6.979.431-10.252.692l-16.165 20.575c-.583.742-.568 1.79.035 2.515l18.305 22.004-17.604 22.406c.642 2.226 1.298 4.447 1.969 6.66l15.635 18.795-6.531 8.313c4.785 12.875 10.057 25.117 15.753 36.212l15.254-18.336 18.893 22.711-17.701 22.53c5.424 7.276 11.111 13.399 17.021 18.056 1.791 1.411 4.287 1.411 6.078 0 5.911-4.657 11.597-10.779 17.021-18.056l-17.701-22.53 18.893-22.711 15.254 18.336c5.696-11.095 10.968-23.337 15.753-36.212l-6.531-8.313 15.635-18.795c.671-2.213 1.327-4.434 1.969-6.66l-17.604-22.406 18.305-22.004c.601-.726.616-1.774.033-2.515zm-85.319 95.326-18.029-22.947 18.029-21.672 18.029 21.672zm0-47.861-18.029-22.947 18.029-21.672 18.029 21.672zm42.504 47.861-18.029-22.947 18.029-21.672 18.029 21.672zm0-47.861-18.029-22.947 18.029-21.672 18.029 21.672zm-139.954 147.654c-3.178-.825-6.515-1.648-9.976-2.462l-19.773 17.707-13.111-24.498c-2.678-.487-5.365-.96-8.048-1.419l-20.7 18.536-12.525-23.401c-3.53-.419-6.948-.787-10.217-1.099l-19.492 17.455c-.703.629-.87 1.664-.402 2.483l14.206 24.848-5.744 5.144c4.872 11.111 10.545 21.791 16.946 31.968l8.353-7.07 13.992 24.474-6.081 5.445c7.387 9.216 15.426 17.886 24.047 25.941l1.59-1.345 3.323 5.813c3.925 3.474 7.962 6.824 12.105 10.044 6.271-8.663 12.371-18.12 18.21-28.078l-4.988-9.321 18.661-15.794c1.045-2.063 2.077-4.136 3.095-6.217l-13.446-25.123 21.848-18.491c.72-.609.916-1.639.471-2.47zm-79.919 54.998-13.771-25.729 21.519-18.212 13.992 24.474zm33.548 54.515-13.77-25.729 21.518-18.212 13.992 24.474zm8.311-47.134-13.77-25.729 21.518-18.212 13.992 24.474zm391.465 3.013c-1.61 11.192-3.597 22.173-5.976 32.669-14.739 11.522-31.362 20.77-49.442 27.35-9.395 3.42-18.952 6.034-28.589 7.848-4.352-5.748-8.632-11.897-12.809-18.351 36.647-4.719 71.135-22.032 96.816-49.516zm-7.744-83.143c-8.016.216-18.152 1.107-29.316 2.481-27.818 26.908-64.546 42.757-102.833 44.868 2.557 6.491 5.284 13.04 8.16 19.58 15.146-1.431 30.208-4.808 44.875-10.146 31.572-11.491 58.699-31.113 79.114-56.783zm-113.032 90.315c3.25 6.517 6.628 12.945 10.114 19.217 13.34-1.667 26.585-4.85 39.524-9.56 29.458-10.722 55.046-28.522 74.924-51.708.928-12.368 1.426-24.656 1.511-36.512-27.135 46.336-75.017 74.655-126.073 78.563z" fill="#54469b"/><path d="m220.429 137.296c-1.416-15.599-.546-30.577 2.206-44.142 38.655-1.51 86.668.239 103.635 5.247.963.284 1.555 1.245 1.393 2.236-7.257 44.176-21.857 95.043-41.322 132.437-32.43-2.715-61.167-43.508-65.912-95.778zm-61.896 181.576c-14.233-7.079-53.608-15.919-89.258-21.431-.181 3.126-.274 6.293-.274 9.494 0 49.483 22.16 90.734 51.555 100.014 15.534-27.085 29.104-57.535 38.96-85.634.332-.947-.084-1.995-.983-2.443zm330.187-26.315c-15.209-1.718-52.879 3.002-87.244 9.616-2.63 11.146-4.069 23.219-4.069 35.827 0 56.315 28.701 101.968 64.106 101.968 3.053 0 6.057-.34 8.997-.996 14.286-40.939 20.524-97.098 19.969-144.454-.012-1.005-.761-1.848-1.759-1.961z" fill="#463b83"/><path d="m131.798 310.004c-3.178-.825-6.515-1.648-9.976-2.462l-19.773 17.707-13.111-24.498c-2.678-.487-5.365-.96-8.048-1.419l-11.862 10.622c.5 27.324 7.757 51.952 19.206 69.803l4.941-4.182 13.992 24.474-.101.09c2.746 1.944 5.594 3.59 8.527 4.912l-2.078-3.882 18.661-15.794c1.045-2.063 2.077-4.136 3.095-6.217l-13.446-25.123 21.848-18.491c.72-.609.916-1.639.471-2.47zm-38.06 62.379-13.77-25.729 21.518-18.212 13.992 24.474zm391.465 3.013c-1.61 11.192-3.597 22.173-5.976 32.669-12.661 9.897-26.711 18.116-41.88 24.408-5.906-3.826-11.373-9.013-16.246-15.315 24.134-8.461 46.247-22.653 64.102-41.762zm5.297-71.391c-.085 11.855-.583 24.144-1.511 36.512-19.878 23.187-45.466 40.987-74.924 51.708-1.996.727-4 1.417-6.01 2.071-2.487-5.963-4.59-12.367-6.254-19.121 36.298-11.779 68.339-36.403 88.699-71.17zm-92.154 45.031c-.184.067-.369.134-.553.2-.254-3.69-.385-7.438-.385-11.236 0-3.476.109-6.911.323-10.297 18.566-7.646 35.731-18.767 50.413-32.969 11.164-1.374 21.301-2.265 29.316-2.481-20.416 25.67-47.543 45.292-79.114 56.783zm-99.944-254.726c-3.273-.261-6.703-.492-10.252-.692l-16.398 20.871-17.166-21.849c-2.722-.014-5.45-.014-8.172 0l-17.166 21.849-8.353-10.631c-.993 8.037-1.354 16.46-1.009 25.126l9.362-11.253 18.029 21.672-18.029 22.947-6.382-8.123c1.001 5.038 2.229 9.927 3.661 14.636l2.721-3.271 18.029 21.672-8.187 10.42c6.711 11.244 14.816 20.326 23.74 26.494l8.922-10.724 15.254 18.336c5.696-11.095 10.968-23.337 15.753-36.212l-6.531-8.313 15.635-18.795c.671-2.213 1.327-4.434 1.969-6.66l-17.604-22.406 18.305-22.004c.603-.725.618-1.773.035-2.515zm-26.65 115.901-18.029-22.947 18.029-21.672 18.029 21.672zm0-47.861-18.029-22.947 18.029-21.672 18.029 21.672z" fill="#804ba1"/></g></svg>