<svg id="Capa_1" enable-background="new 0 0 501 501" height="512" viewBox="0 0 501 501" width="512" xmlns="http://www.w3.org/2000/svg"><g><path d="m501 250.5c0 135.31-109.69 245-245 245s-245-109.69-245-245 109.69-245 245-245 245 109.69 245 245z" fill="#aba4d5"/><path d="m457.478 219.112-4.562 8.341c-.759 1.387-2.751 1.387-3.509 0l-4.562-8.341c-.184-.336-.459-.611-.795-.795l-8.341-4.562c-1.387-.759-1.387-2.751 0-3.509l8.341-4.562c.336-.184.612-.459.795-.795l4.562-8.341c.759-1.387 2.751-1.387 3.509 0l4.562 8.341c.184.336.459.611.795.795l8.341 4.562c1.387.759 1.387 2.751 0 3.509l-8.341 4.562c-.336.183-.612.459-.795.795zm-86.859-134.788 8.341-4.562c1.387-.759 1.387-2.751 0-3.509l-8.341-4.562c-.336-.184-.612-.459-.795-.795l-4.562-8.341c-.759-1.387-2.751-1.387-3.509 0l-4.562 8.341c-.184.336-.459.611-.795.795l-8.341 4.562c-1.387.759-1.387 2.751 0 3.509l8.341 4.562c.336.184.612.459.795.795l4.562 8.341c.759 1.387 2.751 1.387 3.509 0l4.562-8.341c.183-.336.459-.612.795-.795z" fill="#8279c0"/><path d="m220.212 5.801c-3.725.399-7.568 3.928-9.611 8.824-11.847 28.398-16.303 63.599-12.149 97.858.705 5.819 5.298 8.075 10.142 5.164 12.015-7.221 24.365-16.489 36.624-27.744s23.455-23.607 33.348-36.501c3.988-5.197 4.976-12.578 2.081-16.386-17.049-22.419-38.831-33.531-60.435-31.215z" fill="#fc5426"/><path d="m280.647 37.016c2.272 2.987 2.152 8.174.07 12.781-.038.035-.076.071-.115.106-12.259 11.255-24.609 20.523-36.624 27.744-4.843 2.911-9.437.655-10.142-5.164-2.703-22.293-1.76-44.985 2.493-65.943 16.055 3.189 31.52 13.647 44.318 30.476z" fill="#fd7d43"/><path d="m116.176 46.133c-2.887 3.813-1.883 11.192 2.116 16.381 9.921 12.873 21.144 25.2 33.427 36.429s24.653 20.47 36.684 27.666c4.85 2.9 9.438.634 10.131-5.186 4.08-34.267-.451-69.459-12.359-97.832-2.053-4.892-5.904-8.412-9.63-8.804-21.61-2.267-43.367 8.891-60.369 31.346z" fill="#c92e43"/><path d="m230 134.5h-60.497c-9.466 3.875-19.705 7.353-30.643 10.345-17.425 4.767-35.245 7.925-52.811 9.571-7.08.664-14.436-2.691-16.263-7.551-10.759-28.619-8.393-55.057 6.213-73.577 2.518-3.193 7.982-4.688 13.662-3.737 25.447 4.258 52.079 14.913 76.289 30.421 6.287-9.333 16.951-15.472 29.05-15.472 19.33 0 35 15.67 35 35z" fill="#ab2538"/><path d="m173.882 76.61c-12.031-7.195-24.401-16.437-36.684-27.666-4.396-4.019-8.655-8.179-12.768-12.454 15.508-15.956 33.864-23.618 52.114-21.701 2.531.266 5.12 1.977 7.164 4.58 2.227 16.909 2.382 34.602.304 52.055-.692 5.82-5.28 8.086-10.13 5.186zm139.441 70.255c-1.827 4.861-9.182 8.215-16.263 7.551-17.566-1.646-35.385-4.804-52.811-9.571-10.938-2.993-21.177-6.47-30.643-10.345h-33.606v-15c0-15.855 10.543-29.248 25-33.551 6.665 1.984 12.498 5.899 16.849 11.097 22.933-13.924 47.785-23.512 71.599-27.496 5.68-.95 11.143.544 13.662 3.737 14.606 18.521 16.972 44.959 6.213 73.578z" fill="#f52c2c"/><path d="m391 134.5v40c0 5.523-4.477 10-10 10h-1v277.348c-36.373 21.386-78.754 33.652-124 33.652-135.31 0-245-109.69-245-245v-66h-1c-5.523 0-10-4.477-10-10v-40c0-5.523 4.477-10 10-10h371c5.523 0 10 4.477 10 10z" fill="#f57e00"/><path d="m65 204.5h315v257.348c-36.373 21.386-78.754 33.652-124 33.652-86.416 0-162.383-44.741-206-112.322v-163.678c0-8.284 6.716-15 15-15zm326-30v-40c0-5.523-4.477-10-10-10h-341c-5.523 0-10 4.477-10 10v40c0 5.523 4.477 10 10 10h341c5.523 0 10-4.477 10-10z" fill="#fd9d01"/><path d="m211.233 237.107c-1.198 0-2.379.093-3.537.274v-15.838l10.17 3.811-3.095 12.027c-1.16-.181-2.34-.274-3.538-.274zm102.947.274 3.095-12.027-10.17-3.811v15.838c1.159-.181 2.339-.274 3.537-.274s2.379.093 3.538.274zm-88.01 68.252c-4.335 3.375-9.454 5.324-14.938 5.324s-10.602-1.95-14.938-5.324c-1.064.178-2.151.271-3.254.271-13.396 0-24.256-13.575-24.256-30.32s10.86-30.32 24.256-30.32c1.104 0 2.19.093 3.254.271 4.335-3.375 9.454-5.324 14.938-5.324s10.602 1.95 14.938 5.324c1.064-.178 2.151-.271 3.254-.271 13.396 0 24.256 13.574 24.256 30.32s-10.86 30.32-24.256 30.32c-1.103 0-2.189-.093-3.254-.271zm-12.589-32.44c6.138 3.854 12.798 4.354 16.419.732 3.621-3.621 3.122-10.281-.732-16.419zm-21.116.732c3.621 3.621 10.281 3.122 16.419-.732l-15.687-15.687c-3.854 6.138-4.353 12.798-.732 16.419zm18.768 22.883c9.241 0 17.102-5.906 20.016-14.149h-12.941v7.074h-7.075v-7.074h-20.016c2.913 8.243 10.775 14.149 20.016 14.149zm-92.244-157.974c0-5.185 1.042-10.066 2.877-14.334h19.621c-1.974 4.954-1.709 9.784 1.182 12.675 3.621 3.621 10.281 3.122 16.419-.732l-11.942-11.943h28.583l-11.943 11.943c6.138 3.854 12.798 4.354 16.419.732 2.892-2.892 3.156-7.721 1.182-12.675h19.621c1.835 4.268 2.877 9.149 2.877 14.334 0 16.745-10.86 30.32-24.256 30.32-1.103 0-2.19-.093-3.254-.271-4.335 3.375-9.454 5.324-14.938 5.324s-10.602-1.95-14.938-5.324c-1.064.178-2.151.271-3.254.271-13.396 0-24.256-13.575-24.256-30.32zm22.432 7.074c2.914 8.243 10.775 14.149 20.016 14.149s17.102-5.906 20.016-14.149h-12.941v7.074h-7.075v-7.074zm115.889 195.021c1.159-.18 2.339-.274 3.537-.274s2.379.093 3.537.274l3.095-12.027-10.17-3.811v15.838zm-38.91-202.095c0-5.185 1.042-10.066 2.877-14.334h19.621c-1.974 4.954-1.709 9.784 1.182 12.675 3.621 3.621 10.281 3.122 16.419-.732l-11.943-11.943h28.583l-11.943 11.943c6.138 3.854 12.798 4.354 16.419.732 2.892-2.892 3.156-7.721 1.182-12.675h19.621c1.835 4.268 2.877 9.149 2.877 14.334 0 16.745-10.86 30.32-24.256 30.32-1.104 0-2.19-.093-3.254-.271-4.335 3.375-9.454 5.324-14.938 5.324s-10.602-1.95-14.938-5.324c-1.064.178-2.151.271-3.254.271-13.396 0-24.255-13.575-24.255-30.32zm22.431 7.074c2.914 8.243 10.775 14.149 20.016 14.149s17.102-5.906 20.016-14.149h-12.941v7.074h-7.075v-7.074zm-33.136 297.973c1.159-.18 2.339-.273 3.537-.273s2.378.093 3.537.273l3.095-12.027-10.17-3.811v15.838zm45.985 38.203c0 4.799-.892 9.337-2.48 13.37-7.558-.145-15.031-.633-22.407-1.448 1.014-1.491 1.844-3.118 2.455-4.848h-12.941v3.46c-2.37-.366-4.728-.766-7.075-1.199v-2.261h-10.855c-10.794-2.506-21.315-5.725-31.509-9.605 1.029-15.561 11.458-27.789 24.172-27.789 1.104 0 2.19.093 3.254.271 4.335-3.375 9.454-5.324 14.938-5.324s10.602 1.95 14.938 5.324c1.064-.178 2.151-.271 3.254-.271 13.396 0 24.256 13.575 24.256 30.32zm-44.796-2.391-15.687-15.687c-3.854 6.138-4.353 12.798-.732 16.419 3.621 3.622 10.282 3.123 16.419-.732zm20.384-15.687-15.687 15.687c6.138 3.854 12.798 4.354 16.419.732 3.621-3.621 3.122-10.281-.732-16.419zm-71.368-123.077c1.159-.18 2.339-.274 3.537-.274s2.378.093 3.537.274l3.095-12.027-10.17-3.811v15.838zm-27.886 110.835c-1.104 0-2.19.093-3.254.271-4.335-3.375-9.454-5.324-14.938-5.324-.808 0-1.607.042-2.398.125 13.557 10.137 28.198 18.903 43.719 26.092-3.104-12.27-12.285-21.164-23.129-21.164zm173.281-72.632c0 16.745-10.86 30.32-24.256 30.32-1.104 0-2.19-.093-3.254-.271-4.335 3.375-9.454 5.324-14.938 5.324s-10.602-1.949-14.938-5.324c-1.064.178-2.151.271-3.254.271-13.396 0-24.256-13.574-24.256-30.32s10.86-30.32 24.256-30.32c1.104 0 2.19.093 3.254.271 4.335-3.375 9.454-5.324 14.938-5.324s10.602 1.95 14.938 5.324c1.064-.178 2.151-.271 3.254-.271 13.396 0 24.256 13.575 24.256 30.32zm-61.215-1.659c3.621 3.621 10.281 3.122 16.419-.732l-15.687-15.687c-3.855 6.138-4.354 12.798-.732 16.419zm38.783 8.733h-12.941v7.075h-7.075v-7.075h-20.016c2.914 8.243 10.775 14.149 20.016 14.149s17.102-5.905 20.016-14.149zm-1.981-25.152-15.687 15.687c6.138 3.854 12.798 4.353 16.419.732 3.622-3.621 3.123-10.281-.732-16.419zm-102.507 48.126c-4.335 3.375-9.454 5.324-14.938 5.324s-10.602-1.949-14.938-5.324c-1.064.178-2.151.271-3.254.271-13.396 0-24.256-13.574-24.256-30.32s10.86-30.32 24.256-30.32c1.104 0 2.19.093 3.254.271 4.335-3.375 9.454-5.324 14.938-5.324s10.602 1.95 14.938 5.324c1.064-.178 2.151-.271 3.254-.271 13.396 0 24.256 13.575 24.256 30.32s-10.86 30.32-24.256 30.32c-1.104 0-2.19-.092-3.254-.271zm-12.59-32.439c6.138 3.854 12.798 4.353 16.419.732s3.122-10.281-.732-16.419zm-21.116.732c3.621 3.621 10.281 3.122 16.419-.732l-15.687-15.687c-3.854 6.138-4.353 12.798-.732 16.419zm18.768 22.882c9.241 0 17.102-5.906 20.016-14.149h-12.941v7.075h-7.075v-7.075h-20.016c2.914 8.244 10.775 14.149 20.016 14.149zm229.563-265.855v34.175c-1.401.315-2.844.479-4.317.479-1.104 0-2.19-.093-3.254-.271-4.335 3.375-9.454 5.324-14.938 5.324s-10.602-1.95-14.938-5.324c-1.064.178-2.151.271-3.254.271-13.396 0-24.256-13.575-24.256-30.32 0-5.185 1.042-10.066 2.877-14.334h19.621c-1.974 4.954-1.709 9.784 1.182 12.675 3.621 3.621 10.281 3.122 16.419-.732l-11.942-11.943h26.8c.561 0 1.111.047 1.647.136l-11.807 11.807c6.138 3.854 12.798 4.354 16.419.732 1.894-1.894 2.66-4.618 2.41-7.665.846 1.469 1.331 3.173 1.331 4.99zm-2.493 11.408h-12.941v7.074h-7.075v-7.074h-20.016c2.914 8.243 10.775 14.149 20.016 14.149s17.102-5.905 20.016-14.149zm-35.417 129.676c0 16.745-10.86 30.32-24.256 30.32-1.104 0-2.19-.093-3.254-.271-4.335 3.375-9.454 5.324-14.938 5.324s-10.602-1.95-14.938-5.324c-1.064.178-2.151.271-3.254.271-13.396 0-24.256-13.575-24.256-30.32s10.86-30.32 24.256-30.32c1.104 0 2.19.093 3.254.271 4.335-3.375 9.454-5.324 14.938-5.324s10.602 1.95 14.938 5.324c1.064-.178 2.151-.271 3.254-.271 13.397 0 24.256 13.575 24.256 30.32zm-61.215-1.659c3.621 3.621 10.281 3.122 16.419-.732l-15.687-15.687c-3.854 6.138-4.353 12.798-.732 16.419zm38.784 8.733h-12.941v7.074h-7.075v-7.074h-20.016c2.914 8.243 10.775 14.149 20.016 14.149s17.102-5.905 20.016-14.149zm-1.981-25.152-15.687 15.687c6.138 3.854 12.798 4.354 16.419.732 3.621-3.621 3.122-10.281-.732-16.419zm-213.318 186.375 3.095-12.027-10.17-3.811v15.838c1.159-.18 2.339-.273 3.537-.273s2.379.092 3.538.273zm38.91-168.297c0 16.745-10.86 30.32-24.256 30.32-1.104 0-2.19-.093-3.254-.271-4.335 3.375-9.454 5.324-14.938 5.324-5.483 0-10.602-1.95-14.938-5.324-1.064.178-2.151.271-3.254.271-13.396 0-24.256-13.575-24.256-30.32s10.86-30.32 24.256-30.32c1.104 0 2.19.093 3.254.271 4.335-3.375 9.454-5.324 14.938-5.324 5.483 0 10.602 1.95 14.938 5.324 1.064-.178 2.151-.271 3.254-.271 13.396 0 24.256 13.575 24.256 30.32zm-61.215-1.659c3.621 3.621 10.281 3.122 16.419-.732l-15.687-15.687c-3.854 6.138-4.353 12.798-.732 16.419zm38.784 8.733h-12.941v7.074h-7.075v-7.074h-20.016c2.914 8.243 10.775 14.149 20.016 14.149 9.24.001 17.102-5.905 20.016-14.149zm-1.981-25.152-15.687 15.687c6.138 3.854 12.798 4.354 16.419.732 3.621-3.621 3.122-10.281-.732-16.419zm-14.498-20.125 3.095-12.027-10.17-3.811v15.838c1.159-.181 2.339-.274 3.537-.274s2.379.093 3.538.274zm-56.87 103.548c1.159-.18 2.339-.274 3.537-.274s2.379.093 3.537.274l3.095-12.027-10.17-3.811v15.838zm-14.655-171.775c-13.396 0-24.256-13.575-24.256-30.32 0-5.185 1.042-10.066 2.877-14.334h19.621c-1.974 4.954-1.709 9.784 1.182 12.675 3.621 3.621 10.281 3.122 16.419-.732l-11.942-11.943h28.583l-11.943 11.943c6.138 3.854 12.798 4.354 16.419.732 2.892-2.892 3.156-7.721 1.182-12.675h19.621c1.835 4.268 2.877 9.149 2.877 14.334 0 16.745-10.86 30.32-24.256 30.32-1.104 0-2.19-.093-3.254-.271-4.335 3.375-9.454 5.324-14.938 5.324-5.483 0-10.602-1.95-14.938-5.324-1.064.178-2.15.271-3.254.271zm-1.824-23.246c2.914 8.243 10.775 14.149 20.016 14.149s17.102-5.906 20.016-14.149h-12.941v7.074h-7.075v-7.074zm62.463 233.224c0 16.745-10.86 30.32-24.256 30.32-1.104 0-2.19-.093-3.254-.271-1.565 1.218-3.232 2.251-4.982 3.073-3.396-3.86-6.672-7.828-9.823-11.898 9.183-.056 16.984-5.945 19.883-14.149h-12.94v7.075h-7.075v-7.075h-10.041c-1.416-2.125-2.8-4.273-4.151-6.444 3.488.611 7.78-.469 11.844-3.021l-15.687-15.687c-1.49 2.372-2.477 4.822-2.921 7.144-2.896-5.276-5.603-10.671-8.112-16.174 3.271-2.055 6.965-3.212 10.876-3.212 1.104 0 2.19.093 3.254.271 4.335-3.375 9.454-5.324 14.938-5.324 5.483 0 10.602 1.95 14.938 5.324 1.064-.178 2.151-.271 3.254-.271 13.396-.001 24.255 13.574 24.255 30.319zm-24.412-18.078-15.687 15.687c6.138 3.854 12.798 4.353 16.419.732 3.622-3.621 3.123-10.281-.732-16.419z" fill="#f57e00"/><path d="m168.573 124.5c17.139-.666 34.298-.684 51.439-.052l1.416.052v368.579c-18.35-2.592-36.046-7.217-52.854-13.639v-354.94z" fill="#fc5426"/><path d="m221.427 204.5h-52.854v-20h52.854z" fill="#f52c2c"/><path d="m238.437 494.88v-210.38c0-11.046 8.954-20 20-20h221.563c9.255 0 17.041 6.286 19.323 14.821-14.265 121.728-117.764 216.179-243.323 216.179-5.905 0-11.762-.209-17.563-.62z" fill="#463b83"/><path d="m454.616 284.503c-12.989.194-23.856 10.599-24.577 23.57-.47 8.462 3.271 16.074 9.319 20.931 1.667 1.339 2.641 3.357 2.641 5.496v.001c0 5.523 4.477 10 10 10h6c5.523 0 10-4.477 10-10 0-2.148.988-4.166 2.661-5.513 5.695-4.583 9.339-11.609 9.339-19.487.001-13.936-11.4-25.208-25.383-24.998zm-9.158 30.828c-4.141 0-7.499-3.357-7.499-7.499s3.357-7.499 7.499-7.499 7.499 3.357 7.499 7.499-3.357 7.499-7.499 7.499zm19.084 0c-4.142 0-7.499-3.357-7.499-7.499s3.357-7.499 7.499-7.499c4.141 0 7.499 3.357 7.499 7.499s-3.358 7.499-7.499 7.499zm-95.183 13.672c1.667 1.339 2.641 3.357 2.641 5.496v.001c0 5.523 4.477 10 10 10h6c5.523 0 10-4.477 10-10 0-2.148.988-4.166 2.661-5.513 5.695-4.583 9.339-11.609 9.339-19.487 0-13.935-11.401-25.207-25.383-24.997-12.989.194-23.856 10.599-24.577 23.57-.471 8.462 3.271 16.073 9.319 20.93zm25.183-28.67c4.141 0 7.499 3.357 7.499 7.499s-3.357 7.499-7.499 7.499-7.499-3.357-7.499-7.499 3.357-7.499 7.499-7.499zm-19.084 0c4.141 0 7.499 3.357 7.499 7.499s-3.357 7.499-7.499 7.499-7.499-3.357-7.499-7.499 3.358-7.499 7.499-7.499zm-85.418 7.74c-.47 8.462 3.271 16.074 9.319 20.931 1.667 1.339 2.641 3.357 2.641 5.496v.001c0 5.523 4.477 10 10 10h6c5.523 0 10-4.477 10-10 0-2.148.988-4.166 2.661-5.513 5.695-4.583 9.339-11.609 9.339-19.487 0-13.935-11.401-25.207-25.383-24.997-12.99.193-23.857 10.598-24.577 23.569zm34.502-7.74c4.141 0 7.499 3.357 7.499 7.499s-3.357 7.499-7.499 7.499-7.499-3.357-7.499-7.499 3.357-7.499 7.499-7.499zm-19.084 0c4.141 0 7.499 3.357 7.499 7.499s-3.357 7.499-7.499 7.499-7.499-3.357-7.499-7.499 3.358-7.499 7.499-7.499zm62.542 104.167c0-2.148.988-4.166 2.661-5.513 5.695-4.583 9.339-11.609 9.339-19.487 0-13.935-11.401-25.207-25.383-24.997-12.989.194-23.856 10.599-24.577 23.57-.47 8.462 3.271 16.074 9.319 20.931 1.667 1.339 2.641 3.357 2.641 5.496v.001c0 5.523 4.477 10 10 10h6c5.523-.001 10-4.478 10-10.001zm-22.542-19.169c-4.141 0-7.499-3.357-7.499-7.499s3.357-7.499 7.499-7.499 7.499 3.357 7.499 7.499-3.357 7.499-7.499 7.499zm11.585-7.499c0-4.142 3.357-7.499 7.499-7.499s7.499 3.357 7.499 7.499-3.357 7.499-7.499 7.499-7.499-3.357-7.499-7.499zm-42.426 46.671c-12.989.194-23.856 10.599-24.577 23.57-.47 8.462 3.271 16.074 9.319 20.931 1.667 1.339 2.641 3.357 2.641 5.496v.001c0 5.523 4.477 10 10 10h6c5.523 0 10-4.477 10-10 0-2.148.988-4.166 2.661-5.513 5.695-4.583 9.339-11.609 9.339-19.487 0-13.936-11.401-25.208-25.383-24.998zm-9.159 30.828c-4.141 0-7.499-3.357-7.499-7.499s3.357-7.499 7.499-7.499 7.499 3.357 7.499 7.499-3.357 7.499-7.499 7.499zm19.084 0c-4.141 0-7.499-3.357-7.499-7.499s3.357-7.499 7.499-7.499 7.499 3.357 7.499 7.499-3.358 7.499-7.499 7.499zm60.075-30.828c-12.989.194-23.856 10.599-24.577 23.57-.446 8.026 2.897 15.287 8.403 20.158 7.938-4.108 15.622-8.637 23.024-13.557-2.608-1.174-4.423-3.796-4.423-6.841 0-4.142 3.357-7.499 7.499-7.499 3.946 0 7.18 3.048 7.477 6.918 2.309-1.716 4.587-3.473 6.832-5.267-3.229-10.251-12.881-17.652-24.235-17.482zm-9.159 30.828c-4.141 0-7.499-3.357-7.499-7.499s3.357-7.499 7.499-7.499 7.499 3.357 7.499 7.499-3.357 7.499-7.499 7.499zm49.159-100.828c-12.989.194-23.856 10.599-24.577 23.57-.47 8.462 3.271 16.074 9.319 20.931 1.667 1.339 2.641 3.357 2.641 5.496v.001c0 5.523 4.477 10 10 10h6c5.523 0 10-4.477 10-10 0-2.148.988-4.166 2.661-5.513 5.695-4.583 9.339-11.609 9.339-19.487 0-13.936-11.401-25.208-25.383-24.998zm-9.159 30.828c-4.141 0-7.499-3.357-7.499-7.499s3.357-7.499 7.499-7.499 7.499 3.357 7.499 7.499-3.357 7.499-7.499 7.499zm19.084 0c-4.141 0-7.499-3.357-7.499-7.499s3.357-7.499 7.499-7.499 7.499 3.357 7.499 7.499-3.358 7.499-7.499 7.499zm-136.542 19.169c0-2.148.988-4.166 2.661-5.513 5.695-4.583 9.339-11.609 9.339-19.487 0-13.935-11.401-25.207-25.383-24.997-1.928.029-3.809.282-5.617.736v-70.739c0-11.046 8.954-20 20-20h-40.563c-11.046 0-20 8.954-20 20v210.38c5.801.411 11.657.62 17.563.62 7.756 0 15.428-.361 23-1.066v-80.392c.947.297 1.955.458 3 .458h6c5.523 0 10-4.477 10-10zm-19-20.057v-13.222c2.355 1.264 3.957 3.75 3.957 6.611s-1.602 5.347-3.957 6.611zm8.043-6.611c0-4.142 3.357-7.499 7.499-7.499s7.499 3.357 7.499 7.499-3.357 7.499-7.499 7.499-7.499-3.357-7.499-7.499z" fill="#012d4e"/><path d="m447.178 346.189c0 11.554-13.288 20.921-29.679 20.921-12.151 0-22.597-5.148-27.188-12.518l-14.197.499-7.53 16.485c-.84 1.838-2.654 2.924-4.551 2.924-.695 0-1.401-.146-2.075-.454-2.512-1.147-3.618-4.113-2.47-6.625l8.814-19.296c.787-1.723 2.479-2.853 4.372-2.919l15.223-.535c.257-2.528 1.152-4.932 2.571-7.133l-14.12-4.707-12.815 12.815c-.977.976-2.256 1.464-3.536 1.464s-2.559-.488-3.536-1.464c-1.953-1.953-1.953-5.119 0-7.071l15-15c1.339-1.339 3.32-1.805 5.117-1.208l22.409 7.469c3.197-1.801 6.933-3.145 11.011-3.893v-266.003c5.178 4.19 10.183 8.587 15 13.178v252.825c12.761 2.341 22.18 10.518 22.18 20.246zm-77.178 102.534-4.562 8.341c-.759 1.387-2.751 1.387-3.509 0l-4.562-8.341c-.184-.336-.459-.611-.795-.795l-8.341-4.562c-1.387-.759-1.387-2.751 0-3.509l8.341-4.562c.336-.184.611-.459.795-.795l4.562-8.341c.759-1.387 2.751-1.387 3.509 0l4.562 8.341c.184.336.459.611.795.795l8.341 4.562c1.387.759 1.387 2.751 0 3.509l-8.341 4.562c-.336.184-.611.46-.795.795z" fill="#d7c2e2"/><path d="m444.529 337.538c1.42 2.2 2.315 4.604 2.572 7.133l15.223.535c1.893.067 3.585 1.197 4.372 2.919l8.814 19.296c1.147 2.512.042 5.479-2.47 6.625-.673.308-1.38.454-2.075.454-1.897 0-3.711-1.085-4.551-2.924l-7.53-16.485-14.197-.499c-3.265 5.242-9.492 9.359-17.188 11.3-11.471-2.893-19.679-10.622-19.679-19.703s8.208-16.81 19.679-19.703c3.11.784 5.979 1.924 8.511 3.35l22.409-7.47c1.797-.597 3.778-.131 5.117 1.208l15 15c1.953 1.953 1.953 5.119 0 7.071-.977.976-2.256 1.464-3.536 1.464s-2.559-.488-3.536-1.464l-12.815-12.815zm-124.705-209.433-4.562 8.341c-.759 1.387-2.751 1.387-3.509 0l-4.562-8.341c-.184-.336-.459-.611-.795-.795l-8.341-4.562c-1.387-.759-1.387-2.751 0-3.509l8.341-4.562c.336-.184.612-.459.795-.795l4.562-8.341c.759-1.387 2.751-1.387 3.509 0l4.562 8.341c.184.336.459.611.795.795l8.341 4.562c1.387.759 1.387 2.751 0 3.509l-8.341 4.562c-.336.183-.612.459-.795.795zm-139.205 126.219 8.341-4.562c1.387-.759 1.387-2.751 0-3.509l-8.341-4.562c-.336-.184-.611-.459-.795-.795l-4.562-8.341c-.759-1.387-2.751-1.387-3.509 0l-4.562 8.341c-.184.336-.459.611-.795.795l-8.341 4.562c-1.387.759-1.387 2.751 0 3.509l8.341 4.562c.336.184.611.459.795.795l4.562 8.341c.759 1.387 2.751 1.387 3.509 0l4.562-8.341c.183-.336.459-.612.795-.795z" fill="#fff5f5"/><path d="m288.862 359.431-4.562 8.341c-.759 1.387-2.751 1.387-3.509 0l-4.562-8.341c-.184-.336-.459-.612-.795-.795l-8.341-4.562c-1.387-.759-1.387-2.751 0-3.509l8.341-4.562c.336-.184.612-.459.795-.795l4.562-8.341c.759-1.387 2.751-1.387 3.509 0l4.562 8.341c.184.336.459.612.795.795l8.341 4.562c1.387.759 1.387 2.751 0 3.509l-8.341 4.562c-.335.183-.611.459-.795.795zm-.23-299.545-4.562 8.341c-.759 1.387-2.751 1.387-3.509 0l-4.562-8.341c-.184-.336-.459-.611-.795-.795l-8.341-4.562c-1.387-.759-1.387-2.751 0-3.509l8.341-4.562c.336-.184.611-.459.795-.795l4.562-8.341c.759-1.387 2.751-1.387 3.509 0l4.562 8.341c.184.336.459.611.795.795l8.341 4.562c1.387.759 1.387 2.751 0 3.509l-8.341 4.562c-.336.184-.612.46-.795.795z" fill="#fded32"/></g></svg>