<svg id="Capa_1" enable-background="new 0 0 501 501" height="512" viewBox="0 0 501 501" width="512" xmlns="http://www.w3.org/2000/svg"><g><path d="m5.5 256c0-135.133 109.403-244.713 244.469-244.999 135.023-.286 244.224 107.578 245.519 242.594.76 79.209-36.073 149.848-93.744 195.163-41.649-32.725-94.167-52.243-151.244-52.243-53.519 0-103.03 17.16-143.331 46.279-4.827 3.488-11.422 3.248-15.946-.626-52.471-44.935-85.723-111.668-85.723-186.168z" fill="#fde803"/><path d="m495.488 253.595c.76 79.209-36.073 149.848-93.744 195.163-41.649-32.725-94.167-52.243-151.244-52.243-53.519 0-103.03 17.16-143.331 46.279-4.827 3.487-11.422 3.248-15.946-.626-52.471-44.935-85.723-111.668-85.723-186.168 0-24.56 3.614-48.275 10.338-70.644 30.337 101.202 124.01 174.297 235.192 174.061 110.519-.234 203.855-73.646 234.131-174.355 6.505 21.7 10.099 44.693 10.327 68.533z" fill="#f5c02c"/><path d="m410.5 391v50.545c-28.464 24.568-62.642 42.695-100.27 52.122h-119.46c-37.628-9.427-71.806-27.554-100.27-52.122v-50.545c0-38.66 31.34-70 70-70h180c38.66 0 70 31.34 70 70z" fill="#ab2538"/><path d="m410.5 391v50.545c-16.55 14.284-35.032 26.391-55 35.877v-78.922c0-4.142-3.358-7.5-7.5-7.5s-7.5 3.358-7.5 7.5v85.44c-26.918 10.637-56.172 16.645-86.778 17.039-1.072.014-.313-1.688-1.388-1.688-6.956 0-14.274-.307-21.083-.875-.929-.078-3.26 1.565-4.186 1.477-23.292-2.211-45.634-7.682-66.564-15.953v-85.44c0-4.142-3.358-7.5-7.5-7.5s-7.5 3.358-7.5 7.5v78.922c-8.622-4.096-16.968-8.681-25-13.719v-72.703c0-38.66 31.34-70 70-70h150c38.659 0 69.999 31.34 69.999 70z" fill="#f52c2c"/><path d="m360.5 151v40c0 60.751-49.249 110-110 110-60.751 0-110-49.249-110-110v-40c0-60.751 49.249-110 110-110 60.751 0 110 49.249 110 110z" fill="#e1a595"/><path d="m360.5 151v40c0 55.663-41.345 101.669-95 108.985-53.655-7.316-95-53.322-95-108.985v-40c0-55.663 41.345-101.669 95-108.985 53.655 7.316 95 53.322 95 108.985z" fill="#efcfc8"/><path d="m251.5 250h-2c-13.807 0-25-11.193-25-25 0-2.761 2.239-5 5-5h42c2.761 0 5 2.239 5 5 0 13.807-11.193 25-25 25z" fill="#dd9683"/><path d="m234.161 192.803c-2.929-2.93-2.929-7.678 0-10.607 2.93-2.928 7.678-2.928 10.607 0 3.16 3.162 8.303 3.162 11.463 0 2.93-2.928 7.678-2.928 10.607 0 2.929 2.93 2.929 7.678 0 10.607-4.505 4.504-10.422 6.757-16.339 6.757-5.916 0-11.833-2.253-16.338-6.757zm8.874 32.197c0 10.91 6.988 20.187 16.732 23.6 9.744-3.413 16.732-12.691 16.732-23.6 0-2.761-2.239-5-5-5h-23.465c-2.76 0-4.999 2.239-4.999 5z" fill="#e1a595"/><path d="m216.75 158.5c0 8.284-6.716 15-15 15s-15-6.716-15-15c0-8.284 6.716-15 15-15s15 6.716 15 15zm80-15c-8.284 0-15 6.716-15 15 0 8.284 6.716 15 15 15s15-6.716 15-15c0-8.284-6.716-15-15-15z" fill="#003c79"/><path d="m219.25 151c0 4.142-3.358 7.5-7.5 7.5s-7.5-3.358-7.5-7.5 3.358-7.5 7.5-7.5 7.5 3.358 7.5 7.5zm87.5-7.5c-4.142 0-7.5 3.358-7.5 7.5s3.358 7.5 7.5 7.5 7.5-3.358 7.5-7.5-3.358-7.5-7.5-7.5z" fill="#fff5f5"/><path d="m325.201 195c0 9.305-7.544 16.849-16.849 16.849-9.306 0-16.849-7.544-16.849-16.849s7.543-16.849 16.849-16.849c9.305 0 16.849 7.544 16.849 16.849zm-143.553-16.849c-9.305 0-16.849 7.544-16.849 16.849s7.543 16.849 16.849 16.849 16.849-7.544 16.849-16.849-7.543-16.849-16.849-16.849z" fill="#fc9368"/><path d="m354.165 116.522c-14.586 5.986-31.426 8.246-48.808 5.67-20.748-3.075-38.759-12.521-51.794-25.686-16.293 8.818-36.269 12.635-57.017 9.56-16.363-2.425-31.023-8.813-42.883-17.861 22.238-36.85 65.117-58.706 110.354-52.002 44.709 6.626 79.124 39.284 90.148 80.319z" fill="#7d402d"/><path d="m349.946 103.924c1.653 4.094 3.064 8.3 4.219 12.598-14.586 5.986-31.426 8.246-48.808 5.67-20.748-3.075-38.759-12.521-51.794-25.686-16.293 8.818-36.269 12.635-57.017 9.56-5.138-.761-10.108-1.914-14.877-3.417 15.798-32.231 46.898-55.6 83.832-60.636 37.417 5.104 68.848 29.023 84.445 61.911z" fill="#a64b30"/><path d="m368.962 162.084v-12.623c0-22.632-6.347-43.782-17.358-61.767 9.55-7.276 16.744-17.702 19.772-30.054 5.43-22.153-3.533-44.19-20.63-56.7-2.838-2.076-6.842-.535-7.74 2.864-4.833 18.282-15.594 33.951-29.957 45.036 0 0 .001.001.001.001-18.153-11.308-39.589-17.841-62.55-17.841-24.704 0-47.642 7.562-66.625 20.498 0 0 .001-.001.001-.001-16.179-11.165-28.361-27.898-33.594-47.692-.899-3.399-4.903-4.94-7.74-2.864-17.098 12.51-26.06 34.546-20.63 56.7 3.588 14.639 13.028 26.572 25.305 33.763-9.665 17.157-15.179 36.963-15.179 58.058v12.041c-15.647 2.743-27.538 16.398-27.538 32.831v13.333c0 18.409 14.924 33.333 33.333 33.333 1.495 0 2.967-.099 4.409-.29 18.459 41.418 59.987 70.29 108.258 70.29 48.179 0 89.639-28.761 108.15-70.051.612.034 1.229.051 1.85.051 18.409 0 33.333-14.924 33.333-33.333v-13.333c0-15.486-10.56-28.505-24.871-32.25zm-118.462 129.916c-56.057 0-101.5-49.696-101.5-111s45.443-111 101.5-111 101.5 49.696 101.5 111-45.443 111-101.5 111z" fill="#f52c2c"/><path d="m185.7 95.562c20.316-34.135 58.947-57.187 103.262-57.187.957 0 1.911.011 2.863.033-12.867-4.79-26.79-7.408-41.325-7.408-34.611 0-65.754 14.843-87.413 38.511-19.288-3.215-34.087-21.919-34.087-44.511 0-4.05.476-7.976 1.368-11.709-8.776 12.344-12.386 28.316-8.456 44.35 3.588 14.639 13.028 26.572 25.305 33.763-9.665 17.156-15.179 36.963-15.179 58.058v12.041c-15.647 2.743-27.538 16.398-27.538 32.831v13.333c0 18.409 14.923 33.332 33.331 33.333-8.095-6.082-13.331-15.762-13.331-26.667v-26.667c0-8.013 2.827-15.365 7.538-21.113v25.985c0 55.06 37.564 101.345 88.462 114.629v23.833c0 16.569 13.431 30 30 30s30-13.431 30-30v-23.832c-.017.004-.033.008-.05.013 3.872-1.009 7.667-2.208 11.375-3.588-.951.021-1.906.033-2.863.033-20.218 0-39.253-4.798-55.906-13.258-47.745-9.045-84.056-54.569-84.056-109.368 0-34.362 14.278-65.077 36.7-85.438zm168.465-80.562c0 20.279-11.924 37.425-28.315 43.049-4.05-3.342-8.326-6.42-12.802-9.208 14.363-11.084 25.124-26.754 29.957-45.036.899-3.399 4.903-4.94 7.74-2.864.614.449 1.217.911 1.81 1.385 1.048 4.019 1.61 8.273 1.61 12.674z" fill="#ab2538"/><path d="m297.833 436.367c0-16.734 6.776-30.3 15.134-30.3s15.134 13.566 15.134 30.3-6.776 30.3-15.134 30.3-15.134-13.566-15.134-30.3zm13.665-39.367c7.547 0 13.664-6.94 13.664-15.5s-6.118-15.5-13.664-15.5c-7.547 0-13.664 6.94-13.664 15.5-.001 8.56 6.117 15.5 13.664 15.5zm64.338-197.343c4.785 0 8.664-4.4 8.664-9.828s-3.879-9.828-8.664-9.828-8.664 4.4-8.664 9.828c-.001 5.427 3.879 9.828 8.664 9.828z" fill="#fd5757"/><path d="m443.361 445.518c-.604.815-1.727 1.02-2.597.497-2.586-1.554-6.26-4.527-10.216-8.113l-13.968 13.968c-32.915 32.915-85.033 35.205-120.62 6.872l-27.069 27.069-15.168 15.168c-1.072.014-2.146.021-3.222.021-7.905 0-15.723-.375-23.436-1.106l24.288-24.287 30.661-30.661c-28.983-35.602-26.899-88.237 6.253-121.389l14.004-14.004c-3.291-3.676-5.998-7.06-7.456-9.487-.522-.87-.317-1.993.497-2.597 18.8-13.939 44.385-27.825 59.16-27.466 1.046.026 1.888.868 1.914 1.914.359 14.775-13.527 40.359-27.466 59.159-.604.815-1.727 1.02-2.597.497-2.586-1.554-6.26-4.526-10.216-8.114l-13.968 13.968c-25.494 25.494-27.547 65.689-6.159 93.551l63.932-63.932c-5.97-6.417-11.006-12.513-13.38-16.561-.63-1.075-.349-2.454.651-3.197 26.035-19.336 61.599-38.643 81.965-37.975 1.29.042 2.327 1.08 2.369 2.369.668 20.366-18.639 55.93-37.975 81.965-.743 1-2.122 1.282-3.197.651-4.048-2.374-10.144-7.41-16.561-13.38l-63.836 63.836c27.827 20.75 67.507 18.498 92.762-6.757l14.004-14.004c-3.291-3.676-5.998-7.061-7.456-9.487-.522-.869-.317-1.993.498-2.597 18.8-13.939 44.384-27.825 59.16-27.466 1.045.026 1.888.868 1.914 1.914.356 14.777-13.53 40.361-27.469 59.161z" fill="#012d4e"/><path d="m326.322 331.573c-3.751-2.254-9.79-7.492-15.662-13.261.417-10.751 6.596-23.747 17.487-34.638 5.313-5.313 11.126-9.504 16.936-12.452 3.435-.849 6.604-1.288 9.388-1.22 1.045.025 1.888.868 1.914 1.914.359 14.775-13.526 40.359-27.466 59.16-.605.815-1.728 1.019-2.597.497zm32.13 56.252c-1.775-1.775-4.653-1.775-6.428 0l-80.038 80.038c-1.775 1.775-1.775 4.653 0 6.428l.998.998c1.775 1.775 4.653 1.775 6.428 0l80.038-80.038c1.775-1.775 1.775-4.653 0-6.428zm112.374-1.467c-.025-1.046-.868-1.888-1.914-1.914-1.702-.041-3.549.106-5.511.422-6.85 2.945-13.835 7.66-20.119 13.944-10.885 10.885-17.064 23.875-17.486 34.623 5.649 5.498 11.364 10.417 14.967 12.582.87.522 1.993.317 2.597-.497 13.94-18.8 27.826-44.384 27.466-59.16zm-39.311-74.675c-.042-1.289-1.079-2.327-2.369-2.369-4.545-.149-9.848.697-15.632 2.316-4.353 2.827-8.582 6.233-12.54 10.192-21.068 21.068-26.502 49.792-12.138 64.157 1.998 1.998 4.273 3.612 6.766 4.855 18.622-25.732 36.557-59.509 35.913-79.151z" fill="#463b83"/></g></svg>