<svg id="Capa_1" enable-background="new 0 0 512 512" height="512" viewBox="0 0 512 512" width="512" xmlns="http://www.w3.org/2000/svg"><g><g><path d="m456.951 407.166c27.755-39.718 44.049-88.036 44.049-140.166 0-135.31-109.69-245-245-245s-245 109.69-245 245c0 52.13 16.294 100.448 44.049 140.166z" fill="#ffdd40"/></g><g><circle cx="256" cy="242" fill="#ffc839" r="200"/></g><g><g><path d="m380.55 394.377c-3.186.29-6.483-.634-9.135-2.844-5.305-4.418-6.023-12.3-1.604-17.605 28.664-34.414 23.987-85.732-10.426-114.396-34.415-28.665-85.733-23.988-114.397 10.426-18.16 21.802-43.722 35.227-71.979 37.802s-55.826-6.008-77.627-24.167c-45.005-37.487-51.122-104.6-13.635-149.606 4.419-5.305 12.3-6.023 17.605-1.604 5.304 4.418 6.023 12.3 1.604 17.605-28.665 34.414-23.988 85.732 10.426 114.396 16.67 13.886 37.751 20.449 59.358 18.48 21.606-1.969 41.153-12.235 55.039-28.906 37.488-45.005 104.6-51.122 149.606-13.635 45.005 37.488 51.122 104.601 13.635 149.606-2.209 2.652-5.284 4.158-8.47 4.448z" fill="#cc0053"/></g></g><g><path d="m256 512c83.18 0 156.665-41.461 200.951-104.835-.001-.009-.001-.017-.002-.026-8.256-22.709-16.99-42.685-24.722-51.911-.904-1.078-1.794-2.019-2.668-2.79-6.623-5.848-19.39-11.382-34.352-16.323-37.928-12.525-89.968-21.232-91.82-21.54h-94.772c-1.853.307-53.892 9.014-91.82 21.54-14.961 4.941-27.729 10.475-34.352 16.323-.874.772-1.765 1.712-2.668 2.79-7.732 9.226-16.467 29.203-24.722 51.911-.001.009-.001.018-.002.026 44.284 63.374 117.769 104.835 200.949 104.835z" fill="#ff4155"/></g><g><path d="m147.073 337.988c-.424-3.58-.763-7-1.034-10.266-9.967 2.528-20.023 5.347-29.245 8.393-14.961 4.941-27.729 10.475-34.352 16.323-.874.772-1.765 1.712-2.668 2.79-7.732 9.226-16.467 29.203-24.722 51.911-.001.009-.001.018-.002.026 44.285 63.374 117.77 104.835 200.95 104.835-56.665-26.802-98.999-92.949-108.927-174.012z" fill="#e80054"/></g><g><path d="m276.616 369.362s10.767-11.809 23.703-11.809 55.191 11.809 55.191 11.809z" fill="#e80054"/></g><g><path d="m235.384 369.362s-10.767-11.809-23.703-11.809-55.191 11.809-55.191 11.809z" fill="#e80054"/></g><g><path d="m208.614 221.239v93.336s19.021 20.093 47.17 20.093c.073 0 .143-.005.216-.005 28.031-.103 47.386-20.088 47.386-20.088v-93.336z" fill="#ff4155"/></g><g><path d="m208.614 220.734v93.841c94.723 0 94.772-53.4 94.772-53.4v-40.44h-94.772z" fill="#e80054"/></g><g><path d="m91.07 426.843v21.327c7.157 6.519 14.704 12.617 22.599 18.262l-12.035-41.103c-1.75-5.98-10.564-4.716-10.564 1.514z" fill="#cc0053"/></g><g><path d="m420.93 426.843v21.327c-7.157 6.519-14.704 12.617-22.599 18.262l12.035-41.103c1.75-5.98 10.564-4.716 10.564 1.514z" fill="#e80054"/></g><g><path d="m185.693 165.046c4.281 9.642-.591 20.92-10.338 24.957-9.746 4.037-20.92-.591-24.957-10.338-4.037-9.746-7.339-17.717-13.702-33.079s32.54-18.606 48.997 18.46z" fill="#e80054"/></g><g><path d="m326.307 165.046c-4.281 9.642.591 20.92 10.338 24.957 9.746 4.037 20.92-.591 24.957-10.338 4.037-9.746 7.339-17.717 13.702-33.079 6.363-15.361-32.54-18.606-48.997 18.46z" fill="#ff4155"/></g><g><path d="m165.276 146.232c0 66.807 40.618 145.158 90.724 145.158s90.724-78.351 90.724-145.158-40.619-114.842-90.724-114.842-90.724 48.035-90.724 114.842z" fill="#ff596e"/></g><g><path d="m206.704 146.232c0-57.305 29.886-100.795 70.01-112.008-6.653-1.859-13.587-2.834-20.714-2.834-50.105 0-90.724 48.035-90.724 114.842s40.618 145.158 90.724 145.158c7.127 0 14.061-1.589 20.714-4.501-40.124-17.559-70.01-83.352-70.01-140.657z" fill="#ff4155"/></g><g><path d="m284.406 276.439c-12.604-3.4-20.319-9.275-24.469-13.422-2.164-2.162-5.71-2.162-7.874 0-4.15 4.146-11.865 10.022-24.469 13.422-2.478.668-4.182 2.975-4.09 5.54.5 14.03 3.221 24.449 5.212 30.332.823 2.431 4.038 2.921 5.553.85 4.511 7.568 10.896 15.092 19.934 21.158 1.082.726 2.513.726 3.595 0 9.039-6.066 15.424-13.59 19.934-21.158 1.515 2.071 4.73 1.581 5.553-.85 1.991-5.882 4.712-16.301 5.212-30.332.091-2.565-1.613-4.871-4.091-5.54z" fill="#2d3c6b"/></g><g><path d="m247.508 302.731c-1.511 2.065-4.728 1.585-5.549-.839-1.912-5.647-4.495-15.494-5.14-28.7-2.734 1.208-5.792 2.322-9.225 3.248-2.478.668-4.182 2.975-4.091 5.54.5 14.031 3.221 24.449 5.212 30.332.823 2.431 4.038 2.921 5.553.85 4.51 7.568 10.896 15.092 19.934 21.158 1.082.726 2.513.726 3.595 0 4.284-2.875 7.966-6.081 11.141-9.461-9.832-6.225-16.675-14.151-21.43-22.128z" fill="#213159"/></g><g><g><path d="m233.666 242.519h44.669c4.453-3.923 7.863-9.002 9.761-14.767 1.716-5.212-2.241-10.567-7.728-10.567h-48.733c-5.487 0-9.444 5.355-7.728 10.567 1.896 5.766 5.305 10.844 9.759 14.767z" fill="#162544"/></g><g><path d="m278.334 242.519c-5.95 5.253-13.774 8.447-22.334 8.447-8.561 0-16.384-3.194-22.334-8.447 5.959-5.253 13.774-8.447 22.334-8.447 8.561 0 16.376 3.194 22.334 8.447z" fill="#cc0053"/></g></g><g><g><path d="m242.013 192.447 8.436-13.441c2.569-4.093 8.533-4.093 11.102 0l8.436 13.441c2.739 4.365-.398 10.038-5.551 10.038h-16.871c-5.154-.001-8.291-5.674-5.552-10.038z" fill="#e80054"/></g></g><g><circle cx="210.26" cy="158.229" fill="#162544" r="10"/></g><g><circle cx="301.74" cy="158.229" fill="#162544" r="10"/></g><g><path d="m290.523 61.08 3.217-3.217c6.696-6.696 9.034-16.6 6.039-25.583l-8.048-24.145c-.74-2.221-.162-4.669 1.493-6.324 2.414-2.414 6.327-2.414 8.74 0l16.843 16.843c19.526 19.526 19.526 51.184 0 70.711-7.81 7.81-20.474 7.81-28.284 0-7.81-7.812-7.81-20.475 0-28.285z" fill="#2d3c6b"/></g><g><path d="m221.477 61.08-3.217-3.217c-6.696-6.696-9.034-16.6-6.039-25.583l8.048-24.145c.74-2.221.162-4.669-1.493-6.324-2.414-2.414-6.327-2.414-8.74 0l-16.843 16.843c-19.526 19.526-19.526 51.184 0 70.711 7.81 7.81 20.474 7.81 28.284 0 7.81-7.812 7.81-20.475 0-28.285z" fill="#2d3c6b"/></g><g><path d="m217.978 156.301-19.319-5.176c-4.001-1.072-6.375-5.185-5.303-9.186 1.072-4.001 5.185-6.375 9.186-5.303l19.319 5.176c4.001 1.072 6.375 5.185 5.303 9.186-1.073 4-5.185 6.375-9.186 5.303z" fill="#e80054"/></g><g><path d="m313.341 151.124-19.319 5.176c-4.001 1.072-8.113-1.302-9.186-5.303-1.072-4.001 1.302-8.114 5.303-9.186l19.319-5.176c4.001-1.072 8.114 1.302 9.186 5.303 1.072 4.002-1.302 8.114-5.303 9.186z" fill="#e80054"/></g><g><path d="m256 512c27.792 0 54.498-4.635 79.398-13.162l-44.768-7.557c-8.391-1.416-14.967-7.988-16.39-16.378l-12.405-73.165c-.483-2.847-2.949-4.93-5.836-4.93-2.887 0-5.353 2.083-5.836 4.93l-12.405 73.165c-1.423 8.39-7.998 14.961-16.39 16.378l-44.768 7.557c24.902 8.527 51.608 13.162 79.4 13.162z" fill="#e80054"/></g><g><path d="m94.122 147.947c-1.435-4.008-4.932-6.921-9.133-7.607-11.12-1.818-13.504-16.756-3.503-21.945l27.245-14.138c9.208-4.778 19.622 3.896 16.587 13.816l-8.979 29.352c-3.296 10.774-18.419 11.13-22.217.522z" fill="#e80054"/></g><g><path d="m221.477 61.08-3.217-3.217c-3.323-3.323-5.569-7.436-6.626-11.834.05.521.08 1.048.08 1.582 0 9.113-7.387 16.5-16.5 16.5-8.606 0-15.665-6.591-16.424-15-1.406 14.375 3.393 29.242 14.403 40.252 7.81 7.811 20.474 7.811 28.284 0 7.81-7.81 7.81-20.473 0-28.283z" fill="#213159"/></g><g><path d="m290.523 61.08 3.217-3.217c3.323-3.323 5.569-7.436 6.626-11.834-.05.521-.08 1.048-.08 1.582 0 9.113 7.387 16.5 16.5 16.5 8.606 0 15.665-6.591 16.424-15 1.406 14.375-3.393 29.242-14.403 40.252-7.81 7.811-20.474 7.811-28.284 0-7.81-7.81-7.81-20.473 0-28.283z" fill="#213159"/></g></g></svg>