<svg id="Capa_1" enable-background="new 0 0 512 512" height="512" viewBox="0 0 512 512" width="512" xmlns="http://www.w3.org/2000/svg"><g><g><path d="m456.951 407.166c27.755-39.718 44.049-88.036 44.049-140.166 0-135.31-109.69-245-245-245s-245 109.69-245 245c0 52.13 16.294 100.448 44.049 140.166z" fill="#7255ce"/></g><g><circle cx="256" cy="242" fill="#5c45bf" r="200"/></g><g><path d="m412.228 259.136c-21.522-7.533-27.392-22.468-18.088-51.816 8.405-26.513-26.225-54.168-32.997-59.266v-30.911c0-27.404-10.487-52.356-27.663-71.07 0 0-.921-27.711-14.708-34.073-13.787-6.362-28.523-12-62.772-12s-62.086 14.101-81.87 36.423-23.273 57.711-23.273 80.72v.121c0 17.61-6.634 34.491-18.288 47.694-10.147 11.495-19.542 27.117-14.709 42.362 9.304 29.349 3.435 44.283-18.088 51.816-21.522 7.533-72.394 55.796-18.914 126.233h350.283c53.48-70.437 2.609-118.7-18.913-126.233z" fill="#ffb332"/></g><g><path d="m346.915 242c17.872-24.064 10.383-56.958-7.009-59.596h-167.812c-17.392 2.639-24.881 35.532-7.009 59.596s-72 73.227-28.085 143.369h238c43.915-70.142-45.957-119.305-28.085-143.369z" fill="#ff9100"/></g><g><path d="m102.383 457.831h307.235c18.06-14.558 34.021-31.615 47.333-50.665-.001-.009-.001-.017-.002-.026-8.256-22.709-16.99-42.685-24.722-51.911-.904-1.078-1.795-2.019-2.668-2.79-6.623-5.848-19.39-11.382-34.352-16.323-37.929-12.525-89.967-21.232-91.82-21.54h-94.772c-1.853.307-53.892 9.014-91.82 21.54-14.961 4.941-27.729 10.475-34.352 16.323-.874.772-1.765 1.712-2.668 2.79-7.732 9.226-16.467 29.203-24.722 51.911-.001.009-.001.018-.002.026 13.31 19.049 29.272 36.106 47.332 50.665z" fill="#f3d6ac"/></g><g><path d="m102.383 457.831h118.606c-17.282-17.151-30.825-37.677-39.83-62.575-7.588-20.984-11.96-45.066-12.65-72.831v-.001c-16.433 3.612-35.381 8.297-51.715 13.691-14.961 4.941-27.729 10.475-34.352 16.323-.874.772-1.765 1.712-2.668 2.79-7.732 9.226-16.467 29.203-24.722 51.911-.001.009-.001.018-.002.026 13.311 19.05 29.273 36.107 47.333 50.666z" fill="#eabe8d"/></g><g><path d="m276.616 369.362s10.767-11.809 23.703-11.809 55.191 11.809 55.191 11.809z" fill="#eabe8d"/></g><g><path d="m235.384 369.362s-10.767-11.809-23.703-11.809-55.191 11.809-55.191 11.809z" fill="#eabe8d"/></g><g><path d="m391.147 471.33c6.374-4.223 12.555-8.713 18.491-13.499-4.027-11.7-11.689-21.884-21.736-29.06v42.559z" fill="#eabe8d"/></g><g><path d="m124.098 471.33v-42.559c-10.047 7.176-17.708 17.36-21.736 29.06 5.936 4.786 12.117 9.277 18.491 13.499z" fill="#d8a97c"/></g><g><path d="m177.575 395.255c-37.77 0-66.143 34.911-57.928 71.776.604 2.713 1.146 4.246 1.165 4.298v.009c38.748 25.688 85.216 40.662 135.188 40.662 49.971 0 96.439-14.974 135.187-40.661l.001-.009c.019-.052.56-1.586 1.165-4.298 8.215-36.866-20.158-71.776-57.928-71.776h-156.85z" fill="#49d88b"/></g><g><path d="m208.614 221.239v93.336s19.021 20.093 47.17 20.093c.073 0 .143-.005.216-.005 28.031-.103 47.386-20.088 47.386-20.088v-93.336z" fill="#f3d6ac"/></g><g><path d="m208.614 220.734v93.841c94.723 0 94.772-53.4 94.772-53.4v-40.44h-94.772z" fill="#eabe8d"/></g><g><path d="m301.031 507.862c-56.84-22.966-99.707-56.85-119.872-112.606h-3.584c-37.77 0-66.143 34.911-57.928 71.776.604 2.713 1.146 4.246 1.165 4.298v.009c38.748 25.687 85.216 40.661 135.188 40.661 15.384 0 30.434-1.424 45.031-4.138z" fill="#38c674"/></g><g><path d="m326.307 165.046c-4.281 9.642.591 20.92 10.338 24.957 9.746 4.037 20.92-.591 24.957-10.338 4.037-9.746 7.339-17.717 13.702-33.079 6.363-15.361-32.54-18.606-48.997 18.46z" fill="#f3d6ac"/></g><g><path d="m316 91.851c6.171 33.533 27.477 51.149 27.549 51.209.029 1.226.048 2.456.048 3.695 0 64.505-39.219 140.155-87.597 140.155-39.611 0-73.076-50.717-83.906-104.506 92.184-9.194 143.906-90.553 143.906-90.553z" fill="#f8e6cc"/></g><g><path d="m210.585 173.978c-11.908 4.071-24.746 7.055-38.491 8.425 10.83 53.79 44.295 104.507 83.906 104.507 6.881 0 13.576-1.535 20-4.346-32.483-14.215-58.014-61.17-65.415-108.586z" fill="#f3d6ac"/></g><g><g><path d="m269.987 192.447-8.436-13.441c-2.569-4.093-8.533-4.093-11.102 0l-8.436 13.441c-2.739 4.365.398 10.038 5.551 10.038h16.871c5.154-.001 8.291-5.674 5.552-10.038z" fill="#f3d6ac"/></g></g><g><g><path d="m276.616 240.87h-41.233c-4.111-3.622-7.258-8.309-9.01-13.631-1.584-4.811 2.069-9.754 7.134-9.754h44.985c5.065 0 8.718 4.943 7.134 9.754-1.752 5.322-4.899 10.009-9.01 13.631z" fill="#162544"/></g><g><path d="m235.384 240.87c5.493 4.849 12.714 7.798 20.616 7.798s15.124-2.948 20.616-7.798c-5.5-4.849-12.714-7.798-20.616-7.798s-15.116 2.949-20.616 7.798z" fill="#ff4155"/></g></g><g><path d="m310.999 162.085c.043-3.495-1.371-7.004-4.242-9.539-4.675-4.128-11.84-4.128-16.515 0-2.871 2.535-4.284 6.044-4.242 9.539.055 4.538 5.629 6.716 8.838 3.507 2.022-2.022 5.3-2.022 7.322 0 3.21 3.21 8.784 1.032 8.839-3.507z" fill="#162544"/></g><g><path d="m316 132.917v-.005c0-3.045-1.951-5.736-4.829-6.731-8.513-2.944-16.772-2.959-25.337.003-2.88.996-4.834 3.685-4.834 6.733 0 4.883 4.783 8.211 9.427 6.701 5.247-1.706 10.9-1.706 16.147 0 4.643 1.51 9.426-1.818 9.426-6.701z" fill="#ff9100"/></g><g><path d="m337.526 98.287c-.335-.24-34.93-24.684-81.526-24.684-46.815 0-81.185 24.437-81.526 24.684l-8.784-12.159c1.556-1.124 38.695-27.524 90.31-27.524 51.614 0 88.754 26.4 90.31 27.524z" fill="#38c674"/></g><g><g><path d="m271.562 88.191c-1.192-3.076-2.961-5.89-4.719-8.682-1.494-2.374-3.025-4.748-4.561-7.122 2.374 1.536 4.748 3.066 7.122 4.561 2.792 1.758 5.606 3.526 8.682 4.719s6.468 1.786 9.697 1.11 6.259-2.758 7.557-5.791c1.158-2.707.687-5.018-.621-6.965-1.592-2.369-1.592-5.461 0-7.831 1.309-1.947 1.78-4.258.621-6.965-1.298-3.033-4.328-5.115-7.557-5.791s-6.621-.083-9.697 1.11c-3.076 1.192-5.89 2.961-8.682 4.719-2.374 1.494-4.748 3.025-7.122 4.561 1.536-2.374 3.066-4.748 4.561-7.122 1.758-2.792 3.526-5.606 4.719-8.682s1.785-6.468 1.11-9.697c-.676-3.229-2.758-6.259-5.791-7.557-2.707-1.158-5.018-.687-6.965.621-2.369 1.592-5.462 1.592-7.831 0-1.947-1.308-4.258-1.78-6.965-.621-3.033 1.298-5.115 4.328-5.791 7.557s-.083 6.621 1.11 9.697c1.192 3.076 2.961 5.89 4.719 8.682 1.494 2.374 3.025 4.748 4.561 7.122-2.374-1.536-4.748-3.066-7.122-4.561-2.792-1.758-5.606-3.526-8.682-4.719-3.076-1.192-6.468-1.785-9.697-1.11-3.229.676-6.259 2.758-7.557 5.791-1.159 2.707-.687 5.018.621 6.965 1.592 2.369 1.592 5.462 0 7.831-1.309 1.947-1.78 4.258-.621 6.965 1.298 3.033 4.328 5.115 7.557 5.791s6.621.083 9.697-1.11c3.076-1.192 5.89-2.961 8.682-4.719 2.374-1.494 4.748-3.025 7.122-4.561-1.536 2.374-3.066 4.748-4.561 7.122-1.758 2.792-3.526 5.606-4.719 8.682-1.192 3.076-1.785 6.468-1.11 9.697.676 3.229 2.758 6.259 5.791 7.557 2.707 1.158 5.018.687 6.965-.621 2.369-1.592 5.461-1.592 7.831 0 1.947 1.309 4.258 1.78 6.965.621 3.033-1.298 5.115-4.328 5.791-7.557.675-3.229.082-6.621-1.11-9.697z" fill="#dae2fe"/></g><g><path d="m282.622 70.718c-3.018-1.332-6.259-2.071-9.476-2.803-2.735-.622-5.496-1.219-8.261-1.811 2.765-.593 5.525-1.189 8.261-1.811 3.217-.732 6.458-1.471 9.476-2.803s5.836-3.311 7.642-6.072 2.476-6.376 1.249-9.439c-1.095-2.733-3.062-4.034-5.364-4.486-2.801-.549-4.988-2.736-5.537-5.537-.451-2.302-1.752-4.269-4.485-5.364-3.063-1.227-6.677-.557-9.439 1.249-2.761 1.805-4.74 4.623-6.072 7.642s-2.071 6.259-2.803 9.476c-.622 2.735-1.218 5.496-1.811 8.261-.593-2.765-1.189-5.525-1.811-8.261-.732-3.217-1.471-6.458-2.803-9.476s-3.311-5.836-6.072-7.642-6.376-2.476-9.439-1.249c-2.733 1.095-4.034 3.062-4.485 5.364-.549 2.801-2.736 4.988-5.537 5.537-2.302.452-4.269 1.752-5.364 4.486-1.227 3.063-.557 6.677 1.249 9.439 1.805 2.761 4.623 4.74 7.642 6.072 3.018 1.332 6.259 2.071 9.476 2.803 2.735.622 5.496 1.218 8.261 1.811-2.765.593-5.525 1.189-8.261 1.811-3.217.732-6.458 1.471-9.476 2.803s-5.836 3.311-7.642 6.072-2.476 6.376-1.249 9.439c1.095 2.733 3.062 4.034 5.364 4.486 2.801.549 4.988 2.736 5.537 5.537.451 2.302 1.752 4.269 4.485 5.364 3.063 1.227 6.677.557 9.439-1.249 2.761-1.805 4.74-4.623 6.072-7.641s2.071-6.259 2.803-9.476c.622-2.735 1.218-5.496 1.811-8.261.593 2.765 1.189 5.526 1.811 8.261.732 3.217 1.471 6.458 2.803 9.476s3.311 5.836 6.072 7.641c2.761 1.806 6.376 2.476 9.439 1.249 2.733-1.095 4.034-3.062 4.485-5.364.549-2.801 2.736-4.988 5.537-5.537 2.302-.451 4.269-1.752 5.364-4.486 1.227-3.063.557-6.677-1.249-9.439-1.806-2.761-4.624-4.74-7.642-6.072z" fill="#e9efff"/></g><g><circle cx="256" cy="66.104" fill="#ffdd40" r="15.057"/></g><g><path d="m256 66.104c0-5.572 3.029-10.434 7.529-13.038-2.215-1.282-4.785-2.019-7.529-2.019-8.316 0-15.057 6.741-15.057 15.057s6.741 15.057 15.057 15.057c2.744 0 5.313-.737 7.529-2.019-4.5-2.604-7.529-7.466-7.529-13.038z" fill="#ffc839"/></g></g><g><g><path d="m185.644 114.294c-1.192-3.076-2.961-5.89-4.719-8.682-1.494-2.374-3.025-4.748-4.561-7.122 2.374 1.536 4.748 3.066 7.122 4.561 2.792 1.758 5.606 3.526 8.682 4.719s6.468 1.786 9.697 1.11 6.259-2.758 7.557-5.791c1.158-2.707.687-5.018-.621-6.965-1.592-2.369-1.592-5.461 0-7.831 1.309-1.947 1.78-4.258.621-6.965-1.298-3.033-4.328-5.115-7.557-5.791s-6.621-.083-9.697 1.11c-3.076 1.192-5.89 2.961-8.682 4.719-2.374 1.494-4.748 3.025-7.122 4.561 1.536-2.374 3.066-4.748 4.561-7.122 1.758-2.792 3.526-5.606 4.719-8.682 1.192-3.076 1.785-6.468 1.11-9.697-.676-3.229-2.758-6.259-5.791-7.557-2.707-1.158-5.018-.687-6.965.621-2.369 1.592-5.462 1.592-7.831 0-1.947-1.308-4.258-1.78-6.965-.621-3.033 1.298-5.115 4.328-5.791 7.557s-.083 6.621 1.11 9.697c1.192 3.076 2.961 5.89 4.719 8.682 1.494 2.374 3.025 4.748 4.561 7.122-2.374-1.536-4.748-3.066-7.122-4.561-2.792-1.758-5.606-3.526-8.682-4.719-3.076-1.192-6.468-1.785-9.697-1.11-3.229.676-6.259 2.758-7.557 5.791-1.159 2.707-.687 5.018.621 6.965 1.592 2.369 1.592 5.462 0 7.831-1.309 1.947-1.78 4.258-.621 6.965 1.298 3.033 4.328 5.115 7.557 5.791s6.621.083 9.697-1.11c3.076-1.192 5.89-2.961 8.682-4.719 2.374-1.494 4.748-3.025 7.122-4.561-1.536 2.374-3.066 4.748-4.561 7.122-1.758 2.792-3.526 5.606-4.719 8.682-1.192 3.076-1.785 6.468-1.11 9.697.676 3.229 2.758 6.259 5.791 7.557 2.707 1.158 5.018.687 6.965-.621 2.369-1.592 5.461-1.592 7.831 0 1.947 1.309 4.258 1.78 6.965.621 3.033-1.298 5.115-4.328 5.791-7.557.675-3.229.082-6.62-1.11-9.697z" fill="#dae2fe"/></g><g><path d="m196.704 96.821c-3.018-1.332-6.259-2.071-9.476-2.803-2.735-.622-5.496-1.219-8.261-1.811 2.765-.593 5.525-1.189 8.261-1.811 3.217-.732 6.458-1.471 9.476-2.803s5.836-3.311 7.642-6.072 2.476-6.376 1.249-9.439c-1.095-2.733-3.062-4.034-5.364-4.486-2.801-.549-4.988-2.736-5.537-5.537-.451-2.302-1.752-4.269-4.485-5.364-3.063-1.227-6.677-.557-9.439 1.249-2.761 1.805-4.74 4.623-6.072 7.642-1.332 3.018-2.071 6.259-2.803 9.476-.622 2.735-1.218 5.496-1.811 8.261-.593-2.765-1.189-5.525-1.811-8.261-.732-3.217-1.471-6.458-2.803-9.476s-3.311-5.836-6.072-7.642-6.376-2.476-9.439-1.249c-2.733 1.095-4.034 3.062-4.485 5.364-.549 2.801-2.736 4.988-5.537 5.537-2.302.452-4.269 1.752-5.364 4.486-1.227 3.063-.557 6.677 1.249 9.439 1.805 2.761 4.623 4.74 7.642 6.072 3.018 1.332 6.259 2.071 9.476 2.803 2.735.622 5.496 1.218 8.261 1.811-2.765.593-5.525 1.189-8.261 1.811-3.217.732-6.458 1.471-9.476 2.803s-5.836 3.311-7.642 6.072-2.476 6.376-1.249 9.439c1.095 2.733 3.062 4.034 5.364 4.486 2.801.549 4.988 2.736 5.537 5.537.451 2.302 1.752 4.269 4.485 5.364 3.063 1.227 6.677.557 9.439-1.249 2.761-1.805 4.74-4.623 6.072-7.641s2.071-6.259 2.803-9.476c.622-2.735 1.218-5.496 1.811-8.261.593 2.765 1.189 5.526 1.811 8.261.732 3.217 1.471 6.458 2.803 9.476s3.311 5.836 6.072 7.641c2.761 1.806 6.376 2.476 9.439 1.249 2.733-1.095 4.034-3.062 4.485-5.364.549-2.801 2.736-4.988 5.537-5.537 2.302-.451 4.269-1.752 5.364-4.486 1.227-3.063.557-6.677-1.249-9.439-1.806-2.761-4.624-4.74-7.642-6.072z" fill="#e9efff"/></g><g><circle cx="170.082" cy="92.207" fill="#ffdd40" r="15.057"/></g><g><path d="m170.082 92.207c0-5.572 3.029-10.434 7.529-13.038-2.215-1.282-4.785-2.019-7.529-2.019-8.316 0-15.057 6.741-15.057 15.057s6.741 15.057 15.057 15.057c2.744 0 5.313-.737 7.529-2.019-4.5-2.604-7.529-7.465-7.529-13.038z" fill="#ffc839"/></g></g><g><g><path d="m357.48 114.294c-1.192-3.076-2.961-5.89-4.719-8.682-1.494-2.374-3.025-4.748-4.561-7.122 2.374 1.536 4.748 3.066 7.122 4.561 2.792 1.758 5.606 3.526 8.682 4.719s6.468 1.786 9.697 1.11 6.259-2.758 7.557-5.791c1.158-2.707.687-5.018-.621-6.965-1.592-2.369-1.592-5.461 0-7.831 1.309-1.947 1.78-4.258.621-6.965-1.298-3.033-4.328-5.115-7.557-5.791s-6.621-.083-9.697 1.11c-3.076 1.192-5.89 2.961-8.682 4.719-2.374 1.494-4.748 3.025-7.122 4.561 1.536-2.374 3.066-4.748 4.561-7.122 1.758-2.792 3.526-5.606 4.719-8.682 1.192-3.076 1.785-6.468 1.11-9.697-.676-3.229-2.758-6.259-5.791-7.557-2.707-1.158-5.018-.687-6.965.621-2.369 1.592-5.462 1.592-7.831 0-1.947-1.308-4.258-1.78-6.965-.621-3.033 1.298-5.115 4.328-5.791 7.557s-.083 6.621 1.11 9.697c1.192 3.076 2.961 5.89 4.719 8.682 1.494 2.374 3.025 4.748 4.561 7.122-2.374-1.536-4.748-3.066-7.122-4.561-2.792-1.758-5.606-3.526-8.682-4.719-3.076-1.192-6.468-1.785-9.697-1.11-3.229.676-6.259 2.758-7.557 5.791-1.158 2.707-.687 5.018.621 6.965 1.592 2.369 1.592 5.462 0 7.831-1.309 1.947-1.78 4.258-.621 6.965 1.298 3.033 4.328 5.115 7.557 5.791s6.621.083 9.697-1.11c3.076-1.192 5.89-2.961 8.682-4.719 2.374-1.494 4.748-3.025 7.122-4.561-1.536 2.374-3.066 4.748-4.561 7.122-1.758 2.792-3.526 5.606-4.719 8.682-1.192 3.076-1.785 6.468-1.11 9.697.676 3.229 2.758 6.259 5.791 7.557 2.707 1.158 5.018.687 6.965-.621 2.369-1.592 5.461-1.592 7.831 0 1.947 1.309 4.258 1.78 6.965.621 3.033-1.298 5.115-4.328 5.791-7.557.675-3.229.082-6.62-1.11-9.697z" fill="#dae2fe"/></g><g><path d="m368.54 96.821c-3.018-1.332-6.259-2.071-9.476-2.803-2.735-.622-5.496-1.219-8.261-1.811 2.765-.593 5.525-1.189 8.261-1.811 3.217-.732 6.458-1.471 9.476-2.803s5.836-3.311 7.642-6.072 2.476-6.376 1.249-9.439c-1.095-2.733-3.062-4.034-5.364-4.486-2.801-.549-4.988-2.736-5.537-5.537-.451-2.302-1.752-4.269-4.485-5.364-3.063-1.227-6.677-.557-9.439 1.249-2.761 1.805-4.74 4.623-6.072 7.642-1.332 3.018-2.071 6.259-2.803 9.476-.622 2.735-1.218 5.496-1.811 8.261-.593-2.765-1.189-5.525-1.811-8.261-.732-3.217-1.471-6.458-2.803-9.476s-3.311-5.836-6.072-7.642-6.376-2.476-9.439-1.249c-2.733 1.095-4.034 3.062-4.485 5.364-.549 2.801-2.736 4.988-5.537 5.537-2.302.452-4.269 1.752-5.364 4.486-1.227 3.063-.557 6.677 1.249 9.439 1.805 2.761 4.623 4.74 7.642 6.072 3.018 1.332 6.259 2.071 9.476 2.803 2.735.622 5.496 1.218 8.261 1.811-2.765.593-5.525 1.189-8.261 1.811-3.217.732-6.457 1.471-9.476 2.803-3.018 1.332-5.836 3.311-7.642 6.072s-2.476 6.376-1.249 9.439c1.095 2.733 3.062 4.034 5.364 4.486 2.801.549 4.988 2.736 5.537 5.537.451 2.302 1.752 4.269 4.485 5.364 3.063 1.227 6.677.557 9.439-1.249 2.761-1.805 4.74-4.623 6.072-7.641s2.071-6.259 2.803-9.476c.622-2.735 1.218-5.496 1.811-8.261.593 2.765 1.189 5.526 1.811 8.261.732 3.217 1.471 6.458 2.803 9.476s3.311 5.836 6.072 7.641c2.761 1.806 6.376 2.476 9.439 1.249 2.733-1.095 4.034-3.062 4.485-5.364.549-2.801 2.736-4.988 5.537-5.537 2.302-.451 4.269-1.752 5.364-4.486 1.227-3.063.557-6.677-1.249-9.439-1.806-2.761-4.624-4.74-7.642-6.072z" fill="#e9efff"/></g><g><circle cx="341.918" cy="92.207" fill="#ffdd40" r="15.057"/></g><g><path d="m341.918 92.207c0-5.572 3.029-10.434 7.529-13.038-2.215-1.282-4.785-2.019-7.529-2.019-8.316 0-15.057 6.741-15.057 15.057s6.741 15.057 15.057 15.057c2.744 0 5.313-.737 7.529-2.019-4.499-2.604-7.529-7.465-7.529-13.038z" fill="#ffc839"/></g></g></g></svg>