<svg id="Capa_1" enable-background="new 0 0 512 512" height="512" viewBox="0 0 512 512" width="512" xmlns="http://www.w3.org/2000/svg"><g><g><path d="m19.084 329.598 457.809 43.508c15.449-32.104 24.107-68.094 24.107-106.106 0-135.31-109.69-245-245-245s-245 109.69-245 245c0 21.638 2.814 42.618 8.081 62.602z" fill="#73c3f9"/></g><g><circle cx="256" cy="242" fill="#4fabf7" r="200"/></g><g><path d="m262.53 511.912c94.517-2.473 175.704-58.474 214.362-138.806 3.74-17.764 7.01-49.908-10.23-74.106-14.689-20.617-35.602-29.957-50.426-34.158-10.729-3.041-20.047-9.587-26.737-18.509-24.349-32.474-72.372-45.375-72.372-45.375h-122.255s-48.023 12.902-72.372 45.375c-6.69 8.922-16.008 15.469-26.737 18.509-14.823 4.201-35.736 13.541-50.425 34.158-17.24 24.198-13.97 56.343-10.23 74.106 38.658 80.332 119.845 136.333 214.362 138.806.172.004.345.008.517.012 1.999.048 4.003.076 6.013.076s4.014-.028 6.013-.076c.172-.004.345-.008.517-.012z" fill="#fd995b"/></g><g><path d="m407.103 261.237c-6.885-3.532-12.897-8.626-17.604-14.904-24.349-32.474-72.372-45.375-72.372-45.375h-122.255s-48.023 12.902-72.372 45.375c-4.707 6.277-10.719 11.372-17.604 14.904 37.383-12.42 94.596-4.802 136.126 42.845 7.893 9.055 22.063 9.055 29.956 0 41.529-47.647 98.743-55.266 136.125-42.845z" fill="#ef854b"/></g><g><path d="m316.329 85.817c-6.787 15.286.937 33.167 16.389 39.567s33.167-.937 39.567-16.389 11.635-28.088 21.722-52.443c10.088-24.354-51.587-29.499-77.678 29.265z" fill="#fd995b"/></g><g><path d="m195.671 85.817c6.787 15.286-.937 33.167-16.389 39.567s-33.167-.937-39.567-16.389-11.635-28.088-21.722-52.443c-10.088-24.354 51.587-29.499 77.678 29.265z" fill="#ef854b"/></g><g><path d="m167.705 112.697c-6.209 0-11.756-3.707-14.132-9.442l-20.208-48.787c.676-.078 1.458-.127 2.352-.127 10.981 0 33.079 7.912 46.244 37.563 1.531 3.448 1.575 7.346.125 10.977-1.554 3.888-4.668 7.039-8.544 8.645-1.877.777-3.84 1.171-5.837 1.171z" fill="#e0733d"/></g><g><path d="m338.458 111.526c-3.876-1.605-6.991-4.756-8.544-8.645-1.451-3.631-1.406-7.529.125-10.977 13.165-29.652 35.263-37.563 46.244-37.563.894 0 1.676.05 2.352.127l-20.208 48.787c-2.376 5.736-7.923 9.442-14.132 9.442-1.997 0-3.96-.394-5.837-1.171z" fill="#ef854b"/></g><g><path d="m337.081 174.151c6.166-19.259 9.643-39.776 9.643-59.309 0-66.807-40.619-114.842-90.724-114.842s-90.724 48.035-90.724 114.842c0 19.532 3.477 40.05 9.643 59.309z" fill="#fcad6d"/></g><g><path d="m206.704 114.842c0-57.305 29.886-100.795 70.01-112.008-6.653-1.859-13.587-2.834-20.714-2.834-50.105 0-90.724 48.035-90.724 114.842 0 19.532 3.477 40.05 9.643 59.309h41.426c-6.166-19.259-9.641-39.776-9.641-59.309z" fill="#fd995b"/></g><g><path d="m220.863 249.015h70.273c35.823 0 64.863-29.04 64.863-64.863 0-14.348-9.181-27.086-22.792-31.623-50.116-16.705-104.299-16.705-154.415 0-13.611 4.536-22.792 17.274-22.792 31.622 0 35.823 29.04 64.864 64.863 64.864z" fill="#f9ba8f"/></g><g><path d="m209.203 144.538c-10.255 2.003-20.414 4.659-30.41 7.991-13.612 4.536-22.793 17.274-22.793 31.622 0 35.823 29.04 64.864 64.863 64.864h70.273c-46.203-15.943-75.582-52.993-81.933-104.477z" fill="#fcad6d"/></g><g><path d="m405.355 398.602-21.329 30.296c-4.164 5.915-10.946 9.434-18.18 9.434h-71.621c-10.497 0-19.564-7.342-21.747-17.609l-9.764-45.924c-.674-3.17-3.473-5.437-6.714-5.437-3.241 0-6.04 2.267-6.714 5.437l-9.764 45.924c-2.183 10.268-11.25 17.609-21.747 17.609h-71.621c-7.234 0-14.016-3.519-18.18-9.434l-21.329-30.296c-4.622-6.566-14.827-1.215-12.055 6.321l10.512 28.581c1.34 3.644 1.591 7.599.721 11.383l-3.052 13.281c15.094 12.114 31.653 22.476 49.369 30.781l-.826-4.518c-2.495-13.654 7.991-26.231 21.871-26.231h44.588c10.497 0 19.564 7.342 21.747 17.609l7.659 36.022c.763.027 1.525.06 2.29.08.172.004.345.008.517.012 2 .049 4.004.077 6.014.077s4.014-.028 6.013-.076c.172-.004.344-.007.517-.012.765-.02 1.526-.053 2.29-.08l7.659-36.022c2.183-10.268 11.25-17.609 21.747-17.609h44.588c13.88 0 24.366 12.577 21.871 26.231l-.826 4.518c17.717-8.305 34.275-18.667 49.369-30.781l-3.052-13.281c-.87-3.784-.619-7.739.721-11.383l10.512-28.581c2.773-7.537-7.432-12.888-12.054-6.322z" fill="#ef854b"/></g><g><path d="m111.485 238.528c-25.951 6.208-89.01 27.758-92.402 91.071 27.666 104.982 123.245 182.401 236.917 182.401 37.125 0 72.312-8.273 103.843-23.051-191.32-.011-229.601-194.156-236.133-242.039-.8-5.863-6.47-9.759-12.225-8.382z" fill="#b76c4e"/></g><g><path d="m219.936 40.467c-8.625 8.984-13.936 21.174-13.936 34.611 0 27.614 22.386 50 50 50s50-22.386 50-50c0-13.437-5.311-25.627-13.935-34.611-24.196 5.416-47.936 5.415-72.129 0z" fill="#e9efff"/></g><g><path d="m268.219 44.067c-8.152.625-16.287.625-24.438 0-12.362 4.875-21.114 16.917-21.114 31.012 0 18.409 14.924 33.333 33.333 33.333s33.333-14.924 33.333-33.333c0-14.095-8.751-26.137-21.114-31.012z" fill="#3c5082"/></g><g><circle cx="256" cy="75.078" fill="#162544" r="20.833"/></g><g><g><path d="m302.659 53.775c-31.437 9.028-61.885 9.026-93.318 0-7.059-2.027-10.75-9.792-7.966-16.589.028-.07.057-.139.086-.209 2.384-5.819 8.757-8.95 14.806-7.231 26.918 7.652 52.587 7.641 79.465 0 6.049-1.72 12.423 1.41 14.807 7.23.029.07.057.14.086.209 2.784 6.798-.907 14.563-7.966 16.59z" fill="#f9ba8f"/></g></g></g></svg>