<svg id="Capa_1" enable-background="new 0 0 512 512" height="512" viewBox="0 0 512 512" width="512" xmlns="http://www.w3.org/2000/svg"><g><g><path d="m456.969 407.139c27.744-39.712 44.031-88.02 44.031-140.139 0-135.31-109.69-245-245-245s-245 109.69-245 245c0 52.119 16.287 100.427 44.031 140.139z" fill="#2d3c6b"/></g><g><circle cx="256" cy="242" fill="#213159" r="200"/></g><g><g><path d="m85.213 219.525h-25.425c-2.761 0-5-2.239-5-5 0-15.189 12.313-27.502 27.502-27.502 22.227 0 40.242-18.023 40.234-40.249l-.025-52.346c-.056-8.82 7.078-16 15.899-16h.497c9.044 0 16.366 7.344 16.331 16.387-.004.928-.012 54.718-.012 54.718-.006 38.657-31.344 69.992-70.001 69.992z" fill="#21b75d"/></g><g><circle cx="79.29" cy="202.073" fill="#14a34d" r="5.452"/></g><g><path d="m138.894 78.428h-.497c-8.82 0-15.955 7.18-15.899 16l.025 52.346c.005 12.434-5.634 23.549-14.492 30.933 2.733-1.888 6.043-3 9.616-3 9.359 0 16.947 7.587 16.947 16.947 0 4.66-1.883 8.88-4.927 11.943 15.596-12.837 25.543-32.288 25.546-54.064 0 0 .009-53.791.012-54.718.035-9.044-7.287-16.387-16.331-16.387z" fill="#14a34d"/></g></g><g><g><path d="m426.787 219.525h25.425c2.761 0 5-2.239 5-5 0-15.189-12.313-27.502-27.502-27.502-22.227 0-40.242-18.023-40.234-40.249l.025-52.346c.056-8.82-7.078-16-15.899-16h-.497c-9.044 0-16.366 7.344-16.331 16.387.004.928.012 54.718.012 54.718.006 38.657 31.344 69.992 70.001 69.992z" fill="#21b75d"/></g><g><circle cx="432.71" cy="202.073" fill="#14a34d" r="5.452"/></g><g><path d="m373.106 78.428h.497c8.82 0 15.955 7.18 15.899 16l-.025 52.346c-.005 12.434 5.634 23.549 14.492 30.933-2.733-1.888-6.043-3-9.616-3-9.359 0-16.947 7.587-16.947 16.947 0 4.66 1.883 8.88 4.927 11.943-15.596-12.837-25.543-32.288-25.546-54.064 0 0-.009-53.791-.012-54.718-.035-9.044 7.287-16.387 16.331-16.387z" fill="#14a34d"/></g></g><g><path d="m456.949 407.139c-8.256-22.709-16.99-42.685-24.722-51.911-.904-1.078-1.795-2.019-2.668-2.79-6.623-5.848-19.39-11.382-34.352-16.323-37.928-12.525-89.968-21.232-91.82-21.54h-94.772c-1.853.307-53.892 9.014-91.82 21.54-14.961 4.941-27.729 10.475-34.352 16.323-.874.772-1.765 1.712-2.668 2.79-7.732 9.226-16.467 29.203-24.722 51.911-.001.009-.001.018-.002.026 17.679 25.299 40.016 47.101 65.762 64.172l.002-.008h52.315s49.133 40.67 82.872 40.67 82.872-40.67 82.872-40.67h52.315l.002.008c25.745-17.071 48.082-38.873 65.762-64.172-.003-.008-.003-.017-.004-.026z" fill="#f3d6ac"/></g><g><path d="m120.812 471.33h52.315s49.133 40.67 82.872 40.67c-97.666-30.364-114.074-137.112-116.569-182.561-7.761 2.068-15.452 4.303-22.637 6.676-14.961 4.941-27.729 10.475-34.352 16.323-.874.772-1.765 1.712-2.668 2.79-7.732 9.226-16.467 29.203-24.722 51.911-.001.009-.001.018-.002.026 17.679 25.299 40.016 47.101 65.762 64.172z" fill="#eabe8d"/></g><g><path d="m256 512c9.878 0 21.076-3.489 31.974-8.42-14.917-8.16-22.976-20.335-27.275-31.718-1.63-4.317-7.729-4.309-9.346.013-4.265 11.401-12.29 23.594-27.223 31.752 10.866 4.906 22.023 8.373 31.87 8.373z" fill="#eabe8d"/></g><g><path d="m276.616 369.362s10.767-11.809 23.703-11.809 55.191 11.809 55.191 11.809z" fill="#eabe8d"/></g><g><path d="m235.384 369.362s-10.767-11.809-23.703-11.809-55.191 11.809-55.191 11.809z" fill="#eabe8d"/></g><g><path d="m391.147 471.33c6.374-4.223 12.555-8.713 18.491-13.499-4.027-11.7-11.689-21.884-21.736-29.06v42.559z" fill="#eabe8d"/></g><g><path d="m124.098 471.33v-42.559c-10.047 7.176-17.708 17.36-21.736 29.06 5.936 4.786 12.117 9.277 18.491 13.499z" fill="#d8a97c"/></g><g><path d="m208.614 221.239v93.336s19.021 20.093 47.17 20.093c.073 0 .143-.005.216-.005 28.031-.103 47.386-20.088 47.386-20.088v-93.336z" fill="#f3d6ac"/></g><g><path d="m208.614 220.734v93.841c71.024 0 94.772-53.4 94.772-53.4v-40.44h-94.772z" fill="#eabe8d"/></g><g><path d="m123.525 430.01c-5.083 11.116-6.792 23.941-3.878 37.022.604 2.713 1.146 4.246 1.165 4.298v.009c38.749 25.687 85.216 40.661 135.188 40.661-50.211-29.794-85.836-101.359-87.435-188.45-.058-3.163-3.008-5.477-6.092-4.774-7.283 1.659-14.914 3.508-22.491 5.517-2.18.578-3.696 2.53-3.728 4.785-.521 36.74-6.887 76.281-12.729 100.932z" fill="#e9efff"/></g><g><path d="m388.475 430.01c5.083 11.116 6.792 23.941 3.878 37.022-.604 2.713-1.146 4.246-1.165 4.298v.009c-38.749 25.687-85.216 40.661-135.188 40.661 50.211-29.794 85.836-101.359 87.435-188.45.058-3.163 3.008-5.477 6.092-4.774 7.283 1.659 14.914 3.508 22.491 5.517 2.18.578 3.696 2.53 3.728 4.785.521 36.74 6.887 76.281 12.729 100.932z" fill="#fff"/></g><g><g><path d="m215.21 353.982c19.039-19.039 19.039-49.907 0-68.946l-11.491-11.491c-6.334-6.334-6.302-16.615.073-22.909l4.515-4.458c6.277-6.197 6.309-16.319.072-22.557l-.351-.351c-6.395-6.395-16.765-6.38-23.136.04-1.352 1.363-2.78 2.8-4.259 4.287-18.967 19.077-18.919 49.907.103 68.929l11.491 11.491c6.346 6.346 6.346 16.636 0 22.982l-4.813 4.813c-10.74 10.74-10.74 28.153 0 38.893 1.953 1.953 5.118 1.953 7.071 0z" fill="#21b75d"/></g><g><circle cx="194.098" cy="346.739" fill="#14a34d" r="5.452"/></g><g><path d="m192.227 331c6.346-6.346 16.636-6.346 22.982 0s6.346 16.636 0 22.982c19.039-19.039 19.039-49.907 0-68.946l-11.491-11.491c-6.346-6.346-6.346-16.636 0-22.982l4.309-4.309c6.346-6.346 6.346-16.636 0-22.982-6.346-6.346-16.636-6.346-22.982 0l-4.309 4.309c-19.039 19.039-19.039 49.907 0 68.946l11.491 11.491c6.347 6.346 6.347 16.635 0 22.982" fill="#14a34d"/></g></g><g><g><path d="m121.266 318.649c26.925 0 48.752-21.827 48.752-48.752v-16.251c0-8.958 7.292-16.204 16.251-16.147l6.344.041c8.82.056 16.001-7.078 16.001-15.899v-.496c0-9.044-7.344-16.366-16.387-16.331-1.92.007-3.946.014-6.043.02-26.901.078-48.667 21.911-48.667 48.813v16.251c0 8.975-7.276 16.251-16.251 16.251h-6.807c-15.189 0-27.502 12.313-27.502 27.502 0 2.761 2.239 5 5 5h29.309z" fill="#38c674"/></g><g><circle cx="111.459" cy="298.599" fill="#14a34d" r="5.452"/></g><g><path d="m121.266 286.148c8.975 0 16.251 7.276 16.251 16.251s-7.276 16.251-16.251 16.251c26.925 0 48.752-21.827 48.752-48.752v-16.251c0-8.975 7.276-16.251 16.251-16.251h6.094c8.975 0 16.251-7.276 16.251-16.251 0-8.975-7.276-16.251-16.251-16.251h-6.094c-26.925 0-48.752 21.827-48.752 48.752v16.251c0 8.975-7.276 16.251-16.251 16.251" fill="#21b75d"/></g></g><g><g><path d="m110.93 261.74h-25.425c-2.761 0-5-2.239-5-5 0-15.189 12.313-27.502 27.502-27.502 22.227 0 40.242-18.023 40.234-40.249l-.025-22.346c-.056-8.82 7.078-16 15.899-16h.497c9.044 0 16.366 7.344 16.331 16.387-.004.928-.012 24.718-.012 24.718-.006 38.657-31.344 69.992-70.001 69.992z" fill="#49d88b"/></g><g><circle cx="105.007" cy="241.69" fill="#21b75d" r="5.452"/></g><g><path d="m164.611 150.643h-.497c-8.82 0-15.955 7.18-15.899 16l.025 22.346c.005 12.434-5.634 23.549-14.492 30.933 2.733-1.888 6.043-3 9.616-3 9.359 0 16.947 7.587 16.947 16.947 0 4.66-1.883 8.88-4.927 11.943 15.596-12.837 25.543-32.288 25.546-54.064 0 0 .009-23.791.012-24.718.035-9.043-7.287-16.387-16.331-16.387z" fill="#38c674"/></g></g><g><g><path d="m296.79 353.982c-19.039-19.039-19.039-49.907 0-68.946l11.491-11.491c6.334-6.334 6.302-16.615-.073-22.909l-4.515-4.458c-6.277-6.197-6.309-16.319-.072-22.557l.351-.351c6.395-6.395 16.765-6.38 23.136.04 1.352 1.363 2.78 2.8 4.259 4.287 18.967 19.077 18.919 49.907-.103 68.929l-11.491 11.491c-6.346 6.346-6.346 16.636 0 22.982l4.813 4.813c10.74 10.74 10.74 28.153 0 38.893-1.953 1.953-5.118 1.953-7.071 0z" fill="#21b75d"/></g><g><circle cx="317.902" cy="346.739" fill="#14a34d" r="5.452"/></g><g><path d="m319.773 331c-6.346-6.346-16.636-6.346-22.982 0s-6.346 16.636 0 22.982c-19.039-19.039-19.039-49.907 0-68.946l11.491-11.491c6.346-6.346 6.346-16.636 0-22.982l-4.309-4.309c-6.346-6.346-6.346-16.636 0-22.982 6.346-6.346 16.636-6.346 22.982 0l4.309 4.309c19.039 19.039 19.039 49.907 0 68.946l-11.491 11.491c-6.347 6.346-6.347 16.635 0 22.982" fill="#14a34d"/></g></g><g><g><path d="m390.734 318.649c-26.925 0-48.752-21.827-48.753-48.752v-16.251c0-8.958-7.292-16.204-16.25-16.147l-6.344.041c-8.82.056-16.001-7.078-16.001-15.899v-.496c0-9.044 7.344-16.366 16.387-16.331 1.92.007 3.946.014 6.043.02 26.901.078 48.667 21.911 48.667 48.813v16.251c0 8.975 7.276 16.251 16.251 16.251h6.807c15.189 0 27.502 12.313 27.502 27.502 0 2.761-2.239 5-5 5h-29.309z" fill="#38c674"/></g><g><circle cx="400.541" cy="298.599" fill="#14a34d" r="5.452"/></g><g><path d="m390.734 286.148c-8.975 0-16.251 7.276-16.251 16.251s7.276 16.251 16.251 16.251c-26.925 0-48.752-21.827-48.752-48.752v-16.251c0-8.975-7.276-16.251-16.251-16.251h-6.094c-8.975 0-16.251-7.276-16.251-16.251 0-8.975 7.276-16.251 16.251-16.251h6.094c26.925 0 48.752 21.827 48.752 48.752v16.251c0 8.975 7.276 16.251 16.251 16.251" fill="#21b75d"/></g></g><g><g><path d="m401.07 261.74h25.425c2.761 0 5-2.239 5-5 0-15.189-12.313-27.502-27.502-27.502-22.227 0-40.242-18.023-40.234-40.249l.025-22.346c.056-8.82-7.078-16-15.899-16h-.497c-9.044 0-16.366 7.344-16.331 16.387.004.928.012 24.718.012 24.718.006 38.657 31.344 69.992 70.001 69.992z" fill="#49d88b"/></g><g><circle cx="406.993" cy="241.69" fill="#21b75d" r="5.452"/></g><g><path d="m347.389 150.643h.497c8.82 0 15.955 7.18 15.899 16l-.025 22.346c-.005 12.434 5.634 23.549 14.492 30.933-2.733-1.888-6.043-3-9.616-3-9.359 0-16.947 7.587-16.947 16.947 0 4.66 1.883 8.88 4.927 11.943-15.596-12.837-25.543-32.288-25.546-54.064 0 0-.009-23.791-.012-24.718-.035-9.043 7.287-16.387 16.331-16.387z" fill="#38c674"/></g></g><g><g><path d="m331.058 159.567s10.385-25.285 28.897-19.415 7.228 57.736-28.897 61.189z" fill="#f3d6ac"/></g></g><g><g><path d="m180.942 159.567s-10.385-25.285-28.897-19.415-7.228 57.736 28.897 61.189z" fill="#eabe8d"/></g></g><g><path d="m343.597 146.754c0 64.505-39.219 140.155-87.597 140.155s-87.597-75.651-87.597-140.155 39.218-110.884 87.597-110.884 87.597 46.38 87.597 110.884z" fill="#f8e6cc"/></g><g><path d="m208.403 146.754c0-55.33 28.856-97.321 67.597-108.148-6.424-1.795-13.119-2.737-20-2.737-48.379 0-87.597 46.38-87.597 110.885s39.219 140.155 87.597 140.155c6.881 0 13.576-1.535 20-4.346-38.741-16.952-67.597-80.479-67.597-135.809z" fill="#f3d6ac"/></g><g><g><path d="m256 45.559h-40v-25.559c0-11.046 8.954-20 20-20 11.046 0 20 8.954 20 20z" fill="#38c674"/></g><g><path d="m296 45.559h-40v-25.559c0-11.046 8.954-20 20-20 11.046 0 20 8.954 20 20z" fill="#38c674"/></g></g><g><path d="m221.218 148.301-19.319-5.176c-4.001-1.072-6.375-5.185-5.303-9.186 1.072-4.001 5.185-6.375 9.186-5.303l19.319 5.176c4.001 1.072 6.375 5.185 5.303 9.186-1.072 4-5.185 6.375-9.186 5.303z" fill="#21b75d"/></g><g><path d="m310.1 143.124-19.319 5.176c-4.001 1.072-8.114-1.302-9.186-5.303-1.072-4.001 1.302-8.114 5.303-9.186l19.319-5.176c4.001-1.072 8.114 1.302 9.186 5.303 1.073 4.002-1.302 8.114-5.303 9.186z" fill="#21b75d"/></g><g><path d="m223.5 158.229c0 5.523-4.477 10-10 10s-10-4.477-10-10 20-5.523 20 0z" fill="#162544"/></g><g><path d="m288.5 158.229c0 5.523 4.477 10 10 10s10-4.477 10-10-20-5.523-20 0z" fill="#162544"/></g><g><g><path d="m242.013 192.447 8.436-13.441c2.569-4.093 8.533-4.093 11.102 0l8.436 13.441c2.739 4.365-.398 10.038-5.551 10.038h-16.871c-5.154-.001-8.291-5.674-5.552-10.038z" fill="#eabe8d"/></g></g><g><g><path d="m276.614 242.667c-1.176 0-2.356-.413-3.308-1.252-4.78-4.221-10.927-6.546-17.307-6.546s-12.526 2.325-17.307 6.546c-2.071 1.827-5.23 1.63-7.058-.438-1.828-2.07-1.632-5.23.438-7.058 6.609-5.836 15.106-9.05 23.926-9.05s17.316 3.214 23.926 9.05c2.07 1.828 2.267 4.988.438 7.058-.986 1.119-2.364 1.69-3.748 1.69z" fill="#eabe8d"/></g></g><g><g><path d="m116.998 165.428c26.008 6.969 52.741-8.465 59.709-34.473l4.206-15.697c2.319-8.653 11.238-13.765 19.876-11.391l6.118 1.681c8.505 2.337 17.288-2.696 19.571-11.216l.128-.479c2.341-8.736-2.858-17.709-11.602-20.016-1.856-.49-3.815-1.008-5.842-1.545-26.005-6.887-52.68 8.569-59.643 34.554l-4.206 15.697c-2.323 8.669-11.234 13.814-19.903 11.491l-6.575-1.762c-14.671-3.931-29.751 4.775-33.683 19.447-.715 2.667.868 5.409 3.536 6.124z" fill="#38c674"/></g><g><circle cx="112.714" cy="143.523" fill="#14a34d" r="5.452"/></g><g><path d="m125.41 134.034c8.669 2.323 13.814 11.234 11.491 19.903s-11.234 13.814-19.903 11.491c26.008 6.969 52.741-8.465 59.709-34.473l4.206-15.697c2.323-8.669 11.234-13.814 19.903-11.491l5.886 1.577c8.669 2.323 17.58-2.822 19.903-11.491 2.323-8.669-2.822-17.58-11.491-19.903l-5.886-1.577c-26.008-6.969-52.741 8.465-59.709 34.473l-4.206 15.697c-2.323 8.669-11.234 13.814-19.903 11.491" fill="#21b75d"/></g></g><g><g><path d="m395.002 165.428c-26.008 6.969-52.741-8.465-59.709-34.473l-4.206-15.697c-2.319-8.653-11.238-13.765-19.876-11.391l-6.118 1.681c-8.505 2.337-17.288-2.696-19.571-11.216l-.128-.479c-2.341-8.736 2.858-17.709 11.602-20.016 1.856-.49 3.815-1.008 5.842-1.545 26.005-6.887 52.68 8.569 59.643 34.554l4.206 15.697c2.323 8.669 11.234 13.814 19.903 11.491l6.575-1.762c14.671-3.931 29.751 4.775 33.682 19.447.715 2.667-.868 5.409-3.536 6.124z" fill="#38c674"/></g><g><circle cx="399.286" cy="143.523" fill="#14a34d" r="5.452"/></g><g><path d="m386.59 134.034c-8.669 2.323-13.814 11.234-11.491 19.903s11.234 13.814 19.903 11.491c-26.008 6.969-52.741-8.465-59.709-34.473l-4.206-15.697c-2.323-8.669-11.234-13.814-19.903-11.491l-5.886 1.577c-8.669 2.323-17.58-2.822-19.903-11.491-2.323-8.669 2.822-17.58 11.491-19.903l5.886-1.577c26.008-6.969 52.741 8.465 59.709 34.473l4.206 15.697c2.323 8.669 11.234 13.814 19.903 11.491" fill="#21b75d"/></g></g><g><g><path d="m363.159 30.502 2.067 2.067c10.74 10.74 10.74 28.153 0 38.893-1.953 1.953-5.118 1.953-7.071 0l-15.911-15.911c-15.717-15.717-41.2-15.712-56.91.011l-1.641 1.676c-6.197 6.277-16.319 6.309-22.556.072l-.351-.351c-6.395-6.395-6.38-16.765.04-23.136.659-.654 3.345-3.328 3.345-3.328 27.337-27.329 71.654-27.327 98.988.007z" fill="#21b75d"/></g><g><circle cx="358.543" cy="43.496" fill="#14a34d" r="5.452"/></g><g><path d="m260.786 56.96.351.351c6.237 6.237 16.359 6.205 22.556-.072l1.641-1.676c8.789-8.796 20.635-12.668 32.12-11.625-3.268-.597-6.394-2.152-8.921-4.679-6.618-6.618-6.618-17.348 0-23.966 3.295-3.295 7.61-4.947 11.93-4.961-20.105-1.952-40.893 4.768-56.292 20.165 0 0-2.687 2.674-3.345 3.328-6.42 6.37-6.435 16.74-.04 23.135z" fill="#14a34d"/></g></g><g><g><path d="m148.841 30.502-2.067 2.067c-10.74 10.74-10.74 28.153 0 38.893 1.953 1.953 5.118 1.953 7.071 0l15.911-15.911c15.717-15.717 41.2-15.712 56.91.011l1.641 1.676c6.197 6.277 16.319 6.309 22.556.072l.351-.351c6.395-6.395 6.38-16.765-.04-23.136-.659-.654-3.345-3.328-3.345-3.328-27.337-27.329-71.654-27.327-98.988.007z" fill="#21b75d"/></g><g><circle cx="153.457" cy="43.496" fill="#14a34d" r="5.452"/></g><g><path d="m251.214 56.96-.351.351c-6.237 6.237-16.359 6.205-22.556-.072l-1.641-1.676c-8.789-8.796-20.635-12.668-32.12-11.625 3.268-.597 6.394-2.152 8.921-4.679 6.618-6.618 6.618-17.348 0-23.966-3.295-3.295-7.61-4.947-11.93-4.961 20.105-1.951 40.892 4.769 56.292 20.165 0 0 2.687 2.674 3.345 3.328 6.42 6.37 6.435 16.74.04 23.135z" fill="#14a34d"/></g></g><g><g><path d="m109.385 87.175c19.039 19.039 49.907 19.039 68.946 0l11.491-11.491c6.334-6.334 16.615-6.302 22.909.073l4.458 4.515c6.197 6.277 16.319 6.309 22.557.072l.351-.351c6.395-6.395 6.38-16.765-.04-23.136-1.363-1.352-2.8-2.78-4.287-4.259-19.077-18.967-49.907-18.919-68.929.103l-11.491 11.491c-6.346 6.346-16.636 6.346-22.982 0l-4.813-4.813c-10.74-10.74-28.153-10.74-38.893 0-1.953 1.953-1.953 5.118 0 7.071z" fill="#49d88b"/></g><g><circle cx="116.628" cy="66.063" fill="#21b75d" r="5.452"/></g><g><path d="m132.368 64.192c6.346 6.346 6.346 16.636 0 22.982s-16.636 6.346-22.982 0c19.039 19.039 49.907 19.039 68.946 0l11.491-11.491c6.346-6.346 16.636-6.346 22.982 0l4.309 4.309c6.346 6.346 16.636 6.346 22.982 0 6.346-6.346 6.346-16.636 0-22.982l-4.309-4.309c-19.039-19.039-49.907-19.039-68.946 0l-11.491 11.491c-6.347 6.347-16.636 6.347-22.982 0" fill="#38c674"/></g></g><g><g><path d="m402.615 87.175c-19.039 19.039-49.907 19.039-68.946 0l-11.491-11.491c-6.334-6.334-16.615-6.302-22.909.073l-4.458 4.515c-6.197 6.277-16.319 6.309-22.557.072l-.351-.351c-6.395-6.395-6.38-16.765.04-23.136 1.363-1.352 2.8-2.78 4.287-4.259 19.077-18.967 49.907-18.919 68.929.103l11.491 11.491c6.346 6.346 16.636 6.346 22.982 0l4.813-4.813c10.74-10.74 28.153-10.74 38.893 0 1.953 1.953 1.953 5.118 0 7.071z" fill="#49d88b"/></g><g><circle cx="395.372" cy="66.063" fill="#21b75d" r="5.452"/></g><g><path d="m379.632 64.192c-6.346 6.346-6.346 16.636 0 22.982s16.636 6.346 22.982 0c-19.039 19.039-49.907 19.039-68.946 0l-11.491-11.491c-6.346-6.346-16.636-6.346-22.982 0l-4.309 4.309c-6.346 6.346-16.636 6.346-22.982 0-6.346-6.346-6.346-16.636 0-22.982l4.309-4.309c19.039-19.039 49.907-19.039 68.946 0l11.491 11.491c6.347 6.347 16.636 6.347 22.982 0" fill="#38c674"/></g></g></g></svg>