<svg id="Capa_1" enable-background="new 0 0 512 512" height="512" viewBox="0 0 512 512" width="512" xmlns="http://www.w3.org/2000/svg"><g><g><path d="m445.935 421.748c34.417-42.19 55.065-96.055 55.065-154.748 0-135.31-109.69-245-245-245s-245 109.69-245 245c0 58.693 20.649 112.558 55.065 154.748z" fill="#ff4155"/></g><g><circle cx="256" cy="242" fill="#e80054" r="200"/></g><g><g><path d="m256 512c76.617 0 145.009-35.177 189.935-90.252 8.202-15.543 11.619-33.277 9.265-50.757-1.35-10.029-4.586-20.269-11.004-29.276-13.123-18.418-31.805-26.762-45.048-30.515-9.585-2.716-17.909-8.565-23.886-16.535-21.752-29.011-64.654-40.536-64.654-40.536h-109.217s-42.901 11.526-64.654 40.536c-5.976 7.97-14.301 13.819-23.885 16.535-13.243 3.753-31.926 12.097-45.049 30.515-6.417 9.007-9.654 19.247-11.004 29.276-2.353 17.48 1.063 35.214 9.266 50.757 44.926 55.075 113.318 90.252 189.935 90.252z" fill="#fcad6d"/></g><g><path d="m390.989 307.979c-6.151-3.155-11.522-7.706-15.726-13.314-21.753-29.011-64.654-40.536-64.654-40.536h-109.218s-42.901 11.526-64.654 40.536c-4.205 5.608-9.576 10.159-15.727 13.314 33.396-11.096 84.508-4.289 121.609 38.276 7.051 8.09 19.71 8.09 26.761 0 37.101-42.566 88.213-49.372 121.609-38.276z" fill="#fd995b"/></g><g><path d="m389.427 420.695-19.054 27.065c-3.72 5.284-9.779 8.428-16.241 8.428h-63.983c-9.378 0-17.478-6.559-19.428-15.731l-8.723-41.027c-.602-2.832-3.103-4.857-5.998-4.857-2.895 0-5.396 2.025-5.998 4.857l-8.723 41.027c-1.95 9.173-10.05 15.731-19.428 15.731h-63.983c-6.462 0-12.521-3.144-16.241-8.428l-19.054-27.065c-4.13-5.866-13.246-1.086-10.77 5.647l9.391 25.533c1.197 3.255 1.421 6.789.645 10.169l-1.99 8.66c13.247 8.872 27.409 16.481 42.312 22.666.208-10.546 8.83-19.433 19.856-19.433h39.833c9.378 0 17.478 6.559 19.428 15.731l4.701 22.111c3.325.134 6.662.22 10.02.22s6.695-.087 10.02-.22l4.701-22.111c1.95-9.173 10.05-15.731 19.428-15.731h39.833c11.027 0 19.648 8.887 19.856 19.433 14.903-6.185 29.065-13.794 42.312-22.666l-1.99-8.66c-.777-3.38-.553-6.914.645-10.169l9.391-25.533c2.478-6.733-6.638-11.513-10.768-5.647z" fill="#fd995b"/></g></g><g><path d="m333.48 46.073s-.921-27.711-14.708-34.073-28.523-12-62.772-12-48.985 5.638-62.772 12-14.708 34.073-14.708 34.073c-17.176 18.715-27.663 43.666-27.663 71.07v30.076h210.286v-30.076c0-27.404-10.488-52.356-27.663-71.07z" fill="#b76c4e"/></g><g><path d="m225.46 88.696c-33.737-15.087-37.396-76.331-8.841-85.005-9.523 2.198-16.575 5.165-23.391 8.31-13.787 6.362-14.708 34.073-14.708 34.073-17.176 18.715-27.663 43.666-27.663 71.07v30.076h74.603z" fill="#a05838"/></g><g><path d="m325.855 156.509c-12.076 11.572-11.707 31.046.165 42.827s31.046 11.707 42.827-.165 21.415-21.58 39.983-40.292c18.568-18.711-36.553-46.855-82.975-2.37z" fill="#fcad6d"/></g><g><path d="m336.586 188.689c-2.978-2.955-4.666-7.052-4.629-11.239.034-3.91 1.553-7.5 4.277-10.11 23.424-22.447 46.871-21.39 57.033-17.227.827.339 1.532.682 2.128 1.01l-37.196 37.483c-4.373 4.407-10.911 5.734-16.657 3.38-1.847-.758-3.514-1.867-4.956-3.297z" fill="#fd995b"/></g><g><path d="m186.145 156.509c12.076 11.572 11.707 31.046-.165 42.827s-31.046 11.707-42.827-.165-21.415-21.58-39.983-40.292 36.553-46.855 82.975-2.37z" fill="#fd995b"/></g><g><path d="m170.457 191.985c-5.745 2.354-12.283 1.027-16.657-3.38l-37.196-37.483c.596-.328 1.301-.671 2.128-1.01 10.162-4.163 33.609-5.22 57.033 17.227 2.724 2.61 4.243 6.201 4.277 10.11.036 4.187-1.651 8.283-4.629 11.239-1.441 1.431-3.108 2.54-4.956 3.297z" fill="#ef854b"/></g><g><path d="m327.049 124.754c-3.509-10.287-9.219-24.496-16.225-32.717-3.978-3.853-8.145-7.046-12.399-9.103-8.195-3.963-15.758-4.069-22.16-2.497-13.314 3.269-27.216 3.268-40.53 0-6.402-1.572-13.966-1.466-22.16 2.497-4.254 2.057-8.421 5.25-12.399 9.103-7.006 8.221-12.716 22.43-16.225 32.717-2.762 8.097-8.72 14.703-16.484 18.295-.031 1.23-.063 2.46-.063 3.705 0 64.505 39.219 140.155 87.597 140.155s87.597-75.651 87.597-140.155c0-1.245-.032-2.475-.063-3.705-7.766-3.592-13.724-10.198-16.486-18.295z" fill="#f9ba8f"/></g><g><path d="m208.403 146.754c0-25.925 6.339-48.917 17.057-67.152-3.755.312-7.739 1.327-11.885 3.333-4.254 2.057-8.421 5.25-12.399 9.103-7.006 8.221-12.716 22.43-16.225 32.717-2.762 8.097-8.72 14.703-16.484 18.295-.031 1.23-.063 2.46-.063 3.705 0 64.505 39.219 140.155 87.597 140.155 6.881 0 13.576-1.535 20-4.346-38.742-16.953-67.598-80.48-67.598-135.81z" fill="#fcad6d"/></g><g><path d="m345.269 134.364h-9.758c-25.532 55.279-28.419 82.519-28.419 82.519s-18.9-30.522-51.092-30.522-51.092 30.522-51.092 30.522-2.887-27.24-28.419-82.519h-9.758c-15.874 113.232 33.971 170.211 89.269 170.211s105.143-56.979 89.269-170.211z" fill="#b76c4e"/></g><g><path d="m204.908 216.884s-2.887-27.24-28.419-82.519h-9.758c-15.874 113.231 33.971 170.21 89.269 170.21-49.255-13.659-60.532-70.596-51.092-87.691z" fill="#a05838"/></g><g><g><path d="m235.384 240.87h41.233c4.111-3.622 7.258-8.309 9.01-13.631 1.584-4.811-2.069-9.754-7.134-9.754h-44.985c-5.065 0-8.718 4.943-7.134 9.754 1.752 5.322 4.899 10.009 9.01 13.631z" fill="#162544"/></g><g><path d="m276.616 240.87c-5.493 4.849-12.714 7.798-20.616 7.798s-15.124-2.948-20.616-7.798c5.5-4.849 12.714-7.798 20.616-7.798s15.116 2.949 20.616 7.798z" fill="#ff4155"/></g></g><g><path d="m228.696 78.428c-9.508 9.508-24.297 11.221-35.737 4.156-22.041-13.613-57.219-33.554-73.546-33.138-24.743.631-22.381 42.207-33.031 44.82s-19.239-50.956 9.883-80.078c24.809-24.809 79.549-16.514 129.164 20.43 14.212 10.583 15.797 31.28 3.267 43.81z" fill="#2d3c6b"/></g><g><path d="m283.304 78.428c9.508 9.508 24.297 11.221 35.737 4.156 22.041-13.613 57.219-33.554 73.546-33.138 24.743.631 22.381 42.207 33.031 44.82s19.238-50.955-9.884-80.077c-24.809-24.809-79.549-16.514-129.164 20.43-14.211 10.582-15.795 31.279-3.266 43.809z" fill="#2d3c6b"/></g><g><path d="m221.218 148.301-19.319-5.176c-4.001-1.072-6.375-5.185-5.303-9.186 1.072-4.001 5.185-6.375 9.186-5.303l19.319 5.176c4.001 1.072 6.375 5.185 5.303 9.186-1.072 4-5.185 6.375-9.186 5.303z" fill="#934a2e"/></g><g><path d="m310.1 143.124-19.319 5.176c-4.001 1.072-8.114-1.302-9.186-5.303-1.072-4.001 1.302-8.114 5.303-9.186l19.319-5.176c4.001-1.072 8.114 1.302 9.186 5.303 1.073 4.002-1.302 8.114-5.303 9.186z" fill="#934a2e"/></g><g><path d="m223.5 158.229c0 5.523-4.477 10-10 10s-10-4.477-10-10 20-5.523 20 0z" fill="#162544"/></g><g><path d="m288.5 158.229c0 5.523 4.477 10 10 10s10-4.477 10-10-20-5.523-20 0z" fill="#162544"/></g><g><g><path d="m242.013 192.447 8.436-13.441c2.569-4.093 8.533-4.093 11.102 0l8.436 13.441c2.739 4.365-.398 10.038-5.551 10.038h-16.871c-5.154-.001-8.291-5.674-5.552-10.038z" fill="#fcad6d"/></g></g><g><path d="m256.025 327.592h-.052c-40.789 0-71.553 38.04-61.893 77.669 1.421 5.828 3.645 11.314 6.905 16.163 1.472 2.19 5.057 1.076 6.166-1.87l5.626-14.947s4.86 37.947 40.323 55.719c1.819.912 3.978.912 5.798 0 35.463-17.772 40.323-55.719 40.323-55.719l5.626 14.947c1.109 2.947 4.694 4.06 6.166 1.87 3.247-4.829 5.467-10.293 6.889-16.097 9.715-39.644-21.061-77.735-61.877-77.735z" fill="#a05838"/></g><g><path d="m255.277 404.606-5.626 14.947c-1.109 2.947-4.694 4.06-6.166 1.87-3.26-4.849-5.484-10.335-6.905-16.163-7.89-32.367 11.188-63.669 40.668-74.056-6.614-2.33-13.75-3.612-21.224-3.612h-.052c-40.789 0-71.553 38.04-61.893 77.669 1.421 5.827 3.645 11.314 6.905 16.163 1.472 2.19 5.057 1.076 6.166-1.87l5.626-14.947s4.86 37.947 40.323 55.719c1.819.912 3.978.912 5.798 0 7.366-3.692 13.395-8.259 18.351-13.17-18.903-18.735-21.971-42.55-21.971-42.55z" fill="#934a2e"/></g><g><path d="m225.429 34.618c-15.053-11.209-30.575-19.762-45.593-25.572 9.49 4.782 16.004 14.607 16.004 25.959 0 16.049-13.01 29.059-29.059 29.059-3.1 0-6.085-.49-8.886-1.389 12.402 6.283 25.08 13.743 35.063 19.909 11.44 7.066 26.229 5.352 35.737-4.156 12.531-12.53 10.946-33.227-3.266-43.81z" fill="#213159"/></g><g><path d="m286.571 34.618c15.053-11.209 30.575-19.762 45.593-25.572-9.49 4.782-16.004 14.607-16.004 25.959 0 16.049 13.01 29.059 29.059 29.059 3.1 0 6.085-.49 8.886-1.389-12.402 6.283-25.08 13.743-35.063 19.909-11.44 7.066-26.229 5.352-35.737-4.156-12.531-12.53-10.946-33.227 3.266-43.81z" fill="#213159"/></g></g></svg>