<svg id="Capa_1" enable-background="new 0 0 512 512" height="512" viewBox="0 0 512 512" width="512" xmlns="http://www.w3.org/2000/svg"><g><g><path d="m35.108 373.106c-15.45-32.104-24.108-68.094-24.108-106.106 0-135.31 109.69-245 245-245s245 109.69 245 245c0 38.012-8.658 74.002-24.108 106.106z" fill="#ff4155"/></g><g><circle cx="256" cy="242" fill="#e80054" r="200"/></g><g><path d="m347.403 147.682c-.356 16.721 13.675 30.231 30.399 30.167 16.725-.064 30.231-13.675 30.167-30.399-.064-16.725-.117-30.402-.218-56.763s-58.979-7.286-60.348 56.995z" fill="#fcad6d"/></g><g><path d="m377.744 162.848c-4.196.016-8.285-1.687-11.22-4.674-2.74-2.789-4.205-6.402-4.125-10.173.691-32.436 18.018-48.268 28.147-52.51.824-.345 1.565-.601 2.219-.791l.203 52.806c.024 6.208-3.661 11.77-9.388 14.168-1.841.772-3.805 1.167-5.836 1.174z" fill="#fd995b"/></g><g><path d="m164.597 147.682c.356 16.721-13.675 30.231-30.399 30.167s-30.231-13.675-30.167-30.399c.064-16.725.117-30.402.218-56.763.102-26.362 58.979-7.286 60.348 56.995z" fill="#fcad6d"/></g><g><path d="m128.42 161.675c-5.727-2.398-9.412-7.959-9.388-14.168l.203-52.806c.653.189 1.395.446 2.219.791 10.129 4.241 27.456 20.074 28.147 52.51.08 3.771-1.384 7.385-4.125 10.173-2.935 2.986-7.024 4.69-11.22 4.674-2.031-.008-3.995-.403-5.836-1.174z" fill="#fd995b"/></g><g><path d="m262.53 511.912c94.517-2.473 175.704-58.474 214.362-138.806 3.74-17.764 7.01-49.908-10.23-74.106-14.689-20.617-35.602-29.957-50.426-34.158-10.729-3.041-20.047-9.587-26.737-18.509-24.349-32.474-72.372-45.375-72.372-45.375h-122.255s-48.023 12.902-72.372 45.375c-6.69 8.922-16.008 15.469-26.737 18.509-14.823 4.201-35.736 13.541-50.425 34.158-17.24 24.198-13.97 56.343-10.23 74.106 38.658 80.332 119.845 136.333 214.362 138.806.172.004.345.008.517.012 1.999.048 4.003.076 6.013.076s4.014-.028 6.013-.076c.172-.004.345-.008.517-.012z" fill="#752d19"/></g><g><path d="m407.103 261.237c-6.885-3.532-12.897-8.626-17.604-14.904-24.349-32.474-72.372-45.375-72.372-45.375h-122.255s-48.023 12.902-72.372 45.375c-4.707 6.277-10.719 11.372-17.604 14.904 37.383-12.42 94.596-4.802 136.126 42.845 7.893 9.055 22.063 9.055 29.956 0 41.529-47.647 98.743-55.266 136.125-42.845z" fill="#632111"/></g><g><path d="m405.355 398.602-21.329 30.296c-4.164 5.915-10.946 9.434-18.18 9.434h-71.621c-10.497 0-19.564-7.342-21.747-17.609l-9.764-45.924c-.674-3.17-3.473-5.437-6.714-5.437-3.241 0-6.04 2.267-6.714 5.437l-9.764 45.924c-2.183 10.268-11.25 17.609-21.747 17.609h-71.621c-7.234 0-14.016-3.519-18.18-9.434l-21.329-30.296c-4.622-6.566-14.827-1.215-12.055 6.321l10.512 28.581c1.34 3.644 1.591 7.599.721 11.383l-3.052 13.281c15.094 12.114 31.653 22.476 49.369 30.781l-.826-4.518c-2.495-13.654 7.991-26.231 21.871-26.231h44.588c10.497 0 19.564 7.342 21.747 17.609l7.659 36.022c.763.027 1.525.06 2.29.08.172.004.345.008.517.012 2 .049 4.004.077 6.014.077s4.014-.028 6.013-.076c.172-.004.344-.007.517-.012.765-.02 1.526-.053 2.29-.08l7.659-36.022c2.183-10.268 11.25-17.609 21.747-17.609h44.588c13.88 0 24.366 12.577 21.871 26.231l-.826 4.518c17.717-8.305 34.275-18.667 49.369-30.781l-3.052-13.281c-.87-3.784-.619-7.739.721-11.383l10.512-28.581c2.773-7.537-7.432-12.888-12.054-6.322z" fill="#632111"/></g><g><path d="m159.559 138.167v46.991c0 44.03-24.262 58.328-18.313 96.081.66 4.187 5.966 5.642 8.726 2.425l9.567-11.151s-8.164 29.342 6.285 65.84c1.632 4.121 7.45 4.197 9.224.135l8.065-18.468s-.563 32.654 26.011 58.024c3.051 2.913 8.125.959 8.441-3.247l1.136-15.072s.006.009.018.027c17.445 27.104 57.113 27.104 74.557 0l.018-.027 1.136 15.072c.317 4.206 5.391 6.16 8.441 3.247 26.574-25.371 26.011-58.024 26.011-58.024l8.065 18.468c1.774 4.062 7.592 3.987 9.224-.135 14.45-36.498 6.285-65.84 6.285-65.84l9.567 11.151c2.76 3.217 8.066 1.762 8.726-2.425 5.949-37.753-18.313-52.051-18.313-96.081 0-22.541 0-46.991 0-46.991z" fill="#823821"/></g><g><path d="m378.294 148.207c-1.911-13.457-3.275-26.993-4.269-40.548-6.888-93.962-59.581-107.659-118.025-107.659s-111.138 13.697-118.025 107.659c-.994 13.556-2.358 27.091-4.269 40.548-3.825 26.941-6.089 76.569 22.059 105.226 3.656 3.722 9.996 1.105 9.996-4.112 0-11.814.001-27.772.001-27.772s3.249 27.646 31.718 51.696c3.808 3.217 9.638.543 9.638-4.441 0-7.075 0-14.728 0-14.728s11.898 21.95 41.673 33.952c2.311.932 4.76 1.397 7.209 1.397s4.898-.466 7.209-1.397c29.774-12.002 41.673-33.952 41.673-33.952s0 7.653 0 14.728c0 4.985 5.831 7.658 9.638 4.441 28.469-24.049 31.718-51.696 31.718-51.696s0 15.958.001 27.772c0 5.217 6.34 7.833 9.996 4.112 28.147-28.657 25.883-78.285 22.059-105.226z" fill="#a05838"/></g><g><path d="m233.221 228.398 8.004-153.786c-26.413-4.984-53.246-55.271-17.072-72.749-44.662 6.042-80.575 29.362-86.178 105.795-.994 13.556-2.358 27.091-4.269 40.548-3.825 26.941-6.089 76.569 22.059 105.226 3.656 3.722 9.996 1.105 9.996-4.112 0-11.814.001-27.772.001-27.772s3.249 27.646 31.718 51.696c3.808 3.217 9.638.543 9.638-4.441 0-7.075 0-14.728 0-14.728s11.898 21.95 41.673 33.952c2.311.932 4.76 1.397 7.209 1.397s4.898-.466 7.209-1.397c1.33-.536 2.611-1.098 3.87-1.671-30.138-15.771-33.858-57.958-33.858-57.958z" fill="#934a2e"/></g><g><path d="m335.854 128.309c-1.871-19.931-11.054-38.33-25.856-51.808-14.802-13.477-33.979 0-53.998 0s-39.196-13.477-53.998 0-23.985 31.877-25.856 51.808c-.098 1.041-.145 2.132-.146 3.27-.004 9.262 3.309 18.221 9.064 25.478l33.132 41.775h75.608l33.132-41.775c5.755-7.257 9.068-16.216 9.064-25.478 0-1.138-.048-2.229-.146-3.27z" fill="#fcad6d"/></g><g><path d="m212.872 131.579c0-1.138.048-2.229.146-3.27 1.871-19.931 11.054-38.33 25.856-51.808.772-.703 1.556-1.328 2.351-1.89-14.543-3.158-28.115-8.225-39.223 1.89-14.802 13.477-23.985 31.877-25.856 51.808-.098 1.041-.145 2.132-.146 3.27-.004 9.262 3.309 18.221 9.064 25.478l33.132 41.775h36.872l-33.132-41.775c-5.755-7.257-9.067-16.216-9.064-25.478z" fill="#fd995b"/></g><g><circle cx="207.26" cy="122.839" fill="#162544" r="10"/></g><g><circle cx="304.74" cy="122.839" fill="#162544" r="10"/></g><g><path d="m214.978 120.911-19.319-5.176c-4.001-1.072-6.375-5.185-5.303-9.186 1.072-4.001 5.185-6.375 9.186-5.303l19.319 5.176c4.001 1.072 6.375 5.185 5.303 9.186-1.073 4.001-5.185 6.375-9.186 5.303z" fill="#ef854b"/></g><g><path d="m316.341 115.735-19.319 5.176c-4.001 1.072-8.113-1.302-9.186-5.303-1.072-4.001 1.302-8.114 5.303-9.186l19.319-5.176c4.001-1.072 8.114 1.302 9.186 5.303 1.072 4.001-1.302 8.114-5.303 9.186z" fill="#ef854b"/></g><g><path d="m256 108.126c-4.033 0-7.636 2.523-9.014 6.313l-14.254 39.191h46.537l-14.254-39.191c-1.379-3.79-4.982-6.313-9.015-6.313z" fill="#fd995b"/></g><g><path d="m256 143.553c-9.945 0-18.621 4.055-23.268 10.077 4.647 6.022 13.323 10.077 23.268 10.077s18.621-4.055 23.268-10.077c-4.647-6.022-13.323-10.077-23.268-10.077z" fill="#ef854b"/></g><g><path d="m233.221 228.398h45.558c23.224 0 42.051-18.827 42.051-42.051 0-9.302-5.952-17.56-14.776-20.501-32.49-10.83-67.616-10.83-100.107 0-8.824 2.941-14.776 11.199-14.776 20.501-.001 23.224 18.826 42.051 42.05 42.051z" fill="#f9ba8f"/></g><g><path d="m224.91 160.811c-6.393 1.281-12.727 2.957-18.963 5.035-8.824 2.941-14.776 11.199-14.776 20.501 0 23.224 18.827 42.051 42.051 42.051h45.558c-44.688 0-60.502-47.52-53.87-67.587z" fill="#fcad6d"/></g></g></svg>