<svg id="Capa_1" enable-background="new 0 0 506.489 506.489" height="512" viewBox="0 0 506.489 506.489" width="512" xmlns="http://www.w3.org/2000/svg"><g><g><path d="m32.352 369.091c-15.45-31.759-24.108-67.361-24.108-104.964 0-133.853 109.69-242.363 245-242.363s245 108.51 245 242.363c0 37.603-8.658 73.205-24.108 104.964z" fill="#73c3f9"/></g><g><ellipse cx="253.245" cy="239.395" fill="#4fabf7" rx="200" ry="197.847"/></g><g><path d="m338.059 24.033h-169.629l-26.536 106.293c-3.151 12.621 6.396 24.844 19.404 24.844h183.893c13.009 0 22.555-12.223 19.404-24.844z" fill="#3c5082"/></g><g><path d="m181.894 130.326 17.384-69.632 39.582 30.786c4.093 3.183 9.202 4.936 14.386 4.936s10.293-1.753 14.386-4.936l73.077-56.839-2.648-10.609h-169.631l-26.536 106.293c-3.151 12.621 6.396 24.844 19.404 24.844h40c-13.008.001-22.555-12.222-19.404-24.843z" fill="#2d3c6b"/></g><g><path d="m246.715 506.402c-94.517-2.447-175.704-57.845-214.362-137.312-3.74-17.573-7.01-49.371 10.23-73.309 14.689-20.395 35.602-29.634 50.426-33.79 10.729-3.008 20.047-9.484 26.737-18.31 24.349-32.124 72.372-44.887 72.372-44.887h122.255s48.023 12.763 72.372 44.887c6.69 8.826 16.008 15.302 26.737 18.31 14.824 4.156 35.737 13.395 50.426 33.79 17.24 23.937 13.97 55.736 10.23 73.309-38.658 79.467-119.845 134.865-214.362 137.312-.172.004-.345.008-.517.012-1.999.048-4.003.075-6.013.075s-4.014-.028-6.013-.075c-.174-.004-.346-.007-.518-.012z" fill="#2d3c6b"/></g><g><path d="m404.348 258.425c-6.885-3.494-12.897-8.534-17.604-14.743-24.349-32.124-72.372-44.887-72.372-44.887h-122.255s-48.023 12.763-72.372 44.887c-4.707 6.21-10.719 11.249-17.604 14.743 37.383-12.286 94.596-4.75 136.126 42.384 7.893 8.958 22.063 8.958 29.956 0 41.529-47.134 98.742-54.671 136.125-42.384z" fill="#213159"/></g><g><path d="m192.117 198.795 20.313 33.912c3.601 6.012 10.142 9.699 17.206 9.699h47.217c7.064 0 13.605-3.687 17.206-9.699l20.313-33.912z" fill="#2d3c6b"/></g><g><path d="m402.6 394.312-21.329 29.97c-4.164 5.851-10.946 9.333-18.18 9.333h-71.621c-10.497 0-19.564-7.263-21.747-17.42l-9.764-45.43c-.674-3.136-3.473-5.378-6.714-5.378-3.241 0-6.04 2.242-6.714 5.378l-9.764 45.43c-2.183 10.157-11.25 17.42-21.747 17.42h-71.621c-7.234 0-14.016-3.481-18.18-9.333l-21.329-29.97c-4.622-6.495-14.827-1.202-12.055 6.253l10.512 28.274c1.34 3.605 1.591 7.517.721 11.26l-3.052 13.138c15.094 11.984 31.653 22.234 49.369 30.449l-.826-4.47c-2.495-13.507 7.991-25.948 21.871-25.948h44.588c10.497 0 19.564 7.263 21.747 17.42l7.659 35.635c.763.027 1.525.06 2.29.079.172.004.345.008.517.012 1.999.048 4.003.075 6.013.075s4.014-.028 6.013-.075c.172-.004.344-.007.517-.012.765-.02 1.526-.053 2.29-.079l7.659-35.635c2.183-10.157 11.25-17.42 21.747-17.42h44.588c13.88 0 24.366 12.442 21.871 25.948l-.826 4.47c17.717-8.215 34.275-18.466 49.369-30.449l-3.052-13.138c-.87-3.743-.619-7.656.721-11.26l10.512-28.274c2.774-7.455-7.431-12.748-12.053-6.253z" fill="#213159"/></g><g><path d="m229.339 337.489-12.003 60.892c-1.656 8.401-9.096 14.464-17.748 14.464h-45.793c-5.938 0-11.498-2.885-14.875-7.717l-32.489-46.502c-2.088-2.989-3.207-6.536-3.207-10.17v-13.535c0-7.409 6.072-13.415 13.561-13.415h99.243c8.532 0 14.944 7.7 13.311 15.983z" fill="#3c5082"/></g><g><path d="m277.15 337.489 12.003 60.892c1.656 8.401 9.096 14.464 17.748 14.464h45.793c5.938 0 11.498-2.885 14.875-7.717l32.489-46.502c2.088-2.989 3.207-6.536 3.207-10.17v-13.535c0-7.409-6.072-13.415-13.561-13.415h-99.243c-8.532 0-14.944 7.7-13.311 15.983z" fill="#3c5082"/></g><g><path d="m322.102 296.203h76.541c4.953 0 6.898-6.357 2.771-9.067-9.42-6.186-23.936-13.265-41.042-13.265s-31.621 7.078-41.042 13.265c-4.126 2.71-2.181 9.067 2.772 9.067z" fill="#3c5082"/></g><g><path d="m184.387 296.203h-76.541c-4.953 0-6.898-6.357-2.771-9.067 9.42-6.186 23.936-13.265 41.042-13.265s31.621 7.078 41.042 13.265c4.126 2.71 2.181 9.067-2.772 9.067z" fill="#213159"/></g><g><path d="m282.848 504.728c19.91-2.372 39.086-7.103 57.232-13.908v-7.522c0-5.523-4.477-10-10-10h-31.787c-4.621 0-8.641 3.167-9.722 7.659z" fill="#213159"/></g><g><path d="m223.641 504.728c-19.91-2.372-39.086-7.103-57.232-13.908v-7.522c0-5.523 4.477-10 10-10h31.787c4.621 0 8.641 3.167 9.722 7.659z" fill="#3c5082"/></g><g><path d="m423.181 313.531v46.665c0 7.762 8.459 12.565 15.124 8.587l15.385-9.181c3.336-1.991 5.223-5.727 4.826-9.592-1.058-10.293-4.85-30.581-18.448-43.738-6.311-6.106-16.887-1.523-16.887 7.259z" fill="#213159"/></g><g><path d="m83.309 313.531v46.665c0 7.762-8.459 12.565-15.124 8.587l-15.385-9.181c-3.336-1.991-5.223-5.727-4.826-9.592 1.058-10.293 4.85-30.581 18.448-43.738 6.31-6.106 16.887-1.523 16.887 7.259z" fill="#213159"/></g><g><path d="m218.108 219.625h70.273c35.823 0 64.863-28.728 64.863-64.165 0-14.193-9.181-26.794-22.792-31.282-50.116-16.526-104.299-16.526-154.415 0-13.611 4.488-22.792 17.089-22.792 31.282 0 35.437 29.04 64.165 64.863 64.165z" fill="#4b6496"/></g><g><circle cx="199.504" cy="95.527" fill="#162544" r="10"/></g><g><circle cx="306.985" cy="95.527" fill="#162544" r="10"/></g><g><path d="m207.222 93.599-19.319-5.176c-4.001-1.072-6.375-5.185-5.303-9.186 1.072-4.001 5.185-6.375 9.186-5.303l19.319 5.176c4.001 1.072 6.375 5.185 5.303 9.186-1.072 4.001-5.185 6.375-9.186 5.303z" fill="#213159"/></g><g><path d="m318.585 88.423-19.319 5.176c-4.001 1.072-8.113-1.302-9.186-5.303-1.072-4.001 1.302-8.114 5.303-9.186l19.319-5.176c4.001-1.072 8.114 1.302 9.186 5.303 1.073 4.001-1.302 8.113-5.303 9.186z" fill="#213159"/></g><g><path d="m253.245 67.395c-4.033 0-7.636 2.523-9.014 6.313l-14.254 39.191h46.537l-14.254-39.191c-1.38-3.79-4.982-6.313-9.015-6.313z" fill="#4b6496"/></g><g><path d="m253.245 102.822c-9.945 0-18.621 4.055-23.268 10.077 4.647 6.022 13.323 10.077 23.268 10.077s18.621-4.055 23.268-10.077c-4.647-6.022-13.324-10.077-23.268-10.077z" fill="#3c5082"/></g><g><path d="m329.814 0h-153.138c-7.418 0-13.431 6.013-13.431 13.431 0 4.145 1.914 8.057 5.185 10.602l76.569 59.554c4.85 3.772 11.642 3.772 16.492 0l76.569-59.554c3.272-2.545 5.185-6.457 5.185-10.602 0-7.418-6.014-13.431-13.431-13.431z" fill="#4b6496"/></g><g><path d="m208.43 24.033c-3.272-2.545-5.185-6.457-5.185-10.602 0-7.418 6.013-13.431 13.431-13.431h-40c-7.418 0-13.431 6.013-13.431 13.431 0 4.145 1.914 8.057 5.185 10.602l76.569 59.554c4.85 3.772 11.642 3.772 16.492 0l11.754-9.142z" fill="#3c5082"/></g><g><path d="m288.381 219.625c-76.68 0-111.323-68.53-104.333-97.928-2.68.784-5.353 1.604-8.011 2.48-13.611 4.488-22.792 17.089-22.792 31.282 0 35.438 29.04 64.165 64.864 64.165h70.272z" fill="#3c5082"/></g></g></svg>