<svg id="Capa_1" enable-background="new 0 0 512 512" height="512" viewBox="0 0 512 512" width="512" xmlns="http://www.w3.org/2000/svg"><g><g><path d="m476.892 373.106c15.45-32.104 24.108-68.094 24.108-106.106 0-135.31-109.69-245-245-245s-245 109.69-245 245c0 38.012 8.658 74.002 24.108 106.106z" fill="#ffdd40"/></g><g><circle cx="256" cy="242" fill="#ffc839" r="200"/></g><g><path d="m262.53 511.912c94.517-2.473 175.704-58.474 214.362-138.806 3.74-17.764 7.01-49.908-10.23-74.106-14.689-20.617-35.602-29.957-50.426-34.158-10.729-3.041-20.047-9.587-26.737-18.509-24.349-32.474-72.372-45.375-72.372-45.375h-122.255s-48.023 12.902-72.372 45.375c-6.69 8.922-16.008 15.469-26.737 18.509-14.823 4.201-35.736 13.541-50.425 34.158-17.24 24.198-13.97 56.343-10.23 74.106 38.658 80.332 119.845 136.333 214.362 138.806.172.004.345.008.517.012 1.999.048 4.003.076 6.013.076s4.014-.028 6.013-.076c.172-.004.345-.008.517-.012z" fill="#fd995b"/></g><g><path d="m407.103 261.237c-6.885-3.532-12.897-8.626-17.604-14.904-24.349-32.474-72.372-45.375-72.372-45.375h-122.255s-48.023 12.902-72.372 45.375c-4.707 6.277-10.719 11.372-17.604 14.904 37.383-12.42 94.596-4.802 136.126 42.845 7.893 9.055 22.063 9.055 29.956 0 41.529-47.647 98.743-55.266 136.125-42.845z" fill="#ef854b"/></g><g><path d="m405.355 398.602-21.329 30.296c-4.164 5.915-10.946 9.434-18.18 9.434h-71.621c-10.497 0-19.564-7.342-21.747-17.609l-9.764-45.924c-.674-3.17-3.473-5.437-6.714-5.437-3.241 0-6.04 2.267-6.714 5.437l-9.764 45.924c-2.183 10.268-11.25 17.609-21.747 17.609h-71.621c-7.234 0-14.016-3.519-18.18-9.434l-21.329-30.296c-4.622-6.566-14.827-1.215-12.055 6.321l10.512 28.581c1.34 3.644 1.591 7.599.721 11.383l-3.052 13.281c15.094 12.114 31.653 22.476 49.369 30.781l-.826-4.518c-2.495-13.654 7.991-26.231 21.871-26.231h44.588c10.497 0 19.564 7.342 21.747 17.609l7.659 36.022c.763.027 1.525.06 2.29.08.172.004.345.008.517.012 2 .049 4.004.077 6.014.077s4.014-.028 6.013-.076c.172-.004.344-.007.517-.012.765-.02 1.526-.053 2.29-.08l7.659-36.022c2.183-10.268 11.25-17.609 21.747-17.609h44.588c13.88 0 24.366 12.577 21.871 26.231l-.826 4.518c17.717-8.305 34.275-18.667 49.369-30.781l-3.052-13.281c-.87-3.784-.619-7.739.721-11.383l10.512-28.581c2.773-7.537-7.432-12.888-12.054-6.322z" fill="#ef854b"/></g><g><path d="m159.559 138.167v46.991c0 44.03-24.262 58.328-18.313 96.081.66 4.187 5.966 5.642 8.726 2.425l9.567-11.151s-8.164 29.342 6.285 65.84c1.632 4.121 7.45 4.197 9.224.135l8.065-18.468s-.563 32.654 26.011 58.024c3.051 2.913 8.125.959 8.441-3.247l1.136-15.072s.006.009.018.027c17.445 27.104 57.113 27.104 74.557 0l.018-.027 1.136 15.072c.317 4.206 5.391 6.16 8.441 3.247 26.574-25.371 26.011-58.024 26.011-58.024l8.065 18.468c1.774 4.062 7.592 3.987 9.224-.135 14.45-36.498 6.285-65.84 6.285-65.84l9.567 11.151c2.76 3.217 8.066 1.762 8.726-2.425 5.949-37.753-18.313-52.051-18.313-96.081 0-22.541 0-46.991 0-46.991z" fill="#823821"/></g><g><g><g><path d="m339.387 75.035s49.914-5.667 89.455 6.312c5.116 1.55 7.185 7.684 4.009 11.983-14.143 19.143-54.228 59.564-113.134 6.434z" fill="#a05838"/></g><g><path d="m419.995 90.908c-7.524 8.974-19.895 20.28-36.027 23.013-15.014 2.544-31.174-2.765-48.143-15.792z" fill="#934a2e"/></g></g><g><g><path d="m172.613 75.035s-49.914-5.667-89.455 6.312c-5.116 1.55-7.185 7.684-4.009 11.983 14.143 19.143 54.228 59.564 113.134 6.434z" fill="#934a2e"/></g><g><path d="m92.005 90.908c7.524 8.974 19.895 20.28 36.027 23.013 15.014 2.544 31.174-2.765 48.143-15.792z" fill="#823821"/></g></g><g><path d="m288.933 23.423h-65.867c-39.296 10.907-67.508 40.78-67.508 75.929v85.065c0 8.197 3.256 16.057 9.052 21.853l44.517 44.517h93.746l44.517-44.517c5.796-5.796 9.052-13.657 9.052-21.853v-85.065c0-35.149-28.213-65.022-67.509-75.929z" fill="#b76c4e"/></g><g><path d="m201.941 184.417v-85.065c0-35.151 28.217-65.024 67.516-75.929h-46.39c-39.296 10.907-67.508 40.78-67.508 75.929v85.065c0 8.197 3.256 16.057 9.052 21.853l44.517 44.517h46.383l-44.517-44.517c-5.797-5.795-9.053-13.656-9.053-21.853z" fill="#a05838"/></g><g><path d="m273.126 284.702h-34.252c-12.801 0-23.179-10.378-23.179-23.179 0-12.801 10.378-23.179 23.179-23.179h34.252c12.801 0 23.179 10.378 23.179 23.179 0 12.801-10.378 23.179-23.179 23.179z" fill="#934a2e"/></g><g><path d="m322.423 205.66-8.615 34.197-2.519 9.99c-1.731 6.861-7.904 11.674-14.989 11.674h-80.6c-7.085 0-13.258-4.813-14.989-11.674l-2.519-9.99-8.615-34.197c-1.445-5.748.518-11.814 5.061-15.623l27.842-23.344c3.943-3.306 6.405-8.05 6.837-13.178l4.627-54.854c.927-10.984-5.096-21.381-15.086-26.041-21.984-10.256-19.601-42.492 3.748-49.074 10.447-2.944 21.686-4.546 33.394-4.546s22.947 1.602 33.394 4.547c23.349 6.582 25.732 38.818 3.748 49.074-9.99 4.66-16.012 15.057-15.086 26.041l4.627 54.854c.433 5.128 2.894 9.871 6.837 13.178l27.842 23.344c4.543 3.808 6.506 9.873 5.061 15.622z" fill="#a05838"/></g><g><path d="m279.153 21.163c-7.435-1.404-15.181-2.163-23.153-2.163-11.708 0-22.947 1.602-33.394 4.547-19.843 5.593-24.532 29.708-12.003 43.121 12.594-22.6 37.846-39.689 68.55-45.505z" fill="#934a2e"/></g><g><path d="m229.272 247.52-16.403-57.409c-1.88-6.579-.136-13.661 4.582-18.616l2.771-2.91-25.588 21.455c-4.539 3.806-6.503 9.872-5.056 15.616l11.133 44.186c1.73 6.866 7.904 11.677 14.984 11.677h32.137c-8.618.002-16.192-5.711-18.56-13.999z" fill="#934a2e"/></g></g><g><g><g><path d="m317.607 22.234 6.46 3.73c13.447 7.764 30.127 7.264 43.085-1.292l34.828-22.995c3.203-2.115 7.327-2.239 10.651-.319 4.847 2.799 6.508 8.997 3.709 13.844l-19.53 33.826c-22.641 39.215-72.785 52.651-112 30.01-15.686-9.056-21.06-29.114-12.004-44.8 9.058-15.686 29.115-21.06 44.801-12.004z" fill="#e9efff"/></g><g><path d="m317.607 22.234 6.46 3.73c6.673 3.853 14.142 5.665 21.557 5.473-.847.143-1.694.318-2.54.545-14.434 3.868-22.999 18.704-19.132 33.137 3.653 13.631 17.088 22.015 30.729 19.649-22.172 8.329-47.757 7.036-69.869-5.73-15.686-9.056-21.06-29.114-12.004-44.8 9.055-15.686 29.113-21.06 44.799-12.004z" fill="#dae2fe"/></g></g><g><g><path d="m194.393 22.234-6.46 3.73c-13.447 7.764-30.127 7.264-43.085-1.292l-34.828-22.995c-3.203-2.115-7.327-2.239-10.651-.319-4.847 2.799-6.508 8.997-3.709 13.844l19.53 33.826c22.641 39.215 72.785 52.651 112 30.01 15.686-9.056 21.06-29.114 12.004-44.8-9.058-15.686-29.115-21.06-44.801-12.004z" fill="#e9efff"/></g><g><path d="m194.393 22.234-6.46 3.73c-6.673 3.853-14.142 5.665-21.557 5.473.847.143 1.694.318 2.54.545 14.434 3.868 22.999 18.704 19.132 33.137-3.653 13.631-17.088 22.015-30.729 19.649 22.172 8.329 47.757 7.036 69.869-5.73 15.686-9.056 21.06-29.114 12.004-44.8-9.056-15.686-29.113-21.06-44.799-12.004z" fill="#dae2fe"/></g></g></g><g><g><path d="m284.174 206.336c-4.682 0-9.363-1.782-12.927-5.346-1.953-1.953-1.953-5.119 0-7.071 1.951-1.952 5.119-1.952 7.07 0 3.23 3.229 8.481 3.228 11.712 0 1.951-1.952 5.119-1.952 7.07 0 1.953 1.953 1.953 5.119 0 7.071-3.563 3.564-8.245 5.346-12.925 5.346z" fill="#823821"/></g><g><path d="m227.826 206.336c-4.681 0-9.362-1.782-12.926-5.346-1.953-1.953-1.953-5.119 0-7.071 1.951-1.952 5.119-1.952 7.07 0 3.229 3.228 8.48 3.229 11.712 0 1.951-1.952 5.119-1.952 7.07 0 1.953 1.953 1.953 5.119 0 7.071-3.563 3.564-8.244 5.346-12.926 5.346z" fill="#823821"/></g></g><g><circle cx="207.26" cy="122.839" fill="#162544" r="10"/></g><g><circle cx="304.74" cy="122.839" fill="#162544" r="10"/></g><g><path d="m214.978 120.911-19.319-5.176c-4.001-1.072-6.375-5.185-5.303-9.186 1.072-4.001 5.185-6.375 9.186-5.303l19.319 5.176c4.001 1.072 6.375 5.185 5.303 9.186-1.073 4.001-5.185 6.375-9.186 5.303z" fill="#823821"/></g><g><path d="m316.341 115.735-19.319 5.176c-4.001 1.072-8.113-1.302-9.186-5.303-1.072-4.001 1.302-8.114 5.303-9.186l19.319-5.176c4.001-1.072 8.114 1.302 9.186 5.303 1.072 4.001-1.302 8.114-5.303 9.186z" fill="#823821"/></g></g></svg>