<svg id="Capa_1" enable-background="new 0 0 512 512" height="512" viewBox="0 0 512 512" width="512" xmlns="http://www.w3.org/2000/svg"><g><g><path d="m456.969 407.139c27.744-39.712 44.031-88.02 44.031-140.139 0-135.31-109.69-245-245-245s-245 109.69-245 245c0 52.119 16.287 100.427 44.031 140.139z" fill="#7255ce"/></g><g><circle cx="256" cy="242" fill="#5c45bf" r="200"/></g><g><path d="m456.949 407.139c-8.256-22.709-16.99-42.685-24.722-51.911-.904-1.078-1.794-2.019-2.668-2.79-6.623-5.848-19.39-11.382-34.352-16.323-37.928-12.525-89.968-21.232-91.82-21.54h-94.772c-1.853.307-53.892 9.014-91.82 21.54-14.961 4.941-27.729 10.475-34.352 16.323-.874.772-1.765 1.712-2.668 2.79-7.732 9.226-16.467 29.203-24.722 51.911-.001.009-.001.018-.002.026 32.703 46.798 81.336 81.626 138.03 96.654l62.919-15.968 62.921 15.968c56.694-15.027 105.327-49.856 138.03-96.654-.001-.008-.001-.017-.002-.026z" fill="#2d3c6b"/></g><g><path d="m218.514 497.364c-67.373-58.308-83.845-132.426-87.87-165.498-4.742 1.359-9.394 2.777-13.85 4.249-14.961 4.941-27.729 10.475-34.352 16.323-.874.772-1.765 1.712-2.668 2.79-7.732 9.226-16.467 29.203-24.722 51.911-.001.009-.001.018-.002.026 32.708 46.805 81.357 81.625 138.063 96.645z" fill="#213159"/></g><g><path d="m290.617 195.255s83.316-12.193 136.564 53.767c4.667 5.781 1.568 14.484-5.7 16.028-29.594 6.288-91.418 27.08-91.418 91.056l-26.678-41.027z" fill="#ff4155"/></g><g><path d="m221.383 195.255s-83.316-12.193-136.564 53.767c-4.667 5.781-1.568 14.484 5.7 16.028 29.594 6.288 91.418 27.08 91.418 91.056l26.678-41.027z" fill="#ff4155"/></g><g><path d="m174.556 321.118c4.621 9.923 7.38 21.491 7.38 34.989l26.678-41.027 12.769-119.825s-32.319-4.726-69.563 7.642c12.675 19.481 39.776 69.346 22.736 118.221z" fill="#e80054"/></g><g><path d="m337.444 321.118c-4.621 9.923-7.38 21.491-7.38 34.989l-26.678-41.027-12.769-119.825s32.319-4.726 69.563 7.642c-12.675 19.481-39.776 69.346-22.736 118.221z" fill="#e80054"/></g><g><path d="m196.931 316.704-14.995 39.403 11.143 147.723c20.081 5.32 41.167 8.17 62.921 8.17s42.84-2.85 62.92-8.171l11.143-147.723-14.995-39.403h-118.137z" fill="#bec8f7"/></g><g><path d="m208.614 221.239v93.336s19.021 20.093 47.17 20.093c.073 0 .143-.005.216-.005 28.031-.103 47.386-20.088 47.386-20.088v-93.336z" fill="#2e8be6"/></g><g><path d="m333.48 46.073s-.921-27.711-14.708-34.073-28.523-12-62.772-12-48.985 5.638-62.772 12-14.708 34.073-14.708 34.073c-17.176 18.715-27.663 43.666-27.663 71.07v30.076h210.286v-30.076c0-27.404-10.488-52.356-27.663-71.07z" fill="#2d3c6b"/></g><g><path d="m150.857 117.143v30.076h58.059v-12.854c-15.828-12.854-33.704-53.492-30.396-88.292-17.175 18.714-27.663 43.666-27.663 71.07z" fill="#213159"/></g><g><path d="m185.693 165.046c4.281 9.642-.591 20.92-10.338 24.957-9.746 4.037-20.92-.591-24.957-10.338-4.037-9.746-7.339-17.717-13.702-33.079s32.54-18.606 48.997 18.46z" fill="#2e8be6"/></g><g><path d="m326.307 165.046c-4.281 9.642.591 20.92 10.338 24.957 9.746 4.037 20.92-.591 24.957-10.338 4.037-9.746 7.339-17.717 13.702-33.079 6.363-15.361-32.54-18.606-48.997 18.46z" fill="#4fabf7"/></g><g><path d="m255.784 82.484s-19.69 60.442-87.333 60.562c-.029 1.23-.049 2.464-.049 3.708 0 64.505 39.219 140.155 87.597 140.155s87.597-75.651 87.597-140.155c0-1.244-.02-2.478-.049-3.708-67.642-.12-87.763-60.562-87.763-60.562z" fill="#73c3f9"/></g><g><path d="m208.403 146.754c0-4.214.187-8.339.513-12.39-11.036 5.219-24.395 8.653-40.465 8.682-.029 1.23-.049 2.464-.049 3.708 0 64.505 39.219 140.155 87.597 140.155 6.881 0 13.576-1.535 20-4.346-38.74-16.952-67.596-80.479-67.596-135.809z" fill="#4fabf7"/></g><g><path d="m221.218 148.301-19.319-5.176c-4.001-1.072-6.375-5.185-5.303-9.186 1.072-4.001 5.185-6.375 9.186-5.303l19.319 5.176c4.001 1.072 6.375 5.185 5.303 9.186-1.072 4-5.185 6.375-9.186 5.303z" fill="#162544"/></g><g><path d="m310.1 143.124-19.319 5.176c-4.001 1.072-8.114-1.302-9.186-5.303-1.072-4.001 1.302-8.114 5.303-9.186l19.319-5.176c4.001-1.072 8.114 1.302 9.186 5.303 1.073 4.002-1.302 8.114-5.303 9.186z" fill="#162544"/></g><g><path d="m223.5 158.229c0 5.523-4.477 10-10 10s-10-4.477-10-10 20-5.523 20 0z" fill="#162544"/></g><g><path d="m288.5 158.229c0 5.523 4.477 10 10 10s10-4.477 10-10-20-5.523-20 0z" fill="#162544"/></g><g><g><path d="m242.013 192.447 8.436-13.441c2.569-4.093 8.533-4.093 11.102 0l8.436 13.441c2.739 4.365-.398 10.038-5.551 10.038h-16.871c-5.154-.001-8.291-5.674-5.552-10.038z" fill="#2e8be6"/></g></g><g><path d="m278.492 217.484h-1l-7.641 5-7.641-5h-12.42l-7.641 5-7.641-5h-1c-5.065 0-8.718 4.943-7.134 9.754 1.752 5.322 4.899 10.009 9.01 13.631h41.233c4.111-3.622 7.258-8.309 9.01-13.631 1.583-4.81-2.07-9.754-7.135-9.754z" fill="#162544"/></g><g><path d="m235.384 240.87c5.493 4.849 12.714 7.798 20.616 7.798s15.124-2.948 20.616-7.798c-5.5-4.849-12.714-7.798-20.616-7.798s-15.116 2.949-20.616 7.798z" fill="#ff4155"/></g><g><g><path d="m277.492 217.484-5.55 8.844c-.968 1.542-3.214 1.542-4.182 0l-5.55-8.844z" fill="#fff"/></g></g><g><g><path d="m234.508 217.484 5.55 8.844c.968 1.542 3.214 1.542 4.182 0l5.55-8.844z" fill="#fff"/></g></g><g><path d="m315.069 303.128c0-5.523-4.477-10-10-10h-98.138c-5.523 0-10 4.477-10 10v13.576s6.448 5.841 17.83 11.356c6.881 3.334 11.238 10.329 11.238 17.975v164.142c9.832 1.201 19.843 1.823 30 1.823s20.168-.623 30-1.823v-164.143c0-7.646 4.357-14.641 11.238-17.975 11.382-5.515 17.83-11.356 17.83-11.356v-13.575z" fill="#e9efff"/></g><g><path d="m263.5 511.886v-218.758h-15v218.758c2.491.075 4.991.114 7.5.114s5.009-.039 7.5-.114z" fill="#dae2fe"/></g><g><path d="m91.07 426.843v21.327c7.157 6.519 14.704 12.617 22.599 18.262l-12.035-41.103c-1.75-5.98-10.564-4.716-10.564 1.514z" fill="#162544"/></g><g><path d="m420.93 426.843v21.327c-7.157 6.519-14.704 12.617-22.599 18.262l12.035-41.103c1.75-5.98 10.564-4.716 10.564 1.514z" fill="#213159"/></g></g></svg>