<svg id="Capa_1" enable-background="new 0 0 512 512" height="512" viewBox="0 0 512 512" width="512" xmlns="http://www.w3.org/2000/svg"><g><g><path d="m126.601 475.059h258.797c69.404-43.256 115.602-120.257 115.602-208.059 0-135.31-109.69-245-245-245s-245 109.69-245 245c0 87.802 46.198 164.803 115.601 208.059z" fill="#73c3f9"/></g><g><circle cx="256" cy="247" fill="#4fabf7" r="200"/></g><g><g><path d="m126.601 475.059c37.553 23.405 81.892 36.941 129.399 36.941s91.846-13.536 129.399-36.941l-15.829-25.335c-3.239-5.184-4.61-11.374-3.579-17.399.331-1.934.5-3.895.5-5.877 0-33.902-49.469-61.384-110.491-61.384s-110.491 27.482-110.491 61.384c0 1.982.169 3.943.5 5.877 1.031 6.025-.341 12.215-3.579 17.399z" fill="#a05838"/></g><g><path d="m196.135 476.358c-30.376-10.74-50.508-29.415-50.609-50.667-.005.252-.017.504-.017.757 0 1.982.169 3.943.5 5.877 1.031 6.025-.34 12.216-3.579 17.399l-15.829 25.335c22.335 13.92 47.066 24.352 73.444 30.515 1.044-5.24 2.374-9.843 3.683-13.629 2.208-6.385-1.223-13.334-7.593-15.587z" fill="#934a2e"/></g></g><g><path d="m239.188 250.695c-36.754 0-66.549 29.795-66.549 66.549 0 38.058-20.971 50.417-15.829 83.049.57 3.619 5.157 4.876 7.542 2.096l8.27-9.639s-7.057 25.363 5.433 56.91c1.41 3.562 6.44 3.627 7.973.116l6.971-15.963s-.487 28.225 22.483 50.155c2.637 2.518 7.023.829 7.297-2.807l.982-13.028.015.024c15.072 23.468 49.373 23.468 64.445 0l.015-.024.982 13.028c.274 3.636 4.659 5.325 7.297 2.807 22.97-21.93 22.483-50.155 22.483-50.155l6.971 15.963c1.533 3.511 6.563 3.446 7.973-.116 12.49-31.547 5.433-56.91 5.433-56.91l8.27 9.639c2.386 2.781 6.972 1.523 7.542-2.096 5.143-32.633-15.829-44.992-15.829-83.049 0-36.754-29.795-66.549-66.549-66.549z" fill="#f8e6cc"/></g><g><g><path d="m418.187 184.698c-37.848 37.848-82.694 60.707-122.565 65.997 5.289-39.871 28.148-84.717 65.997-122.565 32.202-32.202 69.47-53.554 104.43-62.465 8.871-2.261 16.865 5.732 14.604 14.604-8.912 34.959-30.263 72.227-62.466 104.429z" fill="#a05838"/></g><g><path d="m315.026 231.29c9.214-31.901 117.58-140.418 149.73-149.729-9.312 32.149-29.467 64.822-57.176 92.531-27.875 27.875-60.653 47.985-92.554 57.198z" fill="#934a2e"/></g></g><g><g><path d="m93.813 184.698c37.848 37.848 82.694 60.707 122.565 65.997-5.289-39.871-28.148-84.717-65.997-122.565-32.202-32.202-69.47-53.554-104.43-62.465-8.872-2.261-16.865 5.732-14.604 14.604 8.912 34.959 30.263 72.227 62.466 104.429z" fill="#934a2e"/></g><g><path d="m196.974 231.29c-9.214-31.901-117.58-140.418-149.73-149.729 9.312 32.149 29.467 64.822 57.176 92.531 27.875 27.875 60.653 47.985 92.554 57.198z" fill="#823821"/></g></g><g><g><path d="m142.213 13.673c5.112-3.001 11.689-1.288 14.688 3.822l6.099 10.39 6.208-20.291c1.734-5.668 7.734-8.856 13.402-7.123 5.662 1.732 8.856 7.734 7.122 13.402l-18.762 61.326c-2.885 9.429-3.546 19.332-2.083 28.926 18.786-3.009 35.96-12.842 48.068-27.774l8.48-10.458c3.733-4.604 10.492-5.309 15.095-1.577 4.604 3.733 5.309 10.491 1.576 15.095l-8.48 10.458c-14.724 18.158-35.317 30.407-57.968 34.845.408.774.827 1.542 1.267 2.301l47.189 81.325c2.975 5.127 1.23 11.694-3.896 14.669-3.446 1.999-7.542 1.867-10.762.008-1.57-.907-2.932-2.224-3.907-3.904l-47.188-81.326c-3.413-5.881-6.089-12.108-8.016-18.535-.123-.357-.229-.721-.315-1.094-4.563-15.978-4.514-33.129.415-49.239l4.027-13.162-16.082-27.396c-3-5.112-1.289-11.688 3.823-14.688z" fill="#e9efff"/></g><g><g><path d="m219.216 210.626c1.95 1.126 4.268 1.649 6.676 1.352 5.882-.727 10.061-6.085 9.334-11.968l-3.567-28.856c-.797-6.451.553-13.104 3.803-18.733l9.887-17.125c2.963-5.133 1.205-11.696-3.928-14.66-5.133-2.963-11.696-1.205-14.66 3.928l-9.887 17.125c-5.569 9.646-7.883 21.045-6.516 32.099l3.567 28.855c.429 3.476 2.475 6.357 5.291 7.983z" fill="#dae2fe"/></g></g><g><path d="m168.887 104.125c18.786-3.009 35.96-12.842 48.068-27.774l8.48-10.457c3.733-4.604 10.492-5.309 15.095-1.577 4.604 3.733 5.31 10.491 1.576 15.095l-8.48 10.458c-14.724 18.158-35.317 30.407-57.968 34.845.408.774.827 1.542 1.267 2.301l47.189 81.325c2.975 5.127 1.23 11.694-3.896 14.669-3.446 1.999-7.542 1.867-10.762.008-1.57-.907-2.932-2.224-3.907-3.905l-47.188-81.326c-3.413-5.881-6.089-12.108-8.016-18.535-.123-.357-.229-.721-.315-1.094-1.131-3.961-1.977-7.995-2.538-12.066 5.596 5.642 15.973 6.12 21.395-1.967z" fill="#dae2fe"/></g></g><g><g><path d="m369.787 13.673c-5.112-3.001-11.689-1.288-14.688 3.822l-6.099 10.39-6.208-20.291c-1.734-5.668-7.734-8.856-13.402-7.123-5.662 1.732-8.856 7.734-7.122 13.402l18.762 61.325c2.885 9.429 3.546 19.332 2.083 28.926-18.786-3.009-35.96-12.842-48.068-27.774l-8.48-10.458c-3.733-4.604-10.492-5.309-15.095-1.577-4.604 3.733-5.309 10.491-1.576 15.095l8.48 10.458c14.724 18.158 35.317 30.407 57.968 34.845-.408.774-.827 1.542-1.267 2.301l-47.189 81.325c-2.975 5.127-1.23 11.694 3.896 14.669 3.446 1.999 7.542 1.867 10.762.008 1.57-.907 2.932-2.224 3.907-3.904l47.188-81.326c3.413-5.881 6.089-12.108 8.016-18.535.123-.357.229-.721.315-1.094 4.563-15.978 4.514-33.129-.415-49.239l-4.027-13.162 16.082-27.397c3-5.11 1.289-11.686-3.823-14.686z" fill="#e9efff"/></g><g><g><path d="m292.784 210.626c-1.95 1.126-4.268 1.649-6.676 1.352-5.883-.727-10.061-6.085-9.334-11.968l3.567-28.856c.797-6.451-.553-13.104-3.803-18.733l-9.887-17.125c-2.964-5.133-1.205-11.696 3.928-14.66 5.133-2.963 11.696-1.205 14.66 3.928l9.887 17.125c5.569 9.646 7.883 21.045 6.516 32.099l-3.567 28.855c-.429 3.476-2.475 6.357-5.291 7.983z" fill="#dae2fe"/></g></g><g><path d="m343.113 104.125c-18.786-3.009-35.96-12.842-48.068-27.774l-8.48-10.457c-3.733-4.604-10.492-5.309-15.095-1.577-4.604 3.733-5.31 10.491-1.576 15.095l8.48 10.458c14.724 18.158 35.317 30.407 57.968 34.845-.408.774-.827 1.542-1.267 2.301l-47.189 81.325c-2.975 5.127-1.23 11.694 3.896 14.669 3.446 1.999 7.542 1.867 10.762.008 1.57-.907 2.932-2.224 3.907-3.905l47.188-81.326c3.413-5.881 6.089-12.108 8.016-18.535.123-.357.229-.721.315-1.094 1.131-3.961 1.977-7.995 2.538-12.066-5.596 5.642-15.973 6.12-21.395-1.967z" fill="#dae2fe"/></g></g><g><path d="m342.602 249.133c-7.054-21.163-21.352-38.407-39.581-49.367h-94.042c-18.229 10.961-32.527 28.205-39.581 49.367l-9.708 29.125c-10.236 30.707 1.347 64.466 28.279 82.42 17.059 11.372 37.102 17.441 57.604 17.441h20.856c20.502 0 40.545-6.069 57.604-17.441 26.932-17.954 38.515-51.713 28.279-82.42z" fill="#b76c4e"/></g><g><path d="m226.398 360.678c-26.932-17.954-38.515-51.713-28.279-82.42l9.708-29.125c7.055-21.163 21.353-38.408 39.583-49.367h-38.431c-18.229 10.961-32.527 28.205-39.581 49.367l-9.708 29.125c-10.236 30.707 1.347 64.466 28.279 82.42 17.059 11.372 37.102 17.441 57.604 17.441h20.856c2.941 0 5.872-.129 8.787-.377-17.405-1.477-34.207-7.323-48.818-17.064z" fill="#a05838"/></g><g><path d="m256 186.714c-16.15 0-31.554 4.248-44.961 11.839-17.797 10.078-15.087 36.54 4.343 42.925 8.525 2.802 14.725 10.195 15.997 19.078l3.903 27.244h41.434l3.903-27.244c1.273-8.883 7.472-16.276 15.997-19.078 19.43-6.385 22.14-32.847 4.343-42.925-13.405-7.592-28.809-11.839-44.959-11.839z" fill="#a05838"/></g><g><path d="m211.513 239.82c12.064-26.226 35.8-45.054 63.683-51.059-6.221-1.337-12.645-2.047-19.195-2.047-16.15 0-31.554 4.248-44.961 11.839-16.536 9.363-15.359 32.859.473 41.267z" fill="#934a2e"/></g><g><path d="m283.619 339.211c0-8.013-12.365-31.02-27.619-31.02-15.253 0-27.619 23.007-27.619 31.02s12.365 14.509 27.619 14.509c15.253.001 27.619-6.495 27.619-14.509z" fill="#823821"/></g><g><path d="m294.761 306.747-18.044-18.947h-41.434l-18.051 18.848c-3.432 3.583-5.348 8.353-5.348 13.315.003 10.631 8.626 19.249 19.257 19.248h.038c10.373 0 18.788-8.384 18.838-18.746.015-3.208 2.544-5.949 5.75-6.069 3.409-.129 6.213 2.597 6.213 5.977 0 10.404 8.434 18.838 18.838 18.838 10.633 0 19.252-8.619 19.252-19.252v.065c.002-4.943-1.9-9.697-5.309-13.277z" fill="#934a2e"/></g><g><path d="m256 278.828c-8.854 0-16.579 3.61-20.717 8.972 4.137 5.362 11.863 8.972 20.717 8.972s16.579-3.61 20.717-8.972c-4.138-5.362-11.863-8.972-20.717-8.972z" fill="#823821"/></g><g><path d="m191.001 270.801c-.043-3.495 1.371-7.004 4.242-9.539 4.675-4.128 11.84-4.128 16.515 0 2.871 2.535 4.284 6.044 4.242 9.539-.055 4.538-5.629 6.716-8.838 3.507-2.022-2.022-5.3-2.022-7.322 0-3.21 3.209-8.784 1.031-8.839-3.507z" fill="#162544"/></g><g><path d="m320.999 270.801c.043-3.495-1.371-7.004-4.242-9.539-4.675-4.128-11.84-4.128-16.515 0-2.871 2.535-4.284 6.044-4.242 9.539.055 4.538 5.629 6.716 8.838 3.507 2.022-2.022 5.3-2.022 7.322 0 3.21 3.209 8.784 1.031 8.839-3.507z" fill="#162544"/></g></g></svg>