<svg id="Capa_1" enable-background="new 0 0 512 512" height="512" viewBox="0 0 512 512" width="512" xmlns="http://www.w3.org/2000/svg"><g><g><path d="m445.935 421.748c34.417-42.19 55.065-96.055 55.065-154.748 0-135.31-109.69-245-245-245s-245 109.69-245 245c0 58.693 20.649 112.558 55.065 154.748z" fill="#7255ce"/></g><g><circle cx="256" cy="242" fill="#5c45bf" r="200"/></g><g><path d="m240.835 276.758c-18.222-103.34-77.085-179.339-131.474-169.748-49.302 8.693-78.005 84.728-69.371 175.846.853 9.007 12.958 11.33 17.16 3.318s-.3 29.448 11.002 70.966h177.438c1.636-24.977.207-52.239-4.755-80.382z" fill="#acbbef"/></g><g><path d="m81.796 210.543c.24-5.98-8.153-7.577-10.134-1.93-6.713 19.131-13.739 46.291-14.513 77.56 0 0-.3 29.448 11.002 70.966h46.295c-31.485-40.969-34.217-107.535-32.65-146.596z" fill="#94a9e0"/></g><g><path d="m271.165 276.758c18.222-103.34 77.085-179.339 131.474-169.749 49.302 8.693 78.005 84.728 69.371 175.846-.853 9.007-12.958 11.33-17.16 3.318s.3 29.448-11.002 70.966h-177.438c-1.636-24.976-.207-52.238 4.755-80.381z" fill="#acbbef"/></g><g><path d="m349.188 357.139c31.491-48.245 41.912-99.84 45.216-133.303.62-6.277-8.186-8.322-10.418-2.423-15.294 40.411-44.938 106.122-84.866 135.726z" fill="#94a9e0"/></g><g><path d="m162.812 357.139c-31.491-48.245-41.912-99.84-45.216-133.303-.62-6.277 8.186-8.322 10.418-2.423 15.294 40.411 44.938 106.122 84.866 135.726z" fill="#94a9e0"/></g><g><path d="m430.204 210.543c-.24-5.98 8.153-7.577 10.134-1.93 6.713 19.131 13.739 46.291 14.513 77.56 0 0 .3 29.448-11.002 70.966h-46.295c31.485-40.969 34.217-107.535 32.65-146.596z" fill="#94a9e0"/></g><g><g><path d="m256 512c76.617 0 145.009-35.177 189.935-90.252 8.202-15.543 11.619-33.277 9.265-50.757-1.35-10.029-4.586-20.269-11.004-29.276-13.123-18.418-31.805-26.762-45.048-30.515-9.585-2.716-17.909-8.565-23.886-16.535-21.752-29.011-64.654-40.536-64.654-40.536h-109.217s-42.901 11.526-64.654 40.536c-5.976 7.97-14.301 13.819-23.885 16.535-13.243 3.753-31.926 12.097-45.049 30.515-6.417 9.007-9.654 19.247-11.004 29.276-2.353 17.48 1.063 35.214 9.266 50.757 44.926 55.075 113.318 90.252 189.935 90.252z" fill="#fd995b"/></g><g><path d="m390.989 307.979c-6.151-3.155-11.522-7.706-15.726-13.314-21.753-29.011-64.654-40.536-64.654-40.536h-109.218s-42.901 11.526-64.654 40.536c-4.205 5.608-9.576 10.159-15.727 13.314 33.396-11.096 84.508-4.289 121.609 38.276 7.051 8.09 19.71 8.09 26.761 0 37.101-42.566 88.213-49.372 121.609-38.276z" fill="#ef854b"/></g><g><path d="m389.427 420.695-19.054 27.065c-3.72 5.284-9.779 8.428-16.241 8.428h-63.983c-9.378 0-17.478-6.559-19.428-15.731l-8.723-41.027c-.602-2.832-3.103-4.857-5.998-4.857-2.895 0-5.396 2.025-5.998 4.857l-8.723 41.027c-1.95 9.173-10.05 15.731-19.428 15.731h-63.983c-6.462 0-12.521-3.144-16.241-8.428l-19.054-27.065c-4.13-5.866-13.246-1.086-10.77 5.647l9.391 25.533c1.197 3.255 1.421 6.789.645 10.169l-1.99 8.66c13.247 8.872 27.409 16.481 42.312 22.666.208-10.546 8.83-19.433 19.856-19.433h39.833c9.378 0 17.478 6.559 19.428 15.731l4.701 22.111c3.325.134 6.662.22 10.02.22s6.695-.087 10.02-.22l4.701-22.111c1.95-9.173 10.05-15.731 19.428-15.731h39.833c11.027 0 19.648 8.887 19.856 19.433 14.903-6.185 29.065-13.794 42.312-22.666l-1.99-8.66c-.777-3.38-.553-6.914.645-10.169l9.391-25.533c2.478-6.733-6.638-11.513-10.768-5.647z" fill="#ef854b"/></g></g><g><path d="m172.639 128.381v66.549c0 38.058-20.971 50.417-15.829 83.049.57 3.619 5.157 4.876 7.542 2.096l8.27-9.639s-7.049 25.333 5.411 56.855c1.419 3.589 6.45 3.709 7.995.172l6.971-15.963s-.487 28.225 22.483 50.155c2.637 2.518 7.023.829 7.297-2.807l.982-13.028.015.024c15.072 23.468 49.373 23.468 64.445 0l.015-.024.982 13.028c.274 3.636 4.659 5.325 7.297 2.807 22.97-21.93 22.483-50.155 22.483-50.155l6.971 15.963c1.545 3.537 6.576 3.418 7.995-.172 12.46-31.522 5.411-56.855 5.411-56.855l8.27 9.639c2.386 2.781 6.972 1.523 7.542-2.096 5.143-32.633-15.829-44.992-15.829-83.049v-66.549z" fill="#bec8f7"/></g><g><path d="m341.337 73.708h-170.677s-14.341 53.122-14.341 84.781c0 31.66 40.039 74.916 99.679 74.916s99.679-43.256 99.679-74.916c.001-31.659-14.34-84.781-14.34-84.781z" fill="#e9efff"/></g><g><path d="m196.319 158.489c0-31.659 14.341-84.781 14.341-84.781h-40s-14.341 53.122-14.341 84.781c0 31.66 40.039 74.916 99.679 74.916 6.945 0 13.619-.593 20-1.68-48.417-8.243-79.679-45.263-79.679-73.236z" fill="#dae2fe"/></g><g><path d="m152.574 48.97 18.086 24.738 48.896 23.039c6.084 2.866 10.319 8.599 11.273 15.256l4.454 31.084h41.434l4.454-31.084c.954-6.657 5.189-12.389 11.273-15.256l48.893-23.039 18.088-24.737c7.625-10.428 3.51-25.22-8.392-30.243-20.161-8.51-53.1-18.728-95.033-18.728-41.934 0-74.873 10.218-95.033 18.728-11.902 5.023-16.017 19.814-8.393 30.242z" fill="#dae2fe"/></g><g><path d="m281 144.588c0 13.807-11.193 42.518-25 42.518s-25-28.711-25-42.518 50-13.807 50 0z" fill="#ffdd40"/></g><g><path d="m247.831 144.588c0-5.327 7.443-8.596 16.585-9.813-14.554-1.937-33.415 1.332-33.415 9.813 0 13.807 11.193 42.518 25 42.518 2.953 0 5.785-1.321 8.415-3.521-9.667-8.087-16.585-28.143-16.585-38.997z" fill="#ffc839"/></g><g><g><circle cx="199.26" cy="129.839" fill="#162544" r="10"/></g><g><circle cx="312.74" cy="129.839" fill="#162544" r="10"/></g><g><path d="m206.978 127.911-19.319-5.176c-4.001-1.072-6.375-5.185-5.303-9.186 1.072-4.001 5.185-6.375 9.186-5.303l19.319 5.176c4.001 1.072 6.375 5.185 5.303 9.186-1.073 4.001-5.185 6.375-9.186 5.303z" fill="#bec8f7"/></g><g><path d="m324.341 122.735-19.319 5.176c-4.001 1.072-8.113-1.302-9.186-5.303-1.072-4.001 1.302-8.114 5.303-9.186l19.319-5.176c4.001-1.072 8.114 1.302 9.186 5.303 1.072 4.001-1.302 8.114-5.303 9.186z" fill="#bec8f7"/></g></g><g><path d="m203.924 5.389c-17.613 3.708-32.13 8.769-42.958 13.339-11.901 5.023-16.017 19.814-8.393 30.243l18.086 24.738 35.83 16.882c.001-.001-33.064-60.783-2.565-85.202z" fill="#bec8f7"/></g></g></svg>