<svg id="Capa_1" enable-background="new 0 0 512 512" height="512" viewBox="0 0 512 512" width="512" xmlns="http://www.w3.org/2000/svg"><g><g><path d="m456.951 407.165c27.755-39.717 44.049-88.035 44.049-140.165 0-135.31-109.69-245-245-245s-245 109.69-245 245c0 52.13 16.294 100.448 44.049 140.166h401.902z" fill="#7255ce"/></g><g><circle cx="256" cy="242" fill="#5c45bf" r="200"/></g><g><path d="m208.614 221.239v93.336s19.021 20.093 47.17 20.093c.073 0 .143-.005.216-.005 28.031-.103 47.386-20.088 47.386-20.088v-93.336z" fill="#21b75d"/></g><g><path d="m376 120c0-66.274-53.726-120-120-120-66.274 0-120 53.726-120 120v65.78c0 23.708 19.219 42.927 42.927 42.927 18.646 36.237 46.257 62.682 77.073 62.682s58.427-26.445 77.073-62.682c23.708 0 42.927-19.219 42.927-42.927z" fill="#49d88b"/></g><g><path d="m279.584 2.323c-7.626-1.52-15.511-2.323-23.584-2.323-66.274 0-120 53.726-120 120v65.78c0 23.708 19.219 42.927 42.927 42.927 18.646 36.237 46.257 62.682 77.073 62.682 8.053 0 15.883-1.821 23.396-5.135-44.789-20.259-78.062-93.853-78.062-158.006 0-64.241 33.367-113.049 78.25-125.925z" fill="#38c674"/></g><g><g><path d="m279.892 49.141c-16.622-4.467-31.235-4.448-47.783-.001-3.636.977-7.436-.872-8.854-4.361-.017-.042-.034-.084-.051-.126-1.667-4.1.588-8.779 4.857-9.945 19.308-5.272 36.57-5.272 55.878 0 4.269 1.166 6.524 5.845 4.857 9.945-.017.042-.034.084-.051.126-1.418 3.489-5.217 5.339-8.853 4.362z" fill="#21b75d"/></g></g><g><path d="m356.873 146.295c-2.558 28.507-11.097 57.731-23.797 82.412 23.707-.002 42.924-19.22 42.924-42.927v-57.073c-9.979 0-18.235 7.649-19.127 17.588z" fill="#38c674"/></g><g><path d="m155.127 146.295c2.558 28.507 11.097 57.731 23.797 82.412-23.707-.002-42.924-19.22-42.924-42.927v-57.073c9.979 0 18.235 7.649 19.127 17.588z" fill="#21b75d"/></g><g><g><path d="m299.435 82.322c-29.421-7.168-57.415-7.175-86.871 0-3.803.926-7.681-1.204-8.879-4.931-.014-.043-.028-.086-.041-.129-1.323-4.117 1.139-8.476 5.339-9.505 31.816-7.796 62.21-7.798 94.035 0 4.2 1.029 6.663 5.389 5.339 9.505-.014.043-.028.086-.041.129-1.199 3.727-5.077 5.857-8.881 4.931z" fill="#21b75d"/></g></g><g><path d="m256 512c83.18 0 156.665-41.461 200.951-104.834-.001-.009-.001-.017-.002-.026-8.256-22.709-16.99-42.685-24.722-51.911-.904-1.078-1.795-2.019-2.668-2.79-6.623-5.848-19.39-11.382-34.352-16.323-28.336-9.357-64.543-16.583-81.82-19.768v-3.692c0-5.523-4.477-10-10-10h-94.772c-5.523 0-10 4.477-10 10v3.692c-17.277 3.185-53.484 10.41-81.82 19.768-14.961 4.941-27.729 10.475-34.352 16.323-.874.771-1.765 1.712-2.668 2.79-7.732 9.226-16.467 29.202-24.722 51.911-.001.009-.001.018-.002.026 44.284 63.372 117.769 104.834 200.949 104.834z" fill="#dae2fe"/></g><g><path d="m147.073 337.988c-.424-3.58-.763-7-1.034-10.266-9.967 2.528-20.023 5.347-29.245 8.393-14.961 4.941-27.729 10.475-34.352 16.323-.874.772-1.765 1.712-2.668 2.79-7.732 9.226-16.467 29.203-24.722 51.911-.001.009-.001.018-.002.026 44.285 63.374 117.77 104.835 200.95 104.835-56.665-26.802-98.999-92.949-108.927-174.012z" fill="#bec8f7"/></g><g><path d="m91.07 426.843v21.327c7.157 6.519 14.704 12.617 22.599 18.262l-12.035-41.103c-1.751-5.98-10.564-4.717-10.564 1.514z" fill="#acbbef"/></g><g><path d="m420.93 426.843v21.327c-7.157 6.519-14.704 12.617-22.599 18.262l12.035-41.103c1.75-5.98 10.564-4.717 10.564 1.514z" fill="#bec8f7"/></g><g><g><path d="m211.166 151.658c-17.205 0-31.152-13.947-31.152-31.152 0-9.295 7.535-16.831 16.831-16.831 17.205 0 31.152 13.947 31.152 31.152 0 9.296-7.536 16.831-16.831 16.831z" fill="#162544"/></g><g><path d="m300.834 151.658c17.205 0 31.152-13.947 31.152-31.152 0-9.295-7.535-16.831-16.831-16.831-17.205 0-31.152 13.947-31.152 31.152 0 9.296 7.536 16.831 16.831 16.831z" fill="#162544"/></g></g><g><g><path d="m276.614 242.667c-1.176 0-2.356-.412-3.307-1.252-4.781-4.221-10.928-6.545-17.307-6.545s-12.526 2.324-17.307 6.545c-2.07 1.828-5.23 1.632-7.058-.439-1.828-2.07-1.631-5.229.439-7.057 6.61-5.835 15.107-9.049 23.925-9.049s17.315 3.214 23.925 9.049c2.07 1.827 2.267 4.986.439 7.057-.987 1.12-2.365 1.691-3.749 1.691z" fill="#21b75d"/></g></g><g><path d="m256 169.773c-2.761 0-5-2.238-5-5v-20c0-2.762 2.239-5 5-5s5 2.238 5 5v20c0 2.762-2.239 5-5 5z" fill="#21b75d"/></g><g><path d="m241 302.655h30v90h-30z" fill="#bec8f7"/></g><g><path d="m273.5 400.155h-35c-4.142 0-7.5-3.358-7.5-7.5 0-4.142 3.358-7.5 7.5-7.5h35c4.142 0 7.5 3.358 7.5 7.5 0 4.142-3.358 7.5-7.5 7.5z" fill="#e9efff"/></g></g></svg>