<svg id="Capa_1" enable-background="new 0 0 512 512" height="512" viewBox="0 0 512 512" width="512" xmlns="http://www.w3.org/2000/svg"><g><g><path d="m476.892 373.106c15.45-32.104 24.108-68.094 24.108-106.106 0-135.31-109.69-245-245-245s-245 109.69-245 245c0 38.012 8.658 74.002 24.108 106.106z" fill="#ffdd40"/></g><g><circle cx="256" cy="242" fill="#ffc839" r="200"/></g><g><path d="m466.662 299c-14.689-20.617-35.602-29.957-50.426-34.158-10.729-3.041-20.047-9.588-26.737-18.509-24.349-32.474-72.372-45.375-72.372-45.375h-122.255s-48.023 12.902-72.372 45.375c-6.69 8.922-16.008 15.469-26.737 18.509-14.823 4.201-35.736 13.541-50.425 34.158-17.24 24.198-13.97 56.343-10.23 74.106 20.183 41.941 51.964 77.243 91.178 101.764h259.429c39.214-24.521 70.995-59.823 91.178-101.764 3.74-17.763 7.01-49.908-10.231-74.106z" fill="#5c45bf"/></g><g><path d="m407.103 261.237c-6.885-3.532-12.897-8.626-17.604-14.904-24.349-32.474-72.372-45.375-72.372-45.375h-122.255s-48.023 12.902-72.372 45.375c-4.707 6.277-10.719 11.372-17.604 14.904 37.383-12.42 94.596-4.802 136.126 42.845 7.893 9.055 22.063 9.055 29.956 0 41.529-47.647 98.743-55.266 136.125-42.845z" fill="#4432ad"/></g><g><path d="m105.102 433.504c1.34 3.644 1.591 7.599.721 11.383l-3.052 13.281c7.491 6.012 15.345 11.59 23.52 16.702h25.363c2.446-9.443 11.011-16.67 21.531-16.67h44.588c10.171 0 18.98 6.902 21.504 16.67h33.443c2.524-9.769 11.333-16.67 21.504-16.67h44.588c10.52 0 19.085 7.228 21.531 16.67h25.363c8.175-5.112 16.029-10.69 23.52-16.702l-3.052-13.281c-.87-3.784-.619-7.739.721-11.383l10.512-28.582c2.772-7.536-7.433-12.887-12.055-6.321l-21.329 30.296c-4.164 5.915-10.946 9.434-18.18 9.434h-71.621c-10.497 0-19.564-7.342-21.747-17.609l-9.764-45.924c-.674-3.17-3.473-5.437-6.714-5.437-3.241 0-6.04 2.267-6.714 5.437l-9.764 45.924c-2.183 10.268-11.25 17.609-21.747 17.609h-71.621c-7.234 0-14.016-3.519-18.18-9.434l-21.329-30.296c-4.622-6.566-14.827-1.215-12.055 6.321z" fill="#4432ad"/></g><g><path d="m256 37c-55.228 0-100 44.771-100 100v15.119h100z" fill="#213159"/></g><g><path d="m356 137c0-55.228-44.771-100-100-100v115.119h100z" fill="#2d3c6b"/></g><g><ellipse cx="256" cy="22" fill="#162544" rx="43.951" ry="22"/></g><g><g><path d="m256.714 22c-36.27 0-68.249 18.366-87.148 46.304-4.328 6.399-5.215 14.524-2.348 21.697l30.828 77.118h115.068l31.654-79.184c2.932-7.333 1.985-15.685-2.625-22.097-19.084-26.549-50.237-43.838-85.429-43.838z" fill="#213159"/></g><g><path d="m225.04 79.602c-20.814-9.524-24.142-41.567-9.108-49.39-18.908 7.966-35.003 21.295-46.366 38.092-4.328 6.398-5.216 14.524-2.348 21.697l30.828 77.118h26.994z" fill="#162544"/></g></g><g><path d="m185.693 165.046c4.281 9.642-.591 20.92-10.338 24.957-9.746 4.037-20.92-.591-24.957-10.338-4.037-9.746-7.339-17.717-13.702-33.079s32.54-18.606 48.997 18.46z" fill="#4432ad"/></g><g><path d="m326.307 165.046c-4.281 9.642.591 20.92 10.338 24.957 9.746 4.037 20.92-.591 24.957-10.338 4.037-9.746 7.339-17.717 13.702-33.079 6.363-15.361-32.54-18.606-48.997 18.46z" fill="#5c45bf"/></g><g><path d="m327.049 124.754c-3.509-10.287-9.219-24.496-16.225-32.717-3.978-3.853-8.145-7.046-12.399-9.103-8.195-3.963-15.758-4.069-22.16-2.497-13.314 3.269-27.216 3.268-40.53 0-6.402-1.572-13.966-1.466-22.16 2.497-4.254 2.057-8.421 5.25-12.399 9.103-7.006 8.221-12.716 22.43-16.225 32.717-2.762 8.097-8.72 14.703-16.484 18.295-.031 1.23-.063 2.46-.063 3.705 0 64.505 39.219 140.155 87.597 140.155s87.597-75.651 87.597-140.155c0-1.245-.032-2.475-.063-3.705-7.766-3.592-13.724-10.198-16.486-18.295z" fill="#7255ce"/></g><g><path d="m208.403 146.754c0-25.925 6.339-48.917 17.057-67.152-3.755.312-7.739 1.327-11.885 3.333-4.254 2.057-8.421 5.25-12.399 9.103-7.006 8.221-12.716 22.43-16.225 32.717-2.762 8.097-8.72 14.703-16.484 18.295-.031 1.23-.063 2.46-.063 3.705 0 64.505 39.219 140.155 87.597 140.155 6.881 0 13.576-1.535 20-4.346-38.742-16.953-67.598-80.48-67.598-135.81z" fill="#5c45bf"/></g><g><path d="m350.87 134.364h-10.37c-27.134 58.748-30.202 87.697-30.202 87.697h-108.595s-3.068-28.949-30.202-87.697h-10.37c-16.871 120.337 36.101 180.891 94.869 180.891s111.741-60.554 94.87-180.891z" fill="#2d3c6b"/></g><g><path d="m201.703 222.062s-3.068-28.949-30.202-87.697h-10.37c-16.871 120.336 36.101 180.89 94.869 180.89-52.346-14.516-64.33-75.026-54.297-93.193z" fill="#213159"/></g><g><path d="m201.001 162.085c-.043-3.495 1.371-7.004 4.242-9.539 4.675-4.128 11.84-4.128 16.515 0 2.871 2.535 4.284 6.044 4.242 9.539-.055 4.538-5.629 6.716-8.838 3.507-2.022-2.022-5.3-2.022-7.322 0-3.21 3.21-8.784 1.032-8.839-3.507z" fill="#162544"/></g><g><path d="m310.999 162.085c.043-3.495-1.371-7.004-4.242-9.539-4.675-4.128-11.84-4.128-16.515 0-2.871 2.535-4.284 6.044-4.242 9.539.055 4.538 5.629 6.716 8.838 3.507 2.022-2.022 5.3-2.022 7.322 0 3.21 3.21 8.784 1.032 8.839-3.507z" fill="#162544"/></g><g><g><path d="m183.704 210.743c13.798 7.974 31.448 3.249 39.416-10.552 6.063-10.501 19.49-14.099 29.991-8.036l.087.05c10.501 6.063 14.099 19.49 8.036 29.991l-3.031 5.25c-12.583 21.795-40.452 29.262-62.247 16.679-10.548-6.09-17.74-15.761-20.927-26.59-1.511-5.131 4.045-9.468 8.675-6.792z" fill="#162544"/></g><g><path d="m328.296 210.743c-13.798 7.974-31.448 3.249-39.416-10.552-6.063-10.501-19.49-14.099-29.991-8.036l-.087.05c-10.501 6.063-14.099 19.49-8.036 29.991l3.031 5.25c12.583 21.795 40.452 29.262 62.247 16.679 10.548-6.09 17.74-15.761 20.927-26.59 1.511-5.131-4.045-9.468-8.675-6.792z" fill="#213159"/></g></g><g><g><path d="m242.013 192.447 8.436-13.441c2.569-4.093 8.533-4.093 11.102 0l8.436 13.441c2.739 4.365-.398 10.038-5.551 10.038h-16.871c-5.154-.001-8.291-5.674-5.552-10.038z" fill="#4432ad"/></g></g><g><path d="m196 132.917v-.005c0-3.045 1.951-5.736 4.829-6.731 8.513-2.944 16.772-2.959 25.337.003 2.88.996 4.834 3.685 4.834 6.733 0 4.883-4.783 8.211-9.427 6.701-5.247-1.706-10.9-1.706-16.147 0-4.642 1.51-9.426-1.818-9.426-6.701z" fill="#213159"/></g><g><path d="m316 132.917v-.005c0-3.045-1.951-5.736-4.829-6.731-8.513-2.944-16.772-2.959-25.337.003-2.88.996-4.834 3.685-4.834 6.733 0 4.883 4.783 8.211 9.427 6.701 5.247-1.706 10.9-1.706 16.147 0 4.643 1.51 9.426-1.818 9.426-6.701z" fill="#213159"/></g><g><path d="m256 512c47.635 0 92.084-13.609 129.701-37.129-1.589-9.457-9.792-16.67-19.701-16.67h-220c-9.909 0-18.112 7.213-19.701 16.67 37.617 23.52 82.066 37.129 129.701 37.129z" fill="#e9efff"/></g><g><path d="m126.299 474.871c18.406 11.509 38.448 20.638 59.701 26.964v-23.635c0-11.046 8.954-20 20-20h-60c-9.909 0-18.112 7.213-19.701 16.671z" fill="#dae2fe"/></g><g><path d="m160.339 492.6h191.322c10.226-4.344 20.096-9.363 29.556-15h-250.434c9.46 5.637 19.33 10.656 29.556 15z" fill="#dae2fe"/></g></g></svg>