<svg id="Capa_1" enable-background="new 0 0 512 512" height="512" viewBox="0 0 512 512" width="512" xmlns="http://www.w3.org/2000/svg"><g><g><path d="m459.689 403.175c26.088-38.945 41.311-85.78 41.311-136.175 0-135.31-109.69-245-245-245s-245 109.69-245 245c0 50.395 15.223 97.23 41.311 136.175z" fill="#ffdd40"/></g><g><circle cx="256" cy="242" fill="#ffc839" r="200"/></g><g><path d="m240.835 326.758c-18.222-103.34-77.085-179.339-131.474-169.749-49.302 8.693-78.005 84.728-69.371 175.846.853 9.007 12.958 11.33 17.16 3.318s-.3 29.448 11.002 70.966h177.438c1.636-24.976.207-52.238-4.755-80.381z" fill="#934a2e"/></g><g><path d="m81.796 260.543c.24-5.98-8.153-7.577-10.134-1.93-6.713 19.131-13.739 46.291-14.513 77.56 0 0-.3 29.448 11.002 70.966h46.295c-31.485-40.969-34.217-107.535-32.65-146.596z" fill="#823821"/></g><g><path d="m271.165 326.758c18.222-103.34 77.085-179.339 131.474-169.749 49.302 8.693 78.005 84.728 69.371 175.846-.853 9.007-12.958 11.33-17.16 3.318s.3 29.448-11.002 70.966h-177.438c-1.636-24.976-.207-52.238 4.755-80.381z" fill="#934a2e"/></g><g><path d="m349.188 407.139c31.491-48.245 41.912-99.84 45.216-133.303.62-6.277-8.186-8.322-10.418-2.423-15.294 40.411-44.938 106.122-84.866 135.726z" fill="#823821"/></g><g><path d="m162.812 407.139c-31.491-48.245-41.912-99.84-45.216-133.303-.62-6.277 8.186-8.322 10.418-2.423 15.294 40.411 44.938 106.122 84.866 135.726z" fill="#823821"/></g><g><path d="m430.204 260.543c-.24-5.98 8.153-7.577 10.134-1.93 6.713 19.131 13.739 46.291 14.513 77.56 0 0 .3 29.448-11.002 70.966h-46.295c31.485-40.969 34.217-107.535 32.65-146.596z" fill="#823821"/></g><g><path d="m256 473.614c124.66 0 176.227-118.386 176.227-118.386-.904-1.078-1.795-2.019-2.668-2.79-6.623-5.848-19.39-11.382-34.352-16.323-37.929-12.525-89.967-21.232-91.82-21.54h-94.772c-1.853.307-53.892 9.014-91.82 21.54-14.961 4.941-27.729 10.475-34.352 16.323-.874.772-1.765 1.712-2.668 2.79-.002 0 51.565 118.386 176.225 118.386z" fill="#fcad6d"/></g><g><path d="m238.024 472.761c-25.54-19.829-45.083-44.929-56.865-77.506-7.588-20.984-11.96-45.066-12.65-72.83v-.001c-16.433 3.612-35.381 8.297-51.715 13.691-14.961 4.941-27.729 10.475-34.352 16.323-.874.771-1.765 1.712-2.668 2.79-.001 0 46.593 106.941 158.25 117.533z" fill="#fd995b"/></g><g><path d="m140.547 226.163c3.282-28.378 10.31-25.293 10.31-78.944v-30.076c0-23.009 3.49-58.398 23.273-80.72 19.785-22.322 47.621-36.423 81.87-36.423s48.985 5.638 62.772 12 14.708 34.073 14.708 34.073c17.176 18.715 27.663 43.666 27.663 71.07v30.076c0 53.652 7.028 50.566 10.31 78.944s-8.875 54.637-31.091 60.837l2.53-24.679s-6.405 44.191-86.892 44.191-86.892-44.191-86.892-44.191l2.53 24.679c-22.215-6.2-34.373-32.459-31.091-60.837z" fill="#ff596e"/></g><g><path d="m217.006 6.792c-16.848 6.247-31.253 16.517-42.875 29.631-19.784 22.322-23.273 57.711-23.273 80.72v30.076c0 53.652-7.028 50.566-10.31 78.944s8.875 54.637 31.091 60.837l-2.53-24.679s3.747 25.829 41.478 37.994v-125.832c-27.181-37.794-36.456-138.06 6.419-167.691z" fill="#ff4155"/></g><g><path d="m208.614 221.239v93.336s19.021 20.093 47.17 20.093c.073 0 .143-.005.216-.005 28.031-.103 47.386-20.088 47.386-20.088v-93.336z" fill="#fcad6d"/></g><g><path d="m208.614 220.734v93.841c94.723 0 94.772-53.4 94.772-53.4v-40.44h-94.772z" fill="#fd995b"/></g><g><path d="m326.307 165.046c-4.281 9.642.591 20.92 10.338 24.957 9.746 4.037 20.92-.591 24.957-10.338 4.037-9.746 7.339-17.717 13.702-33.079 6.363-15.361-32.54-18.606-48.997 18.46z" fill="#fcad6d"/></g><g><path d="m316 92.356c6.171 33.533 27.477 51.149 27.549 51.209.029 1.226.048 2.456.048 3.695 0 64.505-39.219 140.155-87.597 140.155-39.611 0-73.076-50.717-83.906-104.506 92.184-9.194 143.906-90.553 143.906-90.553z" fill="#f9ba8f"/></g><g><path d="m276 283.069c-32.483-14.215-58.012-61.172-65.414-108.586-11.909 4.071-24.747 7.055-38.492 8.426 10.83 53.789 44.295 104.506 83.906 104.506 6.881 0 13.576-1.535 20-4.346z" fill="#fcad6d"/></g><g><path d="m417.867 334.587c-3.131 11.62-9.075 26.055-20.313 36.883l-.283-2.529c-.855-7.641-10.799-10.024-15.017-3.596-6.115 9.32-13.983 19.112-22.296 23.732 1.362-7.954-8.339-12.871-13.983-7.102-1.697 1.734-3.46 3.452-5.271 5.109-9.082 8.308-20.663 13.374-32.912 14.585-29.394 2.904-51.792 27.626-51.792 57.161 0-29.536-22.398-54.258-51.791-57.163-12.25-1.211-23.83-6.276-32.912-14.585-1.811-1.656-3.574-3.375-5.271-5.109-5.644-5.768-15.345-.852-13.983 7.102-8.313-4.619-16.181-14.412-22.296-23.732-4.218-6.428-14.162-4.045-15.017 3.596l-.283 2.529c-11.238-10.828-17.183-25.263-20.313-36.883-1.922-7.134-11.495-8.331-15.113-1.889-18.844 33.553-26.709 70.474-26.709 70.477 43.956 65.622 118.773 108.827 203.688 108.827s159.732-43.205 203.689-108.825c-.001-.003-7.865-36.924-26.709-70.477-3.618-6.442-13.191-5.245-15.113 1.889z" fill="#b76c4e"/></g><g><path d="m256 485.279c-34.417-21.504-60.429-50.175-74.841-90.023-.145-.4-.28-.809-.422-1.211-3.362-1.976-6.53-4.3-9.44-6.961-1.811-1.656-3.574-3.375-5.271-5.109-5.644-5.768-15.345-.852-13.983 7.103-8.313-4.619-16.181-14.412-22.296-23.732-4.218-6.428-14.162-4.045-15.017 3.596l-.283 2.53c-11.238-10.828-17.183-25.263-20.313-36.883-1.922-7.134-11.495-8.331-15.113-1.888-18.844 33.552-26.709 70.474-26.709 70.477 43.956 65.617 118.773 108.822 203.688 108.822z" fill="#a05838"/></g><g><path d="m120.812 471.33c-.075-.212-8.769-24.824 4.705-53.619 2.512-5.369-4.447-10.154-8.544-5.871-8.577 8.966-17.032 22.169-20.587 41.004 7.736 6.653 15.895 12.828 24.426 18.486z" fill="#934a2e"/></g><g><path d="m391.188 471.33c.075-.212 8.769-24.824-4.705-53.619-2.512-5.369 4.447-10.154 8.544-5.871 8.577 8.966 17.032 22.169 20.587 41.004-7.736 6.653-15.895 12.828-24.426 18.486z" fill="#a05838"/></g><g><path d="m227.843 510.395c9.24 1.057 18.634 1.605 28.157 1.605 9.545 0 18.962-.551 28.222-1.613-12.573-8.058-19.647-19.122-23.575-29.525-1.63-4.317-7.729-4.309-9.346.013-3.891 10.403-10.916 21.464-23.458 29.52z" fill="#934a2e"/></g><g><g><path d="m235.384 240.87h41.233c4.111-3.622 7.258-8.309 9.01-13.631 1.584-4.811-2.069-9.754-7.134-9.754h-44.985c-5.065 0-8.718 4.943-7.134 9.754 1.752 5.322 4.899 10.009 9.01 13.631z" fill="#162544"/></g><g><path d="m276.616 240.87c-5.493 4.849-12.714 7.798-20.616 7.798s-15.124-2.948-20.616-7.798c5.5-4.849 12.714-7.798 20.616-7.798s15.116 2.949 20.616 7.798z" fill="#ff4155"/></g></g><g><g><path d="m242.013 192.447 8.436-13.441c2.569-4.093 8.533-4.093 11.102 0l8.436 13.441c2.739 4.365-.398 10.038-5.551 10.038h-16.871c-5.154-.001-8.291-5.674-5.552-10.038z" fill="#fd995b"/></g></g><g><path d="m310.999 162.085c.043-3.495-1.371-7.004-4.242-9.539-4.675-4.128-11.84-4.128-16.515 0-2.871 2.535-4.284 6.044-4.242 9.539.055 4.538 5.629 6.716 8.838 3.507 2.022-2.022 5.3-2.022 7.322 0 3.21 3.21 8.784 1.032 8.839-3.507z" fill="#162544"/></g><g><path d="m316 132.917v-.005c0-3.045-1.951-5.736-4.829-6.731-8.513-2.944-16.772-2.959-25.337.003-2.88.996-4.834 3.685-4.834 6.733 0 4.883 4.783 8.211 9.427 6.701 5.247-1.706 10.9-1.706 16.147 0 4.643 1.51 9.426-1.818 9.426-6.701z" fill="#e80054"/></g></g></svg>