<svg id="Capa_1" enable-background="new 0 0 512 512" height="512" viewBox="0 0 512 512" width="512" xmlns="http://www.w3.org/2000/svg"><g><g><path d="m30.707 363.402 426.244 43.764c27.755-39.718 44.049-88.036 44.049-140.166 0-135.31-109.69-245-245-245s-245 109.69-245 245c0 34.229 7.029 66.813 19.707 96.402z" fill="#73c3f9"/></g><g><circle cx="256" cy="242" fill="#4fabf7" r="200"/></g><g><g><path d="m119.746 290.204s38.866-50.773 22.305-102.654c-14.975-46.912-73.489-57.961-71.237-105.162.373-7.817-8.081-12.956-14.897-9.108-17.354 9.797-41.583 31.982-44.615 80.114-4.786 75.981 47.928 116.945 108.444 136.81z" fill="#5c45bf"/></g><g><path d="m119.746 290.204s8.586-11.219 15.968-28.496c-26.304-14.798-43.344-40.271-54.255-64.78-3.654-8.207-16.012-3.917-13.839 4.8.136.545.275 1.091.417 1.637 2.144 8.242-9.237 12.877-13.488 5.498-27.636-47.974-29.471-105.695-6.1-130.8-16.143 11.607-34.53 33.81-37.146 75.331-4.787 75.981 47.927 116.945 108.443 136.81z" fill="#4432ad"/></g><g><path d="m132.735 294.468s-1.214-63.93 42.873-95.902c39.865-28.91 93.543-3.131 119.703-42.484 4.333-6.517 14.188-5.646 17.397 1.492 8.172 18.176 14.539 50.404-11.544 90.969-41.176 64.037-107.913 65.79-168.429 45.925z" fill="#5c45bf"/></g><g><path d="m239.864 248.9c.39-.415.776-.83 1.158-1.247 6.78-7.402-3.112-18.188-11.015-11.998-25.387 19.884-59.161 36.949-93.242 26.383-4.298 18.298-4.031 32.431-4.031 32.431 60.516 19.865 127.252 18.112 168.428-45.925 17.299-26.903 20.318-50.134 18.01-68.036 1.843 20.783-27.283 57.809-69.375 81.106-8.107 4.487-16.282-5.963-9.933-12.714z" fill="#4432ad"/></g><g><path d="m153.975 407.166c-4.673-6.765-8.708-14.063-11.94-21.944-25.875-63.092 14.735-126.247-2.165-135.486-17.147-9.373-84.082 41.898-109.262 113.44 6.648 15.559 14.865 30.284 24.442 43.989h98.925z" fill="#7255ce"/></g></g><g><path d="m339.003 36.423c-19.784-22.322-47.62-36.423-81.869-36.423s-48.985 5.638-62.772 12-14.708 34.073-14.708 34.073c-17.176 18.715-27.663 43.666-27.663 71.07v30.076h210.286v-30.076c0-23.009-3.49-58.398-23.274-80.72z" fill="#2d3c6b"/></g><g><path d="m279.623 95.694c-27.029-14.71-77.176-69.545-48.623-94.291-16.896 2.062-27.004 6.151-36.638 10.597-13.787 6.362-14.708 34.073-14.708 34.073-17.176 18.715-27.663 43.666-27.663 71.07v30.076h196.063z" fill="#213159"/></g><g><path d="m256 512c83.18 0 156.665-41.461 200.951-104.835-.001-.009-.001-.017-.002-.026-8.256-22.709-16.99-42.685-24.722-51.911-.904-1.078-1.794-2.019-2.668-2.79-6.623-5.848-19.39-11.382-34.352-16.323-37.928-12.525-89.968-21.232-91.82-21.54h-94.772c-1.853.307-53.892 9.014-91.82 21.54-14.961 4.941-27.729 10.475-34.352 16.323-.874.772-1.765 1.712-2.668 2.79-7.732 9.226-16.467 29.203-24.722 51.911-.001.009-.001.018-.002.026 44.284 63.374 117.769 104.835 200.949 104.835z" fill="#fcad6d"/></g><g><path d="m139.431 329.439c-7.761 2.068-15.452 4.303-22.637 6.676-14.961 4.941-27.729 10.475-34.352 16.323-.874.772-1.765 1.712-2.668 2.79-7.732 9.226-16.467 29.203-24.722 51.911-.001.009-.001.018-.002.026 44.285 63.374 117.77 104.835 200.95 104.835-97.665-30.364-114.074-137.112-116.569-182.561z" fill="#fd995b"/></g><g><path d="m276.616 369.362s10.767-11.809 23.703-11.809 55.191 11.809 55.191 11.809z" fill="#fd995b"/></g><g><path d="m235.384 369.362s-10.767-11.809-23.703-11.809-55.191 11.809-55.191 11.809z" fill="#fd995b"/></g><g><path d="m208.614 221.239v93.336s19.021 20.093 47.17 20.093c.073 0 .143-.005.216-.005 28.031-.103 47.386-20.088 47.386-20.088v-93.336z" fill="#fcad6d"/></g><g><path d="m208.614 220.734v93.841c94.723 0 94.772-53.4 94.772-53.4v-40.44h-94.772z" fill="#fd995b"/></g><g><path d="m91.07 426.843v21.327c7.157 6.519 14.704 12.617 22.599 18.262l-12.035-41.103c-1.75-5.98-10.564-4.716-10.564 1.514z" fill="#ef854b"/></g><g><path d="m420.93 426.843v21.327c-7.157 6.519-14.704 12.617-22.599 18.262l12.035-41.103c1.75-5.98 10.564-4.716 10.564 1.514z" fill="#fd995b"/></g><g><path d="m256 512c27.792 0 54.498-4.635 79.398-13.162l-44.768-7.557c-8.391-1.416-14.967-7.988-16.39-16.378l-12.405-73.165c-.483-2.847-2.949-4.93-5.836-4.93-2.887 0-5.353 2.083-5.836 4.93l-12.405 73.165c-1.423 8.39-7.998 14.961-16.39 16.378l-44.768 7.557c24.902 8.527 51.608 13.162 79.4 13.162z" fill="#fd995b"/></g><g><path d="m185.693 165.046c4.281 9.642-.591 20.92-10.338 24.957-9.746 4.037-20.92-.591-24.957-10.338-4.037-9.746-7.339-17.717-13.702-33.079s32.54-18.606 48.997 18.46z" fill="#fd995b"/></g><g><path d="m326.307 165.046c-4.281 9.642.591 20.92 10.338 24.957 9.746 4.037 20.92-.591 24.957-10.338 4.037-9.746 7.339-17.717 13.702-33.079 6.363-15.361-32.54-18.606-48.997 18.46z" fill="#fcad6d"/></g><g><path d="m279.623 95.694 12.283 14.501c2.38 2.809.013 7.078-3.631 6.548-55.268-8.042-74.702-33.809-74.702-33.809-15.713 7.454-23.178 25.856-28.624 41.82-2.762 8.097-8.72 14.703-16.484 18.295l-.015-.007c-.029 1.231-.049 2.467-.049 3.713 0 64.505 39.219 140.155 87.597 140.155s87.597-75.651 87.597-140.155c0-1.244-.02-2.479-.049-3.71-21.033-24.057-43.596-38.596-63.923-47.351z" fill="#f9ba8f"/></g><g><path d="m208.403 146.754c0-21.401 4.332-40.792 11.868-57.171-4.647-3.937-6.696-6.649-6.696-6.649-15.713 7.454-23.178 25.856-28.624 41.82-2.762 8.097-8.72 14.703-16.484 18.295l-.015-.007c-.029 1.231-.049 2.468-.049 3.713 0 64.505 39.219 140.155 87.597 140.155 6.881 0 13.576-1.535 20-4.346-38.741-16.953-67.597-80.48-67.597-135.81z" fill="#fcad6d"/></g><g><g><path d="m242.013 192.447 8.436-13.441c2.569-4.093 8.533-4.093 11.102 0l8.436 13.441c2.739 4.365-.398 10.038-5.551 10.038h-16.871c-5.154-.001-8.291-5.674-5.552-10.038z" fill="#fd995b"/></g></g><g><g><path d="m235.384 240.87h41.233c4.111-3.622 7.258-8.309 9.01-13.631 1.584-4.811-2.069-9.754-7.134-9.754h-44.985c-5.065 0-8.718 4.943-7.134 9.754 1.752 5.322 4.899 10.009 9.01 13.631z" fill="#162544"/></g><g><path d="m276.616 240.87c-5.493 4.849-12.714 7.798-20.616 7.798s-15.124-2.948-20.616-7.798c5.5-4.849 12.714-7.798 20.616-7.798s15.116 2.949 20.616 7.798z" fill="#ff4155"/></g></g><g><path d="m311.239 162.03c.043-3.495-1.371-7.004-4.242-9.539-4.675-4.128-11.84-4.128-16.515 0-2.871 2.535-4.284 6.044-4.242 9.539.055 4.538 5.629 6.716 8.838 3.507 2.022-2.022 5.3-2.022 7.322 0 3.21 3.209 8.784 1.031 8.839-3.507z" fill="#162544"/></g><g><path d="m200.761 162.03c-.043-3.495 1.371-7.004 4.242-9.539 4.675-4.128 11.84-4.128 16.515 0 2.871 2.535 4.284 6.044 4.242 9.539-.055 4.538-5.629 6.716-8.838 3.507-2.022-2.022-5.3-2.022-7.322 0-3.21 3.209-8.784 1.031-8.839-3.507z" fill="#162544"/></g><g><path d="m196 127.917v-.005c0-3.045 1.951-5.736 4.829-6.731 8.513-2.944 16.772-2.959 25.337.003 2.88.996 4.834 3.685 4.834 6.733 0 4.883-4.783 8.211-9.427 6.701-5.247-1.706-10.9-1.706-16.147 0-4.642 1.51-9.426-1.818-9.426-6.701z" fill="#213159"/></g><g><path d="m316 127.917v-.005c0-3.045-1.951-5.736-4.829-6.731-8.513-2.944-16.772-2.959-25.337.003-2.88.996-4.834 3.685-4.834 6.733 0 4.883 4.783 8.211 9.427 6.701 5.247-1.706 10.9-1.706 16.147 0 4.643 1.51 9.426-1.818 9.426-6.701z" fill="#213159"/></g></g></svg>