<svg id="Capa_1" enable-background="new 0 0 512 512" height="512" viewBox="0 0 512 512" width="512" xmlns="http://www.w3.org/2000/svg"><g><g><path d="m415.273 453.153c52.469-44.935 85.727-111.656 85.727-186.153 0-135.31-109.69-245-245-245s-245 109.69-245 245c0 42.695 10.94 82.826 30.144 117.776z" fill="#7255ce"/></g><g><circle cx="256" cy="242" fill="#5c45bf" r="200"/></g><g><path d="m96.83 453.128h159.17v-282.18h-84.088c-24.424 28.728-53.44 58.006-86.09 82.194-7.814 5.789-8.209 17.334-.755 23.58l17.975 15.063s-18.92 51.633-61.919 92.987c14.324 26.079 33.26 49.26 55.706 68.461v-.105z" fill="#4fabf7"/></g><g><g><path d="m226.801 76.484s-23.313-46.811-56.166-74.569c-4.251-3.591-10.781-1.926-12.738 3.283-8.714 23.193-21.326 81.097 58.44 102.471z" fill="#bec8f7"/></g><g><path d="m167.292 15.057c-3.579 11.654-6.45 28.863.297 44.501 6.279 14.556 20.067 25.666 41.054 33.113z" fill="#acbbef"/></g></g><g><g><path d="m285.199 76.484s23.313-46.811 56.166-74.569c4.251-3.591 10.781-1.926 12.738 3.283 8.714 23.193 21.326 81.097-58.44 102.471z" fill="#dae2fe"/></g><g><path d="m344.708 15.057c3.579 11.654 6.45 28.863-.297 44.501-6.279 14.556-20.067 25.666-41.054 33.113z" fill="#bec8f7"/></g></g><g><path d="m403.418 422.367c-3.778-9.812-11.016-17.901-20.349-22.744-12.784-6.633-21.405-19.219-22.97-33.537l-15.624-142.893h-176.949l-15.624 142.893c-1.565 14.317-10.186 26.903-22.97 33.537-9.332 4.842-16.57 12.932-20.349 22.744l-11.856 30.786c42.83 36.681 98.46 58.847 159.273 58.847s116.443-22.166 159.274-58.847z" fill="#dae2fe"/></g><g><path d="m222.542 481.649c-15.236-23.199-21.551-51.137-18.534-78.727l19.652-179.728h-56.133l-15.624 142.893c-1.565 14.317-10.186 26.903-22.97 33.537-9.332 4.842-16.57 12.932-20.349 22.744l-11.856 30.786c42.829 36.68 98.459 58.846 159.272 58.846-14.344-6.36-25.275-17.89-33.458-30.351z" fill="#bec8f7"/></g><g><path d="m280.748 61.483h-49.496c-36.817 8.565-63.726 35.751-63.726 67.969v93.742c0 18.772 7.457 36.775 20.731 50.049l19.545 19.545c4.425 4.425 10.426 6.91 16.683 6.91h63.031c6.257 0 12.258-2.486 16.683-6.91l19.545-19.545c13.274-13.274 20.731-31.277 20.731-50.049v-93.742c-.001-32.217-26.91-59.403-63.727-67.969z" fill="#e9efff"/></g><g><path d="m220.455 273.243c-13.274-13.274-20.731-31.277-20.731-50.049v-93.742c0-32.233 26.94-59.418 63.784-67.969h-32.256c-36.817 8.565-63.726 35.751-63.726 67.969v93.742c0 18.772 7.457 36.775 20.731 50.049l19.545 19.545c4.425 4.425 10.426 6.91 16.683 6.91h32.198c-6.257 0-12.258-2.486-16.683-6.91z" fill="#dae2fe"/></g><g><path d="m273.828 335.272h-35.656c-13.326 0-24.129-10.803-24.129-24.129 0-13.326 10.803-24.129 24.129-24.129h35.656c13.326 0 24.129 10.803 24.129 24.129.001 13.326-10.802 24.129-24.129 24.129z" fill="#acbbef"/></g><g><path d="m325.144 252.986-11.589 45.998c-1.801 7.147-8.228 12.156-15.599 12.156h-83.912c-7.37 0-13.798-5.009-15.599-12.156l-11.589-45.998c-1.507-5.98.538-12.294 5.263-16.257l28.921-24.25c4.144-3.475 6.714-8.472 7.129-13.864l5.374-69.765c.683-8.869-3.4-17.432-10.721-22.485-17.813-12.293-12.663-39.977 8.417-44.882 7.858-1.829 16.167-2.809 24.763-2.809s16.905.98 24.763 2.809c21.079 4.905 26.229 32.59 8.417 44.882-7.321 5.052-11.404 13.616-10.721 22.485l5.374 69.765c.415 5.392 2.985 10.389 7.129 13.864l28.921 24.25c4.722 3.962 6.766 10.277 5.259 16.257z" fill="#fff"/></g><g><path d="m228.176 296.565-17.075-59.763c-1.957-6.849-.142-14.221 4.77-19.379l2.885-3.029-26.637 22.335c-4.725 3.962-6.77 10.277-5.263 16.257l11.589 45.998c1.801 7.147 8.228 12.156 15.599 12.156h33.454c-8.972 0-16.857-5.948-19.322-14.575z" fill="#e9efff"/></g><g><g><path d="m284.173 259.344c-4.883 0-9.474-1.901-12.926-5.354-1.953-1.952-1.953-5.118 0-7.071 1.953-1.951 5.119-1.951 7.071.001 1.564 1.563 3.643 2.425 5.855 2.425s4.292-.861 5.855-2.425c1.953-1.953 5.118-1.953 7.071 0 1.953 1.952 1.953 5.118 0 7.07-3.453 3.452-8.043 5.354-12.926 5.354z" fill="#bec8f7"/></g><g><path d="m227.827 259.344c-4.883 0-9.474-1.901-12.927-5.354-1.953-1.952-1.953-5.118 0-7.07 1.953-1.953 5.118-1.953 7.071 0 1.564 1.563 3.644 2.425 5.855 2.425s4.291-.861 5.855-2.425c1.952-1.953 5.119-1.952 7.071-.001 1.953 1.953 1.953 5.119 0 7.071-3.451 3.452-8.042 5.354-12.925 5.354z" fill="#bec8f7"/></g></g><g><circle cx="203.26" cy="142.839" fill="#162544" r="10"/></g><g><circle cx="308.74" cy="142.839" fill="#162544" r="10"/></g><g><path d="m210.978 140.911-19.319-5.176c-4.001-1.072-6.375-5.185-5.303-9.186 1.072-4.001 5.185-6.375 9.186-5.303l19.319 5.176c4.001 1.072 6.375 5.185 5.303 9.186-1.073 4.001-5.185 6.375-9.186 5.303z" fill="#bec8f7"/></g><g><path d="m320.341 135.735-19.319 5.176c-4.001 1.072-8.113-1.302-9.186-5.303-1.072-4.001 1.302-8.114 5.303-9.186l19.319-5.176c4.001-1.072 8.114 1.302 9.186 5.303 1.072 4.001-1.302 8.114-5.303 9.186z" fill="#bec8f7"/></g><g><path d="m255.96 0c-2.893 0-5.392 2.022-5.995 4.851l-19.024 89.105c-.457 2.14.262 4.362 1.886 5.829 12.708 11.481 32.044 11.481 44.752 0l.047-.043c1.598-1.444 2.322-3.621 1.905-5.735l-17.556-89.062c-.567-2.873-3.086-4.945-6.015-4.945z" fill="#ffdd40"/></g><g><path d="m267.947 35.244-5.973-30.3c-.566-2.872-3.085-4.944-6.014-4.944-2.893 0-5.392 2.022-5.995 4.851l-3.579 16.761c5.286 4.971 12.442 10.158 21.561 13.632z" fill="#ffc839"/></g><g><path d="m240.187 50.647-6.103 28.587c6.996 4.376 23.649 12.798 44.467 9.8l-5.404-27.416c-14.29-.706-25.702-6.244-32.96-10.971z" fill="#ffc839"/></g></g></svg>