<svg id="Capa_1" enable-background="new 0 0 512 512" height="512" viewBox="0 0 512 512" width="512" xmlns="http://www.w3.org/2000/svg"><g><g><path d="m456.934 407.166c27.762-39.717 44.066-88.031 44.066-140.166 0-135.31-109.69-245-245-245s-245 109.69-245 245c0 52.135 16.304 100.449 44.066 140.166z" fill="#ff4155"/></g><g><circle cx="256" cy="242" fill="#e80054" r="200"/></g><g><path d="m203.696 15.93c-9.508-9.508-24.297-11.221-35.737-4.156-22.041 13.613-57.219 33.554-73.546 33.138-24.744-.631-22.382-42.207-33.032-44.82s-19.238 50.955 9.884 80.077c24.809 24.809 79.549 16.514 129.164-20.43 14.212-10.582 15.797-31.279 3.267-43.809z" fill="#213159"/></g><g><path d="m308.304 15.93c9.508-9.508 24.297-11.221 35.737-4.156 22.041 13.613 57.219 33.554 73.546 33.138 24.743-.631 22.381-42.207 33.031-44.82s19.238 50.955-9.884 80.077c-24.809 24.809-79.549 16.514-129.164-20.43-14.211-10.582-15.795-31.279-3.266-43.809z" fill="#213159"/></g><g><path d="m311.571 59.739c15.053 11.209 30.575 19.762 45.593 25.572-9.49-4.782-16.004-14.607-16.004-25.959 0-16.049 13.01-29.059 29.059-29.059 3.1 0 6.085.49 8.886 1.389-12.402-6.283-25.08-13.743-35.063-19.909-11.44-7.066-26.229-5.352-35.737 4.156-12.531 12.53-10.946 33.228 3.266 43.81z" fill="#162544"/></g><g><path d="m200.429 59.739c-15.053 11.209-30.575 19.762-45.593 25.572 9.49-4.782 16.004-14.607 16.004-25.959 0-16.049-13.01-29.059-29.059-29.059-3.1 0-6.085.49-8.886 1.389 12.402-6.283 25.08-13.743 35.063-19.909 11.44-7.066 26.229-5.352 35.737 4.156 12.531 12.53 10.946 33.228-3.266 43.81z" fill="#162544"/></g><g><path d="m240.835 326.758c-18.222-103.34-77.085-179.339-131.474-169.749-49.302 8.693-78.005 84.728-69.371 175.846.853 9.007 12.958 11.33 17.16 3.318s-.3 29.448 11.002 70.966h177.438c1.636-24.976.207-52.238-4.755-80.381z" fill="#213159"/></g><g><path d="m81.796 260.543c.24-5.98-8.153-7.577-10.134-1.93-6.713 19.131-13.739 46.291-14.513 77.56 0 0-.3 29.448 11.002 70.966h46.295c-31.485-40.969-34.217-107.535-32.65-146.596z" fill="#162544"/></g><g><path d="m271.165 326.758c18.222-103.34 77.085-179.339 131.474-169.749 49.302 8.693 78.005 84.728 69.371 175.846-.853 9.007-12.958 11.33-17.16 3.318s.3 29.448-11.002 70.966h-177.438c-1.636-24.976-.207-52.238 4.755-80.381z" fill="#213159"/></g><g><path d="m349.188 407.139c31.491-48.245 41.912-99.84 45.216-133.303.62-6.277-8.186-8.322-10.418-2.423-15.294 40.411-44.938 106.122-84.866 135.726z" fill="#162544"/></g><g><path d="m162.812 407.139c-31.491-48.245-41.912-99.84-45.216-133.303-.62-6.277 8.186-8.322 10.418-2.423 15.294 40.411 44.938 106.122 84.866 135.726z" fill="#162544"/></g><g><path d="m430.204 260.543c-.24-5.98 8.153-7.577 10.134-1.93 6.713 19.131 13.739 46.291 14.513 77.56 0 0 .3 29.448-11.002 70.966h-46.295c31.485-40.969 34.217-107.535 32.65-146.596z" fill="#162544"/></g><g><path d="m373.213 362.234h-234.426l22.07-215.016h190.286z" fill="#dae2fe"/></g><g><path d="m456.949 407.139c-8.256-22.709-16.99-42.685-24.722-51.911-.904-1.078-1.795-2.019-2.668-2.79-6.623-5.848-19.39-11.382-34.352-16.323-37.928-12.525-89.968-21.232-91.82-21.54h-94.772c-1.853.307-53.892 9.014-91.82 21.54-14.961 4.941-27.729 10.475-34.352 16.323-.874.771-1.765 1.712-2.668 2.79-7.732 9.226-16.467 29.202-24.722 51.911-.001.009-.001.018-.002.026 17.679 25.299 40.016 47.101 65.762 64.172l.002-.008h52.315s49.133 40.67 82.872 40.67 82.872-40.67 82.872-40.67h52.315l.002.008c25.745-17.071 48.082-38.873 65.762-64.172-.003-.008-.003-.017-.004-.026z" fill="#fcad6d"/></g><g><path d="m120.812 471.33h52.315s49.133 40.67 82.872 40.67c-97.666-30.364-114.074-137.112-116.569-182.561-7.761 2.067-15.452 4.303-22.637 6.676-14.961 4.941-27.729 10.475-34.352 16.323-.874.771-1.765 1.712-2.668 2.79-7.732 9.226-16.467 29.202-24.722 51.911-.001.009-.001.018-.002.026 17.679 25.299 40.016 47.101 65.762 64.172z" fill="#fd995b"/></g><g><path d="m256 512c9.878 0 21.076-3.489 31.974-8.42-14.917-8.16-22.976-20.335-27.275-31.718-1.63-4.317-7.729-4.309-9.346.013-4.265 11.401-12.29 23.594-27.223 31.752 10.866 4.906 22.023 8.373 31.87 8.373z" fill="#fd995b"/></g><g><path d="m276.616 369.362s10.767-11.809 23.703-11.809 55.191 11.809 55.191 11.809z" fill="#fd995b"/></g><g><path d="m235.384 369.362s-10.767-11.809-23.703-11.809-55.191 11.809-55.191 11.809z" fill="#fd995b"/></g><g><path d="m391.147 471.33c6.374-4.223 12.555-8.713 18.491-13.499-4.027-11.7-11.689-21.884-21.736-29.06v42.559z" fill="#fd995b"/></g><g><path d="m124.098 471.33v-42.559c-10.047 7.176-17.708 17.36-21.736 29.06 5.936 4.786 12.117 9.277 18.491 13.499z" fill="#ef854b"/></g><g><path d="m208.614 221.239v93.336s19.021 20.093 47.17 20.093c.073 0 .143-.005.216-.005 28.031-.103 47.386-20.088 47.386-20.088v-93.336z" fill="#fcad6d"/></g><g><path d="m208.614 220.734v93.841c94.723 0 94.772-53.4 94.772-53.4v-40.44h-94.772z" fill="#fd995b"/></g><g><path d="m123.525 430.01c-5.083 11.116-6.792 23.941-3.878 37.022.604 2.713 1.146 4.246 1.165 4.298v.009c38.749 25.687 85.216 40.661 135.188 40.661-50.211-29.794-85.836-101.359-87.435-188.45-.058-3.163-3.008-5.477-6.092-4.774-7.283 1.659-14.914 3.508-22.491 5.517-2.18.578-3.696 2.53-3.728 4.785-.521 36.74-6.887 76.281-12.729 100.932z" fill="#2d3c6b"/></g><g><path d="m388.475 430.01c5.083 11.116 6.792 23.941 3.878 37.022-.604 2.713-1.146 4.246-1.165 4.298v.009c-38.749 25.687-85.216 40.661-135.188 40.661 50.211-29.794 85.836-101.359 87.435-188.45.058-3.163 3.008-5.477 6.092-4.774 7.283 1.659 14.914 3.508 22.491 5.517 2.18.578 3.696 2.53 3.728 4.785.521 36.74 6.887 76.281 12.729 100.932z" fill="#3c5082"/></g><g><path d="m355.547 83.218c-12.65-41.159-45.137-83.218-80.681-83.218-12.234 0-18.866 12-18.866 12s-6.632-12-18.866-12c-35.545 0-68.033 42.062-80.682 83.222-3.586 10.526-5.547 21.804-5.589 33.534-.001.128-.005.259-.005.387v30.076h210.286v-30.076c-.001-11.871-1.971-23.282-5.597-33.925z" fill="#e9efff"/></g><g><path d="m186.913 147.218 9.391-58.522c-1.005-27.564-2.793-72.164 29.696-87.335-31.048 7.514-58.235 45.046-69.549 81.862-3.586 10.527-5.547 21.804-5.589 33.534-.001.128-.005.259-.005.386v30.076h36.056z" fill="#dae2fe"/></g><g><path d="m185.693 165.046c4.281 9.642-.591 20.92-10.338 24.957-9.746 4.037-20.92-.591-24.957-10.338-4.037-9.746-7.339-17.717-13.702-33.079s32.54-18.606 48.997 18.46z" fill="#fd995b"/></g><g><path d="m326.307 165.046c-4.281 9.642.591 20.92 10.338 24.957 9.746 4.037 20.92-.591 24.957-10.338 4.037-9.746 7.339-17.717 13.702-33.079 6.363-15.361-32.54-18.606-48.997 18.46z" fill="#fcad6d"/></g><g><path d="m343.549 143.073-.038-.009-27.855-54.367s-1.298 31.537-12.146 54.367h-20.872c-.71-4.248-2.616-13.346-6.82-20.829 0 0-1.644 12.113-8.877 20.829h-58.491c-10.848-22.83-12.146-54.367-12.146-54.367l-27.853 54.363c-.029 1.226-.048 2.456-.048 3.696 0 64.505 39.219 140.155 87.597 140.155s87.597-75.651 87.597-140.155c0-1.236-.019-2.462-.048-3.683z" fill="#f9ba8f"/></g><g><path d="m208.403 146.754c0-1.24.031-2.465.06-3.691h-.013c-10.848-22.83-12.146-54.367-12.146-54.367l-27.853 54.363c-.029 1.226-.048 2.456-.048 3.696 0 64.505 39.219 140.155 87.597 140.155 6.881 0 13.576-1.535 20-4.346-38.741-16.953-67.597-80.48-67.597-135.81z" fill="#fcad6d"/></g><g><path d="m221.218 148.301-19.319-5.176c-4.001-1.072-6.375-5.185-5.303-9.186 1.072-4.001 5.185-6.375 9.186-5.303l19.319 5.176c4.001 1.072 6.375 5.185 5.303 9.186-1.072 4-5.185 6.375-9.186 5.303z" fill="#fff"/></g><g><path d="m310.1 143.124-19.319 5.176c-4.001 1.072-8.114-1.302-9.186-5.303-1.072-4.001 1.302-8.114 5.303-9.186l19.319-5.176c4.001-1.072 8.114 1.302 9.186 5.303 1.073 4.002-1.302 8.114-5.303 9.186z" fill="#fff"/></g><g><path d="m223.5 158.229c0 5.523-4.477 10-10 10s-10-4.477-10-10 20-5.523 20 0z" fill="#162544"/></g><g><path d="m288.5 158.229c0 5.523 4.477 10 10 10s10-4.477 10-10-20-5.523-20 0z" fill="#162544"/></g><g><g><path d="m242.013 192.447 8.436-13.441c2.569-4.093 8.533-4.093 11.102 0l8.436 13.441c2.739 4.365-.398 10.038-5.551 10.038h-16.871c-5.154-.001-8.291-5.674-5.552-10.038z" fill="#fd995b"/></g></g><g><path d="m278.492 217.484h-1l-7.641 5-7.641-5h-12.42l-7.641 5-7.641-5h-1c-5.065 0-8.718 4.943-7.134 9.754 1.752 5.322 4.899 10.009 9.01 13.631h41.233c4.111-3.622 7.258-8.309 9.01-13.631 1.583-4.81-2.07-9.754-7.135-9.754z" fill="#162544"/></g><g><path d="m235.384 240.87c5.493 4.849 12.714 7.798 20.616 7.798s15.124-2.948 20.616-7.798c-5.5-4.849-12.714-7.798-20.616-7.798s-15.116 2.949-20.616 7.798z" fill="#ff4155"/></g><g><g><path d="m277.492 217.484-5.55 8.844c-.968 1.542-3.214 1.542-4.182 0l-5.55-8.844z" fill="#e9efff"/></g></g><g><g><path d="m234.508 217.484 5.55 8.844c.968 1.542 3.214 1.542 4.182 0l5.55-8.844z" fill="#e9efff"/></g></g></g></svg>