<svg id="Capa_1" enable-background="new 0 0 512 512" height="512" viewBox="0 0 512 512" width="512" xmlns="http://www.w3.org/2000/svg"><g><g><path d="m456.934 407.166c27.762-39.717 44.066-88.031 44.066-140.166 0-135.31-109.69-245-245-245s-245 109.69-245 245c0 52.135 16.304 100.449 44.066 140.166z" fill="#73c3f9"/></g><g><circle cx="256" cy="242" fill="#4fabf7" r="200"/></g><g><g><path d="m51.254 39.155c1.493-5.737 7.355-9.176 13.089-7.683l11.66 3.034-9.959-18.736c-2.782-5.234-.793-11.731 4.44-14.513 5.229-2.779 11.731-.794 14.513 4.44l30.097 56.63c4.627 8.707 11.163 16.177 18.98 21.927 11.156-15.412 16.346-34.508 14.35-53.629l-1.398-13.391c-.616-5.895 3.665-11.173 9.559-11.789 5.895-.615 11.173 3.664 11.788 9.559l1.398 13.391c2.428 23.251-3.472 46.474-16.35 65.629.835.259 1.675.506 2.523.731l90.873 24.138c5.729 1.522 9.139 7.399 7.617 13.127-1.023 3.851-4.013 6.653-7.604 7.615-1.751.469-3.646.501-5.524.002l-90.873-24.139c-6.572-1.746-12.868-4.256-18.774-7.438-.339-.165-.672-.348-.996-.551-14.525-8.072-26.618-20.234-34.524-35.111l-6.46-12.154-30.745-8.001c-5.733-1.492-9.173-7.352-7.68-13.088z" fill="#b76c4e"/></g><g><path d="m460.746 39.155c-1.493-5.737-7.355-9.176-13.089-7.683l-11.66 3.034 9.958-18.737c2.782-5.234.793-11.731-4.44-14.513-5.229-2.779-11.731-.794-14.513 4.44l-30.097 56.63c-4.627 8.707-11.163 16.177-18.98 21.927-11.156-15.412-16.346-34.508-14.35-53.629l1.398-13.391c.616-5.895-3.665-11.173-9.559-11.789-5.895-.615-11.173 3.664-11.788 9.559l-1.398 13.391c-2.428 23.251 3.472 46.474 16.35 65.629-.835.259-1.675.506-2.523.731l-90.873 24.138c-5.729 1.522-9.139 7.399-7.617 13.127 1.023 3.851 4.013 6.653 7.604 7.615 1.751.469 3.646.501 5.524.002l90.873-24.139c6.572-1.746 12.867-4.256 18.774-7.438.339-.165.672-.348.996-.551 14.525-8.072 26.618-20.234 34.524-35.111l6.46-12.154 30.745-8.001c5.734-1.491 9.174-7.351 7.681-13.087z" fill="#b76c4e"/></g><g><path d="m377.925 84.253c-11.156-15.412-16.346-34.508-14.35-53.629l1.398-13.391c.616-5.895-3.665-11.173-9.559-11.789-5.895-.615-11.173 3.664-11.788 9.559l-1.399 13.391c-2.428 23.251 3.472 46.474 16.35 65.629-.835.259-1.675.506-2.523.731l-90.873 24.138c-5.729 1.522-9.139 7.399-7.617 13.127 1.023 3.851 4.013 6.653 7.604 7.615 1.751.469 3.646.501 5.524.002l90.873-24.139c6.572-1.746 12.867-4.256 18.774-7.438.339-.165.672-.348.996-.551 3.601-2.001 7.051-4.255 10.326-6.738-7.945.035-15.62-6.965-13.736-16.517z" fill="#a05838"/></g><g><path d="m134.075 84.253c11.156-15.412 16.346-34.508 14.35-53.629l-1.398-13.391c-.616-5.895 3.665-11.173 9.559-11.789 5.895-.615 11.173 3.664 11.788 9.559l1.399 13.391c2.428 23.251-3.472 46.474-16.35 65.629.835.259 1.675.506 2.523.731l90.873 24.138c5.729 1.522 9.139 7.399 7.617 13.127-1.023 3.851-4.013 6.653-7.604 7.615-1.751.469-3.646.501-5.524.002l-90.873-24.139c-6.572-1.746-12.867-4.256-18.774-7.438-.339-.165-.672-.348-.996-.551-3.601-2.001-7.051-4.255-10.326-6.738 7.945.035 15.62-6.965 13.736-16.517z" fill="#a05838"/></g></g><g><path d="m412.228 259.136c-21.522-7.533-27.392-22.468-18.088-51.816 8.405-26.513-26.225-54.168-32.997-59.266v-30.911c0-27.404-10.487-52.356-27.663-71.07 0 0-.921-27.711-14.708-34.073-13.787-6.362-28.523-12-62.772-12s-62.086 14.101-81.87 36.423-23.273 57.711-23.273 80.72v.121c0 17.61-6.634 34.491-18.288 47.694-10.147 11.495-19.542 27.117-14.709 42.362 9.304 29.349 3.435 44.283-18.088 51.816-21.522 7.533-72.394 55.796-18.914 126.233h350.283c53.48-70.437 2.609-118.7-18.913-126.233z" fill="#14a34d"/></g><g><path d="m230.827 2.717c-22.887 5.105-42.011 17.137-56.696 33.706-19.784 22.322-23.273 57.711-23.273 80.72v.121c0 9.797-2.059 19.366-5.888 28.204h166.584v-28.085l-31.93-21.689c-27.027-14.708-77.33-68.228-48.797-92.977z" fill="#0c913c"/></g><g><path d="m346.915 242c17.872-24.064 10.383-56.958-7.009-59.596h-167.812c-17.392 2.639-24.881 35.532-7.009 59.596s-72 73.227-28.085 143.369h238c43.915-70.142-45.957-119.305-28.085-143.369z" fill="#0c913c"/></g><g><path d="m409.617 457.831h-307.234c-18.06-14.558-34.021-31.615-47.333-50.665.001-.009.001-.017.002-.026 8.256-22.709 16.99-42.685 24.722-51.911.904-1.078 1.795-2.019 2.668-2.79 6.623-5.848 19.39-11.382 34.352-16.323 37.929-12.525 89.967-21.232 91.82-21.54h94.772c1.853.307 53.892 9.014 91.82 21.54 14.961 4.941 27.729 10.475 34.352 16.323.874.772 1.765 1.712 2.668 2.79 7.732 9.226 16.467 29.203 24.722 51.911.001.009.001.018.002.026-13.311 19.049-29.273 36.106-47.333 50.665z" fill="#49d88b"/></g><g><path d="m102.383 457.831h118.606c-17.282-17.151-30.825-37.677-39.83-62.575-7.588-20.984-11.96-45.066-12.65-72.831v-.001c-16.433 3.612-35.381 8.297-51.715 13.691-14.961 4.941-27.729 10.475-34.352 16.323-.874.772-1.765 1.712-2.668 2.79-7.732 9.226-16.467 29.203-24.722 51.911-.001.009-.001.018-.002.026 13.311 19.05 29.273 36.107 47.333 50.666z" fill="#38c674"/></g><g><path d="m276.616 369.362s10.767-11.809 23.703-11.809 55.191 11.809 55.191 11.809z" fill="#38c674"/></g><g><path d="m235.384 369.362s-10.767-11.809-23.703-11.809-55.191 11.809-55.191 11.809z" fill="#38c674"/></g><g><path d="m391.147 471.33c6.374-4.223 12.555-8.713 18.491-13.499-4.027-11.7-11.689-21.884-21.736-29.06v42.559z" fill="#38c674"/></g><g><path d="m124.098 471.33v-42.559c-10.047 7.176-17.708 17.36-21.736 29.06 5.936 4.786 12.117 9.277 18.491 13.499z" fill="#21b75d"/></g><g><path d="m208.614 221.239v93.336s19.021 20.093 47.17 20.093c.073 0 .143-.005.216-.005 28.031-.103 47.386-20.088 47.386-20.088v-93.336z" fill="#49d88b"/></g><g><path d="m208.614 220.734v93.841c94.723 0 94.772-53.4 94.772-53.4v-40.44h-94.772z" fill="#38c674"/></g><g><path d="m177.575 395.255c-37.77 0-66.143 34.911-57.928 71.776.604 2.713 1.146 4.246 1.165 4.298v.009c38.748 25.688 85.216 40.662 135.188 40.662 49.971 0 96.439-14.974 135.187-40.661l.001-.009c.019-.052.56-1.586 1.165-4.298 8.215-36.866-20.158-71.776-57.928-71.776h-156.85z" fill="#14a34d"/></g><g><path d="m301.031 507.862c-56.84-22.966-99.707-56.85-119.872-112.606h-3.584c-37.77 0-66.143 34.911-57.928 71.776.604 2.713 1.146 4.246 1.165 4.298v.009c38.748 25.687 85.216 40.661 135.188 40.661 15.384 0 30.434-1.424 45.031-4.138z" fill="#0c913c"/></g><g><path d="m185.693 165.046c4.281 9.642-.591 20.92-10.338 24.957-9.746 4.037-20.92-.591-24.957-10.338-4.037-9.746-7.339-17.717-13.702-33.079s32.54-18.606 48.997 18.46z" fill="#38c674"/></g><g><path d="m326.307 165.046c-4.281 9.642.591 20.92 10.338 24.957 9.746 4.037 20.92-.591 24.957-10.338 4.037-9.746 7.339-17.717 13.702-33.079 6.363-15.361-32.54-18.606-48.997 18.46z" fill="#49d88b"/></g><g><path d="m279.623 95.694 12.283 14.501c2.38 2.809.013 7.078-3.631 6.548-55.268-8.042-74.702-33.809-74.702-33.809-15.713 7.454-23.178 25.856-28.624 41.82-2.762 8.097-8.72 14.703-16.484 18.295l-.015-.007c-.029 1.231-.049 2.467-.049 3.713 0 64.505 39.219 140.155 87.597 140.155s87.597-75.651 87.597-140.155c0-1.244-.02-2.479-.049-3.71-21.033-24.057-43.596-38.596-63.923-47.351z" fill="#63e59a"/></g><g><path d="m208.403 146.754c0-21.401 4.332-40.792 11.868-57.171-4.647-3.937-6.696-6.649-6.696-6.649-15.713 7.454-23.178 25.856-28.624 41.82-2.762 8.097-8.72 14.703-16.484 18.295l-.015-.007c-.029 1.231-.049 2.468-.049 3.713 0 64.505 39.219 140.155 87.597 140.155 6.881 0 13.576-1.535 20-4.346-38.741-16.953-67.597-80.48-67.597-135.81z" fill="#49d88b"/></g><g><g><path d="m256 242.667c-8.819 0-17.315-3.214-23.926-9.049-2.069-1.827-2.267-4.987-.438-7.058 1.827-2.069 4.986-2.267 7.058-.438 4.78 4.221 10.927 6.545 17.307 6.545s12.526-2.324 17.307-6.545c2.07-1.829 5.229-1.632 7.058.438s1.631 5.23-.438 7.058c-6.613 5.835-15.109 9.049-23.928 9.049z" fill="#38c674"/></g></g><g><g><path d="m242.013 192.447 8.436-13.441c2.569-4.093 8.533-4.093 11.102 0l8.436 13.441c2.739 4.365-.398 10.038-5.551 10.038h-16.871c-5.154-.001-8.291-5.674-5.552-10.038z" fill="#38c674"/></g></g><g><path d="m201.001 154.483c-.043 3.495 1.371 7.004 4.242 9.539 4.675 4.128 11.84 4.128 16.515 0 2.871-2.535 4.284-6.044 4.242-9.539-.055-4.538-5.629-6.716-8.838-3.507-2.022 2.022-5.3 2.022-7.322 0-3.21-3.209-8.784-1.031-8.839 3.507z" fill="#162544"/></g><g><path d="m310.999 154.483c.043 3.495-1.371 7.004-4.242 9.539-4.675 4.128-11.84 4.128-16.515 0-2.871-2.535-4.284-6.044-4.242-9.539.055-4.538 5.629-6.716 8.838-3.507 2.022 2.022 5.3 2.022 7.322 0 3.21-3.209 8.784-1.031 8.839 3.507z" fill="#162544"/></g><g><path d="m316 128.036v.005c0 3.045-1.951 5.736-4.829 6.731-8.513 2.944-16.772 2.959-25.337-.003-2.88-.996-4.834-3.685-4.834-6.733 0-4.883 4.783-8.211 9.427-6.701 5.247 1.706 10.9 1.706 16.147 0 4.643-1.51 9.426 1.818 9.426 6.701z" fill="#0c913c"/></g><g><path d="m196 128.036v.005c0 3.045 1.951 5.736 4.829 6.731 8.513 2.944 16.772 2.959 25.337-.003 2.88-.996 4.834-3.685 4.834-6.733 0-4.883-4.783-8.211-9.427-6.701-5.247 1.706-10.9 1.706-16.147 0-4.642-1.51-9.426 1.818-9.426 6.701z" fill="#0c913c"/></g></g></svg>