<svg id="Layer_1" enable-background="new 0 0 511 511" height="512" viewBox="0 0 511 511" width="512" xmlns="http://www.w3.org/2000/svg"><g><g><path d="m255.5 17.521c-94.952 0-153.443 53.559-153.604 53.649 0 0-2.432 3.035-2.886 5.053-3.695 16.399-7.146 38.378-7.146 54.417 0 136.27 114.916 246.712 251.186 246.712 52.475 0 110.856-25.15 149.93-55.389.874-.676 3.647-5.222 3.647-5.222.172-1.051 5.613-22.716 5.613-52.482 0-136.269-110.469-246.738-246.74-246.738z" fill="#bd80e1"/><path d="m343.028 370.387c-136.27 0-246.74-110.469-246.74-246.74 0-18.012 1.942-35.562 5.607-52.477-56.744 45.207-93.135 114.9-93.135 193.09 0 58.638 20.455 112.499 54.619 154.836l384.229.02c23.611-29.243 40.719-64.067 49.019-102.375-42.148 33.573-95.526 53.646-153.599 53.646z" fill="#af66da"/></g><g><g><path d="m362.845 380.976h-215.25l-36.912-141.275c-1.768-6.766 2.013-13.731 8.636-15.975 89.55-30.338 179.522-30.461 269.92.059 6.573 2.219 10.367 9.089 8.696 15.823z" fill="#00366d"/></g><g><path d="m342.889 380.976h-175.706l-29.277-112.052c-1.958-7.494 1.933-15.325 9.133-18.18 70.172-27.828 141.611-28.305 214.389.106 7.187 2.806 11.14 10.553 9.281 18.041z" fill="#e41e7f"/></g><g><path d="m303.763 12.189h-97.886c-37.573 0-68.031 30.459-68.031 68.031v87.807h233.948v-87.807c0-37.573-30.459-68.031-68.031-68.031z" fill="#00366d"/></g><path d="m328.203 351.862-72.997-16.153-71.334 15.833-31.093 89.391 64.623 67.125c12.419 1.926 25.139 2.942 38.098 2.942 13.127 0 26.028-1.043 38.632-3.032l68.714-82.228z" fill="#dff6fd"/><g><g><g><path d="m255.75 407.012c-20.834 0-37.722-16.889-37.722-37.722v-84.492h75.445v84.492c-.001 20.833-16.89 37.722-37.723 37.722z" fill="#c4e2ff"/></g></g></g><g><path d="m218.027 284.798v46.77c0 20.833 16.889 37.722 37.722 37.722 20.833 0 37.722-16.889 37.722-37.722v-46.77z" fill="#74c8f0"/></g><g><path d="m362.845 227.872-2.234-4.721 2.233-63.812s29.668-31.837 40.202-26.119c10.501 5.7 10.397 29.777 7.721 52.219-2.889 24.231-23.519 42.433-47.922 42.433z" fill="#c4e2ff"/></g><path d="m266.554 33.209h-23.328c-23.431 0-44.909 8.478-61.626 22.505v218.198c0 39.563 31.819 71.942 71.38 72.244.278.002.556.003.834.003.279 0 .558-.001.836-.003 5.367-.041 10.585-.688 15.609-1.843 52.283-7.083 92.586-51.888 92.586-106.113v-108.7c-12.625-56.68-50.922-80.95-96.291-96.291z" fill="#dff6fd"/><g><path d="m266.338 33.209h-23.112c-53.299 0-96.507 43.856-96.507 97.156v22.001c0-53.3 43.208-97.156 96.507-97.156h23.112c53.299 0 96.507 42.992 96.507 96.291v-22.001c0-53.299-43.208-96.291-96.507-96.291z" fill="#c4e2ff"/></g><g><g><g><path d="m209.477 200.934v7.552c0 4.926 3.994 8.92 8.92 8.92s8.92-3.994 8.92-8.92v-7.552z" fill="#c4e2ff"/></g></g></g><g><g><g><path d="m282.156 200.934v7.552c0 4.926 3.994 8.92 8.92 8.92s8.92-3.994 8.92-8.92v-7.552z" fill="#c4e2ff"/></g></g></g><g><path d="m183.617 244.022c.229-5.201.066-137.321.014-189.571-19.258 15.139-32.606 37.45-36.037 62.906v122.537c0 23.836 7.707 45.834 20.735 63.683 19.55 25.865 50.564 42.582 85.485 42.582.279 0 .558-.001.836-.003.468-.004.928-.034 1.394-.046-42.17-14.758-72.427-54.879-72.427-102.088z" fill="#c4e2ff"/></g><g><g><g><path d="m218.397 210.261c-4.926 0-8.92-3.994-8.92-8.92v-11.474l3.288-4.979-3.288-4.979v-2.963c0-4.926 3.994-8.92 8.92-8.92s8.92 3.994 8.92 8.92v24.395c0 4.926-3.994 8.92-8.92 8.92z" fill="#00366d"/></g></g></g><g><g><g><path d="m291.075 210.261c-4.926 0-8.92-3.994-8.92-8.92v-11.474l3.288-4.979-3.288-4.979v-2.963c0-4.926 3.994-8.92 8.92-8.92s8.92 3.994 8.92 8.92v24.395c0 4.926-3.994 8.92-8.92 8.92z" fill="#00366d"/></g></g></g><g><g><g><path d="m241.297 222.924c-2.217 8.855 1.812 18.5 9.519 21.407 1.551.585 3.21.902 4.934.902s3.383-.317 4.934-.902c7.706-2.907 11.736-12.553 9.519-21.407l-7.351-29.354c-1.851-7.39-12.353-7.39-14.203 0z" fill="#c4e2ff"/></g></g></g><g><path d="m212.766 193.156c-1.816 0-3.288-1.472-3.288-3.288v-9.958c0-1.816 1.472-3.288 3.288-3.288 1.816 0 3.288 1.472 3.288 3.288v9.958c0 1.816-1.472 3.288-3.288 3.288z" fill="#fff"/></g><g><path d="m285.444 193.156c-1.816 0-3.288-1.472-3.288-3.288v-9.958c0-1.816 1.472-3.288 3.288-3.288 1.816 0 3.288 1.472 3.288 3.288v9.958c0 1.816-1.472 3.288-3.288 3.288z" fill="#fff"/></g><g><path d="m260.249 445.888-9.499-.128c.174-12.969 10.004-24.008 22.866-25.678l61.239-7.952 1.224 9.421-61.239 7.952c-8.207 1.066-14.479 8.11-14.591 16.385z" fill="#c4e2ff"/></g><g><path d="m251.288 445.888c-.111-8.275-6.384-15.319-14.591-16.385l-61.239-7.952 1.224-9.421 61.239 7.952c12.862 1.67 22.692 12.709 22.866 25.678z" fill="#c4e2ff"/></g><g><path d="m362.845 204.582v-24.807s10.739-11.524 14.552-9.454c3.801 2.063 3.763 10.778 2.795 18.901-1.046 8.772-8.514 15.36-17.347 15.36z" fill="#74c8f0"/></g><g><path d="m147.966 227.872v-68.533s-29.668-31.837-40.202-26.119c-10.501 5.7-10.397 29.777-7.721 52.219 2.89 24.231 23.52 42.433 47.923 42.433z" fill="#c4e2ff"/></g><g><path d="m147.966 205.076v-25.517s-11.046-11.854-14.968-9.725c-3.91 2.122-3.871 11.087-2.875 19.443 1.076 9.022 8.757 15.799 17.843 15.799z" fill="#74c8f0"/></g><g><path d="m231.33 270.193c1.401 12.136 11.707 21.561 24.219 21.561s22.817-9.424 24.218-21.561z" fill="#c4e2ff"/></g><g><path d="m225.085 256.633c1.763 15.266 14.725 27.12 30.463 27.12s28.701-11.855 30.463-27.12h-10.443l-2.569 2.153-5.101-2.153h-24.701l-4.712 2.484-2.958-2.484z" fill="#a82975"/></g><g><path d="m235.528 264.15v-7.517h7.67l-5.776 8.122c-.589.828-1.894.411-1.894-.605z" fill="#fff"/></g><g><path d="m267.899 256.633 5.776 8.122c.589.828 1.894.412 1.894-.605v-7.517" fill="#fff"/></g><g><path d="m201.544 141.406 28.312 8.312c3.45 1.013 5.426 4.631 4.413 8.081-1.013 3.45-4.631 5.426-8.081 4.413l-28.312-8.312c-3.45-1.013-5.426-4.631-4.413-8.081 1.014-3.45 4.631-5.426 8.081-4.413z" fill="#00366d"/></g><g><path d="m307.68 141.406-28.312 8.312c-3.45 1.013-5.426 4.631-4.413 8.081 1.013 3.45 4.631 5.426 8.081 4.413l28.312-8.312c3.45-1.013 5.426-4.631 4.413-8.081-1.013-3.45-4.631-5.426-8.081-4.413z" fill="#00366d"/></g><g><g><path d="m255.358 335.743-.152-.034-.151.034z" fill="#00366d"/></g><path d="m447.604 419.114c-7.005-26.162-28.048-47.037-55.505-53.112l-25.297-5.598-71.785 147.424c61.111-9.867 115.061-42.237 152.587-88.714z" fill="#004281"/><path d="m142.314 360.766-23.459 5.207c-27.439 6.09-48.463 26.961-55.461 53.113 37.492 46.461 91.485 79.042 153.08 88.831z" fill="#00366d"/></g><g><path d="m184.486 54.268c-.208 0-.408-.024-.614-.031v15.802c0 17.923 14.529 32.452 32.452 32.452h79.427c17.923 0 32.452-14.529 32.452-32.452v-15.77h-143.717z" fill="#c4e2ff"/></g><g><path d="m295.751 93.49h-79.427c-17.923 0-32.452-14.529-32.452-32.452v-28.586c0-17.923 14.529-32.452 32.452-32.452h111.879v61.038c0 17.923-14.529 32.452-32.452 32.452z" fill="#004281"/></g></g><g fill="#fd3581"><path d="m183.872 351.542-41.558 9.224 74.159 147.151c.309.049.617.105.926.153z"/><path d="m295.017 507.828 71.785-147.424-38.599-8.542-34.07 156.112c.295-.047.589-.099.884-.146z"/></g></g></svg>