<svg id="Layer_1" enable-background="new 0 0 511.743 511.743" height="512" viewBox="0 0 511.743 511.743" width="512" xmlns="http://www.w3.org/2000/svg"><g><g><path d="m255 .872c-6.225 0-12.298.223-18.214.64l-14.436 8.027-16.583-3.924c-68.721 13.407-109.377 50.626-109.514 50.702 0 0-2.513 3.137-2.983 5.222-3.818 16.948-7.385 39.663-7.385 56.238 0 140.833 118.763 254.972 259.596 254.972 54.231 0 114.568-25.992 154.949-57.243.903-.699 3.769-5.396 3.769-5.396.178-1.087 5.801-23.477 5.801-54.239 0-140.832-114.167-254.999-255-254.999z" fill="#dff6fd"/><path d="m345.459 365.551c-140.833 0-255-114.167-255-255 0-18.615 2.007-36.753 5.795-54.234-50.943 40.584-86.013 100.264-94.345 168.208l217.279 283.852c11.701 1.645 23.658 2.495 35.813 2.495 121.17 0 224.116-84.98 249.199-200.761-43.56 34.695-98.725 55.44-158.741 55.44z" fill="#c4e2ff"/></g><path d="m1.926 224.527c-1.26 10.273-1.926 20.731-1.926 31.345 0 61.941 22.087 118.719 58.813 162.894l132.052-297.568c-82.296 0-153.658 41.964-188.939 103.329z" fill="#eb4f02"/><g><path d="m190.865 121.198v381.007c117.329 0 212.444-85.291 212.444-190.504s-95.115-190.503-212.444-190.503z" fill="#ff6400"/></g><path d="m34.525 311.701c0 39.388 8.911 76.111 24.288 107.065 24.67 29.679 55.944 53.672 91.569 69.721l40.482-376.723c-86.343-.001-156.339 89.515-156.339 199.937z" fill="#ff6400"/><path d="m190.865 111.763 18.875 395.087c3.131.559 6.281 1.061 9.45 1.506 72.821-17.045 128.015-98.603 128.015-196.656 0-110.421-69.996-199.937-156.34-199.937z" fill="#fe9722"/><path d="m104.246 311.701c0 76.664 18.697 143.238 46.136 176.786 12.955 5.836 26.486 10.62 40.483 14.246v-390.97c-47.838 0-86.619 89.516-86.619 199.938z" fill="#fe9722"/><path d="m190.865 111.763v390.97c6.203 1.607 12.496 2.989 18.873 4.132 38.762-19.884 67.746-99.705 67.746-195.164 0-110.422-38.781-199.938-86.619-199.938z" fill="#ffac47"/><g><g><path d="m498.339 97.053s-36.143-8.284-67.824.016c-16.616-27.974-47.622-47.416-47.622-47.416s-57.858 36.275-57.858 81.022c0 1.299.054 2.59.148 3.874-1.284-.095-2.575-.148-3.874-.148-44.747 0-81.022 57.858-81.022 57.858s19.442 31.006 47.416 47.622c-8.3 31.68-.016 67.824-.016 67.824s50.731 11.629 84.668-6.471c2.564 1.87 5.231 3.636 8.02 5.265 45.679 26.682 106.688 9.476 119.771 5.29.924.181 1.426.266 1.426.266s.103-.285.287-.828c.543-.184.828-.287.828-.287s-.085-.502-.266-1.426c4.185-13.083 21.392-74.092-5.29-119.771-1.629-2.788-3.395-5.456-5.265-8.02 18.102-33.939 6.473-84.67 6.473-84.67z" fill="#00f2a6"/></g><g><path d="m456.812 273.341-123.31-120.088c-9.373-9.128-21.51-14.888-34.509-16.378l-93.475-10.71 1.139-9.935 96.867 11.099c12.999 1.489 25.136 7.25 34.509 16.378l125.756 122.47c1.978 1.927 2.02 5.092.094 7.07-1.927 1.978-5.092 2.02-7.071.094z" fill="#14d1b2"/></g><g><path d="m284.832 190.147c-.36-2.738 1.567-5.25 4.305-5.61l72.774-9.573 10.28-73.559c.382-2.735 2.909-4.642 5.644-4.26 2.735.382 4.642 2.909 4.26 5.644l-11.334 81.097-80.319 10.566c-2.738.361-5.25-1.567-5.61-4.305z" fill="#14d1b2"/></g><g><path d="m321.78 284.327c-2.205-1.664-2.643-4.799-.98-7.003l62.022-82.176.551-.418 89.084-67.684c2.199-1.671 5.336-1.242 7.006.957 1.67 2.199 1.242 5.335-.957 7.006l-88.534 67.267-61.19 81.074c-1.663 2.202-4.798 2.64-7.002.977z" fill="#14d1b2"/></g></g><g><path d="m293.349 133.696-21.695-50.502c-1.09-2.537.083-5.477 2.62-6.567 2.537-1.09 5.478.083 6.567 2.62l21.694 50.502z" fill="#14d1b2"/></g><path d="m225.648 103.682c-6.608-2.249-11.42-7.995-12.375-14.909-.006-.04-.011-.08-.017-.121-2.686-18.882-4.623-36.637-5.189-39.831-2.138-20.099 21.224-33.701 39.281-20.938 7.757 5.371 11.411 14.303 10.34 21.781-.317 2.746-.47 3.999-.901 6.419h24.496c-1.402-7.854-1.754-28.765-21.708-44.471-6.929-5.404-14.753-8.713-22.789-10.098-10.886.768-21.234 2.199-31.018 4.108-9.788 4.47-18.413 11.927-24.313 22.052-7.847 13.426-6.04 17.858-12.174 60.979-.073.529-.146 1.059-.22 1.588-.93 6.704-5.452 12.411-11.815 14.717-25.573 9.266-43.744 26.452-43.744 38.77 0 17.653 34.817 31.964 77.766 31.964s77.766-14.311 77.766-31.964c.001-12.911-17.295-31.166-43.386-40.046z" fill="#b3763f"/></g></svg>