<svg id="Layer_1" enable-background="new 0 0 604.575 604.575" height="512" viewBox="0 0 604.575 604.575" width="512" xmlns="http://www.w3.org/2000/svg"><g><g><path d="m540.125 258.688c0-.365.03-.709.074-1.044-36.741-95.016-128.747-162.522-236.6-163.065l-170.426 116.902c0 140.833 118.763 254.972 259.596 254.972 50.93 0 107.242-22.925 147.356-51.6z" fill="#004281"/><path d="m137.746 204.254-66.508 37.305c-15.364 32.799-23.951 69.405-23.951 108.015 0 56.652 18.474 108.99 49.727 151.316l295.732-41.637c-140.832.001-255-114.166-255-254.999z" fill="#00366d"/></g><g><g><path d="m303.598 94.578c-.437-.002-.874-.004-1.311-.004-98.131 0-158.58 55.352-158.747 55.445-5.298 4.221-10.425 8.649-15.368 13.271 15.772 24.862 41.917 41.113 74.849 51.731 29.199 7.167 65.119 1.146 90.991-10.343.579-.257 2.743-2.407 2.743-2.407.239-.562 6.226-11.873 10.291-28.436 6.685-27.23 4.986-54.555-3.448-79.257z" fill="#fef48b"/><path d="m203.962 211.143c-30.99-7.607-57.062-24.893-75.789-47.852-23.625 22.092-43.048 48.625-56.935 78.268 17.434 16.966 39.481 29.653 64.815 35.871 65.239 16.013 131.897-16.136 160.703-75.159-28.038 12.925-60.481 16.804-92.794 8.872z" fill="#ffe177"/></g><g fill="#ffe177"><circle cx="222.463" cy="192.696" r="26.317"/><circle cx="265.336" cy="138.538" r="9.195"/><path d="m188.454 0c-1.579 2.198-2.778 4.726-3.462 7.516-2.87 11.692 4.282 23.496 15.974 26.366s23.496-4.282 26.366-15.973c.548-2.231.728-4.466.584-6.642-7.748-3.486-15.916-6.326-24.463-8.424-5.132-1.26-10.138-2.188-14.999-2.843z"/></g></g><path d="m550.876 255.642-14.729-3.371-8.971 21.609 8.686 28.997 7.335-30.538z" fill="#e1d3ce"/><g><g fill="#e1d3ce"><path d="m446.693 123.664h17.989v73.867h-17.989z"/><path d="m446.698 127.176h17.989v45.251h-17.989z" transform="matrix(-.001 1 -1 -.001 605.738 -305.811)"/><path d="m459.629 198.634c-7.298-1.904-14.956-2.919-22.85-2.924-49.951-.027-90.466 40.445-90.493 90.397l-.087 164.393 180.89.096.088-164.392z"/><path d="m431.473 195.872h36.921v232.918h-36.921z"/></g><path d="m456.693 123.664h17.989v73.867h-17.989z" fill="#f9f3f1"/><path d="m456.699 127.176h17.989v45.251h-17.989z" fill="#f9f3f1" transform="matrix(-.001 1 -1 -.001 615.744 -315.812)"/></g><path d="m556.137 325.228.021-39.009c.006-10.73-1.857-21.025-5.282-30.576l-7.093 11.835-2.155 3.595-6.605 29.004-5.284-42.936-14.08-10.951-7.03 1.708-2.669-9.253-5.566-36.033c-10.666-4.432-22.362-6.881-34.631-6.887-49.951-.027-90.466 40.445-90.493 90.397l-.088 164.392 162.296-2.243c13.042-31.077 19.811-64.633 19.811-98.697-.002-8.212-.391-16.333-1.152-24.346z" fill="#f9f3f1"/><path d="m207.5 300.09c-27.067-2.643-52.511 6.933-70.859 24.229l7.732 8.497-5.584 16.759-3.201-14.122-7.651-1.681c-10.526 13.198-17.482 29.491-19.245 47.544l-11.677 119.575c7.932 10.742 16.686 20.839 26.171 30.198l149.562 31.423 15.979-163.614c4.854-49.715-31.512-93.953-81.227-98.808z" fill="#e1d3ce"/><path d="m425.4 426.716c-115.02 0-208.262 61.47-208.262 137.296l227.169-2.643c41.014-27.536 73.706-66.721 93.17-113.097-32.357-13.646-70.816-21.556-112.077-21.556z" fill="#00f2a6"/><g><path d="m190.859 300.978h36.921v232.918h-36.921z" fill="#e1d3ce" transform="matrix(.995 .097 -.097 .995 41.565 -18.369)"/><path d="m236.345 302.907c-49.715-4.855-93.953 31.511-98.808 81.226l-14.352 146.956c.81.8 1.626 1.594 2.447 2.383l175.959 31.857 15.979-163.614c4.856-49.715-31.51-93.953-81.225-98.808z" fill="#f9f3f1"/><path d="m205.357 362.143h35.977v147.734h-35.977z" fill="#e1d3ce" transform="matrix(.995 .097 -.097 .995 43.437 -19.644)"/><path d="m231.03 363.394h10.244v147.734h-10.244z" fill="#fff" transform="matrix(.995 .097 -.097 .995 43.619 -20.883)"/><path d="m207.456 369.271h35.977v90.503h-35.977z" fill="#e1d3ce" transform="matrix(-.097 .995 -.995 -.097 659.917 230.436)"/><path d="m247.573 413.497h35.977v9.886h-35.977z" fill="#fff" transform="matrix(-.097 .995 -.995 -.097 707.833 194.807)"/></g><path d="m267.517 496.681c-54.821 0-104.696 13.964-141.885 36.791 45.828 44.035 108.08 71.103 176.655 71.103 52.343 0 101.285-15.858 142.019-43.207-36.786-38.844-102.209-64.687-176.789-64.687z" fill="#6cf5c2"/><path d="m286.286 318.137-8.117 25.761 1.402 5.677 5.204-2.594 13.321-10.651z" fill="#004281"/><g fill="#e1d3ce"><path d="m298.096 336.33-14.71 2.064-3.815 11.181 2.657 19.424-4.059 23.78 8.117-25.364v-17.84z"/><path d="m414.849 283.459h101.725v12.386h-101.725z"/><path d="m414.849 306.147h26.476v12.386h-26.476z"/><path d="m451.694 306.147h64.88v12.386h-64.88z"/><path d="m414.849 328.834h56.862v12.386h-56.862z"/><path d="m482.079 328.834h34.495v12.386h-34.495z"/><path d="m414.849 351.522h32.421v12.386h-32.421z"/><path d="m457.639 351.522h58.935v12.386h-58.935z"/><path d="m414.849 374.21h79.32v12.386h-79.32z"/><path d="m406.877 208.921 13.293 23.12-13.293 25.761-4.624 25.657v-28.96l4.624-18.495-8.984-17.174z"/><path d="m505.959 238.646-5.686 18.083-.961 3.055 3.323 16.513 3.324-18.825 9.7-11.282z"/></g><circle cx="339.664" cy="228.914" fill="#fef48b" r="5.566"/><circle cx="375.998" cy="156.214" fill="#fef48b" r="6.195"/><circle cx="281.764" cy="270.908" fill="#fef48b" r="4.826"/><circle cx="99.345" cy="311.777" fill="#fef48b" r="6.36"/></g></svg>