<svg id="Layer_1" enable-background="new 0 0 511 511" height="512" viewBox="0 0 511 511" width="512" xmlns="http://www.w3.org/2000/svg"><g><g><path d="m471.701 120.725-26.937-35.62c-46.666-51.649-114.175-84.105-189.264-84.105-98.131 0-158.58 55.352-158.747 55.445 0 0-2.513 3.137-2.983 5.222-3.818 16.948-7.385 39.663-7.385 56.238 0 140.833 118.763 254.972 259.596 254.972 54.231 0 114.568-25.992 154.949-57.243l8.972-77.238c-2.934-43.031-16.544-83.131-38.201-117.671z" fill="#6cf5c2"/><path d="m489.33 321.571c-40.854 27.832-90.21 44.109-143.372 44.109-140.833 0-255-114.167-255-255 0-18.615 2.007-36.753 5.795-54.234-10.934 8.71-21.137 18.301-30.501 28.664l-9.954 26.498-16.999 9.14c-21.654 34.535-35.266 74.626-38.201 117.649l12.872 99.602c16.017 47.193 45.477 88.178 83.819 118.396l326.807-9.535c32.705-28.973 57.98-66.287 72.41-108.837z" fill="#00f2a6"/></g><g><g><path d="m444.764 85.105c-23.202 8.27-56.577 52.568-89.885 129.975-40.684 94.547-65.863 202.686-43.638 212.249s83.438-83.07 124.122-177.617c24.161-56.149 35.648-100.345 36.339-128.986-7.942-12.665-16.964-24.582-26.938-35.621z" fill="#c4e2ff"/><g><path d="m296.146 465.404c-.396 0-.798-.079-1.185-.245-1.522-.655-2.225-2.42-1.57-3.941l133.911-311.203c.654-1.523 2.42-2.225 3.941-1.57 1.522.655 2.225 2.42 1.57 3.942l-133.91 311.202c-.488 1.136-1.594 1.815-2.757 1.815z" fill="#74c8f0"/></g><g><g><path d="m404.979 213.207c-1.192 0-2.32-.716-2.788-1.891l-10.405-26.124c-.613-1.54.138-3.284 1.677-3.897 1.54-.614 3.285.138 3.897 1.677l10.405 26.124c.613 1.54-.138 3.284-1.677 3.897-.363.145-.739.214-1.109.214z" fill="#74c8f0"/></g><g><path d="m377.07 278.066c-1.192 0-2.32-.716-2.788-1.891l-10.405-26.123c-.613-1.54.138-3.284 1.677-3.897 1.54-.613 3.285.138 3.897 1.677l10.405 26.123c.613 1.54-.138 3.284-1.677 3.897-.364.146-.74.214-1.109.214z" fill="#74c8f0"/></g><g><path d="m349.161 342.926c-1.192 0-2.32-.716-2.788-1.891l-10.405-26.123c-.613-1.54.138-3.284 1.677-3.897 1.54-.613 3.285.138 3.897 1.677l10.405 26.123c.613 1.54-.138 3.284-1.677 3.897-.364.145-.74.214-1.109.214z" fill="#76bbd5"/></g></g><g><g><path d="m412.992 194.882c-1.192 0-2.32-.716-2.788-1.891-.613-1.54.138-3.284 1.677-3.897l26.123-10.405c1.54-.614 3.285.138 3.897 1.677.613 1.54-.138 3.284-1.677 3.897l-26.123 10.405c-.364.145-.74.214-1.109.214z" fill="#74c8f0"/></g><g><path d="m385.083 259.741c-1.192 0-2.32-.716-2.788-1.891-.613-1.54.138-3.284 1.677-3.897l26.123-10.405c1.54-.614 3.285.138 3.897 1.677.613 1.54-.138 3.284-1.677 3.897l-26.123 10.405c-.364.145-.74.214-1.109.214z" fill="#74c8f0"/></g><g><path d="m357.174 324.601c-1.192 0-2.32-.716-2.788-1.891-.613-1.539.138-3.284 1.677-3.897l26.123-10.405c1.54-.613 3.285.138 3.897 1.677.613 1.539-.138 3.284-1.677 3.897l-26.123 10.405c-.364.145-.74.214-1.109.214z" fill="#74c8f0"/></g></g></g><g><path d="m509.902 238.397c-18.128 11.474-40.362 30.151-65.323 56.145-55.291 57.578-103.023 129.247-89.489 142.244s83.211-37.6 138.502-95.178c1.154-1.202 2.292-2.397 3.415-3.585 4.754-14.019 8.305-28.769 10.355-41.79l-3.046-2.488 3.919-3.531c.394-2.975.772-6.228 1.102-9.723l-1.388-3.415 2.108-5.998c.277-4.734.443-9.781.443-15.077 0-5.918-.202-11.788-.598-17.604z" fill="#dff6fd"/><g><g><path d="m482.285 307.646c-1.629 0-2.965-1.303-2.998-2.939l-.441-21.804c-.034-1.656 1.282-3.026 2.938-3.06 1.669-.042 3.025 1.282 3.06 2.939l.441 21.804c.034 1.656-1.282 3.026-2.938 3.06-.021 0-.041 0-.062 0z" fill="#c4e2ff"/></g><g><path d="m444.356 347.145c-1.629 0-2.965-1.303-2.998-2.939l-.442-21.803c-.034-1.657 1.281-3.027 2.938-3.061 1.662-.033 3.026 1.282 3.06 2.938l.442 21.803c.034 1.657-1.281 3.027-2.938 3.061-.021.001-.041.001-.062.001z" fill="#c4e2ff"/></g><g><path d="m406.427 386.643c-1.629 0-2.965-1.303-2.998-2.939l-.442-21.803c-.034-1.657 1.281-3.027 2.938-3.061 1.655-.023 3.026 1.283 3.06 2.938l.442 21.803c.034 1.657-1.281 3.027-2.938 3.061-.021.001-.042.001-.062.001z" fill="#c4e2ff"/></g></g><g><path d="m510.056 271.077-156.628 163.108c.382 1.03.933 1.901 1.662 2.601s1.622 1.215 2.666 1.555l136.203-141.837 13.403-.272c.292-1.851.586-3.862.872-6.019l-8.398.17 9.5-9.893c.281-2.97.528-6.115.72-9.413z" fill="#c4e2ff"/><g><path d="m455.165 336.02c-1.629 0-2.965-1.303-2.998-2.939-.034-1.656 1.281-3.026 2.938-3.06l21.803-.442c1.675-.019 3.025 1.282 3.06 2.939.034 1.656-1.281 3.026-2.938 3.06l-21.803.442c-.021 0-.041 0-.062 0z" fill="#c4e2ff"/></g><g><path d="m417.235 375.518c-1.629 0-2.965-1.303-2.998-2.939-.034-1.656 1.281-3.026 2.938-3.06l21.804-.442c1.667-.01 3.025 1.282 3.06 2.939.034 1.656-1.281 3.026-2.938 3.06l-21.804.442c-.021 0-.041 0-.062 0z" fill="#c4e2ff"/></g></g></g><g><path d="m66.252 85.11c-9.98 11.045-19.008 22.968-26.953 35.638.696 28.642 12.184 72.83 36.338 128.963 40.684 94.547 101.897 187.181 124.122 177.617s-2.955-117.702-43.638-212.249c-33.3-77.389-66.667-121.684-89.869-129.969z" fill="#c4e2ff"/><g><path d="m214.854 465.404c-1.162 0-2.269-.68-2.757-1.815l-133.911-311.202c-.654-1.522.048-3.287 1.57-3.942 1.516-.654 3.286.047 3.941 1.57l133.911 311.203c.654 1.521-.048 3.286-1.57 3.941-.386.166-.788.245-1.184.245z" fill="#74c8f0"/></g><g><g><path d="m106.021 213.207c-.369 0-.745-.069-1.109-.214-1.539-.613-2.29-2.358-1.677-3.897l10.405-26.124c.612-1.539 2.356-2.291 3.897-1.677 1.539.613 2.29 2.358 1.677 3.897l-10.405 26.124c-.468 1.175-1.596 1.891-2.788 1.891z" fill="#74c8f0"/></g><g><path d="m133.93 278.066c-.369 0-.745-.069-1.109-.214-1.539-.613-2.29-2.358-1.677-3.897l10.405-26.123c.612-1.539 2.356-2.29 3.897-1.677 1.539.613 2.29 2.358 1.677 3.897l-10.405 26.123c-.468 1.176-1.596 1.891-2.788 1.891z" fill="#74c8f0"/></g><g><path d="m161.839 342.926c-.369 0-.745-.069-1.109-.214-1.539-.613-2.29-2.358-1.677-3.897l10.405-26.123c.612-1.539 2.356-2.29 3.897-1.677 1.539.613 2.29 2.358 1.677 3.897l-10.405 26.123c-.468 1.175-1.596 1.891-2.788 1.891z" fill="#76bbd5"/></g></g><g><g><path d="m98.008 194.882c-.369 0-.745-.069-1.109-.214l-26.123-10.405c-1.539-.613-2.29-2.358-1.677-3.897s2.357-2.291 3.897-1.677l26.123 10.405c1.539.613 2.29 2.358 1.677 3.897-.468 1.175-1.596 1.891-2.788 1.891z" fill="#74c8f0"/></g><g><path d="m125.917 259.741c-.369 0-.745-.069-1.109-.214l-26.123-10.405c-1.539-.613-2.29-2.358-1.677-3.897s2.357-2.291 3.897-1.677l26.123 10.405c1.539.613 2.29 2.358 1.677 3.897-.468 1.175-1.596 1.891-2.788 1.891z" fill="#74c8f0"/></g><g><path d="m153.826 324.601c-.369 0-.745-.069-1.109-.214l-26.123-10.405c-1.539-.613-2.29-2.358-1.677-3.897.612-1.539 2.357-2.29 3.897-1.677l26.123 10.405c1.539.613 2.29 2.358 1.677 3.897-.468 1.175-1.595 1.891-2.788 1.891z" fill="#74c8f0"/></g></g></g><g><path d="m66.421 294.542c-24.961-25.994-47.195-44.671-65.323-56.145-.396 5.816-.598 11.686-.598 17.603 0 5.06.147 10.085.438 15.072l2.516 6.994-1.794 2.422c.311 3.26.683 6.502 1.115 9.725l2.825 2.22-1.945 3.8c2.275 14.356 5.749 28.313 10.315 41.766 1.13 1.196 2.276 2.399 3.438 3.609 55.291 57.578 124.967 108.175 138.502 95.178s-34.198-84.666-89.489-142.244z" fill="#dff6fd"/><g><g><path d="m28.715 307.646c-.021 0-.041 0-.062 0-1.656-.034-2.973-1.404-2.938-3.06l.441-21.804c.033-1.656 1.426-2.984 3.06-2.939 1.656.034 2.973 1.404 2.938 3.06l-.441 21.804c-.033 1.636-1.369 2.939-2.998 2.939z" fill="#c4e2ff"/></g><g><path d="m66.644 347.145c-.021 0-.041 0-.062 0-1.657-.034-2.973-1.404-2.938-3.061l.442-21.803c.033-1.656 1.433-2.975 3.06-2.938 1.657.034 2.973 1.404 2.938 3.061l-.442 21.803c-.034 1.634-1.37 2.938-2.998 2.938z" fill="#c4e2ff"/></g><g><path d="m104.573 386.643c-.021 0-.041 0-.062 0-1.657-.034-2.973-1.404-2.938-3.061l.442-21.803c.033-1.656 1.439-2.965 3.06-2.938 1.657.034 2.973 1.404 2.938 3.061l-.442 21.803c-.033 1.634-1.369 2.938-2.998 2.938z" fill="#c4e2ff"/></g></g><g><path d="m.939 271.072c.184 3.154.425 6.293.723 9.416l9.502 9.895-8.388-.17c.27 2.014.564 4.021.881 6.019l13.384.271 136.203 141.837c1.044-.34 1.937-.855 2.666-1.555s1.28-1.571 1.662-2.601z" fill="#c4e2ff"/><g><path d="m55.835 336.02c-.021 0-.041 0-.062 0l-21.803-.442c-1.657-.034-2.973-1.404-2.938-3.06.033-1.657 1.42-2.962 3.06-2.939l21.803.442c1.657.034 2.973 1.404 2.938 3.06-.033 1.635-1.369 2.939-2.998 2.939z" fill="#c4e2ff"/></g><g><path d="m93.765 375.518c-.021 0-.041 0-.062 0l-21.804-.442c-1.657-.034-2.973-1.404-2.938-3.06.033-1.657 1.428-2.953 3.06-2.939l21.804.442c1.657.034 2.973 1.404 2.938 3.06-.034 1.635-1.369 2.939-2.998 2.939z" fill="#c4e2ff"/></g></g></g><g><g><g><path d="m237.209 387.326 124.271-.086-.123-223.642c-.035-49.964-40.567-90.44-90.531-90.406l-33.803.023z" fill="#004281"/></g></g></g><g><g><path d="m223.569 156.925c-4.443-2.64 20.519-27.137 20.516-32.336v-51.359c-49.962.003-90.463 40.506-90.463 90.468v227.686l98.79-.068z" fill="#00366d"/></g></g><path d="m306.864 366.656-45.921-10.161-45.345 10.064-3.971 84.472h98.553z" fill="#f9b8ae"/><g><g><g><g><g><path d="m290.752 370.275c.011 16.305-13.197 29.532-29.502 29.543-16.305.011-29.532-13.197-29.543-29.502l-.033-47.414 59.032-18.753z" fill="#f8958b"/></g></g></g></g></g><path d="m380.317 382.938c-.598-.15-1.199-.293-1.804-.427l-71.649-15.855.005 7.594c.018 25.202-20.399 45.647-45.601 45.664-25.202.017-45.647-20.399-45.664-45.601l-.005-7.755-71.761 15.928c-.605.134-1.206.277-1.804.428-26.194 6.613-44.244 30.636-44.244 57.652v15.828c43.396 34.2 98.17 54.606 157.71 54.606 64.54 0 123.909-24.11 169.096-64.141v-6.26c0-27.029-18.067-51.062-44.279-57.661z" fill="#fedf30"/><g><g><path d="m231.664 309.101.012 17.891c.011 16.305 13.238 29.513 29.543 29.502 16.305-.011 29.513-13.238 29.502-29.543l-.025-36.603z" fill="#ea806b"/></g></g><g><g><g><g><g><path d="m340.889 176.957c-.208-19.64-16.197-35.449-35.838-35.435l-42.552.029c-23.71.016-45.252 9.277-61.229 24.366l.084 121.657c.021 30.572 24.602 55.639 55.173 55.847.214.001.428.002.642.002 46.748-.032 84.619-37.956 84.587-84.704z" fill="#f9b8ae"/></g></g></g></g></g><g><g><g><g><g><path d="m361.389 228.661c.008 10.853-8.785 19.658-19.638 19.666l-5.997-12.76 5.962-37.06c10.853-.008 19.658 8.785 19.666 19.638z" fill="#f8958b"/></g></g></g></g></g><g><g><g><g><g><path d="m340.889 176.957c-.208-19.64-16.197-35.449-35.838-35.435l-42.552.029c-23.71.016-45.252 9.277-61.229 24.366l.084 121.657c.021 30.572 24.602 55.639 55.173 55.847.214.001.428.002.642.002 46.748-.032 84.619-37.956 84.587-84.704z" fill="#f9b8ae"/></g></g></g></g></g><g><g><g><g><g><path d="m349.71 225.545c.003 4.405-3.565 7.978-7.97 7.981l-.014-20.219c4.405-.003 7.978 3.565 7.981 7.97z" fill="#ea806b"/></g></g></g></g></g><g><g><g><g><g><path d="m153.622 228.805c.008 10.853 8.814 19.646 19.667 19.638l-.035-49.819c-10.853.008-19.64 8.812-19.633 19.666v10.515z" fill="#f8958b"/></g></g></g></g></g><g><g><g><g><g><path d="m165.128 225.719c.003 4.499 3.652 8.143 8.151 8.14l-.014-20.649c-4.499.003-8.143 3.652-8.14 8.151z" fill="#ea806b"/></g></g></g></g></g><g><g><g><g><g><path d="m221.706 227.249.005 7.199c.003 3.855 3.131 6.979 6.986 6.976s6.979-3.131 6.976-6.986l-.005-7.199z" fill="#f8958b"/></g></g></g></g></g><g><g><g><g><g><path d="m278.716 227.209.005 7.199c.003 3.855 3.131 6.979 6.986 6.976s6.979-3.131 6.976-6.986l-.005-7.199z" fill="#f8958b"/></g></g></g></g></g><g><g><g><g><g><path d="m285.703 235.567c-3.855.003-6.983-3.121-6.986-6.976l-.005-6.531 2.799-4.211-2.805-4.208-.003-4.142c-.003-3.855 3.121-6.983 6.976-6.986s6.983 3.121 6.986 6.976l.013 19.092c.003 3.856-3.12 6.983-6.975 6.986z" fill="#00366d"/></g></g></g></g></g><g><g><g><g><g><path d="m246.623 247.557c-1.731 6.116 1.427 12.776 7.46 14.779 1.214.403 2.512.621 3.862.62 1.349-.001 2.648-.221 3.861-.625 6.03-2.012 9.179-8.675 7.44-14.79l-8.485-29.82c-.816-2.868-4.882-2.865-5.694.004z" fill="#f8958b"/></g></g></g></g></g><g><g><g><path d="m201.623 145.238c.001 1.306.003 4.077.006 7.964.458-.315.925-.617 1.391-.92-.893-5.684-1.399-9.075-1.397-7.044z" fill="#f8958b"/></g></g><g><g><path d="m173.278 233.205.018 26.461c.036 51.519 46.299 91.341 98.097 82.535-39.553-6.7-69.694-41.089-69.723-82.554-.004-31.343-.028-85.346-.041-106.445-17.144 11.794-28.366 57.627-28.351 80.003z" fill="#f8958b"/></g></g></g><g><g><g><path d="m291.538 146.066c19.15-.013 38.93 20.494 38.943 39.644l7.146-44.714-45.008.851z" fill="#f8958b"/></g></g></g><g><g><g><path d="m212.424 117.049c-4.79.004-9.378.87-13.62 2.445v68.798c.081-.001.16-.012.242-.012 39.334-.036 71.194-31.947 71.167-71.281z" fill="#f8958b"/></g></g></g><g><g><g><path d="m341.453 232.584c-4.809-2.511-8.214-7.563-8.195-13.221.072-20.933 2.374-41.718 4.482-62.518 2.074-20.462-13.313-38.933-33.863-39.763-.523-.021-1.049-.032-1.577-.033l-57.789-.051v.114c0 39.305 31.863 71.167 71.167 71.167 8.05 0 14.574 6.529 14.569 14.579l-.02 28.412c-.004 6.2 5.019 11.23 11.219 11.234z" fill="#f8958b"/></g></g></g><g><g><g><path d="m212.424 107.75c-21.669.019-39.221 17.599-39.206 39.268l.022 31.983.038 54.204c6.2-.004 11.223-5.034 11.219-11.234l-.02-28.398c-.006-8.052 6.517-14.585 14.569-14.592 39.334-.036 71.194-31.947 71.167-71.281z" fill="#00366d"/></g></g></g><g><g><g><path d="m302.3 107.75c21.669.019 39.221 17.599 39.206 39.268l-.022 31.983-.038 54.204c-6.2-.004-11.223-5.034-11.219-11.234l.02-28.398c.006-8.052-6.516-14.585-14.569-14.592-39.334-.036-71.194-31.947-71.167-71.281z" fill="#004281"/></g></g></g><g><g><g><path d="m281.517 224.86c-1.548.001-2.803-1.253-2.804-2.8l-.006-8.419c-.001-1.548 1.253-2.803 2.8-2.804 1.548-.001 2.803 1.253 2.804 2.8l.006 8.419c.001 1.548-1.253 2.803-2.8 2.804z" fill="#fff"/></g></g></g><g><g><g><path d="m263.247 306.916c-19.611.014-35.575-13.093-35.586-29.216-.002-3.086 2.498-5.589 5.584-5.591s5.589 2.498 5.591 5.584c.007 9.962 10.954 18.059 24.404 18.049 3.086-.002 5.589 2.498 5.591 5.584s-2.498 5.588-5.584 5.59z" fill="#f8958b"/></g></g></g><g><g><g><ellipse cx="209.725" cy="257.376" fill="#f8958b" rx="21.295" ry="14.975"/></g></g></g><g><g><g><ellipse cx="303.8" cy="258.693" fill="#f8958b" rx="21.295" ry="14.975"/></g></g></g><g><g><g><path d="m219.113 215.145c-2.674.002-5.347-1.016-7.839-3.054-1.654-1.352-1.897-3.79-.545-5.443 1.353-1.653 3.789-1.897 5.443-.545 2.167 1.773 3.704 1.772 5.87-.004 1.653-1.355 4.09-1.113 5.443.538 1.355 1.652 1.113 4.089-.539 5.444-2.487 2.04-5.16 3.062-7.833 3.064z" fill="#00366d"/></g></g></g><g><g><g><path d="m294.779 214.232c-2.674.002-5.347-1.015-7.839-3.053-1.653-1.352-1.898-3.789-.545-5.443 1.352-1.654 3.788-1.898 5.443-.546 2.167 1.772 3.704 1.772 5.87-.004 1.653-1.354 4.09-1.112 5.443.539 1.355 1.652 1.113 4.089-.539 5.444-2.487 2.04-5.16 3.061-7.833 3.063z" fill="#00366d"/></g></g></g><g><g><g><g><g><path d="m228.692 235.607c-3.855.003-6.983-3.121-6.986-6.976l-.004-5.149 2.799-4.211-2.805-4.208-.004-5.525c-.003-3.855 3.121-6.983 6.976-6.986s6.983 3.121 6.986 6.976l.013 19.092c.004 3.856-3.12 6.984-6.975 6.987z" fill="#00366d"/></g></g></g></g></g><g><g><g><path d="m224.507 226.282c-1.548.001-2.803-1.253-2.804-2.8l-.006-8.419c-.001-1.548 1.253-2.803 2.8-2.804 1.548-.001 2.803 1.253 2.804 2.8l.006 8.419c.001 1.548-1.253 2.803-2.8 2.804z" fill="#fff"/></g></g></g><g><path d="m247.262 103.981h19.477c33.805 0 62.644 21.243 73.909 51.106-2.036-39.356-34.591-70.641-74.454-70.641h-18.387c-39.863 0-72.417 31.285-74.454 70.641 11.265-29.864 40.104-51.106 73.909-51.106z" fill="#fd3581"/></g><g><g><path d="m198.745 114.306-2.085-4.673c-13.396-30.023-35.227-55.082-63.131-72.468l5.289-8.487c29.603 18.445 52.762 45.03 66.975 76.881l2.085 4.673z" fill="#fd3581"/></g><g><g><circle cx="136.174" cy="39.075" fill="#fd3581" r="39.075"/></g><g><circle cx="380.404" cy="39.075" fill="#fd3581" r="39.075"/></g><g><circle cx="136.174" cy="32.921" fill="#fff" r="32.921"/></g><g><path d="m127.256 46.456c18.182 0 32.921-14.739 32.921-32.921 0-1.116-.057-2.219-.166-3.306 5.624 5.906 9.083 13.893 9.083 22.692 0 18.182-14.739 32.921-32.921 32.921-17.066 0-31.097-12.986-32.756-29.615 5.998 6.298 14.457 10.229 23.839 10.229z" fill="#f9f3f1"/></g><g><circle cx="136.174" cy="32.921" fill="#004281" r="13.87"/></g><g><circle cx="129.651" cy="23.413" fill="#fff" r="6.605"/></g></g><g><path d="m317.833 114.306-9.133-4.074 2.085-4.673c14.213-31.852 37.372-58.437 66.975-76.881l5.289 8.487c-27.904 17.386-49.734 42.445-63.131 72.469z" fill="#fd3581"/></g><g><g><circle cx="380.404" cy="32.921" fill="#fff" r="32.921"/></g><g><path d="m389.322 46.456c-18.182 0-32.921-14.739-32.921-32.921 0-1.116.057-2.219.166-3.306-5.624 5.906-9.083 13.893-9.083 22.692 0 18.182 14.739 32.921 32.921 32.921 17.066 0 31.097-12.986 32.756-29.615-5.998 6.298-14.457 10.229-23.839 10.229z" fill="#f9f3f1"/></g><g><circle cx="380.404" cy="32.921" fill="#004281" r="13.87"/></g><g><circle cx="386.927" cy="23.413" fill="#fff" r="6.605"/></g></g></g></g></g></svg>