<svg id="Layer_1" enable-background="new 0 0 512 512" height="512" viewBox="0 0 512 512" width="512" xmlns="http://www.w3.org/2000/svg"><g><g><g><path d="m500.46 267.54c0-135.012-109.449-244.46-244.46-244.46-94.075 0-152.026 53.064-152.185 53.154 0 0-2.409 3.007-2.86 5.006-3.66 16.248-7.08 38.024-7.08 53.914 0 135.012 113.854 244.433 248.866 244.433 51.99 0 109.832-24.918 148.545-54.877.866-.67 3.614-5.173 3.614-5.173.17-1.042 5.56-22.507 5.56-51.997z" fill="#dff6fd"/></g><g><g><path d="m456.185 407.874c18.312-26.072 31.697-55.944 38.715-88.337-41.759 33.261-94.644 53.149-152.18 53.149-135.012 0-244.46-109.449-244.46-244.46 0-17.846 1.924-35.234 5.555-51.992-56.221 44.788-92.275 113.838-92.275 191.306 0 52.224 16.386 100.615 44.283 140.334z" fill="#c4e2ff"/></g></g></g><g><path d="m55.614 407.598c44.203 63.125 117.474 104.402 200.386 104.402 82.383 0 155.978-40.977 200.391-104.402z" fill="#814ba1"/></g><g><g><path d="m218.65 334.387v140.473l187.466-36.646c14.707-2.875 25.319-15.762 25.319-30.748v-114.674z" fill="#af66da"/></g><g><path d="m218.65 334.387v140.473c62.701 3.548 124.561-6.496 185.582-30.132 16.363-6.338 27.204-22.016 27.204-39.564v-112.372z" fill="#fe9722"/></g><g><path d="m218.65 334.387v140.473c-37.533 0-72.225-10.581-107.649-27.773-16.073-7.801-26.314-24.064-26.314-41.93v-112.365z" fill="#ff6400"/></g><g><path d="m423.878 379.336c2.672 0 5.217-.526 7.558-1.455v-75.404c-1.725-2.958-3.605-5.824-5.641-8.582l-222.895 40.045 15.75 91.095c3.469 5.612 9.659 9.364 16.741 9.364 10.874 0 19.688-8.815 19.688-19.688v-38.939c0-10.535 6.794-19.867 16.819-23.104 15.678-5.062 31.737 6.629 31.737 23.104v2.29c0 10.874 8.815 19.688 19.688 19.688 10.874 0 19.688-8.815 19.688-19.688v-26.39c0-13.092 8.443-24.689 20.901-28.712 19.483-6.29 39.441 8.238 39.441 28.712v7.14c.002 11.335 9.19 20.524 20.525 20.524z" fill="#ff6400"/></g><g><path d="m120.028 248.586c-30.091 17.714-48.306 50.28-48.306 85.198v21.375c0 10.874 8.815 19.688 19.688 19.688 10.874 0 19.688-8.815 19.688-19.688v-8.164c0-12.195 12.897-20.075 23.748-14.51 5.443 2.791 8.866 8.394 8.866 14.51v36.192c0 10.874 8.815 19.688 19.688 19.688 10.874 0 19.688-8.815 19.688-19.688v-2.439c0-12.195 12.897-20.075 23.748-14.51 5.443 2.791 8.866 8.394 8.866 14.51v20.219c0 10.874 8.815 19.688 19.688 19.688 10.874 0 19.688-8.815 19.688-19.688v-38.939c0-10.535 6.794-19.867 16.819-23.104 15.678-5.062 31.737 6.629 31.737 23.104v2.291c0 10.874 8.815 19.688 19.688 19.688 10.874 0 19.688-8.815 19.688-19.688v-26.39c0-13.092 8.443-24.689 20.901-28.712 19.483-6.29 39.441 8.238 39.441 28.712v7.14c0 11.335 9.189 20.524 20.524 20.524 11.335 0 20.524-9.189 20.524-20.524v-8.412c0-35.304-19.551-67.71-50.78-84.176-94.214-49.675-185.702-55.633-273.592-3.895z" fill="#e41e7f"/></g><g><path d="m393.621 252.481c-65.716-4.228-146.55-60.821-209.194-48.322-21.501 4.539-40.191 18.847-40.191 31.668 0 29.511 85.754 68.417 157.426 68.417 52.544 0 97.792-12.858 118.203-31.35 0-16.212-14.909-19.684-26.244-20.413z" fill="#fd3581"/></g><g><g><path d="m311.093 60.996c-4.162-29.802-31.695-50.584-61.494-46.423-3.867.54-7.578 1.481-11.107 2.762v277.525l86.551-18.724 2.396-98.104z" fill="#6cf5c2"/></g></g><g><path d="m249.599 14.574c-29.8 4.162-50.585 31.694-46.423 61.494l12.832 91.882 2.311 79.654c-2.862 8.659-5.977 15.2-7.957 20.564h47.671l-1.647-86.115-12.832-91.882c-4.162-29.8 43.706-47.531 46.423-61.494.251-1.288 2.593-.299 3.882-.386-11.562-10.541-27.554-16.05-44.26-13.717z" fill="#14d1b2"/></g><g><path d="m153.914 231.547s60.466-18.381 105.304 21.256c18.298 16.176 37.991 16.261 54.892 10.695 12.244-4.032 21.421 11.327 11.938 20.058-13.63 12.55-32.142 22.124-56.344 20.178-86.689-6.971-142.116-59.447-115.79-72.187z" fill="#fd3581"/></g><g><path d="m228.004 16.151 10.994 95.399c.73 6.339 5.602 11.408 11.903 12.416 17.23 2.755 33.696 2.201 49.207-2.49 6.54-1.978 10.696-8.399 9.924-15.187l-10.718-94.212-20.137 1.456 3.339 29.482-11.848-36.315-13.561 1.491 1.03 21.588-9.575-21.533z" fill="#14d1b2"/></g><g><path d="m227.214 9.451 10.994 95.399c.73 6.339 5.602 11.408 11.903 12.416 17.23 2.755 33.696 2.201 49.207-2.49 6.54-1.978 10.696-8.399 9.924-15.187l-10.719-94.212-20.137 1.456 3.339 29.482-11.846-36.315-13.561 1.491 1.03 21.588-9.575-21.533z" fill="#af66da"/></g><g><path d="m303.164 112.919c-4.645-10.203-16.587-16.804-29.836-15.507-12.51 1.225-22.511 9.132-25.758 19.195.816.291 1.662.518 2.541.658 17.23 2.755 33.696 2.201 49.207-2.49 1.403-.424 2.687-1.063 3.846-1.856z" fill="#bd80e1"/></g><g><path d="m310.468 183.868c-.688 0-1.384-.181-2.017-.561-32.204-19.324-64.032-4.923-64.35-4.774-1.967.913-4.3.064-5.217-1.897-.916-1.962-.074-4.294 1.886-5.215 1.446-.68 35.835-16.379 71.722 5.152 1.859 1.116 2.462 3.527 1.347 5.388-.736 1.227-2.037 1.906-3.371 1.907z" fill="#14d1b2"/></g><g><path d="m238.307 190.738c-1.479 0-2.896-.838-3.562-2.265-.916-1.962-.074-4.294 1.886-5.215.989-.465 24.557-11.281 53.072-3.016 2.083.604 3.282 2.781 2.679 4.864s-2.78 3.28-4.864 2.679c-25.574-7.414-47.339 2.484-47.556 2.585-.537.25-1.1.368-1.655.368z" fill="#14d1b2"/></g><g><ellipse cx="174.987" cy="253.978" fill="#004281" rx="27.659" ry="33.974"/></g><g><path d="m113.715 256.567c-.645 0-1.298-.159-1.901-.494-1.896-1.053-2.58-3.442-1.528-5.339l19.758-35.604c1.192-2.151 3.254-3.696 5.654-4.238 2.396-.541 4.925-.032 6.928 1.398l30.438 21.743c1.765 1.261 2.174 3.713.913 5.478-1.261 1.766-3.714 2.174-5.478.913l-30.439-21.743c-.237-.171-.477-.164-.633-.128-.157.035-.374.131-.517.387l-19.758 35.604c-.718 1.294-2.057 2.023-3.437 2.023z" fill="#004281"/></g><g><path d="m102.459 269.976c-1.14 0-2.271-.494-3.046-1.446-1.37-1.682-1.117-4.155.563-5.524l22.277-18.147c3.537-2.881 8.148-4.112 12.649-3.384l36.799 5.97c2.141.348 3.595 2.364 3.247 4.505-.347 2.141-2.361 3.595-4.505 3.247l-36.799-5.97c-2.289-.373-4.633.255-6.431 1.72l-22.277 18.147c-.727.593-1.605.882-2.477.882z" fill="#004281"/></g><g><path d="m118.223 310.046c-.705 0-1.42-.189-2.063-.589-1.844-1.142-2.413-3.562-1.271-5.405l14.967-24.168c2.503-4.043 6.627-6.829 11.312-7.643l36.429-6.324c2.133-.366 4.169 1.061 4.541 3.197.37 2.137-1.061 4.17-3.197 4.541l-36.429 6.324c-2.478.43-4.656 1.901-5.979 4.039l-14.968 24.168c-.742 1.201-2.027 1.86-3.342 1.86z" fill="#004281"/></g><g><path d="m179.65 241.156c-1.225 0-2.432-.571-3.198-1.645-1.261-1.765-.852-4.217.913-5.478l35.184-25.133 28.566-10.237c2.047-.732 4.291.33 5.021 2.371.731 2.042-.33 4.29-2.371 5.021l-27.54 9.87-34.296 24.498c-.691.496-1.489.733-2.279.733z" fill="#004281"/></g><g><path d="m252.69 256.567c-.329 0-.663-.042-.996-.129l-30.387-7.947-41.323 6.704c-2.141.348-4.157-1.106-4.505-3.247s1.106-4.157 3.247-4.505l42.143-6.837c.541-.089 1.092-.062 1.622.077l31.189 8.157c2.099.549 3.354 2.694 2.806 4.792-.462 1.766-2.054 2.935-3.796 2.935z" fill="#004281"/></g><g><path d="m232.205 310.046c-1.314 0-2.6-.659-3.342-1.859l-17.05-27.53-40.326-7.001c-2.137-.371-3.567-2.404-3.197-4.541.371-2.137 2.404-3.563 4.541-3.197l42.063 7.303c1.105.192 2.076.848 2.666 1.802l17.979 29.03c1.143 1.844.573 4.264-1.271 5.405-.643.398-1.358.588-2.063.588z" fill="#004281"/></g><g><circle cx="174.987" cy="223.288" fill="#004281" r="15.238"/></g></g></g></svg>