<svg id="Layer_1" enable-background="new 0 0 510 510" height="512" viewBox="0 0 510 510" width="512" xmlns="http://www.w3.org/2000/svg"><g><g><g><path d="m255 0c-98.131 0-158.58 55.352-158.747 55.445 0 0-2.513 3.137-2.983 5.222-3.818 16.948-7.385 39.663-7.385 56.238 0 140.833 118.763 254.972 259.596 254.972 54.231 0 114.568-25.992 154.949-57.243.903-.699 3.769-5.396 3.769-5.396.178-1.087 5.8-23.477 5.8-54.239.001-140.832-114.166-254.999-254.999-254.999z" fill="#dff6fd"/></g><g><path d="m345.459 364.679c-140.833 0-255-114.167-255-255 0-18.615 2.007-36.753 5.795-54.234-58.645 46.72-96.254 118.747-96.254 199.555 0 107.513 66.537 199.487 160.679 236.988l191.704-1.277c75.941-31.418 133.851-98.544 151.817-181.473-43.56 34.696-98.725 55.441-158.741 55.441z" fill="#c4e2ff"/></g></g><g><g><path d="m94.596 385.45c4.892 12.456 13.875 22.705 25.092 30.003 16.561 10.775 29.223 36.759 31.922 54.873 1.208 8.107 4.413 15.484 9.069 21.662 29.175 11.622 61.002 18.012 94.321 18.012 34.382 0 67.297-6.843 97.382-19.29 4.153-5.907 7.013-12.829 8.139-20.385 2.699-18.115 15.361-44.098 31.923-54.873 11.217-7.298 20.2-17.547 25.092-30.003l.221-.563h-323.382z" fill="#a82975"/></g><g><path d="m441.403 304.833c-13.059 0-23.646-10.587-23.646-23.646v-40.518c0-72.784-48.091-134.336-114.232-154.614l-116.272 16.187v384.941c3.707.923 7.572 1.422 11.541 1.422h114.542c23.631 0 43.701-17.301 47.184-40.674 3.483-23.373 23.553-59.848 47.184-59.848 31.67 0 57.343-25.673 57.343-57.343v-2.26c.002-13.061-10.585-23.647-23.644-23.647z" fill="#fd3581"/></g><g><path d="m463.713 320.641c-5.631 25.758-28.56 45.046-56.007 45.046-23.631 0-43.701 17.301-47.184 40.674s-23.553 59.848-47.184 59.848h-114.543c-23.631 0-43.701-36.475-47.184-59.848s-23.553-40.674-47.184-40.674h-2.757v22.396h2.757c23.631 0 43.701 36.475 47.184 59.848 3.483 23.373 23.553 40.674 47.184 40.674h114.542c23.631 0 43.701-17.301 47.184-40.674 3.483-23.373 23.553-59.848 47.184-59.848 31.67 0 57.343-25.673 57.343-57.343v-2.26c.001-2.749-.473-5.386-1.335-7.839z" fill="#e41e7f"/></g><g><path d="m190.014 212.355c10.613-60.078 56.148-108.708 113.509-126.294-15.008-4.601-30.942-7.083-47.457-7.083-79.64 0-145.828 57.579-159.217 133.377z" fill="#e41e7f"/></g><g><path d="m190.014 93.046c-56.369 25.261-95.639 81.853-95.639 147.622v40.518c0 13.098-10.717 23.555-23.815 23.647-12.982.091-23.477 10.642-23.477 23.645v2.26c0 31.67 25.673 57.343 57.343 57.343 23.631 0 43.701 36.475 47.184 59.848 3.042 20.413 18.736 36.192 38.404 39.862z" fill="#e41e7f"/></g><g><g><path d="m274.774 354.385c-6.366-8.628-13.651-13.599-18.708-13.412-5.057-.187-12.342 4.784-18.708 13.412-8.664 11.743-12.339 25.801-8.209 31.399s14.503.617 23.167-11.126c1.381-1.872 2.634-3.803 3.75-5.749 1.116 1.946 2.369 3.877 3.75 5.749 8.664 11.743 19.036 16.724 23.167 11.126 4.13-5.598.455-19.656-8.209-31.399z" fill="#a82975"/></g><g><ellipse cx="177.75" cy="304.31" fill="#e41e7f" rx="35.985" ry="46.93"/></g><g><ellipse cx="177.75" cy="294.038" fill="#fef48b" rx="35.985" ry="46.93"/></g><g><ellipse cx="331.131" cy="304.31" fill="#e41e7f" rx="35.985" ry="46.93"/></g><g><path d="m331.131 247.107c-19.874 0-35.985 21.011-35.985 46.93 0 16.279 6.355 30.622 16.006 39.039l41.476-1.4c8.793-8.556 14.487-22.23 14.487-37.639.001-25.918-16.11-46.93-35.984-46.93z" fill="#fef48b"/></g><g><g><path d="m131.861 237.344h96.515v37.096h-96.515z" fill="#e41e7f"/></g></g><g><g><path d="m282.873 237.344h96.515v37.096h-96.515z" fill="#e41e7f"/></g></g></g><g><path d="m248.418 443.882h15.296v57.997h-15.296z" fill="#a82975"/></g><g><path d="m204.762 443.882h15.296v57.997h-15.296z" fill="#a82975"/></g><g><path d="m292.074 443.882h15.296v57.997h-15.296z" fill="#a82975"/></g></g><g><g><path d="m483.294 207.869h-82.242c-49.57 0-89.899 40.329-89.899 89.899v27.137h41.476v-27.137c0-26.7 21.723-48.423 48.423-48.423h82.242c11.453 0 20.738-9.285 20.738-20.738s-9.285-20.738-20.738-20.738z" fill="#ffdbeb"/></g></g><g><path d="m331.131 247.107c-1.546 0-3.07.127-4.564.374-9.727 14.362-15.414 31.673-15.414 50.287v35.308c5.715 4.985 12.586 7.892 19.978 7.892 8.059 0 15.499-3.455 21.497-9.292v-33.908c0-10.562 3.4-20.344 9.162-28.312-6.335-13.409-17.696-22.349-30.659-22.349z" fill="#ffdbeb"/></g><g><path d="m485.459 231.017h-90.631c-32.857 0-59.493 26.636-59.493 59.493v34.395h17.294v-27.137c0-26.743 21.68-48.423 48.423-48.423h82.243c7.535 0 14.131-4.019 17.762-10.03-3.346-5.021-9.16-8.298-15.598-8.298z" fill="#ffceed"/></g><g><path d="m348.63 253.021c-8.313 10.232-13.296 23.279-13.296 37.49v50.141c6.436-.977 12.354-4.168 17.294-8.975v-33.908c0-10.58 3.394-20.367 9.151-28.333-3.229-6.83-7.763-12.499-13.149-16.415z" fill="#ffceed"/></g><g><g><path d="m96.309 140.071h24.077v55.403h-24.077z" fill="#00f2a6"/></g><g><path d="m80.645 155.734h55.403v24.076h-55.403z" fill="#00f2a6"/></g></g><g><g><path d="m364.698 37.595h55.403v24.077h-55.403z" fill="#00f2a6" transform="matrix(.707 -.707 .707 .707 79.828 291.997)"/></g><g><path d="m380.362 21.932h24.077v55.403h-24.077z" fill="#00f2a6" transform="matrix(.707 -.707 .707 .707 79.837 292.008)"/></g></g><g><path d="m102.488 93.037c-15.077 0-27.343-12.266-27.343-27.343s12.266-27.343 27.343-27.343 27.343 12.266 27.343 27.343-12.266 27.343-27.343 27.343zm0-43.686c-9.011 0-16.343 7.331-16.343 16.343s7.332 16.343 16.343 16.343 16.343-7.331 16.343-16.343-7.332-16.343-16.343-16.343z" fill="#af66da"/></g><g><circle cx="48.954" cy="197.031" fill="#fef48b" r="13.697"/></g><g><circle cx="305.97" cy="43.852" fill="#af66da" r="13.697"/></g><g><path d="m326.151 162.302c-15.922 0-28.875-12.954-28.875-28.876h11.616c0 9.517 7.742 17.259 17.259 17.259s17.259-7.742 17.259-17.259h11.616c0 15.921-12.953 28.876-28.875 28.876z" fill="#fef48b"/></g><g><path d="m417.945 112.259h39.671v11.617h-39.671z" fill="#fef48b" transform="matrix(.707 -.707 .707 .707 44.723 344.115)"/></g><g><path d="m401.58 97.409h37.044v11.617h-37.044z" fill="#fef48b" transform="matrix(.49 -.872 .872 .49 124.299 418.876)"/></g><g><path d="m435.522 131.353h37.045v11.617h-37.045z" fill="#fef48b" transform="matrix(.872 -.49 .49 .872 -8.973 240.042)"/></g><g><g><path d="m313.51 277.274c-.807 3.449-1.415 6.973-1.811 10.561h41.955c.773-3.691 1.966-7.229 3.529-10.561z" fill="#fff"/></g><g><path d="m367.339 263.041-29.316-29.316c-2.513 2.473-4.881 5.092-7.09 7.844l29.644 29.644c1.952-2.967 4.223-5.706 6.762-8.172z" fill="#fff"/></g><g><path d="m382.904 209.71c-3.603.741-7.128 1.699-10.561 2.859v46.228c3.237-2.391 6.781-4.389 10.561-5.922z" fill="#fff"/></g><g><path d="m311.153 309.11h41.476v10.561h-41.476z" fill="#fff"/></g><g><path d="m404.18 207.869h10.561v41.477h-10.561z" fill="#fff"/></g><g><path d="m436.016 207.869h10.561v41.477h-10.561z" fill="#fff"/></g><g><path d="m467.852 207.869h10.561v41.477h-10.561z" fill="#fff"/></g></g></g></svg>