<svg height="512pt" viewBox="-9 0 512 512.00108" width="512pt" xmlns="http://www.w3.org/2000/svg"><path d="m459.714844 392.25c21.839844-36.648438 34.402344-79.476562 34.402344-125.238281 0-135.304688-109.683594-244.992188-244.988282-244.992188-135.304687 0-244.988281 109.6875-244.988281 244.992188 0 44.125 11.671875 85.523437 32.085937 121.285156zm0 0" fill="#162680"/><path d="m34.328125 152.96875c10.121094-23.554688 24.816406-43.898438 43.816406-60.136719 60.386719-51.609375 156.226563-52.988281 250.121094-3.59375 4.390625 2.308594 9.824219.625 12.132813-3.769531 2.3125-4.390625.625-9.824219-3.769532-12.132812-47.613281-25.050782-97.046875-38.257813-143.101562-38.257813-.628906 0-1.261719 0-1.890625.007813-48.585938.382812-91.871094 15.628906-125.167969 44.085937-21.167969 18.089844-37.503906 40.65625-48.691406 66.703125zm0 0" fill="#c78fe8"/><path d="m268.289062 150.109375c48.734376 8.621094 92.25 32.355469 125.507813 66.210937 55.339844-12.28125 92.726563-65.316406 84.546875-122.363281-8.582031-59.851562-64.058594-101.414062-123.910156-92.835937-59.851563 8.582031-101.417969 64.058594-92.835938 123.910156 1.261719 8.792969 3.542969 17.179688 6.691406 25.078125zm0 0" fill="#fc9949"/><path d="m449.839844 184.339844c-49.953125 16.332031-68.695313-16.234375-74.246094-30.140625-1.417969-3.550781-4.507812-6.191407-8.238281-7.046875-37.742188-8.65625-40.171875-40.203125-39.589844-52.734375.15625-3.304688-1.042969-6.539063-3.363281-8.902344-34.703125-35.414063-11.363282-69.355469-11.363282-69.355469s-.089843-.03125-.214843-.070312c-36.144531 22.136718-57.625 64.320312-51.226563 108.945312 1.261719 8.789063 3.542969 17.175782 6.691406 25.074219 48.734376 8.621094 92.25 32.355469 125.507813 66.210937 22.148437-4.914062 41.417969-16.363281 56.042969-31.980468zm0 0" fill="#fd7e31"/><path d="m433.722656 69.324219c-1.390625-9.683594-10.367187-16.410157-20.050781-15.023438-9.6875 1.390625-16.414063 10.367188-15.023437 20.050781 1.386718 9.6875 10.363281 16.414063 20.050781 15.023438 9.683593-1.386719 16.410156-10.363281 15.023437-20.050781zm0 0" fill="#fbb362"/><path d="m271.292969 64.308594c4.703125 19.316406 23.398437 32.261718 43.480469 29.382812 21.351562-3.0625 36.179687-22.851562 33.117187-44.207031-2.605469-18.179687-17.347656-31.625-34.851563-33.324219-18.515624 11.496094-33.050781 28.378906-41.746093 48.148438zm0 0" fill="#fbb362"/><path d="m271.292969 64.308594c4.703125 19.316406 23.398437 32.261718 43.480469 29.382812 4.410156-.632812 8.535156-1.988281 12.289062-3.914062-.566406-1.578125-1.460938-3.039063-2.660156-4.261719-34.707032-35.414063-11.367188-69.355469-11.367188-69.355469-18.511718 11.496094-33.046875 28.378906-41.742187 48.148438zm0 0" fill="#fc9949"/><path d="m449.839844 184.339844c.53125-2.550782.859375-5.175782.921875-7.878906.53125-23.941407-18.445313-43.785157-42.390625-44.316407-23.945313-.535156-43.789063 18.445313-44.320313 42.386719-.152343 6.84375 1.292969 13.347656 3.992188 19.164062 9.128906 6.910157 17.742187 14.472657 25.753906 22.625 22.148437-4.914062 41.417969-16.363281 56.042969-31.980468zm0 0" fill="#fd7e31"/><path d="m449.839844 184.339844c-49.953125 16.332031-68.695313-16.234375-74.246094-30.140625-.683594-1.710938-1.765625-3.207031-3.113281-4.394531-5.113281 6.9375-8.222657 15.457031-8.429688 24.730468-.152343 6.839844 1.292969 13.34375 3.992188 19.160156 9.128906 6.910157 17.742187 14.472657 25.753906 22.625 22.148437-4.914062 41.417969-16.363281 56.042969-31.980468zm0 0" fill="#fc5d1f"/><path d="m394.8125 34.832031c-.863281-6.027343-5.847656-10.847656-12.253906-11.222656-8.074219-.453125-14.859375 6.632813-13.667969 14.9375 1.035156 7.234375 7.785156 12.113281 14.820313 11.105469 7.109374-1.019532 12.128906-7.65625 11.101562-14.820313zm0 0" fill="#face7a"/><path d="m227.390625 145.5c-102.265625 0-189.148437 65.816406-220.628906 157.398438 17.363281 118.289062 119.253906 209.101562 242.367187 209.101562 89.957032 0 168.574219-48.492188 211.175782-120.753906.21875-4.136719.335937-8.300782.335937-12.496094 0-128.820312-104.429687-233.25-233.25-233.25zm0 0" fill="#83d3fc"/><path d="m213.40625 425.605469c7.671875-11.320313 14.207031-25.136719 10.457031-38.289063-3.054687-10.710937-12.316406-18.472656-21.886719-24.167968-15.398437-9.164063-32.898437-14.777344-50.753906-16.289063-8.742187-.738281-17.753906-.542969-25.589844-5.414063-2.902343-1.804687-5.339843-4.335937-6.714843-7.46875-4.335938-9.882812 3.167969-18.390624 8.535156-26.46875 4.703125-7.074218 7.492187-17.863281.796875-23.097656-2.304688-1.804687-5.269531-2.46875-8.003906-3.519531-18.683594-7.164063-23.898438-36.492187-7.640625-49.011719 1.445312-1.113281 2.609375-2.589844 3.234375-4.304687 2.613281-7.183594-6.015625-10.671875-12.273438-13.179688-8.875-3.554687-15.953125-10.546875-20.398437-18.972656-34.863281 27.464844-61.683594 64.671875-76.402344 107.503906 15.183594 103.351563 94.894531 185.707031 196.90625 204.851563.0625-.03125.121094-.058594.183594-.089844 7.113281-3.492188 7.472656-13.5.765625-17.730469-8.589844-5.417969-12.835938-18.054687-10.761719-28.652343 2.625-13.421876 11.875-24.382813 19.546875-35.699219zm0 0" fill="#5294e5"/><path d="m172.195312 429.046875c-1.902343-12.546875-11.238281-22.65625-21.230468-30.476563-16.074219-12.585937-35.035156-21.460937-54.992188-25.753906-9.773437-2.101562-19.984375-3.1875-28.128906-9.824218-3.019531-2.460938-5.40625-5.671876-6.507812-9.410157-3.46875-11.796875 6.242187-20.324219 13.476562-28.671875 6.339844-7.316406 11.050781-19.105468 4.246094-25.988281-2.34375-2.371094-5.597656-3.554687-8.535156-5.132813-20.074219-10.800781-21.71875-44.695312-1.535157-56.488281 1.792969-1.046875 3.320313-2.546875 4.273438-4.394531 3.996093-7.738281-5.25-12.929688-11.957031-16.667969-.261719-.144531-.515626-.304687-.773438-.457031-23.871094 24.449219-42.417969 54.121094-53.765625 87.144531 11.871094 80.828125 63.214844 148.808594 133.824219 183.761719 4.554687-5.4375 9.578125-10.601562 14.246094-15.890625 10.308593-11.679687 19.691406-26.347656 17.359374-41.75zm0 0" fill="#4374d3"/><path d="m230.898438 145.542969c-10.367188 11.691406-15.058594 28.597656-10.929688 43.761719 1.1875 4.359374 3.019531 8.890624 1.800781 13.238281-.960937 3.410156-3.632812 6.015625-6.023437 8.632812-.03125.035157-.066406.070313-.09375.105469-5.027344 5.519531.980468 14.105469 7.917968 11.351562 14.058594-5.578124 25.0625-22.058593 30.789063-8.113281 9.183594 22.363281 27.984375 15.308594 27.984375 15.308594 9.558594-5.023437 21.179688-1.660156 31.414062 1.792969 10.597657 3.574218 24.007813 12.070312 15.460938 23.683594-1.363281 1.851562-3.148438 3.28125-5.167969 4.289062-5.566406 2.777344-8.628906 9.113281-7.128906 15.148438 1.230469 4.941406 5.492187 9.800781 16.582031 11.78125 18.242188 3.15625 35.210938 13.199218 46.753906 27.671874 1.621094 2.03125 3.199219 4.300782 3.363282 6.898438.246094 3.828125-2.597656 7.113281-5.484375 9.644531-18.652344 16.359375-47.359375 22.351563-58.375 44.582031-7.050781 14.21875-4.511719 31.371094.875 46.300782 4.914062 13.605468 12.050781 26.40625 21.046875 37.734375 5.710937 7.1875 12.429687 14.347656 13.800781 23.421875.246094 1.632812.296875 3.261718.214844 4.886718 43.664062-21.128906 80.09375-54.839843 104.609375-96.421874.21875-4.136719.332031-8.300782.332031-12.492188 0-127.648438-102.539063-231.328125-229.742187-233.207031zm0 0" fill="#a2ec00"/><path d="m223.570312 222.632812c14.054688-5.582031 25.0625-22.058593 30.789063-8.113281 9.183594 22.363281 27.984375 15.304688 27.984375 15.304688 9.558594-5.023438 21.179688-1.65625 31.414062 1.792969 10.597657 3.574218 24.007813 12.074218 15.460938 23.683593-1.363281 1.851563-3.148438 3.285157-5.167969 4.292969-5.566406 2.777344-8.628906 9.109375-7.128906 15.148438 1.226563 4.941406 5.492187 9.800781 16.582031 11.777343 8.902344 1.542969 17.492188 4.734375 25.304688 9.265625-.167969-.3125-.320313-.628906-.492188-.941406-5.417968-9.878906-4.308594-16.246094-1.230468-20.304688 3.761718-4.953124 10.613281-6.542968 16.265624-3.949218 2.054688.941406 4.289063 1.433594 6.585938 1.332031 14.40625-.628906 12.609375-16.402344 8.746094-26.898437-3.734375-10.132813-8.398438-21.292969-18.308594-25.585938 0 0-16.410156-9.710938-6.457031-29.808594-37.5-27.117187-83.382813-43.351562-133.019531-44.085937-10.367188 11.691406-15.0625 28.597656-10.929688 43.761719 1.1875 4.359374 3.019531 8.890624 1.796875 13.238281-.957031 3.410156-3.628906 6.015625-6.023437 8.632812-.03125.035157-.0625.070313-.09375.105469-5.023438 5.519531.984374 14.105469 7.921874 11.351562zm0 0" fill="#00c82f"/><path d="m286.503906 312.273438c-1.5625-1.476563-3.046875-3.023438-4.324218-4.757813-3.71875-5.027344-5.195313-12.679687-.914063-17.238281 1.136719-1.210938 2.597656-2.109375 3.59375-3.441406 1.570313-2.097657 1.734375-4.964844 1.203125-7.535157-1.777344-8.5625-10.238281-14.28125-18.753906-16.28125s-17.40625-1.207031-26.128906-1.855469c-7.015626-.527343-11.101563-3.074218-15.265626-7.609374-2.097656-2.289063-5.089843-3.554688-8.191406-3.382813-9.355468 1.152344-15.199218 10.554687-18.867187 19.238281-2.183594 5.179688-3.988281 11.511719-.726563 16.089844 1.226563 1.714844 3.039063 2.945312 4.242188 4.679688 2.417968 3.492187 1.898437 8.230468 3.488281 12.171874 3.09375 7.652344 12.875 9.949219 21.117187 9.527344 8.242188-.421875 16.875-2.421875 24.5.738282 6.503907 2.695312 10.980469 8.660156 15.027344 14.425781.371094.53125.746094 1.066406 1.125 1.601562 4.160156 5.890625 12.457032 6.992188 18.0625 2.453125 5.867188-4.757812 6.308594-13.640625.8125-18.824218zm0 0" fill="#a2ec00"/><path d="m234.101562 293.851562c.488282-4.21875 3.21875-8.132812 2.761719-12.355468-.222656-2.097656-1.226562-4.046875-1.480469-6.140625-.671874-5.578125 3.941407-10.273438 8.339844-13.773438.105469-.085937.21875-.167969.328125-.253906-.957031-.042969-1.917969-.09375-2.871093-.164063-7.015626-.527343-11.101563-3.074218-15.265626-7.609374-2.097656-2.289063-5.089843-3.554688-8.191406-3.382813-9.355468 1.152344-15.199218 10.554687-18.867187 19.238281-2.1875 5.175782-3.988281 11.511719-.726563 16.085938 1.226563 1.71875 3.039063 2.949218 4.242188 4.679687 2.421875 3.492188 1.898437 8.234375 3.488281 12.171875 3.09375 7.65625 12.875 9.953125 21.117187 9.53125 6.265626-.324218 12.757813-1.550781 18.859376-.734375-6.621094-3.765625-12.589844-9.917969-11.734376-17.292969zm0 0" fill="#00c82f"/><path d="m130.867188 178.453125c8.5 2.589844 12.832031 6.855469 16.707031 13.597656 1.953125 3.398438 5.289062 5.789063 9.15625 6.433594 11.847656 1.167969 21.648437-8.800781 28.566406-18.488281 4.125-5.773438 8.097656-13.078125 5.34375-19.621094-1.035156-2.453125-2.929687-4.46875-3.929687-6.9375-.554688-1.367188-.804688-2.789062-.898438-4.242188-25.265625 4.546876-49.109375 13.167969-70.84375 25.148438 5.300781 1.355469 10.675781 2.519531 15.898438 4.109375zm0 0" fill="#5294e5"/><path d="m19.085938 262.769531c-3.9375-44.429687 2.65625-84.511719 18.828124-117.613281 2.257813-4.617188.214844-10.179688-4.503906-12.222656-4.441406-1.921875-9.582031.019531-11.707031 4.367187-17.574219 35.988281-24.75 79.28125-20.519531 127.050781 3.632812 40.996094 15.464844 82.722657 34.484375 122.9375 17.734375 31.40625 42.195312 58.511719 71.433593 79.351563-50.691406-62.285156-81.855468-134.292969-88.015624-203.871094zm0 0" fill="#b26cde"/><path d="m454.5625 325.660156c-18.300781 12.914063-42.261719 19.820313-52.105469 39.683594-7.046875 14.222656-4.507812 31.371094.878907 46.300781 4.003906 11.089844 9.507812 21.628907 16.273437 31.289063 15.761719-15.277344 29.472656-32.652344 40.691406-51.679688.21875-4.140625.339844-8.308594.339844-12.503906 0-18.265625-2.109375-36.035156-6.078125-53.089844zm0 0" fill="#d7f9b7"/></svg>