<svg height="511pt" viewBox="-11 0 511 511.99964" width="511pt" xmlns="http://www.w3.org/2000/svg"><path d="m78.625 446.359375 30.902344 24.464844c34.023437 22.742187 74.050781 37.199219 117.207031 40.46875h37.527344c43.15625-3.269531 83.183593-17.726563 117.207031-40.46875l30.902344-24.464844c48.058594-44.730469 78.125-108.527344 78.125-179.355469 0-135.3125-109.6875-245-244.996094-245-135.3125 0-245 109.6875-245 245 0 70.828125 30.070312 134.625 78.125 179.355469zm0 0" fill="#a2ec00"/><path d="m303.75 93.886719c-2.503906 7.445312-10.460938 11.703125-18.089844 9.523437-26.273437-7.503906-54.050781-7.503906-80.324218 0-7.464844 2.144532-15.519532-1.867187-18.089844-9.523437-55.570313 21.625-96.140625 73.265625-101.789063 135.011719h320.085938c-5.648438-61.746094-46.222657-113.386719-101.792969-135.011719zm0 0" fill="#b9e9fd"/><path d="m180.074219 228.898438c0-9.484376 0-24.203126 0-30.457032 0-9.585937 9.332031-10.492187 9.332031-10.492187 0-54.707031 30.308594-80.429688 45.144531-89.746094-9.839843.742187-19.628906 2.46875-29.214843 5.207031-7.464844 2.144532-15.519532-1.867187-18.089844-9.523437-55.570313 21.621093-96.144532 73.265625-101.792969 135.011719zm0 0" fill="#83d3fc"/><path d="m316.847656 198.441406c-5.113281 0-9.257812-4.144531-9.257812-9.257812v-8.097656c0-5.113282 4.144531-9.257813 9.257812-9.257813 5.113282 0 9.257813 4.148437 9.257813 9.257813v8.097656c0 5.113281-4.144531 9.257812-9.257813 9.257812zm0 0" fill="#fc7acd"/><path d="m288.425781 198.441406c-5.113281 0-9.257812-4.144531-9.257812-9.257812v-8.097656c0-5.113282 4.144531-9.257813 9.257812-9.257813s9.257813 4.148437 9.257813 9.257813v8.097656c0 5.113281-4.144532 9.257812-9.257813 9.257812zm0 0" fill="#d0f6fa"/><path d="m260.007812 198.441406c-5.113281 0-9.257812-4.144531-9.257812-9.257812v-8.097656c0-5.113282 4.144531-9.257813 9.257812-9.257813 5.113282 0 9.257813 4.148437 9.257813 9.257813v8.097656c0 5.113281-4.144531 9.257812-9.257813 9.257812zm0 0" fill="#d0f6fa"/><path d="m76.753906 258.550781c7.511719 86.613281 80.183594 154.574219 168.746094 154.574219 88.558594 0 161.234375-67.960938 168.742188-154.574219zm0 0" fill="#f948b4"/><path d="m242.546875 413.089844v-69.003906c0-.882813-.585937-1.675782-1.445313-1.882813-3.898437-.945313-4.019531-3.855469-3.613281-5.8125.21875-1.046875-.398437-2.089844-1.4375-2.339844-34.796875-8.320312-32.605469-40.457031-32.605469-40.457031l-.15625-35.039062h-126.535156c7.425782 85.644531 78.578125 153.042968 165.792969 154.535156zm0 0" fill="#f6159c"/><path d="m245.5 78.054688c-5.113281 0-9.257812-4.144532-9.257812-9.257813v-35.464844c0-5.113281 4.144531-9.257812 9.257812-9.257812s9.257812 4.144531 9.257812 9.257812v35.464844c0 5.117187-4.144531 9.257813-9.257812 9.257813zm0 0" fill="#d0f6fa"/><path d="m245.5 51.066406c-5.113281 0-9.257812-4.144531-9.257812-9.257812v26.988281c0 5.117187 4.144531 9.257813 9.257812 9.257813s9.257812-4.144532 9.257812-9.257813v-26.988281c0 5.113281-4.144531 9.257812-9.257812 9.257812zm0 0" fill="#a3e6ef"/><path d="m264.15625 18.660156c0 10.304688-8.351562 18.65625-18.65625 18.65625s-18.65625-8.351562-18.65625-18.65625c0-10.304687 8.351562-18.65624975 18.65625-18.65624975s18.65625 8.35156275 18.65625 18.65624975zm0 0" fill="#fc7acd"/><path d="m252.121094 24.074219c-6.648438 0-12.035156-5.390625-12.035156-12.035157 0-5.640624 3.882812-10.359374 9.117187-11.664062-11.5-2.320312-22.359375 6.4375-22.359375 18.285156 0 10.304688 8.351562 18.65625 18.65625 18.65625 11.785156 0 20.617188-10.789062 18.285156-22.363281-1.304687 5.238281-6.023437 9.121094-11.664062 9.121094zm0 0" fill="#f948b4"/><path d="m273.316406 361.324219c0 15.363281-12.453125 27.816406-27.816406 27.816406s-27.820312-12.453125-27.820312-27.816406 12.457031-27.820313 27.820312-27.820313 27.816406 12.457032 27.816406 27.820313zm0 0" fill="#fc7acd"/><path d="m217.679688 361.324219c0 14.367187 10.894531 26.1875 24.871093 27.660156v-44.898437c0-.882813-.589843-1.675782-1.449219-1.886719-3.894531-.945313-4.019531-3.851563-3.613281-5.808594.121094-.585937-.023437-1.160156-.347656-1.605469-11.277344 3.550782-19.460937 14.085938-19.460937 26.539063zm0 0" fill="#f948b4"/><path d="m180.074219 258.550781v11.671875c0 12.851563 10.515625 23.371094 23.371093 23.371094h84.109376c12.851562 0 23.371093-10.519531 23.371093-23.371094v-11.671875zm0 0" fill="#f6159c"/><path d="m234.214844 270.222656v-11.671875h-54.140625v11.671875c0 12.851563 10.515625 23.371094 23.371093 23.371094h54.140626c-12.855469 0-23.371094-10.519531-23.371094-23.371094zm0 0" fill="#c6237c"/><path d="m379.789062 341.285156c-7.585937-7.296875-19.003906-9.945312-29.4375-5.851562-13.925781 5.460937-21.113281 21.367187-15.984374 35.421875 1.296874 3.554687 3.238281 6.671875 5.640624 9.285156 2.675782 2.914063 7.1875 3.238281 10.332032.835937 11.164062-8.535156 21.253906-18.398437 30.039062-29.355468 2.472656-3.082032 2.261719-7.597656-.589844-10.335938zm0 0" fill="#fc7acd"/><path d="m140.644531 335.433594c-10.433593-4.09375-21.847656-1.445313-29.4375 5.851562-2.847656 2.738282-3.0625 7.253906-.589843 10.335938 8.785156 10.957031 18.878906 20.820312 30.042968 29.355468 3.144532 2.402344 7.652344 2.078126 10.332032-.839843 2.402343-2.609375 4.339843-5.730469 5.636718-9.285157 5.128906-14.054687-2.058594-29.957031-15.984375-35.417968zm0 0" fill="#f948b4"/><path d="m185.246094 93.742188c-2.527344-8.847657 2.59375-18.070313 11.445312-20.597657 31.425782-8.976562 65.429688-9.195312 97.613282 0 8.851562 2.527344 13.976562 11.75 11.449218 20.597657-2.53125 8.851562-11.753906 13.976562-20.601562 11.449218-25.464844-7.273437-53.125-7.480468-79.308594 0-8.828125 2.527344-18.066406-2.582031-20.597656-11.449218zm0 0" fill="#d0f6fa"/><path d="m225.484375 90.253906c-2.589844-9.066406 1.058594-18.4375 8.394531-23.53125-12.609375.820313-25.089844 2.964844-37.1875 6.421875-8.851562 2.527344-13.972656 11.75-11.445312 20.597657 2.53125 8.867187 11.769531 13.976562 20.601562 11.449218 8.527344-2.4375 17.210938-4.042968 25.925782-4.871094-2.902344-2.605468-5.136719-6.03125-6.289063-10.066406zm0 0" fill="#b9e9fd"/><path d="m346.402344 228.898438v-27c0-7.671876-6.277344-13.949219-13.949219-13.949219h-173.910156c-7.671875 0-13.949219 6.277343-13.949219 13.949219v27zm0 0" fill="#61b6ff"/><path d="m234.214844 187.949219h-75.671875c-7.671875 0-13.949219 6.277343-13.949219 13.949219v27h89.621094zm0 0" fill="#5294e5"/><path d="m144.59375 201.898438v27h35.480469c0-9.484376 0-24.203126 0-30.457032 0-9.585937 9.332031-10.492187 9.332031-10.492187h-30.863281c-7.671875 0-13.949219 6.277343-13.949219 13.949219zm0 0" fill="#4374d3"/><path d="m245.5 342.207031c-10.363281 0-18.765625 8.402344-18.765625 18.765625v150.316406c6.195313.46875 12.453125.710938 18.765625.710938s12.570312-.242188 18.761719-.710938v-150.316406c0-10.363281-8.398438-18.765625-18.761719-18.765625zm0 0" fill="#d0f6fa"/><path d="m245.5 405.667969c8.476562 0 15.730469 5.203125 18.761719 12.585937v-57.28125c0-10.363281-8.398438-18.765625-18.761719-18.765625s-18.765625 8.402344-18.765625 18.765625v57.28125c3.035156-7.382812 10.289063-12.585937 18.765625-12.585937zm0 0" fill="#b9e9fd"/><path d="m377.820312 354.09375c-3.816406-9.636719-14.71875-14.351562-24.355468-10.535156-9.632813 3.816406-14.351563 14.722656-10.53125 24.355468l38.535156 102.910157c10.957031-7.324219 21.289062-15.515625 30.90625-24.464844zm0 0" fill="#d0f6fa"/><path d="m374.316406 399.203125c7.679688-3.042969 16.0625-1.265625 21.84375 3.867187l-18.339844-48.976562c-3.816406-9.636719-14.71875-14.351562-24.355468-10.535156-9.632813 3.816406-14.351563 14.722656-10.535156 24.355468l18.160156 48.492188c.886718-7.476562 5.738281-14.238281 13.226562-17.203125zm0 0" fill="#b9e9fd"/><path d="m137.53125 343.558594c-9.632812-3.816406-20.539062.898437-24.355469 10.535156l-34.550781 92.265625c9.617188 8.949219 19.945312 17.136719 30.902344 24.464844l38.539062-102.910157c3.816406-9.632812-.898437-20.539062-10.535156-24.355468zm0 0" fill="#d0f6fa"/><path d="m414.898438 260.390625h-338.796876c-9.207031 0-16.667968-7.460937-16.667968-16.664063 0-9.207031 7.460937-16.667968 16.667968-16.667968h338.796876c9.203124 0 16.664062 7.460937 16.664062 16.667968 0 9.203126-7.460938 16.664063-16.664062 16.664063zm0 0" fill="#fc7acd"/><path d="m431.5625 243.726562c0-9.207031-7.460938-16.667968-16.664062-16.667968h-29.347657c-9.207031 0-16.667969 7.460937-16.667969 16.667968 0 9.203126 7.460938 16.664063 16.667969 16.664063h29.347657c9.203124 0 16.664062-7.460937 16.664062-16.664063zm0 0" fill="#ffade5"/><path d="m165.78125 243.726562c0-9.207031 7.460938-16.667968 16.667969-16.667968h-106.347657c-9.207031 0-16.667968 7.460937-16.667968 16.667968 0 9.203126 7.460937 16.664063 16.667968 16.664063h106.347657c-9.207031 0-16.667969-7.460937-16.667969-16.664063zm0 0" fill="#f948b4"/><path d="m137.53125 343.558594c-9.632812-3.816406-20.539062.898437-24.355469 10.535156l-18.511719 49.4375c5.792969-5.484375 14.4375-7.460938 22.34375-4.328125 7.285157 2.882813 12.054688 9.363281 13.128907 16.59375l17.929687-47.882813c3.816406-9.632812-.898437-20.539062-10.535156-24.355468zm0 0" fill="#b9e9fd"/></svg>