<svg height="512pt" viewBox="0 -11 512.00006 512" width="512pt" xmlns="http://www.w3.org/2000/svg"><path d="m490 245c0 135.308594-109.691406 245-245 245s-245-109.691406-245-245 109.691406-245 245-245 245 109.691406 245 245zm0 0" fill="#162680"/><g fill="#9d4ad3"><path d="m53.371094 310.796875c-1.570313-4.996094-6.890625-7.777344-11.890625-6.207031-17.132813 5.378906-27.035157 6.464844-32.496094 6.347656 1.773437 6.355469 3.789063 12.605469 6.046875 18.738281 8.785156-.6875 19.472656-3.015625 32.128906-6.988281 5.027344-1.585938 7.769532-6.917969 6.210938-11.890625zm0 0"/><path d="m52.160156 236.222656c-17.804687 12.683594-36.644531 27.621094-49.890625 42.125 1.136719 8.371094 2.703125 16.609375 4.664063 24.691406 5.957031-9.296874 21.15625-26.382812 56.230468-51.367187 4.269532-3.035156 5.261719-8.957031 2.222657-13.226563-3.039063-4.265624-8.976563-5.257812-13.226563-2.222656zm0 0"/><path d="m217.195312 174.234375c-15.671874 3.84375-35.40625 11.171875-57.066406 21.1875-4.753906 2.199219-10.390625.128906-12.589844-4.625-2.199218-4.753906-.105468-10.386719 4.628907-12.589844 22.746093-10.519531 43.671875-18.265625 60.511719-22.394531 5.085937-1.246094 10.21875 1.867188 11.46875 6.953125 1.257812 5.121094-1.902344 10.234375-6.953126 11.46875zm0 0"/><path d="m306.460938 29.914062c-97.019532 18.570313-200.207032 65.363282-288.824219 123.675782-3.796875 9.4375-7.027344 19.160156-9.640625 29.136718 94.320312-65.183593 205.875-115.777343 302.03125-134.183593 5.140625-.984375 8.515625-5.953125 7.53125-11.097657-.984375-5.144531-5.953125-8.515624-11.097656-7.53125zm0 0"/><path d="m258.59375 81.246094c-85.453125 21.203125-179.097656 68.421875-255.300781 123.597656-1.394531 8.453125-2.355469 17.050781-2.863281 25.769531 74.839843-57.011719 171.4375-108.304687 262.730468-130.957031 5.089844-1.257812 8.179688-6.402344 6.917969-11.488281-1.257813-5.082031-6.402344-8.179688-11.484375-6.921875zm0 0"/></g><path d="m90.082031 183.632812c-.007812.003907-.019531.007813-.027343.011719-36.414063 21.027344-48.890626 67.589844-27.867188 104.003907 21.023438 36.414062 67.585938 48.890624 104 27.867187.011719-.007813.019531-.011719.027344-.019531zm0 0" fill="#fc9949"/><path d="m92.675781 182.222656 76.058594 131.734375c34.429687-21.6875 45.847656-66.894531 25.324219-102.445312-20.527344-35.546875-65.382813-48.265625-101.382813-29.289063zm0 0" fill="#face7a"/><path d="m57.109375 222.167969c8.761719 8.257812 21.234375 14.652343 36.46875 11.644531 32.355469-6.394531-10.660156 38.351562 4.304687 49.996094 16.078126 12.515625 41.773438 19.683594 35.375 41.738281 11.25-.75 22.507813-4.011719 32.933594-10.03125 8.09375-4.671875 14.996094-10.613281 20.621094-17.417969 11.347656-25.570312-16.632812-32.839844-33.738281-46.152344-14.964844-11.644531 28.050781-56.390624-4.300781-50-22.550782 4.457032-39.046876-11.6875-46.414063-23.996093-4.191406 1.515625-8.308594 3.394531-12.300781 5.699219-15.683594 9.050781-26.910156 22.84375-32.949219 38.519531zm0 0" fill="#fbb362"/><path d="m420.769531 104.546875c-26.898437-46.59375-109.640625-36.332031-162.175781-23.300781-5.085938 1.261718-8.183594 6.40625-6.921875 11.488281 1.261719 5.085937 6.40625 8.183594 11.488281 6.921875 135.121094-33.523438 192.878906 13.488281 103.15625 121.425781-45.941406 55.273438-118.570312 109.808594-195.589844 151.324219l8.183594 17.167969c153.136719-82.921875 282.996094-213.785157 241.859375-285.027344zm0 0" fill="#b26cde"/><path d="m178.769531 379.613281c-7.90625-13.6875-25.40625-18.375-39.09375-10.472656s-18.378906 25.40625-10.476562 39.09375c7.902343 13.6875 25.40625 18.378906 39.09375 10.472656 13.6875-7.902343 18.378906-25.402343 10.476562-39.09375zm0 0" fill="#fd7e31"/><path d="m182.003906 388.082031c-1.191406 4.507813-4.109375 8.554688-8.464844 11.070313-8.671874 5.007812-19.761718 2.035156-24.769531-6.636719-5.007812-8.671875-2.035156-19.761719 6.636719-24.769531 1.433594-.824219 2.929688-1.414063 4.453125-1.816406-6.652344-1.398438-13.828125-.445313-20.179687 3.222656-13.691407 7.902344-18.378907 25.40625-10.476563 39.09375s25.40625 18.375 39.09375 10.472656c10.984375-6.339844 16.167969-18.863281 13.707031-30.636719zm0 0" fill="#fc5d1f"/><path d="m323.605469 181.972656c-4.308594-2.976562-10.214844-1.898437-13.191407 2.417969-48.722656 70.585937-181.636718 152.128906-279.078124 180.546875 3.210937 5.714844 6.636718 11.289062 10.285156 16.707031 102.457031-31.179687 234.660156-114.417969 284.402344-186.480469 2.976562-4.3125 1.894531-10.21875-2.417969-13.191406zm0 0" fill="#b26cde"/><path d="m353.371094 157.308594c-7.316406-12.675782-23.527344-17.019532-36.203125-9.699219-12.671875 7.316406-17.015625 23.523437-9.699219 36.199219 7.320312 12.675781 23.527344 17.019531 36.203125 9.699218 12.675781-7.316406 17.019531-23.523437 9.699219-36.199218zm0 0" fill="#a2ec00"/><path d="m353.382812 157.3125c-.917968-1.585938-1.972656-3.042969-3.144531-4.363281 2.058594 7.296875-.96875 15.332031-7.835937 19.296875-8.117188 4.6875-18.496094 1.90625-23.183594-6.214844-3.964844-6.863281-2.570312-15.335938 2.863281-20.628906-1.675781.558594-3.316406 1.292968-4.902343 2.207031-12.675782 7.320313-17.019532 23.527344-9.699219 36.203125 7.316406 12.675781 23.527343 17.019531 36.203125 9.699219 12.671875-7.316407 17.015625-23.523438 9.699218-36.199219zm0 0" fill="#00c82f"/><path d="m47.160156 322.683594c-4.996094 1.570312-10.316406-1.210938-11.886718-6.207032-1.570313-4.996093 1.214843-10.316406 6.207031-11.886718 81.46875-25.570313 196.148437-104.855469 201.382812-132.527344-1.90625-.671875-8.539062-2.03125-25.667969 2.171875-5.085937 1.246094-10.222656-1.867187-11.46875-6.953125-1.246093-5.085938 1.863282-10.222656 6.953126-11.46875 25.386718-6.226562 40.722656-4.066406 46.886718 6.609375 7.15625 12.394531-1.886718 29.925781-27.652344 53.597656-44.628906 41-126.894531 88.507813-184.753906 106.664063zm196.335938-150.339844.011718-.007812zm0 0" fill="#b26cde"/><path d="m498.480469 145.867188c-5.136719-1.011719-8.484375-5.996094-7.472657-11.136719 4.089844-20.773438 1.941407-38.617188-6.386718-53.039063-28.628906-49.589844-118.3125-43.921875-174.59375-33.148437-5.144532.984375-10.113282-2.386719-11.097656-7.53125-.984376-5.144531 2.390624-10.113281 7.53125-11.097657 66.421874-12.710937 160.816406-16.199218 194.589843 42.296876 10.683594 18.507812 13.566407 40.777343 8.566407 66.183593-1.003907 5.109375-5.972657 8.488281-11.136719 7.472657zm0 0" fill="#b26cde"/><path d="m303.617188 370.78125c-52.015626 37.269531-109.210938 69.542969-165.855469 94.550781 7.777343 3.792969 15.785156 7.1875 24 10.15625 24.695312-11.507812 49.609375-24.453125 74.40625-38.769531 27.285156-15.75 53.695312-32.75 78.496093-50.519531 4.261719-3.050781 5.238282-8.976563 2.1875-13.234375-3.050781-4.257813-8.96875-5.246094-13.234374-2.183594zm0 0" fill="#b26cde"/><path d="m368.179688 338.824219c-10.691407-18.519531-34.375-24.867188-52.894532-14.171875-18.519531 10.691406-24.867187 34.375-14.171875 52.894531 10.691407 18.519531 34.375 24.867187 52.894531 14.171875 18.519532-10.691406 24.863282-34.375 14.171876-52.894531zm0 0" fill="#f948b4"/><path d="m368.1875 338.832031c-1.414062-2.449219-3.0625-4.683593-4.890625-6.695312 2.613281 10.171875-1.710937 21.242187-11.25 26.75-11.484375 6.628906-26.167969 2.695312-32.800781-8.789063-5.507813-9.539062-3.714844-21.289062 3.632812-28.792968-2.589844.832031-5.132812 1.9375-7.585937 3.355468-18.519531 10.691406-24.867188 34.375-14.171875 52.894532 10.691406 18.519531 34.375 24.867187 52.894531 14.171874 18.519531-10.691406 24.867187-34.371093 14.171875-52.894531zm0 0" fill="#c6237c"/><path d="m173.804688 41.152344c-3.492188-6.046875-11.222657-8.117188-17.265626-4.625-6.046874 3.488281-8.117187 11.222656-4.628906 17.265625 3.492188 6.046875 11.222656 8.117187 17.269532 4.628906 6.042968-3.492187 8.117187-11.222656 4.625-17.269531zm0 0" fill="#d7f9b7"/><path d="m300.300781 115.734375c-2.621093-4.535156-8.421875-6.089844-12.957031-3.472656-4.539062 2.621093-6.089844 8.421875-3.472656 12.957031 2.621094 4.535156 8.421875 6.089844 12.957031 3.472656 4.535156-2.621094 6.089844-8.421875 3.472656-12.957031zm0 0" fill="#4374d3"/><path d="m370.894531 285.222656c-2.617187-4.539062-8.417969-6.089844-12.957031-3.472656-4.535156 2.621094-6.089844 8.421875-3.46875 12.957031 2.617188 4.535157 8.417969 6.089844 12.953125 3.472657 4.539063-2.621094 6.09375-8.421876 3.472656-12.957032zm0 0" fill="#face7a"/><path d="m307.4375 434.519531c-2.621094-4.535156-8.421875-6.089843-12.957031-3.472656-4.535157 2.617187-6.089844 8.417969-3.46875 12.953125 2.617187 4.539062 8.417969 6.09375 12.953125 3.472656 4.535156-2.617187 6.089844-8.417968 3.472656-12.953125zm0 0" fill="#d7f9b7"/><path d="m434.371094 288.960938c-4.363282-7.558594-14.027344-10.148438-21.585938-5.785157-7.558594 4.367188-10.148437 14.03125-5.785156 21.589844s14.03125 10.148437 21.589844 5.785156 10.148437-14.03125 5.78125-21.589843zm0 0" fill="#4374d3"/></svg>