<svg height="512pt" viewBox="0 0 512 512" width="512pt" xmlns="http://www.w3.org/2000/svg"><path d="m2.921875 230.101562 462.003906 144.957032c16.046875-32.597656 25.074219-69.273438 25.074219-108.058594 0-135.3125-109.6875-245.003906-245-245.003906-122.75 0-224.414062 90.277344-242.226562 208.058594zm0 0" fill="#162680"/><path d="m457.390625 367.597656-3.683594-1.984375c-11.003906-5.925781-16.328125-18.769531-12.742187-30.742187l1.203125-4.023438c4.347656-14.527344-4.4375-29.714844-19.195313-33.191406l-4.066406-.957031c-12.175781-2.867188-20.65625-13.90625-20.292969-26.414063l.125-4.195312c.445313-15.148438-11.953125-27.546875-27.101562-27.101563l-4.195313.121094c-12.507812.367187-23.546875-8.113281-26.414062-20.289063l-.957032-4.066406c-3.476562-14.757812-18.664062-23.542968-33.191406-19.195312l-4.023437 1.203125c-11.972657 3.582031-24.816407-1.742188-30.742188-12.746094l-1.984375-3.683594c-7.195312-13.355469-24.15625-17.890625-37.054687-9.90625l-3.539063 2.191407c-10.636718 6.582031-24.4375 4.777343-33.019531-4.316407l-2.898437-3.070312c-10.398438-11.015625-27.917969-11.015625-38.316407 0l-2.894531 3.070312c-8.585938 9.097657-22.386719 10.902344-33.019531 4.316407l-3.539063-2.1875c-12.902344-7.984376-29.863281-3.453126-37.058594 9.90625l-1.980468 3.679687c-5.925782 11.003906-18.769532 16.328125-30.742188 12.746094l-4.023437-1.203125c-14.527344-4.347656-29.71875 4.433594-33.191407 19.195312l-.957031 4.0625c-.910156 3.855469-2.640625 7.335938-4.972656 10.285156-1.917969 12.351563-2.921875 25.007813-2.921875 37.898438 0 135.308594 109.691406 245 245 245 96.867188 0 180.59375-56.21875 220.355469-137.804688-2.125-2.625-4.792969-4.890624-7.964844-6.597656zm0 0" fill="#fadda0"/><path d="m166.796875 482.675781c.21875-5.515625-2.515625-10.726562-7.15625-13.710937-28.964844-18.621094-26.445313-37.28125-21.554687-47.644532 2.617187-5.550781 1.558593-12.148437-2.503907-16.753906-43.277343-49.015625-24.109375-84.128906-10.199219-99.796875 4.90625-5.535156 5.082032-13.777343.636719-19.691406-17.949219-23.855469-13.875-44.238281-8.59375-55.839844 2.671875-5.871093 1.582031-12.777343-2.910156-17.40625-18.078125-18.628906 1.328125-41.40625 1.328125-41.40625-12.898438-7.984375-29.859375-3.449219-37.054688 9.90625l-1.980468 3.683594c-5.929688 11.003906-18.773438 16.328125-30.746094 12.742187l-4.023438-1.203124c-14.523437-4.347657-29.714843 4.4375-33.191406 19.199218l-.957031 4.0625c-.90625 3.855469-2.636719 7.335938-4.96875 10.285156-1.917969 12.351563-2.921875 25.007813-2.921875 37.898438 0 109.988281 72.480469 203.046875 172.28125 234.027344-4.699219-6.59375-5.683594-13.285156-5.484375-18.351563zm0 0" fill="#fbb362"/><path d="m174.457031 213.777344c-67.59375 0-128.90625 26.886718-173.839843 70.542968 4.855468 69.496094 38.6875 131 89.503906 172.507813h309.761718c7.949219-6.496094 15.492188-13.472656 22.566407-20.898437-13.617188-124.925782-119.441407-222.152344-247.992188-222.152344zm0 0" fill="#fbb362"/><path d="m138.085938 421.320312c2.617187-5.550781 1.558593-12.148437-2.503907-16.753906-43.277343-49.015625-24.109375-84.128906-10.199219-99.796875 4.90625-5.535156 5.082032-13.777343.636719-19.691406-17.949219-23.855469-13.875-44.238281-8.59375-55.839844 1.339844-2.941406 1.730469-6.144531 1.226563-9.191406-45.273438 10.347656-85.855469 33.007813-118.035156 64.273437 4.855468 69.496094 38.6875 131 89.503906 172.507813h54.730468c-12.960937-14.25-10.585937-27.410156-6.765624-35.507813zm0 0" fill="#fc9949"/><path d="m245 512c54.179688 0 104.238281-17.597656 144.804688-47.371094h-289.609376c40.570313 29.773438 90.628907 47.371094 144.804688 47.371094zm0 0" fill="#fbb362"/><path d="m172.273438 501.015625c-4.691407-6.585937-5.675782-13.273437-5.476563-18.339844.21875-5.515625-2.515625-10.726562-7.15625-13.710937-2.25-1.445313-4.289063-2.894532-6.171875-4.335938h-53.273438c21.605469 15.855469 45.902344 28.257813 72.078126 36.386719zm0 0" fill="#fc9949"/><path d="m512 135.230469c0 37.425781-30.339844 67.765625-67.769531 67.765625-37.425781 0-67.765625-30.339844-67.765625-67.765625 0-37.429688 30.339844-67.769531 67.765625-67.769531 37.429687 0 67.769531 30.339843 67.769531 67.769531zm0 0" fill="#a2ec00"/><path d="m466.285156 158.890625c-25.246094 0-45.714844-20.464844-45.714844-45.714844 0-21.828125 15.304688-40.070312 35.765626-44.613281-3.929688-.710938-7.96875-1.097656-12.105469-1.097656-37.425781 0-67.765625 30.339844-67.765625 67.765625s30.339844 67.769531 67.765625 67.769531c37.429687 0 67.769531-30.34375 67.769531-67.769531 0-4.132813-.390625-8.171875-1.097656-12.101563-4.546875 20.460938-22.789063 35.761719-44.617188 35.761719zm0 0" fill="#00c82f"/><path d="m220.609375 106.539062c-7.339844 0-12.476563-2.46875-15.304687-7.367187-5.875-10.171875 3.828124-21.082031 7.011718-24.664063 5.722656-6.4375 14.375-13.84375 25.023438-21.429687 4.386718-3.121094 10.472656-2.097656 13.597656 2.289063 3.121094 4.386718 2.097656 10.472656-2.289062 13.59375-11.023438 7.851562-17.679688 14.003906-21.464844 18.183593 3.617187 1.042969 6.457031 4.136719 6.976562 8.109375.699219 5.339844-3.066406 10.234375-8.402344 10.929688-1.820312.238281-3.539062.355468-5.148437.355468zm0 0" fill="#b9e9fd"/><path d="m289.070312 44.046875c-3.683593 0-7.210937-2.097656-8.855468-5.660156-2.261719-4.886719-.132813-10.679688 4.757812-12.941407 12.136719-5.613281 23.125-9.546874 31.769532-11.386718 5.265624-1.121094 10.441406 2.246094 11.5625 7.511718 1.117187 5.269532-2.246094 10.445313-7.515626 11.5625-7.136718 1.515626-16.953124 5.070313-27.636718 10.011719-1.324219.613281-2.714844.902344-4.082032.902344zm0 0" fill="#b9e9fd"/><path d="m463.902344 257.441406c-7.222656 0-12.996094-5.917968-12.996094-13 0-8.242187 7.613281-14.351562 15.542969-12.753906 6.277343 1.304688 10.453125 6.757812 10.453125 12.753906 0 7.152344-5.816406 13-13 13zm0 0" fill="#00c82f"/><path d="m367.296875 40.011719c0-6.269531 5.777344-10.75 11.660156-9.566407 4.714844 1 7.839844 5.03125 7.839844 9.566407 0 13.144531-19.5 12.632812-19.5 0zm0 0" fill="#fadda0"/><path d="m412.558594 16.25c0-9.535156 8.226562-17.109375 17.847656-16.171875 8.335938.835937 14.648438 7.851563 14.648438 16.171875 0 8.253906-6.257813 15.316406-14.648438 16.15625-8.914062 1.082031-17.847656-6.214844-17.847656-16.15625zm0 0" fill="#61b6ff"/><path d="m435.144531 21.925781c-6.03125.734375-12.078125-4.203125-12.078125-10.929687 0-5.261719 3.703125-9.636719 8.597656-10.730469-.414062-.074219-.832031-.144531-1.257812-.1875-9.621094-.9375-17.847656 6.636719-17.847656 16.171875 0 9.941406 8.933594 17.238281 17.847656 16.15625 8.390625-.839844 14.648438-7.902344 14.648438-16.15625 0-.988281-.09375-1.957031-.265626-2.898438-.996093 4.515626-4.789062 8.089844-9.644531 8.574219zm0 0" fill="#5294e5"/><path d="m212.246094 216.621094c-9.554688 12.691406-9.363282 30.183594.625 42.652344.074218.09375.144531.183593.21875.277343 15.902344 20.023438 40.074218 31.695313 65.644531 31.695313h76.429687c-37.234374-39.101563-87.03125-66.132813-142.917968-74.625zm0 0" fill="#fc9949"/><path d="m422.453125 435.921875c-1.214844-11.105469-3.15625-21.996094-5.777344-32.617187h-85.070312c-45.199219 0-87.929688-20.628907-116.039063-56.027344-28.109375-35.398438-70.839844-56.03125-116.042968-56.03125h-98.328126c4.171876 42.488281 19.207032 81.785156 42.277344 115.089844h56.050782c45.203124 0 87.933593 20.632812 116.042968 56.03125 17.195313 21.652343 39.863282 37.765624 65.214844 47.023437 55.417969-8.109375 104.816406-34.761719 141.671875-73.46875zm0 0" fill="#fc9949"/><path d="m1.195312 291.246094c4.171876 42.488281 19.207032 81.78125 42.277344 115.089844h56.050782c13.550781 0 26.878906 1.867187 39.65625 5.417968-.546876-2.613281-1.761719-5.105468-3.597657-7.183594-43.277343-49.019531-24.109375-84.128906-10.199219-99.800781 2.644532-2.980469 3.902344-6.75 3.816407-10.515625-9.679688-1.980468-19.613281-3.007812-29.675781-3.007812zm0 0" fill="#fd7e31"/><path d="m215.566406 462.363281c-28.109375-35.394531-70.839844-56.027343-116.042968-56.027343h-56.050782c22.796875 32.90625 53.433594 59.964843 89.222656 78.457031 48.875-29.25 117.507813 9.226562 117.53125 9.238281-13.015624-8.550781-24.75-19.1875-34.660156-31.667969zm0 0" fill="#fd7e31"/><path d="m164.777344 474.402344c-1.226563-2.164063-2.972656-4.046875-5.136719-5.4375-28.960937-18.621094-26.445313-37.28125-21.554687-47.644532 1.433593-3.039062 1.757812-6.394531 1.09375-9.566406-12.777344-3.550781-26.101563-5.417968-39.652344-5.417968h-56.054688c22.796875 32.90625 53.433594 59.964843 89.222656 78.457031 10.109376-6.050781 21.066407-9.195313 32.082032-10.390625zm0 0" fill="#fc5d1f"/><path d="m393.828125 344.332031h-62.222656c-45.199219 0-87.929688-9.328125-116.039063-25.339843-20.542968-11.703126-48.902344-19.832032-80.320312-23.363282 31.417968 7.808594 59.777344 25.777344 80.320312 51.648438 28.109375 35.398437 70.839844 56.027344 116.039063 56.027344h85.070312c-5.132812-20.804688-12.859375-40.589844-22.847656-58.972657zm0 0" fill="#face7a"/><path d="m305.671875 39.097656c-10.5625-18.296875-33.953125-24.5625-52.25-14-18.292969 10.5625-24.558594 33.953125-13.996094 52.246094 10.5625 18.296875 33.953125 24.5625 52.246094 14s24.5625-33.953125 14-52.246094zm0 0" fill="#61b6ff"/><path d="m303.660156 74.792969c-14.300781 8.257812-32.589844 3.355469-40.847656-10.945313-8.257812-14.300781-3.355469-32.589844 10.945312-40.847656 1.75-1.011719 3.5625-1.820312 5.40625-2.445312-8.542968-1.503907-17.636718-.128907-25.734374 4.542968-18.292969 10.5625-24.5625 33.957032-14 52.25 10.5625 18.292969 33.957031 24.5625 52.25 14 8.097656-4.675781 13.832031-11.863281 16.800781-20.011718-1.460938 1.28125-3.070313 2.445312-4.820313 3.457031zm0 0" fill="#5294e5"/><path d="m224.480469 106.265625c-4.820313 0-9.011719-3.574219-9.652344-8.484375-.699219-5.339844 3.0625-10.234375 8.402344-10.929688 11.617187-1.523437 32.53125-10.246093 53.285156-22.226562 21.640625-12.496094 35.695313-23.953125 42.707031-31.289062-4.703125.207031-8.988281-2.972657-9.992187-7.714844-1.117188-5.269532 2.246093-10.445313 7.511719-11.5625 4.789062-1.015625 19.359374-4.109375 25.292968 6.167968 6.367188 11.03125-4.90625 23.339844-13.9375 31.640626-10.371094 9.527343-25.230468 20.054687-41.835937 29.644531-23.496094 13.566406-46.117188 22.789062-60.503907 24.671875-.429687.054687-.855468.082031-1.277343.082031zm0 0" fill="#e0f9fe"/><path d="m328.515625 139.164062c-7.066406 0-12.617187-5.773437-12.617187-12.617187 0-5.835937 4.070312-11.128906 10.15625-12.363281 7.683593-1.539063 15.078124 4.324218 15.078124 12.363281 0 6.894531-5.574218 12.617187-12.617187 12.617187zm0 0" fill="#fbb362"/></svg>