<svg height="512pt" viewBox="-10 0 511 512" width="512pt" xmlns="http://www.w3.org/2000/svg"><path d="m464.117188 377.695312c16.867187-33.25 26.382812-70.859374 26.382812-110.695312 0-135.3125-109.691406-245-245-245s-245 109.691406-245 245c0 39.835938 9.515625 77.445312 26.386719 110.695312zm0 0" fill="#f6159c"/><path d="m369.980469 478.046875h-248.957031c36.480468 21.5625 79.03125 33.953125 124.476562 33.953125 45.449219 0 87.996094-12.390625 124.480469-33.953125zm0 0" fill="#3957c9"/><path d="m227.648438 478.046875h-106.625c31.402343 18.558594 67.296874 30.316406 105.667968 33.230469-13.414062-6.375-12.792968-27.523438.957032-33.230469zm0 0" fill="#1d319b"/><path d="m297.261719 7.894531c-4.128907-5-10.273438-7.894531-16.757813-7.894531h-68.925781c-6.273437 0-12.238281 2.710938-16.367187 7.4375l-19.9375 22.828125h140.457031zm0 0" fill="#83d3fc"/><path d="m224.210938 7.4375c4.128906-4.726562 10.09375-7.4375 16.367187-7.4375h-29c-6.273437 0-12.238281 2.710938-16.367187 7.4375l-19.9375 22.828125h59.3125c-11.828126 0-18.152344-13.921875-10.375-22.828125zm0 0" fill="#61b6ff"/><path d="m338.941406 35.902344c-3.902344-4.726563-9.710937-7.464844-15.839844-7.464844h-155.015624c-5.929688 0-11.570313 2.5625-15.472657 7.03125l-52.171875 59.738281c2.945313-.761719 6.023438-1.179687 9.199219-1.179687h264.949219c5.335937 0 10.410156 1.15625 15 3.222656zm0 0" fill="#b9e9fd"/><path d="m186.980469 85.671875c-4.144531-6.640625-3.460938-15.203125 1.6875-21.097656l25.421875-29.109375c3.898437-4.464844 9.539062-7.027344 15.46875-7.027344h-61.472656c-5.929688 0-11.570313 2.5625-15.472657 7.027344l-52.171875 59.742187c2.941406-.765625 6.023438-1.179687 9.195313-1.179687h92.410156c-6.125 0-11.820313-3.160156-15.066406-8.355469zm0 0" fill="#83d3fc"/><path d="m75.3125 126.105469h335.707031c-1.464843-18.933594-17.40625-33.972657-36.699219-33.972657h-264.949218c-19.378906 0-35.378906 15.179688-36.714844 34.234376.859375-.167969 1.746094-.261719 2.65625-.261719zm0 0" fill="#83d3fc"/><path d="m197.425781 92.132812h-88.054687c-19.378906 0-35.378906 15.179688-36.714844 34.234376.859375-.167969 1.746094-.261719 2.65625-.261719h85.417969c1.46875-18.929688 17.402343-33.972657 36.695312-33.972657zm0 0" fill="#61b6ff"/><path d="m124.710938 480.1875h241.578124c42.160157-23.9375 76.515626-60.019531 98.324219-103.492188l-39.730469-239.007812c0-7.589844-6.152343-13.746094-13.742187-13.746094-18.378906 0-312.902344 0-331.28125 0-7.589844 0-13.742187 6.15625-13.742187 13.746094l-39.730469 239.007812c21.808593 43.472657 56.164062 79.554688 98.324219 103.492188zm0 0" fill="#5294e5"/><path d="m147.484375 136.6875c0-5.777344 2.835937-10.710938 6.855469-12.746094-39.453125 0-69.042969 0-74.480469 0-7.589844 0-13.742187 6.15625-13.742187 13.746094l-39.730469 239.007812c17.375 34.632813 42.714843 64.566407 73.617187 87.414063zm0 0" fill="#4374d3"/><path d="m26.390625 376.695312c21.804687 43.472657 56.160156 79.554688 98.320313 103.492188h241.578124c42.160157-23.9375 76.515626-60.019531 98.324219-103.492188l-4.175781-25.121093h-429.871094zm0 0" fill="#fbb362"/><path d="m26.390625 376.695312c21.804687 43.472657 56.160156 79.554688 98.320313 103.492188h241.578124c42.160157-23.9375 76.515626-60.019531 98.324219-103.492188l-4.175781-25.121093h-429.871094zm0 0" fill="#4374d3"/><path d="m116.324219 351.574219h-85.757813l-4.175781 25.121093c17.519531 32.90625 39.1875 61.957032 73.613281 87.414063zm0 0" fill="#3957c9"/><path d="m350.148438 480.1875v-132.648438c0-57.792968-46.851563-104.644531-104.648438-104.644531-57.792969 0-104.644531 46.851563-104.644531 104.644531v132.648438zm0 0" fill="#3957c9"/><path d="m319.078125 480.1875v-163.714844c0-40.636718-32.941406-73.578125-73.578125-73.578125s-73.578125 32.941407-73.578125 73.578125v163.714844zm0 0" fill="#face7a"/><path d="m223.933594 480.1875v-166.941406s-.414063-22.328125 16.277344-34.675782c2.613281-1.929687 3.394531-5.519531 1.6875-8.285156-1.929688-3.121094-3.003907-7.65625.699218-13.121094 1.417969-2.089843 1.414063-4.796874.082032-6.941406-1.140626-1.832031-2.191407-4.289062-2.261719-7.136718-38.261719 2.613281-68.496094 34.460937-68.496094 73.386718v163.714844zm0 0" fill="#fbb362"/><path d="m171.921875 380.203125v40.992187h16.460937c6.738282 0 12.195313-5.460937 12.195313-12.199218v-16.597656c0-6.738282-5.460937-12.195313-12.195313-12.195313zm0 0" fill="#fd7e31"/><g fill="#b9e9fd"><path d="m389.585938 170.585938c-5.902344 0-10.808594-4.804688-10.808594-10.808594 0-5.03125 3.539062-9.554688 8.699218-10.601563 6.554688-1.316406 12.917969 3.703125 12.917969 10.601563 0 6.027344-4.921875 10.808594-10.808593 10.808594zm0 0"/><path d="m306.710938 161.886719c-1.550782-7.613281 5.285156-14.199219 12.699218-12.710938 5.261719 1.066407 8.703125 5.675781 8.703125 10.601563 0 5.050781-3.519531 9.542968-8.703125 10.59375-5.878906 1.199218-11.632812-2.769532-12.699218-8.484375zm0 0"/><path d="m245.011719 170.585938c-5.894531 0-10.800781-4.78125-10.800781-10.808594 0-6.902344 6.347656-11.925782 12.917968-10.601563 4.917969.996094 8.691406 5.316407 8.691406 10.601563 0 6.054687-4.945312 10.808594-10.808593 10.808594zm0 0"/><path d="m172.726562 170.585938c-5.792968 0-10.808593-4.691407-10.808593-10.808594 0-6.953125 6.421875-11.90625 12.917969-10.601563 4.949218 1.003907 8.699218 5.339844 8.699218 10.601563.003906 6.011718-4.914062 10.808594-10.808594 10.808594zm0 0"/></g><path d="m100.433594 170.585938c-5.917969 0-10.796875-4.808594-10.796875-10.808594 0-6.832032 6.292969-11.929688 12.917969-10.601563 5.074218 1.027344 8.699218 5.484375 8.699218 10.601563 0 5.863281-4.769531 10.808594-10.820312 10.808594zm0 0" fill="#61b6ff"/><path d="m329.890625 480.1875v-163.714844c0-46.53125-37.859375-84.386718-84.390625-84.386718s-84.386719 37.855468-84.386719 84.386718v163.714844h21.617188v-163.714844c0-34.613281 28.160156-62.769531 62.769531-62.769531 34.613281 0 62.769531 28.15625 62.769531 62.769531v163.714844zm0 0" fill="#fbb362"/><path d="m242.679688 250.222656c-2.449219-3.933594-4.558594-10.761718 2.820312-18.136718-46.53125 0-84.386719 37.855468-84.386719 84.386718v163.714844h21.617188v-163.714844c0-33.996094 27.171875-61.746094 60.9375-62.722656.015625-1.21875-.316407-2.445312-.988281-3.527344zm0 0" fill="#fc9949"/><path d="m246.3125 274.929688c-23.304688-.449219-42.378906 19.074218-42.378906 42.382812v27.277344c0 3.859375 3.125 6.984375 6.980468 6.984375h69.171876c3.859374 0 6.984374-3.125 6.984374-6.984375v-28.097656c0-22.691407-18.175781-41.132813-40.757812-41.5625zm0 0" fill="#3957c9"/><path d="m223.933594 313.246094s-.414063-22.328125 16.277344-34.675782c1.21875-.898437 2.03125-2.164062 2.386718-3.535156-21.582031 1.566406-38.664062 20.21875-38.664062 42.273438v27.28125c0 3.855468 3.125 6.984375 6.980468 6.984375h13.019532zm0 0" fill="#1d319b"/></svg>