<svg height="512pt" viewBox="-10 0 511 512" width="512pt" xmlns="http://www.w3.org/2000/svg"><path d="m435.570312 421.582031c34.335938-42.167969 54.929688-95.96875 54.929688-154.582031 0-135.308594-109.6875-245-245-245-135.308594 0-245 109.691406-245 245 0 58.617188 20.59375 112.414062 54.929688 154.582031zm0 0" fill="#eec707"/><path d="m245.804688 0c108.3125 0 196.121093 91.015625 196.121093 203.285156 0 66.90625-31.1875 126.253906-79.304687 163.300782-36.730469 7.789062-76 12.019531-116.816406 12.019531-40.816407 0-80.082032-4.226563-116.816407-12.019531-48.117187-37.046876-79.300781-96.398438-79.300781-163.300782-.003906-112.269531 87.804688-203.285156 196.117188-203.285156zm0 0" fill="#83d3fc"/><path d="m245.804688 0c-108.3125 0-196.117188 91.015625-196.117188 203.285156 0 66.902344 31.183594 126.253906 79.300781 163.300782 23.84375 5.054687 48.757813 8.601562 74.464844 10.476562.695313-.640625 1.386719-1.226562 2.050781-1.753906 2.535156-2.019532 3.550782-5.488282 2.351563-8.5-1.640625-4.109375-.371094-7.859375 1.082031-10.378906 1.25-2.171876 1.242188-4.835938.128906-7.082032-5.347656-10.808594.460938-18.035156 3.996094-21.15625 1.476562-1.300781 2.410156-3.109375 2.566406-5.074218l17.402344-219.484376c.203125-2.550781-.640625-5.046874-2.242188-7.042968-7.21875-8.980469-4.917968-16.363282-2.324218-20.515625 1.667968-2.675781 2.082031-5.941407 1.046875-8.921875-18.128907-52.246094 16.292969-67.152344 16.292969-67.152344zm0 0" fill="#61b6ff"/><path d="m381.605469 397.605469c-3.359375 4.34375-8.207031 7.570312-14 8.800781-39.242188 8.324219-80.21875 12.546875-121.800781 12.546875-41.582032 0-82.5625-4.222656-121.800782-12.546875-5.875-1.246094-10.769531-4.550781-14.136718-8.988281l-.015626-.003907-55.226562 23.164063c44.90625 55.746094 113.71875 91.421875 190.875 91.421875s145.96875-35.675781 190.878906-91.421875zm0 0" fill="#fd7e31"/><path d="m109.871094 397.417969-.019532-.003907-55.226562 23.167969c28.300781 35.128907 66.097656 62.273438 109.488281 77.558594 0-3.222656 0-6.667969 0-10.171875 0-7.625 2.613281-11.996094 5.132813-14.4375 2.050781-1.980469 2.335937-5.128906.757812-7.503906-8.496094-12.75 3.859375-20.847656 3.859375-20.847656l25.96875-22.410157c1.59375-1.375 2.273438-3.453125 1.9375-5.417969-26.441406-1.925781-52.464843-5.578124-77.765625-10.945312-5.875-1.246094-10.769531-4.550781-14.132812-8.988281zm0 0" fill="#fc5d1f"/><path d="m97.335938 128.695312c3.425781-7.90625 9.742187-14.175781 17.632812-17.652343 20.398438-8.988281 66.566406-25.53125 130.082031-25.53125 63.511719 0 109.679688 16.542969 130.082031 25.53125 7.886719 3.476562 14.203126 9.746093 17.632813 17.652343 9.398437 21.695313 24.410156 70.816407 2.71875 130.867188-29.433594 81.488281-150.433594 83.5-150.433594 83.5s-121.003906-2.011719-150.4375-83.5c-21.6875-60.046875-6.679687-109.171875 2.722657-130.867188zm0 0" fill="#4374d3"/><path d="m245.804688 420.730469c41.582031 0 82.558593-4.21875 121.800781-12.546875 12.980469-2.75 21.265625-15.503906 18.515625-28.484375-2.753906-12.976563-15.515625-21.265625-28.484375-18.511719-35.972657 7.628906-73.597657 11.5-111.832031 11.5-38.234376 0-75.859376-3.871094-111.828126-11.5-12.992187-2.753906-25.734374 5.535156-28.484374 18.511719-2.753907 12.980469 5.535156 25.734375 18.511718 28.484375 39.238282 8.328125 80.21875 12.546875 121.800782 12.546875zm0 0" fill="#fc9949"/><path d="m133.976562 361.1875c-12.992187-2.753906-25.734374 5.535156-28.484374 18.511719-2.753907 12.980469 5.535156 25.734375 18.511718 28.488281 25.3125 5.371094 51.351563 9.019531 77.804688 10.945312.1875-1.347656-.089844-2.75-.878906-3.957031-13.632813-20.757812-2.902344-33.925781 4.574218-39.867187 1.273438-1.015625 2.160156-2.394532 2.582032-3.898438-25.234376-1.707031-50.046876-5.117187-74.109376-10.222656zm0 0" fill="#fd7e31"/><path d="m342.265625 457.921875h-199.988281c-11.335938 0-20.734375 8.726563-21.808594 19.796875 36.601562 21.765625 79.351562 34.28125 125.03125 34.28125 43.0625 0 83.519531-11.125 118.683594-30.632812v-1.53125c0-12.054688-9.863282-21.914063-21.917969-21.914063zm0 0" fill="#3957c9"/><path d="m120.46875 477.71875c13.738281 8.167969 28.34375 15.035156 43.644531 20.425781 0-3.222656 0-6.667969 0-10.175781 0-7.625 2.613281-11.996094 5.132813-14.4375 2.050781-1.980469 2.335937-5.128906.757812-7.503906-1.980468-2.96875-2.816406-5.683594-2.953125-8.105469h-24.773437c-11.339844 0-20.734375 8.726563-21.808594 19.796875zm0 0" fill="#1d319b"/><path d="m376.441406 474.097656c-2.746094-16.386718-17.019531-28.917968-34.175781-28.917968h-199.988281c-15.847656 0-29.238282 10.699218-33.347656 25.25 7.753906 5.214843 15.824218 9.996093 24.171874 14.3125v-4.90625c0-5.058594 4.117188-9.175782 9.175782-9.175782h199.988281c5.058594 0 9.175781 4.117188 9.175781 9.175782v8.132812c8.628906-4.144531 16.96875-8.785156 25-13.871094zm0 0" fill="#face7a"/><path d="m142.277344 445.179688c-15.847656 0-29.238282 10.699218-33.347656 25.25 7.753906 5.214843 15.824218 9.996093 24.171874 14.3125v-4.90625c0-5.058594 4.117188-9.175782 9.175782-9.175782h28.574218c.351563-1.546875.089844-3.226562-.847656-4.632812-8.496094-12.753906 3.859375-20.847656 3.859375-20.847656zm0 0" fill="#eec707"/><path d="m361.921875 105.695312c-24.078125-8.976562-64.589844-20.183593-116.871094-20.183593-50.617187 0-90.203125 10.503906-114.523437 19.320312-19.871094 20.175781-31.738282 45.683594-31.738282 73.425781 0 24.882813 9.550782 47.972657 25.859376 67.023438 9.8125 11.457031 17.410156 24.589844 23.007812 38.597656 4.003906 10.015625 9.308594 19.285156 15.65625 27.589844 2.515625 6.285156 5.734375 12.210938 9.550781 17.699219 37.023438 13.304687 72.183594 13.894531 72.183594 13.894531s36.542969-.609375 74.351563-14.683594c3.589843-5.308594 6.625-11.019531 9.011718-17.0625 6.3125-8.289062 11.585938-17.53125 15.574219-27.515625 5.558594-13.933593 13.09375-27.011719 22.867187-38.394531 16.375-19.074219 25.96875-42.210938 25.96875-67.148438 0-27.351562-11.535156-52.527343-30.898437-72.5625zm0 0" fill="#bf5543"/><path d="m98.789062 178.257812c0 24.882813 9.550782 47.972657 25.863282 67.023438 9.808594 11.457031 17.40625 24.589844 23.003906 38.597656 4.007812 10.015625 9.308594 19.285156 15.660156 27.589844 2.515625 6.292969 5.757813 12.21875 9.582032 17.710938 14.28125 5.128906 28.28125 8.371093 40.09375 10.414062v-195.160156c-6.15625-19.59375 33.738281-37.316406 15.921874-55.132813-1.089843-1.089843-2-2.1875-2.753906-3.289062-41.609375 2.171875-74.425781 11.132812-95.628906 18.820312-19.871094 20.175781-31.742188 45.683594-31.742188 73.425781zm0 0" fill="#b33c37"/><path d="m294.621094 135.410156c-9.199219-.390625-17.957032 1.3125-25.84375 4.667969-2.789063 1.1875-5.21875 3.109375-6.910156 5.625-3.210938 4.777344-5.71875 11.097656-4.875 18.71875.257812 2.324219-2.210938 3.96875-4.226563 2.777344-4.183594-2.476563-10.167969-6.90625-15.566406-14.140625-1.414063-1.894532-4.394531-1.308594-4.9375.992187-.628907 2.648438-1.078125 5.230469-1.386719 7.363281-.328125 2.257813-3.089844 3.230469-4.71875 1.632813-5.566406-5.453125-9.894531-11.875-12.722656-17.777344-3.027344-6.316406-9.574219-10.171875-16.574219-9.855469l-.136719.007813c-31.570312 1.484375-56.65625 27.84375-56.660156 59.445313-.003906 14.851562 5.4375 28.425781 14.429688 38.847656 5.316406 6.160156 7.527343 14.472656 5.453124 22.339844-2.039062 7.742187-3.058593 15.894531-2.90625 24.308593.324219 18.078125 6.140626 34.875 15.820313 48.800781 37.027344 13.308594 72.191406 13.898438 72.191406 13.898438s36.550781-.613281 74.363281-14.6875c9.578126-14.171875 15.175782-31.257812 15.175782-49.652344 0-7.855468-1.023438-15.472656-2.9375-22.722656-2.050782-7.761719.015625-16.019531 5.289062-22.074219 9.453125-10.859375 15.035156-25.179687 14.582032-40.8125-.898438-31.003906-25.910157-56.382812-56.902344-57.703125zm0 0" fill="#fadda0"/><path d="m204.648438 280.363281c-.113282-8.414062.65625-16.566406 2.199218-24.308593 1.5625-7.867188-.105468-16.179688-4.121094-22.339844-6.792968-10.421875-10.898437-23.996094-10.898437-38.847656.003906-21.097657 8.457031-39.847657 21.164063-50.429688-3.1875-5.820312-9.453126-9.324219-16.132813-9.023438l-.140625.007813c-31.566406 1.484375-56.652344 27.84375-56.660156 59.445313 0 14.851562 5.4375 28.425781 14.433594 38.847656 5.3125 6.160156 7.527343 14.472656 5.453124 22.339844-2.039062 7.742187-3.0625 15.894531-2.910156 24.308593.328125 18.078125 6.140625 34.875 15.824219 48.800781 19.175781 6.894532 37.839844 10.375 51.394531 12.128907-11.828125-15.71875-19.28125-37.214844-19.605468-60.929688zm0 0" fill="#face7a"/><path d="m244.828125 356.410156c-5.316406-.089844-130.578125-3.191406-162.769531-92.316406-22.914063-63.453125-7.9375-115.390625 3.03125-140.703125 4.753906-10.96875 13.453125-19.691406 24.496094-24.558594 80.578124-35.511719 190.246093-35.554687 270.925781 0 11.042969 4.863281 19.746093 13.585938 24.5 24.558594 10.96875 25.3125 25.945312 77.25 3.027343 140.703125-32.191406 89.125-157.449218 92.226562-162.765624 92.316406-.203126 0-.246094 0-.445313 0zm-124.480469-233.152344c-4.871094 2.144532-8.695312 5.964844-10.769531 10.746094-9.394531 21.683594-22.199219 66.234375-2.414063 121.023438 25.4375 70.421875 132.164063 74.523437 137.875 74.6875 5.53125-.167969 112.519532-4.433594 137.898438-74.6875 19.785156-54.785156 6.976562-99.339844-2.417969-121.023438-2.074219-4.785156-5.898437-8.601562-10.769531-10.746094-73.765625-32.507812-175.578125-32.53125-249.402344 0zm0 0" fill="#e0f9fe"/><path d="m107.164062 255.027344c-19.785156-54.789063-6.980468-99.339844 2.414063-121.023438 2.074219-4.78125 5.898437-8.601562 10.769531-10.746094 33.328125-14.6875 72.363282-22.714843 111.945313-24.136718-.378907-.902344-.882813-1.757813-1.503907-2.53125-7.21875-8.984375-4.917968-16.363282-2.324218-20.515625.691406-1.109375 1.152344-2.320313 1.398437-3.566407-42.445312 1.6875-84.265625 10.453126-120.277343 26.324219-11.042969 4.867188-19.742188 13.589844-24.496094 24.558594-10.96875 25.3125-25.945313 77.25-3.03125 140.703125 21.894531 60.621094 86.839844 81.4375 127.820312 88.585938-.023437-1.140626-.289062-2.28125-.8125-3.332032-5.347656-10.808594.460938-18.035156 3.996094-21.15625.613281-.542968 1.128906-1.175781 1.539062-1.871094-35.148437-6.152343-90.125-23.355468-107.4375-71.292968zm0 0" fill="#b9e9fd"/><path d="m47.648438 149.828125c-4.46875 17.03125-6.859376 34.957031-6.859376 53.457031 0 15.542969 1.691407 30.667969 4.882813 45.207032 2.027344 9.230468 13.304687 12.875 20.265625 6.488281 13.820312-12.671875 25.851562-33.308594 25.851562-56.632813 0-21.835937-11-41.324218-23.644531-54.117187-6.621093-6.707031-18.105469-3.519531-20.496093 5.597656zm0 0" fill="#5294e5"/><path d="m443.597656 148.476562c-2.425781-8.992187-13.609375-12.171874-20.332031-5.730468-13.304687 12.75-24.957031 32.910156-24.957031 55.601562 0 24.222656 12.75 45.558594 27.285156 58.074219 7.0625 6.074219 18 2.441406 20.054688-6.644531 3.378906-14.929688 5.171874-30.492188 5.171874-46.492188 0-18.992187-2.519531-37.371094-7.222656-54.808594zm0 0" fill="#61b6ff"/><g fill="#fbb362"><path d="m245.804688 313.546875c-21.441407 0-41.234376-5.15625-54.308594-14.140625-3.414063-2.347656-4.277344-7.015625-1.933594-10.429688 2.347656-3.414062 7.015625-4.277343 10.429688-1.929687 10.480468 7.199219 27.605468 11.5 45.8125 11.5 18.207031 0 35.335937-4.300781 45.8125-11.5 3.414062-2.347656 8.082031-1.484375 10.429687 1.929687 2.34375 3.414063 1.480469 8.082032-1.933594 10.429688-13.074219 8.984375-32.867187 14.140625-54.308593 14.140625zm0 0"/><path d="m239.152344 260.101562c0 4.238282-3.4375 7.675782-7.679688 7.675782-4.238281 0-7.675781-3.4375-7.675781-7.675782 0-4.242187 3.4375-7.679687 7.675781-7.679687 4.242188 0 7.679688 3.4375 7.679688 7.679687zm0 0"/><path d="m267.816406 260.101562c0 4.238282-3.4375 7.675782-7.679687 7.675782-4.238281 0-7.675781-3.4375-7.675781-7.675782 0-4.242187 3.4375-7.679687 7.675781-7.679687 4.242187 0 7.679687 3.4375 7.679687 7.679687zm0 0"/></g><path d="m64.820312 199.417969c-9.503906 0-17.972656-4.417969-23.472656-11.3125-.359375 5.015625-.558594 10.074219-.558594 15.179687 0 15.539063 1.691407 30.667969 4.882813 45.207032 2.027344 9.230468 13.304687 12.875 20.269531 6.488281 13.816406-12.671875 25.847656-33.3125 25.847656-56.632813 0-4.542968-.480468-8.984375-1.351562-13.285156-5.277344 8.613281-14.777344 14.355469-25.617188 14.355469zm0 0" fill="#4374d3"/><path d="m426.789062 199.417969c-11.652343 0-21.75-6.640625-26.730468-16.339844-1.121094 4.914063-1.75 10.023437-1.75 15.269531 0 24.226563 12.75 45.558594 27.285156 58.074219 7.0625 6.078125 18 2.441406 20.054688-6.644531 3.378906-14.929688 5.171874-30.492188 5.171874-46.492188 0-5.109375-.1875-10.175781-.546874-15.191406-5.503907 6.898438-13.972657 11.324219-23.484376 11.324219zm0 0" fill="#5294e5"/><path d="m219.886719 222.617188c0-12.832032-9.773438-23.230469-21.832031-23.230469-12.058594 0-21.832032 10.398437-21.832032 23.230469 0 12.828124 9.773438 23.230468 21.832032 23.230468 12.058593 0 21.832031-10.402344 21.832031-23.230468zm0 0" fill="#e0f9fe"/><path d="m206.804688 243.898438c-1.460938 0-1.949219-.675782-2.070313-1.355469-.171875-.953125-.628906-1.832031-1.40625-2.414063-8.734375-6.554687-8.460937-15.765625-7.789063-19.925781.210938-1.292969-.257812-2.605469-1.261718-3.449219-7.664063-6.425781-2.265625-16.457031-2.265625-16.457031-9.117188 2.789063-15.789063 11.722656-15.789063 22.320313 0 12.828124 9.773438 23.230468 21.832032 23.230468 3.113281 0 6.070312-.699218 8.75-1.949218zm0 0" fill="#b9e9fd"/><path d="m210.722656 230.511719c0 6.996093-5.671875 12.667969-12.667968 12.667969-6.996094 0-12.667969-5.671876-12.667969-12.667969 0-6.996094 5.671875-12.664063 12.667969-12.664063 6.996093 0 12.667968 5.667969 12.667968 12.664063zm0 0" fill="#3957c9"/><path d="m204.382812 241.472656c-.242187-.519531-.582031-.988281-1.054687-1.34375-8.734375-6.554687-8.460937-15.765625-7.789063-19.925781.113282-.703125.023438-1.410156-.242187-2.046875-5.667969 1.261719-9.90625 6.308594-9.90625 12.355469 0 6.996093 5.667969 12.667969 12.664063 12.667969 2.308593 0 4.464843-.625 6.328124-1.707032zm0 0" fill="#4347b0"/><path d="m315.386719 222.617188c0-12.832032-9.773438-23.230469-21.832031-23.230469-12.058594 0-21.832032 10.398437-21.832032 23.230469 0 12.828124 9.773438 23.230468 21.832032 23.230468 12.058593 0 21.832031-10.402344 21.832031-23.230468zm0 0" fill="#e0f9fe"/><path d="m302.304688 243.898438c-1.460938 0-1.949219-.675782-2.070313-1.355469-.171875-.953125-.628906-1.832031-1.40625-2.414063-8.738281-6.554687-8.460937-15.765625-7.789063-19.925781.210938-1.292969-.261718-2.605469-1.261718-3.449219-7.664063-6.425781-2.265625-16.457031-2.265625-16.457031-9.117188 2.789063-15.789063 11.722656-15.789063 22.320313 0 12.828124 9.773438 23.230468 21.832032 23.230468 3.113281 0 6.070312-.699218 8.75-1.949218zm0 0" fill="#b9e9fd"/><path d="m306.222656 230.511719c0 6.996093-5.671875 12.667969-12.667968 12.667969-6.996094 0-12.667969-5.671876-12.667969-12.667969 0-6.996094 5.671875-12.664063 12.667969-12.664063 6.996093 0 12.667968 5.667969 12.667968 12.664063zm0 0" fill="#3957c9"/><path d="m299.882812 241.472656c-.242187-.519531-.582031-.988281-1.054687-1.34375-8.734375-6.554687-8.460937-15.765625-7.789063-19.925781.117188-.703125.023438-1.410156-.242187-2.046875-5.667969 1.261719-9.90625 6.308594-9.90625 12.355469 0 6.996093 5.667969 12.667969 12.664063 12.667969 2.308593 0 4.464843-.625 6.328124-1.707032zm0 0" fill="#4347b0"/></svg>