<svg height="512pt" viewBox="0 0 512 512" width="512pt" xmlns="http://www.w3.org/2000/svg"><path d="m512 256c0 87.988281-44.398438 165.621094-112.019531 211.699219-40.652344 27.699219-89.699219 44-142.53125 44.289062-.480469.011719-.96875.011719-1.449219.011719-53.269531 0-102.730469-16.269531-143.699219-44.109375-67.78125-46.0625-112.300781-123.78125-112.300781-211.890625 0-141.378906 114.621094-256 256-256s256 114.621094 256 256zm0 0" fill="#b5e237"/><path d="m512 256c0 26.050781-3.890625 51.191406-11.128906 74.871094-32.011719 104.847656-129.542969 181.128906-244.871094 181.128906-104.558594 0-194.488281-62.699219-234.230469-152.550781-14-31.628907-21.769531-66.628907-21.769531-103.449219 0-46.21875 12.25-89.570312 33.679688-127 44.121093 77.070312 127.160156 129 222.320312 129s178.210938-51.929688 222.320312-129c21.429688 37.429688 33.679688 80.78125 33.679688 127zm0 0" fill="#95d600"/><path d="m30.742188 377.703125c7.15625 13.21875 15.429687 25.738281 24.71875 37.425781 46.898437 59.019532 119.300781 96.871094 200.539062 96.871094s153.640625-37.851562 200.539062-96.871094c9.289063-11.6875 17.5625-24.207031 24.71875-37.425781zm0 0" fill="#85af12"/><path d="m399.980469 467.699219c-40.652344 27.699219-89.699219 44-142.53125 44.289062-.480469.011719-.96875.011719-1.449219.011719-53.269531 0-102.730469-16.269531-143.699219-44.109375 9.96875-29.011719 28.460938-54.050781 52.5-72.128906 4.210938-3.171875 8.589844-6.132813 13.121094-8.851563.929687-.558594 1.859375-1.109375 2.796875-1.640625.882812-.507812 1.761719-1 2.652344-1.480469.148437-.089843.308594-.167968.457031-.25.761719-.417968 1.53125-.828124 2.3125-1.230468.167969-.089844.339844-.179688.519531-.269532.699219-.359374 1.410156-.71875 2.128906-1.070312 1.230469-.609375 2.472657-1.199219 3.722657-1.777344.699219-.332031 1.398437-.640625 2.109375-.953125.007812-.007812.019531-.019531.039062-.019531.429688-.1875.859375-.378906 1.289063-.558594.851562-.371094 1.699219-.730468 2.5625-1.082031.917969-.378906 1.839843-.738281 2.757812-1.097656.019531-.011719.03125-.019531.050781-.019531.199219-.082032.390626-.160157.589844-.230469.519532-.199219 1.039063-.390625 1.558594-.582031.589844-.21875 1.191406-.4375 1.792969-.648438.726562-.261719 1.457031-.519531 2.199219-.761719.46875-.160156.9375-.316406 1.417968-.46875.570313-.191406 1.140625-.371093 1.710938-.550781.082031-.027344.148437-.058594.230468-.078125.5-.152344 1-.3125 1.507813-.460937.320313-.101563.640625-.191407.960937-.28125.550782-.160157 1.109376-.320313 1.660157-.476563h.011719c.507812-.152344 1.019531-.292969 1.527343-.421875.453125-.128906.910157-.25 1.371094-.371094 1.628906-.417968 3.28125-.820312 4.941406-1.179687.730469-.167969 1.449219-.328125 2.179688-.480469.640625-.140625 1.289062-.269531 1.929687-.390625 1.148438-.226563 2.300782-.4375 3.460938-.636719.71875-.121094 1.4375-.230468 2.160156-.351562.910156-.140625 1.820312-.269532 2.730469-.398438 6.839843-.941406 13.816406-1.429687 20.910156-1.429687h.019531.089844c.390625 0 .789062 0 1.167969.007812 1.761719.011719 3.519531.058594 5.269531.128907.640625.03125 1.269531.0625 1.910156.089843.132813.011719.261719.023438.390625.023438.382813.023437.761719.058593 1.140625.085937 1.214844.078125 2.425782.167969 3.628906.273438.25.019531.5.039062.75.070312.722657.070313 1.429688.136719 2.140626.207032.140624.023437.289062.042968.429687.0625.859375.089843 1.71875.199218 2.570313.308593.859374.109375 1.710937.21875 2.558593.351563h.011719c.28125.039062.558594.078125.828125.117187.320313.050781.640625.101563.960937.152344.039063 0 .082032.007813.109376.019531.632812.101563 1.261718.199219 1.890624.308594.050782 0 .089844.011719.140626.019531.332031.0625.648437.113281.980468.183594.261719.039063.511719.089844.761719.128906.179687.039063.367187.070313.546875.109375.0625 0 .109375.011719.171875.03125.390625.070313.769531.136719 1.160156.21875h.007813c.761718.148438 1.511718.300782 2.261718.460938.371094.089844.738282.167968 1.109376.25.199218.027344.378906.078125.582031.117187 1.148437.273438 2.308593.542969 3.457031.832031.691406.167969 1.382812.339844 2.070312.519532.53125.148437 1.0625.289062 1.582032.441406.1875.046875.367187.097656.550781.160156.429687.109375.847656.230469 1.269531.347656.609375.179688 1.207032.351563 1.796875.539063.941407.292969 1.882813.582031 2.820313.890625.261718.082031.511718.160156.761718.25h.007813c1.191406.390625 2.371094.800781 3.542969 1.222656 1.058594.378906 2.117187.777344 3.179687 1.179688.121094.050781.25.097656.371094.148437.007813.011719.007813 0 .007813 0 .800781.308594 1.589843.621094 2.378906.949219.351562.132812.691406.28125 1.03125.421875.179687.070313.351562.148437.519531.230469.511719.207031 1.019531.417968 1.519531.640625.261719.109375.519532.21875.769532.328125.082031.03125.152343.070312.230468.109375.132813.050781.261719.109375.382813.171875.816406.359375 1.617187.730468 2.429687 1.109375.320313.140625.628906.289062.949219.441406.4375.199219.871094.40625 1.300781.628906.257813.121094.507813.238281.769532.371094.417968.207031.839843.417969 1.257812.628906.050781.019531.089844.050781.140625.078125.160156.070313.320313.152344.480469.242188.660156.339844 1.332031.679687 1.980468 1.027344.480469.25.949219.5 1.417969.761718.132813.070313.261719.140625.390625.21875.710938.390625 1.410156.78125 2.121094 1.171875.699219.390625 1.390625.800781 2.070312 1.210938.308594.167969.609376.347656.910157.527343.007812.011719.007812.011719.019531.011719.058594.039063.121094.070313.179688.109375.320312.191406.640624.390625.960937.601563.679687.410156 1.359375.839843 2.039063 1.269531.628906.390625 1.25.796875 1.871093 1.199219 3.410157 2.230469 6.710938 4.589843 9.917969 7.070312 23.160156 17.929688 41.011719 42.398438 50.761719 70.648438zm0 0" fill="#e4ebf8"/><path d="m399.980469 467.699219c-40.652344 27.699219-89.699219 44-142.53125 44.289062v-146.71875c1.761719.011719 3.519531.058594 5.269531.128907 2.550781.113281 5.089844.292968 7.609375.523437.070313.007813.140625.007813.210937.019531 2.582032.238282 5.152344.546875 7.699219.917969h.011719c.601562.089844 1.191406.179687 1.789062.28125.601563.078125 1.199219.179687 1.800782.289063.109375.011718.230468.03125.339844.058593.582031.089844 1.160156.203125 1.742187.3125.566406.097657 1.148437.210938 1.71875.320313.050781.007812.109375.019531.167969.039062.632812.121094 1.25.25 1.882812.378906.128906.03125.25.0625.378906.082032.46875.097656.941407.199218 1.398438.308594.089844.019531.191406.039062.292969.058593h.007812c.421875.101563.839844.203125 1.261719.300781.730469.171876 1.457031.351563 2.1875.53125.53125.128907 1.0625.257813 1.589844.398438.160156.042969.320312.082031.480468.121094.710938.191406 1.421876.378906 2.132813.582031.417969.117187.847656.238281 1.269531.367187.609375.179688 1.207032.351563 1.796875.539063.941407.292969 1.882813.582031 2.820313.890625.261718.082031.511718.160156.761718.242188v.007812h.007813c.59375.203125 1.183594.402344 1.773437.601562.589844.199219 1.179688.410157 1.769532.621094 1.058594.378906 2.117187.777344 3.179687 1.179688.109375.039062.210938.078125.320313.128906.019531 0 .039062.011719.058594.019531.410156.160157.808593.320313 1.21875.480469.390624.148438.773437.308594 1.160156.46875.351562.132812.691406.28125 1.03125.421875.179687.070313.351562.148437.519531.230469.039063.019531.089844.039062.128906.050781.472657.1875.933594.386719 1.390625.589844.339844.136719.671875.289062 1 .4375.941406.421875 1.882813.839843 2.8125 1.28125.308594.140625.628906.289062.9375.441406.441406.207031.882813.417969 1.3125.628906.730469.347657 1.449219.710938 2.167969 1.078125.820313.410156 1.652344.832032 2.460937 1.269532.609376.320312 1.210938.652343 1.808594.980468 1.410156.769532 2.8125 1.570313 4.191406 2.382813.378907.21875.75.4375 1.109376.667969.320312.191406.640624.378906.960937.582031.679687.410156 1.359375.839843 2.039063 1.269531.628906.390625 1.25.796875 1.871093 1.199219 3.410157 2.230469 6.710938 4.589843 9.917969 7.070312 23.160156 17.929688 41.011719 42.398438 50.761719 70.648438zm0 0" fill="#c7d9ff"/><path d="m335.304688 398.695312c0 43.273438-34.726563 78.4375-77.851563 79.121094-.425781.011719-.851563.011719-1.277344.011719-43.710937 0-79.132812-35.4375-79.132812-79.132813 0-4.007812.292969-7.933593.878906-11.78125 17.191406-10.335937 36.601563-17.378906 57.339844-20.226562 6.835937-.941406 13.820312-1.425781 20.910156-1.425781.414063 0 .855469 0 1.28125.011719 7.042969.046874 13.988281.59375 20.789063 1.59375h.011718c1.191406.171874 2.386719.367187 3.582032.5625.121093.023437.230468.035156.339843.058593 1.160157.195313 2.316407.414063 3.460938.636719.0625.011719.109375.023438.171875.035156 1.132812.21875 2.253906.464844 3.375.707032.195312.039062.378906.085937.574218.121093 1.15625.269531 2.3125.539063 3.460938.832031 1.230469.304688 2.449219.621094 3.652344.960938 1.222656.339844 2.425781.683594 3.621094 1.046875 2.402343.734375 4.777343 1.523437 7.128906 2.367187 1.058594.375 2.117187.777344 3.179687 1.179688 1.449219.5625 2.886719 1.132812 4.3125 1.742188.769531.316406 1.535157.648437 2.292969.976562 1.339844.597656 2.667969 1.207031 3.984375 1.828125 1.121094.523437 2.230469 1.070313 3.328125 1.632813.875.4375 1.742188.886718 2.605469 1.351562.476562.246094.949219.5 1.414062.753906.839844.464844 1.667969.929688 2.507813 1.390625 1.011718.574219 2 1.160157 2.988281 1.742188.058594.050781.132813.085937.195313.121093.582031 3.851563.875 7.773438.875 11.78125zm0 0" fill="#c7d9ff"/><path d="m335.304688 398.695312c0 43.273438-34.726563 78.4375-77.851563 79.121094v-112.542968c7.042969.046874 13.988281.597656 20.789063 1.59375h.011718c1.195313.171874 2.386719.367187 3.582032.5625.125.023437.230468.039062.34375.0625 1.15625.195312 2.3125.414062 3.460937.632812.058594.011719.109375.023438.167969.035156 1.132812.222656 2.253906.464844 3.375.707032.195312.039062.378906.085937.574218.125 1.15625.265624 2.316407.535156 3.460938.828124 1.230469.304688 2.449219.621094 3.65625.960938 1.21875.34375 2.425781.683594 3.617188 1.050781 2.402343.730469 4.777343 1.511719 7.128906 2.363281 1.058594.378907 2.121094.78125 3.179687 1.183594 1.449219.558594 2.886719 1.132813 4.3125 1.738282.769531.320312 1.535157.648437 2.292969.976562 1.339844.597656 2.667969 1.207031 3.984375 1.828125 1.121094.523437 2.230469 1.070313 3.328125 1.632813.875.4375 1.742188.890624 2.605469 1.351562.476562.246094.953125.5 1.414062.757812.839844.460938 1.667969.925782 2.511719 1.386719 1.011719.574219 1.996094 1.160157 2.984375 1.742188.0625.050781.132813.085937.195313.121093.582031 3.851563.875 7.773438.875 11.78125zm0 0" fill="#65b2ff"/><path d="m367.335938 244.570312v61.246094c30.441406 0 55.121093-24.679687 55.121093-55.125v-72.410156l-35.882812 27.394531c-12.125 9.257813-19.238281 23.640625-19.238281 38.894531zm0 0" fill="#ed771b"/><path d="m143.074219 244.570312v61.246094c-30.445313 0-55.125-24.679687-55.125-55.125v-72.410156l35.886719 27.394531c12.125 9.257813 19.238281 23.640625 19.238281 38.894531zm0 0" fill="#ffa87a"/><path d="m214.960938 289.34375v110.113281c0 22.765625 18.453124 41.230469 41.230468 41.230469 22.765625 0 41.230469-18.464844 41.230469-41.230469v-110.113281zm0 0" fill="#7a2d1a"/><path d="m214.960938 289.34375v110.113281c0 22.765625 18.453124 41.230469 41.230468 41.230469v-151.34375zm0 0" fill="#a63914"/><path d="m374.589844 248.417969v22.285156c0 38.324219-18.230469 72.382813-46.472656 93.996094-19.925782 15.257812-44.816407 24.3125-71.820313 24.3125 0 0 0 0-.011719 0-1.339844 0-2.671875-.023438-4-.074219-.59375-.011719-1.203125-.035156-1.8125-.074219-.160156 0-.320312-.011719-.476562-.023437-.804688-.035156-1.621094-.082032-2.425782-.144532-.230468-.011718-.472656-.039062-.707031-.050781-.558593-.046875-1.121093-.097656-1.679687-.15625-.464844-.039062-.941406-.085937-1.402344-.132812-1.011719-.113281-2.035156-.21875-3.046875-.355469-.78125-.109375-1.558594-.21875-2.351563-.339844-.171874-.023437-.355468-.050781-.535156-.085937-.730468-.109375-1.460937-.230469-2.195312-.363281-.179688-.027344-.375-.0625-.570313-.101563-.621093-.109375-1.257812-.230469-1.878906-.351563-.484375-.097656-.984375-.195312-1.472656-.304687-2.460938-.523437-4.898438-1.121094-7.308594-1.792969-.5-.132812-.988281-.277344-1.476563-.425781-.339843-.097656-.683593-.195313-1.023437-.304687-.644531-.195313-1.292969-.390626-1.9375-.609376-.695313-.21875-1.390625-.449218-2.085937-.695312-1.570313-.535156-3.140626-1.109375-4.6875-1.71875-.527344-.191406-1.050782-.414062-1.574219-.632812-.597657-.230469-1.195313-.472657-1.777344-.730469-.539063-.230469-1.074219-.460938-1.609375-.707031-.535156-.230469-1.070312-.472657-1.609375-.730469-.925781-.425781-1.839844-.863281-2.753906-1.316407-.828125-.402343-1.644531-.828124-2.460938-1.265624-.511719-.257813-1.023437-.523438-1.523437-.804688-.632813-.328125-1.242188-.683594-1.863282-1.035156-.484374-.269532-.960937-.546875-1.4375-.828125-.597656-.34375-1.195312-.695313-1.777343-1.0625-.769531-.460938-1.535157-.949219-2.292969-1.4375-.792969-.5-1.570312-1.011719-2.351562-1.535157-.65625-.449218-1.316407-.902343-1.960938-1.363281-.402344-.28125-.792969-.5625-1.195312-.855469-1.046876-.742187-2.070313-1.507812-3.082032-2.3125-.5-.378906-.988281-.757812-1.460937-1.144531-.320313-.246093-.636719-.5-.941407-.757812-.753906-.621094-1.507812-1.253907-2.253906-1.902344 0 0-.011718.011719-.011718 0-.839844-.71875-1.667969-1.449219-2.484376-2.203125-.9375-.832031-1.851562-1.695312-2.753906-2.585938-.65625-.632812-1.304687-1.265624-1.9375-1.910156-.097656-.085937-.207031-.195312-.28125-.292968-.71875-.71875-1.414062-1.449219-2.09375-2.191407-.039062-.027343-.0625-.050781-.074218-.074219-.742188-.792968-1.472657-1.609374-2.195313-2.425781-1.472656-1.667969-2.886719-3.375-4.261719-5.128906-.671875-.855469-1.339844-1.71875-1.988281-2.597656-.085937-.109375-.171875-.21875-.242187-.339844-.5-.667969-.976563-1.339844-1.449219-2.023437-.269531-.363282-.527344-.730469-.769531-1.097657-.328126-.472656-.65625-.949219-.976563-1.4375-.242187-.351562-.472656-.707031-.695313-1.058593-.414062-.632813-.828124-1.265626-1.21875-1.914063-.15625-.242187-.316406-.472656-.449218-.71875-.523438-.851563-1.035156-1.707031-1.535156-2.570313-.074219-.109374-.132813-.21875-.195313-.328124-.949219-1.644532-1.851563-3.328126-2.730469-5.03125-.367187-.695313-.71875-1.402344-1.046875-2.109376-.207031-.414062-.414062-.828124-.609375-1.253906-1.792968-3.792968-3.386718-7.679687-4.765625-11.675781-.132812-.375-.265625-.753906-.386719-1.144531-.195312-.570313-.390624-1.144532-.574218-1.71875-.160156-.5-.316406-1.007813-.464844-1.519532-.167969-.550781-.339844-1.097656-.484375-1.648437-.160156-.535156-.304687-1.070313-.453125-1.605469-.011719-.027344-.023438-.050781-.023438-.085937-.292968-1.085938-.574218-2.183594-.839843-3.277344-.136719-.5625-.269531-1.109375-.390625-1.671875-.132813-.558594-.257813-1.132812-.367188-1.691406-.085937-.355469-.15625-.71875-.230468-1.085938-.15625-.765625-.304688-1.535156-.4375-2.3125 0-.039062-.011719-.0625-.011719-.101562-.171875-.914063-.320313-1.828125-.464844-2.753906-.132813-.875-.253906-1.753907-.378906-2.640626-.046875-.367187-.097657-.734374-.132813-1.097656-.085937-.683594-.15625-1.367187-.230468-2.046875-.035157-.378906-.085938-.757812-.109376-1.132812-.085937-.832031-.160156-1.671875-.21875-2.5-.0625-.886719-.125-1.777344-.160156-2.679688-.046875-.976562-.097656-1.976562-.121094-2.960937v-.257813c-.023437-.949219-.035156-1.898437-.035156-2.851562v-22.308594c0-6.726563.558594-13.320313 1.65625-19.71875 7.738282-46.082031 42.085938-83.113281 86.707032-94.75 9.53125-2.5 19.558593-3.824219 29.917968-3.824219h.011719c10.320313 0 20.359375 1.324219 29.914063 3.8125 44.621093 11.648438 78.996093 48.679688 86.710937 94.761719 1.105469 6.394531 1.667969 12.988281 1.667969 19.714844zm0 0" fill="#ed771b"/><path d="m256.285156 130.121094v258.890625c-1.339844 0-2.671875-.027344-4-.074219-.59375-.011719-1.203125-.039062-1.8125-.074219-.160156 0-.320312-.011719-.476562-.023437-.804688-.035156-1.621094-.085938-2.425782-.144532-.230468-.011718-.472656-.039062-.707031-.050781-.558593-.046875-1.121093-.097656-1.679687-.15625-.464844-.039062-.941406-.085937-1.402344-.136719-1.011719-.109374-2.035156-.21875-3.046875-.351562-.78125-.109375-1.558594-.21875-2.351563-.339844-.171874-.023437-.355468-.050781-.535156-.085937-.730468-.109375-1.460937-.230469-2.195312-.367188-.179688-.023437-.375-.058593-.570313-.097656-.621093-.109375-1.257812-.230469-1.878906-.351563-.484375-.097656-.984375-.195312-1.472656-.304687-2.460938-.523437-4.898438-1.121094-7.308594-1.792969-.5-.132812-.988281-.277344-1.476563-.425781-.339843-.097656-.683593-.195313-1.023437-.304687-.644531-.195313-1.292969-.390626-1.9375-.609376-.695313-.21875-1.390625-.453124-2.085937-.695312-1.570313-.535156-3.140626-1.109375-4.6875-1.71875-.527344-.195312-1.050782-.414062-1.574219-.632812-.597657-.230469-1.195313-.472657-1.777344-.730469-.539063-.230469-1.074219-.464844-1.609375-.707031-.535156-.230469-1.070312-.476563-1.609375-.730469-.925781-.425781-1.839844-.867188-2.753906-1.316407-.828125-.402343-1.644531-.828124-2.460938-1.265624-.511719-.257813-1.023437-.527344-1.523437-.804688-.632813-.328125-1.242188-.683594-1.863282-1.035156-.484374-.269532-.960937-.550782-1.4375-.832032-.597656-.339843-1.195312-.695312-1.777343-1.058593-.769531-.464844-1.535157-.949219-2.292969-1.4375-.792969-.5-1.570312-1.011719-2.351562-1.535157-.65625-.453124-1.316407-.902343-1.960938-1.367187-.402344-.277344-.792969-.558594-1.195312-.851563-1.046876-.742187-2.070313-1.511718-3.082032-2.316406-.5-.375-.988281-.753906-1.460937-1.144531-.320313-.242187-.636719-.5-.941407-.753906-.753906-.621094-1.507812-1.253907-2.253906-1.902344 0 0-.011718.011719-.011718 0-.839844-.71875-1.667969-1.449219-2.484376-2.207031-.9375-.828125-1.851562-1.691406-2.753906-2.582032-.65625-.621093-1.304687-1.253906-1.9375-1.914062-.097656-.082031-.207031-.191406-.28125-.289062-.71875-.71875-1.414062-1.453126-2.09375-2.195313-.039062-.023437-.0625-.046875-.074218-.070313-.742188-.792968-1.472657-1.609374-2.195313-2.425781-1.472656-1.667969-2.898437-3.375-4.261719-5.128906-.671875-.855469-1.339844-1.71875-1.988281-2.597656-.085937-.109375-.171875-.21875-.242187-.339844-.5-.671875-.976563-1.339844-1.449219-2.023437-.269531-.367188-.527344-.730469-.769531-1.097657-.328126-.472656-.65625-.949219-.976563-1.4375-.242187-.351562-.472656-.707031-.695313-1.058593-.414062-.636719-.828124-1.269532-1.21875-1.914063-.15625-.242187-.316406-.476563-.449218-.71875-.523438-.851563-1.035156-1.707031-1.535156-2.570313-.074219-.109374-.132813-.21875-.195313-.328124-.949219-1.660157-1.863281-3.328126-2.730469-5.035157-.367187-.695312-.71875-1.398437-1.046875-2.105469-.207031-.414062-.414062-.832031-.609375-1.257812-1.792968-3.789062-3.386718-7.675781-4.765625-11.671875-.132812-.378906-.265625-.753906-.386719-1.144531-.195312-.574219-.390624-1.144532-.574218-1.71875-.160156-.5-.316406-1.011719-.464844-1.523438-.167969-.546875-.339844-1.097656-.484375-1.644531-.160156-.535156-.304687-1.070313-.453125-1.609375-.011719-.023438-.023438-.046875-.023438-.085938-.304687-1.082031-.585937-2.179687-.839843-3.277343-.136719-.558594-.269531-1.109375-.390625-1.667969-.132813-.558594-.257813-1.132812-.367188-1.695312-.085937-.351563-.15625-.71875-.230468-1.082032-.15625-.769531-.304688-1.535156-.4375-2.316406 0-.035156-.011719-.058594-.011719-.097656-.171875-.914063-.320313-1.828125-.464844-2.753906-.132813-.875-.253906-1.753907-.378906-2.644532-.046875-.363281-.097657-.730468-.132813-1.097656-.085937-.679688-.15625-1.363281-.230468-2.046875-.035157-.375-.085938-.753906-.109376-1.132813-.085937-.828124-.160156-1.667968-.21875-2.496093-.0625-.890625-.125-1.78125-.160156-2.679688-.046875-.976562-.097656-1.976562-.121094-2.960937v-.257813c-.023437-.949219-.035156-1.902343-.035156-2.851562v-22.308594c0-6.726563.558594-13.320313 1.65625-19.71875 7.738282-46.082031 42.085938-83.113281 86.707032-94.75 9.53125-2.503906 19.558593-3.832031 29.917968-3.832031zm0 0" fill="#ffa87a"/><path d="m374.589844 101.707031v168.996094c0 38.324219-18.230469 72.382813-46.472656 93.996094v-140.617188l-70.40625 31.804688-1.414063-.609375-.085937-.039063-.035157.039063-.101562-.097656-71.625-31.097657v140.605469c-28.230469-21.628906-46.449219-55.675781-46.449219-93.984375v-168.996094l51.445312 36.019531 66.730469-66.726562.121094.121094 66.699219 66.714844zm0 0" fill="#a63914"/><g fill="#323b5a"><path d="m307.96875 259.042969c0 8.042969-6.519531 14.5625-14.5625 14.5625s-14.5625-6.519531-14.5625-14.5625 6.519531-14.5625 14.5625-14.5625 14.5625 6.519531 14.5625 14.5625zm0 0"/><path d="m233.753906 259.042969c0 8.042969-6.519531 14.5625-14.5625 14.5625-8.042968 0-14.5625-6.519531-14.5625-14.5625s6.519532-14.5625 14.5625-14.5625c8.042969 0 14.5625 6.519531 14.5625 14.5625zm0 0"/><path d="m221.464844 315.175781c-10.292969 0-15.773438 12.351563-8.695313 19.820313 4.4375 4.683594 9.621094 8.652344 15.359375 11.707031 8.390625 4.496094 17.980469 7.035156 28.171875 7.035156 10.1875 0 19.777344-2.539062 28.171875-7.035156 5.738282-3.054687 10.921875-7.023437 15.355469-11.707031 7.082031-7.472656 1.601563-19.820313-8.691406-19.820313zm0 0"/></g><path d="m284.46875 346.699219c-8.390625 4.5-17.976562 7.042969-28.167969 7.042969-.011719 0-.011719 0-.027343 0-10.175782 0-19.773438-2.542969-28.152344-7.042969 7.015625-7.582031 17.023437-12.335938 28.152344-12.347657h.027343c11.132813 0 21.167969 4.765626 28.167969 12.347657zm0 0" fill="#ff3445"/><path d="m284.46875 346.699219c-8.390625 4.5-17.976562 7.042969-28.167969 7.042969-.011719 0-.011719 0-.027343 0v-19.390626h.027343c11.132813 0 21.167969 4.765626 28.167969 12.347657zm0 0" fill="#dd1265"/><path d="m232.414062 328.339844 7.597657-13.164063h-15.199219zm0 0" fill="#e4ebf8"/><path d="m280.152344 328.339844 7.601562-13.164063h-15.203125zm0 0" fill="#e4ebf8"/><path d="m261.511719 297.886719 6.050781-4.867188c2.144531-1.722656.925781-5.191406-1.828125-5.191406h-18.902344c-2.753906 0-3.976562 3.46875-1.828125 5.191406l6.046875 4.867188c3.054688 2.457031 7.410157 2.457031 10.460938 0zm0 0" fill="#7a2d1a"/><path d="m374.589844 101.707031v168.996094c0 38.324219-18.230469 72.382813-46.472656 93.996094v-140.617188l-70.40625 31.804688-1.414063-.609375v-184.15625l66.699219 66.714844zm0 0" fill="#7a2d1a"/></svg>