<svg height="512pt" viewBox="0 0 512 512" width="512pt" xmlns="http://www.w3.org/2000/svg"><path d="m512 256c0 92.011719-48.550781 172.691406-121.421875 217.800781-38.796875 24.027344-84.5 37.980469-133.4375 38.1875-.378906.011719-.761719.011719-1.140625.011719-49.371094 0-95.480469-13.980469-134.578125-38.191406-72.871094-45.117188-121.421875-125.796875-121.421875-217.808594 0-141.378906 114.621094-256 256-256s256 114.621094 256 256zm0 0" fill="#ffe955"/><path d="m512 256c0 26.050781-3.890625 51.191406-11.128906 74.871094-32.011719 104.847656-129.542969 181.128906-244.871094 181.128906-104.558594 0-194.488281-62.699219-234.230469-152.550781-14-31.628907-21.769531-66.628907-21.769531-103.449219 0-46.21875 12.25-89.570312 33.679688-127 44.121093 77.070312 127.160156 129 222.320312 129s178.210938-51.929688 222.320312-129c21.429688 37.429688 33.679688 80.78125 33.679688 127zm0 0" fill="#ffd112"/><path d="m30.742188 377.703125c7.15625 13.21875 15.429687 25.738281 24.71875 37.425781 46.898437 59.019532 119.300781 96.871094 200.539062 96.871094s153.640625-37.851562 200.539062-96.871094c9.289063-11.6875 17.5625-24.207031 24.71875-37.425781zm0 0" fill="#ff9f00"/><path d="m399.9375 288.191406-142.800781 159.964844-1.136719 1.277344-143.9375-161.242188 143.9375 24.144532 1.136719-.195313zm0 0" fill="#dd1265"/><path d="m399.9375 288.191406-142.800781 159.964844v-136.015625zm0 0" fill="#ba0d5c"/><path d="m344.699219 239.273438v48.917968c24.316406 0 44.027343-19.710937 44.027343-44.027344v-57.835937l-28.660156 21.882813c-9.683594 7.390624-15.367187 18.878906-15.367187 31.0625zm0 0" fill="#65b2ff"/><path d="m165.578125 239.273438v48.917968c-24.316406 0-44.027344-19.710937-44.027344-44.027344v-57.835937l28.660157 21.882813c9.6875 7.390624 15.367187 18.878906 15.367187 31.0625zm0 0" fill="#fff"/><path d="m219.394531 307.105469v97.796875c0 20.21875 16.390625 36.617187 36.621094 36.617187 20.21875 0 36.617187-16.398437 36.617187-36.617187v-97.796875zm0 0" fill="#65b2ff"/><path d="m219.394531 307.105469v97.796875c0 20.21875 16.390625 36.617187 36.621094 36.617187v-134.414062zm0 0" fill="#c7d9ff"/><path d="m161.53125 224.53125v35.621094c0 52.160156 42.285156 94.476562 94.464844 94.484375h.019531c52.160156 0 94.472656-42.3125 94.472656-94.484375v-35.621094c0-5.367188-.4375-10.628906-1.324219-15.746094-6.160156-36.804687-33.625-66.386718-69.261718-75.691406-7.625-1.980469-15.644532-3.035156-23.886719-3.035156-.007813 0-.007813 0-.019531 0-8.261719 0-16.269532 1.054687-23.894532 3.050781-35.640624 9.289063-63.074218 38.871094-69.246093 75.675781-.875 5.113282-1.324219 10.378906-1.324219 15.746094zm0 0" fill="#c7d9ff"/><path d="m161.53125 224.53125v35.621094c0 52.160156 42.285156 94.476562 94.464844 94.484375v-224.578125c-8.261719 0-16.269532 1.054687-23.894532 3.050781-35.640624 9.289063-63.074218 38.871094-69.246093 75.675781-.875 5.113282-1.324219 10.378906-1.324219 15.746094zm0 0" fill="#e4ebf8"/><g fill="#323b5a"><path d="m297.28125 248.308594c0 6.425781-5.207031 11.632812-11.628906 11.632812-6.425782 0-11.632813-5.207031-11.632813-11.632812 0-6.421875 5.207031-11.632813 11.632813-11.632813 6.421875 0 11.628906 5.210938 11.628906 11.632813zm0 0"/><path d="m238.007812 248.308594c0 6.425781-5.207031 11.632812-11.632812 11.632812s-11.632812-5.207031-11.632812-11.632812c0-6.421875 5.207031-11.632813 11.632812-11.632813s11.632812 5.210938 11.632812 11.632813zm0 0"/><path d="m228.191406 295.667969c-8.222656 0-12.597656 9.863281-6.945312 15.832031 3.542968 3.742188 7.683594 6.910156 12.265625 9.351562 6.703125 3.589844 14.363281 5.617188 22.5 5.617188 8.140625 0 15.800781-2.027344 22.503906-5.617188 4.582031-2.441406 8.722656-5.609374 12.265625-9.351562 5.652344-5.96875 1.277344-15.832031-6.945312-15.832031zm0 0"/><path d="m141.265625 215.804688c0 5.515624 4.144531 10.175781 9.625 10.820312 4.75.558594 9.585937.839844 14.476563.839844 35.84375 0 68.132812-15.308594 90.628906-39.785156 22.515625 24.476562 54.792968 39.785156 90.640625 39.785156 4.832031 0 9.601562-.273438 14.296875-.820313 2.800781-.320312 5.246094-1.679687 7.011718-3.652343 1.753907-1.976563 2.820313-4.5625 2.820313-7.390626 0-42.746093-23.078125-82.648437-60.957031-102.449218-7.664063-3.992188-15.820313-7.175782-24.363282-9.40625-9.390624-2.4375-19.273437-3.734375-29.429687-3.734375-.007813 0-.007813 0-.019531 0-10.175782 0-20.050782 1.296875-29.433594 3.761719-4.878906 1.269531-9.632812 2.855468-14.242188 4.714843-21.683593 8.78125-39.449218 23.914063-51.789062 42.703125-12.339844 18.773438-19.265625 41.222656-19.265625 64.613282zm0 0"/></g><path d="m141.265625 215.804688c0 5.515624 4.144531 10.175781 9.625 10.820312 4.75.558594 9.585937.839844 14.476563.839844 35.84375 0 68.132812-15.308594 90.628906-39.785156v-87.667969c-10.175782 0-20.050782 1.296875-29.429688 3.761719-4.882812 1.269531-9.632812 2.855468-14.246094 4.714843-21.683593 8.78125-39.449218 23.914063-51.789062 42.703125-12.339844 18.773438-19.265625 41.222656-19.265625 64.613282zm0 0" fill="#474f6f"/><path d="m256.011719 281.425781c-4.5625 0-8.261719-3.699219-8.261719-8.261719v-35.164062c0-4.5625 3.699219-8.261719 8.261719-8.261719 4.566406 0 8.265625 3.699219 8.265625 8.261719v35.164062c0 4.5625-3.699219 8.261719-8.265625 8.261719zm0 0" fill="#65b2ff"/><path d="m278.511719 320.847656c-6.703125 3.59375-14.355469 5.625-22.496094 5.625-.011719 0-.011719 0-.019531 0-8.132813 0-15.796875-2.03125-22.488282-5.625 5.601563-6.058594 13.597657-9.855468 22.488282-9.863281h.019531c8.890625 0 16.90625 3.804687 22.496094 9.863281zm0 0" fill="#ff3445"/><path d="m278.511719 320.847656c-6.703125 3.59375-14.355469 5.625-22.496094 5.625-.011719 0-.011719 0-.019531 0v-15.488281h.019531c8.890625 0 16.90625 3.804687 22.496094 9.863281zm0 0" fill="#dd1265"/><path d="m236.933594 306.179688 6.070312-10.511719h-12.140625zm0 0" fill="#e4ebf8"/><path d="m275.066406 306.179688 6.070313-10.511719h-12.140625zm0 0" fill="#e4ebf8"/><path d="m390.578125 473.800781c-38.796875 24.027344-84.5 37.980469-133.4375 38.1875-.378906.011719-.761719.011719-1.140625.011719-49.371094 0-95.480469-13.980469-134.578125-38.191406 3.429687-39.269532 23.636719-73.707032 53.417969-96.109375 3.421875-2.578125 6.980468-5 10.648437-7.25 5.03125-3.078125 10.28125-5.839844 15.722657-8.257813 6.699218 1.480469 11.519531 2.539063 18.1875 4.007813.042968 0 .070312.011719.113281.019531l36.488281 40.882812.011719-.011718 1.128906-1.269532 35.347656-39.601562c.050781-.007812.089844-.019531.140625-.027344 6.699219-1.453125 11.511719-2.5 18.230469-3.960937 1.609375.710937 3.199219 1.460937 4.769531 2.230469.699219.339843 1.410156.699218 2.101563 1.070312 3 1.539062 5.917969 3.179688 8.769531 4.929688.179688.109374.351562.21875.53125.328124.46875.289063.9375.582032 1.410156.882813.160156.097656.308594.199219.457032.296875.511718.332031 1.03125.660156 1.542968 1 .558594.371094 1.109375.75 1.667969 1.132812 1.480469 1 2.941406 2.039063 4.359375 3.117188.730469.53125 1.460938 1.082031 2.171875 1.632812 28.960937 22.417969 48.558594 56.359376 51.9375 94.949219zm0 0" fill="#474f6f"/><path d="m390.578125 473.800781c-38.796875 24.027344-84.5 37.980469-133.4375 38.1875v-106.167969l35.347656-39.601562c.050781-.007812.089844-.019531.140625-.027344 6.699219-1.453125 11.511719-2.5 18.230469-3.960937 1.609375.710937 3.199219 1.460937 4.769531 2.230469.699219.339843 1.410156.699218 2.101563 1.070312 3 1.539062 5.917969 3.179688 8.769531 4.929688.179688.109374.351562.21875.53125.328124.46875.289063.9375.582032 1.410156.882813.160156.097656.308594.199219.457032.296875.511718.332031 1.03125.660156 1.542968 1 .558594.371094 1.109375.75 1.667969 1.132812 1.480469 1 2.941406 2.039063 4.359375 3.117188.730469.53125 1.460938 1.082031 2.171875 1.632812 28.960937 22.417969 48.558594 56.359376 51.9375 94.949219zm0 0" fill="#323b5a"/></svg>