<svg height="512pt" viewBox="0 0 512 512" width="512pt" xmlns="http://www.w3.org/2000/svg"><path d="m512 256c0 85.011719-41.441406 160.339844-105.21875 206.898438-11.652344 8.511718-24.050781 16.050781-37.082031 22.523437-12.449219 6.1875-25.480469 11.386719-38.980469 15.5-20.1875 6.15625-41.449219 9.878906-63.417969 10.828125-3.75.171875-7.511719.25-11.300781.25s-7.550781-.078125-11.300781-.25c-21.839844-.941406-42.960938-4.628906-63.039063-10.71875-13.441406-4.0625-26.398437-9.210938-38.800781-15.332031-13.050781-6.4375-25.46875-13.949219-37.140625-22.429688-64.058594-46.539062-105.71875-122.039062-105.71875-207.269531 0-141.378906 114.621094-256 256-256s256 114.621094 256 256zm0 0" fill="#b5e237"/><path d="m512 256c0 26.050781-3.890625 51.191406-11.128906 74.871094-32.011719 104.847656-129.542969 181.128906-244.871094 181.128906-104.558594 0-194.488281-62.699219-234.230469-152.550781-14-31.628907-21.769531-66.628907-21.769531-103.449219 0-46.21875 12.25-89.570312 33.679688-127 44.121093 77.070312 127.160156 129 222.320312 129s178.210938-51.929688 222.320312-129c21.429688 37.429688 33.679688 80.78125 33.679688 127zm0 0" fill="#95d600"/><path d="m30.742188 377.703125c7.15625 13.21875 15.429687 25.738281 24.71875 37.425781 46.898437 59.019532 119.300781 96.871094 200.539062 96.871094s153.640625-37.851562 200.539062-96.871094c9.289063-11.6875 17.5625-24.207031 24.71875-37.425781zm0 0" fill="#85af12"/><path d="m256 122c-83.269531 0-150.78125 67.5-150.78125 150.78125l.5 190.488281c11.671875 8.480469 24.089844 15.992188 37.140625 22.429688 12.402344 6.121093 25.359375 11.269531 38.800781 15.332031 20.078125 6.089844 41.199219 9.777344 63.039063 10.71875 3.75.171875 7.511719.25 11.300781.25s7.550781-.078125 11.300781-.25c21.96875-.949219 43.230469-4.671875 63.417969-10.828125 13.5-4.113281 26.53125-9.3125 38.980469-15.5 13.03125-6.472656 25.429687-14.011719 37.082031-22.523437v-190.117188c0-83.28125-67.511719-150.78125-150.78125-150.78125zm0 0" fill="#747e9e"/><path d="m256 122v390c3.789062 0 7.550781-.078125 11.300781-.25 21.96875-.949219 43.230469-4.671875 63.417969-10.828125 13.5-4.113281 26.53125-9.3125 38.980469-15.5 13.03125-6.472656 25.429687-14.011719 37.082031-22.523437v-190.117188c0-83.28125-67.511719-150.78125-150.78125-150.78125zm0 0" fill="#474f6f"/><path d="m256 162.660156c-62.789062 0-113.699219 50.910156-113.699219 113.699219l.558594 209.339844c12.402344 6.121093 25.359375 11.269531 38.800781 15.332031 20.078125 6.089844 41.199219 9.777344 63.039063 10.71875 3.75.171875 7.511719.25 11.300781.25s7.550781-.078125 11.300781-.25c21.96875-.949219 43.230469-4.671875 63.417969-10.828125 13.5-4.113281 26.53125-9.3125 38.980469-15.5v-209.0625c0-62.789063-50.910157-113.699219-113.699219-113.699219zm0 0" fill="#474f6f"/><path d="m256 162.660156v349.339844c3.789062 0 7.550781-.078125 11.300781-.25 21.96875-.949219 43.230469-4.671875 63.417969-10.828125 13.5-4.113281 26.53125-9.3125 38.980469-15.5v-209.0625c0-62.789063-50.910157-113.699219-113.699219-113.699219zm0 0" fill="#323b5a"/><path d="m330.71875 272.511719v228.410156c-20.1875 6.15625-41.449219 9.878906-63.417969 10.828125h-22.601562c-21.839844-.941406-42.960938-4.628906-63.039063-10.71875l-.378906-228.519531c0-40.25 33.449219-72.882813 74.71875-72.882813s74.71875 32.632813 74.71875 72.882813zm0 0" fill="#747e9e"/><path d="m330.71875 272.511719v228.410156c-20.1875 6.15625-41.449219 9.878906-63.417969 10.828125h-11.300781v-312.121094c41.269531 0 74.71875 32.632813 74.71875 72.882813zm0 0" fill="#474f6f"/><path d="m298.777344 269.871094v28.519531h-28.519532v57.035156h-28.515624v-57.035156h-28.519532v-28.519531h28.519532v-28.519532h28.515624v28.519532zm0 0" fill="#474f6f"/><path d="m298.777344 269.871094v28.519531h-28.519532v57.035156h-14.257812v-114.074219h14.257812v28.519532zm0 0" fill="#323b5a"/></svg>