<svg height="512pt" viewBox="-7 0 512 512.00004" width="512pt" xmlns="http://www.w3.org/2000/svg"><path d="m498.964844 269.035156c0 134.1875-108.78125 242.964844-242.964844 242.964844s-242.964844-108.777344-242.964844-242.964844c0-134.183594 108.78125-242.960937 242.964844-242.960937s242.964844 108.777343 242.964844 242.960937zm0 0" fill="#ffcb37"/><path d="m55.839844 191.773438-53.484375-2.9375c-2.550781-.140626-3.296875 3.421874-.902344 4.3125l54.519531 20.320312zm0 0" fill="#ff941f"/><path d="m295.71875 508.75c-7.507812-8.132812-17.179688-20.394531-24.789062-33.691406-13.097657-1.289063-23.378907-3.6875-28.675782-5.113282-1.382812-.371093-2.492187 1.15625-1.722656 2.363282l4.066406 6.378906c.703125 1.101562-.203125 2.492188-1.429687 2.417969-9.171875-.738281-19.363281-3.960938-31.550781-12.660157l.753906 1.824219c5.636718 10.945313 15.796875 27.40625 28.382812 41.242188 5.042969.308593 10.125.488281 15.246094.488281 13.527344 0 26.792969-1.125 39.71875-3.25zm0 0" fill="#f44040"/><path d="m243.167969 481.105469c-.257813-.019531-.519531-.050781-.78125-.074219 7.347656 4.722656 16.742187 13.726562 24.222656 30.734375 9.867187-.429687 19.582031-1.449219 29.109375-3.015625-7.507812-8.132812-17.179688-20.394531-24.789062-33.691406-13.097657-1.289063-23.378907-3.683594-28.675782-5.109375-1.382812-.375-2.492187 1.152343-1.722656 2.359375l4.066406 6.378906c.703125 1.101562-.203125 2.492188-1.429687 2.417969zm0 0" fill="#e53535"/><path d="m456.789062 405.863281c-33.246093-4.535156-61.144531-15.484375-78.09375-32.433593-51.695312-51.695313-113.777343-69.835938-113.777343-69.835938-56.023438-12.207031-89.476563-45.550781-96.292969-53.816406-.726562-.875-.261719-2.199219.847656-2.449219l14.234375-3.203125c1.40625-.316406 1.625-2.214844.332031-2.851562-24.867187-12.238282-43.613281-33.269532-48.3125-38.839844-.605468-.714844-.390624-1.785156.417969-2.253906 20.273438-11.792969 24.785157-35.460938 25.648438-48.867188.109375-1.707031-2.226563-2.273438-2.917969-.710938-4.949219 11.207032-17.425781 28.039063-46.832031 22.300782-42.972657-8.382813-56.605469 18.855468-56.617188 18.871094v21.492187s25.121094 31.523437 32.867188 61.148437c.308593 1.179688 1.8125 1.527344 2.617187.613282l4.746094-5.375c.625-.710938 1.738281-.683594 2.328125.054687 5.007813 6.238281 25.117187 32.667969 34.289063 65.527344.253906.910156 1.253906 1.378906 2.109374.976563l10.351563-4.871094c.75-.355469 1.664063-.054688 2.015625.699218 3.316406 7.117188 2.417969 20.699219 15.488281 65.28125 10.617188 36.207032 47.738281 83.789063 82.464844 85.824219 1.242187.074219 2.042969-1.304687 1.375-2.351562l-3.953125-6.203125c-.75-1.171875.328125-2.65625 1.675781-2.292969 3.863281 1.039063 10.449219 2.609375 18.875 3.855469 5.632813.835937 10.617188 4.035156 13.679688 8.832031 5 7.828125 11.21875 16.316406 18.300781 23.941406 20.976562-3.355469 41.058594-9.390625 59.878906-17.753906-4.050781-7.195313-8.347656-16.40625-11.082031-26.800781-.570313-2.160156 1.328125-4.183594 3.527344-3.769532 10.859375 2.0625 23.660156 6.539063 35.023437 15.917969.070313.054688.136719.109375.207032.164063 29.617187-18.039063 55.0625-42.242188 74.578124-70.820313zm0 0" fill="#ff5252"/><path d="m142.53125 321.175781c0-27.148437 22.007812-49.160156 49.160156-49.160156.707032 0 1.410156.023437 2.113282.054687-13.574219-9.707031-22.101563-18.558593-25.179688-22.289062-.726562-.878906-.261719-2.203125.847656-2.453125l14.234375-3.203125c1.40625-.316406 1.621094-2.214844.332031-2.851562-24.867187-12.238282-43.613281-33.269532-48.3125-38.839844-.605468-.714844-.390624-1.78125.417969-2.253906 20.273438-11.792969 24.785157-35.457032 25.648438-48.867188.109375-1.707031-2.226563-2.273438-2.917969-.710938-4.949219 11.207032-17.429688 28.039063-46.832031 22.300782-42.972657-8.382813-56.609375 18.855468-56.617188 18.871094v21.496093s25.121094 31.519531 32.867188 61.144531c.308593 1.179688 1.808593 1.527344 2.617187.613282l4.742188-5.375c.628906-.710938 1.738281-.683594 2.332031.054687 5.007813 6.238281 25.117187 32.671875 34.289063 65.527344.253906.910156 1.253906 1.378906 2.105468.976563l9.320313-4.386719c-.757813-3.429688-1.167969-6.988281-1.167969-10.648438zm0 0" fill="#f44040"/><path d="m455.007812.0273438c-283.695312 60.6992182-239.015624 145.0351562-224.050781 174.2695312 15.296875 29.882813 10.800781 63.792969-21.777343 114.363281-3.632813 5.640625-6.308594 10.964844-8.195313 15.96875-12.242187 32.484375 16.667969 66.238282 50.613281 58.96875 9.6875-2.074218 15.972656-7.074218 7.707032-18.296875-.394532-.53125-.777344-1.066406-1.144532-1.601562-11.875-17.277344-11.628906-40.136719-.222656-57.722657 43.4375-66.957031 23.339844-94.464843 4.179688-155.554687-16.421876-52.355469 138.644531-109.773437 193.484374-128.289063 1.304688-.441406.753907-2.394531-.59375-2.1054682zm0 0" fill="#f44040"/><g fill="#e53535"><path d="m262.117188 130.421875c.429687 1.378906.863281 2.734375 1.296874 4.078125l200.09375-77.714844c3.128907-1.21875 2.140626-5.886718-1.214843-5.714844-27.035157 1.371094-84.609375 6.230469-164.65625 23.417969-25.425781 17.960938-41.375 37.269531-35.519531 55.933594zm0 0"/><path d="m319.007812 318.882812c-8.679687-3.28125-24.039062-8.089843-45.097656-10.898437l-24.550781 7.566406c.089844 8.53125 2.253906 17.011719 6.605469 24.628907l62.699218-15.664063c2.8125-.703125 3.054688-4.609375.34375-5.632813zm0 0"/><path d="m339.726562 282.082031c-9.195312-3.042969-25.835937-7.59375-48.710937-10.066406l-30.109375 9.28125c.046875-.078125.09375-.152344.140625-.230469-1 1.613282-2.027344 3.246094-3.105469 4.910156-5.820312 8.96875-8.714844 19.308594-8.597656 29.582032l90.320312-27.839844c2.753907-.851562 2.800782-4.734375.0625-5.636719zm0 0"/><path d="m365.113281 243.574219c-10.660156-3.589844-31.414062-9.34375-60.460937-11.832031l-23.964844 6.453124c.050781-.195312.09375-.386718.140625-.582031-3.324219 12.914063-9.601563 27.070313-19.921875 43.683594l104.121094-32.097656c2.742187-.84375 2.804687-4.710938.085937-5.625zm0 0"/><path d="m386.027344 204.144531c-11.734375-3.253906-33.671875-8.261719-64.160156-10.707031l-38.542969 10.746094c-.019531-.179688-.046875-.359375-.0625-.539063 1.21875 11.070313.667969 22.242188-2.574219 34.550781l105.304688-28.347656c2.90625-.78125 2.9375-4.902344.035156-5.703125zm0 0"/><path d="m421.761719 159.796875c-16.105469-3.359375-47.210938-8.570313-90.75-10.207031l-57.242188 15.714844c-.03125-.085938-.0625-.179688-.09375-.269532 4.640625 13.9375 8.316407 26.46875 9.648438 39.148438l138.472656-38.605469c3.101563-.695313 3.078125-5.132813-.035156-5.78125zm0 0"/><path d="m458.550781 108.597656c-23.542969-1.324218-70.738281-2.460937-136.730469 3.214844l-58.40625 22.6875c3.617188 11.238281 7.210938 21.347656 10.355469 30.804688l185.390625-50.898438c3.230469-.886719 2.738282-5.617188-.609375-5.808594zm0 0"/></g><path d="m99.527344 190.03125c-.03125-.007812-.066406-.015625-.097656-.023438l-10.953126-2.503906c-4.824218-1.097656-9.628906 1.910156-10.730468 6.734375-.367188 1.609375-.277344 3.214844.183594 4.683594 1.242187 3.949219 5.277343 6.277344 9.40625 5.933594 5.757812-.484375 10.289062-2.382813 13.671874-4.515625 4.183594-2.640625 3.332032-9.148438-1.480468-10.308594zm0 0" fill="#603256"/><path d="m89.429688 198.921875c-.464844-1.46875-.550782-3.074219-.1875-4.683594.5625-2.441406 2.074218-4.417969 4.054687-5.632812l-4.820313-1.101563c-4.824218-1.097656-9.628906 1.910156-10.734374 6.734375-.367188 1.609375-.277344 3.214844.1875 4.683594 1.242187 3.949219 5.277343 6.277344 9.402343 5.933594 2.226563-.1875 4.261719-.589844 6.125-1.128907-1.871093-1.023437-3.359375-2.675781-4.027343-4.804687zm0 0" fill="#4f2649"/><path d="m142.707031 146.605469c2.757813-13.792969-2.429687-25.746094-5.253906-30.949219-.457031-.839844-1.578125-.589844-1.574219.347656.164063 21.089844-8.578125 38.535156-18.199218 51.324219-.898438 1.195313.351562 2.789063 1.738281 2.230469 11.03125-4.476563 20.792969-10.480469 23.289062-22.953125zm0 0" fill="#f44040"/><path d="m258.160156 343.699219c-11.875-17.277344-11.628906-40.136719-.222656-57.722657 16.914062-26.074218 24.195312-46.164062 25.648438-64.585937-4.507813 7.859375-12.972657 13.160156-22.679688 13.160156-9.617188 0-18.015625-5.199219-22.550781-12.9375-2.9375 19.039063-12.265625 40.792969-29.175781 67.046875-3.632813 5.640625-6.3125 10.964844-8.195313 15.96875-12.242187 32.484375 16.667969 66.238282 50.609375 58.96875 9.691406-2.074218 15.976562-7.074218 7.707031-18.296875-.390625-.53125-.773437-1.066406-1.140625-1.601562zm0 0" fill="#e53535"/><path d="m313.222656 86.308594c0-6.785156 3.195313-12.808594 8.148438-16.691406-7.675782 1.503906-15.582032 3.121093-23.734375 4.871093-25.425781 17.960938-41.375 37.269531-35.523438 55.933594.433594 1.378906.867188 2.730469 1.296875 4.078125l69.644532-27.050781c-11.066407-.714844-19.832032-9.890625-19.832032-21.140625zm0 0" fill="#d62b2b"/><path d="m313.222656 128.734375c0-6.851563 3.261719-12.925781 8.304688-16.804687l-58.113282 22.570312c3.613282 11.238281 7.210938 21.347656 10.355469 30.804688l57.117188-15.679688c-10.023438-1.691406-17.664063-10.390625-17.664063-20.890625zm0 0" fill="#d62b2b"/><path d="m315.597656 169.957031c0-9.382812 6.097656-17.328125 14.542969-20.128906l-56.371094 15.480469c-.03125-.089844-.0625-.183594-.09375-.273438 4.640625 13.9375 8.316407 26.472656 9.648438 39.152344l48.703125-13.582031c-9.40625-2.171875-16.429688-10.582031-16.429688-20.648438zm0 0" fill="#d62b2b"/><path d="m322.878906 226.835938c-5.300781-3.105469-8.867187-8.84375-8.867187-15.429688 0-8.515625 5.953125-15.628906 13.917969-17.4375-1.980469-.1875-4-.363281-6.0625-.53125l-38.542969 10.746094c-.019531-.179688-.042969-.359375-.0625-.539063 1.21875 11.070313.667969 22.242188-2.574219 34.550781zm0 0" fill="#d62b2b"/><path d="m297.703125 249.640625c0-8.300781 5.660156-15.257813 13.320313-17.285156-2.078126-.21875-4.199219-.425781-6.371094-.613281l-23.964844 6.453124c.050781-.195312.09375-.386718.140625-.582031-3.324219 12.914063-9.601563 27.070313-19.921875 43.683594l48.40625-14.921875c-6.777344-2.546875-11.609375-9.070312-11.609375-16.734375zm0 0" fill="#d62b2b"/><path d="m283.585938 289.910156c0-8.214844 5.539062-15.117187 13.078124-17.222656-1.84375-.234375-3.714843-.464844-5.648437-.671875l-30.109375 9.28125.140625-.234375c-1 1.617188-2.027344 3.25-3.109375 4.914062-5.816406 8.96875-8.714844 19.308594-8.597656 29.578126l40.160156-12.378907c-3.625-3.273437-5.914062-7.996093-5.914062-13.265625zm0 0" fill="#d62b2b"/><path d="m270.25 320.242188c0-4.675782 1.808594-8.917969 4.746094-12.105469-.367188-.050781-.71875-.105469-1.085938-.152344l-24.550781 7.566406c.089844 8.53125 2.25 17.015625 6.601563 24.628907l21.734374-5.429688c-4.503906-3.25-7.445312-8.527344-7.445312-14.507812zm0 0" fill="#d62b2b"/></svg>