<svg height="511pt" viewBox="-10 0 511 511.99833" width="511pt" xmlns="http://www.w3.org/2000/svg"><path d="m491.871094 276.597656c0 129.996094-105.386719 235.382813-235.382813 235.382813-129.996093 0-235.378906-105.386719-235.378906-235.382813s105.382813-235.378906 235.378906-235.378906c129.996094 0 235.382813 105.382812 235.382813 235.378906zm0 0" fill="#603256"/><path d="m235.007812 237.8125c-4.042968 3.410156-5.375 9.042969-3.316406 13.910156.980469 2.308594 2.050782 5.050782 3.097656 8.132813-1.351562 3.40625-2.152343 7.078125-2.300781 10.898437-1.078125 27.75-10.410156 67.351563-54.917969 67.148438-5.878906-.027344-10.921874-.519532-15.285156-1.398438 39.09375-18.933594 30.8125-58.226562 20.109375-83.566406-5.867187-13.890625-1.632812-29.972656 10.351563-39.121094 38.460937-29.355468 116.035156-94.285156 93.945312-209.539062-.746094-3.878906 4.429688-5.941406 6.535156-2.601563 22.542969 35.765625 64.304688 132.839844-58.21875 236.136719zm0 0" fill="#73ccf9"/><path d="m209.835938 291.035156c-7.617188 0-14.449219-3.351562-19.117188-8.652344 2.515625 20.335938-2.675781 41.648438-28.433594 54.121094 4.363282.878906 9.40625 1.375 15.285156 1.398438 40.714844.1875 51.992188-32.933594 54.445313-59.824219-4.375 7.734375-12.664063 12.957031-22.179687 12.957031zm0 0" fill="#5bbbf4"/><path d="m258.472656 239.734375c-11 2.382813-19.722656 10.101563-23.6875 20.128906-.839844-2.472656-1.855468-5.214843-3.09375-8.140625-2.121094-5.015625-.597656-10.609375 3.316406-13.910156 27.824219-23.457031 47.15625-46.59375 60.183594-68.765625 35.664063-47.070313 46.175782-100.800781 48.183594-130.914063.246094-3.742187 5.546875-4.261718 6.519531-.644531 24.726563 92.398438-3.171875 150.941407-37.277343 186.394531-20.496094 8.117188-39.683594 12.71875-54.144532 15.851563zm0 0" fill="#73ccf9"/><path d="m312.597656 223.890625c9.15625-9.515625 17.867188-20.691406 25.234375-33.746094 16.347657-21.636719 32.195313-48.519531 45.285157-81.714843 1.6875-4.289063 8.007812-3.457032 8.523437 1.121093 1.652344 14.652344 2.6875 37.378907-1.738281 62.253907-23.242188 25.835937-51.324219 41.796874-77.304688 52.085937zm0 0" fill="#73ccf9"/><path d="m297.4375 229.378906c-14.679688 4.84375-28.144531 8.011719-38.964844 10.355469-11 2.382813-19.726562 10.101563-23.6875 20.128906-.839844-2.472656-1.855468-5.214843-3.09375-8.140625-2.121094-5.015625-.597656-10.609375 3.316406-13.910156 27.824219-23.457031 47.15625-46.59375 60.183594-68.765625 0 0 8.925782 28.253906 2.246094 60.332031zm0 0" fill="#5bbbf4"/><path d="m272.113281 309.386719c.136719-.792969 2.257813-9.210938 2.707031-21.003907.210938-5.484374 3.996094-9.9375 8.980469-11.277343 35.445313-9.5 62.996094-22.34375 84.382813-37.007813 52.703125-27.695312 85.304687-72.242187 100.03125-98.875 1.828125-3.304687 6.890625-1.515625 6.226562 2.203125-33.996094 189.976563-202.328125 165.960938-202.328125 165.960938zm0 0" fill="#73ccf9"/><path d="m272.113281 309.386719s67.746094 9.660156 125.960938-31.773438c24.1875-12.75 50.160156-30.503906 76.320312-55.207031 3.378907-3.1875 8.789063.277344 7.300781 4.675781-14.945312 44.15625-69.246093 158.132813-222.007812 111.511719 6.511719-9.207031 10.277344-19.664062 12.425781-29.207031zm0 0" fill="#95d6fc"/><path d="m435.421875 363.691406c-109.1875 62.9375-192.859375-8.933594-192.859375-8.933594 7.179688-4.382812 12.765625-9.996093 17.128906-16.167968l-.003906.003906c48.734375 14.871094 87.433594 13.386719 118.042969 3.050781l.027343.003907 55.859376 11.121093c5.34375 1.0625 6.527343 8.199219 1.804687 10.921875zm0 0" fill="#73ccf9"/><path d="m242.5625 354.757812s50.105469 43.019532 123.359375 33.328126l26.671875 18.1875c4.007812 2.734374 3.199219 8.855468-1.382812 10.460937-28.566407 10.023437-108.082032 29.628906-153.992188-41.449219-3.972656-7.050781-1.566406-16.308594 5.34375-20.527344zm0 0" fill="#95d6fc"/><path d="m339.875 304.179688c-.003906 0-.007812.003906-.007812.003906-37.472657 9.519531-67.753907 5.203125-67.753907 5.203125.136719-.792969 2.257813-9.214844 2.707031-21.003907.207032-5.488281 3.996094-9.941406 8.980469-11.277343 35.445313-9.503907 62.996094-22.347657 84.382813-37.007813 0 0 8.453125 41.816406-28.308594 64.082032zm0 0" fill="#5bbbf4"/><path d="m272.113281 309.386719s47.976563 6.839843 97.875-15.6875c-2.367187 10.632812-11.09375 38.597656-39.589843 55.859375-20.832032.351562-44.296876-2.902344-70.710938-10.964844 6.511719-9.207031 10.277344-19.664062 12.425781-29.207031zm0 0" fill="#73ccf9"/><path d="m259.691406 338.589844-.003906.003906zm0 0" fill="#5bbbf4"/><path d="m259.6875 338.59375c34.71875 10.597656 64.339844 12.882812 89.578125 9.589844 0 0-5.835937 26.320312-36.53125 38.226562-43.238281-8.527344-70.171875-31.652344-70.171875-31.652344 7.179688-4.382812 12.765625-9.992187 17.125-16.164062zm0 0" fill="#5bbbf4"/><path d="m242.5625 354.757812s31.148438 26.734376 80.226562 33.300782c0 0-21.910156 20.421875-58.382812 17.078125-9.804688-7.464844-19.027344-17.21875-27.1875-29.851563-3.972656-7.050781-1.566406-16.308594 5.34375-20.527344zm0 0" fill="#73ccf9"/><path d="m334.105469 431.910156c-59.851563-11.011718-84.871094-39.617187-94.882813-57.375-3.945312-6.992187-1.554687-16.171875 5.296875-20.359375 26.78125-16.355469 31.386719-49.84375 31.996094-65.832031.199219-5.28125 3.800781-9.816406 8.90625-11.183594 117.609375-31.53125 147.824219-100.070312 153.265625-149.582031-4.652344-5.683594-9.566406-11.136719-14.722656-16.355469-35.566406 93.855469-122.785156 116.765625-166.613282 126.265625-14.734374 3.195313-25.398437 15.957031-25.984374 31.019531-1.078126 27.75-10.410157 67.351563-54.917969 67.148438-64.253907-.289062-29.757813-55.933594-74.496094-71.355469-34.808594-11.996093-51.503906 10.265625-57.835937 22.664063-1.160157 2.265625-2.722657 4.261718-4.566407 5.945312 3.507813 6.71875 5.492188 14.351563 5.453125 22.460938-.03125 7.164062-1.640625 13.949218-4.472656 20.050781 6.84375 7.070313 11.730469 15.9375 14.023438 25.726563 9.046874 38.601562 24.523437 67.558593 43.203124 89.25 41.851563 38.242187 97.566407 61.582031 158.730469 61.582031 68.8125 0 130.722657-29.535157 173.761719-76.609375-29.792969 2.480468-63.566406 2.53125-96.144531-3.460938zm0 0" fill="#b4e4fc"/><path d="m334.105469 431.910156c-59.851563-11.011718-84.871094-39.617187-94.882813-57.375-3.945312-6.992187-1.554687-16.171875 5.296875-20.359375 26.78125-16.355469 31.386719-49.84375 31.996094-65.832031.199219-5.28125 3.800781-9.816406 8.90625-11.183594 9.433594-2.53125 18.296875-5.300781 26.636719-8.273437-11.789063-2.289063-20.695313-12.664063-20.695313-25.125 0-6.617188 2.511719-12.648438 6.632813-17.191407-15.328125 5.164063-29.414063 8.484376-40.644532 10.917969-14.734374 3.195313-25.398437 15.957031-25.984374 31.019531-1.078126 27.75-10.410157 67.351563-54.917969 67.148438-64.253907-.289062-29.761719-55.933594-74.496094-71.355469-34.808594-11.996093-51.507813 10.265625-57.839844 22.664063-1.15625 2.265625-2.71875 4.261718-4.5625 5.945312 3.507813 6.71875 5.492188 14.351563 5.453125 22.460938-.03125 7.164062-1.640625 13.949218-4.476562 20.050781 6.847656 7.070313 11.734375 15.9375 14.027344 25.726563 9.042968 38.601562 24.523437 67.558593 43.203124 89.25 41.851563 38.242187 97.566407 61.582031 158.730469 61.582031 68.8125 0 130.722657-29.535157 173.761719-76.609375-29.792969 2.480468-63.566406 2.53125-96.144531-3.460938zm0 0" fill="#95d6fc"/><path d="m2.300781 306.960938 29.558594-9.5625c3.226563-1.042969 6.109375-2.847657 8.453125-5.207032 3.738281 6.886719 5.851562 14.785156 5.8125 23.175782-.035156 7.476562-1.769531 14.546874-4.835938 20.847656-4.003906-4.304688-8.714843-7.984375-14.007812-10.828125l-25.410156-13.65625c-2.019532-1.085938-1.75-4.0625.429687-4.769531zm0 0" fill="#ffcb37"/><path d="m32.566406 318.636719c-.589844-.117188-1.179687-.226563-1.769531-.328125l-24.332031-4.105469 20.816406 11.183594c5.296875 2.84375 10.003906 6.523437 14.007812 10.828125 3.066407-6.300782 4.804688-13.371094 4.835938-20.847656.007812-1.480469-.074219-2.941407-.199219-4.386719-1.691406 5.234375-7.28125 8.894531-13.359375 7.65625zm0 0" fill="#ff941f"/><path d="m83.960938 307.398438c-6.207032 0-11.230469-5.046876-11.230469-11.230469 0-7.242188 6.664062-12.371094 13.421875-11.007813 5.273437 1.078125 9.042968 5.621094 9.042968 11.007813 0 6.121093-4.972656 11.230469-11.234374 11.230469zm0 0" fill="#603256"/><path d="m260.027344 399.507812c20.429687 51.042969-20.144532 106.195313-75.4375 101.277344 85.117187 27.28125 181.722656 4.519532 245.660156-65.414062-56.199219 4.683594-127.660156.824218-170.222656-35.863282zm0 0" fill="#73ccf9"/></svg>