<svg height="512pt" viewBox="0 -9 512.00007 512" width="512pt" xmlns="http://www.w3.org/2000/svg"><path d="m512 256c0 131.019531-106.214844 237.234375-237.234375 237.234375s-237.234375-106.214844-237.234375-237.234375 106.214844-237.234375 237.234375-237.234375 237.234375 106.214844 237.234375 237.234375zm0 0" fill="#ff5252"/><path d="m408.09375 319.199219-2.0625-.550781c-11.925781-3.195313-19.066406-15.570313-15.871094-27.496094l.367188-1.371094c-3.347656 12.492188-16.308594 19.976562-28.800782 16.628906-12.492187-3.347656-19.976562-16.308594-16.628906-28.800781-3.347656 12.492187-16.308594 19.972656-28.800781 16.625s-19.976563-16.304687-16.628906-28.800781c-3.347657 12.496094-16.304688 19.976562-28.800781 16.628906-12.492188-3.347656-19.972657-16.308594-16.625-28.800781l9.039062-33.738281-9.394531-2.515626c-6.902344-1.851562-14.261719-.652343-20.222657 3.285157-21.789062 14.398437-32.628906 40.605469-27.371093 66.1875 5.125 23.417969-3.101563-3.074219 29.734375 75.25 2.246094 5.171875 2.671875 10.949219 1.210937 16.394531l-28.355469 105.828125c20.917969 6.035156 43.019532 9.28125 65.882813 9.28125 32.886719 0 64.210937-6.699219 92.683594-18.792969l17.808593-66.457031c.988282-3.691406 2.808594-7.101563 5.324219-9.976563l24.484375-27.984374c2.515625-2.875 4.335938-6.289063 5.324219-9.980469l14.054687-52.453125-.375-.214844c-4.625 9.429688-15.46875 14.640625-25.976562 11.824219zm0 0" fill="#f7c696"/><path d="m184.683594 226.832031 284.867187 123.859375c15.367188 6.679688 33.242188-.359375 39.925781-15.730468 6.679688-15.367188-.359374-33.242188-15.730468-39.925782l-284.867188-123.859375zm0 0" fill="#7c5577"/><path d="m486.753906 324.09375-289.613281-125.921875-12.457031 28.660156 284.867187 123.859375c15.367188 6.679688 33.242188-.359375 39.925781-15.730468 1.550782-3.566407 2.351563-7.265626 2.492188-10.929688-7.746094 3.410156-16.839844 3.707031-25.214844.0625zm0 0" fill="#684261"/><path d="m227.421875 245.402344 24.199219-55.65625 217.535156 94.570312-24.195312 55.660156zm0 0" fill="#603256"/><path d="m227.421875 245.402344 12.460937-28.660156 217.539063 94.574218-12.460937 28.65625zm0 0" fill="#4f2649"/><path d="m488.605469 331.449219c-4.449219 3.261719-10.8125 2.359375-14.136719-2.179688-3.761719-5.128906-1.867188-12.507812 3.894531-15.144531 4.242188-2.035156 9.539063-.746094 12.417969 3.1875 3.261719 4.445312 2.402344 10.78125-2.175781 14.136719zm0 0" fill="#603256"/><path d="m209.949219 170.378906-25.121094 57.78125c-4.007813 9.21875-14.976563 13.339844-24.503906 9.199219-9.523438-4.144531-13.992188-14.972656-9.980469-24.195313l25.121094-57.78125c4.007812-9.222656 14.976562-13.339843 24.503906-9.199218 9.519531 4.140625 13.992188 14.972656 9.980469 24.195312zm0 0" fill="#603256"/><path d="m175.609375 202.203125c-7.734375-3.363281-12.402344-10.789063-12.453125-18.507813l-12.8125 29.46875c-4.011719 9.222657.457031 20.054688 9.980469 24.195313 9.523437 4.140625 20.496093.019531 24.503906-9.199219l12.8125-29.46875c-5.683594 5.222656-14.292969 6.875-22.03125 3.511719zm0 0" fill="#4f2649"/><path d="m124.910156 3.164062-46.417968 36.011719c-1.980469 1.539063-3.539063 3.546875-4.539063 5.839844l-73.054687 168.023437c-2.402344 5.523438.175781 11.964844 5.75 14.390626l105.8125 46.003906c5.578124 2.425781 12.042968-.085938 14.445312-5.609375l73.054688-168.023438c.996093-2.292969 1.402343-4.804687 1.175781-7.300781l-5.324219-58.507812c-.5-5.503907-3.992188-10.316407-9.101562-12.535157l-46.421876-20.1875c-5.109374-2.21875-11.011718-1.492187-15.378906 1.894531zm0 0" fill="#ebeaec"/><path d="m150.40625 188.082031-107.21875-46.621093c-4.207031-1.828126-6.726562-5.917969-6.734375-10.199219l-35.554687 81.777343c-2.402344 5.523438.175781 11.964844 5.75 14.390626l105.8125 46.003906c5.574218 2.425781 12.042968-.085938 14.441406-5.609375l35.558594-81.777344c-3.136719 2.917969-7.84375 3.863281-12.054688 2.035156zm0 0" fill="#dad9dd"/><path d="m37.535156 240.851562 103.9375-239.074218 44.046875 19.148437-103.9375 239.074219zm0 0" fill="#dad9dd"/><path d="m37.539062 240.847656 37.238282-85.660156 44.046875 19.148438-37.238281 85.660156zm0 0" fill="#bcbcc1"/><g fill="#fcd2a4"><path d="m407.339844 322.019531-2.0625-.554687c-11.925782-3.195313-19.070313-15.566406-15.875-27.492188l18.613281-69.460937c3.195313-11.925781 15.566406-19.070313 27.496094-15.875l2.058593.550781c11.925782 3.199219 19.070313 15.570312 15.875 27.496094l-18.613281 69.460937c-3.195312 11.925781-15.566406 19.070313-27.492187 15.875zm0 0"/><path d="m360.972656 309.226562c-12.492187-3.347656-19.976562-16.308593-16.628906-28.800781l22.3125-83.277343c3.347656-12.492188 16.308594-19.976563 28.800781-16.628907 12.496094 3.347657 19.976563 16.308594 16.628907 28.800781l-22.3125 83.28125c-3.347657 12.492188-16.308594 19.972657-28.800782 16.625zm0 0"/><path d="m315.542969 297.054688c-12.492188-3.347657-19.976563-16.308594-16.628907-28.800782l23.703126-88.460937c3.347656-12.492188 16.308593-19.976563 28.800781-16.628907 12.492187 3.347657 19.976562 16.308594 16.628906 28.800782l-23.703125 88.460937c-3.347656 12.492188-16.308594 19.976563-28.800781 16.628907zm0 0"/><path d="m303.074219 161.863281c-12.492188-3.347656-25.453125 4.136719-28.800781 16.628907l-20.789063 77.589843c-3.347656 12.492188 4.136719 25.453125 16.628906 28.800781 12.492188 3.347657 25.453125-4.136718 28.800781-16.628906l20.789063-77.589844c3.347656-12.492187-4.132813-25.453124-16.628906-28.800781zm0 0"/></g><path d="m237.84375 375.019531c11.371094 9.40625 32.179688 20.597657 55.414062 3.960938 15.449219-11.0625 11.347657-41.113281 11.347657-41.113281-7.542969-39.898438-25.085938-56.816407-33.867188-62.992188-.757812-.535156-.203125-1.71875.695313-1.476562l12.125 3.25c4.242187 1.136718 8.511718 1.398437 12.625.910156 9.214844-1.664063 17.109375-8.449219 19.695312-18.097656 2.390625-8.921876-.375-18.007813-6.460937-24.105469-3.199219-3.207031-7.117188-5.375-11.191407-6.46875l-44.339843-11.878907c-6.863281-1.839843-14.242188-.667968-20.222657 3.285157-21.792968 14.398437-32.628906 40.605469-27.371093 66.1875 5.125 23.417969-3.101563-3.074219 29.734375 75.25 1.824218 4.199219 2.425781 8.792969 1.816406 13.289062zm0 0" fill="#f7c696"/><path d="m280.738281 248.605469 21.613281 5.789062c5.691407 1.527344 11.570313-1.484375 13.785157-6.785156-1.035157-4.636719-3.367188-8.898437-6.71875-12.253906-3.195313-3.207031-7.117188-5.375-11.191407-6.46875l-22.664062-6.074219-3.078125 11.492188c-1.664063 6.203124 2.050781 12.636718 8.253906 14.300781zm0 0" fill="#eceeed"/><path d="m293.394531 366.382812c-3.195312-.867187-5.488281-3.847656-5.367187-7.296874 2.039062-57.34375-32.996094-82.039063-33.351563-82.28125-3.324219-2.28125-4.171875-6.820313-1.890625-10.144532 2.277344-3.328125 6.820313-4.175781 10.140625-1.894531 1.71875 1.179687 42.003907 29.5625 39.6875 94.835937-.167969 4.691407-4.667969 8.023438-9.21875 6.78125zm0 0" fill="#f2ba88"/><path d="m236.390625 381.304688-27.507813 102.652343c20.917969 6.035157 43.019532 9.277344 65.882813 9.277344 32.886719 0 64.210937-6.695313 92.683594-18.792969l16.367187-61.078125c-45.34375 48.304688-126.199218 30.9375-147.425781-32.058593zm0 0" fill="#f2ba88"/></svg>