<svg height="512pt" viewBox="-18 0 512 512.00075" width="512pt" xmlns="http://www.w3.org/2000/svg"><path d="m237.613281 36.777344c131.226563 0 237.609375 106.382812 237.609375 237.613281 0 54.269531-18.191406 104.292969-48.816406 144.296875-43.425781 56.726562-111.835938-70.355469-188.792969-70.355469s-145.367187 127.082031-188.792969 70.359375c-30.625-40.007812-48.820312-90.03125-48.820312-144.300781 0-131.230469 106.382812-237.613281 237.613281-237.613281zm0 0" fill="#5e73dd"/><path d="m426.390625 184.304688h-377.558594v234.375c10.171875 13.285156 21.707031 25.46875 34.410157 36.332031h308.742187c12.699219-10.863281 24.238281-23.046875 34.40625-36.332031zm0 0" fill="#ccccce"/><path d="m48.832031 184.304688h377.5625v38.320312h-377.5625zm0 0" fill="#bcbcc1"/><path d="m246.546875 2.464844c-5.5-3.285156-12.367187-3.285156-17.871094 0l-212.585937 127.035156h443.042968zm0 0" fill="#ebeaec"/><path d="m270.589844 55.269531c-1.011719-2.351562-1.578125-4.9375-1.578125-7.65625 0-10.707031 8.679687-19.386719 19.386719-19.386719.464843 0 .917968.035157 1.375.066407l-43.226563-25.828125c-5.5-3.285156-12.367187-3.285156-17.871094 0l-212.585937 127.035156h131.390625zm0 0" fill="#dad9dd"/><path d="m396.121094 129.5-155.925782-93.175781c-1.589843-.949219-3.574218-.949219-5.164062 0l-155.925781 93.175781zm0 0" fill="#dad9dd"/><path d="m270.742188 54.578125-30.546876-18.253906c-1.589843-.949219-3.574218-.949219-5.164062 0l-155.925781 93.175781h66.261719zm0 0" fill="#ccccce"/><g fill="#ebeaec"><path d="m253.496094 87.519531c0 8.769531-7.109375 15.882813-15.882813 15.882813-8.773437 0-15.886719-7.113282-15.886719-15.882813 0-8.773437 7.113282-15.886719 15.886719-15.886719 8.773438 0 15.882813 7.113282 15.882813 15.886719zm0 0"/><path d="m133.132812 184.304688h40.363282v270.707031h-40.363282zm0 0"/><path d="m48.832031 418.679688c10.171875 13.285156 21.707031 25.46875 34.410157 36.332031h5.953124v-270.707031h-40.363281zm0 0"/><path d="m426.390625 184.304688h-40.363281v270.707031h5.957031c12.699219-10.863281 24.238281-23.046875 34.40625-36.332031zm0 0"/><path d="m217.429688 184.304688h40.367187v270.707031h-40.367187zm0 0"/><path d="m301.730469 184.304688h40.363281v270.707031h-40.363281zm0 0"/></g><path d="m48.832031 184.304688h40.363281v38.320312h-40.363281zm0 0" fill="#dad9dd"/><path d="m133.132812 184.304688h40.363282v38.320312h-40.363282zm0 0" fill="#dad9dd"/><path d="m217.429688 184.304688h40.367187v38.320312h-40.367187zm0 0" fill="#dad9dd"/><path d="m301.730469 184.304688h40.363281v38.320312h-40.363281zm0 0" fill="#dad9dd"/><path d="m386.027344 184.304688h40.363281v38.320312h-40.363281zm0 0" fill="#dad9dd"/><path d="m16.089844 155.808594v16.625c0 10.175781 8.25 18.421875 18.421875 18.421875h406.199219c10.171874 0 18.421874-8.246094 18.421874-18.421875v-16.625zm0 0" fill="#dad9dd"/><path d="m155.074219 172.433594v-16.625h-138.984375v16.625c0 10.175781 8.246094 18.421875 18.421875 18.421875h138.984375c-10.175782 0-18.421875-8.246094-18.421875-18.421875zm0 0" fill="#ccccce"/><path d="m399.328125 448.457031h-323.429687c14.667968 13.632813 31.050781 25.445313 48.804687 35.050781h225.820313c17.753906-9.605468 34.136718-21.417968 48.804687-35.050781zm0 0" fill="#dad9dd"/><path d="m459.132812 159.085938h-443.042968c-8.769532 0-15.882813-7.113282-15.882813-15.886719 0-8.773438 7.113281-15.882813 15.882813-15.882813h443.042968c8.773438 0 15.886719 7.109375 15.886719 15.882813 0 8.773437-7.113281 15.886719-15.886719 15.886719zm0 0" fill="#ebeaec"/><path d="m154.277344 127.316406h-138.1875c-8.773438 0-15.882813 7.113282-15.882813 15.882813 0 8.773437 7.113281 15.886719 15.882813 15.886719h138.183594c-8.769532-.003907-15.882813-7.113282-15.882813-15.886719 0-8.773438 7.113281-15.882813 15.886719-15.882813zm0 0" fill="#dad9dd"/><path d="m173.496094 448.457031h-97.597656c14.667968 13.632813 31.050781 25.445313 48.804687 35.050781h48.125c-16.214844-6.355468-15.652344-29.367187.667969-35.050781zm0 0" fill="#ccccce"/><path d="m118.847656 480.230469c34.941406 20.203125 75.5 31.769531 118.765625 31.769531 43.261719 0 83.820313-11.566406 118.761719-31.769531zm0 0" fill="#ebeaec"/><path d="m167.484375 480.230469h-48.636719c12.414063 7.175781 25.539063 13.257812 39.242188 18.125-.839844-7.144531 2.339844-14.835938 9.394531-18.125zm0 0" fill="#dad9dd"/></svg>