<svg height="512pt" viewBox="0 0 512 512" width="512pt" xmlns="http://www.w3.org/2000/svg"><path d="m512 256c0 141.386719-114.613281 256-256 256s-256-114.613281-256-256 114.613281-256 256-256 256 114.613281 256 256zm0 0" fill="#ffcb37"/><path d="m430.019531 56.695312h-77.84375c-3.699219 2.757813-8.023437 4.585938-12.617187 5.28125-4.363282 8.167969-7.769532 16.695313-10.207032 25.433594h98.875c4.242188 0 7.503907 3.796875 6.828126 7.984375-6.488282 40.316407-29.785157 75.933594-63.136719 98.128907l29.863281 10.566406c1.53125.539062 3.007812 1.164062 4.441406 1.859375 31.371094-27.023438 53.238282-65.121094 59.535156-108.101563 3.179688-21.714844-13.792968-41.152344-35.738281-41.152344zm0 0" fill="#a0391e"/><path d="m433.394531 56.863281c-1.113281-.101562-2.234375-.167969-3.375-.167969h-77.84375c-3.699219 2.757813-8.023437 4.585938-12.617187 5.28125-4.363282 8.167969-7.769532 16.695313-10.207032 25.433594h96.039063c-12.226563-9.222656-7.054687-28.550781 8.003906-30.546875zm0 0" fill="#84260d"/><path d="m111.5 428.851562h289c20.328125-55.746093 31.460938-114.960937 32.449219-175.363281h-353.898438c.988281 60.402344 12.121094 119.621094 32.449219 175.363281zm0 0" fill="#84260d"/><path d="m79.050781 253.488281c.988281 60.402344 12.121094 119.621094 32.449219 175.363281h74.167969c-15.640625-55.742187-24.203125-114.960937-24.964844-175.363281zm0 0" fill="#751d0c"/><path d="m390.832031 388.367188h-39.476562c-5.261719 0-9.527344-4.265626-9.527344-9.527344v-37.667969c0-5.265625 4.265625-9.527344 9.527344-9.527344s9.53125 4.261719 9.53125 9.527344v28.140625h20.417969v-56.28125h-57.730469v65.808594c0 5.261718-4.265625 9.527344-9.527344 9.527344h-76.78125c-5.261719 0-9.527344-4.265626-9.527344-9.527344v-41.75c0-5.261719 4.265625-9.527344 9.527344-9.527344s9.527344 4.265625 9.527344 9.527344v32.222656h57.726562v-65.808594c0-5.261718 4.265625-9.527344 9.53125-9.527344h76.78125c5.261719 0 9.527344 4.265626 9.527344 9.527344v75.335938c0 5.261718-4.265625 9.527344-9.527344 9.527344zm0 0" fill="#cc5740"/><path d="m197.953125 388.367188h-76.785156c-5.261719 0-9.527344-4.265626-9.527344-9.527344v-75.335938c0-5.265625 4.265625-9.527344 9.527344-9.527344h39.476562c5.261719 0 9.527344 4.261719 9.527344 9.527344v37.667969c0 5.261719-4.265625 9.527344-9.527344 9.527344s-9.53125-4.265625-9.53125-9.527344v-28.140625h-20.417969v56.28125h57.730469v-65.808594c0-5.261718 4.265625-9.527344 9.527344-9.527344h76.78125c5.261719 0 9.527344 4.265626 9.527344 9.527344v41.75c0 5.261719-4.265625 9.527344-9.527344 9.527344s-9.527344-4.265625-9.527344-9.527344v-32.222656h-57.726562v65.808594c0 5.261718-4.265625 9.527344-9.527344 9.527344zm0 0" fill="#cc5740"/><path d="m81.980469 56.695312h77.84375c3.699219 2.757813 8.023437 4.585938 12.617187 5.28125 4.359375 8.167969 7.769532 16.695313 10.207032 25.433594h-98.875c-4.242188 0-7.503907 3.796875-6.828126 7.984375 6.488282 40.316407 29.785157 75.933594 63.136719 98.125l-29.863281 10.570313c-1.527344.539062-3.007812 1.164062-4.441406 1.859375-31.371094-27.023438-53.238282-65.121094-59.535156-108.105469-3.179688-21.710938 13.792968-41.148438 35.738281-41.148438zm0 0" fill="#a0391e"/><path d="m78.605469 56.863281c1.113281-.101562 2.234375-.167969 3.375-.167969h77.839843c3.703126 2.757813 8.023438 4.585938 12.621094 5.28125 4.359375 8.167969 7.769532 16.695313 10.203125 25.433594h-96.035156c12.226563-9.222656 7.054687-28.550781-8.003906-30.546875zm0 0" fill="#84260d"/><path d="m133.679688 480.9375c36.34375 19.804688 78.015624 31.0625 122.320312 31.0625s85.976562-11.257812 122.320312-31.0625c8.300782-16.964844 15.710938-34.34375 22.179688-52.085938h-289c6.46875 17.742188 13.878906 35.121094 22.179688 52.085938zm0 0" fill="#bc4c2e"/><path d="m198.757812 470.578125c-5.078124-15.25-10.234374-31.550781-13.089843-41.726563h-74.167969c6.46875 17.742188 13.878906 35.121094 22.179688 52.085938 27.386718 14.925781 57.800781 24.992188 90.089843 29.050781-11.371093-10.871093-20-24.371093-25.011719-39.410156zm0 0" fill="#a0391e"/><path d="m432.949219 253.488281c.046875-2.925781.078125-5.859375.078125-8.792969 0-18.25-11.5-34.519531-28.703125-40.605468l-46.726563-16.535156c-10.121094-3.578126-18.289062-11.34375-22.105468-21.378907-12.847657-33.753906-10.675782-71.84375 6.597656-104.199219-1.351563.203126-2.71875.320313-4.109375.320313h-163.960938c-1.390625 0-2.757812-.117187-4.109375-.320313 17.277344 32.355469 19.445313 70.445313 6.601563 104.199219-3.820313 10.035157-11.988281 17.800781-22.109375 21.378907l-46.722656 16.535156c-17.207032 6.085937-28.707032 22.355468-28.707032 40.605468 0 2.933594.03125 5.867188.082032 8.792969zm0 0" fill="#bc4c2e"/><path d="m160.644531 244.695312c0-18.25 8.847657-34.519531 22.082031-40.605468l35.949219-16.535156c7.785157-3.578126 14.066407-11.34375 17.007813-21.378907 9.847656-33.644531 8.21875-71.589843-4.953125-103.878906h-56.710938c-1.390625 0-2.757812-.117187-4.109375-.320313 17.277344 32.355469 19.445313 70.445313 6.601563 104.199219-3.820313 10.035157-11.988281 17.800781-22.109375 21.378907l-46.722656 16.535156c-17.207032 6.085937-28.707032 22.355468-28.707032 40.605468 0 2.933594.03125 5.867188.082032 8.792969h81.652343c-.066406-5.171875-.0625-8.660156-.0625-8.792969zm0 0" fill="#a0391e"/><path d="m381.128906 30.714844h-250.257812c-8.480469 0-15.355469-6.875-15.355469-15.359375 0-8.480469 6.875-15.355469 15.355469-15.355469h250.257812c8.480469 0 15.355469 6.875 15.355469 15.355469 0 8.484375-6.875 15.359375-15.355469 15.359375zm0 0" fill="#ce7f49"/><path d="m151.214844 51.300781c.027344.042969.054687.085938.082031.125 5.367187 7.933594 13.726563 12.746094 22.71875 12.746094h163.964844c8.996093 0 17.355469-4.8125 22.71875-12.746094.03125-.039062.058593-.082031.085937-.125l14.820313-21.851562h-239.210938zm0 0" fill="#a0391e"/><path d="m216.816406 51.796875c-5.429687-8.003906-2.195312-18.183594 5.34375-22.351563h-85.765625l14.820313 21.855469c.027344.042969.054687.085938.085937.125 5.367188 7.933594 13.722657 12.742188 22.71875 12.742188h57.960938c-5.742188-2.207031-11.058594-6.296875-15.164063-12.371094zm0 0" fill="#84260d"/><path d="m405.828125 413.496094h-299.65625c3.425781 10.351562 7.160156 20.59375 11.207031 30.714844h277.242188c4.046875-10.121094 7.78125-20.363282 11.207031-30.714844zm0 0" fill="#a0391e"/><path d="m79.523438 268.847656h352.953124c.359376-8.03125.550782-16.082031.550782-24.152344v-.003906c0-2.21875-.171875-4.410156-.503906-6.558594h-353.046876c-.980468 6.367188-.480468 19.003907.046876 30.714844zm0 0" fill="#a0391e"/><path d="m106.171875 413.496094c3.425781 10.351562 7.160156 20.59375 11.207031 30.714844h72.8125c-3.113281-10.117188-5.988281-20.363282-8.621094-30.714844zm0 0" fill="#84260d"/><path d="m161.03125 238.132812h-81.554688c-.980468 6.367188-.480468 19.003907.046876 30.714844h81.546874c-.363281-10.460937-.765624-24.5625-.039062-30.714844zm0 0" fill="#84260d"/><path d="m381.128906 30.714844h-250.257812c-8.480469 0-15.355469-6.875-15.355469-15.359375 0-8.480469 6.875-15.355469 15.355469-15.355469h250.257812c8.480469 0 15.355469 6.875 15.355469 15.355469 0 8.484375-6.875 15.359375-15.355469 15.359375zm0 0" fill="#bc4c2e"/><path d="m217.273438 0h-86.402344c-8.480469 0-15.355469 6.875-15.355469 15.355469 0 8.484375 6.875 15.359375 15.355469 15.359375h86.402344c-14.964844-4.710938-14.980469-26 0-30.714844zm0 0" fill="#a0391e"/><path d="m167.160156 378.207031c0-3.757812 1.984375-7.046875 4.960938-8.894531h-41.425782v-56.28125h20.417969v28.140625c0 5.261719 4.269531 9.527344 9.527344 9.527344 5.261719 0 9.53125-4.265625 9.53125-9.527344v-37.667969c0-5.261718-4.269531-9.527344-9.53125-9.527344h-39.472656c-5.261719 0-9.527344 4.265626-9.527344 9.527344v75.335938c0 5.261718 4.265625 9.523437 9.527344 9.523437h53.933593c-4.558593-1.132812-7.941406-5.246093-7.941406-10.15625zm0 0" fill="#bc4c2e"/></svg>