<svg height="512pt" viewBox="0 -8 512.00046 512" width="512pt" xmlns="http://www.w3.org/2000/svg"><path d="m512 247.949219c0 136.9375-111.007812 247.945312-247.949219 247.945312-136.9375 0-247.945312-111.007812-247.945312-247.945312s111.007812-247.949219 247.945312-247.949219c136.941407 0 247.949219 111.011719 247.949219 247.949219zm0 0" fill="#69d173"/><path d="m512 247.949219c0 136.9375-111.007812 247.945312-247.949219 247.945312-136.9375 0-247.945312-111.007812-247.945312-247.945312s111.007812-247.949219 247.945312-247.949219c136.941407 0 247.949219 111.011719 247.949219 247.949219zm0 0" fill="#69d173"/><path d="m427.820312 416.441406c-1.292968-4.664062-5.964843-6.542968-9.792968-4.984375 0 0-.90625 11.890625 1.984375 29.234375 4.222656-3.417968 8.328125-6.972656 12.316406-10.660156-1.738281-4.503906-3.246094-9.046875-4.507813-13.589844zm0 0" fill="#ccccce"/><path d="m181.003906 453.660156c-6.292968-28.46875-16.027344-39.023437-24.792968-57.855468 5.222656 24.152343 13.71875 35.996093 14.492187 66.792968l1.964844 15.910156c6.078125 2.410157 12.277343 4.585938 18.578125 6.515626zm0 0" fill="#ccccce"/><path d="m511.394531 230.71875c-15.929687-7.203125-35.785156-10.742188-60.082031-10.742188-25.027344 0-43.621094 6.972657-61.605469 13.714844-32.988281 12.367188-61.476562 23.042969-119.160156-12.78125-12.621094-7.835937-23.476563-18.824218-31.390625-31.777344-19.558594-32.003906-74.28125-102.851562-159.859375-69.535156-5.285156 3.171875-11.933594 2.898438-16.941406-.699218-18.480469-13.269532-40.085938-13.8125-55.074219-11.894532-6.714844.859375-9.480469 8.402344-5.3125 13.226563l20.816406 24.078125c2.296875 2.65625 2.148438 6.636718-.332031 9.121094-2.496094 2.886718-5.710937 4.445312-6.097656 8.730468l-3.523438 39.144532c-1.375 15.269531 3.261719 30.171874 13.054688 41.957031 10.136719 12.199219 22.914062 28.363281 26.21875 36.074219 3.125 7.292968 2.835937 13.832031 2.039062 18.027343-.777343 4.125 1.832031 8.160157 5.941407 9.191407l29.53125 7.378906c3.230468.808594 6.667968-.492188 8.554687-3.238282l11.382813-16.597656c3.207031-4.675781 3.570312-10.738281.957031-15.527344-2.875-5.277343-4.609375-11.101562-4.609375-17.109374v-36.886719c0-1.175781.101562-2.304688.292968-3.386719 2.488282-14.054688 20.980469-18.109375 29.484376-6.648438.058593.078126.117187.15625.171874.234376 6.019532 8.199218 13.195313 22.621093 13.195313 44.792968 0 10.945313-2.15625 21.921875-4.4375 33.546875-6.140625 31.277344-13.097656 66.730469 17.316406 119.144531 7.550781 13.015626 12.996094 26.921876 16.195313 41.398438l9.914062 30.363281c13.578125 4.371094 27.667969 7.585938 42.152344 9.566407.425781-4.050782 1.539062-6.820313 1.941406-8.503907l18.761719-65.261719c1.207031-4.355468 6.0625-7.03125 10.734375-4.902343 21.609375 9.851562 79.65625 29.378906 153.769531-.859375 3.78125-1.539063 8.488281.269531 9.796875 4.984375 1.253906 4.527343 2.757813 9.003906 4.492188 13.398437 50.527344-45.386718 82.316406-111.222656 82.316406-184.492187 0-5.792969-.214844-11.535157-.605469-17.230469zm0 0" fill="#ebeaec"/><path d="m106.195312 221.191406c2-11.296875 14.335938-16.125 23.519532-11.636718-16.371094-8.582032-27.542969-25.722657-27.542969-45.484376 0-25.644531 18.808594-46.894531 43.382813-50.71875-19.453126-4.292968-41.566407-3.363281-66.257813 6.25-5.285156 3.167969-11.933594 2.894532-16.941406-.703124-18.476563-13.265626-40.082031-13.8125-55.070313-11.894532-6.71875.859375-9.484375 8.40625-5.3125 13.226563l20.8125 24.082031c2.296875 2.65625 2.152344 6.636719-.332031 9.117188-2.496094 2.890624-5.710937 4.449218-6.097656 8.734374l-3.523438 39.144532c-1.375 15.269531 3.261719 30.167968 13.054688 41.953125 10.136719 12.199219 22.914062 28.363281 26.21875 36.078125 3.128906 7.292968 2.835937 13.828125 2.039062 18.027344-.777343 4.121093 1.832031 8.160156 5.945313 9.1875l29.527344 7.382812c3.234374.804688 6.667968-.496094 8.554687-3.242188l11.386719-16.597656c3.203125-4.671875 3.570312-10.734375.957031-15.527344-2.878906-5.273437-4.613281-11.097656-4.613281-17.109374v-36.886719c0-1.175781.101562-2.304688.292968-3.382813zm0 0" fill="#dad9dd"/><path d="m42.605469 234.066406c-4.542969-2.910156-5.863281-8.953125-2.953125-13.496094l7.363281-11.488281c2.914063-4.542969 8.957031-5.863281 13.496094-2.953125 4.542969 2.910156 5.863281 8.953125 2.953125 13.496094l-7.363282 11.488281c-2.902343 4.527344-8.9375 5.875-13.496093 2.953125zm0 0" fill="#603256"/><path d="m62.355469 118.898438c5.007812 3.597656 11.65625 3.871093 16.941406.703124 85.578125-33.320312 140.300781 37.53125 159.859375 69.535157 7.914062 12.949219 18.769531 23.9375 31.390625 31.777343 1.460937.90625 2.890625 1.765626 4.316406 2.613282-3.492187-49.265625-21.5-114.023438-87.675781-142.058594-80.199219-33.976562-149.292969 26.636719-149.292969 26.636719 8.21875 1.832031 16.621094 5.164062 24.460938 10.792969zm0 0" fill="#95d6fc"/><path d="m458.964844 238.898438-29.785156-14.714844-.222657-.109375-.242187.066406c-15.734375 4.378906-30.757813 6.089844-44.644532 6.089844-49.757812-.003907-84.867187-22.003907-85.3125-22.289063l-.398437-.253906-.367187.296875c-6.730469 5.535156-7.898438 15.664063-2.578126 22.613281 43.265626 50.015625 106.003907 50.121094 163.652344 20.320313 4.90625-2.535157 4.855469-9.574219-.101562-12.019531zm0 0" fill="#95d6fc"/><path d="m298.757812 207.941406-.398437-.253906-.367187.300781c-6.726563 5.53125-7.894532 15.660157-2.578126 22.609375 15.800782 18.265625 30.003907 25.160156 32.320313 26.757813l.1875-.011719c24.769531-1.195312 46.765625-13.019531 58.386719-27.082031l-1.378906.011719c-50.148438.375-85.816407-22.105469-86.171876-22.332032zm0 0" fill="#73ccf9"/><path d="m351.019531 227.40625c.703125 0 1.394531.03125 2.085938.078125-32.757813-5.949219-54.074219-19.367187-54.347657-19.539063l-.398437-.257812-.367187.300781c-6.730469 5.53125-7.898438 15.660157-2.578126 22.609375 10.09375 11.671875 19.53125 18.695313 25.636719 22.664063 2.148438-14.628907 14.746094-25.855469 29.96875-25.855469zm0 0" fill="#5bbbf4"/><path d="m458.945312 94.65625c-9.867187-12.53125-20.921874-24.082031-32.988281-34.496094-5.152343 4.464844-10.605469 8.824219-16.414062 13.003906-20.996094 19.199219-48.082031 35.917969-80.496094 49.6875-5.332031 2.261719-8.519531 7.664063-7.929687 13.441407.71875 7.054687.816406 14.144531.292968 21.078125-.023437.316406-.039062.527344-.042968.628906l-.023438.667969.671875.003906h.003906c.609375 0 44.507813-.246094 88.726563-24.71875 19.324218-10.691406 35.253906-23.976563 48.199218-39.296875zm0 0" fill="#73ccf9"/><path d="m492.847656 177.34375c-12.148437-.691406 30.84375 1.753906-58.707031-3.34375-5.253906 1.515625-42.75 26.097656-120.496094 13.832031l-.09375.585938-.527343-.332031-.648438.867187.171875.027344c-3.753906 7.039062-8.644531 13.066406-14.550781 17.921875l-.695313.566406.753907.484375c18.472656 11.824219 52.398437 22.519531 85.34375 22.519531 31.636718 0 71.871093-8.828125 113.21875-41.09375 4.902343-3.824218 2.445312-11.683594-3.769532-12.035156zm0 0" fill="#73ccf9"/><path d="m321.410156 157.371094c-.023437.316406-.039062.527344-.042968.628906l-.019532.667969.667969.003906h.003906c.460938 0 32.109375-.148437 68.542969-15.0625l.171875-.105469c34.226563-27.921875 20.011719-69.660156 19.863281-70.078125l-.328125-.929687-.726562.664062c-20.996094 19.203125-48.082031 35.921875-80.496094 49.6875-5.332031 2.265625-8.519531 7.667969-7.929687 13.445313.71875 7.054687.820312 14.144531.292968 21.078125zm0 0" fill="#5bbbf4"/><path d="m359.429688 122.839844c0-8.234375 3.886718-15.554688 9.917968-20.246094-12.316406 7.316406-25.769531 14.082031-40.300781 20.253906-5.332031 2.265625-8.515625 7.667969-7.929687 13.445313.71875 7.054687.820312 14.144531.292968 21.078125-.023437.316406-.039062.527344-.042968.628906l-.019532.667969.667969.003906h.003906c.414063 0 25.832031-.128906 57.292969-10.855469-11.386719-2.609375-19.882812-12.800781-19.882812-24.976562zm0 0" fill="#4ba6ea"/><path d="m313.644531 188.917969-.464843-.070313c-.367188.570313-4.914063 10.695313-15.1875 19.140625l-.691407.570313.753907.480468c.308593.199219 31.429687 19.824219 76.363281 22.292969l.1875.011719.164062-.09375c20.136719-11.253906 30.777344-30.359375 32.148438-45.628906-2.636719.390625-36.074219 12.328125-93.273438 3.296875zm0 0" fill="#5bbbf4"/><path d="m347.523438 227.65625c-1.195313-21.816406 19.320312-32.390625 23.578124-34.34375.285157-.1875.570313-.375.859376-.550781l.441406-1.140625c-15.09375 1.179687-34.839844 1.074218-58.757813-2.699219l-.464843-.074219c-.367188.570313-4.914063 10.695313-15.1875 19.140625l-.691407.570313.753907.484375c.242187.152343 19.484374 12.265625 49.472656 18.667969 0-.019532-.003906-.035157-.003906-.054688zm0 0" fill="#4ba6ea"/><path d="m484.957031 135.234375c-7.113281-13.90625-15.503906-27.050781-25.011719-39.28125-4.785156 3.878906-9.640624 7.601563-14.574218 11.160156-52.507813 49.738281-122.476563 50.253907-123.347656 50.253907h-.605469l-.050781.597656c-1.605469 19.582031-8.648438 31.660156-8.816407 32.101562l.890625.140625c76.699219 12.097657 134.90625-9.394531 171.515625-54.972656zm0 0" fill="#95d6fc"/><path d="m419.160156 127.453125c-46.835937 29.613281-96.503906 29.914063-97.136718 29.914063h-.605469l-.046875.597656c-1.609375 19.582031-8.648438 31.660156-8.820313 32.101562l.890625.140625c43.296875 6.828125 73.308594 1.050781 74.003906 1.011719.105469-.175781 29.375-21.207031 32.710938-63.160156l.105469-1.300782zm0 0" fill="#73ccf9"/><path d="m362.058594 171.707031c0-10.355469 5.636718-19.386719 14.003906-24.210937-29.960938 9.726562-53.601562 9.871094-54.039062 9.871094h-.605469l-.046875.597656c-1.609375 19.582031-8.648438 31.660156-8.820313 32.101562l.890625.140625c24.890625 3.925781 45.375 3.683594 58.4375 2.761719-6.007812-5.125-9.820312-12.746094-9.820312-21.261719zm0 0" fill="#5bbbf4"/><path d="m388.089844 33.214844c-25.210938 22.28125-56.921875 39.40625-93.585938 52.921875-14.933594 5.503906-24.242187 20.433593-22.636718 36.300781 1.878906 18.570312.175781 34.234375-5.066407 46.558594-7.207031 16.949218-21.035156 26.929687-41.117187 29.660156l-.28125.039062c-11.863282 1.578126-17.132813 15.605469-9.277344 24.5625 22.222656 25.332032 57.765625 40.859376 108.816406 34.46875.769532-.097656 1.355469-.757812 1.355469-1.53125 0-.542968-.296875-1.042968-.765625-1.316406-14.675781-8.566406-23.898438-18.296875-29.105469-25.101562-4.871093-6.367188-3.796875-15.691406 2.394531-20.78125 24.90625-20.472656 25.472657-54.417969 23.597657-72.832032-.535157-5.207031 2.335937-10.074218 7.140625-12.113281 44.214844-18.78125 74.734375-41.207031 95.496094-64.65625-11.46875-9.800781-23.832032-18.578125-36.964844-26.179687zm0 0" fill="#95d6fc"/><path d="m145.550781 113.351562s.011719-.003906.015625-.003906c-2.515625-4.109375-3.96875-8.941406-3.96875-14.113281 0-12.152344 8.003906-22.429687 19.027344-25.855469-68.308594-13.007812-122.730469 34.726563-122.730469 34.726563 8.21875 1.832031 16.621094 5.164062 24.460938 10.792969 5.007812 3.597656 11.65625 3.871093 16.941406.699218 24.691406-9.609375 46.804687-10.539062 66.253906-6.246094zm0 0" fill="#73ccf9"/><path d="m241.933594 450.96875c-15.902344 23.175781-50.25 22.167969-64.863282-1.664062.367188 1.449218.726563 2.894531 1.050782 4.355468l9.914062 30.363282c13.574219 4.367187 27.667969 7.582031 42.152344 9.5625.425781-4.046876 1.539062-6.820313 1.941406-8.503907zm0 0" fill="#dad9dd"/><path d="m325.53125 254.878906c-14.679688-8.566406-23.898438-18.296875-29.105469-25.101562-4.875-6.371094-3.796875-15.691406 2.394531-20.78125 24.902344-20.472656 25.472657-54.421875 23.59375-72.835938-.371093-3.664062.945313-7.15625 3.429688-9.617187-1.0625.136719-2.140625.214843-3.242188.214843-13.972656 0-25.300781-11.328124-25.300781-25.300781 0-8.390625 4.089844-15.824219 10.375-20.425781-4.3125 1.757812-8.703125 3.457031-13.171875 5.105469-14.933594 5.503906-24.242187 20.433593-22.636718 36.304687 1.878906 18.570313.175781 34.234375-5.066407 46.554688-7.207031 16.949218-21.035156 26.929687-41.117187 29.660156l-.28125.039062c-11.863282 1.578126-17.132813 15.605469-9.277344 24.566407 22.222656 25.328125 57.765625 40.855469 108.816406 34.464843.769532-.09375 1.355469-.753906 1.355469-1.53125-.003906-.542968-.296875-1.042968-.765625-1.316406zm0 0" fill="#73ccf9"/></svg>