<svg height="512.00042pt" viewBox="0 0 512.00042 512.00042" width="512.00042pt" xmlns="http://www.w3.org/2000/svg"><path d="m512 256c0 141.386719-114.613281 256-256 256-141.382812 0-256-114.613281-256-256s114.617188-256 256-256c141.386719 0 256 114.613281 256 256zm0 0" fill="#ffcb37"/><path d="m59.328125 509.933594c-13.800781 1.226562-28.71875 1.941406-44.933594 2.066406-7.890625.058594-14.3359372-6.289062-14.394531-14.179688-.0585938-7.886718 6.292969-14.335937 14.175781-14.394531 124.019531-.929687 164.277344-37.519531 199.796875-69.796875 19.636719-17.84375 38.183594-34.695312 67.296875-43.5625 73.242188-22.300781 136.515625-74.167968 137.144531-74.6875 6.082032-5.027344 15.085938-4.171875 20.113282 1.90625 5.027344 6.082032 4.171875 15.085938-1.90625 20.117188-2.753906 2.277344-68.371094 56.046875-147.027344 80-22.972656 6.992187-38.46875 21.074218-56.40625 37.375-32.875 29.867187-72.835938 66.167968-173.859375 75.15625zm0 0" fill="#84260d"/><path d="m308.71875 186.769531s23.152344 18.46875 11.15625 51.722657c-23.523438 65.21875 36.835938 68.703124-27.46875 127.933593 68.402344-23.828125 125.410156-70.554687 126.007812-71.046875l-10.617187-22.839844c-17.550781-37.753906-75.757813-97.292968-75.757813-97.292968zm0 0" fill="#bc4c2e"/><path d="m52.890625 429.300781c-4.984375-6.113281-4.070313-15.113281 2.042969-20.097656.449218-.367187 55.183594-37.207031 98.367187-88.820313 38.332031-45.816406 14.847657-96.703124 14.605469-97.214843-3.386719-7.125-.355469-15.648438 6.773438-19.035157 7.125-3.382812 15.648437-.351562 19.03125 6.773438.335937.703125 8.214843 17.519531 9.820312 41.414062 2.140625 31.820313-7.652344 61.695313-28.316406 86.398438-45.011719 53.796875-100.300782 91.058594-102.222656 92.625-6.117188 4.988281-15.117188 4.070312-20.101563-2.042969zm0 0" fill="#bc4c2e"/><g fill="#a0391e"><path d="m168.789062 294.71875c-3.398437 8.492188-8.378906 17.164062-15.488281 25.664062-43.183593 51.613282-97.917969 88.453126-98.367187 88.820313-6.113282 4.984375-7.027344 13.984375-2.042969 20.097656s13.984375 7.027344 20.097656 2.042969c1.925781-1.566406 57.214844-38.828125 102.222657-92.628906 9.117187-10.894532 16.113281-22.796875 20.90625-35.425782-9.167969 9.429688-25.199219 4.410157-27.328126-8.570312zm0 0"/><path d="m338.519531 156.109375c-3.492187-7.070313-12.058593-9.972656-19.132812-6.480469l-125.371094 61.941406c1.195313 2.675782 5.519531 13.066407 8.007813 27.910157l130.019531-64.234375c7.070312-3.492188 9.972656-12.0625 6.476562-19.136719zm0 0"/><path d="m191.128906 285.011719 127.046875 8.296875c-2.390625-8.222656-4.597656-17.347656-3.941406-28.890625l-120.308594-7.859375c-1.753906-.113282-3.265625 1.257812-3.289062 3.019531-.09375 7.398437-.878907 14.660156-2.332031 21.746094-.375 1.828125.960937 3.566406 2.824218 3.6875zm0 0"/><path d="m100.207031 475.171875c10.546875-2.242187 20.113281-4.875 28.84375-7.820313l-38.339843-60.785156c-.976563-1.546875-3.078126-1.910156-4.519532-.785156-8.160156 6.351562-14.46875 10.902344-17.898437 13.351562-1.332031.949219-1.683594 2.773438-.808594 4.160157zm0 0"/><path d="m171.710938 447.285156c8.589843-5.394531 16.171874-11.089844 23.167968-16.871094l-56.414062-66.082031c-1.167969-1.363281-3.242188-1.445312-4.523438-.1875-5.507812 5.398438-10.953125 10.492188-16.230468 15.246094-1.25 1.121094-1.375 3.023437-.285157 4.300781zm0 0"/><path d="m232.304688 397.5c7.484374-6.167969 15.324218-11.894531 24.117187-16.824219l-75.886719-66.953125c-1.46875-1.296875-3.757812-.917968-4.726562.785156-3.554688 6.269532-7.734375 12.289063-12.527344 18.019532 0 0-.015625.015625-.019531.023437-1.082031 1.289063-.945313 3.203125.316406 4.3125zm0 0"/></g><path d="m292.742188 162.792969 25.71875-12.707031-10.972657-18c-4.105469-6.738282-12.898437-8.871094-19.632812-4.765626-6.738281 4.109376-8.871094 12.898438-4.765625 19.636719zm0 0" fill="#bc4c2e"/><path d="m341.699219 284.554688c-4.832031 0-8.78125-3.90625-8.78125-8.78125 0-5.660157 5.203125-9.675782 10.492187-8.609376 4.191406.871094 7.074219 4.457032 7.074219 8.609376-.003906 4.996093-4.101563 8.78125-8.785156 8.78125zm0 0" fill="#84260d"/><path d="m392.644531 39.496094c-6.734375 16.308594-16.519531 33.738281-30.167969 52.246094-2.574218 3.492187-2.726562 8.402343.015626 12.117187 5.886718 7.984375 8.910156 14.625 9.234374 15.21875 0 0 31.722657-18.671875 52.871094-55.707031-9.992187-8.753906-20.675781-16.742188-31.953125-23.875zm0 0" fill="#dad9dd"/><path d="m452.839844 92.328125c-8.640625-10.378906-18.085938-20.0625-28.242188-28.957031-21.148437 37.03125-52.871094 55.707031-52.871094 55.707031 3.589844 7.398437 6.597657 16.242187 7.148438 25.703125 35.457031-14.054688 58.882812-32.460938 73.964844-52.453125zm0 0" fill="#ebeaec"/><path d="m474.175781 122.035156c-6.410156-10.421875-13.546875-20.347656-21.339843-29.710937-15.082032 19.992187-38.5 38.402343-73.960938 52.457031.371094 6.339844-.359375 12.957031-2.777344 19.601562 0 0 55.101563 1.96875 98.078125-42.347656zm0 0" fill="#dad9dd"/><path d="m489.003906 149.828125c-4.378906-9.597656-9.335937-18.871094-14.824218-27.789063-42.980469 44.3125-98.082032 42.34375-98.082032 42.34375-2.324218 6.394532.945313 13.738282 7.253906 16.285157 49.113282 16.480469 84.710938-7.996094 105.652344-30.839844zm0 0" fill="#ebeaec"/><path d="m362.476562 91.742188c-2.574218 3.492187-2.726562 8.40625.015626 12.117187 5.886718 7.984375 8.910156 14.628906 9.234374 15.21875 0 0 22.15625-13.039063 41.78125-38.941406l.003907-.007813c3.1875-8.664062 3.765625-16.617187 2.859375-23.660156-7.570313-6.089844-15.488282-11.761719-23.726563-16.972656-6.734375 16.308594-16.519531 33.738281-30.167969 52.246094zm0 0" fill="#ccccce"/><path d="m376.585938 70.800781c-4.164063 6.820313-8.839844 13.796875-14.109376 20.941407-2.574218 3.492187-2.726562 8.402343.015626 12.117187 5.886718 7.984375 8.910156 14.628906 9.234374 15.21875 0 0 15.867188-9.339844 32.640626-27.910156-13.824219 4.929687-28.332032-5.664063-27.78125-20.367188zm0 0" fill="#bcbcc1"/><path d="m371.726562 119.078125c3.589844 7.398437 6.597657 16.242187 7.148438 25.703125 21.578125-8.550781 38.703125-18.71875 52.203125-29.871094 6.320313-17.179687 4.695313-32.929687 1.6875-44.082031-2.667969-2.546875-5.398437-5.03125-8.179687-7.464844-21.148438 37.03125-52.859376 55.714844-52.859376 55.714844zm0 0" fill="#dad9dd"/><path d="m401.59375 94.164062c-15.707031 16.578126-29.867188 24.914063-29.867188 24.914063 3.589844 7.398437 6.597657 16.242187 7.148438 25.703125 14.054688-5.566406 26.207031-11.824219 36.710938-18.589844-14.929688-2.4375-22.289063-19.503906-13.992188-32.027344zm0 0" fill="#ccccce"/><path d="m378.875 144.78125c28.363281-11.242188 49.023438-25.269531 63.875-40.667969 0 0 9.96875 20.351563-3.953125 44.269531-32.878906 17.070313-62.699219 16-62.699219 16 2.417969-6.644531 3.148438-13.261718 2.777344-19.601562zm0 0" fill="#ccccce"/><path d="m415.597656 126.183594c-10.503906 6.769531-22.664062 13.027344-36.722656 18.597656.371094 6.34375-.359375 12.957031-2.777344 19.601562 0 0 20.066406.710938 45.425782-8.449218-13.320313-3.761719-16.839844-21.195313-5.925782-29.75zm0 0" fill="#bcbcc1"/><path d="m376.097656 164.382812s34.484375 1.230469 70.167969-20.191406c0 0-3.683594 24.90625-29.398437 41.832032-10.359376.238281-21.53125-1.335938-33.515626-5.355469-6.308593-2.546875-9.578124-9.890625-7.253906-16.285157zm0 0" fill="#dad9dd"/><path d="m414.828125 158.164062c-22.105469 6.804688-38.730469 6.21875-38.730469 6.21875-2.324218 6.394532.945313 13.738282 7.253906 16.285157 11.246094 3.773437 21.777344 5.390625 31.589844 5.378906-9.601562-6.675781-9.871094-20.960937-.113281-27.882813zm0 0" fill="#ccccce"/><path d="m393.8125 40.226562c-10.347656-6.625-21.203125-12.527343-32.5-17.628906-11.070312 25.101563-26.285156 44.851563-37.109375 58.132813-8.074219 9.90625-8.390625 23.996093-.816406 34.285156 11.882812 16.136719 24.328125 41.128906 9.496093 62.640625 11.308594-.929688 22.859376 3.609375 30.46875 13.140625 4.097657 5.136719 6.523438 11.0625 7.359376 17.128906l13.933593-26.832031c-6.308593-2.546875-9.582031-9.890625-7.253906-16.285156 9.09375-24.992188-5.5625-49.609375-13.609375-60.523438-2.660156-3.605468-2.671875-8.507812-.011719-12.113281 13.558594-18.398437 23.308594-35.722656 30.042969-51.945313zm0 0" fill="#ebeaec"/><path d="m330.398438 72.972656c-2.175782 2.789063-4.257813 5.378906-6.195313 7.757813-8.074219 9.90625-8.390625 23.996093-.816406 34.285156 11.882812 16.136719 24.328125 41.128906 9.496093 62.640625 11.308594-.929688 22.859376 3.605469 30.46875 13.140625 4.097657 5.136719 6.519532 11.0625 7.359376 17.128906l13.933593-26.828125c-6.308593-2.550781-9.582031-9.894531-7.253906-16.285156 9.09375-24.996094-5.5625-49.613281-13.609375-60.523438-1.832031-2.484374-2.40625-5.589843-1.71875-8.457031-16 10.675781-36.726562-4.308593-31.664062-22.859375zm0 0" fill="#dad9dd"/><path d="m350.316406 178.65625c-18.121094-7.105469-38.574218 1.828125-45.679687 19.949219-7.105469 18.125 1.828125 38.574219 19.949219 45.679687 18.125 7.105469 38.578124-1.824218 45.679687-19.949218 7.105469-18.121094-1.824219-38.574219-19.949219-45.679688zm0 0" fill="#fff"/><path d="m314.109375 185.058594c-4.058594 3.585937-7.359375 8.152344-9.472656 13.542968-7.105469 18.125 1.828125 38.574219 19.953125 45.679688 18.121094 7.105469 38.574218-1.828125 45.679687-19.949219 2.113281-5.390625 2.796875-10.984375 2.253907-16.371093-21.507813 18.976562-55.527344 5.707031-58.414063-22.902344zm0 0" fill="#ebeaec"/><path d="m256.804688 380.457031c-16.296876 9.0625-29.308594 20.882813-42.832032 33.171875-35.519531 32.277344-75.777344 68.871094-199.796875 69.800782-7.882812.054687-14.2343748 6.503906-14.175781 14.394531s6.503906 14.234375 14.394531 14.175781c16.214844-.125 31.132813-.839844 44.933594-2.066406 101.023437-8.988282 140.984375-45.289063 173.859375-75.15625 12.726562-11.566406 24.234375-21.996094 38.042969-29.589844-13.546875 1.347656-22.109375-13.859375-14.425781-24.730469zm0 0" fill="#751d0c"/><path d="m225.210938 196.15625-31.195313 15.414062c1.195313 2.675782 5.519531 13.066407 8.007813 27.910157l37.546874-18.546875c-13.136718.453125-21.144531-13.882813-14.359374-24.777344zm0 0" fill="#84260d"/><path d="m239.335938 259.527344-45.40625-2.96875c-1.757813-.113282-3.269532 1.257812-3.292969 3.019531-.09375 7.394531-.878907 14.660156-2.332031 21.742187-.375 1.832032.960937 3.566407 2.824218 3.691407l44.222656 2.886719c-10.539062-7.671876-8.214843-23.925782 3.984376-28.371094zm0 0" fill="#84260d"/><path d="m208.34375 338.257812-27.808594-24.535156c-1.46875-1.296875-3.757812-.917968-4.722656.785156-3.558594 6.265626-7.738281 12.289063-12.53125 18.019532 0 0-.011719.015625-.019531.023437-1.078125 1.289063-.941407 3.203125.316406 4.3125l24.730469 21.820313c-3.8125-12.25 7.511718-24.054688 20.035156-20.425782zm0 0" fill="#84260d"/><path d="m157.996094 387.210938-19.53125-22.878907c-1.167969-1.363281-3.246094-1.445312-4.527344-.1875-5.503906 5.398438-10.949219 10.492188-16.230469 15.246094-1.246093 1.121094-1.371093 3.027344-.28125 4.304687l17.984375 21.070313c-2.171875-12.929687 10.898438-22.746094 22.585938-17.554687zm0 0" fill="#84260d"/><path d="m105.933594 430.703125-15.222656-24.136719c-.976563-1.546875-3.078126-1.910156-4.523438-.785156-8.160156 6.351562-14.46875 10.902344-17.894531 13.351562-1.332031.953126-1.6875 2.773438-.8125 4.160157l14.363281 22.769531c-.9375-13.007812 12.933594-21.597656 24.089844-15.359375zm0 0" fill="#84260d"/><path d="m365.847656 323.257812c-20.273437 0-37.914062-11.238281-47.050781-27.824218 6.046875 20.382812 11.699219 35.910156-26.390625 70.992187 35.800781-12.46875 68.472656-31.210937 91.578125-46.316406-5.667969 2.035156-11.773437 3.148437-18.136719 3.148437zm0 0" fill="#a0391e"/></svg>