<svg height="511pt" viewBox="0 0 511.99385 511" width="511pt" xmlns="http://www.w3.org/2000/svg"><path d="m489.558594 278.921875c0 128.992187-104.570313 233.5625-233.5625 233.5625-128.988282 0-233.558594-104.570313-233.558594-233.5625s104.570312-233.558594 233.558594-233.558594c128.992187 0 233.5625 104.566407 233.5625 233.558594zm0 0" fill="#5e73dd"/><path d="m219.203125 283.96875c1.445313-5.480469-1.828125-11.097656-7.3125-12.542969l-14.550781-3.832031c-5.484375-1.449219-11.097656 1.828125-12.542969 7.3125-1.445313 5.480469 1.828125 11.097656 7.3125 12.542969l14.546875 3.832031c5.496094 1.449219 11.105469-1.839844 12.546875-7.3125zm0 0" fill="#ff5252"/><path d="m262.210938 333.148438c-26.582032-7.515626-55.117188-15.78125-77.636719-28.585938-4.230469-2.40625-3.609375-8.742188 1.039062-10.183594 13.769531-4.265625 22.890625-13.5625 22.945313-24.917968.117187-25.617188-42.585938-35.355469-67.097656-21.492188-3.847657 2.171875-6.984376 4.835938-9.328126 7.824219-6.027343 5.113281-11.140624 12.488281-10.644531 21.90625 1.550781 29.484375 55.953125 48.015625 82.402344 58.574219 9.550781 3.8125 38.007813 12.472656 52.734375 16.632812 68.835938 19.460938 73.28125 32.640625 73.472656 35.082031.074219.929688-.335937 6.050781-15.65625 15.832031-12.25 7.824219-29.0625 15.589844-46.863281 23.8125-42.976563 19.847657-83.570313 38.601563-82.707031 67.109376.070312 2.386718.4375 4.734374 1.082031 7.046874 10 3.140626 20.296875 5.617188 30.824219 7.394532-9.5625-7.292969-11.300782-12.429688-11.382813-15.0625-.503906-16.699219 54.925781-40.519532 70.796875-47.847656 40.953125-18.914063 76.320313-35.253907 74.378906-59.894532-1.59375-20.253906-28.019531-36.171875-88.359374-53.230468zm0 0" fill="#fcac1f"/><path d="m350.570312 386.378906c-2.773437-35.21875-82.132812-49.667968-132.121093-66.773437 6.0625 6.773437 2.671875 17.464843-6.015625 19.640625 12.855468 4.390625 27.5 8.945312 44.191406 13.664062 68.835938 19.457032 73.28125 32.636719 73.472656 35.082032.074219.925781-.335937 6.046874-15.65625 15.828124-12.25 7.824219-29.0625 15.589844-46.863281 23.8125-42.976563 19.851563-83.570313 38.601563-82.707031 67.109376.070312 2.390624.4375 4.734374 1.082031 7.046874 10 3.140626 20.296875 5.617188 30.824219 7.398438-9.5625-7.292969-11.300782-12.433594-11.382813-15.066406-.503906-16.699219 54.925781-40.515625 70.796875-47.84375 40.953125-18.917969 76.320313-35.253906 74.378906-59.898438zm0 0" fill="#ff941f"/><path d="m479.121094 118.988281c19.160156-16.03125 28.90625-36.1875 32.699218-48.453125.984376-3.179687-2.425781-5.882812-5.328124-4.253906-11.117188 6.25-27.230469 10.28125-36.574219 12.246094-2.164063.457031-3.566407-2.167969-2.011719-3.738282 12.636719-12.765624 22.449219-29.558593 25.671875-57.945312.453125-3.980469-4.789063-5.785156-6.910156-2.390625-15.886719 25.394531-47.265625 38.269531-56.222657 41.527344-1.1875.433593-2.441406-.4375-2.449218-1.703125l-.027344-5.832032c-.003906-1.5625-1.835938-2.382812-3.019531-1.363281-28 24.039063-62.035157 23.242188-87.074219 18.097657-6.210938-1.277344-13.753906 2.164062-16.921875 7.65625-14.976563 25.976562-33.636719 37.070312-42.683594 41.1875l-1.957031 66.152343c7.097656 11.058594 21.535156 30.152344 42.957031 42.414063 4.621094 2.644531 10.316407-1.019532 9.878907-6.324219l-2.824219-18.71875c-.3125-2.074219 1.992187-3.523437 3.734375-2.359375 41.097656 28.128906 81.476562 20.605469 100.253906 14.511719 5.371094-1.742188 7.183594-8.417969 3.390625-12.601563l-9.667969-10.664062c-2-2.207032-.730468-5.753906 2.21875-6.183594 38.820313-5.6875 67.289063-28.417969 79.476563-39.859375 2.988281-2.808594 1.632812-7.820313-2.355469-8.765625l-22.488281-5.332031c-3.359375-.796875-4.410157-5.09375-1.765625-7.304688zm0 0" fill="#95d6fc"/><path d="m430.3125 209.699219c5.367188-1.742188 7.179688-8.414063 3.386719-12.597657l-9.664063-10.667968c-119.433594-14.359375-86.160156-121.253906-86.160156-121.253906-6.210938-1.277344-13.753906 2.164062-16.921875 7.65625-14.976563 25.976562-33.636719 37.070312-42.6875 41.1875l-1.957031 66.15625c7.097656 11.058593 21.539062 30.148437 42.960937 42.410156 4.617188 2.644531 10.316407-1.015625 9.875-6.324219l-2.820312-18.71875c-.3125-2.074219 1.988281-3.523437 3.734375-2.359375 41.097656 28.128906 81.476562 20.609375 100.253906 14.511719zm0 0" fill="#73ccf9"/><path d="m234.121094 114.238281c-9.085938-4.035156-27.84375-14.960937-43.058594-40.796875-3.214844-5.464844-10.789062-8.835937-16.988281-7.503906-24.992188 5.371094-59.015625 6.480469-87.238281-17.304688-1.191407-1.007812-3.011719-.171874-3.003907 1.390626l.027344 5.832031c.003906 1.265625-1.246094 2.148437-2.4375 1.726562-8.984375-3.179687-40.476563-15.765625-56.59375-41.019531-2.152344-3.371094-7.378906-1.519531-6.890625 2.457031 3.480469 28.355469 13.445312 45.058594 26.195312 57.707031 1.570313 1.558594.191407 4.195313-1.976562 3.761719-9.359375-1.882812-25.507812-5.769531-36.683594-11.914062-2.917968-1.605469-6.300781 1.128906-5.289062 4.300781 3.902344 12.230469 13.835937 32.292969 33.140625 48.152344 2.664062 2.1875 1.648437 6.492187-1.699219 7.320312l-22.4375 5.535156c-3.980469.984376-5.289062 6.007813-2.277344 8.789063 12.289063 11.328125 40.964844 33.800781 79.835938 39.132813 2.953125.40625 4.253906 3.9375 2.273437 6.164062l-9.570312 10.753906c-3.753907 4.21875-1.878907 10.875 3.503906 12.570313 18.832031 5.921875 59.277344 13.078125 100.117187-15.425781h.003907c1.730469-1.179688 4.046875.25 3.753906 2.324218l-2.652344 18.746094c-.390625 5.308594 5.335938 8.921875 9.933594 6.234375 21.3125-12.457031 35.574219-31.679687 42.570313-42.800781zm0 0" fill="#95d6fc"/><path d="m256.199219 115.164062c-9.820313.042969-18.507813-4.816406-23.777344-12.273437h-.015625l15.839844 409.449219c5.964844.195312 11.847656.230468 19.519531-.152344l12.113281-409.511719h-.015625c-5.199219 7.503907-13.839843 12.445313-23.664062 12.488281zm0 0" fill="#ebeaec"/><path d="m276.660156 211.539062 3.21875-108.867187h-.015625c-5.199219 7.503906-13.839843 12.449219-23.664062 12.492187-9.820313.042969-18.507813-4.820312-23.777344-12.273437h-.015625l4.148438 107.179687c9.84375-14.359374 31.300781-13.632812 40.105468 1.46875zm0 0" fill="#dad9dd"/><path d="m256.078125 88.246094c-11.308594.050781-21.699219-3.890625-29.847656-10.5-.625 2.46875-.984375 5.039062-.972657 7.703125.074219 17.015625 13.933594 30.746093 30.945313 30.667969 17.015625-.078126 30.746094-13.933594 30.667969-30.949219-.011719-2.660157-.398438-5.230469-1.046875-7.691407-8.082031 6.679688-18.4375 10.71875-29.746094 10.769532zm0 0" fill="#fcac1f"/><path d="m260.722656 87.992188c-1.527344.15625-3.078125.246093-4.644531.253906-11.308594.050781-21.699219-3.890625-29.847656-10.5-.625 2.46875-.984375 5.039062-.972657 7.703125.074219 17.015625 13.933594 30.746093 30.945313 30.667969 2.648437-.011719 5.21875-.359376 7.667969-1-11.578125-4.476563-13.40625-20.097657-3.148438-27.125zm0 0" fill="#ff941f"/><path d="m294.628906 22.757812c-12.488281-21.40625-39.964844-28.636718-61.371094-16.148437s-28.632812 39.964844-16.144531 61.371094 39.964844 28.636719 61.367188 16.144531c21.40625-12.488281 28.636719-39.960938 16.148437-61.367188zm0 0" fill="#ffcb37"/><path d="m253.207031 47.144531c-8.738281-14.972656-7.8125-32.914062.847657-46.617187-7.09375.28125-14.226563 2.25-20.785157 6.074218-21.40625 12.492188-28.636719 39.96875-16.148437 61.375 12.492187 21.40625 39.96875 28.636719 61.375 16.144532 6.433594-3.75 11.574218-8.863282 15.296875-14.753906-16.054688.640624-31.925781-7.378907-40.585938-22.222657zm0 0" fill="#fcac1f"/><path d="m295.632812 283.96875c-1.445312-5.480469 1.828126-11.097656 7.3125-12.542969l14.550782-3.832031c5.484375-1.449219 11.097656 1.828125 12.542968 7.3125 1.445313 5.480469-1.828124 11.097656-7.3125 12.542969l-14.546874 3.832031c-5.496094 1.449219-11.105469-1.839844-12.546876-7.3125zm0 0" fill="#ff5252"/><path d="m382.703125 255.792969c-2.339844-2.988281-5.480469-5.648438-9.328125-7.824219-24.640625-13.933594-67.210938-3.980469-67.097656 21.492188.054687 11.355468 9.175781 20.652343 22.945312 24.917968 4.648438 1.441406 5.269532 7.777344 1.039063 10.183594-22.535157 12.816406-50.714844 20.976562-77.636719 28.585938-60.339844 17.058593-86.765625 32.976562-88.359375 53.230468-1.941406 24.644532 33.425781 40.980469 74.378906 59.898438 15.644531 7.226562 71.296875 31.15625 70.792969 47.84375-.074219 2.554687-1.714844 7.46875-10.542969 14.417968 10.339844-1.921874 20.441407-4.523437 30.253907-7.757812.476562-1.984375.753906-3.996094.816406-6.039062.863281-28.507813-39.730469-47.257813-82.707032-67.105469-17.800781-8.222657-34.613281-15.988281-46.863281-23.8125-15.320312-9.785157-15.730469-14.902344-15.65625-15.832031.191407-2.445313 4.636719-15.621094 73.472657-35.082032 14.105468-3.984375 43.515624-12.953125 52.996093-16.738281 71.097657-25.484375 81.4375-45.128906 82.140625-58.46875.496094-9.417969-4.621094-16.792969-10.644531-21.910156zm0 0" fill="#ffcb37"/><path d="m247.253906 427.632812c-17.796875-8.222656-34.613281-15.988281-46.863281-23.8125-15.316406-9.78125-15.726563-14.902343-15.65625-15.828124.195313-2.445313 4.640625-15.625 73.476563-35.082032 16.621093-4.699218 31.214843-9.238281 44.03125-13.609375-8.820313-2.039062-12.246094-12.699219-6.394532-19.507812-50.476562 17.21875-128.828125 31.574219-131.582031 66.585937-1.941406 24.644532 33.425781 40.980469 74.378906 59.898438 15.644531 7.222656 71.296875 31.15625 70.792969 47.84375-.078125 2.554687-1.714844 7.464844-10.542969 14.414062 10.339844-1.917968 20.441407-4.519531 30.253907-7.753906.476562-1.988281.753906-3.996094.816406-6.039062.859375-28.507813-39.730469-47.257813-82.710938-67.109376zm0 0" fill="#fcac1f"/><path d="m82.679688 210.3125c-5.371094-1.746094-7.183594-8.417969-3.390626-12.601562l9.667969-10.667969c119.429688-14.355469 86.160157-121.253907 86.160157-121.253907 6.210937-1.273437 13.753906 2.164063 16.921874 7.660157 14.976563 25.976562 33.636719 37.070312 42.683594 41.1875l1.957032 66.152343c-7.097657 11.058594-21.535157 30.152344-42.957032 42.414063-4.621094 2.644531-10.316406-1.019531-9.878906-6.324219l2.824219-18.722656c.3125-2.070312-1.992188-3.523438-3.734375-2.359375v.003906c-41.097656 28.125-81.476563 20.605469-100.253906 14.511719zm0 0" fill="#73ccf9"/></svg>