<svg height="512pt" viewBox="-8 0 512 512.00026" width="512pt" xmlns="http://www.w3.org/2000/svg"><path d="m495.605469 264.195312c0 136.859376-110.945313 247.804688-247.800781 247.804688-136.859376 0-247.804688-110.945312-247.804688-247.804688 0-136.855468 110.945312-247.800781 247.804688-247.800781 136.855468 0 247.800781 110.945313 247.800781 247.800781zm0 0" fill="#5e73dd"/><path d="m470.765625 372.441406c-2.273437-68.066406-43.589844-93.152344-57.472656-99.679687-3.175781-1.492188-6.070313-3.582031-8.605469-6.113281-.832031-.832032-1.667969-1.648438-2.511719-2.457032-21.089843-20.203125-47.378906-34.015625-75.71875-40.65625-6.40625 20.3125-20.722656 37.3125-39.894531 46.996094-24.375 12.308594-53.144531 12.308594-77.515625 0h-.003906c-19.171875-9.683594-33.488281-26.683594-39.894531-46.996094-28.339844 6.640625-54.628907 20.453125-75.71875 40.65625-.84375.808594-1.679688 1.628906-2.511719 2.460938-2.535157 2.527344-5.429688 4.621094-8.605469 6.113281-13.886719 6.527344-55.199219 31.609375-57.472656 99.675781 40.179687 82.613282 124.917968 139.558594 222.964844 139.558594 98.042968 0 182.78125-56.945312 222.960937-139.558594zm0 0" fill="#f7c696"/><g fill="#f2ba88"><path d="m402.175781 264.191406c-21.089843-20.203125-47.378906-34.015625-75.71875-40.65625-6.40625 20.3125-20.722656 37.3125-39.894531 46.996094-24.375 12.308594-53.144531 12.308594-77.515625 0h-.003906c-19.171875-9.683594-33.488281-26.683594-39.894531-46.996094-28.339844 6.640625-54.628907 20.453125-75.71875 40.65625-.84375.808594-1.679688 1.628906-2.511719 2.457032-2.535157 2.53125-5.429688 4.621093-8.605469 6.113281h.003906c36.695313-6.308594 59.199219 7.285156 69.117188 15.636719 3.023437 2.546874 6.71875 4.109374 10.628906 4.671874 42.027344 6.070313 62.542969 41.085938 62.542969 41.085938l5.0625 6.234375c9.351562 11.507813 26.917969 11.507813 36.269531 0l5.0625-6.234375s15.992188-30.523438 61.804688-41.027344c4-.917968 9.96875-3.695312 13.207031-6.21875 10.71875-8.363281 32.695312-20.09375 67.277343-14.148437-3.171874-1.492188-6.066406-3.582031-8.601562-6.113281-.832031-.828126-1.667969-1.648438-2.511719-2.457032zm0 0"/><path d="m348.867188 104.945312c-.003907 0-.011719 0-.011719 0-.085938 12.15625-2.238281 23.816407-6.140625 34.648438l-4.5 19.734375c3.289062 1.34375 6.882812 2.085937 10.652344 2.085937 15.59375 0 28.234374-12.640624 28.234374-28.234374s-12.640624-28.234376-28.234374-28.234376zm0 0"/><path d="m152.894531 139.59375c-3.90625-10.828125-6.042969-22.492188-6.125-34.648438 0 0-.019531 0-.03125 0-15.59375 0-28.234375 12.640626-28.234375 28.234376s12.640625 28.234374 28.234375 28.234374c3.769531 0 7.363281-.742187 10.652344-2.082031zm0 0"/></g><path d="m348.867188 137.082031c-1.757813 0-3.476563-.167969-5.148438-.476562-.324219 1-.648438 2-1.003906 2.988281l-4.5 19.734375c3.289062 1.34375 6.882812 2.085937 10.652344 2.085937 15.59375 0 28.234374-12.640624 28.234374-28.234374 0-4.359376-.988281-8.484376-2.75-12.167969-4.546874 9.503906-14.25 16.070312-25.484374 16.070312zm0 0" fill="#e5a876"/><path d="m151.886719 136.605469c-1.667969.308593-3.386719.476562-5.148438.476562-11.234375 0-20.9375-6.566406-25.484375-16.066406-1.761718 3.683594-2.75 7.808594-2.75 12.164063 0 15.59375 12.640625 28.238281 28.234375 28.238281 3.773438 0 7.367188-.746094 10.652344-2.085938l-4.496094-19.738281c-.355469-.988281-.679687-1.988281-1.007812-2.988281zm0 0" fill="#e5a876"/><path d="m352.039062 104.234375c0-58.007813-47.386718-104.949219-105.5625-104.2265625-56.171874.6992185-102.070312 46.4921875-102.898437 102.6601565-.191406 12.976562 1.996094 25.417969 6.144531 36.921875l17.703125 77.710937c5.253907 23.054688 20.511719 42.570313 41.617188 53.230469 24.375 12.308594 53.144531 12.308594 77.515625 0 21.109375-10.660156 36.367187-30.171875 41.617187-53.226562l17.707031-77.714844c3.980469-11.039063 6.15625-22.941406 6.15625-35.355469zm0 0" fill="#fcd2a4"/><path d="m244.480469 270.53125c-21.105469-10.660156-36.363281-30.171875-41.617188-53.226562l-17.707031-77.710938c-4.144531-11.503906-6.332031-23.949219-6.140625-36.925781.746094-50.609375 38.085937-92.789063 86.558594-101.152344-6.195313-1.066406-12.578125-1.5859375-19.097657-1.5039062-56.171874.6953122-102.070312 46.4882812-102.898437 102.6562502-.191406 12.976562 1.996094 25.417969 6.144531 36.921875l17.703125 77.710937c5.253907 23.054688 20.511719 42.570313 41.617188 53.226563 17.636719 8.90625 37.570312 11.363281 56.476562 7.382812-7.222656-1.519531-14.300781-3.976562-21.039062-7.378906zm0 0" fill="#f7c696"/><path d="m298.378906 117.121094c-11.085937-14.214844-29.597656-23.535156-50.574218-23.535156-20.980469 0-39.492188 9.320312-50.578126 23.535156-1.695312 2.175781-1.695312 5.199218 0 7.371094 11.085938 14.21875 29.597657 23.539062 50.578126 23.539062 20.976562 0 39.488281-9.320312 50.574218-23.539062 1.695313-2.171876 1.695313-5.195313 0-7.371094zm0 0" fill="#ebeaec"/><path d="m219.875 99.550781c-9.089844 4.121094-16.878906 10.175781-22.648438 17.574219-1.695312 2.171875-1.695312 5.195312 0 7.371094 5.769532 7.394531 13.558594 13.449218 22.648438 17.570312-18.003906-8.523437-18.003906-33.996094 0-42.515625zm0 0" fill="#dad9dd"/><path d="m298.378906 117.121094c-5.679687-7.277344-13.308594-13.261719-22.214844-17.378906 17.589844 8.382812 17.589844 33.75.003907 42.132812 8.902343-4.117188 16.535156-10.101562 22.210937-17.382812 1.695313-2.171876 1.695313-5.195313 0-7.371094zm0 0" fill="#dad9dd"/><path d="m239.28125 94.121094c-17.566406 9.988281-17.632812 43.347656 0 53.375 2.789062.34375 5.628906.535156 8.523438.535156 2.890624 0 5.734374-.191406 8.519531-.535156 17.566406-9.988282 17.632812-43.347656 0-53.375-2.789063-.34375-5.628907-.535156-8.519531-.535156-2.894532 0-5.734376.191406-8.523438.535156zm0 0" fill="#603256"/><path d="m253.507812 137.058594c-4.960937-9.753906-5-22.667969 0-32.5 1.574219-3.097656 3.917969-5.664063 6.71875-7.539063-1.21875-1.132812-2.523437-2.113281-3.902343-2.898437-2.789063-.34375-5.628907-.535156-8.519531-.535156-2.894532 0-5.734376.191406-8.523438.535156-17.5625 9.988281-17.632812 43.347656 0 53.375 2.789062.34375 5.628906.535156 8.523438.535156 2.890624 0 5.730468-.191406 8.519531-.535156 1.382812-.785156 2.683593-1.765625 3.902343-2.898438-2.800781-1.875-5.144531-4.441406-6.71875-7.539062zm0 0" fill="#4f2649"/><path d="m274.527344 212.816406-14.140625-5.84375c-1.699219-.703125-3.589844-.792968-5.347657-.253906l-7.234374 2.214844-7.238282-2.214844c-1.757812-.535156-3.644531-.445312-5.34375.257812l-14.144531 5.839844c-4.046875 1.671875-5.976563 6.3125-4.304687 10.359375 1.675781 4.046875 6.308593 5.972657 10.359374 4.300781l11.515626-4.757812 6.835937 2.089844c1.476563.453125 3.171875.449218 4.636719 0l6.835937-2.089844 11.515625 4.757812c4.058594 1.675782 8.691406-.261718 10.359375-4.300781 1.671875-4.050781-.257812-8.6875-4.304687-10.359375zm0 0" fill="#f2ba88"/><path d="m232.019531 194.480469c4.378907 0 7.929688-3.550781 7.929688-7.929688 0-2.71875 4.183593-5.816406 7.855469-5.816406 3.667968 0 7.851562 3.097656 7.851562 5.816406 0 4.378907 3.550781 7.929688 7.929688 7.929688 4.382812 0 7.933593-3.550781 7.933593-7.929688 0-10.253906-9.742187-21.679687-23.714843-21.679687-13.976563 0-23.714844 11.425781-23.714844 21.679687 0 4.378907 3.550781 7.929688 7.929687 7.929688zm0 0" fill="#f2ba88"/><path d="m395.902344 462.882812c.644531-4.167968.980468-8.402343.980468-12.648437v-45.570313c0-4.144531-3.355468-7.5-7.5-7.5-4.140624 0-7.5 3.355469-7.5 7.5v45.570313c0 8.839844-1.742187 17.582031-5.042968 25.546875 6.558594-4.011719 12.921875-8.3125 19.0625-12.898438zm0 0" fill="#e5a876"/><path d="m367.152344 419.378906c-2.191406-3.515625-1.121094-8.144531 2.394531-10.335937 6.011719-3.75 11.507813-8.28125 16.335937-13.464844l10.0625-10.816406c2.820313-3.03125 7.566407-3.203125 10.597657-.382813 3.03125 2.820313 3.207031 7.566406.382812 10.597656l-10.0625 10.816407c-5.726562 6.152343-12.246093 11.53125-19.375 15.976562-3.53125 2.203125-8.152343 1.105469-10.335937-2.390625zm0 0" fill="#e5a876"/><path d="m247.804688 512c20.589843 0 40.585937-2.519531 59.714843-7.253906l-39.03125-18.453125-20.683593-21.667969-15.6875 25.675781s5.386718 10.15625 2.855468 21.367188c4.25.214843 8.527344.332031 12.832032.332031zm0 0" fill="#f2ba88"/><path d="m277.449219 481.121094c-13.453125-6.40625-22.144531-20.175782-22.144531-35.074219v-71.273437c0-14.898438 8.691406-28.667969 22.144531-35.074219 3.742187-1.78125 5.328125-6.257813 3.546875-9.996094s-6.253906-5.328125-9.996094-3.546875c-9.835938 4.683594-17.832031 12.210938-23.195312 21.304688-5.367188-9.09375-13.363282-16.621094-23.199219-21.304688-3.742188-1.78125-8.21875-.191406-9.996094 3.546875-1.78125 3.738281-.195313 8.214844 3.546875 9.996094 13.453125 6.40625 22.148438 20.175781 22.148438 35.074219v71.273437c0 14.898437-8.695313 28.667969-22.148438 35.074219l-30.390625 14.46875c-.621094.289062-5.90625 2.585937-12.730469 5.542968 7.671875 2.351563 15.5 4.351563 23.46875 5.960938l26.101563-12.429688c9.835937-4.683593 17.832031-12.207031 23.199219-21.300781 5.363281 9.09375 13.359374 16.617188 23.195312 21.300781.050781.023438 12.214844 5.824219 26.085938 12.433594 7.722656-1.558594 15.3125-3.480468 22.753906-5.738281-9.359375-4.46875-22.847656-10.910156-42.390625-20.238281zm0 0" fill="#e5a876"/><path d="m113.722656 450.234375v-45.574219c0-4.140625-3.359375-7.5-7.5-7.5s-7.5 3.359375-7.5 7.5v45.574219c0 4.246094.335938 8.480469.980469 12.648437 6.140625 4.582032 12.503906 8.886719 19.066406 12.894532-3.304687-7.960938-5.046875-16.703125-5.046875-25.542969zm0 0" fill="#e5a876"/><path d="m128.453125 419.378906c2.191406-3.515625 1.117187-8.144531-2.394531-10.335937-6.011719-3.75-11.507813-8.28125-16.332032-13.464844l-10.0625-10.816406c-2.824218-3.03125-7.570312-3.203125-10.601562-.382813-3.03125 2.820313-3.203125 7.566406-.382812 10.597656l10.0625 10.816407c5.726562 6.152343 12.246093 11.53125 19.375 15.976562 3.53125 2.203125 8.152343 1.105469 10.335937-2.390625zm0 0" fill="#e5a876"/><path d="m70.261719 279.757812c-17.75 12.257813-43.636719 39.199219-45.421875 92.683594 9.039062 18.582032 20.335937 35.859375 33.527344 51.488282-15.726563-77.425782 11.894531-144.167969 11.894531-144.171876zm0 0" fill="#f2ba88"/></svg>