<svg id="Capa_1" enable-background="new 0 0 501 501" height="512" viewBox="0 0 501 501" width="512" xmlns="http://www.w3.org/2000/svg"><g><path d="m495.5 256c0 135.31-109.69 245-245 245-2.797 0-5.583-.047-8.357-.14h16.709c0-6.426-5.209-11.635-11.635-11.635h-71.972c-42.628-13.744-80.154-38.851-109.009-71.752v-27.156c0-23.889-19.366-43.255-43.255-43.255-11.277-28.151-17.481-58.882-17.481-91.062 0-135.31 109.69-245 245-245s245 109.69 245 245z" fill="#012d4e"/><path d="m427.955 192.228c0 121.628-98.599 220.227-220.227 220.227-89.319 0-166.219-53.173-200.771-129.592-.963-8.822-1.457-17.785-1.457-26.863 0-135.31 109.69-245 245-245 42.397 0 82.279 10.77 117.059 29.722 37.433 39.476 60.396 92.809 60.396 151.506z" fill="#463b83"/><path d="m380.627 194.231c-1.425.238-2.118 1.866-1.32 3.07 34.342 51.884 71.924 134.357 64.165 167.46-4.868 20.766-23.043 39.527-43.343 34.376-26.877-6.82-41.607-51.532-44.522-60.381-4.11-12.477-9.17-32.569-13.858-55.036-.389-1.863-2.9-2.183-3.746-.479-17.449 35.135-46.528 68.984-77.266 88.867 3.325 42.256 2.424 95.703-.684 120.434-.209 1.664-.577 4.588-1.2 8.317-2.773.093-5.557.14-8.353.14-26.254 0-51.543-4.13-75.254-11.775 2.647-29.774 12.056-67.159 23.573-99.859-22.81-3.454-44.806-17.663-57.229-37.323-20.184 21.113-40.56 40.327-53.191 50.331-3.054 2.419-11.49 9.101-22.162 15.099-18.142-20.685-32.856-44.452-43.255-70.412 27.291-25.738 75.276-53.838 115.1-70.958 10.198-31.913 31.139-65.302 56.153-90.578-28.716 5.172-56.153 8.756-72.304 9.543-9.306.454-56.325 2.745-72.334-19.896-12.091-17.101-1.099-40.797 16.538-52.791 35.579-24.193 171-8.975 219.704 11.891-7.42-25.159-4.628-54.389 10-80.515 26.982-48.189 84.013-67.568 127.383-43.284s56.655 83.034 29.673 131.223c-16.319 29.149-43.633 47.756-72.268 52.536z" fill="#f4aa39"/><path d="m378.064.125c-29.62 39.758-50.54 89.049-59.167 143.563-1.944 12.287-9.483 22.994-20.541 28.692-15.335 7.902-31.677 15.44-43.856 27.62-49.989 49.989-94.5 94-86.599 177.793-9.868-6.118-18.537-14.228-24.969-23.7-.708-1.043-2.206-1.146-3.08-.238-19.609 20.396-39.186 38.802-51.454 48.519-3.054 2.419-11.49 9.101-22.162 15.099-18.142-20.685-32.856-44.452-43.255-70.412 24.772-23.362 66.593-48.671 103.885-65.947 6.989-3.238 12.404-9.077 15.22-16.247 11.143-28.372 30.057-57.021 52.148-79.342-28.716 5.172-56.153 8.756-72.304 9.543-9.306.454-56.325 2.745-72.334-19.896-12.091-17.101-1.099-40.797 16.538-52.791 2.714-1.846 6.009-3.461 9.802-4.863-7.083 3.501-11.103 7.507-11.103 11.764 0 13.705 41.671 24.815 93.076 24.815s93.076-11.11 93.076-24.815c0-2.281-1.155-4.491-3.317-6.589 13.361 3.035 25.195 6.455 34.483 10.074 1.508.588 3.032-.779 2.64-2.35-6.058-24.258-2.838-51.858 11.049-76.66 18.204-32.512 50.087-51.909 82.224-53.632z" fill="#d98800"/><path d="m382.94 164.967c-1.552 2.873-4.506 4.504-7.557 4.504-1.376 0-2.773-.332-4.069-1.031-5.79-3.126-11.869-7.186-17.941-11.882l-6.214 6.214c-3.195 3.195-8.376 3.195-11.571 0s-3.195-8.376 0-11.571l5.246-5.247c-4.471-4.107-8.822-8.461-12.924-12.934l-5.251 5.251c-3.195 3.195-8.376 3.195-11.571 0s-3.195-8.376 0-11.571l6.228-6.229c-4.655-6.03-8.68-12.064-11.784-17.814-2.251-4.169-.696-9.375 3.473-11.626s9.374-.696 11.626 3.473c2.379 4.406 5.415 9.045 8.922 13.731l4.677-4.677c3.195-3.195 8.376-3.195 11.571 0s3.195 8.376 0 11.571l-5.755 5.754c4.079 4.482 8.444 8.85 12.924 12.935l5.76-5.76c3.195-3.195 8.376-3.195 11.571 0s3.195 8.376 0 11.571l-4.693 4.693c4.729 3.547 9.413 6.617 13.859 9.018 4.169 2.252 5.724 7.458 3.473 11.627zm-30.258-102.24h8.182v8.182c0 4.519 3.663 8.182 8.182 8.182s8.182-3.663 8.182-8.182v-8.182h8.182c4.519 0 8.182-3.663 8.182-8.182s-3.663-8.182-8.182-8.182h-8.182v-8.182c0-4.519-3.663-8.182-8.182-8.182s-8.182 3.663-8.182 8.182v8.182h-8.182c-4.519 0-8.182 3.663-8.182 8.182s3.663 8.182 8.182 8.182zm73.636 24.545h-8.182v-8.182c0-4.519-3.663-8.182-8.182-8.182s-8.182 3.663-8.182 8.182v8.182h-8.182c-4.519 0-8.182 3.664-8.182 8.182s3.663 8.182 8.182 8.182h8.182v8.182c0 4.519 3.663 8.182 8.182 8.182s8.182-3.663 8.182-8.182v-8.182h8.182c4.519 0 8.182-3.663 8.182-8.182s-3.663-8.182-8.182-8.182z" fill="#c64b1a"/><path d="m329.028 210.354c6.607.675 13.087 4.353 17.344 10.069.073.098.146.197.219.295 8.071 10.869 5.585 24.823-5.066 29.625-28.792 12.982-59.438 15.433-85.338 6.637-8.795-25.9-6.345-56.546 6.637-85.339 4.802-10.651 18.756-13.136 29.625-5.066.098.073.197.146.295.219 5.716 4.258 9.394 10.738 10.069 17.344.761 7.443 2.305 14.674 4.646 21.568 6.895 2.344 14.126 3.888 21.569 4.648z" fill="#f52c2c"/><path d="m274.389 362.287c-4.491 3.558-9.053 6.847-13.653 9.822.02.25-9.657-10.958-14.221-17.874l-6.788 3.631c-3.985 2.131-8.942.628-11.073-3.356s-.629-8.942 3.356-11.073l6.041-3.231c-2.959-5.367-5.7-10.882-8.138-16.383l-6.527 3.491c-3.985 2.131-8.942.628-11.073-3.356s-.628-8.942 3.356-11.073l8.245-4.41c-1.68-5.004-3.022-9.865-3.955-14.449-.945-4.643 2.053-9.174 6.696-10.119s9.173 2.053 10.119 6.696c.626 3.074 1.472 6.311 2.508 9.653l5.246-2.806c3.984-2.131 8.942-.628 11.073 3.356 2.131 3.984.629 8.942-3.356 11.073l-7.168 3.833c2.387 5.492 5.123 11.033 8.094 16.407l7.698-4.117c3.984-2.131 8.942-.629 11.073 3.356s.629 8.942-3.356 11.073l-6.88 3.68c4.099 6.087 8.401 11.617 12.683 16.176zm18.293-122.287c-4.519 0-8.182 3.663-8.182 8.182v22.728c0 4.519 3.663 8.182 8.182 8.182s8.182-3.663 8.182-8.182v-22.728c0-4.519-3.664-8.182-8.182-8.182zm30 0c-4.519 0-8.182 3.663-8.182 8.182v22.728c0 4.519 3.663 8.182 8.182 8.182s8.182-3.663 8.182-8.182v-22.728c0-4.519-3.664-8.182-8.182-8.182z" fill="#d98800"/><path d="m116.233 42.448c.958-6.81 5.135-14.854 11.36-23.176 9.405-4.422 18.126-6.892 24.989-6.46 1.099.069 3.082 1.715 4.624 3.823 46.745 63.885 96.429 135.88 139.014 202.641 2.769 4.341-2.991 9.038-6.686 5.451-56.815-55.16-117.328-118.326-170.488-176.981-1.753-1.934-2.966-4.208-2.813-5.298z" fill="#fff5f5"/><path d="m187.256 17.246c16.349 20.053 13.347 49.563-6.707 65.913s-49.563 13.347-65.913-6.707-13.347-49.563 6.707-65.913 49.563-13.346 65.913 6.707z" fill="#f52c2c"/><path d="m166.635 14.974c9.929 6.719 13.892 18.202 8.853 25.648s-17.173 8.036-27.101 1.318-13.892-18.202-8.853-25.648 17.173-8.036 27.101-1.318z" fill="#fc5426"/></g></svg>