<?xml version="1.0" encoding="iso-8859-1"?>
<!-- Generator: Adobe Illustrator 19.0.0, SVG Export Plug-In . SVG Version: 6.00 Build 0)  -->
<svg version="1.1" id="Capa_1" xmlns="http://www.w3.org/2000/svg" xmlns:xlink="http://www.w3.org/1999/xlink" x="0px" y="0px"
	 viewBox="0 0 512 512" style="enable-background:new 0 0 512 512;" xml:space="preserve">
<path style="fill:#614182;" d="M512,256c0,40.387-9.365,78.582-26.022,112.552c-19.861,9.196-33.725,29.118-34.169,52.337
	C404.849,476.598,334.564,512,256,512c-78.579,0-148.875-35.416-195.835-91.142c1.865-4.468,2.898-9.37,2.898-14.514
	c0-20.589-16.499-37.313-36.995-37.7C9.383,334.65,0,296.423,0,256C0,114.615,114.615,0,256,0S512,114.615,512,256z"/>
<path style="fill:#3F2F55;" d="M451.498,421.261c-8.722,10.31-18.24,19.924-28.469,28.739H88.971
	c-10.774-9.285-20.76-19.456-29.857-30.395c-2.005-2.41-3.114-5.441-3.114-8.576V390h400v18.869
	C456,413.399,454.424,417.802,451.498,421.261z"/>
<path style="fill:#FF823B;" d="M420,80h-50V55c0-13.807,11.193-25,25-25h25V80z"/>
<path style="fill:#FFF9C8;" d="M486,66v77.493V150v218.507c-9.278,18.931-20.824,36.544-34.285,52.493h-96.632
	c-35.265,0-69.741,10.438-99.084,30c-29.343-19.562-63.819-30-99.084-30h-96.63C46.824,405.051,35.278,387.438,26,368.507V143.493
	c0.575-1.173,0-3.493,0-3.493V66c0-2.761,2.239-5,5-5h59.154H216c22.091,0,40,17.909,40,40c0-22.091,17.909-40,40-40h125.846H481
	C483.761,61,486,63.239,486,66z"/>
<path style="fill:#F5D869;" d="M451,165v10c0,2.761-2.239,5-5,5H296c-2.761,0-5-2.239-5-5v-10c0-2.761,2.239-5,5-5h150
	C448.761,160,451,162.239,451,165z M446,200H296c-2.761,0-5,2.239-5,5v10c0,2.761,2.239,5,5,5h150c2.761,0,5-2.239,5-5v-10
	C451,202.239,448.761,200,446,200z M446,240H296c-2.761,0-5,2.239-5,5v10c0,2.761,2.239,5,5,5h150c2.761,0,5-2.239,5-5v-10
	C451,242.239,448.761,240,446,240z M446,280H296c-2.761,0-5,2.239-5,5v10c0,2.761,2.239,5,5,5h150c2.761,0,5-2.239,5-5v-10
	C451,282.239,448.761,280,446,280z M407,320h-72c-2.761,0-5,2.239-5,5v10c0,2.761,2.239,5,5,5h72c2.761,0,5-2.239,5-5v-10
	C412,322.239,409.761,320,407,320z"/>
<path style="fill:#FFF4A5;" d="M296,61h34c-22.091,0-40,17.909-40,40v332.286c-11.876,4.647-23.282,10.569-34,17.714V101
	C256,78.909,273.909,61,296,61z M427.682,61h-20h-10h-15c-0.906,0-1.8,0.051-2.682,0.145c9.952,1.151,17.682,9.595,17.682,19.855v30
	v39l25-10l25,10V81C447.682,69.954,438.727,61,427.682,61z M26,66v77.493V150v218.507c9.212,18.798,20.661,36.296,34,52.156V120
	V91.336V66c0-2.761,2.239-5,5-5H31C28.239,61,26,63.239,26,66z"/>
<path style="fill:#D6A446;" d="M141,150c-49.626,0-90,40.374-90,90s40.374,90,90,90s90-40.374,90-90S190.626,150,141,150z
	 M141,313.636c-40.603,0-73.636-33.033-73.636-73.636s33.033-73.636,73.636-73.636s73.636,33.033,73.636,73.636
	S181.603,313.636,141,313.636z M141,170.369L71.369,240L141,309.632L210.631,240L141,170.369z M123.849,222.849h34.301v34.302
	h-34.301V222.849z M174.514,227.025L187.489,240l-12.975,12.975L174.514,227.025L174.514,227.025z M153.974,206.486h-25.949
	L141,193.511L153.974,206.486z M107.486,227.025v25.949L94.511,240L107.486,227.025z M128.026,273.515h25.948L141,286.489
	L128.026,273.515z"/>
<path style="fill:#FF9F5A;" d="M467.682,50v80l-25-10l-25,10V80V50c0-10.26-7.73-18.704-17.682-19.855
	c0.881-0.094,1.775-0.145,2.682-0.145h15h10h20C458.727,30,467.682,38.954,467.682,50z"/>
<g>
</g>
<g>
</g>
<g>
</g>
<g>
</g>
<g>
</g>
<g>
</g>
<g>
</g>
<g>
</g>
<g>
</g>
<g>
</g>
<g>
</g>
<g>
</g>
<g>
</g>
<g>
</g>
<g>
</g>
</svg>
