<?xml version="1.0" encoding="iso-8859-1"?>
<!-- Generator: Adobe Illustrator 19.0.0, SVG Export Plug-In . SVG Version: 6.00 Build 0)  -->
<svg version="1.1" id="Capa_1" xmlns="http://www.w3.org/2000/svg" xmlns:xlink="http://www.w3.org/1999/xlink" x="0px" y="0px"
	 viewBox="0 0 512 512" style="enable-background:new 0 0 512 512;" xml:space="preserve">
<path style="fill:#ABD6DC;" d="M512,256c0,141.385-114.615,256-256,256S0,397.385,0,256S114.615,0,256,0S512,114.615,512,256z"/>
<path style="fill:#FA877A;" d="M337.682,80H280V55c0-13.807,11.193-25,25-25h32.682V80z"/>
<path style="fill:#964F32;" d="M409.354,461H166c-11.046,0-20-8.954-20-20V71c0-11.046,8.954-20,20-20h254
	c13.274,9.946,14.899,21.153,26,33.439V427.56C434.899,439.847,422.627,451.054,409.354,461z"/>
<path style="fill:#783823;" d="M290,51.145c0.881-0.094,1.775-0.145,2.682-0.145h15h10h20c11.046,0,20,8.954,20,20v80l-25-10l-25,10
	v-50V71C307.682,60.74,299.952,52.296,290,51.145z M146,433.519V441c0,11.046,8.954,20,20,20h243.354
	c7.88-5.904,15.397-12.264,22.536-19.019H162.318C155.574,441.981,149.623,438.633,146,433.519z M362.714,250
	c-8.779-14.391-24.624-24-42.714-24c-27.614,0-50,22.386-50,50s22.386,50,50,50c18.916,0,41.506-10.506,50-26h76v-50H362.714z"/>
<path style="fill:#EDC555;" d="M160,85.286v142.428c11.651,4.119,20,15.225,20,28.286s-8.349,24.167-20,28.286v144.428
	c11.651,4.119,20,15.225,20,28.286c0,1.357-0.099,2.69-0.273,4H160h-20h-23.063c-0.527,0-1.049-0.018-1.571-0.04
	c-0.643,2.491-1.75,4.795-3.226,6.815C95.193,456.24,79.702,442.725,66,427.561V260V84.439V56c0-11.046,8.954-20,20-20h10
	c5.459,0,10.396,2.194,14,5.743c1.134,1.116,4.008,5.54,4.399,6.46c0.155,0.365,0.929,2.69,0.957,2.796H140h20h19.399
	c0.394,1.939,0.601,3.945,0.601,6C180,70.061,171.651,81.167,160,85.286z M440,87c2.056,0,4.061-0.214,6-0.61V71
	c0-11.046-8.954-20-20-20h-15.399c-0.394,1.939-0.601,3.945-0.601,6C410,73.569,423.431,87,440,87z M410,457
	c0,1.133,0.082,2.246,0.207,3.346c12.929-9.772,24.904-20.739,35.755-32.743C444.035,427.212,442.043,427,440,427
	C423.431,427,410,440.431,410,457z M450,230h-87.286c-8.779-14.391-24.624-24-42.714-24c-27.614,0-50,22.386-50,50s22.386,50,50,50
	c18.916,0,35.375-10.506,43.869-26H450c5.523,0,10-4.477,10-10v-30C460,234.477,455.523,230,450,230z"/>
<path style="fill:#C9993F;" d="M116,51v40H86V70v-5.385V56c0-9.316,6.379-17.121,15-19.344C99.399,36.243,97.73,36,96,36H86
	c-11.046,0-20,8.954-20,20v28.439V90v1v20v20v20v75v20v20v20v75v20v20v20v6.561c6.297,6.97,12.979,13.583,20,19.824V421h30v40h20V51
	H116z M116,401H86v-20h30V401z M116,361H86v-75h30V361z M116,266H86v-20h30V266z M116,226H86v-75h30V226z M116,131H86v-20h30V131z"
	/>
<path style="fill:#FFE473;" d="M370,256c0,22.388-14.715,41.336-35,47.708c-20.285-6.372-35-25.32-35-47.708
	s14.715-41.336,35-47.708C355.285,214.664,370,233.612,370,256z"/>
<path style="fill:#FA9C8E;" d="M377.682,50v80l-25-10l-25,10V80V50c0-10.26-7.73-18.704-17.682-19.855
	c0.881-0.094,1.775-0.145,2.682-0.145h15h10h20C368.727,30,377.682,38.954,377.682,50z"/>
<path style="fill:#189681;" d="M345,256c0,13.807-11.193,25-25,25s-25-11.193-25-25s11.193-25,25-25S345,242.193,345,256z"/>
<path style="fill:#52C3A3;" d="M345,256c0,3.282-0.639,6.412-1.788,9.283c-2.871,1.149-6.002,1.788-9.283,1.788
	c-13.807,0-25-11.193-25-25c0-3.282,0.639-6.412,1.788-9.283c2.871-1.149,6.002-1.788,9.283-1.788C333.807,231,345,242.193,345,256z
	"/>
<g>
</g>
<g>
</g>
<g>
</g>
<g>
</g>
<g>
</g>
<g>
</g>
<g>
</g>
<g>
</g>
<g>
</g>
<g>
</g>
<g>
</g>
<g>
</g>
<g>
</g>
<g>
</g>
<g>
</g>
</svg>
