<?xml version="1.0" encoding="iso-8859-1"?>
<!-- Generator: Adobe Illustrator 19.0.0, SVG Export Plug-In . SVG Version: 6.00 Build 0)  -->
<svg version="1.1" id="Capa_1" xmlns="http://www.w3.org/2000/svg" xmlns:xlink="http://www.w3.org/1999/xlink" x="0px" y="0px"
	 viewBox="0 0 512 512" style="enable-background:new 0 0 512 512;" xml:space="preserve">
<path style="fill:#3C5D78;" d="M512,256c0,141.385-114.615,256-256,256S0,397.385,0,256S114.615,0,256,0S512,114.615,512,256z"/>
<path style="fill:#384E64;" d="M465,256c0,115.428-93.572,209-209,209S47,371.428,47,256S140.572,47,256,47S465,140.572,465,256z"/>
<path style="fill:#FA9C8E;" d="M256,468.693L85.57,256L256,43.307L426.43,256L256,468.693z"/>
<path style="fill:#FA877A;" d="M256,468.693L85.57,256h340.86L256,468.693z"/>
<path style="fill:#FAB0A5;" d="M256,468.693L176.24,256L256,43.307L335.76,256L256,468.693z"/>
<path style="fill:#FFCFC3;" d="M256,43.307L335.76,256H256V43.307z"/>
<path style="fill:#FA9C8E;" d="M256,468.693L176.24,256H256V468.693z"/>
<path style="fill:#52C3A3;" d="M109.701,444.904l6.423,11.744c0.184,0.336,0.459,0.611,0.795,0.795l11.744,6.423
	c1.387,0.759,1.387,2.751,0,3.509l-11.744,6.423c-0.336,0.184-0.611,0.459-0.795,0.795l-6.423,11.744
	c-0.759,1.387-2.751,1.387-3.509,0l-6.423-11.744c-0.184-0.336-0.459-0.611-0.795-0.795l-11.744-6.423
	c-1.387-0.759-1.387-2.751,0-3.509l11.744-6.423c0.336-0.184,0.611-0.459,0.795-0.795l6.423-11.744
	C106.95,443.517,108.943,443.517,109.701,444.904z"/>
<path style="fill:#A5EBCE;" d="M163.31,331.755l-11.744,6.423c-0.336,0.184-0.611,0.459-0.795,0.795l-6.423,11.744
	c-0.759,1.387-2.751,1.387-3.509,0l-6.423-11.744c-0.184-0.336-0.459-0.611-0.795-0.795l-11.743-6.423
	c-1.387-0.759-1.387-2.751,0-3.509l11.743-6.423c0.336-0.184,0.612-0.459,0.795-0.795l6.423-11.744c0.759-1.387,2.751-1.387,3.509,0
	l6.423,11.744c0.183,0.336,0.459,0.612,0.795,0.795l11.744,6.423C164.697,329.004,164.697,330.996,163.31,331.755z M403.644,306.489
	l-11.744-6.423c-0.335-0.184-0.611-0.459-0.795-0.795l-6.423-11.744c-0.759-1.387-2.751-1.387-3.509,0l-6.423,11.744
	c-0.184,0.336-0.459,0.612-0.795,0.795l-11.744,6.423c-1.387,0.759-1.387,2.751,0,3.509l11.744,6.423
	c0.335,0.184,0.611,0.459,0.795,0.795l6.423,11.744c0.759,1.387,2.751,1.387,3.509,0l6.423-11.744
	c0.184-0.336,0.459-0.611,0.795-0.795l11.744-6.423C405.031,309.24,405.031,307.247,403.644,306.489z M88.757,78.96l-11.744-6.423
	c-0.336-0.184-0.612-0.459-0.795-0.795l-6.423-11.744c-0.759-1.387-2.751-1.387-3.51,0l-6.423,11.744
	c-0.183,0.336-0.459,0.612-0.795,0.795L47.325,78.96c-1.387,0.759-1.387,2.751,0,3.509l11.744,6.423
	c0.336,0.184,0.612,0.459,0.795,0.795l6.423,11.744c0.759,1.387,2.751,1.387,3.51,0l6.423-11.744
	c0.184-0.336,0.459-0.612,0.795-0.795l11.744-6.423C90.145,81.711,90.145,79.719,88.757,78.96z"/>
<path style="fill:#C8FAE1;" d="M395.185,76.148l6.423,11.744c0.184,0.336,0.459,0.611,0.795,0.795l11.744,6.423
	c1.387,0.759,1.387,2.751,0,3.509l-11.744,6.423c-0.336,0.184-0.611,0.459-0.795,0.795l-6.423,11.744
	c-0.759,1.387-2.751,1.387-3.509,0l-6.423-11.744c-0.184-0.336-0.459-0.611-0.795-0.795l-11.744-6.423
	c-1.387-0.759-1.387-2.751,0-3.509l11.744-6.423c0.336-0.184,0.612-0.459,0.795-0.795l6.423-11.744
	C392.434,74.761,394.426,74.761,395.185,76.148z"/>
<g>
</g>
<g>
</g>
<g>
</g>
<g>
</g>
<g>
</g>
<g>
</g>
<g>
</g>
<g>
</g>
<g>
</g>
<g>
</g>
<g>
</g>
<g>
</g>
<g>
</g>
<g>
</g>
<g>
</g>
</svg>
