<?xml version="1.0" encoding="iso-8859-1"?>
<!-- Generator: Adobe Illustrator 19.0.0, SVG Export Plug-In . SVG Version: 6.00 Build 0)  -->
<svg version="1.1" id="Capa_1" xmlns="http://www.w3.org/2000/svg" xmlns:xlink="http://www.w3.org/1999/xlink" x="0px" y="0px"
	 viewBox="0 0 512 512" style="enable-background:new 0 0 512 512;" xml:space="preserve">
<path id="SVGCleanerId_0" style="fill:#614182;" d="M512,256c0,141.385-114.615,256-256,256S0,397.385,0,256S114.615,0,256,0
	S512,114.615,512,256z"/>
<g>
	<path id="SVGCleanerId_0_1_" style="fill:#614182;" d="M512,256c0,141.385-114.615,256-256,256S0,397.385,0,256S114.615,0,256,0
		S512,114.615,512,256z"/>
</g>
<path style="fill:#7A549B;" d="M39.563,119.249C84.937,47.586,164.906,0,256,0s171.063,47.586,216.437,119.249L256,335.686
	L39.563,119.249z"/>
<path style="fill:#C9993F;" d="M317.287,123.859l16.643,33.723c0.801,1.623,2.349,2.748,4.14,3.008l37.216,5.408
	c4.51,0.655,6.311,6.198,3.047,9.379l-26.93,26.25c-1.296,1.263-1.887,3.083-1.581,4.867l6.357,37.066
	c0.77,4.492-3.944,7.917-7.978,5.796l-33.287-17.5c-1.602-0.842-3.516-0.842-5.117,0l-33.287,17.5
	c-4.034,2.121-8.749-1.305-7.978-5.796l6.357-37.066c0.306-1.784-0.285-3.604-1.581-4.867l-26.93-26.25
	c-3.264-3.181-1.463-8.724,3.047-9.379l37.216-5.408c1.791-0.26,3.339-1.385,4.14-3.008l16.643-33.723
	C309.442,119.772,315.27,119.772,317.287,123.859z"/>
<path style="fill:#D6A446;" d="M378.333,175.377l-26.93,26.25c-0.028,0.027-0.051,0.058-0.078,0.085
	c-2.973,0.508-6.025,0.787-9.143,0.787c-26.08,0-47.836-18.508-52.853-43.106c0.597-0.49,1.099-1.099,1.451-1.811l16.643-33.723
	c2.017-4.087,7.845-4.087,9.862,0l16.644,33.723c0.801,1.623,2.349,2.748,4.14,3.008l37.216,5.408
	C379.796,166.654,381.597,172.196,378.333,175.377z"/>
<path style="fill:#EDC555;" d="M201.341,22.591l14.067,28.503c0.677,1.372,1.986,2.322,3.499,2.542l31.455,4.571
	c3.812,0.554,5.334,5.238,2.576,7.927l-22.761,22.187c-1.095,1.068-1.595,2.606-1.337,4.114l5.373,31.328
	c0.651,3.797-3.334,6.692-6.743,4.899l-28.134-14.791c-1.354-0.712-2.971-0.712-4.325,0l-28.134,14.791
	c-3.41,1.792-7.394-1.103-6.743-4.899l5.373-31.328c0.259-1.508-0.241-3.046-1.337-4.114l-22.761-22.187
	c-2.758-2.689-1.236-7.373,2.576-7.927l31.455-4.571c1.514-0.22,2.822-1.171,3.499-2.542l14.067-28.503
	C194.711,19.136,199.636,19.136,201.341,22.591z"/>
<path style="fill:#F5D869;" d="M252.938,66.134l-22.761,22.187c-1.095,1.068-1.595,2.606-1.337,4.114l3.153,18.384
	c-29.968-2.967-53.681-27.146-55.956-57.312c1.255-0.356,2.315-1.225,2.901-2.412l14.067-28.503c1.705-3.454,6.63-3.454,8.335,0
	l14.067,28.503c0.677,1.372,1.985,2.322,3.499,2.542l31.455,4.571C254.174,58.761,255.697,63.445,252.938,66.134z"/>
<path style="fill:#EDC555;" d="M384.232,490H129.768c-11.046,0-20-8.954-20-20V222.866c0-7.106,5.76-12.866,12.866-12.866h273.398
	c4.528,0,8.199,3.671,8.199,8.199V470C404.232,481.046,395.277,490,384.232,490z"/>
<path style="fill:#E3B64B;" d="M148.768,300c-11.046,0-20,8.954-20,20v150c0,11.046,8.954,20,20,20h-19c-11.046,0-20-8.954-20-20
	V300v-70h19h274.463l1,2.333V300H148.768z"/>
<g>
	<path style="fill:#FFF9C8;" d="M430.842,274.424c1.131,2.639-0.805,5.576-3.677,5.576H84.835c-2.872,0-4.808-2.936-3.677-5.576
		L108.768,210h294.463L430.842,274.424z"/>
	<path style="fill:#FFF9C8;" d="M309.998,21.04l6.423,11.744c0.184,0.336,0.459,0.611,0.795,0.795l11.744,6.423
		c1.387,0.759,1.387,2.751,0,3.509l-11.744,6.423c-0.336,0.184-0.611,0.459-0.795,0.795l-6.423,11.744
		c-0.759,1.387-2.751,1.387-3.509,0l-6.423-11.744c-0.184-0.336-0.459-0.611-0.795-0.795l-11.744-6.423
		c-1.387-0.759-1.387-2.751,0-3.509l11.744-6.423c0.336-0.184,0.612-0.459,0.795-0.795l6.423-11.744
		C307.248,19.653,309.24,19.653,309.998,21.04z"/>
</g>
<path style="fill:#FFCD61;" d="M103.511,87.528l6.423,11.744c0.184,0.336,0.459,0.611,0.795,0.795l11.744,6.423
	c1.387,0.759,1.387,2.751,0,3.509l-11.744,6.423c-0.336,0.184-0.611,0.459-0.795,0.795l-6.423,11.744
	c-0.759,1.387-2.751,1.387-3.509,0l-6.423-11.744c-0.184-0.336-0.459-0.611-0.795-0.795l-11.744-6.423
	c-1.387-0.759-1.387-2.751,0-3.509l11.744-6.423c0.336-0.184,0.611-0.459,0.795-0.795l6.423-11.744
	C100.76,86.14,102.752,86.14,103.511,87.528z"/>
<path style="fill:#3F2F55;" d="M422.472,109.998l-11.743,6.423c-0.336,0.184-0.612,0.459-0.795,0.795l-6.423,11.744
	c-0.759,1.387-2.751,1.387-3.51,0l-6.423-11.744c-0.183-0.336-0.459-0.612-0.795-0.795l-11.744-6.423
	c-1.387-0.759-1.387-2.751,0-3.509l11.744-6.423c0.335-0.184,0.612-0.459,0.795-0.795l6.423-11.744c0.759-1.387,2.751-1.387,3.51,0
	l6.423,11.744c0.184,0.336,0.459,0.612,0.795,0.795l11.743,6.423C423.86,107.247,423.86,109.24,422.472,109.998z M192.472,166.489
	l-11.743-6.423c-0.336-0.184-0.612-0.459-0.795-0.795l-6.423-11.744c-0.759-1.387-2.751-1.387-3.51,0l-6.423,11.744
	c-0.183,0.336-0.459,0.612-0.795,0.795l-11.744,6.423c-1.387,0.759-1.387,2.751,0,3.509l11.744,6.423
	c0.335,0.184,0.612,0.459,0.795,0.795l6.423,11.744c0.759,1.387,2.751,1.387,3.51,0l6.423-11.744
	c0.184-0.336,0.459-0.612,0.795-0.795l11.743-6.423C193.86,169.24,193.86,167.247,192.472,166.489z"/>
<path style="fill:#FFE473;" d="M283.511,131.835l6.423,11.744c0.184,0.336,0.459,0.611,0.795,0.795l11.744,6.423
	c1.387,0.759,1.387,2.751,0,3.509l-11.744,6.423c-0.336,0.184-0.612,0.459-0.795,0.795l-6.423,11.744
	c-0.759,1.387-2.751,1.387-3.509,0l-6.423-11.744c-0.184-0.336-0.459-0.611-0.795-0.795l-11.744-6.423
	c-1.387-0.759-1.387-2.751,0-3.509l11.744-6.423c0.336-0.184,0.612-0.459,0.795-0.795l6.423-11.744
	C280.76,130.447,282.752,130.447,283.511,131.835z"/>
<g>
</g>
<g>
</g>
<g>
</g>
<g>
</g>
<g>
</g>
<g>
</g>
<g>
</g>
<g>
</g>
<g>
</g>
<g>
</g>
<g>
</g>
<g>
</g>
<g>
</g>
<g>
</g>
<g>
</g>
</svg>
