<?xml version="1.0" encoding="iso-8859-1"?>
<!-- Generator: Adobe Illustrator 19.0.0, SVG Export Plug-In . SVG Version: 6.00 Build 0)  -->
<svg version="1.1" id="Capa_1" xmlns="http://www.w3.org/2000/svg" xmlns:xlink="http://www.w3.org/1999/xlink" x="0px" y="0px"
	 viewBox="0 0 512 512" style="enable-background:new 0 0 512 512;" xml:space="preserve">
<path style="fill:#52C3A3;" d="M512,256c0,141.385-114.615,256-256,256S0,397.385,0,256S114.615,0,256,0S512,114.615,512,256z"/>
<path style="fill:#3C5D78;" d="M482.997,374.434c-9.394,17.967-20.85,34.683-34.068,49.826C406.469,439.817,335.897,450,256,450
	c-78.305,0-147.633-9.784-190.337-24.82c0.005,0.005,0.009,0.01,0.013,0.015C37.58,415.308,21,403.149,21,390
	c0-5.625,3.039-11.068,8.708-16.23c0.002,0.004,0.005,0.009,0.007,0.013c17.07-15.558,58.084-28.559,112.251-36.252L256.004,85.736
	l114.037,251.795C424.966,345.331,466.369,358.588,482.997,374.434z"/>
<path style="fill:#384E64;" d="M383.631,389.565c-41.132,5.283-84.23,8.094-128.636,8.094c-43.674,0-86.085-2.717-126.603-7.832
	c-4.722-0.596-7.519-5.592-5.555-9.927l16.772-37.034C85.041,353.853,50,370.88,50,390c0,31.894,97.469,57.97,220.5,59.883
	c-4.797,0.074-9.629,0.117-14.5,0.117c-129.787,0-235-26.863-235-60c0-22.578,48.851-42.239,121.031-52.479L256.063,85.736
	l11.549,25.499l-96.149,212.297c-10.777,23.795,5.336,51.009,31.372,53.123C229.94,378.856,257.749,380,286.09,380
	c32.796,0,64.874-1.542,95.978-4.472c3.006-0.283,5.858,1.362,7.104,4.112C391.133,383.97,388.346,388.96,383.631,389.565z"/>
<path style="fill:#FFE473;" d="M251.844,199.58l25.399-13.786c1.222-0.664,2.04-1.886,2.186-3.269l3.042-28.738
	c0.185-1.748,1.336-3.007,2.757-3.525l36.258,80.057l-4.923-0.649c-1.379-0.182-2.759,0.327-3.69,1.36l-19.353,21.462
	c-2.345,2.601-6.655,1.384-7.293-2.06l-5.263-28.416c-0.253-1.367-1.163-2.523-2.433-3.089l-26.392-11.774
	C248.94,205.725,248.766,201.25,251.844,199.58z M228.156,275.689l-25.399-13.786c-1.222-0.663-2.04-1.886-2.186-3.269
	l-3.042-28.739c-0.283-2.678-2.833-4.204-5.152-3.673l-36.481,80.55l7.541-0.994c1.379-0.182,2.759,0.327,3.69,1.359l19.353,21.462
	c2.345,2.601,6.655,1.383,7.293-2.06l5.263-28.416c0.253-1.367,1.163-2.523,2.433-3.089l26.392-11.774
	C231.06,281.835,231.234,277.36,228.156,275.689z M339.792,357.146l-14.431-25.038c-0.695-1.205-0.752-2.675-0.153-3.93
	l12.444-26.082c1.508-3.161-1.263-6.679-4.689-5.953l-28.272,5.988c-1.36,0.288-2.776-0.112-3.784-1.069l-20.96-19.895
	c-2.54-2.411-6.742-0.863-7.111,2.62l-3.042,28.738c-0.146,1.383-0.964,2.605-2.186,3.269L242.21,329.58
	c-3.078,1.671-2.904,6.146,0.294,7.573l26.392,11.774c1.27,0.567,2.18,1.722,2.433,3.089l5.263,28.416
	c0.638,3.444,4.947,4.661,7.292,2.06l19.353-21.462c0.931-1.033,2.311-1.541,3.69-1.36l28.651,3.776
	C339.051,363.903,341.541,360.18,339.792,357.146z"/>
<path style="fill:#FFCD61;" d="M155.96,306.765l36.481-80.549c2.302-0.49,4.808,1.026,5.089,3.68l3.042,28.739
	c0.016,0.155,0.044,0.307,0.077,0.457l-25.692,56.729l-7.828-8.681c-0.931-1.033-2.311-1.541-3.69-1.359L155.96,306.765z"/>
<path style="fill:#FFF4A5;" d="M261.247,3.262l17.711,35.886c0.852,1.727,2.5,2.924,4.406,3.201l39.602,5.755
	c4.799,0.697,6.716,6.595,3.243,9.98l-28.656,27.933c-1.379,1.344-2.008,3.281-1.683,5.179l6.765,39.442
	c0.82,4.78-4.197,8.425-8.49,6.168l-35.421-18.622c-1.705-0.896-3.741-0.896-5.446,0l-35.421,18.622
	c-4.293,2.257-9.31-1.388-8.49-6.168l6.765-39.442c0.326-1.898-0.304-3.835-1.683-5.179l-28.656-27.933
	c-3.473-3.385-1.556-9.283,3.243-9.98l39.602-5.755c1.906-0.277,3.553-1.474,4.406-3.201l17.711-35.886
	C252.899-1.087,259.101-1.087,261.247,3.262z"/>
<path style="fill:#FFF9C8;" d="M326.208,58.083l-28.656,27.933c-1.379,1.344-2.008,3.281-1.683,5.179l4.156,24.232
	C265.809,104.69,239.516,76.06,232.107,40.5c0.368-0.402,0.688-0.852,0.936-1.353l17.71-35.885c2.146-4.349,8.348-4.349,10.494,0
	l17.71,35.885c0.852,1.727,2.5,2.924,4.406,3.201l39.602,5.755C327.764,48.8,329.681,54.698,326.208,58.083z"/>
<g>
</g>
<g>
</g>
<g>
</g>
<g>
</g>
<g>
</g>
<g>
</g>
<g>
</g>
<g>
</g>
<g>
</g>
<g>
</g>
<g>
</g>
<g>
</g>
<g>
</g>
<g>
</g>
<g>
</g>
</svg>
