<?xml version="1.0" encoding="iso-8859-1"?>
<!-- Generator: Adobe Illustrator 19.0.0, SVG Export Plug-In . SVG Version: 6.00 Build 0)  -->
<svg version="1.1" id="Capa_1" xmlns="http://www.w3.org/2000/svg" xmlns:xlink="http://www.w3.org/1999/xlink" x="0px" y="0px"
	 viewBox="0 0 512 512" style="enable-background:new 0 0 512 512;" xml:space="preserve">
<path style="fill:#FFCFC3;" d="M512,256c0,141.385-114.615,256-256,256S0,397.385,0,256S114.615,0,256,0S512,114.615,512,256z"/>
<path style="fill:#384E64;" d="M445.201,279.35c3.778,4.379,6.067,10.079,6.067,16.316c0,10.741-6.774,19.897-16.283,23.435
	c3.907,4.411,6.283,10.209,6.283,16.565c0,11.713-8.057,21.541-18.93,24.254c1.868,3.502,2.93,7.5,2.93,11.746
	c0,11.376-7.602,20.971-18.001,24c0.647,2.222,1.001,4.57,1.001,7c0,13.807-11.193,25-25,25c-0.008,0-0.017-0.001-0.025-0.001
	c-0.525,13.343-11.503,24.001-24.975,24.001c-1.114,0-2.209-0.08-3.284-0.222c-1.821,12.014-12.193,21.222-24.716,21.222
	c-1.647,0-3.256-0.164-4.814-0.468C323.062,483.51,313.024,492,301,492c-4.38,0-8.495-1.13-12.075-3.109
	C284.057,502.367,271.155,512,256,512s-28.057-9.633-32.925-23.109C219.495,490.87,215.38,492,211,492
	c-12.024,0-22.062-8.49-24.455-19.801c-1.558,0.304-3.167,0.468-4.814,0.468c-12.523,0-22.894-9.207-24.716-21.222
	c-1.076,0.141-2.17,0.222-3.284,0.222c-13.472,0-24.449-10.657-24.975-24.001c-0.008,0-0.017,0.001-0.025,0.001
	c-13.807,0-25-11.193-25-25c0-2.431,0.354-4.778,1.001-7c-10.399-3.028-18.001-12.623-18.001-24c0-4.246,1.062-8.244,2.93-11.746
	c-10.873-2.713-18.93-12.541-18.93-24.254c0-6.356,2.376-12.154,6.283-16.565c-9.508-3.538-16.283-12.694-16.283-23.435
	c0-6.238,2.29-11.937,6.068-16.316c-9.394-3.596-16.068-12.691-16.068-23.35s6.673-19.754,16.068-23.35
	c-3.778-4.379-6.068-10.079-6.068-16.316c0-10.741,6.775-19.897,16.283-23.435c-3.907-4.411-6.283-10.209-6.283-16.565
	c0-11.713,8.057-21.541,18.93-24.254c-1.868-3.502-2.93-7.5-2.93-11.746c0-11.376,7.602-20.971,18.001-24
	c-0.647-2.222-1.001-4.57-1.001-7c0-13.807,11.193-25,25-25c0.008,0,0.017,0.001,0.025,0.001
	c0.525-13.343,11.503-24.001,24.975-24.001c1.114,0,2.209,0.08,3.284,0.222c1.821-12.014,12.193-21.222,24.716-21.222
	c1.647,0,3.256,0.164,4.814,0.468C188.938,28.49,198.976,20,211,20c4.38,0,8.495,1.13,12.075,3.109C227.943,9.633,240.845,0,256,0
	s28.057,9.633,32.925,23.109C292.505,21.13,296.62,20,301,20c12.024,0,22.062,8.49,24.455,19.801
	c1.558-0.304,3.167-0.468,4.814-0.468c12.523,0,22.894,9.207,24.716,21.222c1.076-0.141,2.17-0.222,3.284-0.222
	c13.472,0,24.449,10.657,24.975,24.001c0.008,0,0.017-0.001,0.025-0.001c13.807,0,25,11.193,25,25c0,2.431-0.354,4.778-1.001,7
	c10.399,3.028,18.001,12.623,18.001,24c0,4.246-1.062,8.244-2.93,11.746c10.873,2.713,18.93,12.541,18.93,24.254
	c0,6.356-2.376,12.154-6.283,16.565c9.508,3.538,16.283,12.694,16.283,23.435c0,6.238-2.29,11.937-6.067,16.316
	c9.394,3.596,16.067,12.691,16.067,23.35S454.596,275.754,445.201,279.35z"/>
<path style="fill:#3C5D78;" d="M461.269,256c0,10.659-6.673,19.754-16.067,23.35c3.778,4.379,6.067,10.079,6.067,16.316
	c0,10.741-6.774,19.897-16.283,23.435c3.907,4.411,6.283,10.209,6.283,16.565c0,11.713-8.057,21.541-18.93,24.254
	c1.868,3.502,2.93,7.5,2.93,11.746c0,11.376-7.602,20.971-18.001,24c0.647,2.222,1.001,4.57,1.001,7c0,13.807-11.193,25-25,25
	c-0.008,0-0.017-0.001-0.025-0.001c-0.525,13.343-11.503,24.001-24.975,24.001c-1.114,0-2.209-0.08-3.284-0.222
	c-1.821,12.014-12.193,21.222-24.716,21.222c-1.647,0-3.256-0.164-4.814-0.468C323.062,483.51,313.024,492,301,492
	c-4.38,0-8.495-1.13-12.075-3.109c-4.617,12.78-16.462,22.087-30.599,23.017c-60.233-59.28-98.992-151.861-98.992-255.908
	S198.093,59.372,258.326,0.092c14.136,0.929,25.982,10.237,30.599,23.017C292.505,21.13,296.62,20,301,20
	c12.024,0,22.062,8.49,24.455,19.801c1.558-0.304,3.167-0.468,4.814-0.468c12.523,0,22.894,9.207,24.716,21.222
	c1.076-0.141,2.17-0.222,3.284-0.222c13.472,0,24.449,10.657,24.975,24.001c0.008,0,0.017-0.001,0.025-0.001
	c13.807,0,25,11.193,25,25c0,2.431-0.354,4.778-1.001,7c10.399,3.028,18.001,12.623,18.001,24c0,4.246-1.062,8.244-2.93,11.746
	c10.873,2.713,18.93,12.541,18.93,24.254c0,6.356-2.376,12.154-6.283,16.565c9.508,3.538,16.283,12.694,16.283,23.435
	c0,6.238-2.29,11.937-6.067,16.316C454.596,236.246,461.269,245.341,461.269,256z"/>
<path style="fill:#2F3450;" d="M420.942,256c0,115.823-73.847,209.717-164.942,209.717S91.058,371.823,91.058,256
	S164.905,46.283,256,46.283S420.942,140.177,420.942,256z"/>
<path style="fill:#384E64;" d="M256,465.717c-13.736,0-27.075-2.148-39.833-6.171C180.626,403.918,159.333,333.111,159.333,256
	s21.293-147.918,56.834-203.545c12.758-4.023,26.097-6.172,39.833-6.172c91.095,0,164.942,93.894,164.942,209.717
	S347.095,465.717,256,465.717z"/>
<path style="fill:#BEE5EB;" d="M405.629,256c0,107.935-66.991,195.434-149.629,195.434S106.371,363.935,106.371,256
	S173.362,60.566,256,60.566S405.629,148.065,405.629,256z"/>
<path style="fill:#ABD6DC;" d="M405.629,256c0,107.935-66.991,195.434-149.629,195.434c-3.926,0-7.817-0.2-11.667-0.588
	c77.185-7.775,137.962-92.039,137.962-194.846S321.518,68.929,244.333,61.154c3.85-0.388,7.74-0.588,11.667-0.588
	C338.638,60.566,405.629,148.065,405.629,256z"/>
<path style="fill:#DAF0F6;" d="M371.186,131.261L183.431,426.936c-16.322-11.846-30.771-27.557-42.617-46.197L328.569,85.064
	C344.891,96.91,359.34,112.621,371.186,131.261z M270.163,61.443L112.205,310.195c3.008,13.639,7.117,26.668,12.203,38.906
	L301.72,69.872C291.625,65.645,281.065,62.781,270.163,61.443z M387.21,162.004L209.531,441.811
	c10.049,4.285,20.562,7.227,31.42,8.643l158.593-249.75C396.484,187.131,392.331,174.173,387.21,162.004z"/>
<g>
</g>
<g>
</g>
<g>
</g>
<g>
</g>
<g>
</g>
<g>
</g>
<g>
</g>
<g>
</g>
<g>
</g>
<g>
</g>
<g>
</g>
<g>
</g>
<g>
</g>
<g>
</g>
<g>
</g>
</svg>
