<?xml version="1.0" encoding="iso-8859-1"?>
<!-- Generator: Adobe Illustrator 19.0.0, SVG Export Plug-In . SVG Version: 6.00 Build 0)  -->
<svg version="1.1" id="Capa_1" xmlns="http://www.w3.org/2000/svg" xmlns:xlink="http://www.w3.org/1999/xlink" x="0px" y="0px"
	 viewBox="0 0 512 512" style="enable-background:new 0 0 512 512;" xml:space="preserve">
<path style="fill:#614182;" d="M512,256c0,141.385-114.615,256-256,256c-14.73,0-29.163-1.261-43.213-3.65
	c11.644-20.927,8.594-47.834-9.181-65.609l-134.35-134.35c-17.774-17.774-44.68-20.824-65.607-9.182C1.261,285.161,0,270.729,0,256
	C0,114.615,114.615,0,256,0S512,114.615,512,256z"/>
<path style="fill:#EDC555;" d="M241.023,58.843c21.479-21.479,56.303-21.479,77.782,0l134.35,134.35
	c21.479,21.479,21.479,56.303,0,77.782l-237.801,237.8C106.526,491.412,20.586,405.471,3.224,296.642L241.023,58.843z"/>
<path style="fill:#FFEF87;" d="M311.277,228.998l113.137-113.137l56.569,56.569L367.845,285.567L311.277,228.998z"/>
<path style="fill:#FFE473;" d="M445.992,137.44L332.855,250.576l-21.578-21.578l113.137-113.137L445.992,137.44z M226.426,144.148
	L339.563,31.011l56.569,56.569L282.995,200.716L226.426,144.148z"/>
<path style="fill:#FFEF87;" d="M360.844,52.292l35.287,35.287L282.995,200.716l-35.287-35.287L360.844,52.292z"/>
<path style="fill:#C9993F;" d="M480.986,172.433c-15.621,15.621-40.948,15.621-56.569,0s-15.621-40.948,0-56.569
	s40.948-15.621,56.569,0S496.607,156.812,480.986,172.433z M339.567,31.014c-15.621,15.621-15.621,40.948,0,56.569
	s40.948,15.621,56.569,0s15.621-40.948,0-56.569C380.515,15.393,355.188,15.393,339.567,31.014z"/>
<path style="fill:#E3B64B;" d="M466.844,158.291c-7.81,7.81-20.474,7.81-28.284,0s-7.81-20.474,0-28.284s20.474-7.81,28.284,0
	C474.655,137.817,474.655,150.48,466.844,158.291z M353.709,45.156c-7.81,7.81-7.81,20.474,0,28.284s20.474,7.81,28.284,0
	c7.81-7.811,7.81-20.474,0-28.284S361.52,37.345,353.709,45.156z"/>
<path style="fill:#FFF9C8;" d="M453.155,270.974L215.354,508.775c-47.524-7.583-90.681-28.24-125.673-58.175l260.941-260.945
	l0.002,0.002c-15.62,15.621-15.62,40.947,0.001,56.568l0,0l24.749,24.749C396.852,292.453,431.676,292.453,453.155,270.974z
	 M322.34,161.373c-15.621,15.62-40.947,15.62-56.568-0.001h-0.001l-24.749-24.749c-21.479-21.479-21.479-56.303,0-77.782
	L3.224,296.642c7.582,47.525,28.239,90.682,58.174,125.675l260.945-260.941L322.34,161.373z"/>
<path style="fill:#FFF4A5;" d="M346.701,241.665L117.223,471.146c-9.648-6.236-18.845-13.106-27.542-20.546l260.941-260.945
	l0.002,0.002C336.447,203.836,335.14,226.01,346.701,241.665z M241.023,58.843L3.224,296.642c2.119,13.282,5.262,26.22,9.341,38.738
	l216.55-216.55C220.842,98.884,224.805,75.061,241.023,58.843z M222.99,221.011l10.742,28.973l23.372-23.372l-28.973-10.742
	C224.924,214.681,221.801,217.804,222.99,221.011z M193.402,261.874l5.89,22.55l21.541-21.541l-22.55-5.89
	C195.326,256.22,192.63,258.917,193.402,261.874z M220.344,455.918l14.495,33.373l24.141-24.141l-33.373-14.495
	C222.277,449.21,218.898,452.589,220.344,455.918z M265.811,430.293l5.804,22.221l21.298-21.298l-22.221-5.804
	C267.734,424.64,265.038,427.336,265.811,430.293z"/>
<g>
</g>
<g>
</g>
<g>
</g>
<g>
</g>
<g>
</g>
<g>
</g>
<g>
</g>
<g>
</g>
<g>
</g>
<g>
</g>
<g>
</g>
<g>
</g>
<g>
</g>
<g>
</g>
<g>
</g>
</svg>
