<?xml version="1.0" encoding="iso-8859-1"?>
<!-- Generator: Adobe Illustrator 19.0.0, SVG Export Plug-In . SVG Version: 6.00 Build 0)  -->
<svg version="1.1" id="Capa_1" xmlns="http://www.w3.org/2000/svg" xmlns:xlink="http://www.w3.org/1999/xlink" x="0px" y="0px"
	 viewBox="0 0 512 512" style="enable-background:new 0 0 512 512;" xml:space="preserve">
<path style="fill:#384E64;" d="M512,256c0,141.385-114.615,256-256,256S0,397.385,0,256S114.615,0,256,0S512,114.615,512,256z"/>
<path style="fill:#DAF0F6;" d="M322,512H190c-33.137,0-60-26.863-60-60V342h252v110C382,485.137,355.137,512,322,512z"/>
<path style="fill:#BEE5EB;" d="M168,390c-5.523,0-10,4.477-10,10v52c0,33.137,26.863,60,60,60h-28c-33.137,0-60-26.863-60-60V342h28
	v8h224v40H168z"/>
<path style="fill:#7FADB9;" d="M302,480h-92c-22.091,0-40-17.909-40-40v-98h172v98C342,462.091,324.091,480,302,480z"/>
<path style="fill:#6599AA;" d="M342,342v98c0,18.638-12.748,34.299-30,38.74V410c0-11.046-8.954-20-20-20H170v-48H342z"/>
<path style="fill:#BEE5EB;" d="M428.064,281.183L428.064,281.183c8.923,8.923,13.936,21.026,13.936,33.645v2.71
	c0,26.278-21.303,47.581-47.581,47.581H117.203c-26.07,0-47.203-21.133-47.203-47.202v-3.246c0-12.519,4.973-24.525,13.825-33.377
	l0,0c10.215-10.215,15.19-24.545,13.502-38.892l-4.623-39.292c-7.7-65.451,24.537-129.15,81.836-161.707l0,0
	c50.476-28.68,112.355-28.527,162.69,0.4l0.178,0.102c56.284,32.347,88.182,94.857,81.347,159.413l-4.363,41.209
	C412.879,256.816,417.904,271.023,428.064,281.183z"/>
<g>
	<path style="fill:#DAF0F6;" d="M394.419,365.119H155.203c-26.069,0-47.203-21.133-47.203-47.203v-3.245
		c0-12.519,4.973-24.525,13.825-33.377c10.215-10.215,15.19-24.545,13.502-38.892l-4.623-39.292
		c-7.7-65.451,24.537-129.15,81.836-161.707l0,0c19.409-11.028,40.505-17.775,61.981-20.28c21.75,2.534,43.106,9.414,62.709,20.68
		l0.178,0.103c56.284,32.347,88.182,94.857,81.347,159.413l-4.363,41.209c-1.513,14.288,3.512,28.495,13.672,38.655l0,0
		c8.923,8.923,13.936,21.026,13.936,33.645v2.71C442,343.816,420.697,365.119,394.419,365.119z"/>
	<path style="fill:#DAF0F6;" d="M211,345v50c0,2.761-2.239,5-5,5h-20c-2.761,0-5-2.239-5-5v-50c0-2.761,2.239-5,5-5h20
		C208.761,340,211,342.239,211,345z M246,340h-20c-2.761,0-5,2.239-5,5v50c0,2.761,2.239,5,5,5h20c2.761,0,5-2.239,5-5v-50
		C251,342.239,248.761,340,246,340z M286,340h-20c-2.761,0-5,2.239-5,5v50c0,2.761,2.239,5,5,5h20c2.761,0,5-2.239,5-5v-50
		C291,342.239,288.761,340,286,340z M326,340h-20c-2.761,0-5,2.239-5,5v50c0,2.761,2.239,5,5,5h20c2.761,0,5-2.239,5-5v-50
		C331,342.239,328.761,340,326,340z M206,440h-20c-2.761,0-5,2.239-5,5v50c0,2.761,2.239,5,5,5h20c2.761,0,5-2.239,5-5v-50
		C211,442.239,208.761,440,206,440z M246,440h-20c-2.761,0-5,2.239-5,5v50c0,2.761,2.239,5,5,5h20c2.761,0,5-2.239,5-5v-50
		C251,442.239,248.761,440,246,440z M286,440h-20c-2.761,0-5,2.239-5,5v50c0,2.761,2.239,5,5,5h20c2.761,0,5-2.239,5-5v-50
		C291,442.239,288.761,440,286,440z M326,440h-20c-2.761,0-5,2.239-5,5v50c0,2.761,2.239,5,5,5h20c2.761,0,5-2.239,5-5v-50
		C331,442.239,328.761,440,326,440z"/>
</g>
<path style="fill:#6599AA;" d="M386,223.476v13.286c0,26.707-23.732,48.357-53.008,48.357l0,0c-25.268,0-47.023-16.27-51.978-38.873
	l-8.397-38.303c-3.723-16.981,10.514-32.824,29.497-32.824h30.879C362.268,175.119,386,196.77,386,223.476z M239.383,207.943
	c3.723-16.981-10.514-32.824-29.497-32.824h-30.879c-29.275,0-53.008,21.65-53.008,48.357v13.286
	c0,26.707,23.732,48.357,53.008,48.357l0,0c25.268,0,47.023-16.27,51.978-38.873L239.383,207.943z M262.071,286.716
	c-3.905-3.905-10.237-3.905-14.142,0L235,299.645c-9.763,9.763-9.763,25.592,0,35.355l0,0c11.046,11.046,28.954,11.046,40,0l0,0
	c9.763-9.763,9.763-25.592,0-35.355L262.071,286.716z"/>
<path style="fill:#40718C;" d="M239.383,207.943l-8.397,38.303c-4.955,22.603-26.71,38.873-51.978,38.873l0,0
	c-4.495,0-8.858-0.515-13.026-1.476c19.446-4.475,34.923-18.784,39.004-37.397l8.397-38.303
	c3.723-16.981-10.514-32.824-29.497-32.824h26C228.869,175.119,243.106,190.962,239.383,207.943z M332.992,175.119h-26
	c29.275,0,53.008,21.65,53.008,48.357v13.286c0,22.606-17.006,41.584-39.982,46.881c4.168,0.959,8.514,1.476,12.974,1.476l0,0
	c29.275,0,53.008-21.65,53.008-48.357v-13.286C386,196.77,362.268,175.119,332.992,175.119z M262.071,286.716
	c-3.905-3.905-10.237-3.905-14.142,0l-4.59,4.59l8.339,8.339c9.763,9.763,9.763,25.592,0,35.355l0,0
	c-2.484,2.484-5.317,4.404-8.339,5.771c10.416,4.711,23.099,2.791,31.661-5.771c9.763-9.763,9.763-25.592,0-35.355L262.071,286.716z
	"/>
<g>
</g>
<g>
</g>
<g>
</g>
<g>
</g>
<g>
</g>
<g>
</g>
<g>
</g>
<g>
</g>
<g>
</g>
<g>
</g>
<g>
</g>
<g>
</g>
<g>
</g>
<g>
</g>
<g>
</g>
</svg>
