<?xml version="1.0" encoding="iso-8859-1"?>
<!-- Generator: Adobe Illustrator 19.0.0, SVG Export Plug-In . SVG Version: 6.00 Build 0)  -->
<svg version="1.1" id="Capa_1" xmlns="http://www.w3.org/2000/svg" xmlns:xlink="http://www.w3.org/1999/xlink" x="0px" y="0px"
	 viewBox="0 0 512.001 512.001" style="enable-background:new 0 0 512.001 512.001;" xml:space="preserve">
<path style="fill:#614182;" d="M512.001,256.001c0,141.385-114.615,256-256,256s-256-114.615-256-256s114.615-256,256-256
	S512.001,114.616,512.001,256.001z"/>
<path style="fill:#F5D869;" d="M292.427,179.985l-42.426-42.426L412.024,2.539c4.351-3.626,10.749-3.336,14.753,0.669l0,0
	c4.005,4.005,4.295,10.402,0.669,14.753L292.427,179.985z"/>
<path style="fill:#EDC555;" d="M429.937,10.048c-2.768-0.225-5.614,0.589-7.896,2.491l-8.152,6.793
	c-4.512,3.76-4.187,10.789,0.653,14.116l0,0l-12.859,15.43l-7.203-4.952c-3.274-2.251-7.646-2.049-10.698,0.495l-3.867,3.223
	c-4.512,3.76-4.187,10.789,0.653,14.116l6.6,4.537l-12.858,15.43l-13.803-9.489c-3.274-2.251-7.646-2.049-10.698,0.495l-3.867,3.223
	c-4.512,3.76-4.187,10.789,0.653,14.116l13.199,9.074l-12.859,15.431l-20.403-14.027c-3.274-2.251-7.646-2.049-10.698,0.495
	l-3.867,3.223c-4.512,3.76-4.187,10.789,0.653,14.116l19.799,13.612l-12.859,15.431l-27.003-18.565
	c-3.274-2.251-7.646-2.049-10.698,0.495l-21.84,18.201l-10.016-10l35.594-29.662l5.32-4.433l0,0l18.016-15.013l15.959-13.299l0,0
	l25.995-21.663l7.979-6.649l0,0l53.161-44.301c4.351-3.626,10.749-3.335,14.753,0.669C428.677,5.108,429.73,7.546,429.937,10.048z"
	/>
<path style="fill:#FFDED6;" d="M420.001,282.897v31.104c0,22.091-17.909,40-40,40H228.423
	c27.165,44.011,46.994,97.406,56.743,156.336c-9.573,1.086-19.301,1.664-29.165,1.664c-141.385,0-256-114.615-256-256
	c0-7.623,0-35.442,0-42c0-36.328,13.838-69.422,36.529-94.304c-13.154-14.523-12.727-36.97,1.281-50.978
	c3.905-3.905,10.237-3.905,14.142,0L73.834,90.6c19.704-10.587,42.232-16.599,66.167-16.599c39.172,0,74.579,16.095,99.989,42.023
	l0.011-0.023L405.405,252C414.646,259.598,420.001,270.934,420.001,282.897z"/>
<path style="fill:#FAC0B4;" d="M37.811,121.045c-14.449-14.449-14.449-37.876,0-52.326c3.905-3.905,10.237-3.905,14.142,0
	l16.513,16.513c-3.905-3.905-10.237-3.905-14.142,0l0,0c-14.449,14.449-14.449,37.876,0,52.326L37.811,121.045z M130.001,354.001
	l0.161-0.349c-31.492-2.187-60.109-14.793-82.442-34.388v16.004c22.333,19.593,50.951,32.197,82.442,34.384l-0.161,0.349h107.748
	c-3.003-5.461-6.114-10.795-9.326-16H130.001z M260.001,190.001c-16.569,0-30,13.432-30,30s13.431,30,30,30s30-13.432,30-30
	S276.57,190.001,260.001,190.001z"/>
<path style="fill:#E6A0FA;" d="M111.396,128.162L73.854,90.62c5.225-2.807,10.636-5.312,16.231-7.448
	c0.002,0,0.003-0.001,0.005-0.002c3.779-1.442,7.631-2.735,11.559-3.851c9.523-11.384,23.988-18.436,39.974-17.916
	c5.935,0.193,11.592,1.418,16.812,3.488c0.294-0.444,0.588-0.889,0.898-1.327c15.958-22.537,47.164-27.87,69.7-11.912
	c18.8,13.313,25.615,37.233,18.099,57.883c-2.772-3.375-6.024-6.447-9.761-9.092c-3.077-2.179-6.319-3.947-9.659-5.342
	c0.244,0.785,0.473,1.578,0.681,2.382c5.772,22.301-4.456,44.973-23.523,55.898c0.06-4.367-0.443-8.813-1.59-13.245
	c-1.861-7.188-5.2-13.6-9.599-19.005c-1.902,2.019-3.949,3.897-6.112,5.638c-5.338,16.521-19.006,29.188-35.922,33.23
	c1.289-4.173,2.059-8.58,2.208-13.155c0.077-2.359-0.031-4.681-0.273-6.963c-1.186,0.07-2.378,0.118-3.582,0.118
	c-14.457,0-27.824-4.313-38.257-12.304C111.626,127.851,111.513,128.008,111.396,128.162z M217.343,364.037
	c-4.664-0.144-9.236,0.144-13.68,0.817c21.561,9.264,36.606,30.794,36.335,55.812c-0.344,31.688-25.76,57.955-57.421,59.28
	c-0.672,0.028-1.343,0.045-2.01,0.051c-14.404,0.132-28.279-5.504-38.925-15.208c-45.621-41.584-75.787-99.83-80.87-165.121
	c10.844-1.238,21.192-5.994,29.23-13.815c-4.215-1.144-8.35-2.851-12.295-5.174c-7.272-4.281-13.053-10.121-17.189-16.84
	c0.095-1.49,0.208-2.977,0.329-4.459c19.172,3.08,38.351-5.339,49.156-21.163c-4.358-0.284-8.75-1.134-13.078-2.627
	c-10.633-3.667-19.234-10.562-25.088-19.21c9.716,3.797,20.697,4.599,31.523,1.598c22.199-6.154,36.717-26.35,36.643-48.325
	c-3.752,2.236-7.853,4.024-12.264,5.247c-14.681,4.07-29.642,1.138-41.35-6.768c0.06-0.12,0.124-0.237,0.184-0.357
	c-2.417-1.127-4.691-2.662-6.686-4.657l-42.076-42.073c-0.434-0.434-0.854-0.877-1.262-1.328
	c-22.692,24.88-36.548,57.957-36.548,94.284c0,6.558,0.459,13.008,1.332,19.325c-0.108,0.021-0.218,0.039-0.326,0.06
	c-0.653,7.453-1.006,14.992-1.006,22.615c0,114.516,75.193,211.465,178.899,244.179c8.499,2.681,45.505,10.118,56.488,10.993
	c30.898-8.711,53.713-36.704,54.587-70.177C291.047,399.968,258.365,365.296,217.343,364.037z M405.405,252l-21.012-17.276
	c-34.432,29.632-57.824,71.723-63.199,119.277h58.807c22.091,0,40-17.909,40-40v-31.104
	C420.001,270.934,414.646,259.598,405.405,252z"/>
<path style="fill:#D587EB;" d="M90.337,107.103L73.854,90.62c5.225-2.807,10.636-5.312,16.231-7.448
	c0.002,0,0.003-0.001,0.005-0.002c3.779-1.442,7.631-2.735,11.559-3.851c9.523-11.384,23.988-18.436,39.974-17.916
	c5.935,0.193,11.592,1.418,16.812,3.488c0.294-0.444,0.588-0.889,0.898-1.327c15.958-22.537,47.164-27.87,69.7-11.912
	c5.713,4.045,10.312,9.074,13.746,14.689c-22.265-13.7-51.64-7.934-66.963,13.705c-0.31,0.438-0.604,0.883-0.898,1.327
	c-5.22-2.07-10.877-3.296-16.812-3.488c-15.986-0.52-30.451,6.531-39.974,17.916c-3.928,1.116-7.78,2.408-11.559,3.851
	c-0.002,0.001-0.003,0.002-0.005,0.002C100.973,101.792,95.562,104.297,90.337,107.103z M160.001,370.001
	c0-7.941-1.174-15.606-3.329-22.848c-9.449,30.607-37.961,52.848-71.671,52.848c-0.175,0-0.35,0-0.524-0.002
	c-22.707-0.156-42.858-14.491-51.012-35.685c-10.965-28.504-16.981-59.462-16.981-91.83c0-7.623,0-35.442,0-42
	c0-36.312,13.843-69.375,36.516-94.25l-15.189-15.189c-0.434-0.434-0.854-0.877-1.262-1.328
	c-22.692,24.88-36.548,57.957-36.548,94.284c0,6.558,0,34.377,0,42c0,74.886,32.163,142.251,83.419,189.062
	c-0.091-0.1-0.179-0.203-0.27-0.302c1.728,1.62,3.482,3.223,5.295,4.793C128.658,445.335,160.001,411.331,160.001,370.001z
	 M199.464,492.849c-24.708,0-47.669-4.6-66.808-12.483c36.585,20.155,78.622,31.635,123.345,31.635
	c14.016,0,27.762-1.144,41.166-3.311c14.673-12.982,23.289-28.786,23.289-45.841c0-7.941-1.894-15.606-5.371-22.848
	C299.842,470.608,253.845,492.849,199.464,492.849z M385.001,300.001c8.284,0,15-6.716,15-15s-6.716-15-15-15s-15,6.716-15,15
	S376.717,300.001,385.001,300.001z M365.001,330.001c-2.761,0-5,2.239-5,5s2.239,5,5,5h45.384c2.557-2.985,4.682-6.349,6.278-10
	H365.001z"/>
<path style="fill:#384E64;" d="M275.001,220.001c0,8.284-6.716,15-15,15c-8.284,0-15-6.716-15-15s6.716-15,15-15
	C268.285,205.001,275.001,211.717,275.001,220.001z"/>
<g>
</g>
<g>
</g>
<g>
</g>
<g>
</g>
<g>
</g>
<g>
</g>
<g>
</g>
<g>
</g>
<g>
</g>
<g>
</g>
<g>
</g>
<g>
</g>
<g>
</g>
<g>
</g>
<g>
</g>
</svg>
