<?xml version="1.0" encoding="iso-8859-1"?>
<!-- Generator: Adobe Illustrator 19.0.0, SVG Export Plug-In . SVG Version: 6.00 Build 0)  -->
<svg version="1.1" id="Capa_1" xmlns="http://www.w3.org/2000/svg" xmlns:xlink="http://www.w3.org/1999/xlink" x="0px" y="0px"
	 viewBox="0 0 512 512" style="enable-background:new 0 0 512 512;" xml:space="preserve">
<path style="fill:#3AC184;" d="M512,256c0,141.385-114.615,256-256,256c-65.17,0-124.635-24.346-169.827-64.439l-0.01-0.01
	c-45.474-40.344-76.476-96.632-84.24-160.11v-0.01C0.648,277.128,0,266.647,0,256C0,114.615,114.615,0,256,0S512,114.615,512,256z"
	/>
<circle style="fill:#52D1A5;" cx="256" cy="200.652" r="200.652"/>
<path style="fill:#574D70;" d="M288.611,326.29c-32.559-26.739-87.677-132.033-98.022-153.934c-1.128-2.372-1.735-3.783-1.735-4.023
	c-1.787-0.491-3.584-0.951-5.392-1.379c-10.574-2.497-21.41-3.845-32.277-4.002c-1.557-0.021-3.114-0.021-4.671,0
	c-10.344,0.167-20.71,1.411-30.908,3.762h-0.042c-0.627,0.136-1.243,0.293-1.87,0.439c-0.031,0.01-0.052,0.021-0.052,0.021
	c-18.693,4.545-36.801,12.821-53.248,24.973C28.003,216.085,8.098,250.629,1.923,287.43v0.01
	c7.764,63.478,38.766,119.766,84.24,160.11l0.01,0.01c47.909,22.215,106.151,18.265,151.625-15.35
	c6.457-4.765,12.413-9.958,17.857-15.506c0.543-0.543,1.066-1.087,1.578-1.63c0.01-0.01,0.031-0.021,0.042-0.031
	c1.348-1.411,2.654-2.842,3.939-4.294c11.222-12.748,19.978-27.115,26.154-42.381c0.69-1.682,1.348-3.385,1.964-5.089
	c1.16-3.208,2.226-6.447,3.166-9.718c2.069-7.199,3.605-14.535,4.587-21.964C294.494,330.606,291.652,328.788,288.611,326.29z"/>
<g>
	<path style="fill:#463F5B;" d="M238.864,431.397c-0.355,0.272-0.7,0.554-1.066,0.815c-45.474,33.614-103.717,37.564-151.625,15.35
		l-0.01-0.01c-45.474-40.344-76.476-96.632-84.24-160.11c6.175-36.812,26.081-71.356,58.472-95.295
		c11.086-8.192,22.936-14.587,35.213-19.31c-65.285,49.225-78.858,141.96-30.177,207.862
		C106.203,435.869,177.779,454.834,238.864,431.397z"/>
	<path style="fill:#463F5B;" d="M288.611,326.29c-27.554-14.838-50.96-36.404-68.023-62.537
		c-17.335-26.53-28.108-57.752-29.999-91.397c-1.128-2.372-1.735-3.783-1.735-4.023c-1.787-0.491-3.584-0.951-5.392-1.379
		c-10.574-2.497-21.41-3.845-32.277-4.002c-1.557-0.021-3.114-0.021-4.671,0c-0.752,5.82-1.223,11.734-1.421,17.721
		c-0.084,2.748-0.115,5.507-0.084,8.286c0.428,36.895,11.504,71.168,30.302,99.934c21.337,32.684,52.642,58.253,89.537,72.432
		c7.304,2.8,14.817,5.172,22.518,7.043c0.69-1.682,1.348-3.385,1.964-5.089c1.16-3.208,2.226-6.447,3.166-9.718
		c2.069-7.199,3.605-14.535,4.587-21.964C294.494,330.606,291.652,328.788,288.611,326.29z"/>
</g>
<path style="fill:#E6E6E6;" d="M128.909,304.013c-1.212,33.98-25.234,60.719-53.666,59.716c-9.289-0.334-17.899-3.584-25.234-8.997
	c-15.109-11.16-24.848-31.504-24.033-54.376c0.543-15.078,5.559-28.724,13.469-39.152c9.906-13.093,24.367-21.128,40.187-20.564
	C108.042,241.654,130.111,270.023,128.909,304.013z"/>
<circle style="fill:#D6DFE8;" cx="343.071" cy="181.091" r="168.929"/>
<circle style="fill:#EAF1F9;" cx="445.68" cy="109.808" r="32.912"/>
<path style="fill:#ED55A9;" d="M511.394,169.127l-53.332-28.808l-44.68-24.148L287.817,48.337l-27.261-14.723
	c-25.078,13.96-46.874,34.461-62.548,60.667c-1.275,2.132-2.508,4.305-3.709,6.52c-15.841,29.341-22.12,61.283-19.884,92.244h0.01
	l54.084,29.226l196.733,106.297c27.136-15.109,50.406-37.857,66.257-67.197C507.35,232.04,513.63,200.098,511.394,169.127z"/>
<g>
	<path style="fill:#463F5B;" d="M292.498,353.562c-0.94,3.271-2.006,6.51-3.166,9.718c-6.238,17.168-15.653,33.311-28.118,47.47
		c13.688-18.286,3.636-49.424,3.636-49.424L292.498,353.562z"/>
	<path style="fill:#463F5B;" d="M183.463,166.954c-13.845,19.759-29.602,35.516-38.452,22.006
		c-14.043-21.431-25.088-22.758-29.403-22.246c11.734-2.706,23.688-3.939,35.579-3.762
		C162.053,163.109,172.889,164.456,183.463,166.954z"/>
</g>
<path style="fill:#D6DFE8;" d="M420.501,152.813c26.534,14.327,34.894,50.273,18.682,80.292
	c-16.212,30.005-50.872,42.721-77.406,28.38c-26.534-14.327-34.893-50.287-18.682-80.292
	C359.307,151.175,393.966,138.473,420.501,152.813z"/>
<g>
	<path style="fill:#B6C5D3;" d="M312.023,329.687c17.785,9.62,36.545,15.692,55.448,18.5c-4.082,0.598-8.191,1.066-12.325,1.365
		c-3.094,0.22-6.201,0.364-9.308,0.429c-8.464,0.156-16.952-0.325-25.43-1.457c-0.416-0.052-0.819-0.117-1.235-0.169
		c-1.248-0.182-2.483-0.364-3.731-0.573c-0.494-0.078-0.975-0.169-1.469-0.247c-1.274-0.221-2.549-0.456-3.822-0.715l-1.015-0.195
		c-5.538-1.132-11.051-2.548-16.51-4.264c-0.468-0.143-0.936-0.299-1.404-0.442c-0.559-0.182-1.131-0.364-1.69-0.559
		c-9.14-3.055-18.149-6.93-26.911-11.675c-19.384-10.478-35.908-24.195-49.233-40.12c-22.933-27.392-36.454-61.324-38.976-96.517
		h0.013l54.083,29.226c6.163,24.506,17.785,47.596,34.283,67.291C276.115,305.493,292.639,319.208,312.023,329.687z"/>
	<path style="fill:#B6C5D3;" d="M287.816,48.339l-27.262-14.73c25.156-14.028,53.615-21.451,82.516-21.451
		c1.014,0,2.028,0.013,3.042,0.026c1.027,0.026,2.054,0.052,3.081,0.091c1.027,0.039,2.067,0.078,3.094,0.143
		c1.027,0.052,2.067,0.117,3.094,0.195c2.067,0.156,4.121,0.351,6.188,0.572c2.054,0.234,4.121,0.494,6.175,0.806
		c-20.255,2.99-39.86,9.62-57.788,19.618C302.247,37.913,294.837,42.827,287.816,48.339z"/>
</g>
<path style="fill:#DB428F;" d="M287.816,48.339c-15.77,12.389-29.551,27.795-40.406,45.944c-1.274,2.133-2.509,4.303-3.705,6.513
	c-15.848,29.343-22.127,61.285-19.891,92.253c0.702,9.881,2.288,19.658,4.694,29.226l-54.083-29.226h-0.013
	c-2.236-30.968,4.043-62.91,19.891-92.253c1.196-2.21,2.431-4.381,3.705-6.513c15.679-26.209,37.468-46.711,62.547-60.674
	L287.816,48.339z"/>
<path style="fill:#CCCCCC;" d="M50.009,354.732c-15.109-11.16-24.848-31.504-24.033-54.376c0.543-15.078,5.559-28.724,13.469-39.152
	C32.925,292.122,36.206,324.974,50.009,354.732z"/>
<g>
	<path style="fill:#463F5B;" d="M92.226,284.187c0,8.537-3.816,13.559-9.441,15.667c6.93,2.511,11.55,8.435,11.55,18.78v1.205
		c0,14.964-9.843,20.689-22.497,20.689s-22.597-5.725-22.597-20.689v-1.205c0-10.344,4.621-16.27,11.55-18.78
		c-5.523-2.11-9.34-7.13-9.34-15.667c0-12.855,8.638-17.675,20.388-17.675S92.226,271.333,92.226,284.187z M83.689,316.928
		c0-8.637-4.419-12.553-11.851-12.553s-11.952,3.916-11.952,12.553v1.808c0,8.938,4.619,12.956,11.952,12.956
		c7.533,0,11.851-4.218,11.851-12.956V316.928z M61.795,285.393c0,7.231,3.717,10.144,10.043,10.144
		c6.328,0,10.043-2.912,10.043-10.144c0-7.13-3.716-10.044-10.043-10.044S61.795,278.263,61.795,285.393z"/>
	<path style="fill:#463F5B;" d="M404.253,232.768l-0.904,1.565c-8.141,14.086-19.729,14.466-30.683,8.135
		c-11.044-6.382-16.5-16.611-8.359-30.697l14.623-25.303c8.141-14.086,19.901-14.366,31.119-7.883
		c13.042,7.537,14.456,19.141,10.185,26.533c-1.709,2.956-3.74,3.058-6.61,1.4c-2.521-1.458-4.379-3.46-2.772-6.242
		c2.765-4.782-0.135-10.402-5.7-13.618c-6.696-3.869-12.669-2.566-17.091,5.087l-6.332,10.956
		c5.069-1.944,10.169-0.736,15.038,2.079C406.505,210.406,412.093,219.203,404.253,232.768z M373.135,217.568
		c-4.472,7.74-2.569,13.478,3.952,17.248c6.434,3.719,12.27,2.451,16.743-5.288l0.853-1.477c4.574-7.913,2.506-13.168-4.016-16.937
		c-6.261-3.618-11.956-3.197-16.227,4.194L373.135,217.568z"/>
</g>
<path style="fill:#F486C3;" d="M458.062,140.319c-3.824,1.546-8.004,2.403-12.382,2.403c-16.008,0-29.341-11.421-32.298-26.551
	L458.062,140.319z"/>
<path style="fill:#463F5B;" d="M257.233,415.075c-0.512,0.543-1.034,1.087-1.578,1.63
	C256.094,416.162,256.616,415.619,257.233,415.075z"/>
<g>
</g>
<g>
</g>
<g>
</g>
<g>
</g>
<g>
</g>
<g>
</g>
<g>
</g>
<g>
</g>
<g>
</g>
<g>
</g>
<g>
</g>
<g>
</g>
<g>
</g>
<g>
</g>
<g>
</g>
</svg>
