<?xml version="1.0" encoding="iso-8859-1"?>
<!-- Generator: Adobe Illustrator 19.0.0, SVG Export Plug-In . SVG Version: 6.00 Build 0)  -->
<svg version="1.1" id="Capa_1" xmlns="http://www.w3.org/2000/svg" xmlns:xlink="http://www.w3.org/1999/xlink" x="0px" y="0px"
	 viewBox="0 0 512 512" style="enable-background:new 0 0 512 512;" xml:space="preserve">
<path style="fill:#ED55A9;" d="M512,256c0,141.385-114.615,256-256,256c-12.204,0-24.2-0.857-35.955-2.508
	c-8.119-1.139-16.123-2.664-23.991-4.556c-85.713-20.564-154.655-84.24-182.606-166.828c-2.445-7.252-4.587-14.639-6.384-22.162
	C2.445,296.72,0,276.647,0,256C0,114.615,114.615,0,256,0c20.647,0,40.72,2.445,59.946,7.064c16.541,3.96,32.455,9.54,47.574,16.541
	c54.972,25.475,99.38,69.883,124.865,124.855c6.541,14.106,11.839,28.923,15.736,44.283c0.282,1.097,0.554,2.205,0.815,3.302
	c1.818,7.555,3.291,15.245,4.42,23.05C511.101,231.142,512,243.472,512,256z"/>
<path style="fill:#F486C3;" d="M465.871,209.871c0,115.908-93.962,209.871-209.871,209.871c-10.005,0-19.839-0.702-29.477-2.056
	c-6.656-0.934-13.218-2.184-19.668-3.734c-70.268-16.858-126.788-69.06-149.703-136.767c-2.004-5.945-3.761-12.002-5.234-18.169
	c-3.787-15.761-5.791-32.217-5.791-49.144C46.129,93.962,140.092,0,256,0c16.926,0,33.382,2.004,49.144,5.791
	c13.561,3.246,26.606,7.821,39.002,13.561c45.066,20.884,81.473,57.291,102.366,102.357c5.362,11.564,9.705,23.711,12.9,36.303
	c0.231,0.9,0.453,1.808,0.668,2.707c1.49,6.193,2.698,12.498,3.624,18.897C465.134,189.492,465.871,199.6,465.871,209.871z"/>
<g>
	<rect x="487.476" y="179.064" style="fill:#463F5B;" width="24.501" height="30.713"/>
	<path style="fill:#463F5B;" d="M506.169,194.8c-0.052-0.063-0.104-0.115-0.157-0.167l-160.11-160.11
		c-7.973-7.973-20.898-7.973-28.881,0L155.784,195.772L13.448,338.108c27.951,82.589,96.893,146.265,182.606,166.828
		c7.868,1.891,15.872,3.417,23.991,4.556l124.719-124.729L481.28,248.247l24.733-24.733c1.348-1.348,2.466-2.842,3.344-4.42
		C513.724,211.372,512.658,201.425,506.169,194.8z"/>
</g>
<path style="fill:#574D70;" d="M506.013,166.087l-17.627-17.627L363.52,23.604L345.903,5.987c-7.973-7.983-20.898-7.983-28.881,0
	L7.064,315.946c1.797,7.523,3.939,14.911,6.384,22.162c27.951,82.589,96.893,146.265,182.606,166.828l148.71-148.72L481.28,219.7
	l23.656-23.656l1.076-1.076c0.052-0.052,0.104-0.104,0.157-0.167C513.985,186.817,513.933,174.017,506.013,166.087z"/>
<g>
	<path style="fill:#463F5B;" d="M241.332,379.491c-3.128-3.128-5.519-6.821-7.105-10.977c-2.993-7.824-2.761-16.353,0.657-24.007
		c3.419-7.653,9.612-13.515,17.439-16.504c11.549-4.416,24.666-1.619,33.412,7.128c3.127,3.127,5.519,6.821,7.108,10.978
		c6.171,16.161-1.957,34.333-18.116,40.513C263.179,391.032,250.073,388.232,241.332,379.491z"/>
	<path style="fill:#463F5B;" d="M142.97,477.852c-3.128-3.128-5.519-6.821-7.105-10.977c-2.993-7.824-2.761-16.353,0.657-24.007
		c3.419-7.653,9.612-13.515,17.439-16.504c11.549-4.416,24.666-1.619,33.412,7.128c3.127,3.127,5.519,6.821,7.108,10.978
		c6.171,16.161-1.957,34.333-18.116,40.513C164.818,489.393,151.712,486.593,142.97,477.852z"/>
</g>
<g>
	<path style="fill:#D6DFE8;" d="M180.486,449.822c3.23,8.458-1.009,17.945-9.468,21.174c-8.468,3.238-17.945-1.009-21.174-9.468
		c-3.238-8.468,0.991-17.945,9.458-21.183C167.761,437.115,177.248,441.354,180.486,449.822z"/>
	<path style="fill:#D6DFE8;" d="M278.853,351.456c3.23,8.458-1.009,17.945-9.477,21.183c-8.458,3.23-17.945-1.009-21.174-9.468
		c-3.238-8.468,1-17.953,9.458-21.183C266.128,338.75,275.614,342.988,278.853,351.456z"/>
</g>
<g>
	<path style="fill:#463F5B;" d="M135.893,376.083c-3.128-3.128-5.519-6.821-7.105-10.977c-2.993-7.824-2.761-16.353,0.657-24.007
		c3.419-7.653,9.612-13.515,17.439-16.504c11.549-4.416,24.666-1.619,33.412,7.128c3.127,3.127,5.519,6.821,7.108,10.978
		c6.171,16.161-1.957,34.333-18.116,40.513C157.74,387.624,144.634,384.824,135.893,376.083z"/>
	<path style="fill:#463F5B;" d="M132.49,270.648c-3.128-3.128-5.519-6.821-7.105-10.977c-2.993-7.824-2.761-16.353,0.657-24.007
		c3.419-7.653,9.612-13.515,17.439-16.504c11.549-4.416,24.666-1.619,33.412,7.128c3.127,3.127,5.519,6.821,7.108,10.978
		c6.171,16.161-1.957,34.333-18.116,40.513C154.338,282.189,141.23,279.389,132.49,270.648z"/>
	<path style="fill:#463F5B;" d="M34.127,369.009c-3.128-3.128-5.519-6.821-7.105-10.977c-2.993-7.824-2.761-16.353,0.657-24.007
		c3.419-7.653,9.612-13.515,17.439-16.504c11.549-4.416,24.666-1.619,33.412,7.128c3.127,3.127,5.519,6.821,7.108,10.978
		c6.171,16.161-1.957,34.333-18.116,40.513C55.975,380.55,42.869,377.75,34.127,369.009z"/>
</g>
<g>
	<path style="fill:#D6DFE8;" d="M173.413,348.052c3.23,8.458-1.009,17.945-9.468,21.174c-8.468,3.238-17.953-1-21.183-9.458
		c-3.238-8.468,1-17.953,9.468-21.193C160.689,335.346,170.175,339.585,173.413,348.052z"/>
	<path style="fill:#D6DFE8;" d="M71.643,340.978c3.23,8.458-1.009,17.945-9.468,21.174c-8.468,3.238-17.945-1.009-21.174-9.468
		c-3.238-8.468,1-17.936,9.458-21.183C58.919,328.272,68.405,332.512,71.643,340.978z"/>
	<path style="fill:#D6DFE8;" d="M170.009,242.613c3.23,8.458-1.009,17.945-9.477,21.183c-8.458,3.23-17.945-1.009-21.174-9.468
		c-3.238-8.468,1.009-17.945,9.458-21.183C157.285,229.907,166.771,234.145,170.009,242.613z"/>
</g>
<g>
	<path style="fill:#463F5B;" d="M314.041,200.024c-3.128-3.128-5.519-6.821-7.105-10.977c-2.993-7.824-2.761-16.353,0.657-24.007
		c3.419-7.653,9.612-13.515,17.439-16.504c11.549-4.416,24.666-1.619,33.412,7.128c3.127,3.127,5.519,6.821,7.108,10.978
		c6.171,16.161-1.957,34.333-18.116,40.513C335.889,211.565,322.781,208.764,314.041,200.024z"/>
	<path style="fill:#463F5B;" d="M314.041,109.118c-3.128-3.128-5.519-6.821-7.105-10.977c-2.993-7.824-2.761-16.353,0.657-24.007
		c3.419-7.653,9.612-13.515,17.439-16.504c11.549-4.416,24.666-1.619,33.412,7.128c3.127,3.127,5.519,6.821,7.108,10.978
		c6.171,16.161-1.957,34.333-18.116,40.513C335.889,120.659,322.781,117.858,314.041,109.118z"/>
</g>
<g>
	<path style="fill:#D6DFE8;" d="M351.567,171.988c3.23,8.458-1.009,17.945-9.477,21.183c-8.458,3.23-17.945-1.009-21.174-9.468
		c-3.238-8.468,1-17.953,9.458-21.183C338.843,159.282,348.329,163.52,351.567,171.988z"/>
	<path style="fill:#D6DFE8;" d="M351.567,81.082c3.23,8.458-1.009,17.945-9.477,21.183c-8.458,3.23-17.945-1.009-21.174-9.468
		c-3.238-8.468,1-17.953,9.458-21.183C338.843,68.376,348.329,72.614,351.567,81.082z"/>
</g>
<path style="fill:#463F5B;" d="M314.041,290.932c-3.128-3.128-5.519-6.821-7.105-10.977c-2.993-7.824-2.761-16.353,0.657-24.007
	c3.419-7.653,9.612-13.515,17.439-16.504c11.549-4.416,24.666-1.619,33.412,7.128c3.127,3.127,5.519,6.821,7.108,10.978
	c6.171,16.161-1.957,34.333-18.116,40.513C335.889,302.473,322.781,299.674,314.041,290.932z"/>
<path style="fill:#D6DFE8;" d="M351.567,262.894c3.23,8.458-1.009,17.945-9.477,21.183c-8.458,3.23-17.945-1.009-21.174-9.468
	c-3.238-8.468,1-17.953,9.458-21.183C338.843,250.188,348.329,254.426,351.567,262.894z"/>
<path style="fill:#463F5B;" d="M333.17,344.618L333.17,344.618c-3.8,3.8-9.961,3.8-13.761,0L167.38,192.589
	c-3.8-3.8-3.8-9.961,0-13.761l0,0c3.8-3.8,9.961-3.8,13.761,0L333.17,330.856C336.97,334.657,336.97,340.818,333.17,344.618z"/>
<g>
</g>
<g>
</g>
<g>
</g>
<g>
</g>
<g>
</g>
<g>
</g>
<g>
</g>
<g>
</g>
<g>
</g>
<g>
</g>
<g>
</g>
<g>
</g>
<g>
</g>
<g>
</g>
<g>
</g>
</svg>
