<?xml version="1.0" encoding="iso-8859-1"?>
<!-- Generator: Adobe Illustrator 19.0.0, SVG Export Plug-In . SVG Version: 6.00 Build 0)  -->
<svg version="1.1" id="Capa_1" xmlns="http://www.w3.org/2000/svg" xmlns:xlink="http://www.w3.org/1999/xlink" x="0px" y="0px"
	 viewBox="0 0 512 512" style="enable-background:new 0 0 512 512;" xml:space="preserve">
<path style="fill:#3AC184;" d="M510.826,257.175c0,35.852-7.406,69.978-20.771,100.932c-21.27,49.249-57.622,90.458-103.241,117.792
	C348.58,498.822,303.835,512,256,512c-23.704,0-46.649-3.235-68.418-9.299c-17.588-4.878-34.407-11.608-50.237-19.949
	C56.373,440.067,1.174,355.069,1.174,257.175c0-33.242,6.365-65.007,17.952-94.13c12.648-31.806,31.526-60.472,55.126-84.477
	C120.475,31.524,184.836,2.349,256,2.349c7.354,0,14.645,0.312,21.842,0.926c9.475,0.801,18.816,2.122,27.968,3.942
	c29.3,5.804,56.8,16.642,81.555,31.557c45.359,27.344,81.513,68.418,102.69,117.48C503.42,187.196,510.826,221.322,510.826,257.175z
	"/>
<path style="fill:#E6E6E6;" d="M446.87,385.264L313.768,25.294l-4.472-12.065c-0.832-2.257-2.028-4.275-3.484-6.012
	c-5.336-6.345-14.281-8.997-22.508-5.96l-5.461,2.018L74.252,78.568L17.255,99.64C6.77,103.52,1.414,115.159,5.293,125.643
	l13.833,37.402l118.218,319.707c15.83,8.342,32.649,15.071,50.237,19.949l247.327-91.456
	C445.383,407.376,450.749,395.737,446.87,385.264z"/>
<g>
	<path style="fill:#4D4D4D;" d="M268.498,210.973c-17.286,6.391-27.261,23.941-24.811,41.491l-8.722,3.225l-7.108-19.223
		c14.921-9.556,21.758-28.55,15.367-45.835c-7.374-19.941-29.596-30.166-49.538-22.792s-30.166,29.597-22.792,49.538
		c6.391,17.286,23.941,27.261,41.491,24.811l7.108,19.223l-8.722,3.225c-9.556-14.921-28.55-21.759-45.835-15.367
		c-19.941,7.374-30.166,29.597-22.792,49.538c7.374,19.941,29.597,30.166,49.538,22.792c17.286-6.391,27.261-23.941,24.811-41.491
		l8.722-3.225l19.808,53.566l-28.821,10.658c-4.273,1.58-6.456,6.325-4.876,10.598c1.58,4.273,6.325,6.456,10.598,4.876
		l73.104-27.032c4.273-1.58,6.456-6.325,4.876-10.598c-1.58-4.273-6.325-6.456-10.598-4.876l-28.81,10.654l-19.808-53.566
		l8.722-3.225c9.557,14.921,28.55,21.759,45.835,15.366c19.941-7.374,30.166-29.597,22.792-49.538
		C310.663,213.824,288.439,203.6,268.498,210.973z"/>
	<path style="fill:#4D4D4D;" d="M100.692,164.106c10.29-3.805,15.565-15.271,11.76-25.561c-3.627-9.807-14.212-15.04-24.107-12.215
		c0.424-3.122,0.12-6.388-1.047-9.544c-3.807-10.295-15.275-15.576-25.564-11.771s-15.563,15.276-11.756,25.571
		c1.167,3.156,3.06,5.835,5.414,7.93c-9.352,4.293-13.986,15.153-10.359,24.96c3.805,10.29,15.271,15.565,25.561,11.76
		c4.312-1.594,7.727-4.544,9.979-8.179l6.907,18.679l-10.109,3.738c-1.994,0.737-3.012,2.952-2.276,4.946
		c0.736,1.994,2.952,3.012,4.946,2.276l27.438-10.146c1.994-0.737,3.012-2.952,2.276-4.946c-0.736-1.994-2.952-3.012-4.946-2.276
		L94.7,183.067l-6.907-18.679C91.867,165.682,96.381,165.701,100.692,164.106z"/>
	<path style="fill:#4D4D4D;" d="M397.397,378.799c10.29-3.805,15.565-15.271,11.76-25.561c-3.627-9.807-14.212-15.04-24.107-12.215
		c0.424-3.122,0.12-6.388-1.047-9.544c-3.807-10.295-15.275-15.576-25.564-11.771c-10.289,3.805-15.563,15.276-11.756,25.571
		c1.167,3.156,3.06,5.835,5.414,7.93c-9.352,4.293-13.986,15.153-10.359,24.96c3.805,10.29,15.271,15.565,25.561,11.76
		c4.312-1.594,7.727-4.544,9.979-8.179l6.907,18.679l-10.109,3.738c-1.994,0.737-3.012,2.951-2.276,4.946
		c0.736,1.995,2.951,3.012,4.946,2.276l27.438-10.146c1.994-0.737,3.012-2.951,2.276-4.946c-0.736-1.995-2.952-3.012-4.946-2.276
		l-10.109,3.738l-6.907-18.679C388.572,380.376,393.085,380.394,397.397,378.799z"/>
</g>
<path style="fill:#F2F2F2;" d="M469.825,38.773H186.168c-11.171,0-20.24,9.07-20.24,20.24v396.654c0,11.181,9.07,20.23,20.24,20.23
	h200.647c45.619-27.334,81.971-68.543,103.241-117.792V59.014C490.055,47.843,480.996,38.773,469.825,38.773z"/>
<g>
	<path style="fill:#ED55A9;" d="M450.37,390.972c6.742,6.742,6.742,17.673,0,24.415l-0.231,0.231l-24.404,24.404l-24.415-24.404
		l-0.231-0.231c-3.366-3.366-5.059-7.786-5.059-12.208c0-4.421,1.693-8.842,5.059-12.208c6.742-6.742,17.673-6.742,24.415,0
		l0.231,0.231l0.231-0.231c3.366-3.366,7.786-5.059,12.208-5.059C442.584,385.913,446.994,387.607,450.37,390.972z"/>
	<path style="fill:#ED55A9;" d="M249.702,74.508c6.742,6.742,6.742,17.673,0,24.404l-0.231,0.231l-24.415,24.415l-24.414-24.415
		l-0.231-0.231c-3.366-3.366-5.048-7.776-5.048-12.196c0-4.421,1.683-8.842,5.048-12.208c6.742-6.742,17.673-6.742,24.415,0
		l0.231,0.231l0.231-0.231c3.366-3.366,7.786-5.059,12.208-5.059S246.338,71.144,249.702,74.508z"/>
	<path style="fill:#ED55A9;" d="M234.311,341.059c0-0.635,0.318-1.907,0.635-3.178l61.319-199.844
		c2.859-9.532,14.616-13.98,26.371-13.98c12.073,0,23.829,4.447,26.688,13.98l61.319,199.844c0.317,1.271,0.634,2.224,0.634,3.178
		c0,9.849-14.932,17.157-26.053,17.157c-6.991,0-12.391-2.224-13.98-8.26l-12.073-42.256h-72.758l-12.073,42.256
		c-1.588,6.037-6.991,8.26-13.98,8.26C249.245,358.216,234.311,351.226,234.311,341.059z M350.278,275.291l-27.641-97.54
		l-27.642,97.54H350.278z"/>
</g>
<g>
</g>
<g>
</g>
<g>
</g>
<g>
</g>
<g>
</g>
<g>
</g>
<g>
</g>
<g>
</g>
<g>
</g>
<g>
</g>
<g>
</g>
<g>
</g>
<g>
</g>
<g>
</g>
<g>
</g>
</svg>
