<?xml version="1.0" encoding="iso-8859-1"?>
<!-- Generator: Adobe Illustrator 19.0.0, SVG Export Plug-In . SVG Version: 6.00 Build 0)  -->
<svg version="1.1" id="Capa_1" xmlns="http://www.w3.org/2000/svg" xmlns:xlink="http://www.w3.org/1999/xlink" x="0px" y="0px"
	 viewBox="0 0 512 512" style="enable-background:new 0 0 512 512;" xml:space="preserve">
<path style="fill:#FFDE56;" d="M512,256c0,76.779-33.802,145.659-87.333,192.575c-9.477,8.307-19.571,15.924-30.208,22.779
	c-1.63,1.055-3.271,2.09-4.932,3.093c-1.63,1.003-3.271,1.985-4.921,2.947c-8.84,5.151-18.025,9.791-27.502,13.866
	c-4.044,1.745-8.15,3.385-12.309,4.921c-4.838,1.797-9.738,3.438-14.712,4.932C306.636,508.197,281.767,512,256,512
	c-25.757,0-50.625-3.803-74.073-10.888c-4.963-1.494-9.874-3.135-14.702-4.932c-4.159-1.536-8.265-3.176-12.319-4.921
	c-9.488-4.075-18.672-8.714-27.512-13.866c-1.651-0.961-3.302-1.944-4.932-2.936c-1.651-1.024-3.291-2.048-4.921-3.103
	c-10.637-6.855-20.741-14.472-30.218-22.789C33.792,401.648,0,332.769,0,256S33.792,110.352,87.322,63.436
	c9.477-8.317,19.581-15.935,30.218-22.789c1.63-1.055,3.271-2.079,4.921-3.093c1.327-0.815,2.664-1.62,4.012-2.414
	c2.884-1.693,5.81-3.333,8.767-4.921C171.217,10.94,212.323,0,256,0s84.783,10.93,120.748,30.218
	c2.967,1.588,5.883,3.229,8.777,4.921c1.337,0.784,2.675,1.588,4.002,2.403c1.651,1.014,3.302,2.048,4.932,3.103
	c10.637,6.855,20.731,14.472,30.208,22.779C478.198,110.341,512,179.221,512,256z"/>
<path style="fill:#463F5B;" d="M424.667,24.952v423.623C379.622,488.072,320.616,512,256,512s-123.632-23.939-168.678-63.436V24.952
	C87.322,11.17,98.492,0,112.274,0h287.441C413.497,0,424.667,11.17,424.667,24.952z"/>
<path style="fill:#3FC0DD;" d="M389.527,35.14v439.306c-1.63,1.003-3.271,1.985-4.921,2.947c-8.84,5.151-18.025,9.791-27.502,13.866
	c-4.044,1.745-8.15,3.385-12.309,4.921h-177.57c-4.159-1.536-8.265-3.176-12.319-4.921c-9.488-4.075-18.672-8.714-27.512-13.866
	c-1.651-0.961-3.302-1.944-4.932-2.936V35.14H389.527z"/>
<path style="fill:#5DD5E5;" d="M389.527,449.17v25.276c-1.63,1.003-3.271,1.985-4.921,2.947c-8.84,5.151-18.025,9.791-27.502,13.866
	c-4.044,1.745-8.15,3.385-12.309,4.921h-177.57c-4.159-1.536-8.265-3.176-12.319-4.921c-9.488-4.075-18.672-8.714-27.512-13.866
	c-1.651-0.961-3.302-1.944-4.932-2.936V73.164l4.932-15.151C127.394,175.083,187.747,394.752,389.527,449.17z"/>
<path style="fill:#EAF1F9;" d="M389.527,30.218H122.462c-2.717,0-4.921,2.205-4.921,4.921v436.214c3.239,2.09,6.52,4.106,9.853,6.04
	V270.587h257.212v206.806c3.333-1.944,6.625-3.95,9.853-6.04V35.14C394.459,32.423,392.244,30.218,389.527,30.218z M206.127,40.072
	h99.746v35.401c0,6.907-5.622,12.528-12.539,12.528h-74.679c-6.907,0-12.528-5.622-12.528-12.528V40.072z M384.606,260.733H127.394
	V40.072h68.88v35.401c0,12.34,10.041,22.382,22.382,22.382h74.679c12.351,0,22.392-10.041,22.392-22.382V40.072h68.88
	L384.606,260.733L384.606,260.733z M315.726,455.858c0-12.34-10.041-22.392-22.392-22.392h-74.679
	c-12.34,0-22.382,10.052-22.382,22.392v35.401h-41.368c8.767,3.772,17.784,7.074,27.021,9.853h148.156
	c9.247-2.779,18.265-6.081,27.021-9.853h-41.378V455.858z M305.873,491.259h-99.746v-35.401c0-6.917,5.622-12.539,12.528-12.539
	h74.679c6.917,0,12.539,5.622,12.539,12.539L305.873,491.259L305.873,491.259z"/>
<g>
	<circle style="fill:#463F5B;" cx="160.183" cy="120.654" r="4.441"/>
	<circle style="fill:#463F5B;" cx="224.862" cy="120.654" r="4.441"/>
	<circle style="fill:#463F5B;" cx="354.22" cy="120.654" r="4.441"/>
	<circle style="fill:#463F5B;" cx="289.541" cy="120.654" r="4.441"/>
	<circle style="fill:#463F5B;" cx="160.183" cy="220.233" r="4.441"/>
	<circle style="fill:#463F5B;" cx="224.862" cy="220.233" r="4.441"/>
	<circle style="fill:#463F5B;" cx="354.22" cy="220.233" r="4.441"/>
	<circle style="fill:#463F5B;" cx="289.541" cy="220.233" r="4.441"/>
	<circle style="fill:#463F5B;" cx="192.522" cy="170.444" r="4.441"/>
	<circle style="fill:#463F5B;" cx="321.881" cy="170.444" r="4.441"/>
	<circle style="fill:#463F5B;" cx="257.202" cy="170.444" r="4.441"/>
	<circle style="fill:#463F5B;" cx="160.183" cy="311.442" r="4.441"/>
	<circle style="fill:#463F5B;" cx="224.862" cy="311.442" r="4.441"/>
	<circle style="fill:#463F5B;" cx="354.22" cy="311.442" r="4.441"/>
	<circle style="fill:#463F5B;" cx="289.541" cy="311.442" r="4.441"/>
	<circle style="fill:#463F5B;" cx="160.183" cy="411.021" r="4.441"/>
	<circle style="fill:#463F5B;" cx="224.862" cy="411.021" r="4.441"/>
	<circle style="fill:#463F5B;" cx="354.22" cy="411.021" r="4.441"/>
	<circle style="fill:#463F5B;" cx="289.541" cy="411.021" r="4.441"/>
	<circle style="fill:#463F5B;" cx="192.522" cy="361.232" r="4.441"/>
	<circle style="fill:#463F5B;" cx="321.881" cy="361.232" r="4.441"/>
	<circle style="fill:#463F5B;" cx="257.202" cy="361.232" r="4.441"/>
</g>
<circle style="fill:#DB428F;" cx="293.345" cy="97.855" r="30.074"/>
<path style="fill:#ED55A9;" d="M293.343,133.47c-19.639,0-35.615-15.976-35.615-35.615s15.976-35.615,35.615-35.615
	s35.615,15.976,35.615,35.615S312.981,133.47,293.343,133.47z M293.343,73.322c-13.527,0-24.533,11.006-24.533,24.533
	s11.006,24.533,24.533,24.533s24.533-11.006,24.533-24.533S306.87,73.322,293.343,73.322z"/>
<circle style="fill:#F486C3;" cx="293.334" cy="97.855" r="9.236"/>
<circle style="fill:#EDC51C;" cx="208.269" cy="405.138" r="30.074"/>
<path style="fill:#FFDE56;" d="M208.274,440.756c-19.639,0-35.615-15.976-35.615-35.615s15.976-35.615,35.615-35.615
	s35.615,15.977,35.615,35.615C243.89,424.778,227.913,440.756,208.274,440.756z M208.274,380.607
	c-13.527,0-24.533,11.006-24.533,24.533s11.006,24.533,24.533,24.533c13.527,0,24.533-11.006,24.533-24.533
	C232.806,391.612,221.802,380.607,208.274,380.607z"/>
<circle style="fill:#FFE584;" cx="208.269" cy="405.138" r="9.236"/>
<circle style="fill:#EAF1F9;" cx="310.335" cy="311.954" r="19.564"/>
<circle style="fill:#D6DFE8;" cx="310.335" cy="311.954" r="11.816"/>
<g>
</g>
<g>
</g>
<g>
</g>
<g>
</g>
<g>
</g>
<g>
</g>
<g>
</g>
<g>
</g>
<g>
</g>
<g>
</g>
<g>
</g>
<g>
</g>
<g>
</g>
<g>
</g>
<g>
</g>
</svg>
