<?xml version="1.0" encoding="iso-8859-1"?>
<!-- Generator: Adobe Illustrator 19.0.0, SVG Export Plug-In . SVG Version: 6.00 Build 0)  -->
<svg version="1.1" id="Capa_1" xmlns="http://www.w3.org/2000/svg" xmlns:xlink="http://www.w3.org/1999/xlink" x="0px" y="0px"
	 viewBox="0 0 512 512" style="enable-background:new 0 0 512 512;" xml:space="preserve">
<path style="fill:#ED55A9;" d="M512,256c0,141.385-114.615,256-256,256c-25.245,0-49.633-3.657-72.662-10.459
	c-4.138-1.223-8.234-2.55-12.288-3.971C98.001,471.876,40.114,413.989,14.43,340.94c-1.421-4.044-2.748-8.14-3.971-12.278
	C3.657,305.633,0,281.234,0,256C0,114.615,114.615,0,256,0c25.234,0,49.622,3.647,72.652,10.459
	c4.274,1.254,8.505,2.633,12.685,4.106c13.281,4.692,26.049,10.449,38.222,17.178c42.329,23.364,77.333,58.368,100.697,100.697
	c6.729,12.163,12.476,24.942,17.178,38.212c1.473,4.18,2.842,8.411,4.106,12.685C508.343,206.367,512,230.766,512,256z"/>
<path style="fill:#F486C3;" d="M462.311,206.311c0,113.943-92.368,206.311-206.311,206.311c-20.345,0-39.999-2.948-58.559-8.429
	c-3.334-0.985-6.635-2.054-9.903-3.199c-58.871-20.707-105.522-67.358-126.221-126.229c-1.145-3.259-2.215-6.56-3.199-9.894
	c-5.482-18.559-8.429-38.222-8.429-58.559C49.689,92.368,142.057,0,256,0c20.336,0,39.99,2.939,58.55,8.429
	c3.444,1.01,6.855,2.122,10.223,3.309c10.703,3.78,20.993,8.421,30.804,13.844c34.113,18.829,62.323,47.039,81.152,81.152
	c5.423,9.802,10.054,20.101,13.844,30.795c1.187,3.369,2.29,6.779,3.309,10.223C459.364,166.312,462.311,185.975,462.311,206.311z"
	/>
<path style="fill:#B6C5D3;" d="M503.171,181.708L183.338,501.541c-4.138-1.223-8.234-2.55-12.288-3.971
	C98.001,471.876,40.114,413.989,14.43,340.94c-1.421-4.044-2.748-8.14-3.971-12.278L328.652,10.459l1.641-1.64
	c11.766-11.755,30.835-11.755,42.6,0l130.278,130.288C514.936,150.873,514.936,169.942,503.171,181.708z"/>
<path style="fill:#D6DFE8;" d="M500.506,160.413c0,3.699-1.076,7.231-3.072,10.24c-0.69,1.045-1.484,2.017-2.382,2.926
	L171.05,497.57C98.001,471.876,40.114,413.989,14.43,340.94L338.422,16.948c0.899-0.899,1.87-1.693,2.915-2.382
	c3.009-1.996,6.551-3.072,10.25-3.072c4.974,0,9.655,1.944,13.176,5.454l130.288,130.288
	C498.563,150.758,500.506,155.429,500.506,160.413z"/>
<circle style="fill:#ED55A9;" cx="350.48" cy="61.774" r="18.286"/>
<path style="fill:#B6C5D3;" d="M230.372,281.625c-12.527-12.527-12.527-32.911,0-45.437c12.527-12.527,32.911-12.527,45.438,0
	c12.527,12.527,12.527,32.911,0,45.438C263.283,294.152,242.899,294.152,230.372,281.625z"/>
<path style="fill:#EAF1F9;" d="M253.091,276.408c-4.675,0-9.07-1.82-12.375-5.126c-6.823-6.823-6.823-17.926,0-24.75
	c3.305-3.306,7.7-5.126,12.375-5.126c4.675,0,9.07,1.82,12.375,5.126c6.823,6.823,6.823,17.926,0,24.75
	C262.161,274.588,257.765,276.408,253.091,276.408z"/>
<path style="fill:#B6C5D3;" d="M87.826,424.171c-12.527-12.527-12.527-32.911,0-45.437c12.527-12.527,32.911-12.527,45.438,0
	c12.527,12.527,12.527,32.911,0,45.438C120.737,436.698,100.353,436.698,87.826,424.171z"/>
<path style="fill:#EAF1F9;" d="M110.545,418.954c-4.675,0-9.07-1.82-12.376-5.126c-3.305-3.305-5.125-7.7-5.125-12.375
	s1.82-9.07,5.125-12.375c3.306-3.306,7.701-5.126,12.376-5.126s9.07,1.82,12.375,5.126c3.306,3.306,5.126,7.7,5.126,12.375
	s-1.82,9.07-5.126,12.375C119.615,417.133,115.22,418.954,110.545,418.954z"/>
<path style="fill:#B6C5D3;" d="M171.431,340.567c-8.289-8.289-8.289-21.777,0-30.067c8.289-8.289,21.777-8.289,30.066,0
	c8.289,8.289,8.289,21.777,0,30.066C193.208,348.856,179.72,348.856,171.431,340.567z"/>
<path style="fill:#EAF1F9;" d="M186.464,332.165c-1.771,0-3.437-0.69-4.688-1.941c-2.586-2.586-2.586-6.793,0-9.379
	c1.252-1.253,2.917-1.941,4.688-1.941c1.771,0,3.437,0.69,4.688,1.941c2.586,2.586,2.586,6.793,0,9.379
	C189.901,331.475,188.235,332.165,186.464,332.165z"/>
<path style="fill:#B6C5D3;" d="M125.266,294.401c-8.289-8.289-8.289-21.777,0.001-30.066c8.289-8.289,21.777-8.289,30.066,0
	c8.289,8.289,8.289,21.777,0,30.066C147.042,302.69,133.555,302.69,125.266,294.401z"/>
<path style="fill:#EAF1F9;" d="M140.299,285.999c-1.771,0-3.437-0.69-4.688-1.942c-2.586-2.586-2.586-6.792,0-9.378
	c1.252-1.253,2.917-1.941,4.688-1.941s3.437,0.69,4.688,1.941c2.586,2.586,2.586,6.792,0,9.378
	C143.736,285.309,142.071,285.999,140.299,285.999z"/>
<path style="fill:#B6C5D3;" d="M217.597,386.732c-8.289-8.289-8.289-21.777,0-30.067c8.289-8.289,21.777-8.288,30.066,0
	c8.289,8.289,8.289,21.777,0,30.066C239.374,395.022,225.885,395.022,217.597,386.732z"/>
<path style="fill:#EAF1F9;" d="M232.63,378.33c-1.771,0-3.437-0.69-4.688-1.941c-2.586-2.586-2.586-6.793,0-9.379
	c1.252-1.253,2.917-1.941,4.688-1.941s3.437,0.69,4.688,1.941c2.586,2.586,2.586,6.793,0,9.379
	C236.066,377.641,234.401,378.33,232.63,378.33z"/>
<path style="fill:#B6C5D3;" d="M271.958,215.265c-5.392-5.392-5.392-14.164,0-19.555l17.571-17.571
	c0.503-0.503,0.503-1.32,0.001-1.822l-17.572-17.572c-5.392-5.392-5.392-14.164,0-19.555l24.776-24.776
	c5.392-5.392,14.164-5.391,19.555,0l17.572,17.572c0.503,0.503,1.32,0.502,1.821,0l17.572-17.572c5.392-5.392,14.164-5.391,19.555,0
	l24.775,24.775c5.392,5.392,5.392,14.164,0,19.555l-17.572,17.572c-0.503,0.503-0.503,1.32,0,1.821l17.572,17.572
	c5.392,5.392,5.392,14.164,0,19.555l-24.776,24.776c-5.392,5.392-14.164,5.391-19.555,0l-17.572-17.572
	c-0.503-0.503-1.32-0.502-1.822,0.001l-17.571,17.571c-5.392,5.392-14.164,5.391-19.555,0L271.958,215.265z"/>
<path style="fill:#EAF1F9;" d="M346.024,212.125c-3.006-3.006-7.003-4.662-11.255-4.662c-4.252,0-8.249,1.656-11.255,4.662
	l-17.004,17.005l-23.642-23.642l17.005-17.005c6.205-6.206,6.205-16.304,0-22.509l-17.005-17.006l23.642-23.642l17.004,17.005
	c3.006,3.006,7.003,4.662,11.255,4.662c4.252,0,8.249-1.656,11.255-4.662l17.004-17.005l23.642,23.642l-17.005,17.005
	c-6.205,6.207-6.205,16.305,0,22.509l17.006,17.005l-23.642,23.642L346.024,212.125z"/>
<g>
</g>
<g>
</g>
<g>
</g>
<g>
</g>
<g>
</g>
<g>
</g>
<g>
</g>
<g>
</g>
<g>
</g>
<g>
</g>
<g>
</g>
<g>
</g>
<g>
</g>
<g>
</g>
<g>
</g>
</svg>
