<?xml version="1.0" encoding="iso-8859-1"?>
<!-- Generator: Adobe Illustrator 19.0.0, SVG Export Plug-In . SVG Version: 6.00 Build 0)  -->
<svg version="1.1" id="Capa_1" xmlns="http://www.w3.org/2000/svg" xmlns:xlink="http://www.w3.org/1999/xlink" x="0px" y="0px"
	 viewBox="0 0 512.001 512.001" style="enable-background:new 0 0 512.001 512.001;" xml:space="preserve">
<path style="fill:#3AC184;" d="M511.353,256.649c0,68.059-26.63,129.907-70.05,175.682c-27.338,28.839-61.357,51.3-99.577,64.922
	c-26.796,9.547-55.646,14.748-85.725,14.748s-58.929-5.201-85.725-14.748c-38.219-13.622-72.239-36.083-99.587-64.922
	C27.278,386.555,0.648,324.708,0.648,256.649c0-141.027,114.325-255.352,255.352-255.352S511.353,115.62,511.353,256.649z"/>
<path style="fill:#52D1A5;" d="M451.564,196.86c0,52.123-20.395,99.49-53.648,134.548c-20.937,22.086-46.991,39.288-76.262,49.721
	c-20.522,7.311-42.617,11.295-65.654,11.295s-45.132-3.983-65.654-11.295c-29.271-10.433-55.325-27.634-76.27-49.721
	C80.831,296.35,60.436,248.984,60.436,196.86c0-108.007,87.557-195.563,195.563-195.563S451.564,88.852,451.564,196.86z"/>
<g>
	<path style="fill:#EDC51C;" d="M256.503,439.157h127.208c7.72,0,13.979-8.091,13.979-18.071v-74.17
		c0-9.981-6.259-18.071-13.979-18.071H256.503c-7.72,0-13.979,8.091-13.979,18.071v74.17
		C242.523,431.066,248.782,439.157,256.503,439.157z"/>
	<path style="fill:#EDC51C;" d="M125.692,268.832H252.9c7.72,0,13.979-8.091,13.979-18.071v-74.17
		c0-9.981-6.259-18.071-13.979-18.071H125.692c-7.72,0-13.979,8.091-13.979,18.071v74.17
		C111.713,260.742,117.972,268.832,125.692,268.832z"/>
</g>
<path style="fill:#FFDE56;" d="M441.303,432.331c-27.338,28.839-61.357,51.3-99.577,64.922C314.93,506.8,286.08,512.001,256,512.001
	s-58.929-5.201-85.725-14.748c-38.219-13.622-72.239-36.083-99.587-64.922c2.554-3.439,6.629-5.659,11.235-5.659h348.144
	C434.674,426.671,438.749,428.892,441.303,432.331z"/>
<path style="fill:#EDC51C;" d="M341.726,497.253c-26.796,9.547-55.646,14.748-85.725,14.748s-58.929-5.201-85.725-14.748H341.726z"
	/>
<path style="fill:#FFDE56;" d="M81.924,341.334h348.145c7.72,0,13.979-6.259,13.979-13.979V269.98
	c0-7.72-6.259-13.979-13.979-13.979H81.924c-7.72,0-13.979,6.259-13.979,13.979v57.375
	C67.946,335.075,74.204,341.334,81.924,341.334z"/>
<path style="fill:#EDC51C;" d="M81.924,341.334h348.145c7.72,0,13.979-6.259,13.979-13.979v-14.749
	c0,7.72-6.259,13.979-13.979,13.979H81.924c-7.72,0-13.979-6.259-13.979-13.979v14.749
	C67.946,335.075,74.204,341.334,81.924,341.334z"/>
<g>
	<path style="fill:#FFDE56;" d="M348.115,426.668h81.955c7.72,0,13.979-6.259,13.979-13.979v-57.375
		c0-7.72-6.259-13.979-13.979-13.979h-81.955c-7.72,0-13.979,6.259-13.979,13.979v57.375
		C334.135,420.409,340.394,426.668,348.115,426.668z"/>
	<path style="fill:#FFDE56;" d="M215.019,426.668h81.955c7.72,0,13.979-6.259,13.979-13.979v-57.375
		c0-7.72-6.259-13.979-13.979-13.979h-81.954c-7.72,0-13.979,6.259-13.979,13.979v57.375
		C201.04,420.409,207.299,426.668,215.019,426.668z"/>
</g>
<g>
	<path style="fill:#EDC51C;" d="M348.115,426.668h81.955c7.72,0,13.979-6.259,13.979-13.979V397.94
		c0,7.72-6.259,13.979-13.979,13.979h-81.955c-7.72,0-13.979-6.259-13.979-13.979v14.749
		C334.135,420.409,340.394,426.668,348.115,426.668z"/>
	<path style="fill:#EDC51C;" d="M215.019,426.668h81.955c7.72,0,13.979-6.259,13.979-13.979V397.94
		c0,7.72-6.259,13.979-13.979,13.979h-81.954c-7.72,0-13.979-6.259-13.979-13.979v14.749
		C201.04,420.409,207.299,426.668,215.019,426.668z"/>
</g>
<g>
	<path style="fill:#FFDE56;" d="M215.019,256h81.955c7.72,0,13.979-6.259,13.979-13.979v-57.376c0-7.72-6.259-13.979-13.979-13.979
		h-81.954c-7.72,0-13.979,6.259-13.979,13.979v57.375C201.04,249.742,207.299,256,215.019,256z"/>
	<path style="fill:#FFDE56;" d="M81.924,256h81.955c7.72,0,13.979-6.259,13.979-13.979v-57.376c0-7.72-6.259-13.979-13.979-13.979
		H81.924c-7.72,0-13.979,6.259-13.979,13.979v57.375C67.946,249.742,74.204,256,81.924,256z"/>
</g>
<g>
	<path style="fill:#EDC51C;" d="M215.019,256h81.955c7.72,0,13.979-6.259,13.979-13.979v-14.749c0,7.72-6.259,13.979-13.979,13.979
		h-81.954c-7.72,0-13.979-6.259-13.979-13.979v14.749C201.04,249.742,207.299,256,215.019,256z"/>
	<path style="fill:#EDC51C;" d="M81.924,256h81.955c7.72,0,13.979-6.259,13.979-13.979v-14.749c0,7.72-6.259,13.979-13.979,13.979
		H81.924c-7.72,0-13.979-6.259-13.979-13.979v14.749C67.946,249.742,74.204,256,81.924,256z"/>
</g>
<path style="fill:#FFDE56;" d="M81.924,170.667h348.145c7.72,0,13.979-6.259,13.979-13.979V99.312
	c0-7.72-6.259-13.979-13.979-13.979H81.924c-7.72,0-13.979,6.259-13.979,13.979v57.375
	C67.946,164.408,74.204,170.667,81.924,170.667z"/>
<path style="fill:#EDC51C;" d="M81.924,170.667h348.145c7.72,0,13.979-6.259,13.979-13.979v-14.749
	c0,7.72-6.259,13.979-13.979,13.979H81.924c-7.72,0-13.979-6.259-13.979-13.979v14.749
	C67.946,164.408,74.204,170.667,81.924,170.667z"/>
<g>
	<path style="fill:#FFDE56;" d="M348.115,85.334h81.955c7.72,0,13.979-6.259,13.979-13.979V13.979
		c0-7.72-6.259-13.979-13.979-13.979h-81.954c-7.72,0-13.979,6.259-13.979,13.979v57.375
		C334.135,79.075,340.394,85.334,348.115,85.334z"/>
	<path style="fill:#FFDE56;" d="M215.019,85.334h81.955c7.72,0,13.979-6.259,13.979-13.979V13.979
		C310.953,6.259,304.695,0,296.975,0H215.02c-7.72,0-13.979,6.259-13.979,13.979v57.375
		C201.04,79.075,207.299,85.334,215.019,85.334z"/>
</g>
<g>
	<path style="fill:#EDC51C;" d="M348.115,85.334h81.955c7.72,0,13.979-6.259,13.979-13.979V56.606
		c0,7.72-6.259,13.979-13.979,13.979h-81.955c-7.72,0-13.979-6.259-13.979-13.979v14.749
		C334.135,79.075,340.394,85.334,348.115,85.334z"/>
	<path style="fill:#EDC51C;" d="M215.019,85.334h81.955c7.72,0,13.979-6.259,13.979-13.979V56.606
		c0,7.72-6.259,13.979-13.979,13.979h-81.954c-7.72,0-13.979-6.259-13.979-13.979v14.749
		C201.04,79.075,207.299,85.334,215.019,85.334z"/>
</g>
<g>
</g>
<g>
</g>
<g>
</g>
<g>
</g>
<g>
</g>
<g>
</g>
<g>
</g>
<g>
</g>
<g>
</g>
<g>
</g>
<g>
</g>
<g>
</g>
<g>
</g>
<g>
</g>
<g>
</g>
</svg>
