<?xml version="1.0" encoding="iso-8859-1"?>
<!-- Generator: Adobe Illustrator 19.0.0, SVG Export Plug-In . SVG Version: 6.00 Build 0)  -->
<svg version="1.1" id="Capa_1" xmlns="http://www.w3.org/2000/svg" xmlns:xlink="http://www.w3.org/1999/xlink" x="0px" y="0px"
	 viewBox="0 0 512 512" style="enable-background:new 0 0 512 512;" xml:space="preserve">
<path style="fill:#129BBD;" d="M512,256c0,141.385-114.615,256-256,256c-18.892,0-37.303-2.048-55.024-5.935
	C103.758,484.78,27.22,408.231,5.935,311.014C2.048,293.292,0,274.881,0,256C0,114.615,114.615,0,256,0
	c19.529,0,38.557,2.184,56.832,6.332c31.859,7.22,61.461,20.386,87.573,38.264c26.29,17.983,49.037,40.741,67.02,67.02
	c17.878,26.112,31.033,55.714,38.243,87.562C509.816,217.454,512,236.471,512,256z"/>
<path style="fill:#5DD5E5;" d="M457.806,201.806c0,111.455-90.351,201.806-201.806,201.806c-14.893,0-29.406-1.614-43.376-4.679
	c-76.637-16.778-136.974-77.123-153.752-153.76c-3.064-13.97-4.679-28.484-4.679-43.367C54.194,90.351,144.545,0,256,0
	c15.394,0,30.395,1.722,44.801,4.991c25.114,5.692,48.45,16.071,69.034,30.164c20.725,14.176,38.656,32.116,52.832,52.832
	c14.094,20.584,24.464,43.92,30.147,69.026C456.084,171.42,457.806,186.412,457.806,201.806z"/>
<path style="fill:#463F5B;" d="M505.668,199.178c-1.996,3.438-4.472,6.677-7.408,9.613L200.976,506.065
	C103.758,484.78,27.22,408.231,5.935,311.014L303.208,13.74c2.947-2.947,6.186-5.413,9.624-7.408
	c17.951-10.439,41.347-7.962,56.717,7.408l30.856,30.856l67.02,67.02l30.835,30.835
	C513.641,157.832,516.106,181.227,505.668,199.178z"/>
<g>
	<path style="fill:#574D70;" d="M290.213,95.097l126.683,126.684c4.802,4.802,4.802,12.59,0,17.392l-188.74,188.74
		c-4.802,4.802-12.59,4.802-17.392,0L84.081,301.229c-4.802-4.802-4.795-12.583,0.007-17.385l188.74-188.74
		C277.63,90.302,285.411,90.295,290.213,95.097z"/>
	<path style="fill:#574D70;" d="M137.404,387.346l-7.035,7.035c-2.63,2.63-6.893,2.63-9.523,0l-7.035-7.035
		c-2.63-2.63-6.893-2.63-9.523,0l-14.196,14.196c-2.63,2.63-2.63,6.893,0,9.523l7.035,7.035c2.63,2.63,2.63,6.893,0,9.523
		l-7.035,7.035c-2.63,2.63-2.63,6.893,0,9.523l14.196,14.196c2.63,2.63,6.893,2.63,9.523,0l7.035-7.035
		c2.63-2.63,6.893-2.63,9.523,0l7.035,7.035c2.63,2.63,6.893,2.63,9.523,0l14.196-14.196c2.63-2.63,2.63-6.893,0-9.523l-7.035-7.035
		c-2.63-2.63-2.63-6.893,0-9.523l7.035-7.035c2.63-2.63,2.63-6.893,0-9.523l-14.196-14.196
		C144.298,384.716,140.034,384.716,137.404,387.346z"/>
	<circle style="fill:#574D70;" cx="385.097" cy="131.803" r="18.415"/>
	<circle style="fill:#574D70;" cx="448.24" cy="131.803" r="18.415"/>
</g>
<path style="fill:#6B6889;" d="M383.021,273.051L228.157,427.915c-4.802,4.802-12.59,4.802-17.392,0L84.081,301.229
	c-4.802-4.802-4.795-12.583,0.007-17.385l33.537-33.537C140.366,273.051,255.901,383.576,383.021,273.051z"/>
<g>
</g>
<g>
</g>
<g>
</g>
<g>
</g>
<g>
</g>
<g>
</g>
<g>
</g>
<g>
</g>
<g>
</g>
<g>
</g>
<g>
</g>
<g>
</g>
<g>
</g>
<g>
</g>
<g>
</g>
</svg>
