<?xml version="1.0" encoding="iso-8859-1"?>
<!-- Generator: Adobe Illustrator 19.0.0, SVG Export Plug-In . SVG Version: 6.00 Build 0)  -->
<svg version="1.1" id="Capa_1" xmlns="http://www.w3.org/2000/svg" xmlns:xlink="http://www.w3.org/1999/xlink" x="0px" y="0px"
	 viewBox="0 0 512 512" style="enable-background:new 0 0 512 512;" xml:space="preserve">
<path style="fill:#574D70;" d="M512,256.001c0,74.626-31.932,141.792-82.881,188.582c-9.414,8.652-19.466,16.593-30.093,23.771
	c-40.834,27.554-90.049,43.645-143.025,43.645s-102.19-16.091-143.025-43.645c-10.94-7.387-21.284-15.6-30.929-24.544
	C31.59,397.061,0.003,330.219,0.003,256.001c0-141.384,114.614-255.998,255.998-255.998S512,114.616,512,256.001z"/>
<path style="fill:#6B6889;" d="M448.496,192.495c0,56.114-24.011,106.618-62.32,141.801c-7.079,6.506-14.638,12.477-22.628,17.875
	c-30.705,20.719-67.711,32.818-107.545,32.818s-76.84-12.1-107.545-32.818c-8.226-5.555-16.005-11.73-23.256-18.456
	c-37.941-35.151-61.692-85.413-61.692-141.22c0-106.311,86.183-192.494,192.494-192.494S448.496,86.184,448.496,192.495z"/>
<path style="fill:#FFDE56;" d="M430.224,380.711H81.038c0,0-102.994-146.702-76.76-275.419c2.775-13.648,21.182-16.078,27.744-3.773
	c11.512,21.617,31.363,46.893,64.199,59.006c12.241,4.529,26.285,7.226,42.377,7.226c60.527,0,90.689-64.275,105.053-114.826
	c3.415-12.036,20.543-12.036,23.957,0c14.364,50.551,44.526,114.826,105.053,114.826c59.261,0,90.766-36.558,106.576-66.233
	c6.549-12.305,24.955-9.874,27.744,3.773C533.218,234.009,430.224,380.711,430.224,380.711z"/>
<path style="fill:#F486C3;" d="M293.857,305.422l-30.545,38.872c-3.914,4.976-11.448,4.976-15.362,0l-15.183-19.315l-15.362-19.557
	c-5.091-6.486-5.091-15.605,0-22.09l30.545-38.872c3.914-4.976,11.448-4.976,15.362,0l4.988,6.357l25.557,32.515
	C298.948,289.818,298.948,298.937,293.857,305.422z"/>
<path style="fill:#EDC51C;" d="M188.484,380.711H81.038c0,0-102.994-146.702-76.76-275.419c2.775-13.648,21.182-16.078,27.744-3.773
	c11.512,21.617,31.363,46.893,64.199,59.006C111.737,244.497,138.599,350.012,188.484,380.711z"/>
<path style="fill:#DB428F;" d="M119.753,286.252l-22.468-28.597c-2.876-3.66-8.42-3.66-11.295,0l-22.468,28.597
	c-3.746,4.767-3.746,11.477,0,16.245l22.468,28.597c2.876,3.66,8.42,3.66,11.295,0l22.468-28.597
	C123.499,297.729,123.499,291.019,119.753,286.252z"/>
<g>
	<path style="fill:#ED55A9;" d="M447.741,286.252l-22.468-28.597c-2.876-3.66-8.42-3.66-11.295,0l-22.468,28.597
		c-3.746,4.767-3.746,11.477,0,16.245l22.468,28.597c2.876,3.66,8.42,3.66,11.295,0l22.468-28.597
		C451.485,297.729,451.485,291.019,447.741,286.252z"/>
	<path style="fill:#ED55A9;" d="M293.857,305.422l-30.545,38.872c-3.914,4.976-11.448,4.976-15.362,0l-15.183-19.315l35.534-74.163
		l25.557,32.515C298.948,289.818,298.948,298.937,293.857,305.422z"/>
</g>
<path style="fill:#F486C3;" d="M277.334,206.721c-11.984,11.984-31.421,11.993-43.406,0.009c-11.993-11.993-11.984-31.43,0-43.414
	c11.993-11.993,31.421-11.993,43.414,0C289.328,175.301,289.328,194.728,277.334,206.721z"/>
<path style="fill:#ED55A9;" d="M277.334,206.721c-11.984,11.984-31.421,11.993-43.406,0.009l43.414-43.414
	C289.328,175.301,289.328,194.728,277.334,206.721z"/>
<path style="fill:#EDC51C;" d="M429.339,441.135c0,1.17-0.073,2.32-0.219,3.448c-9.414,8.652-19.466,16.593-30.093,23.771h-286.05
	c-10.94-7.387-21.284-15.6-30.929-24.544c-0.084-0.878-0.125-1.776-0.125-2.675c0-7.513,3.051-14.315,7.973-19.247
	c4.921-4.921,11.734-7.973,19.247-7.973H402.12C417.156,413.914,429.339,426.109,429.339,441.135z"/>
<path style="fill:#ED55A9;" d="M429.338,429.917H81.925c-15.031,0-27.215-12.184-27.215-27.215l0,0
	c0-15.031,12.184-27.215,27.215-27.215h347.413c15.031,0,27.215,12.185,27.215,27.215l0,0
	C456.553,417.732,444.369,429.917,429.338,429.917z"/>
<path style="fill:#DB428F;" d="M134.64,402.701L134.64,402.701c0-15.031,12.184-27.215,27.215-27.215h-79.93
	c-15.031,0-27.215,12.185-27.215,27.215l0,0c0,15.031,12.184,27.215,27.215,27.215h79.93
	C146.824,429.917,134.64,417.732,134.64,402.701z"/>
<g>
</g>
<g>
</g>
<g>
</g>
<g>
</g>
<g>
</g>
<g>
</g>
<g>
</g>
<g>
</g>
<g>
</g>
<g>
</g>
<g>
</g>
<g>
</g>
<g>
</g>
<g>
</g>
<g>
</g>
</svg>
