<?xml version="1.0" encoding="iso-8859-1"?>
<!-- Generator: Adobe Illustrator 19.0.0, SVG Export Plug-In . SVG Version: 6.00 Build 0)  -->
<svg version="1.1" id="Capa_1" xmlns="http://www.w3.org/2000/svg" xmlns:xlink="http://www.w3.org/1999/xlink" x="0px" y="0px"
	 viewBox="0 0 512 512" style="enable-background:new 0 0 512 512;" xml:space="preserve">
<path style="fill:#ED55A9;" d="M512,256c0,125.44-90.216,229.804-209.314,251.747C287.545,510.548,271.945,512,256,512
	C114.615,512,0,397.385,0,256c0-15.956,1.463-31.566,4.263-46.717C26.206,90.206,130.57,0,256,0C397.385,0,512,114.615,512,256z"/>
<path style="fill:#F486C3;" d="M446.392,190.392c0,93.292-67.095,170.91-155.67,187.229c-11.26,2.082-22.862,3.163-34.721,3.163
	c-105.15,0-190.392-85.241-190.392-190.392c0-11.867,1.088-23.477,3.17-34.745C85.099,67.088,162.716,0,256,0
	C361.15,0,446.392,85.241,446.392,190.392z"/>
<path style="fill:#463F5B;" d="M384.209,437.185c-7.252,10.313-15.496,20.146-24.722,29.362
	c-17.115,17.115-36.321,30.845-56.801,41.2C287.545,510.548,271.945,512,256,512C114.615,512,0,397.385,0,256
	c0-15.956,1.463-31.566,4.263-46.717c10.344-20.47,24.074-39.675,41.179-56.78c65.818-65.818,162.68-81.68,243.451-47.585
	c25.652,10.815,49.685,26.676,70.593,47.585C436.987,230.003,445.231,350.532,384.209,437.185z"/>
<path style="fill:#574D70;" d="M384.209,437.185c-72.422,54.345-175.637,48.577-241.518-17.303
	c-72.192-72.202-72.192-189.252,0-261.454c40.04-40.04,93.874-57.877,146.202-53.509c25.652,10.815,49.685,26.676,70.593,47.585
	C436.987,230.003,445.231,350.532,384.209,437.185z"/>
<path style="fill:#6B6889;" d="M401.495,174.259l-69.726-69.726l-30.043,30.043c-11.971,11.971-6.068,37.285,13.187,56.539l0,0
	c19.254,19.254,44.568,25.158,56.539,13.187L401.495,174.259z"/>
<ellipse transform="matrix(-0.7071 0.7071 -0.7071 -0.7071 724.4471 -21.2792)" style="fill:#574D70;" cx="366.631" cy="139.398" rx="30.655" ry="49.308"/>
<path style="fill:#463F5B;" d="M366.632,150.367c-2.808,0-5.616-1.071-7.758-3.213c-4.284-4.285-4.284-11.232,0-15.517l69.56-69.56
	c4.146-4.145,6.429-9.657,6.429-15.52s-2.283-11.375-6.429-15.52c-4.145-4.146-9.657-6.429-15.52-6.429s-11.375,2.283-15.52,6.429
	L377.341,51.09c-8.29,8.29-19.312,12.855-31.037,12.855c-11.725,0-22.746-4.566-31.037-12.855l-16.751-16.753
	c-4.285-4.285-4.284-11.232,0-15.516s11.232-4.284,15.516,0l16.752,16.752c4.145,4.145,9.657,6.428,15.52,6.428
	s11.375-2.283,15.52-6.429l20.053-20.053c17.113-17.113,44.959-17.113,62.072,0c17.113,17.113,17.113,44.959,0,62.072l-69.56,69.56
	C372.247,149.296,369.439,150.367,366.632,150.367z"/>
<g>
	<circle style="fill:#6B6889;" cx="362.694" cy="288.319" r="31.346"/>
	<circle style="fill:#6B6889;" cx="318.422" cy="341.995" r="16.844"/>
</g>
<g>
</g>
<g>
</g>
<g>
</g>
<g>
</g>
<g>
</g>
<g>
</g>
<g>
</g>
<g>
</g>
<g>
</g>
<g>
</g>
<g>
</g>
<g>
</g>
<g>
</g>
<g>
</g>
<g>
</g>
</svg>
