<?xml version="1.0" encoding="iso-8859-1"?>
<!-- Generator: Adobe Illustrator 19.0.0, SVG Export Plug-In . SVG Version: 6.00 Build 0)  -->
<svg version="1.1" id="Capa_1" xmlns="http://www.w3.org/2000/svg" xmlns:xlink="http://www.w3.org/1999/xlink" x="0px" y="0px"
	 viewBox="0 0 512 512" style="enable-background:new 0 0 512 512;" xml:space="preserve">
<path style="fill:#DD98F2;" d="M512,256c0,35.683-7.304,69.663-20.49,100.53c-25.882,60.552-74.428,109.098-134.98,134.969
	C325.663,504.696,291.694,512,256,512s-69.674-7.304-100.54-20.501C94.919,465.617,46.373,417.071,20.49,356.53
	C7.304,325.663,0,291.683,0,256s7.304-69.663,20.49-100.53C46.373,94.929,94.919,46.383,155.46,20.501
	C186.326,7.304,220.306,0,256,0s69.663,7.304,100.53,20.501c60.552,25.872,109.098,74.418,134.98,134.969
	C504.696,186.337,512,220.317,512,256z"/>
<path style="fill:#E6BDF9;" d="M446.678,190.678c0,26.578-5.44,51.888-15.262,74.878c-19.278,45.101-55.437,81.261-100.538,100.531
	c-22.991,9.83-48.292,15.27-74.878,15.27s-51.896-5.44-74.886-15.27c-45.094-19.278-81.252-55.437-100.531-100.531
	c-9.822-22.991-15.262-48.3-15.262-74.878s5.44-51.888,15.262-74.878c19.278-45.094,55.437-81.252,100.531-100.531
	C204.104,5.44,229.414,0,256,0s51.888,5.44,74.878,15.27c45.101,19.27,81.261,55.429,100.538,100.531
	C441.238,138.791,446.678,164.1,446.678,190.678z"/>
<path style="fill:#463F5B;" d="M512,192.063V256c0,35.683-7.304,69.663-20.49,100.53c-6.52,4.002-14.2,6.301-22.403,6.301h-63.384
	c-23.688,0-42.893,19.205-42.893,42.904v63.373c0,8.213-2.309,15.872-6.301,22.392C325.663,504.696,291.694,512,256,512
	s-69.674-7.304-100.54-20.501c-4.002-6.52-6.301-14.179-6.301-22.392v-63.373c0-23.698-19.205-42.904-42.893-42.904H42.893
	c-8.202,0-15.882-2.299-22.403-6.301C7.304,325.663,0,291.683,0,256v-63.937c0-15.475,8.202-29.048,20.49-36.592
	c6.52-4.002,14.2-6.301,22.403-6.301h63.373c23.688,0,42.893-19.205,42.893-42.893V42.893c0-8.213,2.299-15.872,6.301-22.392
	C163.004,8.202,176.567,0,192.052,0h127.885c15.485,0,29.048,8.202,36.592,20.501c3.992,6.52,6.301,14.179,6.301,22.392v63.384
	c0,23.688,19.205,42.893,42.893,42.893h63.384c8.202,0,15.882,2.299,22.403,6.301C503.798,163.015,512,176.588,512,192.063z"/>
<path style="fill:#574D70;" d="M192.061,493.192c-13.282,0-24.087-10.805-24.087-24.086V405.73
	c0-34.023-27.679-61.702-61.702-61.702H42.894c-13.281,0-24.086-10.805-24.086-24.087v-127.88c0-13.282,10.805-24.087,24.086-24.087
	h63.376c34.023,0,61.702-27.679,61.702-61.702V42.894c0-13.281,10.805-24.086,24.087-24.086h127.88
	c13.282,0,24.087,10.805,24.087,24.086v63.376c0,34.023,27.679,61.702,61.703,61.702h63.375c13.282,0,24.087,10.805,24.087,24.087
	v127.88c0,13.282-10.805,24.087-24.087,24.087H405.73c-34.024,0-61.703,27.679-61.703,61.702v63.376
	c0,13.281-10.805,24.086-24.087,24.086H192.061V493.192z"/>
<path style="fill:#463F5B;" d="M237.77,48.5l-29.2,50.575c-8.101,14.031,2.025,31.569,18.227,31.569h58.399
	c16.201,0,26.327-17.539,18.227-31.569l-29.2-50.575C266.123,34.469,245.871,34.469,237.77,48.5z"/>
<path style="fill:#6B6889;" d="M226.797,117.061c-3.889,0-5.815-2.61-6.463-3.731c-0.648-1.121-1.945-4.094,0-7.462l29.2-50.576
	c1.945-3.368,5.167-3.731,6.464-3.731c1.295,0,4.518,0.364,6.464,3.731l29.199,50.575c1.945,3.368,0.648,6.34,0.001,7.463
	c-0.648,1.122-2.575,3.731-6.464,3.731H226.797z"/>
<path style="fill:#463F5B;" d="M274.224,463.502l29.2-50.575c8.101-14.031-2.025-31.57-18.227-31.57h-58.399
	c-16.201,0-26.327,17.539-18.227,31.57l29.2,50.575C245.871,477.533,266.123,477.533,274.224,463.502z"/>
<path style="fill:#6B6889;" d="M255.997,460.442c-1.296,0-4.519-0.364-6.464-3.731l-29.2-50.575c-1.945-3.368-0.648-6.341,0-7.464
	c0.648-1.121,2.574-3.731,6.463-3.731h58.4c3.889,0,5.815,2.61,6.464,3.731c0.647,1.122,1.944,4.095,0,7.463l-29.201,50.575
	C260.515,460.078,257.291,460.442,255.997,460.442z"/>
<path style="fill:#463F5B;" d="M463.498,237.774l-50.575-29.2c-14.031-8.101-31.57,2.025-31.57,18.227v58.399
	c0,16.201,17.539,26.327,31.57,18.227l50.575-29.2C477.529,266.127,477.529,245.875,463.498,237.774z"/>
<path style="fill:#6B6889;" d="M402.432,292.695c-3.604,0-7.495-2.865-7.495-7.494v-58.399c0-4.629,3.89-7.494,7.495-7.494
	c1.27,0,2.513,0.347,3.699,1.031l50.575,29.2c3.368,1.945,3.731,5.168,3.731,6.464c-0.001,1.296-0.365,4.518-3.731,6.463
	l-50.575,29.2C404.946,292.348,403.701,292.695,402.432,292.695L402.432,292.695z"/>
<path style="fill:#463F5B;" d="M48.496,274.227l50.575,29.2c14.031,8.101,31.569-2.025,31.569-18.227V226.8
	c0-16.201-17.539-26.327-31.569-18.227l-50.575,29.2C34.465,245.875,34.465,266.127,48.496,274.227z"/>
<path style="fill:#6B6889;" d="M109.564,292.695c-1.271,0-2.516-0.347-3.701-1.031l-50.575-29.2
	c-3.368-1.945-3.731-5.167-3.731-6.463s0.364-4.519,3.731-6.464l50.575-29.2c1.185-0.684,2.43-1.031,3.7-1.031
	c3.604,0,7.494,2.865,7.494,7.494V285.2c0,2.646-1.214,4.365-2.233,5.34C113.396,291.91,111.479,292.695,109.564,292.695
	L109.564,292.695z"/>
<path style="fill:#463F5B;" d="M302.42,256c0,6.47-1.324,12.632-3.716,18.228c-4.693,10.98-13.496,19.782-24.476,24.474
	c-5.596,2.393-11.756,3.718-18.228,3.718s-12.634-1.324-18.23-3.718c-10.978-4.693-19.78-13.496-24.474-24.474
	c-2.391-5.596-3.716-11.758-3.716-18.228c0-6.47,1.324-12.632,3.716-18.228c4.693-10.978,13.496-19.78,24.474-24.474
	c5.596-2.393,11.758-3.718,18.23-3.718s12.632,1.324,18.228,3.718c10.98,4.692,19.782,13.494,24.476,24.474
	C301.095,243.368,302.42,249.53,302.42,256z"/>
<path style="fill:#6B6889;" d="M256,288.836c-4.482,0-8.818-0.883-12.891-2.624c-7.711-3.297-14.026-9.611-17.323-17.323
	c-1.739-4.071-2.622-8.409-2.622-12.889c0-4.479,0.883-8.817,2.624-12.892c3.296-7.708,9.61-14.023,17.321-17.319
	c4.073-1.742,8.409-2.624,12.891-2.624c4.479,0,8.817,0.883,12.889,2.624c7.714,3.296,14.029,9.609,17.324,17.322
	c1.74,4.072,2.623,8.41,2.623,12.89c0,4.479-0.883,8.817-2.624,12.892c-3.295,7.71-9.609,14.024-17.32,17.318
	C264.817,287.953,260.479,288.836,256,288.836z"/>
<g>
</g>
<g>
</g>
<g>
</g>
<g>
</g>
<g>
</g>
<g>
</g>
<g>
</g>
<g>
</g>
<g>
</g>
<g>
</g>
<g>
</g>
<g>
</g>
<g>
</g>
<g>
</g>
<g>
</g>
</svg>
