<?xml version="1.0" encoding="iso-8859-1"?>
<!-- Generator: Adobe Illustrator 19.0.0, SVG Export Plug-In . SVG Version: 6.00 Build 0)  -->
<svg version="1.1" id="Capa_1" xmlns="http://www.w3.org/2000/svg" xmlns:xlink="http://www.w3.org/1999/xlink" x="0px" y="0px"
	 viewBox="0 0 512 512" style="enable-background:new 0 0 512 512;" xml:space="preserve">
<path style="fill:#3AC184;" d="M512,256c0,74.574-31.88,141.699-82.766,188.468C383.645,486.41,322.821,512,256,512
	s-127.655-25.6-173.244-67.542C31.88,397.688,0,330.564,0,256S31.88,114.312,82.756,67.542C128.345,25.6,189.179,0,256,0
	s127.645,25.59,173.234,67.532C480.12,114.301,512,181.426,512,256z"/>
<path style="fill:#D6DFE8;" d="M429.234,30.877v413.591C383.645,486.41,322.821,512,256,512s-127.655-25.6-173.244-67.542V30.877
	C82.756,13.824,96.58,0,113.633,0h284.735C415.41,0,429.234,13.824,429.234,30.877z"/>
<path style="fill:#B6C5D3;" d="M111.507,291.237V40.188c0-6.316,5.121-11.437,11.437-11.437h266.103
	c6.316,0,11.437,5.121,11.437,11.437v251.05c0,6.316-5.121,11.437-11.437,11.437H122.945
	C116.628,302.675,111.507,297.555,111.507,291.237z"/>
<g>
	<rect x="127.185" y="44.419" style="fill:#574D70;" width="257.63" height="242.584"/>
	<path style="fill:#574D70;" d="M196.226,346.011h-10.574c-3.953,0-7.156-3.204-7.156-7.157V328.28c0-3.953-3.204-7.156-7.157-7.156
		h-21.336c-3.953,0-7.156,3.204-7.156,7.156v10.574c0,3.953-3.204,7.157-7.157,7.157h-10.574c-3.953,0-7.157,3.204-7.157,7.156
		v21.336c0,3.953,3.204,7.156,7.157,7.156h10.574c3.953,0,7.157,3.204,7.157,7.156v10.574c0,3.953,3.204,7.156,7.156,7.156h21.336
		c3.953,0,7.157-3.204,7.157-7.156v-10.574c0-3.953,3.204-7.156,7.156-7.156h10.574c3.953,0,7.156-3.204,7.156-7.156v-21.336
		C203.382,349.215,200.177,346.011,196.226,346.011z"/>
</g>
<circle style="fill:#ED55A9;" cx="330.188" cy="343.009" r="21.943"/>
<circle style="fill:#3FC0DD;" cx="379.298" cy="392.119" r="21.943"/>
<path style="fill:#6B6889;" d="M350.041,287.002H127.185V44.419h34.774C161.959,44.419,120.163,287.002,350.041,287.002z"/>
<g>
	<path style="fill:#FFDE56;" d="M185.678,164.112h-14.555c-0.627,0-1.191,0.157-1.672,0.428c-1.546,0.857-2.393,2.863-2.393,4.765
		c0,2.685,1.473,5.193,4.065,5.193h5.11v2.947c0,1.797-0.272,3.312-0.794,4.535c-1.181,2.79-3.626,4.127-7.001,4.127
		c-4.848,0-7.701-2.769-7.701-8.662v-22.946c0-4.253,1.484-6.875,4.169-8.004c1.034-0.449,2.247-0.658,3.626-0.658
		c7.356,0,7.617,4.671,7.701,7.795c0.094,3.114,3.124,4.065,6.76,4.065c4.587,0,6.75-1.212,6.75-6.405
		c0-11.003-9.352-17.23-21.734-17.23c-1.839,0-3.626,0.146-5.329,0.449c-8.829,1.588-15.454,7.502-15.454,19.989v22.946
		c0,14.9,9.268,20.438,21.211,20.438c4.796,0,9.174-0.899,12.695-2.926c5.256-3.03,8.61-8.589,8.61-17.512v-9.091
		C189.743,166.097,188.28,164.112,185.678,164.112z"/>
	<path style="fill:#FFDE56;" d="M247.944,190.872l-16.196-52.83c-0.951-3.03-4.848-4.503-8.829-4.503s-7.879,1.473-8.84,4.503
		l-16.102,52.83c-0.094,0.345-0.178,0.69-0.178,0.951c0,3.208,4.942,5.538,8.662,5.538c2.163,0,3.897-0.69,4.42-2.508l2.947-10.825
		h18.265l2.947,10.825c0.522,1.818,2.257,2.508,4.42,2.508c3.72,0,8.662-2.33,8.662-5.538
		C248.121,191.561,248.038,191.216,247.944,190.872z M216.597,173.631l6.322-23.207l6.322,23.207L216.597,173.631L216.597,173.631z"
		/>
	<path style="fill:#FFDE56;" d="M303.292,134.06c-4.859,0-6.928,0.512-10.48,6.75l-8.923,15.59l-8.923-15.59
		c-3.553-6.238-5.632-6.75-10.48-6.75c-3.375,0-6.75,1.818-6.75,6.75v52.402c0,2.769,3.375,4.148,6.75,4.148
		c3.385,0,6.76-1.379,6.76-4.148v-33.343l8.223,15.067c1.045,1.985,2.685,2.508,4.242,2.508c1.651,0,3.385-0.606,4.504-2.508
		l8.317-14.211v32.486c0,2.769,3.375,4.148,6.76,4.148c3.375,0,6.75-1.379,6.75-4.148V140.81
		C310.042,135.879,306.751,134.06,303.292,134.06z"/>
	<path style="fill:#FFDE56;" d="M360.709,185.584h-23.218v-14.723h12.999c2.853,0,4.065-2.769,4.065-5.11
		c0-2.769-1.473-5.277-4.065-5.277h-12.999v-14.639h23.218c2.591,0,4.065-2.769,4.065-5.977c0-2.769-1.212-5.799-4.065-5.799
		h-30.835c-2.947,0-5.893,1.379-5.893,4.148v55.003c0,2.769,2.947,4.148,5.893,4.148h30.835c2.853,0,4.065-3.03,4.065-5.799
		C364.774,188.353,363.301,185.584,360.709,185.584z"/>
</g>
<g>
	<path style="fill:#FFE584;" d="M167.058,169.305c0-1.902,0.846-3.908,2.393-4.765c0.982,3.323,2.048,6.646,3.208,9.958h-1.536
		C168.532,174.498,167.058,171.99,167.058,169.305z"/>
	<path style="fill:#FFE584;" d="M181.133,194.957c-3.521,2.027-7.899,2.926-12.695,2.926c-11.943,0-21.211-5.538-21.211-20.438
		v-22.946c0-12.487,6.625-18.401,15.454-19.989c0.637,3.95,1.379,7.952,2.226,11.985c-2.685,1.128-4.169,3.751-4.169,8.004v22.946
		c0,5.893,2.853,8.662,7.701,8.662c3.375,0,5.82-1.337,7.001-4.127C177.162,186.337,179.054,190.673,181.133,194.957z"/>
</g>
<g>
</g>
<g>
</g>
<g>
</g>
<g>
</g>
<g>
</g>
<g>
</g>
<g>
</g>
<g>
</g>
<g>
</g>
<g>
</g>
<g>
</g>
<g>
</g>
<g>
</g>
<g>
</g>
<g>
</g>
</svg>
