<?xml version="1.0" encoding="iso-8859-1"?>
<!-- Generator: Adobe Illustrator 19.0.0, SVG Export Plug-In . SVG Version: 6.00 Build 0)  -->
<svg version="1.1" id="Capa_1" xmlns="http://www.w3.org/2000/svg" xmlns:xlink="http://www.w3.org/1999/xlink" x="0px" y="0px"
	 viewBox="0 0 512 512" style="enable-background:new 0 0 512 512;" xml:space="preserve">
<path style="fill:#DD98F2;" d="M512,256c0,52.402-15.747,101.136-42.768,141.709c-8.882,13.343-18.996,25.809-30.156,37.23
	c-3.688,3.772-7.502,7.44-11.421,10.971c-44.022,39.821-101.94,64.543-165.616,66.017C260.033,511.979,258.017,512,256,512
	c-2.017,0-4.033-0.021-6.04-0.073c-63.687-1.473-121.605-26.196-165.627-66.017c-3.918-3.542-7.722-7.199-11.41-10.971
	c-11.18-11.442-21.305-23.928-30.208-37.303c-0.01-0.031-0.031-0.052-0.042-0.073C15.705,357.021,0,308.339,0,256
	C0,114.615,114.615,0,256,0S512,114.615,512,256z"/>
<path style="fill:#E6BDF9;" d="M447.88,191.88c0,39.277-11.802,75.804-32.055,106.215c-6.657,10.002-14.238,19.344-22.602,27.905
	c-2.765,2.827-5.624,5.577-8.56,8.223c-32.996,29.848-76.407,48.378-124.135,49.481c-1.504,0.039-3.016,0.054-4.526,0.054
	c-1.511,0-3.023-0.016-4.526-0.054c-47.735-1.104-91.146-19.635-124.142-49.481c-2.937-2.655-5.788-5.396-8.552-8.223
	c-8.38-8.575-15.969-17.935-22.642-27.959c-0.007-0.023-0.024-0.039-0.031-0.054C75.891,267.598,64.12,231.109,64.12,191.88
	C64.12,85.907,150.028,0,256,0S447.88,85.907,447.88,191.88z"/>
<path style="fill:#463F5B;" d="M439.077,434.939c-3.688,3.772-7.502,7.44-11.421,10.971
	c-44.022,39.821-101.94,64.543-165.616,66.017C260.033,511.979,258.017,512,256,512c-2.017,0-4.033-0.021-6.04-0.073
	c-63.687-1.473-121.605-26.196-165.627-66.017c-3.918-3.542-7.722-7.199-11.41-10.971l1.829-8.976l12.069-59.162l3.542-17.366
	c0,0-0.01,0,0-0.01l3.239-15.903c3.772-18.526,17.283-31.514,32.768-31.514h259.26c15.485,0,28.985,12.988,32.768,31.514
	l3.239,15.893l3.542,17.377l12.069,59.162L439.077,434.939z"/>
<path style="fill:#D6DFE8;" d="M438.69,222.26l-32.434,63.801l-62.474,18.066c-23.301,6.74-40.114,27.042-42.392,51.19
	l-12.163,128.773h-66.456l-8.976-94.919l-3.197-33.855c-2.278-24.148-19.09-44.45-42.392-51.19l-62.474-18.066L79.235,222.26
	L438.69,222.26L438.69,222.26z"/>
<path style="fill:#EAF1F9;" d="M438.69,222.26l-32.434,63.801l-62.474,18.066c-23.301,6.74-40.114,27.042-42.392,51.19
	l-12.163,128.773h-66.456l-8.976-94.919l96.538-166.912H438.69z"/>
<path style="fill:#574D70;" d="M421.449,112.734C379.12,70.374,320.617,44.168,256,44.168c-64.627,0-123.12,26.206-165.46,68.566
	c-42.297,42.329-68.462,100.791-68.462,165.355c0,56.09,19.749,107.572,52.673,147.874c4.974,6.092,10.24,11.922,15.788,17.471
	c41.012,41.044,97.196,66.915,159.42,68.493c2.006,0.052,4.023,0.073,6.04,0.073c2.017,0,4.033-0.021,6.039-0.073
	c62.213-1.578,118.397-27.449,159.41-68.493c5.548-5.559,10.825-11.389,15.799-17.481c32.914-40.291,52.663-91.773,52.663-147.863
	C489.911,213.525,463.747,155.063,421.449,112.734z M425.179,366.791c-9.007,17.147-20.543,32.758-34.116,46.341
	c-26.739,26.739-61.377,45.589-100.112,52.757c-11.327,2.09-23.009,3.187-34.952,3.187c-11.943,0-23.625-1.097-34.952-3.187
	c-38.734-7.168-73.373-26.018-100.112-52.757c-13.573-13.573-25.119-29.184-34.116-46.331
	c-13.939-26.509-21.817-56.696-21.817-88.712c0-52.726,21.379-100.477,55.933-135.043C155.502,108.471,203.254,87.092,256,87.092
	s100.488,21.379,135.053,55.944c21.828,21.838,38.4,48.933,47.637,79.224c5.392,17.659,8.296,36.404,8.296,55.829
	C446.986,310.105,439.108,340.281,425.179,366.791z"/>
<path style="fill:#3FC0DD;" d="M500.548,278.089c0,43.415-11.379,84.229-31.316,119.62c-8.882,13.343-18.996,25.809-30.156,37.23
	c-3.688,3.772-7.502,7.44-11.421,10.971c-2.215-0.178-4.378-1.003-6.207-2.476c-0.324-0.251-0.637-0.533-0.94-0.836l-29.205-29.205
	c-0.084-0.084-0.167-0.167-0.24-0.261c-4.044-4.284-4.138-10.961-0.199-15.402c12.664-14.263,23.103-30.553,30.772-48.316
	c3.72-8.61,6.792-17.565,9.143-26.791c2.664-10.471-5.434-20.616-16.238-20.616l0,0c-4.577,0-8.286-3.709-8.286-8.286v-88.733
	c6.813,0,11.316-7.293,8.046-13.27c-6.562-11.985-14.44-23.144-23.448-33.29c-3.929-4.43-3.835-11.107,0.199-15.391
	c0.084-0.094,0.167-0.178,0.251-0.261l29.205-29.205c0.303-0.303,0.616-0.585,0.94-0.836c4.681-3.762,11.588-3.271,15.726,1.285
	C476.536,157.445,500.548,215.019,500.548,278.089z"/>
<path style="fill:#129BBD;" d="M405.932,413.393c-0.084-0.084-0.167-0.167-0.24-0.261c-4.044-4.284-4.138-10.961-0.199-15.402
	c12.664-14.263,23.103-30.553,30.772-48.316c3.72-8.61,6.792-17.565,9.143-26.791c2.664-10.471-5.434-20.616-16.238-20.616
	c-4.577,0-8.286-3.709-8.286-8.286v-88.733c6.813,0,11.316-7.293,8.046-13.27c-6.562-11.985-14.44-23.144-23.448-33.29
	c-3.929-4.43-3.835-11.107,0.199-15.391c0.084-0.094,0.167-0.178,0.251-0.261l29.205-29.205c0.258-0.258,0.528-0.49,0.8-0.712
	c-4.181-3.438-10.245-3.534-14.489-0.124c-0.324,0.251-0.637,0.533-0.94,0.836l-29.205,29.205c-0.084,0.084-0.167,0.167-0.251,0.261
	c-4.033,4.284-4.127,10.961-0.199,15.391c9.007,10.146,16.886,21.305,23.448,33.29c3.271,5.977-1.233,13.27-8.046,13.27v88.733
	c0,4.577,3.709,8.286,8.286,8.286c10.804,0,18.902,10.146,16.238,20.616c-2.351,9.226-5.423,18.181-9.143,26.791
	c-7.67,17.763-18.108,34.053-30.772,48.316c-3.939,4.441-3.845,11.118,0.199,15.402c0.073,0.094,0.157,0.178,0.24,0.261
	l29.205,29.205c0.303,0.303,0.616,0.585,0.94,0.836c1.829,1.473,3.992,2.299,6.207,2.476c1.889-1.703,3.751-3.441,5.59-5.204
	L405.932,413.393z"/>
<path style="fill:#3FC0DD;" d="M121.125,397.73c3.939,4.441,3.856,11.118-0.188,15.402c-0.084,0.094-0.167,0.178-0.251,0.261
	l-29.205,29.205c-0.303,0.303-0.616,0.585-0.94,0.836c-1.829,1.473-3.992,2.299-6.207,2.476c-3.918-3.542-7.722-7.199-11.41-10.971
	c-11.18-11.442-21.305-23.928-30.208-37.303c-0.003-0.005-0.006-0.009-0.009-0.015c-19.894-35.373-31.254-76.155-31.254-119.532
	c0-63.07,24.001-120.644,63.363-164.07c4.138-4.556,11.055-5.047,15.726-1.285c0.324,0.251,0.637,0.533,0.94,0.836l29.205,29.205
	c0.084,0.084,0.178,0.178,0.251,0.272c4.044,4.284,4.127,10.951,0.199,15.381c-9.007,10.146-16.886,21.305-23.448,33.29
	c-0.752,1.369-1.087,2.8-1.087,4.201c0,4.733,3.877,9.07,9.132,9.07v88.733c0,4.577-3.709,8.286-8.286,8.286l0,0
	c-10.839,0-18.897,10.188-16.219,20.691c2.349,9.211,5.414,18.14,9.134,26.727c-0.01,0.01,0,0.01,0,0.01
	C98.032,367.188,108.471,383.478,121.125,397.73z"/>
<path style="fill:#129BBD;" d="M84.417,434.939c-11.18-11.442-21.305-23.928-30.208-37.303c-0.003-0.005-0.006-0.009-0.009-0.015
	c-19.894-35.373-31.254-76.155-31.254-119.532c0-63.07,24.001-120.644,63.363-164.07c0.835-0.918,1.786-1.663,2.805-2.25
	c-4.568-2.651-10.563-1.862-14.298,2.25c-39.361,43.426-63.363,101-63.363,164.07c0,43.377,11.36,84.159,31.254,119.532
	c0.003,0.005,0.006,0.009,0.009,0.015c8.903,13.375,19.028,25.861,30.208,37.303c3.688,3.772,7.492,7.429,11.41,10.971
	c2.215-0.178,4.378-1.003,6.207-2.476c0.324-0.251,0.637-0.533,0.94-0.836l0.383-0.383C89.339,439.833,86.844,437.42,84.417,434.939
	z"/>
<circle style="fill:#574D70;" cx="256" cy="284.735" r="47.847"/>
<circle style="fill:#3FC0DD;" cx="256" cy="284.735" r="28.108"/>
<g>
	<polygon style="fill:#463F5B;" points="172.265,252.832 160.304,252.832 160.304,240.87 141.697,240.87 141.697,252.832 
		129.735,252.832 129.735,271.439 141.697,271.439 141.697,283.4 160.304,283.4 160.304,271.439 172.265,271.439 	"/>
	<circle style="fill:#463F5B;" cx="376.947" cy="260.807" r="11.297"/>
	<circle style="fill:#463F5B;" cx="345.046" cy="260.807" r="11.297"/>
</g>
<g>
</g>
<g>
</g>
<g>
</g>
<g>
</g>
<g>
</g>
<g>
</g>
<g>
</g>
<g>
</g>
<g>
</g>
<g>
</g>
<g>
</g>
<g>
</g>
<g>
</g>
<g>
</g>
<g>
</g>
</svg>
