<?xml version="1.0" encoding="iso-8859-1"?>
<!-- Generator: Adobe Illustrator 19.0.0, SVG Export Plug-In . SVG Version: 6.00 Build 0)  -->
<svg version="1.1" id="Capa_1" xmlns="http://www.w3.org/2000/svg" xmlns:xlink="http://www.w3.org/1999/xlink" x="0px" y="0px"
	 viewBox="0 0 512 512" style="enable-background:new 0 0 512 512;" xml:space="preserve">
<path style="fill:#3FC0DD;" d="M512,256c0,25.558-3.741,50.239-10.721,73.529c-4.514,15.078-10.376,29.571-17.45,43.342
	c-2.027,3.939-4.148,7.826-6.374,11.64c-4.953,8.526-10.386,16.729-16.259,24.597C414.511,471.562,339.978,512,256,512
	S97.489,471.562,50.803,409.109c-5.862-7.858-11.295-16.05-16.238-24.566c-2.247-3.845-4.378-7.743-6.416-11.713
	c-7.064-13.761-12.925-28.233-17.429-43.301C3.741,306.239,0,281.558,0,256C0,114.615,114.615,0,256,0S512,114.615,512,256z"/>
<path style="fill:#5DD5E5;" d="M460.419,204.419c0,20.409-2.987,40.116-8.561,58.714c-3.605,12.039-8.285,23.613-13.934,34.609
	c-1.619,3.145-3.312,6.25-5.09,9.294c-3.955,6.809-8.293,13.358-12.983,19.641c-37.279,49.871-96.794,82.16-163.852,82.16
	s-126.573-32.289-163.851-82.159c-4.681-6.275-9.02-12.816-12.966-19.616c-1.794-3.071-3.496-6.183-5.123-9.353
	c-5.64-10.988-10.321-22.545-13.917-34.576c-5.573-18.598-8.561-38.306-8.561-58.714C51.581,91.522,143.103,0,256,0
	S460.419,91.522,460.419,204.419z"/>
<path style="fill:#463F5B;" d="M213.177,299.452h85.641c15.57,0,30.256,7.24,39.737,19.591l0,0
	c9.481,12.351,24.166,19.591,39.737,19.591h80.686c23.36,0,42.296-18.937,42.296-42.296v-115.35
	c0-41.039-33.27-74.309-74.309-74.309H85.029c-41.039,0-74.309,33.27-74.309,74.309v115.35c0,23.36,18.937,42.296,42.296,42.296
	h80.686c15.57,0,30.256-7.24,39.737-19.591l0,0C182.921,306.691,197.606,299.452,213.177,299.452z"/>
<path style="fill:#574D70;" d="M501.279,251.517v78.012c-8.683,29.027-22.382,55.892-40.082,79.579
	c-0.731,0.031-1.473,0.052-2.215,0.052h-80.687c-7.785,0-15.35-1.808-22.152-5.162c-6.802-3.354-12.852-8.255-17.586-14.43
	c-9.488-12.351-24.168-19.592-39.737-19.592h-85.64c-7.785,0-15.35,1.808-22.152,5.162c-6.802,3.354-12.852,8.255-17.586,14.43
	c-9.488,12.351-24.168,19.592-39.737,19.592H53.018c-0.742,0-1.484-0.021-2.215-0.052c-17.701-23.688-31.399-50.552-40.082-79.579
	v-78.012c0-41.044,33.27-74.313,74.303-74.313h341.943C468.01,177.204,501.279,210.474,501.279,251.517z"/>
<path style="fill:#6B6889;" d="M484.551,251.517v115.346c0,2.069-0.251,4.086-0.721,6.008c-2.027,3.939-4.148,7.826-6.374,11.64
	c-4.65,4.89-11.212,7.931-18.474,7.931h-80.687c-10.303,0-20.208-4.88-26.478-13.051c-12.56-16.363-32.371-26.133-52.997-26.133
	h-85.64c-20.626,0-40.448,9.77-53.008,26.133c-6.269,8.171-16.165,13.051-26.467,13.051H53.018c-7.252,0-13.803-3.03-18.453-7.899
	c-2.247-3.845-4.378-7.743-6.416-11.713c-0.47-1.912-0.711-3.908-0.711-5.966V251.517c0-31.754,25.83-57.595,57.584-57.595h341.943
	C458.721,193.923,484.551,219.763,484.551,251.517z"/>
<g>
	<path style="fill:#574D70;" d="M63.24,256.091c-0.103-0.414-0.207-0.827-0.207-1.136c0-3.822,5.888-6.611,10.33-6.611
		c2.582,0,4.649,0.827,5.268,2.996l14.461,52.994l14.359-52.994c0.62-2.169,2.686-2.996,5.268-2.996
		c4.443,0,10.33,2.789,10.33,6.611c0,0.31-0.102,0.723-0.207,1.136l-19.214,63.015c-1.136,3.615-5.785,5.372-10.537,5.372
		c-4.751,0-9.4-1.756-10.537-5.372L63.24,256.091z"/>
	<path style="fill:#574D70;" d="M135.646,253.199c0-2.583,1.962-4.856,4.959-4.856h21.384c14.152,0,25.412,5.268,25.412,22.107
		c0,11.57-5.268,18.181-12.5,20.971l12.604,22.83c0.414,0.62,0.516,1.343,0.516,1.86c0,4.028-5.372,8.368-10.124,8.368
		c-2.066,0-4.028-0.827-5.165-2.996l-14.153-27.479h-6.818V318.9c0,3.306-4.028,4.958-8.057,4.958c-4.029,0-8.058-1.653-8.058-4.958
		v-65.701H135.646z M151.761,262.392v19.215h10.227c5.785,0,9.298-2.376,9.298-9.608c0-7.231-3.512-9.607-9.298-9.607H151.761z"/>
	<path style="fill:#574D70;" d="M484.551,308.526H292.571c-15.582,0-28.212-12.631-28.212-28.212l0,0
		c0-15.582,12.631-28.212,28.212-28.212H484.55L484.551,308.526L484.551,308.526z"/>
</g>
<g>
</g>
<g>
</g>
<g>
</g>
<g>
</g>
<g>
</g>
<g>
</g>
<g>
</g>
<g>
</g>
<g>
</g>
<g>
</g>
<g>
</g>
<g>
</g>
<g>
</g>
<g>
</g>
<g>
</g>
</svg>
