<?xml version="1.0" encoding="iso-8859-1"?>
<!-- Generator: Adobe Illustrator 19.0.0, SVG Export Plug-In . SVG Version: 6.00 Build 0)  -->
<svg version="1.1" id="Capa_1" xmlns="http://www.w3.org/2000/svg" xmlns:xlink="http://www.w3.org/1999/xlink" x="0px" y="0px"
	 viewBox="0 0 512 512" style="enable-background:new 0 0 512 512;" xml:space="preserve">
<path style="fill:#D6DFE8;" d="M509.943,258.058c0,96.965-54.344,181.232-134.237,224.008C340.04,501.169,299.284,512,256,512
	c-30.722,0-60.169-5.452-87.418-15.454c-16.315-5.981-31.852-13.589-46.404-22.627C50.068,429.122,2.058,349.197,2.058,258.058
	C2.058,117.809,115.751,4.115,256,4.115S509.943,117.809,509.943,258.058z"/>
<path style="fill:#EAF1F9;" d="M463.958,212.073c0,1.672-0.017,3.345-0.059,5.008c-0.348,14.617-2.198,28.859-5.416,42.585
	c0,0,0,0,0,0.008c-0.823,3.522-1.74,7.011-2.75,10.457c-1.18,4.109-2.496,8.157-3.93,12.147
	c-9.311,25.974-23.648,49.553-41.837,69.569c-2.699,2.979-5.491,5.882-8.37,8.7c-27.935,27.408-63.576,46.981-103.368,55.189
	c-2.903,0.594-5.831,1.137-8.777,1.613h-0.008c-10.891,1.765-22.052,2.682-33.443,2.682c-56.701,0-108.087-22.689-145.604-59.476
	c-10.516-10.321-19.938-21.729-28.079-34.08l-0.008-0.008C70.986,309.314,62.14,290.393,56.276,270.2
	c-0.008-0.017-0.008-0.042-0.017-0.059c-5.356-18.428-8.216-37.916-8.216-58.067c0-11.383,0.916-22.561,2.682-33.443
	c3.293-20.414,9.566-39.835,18.351-57.795c21.229-43.417,57.142-78.345,101.271-98.317c20.872-9.448,43.586-15.551,67.446-17.613
	c6.001-0.527,12.07-0.79,18.207-0.79C370.853,4.115,463.958,97.221,463.958,212.073z"/>
<g>
	<path style="fill:#574D70;" d="M375.706,482.066C340.04,501.169,299.284,512,256,512c-49.109,0-94.964-13.941-133.823-38.081
		c4.395-6.882,12.106-11.443,20.875-11.443h29.644v-39.967h149.152v39.967h29.634c6.841,0,13.039,2.767,17.517,7.245
		C372.316,473.049,374.7,477.298,375.706,482.066z"/>
	<path style="fill:#574D70;" d="M335.904,448.612H158.636c-15.419,0-26.819-12.64-26.819-26.773c0-3.431,0.672-6.963,2.125-10.413
		c1.575-3.739,4.185-6.823,7.43-8.977c3.235-2.145,7.103-3.366,11.158-3.366c5.64,0,10.749-2.321,14.402-6.069
		c3.571-3.627,5.761-8.604,5.761-14.095v-19.8h149.152v19.8c0,5.565,2.255,10.609,5.91,14.253c2.051,2.051,4.54,3.664,7.308,4.689
		c0.009-0.009,0.009,0,0.009,0c2.163,0.792,4.503,1.221,6.935,1.221c4.055,0,7.924,1.221,11.158,3.366
		c3.244,2.154,5.854,5.238,7.43,8.977C368.036,429.082,355.07,448.612,335.904,448.612z"/>
</g>
<g>
	<path style="fill:#463F5B;" d="M323.87,448.608v13.868H191.53c-13.682,0-24.762,11.08-24.762,24.752
		c0,3.306,0.643,6.447,1.814,9.318c-16.315-5.981-31.852-13.589-46.404-22.627c4.384-6.882,12.096-11.443,20.875-11.443h29.644
		v-39.967h7.618c0.342,13.858,11.619,26.099,26.794,26.099H323.87z"/>
	<path style="fill:#463F5B;" d="M221.169,359.121v19.8c0,11.131-9.033,20.163-20.163,20.163c-4.055,0-7.924,1.221-11.158,3.366
		c-3.244,2.154-5.854,5.238-7.43,8.977c-1.454,3.449-2.126,6.982-2.126,10.413c0,0.224,0,0.448,0.019,0.672
		c0.345,13.862,11.624,26.101,26.801,26.101h-48.475c-15.419,0-26.819-12.64-26.819-26.773c0-3.431,0.672-6.963,2.126-10.413
		c1.575-3.739,4.185-6.823,7.43-8.977c3.235-2.145,7.103-3.366,11.158-3.366c11.131,0,20.163-9.033,20.163-20.163v-19.8
		L221.169,359.121L221.169,359.121z"/>
	<polyline style="fill:#463F5B;" points="378.401,188.528 387.567,179.361 364.418,156.212 354.164,162.427 	"/>
	<path style="fill:#463F5B;" d="M273.373,36.58l6.15-9.664c3.766-5.917,1.003-13.796-5.634-16.06
		C254.171,4.132,213.385-4.07,167.413,19.8C102.78,53.359,80.718,114.263,94.39,185.732s72.165,62.87,74.266,109.378
		s-39.774,54.068-39.774,54.068l24.238,12.74l81.101-7.458L273.373,36.58z"/>
	<path style="fill:#463F5B;" d="M335.064,397.863c-17.404,4.101-53.079,10.095-102.113,5.985
		c-19.912-1.678-42.033-5.016-66.018-10.832c3.571-3.627,5.761-8.604,5.761-14.095v-19.8h149.152v19.8
		c0,5.565,2.255,10.609,5.91,14.253C329.807,395.225,332.296,396.838,335.064,397.863z"/>
</g>
<path style="fill:#574D70;" d="M414.732,179.206c0,1.939-0.745,3.878-2.228,5.36c-2.964,2.964-7.756,2.964-10.72,0l-17.842-17.842
	c-2.256-2.255-5.182-3.356-8.101-3.356c-3.496,0-6.973,1.575-9.248,4.652l19.576,19.576c1.417,1.417,2.126,3.272,2.126,5.128
	c0,1.855-0.709,3.71-2.126,5.128c-2.834,2.834-7.42,2.834-10.254,0l-5.128-5.128l-2.395,0.7l-5.182,1.501
	c-0.745,0.215-1.51,0.317-2.256,0.317c-1.277,0-2.526-0.308-3.635-0.876c-1.65-0.82-3.02-2.21-3.794-4.017
	c-6.777-15.81-22.317-26.054-39.506-26.054h-38.78l6.209,5.509l10.394,9.22l90.946,80.72c15.856,14.234,23.501,33.465,23.501,52.567
	c0,24.303-12.371,48.399-35.964,61.73c0,0-43.012,15.26-114.064,9.304c-29.812-2.507-64.565-8.744-103.139-21.422l1.025-0.857
	c18.104-15.195,27.686-37.139,27.686-59.4c0-13.899-3.738-27.929-11.456-40.504c-38.798-63.24-30.464-144.631,20.368-198.679
	l1.566-1.669c18.672-19.856,45.864-29.345,72.833-25.421l8.232,1.193l26.213,15.688c0,0,0.009,0.009,0.028,0.019l45.631,27.314
	l48.894,29.261c4.521,2.703,8.11,6.73,10.291,11.531l5.966,13.116c2.806,6.181,1.492,13.452-3.31,18.253l-1.342,1.342v13.983
	l6.758,6.758C413.987,175.328,414.732,177.268,414.732,179.206z"/>
<g>
	<path style="fill:#463F5B;" d="M398.291,144.25c-0.34,0-0.686-0.041-1.031-0.129c-7.047-1.782-11.754-6.325-13.254-12.79
		c-1.069-4.607-0.154-8.61-0.047-9.051c0.549-2.251,2.822-3.63,5.07-3.08c2.243,0.548,3.621,2.804,3.086,5.047
		c-0.361,1.579-1.685,9.494,7.202,11.741c2.246,0.568,3.606,2.849,3.038,5.095C401.874,142.983,400.166,144.25,398.291,144.25z"/>
	<path style="fill:#463F5B;" d="M405.745,157.215v9.872c-10.283-10.283-23.087-16.195-37.547-16.258
		c-2.819-0.012-3.073-4.187-0.271-4.487c4.948-0.53,10.965-0.002,17.934,2.725C394.653,152.508,401.15,155.221,405.745,157.215z"/>
</g>
<path style="fill:#574D70;" d="M258.769,42.173c0,0-7.458-27.966-29.83-35.423c-3.275-1.091-6.285-3.117-9.036-5.777
	c-1.845-1.785-4.914-1.006-5.599,1.468c-3.979,14.365-10.033,50.92,31.414,50.92"/>
<g>
	<path style="fill:#463F5B;" d="M370.788,192.723l-7.579,2.199c-0.745,0.215-1.51,0.317-2.256,0.317
		c-1.277,0-2.526-0.308-3.635-0.876l-2.004-9.699c-0.573-2.778,2.813-4.603,4.818-2.599L370.788,192.723z"/>
	<path style="fill:#463F5B;" d="M215.554,14.748c-0.725-3.673,3.488-6.289,6.454-4.005c8.869,6.829,21.167,18.903,17.806,31.431
		c-2.706,10.086-8.268,7.188-12.918,2.204c-4.682-5.02-7.737-11.339-9.065-18.073L215.554,14.748z"/>
	<path style="fill:#463F5B;" d="M406.286,312.306c0,24.303-12.371,48.399-35.964,61.73c0,0-43.012,15.26-114.064,9.304l-0.019-0.009
		c0,0,75.098-1.202,86.658-62.551c11.568-61.348-83.507-143.745-83.507-143.745l22.056-7.234l10.394,9.22l90.946,80.72
		C398.642,273.974,406.286,293.205,406.286,312.306z"/>
	<path style="fill:#463F5B;" d="M341.229,99.686c-16.66-30.397-40.754-46.82-41.615-47.398l45.631,27.314l1.671,18.361
		C347.216,101.243,342.814,102.576,341.229,99.686z"/>
	<path style="fill:#463F5B;" d="M299.615,52.287l-28.588,4.336c-3.669,0.557-5.539-4.256-2.455-6.322l13.08-8.767L299.615,52.287z"
		/>
	<path style="fill:#463F5B;" d="M360.133,182.069c-29.863-39.446-53.182-41.032-77.79-41.081
		c10.628-9.119,26.257-22.297,35.569-29.074c2.826-2.056,4.326-5.451,4.011-8.932c-0.51-5.626-2.203-13.928-7.438-19.43
		c2.722-1.957,4.972-4.609,6.431-7.82l-5.817-5.817c-7.791-7.791-21.025-5.957-26.133,3.807c-2.577,4.925-5.657,9.024-9.067,10.089
		l10.019,1.278c9.232,1.177,14.477,11.503,9.61,19.435c-0.425,0.693-0.861,1.241-1.305,1.59
		c-6.771,5.337-17.599,14.717-23.86,24.488c-4.729,7.379-10.943,13.712-18.167,18.674c-0.356,0.245-0.706,0.488-1.052,0.732
		c-11.536,8.116-27.873,2.566-31.724-11.001c-0.908-3.199-1.482-6.897-1.636-11.165c0,0-9.005,46.079,37.605,49.192
		c13.442,0.895,24.098,1.538,32.45,1.986l-15.932-14.729h38.109c17.189,0,32.73,10.245,39.506,26.055
		c0.773,1.809,2.145,3.198,3.794,4.017c1.109,0.569,2.358,0.876,3.636,0.876c0.745,0,1.51-0.103,2.256-0.317l5.182-1.501
		C366.053,190.048,363.321,186.282,360.133,182.069z"/>
	<path style="fill:#463F5B;" d="M208.461,142.52c2.458,20.535,11.623,54.567,42.248,95.446c1.691,2.257-1.344,5.017-3.424,3.112
		c-21.7-19.881-54.698-57.76-46.819-98.822C201.336,137.724,207.914,137.94,208.461,142.52z"/>
	<path style="fill:#463F5B;" d="M192.965,185.213c-1.464-4.175-7.725-2.309-6.679,1.989c5.244,21.56,14.366,47.877,30.222,73.105
		c16.13,25.663,23.81,54.396,27.464,75.363c0.468,2.69,4.429,2.301,4.374-0.428c-0.505-25.146-4.619-60.339-21.584-83.324
		C210.966,230.515,200.461,206.605,192.965,185.213z"/>
</g>
<circle style="fill:#574D70;" cx="305.374" cy="72.006" r="5.292"/>
<g>
</g>
<g>
</g>
<g>
</g>
<g>
</g>
<g>
</g>
<g>
</g>
<g>
</g>
<g>
</g>
<g>
</g>
<g>
</g>
<g>
</g>
<g>
</g>
<g>
</g>
<g>
</g>
<g>
</g>
</svg>
