<?xml version="1.0" encoding="iso-8859-1"?>
<!-- Generator: Adobe Illustrator 19.0.0, SVG Export Plug-In . SVG Version: 6.00 Build 0)  -->
<svg version="1.1" id="Capa_1" xmlns="http://www.w3.org/2000/svg" xmlns:xlink="http://www.w3.org/1999/xlink" x="0px" y="0px"
	 viewBox="0 0 512 512" style="enable-background:new 0 0 512 512;" xml:space="preserve">
<path style="fill:#463F5B;" d="M512,256c0,62.286-22.246,119.38-59.225,163.756c-13.072,15.705-27.993,29.811-44.429,41.994
	C365.777,493.328,313.072,512,256,512s-109.777-18.672-152.346-50.249c-16.436-12.184-31.347-26.29-44.429-41.994l-0.01-0.01
	C22.235,375.369,0,318.276,0,256C0,116.308,111.877,2.748,250.922,0.063C252.604,0.021,254.297,0,256,0
	c0.846,0,1.693,0.01,2.539,0.021C398.754,1.369,512,115.461,512,256z"/>
<path style="fill:#3FC0DD;" d="M452.775,196.775v222.981c-13.072,15.705-27.993,29.811-44.429,41.994
	c-5.454-2.905-12.037-4.921-21.159-4.921c-32.799,0-32.799,25.997-65.588,25.997c-32.799,0-32.799-25.997-65.588-25.997
	c-32.799,0-32.799,25.997-65.599,25.997s-32.799-25.997-65.599-25.997c-9.122,0-15.705,2.017-21.159,4.921
	c-16.436-12.184-31.357-26.3-44.44-42.005V196.775c0-107.823,86.737-195.396,194.247-196.754C254.307,0.01,255.154,0,256,0
	s1.693,0.01,2.539,0.021C366.038,1.379,452.775,88.952,452.775,196.775z"/>
<path style="fill:#129BBD;" d="M256,0c-64.251,0-116.349,88.106-116.349,196.775v262.259c-4.138-1.369-8.955-2.205-14.827-2.205
	c-9.132,0-15.715,2.017-21.17,4.921c-16.436-12.184-31.347-26.29-44.429-41.994V196.775c0-106.966,85.368-194.017,191.697-196.712
	C252.604,0.021,254.297,0,256,0z"/>
<g>
	<path style="fill:#FFFFFF;" d="M218.791,197.162c0,13.385-4.671,25.495-12.246,34.335c-3.365,3.939-7.314,7.231-11.682,9.686
		c-5.663,3.187-12.048,4.984-18.787,4.984c-23.604,0-42.736-21.943-42.736-49.006c0-27.042,19.132-48.985,42.736-48.985
		c6.74,0,13.124,1.797,18.787,4.984c4.598,2.581,8.735,6.092,12.215,10.313C214.34,172.251,218.791,184.111,218.791,197.162z"/>
	<path style="fill:#FFFFFF;" d="M378.65,197.162c0,13.385-4.671,25.495-12.246,34.335c-3.375,3.939-7.325,7.231-11.692,9.686
		c-5.663,3.187-12.058,4.984-18.798,4.984c-23.583,0-42.715-21.943-42.715-49.006c0-27.042,19.132-48.985,42.715-48.985
		c6.74,0,13.134,1.797,18.798,4.995c4.608,2.581,8.735,6.092,12.225,10.303C374.199,172.251,378.65,184.111,378.65,197.162z"/>
</g>
<g>
	<path style="fill:#F2F2F2;" d="M187.549,244.37c-3.647,1.17-7.502,1.797-11.473,1.797c-23.604,0-42.736-21.943-42.736-49.006
		c0-27.042,19.132-48.985,42.736-48.985c3.971,0,7.826,0.627,11.473,1.797c-18.024,5.747-31.242,24.712-31.242,47.188
		C156.306,219.658,169.524,238.623,187.549,244.37z"/>
	<path style="fill:#F2F2F2;" d="M347.397,244.37c-3.657,1.17-7.513,1.797-11.483,1.797c-23.583,0-42.715-21.943-42.715-49.006
		c0-27.042,19.132-48.985,42.715-48.985c3.971,0,7.826,0.627,11.483,1.797c-18.014,5.747-31.232,24.712-31.232,47.188
		C316.165,219.658,329.383,238.623,347.397,244.37z"/>
</g>
<g>
	<path style="fill:#463F5B;" d="M218.791,197.162c0,13.385-4.671,25.495-12.246,34.335c-13.876-5.016-23.803-18.307-23.803-33.917
		c0-15.809,10.177-29.247,24.336-34.105C214.34,172.251,218.791,184.111,218.791,197.162z"/>
	<path style="fill:#463F5B;" d="M378.65,197.162c0,13.385-4.671,25.495-12.246,34.335c-13.887-5.016-23.803-18.307-23.803-33.917
		c0-15.809,10.177-29.247,24.336-34.105C374.199,172.251,378.65,184.111,378.65,197.162z"/>
</g>
<g>
</g>
<g>
</g>
<g>
</g>
<g>
</g>
<g>
</g>
<g>
</g>
<g>
</g>
<g>
</g>
<g>
</g>
<g>
</g>
<g>
</g>
<g>
</g>
<g>
</g>
<g>
</g>
<g>
</g>
</svg>
