<svg xmlns="http://www.w3.org/2000/svg" xmlns:xlink="http://www.w3.org/1999/xlink" id="Capa_1" x="0" y="0" version="1.1" viewBox="0 0 512 512" xml:space="preserve" style="enable-background:new 0 0 512 512"><circle style="fill:#ffde56" cx="256" cy="256" r="256"/><circle style="fill:#ffe584" cx="256" cy="186.88" r="186.88"/><polygon style="fill:#db428f" points="278.03 452.93 454.27 276.69 498.331 211.782 454.27 144.509 410.21 100.449 366.15 56.389 278.03 144.509 256.249 166.291 233.97 144.509 189.91 100.449 126.066 56.389 101.79 100.449 57.73 144.509 13.669 188.57 57.73 276.69 233.97 452.93 254.446 482.03"/><g><polygon style="fill:#ed55a9" points="454.27 208.353 454.27 276.69 498.331 276.69 498.331 232.63 498.331 188.57 498.331 144.509 454.27 144.509 454.27 188.57"/><rect style="fill:#ed55a9" width="44.063" height="44.063" x="410.206" y="276.689"/><rect style="fill:#ed55a9" width="44.063" height="44.063" x="410.206" y="100.446"/><rect style="fill:#ed55a9" width="44.063" height="44.063" x="366.153" y="320.752"/><polygon style="fill:#ed55a9" points="410.21 100.449 410.21 56.389 366.15 56.389 322.09 56.389 322.09 100.449 366.15 100.449"/><rect style="fill:#ed55a9" width="44.063" height="44.063" x="322.09" y="364.805"/><rect style="fill:#ed55a9" width="44.063" height="44.063" x="278.026" y="408.869"/><rect style="fill:#ed55a9" width="44.063" height="44.063" x="278.026" y="100.446"/><rect style="fill:#ed55a9" width="44.063" height="44.063" x="233.974" y="452.932"/><rect style="fill:#ed55a9" width="44.063" height="44.063" x="233.974" y="144.509"/><rect style="fill:#ed55a9" width="44.063" height="44.063" x="189.91" y="408.869"/><rect style="fill:#ed55a9" width="44.063" height="44.063" x="189.91" y="100.446"/><rect style="fill:#ed55a9" width="44.063" height="44.063" x="145.847" y="364.805"/><polygon style="fill:#ed55a9" points="126.066 56.389 101.79 56.389 101.79 100.449 189.91 100.449 189.91 56.389 145.85 56.389"/><rect style="fill:#ed55a9" width="44.063" height="44.063" x="101.794" y="320.752"/><rect style="fill:#ed55a9" width="44.063" height="44.063" x="57.731" y="276.689"/><rect style="fill:#ed55a9" width="44.063" height="44.063" x="57.731" y="100.446"/><polygon style="fill:#ed55a9" points="57.73 188.57 57.73 144.509 13.669 144.509 13.669 188.57 13.669 232.63 13.669 276.69 57.73 276.69 57.73 232.63"/></g></svg>