<svg xmlns="http://www.w3.org/2000/svg" xmlns:xlink="http://www.w3.org/1999/xlink" id="Capa_1" x="0" y="0" version="1.1" viewBox="0 0 512 512" xml:space="preserve" style="enable-background:new 0 0 512 512"><path style="fill:#3fc0dd" d="M512,256c0,141.385-114.615,256-256,256c-53.645,0-103.434-16.499-144.562-44.701	c-26.164-17.93-48.818-40.584-66.738-66.738C16.499,359.424,0,309.635,0,256C0,114.615,114.615,0,256,0S512,114.615,512,256z"/><circle style="fill:#5dd5e5" cx="256" cy="210.066" r="210.066"/><rect style="fill:#ed55a9" width="44.568" height="126.275" x="100.355" y="326.223" transform="matrix(-0.7071 -0.7071 0.7071 -0.7071 -65.961 751.3988)"/><rect style="fill:#db428f" width="22.283" height="126.275" x="103.617" y="318.349" transform="matrix(-0.7071 -0.7071 0.7071 -0.7071 -73.8473 732.3845)"/><rect style="fill:#463f5b" width="81.71" height="32.684" x="126.423" y="328.376" transform="matrix(-0.7071 -0.7071 0.7071 -0.7071 41.809 706.754)"/><polygon style="fill:#ccc" points="486.541 26.32 472.316 94.026 305.477 260.865 234.047 332.303 210.747 355.595 157.264 302.124 418.834 40.555"/><g><polygon style="fill:#e6e6e6" points="486.544 26.323 184.007 328.861 157.269 302.124 418.838 40.555"/><polygon style="fill:#e6e6e6" points="418.838 40.555 426.082 86.785 472.313 94.029 486.544 26.323"/></g><path style="fill:#6b6889" d="M117.731,290.27l103.998,103.998c5.512,5.512,14.448,5.512,19.959,0l0,0	c5.512-5.512,5.512-14.448,0-19.959L137.689,270.311c-5.512-5.512-14.448-5.512-19.959,0l0,0	C112.219,275.823,112.219,284.759,117.731,290.27z"/><path style="fill:#574d70" d="M151.346,303.926c5.512-5.512,14.448-5.512,19.959,0l-33.615-33.615	c-5.512-5.512-14.448-5.512-19.96,0c-5.512,5.512-5.512,14.448,0,19.96l33.615,33.615	C145.834,318.374,145.834,309.438,151.346,303.926z"/><path style="fill:#463f5b" d="M113.236,460.403c0,2.382-0.596,4.754-1.797,6.896c-26.164-17.93-48.818-40.584-66.738-66.738	c5.371-3.02,12.309-2.236,16.875,2.33l47.532,47.532C111.867,453.183,113.236,456.788,113.236,460.403z"/><rect style="fill:#ffde56" width="44.568" height="126.275" x="367.096" y="326.224" transform="matrix(0.7071 -0.7071 0.7071 0.7071 -161.2734 389.3743)"/><rect style="fill:#edc51c" width="22.283" height="126.275" x="386.112" y="318.354" transform="matrix(0.7071 -0.7071 0.7071 0.7071 -153.4019 392.6367)"/><rect style="fill:#463f5b" width="81.71" height="32.684" x="303.879" y="328.37" transform="matrix(0.7071 -0.7071 0.7071 0.7071 -142.7778 344.7275)"/><polygon style="fill:#ccc" points="290.1 361.527 361.533 290.095 99.964 28.527 23.279 23.274 28.531 99.959"/><g><polygon style="fill:#e6e6e6" points="23.279 23.274 325.817 325.812 361.533 290.095 99.964 28.527"/><polygon style="fill:#e6e6e6" points="99.964 28.527 89.181 89.176 28.531 99.959 23.279 23.274"/></g><path style="fill:#6b6889" d="M394.272,290.27L290.275,394.267c-5.512,5.512-14.448,5.512-19.959,0l0,0	c-5.512-5.512-5.512-14.448,0-19.959l103.998-103.998c5.512-5.512,14.448-5.512,19.959,0l0,0	C399.784,275.823,399.784,284.759,394.272,290.27z"/><path style="fill:#574d70" d="M360.657,303.926c-5.512-5.512-14.448-5.512-19.959,0l33.615-33.615	c5.512-5.512,14.448-5.512,19.96,0c5.512,5.512,5.512,14.448,0,19.96l-33.615,33.615	C366.169,318.374,366.169,309.438,360.657,303.926z"/><path style="fill:#463f5b" d="M398.768,460.403c0,2.382,0.596,4.754,1.797,6.896c26.164-17.93,48.818-40.584,66.738-66.738	c-5.371-3.02-12.309-2.236-16.875,2.33l-47.532,47.532C400.136,453.183,398.768,456.788,398.768,460.403z"/></svg>