<svg height="512pt" viewBox="0 0 512 512" width="512pt" xmlns="http://www.w3.org/2000/svg"><path d="m512 256c0 79.160156-35.941406 149.941406-92.390625 196.898438-.339844.292968-.6875.582031-1.039063.863281-28.128906 23.148437-61.289062 40.417969-97.582031 49.910156-20.75 5.4375-42.527343 8.328125-64.988281 8.328125-23.53125 0-46.308594-3.171875-67.949219-9.121094-4.359375-1.199218-8.679687-2.507812-12.949219-3.929687-30.089843-10.007813-57.703124-25.460938-81.660156-45.1875-.953125-.78125-1.890625-1.5625-2.832031-2.363281-55.429687-46.957032-90.609375-117.070313-90.609375-195.398438 0-85.140625 41.558594-160.570312 105.511719-207.109375 11.457031-8.351563 23.636719-15.761719 36.4375-22.140625 24.339843-12.128906 50.878906-20.511719 78.871093-24.339844 7.609376-1.058594 15.320313-1.769531 23.128907-2.128906 1.910156-.089844 3.820312-.160156 5.742187-.203125 2.089844-.0585938 4.199219-.078125 6.308594-.078125 9.230469 0 18.339844.488281 27.320312 1.449219 8.757813.921875 17.390626 2.300781 25.871094 4.101562.648438.128907 1.296875.269531 1.949219.410157 6.289063 1.367187 12.5 2.988281 18.597656 4.828124.703125.210938 1.402344.421876 2.101563.640626 104.351562 32.320312 180.160156 129.589843 180.160156 244.570312zm0 0" fill="#65b2ff"/><path d="m512 256c0 26.050781-3.890625 51.191406-11.128906 74.871094-32.011719 104.847656-129.542969 181.128906-244.871094 181.128906-104.558594 0-194.488281-62.699219-234.230469-152.550781-14-31.628907-21.769531-66.628907-21.769531-103.449219 0-46.21875 12.25-89.570312 33.679688-127 44.121093 77.070312 127.160156 129 222.320312 129s178.210938-51.929688 222.320312-129c21.429688 37.429688 33.679688 80.78125 33.679688 127zm0 0" fill="#0f9be8"/><path d="m481.261719 377.699219c-7.160157 13.222656-15.433594 25.742187-24.722657 37.429687-8.4375 10.632813-17.71875 20.570313-27.71875 29.722656-45.539062 41.699219-106.210937 67.148438-172.820312 67.148438s-127.28125-25.449219-172.820312-67.148438c-10-9.152343-19.28125-19.089843-27.71875-29.722656-9.289063-11.6875-17.5625-24.207031-24.722657-37.429687zm0 0" fill="#0066e8"/><path d="m418.570312 453.761719c-28.128906 23.148437-61.289062 40.417969-97.582031 49.910156-20.75 5.4375-42.527343 8.328125-64.988281 8.328125-23.53125 0-46.308594-3.171875-67.949219-9.121094-4.359375-1.199218-8.679687-2.507812-12.949219-3.929687-30.089843-10.007813-57.703124-25.460938-81.660156-45.1875zm0 0" fill="#a63914"/><path d="m419.75 453.761719h-244.648438l6.976563-65.320313 1.972656-18.460937 1.648438-15.5 2.339843-21.910157 4.53125-42.378906v-101.191406l31.210938 26.148438 31.199219-26.148438 31.210937 26.148438 31.199219-26.148438 31.210937 26.148438 44.289063-26.148438v101.191406l26.71875 162.707032zm0 0" fill="#ff9f00"/><path d="m419.75 453.761719h-164.769531v-264.761719l31.210937 26.148438 31.199219-26.148438 31.210937 26.148438 44.289063-26.148438v101.191406l26.71875 162.707032zm0 0" fill="#ed771b"/><path d="m392.886719 188.996094v101.195312h-275.808594v-101.195312l44.289063 26.152344 31.203124-26.152344 31.207032 26.152344 31.207031-26.152344 31.203125 26.152344 31.207031-26.152344 31.207031 26.152344zm0 0" fill="#ffc0a4"/><path d="m392.886719 188.996094v101.195312h-137.902344v-101.195312l31.203125 26.152344 31.207031-26.152344 31.207031 26.152344zm0 0" fill="#ffa87a"/><path d="m418.570312 453.761719c-28.128906 23.148437-61.289062 40.417969-97.582031 49.910156-20.75 5.4375-42.527343 8.328125-64.988281 8.328125v-58.238281zm0 0" fill="#7a2d1a"/><path d="m192.570312 290.191406-4.53125 42.367188v.011718l-2.339843 21.898438v.011719l-1.648438 15.5v.007812l-1.972656 18.453125v.007813l-6.976563 65.3125h-84.882812l.390625-2.363281 26.46875-161.207032zm0 0" fill="#ffd112"/><path d="m192.570312 188.996094v101.195312h-75.492187v-101.195312l44.289063 26.152344zm0 0" fill="#fff"/><path d="m175.101562 453.761719v45.1875c-30.089843-10.007813-57.703124-25.460938-81.660156-45.1875zm0 0" fill="#ed771b"/><g fill="#313b5a"><path d="m168.539062 327.769531c-.007812 14.074219 11.429688 27.117188 29.257813 31.5 17.824219 4.382813 36.542969-1.242187 46.558594-12.859375zm0 0"/><path d="m336.433594 327.769531c.007812 14.074219-11.429688 27.117188-29.253906 31.5-17.828126 4.382813-36.546876-1.242187-46.5625-12.859375zm0 0"/><path d="m335.964844 357.855469c-4.246094 29.082031-23.523438 53.285156-49.691406 64.46875v-14.902344l-6.859376 11.390625c-3.058593 5.085938-8.242187 8.53125-14.121093 9.363281-3.828125.539063-7.742188.820313-11.726563.820313h-.226562c-3.90625-.011719-7.75-.292969-11.515625-.824219-5.871094-.828125-11.046875-4.28125-14.101563-9.363281l-6.851562-11.386719v14.90625c-26.175782-11.183594-45.453125-35.390625-49.699219-64.472656 7.980469 8.800781 17.355469 16.320312 27.773437 22.207031l14.234376 20.726562.261718-13.867187c10.144532 3.929687 21.015625 6.410156 32.351563 7.191406l7.867187 15.429688 7.6875-15.429688c11.332032-.78125 22.199219-3.261719 32.34375-7.191406l-.261718 13.871094 14.757812-20.726563c10.417969-5.886718 19.792969-13.410156 27.777344-22.210937zm0 0"/></g><path d="m262.867188 27.398438-28.710938 7.695312c-12.207031 3.269531-16.296875 18.53125-7.359375 27.46875l21.019531 21.019531c8.9375 8.9375 24.195313 4.847657 27.46875-7.359375l7.691406-28.710937c3.273438-12.210938-7.898437-23.382813-20.109374-20.113281zm0 0" fill="#ffd112"/><path d="m201.828125 115.164062-27.324219 11.703126c-11.617187 4.980468-13.488281 20.667968-3.371094 28.238281l23.800782 17.808593c10.121094 7.574219 24.640625 1.351563 26.140625-11.199218l3.523437-29.515625c1.5-12.546875-11.152344-22.015625-22.769531-17.035157zm0 0" fill="#10e2c4"/><path d="m302.890625 130.300781-6.644531 28.972657c-2.828125 12.320312 8.742187 23.078124 20.824218 19.363281l28.414063-8.730469c12.082031-3.710938 15.617187-19.109375 6.359375-27.71875l-21.769531-20.242188c-9.257813-8.605468-24.359375-3.964843-27.183594 8.355469zm0 0" fill="#dd1265"/></svg>