<svg height="512pt" viewBox="0 0 512 512" width="512pt" xmlns="http://www.w3.org/2000/svg"><path d="m512 256c0 116.96875-78.460938 215.621094-185.621094 246.199219-7.359375 2.101562-14.847656 3.878906-22.46875 5.320312-7.898437 1.5-15.921875 2.628907-24.058594 3.378907-7.851562.730468-15.8125 1.101562-23.851562 1.101562-141.378906 0-256-114.621094-256-256s114.621094-256 256-256 256 114.621094 256 256zm0 0" fill="#b5e237"/><path d="m512 256c0 26.050781-3.890625 51.191406-11.128906 74.871094-32.011719 104.847656-129.542969 181.128906-244.871094 181.128906-104.558594 0-194.488281-62.699219-234.230469-152.550781-14-31.628907-21.769531-66.628907-21.769531-103.449219 0-46.21875 12.25-89.570312 33.679688-127 44.121093 77.070312 127.160156 129 222.320312 129s178.210938-51.929688 222.320312-129c21.429688 37.429688 33.679688 80.78125 33.679688 127zm0 0" fill="#95d600"/><path d="m30.742188 377.703125c7.15625 13.21875 15.429687 25.738281 24.71875 37.425781 46.898437 59.019532 119.300781 96.871094 200.539062 96.871094s153.640625-37.851562 200.539062-96.871094c9.289063-11.6875 17.5625-24.207031 24.71875-37.425781zm0 0" fill="#85af12"/><g fill="#fff"><path d="m118.136719 395.511719c-7.175781 0-12.992188-5.816407-12.992188-12.988281 0-.421876-.339843-.761719-.761719-.761719h-7.191406c-.417968 0-.761718.339843-.761718.761719 0 7.171874-5.8125 12.988281-12.988282 12.988281-.421875 0-.761718.339843-.761718.761719v7.191406c0 .421875.339843.761718.761718.761718 7.175782 0 12.988282 5.816407 12.988282 12.988282 0 .421875.34375.761718.761718.761718h7.191406c.421876 0 .761719-.339843.761719-.761718 0-7.171875 5.816407-12.988282 12.992188-12.988282.417969 0 .761719-.339843.761719-.761718v-7.191406c0-.421876-.34375-.761719-.761719-.761719zm0 0"/><path d="m324.390625 244.652344c-7.175781 0-12.992187-5.816406-12.992187-12.988282 0-.421874-.339844-.761718-.761719-.761718h-7.191407c-.417968 0-.761718.339844-.761718.761718 0 7.171876-5.8125 12.988282-12.988282 12.988282-.421874 0-.761718.339844-.761718.761718v7.191407c0 .421875.339844.761719.761718.761719 7.175782 0 12.988282 5.816406 12.988282 12.988281 0 .421875.34375.761719.761718.761719h7.191407c.421875 0 .761719-.339844.761719-.761719 0-7.171875 5.816406-12.988281 12.992187-12.988281.417969 0 .761719-.339844.761719-.761719v-7.191407c0-.421874-.34375-.761718-.761719-.761718zm0 0"/><path d="m445.882812 369.851562c-7.171874 0-12.988281-5.816406-12.988281-12.992187 0-.417969-.339843-.761719-.761719-.761719h-7.191406c-.421875 0-.761718.34375-.761718.761719 0 7.175781-5.816407 12.992187-12.988282 12.992187-.421875 0-.761718.339844-.761718.761719v7.191407c0 .417968.339843.761718.761718.761718 7.171875 0 12.988282 5.8125 12.988282 12.988282 0 .421874.339843.761718.761718.761718h7.191406c.421876 0 .761719-.339844.761719-.761718 0-7.175782 5.816407-12.988282 12.988281-12.988282.421876 0 .761719-.34375.761719-.761718v-7.191407c0-.421875-.339843-.761719-.761719-.761719zm0 0"/><path d="m273.347656 48.867188c-7.175781 0-12.988281-5.816407-12.988281-12.988282 0-.421875-.34375-.765625-.761719-.765625h-7.191406c-.421875 0-.761719.34375-.761719.765625 0 7.171875-5.816406 12.988282-12.992187 12.988282-.417969 0-.761719.339843-.761719.761718v7.191406c0 .417969.34375.761719.761719.761719 7.175781 0 12.992187 5.8125 12.992187 12.988281 0 .421876.339844.761719.761719.761719h7.191406c.417969 0 .761719-.339843.761719-.761719 0-7.175781 5.8125-12.988281 12.988281-12.988281.421875 0 .761719-.34375.761719-.761719v-7.191406c0-.421875-.339844-.761718-.761719-.761718zm0 0"/><path d="m458.191406 220.535156c-.261718-.222656-.53125-.445312-.800781-.667968-56.792969-47.316407-137.5625-61.605469-209.980469-30.136719-29.582031 12.855469-54.527344 31.933593-73.976562 55.046875 0 0 0 0-.007813 0-9.9375 10.617187-18.832031 22.507812-26.449219 35.621094l-30.6875-65.738282-15.757812-33.761718c-2.167969-4.640626-.980469-10.140626 2.878906-13.507813 73.945313-64.449219 183.550782-78.054687 273.085938-26.046875 34.503906 20.042969 62.023437 47.503906 81.695312 79.191406zm0 0"/></g><path d="m457.390625 219.867188c-56.792969-47.316407-137.5625-61.605469-209.980469-30.136719-29.582031 12.855469-54.527344 31.933593-73.976562 55.046875 0 0 0 0-.007813 0-9.9375 10.617187-18.832031 22.507812-26.449219 35.621094l-30.6875-65.738282c21.179688-24.851562 48.210938-45.382812 80.175782-59.273437 93.636718-40.691407 200.019531-11.546875 260.925781 64.480469zm0 0" fill="#d0f6ff"/><path d="m326.378906 502.199219c-7.359375 2.101562-14.847656 3.878906-22.46875 5.320312-7.898437 1.5-15.921875 2.628907-24.058594 3.378907-37.179687-41.417969-73.582031-91.488282-109.792968-150.839844l-4.457032-6.417969-.441406-.761719c-1.121094-1.957031-2.289062-4.027344-3.46875-6.109375-1.152344-2.03125-2.292968-4.058593-3.390625-5.96875l-.0625-.101562c-9.25-16.359375-18.136719-33.050781-26.726562-49.21875-1.871094-2.871094-3.042969-5.402344-4.03125-7.679688-17.558594-32.660156-34.960938-69.222656-53.179688-111.730469l-7.871093-18.378906 19.46875-8.351562 17.292968-7.410156 7.878906 18.390624c.5 1.167969 1 2.328126 1.5 3.488282 6.007813 13.941406 11.917969 27.203125 17.757813 39.863281 10.101563 21.867187 20.03125 41.96875 29.980469 60.6875.921875 1.75 1.851562 3.492187 2.78125 5.210937l.398437.738282.332031.769531c.78125 1.78125 1.03125 2.320313 1.289063 2.710937l.679687.972657.5625 1.046875c8.609376 16.191406 17.507813 32.941406 26.667969 49.132812 1.128907 1.96875 2.308594 4.046875 3.492188 6.128906.976562 1.75 1.96875 3.5 2.929687 5.167969l4.457032 6.492188c40.570312 66.570312 81.113281 120.738281 122.480468 163.46875zm0 0" fill="#323b5a"/><path d="m326.378906 502.199219c-7.359375 2.101562-14.847656 3.878906-22.46875 5.320312-44.089844-47.21875-82.941406-102.359375-117.082031-158.378906-1.4375-2.070313-2.878906-4.140625-4.308594-6.199219-2.230469-3.882812-4.648437-8.210937-6.871093-12.089844-9.289063-16.421874-18.128907-33.042968-26.957032-49.652343-.429687-.609375-.800781-1.210938-1.132812-1.789063-.789063-1.390625-1.378906-2.761718-2.078125-4.351562-2.960938-5.488282-5.859375-11-8.710938-16.527344-15.988281-30.960938-30.460937-62.550781-44.078125-94.339844l-6.792968-18.851562 17.292968-7.410156 7.878906 18.390624c.5 1.167969 1 2.328126 1.5 3.488282 6.007813 13.941406 11.917969 27.203125 17.757813 39.863281 10.101563 21.867187 20.03125 41.96875 29.980469 60.6875.921875 1.75 1.851562 3.492187 2.78125 5.210937l.398437.738282.332031.769531c.78125 1.78125 1.03125 2.320313 1.289063 2.710937l.679687.972657.5625 1.046875c8.609376 16.191406 17.507813 32.941406 26.667969 49.132812 1.128907 1.96875 2.308594 4.046875 3.492188 6.128906.976562 1.75 1.96875 3.5 2.929687 5.167969l4.457032 6.492188c40.570312 66.570312 81.113281 120.738281 122.480468 163.46875zm0 0" fill="#474f6f"/></svg>