<svg height="512pt" viewBox="0 0 512 512" width="512pt" xmlns="http://www.w3.org/2000/svg"><path d="m512 256c0 78.5-35.328125 148.738281-90.960938 195.699219-40.417968 34.121093-91.558593 55.949219-147.628906 59.722656-5.75.378906-11.558594.578125-17.410156.578125s-11.660156-.199219-17.421875-.578125c-56.066406-3.773437-107.199219-25.601563-147.617187-59.722656-55.632813-46.960938-90.960938-117.199219-90.960938-195.699219 0-141.378906 114.621094-256 256-256s256 114.621094 256 256zm0 0" fill="#68fcdf"/><path d="m512 256c0 26.050781-3.890625 51.191406-11.128906 74.871094-32.011719 104.847656-129.542969 181.128906-244.871094 181.128906-104.558594 0-194.488281-62.699219-234.230469-152.550781-14-31.628907-21.769531-66.628907-21.769531-103.449219 0-46.21875 12.25-89.570312 33.679688-127 44.121093 77.070312 127.160156 129 222.320312 129s178.210938-51.929688 222.320312-129c21.429688 37.429688 33.679688 80.78125 33.679688 127zm0 0" fill="#10e2c4"/><path d="m481.261719 377.699219c-7.160157 13.222656-15.433594 25.742187-24.722657 37.429687-.148437.191406-.300781.382813-.460937.570313-46.90625 58.691406-119.097656 96.300781-200.078125 96.300781s-153.171875-37.609375-200.078125-96.300781c-.160156-.1875-.3125-.378907-.460937-.570313-9.289063-11.6875-17.5625-24.207031-24.722657-37.429687zm0 0" fill="#1aba9f"/><path d="m273.410156 511.421875c-5.75.378906-11.558594.578125-17.410156.578125s-11.660156-.199219-17.421875-.578125l5.542969-229.402344 1.410156-58.140625.269531-11.097656.078125-3.320312h20.230469l.082031 3.308593.269532 11.089844 1.410156 58.160156zm0 0" fill="#474f6f"/><path d="m273.410156 511.421875c-5.75.378906-11.558594.578125-17.410156.578125v-302.539062h10.109375l.082031 3.308593.269532 11.089844 1.410156 58.160156zm0 0" fill="#323b5a"/><path d="m319.074219 229.960938 14.890625 86.808593-77.96875-40.984375-77.960938 40.984375 14.890625-86.808593-63.074219-61.484376 87.167969-12.664062 38.976563-78.988281 38.984375 78.988281 87.167969 12.664062zm0 0" fill="#ffd112"/><path d="m256.003906 209.464844 38.976563-53.652344-38.984375-78.988281v198.960937l77.96875 40.984375zm0 0" fill="#ff9f00"/><path d="m382.148438 168.476562-63.074219 61.484376-63.070313-20.496094zm0 0" fill="#ff9f00"/><path d="m192.925781 229.960938 63.070313-20.492188-77.960938 107.300781zm0 0" fill="#ff9f00"/><path d="m255.996094 209.464844-126.144532-40.988282 87.167969-12.664062zm0 0" fill="#ff9f00"/><g fill="#fff"><path d="m404.109375 349.167969h-1.523437c-6.753907 0-12.226563-5.472657-12.226563-12.226563v-1.523437h-8.71875v1.523437c0 6.753906-5.472656 12.226563-12.226563 12.226563h-1.523437v8.714843h1.523437c6.753907 0 12.226563 5.476563 12.226563 12.226563v1.527344h8.71875v-1.527344c0-6.75 5.472656-12.226563 12.226563-12.226563h1.523437zm0 0"/><path d="m398.140625 106.53125h-1.523437c-6.753907 0-12.226563-5.472656-12.226563-12.226562v-1.523438h-8.714844v1.523438c0 6.753906-5.476562 12.226562-12.226562 12.226562h-1.527344v8.71875h1.527344c6.75 0 12.226562 5.472656 12.226562 12.226562v1.523438h8.714844v-1.523438c0-6.753906 5.472656-12.230468 12.226563-12.230468h1.523437zm0 0"/><path d="m150.074219 106.53125h-1.523438c-6.75 0-12.226562-5.472656-12.226562-12.226562v-1.523438h-8.714844v1.523438c0 6.753906-5.472656 12.226562-12.226563 12.226562h-1.527343v8.71875h1.527343c6.753907 0 12.226563 5.472656 12.226563 12.226562v1.523438h8.714844v-1.523438c0-6.753906 5.476562-12.230468 12.226562-12.230468h1.523438zm0 0"/><path d="m461.609375 244h-1.523437c-6.75 0-12.226563-5.472656-12.226563-12.226562v-1.523438h-8.714844v1.523438c0 6.753906-5.472656 12.226562-12.226562 12.226562h-1.527344v8.714844h1.527344c6.753906 0 12.226562 5.476562 12.226562 12.226562v1.527344h8.714844v-1.527344c0-6.75 5.476563-12.226562 12.226563-12.226562h1.523437zm0 0"/><path d="m86.609375 244h-1.523437c-6.753907 0-12.230469-5.472656-12.230469-12.226562v-1.523438h-8.714844v1.523438c0 6.753906-5.472656 12.226562-12.226563 12.226562h-1.523437v8.714844h1.523437c6.753907 0 12.226563 5.476562 12.226563 12.226562v1.527344h8.714844v-1.527344c0-6.75 5.476562-12.226562 12.230469-12.226562h1.523437zm0 0"/><path d="m144.109375 349.167969h-1.523437c-6.753907 0-12.226563-5.472657-12.226563-12.226563v-1.523437h-8.71875v1.523437c0 6.753906-5.472656 12.226563-12.226563 12.226563h-1.523437v8.714843h1.523437c6.753907 0 12.226563 5.476563 12.226563 12.226563v1.527344h8.71875v-1.527344c0-6.75 5.472656-12.226563 12.226563-12.226563h1.523437zm0 0"/></g></svg>