<svg id="Layer_1" enable-background="new 0 0 512 512" height="512" viewBox="0 0 512 512" width="512" xmlns="http://www.w3.org/2000/svg"><g><path d="m452.64 410.287c29.103-40.294 46.265-89.782 46.265-143.285 0-135.309-109.69-244.998-244.998-244.998s-244.998 109.689-244.998 244.998c0 54.888 18.051 105.558 48.539 146.403z" fill="#aa67c6"/><path d="m399.136 5.603h-288.178c-29.906 0-54.235 24.33-54.235 54.236v352.572c10.641 14.405 22.825 27.601 36.304 39.349l324.056-2.025.002.007c13.531-12.092 25.715-25.661 36.289-40.46v-349.443c-.001-29.906-24.331-54.236-54.238-54.236z" fill="#f1935d"/><path d="m251.273 80.384c0-2.211-1.27-4.229-3.262-5.189-16.281-7.848-14.724-21.981-12.696-29.043.685-2.382-.283-4.883-2.298-6.327-4.578-3.282-5.03-7.632-4.678-10.544.239-1.982-.552-3.931-2.091-5.204-6.763-5.593-6.032-12.072-4.851-15.68.3-.918.357-1.876.196-2.795h-110.635c-29.906 0-54.235 24.33-54.235 54.236v352.572c10.641 14.405 22.825 27.601 36.304 39.349l158.247-.989v-370.386z" fill="#e1715a"/><path d="m417.069 449.734c2.686-2.401 5.325-4.854 7.903-7.369v-382.526c0-14.245-11.59-25.834-25.836-25.834h-288.178c-14.245 0-25.834 11.589-25.834 25.834v384.744c2.577 2.45 5.212 4.84 7.894 7.177z" fill="#66e9ff"/><path d="m251.273 80.384c0-2.211-1.27-4.229-3.262-5.189-16.281-7.848-14.724-21.981-12.696-29.043.685-2.382-.283-4.883-2.298-6.327-2.458-1.762-3.719-3.831-4.313-5.821h-117.746c-14.245 0-25.834 11.589-25.834 25.834v384.744c2.577 2.45 5.212 4.84 7.894 7.177l158.255-.989z" fill="#23c5ed"/><path d="m106.732 374.134c-4.115 1.275-7.885 3.501-10.933 6.545-4.248 4.24-7.76 9.032-10.674 14.125v49.778c20.74 19.719 44.936 35.831 71.579 47.36-9.55-58.711-10.727-100.484-10.842-113.186-.007-.776.79-1.301 1.515-.984l2.848 1.248 17.985-28.683c.152-.256.327-.494.486-.744l-1.805-.029s-26.51 14.148-60.159 24.57z" fill="#422953"/><path d="m97.382 423.015c21.555 0 39.889-8.148 49.741-13.595-.973-14.774-1.214-25.31-1.262-30.664-.007-.776.79-1.301 1.515-.984l2.848 1.248 17.985-28.683c.151-.256.327-.494.486-.744l-1.804-.029s-26.51 14.148-60.159 24.57c-4.115 1.275-7.885 3.501-10.934 6.545-4.247 4.24-7.759 9.032-10.674 14.125v25.134c3.5 1.943 7.56 3.077 12.258 3.077z" fill="#30144a"/><path d="m403.364 374.134c-33.649-10.422-60.159-24.57-60.159-24.57l-1.797.029c.167.262.35.509.509.779l17.963 28.649 2.848-1.248v-.001c.492-.215.889-.012 1.036.086.146.096.482.375.477.899-.114 12.624-1.28 53.966-10.668 112.108 26.654-11.885 50.788-28.392 71.398-48.499v-47.561c-2.914-5.093-6.427-9.885-10.674-14.125-3.047-3.044-6.818-5.271-10.933-6.546z" fill="#422953"/><path d="m235.247 374.614c6.903 7.197-6.782 14.188.81 21.162 15.06 13.177 18.534 16.14 18.996 16.661.458-.519 4.028-3.565 18.995-16.661 2.258-2.074 2.94-5.358 1.695-8.161-1.511-4.055-3.517-6.03-2.697-9.612.528-2.366 1.986-3.56 3.591-5.266 10.099-10.774 20.883-24.416 25.93-38.231v-.001c1.831-5.008 2.678-9.008 3.021-12.088-2.684-5.982-3.735-17.367-3.96-23.894-13.176 15.347-28.09 25.339-48.301 24.716-18.683-.571-32.598-10.434-44.86-24.716-.205 5.967-.884 13.208-2.63 20.087-.354 1.393-.843 2.737-1.439 4.027 1.005 9.54 6.806 26.911 30.849 51.977z" fill="#fcad6d"/><path d="m249.786 323.011c-16.921-1.633-29.844-11.125-41.318-24.489-.205 5.967-.884 13.207-2.63 20.087-.354 1.393-.843 2.737-1.439 4.027.97 9.22 6.423 25.752 28.483 49.472 10.395-12.076 14.935-33.654 16.904-49.097z" fill="#fd995b"/><path d="m237.787 394.475c-2.168-1.992-2.823-5.145-1.627-7.835l2.19-4.929c1.136-2.555.594-5.537-1.341-7.555-34.402-35.865-30.881-57.271-30.209-59.891l-7.724 7.494-4.066 6.646c-4.764 18.27-4.308 33.866-4.308 48.443v126.905c20.165 5.37 41.348 8.248 63.204 8.248 1.637 0 3.268-.03 4.898-.062v-98.865c0-1.92-.805-3.751-2.218-5.05z" fill="#bec8f7"/><path d="m195.01 328.405 4.066-6.646 7.724-7.493c-.041.693-2.047 6.637 2.63 19.432v.001c5.39 14.756 16.654 29.036 27.579 40.458 1.16 1.21 1.808 2.767 1.905 4.369l-23.89 19.255c-4.652 3.749-11.605 2.062-13.993-3.415-3.254-7.465-7.352-18.772-10.281-33.367.338-14.837 2.55-26.035 4.26-32.594z" fill="#e9efff"/><path d="m149.473 377.357 17.426-27.793c1.693-2.866 3.898-5.396 6.507-7.463l25.67-20.341s-6.346 16.131-6.346 43.103 0 0 0 0l-25.782 20.846z" fill="#543e5b"/><path d="m311.028 321.76-7.724-7.494c.672 2.62 4.193 24.026-30.209 59.891-1.935 2.018-2.477 5-1.341 7.555l2.191 4.929c1.195 2.69.541 5.844-1.627 7.835l-18.799 13.547c-1.414 1.299-2.218 3.13-2.218 5.05v98.894c.869.009 1.735.033 2.606.033 22.686 0 44.646-3.097 65.495-8.868v-126.284c0-14.577.456-30.173-4.308-48.443z" fill="#dae2fe"/><path d="m315.094 328.405-4.066-6.646-7.724-7.493c.041.693 2.048 6.637-2.63 19.432l-.001.001c-5.389 14.756-16.653 29.035-27.579 40.458-1.16 1.21-1.808 2.767-1.905 4.369l23.89 19.255c4.652 3.749 11.605 2.062 13.993-3.415 3.254-7.465 7.352-18.772 10.281-33.367-.336-14.837-2.549-26.035-4.259-32.594z" fill="#e9efff"/><path d="m360.632 377.357-17.426-27.793c-1.693-2.866-3.898-5.396-6.507-7.463l-25.67-20.341s6.346 16.131 6.346 43.103 0 0 0 0l25.782 20.846z" fill="#543e5b"/><path d="m164.928 383.809-16.942-7.431c-1.727-.758-3.662.505-3.645 2.392.113 12.576 1.26 54.038 10.7 112.445 12.084 5.336 24.673 9.739 37.689 13.084v-139.437l-24.035 18.488c-1.078.829-2.521 1.006-3.767.459z" fill="#665364"/><path d="m362.118 376.378-16.942 7.431c-1.245.546-2.689.37-3.767-.459l-24.035-18.488v138.819c13.084-3.5 25.74-8.045 37.864-13.56 9.278-57.829 10.412-98.854 10.525-111.351.017-1.886-1.918-3.149-3.645-2.392z" fill="#665364"/><path d="m288.417 373.153c-10.841 1.108-25.006 11.611-25.006 11.611v8.176 8.176s14.165 10.503 25.006 11.611c4.718.482 8.806-3.262 8.806-8.005 0-8.241 0-15.323 0-23.564 0-4.743-4.087-8.487-8.806-8.005z" fill="#ff4155"/><path d="m221.57 373.153c10.841 1.108 25.006 11.611 25.006 11.611v8.176 8.176s-14.165 10.503-25.006 11.611c-4.719.482-8.806-3.262-8.806-8.005 0-8.241 0-15.323 0-23.564 0-4.743 4.087-8.487 8.806-8.005z" fill="#ff4155"/><path d="m246.575 392.94v8.176s-9.525 7.059-18.932 10.213c11.591-20.209-.162-36.831-.162-36.831 9.459 3.126 19.094 10.266 19.094 10.266z" fill="#e80054"/><path d="m403.364 374.134-12.618 96.117c12.244-8.26 23.69-17.608 34.225-27.886v-47.561c-2.914-5.093-6.427-9.885-10.674-14.125-3.047-3.043-6.818-5.27-10.933-6.545z" fill="#543e5b"/><path d="m85.124 444.582c10.618 10.095 22.148 19.237 34.441 27.313l-12.834-97.761c-4.115 1.275-7.885 3.501-10.933 6.545-4.248 4.24-7.76 9.032-10.674 14.125z" fill="#543e5b"/><g><path d="m239.469 77.524c-46.782 6.374-51.228 32.898-51.249 42.629-.005 2.041-1.135 3.932-2.97 4.825-24.334 11.838-11.214 68.891-11.214 68.891 2.444.163 5.001 1.153 6.909 2.077.467-2.907 1.23-5.77 2.307-8.536.821-2.108 1.847-4.238 3.129-6.25 2.226-3.491 3.239-7.61 2.937-11.727-.875-11.903-.453-35.356 15.258-42.425 13.31-5.989 29.637-2.521 40.049.941 6.762 2.249 14.086 2.249 20.848 0 10.412-3.462 26.739-6.93 40.049-.941 15.666 7.049 16.13 30.389 15.265 42.323-.301 4.149.686 8.31 2.928 11.828 1.324 2.077 2.375 4.28 3.208 6.454 1.036 2.704 1.773 5.497 2.229 8.333 2.405-1.165 5.842-2.434 8.782-2.018.36-12.475 1.512-25.924 1.512-25.924 13.863-67.9-49.606-97.343-99.977-90.48z" fill="#665364"/></g><path d="m243.929 127.726c-.138-.248-.269-.496-.415-.743-19.543-32.952 7.759-50.396 7.759-50.396-3.985.098-7.933.409-11.804.936-46.782 6.374-51.228 32.898-51.249 42.629-.004 2.041-1.135 3.932-2.97 4.825-24.334 11.838-11.214 68.891-11.214 68.891 2.444.163 5.001 1.153 6.909 2.077.467-2.907 1.23-5.77 2.307-8.536.821-2.108 1.847-4.238 3.129-6.25 2.226-3.491 3.239-7.61 2.937-11.727-.875-11.903-.453-35.356 15.258-42.425 13.023-5.86 28.921-2.665 39.353.719z" fill="#543e5b"/><path d="m343.521 195.343c-3.643-3.339-10.901-1.647-14.039.398.688 4.281.727 8.661.133 12.986l-3.703 26.971c0 2.174-.069 4.307-.194 6.403 9.03 2.724 13.516-5.383 14.271-10.947.325-2.395.857-4.755 1.595-7.059 2.401-7.5 11.066-20.386 1.937-28.752z" fill="#fcad6d"/><path d="m336.664 219c-3.029 0-5.821-.987-8.097-2.64l-2.655 19.338c0 2.174-.069 4.307-.194 6.403 9.03 2.724 13.515-5.383 14.271-10.947.325-2.395.857-4.755 1.595-7.059.699-2.183 1.928-4.823 3.095-7.675-2.263 1.619-5.024 2.58-8.015 2.58z" fill="#fd995b"/><path d="m167.235 195.343c3.644-3.339 10.901-1.647 14.04.398-.687 4.281-.727 8.661-.133 12.986l3.703 26.971c0 2.174.069 4.307.195 6.403-9.03 2.724-13.516-5.383-14.271-10.947-.325-2.395-.857-4.755-1.595-7.059-2.402-7.5-11.068-20.386-1.939-28.752z" fill="#fcad6d"/><path d="m182.263 216.893c-2.121 1.328-4.621 2.108-7.308 2.108-3.585 0-6.839-1.377-9.294-3.617 1.281 3.248 2.729 6.267 3.512 8.713.738 2.303 1.27 4.664 1.595 7.059.756 5.563 5.241 13.67 14.271 10.947-.126-2.096-.195-4.229-.195-6.403z" fill="#fd995b"/><path d="m327.465 187.405c-.92-2.402-2.017-4.608-3.26-6.559-2.125-3.334-3.134-7.41-2.84-11.474.94-12.975.163-35.8-15.606-42.896-13.244-5.958-29.318-2.789-40.469.92-6.605 2.198-13.88 2.197-20.485 0-11.152-3.709-27.226-6.881-40.469-.92-6.781 3.052-17.824 12.696-15.599 42.999.294 3.992-.717 8.031-2.846 11.372-1.208 1.894-2.278 4.031-3.181 6.351-2.645 6.795-3.501 14.335-2.475 21.807l3.699 26.897c0 44.546 26.952 70.282 38.539 79.28 9.248 7.184 20.818 11.139 32.576 11.139s23.327-3.956 32.576-11.139c11.587-8.998 38.538-34.735 38.533-79.2l3.704-26.972c1.014-7.396.186-14.868-2.397-21.605z" fill="#f9ba8f"/><g><path d="m262.472 315.183c-11.587-8.998-38.538-34.734-38.538-79.28l-3.699-26.898c-1.025-7.472-.169-15.012 2.475-21.807.903-2.32 1.973-4.457 3.181-6.351 2.129-3.341 3.14-7.38 2.846-11.372-2.124-28.923 7.836-39.021 14.645-42.535-11.068-3.499-26.351-6.179-39.045-.465-6.781 3.051-17.825 12.696-15.599 42.999.293 3.992-.717 8.031-2.846 11.372-1.208 1.894-2.278 4.031-3.181 6.351-2.645 6.795-3.501 14.335-2.475 21.807l3.699 26.898c0 44.545 26.952 70.282 38.538 79.28 9.249 7.183 20.818 11.139 32.576 11.139 6.875 0 13.68-1.362 20-3.921-4.49-1.817-8.736-4.234-12.577-7.217z" fill="#fcad6d"/></g><path d="m432.861 434.309v-374.47c0-18.596-15.129-33.724-33.725-33.724h-288.178c-18.595 0-33.723 15.129-33.723 33.724v376.888c5.035 5.239 10.299 10.257 15.779 15.033v-391.921c0-9.895 8.049-17.945 17.944-17.945h288.178c9.896 0 17.946 8.051 17.946 17.945v389.895c5.488-4.904 10.753-10.051 15.779-15.425z" fill="#e1715a"/><path d="m77.235 59.839v376.888c5.035 5.239 10.299 10.256 15.779 15.033v-391.921c0-9.895 8.05-17.945 17.944-17.945h123.881c-.431-.801-1.046-1.514-1.821-2.069-4.578-3.282-5.03-7.632-4.678-10.544.133-1.104-.064-2.194-.521-3.167h-116.861c-18.595.001-33.723 15.13-33.723 33.725z" fill="#c15655"/><path d="m450.053 160.869-151.952-151.943c-6.046-6.045-14.352-9.273-22.893-8.896l-15.172.669c-4.941.218-7.267 6.204-3.77 9.702l192.314 192.302c3.497 3.497 9.483 1.171 9.701-3.77l.669-15.17c.377-8.542-2.851-16.849-8.897-22.894z" fill="#665364"/><path d="m315.358 69.49 133.222 133.213c3.497 3.497 9.483 1.171 9.701-3.77l.669-15.17c.376-8.542-2.852-16.849-8.897-22.894l-113.389-113.383s3.836 22.004-21.306 22.004z" fill="#543e5b"/><path d="m457.165 94.236c13.259 1.154 24.531-2.475 30.183-4.801 1.41-.58 2.844.78 2.345 2.22-4.643 13.407-4.817 27.296-4.817 27.296-1.476 32.752-31.914 33.739-45.7 32.49-4.107-.372-7.5-3.399-8.286-7.448-5.422-27.909 8.545-51.299 26.275-49.757z" fill="#81c66d"/><path d="m467.354 132.405c.052-1.717-.911-3.31-2.462-4.049-16.355-7.787-11.044-25.827-8.635-32.002.271-.693.352-1.431.256-2.146-17.418-.92-30.98 22.22-25.626 49.785.786 4.048 4.179 7.075 8.287 7.448 7.722.699 20.667.694 30.822-5.199-2.436-5.124-2.739-10.586-2.642-13.837z" fill="#5aab5f"/><path d="m481.602 131.982c7.633 6.191 16.029 8.634 20.448 9.549 1.102.228 1.417 1.653.516 2.328-8.386 6.28-14.238 14.703-14.238 14.703-14.451 19.423-33.477 7.436-41.393.969-2.358-1.927-3.182-5.182-1.988-7.983 8.23-19.315 26.449-27.844 36.655-19.566z" fill="#a0e589"/><path d="m467.354 132.405c.029-.963-.27-1.881-.804-2.637-8.208 2.557-16.688 10.242-21.603 21.779-1.194 2.802-.371 6.057 1.988 7.983 7.916 6.467 26.942 18.454 41.393-.969-19.623-2.627-21.179-19.304-20.974-26.156z" fill="#81c66d"/><path d="m342.203 141.104c7.456 13.071 26.068 13.705 34.396 1.173l9.877-14.863c-3.281-1.305-6.162-3.678-8.043-6.976s-2.457-6.986-1.91-10.474l-17.821.936c-15.026.79-23.954 17.134-16.499 30.204z" fill="#f4d99d"/><path d="m408.296 82.612-9.877 14.863c3.281 1.305 6.162 3.678 8.043 6.976s2.457 6.986 1.911 10.474l17.821-.936c15.027-.79 23.955-17.133 16.499-30.204-7.457-13.071-26.069-13.705-34.397-1.173z" fill="#fcf4d9"/><path d="m412.381 152.072c.366-3.596-.229-7.374-2.021-10.986l-7.935-15.987c-.623.491-1.275.955-1.984 1.36-5.919 3.376-13.089 2.569-18.105-1.461l-8.099 15.9c-7.194 14.124 3.953 30.891 20.098 29.277-6.922-11.718 6.269-25.039 18.046-18.103z" fill="#fceca9"/><path d="m374.536 83.804 7.934 15.987c.623-.491 1.275-.955 1.984-1.36 5.919-3.376 13.089-2.569 18.105 1.461l8.098-15.899c6.829-13.408-2.86-29.312-17.908-29.39-15.047-.079-24.902 15.722-18.213 29.201z" fill="#fcf4d9"/><path d="m416.397 149.767c.018-6.956 5.582-13.223 13.284-13.183 4.615.024 9.033 2.393 11.498 6.87 9.611-13.084.84-31.204-14.971-32.201l-17.808-1.122c.915 6.369-2.039 12.951-7.958 16.328-.709.404-1.441.729-2.181 1.015l9.722 14.967c2.194 3.377 5.138 5.81 8.414 7.326z" fill="#fcf4d9"/><path d="m342.506 83.262c-7.592 12.992 1.165 29.428 16.182 30.374l17.808 1.122c-.915-6.369 2.039-12.951 7.958-16.328.709-.405 1.441-.729 2.18-1.015l-9.722-14.967c-8.197-12.618-26.815-12.178-34.406.814z" fill="#fceca9"/><path d="m387.267 197.099c5.986 10.495 20.931 11.004 27.618.942l7.931-11.934c-2.634-1.048-4.948-2.953-6.458-5.601-1.511-2.648-1.973-5.609-1.534-8.41l-14.309.752c-12.066.634-19.235 13.756-13.248 24.251z" fill="#f4d99d"/><path d="m440.335 150.134-7.931 11.934c2.634 1.048 4.947 2.953 6.458 5.601s1.973 5.609 1.534 8.41l14.309-.752c12.065-.634 19.234-13.757 13.247-24.252-5.986-10.495-20.93-11.004-27.617-.941z" fill="#fcf4d9"/><path d="m434.028 185.339c-4.753 2.711-10.509 2.063-14.537-1.173l-6.503 12.766c-5.484 10.766 2.297 23.535 14.379 23.598s19.995-12.625 14.625-23.447l-6.371-12.837c-.5.396-1.023.769-1.593 1.093z" fill="#fceca9"/><path d="m413.228 151.091 6.371 12.836c.5-.394 1.023-.767 1.593-1.092 4.753-2.711 10.509-2.063 14.537 1.173l6.502-12.766c5.484-10.766-2.297-23.535-14.379-23.599-12.082-.063-19.995 12.625-14.624 23.448z" fill="#fcf4d9"/><path d="m434.028 185.339c-.57.325-1.157.585-1.751.816l7.806 12.018c6.582 10.132 21.531 9.779 27.627-.653 6.095-10.432-.936-23.629-12.994-24.389l-14.298-.901c.735 5.114-1.637 10.399-6.39 13.109z" fill="#fcf4d9"/><path d="m387.509 150.655c-6.096 10.432.936 23.629 12.993 24.389l14.299.901c-.735-5.114 1.637-10.399 6.39-13.11.57-.325 1.157-.585 1.751-.815l-7.806-12.018c-6.582-10.131-21.531-9.779-27.627.653z" fill="#fceca9"/><path d="m383.869 97.406c8.306-4.738 18.88-1.845 23.617 6.46 4.738 8.306 1.845 18.88-6.461 23.618s-18.88 1.845-23.618-6.461c-4.736-8.306-1.844-18.88 6.462-23.617z" fill="#ffc839"/><path d="m391.978 101.918c3.296-1.88 7.492-.732 9.373 2.564 1.88 3.296.732 7.492-2.564 9.373-3.296 1.88-7.493.732-9.373-2.564-1.88-3.297-.732-7.493 2.564-9.373z" fill="#ffdd40"/><path d="m420.722 162.012c6.669-3.804 15.159-1.482 18.963 5.187s1.482 15.159-5.187 18.964c-6.669 3.804-15.159 1.481-18.963-5.188-3.805-6.669-1.482-15.159 5.187-18.963z" fill="#ffc839"/><path d="m427.284 164.876c3.164-1.804 7.191-.703 8.995 2.461 1.805 3.163.703 7.191-2.461 8.995-3.164 1.805-7.191.703-8.995-2.461s-.702-7.191 2.461-8.995z" fill="#ffdd40"/><path d="m263.412 392.94v8.176s9.525 7.059 18.932 10.213c-11.591-20.209.162-36.831.162-36.831-9.459 3.126-19.094 10.266-19.094 10.266z" fill="#e80054"/><path d="m257.729 377.083h-3.877c-7.656 0-13.92 6.264-13.92 13.919v3.877c0 7.656 6.264 13.92 13.92 13.92h3.877c7.655 0 13.919-6.264 13.919-13.92v-3.877c0-7.656-6.264-13.919-13.919-13.919z" fill="#ff4155"/><path d="m259.495 382.732h-1.381c-2.728 0-4.959 2.232-4.959 4.959v1.381c0 2.728 2.232 4.959 4.959 4.959h1.381c2.727 0 4.959-2.232 4.959-4.959v-1.381c0-2.727-2.232-4.959-4.959-4.959z" fill="#ff7186"/></g></svg>