<svg id="Layer_1" enable-background="new 0 0 512 512" height="512" viewBox="0 0 512 512" width="512" xmlns="http://www.w3.org/2000/svg"><g><path d="m239.014 511.404c5.614.384 11.275.596 16.986.596s11.372-.212 16.986-.596l159.054-74.03c42.681-44.092 68.958-104.159 68.958-170.372 0-135.309-109.689-244.998-244.998-244.998s-244.998 109.69-244.998 244.998c0 66.213 26.277 126.28 68.958 170.372z" fill="#543e5b"/><path d="m256 131.321c-114.967 0-208.167 93.2-208.167 208.167 0 27.853 5.479 54.422 15.406 78.701 5.247 6.68 10.821 13.09 16.721 19.186l159.053 74.029c5.615.384 11.276.596 16.987.596s11.372-.212 16.986-.596l159.054-74.03c5.9-6.095 11.473-12.505 16.72-19.185 9.927-24.28 15.406-50.849 15.406-78.702.001-114.967-93.199-208.166-208.166-208.166z" fill="#422953"/><g><path d="m159.855 189.217c-4.404 0-7.974-3.57-7.974-7.974v-23.923c0-4.404 3.57-7.974 7.974-7.974s7.974 3.57 7.974 7.974v23.923c.001 4.403-3.57 7.974-7.974 7.974z" fill="#dbdbdb"/></g><g><path d="m352.145 281.729c-4.404 0-7.974-3.57-7.974-7.974v-23.923c0-4.404 3.57-7.974 7.974-7.974s7.974 3.57 7.974 7.974v23.923c0 4.404-3.57 7.974-7.974 7.974z" fill="#dbdbdb"/></g><path d="m213.896 232.076c0-11.297-9.927-20.313-21.4-18.936-9.551 1.146-16.754 9.486-16.754 19.398v36.453c0 9.194-8.04 16.935-17.829 15.769-7.95-.954-13.945-7.933-13.945-16.231v-46.388c0-10.398-8.472-19.073-19.121-19.073-10.73 0-19.033 8.911-19.033 19.535 0 9.194-8.038 16.936-17.829 15.77-3.885-.467-7.296-2.379-9.775-5.173v202.36c41.541 43.802 99.097 72.254 163.291 76.002v-268.329c-9.803 10.732-27.605 3.843-27.605-11.157z" fill="#c8c8c8"/><path d="m140.886 453.904s0-83.04 0-114.333c0-20.936 12.078-48.485 20.078-54.753-.994.068-2.009.065-3.051-.059-7.949-.954-13.945-7.933-13.945-16.231v-46.388c0-10.398-8.471-19.073-19.121-19.073-10.73 0-19.033 8.911-19.033 19.535 0 9.194-8.038 16.936-17.829 15.77-3.885-.467-7.296-2.379-9.775-5.173v202.36c19.788 20.865 43.215 38.236 69.257 51.123-7.325-16.978-6.581-32.778-6.581-32.778z" fill="#b5b5b5"/><path d="m433.79 435.559v-99.814c-9.803 10.732-27.605 3.844-27.605-11.157 0-11.297-9.927-20.313-21.4-18.936-9.551 1.146-16.753 9.486-16.753 19.398v36.453c0 9.194-8.04 16.935-17.829 15.769-7.949-.954-13.945-7.933-13.945-16.231v-46.387c0-10.398-8.471-19.073-19.121-19.073-10.73 0-19.033 8.911-19.033 19.535 0 9.194-8.038 16.936-17.829 15.77-3.885-.467-7.296-2.379-9.776-5.173v185.849c64.194-3.748 121.75-32.2 163.291-76.003z" fill="#c8c8c8"/><path d="m332.886 429.855c0-25.447 11.452-43.572 18.697-52.495-.457-.016-.915-.033-1.381-.088-7.95-.954-13.945-7.933-13.945-16.231v-46.387c0-10.398-8.471-19.073-19.121-19.073-10.73 0-19.032 8.911-19.032 19.535 0 9.194-8.038 16.936-17.829 15.77-3.885-.467-7.296-2.379-9.775-5.173v185.849c21.674-1.265 42.587-5.357 62.387-11.895-.001-21.668-.001-49.767-.001-69.812z" fill="#b5b5b5"/><path d="m231.915 178.521c-4.223-.507-8.207.517-11.466 2.59-4.937 3.14-11.254 3.271-16.161.087-2.733-1.774-5.986-2.806-9.469-2.806-3.482 0-6.735 1.032-9.467 2.805-4.861 3.153-11.168 3.153-16.029 0-2.733-1.773-5.985-2.805-9.467-2.805s-6.735 1.032-9.467 2.805c-4.86 3.153-11.168 3.153-16.029 0-2.733-1.773-5.985-2.805-9.467-2.805-3.483 0-6.736 1.032-9.469 2.806-4.908 3.184-11.225 3.052-16.161-.087-3.259-2.073-7.243-3.097-11.466-2.59-8.855 1.064-15.349 8.896-15.349 17.816v25.805c0 8.919 6.494 16.752 15.349 17.816 10.556 1.268 19.614-7.036 19.614-17.353 0-8.919 6.494-16.752 15.349-17.816 10.556-1.268 19.615 7.036 19.615 17.353v46.387c0 8.919 6.494 16.752 15.349 17.816 10.556 1.268 19.615-7.036 19.615-17.353v-36.452c0-8.919 6.494-16.752 15.349-17.816 10.556-1.268 19.615 7.036 19.615 17.354 0 8.919 6.494 16.752 15.349 17.815 10.556 1.269 19.615-7.036 19.615-17.353v-36.202c-.003-8.921-6.496-16.754-15.352-17.817z" fill="#eae8e5"/><ellipse cx="89.929" cy="282.587" fill="#c8c8c8" rx="17.482" ry="17.482" transform="matrix(.87 -.494 .494 .87 -127.834 81.287)"/><path d="m207.487 75.495-40.522-71.356c-3.134-5.518-11.085-5.518-14.219 0l-40.522 71.356c-20.737 36.516 5.639 81.824 47.631 81.824s68.369-45.308 47.632-81.824z" fill="#ffdd40"/><path d="m157.433 157.263v-46.417c0-1.831-.913-3.535-2.417-4.579-11.297-7.843-8.303-24.909-5.89-33.487.757-2.689-.635-5.49-3.199-6.599-12.745-5.516-11.374-21.167-9.331-30.257.238-1.059.154-2.1-.175-3.038l-24.197 42.61c-20.334 35.807 4.636 80.064 45.209 81.767z" fill="#ffc839"/><path d="m190.89 106.367-26.402-46.492c-2.042-3.595-7.223-3.595-9.264 0l-26.402 46.492c-13.511 23.792 3.674 53.313 31.034 53.313 27.36-.001 44.545-29.521 31.034-53.313z" fill="#ffc839"/><path d="m155.016 106.266c-11.297-7.843-8.303-24.909-5.89-33.487.224-.796.24-1.597.112-2.365l-20.417 35.953c-13.107 23.081 2.676 51.551 28.612 53.231v-48.753c0-1.831-.912-3.534-2.417-4.579z" fill="#ffb332"/><path d="m176.085 132.002-13.807-24.314c-1.068-1.88-3.777-1.88-4.845 0l-13.807 24.314c-7.066 12.442 1.921 27.88 16.23 27.88s23.295-15.438 16.229-27.88z" fill="#ff9100"/><path d="m134.359 181.197c-2.733-1.773-5.985-2.804-9.468-2.804s-6.736 1.032-9.468 2.805c-4.908 3.184-11.225 3.052-16.162-.087-3.259-2.073-7.243-3.097-11.466-2.59-8.855 1.064-15.349 8.896-15.349 17.816v25.805c0 8.919 6.494 16.752 15.349 17.816 10.556 1.268 19.614-7.036 19.614-17.353 0-8.919 6.494-16.752 15.349-17.816 5.923-.712 11.373 1.592 15.017 5.572 0-.001-.001-.001-.001-.002-5.86-17.087 8.651-27.364 8.653-27.366-4.027 1.148-8.448.551-12.068-1.796z" fill="#c8c8c8"/><path d="m424.204 270.854c-4.223-.507-8.207.517-11.466 2.59-4.937 3.14-11.254 3.271-16.161.087-2.733-1.774-5.986-2.806-9.469-2.806-3.482 0-6.735 1.032-9.467 2.805-4.86 3.153-11.168 3.153-16.029 0-2.733-1.773-5.985-2.805-9.467-2.805s-6.735 1.032-9.467 2.805c-4.86 3.153-11.168 3.153-16.029 0-2.733-1.773-5.985-2.805-9.467-2.805-3.483 0-6.736 1.032-9.469 2.806-4.908 3.184-11.225 3.052-16.161-.087-3.259-2.073-7.243-3.097-11.466-2.59-8.855 1.064-15.349 8.897-15.349 17.816v25.805c0 8.919 6.494 16.752 15.349 17.816 10.556 1.268 19.614-7.036 19.614-17.353 0-8.919 6.494-16.752 15.349-17.815 10.556-1.268 19.615 7.036 19.615 17.353v46.387c0 8.919 6.494 16.752 15.349 17.816 10.556 1.268 19.615-7.036 19.615-17.353v-36.452c0-8.919 6.494-16.752 15.349-17.816 10.556-1.268 19.614 7.036 19.614 17.353 0 8.919 6.494 16.752 15.349 17.816 10.556 1.268 19.615-7.036 19.615-17.353v-36.204c-.002-8.919-6.495-16.752-15.351-17.816z" fill="#eae8e5"/><ellipse cx="282.218" cy="374.921" fill="#c8c8c8" rx="17.482" ry="17.482" transform="matrix(.16 -.987 .987 .16 -133.069 593.439)"/><path d="m326.649 273.531c-2.733-1.773-5.985-2.805-9.467-2.805-3.483 0-6.736 1.032-9.469 2.806-4.908 3.184-11.225 3.052-16.162-.087-3.259-2.073-7.243-3.097-11.466-2.59-8.855 1.064-15.349 8.896-15.349 17.816v25.805c0 8.919 6.494 16.752 15.349 17.816 10.556 1.268 19.615-7.036 19.615-17.353 0-8.919 6.494-16.752 15.349-17.816 5.923-.712 11.373 1.592 15.017 5.572 0-.001 0-.001 0-.001-5.86-17.087 8.651-27.365 8.653-27.366-4.03 1.147-8.451.55-12.07-1.797z" fill="#c8c8c8"/><circle cx="163.573" cy="138.258" fill="#ffb332" r="6.938"/><path d="m399.776 168.007-40.522-71.356c-3.134-5.518-11.085-5.518-14.219 0l-40.522 71.356c-20.737 36.516 5.639 81.824 47.631 81.824 41.993 0 68.369-45.308 47.632-81.824z" fill="#ffdd40"/><path d="m349.722 249.775v-46.417c0-1.831-.913-3.535-2.417-4.579-11.297-7.843-8.303-24.909-5.89-33.487.757-2.689-.635-5.49-3.199-6.599-12.745-5.516-11.374-21.167-9.331-30.257.238-1.059.154-2.1-.175-3.038l-24.197 42.609c-20.334 35.808 4.636 80.065 45.209 81.768z" fill="#ffc839"/><path d="m383.179 198.879-26.402-46.492c-2.042-3.595-7.223-3.595-9.264 0l-26.402 46.492c-13.511 23.792 3.674 53.313 31.034 53.313s44.545-29.521 31.034-53.313z" fill="#ffc839"/><path d="m347.305 198.778c-11.297-7.843-8.303-24.909-5.89-33.487.224-.796.24-1.597.112-2.365l-20.417 35.953c-13.107 23.081 2.676 51.551 28.612 53.231v-48.753c0-1.831-.912-3.534-2.417-4.579z" fill="#ffb332"/><path d="m368.374 224.514-13.807-24.314c-1.068-1.88-3.777-1.88-4.845 0l-13.807 24.314c-7.066 12.442 1.921 27.88 16.23 27.88 14.308 0 23.295-15.438 16.229-27.88z" fill="#ff9100"/><circle cx="355.862" cy="230.771" fill="#ffb332" r="6.938"/><g fill="#eae8e5"><ellipse cx="195.886" cy="386.723" rx="21.333" ry="41.848"/><path d="m391.824 423.542c-11.782 0-21.333 18.736-21.333 41.848 0 6.144.68 11.972 1.893 17.227 14.303-7.735 27.753-16.847 40.163-27.167-2.275-18.312-10.688-31.908-20.723-31.908z"/></g></g></svg>