<svg id="Layer_1" enable-background="new 0 0 512 512" height="512" viewBox="0 0 512 512" width="512" xmlns="http://www.w3.org/2000/svg"><g><path d="m244.998 5.501c-103.471 0-191.957 64.145-227.871 154.837l-12.642 136.967c4.824 24.929 13.41 48.515 25.171 70.129l23.547 35.502c44.885 56.399 114.112 92.561 191.794 92.561 135.309 0 244.998-109.689 244.998-244.998s-109.689-244.998-244.997-244.998z" fill="#f9e9bd"/><path d="m188.273 87.133c-71.136 10.643-129.122 42.127-171.146 73.205-11.05 27.906-17.127 58.323-17.127 90.161 0 14.085 1.205 27.886 3.487 41.32l467.736-33.68c12.358-.89 19.682-14.308 13.669-25.141-53.603-96.591-162.048-165.998-296.619-145.865z" fill="#f9ba8f"/><path d="m242.574 266.477c-28.799-12.369-34.669-40.591-35.421-57.787-.307-7.029-5.759-12.818-12.777-13.32-19.887-1.423-25.081-16.576-26.332-26.54-.631-5.026-3.993-9.314-8.719-11.136-25.385-9.785-25.06-35.279-22.642-49.516.525-3.092-.019-6.169-1.403-8.806-47.338 14.836-87.107 38.007-118.153 60.968-11.05 27.904-17.127 58.321-17.127 90.159 0 14.085 1.205 27.886 3.487 41.32l246.402-17.743c-1.283-3.3-3.811-6.095-7.315-7.599z" fill="#fcad6d"/><g fill="#665364"><path d="m509.615 214.267c-4.019-5.48-11.72-6.659-17.195-2.638-22.483 16.501-48.59 16.139-49 16.104-6.79-.189-12.43 5.121-12.651 11.896-.21 6.441 4.615 12.71 12.998 12.71 6.188 0 36.229-1.075 63.209-20.878 5.477-4.018 6.659-11.718 2.639-17.194z"/><path d="m474.89 182.194c4.357-5.214 3.662-12.971-1.552-17.327-5.212-4.355-12.971-3.662-17.327 1.552-21.276 25.462-52.045 31.558-52.58 31.661-6.667 1.221-11.091 7.605-9.891 14.278 1.192 6.618 7.525 11.137 14.286 9.929 1.613-.29 39.819-7.486 67.064-40.093z"/><path d="m430.947 142.946c3.905-5.56 2.563-13.232-2.997-17.137-5.56-3.904-13.232-2.561-17.137 2.997-19.949 28.404-57.71 38.36-58.314 38.515-6.578 1.656-10.575 8.327-8.93 14.911 1.397 5.59 6.414 9.322 11.925 9.322 8.303-.001 52.468-15.88 75.453-48.608z"/><path d="m438.329 270.225c-3.066-6.064-10.464-8.497-16.527-5.433-6.064 3.064-8.497 10.464-5.433 16.527l8.569 16.961c3.069 6.075 10.474 8.493 16.527 5.433 6.064-3.064 8.497-10.464 5.433-16.527z"/><path d="m288.928 319.747c-1.852-6.537-8.661-10.33-15.191-8.477-6.535 1.853-10.332 8.654-8.477 15.191l4.554 16.053c1.858 6.557 8.678 10.328 15.191 8.477 6.535-1.853 10.331-8.655 8.477-15.191z"/><path d="m189.493 316.436c-6.795 0-12.302 5.507-12.302 12.302v17.562c0 6.795 5.507 12.302 12.302 12.302s12.302-5.507 12.302-12.302v-17.562c0-6.795-5.507-12.302-12.302-12.302z"/><path d="m109.382 308.566c-6.5-1.977-13.37 1.696-15.343 8.199l-5.214 17.181c-2.41 7.939 3.566 15.877 11.776 15.877 5.276 0 10.155-3.421 11.767-8.733l5.214-17.181c1.973-6.501-1.699-13.369-8.2-15.343z"/></g><path d="m86.739 318.623c29.486 7.048 57.881 10.994 84.768 12.635-32.033-21.963-53.392-61.191-53.392-105.973 0-17.369 3.25-33.884 9.049-48.905-22.57 11.077-40.793 23.624-53.776 34.212-9.874 8.053-22.131 16.809-35.16 25.53 3.34 34.173 21.756 63.904 48.511 82.501z" fill="#bec8f7"/><path d="m476.629 252.447c-52.641-49.384-103.243-77.881-150.042-92.307 10.525 18.957 16.61 41.26 16.61 65.145 0 39.033-16.237 73.841-41.612 96.686 38.307-7.919 68.216-18.927 86.736-27.359 37.989-17.299 66.719-24.332 83.802-27.191 7.11-1.19 9.763-10.042 4.506-14.974z" fill="#e9efff"/><path d="m41.738 233.759c-13.447 9.108-27.894 18.246-41.524 26.574.497 12.592 1.943 24.939 4.272 36.973 14.176 2.077 28.171 5.349 41.818 9.843 16.394 5.399 32.521 9.776 48.324 13.284-30.271-17.558-51.085-49.609-52.89-86.674z" fill="#ff4155"/><path d="m476.634 319.495c-133.606 104.922-304.619 108.812-446.978 47.939 6.823 12.539 14.719 24.408 23.547 35.502 144.798 50.624 309.691 37.163 438.625-64.091 5.344-4.197 6.274-11.928 2.078-17.272-4.195-5.347-11.932-6.273-17.272-2.078z" fill="#f9ba8f"/><path d="m120.096 179.968c-6.417 14.662-10.001 30.847-10.001 47.876 0 44.071 23.863 82.545 59.356 103.279 51.19 3.339 96.978-1.693 134.492-9.643 27.568-21.902 45.265-55.692 45.265-93.636 0-24.859-7.592-47.942-20.577-67.068-85.743-27.119-158.855-6.878-208.535 19.192z" fill="#543e5b"/><path d="m254.492 321.679c-9.882-14.127-8.165-27.922-4.552-37.557 2.603-6.939-.557-14.72-7.366-17.645-28.799-12.369-34.669-40.591-35.421-57.787-.307-7.029-5.759-12.818-12.777-13.32-19.887-1.423-25.081-16.576-26.332-26.54-.364-2.903-1.644-5.557-3.568-7.634-16.314 5.326-31.176 11.844-44.381 18.774-6.417 14.662-10.001 30.847-10.001 47.876 0 44.071 23.863 82.545 59.356 103.279 31.441 2.051 60.832.935 87.531-2.066-.111-2.592-.934-5.157-2.489-7.38z" fill="#422953"/><ellipse cx="228.422" cy="235.353" fill="#422953" rx="45.822" ry="45.822" transform="matrix(.958 -.286 .286 .958 -57.838 75.282)"/><path d="m242.574 266.477c-28.799-12.369-34.669-40.591-35.421-57.787-.187-4.277-2.285-8.086-5.475-10.533-11.551 8.32-19.078 21.875-19.078 37.197 0 25.307 20.515 45.822 45.822 45.822 7.954 0 15.432-2.029 21.951-5.594-1.038-3.946-3.773-7.376-7.799-9.105z" fill="#30144a"/><path d="m297.661 181.207c0 8.843-7.169 16.012-16.012 16.012-8.844 0-16.013-7.169-16.013-16.012 0-8.844 7.169-16.012 16.013-16.012 8.843-.001 16.012 7.168 16.012 16.012z" fill="#665364"/><path d="m419.011 383.038c-20.664-23.823-38.246-51.604-49.662-83.77-2.203-6.208-11.054-6.208-13.258 0-11.416 32.165-28.997 59.947-49.662 83.77-41.897 48.3-7.649 123.461 56.291 123.461 63.94 0 98.188-75.161 56.291-123.461z" fill="#23c5ed"/><ellipse cx="394.37" cy="429.45" fill="#66e9ff" rx="24.143" ry="24.143" transform="matrix(.185 -.983 .983 .185 -100.73 737.396)"/><circle cx="352.879" cy="450.721" fill="#66e9ff" r="12.496"/><path d="m238.129 406.784-.033-.011c-71.256 2.976-142.885-11.307-208.439-39.339 6.823 12.539 14.718 24.408 23.547 35.502 59.54 20.816 122.478 30.785 184.916 28.282-13.393-13.405.009-24.434.009-24.434z" fill="#fcad6d"/></g></svg>