<svg id="Layer_1" enable-background="new 0 0 512 512" height="512" viewBox="0 0 512 512" width="512" xmlns="http://www.w3.org/2000/svg"><g><path d="m256 22.004c-135.309 0-244.998 109.689-244.998 244.998 0 104.57 65.521 193.823 157.743 228.985l165.049 3.395c97.171-32.517 167.203-124.266 167.203-232.38.001-135.309-109.688-244.998-244.997-244.998z" fill="#f9e9bd"/><path d="m8.416 174.984s25.513 49.988 56.423 47.824c13.274-48.774 47.321-89.244 93.105-110.668l99.48-46.55c-.001 0-179.357-3.969-249.008 109.394z" fill="#543e5b"/><path d="m105.743 88.154c-16.128-2.321-28.553-9.789-34.641-14.137-1.519-1.084-3.608.137-3.415 1.993 1.798 17.277-1.866 33.881-1.866 33.881-7.371 39.453 28.637 49.115 45.419 51.469 5 .701 9.888-1.961 11.954-6.568 14.243-31.758 4.115-63.535-17.451-66.638z" fill="#81c66d"/><path d="m64.923 122.57c20.962 6.917 21.995-7.775 21.995-7.775l15.117-10.779c12.905 2.161 11.082-13.388 11.07-13.489 16.311 8.496 22.593 36.385 10.09 64.265-2.066 4.607-6.954 7.269-11.954 6.568-14.815-2.079-44.606-9.856-46.318-38.79z" fill="#5aab5f"/><g><path d="m131.731 187.316c1.055 0 2.127-.181 3.175-.562 4.817-1.754 7.301-7.08 5.547-11.898-10.972-30.142-28.78-57.321-38.419-70.84-2.976-4.174-8.771-5.145-12.947-2.168-4.174 2.976-5.145 8.773-2.169 12.947 9.091 12.75 25.869 38.333 36.09 66.411 1.372 3.768 4.932 6.11 8.723 6.11z" fill="#a0e589"/></g><path d="m92.342 149.169c-21.861-.061-39.767-7.655-48.671-12.29-2.221-1.156-4.767.858-4.163 3.287 5.625 22.616 3.869 45.361 3.869 45.361-2.401 53.797 47.248 59.885 69.985 59.868 6.774-.005 12.769-4.458 14.651-10.966 12.971-44.859-6.439-85.177-35.671-85.26z" fill="#81c66d"/><path d="m128.013 234.43c-1.881 6.507-7.876 10.96-14.65 10.965-21.241.016-65.964-5.302-69.8-49.863 25.625 2.69 19.509-20.293 19.509-20.293l13.462-12.783c16.991 1.482 15.808-13.287 15.808-13.287 29.232.083 48.642 40.401 35.671 85.261z" fill="#5aab5f"/><g><path d="m131.874 261.934c1.472 0 2.964-.352 4.354-1.092 4.525-2.409 6.241-8.03 3.832-12.556-19.958-37.489-48.367-69.867-63.526-85.83-3.53-3.718-9.405-3.87-13.123-.34-3.717 3.529-3.87 9.406-.339 13.123 14.509 15.28 41.675 46.221 60.601 81.771 1.669 3.136 4.881 4.924 8.201 4.924z" fill="#a0e589"/></g><path d="m503.561 174.984s-25.513 49.988-56.423 47.824h-.001c-13.273-48.774-47.321-89.244-93.104-110.668l-99.479-46.55c-.001 0 179.356-3.969 249.007 109.394z" fill="#543e5b"/><path d="m408.144 88.154c16.128-2.321 28.553-9.789 34.641-14.137 1.519-1.084 3.608.137 3.415 1.993-1.798 17.277 1.866 33.881 1.866 33.881 7.371 39.453-28.637 49.115-45.419 51.469-5 .701-9.888-1.961-11.954-6.568-14.242-31.758-4.114-63.535 17.451-66.638z" fill="#81c66d"/><path d="m448.964 122.57c-20.962 6.917-21.995-7.775-21.995-7.775l-15.117-10.779c-12.905 2.161-11.082-13.388-11.07-13.489-16.311 8.496-22.593 36.385-10.09 64.265 2.066 4.607 6.954 7.269 11.954 6.568 14.816-2.079 44.606-9.856 46.318-38.79z" fill="#5aab5f"/><g><path d="m382.157 187.316c-1.055 0-2.127-.181-3.175-.562-4.817-1.754-7.301-7.08-5.547-11.898 10.972-30.142 28.78-57.321 38.419-70.84 2.976-4.174 8.771-5.145 12.947-2.168 4.174 2.976 5.145 8.773 2.169 12.947-9.091 12.75-25.869 38.333-36.09 66.411-1.372 3.768-4.932 6.11-8.723 6.11z" fill="#a0e589"/></g><g><g><path d="m345.358 66.122c5.887-4.125 13.924-5.858 21.019-6.509-.427-.169-.853-.34-1.288-.493-14.023-4.961-19.356-13.225-21.384-18.863-.672-1.869-3.274-1.966-4.09-.155-1.978 4.393-4.629 10.897-6.762 18.297 4.646 1.847 9.132 4.349 12.505 7.723z" fill="#ff7186"/></g><path d="m316.335 70.979c6.476 1.472 14.015 3.849 20.388 7.645.946-3.06 2.412-6.093 4.6-8.898 1.213-1.556 2.667-2.891 4.281-4.049-8.401-8.59-24.016-11.599-31.462-12.575-1.257-.165-2.077 1.281-1.288 2.273 2.175 2.732 4.601 7.703 3.481 15.604z" fill="#ff4155"/><path d="m343.791 84.022c8.228-5.765 19.969-7.623 29.316-8.078.27-7.974 3.521-12.447 6.136-14.76.95-.84.393-2.405-.874-2.462-8.743-.387-28.901.011-37.449 10.97-2.146 2.751-3.599 5.722-4.546 8.722 2.738 1.598 5.265 3.456 7.417 5.608z" fill="#fc90a5"/><path d="m355.653 75.35c-4.139-4.743-1.478-10.729.068-13.369.23-.392.39-.814.487-1.249-6.009 1.598-11.682 4.337-15.287 8.96-2.146 2.751-3.599 5.722-4.546 8.722 2.737 1.598 5.264 3.456 7.416 5.608 3.746-2.625 8.221-4.433 12.866-5.674.057-1.074-.266-2.153-1.004-2.998z" fill="#ff7186"/><path d="m305.729 90.977c8.482 1.927 18.355 5.04 26.702 10.013 1.239-4.008 3.159-7.979 6.024-11.653 1.589-2.037 3.492-3.787 5.607-5.303-11.002-11.249-31.453-15.191-41.204-16.469-1.646-.215-2.72 1.677-1.686 2.976 2.846 3.578 6.024 10.088 4.557 20.436z" fill="#e80054"/><path d="m341.686 108.058c10.776-7.55 26.152-9.984 38.394-10.58.353-10.443 4.612-16.302 8.036-19.33 1.244-1.099.514-3.15-1.144-3.224-11.45-.507-37.851.014-49.045 14.367-2.811 3.603-4.713 7.493-5.954 11.423 3.585 2.092 6.895 4.526 9.713 7.344z" fill="#ff7186"/><path d="m356.643 96.975c-5.852-5.639-3.045-12.61-.645-16.498.485-.786.706-1.685.666-2.566-7.388 2.136-14.272 5.656-18.737 11.379-2.81 3.603-4.713 7.493-5.954 11.423 3.585 2.093 6.895 4.526 9.713 7.345 4.724-3.31 10.333-5.636 16.175-7.256.251-1.368-.168-2.815-1.218-3.827z" fill="#ff4155"/><path d="m326.375 152.593c-1.361-11.086-.798-26.58 9.014-39.159 1.901-2.437 4.178-4.53 6.708-6.344-13.161-13.457-37.626-18.173-49.291-19.701-1.969-.258-3.254 2.006-2.018 3.56 3.731 4.688 7.959 13.569 4.81 28.106-4.33 19.988 8.414 40.926 33.394 47.286 2.676.681 5.374.68 7.911.112-5.565-2.318-9.748-7.505-10.528-13.86z" fill="#cc0053"/><path d="m393.429 96.192c-13.697-.607-45.28.016-58.671 17.186-9.811 12.579-10.375 28.074-9.014 39.16 1.116 9.096 9.201 15.809 18.339 15.124 25.705-1.926 41.891-20.333 41.098-40.769-.577-14.863 5.129-22.875 9.617-26.844 1.488-1.315.615-3.768-1.369-3.857z" fill="#ff4155"/><path d="m344.083 167.662c6.919-.518 13.14-2.24 18.534-4.864-.128-.082-.247-.161-.377-.244-28.747-18.061-11.538-50.032-4.987-60.209.548-.852.761-1.84.656-2.791-9.116 2.533-17.662 6.787-23.151 13.824-9.811 12.579-10.375 28.074-9.014 39.16 1.117 9.095 9.201 15.809 18.339 15.124z" fill="#e80054"/></g><g><g><path d="m168.37 66.263c5.081-5.085 12.695-8.187 19.569-10.06-.45-.093-.899-.186-1.354-.262-14.671-2.45-21.359-9.663-24.335-14.863-.986-1.724-3.566-1.367-4.054.558-1.185 4.67-2.667 11.535-3.482 19.193 4.896 1.013 9.748 2.698 13.656 5.434z" fill="#ff7186"/></g><path d="m140.632 76.087c6.633.325 14.47 1.356 21.406 3.989.4-3.178 1.317-6.419 2.985-9.561.925-1.743 2.124-3.311 3.513-4.731-9.764-7-25.665-7.253-33.167-6.921-1.266.056-1.823 1.622-.874 2.462 2.615 2.312 5.868 6.786 6.137 14.762z" fill="#ff4155"/><path d="m169.935 84.163c7.102-7.106 18.342-10.975 27.468-13.046-1.119-7.9 1.307-12.87 3.48-15.601.789-.992-.031-2.437-1.288-2.273-8.677 1.137-28.461 5.029-34.975 17.306-1.636 3.082-2.55 6.259-2.963 9.379 2.973 1.099 5.785 2.49 8.278 4.235z" fill="#fc90a5"/><path d="m180.111 73.564c-4.9-3.952-3.319-10.309-2.255-13.178.158-.426.243-.869.263-1.315-5.64 2.617-10.751 6.3-13.499 11.478-1.636 3.082-2.551 6.259-2.963 9.379 2.973 1.098 5.785 2.489 8.277 4.235 3.233-3.235 7.327-5.793 11.685-7.822-.129-1.067-.635-2.073-1.508-2.777z" fill="#ff7186"/><path d="m133.659 97.623c8.688.425 18.951 1.776 28.035 5.224.524-4.162 1.725-8.407 3.909-12.522 1.211-2.282 2.781-4.336 4.601-6.196-12.788-9.168-33.613-9.499-43.438-9.063-1.658.074-2.388 2.124-1.144 3.224 3.425 3.028 7.684 8.887 8.037 19.333z" fill="#e80054"/><path d="m172.036 108.2c9.301-9.307 24.021-14.373 35.974-17.086-1.466-10.346 1.711-16.855 4.558-20.432 1.034-1.299-.04-3.192-1.686-2.976-11.364 1.489-37.273 6.586-45.805 22.665-2.142 4.037-3.34 8.198-3.88 12.283 3.892 1.438 7.574 3.26 10.839 5.546z" fill="#ff7186"/><path d="m184.841 94.688c-6.743-4.537-5.188-11.889-3.5-16.135.341-.858.403-1.782.211-2.643-6.905 3.387-13.074 8.048-16.476 14.46-2.142 4.037-3.34 8.198-3.88 12.283 3.894 1.438 7.576 3.26 10.841 5.546 4.078-4.08 9.198-7.345 14.669-9.954.009-1.39-.656-2.743-1.865-3.557z" fill="#ff4155"/><path d="m164.691 154.717c-3.265-10.681-5.401-26.038 2.077-40.13 1.449-2.73 3.328-5.187 5.504-7.412-15.298-10.967-40.21-11.363-51.963-10.842-1.984.088-2.857 2.541-1.369 3.857 4.488 3.969 10.194 11.981 9.618 26.844-.794 20.436 15.393 38.843 41.098 40.769 2.754.206 5.41-.263 7.811-1.263-5.884-1.318-10.904-5.7-12.776-11.823z" fill="#cc0053"/><path d="m220.933 87.53c-13.595 1.781-44.589 7.879-54.796 27.113-7.478 14.092-5.342 29.449-2.077 40.13 2.679 8.764 11.806 13.971 20.687 11.71 24.98-6.36 37.724-27.298 33.394-47.286-3.149-14.537 1.079-23.418 4.81-28.106 1.236-1.555-.049-3.819-2.018-3.561z" fill="#ff4155"/><path d="m184.747 166.482c6.723-1.712 12.551-4.487 17.407-8.008-.14-.058-.271-.116-.414-.174-31.446-12.794-20.051-47.268-15.366-58.428.392-.934.43-1.944.161-2.863-8.538 4.077-16.215 9.751-20.398 17.634-7.478 14.092-5.342 29.449-2.077 40.13 2.679 8.763 11.806 13.97 20.687 11.709z" fill="#e80054"/></g><g><g><path d="m256.863 29.85c6.108-5.129 14.824-7.821 22.602-9.227-.488-.146-.976-.293-1.471-.421-15.979-4.127-22.673-12.745-25.46-18.781-.923-2.001-3.809-1.856-4.535.224-1.762 5.047-4.063 12.492-5.705 20.878 5.315 1.593 10.515 3.925 14.569 7.327z" fill="#ff7186"/></g><path d="m225.254 38.026c7.301 1 15.863 2.898 23.274 6.479.75-3.474 2.077-6.967 4.224-10.279 1.19-1.837 2.668-3.454 4.341-4.89-10.116-8.682-27.667-10.498-35.991-10.857-1.405-.06-2.172 1.617-1.204 2.637 2.668 2.809 5.83 8.068 5.356 16.91z" fill="#ff4155"/><path d="m256.862 49.787c8.537-7.168 21.334-10.357 31.622-11.764-.473-8.84 2.689-14.099 5.355-16.907.969-1.02.201-2.697-1.204-2.637-9.701.417-31.944 2.807-40.331 15.746-2.106 3.249-3.424 6.672-4.182 10.08 3.181 1.502 6.154 3.311 8.74 5.482z" fill="#fc90a5"/><path d="m269.135 39.055c-5.034-4.842-2.671-11.715-1.218-14.783.216-.456.353-.938.418-1.428-6.487 2.347-12.492 5.923-16.03 11.381-2.106 3.249-3.424 6.672-4.182 10.08 3.18 1.501 6.153 3.311 8.74 5.481 3.886-3.263 8.658-5.695 13.672-7.516-.041-1.191-.503-2.352-1.4-3.215z" fill="#ff7186"/><path d="m215.465 61.155c9.561 1.31 20.775 3.796 30.481 8.485.982-4.55 2.72-9.125 5.532-13.463 1.559-2.405 3.494-4.523 5.685-6.404-13.248-11.37-36.234-13.749-47.135-14.218-1.84-.079-2.845 2.117-1.576 3.453 3.492 3.68 7.633 10.568 7.013 22.147z" fill="#e80054"/><path d="m256.86 76.558c11.181-9.387 27.941-13.564 41.414-15.406-.62-11.577 3.521-18.464 7.013-22.143 1.268-1.336.264-3.532-1.576-3.453-12.705.546-41.835 3.675-52.82 20.622-2.758 4.255-4.485 8.738-5.477 13.201 4.165 1.966 8.059 4.336 11.446 7.179z" fill="#ff7186"/><path d="m272.32 62.861c-7.014-5.667-4.585-13.643-2.308-18.172.46-.915.618-1.931.488-2.901-7.96 3.076-15.229 7.632-19.609 14.39-2.758 4.255-4.485 8.738-5.477 13.201 4.165 1.966 8.058 4.336 11.446 7.179 4.902-4.116 10.876-7.229 17.176-9.584.146-1.537-.458-3.096-1.716-4.113z" fill="#ff4155"/><path d="m244.243 127.263c-2.576-12.121-3.452-29.302 6.176-44.154 1.865-2.878 4.179-5.411 6.801-7.661-15.848-13.602-43.345-16.448-56.386-17.009-2.201-.095-3.403 2.532-1.886 4.13 4.577 4.821 10.109 14.228 8.034 30.6-2.854 22.512 13.257 44.422 41.483 49.036 3.024.494 6.005.232 8.755-.641-6.375-2.024-11.5-7.353-12.977-14.301z" fill="#cc0053"/><path d="m312.904 58.439c-15.198.654-50.046 4.397-63.187 24.669-9.628 14.852-8.753 32.033-6.176 44.154 2.114 9.945 11.698 16.584 21.733 14.943 28.225-4.614 44.336-26.525 41.483-49.036-2.075-16.372 3.457-25.779 8.034-30.6 1.517-1.597.315-4.225-1.887-4.13z" fill="#ff4155"/><path d="m265.274 142.206c7.597-1.242 14.307-3.746 20.015-7.168-.15-.078-.288-.154-.441-.233-33.52-17.182-17.591-54.184-11.334-66.067.524-.995.664-2.107.455-3.149-9.831 3.681-18.865 9.21-24.251 17.518-9.628 14.853-8.753 32.033-6.176 44.155 2.113 9.946 11.697 16.584 21.732 14.944z" fill="#e80054"/></g><path d="m421.546 149.169c21.861-.061 39.767-7.655 48.671-12.29 2.22-1.156 4.767.858 4.163 3.287-5.626 22.616-3.869 45.361-3.869 45.361 2.401 53.797-47.248 59.885-69.985 59.868-6.774-.005-12.769-4.458-14.651-10.966-12.972-44.859 6.438-85.177 35.671-85.26z" fill="#81c66d"/><path d="m385.875 234.43c1.881 6.507 7.876 10.96 14.65 10.965 21.241.016 65.964-5.302 69.8-49.863-25.625 2.69-19.509-20.293-19.509-20.293l-13.462-12.783c-16.991 1.482-15.808-13.287-15.808-13.287-29.233.083-48.643 40.401-35.671 85.261z" fill="#5aab5f"/><g><path d="m382.013 261.934c-1.472 0-2.964-.352-4.354-1.092-4.525-2.409-6.241-8.03-3.832-12.556 19.958-37.489 48.367-69.867 63.526-85.83 3.53-3.718 9.405-3.87 13.123-.34 3.717 3.529 3.87 9.406.339 13.123-14.509 15.28-41.675 46.221-60.601 81.771-1.668 3.136-4.88 4.924-8.201 4.924z" fill="#a0e589"/></g><g><g><path d="m256.959 116.977c7.94-6.667 19.27-10.167 29.382-11.994-.635-.19-1.268-.381-1.913-.547-20.772-5.365-29.474-16.568-33.096-24.414-1.2-2.601-4.951-2.413-5.895.292-2.29 6.56-5.281 16.239-7.416 27.14 6.908 2.07 13.668 5.101 18.938 9.523z" fill="#ff7186"/></g><path d="m215.87 127.606c9.49 1.3 20.621 3.768 30.255 8.422.975-4.516 2.7-9.057 5.491-13.363 1.548-2.388 3.468-4.49 5.643-6.356-13.15-11.286-35.965-13.647-46.786-14.113-1.826-.078-2.823 2.101-1.565 3.427 3.467 3.652 7.578 10.489 6.962 21.983z" fill="#ff4155"/><path d="m256.958 142.894c11.098-9.318 27.733-13.463 41.107-15.292-.615-11.491 3.495-18.327 6.961-21.978 1.259-1.326.262-3.506-1.565-3.427-12.611.542-41.525 3.648-52.428 20.469-2.738 4.223-4.452 8.673-5.436 13.103 4.134 1.951 7.998 4.303 11.361 7.125z" fill="#fc90a5"/><path d="m272.912 128.943c-6.543-6.294-3.473-15.229-1.583-19.217.281-.592.458-1.219.543-1.856-8.433 3.051-16.239 7.7-20.838 14.795-2.738 4.223-4.452 8.673-5.436 13.103 4.134 1.952 7.999 4.304 11.361 7.125 5.052-4.242 11.255-7.403 17.773-9.77-.054-1.549-.654-3.058-1.82-4.18z" fill="#ff7186"/><path d="m203.144 157.672c12.429 1.703 27.006 4.934 39.624 11.03 1.277-5.914 3.535-11.862 7.191-17.5 2.027-3.127 4.541-5.88 7.39-8.325-17.222-14.78-47.101-17.873-61.273-18.483-2.392-.103-3.698 2.752-2.049 4.489 4.54 4.782 9.924 13.736 9.117 28.789z" fill="#e80054"/><path d="m256.955 177.694c14.534-12.203 36.321-17.632 53.835-20.027-.806-15.049 4.577-24.002 9.117-28.784 1.649-1.736.343-4.591-2.049-4.489-16.516.71-54.383 4.778-68.663 26.807-3.585 5.531-5.83 11.359-7.119 17.16 5.414 2.557 10.476 5.638 14.879 9.333z" fill="#ff7186"/><path d="m277.052 159.89c-9.118-7.367-5.96-17.735-3.001-23.623.598-1.19.803-2.51.635-3.771-10.347 3.998-19.796 9.921-25.491 18.706-3.585 5.531-5.83 11.359-7.119 17.16 5.414 2.556 10.475 5.637 14.879 9.332 6.372-5.35 14.139-9.397 22.328-12.459.189-1.997-.595-4.023-2.231-5.345z" fill="#ff4155"/><path d="m240.554 243.607c-3.349-15.757-4.487-38.091 8.029-57.398 2.425-3.741 5.433-7.034 8.841-9.958-20.602-17.681-56.346-21.381-73.299-22.11-2.862-.123-4.424 3.292-2.451 5.369 5.95 6.267 13.141 18.496 10.444 39.779-3.709 29.264 17.234 57.746 53.925 63.744 3.931.643 7.807.302 11.381-.833-8.288-2.632-14.95-9.56-16.87-18.593z" fill="#cc0053"/><path d="m329.809 154.141c-19.757.85-65.057 5.716-82.14 32.068-12.516 19.307-11.378 41.641-8.029 57.398 2.747 12.928 15.207 21.558 28.251 19.425 36.691-5.999 57.634-34.481 53.925-63.744-2.698-21.283 4.494-33.511 10.444-39.779 1.973-2.076.411-5.491-2.451-5.368z" fill="#ff4155"/><path d="m267.892 263.033c9.875-1.614 18.598-4.869 26.018-9.318-.195-.101-.375-.201-.573-.303-43.574-22.336-22.867-70.436-14.734-85.882.681-1.293.863-2.74.591-4.093-12.78 4.785-24.524 11.972-31.525 22.773-12.516 19.307-11.378 41.641-8.029 57.398 2.749 12.928 15.208 21.557 28.252 19.425z" fill="#e80054"/></g><g><g><path d="m144.707 145.915c6.248-6.253 15.611-10.067 24.064-12.371-.553-.114-1.106-.229-1.665-.323-18.041-3.013-26.264-11.882-29.924-18.277-1.213-2.12-4.385-1.681-4.986.686-1.457 5.742-3.279 14.185-4.282 23.602 6.021 1.246 11.988 3.318 16.793 6.683z" fill="#ff7186"/></g><path d="m110.597 157.995c8.157.399 17.794 1.668 26.323 4.905.492-3.908 1.62-7.893 3.671-11.757 1.137-2.143 2.612-4.071 4.32-5.818-12.007-8.608-31.561-8.919-40.786-8.51-1.557.069-2.242 1.995-1.074 3.027 3.216 2.844 7.216 8.345 7.546 18.153z" fill="#ff4155"/><path d="m146.631 167.927c8.733-8.739 22.555-13.496 33.777-16.043-1.376-9.714 1.607-15.826 4.279-19.185.971-1.219-.038-2.997-1.584-2.795-10.671 1.398-34.998 6.184-43.009 21.281-2.012 3.79-3.136 7.697-3.643 11.533 3.658 1.352 7.115 3.062 10.18 5.209z" fill="#fc90a5"/><path d="m159.145 154.892c-6.025-4.86-4.081-12.677-2.773-16.204.194-.524.299-1.069.323-1.617-6.936 3.218-13.22 7.747-16.599 14.115-2.012 3.79-3.136 7.697-3.643 11.533 3.656 1.351 7.113 3.061 10.179 5.208 3.976-3.978 9.01-7.124 14.369-9.619-.16-1.313-.782-2.55-1.856-3.416z" fill="#ff7186"/><path d="m102.023 184.477c10.683.523 23.304 2.184 34.474 6.424.645-5.118 2.121-10.337 4.807-15.398 1.489-2.807 3.421-5.331 5.658-7.62-15.725-11.274-41.334-11.68-53.415-11.145-2.039.091-2.936 2.612-1.407 3.965 4.211 3.724 9.45 10.93 9.883 23.774z" fill="#e80054"/><path d="m149.215 197.484c11.438-11.444 29.539-17.675 44.237-21.01-1.802-12.722 2.104-20.726 5.605-25.125 1.271-1.597-.05-3.925-2.074-3.66-13.975 1.831-45.835 8.099-56.326 27.871-2.634 4.964-4.107 10.081-4.771 15.104 4.786 1.769 9.314 4.009 13.329 6.82z" fill="#ff7186"/><path d="m164.961 180.869c-8.292-5.58-6.38-14.62-4.304-19.841.42-1.055.496-2.192.259-3.25-8.491 4.165-16.077 9.897-20.261 17.782-2.634 4.964-4.107 10.081-4.771 15.104 4.788 1.769 9.316 4.009 13.331 6.82 5.014-5.018 11.31-9.032 18.038-12.241.013-1.71-.804-3.373-2.292-4.374z" fill="#ff4155"/><path d="m140.183 254.687c-4.016-13.134-6.642-32.019 2.554-49.347 1.781-3.357 4.092-6.378 6.769-9.115-18.812-13.486-49.446-13.973-63.899-13.332-2.44.108-3.513 3.125-1.683 4.742 5.519 4.881 12.536 14.733 11.826 33.01-.976 25.131 18.929 47.766 50.538 50.134 3.387.254 6.653-.324 9.605-1.554-7.235-1.621-13.408-7.01-15.71-14.538z" fill="#cc0053"/><path d="m209.343 172.066c-16.717 2.19-54.831 9.689-67.382 33.341-9.196 17.329-6.57 36.213-2.554 49.347 3.294 10.777 14.518 17.18 25.438 14.4 30.718-7.821 46.389-33.569 41.064-58.148-3.873-17.876 1.327-28.797 5.914-34.562 1.522-1.91-.058-4.695-2.48-4.378z" fill="#ff4155"/><path d="m164.846 269.154c8.268-2.105 15.434-5.518 21.406-9.848-.173-.072-.333-.143-.509-.214-38.669-15.733-24.656-58.125-18.896-71.849.482-1.149.529-2.391.198-3.52-10.499 5.014-19.939 11.991-25.084 21.685-9.196 17.329-6.57 36.213-2.554 49.348 3.295 10.775 14.518 17.179 25.439 14.398z" fill="#e80054"/></g><g><g><path d="m367.304 146.096c7.239-5.073 17.122-7.204 25.847-8.004-.525-.208-1.049-.418-1.584-.607-17.244-6.1-23.802-16.262-26.296-23.196-.826-2.298-4.026-2.417-5.029-.19-2.432 5.402-5.692 13.4-8.316 22.5 5.715 2.272 11.231 5.349 15.378 9.497z" fill="#ff7186"/></g><path d="m331.615 152.07c7.964 1.81 17.234 4.732 25.071 9.402 1.164-3.763 2.966-7.492 5.656-10.941 1.492-1.913 3.279-3.556 5.265-4.979-10.33-10.562-29.532-14.264-38.688-15.463-1.546-.202-2.554 1.575-1.584 2.795 2.674 3.357 5.658 9.47 4.28 19.186z" fill="#ff4155"/><path d="m365.377 168.108c10.118-7.089 24.556-9.374 36.05-9.934.332-9.806 4.33-15.306 7.546-18.15 1.168-1.032.483-2.958-1.074-3.027-10.751-.476-35.54.013-46.051 13.489-2.639 3.383-4.425 7.036-5.591 10.725 3.366 1.965 6.474 4.251 9.12 6.897z" fill="#fc90a5"/><path d="m379.964 157.445c-5.09-5.832-1.818-13.193.083-16.44.282-.482.48-1.001.599-1.536-7.389 1.965-14.365 5.333-18.798 11.018-2.639 3.383-4.425 7.036-5.591 10.725 3.366 1.965 6.474 4.25 9.12 6.896 4.606-3.227 10.11-5.451 15.821-6.977.071-1.321-.327-2.647-1.234-3.686z" fill="#ff7186"/><path d="m318.572 176.661c10.43 2.37 22.571 6.198 32.835 12.313 1.524-4.928 3.884-9.812 7.408-14.329 1.954-2.505 4.294-4.656 6.895-6.521-13.529-13.833-38.677-18.68-50.668-20.251-2.024-.265-3.345 2.063-2.074 3.66 3.501 4.398 7.408 12.403 5.604 25.128z" fill="#e80054"/><path d="m362.789 197.665c13.251-9.285 32.159-12.277 47.213-13.01.434-12.842 5.671-20.046 9.882-23.77 1.529-1.352.632-3.874-1.407-3.965-14.08-.624-46.545.017-60.31 17.667-3.456 4.431-5.796 9.214-7.322 14.046 4.408 2.574 8.478 5.567 11.944 9.032z" fill="#ff7186"/><path d="m381.181 184.037c-7.197-6.935-3.744-15.506-.793-20.287.596-.966.869-2.072.819-3.156-9.085 2.627-17.551 6.955-23.04 13.993-3.456 4.431-5.796 9.214-7.322 14.046 4.408 2.573 8.478 5.566 11.944 9.031 5.81-4.07 12.707-6.931 19.89-8.923.309-1.68-.207-3.46-1.498-4.704z" fill="#ff4155"/><path d="m343.961 252.43c-1.674-13.632-.981-32.686 11.084-48.154 2.337-2.997 5.137-5.571 8.249-7.801-16.184-16.548-46.269-22.347-60.613-24.226-2.421-.317-4.002 2.467-2.481 4.378 4.588 5.765 9.787 16.686 5.915 34.562-5.325 24.579 10.346 50.327 41.064 58.148 3.291.838 6.608.836 9.729.138-6.844-2.852-11.988-9.231-12.947-17.045z" fill="#cc0053"/><path d="m426.418 183.074c-16.844-.746-55.68.02-72.148 21.134-12.065 15.469-12.758 34.522-11.084 48.154 1.373 11.185 11.314 19.44 22.551 18.598 31.609-2.368 51.514-25.003 50.538-50.134-.71-18.277 6.307-28.129 11.826-33.01 1.829-1.617.756-4.634-1.683-4.742z" fill="#ff4155"/><path d="m365.737 270.96c8.508-.637 16.158-2.754 22.791-5.981-.158-.1-.303-.198-.464-.3-35.35-22.209-14.188-61.524-6.132-74.039.674-1.048.936-2.263.806-3.432-11.21 3.114-21.719 8.346-28.468 17-12.065 15.469-12.758 34.522-11.084 48.154 1.372 11.185 11.313 19.44 22.551 18.598z" fill="#e80054"/></g><path d="m256.003 305.357c23.207-17.944 53.706-30.434 85.077-40.253-13.464-15.709-36.584-35.863-74.963-52.867-6.427-2.848-13.784-2.848-20.211 0-38.385 17.006-61.507 37.164-74.969 52.874 31.368 9.817 61.861 22.305 85.066 40.246z" fill="#dae2fe"/><path d="m277.974 275.498c-31.405-25.223-4.825-60.029-4.825-60.029-2.284-1.089-4.628-2.167-7.032-3.232-6.427-2.848-13.784-2.848-20.211 0-38.385 17.006-61.507 37.164-74.969 52.873 31.368 9.817 61.86 22.305 85.066 40.246 8.72-6.743 18.47-12.715 28.909-18.065-.775-4.543-3.182-8.776-6.938-11.793z" fill="#bec8f7"/><path d="m164.893 390.632c11.414-13.245 36.447-8.724 52.82 7.527-5.304-42.641 11.539-72.342 39.156-94.028-36.039-28.298-90.398-42.961-137.741-54.97-58.523-14.844-91.602-50.508-107.963-74.588-1.019-1.498-3.425-.239-2.676 1.482 40.021 91.976 45.868 59.88 99.027 149.574 19.041 32.127 37.041 55.855 53.576 73.312.347-2.891 1.43-5.559 3.801-8.309z" fill="#a4b3ea"/><path d="m500.836 174.574c-16.361 24.08-49.441 59.743-107.964 74.588-83.095 21.077-187.792 50.339-177.115 147.145 1.329 1.203 2.615 2.475 3.848 3.818 10.302 11.216 18.671 15.905 19.227 16.326v-2.459c0-3.273 3.424-5.422 6.377-3.99.41.098 9.637 5.854 21.449.069.09-.019 2.177-1.262 4.448.16 1.304.815 2.083 2.222 2.083 3.832v2.458c1.241-.943 9.373-5.668 19.228-16.396 16.512-17.979 42.99-23.096 54.712-9.493 2.365 2.743 3.448 5.405 3.799 8.289 16.529-17.456 34.522-41.177 53.555-73.29 53.159-89.695 59.006-57.599 99.026-149.574.752-1.722-1.654-2.981-2.673-1.483z" fill="#e9efff"/><path d="m215.757 396.307c1.329 1.202 2.614 2.475 3.848 3.818 10.302 11.216 18.67 15.905 19.228 16.326v-2.46c0-3.273 3.424-5.422 6.377-3.99.41.098 9.637 5.854 21.449.069.089-.019 2.176-1.262 4.448.16 1.304.815 2.083 2.222 2.083 3.832v2.459c1.241-.943 9.374-5.668 19.228-16.396 8.608-9.373 19.924-15.24 30.446-16.792v-1.36c-53.595-17.871-46.31-62.856-38.659-85.493 1.212-3.586 1.269-7.343.347-10.842-43.495 22.282-74.879 55.507-68.795 110.669z" fill="#dae2fe"/><path d="m197.854 505.039 42.033 6.42.001.005c5.327.347 10.697.536 16.112.536 5.422 0 10.803-.181 16.138-.529l-.001-.014 41.96-6.413c7.623-1.856 15.112-4.057 22.438-6.606l-18.25-30.333c-17.699-3.074-35.699-14.959-45.095-20.59v3.105c0 3.349-3.565 5.489-6.523 3.914-6.672-3.559-14.638-3.559-21.31 0-2.954 1.575-6.524-.563-6.524-3.914v-3.105c-6.305 3.725-35.852 23.906-56.331 20.967l-16.523 26.448c10.301 4.072 20.946 7.461 31.875 10.122z" fill="#e9efff"/><path d="m267.335 491.639 3.805-37.285c-1.274.813-2.952.989-4.472.18-6.672-3.559-14.638-3.559-21.31 0-2.954 1.575-6.524-.563-6.524-3.914v-3.105c-6.305 3.725-35.852 23.906-56.331 20.967l-16.523 26.448c10.301 4.072 20.946 7.461 31.875 10.122l-.001-.013 42.033 6.42c-.001-23.015 27.448-19.82 27.448-19.82z" fill="#bec8f7"/><path d="m245.484 454.772c-1.473.785-3.205.741-4.635-.117-1.431-.859-2.285-2.368-2.285-4.036v-2.611l-1.592 1.023c-6.772 4.349-16.388 9.991-26.42 14.176-.845 3.197-1.563 6.505-2.13 9.922-2.228 13.431-6.2 23.888-10.567 31.91 13.602 3.311 27.647 5.486 42.033 6.42 1.848-5.354 3.444-11.473 4.603-18.454 2.641-15.921 8.551-29.456 15.391-40.527-4.857-.854-9.922-.093-14.398 2.294z" fill="#543e5b"/><path d="m303.603 473.129c-.567-3.417-1.285-6.723-2.13-9.92-10.032-4.186-19.648-9.83-26.42-14.179l-1.592-1.023v2.611c0 1.668-.854 3.177-2.285 4.036-1.43.858-3.164.901-4.636.117-4.476-2.387-9.54-3.148-14.395-2.294 6.839 11.07 12.749 24.605 15.39 40.527 1.159 6.981 2.754 13.099 4.602 18.453 14.384-.936 28.429-3.111 42.03-6.424-4.366-8.02-8.336-18.475-10.564-31.904z" fill="#543e5b"/><g fill="#422953"><path d="m259.92 452.448c-4.852-.854-9.915-.093-14.389 2.293-1.472.785-3.204.741-4.633-.117-1.431-.858-2.284-2.366-2.284-4.034v-2.61l-1.592 1.022c-6.769 4.347-16.381 9.987-26.408 14.17-.845 3.196-1.563 6.502-2.129 9.918-.311 1.877-.657 3.696-1.033 5.458 1.191.405 2.492.477 3.757.14 17.753-4.737 27.802 6.029 31.58 11.423.522.745 1.185 1.356 1.932 1.825 2.719-15.47 8.51-28.662 15.199-39.488z"/><path d="m304.505 477.798c-.316-1.53-.614-3.093-.881-4.708-.567-3.415-1.284-6.721-2.129-9.916-10.028-4.184-19.639-9.826-26.409-14.173l-1.592-1.022v2.61c0 1.667-.854 3.176-2.285 4.034-1.43.858-3.162.901-4.634.117-4.474-2.386-9.536-3.147-14.389-2.293 6.646 10.757 12.404 23.85 15.147 39.191.738-.55 1.365-1.253 1.812-2.092 7.958-14.939 22.852-13.395 30.699-11.298 1.609.43 3.255.236 4.661-.45z"/><path d="m159.483 448.111 4.714-12.505c3.861-4.289 9.748-7.686 18.353-5.692 15.55 3.603 38.856 11.41 56.407 7.638v11.428c-14.606 9.528-41.116 24.44-58.687 20.37-23.052-5.342-20.787-21.239-20.787-21.239z"/></g><path d="m238.957 437.551v11.429c-7.428 4.845-17.934 11.078-28.777 15.503-.916-1.229-1.328-2.822-.972-4.439 1.933-8.786-1.671-15.831-4.906-20.094-1.096-1.444-1.398-3.252-.958-4.872 11.961 2.749 24.865 4.783 35.613 2.473z" fill="#30144a"/><g><path d="m163.987 389.777c11.476-13.316 38.317-10.486 56.635 9.459 6.609 7.195 12.938 12.229 18.334 15.73v23.732c-17.168 3.838-40.104-3.863-55.374-7.401-17.804-4.125-23.692 15.38-24.078 16.735 9.486-32.708-6.984-44.95 4.483-58.255z" fill="#543e5b"/></g><path d="m205.234 432.223c14.058-10.965 8.875-29.712 5.406-38.4-.453-1.134-.508-2.332-.234-3.439 3.579 2.44 7.029 5.38 10.217 8.852 6.609 7.195 12.938 12.229 18.335 15.73v23.732c-10.768 2.407-23.804.275-35.795-2.522.094-1.503.791-2.954 2.071-3.953z" fill="#422953"/><path d="m352.625 448.111-4.714-12.505c-3.861-4.289-9.748-7.686-18.353-5.692-15.55 3.603-38.856 11.41-56.407 7.638v11.428c14.606 9.528 41.116 24.44 58.687 20.37 23.051-5.342 20.787-21.239 20.787-21.239z" fill="#422953"/><path d="m273.15 437.551v11.429c7.427 4.845 17.933 11.078 28.776 15.503.916-1.229 1.328-2.822.972-4.439-1.933-8.786 1.671-15.831 4.906-20.094 1.096-1.444 1.398-3.252.958-4.872-11.959 2.749-24.864 4.783-35.612 2.473z" fill="#30144a"/><g><path d="m348.12 389.777c-11.476-13.316-38.317-10.486-56.635 9.459-6.609 7.195-12.938 12.229-18.334 15.73v23.732c17.168 3.838 40.104-3.863 55.374-7.401 17.804-4.125 23.692 15.38 24.078 16.735-9.485-32.708 6.985-44.95-4.483-58.255z" fill="#543e5b"/></g><path d="m306.873 432.223c-14.058-10.965-8.875-29.712-5.405-38.4.453-1.134.508-2.332.234-3.439-3.579 2.44-7.029 5.38-10.217 8.852-6.608 7.195-12.938 12.229-18.334 15.73v23.732c10.768 2.407 23.804.275 35.795-2.522-.096-1.503-.792-2.954-2.073-3.953z" fill="#422953"/><path d="m266.282 408.818c-.423.102-9.038 5.551-19.555.438l-.901-.438c-3.811-1.853-8.246.922-8.246 5.16v36.612c0 4.331 4.615 7.101 8.437 5.063 6.273-3.345 13.801-3.345 20.074 0 3.822 2.038 8.437-.731 8.437-5.063v-36.612c0-4.238-4.435-7.013-8.246-5.16z" fill="#665364"/><g><path d="m256.428 448.854v-33.141c0-1.995 1.091-3.625 2.619-4.501-3.368.5-7.655.311-12.32-1.957l-.901-.438c-3.811-1.853-8.246.922-8.246 5.16v36.612c0 4.331 4.616 7.101 8.437 5.063 4.05-2.16 8.622-2.916 13.043-2.287-1.534-.872-2.632-2.503-2.632-4.511z" fill="#543e5b"/></g></g></svg>