<svg id="Layer_1" enable-background="new 0 0 512 512" height="512" viewBox="0 0 512 512" width="512" xmlns="http://www.w3.org/2000/svg"><g><path d="m489.854 263.953c.084-2.642.142-5.291.142-7.953 0-135.309-109.689-244.998-244.998-244.998-51.962 0-100.135 16.19-139.779 43.782l-28.66 209.169z" fill="#c15655"/><path d="m61.905 370.904-5.658 41.294c44.938 54.243 112.808 88.8 188.751 88.8 93.781 0 175.242-52.701 216.418-130.094z" fill="#81c66d"/><path d="m56.247 412.198c38.719 46.736 94.469 78.835 157.731 86.83 45.469-10.132 91.112-50.646 16.177-63.078-68.158-11.307-45.775-39.882-36.459-49.063 1.608-1.585 1.614-4.14.09-5.805-3.312-3.619-4.525-7.075-4.559-10.179h-127.322z" fill="#5aab5f"/><path d="m209.985 135.546c-1.179-6.87-4.701-13.374-10.458-18.205-5.77-4.842-12.805-7.181-19.79-7.138-4.261.026-8.207-2.283-10.32-5.984-3.456-6.053-8.991-10.96-16.055-13.532-7.063-2.571-14.456-2.369-20.995.045-4.013 1.482-8.524.686-11.789-2.079-5.318-4.505-12.197-7.224-19.713-7.224s-14.395 2.718-19.712 7.223c-3.265 2.765-7.775 3.561-11.789 2.078-1.336-.493-2.71-.889-4.108-1.193-1.143 1.234-2.255 2.496-3.374 3.753l-25.56 34.352c-2.09 3.391-4.124 6.821-6.05 10.319h11.212 169.213c-.313-.771-.568-1.573-.712-2.415z" fill="#81c66d"/><path d="m41.484 137.964h63.347c-.344-.911-.964-1.682-1.965-2.244-9.274-5.207-2-12.898-2-12.898l-18.17-35.383c-.526.391-1.043.793-1.543 1.216-3.265 2.765-7.775 3.561-11.789 2.078-1.336-.493-2.71-.889-4.108-1.193-1.143 1.234-2.255 2.496-3.374 3.753l-25.56 34.352c-2.09 3.391-4.124 6.821-6.05 10.319z" fill="#5aab5f"/><path d="m61.797 93.352c6.601-7.429 13.645-14.453 21.093-21.033.965 4.745 1.142 10.057.279 15.657-.464 3.008-2.879 5.339-5.897 5.731-3.936.513-9.735.841-15.475-.355z" fill="#5aab5f"/><path d="m140.335 52.034c9.746 1.232 18.164-1.12 22.399-2.673 1.056-.387 2.075.657 1.666 1.705-3.81 9.755-4.338 19.993-4.338 19.993-2.03 24.114-24.507 23.967-34.639 22.649-3.019-.393-5.434-2.723-5.898-5.731-3.196-20.74 7.777-37.59 20.81-35.943z" fill="#81c66d"/><path d="m157.669 80.814c-.933-.242-1.922-.465-2.986-.661-27.207-5.024-17.784-28.121-17.784-28.121-11.444 1.404-20.284 17.059-17.374 35.945.464 3.008 2.879 5.338 5.897 5.731 8.52 1.108 25.767 1.383 32.247-12.894z" fill="#5aab5f"/><path d="m3.207 295.632h65.566c8.625 0 16.1 5.971 18.006 14.382 16.282 71.833 15.081 66.862 15.552 68.019h-69.823c-14.398-25.018-24.489-52.824-29.301-82.401z" fill="#bec8f7"/><path d="m32.508 378.032h69.823c-.47-1.156.731 3.814-15.551-68.019-1.906-8.411-9.382-14.382-18.006-14.382h-19.112l1.104 6.518s4.332 7.829-6.023 10.678c-6.254 1.721-15.333 27.326-21.544 47.337 2.867 6.096 5.967 12.06 9.309 17.868z" fill="#a4b3ea"/><path d="m326.315 309.227c2.194-8.028 9.488-13.595 17.81-13.595h87.806c8.624 0 16.1 5.971 18.006 14.382 16.282 71.833 15.081 66.862 15.552 68.019h-158.06z" fill="#bec8f7"/><path d="m397.498 378.032c-.022-.04-.033-.084-.056-.123l-14.816-25.465c-.449-.772-1.169-1.347-2.011-1.645-6.376-2.256-6.471-8.312-5.821-12.115.301-1.756-.63-3.515-2.301-4.132-9.211-3.399-8.98-11.958-7.937-16.973.38-1.828-.608-3.725-2.376-4.323-4.389-1.484-4.16-5.943-3.524-8.739.342-1.502-.313-3.055-1.602-3.9l-7.603-4.987h-5.328c-8.322 0-15.616 5.567-17.81 13.595l-18.886 68.805h90.071z" fill="#a4b3ea"/><path d="m106.324 54.018c5.769 2.871 8.678 10.119 5.481 16.478l-4.856 9.657c-1.671-1.334-3.784-2.138-6.084-2.138s-4.413.804-6.084 2.138l-4.856-9.657c-.538-1.071-.899-2.167-1.107-3.263 5.628-4.66 11.472-9.065 17.506-13.215z" fill="#fcf4d9"/><path d="m89.926 105.078 4.856-9.657c1.671 1.334 3.784 2.138 6.084 2.138s4.413-.804 6.084-2.138l4.856 9.657c4.094 8.143-1.825 17.745-10.939 17.745s-15.035-9.603-10.941-17.745z" fill="#fceca9"/><path d="m110.637 87.787c0-4.127-2.576-7.657-6.202-9.087l5.935-9.032c5.005-7.617 16.28-7.292 20.837.602 4.557 7.893-.799 17.82-9.898 18.346l-10.792.623c.071-.475.12-.957.12-1.452z" fill="#fcf4d9"/><path d="m80.422 86.958 10.792-.623c-.071.475-.12.957-.12 1.452 0 4.127 2.576 7.657 6.202 9.087l-5.935 9.032c-5.005 7.617-16.28 7.292-20.837-.601-4.557-7.894.799-17.821 9.898-18.347z" fill="#f4d99d"/><path d="m110.637 87.787c0-.495-.049-.977-.12-1.452l10.792.623c9.099.526 14.455 10.453 9.898 18.346s-15.832 8.218-20.837.601l-5.935-9.032c3.626-1.429 6.202-4.959 6.202-9.086z" fill="#fcf4d9"/><path d="m89.04 67.047c.863.736 1.652 1.602 2.321 2.621l5.935 9.032c-3.626 1.43-6.202 4.96-6.202 9.087 0 .494.049.977.12 1.452l-10.792-.623c-4.007-.232-7.286-2.287-9.314-5.188 5.703-5.748 11.685-11.219 17.932-16.381z" fill="#fceca9"/><path d="m182.686 74.675c7.893 4.557 8.219 15.832.602 20.837l-9.034 5.936c-.78-1.991-2.208-3.744-4.2-4.894s-4.223-1.51-6.338-1.19l.623-10.791c.527-9.099 10.454-14.455 18.347-9.898z" fill="#fcf4d9"/><path d="m147.049 114.521 9.034-5.935c.78 1.991 2.208 3.743 4.2 4.894 1.992 1.15 4.223 1.51 6.338 1.19l-.623 10.791c-.526 9.099-10.453 14.455-18.346 9.897-7.894-4.557-8.22-15.832-.603-20.837z" fill="#fceca9"/><path d="m173.631 109.903c2.064-3.575 1.598-7.92-.827-10.971l9.656-4.855c8.143-4.094 17.744 1.825 17.745 10.939 0 9.114-9.602 15.033-17.745 10.94l-9.658-4.856c.298-.376.582-.769.829-1.197z" fill="#fcf4d9"/><path d="m147.878 94.077 9.658 4.856c-.299.376-.583.769-.83 1.197-2.064 3.574-1.598 7.92.827 10.971l-9.656 4.855c-8.143 4.094-17.745-1.825-17.745-10.939.001-9.114 9.603-15.034 17.746-10.94z" fill="#f4d99d"/><path d="m173.631 109.903c.247-.428.446-.87.622-1.317l9.035 5.936c7.617 5.005 7.292 16.28-.601 20.837s-17.82-.799-18.346-9.898l-.624-10.789c3.855.574 7.851-1.195 9.914-4.769z" fill="#fcf4d9"/><path d="m147.651 74.675c7.893-4.557 17.821.799 18.346 9.897l.623 10.789c-3.855-.574-7.851 1.194-9.915 4.769-.247.428-.446.871-.622 1.318l-9.035-5.936c-7.616-5.005-7.29-16.28.603-20.837z" fill="#fceca9"/><path d="m54.08 135.358c-7.153 4.13-15.977.119-17.96-7.442 3.741-6.087 7.738-11.999 11.981-17.719l6.581 4.324c7.617 5.005 7.291 16.28-.602 20.837z" fill="#fceca9"/><path d="m53.853 115.956-7.282-3.661c4.839-6.671 10.006-13.086 15.478-19.226 5.268 1.208 9.549 5.863 9.549 11.948 0 9.114-9.602 15.033-17.745 10.939z" fill="#fcf4d9"/><path d="m323.549 210.438c6.246 6.74 14.72 10.979 23.858 11.941l119.704 15.591c11.788 1.241 21.283 10.226 23.173 21.928l7.288 45.128c.759 4.7 2.491 9.19 5.086 13.182 3.605 5.546 5.523 12.017 5.523 18.632v22.509c-1.104-.63-2.378-.995-3.74-.995h-43.79c-1.905 0-3.64.71-4.969 1.873l-10.145-44.755c-1.766-7.791-8.69-13.321-16.678-13.321h-81.329c-7.708 0-14.464 5.157-16.496 12.592l-12.219 44.702h-224.419l-9.967-43.974c-1.766-7.791-8.69-13.321-16.678-13.321h-63.392c-2.849-14.949-4.359-30.372-4.359-46.15 0-43.715 11.462-84.748 31.526-120.279h176.901c41.37 0 94.074 52.002 115.122 74.717z" fill="#543e5b"/><path d="m191.471 355.693c-5.584-3.862-5.145-13.516-5.145-13.516s0-44.25 0-55.5c0-7.9 3.544-11.874 5.654-13.54.982-.776 1.532-1.972 1.532-3.224v-12.03c0-1.295-.62-2.501-1.636-3.304-8.15-6.444-6.285-13.669-3.967-17.951 1.077-1.989.373-4.412-1.558-5.589-7.398-4.513-7.212-13.111-7.212-13.111s0-37 0-46c0-5.25 3.29-8.897 6.032-11.024 1.721-1.335 2.063-3.805.847-5.613-5.194-7.727-1.438-14.494 1.056-17.661.444-.564.706-1.224.805-1.908-41.699 0-110.524 0-156.354 0-20.063 35.53-31.525 76.563-31.525 120.278 0 15.778 1.51 31.201 4.359 46.149h63.391c7.988 0 14.913 5.53 16.678 13.321l9.967 43.974h98.963c.071-1.427-.6-2.861-1.887-3.751z" fill="#422953"/><path d="m275.033 230.667 39.421 15.537.721-.455.69 1.012.595.234-.306.19 10.36 15.185c2.401 3.52 3.686 7.681 3.686 11.942v43.471l.002.002-11.387 41.66h-180.234v-2.183-124.412l.257-2.183z" fill="#422953"/><path d="m191.471 355.693c-5.584-3.862-5.145-13.516-5.145-13.516s0-44.25 0-55.5c0-7.9 3.544-11.874 5.654-13.54.982-.776 1.532-1.972 1.532-3.224v-12.03c0-1.295-.62-2.501-1.636-3.304-8.15-6.444-6.285-13.669-3.967-17.951 1.077-1.989.373-4.412-1.558-5.589-.192-.117-.359-.248-.541-.371h-46.972l-.257 2.183v124.412 2.183h54.777c.071-1.429-.6-2.863-1.887-3.753z" fill="#30144a"/><g><path d="m471.624 344.348c2.095 0 4.19-.799 5.788-2.397l12.343-12.343c3.197-3.197 3.197-8.379 0-11.576-3.196-3.195-8.379-3.195-11.575 0l-12.343 12.342c-3.197 3.197-3.197 8.379 0 11.576 1.597 1.598 3.692 2.398 5.787 2.398z" fill="#7c6b7b"/></g><ellipse cx="386.459" cy="366.046" fill="#422953" rx="56.257" ry="56.257" transform="matrix(.987 -.16 .16 .987 -53.644 66.63)"/><path d="m421.43 408.463c-11.777-1.904-12.803-10.672-12.359-15.763.164-1.881-1.069-3.645-2.914-4.044-6.878-1.486-8.035-7.229-8.229-9.262-.05-.525-.22-1.029-.485-1.485l-14.816-25.465c-.449-.772-1.169-1.347-2.011-1.645-6.376-2.256-6.471-8.312-5.821-12.115.301-1.756-.63-3.515-2.301-4.132-9.211-3.399-8.98-11.958-7.937-16.973.228-1.097-.044-2.213-.674-3.063-19.827 8.699-33.682 28.491-33.682 51.53 0 31.07 25.188 56.257 56.257 56.257 13.854 0 26.53-5.018 36.333-13.322-.413-.252-.87-.439-1.361-.518z" fill="#30144a"/><path d="m26.465 309.789c-6.933 0-13.568 1.261-19.7 3.555 3.207 13.371 7.527 26.305 12.826 38.721l14.188 28.089c6.875 11.672 14.677 22.733 23.329 33.062 15.414-10.034 25.614-27.406 25.614-47.17 0-31.07-25.187-56.257-56.257-56.257z" fill="#30144a"/><path d="m293.286 213.793c-7.421 0-13.493 6.071-13.493 13.492v5.564h-141.212l8.731-74.211h61.115c19.541 0 52.578 21.265 86.532 55.155z" fill="#66e9ff"/><path d="m186.352 231.038c-7.398-4.513-7.212-13.111-7.212-13.111s0-37 0-46c0-5.25 3.29-8.897 6.032-11.024.755-.586 1.227-1.394 1.437-2.264h-39.296l-8.73 74.211h49.414c-.349-.724-.905-1.36-1.645-1.812z" fill="#23c5ed"/><path d="m112.017 229.834 11.072-94.113h26.92l-11.427 97.129v41.607h-16.671c-5.66 0-10.249-4.589-10.249-10.249v-28.322c0-2.023.118-4.044.355-6.052z" fill="#543e5b"/><path d="m305.332 384h-198.285c-4.144 0-7.736-2.869-8.652-6.91l-4.494-19.828h225.512l-5.523 20.206c-1.055 3.857-4.559 6.532-8.558 6.532z" fill="#e9efff"/><path d="m98.395 377.09c.916 4.041 4.508 6.91 8.652 6.91h87.867c.008-1.04-.37-2.088-1.128-2.917-7.236-7.906-4.47-15.044-1.224-19.401 1.005-1.349 1.028-3.044.291-4.42h-98.952z" fill="#dae2fe"/><g><path d="m171.322 272.138h22.191c4.52 0 8.185-3.664 8.185-8.185s-3.665-8.185-8.185-8.185h-22.191c-4.52 0-8.185 3.664-8.185 8.185s3.664 8.185 8.185 8.185z" fill="#e9efff"/></g><path d="m17.965 189.419h14.071c1.745 0 3.16-1.414 3.16-3.159v-16.276c0-6.744 5.183-12.548 11.92-12.865 7.193-.339 13.131 5.393 13.131 12.511v16.629c0 1.745 1.415 3.159 3.16 3.159h14.07c6.745 0 12.548 5.183 12.865 11.921.338 7.193-5.393 13.13-12.511 13.13h-14.426c-1.745 0-3.16 1.414-3.16 3.159v48.379c0 6.745-5.183 12.548-11.92 12.865-7.193.339-13.131-5.393-13.131-12.511v-48.733c0-1.745-1.415-3.159-3.16-3.159h-14.423c-7.118 0-12.85-5.937-12.512-13.13.318-6.737 6.121-11.92 12.866-11.92z" fill="#ffdd40"/><path d="m460.652 357.262h43.789c4.175 0 7.559 3.384 7.559 7.559v12.167c0 4.174-3.384 7.558-7.559 7.558h-43.789c-4.175 0-7.559-3.384-7.559-7.558v-12.168c0-4.174 3.384-7.558 7.559-7.558z" fill="#e9efff"/><path d="m482.546 376.987v-12.167c0-4.174 3.384-7.559 7.559-7.559h-29.454c-4.174 0-7.559 3.384-7.559 7.559v12.167c0 4.174 3.384 7.558 7.559 7.558h29.454c-4.174 0-7.559-3.384-7.559-7.558z" fill="#dae2fe"/><path d="m445.464 259.86h45.459c3.841 0 7.089 2.841 7.6 6.648l3.033 22.586c.618 4.6-2.96 8.69-7.6 8.69h-22.788c-5.305 0-10.278-2.579-13.335-6.914l-16.392-23.251c-2.299-3.261.033-7.759 4.023-7.759z" fill="#66e9ff"/><path d="m292.195 212.702h24.267c7.421 0 13.492 6.071 13.492 13.492v7.308c0 7.42-6.072 13.492-13.492 13.492h-24.267c-7.421 0-13.492-6.072-13.492-13.492v-7.308c-.001-7.421 6.071-13.492 13.492-13.492z" fill="#7c6b7b"/><path d="m304.577 233.503v-7.309c0-7.149 5.64-13.03 12.688-13.451-.267-.016-.533-.041-.804-.041h-24.267c-7.421 0-13.493 6.071-13.493 13.492v7.309c0 7.42 6.072 13.492 13.493 13.492h24.267c.271 0 .537-.025.804-.041-7.048-.422-12.688-6.302-12.688-13.451z" fill="#543e5b"/><ellipse cx="386.459" cy="366.046" fill="#dae2fe" rx="24.301" ry="24.301" transform="matrix(.987 -.16 .16 .987 -53.644 66.631)"/><path d="m384.848 361.316c0 3.274 2.654 5.929 5.929 5.929 3.274 0 5.929-2.654 5.929-5.929 0-3.274-2.654-5.929-5.929-5.929s-5.929 2.655-5.929 5.929z" fill="#e9efff"/><path d="m26.465 341.745c13.421 0 24.301 10.88 24.301 24.301 0 9.181-5.093 17.171-12.607 21.304-8.657-13.603-16-28.12-21.871-43.371 3.097-1.43 6.542-2.234 10.177-2.234z" fill="#dae2fe"/><g><path d="m353.973 366.047c0-17.913 14.573-32.486 32.486-32.486s32.486 14.573 32.486 32.486c0 17.912-14.573 32.485-32.486 32.485s-32.486-14.573-32.486-32.485zm16.37 0c0 8.886 7.23 16.115 16.116 16.115s16.116-7.229 16.116-16.115-7.23-16.116-16.116-16.116-16.116 7.229-16.116 16.116z" fill="#7c6b7b"/></g><path d="m406.156 388.656c-6.878-1.486-8.035-7.229-8.229-9.262-.05-.525-.22-1.029-.485-1.485l-.039-.068c-2.878 2.672-6.718 4.32-10.945 4.32-8.886 0-16.116-7.229-16.116-16.115 0-6.936 4.413-12.845 10.571-15.113-.1-.045-.195-.098-.298-.135-6.376-2.256-6.471-8.312-5.821-12.115.167-.976-.057-1.945-.566-2.726-11.867 4.842-20.256 16.501-20.256 30.089 0 17.912 14.573 32.485 32.486 32.485 8.409 0 16.081-3.212 21.855-8.472-.517-.692-1.262-1.21-2.157-1.403z" fill="#543e5b"/><path d="m58.951 366.047c0 12.012-6.558 22.514-16.277 28.135-3.084-4.506-6.016-9.123-8.8-13.839 5.165-2.688 8.707-8.082 8.707-14.296 0-8.886-7.229-16.116-16.116-16.116-2.553 0-4.96.613-7.108 1.674-2.131-5.023-4.087-10.136-5.886-15.324 3.982-1.745 8.375-2.72 12.993-2.72 17.914-.001 32.487 14.572 32.487 32.486z" fill="#422953"/><path d="m60.246 266.008v-48.379c0-.908.389-1.721 1.002-2.298h-.007c-32.314 0-27.139-26.686-27.139-26.686l-.009-.006c-.554.479-1.268.78-2.058.78h-14.07c-6.745 0-12.548 5.184-12.865 11.921-.338 7.193 5.394 13.13 12.512 13.13h14.424c1.745 0 3.16 1.415 3.16 3.159v48.733c0 7.119 5.938 12.85 13.131 12.511 6.736-.316 11.919-6.12 11.919-12.865z" fill="#ffc839"/><ellipse cx="100.865" cy="87.787" fill="#ffc839" rx="10.487" ry="10.487" transform="matrix(.23 -.973 .973 .23 -7.747 165.785)"/><path d="m98.348 85.38c0 2.495 2.022 4.518 4.517 4.518s4.517-2.022 4.517-4.518c0-2.495-2.023-4.517-4.517-4.517-2.495 0-4.517 2.022-4.517 4.517z" fill="#ffdd40"/><ellipse cx="165.169" cy="105.017" fill="#ffc839" rx="10.487" ry="10.487" transform="matrix(.23 -.973 .973 .23 25.013 241.639)"/><path d="m162.651 102.61c0 2.495 2.023 4.517 4.518 4.517s4.517-2.023 4.517-4.517c0-2.495-2.022-4.518-4.517-4.518s-4.518 2.023-4.518 4.518z" fill="#ffdd40"/><circle cx="483.889" cy="275.927" fill="#a0f1fe" r="9.25"/><circle cx="31.158" cy="361.951" fill="#e9efff" r="5.929"/><path d="m244.998 11.002c-.156 0-.311.004-.467.004-14.226 18.81-26.769 47.458-.847 73.379 40.402 40.402 134.301 142 231.138 86.568-34.569-93.384-124.419-159.951-229.824-159.951z" fill="#e1715a"/></g></svg>