<svg id="Layer_1" enable-background="new 0 0 512 512" height="512" viewBox="0 0 512 512" width="512" xmlns="http://www.w3.org/2000/svg"><g><path d="m62.04 117.331-47.087 193.689c12.128 66.845 51.379 124.231 105.937 160.369l319.731-43.34c37.595-43.063 60.377-99.392 60.377-161.047 0-135.309-109.689-244.998-244.998-244.998-78.944 0-149.154 37.348-193.96 95.327z" fill="#66e9ff"/><path d="m14.953 311.02h24.835c6.262 0 11.64-4.45 12.813-10.601l19.338-101.465c-2.47-1.765-4.088-4.648-4.088-7.908v-50.449c0-2 .608-3.859 1.647-5.406l-7.458-17.86c-31.991 41.397-51.038 93.306-51.038 149.671 0 15.028 1.36 29.738 3.951 44.018z" fill="#665364"/><path d="m476.164 145.156.001.003-47.634-114.071c-7.887-18.885-26.208-31.088-46.673-31.088h-206.07c-20.465 0-38.785 12.203-46.676 31.091l-43.468 104.096c1.041 1.548 1.65 3.409 1.65 5.411v50.449c0 3.262-1.62 6.146-4.092 7.911l21.358 112.062h348.525l25.714-134.92.371-1.942c1.873-9.782.833-19.811-3.006-29.002z" fill="#543e5b"/><path d="m256.078 307.871 18.087-195.241c.087-.939-.088-1.877-.497-2.727-1.633-3.386-5.494-13.396-.42-24.153 5.681-12.043-13.214-16.218-16.703-16.879-.383-.072-.759-.185-1.115-.344-7.037-3.141-7.398-7.191-6.565-9.923.583-1.913.089-3.991-1.403-5.321-7.956-7.093-5.531-16.171-3.333-21.021.807-1.78.59-3.909-.645-5.423-1.996-2.449-1.633-5.538-.879-7.857.629-1.937.083-4.096-1.468-5.416-4.65-3.957-3.581-8.438-2.227-11.131.387-.77.573-1.604.572-2.435h-63.694c-20.465 0-38.785 12.202-46.676 31.091l-43.468 104.096c1.041 1.548 1.65 3.409 1.65 5.411v50.449c0 3.262-1.62 6.146-4.092 7.911l21.358 112.062h150.516c.234-.673.453-1.228.618-1.622.205-.489.335-1 .384-1.527z" fill="#422953"/><path d="m455.658 153.722-47.633-114.07c-4.422-10.588-14.694-17.43-26.168-17.43h-206.07c-11.474 0-21.746 6.842-26.169 17.431l-47.632 114.067c-2.146 5.138-2.731 10.746-1.689 16.238l26.885 141.062h303.28l26.508-139.086.373-1.954c1.05-5.484.467-11.106-1.685-16.258z" fill="#bec8f7"/><path d="m256.078 307.871 18.087-195.241c.087-.939-.088-1.877-.497-2.727-1.633-3.386-5.494-13.396-.42-24.153 5.681-12.043-13.214-16.218-16.703-16.879-.383-.072-.759-.185-1.115-.344-7.037-3.141-7.398-7.191-6.565-9.923.583-1.913.089-3.991-1.403-5.321-7.956-7.093-5.531-16.171-3.333-21.021.807-1.78.59-3.909-.645-5.423-1.154-1.416-1.506-3.045-1.463-4.616h-66.233c-11.474 0-21.746 6.842-26.169 17.431l-47.632 114.067c-2.146 5.137-2.731 10.746-1.689 16.237l26.884 141.062h127.893c.234-.673.453-1.228.618-1.622.206-.489.336-1 .385-1.527z" fill="#a4b3ea"/><g><path d="m127.175 317.644c-3.117.001-5.893-2.209-6.498-5.384l-26.885-141.061c-1.284-6.77-.563-13.693 2.084-20.031l47.631-114.066c5.456-13.062 18.126-21.502 32.28-21.502h206.07c14.154 0 26.825 8.44 32.279 21.5l47.633 114.07c2.655 6.356 3.374 13.291 2.078 20.056l-26.88 141.035c-.685 3.593-4.149 5.955-7.746 5.266-3.593-.685-5.951-4.152-5.266-7.746l26.881-141.042c.806-4.206.359-8.515-1.29-12.464l-47.633-114.07c-3.389-8.115-11.262-13.359-20.057-13.359h-206.07c-8.795 0-16.668 5.244-20.058 13.36l-47.631 114.066c-1.645 3.938-2.092 8.244-1.294 12.452l26.883 141.055c.685 3.593-1.673 7.061-5.266 7.746-.416.081-.834.119-1.245.119z" fill="#7c6b7b"/></g><path d="m143.507 37.102-47.631 114.066c-2.647 6.337-3.368 13.261-2.084 20.03l26.884 141.062c.605 3.174 3.382 5.385 6.498 5.384.411 0 .829-.038 1.247-.118 3.593-.685 5.951-4.152 5.266-7.746l-26.884-141.055c-.798-4.208-.351-8.514 1.294-12.453l47.633-114.066c3.39-8.116 11.263-13.36 20.058-13.36h68.673c-.171-.724-.493-1.414-.977-2.007-1.996-2.449-1.633-5.538-.879-7.857.365-1.123.323-2.316-.069-3.381h-66.748c-14.154-.001-26.825 8.439-32.281 21.501z" fill="#543e5b"/><path d="m161.115 311.02h235.414l26.959-141.453c.544-2.857.237-5.811-.883-8.495l-40.253-96.397c-2.306-5.523-7.706-9.12-13.691-9.12h-179.677c-5.986 0-11.385 3.596-13.691 9.12l-40.253 96.397c-1.121 2.684-1.428 5.638-.883 8.495z" fill="#dae2fe"/><path d="m256.078 307.871 18.087-195.241c.087-.939-.088-1.877-.497-2.727-1.633-3.386-5.494-13.396-.42-24.153 5.681-12.043-13.214-16.218-16.703-16.879-.383-.072-.759-.185-1.115-.344-7.037-3.141-7.398-7.191-6.565-9.923.31-1.016.306-2.076.02-3.048h-59.901c-5.985 0-11.385 3.597-13.691 9.12l-40.253 96.397c-1.121 2.684-1.428 5.638-.884 8.495l26.959 141.453h93.96c.234-.673.453-1.228.618-1.622.206-.49.336-1.001.385-1.528z" fill="#bec8f7"/><path d="m365.395 227.295h-174.192c-5.432 0-9.877-4.445-9.877-9.877v-124.761c0-5.432 4.444-9.877 9.877-9.877h174.191c5.432 0 9.877 4.445 9.877 9.877v124.762c0 5.432-4.444 9.876-9.876 9.876z" fill="#e9efff"/><path d="m274.189 82.781h-82.986c-5.432 0-9.877 4.444-9.877 9.876v124.762c0 5.432 4.445 9.876 9.877 9.876h72.339l10.623-114.666c.087-.939-.088-1.877-.497-2.727-1.633-3.386-5.494-13.396-.42-24.153.495-1.049.793-2.035.941-2.968z" fill="#dae2fe"/><g><path d="m346.268 185.574c-.919-9.424-11.762-11.359-12.026-20.874-.004-.15 0-.298.002-.446h-111.647c.001.148.006.296.002.446-.263 9.515-11.106 11.45-12.026 20.874-.553 5.664 2.884 10.252 5.963 13.68 3.079 3.429 6.5 8.065 5.902 13.718-.673 6.358-5.915 9.131-8.03 14.745-2.187 5.806-.404 13.487 2.883 17.999 3.288 4.513 7.715 6.605 11.988 8.569h47.913 2.455 47.913c4.273-1.964 8.701-4.056 11.988-8.569 3.288-4.512 5.07-12.194 2.883-17.999-2.115-5.614-7.357-8.387-8.03-14.745-.599-5.653 2.823-10.289 5.902-13.718 3.081-3.428 6.517-8.016 5.965-13.68z" fill="#665364"/></g><path d="m339.549 245.717c3.288-4.512 5.07-12.193 2.883-17.999-2.115-5.614-7.356-8.387-8.03-14.745-17.428 8.389-21.604-7.632-21.604-7.632l-4.206-41.086h-85.996c.001.148.006.296.002.446-.263 9.515-11.107 11.45-12.026 20.874-.553 5.664 2.884 10.251 5.963 13.681 3.079 3.429 6.5 8.065 5.902 13.718-.673 6.357-5.915 9.13-8.03 14.745-2.187 5.806-.404 13.487 2.883 17.999 3.287 4.513 7.715 6.605 11.988 8.569h47.913 2.455 47.913c4.275-1.965 8.702-4.057 11.99-8.57z" fill="#543e5b"/><path d="m207.465 311.14c3.045-9.518 9.917-17.252 18.18-21.737 12.044-6.537 30.304-11.023 48.901 4.728 2.402 2.035 5.904 2.033 8.31-.003 18.959-16.053 37.446-11.316 49.616-4.515 8.084 4.518 14.705 12.194 17.678 21.527h44.057c-.918-16.197-2.289-29.964-4.833-35.052-8.95-17.9-24.658-22.898-31.815-24.273-.076-.013-17.587-.873-31.622-6.309-6.265-2.428-10.685-5.344-12.793-6.572-10.663-7.764-10.369-15.62-10.369-23.234-5.807 5.191-15.698 11.778-23.953 12.179-8.256-.401-18.147-6.988-23.954-12.179 0 7.614.294 15.47-10.369 23.234-2.108 1.228-6.528 4.144-12.793 6.572-14.034 5.436-31.545 6.296-31.622 6.309-7.157 1.374-22.865 6.373-31.815 24.273-2.544 5.088-3.915 18.855-4.833 35.052z" fill="#fcad6d"/><path d="m278.125 227.816c-8.11-.719-17.611-7.068-23.256-12.115 0 7.614.294 15.47-10.369 23.234-2.107 1.228-6.528 4.144-12.793 6.572-14.034 5.436-31.545 6.296-31.622 6.309-7.157 1.374-22.865 6.373-31.815 24.273-2.544 5.088-3.915 18.855-4.833 35.052h44.028c3.045-9.518 9.917-17.252 18.18-21.737 2.543-1.381 5.367-2.667 8.409-3.693v-1.046c36.831-9.613 43.063-43.417 44.071-56.849z" fill="#fd995b"/><path d="m231.689 140.788c.688-2.249 1.612-4.174 2.842-5.559 1.113-1.253 1.725-2.717 1.77-4.234 0 0 4.888-22.272 23.42-23.427 0 0 12.569-2.397 23.662 15.814 9.202 15.106 30.971 20.227 42.397 17.492 2.499-1.588 6.716-2.495 9.632-1.451 0-13.27.001-18.678.001-20.659 0-.72 0-.989 0-1.018 0-28.75-23.029-53.18-56.608-53.18-33.38 0-56.608 24.35-56.608 53.18v21.677c2.862-1.025 6.978-.169 9.492 1.365z" fill="#665364"/><path d="m222.197 117.747v21.677c2.863-1.025 6.978-.17 9.493 1.364.688-2.249 1.612-4.174 2.841-5.559 1.113-1.253 1.725-2.717 1.77-4.234 0 0 4.888-22.272 23.42-23.427 0 0 6.595-1.251 14.446 4.975.068-.91-.102-1.817-.499-2.64-1.633-3.386-5.494-13.396-.42-24.153 5.681-12.043-13.214-16.218-16.703-16.879-.163-.031-.323-.073-.482-.118-20.721 8.159-33.866 27.307-33.866 48.994z" fill="#543e5b"/><path d="m334.149 138.05c-2.638-1.837-7.17-.117-9.016 1.473-.106.106-.201.208-.302.312 2.895 10.604 1.051 27.096.742 29.071-.015.067-.032.133-.047.201 5.451.372 9.446-2.878 9.446-7.666 0-1.572.141-3.14.417-4.688.898-5.044 5.368-14.1-1.24-18.703z" fill="#fcad6d"/><path d="m330.629 153.198c-1.533 0-2.976-.388-4.235-1.072.238 7.997-.619 15.489-.821 16.78-.015.067-.032.133-.047.2 5.45.373 9.446-2.878 9.446-7.666 0-1.572.141-3.14.417-4.688.306-1.719 1.027-3.904 1.583-6.22-1.614 1.644-3.858 2.666-6.343 2.666z" fill="#fd995b"/><path d="m232.045 168.948c-1.127-6.544-2.068-19.691.185-28.368-.31-.344-.637-.695-1-1.057-1.846-1.59-6.377-3.309-9.015-1.473-6.609 4.602-2.139 13.658-1.24 18.702.276 1.548.417 3.116.417 4.688 0 5.134 4.592 8.505 10.649 7.531 0 0 .005-.013.005-.019z" fill="#fcad6d"/><path d="m230.897 151.322c-1.506 1.172-3.394 1.877-5.45 1.877-2.301 0-4.39-.881-5.969-2.315.542 2.185 1.206 4.237 1.497 5.869.276 1.548.416 3.116.416 4.688 0 5.134 4.593 8.505 10.649 7.531 0 0 .005-.013.005-.019l-.001-.005c-.715-4.157-1.352-10.979-1.147-17.626z" fill="#fd995b"/><path d="m283.383 121.843c-11.093-18.211-23.662-15.814-23.662-15.814-18.532 1.154-23.42 23.427-23.42 23.427-.045 1.517-.657 2.981-1.77 4.235-6.132 6.91-4.789 27.097-3.358 35.408 3.168 13.984 7.757 26.177 13.638 36.243 5.97 10.218 15.012 18.164 26.147 22.982 4.988 2.157 10.706 2.157 15.693 0 11.135-4.818 20.177-12.764 26.147-22.982 5.88-10.062 10.469-22.256 13.644-36.268 1.096-6.97 2.245-20.885-.482-29.778-11.376 2.83-33.328-2.269-42.577-17.453z" fill="#f9ba8f"/><path d="m271.061 205.34c-5.881-10.065-10.47-22.258-13.638-36.243-1.431-8.311-2.774-28.499 3.358-35.408 1.113-1.253 1.725-2.717 1.77-4.234 0 0 2.617-11.882 11.25-18.738-7.689-5.901-14.08-4.689-14.08-4.689-18.532 1.154-23.42 23.427-23.42 23.427-.045 1.517-.657 2.981-1.77 4.234-6.132 6.91-4.789 27.097-3.358 35.408 3.168 13.984 7.757 26.178 13.638 36.243 5.97 10.218 15.012 18.165 26.147 22.982 4.988 2.157 10.706 2.158 15.693 0 1.819-.787 3.576-1.666 5.279-2.616-8.723-4.866-15.874-11.817-20.869-20.366z" fill="#fcad6d"/><path d="m351.25 311.14c-.106-.317-.214-.638-.333-.973-3.207-9.066-9.567-16.727-17.962-21.418-12.321-6.885-31.378-11.769-50.737 4.624-.983.832-2.23 1.295-3.518 1.295-1.286 0-2.532-.46-3.513-1.291-18.983-16.077-37.675-11.539-50.012-4.843-8.94 4.853-15.693 12.956-18.829 22.607h144.904z" fill="#665364"/><path d="m255.925 308.708c-18.19-5.415-16.121-25.527-16.119-25.544-5.458 1.047-10.416 3.082-14.632 5.37-8.94 4.853-15.693 12.957-18.83 22.607h51.144c.735-1.039.32-1.873-1.563-2.433z" fill="#543e5b"/><path d="m183.915 331h-75.547l12.522 140.39c21.081 13.964 44.45 24.749 69.419 31.686z" fill="#e1715a"/><path d="m373.73 331-5.719 153.924c27.685-14.261 52.312-33.625 72.61-56.875l8.656-97.05h-75.547z" fill="#f1935d"/><path d="m380.342 331h-203.039l8.536 170.787c22.229 6.633 45.776 10.213 70.161 10.213 42.281 0 82.06-10.71 116.773-29.566z" fill="#e1715a"/><path d="m185.839 501.787c22.229 6.633 45.776 10.213 70.161 10.213 6.158 0 12.261-.234 18.305-.681v-139.261c0-1.824-.956-3.533-2.541-4.436-14.954-8.52-12.752-24.492-10.775-31.808.465-1.72.01-3.554-1.174-4.815h-82.512z" fill="#c15655"/><path d="m450.859 308.708h-344.073c-7.3 0-12.796 6.643-11.43 13.814 1.046 5.487 5.844 9.457 11.43 9.457h344.073c5.586 0 10.384-3.97 11.43-9.457 1.366-7.171-4.131-13.814-11.43-13.814z" fill="#f9a880"/><path d="m255.925 308.708h-149.139c-7.3 0-12.797 6.644-11.43 13.814 1.046 5.487 5.844 9.457 11.43 9.457h153.751c-.36-.655-.866-1.232-1.51-1.67-8.854-6.003-4.586-17.925-3.332-20.911.094-.225.168-.456.23-.69z" fill="#f1935d"/><path d="m77.572 129.642c-6.051 0-10.956 4.905-10.956 10.956v50.449c0 6.051 4.905 10.956 10.956 10.956s10.956-4.905 10.956-10.956v-50.449c0-6.051-4.905-10.956-10.956-10.956z" fill="#bec8f7"/><path d="m66.616 153.076h21.912v25.492h-21.912z" fill="#e9efff"/><path d="m321.376 416.847h-25.469c-2.295 0-4.156-1.861-4.156-4.156v-31.294c0-6.961-5.35-12.951-12.303-13.278-7.424-.349-13.552 5.566-13.552 12.913v31.659c0 2.295-1.86 4.156-4.156 4.156h-25.469c-6.961 0-12.951 5.35-13.278 12.303-.349 7.424 5.566 13.552 12.913 13.552h25.834c2.295 0 4.156 1.861 4.156 4.156v64.938c8.744-.348 17.37-1.15 25.855-2.391v-62.548c0-2.295 1.861-4.156 4.156-4.156h25.834c7.347 0 13.262-6.128 12.913-13.552-.327-6.952-6.317-12.302-13.278-12.302z" fill="#c15655"/><path d="m283.661 429.15c.327-6.953 6.317-12.303 13.278-12.303h-1.032c-2.295 0-4.156-1.861-4.156-4.156v-31.294c0-6.961-5.35-12.951-12.303-13.278-7.424-.349-13.552 5.566-13.552 12.913v31.659c0 2.295-1.86 4.156-4.156 4.156h-25.469c-6.961 0-12.951 5.35-13.278 12.303-.349 7.424 5.566 13.552 12.913 13.552h25.834c2.295 0 4.156 1.86 4.156 4.155v64.939c8.744-.348 17.37-1.15 25.855-2.391v-62.548c0-2.295 1.861-4.155 4.156-4.155h.667c-7.347 0-13.262-6.128-12.913-13.552z" fill="#ad4949"/><path d="m52.601 300.419 11.96-62.752c-37.401 20.398-49.998-12.281-50.022-12.344-2.323 13.545-3.537 27.47-3.537 41.679 0 15.028 1.36 29.737 3.951 44.018h24.835c6.263 0 11.64-4.45 12.813-10.601z" fill="#543e5b"/></g></svg>