<svg id="Layer_1" enable-background="new 0 0 512 512" height="512" viewBox="0 0 512 512" width="512" xmlns="http://www.w3.org/2000/svg"><g><path d="m256 22.004c-135.309 0-244.998 109.689-244.998 244.998 0 87.155 45.516 163.67 114.067 207.1h261.862c68.551-43.43 114.067-119.945 114.067-207.1 0-135.308-109.69-244.998-244.998-244.998z" fill="#66e9ff"/><path d="m265.497 474.181c-4.806 6.215-14.188 6.215-18.993 0l-19.275-24.925c-44.549 2.722-82.182 11.647-103.737 23.846 38.202 24.612 83.685 38.898 132.508 38.898s94.306-14.286 132.508-38.898c-21.554-12.199-59.188-21.124-103.737-23.846z" fill="#81c66d"/><g><path d="m316.538 452.387c-10.069-1.396-20.704-2.455-31.767-3.131l-19.275 24.925c-4.806 6.215-14.188 6.215-18.993 0l-19.275-24.925c-44.549 2.722-82.183 11.647-103.737 23.846 38.203 24.612 83.687 38.898 132.509 38.898 19.732 0 38.917-2.336 57.298-6.741-18.853-12.128-17.289-42.953 3.24-52.872z" fill="#5aab5f"/></g><path d="m256 0c-154.098 0-240.985 177.026-146.717 298.927l137.221 177.445c4.806 6.215 14.187 6.215 18.993 0l137.221-177.445c94.267-121.901 7.38-298.927-146.718-298.927z" fill="#ff4155"/><path d="m265.497 476.372 112.968-146.083c-1.156-1.227-2.686-2.096-4.425-2.405-26.315-4.692-29.134-21.873-28.354-32.068.301-3.94-2.24-7.61-6.066-8.594-13.71-3.526-12.161-17.076-10.959-22.455.35-1.564.214-3.191-.369-4.683l-72.942-186.776c-.646-1.653-1.817-3.057-3.336-3.974-8.23-4.965-8.947-11.434-8.232-15.764.497-3.01-.627-6.058-3.059-7.9-20.56-15.574-14.461-32.482-9.945-40.17.731-1.246 1.089-2.63 1.115-4.015-138.758 17.28-211.841 182.055-122.61 297.442l137.221 177.445c4.805 6.215 14.187 6.215 18.993 0z" fill="#e80054"/><g><path d="m256 322.129c-75.46 0-136.851-61.392-136.851-136.851s61.391-136.851 136.851-136.851 136.851 61.391 136.851 136.85-61.391 136.852-136.851 136.852z" fill="#ff7186"/></g><path d="m343.928 290.055c-1.065-1.355-2.548-2.38-4.309-2.833-13.71-3.526-12.161-17.076-10.959-22.455.35-1.564.214-3.191-.369-4.683l-72.941-186.776c-.646-1.653-1.817-3.057-3.336-3.974-8.23-4.965-8.947-11.434-8.232-15.764.259-1.565.069-3.136-.504-4.547-69.517 6.44-124.128 65.085-124.128 136.254 0 75.46 61.391 136.851 136.851 136.851 33.449.001 64.127-12.069 87.927-32.073z" fill="#ff4155"/><ellipse cx="256" cy="185.277" fill="#e9efff" rx="106.526" ry="106.526" transform="matrix(.707 -.707 .707 .707 -56.03 235.286)"/><path d="m183.338 263.097c19.046 17.795 44.602 28.706 72.663 28.706 28.06 0 53.616-10.911 72.662-28.706z" fill="#543e5b"/><path d="m242.778 290.984c0-11.767 4.184-18.531 7.844-22.198 1.536-1.538 2.301-3.628 2.162-5.689h-69.446c16.007 14.956 36.614 25.047 59.44 27.887z" fill="#422953"/><path d="m297.153 70.565h-81.124c-17.655 0-32.1 14.445-32.1 32.1v160.982c.48.441.965.877 1.452 1.31h141.238c.89-.79 1.771-1.591 2.634-2.41v-159.882c0-17.655-14.445-32.1-32.1-32.1z" fill="#665364"/><path d="m251.998 260.302c-3.211-5.911.146-11.51 2.37-14.266 1.047-1.297 1.632-2.902 1.632-4.568v-10.822c0-1.386-.46-2.709-1.179-3.894-1.582-2.611-.675-5.13.195-6.618.645-1.103.983-2.353.983-3.631v-10.55c0-1.838-.69-3.621-1.966-4.944-5.529-5.732-2.087-11.504.281-14.293 1.097-1.292 1.685-2.934 1.685-4.63v-89.073c0-1.66-.591-3.258-1.625-4.556-4.789-6.005-3.15-11.325-1.131-14.571.636-1.022.967-2.165 1.036-3.321h-38.25c-17.655 0-32.1 14.445-32.1 32.1v160.982c.479.441.964.877 1.452 1.31h67.29c.31-1.553.122-3.19-.673-4.655z" fill="#543e5b"/><g><path d="m256 184.994c-5.899 0-10.682-4.782-10.682-10.682v-73.362c0-5.899 4.782-10.682 10.682-10.682 5.899 0 10.682 4.782 10.682 10.682v73.363c0 5.899-4.783 10.681-10.682 10.681z" fill="#7f6a7e"/></g><g><path d="m279.435 137.869h-46.87c-5.899 0-10.682-4.782-10.682-10.682s4.782-10.682 10.682-10.682h46.87c5.899 0 10.682 4.782 10.682 10.682s-4.783 10.682-10.682 10.682z" fill="#7f6a7e"/></g><g><path d="m270.263 218.768h-28.526c-4.424 0-8.011-3.587-8.011-8.011s3.587-8.011 8.011-8.011h28.526c4.424 0 8.011 3.587 8.011 8.011 0 4.425-3.586 8.011-8.011 8.011z" fill="#7f6a7e"/></g><g><path d="m277.553 244.255h-43.105c-4.424 0-8.011-3.587-8.011-8.011s3.587-8.011 8.011-8.011h43.105c4.424 0 8.011 3.587 8.011 8.011s-3.587 8.011-8.011 8.011z" fill="#7f6a7e"/></g></g></svg>