<?xml version="1.0" encoding="iso-8859-1"?>
<!-- Generator: Adobe Illustrator 19.0.0, SVG Export Plug-In . SVG Version: 6.00 Build 0)  -->
<svg version="1.1" id="Capa_1" xmlns="http://www.w3.org/2000/svg" xmlns:xlink="http://www.w3.org/1999/xlink" x="0px" y="0px"
	 viewBox="0 0 512 512" style="enable-background:new 0 0 512 512;" xml:space="preserve">
<path style="fill:#463F5B;" d="M511.998,256.001c0,135.784-105.712,246.866-239.311,255.455C267.17,511.822,261.601,512,256,512
	c-10.783,0-21.41-0.669-31.848-1.964c-30.479-3.783-59.298-12.915-85.483-26.446c-47.166-24.367-85.796-62.965-110.184-110.121
	C14.912,347.252,5.748,318.381,1.966,287.85c-1.296-10.428-1.964-21.065-1.964-31.848c0-5.527,0.178-11.003,0.522-16.436
	C8.998,105.84,120.143,0.003,256,0.003c41.158,0,80.049,9.707,114.499,26.969c49.496,24.795,89.85,65.17,114.604,114.687
	C502.312,176.078,511.998,214.906,511.998,256.001z"/>
<path style="fill:#FFDE56;" d="M503.305,245.134c9.864,9.853,9.864,25.84,0,35.704l-62.234,62.234
	c-7.784,7.795-21.243,3.856-23.374-6.949c-3.135-15.903-11.055-31.054-23.771-43.123c-31.19-29.612-80.76-29.539-111.877,0.136
	c-33.092,31.587-33.562,84.03-1.4,116.192c11.765,11.766,26.237,19.153,41.409,22.183c10.898,2.173,15.026,15.558,7.168,23.416
	l-56.539,56.529C267.17,511.822,261.601,512,256,512c-10.783,0-21.41-0.669-31.848-1.964l-64.104-64.094
	c-4.169-4.169-11.316-1.515-11.713,4.368c-0.784,11.515-4.002,22.883-9.665,33.28c-30.385-15.694-57.218-37.292-78.983-63.289
	c-12.037-14.357-22.517-30.051-31.2-46.832c10.407-5.674,21.796-8.902,33.322-9.686c5.883-0.397,8.537-7.555,4.368-11.724
	L1.966,287.85c-1.296-10.428-1.964-21.065-1.964-31.848c0-5.527,0.178-11.003,0.522-16.436l56.664-56.675
	c7.858-7.858,21.232-3.73,23.416,7.168c3.03,15.172,10.418,29.644,22.183,41.399c32.162,32.172,84.605,31.702,116.181-1.4
	c29.685-31.106,29.748-80.676,0.146-111.866c-12.079-12.716-27.219-20.637-43.123-23.771c-10.804-2.132-14.743-15.59-6.949-23.374
	l62.234-62.234c9.853-9.864,25.84-9.864,35.704,0l43.353,43.353l27.867,27.867c4.169,4.169,11.327,1.505,11.724-4.368
	c1.191-17.544,8.046-34.764,20.574-48.692c0.961-1.087,1.964-2.142,3.009-3.187c17.46-17.46,40.876-25.307,63.697-23.541
	c19.247,1.484,38.044,9.801,52.495,24.942c29.967,31.42,29.685,81.564-0.616,112.66c-1.296,1.327-2.623,2.602-3.981,3.814
	c-13.928,12.507-31.127,19.341-48.65,20.532c-5.883,0.397-8.537,7.555-4.368,11.713L503.305,245.134z"/>
<g>
	<path style="fill:#ED55A9;" d="M503.305,245.134c9.864,9.853,9.864,25.84,0,35.704l-62.234,62.234
		c-7.784,7.795-21.243,3.856-23.374-6.949c-3.135-15.903-11.055-31.054-23.771-43.123c-31.19-29.612-80.76-29.539-111.877,0.136
		c-33.092,31.587-33.562,84.03-1.4,116.192c11.765,11.766,26.237,19.153,41.409,22.183c10.898,2.173,15.026,15.558,7.168,23.416
		l-56.539,56.529C267.17,511.822,261.601,512,256,512c-10.783,0-21.41-0.669-31.848-1.964l-64.104-64.094
		c-4.169-4.169-11.316-1.515-11.713,4.368c-0.784,11.515-4.002,22.883-9.665,33.28c-30.385-15.694-57.218-37.292-78.983-63.289
		c9.352-32.287,30.5-71.126,78.241-79.38c84.636-14.628,191.215-55.379,221.517-204.799
		c13.103-64.616,45.359-107.739,77.761-135.878c19.247,1.484,38.044,9.801,52.495,24.942c29.967,31.42,29.685,81.564-0.616,112.66
		c-1.296,1.327-2.623,2.602-3.981,3.814c-13.928,12.507-31.127,19.341-48.65,20.532c-5.883,0.397-8.537,7.555-4.368,11.713
		L503.305,245.134z"/>
	<path style="fill:#ED55A9;" d="M310.334,52.164c-13.73,15.276-33.656,24.889-55.829,24.889c-24.91,0-46.989-12.142-60.646-30.824
		l37.418-37.418c9.853-9.864,25.84-9.864,35.704,0L310.334,52.164z"/>
</g>
<g>
</g>
<g>
</g>
<g>
</g>
<g>
</g>
<g>
</g>
<g>
</g>
<g>
</g>
<g>
</g>
<g>
</g>
<g>
</g>
<g>
</g>
<g>
</g>
<g>
</g>
<g>
</g>
<g>
</g>
</svg>
