<?xml version="1.0" encoding="iso-8859-1"?>
<!-- Generator: Adobe Illustrator 19.0.0, SVG Export Plug-In . SVG Version: 6.00 Build 0)  -->
<svg version="1.1" id="Capa_1" xmlns="http://www.w3.org/2000/svg" xmlns:xlink="http://www.w3.org/1999/xlink" x="0px" y="0px"
	 viewBox="0 0 511.999 511.999" style="enable-background:new 0 0 511.999 511.999;" xml:space="preserve">
<circle style="fill:#FFDE56;" cx="255.999" cy="255.999" r="255.999"/>
<path style="fill:#6B6889;" d="M450.344,24.869v397.771c-46.947,54.7-116.6,89.359-194.34,89.359s-147.393-34.659-194.34-89.359
	V24.869C61.663,11.139,72.792,0,86.532,0h338.943C439.205,0,450.344,11.139,450.344,24.869z"/>
<path style="fill:#463F5B;" d="M430.752,85.462v357.605c-3.197,2.988-6.468,5.893-9.812,8.704
	c-27.303,23.03-59.486,40.458-94.782,50.489c-19.874,5.653-40.72,8.955-62.244,9.613c-2.623,0.084-5.266,0.125-7.91,0.125
	c-2.654,0-5.287-0.042-7.92-0.125c-59.747-1.808-114.353-24.106-157.016-60.102c-3.344-2.811-6.614-5.716-9.812-8.704V85.462
	c0-8.192,6.635-14.827,14.827-14.827h319.843c0.899,0,1.776,0.084,2.623,0.24C425.486,72.108,430.752,78.169,430.752,85.462z"/>
<g>
	<path style="fill:#574D70;" d="M321.828,45.554h-131.65c-6.059,0-10.97-4.912-10.97-10.97l0,0c0-6.059,4.912-10.97,10.97-10.97
		h131.65c6.059,0,10.97,4.912,10.97,10.97l0,0C332.799,40.642,327.887,45.554,321.828,45.554z"/>
	<path style="fill:#574D70;" d="M326.158,502.26c-19.874,5.653-40.72,8.955-62.244,9.613c-2.623,0.084-5.266,0.125-7.91,0.125
		c-2.654,0-5.287-0.042-7.92-0.125c-59.747-1.808-114.353-24.106-157.016-60.102c-3.344-2.811-6.614-5.716-9.812-8.704V85.462
		c0-8.192,6.635-14.827,14.827-14.827h47.073C143.155,70.635,143.155,396.527,326.158,502.26z"/>
</g>
<polygon style="fill:#3FC0DD;" points="320.254,446.191 320.254,482.24 191.743,482.24 191.743,446.191 237.979,446.191 
	237.979,409.578 274.028,409.578 274.028,446.191 "/>
<g>
	<rect x="114.353" y="104.531" style="fill:#FFDE56;" width="36.833" height="36.833"/>
	<rect x="237.588" y="104.531" style="fill:#FFDE56;" width="36.833" height="36.833"/>
	<rect x="175.971" y="104.531" style="fill:#FFDE56;" width="36.833" height="36.833"/>
	<rect x="299.206" y="104.531" style="fill:#FFDE56;" width="36.833" height="36.833"/>
	<rect x="360.813" y="104.531" style="fill:#FFDE56;" width="36.833" height="36.833"/>
</g>
<g>
	<rect x="114.353" y="227.171" style="fill:#DD98F2;" width="36.833" height="36.833"/>
	<rect x="175.971" y="227.171" style="fill:#DD98F2;" width="36.833" height="36.833"/>
</g>
<g>
	<rect x="145.167" y="165.856" style="fill:#ED55A9;" width="36.833" height="36.822"/>
	<rect x="268.392" y="165.846" style="fill:#ED55A9;" width="36.833" height="36.833"/>
	<rect x="206.785" y="165.846" style="fill:#ED55A9;" width="36.833" height="36.833"/>
</g>
<g>
	<rect x="251.82" y="294.075" style="fill:#D6DFE8;" width="8.359" height="34.479"/>
	<rect x="251.82" y="351.9" style="fill:#D6DFE8;" width="8.359" height="34.479"/>
</g>
<path style="fill:#FFE584;" d="M147.815,141.364h-33.458v-36.833h30.208C145.255,114.928,146.279,127.373,147.815,141.364z"/>
<rect x="114.353" y="227.171" style="fill:#E6BDF9;" width="36.833" height="36.833"/>
<path style="fill:#F486C3;" d="M150.845,165.856c1.599,11.63,3.542,23.97,5.872,36.822h-11.546v-36.822H150.845z"/>
<g>
	<path style="fill:#ED55A9;" d="M256.003,234.091c-2.02,0-3.657-1.637-3.657-3.657v-14.106c0-2.02,1.637-3.657,3.657-3.657
		c2.02,0,3.657,1.637,3.657,3.657v14.106C259.66,232.454,258.022,234.091,256.003,234.091z"/>
	<path style="fill:#ED55A9;" d="M256.003,278.5c-2.02,0-3.657-1.637-3.657-3.657v-14.106c0-2.02,1.637-3.657,3.657-3.657
		c2.02,0,3.657,1.637,3.657,3.657v14.106C259.66,276.863,258.022,278.5,256.003,278.5z"/>
	<path style="fill:#ED55A9;" d="M285.261,249.243h-14.106c-2.02,0-3.657-1.637-3.657-3.657s1.637-3.657,3.657-3.657h14.106
		c2.02,0,3.657,1.637,3.657,3.657S287.281,249.243,285.261,249.243z"/>
	<path style="fill:#ED55A9;" d="M240.852,249.243h-14.106c-2.02,0-3.657-1.637-3.657-3.657s1.637-3.657,3.657-3.657h14.106
		c2.02,0,3.657,1.637,3.657,3.657S242.871,249.243,240.852,249.243z"/>
	<path style="fill:#ED55A9;" d="M276.692,269.931c-0.936,0-1.872-0.357-2.586-1.071l-9.974-9.974c-1.428-1.428-1.428-3.744,0-5.172
		c1.428-1.427,3.744-1.427,5.172,0l9.974,9.974c1.428,1.428,1.428,3.744,0,5.172C278.563,269.574,277.627,269.931,276.692,269.931z"
		/>
	<path style="fill:#ED55A9;" d="M245.289,238.529c-0.936,0-1.872-0.357-2.586-1.071l-9.974-9.974c-1.428-1.428-1.428-3.744,0-5.172
		c1.428-1.427,3.744-1.427,5.172,0l9.974,9.974c1.428,1.428,1.428,3.744,0,5.172C247.161,238.171,246.224,238.529,245.289,238.529z"
		/>
	<path style="fill:#ED55A9;" d="M235.316,269.931c-0.936,0-1.872-0.357-2.586-1.071c-1.428-1.428-1.428-3.744,0-5.172l9.974-9.974
		c1.428-1.427,3.744-1.427,5.172,0c1.428,1.428,1.428,3.744,0,5.172l-9.974,9.974C237.187,269.574,236.251,269.931,235.316,269.931z
		"/>
	<path style="fill:#ED55A9;" d="M266.717,238.529c-0.936,0-1.872-0.357-2.586-1.071c-1.428-1.428-1.428-3.744,0-5.172l9.974-9.974
		c1.428-1.427,3.744-1.427,5.172,0c1.428,1.428,1.428,3.744,0,5.172l-9.974,9.974C268.589,238.171,267.653,238.529,266.717,238.529z
		"/>
</g>
<path style="fill:#5DD5E5;" d="M296.765,482.24H191.743v-36.049h46.237v-27.794C254.509,442.398,273.945,464.174,296.765,482.24z"/>
<g>
</g>
<g>
</g>
<g>
</g>
<g>
</g>
<g>
</g>
<g>
</g>
<g>
</g>
<g>
</g>
<g>
</g>
<g>
</g>
<g>
</g>
<g>
</g>
<g>
</g>
<g>
</g>
<g>
</g>
</svg>
