<?xml version="1.0" encoding="iso-8859-1"?>
<!-- Generator: Adobe Illustrator 19.0.0, SVG Export Plug-In . SVG Version: 6.00 Build 0)  -->
<svg version="1.1" id="Capa_1" xmlns="http://www.w3.org/2000/svg" xmlns:xlink="http://www.w3.org/1999/xlink" x="0px" y="0px"
	 viewBox="0 0 512 512" style="enable-background:new 0 0 512 512;" xml:space="preserve">
<path style="fill:#ED55A9;" d="M512,256c0,2.058-0.021,4.117-0.073,6.165c-0.428,17.993-2.706,35.527-6.666,52.423c0,0,0,0,0,0.01
	c-1.014,4.336-2.142,8.631-3.385,12.873c-1.452,5.057-3.072,10.041-4.838,14.952c-11.463,31.974-29.111,61.001-51.503,85.64
	c-3.323,3.668-6.76,7.241-10.303,10.71c-34.388,33.74-78.263,57.835-127.248,67.939c-3.574,0.731-7.178,1.4-10.804,1.985h-0.01
	C283.763,510.871,270.022,512,256,512c-7.398,0-14.712-0.313-21.943-0.93c-6.343-0.533-12.612-1.306-18.808-2.299
	c-53.509-8.558-101.48-33.698-138.491-69.987c-12.946-12.706-24.545-26.749-34.565-41.953l-0.01-0.01
	c-13.939-21.117-24.827-44.408-32.047-69.266c-0.01-0.021-0.01-0.052-0.021-0.073C3.521,304.797,0,280.806,0,256
	c0-14.012,1.128-27.773,3.302-41.169c4.054-25.13,11.776-49.037,22.591-71.147C52.025,90.237,96.235,47.24,150.559,22.653
	c25.694-11.63,53.656-19.143,83.028-21.682C240.974,0.324,248.445,0,256,0C397.385,0,512,114.615,512,256z"/>
<path style="fill:#F486C3;" d="M465.643,209.643c0,1.685-0.017,3.372-0.06,5.049c-0.351,14.735-2.216,29.093-5.46,42.93
	c0,0,0,0,0,0.008c-0.83,3.551-1.754,7.068-2.772,10.542c-1.189,4.142-2.516,8.223-3.962,12.245
	c-9.386,26.184-23.839,49.954-42.176,70.133c-2.721,3.003-5.536,5.93-8.438,8.771c-28.161,27.63-64.091,47.362-104.206,55.637
	c-2.927,0.599-5.879,1.146-8.848,1.626h-0.008c-10.979,1.779-22.23,2.704-33.714,2.704c-57.16,0-108.963-22.873-146.784-59.958
	c-10.602-10.405-20.1-21.905-28.306-34.356l-0.008-0.008c-11.414-17.293-20.332-36.367-26.244-56.723
	c-0.008-0.017-0.008-0.043-0.017-0.06c-5.399-18.577-8.283-38.223-8.283-58.537c0-11.475,0.924-22.744,2.704-33.714
	c3.32-20.579,9.643-40.158,18.5-58.264c21.401-43.769,57.605-78.98,102.092-99.114c21.04-9.525,43.938-15.678,67.992-17.757
	C243.695,0.265,249.813,0,256,0C371.783,0,465.643,93.86,465.643,209.643z"/>
<path style="fill:#574D70;" d="M332.278,59.841v378.253c0,17.857-14.535,32.392-32.392,32.392s-32.392-14.535-32.392-32.392v-63.739
	c0-9.216-7.502-16.718-16.718-16.718c-9.216,0-16.718,7.502-16.718,16.718V511.07c-6.343-0.533-12.612-1.306-18.808-2.299V374.356
	c0-19.592,15.935-35.527,35.527-35.527s35.527,15.935,35.527,35.527v63.739c0,7.492,6.092,13.584,13.584,13.584
	c7.492,0,13.584-6.092,13.584-13.584V59.841c0-13.249-10.783-24.033-24.033-24.033s-24.033,10.783-24.033,24.033v77.322h-18.808
	V59.841c0-23.625,19.216-42.841,42.841-42.841C313.062,17,332.278,36.216,332.278,59.841z"/>
<path style="fill:#D6DFE8;" d="M501.875,327.471c-1.452,5.057-3.072,10.041-4.838,14.952c-13.166,36.739-34.503,69.58-61.806,96.35
	c-32.486-20.177-70.875-76.507-97.395-125.471v-0.01c-9.31-17.168-27.303-27.815-46.843-27.815h-69.977
	c-19.54,0-37.543,10.647-46.843,27.826c-26.52,48.974-64.93,105.315-97.416,125.482c-30.939-30.344-54.199-68.483-66.623-111.229
	c-1.473-52.955,4.305-108.816,11.076-133.172c11.713-42.172,50.061-69.757,91.805-69.663v-0.021h53.551
	c0.867,0,1.714-0.052,2.56-0.146c2.894-0.313,5.674-1.181,8.202-2.518c3.271-1.735,6.134-4.242,8.276-7.387
	c4.295-6.29,11.421-10.062,19.028-10.062h102.734c3.803,0,7.492,0.94,10.762,2.675c3.271,1.724,6.123,4.242,8.276,7.387
	c4.295,6.29,11.421,10.052,19.028,10.052h53.561v0.021c41.744-0.094,80.091,27.491,91.805,69.663
	C497.57,218.728,503.338,274.536,501.875,327.471z"/>
<g>
	<path style="fill:#B6C5D3;" d="M137.529,124.698v0.021c-41.754-0.094-80.102,27.491-91.815,69.663
		c-9.947,35.83-17.774,139.776-3.532,202.439c-13.939-21.117-24.827-44.408-32.047-69.266c-0.01-0.021-0.01-0.052-0.021-0.073
		c-1.463-52.935,4.315-108.753,11.086-133.099c11.703-42.172,50.072-69.757,91.805-69.663v-0.021
		C113.006,124.698,137.529,124.698,137.529,124.698z"/>
	<path style="fill:#B6C5D3;" d="M445.534,428.063c-3.323,3.668-6.76,7.241-10.303,10.71
		c-32.486-20.167-70.886-76.497-97.395-125.482c-9.3-17.168-27.314-27.815-46.853-27.815h24.524
		c19.529,0,37.533,10.647,46.832,27.815C385.076,355.286,416.538,402.693,445.534,428.063z"/>
</g>
<g>
	<circle style="fill:#EAF1F9;" cx="118.92" cy="222.051" r="84.271"/>
	<circle style="fill:#EAF1F9;" cx="394.021" cy="222.051" r="84.271"/>
</g>
<g>
	<path style="fill:#574D70;" d="M166.915,197.99h-14.272c-5.335,0-9.66-4.325-9.66-9.66v-14.271c0-5.335-4.325-9.66-9.66-9.66
		h-28.797c-5.335,0-9.66,4.325-9.66,9.66v14.272c0,5.335-4.325,9.66-9.66,9.66h-14.27c-5.335,0-9.66,4.325-9.66,9.66v28.797
		c0,5.335,4.325,9.66,9.66,9.66h14.272c5.335,0,9.66,4.325,9.66,9.66v14.272c0,5.335,4.325,9.66,9.66,9.66h28.797
		c5.335,0,9.66-4.325,9.66-9.66v-14.272c0-5.335,4.325-9.66,9.66-9.66h14.272c5.335,0,9.66-4.325,9.66-9.66v-28.797
		C176.575,202.315,172.25,197.99,166.915,197.99z"/>
	<path style="fill:#574D70;" d="M410.563,197.789l-40.806,40.806c-11.686,11.686-30.632,11.686-42.318,0l0,0
		c-11.686-11.686-11.686-30.632,0-42.318l40.806-40.806c11.686-11.686,30.632-11.686,42.318,0l0,0
		C422.25,167.156,422.25,186.103,410.563,197.789z"/>
</g>
<circle style="fill:#3AC184;" cx="349.727" cy="216.304" r="19.237"/>
<circle style="fill:#3FC0DD;" cx="388.274" cy="177.758" r="19.237"/>
<path style="fill:#574D70;" d="M460.596,247.821l-40.806,40.806c-11.686,11.686-30.632,11.686-42.318,0l0,0
	c-11.686-11.686-11.686-30.632,0-42.318l40.806-40.806c11.686-11.686,30.632-11.686,42.318,0l0,0
	C472.281,217.188,472.281,236.135,460.596,247.821z"/>
<circle style="fill:#FFDE56;" cx="399.767" cy="266.334" r="19.237"/>
<circle style="fill:#ED55A9;" cx="438.303" cy="227.798" r="19.237"/>
<g>
	<path style="fill:#574D70;" d="M237.182,264.439H225.46c-5.591,0-10.124-4.533-10.124-10.124l0,0
		c0-5.591,4.533-10.124,10.124-10.124h11.723c5.591,0,10.124,4.533,10.124,10.124l0,0
		C247.305,259.906,242.774,264.439,237.182,264.439z"/>
	<path style="fill:#574D70;" d="M286.55,264.439h-11.723c-5.591,0-10.124-4.533-10.124-10.124l0,0
		c0-5.591,4.533-10.124,10.124-10.124h11.723c5.591,0,10.124,4.533,10.124,10.124l0,0
		C296.674,259.906,292.141,264.439,286.55,264.439z"/>
</g>
<g>
	<path style="fill:#6B6889;" d="M114.821,175.321l-6.576,11.389c-1.824,3.16,0.456,7.109,4.104,7.109h13.151
		c3.649,0,5.929-3.95,4.104-7.109l-6.576-11.389C121.205,172.162,116.645,172.162,114.821,175.321z"/>
	<path style="fill:#6B6889;" d="M123.029,268.777l6.576-11.389c1.824-3.16-0.456-7.109-4.104-7.109H112.35
		c-3.649,0-5.929,3.95-4.104,7.109l6.576,11.389C116.645,271.937,121.205,271.937,123.029,268.777z"/>
	<path style="fill:#6B6889;" d="M165.653,217.945l-11.389-6.576c-3.16-1.824-7.109,0.456-7.109,4.104v13.151
		c0,3.649,3.95,5.929,7.109,4.104l11.389-6.576C168.813,224.329,168.813,219.769,165.653,217.945z"/>
	<path style="fill:#6B6889;" d="M72.197,226.154l11.389,6.576c3.16,1.824,7.109-0.456,7.109-4.104v-13.151
		c0-3.649-3.95-5.929-7.109-4.104l-11.389,6.576C69.037,219.769,69.037,224.329,72.197,226.154z"/>
</g>
<g>
</g>
<g>
</g>
<g>
</g>
<g>
</g>
<g>
</g>
<g>
</g>
<g>
</g>
<g>
</g>
<g>
</g>
<g>
</g>
<g>
</g>
<g>
</g>
<g>
</g>
<g>
</g>
<g>
</g>
</svg>
