<?xml version="1.0" encoding="iso-8859-1"?>
<!-- Generator: Adobe Illustrator 19.0.0, SVG Export Plug-In . SVG Version: 6.00 Build 0)  -->
<svg version="1.1" id="Capa_1" xmlns="http://www.w3.org/2000/svg" xmlns:xlink="http://www.w3.org/1999/xlink" x="0px" y="0px"
	 viewBox="0 0 512 512" style="enable-background:new 0 0 512 512;" xml:space="preserve">
<path style="fill:#3FC0DD;" d="M512,256c0,48.88-13.699,94.574-37.48,133.423C429.537,462.942,348.494,512,256,512
	c-66.309,0-126.736-25.213-172.21-66.581c-17.951-16.332-33.573-35.182-46.31-55.996C13.699,350.574,0,304.88,0,256
	C0,114.615,114.615,0,256,0S512,114.615,512,256z"/>
<path style="fill:#5DD5E5;" d="M459.374,203.374c0,38.832-10.883,75.132-29.775,105.995C393.863,367.775,329.48,406.747,256,406.747
	c-52.677,0-100.682-20.03-136.808-52.894c-14.261-12.974-26.671-27.949-36.79-44.484c-18.893-30.863-29.775-67.163-29.775-105.995
	C52.626,91.053,143.68,0,256,0S459.374,91.053,459.374,203.374z"/>
<path style="fill:#ED55A9;" d="M422.082,354.251H368.85c-9.969,0-18.052,8.081-18.052,18.052v9.912h89.335v-9.912
	C440.134,362.332,432.052,354.251,422.082,354.251z"/>
<path style="fill:#DB428F;" d="M396.001,354.251H368.85c-9.969,0-18.051,8.081-18.051,18.052v9.912h27.151v-9.912
	C377.95,362.332,386.031,354.251,396.001,354.251z"/>
<polyline style="fill:#D6DFE8;" points="292.086,71.294 292.086,430.73 219.907,430.73 219.907,75.97 "/>
<polyline style="fill:#B6C5D3;" points="251.156,71.294 251.156,430.73 219.907,430.73 219.907,75.97 "/>
<path style="fill:#FFDE56;" d="M381.612,397.612H130.38v-37.796c0-14.251,11.553-25.805,25.805-25.805h199.624
	c14.251,0,25.805,11.553,25.805,25.805v37.796H381.612z"/>
<path style="fill:#EDC51C;" d="M196.891,334.011h-40.707c-14.251,0-25.805,11.553-25.805,25.805v37.796h40.707v-37.796
	C171.087,345.564,182.64,334.011,196.891,334.011z"/>
<circle style="fill:#DB428F;" cx="256" cy="82.777" r="82.777"/>
<path style="fill:#ED55A9;" d="M338.775,82.777c0,20.699-7.607,39.633-20.167,54.157c-9.509,5.726-20.647,9.028-32.569,9.028
	c-34.9,0-63.195-28.285-63.195-63.185s28.296-63.185,63.195-63.185c11.922,0,23.061,3.302,32.569,9.028
	C331.168,43.144,338.775,62.077,338.775,82.777z"/>
<circle style="fill:#F486C3;" cx="304.619" cy="76.319" r="21.942"/>
<path style="fill:#ED55A9;" d="M145.519,354.251H92.286c-9.969,0-18.052,8.081-18.052,18.052v9.912h89.335v-9.912
	C163.57,362.332,155.488,354.251,145.519,354.251z"/>
<path style="fill:#DB428F;" d="M119.437,354.251H92.286c-9.969,0-18.051,8.081-18.051,18.052v9.912h27.151v-9.912
	C101.386,362.332,109.468,354.251,119.437,354.251z"/>
<path style="fill:#574D70;" d="M474.52,389.423C429.537,462.942,348.494,512,256,512S82.463,462.942,37.48,389.423
	c6.625-5.789,15.308-9.3,24.795-9.3h387.448C459.212,380.123,467.895,383.634,474.52,389.423z"/>
<path style="fill:#463F5B;" d="M121.501,380.123c-20.825,0-37.71,16.886-37.71,37.71v27.585
	c-17.951-16.332-33.573-35.182-46.31-55.996c6.625-5.789,15.308-9.3,24.795-9.3H121.501z"/>
<path style="fill:#FFE584;" d="M355.387,369.923H281.85c-6.059,0-10.97-4.912-10.97-10.97l0,0c0-6.059,4.912-10.97,10.97-10.97
	h73.537c6.059,0,10.97,4.912,10.97,10.97l0,0C366.357,365.011,361.445,369.923,355.387,369.923z"/>
<g>
</g>
<g>
</g>
<g>
</g>
<g>
</g>
<g>
</g>
<g>
</g>
<g>
</g>
<g>
</g>
<g>
</g>
<g>
</g>
<g>
</g>
<g>
</g>
<g>
</g>
<g>
</g>
<g>
</g>
</svg>
