<?xml version="1.0" encoding="iso-8859-1"?>
<!-- Generator: Adobe Illustrator 19.0.0, SVG Export Plug-In . SVG Version: 6.00 Build 0)  -->
<svg version="1.1" id="Capa_1" xmlns="http://www.w3.org/2000/svg" xmlns:xlink="http://www.w3.org/1999/xlink" x="0px" y="0px"
	 viewBox="0 0 512 512" style="enable-background:new 0 0 512 512;" xml:space="preserve">
<path style="fill:#574D70;" d="M512,256c0,16.624-1.588,32.872-4.608,48.619c-4.315,22.403-11.536,43.781-21.285,63.697
	c-11.473,23.479-26.446,44.931-44.22,63.697c-7.826,8.265-16.206,16.008-25.067,23.165c-19.153,15.496-40.573,28.264-63.697,37.752
	c-20.083,8.244-41.451,14.012-63.707,16.906C278.476,511.269,267.327,512,256,512c-10.25,0-20.355-0.606-30.281-1.776
	c-20.793-2.445-40.824-7.387-59.779-14.514c-1.317-0.491-2.623-0.993-3.918-1.505c-35.098-13.866-66.403-35.255-91.909-62.192
	c-17.784-18.766-32.747-40.218-44.231-63.697C16.144,348.4,8.913,327.032,4.608,304.619C1.588,288.883,0,272.624,0,256
	C0,114.615,114.615,0,256,0S512,114.615,512,256z"/>
<path style="fill:#6B6889;" d="M459.374,203.374c0,13.206-1.262,26.115-3.66,38.625c-3.428,17.798-9.165,34.78-16.91,50.602
	c-9.115,18.652-21.01,35.694-35.129,50.602c-6.217,6.566-12.875,12.717-19.914,18.404c-15.216,12.31-32.233,22.454-50.602,29.992
	c-15.955,6.549-32.93,11.131-50.611,13.431c-8.691,1.137-17.548,1.719-26.547,1.719c-8.143,0-16.17-0.482-24.057-1.411
	c-16.519-1.942-32.432-5.869-47.49-11.53c-1.046-0.391-2.084-0.789-3.113-1.195c-27.883-11.015-52.753-28.007-73.015-49.407
	c-14.128-14.909-26.015-31.951-35.138-50.602C65.452,276.781,59.708,259.805,56.288,242c-2.399-12.501-3.66-25.417-3.66-38.625
	C52.626,91.053,143.68,0,256,0S459.374,91.053,459.374,203.374z"/>
<polygon style="fill:#FFDE56;" points="162.022,127.399 162.022,63.7 162.022,0.001 98.323,0.001 98.323,63.7 98.323,127.399 
	98.323,191.097 162.022,191.097 225.72,191.097 225.72,127.399 "/>
<path style="fill:#ED55A9;" d="M507.392,304.619c-4.315,22.403-11.536,43.781-21.285,63.697H416.82v-63.697h-63.697v-63.697h127.394
	v63.697H507.392z"/>
<g>
	<path style="fill:#FFDE56;" d="M34.628,304.619v63.697h-8.746C16.144,348.4,8.913,327.032,4.608,304.619H34.628z"/>
	<path style="fill:#FFDE56;" d="M353.123,432.013v60.918c-20.083,8.244-41.451,14.012-63.707,16.906V495.71H162.022v-63.697H353.123
		z"/>
</g>
<polygon style="fill:#DD98F2;" points="353.118,304.618 289.419,304.618 225.72,304.618 162.022,304.618 162.022,368.317 
	225.72,368.317 289.419,368.317 353.118,368.317 416.817,368.317 416.817,304.618 "/>
<g>
	<path style="fill:#129BBD;" d="M225.719,368.316v63.697H70.113c-17.784-18.766-32.747-40.218-44.231-63.697h72.443v-63.697h63.697
		v63.697H225.719z"/>
	<path style="fill:#129BBD;" d="M486.107,368.316c-11.473,23.479-26.446,44.931-44.22,63.697H416.82v23.165
		c-19.153,15.496-40.573,28.264-63.697,37.752v-60.918h-63.707v-63.697L486.107,368.316L486.107,368.316z"/>
</g>
<path style="fill:#ED55A9;" d="M225.719,495.71v14.514c-20.793-2.445-40.824-7.387-59.779-14.514H225.719z"/>
<g>
</g>
<g>
</g>
<g>
</g>
<g>
</g>
<g>
</g>
<g>
</g>
<g>
</g>
<g>
</g>
<g>
</g>
<g>
</g>
<g>
</g>
<g>
</g>
<g>
</g>
<g>
</g>
<g>
</g>
</svg>
