<?xml version="1.0" encoding="iso-8859-1"?>
<!-- Generator: Adobe Illustrator 19.0.0, SVG Export Plug-In . SVG Version: 6.00 Build 0)  -->
<svg version="1.1" id="Capa_1" xmlns="http://www.w3.org/2000/svg" xmlns:xlink="http://www.w3.org/1999/xlink" x="0px" y="0px"
	 viewBox="0 0 512 512" style="enable-background:new 0 0 512 512;" xml:space="preserve">
<path style="fill:#574D70;" d="M512,256c0,50.04-14.357,96.737-39.184,136.171C427.51,464.165,347.345,512,256,512
	c-2.738,0-5.475-0.042-8.192-0.136c-76.487-2.403-144.509-38.348-189.827-93.623c-6.802-8.276-13.082-16.99-18.808-26.091
	C14.357,352.716,0,306.04,0,256C0,114.615,114.615,0,256,0S512,114.615,512,256z"/>
<path style="fill:#3FC0DD;" d="M472.816,380.834v11.337C427.51,464.165,347.345,512,256,512c-2.738,0-5.475-0.042-8.192-0.136
	c-87.939-2.759-164.697-49.873-208.635-119.714v-11.316c0-12.34,10.01-22.34,22.34-22.34h388.963
	C462.817,358.494,472.816,368.494,472.816,380.834z"/>
<path style="fill:#ED55A9;" d="M326.008,227.328v131.166H39.173V227.328c0-12.34,10.01-22.34,22.34-22.34h242.155
	C316.008,204.988,326.008,214.988,326.008,227.328z"/>
<path style="fill:#FFDE56;" d="M472.816,227.328v131.166H326.008V227.328c0-12.34,10-22.34,22.329-22.34h102.139
	C462.817,204.988,472.816,214.988,472.816,227.328z"/>
<path style="fill:#DB428F;" d="M80.319,204.988H61.511c-12.337,0-22.338,10.001-22.338,22.338v131.168h18.808V227.326
	C57.981,214.989,67.982,204.988,80.319,204.988z"/>
<path style="fill:#EDC51C;" d="M367.154,204.988h-18.808c-12.337,0-22.338,10.001-22.338,22.338v131.168h18.808V227.326
	C344.816,214.989,354.817,204.988,367.154,204.988z"/>
<path style="fill:#129BBD;" d="M80.321,358.494c-12.33,0-22.34,10-22.34,22.34v37.407c-6.802-8.276-13.082-16.99-18.808-26.091
	v-11.316c0-12.34,10.01-22.34,22.34-22.34H80.321z"/>
<path style="fill:#3AC184;" d="M139.561,17.069H92.399c-12.906,0-23.368,10.463-23.368,23.368v22.538h93.899V40.438
	C162.93,27.532,152.467,17.069,139.561,17.069z"/>
<path style="fill:#31AF7D;" d="M112.063,17.069H92.399c-12.906,0-23.368,10.463-23.368,23.368v22.538h19.664V40.438
	C88.695,27.532,99.158,17.069,112.063,17.069z"/>
<g>
	<path style="fill:#3AC184;" d="M419.593,17.069h-47.161c-12.906,0-23.368,10.463-23.368,23.368v22.538h93.899V40.438
		C442.963,27.532,432.5,17.069,419.593,17.069z"/>
	<path style="fill:#3AC184;" d="M279.577,17.069h-47.161c-12.906,0-23.368,10.463-23.368,23.368v22.538h93.899V40.438
		C302.946,27.532,292.484,17.069,279.577,17.069z"/>
</g>
<g>
	<path style="fill:#31AF7D;" d="M252.08,17.069h-19.664c-12.906,0-23.368,10.463-23.368,23.368v22.538h19.664V40.438
		C228.711,27.532,239.174,17.069,252.08,17.069z"/>
	<path style="fill:#31AF7D;" d="M392.096,17.069h-19.664c-12.906,0-23.368,10.463-23.368,23.368v22.538h19.664V40.438
		C368.728,27.532,379.19,17.069,392.096,17.069z"/>
</g>
<path style="fill:#3AC184;" d="M472.816,73.822v131.166H39.173V73.822c0-12.34,10.01-22.34,22.34-22.34h388.963
	C462.817,51.482,472.816,61.482,472.816,73.822z"/>
<path style="fill:#31AF7D;" d="M80.324,51.482H61.516c-12.337,0-22.338,10.001-22.338,22.338v131.168h18.808V73.82
	C57.987,61.483,67.987,51.482,80.324,51.482z"/>
<path style="fill:#52D1A5;" d="M472.816,73.822v131.166H247.641c85.682-68.012,86.727-153.506,86.727-153.506h116.109
	C462.817,51.482,472.816,61.482,472.816,73.822z"/>
<path style="fill:#5DD5E5;" d="M472.816,380.834v11.337C427.51,464.165,347.345,512,256,512h-8.359
	c0.052-0.042,0.115-0.094,0.167-0.136c85.514-67.992,86.559-153.37,86.559-153.37h116.109
	C462.817,358.494,472.816,368.494,472.816,380.834z"/>
<path style="fill:#F486C3;" d="M326.008,227.328v131.166H189.654c85.682-68.012,86.727-153.506,86.727-153.506h27.287
	C316.008,204.988,326.008,214.988,326.008,227.328z"/>
<path style="fill:#FFE584;" d="M472.816,227.328v131.166h-125.91c85.682-68.012,86.727-153.506,86.727-153.506h16.844
	C462.817,204.988,472.816,214.988,472.816,227.328z"/>
<g>
</g>
<g>
</g>
<g>
</g>
<g>
</g>
<g>
</g>
<g>
</g>
<g>
</g>
<g>
</g>
<g>
</g>
<g>
</g>
<g>
</g>
<g>
</g>
<g>
</g>
<g>
</g>
<g>
</g>
</svg>
