<?xml version="1.0" encoding="iso-8859-1"?>
<!-- Generator: Adobe Illustrator 19.0.0, SVG Export Plug-In . SVG Version: 6.00 Build 0)  -->
<svg version="1.1" id="Capa_1" xmlns="http://www.w3.org/2000/svg" xmlns:xlink="http://www.w3.org/1999/xlink" x="0px" y="0px"
	 viewBox="0 0 512 512" style="enable-background:new 0 0 512 512;" xml:space="preserve">
<path style="fill:#3FC0DD;" d="M512,256c0,116.214-77.427,214.329-183.515,245.593C305.507,508.364,281.182,512,256,512
	s-49.507-3.636-72.485-10.407C77.427,470.329,0,372.214,0,256c0-36.603,7.68-71.419,21.525-102.902
	c8.516-19.383,19.362-37.512,32.193-54.021c25.621-32.987,59.141-59.528,97.708-76.81C183.348,7.952,218.749,0,256,0
	s72.631,7.952,104.552,22.256c38.578,17.283,72.098,43.833,97.729,76.821c12.821,16.499,23.667,34.617,32.183,53.99
	C504.31,184.56,512,219.387,512,256z"/>
<path style="fill:#574D70;" d="M490.465,102.087v125.649c0,115.096-63.091,219.554-161.98,273.857
	C305.507,508.364,281.182,512,256,512c-23.092,0-45.474-3.062-66.748-8.798c-1.923-0.512-3.835-1.045-5.736-1.609
	c-98.9-54.303-161.991-158.762-161.991-273.857V102.087c11.107,0,21.891-1.045,32.193-3.009
	c48.692-9.279,86.779-39.121,97.708-76.81c2.079-7.168,3.176-14.618,3.176-22.267h202.783c0,7.649,1.097,15.088,3.166,22.256
	c10.93,37.7,49.027,67.542,97.729,76.821C468.584,101.042,479.368,102.087,490.465,102.087z"/>
<path style="fill:#6B6889;" d="M490.465,102.087v125.649c0,115.096-63.091,219.554-161.98,273.857
	C305.507,508.364,281.182,512,256,512c-23.092,0-45.474-3.062-66.748-8.798C358.431,295.34,327.931,75.421,310.45,0h46.937
	c0,7.649,1.097,15.088,3.166,22.256c10.93,37.7,49.027,67.542,97.729,76.821C468.584,101.042,479.368,102.087,490.465,102.087z"/>
<path style="fill:#DD98F2;" d="M240.364,475.203c-50.484-19.102-93.383-52.672-124.062-97.08
	c-30.679-44.409-46.895-96.413-46.895-150.388v-83.009c27.968-6.264,53.807-18.012,75.362-34.546
	c22.287-17.097,38.798-38.633,48.325-62.296h125.803c9.526,23.663,26.039,45.198,48.326,62.296
	c21.555,16.536,47.394,28.283,75.362,34.546v83.009c0,53.975-16.216,105.979-46.894,150.388
	c-30.679,44.409-73.579,77.979-124.06,97.08l-15.635,5.916L240.364,475.203z"/>
<path style="fill:#C473DD;" d="M256,481.113l-15.632-5.914c-50.479-19.101-93.383-52.663-124.061-97.081
	c-30.678-44.408-46.895-96.413-46.895-150.382v-83.007c25.015-5.611,48.327-15.59,68.389-29.477v112.483
	c0,53.969,10.271,105.974,29.706,150.382c19.435,44.419,46.613,77.981,78.587,97.081L256,481.113z"/>
<path style="fill:#574D70;" d="M374.293,255.592c0,65.337-52.966,118.293-118.293,118.293c-10.856,0-21.379-1.463-31.368-4.211
	c-50.113-13.74-86.925-59.601-86.925-114.082c0-65.327,52.955-118.293,118.293-118.293c8.516,0,16.823,0.899,24.827,2.623
	C334.242,151.322,374.293,198.781,374.293,255.592z"/>
<path style="fill:#6B6889;" d="M374.293,255.592c0,65.337-52.966,118.293-118.293,118.293c-10.856,0-21.379-1.463-31.368-4.211
	c46.561-81.251,54.763-190.245,56.195-229.752C334.242,151.322,374.293,198.781,374.293,255.592z"/>
<circle style="fill:#DD98F2;" cx="256" cy="255.592" r="78.215"/>
<path style="fill:#574D70;" d="M302.383,268.069l-0.428,0.428L256,314.462l-46.393-46.393c-6.353-6.343-9.519-14.66-9.519-22.977
	c0-8.317,3.166-16.635,9.519-22.977c12.685-12.695,33.27-12.695,45.955,0l0.439,0.428l0.428-0.428
	c4.974-4.984,11.17-8.004,17.617-9.07c1.776-0.303,3.574-0.449,5.371-0.449c8.307,0,16.624,3.166,22.967,9.519
	C315.079,234.809,315.079,255.373,302.383,268.069z"/>
<path style="fill:#6B6889;" d="M302.383,268.069l-0.428,0.428L256,314.462l-4.723-4.723c11.379-33.207,18.411-67.124,22.768-96.695
	c1.776-0.303,3.574-0.449,5.371-0.449c8.307,0,16.624,3.166,22.967,9.519C315.079,234.809,315.079,255.373,302.383,268.069z"/>
<g>
</g>
<g>
</g>
<g>
</g>
<g>
</g>
<g>
</g>
<g>
</g>
<g>
</g>
<g>
</g>
<g>
</g>
<g>
</g>
<g>
</g>
<g>
</g>
<g>
</g>
<g>
</g>
<g>
</g>
</svg>
