<?xml version="1.0" encoding="iso-8859-1"?>
<!-- Generator: Adobe Illustrator 19.0.0, SVG Export Plug-In . SVG Version: 6.00 Build 0)  -->
<svg version="1.1" id="Capa_1" xmlns="http://www.w3.org/2000/svg" xmlns:xlink="http://www.w3.org/1999/xlink" x="0px" y="0px"
	 viewBox="0 0 512 512" style="enable-background:new 0 0 512 512;" xml:space="preserve">
<path style="fill:#3FC0DD;" d="M512,256c0,101.439-58.995,189.085-144.541,230.525c-22.747,11.024-47.376,18.766-73.268,22.633
	C281.736,511.039,268.978,512,256,512c-3.605,0-7.199-0.073-10.773-0.23c-26.603-1.097-52.14-6.259-76.037-14.869
	C70.531,461.354,0,366.916,0,256C0,114.615,114.615,0,256,0S512,114.615,512,256z"/>
<path style="fill:#5DD5E5;" d="M486.357,230.357c0,91.278-53.085,170.144-130.063,207.434c-20.469,9.919-42.63,16.887-65.929,20.365
	c-11.208,1.693-22.688,2.558-34.366,2.558c-3.243,0-6.478-0.066-9.694-0.207c-23.939-0.987-46.918-5.632-68.421-13.38
	C89.109,415.14,25.643,330.163,25.643,230.357C25.643,103.134,128.777,0,256,0S486.357,103.134,486.357,230.357z"/>
<path style="fill:#574D70;" d="M456.265,227.965c0,50.667-10.115,93.863-30.448,127.363c-8.652,14.273-19.163,26.781-31.535,37.334
	c-0.178,0.178-0.345,0.324-0.543,0.481c0,0,0,0-0.01,0c-7.993,6.771-16.739,12.748-26.269,17.857v75.525
	C333.761,502.847,295.957,512,256,512c-21.765,0-42.893-2.717-63.06-7.826c-8.077-2.048-15.997-4.472-23.751-7.272v-80.018
	c-20.02-6.572-39.926-15.559-57.417-27.69c-44.492-30.887-75.964-79.914-78.503-137.509c-0.063-1.275-0.042-7.764-0.042-7.764
	c0.637-23.019,8.788-40.814,23.019-53.415c7.973-7.074,17.826-12.528,29.362-16.363c0.219-1.317,0.449-2.623,0.7-3.918
	c0.136-0.731,0.272-1.463,0.418-2.194c0.188-1.024,0.397-2.027,0.606-3.051c0.24-1.118,0.481-2.236,0.721-3.354
	c19.132-86.518,79.099-138.794,180.715-138.794c52.914,0,94.521,14.158,124.97,39.957c12.225,10.334,22.643,22.538,31.263,36.467
	c8.265,13.322,14.879,28.233,19.864,44.544c6.572,21.514,10.303,45.505,11.191,71.659
	C456.202,219.575,456.265,223.744,456.265,227.965z"/>
<g>
	<path style="fill:#463F5B;" d="M221.393,239.866c0,26.039-9.745,47.205-28.18,61.215c-17.189,13.051-41.135,19.665-71.167,19.665
		c-5.863,0-11.582-0.256-16.997-0.767c-5.703-0.543-9.888-5.607-9.361-11.327c0.543-5.703,5.591-9.888,11.326-9.345
		c4.776,0.447,9.825,0.671,15.033,0.671c64.937,0,78.579-32.684,78.579-60.113s-13.642-60.113-78.579-60.113
		c-20.735,0-44.809,3.643-65.8,10.751c7.972-7.077,17.828-12.524,29.362-16.358c0.719-4.25,1.534-8.419,2.444-12.524
		c11.693-1.773,23.259-2.635,33.995-2.635c30.032,0,53.978,6.613,71.167,19.665C211.648,192.66,221.393,213.827,221.393,239.866z"/>
	<path style="fill:#463F5B;" d="M294.191,402.693v106.465C281.736,511.039,268.978,512,256,512c-3.605,0-7.199-0.073-10.773-0.23
		V402.693c0-6.75,2.727-12.873,7.168-17.314c4.43-4.42,10.543-7.168,17.304-7.168C283.23,378.211,294.191,389.183,294.191,402.693z"
		/>
	<path style="fill:#463F5B;" d="M456.061,215.456c-15.479,31.758-48.083,53.675-85.72,53.675h-161.44
		c-5.734,0-10.383-4.649-10.383-10.383c0-5.719,4.649-10.383,10.383-10.383h161.44c41.103,0,74.522-33.419,74.522-74.506v-30.064
		C451.445,165.312,455.167,189.306,456.061,215.456z"/>
	<path style="fill:#463F5B;" d="M268.774,22.834c0,0-105.225,32.892-105.225,141.408l-41.502,15.512l-35.32-11.726
		c0.416-2.157,0.863-4.297,1.326-6.406C107.19,75.103,167.16,22.834,268.774,22.834z"/>
</g>
<g>
	<path style="fill:#FFDE56;" d="M323.563,437.644H215.847c-5.734,0-10.383-4.649-10.383-10.383s4.649-10.383,10.383-10.383h107.716
		c5.734,0,10.383,4.649,10.383,10.383S329.298,437.644,323.563,437.644z"/>
	<path style="fill:#FFDE56;" d="M323.563,488.004H215.847c-5.734,0-10.383-4.649-10.383-10.383s4.649-10.383,10.383-10.383h107.716
		c5.734,0,10.383,4.649,10.383,10.383S329.298,488.004,323.563,488.004z"/>
</g>
<g>
	<circle style="fill:#6B6889;" cx="376.31" cy="140.988" r="32.912"/>
	<circle style="fill:#6B6889;" cx="346.791" cy="83.174" r="16.456"/>
</g>
<path style="fill:#463F5B;" d="M192.94,394.888v109.286c-8.077-2.048-15.997-4.472-23.751-7.272v-80.018
	c-20.02-6.572-39.926-15.559-57.417-27.69c-44.492-30.887-75.964-79.914-78.503-137.509c-0.063-1.275-0.042-7.764-0.042-7.764
	c0.637-23.019,8.788-40.814,23.019-53.415c7.973-7.074,17.826-12.528,29.362-16.363c0.219-1.317,0.449-2.623,0.7-3.918l35.736,9.529
	c0,0-48.222,19.226-48.222,89.757C73.822,340.031,140.643,387.082,192.94,394.888z"/>
<g>
</g>
<g>
</g>
<g>
</g>
<g>
</g>
<g>
</g>
<g>
</g>
<g>
</g>
<g>
</g>
<g>
</g>
<g>
</g>
<g>
</g>
<g>
</g>
<g>
</g>
<g>
</g>
<g>
</g>
</svg>
