<?xml version="1.0" encoding="iso-8859-1"?>
<!-- Generator: Adobe Illustrator 19.0.0, SVG Export Plug-In . SVG Version: 6.00 Build 0)  -->
<svg version="1.1" id="Capa_1" xmlns="http://www.w3.org/2000/svg" xmlns:xlink="http://www.w3.org/1999/xlink" x="0px" y="0px"
	 viewBox="0 0 512 512" style="enable-background:new 0 0 512 512;" xml:space="preserve">
<path style="fill:#ED55A9;" d="M512,256c0,141.385-114.615,256-256,256c-17.951,0-35.474-1.849-52.381-5.371
	c-15.548-3.229-30.584-7.868-44.962-13.793c-10.459-4.295-20.574-9.279-30.292-14.879c-4.535-2.612-8.986-5.36-13.343-8.234
	c-0.031-0.021-0.073-0.042-0.104-0.073c-4.336-2.873-8.568-5.862-12.716-8.976C76.392,441.25,54.376,417.05,37.47,389.402
	c-2.79-4.545-5.423-9.174-7.92-13.908c-0.021-0.031-0.042-0.073-0.063-0.104c-2.529-4.775-4.901-9.644-7.126-14.597
	C7.993,328.808,0,293.334,0,256C0,114.615,114.615,0,256,0c37.982,0,74.021,8.265,106.433,23.103
	c48.013,21.985,88.054,58.378,114.583,103.643C499.252,164.686,512,208.854,512,256z"/>
<path style="fill:#F486C3;" d="M456.043,200.043c0,110.48-89.561,200.043-200.043,200.043c-14.028,0-27.72-1.445-40.931-4.197
	c-12.15-2.522-23.899-6.148-35.134-10.777c-8.173-3.356-16.077-7.251-23.67-11.628c-3.543-2.042-7.022-4.189-10.427-6.433
	c-0.024-0.017-0.057-0.032-0.082-0.057c-3.389-2.245-6.696-4.581-9.937-7.014c-20.168-15.178-37.371-34.089-50.582-55.693
	c-2.18-3.552-4.237-7.169-6.189-10.868c-0.017-0.024-0.032-0.057-0.049-0.081c-1.976-3.731-3.83-7.537-5.568-11.407
	c-11.226-24.993-17.473-52.713-17.473-81.887C55.957,89.561,145.52,0,256,0c29.68,0,57.841,6.459,83.169,18.053
	c37.518,17.179,68.807,45.618,89.537,80.989C446.082,128.689,456.043,163.202,456.043,200.043z"/>
<g>
	<path style="fill:#463F5B;" d="M82.964,445.461l250.634-190.318L492.93,221.08c9.583-2.049,16.431-10.516,16.431-20.315l0,0
		c0-11.473-9.301-20.775-20.775-20.775h-95.592L138.442,326.66L82.964,445.461z"/>
	<path style="fill:#463F5B;" d="M432.013,104.364L233.817,365.38l-30.198,141.249c-15.548-3.229-30.584-7.868-44.962-13.793v-68.065
		L305.33,170.224L432.013,104.364z"/>
</g>
<g>
	<path style="fill:#6B6889;" d="M250.295,332.1c-41.232,49.737-86.361,95.598-135.377,137.55c-4.336-2.873-8.568-5.862-12.716-8.976
		C76.392,441.25,54.376,417.05,37.47,389.402c-2.79-4.545-5.423-9.174-7.92-13.908c40.845-47.198,85.337-90.749,133.486-130.654
		C200.077,265.968,229.167,295.058,250.295,332.1z"/>
	<path style="fill:#6B6889;" d="M466.094,116.302c-10.498,12.663-21.246,25.077-32.253,37.231
		c-36.244,40.059-75.238,77.387-116.962,111.985c-37.046-21.125-66.139-50.218-87.264-87.264
		c6.482-7.822,13.059-15.549,19.735-23.161c39.745-45.433,82.915-87.457,129.48-126.054
		C415.877,50.163,444.97,79.257,466.094,116.302z"/>
</g>
<g>
	<path style="fill:#463F5B;" d="M433.842,153.533c-36.244,40.059-75.238,77.387-116.962,111.985
		c-37.046-21.125-66.139-50.218-87.264-87.264c6.482-7.822,13.059-15.549,19.735-23.161c14.215,10.756,93.138,64.886,171.059,6.716
		C425.26,158.188,429.736,155.457,433.842,153.533z"/>
	<path style="fill:#463F5B;" d="M216.869,370.51c-31.838,35.182-65.787,68.253-101.846,99.213
		c-4.368-2.894-8.641-5.914-12.821-9.049C76.392,441.25,54.376,417.05,37.47,389.402c-2.811-4.577-5.465-9.247-7.983-14.012
		c0.961-1.108,1.923-2.215,2.894-3.323c2.435,1.839,6.771,4.963,12.685,8.568c23.771,14.524,72.944,36.969,125.994,16.311
		c10.689-4.159,21.546-10.073,32.371-18.16C208.28,375.16,212.762,372.433,216.869,370.51z"/>
</g>
<path style="fill:#574D70;" d="M479.19,108.826c-11.191-19.623-24.597-37.251-40.114-52.767
	c-15.517-15.517-33.144-28.923-52.767-40.114c-5.454-3.114-12.257-2.518-17.095,1.484c-2.267,1.881-4.524,3.772-6.781,5.674
	c-25.015,21.055-49.173,43.238-72.338,66.414c-25.266,25.255-49.351,51.691-72.087,79.12c-2.288,2.769-3.469,6.186-3.469,9.624
	c0,2.56,0.658,5.141,1.985,7.471c4.169,7.304,8.641,14.326,13.416,21.076c4.765,6.719,3.95,15.893-1.87,21.713l-14.775,14.764
	c-5.82,5.82-14.994,6.635-21.713,1.881c-6.74-4.775-13.772-9.258-21.076-13.427c-2.33-1.327-4.901-1.975-7.461-1.975
	c-3.438,0-6.865,1.17-9.634,3.469c-27.429,22.737-53.864,46.822-79.12,72.087c-17.93,17.92-35.255,36.436-51.931,55.474
	c2.226,4.953,4.598,9.822,7.126,14.597c2.518,4.765,5.172,9.435,7.983,14.012c2.518-2.936,5.047-5.862,7.596-8.767
	c36.78-41.984,76.821-81.335,119.411-117.342c27.429,17.345,50.019,39.936,67.365,67.354
	c-19.331,22.873-39.633,45.014-60.782,66.299c-22.068,22.215-45.056,43.489-68.859,63.728c4.18,3.135,8.453,6.154,12.821,9.049
	c4.357,2.873,8.808,5.622,13.343,8.234c7.649-6.593,15.224-13.312,22.706-20.125c13.197-12.027,26.122-24.357,38.745-36.989
	c25.266-25.266,49.351-51.691,72.087-79.12c2.288-2.769,3.469-6.186,3.469-9.624c0-2.56-0.658-5.141-1.985-7.471
	c-3.772-6.625-7.805-13.019-12.079-19.184c-4.274-6.154-8.808-12.089-13.573-17.774c-5.653-6.74-5.245-16.666,0.972-22.883
	l10.856-10.857c6.217-6.217,16.144-6.625,22.883-0.982c11.389,9.54,23.719,18.108,36.958,25.663c2.33,1.327,4.911,1.985,7.471,1.985
	c3.438,0,6.855-1.181,9.624-3.469c13.72-11.368,27.178-23.082,40.375-35.098c13.197-12.027,26.112-24.367,38.745-36.989
	c25.015-25.004,48.87-51.158,71.398-78.294c0.23-0.272,0.46-0.554,0.69-0.825c2.288-2.769,3.469-6.186,3.469-9.624
	C481.175,113.737,480.517,111.156,479.19,108.826z M315.434,247.056c-27.418-17.335-50.019-39.936-67.365-67.354
	c40.229-47.585,84.626-91.982,132.211-132.211c27.418,17.345,50.019,39.936,67.365,67.365
	C407.416,162.44,363.018,206.838,315.434,247.056z"/>
<g>
</g>
<g>
</g>
<g>
</g>
<g>
</g>
<g>
</g>
<g>
</g>
<g>
</g>
<g>
</g>
<g>
</g>
<g>
</g>
<g>
</g>
<g>
</g>
<g>
</g>
<g>
</g>
<g>
</g>
</svg>
