<?xml version="1.0" encoding="iso-8859-1"?>
<!-- Generator: Adobe Illustrator 19.0.0, SVG Export Plug-In . SVG Version: 6.00 Build 0)  -->
<svg version="1.1" id="Capa_1" xmlns="http://www.w3.org/2000/svg" xmlns:xlink="http://www.w3.org/1999/xlink" x="0px" y="0px"
	 viewBox="0 0 512 512" style="enable-background:new 0 0 512 512;" xml:space="preserve">
<path style="fill:#3FC0DD;" d="M512,256c0,43.092-10.647,83.696-29.456,119.327c-2.1,3.981-4.295,7.889-6.593,11.734
	c-4.294,7.189-8.934,14.148-13.887,20.856c-3.333,4.524-6.823,8.934-10.449,13.218c-0.481,0.564-0.961,1.128-1.452,1.693
	c-4.639,5.413-9.519,10.627-14.597,15.621c-3.647,3.594-7.408,7.084-11.264,10.449c-0.481,0.428-0.972,0.846-1.463,1.264
	c-1.337,1.149-2.675,2.288-4.033,3.406c-6.76,5.569-13.824,10.815-21.138,15.673c-3.479,2.33-7.022,4.566-10.627,6.708
	c-0.449,0.272-0.899,0.543-1.348,0.805C347.669,499.158,303.334,512,256,512s-91.669-12.842-129.693-35.244
	c-0.449-0.261-0.899-0.533-1.348-0.805c-3.605-2.142-7.147-4.378-10.627-6.708c-7.314-4.859-14.378-10.104-21.138-15.673
	c-1.358-1.118-2.696-2.257-4.033-3.406c-0.491-0.418-0.982-0.836-1.463-1.264c-3.856-3.365-7.617-6.855-11.264-10.449
	c-0.481-0.481-0.961-0.951-1.442-1.442c-4.566-4.545-8.955-9.268-13.155-14.169c-0.491-0.564-0.982-1.139-1.463-1.714
	c-3.626-4.284-7.105-8.694-10.449-13.218c-4.953-6.698-9.582-13.657-13.876-20.846c-2.299-3.845-4.493-7.753-6.593-11.734
	C10.648,339.696,0,299.092,0,256s10.648-83.696,29.456-119.327c2.1-3.981,4.295-7.889,6.593-11.734
	c7.565-12.685,16.206-24.649,25.788-35.788c8.411-9.78,17.544-18.913,27.314-27.314c1.149-0.982,2.299-1.964,3.469-2.926
	c0.899-0.742,1.797-1.473,2.696-2.205C139.243,21.232,195.135,0,256,0s116.757,21.232,160.684,56.707
	c0.899,0.731,1.797,1.463,2.696,2.205c1.17,0.961,2.32,1.944,3.469,2.926c4.89,4.211,9.613,8.589,14.169,13.145
	c4.556,4.556,8.944,9.279,13.145,14.169c9.582,11.139,18.223,23.103,25.788,35.788c2.299,3.845,4.493,7.753,6.593,11.734
	C501.352,172.304,512,212.908,512,256z"/>
<path style="fill:#FFDE56;" d="M482.544,90.384v284.944c-2.1,3.981-4.295,7.889-6.593,11.734
	c-4.294,7.189-8.934,14.148-13.887,20.856c-3.333,4.524-6.823,8.934-10.449,13.218c-0.481,0.564-0.961,1.128-1.452,1.693
	c-4.639,5.413-9.519,10.627-14.597,15.621c-3.647,3.594-7.408,7.084-11.264,10.449c-0.481,0.428-0.972,0.846-1.463,1.264
	c-11.139,9.582-23.113,18.223-35.798,25.788c-0.449,0.272-0.899,0.543-1.348,0.805C347.669,499.158,303.334,512,256,512
	s-91.669-12.842-129.693-35.244c-0.449-0.261-0.899-0.533-1.348-0.805c-12.685-7.565-24.66-16.206-35.798-25.788
	c-0.491-0.418-0.982-0.836-1.463-1.264c-3.856-3.365-7.617-6.855-11.264-10.449c-0.481-0.481-0.961-0.951-1.442-1.442
	c-4.566-4.545-8.955-9.268-13.155-14.169c-0.491-0.564-0.982-1.139-1.463-1.714c-3.626-4.284-7.105-8.694-10.449-13.218
	c-4.953-6.698-9.582-13.657-13.876-20.846c-2.299-3.845-4.493-7.753-6.593-11.734V90.384c0-17.377,14.085-31.472,31.462-31.472
	h390.165C468.459,58.911,482.544,73.007,482.544,90.384z"/>
<rect x="93.194" y="122.65" style="fill:#EDC51C;" width="325.611" height="325.611"/>
<g>
	<rect x="81.251" y="185.94" style="fill:#FFDE56;" width="349.497" height="21.942"/>
	<rect x="81.251" y="274.484" style="fill:#FFDE56;" width="349.497" height="21.942"/>
	<rect x="81.251" y="363.039" style="fill:#FFDE56;" width="349.497" height="21.942"/>
</g>
<g>
	<rect x="397.667" y="58.911" style="fill:#EDC51C;" width="21.133" height="63.739"/>
	<rect x="93.194" y="58.911" style="fill:#EDC51C;" width="21.133" height="63.739"/>
	<path style="fill:#EDC51C;" d="M418.806,448.261v5.308c-6.76,5.569-13.824,10.815-21.138,15.673v-20.982H418.806z"/>
	<path style="fill:#EDC51C;" d="M114.333,448.261v20.982c-7.314-4.859-14.378-10.104-21.138-15.673v-5.308H114.333z"/>
	<path style="fill:#EDC51C;" d="M303.896,288.786c-16.902,13.797-17.247,25.525-17.247,45.531c0,6.209-3.104,12.418-17.246,12.418
		c-11.382,0-15.867-4.484-15.867-19.316c0-32.078,11.038-45.876,20.695-54.5c12.073-11.383,33.802-23.455,33.802-46.911
		c0-19.316-14.487-29.665-35.528-29.665c-33.802,0-29.319,23.801-45.186,23.801c-7.933,0-17.246-5.173-17.246-16.556
		c0-16.556,21.731-40.702,63.467-40.702c43.807,0,71.056,25.18,71.056,58.294C344.597,256.706,314.244,279.127,303.896,288.786z
		 M293.203,395.025c0,12.418-10.349,23.456-23.455,23.456c-13.107,0-23.111-11.038-23.111-23.456
		c0-12.762,10.349-23.455,23.111-23.455C282.509,371.57,293.203,382.262,293.203,395.025z"/>
</g>
<path style="fill:#ED55A9;" d="M282.56,283.56c-16.902,13.797-17.247,25.525-17.247,45.531c0,6.209-3.104,12.418-17.246,12.418
	c-11.382,0-15.867-4.484-15.867-19.316c0-32.078,11.038-45.876,20.695-54.5c12.073-11.383,33.802-23.455,33.802-46.911
	c0-19.316-14.487-29.665-35.528-29.665c-33.802,0-29.319,23.801-45.186,23.801c-7.933,0-17.246-5.173-17.246-16.556
	c0-16.556,21.731-40.702,63.467-40.702c43.807,0,71.056,25.18,71.056,58.294C323.261,251.482,292.908,273.902,282.56,283.56z
	 M271.867,389.8c0,12.418-10.349,23.456-23.455,23.456c-13.107,0-23.111-11.038-23.111-23.456c0-12.762,10.349-23.455,23.111-23.455
	C261.173,366.345,271.867,377.038,271.867,389.8z"/>
<g>
	<circle style="fill:#463F5B;" cx="63.843" cy="105.932" r="14.889"/>
	<circle style="fill:#463F5B;" cx="63.843" cy="301.944" r="14.889"/>
	<circle style="fill:#463F5B;" cx="63.843" cy="399.956" r="14.889"/>
	<circle style="fill:#463F5B;" cx="62.83" cy="203.943" r="14.889"/>
	<circle style="fill:#463F5B;" cx="449.17" cy="105.932" r="14.889"/>
	<circle style="fill:#463F5B;" cx="449.17" cy="203.943" r="14.889"/>
	<circle style="fill:#463F5B;" cx="449.17" cy="301.944" r="14.889"/>
	<circle style="fill:#463F5B;" cx="449.17" cy="399.956" r="14.889"/>
</g>
<g>
</g>
<g>
</g>
<g>
</g>
<g>
</g>
<g>
</g>
<g>
</g>
<g>
</g>
<g>
</g>
<g>
</g>
<g>
</g>
<g>
</g>
<g>
</g>
<g>
</g>
<g>
</g>
<g>
</g>
</svg>
