<?xml version="1.0" encoding="iso-8859-1"?>
<!-- Generator: Adobe Illustrator 19.0.0, SVG Export Plug-In . SVG Version: 6.00 Build 0)  -->
<svg version="1.1" id="Capa_1" xmlns="http://www.w3.org/2000/svg" xmlns:xlink="http://www.w3.org/1999/xlink" x="0px" y="0px"
	 viewBox="0 0 512 512" style="enable-background:new 0 0 512 512;" xml:space="preserve">
<path style="fill:#D6DFE8;" d="M512,256c0,80.415-37.073,152.169-95.075,199.095c-6.457,5.235-13.176,10.156-20.125,14.743
	C356.404,496.494,308.015,512,256,512C114.615,512,0,397.385,0,256c0-51.555,15.235-99.547,41.451-139.724
	c27.732-42.475,67.72-76.215,114.949-96.183C187.016,7.158,220.672,0,256,0c42.047,0,81.711,10.136,116.715,28.097
	c36.561,18.756,68.023,46.059,91.742,79.266C494.393,149.264,512,200.579,512,256z"/>
<circle style="fill:#EAF1F9;" cx="256" cy="210.066" r="210.066"/>
<path style="fill:#ED55A9;" d="M452.416,35.563c-11.845-11.845-27.593-18.368-44.341-18.368c-14.288,0-27.849,4.748-38.879,13.497
	C358.169,21.946,344.613,17.2,330.324,17.2c-16.75,0-32.494,6.521-44.332,18.359c-11.847,11.833-18.371,27.582-18.371,44.344
	s6.524,32.511,18.317,44.29l77.074,77.086c1.708,1.708,3.947,2.562,6.186,2.562c2.238,0,4.478-0.855,6.186-2.562l77.034-77.034
	C476.86,99.803,476.86,60.021,452.416,35.563z"/>
<path style="fill:#463F5B;" d="M167.309,168.166c15.176,0,29.443-5.913,40.171-16.648c10.732-10.731,16.642-24.995,16.642-40.166
	c0-15.191-5.912-29.46-16.64-40.176L138.868,2.563c-3.416-3.417-8.956-3.417-12.373,0L57.884,71.175
	c-10.73,10.73-16.639,24.996-16.639,40.172c0,15.175,5.909,29.441,16.639,40.171c10.731,10.732,24.995,16.642,40.166,16.642
	c9.404,0,18.452-2.271,26.526-6.542v41.922H94.981c-4.832,0-8.749,3.917-8.749,8.749c0,4.832,3.917,8.749,8.749,8.749h76.684
	c4.832,0,8.749-3.917,8.749-8.749s-3.917-8.749-8.749-8.749h-29.594v-41.266C149.819,166.123,158.405,168.166,167.309,168.166z"/>
<path style="fill:#ED55A9;" d="M211.038,365.573l-71.307-97.05c-1.648-2.243-4.266-3.568-7.05-3.568
	c-2.784,0-5.402,1.325-7.05,3.568l-71.307,97.05c-2.264,3.082-2.264,7.278,0,10.36l71.307,97.051
	c1.648,2.243,4.266,3.568,7.05,3.568s5.402-1.325,7.05-3.568l71.307-97.051C213.303,372.851,213.303,368.656,211.038,365.573z"/>
<path style="fill:#463F5B;" d="M468.647,383.018c0,22.549-18.348,40.897-40.897,40.897c-19.54,0-35.924-13.793-39.946-32.151h-9.864
	v60.573h32.601c2.508,0,4.775,1.066,6.384,2.759c-6.457,5.235-13.176,10.156-20.125,14.743h-68.932
	c-4.827,0-8.746-3.918-8.746-8.756c0-4.827,3.918-8.746,8.746-8.746h32.58v-60.573h-9.864
	c-4.023,18.359-20.396,32.151-39.946,32.151c-22.549,0-40.897-18.348-40.897-40.897c0-22.559,18.348-40.897,40.897-40.897
	c19.55,0,35.924,13.782,39.946,32.141h9.864v-21.734c-18.359-4.023-32.151-20.396-32.151-39.946
	c0-22.549,18.348-40.897,40.897-40.897s40.897,18.348,40.897,40.897c0,19.55-13.782,35.924-32.152,39.946v21.734h9.864
	c4.023-18.359,20.407-32.141,39.946-32.141C450.299,342.12,468.647,360.458,468.647,383.018z"/>
<g>
</g>
<g>
</g>
<g>
</g>
<g>
</g>
<g>
</g>
<g>
</g>
<g>
</g>
<g>
</g>
<g>
</g>
<g>
</g>
<g>
</g>
<g>
</g>
<g>
</g>
<g>
</g>
<g>
</g>
</svg>
