<svg id="Layer_1" enable-background="new 0 0 512 512" height="512" viewBox="0 0 512 512" width="512" xmlns="http://www.w3.org/2000/svg"><g><path d="m467.506 390.699c21.28-36.307 33.492-78.573 33.492-123.697 0-135.309-109.689-244.998-244.998-244.998s-244.998 109.689-244.998 244.998c0 45.124 12.213 87.389 33.493 123.697z" fill="#aa67c6"/><path d="m343.012 60.389c-2.288-1.113-3.697-3.471-3.703-6.014-.026-12.132-5.569-45.197-63.889-53.143-11.872-1.618-26.635-1.664-38.842 0-58.32 7.946-63.863 41.011-63.889 53.143-.006 2.544-1.415 4.902-3.702 6.014-30.336 14.758-13.98 85.883-13.98 85.883 3.047.203 6.235 1.437 8.613 2.589 1.027-6.394 3.324-13.017 6.776-18.433 2.775-4.353 4.038-9.487 3.661-14.62-1.09-14.838-.565-44.076 19.021-52.889 16.593-7.466 36.947-3.143 49.927 1.174 8.429 2.803 17.56 2.803 25.99 0 12.98-4.316 33.334-8.64 49.927-1.174 19.586 8.813 20.111 38.051 19.021 52.889-.377 5.133.886 10.267 3.661 14.62 3.452 5.417 5.749 12.04 6.776 18.433 2.378-1.152 5.567-2.385 8.613-2.589-.001 0 16.355-71.126-13.981-85.883z" fill="#dbdbdb"/><path d="m236.579 1.231c-58.32 7.946-63.863 41.011-63.889 53.143-.006 2.544-1.415 4.902-3.702 6.014-30.336 14.758-13.98 85.883-13.98 85.883 3.047.203 6.235 1.437 8.613 2.589 1.027-6.394 3.324-13.017 6.776-18.433 2.775-4.353 4.038-9.487 3.661-14.62-1.091-14.838-.565-44.076 19.021-52.889 15.547-6.996 34.396-3.641 47.387.36-.108-.21-.207-.426-.319-.634-23.212-43.204 15.777-62.607 15.851-62.644-6.659 0-13.355.404-19.419 1.231z" fill="#c8c8c8"/><path d="m284.084 366.54c-.898.076-25.291 5.187-55.016.194-.338-.093-29.678-4.473-47.173-18.391l-2.688-2.139c.225 2.122.163 15.978 5.398 33.106 7.51 24.569 21.092 75.393 31.367 129.417 13.027 2.141 26.395 3.273 40.028 3.273 14.853 0 29.397-1.324 43.521-3.856 10.261-53.805 23.772-104.352 31.255-128.834 5.635-18.437 5.324-34.981 5.469-36.651-1.262.823-13.085 17.016-52.161 23.881z" fill="#422953"/><path d="m247.201 421.853c-17.599-36.82 8.799-51.344 8.799-51.344l-1.801-1.6c-7.545-.075-16.088-.656-25.131-2.175-.338-.093-29.678-4.472-47.173-18.391l-2.688-2.139c.225 2.122.163 15.978 5.398 33.107 7.51 24.569 21.092 75.393 31.367 129.417 13.027 2.14 26.395 3.272 40.028 3.272.787 0 1.569-.019 2.353-.026 1.244-16.939 2.808-60.915-11.152-90.121z" fill="#30144a"/><path d="m365.883 148.364c-4.542-4.163-13.59-2.053-17.502.496.857 5.337.906 10.797.165 16.189l-4.617 33.624c0 2.71-.085 5.37-.242 7.982 11.257 3.396 16.849-6.711 17.791-13.646.405-2.985 1.068-5.928 1.988-8.8 2.995-9.352 13.797-25.416 2.417-35.845z" fill="#fcad6d"/><path d="m357.333 178.14c-3.796 0-7.29-1.253-10.125-3.348l-3.279 23.881c0 2.71-.085 5.37-.242 7.982 11.257 3.396 16.849-6.711 17.791-13.646.405-2.985 1.069-5.928 1.988-8.8.842-2.63 2.301-5.79 3.712-9.207-2.785 1.97-6.175 3.138-9.845 3.138z" fill="#fd995b"/><path d="m146.117 148.364c4.542-4.163 13.59-2.053 17.503.496-.857 5.337-.906 10.797-.165 16.189l4.617 33.624c0 2.71.085 5.37.242 7.982-11.257 3.396-16.849-6.711-17.791-13.646-.406-2.985-1.068-5.928-1.988-8.8-2.996-9.352-13.798-25.416-2.418-35.845z" fill="#fcad6d"/><path d="m164.86 175.289c-2.705 1.798-5.948 2.85-9.439 2.85-4.161 0-7.972-1.492-10.935-3.965 1.51 3.732 3.139 7.194 4.048 10.034.919 2.872 1.583 5.814 1.988 8.8.942 6.936 6.534 17.042 17.791 13.646-.157-2.613-.242-5.272-.242-7.982z" fill="#fd995b"/><path d="m221.423 325.645c4.385 1.359 6.363 5.391 6.363 9.982v6.299c8.967 2.351 19.239 3.938 28.214 3.938s19.247-1.587 28.214-3.938v-6.299c0-4.591 1.978-8.623 6.363-9.983 11.519-3.572 22.27-8.088 31.031-11.75-5.477-11.4-7.158-26.054-7.54-37.158-5.865 6.832-12.021 12.546-17.903 17.114-11.459 8.899-25.601 13.732-40.166 13.732s-28.706-4.833-40.166-13.732c-5.882-4.568-12.038-10.282-17.903-17.114-.382 11.104-2.064 25.758-7.54 37.158 8.762 3.663 19.513 8.179 31.033 11.751z" fill="#fcad6d"/><path d="m244.772 345.146c6.983-12.24 9.997-25.993 11.18-37.565-14.547-.011-28.67-4.842-40.117-13.731-5.882-4.568-12.038-10.282-17.903-17.114-.382 11.104-2.063 25.758-7.54 37.158 8.761 3.663 19.512 8.179 31.032 11.751 4.385 1.359 6.363 5.392 6.363 9.982v6.299c5.379 1.411 11.227 2.537 16.985 3.22z" fill="#fd995b"/><g><path d="m256 428.335c-37.395 0-72.14-26.92-90.675-70.257-1.674-3.915.142-8.446 4.057-10.121 3.913-1.677 8.447.142 10.121 4.057 16.067 37.565 45.379 60.9 76.498 60.9s60.43-23.335 76.497-60.9c1.675-3.914 6.207-5.732 10.121-4.057 3.915 1.675 5.731 6.205 4.057 10.121-18.536 43.337-53.281 70.257-90.676 70.257z" fill="#ffdd40"/></g><path d="m227.706 339.584v28.489c8.86 1.553 18.378 2.436 28.294 2.436s19.434-.883 28.294-2.436v-28.489c-9.311 2.512-18.95 4.224-28.294 4.224s-18.983-1.711-28.294-4.224z" fill="#e9efff"/><path d="m245.847 343.186-.002-.006c-6.072-.712-12.173-1.986-18.14-3.596v28.488c8.86 1.553 18.377 2.436 28.294 2.436-18.13-9.256-10.152-27.322-10.152-27.322z" fill="#bec8f7"/><path d="m336.174 344.796c.204-10.99-.988-20.26-2.202-26.691l-1.395-2.802c-1.866-3.748-6.312-5.41-10.175-3.796-8.897 3.717-19.963 8.404-31.824 12.081-4.385 1.359-7.391 5.392-7.391 9.982v34.692c24.39-4.093 43.896-13.3 52.987-23.466z" fill="#543e5b"/><path d="m181.024 314.447c.602.479.869 1.215.715 1.97-1.439 7.045-3.026 18.284-2.424 31.799 10.093 8.77 27.878 16.417 49.499 20.046v-34.692c0-4.591-3.006-8.623-7.391-9.983-11.862-3.678-22.929-8.365-31.826-12.083-3.406-1.423-7.263-.297-9.408 2.557.295.066.582.185.835.386z" fill="#422953"/><path d="m160.631 446.478-25.103-5.382c-.513-.111-.918-.488-1.054-.986-1.923-7.009-11.014-44.503-1.115-94.478.026-.13.07-.253.1-.382l-1.151-.945s-38.462 10.466-72.818 32.01c-5.887 3.692-11.122 8.219-15.585 13.383 22.706 39.166 55.945 71.462 95.846 93.011-1.757-1.931-3.546-3.77-5.374-5.484-.415-.389-.453-.852-.439-1.095.014-.242.105-.7.563-1.039l27.858-20.625c1.434-1.062 2.092-2.807 1.715-4.552-.378-1.745-1.698-3.062-3.443-3.436z" fill="#543e5b"/><path d="m86.694 444.066c4.446-34.973 24.537-47.423 34.672-51.52 2.691-1.088 5.204-2.557 7.478-4.339.186-12.613 1.426-26.986 4.513-42.575.026-.13.07-.253.1-.382l-1.151-.945s-38.463 10.466-72.818 32.01c-5.887 3.692-11.122 8.219-15.585 13.383 11.659 20.112 26.102 38.405 42.791 54.368z" fill="#422953"/><path d="m379.657 478.531c36.608-21.447 67.154-52.118 88.439-88.832-4.464-5.165-9.699-9.692-15.585-13.383-29.573-18.545-62.165-28.874-70.673-31.392.06.237.137.468.185.709 9.899 49.974.807 87.468-1.115 94.477-.136.499-.541.876-1.054.987l-25.103 5.382c-1.746.375-3.065 1.692-3.442 3.438-.378 1.745.28 3.49 1.715 4.551l27.858 20.626c.458.339.549.797.563 1.039.014.243-.024.707-.439 1.095-.453.422-.9.865-1.349 1.303z" fill="#665364"/><path d="m381.838 344.923c.06.237.137.468.185.709 9.899 49.974.807 87.468-1.115 94.477-.136.499-.541.876-1.054.987l-25.103 5.382c-1.746.375-3.065 1.692-3.443 3.438-.378 1.745.28 3.49 1.715 4.551l27.858 20.626c.458.339.549.797.563 1.039.014.243-.024.707-.439 1.095-.453.424-.9.867-1.348 1.305 6.901-4.043 13.585-8.415 20.034-13.092 1.062-14.768 3.691-34.316 9.959-53.385 10.812-32.891 34.911-36.371 41.286-36.709-29.145-17.933-60.74-27.949-69.098-30.423z" fill="#543e5b"/><path d="m186.08 378.859c-8.157-26.688-5.16-50.725-2.83-62.133.582-2.848-2.318-5.143-4.961-3.933l-37.673 21.37c-4.557 2.087-7.797 6.254-8.771 11.17-9.875 49.853-1.118 86.949 1.141 95.184.29 1.057 1.146 1.857 2.218 2.087l25.103 5.382c2.476.531 3.169 3.734 1.134 5.241l-27.858 20.626c-1.474 1.091-1.6 3.245-.262 4.499.64.6 1.273 1.219 1.904 1.846 25.061 14.228 52.873 24.164 82.445 28.811-10.857-56.907-25.335-109.684-31.59-130.15z" fill="#665364"/><path d="m132.367 384.996c34.287-36.456 50.637-18.544 50.637-18.544-4.15-21.558-1.717-40.12.245-49.727.582-2.848-2.317-5.143-4.961-3.933l-37.673 21.37c-4.557 2.087-7.797 6.254-8.77 11.171-3.213 16.22-4.446 31.077-4.58 44.041 1.848-1.269 3.559-2.737 5.102-4.378z" fill="#543e5b"/><path d="m355.074 447.986 25.103-5.382c1.072-.23 1.927-1.029 2.217-2.087 2.26-8.236 11.016-45.331 1.142-95.184-.974-4.916-4.214-9.084-8.771-11.17l-37.673-21.37c-2.643-1.21-5.542 1.085-4.961 3.933 2.33 11.408 5.327 35.446-2.83 62.133-6.234 20.397-20.636 72.886-31.481 129.572 30.711-5.283 59.472-16.269 85.138-31.851.126-1.008-.264-2.063-1.16-2.727l-27.858-20.626c-2.035-1.507-1.342-4.71 1.134-5.241z" fill="#665364"/><g><path d="m358.047 420.882h-10.524c-4.258 0-7.71-3.452-7.71-7.71 0-4.259 3.452-7.71 7.71-7.71h10.524c4.258 0 7.71 3.452 7.71 7.71s-3.452 7.71-7.71 7.71z" fill="#e9efff"/></g><path d="m346.081 138.288c-3.284-8.568-8.374-12.116-7.617-22.57 2.721-37.554-10.945-49.493-19.333-53.267-16.445-7.399-36.429-3.457-50.298 1.154-8.276 2.753-17.393 2.753-25.669 0-13.868-4.61-33.849-8.554-50.298-1.154-8.404 3.781-22.089 15.747-19.323 53.396.753 10.243-4.26 13.79-7.527 22.186-3.284 8.439-4.347 17.803-3.073 27.08l4.613 33.561c0 55.439 33.541 87.469 47.963 98.666 23.657 18.373 57.132 18.507 80.961 0 14.421-11.198 47.962-43.229 47.957-98.596l4.617-33.624c1.263-9.186.234-18.465-2.973-26.832z" fill="#f9ba8f"/><g><path d="m263.212 297.339c-14.421-11.197-47.963-43.227-47.963-98.666l-4.613-33.561c-1.274-9.277-.211-18.641 3.073-27.08 3.267-8.396 8.281-11.943 7.527-22.186-2.721-37.045 10.48-49.218 18.91-53.201-13.648-4.149-31.988-7.074-47.28-.195-8.404 3.781-22.088 15.747-19.322 53.396.754 10.243-4.26 13.79-7.528 22.186-3.284 8.439-4.347 17.803-3.073 27.08l4.613 33.561c0 55.439 33.541 87.469 47.963 98.666 18.537 14.397 43.101 17.591 64.33 9.397-5.876-2.267-11.49-5.399-16.637-9.397z" fill="#fcad6d"/></g><g><path d="m256 512c-4.86 0-8.799-3.939-8.799-8.8v-81.348c0-4.86 3.94-8.8 8.799-8.8 4.86 0 8.8 3.939 8.8 8.8v81.348c0 4.861-3.94 8.8-8.8 8.8z" fill="#ffc839"/></g><g><path d="m283.567 458.672h-55.135c-4.86 0-8.8-3.939-8.8-8.8 0-4.86 3.94-8.799 8.8-8.799h55.135c4.86 0 8.8 3.939 8.8 8.799 0 4.861-3.94 8.8-8.8 8.8z" fill="#ffdd40"/></g><path d="m257.726 449.873c0-4.86 3.94-8.799 8.8-8.799h-38.093c-4.86 0-8.799 3.939-8.799 8.799s3.94 8.8 8.799 8.8h38.093c-4.86-.001-8.8-3.94-8.8-8.8z" fill="#ffc839"/><g fill="#b875db"><path d="m401.16 69.636c9.87 22.509 17.927 63.259-6.98 122.954-29.174 69.923-29.01 97.05 15.47 111.05 30.064 9.462 61.213 19.599 78.25 42.547 8.484-24.839 13.098-51.471 13.098-79.184 0-80.974-39.291-152.76-99.838-197.367z"/><path d="m110.84 69.636c-9.87 22.509-17.927 63.259 6.98 122.954 29.174 69.923 29.01 97.05-15.47 111.05-30.063 9.462-61.213 19.599-78.25 42.547-8.484-24.839-13.098-51.471-13.098-79.184 0-80.974 39.291-152.76 99.838-197.367z"/></g></g></svg>