<svg id="Layer_1" enable-background="new 0 0 512 512" height="512" viewBox="0 0 512 512" width="512" xmlns="http://www.w3.org/2000/svg"><g><path d="m256.965 365.816c156.152 0 224.124-106.488 240.877-138.132-18.814-116.614-119.919-205.68-241.842-205.68-121.771 0-222.775 88.845-241.771 205.245 16.725 31.097 85.869 138.567 242.736 138.567z" fill="#422953"/><path d="m202.935 328.683c-20.899-22.385-39.555-35.621-51.786-42.876-8.872-5.263-19.014-8.051-29.328-7.874-.051.001-.102.002-.153.003-50.836.911-86.035-27.958-107.022-53.204-2.388 13.733-3.645 27.854-3.645 42.27 0 50.41 15.237 97.254 41.343 136.201z" fill="#a0f1fe"/><path d="m350.116 179.34h-188.232c-30.033 68.515 17.134 69.231 17.134 95.603 0 18.155 29.566 31.56 55.443 28.211 14.287-1.849 28.791-1.849 43.078 0 25.877 3.35 55.443-10.055 55.443-28.211 0-26.372 47.167-27.088 17.134-95.603z" fill="#b06428"/><path d="m323.025 224.732-113.652-45.392h-47.49c-30.033 68.515 17.134 69.231 17.134 95.603 0 18.155 29.566 31.56 55.443 28.211 14.287-1.849 28.791-1.849 43.078 0 25.877 3.35 55.443-10.055 55.443-28.211 0-11.599 9.123-18.236 16.79-27.86-32.252 0-26.746-22.351-26.746-22.351z" fill="#985326"/><path d="m459.655 403.203c26.106-38.947 41.343-85.791 41.343-136.201 0-14.416-1.256-28.537-3.645-42.27-20.987 25.246-56.186 54.114-107.022 53.204-.051-.001-.102-.002-.153-.003-10.314-.177-20.456 2.612-29.328 7.874-12.23 7.255-30.887 20.49-51.786 42.876z" fill="#a0f1fe"/><path d="m497.353 224.732c-20.987 25.246-56.186 54.114-107.022 53.204-.051-.001-.102-.002-.153-.003-10.314-.177-20.456 2.612-29.328 7.874-12.23 7.255-30.887 20.49-51.786 42.876l92.311 45.68 21.635-21.886s-17.151-29.727 37.607-48.809c19.983-6.963 32.436-17.122 40.202-27.218.119-3.135.179-6.284.179-9.448 0-14.416-1.256-28.537-3.645-42.27z" fill="#66e9ff"/><path d="m14.647 224.732c20.987 25.246 56.186 54.114 107.022 53.204l.153-.003c10.314-.177 20.456 2.612 29.328 7.874 12.23 7.255 30.887 20.49 51.786 42.876l-92.311 45.68-21.635-21.886s17.151-29.727-37.607-48.809c-19.983-6.963-32.436-17.122-40.201-27.218-.119-3.135-.179-6.284-.179-9.448-.001-14.416 1.255-28.537 3.644-42.27z" fill="#66e9ff"/><g><path d="m176.993 334.629v9.768c0 23.57 19.107 42.678 42.678 42.678h72.658c23.57 0 42.678-19.107 42.678-42.678v-9.768c0-1.678.642-3.15 1.661-4.246-8.721-3.882-14.966-7.955-18.203-9.841-19.406-14.13-18.871-28.428-18.871-42.284-10.568 9.448-28.568 21.435-43.594 22.165-15.025-.73-33.025-12.717-43.594-22.165 0 13.855.536 28.154-18.871 42.284-3.237 1.886-9.482 5.959-18.203 9.841 1.02 1.096 1.661 2.568 1.661 4.246z" fill="#f9ba8f"/></g><path d="m254.483 300.311c-14.704-1.418-31.862-12.921-42.076-22.052 0 13.855.536 28.154-18.871 42.284-3.237 1.886-9.482 5.959-18.203 9.841 1.019 1.096 1.661 2.568 1.661 4.246v9.768c0 13.28 6.067 25.143 15.579 32.97 1.115-.069 2.05-.032 2.66.016.61.049 1.225.031 1.83-.058 41.177-6.015 53.684-52.731 57.42-77.015z" fill="#fcad6d"/><path d="m179.689 156.109c-6.591 4.935-13.053 7.221-17.513 5.943-1.938-.555-3.353-1.767-4.23-3.611-4.465 8.478.819 19.373 3.541 26.613.964 2.565 1.587 5.159 1.868 7.759.611 5.647 3.673 13.914 16.37 13.718-.192-.813-.389-1.614-.576-2.442-.001 0-4.696-29.75.54-47.98z" fill="#f9ba8f"/><g><path d="m177.221 179.6c-2.218 1.355-4.815 2.15-7.605 2.15-4.647 0-8.779-2.175-11.458-5.554 1.064 3.233 2.357 6.278 3.327 8.857.964 2.565 1.587 5.159 1.868 7.759.611 5.647 3.673 13.914 16.37 13.718-.192-.813-.389-1.615-.576-2.442.001 0-1.803-11.446-1.926-24.488z" fill="#fcad6d"/></g><path d="m337 159.621c-1.099-1.817-2.185-3.52-3.26-5.116-.575.292-1.125.599-1.62.929 5.55 18.161.731 48.655.731 48.655-.188.827-.384 1.628-.576 2.442 12.697.195 15.758-8.071 16.37-13.718.281-2.6.903-5.194 1.868-7.759 2.447-6.509 6.97-15.973 4.614-23.978-4.148 6.164-13.046 6.933-18.127-1.455z" fill="#f9ba8f"/><g><path d="m343.954 181.75c-3.471 0-6.656-1.215-9.164-3.236-.03 13.486-1.938 25.575-1.938 25.575-.188.827-.384 1.628-.576 2.442 12.696.195 15.758-8.071 16.37-13.718.281-2.6.903-5.194 1.868-7.759.725-1.928 1.631-4.12 2.488-6.452-2.491 1.965-5.629 3.148-9.048 3.148z" fill="#fcad6d"/></g><path d="m256 512c85.547 0 160.839-43.856 204.659-110.3-1.002-6.224-2.145-10.908-3.461-13.541-16.288-32.577-44.876-41.673-57.902-44.174-.133-.022-29.511-1.47-54.46-10.342v10.335c0 29.401-24.055 53.456-53.456 53.456h-70.76c-29.401 0-53.456-24.055-53.456-53.456v-10.334c-24.949 8.871-54.327 10.319-54.461 10.342-13.026 2.501-41.613 11.597-57.902 44.174-1.316 2.633-2.46 7.317-3.461 13.541 43.821 66.443 119.113 110.299 204.66 110.299z" fill="#e9efff"/><path d="m123.525 473.111c0-9.28 0-20.961 0-34.361 0-27.508 35.341-39.601 49.438-43.331 3.186-.843 5.536-3.445 6.221-6.669.677-3.185 1.969-5.491 3.546-7.163-9.607-9.677-15.566-22.98-15.566-37.61v-10.334c-24.949 8.871-54.327 10.319-54.461 10.342-13.026 2.501-41.613 11.597-57.902 44.174-1.317 2.633-2.46 7.317-3.461 13.541 18.818 28.532 43.442 52.893 72.185 71.411z" fill="#dae2fe"/><path d="m352.318 332.538c-3.577-1.047-7.131-2.227-10.571-3.56-.152-.059-.304-.118-.456-.178-4.013-1.576-8.35 1.353-8.35 5.664v9.513c0 22.954-18.608 41.562-41.562 41.562h-70.759c-22.954 0-41.562-18.608-41.562-41.562v-9.513c0-4.311-4.337-7.24-8.35-5.664-.151.059-.303.119-.456.178-3.44 1.332-6.995 2.513-10.571 3.56-2.609.763-4.411 3.138-4.411 5.856v5.584c0 36.091 29.258 65.349 65.349 65.349h70.759c36.091 0 65.349-29.258 65.349-65.349v-5.584c.002-2.718-1.8-5.093-4.409-5.856z" fill="#ffdd40"/><path d="m179.058 343.978v-9.513c0-4.311-4.337-7.24-8.35-5.664-.151.059-.303.119-.456.178-3.44 1.332-6.995 2.513-10.571 3.56-2.609.763-4.411 3.138-4.411 5.856v5.584c0 19.408 8.469 36.83 21.902 48.799.981-1.126 1.687-2.502 2.011-4.027 2.468-11.605 13.069-11.605 16.048-11.367.228.018.456.017.684.017-10.224-7.572-16.857-19.722-16.857-33.423z" fill="#ffc839"/><path d="m256 133.981c-24.684 0-34.948-11.059-39.211-20.337-1.474-3.205-6.245-2.866-7.202.66-4.241 15.62-15.622 28.318-23.814 36.511-2.371 2.371-4.801 4.411-7.201 6.103-4.871 18.287-.305 47.171-.305 47.171 5.887 25.976 14.087 45.272 22.363 59.435 9.792 16.758 24.854 29.814 42.714 37.541 8.024 3.471 17.256 3.485 25.311 0 17.859-7.727 32.921-20.783 42.714-37.541 8.276-14.163 16.476-33.459 22.363-59.435 0 0 5.66-35.814-2.35-52.932-20.776-28.237-38.244-17.176-75.382-17.176z" fill="#f9d0b4"/><g><path d="m250.078 263.524c-8.276-14.163-16.477-33.459-22.363-59.435 0 0-1.646-10.416-1.907-22.699-.271-12.793 4.615-25.117 13.34-34.477 3.645-3.91 7.278-8.425 10.479-13.199-20.122-1.731-28.961-11.635-32.837-20.07-1.474-3.205-6.245-2.866-7.202.66-4.241 15.62-15.622 28.318-23.814 36.511-2.371 2.371-4.801 4.411-7.201 6.103-4.871 18.287-.305 47.171-.305 47.171 5.887 25.976 14.088 45.272 22.364 59.435 9.792 16.758 24.854 29.814 42.713 37.541 8.024 3.471 17.256 3.485 25.312 0 4.189-1.813 8.218-3.929 12.068-6.307-12.563-7.761-23.152-18.408-30.647-31.234z" fill="#f9ba8f"/></g><path d="m358.654 151.907c-1.667-24.497-4.573-74.017-29.37-91.636-32.239-22.907-96.476-41.592-123.741-7.803-2.014 2.496-4.727 4.316-7.823 5.153-7.795 2.105-25.65 8.215-33.197 24.822-10.411 22.906-10.493 65.929-8.549 74.298 2.54 10.937 16.932 8.81 30.735-4.992 8.078-8.078 19.829-21.164 24.155-37.099.241-.885.919-1.583 1.807-1.814 1.173-.306 2.412.258 2.919 1.36 4.337 9.438 14.864 21.107 40.412 21.107 42.889 0 55.378-12.921 79.675 24.668 0 0 .066.121.197.337 7.69 12.702 23.788 6.415 22.78-8.401z" fill="#b06428"/><path d="m205.542 52.467c-2.014 2.496-4.727 4.316-7.823 5.153-7.795 2.105-25.65 8.215-33.197 24.822-10.411 22.906-10.493 65.929-8.549 74.298 2.54 10.937 16.932 8.81 30.735-4.992 8.078-8.078 19.829-21.164 24.155-37.099.241-.885.919-1.583 1.807-1.814 1.173-.305 2.412.258 2.919 1.36 3.981 8.664 13.189 19.202 34.438 20.872-.116-.455-.242-.909-.4-1.354-11.899-33.536 41.899-24.797 22.399-53.464-12.528-18.417 4.15-43.182 4.15-43.182-27.027-6.107-54.948-4.038-70.634 15.4z" fill="#985326"/><g><path d="m256 68.374c-29.281 0-56.908-2.724-77.79-7.67-25.678-6.082-38.16-14.756-38.16-26.517 0-15.314 21.881-21.918 29.072-24.089 15.32-4.624 35.868-7.831 59.422-9.275 4.819-.312 9.035 3.398 9.332 8.255.298 4.856-3.398 9.035-8.255 9.332-45.094 2.763-66.656 11.338-71.342 15.751 2.439 2.204 10.262 6.588 28.644 10.432 18.997 3.972 43.529 6.16 69.077 6.16 25.366 0 49.766-2.16 68.706-6.083 4.769-.982 9.427 2.075 10.414 6.84s-2.075 9.427-6.84 10.414c-20.08 4.16-45.75 6.45-72.28 6.45z" fill="#ffc839"/></g><g><path d="m326.484 62.11c-4.089 0-7.755-2.863-8.617-7.025-.987-4.765 2.075-9.427 6.84-10.414 18.572-3.847 26.498-8.253 28.986-10.484-2.47-2.212-10.303-6.577-28.616-10.407-18.997-3.972-43.528-6.16-69.076-6.16-8.935 0-17.81.266-26.379.791-4.858.28-9.035-3.399-9.332-8.255-.297-4.857 3.398-9.035 8.255-9.332 8.926-.547 18.162-.824 27.455-.824 11.868 0 115.949.959 115.949 34.187 0 12.578-14.284 21.652-43.669 27.738-.602.125-1.203.185-1.796.185z" fill="#ffdd40"/></g><path d="m428.266 441.181c-6.468-9.991-12.863-17.598-18.459-23.271-6.704-6.796-18.282-1.997-18.282 7.549v45.654c13.204-8.787 25.508-18.819 36.741-29.932z" fill="#dae2fe"/></g></svg>