<svg id="Layer_1" enable-background="new 0 0 512 512" height="512" viewBox="0 0 512 512" width="512" xmlns="http://www.w3.org/2000/svg"><g><path d="m463.66 397.035c23.649-37.687 37.337-82.258 37.337-130.033 0-135.309-109.689-244.998-244.998-244.998s-244.997 109.69-244.997 244.998c0 47.775 13.689 92.346 37.337 130.033z" fill="#c15655"/><path d="m411.231 368.848c20.569-50.652-1.439-54.977-35.794-89.331-27.338-27.338-14.751-56.89-14.198-103.1-30.134 4.033-66.317 6.384-105.239 6.384s-75.105-2.352-105.239-6.384c.553 46.21 13.139 75.762-14.198 103.1-34.355 34.354-56.363 38.679-35.794 89.331z" fill="#fceca9"/><path d="m361.239 176.417c-30.135 4.033-66.317 6.384-105.239 6.384s-75.104-2.352-105.239-6.384c.553 46.21 13.139 75.762-14.198 103.1-34.354 34.354-56.364 38.679-35.794 89.331h172.27c17.903-11.683 32.405-26.417 38.671-44.883 23.528-69.329 63.727-44.448 63.727-44.448-27.337-27.338-14.751-56.889-14.198-103.1z" fill="#f4d99d"/><path d="m339.688 178.815c.41 15.861-2.015 31.209-2.015 31.209-.199.879-.408 1.73-.612 2.595 13.493.208 16.747-8.577 17.397-14.579.299-2.763.96-5.52 1.985-8.245 1.431-3.806 3.527-8.563 4.709-13.49-6.849.927-14.021 1.765-21.464 2.51z" fill="#fcad6d"/><g><path d="m349.882 191.315c-4.461 0-8.311-2.579-10.168-6.321-.211 13.443-2.041 25.031-2.041 25.031-.199.879-.408 1.73-.612 2.595 13.493.208 16.747-8.577 17.397-14.579.298-2.763.96-5.52 1.985-8.245.099-.262.207-.539.311-.81-1.909 1.454-4.286 2.329-6.872 2.329z" fill="#fd995b"/></g><path d="m172.312 178.815c-7.443-.745-14.615-1.583-21.464-2.51 1.182 4.926 3.278 9.684 4.709 13.49 1.025 2.726 1.686 5.483 1.985 8.245.65 6.002 3.904 14.786 17.397 14.579-.204-.865-.413-1.716-.612-2.595 0 0-2.424-15.347-2.015-31.209z" fill="#fcad6d"/><g><path d="m174.327 210.024s-1.814-11.489-2.038-24.857c-1.889 3.649-5.692 6.147-10.084 6.147-2.641 0-5.065-.909-6.994-2.421.117.303.236.61.346.902 1.025 2.726 1.686 5.483 1.985 8.245.65 6.002 3.904 14.786 17.397 14.579-.204-.864-.412-1.715-.612-2.595z" fill="#fd995b"/></g><path d="m200.29 323.965c3.043 8.429 15.566 39.28 40.701 54.605 1.817 1.109 2.305 3.566.893 5.222l-1.008 1.184 16.811 11.59c.549-.665 2.408-3.988 6.75-6.979l6.687-4.611-1.008-1.184c-1.414-1.659-.921-4.114.894-5.222 25.134-15.326 37.658-46.176 40.699-54.605-9.728-11.787-9.381-23.596-9.381-35.117-11.231 10.04-30.361 22.78-46.328 23.555-15.968-.776-35.098-13.515-46.329-23.555.001 11.521.347 23.331-9.381 35.117z" fill="#fcad6d"/><path d="m256 312.403c-15.968-.776-35.098-13.515-46.329-23.555 0 11.521.347 23.331-9.382 35.117 2.826 7.829 13.839 34.994 35.531 51.102 15.283-12.586 20.699-43.876 22.606-62.878-.814.098-1.625.175-2.426.214z" fill="#fd995b"/><g><path d="m256 182.802c-30.406 0-59.138-1.436-84.625-3.987-.409 15.862 2.016 31.21 2.016 31.21 6.256 27.605 14.971 48.112 23.766 63.164 10.406 17.809 26.413 31.684 45.393 39.896 8.527 3.689 18.338 3.703 26.899 0 18.98-8.212 34.987-22.086 45.393-39.896 8.795-15.052 17.51-35.558 23.766-63.164 0 0 2.425-15.348 2.016-31.21-25.486 2.55-54.218 3.987-84.624 3.987z" fill="#f9ba8f"/></g><g><path d="m254.964 273.188c-8.795-15.052-17.51-35.558-23.766-63.164 0 0-2.068-13.102-2.061-27.604-20.484-.583-39.92-1.82-57.762-3.605-.409 15.862 2.016 31.21 2.016 31.21 6.256 27.605 14.971 48.112 23.766 63.164 10.406 17.809 26.413 31.684 45.393 39.896 8.527 3.689 18.338 3.703 26.899 0 5.417-2.344 10.582-5.164 15.454-8.39-12.196-8.079-22.503-18.781-29.939-31.507z" fill="#fcad6d"/></g><path d="m250.906 427.799 3.433 6.58c.666 1.275 2.497 1.373 3.263.101.539-.893 1.137-2.095 1.849-3.508v-34.896l-16.498-11.374-19.135 8.592v5.424c10.631 9.711 19.841 15.19 27.088 29.081z" fill="#bec8f7"/><path d="m254.339 434.379c.666 1.275 2.497 1.373 3.263.101 2.454-4.064 5.97-14.224 17.056-23.974l13.523-11.89v-5.322l-19.135-8.592-5.407 3.728c-6.944 4.787-11.091 12.683-11.091 21.117v21.4z" fill="#dae2fe"/><path d="m241.722 377.371c-25.794-15.728-38.003-47.751-40.395-54.665l-1.203 1.703c-2.188 9.968-2.606 30.691 19.331 57.343 2.995 3.64 3.738 8.641 1.936 13.054-.292.714-.116 1.532.443 2.065 2.085 1.984 4.117 3.78 6.095 5.482l15.024-17.65c1.955-2.297 1.343-5.762-1.231-7.332z" fill="#e9efff"/><path d="m310.656 322.757c-2.432 7.013-14.643 38.923-40.378 54.615-2.575 1.57-3.186 5.035-1.232 7.331l14.965 17.58 6.099-5.363c.6-.527.799-1.375.497-2.114-1.801-4.412-1.06-9.414 1.936-13.053 21.718-26.385 21.524-46.956 19.396-57.036z" fill="#e9efff"/><path d="m408.285 358.697c-.113-.019-20.095-1.008-41.652-6.22 1.529 1.786 2.495 4.036 2.695 6.484 1.22 14.893 4.31 64.451-7.129 76.865-1.67 1.812-3.528 2.694-5.68 2.694-16.052 0-46.189-24.104-62.725-38.471-1.768-1.536-3.029-3.458-3.781-5.537l-16.592 14.589c-5.722 5.032-10.465 11.077-13.99 17.833l-5.409 10.367c-4.657 8.926-7.089 18.844-7.089 28.912v45.604c3.01.11 6.028.184 9.065.184 87.956 0 165.072-46.359 208.285-115.965-17.664-26.86-43.533-34.945-55.998-37.339z" fill="#543e5b"/><path d="m252.567 426.933c-3.525-6.756-8.268-12.801-13.99-17.833l-16.592-14.59c-.752 2.08-2.013 4.001-3.781 5.538-16.536 14.368-46.673 38.471-62.725 38.471-2.152 0-4.009-.882-5.68-2.694-11.439-12.414-8.349-61.971-7.129-76.865.2-2.448 1.166-4.697 2.695-6.484-21.557 5.211-41.538 6.201-41.651 6.22-12.465 2.394-38.333 10.479-55.999 37.338 43.214 69.608 120.33 115.966 208.285 115.966 3.036 0 6.055-.075 9.065-.184v-45.604c0-10.068-2.432-19.986-7.089-28.912z" fill="#422953"/><path d="m93.606 450.425c6.15-36.947 46.605-48.142 46.605-48.142s.519-.151 1.42-.432c-.808-16.879.384-34.887 1.039-42.889.201-2.448 1.166-4.697 2.696-6.484-21.557 5.211-41.538 6.201-41.651 6.22-12.465 2.394-38.333 10.479-55.999 37.338 12.602 20.299 28.093 38.617 45.89 54.389z" fill="#30144a"/><path d="m308.068 318.801s13.146 25.175-16.969 61.761c-5.083 6.175-4.262 15.3 1.776 20.547 16.503 14.34 47.095 38.815 63.645 38.815 19.086 0 15.999-59.215 14.209-81.077-.392-4.784-3.419-8.943-7.853-10.784-10.637-4.415-31.911-14.089-54.808-29.262z" fill="#665364"/><path d="m203.932 318.801s-13.146 25.175 16.969 61.761c5.083 6.175 4.262 15.3-1.776 20.547-16.503 14.34-47.095 38.815-63.645 38.815-19.086 0-15.999-59.215-14.209-81.077.392-4.784 3.419-8.943 7.853-10.784 10.637-4.415 31.911-14.089 54.808-29.262z" fill="#665364"/><path d="m203.932 318.801c-22.897 15.173-44.171 24.847-54.809 29.262-4.433 1.84-7.461 6-7.853 10.784-.806 9.845-1.874 27.262-1.063 43.437l.004-.001s37.539-10.866 48.872-27.215 22.016-8.387 22.016-8.387c-17.06-28.921-7.167-47.88-7.167-47.88z" fill="#543e5b"/><circle cx="243.677" cy="460.071" fill="#665364" r="8.872"/><ellipse cx="256" cy="146.478" fill="#665364" rx="190.107" ry="38.197"/><path d="m65.893 146.478c0 19.414 72.088 35.444 165.415 37.876-44.422-18.281-34.96-33.144-26.767-39.763 2.386-1.927 2.779-5.465.751-7.765-7.019-7.96-6.981-20.813-6.516-26.783-77.028 4.88-132.883 19.346-132.883 36.435z" fill="#543e5b"/><path d="m156.725 98.677c65.021 17.541 133.529 17.541 198.549 0 .143-.039.276-.096.417-.139-9.062-41.269-31.414-109.41-78.828-97.066l-3.136 1.153c-11.444 4.207-24.012 4.207-35.456 0l-3.136-1.153c-47.414-12.344-69.766 55.797-78.828 97.066.142.043.275.101.418.139z" fill="#543e5b"/><path d="m156.725 98.677c13.964 3.767 28.089 6.72 42.306 8.869.062-.474.105-.742.105-.742 6.388-74.614 39.136-104.179 39.136-104.179l-3.136-1.153c-47.414-12.344-69.766 55.797-78.828 97.066.141.043.274.101.417.139z" fill="#422953"/><path d="m355.078 95.794c-1.426 1.252-3.148 2.205-5.092 2.729-61.557 16.607-126.416 16.607-187.973 0-1.943-.524-3.665-1.477-5.091-2.729-1.87 8.218-3.235 15.519-4.173 21.111-1.086 6.474 2.926 12.707 9.264 14.417 61.557 16.607 126.416 16.607 187.973 0 6.338-1.71 10.35-7.943 9.264-14.417-.937-5.591-2.302-12.893-4.172-21.111z" fill="#422953"/><path d="m199.168 106.464c-12.481-1.991-24.884-4.63-37.154-7.94-1.944-.524-3.666-1.477-5.092-2.729-1.87 8.218-3.235 15.519-4.173 21.111-1.086 6.474 2.926 12.707 9.264 14.417 14.695 3.965 29.579 6.971 44.56 9.043.015-1.258-.382-2.52-1.281-3.54-9.381-10.638-6.156-30.022-6.156-30.022.011-.115.022-.226.032-.34z" fill="#30144a"/><path d="m357.885 90.853c10.782 1.363 20.094-1.239 24.779-2.957 1.168-.428 2.296.727 1.843 1.886-4.215 10.792-4.799 22.118-4.799 22.118-2.245 26.676-27.112 26.514-38.321 25.056-3.339-.434-6.011-3.012-6.524-6.34-3.535-22.944 8.605-41.585 23.022-39.763z" fill="#81c66d"/><path d="m334.864 130.616c.513 3.328 3.185 5.906 6.524 6.34 11.209 1.458 36.075 1.62 38.321-25.056-23.541 2.15-21.824-21.046-21.824-21.046-14.417-1.823-26.557 16.818-23.021 39.762z" fill="#5aab5f"/><path d="m327.37 91.647c-10.083 0-16.631 10.622-12.102 19.63l5.372 10.683c1.849-1.476 4.186-2.365 6.73-2.365s4.882.889 6.73 2.365l5.372-10.683c4.529-9.008-2.019-19.63-12.102-19.63z" fill="#fcf4d9"/><path d="m339.472 149.534-5.372-10.683c-1.849 1.476-4.186 2.365-6.73 2.365s-4.882-.889-6.73-2.365l-5.372 10.683c-4.529 9.008 2.019 19.631 12.102 19.631 10.083-.001 16.631-10.623 12.102-19.631z" fill="#fceca9"/><path d="m316.56 130.406c0-4.566 2.85-8.471 6.861-10.053l-6.565-9.992c-5.536-8.426-18.01-8.067-23.052.666-5.041 8.732.884 19.714 10.95 20.296l11.939.69c-.079-.527-.133-1.06-.133-1.607z" fill="#fceca9"/><path d="m349.987 129.489-11.939-.689c.079.525.133 1.059.133 1.606 0 4.566-2.85 8.471-6.861 10.053l6.565 9.992c5.536 8.427 18.01 8.067 23.051-.665 5.042-8.733-.883-19.715-10.949-20.297z" fill="#fcf4d9"/><path d="m316.56 130.406c0-.547.054-1.081.133-1.606l-11.939.689c-10.066.582-15.991 11.564-10.95 20.296 5.042 8.732 17.515 9.092 23.052.665l6.565-9.992c-4.011-1.581-6.861-5.486-6.861-10.052z" fill="#f4d99d"/><path d="m360.936 111.026c-5.042-8.732-17.515-9.092-23.051-.666l-6.565 9.992c4.011 1.582 6.861 5.487 6.861 10.053 0 .547-.054 1.081-.133 1.606l11.939-.69c10.066-.581 15.991-11.563 10.949-20.295z" fill="#fcf4d9"/><circle cx="327.37" cy="130.406" fill="#ffc839" r="11.601"/><path d="m335.863 127.761c0 3.204-2.597 5.801-5.801 5.801s-5.801-2.597-5.801-5.801 2.597-5.801 5.801-5.801c3.204.001 5.801 2.598 5.801 5.801z" fill="#ffdd40"/><path d="m479.603 166.742c-8.707 9.471-23.318 21.665-44.223 27.168-36.667 9.653-49.667 39.32-22 66.986 27.667 27.667 37.38 48.303 40.667 66 2.556 13.766 15.555 25.903 30.301 29.029 10.748-27.565 16.65-57.553 16.65-88.923 0-35.722-7.651-69.656-21.395-100.26z" fill="#e1715a"/><path d="m32.397 166.742c8.707 9.471 23.318 21.665 44.223 27.168 36.667 9.653 49.667 39.32 22 66.986-27.667 27.667-37.38 48.303-40.667 66-2.556 13.766-15.555 25.903-30.302 29.029-10.748-27.565-16.65-57.553-16.65-88.923.001-35.722 7.653-69.656 21.396-100.26z" fill="#e1715a"/><path d="m410.575 430.77c-4.936-3.786-12.065-.271-12.065 5.95v29.57c9.167-6.568 17.86-13.754 26.022-21.495-5.193-6.491-9.961-10.96-13.957-14.025z" fill="#422953"/></g></svg>