<svg id="Layer_1" enable-background="new 0 0 512 512" height="512" viewBox="0 0 512 512" width="512" xmlns="http://www.w3.org/2000/svg"><g><path d="m498.213 229.966c-17.853-117.735-119.495-207.962-242.213-207.962-122.688 0-224.311 90.183-242.201 207.875l114.238 246.076c37.244 22.857 81.061 36.045 127.963 36.045 51.517 0 99.311-15.914 138.76-43.075z" fill="#422953"/><path d="m498.441 298.977c-2.116-5.506-1.673-11.746 1.355-16.933.161-.276.312-.559.466-.839l.556-5.426c.106-2.914.18-5.836.18-8.777 0-13.176-1.053-26.105-3.056-38.719-2.67-3.924-5.859-7.434-9.464-10.43-5.439-4.52-8.03-11.637-6.768-18.596 2.054-11.338.26-23.433-5.954-34.195-6.213-10.761-15.791-18.363-26.637-22.253-6.657-2.388-11.525-8.189-12.721-15.159-1.948-11.357-7.77-22.11-17.29-30.097-9.54-8.005-21.17-11.871-32.717-11.8-7.044.043-13.568-3.775-17.061-9.892-5.715-10.007-14.864-18.121-26.543-22.371-11.677-4.25-23.899-3.917-34.709.075-6.634 2.45-14.092 1.135-19.489-3.436-8.791-7.449-20.163-11.943-32.589-11.943s-23.798 4.494-32.591 11.942c-5.396 4.571-12.855 5.886-19.489 3.437-10.81-3.992-23.032-4.325-34.709-.075-11.678 4.25-20.827 12.364-26.542 22.371-3.494 6.118-10.017 9.936-17.061 9.893-11.547-.071-23.177 3.795-32.717 11.8-9.519 7.988-15.342 18.74-17.29 30.097-1.196 6.97-6.063 12.771-12.72 15.159-10.846 3.89-20.424 11.492-26.637 22.253-6.213 10.762-8.008 22.857-5.954 34.195 1.26 6.958-1.33 14.075-6.768 18.595-3.605 2.997-6.794 6.506-9.464 10.431-2.003 12.613-3.056 25.542-3.056 38.718 0 2.94.074 5.863.18 8.777l.556 5.426c.154.28.305.563.466.839 3.028 5.187 3.471 11.427 1.355 16.933l.976 9.524c2.093 12.27 5.082 24.234 8.928 35.81.207-.081.411-.155.619-.237 18.039-7.085 36.206-12.677 53.998-16.622 6.087-1.344 13.476.126 17.971 3.588 1.654 1.274 3.65 3.393 3.765 6.25.006.138.026.273.059.407l10.196 40.088c.267 1.048 1.331 1.684 2.381 1.428 4.622-1.137 9.45-2.586 14.415-4.313-.891-2.231-1.943-4.428-3.179-6.57-3.021-5.233-6.838-9.718-11.209-13.393-5.561-4.676-8.171-11.847-6.917-19.003.986-5.625 1.027-11.515-.022-17.465-1.049-5.949-3.102-11.469-5.953-16.418-3.626-6.295-3.626-13.927 0-20.223 2.851-4.949 4.904-10.469 5.953-16.419 1.049-5.949 1.008-11.839.022-17.464-1.254-7.156 1.356-14.328 6.917-19.003 4.371-3.675 8.188-8.16 11.209-13.393 3.021-5.232 4.997-10.78 5.994-16.403 1.268-7.153 6.174-13 12.999-15.491 5.365-1.959 10.485-4.868 15.113-8.752 4.628-3.883 8.383-8.421 11.243-13.364 3.639-6.288 10.248-10.104 17.514-10.111 5.711-.006 11.518-.988 17.195-3.055 5.677-2.066 10.757-5.046 15.136-8.713 5.569-4.665 13.085-5.99 19.915-3.512 5.369 1.948 11.161 3.011 17.203 3.011s11.834-1.063 17.203-3.011c6.83-2.478 14.345-1.153 19.915 3.512 4.378 3.667 9.459 6.646 15.136 8.713s11.484 3.049 17.196 3.055c7.265.008 13.875 3.824 17.513 10.112 2.861 4.943 6.614 9.48 11.242 13.364 4.629 3.884 9.749 6.793 15.114 8.752 6.824 2.491 11.73 8.338 12.999 15.491.997 5.623 2.973 11.171 5.994 16.403 3.02 5.233 6.837 9.718 11.208 13.393 5.561 4.675 8.172 11.847 6.917 19.003-.986 5.625-1.027 11.514.022 17.464s3.102 11.47 5.952 16.419c3.626 6.295 3.626 13.927 0 20.223-2.85 4.949-4.903 10.469-5.952 16.418-1.049 5.95-1.008 11.839-.022 17.465 1.254 7.156-1.357 14.328-6.917 19.003-4.371 3.676-8.188 8.16-11.208 13.393-1.199 2.076-2.226 4.204-3.1 6.365 5.599 1.965 10.318 3.53 14.335 4.518 1.052.257 2.115-.38 2.381-1.428l10.196-40.089c.034-.134.053-.27.059-.407.114-2.838 2.134-4.971 3.808-6.26 4.554-3.506 11.76-4.944 17.928-3.576 17.792 3.945 35.959 9.537 53.998 16.622.208.082.412.156.619.237 3.847-11.575 6.835-23.54 8.928-35.81z" fill="#81c66d"/><path d="m75.601 127.65c-1.196 6.97-6.063 12.771-12.72 15.159-10.846 3.89-20.424 11.492-26.637 22.253-6.213 10.762-8.008 22.857-5.954 34.195 1.26 6.958-1.33 14.075-6.768 18.595-3.605 2.997-6.794 6.506-9.464 10.431-2.003 12.613-3.056 25.542-3.056 38.718 0 2.94.074 5.863.18 8.777l.556 5.426c.154.28.305.563.466.839 3.028 5.187 3.471 11.427 1.355 16.933l.976 9.524c2.093 12.27 5.082 24.234 8.928 35.81.207-.081.411-.155.619-.237 18.039-7.085 36.206-12.677 53.998-16.622 6.087-1.344 13.476.126 17.971 3.588 1.654 1.274 3.65 3.393 3.765 6.25.006.138.026.273.059.407l10.196 40.088c.267 1.048 1.331 1.684 2.381 1.428 4.622-1.137 9.45-2.586 14.415-4.313-.891-2.231-1.943-4.428-3.179-6.57-3.021-5.233-6.838-9.718-11.209-13.393-5.561-4.676-8.171-11.847-6.917-19.003.986-5.625 1.027-11.515-.022-17.465-1.049-5.949-3.102-11.469-5.953-16.418-3.626-6.295-3.626-13.927 0-20.223 2.851-4.949 4.904-10.469 5.953-16.419 1.049-5.949 1.008-11.839.022-17.464-1.254-7.156 1.356-14.328 6.917-19.003 4.371-3.675 8.188-8.16 11.209-13.393 3.021-5.232 4.997-10.78 5.994-16.403 1.268-7.153 6.174-13 12.999-15.491 5.365-1.959 10.485-4.868 15.113-8.752-11.931 0-9.615-9.1-9.615-9.1l-41.273-59.133c-13.32 2.536-14.014-9.116-14.014-9.116-9.52 7.988-15.342 18.74-17.291 30.097z" fill="#5aab5f"/><path d="m129.444 72.097c-12.178 7.031-12.68 24.427-.928 32.148l13.937 9.157c1.204-3.072 3.407-5.776 6.48-7.55s6.516-2.33 9.778-1.836l-.962-16.649c-.811-14.038-16.127-22.301-28.305-15.27z" fill="#fceca9"/><path d="m184.426 133.573-13.937-9.157c-1.204 3.072-3.407 5.776-6.479 7.55-3.073 1.774-6.516 2.33-9.778 1.837l.962 16.649c.811 14.038 16.127 22.301 28.305 15.27 12.177-7.032 12.679-24.427.927-32.149z" fill="#fcf4d9"/><path d="m143.415 126.447c-3.184-5.515-2.465-12.218 1.277-16.926l-14.897-7.49c-12.563-6.316-27.377 2.816-27.377 16.878s14.814 23.194 27.377 16.878l14.9-7.493c-.461-.579-.899-1.186-1.28-1.847z" fill="#f4d99d"/><path d="m183.148 102.031-14.9 7.493c.462.58.899 1.186 1.281 1.847 3.184 5.515 2.465 12.218-1.277 16.926l14.897 7.49c12.563 6.317 27.377-2.816 27.377-16.878-.001-14.062-14.815-23.194-27.378-16.878z" fill="#fcf4d9"/><path d="m143.415 126.447c-.382-.661-.688-1.343-.96-2.033l-13.939 9.158c-11.752 7.722-11.25 25.117.928 32.148s27.494-1.232 28.305-15.27l.962-16.646c-5.947.887-12.112-1.842-15.296-7.357z" fill="#fceca9"/><path d="m183.498 72.097c-12.178-7.031-27.494 1.232-28.305 15.27l-.962 16.646c5.947-.886 12.113 1.843 15.296 7.357.382.661.688 1.343.96 2.033l13.939-9.158c11.752-7.722 11.25-25.117-.928-32.148z" fill="#fcf4d9"/><path d="m36.799 164.742c-7.031 12.178 1.232 27.494 15.27 28.305l16.649.962c-.494-3.262.062-6.705 1.836-9.778s4.478-5.276 7.55-6.48l-9.157-13.937c-7.721-11.752-25.117-11.25-32.148.928z" fill="#fceca9"/><path d="m115.153 190.491-16.649-.962c.494 3.262-.062 6.705-1.836 9.778s-4.478 5.276-7.55 6.48l9.157 13.937c7.722 11.752 25.117 11.25 32.148-.928s-1.232-27.494-15.27-28.305z" fill="#fcf4d9"/><path d="m76.073 204.826c-5.515-3.184-8.244-9.349-7.357-15.296l-16.646.962c-14.038.811-22.301 16.127-15.27 28.305s24.426 12.679 32.148.928l9.158-13.939c-.69-.272-1.372-.579-2.033-.96z" fill="#f4d99d"/><path d="m98.275 163.814-9.158 13.939c.69.271 1.372.578 2.033.959 5.515 3.184 8.244 9.349 7.357 15.297l16.646-.962c14.038-.811 22.301-16.127 15.27-28.305s-24.427-12.68-32.148-.928z" fill="#fcf4d9"/><path d="m76.073 204.826c-.661-.382-1.267-.819-1.847-1.28l-7.493 14.901c-6.316 12.563 2.816 27.377 16.878 27.377s23.194-14.814 16.878-27.377l-7.49-14.897c-4.708 3.741-11.411 4.46-16.926 1.276z" fill="#fceca9"/><path d="m83.611 137.715c-14.062 0-23.194 14.814-16.878 27.377l7.49 14.897c4.707-3.741 11.411-4.461 16.926-1.277.661.382 1.268.819 1.847 1.281l7.493-14.9c6.316-12.564-2.816-27.378-16.878-27.378z" fill="#fcf4d9"/><path d="m401.004 291.298c0 14.062 14.814 23.194 27.377 16.878l14.899-7.491c-2.059-2.578-3.299-5.838-3.299-9.386s1.24-6.808 3.299-9.386l-14.899-7.492c-12.563-6.317-27.377 2.815-27.377 16.877z" fill="#f4d99d"/><path d="m481.734 274.42-14.899 7.492c2.059 2.578 3.299 5.838 3.299 9.386s-1.24 6.808-3.299 9.386l14.899 7.491c5.259 2.644 10.909 2.573 15.705.575 1.854-10.8 2.998-21.842 3.389-33.076-5.358-3.631-12.531-4.553-19.094-1.254z" fill="#fcf4d9"/><path d="m455.057 306.374c-6.368 0-11.814-3.975-14.02-9.568l-13.935 9.156c-11.752 7.721-11.25 25.117.928 32.148s27.494-1.232 28.305-15.271l.962-16.65c-.732.11-1.476.185-2.24.185z" fill="#fceca9"/><path d="m453.779 259.756-.961 16.651c.733-.11 1.477-.185 2.24-.185 6.368 0 11.814 3.974 14.02 9.568l13.935-9.156c11.752-7.721 11.25-25.117-.928-32.148s-27.495 1.232-28.306 15.27z" fill="#fcf4d9"/><path d="m455.057 306.374c-.763 0-1.507-.075-2.24-.185l.961 16.65c.811 14.038 16.128 22.301 28.306 15.271 12.178-7.031 12.68-24.427.928-32.148l-13.935-9.156c-2.206 5.594-7.652 9.568-14.02 9.568z" fill="#fcf4d9"/><path d="m428.031 244.486c-12.178 7.031-12.68 24.427-.928 32.148l13.935 9.156c2.206-5.594 7.652-9.568 14.02-9.568.763 0 1.507.076 2.24.185l-.962-16.651c-.812-14.038-16.127-22.301-28.305-15.27z" fill="#fceca9"/><path d="m30.266 274.42c-6.563-3.3-13.736-2.378-19.094 1.255.391 11.234 1.535 22.275 3.389 33.076 4.796 1.999 10.446 2.069 15.705-.575l14.899-7.491c-2.059-2.578-3.299-5.838-3.299-9.386s1.24-6.808 3.299-9.386z" fill="#f4d99d"/><path d="m83.619 274.42-14.899 7.492c2.059 2.578 3.299 5.838 3.299 9.386s-1.24 6.808-3.299 9.386l14.899 7.491c12.563 6.317 27.377-2.816 27.377-16.878s-14.814-23.193-27.377-16.877z" fill="#fcf4d9"/><path d="m56.942 306.374c-6.368 0-11.814-3.975-14.02-9.568l-13.935 9.156c-11.751 7.721-11.25 25.117.928 32.148s27.494-1.232 28.305-15.271l.962-16.65c-.732.11-1.476.185-2.24.185z" fill="#fceca9"/><path d="m55.664 259.756-.961 16.651c.733-.11 1.477-.185 2.24-.185 6.368 0 11.814 3.974 14.02 9.568l13.935-9.156c11.752-7.721 11.25-25.117-.928-32.148s-27.495 1.232-28.306 15.27z" fill="#fcf4d9"/><path d="m56.942 306.374c-.763 0-1.507-.075-2.24-.185l.961 16.65c.811 14.038 16.128 22.301 28.305 15.271 12.178-7.031 12.68-24.427.928-32.148l-13.935-9.156c-2.205 5.594-7.651 9.568-14.019 9.568z" fill="#fcf4d9"/><path d="m29.916 244.486c-12.178 7.031-12.68 24.427-.928 32.148l13.935 9.156c2.206-5.594 7.652-9.568 14.02-9.568.763 0 1.507.076 2.24.185l-.962-16.651c-.812-14.038-16.127-22.301-28.305-15.27z" fill="#fceca9"/><path d="m381.577 218.796c7.031 12.178 24.427 12.68 32.148.928l9.157-13.937c-3.072-1.204-5.776-3.407-7.55-6.48s-2.33-6.516-1.836-9.778l-16.649.962c-14.038.811-22.301 16.127-15.27 28.305z" fill="#f4d99d"/><path d="m443.053 163.814-9.157 13.937c3.072 1.204 5.776 3.407 7.55 6.48s2.33 6.516 1.837 9.778l16.649-.962c14.038-.811 22.301-16.127 15.27-28.305-7.032-12.178-24.428-12.68-32.149-.928z" fill="#fcf4d9"/><path d="m435.927 204.826c-5.515 3.184-12.218 2.465-16.926-1.277l-7.49 14.897c-6.316 12.563 2.816 27.377 16.878 27.377s23.194-14.814 16.878-27.377l-7.492-14.901c-.581.462-1.187.899-1.848 1.281z" fill="#fceca9"/><path d="m411.511 165.093 7.493 14.9c.58-.462 1.186-.899 1.847-1.28 5.515-3.184 12.218-2.465 16.926 1.277l7.49-14.897c6.317-12.563-2.816-27.377-16.878-27.377-14.062-.001-23.195 14.814-16.878 27.377z" fill="#fcf4d9"/><path d="m435.927 204.826c-.661.382-1.343.688-2.033.96l9.158 13.939c7.722 11.752 25.117 11.25 32.149-.928 7.031-12.178-1.233-27.494-15.27-28.305l-16.646-.962c.886 5.947-1.843 12.112-7.358 15.296z" fill="#fcf4d9"/><path d="m381.577 164.742c-7.031 12.178 1.232 27.494 15.27 28.305l16.647.962c-.886-5.947 1.843-12.113 7.357-15.296.661-.382 1.343-.688 2.033-.96l-9.158-13.939c-7.723-11.751-25.118-11.25-32.149.928z" fill="#fceca9"/><path d="m328.502 165.721c12.178 7.031 27.494-1.232 28.305-15.27l.962-16.649c-3.262.494-6.705-.062-9.778-1.837-3.073-1.774-5.276-4.478-6.479-7.55l-13.937 9.157c-11.753 7.723-11.251 25.118.927 32.149z" fill="#fceca9"/><path d="m354.251 87.367-.962 16.649c3.262-.494 6.705.062 9.778 1.837 3.073 1.774 5.276 4.478 6.48 7.55l13.937-9.157c11.752-7.722 11.25-25.117-.928-32.148-12.178-7.032-27.494 1.231-28.305 15.269z" fill="#fcf4d9"/><path d="m368.585 126.447c-3.184 5.515-9.349 8.244-15.296 7.357l.962 16.646c.811 14.038 16.127 22.301 28.305 15.27s12.679-24.426.928-32.148l-13.939-9.158c-.272.69-.578 1.372-.96 2.033z" fill="#fcf4d9"/><path d="m327.574 104.246 13.939 9.158c.271-.69.578-1.372.96-2.033 3.184-5.515 9.349-8.244 15.296-7.357l-.962-16.646c-.811-14.038-16.127-22.301-28.305-15.27-12.178 7.03-12.68 24.426-.928 32.148z" fill="#fceca9"/><path d="m368.585 126.447c-.382.661-.819 1.268-1.28 1.847l14.901 7.493c12.563 6.316 27.377-2.816 27.377-16.878s-14.814-23.194-27.377-16.878l-14.897 7.49c3.741 4.708 4.46 11.412 1.276 16.926z" fill="#fcf4d9"/><path d="m301.475 118.909c0 14.062 14.814 23.194 27.377 16.878l14.897-7.49c-3.741-4.707-4.46-11.411-1.277-16.926.382-.661.819-1.267 1.28-1.847l-14.901-7.493c-12.562-6.316-27.376 2.816-27.376 16.878z" fill="#f4d99d"/><path d="m357.396 364.74v-162.732c0-12.157-9.891-22.047-22.048-22.047h-158.697c-12.157 0-22.047 9.89-22.047 22.047v162.731c68.007-22.227 134.712-22.25 202.792.001z" fill="#f1935d"/><path d="m240.321 179.961h-63.67c-12.157 0-22.047 9.89-22.047 22.047v162.731c33.486-10.944 66.656-16.493 99.83-16.663v-137.64c0-.668-.403-1.275-1.018-1.535-.776-.327-1.116-.781-1.262-1.156-.178-.457-.509-.833-.962-1.021-9.03-3.741-8.574-10.826-8.055-13.442.122-.615-.13-1.246-.628-1.627-5.378-4.109-3.486-8.944-2.406-10.856.148-.261.218-.55.218-.838z" fill="#e1715a"/><path d="m448.658 374.651c-.108-.056-10.973-5.801-30.724-25.552-4.684-4.684-6.85-8.856-6.436-12.398.049-.418.14-.828.266-1.232h-1.106l-10.95 43.052c19.673 4.868 36.065 4.332 48.903-1.637l2.293-1.067z" fill="#bec8f7"/><path d="m63.342 374.651c.108-.056 10.973-5.801 30.724-25.552 4.684-4.684 6.849-8.856 6.436-12.398-.049-.418-.14-.828-.266-1.232h1.106l10.95 43.052c-19.673 4.868-36.065 4.332-48.903-1.637l-2.293-1.067z" fill="#a4b3ea"/><path d="m452.685 413.095c15.758-21.18 28.163-44.996 36.461-70.66-.171-.067-.337-.127-.508-.195-18.193-7.145-36.273-12.717-54.292-16.712-6.117-1.356-12.587-.442-17.918 2.849-6.143 3.793-10.471 10.504.625 21.601 20.176 20.176 31.032 25.777 31.032 25.777l-.432 1.551c.32-.14.641-.276.957-.423 2.496-1.161 5.273-.811 7.425.938 2.159 1.754 3.109 4.519 2.48 7.217z" fill="#dae2fe"/><path d="m95.571 328.377c-5.331-3.291-11.801-4.206-17.918-2.849-18.019 3.995-36.099 9.566-54.291 16.712-.171.067-.337.128-.508.195 8.298 25.665 20.703 49.48 36.461 70.66l-5.831-28.056c-.629-2.698.322-5.463 2.48-7.217 2.152-1.749 4.929-2.1 7.425-.938.315.147.637.283.956.423l-.432-1.551s10.855-5.601 31.032-25.777c11.097-11.097 6.769-17.809.626-21.602z" fill="#bec8f7"/><path d="m337.686 358.912v-156.904c0-1.289-1.049-2.337-2.338-2.337h-158.697c-1.289 0-2.337 1.048-2.337 2.337v156.905c54.667-14.461 108.657-14.474 163.372-.001z" fill="#66e9ff"/><path d="m174.314 202.008v156.905c26.815-7.093 53.466-10.701 80.12-10.837v-137.64c0-.668-.403-1.275-1.018-1.535-.776-.327-1.116-.781-1.262-1.156-.178-.457-.509-.833-.962-1.021-4.463-1.849-6.604-4.514-7.57-7.054h-66.972c-1.288 0-2.336 1.049-2.336 2.338z" fill="#23c5ed"/><path d="m194.484 332.609c-1.707.529-3.271 1.452-4.535 2.715-6.035 6.024-8.524 14.703-9.497 22.032 10.378-2.542 20.734-4.561 31.077-6.059-.653-8.273-.792-14.088-.816-16.771-.003-.322.328-.54.628-.408l1.181.518 7.46-11.897c.063-.106.135-.205.202-.308l-.748-.012c0-.001-10.996 5.867-24.952 10.19z" fill="#422953"/><path d="m317.517 332.609c-13.957-4.323-24.952-10.191-24.952-10.191l-.745.012c.069.108.145.211.211.323l7.45 11.883 1.181-.518c.204-.089.369-.005.43.036.06.04.2.155.198.373-.024 2.683-.163 8.498-.816 16.771 10.34 1.498 20.695 3.516 31.074 6.059-.973-7.329-3.462-16.008-9.496-22.032-1.265-1.264-2.829-2.188-4.535-2.716z" fill="#422953"/><path d="m247.787 332.808c2.863 2.985-2.813 5.885.336 8.777 6.246 5.465 7.687 6.694 7.879 6.91.19-.215 1.671-1.479 7.879-6.91.937-.86 1.22-2.223.703-3.385-.627-1.682-1.459-2.501-1.119-3.987.219-.982.824-1.477 1.49-2.184 4.189-4.469 8.662-10.127 10.755-15.857.759-2.077 1.111-3.736 1.253-5.014-1.113-2.481-1.549-7.203-1.642-9.91-5.465 6.366-11.651 10.51-20.033 10.251-7.749-.237-13.52-4.328-18.606-10.251-.085 2.475-.367 5.478-1.091 8.331-.147.578-.35 1.135-.597 1.671.415 3.956 2.821 11.161 12.793 21.558z" fill="#fcad6d"/><path d="m255.286 311.499c-7.749-.237-13.52-4.328-18.606-10.251-.085 2.475-.367 5.478-1.091 8.331-.147.578-.35 1.135-.597 1.671.406 3.858 2.725 10.814 12.084 20.796 6.466-3.08 8.257-15.25 8.733-20.548-.174-.002-.345.006-.523.001z" fill="#fd995b"/><path d="m257.466 348.075c-.133-.536-.413-1.03-.828-1.411l-7.797-5.619c-.899-.826-1.171-2.134-.675-3.25l.909-2.044c.471-1.06.247-2.296-.556-3.134-14.269-14.875-12.809-23.754-12.53-24.841l-3.204 3.108-1.686 2.757c-1.976 7.578-1.787 14.046-1.787 20.092v15.498c9.388-.816 18.77-1.201 28.154-1.156z" fill="#bec8f7"/><path d="m231.098 313.642 1.686-2.756 3.204-3.108c-.017.287-.849 2.753 1.091 8.06 2.235 6.12 6.907 12.043 11.439 16.781.481.502.75 1.148.79 1.812l-9.909 7.986c-1.93 1.555-4.813.855-5.804-1.417-1.35-3.096-3.049-7.786-4.264-13.84.14-6.153 1.058-10.798 1.767-13.518z" fill="#e9efff"/><path d="m212.211 333.945 7.228-11.527c.702-1.189 1.617-2.238 2.699-3.095l10.647-8.437s-2.632 6.69-2.632 17.878l-10.693 8.646z" fill="#543e5b"/><path d="m282.692 333.734c0-6.046.189-12.515-1.787-20.092l-1.686-2.757-3.204-3.108c.279 1.087 1.739 9.965-12.53 24.841-.803.837-1.027 2.074-.556 3.134l.909 2.044c.496 1.116.224 2.424-.675 3.25l-7.797 5.619c-.414.381-.694.874-.827 1.41 9.382-.045 18.764.341 28.154 1.159v-15.5z" fill="#bec8f7"/><path d="m280.905 313.642-1.686-2.756-3.204-3.108c.017.287.849 2.753-1.091 8.06-2.235 6.12-6.907 12.043-11.439 16.78-.481.502-.75 1.148-.79 1.812l9.909 7.986c1.93 1.555 4.813.855 5.804-1.417 1.35-3.096 3.049-7.786 4.264-13.84-.14-6.152-1.057-10.797-1.767-13.517z" fill="#e9efff"/><path d="m299.793 333.945-7.228-11.527c-.702-1.189-1.617-2.238-2.699-3.095l-10.647-8.437s2.632 6.69 2.632 17.878l10.694 8.646z" fill="#543e5b"/><path d="m218.622 336.621-7.027-3.082c-.717-.314-1.519.21-1.512.992.024 2.679.162 8.523.82 16.854 6.421-.943 12.837-1.688 19.25-2.229v-20.393l-9.969 7.668c-.447.344-1.046.417-1.562.19z" fill="#665364"/><path d="m301.101 351.385c.658-8.33.796-14.174.82-16.854.007-.782-.796-1.306-1.512-.992l-7.027 3.082c-.516.227-1.115.154-1.562-.19l-9.969-7.668v20.393c6.412.541 12.828 1.286 19.25 2.229z" fill="#665364"/><path d="m269.841 332.202c-4.497.46-10.372 4.816-10.372 4.816v3.391 3.391s5.875 4.356 10.372 4.816c1.957.2 3.652-1.353 3.652-3.32 0-3.418 0-6.355 0-9.774 0-1.967-1.695-3.52-3.652-3.32z" fill="#ff4155"/><path d="m242.114 332.202c4.497.46 10.372 4.816 10.372 4.816v3.391 3.391s-5.875 4.356-10.372 4.816c-1.957.2-3.652-1.353-3.652-3.32 0-3.418 0-6.355 0-9.774 0-1.967 1.695-3.52 3.652-3.32z" fill="#ff4155"/><path d="m257.112 333.831h-1.608c-3.175 0-5.773 2.598-5.773 5.773v1.608c0 3.175 2.598 5.773 5.773 5.773h1.608c3.175 0 5.773-2.598 5.773-5.773v-1.608c0-3.175-2.598-5.773-5.773-5.773z" fill="#ff7186"/><path d="m331.548 357.355c-.973-7.329-3.462-16.008-9.496-22.032-1.264-1.262-2.828-2.186-4.535-2.715l-2.768 21.088c5.593 1.069 11.193 2.286 16.799 3.659z" fill="#543e5b"/><path d="m197.252 353.697-2.768-21.088c-1.707.529-3.271 1.452-4.535 2.715-6.035 6.024-8.524 14.703-9.497 22.032 5.606-1.374 11.206-2.591 16.8-3.659z" fill="#543e5b"/><g><path d="m249.539 209.584c-19.404 2.644-21.248 13.645-21.256 17.681-.002.846-.471 1.631-1.232 2.001-10.093 4.91-4.651 28.574-4.651 28.574 1.014.068 2.074.478 2.866.861.194-1.206.51-2.393.957-3.54.34-.875.766-1.758 1.298-2.592.923-1.448 1.343-3.156 1.218-4.864-.363-4.937-.188-14.664 6.328-17.596 5.52-2.484 12.292-1.046 16.611.39 2.805.933 5.843.933 8.647 0 4.318-1.436 11.09-2.874 16.611-.39 6.498 2.924 6.69 12.604 6.332 17.554-.125 1.721.284 3.447 1.215 4.906.549.862.985 1.775 1.331 2.677.43 1.121.735 2.28.924 3.456.997-.483 2.423-1.009 3.642-.837.149-5.174.627-10.752.627-10.752 5.748-28.163-20.576-40.375-41.468-37.529z" fill="#665364"/></g><path d="m251.388 230.407c-.057-.103-.111-.206-.172-.308-8.106-13.667 3.218-20.902 3.218-20.902-1.653.04-3.29.169-4.896.388-19.404 2.644-21.248 13.645-21.256 17.681-.002.847-.471 1.631-1.232 2.001-10.093 4.91-4.651 28.574-4.651 28.574 1.014.068 2.074.478 2.866.861.194-1.206.51-2.393.957-3.54.34-.875.766-1.758 1.298-2.592.923-1.448 1.343-3.156 1.218-4.864-.363-4.937-.188-14.664 6.328-17.596 5.401-2.432 11.995-1.107 16.322.297z" fill="#543e5b"/><path d="m292.696 258.452c-1.511-1.385-4.521-.683-5.823.165.285 1.776.301 3.592.055 5.386l-1.536 11.187c0 .902-.028 1.786-.081 2.656 3.745 1.13 5.606-2.233 5.919-4.54.135-.993.355-1.972.661-2.928.997-3.111 4.591-8.456.805-11.926z" fill="#fcad6d"/><path d="m289.939 268.588c-1.315 0-2.521-.459-3.473-1.223l-1.074 7.825c0 .902-.029 1.786-.081 2.656 3.745 1.13 5.606-2.233 5.919-4.54.135-.993.355-1.972.661-2.928.25-.779.662-1.699 1.081-2.695-.872.571-1.913.905-3.033.905z" fill="#fd995b"/><path d="m219.578 258.452c1.511-1.385 4.522-.683 5.823.165-.285 1.776-.301 3.592-.055 5.386l1.536 11.187c0 .902.028 1.786.081 2.656-3.745 1.13-5.606-2.233-5.919-4.54-.135-.993-.355-1.972-.661-2.928-.997-3.111-4.591-8.456-.805-11.926z" fill="#fcad6d"/><g><path d="m225.849 267.663c-.879.583-1.933.925-3.067.925-1.417 0-2.706-.535-3.688-1.408.486 1.187.998 2.289 1.289 3.198.306.956.527 1.935.661 2.928.313 2.308 2.174 5.67 5.919 4.54-.052-.869-.08-1.754-.08-2.656z" fill="#fd995b"/></g><path d="m286.036 255.16c-.382-.996-.836-1.911-1.352-2.72-.882-1.383-1.3-3.073-1.178-4.759.39-5.382.067-14.849-6.473-17.792-5.493-2.471-12.16-1.157-16.785.382-2.74.912-5.757.911-8.497 0-4.626-1.539-11.292-2.854-16.785-.382-2.813 1.266-7.393 5.266-6.47 17.835.122 1.656-.298 3.331-1.181 4.717-.501.786-.945 1.672-1.319 2.634-1.097 2.818-1.452 5.946-1.027 9.045l1.534 11.156c0 18.476 11.179 29.151 15.985 32.883 3.836 2.979 8.634 4.62 13.511 4.62s9.675-1.641 13.511-4.62c4.806-3.732 15.984-14.407 15.982-32.85l1.536-11.187c.423-3.069.079-6.168-.992-8.962z" fill="#f9ba8f"/><g><path d="m258.944 308.157c-4.806-3.732-15.985-14.407-15.985-32.883l-1.534-11.156c-.426-3.099-.07-6.227 1.027-9.045.375-.962.818-1.849 1.319-2.634.883-1.386 1.302-3.061 1.181-4.717-.887-12.082 3.306-16.238 6.131-17.667-4.585-1.439-10.882-2.524-16.117-.168-2.813 1.266-7.393 5.266-6.47 17.835.122 1.656-.298 3.331-1.181 4.717-.501.785-.945 1.672-1.319 2.634-1.097 2.818-1.452 5.946-1.027 9.045l1.534 11.156c0 18.476 11.179 29.151 15.985 32.883 3.836 2.979 8.634 4.62 13.511 4.62 2.828 0 5.624-.568 8.227-1.613-1.884-.756-3.671-1.755-5.282-3.007z" fill="#fcad6d"/></g><path d="m345.078 360.956v-158.949c0-5.364-4.365-9.728-9.729-9.728h-158.698c-5.364 0-9.728 4.363-9.728 9.728v158.949c4.933-1.421 9.86-2.716 14.782-3.901v-149.993h148.59v149.993c4.922 1.186 9.849 2.481 14.783 3.901z" fill="#e1715a"/><path d="m243.138 193.282c.069-.347.008-.694-.138-1.003h-66.35c-5.364 0-9.728 4.363-9.728 9.728v158.949c4.933-1.421 9.86-2.716 14.782-3.902v-149.992h69.99c-.146-.139-.311-.258-.503-.338-9.029-3.741-8.573-10.826-8.053-13.442z" fill="#c15655"/><path d="m63.914 375.756c12.97 6.031 34.557 8.346 69.499-5.379 82.458-32.387 162.609-32.43 245.174 0 34.942 13.724 56.529 11.41 69.499 5.379 6.313-2.936 13.222 2.784 11.641 9.565l-16.609 77.878c-.271.029-7.527 40.083-106.373 11.382-56.902-16.505-107.078-15.884-162.438.276-97.097 28.322-105.425-11.658-105.425-11.658l-16.609-77.878c-1.581-6.781 5.328-12.501 11.641-9.565z" fill="#e9efff"/><path d="m133.413 370.377c-34.942 13.724-56.529 11.41-69.499 5.378-6.313-2.936-13.222 2.785-11.641 9.565l16.609 77.878s8.328 39.979 105.425 11.658c9.573-2.794 18.989-5.112 28.314-6.969l.004-.008c-14.35-5.753-5.784-20.16-5.784-20.16l.05-65.92 3.427-8.951c-12.935-7.162-3.655-20.629-3.338-21.082-21.089 4.047-42.251 10.239-63.567 18.611z" fill="#bec8f7"/><g fill="#665364"><path d="m260.873 371.132c-4.082 0-7.391 3.309-7.391 7.391v59.531c0 4.083 3.309 7.391 7.391 7.391s7.391-3.309 7.391-7.391v-59.531c0-4.082-3.309-7.391-7.391-7.391z"/><path d="m217.382 416.31c9.253-3.55 15.978-12.758 15.054-23.322-1.104-12.617-12.764-21.835-25.641-20.707l-15.759 1.378-.012.002h-.007c-4.066.356-7.074 3.941-6.719 8.007l5.188 59.304c.337 3.848 3.564 6.747 7.355 6.747 4.369 0 7.748-3.737 7.372-8.035l-1.48-16.919 21.078 20.106c2.953 2.817 7.631 2.708 10.45-.246 2.818-2.954 2.707-7.633-.246-10.45zm-9.298-29.303c4.624-.419 9.231 2.748 9.625 7.268.392 4.482-3.531 8.421-8.217 8.83-1.945.17-5.249.474-8.325.757-.771-8.333-.535-5.918-1.457-16.123z"/><path d="m318.722 374.22-16.513-1.446c-4.088-.363-7.657 2.677-8.008 6.719l-5.188 59.305c-.376 4.3 3.006 8.035 7.371 8.035 3.791 0 7.018-2.9 7.355-6.747l1.613-18.436c3.337.275 7.026.582 9.153.768 13.514 1.171 25.374-8.708 26.535-21.962v-.001c1.162-13.288-8.851-25.057-22.318-26.235zm7.591 24.946c-.445 5.081-5.271 8.997-10.519 8.525-2.113-.185-5.757-.488-9.079-.761.764-9.273.63-7.445 1.59-18.782l9.128.799c5.17.453 9.334 5.033 8.88 10.219z"/></g><g><path d="m357.326 261.852-81.984-81.985c-3.849-3.849-3.849-10.089 0-13.937s10.089-3.848 13.937 0l81.984 81.985c3.849 3.849 3.849 10.089 0 13.937-3.847 3.847-10.087 3.849-13.937 0z" fill="#665364"/></g><path d="m322.773 213.62c3.13-3.129 7.655-3.996 11.57-2.626l-45.064-45.065c-3.849-3.847-10.089-3.848-13.938 0-3.849 3.849-3.849 10.089 0 13.938l44.567 44.567c-1.014-3.731-.065-7.885 2.865-10.814z" fill="#543e5b"/><path d="m355.646 68.621-4.865-12.904c-3.984-4.426-10.058-7.931-18.938-5.874-16.045 3.717-40.093 11.773-58.203 7.881v11.793c15.071 9.831 42.426 25.218 60.556 21.018 23.787-5.51 21.45-21.914 21.45-21.914z" fill="#bec8f7"/><g><g><path d="m245.148 75.415c-1.518.81-3.304.764-4.778-.121-1.475-.885-2.355-2.44-2.355-4.16v-2.692l-1.641 1.054c-6.98 4.482-16.892 10.298-27.232 14.612-.871 3.295-1.611 6.704-2.196 10.227-5.091 30.686-19 46.351-26.651 52.863-1.601 1.363-.621 3.981 1.482 3.951 6.413-.094 16.398-.862 25.271-4.201 1.279-.481 2.682.305 2.963 1.642.813 3.873 2.151 11.488 1.951 18.924-.05 1.867 2.093 2.955 3.588 1.835 3.03-3.077 22.209-16.173 28.573-54.528 2.723-16.411 8.814-30.362 15.864-41.772-5.004-.88-10.225-.095-14.839 2.366z" fill="#dae2fe"/></g><path d="m259.986 73.05c-5.004-.881-10.225-.096-14.838 2.365-1.518.81-3.304.764-4.778-.121-1.475-.885-2.355-2.44-2.355-4.16v-2.692l-1.641 1.054c-6.98 4.482-16.892 10.298-27.232 14.612-.871 3.295-1.611 6.704-2.196 10.227-.321 1.936-.678 3.811-1.065 5.629 1.228.417 2.57.492 3.874.144 18.307-4.884 28.669 6.217 32.565 11.779.538.768 1.222 1.398 1.992 1.882 2.805-15.952 8.777-29.555 15.674-40.719z" fill="#bec8f7"/><g><path d="m331.705 147.199c-7.651-6.512-21.56-22.177-26.651-52.863-.584-3.522-1.324-6.93-2.195-10.225-10.34-4.315-20.252-10.133-27.232-14.615l-1.641-1.054v2.692c0 1.719-.88 3.275-2.355 4.16-1.474.885-3.261.929-4.779.121-4.613-2.461-9.834-3.245-14.838-2.365 7.05 11.411 13.141 25.362 15.864 41.772 6.364 38.355 25.543 51.451 28.573 54.528 1.495 1.12 3.638.032 3.588-1.835-.199-7.436 1.138-15.052 1.952-18.924.281-1.337 1.685-2.124 2.963-1.642 8.873 3.339 18.858 4.108 25.271 4.201 2.102.031 3.082-2.588 1.48-3.951z" fill="#dae2fe"/></g><path d="m305.963 99.191c-.326-1.577-.633-3.19-.909-4.855-.584-3.522-1.324-6.93-2.195-10.225-10.341-4.315-20.252-10.133-27.232-14.615l-1.641-1.054v2.692c0 1.719-.881 3.275-2.356 4.16-1.474.885-3.26.929-4.778.121-4.614-2.461-9.834-3.245-14.838-2.365 6.853 11.093 12.791 24.594 15.619 40.414.761-.568 1.407-1.292 1.868-2.158 8.207-15.405 23.564-13.812 31.656-11.651 1.658.443 3.355.244 4.806-.464z" fill="#bec8f7"/><path d="m156.417 68.578 4.861-12.895c3.981-4.423 10.052-7.926 18.926-5.87 16.035 3.715 40.068 11.765 58.166 7.876v11.785c-15.062 9.825-42.399 25.202-60.517 21.005-23.771-5.508-21.436-21.901-21.436-21.901z" fill="#bec8f7"/><path d="m238.37 57.689v11.785c-7.659 4.996-18.493 11.423-29.674 15.987-.944-1.267-1.37-2.91-1.003-4.578 1.994-9.06-1.723-16.325-5.059-20.721-1.13-1.489-1.441-3.353-.988-5.024 12.334 2.835 25.641 4.933 36.724 2.551z" fill="#a4b3ea"/><g><path d="m161.062 8.425c11.834-13.731 39.512-10.813 58.402 9.754 6.815 7.419 13.342 12.61 18.906 16.221v24.472c-17.703 3.957-41.355-3.984-57.101-7.632-18.359-4.253-24.431 15.86-24.83 17.257 9.781-33.728-7.203-46.352 4.623-60.072z" fill="#e9efff"/></g><path d="m203.595 52.195c14.496-11.307 9.152-30.639 5.574-39.598-.467-1.169-.524-2.405-.241-3.546 3.69 2.516 7.248 5.548 10.536 9.128 6.815 7.419 13.342 12.61 18.906 16.221v24.472c-11.103 2.482-24.546.283-36.911-2.601.098-1.551.816-3.046 2.136-4.076z" fill="#dae2fe"/><path d="m355.583 68.578-4.861-12.895c-3.981-4.423-10.052-7.926-18.926-5.87-16.035 3.715-40.068 11.765-58.166 7.876v11.785c15.062 9.825 42.399 25.202 60.517 21.005 23.771-5.508 21.436-21.901 21.436-21.901z" fill="#bec8f7"/><path d="m273.63 57.689v11.785c7.659 4.996 18.493 11.423 29.674 15.987.944-1.267 1.37-2.91 1.003-4.578-1.994-9.06 1.723-16.325 5.059-20.721 1.13-1.489 1.441-3.353.988-5.024-12.334 2.835-25.641 4.933-36.724 2.551z" fill="#a4b3ea"/><g><path d="m350.938 8.425c-11.834-13.731-39.512-10.813-58.402 9.754-6.815 7.419-13.342 12.61-18.906 16.221v24.472c17.703 3.957 41.355-3.984 57.101-7.632 18.359-4.253 24.431 15.86 24.83 17.257-9.781-33.728 7.203-46.352-4.623-60.072z" fill="#e9efff"/></g><path d="m308.405 52.195c-14.496-11.307-9.152-30.639-5.574-39.598.467-1.169.524-2.405.241-3.546-3.69 2.516-7.248 5.548-10.536 9.128-6.815 7.419-13.342 12.61-18.906 16.221v24.472c11.103 2.482 24.546.283 36.911-2.601-.098-1.551-.816-3.046-2.136-4.076z" fill="#dae2fe"/><path d="m266.547 28.059c-.437.105-9.32 5.724-20.165.452l-.929-.452c-3.93-1.911-8.504.951-8.504 5.321v37.754c0 4.466 4.759 7.322 8.7 5.221 6.469-3.45 14.231-3.45 20.7 0 3.941 2.102 8.701-.754 8.701-5.221v-37.754c.001-4.37-4.573-7.231-8.503-5.321z" fill="#e9efff"/><g><path d="m256.386 69.344v-34.174c0-2.057 1.125-3.738 2.7-4.641-3.473.515-7.894.321-12.704-2.018l-.929-.452c-3.929-1.911-8.503.951-8.503 5.321v37.754c0 4.466 4.759 7.322 8.7 5.221 4.177-2.227 8.891-3.007 13.45-2.359-1.582-.899-2.714-2.582-2.714-4.652z" fill="#dae2fe"/></g></g><ellipse cx="455.058" cy="291.298" fill="#ffc839" rx="16.179" ry="16.179" transform="matrix(.385 -.923 .923 .385 11.157 599.331)"/><path d="m459.933 280.869c3.93 0 7.116 3.186 7.116 7.116s-3.186 7.116-7.116 7.116-7.116-3.186-7.116-7.116c.001-3.931 3.186-7.116 7.116-7.116z" fill="#ffdd40"/><ellipse cx="428.389" cy="191.769" fill="#ffc839" rx="16.179" ry="16.179" transform="matrix(.385 -.923 .923 .385 86.619 513.461)"/><path d="m433.265 181.34c3.93 0 7.116 3.186 7.116 7.116s-3.186 7.116-7.116 7.116-7.116-3.186-7.116-7.116 3.186-7.116 7.116-7.116z" fill="#ffdd40"/><ellipse cx="355.529" cy="118.909" fill="#ffc839" rx="16.179" ry="16.179" transform="matrix(.405 -.915 .915 .405 102.973 395.958)"/><path d="m360.405 108.48c3.93 0 7.116 3.186 7.116 7.116s-3.186 7.116-7.116 7.116-7.116-3.186-7.116-7.116 3.186-7.116 7.116-7.116z" fill="#ffdd40"/><ellipse cx="156.471" cy="119.123" fill="#ffc839" rx="16.179" ry="16.179" transform="matrix(.385 -.923 .923 .385 -13.666 217.748)"/><path d="m161.347 108.694c3.93 0 7.116 3.186 7.116 7.116s-3.186 7.116-7.116 7.116-7.116-3.186-7.116-7.116c0-3.931 3.186-7.116 7.116-7.116z" fill="#ffdd40"/><ellipse cx="83.611" cy="191.769" fill="#ffc839" rx="16.179" ry="16.179" transform="matrix(.389 -.921 .921 .389 -125.578 194.24)"/><path d="m88.487 181.34c3.93 0 7.116 3.186 7.116 7.116s-3.186 7.116-7.116 7.116-7.116-3.186-7.116-7.116 3.186-7.116 7.116-7.116z" fill="#ffdd40"/><ellipse cx="56.943" cy="291.298" fill="#ffc839" rx="16.179" ry="16.179" transform="matrix(.383 -.924 .924 .383 -233.973 232.431)"/><path d="m61.818 280.869c3.93 0 7.116 3.186 7.116 7.116s-3.186 7.116-7.116 7.116-7.116-3.186-7.116-7.116c.001-3.93 3.186-7.116 7.116-7.116z" fill="#ffdd40"/></g></svg>