<svg id="Layer_1" enable-background="new 0 0 512 512" height="512" viewBox="0 0 512 512" width="512" xmlns="http://www.w3.org/2000/svg"><g><path d="m256 22.004c-135.309 0-244.998 109.689-244.998 244.998 0 102.4 62.83 190.11 152.035 226.726l16.463 6.074c21.489 7.058 44.288 11.22 67.941 12.033h17.118c23.652-.813 46.451-4.975 67.94-12.033l16.464-6.074c89.205-36.616 152.035-124.326 152.035-226.726 0-135.309-109.69-244.998-244.998-244.998z" fill="#66e9ff"/><path d="m256 55.051c-4.727 0-8.559 3.831-8.559 8.559v448.225c2.842.098 5.693.165 8.559.165s5.716-.067 8.559-.165v-448.225c0-4.728-3.832-8.559-8.559-8.559z" fill="#c15655"/><path d="m264.559 399.152v-156.439c-.255.159-.507.325-.729.529-7.474 6.828-13.404 2.382-15.536.253-.259-.26-.549-.481-.852-.681v156.464c.611-.245 1.181-.594 1.67-1.055 6.196-5.833 11.763-2.155 14.177.072.382.352.815.628 1.27.857z" fill="#ad4949"/><path d="m256 55.051c-4.727 0-8.559 3.831-8.559 8.559v47.261s8.239-8.879 17.118 0v-47.261c0-4.728-3.832-8.559-8.559-8.559z" fill="#ad4949"/><path d="m292.335 64.054c-.617-4.685-4.91-7.978-9.604-7.366-4.686.617-7.985 4.917-7.367 9.604l57.134 433.51c5.58-1.832 11.07-3.86 16.465-6.075z" fill="#e1715a"/><path d="m335.431 391.046-20.723-157.236c-1.592-.9-3.598-1.003-5.322-.022-3.95 2.25-7.914.542-10.231-.954-.602-.389-1.263-.65-1.945-.791l21.068 159.862c4.923-7.756 11.753-4.296 15.159-1.785.605.447 1.285.753 1.994.926z" fill="#c15655"/><path d="m292.335 64.054c-.617-4.685-4.91-7.978-9.604-7.366-4.686.617-7.985 4.917-7.367 9.604l5.823 44.181s4.886-10.432 16.846-3.188z" fill="#c15655"/><path d="m229.268 56.688c-4.692-.61-8.986 2.681-9.604 7.366l-56.628 429.674c5.395 2.214 10.885 4.242 16.465 6.075l57.134-433.51c.618-4.688-2.681-8.988-7.367-9.605z" fill="#e1715a"/><path d="m212.917 233.912c-8.024 3.315-11.987.017-13.749-2.586-.369-.546-.839-.999-1.37-1.358l-21.075 159.912c.812-.008 1.626-.186 2.385-.543 7.139-3.358 11.54.031 13.419 2.147.328.369.716.665 1.128.921l20.942-158.9c-.573.053-1.141.184-1.68.407z" fill="#c15655"/><path d="m229.268 56.688c-4.692-.61-8.986 2.681-9.604 7.366l-5.821 44.171s9.456-8.285 16.917 2.645l5.875-44.578c.618-4.687-2.681-8.987-7.367-9.604z" fill="#c15655"/><g><path d="m338.577 450.758h-165.154c-4.727 0-8.559-3.831-8.559-8.559 0-4.727 3.832-8.559 8.559-8.559h165.154c4.727 0 8.559 3.831 8.559 8.559-.001 4.727-3.833 8.559-8.559 8.559z" fill="#f1935d"/></g><path d="m224.077 442.199c0-4.727 3.832-8.559 8.559-8.559h-59.213c-4.727 0-8.559 3.832-8.559 8.559s3.831 8.559 8.559 8.559h59.213c-4.727 0-8.559-3.832-8.559-8.559z" fill="#e1715a"/><path d="m434.994 179.039c4.264-7.307 6.064-16.102 4.479-25.087-1.584-8.985-6.283-16.634-12.789-22.042-3.993-3.319-5.895-8.544-4.969-13.653 1.508-8.325.191-17.205-4.371-25.106-4.561-7.901-11.594-13.482-19.557-16.338-4.887-1.753-8.461-6.012-9.339-11.13-1.43-8.338-5.705-16.233-12.694-22.097-7.004-5.877-15.543-8.716-24.021-8.664-5.172.032-9.961-2.772-12.526-7.263-4.196-7.347-10.913-13.304-19.487-16.425-8.573-3.121-17.547-2.876-25.483.055-4.871 1.799-10.347.833-14.309-2.523-6.456-5.467-14.805-8.766-23.928-8.766s-17.472 3.3-23.928 8.768c-3.962 3.356-9.438 4.322-14.309 2.523-7.936-2.931-16.91-3.175-25.483-.055-8.574 3.121-15.291 9.077-19.487 16.424-2.565 4.491-7.354 7.295-12.526 7.263-8.478-.052-17.016 2.787-24.02 8.664-6.989 5.864-11.264 13.759-12.694 22.097-.878 5.117-4.452 9.377-9.339 11.13-7.963 2.856-14.995 8.437-19.557 16.338s-5.879 16.782-4.371 25.106c.925 5.109-.976 10.334-4.969 13.653-6.506 5.408-11.205 13.057-12.79 22.042-1.584 8.985.215 17.78 4.479 25.087 2.617 4.485 2.617 10.045 0 14.529-4.264 7.307-6.063 16.102-4.479 25.087s6.284 16.634 12.79 22.042c3.993 3.319 5.894 8.544 4.969 13.653-1.508 8.325-.191 17.205 4.371 25.106 4.561 7.901 11.593 13.482 19.557 16.338 4.887 1.753 8.461 6.012 9.339 11.13 1.43 8.338 5.705 16.232 12.694 22.097 7.004 5.877 15.543 8.716 24.02 8.664 5.172-.032 9.961 2.772 12.526 7.263 4.196 7.347 10.914 13.304 19.487 16.424 8.573 3.121 17.547 2.876 25.483-.055 4.871-1.799 10.346-.833 14.309 2.523 6.456 5.468 14.805 8.768 23.928 8.768s17.472-3.299 23.927-8.767c3.962-3.356 9.438-4.322 14.309-2.523 7.936 2.931 16.91 3.175 25.483.055 8.574-3.121 15.292-9.078 19.487-16.425 2.565-4.491 7.354-7.294 12.526-7.263 8.478.052 17.016-2.787 24.021-8.664 6.989-5.865 11.264-13.759 12.694-22.097.878-5.117 4.452-9.377 9.339-11.13 7.963-2.856 14.995-8.437 19.557-16.338s5.879-16.781 4.371-25.106c-.926-5.109.976-10.334 4.969-13.653 6.506-5.408 11.205-13.057 12.789-22.042s-.215-17.78-4.479-25.087c-2.617-4.485-2.617-10.045.001-14.53zm-64.157 14.689c-2.092 3.633-3.6 7.686-4.37 12.054-.77 4.369-.74 8.692-.016 12.823.921 5.254-.996 10.519-5.079 13.952-3.209 2.698-6.012 5.991-8.229 9.833-2.218 3.842-3.669 7.915-4.401 12.044-.932 5.252-4.534 9.544-9.544 11.374-3.939 1.438-7.699 3.574-11.097 6.425s-6.154 6.183-8.254 9.812c-2.672 4.617-7.525 7.419-12.858 7.424-4.193.004-8.456.725-12.625 2.243-4.168 1.517-7.898 3.705-11.112 6.397-4.09 3.425-9.607 4.397-14.622 2.578-3.942-1.43-8.194-2.211-12.63-2.211s-8.689.78-12.63 2.211c-5.014 1.819-10.533.846-14.622-2.578-3.215-2.692-6.944-4.88-11.113-6.397-4.168-1.517-8.431-2.238-12.624-2.243-5.334-.005-10.187-2.807-12.859-7.424-2.1-3.629-4.857-6.961-8.255-9.812s-7.158-4.987-11.096-6.426c-5.01-1.829-8.612-6.122-9.544-11.373-.732-4.129-2.183-8.202-4.401-12.044s-5.021-7.135-8.23-9.833c-4.083-3.433-5.999-8.698-5.078-13.952.724-4.13.754-8.454-.016-12.823-.77-4.368-2.278-8.421-4.371-12.054-2.662-4.622-2.662-10.225 0-14.848 2.093-3.633 3.6-7.686 4.371-12.055.77-4.368.74-8.692.016-12.822-.921-5.254.996-10.519 5.078-13.952 3.209-2.698 6.012-5.991 8.23-9.833 2.218-3.841 3.669-7.915 4.401-12.043.931-5.252 4.533-9.544 9.544-11.374 3.939-1.438 7.698-3.574 11.096-6.425s6.155-6.183 8.255-9.812c2.671-4.617 7.524-7.418 12.859-7.424 4.193-.004 8.456-.725 12.624-2.243 4.169-1.517 7.898-3.705 11.113-6.397 4.089-3.425 9.607-4.398 14.622-2.578 3.942 1.43 8.194 2.21 12.63 2.21s8.688-.78 12.63-2.21c5.014-1.819 10.532-.846 14.622 2.578 3.215 2.692 6.945 4.88 11.112 6.397 4.168 1.517 8.432 2.238 12.625 2.243 5.334.006 10.187 2.807 12.858 7.424 2.1 3.629 4.856 6.96 8.254 9.812 3.398 2.851 7.158 4.987 11.097 6.425 5.01 1.83 8.612 6.122 9.544 11.374.732 4.129 2.183 8.202 4.401 12.043 2.217 3.842 5.02 7.135 8.229 9.833 4.083 3.433 5.999 8.698 5.079 13.952-.724 4.13-.754 8.454.016 12.822.77 4.369 2.278 8.421 4.37 12.055 2.662 4.622 2.662 10.226 0 14.848z" fill="#81c66d"/><path d="m289.311 360.433c-11.16-5.95-5.301-17.599-5.301-17.599l-19.262-43.309c-2.806-.68-5.733-1.049-8.748-1.049-4.436 0-8.689.78-12.63 2.211-5.014 1.819-10.533.846-14.622-2.578-3.215-2.692-6.944-4.88-11.113-6.397-4.168-1.517-8.431-2.238-12.624-2.243-5.334-.005-10.187-2.807-12.858-7.424-2.1-3.629-4.857-6.961-8.255-9.812-3.398-2.852-7.158-4.987-11.096-6.426-5.011-1.829-8.612-6.122-9.544-11.374-.732-4.129-2.183-8.202-4.401-12.043-2.218-3.842-5.021-7.135-8.229-9.833-4.083-3.433-5.999-8.698-5.078-13.952.724-4.13.754-8.454-.016-12.823-.77-4.368-2.277-8.421-4.371-12.054-2.662-4.622-2.662-10.225 0-14.848 2.093-3.633 3.601-7.686 4.371-12.055.77-4.368.74-8.692.016-12.822-.921-5.254.996-10.519 5.078-13.952 3.209-2.698 6.012-5.991 8.229-9.833 2.218-3.841 3.669-7.915 4.401-12.043.932-5.252 4.533-9.544 9.544-11.374 1.769-.646 3.499-1.441 5.18-2.37l-19.792-44.498c-20.697 3.634-14.798-21.056-14.798-21.056-2.503 1.263-4.904 2.829-7.146 4.71-6.989 5.864-11.264 13.759-12.694 22.097-.878 5.117-4.452 9.377-9.339 11.13-7.963 2.856-14.995 8.437-19.556 16.338-4.562 7.901-5.879 16.782-4.371 25.106.925 5.109-.977 10.334-4.969 13.653-6.506 5.408-11.206 13.057-12.789 22.042-1.584 8.985.215 17.78 4.479 25.086 2.617 4.485 2.617 10.045 0 14.529-4.264 7.307-6.063 16.102-4.479 25.087s6.283 16.634 12.789 22.042c3.993 3.319 5.894 8.544 4.969 13.653-1.508 8.324-.191 17.205 4.371 25.106 4.561 7.901 11.593 13.482 19.556 16.338 4.888 1.753 8.461 6.012 9.339 11.13 1.431 8.338 5.705 16.233 12.694 22.097 7.004 5.877 15.543 8.715 24.021 8.663 5.172-.031 9.961 2.772 12.526 7.263 4.196 7.347 10.913 13.303 19.487 16.424 8.573 3.121 17.547 2.876 25.483-.055 4.871-1.799 10.346-.833 14.309 2.523 6.456 5.468 14.805 8.767 23.928 8.767s17.472-3.299 23.927-8.767c2.66-2.251 6.001-3.421 9.384-3.406z" fill="#5aab5f"/><path d="m256 284.148c-9.489 0-15.651 9.996-11.389 18.473l5.055 10.054c1.74-1.389 3.939-2.226 6.334-2.226 2.394 0 4.594.837 6.334 2.226l5.055-10.054c4.262-8.476-1.901-18.473-11.389-18.473z" fill="#fcf4d9"/><path d="m267.388 338.623-5.055-10.054c-1.74 1.389-3.939 2.226-6.334 2.226-2.394 0-4.594-.837-6.334-2.226l-5.055 10.054c-4.262 8.477 1.9 18.473 11.389 18.473 9.489.001 15.652-9.995 11.389-18.473z" fill="#fceca9"/><path d="m245.827 320.622c0-4.297 2.682-7.972 6.456-9.46l-6.178-9.403c-5.21-7.93-16.948-7.591-21.693.626-4.744 8.217.832 18.552 10.304 19.1l11.235.649c-.073-.495-.124-.996-.124-1.512z" fill="#fceca9"/><path d="m277.283 319.76-11.235-.649c.074.494.125.997.125 1.511 0 4.297-2.682 7.972-6.457 9.46l6.178 9.403c5.21 7.93 16.948 7.591 21.693-.626 4.744-8.217-.831-18.552-10.304-19.099z" fill="#fcf4d9"/><path d="m245.827 320.622c0-.515.051-1.017.125-1.511l-11.235.649c-9.472.547-15.048 10.882-10.304 19.1 4.744 8.217 16.482 8.556 21.693.626l6.178-9.403c-3.776-1.489-6.457-5.164-6.457-9.461z" fill="#f4d99d"/><path d="m287.587 302.385c-4.744-8.217-16.482-8.556-21.693-.626l-6.178 9.403c3.774 1.488 6.457 5.163 6.457 9.46 0 .515-.051 1.017-.125 1.512l11.235-.649c9.473-.547 15.048-10.882 10.304-19.1z" fill="#fcf4d9"/><path d="m266.917 320.622c0 6.03-4.888 10.918-10.917 10.918-6.03 0-10.917-4.888-10.917-10.918s4.888-10.917 10.917-10.917 10.917 4.888 10.917 10.917z" fill="#ffdd40"/><path d="m256 15.511c-9.489 0-15.651 9.996-11.389 18.473l5.055 10.054c1.74-1.389 3.939-2.226 6.334-2.226 2.394 0 4.594.837 6.334 2.226l5.055-10.054c4.262-8.476-1.901-18.473-11.389-18.473z" fill="#fcf4d9"/><path d="m267.388 69.986-5.055-10.054c-1.74 1.389-3.939 2.226-6.334 2.226-2.394 0-4.594-.837-6.334-2.226l-5.055 10.054c-4.262 8.477 1.9 18.473 11.389 18.473 9.489.001 15.652-9.995 11.389-18.473z" fill="#fceca9"/><path d="m245.827 51.986c0-4.297 2.682-7.972 6.456-9.46l-6.178-9.403c-5.21-7.93-16.948-7.591-21.693.626-4.744 8.217.832 18.552 10.304 19.1l11.235.649c-.073-.496-.124-.998-.124-1.512z" fill="#fceca9"/><path d="m277.283 51.123-11.235-.649c.074.495.125.997.125 1.512 0 4.297-2.682 7.972-6.457 9.46l6.178 9.403c5.21 7.93 16.948 7.591 21.693-.626 4.744-8.218-.831-18.553-10.304-19.1z" fill="#fcf4d9"/><path d="m245.827 51.986c0-.515.051-1.017.125-1.512l-11.235.649c-9.472.547-15.048 10.882-10.304 19.1 4.744 8.217 16.482 8.556 21.693.626l6.178-9.403c-3.776-1.489-6.457-5.164-6.457-9.46z" fill="#f4d99d"/><path d="m287.587 33.749c-4.744-8.217-16.482-8.556-21.693-.626l-6.178 9.403c3.774 1.489 6.457 5.163 6.457 9.46 0 .515-.051 1.017-.125 1.512l11.235-.649c9.473-.549 15.048-10.883 10.304-19.1z" fill="#fcf4d9"/><path d="m266.917 51.986c0 6.03-4.888 10.917-10.917 10.917-6.03 0-10.917-4.888-10.917-10.917s4.888-10.917 10.917-10.917c6.029-.001 10.917 4.887 10.917 10.917z" fill="#ffdd40"/><path d="m304.922 271.04c-8.217 4.744-8.556 16.482-.626 21.693l9.405 6.179c.812-2.073 2.299-3.897 4.372-5.094s4.397-1.572 6.598-1.239l-.649-11.234c-.548-9.474-10.883-15.049-19.1-10.305z" fill="#fcf4d9"/><path d="m342.022 312.522-9.405-6.179c-.812 2.073-2.299 3.897-4.372 5.094-2.074 1.197-4.397 1.572-6.598 1.239l.649 11.234c.547 9.473 10.882 15.048 19.1 10.304 8.217-4.743 8.556-16.481.626-21.692z" fill="#fcf4d9"/><path d="m314.349 307.714c-2.148-3.721-1.663-8.245.862-11.421l-10.052-5.054c-8.477-4.262-18.473 1.9-18.473 11.389s9.996 15.651 18.473 11.389l10.055-5.056c-.313-.392-.608-.801-.865-1.247z" fill="#fceca9"/><path d="m341.159 291.239-10.054 5.056c.311.391.607.801.864 1.246 2.148 3.721 1.663 8.245-.861 11.421l10.052 5.054c8.477 4.262 18.473-1.9 18.473-11.388 0-9.489-9.996-15.652-18.474-11.389z" fill="#fcf4d9"/><path d="m314.349 307.714c-.257-.446-.464-.906-.647-1.372l-9.406 6.18c-7.93 5.21-7.591 16.949.626 21.693s18.552-.832 19.099-10.304l.649-11.232c-4.013.598-8.173-1.244-10.321-4.965z" fill="#f4d99d"/><path d="m341.396 271.04c-8.217-4.744-18.552.832-19.099 10.304l-.649 11.233c4.013-.598 8.173 1.243 10.322 4.964.257.446.464.906.648 1.372l9.406-6.18c7.928-5.211 7.589-16.949-.628-21.693z" fill="#fcf4d9"/><ellipse cx="323.159" cy="302.627" fill="#ffdd40" rx="10.917" ry="10.917" transform="matrix(.992 -.123 .123 .992 -34.863 42.175)"/><path d="m170.603 38.393c-8.217 4.744-8.556 16.483-.626 21.693l9.405 6.179c.812-2.073 2.299-3.897 4.372-5.094 2.074-1.197 4.397-1.572 6.598-1.239l-.649-11.234c-.547-9.473-10.882-15.049-19.1-10.305z" fill="#fceca9"/><path d="m207.704 79.876-9.405-6.179c-.812 2.073-2.299 3.897-4.372 5.094s-4.397 1.572-6.598 1.239l.649 11.234c.547 9.473 10.882 15.048 19.1 10.304 8.217-4.744 8.555-16.482.626-21.692z" fill="#fcf4d9"/><path d="m180.03 75.067c-2.148-3.721-1.663-8.245.861-11.421l-10.052-5.054c-8.477-4.262-18.473 1.9-18.473 11.389 0 9.488 9.996 15.651 18.473 11.389l10.055-5.056c-.311-.391-.606-.801-.864-1.247z" fill="#f4d99d"/><path d="m206.841 58.592-10.054 5.056c.311.391.606.801.864 1.247 2.148 3.721 1.663 8.245-.861 11.421l10.052 5.054c8.477 4.262 18.473-1.9 18.473-11.388-.001-9.49-9.997-15.652-18.474-11.39z" fill="#fcf4d9"/><path d="m180.03 75.067c-.257-.446-.464-.906-.648-1.371l-9.406 6.179c-7.93 5.21-7.591 16.949.626 21.693s18.552-.832 19.1-10.304l.649-11.232c-4.012.598-8.172-1.244-10.321-4.965z" fill="#fceca9"/><path d="m207.077 38.393c-8.217-4.744-18.552.832-19.1 10.304l-.649 11.233c4.013-.598 8.173 1.243 10.322 4.965.257.446.464.906.647 1.371l9.406-6.18c7.93-5.21 7.592-16.948-.626-21.693z" fill="#fcf4d9"/><ellipse cx="188.84" cy="69.981" fill="#ffdd40" rx="10.917" ry="10.917" transform="matrix(.683 -.731 .731 .683 8.768 160.157)"/><path d="m108.089 100.908c-4.744 8.217.832 18.552 10.304 19.1l11.234.649c-.333-2.201.042-4.525 1.239-6.598s3.021-3.56 5.094-4.372l-6.179-9.405c-5.21-7.93-16.948-7.592-21.692.626z" fill="#fceca9"/><path d="m160.96 118.282-11.234-.649c.333 2.201-.042 4.524-1.239 6.598s-3.022 3.56-5.094 4.372l6.179 9.405c5.21 7.93 16.949 7.591 21.693-.626 4.743-8.217-.833-18.552-10.305-19.1z" fill="#fcf4d9"/><path d="m134.59 127.955c-3.721-2.148-5.563-6.309-4.965-10.322l-11.232.649c-9.472.547-15.048 10.882-10.304 19.1 4.744 8.217 16.482 8.556 21.693.626l6.179-9.406c-.465-.183-.925-.39-1.371-.647z" fill="#f4d99d"/><path d="m149.571 100.282-6.18 9.406c.465.183.926.39 1.372.647 3.721 2.148 5.563 6.308 4.964 10.322l11.233-.649c9.472-.547 15.048-10.882 10.304-19.099-4.744-8.219-16.483-8.557-21.693-.627z" fill="#fcf4d9"/><path d="m134.59 127.955c-.446-.257-.855-.553-1.247-.864l-5.056 10.055c-4.262 8.477 1.9 18.473 11.389 18.474 9.488 0 15.651-9.996 11.389-18.473l-5.054-10.052c-3.176 2.523-7.7 3.008-11.421.86z" fill="#fceca9"/><path d="m139.676 82.671c-9.489 0-15.651 9.996-11.389 18.473l5.054 10.052c3.176-2.524 7.7-3.01 11.421-.861.446.257.855.553 1.247.864l5.056-10.054c4.262-8.478-1.9-18.474-11.389-18.474z" fill="#fcf4d9"/><path d="m145.135 109.69c5.222 3.015 7.011 9.692 3.996 14.913-3.015 5.222-9.692 7.011-14.913 3.996-5.222-3.015-7.011-9.692-3.996-14.913 3.014-5.222 9.691-7.011 14.913-3.996z" fill="#ffdd40"/><path d="m353.844 186.304c0 9.489 9.996 15.651 18.473 11.389l10.053-5.055c-1.389-1.74-2.226-3.939-2.226-6.334 0-2.394.837-4.594 2.226-6.334l-10.053-5.055c-8.477-4.262-18.473 1.901-18.473 11.389z" fill="#f4d99d"/><path d="m408.319 174.915-10.054 5.055c1.389 1.74 2.226 3.939 2.226 6.334 0 2.394-.837 4.594-2.226 6.334l10.054 5.055c8.477 4.262 18.473-1.9 18.473-11.389 0-9.488-9.996-15.651-18.473-11.389z" fill="#fcf4d9"/><path d="m390.318 196.477c-4.297 0-7.972-2.682-9.46-6.456l-9.403 6.178c-7.93 5.21-7.591 16.948.626 21.693 8.217 4.744 18.552-.832 19.1-10.304l.649-11.235c-.495.073-.997.124-1.512.124z" fill="#fceca9"/><path d="m389.456 165.021-.649 11.235c.495-.074.997-.125 1.512-.125 4.297 0 7.972 2.682 9.46 6.456l9.403-6.178c7.93-5.21 7.591-16.948-.626-21.693-8.218-4.744-18.553.832-19.1 10.305z" fill="#fcf4d9"/><path d="m390.318 196.477c-.515 0-1.017-.051-1.512-.125l.649 11.235c.547 9.473 10.882 15.048 19.1 10.304 8.217-4.744 8.556-16.483.626-21.693l-9.403-6.178c-1.488 3.775-5.163 6.457-9.46 6.457z" fill="#fcf4d9"/><path d="m372.081 154.717c-8.217 4.744-8.556 16.482-.626 21.693l9.403 6.178c1.488-3.774 5.163-6.456 9.46-6.456.515 0 1.017.051 1.512.125l-.649-11.235c-.548-9.474-10.882-15.05-19.1-10.305z" fill="#fceca9"/><circle cx="390.318" cy="186.304" fill="#ffdd40" r="10.917"/><path d="m85.207 186.304c0 9.489 9.996 15.651 18.473 11.389l10.054-5.055c-1.389-1.74-2.226-3.939-2.226-6.334 0-2.394.837-4.594 2.226-6.334l-10.054-5.055c-8.477-4.262-18.473 1.901-18.473 11.389z" fill="#f4d99d"/><path d="m139.682 174.915-10.054 5.055c1.389 1.74 2.226 3.939 2.226 6.334 0 2.394-.837 4.594-2.226 6.334l10.054 5.055c8.477 4.262 18.473-1.9 18.473-11.389 0-9.488-9.996-15.651-18.473-11.389z" fill="#fcf4d9"/><path d="m121.681 196.477c-4.297 0-7.972-2.682-9.46-6.456l-9.403 6.178c-7.93 5.21-7.591 16.948.626 21.693 8.217 4.744 18.552-.832 19.1-10.304l.649-11.235c-.495.073-.997.124-1.512.124z" fill="#fceca9"/><path d="m120.818 165.021-.649 11.235c.495-.074.997-.125 1.511-.125 4.297 0 7.972 2.682 9.46 6.456l9.403-6.178c7.93-5.21 7.591-16.948-.626-21.693-8.216-4.744-18.551.832-19.099 10.305z" fill="#fcf4d9"/><path d="m121.681 196.477c-.515 0-1.017-.051-1.511-.125l.649 11.235c.548 9.473 10.882 15.048 19.1 10.304 8.217-4.744 8.556-16.483.626-21.693l-9.403-6.178c-1.489 3.775-5.164 6.457-9.461 6.457z" fill="#fcf4d9"/><path d="m103.444 154.717c-8.217 4.744-8.556 16.482-.626 21.693l9.403 6.178c1.489-3.774 5.163-6.456 9.46-6.456.515 0 1.017.051 1.512.125l-.649-11.235c-.548-9.474-10.882-15.05-19.1-10.305z" fill="#fceca9"/><circle cx="121.681" cy="186.304" fill="#ffdd40" r="10.917"/><path d="m340.735 137.382c4.744 8.217 16.482 8.556 21.693.626l6.179-9.405c-2.073-.812-3.897-2.299-5.095-4.372-1.197-2.074-1.572-4.397-1.239-6.598l-11.234.649c-9.472.548-15.048 10.883-10.304 19.1z" fill="#f4d99d"/><path d="m382.218 100.282-6.179 9.405c2.073.812 3.897 2.299 5.094 4.372 1.197 2.074 1.572 4.397 1.239 6.598l11.234-.649c9.473-.547 15.048-10.882 10.304-19.1s-16.482-8.556-21.692-.626z" fill="#fcf4d9"/><path d="m377.409 127.955c-3.721 2.148-8.245 1.663-11.421-.861l-5.054 10.052c-4.262 8.477 1.9 18.473 11.389 18.473 9.488 0 15.651-9.996 11.389-18.473l-5.056-10.055c-.391.311-.801.607-1.247.864z" fill="#fceca9"/><path d="m360.934 101.144 5.056 10.054c.391-.311.801-.607 1.246-.864 3.721-2.148 8.245-1.663 11.421.861l5.054-10.052c4.262-8.477-1.9-18.473-11.389-18.473-9.488.001-15.65 9.997-11.388 18.474z" fill="#fcf4d9"/><path d="m377.409 127.955c-.446.257-.906.464-1.371.647l6.18 9.406c5.21 7.93 16.949 7.591 21.693-.626s-.832-18.552-10.304-19.099l-11.232-.649c.597 4.012-1.244 8.173-4.966 10.321z" fill="#fcf4d9"/><path d="m340.736 100.908c-4.744 8.217.832 18.552 10.304 19.1l11.233.649c-.598-4.013 1.243-8.173 4.964-10.322.446-.257.906-.464 1.372-.647l-6.18-9.406c-5.211-7.93-16.949-7.592-21.693.626z" fill="#fceca9"/><path d="m366.864 109.69c5.222-3.015 11.899-1.226 14.914 3.996s1.226 11.899-3.996 14.913c-5.222 3.015-11.899 1.226-14.913-3.996-3.016-5.221-1.227-11.898 3.995-14.913z" fill="#ffdd40"/><path d="m108.089 271.7c4.744 8.217 16.482 8.556 21.693.626l6.179-9.405c-2.073-.812-3.897-2.299-5.094-4.372-1.197-2.074-1.572-4.397-1.239-6.598l-11.234.649c-9.474.548-15.049 10.883-10.305 19.1z" fill="#f4d99d"/><path d="m149.571 234.6-6.179 9.405c2.073.812 3.897 2.299 5.094 4.372s1.572 4.397 1.239 6.598l11.234-.649c9.472-.547 15.048-10.882 10.304-19.1-4.743-8.217-16.481-8.556-21.692-.626z" fill="#fcf4d9"/><path d="m144.763 262.273c-3.721 2.148-8.245 1.663-11.421-.861l-5.054 10.052c-4.262 8.477 1.9 18.473 11.389 18.473 9.488 0 15.651-9.996 11.389-18.474l-5.056-10.054c-.392.312-.801.607-1.247.864z" fill="#fceca9"/><path d="m128.288 235.463 5.056 10.054c.391-.311.8-.607 1.246-.864 3.721-2.148 8.245-1.663 11.421.861l5.054-10.052c4.262-8.477-1.9-18.473-11.389-18.473-9.488 0-15.651 9.997-11.388 18.474z" fill="#fcf4d9"/><path d="m144.763 262.273c-.446.258-.906.464-1.372.648l6.18 9.406c5.21 7.93 16.949 7.591 21.693-.626s-.832-18.552-10.304-19.1l-11.233-.649c.599 4.013-1.243 8.173-4.964 10.321z" fill="#fcf4d9"/><path d="m108.089 235.226c-4.744 8.217.832 18.552 10.304 19.1l11.232.649c-.598-4.013 1.243-8.173 4.965-10.322.446-.257.906-.464 1.372-.647l-6.18-9.406c-5.211-7.93-16.949-7.591-21.693.626z" fill="#fceca9"/><path d="m134.218 244.009c5.222-3.015 11.899-1.226 14.913 3.996 3.015 5.222 1.226 11.899-3.996 14.913-5.222 3.015-11.899 1.226-14.913-3.996-3.015-5.222-1.226-11.899 3.996-14.913z" fill="#ffdd40"/><path d="m304.922 101.568c8.217 4.744 18.552-.831 19.1-10.304l.649-11.234c-2.201.333-4.525-.042-6.598-1.239s-3.56-3.021-4.372-5.094l-9.405 6.179c-7.93 5.21-7.591 16.948.626 21.692z" fill="#fceca9"/><path d="m322.297 48.697-.649 11.234c2.201-.333 4.525.042 6.598 1.239s3.56 3.022 4.372 5.094l9.405-6.179c7.93-5.21 7.591-16.948-.626-21.693-8.218-4.743-18.553.833-19.1 10.305z" fill="#fcf4d9"/><path d="m331.969 75.067c-2.148 3.721-6.309 5.563-10.322 4.964l.649 11.233c.547 9.472 10.882 15.048 19.1 10.304 8.217-4.744 8.556-16.482.626-21.693l-9.406-6.179c-.182.465-.389.925-.647 1.371z" fill="#fcf4d9"/><path d="m304.296 60.086 9.406 6.18c.183-.465.39-.926.647-1.371 2.149-3.721 6.308-5.563 10.322-4.965l-.649-11.232c-.547-9.472-10.882-15.048-19.099-10.304-8.218 4.744-8.557 16.482-.627 21.692z" fill="#fceca9"/><path d="m331.969 75.067c-.257.446-.553.855-.864 1.247l10.055 5.056c8.477 4.262 18.473-1.9 18.473-11.389 0-9.488-9.996-15.651-18.473-11.389l-10.052 5.054c2.524 3.177 3.009 7.7.861 11.421z" fill="#fcf4d9"/><path d="m286.685 69.981c0 9.489 9.996 15.651 18.473 11.389l10.052-5.054c-2.525-3.176-3.01-7.7-.862-11.421.258-.446.553-.855.864-1.247l-10.055-5.056c-8.476-4.262-18.472 1.9-18.472 11.389z" fill="#f4d99d"/><ellipse cx="323.159" cy="69.981" fill="#ffdd40" rx="10.917" ry="10.917" transform="matrix(.9 -.437 .437 .9 1.866 148.083)"/><path d="m170.603 334.215c8.217 4.744 18.552-.831 19.1-10.304l.649-11.234c-2.201.333-4.525-.042-6.598-1.239-2.074-1.197-3.56-3.022-4.372-5.094l-9.404 6.179c-7.931 5.21-7.592 16.948.625 21.692z" fill="#f4d99d"/><path d="m187.978 281.344-.649 11.234c2.201-.333 4.525.042 6.598 1.239 2.074 1.197 3.56 3.022 4.372 5.094l9.405-6.179c7.93-5.21 7.591-16.949-.626-21.693-8.218-4.743-18.553.832-19.1 10.305z" fill="#fcf4d9"/><path d="m197.651 307.714c-2.148 3.721-6.309 5.563-10.322 4.964l.649 11.233c.547 9.472 10.882 15.048 19.1 10.304 8.217-4.744 8.556-16.482.626-21.693l-9.406-6.18c-.183.466-.39.926-.647 1.372z" fill="#fceca9"/><path d="m169.977 292.733 9.406 6.18c.183-.465.39-.926.647-1.371 2.148-3.721 6.308-5.563 10.322-4.965l-.649-11.232c-.547-9.472-10.882-15.048-19.1-10.304-8.217 4.743-8.556 16.481-.626 21.692z" fill="#fcf4d9"/><path d="m197.651 307.714c-.258.446-.553.855-.864 1.246l10.054 5.056c8.477 4.262 18.473-1.9 18.474-11.389 0-9.488-9.996-15.651-18.473-11.389l-10.052 5.054c2.524 3.177 3.009 7.701.861 11.422z" fill="#fcf4d9"/><path d="m152.366 302.627c0 9.489 9.996 15.651 18.473 11.389l10.052-5.054c-2.524-3.176-3.01-7.7-.861-11.421.257-.446.553-.855.864-1.246l-10.054-5.056c-8.477-4.262-18.473 1.9-18.474 11.388z" fill="#fceca9"/><ellipse cx="188.84" cy="302.627" fill="#ffdd40" rx="10.917" ry="10.917" transform="matrix(1 -.006 .006 1 -1.878 1.18)"/><path d="m448.292 337.965h-118.971c-4.807 0-8.741-3.933-8.741-8.741v-105.66c0-4.807 3.933-8.741 8.741-8.741h118.971c4.807 0 8.741 3.933 8.741 8.741v105.66c0 4.808-3.934 8.741-8.741 8.741z" fill="#e9efff"/><path d="m320.581 223.564v105.66c0 4.807 3.933 8.741 8.741 8.741h63.29c-10.885-9.229-2.275-23.299-2.275-23.299v-50.692c-12.551-3.158-8.845-17.126-8.845-17.126l-11.554-32.025h-40.616c-4.808.001-8.741 3.934-8.741 8.741z" fill="#dae2fe"/><g fill="#bec8f7"><path d="m390.336 263.975c-3.151 0-5.706 2.554-5.706 5.706v39.28c0 3.152 2.555 5.706 5.706 5.706s5.706-2.554 5.706-5.706v-39.28c0-3.152-2.555-5.706-5.706-5.706z"/><path d="m378.716 279.889c0-8.775-7.398-15.914-16.492-15.914h-10.438-.004-.008c-3.102 0-5.706 2.516-5.706 5.706v39.28c0 3.152 2.555 5.706 5.706 5.706s5.706-2.554 5.706-5.706v-9.01l11.248 12.78c1.128 1.282 2.702 1.936 4.285 1.936 1.339 0 2.684-.468 3.767-1.423 2.366-2.082 2.595-5.687.514-8.053l-9.197-10.449c6.198-2.291 10.619-8.077 10.619-14.853zm-16.492-4.503c2.754 0 5.08 2.062 5.08 4.502s-2.326 4.502-5.08 4.502c-1.115 0-2.908.007-4.691.016-.022-4.631-.008-3.449-.024-9.02z"/><path d="m421.606 263.975h-10.937c-3.161 0-5.706 2.605-5.706 5.706v39.28c0 3.152 2.555 5.706 5.706 5.706s5.706-2.554 5.706-5.706v-11.387c1.969-.01 3.997-.018 5.231-.018 9.378 0 17.008-7.532 17.008-16.791-.001-9.258-7.63-16.79-17.008-16.79zm0 22.169c-1.226 0-3.229.008-5.187.018-.026-5.525-.01-3.902-.028-10.775h5.215c3.033 0 5.596 2.463 5.596 5.378 0 2.916-2.563 5.379-5.596 5.379z"/></g><g><path d="m384.304 221.447c-.63.336-1.371.317-1.983-.05s-.977-1.013-.977-1.726v-1.117l-.681.438c-2.897 1.86-7.01 4.273-11.301 6.064-.362 1.368-.669 2.782-.911 4.244-2.113 12.734-7.884 19.234-11.059 21.937-.665.566-.258 1.652.615 1.639 2.661-.039 6.805-.358 10.487-1.743.53-.2 1.113.127 1.23.682.338 1.607.893 4.767.81 7.853-.021.775.869 1.226 1.489.761 1.258-1.277 9.216-6.711 11.857-22.628 1.13-6.81 3.658-12.599 6.583-17.334-2.078-.367-4.245-.041-6.159.98z" fill="#543e5b"/></g><path d="m390.461 220.466c-2.076-.366-4.243-.04-6.157.981-.63.336-1.371.317-1.983-.05s-.977-1.013-.977-1.726v-1.117l-.681.438c-2.897 1.86-7.01 4.274-11.301 6.064-.362 1.367-.669 2.782-.911 4.244-.133.803-.281 1.581-.442 2.336.51.173 1.066.204 1.608.06 7.597-2.027 11.897 2.58 13.514 4.888.223.319.507.58.827.781 1.163-6.622 3.641-12.267 6.503-16.899z" fill="#422953"/><g><path d="m420.222 251.236c-3.175-2.702-8.947-9.203-11.06-21.937-.243-1.462-.55-2.876-.911-4.243-4.291-1.791-8.404-4.205-11.301-6.065l-.681-.438v1.117c0 .714-.365 1.359-.978 1.726-.612.367-1.353.385-1.983.05-1.914-1.021-4.081-1.347-6.157-.981 2.926 4.735 5.453 10.524 6.583 17.334 2.641 15.916 10.599 21.351 11.857 22.628.62.465 1.51.013 1.489-.761-.083-3.086.472-6.246.81-7.853.116-.555.699-.881 1.23-.682 3.682 1.386 7.825 1.704 10.487 1.743.873.014 1.28-1.073.615-1.638z" fill="#543e5b"/></g><path d="m409.54 231.313c-.135-.655-.263-1.324-.377-2.015-.243-1.462-.55-2.876-.911-4.243-4.291-1.791-8.404-4.205-11.301-6.065l-.681-.438v1.117c0 .714-.366 1.359-.978 1.726s-1.353.385-1.983.05c-1.914-1.021-4.081-1.347-6.157-.981 2.844 4.603 5.308 10.206 6.481 16.771.316-.236.584-.536.775-.895 3.405-6.393 9.779-5.732 13.137-4.835.689.185 1.393.102 1.995-.192z" fill="#422953"/><path d="m347.483 218.61 2.017-5.351c1.652-1.836 4.171-3.289 7.854-2.436 6.654 1.542 16.627 4.882 24.137 3.268v4.891c-6.25 4.077-17.594 10.458-25.113 8.716-9.865-2.285-8.895-9.088-8.895-9.088z" fill="#422953"/><path d="m381.491 214.091v4.891c-3.178 2.073-7.674 4.74-12.314 6.634-.392-.526-.568-1.208-.416-1.9.827-3.76-.715-6.774-2.099-8.599-.469-.618-.598-1.391-.41-2.085 5.118 1.177 10.64 2.048 15.239 1.059z" fill="#30144a"/><g><path d="m349.41 193.648c4.911-5.698 16.396-4.487 24.235 4.048 2.828 3.079 5.537 5.233 7.846 6.731v10.155c-7.346 1.642-17.161-1.653-23.695-3.167-7.618-1.765-10.138 6.581-10.304 7.161 4.059-13.996-2.989-19.234 1.918-24.928z" fill="#543e5b"/></g><path d="m367.06 211.811c6.016-4.692 3.798-12.714 2.313-16.432-.194-.485-.218-.998-.1-1.471 1.531 1.044 3.008 2.302 4.372 3.788 2.828 3.079 5.536 5.233 7.846 6.731v10.155c-4.608 1.03-10.186.118-15.317-1.079.04-.644.338-1.264.886-1.692z" fill="#422953"/><path d="m430.131 218.61-2.017-5.351c-1.652-1.836-4.171-3.289-7.854-2.436-6.654 1.542-16.627 4.882-24.137 3.268v4.891c6.25 4.077 17.594 10.458 25.113 8.716 9.864-2.285 8.895-9.088 8.895-9.088z" fill="#422953"/><path d="m396.123 214.091v4.891c3.178 2.073 7.674 4.74 12.314 6.634.392-.526.568-1.208.416-1.9-.827-3.76.715-6.774 2.099-8.599.469-.618.598-1.391.41-2.085-5.118 1.177-10.64 2.048-15.239 1.059z" fill="#30144a"/><g><path d="m428.203 193.648c-4.911-5.698-16.396-4.487-24.235 4.048-2.828 3.079-5.537 5.233-7.846 6.731v10.155c7.346 1.642 17.161-1.653 23.695-3.167 7.618-1.765 10.138 6.581 10.303 7.161-4.057-13.996 2.991-19.234-1.917-24.928z" fill="#543e5b"/></g><path d="m410.553 211.811c-6.016-4.692-3.798-12.714-2.313-16.432.194-.485.217-.998.1-1.471-1.531 1.044-3.008 2.302-4.372 3.788-2.828 3.079-5.537 5.233-7.846 6.731v10.155c4.608 1.03 10.186.118 15.317-1.079-.04-.644-.338-1.264-.886-1.692z" fill="#422953"/><path d="m393.183 201.796c-.181.044-3.868 2.376-8.368.188l-.385-.188c-1.631-.793-3.529.395-3.529 2.208v15.667c0 1.854 1.975 3.039 3.61 2.166 2.685-1.431 5.906-1.431 8.59 0 1.635.872 3.61-.313 3.61-2.166v-15.667c.001-1.813-1.897-3.001-3.528-2.208z" fill="#665364"/><g><path d="m388.967 218.928v-14.181c0-.854.467-1.551 1.121-1.926-1.441.214-3.276.133-5.272-.837l-.385-.187c-1.631-.793-3.529.395-3.529 2.208v15.667c0 1.853 1.975 3.039 3.61 2.166 1.733-.924 3.69-1.248 5.581-.979-.656-.374-1.126-1.072-1.126-1.931z" fill="#543e5b"/></g></g></svg>