<svg id="Layer_1" enable-background="new 0 0 512 512" height="512" viewBox="0 0 512 512" width="512" xmlns="http://www.w3.org/2000/svg"><g><path d="m452.965 412.711c30.177-40.725 48.032-91.129 48.032-145.709 0-135.309-109.689-244.998-244.998-244.998s-244.997 109.689-244.997 244.998c0 54.579 17.856 104.984 48.033 145.709z" fill="#422953"/><path d="m95.707 26.701h292.191v-26.701h-292.191c-20.656 0-37.402 16.746-37.402 37.402 0 .164 0 2.444 0 2.322 0 4.281.729 8.39 2.053 12.221 5.05-14.681 18.954-25.244 35.349-25.244z" fill="#e1715a"/><path d="m172.701 0h-76.994c-20.656 0-37.402 16.746-37.402 37.402 0 .164 0 2.444 0 2.322 0 4.281.729 8.39 2.053 12.221 5.05-14.681 18.954-25.244 35.349-25.244h77.417c-.435-.763-1.03-1.538-1.815-2.322-15.816-15.817 1.392-24.379 1.392-24.379z" fill="#c15655"/><path d="m425.937 65.796v11.331h.218c15.21 0 27.54 12.33 27.54 27.54v-38.871z" fill="#e1715a"/><path d="m426.155 0h-40.578v26.701h31.892c4.677 0 8.469 3.791 8.469 8.468v32.949h27.758v-40.578c-.001-15.21-12.331-27.54-27.541-27.54z" fill="#ffb332"/><path d="m256 512c81.173 0 153.113-39.487 197.695-100.289v-271.11h-26.141c-3.091 0-5.596-2.506-5.596-5.596v-26.016c0-1.351-1.095-2.447-2.447-2.447h-26.016c-3.091 0-5.596-2.506-5.596-5.596v-26.141h-292.191c-20.657 0-37.403-16.746-37.403-37.402v374.308c44.582 60.802 116.522 100.289 197.695 100.289z" fill="#f1935d"/><path d="m58.305 37.403v374.308c24.467 33.369 57.174 60.315 95.125 77.84-13.8-24.157-12.741-51.912-12.741-51.912s0-218.852 0-269.033c0-35.372 15.214-50.754 24.194-56.753 2.854-1.907 3.361-5.821 1.266-8.539-7.506-9.737-2.221-18.486 1.794-22.987 1.366-1.532 1.769-3.627 1.226-5.521h-73.461c-20.657-.001-37.403-16.747-37.403-37.403z" fill="#e1715a"/><path d="m419.791 24.379h-324.084c-16.817 0-31.041 11.101-35.747 26.374 4.706 15.273 18.93 26.374 35.748 26.374h332.551v-44.28c0-4.677-3.791-8.468-8.468-8.468z" fill="#e9efff"/><path d="m171.31 24.379h-75.603c-16.817 0-31.041 11.101-35.747 26.374 4.707 15.273 18.93 26.374 35.748 26.374h75.602c-24.362-7.588-24.362-45.16 0-52.748z" fill="#bec8f7"/><path d="m140.69 50.753h-23.965c-2.033 0-3.681 1.648-3.681 3.682v22.692h31.328v-22.692c-.001-2.034-1.649-3.682-3.682-3.682z" fill="#e80054"/><path d="m426.155 74.805h-40.578v28.463c0 3.091 2.506 5.596 5.597 5.596h26.016c1.352 0 2.447 1.095 2.447 2.447v26.016c0 3.091 2.506 5.596 5.596 5.596h28.462v-40.578c0-15.21-12.33-27.54-27.54-27.54z" fill="#ffdd40"/><path d="m415.589 108.474h-319.178c-3.733 0-6.759 3.026-6.759 6.759v331.616c43.69 40.43 102.128 65.151 166.348 65.151s122.658-24.721 166.347-65.151v-331.616c0-3.733-3.026-6.759-6.758-6.759z" fill="#e1715a"/><path d="m96.411 108.474c-3.732 0-6.759 3.026-6.759 6.759v331.616c18.769 17.368 40.266 31.827 63.767 42.683-13.789-24.152-12.73-51.893-12.73-51.893s0-218.852 0-269.033c0-35.372 15.214-50.754 24.194-56.753 1.246-.832 2.044-2.047 2.374-3.378h-70.846z" fill="#c15655"/><g><path d="m315.922 200.549c-2.338 0-4.669-.936-6.385-2.785-13.789-14.86-33.303-23.383-53.537-23.383s-39.748 8.523-53.537 23.383c-3.27 3.527-8.78 3.732-12.306.46-3.525-3.271-3.731-8.781-.46-12.306 17.073-18.399 41.24-28.952 66.303-28.952s49.229 10.552 66.303 28.952c3.271 3.525 3.065 9.035-.46 12.306-1.676 1.555-3.802 2.325-5.921 2.325z" fill="#c15655"/></g><g><path d="m266.941 470.418h-21.881c-4.809 0-8.708-3.898-8.708-8.708s3.899-8.708 8.708-8.708h21.881c4.809 0 8.708 3.898 8.708 8.708s-3.899 8.708-8.708 8.708z" fill="#c15655"/></g><path d="m113.043 77.127v87.797c0 2.033 1.649 3.682 3.681 3.682h23.965c2.033 0 3.682-1.648 3.682-3.682v-87.797z" fill="#ff4155"/><path d="m128.707 131.106c-8.651 0-15.664-7.013-15.664-15.664v49.482c0 2.033 1.648 3.682 3.681 3.682h23.965c2.033 0 3.682-1.648 3.682-3.682v-49.482c0 8.651-7.013 15.664-15.664 15.664z" fill="#ff7186"/><path d="m307.056 271.742h-30.559c-2.754 0-4.986-2.232-4.986-4.986v-37.548c0-8.352-6.419-15.539-14.762-15.931-8.907-.419-16.26 6.678-16.26 15.493v37.986c0 2.754-2.232 4.986-4.986 4.986h-30.559c-8.352 0-15.539 6.419-15.931 14.762-.419 8.907 6.678 16.26 15.493 16.26h30.997c2.754 0 4.986 2.232 4.986 4.986v98.18c0 8.352 6.419 15.539 14.762 15.931 8.907.419 16.26-6.678 16.26-15.493v-98.618c0-2.754 2.232-4.986 4.986-4.986h30.997c8.815 0 15.912-7.353 15.493-16.26-.392-8.343-7.579-14.762-15.931-14.762z" fill="#ffdd40"/><path d="m240.489 307.751v98.18c0 8.352 6.419 15.539 14.762 15.931 8.907.419 16.26-6.678 16.26-15.493v-98.618c0-1.337.533-2.545 1.39-3.44h-.007c-34.6 1.546-33.699-34.211-33.699-34.211l-.009-.008c-.912 1.007-2.217 1.651-3.683 1.651h-30.559c-8.352 0-15.539 6.419-15.931 14.762-.419 8.908 6.678 16.26 15.493 16.26h30.997c2.754-.001 4.986 2.232 4.986 4.986z" fill="#ffb332"/></g></svg>