<svg id="Layer_1" enable-background="new 0 0 512 512" height="512" viewBox="0 0 512 512" width="512" xmlns="http://www.w3.org/2000/svg"><g><path d="m439.018 429.855c38.546-43.288 61.98-100.33 61.98-162.853 0-135.309-109.689-244.998-244.998-244.998s-244.998 109.69-244.998 244.998c0 62.172 23.171 118.923 61.331 162.122z" fill="#aa67c6"/><path d="m493.309 142.61-41.038 4.278c.066.447.066.903-.019 1.352l-.34 1.783-61.312 321.702c18.294-12.052 34.876-26.487 49.304-42.868l53.121-278.725c.474-2.492.562-5.027.284-7.522z" fill="#e1715a"/><path d="m475.51 242.029c-1.061-1.267-2.757-1.955-4.523-1.63-15.927 2.937-21.861-5.83-23.938-10.989-.764-1.897-2.674-3.012-4.715-2.887-1.914.117-3.526-.123-4.891-.58l-46.843 245.782c18.294-12.052 34.875-26.487 49.304-42.868z" fill="#c15655"/><path d="m418.044 0h-95.519c5.163 0 10.052 1.597 14.146 4.373l.015-.022c.408.276 1.789 1.316 2.469 1.91l-.004.007c2.845 2.489 5.16 5.62 6.678 9.255l10.391 24.883h49.029c1.636 0 3.113.983 3.743 2.493l.32.766 25.361-37.404c-4.513-3.95-10.381-6.261-16.629-6.261z" fill="#c15655"/><path d="m491.52 135.674-50.173-120.151c-1.937-4.637-5.157-8.471-9.143-11.171l-24.774 36.697c.682.436 1.237 1.071 1.562 1.851l43.018 103.017c.13.312.212.64.261.971l41.038-4.278c-.265-2.373-.859-4.709-1.789-6.936z" fill="#f1935d"/><path d="m330.756 500.368c21.376-6.842 41.471-16.539 59.844-28.643 17.36-91.087 59.031-309.73 61.652-323.486.149-.781.065-1.59-.242-2.324l-43.018-103.016c-.631-1.51-2.107-2.493-3.743-2.493h-49.029l39.782 95.269c1.882 4.507 2.432 9.582 1.504 14.458z" fill="#422953"/><path d="m437.442 225.944c-2.702-.904-4.419-2.675-5.477-4.321-1.224-1.906-3.554-2.727-5.687-1.965-17.519 6.259-27.746-1.716-32.828-8.241-2.022-2.595-5.932-2.381-7.678.281l-55.016 288.67c21.376-6.842 41.471-16.539 59.844-28.643 11.174-58.631 32.421-170.111 46.842-245.781z" fill="#30144a"/><path d="m400.476 464.867c18.191-95.445 57.501-301.704 60.045-315.05.459-2.409.203-4.879-.741-7.142 0 0 0-.002-.001-.003l-43.019-103.016c-1.945-4.658-6.464-7.668-11.511-7.668h-52.544l7.03 16.836h42.609l41.393 99.126c-4.426 23.225-46.89 246.031-62.868 329.864 6.752-4.008 13.293-8.33 19.607-12.947z" fill="#c15655"/><path d="m442.333 226.524c-5.705.349-8.776-2.423-10.368-4.901-.494-.768-1.171-1.35-1.939-1.733-15.068 79.062-38.266 200.779-49.158 257.924 6.752-4.008 13.294-8.33 19.606-12.947 11.508-60.378 31.466-165.1 45.223-237.28-.917-.747-2.114-1.14-3.364-1.063z" fill="#ad4949"/><path d="m56.706 247.812h41.366v-94.004h-59.282z" fill="#c15655"/><path d="m85.495 398.872h12.577v-94.003h-30.492z" fill="#c15655"/><path d="m98.072 96.75v-91.874c-5.963 4.525-8.245 10.576-8.305 10.647l-33.92 81.227z" fill="#c15655"/><path d="m98.072 153.808h60.424v94.004h-60.424z" fill="#ad4949"/><path d="m98.072 304.869h60.424v94.004h-60.424z" fill="#ad4949"/><path d="m158.495 491.811v-35.881h-58.484c17.596 14.544 37.263 26.664 58.484 35.881z" fill="#ad4949"/><path d="m158.495 96.75v-96.75h-45.421c-6.533 0-11.429 2.164-15.003 4.876v91.874z" fill="#ad4949"/><g fill="#e1715a"><path d="m158.495 153.808h60.425v94.004h-60.425z"/><path d="m158.495 304.869h60.425v94.004h-60.425z"/><path d="m158.495 0h60.425v96.75h-60.425z"/><path d="m158.495 491.811c19.013 8.258 39.271 14.187 60.425 17.399v-53.28h-60.425z"/></g><path d="m218.92 304.869h60.424v94.004h-60.424z" fill="#c15655"/><path d="m218.92 153.808h60.424v94.004h-60.424z" fill="#c15655"/><path d="m218.92 509.209c12.093 1.836 24.475 2.791 37.08 2.791 7.875 0 15.659-.387 23.344-1.113v-54.957h-60.424z" fill="#c15655"/><path d="m218.92 0h60.424v96.75h-60.424z" fill="#c15655"/><path d="m279.344 304.869h60.424v94.004h-60.424z" fill="#e1715a"/><path d="m279.344 153.808h60.424v94.004h-60.424z" fill="#e1715a"/><path d="m339.768 96.75v-91.797c-4.256-3.144-9.477-4.953-14.998-4.953h-45.426v96.75z" fill="#e1715a"/><path d="m279.344 510.887c18.621-1.76 36.633-5.602 53.805-11.295l6.619-34.731v-8.931h-60.424z" fill="#e1715a"/><path d="m339.768 153.808v94.004h41.366l17.916-94.004z" fill="#c15655"/><path d="m339.768 304.869v94.003h12.576l17.916-94.003z" fill="#c15655"/><path d="m381.993 96.75-33.919-81.228-.026-.063c-1.8-4.279-4.701-7.863-8.28-10.507v91.798z" fill="#c15655"/><path d="m361.124 397.189h-284.408c-5.797 0-10.162 5.275-9.077 10.97l3.805 19.964c9.342 10.692 19.602 20.559 30.65 29.491h251.036c4.436 0 8.246-3.152 9.077-7.51l7.994-41.944c1.085-5.696-3.28-10.971-9.077-10.971z" fill="#f1935d"/><g><path d="m137.585 427.401c0-13.991 8.99-25.876 21.506-30.212h-82.375c-5.797 0-10.162 5.275-9.077 10.97l3.805 19.964c9.342 10.692 19.602 20.559 30.65 29.491h56.996c-12.515-4.337-21.505-16.222-21.505-30.213z" fill="#e1715a"/></g><path d="m389.914 246.128h-341.988c-5.797 0-10.162 5.276-9.077 10.97l7.994 41.944c.831 4.358 4.641 7.51 9.077 7.51h326c4.436 0 8.246-3.152 9.076-7.51l7.994-41.944c1.086-5.695-3.28-10.97-9.076-10.97z" fill="#f1935d"/><g><path d="m137.585 276.34c0-13.991 8.99-25.875 21.505-30.212h-111.164c-5.797 0-10.162 5.276-9.077 10.97l7.993 41.944c.831 4.358 4.641 7.51 9.077 7.51h103.17c-12.514-4.336-21.504-16.221-21.504-30.212z" fill="#e1715a"/></g><path d="m405.093 100.876c-1.407-3.504-4.799-5.809-8.575-5.809h-355.197c-3.776 0-7.168 2.305-8.574 5.809-6.511 16.225-14.535 28.537-14.203 45.496.099 5.054 4.19 9.119 9.245 9.119h382.263c5.055 0 9.146-4.066 9.245-9.12.33-16.957-7.695-29.277-14.204-45.495z" fill="#f1935d"/><g><path d="m137.585 125.279c0-13.991 8.99-25.875 21.506-30.212h-117.77c-3.776 0-7.168 2.305-8.574 5.809-6.511 16.225-14.536 28.537-14.203 45.496.099 5.054 4.19 9.119 9.245 9.119h131.302c-12.516-4.336-21.506-16.221-21.506-30.212z" fill="#e1715a"/></g><path d="m339.767 111.437c-7.645 0-13.842 6.197-13.842 13.842s6.197 13.843 13.842 13.843 13.843-6.198 13.843-13.843-6.197-13.842-13.843-13.842z" fill="#c15655"/><path d="m98.071 111.437c-7.645 0-13.842 6.197-13.842 13.842s6.197 13.843 13.842 13.843 13.843-6.198 13.843-13.843-6.197-13.842-13.843-13.842z" fill="#ad4949"/><path d="m325.925 262.497c-7.645 0-13.842 6.197-13.842 13.842s6.197 13.843 13.842 13.843 13.843-6.198 13.843-13.843c0-7.644-6.198-13.842-13.843-13.842z" fill="#c15655"/><path d="m111.914 262.497c-7.645 0-13.842 6.197-13.842 13.842s6.197 13.843 13.842 13.843 13.843-6.198 13.843-13.843c0-7.644-6.198-13.842-13.843-13.842z" fill="#ad4949"/><path d="m312.082 413.559c-7.645 0-13.842 6.197-13.842 13.842s6.197 13.843 13.842 13.843 13.843-6.198 13.843-13.843-6.198-13.842-13.843-13.842z" fill="#c15655"/><path d="m125.757 413.559c-7.645 0-13.842 6.197-13.842 13.842s6.197 13.843 13.842 13.843 13.843-6.198 13.843-13.843c-.001-7.645-6.198-13.842-13.843-13.842z" fill="#ad4949"/></g></svg>