<svg id="Layer_1" enable-background="new 0 0 512 512" height="512" viewBox="0 0 512 512" width="512" xmlns="http://www.w3.org/2000/svg"><g><path d="m487.188 348.24c8.934-25.425 13.81-52.76 13.81-81.238 0-135.309-109.689-244.998-244.998-244.998s-244.998 109.69-244.998 244.998c0 28.478 4.876 55.814 13.81 81.238z" fill="#aa67c6"/><path d="m236.125 80.053c12.835-4.651 26.915-4.651 39.75 0 3.49 1.265 6.829 2.583 10.028 3.949-2.294-9.07-8.633-18.596-23.622-24.655-4.057-1.64-8.507-1.64-12.564 0-14.989 6.059-21.328 15.585-23.622 24.655 3.201-1.366 6.54-2.684 10.03-3.949z" fill="#fcf4d9"/><g><path d="m256.628 44.21c-12.941 0-23.469-10.528-23.469-23.469 0-7.809 3.866-15.082 10.342-19.456 3.433-2.316 8.094-1.416 10.413 2.017s1.415 8.095-2.017 10.413c-2.341 1.581-3.739 4.208-3.739 7.026 0 4.67 3.799 8.469 8.469 8.469 3.413 0 6.477-2.031 7.806-5.175 1.614-3.814 6.015-5.599 9.83-3.985 3.815 1.613 5.599 6.014 3.986 9.829-3.682 8.706-12.169 14.331-21.621 14.331z" fill="#ffdd40"/></g><g><path d="m256 67.617c-4.142 0-7.5-3.357-7.5-7.5v-22.899c0-4.143 3.358-7.5 7.5-7.5s7.5 3.357 7.5 7.5v22.899c0 4.143-3.358 7.5-7.5 7.5z" fill="#ffc839"/></g><path d="m344.899 233.384h-177.797c-.249 0-.493-.024-.739-.037v29.07h179.275v-29.07c-.246.014-.49.037-.739.037z" fill="#f9e9bd"/><path d="m220.755 247.896c0-6.81 4.472-12.571 10.639-14.512h-64.292c-.249 0-.493-.024-.739-.037v29.07h65.062c-6.183-1.932-10.67-7.702-10.67-14.521z" fill="#f4d99d"/><path d="m363.371 289.673v-14.35c0-7.127-5.778-12.906-12.906-12.906h-188.93c-7.128 0-12.906 5.778-12.906 12.906v14.35z" fill="#fcf4d9"/><path d="m167.102 209.384h177.797c1.376 0 2.702.209 3.953.591 7.738-25.153 20.391-97.093-72.976-130.922-12.835-4.651-26.915-4.651-39.75 0-93.367 33.83-80.714 105.769-72.976 130.922 1.25-.382 2.576-.591 3.952-.591z" fill="#f9e9bd"/><g><path d="m276.655 79.345c-.263-.097-.515-.197-.78-.293-12.835-4.651-26.915-4.651-39.75 0-93.367 33.83-80.714 105.769-72.976 130.922 1.251-.382 2.577-.591 3.953-.591h62.342c-5.04-25.589-12.671-96.348 47.211-130.038z" fill="#f4d99d"/></g><g><path d="m344.899 234.384h-177.797c-7.456 0-13.5-6.044-13.5-13.5s6.044-13.5 13.5-13.5h177.797c7.456 0 13.5 6.044 13.5 13.5s-6.044 13.5-13.5 13.5z" fill="#fcf4d9"/></g><g fill="#f9e9bd"><path d="m224.202 262.418h-62.667c-7.128 0-12.906 5.778-12.906 12.906v14.35h62.667v-14.35c0-7.128 5.778-12.906 12.906-12.906z"/><path d="m216.268 220.884c0-7.456 6.044-13.5 13.5-13.5h-62.667c-7.456 0-13.5 6.044-13.5 13.5s6.044 13.5 13.5 13.5h62.667c-7.456 0-13.5-6.043-13.5-13.5z"/><path d="m84.869 442.301c44.16 43.117 104.537 69.699 171.131 69.699s126.971-26.582 171.131-69.699v-153.628h-342.262z"/></g><path d="m84.869 288.674v153.626c36.351 35.492 83.694 59.763 136.443 67.244v-160.846c-37.603-26.228-10.016-60.025-10.016-60.025h-126.427z" fill="#f4d99d"/><path d="m385.066 450.381c-4.74-4.093-10.399-7.284-16.81-9.215-.024-.007-.049-.013-.073-.021-2.52-.754-5.207-.754-7.726 0-.025.008-.049.015-.073.021-6.411 1.931-12.07 5.122-16.81 9.215-4.118 3.555-6.504 8.714-6.504 14.154v33.714c19.398-6.8 37.68-15.967 54.5-27.163v-6.553c0-5.439-2.386-10.597-6.504-14.152z" fill="#e1715a"/><path d="m360.457 443.144c-.767-.413-1.462-.851-2.126-1.301-5.569 1.962-10.531 4.888-14.756 8.537-4.118 3.555-6.504 8.714-6.504 14.154v33.715c7.997-2.804 15.793-6.031 23.387-9.616v-45.489z" fill="#c15655"/><path d="m168.426 450.381c-4.74-4.093-10.399-7.284-16.81-9.215-.024-.007-.049-.013-.073-.021-2.52-.754-5.207-.754-7.726 0-.024.008-.049.015-.073.021-6.411 1.931-12.07 5.122-16.81 9.215-4.118 3.555-6.504 8.714-6.504 14.154v6.552c16.82 11.196 35.102 20.363 54.5 27.163v-33.717c-.001-5.44-2.387-10.597-6.504-14.152z" fill="#e1715a"/><path d="m143.744 445.238c0-1.265-.634-2.437-1.667-3.168-.114-.081-.218-.164-.329-.245-5.592 1.962-10.573 4.894-14.813 8.556-4.118 3.555-6.504 8.714-6.504 14.154v6.552c7.487 4.983 15.278 9.539 23.314 13.689v-39.538z" fill="#c15655"/><path d="m385.066 420.21c-4.74-4.093-10.399-7.284-16.81-9.214-.024-.007-.049-.014-.073-.022-2.52-.754-5.207-.754-7.726 0-.024.008-.049.015-.073.022-6.411 1.93-12.07 5.122-16.81 9.214-4.118 3.556-6.504 8.714-6.504 14.155v32.17c0-5.44 2.386-10.599 6.504-14.154 4.739-4.093 10.399-7.284 16.81-9.215.024-.007.049-.014.073-.021 2.52-.754 5.207-.754 7.726 0 .024.008.049.015.073.021 6.411 1.931 12.07 5.122 16.81 9.215 4.118 3.556 6.504 8.714 6.504 14.154v-32.17c0-5.442-2.386-10.6-6.504-14.155z" fill="#f1935d"/><path d="m353.331 413.766c-3.573 1.752-6.84 3.925-9.757 6.443-4.118 3.556-6.504 8.714-6.504 14.155v32.17c0-5.44 2.386-10.599 6.504-14.154 4.74-4.093 10.399-7.284 16.81-9.215.024-.007.049-.014.073-.022-17.671-9.512-7.169-29.295-7.126-29.377z" fill="#e1715a"/><path d="m168.426 420.21c-4.74-4.093-10.399-7.284-16.81-9.214-.024-.007-.049-.014-.073-.022-2.52-.754-5.207-.754-7.726 0-.024.008-.049.015-.073.022-6.411 1.93-12.07 5.122-16.81 9.214-4.118 3.556-6.504 8.714-6.504 14.155v32.17c0-5.44 2.386-10.599 6.504-14.154 4.74-4.093 10.399-7.284 16.81-9.215.024-.007.049-.014.073-.021 2.52-.754 5.207-.754 7.726 0 .024.008.049.015.073.021 6.411 1.931 12.07 5.122 16.81 9.215 4.118 3.556 6.504 8.714 6.504 14.154v-32.17c0-5.442-2.386-10.6-6.504-14.155z" fill="#f1935d"/><path d="m120.43 434.364v32.17c0-5.44 2.386-10.599 6.504-14.154 4.61-3.981 10.096-7.099 16.292-9.044-.284-.493-.672-.928-1.15-1.266-12.122-8.569-8.679-20.532-6.293-25.836.312-.693.39-1.434.282-2.144-3.327 1.695-6.388 3.751-9.132 6.12-4.117 3.555-6.503 8.714-6.503 14.154z" fill="#e1715a"/><path d="m250.311 360.622c.035-.011.07-.021.105-.032 3.642-1.09 7.525-1.09 11.166 0 .035.011.07.021.105.032 25.884 7.793 43.285 29.809 46.915 54.715 4.683-38.088-14.439-76.161-46.915-87.736-.035-.013-.07-.025-.105-.038-3.642-1.291-7.525-1.291-11.166 0-.035.013-.07.025-.105.038-32.476 11.575-51.598 49.647-46.915 87.736 3.631-24.906 21.031-46.922 46.915-54.715z" fill="#f1935d"/><path d="m230.119 365.681c-6.089-3.275-7.487-9.145-7.58-13.526-.028-1.305-.483-2.502-1.228-3.456-14.022 17.452-20.94 42.037-17.915 66.639 2.735-18.761 13.285-35.879 29.387-46.516-.454-1.305-1.372-2.447-2.664-3.141z" fill="#e1715a"/><path d="m80.379 258.384h-48.758c-3.955 0-7.161 3.206-7.161 7.161v81.695c13.001 37.522 34.858 70.905 63.081 97.642v-179.336c-.001-3.955-3.207-7.162-7.162-7.162z" fill="#fcf4d9"/><path d="m487.54 347.24v-81.694c0-3.955-3.206-7.161-7.161-7.161h-48.758c-3.955 0-7.161 3.206-7.161 7.161v179.337c28.223-26.737 50.079-60.12 63.08-97.643z" fill="#fcf4d9"/><path d="m52.793 265.546c0-3.955 3.206-7.161 7.161-7.161h-28.333c-3.955 0-7.162 3.206-7.162 7.161v81.695c7 20.202 16.588 39.189 28.334 56.601z" fill="#f4d99d"/><path d="m452.793 265.546c0-3.955 3.206-7.161 7.162-7.161h-28.333c-3.955 0-7.161 3.206-7.161 7.161v179.337c10.344-9.799 19.823-20.499 28.333-31.96v-147.377z" fill="#f4d99d"/><path d="m261.689 359.622c-.035-.011-.07-.021-.105-.032-3.642-1.09-7.525-1.09-11.166 0-.035.011-.07.021-.105.032-37.402 11.261-57.112 52.213-43.12 88.681l1.352 5.409c.461 1.843.694 3.735.694 5.634v48.178c15.138 2.925 30.767 4.476 46.761 4.476s31.623-1.551 46.762-4.477v-50.555c0-3.008.7-5.975 2.046-8.666 13.993-36.467-5.717-77.419-43.119-88.68z" fill="#e1715a"/><path d="m239.626 511.443v-98.185c0-1.387-.519-2.724-1.441-3.76-11.641-13.085-8.254-29.012-5.399-36.987.54-1.51.365-3.106-.336-4.447-25.378 16.99-36.809 50.134-25.257 80.239l1.352 5.409c.461 1.843.694 3.735.694 5.634v48.178c9.928 1.918 20.071 3.233 30.387 3.919z" fill="#c15655"/><path d="m272.375 411.024c-11.425 0-20.723 0-32.749 0-4.764 0-8.626 3.862-8.626 8.626v91.09c8.22.833 16.56 1.26 25 1.26s16.78-.427 25-1.26v-91.09c0-4.764-3.862-8.626-8.625-8.626z" fill="#ad4949"/></g></svg>