<svg id="Layer_1" enable-background="new 0 0 512 512" height="512" viewBox="0 0 512 512" width="512" xmlns="http://www.w3.org/2000/svg"><g><path d="m498.777 300.013c1.454-10.798 2.221-21.814 2.221-33.011 0-135.309-109.689-244.998-244.998-244.998s-244.998 109.69-244.998 244.998c0 11.196.767 22.212 2.221 33.01l155.864 196.104c27.014 10.254 56.304 15.884 86.913 15.884s59.899-5.63 86.913-15.883z" fill="#ffdd40"/><path d="m74.823 186.926 2.743-5.596c1.619-3.303 2.923-6.751 3.893-10.298l9.712-35.49-9.691-11.272c-4.781-5.56-11.749-8.758-19.082-8.758h-33.306c-10.408 0-18.443 9.062-17.3 19.407 1.174 10.627 4.747 23.533 14.279 33.064 10.289 10.289 31.332 15.923 48.752 18.943z" fill="#665364"/><path d="m67.254 159.918c-3.211-1.245-5.027-4.608-4.609-8.027 2.24-18.35-9.896-28.867-17.326-33.504-1.159-.723-2.05-1.727-2.637-2.877h19.717c7.333 0 14.301 3.199 19.082 8.758l9.691 11.271-9.712 35.491c-.971 3.548-2.274 6.996-3.893 10.298 1.195-14.114-5.177-19.419-10.313-21.41z" fill="#543e5b"/><path d="m70.819 195.094 6.747-13.765c1.619-3.303 2.923-6.751 3.893-10.298l6.373-23.289c-1.721-.368-3.506-.567-5.337-.567-14.019 0-25.383 11.365-25.383 25.384.001 9.806 5.566 18.308 13.707 22.535z" fill="#543e5b"/><path d="m82.496 147.175c1.831 0 3.615.199 5.336.567l-6.373 23.289c-.971 3.548-2.274 6.996-3.893 10.298 1.195-14.116-5.176-19.42-10.313-21.411-1.862-.722-3.235-2.166-3.995-3.91 4.656-5.406 11.545-8.833 19.238-8.833z" fill="#422953"/><path d="m437.177 186.926-2.743-5.596c-1.619-3.303-2.922-6.751-3.893-10.298l-9.712-35.49 9.691-11.271c4.781-5.56 11.749-8.758 19.082-8.758h33.306c10.408 0 18.443 9.062 17.3 19.407-1.174 10.627-4.747 23.533-14.279 33.064-10.288 10.288-31.332 15.922-48.752 18.942z" fill="#665364"/><path d="m444.746 159.918c3.211-1.245 5.027-4.608 4.609-8.027-2.24-18.35 9.896-28.867 17.326-33.504 1.159-.723 2.05-1.727 2.637-2.877h-19.717c-7.333 0-14.301 3.199-19.082 8.758l-9.691 11.271 9.712 35.491c.971 3.548 2.274 6.996 3.893 10.298-1.195-14.114 5.177-19.419 10.313-21.41z" fill="#543e5b"/><path d="m441.181 195.094-6.748-13.765c-1.619-3.303-2.922-6.751-3.893-10.298l-6.373-23.289c1.721-.368 3.505-.567 5.337-.567 14.019 0 25.383 11.365 25.383 25.384 0 9.806-5.565 18.308-13.706 22.535z" fill="#543e5b"/><path d="m429.504 147.175c-1.831 0-3.615.199-5.336.567l6.373 23.289c.971 3.548 2.274 6.996 3.893 10.298-1.195-14.116 5.176-19.42 10.313-21.411 1.862-.722 3.235-2.166 3.995-3.91-4.656-5.406-11.545-8.833-19.238-8.833z" fill="#422953"/><path d="m256 469.333h-93.773c-10.985 0-21.842 2.209-31.937 6.47.237.672.505 1.329.787 1.979 12.477 7.411 25.666 13.749 39.443 18.879h170.959c13.778-5.13 26.966-11.468 39.444-18.879.281-.65.549-1.307.786-1.979-10.094-4.262-20.952-6.47-31.937-6.47z" fill="#e9efff"/><path d="m248.663 496.662c-.286-.512-.655-.981-1.103-1.378-5.893-5.228-3.577-10.913-1.109-14.36 1.314-1.836 1.197-4.263-.157-6.07-1.403-1.874-1.792-3.765-1.624-5.521h-82.443c-10.985 0-21.842 2.209-31.937 6.471.237.672.505 1.329.787 1.979 12.477 7.411 25.666 13.749 39.443 18.879z" fill="#dae2fe"/><path d="m497.514 304.357c-2.207-8.388-6.007-16.976-12.074-25.331-3.175-4.374-6.147-8.892-8.713-13.649l-35.756-72.941-1.605.451-82.265 118.824-3.443-6.311c-5.469-10.028-15.962-16.258-27.384-16.258h-70.274-70.273c-11.423 0-21.916 6.229-27.385 16.258l-3.442 6.311-82.266-118.824-1.605-.451-35.756 72.941c-2.566 4.757-5.538 9.276-8.713 13.649-6.066 8.356-9.867 16.944-12.073 25.332l12.547 49.898c19.8 51.927 56.736 95.392 103.922 123.455 9.905-4.08 20.528-6.192 31.272-6.192h93.772 93.773c10.744 0 21.367 2.112 31.273 6.192 47.185-28.063 84.121-71.527 103.921-123.455z" fill="#543e5b"/><path d="m414.467 413.811-4.285-15.93c-21.29-9.629-8.376-30.353-8.376-30.353l-16.946-38.91c-24.612 5.941-27.924-13.787-27.924-13.787h-6.427l-28.047 3.307v153.381h27.311c10.744 0 21.367 2.112 31.273 6.192 14.46-8.6 27.952-18.652 40.289-29.946-13.525-13.347-6.868-33.954-6.868-33.954z" fill="#422953"/><path d="m207.062 289.142h-21.335c-11.423 0-21.916 6.229-27.385 16.258l-3.442 6.311-82.266-118.824-1.605-.451-35.756 72.941c-2.566 4.757-5.538 9.276-8.713 13.649-6.066 8.356-9.867 16.944-12.073 25.332l12.547 49.898c19.8 51.927 56.736 95.392 103.922 123.455 9.905-4.08 20.528-6.192 31.272-6.192h44.835v-182.377z" fill="#422953"/><path d="m397.861 47.613c-1.226-4.625-2.927-9.092-5.022-13.363l-1.546-1.415c-17.427 0-250.299 0-270.253 0l-1.88 1.416c-2.095 4.271-3.795 8.738-5.021 13.363l-31.05 113.467h1.7c24.115-5.454 48.872-8.22 73.599-8.22h195.224c24.727 0 49.484 2.766 73.599 8.22h1.7z" fill="#543e5b"/><path d="m119.16 34.251c-2.095 4.27-3.795 8.738-5.021 13.363l-31.05 113.467h1.7c24.115-5.454 48.872-8.22 73.599-8.22h2.855c-.413-1.361-1.468-2.516-2.958-3.005-14.557-4.777-10.812-16.346-10.812-16.346s7.667-36.333 12.333-59c2.878-13.979 9.623-19.861 14.37-22.316 2.174-1.124 3.087-3.734 2.061-5.956-2.032-4.398-.224-8.062 1.353-10.139.716-.943.989-2.116.84-3.265-29.544 0-51.805 0-57.389 0z" fill="#422953"/><path d="m392.317 72.756c-.021-.077-.041-.155-.062-.232-3.503-13.095-15.586-22.057-29.141-22.057-11.903 0-202.324 0-214.227 0-13.556 0-25.639 8.961-29.141 22.057-.021.077-.041.155-.062.232l-23.525 85.971c20.496-3.889 41.373-5.865 62.23-5.865h195.224c20.857 0 41.734 1.976 62.23 5.865z" fill="#66e9ff"/><path d="m148.887 50.467c-13.556 0-25.639 8.961-29.142 22.057-.021.078-.042.155-.062.232l-23.525 85.971c20.496-3.889 41.373-5.865 62.23-5.865h2.854c-.413-1.361-1.468-2.516-2.958-3.005-14.557-4.777-10.812-16.346-10.812-16.346s7.667-36.333 12.333-59c2.878-13.979 9.623-19.861 14.37-22.316.79-.409 1.408-1.017 1.832-1.728-14.564 0-24.659 0-27.12 0z" fill="#23c5ed"/><path d="m353.612 152.861c9.056 0 18.113.395 27.144 1.135-3.037-18.485-19.18-32.707-38.49-32.707h-39.311c-18.913 0-34.787 13.643-38.285 31.571 44.379.001 86.356.001 88.942.001z" fill="#23c5ed"/><path d="m435.527 181.329c-1.619-3.303-2.922-6.751-3.893-10.298l-3.1-11.33c-24.575-5.635-49.708-8.48-74.921-8.48-5.507 0-189.718 0-195.225 0-25.213 0-50.346 2.844-74.921 8.48l-3.1 11.33c-.971 3.547-2.274 6.995-3.893 10.298l-5.735 11.699 84.326 121.804 4.717-8.648c5.179-9.494 15.13-15.402 25.945-15.402h140.546c10.815 0 20.767 5.908 25.945 15.402l4.717 8.648 84.326-121.804z" fill="#665364"/><path d="m83.467 159.701-3.1 11.33c-.971 3.547-2.274 6.995-3.893 10.298l-5.735 11.699 84.326 121.803 4.717-8.648c5.179-9.494 15.13-15.402 25.945-15.402h21.335v-44.41c0-1.333-.596-2.599-1.612-3.462-54.97-46.678-49.754-75.862-44.466-86.797.819-1.693.482-3.585-.645-4.891-1.026 0-1.69 0-1.951 0-25.213 0-50.346 2.845-74.921 8.48z" fill="#543e5b"/><path d="m352.219 306.184c-5.179-9.494-15.13-15.402-25.945-15.402h-70.274-70.273c-10.815 0-20.766 5.908-25.945 15.402l-4.717 8.648 8.932 28.781c6.687 21.545 23.979 38.139 45.782 43.932l21.982 5.84c15.885 4.22 32.596 4.22 48.48 0l21.981-5.84c21.803-5.793 39.096-22.387 45.782-43.932l8.932-28.78z" fill="#dae2fe"/><path d="m312.222 360.696-26.737 7.104c-19.322 5.133-39.648 5.133-58.97 0l-26.738-7.104c-14.502-3.853-27.356-11.641-37.365-22.188l1.584 5.104c6.687 21.545 23.979 38.139 45.782 43.932l21.982 5.84c15.885 4.22 32.596 4.22 48.48 0l21.981-5.84c21.803-5.793 39.096-22.387 45.782-43.932l1.584-5.104c-10.008 10.547-22.863 18.335-37.365 22.188z" fill="#bec8f7"/><g><path d="m354.608 456.309c-3.921-2.265-5.264-7.28-2.999-11.201l14.956-25.896c4.17-9.662 13.148-16.625 23.571-18.235l59.933-9.256c4.479-.688 8.663 2.376 9.354 6.852.691 4.475-2.376 8.663-6.852 9.354l-59.933 9.256c-4.964.766-9.227 4.131-11.125 8.782-.391.957.268-.365-15.705 27.345-2.268 3.926-7.283 5.258-11.2 2.999z" fill="#30144a"/></g><path d="m383.442 22.261-10.59-8.833c-10.32-8.608-24.371-13.428-38.997-13.428h-155.71c-14.62 0-28.672 4.817-38.996 13.427l-10.59 8.833c-3.72 3.681-6.857 7.715-9.401 11.991h273.685c-2.544-4.275-5.681-8.309-9.401-11.99z" fill="#665364"/><path d="m178.173 31.784c-5.654-15.301 16.21-25.362 27.96-29.559 1.169-.417 2.021-1.239 2.51-2.225h-30.498c-14.62 0-28.672 4.816-38.996 13.427l-10.59 8.833c-3.72 3.681-6.857 7.715-9.401 11.991h59.232c.148-.811.08-1.665-.217-2.467z" fill="#543e5b"/><path d="m316.532 469.333h-121.064c-7.537 0-13.703-6.166-13.703-13.703v-26.911c0-7.537 6.166-13.703 13.703-13.703h121.064c7.537 0 13.703 6.166 13.703 13.703v26.911c0 7.536-6.166 13.703-13.703 13.703z" fill="#bec8f7"/><path d="m248.227 455.63v-26.911c0-7.537 6.166-13.703 13.703-13.703h-66.461c-7.537 0-13.703 6.166-13.703 13.703v26.911c0 7.537 6.166 13.703 13.703 13.703h66.461c-7.537-.001-13.703-6.167-13.703-13.703z" fill="#a4b3ea"/><path d="m294.306 249.786h-76.613c-7.443 0-13.533 5.718-13.533 12.707v94c0 6.989 6.09 12.707 13.533 12.707h76.613c7.443 0 13.533-5.719 13.533-12.707v-94c.001-6.989-6.089-12.707-13.533-12.707z" fill="#66e9ff"/><path d="m204.16 262.493v94c0 6.989 6.09 12.707 13.534 12.707h37.219v-107.974c-1.506-1.506 0-3.241 0-3.241-3.238-2.715-4.284-5.608-4.305-8.199h-32.915c-7.443 0-13.533 5.718-13.533 12.707z" fill="#23c5ed"/><path d="m129.327 333.379c-5.269-12.932-14.876-23.625-27.172-30.243l-55.226-29.722c-8.111-4.365-18.148-1.978-23.553 5.48-.032.044-.063.088-.095.131-4.657 6.415-7.979 12.966-10.27 19.459 2.495 19.446 7.282 38.172 14.06 55.915l100.549 15.322c7.759 1.183 13.848-6.542 10.887-13.811z" fill="#23c5ed"/><path d="m498.991 298.486c-2.291-6.493-5.613-13.045-10.271-19.459-.032-.044-.064-.088-.095-.131-5.405-7.459-15.442-9.845-23.553-5.48l-55.226 29.722c-12.296 6.617-21.904 17.311-27.172 30.243l-9.18 22.532c-2.961 7.269 3.128 14.993 10.887 13.811l100.549-15.324c6.778-17.742 11.566-36.468 14.061-55.914z" fill="#23c5ed"/><g><path d="m146.191 453.309c-15.989-27.739-15.315-26.392-15.705-27.345-1.898-4.65-6.161-8.015-11.125-8.782l-59.933-9.256c-4.475-.691-7.543-4.879-6.851-9.354.691-4.476 4.882-7.542 9.354-6.852l59.933 9.256c10.423 1.61 19.401 8.572 23.571 18.235l14.956 25.896c2.265 3.921.922 8.935-2.999 11.201-3.907 2.255-8.927.938-11.201-2.999z" fill="#30144a"/></g><g><path d="m316.532 477.532h-121.064c-12.077 0-21.902-9.825-21.902-21.902v-26.911c0-12.077 9.825-21.902 21.902-21.902h121.064c12.077 0 21.902 9.825 21.902 21.902v26.911c0 12.077-9.825 21.902-21.902 21.902zm-121.064-54.317c-2.984 0-5.504 2.52-5.504 5.504v26.911c0 2.984 2.52 5.504 5.504 5.504h121.064c2.984 0 5.504-2.52 5.504-5.504v-26.911c0-2.984-2.52-5.504-5.504-5.504z" fill="#dae2fe"/></g><path d="m248.841 461.134h-53.373c-2.984 0-5.504-2.521-5.504-5.504v-26.911c0-2.984 2.52-5.504 5.504-5.504h53.451l-.176-16.397h-53.275c-12.077 0-21.902 9.824-21.902 21.902v26.911c0 12.077 9.825 21.902 21.902 21.902h51.867c-.095-.944-.438-1.873-1.04-2.678-3.724-4.974-.313-10.078 1.74-12.419.34-.392.599-.836.806-1.302z" fill="#bec8f7"/><path d="m294.306 377.4h-76.613c-11.983 0-21.732-9.378-21.732-20.907v-94.001c0-11.527 9.749-20.906 21.732-20.906h76.613c11.983 0 21.732 9.378 21.732 20.906v94.001c0 11.529-9.748 20.907-21.732 20.907zm-76.613-119.415c-2.891 0-5.335 2.065-5.335 4.508v94.001c0 2.445 2.443 4.509 5.335 4.509h76.613c2.891 0 5.335-2.065 5.335-4.509v-94.001c0-2.444-2.443-4.508-5.335-4.508z" fill="#f1935d"/><path d="m254.913 361.003h-37.22c-2.891 0-5.335-2.064-5.335-4.509v-94.001c0-2.444 2.444-4.508 5.335-4.508h37.22c-8.662-7.262-1.68-15.807-1.179-16.397h-36.041c-11.983 0-21.732 9.378-21.732 20.906v94.001c0 11.528 9.749 20.907 21.732 20.907h37.22z" fill="#e1715a"/><path d="m213.285 346.919c-1.185.367-2.271 1.008-3.149 1.885-1.223 1.221-2.235 2.601-3.074 4.068v11.444c2.484 2.965 6.327 4.885 10.632 4.885h8.348c-1.264-10.723-1.463-18.202-1.487-20.951-.002-.224.228-.375.437-.283l.82.359 5.18-8.261c.043-.074.094-.142.139-.214l-.519-.008c-.001-.001-7.636 4.074-17.327 7.076z" fill="#422953"/><path d="m298.715 346.919c-9.691-3.001-17.326-7.076-17.326-7.076l-.518.008c.048.076.101.147.147.224l5.174 8.251.82-.359v-.001c.142-.062.256-.004.298.025.042.028.139.108.137.259-.025 2.749-.225 10.231-1.488 20.951h8.347c4.306 0 8.149-1.92 10.632-4.885v-11.444c-.839-1.467-1.851-2.847-3.074-4.068-.878-.877-1.964-1.518-3.149-1.885z" fill="#422953"/><path d="m250.297 347.057c1.988 2.073-1.953 4.086.233 6.095 4.337 3.795 5.338 4.648 5.471 4.798.132-.149 1.16-1.027 5.47-4.798.651-.597.847-1.543.488-2.35-.435-1.168-1.013-1.737-.777-2.768.152-.681.572-1.025 1.034-1.517 2.909-3.103 6.014-7.032 7.468-11.011.527-1.442.771-2.594.87-3.482-.773-1.723-1.076-5.002-1.14-6.882-3.795 4.42-8.09 7.298-13.911 7.118-5.381-.164-9.388-3.005-12.92-7.118-.059 1.719-.254 3.804-.757 5.785-.102.401-.243.788-.414 1.16.29 2.748 1.961 7.751 8.885 14.97z" fill="#fd995b"/><path d="m251.029 352.777c-.625-.574-.813-1.482-.469-2.257l.631-1.419c.327-.736.171-1.595-.386-2.176-9.908-10.329-8.893-16.494-8.7-17.248l-2.224 2.158-1.171 1.914c-1.372 5.262-1.24 9.753-1.24 13.951v21.501h19.613v-11.068c0-.553-.232-1.081-.639-1.455z" fill="#bec8f7"/><path d="m238.709 333.749 1.171-1.914 2.225-2.158c-.012.2-.59 1.912.757 5.596 1.552 4.25 4.796 8.362 7.943 11.652.334.348.521.797.549 1.258l-6.88 5.546c-1.34 1.08-3.342.594-4.03-.984-.937-2.15-2.117-5.406-2.961-9.61.096-4.272.734-7.497 1.226-9.386z" fill="#e9efff"/><path d="m225.594 347.847 5.019-8.004c.487-.825 1.123-1.554 1.874-2.149l7.393-5.858s-1.828 4.646-1.828 12.414l-7.425 6.004z" fill="#543e5b"/><path d="m272.122 331.835-2.225-2.158c.193.755 1.208 6.919-8.7 17.248-.558.581-.713 1.44-.386 2.176l.631 1.419c.344.775.156 1.683-.469 2.257l-5.414 3.901c-.407.374-.639.902-.639 1.455v11.068h19.613v-21.501c0-4.198.132-8.69-1.24-13.951z" fill="#dae2fe"/><path d="m273.293 333.749-1.171-1.914-2.225-2.158c.012.2.59 1.912-.757 5.596-1.552 4.25-4.796 8.362-7.943 11.652-.334.348-.521.797-.549 1.258l6.88 5.546c1.34 1.08 3.342.594 4.03-.984.937-2.15 2.117-5.406 2.961-9.61-.096-4.272-.733-7.497-1.226-9.386z" fill="#e9efff"/><path d="m286.408 347.847-5.019-8.004c-.487-.825-1.123-1.554-1.874-2.149l-7.393-5.858s1.828 4.646 1.828 12.414l7.425 6.004z" fill="#543e5b"/><path d="m230.046 349.705-4.879-2.14c-.498-.218-1.055.146-1.05.689.025 2.734.22 10.212 1.484 20.947h12.453v-24.953l-6.922 5.325c-.312.239-.728.289-1.086.132z" fill="#665364"/><path d="m286.836 347.565-4.879 2.14c-.359.157-.775.107-1.085-.132l-6.922-5.325v24.953h12.451c1.263-10.732 1.46-18.214 1.485-20.947.005-.543-.553-.907-1.05-.689z" fill="#665364"/><g><path d="m251.513 261.495c-13.473 1.836-14.754 9.475-14.76 12.277-.001.588-.327 1.132-.855 1.39-7.008 3.409-3.23 19.841-3.23 19.841.704.047 1.44.332 1.99.598.134-.837.354-1.662.664-2.458.236-.607.532-1.221.901-1.8.641-1.005.933-2.192.846-3.378-.252-3.428-.131-10.182 4.394-12.218 3.833-1.725 8.535-.726 11.534.271 1.947.648 4.057.648 6.004 0 2.999-.997 7.701-1.996 11.534-.271 4.512 2.03 4.645 8.752 4.396 12.189-.087 1.195.198 2.393.843 3.407.381.598.684 1.233.924 1.859.298.779.511 1.583.642 2.4.692-.335 1.682-.701 2.529-.581.104-3.593.435-7.466.435-7.466 3.995-19.557-14.284-28.037-28.791-26.06z" fill="#665364"/></g><path d="m252.798 275.953c-.04-.071-.077-.143-.12-.214-5.628-9.49 2.235-14.514 2.235-14.514-1.148.028-2.285.118-3.4.27-13.473 1.836-14.754 9.475-14.76 12.277-.001.588-.327 1.132-.855 1.39-7.008 3.409-3.23 19.841-3.23 19.841.704.047 1.44.332 1.99.598.134-.837.354-1.662.664-2.458.237-.607.532-1.221.901-1.8.641-1.005.933-2.192.846-3.378-.252-3.428-.131-10.182 4.394-12.218 3.752-1.688 8.33-.768 11.335.206z" fill="#543e5b"/><path d="m281.48 295.427c-1.049-.962-3.14-.474-4.043.115.198 1.233.209 2.494.038 3.74l-1.067 7.768c0 .626-.02 1.24-.056 1.844 2.601.785 3.893-1.55 4.11-3.152.094-.69.247-1.37.459-2.033.693-2.162 3.188-5.873.559-8.282z" fill="#fcad6d"/><path d="m230.71 295.427c1.049-.962 3.14-.474 4.043.115-.198 1.233-.209 2.494-.038 3.74l1.066 7.768c0 .626.02 1.24.056 1.844-2.601.785-3.892-1.55-4.11-3.152-.094-.69-.247-1.37-.459-2.033-.692-2.162-3.187-5.873-.558-8.282z" fill="#fcad6d"/><path d="m276.856 293.141c-.265-.692-.581-1.327-.939-1.889-.612-.96-.902-2.134-.818-3.305.271-3.737.047-10.31-4.494-12.354-3.814-1.716-8.443-.803-11.655.265-1.902.633-3.997.633-5.9 0-3.212-1.068-7.841-1.982-11.655-.265-1.953.879-5.133 3.656-4.492 12.384.085 1.15-.207 2.313-.82 3.275-.348.545-.656 1.161-.916 1.829-.762 1.957-1.008 4.129-.713 6.28l1.065 7.746c0 12.829 7.762 20.241 11.099 22.833 2.663 2.069 5.995 3.208 9.382 3.208 3.386 0 6.718-1.139 9.382-3.208 3.337-2.591 11.099-10.004 11.097-22.81l1.067-7.768c.292-2.129.054-4.281-.69-6.221z" fill="#f9ba8f"/><g><path d="m258.203 329.941c-3.337-2.591-11.099-10.003-11.099-22.833l-1.065-7.747c-.296-2.152-.049-4.324.713-6.28.26-.668.568-1.284.916-1.829.613-.962.904-2.125.82-3.275-.609-8.3 2.235-11.214 4.195-12.236-3.191-1.014-7.615-1.8-11.288-.147-1.953.879-5.133 3.656-4.492 12.383.084 1.15-.207 2.313-.82 3.275-.348.545-.656 1.161-.916 1.829-.761 1.957-1.008 4.128-.713 6.28l1.065 7.747c0 12.829 7.762 20.241 11.099 22.833 2.664 2.069 5.996 3.208 9.382 3.208 1.993 0 3.962-.404 5.793-1.15-1.28-.523-2.494-1.207-3.59-2.058z" fill="#fcad6d"/></g><path d="m304.095 345.246c12.174 1.539 22.688-1.399 27.977-3.339 1.319-.484 2.592.82 2.081 2.129-4.759 12.184-5.418 24.972-5.418 24.972-2.535 30.119-30.611 29.936-43.266 28.29-3.77-.49-6.787-3.401-7.366-7.158-3.993-25.905 9.713-46.951 25.992-44.894z" fill="#81c66d"/><path d="m299.641 345.258c-14.216 1.882-25.16 21.382-21.538 44.883.579 3.758 3.596 6.668 7.366 7.159 7.186.934 19.339 1.39 28.969-3.897v-25.155c-19.323-3.363-14.804-22.963-14.797-22.99z" fill="#5aab5f"/><path d="m206.701 345.246c-12.174 1.539-22.688-1.399-27.977-3.339-1.319-.484-2.592.82-2.081 2.129 4.759 12.184 5.418 24.972 5.418 24.972 2.535 30.119 30.611 29.936 43.266 28.29 3.77-.49 6.787-3.401 7.367-7.158 3.991-25.905-9.715-46.951-25.993-44.894z" fill="#81c66d"/><path d="m212.38 345.473c2.442 20.251-14.818 22.774-14.818 22.774l-5.526 22.226c10.01 8.356 24.978 7.907 33.291 6.826 3.77-.49 6.787-3.401 7.366-7.159 3.517-22.819-6.702-41.859-20.313-44.667z" fill="#5aab5f"/><circle cx="256" cy="384.624" fill="#ffdd40" r="13.099"/><path d="m256 340.863c-11.384 0-18.778 11.993-13.664 22.164l6.065 12.062c2.087-1.667 4.727-2.671 7.599-2.671 2.873 0 5.512 1.004 7.599 2.671l6.065-12.062c5.114-10.171-2.28-22.164-13.664-22.164z" fill="#fcf4d9"/><path d="m269.664 406.221-6.065-12.062c-2.087 1.667-4.726 2.671-7.599 2.671-2.872 0-5.512-1.004-7.599-2.671l-6.065 12.062c-5.114 10.171 2.28 22.164 13.664 22.164s18.778-11.993 13.664-22.164z" fill="#fceca9"/><path d="m243.795 384.624c0-5.155 3.218-9.564 7.747-11.35l-7.413-11.282c-6.251-9.514-20.334-9.108-26.027.751-5.692 9.859.998 22.259 12.363 22.916l13.48.779c-.089-.594-.15-1.196-.15-1.814z" fill="#fceca9"/><path d="m281.535 383.589-13.48-.779c.089.593.15 1.196.15 1.814 0 5.155-3.218 9.564-7.746 11.35l7.413 11.282c6.251 9.514 20.334 9.108 26.026-.751 5.692-9.86-.997-22.259-12.363-22.916z" fill="#fcf4d9"/><path d="m243.795 384.624c0-.618.061-1.22.15-1.814l-13.48.779c-11.365.657-18.055 13.056-12.363 22.916 5.692 9.859 19.776 10.265 26.027.751l7.413-11.282c-4.53-1.786-7.747-6.195-7.747-11.35z" fill="#f4d99d"/><path d="m293.898 362.743c-5.692-9.859-19.775-10.265-26.026-.751l-7.413 11.282c4.529 1.786 7.746 6.195 7.746 11.35 0 .618-.061 1.22-.15 1.814l13.48-.779c11.366-.657 18.055-13.056 12.363-22.916z" fill="#fcf4d9"/><path d="m187.026 399.596c3.617 6.265 1.471 14.276-4.794 17.893s-14.276 1.471-17.893-4.794-1.471-14.276 4.794-17.893c6.265-3.618 14.275-1.471 17.893 4.794z" fill="#ffdd40"/><path d="m153.801 368.247c-9.859 5.692-10.265 19.775-.751 26.027l11.283 7.414c.975-2.487 2.758-4.676 5.246-6.112s5.275-1.887 7.916-1.487l-.779-13.479c-.656-11.366-13.056-18.055-22.915-12.363z" fill="#fceca9"/><path d="m198.314 418.017-11.284-7.414c-.974 2.487-2.758 4.676-5.246 6.112s-5.275 1.887-7.916 1.487l.779 13.479c.657 11.365 13.056 18.055 22.915 12.363 9.86-5.693 10.266-19.776.752-26.027z" fill="#fcf4d9"/><path d="m165.112 412.248c-2.578-4.465-1.995-9.892 1.034-13.703l-12.061-6.064c-10.17-5.114-22.164 2.28-22.164 13.664s11.993 18.777 22.164 13.664l12.063-6.066c-.373-.469-.727-.96-1.036-1.495z" fill="#f4d99d"/><path d="m197.279 392.481-12.063 6.066c.374.469.728.961 1.037 1.496 2.578 4.465 1.996 9.892-1.034 13.703l12.06 6.064c10.171 5.114 22.164-2.28 22.164-13.664 0-11.385-11.993-18.779-22.164-13.665z" fill="#fcf4d9"/><path d="m165.112 412.248c-.309-.535-.557-1.087-.777-1.646l-11.285 7.414c-9.514 6.251-9.108 20.335.751 26.027s22.259-.998 22.915-12.363l.779-13.477c-4.815.719-9.806-1.49-12.383-5.955z" fill="#fceca9"/><path d="m197.563 368.247c-9.859-5.692-22.259.998-22.915 12.362l-.779 13.477c4.815-.717 9.806 1.492 12.384 5.956.309.535.557 1.087.777 1.646l11.285-7.414c9.513-6.252 9.106-20.335-.752-26.027z" fill="#fcf4d9"/><path d="m324.974 399.596c3.617-6.265 11.628-8.411 17.893-4.794s8.411 11.628 4.795 17.893c-3.617 6.265-11.628 8.411-17.893 4.794s-8.412-11.628-4.795-17.893z" fill="#ffdd40"/><path d="m314.438 444.043c9.859 5.692 22.259-.997 22.916-12.363l.779-13.479c-2.641.4-5.428-.051-7.916-1.487s-4.271-3.625-5.246-6.112l-11.284 7.414c-9.515 6.252-9.109 20.335.751 26.027z" fill="#fceca9"/><path d="m335.283 380.609-.779 13.479c2.641-.4 5.428.05 7.916 1.487 2.488 1.436 4.271 3.625 5.246 6.112l11.284-7.414c9.514-6.251 9.108-20.335-.751-26.027-9.859-5.691-22.259.998-22.916 12.363z" fill="#fcf4d9"/><path d="m346.888 412.248c-2.578 4.465-7.569 6.674-12.384 5.956l.779 13.477c.657 11.365 13.056 18.055 22.916 12.362 9.859-5.692 10.265-19.775.751-26.027l-11.285-7.414c-.219.559-.468 1.111-.777 1.646z" fill="#fcf4d9"/><path d="m313.686 394.274 11.285 7.414c.22-.558.468-1.111.777-1.646 2.578-4.465 7.569-6.674 12.384-5.956l-.779-13.476c-.657-11.365-13.056-18.055-22.915-12.363s-10.266 19.775-.752 26.027z" fill="#fceca9"/><path d="m346.888 412.248c-.309.535-.663 1.026-1.037 1.495l12.063 6.066c10.171 5.114 22.164-2.28 22.164-13.664s-11.994-18.778-22.164-13.664l-12.061 6.064c3.031 3.811 3.613 9.238 1.035 13.703z" fill="#fcf4d9"/><path d="m292.557 406.145c0 11.384 11.994 18.778 22.164 13.664l12.061-6.064c-3.029-3.811-3.611-9.238-1.033-13.703.309-.535.663-1.026 1.036-1.496l-12.063-6.066c-10.172-5.113-22.165 2.281-22.165 13.665z" fill="#f4d99d"/><g fill="#66e9ff"><circle cx="466.354" cy="315.173" r="24.143"/><ellipse cx="424.863" cy="336.445" rx="12.496" ry="12.496" transform="matrix(.707 -.707 .707 .707 -113.463 398.966)"/><circle cx="45.615" cy="315.173" r="24.143"/><path d="m74.609 336.445c0 6.901 5.595 12.496 12.496 12.496s12.496-5.595 12.496-12.496-5.595-12.496-12.496-12.496c-6.901-.001-12.496 5.594-12.496 12.496z"/></g></g></svg>