<svg id="Layer_1" enable-background="new 0 0 512 512" height="512" viewBox="0 0 512 512" width="512" xmlns="http://www.w3.org/2000/svg"><g><path d="m91.392 448.463 329.213.003c49.382-44.821 80.394-109.521 80.394-181.464 0-135.309-109.689-244.998-244.998-244.998s-244.999 109.69-244.999 244.998c0 71.942 31.009 136.64 80.39 181.461z" fill="#23c5ed"/><path d="m90.312 447.463c28.313 26.009 62.763 45.434 100.931 55.869v-239.209l-100.931 100.931z" fill="#ffc839"/><path d="m141.995 328.131s27.67 19.823 7.67 57.546v102.083c13.241 6.388 27.142 11.626 41.578 15.572v-239.209l-52.158 52.158c2.058 2.455 3.459 6.181 2.91 11.85z" fill="#ffb332"/><path d="m320.754 503.333c38.167-10.434 72.617-29.858 100.931-55.867v-82.412l-100.931-100.93z" fill="#ffdd40"/><path d="m320.754 264.123v239.21c14.193-3.88 27.87-9.008 40.91-15.25v-101.906c-27-32 4.192-62.192 4.192-62.192 0-5.434 1.628-8.826 3.818-10.941z" fill="#ffc839"/><g><path d="m430.015 388.143-121.553-121.552c-4.075-4.076-4.075-10.684 0-14.76 4.076-4.075 10.684-4.075 14.76 0l121.553 121.553c4.075 4.076 4.076 10.684 0 14.76-4.077 4.075-10.684 4.074-14.76-.001z" fill="#e1715a"/></g><path d="m323.221 251.831c-4.075-4.075-10.684-4.075-14.76 0-4.075 4.076-4.075 10.684 0 14.76l57.395 57.395c0-16.692 15.323-14.196 15.323-14.196z" fill="#c15655"/><g><path d="m67.225 388.14c-4.076-4.076-4.076-10.684 0-14.76l121.549-121.55c4.076-4.075 10.684-4.075 14.76 0 4.076 4.076 4.076 10.684 0 14.76l-121.549 121.55c-4.076 4.076-10.684 4.075-14.76 0z" fill="#e1715a"/></g><path d="m141.995 328.131 61.541-61.54c2.504-2.504 3.463-5.963 2.89-9.205l-2.89-5.554v-.001h-14.76l-59.729 59.729c.003-.001 14.528.276 12.948 16.571z" fill="#c15655"/><path d="m387.913 398.321c-13.931-13.93-37.636-3.874-37.636 15.589v54.897h44.093c0-3.232 0-51.773 0-54.897 0-5.847-2.323-11.454-6.457-15.589z" fill="#e1715a"/><g><path d="m255.998 78.161c-4.323 0-7.827-3.504-7.827-7.827v-62.507c0-4.323 3.504-7.827 7.827-7.827s7.827 3.504 7.827 7.827v62.506c.001 4.324-3.504 7.828-7.827 7.828z" fill="#ffdd40"/></g><g><path d="m274.924 37.459h-37.851c-4.323 0-7.827-3.504-7.827-7.827s3.505-7.827 7.827-7.827h37.851c4.323 0 7.827 3.504 7.827 7.827s-3.504 7.827-7.827 7.827z" fill="#ffdd40"/></g><g><path d="m255.998 106.017c-5.764 0-10.437-4.673-10.437-10.436v-27.005c0-5.764 4.673-10.437 10.437-10.437s10.437 4.673 10.437 10.437v27.005c0 5.763-4.673 10.436-10.437 10.436z" fill="#ffc839"/></g><path d="m255.998 77.509c-5.51 0-10.012-4.274-10.398-9.685-.018.249-.038.498-.038.752v27.005c0 5.763 4.672 10.437 10.436 10.437s10.436-4.673 10.436-10.437v-27.005c0-.254-.02-.503-.038-.752-.386 5.412-4.888 9.685-10.398 9.685z" fill="#ffb332"/><path d="m180.542 235.608 70.292-70.293h-77.028c-3.108 0-5.627 2.52-5.627 5.627v64.665h12.363z" fill="#422953"/><path d="m338.19 165.316h-77.028l70.293 70.293h12.363v-64.665c-.001-3.109-2.52-5.628-5.628-5.628z" fill="#665364"/><path d="m270.088 100.675c-2.238-5.835-7.84-9.687-14.09-9.687-6.249 0-11.852 3.852-14.09 9.687l-45.754 119.32 59.844-59.844 59.844 59.844z" fill="#543e5b"/><path d="m261.162 147.524c-5.273-25.396 17.336-24.917 17.336-24.917l-8.41-21.932c-2.238-5.835-7.84-9.687-14.09-9.687-6.249 0-11.852 3.852-14.089 9.687l-41.815 109.047c1.565.46 3.248.922 4.986 1.348l50.919-50.919 4.264 4.264c1.533-5.519 2.069-11.257.899-16.891z" fill="#422953"/><path d="m188.714 227.437v275.205c21.379 6.093 43.951 9.358 67.286 9.358 23.333 0 45.904-3.264 67.283-9.357v-275.206l-67.285-67.285z" fill="#ffdd40"/><path d="m248.171 388.339c-24.16-28.171 0-53.106 0-53.106v-84.409c-35.494-12.02-20.472-47.612-20.472-47.612l-8.689-6.07-30.296 30.296v275.205c18.98 5.409 38.899 8.583 59.458 9.229v-123.533z" fill="#ffc839"/><circle cx="255.998" cy="293.027" fill="#ffdd40" r="35.103"/><g><path d="m346.231 246.045h-14.777c-5.764 0-10.436-4.673-10.436-10.437 0-5.763 4.672-10.436 10.436-10.436h14.777c5.764 0 10.436 4.673 10.436 10.436 0 5.764-4.672 10.437-10.436 10.437z" fill="#e1715a"/></g><g><path d="m180.542 246.045h-14.776c-5.764 0-10.437-4.673-10.437-10.437 0-5.763 4.672-10.436 10.437-10.436h14.776c5.764 0 10.436 4.673 10.436 10.436.001 5.764-4.672 10.437-10.436 10.437z" fill="#c15655"/></g><path d="m331.454 246.045c-2.671 0-5.342-1.019-7.38-3.057l-68.076-68.076-68.076 68.076c-4.076 4.076-10.683 4.076-14.76 0-4.076-4.076-4.076-10.684 0-14.76l75.456-75.456c4.076-4.075 10.684-4.075 14.759 0l75.456 75.456c4.075 4.076 4.075 10.684 0 14.76-2.037 2.037-4.708 3.057-7.379 3.057z" fill="#e1715a"/><path d="m263.378 152.773c-4.076-4.075-10.684-4.075-14.76 0l-75.456 75.456c-4.076 4.076-4.076 10.684 0 14.76s10.684 4.076 14.76 0l68.076-68.076 20.466 20.465c-3.201-17.799 14.637-14.882 14.637-14.882z" fill="#c15655"/><g><path d="m255.998 183.356c-5.764 0-10.437-4.673-10.437-10.436v-16.333c0-5.764 4.673-10.437 10.437-10.437s10.437 4.673 10.437 10.437v16.333c0 5.763-4.673 10.436-10.437 10.436z" fill="#f1935d"/></g><path d="m255.998 166.523c-5.679 0-10.29-4.54-10.424-10.187-.002.084-.012.166-.012.25v16.333c0 5.764 4.672 10.437 10.436 10.437s10.436-4.673 10.436-10.437v-16.333c0-.084-.01-.166-.012-.25-.134 5.647-4.744 10.187-10.424 10.187z" fill="#e1715a"/><path d="m295.185 436.968v-2.301c0-10.393-4.129-20.36-11.478-27.709-15.304-15.303-40.115-15.303-55.419 0-7.349 7.349-11.478 17.316-11.478 27.709v2.301z" fill="#ffdd40"/><path d="m216.811 508.866c12.762 2.052 25.848 3.134 39.189 3.134 13.339 0 26.424-1.082 39.185-3.134v-73.986h-78.374z" fill="#e1715a"/><path d="m216.811 508.866c12.762 2.052 25.847 3.134 39.187 3.134v-77.12h-39.187z" fill="#c15655"/><path d="m289.243 401.422c-18.331-18.329-48.159-18.33-66.489.001-8.88 8.88-13.77 20.686-13.77 33.244v72.807c5.164 1.004 10.38 1.861 15.655 2.535v-75.342c0-8.377 3.262-16.252 9.185-22.174 12.227-12.228 32.123-12.227 44.35-.001 5.923 5.924 9.185 13.799 9.185 22.176v75.343c5.274-.674 10.491-1.531 15.655-2.535v-72.808c0-12.558-4.89-24.365-13.769-33.244z" fill="#f1935d"/><g><path d="m295.185 444.795h-78.374c-4.323 0-7.827-3.504-7.827-7.827s3.505-7.827 7.827-7.827h78.374c4.323 0 7.827 3.504 7.827 7.827s-3.504 7.827-7.827 7.827z" fill="#f1935d"/></g><path d="m351.199 392.786c-5.642 5.642-8.749 13.145-8.749 21.124v54.897c0 4.323 3.504 7.827 7.827 7.827h32.589c6.659-4.038 13.108-8.388 19.332-13.023v-49.701c0-7.979-3.108-15.482-8.75-21.125-11.648-11.645-30.6-11.646-42.249.001zm35.344 68.193h-28.439v-47.069c0-3.799 1.479-7.369 4.164-10.054 5.543-5.543 14.565-5.545 20.109 0 2.686 2.686 4.165 6.256 4.165 10.054v47.069z" fill="#f1935d"/><g><path d="m392.677 439.055h-40.227c-4.323 0-7.827-3.504-7.827-7.827s3.505-7.827 7.827-7.827h40.227c4.323 0 7.827 3.504 7.827 7.827s-3.504 7.827-7.827 7.827z" fill="#f1935d"/></g><path d="m155.266 398.321c-13.931-13.93-37.636-3.874-37.636 15.589v54.897h44.093c0-3.232 0-51.773 0-54.897 0-5.847-2.323-11.454-6.457-15.589z" fill="#e1715a"/><path d="m118.552 392.786c-5.642 5.642-8.749 13.145-8.749 21.124v49.701c6.224 4.635 12.673 8.985 19.332 13.023h32.589c4.323 0 7.827-3.504 7.827-7.827v-54.897c0-7.979-3.108-15.482-8.75-21.125-11.648-11.645-30.6-11.646-42.249.001zm35.344 68.193h-28.438v-47.069c0-3.799 1.479-7.369 4.164-10.054 5.544-5.543 14.565-5.545 20.109 0 2.686 2.686 4.165 6.256 4.165 10.054z" fill="#f1935d"/><g><path d="m160.03 439.055h-40.227c-4.323 0-7.827-3.504-7.827-7.827s3.504-7.827 7.827-7.827h40.227c4.323 0 7.827 3.504 7.827 7.827s-3.504 7.827-7.827 7.827z" fill="#f1935d"/></g><g><path d="m255.998 335.958c-4.323 0-7.827-3.504-7.827-7.827v-70.206c0-4.323 3.504-7.827 7.827-7.827s7.827 3.504 7.827 7.827v70.206c.001 4.323-3.504 7.827-7.827 7.827z" fill="#e1715a"/></g><g><path d="m291.102 300.855h-70.207c-4.323 0-7.827-3.504-7.827-7.827s3.505-7.827 7.827-7.827h70.207c4.323 0 7.827 3.504 7.827 7.827s-3.504 7.827-7.827 7.827z" fill="#e1715a"/></g><g><path d="m255.998 335.958c-23.672 0-42.931-19.259-42.931-42.93 0-23.672 19.259-42.93 42.931-42.93s42.931 19.259 42.931 42.93-19.259 42.93-42.931 42.93zm0-70.206c-15.04 0-27.276 12.235-27.276 27.276 0 15.04 12.236 27.275 27.276 27.275s27.276-12.235 27.276-27.275c0-15.041-12.236-27.276-27.276-27.276z" fill="#f1935d"/></g><g fill="#66e9ff"><path d="m338.701 36.329c-11.877 16.267-24.288 43.921 2.72 68.325 41.379 37.388 39.689 64.086 42.289 115.412s66.256 98.277 66.256 98.277 20.249 16.926 43.996 7.18c4.597-18.752 7.036-38.352 7.036-58.521 0-106.284-67.685-196.748-162.297-230.673z"/><path d="m173.299 36.329c11.877 16.267 24.288 43.921-2.72 68.325-41.378 37.388-39.688 64.086-42.288 115.412s-66.256 98.277-66.256 98.277-20.249 16.926-43.996 7.18c-4.597-18.752-7.036-38.352-7.036-58.521-.001-106.284 67.684-196.748 162.296-230.673z"/></g></g></svg>