<svg id="Layer_1" enable-background="new 0 0 512 512" height="512" viewBox="0 0 512 512" width="512" xmlns="http://www.w3.org/2000/svg"><g><path d="m102.184 448.273 329.757-.113c49.188-44.809 80.059-109.377 80.059-181.158 0-135.308-109.69-244.998-244.998-244.998s-244.998 109.69-244.998 244.998c0 71.84 30.922 136.457 80.18 181.271z" fill="#81c66d"/><g><path d="m104.041 49.09c0-22.082-14.163-40.846-33.897-47.732-8.736-.886-15.571-1.358-19.589-1.358-27.921 0-50.555 22.634-50.555 50.555 0 11.545 3.878 22.179 10.393 30.688 2.049 2.676 5.256 4.216 8.626 4.216h85.022z" fill="#f4d99d"/></g><path d="m70.144 1.358c-8.737-.886-15.571-1.358-19.589-1.358-6.2 0-12.137 1.121-17.626 3.164 17.375 7.998 29.446 25.544 29.446 45.926v36.368h41.667v-36.368c-.001-22.082-14.163-40.846-33.898-47.732z" fill="#e5c88f"/><path d="m382.461 0h-281.351-50.555c27.921 0 50.556 22.634 50.556 50.555v396.718c43.639 40.18 101.895 64.727 165.891 64.727 64.056 0 122.361-24.594 166.014-64.84v-396.605c0-27.92-22.634-50.555-50.555-50.555z" fill="#fcf4d9"/><path d="m190.07 499.656c-18.681-25.832-29.58-57.56-29.58-91.444v-358.657c0-24.484-17.406-44.899-40.518-49.555h-18.862-50.555c27.922 0 50.556 22.634 50.556 50.555v396.718c25.311 23.305 55.545 41.335 88.959 52.383z" fill="#f9e9bd"/><path d="m206.137 240.275h122.336c5.07 0 9.18-4.11 9.18-9.18s-4.11-9.18-9.18-9.18h-122.336c-5.07 0-9.18 4.11-9.18 9.18s4.11 9.18 9.18 9.18z" fill="#e5c88f"/><g fill="#f4d99d"><path d="m144.969 277.347h244.671c5.07 0 9.179-4.11 9.179-9.18s-4.11-9.18-9.179-9.18h-244.671c-5.07 0-9.18 4.11-9.18 9.18.001 5.07 4.111 9.18 9.18 9.18z"/><path d="m389.64 296.061h-244.671c-5.07 0-9.18 4.11-9.18 9.18s4.11 9.18 9.18 9.18h244.671c5.07 0 9.179-4.11 9.179-9.18s-4.109-9.18-9.179-9.18z"/><path d="m389.64 333.134h-244.671c-5.07 0-9.18 4.11-9.18 9.18s4.11 9.18 9.18 9.18h244.671c5.07 0 9.179-4.11 9.179-9.18s-4.109-9.18-9.179-9.18z"/><path d="m389.64 370.207h-244.671c-5.07 0-9.18 4.11-9.18 9.18s4.11 9.18 9.18 9.18h244.671c5.07 0 9.179-4.11 9.179-9.18s-4.109-9.18-9.179-9.18z"/></g><path d="m189.348 418.853h-44.379c-5.07 0-9.18 4.11-9.18 9.18s4.11 9.18 9.18 9.18h44.379c5.07 0 9.18-4.11 9.18-9.18s-4.11-9.18-9.18-9.18z" fill="#e5c88f"/><path d="m384.358 445.594c-.178 0-.252-.018-.252-.018-.627-.265-2.123-2.32-3.017-3.548-3.027-4.159-8.095-11.121-18.112-11.121s-15.085 6.962-18.112 11.121c-.894 1.228-2.39 3.283-3.012 3.546 0 0-.074.02-.257.02-.177 0-.251-.018-.251-.018-.628-.265-2.124-2.32-3.017-3.548-3.027-4.159-8.094-11.121-18.111-11.121s-15.084 6.962-18.111 11.122c-.893 1.228-2.388 3.282-3.01 3.545 0 0-.074.02-.256.02-.174 0-.248-.018-.248-.018-.629-.268-2.122-2.321-3.014-3.547-3.027-4.16-8.092-11.122-18.108-11.122-5.07 0-9.18 4.11-9.18 9.18s4.11 9.18 9.18 9.18c.174 0 .248.018.25.018.627.268 2.12 2.32 3.012 3.546 3.027 4.16 8.092 11.123 18.109 11.123s15.083-6.962 18.111-11.121c.893-1.228 2.389-3.282 3.01-3.546.001-.001.074-.02.257-.02.176 0 .251.018.252.018.627.266 2.122 2.32 3.015 3.547 3.028 4.16 8.094 11.122 18.112 11.122 10.017 0 15.085-6.962 18.112-11.121.894-1.228 2.39-3.283 3.012-3.546 0 0 .074-.02.258-.02.178 0 .252.018.252.018.627.265 2.123 2.32 3.017 3.548 3.027 4.159 8.095 11.121 18.112 11.121 5.07 0 9.18-4.11 9.18-9.179-.004-5.071-4.114-9.181-9.183-9.181z" fill="#e5c88f"/><path d="m230.684 125.329h24.381v61.401c0 6.76 5.48 12.239 12.24 12.239s12.239-5.48 12.239-12.239v-61.401h24.381c6.76 0 12.239-5.48 12.239-12.239 0-6.76-5.48-12.239-12.239-12.239h-24.381v-28.763c0-6.76-5.48-12.239-12.239-12.239-6.76 0-12.24 5.48-12.24 12.239v28.762h-24.381c-6.76 0-12.239 5.48-12.239 12.239-.001 6.761 5.479 12.24 12.239 12.24z" fill="#665364"/><path d="m279.544 100.85v-28.762c0-6.76-5.48-12.239-12.24-12.239s-12.239 5.48-12.239 12.239v28.762h-24.381c-6.76 0-12.24 5.48-12.24 12.239 0 6.76 5.48 12.239 12.24 12.239h24.381v61.401c0 6.76 5.479 12.239 12.239 12.239s12.24-5.48 12.24-12.239v-61.401c-16.092-12.491 0-24.478 0-24.478z" fill="#543e5b"/></g></svg>