<svg id="Layer_1" enable-background="new 0 0 512 512" height="512" viewBox="0 0 512 512" width="512" xmlns="http://www.w3.org/2000/svg"><g><path d="m436.635 432.504c39.965-43.596 64.363-101.697 64.363-165.502 0-135.309-109.689-244.998-244.998-244.998s-244.998 109.689-244.998 244.998c0 63.805 24.398 121.905 64.364 165.502z" fill="#e1715a"/><path d="m84.176 426.967c0-10.475 8.523-19.016 18.999-19.037.453-.001.883-.2 1.177-.544.294-.345.422-.801.351-1.248-1.477-9.37 3.855-16.115 9.338-19.305 6.898-4.014 15.04-3.43 21.247 1.527.499.398 1.19.449 1.743.13.552-.319.853-.944.758-1.575-.822-5.431.798-10.976 4.442-15.213 3.638-4.23 8.737-6.559 14.357-6.559s10.719 2.329 14.356 6.558c3.644 4.237 5.263 9.782 4.443 15.215-.095.63.206 1.255.758 1.574s1.244.27 1.743-.131c7.302-5.826 17.944-5.403 24.757.984.379.354.91.496 1.408.38.504-.116.916-.474 1.101-.957 1.923-5.019 5.839-9.001 10.744-10.926.594-.233.984-.806.984-1.444s-.391-1.211-.984-1.444c-5.115-2.005-9.107-6.18-10.954-11.455-1.843-5.264-1.311-10.844 1.499-15.711 2.811-4.868 7.378-8.119 12.859-9.155 5.485-1.042 11.101.333 15.395 3.759.499.401 1.191.449 1.743.131.552-.319.853-.944.758-1.574-.821-5.433.799-10.978 4.442-15.215 3.638-4.228 8.737-6.558 14.357-6.558 5.621 0 10.72 2.329 14.357 6.559 3.644 4.236 5.263 9.782 4.442 15.213-.095.631.206 1.256.758 1.575.552.318 1.244.268 1.743-.13 4.295-3.428 9.904-4.797 15.397-3.76 5.482 1.036 10.047 4.287 12.858 9.155 2.81 4.867 3.342 10.447 1.499 15.712-1.847 5.274-5.839 9.448-10.953 11.454-.594.233-.984.806-.984 1.444 0 .637.391 1.211.984 1.444 4.611 1.81 8.284 5.347 10.342 9.957.196.438.584.761 1.05.875.466.116.96.005 1.335-.296 6.852-5.474 16.796-5.484 23.642-.018.498.398 1.189.449 1.743.13.552-.319.853-.944.758-1.574-.821-5.433.799-10.978 4.443-15.215 3.638-4.228 8.737-6.558 14.357-6.558s10.719 2.329 14.357 6.558c3.644 4.237 5.263 9.782 4.443 15.215-.095.63.206 1.255.758 1.574.553.319 1.245.268 1.743-.13 7.432-5.933 15.855-4.671 21.26-1.512 6.908 4.037 10.563 11.637 9.313 19.365-.077.469.068.948.391 1.298.322.35.783.529 1.263.495.493-.039.986-.077 1.488-.077 10.498 0 19.04 8.541 19.04 19.089-.004 1.105.292 2.151.837 3.06v-340.644c0-22.557-18.456-41.013-41.013-41.013h-36.165c-16.554 0-32.352-7.654-42.046-21.073-11.967-16.565-31.439-27.346-53.437-27.346s-41.471 10.781-53.438 27.346c-9.694 13.419-25.492 21.073-42.046 21.073h-36.165c-22.557 0-41.013 18.456-41.013 41.013v340.644c.545-.912.841-1.97.838-3.109z" fill="#665364"/><path d="m251.78 305.649c-10.558-8.685-4.417-18.84-1.692-22.396.711-.927 1.072-2.07 1.036-3.238l-3.314-109.181c-.059-1.949-1.216-3.719-3.006-4.494-22.319-9.679-17.14-33.479-14.748-41.256.496-1.614.176-3.364-.873-4.687l-15.527-19.579c-.583-.735-1.359-1.302-2.243-1.617-13.111-4.663-13.058-14.769-11.773-20.569.491-2.214-.466-4.536-2.469-5.6-3.849-2.045-4.427-5.628-4.165-8.443.213-2.294-1.228-4.382-3.361-5.253-6.71-2.739-6.776-8.67-5.876-12.744.257-1.165.091-2.329-.387-3.338-7.045 3.364-14.862 5.168-22.865 5.168h-36.164c-22.557 0-41.013 18.456-41.013 41.013v340.644c.545-.913.841-1.97.838-3.109 0-10.475 8.522-19.016 18.999-19.037.453-.001.883-.2 1.177-.544.294-.345.422-.801.351-1.248-1.477-9.37 3.855-16.115 9.338-19.305 6.898-4.014 15.04-3.43 21.248 1.527.499.398 1.19.449 1.743.13.552-.319.854-.944.758-1.575-.822-5.431.798-10.976 4.442-15.213 3.638-4.23 8.736-6.559 14.357-6.559 5.62 0 10.719 2.329 14.356 6.558 3.644 4.236 5.263 9.782 4.443 15.215-.095.63.206 1.255.758 1.574s1.244.27 1.743-.131c7.302-5.826 17.944-5.403 24.757.984.379.354.91.496 1.408.381.504-.116.916-.474 1.101-.957 1.923-5.019 5.839-9.001 10.744-10.926.594-.233.984-.806.984-1.444s-.391-1.211-.984-1.444c-5.115-2.005-9.107-6.18-10.954-11.455-1.842-5.264-1.31-10.844 1.5-15.711 2.811-4.868 7.378-8.119 12.859-9.155 5.485-1.042 11.101.333 15.395 3.759.499.401 1.19.449 1.743.131.552-.319.853-.944.758-1.574-.821-5.433.799-10.978 4.443-15.215 3.118-3.624 7.313-5.84 11.986-6.403v-9.645c-.002-1.553-.654-3.054-1.851-4.039z" fill="#543e5b"/><g><path d="m114.042 386.833c6.898-4.014 15.04-3.43 21.247 1.527.499.398 1.19.449 1.743.13.552-.319.853-.944.758-1.575-.822-5.431.798-10.976 4.442-15.213 3.638-4.23 8.737-6.559 14.357-6.559s10.719 2.329 14.356 6.558c3.644 4.237 5.263 9.782 4.443 15.215-.095.63.206 1.255.758 1.574s1.244.27 1.743-.131c7.302-5.826 17.944-5.403 24.757.984.379.354.91.496 1.408.38.504-.116.916-.474 1.101-.957 1.923-5.019 5.839-9.001 10.744-10.926.594-.233.984-.806.984-1.444s-.391-1.211-.984-1.444c-5.115-2.005-9.107-6.18-10.954-11.455-1.843-5.264-1.311-10.844 1.499-15.711 2.811-4.868 7.378-8.119 12.859-9.155 5.485-1.042 11.101.333 15.395 3.759.499.401 1.191.449 1.743.131.552-.319.853-.944.758-1.574-.821-5.433.799-10.978 4.442-15.215 3.638-4.228 8.737-6.558 14.357-6.558 5.621 0 10.72 2.329 14.357 6.559 3.644 4.236 5.263 9.782 4.442 15.213-.095.631.206 1.256.758 1.575.552.318 1.244.268 1.743-.13 4.295-3.428 9.904-4.797 15.397-3.76 5.482 1.036 10.047 4.287 12.858 9.155 2.81 4.867 3.342 10.447 1.499 15.712-1.847 5.274-5.839 9.448-10.953 11.454-.594.233-.984.806-.984 1.444 0 .637.391 1.211.984 1.444 4.611 1.81 8.284 5.347 10.342 9.957.196.438.584.761 1.05.875.466.116.96.005 1.335-.296 6.852-5.474 16.796-5.484 23.642-.018.498.398 1.189.449 1.743.13.552-.319.853-.944.758-1.574-.821-5.433.799-10.978 4.443-15.215 3.638-4.228 8.737-6.558 14.357-6.558s10.719 2.329 14.357 6.558c3.644 4.237 5.263 9.782 4.443 15.215-.095.63.206 1.255.758 1.574.553.319 1.245.268 1.743-.13 7.432-5.933 15.855-4.671 21.26-1.512 1.672.977 3.149 2.167 4.417 3.513v-300.927c0-7.203-5.894-13.097-13.098-13.097h-36.165c-25.732 0-49.909-12.203-64.674-32.643-7.244-10.026-18.474-15.777-30.81-15.777s-23.566 5.751-30.809 15.778c-14.766 20.439-38.944 32.642-64.676 32.642h-36.164c-7.203 0-13.097 5.894-13.097 13.097v299.372c.903-.757 1.842-1.421 2.788-1.971z" fill="#543e5b"/></g><path d="m251.78 305.649c-10.558-8.685-4.417-18.84-1.692-22.396.711-.927 1.072-2.07 1.036-3.238l-3.314-109.181c-.059-1.949-1.216-3.719-3.006-4.494-22.319-9.679-17.14-33.479-14.748-41.256.496-1.614.176-3.364-.873-4.687l-15.527-19.579c-.583-.735-1.359-1.302-2.243-1.617-13.111-4.663-13.058-14.769-11.773-20.569.491-2.214-.466-4.536-2.469-5.6-1.854-.985-2.943-2.327-3.551-3.768-10.242 4.589-21.513 7.072-33.104 7.072h-36.164c-7.204 0-13.098 5.894-13.098 13.097v299.372c.903-.758 1.842-1.421 2.788-1.971 6.898-4.014 15.04-3.43 21.248 1.527.499.398 1.19.449 1.743.13.552-.319.854-.944.758-1.575-.822-5.431.798-10.976 4.442-15.213 3.638-4.23 8.736-6.559 14.357-6.559 5.62 0 10.719 2.329 14.356 6.558 3.644 4.236 5.263 9.782 4.443 15.215-.095.63.206 1.255.758 1.574s1.244.27 1.743-.131c7.302-5.826 17.944-5.403 24.757.984.379.354.91.496 1.408.381.504-.116.916-.474 1.101-.957 1.923-5.019 5.839-9.001 10.744-10.926.594-.233.984-.806.984-1.444s-.391-1.211-.984-1.444c-5.115-2.005-9.107-6.18-10.954-11.455-1.842-5.264-1.31-10.844 1.5-15.711 2.811-4.868 7.378-8.119 12.859-9.155 5.485-1.042 11.101.333 15.395 3.759.499.401 1.19.449 1.743.131.552-.319.853-.944.758-1.574-.821-5.433.799-10.978 4.443-15.215 3.118-3.624 7.313-5.84 11.986-6.403v-9.645c-.001-1.551-.653-3.052-1.85-4.037z" fill="#422953"/><path d="m387.649 68.58h-36.165c-23.249 0-45.077-11.001-58.389-29.429-8.719-12.069-22.239-18.991-37.095-18.991-14.855 0-28.376 6.922-37.095 18.992-13.313 18.427-35.141 29.428-58.39 29.428h-36.164c-11.498 0-20.852 9.354-20.852 20.852v318.462c.329-.071.63-.248.852-.508.294-.345.422-.801.351-1.248-1.477-9.37 3.855-16.115 9.339-19.305 1.601-.932 3.271-1.605 4.966-2.044v-295.357c0-2.896 2.447-5.343 5.343-5.343h36.164c28.213 0 54.741-13.404 70.961-35.855 5.768-7.984 14.707-12.564 24.523-12.564s18.755 4.579 24.523 12.563c16.219 22.452 42.746 35.856 70.96 35.856h36.165c2.896 0 5.343 2.447 5.343 5.343v295.872c1.201.424 2.322.95 3.337 1.543 6.908 4.037 10.563 11.637 9.313 19.365-.077.469.068.948.391 1.298.322.35.783.529 1.263.495.399-.032.801-.051 1.204-.062v-318.511c.004-11.498-9.35-20.852-20.848-20.852z" fill="#422953"/><path d="m104.703 406.138c-1.477-9.37 3.855-16.115 9.338-19.305 1.602-.932 3.271-1.605 4.966-2.044v-295.357c0-2.896 2.447-5.343 5.343-5.343h36.164c13.623 0 26.849-3.133 38.716-8.894-.439-.9-1.131-1.671-2.062-2.165-3.849-2.045-4.427-5.628-4.165-8.443.108-1.164-.212-2.272-.83-3.198-9.707 4.659-20.519 7.191-31.66 7.191h-36.164c-11.498 0-20.852 9.354-20.852 20.852v318.462c.329-.071.63-.248.852-.508.297-.345.425-.801.354-1.248z" fill="#30144a"/><path d="m433.835 431.344c-2.471.117-4.466-1.849-4.459-4.322 0-.019 0-.037 0-.055 0-11.372-9.218-20.59-20.59-20.59-2.843 0-5.551.576-8.015 1.618l-85.269 1.563-59.502-33.16-59.501 31.597h-85.27c-2.463-1.042-5.172-1.618-8.015-1.618-11.371 0-20.59 9.218-20.59 20.59v.055c.007 2.473-1.989 4.439-4.459 4.322-1.215-.057-2.459-.004-3.721.159 44.826 49.442 109.563 80.497 181.556 80.497s136.731-31.055 181.555-80.496c-1.262-.164-2.505-.217-3.72-.16z" fill="#81c66d"/><path d="m327.344 501.447c-10.57-19.88 10.536-28.824 10.536-28.824l-1.922-63.439-20.456.375-59.502-33.161-59.502 31.597h-85.27c-2.463-1.042-5.171-1.618-8.015-1.618-11.371 0-20.59 9.218-20.59 20.59v.055c.007 2.473-1.988 4.439-4.459 4.322-1.214-.057-2.459-.004-3.72.159 44.826 49.442 109.563 80.497 181.556 80.497 24.817 0 48.77-3.692 71.344-10.553z" fill="#5aab5f"/><ellipse cx="291.944" cy="424.766" fill="#ffdd40" rx="25.941" ry="25.941" transform="matrix(.707 -.707 .707 .707 -214.847 330.846)"/><ellipse cx="219.57" cy="424.766" fill="#ffc839" rx="25.941" ry="25.941" transform="matrix(.383 -.924 .924 .383 -256.888 465.071)"/><g><path d="m293.011 135.022c-24.502-20.54-60.326-20.585-84.882 0-5.907 4.949-14.711 4.179-19.663-1.73-4.952-5.908-4.178-14.711 1.73-19.663 34.855-29.218 85.807-29.292 120.75 0 5.908 4.953 6.682 13.756 1.73 19.663-4.938 5.889-13.74 6.696-19.665 1.73z" fill="#665364"/></g><g fill="#30144a"><path d="m251.182 281.944c5.71 0 10.339-4.629 10.339-10.339v-94.415c0-5.71-4.629-10.339-10.339-10.339s-10.339 4.629-10.339 10.339v94.414c0 5.71 4.629 10.34 10.339 10.34z"/><path d="m207.262 278.435c2.044 2.322 4.897 3.509 7.765 3.509 2.426 0 4.863-.849 6.827-2.578 4.286-3.773 4.703-10.306.931-14.592l-25.577-29.06c16.103-3.553 28.154-17.437 28.154-33.986 0-19.231-16.268-34.877-36.265-34.877h-25.089c-.005 0-.01.001-.016.001l-.015-.001c-5.71 0-10.339 4.629-10.339 10.339v94.414c0 5.71 4.629 10.339 10.339 10.339s10.339-4.629 10.339-10.339v-30.602zm-18.164-90.906c8.449 0 15.587 6.502 15.587 14.199 0 7.696-7.138 14.198-15.587 14.198-3.376 0-9.367.025-14.635.052-.078-15.125-.03-9.928-.084-28.449z"/><path d="m320.857 166.851h-26.289c-5.71 0-10.339 4.653-10.339 10.339v94.414c0 5.71 4.629 10.339 10.339 10.339s10.339-4.629 10.339-10.339v-30.728c5.658-.03 12.293-.06 15.95-.06 20.68 0 37.504-16.59 37.504-36.982 0-20.393-16.824-36.983-37.504-36.983zm0 53.288h-.003c-3.644 0-10.189.029-15.822.06-.086-16.882-.036-11.952-.095-32.669h15.92c9.121 0 16.826 7.467 16.826 16.305 0 8.837-7.705 16.304-16.826 16.304z"/></g><path d="m297.816 307.035h-83.631c-5.71 0-10.339 4.629-10.339 10.339s4.629 10.339 10.339 10.339h83.631c5.71 0 10.339-4.629 10.339-10.339s-4.629-10.339-10.339-10.339z" fill="#665364"/><path d="m244.179 317.374c0-5.71 4.629-10.339 10.339-10.339h-40.333c-5.71 0-10.339 4.629-10.339 10.339s4.629 10.339 10.339 10.339h40.333c-5.71 0-10.339-4.629-10.339-10.339z" fill="#543e5b"/><path d="m256 318.443c-15.077 0-24.868 15.883-18.096 29.353l8.032 15.974c2.764-2.207 6.259-3.537 10.064-3.537 3.804 0 7.299 1.329 10.064 3.537l8.032-15.974c6.772-13.47-3.019-29.353-18.096-29.353z" fill="#fceca9"/><path d="m274.096 405-8.032-15.975c-2.764 2.207-6.259 3.537-10.064 3.537-3.804 0-7.3-1.329-10.064-3.537l-8.032 15.975c-6.773 13.47 3.019 29.353 18.096 29.353s24.868-15.883 18.096-29.353z" fill="#fcf4d9"/><path d="m239.836 376.398c0-6.827 4.262-12.666 10.259-15.032l-9.817-14.941c-8.279-12.6-26.93-12.062-34.468.995s1.321 29.478 16.373 30.348l17.852 1.031c-.118-.785-.199-1.583-.199-2.401z" fill="#fceca9"/><path d="m289.818 375.027-17.852-1.031c.118.786.199 1.583.199 2.402 0 6.827-4.261 12.667-10.259 15.032l9.817 14.941c8.279 12.6 26.93 12.062 34.468-.995s-1.322-29.479-16.373-30.349z" fill="#fcf4d9"/><path d="m239.836 376.398c0-.818.081-1.616.199-2.402l-17.852 1.031c-15.051.87-23.911 17.291-16.373 30.348 7.539 13.056 26.19 13.595 34.468.995l9.817-14.941c-5.998-2.364-10.259-8.204-10.259-15.031z" fill="#fceca9"/><path d="m306.191 347.421c-7.539-13.057-26.19-13.595-34.468-.995l-9.817 14.941c5.997 2.365 10.259 8.204 10.259 15.032 0 .818-.081 1.616-.199 2.402l17.852-1.031c15.051-.872 23.911-17.292 16.373-30.349z" fill="#fcf4d9"/><path d="m256 419.913c-15.077 0-24.868 15.883-18.096 29.353l8.032 15.974c2.764-2.207 6.259-3.537 10.064-3.537 3.804 0 7.299 1.329 10.064 3.537l8.032-15.974c6.772-13.47-3.019-29.353-18.096-29.353z" fill="#fceca9"/><path d="m256 512c6.662 0 13.259-.276 19.787-.797-.358-1.591-.909-3.178-1.691-4.732l-8.032-15.974c-2.764 2.207-6.26 3.537-10.064 3.537-3.805 0-7.3-1.329-10.064-3.537l-8.032 15.974c-.782 1.555-1.333 3.142-1.691 4.732 6.528.521 13.125.797 19.787.797z" fill="#fcf4d9"/><path d="m239.836 477.868c0-6.827 4.262-12.667 10.259-15.032l-9.817-14.941c-8.279-12.6-26.93-12.062-34.468.995s1.321 29.478 16.373 30.348l17.852 1.031c-.118-.785-.199-1.583-.199-2.401z" fill="#fceca9"/><path d="m289.818 476.497-17.852-1.031c.118.786.199 1.584.199 2.402 0 6.827-4.261 12.667-10.259 15.032l9.817 14.941c.851 1.295 1.816 2.444 2.863 3.462 10.744-.806 21.292-2.31 31.605-4.457 7.538-13.058-1.322-29.479-16.373-30.349z" fill="#fcf4d9"/><path d="m239.836 477.868c0-.818.081-1.616.199-2.402l-17.852 1.031c-15.051.87-23.911 17.291-16.373 30.348 10.313 2.147 20.861 3.651 31.605 4.457 1.047-1.018 2.012-2.167 2.863-3.462l9.817-14.941c-5.998-2.365-10.259-8.204-10.259-15.031z" fill="#fceca9"/><path d="m306.191 448.89c-7.539-13.057-26.19-13.595-34.468-.995l-9.817 14.941c5.997 2.365 10.259 8.204 10.259 15.032 0 .818-.081 1.616-.199 2.402l17.852-1.031c15.051-.871 23.911-17.292 16.373-30.349z" fill="#fcf4d9"/><path d="m353.77 364.409c-15.077 0-24.868 15.883-18.096 29.353l8.032 15.974c2.764-2.207 6.259-3.537 10.064-3.537 3.804 0 7.299 1.329 10.064 3.537l8.032-15.974c6.773-13.469-3.019-29.353-18.096-29.353z" fill="#fceca9"/><path d="m371.866 450.967-8.032-15.975c-2.764 2.207-6.259 3.537-10.064 3.537-3.804 0-7.299-1.329-10.064-3.537l-8.032 15.975c-6.772 13.47 3.019 29.353 18.096 29.353s24.869-15.884 18.096-29.353z" fill="#fcf4d9"/><path d="m337.606 422.364c0-6.827 4.262-12.666 10.259-15.032l-9.817-14.941c-8.279-12.6-26.93-12.062-34.468.995s1.321 29.478 16.373 30.348l17.852 1.031c-.118-.785-.199-1.583-.199-2.401z" fill="#fceca9"/><path d="m387.588 420.994-17.852-1.031c.118.786.199 1.584.199 2.402 0 6.828-4.261 12.667-10.259 15.032l9.817 14.941c8.279 12.6 26.93 12.062 34.468-.995 7.538-13.058-1.321-29.48-16.373-30.349z" fill="#fcf4d9"/><path d="m337.606 422.364c0-.818.081-1.616.199-2.402l-17.852 1.031c-15.051.87-23.911 17.291-16.373 30.348 7.539 13.057 26.19 13.595 34.468.995l9.817-14.941c-5.998-2.364-10.259-8.203-10.259-15.031z" fill="#fceca9"/><path d="m403.961 393.387c-7.538-13.057-26.19-13.595-34.468-.995l-9.817 14.941c5.997 2.365 10.259 8.204 10.259 15.032 0 .818-.081 1.616-.199 2.402l17.852-1.031c15.052-.871 23.911-17.292 16.373-30.349z" fill="#fcf4d9"/><ellipse cx="353.77" cy="422.364" fill="#ffc839" rx="17.347" ry="17.347" transform="matrix(.23 -.973 .973 .23 -138.575 669.632)"/><path d="m365.368 418.365c0 4.127-3.346 7.473-7.473 7.473s-7.473-3.346-7.473-7.473 3.346-7.473 7.473-7.473 7.473 3.346 7.473 7.473z" fill="#ffdd40"/><path d="m156.589 364.409c-15.077 0-24.868 15.883-18.096 29.353l8.032 15.974c2.764-2.207 6.259-3.537 10.064-3.537 3.804 0 7.299 1.329 10.064 3.537l8.032-15.974c6.772-13.469-3.019-29.353-18.096-29.353z" fill="#fceca9"/><path d="m174.685 450.967-8.032-15.975c-2.764 2.207-6.259 3.537-10.064 3.537-3.804 0-7.3-1.329-10.064-3.537l-8.032 15.975c-6.773 13.47 3.019 29.353 18.096 29.353s24.868-15.884 18.096-29.353z" fill="#fcf4d9"/><path d="m140.424 422.364c0-6.827 4.262-12.666 10.259-15.032l-9.817-14.941c-8.279-12.6-26.93-12.062-34.468.995s1.321 29.478 16.373 30.348l17.852 1.031c-.118-.785-.199-1.583-.199-2.401z" fill="#fceca9"/><path d="m190.407 420.994-17.852-1.031c.118.786.199 1.584.199 2.402 0 6.828-4.262 12.667-10.259 15.032l9.817 14.941c8.279 12.6 26.93 12.062 34.468-.995 7.538-13.058-1.322-29.48-16.373-30.349z" fill="#fcf4d9"/><path d="m140.424 422.364c0-.818.081-1.616.199-2.402l-17.852 1.031c-15.051.87-23.911 17.291-16.373 30.348 7.539 13.057 26.19 13.595 34.468.995l9.817-14.941c-5.997-2.364-10.259-8.203-10.259-15.031z" fill="#fceca9"/><path d="m206.779 393.387c-7.539-13.057-26.19-13.595-34.468-.995l-9.817 14.941c5.997 2.365 10.259 8.204 10.259 15.032 0 .818-.081 1.616-.199 2.402l17.852-1.031c15.052-.871 23.912-17.292 16.373-30.349z" fill="#fcf4d9"/><path d="m230.22 122.801c-21.235-3.983-17.841-22.595-17.757-23.041-7.883 3.494-15.392 8.105-22.268 13.869-5.908 4.952-6.682 13.756-1.729 19.663 4.952 5.909 13.756 6.679 19.663 1.73 6.686-5.605 14.211-9.668 22.112-12.217-.007-.001-.014-.003-.021-.004z" fill="#543e5b"/><ellipse cx="256" cy="376.398" fill="#ffc839" rx="17.347" ry="17.347" transform="matrix(.29 -.957 .957 .29 -178.432 512.339)"/><circle cx="260.125" cy="372.399" fill="#ffdd40" r="7.473"/><ellipse cx="256" cy="477.868" fill="#ffc839" rx="17.347" ry="17.347" transform="matrix(.29 -.957 .957 .29 -275.548 584.405)"/><circle cx="260.125" cy="473.868" fill="#ffdd40" r="7.473"/><ellipse cx="156.589" cy="422.364" fill="#ffc839" rx="17.347" ry="17.347" transform="matrix(.29 -.957 .957 .29 -293.03 449.84)"/><circle cx="160.714" cy="418.365" fill="#ffdd40" r="7.473"/></g></svg>