<svg id="Capa_1" enable-background="new 0 0 512 512" height="512" viewBox="0 0 512 512" width="512" xmlns="http://www.w3.org/2000/svg"><g><g><path d="m463.796 396.808c23.566-37.639 37.204-82.127 37.204-129.808 0-135.31-109.69-245-245-245s-245 109.69-245 245c0 47.681 13.638 92.169 37.204 129.808z" fill="#7255ce"/></g><g><circle cx="256" cy="242" fill="#5c45bf" r="200"/></g><g><path d="m240.835 326.758c-18.222-103.34-77.085-179.339-131.474-169.749-49.302 8.693-78.005 84.728-69.371 175.846.853 9.007 12.958 11.33 17.16 3.318s-.3 29.448 11.002 70.966h177.438c1.636-24.976.207-52.238-4.755-80.381z" fill="#bec8f7"/></g><g><path d="m81.796 260.543c.24-5.98-8.153-7.577-10.134-1.93-6.713 19.131-13.739 46.291-14.513 77.56 0 0-.3 29.448 11.002 70.966h46.295c-31.485-40.969-34.217-107.535-32.65-146.596z" fill="#acbbef"/></g><g><path d="m271.165 326.758c18.222-103.34 77.085-179.339 131.474-169.749 49.302 8.693 78.005 84.728 69.371 175.846-.853 9.007-12.958 11.33-17.16 3.318s.3 29.448-11.002 70.966h-177.438c-1.636-24.976-.207-52.238 4.755-80.381z" fill="#bec8f7"/></g><g><path d="m349.188 407.139c31.491-48.245 41.912-99.84 45.216-133.303.62-6.277-8.186-8.322-10.418-2.423-15.294 40.411-44.938 106.122-84.866 135.726z" fill="#acbbef"/></g><g><path d="m162.812 407.139c-31.491-48.245-41.912-99.84-45.216-133.303-.62-6.277 8.186-8.322 10.418-2.423 15.294 40.411 44.938 106.122 84.866 135.726z" fill="#acbbef"/></g><g><path d="m430.204 260.543c-.24-5.98 8.153-7.577 10.134-1.93 6.713 19.131 13.739 46.291 14.513 77.56 0 0 .3 29.448-11.002 70.966h-46.295c31.485-40.969 34.217-107.535 32.65-146.596z" fill="#acbbef"/></g><g><path d="m185.614 314.575h140.772v134.212h-140.772z" fill="#f3d6ac"/></g><g><path d="m208.614 221.239v93.336s19.021 20.093 47.17 20.093c.073 0 .143-.005.216-.005 28.031-.103 47.386-20.088 47.386-20.088v-93.336z" fill="#f3d6ac"/></g><g><path d="m208.614 220.734v93.841c94.723 0 94.772-53.4 94.772-53.4v-40.44h-94.772z" fill="#eabe8d"/></g><g><path d="m436.197 344.941c-10.416-9.196-32.662-18.01-68.01-26.945-4.718-1.193-9.696-2.392-14.797-3.563-9.068-2.083-18.653-4.087-27.004-5.738l-35.216 112.753-48.301 52.898 25.365 25.365h64.547l.008.003c54.753-18.062 100.967-54.905 131.015-102.906-13.89-36.78-22.359-47.233-27.607-51.867z" fill="#dae2fe"/></g><g><path d="m251.463 482.94c48.997-41.728 74.923-108.762 74.923-156.078v-18.167c-4.971-.983-9.504-1.841-13.23-2.515-5.236-.948-10.048 3.074-10.048 8.396 0 45.406-23.872 108.976-69.098 150.913z" fill="#e9efff"/></g><g><path d="m256 512c14.994 0 29.671-1.353 43.922-3.933l-79.092-86.619-35.216-112.754c-8.351 1.651-17.936 3.655-27.004 5.738-5.101 1.171-10.079 2.37-14.797 3.563-35.349 8.935-57.595 17.749-68.01 26.945-5.248 4.634-13.717 15.087-27.607 51.867 43.304 69.177 120.174 115.193 207.804 115.193z" fill="#e9efff"/></g><g><path d="m139.054 319.221c-32.59 8.517-53.311 16.944-63.25 25.72-5.248 4.634-13.717 15.087-27.607 51.867 43.303 69.176 120.173 115.192 207.803 115.192-106.005-32.957-116.284-155.901-116.946-192.779z" fill="#dae2fe"/></g><g><path d="m332.781 499.711c-80.549-29.757-123.89-123.947-123.89-185.136 0-5.321-4.812-9.344-10.048-8.396-3.725.675-8.259 1.532-13.23 2.515v18.167c0 58.715 39.913 147.804 114.308 181.206 11.241-2.034 22.21-4.844 32.86-8.356z" fill="#fff"/></g><g><path d="m91.07 426.843v21.327c7.157 6.519 14.704 12.617 22.599 18.262l-12.035-41.103c-1.75-5.98-10.564-4.716-10.564 1.514z" fill="#bec8f7"/></g><g><path d="m420.93 426.843v21.327c-7.157 6.519-14.704 12.617-22.599 18.262l12.035-41.103c1.75-5.98 10.564-4.716 10.564 1.514z" fill="#bec8f7"/></g><g><path d="m368.643 33.238c-.935-1.739-8.825-7.276-33.777-11.954-21.611-4.053-49.62-6.284-78.866-6.284s-57.255 2.231-78.865 6.284c-24.952 4.678-32.843 10.215-33.777 11.954.04-.074.143-.35.143-.738h-15c0-11.226 13.065-19.176 41.117-25.02 23.153-4.824 53.83-7.48 86.382-7.48s63.229 2.656 86.383 7.48c28.052 5.844 41.117 13.794 41.117 25.02h-15c0 .388.103.664.143.738z" fill="#ffc839"/></g><g><path d="m333.48 46.073s-.921-27.711-14.708-34.073-28.523-12-62.772-12-48.985 5.638-62.772 12-14.708 34.073-14.708 34.073c-17.176 18.715-27.663 43.666-27.663 71.07v30.076h210.286v-30.076c0-27.404-10.488-52.356-27.663-71.07z" fill="#2d3c6b"/></g><g><path d="m225.46 88.696c-33.737-15.087-37.396-76.331-8.841-85.005-9.523 2.198-16.575 5.165-23.391 8.31-13.787 6.362-14.708 34.073-14.708 34.073-17.176 18.715-27.663 43.666-27.663 71.07v30.076h74.603z" fill="#213159"/></g><g><path d="m180.942 159.567s-10.385-25.285-28.897-19.415.448 60.664 36.573 64.116z" fill="#eabe8d"/></g><g><path d="m331.058 159.567s10.385-25.285 28.897-19.415-.448 60.664-36.573 64.116z" fill="#f3d6ac"/></g><g><path d="m184.951 124.754c3.509-10.287 9.219-24.496 16.225-32.717 3.978-3.853 8.145-7.046 12.399-9.103 8.195-3.963 15.758-4.069 22.16-2.497 13.314 3.269 27.216 3.268 40.53 0 6.402-1.572 13.966-1.466 22.16 2.497 4.254 2.057 8.421 5.25 12.399 9.103 7.006 8.221 12.716 22.43 16.225 32.717 2.762 8.097 8.72 14.703 16.484 18.295.031 1.23.063 2.46.063 3.705 0 64.505-39.219 140.155-87.597 140.155s-87.597-75.651-87.597-140.155c0-1.245.032-2.475.063-3.705 7.766-3.592 13.724-10.198 16.486-18.295z" fill="#f8e6cc"/></g><g><path d="m208.403 146.754c0-25.925 6.339-48.917 17.057-67.152-3.755.312-7.739 1.327-11.885 3.333-4.254 2.057-8.421 5.25-12.399 9.103-7.006 8.221-12.716 22.43-16.225 32.717-2.762 8.097-8.72 14.703-16.484 18.295-.031 1.23-.063 2.46-.063 3.705 0 64.505 39.219 140.155 87.597 140.155 6.881 0 13.576-1.535 20-4.346-38.742-16.953-67.598-80.48-67.598-135.81z" fill="#f3d6ac"/></g><g><g><path d="m235.384 240.87h41.233c4.111-3.622 7.258-8.309 9.01-13.631 1.584-4.811-2.069-9.754-7.134-9.754h-44.985c-5.065 0-8.718 4.943-7.134 9.754 1.752 5.322 4.899 10.009 9.01 13.631z" fill="#162544"/></g><g><path d="m276.616 240.87c-5.493 4.849-12.714 7.798-20.616 7.798s-15.124-2.948-20.616-7.798c5.5-4.849 12.714-7.798 20.616-7.798s15.116 2.949 20.616 7.798z" fill="#ff4155"/></g></g><g><g><path d="m242.013 192.447 8.436-13.441c2.569-4.093 8.533-4.093 11.102 0l8.436 13.441c2.739 4.365-.398 10.038-5.551 10.038h-16.871c-5.154-.001-8.291-5.674-5.552-10.038z" fill="#f3d6ac"/></g></g><g><path d="m310.999 162.085c.043-3.495-1.371-7.004-4.242-9.539-4.675-4.128-11.84-4.128-16.515 0-2.871 2.535-4.284 6.044-4.242 9.539.055 4.538 5.629 6.716 8.838 3.507 2.022-2.022 5.3-2.022 7.322 0 3.21 3.21 8.784 1.032 8.839-3.507z" fill="#162544"/></g><g><path d="m201.001 162.085c-.043-3.495 1.371-7.004 4.242-9.539 4.675-4.128 11.84-4.128 16.515 0 2.871 2.535 4.284 6.044 4.242 9.539-.055 4.538-5.629 6.716-8.838 3.507-2.022-2.022-5.3-2.022-7.322 0-3.21 3.21-8.784 1.032-8.839-3.507z" fill="#162544"/></g><g><path d="m196 132.917v-.005c0-3.045 1.951-5.736 4.829-6.731 8.513-2.944 16.772-2.959 25.337.003 2.88.996 4.834 3.685 4.834 6.733 0 4.883-4.783 8.211-9.427 6.701-5.247-1.706-10.9-1.706-16.147 0-4.642 1.51-9.426-1.818-9.426-6.701z" fill="#162544"/></g><g><path d="m316 132.917v-.005c0-3.045-1.951-5.736-4.829-6.731-8.513-2.944-16.772-2.959-25.337.003-2.88.996-4.834 3.685-4.834 6.733 0 4.883 4.783 8.211 9.427 6.701 5.247-1.706 10.9-1.706 16.147 0 4.643 1.51 9.426-1.818 9.426-6.701z" fill="#162544"/></g><g><path d="m256 65c-32.552 0-63.229-2.656-86.383-7.48-28.052-5.844-41.117-13.794-41.117-25.02 0-4.142 3.357-7.5 7.5-7.5 3.96 0 7.202 3.068 7.48 6.958 1.382 1.928 9.57 7.243 33.654 11.759 21.611 4.052 49.62 6.283 78.866 6.283s57.255-2.231 78.865-6.284c24.084-4.516 32.272-9.831 33.654-11.759.279-3.889 3.521-6.957 7.481-6.957 4.143 0 7.5 3.358 7.5 7.5 0 11.226-13.065 19.176-41.117 25.02-23.154 4.824-53.831 7.48-86.383 7.48z" fill="#ffdd40"/></g></g></svg>