<svg id="Capa_1" enable-background="new 0 0 512 512" height="512" viewBox="0 0 512 512" width="512" xmlns="http://www.w3.org/2000/svg"><g><g><path d="m459.679 403.175c26.09-38.945 41.321-85.778 41.321-136.175 0-135.31-109.69-245-245-245s-245 109.69-245 245c0 50.397 15.231 97.23 41.321 136.175z" fill="#ff4155"/></g><g><circle cx="256" cy="242" fill="#e80054" r="200"/></g><g><path d="m353.608 162.915h-192.948c0 38.808-38.808 73.896-38.808 132.033s30 95 30 95h210.565s30-36.863 30-95-38.809-93.225-38.809-132.033z" fill="#ffc839"/></g><g><path d="m355.547 83.218c-12.65-41.159-45.137-83.218-80.681-83.218-12.234 0-18.866 12-18.866 12s-6.632-12-18.866-12c-35.545 0-68.033 42.062-80.682 83.222-3.586 10.526-5.547 21.804-5.589 33.534-.001.128-.005.259-.005.387v30.076h210.286v-30.076c-.001-11.871-1.971-23.282-5.597-33.925z" fill="#ffdd40"/></g><g><path d="m225.46 147.218v-67.616c-21.838-14.207-31.609-62.729 1.325-78.424-31.374 7.066-58.924 44.919-70.333 82.045-3.586 10.527-5.547 21.804-5.589 33.534-.001.128-.005.259-.005.386v30.076h74.602z" fill="#ffc839"/></g><g><path d="m256 433.614c124.66 0 176.227-78.386 176.227-78.386-.904-1.078-1.795-2.019-2.668-2.79-6.623-5.848-19.39-11.382-34.352-16.323-37.929-12.525-89.967-21.232-91.82-21.54h-94.772c-1.853.307-53.892 9.014-91.82 21.54-14.961 4.941-27.729 10.475-34.352 16.323-.874.772-1.765 1.712-2.668 2.79-.002 0 51.565 78.386 176.225 78.386z" fill="#f8e6cc"/></g><g><path d="m181.159 395.255c-7.588-20.983-11.959-45.066-12.65-72.83v-.001c-16.433 3.612-35.381 8.297-51.715 13.691-14.961 4.941-27.729 10.475-34.352 16.323-.874.771-1.765 1.712-2.668 2.79 0 0 34.921 53.057 116.73 71.865-6.03-9.746-11.179-20.319-15.345-31.838z" fill="#f3d6ac"/></g><g><path d="m276.616 369.362s10.767-11.809 23.703-11.809 55.191 11.809 55.191 11.809z" fill="#f3d6ac"/></g><g><path d="m235.384 369.362s-10.767-11.809-23.703-11.809-55.191 11.809-55.191 11.809z" fill="#f3d6ac"/></g><g><path d="m208.614 221.239v93.336s19.021 20.093 47.17 20.093c.073 0 .143-.005.216-.005 28.031-.103 47.386-20.088 47.386-20.088v-93.336z" fill="#f3d6ac"/></g><g><path d="m208.614 220.734v93.841c94.723 0 94.772-53.4 94.772-53.4v-40.44h-94.772z" fill="#eabe8d"/></g><g><path d="m443.996 353.841c-2.532-6.383-10.595-8.388-15.798-3.908-21.447 18.467-77.426 56.854-172.198 56.854s-150.751-38.387-172.198-56.854c-5.203-4.48-13.266-2.475-15.798 3.908-4.967 12.522-11.953 31.76-15.693 49.334 43.957 65.62 118.774 108.825 203.689 108.825s159.732-43.205 203.689-108.825c-3.74-17.574-10.726-36.812-15.693-49.334z" fill="#49d88b"/></g><g><path d="m301.031 507.862c-55.793-22.543-98.107-55.621-118.719-109.562-51.034-12.381-83.375-35.333-98.511-48.366-5.203-4.48-13.266-2.475-15.798 3.908-4.967 12.522-11.953 31.76-15.693 49.334 43.958 65.619 118.775 108.824 203.69 108.824 15.38 0 30.427-1.424 45.022-4.136.003 0 .006-.002.009-.002z" fill="#38c674"/></g><g><path d="m120.812 471.33c-.075-.212-8.769-24.824 4.705-53.619 2.512-5.369-4.447-10.154-8.544-5.871-8.577 8.966-17.032 22.169-20.587 41.004 7.736 6.653 15.895 12.828 24.426 18.486z" fill="#21b75d"/></g><g><path d="m391.188 471.33c.075-.212 8.769-24.824-4.705-53.619-2.512-5.369 4.447-10.154 8.544-5.871 8.577 8.966 17.032 22.169 20.587 41.004-7.736 6.653-15.895 12.828-24.426 18.486z" fill="#38c674"/></g><g><path d="m326.307 165.046c-4.281 9.642.591 20.92 10.338 24.957 9.746 4.037 20.92-.591 24.957-10.338 4.037-9.746 7.339-17.717 13.702-33.079 6.363-15.361-32.54-18.606-48.997 18.46z" fill="#f3d6ac"/></g><g><path d="m185.693 165.046c4.281 9.642-.591 20.92-10.338 24.957-9.746 4.037-20.92-.591-24.957-10.338-4.037-9.746-7.339-17.717-13.702-33.079s32.54-18.606 48.997 18.46z" fill="#eabe8d"/></g><g><path d="m327.049 124.754c-3.509-10.287-9.219-24.496-16.225-32.717-3.978-3.853-8.145-7.046-12.399-9.103-8.195-3.963-15.758-4.069-22.16-2.497-13.314 3.269-27.216 3.268-40.53 0-6.402-1.572-13.966-1.466-22.16 2.497-4.254 2.057-8.421 5.25-12.399 9.103-7.006 8.221-12.716 22.43-16.225 32.717-2.762 8.097-8.72 14.703-16.484 18.295-.031 1.23-.063 2.46-.063 3.705 0 64.505 39.219 140.155 87.597 140.155s87.597-75.651 87.597-140.155c0-1.245-.032-2.475-.063-3.705-7.766-3.592-13.724-10.198-16.486-18.295z" fill="#f8e6cc"/></g><g><path d="m208.403 146.754c0-25.925 6.339-48.917 17.057-67.152-3.755.312-7.739 1.327-11.885 3.333-4.254 2.057-8.421 5.25-12.399 9.103-7.006 8.221-12.716 22.43-16.225 32.717-2.762 8.097-8.72 14.703-16.484 18.295-.031 1.23-.063 2.46-.063 3.705 0 64.505 39.219 140.155 87.597 140.155 6.881 0 13.576-1.535 20-4.346-38.742-16.953-67.598-80.48-67.598-135.81z" fill="#f3d6ac"/></g><g><g><path d="m256 242.667c-8.819 0-17.315-3.214-23.926-9.05-2.069-1.828-2.267-4.987-.438-7.057 1.827-2.07 4.986-2.268 7.058-.439 4.781 4.221 10.927 6.546 17.307 6.546s12.525-2.325 17.307-6.546c2.07-1.828 5.229-1.632 7.058.439 1.828 2.07 1.631 5.229-.438 7.057-6.613 5.837-15.109 9.05-23.928 9.05z" fill="#eabe8d"/></g></g><g><g><path d="m242.013 192.447 8.436-13.441c2.569-4.093 8.533-4.093 11.102 0l8.436 13.441c2.739 4.365-.398 10.038-5.551 10.038h-16.871c-5.154-.001-8.291-5.674-5.552-10.038z" fill="#f3d6ac"/></g></g><g><path d="m201.001 154.483c-.043 3.495 1.371 7.004 4.242 9.539 4.675 4.128 11.84 4.128 16.515 0 2.871-2.535 4.284-6.044 4.242-9.539-.055-4.538-5.629-6.716-8.838-3.507-2.022 2.022-5.3 2.022-7.322 0-3.21-3.209-8.784-1.031-8.839 3.507z" fill="#162544"/></g><g><path d="m310.999 154.483c.043 3.495-1.371 7.004-4.242 9.539-4.675 4.128-11.84 4.128-16.515 0-2.871-2.535-4.284-6.044-4.242-9.539.055-4.538 5.629-6.716 8.838-3.507 2.022 2.022 5.3 2.022 7.322 0 3.21-3.209 8.784-1.031 8.839 3.507z" fill="#162544"/></g><g><path d="m316 128.036v.005c0 3.045-1.951 5.736-4.829 6.731-8.513 2.944-16.772 2.959-25.337-.003-2.88-.996-4.834-3.685-4.834-6.733 0-4.883 4.783-8.211 9.427-6.701 5.247 1.706 10.9 1.706 16.147 0 4.643-1.51 9.426 1.818 9.426 6.701z" fill="#ff9100"/></g><g><path d="m196 128.036v.005c0 3.045 1.951 5.736 4.829 6.731 8.513 2.944 16.772 2.959 25.337-.003 2.88-.996 4.834-3.685 4.834-6.733 0-4.883-4.783-8.211-9.427-6.701-5.247 1.706-10.9 1.706-16.147 0-4.642-1.51-9.426 1.818-9.426 6.701z" fill="#ff9100"/></g><g><path d="m361.143 115.458c-72.689 0-119.188-21.058-145.396-38.724-28.9-19.48-40.275-39.128-40.745-39.955-2.048-3.601-.788-8.179 2.812-10.227 3.596-2.042 8.162-.792 10.215 2.792.163.28 10.646 18.012 36.923 35.501 24.409 16.246 67.852 35.612 136.191 35.612 4.143 0 7.5 3.358 7.5 7.5s-3.358 7.501-7.5 7.501z" fill="#b76c4e"/></g><g><path d="m150.857 115.458c-4.143 0-7.5-3.358-7.5-7.5s3.357-7.5 7.5-7.5c68.341 0 111.782-19.366 136.191-35.612 26.354-17.541 36.821-35.325 36.924-35.502 2.066-3.577 6.643-4.821 10.23-2.766 3.584 2.055 4.839 6.61 2.796 10.202-.47.827-11.845 20.475-40.745 39.955-26.207 17.664-72.706 38.723-145.396 38.723z" fill="#a05838"/></g><g><path d="m255.784 342.168c-31.021 0-51.749-21.521-52.616-22.438-2.848-3.008-2.718-7.755.29-10.603s7.755-2.719 10.603.291c.154.16 17.279 17.723 41.671 17.749l.218-.005c24.609-.09 41.877-17.629 42.049-17.806 2.88-2.975 7.628-3.052 10.605-.17 2.976 2.882 3.052 7.63.17 10.605-.879.908-21.874 22.221-52.669 22.37-.113.005-.216.007-.321.007z" fill="#a05838"/></g><g><circle cx="255.999" cy="342.668" fill="#fff" r="20"/></g><g><path d="m255.999 342.668c0-7.398 4.028-13.843 10-17.302-2.944-1.706-6.353-2.698-10-2.698-11.046 0-20 8.954-20 20s8.954 20 20 20c3.647 0 7.056-.992 10-2.697-5.972-3.46-10-9.904-10-17.303z" fill="#e9efff"/></g></g></svg>