<svg id="Capa_1" enable-background="new 0 0 512 512" height="512" viewBox="0 0 512 512" width="512" xmlns="http://www.w3.org/2000/svg"><g><g><path d="m55.049 407.166c-27.755-39.718-44.049-88.036-44.049-140.166 0-135.31 109.69-245 245-245s245 109.69 245 245c0 52.13-16.294 100.448-44.049 140.166z" fill="#49d88b"/></g><g><circle cx="256" cy="242" fill="#38c674" r="200"/></g><g><path d="m348.593 64.834c-15.486-34.415-43.5-64.834-73.727-64.834-12.234 0-18.866 12-18.866 12s-6.635-12-18.869-12c-30.227 0-58.241 30.419-73.726 64.834-10.98 23.725-45.223 58.317-29.862 90.26 4.798 9.977 5.859 21.241 3.377 32.03-.906 3.938-1.189 7.928-.643 11.992 3.771 28.069 37.792 75.63 119.724 75.63s115.949-47.561 119.721-75.63c.546-4.064.263-8.054-.643-11.992-2.482-10.789-1.421-22.053 3.377-32.03 15.36-31.943-18.883-66.535-29.863-90.26z" fill="#b76c4e"/></g><g><path d="m225.46 79.602c-24.124-10.117-34.832-61.063-8.091-75.355-22.327 9.516-41.93 33.841-53.965 60.587-10.98 23.725-45.223 58.317-29.862 90.26 4.798 9.977 5.859 21.241 3.377 32.03-.906 3.938-1.189 7.928-.643 11.992 3.263 24.288 29.182 63.163 89.184 73.198z" fill="#a05838"/></g><g><path d="m325.855 156.509c-12.076 11.572-11.707 31.046.165 42.827s31.046 11.707 42.827-.165 21.415-21.58 39.983-40.292c18.568-18.711-36.553-46.855-82.975-2.37z" fill="#fcad6d"/></g><g><path d="m336.586 188.689c-2.978-2.955-4.666-7.052-4.629-11.239.034-3.91 1.553-7.5 4.277-10.11 23.424-22.447 46.871-21.39 57.033-17.227.827.339 1.532.682 2.128 1.01l-37.196 37.483c-4.373 4.407-10.911 5.734-16.657 3.38-1.847-.758-3.514-1.867-4.956-3.297z" fill="#fd995b"/></g><g><path d="m186.145 156.509c12.076 11.572 11.707 31.046-.165 42.827s-31.046 11.707-42.827-.165-21.415-21.58-39.983-40.292 36.553-46.855 82.975-2.37z" fill="#fd995b"/></g><g><path d="m170.457 191.985c-5.745 2.354-12.283 1.027-16.657-3.38l-37.196-37.483c.596-.328 1.301-.671 2.128-1.01 10.162-4.163 33.609-5.22 57.033 17.227 2.724 2.61 4.243 6.201 4.277 10.11.036 4.187-1.651 8.283-4.629 11.239-1.441 1.431-3.108 2.54-4.956 3.297z" fill="#ef854b"/></g><g><path d="m256 512c83.18 0 156.665-41.461 200.951-104.835-.001-.009-.001-.017-.002-.026-8.256-22.709-16.99-42.685-24.722-51.911-.904-1.078-1.794-2.019-2.668-2.79-6.623-5.848-19.39-11.382-34.352-16.323-37.928-12.525-89.968-21.232-91.82-21.54h-94.772c-1.853.307-53.892 9.014-91.82 21.54-14.961 4.941-27.729 10.475-34.352 16.323-.874.772-1.765 1.712-2.668 2.79-7.732 9.226-16.467 29.203-24.722 51.911-.001.009-.001.018-.002.026 44.284 63.374 117.769 104.835 200.949 104.835z" fill="#fcad6d"/></g><g><path d="m276.616 369.362s10.767-11.809 23.703-11.809 55.191 11.809 55.191 11.809z" fill="#fd995b"/></g><g><path d="m235.384 369.362s-10.767-11.809-23.703-11.809-55.191 11.809-55.191 11.809z" fill="#fd995b"/></g><g><path d="m208.614 221.239v93.336s19.021 20.093 47.17 20.093c.073 0 .143-.005.216-.005 28.031-.103 47.386-20.088 47.386-20.088v-93.336z" fill="#fcad6d"/></g><g><path d="m208.614 220.734v93.841c94.723 0 94.772-53.4 94.772-53.4v-40.44h-94.772z" fill="#fd995b"/></g><g><path d="m327.049 124.754c-3.509-10.287-9.219-24.496-16.225-32.717-3.978-3.853-8.145-7.046-12.399-9.103-8.195-3.963-15.758-4.069-22.16-2.497-13.314 3.269-27.216 3.268-40.53 0-6.402-1.572-13.966-1.466-22.16 2.497-4.254 2.057-8.421 5.25-12.399 9.103-7.006 8.221-12.716 22.43-16.225 32.717-2.762 8.097-8.72 14.703-16.484 18.295-.031 1.23-.063 2.46-.063 3.705 0 64.505 39.219 140.155 87.597 140.155s87.597-75.651 87.597-140.155c0-1.245-.032-2.475-.063-3.705-7.766-3.592-13.724-10.198-16.486-18.295z" fill="#f9ba8f"/></g><g><path d="m208.403 146.754c0-25.925 6.339-48.917 17.057-67.152-3.755.312-7.739 1.327-11.885 3.333-4.254 2.057-8.421 5.25-12.399 9.103-7.006 8.221-12.716 22.43-16.225 32.717-2.762 8.097-8.72 14.703-16.484 18.295-.031 1.23-.063 2.46-.063 3.705 0 64.505 39.219 140.155 87.597 140.155 6.881 0 13.576-1.535 20-4.346-38.742-16.953-67.598-80.48-67.598-135.81z" fill="#fcad6d"/></g><g><path d="m284.406 276.439c-12.604-3.4-20.319-9.275-24.469-13.422-2.164-2.162-5.71-2.162-7.874 0-4.15 4.146-11.865 10.022-24.469 13.422-2.478.668-4.182 2.975-4.09 5.54.5 14.03 3.221 24.449 5.212 30.332.823 2.431 4.038 2.921 5.553.85 4.511 7.568 10.896 15.092 19.934 21.158 1.082.726 2.513.726 3.595 0 9.039-6.066 15.424-13.59 19.934-21.158 1.515 2.071 4.73 1.581 5.553-.85 1.991-5.882 4.712-16.301 5.212-30.332.091-2.565-1.613-4.871-4.091-5.54z" fill="#b76c4e"/></g><g><path d="m247.508 302.731c-1.511 2.065-4.728 1.585-5.549-.839-1.912-5.647-4.495-15.494-5.14-28.7-2.734 1.208-5.792 2.322-9.225 3.248-2.478.668-4.182 2.975-4.091 5.54.5 14.031 3.221 24.449 5.212 30.332.823 2.431 4.038 2.921 5.553.85 4.51 7.568 10.896 15.092 19.934 21.158 1.082.726 2.513.726 3.595 0 4.284-2.875 7.966-6.081 11.141-9.461-9.832-6.225-16.675-14.151-21.43-22.128z" fill="#a05838"/></g><g><g><path d="m235.384 240.87h41.233c4.111-3.622 7.258-8.309 9.01-13.631 1.584-4.811-2.069-9.754-7.134-9.754h-44.985c-5.065 0-8.718 4.943-7.134 9.754 1.752 5.322 4.899 10.009 9.01 13.631z" fill="#162544"/></g><g><path d="m276.616 240.87c-5.493 4.849-12.714 7.798-20.616 7.798s-15.124-2.948-20.616-7.798c5.5-4.849 12.714-7.798 20.616-7.798s15.116 2.949 20.616 7.798z" fill="#ff4155"/></g></g><g><g><path d="m242.013 192.447 8.436-13.441c2.569-4.093 8.533-4.093 11.102 0l8.436 13.441c2.739 4.365-.398 10.038-5.551 10.038h-16.871c-5.154-.001-8.291-5.674-5.552-10.038z" fill="#fd995b"/></g></g><g><path d="m310.999 162.085c.043-3.495-1.371-7.004-4.242-9.539-4.675-4.128-11.84-4.128-16.515 0-2.871 2.535-4.284 6.044-4.242 9.539.055 4.538 5.629 6.716 8.838 3.507 2.022-2.022 5.3-2.022 7.322 0 3.21 3.21 8.784 1.032 8.839-3.507z" fill="#162544"/></g><g><path d="m201.001 162.085c-.043-3.495 1.371-7.004 4.242-9.539 4.675-4.128 11.84-4.128 16.515 0 2.871 2.535 4.284 6.044 4.242 9.539-.055 4.538-5.629 6.716-8.838 3.507-2.022-2.022-5.3-2.022-7.322 0-3.21 3.21-8.784 1.032-8.839-3.507z" fill="#162544"/></g><g><path d="m91.07 426.843v21.327c7.157 6.519 14.704 12.617 22.599 18.262l-12.035-41.103c-1.75-5.98-10.564-4.716-10.564 1.514z" fill="#fd995b"/></g><g><path d="m420.93 426.843v21.327c-7.157 6.519-14.704 12.617-22.599 18.262l12.035-41.103c1.75-5.98 10.564-4.716 10.564 1.514z" fill="#fd995b"/></g><g><path d="m256 512c27.792 0 54.498-4.635 79.398-13.162l-44.768-7.557c-8.391-1.416-14.967-7.988-16.39-16.378l-12.405-73.165c-.483-2.847-2.949-4.93-5.836-4.93-2.887 0-5.353 2.083-5.836 4.93l-12.405 73.165c-1.423 8.39-7.998 14.961-16.39 16.378l-44.768 7.557c24.902 8.527 51.608 13.162 79.4 13.162z" fill="#fd995b"/></g><g><path d="m193.514 51.316-2.703-2.703c-5.625-5.625-7.59-13.946-5.074-21.494l6.762-20.285c.622-1.866.136-3.923-1.254-5.313-2.028-2.028-5.315-2.028-7.343 0l-14.151 14.151c-16.405 16.405-16.405 43.002 0 59.407 6.562 6.562 17.201 6.562 23.763 0 6.561-6.562 6.561-17.201 0-23.763z" fill="#e9efff"/></g><g><path d="m193.514 51.316-2.703-2.703c-2.791-2.791-4.679-6.247-5.567-9.942.042.438.067.881.067 1.329 0 7.656-6.206 13.862-13.862 13.862-7.23 0-13.161-5.537-13.799-12.602-1.182 12.077 2.851 24.568 12.101 33.818 6.562 6.562 17.201 6.562 23.763 0 6.561-6.561 6.561-17.2 0-23.762z" fill="#dae2fe"/></g><g><path d="m318.486 51.316 2.703-2.703c5.625-5.625 7.59-13.946 5.074-21.494l-6.762-20.285c-.622-1.866-.136-3.923 1.254-5.313 2.028-2.028 5.315-2.028 7.343 0l14.151 14.151c16.405 16.405 16.405 43.002 0 59.407-6.562 6.562-17.201 6.562-23.763 0-6.561-6.562-6.561-17.201 0-23.763z" fill="#e9efff"/></g><g><path d="m318.486 51.316 2.703-2.703c2.791-2.791 4.679-6.247 5.567-9.942-.042.438-.067.881-.067 1.329 0 7.656 6.206 13.862 13.862 13.862 7.23 0 13.161-5.537 13.799-12.602 1.182 12.077-2.851 24.568-12.101 33.818-6.562 6.562-17.201 6.562-23.763 0-6.562-6.561-6.562-17.2 0-23.762z" fill="#dae2fe"/></g><g><path d="m196 132.917v-.005c0-3.045 1.951-5.736 4.829-6.731 8.513-2.944 16.772-2.959 25.337.003 2.88.996 4.834 3.685 4.834 6.733 0 4.883-4.783 8.211-9.427 6.701-5.247-1.706-10.9-1.706-16.147 0-4.642 1.51-9.426-1.818-9.426-6.701z" fill="#934a2e"/></g><g><path d="m316 132.917v-.005c0-3.045-1.951-5.736-4.829-6.731-8.513-2.944-16.772-2.959-25.337.003-2.88.996-4.834 3.685-4.834 6.733 0 4.883 4.783 8.211 9.427 6.701 5.247-1.706 10.9-1.706 16.147 0 4.643 1.51 9.426-1.818 9.426-6.701z" fill="#934a2e"/></g><g><path d="m256.025 347.592h-.052c-40.789 0-71.553 38.04-61.893 77.669 1.421 5.828 3.645 11.314 6.905 16.163 1.472 2.19 5.057 1.076 6.166-1.87l5.626-14.947s4.86 37.947 40.323 55.719c1.819.912 3.978.912 5.798 0 35.463-17.772 40.323-55.719 40.323-55.719l5.626 14.947c1.109 2.947 4.694 4.06 6.166 1.87 3.247-4.829 5.467-10.293 6.889-16.097 9.715-39.644-21.061-77.735-61.877-77.735z" fill="#a05838"/></g><g><path d="m255.277 424.606-5.626 14.947c-1.109 2.947-4.694 4.06-6.166 1.87-3.26-4.849-5.484-10.335-6.905-16.163-7.89-32.367 11.188-63.669 40.668-74.056-6.614-2.33-13.75-3.612-21.224-3.612h-.052c-40.789 0-71.553 38.04-61.893 77.669 1.421 5.827 3.645 11.314 6.905 16.163 1.472 2.19 5.057 1.076 6.166-1.87l5.626-14.947s4.86 37.947 40.323 55.719c1.819.912 3.978.912 5.798 0 7.366-3.692 13.395-8.259 18.351-13.17-18.903-18.735-21.971-42.55-21.971-42.55z" fill="#934a2e"/></g></g></svg>