<svg id="Capa_1" enable-background="new 0 0 512 512" height="512" viewBox="0 0 512 512" width="512" xmlns="http://www.w3.org/2000/svg"><g><g><path d="m476.892 373.106c15.45-32.104 24.108-68.094 24.108-106.106 0-135.31-109.69-245-245-245s-245 109.69-245 245c0 38.012 8.658 74.002 24.108 106.106z" fill="#ffdd40"/></g><g><circle cx="256" cy="242" fill="#ffc839" r="200"/></g><g><path d="m262.53 511.912c94.517-2.473 175.704-58.474 214.362-138.806 3.74-17.764 7.01-49.908-10.23-74.106-14.689-20.617-35.602-29.957-50.426-34.158-10.729-3.041-20.047-9.587-26.737-18.509-24.349-32.474-72.372-45.375-72.372-45.375h-122.255s-48.023 12.902-72.372 45.375c-6.69 8.922-16.008 15.469-26.737 18.509-14.823 4.201-35.736 13.541-50.425 34.158-17.24 24.198-13.97 56.343-10.23 74.106 38.658 80.332 119.845 136.333 214.362 138.806.172.004.345.008.517.012 1.999.048 4.003.076 6.013.076s4.014-.028 6.013-.076c.172-.004.345-.008.517-.012z" fill="#21b75d"/></g><g><path d="m407.103 261.237c-6.885-3.532-12.897-8.626-17.604-14.904-24.349-32.474-72.372-45.375-72.372-45.375h-122.255s-48.023 12.902-72.372 45.375c-4.707 6.277-10.719 11.372-17.604 14.904 37.383-12.42 94.596-4.802 136.126 42.845 7.893 9.055 22.063 9.055 29.956 0 41.529-47.647 98.743-55.266 136.125-42.845z" fill="#14a34d"/></g><g><path d="m316.329 85.817c-6.787 15.286.937 33.167 16.389 39.567s33.167-.937 39.567-16.389 11.635-28.088 21.722-52.443c10.088-24.354-51.587-29.499-77.678 29.265z" fill="#21b75d"/></g><g><path d="m195.671 85.817c6.787 15.286-.937 33.167-16.389 39.567s-33.167-.937-39.567-16.389-11.635-28.088-21.722-52.443c-10.088-24.354 51.587-29.499 77.678 29.265z" fill="#14a34d"/></g><g><path d="m167.705 112.697c-6.209 0-11.756-3.707-14.132-9.442l-20.208-48.787c.676-.078 1.458-.127 2.352-.127 10.981 0 33.079 7.912 46.244 37.563 1.531 3.448 1.575 7.346.125 10.977-1.554 3.888-4.668 7.039-8.544 8.645-1.877.777-3.84 1.171-5.837 1.171z" fill="#0f933e"/></g><g><path d="m338.458 111.526c-3.876-1.605-6.991-4.756-8.544-8.645-1.451-3.631-1.406-7.529.125-10.977 13.165-29.652 35.263-37.563 46.244-37.563.894 0 1.676.05 2.352.127l-20.208 48.787c-2.376 5.736-7.923 9.442-14.132 9.442-1.997 0-3.96-.394-5.837-1.171z" fill="#14a34d"/></g><g><path d="m337.081 174.151c6.166-19.259 9.643-39.776 9.643-59.309 0-66.807-40.619-114.842-90.724-114.842s-90.724 48.035-90.724 114.842c0 19.532 3.477 40.05 9.643 59.309z" fill="#38c674"/></g><g><path d="m206.704 114.842c0-57.305 29.886-100.795 70.01-112.008-6.653-1.859-13.587-2.834-20.714-2.834-50.105 0-90.724 48.035-90.724 114.842 0 19.532 3.477 40.05 9.643 59.309h41.426c-6.166-19.259-9.641-39.776-9.641-59.309z" fill="#21b75d"/></g><g><g><path d="m242.013 101.057 8.436-13.441c2.569-4.093 8.533-4.093 11.102 0l8.436 13.441c2.739 4.365-.398 10.038-5.551 10.038h-16.871c-5.154 0-8.291-5.673-5.552-10.038z" fill="#14a34d"/></g></g><g><circle cx="210.26" cy="86.839" fill="#162544" r="10"/></g><g><circle cx="301.74" cy="86.839" fill="#162544" r="10"/></g><g><path d="m217.978 84.911-19.319-5.176c-4.001-1.072-6.375-5.185-5.303-9.186 1.072-4.001 5.185-6.375 9.186-5.303l19.319 5.176c4.001 1.072 6.375 5.185 5.303 9.186-1.073 4.001-5.185 6.375-9.186 5.303z" fill="#14a34d"/></g><g><path d="m313.341 79.735-19.319 5.176c-4.001 1.072-8.113-1.302-9.186-5.303-1.072-4.001 1.302-8.114 5.303-9.186l19.319-5.176c4.001-1.072 8.114 1.302 9.186 5.303 1.072 4.001-1.302 8.114-5.303 9.186z" fill="#14a34d"/></g><g><path d="m322.263 146.158 3.217-3.217c6.696-6.696 9.034-16.6 6.039-25.583l-8.048-24.145c-.74-2.221-.162-4.669 1.493-6.324 2.414-2.414 6.327-2.414 8.74 0l16.843 16.843c19.526 19.526 19.526 51.184 0 70.711-7.81 7.81-20.474 7.81-28.284 0-7.81-7.811-7.81-20.474 0-28.285z" fill="#e9efff"/></g><g><path d="m189.737 146.158-3.217-3.217c-6.696-6.696-9.034-16.6-6.039-25.583l8.048-24.145c.74-2.221.162-4.669-1.493-6.324-2.414-2.414-6.327-2.414-8.74 0l-16.843 16.843c-19.526 19.526-19.526 51.184 0 70.711 7.81 7.81 20.474 7.81 28.284 0 7.81-7.811 7.81-20.474 0-28.285z" fill="#e9efff"/></g><g><path d="m220.863 249.015h70.273c35.823 0 64.863-29.04 64.863-64.863 0-14.348-9.181-27.086-22.792-31.623-50.116-16.705-104.299-16.705-154.415 0-13.611 4.536-22.792 17.274-22.792 31.622 0 35.823 29.04 64.864 64.863 64.864z" fill="#49d88b"/></g><g><g><path d="m279.892 49.141c-16.622-4.467-31.235-4.448-47.783-.001-3.636.977-7.436-.872-8.854-4.361-.017-.042-.034-.084-.051-.126-1.667-4.1.588-8.779 4.857-9.945 19.308-5.272 36.57-5.272 55.878 0 4.269 1.166 6.524 5.845 4.857 9.945-.017.042-.034.084-.051.126-1.418 3.489-5.217 5.339-8.853 4.362z" fill="#14a34d"/></g></g><g><path d="m209.203 144.538c-10.255 2.003-20.414 4.659-30.41 7.991-13.612 4.536-22.793 17.274-22.793 31.622 0 35.823 29.04 64.864 64.863 64.864h70.273c-46.203-15.943-75.582-52.993-81.933-104.477z" fill="#38c674"/></g><g><path d="m405.355 398.602-21.329 30.296c-4.164 5.915-10.946 9.434-18.18 9.434h-71.621c-10.497 0-19.564-7.342-21.747-17.609l-9.764-45.924c-.674-3.17-3.473-5.437-6.714-5.437-3.241 0-6.04 2.267-6.714 5.437l-9.764 45.924c-2.183 10.268-11.25 17.609-21.747 17.609h-71.621c-7.234 0-14.016-3.519-18.18-9.434l-21.329-30.296c-4.622-6.566-14.827-1.215-12.055 6.321l10.512 28.581c1.34 3.644 1.591 7.599.721 11.383l-3.052 13.281c15.094 12.114 31.653 22.476 49.369 30.781l-.826-4.518c-2.495-13.654 7.991-26.231 21.871-26.231h44.588c10.497 0 19.564 7.342 21.747 17.609l7.659 36.022c.763.027 1.525.06 2.29.08.172.004.345.008.517.012 2 .049 4.004.077 6.014.077s4.014-.028 6.013-.076c.172-.004.344-.007.517-.012.765-.02 1.526-.053 2.29-.08l7.659-36.022c2.183-10.268 11.25-17.609 21.747-17.609h44.588c13.88 0 24.366 12.577 21.871 26.231l-.826 4.518c17.717-8.305 34.275-18.667 49.369-30.781l-3.052-13.281c-.87-3.784-.619-7.739.721-11.383l10.512-28.581c2.773-7.537-7.432-12.888-12.054-6.322z" fill="#14a34d"/></g></g></svg>