<svg id="Capa_1" enable-background="new 0 0 512 512" height="512" viewBox="0 0 512 512" width="512" xmlns="http://www.w3.org/2000/svg"><g><g><path d="m456.969 407.139c27.744-39.712 44.031-88.02 44.031-140.139 0-135.31-109.69-245-245-245s-245 109.69-245 245c0 52.119 16.287 100.427 44.031 140.139z" fill="#73c3f9"/></g><g><circle cx="256" cy="242" fill="#4fabf7" r="200"/></g><g><g><path d="m157.227 106.528h15.58v349.793h-15.58z" fill="#bec8f7"/></g><g><path d="m339.193 106.528h15.58v349.793h-15.58z" fill="#bec8f7" transform="matrix(-1 0 0 -1 693.966 562.849)"/></g><g><path d="m398.814 109.511h-285.628c-7.17 0-12.983-5.813-12.983-12.983 0-7.17 5.813-12.983 12.983-12.983h285.629c7.17 0 12.983 5.813 12.983 12.983 0 7.171-5.813 12.983-12.984 12.983z" fill="#ffb332"/></g><g><path d="m133.815 93.545c1.451-5.127 2.483-9.853 3.16-14.208 2.03-13.056-8.295-24.435-21.508-24.333-.434.003-.87-.003-1.308-.02-13.963-.541-25.493-11.786-26.356-25.733-.987-15.982 11.681-29.251 27.449-29.251 50.916 0 60.463 50.054 51.712 93.015-8.751 42.96-45.347 124.152-56.485 177.035-11.139 52.882 34.871 150.736 145.521 150.736s156.66-97.854 145.522-150.737-47.734-134.074-56.485-177.035c-8.674-42.584.63-92.137 50.382-93.003 15.537-.27 28.842 11.969 28.832 27.509-.01 15.181-12.319 27.484-27.502 27.484-.074 0-.149 0-.223-.001-13.224-.105-23.53 11.384-21.482 24.449.677 4.323 1.704 9.011 3.142 14.093 15.911 56.22 85.39 138.693 75.048 235.751-10.343 97.059-104.087 160.704-197.234 160.704s-186.891-63.645-197.233-160.704 59.137-179.531 75.048-235.751z" fill="#ffdd40"/></g><g><path d="m221.393 455.393c0-19.113 15.494-34.607 34.607-34.607-110.65 0-156.66-97.854-145.522-150.737s47.734-134.074 56.485-177.035c8.674-42.584-.63-92.137-50.382-93.003-15.537-.27-28.842 11.97-28.832 27.509.01 15.18 12.319 27.484 27.502 27.484.074 0 .149 0 .223-.001 13.224-.105 23.53 11.384 21.482 24.449-.678 4.323-1.704 9.011-3.142 14.093-15.911 56.22-85.39 138.693-75.048 235.751 10.343 97.059 104.087 160.704 197.234 160.704-19.113 0-34.607-15.494-34.607-34.607z" fill="#ffc839"/></g><g><path d="m133.815 93.545c10.862-28.218 21.492-93.759-17.906-93.528-15.246.089-28.169 12.189-28.159 27.504.01 15.18 12.319 27.484 27.502 27.484.074 0 .149 0 .223-.001 13.224-.105 23.53 11.384 21.482 24.449-.677 4.322-1.704 9.01-3.142 14.092z" fill="#ffb332"/></g><g><path d="m378.185 93.545c-10.862-28.218-21.492-93.759 17.906-93.528 15.246.089 28.169 12.19 28.159 27.504-.01 15.18-12.319 27.484-27.502 27.484-.074 0-.149 0-.223-.001-13.224-.105-23.53 11.384-21.482 24.449.677 4.322 1.704 9.01 3.142 14.092z" fill="#ffc839"/></g></g><g><path d="m141 115c0 6.055 1.989 11.644 5.349 16.152 2.306 3.094 3.155 7.042 2.196 10.779-.974 3.796-1.13 7.825-.362 11.814h215.634c.769-3.989.612-8.019-.362-11.814-.959-3.738-.11-7.685 2.196-10.779 3.36-4.508 5.349-10.097 5.349-16.152 0-6.053-1.988-11.641-5.346-16.148-2.33-3.128-3.123-7.114-2.167-10.895 1.378-5.449 1.075-11.373-1.241-16.965s-6.291-9.994-11.119-12.873c-3.35-1.998-5.608-5.377-6.172-9.237-.813-5.562-3.359-10.919-7.639-15.199s-9.637-6.826-15.198-7.639c-3.86-.564-7.239-2.822-9.237-6.172-2.879-4.827-7.281-8.802-12.873-11.119-5.592-2.316-11.516-2.618-16.965-1.241-3.782.956-7.767.163-10.895-2.167-4.507-3.357-10.095-5.345-16.148-5.345s-11.641 1.988-16.148 5.346c-3.128 2.33-7.114 3.123-10.895 2.167-5.449-1.378-11.373-1.076-16.965 1.241-5.592 2.316-9.994 6.291-12.873 11.119-1.998 3.35-5.377 5.608-9.237 6.172-5.562.813-10.919 3.359-15.198 7.639-4.28 4.28-6.826 9.637-7.639 15.199-.564 3.86-2.822 7.239-6.172 9.237-4.827 2.879-8.802 7.281-11.119 12.873-2.316 5.592-2.618 11.516-1.241 16.965.956 3.782.163 7.767-2.167 10.895-3.358 4.506-5.346 10.094-5.346 16.147z" fill="#b76c4e"/></g><g><path d="m227.022 141.932c.959-3.738.11-7.685-2.196-10.78-3.36-4.508-5.349-10.098-5.349-16.152 0-6.053 1.988-11.641 5.346-16.148 2.33-3.128 3.123-7.114 2.167-10.895-1.378-5.449-1.076-11.373 1.241-16.965s6.291-9.994 11.119-12.873c3.35-1.998 5.608-5.377 6.172-9.237.813-5.562 3.359-10.918 7.639-15.198s9.637-6.826 15.198-7.639c3.86-.564 7.239-2.822 9.237-6.172 2.879-4.827 7.281-8.802 12.873-11.119 1.57-.65 3.166-1.125 4.77-1.465-4.111-.872-8.275-.766-12.195.224-3.782.956-7.767.163-10.895-2.167-4.508-3.358-10.096-5.346-16.149-5.346s-11.641 1.988-16.148 5.346c-3.128 2.33-7.114 3.123-10.895 2.167-5.449-1.378-11.373-1.076-16.965 1.241-5.592 2.316-9.994 6.291-12.873 11.119-1.998 3.35-5.377 5.608-9.237 6.172-5.562.812-10.919 3.359-15.198 7.639-4.28 4.28-6.826 9.637-7.639 15.198-.564 3.86-2.822 7.239-6.172 9.237-4.827 2.879-8.802 7.281-11.119 12.873-2.316 5.592-2.618 11.516-1.241 16.965.956 3.782.163 7.767-2.167 10.895-3.358 4.507-5.346 10.095-5.346 16.148 0 6.055 1.989 11.645 5.349 16.152 2.306 3.094 3.155 7.042 2.196 10.78-.974 3.796-1.13 7.825-.362 11.814h78.477c-.768-3.989-.612-8.018.362-11.814z" fill="#a05838"/></g><g><path d="m456.949 407.139c-8.256-22.709-16.99-42.685-24.722-51.911-.904-1.078-1.794-2.019-2.668-2.79-6.623-5.848-19.39-11.382-34.352-16.323-37.928-12.525-89.968-21.232-91.82-21.54h-94.772c-1.853.307-53.892 9.014-91.82 21.54-14.961 4.941-27.729 10.475-34.352 16.323-.874.772-1.765 1.712-2.668 2.79-7.732 9.226-16.467 29.203-24.722 51.911-.001.009-.001.018-.002.026 16.031 22.94 35.89 43.006 58.647 59.276 1.161.43 90.268 33.27 219.085 33.27l.001.006c50.749-16.739 94.163-49.613 124.169-92.552-.003-.008-.003-.017-.004-.026z" fill="#f3d6ac"/></g><g><path d="m420.93 426.843v21.327c-7.157 6.519-14.704 12.617-22.599 18.262l12.035-41.103c1.75-5.98 10.564-4.716 10.564 1.514z" fill="#eabe8d"/></g><g><path d="m212.324 490.14c-59.24-43.55-70.829-123.102-72.894-160.701-7.761 2.068-15.452 4.303-22.637 6.676-14.961 4.941-27.729 10.475-34.352 16.323-.874.772-1.765 1.712-2.668 2.79-7.732 9.226-16.467 29.203-24.722 51.911-.001.009-.001.018-.002.026 16.031 22.94 35.89 43.006 58.647 59.276.747.277 37.905 13.967 98.628 23.699z" fill="#eabe8d"/></g><g><path d="m274.241 474.903-12.405-73.165c-.483-2.847-2.949-4.93-5.836-4.93-2.887 0-5.353 2.083-5.836 4.93l-12.405 73.165z" fill="#eabe8d"/></g><g><path d="m208.614 221.239v93.336s19.021 20.093 47.17 20.093c.073 0 .143-.005.216-.005 28.031-.103 47.386-20.088 47.386-20.088v-93.336z" fill="#f3d6ac"/></g><g><path d="m208.614 220.734v93.841c94.723 0 94.772-53.4 94.772-53.4v-40.44h-94.772z" fill="#eabe8d"/></g><g><path d="m220.83 421.448-35.216-112.753c-8.351 1.651-17.936 3.655-27.004 5.738-2.151.494-5.779 1.376-9.33 2.25-5.713 1.406-9.624 6.708-9.205 12.577 4.604 64.526-26.247 136.799-26.402 137.163 40.116 28.688 89.246 45.577 142.327 45.577 14.994 0 29.671-1.353 43.922-3.933z" fill="#e9efff"/></g><g><path d="m113.673 466.422c40.116 28.689 89.246 45.578 142.327 45.578-88.642-27.558-110.344-118.029-115.464-168.493-.211 60.465-26.719 122.578-26.863 122.915z" fill="#dae2fe"/></g><g><path d="m332.781 499.711c-80.549-29.757-123.89-123.947-123.89-185.136 0-5.321-4.812-9.344-10.048-8.396-3.725.675-8.259 1.532-13.23 2.515v18.167c0 58.715 39.913 147.804 114.308 181.206 11.241-2.034 22.21-4.844 32.86-8.356z" fill="#fff"/></g><g><path d="m91.07 426.843v21.327c7.157 6.519 14.704 12.617 22.599 18.262l-12.035-41.103c-1.75-5.98-10.564-4.716-10.564 1.514z" fill="#d8a97c"/></g><g><path d="m331.058 159.567s10.385-25.285 28.897-19.415-.448 60.664-36.573 64.116z" fill="#f3d6ac"/></g><g><path d="m180.942 159.567s-10.385-25.285-28.897-19.415.448 60.664 36.573 64.116z" fill="#eabe8d"/></g><g><path d="m327.049 124.754c-3.509-10.287-9.219-24.496-16.225-32.717-3.978-3.853-8.145-7.046-12.399-9.103-8.195-3.963-15.758-4.069-22.16-2.497-13.314 3.269-27.216 3.268-40.53 0-6.402-1.572-13.966-1.466-22.16 2.497-4.254 2.057-8.421 5.25-12.399 9.103-7.006 8.221-12.716 22.43-16.225 32.717-2.762 8.097-8.72 14.703-16.484 18.295-.031 1.23-.063 2.46-.063 3.705 0 64.505 39.219 140.155 87.597 140.155s87.597-75.651 87.597-140.155c0-1.245-.032-2.475-.063-3.705-7.766-3.592-13.724-10.198-16.486-18.295z" fill="#f8e6cc"/></g><g><path d="m208.403 146.754c0-25.925 6.339-48.917 17.057-67.152-3.755.312-7.739 1.327-11.885 3.333-4.254 2.057-8.421 5.25-12.399 9.103-7.006 8.221-12.716 22.43-16.225 32.717-2.762 8.097-8.72 14.703-16.484 18.295-.031 1.23-.063 2.46-.063 3.705 0 64.505 39.219 140.155 87.597 140.155 6.881 0 13.576-1.535 20-4.346-38.742-16.953-67.598-80.48-67.598-135.81z" fill="#f3d6ac"/></g><g><g><path d="m235.384 240.87h41.233c4.111-3.622 7.258-8.309 9.01-13.631 1.584-4.811-2.069-9.754-7.134-9.754h-44.985c-5.065 0-8.718 4.943-7.134 9.754 1.752 5.322 4.899 10.009 9.01 13.631z" fill="#162544"/></g><g><path d="m276.616 240.87c-5.493 4.849-12.714 7.798-20.616 7.798s-15.124-2.948-20.616-7.798c5.5-4.849 12.714-7.798 20.616-7.798s15.116 2.949 20.616 7.798z" fill="#ff4155"/></g></g><g><g><path d="m242.013 192.447 8.436-13.441c2.569-4.093 8.533-4.093 11.102 0l8.436 13.441c2.739 4.365-.398 10.038-5.551 10.038h-16.871c-5.154-.001-8.291-5.674-5.552-10.038z" fill="#eabe8d"/></g></g><g><path d="m201.001 162.085c-.043-3.495 1.371-7.004 4.242-9.539 4.675-4.128 11.84-4.128 16.515 0 2.871 2.535 4.284 6.044 4.242 9.539-.055 4.538-5.629 6.716-8.838 3.507-2.022-2.022-5.3-2.022-7.322 0-3.21 3.21-8.784 1.032-8.839-3.507z" fill="#162544"/></g><g><path d="m310.999 162.085c.043-3.495-1.371-7.004-4.242-9.539-4.675-4.128-11.84-4.128-16.515 0-2.871 2.535-4.284 6.044-4.242 9.539.055 4.538 5.629 6.716 8.838 3.507 2.022-2.022 5.3-2.022 7.322 0 3.21 3.21 8.784 1.032 8.839-3.507z" fill="#162544"/></g><g><path d="m196 132.917v-.005c0-3.045 1.951-5.736 4.829-6.731 8.513-2.944 16.772-2.959 25.337.003 2.88.996 4.834 3.685 4.834 6.733 0 4.883-4.783 8.211-9.427 6.701-5.247-1.706-10.9-1.706-16.147 0-4.642 1.51-9.426-1.818-9.426-6.701z" fill="#934a2e"/></g><g><path d="m316 132.917v-.005c0-3.045-1.951-5.736-4.829-6.731-8.513-2.944-16.772-2.959-25.337.003-2.88.996-4.834 3.685-4.834 6.733 0 4.883 4.783 8.211 9.427 6.701 5.247-1.706 10.9-1.706 16.147 0 4.643 1.51 9.426-1.818 9.426-6.701z" fill="#934a2e"/></g><g><g><path d="m133.227 105.006c7.762 13.445 18.61 23.215 29.383 27.69 1.511-11.567-1.526-25.847-9.289-39.292-6.604-11.439-15.442-20.218-24.568-25.339-2.316-1.3-5.155.34-5.188 2.995-.126 10.463 3.058 22.506 9.662 33.946z" fill="#38c674"/></g></g><g><g><path d="m145.864 76.873c0 22.41 6.509 42.453 16.747 55.823 10.238-13.369 16.747-33.413 16.747-55.823 0-19.067-4.712-36.421-12.423-49.408-1.957-3.296-6.69-3.296-8.647 0-7.712 12.988-12.424 30.342-12.424 49.408z" fill="#49d88b"/></g></g><g><g><path d="m378.773 105.006c-7.762 13.445-18.61 23.215-29.383 27.69-1.511-11.567 1.526-25.847 9.289-39.292 6.604-11.439 15.443-20.218 24.568-25.339 2.316-1.3 5.155.34 5.188 2.995.126 10.463-3.058 22.506-9.662 33.946z" fill="#38c674"/></g></g><g><g><path d="m366.136 76.873c0 22.41-6.509 42.453-16.747 55.823-10.238-13.369-16.747-33.413-16.747-55.823 0-19.067 4.712-36.421 12.423-49.408 1.957-3.296 6.69-3.296 8.647 0 7.712 12.988 12.424 30.342 12.424 49.408z" fill="#49d88b"/></g></g></g></svg>