<svg id="Capa_1" enable-background="new 0 0 512 512" height="512" viewBox="0 0 512 512" width="512" xmlns="http://www.w3.org/2000/svg"><g><g><path d="m476.892 373.106c15.45-32.104 24.108-68.094 24.108-106.106 0-135.31-109.69-245-245-245s-245 109.69-245 245c0 38.012 8.658 74.002 24.108 106.106z" fill="#2d3c6b"/></g><g><circle cx="256" cy="242" fill="#213159" r="200"/></g><g><g><g><path d="m193.844 59.717s-31.288-39.302-67.718-58.791c-4.713-2.522-10.514.352-11.308 5.639-3.536 23.536-3.773 80.463 75.448 84.547z" fill="#acbbef"/></g><g><path d="m125.621 13.943c-1.026 11.666-.272 28.408 9.202 41.747 8.818 12.415 23.999 20.088 45.208 22.876z" fill="#94a9e0"/></g></g><g><g><path d="m318.156 59.717s31.288-39.302 67.718-58.791c4.713-2.522 10.514.352 11.308 5.639 3.536 23.536 3.773 80.463-75.448 84.547z" fill="#bec8f7"/></g><g><path d="m386.379 13.943c1.026 11.666.272 28.408-9.202 41.747-8.818 12.415-23.999 20.088-45.208 22.876z" fill="#acbbef"/></g></g></g><g><path d="m262.53 511.912c94.517-2.473 175.704-58.474 214.362-138.806 3.74-17.764 7.01-49.908-10.23-74.106-14.689-20.617-35.602-29.957-50.426-34.158-10.729-3.041-20.047-9.587-26.737-18.509-24.349-32.474-72.372-45.375-72.372-45.375h-122.255s-48.023 12.902-72.372 45.375c-6.69 8.922-16.008 15.469-26.737 18.509-14.823 4.201-35.736 13.541-50.425 34.158-17.24 24.198-13.97 56.343-10.23 74.106 38.658 80.332 119.845 136.333 214.362 138.806.172.004.345.008.517.012 1.999.048 4.003.076 6.013.076s4.014-.028 6.013-.076c.172-.004.345-.008.517-.012z" fill="#94a9e0"/></g><g><path d="m407.103 261.237c-6.885-3.532-12.897-8.626-17.604-14.904-24.349-32.474-72.372-45.375-72.372-45.375h-122.255s-48.023 12.902-72.372 45.375c-4.707 6.277-10.719 11.372-17.604 14.904 37.383-12.42 94.596-4.802 136.126 42.845 7.893 9.055 22.063 9.055 29.956 0 41.529-47.647 98.743-55.266 136.125-42.845z" fill="#819bd3"/></g><g><path d="m405.355 398.602-21.329 30.296c-4.164 5.915-10.946 9.434-18.18 9.434h-71.621c-10.497 0-19.564-7.342-21.747-17.609l-9.764-45.924c-.674-3.17-3.473-5.437-6.714-5.437-3.241 0-6.04 2.267-6.714 5.437l-9.764 45.924c-2.183 10.268-11.25 17.609-21.747 17.609h-71.621c-7.234 0-14.016-3.519-18.18-9.434l-21.329-30.296c-4.622-6.566-14.827-1.215-12.055 6.321l10.512 28.581c1.34 3.644 1.591 7.599.721 11.383l-3.052 13.281c15.094 12.114 31.653 22.476 49.369 30.781l-.826-4.518c-2.495-13.654 7.991-26.231 21.871-26.231h44.588c10.497 0 19.564 7.342 21.747 17.609l7.659 36.022c.763.027 1.525.06 2.29.08.172.004.345.008.517.012 2 .049 4.004.077 6.014.077s4.014-.028 6.013-.076c.172-.004.344-.007.517-.012.765-.02 1.526-.053 2.29-.08l7.659-36.022c2.183-10.268 11.25-17.609 21.747-17.609h44.588c13.88 0 24.366 12.577 21.871 26.231l-.826 4.518c17.717-8.305 34.275-18.667 49.369-30.781l-3.052-13.281c-.87-3.784-.619-7.739.721-11.383l10.512-28.581c2.773-7.537-7.432-12.888-12.054-6.322z" fill="#819bd3"/></g><g><path d="m159.559 138.167v46.991c0 44.03-24.262 58.328-18.313 96.081.66 4.187 5.966 5.642 8.726 2.425l9.567-11.151s-8.164 29.342 6.285 65.84c1.632 4.121 7.45 4.197 9.224.135l8.065-18.468s-.563 32.654 26.011 58.024c3.051 2.913 8.125.959 8.441-3.247l1.136-15.072s.006.009.018.027c17.445 27.104 57.113 27.104 74.557 0l.018-.027 1.136 15.072c.317 4.206 5.391 6.16 8.441 3.247 26.574-25.371 26.011-58.024 26.011-58.024l8.065 18.468c1.774 4.062 7.592 3.987 9.224-.135 14.45-36.498 6.285-65.84 6.285-65.84l9.567 11.151c2.76 3.217 8.066 1.762 8.726-2.425 5.949-37.753-18.313-52.051-18.313-96.081 0-22.541 0-46.991 0-46.991z" fill="#bec8f7"/></g><g><g><path d="m359.276 93.437c-8.553-25.659-26.03-46.496-48.29-59.53h-109.97c-22.26 13.034-39.737 33.871-48.29 59.53-10.505 39.524 20.067 124.222 103.274 124.222s113.779-84.698 103.276-124.222z" fill="#dae2fe"/></g><g><path d="m201.015 33.907c-22.26 13.034-39.737 33.871-48.29 59.53-3.922 14.757-2.114 35.81 6.017 56.402.802-2.298 2.189-4.421 4.167-6.111 12.863-10.982 33.519-30.896 39.984-50.292 8.556-25.668 26.049-46.498 48.32-59.53h-50.198z" fill="#bec8f7"/></g><g><path d="m324.721 170.848-68.721 46.644-68.721-46.643c-21.563-14.636-34.555-39.545-34.555-66.252v-11.16c-6.465 19.396-27.122 39.309-39.984 50.292-5.834 4.981-6.652 13.7-1.878 19.705l13.056 16.422c-2.034 6.103.268 12.813 5.621 16.381l69.342 46.228c4.687 3.125 10.194 4.792 15.827 4.792h82.585c5.633 0 11.14-1.667 15.827-4.792l69.342-46.228c5.353-3.569 7.655-10.278 5.621-16.381l13.056-16.422c4.774-6.005 3.956-14.724-1.878-19.705-12.863-10.982-33.519-30.896-39.984-50.292v11.16c-.001 26.707-12.993 51.615-34.556 66.251z" fill="#e9efff"/></g><g><path d="m256 19c-19.811 0-38.682 5.36-54.986 14.907-20.48 11.992-16.955 42.678 5.592 50.087 10.63 3.493 18.115 13.037 18.975 24.193l5.714 74.16h49.411l5.714-74.16c.859-11.156 8.345-20.7 18.975-24.193 22.547-7.409 26.073-38.095 5.592-50.087-16.305-9.547-35.176-14.907-54.987-14.907z" fill="#bec8f7"/></g><g><path d="m179.708 196.237c-5.353-3.569-7.655-10.278-5.621-16.381l-13.056-16.422c-4.737-5.958-3.962-14.584 1.749-19.584-6.489-11.781-10.057-25.269-10.057-39.253v-11.16c-6.465 19.396-27.122 39.309-39.984 50.292-5.834 4.981-6.652 13.7-1.878 19.705l13.056 16.422c-2.034 6.103.268 12.813 5.621 16.381l69.342 46.228c4.687 3.125 10.194 4.792 15.827 4.792h50.169c-5.633 0-11.14-1.667-15.827-4.792z" fill="#dae2fe"/></g><g><path d="m206.549 83.973c13.841-31.449 41.64-54.261 74.536-62.046-8.097-1.917-16.502-2.927-25.085-2.927-19.811 0-38.682 5.36-54.986 14.907-20.463 11.982-16.959 42.622 5.535 50.066z" fill="#acbbef"/></g><g><path d="m231.294 182.346h49.411l22.223 23.335c3.487 3.662 4.775 8.896 3.386 13.758l-9.068 31.737c-1.75 6.124-7.348 10.347-13.717 10.347h-55.06c-6.37 0-11.967-4.222-13.717-10.347l-9.068-31.737c-1.389-4.862-.101-10.096 3.386-13.758z" fill="#fff"/></g><g><path d="m285.598 247.257c-12.407 0-22.465-10.058-22.465-22.465 0-3.94-3.194-7.133-7.133-7.133s-7.133 3.193-7.133 7.133c0 12.407-10.058 22.465-22.465 22.465h-12.769l1.12 3.919c1.75 6.125 7.348 10.347 13.717 10.347h55.06c6.369 0 11.967-4.222 13.717-10.347l1.12-3.919z" fill="#e9efff"/></g><g><path d="m256 171.647c-10.559 0-19.772 4.305-24.706 10.7 4.934 6.394 14.146 10.7 24.706 10.7 10.559 0 19.772-4.305 24.706-10.7-4.934-6.395-14.147-10.7-24.706-10.7z" fill="#33223a"/></g></g><g><circle cx="202.26" cy="122.839" fill="#162544" r="10"/></g><g><circle cx="309.74" cy="122.839" fill="#162544" r="10"/></g><g><path d="m209.978 120.911-19.319-5.176c-4.001-1.072-6.375-5.185-5.303-9.186 1.072-4.001 5.185-6.375 9.186-5.303l19.319 5.176c4.001 1.072 6.375 5.185 5.303 9.186-1.073 4.001-5.185 6.375-9.186 5.303z" fill="#acbbef"/></g><g><path d="m321.341 115.735-19.319 5.176c-4.001 1.072-8.113-1.302-9.186-5.303-1.072-4.001 1.302-8.114 5.303-9.186l19.319-5.176c4.001-1.072 8.114 1.302 9.186 5.303 1.072 4.001-1.302 8.114-5.303 9.186z" fill="#acbbef"/></g></g></svg>