<svg id="Capa_1" enable-background="new 0 0 512 512" height="512" viewBox="0 0 512 512" width="512" xmlns="http://www.w3.org/2000/svg"><g><g><path d="m445.935 421.748c34.417-42.19 55.065-96.055 55.065-154.748 0-135.31-109.69-245-245-245s-245 109.69-245 245c0 58.693 20.649 112.558 55.065 154.748z" fill="#ff4155"/></g><g><circle cx="256" cy="242" fill="#e80054" r="200"/></g><g><g><path d="m256 512c76.617 0 145.009-35.177 189.935-90.252 8.202-15.543 11.619-33.277 9.265-50.757-1.35-10.029-4.586-20.269-11.004-29.276-13.123-18.418-31.805-26.762-45.048-30.515-9.585-2.716-17.909-8.565-23.886-16.535-21.752-29.011-64.654-40.536-64.654-40.536h-109.217s-42.901 11.526-64.654 40.536c-5.976 7.97-14.301 13.819-23.885 16.535-13.243 3.753-31.926 12.097-45.049 30.515-6.417 9.007-9.654 19.247-11.004 29.276-2.353 17.48 1.063 35.214 9.266 50.757 44.926 55.075 113.318 90.252 189.935 90.252z" fill="#213159"/></g><g><path d="m390.989 307.979c-6.151-3.155-11.522-7.706-15.726-13.314-21.753-29.011-64.654-40.536-64.654-40.536h-109.218s-42.901 11.526-64.654 40.536c-4.205 5.608-9.576 10.159-15.727 13.314 33.396-11.096 84.508-4.289 121.609 38.276 7.051 8.09 19.71 8.09 26.761 0 37.101-42.566 88.213-49.372 121.609-38.276z" fill="#162544"/></g><g><path d="m389.427 420.695-19.054 27.065c-3.72 5.284-9.779 8.428-16.241 8.428h-63.983c-9.378 0-17.478-6.559-19.428-15.731l-8.723-41.027c-.602-2.832-3.103-4.857-5.998-4.857-2.895 0-5.396 2.025-5.998 4.857l-8.723 41.027c-1.95 9.173-10.05 15.731-19.428 15.731h-63.983c-6.462 0-12.521-3.144-16.241-8.428l-19.054-27.065c-4.13-5.866-13.246-1.086-10.77 5.647l9.391 25.533c1.197 3.255 1.421 6.789.645 10.169l-1.99 8.66c13.247 8.872 27.409 16.481 42.312 22.666.208-10.546 8.83-19.433 19.856-19.433h39.833c9.378 0 17.478 6.559 19.428 15.731l4.701 22.111c3.325.134 6.662.22 10.02.22s6.695-.087 10.02-.22l4.701-22.111c1.95-9.173 10.05-15.731 19.428-15.731h39.833c11.027 0 19.648 8.887 19.856 19.433 14.903-6.185 29.065-13.794 42.312-22.666l-1.99-8.66c-.777-3.38-.553-6.914.645-10.169l9.391-25.533c2.478-6.733-6.638-11.513-10.768-5.647z" fill="#162544"/></g></g><g><path d="m236.55 108.167c-42.521 0-76.991 34.47-76.991 76.991 0 44.03-24.262 58.328-18.313 96.081.66 4.187 5.966 5.642 8.726 2.425l9.567-11.151s-8.164 29.342 6.285 65.84c1.632 4.121 7.45 4.197 9.224.135l8.065-18.468s-.563 32.654 26.011 58.024c3.051 2.913 8.125.959 8.441-3.247l1.136-15.072.018.027c17.437 27.151 57.12 27.151 74.557 0l.018-.027 1.136 15.072c.317 4.206 5.391 6.16 8.441 3.247 26.574-25.371 26.011-58.024 26.011-58.024l8.065 18.468c1.774 4.062 7.592 3.987 9.224-.135 14.45-36.498 6.285-65.84 6.285-65.84l9.567 11.151c2.76 3.217 8.066 1.762 8.726-2.425 5.949-37.753-18.313-52.051-18.313-96.081 0-42.521-34.47-76.991-76.991-76.991z" fill="#2d3c6b"/></g><g><path d="m49.754 39.155c1.493-5.737 7.355-9.176 13.089-7.683l11.66 3.034-9.959-18.736c-2.782-5.234-.793-11.731 4.44-14.513 5.229-2.779 11.731-.794 14.513 4.44l30.097 56.63c4.627 8.707 11.163 16.177 18.98 21.927 11.156-15.412 16.346-34.508 14.35-53.629l-1.398-13.391c-.616-5.895 3.665-11.173 9.559-11.789 5.895-.615 11.173 3.664 11.788 9.559l1.398 13.391c2.428 23.251-3.472 46.474-16.35 65.629.835.259 1.675.506 2.523.731l90.873 24.138c5.729 1.522 9.139 7.399 7.617 13.127-1.023 3.851-4.013 6.653-7.604 7.615-1.751.469-3.646.501-5.524.002l-90.873-24.139c-6.572-1.746-12.868-4.256-18.774-7.438-.339-.165-.672-.348-.996-.551-14.525-8.072-26.618-20.234-34.524-35.111l-6.46-12.154-30.745-8.001c-5.733-1.492-9.173-7.352-7.68-13.088z" fill="#bec8f7"/></g><g><g><path d="m243.47 123.972c2.174-.583 4.184-1.852 5.676-3.764 3.645-4.674 2.811-11.417-1.862-15.062l-22.926-17.882c-5.125-3.998-8.875-9.657-10.557-15.936l-5.118-19.1c-1.534-5.725-7.419-9.123-13.144-7.589s-9.123 7.419-7.589 13.144l5.118 19.1c2.883 10.758 9.307 20.455 18.09 27.305l22.926 17.881c2.761 2.154 6.246 2.745 9.386 1.903z" fill="#acbbef"/></g></g><g><path d="m462.246 39.155c-1.493-5.737-7.355-9.176-13.089-7.683l-11.66 3.034 9.958-18.737c2.782-5.234.793-11.731-4.44-14.513-5.229-2.779-11.731-.794-14.513 4.44l-30.097 56.63c-4.627 8.707-11.163 16.177-18.98 21.927-11.156-15.412-16.346-34.508-14.35-53.629l1.398-13.391c.616-5.895-3.665-11.173-9.559-11.789-5.895-.615-11.173 3.664-11.788 9.559l-1.398 13.391c-2.428 23.251 3.472 46.474 16.35 65.629-.835.259-1.675.506-2.523.731l-90.873 24.138c-5.729 1.522-9.139 7.399-7.617 13.127 1.023 3.851 4.013 6.653 7.604 7.615 1.751.469 3.646.501 5.524.002l90.873-24.139c6.572-1.746 12.867-4.256 18.774-7.438.339-.165.672-.348.996-.551 14.525-8.072 26.618-20.234 34.524-35.111l6.46-12.154 30.745-8.001c5.734-1.491 9.174-7.351 7.681-13.087z" fill="#dae2fe"/></g><g><path d="m379.425 84.253c-11.156-15.412-16.346-34.508-14.35-53.629l1.398-13.391c.616-5.895-3.665-11.173-9.559-11.789-5.895-.615-11.173 3.664-11.788 9.559l-1.399 13.391c-2.428 23.251 3.472 46.474 16.35 65.629-.835.259-1.675.506-2.523.731l-90.873 24.138c-5.729 1.522-9.139 7.399-7.617 13.127 1.023 3.851 4.013 6.653 7.604 7.615 1.751.469 3.646.501 5.524.002l90.873-24.139c6.572-1.746 12.867-4.256 18.774-7.438.339-.165.672-.348.996-.551 3.601-2.001 7.051-4.255 10.326-6.738-7.945.035-15.62-6.965-13.736-16.517z" fill="#bec8f7"/></g><g><path d="m132.575 84.253c11.156-15.412 16.346-34.508 14.35-53.629l-1.398-13.391c-.616-5.895 3.665-11.173 9.559-11.789 5.895-.615 11.173 3.664 11.788 9.559l1.399 13.391c2.428 23.251-3.472 46.474-16.35 65.629.835.259 1.675.506 2.523.731l90.873 24.138c5.729 1.522 9.139 7.399 7.617 13.127-1.023 3.851-4.013 6.653-7.604 7.615-1.751.469-3.646.501-5.524.002l-90.873-24.139c-6.572-1.746-12.867-4.256-18.774-7.438-.339-.165-.672-.348-.996-.551-3.601-2.001-7.051-4.255-10.326-6.738 7.945.035 15.62-6.965 13.736-16.517z" fill="#acbbef"/></g><g><g><path d="m268.53 123.972c-2.174-.583-4.184-1.852-5.676-3.764-3.645-4.674-2.811-11.417 1.862-15.062l22.926-17.882c5.125-3.998 8.875-9.657 10.557-15.936l5.118-19.1c1.534-5.725 7.419-9.123 13.144-7.589s9.123 7.419 7.589 13.144l-5.118 19.1c-2.883 10.758-9.307 20.455-18.09 27.305l-22.926 17.881c-2.761 2.154-6.246 2.745-9.386 1.903z" fill="#bec8f7"/></g></g><g><path d="m229.768 76.336h52.462c31.298 8.687 53.769 32.481 53.769 60.476v67.753c0 6.528-2.593 12.789-7.21 17.406l-35.457 35.457h-74.667l-35.457-35.457c-4.616-4.616-7.21-10.877-7.21-17.406v-67.753c0-27.995 22.472-51.788 53.77-60.476z" fill="#e9efff"/></g><g><path d="m212.941 204.565v-67.753c0-27.997 22.474-51.791 53.775-60.476h-36.949c-31.298 8.687-53.769 32.481-53.769 60.476v67.753c0 6.528 2.593 12.789 7.21 17.406l35.457 35.457h36.943l-35.457-35.457c-4.616-4.616-7.21-10.877-7.21-17.406z" fill="#dae2fe"/></g><g><path d="m223.896 247.517h12.841v30.503c0 3.546-2.875 6.42-6.42 6.42-3.546 0-6.42-2.875-6.42-6.42v-30.503z" fill="#acbbef"/></g><g><path d="m249.578 247.517h12.841v30.503c0 3.546-2.875 6.42-6.42 6.42-3.546 0-6.42-2.875-6.42-6.42v-30.503z" fill="#bec8f7"/></g><g><path d="m275.26 247.517h12.84v30.503c0 3.546-2.875 6.42-6.42 6.42-3.546 0-6.42-2.875-6.42-6.42z" fill="#bec8f7"/></g><g><path d="m308.903 221.484-6.861 27.237-2.006 7.957c-1.378 5.465-6.295 9.298-11.939 9.298h-64.197c-5.643 0-10.56-3.834-11.938-9.298l-2.006-7.957-6.862-27.237c-1.151-4.579.412-9.409 4.031-12.443l22.176-18.593c3.141-2.633 5.101-6.412 5.446-10.496l3.686-43.69c.738-8.749-4.059-17.029-12.015-20.741-17.51-8.169-15.612-33.844 2.985-39.086 8.321-2.345 17.272-3.621 26.597-3.621s18.277 1.276 26.597 3.621c18.597 5.242 20.495 30.918 2.985 39.086-7.957 3.712-12.753 11.992-12.015 20.741l3.686 43.69c.345 4.084 2.305 7.862 5.446 10.496l22.176 18.593c3.616 3.034 5.179 7.865 4.028 12.443z" fill="#dae2fe"/></g><g><path d="m274.439 74.536c-5.922-1.118-12.092-1.723-18.441-1.723-9.325 0-18.277 1.276-26.597 3.621-15.804 4.455-19.54 23.662-9.56 34.345 10.031-17.999 30.143-31.61 54.598-36.243z" fill="#bec8f7"/></g><g><path d="m234.71 254.826-13.064-45.725c-1.497-5.24-.109-10.881 3.65-14.827l2.207-2.318-20.38 17.089c-3.615 3.031-5.18 7.863-4.027 12.438l8.867 35.194c1.378 5.468 6.296 9.301 11.935 9.301h25.596c-6.865-.001-12.898-4.552-14.784-11.152z" fill="#bec8f7"/></g><g><ellipse cx="307.742" cy="155.004" fill="#94a9e0" rx="10" ry="17.5" transform="matrix(.966 -.259 .259 .966 -29.632 84.931)"/></g><g><ellipse cx="204.258" cy="155.004" fill="#94a9e0" rx="17.5" ry="10" transform="matrix(.259 -.966 .966 .259 1.67 312.185)"/></g><g><g><path d="m278.5 228.028c-3.996 0-7.993-1.521-11.035-4.562-1.953-1.952-1.953-5.118-.001-7.071 1.953-1.953 5.118-1.952 7.071-.001 2.186 2.186 5.744 2.186 7.93 0 1.953-1.953 5.118-1.952 7.071.001 1.952 1.953 1.952 5.119-.001 7.071-3.042 3.041-7.039 4.562-11.035 4.562z" fill="#acbbef"/></g><g><path d="m233.5 228.028c-3.996 0-7.993-1.521-11.035-4.562-1.953-1.952-1.953-5.118-.001-7.071 1.953-1.953 5.118-1.952 7.071-.001 2.186 2.186 5.744 2.186 7.93 0 1.953-1.953 5.118-1.952 7.071.001 1.952 1.953 1.952 5.119-.001 7.071-3.042 3.041-7.039 4.562-11.035 4.562z" fill="#acbbef"/></g></g></g></svg>