<svg id="Capa_1" enable-background="new 0 0 512 512" height="512" viewBox="0 0 512 512" width="512" xmlns="http://www.w3.org/2000/svg"><g><g><path d="m35.108 373.106c-15.45-32.104-24.108-68.094-24.108-106.106 0-135.31 109.69-245 245-245s245 109.69 245 245c0 38.012-8.658 74.002-24.108 106.106z" fill="#ff4155"/></g><g><path d="m145.914 104.651.005-.016 110.081 16.034 110.082-16.033.007.003c4.526-30.976 14.852-38.17 14.852-38.17-25.381-32.584-78.649-55.503-124.941-55.503s-99.56 22.919-124.941 55.502c0 0 10.33 7.197 14.855 38.183z" fill="#4fabf7"/></g><g><circle cx="256" cy="242" fill="#e80054" r="200"/></g><g><path d="m262.53 511.912c94.517-2.473 175.704-58.474 214.362-138.806 3.74-17.764 7.01-49.908-10.23-74.106-14.689-20.617-35.602-29.957-50.426-34.158-10.729-3.041-20.047-9.587-26.737-18.509-24.349-32.474-72.372-45.375-72.372-45.375h-122.255s-48.023 12.902-72.372 45.375c-6.69 8.922-16.008 15.469-26.737 18.509-14.823 4.201-35.736 13.541-50.425 34.158-17.24 24.198-13.97 56.343-10.23 74.106 38.658 80.332 119.845 136.333 214.362 138.806.172.004.345.008.517.012 1.999.048 4.003.076 6.013.076s4.014-.028 6.013-.076c.172-.004.345-.008.517-.012z" fill="#213159"/></g><g><path d="m186.151 338.18c21.969 7.253 45.45 11.182 69.849 11.182s47.88-3.929 69.848-11.182v-125.241h-139.697z" fill="#ff9100"/></g><g><path d="m186.151 308.18v30c21.969 7.253 45.45 11.182 69.849 11.182s47.88-3.929 69.848-11.182v-30c-21.969 7.252-45.449 11.182-69.848 11.182s-47.88-3.929-69.849-11.182z" fill="#ffb332"/></g><g><g><path d="m416.612 325.36 29.025-32.361c-.114-1.046-.285-2.085-.512-3.116-1.085-4.918-3.415-15.37-6.634-29.246l-20.611-16.181 12.927-16.181c-2.49-10.246-5.203-21.173-8.066-32.362l-20.9-16.181 12.354-16.181c-3.018-11.048-6.117-21.963-9.232-32.362l-24.022-16.181 13.611-16.181c-4.754-13.555-9.372-24.833-13.611-32.362l-80.812-23.469v55.834l14.403 16.181-14.403 16.181v32.362l14.403 16.181-14.403 16.181v32.362l14.403 16.181-14.403 16.181v32.362l12.701 16.181-12.701 16.181v32.362l14.403 16.181-14.403 16.181v22.361c0 5.523 4.477 10 10 10h9.399c24.859 0 46.692-12.901 59.212-32.361l-11.782-16.181 22.7-16.181c.149-1.867.246-3.748.246-5.653 0-14.755 11.958-26.713 26.708-26.713z" fill="#ffdd40"/></g><g><path d="m422.74 195.914h-122.612v-32.362h114.066c2.947 10.787 5.815 21.692 8.546 32.362z" fill="#2e8be6"/></g><g><path d="m438.491 260.637h-138.363v-32.361h130.678c2.899 11.928 5.498 22.936 7.685 32.361z" fill="#2e8be6"/></g><g><path d="m300.128 292.999h145.508c.114 1.05.172 2.105.172 3.165 0 16.125-13.072 29.196-29.196 29.196-.005 0-.01 0-.014 0h-116.47z" fill="#2e8be6"/></g><g><path d="m378.739 390.084h-78.611v-32.362h89.529c-.943 11.861-4.822 22.887-10.918 32.362z" fill="#2e8be6"/></g><g><path d="m404.962 131.191h-104.834v-32.361h94.423c3.43 9.779 6.93 20.742 10.411 32.361z" fill="#2e8be6"/></g></g><g><g><path d="m95.388 325.36-29.025-32.361c.114-1.046.285-2.085.512-3.116 1.085-4.918 3.415-15.37 6.634-29.246l20.611-16.181-12.927-16.181c2.49-10.246 5.203-21.173 8.066-32.362l20.9-16.181-12.354-16.181c3.018-11.048 6.117-21.963 9.232-32.362l24.022-16.181-13.61-16.178c4.754-13.555 9.372-24.833 13.611-32.362l80.812-23.469v55.831l-14.403 16.181 14.403 16.181v32.362l-14.403 16.181 14.403 16.181v32.362l-14.403 16.181 14.403 16.181v32.362l-12.702 16.178 12.701 16.181v32.362l-14.403 16.181 14.403 16.181v22.361c0 5.523-4.477 10-10 10h-9.399c-24.859 0-46.692-12.901-59.212-32.361l11.782-16.181-22.7-16.181c-.149-1.867-.246-3.748-.246-5.653 0-14.752-11.958-26.71-26.708-26.71z" fill="#ffc839"/></g><g><path d="m89.26 195.914h122.612v-32.362h-114.066c-2.947 10.787-5.815 21.692-8.546 32.362z" fill="#1a7fd3"/></g><g><path d="m73.509 260.637h138.362v-32.361h-130.677c-2.899 11.928-5.498 22.936-7.685 32.361z" fill="#1a7fd3"/></g><g><path d="m211.872 292.999h-145.509c-.114 1.05-.172 2.105-.172 3.165 0 16.125 13.072 29.196 29.196 29.196h.014 116.469v-32.361z" fill="#1a7fd3"/></g><g><path d="m133.261 390.084h78.611v-32.362h-89.529c.943 11.861 4.822 22.887 10.918 32.362z" fill="#1a7fd3"/></g><g><path d="m107.038 131.191h104.834v-32.361h-94.423c-3.43 9.779-6.93 20.742-10.411 32.361z" fill="#1a7fd3"/></g></g><g><path d="m295.625 75.586v-65.848c0-5.378 4.36-9.738 9.738-9.738 2.442 0 4.789.918 6.59 2.568 10.357 9.492 44.119 45.545 44.119 112.181z" fill="#2d3c6b"/></g><g><path d="m216.375 75.586v-65.848c0-5.378-4.36-9.738-9.738-9.738-2.442 0-4.789.918-6.59 2.568-10.357 9.492-44.119 45.545-44.119 112.181z" fill="#213159"/></g><g><path d="m256 220.495c71.981 0 100.072-58.85 100.072-105.746 0-26.594-16.213-50.154-41.157-64.713h-117.829c-24.945 14.559-41.157 38.119-41.157 64.713-.001 46.897 28.09 105.746 100.071 105.746z" fill="#4b6496"/></g><g><path d="m214.191 212.48c-11.723-14.262-18.212-32.213-18.212-50.835v-46.897c0-26.592 16.207-50.154 41.149-64.713h-40.042c-24.945 14.559-41.157 38.119-41.157 64.713-.001 36.43 16.956 80.065 58.262 97.732z" fill="#3c5082"/></g><g><path d="m310.516 240.362 22.107-22.107c15.014-15.014 23.448-35.377 23.448-56.609v-46.897c0 24.979-12.589 48.276-33.483 61.965l-66.588 43.625-66.589-43.625c-20.894-13.689-33.483-36.986-33.483-61.965v46.897c0 21.233 8.435 41.596 23.448 56.609l22.107 22.107c5.005 5.005 11.792 7.816 18.87 7.816h71.293c7.078 0 13.866-2.811 18.87-7.816z" fill="#3c5082"/></g><g><path d="m219.427 218.255c-9.89-9.89-16.924-22.103-20.574-35.355l-9.442-6.186c-20.894-13.689-33.483-36.986-33.483-61.965v46.897c0 21.233 8.435 41.596 23.448 56.609l22.107 22.107c5.005 5.005 11.792 7.816 18.87 7.816h40.05c-7.078 0-13.865-2.812-18.87-7.816z" fill="#2d3c6b"/></g><g><path d="m232.893 187.468h46.214l20.785 21.825c3.261 3.425 4.466 8.32 3.167 12.867l-8.481 29.683c-1.637 5.728-6.872 9.677-12.83 9.677h-51.497c-5.957 0-11.193-3.949-12.83-9.677l-8.481-29.683c-1.299-4.547-.094-9.443 3.167-12.867z" fill="#2d3c6b"/></g><g><path d="m283.683 248.178c-11.604 0-21.011-9.407-21.011-21.011 0-3.685-2.987-6.671-6.671-6.671-3.685 0-6.671 2.987-6.671 6.671 0 11.604-9.407 21.011-21.011 21.011h-11.942l1.047 3.666c1.637 5.728 6.872 9.677 12.83 9.677h51.497c5.957 0 11.193-3.949 12.829-9.677l1.047-3.666z" fill="#213159"/></g><g><path d="m311.141 92.54c18.977-6.236 21.688-31.849 4.523-42.066-16.658-9.915-37.304-15.782-59.664-15.782s-43.006 5.868-59.665 15.783c-17.165 10.217-14.453 35.83 4.523 42.066 15.357 5.047 26.172 18.836 27.414 34.953l4.621 59.974h46.214l4.621-59.974c1.241-16.118 12.056-29.907 27.413-34.954z" fill="#3c5082"/></g><g><path d="m276.01 36.299c-6.466-1.05-13.156-1.607-20.01-1.607-22.36 0-43.006 5.868-59.665 15.783-16.899 10.058-14.521 35.026 3.666 41.749 10.328-28.231 39.569-50 76.009-55.925z" fill="#2d3c6b"/></g><g><path d="m256 177.461c-9.876 0-18.492 4.027-23.107 10.007 4.615 5.981 13.231 10.007 23.107 10.007s18.492-4.027 23.107-10.007c-4.615-5.981-13.231-10.007-23.107-10.007z" fill="#213159"/></g><g><path d="m405.355 398.602-21.329 30.296c-4.164 5.915-10.946 9.434-18.18 9.434h-71.621c-10.497 0-19.564-7.342-21.747-17.609l-9.764-45.924c-.674-3.17-3.473-5.437-6.714-5.437-3.241 0-6.04 2.267-6.714 5.437l-9.764 45.924c-2.183 10.268-11.25 17.609-21.747 17.609h-71.621c-7.234 0-14.016-3.519-18.18-9.434l-21.329-30.296c-4.622-6.566-14.827-1.215-12.055 6.321l10.512 28.581c1.34 3.644 1.591 7.599.721 11.383l-3.052 13.281c15.094 12.114 31.653 22.476 49.369 30.781l-.826-4.518c-2.495-13.654 7.991-26.231 21.871-26.231h44.588c10.497 0 19.564 7.342 21.747 17.609l7.659 36.022c.763.027 1.525.06 2.29.08.172.004.345.008.517.012 2 .049 4.004.077 6.014.077s4.014-.028 6.013-.076c.172-.004.344-.007.517-.012.765-.02 1.526-.053 2.29-.08l7.659-36.022c2.183-10.268 11.25-17.609 21.747-17.609h44.588c13.88 0 24.366 12.577 21.871 26.231l-.826 4.518c17.717-8.305 34.275-18.667 49.369-30.781l-3.052-13.281c-.87-3.784-.619-7.739.721-11.383l10.512-28.581c2.773-7.537-7.432-12.888-12.054-6.322z" fill="#162544"/></g><g><g><circle cx="199.26" cy="129.839" fill="#162544" r="10"/></g><g><circle cx="312.74" cy="129.839" fill="#162544" r="10"/></g><g><path d="m206.978 127.911-19.319-5.176c-4.001-1.072-6.375-5.185-5.303-9.186 1.072-4.001 5.185-6.375 9.186-5.303l19.319 5.176c4.001 1.072 6.375 5.185 5.303 9.186-1.073 4.001-5.185 6.375-9.186 5.303z" fill="#213159"/></g><g><path d="m324.341 122.735-19.319 5.176c-4.001 1.072-8.113-1.302-9.186-5.303-1.072-4.001 1.302-8.114 5.303-9.186l19.319-5.176c4.001-1.072 8.114 1.302 9.186 5.303 1.072 4.001-1.302 8.114-5.303 9.186z" fill="#213159"/></g></g></g></svg>