<svg id="Capa_1" enable-background="new 0 0 512 512" height="512" viewBox="0 0 512 512" width="512" xmlns="http://www.w3.org/2000/svg"><g><g><path d="m436.08 433.101c40.294-43.663 64.92-102.002 64.92-166.101 0-135.31-109.69-245-245-245s-245 109.69-245 245c0 64.099 24.626 122.438 64.92 166.101z" fill="#49d88b"/></g><g><circle cx="256" cy="242" fill="#38c674" r="200"/></g><g><path d="m289.396 269.855c38.459-82.476 104.826-132.927 148.235-112.685 39.348 18.348 46.325 88.484 18.642 162.874-2.736 7.353-13.398 6.583-15.119-1.072s-6.358 24.736-25.145 56.977l-148.639-39.828c4.236-21.289 11.552-43.805 22.026-66.266z" fill="#213159"/></g><g><path d="m336.712 354.701c37.209-33.346 57.518-74.227 67.797-101.517 1.928-5.119-4.989-8.809-8.184-4.368-21.883 30.419-61.464 78.81-101.556 94.647z" fill="#162544"/></g><g><path d="m437.482 250.085c1.141-5.063 8.53-4.517 8.922.658 1.329 17.533 1.119 41.861-5.252 68.228 0 0-6.358 24.736-25.145 56.977l-38.781-10.391c35.571-27.252 52.801-82.4 60.256-115.472z" fill="#162544"/></g><g><path d="m222.604 269.855c-38.459-82.476-104.826-132.927-148.234-112.685-39.348 18.348-46.325 88.484-18.642 162.874 2.736 7.353 13.398 6.583 15.119-1.072s6.358 24.736 25.145 56.977l148.638-39.827c-4.236-21.29-11.552-43.806-22.026-66.267z" fill="#213159"/></g><g><path d="m175.288 354.701c-37.209-33.346-57.518-74.227-67.797-101.517-1.928-5.119 4.989-8.809 8.184-4.368 21.882 30.419 61.464 78.81 101.556 94.647z" fill="#162544"/></g><g><path d="m74.518 250.085c-1.141-5.063-8.53-4.517-8.922.658-1.329 17.533-1.119 41.861 5.252 68.228 0 0 6.358 24.736 25.145 56.977l38.781-10.391c-35.571-27.252-52.801-82.4-60.256-115.472z" fill="#162544"/></g><g><g><path d="m398.512 333.917c-36.828-17.881-95.126-39.342-95.126-39.342h-94.772s-58.298 21.461-95.126 39.342c-18.076 8.777-30.658 25.967-33.309 45.886-2.264 17.011-3.543 37.399-4.253 53.297 44.761 48.509 108.864 78.9 180.074 78.9s135.312-30.391 180.074-78.899c-.71-15.898-1.99-36.287-4.253-53.297-2.651-19.92-15.233-37.11-33.309-45.887z" fill="#ff4155"/></g></g><g><g><path d="m145.229 319.658c-11.097 4.701-22.147 9.602-31.741 14.259-18.076 8.777-30.658 25.967-33.309 45.886-2.264 17.01-3.543 37.399-4.253 53.297 44.761 48.509 108.864 78.9 180.074 78.9-61.125-25.753-106.23-110.396-110.771-192.342z" fill="#e80054"/></g></g><g><g><path d="m149.958 487.913-19.089-65.199c-1.624-5.546-9.799-4.374-9.799 1.405v47.391c9.213 6.092 18.861 11.579 28.888 16.403z" fill="#cc0053"/></g></g><g><g><path d="m362.042 487.913 19.089-65.199c1.624-5.546 9.799-4.374 9.799 1.405v47.391c-9.213 6.092-18.861 11.579-28.888 16.403z" fill="#e80054"/></g></g><g><g><path d="m303.386 220.734h-94.772v73.841s12.422 20.093 47.17 20.093 47.602-20.093 47.602-20.093z" fill="#ff4155"/></g></g><g><path d="m208.614 220.734v73.841c94.723 0 94.772-53.4 94.772-53.4v-20.44h-94.772z" fill="#e80054"/></g><g><path d="m276.616 369.362s10.767-11.809 23.703-11.809 55.191 11.809 55.191 11.809z" fill="#e80054"/></g><g><path d="m235.384 369.362s-10.767-11.809-23.703-11.809-55.191 11.809-55.191 11.809z" fill="#e80054"/></g><g><path d="m335.879 198.536c-15.608-6.01-22.79-24.115-16.389-39.567 6.4-15.452 24.115-22.79 39.567-16.389 15.452 6.4 28.088 11.635 52.443 21.722 24.354 10.088-15.62 57.337-75.621 34.234z" fill="#ff4155"/></g><g><path d="m176.121 198.536c15.608-6.01 22.79-24.115 16.389-39.567s-24.115-22.79-39.567-16.389c-15.452 6.4-28.088 11.635-52.443 21.722-24.354 10.088 15.62 57.337 75.621 34.234z" fill="#e80054"/></g><g><path d="m178.652 164.709c1.606 3.876 1.58 8.306-.071 12.154-1.542 3.593-4.33 6.318-7.85 7.674-30.276 11.658-51.496 1.627-59.261-6.138-.632-.632-1.15-1.221-1.573-1.753l48.787-20.208c5.736-2.376 12.279-1.074 16.669 3.316 1.412 1.412 2.522 3.079 3.299 4.955z" fill="#cc0053"/></g><g><path d="m336.647 159.754c4.39-4.39 10.934-5.692 16.669-3.316l48.787 20.208c-.423.533-.941 1.121-1.573 1.753-7.765 7.765-28.985 17.796-59.261 6.138-3.52-1.356-6.308-4.081-7.85-7.674-1.651-3.848-1.677-8.278-.071-12.154.777-1.876 1.887-3.543 3.299-4.955z" fill="#e80054"/></g><g><path d="m168.466 146.765c0 64.458 30.193 130.145 87.534 130.145s87.534-65.687 87.534-130.145-39.19-110.805-87.534-110.805-87.534 46.347-87.534 110.805z" fill="#ff596e"/></g><g><path d="m204.207 146.765c0-56.292 29.891-98.768 69.664-108.627-5.769-1.43-11.746-2.177-17.87-2.177-48.344 0-87.534 46.346-87.534 110.804s30.193 130.145 87.533 130.145c6.284 0 12.242-.79 17.87-2.279-45.725-12.105-69.663-70.472-69.663-127.866z" fill="#ff4155"/></g><g><g><path d="m242.013 192.447 8.436-13.441c2.569-4.093 8.533-4.093 11.102 0l8.436 13.441c2.739 4.365-.398 10.038-5.551 10.038h-16.871c-5.154-.001-8.291-5.674-5.552-10.038z" fill="#e80054"/></g></g><g><circle cx="210.26" cy="158.229" fill="#162544" r="10"/></g><g><circle cx="301.74" cy="158.229" fill="#162544" r="10"/></g><g><path d="m217.978 156.301-19.319-5.176c-4.001-1.072-6.375-5.185-5.303-9.186 1.072-4.001 5.185-6.375 9.186-5.303l19.319 5.176c4.001 1.072 6.375 5.185 5.303 9.186-1.073 4-5.185 6.375-9.186 5.303z" fill="#e80054"/></g><g><path d="m313.341 151.124-19.319 5.176c-4.001 1.072-8.113-1.302-9.186-5.303-1.072-4.001 1.302-8.114 5.303-9.186l19.319-5.176c4.001-1.072 8.114 1.302 9.186 5.303 1.072 4.002-1.302 8.114-5.303 9.186z" fill="#e80054"/></g><g><path d="m234.668 64.195c0-7.606-5.23-14.207-12.633-15.957-14.261-3.371-36.309-9.466-42.674-16.163-9.645-10.149 7.93-25.835 4.715-31.14s-28.076 12.686-28.076 35.984c0 19.847 25.214 38.425 59.837 43.493 9.918 1.452 18.831-6.193 18.831-16.217z" fill="#e9efff"/></g><g><path d="m277.332 64.195c0-7.606 5.23-14.207 12.633-15.957 14.261-3.371 36.309-9.466 42.673-16.163 9.645-10.149-7.93-25.835-4.715-31.14s28.077 12.686 28.077 35.984c0 19.847-25.214 38.425-59.837 43.493-9.918 1.452-18.831-6.193-18.831-16.217z" fill="#e9efff"/></g><g><path d="m215.837 80.413c-10.505-1.538-20.135-4.325-28.466-8.008 5.709 1.883 12.244.559 16.785-3.982 6.419-6.419 6.419-16.827 0-23.247-1.24-1.24-2.63-2.238-4.11-2.999 7.474 2.448 15.529 4.535 21.989 6.062 7.402 1.75 12.633 8.351 12.633 15.957 0 10.023-8.913 17.668-18.831 16.217z" fill="#dae2fe"/></g><g><path d="m296.163 80.413c10.505-1.538 20.135-4.325 28.466-8.008-5.709 1.883-12.244.559-16.785-3.982-6.419-6.419-6.419-16.827 0-23.247 1.24-1.24 2.63-2.238 4.11-2.999-7.474 2.448-15.529 4.535-21.989 6.062-7.402 1.75-12.633 8.351-12.633 15.957 0 10.023 8.913 17.668 18.831 16.217z" fill="#dae2fe"/></g><g><path d="m278.492 217.484h-1l-7.641 5-7.641-5h-12.42l-7.641 5-7.641-5h-1c-5.065 0-8.718 4.943-7.134 9.754 1.752 5.322 4.899 10.009 9.01 13.631h41.233c4.111-3.622 7.258-8.309 9.01-13.631 1.583-4.81-2.07-9.754-7.135-9.754z" fill="#162544"/></g><g><path d="m235.384 240.87c5.493 4.849 12.714 7.798 20.616 7.798s15.124-2.948 20.616-7.798c-5.5-4.849-12.714-7.798-20.616-7.798s-15.116 2.949-20.616 7.798z" fill="#cc0053"/></g><g><g><path d="m277.492 217.484-5.55 8.844c-.968 1.542-3.214 1.542-4.182 0l-5.55-8.844z" fill="#fff"/></g></g><g><g><path d="m234.508 217.484 5.55 8.844c.968 1.542 3.214 1.542 4.182 0l5.55-8.844z" fill="#fff"/></g></g></g></svg>