<svg id="Capa_1" enable-background="new 0 0 512 512" height="512" viewBox="0 0 512 512" width="512" xmlns="http://www.w3.org/2000/svg"><g><g><path d="m459.689 403.175c26.088-38.945 41.311-85.78 41.311-136.175 0-135.31-109.69-245-245-245s-245 109.69-245 245c0 50.395 15.223 97.23 41.311 136.175z" fill="#49d88b"/></g><g><circle cx="256" cy="242" fill="#38c674" r="200"/></g><g><path d="m361.143 147.218c0 122.695 140.394 65.429 115.825 152.841-1.273 4.527-7.608 4.903-9.404.557-4.302-10.405-12.33-23.48-26.308-27.488-28.048-8.042-99.574 13.782-124.426-58.213z" fill="#bec8f7"/></g><g><path d="m332.474 162.915h-152.948c0 38.808-38.808 73.896-38.808 132.033s30 95 30 95h170.565s30-36.863 30-95-38.809-93.225-38.809-132.033z" fill="#acbbef"/></g><g><path d="m343.597 189.21s19.696 80.465 70.164 106.09c4.529 2.3 3.06 9.158-2.013 9.424-28.42 1.493-79.565-5.929-108.362-70.956z" fill="#dae2fe"/></g><g><path d="m308.5 12.234c40.791 28.176 77.213 33.325 107.976 26.239 4.988-1.149 8.213 5.141 4.43 8.589-15.864 14.46-50.02 33.276-112.406 16.449z" fill="#dae2fe"/></g><g><path d="m333.215 37.935c19.577 38.587 63.213 25.372 85.909 71.111 2.004 4.04-1.875 8.439-6.138 6.968-10.061-3.473-27.019-5.925-51.843 1.129l-44.313-45.037z" fill="#bec8f7"/></g><g><path d="m357.453 89.447s17.314 42.537 39.826 49.821c13.611 4.404 27.166.801 36.551-3.289 4.43-1.931 8.763 2.86 6.365 7.056-10.245 17.93-35.661 44.558-91.876 25.194z" fill="#dae2fe"/></g><g><path d="m150.857 147.218c0 122.695-140.394 65.429-115.825 152.841 1.273 4.527 7.608 4.903 9.404.557 4.302-10.405 12.33-23.48 26.308-27.488 28.048-8.042 99.574 13.782 124.426-58.213z" fill="#acbbef"/></g><g><path d="m168.403 189.21s-19.696 80.465-70.164 106.09c-4.529 2.3-3.06 9.158 2.013 9.424 28.42 1.493 79.565-5.929 108.362-70.956z" fill="#bec8f7"/></g><g><path d="m203.5 12.234c-40.791 28.176-77.213 33.325-107.976 26.239-4.988-1.149-8.213 5.141-4.43 8.589 15.864 14.46 50.02 33.276 112.406 16.449z" fill="#bec8f7"/></g><g><path d="m178.785 37.935c-19.577 38.587-63.213 25.372-85.909 71.111-2.004 4.04 1.875 8.439 6.138 6.968 10.061-3.473 27.019-5.925 51.843 1.129l44.313-45.036z" fill="#acbbef"/></g><g><path d="m154.547 89.447s-17.314 42.537-39.826 49.821c-13.611 4.404-27.166.801-36.551-3.289-4.43-1.931-8.763 2.86-6.365 7.056 10.245 17.93 35.661 44.558 91.876 25.194z" fill="#bec8f7"/></g><g><path d="m256 433.614c124.66 0 176.227-78.386 176.227-78.386-.904-1.078-1.795-2.019-2.668-2.79-6.623-5.848-19.39-11.382-34.352-16.323-37.929-12.525-89.967-21.232-91.82-21.54h-94.772c-1.853.307-53.892 9.014-91.82 21.54-14.961 4.941-27.729 10.475-34.352 16.323-.874.772-1.765 1.712-2.668 2.79-.002 0 51.565 78.386 176.225 78.386z" fill="#3c5082"/></g><g><path d="m181.159 395.255c-7.588-20.983-11.959-45.066-12.65-72.83v-.001c-16.433 3.612-35.381 8.297-51.715 13.691-14.961 4.941-27.729 10.475-34.352 16.323-.874.771-1.765 1.712-2.668 2.79 0 0 34.921 53.057 116.73 71.865-6.03-9.746-11.179-20.319-15.345-31.838z" fill="#2d3c6b"/></g><g><path d="m276.616 369.362s10.767-11.809 23.703-11.809 55.191 11.809 55.191 11.809z" fill="#2d3c6b"/></g><g><path d="m235.384 369.362s-10.767-11.809-23.703-11.809-55.191 11.809-55.191 11.809z" fill="#2d3c6b"/></g><g><path d="m208.614 221.239v93.336s19.021 20.093 47.17 20.093c.073 0 .143-.005.216-.005 28.031-.103 47.386-20.088 47.386-20.088v-93.336z" fill="#3c5082"/></g><g><path d="m208.614 220.734v93.841c94.723 0 94.772-53.4 94.772-53.4v-40.44h-94.772z" fill="#2d3c6b"/></g><g><path d="m443.996 353.841c-2.532-6.383-10.595-8.388-15.798-3.908-21.447 18.467-77.426 56.854-172.198 56.854s-150.751-38.387-172.198-56.854c-5.203-4.48-13.266-2.475-15.798 3.908-4.967 12.522-11.953 31.76-15.693 49.334 43.957 65.62 118.774 108.825 203.689 108.825s159.732-43.205 203.689-108.825c-3.74-17.574-10.726-36.812-15.693-49.334z" fill="#e9efff"/></g><g><path d="m301.031 507.862c-55.793-22.543-98.107-55.621-118.719-109.562-51.034-12.381-83.375-35.333-98.511-48.366-5.203-4.48-13.266-2.475-15.798 3.908-4.967 12.522-11.953 31.76-15.693 49.334 43.958 65.619 118.775 108.824 203.69 108.824 15.38 0 30.427-1.424 45.022-4.136.003 0 .006-.002.009-.002z" fill="#dae2fe"/></g><g><path d="m120.812 471.33c-.075-.212-8.769-24.824 4.705-53.619 2.512-5.369-4.447-10.154-8.544-5.871-8.577 8.966-17.032 22.169-20.587 41.004 7.736 6.653 15.895 12.828 24.426 18.486z" fill="#bec8f7"/></g><g><path d="m391.188 471.33c.075-.212 8.769-24.824-4.705-53.619-2.512-5.369 4.447-10.154 8.544-5.871 8.577 8.966 17.032 22.169 20.587 41.004-7.736 6.653-15.895 12.828-24.426 18.486z" fill="#dae2fe"/></g><g><path d="m355.547 83.218c-12.65-41.159-45.137-83.218-80.681-83.218-12.234 0-18.866 12-18.866 12s-6.632-12-18.866-12c-35.545 0-68.033 42.062-80.682 83.222-3.586 10.526-5.547 21.804-5.589 33.534-.001.128-.005.259-.005.387v30.076h210.286v-30.076c-.001-11.871-1.971-23.282-5.597-33.925z" fill="#e9efff"/></g><g><path d="m208.916 147.218v-12.854c-19.658-17.231-40.8-96.13-.303-125.564-23.524 14.475-43.023 44.682-52.162 74.423-3.586 10.526-5.547 21.804-5.589 33.534-.001.128-.005.259-.005.387v30.076h58.059z" fill="#dae2fe"/></g><g><path d="m331.058 159.567s10.385-25.285 28.897-19.415-.448 60.664-36.573 64.116z" fill="#3c5082"/></g><g><path d="m180.942 159.567s-10.385-25.285-28.897-19.415.448 60.664 36.573 64.116z" fill="#2d3c6b"/></g><g><path d="m255.784 82.484s-19.69 60.442-87.333 60.562c-.029 1.23-.049 2.464-.049 3.708 0 64.505 39.219 140.155 87.597 140.155s87.597-75.651 87.597-140.155c0-1.244-.02-2.478-.049-3.708-67.642-.12-87.763-60.562-87.763-60.562z" fill="#4b6496"/></g><g><path d="m208.403 146.754c0-4.214.187-8.339.513-12.39-11.036 5.219-24.395 8.653-40.465 8.682-.029 1.23-.049 2.464-.049 3.708 0 64.505 39.219 140.155 87.597 140.155 6.881 0 13.576-1.535 20-4.346-38.74-16.952-67.596-80.479-67.596-135.809z" fill="#3c5082"/></g><g><path d="m221.218 148.301-19.319-5.176c-4.001-1.072-6.375-5.185-5.303-9.186 1.072-4.001 5.185-6.375 9.186-5.303l19.319 5.176c4.001 1.072 6.375 5.185 5.303 9.186-1.072 4-5.185 6.375-9.186 5.303z" fill="#fff"/></g><g><path d="m310.1 143.124-19.319 5.176c-4.001 1.072-8.114-1.302-9.186-5.303-1.072-4.001 1.302-8.114 5.303-9.186l19.319-5.176c4.001-1.072 8.114 1.302 9.186 5.303 1.073 4.002-1.302 8.114-5.303 9.186z" fill="#fff"/></g><g><path d="m223.5 158.229c0 5.523-4.477 10-10 10s-10-4.477-10-10 20-5.523 20 0z" fill="#162544"/></g><g><path d="m288.5 158.229c0 5.523 4.477 10 10 10s10-4.477 10-10-20-5.523-20 0z" fill="#162544"/></g><g><g><path d="m242.013 192.447 8.436-13.441c2.569-4.093 8.533-4.093 11.102 0l8.436 13.441c2.739 4.365-.398 10.038-5.551 10.038h-16.871c-5.154-.001-8.291-5.674-5.552-10.038z" fill="#2d3c6b"/></g></g><g><path d="m256 214.09c-11.046 0-20 8.954-20 20v20c0 11.046 8.954 20 20 20 11.046 0 20-8.954 20-20v-20c0-11.045-8.954-20-20-20z" fill="#162544"/></g></g></svg>