<svg id="Capa_1" enable-background="new 0 0 512 512" height="512" viewBox="0 0 512 512" width="512" xmlns="http://www.w3.org/2000/svg"><g><g><path d="m456.951 407.166c27.755-39.718 44.049-88.036 44.049-140.166 0-135.31-109.69-245-245-245s-245 109.69-245 245c0 52.13 16.294 100.448 44.049 140.166z" fill="#7255ce"/></g><g><circle cx="256" cy="242" fill="#5c45bf" r="200"/></g><g><path d="m456.949 407.139c-8.256-22.709-16.99-42.685-24.722-51.911-.904-1.078-1.794-2.019-2.668-2.79-6.623-5.848-19.39-11.382-34.352-16.323-5.171-1.708-10.605-3.344-16.138-4.898.608-13.799-14.011-25.21-24.011-31.367 20.666-39.184 43.219-87.575 43.219-132.408 0-97.406-69.223-167.442-142.277-167.442s-142.277 70.036-142.277 167.442c0 44.833 22.553 93.224 43.219 132.408-10 6.157-24.619 17.568-24.011 31.367-5.533 1.554-10.967 3.19-16.138 4.898-14.961 4.941-27.729 10.475-34.352 16.323-.874.771-1.765 1.712-2.668 2.79-7.732 9.226-16.467 29.202-24.722 51.911-.001.009-.001.018-.002.026 44.286 63.374 117.771 104.835 200.951 104.835s156.665-41.461 200.951-104.834c-.001-.009-.001-.018-.002-.027z" fill="#2d3c6b"/></g><g><path d="m166.969 370.422c.466.115.929.227 1.39.337 17.436 4.178 29.666-16.675 17.59-29.927-10.209-11.203-20.66-24.955-29.006-40.982-10 6.157-24.619 17.568-24.011 31.367-5.533 1.554-10.967 3.19-16.138 4.898-14.961 4.941-27.729 10.475-34.352 16.323-.874.771-1.765 1.712-2.668 2.79-7.732 9.226-16.467 29.202-24.722 51.911-.001.009-.001.018-.002.026 44.285 63.374 117.77 104.835 200.95 104.835-49.905-15.931-90.58-62.753-110.334-117.733-4.893-13.618 7.251-27.301 21.303-23.845z" fill="#213159"/></g><g><path d="m345.884 128.472h-179.768c-5.55 9.216-9.873 18.741-12.605 28.023-8.889 30.201-7.665 112.292 102.489 112.292s111.379-82.09 102.489-112.292c-2.732-9.282-7.055-18.807-12.605-28.023z" fill="#162544"/></g><g><path d="m91.07 426.843v21.327c7.157 6.519 14.704 12.617 22.599 18.262l-12.035-41.103c-1.75-5.98-10.564-4.716-10.564 1.514z" fill="#162544"/></g><g><path d="m420.93 426.843v21.327c-7.157 6.519-14.704 12.617-22.599 18.262l12.035-41.103c1.75-5.98 10.564-4.716 10.564 1.514z" fill="#213159"/></g><g><path d="m184.638 210.288 5.681 43.045c.891 6.752 5.338 12.507 11.647 15.073l21.53 8.755c4.451 1.81 8.002 5.266 10.058 9.61 2.277 4.811 7.176 8.138 12.851 8.138h19.189c5.676 0 10.574-3.328 12.851-8.138 2.056-4.343 5.606-7.8 10.058-9.61l21.53-8.755c6.309-2.566 10.756-8.32 11.647-15.073l5.681-43.045z" fill="#dae2fe"/></g><g><path d="m184.638 210.288 5.68 43.045c.891 6.752 5.338 12.507 11.647 15.073l21.531 8.756c4.451 1.81 8.002 5.266 10.058 9.61 2.277 4.811 7.176 8.138 12.851 8.138h19.189c5.676 0 10.574-3.328 12.851-8.138 2.056-4.343 5.606-7.8 10.058-9.61-26.114 0-30.675-25.736-30.675-25.736v-41.138z" fill="#bec8f7"/></g><g><path d="m346 132.871c0-1.471-.038-2.933-.108-4.386-19.819-32.918-55.297-61.91-89.892-61.91-34.591 0-70.064 28.984-89.884 61.898-.097 1.964-.136 3.941-.103 5.934.276 16.46 4.973 31.842 12.952 45.015 2.648 4.372 2.087 9.938-1.174 13.874-2.384 2.877-3.671 5.935-3.671 9.106 0 10.493 14.046 19.751 35.465 25.288 5.344 1.382 9.106 6.164 9.106 11.684 0 6.656 5.396 12.053 12.053 12.053h50.516c6.657 0 12.053-5.396 12.053-12.053 0-5.52 3.761-10.302 9.106-11.684 21.418-5.537 35.465-14.795 35.465-25.288 0-3.172-1.287-6.23-3.672-9.107-3.266-3.94-3.814-9.511-1.163-13.889 8.217-13.58 12.951-29.504 12.951-46.535z" fill="#e9efff"/></g><g><path d="m236 229.597c0-4.838-1.596-9.549-4.575-13.361-31.611-40.453-20.456-111.007-14.518-138.365-20.307 11.425-38.54 30.258-50.791 50.602-.097 1.964-.136 3.941-.103 5.934.276 16.46 4.973 31.842 12.952 45.015 2.648 4.372 2.087 9.938-1.174 13.874-2.384 2.877-3.671 5.935-3.671 9.106 0 10.493 14.046 19.751 35.465 25.288 5.344 1.382 9.106 6.164 9.106 11.684 0 6.656 5.396 12.053 12.053 12.053h27.086c-12.057-.002-21.83-9.775-21.83-21.83z" fill="#dae2fe"/></g><g><path d="m266.631 187.944-7.459-11.885c-1.468-2.339-4.876-2.339-6.344 0l-7.459 11.885c-.391.623-.957 1.12-1.63 1.418-4.709 2.091-7.739 5.357-7.739 9.028 0 6.312 8.954 11.429 20 11.429s20-5.117 20-11.429c0-3.671-3.03-6.938-7.739-9.028-.672-.298-1.239-.795-1.63-1.418z" fill="#acbbef"/></g><g><ellipse cx="296.527" cy="156.496" fill="#acbbef" rx="20" ry="25" transform="matrix(.924 -.383 .383 .924 -37.317 125.389)"/></g><g><ellipse cx="215.473" cy="156.496" fill="#acbbef" rx="25" ry="20" transform="matrix(.383 -.924 .924 .383 -11.568 295.679)"/></g></g></svg>