<svg id="Capa_1" enable-background="new 0 0 512 512" height="512" viewBox="0 0 512 512" width="512" xmlns="http://www.w3.org/2000/svg"><g><g><path d="m96.727 453.153h318.547c52.468-44.935 85.726-111.656 85.726-186.153 0-135.31-109.69-245-245-245s-245 109.69-245 245c0 74.497 33.258 141.218 85.727 186.153z" fill="#2d3c6b"/></g><g><circle cx="256" cy="242" fill="#213159" r="200"/></g><g><path d="m270.924 290.267c-49.208-105.527-134.124-170.078-189.664-144.179-50.345 23.476-59.272 113.214-23.852 208.394 3.501 9.408 17.142 8.422 19.345-1.372s8.135 31.649 32.173 72.902l190.179-50.958c-5.42-27.24-14.781-56.05-28.181-84.787z" fill="#acbbef"/></g><g><path d="m210.384 398.826c-47.608-42.665-73.594-94.972-86.745-129.889-2.467-6.55 6.383-11.271 10.471-5.589 27.998 38.92 78.641 100.836 129.939 121.099z" fill="#94a9e0"/></g><g><path d="m81.449 264.971c-1.46-6.478-10.914-5.78-11.416.842-1.701 22.433-1.431 53.56 6.72 87.297 0 0 8.135 31.649 32.173 72.902l49.619-13.296c-45.512-34.869-67.557-105.43-77.096-147.745z" fill="#94a9e0"/></g><g><path d="m241.076 290.267c49.208-105.527 134.124-170.078 189.664-144.179 50.345 23.476 59.272 113.214 23.852 208.394-3.501 9.408-17.142 8.422-19.345-1.372s-8.135 31.649-32.173 72.902l-190.179-50.958c5.42-27.24 14.781-56.05 28.181-84.787z" fill="#bec8f7"/></g><g><path d="m301.616 398.826c47.608-42.665 73.594-94.972 86.745-129.889 2.467-6.55-6.383-11.271-10.471-5.589-27.998 38.92-78.641 100.836-129.939 121.099z" fill="#acbbef"/></g><g><path d="m430.551 264.971c1.46-6.478 10.914-5.78 11.416.842 1.701 22.433 1.431 53.56-6.72 87.297 0 0-8.135 31.649-32.173 72.902l-49.62-13.296c45.513-34.869 67.558-105.43 77.097-147.745z" fill="#acbbef"/></g><g><g><path d="m226.801 76.484s-23.313-46.811-56.166-74.569c-4.251-3.591-10.781-1.926-12.738 3.283-8.714 23.193-21.326 81.097 58.44 102.471z" fill="#bec8f7"/></g><g><path d="m167.292 15.057c-3.579 11.654-6.45 28.863.297 44.501 6.279 14.556 20.067 25.666 41.054 33.113z" fill="#acbbef"/></g></g><g><g><path d="m285.199 76.484s23.313-46.811 56.166-74.569c4.251-3.591 10.781-1.926 12.738 3.283 8.714 23.193 21.326 81.097-58.44 102.471z" fill="#dae2fe"/></g><g><path d="m344.708 15.057c3.579 11.654 6.45 28.863-.297 44.501-6.279 14.556-20.067 25.666-41.054 33.113z" fill="#bec8f7"/></g></g><g><path d="m403.418 422.367c-3.778-9.812-11.016-17.901-20.349-22.744-12.784-6.633-21.405-19.219-22.97-33.537l-15.624-142.893h-176.949l-15.624 142.893c-1.565 14.317-10.186 26.903-22.97 33.537-9.332 4.842-16.57 12.932-20.349 22.744l-11.856 30.786c42.83 36.681 98.46 58.847 159.273 58.847s116.443-22.166 159.274-58.847z" fill="#dae2fe"/></g><g><path d="m222.542 481.649c-15.236-23.199-21.551-51.137-18.534-78.727l19.652-179.728h-56.133l-15.624 142.893c-1.565 14.317-10.186 26.903-22.97 33.537-9.332 4.842-16.57 12.932-20.349 22.744l-11.856 30.786c42.829 36.68 98.459 58.846 159.272 58.846-14.344-6.36-25.275-17.89-33.458-30.351z" fill="#bec8f7"/></g><g><path d="m280.748 61.483h-49.496c-36.817 8.565-63.726 35.751-63.726 67.969v93.742c0 18.772 7.457 36.775 20.731 50.049l19.545 19.545c4.425 4.425 10.426 6.91 16.683 6.91h63.031c6.257 0 12.258-2.486 16.683-6.91l19.545-19.545c13.274-13.274 20.731-31.277 20.731-50.049v-93.742c-.001-32.217-26.91-59.403-63.727-67.969z" fill="#e9efff"/></g><g><path d="m220.455 273.243c-13.274-13.274-20.731-31.277-20.731-50.049v-93.742c0-32.233 26.94-59.418 63.784-67.969h-32.256c-36.817 8.565-63.726 35.751-63.726 67.969v93.742c0 18.772 7.457 36.775 20.731 50.049l19.545 19.545c4.425 4.425 10.426 6.91 16.683 6.91h32.198c-6.257 0-12.258-2.486-16.683-6.91z" fill="#dae2fe"/></g><g><path d="m273.828 335.272h-35.656c-13.326 0-24.129-10.803-24.129-24.129 0-13.326 10.803-24.129 24.129-24.129h35.656c13.326 0 24.129 10.803 24.129 24.129.001 13.326-10.802 24.129-24.129 24.129z" fill="#acbbef"/></g><g><path d="m325.144 252.986-11.589 45.998c-1.801 7.147-8.228 12.156-15.599 12.156h-83.912c-7.37 0-13.798-5.009-15.599-12.156l-11.589-45.998c-1.507-5.98.538-12.294 5.263-16.257l28.921-24.25c4.144-3.475 6.714-8.472 7.129-13.864l5.374-69.765c.683-8.869-3.4-17.432-10.721-22.485-17.813-12.293-12.663-39.977 8.417-44.882 7.858-1.829 16.167-2.809 24.763-2.809s16.905.98 24.763 2.809c21.079 4.905 26.229 32.59 8.417 44.882-7.321 5.052-11.404 13.616-10.721 22.485l5.374 69.765c.415 5.392 2.985 10.389 7.129 13.864l28.921 24.25c4.722 3.962 6.766 10.277 5.259 16.257z" fill="#fff"/></g><g><path d="m228.176 296.565-17.075-59.763c-1.957-6.849-.142-14.221 4.77-19.379l2.885-3.029-26.637 22.335c-4.725 3.962-6.77 10.277-5.263 16.257l11.589 45.998c1.801 7.147 8.228 12.156 15.599 12.156h33.454c-8.972 0-16.857-5.948-19.322-14.575z" fill="#e9efff"/></g><g><g><path d="m284.173 259.344c-4.883 0-9.474-1.901-12.926-5.354-1.953-1.952-1.953-5.118 0-7.071 1.953-1.951 5.118-1.951 7.071.001 1.564 1.563 3.643 2.425 5.855 2.425s4.292-.861 5.855-2.425c1.953-1.953 5.118-1.953 7.071 0 1.953 1.952 1.953 5.118 0 7.07-3.453 3.452-8.043 5.354-12.926 5.354z" fill="#bec8f7"/></g><g><path d="m227.827 259.344c-4.883 0-9.474-1.901-12.927-5.354-1.953-1.952-1.953-5.118 0-7.07 1.953-1.953 5.118-1.953 7.071 0 1.564 1.563 3.644 2.425 5.855 2.425s4.291-.861 5.855-2.425c1.952-1.953 5.119-1.952 7.071-.001 1.953 1.953 1.953 5.119 0 7.071-3.451 3.452-8.042 5.354-12.925 5.354z" fill="#bec8f7"/></g></g><g><circle cx="203.26" cy="142.839" fill="#162544" r="10"/></g><g><circle cx="308.74" cy="142.839" fill="#162544" r="10"/></g><g><path d="m210.978 140.911-19.319-5.176c-4.001-1.072-6.375-5.185-5.303-9.186 1.072-4.001 5.185-6.375 9.186-5.303l19.319 5.176c4.001 1.072 6.375 5.185 5.303 9.186-1.073 4.001-5.185 6.375-9.186 5.303z" fill="#bec8f7"/></g><g><path d="m320.341 135.735-19.319 5.176c-4.001 1.072-8.113-1.302-9.186-5.303-1.072-4.001 1.302-8.114 5.303-9.186l19.319-5.176c4.001-1.072 8.114 1.302 9.186 5.303 1.072 4.001-1.302 8.114-5.303 9.186z" fill="#bec8f7"/></g></g></svg>