<svg id="Capa_1" enable-background="new 0 0 512 512" height="512" viewBox="0 0 512 512" width="512" xmlns="http://www.w3.org/2000/svg"><g><g><path d="m34.13 371.012 422.819 36.127.007.019c27.752-39.716 44.044-88.031 44.044-140.158 0-135.31-109.69-245-245-245s-245 109.69-245 245c0 37.191 8.302 72.438 23.13 104.012z" fill="#7255ce"/></g><g><circle cx="256" cy="242" fill="#5c45bf" r="200"/></g><g><path d="m456.949 407.139c-8.256-22.709-16.99-42.685-24.722-51.911-.904-1.078-1.794-2.019-2.668-2.79-6.623-5.848-19.39-11.382-34.352-16.323-37.928-12.525-89.968-21.232-91.82-21.54h-94.772c-1.853.307-53.892 9.014-91.82 21.54-14.961 4.941-27.729 10.475-34.352 16.323-.874.772-1.765 1.712-2.668 2.79-7.732 9.226-16.467 29.203-24.722 51.911-.001.009-.001.018-.002.026 16.031 22.94 35.89 43.006 58.647 59.276 1.161.43 90.256 33.265 219.06 33.269l17.861-15.945 17.06 1.332c35.75-18.346 66.408-45.211 89.274-77.933-.003-.007-.003-.016-.004-.025z" fill="#f3d6ac"/></g><g><path d="m276.616 369.362s10.767-11.809 23.703-11.809 55.191 11.809 55.191 11.809z" fill="#eabe8d"/></g><g><path d="m208.614 221.239v93.336s19.021 20.093 47.17 20.093c.073 0 .143-.005.216-.005 28.031-.103 47.386-20.088 47.386-20.088v-93.336z" fill="#f3d6ac"/></g><g><path d="m208.614 220.734v93.841c94.723 0 94.772-53.4 94.772-53.4v-40.44h-94.772z" fill="#eabe8d"/></g><g><path d="m420.93 426.843v21.327c-7.157 6.519-14.704 12.617-22.599 18.262l12.035-41.103c1.75-5.98 10.564-4.716 10.564 1.514z" fill="#eabe8d"/></g><g><path d="m274.241 474.903-12.405-73.165c-.483-2.847-2.949-4.93-5.836-4.93-2.887 0-5.353 2.083-5.836 4.93l-12.405 73.165z" fill="#eabe8d"/></g><g><path d="m220.83 421.448-35.216-112.753c-8.351 1.651-17.936 3.655-27.004 5.738-5.101 1.171-10.079 2.37-14.797 3.563-35.349 8.935-57.595 17.749-68.01 26.945-.06.053-.123.111-.184.166v87.661c44.775 48.703 109.008 79.232 180.381 79.232 14.994 0 29.671-1.353 43.922-3.933z" fill="#ff4155"/></g><g><path d="m139.053 319.221c-32.59 8.517-53.311 16.944-63.25 25.72-.06.053-.123.111-.184.166v87.661c44.775 48.703 109.008 79.232 180.381 79.232-106.005-32.957-116.284-155.901-116.947-192.779z" fill="#e80054"/></g><g><path d="m332.781 499.711c-80.549-29.757-123.89-123.947-123.89-185.136 0-5.321-4.812-9.344-10.048-8.396-3.725.675-8.259 1.532-13.23 2.515v18.167c0 58.715 39.913 147.804 114.308 181.206 11.241-2.034 22.21-4.844 32.86-8.356z" fill="#ff596e"/></g><g><path d="m134.543 316.515c-26.447 1.188-50.587 4.345-63.014 11.19-1.44.792-2.901 1.761-4.468 2.961-8.537 6.537-19.353 19.789-32.931 40.347 10.664 22.709 24.707 43.513 41.489 61.765l.906-.548c36.45-22.024 62.318-57.986 71.605-99.548 1.911-8.55-4.836-16.56-13.587-16.167z" fill="#ffdd40"/></g><g><path d="m148.131 332.682c1.91-8.549-4.836-16.559-13.588-16.166-6.027.271-11.932.645-17.608 1.141-1.848 22.281-11.763 63.701-56.794 96.52 4.857 6.454 10.02 12.665 15.478 18.601l.906-.548c36.451-22.024 62.318-57.986 71.606-99.548z" fill="#ffc839"/></g><g><path d="m343.597 146.754c0 64.505-39.219 140.155-87.597 140.155s-87.597-75.651-87.597-140.155 39.218-110.884 87.597-110.884 87.597 46.38 87.597 110.884z" fill="#f8e6cc"/></g><g><path d="m208.403 146.754c0-55.33 28.856-97.321 67.597-108.148-6.424-1.795-13.119-2.737-20-2.737-48.379 0-87.597 46.38-87.597 110.885s39.219 140.155 87.597 140.155c6.881 0 13.576-1.535 20-4.346-38.741-16.952-67.597-80.479-67.597-135.809z" fill="#f3d6ac"/></g><g><g><path d="m276.614 242.667c-1.176 0-2.356-.413-3.308-1.252-4.78-4.221-10.927-6.546-17.307-6.546s-12.526 2.325-17.307 6.546c-2.071 1.827-5.23 1.63-7.058-.438-1.828-2.07-1.632-5.23.438-7.058 6.609-5.836 15.106-9.05 23.926-9.05s17.316 3.214 23.926 9.05c2.07 1.828 2.267 4.988.438 7.058-.986 1.119-2.364 1.69-3.748 1.69z" fill="#eabe8d"/></g></g><g><path d="m221.218 148.301-19.319-5.176c-4.001-1.072-6.375-5.185-5.303-9.186 1.072-4.001 5.185-6.375 9.186-5.303l19.319 5.176c4.001 1.072 6.375 5.185 5.303 9.186-1.072 4-5.185 6.375-9.186 5.303z" fill="#934a2e"/></g><g><path d="m310.1 143.124-19.319 5.176c-4.001 1.072-8.114-1.302-9.186-5.303-1.072-4.001 1.302-8.114 5.303-9.186l19.319-5.176c4.001-1.072 8.114 1.302 9.186 5.303 1.073 4.002-1.302 8.114-5.303 9.186z" fill="#934a2e"/></g><g><path d="m223.5 158.229c0 5.523-4.477 10-10 10s-10-4.477-10-10 20-5.523 20 0z" fill="#162544"/></g><g><path d="m288.5 158.229c0 5.523 4.477 10 10 10s10-4.477 10-10-20-5.523-20 0z" fill="#162544"/></g><g><path d="m378.426 0h-122.428v20l130.273 46.526c4.74 1.693 9.727-1.821 9.727-6.855v-21.511c0-1.93-.767-3.782-2.132-5.147l-10.294-10.294c-2.842-2.843-2.842-7.451 0-10.294 4.586-4.585 1.339-12.425-5.146-12.425z" fill="#e80054"/></g><g><path d="m328.418 187.081v-86.209l35.04 9.53-5.681 106.275c-.966 18.066-10.032 34.733-24.675 45.359l-41.228 29.918c-6.611 4.797-15.873.075-15.873-8.094v-53.509c0-3.911 2.279-7.462 5.835-9.091l34.913-15.997c7.11-3.257 11.669-10.361 11.669-18.182z" fill="#ffdd40"/></g><g><path d="m344.892 151.07c7.42 0 13.694 4.899 15.77 11.638l2.796-52.305-35.04-9.53v66.191c.27-8.876 7.533-15.994 16.474-15.994z" fill="#ffc839"/></g><g><path d="m183.582 187.081v-86.209l-35.04 9.53 5.681 106.275c.966 18.066 10.032 34.733 24.675 45.359l41.228 29.918c6.611 4.797 15.873.075 15.873-8.094v-53.509c0-3.911-2.279-7.462-5.835-9.091l-34.913-15.997c-7.11-3.257-11.669-10.361-11.669-18.182z" fill="#ffc839"/></g><g><path d="m167.108 151.07c-7.42 0-13.694 4.899-15.77 11.638l-2.796-52.305 35.04-9.53v66.191c-.27-8.876-7.533-15.994-16.474-15.994z" fill="#ffb332"/></g><g><g><path d="m242.013 192.447 8.436-13.441c2.569-4.093 8.533-4.093 11.102 0l8.436 13.441c2.739 4.365-.398 10.038-5.551 10.038h-16.871c-5.154-.001-8.291-5.674-5.552-10.038z" fill="#eabe8d"/></g></g><g><path d="m355.331 99.511v-.179c0-54.86-44.473-99.332-99.332-99.332-54.859 0-99.332 44.472-99.332 99.332v.179z" fill="#ffb332"/></g><g><path d="m220.326 6.605c-37.235 14.334-63.66 50.442-63.66 92.727v.179h71.885c-31.677-30.183-36.497-77.603-8.225-92.906z" fill="#ff9100"/></g><g><path d="m256 25.717c-35.197 0-91.94 45.16-109.442 59.829-3.209 2.689-4.394 7.097-2.979 11.037l8.466 23.569 103.955-18.684 103.955 18.684 8.466-23.569c1.415-3.94.23-8.348-2.979-11.037-17.502-14.669-74.245-59.829-109.442-59.829z" fill="#ffc839"/></g><g><path d="m146.558 85.546c-3.209 2.689-4.394 7.097-2.979 11.037l8.466 23.569 53.631-9.639v-24.101c-12.264 0-22.206-9.942-22.206-22.206 0-2.683.476-5.254 1.347-7.635-16.667 11.301-30.917 22.821-38.259 28.975z" fill="#ffb332"/></g><g><path d="m256 189.21c-5.703 0-10.504-4.267-11.174-9.931l-8.826-74.662h40l-8.826 74.662c-.67 5.664-5.471 9.931-11.174 9.931z" fill="#ffc839"/></g><g><path d="m376 112.278c0 10.116-10.005 17.184-19.538 13.801-21.289-7.555-58.063-17.823-100.687-17.823-42.513 0-79.027 10.214-100.21 17.764-9.54 3.4-19.566-3.663-19.566-13.791 0-5.624 3.221-10.752 8.288-13.193l93.619-45.099c11.433-5.508 24.752-5.508 36.185 0l93.619 45.099c5.067 2.441 8.288 7.568 8.288 13.193v.049z" fill="#ffdd40"/></g><g><path d="m180.374 93.56c0-5.961 2.544-11.316 6.588-15.081l-42.673 20.557c-5.067 2.441-8.288 7.568-8.288 13.193 0 10.128 10.025 17.191 19.566 13.791 10.832-3.861 25.68-8.415 43.283-11.947-10.381-1.077-18.476-9.849-18.476-20.513z" fill="#ffc839"/></g><g><g><path d="m332.742 499.723c12.101-3.988 23.791-8.881 34.976-14.622l61.971-231.278-28.978-7.765z" fill="#3c5082"/></g><g><path d="m400.712 246.058 28.978 7.765-25.234 94.174c2.144-8.002-2.604-16.227-10.607-18.371-8.002-2.144-16.227 2.605-18.371 10.607z" fill="#2d3c6b"/></g><g><path d="m406.002 284.27c10.669 2.859 21.636-3.473 24.495-14.142l15.135-56.485c.715-2.667-.868-5.409-3.536-6.124l-28.978-7.765c-2.667-.715-5.409.868-6.124 3.536l-15.135 56.485c-2.858 10.669 3.474 21.636 14.143 24.495z" fill="#ffc839"/></g><g><g><path d="m496.281 133.64-71.576 80.83-21.572-105.788c-1.05-5.151.35-10.497 3.79-14.472l66.718-77.097c2.315-2.675 6.695-1.502 7.363 1.973l19.231 100.127c.992 5.161-.469 10.491-3.954 14.427z" fill="#e9efff"/></g><g><path d="m477.941 15.792c1.468.393 2.73 1.555 3.063 3.292l19.231 100.127c.575 2.994.32 6.043-.671 8.845l-15.509-4.156c-18.077-4.844-28.805-23.425-23.961-41.502z" fill="#dae2fe"/></g><g><path d="m403.082 102.204 15.509 4.156c18.077 4.844 28.805 23.425 23.961 41.502l-17.847 66.607-21.572-105.788c-.441-2.163-.444-4.36-.051-6.477z" fill="#dae2fe"/></g></g><g><circle cx="427.608" cy="203.636" fill="#ffdd40" r="29.993"/></g></g></g></svg>