<svg id="Capa_1" enable-background="new 0 0 512 512" height="512" viewBox="0 0 512 512" width="512" xmlns="http://www.w3.org/2000/svg"><g><g><path d="m456.951 407.166c27.755-39.718 44.049-88.036 44.049-140.166 0-135.31-109.69-245-245-245s-245 109.69-245 245c0 52.13 16.294 100.448 44.049 140.166z" fill="#2d3c6b"/></g><g><circle cx="256" cy="242" fill="#213159" r="200"/></g><g><g><g><path d="m451.062 268.567c-32.265 55.884-75.658 98.519-120.289 122.829-9.878 5.38-21.929-1.577-22.208-12.822-1.263-50.807 13.963-109.704 46.228-165.588s75.658-98.519 120.289-122.829c9.878-5.38 21.929 1.577 22.208 12.822 1.262 50.807-13.964 109.704-46.228 165.588z" fill="#e9efff"/></g></g><g><path d="m380.773 227.986c31.37-54.334 73.26-96.138 116.579-120.758-.01-1.422-.027-2.839-.062-4.248-.28-11.245-12.331-18.202-22.208-12.822-44.632 24.31-88.024 66.944-120.289 122.829s-47.491 114.781-46.228 165.588c.28 11.245 12.33 18.202 22.208 12.822 1.238-.674 2.474-1.368 3.71-2.07-.338-49.827 14.92-107.007 46.29-161.341z" fill="#dae2fe"/></g><g><path d="m448.389 202.034c-11.957-6.904-27.247-2.807-34.151 9.151-1.381 2.391-.561 5.449 1.83 6.83 2.391 1.381 5.449.561 6.83-1.83 4.142-7.174 13.316-9.633 20.49-5.49 2.391 1.381 5.449.561 6.83-1.83 1.382-2.393.563-5.451-1.829-6.831z" fill="#acbbef"/></g><g><path d="m413.748 182.034c11.957 6.904 16.054 22.193 9.151 34.151-1.381 2.391-4.439 3.211-6.83 1.83-2.391-1.381-3.211-4.439-1.83-6.83 4.142-7.174 1.684-16.348-5.49-20.49-2.391-1.381-3.211-4.439-1.83-6.83 1.38-2.393 4.438-3.212 6.829-1.831z" fill="#acbbef"/></g><g><path d="m418.389 253.995c-11.957-6.904-27.247-2.807-34.151 9.151-1.381 2.391-.561 5.449 1.83 6.83 2.391 1.381 5.449.561 6.83-1.83 4.142-7.174 13.316-9.633 20.49-5.49 2.391 1.381 5.449.561 6.83-1.83 1.382-2.392.563-5.45-1.829-6.831z" fill="#acbbef"/></g><g><path d="m383.748 233.995c11.957 6.904 16.054 22.193 9.151 34.151-1.381 2.391-4.439 3.211-6.83 1.83-2.391-1.381-3.211-4.439-1.83-6.83 4.142-7.174 1.684-16.348-5.49-20.49-2.391-1.381-3.211-4.439-1.83-6.83 1.38-2.392 4.438-3.212 6.829-1.831z" fill="#acbbef"/></g><g><path d="m301.069 417.2c-2.391-1.381-3.211-4.439-1.83-6.83l140-242.487c1.381-2.391 4.439-3.211 6.83-1.83 2.391 1.381 3.211 4.439 1.83 6.83l-140 242.487c-1.381 2.392-4.439 3.211-6.83 1.83z" fill="#bec8f7"/></g></g><g><g><g><path d="m60.938 268.567c32.265 55.884 75.658 98.519 120.289 122.829 9.878 5.38 21.929-1.577 22.208-12.822 1.263-50.807-13.963-109.704-46.228-165.588s-75.657-98.519-120.288-122.829c-9.878-5.38-21.929 1.577-22.208 12.822-1.263 50.807 13.963 109.704 46.227 165.588z" fill="#e9efff"/></g></g><g><path d="m131.227 227.986c-31.37-54.334-73.26-96.138-116.579-120.758.01-1.422.027-2.839.062-4.248.28-11.245 12.33-18.202 22.208-12.822 44.632 24.31 88.024 66.944 120.289 122.829s47.491 114.781 46.228 165.588c-.279 11.245-12.33 18.202-22.208 12.822-1.238-.674-2.474-1.368-3.71-2.07.338-49.827-14.92-107.007-46.29-161.341z" fill="#dae2fe"/></g><g><path d="m63.611 202.034c11.957-6.904 27.247-2.807 34.151 9.151 1.381 2.391.561 5.449-1.83 6.83-2.391 1.381-5.449.561-6.83-1.83-4.142-7.174-13.316-9.633-20.49-5.49-2.391 1.381-5.449.561-6.83-1.83-1.382-2.393-.563-5.451 1.829-6.831z" fill="#acbbef"/></g><g><path d="m98.252 182.034c-11.957 6.904-16.054 22.193-9.151 34.151 1.381 2.391 4.439 3.211 6.83 1.83 2.391-1.381 3.211-4.439 1.83-6.83-4.142-7.174-1.684-16.348 5.49-20.49 2.391-1.381 3.211-4.439 1.83-6.83-1.38-2.393-4.438-3.212-6.829-1.831z" fill="#acbbef"/></g><g><path d="m93.611 253.995c11.957-6.904 27.247-2.807 34.151 9.151 1.381 2.391.561 5.449-1.83 6.83-2.391 1.381-5.449.561-6.83-1.83-4.142-7.174-13.316-9.633-20.49-5.49-2.391 1.381-5.449.561-6.83-1.83-1.382-2.392-.563-5.45 1.829-6.831z" fill="#acbbef"/></g><g><path d="m128.252 233.995c-11.957 6.904-16.054 22.193-9.151 34.151 1.381 2.391 4.439 3.211 6.83 1.83 2.391-1.381 3.211-4.439 1.83-6.83-4.142-7.174-1.684-16.348 5.49-20.49 2.391-1.381 3.211-4.439 1.83-6.83-1.38-2.392-4.438-3.212-6.829-1.831z" fill="#acbbef"/></g><g><path d="m210.931 417.2c2.391-1.381 3.211-4.439 1.83-6.83l-140-242.487c-1.381-2.391-4.439-3.211-6.83-1.83-2.391 1.381-3.211 4.439-1.83 6.83l140 242.487c1.381 2.392 4.439 3.211 6.83 1.83z" fill="#bec8f7"/></g></g><g><ellipse cx="256" cy="22" fill="#a05838" rx="43.951" ry="22"/></g><g><path d="m256 22c-58.069 0-105.143 47.074-105.143 105.143v20.076h210.286v-20.076c0-58.069-47.074-105.143-105.143-105.143z" fill="#b76c4e"/></g><g><path d="m215.218 30.204c-37.814 15.927-64.361 53.332-64.361 96.939v20.076h79.178c-51.248-18.347-39.589-97.24-14.817-117.015z" fill="#a05838"/></g><g><path d="m102.383 457.831h307.235c18.06-14.558 34.021-31.615 47.333-50.665-.001-.009-.001-.017-.002-.026-8.256-22.709-16.99-42.685-24.722-51.911-.904-1.078-1.795-2.019-2.668-2.79-6.623-5.848-19.39-11.382-34.352-16.323-37.929-12.525-89.967-21.232-91.82-21.54h-94.772c-1.853.307-53.892 9.014-91.82 21.54-14.961 4.941-27.729 10.475-34.352 16.323-.874.772-1.765 1.712-2.668 2.79-7.732 9.226-16.467 29.203-24.722 51.911-.001.009-.001.018-.002.026 13.31 19.049 29.272 36.106 47.332 50.665z" fill="#fcad6d"/></g><g><path d="m208.614 221.239v93.336s19.021 20.093 47.17 20.093c.073 0 .143-.005.216-.005 28.031-.103 47.386-20.088 47.386-20.088v-93.336z" fill="#fcad6d"/></g><g><path d="m208.614 220.734v93.841c94.723 0 94.772-53.4 94.772-53.4v-40.44h-94.772z" fill="#fd995b"/></g><g><path d="m185.693 165.046c4.281 9.642-.591 20.92-10.338 24.957-9.746 4.037-20.92-.591-24.957-10.338-4.037-9.746-7.339-17.717-13.702-33.079s32.54-18.606 48.997 18.46z" fill="#fd995b"/></g><g><path d="m326.307 165.046c-4.281 9.642.591 20.92 10.338 24.957 9.746 4.037 20.92-.591 24.957-10.338 4.037-9.746 7.339-17.717 13.702-33.079 6.363-15.361-32.54-18.606-48.997 18.46z" fill="#fcad6d"/></g><g><path d="m255.784 82.484s-19.69 60.442-87.333 60.562c-.029 1.23-.049 2.464-.049 3.708 0 64.505 39.219 140.155 87.597 140.155s87.597-75.651 87.597-140.155c0-1.244-.02-2.478-.049-3.708-67.642-.12-87.763-60.562-87.763-60.562z" fill="#f9ba8f"/></g><g><path d="m208.403 146.754c0-4.214.187-8.339.513-12.39-11.036 5.219-24.395 8.653-40.465 8.682-.029 1.23-.049 2.464-.049 3.708 0 64.505 39.219 140.155 87.597 140.155 6.881 0 13.576-1.535 20-4.346-38.74-16.952-67.596-80.479-67.596-135.809z" fill="#fcad6d"/></g><g><g><path d="m235.384 240.87h41.233c4.111-3.622 7.258-8.309 9.01-13.631 1.584-4.811-2.069-9.754-7.134-9.754h-44.985c-5.065 0-8.718 4.943-7.134 9.754 1.752 5.322 4.899 10.009 9.01 13.631z" fill="#162544"/></g><g><path d="m276.616 240.87c-5.493 4.849-12.714 7.798-20.616 7.798s-15.124-2.948-20.616-7.798c5.5-4.849 12.714-7.798 20.616-7.798s15.116 2.949 20.616 7.798z" fill="#ff4155"/></g></g><g><g><path d="m242.013 192.447 8.436-13.441c2.569-4.093 8.533-4.093 11.102 0l8.436 13.441c2.739 4.365-.398 10.038-5.551 10.038h-16.871c-5.154-.001-8.291-5.674-5.552-10.038z" fill="#fd995b"/></g></g><g><path d="m310.999 162.085c.043-3.495-1.371-7.004-4.242-9.539-4.675-4.128-11.84-4.128-16.515 0-2.871 2.535-4.284 6.044-4.242 9.539.055 4.538 5.629 6.716 8.838 3.507 2.022-2.022 5.3-2.022 7.322 0 3.21 3.21 8.784 1.032 8.839-3.507z" fill="#162544"/></g><g><path d="m201.001 162.085c-.043-3.495 1.371-7.004 4.242-9.539 4.675-4.128 11.84-4.128 16.515 0 2.871 2.535 4.284 6.044 4.242 9.539-.055 4.538-5.629 6.716-8.838 3.507-2.022-2.022-5.3-2.022-7.322 0-3.21 3.21-8.784 1.032-8.839-3.507z" fill="#162544"/></g><g><path d="m182.912 319.385c-18.834 3.813-44.718 9.662-66.118 16.729-14.961 4.941-27.729 10.475-34.352 16.323-.874.772-1.765 1.712-2.668 2.79-7.732 9.226-16.467 29.203-24.722 51.911-.001.009-.001.018-.002.026 13.312 19.05 29.274 36.107 47.333 50.665h60.55c-17.346-67.552 9.435-120.944 19.979-138.444z" fill="#fd995b"/></g><g><path d="m276.616 369.362s10.767-11.809 23.703-11.809 55.191 11.809 55.191 11.809z" fill="#fd995b"/></g><g><path d="m235.384 369.362s-10.767-11.809-23.703-11.809-55.191 11.809-55.191 11.809z" fill="#fd995b"/></g><g><path d="m391.147 471.33c6.374-4.223 12.555-8.713 18.491-13.499-4.027-11.7-11.689-21.884-21.736-29.06v42.559z" fill="#fd995b"/></g><g><path d="m124.098 471.33v-42.559c-10.047 7.176-17.708 17.36-21.736 29.06 5.936 4.786 12.117 9.277 18.491 13.499z" fill="#ef854b"/></g><g><path d="m208.614 314.575s-41.482 21.933-29.697 95.133h-34.073s-10.517-78.881 63.77-106.879z" fill="#e80054"/></g><g><path d="m303.386 314.575s41.482 21.933 29.697 95.133h34.073s10.517-78.881-63.77-106.879z" fill="#ff4155"/></g><g><path d="m177.575 395.255c-37.77 0-66.143 34.911-57.928 71.776.604 2.713 1.146 4.246 1.165 4.298v.009c38.748 25.688 85.216 40.662 135.188 40.662 49.971 0 96.439-14.974 135.187-40.661l.001-.009c.019-.052.56-1.586 1.165-4.298 8.215-36.866-20.158-71.776-57.928-71.776h-156.85z" fill="#ff596e"/></g><g><path d="m177.206 395.266c-37.584.228-65.746 35.021-57.558 71.766.604 2.713 1.146 4.246 1.165 4.298v.009c38.748 25.687 85.215 40.661 135.187 40.661 12.203 0 24.196-.899 35.92-2.623-66.012-14.346-113.138-83.959-114.714-114.111z" fill="#ff4155"/></g><g><path d="m196 132.917v-.005c0-3.045 1.951-5.736 4.829-6.731 8.513-2.944 16.772-2.959 25.337.003 2.88.996 4.834 3.685 4.834 6.733 0 4.883-4.783 8.211-9.427 6.701-5.247-1.706-10.9-1.706-16.147 0-4.642 1.51-9.426-1.818-9.426-6.701z" fill="#934a2e"/></g><g><path d="m316 132.917v-.005c0-3.045-1.951-5.736-4.829-6.731-8.513-2.944-16.772-2.959-25.337.003-2.88.996-4.834 3.685-4.834 6.733 0 4.883 4.783 8.211 9.427 6.701 5.247-1.706 10.9-1.706 16.147 0 4.643 1.51 9.426-1.818 9.426-6.701z" fill="#934a2e"/></g></g></svg>