<svg id="Capa_1" enable-background="new 0 0 512 512" height="512" viewBox="0 0 512 512" width="512" xmlns="http://www.w3.org/2000/svg"><g><g><path d="m40.413 383.484c-18.758-34.645-29.413-74.32-29.413-116.484 0-135.31 109.69-245 245-245s245 109.69 245 245c0 42.164-10.655 81.839-29.413 116.484z" fill="#2d3c6b"/></g><g><circle cx="256" cy="242" fill="#213159" r="200"/></g><g><path d="m256 121.342c-58.069 0-105.143 47.074-105.143 105.143v20.076h210.286v-20.076c0-58.069-47.074-105.143-105.143-105.143z" fill="#e9efff"/></g><g><path d="m256 121.342c-58.069 0-105.143 47.074-105.143 105.143v20.076h105.143z" fill="#dae2fe"/></g><g><path d="m175.693 255.046c4.281 9.642-.591 20.92-10.338 24.957-9.746 4.037-20.92-.591-24.957-10.338-4.037-9.746-7.339-17.717-13.702-33.079-6.363-15.361 32.54-18.606 48.997 18.46z" fill="#fd995b"/></g><g><path d="m336.307 255.046c-4.281 9.642.591 20.92 10.338 24.957 9.746 4.037 20.92-.591 24.957-10.338 4.037-9.746 7.339-17.717 13.702-33.079 6.363-15.361-32.54-18.606-48.997 18.46z" fill="#fcad6d"/></g><g><path d="m452.802 348.297c-1.009-1.204-2.004-2.254-2.98-3.116-19.754-17.442-88.428-32.388-122.078-38.862l-.02.078h-143.875c-33.794 6.515-101.997 21.412-121.671 38.783-.976.862-1.971 1.912-2.98 3.116-5.914 7.056-12.353 19.745-18.785 35.187 37.275 68.843 106.563 117.811 187.903 126.96l27.684-12.975 28.179 12.92c81.126-9.292 150.208-58.2 187.408-126.904-6.433-15.442-12.872-28.131-18.785-35.187z" fill="#38c674"/></g><g><path d="m228.316 510.444c-112.939-43.024-98.701-191.943-98.701-191.943l-.002-.002c-28.016 7.274-55.968 16.557-67.435 26.682-.976.862-1.971 1.912-2.98 3.116-5.914 7.056-12.353 19.745-18.785 35.187 37.275 68.843 106.563 117.811 187.903 126.96z" fill="#21b75d"/></g><g><path d="m228.316 510.434c9.089 1.022 18.322 1.566 27.684 1.566 9.532 0 18.931-.563 28.179-1.623v-204.058h-55.863z" fill="#14a34d"/></g><g><path d="m327.049 214.755c-3.509-10.287-9.219-24.496-16.225-32.717-3.978-3.853-8.145-7.046-12.399-9.103-8.195-3.963-15.758-4.069-22.16-2.497-13.314 3.269-27.216 3.268-40.53 0-6.402-1.572-13.966-1.466-22.16 2.497-4.254 2.057-8.421 5.25-12.399 9.103-7.006 8.221-12.716 22.43-16.225 32.717-2.762 8.097-8.72 14.703-16.484 18.295-.031 1.23-.063 2.46-.063 3.705 0 64.505 39.219 140.155 87.597 140.155s87.597-75.651 87.597-140.155c0-1.245-.032-2.475-.063-3.705-7.766-3.593-13.724-10.198-16.486-18.295z" fill="#f9ba8f"/></g><g><path d="m208.403 236.754c0-25.925 6.339-48.917 17.057-67.152-3.755.312-7.739 1.327-11.885 3.333-4.254 2.057-8.421 5.25-12.399 9.103-7.006 8.221-12.716 22.43-16.225 32.717-2.762 8.097-8.72 14.703-16.484 18.295-.031 1.23-.063 2.46-.063 3.705 0 64.505 39.219 140.155 87.597 140.155 6.881 0 13.576-1.535 20-4.346-38.742-16.953-67.598-80.48-67.598-135.81z" fill="#fcad6d"/></g><g><path d="m365.422 361.802c-4.769-22.196-17.73-36.808-17.753-36.834 15.076-55.758-2.4-110.604-2.4-110.604h-9.758c0 26.658-5.987 46.229-12.465 59.602-5.677 11.719-20.76 14.84-30.771 6.512-8.692-7.231-20.984-14.117-36.275-14.117s-27.583 6.887-36.275 14.117c-10.011 8.328-25.094 5.207-30.771-6.512-6.478-13.373-12.465-32.944-12.465-59.602h-9.758s-17.476 54.846-2.4 110.604c-.023.026-12.984 14.638-17.753 36.834-1.552 7.222 5.511 13.293 12.402 10.632l7.02-2.711s-8.156 14.197-8.023 32.301c.059 8.091 9.835 12.151 15.682 6.558l3.256-3.114s1.753 8.126 6.348 16.639c3.944 7.305 15.038 4.502 15.038-3.799 16.186 18.451 36.541 28.268 57.699 28.268s41.513-9.817 57.699-28.268c3.554 7.107 13.792 6.94 17.064-.301 3.094-6.846 4.322-12.538 4.322-12.538l3.256 3.114c5.847 5.593 15.623 1.534 15.682-6.558.133-18.104-8.023-32.301-8.023-32.301l7.02 2.711c6.891 2.66 13.953-3.411 12.402-10.633z" fill="#e9efff"/></g><g><path d="m251.043 400.447c0 8.065-9.8 12.137-15.456 6.388-20.393-20.727-22.087-51.665-22.087-51.665-2.711 5.409-10.791 4.205-11.757-1.768-3.332-20.603-1.4-51.567 15.422-71.111-9.864 5.939-23 2.434-28.211-8.324-6.478-13.373-12.465-32.944-12.465-59.602h-9.758s-17.476 54.846-2.4 110.604c-.023.026-12.984 14.638-17.753 36.834-1.552 7.222 5.511 13.293 12.402 10.632l7.02-2.711s-8.156 14.197-8.023 32.301c.059 8.091 9.835 12.151 15.682 6.558l3.256-3.114s1.753 8.126 6.348 16.639c3.944 7.305 15.038 4.502 15.038-3.799 16.186 18.451 36.541 28.268 57.699 28.268s41.513-9.817 57.699-28.268c-51.385-.002-62.656-17.862-62.656-17.862z" fill="#dae2fe"/></g><g><path d="m403.883 416.755c-2.535-5.358-10.659-3.046-9.97 2.841 1.323 11.307 5.476 24.808 15.606 38.346 5.425-4.368 10.66-8.963 15.691-13.769-7.218-5.922-15.332-14.749-21.327-27.418z" fill="#21b75d"/></g><g><path d="m108.117 416.755c2.535-5.358 10.659-3.046 9.97 2.841-1.323 11.307-5.476 24.808-15.606 38.346-5.425-4.368-10.66-8.963-15.691-13.769 7.218-5.922 15.332-14.749 21.327-27.418z" fill="#14a34d"/></g><g><path d="m241.144 8.742-95.144 171.258h220l-95.144-171.258c-2.997-5.396-8.684-8.742-14.856-8.742-6.172 0-11.859 3.346-14.856 8.742z" fill="#ff4155"/></g><g><path d="m146 180h110.248v-50.928s-45.727-65.208-15.104-120.33z" fill="#e80054"/></g><g><path d="m376 191.544c0 10.116-10.005 17.184-19.538 13.801-21.289-7.555-58.063-17.823-100.687-17.823-42.513 0-79.027 10.214-100.21 17.764-9.54 3.4-19.566-3.663-19.566-13.791 0-5.624 3.221-10.752 8.288-13.193l93.619-45.1c11.433-5.508 24.752-5.508 36.185 0l93.619 45.1c5.067 2.441 8.288 7.568 8.288 13.193v.049z" fill="#ff596e"/></g><g><path d="m180.374 172.877c0-5.961 2.544-11.316 6.588-15.081l-42.673 20.557c-5.067 2.441-8.288 7.568-8.288 13.193 0 10.128 10.025 17.191 19.566 13.791 10.832-3.861 25.68-8.415 43.283-11.947-10.381-1.076-18.476-9.848-18.476-20.513z" fill="#ff4155"/></g><g><g><path d="m235.384 319.644h41.233c4.111-3.622 7.258-8.309 9.01-13.631 1.584-4.811-2.069-9.754-7.134-9.754h-44.985c-5.065 0-8.718 4.943-7.134 9.754 1.752 5.322 4.899 10.009 9.01 13.631z" fill="#162544"/></g><g><path d="m276.616 319.644c-5.493 4.849-12.714 7.798-20.616 7.798s-15.124-2.948-20.616-7.798c5.5-4.849 12.714-7.798 20.616-7.798s15.116 2.949 20.616 7.798z" fill="#ff4155"/></g></g><g><g><path d="m242.013 271.221 8.436-13.441c2.569-4.093 8.533-4.093 11.102 0l8.436 13.441c2.739 4.365-.398 10.038-5.551 10.038h-16.871c-5.154-.001-8.291-5.674-5.552-10.038z" fill="#fd995b"/></g></g><g><path d="m201.001 240.859c-.043-3.495 1.371-7.004 4.242-9.539 4.675-4.128 11.84-4.128 16.515 0 2.871 2.535 4.284 6.044 4.242 9.539-.055 4.538-5.629 6.716-8.838 3.507-2.022-2.022-5.3-2.022-7.322 0-3.21 3.21-8.784 1.032-8.839-3.507z" fill="#162544"/></g><g><path d="m310.999 240.859c.043-3.495-1.371-7.004-4.242-9.539-4.675-4.128-11.84-4.128-16.515 0-2.871 2.535-4.284 6.044-4.242 9.539.055 4.538 5.629 6.716 8.838 3.507 2.022-2.022 5.3-2.022 7.322 0 3.21 3.21 8.784 1.032 8.839-3.507z" fill="#162544"/></g><g><path d="m196 211.691v-.005c0-3.045 1.951-5.736 4.829-6.731 8.513-2.944 16.772-2.959 25.337.003 2.88.996 4.834 3.685 4.834 6.733 0 4.883-4.783 8.211-9.427 6.701-5.247-1.706-10.9-1.706-16.147 0-4.642 1.51-9.426-1.818-9.426-6.701z" fill="#e9efff"/></g><g><path d="m316 211.691v-.005c0-3.045-1.951-5.736-4.829-6.731-8.513-2.944-16.772-2.959-25.337.003-2.88.996-4.834 3.685-4.834 6.733 0 4.883 4.783 8.211 9.427 6.701 5.247-1.706 10.9-1.706 16.147 0 4.643 1.51 9.426-1.818 9.426-6.701z" fill="#e9efff"/></g></g></svg>