<svg id="Capa_1" enable-background="new 0 0 512 512" height="512" viewBox="0 0 512 512" width="512" xmlns="http://www.w3.org/2000/svg"><g><g><path d="m55.031 407.139c-27.744-39.712-44.031-88.02-44.031-140.139 0-135.31 109.69-245 245-245s245 109.69 245 245c0 52.119-16.287 100.427-44.031 140.139z" fill="#ff4155"/></g><g><circle cx="256" cy="242" fill="#e80054" r="200"/></g><g><g><path d="m71.908 1.575c-7.229 9.43-21.261 31.951-14.549 57.827.742 2.859 4.234 3.968 6.496 2.068 9.549-8.026 29.105-29.191 14.908-59.156-1.291-2.727-5.02-3.133-6.855-.739z" fill="#ffc839"/></g><g><path d="m215.756 142.961c1.485 21.612-5.204 37.469-5.204 37.469s-5.114-27.551-46.089-69.682c-28.17-28.965-33.075-58.106-33.39-73.491-.109-5.313-5.813-8.6-10.512-6.119-24.252 12.8-79.656 53.084-80.978 154.414 0 0-5.537-6.706-11.029-18.269-3.007-6.33-12.397-5.002-13.514 1.916-3.979 24.651-7.342 63.051 1.783 97.107 17.974 67.08 86.924 106.889 154.004 88.914s106.889-86.924 88.914-154.004c-6.849-25.561-19.905-47.559-31.06-62.983-4.228-5.848-13.419-2.472-12.925 4.728z" fill="#ffc839"/></g><g><path d="m235.739 242.784c13.133 49.011-15.984 99.39-65.025 112.467-49.64 13.237-100.483-17.777-113.019-67.599-7.305-29.036-5.108-51.28-3.029-62.325.537-2.854 4.273-3.631 5.883-1.214 14.517 21.798 30.546 29.807 30.546 29.807-29.952-78.823.756-126.5 17.696-145.202 3.563-3.933 10.113-2.169 11.187 3.028 2.557 12.379 9.229 32.256 26.625 50.245 27.834 28.782 50.607 54.101 60.52 91.095 0 0 9.958-17.087 12.273-39.573.347-3.372 4.99-4.016 6.241-.865 3.165 7.97 7.025 18.654 10.102 30.136z" fill="#ff9100"/></g><g><path d="m110.533 320.408c7.043 26.283 34.073 41.873 60.355 34.797 26.603-7.163 41.9-35.199 34.363-61.698-4.393-15.444-11.378-25.185-15.305-29.757-1.015-1.182-2.958-.541-3.058 1.014-.897 14.016-6.194 22.033-6.194 22.033-7.225-44.638-34.27-58.547-47.152-62.69-2.709-.871-5.278 1.704-4.383 4.406 2.132 6.435 4.363 17.455 1.107 30.474-5.209 20.83-8.997 38.695-3.681 58.534 0 0-9.206-5.266-16.311-15.088-1.065-1.473-3.394-.527-3.131 1.272.668 4.548 1.74 10.546 3.39 16.703z" fill="#e80054"/></g></g><g><g><path d="m440.092 1.575c7.229 9.43 21.261 31.951 14.549 57.827-.742 2.859-4.234 3.968-6.495 2.068-9.549-8.026-29.105-29.191-14.908-59.156 1.29-2.727 5.019-3.133 6.854-.739z" fill="#ffc839"/></g><g><path d="m296.244 142.961c-1.485 21.612 5.204 37.469 5.204 37.469s5.114-27.551 46.089-69.682c28.17-28.965 33.075-58.106 33.39-73.491.109-5.313 5.813-8.6 10.512-6.119 24.253 12.801 79.656 53.085 80.978 154.414 0 0 5.537-6.706 11.029-18.269 3.007-6.33 12.397-5.002 13.514 1.916 3.979 24.651 7.342 63.051-1.783 97.107-17.974 67.08-86.924 106.889-154.004 88.914s-106.889-86.924-88.914-154.004c6.849-25.561 19.905-47.559 31.06-62.983 4.228-5.848 13.419-2.472 12.925 4.728z" fill="#ffc839"/></g><g><path d="m276.261 242.784c-13.133 49.011 15.984 99.39 65.025 112.467 49.64 13.237 100.483-17.777 113.018-67.599 7.305-29.036 5.108-51.28 3.029-62.325-.537-2.854-4.273-3.631-5.883-1.214-14.517 21.798-30.546 29.807-30.546 29.807 29.952-78.823-.756-126.5-17.696-145.202-3.563-3.933-10.113-2.169-11.187 3.028-2.557 12.379-9.229 32.256-26.625 50.245-27.834 28.782-50.607 54.101-60.52 91.095 0 0-9.958-17.087-12.273-39.573-.347-3.372-4.99-4.016-6.241-.865-3.164 7.97-7.024 18.654-10.101 30.136z" fill="#ff9100"/></g><g><path d="m401.467 320.408c-7.043 26.283-34.073 41.873-60.355 34.797-26.603-7.163-41.9-35.199-34.363-61.698 4.393-15.444 11.378-25.185 15.305-29.757 1.015-1.182 2.958-.541 3.058 1.014.897 14.016 6.194 22.033 6.194 22.033 7.225-44.638 34.27-58.547 47.152-62.69 2.709-.871 5.278 1.704 4.383 4.406-2.131 6.435-4.363 17.455-1.107 30.474 5.209 20.83 8.997 38.695 3.681 58.534 0 0 9.206-5.266 16.311-15.088 1.065-1.473 3.394-.527 3.13 1.272-.667 4.548-1.739 10.546-3.389 16.703z" fill="#e80054"/></g></g><g><path d="m333.48 46.073s-.921-27.711-14.708-34.073-28.523-12-62.772-12-48.985 5.638-62.772 12-14.708 34.073-14.708 34.073c-17.176 18.715-27.663 43.666-27.663 71.07v30.076h210.286v-30.076c0-27.404-10.488-52.356-27.663-71.07z" fill="#2d3c6b"/></g><g><path d="m225.46 88.696c-33.737-15.087-37.396-76.331-8.841-85.005-9.523 2.198-16.575 5.165-23.391 8.31-13.787 6.362-14.708 34.073-14.708 34.073-17.176 18.715-27.663 43.666-27.663 71.07v30.076h74.603z" fill="#213159"/></g><g><path d="m456.949 407.139c-8.256-22.709-16.99-42.685-24.722-51.911-.904-1.078-1.794-2.019-2.668-2.79-6.623-5.848-19.39-11.382-34.352-16.323-37.928-12.525-89.968-21.232-91.82-21.54h-94.772c-1.853.307-53.892 9.014-91.82 21.54-14.961 4.941-27.729 10.475-34.352 16.323-.874.772-1.765 1.712-2.668 2.79-7.732 9.226-16.467 29.203-24.722 51.911-.001.009-.001.018-.002.026 16.031 22.94 35.89 43.006 58.647 59.276 1.161.43 90.268 33.27 219.085 33.27l.001.006c50.749-16.739 94.163-49.613 124.169-92.552-.003-.008-.003-.017-.004-.026z" fill="#f3d6ac"/></g><g><path d="m212.324 490.14c-59.24-43.55-70.829-123.102-72.894-160.701-7.761 2.068-15.452 4.303-22.637 6.676-14.961 4.941-27.729 10.475-34.352 16.323-.874.772-1.765 1.712-2.668 2.79-7.732 9.226-16.467 29.203-24.722 51.911-.001.009-.001.018-.002.026 16.031 22.94 35.89 43.006 58.647 59.276.747.277 37.905 13.967 98.628 23.699z" fill="#eabe8d"/></g><g><path d="m420.93 426.843v21.327c-7.157 6.519-14.704 12.617-22.599 18.262l12.035-41.103c1.75-5.98 10.564-4.716 10.564 1.514z" fill="#eabe8d"/></g><g><path d="m274.241 474.903-12.405-73.165c-.483-2.847-2.949-4.93-5.836-4.93-2.887 0-5.353 2.083-5.836 4.93l-12.405 73.165z" fill="#eabe8d"/></g><g><path d="m220.83 421.448-35.216-112.753c-8.351 1.651-17.936 3.655-27.004 5.738-2.151.494-5.779 1.376-9.33 2.25-5.713 1.406-9.624 6.708-9.205 12.577 4.604 64.526-26.247 136.799-26.402 137.163 40.116 28.688 89.246 45.577 142.327 45.577 14.994 0 29.671-1.353 43.922-3.933z" fill="#3c5082"/></g><g><path d="m113.673 466.422c40.116 28.689 89.246 45.578 142.327 45.578-88.642-27.558-110.344-118.029-115.464-168.493-.211 60.465-26.719 122.578-26.863 122.915z" fill="#2d3c6b"/></g><g><path d="m332.781 499.711c-80.549-29.757-123.89-123.947-123.89-185.136 0-5.321-4.812-9.344-10.048-8.396-3.725.675-8.259 1.532-13.23 2.515v18.167c0 58.715 39.913 147.804 114.308 181.206 11.241-2.034 22.21-4.844 32.86-8.356z" fill="#4b6496"/></g><g><path d="m91.07 426.843v21.327c7.157 6.519 14.704 12.617 22.599 18.262l-12.035-41.103c-1.75-5.98-10.564-4.716-10.564 1.514z" fill="#d8a97c"/></g><g><path d="m331.058 159.567s10.385-25.285 28.897-19.415-.448 60.664-36.573 64.116z" fill="#f3d6ac"/></g><g><path d="m180.942 159.567s-10.385-25.285-28.897-19.415.448 60.664 36.573 64.116z" fill="#eabe8d"/></g><g><path d="m327.049 124.754c-3.509-10.287-9.219-24.496-16.225-32.717-3.978-3.853-8.145-7.046-12.399-9.103-8.195-3.963-15.758-4.069-22.16-2.497-13.314 3.269-27.216 3.268-40.53 0-6.402-1.572-13.966-1.466-22.16 2.497-4.254 2.057-8.421 5.25-12.399 9.103-7.006 8.221-12.716 22.43-16.225 32.717-2.762 8.097-8.72 14.703-16.484 18.295-.031 1.23-.063 2.46-.063 3.705 0 64.505 39.219 140.155 87.597 140.155s87.597-75.651 87.597-140.155c0-1.245-.032-2.475-.063-3.705-7.766-3.592-13.724-10.198-16.486-18.295z" fill="#f8e6cc"/></g><g><path d="m208.403 146.754c0-25.925 6.339-48.917 17.057-67.152-3.755.312-7.739 1.327-11.885 3.333-4.254 2.057-8.421 5.25-12.399 9.103-7.006 8.221-12.716 22.43-16.225 32.717-2.762 8.097-8.72 14.703-16.484 18.295-.031 1.23-.063 2.46-.063 3.705 0 64.505 39.219 140.155 87.597 140.155 6.881 0 13.576-1.535 20-4.346-38.742-16.953-67.598-80.48-67.598-135.81z" fill="#f3d6ac"/></g><g><path d="m365.422 281.802c-4.769-22.196-17.73-36.808-17.753-36.834 15.076-55.758-2.4-110.604-2.4-110.604h-9.758c0 26.658-5.987 46.229-12.465 59.602-5.677 11.719-20.76 14.84-30.771 6.512-8.692-7.231-20.984-14.117-36.275-14.117s-27.583 6.886-36.275 14.117c-10.011 8.328-25.094 5.207-30.771-6.512-6.478-13.373-12.465-32.944-12.465-59.602h-9.758s-17.476 54.846-2.4 110.604c-.023.026-12.984 14.638-17.753 36.834-1.552 7.222 5.511 13.293 12.402 10.632l7.02-2.711s-8.156 14.197-8.023 32.301c.059 8.091 9.835 12.151 15.682 6.558l3.256-3.114s1.753 8.126 6.348 16.639c3.944 7.305 15.038 4.502 15.038-3.799 16.186 18.451 36.541 28.268 57.699 28.268s41.513-9.817 57.699-28.268c3.554 7.107 13.792 6.94 17.064-.301 3.094-6.846 4.322-12.538 4.322-12.538l3.256 3.114c5.847 5.593 15.623 1.534 15.682-6.558.133-18.104-8.023-32.301-8.023-32.301l7.02 2.711c6.891 2.66 13.953-3.411 12.402-10.633z" fill="#2d3c6b"/></g><g><g><path d="m235.386 242.667c-1.384 0-2.762-.571-3.75-1.691-1.828-2.07-1.631-5.229.439-7.057 6.609-5.836 15.106-9.05 23.925-9.05s17.316 3.214 23.926 9.05c2.07 1.828 2.267 4.988.438 7.058s-4.987 2.265-7.058.438c-4.78-4.221-10.927-6.546-17.307-6.546-6.379 0-12.526 2.325-17.307 6.546-.95.84-2.13 1.252-3.306 1.252z" fill="#162544"/></g></g><g><path d="m251.043 320.447c0 8.065-9.8 12.137-15.456 6.388-20.393-20.727-22.087-51.665-22.087-51.665-2.711 5.409-10.791 4.205-11.757-1.768-3.332-20.603-1.4-51.567 15.422-71.111-9.864 5.939-23 2.434-28.211-8.324-6.478-13.373-12.465-32.944-12.465-59.602h-9.758s-17.476 54.846-2.4 110.604c-.023.026-12.984 14.638-17.753 36.834-1.552 7.222 5.511 13.293 12.402 10.632l7.02-2.711s-8.156 14.197-8.023 32.301c.059 8.091 9.835 12.151 15.682 6.558l3.256-3.114s1.753 8.126 6.348 16.639c3.944 7.305 15.038 4.502 15.038-3.799 16.186 18.451 36.541 28.268 57.699 28.268s41.513-9.817 57.699-28.268c-51.385-.002-62.656-17.862-62.656-17.862z" fill="#213159"/></g><g><g><path d="m242.013 192.447 8.436-13.441c2.569-4.093 8.533-4.093 11.102 0l8.436 13.441c2.739 4.365-.398 10.038-5.551 10.038h-16.871c-5.154-.001-8.291-5.674-5.552-10.038z" fill="#eabe8d"/></g></g><g><path d="m223.5 138.968h-20c-4.142 0-7.5-3.358-7.5-7.5 0-4.142 3.358-7.5 7.5-7.5h20c4.142 0 7.5 3.358 7.5 7.5 0 4.142-3.358 7.5-7.5 7.5z" fill="#162544"/></g><g><path d="m308.5 138.968h-20c-4.142 0-7.5-3.358-7.5-7.5 0-4.142 3.358-7.5 7.5-7.5h20c4.142 0 7.5 3.358 7.5 7.5 0 4.142-3.358 7.5-7.5 7.5z" fill="#162544"/></g><g><path d="m223.5 158.229c0 5.523-4.477 10-10 10s-10-4.477-10-10 20-5.523 20 0z" fill="#162544"/></g><g><path d="m288.5 158.229c0 5.523 4.477 10 10 10s10-4.477 10-10-20-5.523-20 0z" fill="#162544"/></g></g></svg>