<svg id="Capa_1" enable-background="new 0 0 512 512" height="512" viewBox="0 0 512 512" width="512" xmlns="http://www.w3.org/2000/svg"><g><g><path d="m456.969 407.139c27.744-39.712 44.031-88.02 44.031-140.139 0-135.31-109.69-245-245-245s-245 109.69-245 245c0 52.119 16.287 100.427 44.031 140.139z" fill="#49d88b"/></g><g><circle cx="256" cy="242" fill="#38c674" r="200"/></g><g><path d="m290.617 195.255s83.316-12.193 136.564 53.767c4.667 5.781 1.568 14.484-5.7 16.028-29.594 6.288-91.418 27.08-91.418 91.056l-26.678-41.027z" fill="#3c5082"/></g><g><path d="m221.383 195.255s-83.316-12.193-136.564 53.767c-4.667 5.781-1.568 14.484 5.7 16.028 29.594 6.288 91.418 27.08 91.418 91.056l26.678-41.027z" fill="#3c5082"/></g><g><path d="m456.949 407.139c-8.256-22.709-16.99-42.685-24.722-51.911-.904-1.078-1.794-2.019-2.668-2.79-6.623-5.848-19.39-11.382-34.352-16.323-37.928-12.525-89.968-21.232-91.82-21.54h-94.772c-1.853.307-53.892 9.014-91.82 21.54-14.961 4.941-27.729 10.475-34.352 16.323-.874.772-1.765 1.712-2.668 2.79-7.732 9.226-16.467 29.203-24.722 51.911-.001.009-.001.018-.002.026 32.703 46.798 81.336 81.626 138.03 96.654l62.919-15.968 62.921 15.968c56.694-15.027 105.327-49.856 138.03-96.654-.001-.008-.001-.017-.002-.026z" fill="#2d3c6b"/></g><g><path d="m218.514 497.364c-67.373-58.308-83.845-132.426-87.87-165.498-4.742 1.359-9.394 2.777-13.85 4.249-14.961 4.941-27.729 10.475-34.352 16.323-.874.772-1.765 1.712-2.668 2.79-7.732 9.226-16.467 29.203-24.722 51.911-.001.009-.001.018-.002.026 32.708 46.805 81.357 81.625 138.063 96.645z" fill="#213159"/></g><g><path d="m91.07 426.843v21.327c7.157 6.519 14.704 12.617 22.599 18.262l-12.035-41.103c-1.75-5.98-10.564-4.716-10.564 1.514z" fill="#162544"/></g><g><path d="m420.93 426.843v21.327c-7.157 6.519-14.704 12.617-22.599 18.262l12.035-41.103c1.75-5.98 10.564-4.716 10.564 1.514z" fill="#213159"/></g><g><path d="m376.363 400.049c-12.574-62.943-53.75-134.554-120.363-134.554s-107.789 71.611-120.363 134.554c-2.232 11.171 4.616 22.15 15.628 25.069l1.946.516c6.666 1.767 12.085 6.615 14.579 13.045l25.27 65.146c6.479 1.717 13.066 3.167 19.743 4.357l43.197-20.331 43.197 20.329c6.677-1.19 13.264-2.639 19.743-4.357l25.27-65.146c2.494-6.43 7.913-11.278 14.579-13.045l1.946-.516c11.012-2.917 17.86-13.896 15.628-25.067z" fill="#3c5082"/></g><g><path d="m256 487.851 22.688 10.677 36.968-181.708h-119.352l37.006 181.709z" fill="#bec8f7"/></g><g><path d="m208.614 221.239v93.336s19.021 20.093 47.17 20.093c.073 0 .143-.005.216-.005 28.031-.103 47.386-20.088 47.386-20.088v-93.336z" fill="#213159"/></g><g><path d="m196.304 316.82v-39.119h9.637c1.885 0 3.728.553 5.302 1.589l26.743 17.618c11.233 7.4 17.994 19.951 17.994 33.403v14.356c-38.299.001-59.676-27.847-59.676-27.847z" fill="#e9efff"/></g><g><path d="m315.656 316.82v-39.119h-9.637c-1.885 0-3.728.553-5.302 1.589l-26.743 17.618c-11.233 7.4-17.994 19.951-17.994 33.403v14.356c38.299.001 59.676-27.847 59.676-27.847z" fill="#e9efff"/></g><g><path d="m268.494 0h-24.988c-4.372 0-8.241 2.83-9.539 7.005-3.863 12.425-14.885 38.205-42.196 50.889h128.46c-27.312-12.684-38.334-38.464-42.198-50.889-1.298-4.175-5.167-7.005-9.539-7.005z" fill="#a05838"/></g><g><g><ellipse cx="171.74" cy="170.669" fill="#ffb332" rx="64.396" ry="113.991" transform="matrix(.99 -.14 .14 .99 -22.16 25.668)"/></g><g><ellipse cx="203.855" cy="162.78" fill="#ffc839" rx="64.272" ry="121.348" transform="matrix(.998 -.071 .071 .998 -11.079 14.937)"/></g><g><ellipse cx="340.26" cy="170.669" fill="#ffb332" rx="113.991" ry="64.396" transform="matrix(.14 -.99 .99 .14 123.726 483.747)"/></g><g><ellipse cx="308.145" cy="162.78" fill="#ffc839" rx="121.348" ry="64.272" transform="matrix(.071 -.998 .998 .071 123.826 458.546)"/></g><g><ellipse cx="256" cy="158.91" fill="#ffdd40" rx="64.23" ry="125"/></g><g><path d="m232.248 107.284c3.23.866 4.94 4.425 3.557 7.471-7.585 16.71-26.352 25.973-44.662 21.067-18.309-4.906-29.931-22.311-28.145-40.575.326-3.329 3.586-5.557 6.816-4.691z" fill="#ff9100"/></g><g><path d="m279.752 107.284c-3.23.866-4.94 4.425-3.557 7.471 7.585 16.71 26.352 25.973 44.662 21.067 18.309-4.906 29.931-22.311 28.145-40.575-.326-3.329-3.586-5.557-6.816-4.691z" fill="#ff9100"/></g><g><path d="m319.691 166.161v1.726c0 4.026-3.263 7.289-7.289 7.289h-18.031c-4.026 0-7.289-3.263-7.289-7.289v-1.726c0-4.026-3.263-7.289-7.289-7.289h-47.586c-4.026 0-7.289 3.263-7.289 7.289v1.726c0 4.026-3.263 7.289-7.289 7.289h-18.031c-4.026 0-7.289-3.263-7.289-7.289v-1.726c0-4.026-3.263-7.289-7.289-7.289h-21.557c-5.585 0-9.088 6.016-6.344 10.88 8.334 14.777 28.924 40.151 74.178 47.094 4.415.677 8.399-2.74 8.399-7.207 0-4.026 3.263-7.289 7.289-7.289h18.031c4.026 0 7.289 3.263 7.289 7.289 0 4.467 3.984 7.884 8.399 7.207 45.253-6.943 65.843-32.316 74.178-47.094 2.744-4.865-.759-10.88-6.344-10.88h-21.558c-4.026 0-7.289 3.263-7.289 7.289z" fill="#ff9100"/></g></g><g><path d="m212.769 508.196c14.033 2.499 28.48 3.804 43.231 3.804s29.198-1.305 43.231-3.804c2.448-109.775-43.231-180.365-43.231-180.365s-45.679 70.59-43.231 180.365z" fill="#ff596e"/></g><g><path d="m299.231 508.196c-39.029-29.366-60.837-109.036-43.578-179.813-4.176 6.732-45.207 75.616-42.884 179.813 14.033 2.499 28.48 3.804 43.231 3.804s29.198-1.305 43.231-3.804z" fill="#ff4155"/></g><g><ellipse cx="255.784" cy="327.831" fill="#ffdd40" rx="20" ry="25"/></g><g><path d="m250.337 327.831c0-10.597 5.277-19.647 12.723-23.286-2.256-1.102-4.708-1.714-7.277-1.714-11.046 0-20 11.193-20 25s8.954 25 20 25c2.568 0 5.021-.612 7.277-1.714-7.445-3.639-12.723-12.689-12.723-23.286z" fill="#ffc839"/></g></g></svg>