<svg id="Capa_1" enable-background="new 0 0 512 512" height="512" viewBox="0 0 512 512" width="512" xmlns="http://www.w3.org/2000/svg"><g><g><path d="m456.951 407.166c27.755-39.718 44.049-88.036 44.049-140.166 0-135.31-109.69-245-245-245s-245 109.69-245 245c0 52.13 16.294 100.448 44.049 140.166z" fill="#ffdd40"/></g><g><circle cx="256" cy="242" fill="#ffc839" r="200"/></g><g><path d="m456.949 407.139c-8.256-22.709-16.99-42.685-24.722-51.911-.904-1.078-1.794-2.019-2.668-2.79-6.623-5.848-19.39-11.382-34.352-16.323-37.928-12.525-89.968-21.232-91.82-21.54v-93.336h-94.772v93.336c-1.853.307-53.892 9.014-91.82 21.54-14.961 4.941-27.729 10.475-34.352 16.323-.874.772-1.765 1.712-2.668 2.79-7.732 9.226-16.467 29.203-24.722 51.911-.001.009-.001.018-.002.026 44.284 63.374 117.769 104.835 200.949 104.835s156.665-41.461 200.951-104.835c-.001-.008-.001-.017-.002-.026z" fill="#ff4155"/></g><g><path d="m147.073 337.988c-.424-3.58-.763-7-1.034-10.266-9.967 2.528-20.023 5.347-29.245 8.393-14.961 4.941-27.729 10.475-34.352 16.323-.874.772-1.765 1.712-2.668 2.79-7.732 9.226-16.467 29.203-24.722 51.911-.001.009-.001.018-.002.026 44.285 63.374 117.77 104.835 200.95 104.835-56.665-26.802-98.999-92.949-108.927-174.012z" fill="#e80054"/></g><g><path d="m276.616 369.362s10.767-11.809 23.703-11.809 55.191 11.809 55.191 11.809z" fill="#e80054"/></g><g><path d="m235.384 369.362s-10.767-11.809-23.703-11.809-55.191 11.809-55.191 11.809z" fill="#e80054"/></g><g><path d="m91.07 426.843v21.327c7.157 6.519 14.704 12.617 22.599 18.262l-12.035-41.103c-1.75-5.98-10.564-4.716-10.564 1.514z" fill="#cc0053"/></g><g><path d="m420.93 426.843v21.327c-7.157 6.519-14.704 12.617-22.599 18.262l12.035-41.103c1.75-5.98 10.564-4.716 10.564 1.514z" fill="#e80054"/></g><g><path d="m256 512c27.792 0 54.498-4.635 79.398-13.162l-44.768-7.557c-8.391-1.416-14.967-7.988-16.39-16.378l-12.405-73.165c-.483-2.847-2.949-4.93-5.836-4.93-2.887 0-5.353 2.083-5.836 4.93l-12.405 73.165c-1.423 8.39-7.998 14.961-16.39 16.378l-44.768 7.557c24.902 8.527 51.608 13.162 79.4 13.162z" fill="#e80054"/></g><g><path d="m355.547 83.218c-12.65-41.159-45.137-83.218-80.681-83.218-12.234 0-18.866 12-18.866 12s-6.632-12-18.866-12c-35.545 0-68.033 42.062-80.682 83.222-3.586 10.526-5.547 21.804-5.589 33.534-.001.128-.005.259-.005.387v30.076h210.286v-30.076c-.001-11.871-1.971-23.282-5.597-33.925z" fill="#2d3c6b"/></g><g><path d="m208.916 147.218v-12.854c-19.658-17.231-40.8-96.13-.303-125.564-23.524 14.475-43.023 44.682-52.162 74.423-3.586 10.526-5.547 21.804-5.589 33.534-.001.128-.005.259-.005.387v30.076h58.059z" fill="#213159"/></g><g><path d="m185.693 165.046c4.281 9.642-.591 20.92-10.338 24.957-9.746 4.037-20.92-.591-24.957-10.338-4.037-9.746-7.339-17.717-13.702-33.079s32.54-18.606 48.997 18.46z" fill="#e80054"/></g><g><path d="m326.307 165.046c-4.281 9.642.591 20.92 10.338 24.957 9.746 4.037 20.92-.591 24.957-10.338 4.037-9.746 7.339-17.717 13.702-33.079 6.363-15.361-32.54-18.606-48.997 18.46z" fill="#ff4155"/></g><g><path d="m342.965 161.158h-173.93l-23.641 23.58c-6.099 6.083-7.619 15.379-3.774 23.087 14.451 28.969 54.156 95.399 114.38 95.399s99.929-66.43 114.38-95.399c3.845-7.708 2.324-17.004-3.774-23.087z" fill="#213159"/></g><g><path d="m255.784 82.484s-19.69 60.442-87.333 60.562c-.029 1.23-.049 2.464-.049 3.708 0 64.505 39.219 140.155 87.597 140.155s87.597-75.651 87.597-140.155c0-1.244-.02-2.478-.049-3.708-67.642-.12-87.763-60.562-87.763-60.562z" fill="#ff596e"/></g><g><path d="m208.403 146.754c0-4.214.187-8.339.513-12.39-11.036 5.219-24.395 8.653-40.465 8.682-.029 1.23-.049 2.464-.049 3.708 0 64.505 39.219 140.155 87.597 140.155 6.881 0 13.576-1.535 20-4.346-38.74-16.952-67.596-80.479-67.596-135.809z" fill="#ff4155"/></g><g><path d="m231.9 68.783c-5.914 5.914-15.113 6.98-22.229 2.585-13.71-8.467-35.591-20.871-45.747-20.612-15.39.392-13.921 26.253-20.546 27.878s-11.966-31.695 6.148-49.809c15.431-15.431 49.48-10.272 80.341 12.708 8.841 6.582 9.827 19.456 2.033 27.25z" fill="#ff596e"/></g><g><path d="m280.1 68.783c5.914 5.914 15.113 6.98 22.229 2.585 13.71-8.467 35.591-20.871 45.747-20.612 15.39.392 13.921 26.253 20.546 27.878s11.966-31.695-6.148-49.809c-15.431-15.431-49.48-10.272-80.341 12.708-8.841 6.582-9.827 19.456-2.033 27.25z" fill="#ff596e"/></g><g><path d="m229.868 41.533c-9.363-6.972-19.018-12.292-28.359-15.906 5.903 2.975 9.954 9.086 9.954 16.147 0 9.982-8.092 18.075-18.075 18.075-1.928 0-3.785-.305-5.527-.864 7.714 3.908 15.6 8.548 21.81 12.384 7.116 4.395 16.315 3.329 22.229-2.585 7.794-7.795 6.808-20.669-2.032-27.251z" fill="#ff4155"/></g><g><path d="m282.132 41.533c9.363-6.972 19.018-12.292 28.359-15.906-5.903 2.975-9.954 9.086-9.954 16.147 0 9.982 8.092 18.075 18.075 18.075 1.928 0 3.785-.305 5.527-.864-7.714 3.908-15.6 8.548-21.81 12.384-7.116 4.395-16.315 3.329-22.229-2.585-7.794-7.795-6.808-20.669 2.032-27.251z" fill="#ff4155"/></g><g><g><path d="m303.061 209.8-.1-.07c-2.805-1.955-6.583-1.512-8.948.957-2.652 2.768-5.592 4.986-8.798 6.766v.019l-8.768 9.541-12.762-3.758v-.008c-2.473.189-5.029.285-7.685.285s-5.211-.096-7.685-.285v.008l-12.762 3.758-8.768-9.541v-.019c-3.206-1.78-6.146-3.998-8.798-6.766-2.365-2.469-6.144-2.911-8.948-.957l-.1.07c-2.923 2.037-3.801 5.972-2.02 9.058l17.298 29.983c3.508 6.08 9.994 9.826 17.013 9.826h29.541c7.019 0 13.505-3.746 17.013-9.826l17.298-29.983c1.78-3.086.902-7.021-2.021-9.058z" fill="#cc0053"/></g><g><path d="m226.785 217.471 3.839 15.977c.761 3.169 4.765 4.184 6.944 1.76l10.747-11.954c-8.185-.623-15.368-2.364-21.53-5.783z" fill="#e9efff"/></g><g><path d="m263.684 223.254 10.747 11.954c2.179 2.424 6.182 1.409 6.944-1.76l3.839-15.977c-6.161 3.419-13.344 5.16-21.53 5.783z" fill="#e9efff"/></g></g><g><path d="m221.218 148.301-19.319-5.176c-4.001-1.072-6.375-5.185-5.303-9.186 1.072-4.001 5.185-6.375 9.186-5.303l19.319 5.176c4.001 1.072 6.375 5.185 5.303 9.186-1.072 4-5.185 6.375-9.186 5.303z" fill="#162544"/></g><g><path d="m310.1 143.124-19.319 5.176c-4.001 1.072-8.114-1.302-9.186-5.303-1.072-4.001 1.302-8.114 5.303-9.186l19.319-5.176c4.001-1.072 8.114 1.302 9.186 5.303 1.073 4.002-1.302 8.114-5.303 9.186z" fill="#162544"/></g><g><path d="m223.5 158.229c0 5.523-4.477 10-10 10s-10-4.477-10-10 20-5.523 20 0z" fill="#162544"/></g><g><path d="m288.5 158.229c0 5.523 4.477 10 10 10s10-4.477 10-10-20-5.523-20 0z" fill="#162544"/></g><g><g><path d="m242.013 192.447 8.436-13.441c2.569-4.093 8.533-4.093 11.102 0l8.436 13.441c2.739 4.365-.398 10.038-5.551 10.038h-16.871c-5.154-.001-8.291-5.674-5.552-10.038z" fill="#e80054"/></g></g></g></svg>