<svg id="Capa_1" enable-background="new 0 0 512 512" height="512" viewBox="0 0 512 512" width="512" xmlns="http://www.w3.org/2000/svg"><g><g><path d="m11.066 272.19 38.925 38.925h412.018l38.925-38.925.008.02c.036-1.732.057-3.469.057-5.21 0-135.31-109.69-245-245-245s-244.999 109.69-244.999 245c0 1.741.021 3.477.057 5.21z" fill="#2d3c6b"/></g><g><circle cx="256" cy="242" fill="#213159" r="200"/></g><g><path d="m60.162 369.043h391.676l41.647-41.647c4.486-17.691 7.048-36.149 7.448-55.139h-6.055c-32.082 2.825-35.284 19.594-73.215 19.594-41.418 0-41.418-20-82.837-20-41.417 0-41.417 20-82.833 20-41.415 0-41.415-20-82.831-20s-41.416 20-82.832 20c-37.928 0-41.13-16.77-73.209-19.594l-6.056-.066c.395 19.015 2.959 37.495 7.45 55.207z" fill="#4fabf7"/></g><g><path d="m55.031 407.139h401.938c16.649-23.831 29.166-50.761 36.519-79.749-30.792 3.179-34.449 19.461-71.825 19.461-41.418 0-41.418-20-82.837-20-41.417 0-41.417 20-82.833 20-41.415 0-41.415-20-82.831-20s-41.416 20-82.832 20c-37.373 0-41.029-16.282-71.819-19.461 7.354 28.988 19.871 55.918 36.52 79.749z" fill="#73c3f9"/></g><g><path d="m363.608 162.915h-212.948c0 38.808-38.808 73.896-38.808 132.033s30 95 30 95h230.565s30-36.863 30-95-38.809-93.225-38.809-132.033z" fill="#bec8f7"/></g><g><path d="m355.547 83.218c-12.65-41.159-45.137-83.218-80.681-83.218-12.234 0-18.866 12-18.866 12s-6.632-12-18.866-12c-35.545 0-68.033 42.062-80.682 83.222-3.586 10.526-5.547 21.804-5.589 33.534-.001.128-.005.259-.005.387v30.076h210.286v-30.076c-.001-11.871-1.971-23.282-5.597-33.925z" fill="#e9efff"/></g><g><path d="m225.46 147.218v-67.616c-21.838-14.207-31.609-62.729 1.325-78.424-31.374 7.066-58.924 44.919-70.333 82.045-3.586 10.527-5.547 21.804-5.589 33.534-.001.128-.005.259-.005.386v30.076h74.602z" fill="#dae2fe"/></g><g><path d="m256 512c83.18 0 156.665-41.461 200.951-104.835-.001-.009-.001-.017-.002-.026-8.256-22.709-16.99-42.685-24.722-51.911-.904-1.078-1.794-2.019-2.668-2.79-6.623-5.848-19.39-11.382-34.352-16.323-37.928-12.525-89.968-21.232-91.82-21.54h-94.772c-1.853.307-53.892 9.014-91.82 21.54-14.961 4.941-27.729 10.475-34.352 16.323-.874.772-1.765 1.712-2.668 2.79-7.732 9.226-16.467 29.203-24.722 51.911-.001.009-.001.018-.002.026 44.284 63.374 117.769 104.835 200.949 104.835z" fill="#fcad6d"/></g><g><path d="m139.431 329.439c-7.761 2.068-15.452 4.303-22.637 6.676-14.961 4.941-27.729 10.475-34.352 16.323-.874.772-1.765 1.712-2.668 2.79-7.732 9.226-16.467 29.203-24.722 51.911-.001.009-.001.018-.002.026 44.285 63.374 117.77 104.835 200.95 104.835-97.665-30.364-114.074-137.112-116.569-182.561z" fill="#fd995b"/></g><g><path d="m420.93 426.843v21.327c-7.157 6.519-14.704 12.617-22.599 18.262l12.035-41.103c1.75-5.98 10.564-4.716 10.564 1.514z" fill="#fd995b"/></g><g><path d="m256 512c27.792 0 54.498-4.635 79.398-13.162l-44.768-7.557c-8.391-1.416-14.967-7.988-16.39-16.378l-12.405-73.165c-.483-2.847-2.949-4.93-5.836-4.93-2.887 0-5.353 2.083-5.836 4.93l-12.405 73.165c-1.423 8.39-7.998 14.961-16.39 16.378l-44.768 7.557c24.902 8.527 51.608 13.162 79.4 13.162z" fill="#fd995b"/></g><g><path d="m200.999 314.575-97.965 13.481c-8.357 1.15-12.778 10.576-8.243 17.689 33.915 53.202 93.44 88.489 161.209 88.489s127.294-35.287 161.209-88.488c4.534-7.113.113-16.539-8.243-17.689l-97.965-13.482z" fill="#ffdd40"/></g><g><path d="m157.93 320.502-54.896 7.554c-8.357 1.15-12.778 10.576-8.244 17.689 33.915 53.202 93.44 88.489 161.209 88.489-56.481-20.089-91.054-72.343-98.069-113.732z" fill="#ffc839"/></g><g><path d="m208.614 220.734v93.841c94.723 0 94.772-53.4 94.772-53.4v-40.44h-94.772z" fill="#eabe8d"/></g><g><path d="m91.07 426.843v21.327c7.157 6.519 14.704 12.617 22.599 18.262l-12.035-41.103c-1.75-5.98-10.564-4.716-10.564 1.514z" fill="#ef854b"/></g><g><path d="m331.058 159.567s10.385-25.285 28.897-19.415-.448 60.664-36.573 64.116z" fill="#fcad6d"/></g><g><path d="m180.942 159.567s-10.385-25.285-28.897-19.415.448 60.664 36.573 64.116z" fill="#fd995b"/></g><g><path d="m327.049 124.754c-3.509-10.287-9.219-24.496-16.225-32.717-3.978-3.853-8.145-7.046-12.399-9.103-8.195-3.963-15.758-4.069-22.16-2.497-13.314 3.269-27.216 3.268-40.53 0-6.402-1.572-13.966-1.466-22.16 2.497-4.254 2.057-8.421 5.25-12.399 9.103-7.006 8.221-12.716 22.43-16.225 32.717-2.762 8.097-8.72 14.703-16.484 18.295-.031 1.23-.063 2.46-.063 3.705 0 64.505 39.219 140.155 87.597 140.155s87.597-75.651 87.597-140.155c0-1.245-.032-2.475-.063-3.705-7.766-3.592-13.724-10.198-16.486-18.295z" fill="#f9ba8f"/></g><g><path d="m208.403 146.754c0-25.925 6.339-48.917 17.057-67.152-3.755.312-7.739 1.327-11.885 3.333-4.254 2.057-8.421 5.25-12.399 9.103-7.006 8.221-12.716 22.43-16.225 32.717-2.762 8.097-8.72 14.703-16.484 18.295-.031 1.23-.063 2.46-.063 3.705 0 64.505 39.219 140.155 87.597 140.155 6.881 0 13.576-1.535 20-4.346-38.742-16.953-67.598-80.48-67.598-135.81z" fill="#fcad6d"/></g><g><path d="m365.422 281.802c-4.769-22.196-17.73-36.808-17.753-36.834 15.076-55.758-2.4-110.604-2.4-110.604h-9.758c0 26.658-5.987 46.229-12.465 59.602-5.677 11.719-20.76 14.84-30.771 6.512-8.692-7.231-20.984-14.117-36.275-14.117s-27.583 6.886-36.275 14.117c-10.011 8.328-25.094 5.207-30.771-6.512-6.478-13.373-12.465-32.944-12.465-59.602h-9.758s-17.476 54.846-2.4 110.604c-.023.026-12.984 14.638-17.753 36.834-1.552 7.222 5.511 13.293 12.402 10.632l7.02-2.711s-8.156 14.197-8.023 32.301c.059 8.091 9.835 12.151 15.682 6.558l3.256-3.114s1.753 8.126 6.348 16.639c3.944 7.305 15.038 4.502 15.038-3.799 16.186 18.451 36.541 28.268 57.699 28.268s41.513-9.817 57.699-28.268c3.554 7.107 13.792 6.94 17.064-.301 3.094-6.846 4.322-12.538 4.322-12.538l3.256 3.114c5.847 5.593 15.623 1.534 15.682-6.558.133-18.104-8.023-32.301-8.023-32.301l7.02 2.711c6.891 2.66 13.953-3.411 12.402-10.633z" fill="#e9efff"/></g><g><g><path d="m235.384 240.87h41.233c4.111-3.622 7.258-8.309 9.01-13.631 1.584-4.811-2.069-9.754-7.134-9.754h-44.985c-5.065 0-8.718 4.943-7.134 9.754 1.752 5.322 4.899 10.009 9.01 13.631z" fill="#162544"/></g><g><path d="m276.616 240.87c-5.493 4.849-12.714 7.798-20.616 7.798s-15.124-2.948-20.616-7.798c5.5-4.849 12.714-7.798 20.616-7.798s15.116 2.949 20.616 7.798z" fill="#ff4155"/></g></g><g><path d="m251.043 320.447c0 8.065-9.8 12.137-15.456 6.388-20.393-20.727-22.087-51.665-22.087-51.665-2.711 5.409-10.791 4.205-11.757-1.768-3.332-20.603-1.4-51.567 15.422-71.111-9.864 5.939-23 2.434-28.211-8.324-6.478-13.373-12.465-32.944-12.465-59.602h-9.758s-17.476 54.846-2.4 110.604c-.023.026-12.984 14.638-17.753 36.834-1.552 7.222 5.511 13.293 12.402 10.632l7.02-2.711s-8.156 14.197-8.023 32.301c.059 8.091 9.835 12.151 15.682 6.558l3.256-3.114s1.753 8.126 6.348 16.639c3.944 7.305 15.038 4.502 15.038-3.799 16.186 18.451 36.541 28.268 57.699 28.268s41.513-9.817 57.699-28.268c-51.385-.002-62.656-17.862-62.656-17.862z" fill="#dae2fe"/></g><g><g><path d="m242.013 192.447 8.436-13.441c2.569-4.093 8.533-4.093 11.102 0l8.436 13.441c2.739 4.365-.398 10.038-5.551 10.038h-16.871c-5.154-.001-8.291-5.674-5.552-10.038z" fill="#fd995b"/></g></g><g><path d="m201.001 162.085c-.043-3.495 1.371-7.004 4.242-9.539 4.675-4.128 11.84-4.128 16.515 0 2.871 2.535 4.284 6.044 4.242 9.539-.055 4.538-5.629 6.716-8.838 3.507-2.022-2.022-5.3-2.022-7.322 0-3.21 3.21-8.784 1.032-8.839-3.507z" fill="#421f3f"/></g><g><path d="m310.999 162.085c.043-3.495-1.371-7.004-4.242-9.539-4.675-4.128-11.84-4.128-16.515 0-2.871 2.535-4.284 6.044-4.242 9.539.055 4.538 5.629 6.716 8.838 3.507 2.022-2.022 5.3-2.022 7.322 0 3.21 3.21 8.784 1.032 8.839-3.507z" fill="#421f3f"/></g><g><path d="m196 132.917v-.005c0-3.045 1.951-5.736 4.829-6.731 8.513-2.944 16.772-2.959 25.337.003 2.88.996 4.834 3.685 4.834 6.733 0 4.883-4.783 8.211-9.427 6.701-5.247-1.706-10.9-1.706-16.147 0-4.642 1.51-9.426-1.818-9.426-6.701z" fill="#e9efff"/></g><g><path d="m316 132.917v-.005c0-3.045-1.951-5.736-4.829-6.731-8.513-2.944-16.772-2.959-25.337.003-2.88.996-4.834 3.685-4.834 6.733 0 4.883 4.783 8.211 9.427 6.701 5.247-1.706 10.9-1.706 16.147 0 4.643 1.51 9.426-1.818 9.426-6.701z" fill="#e9efff"/></g><g><g><g><path d="m313.498 28.269c-3.46 0-6.313 2.656-6.621 6.102-.897 10.042-4.003 19.888-9.189 29.057-5.691 10.063-20.187 10.063-25.878 0-5.186-9.169-8.292-19.015-9.189-29.057-.308-3.446-3.161-6.102-6.621-6.102-3.461 0-6.314 2.655-6.622 6.102-.897 10.043-4.003 19.888-9.189 29.057l-.001.001c-5.691 10.063-20.187 10.063-25.878 0l-.001-.001c-5.186-9.169-8.292-19.015-9.189-29.057-.308-3.447-3.161-6.103-6.622-6.102-3.46 0-6.313 2.656-6.621 6.102-.897 10.042-4.003 19.888-9.189 29.057-5.691 10.063-20.187 10.063-25.878 0l-3.368-5.955c-3.365-5.951-12.442-3.562-12.442 3.275v46.56c0 5.521 4.475 9.996 9.996 9.996h105.004 105.004c5.521 0 9.996-4.476 9.996-9.996v-46.56c0-6.837-9.076-9.226-12.442-3.275l-3.369 5.957c-5.691 10.063-20.187 10.063-25.878 0l-.001-.001c-5.186-9.169-8.292-19.015-9.189-29.057-.309-3.448-3.162-6.103-6.623-6.103z" fill="#ffdd40"/></g></g></g><g><path d="m156.81 63.428-3.368-5.955c-3.365-5.951-12.442-3.562-12.442 3.275v46.56c0 5.521 4.476 9.996 9.996 9.996h60.299c-16.343-16.248-19.418-38.56-19.418-82.934-.897 10.042-4.003 19.888-9.189 29.057-5.691 10.064-20.186 10.064-25.878.001z" fill="#ffc839"/></g><g><path d="m140.365 86.38h233.537c4.27 0 7.731 3.461 7.731 7.731 0 4.27-3.461 7.731-7.731 7.731h-233.537c-4.27 0-7.731-3.461-7.731-7.731 0-4.27 3.461-7.731 7.731-7.731z" fill="#ffb332"/></g><g><path d="m182.634 94.111c0-4.27 3.461-7.731 7.731-7.731h-50c-4.27 0-7.731 3.461-7.731 7.731s3.461 7.731 7.731 7.731h50c-4.27 0-7.731-3.461-7.731-7.731z" fill="#ff9100"/></g></g></svg>