<?xml version="1.0" encoding="iso-8859-1"?>
<!-- Generator: Adobe Illustrator 19.0.0, SVG Export Plug-In . SVG Version: 6.00 Build 0)  -->
<svg version="1.1" id="Capa_1" xmlns="http://www.w3.org/2000/svg" xmlns:xlink="http://www.w3.org/1999/xlink" x="0px" y="0px"
	 viewBox="0 0 512 512" style="enable-background:new 0 0 512 512;" xml:space="preserve">
<path style="fill:#DD98F2;" d="M512,256c0,108.513-67.511,201.247-162.816,238.519c-14.106,5.507-28.808,9.801-44.001,12.758
	C289.27,510.38,272.823,512,256,512c-14.566,0-28.839-1.212-42.736-3.563c-15.37-2.57-30.281-6.52-44.596-11.724
	C70.28,461.019,0,366.717,0,256C0,114.615,114.615,0,256,0S512,114.615,512,256z"/>
<g>
	<path style="fill:#D6DFE8;" d="M213.776,503.589c0,1.661-0.178,3.291-0.512,4.848c-15.37-2.57-30.281-6.52-44.596-11.724
		c2.926-9.394,11.682-16.206,22.037-16.206C203.452,480.507,213.776,490.841,213.776,503.589z"/>
	<path style="fill:#D6DFE8;" d="M349.184,494.519c-14.106,5.507-28.808,9.801-44.001,12.758c-0.188-1.202-0.293-2.435-0.293-3.688
		c0-12.748,10.324-23.082,23.071-23.082C337.492,480.507,345.663,486.285,349.184,494.519z"/>
</g>
<circle style="fill:#E6BDF9;" cx="256" cy="192.93" r="192.92"/>
<path style="fill:#EAF1F9;" d="M220.202,362.998c0,31.828-4.201,61.691-11.567,87.542c-5.235,18.369-12.079,34.701-20.135,48.243
	c-0.721,1.223-1.463,2.424-2.215,3.605c-15.872-4.472-31.107-10.449-45.558-17.742c-39.309-19.863-72.809-49.57-97.249-85.87
	c-1.181-11.557-1.808-23.521-1.808-35.777c0-53.823,12.016-102.034,31.002-134.614c4.211-7.241,7.764-14.838,10.313-22.81
	l0.773-2.435c4.138-12.455,7.168-25.182,9.038-38.055c1.421-9.561,2.205-19.184,2.351-28.829c0.115-5.956-0.031-11.912-0.397-17.847
	c-0.606-9.665-1.839-19.289-3.699-28.839c-0.627-3.229-1.337-6.457-2.111-9.665l-1.703-7.053c-0.606-2.529-1.306-5.036-2.048-7.523
	c-0.24-0.805-0.481-1.599-0.721-2.393c-1.39-4.514-2.152-9.3-2.152-14.263c0-27.805,23.353-50.166,51.513-48.536
	c12.967,0.752,24.66,6.719,32.977,15.83c7.199,7.879,11.87,18.108,12.633,29.32c0.397,5.966-0.272,11.724-1.86,17.095
	c-1.024,3.459-2.058,6.928-2.915,10.428l-1.745,7.304c-0.752,3.145-1.442,6.301-2.048,9.456c-1.87,9.55-3.114,19.174-3.72,28.839
	c-0.366,5.935-0.502,11.891-0.397,17.847c0.146,9.644,0.93,19.268,2.351,28.829c1.87,12.8,4.869,25.475,8.965,37.857l0.815,2.581
	c2.56,8.014,6.113,15.642,10.344,22.904c3.093,5.298,5.987,11.024,8.683,17.105C211.79,276.846,220.202,317.952,220.202,362.998z"/>
<path style="fill:#D6DFE8;" d="M100.321,48.671c0,1.348,0.031,2.685,0.115,4.012c0.178,3.532,0.606,6.969,1.243,10.25
	c0.637,3.281,1.223,6.583,1.745,9.916l1.066,7.053c0.491,3.208,0.94,6.437,1.327,9.665c1.181,9.55,1.944,19.174,2.341,28.839
	c0.23,5.935,0.313,11.891,0.24,17.847c-0.084,9.644-0.596,19.268-1.473,28.829c-1.181,12.873-3.093,25.6-5.695,38.055l-0.491,2.435
	c-1.609,7.973-3.845,15.569-6.478,22.81c-11.964,32.58-19.54,80.792-19.54,134.614c0,28.578,2.132,55.589,5.925,79.506
	c-13.949-13.124-26.436-27.784-37.167-43.729c-1.181-11.557-1.808-23.521-1.808-35.777c0-53.823,12.016-102.034,31.002-134.614
	c4.211-7.241,7.764-14.838,10.313-22.81l0.773-2.435c4.138-12.455,7.168-25.182,9.038-38.055c1.421-9.561,2.205-19.184,2.351-28.829
	c0.115-5.956-0.031-11.912-0.397-17.847c-0.606-9.665-1.839-19.289-3.699-28.839c-0.627-3.229-1.337-6.457-2.111-9.665l-1.703-7.053
	c-0.606-2.529-1.306-5.036-2.048-7.523c-0.24-0.805-0.481-1.599-0.721-2.393c-1.39-4.514-2.152-9.3-2.152-14.263
	c0-26.593,21.337-48.191,47.835-48.609C113.612,0.731,100.321,22.235,100.321,48.671z"/>
<g>
	<path style="fill:#ED55A9;" d="M170.875,89.573c-1.873,9.543-3.114,19.173-3.719,28.831H94.747
		c-0.605-9.659-1.831-19.289-3.691-28.831H170.875z"/>
	<path style="fill:#ED55A9;" d="M169.102,165.081H92.801c1.413-9.558,2.206-19.187,2.35-28.831h71.603
		C166.897,145.894,167.689,155.524,169.102,165.081z"/>
</g>
<g>
	<path style="fill:#FCF8F2;" d="M193.096,384.2h-7.537c-5.483,0-9.927-4.444-9.927-9.927v-76.732c0-5.483,4.444-9.927,9.927-9.927
		h7.537c5.483,0,9.927,4.444,9.927,9.927v76.732C203.023,379.755,198.579,384.2,193.096,384.2z"/>
	<path style="fill:#FCF8F2;" d="M193.096,432.492h-7.537c-5.483,0-9.927-4.444-9.927-9.927v-7.537c0-5.483,4.444-9.927,9.927-9.927
		h7.537c5.483,0,9.927,4.444,9.927,9.927v7.537C203.023,428.048,198.579,432.492,193.096,432.492z"/>
</g>
<g>
	<path style="fill:#DB428F;" d="M94.747,118.404c-0.605-9.659-1.831-19.289-3.691-28.831h14.761
		c1.182,9.543,1.946,19.173,2.335,28.831C108.153,118.404,94.747,118.404,94.747,118.404z"/>
	<path style="fill:#DB428F;" d="M108.399,136.251c-0.087,9.644-0.591,19.274-1.47,28.831H92.802
		c1.413-9.558,2.206-19.187,2.35-28.831H108.399z"/>
</g>
<path style="fill:#EAF1F9;" d="M472.983,362.998c0,10.595-0.47,20.982-1.369,31.065c-24.68,38.463-59.361,69.893-100.383,90.603
	c-13.761,6.949-28.223,12.685-43.269,17.074c-20.438-32.549-33.52-82.599-33.52-138.742c0-53.823,12.027-102.034,31.013-134.614
	c4.201-7.241,7.753-14.838,10.303-22.81l0.784-2.435c4.127-12.455,7.158-25.182,9.038-38.055c1.411-9.561,2.205-19.184,2.341-28.829
	c0.115-5.956-0.021-11.912-0.397-17.847c-0.606-9.665-1.829-19.289-3.688-28.839c-0.637-3.229-1.348-6.457-2.121-9.665l-1.703-7.053
	c-0.805-3.333-1.755-6.635-2.769-9.916c-1.379-4.514-2.142-9.3-2.142-14.263c0-12.246,4.535-23.437,12.006-31.984
	c9.498-10.867,23.751-17.46,39.497-16.551c24.189,1.4,43.948,20.961,45.61,45.15c0.408,5.966-0.272,11.724-1.86,17.095
	c-0.481,1.62-0.961,3.229-1.421,4.848c-0.533,1.86-1.034,3.709-1.494,5.58l-1.745,7.304c-0.742,3.145-1.432,6.301-2.038,9.456
	c-1.881,9.55-3.114,19.174-3.72,28.839c-0.376,5.935-0.512,11.891-0.408,17.847c0.146,9.644,0.94,19.268,2.351,28.829
	c1.87,12.8,4.869,25.475,8.965,37.857l0.825,2.581c2.55,8.014,6.113,15.642,10.334,22.904
	C460.967,261.005,472.983,309.196,472.983,362.998z"/>
<path style="fill:#D6DFE8;" d="M358.41,21.305c-3.354,7.795-5.308,17.22-5.308,27.366c0,4.963,0.47,9.749,1.348,14.263
	c0.637,3.281,1.233,6.583,1.745,9.916l1.066,7.053c0.491,3.208,0.94,6.437,1.327,9.665c1.181,9.55,1.954,19.174,2.341,28.839
	c0.23,5.935,0.313,11.891,0.24,17.847c-0.084,9.644-0.585,19.268-1.463,28.829c-1.191,12.873-3.103,25.6-5.695,38.055l-0.491,2.435
	c-1.62,7.973-3.856,15.569-6.489,22.81c-11.964,32.58-19.54,80.792-19.54,134.614c0,52.726,7.272,100.08,18.819,132.618
	c-6.008,2.267-12.131,4.305-18.348,6.123c-20.438-32.549-33.52-82.599-33.52-138.742c0-53.823,12.027-102.034,31.013-134.614
	c4.201-7.241,7.753-14.838,10.303-22.81l0.784-2.435c4.127-12.455,7.158-25.182,9.038-38.055c1.411-9.561,2.205-19.184,2.341-28.829
	c0.115-5.956-0.021-11.912-0.397-17.847c-0.606-9.665-1.829-19.289-3.688-28.839c-0.637-3.229-1.348-6.457-2.121-9.665l-1.703-7.053
	c-0.805-3.333-1.755-6.635-2.769-9.916c-1.379-4.514-2.142-9.3-2.142-14.263c0-12.257,4.524-23.437,12.006-31.984
	c8.735-10.01,21.525-16.394,35.819-16.624c-10.188,0.408-19.143,8.735-24.503,21.243C358.421,21.305,358.41,21.305,358.41,21.305z"
	/>
<g>
	<path style="fill:#ED55A9;" d="M423.65,89.573c-1.874,9.543-3.114,19.173-3.719,28.831h-72.409
		c-0.605-9.659-1.831-19.289-3.691-28.831H423.65z"/>
	<path style="fill:#ED55A9;" d="M421.876,165.081h-76.302c1.413-9.558,2.206-19.187,2.35-28.831h71.602
		C419.671,145.894,420.464,155.524,421.876,165.081z"/>
</g>
<g>
	<path style="fill:#DB428F;" d="M347.521,118.404c-0.605-9.659-1.831-19.289-3.691-28.831h14.761
		c1.182,9.543,1.946,19.173,2.335,28.831C360.927,118.404,347.521,118.404,347.521,118.404z"/>
	<path style="fill:#DB428F;" d="M361.172,136.251c-0.087,9.644-0.591,19.274-1.47,28.831h-14.127
		c1.413-9.558,2.206-19.187,2.35-28.831H361.172z"/>
</g>
<path style="fill:#EAF1F9;" d="M344.754,381.356c0,31.838-4.211,61.701-11.577,87.552c-3.626,12.716-8.014,24.451-13.051,34.973
	C299.645,509.189,278.152,512,256,512c-13.479,0-26.718-1.045-39.633-3.051c-8.704-1.348-17.272-3.145-25.663-5.36
	c-0.752-1.578-1.484-3.177-2.205-4.807c-13.876-31.305-22.288-72.401-22.288-117.426c0-53.812,12.027-102.034,31.013-134.604
	c0.24-0.408,0.47-0.815,0.69-1.223c3.918-6.875,7.21-14.064,9.613-21.588l0.784-2.435c4.138-12.455,7.168-25.182,9.038-38.055
	c1.411-9.561,2.205-19.195,2.351-28.839c0.115-5.945-0.031-11.901-0.408-17.847c-0.606-9.655-1.829-19.289-3.688-28.829
	c-0.637-3.229-1.337-6.457-2.121-9.676l-1.703-7.043c-0.805-3.333-1.755-6.635-2.759-9.916c-1.39-4.514-2.152-9.3-2.152-14.263
	c0-27.805,23.353-50.166,51.503-48.536c24.189,1.4,43.959,20.961,45.62,45.15c0.397,5.966-0.282,11.724-1.86,17.095
	c-1.024,3.459-2.069,6.917-2.915,10.428l-1.745,7.304c-0.752,3.145-1.442,6.301-2.048,9.456c-1.87,9.54-3.114,19.174-3.72,28.829
	c-0.376,5.945-0.502,11.901-0.408,17.847c0.146,9.644,0.94,19.278,2.351,28.839c1.881,12.8,4.88,25.464,8.965,37.846l0.826,2.581
	c2.55,8.014,6.113,15.642,10.334,22.915C332.748,279.374,344.754,327.565,344.754,381.356z"/>
<path style="fill:#D6DFE8;" d="M224.872,67.041c0,4.963,0.481,9.749,1.358,14.263c0.637,3.281,1.223,6.583,1.745,9.916l1.066,7.043
	c0.491,3.218,0.94,6.447,1.327,9.676c1.181,9.54,1.943,19.174,2.33,28.829c0.23,5.945,0.324,11.901,0.251,17.847
	c-0.094,9.644-0.596,19.278-1.473,28.839c-1.181,12.873-3.103,25.6-5.695,38.055l-0.491,2.435
	c-1.609,7.973-3.845,15.569-6.489,22.81c-11.964,32.569-19.529,80.792-19.529,134.604c0,50.072,6.552,95.305,17.095,127.592
	c-8.704-1.348-17.272-3.145-25.663-5.36c-15.182-31.849-24.492-74.867-24.492-122.232c0-53.812,12.027-102.034,31.013-134.604
	c4.211-7.241,7.753-14.838,10.303-22.81l0.784-2.435c4.138-12.455,7.168-25.182,9.038-38.055c1.411-9.561,2.205-19.195,2.351-28.839
	c0.115-5.945-0.031-11.901-0.408-17.847c-0.606-9.655-1.829-19.289-3.688-28.829c-0.637-3.229-1.337-6.457-2.121-9.676l-1.703-7.043
	c-0.805-3.333-1.755-6.635-2.759-9.916c-1.39-4.514-2.152-9.3-2.152-14.263c0-26.593,21.337-48.191,47.835-48.609
	C238.164,19.101,224.872,40.605,224.872,67.041z"/>
<g>
	<path style="fill:#ED55A9;" d="M295.424,107.94c-1.874,9.543-3.114,19.173-3.719,28.831h-72.409
		c-0.605-9.659-1.831-19.288-3.691-28.831H295.424z"/>
	<path style="fill:#ED55A9;" d="M293.651,183.449h-76.302c1.413-9.558,2.206-19.187,2.35-28.831h71.603
		C291.445,164.261,292.238,173.891,293.651,183.449z"/>
</g>
<g>
	<path style="fill:#DB428F;" d="M219.295,136.771c-0.605-9.659-1.831-19.288-3.691-28.831h14.761
		c1.182,9.543,1.946,19.173,2.335,28.831H219.295z"/>
	<path style="fill:#DB428F;" d="M232.946,154.618c-0.087,9.644-0.591,19.274-1.47,28.831h-14.127
		c1.413-9.558,2.206-19.187,2.35-28.831H232.946z"/>
</g>
<g>
</g>
<g>
</g>
<g>
</g>
<g>
</g>
<g>
</g>
<g>
</g>
<g>
</g>
<g>
</g>
<g>
</g>
<g>
</g>
<g>
</g>
<g>
</g>
<g>
</g>
<g>
</g>
<g>
</g>
</svg>
