<?xml version="1.0" encoding="iso-8859-1"?>
<!-- Generator: Adobe Illustrator 19.0.0, SVG Export Plug-In . SVG Version: 6.00 Build 0)  -->
<svg version="1.1" id="Capa_1" xmlns="http://www.w3.org/2000/svg" xmlns:xlink="http://www.w3.org/1999/xlink" x="0px" y="0px"
	 viewBox="0 0 512 512" style="enable-background:new 0 0 512 512;" xml:space="preserve">
<path style="fill:#3FC0DD;" d="M512,256c0,64.93-24.168,124.217-64.01,169.347C401.084,478.49,332.455,512,256,512
	s-145.084-33.51-191.99-86.653C24.168,380.217,0,320.93,0,256S24.168,131.783,64.01,86.653C110.916,33.51,179.545,0,256,0
	s145.084,33.51,191.99,86.653C487.831,131.783,512,191.07,512,256z"/>
<path style="fill:#D6DFE8;" d="M447.99,30.96v394.386C401.084,478.49,332.455,512,256,512s-145.084-33.51-191.99-86.653V30.96
	C64.01,13.866,77.866,0,94.971,0h322.058C434.124,0,447.99,13.866,447.99,30.96z"/>
<g>
	<path style="fill:#B6C5D3;" d="M83.569,30.96C83.569,13.866,97.424,0,114.529,0H94.971C77.866,0,64.01,13.866,64.01,30.96v394.386
		c6.153,6.972,12.689,13.594,19.558,19.859V30.96z"/>
	<path style="fill:#B6C5D3;" d="M182.206,309.323c-17.54,0-31.809-14.27-31.809-31.81V58.5c0-17.54,14.269-31.809,31.809-31.809
		h147.581c17.54,0,31.809,14.269,31.809,31.809v219.014c0,17.54-14.269,31.81-31.809,31.81L182.206,309.323L182.206,309.323z"/>
</g>
<path style="fill:#463F5B;" d="M329.788,295.74H182.206c-10.065,0-18.225-8.16-18.225-18.225V58.5
	c0-10.065,8.16-18.225,18.225-18.225h147.581c10.066,0,18.225,8.16,18.225,18.225v219.014
	C348.013,287.579,339.853,295.74,329.788,295.74z"/>
<path style="fill:#B6C5D3;" d="M355.329,396.046c-18.437,0-33.436-14.998-33.436-33.436c0-18.437,14.998-33.436,33.436-33.436
	c18.436,0,33.435,14.998,33.435,33.436C388.764,381.047,373.764,396.046,355.329,396.046z"/>
<circle style="fill:#ED55A9;" cx="355.328" cy="362.611" r="25.076"/>
<path style="fill:#B6C5D3;" d="M355.329,485.207c-18.437,0-33.436-14.998-33.436-33.436s14.998-33.436,33.436-33.436
	c18.436,0,33.435,14.998,33.435,33.436S373.764,485.207,355.329,485.207z"/>
<circle style="fill:#ED55A9;" cx="355.328" cy="451.772" r="25.076"/>
<path style="fill:#B6C5D3;" d="M366.473,407.191c0-18.437,14.998-33.436,33.436-33.436c18.437,0,33.436,14.998,33.436,33.436
	c0,18.436-14.998,33.435-33.436,33.435C381.471,440.626,366.473,425.627,366.473,407.191z"/>
<circle style="fill:#ED55A9;" cx="399.914" cy="407.186" r="25.076"/>
<path style="fill:#B6C5D3;" d="M277.312,407.191c0-18.437,14.998-33.436,33.436-33.436c18.437,0,33.436,14.998,33.436,33.436
	c0,18.436-14.998,33.435-33.436,33.435C292.31,440.626,277.312,425.627,277.312,407.191z"/>
<circle style="fill:#ED55A9;" cx="310.742" cy="407.186" r="25.076"/>
<path style="fill:#B6C5D3;" d="M162.398,453.183c-27.477,0-49.83-22.349-49.83-49.821c0-27.477,22.355-49.83,49.83-49.83
	c3.539,0,7.06,0.372,10.467,1.108c22.794,4.859,39.354,25.352,39.354,48.724c0,23.366-16.56,43.854-39.374,48.718
	C169.458,452.811,165.937,453.183,162.398,453.183z"/>
<path style="fill:#EDC51C;" d="M203.86,403.362c0,19.916-14.033,36.551-32.758,40.542c-2.811,0.606-5.716,0.92-8.704,0.92
	c-22.904,0-41.472-18.557-41.472-41.462c0-22.904,18.568-41.472,41.472-41.472c2.988,0,5.893,0.313,8.704,0.919
	C189.827,366.801,203.86,383.446,203.86,403.362z"/>
<path style="fill:#FFDE56;" d="M203.86,403.362c0,19.916-14.033,36.551-32.758,40.542c-18.714-3.992-32.758-20.626-32.758-40.542
	s14.043-36.561,32.758-40.552C189.827,366.801,203.86,383.446,203.86,403.362z"/>
<g>
	<path style="fill:#D6DFE8;" d="M209.328,283.276h-25.773c-1.443,0-2.612-1.169-2.612-2.612v-25.774
		c0-1.443,1.169-2.612,2.612-2.612h25.773c1.443,0,2.612,1.169,2.612,2.612v25.774C211.94,282.106,210.771,283.276,209.328,283.276z
		 M186.166,278.052h20.549v-20.55h-20.549V278.052z"/>
	<path style="fill:#D6DFE8;" d="M249.964,283.276h-25.775c-1.443,0-2.612-1.169-2.612-2.612v-25.774
		c0-1.443,1.169-2.612,2.612-2.612h25.774c1.443,0,2.612,1.169,2.612,2.612v25.774C252.576,282.106,251.407,283.276,249.964,283.276
		z M226.801,278.052h20.55v-20.55h-20.55V278.052z"/>
	<path style="fill:#D6DFE8;" d="M331.233,283.276h-25.774c-1.443,0-2.612-1.169-2.612-2.612v-25.774
		c0-1.443,1.169-2.612,2.612-2.612h25.774c1.443,0,2.612,1.169,2.612,2.612v25.774C333.845,282.106,332.676,283.276,331.233,283.276
		z M308.07,278.052h20.55v-20.55h-20.55V278.052z"/>
	<path style="fill:#D6DFE8;" d="M209.328,243.394h-25.773c-1.443,0-2.612-1.169-2.612-2.612v-25.774
		c0-1.443,1.169-2.612,2.612-2.612h25.773c1.443,0,2.612,1.169,2.612,2.612v25.774C211.94,242.225,210.771,243.394,209.328,243.394z
		 M186.166,238.17h20.549v-20.55h-20.549V238.17z"/>
	<path style="fill:#D6DFE8;" d="M290.598,243.394h-25.774c-1.443,0-2.612-1.169-2.612-2.612v-25.774
		c0-1.443,1.169-2.612,2.612-2.612h25.774c1.443,0,2.612,1.169,2.612,2.612v25.774C293.21,242.225,292.041,243.394,290.598,243.394z
		 M267.435,238.17h20.55v-20.55h-20.55V238.17z"/>
	<path style="fill:#D6DFE8;" d="M331.233,243.394h-25.774c-1.443,0-2.612-1.169-2.612-2.612v-25.774
		c0-1.443,1.169-2.612,2.612-2.612h25.774c1.443,0,2.612,1.169,2.612,2.612v25.774C333.845,242.225,332.676,243.394,331.233,243.394
		z M308.07,238.17h20.55v-20.55h-20.55V238.17z"/>
	<path style="fill:#D6DFE8;" d="M290.598,141.17h-25.774c-1.443,0-2.612-1.169-2.612-2.612v-25.774c0-1.443,1.169-2.612,2.612-2.612
		h25.774c1.443,0,2.612,1.169,2.612,2.612v25.774C293.21,140,292.041,141.17,290.598,141.17z M267.435,135.945h20.55v-20.55h-20.55
		V135.945z"/>
	<path style="fill:#D6DFE8;" d="M249.964,101.288h-25.775c-1.443,0-2.612-1.169-2.612-2.612V72.901c0-1.443,1.169-2.612,2.612-2.612
		h25.774c1.443,0,2.612,1.169,2.612,2.612v25.774C252.576,100.119,251.407,101.288,249.964,101.288z M226.801,96.064h20.55v-20.55
		h-20.55V96.064z"/>
	<path style="fill:#D6DFE8;" d="M290.598,101.288h-25.774c-1.443,0-2.612-1.169-2.612-2.612V72.901c0-1.443,1.169-2.612,2.612-2.612
		h25.774c1.443,0,2.612,1.169,2.612,2.612v25.774C293.21,100.119,292.041,101.288,290.598,101.288z M267.435,96.064h20.55v-20.55
		h-20.55V96.064z"/>
</g>
<g>
</g>
<g>
</g>
<g>
</g>
<g>
</g>
<g>
</g>
<g>
</g>
<g>
</g>
<g>
</g>
<g>
</g>
<g>
</g>
<g>
</g>
<g>
</g>
<g>
</g>
<g>
</g>
<g>
</g>
</svg>
