<?xml version="1.0" encoding="iso-8859-1"?>
<!-- Generator: Adobe Illustrator 19.0.0, SVG Export Plug-In . SVG Version: 6.00 Build 0)  -->
<svg version="1.1" id="Capa_1" xmlns="http://www.w3.org/2000/svg" xmlns:xlink="http://www.w3.org/1999/xlink" x="0px" y="0px"
	 viewBox="0 0 512 512" style="enable-background:new 0 0 512 512;" xml:space="preserve">
<path style="fill:#DD98F2;" d="M512,256c0,141.385-114.615,256-256,256c-48.044,0-92.985-13.228-131.396-36.258
	c-18.16-10.867-34.847-23.928-49.706-38.818c-0.188-0.178-0.355-0.345-0.533-0.522c-14.827-14.921-27.826-31.671-38.63-49.873
	C13.03,348.306,0,303.668,0,256C0,114.615,114.615,0,256,0S512,114.615,512,256z"/>
<circle style="fill:#574D70;" cx="290.858" cy="221.142" r="221.132"/>
<g>
	<path style="fill:#EAF1F9;" d="M290.862,31.349c-52.415,0-99.865,21.242-134.205,55.594l-0.059-0.059l0.059,0.059l119.26,119.26
		l14.933,14.933h-21.125H101.064c0,52.404,21.242,99.854,55.594,134.205l119.26-119.26l14.944-14.933v21.125v168.65
		c52.404,0,99.854-21.242,134.193-55.581l-119.26-119.262l-14.933-14.933v-0.012V200.01V31.349z"/>
	<path style="fill:#EAF1F9;" d="M425.055,86.942l0.059-0.059L425.055,86.942l-119.26,119.26l-14.933,14.933h21.125h168.661
		C480.648,168.743,459.406,121.294,425.055,86.942L425.055,86.942z"/>
</g>
<path style="fill:#3AC184;" d="M290.86,304.355c-45.886,0-83.217-37.331-83.217-83.217s37.331-83.217,83.217-83.217
	s83.217,37.331,83.217,83.217S336.747,304.355,290.86,304.355z M290.86,153.11c-37.51,0-68.027,30.516-68.027,68.027
	s30.517,68.027,68.027,68.027c37.511,0,68.027-30.517,68.027-68.027S328.371,153.11,290.86,153.11z"/>
<circle style="fill:#DB428F;" cx="290.858" cy="221.142" r="21.128"/>
<g>
	<path style="fill:#ED55A9;" d="M290.86,360.609c-76.904,0-139.471-62.566-139.471-139.471S213.955,81.667,290.86,81.667
		s139.471,62.566,139.471,139.47C430.331,298.042,367.764,360.609,290.86,360.609z M290.86,96.856
		c-68.529,0-124.281,55.753-124.281,124.281c0,68.53,55.753,124.281,124.281,124.281c68.53,0,124.281-55.753,124.281-124.281
		C415.142,152.608,359.389,96.856,290.86,96.856z"/>
	<path style="fill:#ED55A9;" d="M349.681,162.32l-10.737,10.737c12.315,12.315,19.945,29.327,19.945,48.081h15.19
		C374.078,198.201,364.741,177.391,349.681,162.32z M232.045,162.331l10.737,10.737c12.304-12.327,29.316-19.957,48.081-19.957
		v-15.19C267.915,137.922,247.106,147.259,232.045,162.331z M207.647,221.137c0,22.937,9.336,43.746,24.396,58.818l10.737-10.737
		c-12.315-12.315-19.945-29.327-19.945-48.081H207.647z M338.931,269.218c-12.327,12.315-29.327,19.945-48.068,19.945v15.19
		c22.937,0,43.734-9.336,58.807-24.396L338.931,269.218z"/>
</g>
<g>
	<path style="fill:#3AC184;" d="M389.43,122.57l-10.737,10.737c22.504,22.504,36.443,53.572,36.443,87.83h15.19
		C430.326,182.696,414.692,147.831,389.43,122.57z M192.283,122.57l10.737,10.737c22.492-22.515,53.572-36.454,87.841-36.454v-15.19
		C252.398,81.663,217.532,97.308,192.283,122.57z M151.388,221.137c0,38.452,15.645,73.318,40.895,98.58l10.737-10.737
		c-22.504-22.504-36.443-53.572-36.443-87.841h-15.19V221.137z M378.693,308.979c-22.492,22.504-53.572,36.443-87.83,36.443v15.19
		c38.452,0,73.318-15.645,98.568-40.895L378.693,308.979z"/>
	<path style="fill:#3AC184;" d="M290.86,418.521c-108.838,0-197.383-88.546-197.383-197.384
		c0-108.838,88.546-197.383,197.383-197.383s197.384,88.546,197.384,197.383C488.244,329.976,399.698,418.521,290.86,418.521z
		 M290.86,38.943c-100.463,0-182.195,81.732-182.195,182.195s81.732,182.195,182.195,182.195s182.195-81.732,182.195-182.195
		S391.323,38.943,290.86,38.943z"/>
</g>
<polygon style="fill:#FCF8F2;" points="290.862,221.146 220.446,279.775 232.235,291.562 "/>
<polygon style="fill:#D6DFE8;" points="290.862,221.146 217.54,294.468 220.446,279.775 "/>
<polygon style="fill:#EAF1F9;" points="186.778,342.06 169.237,324.519 94.736,405.532 105.766,416.561 "/>
<path style="fill:#129BBD;" d="M112.933,398.367l-35.004,35.004c-1.128,1.118-2.034,2.415-3.278,3.313
	c-14.827-14.92-28.111-31.954-38.915-50.156c19.989-16.656,49.758-15.6,68.524,3.156L112.933,398.367z"/>
<g>
	<path style="fill:#3FC0DD;" d="M124.604,475.742c-18.16-10.867-35.095-24.167-49.953-39.057c0.899-1.243,2.16-2.195,3.278-3.313
		l35.004-35.004l8.673,8.673C140.434,425.859,141.437,455.753,124.604,475.742z"/>
	<path style="fill:#3FC0DD;" d="M228.533,287.861l-5.096-5.096c-6.512-6.512-17.068-6.512-23.58,0L153.4,329.221
		c-6.512,6.512-6.512,17.068,0,23.58l5.096,5.096c6.512,6.512,17.068,6.512,23.58,0l46.456-46.456
		C235.044,304.929,235.044,294.372,228.533,287.861z"/>
</g>
<path style="fill:#129BBD;" d="M161.991,343.791l52.436-52.436c4.775-4.775,12.458-4.847,17.335-0.239
	c-0.083-0.087-0.155-0.18-0.239-0.264l-11.077-11.077c-4.86-4.86-12.739-4.86-17.599,0l-52.436,52.436
	c-4.86,4.86-4.86,12.739,0,17.599l11.077,11.077c0.085,0.085,0.178,0.157,0.264,0.239
	C157.144,356.25,157.216,348.566,161.991,343.791z"/>
<g>
</g>
<g>
</g>
<g>
</g>
<g>
</g>
<g>
</g>
<g>
</g>
<g>
</g>
<g>
</g>
<g>
</g>
<g>
</g>
<g>
</g>
<g>
</g>
<g>
</g>
<g>
</g>
<g>
</g>
</svg>
