<?xml version="1.0" encoding="iso-8859-1"?>
<!-- Generator: Adobe Illustrator 19.0.0, SVG Export Plug-In . SVG Version: 6.00 Build 0)  -->
<svg version="1.1" id="Capa_1" xmlns="http://www.w3.org/2000/svg" xmlns:xlink="http://www.w3.org/1999/xlink" x="0px" y="0px"
	 viewBox="0 0 512 512" style="enable-background:new 0 0 512 512;" xml:space="preserve">
<circle style="fill:#FFDE56;" cx="256" cy="256" r="256"/>
<circle style="fill:#FFE584;" cx="256" cy="186.88" r="186.88"/>
<polygon style="fill:#DB428F;" points="278.03,452.93 454.27,276.69 498.331,211.782 454.27,144.509 410.21,100.449 366.15,56.389 
	278.03,144.509 256.249,166.291 233.97,144.509 189.91,100.449 126.066,56.389 101.79,100.449 57.73,144.509 13.669,188.57 
	57.73,276.69 233.97,452.93 254.446,482.03 "/>
<g>
	<polygon style="fill:#ED55A9;" points="454.27,208.353 454.27,276.69 498.331,276.69 498.331,232.63 498.331,188.57 
		498.331,144.509 454.27,144.509 454.27,188.57 	"/>
	<rect x="410.206" y="276.689" style="fill:#ED55A9;" width="44.063" height="44.063"/>
	<rect x="410.206" y="100.446" style="fill:#ED55A9;" width="44.063" height="44.063"/>
	<rect x="366.153" y="320.752" style="fill:#ED55A9;" width="44.063" height="44.063"/>
	<polygon style="fill:#ED55A9;" points="410.21,100.449 410.21,56.389 366.15,56.389 322.09,56.389 322.09,100.449 366.15,100.449 	
		"/>
	<rect x="322.09" y="364.805" style="fill:#ED55A9;" width="44.063" height="44.063"/>
	<rect x="278.026" y="408.869" style="fill:#ED55A9;" width="44.063" height="44.063"/>
	<rect x="278.026" y="100.446" style="fill:#ED55A9;" width="44.063" height="44.063"/>
	<rect x="233.974" y="452.932" style="fill:#ED55A9;" width="44.063" height="44.063"/>
	<rect x="233.974" y="144.509" style="fill:#ED55A9;" width="44.063" height="44.063"/>
	<rect x="189.91" y="408.869" style="fill:#ED55A9;" width="44.063" height="44.063"/>
	<rect x="189.91" y="100.446" style="fill:#ED55A9;" width="44.063" height="44.063"/>
	<rect x="145.847" y="364.805" style="fill:#ED55A9;" width="44.063" height="44.063"/>
	<polygon style="fill:#ED55A9;" points="126.066,56.389 101.79,56.389 101.79,100.449 189.91,100.449 189.91,56.389 145.85,56.389 	
		"/>
	<rect x="101.794" y="320.752" style="fill:#ED55A9;" width="44.063" height="44.063"/>
	<rect x="57.731" y="276.689" style="fill:#ED55A9;" width="44.063" height="44.063"/>
	<rect x="57.731" y="100.446" style="fill:#ED55A9;" width="44.063" height="44.063"/>
	<polygon style="fill:#ED55A9;" points="57.73,188.57 57.73,144.509 13.669,144.509 13.669,188.57 13.669,232.63 13.669,276.69 
		57.73,276.69 57.73,232.63 	"/>
</g>
<g>
</g>
<g>
</g>
<g>
</g>
<g>
</g>
<g>
</g>
<g>
</g>
<g>
</g>
<g>
</g>
<g>
</g>
<g>
</g>
<g>
</g>
<g>
</g>
<g>
</g>
<g>
</g>
<g>
</g>
</svg>
