<?xml version="1.0" encoding="iso-8859-1"?>
<!-- Generator: Adobe Illustrator 19.0.0, SVG Export Plug-In . SVG Version: 6.00 Build 0)  -->
<svg version="1.1" id="Capa_1" xmlns="http://www.w3.org/2000/svg" xmlns:xlink="http://www.w3.org/1999/xlink" x="0px" y="0px"
	 viewBox="0 0 512 512" style="enable-background:new 0 0 512 512;" xml:space="preserve">
<path style="fill:#ED55A9;" d="M512,256c0,141.385-114.615,256-256,256c-45.296,0-87.824-11.755-124.719-32.402
	c-0.408-0.209-0.805-0.439-1.212-0.669c-31.451-17.795-58.744-42.047-80.102-70.959c-0.084-0.104-0.157-0.219-0.24-0.324
	c-6.071-8.234-11.651-16.844-16.708-25.799c-0.23-0.408-0.46-0.815-0.679-1.223C11.734,343.74,0,301.234,0,256
	C0,114.615,114.615,0,256,0S512,114.615,512,256z"/>
<path style="fill:#F486C3;" d="M460.419,204.419c0,112.897-91.522,204.419-204.419,204.419c-36.562,0-70.87-9.595-100.557-26.408
	c-25.114-14.21-46.908-33.575-63.962-56.662c-4.923-6.658-9.445-13.617-13.534-20.859C61.16,275.23,51.581,240.938,51.581,204.418
	C51.581,91.522,143.103,0,256,0S460.419,91.522,460.419,204.419z"/>
<path style="fill:#129BBD;" d="M465.027,172.803c-22.939,22.927-55.263,30.715-84.591,23.385
	c-8.633-2.149-17.759,0.271-24.043,6.554l-22.892,22.893l-47.205-47.217l22.88-22.892c6.296-6.284,8.716-15.41,6.554-24.032
	c-7.811-31.255,1.551-65.928,28.107-88.996c23.808-20.672,56.213-26.463,84.861-17.548h0.011
	c12.062,3.747,23.456,10.101,33.263,19.039C499.758,78.439,500.78,137.038,465.027,172.803z"/>
<path style="fill:#3FC0DD;" d="M465.027,172.803c-22.939,22.927-55.263,30.715-84.591,23.385
	c-8.633-2.149-17.759,0.271-24.043,6.554l-6.448,6.448l-27.237-27.25l22.88-22.892c6.296-6.284,8.715-15.41,6.554-24.032
	c-7.811-31.255,1.551-65.928,28.107-88.996c14.012-12.169,31.008-19.18,48.45-21.071h0.011
	c12.062,3.747,23.456,10.101,33.263,19.039C499.758,78.439,500.78,137.038,465.027,172.803z"/>
<path style="fill:#574D70;" d="M380.249,250.222c-18.86,33.259-45.181,52.955-78.211,74.334
	c-26.185,16.938-101.397,81.868-170.757,155.042c-0.408-0.209-0.805-0.439-1.212-0.669c-31.451-17.795-58.744-42.047-80.102-70.959
	c-6.165-8.338-11.828-17.053-16.948-26.122c-0.23-0.408-0.46-0.815-0.679-1.223c73.185-69.35,138.094-144.551,155.031-170.726
	c21.379-33.04,41.064-59.35,74.334-78.232c9.477-5.381,21.42-3.636,29.121,4.075l85.347,85.347
	C383.885,228.801,385.63,240.734,380.249,250.222z"/>
<g>
	<path style="fill:#463F5B;" d="M310.042,154.958c-4.242-4.232-13.093-2.905-21.64,3.396c-30.041,22.11-51.231,46.937-75.222,77.343
		c-19.446,24.649-89.307,100.31-163.453,171.948c-6.071-8.234-11.651-16.844-16.708-25.799c-0.23-0.408-0.46-0.815-0.679-1.223
		c73.185-69.35,138.094-144.551,155.032-170.726c21.368-33.04,41.075-59.35,74.344-78.232c9.467-5.392,21.41-3.626,29.111,4.075
		L310.042,154.958z"/>
	<path style="fill:#463F5B;" d="M215.473,296.448L215.473,296.448c-9.312-9.312-9.312-24.411,0-33.723l32.599-32.599
		c9.312-9.312,24.411-9.312,33.723,0l0,0c9.312,9.312,9.312,24.411,0,33.723l-32.599,32.599
		C239.883,305.761,224.786,305.761,215.473,296.448z"/>
	<path style="fill:#463F5B;" d="M160.954,350.968L160.954,350.968c-9.312-9.312-9.312-24.411,0-33.723l0,0
		c9.312-9.312,24.411-9.312,33.723,0l0,0c9.312,9.312,9.312,24.411,0,33.723l0,0C185.365,360.28,170.266,360.28,160.954,350.968z"/>
</g>
<circle style="fill:#5DD5E5;" cx="459.389" cy="102.264" r="19.38"/>
<g>
</g>
<g>
</g>
<g>
</g>
<g>
</g>
<g>
</g>
<g>
</g>
<g>
</g>
<g>
</g>
<g>
</g>
<g>
</g>
<g>
</g>
<g>
</g>
<g>
</g>
<g>
</g>
<g>
</g>
</svg>
