<?xml version="1.0" encoding="iso-8859-1"?>
<!-- Generator: Adobe Illustrator 19.0.0, SVG Export Plug-In . SVG Version: 6.00 Build 0)  -->
<svg version="1.1" id="Capa_1" xmlns="http://www.w3.org/2000/svg" xmlns:xlink="http://www.w3.org/1999/xlink" x="0px" y="0px"
	 viewBox="0 0 512 512" style="enable-background:new 0 0 512 512;" xml:space="preserve">
<path style="fill:#463F5B;" d="M512,256c0,24.963-3.574,49.1-10.24,71.91c-24.325,83.289-89.84,149.002-173.014,173.599
	C305.685,508.343,281.276,512,256,512s-49.695-3.668-72.756-10.491C100.091,476.902,34.576,411.199,10.25,327.931
	C3.574,305.11,0,280.973,0,256c0-7.084,0.293-14.106,0.857-21.044c0.502-6.186,1.223-12.309,2.152-18.348v-0.01
	C21.964,93.915,128.01,0,256,0s234.047,93.926,252.991,216.618c0.94,6.05,1.661,12.163,2.152,18.348v0.01
	C511.718,241.904,512,248.916,512,256z"/>
<circle style="fill:#574D70;" cx="256" cy="97.27" r="97.27"/>
<path style="fill:#6B6889;" d="M255.997,14.63c51.261,0,93.259,39.653,96.999,89.957c0.18-2.415,0.273-4.854,0.273-7.314
	c0-53.721-43.55-97.272-97.272-97.272s-97.272,43.55-97.272,97.272c0,2.461,0.093,4.9,0.273,7.314
	C162.738,54.282,204.735,14.63,255.997,14.63z"/>
<g>
	<path style="fill:#574D70;" d="M353.27,436.955c0,24.775-9.258,47.386-24.524,64.554C305.685,508.343,281.276,512,256,512
		s-49.695-3.668-72.756-10.491c-15.266-17.168-24.524-39.779-24.524-64.554c0-53.729,43.551-97.27,97.28-97.27
		C309.718,339.686,353.27,383.227,353.27,436.955z"/>
	<path style="fill:#574D70;" d="M512,256c0,24.963-3.574,49.1-10.24,71.91c-17.815,22.235-45.202,36.477-75.922,36.477
		c-53.718,0-97.27-43.551-97.27-97.27c0-53.729,43.551-97.28,97.27-97.28c35.234,0,66.09,18.735,83.153,46.78
		C510.976,229.46,512,242.604,512,256z"/>
	<path style="fill:#574D70;" d="M183.432,267.118c0,53.718-43.551,97.27-97.28,97.27c-30.71,0-58.086-14.232-75.901-36.457
		C3.574,305.11,0,280.973,0,256c0-13.396,1.034-26.561,3.009-39.403c17.074-28.035,47.919-46.759,83.143-46.759
		C139.88,169.838,183.432,213.389,183.432,267.118z"/>
</g>
<path style="fill:#3AC184;" d="M307.854,144.019H204.14c-3.733,0-7.183-1.992-9.049-5.224c-1.867-3.233-1.867-7.216,0-10.449
	l51.857-89.819c1.866-3.233,5.315-5.224,9.049-5.224c3.732,0,7.183,1.992,9.049,5.224l51.857,89.819
	c1.866,3.233,1.866,7.216,0,10.449C315.037,142.028,311.586,144.019,307.854,144.019z M222.237,123.121h67.519l-33.76-58.472
	L222.237,123.121z"/>
<path style="fill:#DD98F2;" d="M131.067,322.472H41.247c-5.771,0-10.449-4.678-10.449-10.449v-89.819
	c0-5.771,4.678-10.449,10.449-10.449h89.819c5.771,0,10.449,4.678,10.449,10.449v89.819
	C141.516,317.794,136.838,322.472,131.067,322.472z M51.696,301.574h68.921v-68.921H51.696V301.574z"/>
<path style="fill:#ED55A9;" d="M425.837,322.472c-30.526,0-55.359-24.834-55.359-55.359s24.834-55.359,55.359-55.359
	s55.359,24.834,55.359,55.359S456.362,322.472,425.837,322.472z M425.837,232.652c-19.003,0-34.461,15.459-34.461,34.461
	c0,19.001,15.459,34.461,34.461,34.461s34.461-15.459,34.461-34.461C460.298,248.111,444.839,232.652,425.837,232.652z"/>
<path style="fill:#697CE2;" d="M270.774,436.953l28.291-28.291c4.08-4.08,4.08-10.697,0-14.778c-4.081-4.08-10.696-4.08-14.778,0
	l-28.291,28.291l-28.291-28.291c-4.08-4.08-10.697-4.08-14.778,0c-4.08,4.08-4.08,10.697,0,14.778l28.291,28.291l-28.291,28.291
	c-4.08,4.08-4.08,10.697,0,14.778c2.041,2.041,4.715,3.06,7.388,3.06c2.674,0,5.349-1.02,7.388-3.06l28.291-28.291l28.291,28.291
	c2.041,2.041,4.715,3.06,7.388,3.06c2.674,0,5.348-1.02,7.388-3.06c4.08-4.08,4.08-10.697,0-14.778L270.774,436.953z"/>
<g>
	<path style="fill:#6B6889;" d="M511.143,234.966c-16.541-30.104-48.536-50.5-85.305-50.5c-51.263,0-93.257,39.654-96.998,89.966
		c-0.178-2.424-0.272-4.859-0.272-7.314c0-53.729,43.551-97.28,97.27-97.28c35.234,0,66.09,18.735,83.153,46.78
		C509.931,222.668,510.652,228.78,511.143,234.966z"/>
	<path style="fill:#6B6889;" d="M255.997,354.309c51.261,0,93.259,39.653,96.999,89.957c0.18-2.415,0.273-4.854,0.273-7.314
		c0-53.721-43.55-97.272-97.272-97.272s-97.272,43.55-97.272,97.272c0,2.461,0.093,4.9,0.273,7.314
		C162.738,393.962,204.735,354.309,255.997,354.309z"/>
	<path style="fill:#6B6889;" d="M183.432,267.118c0,2.456-0.094,4.89-0.272,7.314c-3.741-50.312-45.746-89.966-97.008-89.966
		c-36.76,0-68.754,20.396-85.295,50.489c0.502-6.186,1.223-12.309,2.152-18.348v-0.01c17.074-28.035,47.919-46.759,83.143-46.759
		C139.88,169.838,183.432,213.389,183.432,267.118z"/>
</g>
<g>
</g>
<g>
</g>
<g>
</g>
<g>
</g>
<g>
</g>
<g>
</g>
<g>
</g>
<g>
</g>
<g>
</g>
<g>
</g>
<g>
</g>
<g>
</g>
<g>
</g>
<g>
</g>
<g>
</g>
</svg>
