<?xml version="1.0" encoding="iso-8859-1"?>
<!-- Generator: Adobe Illustrator 19.0.0, SVG Export Plug-In . SVG Version: 6.00 Build 0)  -->
<svg version="1.1" id="Capa_1" xmlns="http://www.w3.org/2000/svg" xmlns:xlink="http://www.w3.org/1999/xlink" x="0px" y="0px"
	 viewBox="0 0 512 512" style="enable-background:new 0 0 512 512;" xml:space="preserve">
<path style="fill:#3AC184;" d="M512,256c0,141.385-114.615,256-256,256c-5.36,0-10.689-0.167-15.976-0.491
	c-10.658-0.658-21.138-1.964-31.399-3.887c-30.71-5.747-59.486-16.969-85.274-32.632c-6.008-3.636-11.849-7.523-17.512-11.63
	c-35.861-26.018-64.711-61.106-83.163-101.898c-3.95-8.725-7.429-17.711-10.397-26.917c-0.815-2.518-1.588-5.057-2.32-7.617
	c-1.818-6.311-3.396-12.727-4.723-19.226C1.797,291.004,0,273.711,0,256C0,114.615,114.615,0,256,0S512,114.615,512,256z"/>
<circle style="fill:#52D1A5;" cx="256" cy="201.07" r="201.07"/>
<path style="fill:#463F5B;" d="M453.824,10.024L427.65,43.886l6.304,10.191l40.765-25.217l-11.344-18.339
	C461.237,7.068,456.308,6.811,453.824,10.024z"/>
<path style="fill:#574D70;" d="M493.158,3.368c4.762,7.698,7.767,16.241,8.932,25.032c0.277,2.108,0.458,4.231,0.507,6.359
	c0.212,6.737-0.653,13.539-2.638,20.14l-1.342,4.469l-143.756,88.926l-26.566-42.944L493.158,3.368z"/>
<path style="fill:#ED55A9;" d="M261.684,321.336c-8.024,10.458-19.012,17.589-27.188,21.846c-6.49,3.396-11.208,4.97-11.208,4.97
	l-38.886-59.689l46.83-11.351c1.847,9.38,9.107,16.967,16.685,22.531c3.539,2.597,7.146,4.743,10.309,6.44
	C263.791,309.072,265.532,316.329,261.684,321.336z"/>
<path style="fill:#DB428F;" d="M247.918,299.643l-16.493,13.584l3.071,29.955c-6.49,3.396-11.208,4.97-11.208,4.97l-38.886-59.689
	l46.83-11.351C233.08,286.492,240.34,294.079,247.918,299.643z"/>
<path style="fill:#574D70;" d="M240.024,511.509c-10.658-0.658-21.138-1.964-31.399-3.887c-30.71-5.747-59.486-16.969-85.274-32.632
	c-6.008-3.636-11.849-7.523-17.512-11.63c2.957-19.895,6.844-40.563,11.964-60.583c8.067-31.535-26.216-56.895-53.906-39.769
	l-13.793,8.537l-0.042-40.741l133.799-71.701l34.126,37.272l22.016,214.873C240.013,511.331,240.024,511.425,240.024,511.509z"/>
<path style="fill:#6B6889;" d="M208.624,507.622c-30.71-5.747-59.486-16.969-85.274-32.632
	c4.075-41.211,25.015-86.267,43.28-118.815c8.516-15.172,31.545-10.052,32.872,7.293l10.292,133.736
	C210.066,500.746,209.659,504.278,208.624,507.622z"/>
<path style="fill:#463F5B;" d="M393.774,151.663L217.987,296.375l-33.583-7.91l-134.301,83.08l-27.429-10.083
	c-7.711-17.011-13.605-35.015-17.439-53.76l157.487-97.416l3.553-13.772l157.968-97.719l17.105,27.658l46.895-29.006
	c2.57-1.589,5.935,0.031,6.29,3.03l4.542,37.971C399.676,143.469,397.678,148.449,393.774,151.663z"/>
<g>
	
		<rect x="184.352" y="184.55" transform="matrix(-0.8504 0.5261 -0.5261 -0.8504 459.6692 274.7844)" style="fill:#6B6889;" width="12.839" height="36.377"/>
	
		<rect x="205.518" y="171.453" transform="matrix(-0.8504 0.5261 -0.5261 -0.8504 491.9456 239.4134)" style="fill:#6B6889;" width="12.839" height="36.377"/>
	
		<rect x="269.023" y="132.163" transform="matrix(-0.8504 0.5261 -0.5261 -0.8504 588.785 133.3008)" style="fill:#6B6889;" width="12.839" height="36.377"/>
	
		<rect x="311.361" y="105.971" transform="matrix(-0.8504 0.5261 -0.5261 -0.8504 653.348 62.5592)" style="fill:#6B6889;" width="12.839" height="36.377"/>
	
		<rect x="226.679" y="158.347" transform="matrix(-0.8504 0.5261 -0.5261 -0.8504 524.2072 204.0289)" style="fill:#6B6889;" width="12.839" height="36.377"/>
	
		<rect x="247.855" y="145.26" transform="matrix(-0.8504 0.5261 -0.5261 -0.8504 556.5066 168.6723)" style="fill:#6B6889;" width="12.839" height="36.377"/>
	
		<rect x="290.19" y="119.068" transform="matrix(-0.8504 0.5261 -0.5261 -0.8504 621.0638 97.9323)" style="fill:#6B6889;" width="12.839" height="36.377"/>
	<path style="fill:#6B6889;" d="M194.884,221.592L12.278,334.545c-0.815-2.518-1.588-5.057-2.32-7.617L190.83,215.04
		L194.884,221.592z"/>
</g>
<path style="fill:#574D70;" d="M117.588,238.204l-19.349-4.56c-4.019-0.947-8.249-0.259-11.761,1.913L24.47,273.915
	c-3.512,2.172-6.017,5.65-6.963,9.669l-4.56,19.349L117.588,238.204z"/>
<path style="fill:#463F5B;" d="M502.597,34.759c0.212,6.737-0.653,13.539-2.638,20.14l-1.342,4.469l-143.756,88.926l-9.909-16.018
	L502.597,34.759z"/>
<g>
</g>
<g>
</g>
<g>
</g>
<g>
</g>
<g>
</g>
<g>
</g>
<g>
</g>
<g>
</g>
<g>
</g>
<g>
</g>
<g>
</g>
<g>
</g>
<g>
</g>
<g>
</g>
<g>
</g>
</svg>
