<?xml version="1.0" encoding="iso-8859-1"?>
<!-- Generator: Adobe Illustrator 19.0.0, SVG Export Plug-In . SVG Version: 6.00 Build 0)  -->
<svg version="1.1" id="Capa_1" xmlns="http://www.w3.org/2000/svg" xmlns:xlink="http://www.w3.org/1999/xlink" x="0px" y="0px"
	 viewBox="0 0 512 512" style="enable-background:new 0 0 512 512;" xml:space="preserve">
<path style="fill:#3FC0DD;" d="M512,256c0,20.376-2.382,40.197-6.886,59.204c-6.175,26.091-16.342,50.625-29.821,72.944
	c-4.503,7.471-9.383,14.691-14.618,21.629c-3.354,4.472-6.865,8.829-10.512,13.072c-4.347,5.047-8.882,9.927-13.605,14.629
	c-11.045,10.992-23.092,20.971-35.986,29.811C359.434,495.501,309.656,512,256,512s-103.434-16.499-144.572-44.711
	c-12.894-8.84-24.942-18.829-35.986-29.811c-4.723-4.702-9.258-9.582-13.605-14.629c-3.636-4.221-7.137-8.568-10.491-13.03
	c-5.235-6.949-10.115-14.169-14.629-21.64c-13.469-22.298-23.636-46.822-29.811-72.882C2.393,296.26,0,276.407,0,256
	C0,114.615,114.615,0,256,0S512,114.615,512,256z"/>
<path style="fill:#ED55A9;" d="M315.546,59.55v70.531H196.438V59.55c0-32.883,26.666-59.549,59.559-59.549
	S315.546,26.667,315.546,59.55z"/>
<path style="fill:#DB428F;" d="M271.147,1.952c-4.838-1.27-9.914-1.951-15.151-1.951c-32.893,0-59.559,26.666-59.559,59.549v70.531
	h30.302V59.55C226.74,31.902,245.594,8.655,271.147,1.952z"/>
<path style="fill:#574D70;" d="M333.296,135.236l6.543,57.016H172.144l6.543-57.016c0.577-5.022,4.827-8.813,9.882-8.813h7.868
	h119.108h7.868C328.469,126.423,332.72,130.214,333.296,135.236z"/>
<path style="fill:#463F5B;" d="M336.063,166.935H175.95c-4.329,0-7.837-3.509-7.837-7.837c0-4.328,3.508-7.837,7.837-7.837h160.112
	c4.329,0,7.837,3.509,7.837,7.837C343.899,163.426,340.391,166.935,336.063,166.935z"/>
<path style="fill:#ED55A9;" d="M505.114,230.107v85.096c-14.869,62.819-52.882,116.673-104.542,152.085H111.428
	C59.789,431.898,21.786,378.075,6.907,315.298v-85.191c0-28.275,22.915-51.2,51.2-51.2h395.807
	C482.189,178.907,505.114,201.832,505.114,230.107z"/>
<path style="fill:#EDC51C;" d="M475.293,232.761v155.387c-4.503,7.471-9.383,14.691-14.618,21.629
	c-3.354,4.472-6.865,8.829-10.512,13.072c-4.347,5.047-8.882,9.927-13.605,14.629H75.442c-4.723-4.702-9.258-9.582-13.605-14.629
	c-3.636-4.221-7.137-8.568-10.491-13.03c-5.235-6.949-10.115-14.169-14.629-21.64V232.761c0-13.281,10.762-24.043,24.033-24.043
	h390.51C464.541,208.718,475.293,219.481,475.293,232.761z"/>
<path style="fill:#FFDE56;" d="M460.675,232.761v177.016c-3.354,4.472-6.865,8.829-10.512,13.072H61.837
	c-3.636-4.221-7.137-8.568-10.491-13.03V232.761c0-5.193,4.221-9.415,9.404-9.415h390.51
	C456.453,223.347,460.675,227.568,460.675,232.761z"/>
<g>
	<path style="fill:#FCF8F2;" d="M214.949,384.109c-2.313,6.747-10.987,10.024-19.855,10.024c-8.674,0-17.927-3.277-19.469-10.024
		l-10.024-45.685l-10.025,45.685c-1.542,6.747-10.794,10.024-19.469,10.024c-8.867,0-17.734-3.277-19.854-10.024L77.895,266.523
		c-0.192-0.579-0.387-1.542-0.387-2.506c0-6.555,10.795-11.952,19.47-11.952c4.626,0,8.481,1.542,9.638,5.59l29.3,98.887
		l15.228-65.154c1.157-5.205,7.904-7.904,14.458-7.904c6.553,0,13.299,2.699,14.456,7.904l15.228,65.154l29.301-98.887
		c1.157-4.048,5.011-5.59,9.638-5.59c8.674,0,19.469,5.398,19.469,11.952c0,0.963-0.192,1.928-0.386,2.506L214.949,384.109z"/>
	<path style="fill:#FCF8F2;" d="M274.9,261.125c0-6.361,7.517-9.06,15.035-9.06c7.517,0,15.036,2.699,15.036,9.06v122.597
		c0,6.169-7.518,9.253-15.036,9.253c-7.518,0-15.035-3.083-15.035-9.253V261.125z"/>
	<path style="fill:#FCF8F2;" d="M402.699,384.879l-36.625-66.696v65.539c0,6.169-7.518,9.253-15.036,9.253
		s-15.036-3.083-15.036-9.253V261.319c0-6.361,7.517-9.253,15.036-9.253c10.794,0,14.842,0.964,22.168,15.036l31.228,59.564v-65.539
		c0-6.361,7.517-9.06,15.034-9.06c7.518,0,15.036,2.699,15.036,9.06v122.597c0,6.169-7.517,9.253-15.036,9.253
		C412.531,392.976,406.363,391.626,402.699,384.879z"/>
</g>
<g>
	<path style="fill:#F486C3;" d="M361.014,45.858c-3.432,0-6.65-2.13-7.871-5.547c-1.554-4.347,0.711-9.131,5.057-10.685
		l81.497-29.135c4.348-1.553,9.131,0.709,10.686,5.057c1.554,4.347-0.711,9.131-5.057,10.685l-81.498,29.135
		C362.898,45.701,361.947,45.858,361.014,45.858z"/>
	<path style="fill:#F486C3;" d="M442.512,137.683c-0.935,0-1.884-0.158-2.814-0.49L358.2,108.058
		c-4.347-1.554-6.611-6.338-5.057-10.685c1.554-4.348,6.338-6.61,10.686-5.057l81.498,29.135c4.347,1.554,6.611,6.338,5.057,10.685
		C449.162,135.554,445.944,137.683,442.512,137.683z"/>
	<path style="fill:#F486C3;" d="M420.57,77.201h-57.989c-4.616,0-8.359-3.743-8.359-8.359s3.743-8.359,8.359-8.359h57.989
		c4.616,0,8.359,3.743,8.359,8.359S425.187,77.201,420.57,77.201z"/>
	<path style="fill:#F486C3;" d="M151,45.858c3.432,0,6.65-2.13,7.871-5.547c1.554-4.347-0.711-9.131-5.057-10.685L72.316,0.491
		c-4.348-1.553-9.131,0.709-10.686,5.057c-1.554,4.347,0.711,9.131,5.057,10.685l81.498,29.135
		C149.115,45.701,150.066,45.858,151,45.858z"/>
	<path style="fill:#F486C3;" d="M69.502,137.683c0.935,0,1.884-0.158,2.814-0.49l81.498-29.135
		c4.347-1.554,6.611-6.338,5.057-10.685c-1.554-4.348-6.338-6.61-10.686-5.057l-81.498,29.135
		c-4.347,1.554-6.611,6.338-5.057,10.685C62.852,135.554,66.07,137.683,69.502,137.683z"/>
	<path style="fill:#F486C3;" d="M91.444,77.201h57.989c4.616,0,8.359-3.743,8.359-8.359s-3.743-8.359-8.359-8.359H91.444
		c-4.616,0-8.359,3.743-8.359,8.359S86.828,77.201,91.444,77.201z"/>
	<path style="fill:#F486C3;" d="M282.972,92.316L282.972,92.316c-7.357,0-13.321-5.964-13.321-13.321V56.563
		c0-7.357,5.964-13.321,13.321-13.321l0,0c7.357,0,13.321,5.964,13.321,13.321v22.431C296.293,86.351,290.329,92.316,282.972,92.316
		z"/>
</g>
<g>
</g>
<g>
</g>
<g>
</g>
<g>
</g>
<g>
</g>
<g>
</g>
<g>
</g>
<g>
</g>
<g>
</g>
<g>
</g>
<g>
</g>
<g>
</g>
<g>
</g>
<g>
</g>
<g>
</g>
</svg>
