<?xml version="1.0" encoding="iso-8859-1"?>
<!-- Generator: Adobe Illustrator 19.0.0, SVG Export Plug-In . SVG Version: 6.00 Build 0)  -->
<svg version="1.1" id="Capa_1" xmlns="http://www.w3.org/2000/svg" xmlns:xlink="http://www.w3.org/1999/xlink" x="0px" y="0px"
	 viewBox="0 0 512 512" style="enable-background:new 0 0 512 512;" xml:space="preserve">
<path style="fill:#463F5B;" d="M512,256c0,111.47-71.241,206.294-170.674,241.434C314.64,506.87,285.915,512,256,512
	c-29.926,0-58.65-5.13-85.337-14.566C73.415,463.057,3.135,371.597,0.104,263.304C0.031,260.88,0,258.445,0,256
	C0,144.541,71.241,49.706,170.663,14.566C197.35,5.13,226.074,0,256,0c29.915,0,58.64,5.13,85.326,14.566
	c56.289,19.895,103.539,58.911,133.945,109.255C498.594,162.398,512,207.642,512,256z"/>
<path style="fill:#ED55A9;" d="M341.326,76.984v420.45C314.64,506.87,285.915,512,256,512c-29.926,0-58.65-5.13-85.337-14.566
	V76.984c0-9.114,7.388-16.502,16.502-16.502h137.658C333.938,60.482,341.326,67.87,341.326,76.984z"/>
<path style="fill:#3FC0DD;" d="M495.498,187.431c9.114,0,16.502,7.388,16.502,16.502V256c0,111.47-71.241,206.294-170.674,241.434
	V203.933c0-9.114,7.388-16.502,16.502-16.502H495.498z"/>
<path style="fill:#FFDE56;" d="M170.663,284.693v212.741c-35.913-12.696-68.148-33.176-94.678-59.413
	c-12.215-12.079-23.218-25.381-32.82-39.717c-25.997-38.808-41.66-85.117-43.06-135.001h149.17
	C161.087,263.304,170.663,272.879,170.663,284.693z"/>
<path style="fill:#F486C3;" d="M246.754,153.682l-5.584,3.465c-1.732,1.155-3.465,1.54-4.812,1.54
	c-5.584,0-9.433-5.967-9.433-11.936c0-4.043,1.732-7.893,5.583-10.203l25.413-15.402c1.54-0.962,3.465-1.348,5.583-1.348
	c6.161,0,13.285,3.658,13.285,9.433v122.444c0,6.161-7.51,9.241-15.017,9.241c-7.508,0-15.016-3.08-15.016-9.241v-97.994H246.754z"
	/>
<path style="fill:#FFE584;" d="M121.678,411.836H71.231v-1.735c0-17.523,59.496-31.19,59.496-72.965
	c0-25.799-22.528-39.852-44.857-39.852c-21.953,0-43.51,13.479-43.51,36.969c0,12.121,5.768,15.59,13.469,15.59
	c9.822,0,15.788-5.392,15.788-10.971c0-10.595,6.74-14.44,14.44-14.44c10.783,0,14.629,7.513,14.629,13.667
	c0,21.086-45.108,36.874-57.522,60.207c9.603,14.336,20.605,27.638,32.82,39.717h45.693c4.807,0,9.049-6.353,9.049-13.291
	C130.727,417.802,126.485,411.836,121.678,411.836z"/>
<path style="fill:#5DD5E5;" d="M443.894,326.703v-3.657c0-12.899-7.894-15.402-18.482-15.402c-6.546,0-8.663-5.775-8.663-11.551
	s2.117-11.551,8.663-11.551c7.316,0,15.017-0.962,15.017-16.556c0-11.167-6.353-13.862-14.247-13.862
	c-9.433,0-14.247,2.31-14.247,9.818c0,6.546-2.888,10.974-14.054,10.974c-13.862,0-15.594-2.888-15.594-12.129
	c0-15.017,10.78-34.461,43.895-34.461c24.45,0,42.933,8.857,42.933,34.846c0,14.054-5.198,27.145-14.825,31.574
	c11.359,4.236,19.638,12.707,19.638,28.301v3.657c0,31.574-21.755,43.511-48.708,43.511c-33.114,0-45.821-20.215-45.821-36.386
	c0-8.663,3.658-10.974,14.246-10.974c12.321,0,15.402,2.696,15.402,10.011c0,9.049,8.471,11.167,17.134,11.167
	C439.273,344.03,443.894,339.217,443.894,326.703z"/>
<g>
</g>
<g>
</g>
<g>
</g>
<g>
</g>
<g>
</g>
<g>
</g>
<g>
</g>
<g>
</g>
<g>
</g>
<g>
</g>
<g>
</g>
<g>
</g>
<g>
</g>
<g>
</g>
<g>
</g>
</svg>
