<?xml version="1.0" encoding="iso-8859-1"?>
<!-- Generator: Adobe Illustrator 19.0.0, SVG Export Plug-In . SVG Version: 6.00 Build 0)  -->
<svg version="1.1" id="Capa_1" xmlns="http://www.w3.org/2000/svg" xmlns:xlink="http://www.w3.org/1999/xlink" x="0px" y="0px"
	 viewBox="0 0 511.999 511.999" style="enable-background:new 0 0 511.999 511.999;" xml:space="preserve">
<circle style="fill:#DD98F2;" cx="255.999" cy="255.999" r="255.999"/>
<path style="fill:#6B6889;" d="M450.344,24.869v397.771c-46.947,54.7-116.6,89.359-194.34,89.359s-147.393-34.659-194.34-89.359
	V24.869C61.663,11.139,72.792,0,86.532,0h338.943C439.205,0,450.344,11.139,450.344,24.869z"/>
<path style="fill:#463F5B;" d="M430.752,85.462v357.605c-3.197,2.988-6.468,5.893-9.812,8.704
	c-27.303,23.03-59.486,40.458-94.782,50.489c-19.874,5.653-40.72,8.955-62.244,9.613c-2.623,0.084-5.266,0.125-7.91,0.125
	c-2.654,0-5.287-0.042-7.92-0.125c-59.747-1.808-114.353-24.106-157.016-60.102c-3.344-2.811-6.614-5.716-9.812-8.704V85.462
	c0-8.192,6.635-14.827,14.827-14.827h319.843c0.899,0,1.776,0.084,2.623,0.24C425.486,72.108,430.752,78.169,430.752,85.462z"/>
<g>
	<path style="fill:#574D70;" d="M321.828,45.554h-131.65c-6.059,0-10.97-4.912-10.97-10.97l0,0c0-6.059,4.912-10.97,10.97-10.97
		h131.65c6.059,0,10.97,4.912,10.97,10.97l0,0C332.799,40.642,327.887,45.554,321.828,45.554z"/>
	<path style="fill:#574D70;" d="M326.158,502.26c-19.874,5.653-40.72,8.955-62.244,9.613c-2.623,0.084-5.266,0.125-7.91,0.125
		c-2.654,0-5.287-0.042-7.92-0.125c-59.747-1.808-114.353-24.106-157.016-60.102c-3.344-2.811-6.614-5.716-9.812-8.704V85.462
		c0-8.192,6.635-14.827,14.827-14.827h47.073C143.155,70.635,143.155,396.527,326.158,502.26z"/>
</g>
<g>
	<path style="fill:#FFDE56;" d="M178.002,197.235H160.73c-2.205,0-3.406,2.215-3.406,4.221c0,2.205,1.202,4.315,3.406,4.315h10.146
		v8.234c0,7.764-3.5,11.88-9.394,12.758c-0.805,0.125-1.661,0.188-2.56,0.188c-7.523,0-11.839-4.117-11.839-12.946V184.79
		c0-5.559,1.714-9.247,4.859-11.212c1.849-1.17,4.19-1.735,6.98-1.735c8.735,0,11.348,4.921,11.954,10.742
		c0.094,2.612,2.508,3.511,5.319,3.511c3.511,0,5.319-1.003,5.319-5.12c0-11.348-9.435-18.568-22.883-18.568
		c-2.863,0-5.601,0.334-8.108,1.066c-8.244,2.351-14.085,8.861-14.085,21.316v29.215c0,16.259,9.738,22.382,22.486,22.382
		c1.588,0,3.124-0.094,4.608-0.293c10.376-1.4,17.983-7.868,17.983-22.089V200.85C181.513,198.948,180.207,197.235,178.002,197.235z
		"/>
	<path style="fill:#FFDE56;" d="M245.659,230.462l-19.874-65.045c-0.805-2.414-3.814-3.615-6.823-3.615
		c-3.009,0-5.925,1.202-6.729,3.615l-19.978,65.045c-0.094,0.303-0.094,0.606-0.094,0.909c0,2.612,3.709,4.409,6.625,4.409
		c1.808,0,3.208-0.596,3.709-2.205l4.117-14.252h24.795l4.117,14.252c0.502,1.609,1.902,2.205,3.615,2.205
		c3.009,0,6.719-1.902,6.719-4.409C245.858,231.068,245.764,230.765,245.659,230.462z M208.921,210.787l10.041-34.429l10.031,34.429
		H208.921z"/>
	<path style="fill:#FFDE56;" d="M308.604,162.408c-3.814,0-5.82,1.306-8.328,6.019l-14.252,26.603l-14.054-26.603
		c-2.508-4.712-4.618-6.019-8.432-6.019c-2.717,0-5.319,1.4-5.319,5.319v64.543c0,2.309,2.706,3.511,5.319,3.511
		c2.706,0,5.319-1.202,5.319-3.511v-48.786l13.448,25.495c0.909,1.808,2.309,2.414,3.615,2.414c1.411,0,2.811-0.606,3.918-2.414
		l13.448-24.889v48.18c0,2.309,2.706,3.511,5.319,3.511c2.717,0,5.319-1.202,5.319-3.511v-64.543
		C313.922,163.808,311.414,162.408,308.604,162.408z"/>
	<path style="fill:#FFDE56;" d="M372.05,226.345h-29.811v-23.082h15.454c2.414,0,3.521-2.215,3.521-4.117
		c0-2.309-1.306-4.315-3.521-4.315h-15.454v-22.988h29.811c2.215,0,3.521-2.215,3.521-4.817c0-2.215-1.108-4.618-3.521-4.618
		h-35.735c-2.309,0-4.712,1.202-4.712,3.511v66.351c0,2.309,2.403,3.511,4.712,3.511h35.735c2.414,0,3.521-2.403,3.521-4.608
		C375.571,228.561,374.265,226.345,372.05,226.345z"/>
	<path style="fill:#FFDE56;" d="M170.176,263.115c-1.682-0.272-3.459-0.397-5.277-0.397c-12.748,0-22.486,6.123-22.486,22.382
		v29.215c0,16.259,9.738,22.382,22.486,22.382c11.703,0,21.086-5.245,22.413-18.902c0.125-1.108,0.178-2.267,0.178-3.479V285.1
		C187.49,271.182,180.207,264.693,170.176,263.115z M176.842,314.315c0,8.829-4.514,12.946-11.943,12.946
		c-7.523,0-11.839-4.117-11.839-12.946V285.1c0-8.829,4.315-12.946,11.839-12.946c3.615,0,6.552,0.982,8.599,3.009
		c2.163,2.132,3.344,5.413,3.344,9.937L176.842,314.315L176.842,314.315z"/>
	<path style="fill:#FFDE56;" d="M246.014,262.718c-1.703,0-3.114,0.596-3.615,2.205l-16.457,57.219l-16.572-57.219
		c-0.491-1.609-1.902-2.205-3.709-2.205c-2.915,0-6.625,1.808-6.625,4.409c0,0.303,0,0.606,0.104,0.909l20.072,65.045
		c0.805,2.414,3.709,3.615,6.729,3.615c3.009,0,6.019-1.202,6.719-3.615l19.884-65.045c0.094-0.303,0.199-0.606,0.199-0.909
		C252.744,264.62,249.024,262.718,246.014,262.718z"/>
	<path style="fill:#FFDE56;" d="M305.542,326.655h-29.811v-23.082h15.454c2.414,0,3.521-2.215,3.521-4.117
		c0-2.309-1.306-4.315-3.521-4.315h-15.454v-22.988h29.811c2.215,0,3.511-2.215,3.511-4.817c0-2.215-1.097-4.618-3.511-4.618
		h-35.735c-2.309,0-4.712,1.202-4.712,3.511v66.351c0,2.309,2.403,3.511,4.712,3.511h35.735c2.414,0,3.511-2.403,3.511-4.608
		C309.053,328.87,307.757,326.655,305.542,326.655z"/>
	<path style="fill:#FFDE56;" d="M367.588,329.466l-14.054-26.394c8.025-2.006,14.148-7.931,14.148-19.874
		c0-15.569-10.438-20.48-23.082-20.48h-19.08c-2.1,0-3.511,1.599-3.511,3.406v66.455c0,2.309,2.612,3.511,5.224,3.511
		c2.706,0,5.319-1.202,5.319-3.511v-28.003h10.135l14.66,28.703c1.003,1.912,2.403,3.114,4.211,3.114
		c3.02,0,6.426-2.706,6.426-5.423C367.985,330.574,367.891,329.968,367.588,329.466z M332.553,296.04v-23.886H344.6
		c7.523,0,12.445,3.208,12.445,11.943c0,8.735-4.921,11.943-12.445,11.943H332.553z"/>
</g>
<g>
	<path style="fill:#FFE584;" d="M163.53,236.094c-1.484,0.199-3.02,0.293-4.608,0.293c-12.748,0-22.486-6.123-22.486-22.382V184.79
		c0-12.455,5.841-18.965,14.085-21.316c0.449,3.312,0.92,6.677,1.421,10.104c-3.145,1.964-4.859,5.653-4.859,11.212v29.215
		c0,8.829,4.315,12.946,11.839,12.946c0.899,0,1.755-0.063,2.56-0.188C162.141,229.856,162.82,232.96,163.53,236.094z"/>
	<path style="fill:#FFE584;" d="M187.312,317.795c-1.327,13.657-10.71,18.902-22.413,18.902c-12.748,0-22.486-6.123-22.486-22.382
		V285.1c0-16.259,9.738-22.382,22.486-22.382c1.818,0,3.594,0.125,5.277,0.397c1.066,4.002,2.173,8.014,3.323,12.048
		c-2.048-2.027-4.984-3.009-8.599-3.009c-7.523,0-11.839,4.117-11.839,12.946v29.215c0,8.829,4.315,12.946,11.839,12.946
		c7.429,0,11.943-4.117,11.943-12.946v-27.836C180.019,296.907,183.498,307.367,187.312,317.795z"/>
</g>
<path style="fill:#ED55A9;" d="M290.423,365.714h-72.453c-3.427,0-6.478,1.651-8.38,4.211c-1.296,1.735-2.069,3.897-2.069,6.238
	v72.453c0,5.768,4.681,10.449,10.449,10.449h5.162c5.768,0,10.449,4.671,10.449,10.438v0.01c0,5.768,4.671,10.449,10.449,10.449
	h20.334c5.768,0,10.449-4.681,10.449-10.449v-0.01c0-1.943,0.533-3.762,1.463-5.319c1.818-3.072,5.162-5.12,8.986-5.12h5.162
	c5.768,0,10.449-4.681,10.449-10.449v-72.453C300.871,370.395,296.19,365.714,290.423,365.714z M234.082,439.138
	c-6.06,0-10.971-4.911-10.971-10.971v-17.763c0-3.459,1.599-6.551,4.117-8.558c1.87-1.505,4.253-2.414,6.855-2.414
	c3.03,0,5.768,1.233,7.753,3.218c1.985,1.985,3.218,4.723,3.218,7.753v17.878C244.99,434.29,240.1,439.138,234.082,439.138z
	 M285.282,428.167c0,6.06-4.911,10.971-10.971,10.971c-6.06,0-10.971-4.911-10.971-10.971v-17.763
	c0-6.06,4.911-10.971,10.971-10.971c3.03,0,5.768,1.233,7.753,3.218c1.985,1.985,3.218,4.723,3.218,7.753V428.167z"/>
<path style="fill:#F486C3;" d="M276.275,464.184c-0.93,1.557-1.463,3.375-1.463,5.319v0.01c0,5.768-4.681,10.449-10.449,10.449
	h-20.334c-5.778,0-10.449-4.681-10.449-10.449v-0.01c0-5.768-4.681-10.438-10.449-10.438h-5.162
	c-5.768,0-10.449-4.681-10.449-10.449v-72.453c0-2.341,0.773-4.504,2.069-6.238c5.413,10.888,11.274,21.567,17.638,31.922
	c-2.518,2.006-4.117,5.099-4.117,8.558v17.763c0,6.06,4.911,10.971,10.971,10.971c6.019,0,10.909-4.848,10.971-10.856
	C254.541,441.061,264.927,453.119,276.275,464.184z"/>
<g>
</g>
<g>
</g>
<g>
</g>
<g>
</g>
<g>
</g>
<g>
</g>
<g>
</g>
<g>
</g>
<g>
</g>
<g>
</g>
<g>
</g>
<g>
</g>
<g>
</g>
<g>
</g>
<g>
</g>
</svg>
