<?xml version="1.0" encoding="iso-8859-1"?>
<!-- Generator: Adobe Illustrator 19.0.0, SVG Export Plug-In . SVG Version: 6.00 Build 0)  -->
<svg version="1.1" id="Capa_1" xmlns="http://www.w3.org/2000/svg" xmlns:xlink="http://www.w3.org/1999/xlink" x="0px" y="0px"
	 viewBox="0 0 512 512" style="enable-background:new 0 0 512 512;" xml:space="preserve">
<path style="fill:#384E64;" d="M425.398,447.918C380.26,487.791,320.962,512,256,512C114.615,512,0,397.385,0,256S114.615,0,256,0
	s256,114.615,256,256c0,35.981-7.437,70.221-20.835,101.286c-4.049-0.841-8.242-1.286-12.54-1.286
	c-33.896,0-61.375,27.479-61.375,61.375C417.25,428.499,420.224,438.921,425.398,447.918z"/>
<path style="fill:#FFEF87;" d="M492,353.939c0,0.5-0.021,0.99-0.028,1.487c-15.477,36.687-39.262,69.008-68.994,94.616
	c-41.117,19.737-97.358,29.222-159.682,29.905v0.008c-0.633,0.007-1.271,0.006-1.904,0.011c-0.465,0.004-0.927,0.012-1.393,0.015
	v-0.006c-1.333,0.009-2.661,0.024-4,0.024c-130.339,0-236-37.695-236-126.061c0-79.814,86.203-173.656,198.93-191.074
	c-30.106-30.981-67.596-71.811-67.596-83.032c0-22,17.834-39.833,39.833-39.833c4.818,0,9.435,0.857,13.708,2.425
	c5.503,2.02,11.674-0.622,13.666-6.135C224.08,20.959,238.756,10,256,10c1.351,0,4.063,0.216,4.095,0.219
	c0.848,0.088,3.106,0.437,3.202,0.455v0.014c13.996,2.593,25.424,12.489,30.163,25.602c1.992,5.513,8.163,8.155,13.666,6.135
	c4.273-1.568,8.89-2.425,13.708-2.425c22,0,39.833,17.834,39.833,39.833c0,11.221-37.49,52.052-67.596,83.032
	C405.797,180.283,492,274.125,492,353.939z"/>
<path style="fill:#F5D869;" d="M362.044,343c0.657-27.14-5.332-56.387-18.677-84.547c-16.768-35.383-42.217-62.861-70.557-79.507
	c-3.851,0.651-7.963,1.017-12.239,1.047c5.861,25.013,9.466,58.946,9.466,96.341c0,46.339-5.531,87.383-14.038,112.696
	c-8.506-25.313-14.038-66.357-14.038-112.696c0-37.08,3.544-70.761,9.318-95.713c-27.216,16.787-51.549,43.615-67.765,77.833
	c-13.345,28.16-19.335,57.407-18.677,84.547c-15.664-31.396-17.27-69.412-1.079-103.577c15.063-31.785,42.464-53.73,73.761-62.88
	c-3.268-1.112-6.184-2.461-8.661-3.996C136.407,203.058,70,283.891,70,353.939c0,82.64,92.415,120.959,211,125.579
	c-8.216,0.32-16.555,0.482-25,0.482c-130.339,0-236-37.695-236-126.061c0-80.151,86.931-174.457,200.358-191.298
	C220.13,161.777,220,160.896,220,160c0-3.956,2.306-7.64,6.269-10.744L205.611,91.26c-1.951-5.477,0.714-11.524,6.072-13.78
	c5.319-2.24,11.463,0.029,14.051,5.187l28.859,57.521c0.953-0.064,1.915-0.113,2.888-0.143l28.786-57.377
	c2.588-5.158,8.732-7.426,14.051-5.187c5.358,2.256,8.023,8.303,6.072,13.78l-19.253,54.051C295.044,148.965,300,154.192,300,160
	c0,6.218-5.675,11.772-14.576,15.441c32.929,8.412,62.006,30.869,77.698,63.982C379.314,273.588,377.708,311.604,362.044,343z"/>
<path style="fill:#52C3A3;" d="M375.321,141.023c-5.646-16.938-24.022-26.125-40.96-20.481l-61.774,20.591
	C270.522,140.412,268.312,140,266,140h-20c-2.312,0-4.522,0.412-6.587,1.133l-61.774-20.591
	c-16.938-5.641-35.313,3.543-40.959,20.481c-3.331,9.994-1.709,20.627,4.451,29.173c6.16,8.547,15.735,13.448,26.27,13.448
	c0.322,0,0.644-0.016,0.964-0.047l67.274-6.516c3.023,1.84,6.562,2.919,10.361,2.919h0.845v89.125c0,5.522,4.477,10,10,10
	c5.523,0,10-4.478,10-10v-67.474l14.851,29.702c2.47,4.939,8.477,6.942,13.417,4.472s6.942-8.477,4.472-13.417l-22.635-45.27
	l66.688,6.459c0.32,0.031,0.642,0.047,0.964,0.047c10.535,0,20.109-4.901,26.27-13.448
	C377.03,161.65,378.652,151.018,375.321,141.023z M206.214,159.838l-39.229,3.8c-4.469-0.144-8.441-2.604-10.606-6.712
	c-1.108-2.104-1.571-4.52-1.312-6.884c0.735-6.712,6.308-11.162,12.343-11.162c1.294,0,2.611,0.205,3.905,0.637l35.846,11.948
	C211.574,152.936,210.844,159.39,206.214,159.838z M355.612,156.944c-2.167,4.098-6.134,6.55-10.596,6.694l-39.229-3.8
	c-4.63-0.448-5.36-6.902-0.947-8.373l35.846-11.948c7.292-2.431,15.278,2.326,16.235,10.408
	C357.206,152.332,356.745,154.801,355.612,156.944z"/>
<path style="fill:#35AF94;" d="M181.242,182.35l-12.88,1.247c-0.32,0.031-0.642,0.047-0.964,0.047
	c-10.535,0-20.109-4.901-26.27-13.448c-6.16-8.546-7.782-19.179-4.451-29.173c5.646-16.938,24.021-26.122,40.959-20.481l1.323,0.441
	c-8.804,3.329-16.099,10.436-19.301,20.04c-0.086,0.259-0.156,0.521-0.235,0.781c-2.33,1.957-3.983,4.797-4.359,8.238
	c-0.259,2.364,0.204,4.78,1.312,6.884c0.783,1.487,1.81,2.75,3.004,3.773c1.028,3.339,2.601,6.545,4.729,9.498
	C168.427,176.183,174.42,180.372,181.242,182.35z M278,168h-20c-11.046,0-20-8.954-20-20c0-2.388,0.44-4.668,1.208-6.792
	C231.511,143.992,226,151.343,226,160c0,11.046,8.954,20,20,20h20c8.657,0,16.008-5.511,18.792-13.208
	C282.668,167.56,280.388,168,278,168z"/>
<g>
</g>
<g>
</g>
<g>
</g>
<g>
</g>
<g>
</g>
<g>
</g>
<g>
</g>
<g>
</g>
<g>
</g>
<g>
</g>
<g>
</g>
<g>
</g>
<g>
</g>
<g>
</g>
<g>
</g>
</svg>
