<?xml version="1.0" encoding="iso-8859-1"?>
<!-- Generator: Adobe Illustrator 19.0.0, SVG Export Plug-In . SVG Version: 6.00 Build 0)  -->
<svg version="1.1" id="Capa_1" xmlns="http://www.w3.org/2000/svg" xmlns:xlink="http://www.w3.org/1999/xlink" x="0px" y="0px"
	 viewBox="0 0 512 512" style="enable-background:new 0 0 512 512;" xml:space="preserve">
<path style="fill:#384E64;" d="M512,256c0,141.385-114.615,256-256,256S0,397.385,0,256C0,135.966,82.619,35.244,194.088,7.555
	C195.24,24.008,208.942,37,225.688,37c17.5,0,31.688-14.187,31.688-31.688c0-1.807-0.159-3.576-0.45-5.301
	C397.883,0.512,512,114.925,512,256z"/>
<path style="fill:#0F7D73;" d="M451.862,72.565L448.1,85.411c-0.108,0.367-0.108,0.757,0,1.124l3.762,12.846
	c0.444,1.517-0.964,2.926-2.482,2.482L436.535,98.1c-0.367-0.108-0.757-0.108-1.124,0l-12.846,3.762
	c-1.517,0.444-2.926-0.964-2.482-2.482l3.762-12.846c0.108-0.367,0.108-0.757,0-1.124l-3.762-12.846
	c-0.444-1.517,0.964-2.926,2.482-2.482l12.846,3.762c0.367,0.108,0.757,0.108,1.124,0l12.846-3.762
	C450.898,69.639,452.306,71.048,451.862,72.565z"/>
<path style="fill:#C8FAE1;" d="M351.832,140.168c12.622,12.622,12.622,33.085,0,45.707c-9.59,9.59-23.705,11.886-35.469,6.902
	l-13.094,13.095l2.026,2.025c6.626,6.626,6.245,17.481-0.829,23.626L250.4,278.49h-6.65l-0.258,6.001L100.426,408.77
	c-5.14,4.465-12.858,4.194-17.672-0.62l0,0c-4.833-4.833-5.084-12.589-0.574-17.725l164.917-187.796l-82.797,7.332
	c-0.3,0.026-0.598,0.04-0.894,0.04c-5.124,0-9.488-3.917-9.949-9.119c-0.487-5.501,3.577-10.355,9.079-10.843l96.582-8.553
	c2.505-0.22,4.873,0.512,6.76,1.887c5.938-2.715,13.222-1.668,18.158,3.267l2.091,2.091l13.094-13.094
	c-4.983-11.765-2.688-25.879,6.903-35.469C318.747,127.546,339.211,127.546,351.832,140.168z M455.663,154.337
	c-3.906-3.904-10.236-3.904-14.143,0l-68.561,68.561c-3.905,3.905-3.905,10.237,0,14.143c1.953,1.952,4.512,2.929,7.071,2.929
	s5.118-0.977,7.071-2.929l68.561-68.561C459.568,164.574,459.568,158.242,455.663,154.337z"/>
<path style="fill:#FFF9C8;" d="M328.099,33.466c-0.108,0.367-0.108,0.757,0,1.125l3.762,12.845c0.444,1.518-0.964,2.926-2.482,2.482
	l-12.845-3.763c-0.367-0.107-0.757-0.107-1.125,0l-12.845,3.763c-1.517,0.444-2.926-0.964-2.481-2.482l3.762-12.845
	c0.108-0.367,0.108-0.757,0-1.125l-3.762-12.846c-0.444-1.517,0.964-2.926,2.481-2.481l12.845,3.762
	c0.367,0.108,0.757,0.108,1.125,0l12.845-3.762c1.517-0.444,2.926,0.964,2.482,2.481L328.099,33.466z M489.403,168.789
	l-12.179-16.321c-0.586-0.786-0.748-1.809-0.434-2.737l6.54-19.286c0.793-2.337-1.439-4.568-3.776-3.776l-19.285,6.54
	c-0.928,0.315-1.952,0.153-2.737-0.433l-16.321-12.18c-1.978-1.476-4.79-0.043-4.758,2.424l0.26,20.363
	c0.012,0.98-0.458,1.903-1.258,2.469l-16.627,11.758c-2.015,1.425-1.521,4.542,0.835,5.274l19.446,6.045
	c0.936,0.291,1.669,1.023,1.959,1.959l6.045,19.446c0.732,2.356,3.849,2.85,5.274,0.835l11.758-16.626
	c0.566-0.8,1.489-1.271,2.469-1.258l20.363,0.26C489.447,173.579,490.879,170.767,489.403,168.789z"/>
<path style="fill:#35AF94;" d="M371.862,82.565L368.1,95.411c-0.108,0.367-0.108,0.757,0,1.124l3.762,12.846
	c0.444,1.517-0.964,2.926-2.482,2.482l-12.846-3.762c-0.367-0.108-0.757-0.108-1.124,0l-12.846,3.762
	c-1.517,0.444-2.926-0.964-2.482-2.482l3.762-12.846c0.108-0.367,0.108-0.757,0-1.124l-3.762-12.846
	c-0.444-1.517,0.964-2.926,2.482-2.482l12.846,3.762c0.367,0.108,0.757,0.108,1.124,0l12.846-3.762
	C370.898,79.639,372.306,81.048,371.862,82.565z"/>
<path style="fill:#E6A0FA;" d="M512,263.578c-15.147,28.028-26.871,48.92-96.938,48.92c-55.065,0-132.076-12.905-169.886-32.035
	l37.462,63.397c22.526,38.121,16.385,86.656-14.924,117.966c-10.807,10.807-23.53,18.526-37.075,23.168
	c-13.545-4.642-26.268-12.361-37.075-23.168l0,0c-31.31-31.31-37.45-79.845-14.924-117.966l44.055-74.555l-74.554,44.055
	c-38.121,22.526-86.656,16.386-117.966-14.924l0,0c-10.807-10.807-18.526-23.53-23.169-37.075
	c4.642-13.544,12.362-26.268,23.169-37.075c31.31-31.31,79.845-37.45,117.966-14.924l63.397,37.462
	c-19.13-37.81-32.035-114.821-32.035-169.886c0-35.203,5.275-55.677,14.078-69.258C213.561,2.673,234.467,0,256,0
	c0.441,0,0.879,0.015,1.32,0.017c12.323,13.352,20.024,34.384,20.024,76.921c0,54.933-12.843,131.71-31.897,169.616
	c37.906-19.054,114.683-31.897,169.616-31.897C485.13,214.657,496.853,235.549,512,263.578z"/>
<path style="fill:#C174DC;" d="M240.08,462.251c5.23,3.624,10.673,6.719,16.265,9.317c-7.986,5.847-16.661,10.327-25.706,13.427
	c-13.545-4.642-26.268-12.361-37.075-23.168l0,0c-31.31-31.31-37.45-79.845-14.924-117.966l43.009-72.785L200.277,327.3
	C181.262,377.321,197.639,432.844,240.08,462.251z M500.584,244.481C480.921,265.512,454.066,280,366.476,280
	c-40.843,0-89.729-3.151-135.589-8.646c28.227,24.029,120.759,41.144,184.175,41.144c70.067,0,81.791-20.892,96.938-48.92
	C508.292,256.717,504.788,250.285,500.584,244.481z M220.338,264.185c0.379,0.224,0.824,0.297,1.256,0.214
	c0.118-0.022,0.236-0.044,0.355-0.066c1.101-0.201,1.759-1.324,1.39-2.38c-15.526-44.42-16.872-134.141-7.269-196.335
	c0.06-0.39,0.121-0.779,0.182-1.166c4.285-27.208,20.999-49.393,43.453-61.673c-0.775-0.956-1.569-1.877-2.386-2.761
	c-0.011-0.005-0.02-0.009-0.031-0.014c-21.988-0.108-43.33,2.57-63.709,7.676c-8.803,13.582-14.078,34.055-14.078,69.258
	c0,52.573,11.762,125.15,29.475,164.516c0.734,1.631-1.061,3.23-2.6,2.321l-58.237-34.413
	c-38.121-22.526-86.656-16.386-117.966,14.924c-10.807,10.807-18.526,23.53-23.169,37.075c3.469,10.121,8.657,19.783,15.567,28.53
	c5.028-8.197,11.083-15.942,18.182-23.041c40.245-40.245,102.631-48.138,151.63-19.183L220.338,264.185z"/>
<g>
</g>
<g>
</g>
<g>
</g>
<g>
</g>
<g>
</g>
<g>
</g>
<g>
</g>
<g>
</g>
<g>
</g>
<g>
</g>
<g>
</g>
<g>
</g>
<g>
</g>
<g>
</g>
<g>
</g>
</svg>
