<?xml version="1.0" encoding="iso-8859-1"?>
<!-- Generator: Adobe Illustrator 19.0.0, SVG Export Plug-In . SVG Version: 6.00 Build 0)  -->
<svg version="1.1" id="Capa_1" xmlns="http://www.w3.org/2000/svg" xmlns:xlink="http://www.w3.org/1999/xlink" x="0px" y="0px"
	 viewBox="0 0 512 512" style="enable-background:new 0 0 512 512;" xml:space="preserve">
<path style="fill:#BA623E;" d="M511.976,259.521C510.1,399.149,395.463,512.095,255.822,512
	c-45.384-0.031-87.996-11.887-124.947-32.63c-0.135-0.076-0.212-0.223-0.197-0.377c0.179-1.902,0.275-3.827,0.275-5.776
	c0-33.656-27.284-60.94-60.94-60.94c-5.278,0-10.399,0.672-15.283,1.934C20.451,370.663,0,315.72,0,256C0,114.615,114.615,0,256,0
	C398.556,0,513.898,116.523,511.976,259.521z"/>
<path style="fill:#964F32;" d="M322.828,394.705l-11.744,6.423c-0.336,0.184-0.612,0.459-0.795,0.795l-6.423,11.744
	c-0.759,1.387-2.751,1.387-3.51,0l-6.423-11.744c-0.184-0.336-0.459-0.612-0.795-0.795l-11.743-6.423
	c-1.387-0.759-1.387-2.751,0-3.51l11.743-6.423c0.336-0.184,0.612-0.459,0.795-0.795l6.423-11.744c0.759-1.387,2.751-1.387,3.51,0
	l6.423,11.744c0.183,0.336,0.459,0.612,0.795,0.795l11.744,6.423C324.215,391.955,324.215,393.947,322.828,394.705z M169.9,184.833
	l-11.744-6.423c-0.336-0.184-0.612-0.459-0.795-0.795l-6.423-11.744c-0.759-1.387-2.751-1.387-3.51,0l-6.423,11.744
	c-0.184,0.335-0.459,0.611-0.795,0.795l-11.744,6.423c-1.387,0.759-1.387,2.751,0,3.509l11.744,6.423
	c0.336,0.184,0.612,0.459,0.795,0.795l6.423,11.743c0.759,1.387,2.751,1.387,3.51,0l6.423-11.743
	c0.184-0.336,0.459-0.612,0.795-0.795l11.744-6.423C171.287,187.584,171.287,185.592,169.9,184.833z"/>
<path style="fill:#783823;" d="M177.594,424.905l6.423,11.744c0.184,0.336,0.459,0.611,0.795,0.795l11.744,6.423
	c1.387,0.759,1.387,2.751,0,3.509l-11.744,6.423c-0.336,0.184-0.611,0.459-0.795,0.795l-6.423,11.744
	c-0.759,1.387-2.751,1.387-3.509,0l-6.423-11.744c-0.184-0.336-0.459-0.611-0.795-0.795l-11.744-6.423
	c-1.387-0.759-1.387-2.751,0-3.509l11.744-6.423c0.336-0.184,0.611-0.459,0.795-0.795l6.423-11.744
	C174.844,423.518,176.836,423.518,177.594,424.905z"/>
<path style="fill:#FFEF87;" d="M464.471,153.791c25.607,29.622,24.369,74.43-3.758,102.557c-29.446,29.445-77.186,29.445-106.632,0
	c-22.17-22.17-27.64-54.708-16.427-82.002c-27.295,11.213-59.833,5.743-82.002-16.427c-29.445-29.446-29.445-77.186,0-106.632
	c28.127-28.127,72.935-29.365,102.557-3.758c1.295-1.518,2.64-3.009,4.075-4.445c29.446-29.445,77.186-29.445,106.632,0
	c29.446,29.446,29.446,77.186,0,106.632C467.48,151.151,465.99,152.495,464.471,153.791z"/>
<path style="fill:#BA623E;" d="M395.367,116.633c-11.174-11.174-11.174-29.291,0-40.466c11.174-11.174,29.291-11.174,40.466,0
	c11.174,11.174,11.174,29.291,0,40.466C424.658,127.807,406.542,127.807,395.367,116.633z M288.736,84.37
	c-11.174,11.174-11.174,29.291,0,40.465s29.291,11.174,40.465,0s11.174-29.291,0-40.465C318.027,73.196,299.91,73.196,288.736,84.37
	z M387.165,182.799c-11.174,11.174-11.174,29.291,0,40.465s29.291,11.174,40.466,0c11.174-11.174,11.174-29.291,0-40.465
	C416.456,171.625,398.339,171.625,387.165,182.799z"/>
<path style="fill:#EDC555;" d="M425.954,150.824c10.558-1.999,20.648-7.079,28.819-15.25c21.635-21.635,21.635-56.712,0-78.347
	s-56.712-21.635-78.347,0c-8.171,8.171-13.251,18.261-15.25,28.819c-2.669-7.527-7.01-14.594-13.034-20.617
	c-21.635-21.635-56.712-21.635-78.348,0c-21.635,21.635-21.635,56.712,0,78.347c10.792,10.792,24.928,16.198,39.072,16.224
	L54.697,414.17c12.614,16.032,27.102,30.52,43.134,43.134L352,203.134c0.026,14.144,5.432,28.28,16.224,39.072
	c21.635,21.635,56.712,21.635,78.347,0s21.635-56.712,0-78.347C440.548,157.835,433.481,153.494,425.954,150.824z M329.201,124.835
	c-11.174,11.174-29.291,11.174-40.465,0c-11.174-11.174-11.174-29.291,0-40.465s29.291-11.174,40.465,0
	S340.375,113.661,329.201,124.835z M395.367,76.167c11.174-11.174,29.291-11.174,40.466,0c11.174,11.174,11.174,29.291,0,40.466
	c-11.174,11.174-29.291,11.174-40.466,0C384.193,105.458,384.193,87.342,395.367,76.167z M427.63,223.264
	c-11.174,11.174-29.291,11.174-40.466,0c-11.174-11.174-11.174-29.291,0-40.465s29.291-11.174,40.466,0
	C438.804,193.973,438.804,212.09,427.63,223.264z"/>
<path style="fill:#FFEF87;" d="M389.478,145.697c5.571,6.122,5.032,15.656-0.82,21.508L174.341,381.521l21.33,21.33
	c3.905,3.905,3.905,10.237,0,14.142l-20.93,20.93c-3.905,3.905-10.237,3.905-14.142,0l-21.33-21.33l-19.29,19.29l20.151,20.151
	c3.905,3.905,3.905,10.237,0,14.142l-9.215,9.215c-29.512-16.561-55.417-38.785-76.218-65.222l14.713-14.713
	c0.019-0.019,0.04-0.035,0.059-0.054l-18.034-18.034c-3.905-3.905-3.905-10.237,0-14.142l20.93-20.93
	c3.905-3.905,10.237-3.905,14.142,0l32.719,32.719c3.905,3.905,10.237,3.905,14.142,0l134.939-134.939l98.917-98.917
	C373.403,138.981,383.53,139.161,389.478,145.697z"/>
<path style="fill:#EDC555;" d="M81.35,411.344c3.887,3.908,3.877,10.224-0.021,14.122l-8.923,8.923
	c-6.25-6.431-12.177-13.177-17.73-20.234l14.713-14.713c0.019-0.019,0.04-0.035,0.059-0.054
	C69.449,399.388,75.965,405.93,81.35,411.344z M86.488,346.281c-3.905-3.905-10.237-3.905-14.142,0l-20.93,20.93
	c-3.905,3.905-3.905,10.237,0,14.142l17.653,17.653c-3.905-3.905-3.905-10.237,0-14.142l20.93-20.93
	c3.905-3.905,10.236-3.905,14.141,0L86.488,346.281z"/>
<path style="fill:#FFF9C8;" d="M165.005,289.308l6.423,11.744c0.184,0.336,0.459,0.611,0.795,0.795l11.744,6.423
	c1.387,0.759,1.387,2.751,0,3.509l-11.744,6.423c-0.336,0.184-0.611,0.459-0.795,0.795l-6.423,11.744
	c-0.759,1.387-2.751,1.387-3.509,0l-6.423-11.744c-0.184-0.336-0.459-0.611-0.795-0.795l-11.744-6.423
	c-1.387-0.759-1.387-2.751,0-3.509l11.744-6.423c0.336-0.184,0.611-0.459,0.795-0.795l6.423-11.744
	C162.254,287.921,164.246,287.921,165.005,289.308z"/>
<path style="fill:#FFF4A5;" d="M317.58,261l6.423,11.744c0.184,0.336,0.459,0.611,0.795,0.795l11.744,6.423
	c1.387,0.759,1.387,2.751,0,3.509l-11.744,6.423c-0.336,0.184-0.612,0.459-0.795,0.795l-6.423,11.744
	c-0.759,1.387-2.751,1.387-3.509,0l-6.423-11.744c-0.184-0.336-0.459-0.611-0.795-0.795l-11.744-6.423
	c-1.387-0.759-1.387-2.751,0-3.509l11.744-6.423c0.336-0.184,0.612-0.459,0.795-0.795L314.071,261
	C314.829,259.613,316.821,259.613,317.58,261z"/>
<g>
</g>
<g>
</g>
<g>
</g>
<g>
</g>
<g>
</g>
<g>
</g>
<g>
</g>
<g>
</g>
<g>
</g>
<g>
</g>
<g>
</g>
<g>
</g>
<g>
</g>
<g>
</g>
<g>
</g>
</svg>
