<?xml version="1.0" encoding="iso-8859-1"?>
<!-- Generator: Adobe Illustrator 19.0.0, SVG Export Plug-In . SVG Version: 6.00 Build 0)  -->
<svg version="1.1" id="Capa_1" xmlns="http://www.w3.org/2000/svg" xmlns:xlink="http://www.w3.org/1999/xlink" x="0px" y="0px"
	 viewBox="0 0 512 512" style="enable-background:new 0 0 512 512;" xml:space="preserve">
<path style="fill:#E6A0FA;" d="M512,256c0,141.385-114.615,256-256,256S0,397.385,0,256S114.615,0,256,0S512,114.615,512,256z"/>
<path style="fill:#FFEBEB;" d="M394.686,341.258c-5.858,5.858-15.355,5.858-21.213,0s-5.858-15.355,0-21.213s15.355-5.858,21.213,0
	C400.544,325.903,400.544,335.4,394.686,341.258z"/>
<path style="fill:#295A5F;" d="M132.921,330.651c0,23.783-11.871,44.782-30,57.432c-18.129-12.65-30-33.649-30-57.432
	s11.871-44.781,30-57.432C121.05,285.87,132.921,306.868,132.921,330.651z M266.687,224.317c18.129-12.65,30-33.649,30-57.432
	s-11.871-44.781-30-57.432c-18.129,12.65-30,33.649-30,57.432S248.558,211.667,266.687,224.317z M188.906,187.235
	c-18.129,12.65-30,33.649-30,57.432s11.871,44.782,30,57.432c18.129-12.65,30-33.649,30-57.432S207.034,199.886,188.906,187.235z
	 M425.831,201.753c-23.783,0-44.781,11.871-57.432,30c12.65,18.129,33.649,30,57.432,30c23.783,0,44.782-11.871,57.432-30
	C470.613,213.624,449.614,201.753,425.831,201.753z M262.065,365.519c-23.783,0-44.782,11.871-57.432,30
	c12.65,18.129,33.649,30,57.432,30s44.781-11.871,57.432-30C306.847,377.39,285.848,365.519,262.065,365.519z M457.633,113.453
	c-18.221,6.631-31,21.581-35.638,38.998c14.747,10.363,34.145,13.603,52.367,6.972c18.222-6.631,31-21.581,35.638-38.998
	C495.253,110.062,475.855,106.822,457.633,113.453z M348.049,279.535c-23.783,0-44.781,11.871-57.432,30
	c12.65,18.129,33.649,30,57.432,30c23.783,0,44.782-11.871,57.432-30C392.831,291.406,371.833,279.535,348.049,279.535z"/>
<path style="fill:#1B4450;" d="M465.492,146.125l-20.343,7.728c-1.356,0.526-2.755,0.728-4.119,0.658
	c-0.138,0.006-0.273,0.021-0.413,0.021h-37.689c-1.474,1.71-2.996,3.388-4.609,5.001l-62.22,62.22h73.187c5.523,0,10,4.477,10,10
	s-4.477,10-10,10h-91.924c-0.402,0-0.796-0.031-1.186-0.076l-57.858,57.858h73.187c5.523,0,10,4.477,10,10s-4.477,10-10,10h-91.924
	c-0.402,0-0.796-0.031-1.186-0.076l-66.06,66.06h73.186c5.523,0,10,4.477,10,10s-4.477,10-10,10h-91.924
	c-0.402,0-0.796-0.031-1.185-0.076l-53.043,53.043c-5.296-4.103-10.435-8.398-15.389-12.896l8.944-8.944v-89.448
	c0-5.523,4.477-10,10-10s10,4.477,10,10v69.448l65.984-65.984v-89.449c0-5.523,4.477-10,10-10s10,4.477,10,10v69.449l57.782-57.782
	v-89.449c0-5.523,4.477-10,10-10s10,4.477,10,10v69.449l107.49-107.49c13.267-13.267,20.573-30.906,20.573-49.667
	s-7.306-36.4-20.573-49.667c-21.129-21.129-55.509-21.129-76.64,0c-7.811,7.811-12.112,18.195-12.112,29.241
	s4.301,21.431,12.112,29.241c5.871,5.871,13.677,9.104,21.979,9.104c8.303,0,16.108-3.233,21.979-9.104
	c8.916-8.916,8.916-23.422,0-32.337c-3.355-3.356-7.821-4.921-12.226-4.731c0.52,4.404-0.898,8.993-4.277,12.373
	c-5.858,5.858-15.355,5.858-21.213,0s-5.858-15.355,0-21.213c0.03-0.03,0.062-0.054,0.092-0.083c0.144-0.164,0.284-0.331,0.44-0.488
	c14.152-14.151,37.176-14.15,51.327,0c16.713,16.714,16.713,43.909,0,60.623c-9.648,9.648-22.477,14.961-36.122,14.961
	c-13.645,0-26.473-5.313-36.12-14.961c-11.588-11.588-17.97-26.996-17.97-43.384s6.382-31.795,17.97-43.384
	c10.441-10.44,23.247-17.095,36.709-19.999c0.06-0.016,0.113-0.04,0.174-0.053c23.786-5.072,49.599,1.61,68.04,20.051
	c7.066,7.066,12.804,15.102,17.107,23.803c0.012,0.024,0.017,0.047,0.028,0.071c6.066,12.268,9.296,25.85,9.296,39.936
	c0,13.653-3.017,26.84-8.726,38.808h23.668l18.57-7.054c5.15-1.996,10.942,0.56,12.939,5.709S470.641,144.129,465.492,146.125z"/>
<path style="fill:#FFEBEB;" d="M174.092,200.909c5.858,5.858,5.858,15.355,0,21.213s-15.355,5.858-21.213,0s-5.858-15.355,0-21.213
	S168.234,195.051,174.092,200.909z M229.512,58.63c-5.858-5.858-15.355-5.858-21.213,0s-5.858,15.355,0,21.213
	s15.355,5.858,21.213,0S235.37,64.487,229.512,58.63z M349.992,125.831c-5.858-5.858-15.355-5.858-21.213,0
	c-5.858,5.858-5.858,15.355,0,21.213s15.355,5.858,21.213,0S355.85,131.689,349.992,125.831z M233.972,308.928
	c-5.858,5.858-5.858,15.355,0,21.213s15.355,5.858,21.213,0s5.858-15.355,0-21.213C249.328,303.071,239.83,303.071,233.972,308.928z
	"/>
<g>
</g>
<g>
</g>
<g>
</g>
<g>
</g>
<g>
</g>
<g>
</g>
<g>
</g>
<g>
</g>
<g>
</g>
<g>
</g>
<g>
</g>
<g>
</g>
<g>
</g>
<g>
</g>
<g>
</g>
</svg>
