<?xml version="1.0" encoding="iso-8859-1"?>
<!-- Generator: Adobe Illustrator 19.0.0, SVG Export Plug-In . SVG Version: 6.00 Build 0)  -->
<svg version="1.1" id="Capa_1" xmlns="http://www.w3.org/2000/svg" xmlns:xlink="http://www.w3.org/1999/xlink" x="0px" y="0px"
	 viewBox="0 0 512 512" style="enable-background:new 0 0 512 512;" xml:space="preserve">
<path style="fill:#ABD6DC;" d="M512,256c0,141.385-114.615,256-256,256S0,397.385,0,256S114.615,0,256,0S512,114.615,512,256z"/>
<path style="fill:#783823;" d="M450,230c0-11.046-8.954-20-20-20h-20c11.046,0,20-8.954,20-20s-8.954-20-20-20h-30h-10h-82
	c-3.647,0-10,0-10,0h-71.726c-11.697,0-23.255,3.226-32.944,9.779C163.478,186.442,151.86,190,139.972,190H58v120h81.972
	c11.755,0,23.247,3.479,33.028,10s21.273,10,33.028,10H278c0,0,6.353,0,10,0h92c11.046,0,20-8.954,20-20l0,0
	c0-11.046-8.954-20-20-20c0.563,0,1.116-0.039,1.667-0.084c0.551,0.046,1.104,0.084,1.667,0.084h40c11.046,0,20-8.954,20-20
	s-8.954-20-20-20H430C441.046,250,450,241.046,450,230z M381.667,250.084C381.116,250.039,380.563,250,380,250h3.333
	C382.771,250,382.218,250.039,381.667,250.084z"/>
<path style="fill:#FFF9C8;" d="M389.469,410.937L389.469,410.937c-47.755,47.755-125.182,47.755-172.937,0l0,0
	c-47.755-47.755-47.755-125.182,0-172.937l7.984-7.984c43.346-43.346,113.623-43.346,156.969,0l7.984,7.984
	C437.224,285.756,437.224,363.182,389.469,410.937z"/>
<path style="fill:#FFF4A5;" d="M247.531,204.444l5.64-21.049c17.654-65.887,50.082-126.889,94.824-178.378l0,0
	c7.951-9.15,22.948-5.131,25.259,6.768l0,0c13.003,66.961,10.585,136.004-7.069,201.891L364.49,220H253.085
	C248.325,216.569,245.922,210.448,247.531,204.444z"/>
<path style="fill:#FFF9C8;" d="M374.34,177.214l-3.24-12.09c-8.321-31.054-19.925-61.021-34.552-89.42
	c-3.429-6.658-2.793-14.674,1.561-20.767c8.239-11.531,17.033-22.692,26.369-33.436l0,0c2.674-3.078,6.146-4.659,9.664-4.958
	C383.879,69.739,383.916,124.167,374.34,177.214z"/>
<path style="fill:#FFE473;" d="M292.254,205.605l31.058-115.911c2.144-8.002,10.369-12.751,18.371-10.607l0,0
	c8.002,2.144,12.751,10.369,10.607,18.371l-31.058,115.911c-2.144,8.002-10.369,12.751-18.371,10.607l0,0
	C294.859,221.832,290.11,213.607,292.254,205.605z"/>
<path style="fill:#FFF9C8;" d="M348.184,222.259l-84.913,22.752c-7.76,2.079-15.736-2.526-17.815-10.285l-5.64-21.049
	c-17.655-65.887-20.072-134.93-7.069-201.891l0,0c2.311-11.899,17.308-15.918,25.259-6.768l0,0
	c44.741,51.488,77.169,112.49,94.824,178.378l5.64,21.049C360.549,212.204,355.944,220.18,348.184,222.259z"/>
<path style="fill:#FFEF87;" d="M303.139,223.976L303.139,223.976c-8.002,2.144-16.227-2.605-18.371-10.607L253.71,97.458
	c-2.144-8.002,2.605-16.227,10.607-18.371l0,0c8.002-2.144,16.227,2.605,18.371,10.607l31.058,115.911
	C315.89,213.607,311.141,221.832,303.139,223.976z"/>
<path style="fill:#FF8F50;" d="M60,370H26.742C9.637,335.668,0,296.962,0,256c0-27.571,4.376-54.116,12.442-79H60
	c5.523,0,10,4.477,10,10v173C70,365.523,65.523,370,60,370z"/>
<path style="fill:#FF823B;" d="M70,323.333V360c0,5.523-4.477,10-10,10H26.742c-5.847-11.736-10.797-23.993-14.813-36.667H60
	C65.523,333.333,70,328.856,70,323.333z"/>
<path style="fill:#FFF4A5;" d="M258,260c13.807,0,25,11.193,25,25s-11.193,25-25,25s-25-11.193-25-25S244.193,260,258,260z
	 M262.152,205.274c-15.668-63.34-17.367-129.368-4.915-193.489l0,0c0.381-1.963,1.113-3.707,2.097-5.217
	c-0.444-0.516-0.882-1.037-1.328-1.551l0,0c-7.951-9.15-22.948-5.131-25.259,6.768l0,0c-13.003,66.961-10.585,136.004,7.069,201.891
	l0.806,3.006c-5.674,3.864-11.074,8.301-16.106,13.333L216.531,238c-47.755,47.755-47.755,125.182,0,172.937l0,0
	c27.189,27.189,63.995,38.89,99.469,35.119c-26.832-2.852-52.902-14.553-73.469-35.119l0,0c-47.755-47.755-47.755-125.182,0-172.937
	l7.984-7.984c3.651-3.651,7.499-6.98,11.5-10.016l3.33-2.443c15.339-10.762,32.789-17.193,50.654-19.288
	C297.881,196.144,279.341,198.484,262.152,205.274z M348,260c-13.807,0-25,11.193-25,25s11.193,25,25,25s25-11.193,25-25
	S361.807,260,348,260z"/>
<path style="fill:#384E64;" d="M273,285c0,8.284-6.716,15-15,15s-15-6.716-15-15s6.716-15,15-15S273,276.716,273,285z M348,270
	c-8.284,0-15,6.716-15,15s6.716,15,15,15s15-6.716,15-15S356.284,270,348,270z"/>
<path style="fill:#C9C9D7;" d="M313,410h-20c-2.761,0-5-2.239-5-5v-30c0-2.761,2.239-5,5-5h20c2.761,0,5,2.239,5,5v30
	C318,407.761,315.761,410,313,410z"/>
<path style="fill:#FFE473;" d="M373,360c0,22.091-17.909,40-40,40c-11.951,0-22.67-5.248-30-13.557
	C295.67,394.752,284.951,400,273,400c-22.091,0-40-17.909-40-40s17.909-40,40-40c11.951,0,22.67,5.248,30,13.557
	c7.33-8.309,18.049-13.557,30-13.557C355.091,320,373,337.909,373,360z"/>
<path style="fill:#FFCD61;" d="M371.74,350c0.823,3.196,1.26,6.547,1.26,10c0,22.091-17.909,40-40,40
	c-11.951,0-22.67-5.248-30-13.557C295.67,394.752,284.951,400,273,400c-22.091,0-40-17.909-40-40c0-3.453,0.438-6.804,1.26-10
	c4.44,17.252,20.101,30,38.74,30c11.951,0,22.67-5.248,30-13.557c7.33,8.309,18.049,13.557,30,13.557
	C351.638,380,367.299,367.252,371.74,350z"/>
<path style="fill:#FA877A;" d="M329,330c0,11.046-8.954,20-20,20h-10c-11.046,0-20-8.954-20-20c0-5.523,4.477-10,10-10h30
	C324.523,320,329,324.477,329,330z"/>
<path style="fill:#FA9C8E;" d="M307.272,320H319c5.523,0,10,4.477,10,10c0,9.627-6.804,17.661-15.864,19.567
	c-9.06-1.906-15.864-9.94-15.864-19.567C297.272,324.477,301.749,320,307.272,320z"/>
<path style="fill:#BA623E;" d="M378,200c0,16.569-13.431,30-30,30H225.351c-9.638,11.622-23.932,19.25-39.887,19.946
	C153.967,251.321,128,226.193,128,195c0-1.687,0.088-3.352,0.237-5h11.736c11.755,0,23.247-3.479,33.028-10s21.273-10,33.028-10H230
	c-5.523,0-10,4.477-10,10s4.477,10,10,10h7.767H368C373.523,190,378,194.477,378,200z"/>
<path style="fill:#FA9969;" d="M360,210h-10c-2.761,0-5-2.239-5-5v-15h23c5.126,0,9.345,3.859,9.926,8.828
	C374.662,205.44,367.872,210,360,210z"/>
<path style="fill:#964F32;" d="M270,190h10v15c0,2.761-2.239,5-5,5s-5-2.239-5-5V190z M290,190v15c0,2.761,2.239,5,5,5s5-2.239,5-5
	v-15H290z"/>
<path style="fill:#3C5D78;" d="M256,512c-47.949,0-92.81-13.195-131.174-36.133c-6.083-10.563-9.58-22.803-9.58-35.867l0,0
	c0-5.523,4.477-10,10-10h318.508C396.998,480.428,330.191,512,256,512z"/>
<path style="fill:#384E64;" d="M443.333,430h0.42C396.998,480.428,330.191,512,256,512c-47.949,0-92.81-13.195-131.174-36.133
	c-6.083-10.563-9.58-22.803-9.58-35.867l0,0c0-5.523,4.477-10,10-10h8.171c1.092,10.153,4.296,19.672,9.159,28.117
	c38.364,22.938,83.226,36.133,131.174,36.133C338.802,494.25,398.174,469.974,443.333,430z"/>
<path style="fill:#FFF4A5;" d="M259,420c0,11.046-8.954,20-20,20c-3.647,0-7.056-0.992-10-2.698c-2.944,1.706-6.353,2.698-10,2.698
	s-7.056-0.992-10-2.698c-2.944,1.706-6.353,2.698-10,2.698c-11.046,0-20-8.954-20-20s8.954-20,20-20c3.647,0,7.056,0.992,10,2.698
	c2.944-1.706,6.353-2.698,10-2.698s7.056,0.992,10,2.698c2.944-1.706,6.353-2.698,10-2.698C250.046,400,259,408.954,259,420z
	 M389,400c-3.647,0-7.056,0.992-10,2.698c-2.944-1.706-6.353-2.698-10-2.698s-7.056,0.992-10,2.698
	c-2.944-1.706-6.353-2.698-10-2.698c-11.046,0-20,8.954-20,20s8.954,20,20,20c3.647,0,7.056-0.992,10-2.698
	c2.944,1.706,6.353,2.698,10,2.698s7.056-0.992,10-2.698c2.944,1.706,6.353,2.698,10,2.698c11.046,0,20-8.954,20-20
	S400.046,400,389,400z"/>
<path style="fill:#FFEF87;" d="M256.303,410c1.706,2.944,2.698,6.353,2.698,10c0,11.046-8.954,20-20,20
	c-3.647,0-7.056-0.992-10-2.698c-2.944,1.706-6.353,2.698-10,2.698s-7.056-0.992-10-2.698c-2.944,1.706-6.353,2.698-10,2.698
	c-11.046,0-20-8.954-20-20c0-3.647,0.992-7.056,2.698-10c3.46,5.972,9.904,10,17.302,10c3.647,0,7.056-0.992,10-2.698
	c2.944,1.706,6.353,2.698,10,2.698s7.056-0.992,10-2.698c2.944,1.706,6.353,2.698,10,2.698C246.398,420,252.843,415.972,256.303,410
	z M406.303,410c-3.46,5.972-9.904,10-17.302,10c-3.647,0-7.056-0.992-10-2.698c-2.944,1.706-6.353,2.698-10,2.698
	s-7.056-0.992-10-2.698c-2.944,1.706-6.353,2.698-10,2.698c-7.398,0-13.843-4.028-17.302-10c-1.706,2.944-2.698,6.353-2.698,10
	c0,11.046,8.954,20,20,20c3.647,0,7.056-0.992,10-2.698c2.944,1.706,6.353,2.698,10,2.698s7.056-0.992,10-2.698
	c2.944,1.706,6.353,2.698,10,2.698c11.046,0,20-8.954,20-20C409,416.353,408.008,412.944,406.303,410z"/>
<g>
</g>
<g>
</g>
<g>
</g>
<g>
</g>
<g>
</g>
<g>
</g>
<g>
</g>
<g>
</g>
<g>
</g>
<g>
</g>
<g>
</g>
<g>
</g>
<g>
</g>
<g>
</g>
<g>
</g>
</svg>
