<svg height="512pt" viewBox="0 0 512 512" width="512pt" xmlns="http://www.w3.org/2000/svg"><path d="m512 256c0 62.691406-22.539062 120.121094-59.949219 164.628906-5.878906 6.992188-12.128906 13.671875-18.710937 20-5.53125 5.300782-11.289063 10.371094-17.269532 15.160156-18.410156 14.769532-38.898437 27.050782-60.96875 36.320313-30.480468 12.8125-63.960937 19.890625-99.101562 19.890625-68.839844 0-131.328125-27.179688-177.339844-71.371094-6.582031-6.328125-12.832031-13.007812-18.710937-20-37.410157-44.507812-59.949219-101.9375-59.949219-164.628906 0-141.378906 114.621094-256 256-256s256 114.621094 256 256zm0 0" fill="#9e69e2"/><path d="m512 256c0 26.050781-3.890625 51.191406-11.128906 74.871094-32.011719 104.847656-129.542969 181.128906-244.871094 181.128906-104.558594 0-194.488281-62.699219-234.230469-152.550781-14-31.628907-21.769531-66.628907-21.769531-103.449219 0-46.21875 12.25-89.570312 33.679688-127 44.121093 77.070312 127.160156 129 222.320312 129s178.210938-51.929688 222.320312-129c21.429688 37.429688 33.679688 80.78125 33.679688 127zm0 0" fill="#8e4fd2"/><path d="m30.742188 377.703125c7.15625 13.21875 15.429687 25.738281 24.71875 37.425781 46.898437 59.019532 119.300781 96.871094 200.539062 96.871094s153.640625-37.851562 200.539062-96.871094c9.289063-11.6875 17.5625-24.207031 24.71875-37.425781zm0 0" fill="#7038ba"/><path d="m232.402344 439.261719 22.054687-38.761719v-37.238281h-13.335937v34.132812l-14.46875 41.867188zm0 0" fill="#20273a"/><path d="m272.214844 439.261719 21.699218-38.761719v-37.238281h-13.335937v34.132812l-14.46875 41.867188zm0 0" fill="#20273a"/><path d="m452.050781 420.628906c-5.878906 6.992188-12.128906 13.671875-18.710937 20h-354.679688c-6.582031-6.328125-12.832031-13.007812-18.710937-20zm0 0" fill="#ff9f00"/><path d="m416.070312 455.789062c-18.410156 14.769532-38.898437 27.050782-60.96875 36.320313l-18.722656-51.480469-7.269531-20-12.628906-34.730468-4.480469-12.328126 45.390625-.160156.121094.167969 33.507812 47.050781 14.25 20zm0 0" fill="#323b5a"/><path d="m357.515625 373.574219c-47.515625 23.679687-106.789063 15.714843-146.398437-23.894531-.441407-.441407-.878907-.886719-1.3125-1.328126-17.132813-17.640624-26.503907-41.40625-26.503907-66.003906v-32.859375c0-8.511719-3.378906-16.667969-9.398437-22.6875l-6.199219-6.199219c-5.914063-5.914062-13.902344-9.285156-22.269531-9.394531-14.355469-.1875-29.863282-.363281-40.800782-.476562-8.722656-.09375-14.535156-.152344-14.535156-.152344 12.945313-12.945313 28.203125-23.054687 44.796875-29.929687 10.277344-4.257813 21.070313-7.273438 32.148438-8.949219 6.402343-.976563 12.90625-1.5 19.453125-1.554688.410156-.007812.824218-.007812 1.242187-.007812 14.675781 0 28.460938 7.0625 37.035157 18.976562l7.851562 10.902344 124.769531 173.390625zm0 0" fill="#474f6f"/><path d="m164.078125 186.773438c1.910156 5.90625 8.242187 9.140624 14.148437 7.230468 5.902344-1.910156 9.140626-8.246094 7.230469-14.148437zm0 0" fill="#20273a"/><path d="m149.710938 175.476562c4.371093 5.449219 4.707031 5.867188 9.078124 11.316407l-5.195312 9.496093-8.160156 14.917969c-14.355469-.1875-29.863282-.363281-40.800782-.480469-8.722656-.089843-14.535156-.148437-14.535156-.148437.195313-.195313.390625-.390625.589844-.582031 12.816406-12.667969 27.863281-22.582032 44.207031-29.347656 4.832031-2.003907 9.78125-3.730469 14.816407-5.171876zm0 0" fill="#20273a"/><path d="m153.59375 196.289062-8.160156 14.917969c-14.355469-.1875-29.863282-.363281-40.800782-.476562-8.722656-.09375-14.535156-.152344-14.535156-.152344.195313-.195313.390625-.390625.589844-.582031 16.941406-8.855469 36.210938-13.863282 56.65625-13.863282 2.09375 0 4.179688.050782 6.25.15625zm0 0" fill="#323b5a"/><g fill="#fff"><path d="m94.398438 280.160156h-1.523438c-6.753906 0-12.226562-5.476562-12.226562-12.226562v-1.527344h-8.71875v1.527344c0 6.75-5.472657 12.226562-12.226563 12.226562h-1.523437v8.714844h1.523437c6.753906 0 12.230469 5.472656 12.230469 12.226562v1.527344h8.714844v-1.527344c0-6.753906 5.472656-12.226562 12.226562-12.226562h1.523438zm0 0"/><path d="m274.972656 43.160156h-1.523437c-6.753907 0-12.226563-5.472656-12.226563-12.226562v-1.523438h-8.714844v1.523438c0 6.753906-5.476562 12.226562-12.226562 12.226562h-1.527344v8.714844h1.527344c6.75 0 12.226562 5.476562 12.226562 12.226562v1.527344h8.714844v-1.527344c0-6.75 5.472656-12.226562 12.226563-12.226562h1.523437zm0 0"/><path d="m463.019531 274.925781h-1.523437c-6.753906 0-12.226563-5.476562-12.226563-12.226562v-1.523438h-8.71875v1.523438c0 6.75-5.472656 12.226562-12.226562 12.226562h-1.523438v8.714844h1.523438c6.753906 0 12.226562 5.472656 12.226562 12.226563v1.527343h8.71875v-1.527343c0-6.753907 5.472657-12.226563 12.226563-12.226563h1.523437zm0 0"/><path d="m122.351562 142.75h-1.523437c-6.753906 0-12.226563-5.472656-12.226563-12.226562v-1.523438h-8.714843v1.523438c0 6.753906-5.476563 12.226562-12.230469 12.226562h-1.523438v8.71875h1.523438c6.753906 0 12.230469 5.472656 12.230469 12.226562v1.523438h8.714843v-1.523438c0-6.753906 5.472657-12.226562 12.226563-12.226562h1.523437zm0 0"/></g><path d="m385.304688 153.183594c-16.289063 16.289062-42.699219 16.289062-58.984376 0-16.289062-16.285156-16.289062-42.695313 0-58.984375 2.261719-2.261719 4.71875-4.210938 7.316407-5.84375-10.335938 1.539062-20.277344 6.292969-28.230469 14.246093-19.742188 19.742188-19.742188 51.75 0 71.496094 19.746094 19.742188 51.753906 19.742188 71.496094 0 7.953125-7.953125 12.707031-17.894531 14.246094-28.230468-1.632813 2.597656-3.582032 5.054687-5.84375 7.316406zm0 0" fill="#ffd112"/><path d="m416.328125 373.410156h-58.9375c-2.191406.109375-4.390625.160156-6.609375.160156-53.871094 0-99.910156-33.539062-118.359375-80.890624-5.5625-14.289063-8.621094-29.828126-8.621094-46.078126l.007813-.171874c0-4.578126 1.863281-8.730469 4.863281-11.730469s7.148437-4.847657 11.71875-4.847657c6.308594 0 12.449219 1.109376 18.210937 3.1875 5.75 2.082032 11.109376 5.140626 15.839844 9.019532 1.617188 1.339844 3.160156 2.761718 4.628906 4.292968l50.050782 46.328126zm0 0" fill="#323b5a"/><path d="m329.121094 292.679688h-96.699219c-5.5625-14.289063-8.621094-29.828126-8.621094-46.078126l.007813-.171874c0-4.578126 1.863281-8.730469 4.863281-11.730469s7.148437-4.847657 11.71875-4.847657c6.308594 0 12.449219 1.109376 18.210937 3.1875 5.75 2.082032 11.109376 5.140626 15.839844 9.019532 1.617188 1.339844 3.160156 2.761718 4.628906 4.292968zm0 0" fill="#20273a"/></svg>