<svg height="512pt" viewBox="0 0 512 512" width="512pt" xmlns="http://www.w3.org/2000/svg"><path d="m512 256c0 90.351562-46.808594 169.769531-117.5 215.328125-39.601562 25.53125-86.699219 40.433594-137.261719 40.660156-.410156.011719-.828125.011719-1.238281.011719-51.03125 0-98.570312-14.941406-138.5-40.671875-70.691406-45.558594-117.5-124.976563-117.5-215.328125 0-126 91.03125-230.738281 210.921875-252.039062 14.628906-2.601563 29.699219-3.960938 45.078125-3.960938h.128906c14.199219.0117188 28.132813 1.171875 41.710938 3.410156 121.480468 19.960938 214.160156 125.460938 214.160156 252.589844zm0 0" fill="#9e69e2"/><path d="m512 256c0 26.050781-3.890625 51.191406-11.128906 74.871094-32.011719 104.847656-129.542969 181.128906-244.871094 181.128906-104.558594 0-194.488281-62.699219-234.230469-152.550781-14-31.628907-21.769531-66.628907-21.769531-103.449219 0-46.21875 12.25-89.570312 33.679688-127 44.121093 77.070312 127.160156 129 222.320312 129s178.210938-51.929688 222.320312-129c21.429688 37.429688 33.679688 80.78125 33.679688 127zm0 0" fill="#8e4fd2"/><path d="m30.742188 377.703125c7.15625 13.21875 15.429687 25.738281 24.71875 37.425781 46.898437 59.019532 119.300781 96.871094 200.539062 96.871094s153.640625-37.851562 200.539062-96.871094c9.289063-11.6875 17.5625-24.207031 24.71875-37.425781zm0 0" fill="#7038ba"/><path d="m260.777344 331.6875 5.378906-4.328125c1.90625-1.535156.824219-4.617187-1.628906-4.617187h-16.808594c-2.449219 0-3.535156 3.082031-1.628906 4.617187l5.382812 4.328125c2.714844 2.1875 6.585938 2.1875 9.304688 0zm0 0" fill="#7a2d1a"/><path d="m394.5 471.328125c-39.601562 25.53125-86.699219 40.433594-137.261719 40.660156-.410156.011719-.828125.011719-1.238281.011719-51.03125 0-98.570312-14.941406-138.5-40.671875 9.890625-26.878906 27.378906-50.089844 49.871094-67 4-3.007813 8.160156-5.828125 12.46875-8.429687 12.699218-7.679688 26.660156-13.488282 41.488281-17.046876 4.710937-1.140624 9.511719-2.050781 14.390625-2.722656 6.429688-.890625 12.980469-1.359375 19.640625-1.390625.050781.011719.101563.011719.152344 0h.96875c.050781.011719.097656.011719.148437 0 .210938 0 .410156 0 .609375.011719 6.839844.050781 13.582031.578125 20.171875 1.550781h.011719c4.5.648438 8.929687 1.507813 13.277344 2.558594 14.8125 3.5625 28.761719 9.371094 41.449219 17.050781 4.890624 2.949219 9.601562 6.179688 14.101562 9.667969 21.710938 16.800781 38.601562 39.523437 48.25 65.75zm0 0" fill="#474f6f"/><path d="m394.5 471.328125c-39.601562 25.53125-86.699219 40.433594-137.261719 40.660156v-137.238281c6.839844.050781 13.582031.578125 20.171875 1.550781h.011719c4.5.648438 8.929687 1.507813 13.277344 2.558594 14.8125 3.5625 28.761719 9.371094 41.449219 17.050781 4.890624 2.949219 9.601562 6.179688 14.101562 9.667969 21.710938 16.800781 38.601562 39.523437 48.25 65.75zm0 0" fill="#323b5a"/><path d="m124.191406 351.695312c31.363282 37.910157 78.761719 62.070313 131.808594 62.070313s100.445312-24.160156 131.808594-62.070313zm0 0" fill="#323b5a"/><path d="m358.824219 247.207031c12.644531 0 22.894531 10.253907 22.894531 22.898438 0 23.03125-18.667969 41.703125-41.703125 41.703125v-64.648438zm0 0" fill="#ffa87a"/><path d="m153.199219 247.207031c-12.644531 0-22.894531 10.253907-22.894531 22.898438 0 23.03125 18.671874 41.703125 41.703124 41.703125v-64.648438zm0 0" fill="#ffa87a"/><path d="m221.328125 329.722656v49.355469c0 19.148437 15.527344 34.6875 34.6875 34.6875 19.148437 0 34.683594-15.535156 34.683594-34.6875v-49.355469zm0 0" fill="#e3835a"/><path d="m221.328125 329.722656v49.355469c0 19.148437 15.527344 34.6875 34.6875 34.6875v-84.042969zm0 0" fill="#ffa87a"/><path d="m166.515625 251.507812v33.738282c0 49.410156 40.054687 89.488281 89.480469 89.5h.019531c49.40625 0 89.488281-40.082032 89.488281-89.5v-33.738282c0-5.082031-.417968-10.070312-1.257812-14.914062-5.835938-34.863281-31.847656-62.882812-65.605469-71.699219-7.226563-1.875-14.820313-2.875-22.625-2.875-.011719 0-.011719 0-.019531 0-7.824219 0-15.410156 1-22.636719 2.890625-33.757813 8.800782-59.742187 36.816406-65.585937 71.683594-.832032 4.84375-1.257813 9.832031-1.257813 14.914062zm0 0" fill="#ffa87a"/><path d="m166.515625 251.507812v33.738282c0 49.410156 40.054687 89.488281 89.480469 89.5v-212.726563c-7.824219 0-15.410156 1-22.636719 2.890625-33.757813 8.796875-59.742187 36.816406-65.585937 71.679688-.832032 4.847656-1.257813 9.835937-1.257813 14.917968zm0 0" fill="#ffc0a4"/><path d="m295.105469 274.027344c0 6.085937-4.933594 11.019531-11.019531 11.019531-6.085938 0-11.019532-4.933594-11.019532-11.019531 0-6.082032 4.933594-11.015625 11.019532-11.015625 6.085937 0 11.019531 4.933593 11.019531 11.015625zm0 0" fill="#323b5a"/><path d="m238.957031 274.027344c0 6.085937-4.933593 11.019531-11.019531 11.019531-6.082031 0-11.015625-4.933594-11.015625-11.019531 0-6.082032 4.933594-11.015625 11.015625-11.015625 6.085938 0 11.019531 4.933593 11.019531 11.015625zm0 0" fill="#323b5a"/><path d="m229.65625 318.886719c-7.785156 0-11.933594 9.34375-6.578125 15 3.359375 3.542969 7.277344 6.542969 11.621094 8.855469 6.351562 3.398437 13.605469 5.320312 21.3125 5.320312 7.710937 0 14.964843-1.917969 21.316406-5.320312 4.339844-2.3125 8.261719-5.3125 11.617187-8.855469 5.355469-5.65625 1.210938-15-6.578124-15zm0 0" fill="#323b5a"/><path d="m147.320312 243.238281c0 5.226563 3.925782 9.640625 9.117188 10.25 4.5.53125 9.082031.796875 13.714844.796875 33.953125 0 64.535156-14.503906 85.84375-37.683594 21.328125 23.179688 51.902344 37.683594 85.855468 37.683594 4.578126 0 9.097657-.257812 13.546876-.777344 2.652343-.304687 4.96875-1.59375 6.636718-3.457031 1.664063-1.875 2.671875-4.324219 2.671875-7.003906 0-40.488281-21.855469-78.285156-57.738281-97.039063-7.257812-3.785156-14.984375-6.800781-23.074219-8.914062-8.898437-2.308594-18.257812-3.535156-27.878906-3.535156-.007813 0-.007813 0-.019531 0-9.636719 0-18.992188 1.226562-27.878906 3.5625-4.621094 1.203125-9.125 2.703125-13.492188 4.464844-20.539062 8.320312-37.363281 22.652343-49.054688 40.449218-11.6875 17.78125-18.25 39.046875-18.25 61.203125zm0 0" fill="#323b5a"/><path d="m147.320312 243.238281c0 5.226563 3.925782 9.640625 9.117188 10.25 4.5.53125 9.082031.796875 13.714844.796875 33.953125 0 64.535156-14.503906 85.84375-37.683594v-83.042968c-9.636719 0-18.992188 1.226562-27.878906 3.5625-4.621094 1.203125-9.125 2.703125-13.492188 4.464844-20.539062 8.320312-37.363281 22.652343-49.054688 40.449218-11.6875 17.78125-18.25 39.046875-18.25 61.203125zm0 0" fill="#474f6f"/><path d="m256.011719 305.398438c-4.320313 0-7.824219-3.503907-7.824219-7.828126v-33.304687c0-4.324219 3.503906-7.828125 7.824219-7.828125 4.324219 0 7.828125 3.503906 7.828125 7.828125v33.304687c0 4.324219-3.503906 7.828126-7.828125 7.828126zm0 0" fill="#e3835a"/><path d="m277.324219 342.738281c-6.347657 3.40625-13.597657 5.328125-21.308594 5.328125-.011719 0-.011719 0-.019531 0-7.703125 0-14.960938-1.921875-21.300782-5.328125 5.308594-5.738281 12.878907-9.332031 21.300782-9.34375h.019531c8.421875 0 16.011719 3.605469 21.308594 9.34375zm0 0" fill="#ff3445"/><path d="m277.324219 342.738281c-6.347657 3.40625-13.597657 5.328125-21.308594 5.328125-.011719 0-.011719 0-.019531 0v-14.671875h.019531c8.421875 0 16.011719 3.605469 21.308594 9.34375zm0 0" fill="#dd1265"/><path d="m447.105469 196.792969c0-20.269531-85.5625-36.703125-191.105469-36.703125s-191.105469 16.433594-191.105469 36.703125c0 20.273437 85.5625 36.703125 191.105469 36.703125s191.105469-16.429688 191.105469-36.703125zm0 0" fill="#323b5a"/><path d="m353.351562 193.921875c0 3.9375-7.929687 7.578125-21.25 10.46875-17.761718 3.859375-45.089843 6.398437-75.972656 6.597656h-.128906c-1.261719.011719-2.5.011719-3.761719.011719-28.757812 0-54.707031-2.03125-73.117187-5.28125-10.191406-1.808594-18.070313-3.980469-22.832032-6.398438-3.347656-1.699218-5.160156-3.511718-5.160156-5.398437h.019532l9.089843-28.902344 50.683594-161.058593c14.628906-2.601563 29.699219-3.960938 45.078125-3.960938h.128906c14.199219.0117188 28.132813 1.171875 41.710938 3.410156l46.871094 160.871094 8.628906 29.589844zm0 0" fill="#474f6f"/><path d="m353.351562 193.921875c0 3.9375-7.929687 7.578125-21.25 10.46875-17.761718 3.859375-45.089843 6.398437-75.972656 6.597656v-210.988281c14.199219.0117188 28.132813 1.171875 41.710938 3.410156l46.871094 160.871094 8.628906 29.589844zm0 0" fill="#323b5a"/><g fill="#ffe955"><path d="m209.328125 95.921875 6.046875 12.25 13.519531 1.964844-9.78125 9.535156 2.308594 13.464844-12.09375-6.359375-12.089844 6.359375 2.308594-13.464844-9.78125-9.535156 13.519531-1.964844zm0 0"/><path d="m197.355469 148.597656 6.046875 12.25 13.519531 1.964844-9.78125 9.535156 2.308594 13.464844-12.09375-6.359375-12.089844 6.359375 2.308594-13.464844-9.78125-9.535156 13.519531-1.964844zm0 0"/><path d="m316.769531 148.597656 6.046875 12.25 13.519532 1.964844-9.785157 9.535156 2.308594 13.464844-12.089844-6.359375-12.089843 6.359375 2.308593-13.464844-9.78125-9.535156 13.515625-1.964844zm0 0"/><path d="m302.671875 95.921875 6.042969 12.25 13.519531 1.964844-9.78125 9.535156 2.308594 13.464844-12.089844-6.359375-12.09375 6.359375 2.308594-13.464844-9.78125-9.535156 13.519531-1.964844zm0 0"/><path d="m255.996094 130.007812 4.886718 9.902344 10.929688 1.585938-7.90625 7.707031 1.863281 10.886719-9.773437-5.140625-9.773438 5.140625 1.867188-10.886719-7.910156-7.707031 10.929687-1.585938zm0 0"/><path d="m255.996094 51.65625 5.878906 11.910156 13.144531 1.910156-9.511719 9.273438 2.246094 13.089844-11.757812-6.179688-11.757813 6.179688 2.246094-13.089844-9.511719-9.273438 13.144532-1.910156zm0 0"/></g></svg>