<svg height="512pt" viewBox="0 0 512 512" width="512pt" xmlns="http://www.w3.org/2000/svg"><path d="m512 256c0 118.921875-81.101562 218.921875-191.011719 247.671875-20.75 5.4375-42.527343 8.328125-64.988281 8.328125-23.53125 0-46.308594-3.171875-67.949219-9.121094-13.351562-3.660156-26.261719-8.378906-38.628906-14.058594-27.992187-12.832031-53.273437-30.570312-74.730469-52.109374-11.03125-11.0625-21.050781-23.121094-29.902344-36.03125-7.667968-11.160157-14.460937-22.949219-20.300781-35.289063-15.707031-33.171875-24.488281-70.261719-24.488281-109.390625 0-141.378906 114.621094-256 256-256s256 114.621094 256 256zm0 0" fill="#9e69e2"/><path d="m512 256c0 26.050781-3.890625 51.191406-11.128906 74.871094-32.011719 104.847656-129.542969 181.128906-244.871094 181.128906-104.558594 0-194.488281-62.699219-234.230469-152.550781-14-31.628907-21.769531-66.628907-21.769531-103.449219 0-46.21875 12.25-89.570312 33.679688-127 44.121093 77.070312 127.160156 129 222.320312 129s178.210938-51.929688 222.320312-129c21.429688 37.429688 33.679688 80.78125 33.679688 127zm0 0" fill="#8e4fd2"/><path d="m481.261719 377.699219c-7.160157 13.222656-15.433594 25.742187-24.722657 37.429687-8.4375 10.632813-17.71875 20.570313-27.71875 29.722656-45.539062 41.699219-106.210937 67.148438-172.820312 67.148438s-127.28125-25.449219-172.820312-67.148438c-10-9.152343-19.28125-19.089843-27.71875-29.722656-9.289063-11.6875-17.5625-24.207031-24.722657-37.429687zm0 0" fill="#7038ba"/><path d="m449.449219 163.921875c3.359375 4.332031 6.605469 8.808594 9.71875 13.421875s6.046875 9.304688 8.8125 14.046875l-183.875 117.691406-46.601563 29.824219-8.898437 5.691406-2.664063 1.703125-10.761718-15.953125 2.566406-1.824218 8.605468-6.113282 45.117188-32.058594zm0 0" fill="#7a2d1a"/><path d="m449.449219 163.921875c3.359375 4.332031 6.605469 8.808594 9.71875 13.421875l-238.609375 160.976562-5.378906-7.972656 2.566406-1.824218 8.605468-6.113282 45.121094-32.058594zm0 0" fill="#a63914"/><path d="m275.898438 364.171875-84.125 24.789063-28.945313-42.90625 54.488281-68.714844zm0 0" fill="#ffd112"/><path d="m275.898438 364.171875-84.125 24.789063-19.472657-28.867188 58.25-63.136719zm0 0" fill="#ff9f00"/><path d="m275.898438 364.171875-84.125 24.789063-14.472657-21.453126 69.304688-46.753906zm0 0" fill="#ed771b"/><path d="m197.988281 375.238281c0 .703125-.007812 1.410157-.019531 2.113281 0 .488282-.007812.96875-.027344 1.4375-.011718.710938-.03125 1.421876-.0625 2.132813 0 .199219-.007812.398437-.019531.597656-.039063.949219-.078125 1.902344-.140625 2.839844-.058594.96875-.117188 1.941406-.199219 2.902344v.007812c0 .070313-.007812.152344-.019531.21875-.039062.582031-.089844 1.152344-.140625 1.730469-.019531.261719-.050781.519531-.078125.769531-.03125.382813-.0625.761719-.101562 1.132813-.007813.167968-.03125.328125-.050782.5 0 .007812-.007812.007812-.007812.007812-.03125.292969-.0625.582032-.089844.871094 0 .019531-.011719.039062-.011719.058594-.078125.761718-.167969 1.519531-.269531 2.269531-.121094 1-.25 2.011719-.410156 3-.089844.671875-.191406 1.332031-.300782 1.980469-.199218 1.3125-.417968 2.613281-.660156 3.902344-.117187.628906-.238281 1.257812-.359375 1.890624-.148437.777344-.308593 1.546876-.46875 2.308594-.039062.179688-.082031.351563-.121093.53125 0 .027344-.007813.046875-.007813.078125-.042969.171875-.082031.339844-.121094.511719 0 .019531 0 .039062-.011719.058594l-.199218.898437c-1.050782 4.660157-2.320313 9.28125-3.800782 13.832031-.238281.75-.488281 1.5-.75 2.238282-.199218.613281-.410156 1.203125-.617187 1.800781-.042969.128906-.09375.25-.140625.371094 0 .03125-.011719.050781-.019531.070312-.171875.5-.351563.988281-.542969 1.480469-.089844.238281-.179688.488281-.269531.71875v.019531c-.269531.730469-.550781 1.460938-.839844 2.191407-.6875 1.757812-1.410156 3.5-2.167969 5.230468-.171875.429688-.363281.859375-.550781 1.277344-.652344 1.460938-1.320313 2.910156-2.011719 4.339844-.097656.203125-.199218.402344-.300781.601562-.589844 1.21875-1.199219 2.441406-1.828125 3.640625 0 .019531-.011719.027344-.011719.039063-.316406.589844-.628906 1.179687-.9375 1.769531-.359375.679687-.730469 1.359375-1.109375 2.03125-.269531.5-.5625 1-.839844 1.488281-5.070312 8.902344-11.050781 17.359375-17.910156 25.230469-.570312.652344-1.132812 1.289063-1.710937 1.921875-.320313.359375-.640625.71875-.96875 1.070312-.703125.757813-1.402344 1.507813-2.121094 2.257813-.152344.160156-.300781.320313-.460937.480469-.75.78125-1.507813 1.558594-2.289063 2.332031-.582031.578125-1.160156 1.148437-1.75 1.71875-.242187.230469-.480469.460937-.71875.679687-27.992187-12.832031-53.273437-30.570312-74.730469-52.109374-11.03125-11.0625-21.050781-23.121094-29.902344-36.03125-7.667968-11.160157-14.460937-22.949219-20.300781-35.289063l6.792969-4.582031c39.078125-26.359375 85.75-32.769532 127.988281-21.578125 2.449219.648437 4.878907 1.347656 7.289063 2.121093 3.082031.96875 6.132812 2.039063 9.152344 3.207032 2.648437 1.019531 5.277343 2.121094 7.878906 3.300781 4.308594 1.929687 8.550781 4.070313 12.691406 6.410156.117188.050781.230469.121094.339844.179688v.019531c.117187.851562.21875 1.710938.320312 2.5625.007813.039062.019532.078125.019532.117188.089843.75.167968 1.5.238281 2.25.082031.8125.160156 1.621093.230469 2.429687.039062.523437.082031 1.03125.121093 1.5625.300781 3.949219.4375 7.898437.4375 11.847656zm0 0" fill="#ffd112"/><path d="m197.988281 375.238281c0 .703125-.007812 1.410157-.019531 2.113281 0 .488282-.007812.96875-.027344 1.4375-.011718.710938-.03125 1.421876-.0625 2.132813 0 .199219-.007812.398437-.019531.597656-.039063.949219-.078125 1.902344-.140625 2.839844-.058594.96875-.117188 1.941406-.199219 2.902344v.007812c0 .070313-.007812.152344-.019531.21875-.039062.582031-.089844 1.152344-.140625 1.730469-.019531.261719-.050781.519531-.078125.769531-.03125.382813-.0625.761719-.101562 1.132813-.007813.167968-.03125.328125-.050782.5-.027344.289062-.070312.589844-.097656.878906 0 .019531-.011719.039062-.011719.058594-.078125.761718-.167969 1.519531-.269531 2.269531-.121094 1-.25 2.011719-.410156 3-.089844.671875-.191406 1.332031-.300782 1.980469-.199218 1.3125-.417968 2.613281-.660156 3.902344-.117187.628906-.238281 1.257812-.359375 1.890624-.148437.777344-.308593 1.546876-.46875 2.308594-.039062.179688-.082031.351563-.121093.53125-.039063.199219-.078126.386719-.128907.589844 0 .019531 0 .039062-.011719.058594-.050781.21875-.097656.441406-.148437.648437-.011719.082031-.03125.171875-.050781.25-1.050782 4.660157-2.320313 9.28125-3.800782 13.832031-.238281.75-.488281 1.5-.75 2.238282-.199218.613281-.410156 1.203125-.617187 1.800781-.050781.140625-.101563.289063-.152344.429687l-.007812.011719c-.171875.5-.351563.988281-.542969 1.480469-.089844.238281-.179688.488281-.269531.71875-.269531.738281-.550781 1.480469-.839844 2.210938-.6875 1.757812-1.410156 3.5-2.167969 5.230468-.171875.429688-.363281.859375-.550781 1.277344-.652344 1.460938-1.320313 2.910156-2.011719 4.339844-.097656.203125-.199218.402344-.300781.601562-.589844 1.21875-1.199219 2.441406-1.828125 3.640625 0 .019531-.011719.027344-.011719.039063-.316406.589844-.628906 1.179687-.9375 1.769531-.359375.679687-.730469 1.359375-1.109375 2.03125-.269531.5-.5625 1-.839844 1.488281-5.070312 8.902344-11.050781 17.359375-17.910156 25.230469-.570312.652344-1.132812 1.289063-1.710937 1.921875-.320313.359375-.640625.71875-.96875 1.070312-.703125.757813-1.402344 1.507813-2.121094 2.257813-.152344.160156-.300781.320313-.460937.480469-.75.78125-1.507813 1.558594-2.289063 2.332031-.582031.578125-1.160156 1.148437-1.75 1.71875-.242187.230469-.480469.460937-.71875.679687-27.992187-12.832031-53.273437-30.570312-74.730469-52.109374-11.03125-11.0625-21.050781-23.121094-29.902344-36.03125l21.519532-14.519532c31.171875-21.03125 66.292968-31.769531 101.3125-33h.007812c3.710938-.140625 7.421875-.160156 11.121094-.058594 5.859375.117188 11.710938.507813 17.53125 1.167969.117188.050781.230469.121094.339844.179688v.019531c.117187.851562.21875 1.710938.320312 2.5625.007813.039062.019532.078125.019532.117188.089843.75.167968 1.5.238281 2.25.082031.8125.160156 1.621093.230469 2.429687.039062.523437.082031 1.03125.121093 1.5625.300781 3.949219.4375 7.898437.4375 11.847656zm0 0" fill="#ff9f00"/><path d="m197.988281 375.238281c0 .703125-.007812 1.410157-.019531 2.113281 0 .488282-.007812.96875-.027344 1.4375-.011718.710938-.03125 1.421876-.0625 2.132813 0 .199219-.007812.398437-.019531.597656-.039063.949219-.078125 1.902344-.140625 2.839844-.058594.96875-.117188 1.941406-.199219 2.902344v.007812c0 .070313-.007812.152344-.019531.21875-.039062.582031-.089844 1.152344-.140625 1.730469-.019531.261719-.050781.519531-.078125.769531-.03125.382813-.0625.761719-.101562 1.132813-.019532.167968-.039063.339844-.058594.507812-.03125.292969-.0625.582032-.089844.871094 0 .019531-.011719.039062-.011719.058594-.078125.761718-.167969 1.519531-.269531 2.269531-.121094 1-.25 2.011719-.410156 3-.089844.671875-.191406 1.332031-.300782 1.980469-.199218 1.3125-.417968 2.613281-.660156 3.902344-.117187.628906-.238281 1.257812-.359375 1.890624-.148437.777344-.308593 1.546876-.46875 2.308594-.039062.179688-.082031.351563-.121093.53125 0 .027344-.007813.046875-.007813.078125-.042969.171875-.082031.339844-.121094.511719 0 .019531 0 .039062-.011719.058594-.050781.21875-.097656.441406-.148437.648437-.011719.082031-.03125.171875-.050781.25-1.050782 4.660157-2.320313 9.28125-3.800782 13.832031-.238281.75-.488281 1.5-.75 2.238282-.199218.613281-.410156 1.203125-.617187 1.800781-.042969.128906-.09375.25-.140625.371094 0 .019531-.011719.039062-.011719.058593l-.007812.011719c-.171875.5-.351563.988281-.542969 1.480469-.089844.25-.179688.488281-.269531.738281-.269531.730469-.550781 1.460938-.839844 2.191407-.6875 1.757812-1.410156 3.5-2.167969 5.230468-.171875.429688-.363281.859375-.550781 1.277344-.652344 1.460938-1.320313 2.910156-2.011719 4.339844-.097656.203125-.199218.402344-.300781.601562-.589844 1.21875-1.199219 2.441406-1.828125 3.640625-.308594.609375-.628906 1.210938-.949219 1.808594-.359375.679687-.730469 1.359375-1.109375 2.03125-.269531.5-.5625 1-.839844 1.488281-5.070312 8.902344-11.050781 17.359375-17.910156 25.230469-.570312.652344-1.132812 1.289063-1.710937 1.921875-.320313.359375-.640625.71875-.96875 1.070312-.703125.757813-1.402344 1.507813-2.121094 2.257813-.152344.160156-.300781.320313-.460937.480469-.75.78125-1.507813 1.558594-2.289063 2.332031-.582031.578125-1.160156 1.148437-1.75 1.71875-.242187.230469-.480469.460937-.71875.679687-27.992187-12.832031-53.273437-30.570312-74.730469-52.109374l102.597656-69.222657 19.332032-13.039062v.019531c.117187.851562.21875 1.710938.320312 2.5625.089844.789062.179688 1.578125.257813 2.367188.082031.8125.160156 1.621093.230469 2.429687.039062.523437.082031 1.03125.121093 1.5625.300781 3.949219.4375 7.898437.4375 11.847656zm0 0" fill="#ed771b"/><path d="m227.335938 387.40625-31.464844 7.628906-37.140625-55.050781 18.855469-26.320313zm0 0" fill="#c55835"/><path d="m227.335938 387.40625-31.464844 7.628906-28.253906-41.878906 21.324218-22.660156zm0 0" fill="#a63914"/><path d="m227.335938 387.40625-31.464844 7.628906-18.582032-27.542968 25.160157-16.972657zm0 0" fill="#7a2d1a"/><path d="m209.679688 135.148438c0 28.140624-22.808594 50.953124-50.949219 50.953124-28.132813 0-50.945313-22.8125-50.945313-50.953124 0-28.132813 22.8125-50.945313 50.945313-50.945313 1 0 2 .027344 2.984375.082031-17.097656 4.308594-29.753906 19.792969-29.753906 38.230469 0 21.765625 17.648437 39.414063 39.414062 39.414063 18.429688 0 33.90625-12.652344 38.222656-29.734376.054688.976563.082032 1.960938.082032 2.953126zm0 0" fill="#ffd112"/><g fill="#fff"><path d="m456.167969 354.394531h-1.523438c-6.753906 0-12.226562-5.472656-12.226562-12.226562v-1.523438h-8.714844v1.523438c0 6.753906-5.476563 12.226562-12.226563 12.226562h-1.527343v8.714844h1.527343c6.75 0 12.226563 5.476563 12.226563 12.226563v1.527343h8.714844v-1.527343c0-6.75 5.472656-12.226563 12.226562-12.226563h1.523438zm0 0"/><path d="m97.398438 233.53125h-1.523438c-6.753906 0-12.226562-5.472656-12.226562-12.226562v-1.523438h-8.71875v1.523438c0 6.753906-5.472657 12.226562-12.226563 12.226562h-1.523437v8.71875h1.523437c6.753906 0 12.230469 5.472656 12.230469 12.226562v1.523438h8.714844v-1.523438c0-6.753906 5.472656-12.230468 12.226562-12.230468h1.523438zm0 0"/><path d="m350.398438 97.953125h-1.523438c-6.753906 0-12.226562-5.472656-12.226562-12.226563v-1.523437h-8.71875v1.523437c0 6.753907-5.472657 12.226563-12.226563 12.226563h-1.523437v8.714844h1.523437c6.753906 0 12.226563 5.476562 12.226563 12.226562v1.527344h8.71875v-1.527344c0-6.75 5.472656-12.226562 12.226562-12.226562h1.523438zm0 0"/><path d="m274.109375 440.492188h-1.523437c-6.753907 0-12.226563-5.472657-12.226563-12.226563v-1.523437h-8.71875v1.523437c0 6.753906-5.472656 12.226563-12.226563 12.226563h-1.523437v8.714843h1.523437c6.753907 0 12.226563 5.476563 12.226563 12.226563v1.527344h8.71875v-1.527344c0-6.75 5.472656-12.226563 12.226563-12.226563h1.523437zm0 0"/><path d="m266.289062 228.652344h-1.523437c-6.753906 0-12.226563-5.472656-12.226563-12.226563v-1.523437h-8.71875v1.523437c0 6.753907-5.472656 12.226563-12.226562 12.226563h-1.523438v8.71875h1.523438c6.753906 0 12.226562 5.472656 12.226562 12.226562v1.523438h8.71875v-1.523438c0-6.753906 5.472657-12.226562 12.226563-12.226562h1.523437zm0 0"/><path d="m359.6875 326.136719h-1.523438c-6.753906 0-12.226562-5.472657-12.226562-12.226563v-1.523437h-8.714844v1.523437c0 6.753906-5.476562 12.226563-12.226562 12.226563h-1.527344v8.71875h1.527344c6.75 0 12.226562 5.472656 12.226562 12.226562v1.523438h8.714844v-1.523438c0-6.753906 5.472656-12.226562 12.226562-12.226562h1.523438zm0 0"/></g></svg>