<svg height="512pt" viewBox="0 0 512 512" width="512pt" xmlns="http://www.w3.org/2000/svg"><path d="m512 256c0 106.429688-64.960938 197.699219-157.390625 236.308594-30.347656 12.691406-63.660156 19.691406-98.609375 19.691406-3.429688 0-6.851562-.070312-10.25-.199219-20.601562-.8125-40.578125-4.0625-59.648438-9.460937-17.210937-4.878906-33.679687-11.511719-49.210937-19.691406-81.390625-42.859376-136.890625-128.269532-136.890625-226.648438 0-141.378906 114.621094-256 256-256s256 114.621094 256 256zm0 0" fill="#b5e237"/><path d="m512 256c0 26.050781-3.890625 51.191406-11.128906 74.871094-32.011719 104.847656-129.542969 181.128906-244.871094 181.128906-104.558594 0-194.488281-62.699219-234.230469-152.550781-14-31.628907-21.769531-66.628907-21.769531-103.449219 0-46.21875 12.25-89.570312 33.679688-127 44.121093 77.070312 127.160156 129 222.320312 129s178.210938-51.929688 222.320312-129c21.429688 37.429688 33.679688 80.78125 33.679688 127zm0 0" fill="#95d600"/><path d="m30.742188 377.703125c7.15625 13.21875 15.429687 25.738281 24.71875 37.425781 46.898437 59.019532 119.300781 96.871094 200.539062 96.871094s153.640625-37.851562 200.539062-96.871094c9.289063-11.6875 17.5625-24.207031 24.71875-37.425781zm0 0" fill="#85af12"/><path d="m375.085938 191.726562c-.566407 26.484376-11.445313 51.269532-30.648438 69.777344-16.207031 15.628906-36.761719 25.285156-58.84375 27.832032-10.765625 1.234374-19.539062 11.324218-19.539062 22.152343v51.683594h-38.132813v-65.679687c0-25.339844 20.730469-45.535157 46.070313-45.613282 16.496093-.054687 32.109374-6.378906 43.980468-17.824218 11.894532-11.472657 18.640625-26.792969 18.984375-43.140626.363281-16.925781-5.945312-32.894531-17.769531-44.96875-11.820312-12.078124-27.640625-18.734374-44.542969-18.734374 0 0 0 0-.003906 0-16.613281 0-32.25 6.582031-44.027344 18.53125-11.800781 11.976562-18.304687 27.832031-18.304687 44.65625v33.15625l-17.835938-15.503907c-.417968-.363281-.828125-.734375-1.230468-1.113281-14.433594-13.429688-19.484376-34.332031-12.417969-52.859375 4.957031-12.988281 12.597656-24.921875 22.628906-35.105469 19.003906-19.277344 44.289063-29.894531 71.1875-29.894531h.011719c27.234375 0 52.734375 10.726563 71.789062 30.195313 19.046875 19.460937 29.222656 45.195312 28.644532 72.453124zm0 0" fill="#fff"/><path d="m375.085938 191.726562c-.566407 26.484376-11.445313 51.269532-30.648438 69.777344-16.207031 15.628906-36.761719 25.285156-58.84375 27.832032-10.765625 1.234374-19.539062 11.324218-19.539062 22.152343v51.683594h-19.066407v-65.429687c0-14.796876 12-26.796876 26.800781-26.796876 22.207032 0 42.527344-8.808593 57.417969-23.164062 14.890625-14.359375 24.34375-34.265625 24.816407-56.460938.972656-45.765624-35.832032-83.167968-81.375-83.175781-45.097657-.003906-81.40625 37.15625-81.40625 82.253907v16.539062c-14.433594-13.425781-19.484376-34.332031-12.417969-52.859375 4.957031-12.988281 12.597656-24.921875 22.628906-35.105469 19.007813-19.277344 44.289063-29.894531 71.1875-29.894531h.011719c27.234375 0 52.734375 10.730469 71.789062 30.195313 19.046875 19.460937 29.222656 45.195312 28.644532 72.453124zm0 0" fill="#e4ebf8"/><path d="m354.609375 417.601562h-217.71875c0-60.117187 48.738281-108.855468 108.859375-108.855468s108.859375 48.738281 108.859375 108.855468zm0 0" fill="#ff9f00"/><path d="m245.75 308.746094v108.855468h-108.859375c0-60.117187 48.738281-108.855468 108.859375-108.855468zm0 0" fill="#ffe955"/><path d="m245.75 310.59375v107.007812h-59.652344c0-45.203124 23.851563-84.835937 59.652344-107.007812zm0 0" fill="#ffd112"/><path d="m354.609375 417.601562v74.707032c-30.347656 12.691406-63.660156 19.691406-98.609375 19.691406h-10.25v-.199219c-20.601562-.8125-40.578125-4.0625-59.648438-9.460937-17.210937-4.878906-33.679687-11.511719-49.210937-19.691406v-65.046876zm0 0" fill="#c55835"/><path d="m354.609375 417.601562v74.707032c-30.347656 12.691406-63.660156 19.691406-98.609375 19.691406h-10.25v-.199219c-20.601562-.8125-40.578125-4.0625-59.648438-9.460937v-84.738282zm0 0" fill="#a63914"/><path d="m354.609375 417.601562v74.707032c-30.347656 12.691406-63.660156 19.691406-98.609375 19.691406h-10.25v-94.398438zm0 0" fill="#7a2d1a"/></svg>