<svg height="512pt" viewBox="0 0 512 512" width="512pt" xmlns="http://www.w3.org/2000/svg"><path d="m512 256c0 141.386719-114.613281 256-256 256s-256-114.613281-256-256 114.613281-256 256-256 256 114.613281 256 256zm0 0" fill="#ffe955"/><path d="m512 256c0 26.050781-3.890625 51.191406-11.128906 74.871094-14.410156 47.167968-42.0625 88.558594-78.640625 119.808594-7.011719 6-14.359375 11.628906-22 16.839843-3.902344 2.671875-7.871094 5.230469-11.921875 7.671875-38.609375 23.367188-83.898438 36.808594-132.308594 36.808594-47.738281 0-92.429688-13.078125-130.691406-35.828125-3.4375-2.050781-6.820313-4.171875-10.148438-6.371094-7.789062-5.140625-15.28125-10.691406-22.441406-16.628906-30.347656-25.160156-54.796875-57.191406-70.949219-93.722656-14-31.628907-21.769531-66.628907-21.769531-103.449219 0-46.21875 12.25-89.570312 33.679688-127 15.808593 27.628906 36.621093 52.011719 61.199218 71.949219 44 35.671875 100.0625 57.050781 161.121094 57.050781 61.050781 0 117.121094-21.378906 161.121094-57.050781 24.578125-19.9375 45.390625-44.320313 61.199218-71.949219 21.429688 37.429688 33.679688 80.78125 33.679688 127zm0 0" fill="#ffd112"/><path d="m30.742188 377.703125c7.15625 13.21875 15.429687 25.738281 24.71875 37.425781 46.898437 59.019532 119.300781 96.871094 200.539062 96.871094s153.640625-37.851562 200.539062-96.871094c9.289063-11.6875 17.5625-24.207031 24.71875-37.425781zm0 0" fill="#ff9f00"/><path d="m467.542969 269.53125c0 2.039062-.105469 4.0625-.324219 6.078125-6.085938 57.65625-98.324219 103.4375-211.214844 103.4375-116.832031 0-211.546875-49.03125-211.546875-109.515625zm0 0" fill="#ff3445"/><path d="m467.542969 269.53125c0 60.484375-94.707031 109.515625-211.539063 109.515625v-109.515625zm0 0" fill="#dd1265"/><path d="m159.832031 269.53125-47.066406 131.847656-47.058594-131.847656zm0 0" fill="#fff"/><path d="m159.832031 269.53125-47.066406 131.847656v-131.847656zm0 0" fill="#e4ebf8"/><path d="m446.292969 269.53125-47.058594 131.847656-47.066406-131.847656zm0 0" fill="#fff"/><path d="m467.542969 269.53125h-71.972657c-39.132812 0-76.664062 14.117188-107.214843 38.574219-8.859375 7.09375-20.109375 11.335937-32.351563 11.335937h-.007812c-12.246094 0-23.484375-4.242187-32.355469-11.335937-30.550781-24.457031-68.074219-38.574219-107.207031-38.574219h-71.976563c0-47.21875 56.074219-85.496094 125.242188-85.496094 33.449219 0 63.832031 8.957032 86.296875 23.542969 0 .007813.007812.007813.007812.007813 22.464844-14.59375 52.847656-23.550782 86.304688-23.550782 69.167968 0 125.234375 38.277344 125.234375 85.496094zm0 0" fill="#dd1265"/><path d="m467.542969 269.53125h-71.972657c-39.132812 0-76.664062 14.117188-107.214843 38.574219-8.859375 7.09375-20.109375 11.335937-32.351563 11.335937h-.007812v-111.863281c0 .007813.007812.007813.007812.007813 22.464844-14.59375 52.847656-23.550782 86.304688-23.550782 69.167968 0 125.234375 38.277344 125.234375 85.496094zm0 0" fill="#ba0d5c"/><path d="m446.292969 269.53125-47.058594 131.847656v-131.847656zm0 0" fill="#e4ebf8"/><path d="m422.230469 450.679688c-7.011719 6-14.359375 11.628906-22 16.839843-3.902344 2.671875-7.871094 5.230469-11.921875 7.671875-1.117188-.691406-2.1875-1.480468-3.1875-2.390625-8.371094-7.53125-9.742188-19.691406-4.121094-28.75 3.539062-5.722656 7.148438-11.378906 10.328125-17.300781l8.902344-16.589844 8.910156 16.589844c3.167969 5.921875 6.78125 11.578125 10.320313 17.300781 1.289062 2.078125 2.210937 4.320313 2.769531 6.628907zm0 0" fill="#dd1265"/><path d="m422.230469 450.679688c-7.011719 6-14.359375 11.628906-22 16.839843v-57.359375l8.910156 16.589844c3.167969 5.921875 6.78125 11.578125 10.320313 17.300781 1.289062 2.078125 2.210937 4.320313 2.769531 6.628907zm0 0" fill="#ba0d5c"/><path d="m130.269531 472.800781c-1.519531 1.371094-3.191406 2.488281-4.960937 3.371094-3.4375-2.050781-6.820313-4.171875-10.148438-6.371094-7.789062-5.140625-15.28125-10.691406-22.441406-16.628906.390625-3.183594 1.460938-6.300781 3.210938-9.121094 3.539062-5.722656 7.148437-11.378906 10.332031-17.300781l8.898437-16.589844 8.898438 16.589844c3.179687 5.921875 6.792968 11.578125 10.332031 17.300781 5.621094 9.058594 4.257813 21.21875-4.121094 28.75zm0 0" fill="#dd1265"/><path d="m130.269531 472.800781c-1.519531 1.371094-3.191406 2.488281-4.960937 3.371094-3.4375-2.050781-6.820313-4.171875-10.148438-6.371094v-59.640625l8.898438 16.589844c3.179687 5.921875 6.792968 11.578125 10.332031 17.300781 5.621094 9.058594 4.257813 21.21875-4.121094 28.75zm0 0" fill="#ba0d5c"/></svg>