<svg height="512pt" viewBox="0 0 512 512" width="512pt" xmlns="http://www.w3.org/2000/svg"><path d="m512 256c0 56.808594-18.511719 109.289062-49.820312 151.761719-5.359376 7.277343-11.101563 14.25-17.167969 20.910156 0 .007813-.011719.019531-.011719.019531-7.558594 8.238282-15.609375 15.96875-24.148438 23.167969-5.121093 4.3125-10.402343 8.429687-15.851562 12.332031-12.511719 8.96875-25.851562 16.828125-39.898438 23.449219-5.492187 2.597656-11.089843 5-16.792968 7.210937-28.636719 11.070313-59.757813 17.148438-92.308594 17.148438s-63.671875-6.078125-92.308594-17.148438c-5.703125-2.210937-11.300781-4.613281-16.792968-7.210937-14.046876-6.621094-27.386719-14.480469-39.898438-23.449219-5.449219-3.902344-10.730469-8.019531-15.851562-12.332031-8.539063-7.199219-16.609376-14.949219-24.160157-23.1875-6.066406-6.660156-11.808593-13.632813-17.167969-20.910156-31.308593-42.472657-49.820312-94.953125-49.820312-151.761719 0-141.378906 114.621094-256 256-256s256 114.621094 256 256zm0 0" fill="#68fcdf"/><path d="m512 256c0 26.050781-3.890625 51.191406-11.128906 74.871094-32.011719 104.847656-129.542969 181.128906-244.871094 181.128906-104.558594 0-194.488281-62.699219-234.230469-152.550781-14-31.628907-21.769531-66.628907-21.769531-103.449219 0-46.21875 12.25-89.570312 33.679688-127 44.121093 77.070312 127.160156 129 222.320312 129s178.210938-51.929688 222.320312-129c21.429688 37.429688 33.679688 80.78125 33.679688 127zm0 0" fill="#10e2c4"/><path d="m30.742188 377.703125c7.15625 13.21875 15.429687 25.738281 24.71875 37.425781 46.898437 59.019532 119.300781 96.871094 200.539062 96.871094s153.640625-37.851562 200.539062-96.871094c9.289063-11.6875 17.5625-24.207031 24.71875-37.425781zm0 0" fill="#1aba9f"/><path d="m256 221.148438v290.851562c-32.550781 0-63.671875-6.078125-92.308594-17.148438-5.703125-2.210937-11.300781-4.613281-16.792968-7.210937-14.046876-6.621094-27.386719-14.480469-39.898438-23.449219-5.449219-3.902344-10.730469-8.019531-15.851562-12.332031-8.539063-7.199219-16.609376-14.949219-24.160157-23.1875-6.066406-6.660156-11.808593-13.632813-17.167969-20.910156.007813-.050781.019532-.101563.039063-.152344.21875-.789063.460937-1.570313.71875-2.339844.140625-.378906.273437-.769531.410156-1.148437.222657-.601563.453125-1.191406.691407-1.769532.242187-.589843.492187-1.171874.75-1.742187.320312-.710937.660156-1.417969 1.019531-2.109375.222656-.421875.441406-.851562.671875-1.261719.300781-.546875.617187-1.089843.9375-1.628906.320312-.539063.652344-1.070313 1-1.589844.339844-.519531.691406-1.039062 1.050781-1.550781.359375-.507812.730469-1.007812 1.109375-1.507812.761719-.992188 1.550781-1.949219 2.382812-2.882813.417969-.457031.839844-.917969 1.269532-1.367187.140625-.152344.289062-.300782.429687-.441407.140625-.148437.277344-.289062.429688-.429687.289062-.300782.578125-.578125.878906-.859375s.601563-.550781.902344-.820313c8.828125-7.921875 20.488281-12.730468 33.277343-12.730468-13.667968 0-26.050781-5.5-35.058593-14.410157-.289063-.28125-.582031-.570312-.859375-.871093-.429688-.449219-.851563-.910157-1.269532-1.367188-.832031-.929688-1.621093-1.890625-2.382812-2.882812-.378906-.5-.75-1-1.109375-1.507813-.359375-.511719-.710937-1.03125-1.050781-1.550781-.347656-.519532-.679688-1.050782-1-1.589844-.320313-.539062-.636719-1.078125-.9375-1.628906-.230469-.410156-.449219-.839844-.671875-1.261719-.359375-.6875-.699219-1.398437-1.019531-2.109375-.257813-.570312-.507813-1.148438-.75-1.738281-.238282-.582031-.46875-1.171875-.691407-1.773438-.417969-1.136719-.796875-2.296875-1.128906-3.488281-.121094-.390625-.21875-.789062-.320313-1.191406-.089843-.308594-.160156-.617188-.238281-.9375-.03125-.140625-.070312-.28125-.101562-.421875-.050781-.25-.097657-.5-.148438-.75-.039062-.140625-.070312-.277344-.089843-.417969-.082032-.371094-.152344-.730469-.210938-1.101562-.078125-.410157-.148438-.820313-.210938-1.230469-.039062-.289063-.089843-.589844-.117187-.890625-.03125-.179688-.050781-.347656-.070313-.527344-.070312-.53125-.132812-1.070312-.179687-1.609375-.023437-.292969-.050781-.582031-.070313-.871094-.03125-.402343-.050781-.8125-.070312-1.222656-.050781-.816406-.0625-1.636719-.0625-2.46875 0-2.589844.191406-5.128906.570312-7.597656.121094-.800781.269532-1.601563.429688-2.390625.242188-1.230469.542969-2.449219.890625-3.652344.5625-1.957031 1.230469-3.878906 2.011719-5.730469.519531-1.226562 1.089844-2.429687 1.699218-3.609375 0-.007812 0-.019531.007813-.027344.3125-.601562.640625-1.191406.980469-1.78125.179687-.332031.371094-.660156.570312-.980468.550782-.917969 1.132813-1.808594 1.75-2.691406.222656-.308594.441406-.609376.660156-.917969.449219-.621094.921876-1.230469 1.390626-1.820313 9.140624-11.351562 23.148437-18.621094 38.859374-18.621094h8.742188v-.929687c0-13.757813 5.578125-26.210937 14.597656-35.230469 4.839844-4.839844 10.671875-8.6875 17.152344-11.21875h.007812c.019532-.011718.03125-.011718.050782-.019531.589844-.21875 1.171875-.441406 1.761718-.640625.019532 0 .027344-.011719.039063-.011719.507813-.179687 1.019531-.339843 1.539063-.5.121093-.039062.230468-.066406.351562-.109375.058594-.007812.109375-.027344.160156-.050781.578125-.167969 1.167969-.328125 1.757813-.476563.441406-.121093.878906-.222656 1.332031-.320312.519531-.121094 1.046875-.230469 1.570312-.332031.328126-.070313.660157-.128907.988282-.179688.339844-.058593.671875-.109375 1-.160156.101562-.019531.199218-.039063.289062-.039063.3125-.050781.609375-.101562.921875-.128906.539063-.070312 1.078125-.132812 1.628907-.179687.449218-.050781.910156-.082031 1.378906-.113281.632812-.039063 1.269531-.070313 1.910156-.089844h.109375c.410156-.007813.820313-.019532 1.242187-.019532h.039063c.0625-27.46875 22.339844-49.710937 49.820313-49.710937 13.761718 0 26.21875 5.582031 35.230468 14.59375 9.011719 9.007813 14.589844 21.46875 14.589844 35.226563zm0 0" fill="#ff7196"/><g fill="#ed5680"><path d="m61.871094 386.710938c8.378906-8.761719 19.949218-14.472657 32.847656-15.28125-12.898438-.808594-24.46875-6.507813-32.847656-15.28125-.429688-.449219-.851563-.910157-1.269532-1.367188-.839843-.929688-1.640624-1.890625-2.382812-2.882812-.378906-.5-.75-1-1.109375-1.507813-.371094-.511719-.730469-1.03125-1.050781-1.550781-.347656-.519532-.679688-1.050782-1-1.589844-.320313-.539062-.636719-1.078125-.9375-1.628906-.230469-.410156-.449219-.839844-.671875-1.261719-.359375-.6875-.699219-1.398437-1.019531-2.109375-.257813-.570312-.507813-1.148438-.75-1.738281-.238282-.582031-.46875-1.171875-.691407-1.773438-.417969-1.136719-.796875-2.296875-1.128906-3.488281-.121094-.390625-.21875-.789062-.320313-1.191406-.089843-.308594-.160156-.617188-.238281-.9375-.03125-.140625-.070312-.28125-.101562-.421875-.050781-.25-.097657-.5-.148438-.75-.039062-.140625-.070312-.277344-.089843-.417969-.082032-.371094-.152344-.730469-.210938-1.101562-.078125-.410157-.148438-.820313-.210938-1.230469-.039062-.289063-.089843-.589844-.117187-.890625-.03125-.179688-.050781-.347656-.070313-.527344-.070312-.53125-.132812-1.070312-.179687-1.609375-.023437-.292969-.050781-.582031-.070313-.871094-.03125-.402343-.050781-.8125-.070312-1.222656-.050781-.816406-.0625-1.636719-.0625-2.46875 0-2.589844.191406-5.128906.570312-7.597656.121094-.800781.269532-1.601563.429688-2.390625.242188-1.230469.542969-2.449219.890625-3.652344.5625-1.957031 1.230469-3.878906 2.011719-5.730469.519531-1.226562 1.078125-2.429687 1.699218-3.609375 0-.007812 0-.019531.007813-.027344 8.320313-15.992187 25.042969-26.921874 44.3125-26.921874v.109374h8.640625c0 27.511719 22.296875 49.820313 49.820312 49.820313h40.757813c2.511719 0 4.78125 1.019531 6.410156 2.652344 1.652344 1.648437 2.660157 3.917969 2.660157 6.417969 0 5.011718-4.058594 9.070312-9.070313 9.070312h-40.757813c-9.160156 0-18.070312-1.789062-26.460937-5.339844-8.101563-3.429687-15.359375-8.332031-21.601563-14.558594-6.238281-6.242187-11.128906-13.511718-14.558593-21.601562-1.058594-2.511719-1.960938-5.070312-2.710938-7.660156-14.289062 3.160156-25 15.960937-24.910156 31.210937.109375 17.550781 14.679687 31.589844 32.230469 31.589844h41.839844c4.992187 0 9.511718 2.019531 12.78125 5.289063 3.269531 3.269531 5.300781 7.789062 5.300781 12.789062 0 9.980469-8.101563 18.070312-18.082031 18.070312h-42.289063v-.058593c-17.519531 0-31.78125 14.25-31.78125 31.78125 0 2.546875.300781 5.027343.878906 7.410156-6.066406-6.660156-11.808593-13.632813-17.167969-20.910156.007813-.050781.019532-.101563.039063-.152344.21875-.789063.460937-1.570313.71875-2.339844.140625-.378906.273437-.769531.410156-1.148437.222657-.601563.453125-1.191406.691407-1.769532.242187-.589843.492187-1.171874.75-1.742187.320312-.710937.660156-1.417969 1.019531-2.109375.222656-.421875.441406-.851562.671875-1.261719.300781-.546875.617187-1.089843.9375-1.628906.320312-.539063.652344-1.070313 1-1.589844.320312-.519531.679687-1.039062 1.050781-1.550781.359375-.507812.730469-1.007812 1.109375-1.507812.742188-.992188 1.542969-1.949219 2.382812-2.882813.417969-.457031.839844-.917969 1.269532-1.367187zm0 0"/><path d="m256 403.109375v18.140625h-99.648438v.011719c-25.179687 0-45.992187 18.667969-49.351562 42.929687-5.449219-3.902344-10.730469-8.019531-15.851562-12.332031.722656-2.449219 1.582031-4.871094 2.582031-7.25 3.429687-8.089844 8.320312-15.359375 14.558593-21.597656 6.242188-6.230469 13.5-11.132813 21.601563-14.5625 8.390625-3.539063 17.300781-5.339844 26.460937-5.339844zm0 0"/><path d="m215.261719 462.011719c0 5.007812-4.070313 9.066406-9.082031 9.066406v-.007813c-13.757813 0-26.21875 5.578126-35.238282 14.589844-2.761718 2.761719-5.191406 5.839844-7.25 9.191406-5.703125-2.210937-11.300781-4.613281-16.792968-7.210937 3.023437-5.410156 6.78125-10.371094 11.222656-14.8125 6.238281-6.226563 13.5-11.128906 21.597656-14.546875 8.390625-3.550781 17.292969-5.351562 26.460938-5.351562 5.011718 0 9.082031 4.058593 9.082031 9.082031zm0 0"/><path d="m206.183594 289.003906c0 .003906-.003906.003906-.007813.003906-9.164062 0-18.070312-1.800781-26.457031-5.347656-8.097656-3.425781-15.363281-8.324218-21.601562-14.558594-6.234376-6.238281-11.132813-13.507812-14.554688-21.601562-3.113281-7.355469-4.878906-15.101562-5.269531-23.082031-.070313.027343-.136719.054687-.207031.082031.066406-.03125.140624-.058594.207031-.085938 1.222656-.476562 2.472656-.902343 3.738281-1.285156.054688-.015625.105469-.03125.160156-.046875 4.070313-1.203125 8.355469-1.902343 12.785156-2.023437.035157 0 .070313-.003906.105469-.003906.410157-.011719.820313-.015626 1.234375-.015626h.035156.003907c0 27.519532 22.308593 49.824219 49.828125 49.824219v-.007812c5.011718 0 9.074218 4.0625 9.074218 9.074219 0 5.011718-4.066406 9.074218-9.074218 9.074218zm0 0"/><path d="m445 428.691406s.011719-.011718.011719-.019531c6.066406-6.660156 11.808593-13.632813 17.167969-20.910156-.007813-.050781-.019532-.101563-.039063-.152344-.21875-.789063-.460937-1.570313-.71875-2.339844-.140625-.378906-.273437-.769531-.410156-1.148437-.222657-.601563-.453125-1.191406-.691407-1.769532-.242187-.589843-.492187-1.171874-.75-1.742187-.421874-.929687-.871093-1.839844-1.351562-2.738281-.109375-.210938-.21875-.429688-.339844-.632813-.160156-.289062-.320312-.589843-.5-.878906-.140625-.25-.289062-.5-.4375-.75-.152344-.269531-.3125-.539063-.492187-.800781-.167969-.269532-.328125-.527344-.507813-.789063-.339844-.519531-.691406-1.039062-1.050781-1.550781-.359375-.507812-.730469-1.007812-1.109375-1.507812-.382812-.5-.769531-.980469-1.160156-1.460938-.402344-.480469-.800782-.960938-1.222656-1.421875-.417969-.457031-.839844-.917969-1.269532-1.367187-.277344-.289063-.570312-.589844-.859375-.871094-.578125-.578125-1.179687-1.140625-1.78125-1.679688-8.828125-7.921875-20.488281-12.730468-33.277343-12.730468 13.667968 0 26.050781-5.5 35.058593-14.410157.289063-.28125.582031-.578125.859375-.871093.429688-.449219.851563-.910157 1.269532-1.367188.421874-.460938.820312-.941406 1.222656-1.421875.390625-.480469.777344-.960937 1.160156-1.460937.378906-.5.75-1 1.109375-1.507813.359375-.511719.710937-1.03125 1.050781-1.550781.179688-.261719.339844-.519532.507813-.789063.179687-.261719.339843-.53125.492187-.800781.148438-.25.296875-.5.4375-.75.179688-.289062.339844-.589844.5-.878906.121094-.199219.230469-.421875.339844-.632813.480469-.898437.929688-1.808593 1.351562-2.738281.257813-.570312.507813-1.148438.75-1.738281.238282-.582031.46875-1.171875.691407-1.773438.417969-1.136719.796875-2.296875 1.128906-3.488281.121094-.390625.21875-.789062.320313-1.191406.089843-.308594.160156-.617188.238281-.9375.03125-.140625.070312-.28125.101562-.421875.050781-.25.097657-.5.148438-.75.039062-.140625.070312-.277344.101562-.417969.070313-.371094.140625-.730469.199219-1.101562.078125-.410157.148438-.820313.210938-1.230469.039062-.289063.089843-.589844.117187-.890625.03125-.179688.050781-.347656.070313-.527344.070312-.53125.132812-1.070312.179687-1.609375.023437-.292969.050781-.582031.070313-.871094.03125-.402343.050781-.8125.070312-1.222656.050781-.816406.0625-1.636719.0625-2.46875 0-2.589844-.191406-5.128906-.570312-7.597656-.121094-.800781-.269532-1.601563-.429688-2.390625-.242188-1.230469-.542969-2.449219-.890625-3.652344-.140625-.507812-.300781-1.019531-.460937-1.519531-.109376-.347657-.230469-.699219-.351563-1.050781-.066406-.21875-.136719-.429688-.21875-.636719-.128906-.371094-.269531-.75-.417969-1.121094-.179687-.46875-.363281-.941406-.5625-1.402344-.519531-1.226562-1.089844-2.429687-1.699218-3.609375-.269532-.527344-.550782-1.050781-.851563-1.570312-.40625-.71875-.828125-1.417969-1.269531-2.117188 0-.011718 0-.011718-.007813-.011718-.441406-.691407-.902343-1.378907-1.378906-2.050782-.5625-.800781-1.152344-1.589844-1.761719-2.347656-9.140625-11.421875-23.191406-18.742188-38.949218-18.742188h-8.742188v-.929687c0-13.757813-5.578125-26.210937-14.597656-35.230469-4.839844-4.839844-10.671875-8.6875-17.152344-11.21875h-.007812c-.019532-.011718-.03125-.011718-.050782-.019531-.589844-.21875-1.171875-.441406-1.761718-.640625-.019532 0-.027344-.011719-.039063-.011719-.507813-.179687-1.019531-.339843-1.539063-.5-.121093-.039062-.230468-.066406-.351562-.109375-.058594-.007812-.109375-.027344-.160156-.050781-.578125-.167969-1.167969-.328125-1.757813-.476563-.039062-.011718-.082031-.03125-.128906-.03125-.402344-.109374-.792969-.199218-1.203125-.289062-.847656-.203125-1.699219-.371094-2.558594-.511719-.339844-.058593-.671875-.109375-1-.160156-.480468-.078125-.960937-.140625-1.441406-.199219-.457031-.058594-.929688-.109375-1.398438-.148437-.449218-.050781-.910156-.082031-1.378906-.113281-.210937-.007813-.410156-.027344-.613281-.027344-.429687-.03125-.859375-.050782-1.296875-.0625-.042969 0-.082031 0-.109375 0-.410156-.007813-.820313-.019532-1.242187-.019532-.007813 0-.019532 0-.03125 0h-.007813c-.0625-27.46875-22.339844-49.710937-49.820313-49.710937-13.761718 0-26.21875 5.582031-35.230468 14.59375-9.011719 9.007813-14.589844 21.46875-14.589844 35.226563v290.851562c32.550781 0 63.671875-6.078125 92.308594-17.148438 5.703125-2.210937 11.300781-4.613281 16.792968-7.210937 14.046876-6.621094 27.386719-14.480469 39.898438-23.449219 5.449219-3.902344 10.730469-8.019531 15.851562-12.332031zm0 0"/></g><path d="m418.269531 444.609375c1 2.378906 1.859375 4.800781 2.582031 7.25-5.121093 4.3125-10.402343 8.429687-15.851562 12.332031-3.359375-24.261718-24.171875-42.929687-49.351562-42.929687v-.011719h-99.648438v-18.140625h99.648438c9.160156 0 18.070312 1.800781 26.460937 5.339844 8.101563 3.429687 15.359375 8.332031 21.601563 14.5625 6.238281 6.238281 11.128906 13.507812 14.558593 21.597656zm0 0" fill="#de1065"/><path d="m464.03125 321.609375c0 .832031-.011719 1.652344-.0625 2.46875-.019531.410156-.039062.820313-.070312 1.222656-.019532.289063-.046876.578125-.070313.871094-.046875.539063-.109375 1.078125-.179687 1.609375-.019532.179688-.039063.347656-.070313.527344-.027344.300781-.078125.601562-.117187.890625-.0625.410156-.132813.820312-.210938 1.230469-.058594.371093-.128906.730468-.199219 1.101562-.03125.140625-.0625.277344-.101562.417969-.050781.25-.097657.5-.148438.75-.03125.140625-.070312.28125-.101562.421875-.078125.320312-.148438.628906-.238281.9375-.101563.402344-.199219.800781-.320313 1.191406-.332031 1.191406-.710937 2.351562-1.128906 3.488281-.222657.601563-.453125 1.191407-.691407 1.773438-.242187.589843-.492187 1.167969-.75 1.738281-.421874.929688-.871093 1.839844-1.351562 2.738281-.109375.210938-.21875.433594-.339844.632813-.160156.289062-.320312.589844-.5.878906-.140625.25-.289062.5-.4375.75-.152344.269531-.3125.539062-.492187.800781-.167969.269531-.328125.527344-.507813.789063-.320312.519531-.679687 1.039062-1.050781 1.550781-.359375.507813-.730469 1.007813-1.109375 1.507813-.382812.5-.769531.980468-1.160156 1.460937-.402344.480469-.800782.960937-1.222656 1.421875-.417969.457031-.839844.917969-1.269532 1.367188-8.378906 8.773437-19.949218 14.472656-32.847656 15.28125 12.898438.808593 24.46875 6.519531 32.847656 15.28125.429688.449218.851563.910156 1.269532 1.367187.421874.460937.820312.941406 1.222656 1.421875.390625.480469.777344.960938 1.160156 1.460938.378906.5.75 1 1.109375 1.507812.371094.511719.730469 1.03125 1.050781 1.550781.179688.261719.339844.519531.507813.789063.179687.261718.339843.53125.492187.800781.148438.25.296875.5.4375.75.179688.289063.339844.589844.5.878906.121094.203125.230469.421875.339844.632813.480469.898437.929688 1.808594 1.351562 2.738281.257813.570313.507813 1.152344.75 1.742187.238282.578126.46875 1.167969.691407 1.769532.136719.378906.269531.769531.410156 1.148437.257813.769531.5 1.550781.71875 2.339844.019531.050781.03125.101563.039063.152344-5.359376 7.277343-11.101563 14.25-17.167969 20.910156.578125-2.382813.878906-4.863281.878906-7.410156 0-17.53125-14.261719-31.78125-31.78125-31.78125v.058593h-42.289063c-9.980468 0-18.082031-8.089843-18.082031-18.070312 0-5 2.03125-9.519531 5.300781-12.789062 3.269532-3.269532 7.789063-5.289063 12.78125-5.289063h41.839844c17.550782 0 32.121094-14.039063 32.230469-31.589844.089844-15.25-10.621094-28.050781-24.910156-31.210937-.75 2.589844-1.652344 5.148437-2.710938 7.660156-3.429687 8.089844-8.320312 15.359375-14.558593 21.601562-6.242188 6.226563-13.5 11.128907-21.601563 14.558594-8.390625 3.550782-17.300781 5.339844-26.460937 5.339844h-40.757813c-5.011719 0-9.070313-4.058594-9.070313-9.070312 0-2.5 1.007813-4.769532 2.660157-6.417969 1.628906-1.632813 3.898437-2.652344 6.410156-2.652344h40.757813c13.761718 0 26.210937-5.578125 35.230468-14.589844 9.019532-9.019531 14.589844-21.480469 14.589844-35.230469h8.640625v-.109374c16.871094 0 31.789063 8.378906 40.8125 21.199218.96875 1.351563 1.847656 2.742188 2.65625 4.179688.300781.519531.582031 1.042968.851563 1.570312.621093 1.179688 1.179687 2.382813 1.699218 3.609375.199219.460938.382813.933594.5625 1.402344.148438.371094.289063.75.417969 1.121094.082031.207031.152344.417969.21875.636719.121094.351562.242187.703124.351563 1.050781.160156.5.320312 1.011719.460937 1.519531.347656 1.203125.648437 2.421875.890625 3.652344.160156.789062.308594 1.589844.429688 2.390625.378906 2.46875.570312 5.007812.570312 7.597656zm0 0" fill="#de1065"/><path d="m353.878906 472.828125c4.441406 4.441406 8.199219 9.402344 11.222656 14.8125-5.492187 2.597656-11.089843 5-16.792968 7.210937-2.058594-3.351562-4.488282-6.429687-7.25-9.191406-9.019532-9.011718-21.480469-14.589844-35.238282-14.589844v.007813c-5.011718 0-9.082031-4.058594-9.082031-9.066406 0-5.023438 4.070313-9.082031 9.082031-9.082031 9.167969 0 18.070313 1.800781 26.460938 5.351562 8.097656 3.417969 15.359375 8.320312 21.597656 14.546875zm0 0" fill="#de1065"/><path d="m305.816406 289.003906c0 .003906.003906.003906.007813.003906 9.164062 0 18.070312-1.800781 26.457031-5.347656 8.097656-3.425781 15.363281-8.324218 21.601562-14.558594 6.234376-6.238281 11.132813-13.507812 14.554688-21.601562 3.113281-7.355469 4.878906-15.101562 5.269531-23.082031.070313.027343.136719.054687.207031.082031-.066406-.03125-.140624-.058594-.207031-.085938-1.226562-.476562-2.472656-.902343-3.738281-1.285156-.054688-.015625-.105469-.03125-.160156-.046875-4.070313-1.203125-8.355469-1.902343-12.785156-2.023437-.035157 0-.070313-.003906-.105469-.003906-.410157-.011719-.820313-.015626-1.234375-.015626-.011719 0-.023438 0-.035156 0h-.003907c0 27.519532-22.308593 49.824219-49.828125 49.824219v-.007812c-5.011718 0-9.074218 4.0625-9.074218 9.074219 0 5.011718 4.066406 9.074218 9.074218 9.074218zm0 0" fill="#de1065"/></svg>