<svg height="512pt" viewBox="0 0 512 512" width="512pt" xmlns="http://www.w3.org/2000/svg"><path d="m512 256c0 84.011719-40.46875 158.578125-102.988281 205.25-25.980469 19.398438-55.761719 33.980469-88.023438 42.421875-20.386719 5.347656-41.769531 8.226563-63.816406 8.316406-.390625.011719-.78125.011719-1.171875.011719-23.53125 0-46.308594-3.171875-67.949219-9.121094-30.230469-8.300781-58.230469-22.007812-82.878906-40.007812-63.75-46.570313-105.171875-121.890625-105.171875-206.871094 0-85.140625 41.558594-160.570312 105.511719-207.109375 11.457031-8.351563 23.636719-15.761719 36.4375-22.140625 24.339843-12.128906 50.878906-20.511719 78.871093-24.339844 7.609376-1.058594 15.320313-1.769531 23.128907-2.128906 1.910156-.089844 3.820312-.160156 5.742187-.203125 2.089844-.0585938 4.199219-.078125 6.308594-.078125 9.230469 0 18.339844.488281 27.320312 1.449219 8.757813.921875 17.390626 2.300781 25.871094 4.101562.648438.128907 1.296875.269531 1.949219.410157 6.289063 1.367187 12.5 2.988281 18.597656 4.828124.703125.210938 1.402344.421876 2.101563.640626 104.351562 32.320312 180.160156 129.589843 180.160156 244.570312zm0 0" fill="#65b2ff"/><path d="m512 256c0 26.050781-3.890625 51.191406-11.128906 74.871094-32.011719 104.847656-129.542969 181.128906-244.871094 181.128906-104.558594 0-194.488281-62.699219-234.230469-152.550781-14-31.628907-21.769531-66.628907-21.769531-103.449219 0-46.21875 12.25-89.570312 33.679688-127 44.121093 77.070312 127.160156 129 222.320312 129s178.210938-51.929688 222.320312-129c21.429688 37.429688 33.679688 80.78125 33.679688 127zm0 0" fill="#0f9be8"/><path d="m481.261719 377.699219c-7.160157 13.222656-15.433594 25.742187-24.722657 37.429687-8.4375 10.632813-17.71875 20.570313-27.71875 29.722656-45.539062 41.699219-106.210937 67.148438-172.820312 67.148438s-127.28125-25.449219-172.820312-67.148438c-10-9.152343-19.28125-19.089843-27.71875-29.722656-9.289063-11.6875-17.5625-24.207031-24.722657-37.429687zm0 0" fill="#0066e8"/><path d="m409.011719 461.25c-25.980469 19.398438-55.761719 33.980469-88.023438 42.421875-20.386719 5.347656-41.769531 8.226563-63.816406 8.316406v.011719h-1.171875c-23.53125 0-46.308594-3.171875-67.949219-9.121094-30.230469-8.300781-58.230469-22.007812-82.878906-40.007812l23-244.390625c0-71.25 57.757813-128.992188 129-128.992188 71.238281 0 128.988281 57.742188 128.988281 128.992188zm0 0" fill="#474f6f"/><path d="m409.011719 461.25c-25.980469 19.398438-55.761719 33.980469-88.023438 42.421875-20.386719 5.347656-41.769531 8.226563-63.816406 8.316406v-422.5c71.238281 0 128.988281 57.742188 128.988281 128.992188zm0 0" fill="#323b5a"/><path d="m367.351562 216.898438c0 23.078124-7.023437 36.523437-19.050781 44.304687-28.96875 18.742187-48.421875 48.996094-53.3125 83.15625-7.992187 55.753906-22.460937 63.894531-38.984375 63.894531-16.523437 0-30.992187-8.140625-38.984375-63.894531-4.890625-34.160156-24.34375-64.414063-53.308593-83.15625-12.03125-7.78125-19.054688-21.226563-19.054688-44.304687 0-61.503907 49.855469-111.359376 111.347656-111.359376 61.492188 0 111.347656 49.855469 111.347656 111.359376zm0 0" fill="#fff"/><path d="m367.351562 216.898438c0 23.078124-7.023437 36.523437-19.050781 44.304687-28.96875 18.742187-48.421875 48.996094-53.3125 83.15625-7.992187 55.753906-22.460937 63.894531-38.984375 63.894531v-302.714844c61.492188 0 111.347656 49.855469 111.347656 111.359376zm0 0" fill="#e4ebf8"/><path d="m274.691406 264.71875v103.140625c0 10.3125-8.371094 18.679687-18.691406 18.679687-10.308594 0-18.679688-8.367187-18.679688-18.679687v-103.140625c0-10.308594 8.371094-18.679688 18.679688-18.679688 5.171875 0 9.828125 2.089844 13.21875 5.472657 3.382812 3.386719 5.472656 8.058593 5.472656 13.207031zm0 0" fill="#474f6f"/><path d="m274.691406 264.71875v103.140625c0 10.3125-8.371094 18.679687-18.691406 18.679687v-140.5c5.171875 0 9.828125 2.089844 13.21875 5.472657 3.382812 3.386719 5.472656 8.058593 5.472656 13.207031zm0 0" fill="#323b5a"/><path d="m184.050781 237.960938h-.859375c-9.402344 0-17.019531-7.621094-17.019531-17.023438s7.621094-17.023438 17.019531-17.023438h.859375c14.390625 0 26.097657-11.710937 26.097657-26.101562 0-9.402344 7.625-17.023438 17.023437-17.023438 9.402344 0 17.023437 7.621094 17.023437 17.023438 0 33.164062-26.980468 60.148438-60.144531 60.148438zm0 0" fill="#474f6f"/><path d="m327.957031 237.960938h.859375c9.402344 0 17.023438-7.621094 17.023438-17.023438s-7.625-17.023438-17.023438-17.023438h-.859375c-14.390625 0-26.097656-11.710937-26.097656-26.101562 0-9.402344-7.625-17.023438-17.023437-17.023438-9.402344 0-17.023438 7.621094-17.023438 17.023438 0 33.164062 26.980469 60.148438 60.144531 60.148438zm0 0" fill="#323b5a"/></svg>