<svg height="512pt" viewBox="0 0 512 512" width="512pt" xmlns="http://www.w3.org/2000/svg"><path d="m512 256c0 65.148438-24.351562 124.621094-64.421875 169.808594v.011718c-46.90625 52.859376-115.347656 86.179688-191.566406 86.179688h-.011719c-1.898438 0-3.800781-.019531-5.699219-.058594-73.929687-1.621094-140.152343-34.582031-185.871093-86.132812-40.078126-45.1875-64.429688-104.660156-64.429688-169.808594 0-141.378906 114.621094-256 256-256s256 114.621094 256 256zm0 0" fill="#68fcdf"/><path d="m512 256c0 26.050781-3.890625 51.191406-11.128906 74.871094-32.011719 104.847656-129.542969 181.128906-244.871094 181.128906-104.558594 0-194.488281-62.699219-234.230469-152.550781-14-31.628907-21.769531-66.628907-21.769531-103.449219 0-46.21875 12.25-89.570312 33.679688-127 44.121093 77.070312 127.160156 129 222.320312 129s178.210938-51.929688 222.320312-129c21.429688 37.429688 33.679688 80.78125 33.679688 127zm0 0" fill="#10e2c4"/><path d="m30.742188 377.703125c7.15625 13.21875 15.429687 25.738281 24.71875 37.425781 46.898437 59.019532 119.300781 96.871094 200.539062 96.871094s153.640625-37.851562 200.539062-96.871094c9.289063-11.6875 17.5625-24.207031 24.71875-37.425781zm0 0" fill="#1aba9f"/><path d="m277.183594 122-8.0625 88.761719h-26.242188l-8.0625-88.761719zm0 0" fill="#95d600"/><path d="m277.183594 122-8.0625 88.761719h-13.109375v-88.761719zm0 0" fill="#85af12"/><path d="m277.183594 122c0 11.691406-9.484375 21.183594-21.183594 21.183594s-21.183594-9.492188-21.183594-21.183594zm0 0" fill="#00a042"/><path d="m203.730469 510.128906c3.347656.269532 6.738281.511719 10.167969.722656-3.429688-.203124-6.820313-.441406-10.167969-.722656zm0 0" fill="#a63914"/><path d="m224.261719 511.378906c3.488281.140625 7.007812.261719 10.546875.351563-3.546875-.082031-7.058594-.199219-10.546875-.351563zm0 0" fill="#a63914"/><path d="m452.679688 384.910156c0 1.070313-.007813 2.140625-.03125 3.191406-.007813.96875-.027344 1.9375-.058594 2.886719-.011719.273438-.019532.542969-.03125.800781-.027344.78125-.058594 1.5625-.097656 2.332032-.0625 1.21875-.132813 2.4375-.222657 3.628906-.058593.878906-.117187 1.738281-.199219 2.601562-.058593.71875-.117187 1.429688-.199218 2.136719-.039063.511719-.101563 1.023438-.160156 1.53125-.109376 1.089844-.238282 2.171875-.378907 3.242188-.082031.636719-.171875 1.277343-.261719 1.910156-.238281 1.699219-.507812 3.367187-.808593 5.019531-.109375.628906-.230469 1.238282-.359375 1.859375-.03125.210938-.070313.429688-.121094.640625-.078125.398438-.160156.808594-.25 1.207032-.128906.632812-.261719 1.261718-.410156 1.882812 0 .046875-.011719.089844-.03125.128906-.167969.78125-.347656 1.558594-.539063 2.320313-.039062.140625-.070312.28125-.109375.417969-.140625.601562-.300781 1.203124-.460937 1.792968-.121094.457032-.238281.917969-.371094 1.367188v.011718c-46.90625 52.859376-115.347656 86.179688-191.566406 86.179688h-1.222657c-.679687 0-1.347656-.011719-2.027343-.011719-.820313-.007812-1.640625-.027343-2.460938-.046875-73.929687-1.621094-140.152343-34.582031-185.871093-86.132812-3.351563-11.957032-5.109376-25.527344-5.109376-40.898438 0-55.460937 22.949219-105.550781 59.871094-141.289062 1-.960938 2-1.921875 3.019532-2.859375.898437-.839844 1.820312-1.683594 2.738281-2.5 1.210937-1.089844 2.441406-2.160157 3.691406-3.222657.859375-.738281 1.738281-1.46875 2.621094-2.1875.207031-.179687.417969-.351562.636719-.523437 4.210937-3.429687 8.5625-6.679687 13.042968-9.757813 1.148438-.78125 2.296875-1.558593 3.457032-2.320312 1.171874-.761719 2.339843-1.511719 3.523437-2.25 0 0 .007813 0 .007813-.011719 1.179687-.726562 2.359374-1.457031 3.558593-2.167969 1.191407-.710937 2.390625-1.410156 3.601563-2.089843.011718-.011719.019531-.011719.019531-.019531 1.210937-.679688 2.429687-1.359376 3.660156-2.019532s2.460938-1.3125 3.710938-1.953125c2.488281-1.277343 5.007812-2.507812 7.558593-3.667969.640626-.289062 1.28125-.582031 1.921876-.871093.609374-.269531 1.230468-.539063 1.847656-.808594.050781-.019531.101562-.039063.152344-.070313.617187-.261718 1.238281-.53125 1.867187-.789062.652344-.269531 1.300781-.542969 1.953125-.8125.648438-.269531 1.308594-.527344 1.957031-.789062 1.3125-.507813 2.632813-1.019532 3.960938-1.507813 1.320312-.5 2.652343-.980469 3.992187-1.433594.980469-.339843 1.957032-.667969 2.9375-.988281 14.722656-4.851562 30.230469-7.980469 46.261719-9.199219.828125-.0625 1.660156-.121093 2.5-.160156.230469-.011719.449219-.03125.679687-.039063.609376-.042968 1.21875-.070312 1.828126-.101562.050781-.011719.089843-.011719.140624-.011719.722657-.039062 1.449219-.066406 2.171876-.097656.648437-.03125 1.289062-.050781 1.9375-.070313.550781-.019531 1.113281-.03125 1.660156-.039062.5625-.019531 1.132812-.03125 1.703125-.03125.828125-.011719 1.660156-.019531 2.488281-.019531h.011719c.828125 0 1.660156.007812 2.488281.019531 1.769531.019531 3.550781.058594 5.320312.140625.710938.03125 1.429688.058594 2.148438.097656.652344.03125 1.320312.070313 1.972656.113281.230469.007813.46875.027344.699219.046876.828125.042968 1.648437.089843 2.46875.152343 6.109375.460938 12.152344 1.210938 18.082031 2.230469 4.277344.707031 8.507813 1.578125 12.6875 2.589844.699219.167968 1.390625.339844 2.082032.507812.699218.179688 1.390624.351563 2.078124.53125.691407.179688 1.382813.371094 2.070313.558594 1.371094.371094 2.742187.769531 4.101563 1.171875.6875.199219 1.367187.410156 2.039062.621094 1.519531.46875 3.019531.949219 4.519531 1.457031 1.191407.390625 2.371094.800781 3.550781 1.230469.007813.011719.03125.011719.039063.011719 1.320313.46875 2.621094.960937 3.929687 1.460937 3.949219 1.507813 7.851563 3.148437 11.671876 4.90625 1.269531.582031 2.539062 1.183594 3.789062 1.78125.011719.011719.011719.011719.011719.011719 1.257812.617187 2.519531 1.238281 3.757812 1.878906 1.25.640625 2.480469 1.289062 3.710938 1.949219 1.230469.660156 2.449219 1.332031 3.660156 2.019531.121094.0625.230469.132812.347656.210938 1.101563.621093 2.191407 1.25 3.273438 1.898437 1.199219.710937 2.378906 1.433594 3.558593 2.171875 0 0 .007813 0 .007813.011719 1.183594.726562 2.351563 1.476562 3.523437 2.25 1.160157.757812 2.308594 1.527343 3.457032 2.316406 1.152344.78125 2.292968 1.582031 3.410156 2.390625 3.390625 2.429688 6.703125 4.960938 9.921875 7.601562.847656.691407 1.699219 1.398438 2.539063 2.121094.160156.117188.308593.25.460937.386719.210937.183594.429687.363281.640625.542969.6875.589844 1.378906 1.1875 2.058594 1.789062.03125.03125.058594.050782.089844.078125.378906.332031.761718.683594 1.140624 1.023438.558594.488281 1.109376.988281 1.660157 1.507812.378906.351563.757812.699219 1.128906 1.050781.109375.089844.230469.199219.339844.308594.789062.742188 1.582031 1.480469 2.359375 2.242188 36.921875 35.75 59.871094 85.828125 59.871094 141.289062zm0 0" fill="#a63914"/><path d="m250.300781 511.941406c-73.929687-1.621094-140.152343-34.582031-185.871093-86.132812-3.351563-11.957032-5.109376-25.527344-5.109376-40.898438 0-55.460937 22.949219-105.550781 59.871094-141.289062 1-.960938 2-1.921875 3.019532-2.859375.898437-.839844 1.820312-1.683594 2.738281-2.5 1.210937-1.089844 2.441406-2.160157 3.691406-3.222657.859375-.738281 1.738281-1.46875 2.621094-2.1875.207031-.179687.417969-.351562.636719-.523437 4.210937-3.429687 8.5625-6.679687 13.042968-9.757813 1.148438-.78125 2.296875-1.558593 3.457032-2.320312 1.171874-.761719 2.339843-1.511719 3.523437-2.25 0 0 .007813 0 .007813-.011719 1.179687-.726562 2.359374-1.457031 3.558593-2.167969 1.191407-.710937 2.390625-1.410156 3.601563-2.089843.011718-.011719.019531-.011719.019531-.019531 1.210937-.679688 2.429687-1.359376 3.660156-2.019532s2.460938-1.3125 3.710938-1.953125c2.488281-1.269531 5.007812-2.5 7.558593-3.667969.640626-.289062 1.28125-.582031 1.921876-.871093.609374-.269531 1.230468-.539063 1.847656-.808594.050781-.019531.101562-.039063.152344-.070313.617187-.261718 1.238281-.53125 1.867187-.789062.652344-.269531 1.300781-.542969 1.953125-.8125.648438-.269531 1.308594-.527344 1.957031-.789062 1.3125-.507813 2.632813-1.019532 3.960938-1.507813 1.320312-.492187 2.652343-.960937 3.992187-1.433594 15.378906-5.308593 31.628906-8.769531 48.480469-10.109375-81.550781 7.089844-144.363281 75.921875-145.273437 158.441406-.007813.929688-.019532 1.859376-.019532 2.789063 0 1.878906.019532 3.75.0625 5.621094 1.898438 85.257812 70.628906 153.75 155.359375 156.210937zm0 0" fill="#ffd112"/><path d="m227.710938 475.148438c8.210937 13.429687 17.710937 25.792968 28.300781 36.851562h-1.222657c-.679687 0-1.347656-.011719-2.027343-.011719-.820313-.007812-1.640625-.027343-2.460938-.046875-84.730469-2.460937-153.460937-70.953125-155.359375-156.210937-.042968-1.871094-.0625-3.742188-.0625-5.621094 0-.929687.011719-1.859375.019532-2.789063.910156-82.519531 63.722656-151.351562 145.273437-158.441406.238281-.019531.476563-.039062.71875-.058594.398437-.03125.808594-.058593 1.210937-.089843.660157-.039063 1.308594-.089844 1.96875-.128907.648438-.042968 1.320313-.082031 1.96875-.113281.722657-.039062 1.449219-.066406 2.171876-.097656.648437-.03125 1.289062-.050781 1.9375-.070313.550781-.019531 1.113281-.03125 1.660156-.039062.5625-.019531 1.132812-.03125 1.703125-.03125.828125-.011719 1.660156-.019531 2.488281-.019531h.011719c-4.8125 5.019531-9.390625 10.308593-13.742188 15.847656-22.390625 28.5625-38.328125 63.683594-45.21875 102.453125-2.410156 13.5-3.722656 27.449219-3.820312 41.71875-.011719.621094-.011719 1.238281-.011719 1.859375 0 18.769531 2.082031 37 6 54.402344 5.78125 25.628906 15.53125 49.46875 28.492188 70.636719zm0 0" fill="#ff9f00"/><path d="m318.777344 350.113281c0 63.9375-24.144532 121.519531-62.765625 161.886719-38.632813-40.355469-62.789063-97.949219-62.789063-161.886719 0-63.929687 24.15625-121.535156 62.789063-161.878906 38.621093 40.367187 62.765625 97.949219 62.765625 161.878906zm0 0" fill="#ed771b"/><path d="m452.679688 384.910156c0 1.070313-.007813 2.140625-.03125 3.191406-.007813.96875-.027344 1.9375-.058594 2.886719-.011719.273438-.019532.542969-.03125.800781-.027344.78125-.058594 1.5625-.097656 2.332032-.0625 1.21875-.132813 2.4375-.222657 3.628906-.058593.878906-.117187 1.738281-.199219 2.601562-.058593.71875-.117187 1.429688-.199218 2.136719-.039063.511719-.101563 1.023438-.160156 1.53125-.109376 1.089844-.238282 2.171875-.378907 3.242188-.082031.636719-.171875 1.277343-.261719 1.910156-.238281 1.699219-.507812 3.367187-.808593 5.019531-.109375.628906-.230469 1.238282-.359375 1.859375-.03125.210938-.070313.429688-.121094.640625-.078125.398438-.160156.808594-.25 1.207032-.128906.632812-.261719 1.261718-.410156 1.882812 0 .046875-.011719.089844-.03125.128906-.167969.78125-.347656 1.558594-.539063 2.320313-.039062.140625-.070312.28125-.109375.417969-.140625.601562-.300781 1.203124-.460937 1.792968-.121094.457032-.238281.917969-.371094 1.367188v.011718c-46.90625 52.859376-115.347656 86.179688-191.566406 86.179688 10.589843-11.058594 20.089843-23.429688 28.296875-36.859375 12.953125-21.179687 22.703125-45.011719 28.472656-70.628906 3.917969-17.402344 6-35.632813 6-54.402344 0-.621094 0-1.238281-.011719-1.859375-.097656-14.269531-1.410156-28.21875-3.820312-41.71875-6.890625-38.78125-22.828125-73.890625-45.21875-102.460938-4.339844-5.53125-8.921875-10.820312-13.71875-15.839843.828125 0 1.660156.007812 2.488281.019531 1.769531.019531 3.550781.058594 5.320312.140625.710938.03125 1.429688.058594 2.148438.097656.652344.03125 1.320312.070313 1.972656.113281.230469.007813.46875.027344.699219.046876.417969.023437.839844.050781 1.269531.082031.398438.03125.800782.058593 1.199219.089843.242187.019532.492187.039063.730469.058594 5.859375.460938 11.648437 1.191406 17.351562 2.152344 4.277344.730469 8.507813 1.589844 12.6875 2.589844.699219.167968 1.390625.339844 2.082032.507812.699218.179688 1.390624.351563 2.078124.53125.691407.179688 1.382813.371094 2.070313.558594 1.371094.371094 2.742187.769531 4.101563 1.171875.6875.199219 1.367187.410156 2.039062.621094 1.519531.46875 3.019531.949219 4.519531 1.457031 1.191407.402344 2.371094.8125 3.550781 1.230469.007813.011719.03125.011719.039063.011719 1.320313.480468 2.628906.960937 3.929687 1.460937 3.949219 1.507813 7.851563 3.148437 11.671876 4.90625 1.269531.582031 2.539062 1.183594 3.789062 1.78125.011719.011719.011719.011719.011719.011719 1.257812.617187 2.519531 1.238281 3.757812 1.878906 1.25.640625 2.480469 1.289062 3.710938 1.949219 1.230469.660156 2.449219 1.332031 3.660156 2.019531.121094.0625.230469.132812.347656.210938 1.101563.621093 2.191407 1.25 3.273438 1.898437 1.199219.710937 2.378906 1.433594 3.558593 2.171875 0 0 .007813 0 .007813.011719 1.183594.726562 2.351563 1.476562 3.523437 2.25 1.160157.757812 2.308594 1.527343 3.457032 2.316406 1.152344.78125 2.292968 1.582031 3.410156 2.390625 3.390625 2.429688 6.703125 4.960938 9.921875 7.601562.847656.691407 1.699219 1.398438 2.539063 2.121094.160156.117188.308593.25.460937.386719.210937.183594.429687.363281.640625.542969.6875.589844 1.378906 1.1875 2.058594 1.789062.03125.03125.058594.050782.089844.078125.378906.332031.761718.683594 1.140624 1.023438.558594.488281 1.109376.988281 1.660157 1.507812.378906.351563.757812.699219 1.128906 1.050781.109375.089844.230469.199219.339844.308594.789062.742188 1.582031 1.480469 2.359375 2.242188 36.921875 35.75 59.871094 85.828125 59.871094 141.289062zm0 0" fill="#a63914"/><g fill="#313b5a"><path d="m129.246094 285.527344c-.011719 26.777344 17.257812 51.578125 44.171875 59.914062 26.914062 8.339844 55.183593-2.363281 70.304687-24.457031zm0 0"/><path d="m382.753906 285.527344c.011719 26.777344-17.257812 51.578125-44.171875 59.914062-26.914062 8.339844-55.183593-2.363281-70.304687-24.457031zm0 0"/><path d="m412.722656 342.753906c-8.078125 55.3125-44.742187 101.347656-94.519531 122.621094v-28.34375l-13.039063 21.664062c-5.820312 9.671876-15.6875 16.230469-26.863281 17.808594-7.285156 1.027344-14.730469 1.558594-22.300781 1.558594h-.433594c-7.433594-.023438-14.746094-.554688-21.902344-1.566406-11.167968-1.578125-21.011718-8.140625-26.824218-17.804688l-13.035156-21.660156v28.351562c-49.785157-21.269531-86.449219-67.316406-94.53125-122.628906 15.179687 16.742188 33.011718 31.046875 52.832031 42.242188l27.074219 39.417968.492187-26.378906c19.296875 7.476563 39.972656 12.195313 61.539063 13.679688l14.960937 29.351562 14.625-29.351562c21.554687-1.484375 42.21875-6.203125 61.515625-13.679688l-.492188 26.386719 28.070313-39.425781c19.808594-11.195313 37.644531-25.5 52.832031-42.242188zm0 0"/><path d="m256 351.691406-19.96875 34.585938h39.9375zm0 0"/></g></svg>