<svg height="512pt" viewBox="0 0 512 512" width="512pt" xmlns="http://www.w3.org/2000/svg"><path d="m512 256c0 62.691406-22.539062 120.121094-59.949219 164.628906-5.878906 7-12.128906 13.679688-18.722656 20-6.328125 6.082032-12.976563 11.839844-19.90625 17.25-5.3125 4.160156-10.792969 8.101563-16.433594 11.820313-23.007812 15.222656-48.609375 26.8125-76 33.972656-20.75 5.4375-42.527343 8.328125-64.988281 8.328125-23.53125 0-46.308594-3.171875-67.949219-9.121094-41.671875-11.4375-79.089843-33.148437-109.371093-62.25-6.589844-6.328125-12.839844-13-18.71875-20-37.421876-44.507812-59.960938-101.9375-59.960938-164.628906 0-85.140625 41.558594-160.570312 105.511719-207.109375 11.457031-8.351563 23.636719-15.761719 36.4375-22.140625 24.339843-12.128906 50.878906-20.511719 78.871093-24.339844 7.609376-1.058594 15.320313-1.769531 23.128907-2.128906 1.910156-.089844 3.820312-.160156 5.742187-.203125 2.089844-.0585938 4.199219-.078125 6.308594-.078125 9.230469 0 18.339844.488281 27.320312 1.449219 8.757813.921875 17.390626 2.300781 25.871094 4.101562.648438.128907 1.296875.269531 1.949219.410157 6.289063 1.367187 12.5 2.988281 18.597656 4.828124.703125.210938 1.402344.421876 2.101563.640626 104.351562 32.320312 180.160156 129.589843 180.160156 244.570312zm0 0" fill="#65b2ff"/><path d="m512 256c0 26.050781-3.890625 51.191406-11.128906 74.871094-32.011719 104.847656-129.542969 181.128906-244.871094 181.128906-104.558594 0-194.488281-62.699219-234.230469-152.550781-14-31.628907-21.769531-66.628907-21.769531-103.449219 0-46.21875 12.25-89.570312 33.679688-127 44.121093 77.070312 127.160156 129 222.320312 129s178.210938-51.929688 222.320312-129c21.429688 37.429688 33.679688 80.78125 33.679688 127zm0 0" fill="#0f9be8"/><path d="m481.261719 377.699219c-7.160157 13.222656-15.433594 25.742187-24.722657 37.429687-8.4375 10.632813-17.71875 20.570313-27.71875 29.722656-45.539062 41.699219-106.210937 67.148438-172.820312 67.148438s-127.28125-25.449219-172.820312-67.148438c-10-9.152343-19.28125-19.089843-27.71875-29.722656-9.289063-11.6875-17.5625-24.207031-24.722657-37.429687zm0 0" fill="#0066e8"/><path d="m413.421875 457.878906c-5.3125 4.160156-10.792969 8.101563-16.433594 11.820313h-69.167969v-125.507813h68.230469zm0 0" fill="#a63914"/><path d="m413.421875 457.878906c-5.3125 4.160156-10.792969 8.101563-16.433594 11.820313h-32.417969v-125.507813h31.480469zm0 0" fill="#7a2d1a"/><path d="m300.699219 435.105469-17.886719-8.945313 17.316406-34.632812v-59.304688h20v64.027344zm0 0" fill="#ff9f00"/><path d="m253.019531 435.105469-17.886719-8.945313 17.316407-34.632812v-59.304688h20v64.027344zm0 0" fill="#ff9f00"/><path d="m415.234375 336.734375c-42.433594 42.4375-103.074219 55.5625-156.769531 39.363281-15.0625-4.53125-29.582032-11.378906-42.996094-20.527344-8-5.460937-15.609375-11.734374-22.699219-18.835937-7.464843-7.472656-14.027343-15.5-19.671875-23.957031-16.316406-24.414063-25.0625-52.378906-26.25-80.609375l-.152344-.015625v-41.582032c0-18.984374 7.699219-36.1875 20.144532-48.628906 10.519531-10.511718 24.417968-17.640625 39.9375-19.59375 2.84375-.363281 5.753906-.546875 8.691406-.546875 37.976562 0 68.765625 30.789063 68.765625 68.769531v15.164063zm0 0" fill="#ff9f00"/><path d="m415.234375 336.734375c-54.335937 54.339844-138.53125 60.617187-199.765625 18.835937v-233.769531c37.976562 0 68.765625 30.789063 68.765625 68.769531v15.164063zm0 0" fill="#c55835"/><path d="m444.910156 360.488281h-1.914062c-87.675782 0-158.761719-72.996093-158.761719-160.675781zm0 0" fill="#7a2d1a"/><path d="m268.648438 189.730469c0 29.363281-23.8125 53.179687-53.179688 53.179687-29.363281 0-53.179688-23.8125-53.179688-53.179687 0-14.792969 6.039063-28.167969 15.785157-37.816407l37.394531 19.972657 37.394531-19.972657c.300781.304688.605469.617188.902344.917969.257813.261719.511719.53125.765625.808594.621094.675781 1.21875 1.367187 1.800781 2.066406.171875.191407.320313.386719.480469.578125.167969.203125.328125.40625.488281.617188.21875.269531.429688.539062.632813.816406.175781.234375.355468.472656.523437.707031.421875.566407.824219 1.148438 1.203125 1.726563.210938.304687.414063.609375.609375.917968.773438 1.207032 1.507813 2.453126 2.179688 3.726563.125.242187.253906.476563.378906.722656.195313.386719.386719.765625.574219 1.152344.183594.386719.371094.785156.546875 1.171875.355469.785156.691406 1.585938 1.011719 2.382812.160156.40625.3125.808594.464843 1.222657.285157.773437.546875 1.558593.796875 2.359375.144532.453125.28125.910156.40625 1.363281.242188.84375.460938 1.695313.65625 2.554687.304688 1.28125.546875 2.585938.75 3.910157.136719.875.253906 1.765625.335938 2.660156.019531.160156.035156.328125.050781.496094.058594.667969.109375 1.332031.152344 2.007812.050781.964844.074219 1.941407.074219 2.929688zm0 0" fill="#fff"/><path d="m268.648438 189.730469c0 29.363281-23.8125 53.179687-53.179688 53.179687v-71.019531l37.394531-19.976563c.304688.304688.605469.617188.902344.921876.261719.257812.511719.527343.765625.808593.621094.671875 1.222656 1.363281 1.804688 2.0625.167968.195313.316406.386719.476562.582031.167969.199219.332031.402344.492188.613282.21875.269531.429687.539062.628906.816406.179687.238281.355468.472656.523437.710938.421875.5625.824219 1.144531 1.203125 1.726562.210938.300781.414063.605469.609375.917969.773438 1.203125 1.507813 2.449219 2.179688 3.722656.128906.242187.253906.480469.378906.722656.195313.386719.390625.765625.574219 1.15625.1875.386719.371094.78125.546875 1.167969.355469.785156.691406 1.585938 1.011719 2.386719.160156.402343.3125.808593.464843 1.21875.285157.777343.546875 1.558593.800781 2.359375.140626.457031.277344.910156.402344 1.367187.242188.839844.464844 1.691407.65625 2.550781.304688 1.28125.546875 2.585938.75 3.910157.136719.875.253906 1.769531.335938 2.660156.019531.160156.035156.332031.054687.5.058594.664063.109375 1.328125.148438 2.003906.050781.964844.074219 1.941407.074219 2.929688zm0 0" fill="#d0f6ff"/><path d="m223.210938 199.9375c0 6.242188-2.964844 11.796875-7.566407 15.316406-4.597656-3.519531-7.566406-9.074218-7.566406-15.316406s2.96875-11.792969 7.566406-15.3125c4.601563 3.519531 7.566407 9.070312 7.566407 15.3125zm0 0" fill="#7a2d1a"/><path d="m227.359375 184.449219c2.160156 5.660156 8.5 8.503906 14.160156 6.347656 5.664063-2.160156 8.503907-8.5 6.347657-14.160156zm0 0" fill="#7a2d1a"/><path d="m202.417969 184.449219c-2.15625 5.660156-8.496094 8.503906-14.160157 6.347656-5.664062-2.160156-8.503906-8.5-6.347656-14.160156zm0 0" fill="#7a2d1a"/><path d="m264.488281 250.539062-21.472656 28.492188-9.214844-13.628906h-9.113281l-9.21875 13.628906-.167969.25-9.382812-13.878906h-9.113281l-9.234376 13.644531-21.121093-28.507813h10.683593l10.125 13.933594 9.546876-13.933594h9.113281l9.382812 13.699219.167969-.246093 9.21875-13.453126h9.113281l9.550781 13.953126 10.722657-13.953126zm0 0" fill="#ed771b"/><path d="m264.488281 250.539062-21.472656 28.492188-9.214844-13.628906h-9.113281l-9.21875 13.628906v-15.039062l9.21875-13.453126h9.113281l9.550781 13.953126 10.722657-13.953126zm0 0" fill="#7a2d1a"/><path d="m264.488281 284.515625-21.472656 28.492187-9.214844-13.628906h-9.113281l-9.21875 13.628906-.167969.25-9.382812-13.878906h-9.113281l-9.234376 13.644532-21.121093-28.507813h10.683593l10.125 13.933594 9.546876-13.933594h9.113281l9.382812 13.699219.167969-.246094 9.21875-13.453125h9.113281l9.550781 13.953125 10.722657-13.953125zm0 0" fill="#ed771b"/><path d="m264.488281 284.515625-21.472656 28.492187-9.214844-13.628906h-9.113281l-9.21875 13.628906v-15.039062l9.21875-13.453125h9.113281l9.550781 13.953125 10.722657-13.953125zm0 0" fill="#7a2d1a"/><path d="m452.050781 420.628906c-5.878906 7-12.128906 13.679688-18.722656 20h-354.648437c-6.589844-6.328125-12.839844-13-18.71875-20zm0 0" fill="#ff9f00"/><g fill="#fff"><path d="m94.398438 280.160156h-1.523438c-6.753906 0-12.226562-5.476562-12.226562-12.226562v-1.527344h-8.71875v1.527344c0 6.75-5.472657 12.226562-12.226563 12.226562h-1.523437v8.714844h1.523437c6.753906 0 12.230469 5.472656 12.230469 12.226562v1.527344h8.714844v-1.527344c0-6.753906 5.472656-12.226562 12.226562-12.226562h1.523438zm0 0"/><path d="m274.972656 43.160156h-1.523437c-6.753907 0-12.226563-5.472656-12.226563-12.226562v-1.523438h-8.714844v1.523438c0 6.753906-5.476562 12.226562-12.226562 12.226562h-1.527344v8.714844h1.527344c6.75 0 12.226562 5.476562 12.226562 12.226562v1.527344h8.714844v-1.527344c0-6.75 5.472656-12.226562 12.226563-12.226562h1.523437zm0 0"/><path d="m463.019531 274.925781h-1.523437c-6.753906 0-12.226563-5.476562-12.226563-12.226562v-1.523438h-8.71875v1.523438c0 6.75-5.472656 12.226562-12.226562 12.226562h-1.523438v8.714844h1.523438c6.753906 0 12.226562 5.472656 12.226562 12.226563v1.527343h8.71875v-1.527343c0-6.753907 5.472657-12.226563 12.226563-12.226563h1.523437zm0 0"/><path d="m374.351562 142.75h-1.523437c-6.753906 0-12.226563-5.472656-12.226563-12.226562v-1.523438h-8.714843v1.523438c0 6.753906-5.476563 12.226562-12.230469 12.226562h-1.523438v8.71875h1.523438c6.753906 0 12.230469 5.472656 12.230469 12.226562v1.523438h8.714843v-1.523438c0-6.753906 5.472657-12.226562 12.226563-12.226562h1.523437zm0 0"/><path d="m122.351562 142.75h-1.523437c-6.753906 0-12.226563-5.472656-12.226563-12.226562v-1.523438h-8.714843v1.523438c0 6.753906-5.476563 12.226562-12.230469 12.226562h-1.523438v8.71875h1.523438c6.753906 0 12.230469 5.472656 12.230469 12.226562v1.523438h8.714843v-1.523438c0-6.753906 5.472657-12.226562 12.226563-12.226562h1.523437zm0 0"/></g></svg>