<svg height="512pt" viewBox="0 0 512 512" width="512pt" xmlns="http://www.w3.org/2000/svg"><path d="m512 256c0 104.039062-62.070312 193.589844-151.199219 233.628906-10.371093 4.660156-21.101562 8.652344-32.152343 11.910156-2.277344.679688-4.578126 1.320313-6.886719 1.929688-12.542969 3.332031-25.453125 5.722656-38.660157 7.109375-8.910156.941406-17.953124 1.421875-27.101562 1.421875-141.378906 0-256-114.621094-256-256s114.621094-256 256-256 256 114.621094 256 256zm0 0" fill="#ffe955"/><path d="m512 256c0 26.050781-3.890625 51.191406-11.128906 74.871094-32.011719 104.847656-129.542969 181.128906-244.871094 181.128906-104.558594 0-194.488281-62.699219-234.230469-152.550781-14-31.628907-21.769531-66.628907-21.769531-103.449219 0-46.21875 12.25-89.570312 33.679688-127 44.121093 77.070312 127.160156 129 222.320312 129s178.210938-51.929688 222.320312-129c21.429688 37.429688 33.679688 80.78125 33.679688 127zm0 0" fill="#ffd112"/><path d="m30.742188 377.703125c7.15625 13.21875 15.429687 25.738281 24.71875 37.425781 46.898437 59.019532 119.300781 96.871094 200.539062 96.871094s153.640625-37.851562 200.539062-96.871094c9.289063-11.6875 17.5625-24.207031 24.71875-37.425781zm0 0" fill="#ff9f00"/><path d="m360.800781 269.761719v219.867187c-10.371093 4.660156-21.101562 8.652344-32.152343 11.910156-2.277344.679688-4.578126 1.320313-6.886719 1.929688-12.542969 3.332031-25.453125 5.722656-38.660157 7.109375v-240.816406c0-5.171875-.863281-10.160157-2.453124-14.792969-1.828126-5.347656-4.609376-10.257812-8.167969-14.507812-8.402344-10.089844-21.070313-16.53125-35.199219-16.53125-1.351562 0-2.671875.058593-4 .179687h-.011719c-.539062.050781-1.078125.109375-1.621093.179687-8.957032 1.089844-17.117188 4.78125-23.71875 10.3125-1.96875 1.636719-3.800782 3.449219-5.46875 5.398438-6.859376 8.011719-11 18.410156-11 29.761719 0 21.449219-17.390626 38.839843-38.851563 38.839843h-.1875c-21.371094-.101562-38.660156-17.460937-38.660156-38.839843 0-23.691407 6.699219-45.839844 18.296875-64.652344 18.222656-29.550781 48.542968-50.890625 83.992187-57.050781 6.898438-1.199219 13.988281-1.820313 21.230469-1.820313 26.097656 0 50.328125 8.132813 70.289062 22.011719 27.078126 18.800781 46.308594 48.140625 51.691407 82.039062 1.007812 6.351563 1.539062 12.851563 1.539062 19.472657zm0 0" fill="#8e4fd2"/><path d="m321.761719 269.128906v234.339844c-12.542969 3.332031-25.453125 5.722656-38.660157 7.109375v-240.816406c0-5.171875-.863281-10.160157-2.453124-14.792969-1.828126-5.347656-4.609376-10.257812-8.167969-14.507812-8.402344-10.089844-21.070313-16.53125-35.199219-16.53125-1.351562 0-2.671875.058593-4 .179687h-.011719c-.539062.050781-1.078125.109375-1.621093.179687-8.957032 1.089844-17.117188 4.78125-23.71875 10.3125-1.96875 1.636719-3.800782 3.449219-5.46875 5.398438-6.859376 8.011719-11 18.410156-11 29.761719 0 21.449219-17.390626 38.839843-38.851563 38.839843h-.1875v-39.472656c0-.730468.007813-1.457031.027344-2.1875.011719-.589844.03125-1.179687.070312-1.769531 0-.292969.019531-.582031.039063-.863281.03125-.570313.0625-1.128906.113281-1.6875.046875-.660156.097656-1.3125.167969-1.960938.050781-.519531.109375-1.039062.179687-1.558594.03125-.363281.082031-.722656.128907-1.089843.070312-.589844.160156-1.191407.25-1.773438.070312-.46875.140624-.917969.222656-1.378906.050781-.300781.097656-.609375.160156-.910156.117188-.679688.25-1.347657.390625-2.027344.128906-.640625.269531-1.28125.417969-1.910156.28125-1.203125.582031-2.382813.910156-3.5625.121094-.460938.25-.917969.390625-1.371094.128906-.4375.257813-.859375.390625-1.289063.140625-.46875.289062-.9375.449219-1.398437.097656-.300781.199219-.589844.300781-.878906.238281-.683594.480469-1.363281.730469-2.023438.398437-1.089843.816406-2.160156 1.277343-3.226562.242188-.5625.480469-1.121094.730469-1.671875.230469-.511719.460938-1.011719.691407-1.511719.039062-.066406.070312-.148437.109374-.21875.25-.519531.5-1.050781.757813-1.570313.273437-.539062.550781-1.078124.832031-1.609374.289063-.539063.570313-1.070313.871094-1.601563.289062-.527344.589844-1.046875.898438-1.578125 1.511718-2.609375 3.171874-5.121094 4.960937-7.539062.359375-.492188.71875-.972657 1.089844-1.441407.371093-.480469.738281-.949219 1.121093-1.417969.367188-.472656.75-.929687 1.136719-1.390624 1.570313-1.890626 3.242188-3.710938 4.980469-5.449219 14.992188-15 35.589844-24.390625 58.382812-24.78125.488282-.019531.988282-.019531 1.488282-.019531.730468 0 1.460937.007812 2.191406.027343.339844.011719.6875.023438 1.039062.042969.480469.007812.960938.027344 1.429688.058594.621094.03125 1.238281.070312 1.859375.121094.609375.039062 1.21875.097656 1.832031.160156.148438.007812.296875.027344.449219.050781.410156.027344.828125.078125 1.238281.136719.382813.042968.761719.082031 1.140625.140625.371094.039062.730469.089843 1.089844.152343.609375.078126 1.21875.179688 1.832031.289063.507813.078125 1.019532.167969 1.519532.257813.289062.050781.578124.113281.867187.171874.472656.089844.941406.191407 1.402344.289063.199219.039063.390625.082031.570312.121094.488281.109375.96875.21875 1.4375.339843.292969.058594.582031.128907.863281.210938.609376.148438 1.21875.308594 1.820313.480469.578125.160156 1.148437.316406 1.71875.5.859375.25 1.710937.507812 2.550781.796875.519532.171875 1.039063.351562 1.558594.542968.230469.078126.460938.160157.699219.25 1.269531.457032 2.511719.949219 3.75 1.476563.820312.34375 1.640625.703125 2.449219 1.082031.589843.269532 1.179687.539063 1.761718.828125.660156.320313 1.308594.652344 1.960938.992188.578125.300781 1.148437.597656 1.71875.917969.191406.101562.371094.203124.558594.3125.492187.269531.980468.550781 1.460937.839843.089844.050781.191406.109375.28125.167969.460937.261719.910156.542969 1.359375.820312.179688.101563.351562.210938.53125.332032.546875.339844 1.089844.6875 1.617188 1.039062.613281.398438 1.210937.808594 1.8125 1.230469.550781.378906 1.097656.78125 1.648437 1.179687.0625.039063.121094.089844.179687.121094.5625.429688 1.121094.847656 1.679688 1.277344.570312.441406 1.140625.902344 1.703125 1.359375 3.367187 2.742187 6.519531 5.75 9.417969 8.992187v.007813c11.558594 12.851563 19.21875 29.25 21.171875 47.371094.058593.539062.109375 1.089843.160156 1.640625.089844.960937.15625 1.941406.207031 2.921875.03125.519531.0625 1.046875.070313 1.578125.039062 1.011718.0625 2.019531.0625 3.039062zm0 0" fill="#9e69e2"/><g fill="#ba0d5c"><path d="m328.648438 501.539062c-2.277344.679688-4.578126 1.320313-6.886719 1.929688-12.542969 3.332031-25.453125 5.722656-38.660157 7.109375v-12.507813c9.789063 2.898438 20.148438 4.460938 30.878907 4.460938 2.621093 0 5.210937-.089844 7.78125-.269531 2.316406-.171875 4.617187-.402344 6.886719-.722657zm0 0"/><path d="m283.101562 375.0625v60.566406c9.785157 2.921875 20.148438 4.480469 30.878907 4.480469 2.617187 0 5.207031-.09375 7.777343-.273437 13.90625-.984376 27.078126-4.601563 39.039063-10.347657v-60.574219c-11.953125 5.734376-25.132813 9.351563-39.039063 10.335938-2.570312.183594-5.160156.273438-7.777343.273438-10.730469 0-21.09375-1.558594-30.878907-4.460938zm0 0"/><path d="m280.648438 254.96875c1.589843 4.632812 2.453124 9.617188 2.453124 14.785156v46.542969c9.785157 2.917969 20.148438 4.476563 30.878907 4.476563 2.617187 0 5.207031-.089844 7.777343-.273438 13.90625-.984375 27.078126-4.601562 39.039063-10.347656v-40.398438c0-6.617187-.523437-13.117187-1.53125-19.460937-11.6875 5.390625-24.5 8.757812-38.003906 9.65625-2.40625.15625-4.828125.242187-7.28125.242187-11.628907 0-22.828125-1.835937-33.332031-5.222656zm0 0"/><path d="m236.871094 197.769531c0 9.390625-1.851563 18.347657-5.222656 26.519531.542968-.074218 1.085937-.128906 1.625-.175781h.011718c1.320313-.128906 2.644532-.183593 3.992188-.183593 14.136718 0 26.804687 6.433593 35.203125 16.53125 11.660156-6.460938 21.269531-16.164063 27.613281-27.886719 5.34375-9.867188 8.378906-21.160157 8.378906-33.164063 0-3.800781-.300781-7.527344-.898437-11.164062-19.964844-13.878906-44.191407-22.011719-70.296875-22.011719-7.234375 0-14.328125.625-21.222656 1.828125 9.847656 9.691406 16.835937 22.296875 19.542968 36.414062.84375 4.304688 1.273438 8.75 1.273438 13.292969zm0 0"/><path d="m113.757812 269.753906c0 21.390625 17.292969 38.75 38.664063 38.847656h.191406c21.453125 0 38.847657-17.394531 38.847657-38.847656 0-11.34375 4.140624-21.746094 11-29.75-8.007813-10.546875-18.332032-19.230468-30.222657-25.300781-12.003906-6.128906-25.601562-9.589844-40.011719-9.589844h-.164062c-11.605469 18.808594-18.304688 40.957031-18.304688 64.640625zm0 0"/></g><path d="m321.761719 502.261719v1.207031c-12.542969 3.332031-25.453125 5.722656-38.660157 7.109375v-12.507813c9.789063 2.898438 20.148438 4.460938 30.878907 4.460938 2.621093 0 5.210937-.089844 7.78125-.269531zm0 0" fill="#e52929"/><path d="m313.980469 379.523438c-10.730469 0-21.09375-1.558594-30.878907-4.460938v60.570312c9.785157 2.917969 20.148438 4.476563 30.878907 4.476563 2.617187 0 5.207031-.089844 7.777343-.273437v-60.585938c-2.570312.183594-5.160156.273438-7.777343.273438zm0 0" fill="#e52929"/><path d="m313.980469 260.191406c-11.628907 0-22.828125-1.835937-33.332031-5.222656 1.589843 4.632812 2.453124 9.617188 2.453124 14.785156v46.542969c9.785157 2.917969 20.148438 4.476563 30.878907 4.476563 2.617187 0 5.207031-.089844 7.777343-.273438v-51.371094c0-3.101562-.167968-6.167968-.496093-9.179687-2.40625.160156-4.828125.242187-7.28125.242187zm0 0" fill="#e52929"/><path d="m236.871094 197.769531c0 9.390625-1.851563 18.347657-5.222656 26.519531.542968-.074218 1.085937-.128906 1.625-.175781h.011718c1.320313-.128906 2.644532-.183593 3.992188-.183593 14.136718 0 26.804687 6.433593 35.203125 16.53125 11.660156-6.460938 21.269531-16.164063 27.613281-27.886719-15.496094-17.257813-37.976562-28.117188-63-28.117188-.503906 0-1 0-1.496094.019531.84375 4.304688 1.273438 8.75 1.273438 13.292969zm0 0" fill="#e52929"/><path d="m152.421875 269.132812v39.46875h.191406c21.453125 0 38.847657-17.394531 38.847657-38.847656 0-11.34375 4.140624-21.746094 11-29.75-8.007813-10.546875-18.332032-19.230468-30.222657-25.300781-12.375 14.71875-19.816406 33.710937-19.816406 54.429687zm0 0" fill="#e52929"/></svg>