<svg height="512pt" viewBox="0 0 512 512" width="512pt" xmlns="http://www.w3.org/2000/svg"><path d="m512 256c0 95.808594-52.640625 179.339844-130.578125 223.21875-16.070313 9.050781-33.222656 16.410156-51.203125 21.851562-23.488281 7.109376-48.410156 10.929688-74.21875 10.929688s-50.730469-3.820312-74.21875-10.929688c-17.980469-5.441406-35.132812-12.800781-51.203125-21.851562-77.9375-43.878906-130.578125-127.410156-130.578125-223.21875 0-141.378906 114.621094-256 256-256s256 114.621094 256 256zm0 0" fill="#68fcdf"/><path d="m512 256c0 26.050781-3.890625 51.191406-11.128906 74.871094-32.011719 104.847656-129.542969 181.128906-244.871094 181.128906-104.558594 0-194.488281-62.699219-234.230469-152.550781-14-31.628907-21.769531-66.628907-21.769531-103.449219 0-46.21875 12.25-89.570312 33.679688-127 44.121093 77.070312 127.160156 129 222.320312 129s178.210938-51.929688 222.320312-129c21.429688 37.429688 33.679688 80.78125 33.679688 127zm0 0" fill="#10e2c4"/><path d="m30.742188 377.703125c7.15625 13.21875 15.429687 25.738281 24.71875 37.425781 46.898437 59.019532 119.300781 96.871094 200.539062 96.871094s153.640625-37.851562 200.539062-96.871094c9.289063-11.6875 17.5625-24.207031 24.71875-37.425781zm0 0" fill="#1aba9f"/><path d="m419.179688 216.101562-37.757813 263.117188c-16.070313 9.050781-33.222656 16.410156-51.203125 21.851562-23.488281 7.109376-48.410156 10.929688-74.21875 10.929688s-50.730469-3.820312-74.21875-10.929688c-17.980469-5.441406-35.132812-12.800781-51.203125-21.851562l-37.757813-263.117188 58.109376-133.929687h210.140624zm0 0" fill="#474f6f"/><path d="m419.179688 216.101562-37.757813 263.117188c-16.070313 9.050781-33.222656 16.410156-51.203125 21.851562-23.488281 7.109376-48.410156 10.929688-74.21875 10.929688v-429.828125h105.070312zm0 0" fill="#323b5a"/><path d="m327.648438 122.191406h-143.296876l-42.792968 98.609375 40.222656 280.269531c23.488281 7.109376 48.410156 10.929688 74.21875 10.929688s50.730469-3.820312 74.21875-10.929688l40.222656-280.269531zm0 0" fill="#c55835"/><path d="m370.441406 220.800781-40.222656 280.269531c-23.488281 7.109376-48.410156 10.929688-74.21875 10.929688v-389.808594h71.648438zm0 0" fill="#a63914"/><path d="m297.671875 244v24h-29.671875v72.070312h-24v-72.070312h-29.671875v-24h29.671875v-29.671875h24v29.671875zm0 0" fill="#ffd112"/><path d="m297.671875 244v24h-29.671875v72.070312h-12v-125.742187h12v29.671875zm0 0" fill="#ed771b"/></svg>