<svg height="512pt" viewBox="0 0 512 512" width="512pt" xmlns="http://www.w3.org/2000/svg"><path d="m512 256c0 111.089844-70.769531 205.660156-169.691406 241.070312-26.957032 9.667969-56.019532 14.929688-86.308594 14.929688-1.230469 0-2.449219-.011719-3.671875-.03125-12.757813-.179688-25.289063-1.289062-37.539063-3.277344-15.550781-2.511718-30.628906-6.421875-45.097656-11.621094-98.921875-35.410156-169.691406-129.980468-169.691406-241.070312 0-141.378906 114.621094-256 256-256s256 114.621094 256 256zm0 0" fill="#b5e237"/><path d="m512 256c0 26.050781-3.890625 51.191406-11.128906 74.871094-32.011719 104.847656-129.542969 181.128906-244.871094 181.128906-104.558594 0-194.488281-62.699219-234.230469-152.550781-14-31.628907-21.769531-66.628907-21.769531-103.449219 0-46.21875 12.25-89.570312 33.679688-127 44.121093 77.070312 127.160156 129 222.320312 129s178.210938-51.929688 222.320312-129c21.429688 37.429688 33.679688 80.78125 33.679688 127zm0 0" fill="#95d600"/><path d="m30.742188 377.703125c7.15625 13.21875 15.429687 25.738281 24.71875 37.425781 46.898437 59.019532 119.300781 96.871094 200.539062 96.871094s153.640625-37.851562 200.539062-96.871094c9.289063-11.6875 17.5625-24.207031 24.71875-37.425781zm0 0" fill="#85af12"/><path d="m435 326v10h-56.46875l-41.171875 61.5 4.949219 99.570312c-26.957032 9.667969-56.019532 14.929688-86.308594 14.929688-1.230469 0-2.449219-.011719-3.671875-.03125-12.757813-.179688-25.289063-1.289062-37.539063-3.277344-15.550781-2.511718-30.628906-6.421875-45.097656-11.621094l7.019532-141.359374-32.5625-35.210938h-67.148438l-6-17.5h56.96875l-24.96875-27 10-39 67.019531 52.300781 11.050781-222.320312 29.929688 45.019531 31.328125-7 24 40 44.601563-78.019531 13.359374 268.621093 49.710938-52.601562h30l-28.78125 43zm0 0" fill="#a63914"/><path d="m435 326v10h-56.46875l-41.171875 61.5 4.949219 99.570312c-26.957032 9.667969-56.019532 14.929688-86.308594 14.929688-1.230469 0-2.449219-.011719-3.671875-.03125v-406.96875l24 40 44.601563-78.019531 13.359374 268.621093 49.710938-52.601562h30l-28.78125 43zm0 0" fill="#7a2d1a"/><path d="m221 112-6.210938 396.691406c-15.550781-2.511718-30.628906-6.421875-45.097656-11.621094l7.019532-141.359374-32.5625-35.210938h-67.148438l-6-17.5h56.96875l-24.96875-27 10-39 67.019531 52.300781 11.050781-222.320312zm0 0" fill="#ed771b"/><path d="m193.484375 359.371094c-.007813 10.484375 8.511719 20.195312 21.785156 23.460937 13.277344 3.261719 27.214844-.925781 34.675781-9.578125zm0 0" fill="#ffe955"/><path d="m318.515625 359.371094c.007813 10.484375-8.511719 20.195312-21.785156 23.460937-13.277344 3.261719-27.214844-.925781-34.675781-9.578125zm0 0" fill="#ffe955"/><path d="m317.363281 381.777344c-3.164062 21.65625-17.519531 39.683594-37.007812 48.011718v-11.097656l-5.105469 8.480469c-2.28125 3.789063-6.140625 6.355469-10.519531 6.972656-2.851563.402344-5.765625.613281-8.730469.613281h-.171875c-2.910156-.011718-5.769531-.21875-8.574219-.617187-4.371094-.617187-8.226562-3.1875-10.503906-6.96875l-5.101562-8.480469v11.097656c-19.492188-8.328124-33.847657-26.355468-37.011719-48.011718 5.941406 6.554687 12.925781 12.15625 20.683593 16.539062l10.601563 15.433594.191406-10.328125c7.558594 2.925781 15.652344 4.777344 24.097657 5.355469l5.855468 11.492187 5.726563-11.492187c8.4375-.578125 16.53125-2.429688 24.085937-5.355469l-.195312 10.332031 10.992187-15.4375c7.757813-4.382812 14.738281-9.984375 20.6875-16.539062zm0 0" fill="#ffe955"/><g fill="#fff"><path d="m104.820312 172.027344c-7.171874 0-12.988281-5.816406-12.988281-12.988282 0-.421874-.339843-.761718-.761719-.761718h-7.191406c-.417968 0-.761718.339844-.761718.761718 0 7.171876-5.8125 12.988282-12.988282 12.988282-.421875 0-.761718.339844-.761718.761718v7.191407c0 .421875.339843.761719.761718.761719 7.175782 0 12.988282 5.816406 12.988282 12.988281 0 .421875.34375.761719.761718.761719h7.191406c.421876 0 .761719-.339844.761719-.761719 0-7.171875 5.816407-12.988281 12.988281-12.988281.421876 0 .765626-.339844.765626-.761719v-7.191407c0-.421874-.34375-.761718-.765626-.761718zm0 0"/><path d="m439.304688 172.027344c-7.171876 0-12.988282-5.816406-12.988282-12.988282 0-.421874-.339844-.761718-.761718-.761718h-7.191407c-.421875 0-.761719.339844-.761719.761718 0 7.171876-5.816406 12.988282-12.988281 12.988282-.421875 0-.761719.339844-.761719.761718v7.191407c0 .421875.339844.761719.761719.761719 7.171875 0 12.988281 5.816406 12.988281 12.988281 0 .421875.339844.761719.761719.761719h7.191407c.421874 0 .761718-.339844.761718-.761719 0-7.171875 5.816406-12.988281 12.988282-12.988281.421874 0 .761718-.339844.761718-.761719v-7.191407c0-.421874-.339844-.761718-.761718-.761718zm0 0"/><path d="m273.347656 43.03125c-7.175781 0-12.988281-5.8125-12.988281-12.988281 0-.421875-.34375-.761719-.761719-.761719h-7.191406c-.421875 0-.761719.339844-.761719.761719 0 7.175781-5.816406 12.988281-12.992187 12.988281-.417969 0-.761719.34375-.761719.765625v7.1875c0 .421875.34375.761719.761719.761719 7.175781 0 12.992187 5.816406 12.992187 12.992187 0 .417969.339844.761719.761719.761719h7.191406c.417969 0 .761719-.34375.761719-.761719 0-7.175781 5.8125-12.992187 12.988281-12.992187.421875 0 .761719-.339844.761719-.761719v-7.1875c0-.421875-.339844-.765625-.761719-.765625zm0 0"/><path d="m427.839844 391.453125c-7.175782 0-12.988282-5.8125-12.988282-12.988281 0-.417969-.34375-.761719-.761718-.761719h-7.191406c-.421876 0-.761719.34375-.761719.761719 0 7.175781-5.816407 12.988281-12.992188 12.988281-.417969 0-.761719.34375-.761719.765625v7.1875c0 .421875.34375.765625.761719.765625 7.175781 0 12.992188 5.8125 12.992188 12.988281 0 .417969.339843.761719.761719.761719h7.191406c.417968 0 .761718-.34375.761718-.761719 0-7.175781 5.8125-12.988281 12.988282-12.988281.421875 0 .761718-.34375.761718-.765625v-7.1875c0-.421875-.339843-.765625-.761718-.765625zm0 0"/><path d="m122.929688 391.453125c-7.171876 0-12.988282-5.8125-12.988282-12.988281 0-.417969-.339844-.761719-.761718-.761719h-7.191407c-.421875 0-.761719.34375-.761719.761719 0 7.175781-5.816406 12.988281-12.988281 12.988281-.421875 0-.761719.34375-.761719.765625v7.1875c0 .421875.339844.765625.761719.765625 7.171875 0 12.988281 5.8125 12.988281 12.988281 0 .417969.339844.761719.761719.761719h7.191407c.421874 0 .761718-.34375.761718-.761719 0-7.175781 5.816406-12.988281 12.988282-12.988281.421874 0 .761718-.34375.761718-.765625v-7.1875c0-.421875-.339844-.765625-.761718-.765625zm0 0"/></g></svg>