<svg height="512pt" viewBox="0 0 512 512" width="512pt" xmlns="http://www.w3.org/2000/svg"><path d="m512 256c0 62.929688-22.710938 120.570312-60.390625 165.148438-3.480469 4.121093-7.089844 8.132812-10.820313 12.023437-3.859374 4.019531-7.847656 7.917969-11.960937 11.679687-30.1875 27.648438-67.027344 48.148438-107.839844 58.820313-20.75 5.4375-42.527343 8.328125-64.988281 8.328125-23.53125 0-46.308594-3.171875-67.949219-9.121094-39.628906-10.878906-75.410156-31.050781-104.871093-58.027344-3.429688-3.140624-6.78125-6.382812-10.039063-9.703124-5.121094-5.21875-10.011719-10.660157-14.671875-16.308594-36.527344-44.25-58.46875-100.980469-58.46875-162.839844 0-85.140625 41.558594-160.570312 105.511719-207.109375 11.457031-8.351563 23.636719-15.761719 36.4375-22.140625 24.339843-12.128906 50.878906-20.511719 78.871093-24.339844 7.609376-1.058594 15.320313-1.769531 23.128907-2.128906 1.910156-.089844 3.820312-.160156 5.742187-.203125 2.089844-.0585938 4.199219-.078125 6.308594-.078125 9.230469 0 18.339844.488281 27.320312 1.449219 8.757813.921875 17.390626 2.300781 25.871094 4.101562.648438.128907 1.296875.269531 1.949219.410157 6.289063 1.367187 12.5 2.988281 18.597656 4.828124.703125.210938 1.402344.421876 2.101563.640626 104.351562 32.320312 180.160156 129.589843 180.160156 244.570312zm0 0" fill="#9e69e2"/><path d="m512 256c0 26.050781-3.890625 51.191406-11.128906 74.871094-32.011719 104.847656-129.542969 181.128906-244.871094 181.128906-104.558594 0-194.488281-62.699219-234.230469-152.550781-14-31.628907-21.769531-66.628907-21.769531-103.449219 0-46.21875 12.25-89.570312 33.679688-127 44.121093 77.070312 127.160156 129 222.320312 129s178.210938-51.929688 222.320312-129c21.429688 37.429688 33.679688 80.78125 33.679688 127zm0 0" fill="#8e4fd2"/><path d="m481.261719 377.699219c-7.160157 13.222656-15.433594 25.742187-24.722657 37.429687-8.4375 10.632813-17.71875 20.570313-27.71875 29.722656-45.539062 41.699219-106.210937 67.148438-172.820312 67.148438s-127.28125-25.449219-172.820312-67.148438c-10-9.152343-19.28125-19.089843-27.71875-29.722656-9.289063-11.6875-17.5625-24.207031-24.722657-37.429687zm0 0" fill="#7038ba"/><path d="m209 444.851562h-125.820312c-3.429688-3.140624-6.78125-6.382812-10.039063-9.703124-5.121094-5.21875-10.011719-10.660157-14.671875-16.308594 3.621094-1.550782 7.609375-2.410156 11.800781-2.410156 0-16.570313 13.429688-30 30-30 6.460938 0 12.441407 2.050781 17.332031 5.519531 5.6875-2.640625 12.019532-4.121094 18.699219-4.121094 21.777344 0 39.878907 15.652344 43.710938 36.320313 13.378906.171874 24.726562 8.75 28.988281 20.703124zm0 0" fill="#6cdc2d"/><path d="m179.371094 444.851562h-96.191406c-3.429688-3.140624-6.78125-6.382812-10.039063-9.703124 3.480469-5.269532 9.460937-8.738282 16.238281-8.738282 0-10.738281 8.710938-19.449218 19.460938-19.449218 4.191406 0 8.070312 1.320312 11.238281 3.578124 3.691406-1.71875 7.800781-2.679687 12.132813-2.679687 14.128906 0 25.867187 10.160156 28.347656 23.5625 8.679687.109375 16.042968 5.679687 18.8125 13.429687zm0 0" fill="#00a042"/><path d="m451.609375 421.148438c-3.480469 4.121093-7.089844 8.132812-10.820313 12.023437-3.859374 4.019531-7.847656 7.917969-11.960937 11.679687h-116.257813c.820313-15.832031 13.917969-28.421874 29.960938-28.421874 0-16.570313 13.429688-30 30-30 6.457031 0 12.4375 2.050781 17.328125 5.519531 5.691406-2.640625 12.019531-4.121094 18.699219-4.121094 20.710937 0 38.101562 14.152344 43.050781 33.320313zm0 0" fill="#6cdc2d"/><path d="m440.789062 433.171875c-3.859374 4.019531-7.847656 7.917969-11.960937 11.679687h-86.617187c.527343-10.273437 9.027343-18.441406 19.429687-18.441406 0-10.738281 8.710937-19.449218 19.460937-19.449218 4.1875 0 8.070313 1.320312 11.238282 3.578124 3.691406-1.71875 7.800781-2.679687 12.128906-2.679687 14.132812 0 25.871094 10.160156 28.351562 23.5625 2.839844.039063 5.53125.65625 7.96875 1.75zm0 0" fill="#00a042"/><path d="m365.09375 289.289062 1.003906-120.472656c.152344-40.140625-9.1875-76.4375-24.320312-102.332031-15.335938 25.769531-24.949219 61.992187-25.101563 102.144531-.144531 37.628906 8.046875 71.871094 21.539063 97.328125zm0 0" fill="#20273a"/><path d="m385.269531 394.910156-22.359375 55.929688c-1.128906 2.808594-3.800781 4.640625-6.761718 4.640625-4.039063 0-7.289063-3.359375-7.289063-7.449219 0-.140625 0-.28125.011719-.421875l1.988281-38.140625c.152344-2.789062-1.230469-5.4375-3.589844-6.839844-12.007812-7.097656-21.269531-18.300781-26.121093-31.707031l-7.296876-20.183594c-.050781-.148437-.113281-.289062-.179687-.4375-1.160156-2.679687-3.773437-4.441406-6.660156-4.441406h-111.03125c-4.03125 0-7.300781 3.351563-7.300781 7.480469v33.300781c0 1.070313-.21875 2.128906-.660157 3.109375l-27.429687 61.371094c-1.191406 2.660156-3.78125 4.359375-6.628906 4.359375h-1.839844c-4.480469 0-7.902344-4.082031-7.222656-8.609375l9.8125-65.410156c.117187-.800782.109374-1.609376-.03125-2.410157 0 0-2.464844-120.253906-2.496094-120.894531l178.167968-18.195312c19.160157 0 34.6875 15.898437 34.6875 35.507812v65.453125c0 13.757813 5.921876 26.589844 15.851563 35.289063 5.25 4.597656 7 12.148437 4.378906 18.699218zm0 0" fill="#20273a"/><path d="m313.671875 328.640625v21.660156c-1.160156-2.679687-3.773437-4.441406-6.660156-4.441406h-111.03125c-4.03125 0-7.300781 3.351563-7.300781 7.480469v-24.699219c0-4.21875 3.421874-7.640625 7.640624-7.640625h109.710938c4.21875 0 7.640625 3.421875 7.640625 7.640625zm0 0" fill="#323b5a"/><path d="m183.890625 213.507812v45.5625c0 12.421876-9.089844 27.136719-20.335937 32.410157-28.847657 13.53125-57.089844-7.167969-57.089844-34.457031v-43.519532c0-3.121094 3.773437-4.683594 5.980468-2.476562l22.09375 22.09375c3.382813-.25 6.949219-.335938 10.640626-.335938 3.6875 0 7.257812.085938 10.636718.335938l22.09375-22.09375c2.203125-2.207032 5.980469-.640625 5.980469 2.480468zm0 0" fill="#323b5a"/><path d="m183.890625 213.507812v43.519532c0 21.378906-17.335937 38.710937-38.714844 38.710937v-62.953125c3.691407 0 7.257813.085938 10.636719.335938l22.09375-22.09375c2.207031-2.207032 5.984375-.640625 5.984375 2.480468zm0 0" fill="#20273a"/><path d="m143.847656 268.414062c-4.171875 5.523438-11.722656 7.695313-18.351562 4.8125-6.628906-2.882812-10.191406-9.886718-8.992188-16.703124l8.992188 3.910156c.078125 4.308594 1.246094 8.222656 3.117187 11.1875 1.476563-2.347656 2.515625-5.296875 2.917969-8.5625zm0 0" fill="#ffd112"/><path d="m146.515625 268.414062c4.175781 5.519532 11.730469 7.683594 18.355469 4.792969s10.179687-9.894531 8.976562-16.710937l-8.988281 3.917968c-.074219 4.3125-1.238281 8.226563-3.105469 11.195313-1.480468-2.347656-2.519531-5.296875-2.929687-8.5625zm0 0" fill="#ff9f00"/><path d="m428.820312 444.851562c-45.539062 41.699219-106.210937 67.148438-172.820312 67.148438s-127.28125-25.449219-172.820312-67.148438zm0 0" fill="#c55835"/><path d="m235.867188 124.339844c-16.285157 16.289062-42.695313 16.289062-58.980469 0-16.289063-16.285156-16.289063-42.695313 0-58.984375 2.261719-2.261719 4.71875-4.210938 7.316406-5.84375-10.335937 1.539062-20.277344 6.292969-28.230469 14.246093-19.742187 19.742188-19.742187 51.75 0 71.496094 19.742188 19.742188 51.753906 19.742188 71.496094 0 7.953125-7.953125 12.707031-17.898437 14.246094-28.230468-1.636719 2.597656-3.582032 5.054687-5.847656 7.316406zm0 0" fill="#ffd112"/><g fill="#fff"><path d="m466.859375 181.625h-1.523437c-6.753907 0-12.230469-5.472656-12.230469-12.226562v-1.523438h-8.714844v1.523438c0 6.753906-5.472656 12.226562-12.226563 12.226562h-1.523437v8.714844h1.523437c6.753907 0 12.226563 5.476562 12.226563 12.226562v1.527344h8.714844v-1.527344c0-6.75 5.476562-12.226562 12.230469-12.226562h1.523437zm0 0"/><path d="m283.753906 199.734375h-1.527344c-6.75 0-12.226562-5.472656-12.226562-12.226563v-1.523437h-8.714844v1.523437c0 6.753907-5.472656 12.226563-12.226562 12.226563h-1.527344v8.714844h1.527344c6.753906 0 12.226562 5.476562 12.226562 12.226562v1.527344h8.714844v-1.527344c0-6.75 5.476562-12.226562 12.226562-12.226562h1.527344zm0 0"/><path d="m97.558594 310.0625h-1.523438c-6.753906 0-12.226562-5.472656-12.226562-12.226562v-1.523438h-8.71875v1.523438c0 6.753906-5.472656 12.226562-12.226563 12.226562h-1.523437v8.714844h1.523437c6.753907 0 12.230469 5.476562 12.230469 12.226562v1.527344h8.714844v-1.527344c0-6.75 5.472656-12.226562 12.226562-12.226562h1.523438zm0 0"/><path d="m466.859375 310.0625h-1.523437c-6.753907 0-12.230469-5.472656-12.230469-12.226562v-1.523438h-8.714844v1.523438c0 6.753906-5.472656 12.226562-12.226563 12.226562h-1.523437v8.714844h1.523437c6.753907 0 12.226563 5.476562 12.226563 12.226562v1.527344h8.714844v-1.527344c0-6.75 5.476562-12.226562 12.230469-12.226562h1.523437zm0 0"/><path d="m93.164062 171.941406h-1.523437c-6.753906 0-12.226563-5.472656-12.226563-12.226562v-1.523438h-8.71875v1.523438c0 6.753906-5.472656 12.226562-12.226562 12.226562h-1.523438v8.714844h1.523438c6.753906 0 12.226562 5.476562 12.226562 12.230469v1.523437h8.71875v-1.523437c0-6.753907 5.472657-12.230469 12.226563-12.230469h1.523437zm0 0"/></g></svg>