<svg height="512pt" viewBox="0 0 512 512" width="512pt" xmlns="http://www.w3.org/2000/svg"><path d="m512 256c0 72.210938-29.898438 137.449219-78 183.988281-46.070312 44.570313-108.828125 72.011719-178 72.011719s-131.929688-27.441406-178-72.011719c-48.101562-46.539062-78-111.777343-78-183.988281 0-141.378906 114.621094-256 256-256s256 114.621094 256 256zm0 0" fill="#b5e237"/><path d="m512 256c0 26.050781-3.890625 51.191406-11.128906 74.871094-32.011719 104.847656-129.542969 181.128906-244.871094 181.128906-104.558594 0-194.488281-62.699219-234.230469-152.550781-14-31.628907-21.769531-66.628907-21.769531-103.449219 0-46.21875 12.25-89.570312 33.679688-127 44.121093 77.070312 127.160156 129 222.320312 129s178.210938-51.929688 222.320312-129c21.429688 37.429688 33.679688 80.78125 33.679688 127zm0 0" fill="#95d600"/><path d="m30.742188 377.703125c7.15625 13.21875 15.429687 25.738281 24.71875 37.425781 46.898437 59.019532 119.300781 96.871094 200.539062 96.871094s153.640625-37.851562 200.539062-96.871094c9.289063-11.6875 17.5625-24.207031 24.71875-37.425781zm0 0" fill="#85af12"/><path d="m434 439.988281c-46.070312 44.570313-108.828125 72.011719-178 72.011719s-131.929688-27.441406-178-72.011719c18.078125-4.488281 40.46875-8.277343 65.960938-11.117187 17.820312-1.992188 37.160156-3.519532 57.589843-4.511719 17.4375-.839844 35.679688-1.289063 54.449219-1.289063 20.261719 0 39.898438.519532 58.589844 1.5 6.898437.359376 13.671875.78125 20.289062 1.269532h.011719c11.53125.839844 22.609375 1.851562 33.160156 3.03125 25.480469 2.839844 47.871094 6.628906 65.949219 11.117187zm0 0" fill="#474f6f"/><path d="m424.699219 76.824219-41.144531 95.074219c-5.128907 11.851562-18.660157 17.582031-30.742188 13.019531l-20.792969-7.855469-13.371093 17.757812c-5.445313 7.234376-7.285157 16.558594-5 25.320313 30.105468 115.34375 60.746093 232.867187 60.746093 233.410156 0 14.765625-53.007812 26.738281-118.394531 26.738281-22.210938 0-42.992188-1.382812-60.753906-3.785156-34.527344-4.671875-57.636719-13.203125-57.636719-22.953125 0-.558593 32.378906-124.738281 63.269531-243.089843 5.363282-20.558594 16.957032-38.957032 33.179688-52.675782l54.101562-45.730468c9.507813-8.039063 23.023438-9.28125 33.832032-3.113282l35.519531 20.265625zm0 0" fill="#747e9e"/><path d="m424.699219 76.824219-41.144531 95.074219c-5.128907 11.851562-18.660157 17.582031-30.742188 13.019531l-20.792969-7.855469-13.371093 17.757812c-5.445313 7.234376-7.285157 16.558594-5 25.320313 30.105468 115.34375 60.746093 232.867187 60.746093 233.410156 0 14.765625-53.007812 26.738281-118.394531 26.738281-22.210938 0-42.992188-1.382812-60.753906-3.785156l29.667968-245.285156c2.359376-19.515625 10.941407-37.746094 24.476563-51.996094l36.964844-38.9375c8.285156-8.722656 20.828125-11.941406 32.289062-8.277344l35.914063 11.46875zm0 0" fill="#474f6f"/><path d="m424.699219 76.824219-41.144531 95.074219c-5.128907 11.851562-18.660157 17.582031-30.742188 13.019531l-20.792969-7.855469-13.371093 17.757812c-5.445313 7.234376-7.285157 16.558594-5 25.320313 30.105468 115.34375 60.746093 232.867187 60.746093 233.410156 0 14.765625-53.007812 26.738281-118.394531 26.738281v-242.679687c0-28.203125 12.609375-54.933594 34.375-72.871094l13.171875-10.855469c5.390625-4.445312 12.464844-6.28125 19.335937-5.027343l37.0625 6.769531zm0 0" fill="#323b5a"/><g fill="#ffd112"><path d="m230.34375 406.15625-18.679688.003906-10.585937 15.394532-5.777344-17.765626-17.90625-5.308593 15.105469-10.984375-.484375-18.671875 15.117187 10.972656 17.609376-6.230469-5.765626 17.769532zm0 0"/><path d="m300.917969 196.550781-10.8125.003907-6.125 8.90625-3.34375-10.28125-10.363281-3.070313 8.742187-6.359375-.28125-10.804688 8.75 6.351563 10.191406-3.609375-3.335937 10.285156zm0 0"/><path d="m304.726562 333.238281-7.902343-7.9375-11.023438 2.007813 5.109375-9.96875-5.316406-9.863282 11.0625 1.777344 7.734375-8.101562 1.726563 11.070312 10.097656 4.851563-9.992188 5.0625zm0 0"/><path d="m209.542969 260.167969 11.199219-.351563 6.058593-9.421875 3.792969 10.542969 10.835938 2.851562-8.855469 6.863282.636719 11.1875-9.265626-6.300782-10.441406 4.058594 3.128906-10.753906zm0 0"/><path d="m329.105469 439.117188-7.90625-7.941407-11.019531 2.007813 5.109374-9.96875-5.316406-9.863282 11.0625 1.78125 7.734375-8.105468 1.726563 11.070312 10.097656 4.851563-9.996094 5.0625zm0 0"/></g><path d="m415.617188 349.167969h-1.523438c-6.753906 0-12.226562-5.472657-12.226562-12.226563v-1.523437h-8.714844v1.523437c0 6.753906-5.476563 12.226563-12.226563 12.226563h-1.527343v8.714843h1.527343c6.753907 0 12.226563 5.476563 12.226563 12.226563v1.527344h8.714844v-1.527344c0-6.75 5.476562-12.226563 12.226562-12.226563h1.523438zm0 0" fill="#fff"/><path d="m473.121094 244h-1.523438c-6.753906 0-12.230468-5.472656-12.230468-12.226562v-1.523438h-8.714844v1.523438c0 6.753906-5.472656 12.226562-12.226563 12.226562h-1.523437v8.714844h1.523437c6.753907 0 12.226563 5.476562 12.226563 12.226562v1.527344h8.714844v-1.527344c0-6.75 5.476562-12.226562 12.230468-12.226562h1.523438zm0 0" fill="#fff"/><path d="m75.097656 252.714844h-1.523437c-6.753907 0-12.226563 5.476562-12.226563 12.226562v1.527344h-8.714844v-1.527344c0-6.75-5.476562-12.226562-12.226562-12.226562h-1.527344v-8.714844h1.527344c6.75 0 12.226562-5.472656 12.226562-12.226562v-1.527344h8.714844v1.527344c0 6.753906 5.472656 12.226562 12.226563 12.226562h1.523437zm0 0" fill="#fff"/><path d="m132.601562 357.882812h-1.527343c-6.75 0-12.226563 5.476563-12.226563 12.226563v1.527344h-8.714844v-1.527344c0-6.75-5.472656-12.226563-12.226562-12.226563h-1.523438v-8.714843h1.523438c6.753906 0 12.226562-5.472657 12.226562-12.226563v-1.527344h8.714844v1.527344c0 6.753906 5.476563 12.226563 12.226563 12.226563h1.527343zm0 0" fill="#fff"/><path d="m191.558594 115.25h-1.523438c-6.753906 0-12.226562 5.472656-12.226562 12.226562v1.523438h-8.714844v-1.523438c0-6.753906-5.476562-12.226562-12.226562-12.226562h-1.527344v-8.71875h1.527344c6.75 0 12.226562-5.472656 12.226562-12.226562v-1.523438h8.714844v1.523438c0 6.753906 5.472656 12.226562 12.226562 12.226562h1.523438zm0 0" fill="#fff"/></svg>