<svg height="512pt" viewBox="0 0 512 512" width="512pt" xmlns="http://www.w3.org/2000/svg"><path d="m512 256c0 141.386719-114.613281 256-256 256s-256-114.613281-256-256 114.613281-256 256-256 256 114.613281 256 256zm0 0" fill="#68fcdf"/><path d="m512 256c0 26.050781-3.890625 51.191406-11.128906 74.871094-32.011719 104.847656-129.542969 181.128906-244.871094 181.128906-104.558594 0-194.488281-62.699219-234.230469-152.550781-14-31.628907-21.769531-66.628907-21.769531-103.449219 0-46.21875 12.25-89.570312 33.679688-127 44.121093 77.070312 127.160156 129 222.320312 129s178.210938-51.929688 222.320312-129c21.429688 37.429688 33.679688 80.78125 33.679688 127zm0 0" fill="#10e2c4"/><path d="m30.742188 377.703125c7.15625 13.21875 15.429687 25.738281 24.71875 37.425781 46.898437 59.019532 119.300781 96.871094 200.539062 96.871094s153.640625-37.851562 200.539062-96.871094c9.289063-11.6875 17.5625-24.207031 24.71875-37.425781zm0 0" fill="#1aba9f"/><path d="m447.5 320.503906c0 63.121094-30.542969 119.109375-77.65625 153.992188-5.464844 4.054687-11.160156 7.824218-17.058594 11.277344-28.300781 16.617187-61.25 26.164062-96.421875 26.226562h-.601562c-80.6875-.09375-149.675781-50.089844-177.78125-120.785156v-.007813c-2.5625-6.421875-4.777344-13.023437-6.625-19.765625-4.472657-16.21875-6.855469-33.300781-6.855469-50.9375 0-76.207031 44.507812-142.015625 108.953125-172.847656 6.492187-3.109375 13.1875-5.859375 20.0625-8.222656 19.507813-6.746094 40.453125-10.410156 62.246094-10.433594h.621093c70.425782.140625 131.929688 38.296875 165.085938 95.035156 3.679688 6.3125 7.023438 12.859375 9.984375 19.601563 10.320313 23.527343 16.046875 49.527343 16.046875 76.867187zm0 0" fill="#fff"/><path d="m447.5 320.503906c0 105.640625-85.542969 191.300782-191.136719 191.496094-75.269531-30.980469-128.257812-105.050781-128.257812-191.496094 0-86.453125 52.996093-160.53125 128.273437-191.503906 105.59375.210938 191.121094 85.863281 191.121094 191.503906zm0 0" fill="#e4ebf8"/><path d="m447.5 320.503906c0 105.765625-85.738281 191.496094-191.503906 191.496094h-.234375v-383h.234375c105.765625 0 191.503906 85.738281 191.503906 191.503906zm0 0" fill="#c7d9ff"/><path d="m355.199219 320.597656h-99.4375l45.078125 23.996094 42.648437 22.695312c-16.710937 31.203126-49.621093 52.417969-87.492187 52.417969h-.234375c-54.683594-.125-98.96875-44.492187-98.96875-99.203125 0-54.710937 44.285156-99.074218 98.96875-99.203125h.234375c54.789062 0 99.199218 44.414063 99.199218 99.203125v.09375zm0 0" fill="#474f6f"/><path d="m255.761719 419.707031v-99.109375l45.078125 23.996094 42.648437 22.695312c-16.710937 31.203126-49.621093 52.417969-87.492187 52.417969zm0 0" fill="#323b5a"/><path d="m355.199219 320.597656h-99.4375v-99.296875h.234375c54.789062 0 99.203125 44.414063 99.203125 99.203125zm0 0" fill="#323b5a"/><path d="m306.894531 320.597656h-51.132812l45.078125 23.996094c-8.59375 15.960938-25.453125 26.808594-44.84375 26.808594h-.234375c-28-.125-50.664063-22.871094-50.664063-50.898438s22.664063-50.773437 50.664063-50.898437h.234375c28.105468 0 50.898437 22.792969 50.898437 50.898437zm0 0" fill="#323b5a"/><path d="m255.761719 371.402344v-50.804688l45.078125 23.996094c-8.59375 15.960938-25.453125 26.808594-44.84375 26.808594zm0 0" fill="#20273a"/><path d="m306.894531 320.597656h-51.132812v-50.992187h.234375c28.105468 0 50.898437 22.792969 50.898437 50.898437zm0 0" fill="#20273a"/><g fill="#dd1265"><path d="m411.453125 432.34375c-3.964844 5.535156-8.238281 10.859375-12.796875 15.953125l-12.300781-8.195313c-1.003907-.671874-2.277344-.789062-3.390625-.316406l-12.269532 5.238282c-7.054687 3.011718-15.195312 2.449218-21.765624-1.519532l-8.320313-5.015625c-4.8125-2.902343-6.363281-9.160156-3.457031-13.972656 1.320312-2.191406 3.34375-3.707031 5.601562-4.429687 2.707032-.871094 5.75-.613282 8.371094.964843l8.320312 5.019531c.980469.589844 2.199219.675782 3.253907.222657l12.273437-5.230469c7.449219-3.179688 15.925782-2.394531 22.664063 2.089844zm0 0"/><path d="m151.390625 408.382812c.984375 3.070313.5 6.550782-1.605469 9.304688l-2.472656 3.238281c-5.042969 6.601563-13.144531 10.117188-21.414062 9.289063l-4.851563-.480469c-1.148437-.117187-2.285156.328125-3.050781 1.199219l-9.898438 11.289062c-4.402344-5.332031-8.53125-10.941406-12.351562-16.796875l6.9375-7.910156c5.089844-5.804687 12.710937-8.808594 20.394531-8.042969l4.851563.484375c1.230468.121094 2.441406-.40625 3.203124-1.390625l2.472657-3.246094c3.417969-4.46875 9.808593-5.316406 14.273437-1.90625 1.710938 1.308594 2.898438 3.058594 3.511719 4.96875zm0 0"/><path d="m173.605469 229.839844c-2.027344 5.246094-7.925781 7.855468-13.167969 5.820312l-5.398438-2.085937c-9.90625-3.828125-16.03125-13.515625-15.246093-24.105469l1.226562-16.554688c.109375-1.378906-.589843-2.691406-1.792969-3.382812l-14.640624-8.386719c5.230468-4.945312 10.769531-9.605469 16.59375-13.960937l8.171874 4.683594c7.953126 4.5625 12.660157 13.40625 11.976563 22.558593l-1.226563 16.554688c-.121093 1.566406.808594 3.035156 2.285157 3.609375l5.398437 2.082031c5.238282 2.027344 7.847656 7.917969 5.820313 13.167969zm0 0"/><path d="m399.574219 193.703125-1.371094 3.234375c-5.042969 11.933594-18.480469 17.660156-30.578125 13.046875-1.667969-.632813-3.511719.027344-4.398438 1.574219l-8.054687 14.132812c-1.316406 2.308594-3.398437 3.898438-5.730469 4.644532-2.625.84375-5.582031.632812-8.160156-.84375-4.882812-2.78125-6.585938-9.007813-3.800781-13.890626l8.058593-14.132812c.195313-.332031.394532-.667969.601563-.988281l-15.003906-7.722657c-5-2.5625-6.96875-8.699218-4.398438-13.703124l.035157-.070313c2.558593-4.972656 8.652343-6.953125 13.636718-4.433594l30.144532 15.199219c1.453124.265625 2.894531.664062 4.324218 1.210938 1.8125.683593 3.824219-.167969 4.578125-1.953126l4.621094-10.917968c5.433594 4.886718 10.617187 10.097656 15.496094 15.613281zm0 0"/></g></svg>