<svg height="512pt" viewBox="0 0 512 512" width="512pt" xmlns="http://www.w3.org/2000/svg"><path d="m512 256c0 120.398438-83.128906 221.398438-195.128906 248.71875-19.511719 4.761719-39.890625 7.28125-60.871094 7.28125-4.691406 0-9.351562-.128906-13.980469-.378906-134.878906-7.261719-242.019531-118.929688-242.019531-255.621094 0-141.378906 114.621094-256 256-256s256 114.621094 256 256zm0 0" fill="#ffe955"/><path d="m512 256c0 26.050781-3.890625 51.191406-11.128906 74.871094-32.011719 104.847656-129.542969 181.128906-244.871094 181.128906-104.558594 0-194.488281-62.699219-234.230469-152.550781-14-31.628907-21.769531-66.628907-21.769531-103.449219 0-46.21875 12.25-89.570312 33.679688-127 44.121093 77.070312 127.160156 129 222.320312 129s178.210938-51.929688 222.320312-129c21.429688 37.429688 33.679688 80.78125 33.679688 127zm0 0" fill="#ffd112"/><path d="m30.742188 377.703125c7.15625 13.21875 15.429687 25.738281 24.71875 37.425781 46.898437 59.019532 119.300781 96.871094 200.539062 96.871094s153.640625-37.851562 200.539062-96.871094c9.289063-11.6875 17.5625-24.207031 24.71875-37.425781zm0 0" fill="#ff9f00"/><path d="m316.871094 415.71875v89c-19.511719 4.761719-39.890625 7.28125-60.871094 7.28125-4.691406 0-9.351562-.128906-13.980469-.378906v-95.902344zm0 0" fill="#474f6f"/><path d="m242.023438 415.722656h74.851562v65.734375h-74.851562zm0 0" fill="#323b5a"/><path d="m195.125 390.480469h121.75v59.222656h-121.75zm0 0" fill="#474f6f"/><path d="m316.875 415.722656h-121.75v-223.949218c0-30.132813 10.949219-57.710938 29.09375-78.972657 22.324219-26.175781 55.550781-42.777343 92.65625-42.777343zm0 0" fill="#fff"/><path d="m195.125 255.269531h121.75v160.453125h-121.75zm0 0" fill="#e4ebf8"/><path d="m316.875 415.722656h-74.855469v-209.890625c0-41.335937 33.519531-74.851562 74.855469-74.851562zm0 0" fill="#c7d9ff"/><path d="m242.023438 255.269531h74.851562v160.453125h-74.851562zm0 0" fill="#8fc9f7"/><path d="m242.023438 500.96875v-19.507812h15.792968c-.003906 10.367187-9.769531 13.566406-15.792968 19.507812zm0 0" fill="#323b5a"/><path d="m195.125 396.058594v-204.285156c0-30.132813 10.949219-57.710938 29.09375-78.972657 14.394531 5.3125 31.605469 8.34375 38.691406 20.601563 8.550782 14.777344-2.574218 36.226562-2.574218 54.519531 0 18.691406 17.167968 18.691406 17.167968 37.394531 0 15.816406-12.292968 18.246094-16.078125 29.953125-.6875 2.128907-1.089843 4.566407-1.089843 7.441407 0 18.695312 17.167968 18.695312 17.167968 37.390624 0 18.289063-20.902344 31.144532-29.449218 45.917969-8.824219 15.242188-9.800782 39.679688-25.035157 48.492188-7.898437 4.566406-17.691406 3.519531-27.894531 1.546875zm0 0" fill="#dd1265"/><path d="m195.125 396.058594v-140.789063h66.304688c-.6875 2.128907-1.089844 4.566407-1.089844 7.441407 0 18.695312 17.164062 18.695312 17.164062 37.390624 0 18.289063-20.898437 31.144532-29.449218 45.917969-8.820313 15.242188-9.800782 39.679688-25.035157 48.492188-7.898437 4.566406-17.691406 3.519531-27.894531 1.546875zm0 0" fill="#ba0d5c"/></svg>