<svg height="512pt" viewBox="-11 0 512 512" width="512pt" xmlns="http://www.w3.org/2000/svg"><path d="m490 267c0 135.308594-109.691406 245-245 245s-245-109.691406-245-245 109.691406-245 245-245 245 109.691406 245 245zm0 0" fill="#293d7c"/><path d="m74 400v-39c0-2.207031 1.792969-4 4-4h18v-59.625c-1.800781-.238281-3.632812-.375-5.5-.375-21.179688 0-38.640625 15.867188-41.171875 36.359375-2.6875-.558594-5.472656-.859375-8.328125-.859375-11.140625 0-21.226562 4.5-28.550781 11.777344 6.585937 19.820312 15.636719 38.511718 26.78125 55.722656zm0 0" fill="#60d882"/><path d="m48 347.5c2.855469 0 5.640625.300781 8.328125.859375 2.472656-20.003906 19.175781-35.59375 39.671875-36.324219v-14.671875c-1.800781-.238281-3.636719-.363281-5.5-.363281-21.179688 0-38.640625 15.867188-41.171875 36.359375-2.6875-.558594-5.472656-.859375-8.328125-.859375-11.140625 0-21.226562 4.5-28.550781 11.777344 1.832031 5.519531 3.867187 10.945312 6.074219 16.28125 7.457031-6.761719 19.074218-13.058594 29.476562-13.058594zm0 0" fill="#37c47a"/><path d="m394 357h18c2.207031 0 4 1.792969 4 4v39h34.773438c10.289062-15.890625 18.789062-33.046875 25.214843-51.183594-7.386719-9.902344-19.1875-16.316406-32.488281-16.316406-2.855469 0-5.640625.300781-8.328125.859375-2.53125-20.492187-19.992187-36.359375-41.171875-36.359375zm0 0" fill="#60d882"/><path d="m394 310.46875c17.214844 4.542969 30.308594 19.207031 32.539062 37.25 2.863282-.601562 5.828126-.917969 8.867188-.917969 14.144531 0 26.691406 6.808594 34.558594 17.328125 2.167968-5.023437 4.183594-10.125 6.023437-15.3125-7.386719-9.902344-19.1875-16.316406-32.488281-16.316406-2.855469 0-5.640625.300781-8.328125.859375-2.53125-20.492187-19.992187-36.359375-41.171875-36.359375zm0 0" fill="#37c47a"/><path d="m390 147h-31.5v210h36.5v-205c0-2.75-2.25-5-5-5zm0 0" fill="#d3d1d3"/><path d="m131.5 147h-31.5c-2.75 0-5 2.25-5 5v205h36.5zm0 0" fill="#d3d1d3"/><path d="m115 357v-205c0-2.75 2.25-5 5-5h-20c-2.75 0-5 2.25-5 5v205zm0 0" fill="#c6c4c6"/><path d="m359.5 357v-242.5c0-63.238281-51.265625-114.5-114.5-114.5s-114.5 51.261719-114.5 114.5v242.5zm0 0" fill="#b8b6b7"/><path d="m161 357v-242.5c0-58.066406 43.222656-106.027344 99.25-113.488281-4.988281-.664063-10.078125-1.011719-15.25-1.011719-63.234375 0-114.5 51.261719-114.5 114.5v242.5zm0 0" fill="#a9a7a9"/><path d="m417 400v-39c0-2.75-2.25-5-5-5h-334c-2.75 0-5 2.25-5 5v39zm0 0" fill="#333031"/><path d="m103 400v-39c0-2.75 2.25-5 5-5h-30c-2.75 0-5 2.25-5 5v39zm0 0" fill="#231f20"/><path d="m38.566406 399c43.542969 67.960938 119.730469 113 206.433594 113s162.890625-45.039062 206.433594-113zm0 0" fill="#bf7e52"/><path d="m232.15625 158.480469c0 2.75 2.25 5 5 5h15.6875c2.75 0 5-2.25 5-5v-60.808594c0-2.75 2.25-5 5-5h21.195312c2.75 0 5-2.25 5-5v-15.691406c0-2.75-2.25-5-5-5h-21.195312c-2.75 0-5-2.25-5-5v-21.980469c0-2.75-2.25-5-5-5h-15.6875c-2.75 0-5 2.25-5 5v21.980469c0 2.75-2.25 5-5 5h-21.195312c-2.75 0-5 2.25-5 5v15.691406c0 2.75 2.25 5 5 5h21.195312c2.75 0 5 2.25 5 5zm0 0" fill="#fff"/><path d="m247.195312 153c-2.75 0-5-2.25-5-5v-60.808594c0-2.75-2.25-5-5-5h-21.195312c-2.75 0-5-2.25-5-5v-10.210937h-5.039062c-2.75 0-5 2.25-5 5v15.691406c0 2.75 2.25 5 5 5h21.195312c2.75 0 5 2.25 5 5v60.808594c0 2.75 2.25 5 5 5h15.6875c2.75 0 5-2.25 5-5v-5.480469zm0 0" fill="#eef6ff"/><path d="m301.5 280.5h-113c-4.140625 0-7.5-3.359375-7.5-7.5s3.359375-7.5 7.5-7.5h113c4.144531 0 7.5 3.359375 7.5 7.5s-3.355469 7.5-7.5 7.5zm0 0" fill="#d3d1d3"/><path d="m288.257812 315.5h-86.515624c-4.140626 0-7.5-3.359375-7.5-7.5s3.359374-7.5 7.5-7.5h86.515624c4.144532 0 7.5 3.359375 7.5 7.5s-3.359374 7.5-7.5 7.5zm0 0" fill="#d3d1d3"/><path d="m119.5 431h-14.371094c-4.140625 0-7.5-3.359375-7.5-7.5s3.359375-7.5 7.5-7.5h14.371094c4.140625 0 7.5 3.359375 7.5 7.5s-3.359375 7.5-7.5 7.5zm0 0" fill="#ffc987"/><path d="m186.5 431h-14.371094c-4.140625 0-7.5-3.359375-7.5-7.5s3.359375-7.5 7.5-7.5h14.371094c4.140625 0 7.5 3.359375 7.5 7.5s-3.359375 7.5-7.5 7.5zm0 0" fill="#8e5e3d"/><path d="m221.132812 476h-14.371093c-4.140625 0-7.5-3.359375-7.5-7.5s3.359375-7.5 7.5-7.5h14.371093c4.140626 0 7.5 3.359375 7.5 7.5s-3.359374 7.5-7.5 7.5zm0 0" fill="#ffc987"/><path d="m296.132812 476h-14.371093c-4.140625 0-7.5-3.359375-7.5-7.5s3.359375-7.5 7.5-7.5h14.371093c4.140626 0 7.5 3.359375 7.5 7.5s-3.359374 7.5-7.5 7.5zm0 0" fill="#8e5e3d"/><path d="m253.5 431h-14.367188c-4.144531 0-7.5-3.359375-7.5-7.5s3.355469-7.5 7.5-7.5h14.367188c4.140625 0 7.5 3.359375 7.5 7.5s-3.359375 7.5-7.5 7.5zm0 0" fill="#ffc987"/><path d="m320.5 431h-14.367188c-4.144531 0-7.5-3.359375-7.5-7.5s3.355469-7.5 7.5-7.5h14.367188c4.140625 0 7.5 3.359375 7.5 7.5s-3.359375 7.5-7.5 7.5zm0 0" fill="#8e5e3d"/><path d="m387.5 431h-14.367188c-4.144531 0-7.5-3.359375-7.5-7.5s3.355469-7.5 7.5-7.5h14.367188c4.140625 0 7.5 3.359375 7.5 7.5s-3.359375 7.5-7.5 7.5zm0 0" fill="#ffc987"/><path d="m270.5 214.5c0 14.082031-11.417969 25.5-25.5 25.5s-25.5-11.417969-25.5-25.5 11.417969-25.5 25.5-25.5 25.5 11.417969 25.5 25.5zm0 0" fill="#ffd00d"/><path d="m230 214.5c0-12.28125 8.6875-22.535156 20.25-24.957031-1.695312-.355469-3.449219-.542969-5.25-.542969-14.082031 0-25.5 11.417969-25.5 25.5s11.417969 25.5 25.5 25.5c1.800781 0 3.554688-.1875 5.25-.542969-11.5625-2.421875-20.25-12.675781-20.25-24.957031zm0 0" fill="#ffaf10"/></svg>