<svg height="512pt" viewBox="-11 0 512 512.001" width="512pt" xmlns="http://www.w3.org/2000/svg"><path d="m490 267c0 135.3125-109.691406 245-245 245s-245-109.6875-245-245c0-135.308594 109.691406-245 245-245s245 109.691406 245 245zm0 0" fill="#924eb5"/><path d="m25.976562 376.875c40.277344 80.132812 123.222657 135.125 219.023438 135.125s178.746094-54.992188 219.023438-135.125zm0 0" fill="#8e5e3d"/><path d="m114.398438 396.929688-16.28125 28.199218c-6.347657 10.992188-2.582032 25.054688 8.414062 31.402344 11 6.351562 25.058594 2.582031 31.40625-8.414062l13.539062-23.457032c-13.613281-7.65625-26.074218-17-37.078124-27.730468zm0 0" fill="#293d7c"/><path d="m119.085938 425.128906 9.222656-15.980468c-4.859375-3.835938-9.5-7.917969-13.910156-12.21875l-16.28125 28.195312c-6.347657 10.996094-2.578126 25.058594 8.417968 31.40625 7.011719 4.046875 15.265625 3.980469 21.972656.546875-.335937-.171875-.675781-.355469-1.007812-.546875-10.996094-6.347656-14.765625-20.410156-8.414062-31.402344zm0 0" fill="#1a2b63"/><path d="m367.601562 396.929688c-11.003906 10.730468-23.464843 20.078124-37.078124 27.730468l13.539062 23.457032c6.347656 10.996093 20.40625 14.765624 31.40625 8.414062 10.996094-6.347656 14.761719-20.410156 8.414062-31.402344zm0 0" fill="#293d7c"/><path d="m357.792969 437.503906-12.691407-21.988281c-4.695312 3.269531-9.558593 6.324219-14.578124 9.144531l13.539062 23.457032c6.347656 10.996093 20.40625 14.765624 31.40625 8.414062 3.609375-2.082031 6.433594-5 8.382812-8.367188-9.859374 2.746094-20.703124-1.386718-26.058593-10.660156zm0 0" fill="#1a2b63"/><path d="m417.789062 70.621094-9.550781-9.546875c-3.367187-3.371094-8.882812-3.371094-12.253906 0l-63.632813 63.628906c1.4375-.1875 2.898438-.296875 4.382813-.296875 10.765625 0 20.347656 5.140625 26.4375 13.089844l54.617187-54.617188c3.367188-3.371094 3.367188-8.886718 0-12.257812zm0 0" fill="#bf7e52"/><path d="m408.238281 61.074219c-3.371093-3.371094-8.886719-3.371094-12.253906 0l-63.632813 63.628906c1.4375-.1875 2.894532-.296875 4.382813-.296875 4.902344 0 9.558594 1.074219 13.753906 2.988281l56.179688-56.179687c2.746093-2.746094 6.914062-3.253906 10.183593-1.527344zm0 0" fill="#a5683f"/><path d="m149.503906 148.089844h41.148438c-2.574219-13.554688-14.476563-23.808594-28.777344-23.808594-8.128906 0-15.484375 3.3125-20.792969 8.660156 4.242188 3.972656 7.253907 9.234375 8.421875 15.148438zm0 0" fill="#37c47a"/><path d="m149.503906 148.089844h4.4375c1.914063-10.074219 8.96875-18.328125 18.347656-21.894532-3.238281-1.230468-6.746093-1.914062-10.414062-1.914062-8.128906 0-15.484375 3.3125-20.792969 8.660156 4.242188 3.972656 7.253907 9.234375 8.421875 15.148438zm0 0" fill="#02af8e"/><path d="m323.546875 154.09375h47.292969c-1.804688-17.246094-16.382813-30.6875-34.105469-30.6875-12.433594 0-23.320313 6.617188-29.335937 16.519531 6.8125 2.820313 12.492187 7.839844 16.148437 14.167969zm0 0" fill="#60d882"/><path d="m323.59375 154.179688c1.402344-13.722657 10.890625-25.046876 23.625-29.132813-3.304688-1.0625-6.828125-1.640625-10.484375-1.640625-12.433594 0-23.320313 6.617188-29.335937 16.519531 6.84375 2.835938 12.539062 7.886719 16.195312 14.253907zm0 0" fill="#2bb381"/><path d="m324.710938 154.09375c-5.851563-10.546875-17.09375-17.6875-30.007813-17.6875s-24.15625 7.140625-30.003906 17.6875zm0 0" fill="#37c47a"/><path d="m285.699219 154.09375c4.191406-7.554688 11.148437-13.359375 19.503906-16.042969-3.308594-1.0625-6.835937-1.644531-10.5-1.644531-12.914063 0-24.15625 7.140625-30.003906 17.6875zm0 0" fill="#2bb381"/><path d="m134.59375 148.089844h15.933594c-2.570313-13.554688-14.472656-23.808594-28.773438-23.808594-16.179687 0-29.296875 13.117188-29.296875 29.296875 0 .171875.011719.34375.011719.515625h35.484375c.335937-3.367188 3.1875-6.003906 6.640625-6.003906zm0 0" fill="#2bb381"/><path d="m113.425781 154.09375c0-.171875-.019531-.339844-.019531-.515625 0-12.488281 7.816406-23.144531 18.820312-27.359375-3.253906-1.246094-6.78125-1.9375-10.472656-1.9375-16.183594 0-29.296875 13.117188-29.296875 29.296875 0 .171875.007813.34375.011719.511719h20.957031zm0 0" fill="#28a5a5"/><path d="m63.238281 280.355469h-8.394531c-11.839844 0-21.472656-9.632813-21.472656-21.476563 0-11.839844 9.632812-21.476562 21.472656-21.476562h13.144531c1.863281-7.527344 4.285157-14.921875 7.226563-22.167969h-20.367188c-24.066406 0-43.648437 19.578125-43.648437 43.644531s19.582031 43.648438 43.648437 43.648438h10.320313c-1.132813-7.253906-1.78125-14.652344-1.929688-22.171875zm0 0" fill="#1a2b63"/><path d="m427.15625 215.234375h-20.371094c2.941406 7.246094 5.363282 14.640625 7.226563 22.167969h13.144531c11.839844 0 21.472656 9.636718 21.472656 21.476562 0 11.84375-9.632812 21.476563-21.472656 21.476563h-8.394531c-.148438 7.519531-.796875 14.917969-1.929688 22.171875h10.320313c24.066406 0 43.648437-19.582032 43.648437-43.648438s-19.578125-43.644531-43.644531-43.644531zm0 0" fill="#1a2b63"/><path d="m400.246094 198.882812c-3.144532 1.550782-6.679688 2.429688-10.417969 2.429688h-24.796875v1.332031c0 7.914063-6.441406 14.355469-14.355469 14.355469-7.917969 0-14.359375-6.441406-14.359375-14.355469v-1.332031h-122.679687c-2.582031 2.476562-6.078125 4.011719-9.933594 4.011719s-7.351563-1.535157-9.929687-4.011719h-37.140626v17.078125c0 7.917969-6.441406 14.355469-14.359374 14.355469-7.914063 0-14.355469-6.4375-14.355469-14.355469v-17.078125h-35.746094c-3.738281 0-7.269531-.878906-10.417969-2.429688-12.5 23.460938-19.558594 50.042969-19.558594 78.210938 0 66.871094 39.738282 124.8125 97.753907 153.21875 3.15625-9.421875 12.058593-16.230469 22.53125-16.230469 7.835937 0 15.167969 3.867188 19.605469 10.34375l.921874 1.339844 17.628907-32.199219c.1875-.351562.558593-.566406.957031-.566406.402344 0 .769531.214844.960938.5625l18.707031 34.164062.859375 1.476563.867187-1.472656.203125-.363281 18.507813-33.800782c.1875-.351562.554687-.566406.957031-.566406s.769531.21875.960938.566406l16.605468 30.332032.941406-1.140626c4.535157-5.515624 11.226563-8.679687 18.359376-8.679687 10.46875 0 19.375 6.8125 22.527343 16.234375 58.015625-28.40625 97.753907-86.351562 97.753907-153.21875 0-28.167969-7.058594-54.75-19.558594-78.210938zm0 0" fill="#2e4c89"/><g fill="#293d7c"><path d="m169.640625 417.863281c-46.105469-31.078125-76.25-82.535156-76.25-140.769531 0-27.199219 6.582031-52.921875 18.289063-75.78125h-19.507813c-3.738281 0-7.273437-.878906-10.417969-2.429688-12.5 23.460938-19.558594 50.042969-19.558594 78.210938 0 66.871094 39.738282 124.8125 97.753907 153.21875 1.730469-5.167969 5.1875-9.546875 9.691406-12.449219zm0 0"/><path d="m172.988281 165.835938c-9.019531 0-16.355469 7.335937-16.355469 16.355468v20.121094h38.304688c-3.394531-2.628906-5.589844-6.730469-5.589844-11.34375v-8.777344c0-9.019531-7.339844-16.355468-16.359375-16.355468zm0 0"/><path d="m127.914062 154.769531c0-.582031.082032-1.140625.222657-1.675781h-35.964844c-13.589844 0-24.609375 11.015625-24.609375 24.609375s11.019531 24.609375 24.609375 24.609375h35.742187zm0 0"/><path d="m389.828125 153.09375h-171.988281c.140625.535156.222656 1.09375.222656 1.671875v36.199219c0 4.613281-2.199219 8.71875-5.589844 11.34375h123.84375v-21.421875c0-7.917969 6.441406-14.359375 14.359375-14.359375 7.914063 0 14.355469 6.441406 14.355469 14.359375v21.421875h24.796875c13.589844 0 24.609375-11.015625 24.609375-24.609375 0-13.589844-11.019531-24.605469-24.609375-24.605469zm0 0"/></g><path d="m99 177.699219c0-13.589844 11.019531-24.605469 24.609375-24.605469h-31.4375c-13.589844 0-24.609375 11.015625-24.609375 24.605469 0 13.59375 11.019531 24.613281 24.609375 24.613281h31.4375c-13.589844 0-24.609375-11.019531-24.609375-24.613281zm0 0" fill="#1a2b63"/><path d="m278.769531 98.976562c0 13.191407-10.691406 23.882813-23.882812 23.882813-13.191407 0-23.886719-10.691406-23.886719-23.882813 0-13.191406 10.695312-23.886718 23.886719-23.886718 13.191406 0 23.882812 10.695312 23.882812 23.886718zm0 0" fill="#2bb381"/><path d="m247 98.976562c0-10.386718 6.628906-19.21875 15.886719-22.507812-2.503907-.890625-5.195313-1.378906-8-1.378906-13.191407 0-23.886719 10.695312-23.886719 23.886718 0 13.191407 10.695312 23.886719 23.886719 23.886719 2.804687 0 5.496093-.488281 8-1.378906-9.257813-3.292969-15.886719-12.125-15.886719-22.507813zm0 0" fill="#28a5a5"/><path d="m218.789062 53.460938c0 10.742187-8.710937 19.453124-19.457031 19.453124-10.746093 0-19.457031-8.710937-19.457031-19.453124 0-10.746094 8.710938-19.457032 19.457031-19.457032 10.746094 0 19.457031 8.710938 19.457031 19.457032zm0 0" fill="#60d882"/><path d="m192 53.460938c0-8.628907 5.621094-15.933594 13.394531-18.484376-1.90625-.625-3.941406-.976562-6.0625-.976562-10.746093 0-19.457031 8.710938-19.457031 19.460938 0 10.746093 8.710938 19.453124 19.457031 19.453124 2.121094 0 4.15625-.347656 6.0625-.972656-7.773437-2.550781-13.394531-9.855468-13.394531-18.480468zm0 0" fill="#37c47a"/><path d="m304.40625 23.394531c0 12.917969-10.472656 23.394531-23.394531 23.394531-12.917969 0-23.394531-10.476562-23.394531-23.394531 0-12.921875 10.476562-23.394531 23.394531-23.394531 12.921875 0 23.394531 10.472656 23.394531 23.394531zm0 0" fill="#60d882"/><path d="m274 23.394531c0-10.039062 6.324219-18.59375 15.203125-21.917969-2.546875-.953124-5.308594-1.476562-8.191406-1.476562-12.917969 0-23.390625 10.476562-23.390625 23.394531s10.472656 23.394531 23.390625 23.394531c2.882812 0 5.644531-.523437 8.191406-1.480468-8.878906-3.320313-15.203125-11.875-15.203125-21.914063zm0 0" fill="#37c47a"/><path d="m232.925781 362.058594c-9.296875 0-17.203125-6.953125-18.390625-16.171875l-.644531-4.980469c-.167969-1.324219-.902344-2.511719-2.011719-3.253906-14.5-9.75-23.15625-25.980469-23.15625-43.421875 0-28.828125 23.453125-52.28125 52.277344-52.28125 28.828125 0 52.28125 23.453125 52.28125 52.28125 0 17.441406-8.65625 33.671875-23.160156 43.421875-1.109375.746094-1.84375 1.929687-2.011719 3.253906l-.640625 4.980469c-1.191406 9.222656-9.097656 16.171875-18.394531 16.171875zm0 0" fill="#fff"/><path d="m235.253906 345.882812-.640625-4.980468c-.167969-1.320313-.902343-2.507813-2.011719-3.25-9.390624-6.3125-16.308593-15.351563-20.035156-25.671875-5.921875-2.578125-10.066406-8.476563-10.066406-15.347657 0-6.1875 3.367188-11.578124 8.359375-14.476562 4.679687-19.714844 20.546875-35.144531 40.5-39.171875-3.347656-.675781-6.8125-1.035156-10.359375-1.035156-28.828125 0-52.28125 23.449219-52.28125 52.28125 0 17.441406 8.660156 33.671875 23.160156 43.421875 1.109375.742187 1.84375 1.929687 2.011719 3.25l.644531 4.980468c1.1875 9.222657 9.09375 16.175782 18.390625 16.175782h16.148438c.773437 0 1.535156-.066406 2.285156-.160156-8.273437-1.03125-15.011719-7.558594-16.105469-16.015626zm0 0" fill="#d9eafc"/><path d="m235.976562 296.632812c0 9.246094-7.492187 16.738282-16.738281 16.738282-9.246093 0-16.738281-7.492188-16.738281-16.738282 0-9.246093 7.492188-16.742187 16.738281-16.742187 9.246094 0 16.738281 7.496094 16.738281 16.742187zm0 0" fill="#ea2a3d"/><path d="m212.519531 296.632812c0-7.5 4.933594-13.847656 11.730469-15.976562-1.582031-.496094-3.265625-.765625-5.011719-.765625-9.242187 0-16.738281 7.496094-16.738281 16.742187 0 9.246094 7.496094 16.738282 16.738281 16.738282 1.746094 0 3.429688-.269532 5.011719-.765625-6.796875-2.128907-11.730469-8.472657-11.730469-15.972657zm0 0" fill="#b7092b"/><path d="m279.503906 296.632812c0 9.246094-7.496094 16.738282-16.742187 16.738282-9.242188 0-16.738281-7.492188-16.738281-16.738282 0-9.246093 7.496093-16.742187 16.738281-16.742187 9.246093 0 16.742187 7.496094 16.742187 16.742187zm0 0" fill="#ea2a3d"/><path d="m256.523438 296.632812c0-7.410156 4.816406-13.6875 11.488281-15.890624-1.652344-.546876-3.414063-.851563-5.25-.851563-9.242188 0-16.738281 7.496094-16.738281 16.742187 0 9.246094 7.496093 16.738282 16.738281 16.738282 1.835937 0 3.597656-.304688 5.25-.851563-6.671875-2.203125-11.488281-8.476562-11.488281-15.886719zm0 0" fill="#b7092b"/><path d="m142.273438 233.75c8.46875 0 15.359374-6.890625 15.359374-15.359375v-36.199219c0-8.46875 6.886719-15.355468 15.355469-15.355468s15.359375 6.886718 15.359375 15.355468v8.777344c0 8.464844 6.886719 15.355469 15.355469 15.355469s15.359375-6.890625 15.359375-15.355469v-36.199219c0-4.242187-3.4375-7.679687-7.679688-7.679687h-76.789062c-4.238281 0-7.675781 3.4375-7.675781 7.679687v63.621094c-.003907 8.46875 6.886719 15.359375 15.355469 15.359375zm0 0" fill="#60d882"/><path d="m366.03125 202.644531c0 8.480469-6.875 15.355469-15.355469 15.355469-8.484375 0-15.359375-6.875-15.359375-15.355469v-21.757812c0-8.480469 6.875-15.355469 15.359375-15.355469 8.480469 0 15.355469 6.875 15.355469 15.355469zm0 0" fill="#60d882"/><path d="m349 202.644531v-21.757812c0-6.019531 3.472656-11.214844 8.515625-13.734375-2.0625-1.03125-4.378906-1.625-6.839844-1.625-8.484375 0-15.359375 6.878906-15.359375 15.359375v21.753906c0 8.484375 6.875 15.359375 15.359375 15.359375 2.460938 0 4.777344-.59375 6.839844-1.621094-5.042969-2.519531-8.515625-7.714844-8.515625-13.734375zm0 0" fill="#37c47a"/><path d="m157.628906 286.113281c0 8.480469-6.875 15.359375-15.355468 15.359375-8.480469 0-15.355469-6.878906-15.355469-15.359375v-21.753906c0-8.480469 6.875-15.359375 15.355469-15.359375 8.480468 0 15.355468 6.878906 15.355468 15.359375zm0 0" fill="#60d882"/><path d="m139.855469 218.390625v-63.625c0-4.238281 3.4375-7.675781 7.679687-7.675781h-12.941406c-4.238281 0-7.675781 3.4375-7.675781 7.675781v63.625c0 8.46875 6.886719 15.355469 15.355469 15.355469 2.3125 0 4.5-.527344 6.46875-1.445313-5.238282-2.449219-8.886719-7.753906-8.886719-13.910156zm0 0" fill="#37c47a"/><path d="m139.855469 286.113281v-21.753906c0-6.167969 3.644531-11.472656 8.886719-13.914063-1.964844-.917968-4.152344-1.445312-6.46875-1.445312-8.480469 0-15.355469 6.878906-15.355469 15.359375v21.753906c0 8.480469 6.875 15.359375 15.355469 15.359375 2.316406 0 4.503906-.527344 6.46875-1.445312-5.242188-2.441406-8.886719-7.746094-8.886719-13.914063zm0 0" fill="#37c47a"/><path d="m198.859375 439.03125c0-4.121094 1.132813-8.152344 3.269531-11.660156l1.402344-2.5625c-4.367188-7.039063-12.160156-11.726563-21.050781-11.726563-13.675781 0-24.761719 11.082031-24.761719 24.757813 0 13.675781 11.085938 24.757812 24.761719 24.757812 8.472656 0 15.953125-4.257812 20.414062-10.753906-2.539062-3.640625-4.035156-8.054688-4.035156-12.8125zm0 0" fill="#ff9518"/><path d="m178.480469 437.839844c0-9.964844 5.890625-18.550782 14.378906-22.476563-3.15625-1.460937-6.671875-2.285156-10.382813-2.285156-13.671874 0-24.757812 11.085937-24.757812 24.761719 0 13.671875 11.085938 24.757812 24.757812 24.757812 3.710938 0 7.226563-.820312 10.382813-2.28125-8.488281-3.925781-14.378906-12.511718-14.378906-22.476562zm0 0" fill="#ef8318"/><path d="m239.921875 439.03125c0-3.785156.964844-7.492188 2.777344-10.789062-.246094-.472657-.507813-.9375-.785157-1.390626l-18.484374-33.765624c-.367188-.667969-1.070313-1.085938-1.835938-1.085938s-1.472656.417969-1.835938 1.085938l-18.484374 33.765624c-2.234376 3.664063-3.414063 7.875-3.414063 12.183594 0 12.992188 10.648437 23.566406 23.734375 23.566406 9.175781 0 17.144531-5.203124 21.09375-12.789062-1.761719-3.203125-2.765625-6.878906-2.765625-10.78125zm0 0" fill="#ffd00d"/><path d="m218.53125 439.03125c0-4.304688 1.179688-8.515625 3.414062-12.183594l9.984376-18.238281-8.5-15.523437c-.363282-.667969-1.070313-1.085938-1.835938-1.085938s-1.46875.417969-1.835938 1.085938l-18.484374 33.765624c-2.234376 3.664063-3.414063 7.875-3.414063 12.183594 0 12.992188 10.648437 23.566406 23.734375 23.566406 3.703125 0 7.210938-.847656 10.335938-2.355468-7.921876-3.824219-13.398438-11.894532-13.398438-21.214844zm0 0" fill="#ffaf10"/><path d="m299.523438 413.082031c-8.097657 0-15.285157 3.886719-19.804688 9.894531l2.382812 4.351563c2.160157 3.546875 3.289063 7.582031 3.289063 11.703125 0 5.429688-1.9375 10.414062-5.167969 14.3125 4.539063 5.640625 11.496094 9.257812 19.300782 9.257812 13.675781 0 24.761718-11.085937 24.761718-24.761718-.003906-13.675782-11.085937-24.757813-24.761718-24.757813zm0 0" fill="#ffd00d"/><path d="m295.480469 437.839844c0-9.976563 5.902343-18.566406 14.402343-22.488282-3.152343-1.453124-6.660156-2.269531-10.359374-2.269531-8.097657 0-15.285157 3.886719-19.804688 9.894531l2.382812 4.351563c2.160157 3.546875 3.289063 7.582031 3.289063 11.703125 0 5.429688-1.9375 10.414062-5.167969 14.3125 4.539063 5.640625 11.496094 9.257812 19.300782 9.257812 3.699218 0 7.207031-.820312 10.359374-2.273437-8.5-3.921875-14.402343-12.511719-14.402343-22.488281zm0 0" fill="#ffaf10"/><path d="m262.65625 462.601562c-13.085938 0-23.734375-10.574218-23.734375-23.570312 0-4.304688 1.179687-8.515625 3.414063-12.183594l18.484374-33.761718c.363282-.671876 1.070313-1.085938 1.835938-1.085938s1.472656.414062 1.835938 1.085938l18.484374 33.761718c2.234376 3.667969 3.414063 7.878906 3.414063 12.183594 0 12.996094-10.644531 23.570312-23.734375 23.570312zm0 0" fill="#ff9518"/><path d="m259.53125 439.03125c0-4.304688 1.179688-8.515625 3.414062-12.183594l10.015626-18.292968-8.464844-15.46875c-.367188-.667969-1.074219-1.085938-1.839844-1.085938s-1.46875.417969-1.832031 1.085938l-18.484375 33.765624c-2.238282 3.664063-3.414063 7.875-3.414063 12.183594 0 12.992188 10.644531 23.566406 23.734375 23.566406 3.6875 0 7.183594-.839843 10.304688-2.339843-7.941406-3.816407-13.433594-11.898438-13.433594-21.230469zm0 0" fill="#ef8318"/></svg>