<svg height="512pt" viewBox="-11 0 512 512" width="512pt" xmlns="http://www.w3.org/2000/svg"><path d="m490 267c0 135.308594-109.691406 245-245 245s-245-109.691406-245-245 109.691406-245 245-245 245 109.691406 245 245zm0 0" fill="#ea2a3d"/><path d="m109.449219 316.027344c-.167969-2.828125-.257813-5.59375-.257813-8.21875 0-1.546875.03125-3.171875.097656-4.957032l.050782-1.367187-1.316406.367187c-2.023438.558594-4.066407.84375-6.074219.84375-2.617188 0-5.140625-.453124-7.5-1.269531v16.324219h15zm0 0" fill="#aec1ed"/><path d="m142.148438 455.5v-58.96875c-2.828126-3.261719-5.476563-6.652344-7.964844-10.144531h-18.070313c-4.960937 0-9-4.039063-9-9v-28.609375c0-6.066406-4.933593-11-11-11h-9.4375c-6.066406 0-11 4.933594-11 11v5.824218c0 4.960938-4.039062 9-9 9h-2.777343c-.742188 0-1.457032-.101562-2.148438-.273437v92.171875zm0 0" fill="#eef6ff"/><path d="m109.492188 316.75h-45.59375c-5.5 0-10 4.5-10 10v27.851562c0 5.5 4.5 10 10 10h2.773437c5.5 0 10-4.5 10-10v-5.824218c0-5.5 4.5-10 10-10h9.441406c5.5 0 10 4.5 10 10v28.605468c0 5.5 4.5 10 10 10h18.773438c-14.871094-20.5-23.726563-44.851562-25.394531-70.632812zm0 0" fill="#d9eafc"/><path d="m70.898438 354.601562v-27.851562c0-5.5 4.5-10 10-10h-17c-5.5 0-10 4.5-10 10v27.851562c0 5.5 4.5 10 10 10h2.773437c2.777344 0 5.296875-1.152343 7.113281-2.992187-1.78125-1.808594-2.886718-4.285156-2.886718-7.007813zm0 0" fill="#c3ddf4"/><path d="m121.128906 252.261719c-3.542968-9.621094-8.902344-18.578125-15.921875-26.332031-.832031-.921876-2.019531-1.449219-3.257812-1.449219-1.242188 0-2.429688.527343-3.261719 1.449219-13.210938 14.609374-20.625 33.5-20.882812 53.199218l-.007813.925782c.28125 13.039062 11.117187 23.640624 24.148437 23.640624 2.558594 0 5.027344-.414062 7.355469-1.167968.683594-17.394532 4.746094-34.484375 11.828125-50.265625zm0 0" fill="#ffd00d"/><path d="m109.316406 301.980469c-8.761718-3.5-15.101562-12-15.316406-21.925781l.007812-.925782c.226563-17.144531 5.875-33.671875 16.042969-47.304687-1.515625-2.03125-3.128906-4-4.84375-5.898438-.832031-.917969-2.019531-1.445312-3.257812-1.445312-1.242188 0-2.429688.527343-3.261719 1.445312-13.210938 14.613281-20.625 33.503907-20.882812 53.203125l-.007813.925782c.28125 13.035156 11.117187 23.640624 24.148437 23.640624 2.5625 0 5.027344-.429687 7.355469-1.183593.007813-.179688.011719-.355469.015625-.53125zm0 0" fill="#ffaf10"/><path d="m140.210938 488.5c31.769531 15.0625 67.292968 23.5 104.789062 23.5s73.019531-8.4375 104.789062-23.5zm0 0" fill="#8e5e3d"/><path d="m160.183594 415.148438c1.257812.992187 1.992187 2.507812 1.992187 4.113281v32.609375c0 1.261718.1875 2.480468.53125 3.628906h164.585938c.34375-1.152344.53125-2.367188.53125-3.628906v-32.609375c0-1.605469.734375-3.121094 1.992187-4.113281 4.660156-3.683594 9.027344-7.632813 13.113282-11.804688-.007813-.148438-.019532-.292969-.019532-.441406v-27.847656c0-4.964844 4.035156-9 9-9h16.957032c2.96875-6.316407 5.453124-12.855469 7.421874-19.582032-5.601562-4.136718-9.320312-10.730468-9.480468-18.136718l.007812-.898438c.199219-15.269531 4.777344-30.046875 13.042969-42.679688-9.273437-54.4375-50.816406-98.019531-104.183594-110.289062v37.53125h-61.351562v-37.53125c-60.71875 13.960938-106.132813 68.445312-106.132813 133.339844 0 42.105468 18.949219 81.226562 51.992188 107.339844zm0 0" fill="#ffe2b8"/><path d="m193.363281 419.261719c0-1.605469-.730469-3.121094-1.988281-4.113281-31.242188-24.6875-49.878906-61.015626-51.8125-100.492188-8.582031-14.550781-9.316406-33.1875-.285156-48.832031 1.578125-2.730469 4.824218-3.894531 7.707031-2.941407 11.5625-33.15625 35.535156-60.542968 66.339844-76.550781v-11.621093c-60.210938 14.324218-105.132813 68.5625-105.132813 133.097656 0 42.105468 18.949219 81.226562 51.992188 107.339844 1.257812.992187 1.992187 2.507812 1.992187 4.113281v32.609375c0 1.261718.1875 2.480468.53125 3.628906h31.191407c-.34375-1.152344-.535157-2.367188-.535157-3.628906zm0 0" fill="#ffc987"/><path d="m156.988281 331.921875c-23.109375-13.34375-31.050781-42.992187-17.710937-66.097656 1.804687-3.128907 5.800781-4.199219 8.929687-2.394531l72.484375 41.847656c3.125 1.808594 4.195313 5.804687 2.394532 8.933594-13.34375 23.105468-42.992188 31.050781-66.097657 17.710937zm0 0" fill="#231f20"/><path d="m177.183594 331.921875c-22.070313-12.742187-30.289063-40.355469-19.363282-62.941406l-9.613281-5.550781c-3.125-1.804688-7.121093-.734376-8.929687 2.394531-13.339844 23.105469-5.394532 52.753906 17.710937 66.097656 10.765625 6.214844 22.945313 7.804687 34.238281 5.398437-4.816406-1.027343-9.550781-2.804687-14.042968-5.398437zm0 0"/><path d="m333.015625 331.921875c-23.109375 13.339844-52.757813 5.394531-66.101563-17.710937-1.804687-3.128907-.730468-7.125 2.398438-8.933594l72.480469-41.847656c3.128906-1.804688 7.125-.734376 8.929687 2.394531 13.339844 23.105469 5.394532 52.757812-17.707031 66.097656zm0 0" fill="#231f20"/><path d="m281.71875 303.816406c-.984375-1.710937-1.105469-3.679687-.507812-5.410156l-11.902344 6.871094c-3.125 1.808594-4.199219 5.804687-2.394532 8.933594 13.34375 23.105468 42.992188 31.050781 66.097657 17.710937 3.960937-2.285156 7.464843-5.0625 10.5-8.191406-22.363281 10.105469-49.265625 1.78125-61.792969-19.914063zm0 0"/><path d="m190.566406 306.828125c0 7.945313-6.441406 14.386719-14.382812 14.386719-7.945313 0-14.386719-6.441406-14.386719-14.386719 0-7.941406 6.441406-14.382813 14.386719-14.382813 7.941406 0 14.382812 6.441407 14.382812 14.382813zm0 0" fill="#ffd00d"/><path d="m328.15625 306.828125c0 7.945313-6.4375 14.386719-14.382812 14.386719-7.945313 0-14.386719-6.441406-14.386719-14.386719 0-7.941406 6.441406-14.382813 14.386719-14.382813 7.945312 0 14.382812 6.441407 14.382812 14.382813zm0 0" fill="#ffd00d"/><path d="m260.683594 369c-3.761719 0-7.121094-2.382812-8.363282-5.933594-1.085937-3.113281-4.03125-5.203125-7.320312-5.203125s-6.230469 2.089844-7.320312 5.203125c-1.242188 3.546875-4.605469 5.933594-8.363282 5.933594h-6.550781c-1.269531 0-2.464844-.152344-3.5625-.445312-4.683594-1.269532-7.488281-6.121094-6.246094-10.816407.285157-1.09375.757813-2.207031 1.394531-3.3125l22.234376-38.511719c.636718-1.097656 1.363281-2.0625 2.167968-2.859374 1.667969-1.664063 3.890625-2.578126 6.246094-2.578126s4.578125.914063 6.246094 2.578126c.804687.796874 1.53125 1.757812 2.167968 2.855468l22.234376 38.515625c.636718 1.101563 1.105468 2.21875 1.394531 3.316407 1.238281 4.6875-1.5625 9.539062-6.25 10.808593-1.097657.296875-2.289063.445313-3.558594.445313h-6.550781zm0 0" fill="#231f20"/><path d="m229.617188 357.742188c.289062-1.097657.761718-2.210938 1.394531-3.316407l22.238281-38.511719c.027344-.046874.054688-.085937.082031-.132812-.613281-1.042969-1.3125-1.960938-2.085937-2.726562-1.667969-1.664063-3.890625-2.578126-6.246094-2.578126s-4.578125.914063-6.246094 2.578126c-.804687.796874-1.53125 1.761718-2.167968 2.859374l-22.234376 38.511719c-.636718 1.105469-1.109374 2.21875-1.394531 3.316407-1.242187 4.691406 1.5625 9.542968 6.246094 10.8125 1.097656.296874 2.292969.445312 3.5625.445312h6.550781c1.640625 0 3.191406-.476562 4.535156-1.28125-3.429687-1.933594-5.28125-6.007812-4.234374-9.976562zm0 0"/><path d="m212.507812 455.5v-31.152344c0-7.523437-6.101562-13.625-13.625-13.625-7.527343 0-13.625 6.101563-13.625 13.625v31.152344zm0 0" fill="#d19546"/><path d="m258.625 455.5v-31.152344c0-7.523437-6.101562-13.625-13.625-13.625s-13.625 6.101563-13.625 13.625v31.152344zm0 0" fill="#d19546"/><path d="m304.742188 455.5v-31.152344c0-7.523437-6.097657-13.625-13.625-13.625-7.523438 0-13.625 6.101563-13.625 13.625v31.152344zm0 0" fill="#d19546"/><path d="m213.324219 167.566406h63.351562v45.433594h-63.351562zm0 0" fill="#d9eafc"/><path d="m213.324219 167.566406h14.675781v45.433594h-14.675781zm0 0" fill="#c3ddf4"/><path d="m237.5 167.566406h15v45.433594h-15zm0 0" fill="#aec1ed"/><path d="m273.675781 44.882812c-3.445312 1.976563-7.429687 3.117188-11.675781 3.117188h-34c-4.246094 0-8.230469-1.140625-11.675781-3.117188v81.683594h57.351562zm0 0" fill="#d19546"/><g fill="#ffaf10"><path d="m216.324219 94h57.351562v21.835938h-57.351562zm0 0"/><path d="m216.324219 60h57.351562v21.835938h-57.351562zm0 0"/><path d="m286.5 24.5c0 13.53125-10.96875 24.5-24.5 24.5h-34c-13.53125 0-24.5-10.96875-24.5-24.5s10.96875-24.5 24.5-24.5h34c13.53125 0 24.5 10.96875 24.5 24.5zm0 0"/></g><path d="m224 24.5c0-13.53125 10.96875-24.5 24.5-24.5h-20.5c-13.53125 0-24.5 10.96875-24.5 24.5s10.96875 24.5 24.5 24.5h20.5c-13.53125 0-24.5-10.96875-24.5-24.5zm0 0" fill="#ef9614"/><path d="m170.277344 168.566406c-1.796875 0-3.453125-.964844-4.34375-2.523437-.890625-1.5625-.871094-3.480469.042968-5.023438l19.570313-33c.898437-1.519531 2.535156-2.453125 4.300781-2.453125h110.304688c1.765625 0 3.398437.933594 4.300781 2.453125l19.570313 33c.914062 1.542969.933593 3.460938.042968 5.023438s-2.546875 2.523437-4.34375 2.523437zm0 0" fill="#ffd00d"/><path d="m186.65625 166.042969c-.890625-1.5625-.875-3.480469.042969-5.023438l19.570312-33c.898438-1.519531 2.535157-2.453125 4.300781-2.453125h-20.722656c-1.765625 0-3.402344.933594-4.300781 2.453125l-19.570313 33c-.914062 1.542969-.933593 3.460938-.042968 5.023438s2.546875 2.523437 4.34375 2.523437h20.722656c-1.796875 0-3.453125-.960937-4.34375-2.523437zm0 0" fill="#ffaf10"/><path d="m238.550781 163.433594c-1.648437 0-3.675781-1.167969-4.5-2.597656l-6.445312-11.171876c-.824219-1.425781-.824219-3.765624 0-5.195312l6.445312-11.167969c.824219-1.429687 2.851563-2.597656 4.5-2.597656h12.898438c1.648437 0 3.675781 1.167969 4.5 2.597656l6.445312 11.167969c.828125 1.429688.828125 3.769531 0 5.195312l-6.445312 11.171876c-.824219 1.429687-2.851563 2.597656-4.5 2.597656zm0 0" fill="#924eb5"/><path d="m244.066406 160.835938-6.449218-11.171876c-.824219-1.425781-.824219-3.765624 0-5.195312l6.449218-11.167969c.824219-1.429687 2.847656-2.597656 4.5-2.597656h-10.015625c-1.652343 0-3.675781 1.167969-4.5 2.597656l-6.445312 11.167969c-.828125 1.429688-.828125 3.769531 0 5.195312l6.445312 11.171876c.824219 1.429687 2.847657 2.597656 4.5 2.597656h10.015625c-1.652344 0-3.675781-1.171875-4.5-2.597656zm0 0" fill="#794091"/><path d="m283.824219 232h-77.648438c-5.523437 0-10-4.476562-10-10s4.476563-10 10-10h77.648438c5.523437 0 10 4.476562 10 10s-4.476563 10-10 10zm0 0" fill="#ffc987"/><path d="m430.160156 455.5v-21.082031c-.6875.167969-1.40625.269531-2.148437.269531h-23.882813c-4.964844 0-9-4.039062-9-9v-28.609375c0-6.0625-4.9375-11-11-11h-9.441406c-6.066406 0-11 4.9375-11 11v5.824219c0 4.964844-4.039062 9-9 9h-2.777344c-.738281 0-1.457031-.097656-2.148437-.269532v43.867188zm0 0" fill="#eef6ff"/><path d="m397.460938 366.054688v-16.335938c-2.359376.828125-4.882813 1.28125-7.5 1.28125-2.617188 0-5.140626-.453125-7.5-1.273438v16.328126zm0 0" fill="#aec1ed"/><path d="m389.960938 352c-13.03125 0-23.867188-10.605469-24.152344-23.640625l.007812-.925781c.261719-19.699219 7.675782-38.589844 20.886719-53.203125.828125-.921875 2.015625-1.445313 3.257813-1.445313 1.242187 0 2.429687.523438 3.261718 1.445313 13.210938 14.605469 20.625 33.433593 20.878906 53.019531l.015626.953125c-.289063 13.1875-11.125 23.796875-24.15625 23.796875zm0 0" fill="#ffaf10"/><path d="m383 328.359375.007812-.925781c.222657-16.859375 5.699219-33.117188 15.550782-46.617188-1.660156-2.273437-3.429688-4.476562-5.335938-6.585937-.835937-.917969-2.019531-1.445313-3.261718-1.445313-1.242188 0-2.429688.527344-3.261719 1.445313-13.207031 14.613281-20.625 33.503906-20.882813 53.203125l-.007812.925781c.285156 13.035156 11.121094 23.640625 24.152344 23.640625 3.019531 0 5.914062-.574219 8.59375-1.613281-8.886719-3.4375-15.335938-12.011719-15.554688-22.027344zm0 0" fill="#ef9614"/><path d="m471 484.5c0 2.75-2.25 5-5 5h-442c-2.75 0-5-2.25-5-5v-25c0-2.75 2.25-5 5-5h442c2.75 0 5 2.25 5 5zm0 0" fill="#b2762f"/><path d="m49 484.5v-25c0-2.75 2.25-5 5-5h-30c-2.75 0-5 2.25-5 5v25c0 2.75 2.25 5 5 5h30c-2.75 0-5-2.25-5-5zm0 0" fill="#a5683f"/><path d="m351.910156 365.054688c-5.5 0-10 4.5-10 10v27.847656c0 5.5 4.5 10 10 10h2.777344c5.5 0 10-4.5 10-10v-5.824219c0-5.5 4.5-10 10-10h9.441406c5.5 0 10 4.5 10 10v28.609375c0 5.5 4.5 10 10 10h23.882813c5.5 0 10-4.5 10-10v-50.632812c0-5.5-4.5-10-10-10zm0 0" fill="#d9eafc"/><path d="m356 402.902344v-27.847656c0-5.5 4.5-10 10-10h-14.089844c-5.5 0-10 4.5-10 10v27.847656c0 5.5 4.5 10 10 10h2.777344c2.09375 0 4.042969-.65625 5.65625-1.769532-2.617188-1.808593-4.34375-4.824218-4.34375-8.230468zm0 0" fill="#c3ddf4"/></svg>