<svg height="512pt" viewBox="-11 0 512 512.002" width="512pt" xmlns="http://www.w3.org/2000/svg"><path d="m490 267.003906c0 135.308594-109.6875 245-245 245-135.308594 0-245-109.691406-245-245 0-135.3125 109.691406-245 245-245 135.3125 0 245 109.6875 245 245zm0 0" fill="#1a2b63"/><path d="m367.648438 304.113281h5.457031c18.277343-20.355469 29.621093-47.054687 30.28125-76.34375-10.628907 4.246094-18.398438 14.128907-19.609375 25.953125h-16.128906c-13.917969 0-25.195313 11.285156-25.195313 25.199219-.003906 13.914063 11.277344 25.191406 25.195313 25.191406zm0 0" fill="#2e4c89"/><path d="m480.148438 198.054688c-5.960938.054687-11.671876 1.148437-16.960938 3.105468l5.230469 5.230469c.375.375.582031.878906.582031 1.414063 0 .539062-.207031 1.039062-.582031 1.414062l-9.199219 9.199219c-.375.375-.875.582031-1.414062.582031-.535157 0-1.039063-.207031-1.414063-.582031l-8.367187-8.367188c-6.621094 5.644531-11.757813 12.96875-14.75 21.320313-4.757813-3.394532-10.5-5.480469-16.710938-5.777344 2.949219 12.875 4.4375 26.082031 4.4375 39.410156 0 13.4375-1.519531 26.527344-4.386719 39.109375h70.59375c1.839844-12.101562 2.792969-24.496093 2.792969-37.109375 0-23.945312-3.449219-47.078125-9.851562-68.949218zm0 0" fill="#2e4c89"/><path d="m270 208.921875c0-13.914063-11.277344-25.195313-25.195312-25.195313h-16.128907c-1.621093-15.835937-15-28.191406-31.265625-28.191406-3.265625 0-6.410156.511719-9.371094 1.4375-13.582031 19.277344-21.570312 42.765625-21.570312 68.085938 0 3.046875.113281 6.066406.339844 9.058594h77.996094c13.917968-.003907 25.195312-11.28125 25.195312-25.195313zm0 0" fill="#445ea0"/><path d="m134.503906 128.121094c-.886718-.046875-1.773437-.078125-2.671875-.078125-8.722656 0-16.925781 2.226562-24.078125 6.132812-9.175781-16.347656-25.433594-28.179687-44.617187-31.332031-32.308594 35.769531-54.203125 81.117188-60.933594 131.269531h69.515625c7.5625-42.550781 30.476562-79.859375 62.785156-105.992187zm0 0" fill="#445ea0"/><path d="m309.828125 174.34375c-1.148437 0-2.144531-.796875-2.398437-1.917969-1.980469-8.769531-3.089844-9.875-11.859376-11.855469-1.121093-.253906-1.914062-1.25-1.914062-2.394531 0-1.152343.796875-2.148437 1.914062-2.398437 8.773438-1.980469 9.878907-3.089844 11.859376-11.859375.253906-1.121094 1.25-1.917969 2.398437-1.914063 1.148437-.003906 2.144531.792969 2.394531 1.914063 1.984375 8.769531 3.089844 9.875 11.859375 11.855469 1.117188.253906 1.914063 1.246093 1.917969 2.402343-.003906 1.144531-.800781 2.140625-1.917969 2.394531-8.769531 1.980469-9.878906 3.089844-11.859375 11.855469-.25 1.121094-1.246094 1.917969-2.394531 1.917969zm0 0" fill="#fff"/><path d="m242.828125 38.339844c-1.359375 0-2.542969-.941406-2.84375-2.269532-2.347656-10.394531-3.660156-11.710937-14.058594-14.058593-1.328125-.300781-2.269531-1.480469-2.269531-2.839844 0-1.363281.941406-2.542969 2.269531-2.84375 10.394531-2.347656 11.710938-3.660156 14.058594-14.058594.300781-1.328125 1.484375-2.27343725 2.84375-2.269531 1.359375-.00390625 2.539063.941406 2.839844 2.269531 2.351562 10.398438 3.664062 11.710938 14.058593 14.058594 1.328126.300781 2.269532 1.476563 2.273438 2.84375-.003906 1.359375-.945312 2.539063-2.273438 2.839844-10.394531 2.347656-11.710937 3.664062-14.058593 14.054687-.300781 1.332032-1.476563 2.273438-2.839844 2.273438zm0 0" fill="#ffaf10"/><path d="m399.171875 178.34375c-1.5 0-2.804687-1.042969-3.140625-2.507812-2.59375-11.480469-4.042969-12.933594-15.523438-15.527344-1.46875-.332032-2.507812-1.632813-2.507812-3.132813 0-1.507812 1.042969-2.8125 2.507812-3.140625 11.480469-2.59375 12.929688-4.046875 15.523438-15.527344.332031-1.464843 1.640625-2.507812 3.140625-2.503906 1.503906-.003906 2.808594 1.039063 3.136719 2.503906 2.597656 11.480469 4.046875 12.933594 15.527344 15.523438 1.464843.332031 2.503906 1.632812 2.511718 3.144531-.007812 1.5-1.046875 2.804688-2.511718 3.132813-11.480469 2.59375-12.933594 4.046875-15.527344 15.523437-.328125 1.46875-1.632813 2.511719-3.136719 2.511719zm0 0" fill="#ffdd8d"/><g fill="#ffd00d"><path d="m355.171875 83.003906c-1.855469 0-3.46875-1.289062-3.878906-3.101562-3.207031-14.191406-5-15.988282-19.191407-19.191406-1.816406-.414063-3.101562-2.023438-3.101562-3.878907 0-1.863281 1.289062-3.476562 3.101562-3.882812 14.191407-3.203125 15.984376-5 19.191407-19.191407.410156-1.816406 2.023437-3.105468 3.878906-3.101562 1.859375-.003906 3.472656 1.285156 3.878906 3.101562 3.210938 14.191407 5 15.984376 19.195313 19.191407 1.8125.410156 3.101562 2.015625 3.105468 3.882812-.007812 1.855469-1.292968 3.46875-3.105468 3.878907-14.195313 3.203124-15.988282 5-19.195313 19.1875-.40625 1.816406-2.019531 3.105468-3.878906 3.105468zm0 0"/><path d="m342.714844 327.316406c18.394531 10.746094 30.785156 30.691406 30.785156 53.484375 0 2.054688-.109375 4.101563-.3125 6.132813 30.234375-31.769532 48.8125-74.71875 48.8125-121.929688 0-17.722656-2.617188-35.230468-7.777344-52.039062-.824218-2.667969-3.285156-4.429688-5.988281-4.429688-.390625 0-.789063.039063-1.183594.117188-3.144531.605468-5.324219 3.476562-5.0625 6.664062.292969 3.574219.433594 6.765625.433594 9.742188 0 43.792968-24.085937 82.058594-59.707031 102.257812zm0 0"/><path d="m131.386719 400.609375h5.292969l.09375-.894531c1.59375-15.5625 14.605468-27.292969 30.265624-27.292969 6.367188 0 12.472657 1.953125 17.652344 5.652344l1.078125.769531.445313-1.246094c7-19.539062 25.644531-32.667968 46.40625-32.667968 8.242187 0 16.402344 2.078124 23.597656 6.011718l.867188.472656.484374-.863281c1.976563-3.519531 4.273438-6.800781 6.839844-9.8125-55.023437-9.738281-96.941406-57.902343-96.941406-115.679687 0-64.777344 52.695312-117.476563 117.476562-117.476563 2.976563 0 6.164063.144531 9.742188.433594.171875.015625.34375.023437.515625.023437 2.976563 0 5.578125-2.113281 6.148437-5.085937.605469-3.140625-1.253906-6.230469-4.3125-7.171875-16.808593-5.164062-34.320312-7.777344-52.039062-7.777344-97.597656 0-177 79.398438-177 177 0 54.386719 24.664062 103.113282 63.386719 135.605469zm0 0"/></g><path d="m131.386719 400.609375h5.292969l.09375-.894531c.636718-6.210938 3.09375-11.804688 6.808593-16.292969-28.316406-31.386719-45.582031-72.917969-45.582031-118.417969 0-92.558594 71.414062-168.738281 162.03125-176.363281-4.984375-.417969-10-.636719-15.03125-.636719-97.597656 0-177 79.398438-177 177 0 54.386719 24.664062 103.113282 63.386719 135.605469zm0 0" fill="#ffaf10"/><path d="m119.648438 399.609375h16.128906c1.621094-15.832031 15-28.1875 31.261718-28.1875 6.800782 0 13.089844 2.167969 18.234376 5.839844 6.957031-19.429688 25.527343-33.332031 47.347656-33.332031 8.722656 0 16.925781 2.226562 24.078125 6.132812 10.773437-19.195312 31.3125-32.171875 54.890625-32.171875 34.742187 0 62.910156 28.167969 62.910156 62.910156 0 6.554688-1.003906 12.875-2.863281 18.8125h5.171875c13.914062 0 25.195312 11.28125 25.195312 25.195313-.003906 13.914062-11.28125 25.195312-25.199218 25.195312h-257.15625c-13.917969 0-25.195313-11.28125-25.195313-25.195312-.003906-13.914063 11.277344-25.199219 25.195313-25.199219zm0 0" fill="#445ea0"/><path d="m110 434.921875c0-11.136719 9.0625-20.195313 20.195312-20.195313h16.132813c2.5625 0 4.710937-1.941406 4.972656-4.492187 1.382813-13.511719 12.6875-23.699219 26.289063-23.699219 5.527344 0 10.828125 1.695313 15.328125 4.910156.859375.609376 1.875.929688 2.90625.929688.5 0 1.003906-.074219 1.492187-.230469 1.496094-.46875 2.6875-1.609375 3.214844-3.085937 6.429688-17.953125 23.5625-30.015625 42.640625-30.015625 7.570313 0 15.070313 1.910156 21.679687 5.519531.761719.417969 1.582032.613281 2.394532.613281 1.75 0 3.445312-.917969 4.363281-2.554687 10.253906-18.269532 29.617187-29.617188 50.527344-29.617188 20.417969 0 38.390625 10.628906 48.707031 26.640625-8.691406-24.335937-31.9375-41.753906-59.257812-41.753906-23.578126 0-44.113282 12.976563-54.886719 32.171875-7.152344-3.90625-15.355469-6.132812-24.078125-6.132812-21.820313 0-40.390625 13.902343-47.347656 33.332031-5.144532-3.671875-11.433594-5.839844-18.234376-5.839844-16.261718 0-29.640624 12.355469-31.261718 28.1875h-16.132813c-13.914062 0-25.195312 11.285156-25.195312 25.199219 0 12.882812 9.675781 23.5 22.152343 25.003906-4.042968-3.695312-6.601562-8.996094-6.601562-14.890625zm0 0" fill="#2e4c89"/><path d="m146.316406 81.519531c-1.164062 1.164063-3.074218 1.164063-4.242187 0l-9.199219-9.199219c-1.164062-1.167968-1.164062-3.078124 0-4.242187l9.199219-9.199219c1.167969-1.167968 3.078125-1.167968 4.242187 0l9.199219 9.199219c1.167969 1.164063 1.167969 3.074219 0 4.242187zm0 0" fill="#ffaf10"/><path d="m53.316406 203.128906c-1.164062 1.164063-3.074218 1.164063-4.242187 0l-9.199219-9.199218c-1.164062-1.167969-1.164062-3.078126 0-4.242188l9.199219-9.199219c1.167969-1.167969 3.078125-1.167969 4.242187 0l9.199219 9.199219c1.167969 1.164062 1.167969 3.074219 0 4.242188zm0 0" fill="#fff"/><path d="m459.925781 219.128906c-1.164062 1.164063-3.074219 1.164063-4.242187 0l-9.199219-9.199218c-1.164063-1.167969-1.164063-3.078126 0-4.242188l9.199219-9.199219c1.167968-1.167969 3.078125-1.167969 4.242187 0l9.199219 9.199219c1.167969 1.164062 1.167969 3.074219 0 4.242188zm0 0" fill="#ffaf10"/></svg>