<svg id="Layer_1" enable-background="new 0 0 512 512" height="512" viewBox="0 0 512 512" width="512" xmlns="http://www.w3.org/2000/svg"><g><path d="m435.292 433.946c40.758-43.753 65.706-102.431 65.706-166.944 0-135.309-109.689-244.998-244.998-244.998s-244.998 109.69-244.998 244.998c0 64.513 24.948 123.19 65.706 166.944z" fill="#aa67c6"/><path d="m325.53 501.974c21.843-6.453 42.414-15.864 61.25-27.778 18.914-99.243 58.712-308.057 61.307-321.676.153-.804.067-1.635-.249-2.391l-44.26-105.992c-.649-1.554-2.168-2.566-3.852-2.566h-50.445l40.931 98.02c1.936 4.638 2.503 9.859 1.547 14.876z" fill="#422953"/><path d="m386.779 474.197c9.785-51.338 25.157-131.996 38.077-199.788-3.233-1.36-5.075-4.196-6.055-6.384-.716-1.6-2.426-2.533-4.145-2.19-22.974 4.582-32.221-9.904-35.578-18.265-.773-1.924-2.863-2.758-4.652-2.156l-48.897 256.56c21.844-6.453 42.415-15.864 61.25-27.777z" fill="#30144a"/><path d="m490.33 146.728-42.223 4.402c.068.46.068.93-.02 1.391l-.35 1.835-60.957 319.841c18.641-11.791 35.586-26.019 50.374-42.251l52.883-277.477c.488-2.565.579-5.173.293-7.741z" fill="#543e5b"/><path d="m460.934 290.772c-18.109 4.267-24.431-7.335-26.429-13.193-.562-1.648-2.209-2.678-3.938-2.47-2.271.273-4.15-.044-5.71-.7l-38.077 199.788c18.641-11.791 35.586-26.019 50.374-42.251l26.789-140.564c-.846-.605-1.928-.865-3.009-.61z" fill="#422953"/><path d="m412.891 0h-98.277c5.312 0 10.342 1.643 14.554 4.5l.015-.023c.42.284 1.841 1.354 2.54 1.965l-.005.007c2.928 2.56 5.309 5.782 6.871 9.522l10.691 25.602h50.445c1.684 0 3.203 1.012 3.852 2.566l.329.788 26.093-38.484c-4.642-4.065-10.679-6.443-17.108-6.443z" fill="#543e5b"/><path d="m488.49 139.593-51.622-123.622c-1.993-4.771-5.306-8.716-9.407-11.494l-25.49 37.756c.702.449 1.272 1.102 1.607 1.905l44.26 105.992c.134.321.218.658.268.999l42.223-4.402c-.271-2.44-.883-4.843-1.839-7.134z" fill="#665364"/><path d="m396.882 467.454 59.712-313.31c.473-2.48.209-5.023-.765-7.353l.001.002-44.26-105.992c-2.002-4.792-6.651-7.889-11.844-7.889h-54.062l7.233 17.322h43.84l42.589 101.99-62.502 327.946c6.902-3.921 13.595-8.165 20.058-12.716z" fill="#7c6b7b"/><path d="m433.379 275.953c-.763-.638-1.771-.969-2.813-.843-6.979.84-10.312-3.841-11.764-7.085-.282-.63-.722-1.152-1.253-1.538l-40.725 213.683c6.902-3.921 13.595-8.165 20.057-12.716z" fill="#543e5b"/><path d="m352.139 151.13c.068.46.068.93-.02 1.391l-.35 1.835-67.859 356.052c15.151-1.719 29.884-4.809 44.068-9.162l66.09-346.777c.488-2.564.579-5.173.293-7.74z" fill="#ffdd40"/><path d="m64.264 154.356-.35-1.835c-.088-.462-.088-.931-.02-1.391l-42.223-4.402c-.286 2.567-.195 5.176.293 7.74l52.883 277.477c14.788 16.232 31.733 30.46 50.374 42.251z" fill="#ffb332"/><path d="m99.113 0c-6.891 0-13.327 2.735-18.083 7.349l26.136 39.809 1.261-3.02c.649-1.554 2.168-2.566 3.852-2.566h191.481c1.684 0 3.203 1.012 3.852 2.566l.329.788 26.093-38.484c-4.645-4.064-10.682-6.442-17.111-6.442z" fill="#ffc839"/><path d="m176.538 0h-77.425c-6.891 0-13.327 2.735-18.083 7.349l26.136 39.809 1.261-3.02c.649-1.554 2.168-2.566 3.852-2.566h68.341c-.319-2.14.2-4.081.886-5.58.867-1.896.286-4.147-1.308-5.491-13.013-10.97-6.102-25.834-4.027-29.604.156-.285.275-.587.367-.897z" fill="#ffb332"/><path d="m392.522 139.593-51.622-123.622c-1.993-4.771-5.306-8.716-9.407-11.494l-25.489 37.756c.702.449 1.272 1.102 1.607 1.905l44.26 105.992c.134.321.218.658.268.999l42.224-4.402c-.273-2.44-.885-4.843-1.841-7.134z" fill="#ffdd40"/><path d="m23.511 139.593 51.622-123.622c1.993-4.771 5.306-8.716 9.407-11.494l25.489 37.756c-.702.449-1.272 1.102-1.607 1.905l-44.26 105.992c-.134.321-.218.658-.268.999l-42.223-4.402c.272-2.44.883-4.843 1.84-7.134z" fill="#ff9100"/><path d="m307.611 44.138c-.649-1.554-2.168-2.566-3.852-2.566h-191.481c-1.684 0-3.203 1.012-3.852 2.566l-44.26 105.993c-.315.755-.401 1.586-.249 2.39l61.308 321.679c37.843 23.934 82.687 37.8 130.775 37.8 9.439 0 18.749-.553 27.91-1.592l67.858-356.052.35-1.835c.153-.804.067-1.635-.249-2.391z" fill="#e1715a"/><path d="m108.426 44.138-44.26 105.993c-.315.755-.401 1.586-.249 2.39l61.308 321.679c25.577 16.177 54.355 27.746 85.169 33.551-14.364-17.273-5.607-35.224-3.023-39.692.421-.728.647-1.549.647-2.389v-77.11c0-1.167-.428-2.302-1.217-3.163-14.763-16.11-4.255-32.003-.686-36.498.68-.856 1.051-1.917 1.027-3.01l-5.24-241.518c-.035-1.616-.901-3.097-2.28-3.94-25.638-15.669-18.119-38.37-14.073-46.843.896-1.877.462-4.128-1.085-5.517-2.462-2.21-3.539-4.446-3.846-6.498h-68.341c-1.683 0-3.202 1.011-3.851 2.565z" fill="#c15655"/><path d="m265.102 165.98h-34.166c-3.079 0-5.575-2.496-5.575-5.575v-41.981c0-9.338-7.177-17.373-16.504-17.812-9.959-.468-18.18 7.467-18.18 17.323v42.47c0 3.079-2.496 5.575-5.575 5.575h-34.166c-9.338 0-17.373 7.177-17.812 16.504-.468 9.959 7.467 18.18 17.323 18.18h34.656c3.079 0 5.575 2.496 5.575 5.575v123.593c0 9.338 7.177 17.373 16.504 17.812 9.959.469 18.18-7.467 18.18-17.322v-124.083c0-3.079 2.496-5.575 5.575-5.575h34.656c9.856 0 17.791-8.221 17.322-18.18-.44-9.327-8.475-16.504-17.813-16.504z" fill="#ffdd40"/><g><path d="m214.285 403.99h-12.533c-4.783 0-8.661-3.878-8.661-8.661s3.878-8.661 8.661-8.661h12.533c4.783 0 8.661 3.878 8.661 8.661s-3.878 8.661-8.661 8.661z" fill="#f9a880"/></g><g><path d="m229.234 435.497h-42.431c-4.783 0-8.661-3.878-8.661-8.661s3.878-8.661 8.661-8.661h42.431c4.783 0 8.661 3.878 8.661 8.661 0 4.784-3.878 8.661-8.661 8.661z" fill="#f1935d"/></g><g><path d="m229.234 467.005h-42.431c-4.783 0-8.661-3.878-8.661-8.661s3.878-8.661 8.661-8.661h42.431c4.783 0 8.661 3.878 8.661 8.661s-3.878 8.661-8.661 8.661z" fill="#f1935d"/></g><path d="m359.863 146.793-44.26-105.992c-2.002-4.792-6.651-7.889-11.844-7.889h-191.481c-5.193 0-9.842 3.097-11.844 7.889l-44.26 105.994c-.972 2.326-1.236 4.867-.764 7.348l59.714 313.315c6.463 4.55 13.156 8.795 20.057 12.715l-62.504-327.949 42.589-101.99h185.504l42.589 101.99-68.431 359.055c6.073-.464 12.083-1.153 18.025-2.051l67.324-353.248c.082-1.005 1.485-4.643-.415-9.189z" fill="#f1935d"/><path d="m181.505 35.993c.453-.991.503-2.076.227-3.081h-69.454c-5.193 0-9.842 3.097-11.844 7.889l-44.26 105.994c-.972 2.327-1.236 4.867-.764 7.348l59.714 313.315c6.463 4.55 13.156 8.795 20.057 12.715l-62.504-327.949 42.589-101.99h70.542c-.237-.813-.682-1.568-1.344-2.163-5.028-4.515-4.302-9.143-2.959-12.078z" fill="#e1715a"/><path d="m230.935 165.98c-3.079 0-5.575-2.496-5.575-5.575v-41.981c0-9.338-7.176-17.373-16.504-17.812-9.959-.468-18.18 7.467-18.18 17.323v42.47c0 3.079-2.496 5.575-5.575 5.575h-34.167c-9.338 0-17.373 7.177-17.812 16.505-.469 9.959 7.466 18.18 17.322 18.18h34.656c3.079 0 5.575 2.496 5.575 5.575v123.593c0 9.338 7.177 17.373 16.505 17.812 9.959.469 18.18-7.466 18.18-17.322v-124.084c0-3.079 2.496-5.575 5.575-5.575-17.332-17.332 0-34.684 0-34.684z" fill="#ffb332"/></g></svg>