<svg id="Layer_1" enable-background="new 0 0 512 512" height="512" viewBox="0 0 512 512" width="512" xmlns="http://www.w3.org/2000/svg"><g><path d="m256 22.004c-135.309 0-244.998 109.689-244.998 244.998 0 92.115 50.846 172.342 125.994 214.185 6.556-4.163 14.329-6.582 22.671-6.582h192.666c8.342 0 16.115 2.419 22.671 6.582 75.148-41.843 125.994-122.07 125.994-214.185 0-135.309-109.689-244.998-244.998-244.998z" fill="#c15655"/><path d="m283.273 106.577c20.539 7.839 36.898 24.186 44.755 44.717h34.947c-10.015-38.944-40.749-69.662-79.701-79.655v34.938z" fill="#fceca9"/><path d="m183.542 151.294c7.911-20.675 24.442-37.114 45.184-44.887v-34.873c-39.155 9.877-70.079 40.673-80.131 79.76z" fill="#fceca9"/><path d="m202.22 123.167c-3.886-1.975-4.859-5.466-4.964-8.133-.074-1.862-1.571-3.309-3.433-3.386-9.604-.399-10.501-9.246-10.298-13.93.034-.769-.19-1.493-.588-2.099-16.518 14.475-28.708 33.772-34.341 55.676h34.947c4.104-10.729 10.546-20.3 18.677-28.128z" fill="#ffdd40"/><path d="m328.246 205.84c-7.771 20.792-24.248 37.361-44.973 45.27v34.938c39.136-10.04 69.971-41.003 79.836-80.208z" fill="#fceca9"/><path d="m336.442 251.963c-11.896 1.119-13.696-6.416-13.661-11.231.014-1.911-1.508-3.483-3.419-3.516-4.609-.08-7.124-1.968-8.485-4.186-7.732 7.858-17.122 14.08-27.604 18.081v34.938c21.631-5.549 40.716-17.499 55.136-33.691-.591-.309-1.267-.461-1.967-.395z" fill="#ffdd40"/><path d="m228.727 251.28c-20.928-7.843-37.577-24.504-45.403-45.44h-34.863c9.901 39.348 40.926 70.39 80.266 80.313z" fill="#ffdd40"/><path d="m182.598 148.736-1.057 2.558h15.965c2.415 0 4.378 1.964 4.378 4.378 0 4.457 3.625 8.081 8.081 8.081h18.35l.539-.904c2.763-4.643 6.705-8.518 11.401-11.205l.932-.533v-18.58c0-4.457-3.625-8.081-8.081-8.081-2.414 0-4.379-1.964-4.379-4.378v-15.661c-.891.58-31.943 9.965-46.129 44.325z" fill="#ffb332"/><path d="m236.912 153.854-.262-.287c-.634-.695-1.526-1.081-2.466-1.115-20.869-.754-23.896-17.544-24.242-24.634-.082-1.691-1.382-3.082-3.062-3.299-2.814-.363-4.82-1.238-6.254-2.366-6.722 6.498-13.309 15.152-18.028 26.584l-1.057 2.558h15.964c2.415 0 4.378 1.964 4.378 4.378 0 4.456 3.626 8.081 8.081 8.081h18.349l.539-.904c2.081-3.494 4.828-6.551 8.06-8.996z" fill="#ff9100"/><path d="m278.894 124.451c-4.456 0-8.081 3.625-8.081 8.081v18.809l.908.539c4.512 2.673 8.315 6.466 10.996 10.97l.538.904h18.78c4.456 0 8.082-3.625 8.082-8.081 0-2.415 1.964-4.378 4.379-4.378h15.535c-.572-.869-10.131-31.631-44.199-45.665l-2.557-1.053v15.497c-.002 2.413-1.967 4.377-4.381 4.377z" fill="#ffb332"/><path d="m329.213 208.385 1.027-2.545h-15.746c-2.414 0-4.379-1.965-4.379-4.379 0-4.456-3.626-8.081-8.082-8.081h-18.484l-.533.935c-2.699 4.741-6.605 8.714-11.296 11.493l-.908.539v18.253c0 4.457 3.626 8.081 8.082 8.081 2.415 0 4.378 1.965 4.378 4.38v16.05c.846-.556 32.012-10.231 45.941-44.726z" fill="#ffb332"/><path d="m278.895 232.682c2.415 0 4.378 1.965 4.378 4.38v16.05c.573-.378 15.101-4.964 28.734-18.638-1.598-1.642-2.272-3.735-2.535-5.457-.273-1.788-1.865-3.076-3.673-3.086-21.395-.117-24.956-18.745-25.518-23.51-.086-.736-.396-1.424-.895-1.972l-.473-.519c-2.091 2.294-4.508 4.286-7.194 5.877l-.907.539v18.254c0 4.457 3.626 8.082 8.083 8.082z" fill="#ff9100"/><path d="m226.18 252.244 2.547 1.031v-16.213c0-2.415 1.964-4.38 4.379-4.38 4.456 0 8.081-3.625 8.081-8.081v-18.025l-.932-.533c-4.876-2.791-8.923-6.846-11.702-11.728l-.532-.935h-18.055c-4.456 0-8.081 3.626-8.081 8.083 0 2.415-1.964 4.378-4.378 4.378h-16.177c.566.868 10.063 32.323 44.85 46.403z" fill="#ff9100"/><g><path d="m256 267.6c-49.093 0-89.033-39.94-89.033-89.033s39.94-89.033 89.033-89.033 89.033 39.94 89.033 89.033-39.94 89.033-89.033 89.033zm0-160.509c-39.412 0-71.476 32.064-71.476 71.476s32.064 71.476 71.476 71.476 71.476-32.064 71.476-71.476-32.064-71.476-71.476-71.476z" fill="#ffdd40"/></g><path d="m321.887 238.387c-.623-.699-1.516-1.153-2.525-1.171-7.36-.128-9.381-4.865-9.89-8.199-.118-.773-.493-1.443-1.015-1.967-13.066 14.127-31.742 22.993-52.457 22.993-39.412 0-71.476-32.064-71.476-71.476 0-21.206 9.292-40.275 24.008-53.376-.473-.352-1.036-.592-1.651-.672-7.851-1.013-9.486-5.968-9.625-9.486-.037-.936-.435-1.766-1.056-2.371-17.946 16.299-29.232 39.808-29.232 65.904 0 49.093 39.94 89.033 89.033 89.033 26.086.001 49.588-11.277 65.886-29.212z" fill="#ffc839"/><g><path d="m339.629 476.073v-12.721c0-14.109-11.436-25.545-25.545-25.545h-116.168c-14.109 0-25.545 11.436-25.545 25.545v12.721z" fill="#543e5b"/></g><path d="m322.25 439.148c-2.565-.865-5.309-1.341-8.166-1.341h-116.168c-14.109 0-25.545 11.436-25.545 25.545v12.721h132.5v-12.721c0-11.252 7.277-20.796 17.379-24.204z" fill="#422953"/><path d="m224.461 178.844c0-6.24 1.841-12.053 4.998-16.941h-19.493c-3.44 0-6.23-2.789-6.23-6.23s-2.79-6.23-6.23-6.23h-111.176c-4.913 0-8.896 3.983-8.896 8.896v40.457c0 4.913 3.983 8.896 8.896 8.896h111.176c3.44 0 6.23-2.789 6.23-6.23v-.001c0-3.44 2.789-6.23 6.23-6.23h19.138c-2.942-4.771-4.643-10.383-4.643-16.387z" fill="#ffb332"/><path d="m233.105 126.303c3.44 0 6.23 2.79 6.23 6.23v19.67c4.785-2.965 10.419-4.682 16.45-4.682 6.213 0 12.003 1.826 16.879 4.958v-19.946c0-3.44 2.789-6.23 6.23-6.23h.001c3.44 0 6.23-2.789 6.23-6.23v-111.177c0-4.914-3.983-8.896-8.896-8.896h-40.457c-4.913 0-8.896 3.983-8.896 8.896v111.176c-.001 3.441 2.789 6.231 6.229 6.231z" fill="#ffc839"/><path d="m425.67 149.442h-111.176c-3.441 0-6.23 2.789-6.23 6.23 0 3.44-2.789 6.23-6.23 6.23h-19.924c3.156 4.888 4.997 10.702 4.997 16.941 0 6.004-1.701 11.616-4.642 16.387h19.568c3.441 0 6.23 2.789 6.23 6.23v.001c0 3.44 2.789 6.23 6.23 6.23h111.177c4.913 0 8.896-3.983 8.896-8.896v-40.457c.001-4.913-3.982-8.896-8.896-8.896z" fill="#ffc839"/><path d="m285.125 476.073v-239.012c0-3.441-2.789-6.23-6.23-6.23h-.001c-3.44 0-6.23-2.79-6.23-6.23v-19.391c-4.875 3.132-10.666 4.958-16.879 4.958-6.03 0-11.665-1.717-16.45-4.682v19.114c0 3.441-2.789 6.23-6.23 6.23s-6.23 2.789-6.23 6.23v239.012h58.25z" fill="#ffb332"/><path d="m285.124 400.88c-1.214-.373-2.585-.221-3.723.584-5.918 4.191-11.164 1.572-14.17-.852-1.56-1.257-3.757-1.295-5.338-.065-5.216 4.059-9.81 1.918-12.469-.186-1.506-1.192-3.624-1.159-5.163-.011-5.944 4.432-10.727 3.082-13.761 1.074-1.124-.744-2.454-.841-3.625-.44v75.09h58.249z" fill="#ff9100"/><g><path d="m406.072 187.622h-77.15c-4.848 0-8.778-3.93-8.778-8.778s3.93-8.778 8.778-8.778h77.15c4.848 0 8.778 3.93 8.778 8.778s-3.93 8.778-8.778 8.778z" fill="#ffdd40"/></g><g><path d="m182.647 187.622h-77.15c-4.848 0-8.778-3.93-8.778-8.778s3.93-8.778 8.778-8.778h77.15c4.848 0 8.778 3.93 8.778 8.778s-3.93 8.778-8.778 8.778z" fill="#ffdd40"/></g><g><path d="m255.785 114.485c-4.848 0-8.778-3.93-8.778-8.778v-77.15c0-4.849 3.93-8.778 8.778-8.778s8.778 3.93 8.778 8.778v77.15c0 4.848-3.93 8.778-8.778 8.778z" fill="#ffdd40"/></g><g><path d="m255.785 456.461c-4.848 0-8.778-3.93-8.778-8.778v-195.701c0-4.849 3.93-8.778 8.778-8.778s8.778 3.93 8.778 8.778v195.701c0 4.848-3.93 8.778-8.778 8.778z" fill="#ffdd40"/></g><path d="m255.785 456.461c4.848 0 8.778-3.929 8.778-8.778v-48.035c-.939-.011-1.881.286-2.669.9-5.216 4.059-9.81 1.918-12.469-.186-.711-.563-1.559-.843-2.418-.871v48.192c-.001 4.848 3.93 8.778 8.778 8.778z" fill="#ffb332"/><ellipse cx="255.785" cy="178.844" fill="#ffdd40" rx="33.175" ry="33.175" transform="matrix(.707 -.707 .707 .707 -51.544 233.249)"/><circle cx="263.594" cy="172.506" fill="#fceca9" r="16.587"/><path d="m159.667 473.605c-8.696 0-16.777 2.624-23.503 7.117 35.43 19.909 76.302 31.278 119.836 31.278s84.406-11.369 119.836-31.278c-6.726-4.493-14.807-7.117-23.503-7.117z" fill="#665364"/><path d="m159.667 473.605c-8.696 0-16.778 2.624-23.503 7.117 29.041 16.319 61.739 26.894 96.562 30.18.506-32.772 23.274-37.297 23.274-37.297z" fill="#543e5b"/><g fill="#e1715a"><path d="m196.451 354.788c0-51.333-24.75-40.26-47.991-73.667-23.24-33.406-33.259-37.917-81.259-37.917-29.757 0-41.896-24.732-46.827-43.534-6.102 21.393-9.372 43.981-9.372 67.332 0 77.065 35.594 145.803 91.227 190.711 19.717-4.261 46.232-11.773 46.232-44.926 0-19.999 47.99-16.666 47.99-57.999z"/><path d="m315.549 354.788c0-51.333 24.75-40.26 47.99-73.667 23.24-33.406 33.26-37.917 81.26-37.917 29.757 0 41.896-24.732 46.827-43.534 6.102 21.393 9.372 43.981 9.372 67.332 0 77.065-35.594 145.803-91.227 190.711-19.717-4.261-46.232-11.773-46.232-44.926 0-19.999-47.99-16.666-47.99-57.999z"/></g></g></svg>