<svg id="Layer_1" enable-background="new 0 0 512 512" height="512" viewBox="0 0 512 512" width="512" xmlns="http://www.w3.org/2000/svg"><g><path d="m460.615 401.766c25.516-38.663 40.383-84.974 40.383-134.764 0-135.309-109.689-244.997-244.997-244.997s-244.999 109.688-244.999 244.997c0 41.41 10.289 80.411 28.426 114.612z" fill="#aa67c6"/><path d="m220.317 283.476c15.119 14.012 47.457 38.732 89.378 41.04 1.382.076 2.627.573 3.64 1.344l.328-.527c-26.22-40.121-96.982-44.358-96.982-44.358v.8c1.284.161 2.554.698 3.636 1.701z" fill="#bec8f7"/><path d="m189.992 350.636c-4.837 5.142-12.414 6.595-18.744 3.471-26.025-12.845-57.789-8.776-79.767 11.129-3.989 3.612-9.438 5.06-14.676 3.829-14.091-3.312-28.48 1.561-37.918 11.523 12.624 24.079 29.126 45.803 48.693 64.331 1.4-.678 2.716-1.555 3.902-2.629 21.978-19.906 53.742-23.975 79.767-11.129 6.33 3.124 13.907 1.67 18.744-3.471.942-1.001 1.907-1.969 2.89-2.907v-1.985c.97-8.618 1.668-16.4 2.078-23.181 2.847-47.046 14.588-54.322 15.683-56.542-.298-.338-3.479-3.848-4.59-5.355-5.793 3.469-11.213 7.762-16.062 12.916z" fill="#70361c"/><path d="m413.173 369.068c-5.227 1.232-10.667-.216-14.647-3.822-21.952-19.884-53.722-24.004-79.781-11.139-2.852 1.409-5.957 1.878-8.951 1.507l-5.138 27.282c-.953 5.059-6.538 4.077-6.916 4.182 2.347 8.114 4.318 15.547 1.148 24.164-1.27 3.454-1.957 7.245-2.051 11.307l-.34 1.676c1.195 1.114 2.371 2.258 3.506 3.465 4.837 5.14 12.413 6.596 18.741 3.472 26.059-12.865 57.829-8.745 79.781 11.139 3.98 3.605 9.42 5.054 14.647 3.821 3.68-.868 7.38-1.173 11.007-.979 14.025-13.246 26.481-28.131 37.073-44.346-3.88-22.487-26.328-36.857-48.079-31.729z" fill="#7f4223"/><g><path d="m300.004 427.69c2.981 3.168 7.004 4.931 11.133 5.09 4.032-2.698 6.732-7.118 7.061-12.171 1.888-29 21.341-54.454 49.537-63.523 3.27-1.052 6.069-3.065 8.071-5.722-18.333-6.921-39.059-6.144-57.061 2.743-2.852 1.409-5.957 1.878-8.951 1.507l-5.138 27.282c-.953 5.059-6.538 4.077-6.915 4.182 2.347 8.114 4.318 15.546 1.148 24.164-1.27 3.454-1.957 7.245-2.051 11.307l-.34 1.676c1.195 1.115 2.37 2.259 3.506 3.465z" fill="#70361c"/></g><g><path d="m381.953 129.476c-.894-2.577-1.716-5.275-2.481-8.009l-7.037 1.484c-4.206.889-8.423-1.656-9.6-5.793-2.204-7.662-.581-14.639 4.824-20.736.571-.644 1.156-1.241 1.741-1.797-5.932-4.032-14.66-3.467-19.548 3.273-5.621 7.751-9.05 19.31-4.989 36.338 0 0 .486 12.629-5.787 21.874-2.809 4.139-8.92 4.183-11.795.089-7.383-10.513-20.392-33.202-20.392-62.565 0-28.194-6.712-63.1-10.904-82.151-1.718-7.808-9.395-12.784-17.228-11.184-7.831 1.6-12.933 9.177-11.463 17.033 3.6 19.235 8.947 54.522 6.131 82.632-.263 2.628-3.82 3.226-4.963.867-.736 1.177-1.64 2.273-2.707 3.244-5.317 4.843-13.557 5.477-18.162.419l-18.48-20.289c-2.394-2.628-3.41-6.435-2.362-10.649-1.665 4.009-1.686 8.675.351 12.881 4.063 8.389 9.165 19.442 13.16 29.801.948 2.457-1.888 4.631-4.003 3.063-.299-.221-.607-.453-.922-.691.103 3.1-.962 6.211-3.016 8.776-4.298 5.369-11.589 6.697-16.252 2.962l-19.59-15.69c-.804-.644-1.469-1.403-2.012-2.235.458 1.324 1.138 2.594 2.068 3.743 5.066 6.255 11.853 14.88 17.41 22.81 1.523 2.173-.775 4.974-3.204 3.906-1.489-.654-3.085-1.358-4.698-2.073l16.72 13.39c4.663 3.735 4.959 11.14.661 16.507-4.474 5.587-11.813 6.516-16.252 2.962-7.796-6.254-19.405-15.503-20.094-16.141 2.72 3.852 15.26 9.952 20.211 29.137 5.341 20.696 10.964 41.674 20.461 55.515 3.548 5.171 5.018 11.481 4.096 17.685-1.052 7.078-2.742 17.326-5.28 29.911 15.628 13.134 42.066 30.706 75.194 34.816 2.196-23.865 5.089-44.752 7.069-57.733 1.269-8.318 6.269-15.547 13.495-19.858 25.385-15.141 38.163-36.055 42.961-45.554 1.403-2.777 2.349-5.749 2.909-8.81 2.389-13.054 7.903-26.591 12.482-36.301 3.973-8.423 4.33-18.06 1.277-26.859z" fill="#81c66d"/></g><path d="m341.479 232.656c-45.745 4.941-44.947-33.411-44.947-33.411-11.358 0-11-9.832-11-9.832-41.192 10.031-52.594-61.533-52.594-61.533l-.439-.732c-.061.079-.114.162-.176.24-4.298 5.369-11.589 6.697-16.252 2.962l-19.59-15.69c-.804-.644-1.469-1.403-2.012-2.235.458 1.324 1.138 2.594 2.068 3.743 5.066 6.255 11.853 14.879 17.41 22.81 1.523 2.173-.775 4.974-3.204 3.906-1.489-.654-3.085-1.358-4.697-2.073l16.72 13.391c4.663 3.735 4.96 11.14.661 16.507-4.474 5.587-11.813 6.516-16.252 2.962-7.796-6.254-19.405-15.503-20.094-16.141 2.72 3.852 15.26 9.952 20.211 29.137 5.341 20.695 10.964 41.674 20.46 55.515 3.548 5.171 5.019 11.481 4.096 17.685-1.052 7.078-2.742 17.326-5.28 29.912 15.627 13.134 42.066 30.706 75.194 34.815 2.196-23.865 5.089-44.752 7.069-57.733 1.269-8.317 6.269-15.547 13.495-19.857 7.427-4.434 13.767-9.36 19.153-14.348z" fill="#5aab5f"/><path d="m298.372 426.046c-.262-4.444.111-9.442 1.897-14.297 3.743-10.179.387-19.707-.804-24.008-.256-.006-.513-.022-.773-.058-16.013-2.252-59.255-11.281-89.66-44.997-10.442 12.083-14.071 32.574-15.54 56.843-.568 9.388-1.62 19.409-2.546 27.198 29.229-29.967 77.91-30.181 107.426-.681z" fill="#543e5b"/><path d="m243.198 402.104c-11.358-18.278 8.859-27.464 8.859-27.464-.468-.468-.904-.944-1.324-1.424-14.2-6.771-29.059-16.511-41.701-30.529-10.442 12.083-14.07 32.574-15.54 56.844-.568 9.387-1.62 19.409-2.546 27.198 14.526-14.894 33.858-22.431 53.255-22.631-.268-.673-.595-1.338-1.003-1.994z" fill="#422953"/><g><path d="m278.611 230.57c-.436 0-.878-.038-1.322-.12-3.994-.724-6.643-4.55-5.918-8.543 7.632-42.03 41.29-53.185 42.72-53.64 3.867-1.23 8.001.909 9.23 4.777 1.226 3.857-.898 7.978-4.746 9.221-1.191.395-26.749 9.262-32.742 42.268-.644 3.549-3.738 6.037-7.222 6.037z" fill="#5aab5f"/></g><path d="m256 512c66.061 0 126.007-26.155 170.07-68.664-4.227-.431-8.575-.193-12.897.826-5.227 1.232-10.667-.216-14.647-3.821-21.952-19.884-53.722-24.004-79.781-11.139-6.329 3.125-13.905 1.668-18.742-3.472-29.637-31.496-80.367-31.508-110.012 0-4.837 5.141-12.414 6.595-18.744 3.471-26.025-12.846-57.788-8.776-79.767 11.129-1.578 1.429-3.387 2.513-5.318 3.233 44.043 42.376 103.894 68.437 169.838 68.437z" fill="#b06428"/><g><path d="m305.82 435.103c3.049-.718 5.736-2.27 7.826-4.386-4.97.602-10.058-1.179-13.642-4.987-29.638-31.496-80.367-31.508-110.012 0-4.837 5.142-12.414 6.595-18.745 3.471-26.025-12.845-57.789-8.776-79.767 11.129-1.578 1.429-3.387 2.513-5.318 3.233 42.189 40.592 98.889 66.197 161.55 68.282-1.425-35.21 22.275-68.298 58.108-76.742z" fill="#985326"/></g><path d="m309.695 323.728c-41.921-2.309-74.259-27.029-89.378-41.04-3.95-3.661-10.378-1.3-11.019 4.048l-5.655 47.204c-.209 1.744.271 3.514 1.378 4.878 30.481 37.572 76.941 47.302 93.67 49.655 3.493.491 6.755-1.837 7.407-5.303l9.728-51.651c.739-3.919-2.15-7.571-6.131-7.791z" fill="#e9efff"/><path d="m209.299 286.736-5.654 47.204c-.209 1.744.271 3.514 1.378 4.877 13.815 17.029 30.909 28.325 47.033 35.821-9.785-9.787-8.832-22.589-8.832-22.589s1-17.667 3.245-31 18.703-8.419 18.703-8.419l-.009-.012c-20.148-8.988-35.671-21.427-44.846-29.929-3.95-3.662-10.378-1.301-11.018 4.047z" fill="#bec8f7"/><path d="m375.326 103.688c-.838-4.319-3.371-7.558-6.612-9.502-4.862 4.685-9.741 12.399-6.636 23.19 1.295 4.551 5.891 7.323 10.52 6.347l7.088-1.495c-1.776-6.222-3.226-12.692-4.36-18.54z" fill="#fceca9"/><path d="m230.692 65.579c-5.895 5.37-6.868 13.991-2.161 19.158l18.48 20.289c4.707 5.167 13.381 5.002 19.276-.368 5.895-5.37 6.868-13.991 2.161-19.158l-18.48-20.289c-4.706-5.167-13.38-5.002-19.276.368z" fill="#a0e589"/><path d="m195.204 97.66c-4.559 5.692-4.206 13.619.783 17.615l19.59 15.69c4.99 3.996 12.802 2.608 17.361-3.084 4.559-5.692 4.206-13.619-.783-17.615l-19.59-15.69c-4.99-3.996-12.802-2.609-17.361 3.084z" fill="#a0e589"/><path d="m186.306 140.979c-4.559 5.692-4.206 13.619.783 17.615l19.59 15.69c4.989 3.996 12.801 2.608 17.36-3.084 4.559-5.692 4.206-13.619-.783-17.615l-19.59-15.69c-4.989-3.996-12.801-2.608-17.36 3.084z" fill="#a0e589"/><circle cx="272.057" cy="440.821" fill="#7f4223" r="11.453"/><ellipse cx="210.021" cy="456.777" fill="#c47037" rx="11.453" ry="11.453" transform="matrix(.16 -.987 .987 .16 -274.499 590.918)"/><g fill="#7f4223"><circle cx="339.019" cy="463.727" r="11.453"/><ellipse cx="138.805" cy="456.777" rx="11.453" ry="11.453" transform="matrix(.23 -.973 .973 .23 -337.644 486.922)"/><circle cx="143.408" cy="388.537" r="11.453"/></g><ellipse cx="262.667" cy="482.8" fill="#c47037" rx="11.453" ry="11.453" transform="matrix(.924 -.383 .383 .924 -164.765 137.269)"/><ellipse cx="86.006" cy="402.104" fill="#b06428" rx="11.453" ry="11.453" transform="matrix(.23 -.973 .973 .23 -325.102 393.424)"/><circle cx="364.352" cy="394.037" fill="#70361c" r="11.453"/><ellipse cx="419.327" cy="403.854" fill="#b06428" rx="11.453" ry="11.453" transform="matrix(.987 -.16 .16 .987 -59.276 72.384)"/><path d="m398.674 67.823c15.206 32.678 33.405 87.766 7.55 127.059-35.022 53.224-66.227 78.139-35.83 108.536 27.573 27.573 90.86-6.036 111.206 59.243 12.483-29.39 19.398-61.714 19.398-95.659 0-82.077-40.367-154.72-102.324-199.179z" fill="#b875db"/><path d="m11.002 267.002c0 23.906 3.436 47.006 9.824 68.846 47.064-59.132 147.064-1.118 157.398-61.699 7.59-44.497-49-83.767-27.966-140.902 12.946-35.165-10.043-58.05-29.638-70.454-66.063 43.884-109.618 118.955-109.618 204.209z" fill="#b875db"/></g></svg>