<svg id="Layer_1" enable-background="new 0 0 512 512" height="512" viewBox="0 0 512 512" width="512" xmlns="http://www.w3.org/2000/svg"><g><g><path d="m37.978 290.936c8.615 0 16.498 3.129 22.577 8.311 4.912 4.187 12.085 4.275 16.972.058 12.884-11.12 32.538-11.121 45.433-.042 4.87 4.185 12.037 4.188 16.905.001 12.884-11.08 32.507-11.068 45.387-.001 4.87 4.185 12.037 4.188 16.905.001 12.884-11.08 32.507-11.068 45.387-.001 4.87 4.185 12.036 4.188 16.905.001 12.884-11.08 32.507-11.068 45.387-.001 4.87 4.184 12.037 4.188 16.905.001 12.884-11.08 32.507-11.068 45.387-.001 4.87 4.184 12.037 4.188 16.905.001 12.9-11.094 32.556-11.068 45.435.041 4.889 4.216 12.062 4.132 16.974-.056 6.08-5.184 13.963-8.313 22.58-8.313 9.607 0 18.296 3.896 24.599 10.184 1.554-11.152 2.376-22.539 2.376-34.119 0-135.309-109.689-244.998-244.998-244.998s-244.997 109.69-244.997 244.999c0 11.58.822 22.967 2.376 34.119 6.303-6.288 14.993-10.185 24.6-10.185z" fill="#aa67c6"/></g><path d="m291.615 163.456 61.066 12.066-24.172 122.334c12.859-9.64 31.313-9.165 43.619 1.408 4.87 4.184 12.037 4.188 16.905.001.879-.756 1.792-1.456 2.73-2.109l21.662-109.632 61.067 12.066c5.997 1.185 11.84-2.73 13.025-8.727l7.704-38.991c1.185-5.998-2.73-11.841-8.727-13.026l-61.067-12.066 10.452-52.902c1.185-5.997-2.729-11.841-8.727-13.026l-38.991-7.704c-5.998-1.185-11.841 2.73-13.026 8.728l-10.453 52.902-61.066-12.066c-5.997-1.185-11.84 2.73-13.025 8.728l-7.704 38.991c-1.184 5.997 2.731 11.839 8.728 13.025z" fill="#ffdd40"/><path d="m303.618 102.711c-5.997-1.185-11.84 2.73-13.025 8.728l-7.704 38.991c-1.185 5.998 2.73 11.84 8.727 13.026l61.066 12.066-24.172 122.334c12.859-9.64 31.314-9.165 43.619 1.408 4.87 4.184 12.037 4.188 16.905.001.879-.756 1.792-1.456 2.73-2.109l21.662-109.632c-6.891-1.362-9.203-5.819-9.846-9.743-.647-3.952-3.601-7.093-7.444-8.217-20.061-5.868-22.72-22.603-22.557-31.903.06-3.402-1.568-6.671-4.392-8.569-7.325-4.922-4.503-14.315-4.503-14.315z" fill="#ffc839"/><path d="m370.174 173.238-23.28 117.818c8.955-.637 18.122 2.096 25.234 8.207.603.518 1.243.972 1.908 1.362l24.08-121.867c1.185-5.998 7.029-9.913 13.026-8.728l61.066 12.066 5.522-27.942-61.066-12.066c-5.997-1.185-9.913-7.028-8.728-13.026l10.453-52.903-27.942-5.521-10.453 52.903c-1.185 5.997-7.028 9.912-13.025 8.728l-61.066-12.066-5.522 27.942 61.067 12.066c5.996 1.186 9.911 7.03 8.726 13.027z" fill="#ffc839"/><path d="m374.036 300.626 24.08-121.867c.457-2.311 1.61-4.308 3.193-5.828-1.33-1.573-3.116-2.765-5.173-3.367-20.061-5.868-22.72-22.603-22.557-31.903.035-1.993-.523-3.932-1.548-5.585-1.603.44-3.324.537-5.063.194l-61.066-12.066-5.522 27.942 61.067 12.066c5.996 1.184 9.912 7.028 8.727 13.025l-23.28 117.818c8.955-.637 18.122 2.096 25.234 8.207.604.52 1.243.974 1.908 1.364z" fill="#ffb332"/><path d="m255.843 21.134c-9.322-.916-20.562-2.021-28.044-2.756-4.779-.47-9.421 1.778-11.986 5.837-3.962 6.271-11.153 15.706-21.845 22.569-4.504 2.892-10.433-.456-10.211-5.803.002-.055.005-.11.007-.164.065-1.406-1.829-1.888-2.488-.644-.345.652-.641 1.319-.896 1.993-.226.601-.852.926-1.483.808-.603-.114-1.241-.09-1.87.1-.629.189-1.174.522-1.614.95-.46.448-1.162.522-1.682.146-.585-.422-1.199-.814-1.848-1.167-1.236-.673-2.549.775-1.718 1.911.032.044.065.089.097.133 3.139 4.334.045 10.399-5.306 10.477-12.704.185-23.911-3.707-30.678-6.745-4.38-1.966-9.492-1.274-13.215 1.757l-21.852 17.79c-1.696 1.381-.127 4.053 1.913 3.263 29.781-11.533 41.761 3.917 45.228 10.176.62 1.119 2.147 1.281 3.035.36 17.012-17.627 31.801-5.889 37.781.557 1.086 1.171 3.026.586 3.285-.99 1.424-8.676 7.266-26.631 31.185-21.336 1.249.276 2.433-.702 2.331-1.977-.568-7.132.883-26.63 32.078-33.469 2.138-.468 1.973-3.562-.204-3.776z" fill="#543e5b"/><path d="m270.151 1.891c6.257-.615 13.8-1.356 18.822-1.85 3.207-.315 6.323 1.193 8.044 3.918 2.659 4.209 7.486 10.541 14.661 15.148 3.023 1.941 7.002-.306 6.853-3.895-.002-.037-.003-.073-.005-.11-.044-.944 1.227-1.267 1.67-.432.232.438.43.885.601 1.338.152.403.572.622.996.542.405-.076.833-.06 1.255.067s.788.35 1.083.637c.309.3.78.35 1.129.098.393-.283.805-.546 1.24-.783.83-.451 1.711.52 1.153 1.283-.022.03-.043.06-.065.09-2.107 2.909-.031 6.979 3.561 7.032 8.527.124 16.048-2.488 20.59-4.527 2.94-1.32 6.37-.855 8.869 1.179l14.666 11.939c1.138.927.085 2.72-1.284 2.19-19.988-7.74-28.028 2.629-30.355 6.83-.416.751-1.441.86-2.037.242-11.418-11.831-21.344-3.952-25.357.373-.729.786-2.031.393-2.204-.664-.956-5.823-4.877-17.874-20.93-14.32-.838.186-1.633-.471-1.564-1.327.381-4.787-.593-17.873-21.53-22.463-1.434-.315-1.323-2.392.138-2.535z" fill="#543e5b"/><path d="m474.022 288.936c-8.617 0-16.499 3.129-22.58 8.313-4.913 4.188-12.085 4.273-16.974.056-12.879-11.108-32.535-11.134-45.435-.041-4.868 4.186-12.035 4.183-16.905-.001-12.88-11.066-32.503-11.079-45.387.001-4.868 4.186-12.035 4.183-16.905-.001-12.88-11.066-32.503-11.079-45.387.001-4.868 4.186-12.035 4.183-16.904-.001-12.881-11.066-32.503-11.079-45.388.001-4.868 4.187-12.035 4.183-16.905-.001-12.88-11.066-32.503-11.079-45.387.001-4.868 4.187-12.035 4.183-16.905-.001-12.896-11.08-32.55-11.079-45.434.042-4.886 4.217-12.06 4.129-16.972-.058-6.08-5.182-13.962-8.311-22.577-8.311-9.73 0-18.525 3.992-24.846 10.423 4.354 32.998 15.278 63.919 31.41 91.42 6.035 1.152 11.517 3.856 16.013 7.688 4.912 4.187 12.085 4.275 16.972.058 12.884-11.12 32.538-11.121 45.434-.041 4.87 4.184 12.037 4.188 16.905.001 12.884-11.08 32.507-11.068 45.387-.001 4.87 4.184 12.037 4.188 16.905.001 12.884-11.08 32.507-11.067 45.388-.001 4.87 4.184 12.036 4.188 16.904.001 12.884-11.08 32.507-11.067 45.387-.001 4.87 4.184 12.037 4.188 16.905.001 12.885-11.08 32.507-11.068 45.387-.001 4.87 4.184 12.037 4.188 16.905.001 12.9-11.094 32.557-11.067 45.435.041 4.889 4.216 12.062 4.132 16.974-.057 4.496-3.833 9.979-6.538 16.015-7.69 16.132-27.501 27.056-58.422 31.41-91.42-6.32-6.43-15.115-10.423-24.845-10.423z" fill="#7f4223"/><g><path d="m185.252 398.484c4.87 4.184 12.037 4.188 16.905.001 12.601-10.836 31.643-11.056 44.525-.708.453-.181.91-.356 1.373-.518 6.059-2.125 9.645-8.33 8.454-14.639-3.154-16.698 6.668-33.686 22.692-39.308 6.059-2.125 9.645-8.33 8.454-14.639-2.656-14.062 3.892-28.329 15.595-35.84-12.351-6.359-27.961-4.891-38.801 4.431-4.868 4.186-12.035 4.183-16.905-.001-12.881-11.066-32.503-11.079-45.387.001-4.868 4.187-12.035 4.183-16.905-.001-12.88-11.066-32.503-11.079-45.387.001-4.868 4.187-12.035 4.183-16.905-.001-12.895-11.08-32.55-11.079-45.433.042-4.886 4.217-12.06 4.129-16.972-.058-6.08-5.182-13.962-8.311-22.577-8.311-9.73 0-18.524 3.992-24.846 10.423 4.354 32.998 15.278 63.919 31.41 91.42 6.034 1.152 11.517 3.856 16.013 7.688 4.912 4.187 12.085 4.275 16.972.058 12.884-11.12 32.538-11.121 45.433-.041 4.87 4.184 12.037 4.188 16.905.001 12.884-11.079 32.507-11.068 45.387-.001z" fill="#70361c"/></g><path d="m56.044 264.73c.995 7.027 7.521 11.935 14.548 10.94l71.551-10.131 17.664 124.752c9.02-.695 18.276 2.035 25.444 8.194 4.87 4.184 12.037 4.188 16.905.001 8.48-7.292 19.879-9.778 30.354-7.471l-19.193-135.553 71.552-10.131c7.027-.995 11.935-7.521 10.939-14.548l-6.469-45.686c-.995-7.027-7.521-11.935-14.548-10.939l-71.552 10.131-8.776-61.985c-.995-7.027-7.521-11.935-14.548-10.94l-45.686 6.468c-7.027.995-11.935 7.521-10.94 14.549l8.776 61.985-71.551 10.131c-7.027.995-11.935 7.521-10.94 14.548z" fill="#ffdd40"/><path d="m211.435 255.661c-9.975.684-13.771-5.276-15.198-9.391-.729-2.101-2.786-3.427-5.004-3.27-28.84 2.036-37.888-22.23-40.343-31.936-.545-2.157-2.473-3.623-4.697-3.682-9.835-.262-12.863-7.448-13.762-11.029-.178-.709-.523-1.351-.981-1.901l-70.934 10.044c-7.027.995-11.934 7.521-10.94 14.548l6.469 45.686c.995 7.027 7.521 11.935 14.548 10.94l71.551-10.131 17.664 124.752c9.021-.695 18.276 2.035 25.444 8.194 4.87 4.184 12.037 4.188 16.905.001 8.48-7.292 19.879-9.778 30.354-7.471l-19.13-135.108c-.622-.203-1.281-.292-1.946-.246z" fill="#ffc839"/><path d="m145.897 245.405c7.026-.995 13.553 3.913 14.548 10.939l19.605 138.462c1.824 1.048 3.568 2.273 5.203 3.677 4.87 4.184 12.037 4.188 16.905.001 3.277-2.818 6.991-4.915 10.918-6.298l-19.89-140.479c-.995-7.027 3.913-13.553 10.94-14.548l71.551-10.131-4.635-32.74-71.552 10.131c-7.027.995-13.554-3.913-14.549-10.939l-8.777-61.986-32.74 4.636 8.776 61.986c.995 7.027-3.912 13.554-10.938 14.548l-71.552 10.131 4.636 32.74z" fill="#ffc839"/><path d="m185.252 398.484c4.87 4.184 12.037 4.188 16.905.001 3.277-2.818 6.99-4.914 10.918-6.298l-19.89-140.479c-.391-2.761.14-5.439 1.342-7.74-.926-.685-2.081-1.054-3.294-.969-28.84 2.036-37.888-22.23-40.343-31.936-.278-1.1-.918-2.017-1.772-2.662-1.96 2.236-4.689 3.815-7.857 4.263l-71.552 10.131 4.636 32.74 71.551-10.131c7.026-.995 13.553 3.913 14.548 10.939l19.604 138.462c1.825 1.05 3.57 2.275 5.204 3.679z" fill="#ffb332"/><path d="m256 512c91.07 0 170.531-49.693 212.757-123.44-6.548.994-12.498 3.804-17.314 7.91-4.912 4.188-12.086 4.272-16.974.056-12.879-11.108-32.535-11.134-45.436-.041-4.868 4.186-12.035 4.183-16.905-.001-12.88-11.067-32.503-11.079-45.387.001-4.868 4.186-12.035 4.183-16.905-.001-12.88-11.066-32.503-11.078-45.387.001-4.868 4.186-12.035 4.183-16.905-.001-12.881-11.067-32.503-11.079-45.387.001-4.868 4.186-12.035 4.183-16.905-.001-12.881-11.067-32.503-11.078-45.387.001-4.868 4.186-12.035 4.183-16.905-.001-12.895-11.08-32.55-11.078-45.433.041-4.886 4.217-12.06 4.129-16.972-.058-4.816-4.105-10.766-6.914-17.312-7.908 42.226 73.748 121.686 123.441 212.757 123.441z" fill="#b06428"/><g><path d="m194.228 490.573c-3.188-16.718 6.638-33.739 22.681-39.367 6.059-2.125 9.645-8.33 8.454-14.639-3.154-16.698 6.668-33.686 22.692-39.307.108-.038.21-.087.316-.128-.281-.205-.559-.417-.827-.648-12.881-11.067-32.503-11.079-45.387.001-4.868 4.186-12.035 4.183-16.905-.001-12.88-11.067-32.503-11.078-45.387.001-4.868 4.186-12.035 4.183-16.905-.001-12.895-11.08-32.55-11.078-45.433.041-4.886 4.217-12.06 4.129-16.972-.058-4.816-4.105-10.766-6.914-17.313-7.908 31.582 55.158 83.995 96.855 146.514 114.374 3.543-2.942 5.379-7.602 4.472-12.36z" fill="#985326"/></g><circle cx="365.696" cy="460.593" fill="#7f4223" r="11.688"/><circle cx="317.31" cy="436.688" fill="#c47037" r="11.688"/><circle cx="214.679" cy="441.411" fill="#7f4223" r="11.688"/><circle cx="166.02" cy="464.787" fill="#c47037" r="11.688"/><ellipse cx="116.462" cy="433" fill="#7f4223" rx="11.688" ry="11.688" transform="matrix(.923 -.385 .385 .923 -157.891 78.341)"/><circle cx="93.086" cy="348.683" fill="#b06428" r="11.688"/><circle cx="277.747" cy="330.299" fill="#b06428" r="11.688"/><circle cx="328.998" cy="358.139" fill="#70361c" r="11.688"/><ellipse cx="398.686" cy="332.531" fill="#b06428" rx="11.688" ry="11.688" transform="matrix(.156 -.988 .988 .156 8.111 674.552)"/><circle cx="457.091" cy="348.683" fill="#70361c" r="11.688"/><circle cx="263.988" cy="481.658" fill="#c47037" r="11.688"/><g fill="#422953"><path d="m199.238 64.249c-.003-.001-.005-.001-.005-.001-14.414-2.536-8.089-16.445-8.089-16.445v-.007c-3.813.445-7.564-2.54-7.387-6.814.002-.055.005-.11.007-.164.065-1.406-1.829-1.888-2.488-.644-.346.652-.641 1.319-.896 1.993-.226.601-.852.926-1.483.808-.603-.114-1.241-.089-1.87.1-.629.19-1.174.522-1.614.95-.46.448-1.162.522-1.682.146-.585-.422-1.199-.814-1.848-1.167-1.236-.673-2.549.775-1.718 1.911.033.044.065.089.097.133 3.139 4.334.045 10.399-5.306 10.477-12.704.185-23.911-3.707-30.678-6.745-4.38-1.966-9.491-1.274-13.215 1.757l-21.852 17.789c-1.696 1.381-.127 4.053 1.913 3.263 29.781-11.533 41.761 3.917 45.229 10.176.62 1.119 2.147 1.281 3.035.36 17.012-17.627 31.801-5.889 37.782.557 1.086 1.17 3.026.586 3.285-.99.789-4.811 2.945-12.473 8.783-17.443z"/><path d="m331.15 24.973c-3.591-.052-5.668-4.123-3.561-7.032.021-.03.043-.06.065-.09.558-.762-.323-1.734-1.153-1.283-.435.237-.847.5-1.24.783-.35.252-.82.202-1.129-.098-.295-.287-.661-.51-1.083-.637s-.85-.143-1.255-.067c-.423.08-.843-.139-.995-.542-.171-.453-.369-.9-.601-1.338-.442-.835-1.713-.511-1.67.432.002.037.003.073.005.11.149 3.589-3.83 5.835-6.853 3.895-7.176-4.607-12.002-10.939-14.661-15.148-1.721-2.724-4.837-4.233-8.044-3.918-5.022.493-12.565 1.235-18.822 1.85-1.461.143-1.572 2.22-.138 2.535 20.937 4.59 21.911 17.676 21.53 22.463-.068.856.726 1.512 1.564 1.327 16.053-3.554 19.974 8.497 20.93 14.32.174 1.057 1.476 1.45 2.205.664 2.717-2.928 8.145-7.476 14.908-6.445-6.865-6.863-.002-11.781-.002-11.781z"/></g></g></svg>