<svg id="Layer_1" enable-background="new 0 0 512 512" height="512" viewBox="0 0 512 512" width="512" xmlns="http://www.w3.org/2000/svg"><g><path d="m31.852 366c9.53 21.538 22.064 41.451 37.084 59.195 4.425-11.858 15.864-20.373 29.216-20.373h315.696c13.352 0 24.79 8.515 29.216 20.373 15.02-17.743 27.552-37.654 37.082-59.19l7.767-19.861c8.475-24.827 13.085-51.444 13.085-79.142 0-135.309-109.689-244.998-244.998-244.998s-244.998 109.689-244.998 244.998c0 27.908 4.677 54.719 13.275 79.706z" fill="#aa67c6"/><g><path d="m437.264 278.907c-4.643 0-10.069-1.046-16.079-4.05-3.739-1.87-5.255-6.417-3.386-10.156 1.869-3.741 6.417-5.258 10.157-3.386 12.227 6.113 19.052-1.165 19.119-1.239 2.813-3.093 7.602-3.32 10.694-.506 3.093 2.813 3.32 7.601.507 10.694-4.499 4.941-12.563 8.643-21.012 8.643z" fill="#c8c8c8"/></g><g><path d="m421.941 325.318c-3.921-1.452-5.922-5.808-4.47-9.728 1.452-3.921 5.807-5.923 9.729-4.47 21.414 7.931 31.905-7.248 32.342-7.899 2.329-3.471 7.033-4.397 10.504-2.069 3.472 2.329 4.399 7.032 2.069 10.505-8.848 13.188-28.403 21.724-50.174 13.661z" fill="#c8c8c8"/></g><path d="m486.867 345.811c-3.322-2.507-8.062-1.842-10.59 1.468-.707.926-17.701 22.618-50.033 15.288-4.075-.928-8.132 1.631-9.056 5.71s1.632 8.132 5.71 9.057c5.902 1.338 11.41 1.914 16.533 1.914 19.883 0 33.855-8.699 41.658-15.381 2.432-5.645 4.662-11.397 6.672-17.252-.275-.285-.568-.558-.894-.804z" fill="#c8c8c8"/><path d="m94.201 264.7c-1.87-3.741-6.417-5.256-10.157-3.386-11.705 5.849-18.47-.577-19.202-1.328l.083.089-11.201 10.189c.648.712 4.194 4.383 10.424 6.729 2.778 1.046 6.358 1.914 10.588 1.914 4.643 0 10.07-1.046 16.078-4.05 3.74-1.871 5.256-6.418 3.387-10.157z" fill="#c8c8c8"/><g><path d="m39.884 311.656c-2.33-3.473-1.403-8.176 2.069-10.505 3.456-2.318 8.135-1.411 10.474 2.025 1.162 1.664 11.677 15.61 32.372 7.943 3.923-1.455 8.277.549 9.729 4.47 1.452 3.92-.549 8.276-4.47 9.728-21.902 8.111-41.464-.678-50.174-13.661z" fill="#c8c8c8"/></g><path d="m85.756 362.567c-32.304 7.319-49.294-14.322-50.031-15.286-2.505-3.325-7.229-4.005-10.571-1.514-.337.252-.641.531-.924.825 2.013 5.863 4.245 11.624 6.681 17.276 7.802 6.682 21.772 15.38 41.657 15.38 5.12 0 10.634-.578 16.533-1.914 4.078-.925 6.634-4.979 5.71-9.057-.923-4.078-4.979-6.64-9.055-5.71z" fill="#c8c8c8"/><path d="m462.67 272.439c-23.497-79.326-30.504-142.942-30.572-143.575-.446-4.156-4.181-7.166-8.335-6.719-4.157.446-7.165 4.176-6.72 8.333.069.644 7.182 65.387 31.025 145.976 9.387 31.729 20.112 61.744 32.019 89.702 2.942-6.64 5.609-13.428 7.963-20.363-9.286-23.167-17.775-47.68-25.38-73.354z" fill="#dbdbdb"/><path d="m88.237 122.145c-4.152-.451-7.888 2.563-8.335 6.719-.068.633-7.076 64.249-30.572 143.575-7.605 25.674-16.093 50.187-25.38 73.354 2.354 6.935 5.021 13.723 7.963 20.363 11.907-27.958 22.631-57.972 32.019-89.702 23.842-80.589 30.955-145.332 31.025-145.976.445-4.157-2.564-7.887-6.72-8.333z" fill="#dbdbdb"/><path d="m384.529 47.272h-35.308c-16.162 0-31.585-7.473-41.05-20.574-11.683-16.172-30.694-26.698-52.171-26.698s-40.488 10.526-52.172 26.698c-9.465 13.101-24.888 20.574-41.05 20.574h-35.308c-22.023 0-40.041 18.019-40.041 40.041v319.439c3.348-1.236 6.96-1.911 10.722-1.911h315.696c3.763 0 7.375.676 10.723 1.911v-319.439c.001-22.022-18.018-40.041-40.041-40.041z" fill="#665364"/><path d="m253.342 399.304c-2.529-3.994-1.338-7.833.271-10.502 1.276-2.117 1.252-4.749-.12-6.804-2.9-4.344-.377-8.354 1.505-10.452 1.032-1.15 1.599-2.634 1.599-4.179v-65.154c0-1.443-.466-2.864-1.393-3.969-7.631-9.098-2.466-18.029.142-21.483.817-1.083 1.251-2.401 1.251-3.758v-105.18c0-2.726-1.728-5.196-4.33-6.007-20.297-6.327-20.398-25.836-19.062-35.611.406-2.968-1.293-5.85-4.13-6.809-9.377-3.171-10.373-11.48-9.856-17.108.279-3.035-1.614-5.807-4.536-6.673-11.76-3.486-13.371-12.685-13.134-18.446.106-2.574-1.345-4.911-3.677-6.006-3.491-1.64-4.271-4.705-4.211-7.281.057-2.459-1.328-4.703-3.531-5.798-6.751-3.355-6.475-10.362-5.887-13.742.1-.577.097-1.159.031-1.733-6.661 3.035-13.994 4.663-21.495 4.663h-35.309c-22.023 0-40.041 18.018-40.041 40.041v319.439c3.347-1.236 6.959-1.911 10.722-1.911h155.792c.668-1.797.463-3.857-.601-5.537z" fill="#543e5b"/><path d="m384.529 74.526h-35.308c-25.123 0-48.726-11.914-63.142-31.869-7.072-9.788-18.035-15.403-30.079-15.403s-23.007 5.615-30.079 15.404c-14.416 19.954-38.021 31.868-63.143 31.868h-35.308c-7.033 0-12.787 5.754-12.787 12.787v279.783c0 5.794 4.697 10.491 10.491 10.491h261.652c5.794 0 10.491-4.697 10.491-10.491v-279.783c0-7.033-5.755-12.787-12.788-12.787z" fill="#543e5b"/><path d="m256.597 367.366v-65.154c0-1.443-.466-2.864-1.393-3.969-7.631-9.098-2.466-18.029.142-21.483.817-1.083 1.251-2.401 1.251-3.758v-105.179c0-2.726-1.728-5.196-4.33-6.007-20.297-6.327-20.398-25.836-19.062-35.611.406-2.968-1.293-5.85-4.13-6.809-9.377-3.171-10.373-11.48-9.856-17.108.279-3.035-1.614-5.807-4.536-6.673-11.76-3.486-13.371-12.685-13.134-18.446.106-2.574-1.345-4.911-3.677-6.006-1.728-.812-2.79-1.973-3.417-3.251-9.827 4.298-20.604 6.615-31.677 6.615h-35.308c-7.033 0-12.787 5.754-12.787 12.787v279.783c0 5.794 4.697 10.491 10.491 10.491h127.017c.114-2.528 1.59-4.685 2.806-6.042 1.032-1.151 1.6-2.635 1.6-4.18z" fill="#422953"/><g><path d="m386.826 385.157h-261.652c-9.959 0-18.061-8.102-18.061-18.061v-279.783c0-11.225 9.132-20.358 20.358-20.358h35.308c22.698 0 44.009-10.741 57.007-28.731 8.511-11.783 21.711-18.541 36.215-18.541 14.503 0 27.703 6.758 36.215 18.54 12.997 17.991 34.307 28.733 57.005 28.733h35.309c11.226 0 20.358 9.132 20.358 20.358v279.783c-.001 9.959-8.103 18.06-18.062 18.06zm-259.355-303.06c-2.828 0-5.216 2.389-5.216 5.216v279.783c0 1.61 1.31 2.92 2.92 2.92h261.651c1.611 0 2.921-1.31 2.921-2.92v-279.783c0-2.828-2.389-5.216-5.217-5.216h-35.309c-27.545 0-53.443-13.087-69.279-35.007-5.631-7.795-14.358-12.266-23.942-12.266s-18.311 4.471-23.942 12.267c-15.836 21.92-41.735 35.006-69.28 35.006z" fill="#422953"/></g><path d="m255.982 370.016h-130.808c-1.61 0-2.92-1.31-2.92-2.92v-279.783c0-2.828 2.389-5.217 5.217-5.217h35.308c13.274 0 26.162-3.047 37.729-8.649-.637-.966-1.533-1.768-2.635-2.285-3.491-1.64-4.271-4.705-4.211-7.281.029-1.258-.323-2.457-.966-3.477-9.219 4.25-19.419 6.552-29.917 6.552h-35.308c-11.225 0-20.358 9.132-20.358 20.358v279.783c0 9.959 8.102 18.061 18.061 18.061h129.353c-.056-1.105-.391-2.196-1.034-3.16-2.9-4.344-.377-8.354 1.505-10.452.411-.46.726-.982.984-1.53z" fill="#30144a"/><path d="m426.598 436.593c1.945 0 3.845.189 5.699.517 3.9-4.041 7.659-8.217 11.276-12.517-4.018-12.588-15.849-21.772-29.725-21.772h-315.696c-13.875 0-25.706 9.184-29.725 21.771 3.617 4.301 7.376 8.477 11.276 12.518 1.854-.328 3.754-.517 5.699-.517z" fill="#543e5b"/><path d="m85.402 436.593h166.75c1.255-2.028 1.3-4.667-.109-6.727-6.983-10.199-2.706-18.761.97-23.374.852-1.069 1.28-2.363 1.306-3.671h-156.167c-13.875 0-25.706 9.184-29.725 21.771 3.617 4.301 7.376 8.477 11.276 12.518 1.854-.327 3.754-.517 5.699-.517z" fill="#422953"/><path d="m85.402 434.574c-2.518 0-4.968.297-7.328.839 44.655 47.162 107.852 76.587 177.926 76.587s133.271-29.425 177.926-76.586c-2.359-.543-4.81-.839-7.328-.839h-341.196z" fill="#665364"/><path d="m85.402 434.574c-2.518 0-4.968.297-7.328.839 39.657 41.883 93.943 69.757 154.677 75.477v-32.392c0-22.214 11.204-34.754 18.056-40.346 1.147-.936 1.864-2.216 2.146-3.579h-167.551z" fill="#543e5b"/><g><path d="m343.146 154.104c-2.408 0-4.775-1.146-6.243-3.279-2.37-3.445-1.5-8.158 1.944-10.528l8.481-5.837-3.584-19.195c-.586-3.136.858-6.302 3.609-7.918l16.697-9.803-6.688-46.454c-.596-4.139 2.276-7.976 6.414-8.572 4.138-.6 7.976 2.276 8.572 6.414l7.413 51.487c.438 3.044-1.008 6.05-3.66 7.607l-16.497 9.686 3.511 18.806c.549 2.941-.686 5.93-3.15 7.626l-12.534 8.626c-1.311.901-2.806 1.334-4.285 1.334z" fill="#422953"/></g><g><path d="m297.435 131.823c-23.922-20.053-58.897-20.097-82.871 0-5.767 4.832-14.362 4.08-19.197-1.689-4.835-5.767-4.079-14.362 1.689-19.197 34.03-28.526 83.773-28.598 117.888 0 5.768 4.835 6.524 13.43 1.689 19.197-4.82 5.749-13.413 6.537-19.198 1.689z" fill="#665364"/></g><g><path d="m87.432 314.182c-2.986 0-5.815-1.778-7.013-4.713-1.579-3.872.279-8.29 4.15-9.869l38.358-15.646c2.565-1.047 5.498-.607 7.645 1.144l14.777 12.055 18.033-12.423c3.444-2.371 8.157-1.503 10.529 1.94s1.504 8.157-1.939 10.53l-22.712 15.646c-2.773 1.908-6.473 1.759-9.08-.369l-15.696-12.805-34.196 13.948c-.936.381-1.904.562-2.856.562z" fill="#30144a"/></g><g><path d="m157.078 126.463c-4.181 0-7.57-3.39-7.57-7.571v-9.709l-8.651-9.596c-1.253-1.391-1.947-3.197-1.947-5.069v-19.96c0-4.181 3.389-7.571 7.571-7.571 4.181 0 7.57 3.39 7.57 7.571v17.052l8.651 9.596c1.253 1.391 1.947 3.197 1.947 5.069v12.618c0 4.181-3.389 7.57-7.571 7.57z" fill="#30144a"/></g><path d="m256.597 275.263c5.575 0 10.094-4.52 10.094-10.094v-92.178c0-5.575-4.519-10.094-10.094-10.094s-10.094 4.519-10.094 10.094v92.178c0 5.575 4.519 10.094 10.094 10.094z" fill="#30144a"/><path d="m213.718 271.838c1.996 2.267 4.781 3.426 7.581 3.426 2.368 0 4.747-.829 6.665-2.517 4.185-3.683 4.592-10.062.908-14.246l-24.971-28.372c15.721-3.469 27.487-17.023 27.487-33.181 0-18.775-15.883-34.05-35.405-34.05h-24.495l-.015.001c-.005 0-.01-.001-.015-.001-5.575 0-10.094 4.519-10.094 10.094v92.178c0 5.574 4.519 10.094 10.094 10.094s10.094-4.52 10.094-10.094v-29.877zm-17.734-88.752c8.248 0 15.217 6.348 15.217 13.862 0 7.513-6.969 13.862-15.217 13.862-3.296 0-9.145.025-14.288.05-.077-14.767-.029-9.692-.082-27.774z" fill="#30144a"/><path d="m324.62 162.898h-25.666c-5.522 0-10.094 4.483-10.094 10.094v92.178c0 5.574 4.519 10.094 10.094 10.094s10.094-4.52 10.094-10.094v-30c5.524-.029 12.001-.058 15.572-.058 20.19 0 36.616-16.197 36.616-36.106s-16.425-36.108-36.616-36.108zm0 52.025c-3.556 0-9.949.029-15.45.057-.085-16.879-.034-11.3-.092-31.894h15.542c8.905 0 16.428 7.29 16.428 15.919 0 8.628-7.523 15.918-16.428 15.918z" fill="#30144a"/><path d="m296.825 299.76h-81.65c-5.575 0-10.094 4.52-10.094 10.094s4.519 10.094 10.094 10.094h81.65c5.575 0 10.094-4.52 10.094-10.094s-4.519-10.094-10.094-10.094z" fill="#665364"/><path d="m269.154 333.323h-26.309c-5.575 0-10.094 4.52-10.094 10.094s4.519 10.094 10.094 10.094h26.309c5.575 0 10.094-4.52 10.094-10.094s-4.519-10.094-10.094-10.094z" fill="#665364"/><g fill="#543e5b"><path d="m229.074 119.395c-9.377-3.171-10.373-11.48-9.856-17.108.154-1.674-.37-3.254-1.346-4.492-7.361 3.36-14.372 7.738-20.818 13.141-5.768 4.835-6.524 13.43-1.689 19.197 4.835 5.769 13.431 6.521 19.197 1.689 5.319-4.459 11.181-7.921 17.342-10.398-.712-.911-1.668-1.636-2.83-2.029z"/><path d="m248.581 309.854c0-5.574 4.519-10.094 10.094-10.094h-43.5c-5.575 0-10.094 4.52-10.094 10.094s4.519 10.094 10.094 10.094h43.5c-5.575 0-10.094-4.52-10.094-10.094z"/><path d="m250.751 343.417c0-5.574 4.519-10.094 10.094-10.094h-18c-5.575 0-10.094 4.52-10.094 10.094s4.519 10.094 10.094 10.094h18c-5.575 0-10.094-4.52-10.094-10.094z"/></g></g></svg>