<svg id="Layer_1" enable-background="new 0 0 512 512" height="512" viewBox="0 0 512 512" width="512" xmlns="http://www.w3.org/2000/svg"><g><path d="m477.075 372.713c15.332-32.005 23.923-67.854 23.923-105.711 0-135.309-109.69-244.998-244.998-244.998s-244.998 109.69-244.998 244.998c0 46.036 12.708 89.1 34.792 125.894z" fill="#ff4155"/><path d="m455.379 409.402c-33.538-30.932-68.843-38.901-88.267-49.184l-4.374 10.072c-1.716 3.95-6.323 5.768-10.273 4.053l-35.269-15.317c-3.967-1.723-5.768-6.322-4.052-10.273l21.696-49.959c-1.148-.951-2.254-1.887-3.285-2.792-11.499 11.407-23.113 21.354-33.667 29.648-24.802 19.493-58.746 19.492-83.549-.001-10.587-8.32-22.24-18.303-33.774-29.754-13.988 12.31-38.751 29.267-77.082 39.785-26.068 7.153-47.349 28.232-58.266 56.243 42.698 71.887 121.107 120.077 210.783 120.077 82.199 0 154.937-40.485 199.379-102.598z" fill="#543e5b"/><path d="m183.713 373.448c21.68-9.959 36.186-24.868 45.711-38.768-5.276-2.301-10.348-5.307-15.085-9.03-10.587-8.32-22.24-18.303-33.773-29.754-13.988 12.31-38.751 29.267-77.082 39.785-26.068 7.153-47.349 28.232-58.265 56.243 15.748 26.515 36.36 49.801 60.599 68.639 3.255-66.825 23.146-60.499 75.76-86.07.679-.353 1.388-.702 2.135-1.045z" fill="#422953"/><path d="m288.62 6.384c-20.924-8.513-44.089-8.513-65.013 0-42.511 17.296-111.635 72.411-111.635 152.769 0 74.743 59.802 135.043 102.367 168.497 24.802 19.493 58.746 19.493 83.549 0 42.566-33.453 102.369-93.754 102.369-168.497 0-80.358-69.125-135.474-111.637-152.769z" fill="#665364"/><path d="m247.385 327.758c-.044-.272-.063-.543-.063-.819v-17.799c0-4.136 2.419-7.16 4.703-9.094 1.768-1.497 2.374-3.996 1.432-6.113-1.163-2.612-.564-4.812.344-6.373.968-1.666.902-3.778-.163-5.383-2.887-4.349-2.102-8.09-.699-10.667 1.126-2.069.722-4.654-.888-6.373-3.383-3.613-3.396-8.663-3.396-8.663v-16.201c0-.674-.12-1.338-.374-1.962-.919-2.27-3.919-8.083-12.951-17.115-9.594-9.594-6.339-22.61-4.728-27.271.412-1.191.394-2.483-.057-3.66l-12.442-32.417c-.078-.204-.146-.415-.201-.627-8.114-31.51 2.707-52.725 9.17-61.911 1.892-2.688.969-6.432-1.982-7.879-31.928-15.655-.719-31.745-15.765-46.79-10.87-10.869-.23-22.871 7.608-29.387.906-.754 1.481-1.718 1.745-2.741-42.708 19.373-106.708 73.318-106.708 150.642 0 74.743 59.802 135.043 102.367 168.497 12.216 9.601 26.649 14.462 41.115 14.606-6.25-5.517-7.77-12.659-8.067-14.5z" fill="#543e5b"/><path d="m280.948 90.139c-15.986-6.504-33.684-6.504-49.67 0-32.478 13.213-85.288 44.138-85.288 105.53 0 57.103 45.688 103.172 78.208 128.73 18.949 14.892 44.882 14.892 63.831 0 32.52-25.558 78.209-71.627 78.209-128.731 0-61.392-52.811-92.316-85.29-105.529z" fill="#422953"/><path d="m224.198 324.4c7.733 6.078 16.63 9.673 25.741 10.79-1.769-3.378-2.378-6.339-2.554-7.432-.044-.272-.063-.543-.063-.819v-17.799c0-4.136 2.419-7.16 4.703-9.094 1.768-1.497 2.374-3.996 1.432-6.113-1.163-2.612-.564-4.812.344-6.373.968-1.666.902-3.778-.163-5.383-2.887-4.349-2.102-8.09-.699-10.667 1.126-2.069.722-4.654-.888-6.373-3.383-3.613-3.396-8.663-3.396-8.663v-16.201c0-.674-.12-1.338-.374-1.962-.919-2.27-3.919-8.083-12.951-17.115-9.594-9.594-6.339-22.61-4.728-27.271.412-1.191.394-2.483-.057-3.66l-12.442-32.417c-.078-.204-.146-.415-.201-.627-8.114-31.51 2.707-52.725 9.17-61.911.818-1.162 1.107-2.521.937-3.807-32.627 13.919-82.02 44.794-82.02 104.168.001 57.102 45.69 103.171 78.209 128.729z" fill="#30144a"/><path d="m386.233 296.076 6.455-14.864c4.185-9.637-.234-20.841-9.871-25.026s-20.841.234-25.026 9.871l-6.455 14.864z" fill="#f1935d"/><path d="m251.01 511.937c1.66.033 3.322.063 4.99.063 12.827 0 25.422-.99 37.716-2.89l58.807-135.411-34.897-15.155z" fill="#f1935d"/><path d="m317.625 358.544-23.987 55.233s26.975-12.603 34.329 16.463l24.555-56.541z" fill="#e1715a"/><path d="m414.823 324.633-27.831-12.086-10.695 24.626 27.837 12.089c23.461 10.189 44.689 25.329 61.851 44.009 4.202-6.974 8.062-14.176 11.567-21.579-16.677-20.057-38.009-36.324-62.729-47.059z" fill="#e9efff"/><path d="m466.519 392.367c-17.006-18.469-38.024-33.617-61.986-44.023l-27.837-12.089-11.007 25.345 39.408 17.114c18.247 7.924 34.896 18.752 49.379 31.925 4.276-5.898 8.296-11.993 12.043-18.272z" fill="#dae2fe"/><path d="m226.404 292.284c18.888 8.379 40.303 8.379 59.191 0 6.214-2.756 12.319-6.484 17.078-11.508.078-.082.151-.171.228-.254l-.228-.853-1.805-3.682c-1.493-3.046-5.27-4.171-8.181-2.429-2.3 1.376-4.687 2.589-7.092 3.655-18.888 8.379-40.303 8.379-59.191 0-2.404-1.066-4.792-2.279-7.092-3.655-2.911-1.742-6.688-.617-8.181 2.429l-1.805 3.682.241 1.352c4.724 4.9 10.726 8.553 16.837 11.263z" fill="#f4d99d"/><path d="m219.313 273.558c-2.911-1.742-6.688-.617-8.181 2.429l-1.805 3.682.241 1.352c4.724 4.899 10.726 8.552 16.837 11.263 8.588 3.81 17.698 5.867 26.855 6.213.744-1.389.864-3.069.198-4.564-1.163-2.612-.564-4.812.344-6.373.728-1.252.87-2.756.444-4.108-9.489-.229-18.946-2.292-27.841-6.239-2.405-1.066-4.792-2.279-7.092-3.655z" fill="#e5c88f"/><path d="m324.073 233.022c-2.461-.607-4.684-.766-6.694-.577-.987 13.85-4.219 36.153-14.705 47.224-4.759 5.025-10.864 8.752-17.078 11.509-18.888 8.379-40.303 8.379-59.191 0-6.214-2.756-12.319-6.484-17.078-11.509-10.487-11.071-13.719-33.374-14.705-47.224-2.011-.189-4.233-.031-6.694.577-3.888.96-7.74.509-11.319-.99 6.239 23.725 4.675 47.061 7.629 64.386 3.321 19.477 20.108 21.229 34.682 36.616 10.365 10.943 24.742 11.837 32.182 11.441 3.266-.174 6.532-.174 9.798 0 7.44.396 21.817-.499 32.182-11.441 14.574-15.386 31.362-17.139 34.682-36.616 2.954-17.325 1.39-40.661 7.629-64.386-3.58 1.498-7.432 1.949-11.32.99z" fill="#f9e9bd"/><path d="m247.385 327.758c-.044-.272-.063-.543-.063-.819v-17.799c0-4.136 2.419-7.16 4.703-9.094.834-.706 1.398-1.638 1.675-2.644-9.305-.294-18.571-2.354-27.296-6.224-6.214-2.756-12.319-6.484-17.078-11.509-10.487-11.071-13.719-33.374-14.705-47.224-2.011-.189-4.233-.031-6.694.577-3.888.96-7.74.509-11.319-.99 6.239 23.725 4.675 47.061 7.629 64.386 3.321 19.477 20.108 21.23 34.682 36.616 10.365 10.943 24.742 11.837 32.182 11.441 2.378-.126 4.757-.158 7.135-.101-8.608-5.618-10.515-14.527-10.851-16.616z" fill="#f4d99d"/><path d="m295.476 259.365c-.548.371-1.132.692-1.748.953-15.158 6.419-37.728 6.362-37.728 6.362s-22.57.057-37.728-6.363c-.616-.261-1.2-.582-1.748-.953.486 6.191-1.262 11.236 1.748 13.642 15.159 12.122 37.728 12.015 37.728 12.015s22.569.108 37.728-12.014c3.009-2.407 1.262-7.451 1.748-13.642z" fill="#f9e9bd"/><path d="m216.524 259.365c.486 6.191-1.261 11.236 1.748 13.642 12.804 10.239 30.894 11.753 36.205 11.976-.004-.983-.281-1.964-.839-2.806-2.887-4.349-2.102-8.09-.699-10.667.835-1.535.825-3.352.109-4.891-6.609-.227-22.948-1.292-34.776-6.301-.616-.261-1.2-.582-1.748-.953z" fill="#f4d99d"/><path d="m158.65 147.656c1.376 12.004 4.052 21.914 5.873 27.672 1.026 3.243.448 6.773-1.406 9.576-14.203 21.465 4.835 53.632 24.81 48.702 16.192-3.996 22.156 11.186 24.087 20.11.757 3.5 3.102 6.372 6.258 7.709 15.158 6.42 37.728 6.363 37.728 6.363s22.569.057 37.728-6.363c3.156-1.337 5.5-4.209 6.258-7.709 1.931-8.924 7.896-24.105 24.087-20.11 19.976 4.93 39.013-27.237 24.81-48.702-1.855-2.802-2.432-6.333-1.406-9.576 1.838-5.81 4.547-15.848 5.911-28.001-17.7-30.384-49.945-48.036-72.44-57.188-15.986-6.504-33.684-6.504-49.67 0-22.575 9.185-54.97 26.932-72.628 57.517z" fill="#fcf4d9"/><path d="m187.927 233.606c16.192-3.996 22.156 11.186 24.087 20.11.758 3.5 3.102 6.372 6.258 7.709 12.063 5.109 28.808 6.115 35.148 6.314-.22-.953-.674-1.859-1.369-2.601-3.383-3.613-3.396-8.663-3.396-8.663v-16.201c0-.674-.12-1.338-.374-1.962-.919-2.27-3.919-8.083-12.951-17.115-9.594-9.594-6.339-22.61-4.728-27.271.412-1.191.394-2.483-.057-3.66l-12.442-32.417c-.078-.204-.146-.415-.201-.627-8.114-31.51 2.707-52.725 9.17-61.911.817-1.161 1.107-2.52.937-3.804-22.341 9.531-52.537 27.011-69.361 56.152 1.376 12.004 4.052 21.914 5.873 27.672 1.026 3.243.448 6.773-1.406 9.576-14.202 21.462 4.836 53.629 24.812 48.699z" fill="#f9e9bd"/><path d="m225.593 157.166c5.555-.145 10.731 2.981 13.052 8.03 2.946 6.409 4.868 15.493-2.4 22.761-12.641 12.641-40.245 21.329-44.916 6.597s-11.023-29.914 5.749-33.917c10.638-2.539 21.425-3.286 28.515-3.471z" fill="#422953"/><path d="m238.645 165.196c-2.322-5.049-7.497-8.175-13.052-8.03-6.478.169-16.042.812-25.759 2.858 1.854-.106 3.584-.176 5.16-.221 6.594-.187 12.738 3.85 15.493 10.372 3.486 8.25 5.76 19.933-2.767 29.306 6.947-2.602 13.787-6.785 18.525-11.523 7.268-7.269 5.346-16.353 2.4-22.762z" fill="#30144a"/><path d="m286.408 157.166c-5.556-.145-10.731 2.981-13.052 8.03-2.947 6.409-4.868 15.493 2.4 22.761 12.641 12.641 40.245 21.329 44.916 6.597s11.023-29.914-5.749-33.917c-10.639-2.539-21.426-3.286-28.515-3.471z" fill="#422953"/><path d="m314.922 160.637c-5.13-1.224-10.291-2.029-15.059-2.558 10.52 5.66 5.069 19.074.926 32.141-1.512 4.77-5.436 7.073-10.47 7.594 12.705 5.894 27.097 7.008 30.353-3.259 4.671-14.733 11.022-29.915-5.75-33.918z" fill="#30144a"/><path d="m270.809 213.646c-1.355-.959-2.331-2.355-2.859-3.929-1.32-3.936-3.16-7.084-5.001-9.516-3.49-4.611-10.409-4.611-13.899 0-1.841 2.432-3.681 5.58-5.001 9.516-.528 1.574-1.503 2.97-2.859 3.929-3.028 2.143-8.068 7.058-5.945 15.065 2.527 9.531 11.885 12.478 17.998 9.654 1.755-.811 3.757-.811 5.513 0 6.112 2.824 15.47-.124 17.998-9.654 2.123-8.006-2.917-12.922-5.945-15.065z" fill="#422953"/><path d="m270.809 213.646c-1.355-.959-2.331-2.355-2.859-3.929-1.32-3.936-3.16-7.084-5.001-9.516-2.965-3.918-8.399-4.493-12.109-1.754 1.522.924 2.791 2.317 3.535 4.134 1.155 2.823 2.127 6.337 2.392 10.48.106 1.657.691 3.256 1.755 4.531 2.376 2.848 5.987 8.892 1.881 16.086-.972 1.703-2.144 3.073-3.43 4.161.609.092 1.209.261 1.782.526 6.112 2.824 15.47-.124 17.998-9.654 2.124-8.006-2.916-12.922-5.944-15.065z" fill="#30144a"/><path d="m404.533 348.344-27.837-12.089-11.007 25.345 39.408 17.114c1.92.834 3.819 1.707 5.703 2.605.427-1.095.539-2.322.243-3.533-2.578-10.548 3.644-16.041 8.018-18.514 1.061-.6 1.858-1.497 2.349-2.545-5.444-3.057-11.072-5.862-16.877-8.383z" fill="#bec8f7"/><path d="m414.823 324.633-27.831-12.087-10.695 24.626 27.837 12.089c5.732 2.489 11.329 5.279 16.768 8.339.836-1.186 1.214-2.674 1.021-4.189-1.616-12.663 11.576-16.38 14.474-17.04.171-.039.337-.092.503-.147-7.005-4.365-14.376-8.247-22.077-11.591z" fill="#dae2fe"/><path d="m387.261 294.218-35.269-15.317c-4.716-2.048-10.198.115-12.246 4.831l-27.978 64.423c-2.048 4.716.114 10.199 4.83 12.247l35.269 15.317c4.716 2.048 10.199-.115 12.247-4.831l27.978-64.423c2.047-4.716-.116-10.199-4.831-12.247z" fill="#e9efff"/><path d="m340.746 353.274 22.522-51.86c2.703-6.225 6.979-10.857 11.21-12.748l-22.487-9.766c-4.716-2.048-10.198.115-12.246 4.831l-27.978 64.423c-2.048 4.716.114 10.199 4.83 12.247l22.486 9.765c-1.506-4.382-1.04-10.668 1.663-16.892z" fill="#dae2fe"/></g></svg>