<svg id="Capa_1" enable-background="new 0 0 501 501" height="512" viewBox="0 0 501 501" width="512" xmlns="http://www.w3.org/2000/svg"><g><path d="m501 256c0 135.31-109.69 245-245 245-36.929 0-71.949-8.17-103.353-22.802-2.378-1.108.466-4.13-1.87-5.311-10.387-5.253-22.028-13.209-31.5-19.833-2.342-1.638-8.175.547-10.456-1.17-59.406-44.706-97.821-115.809-97.821-195.884 0-135.31 109.69-245 245-245s245 109.69 245 245z" fill="#012d4e"/><path d="m445 170h-60c-8.284 0-15-6.716-15-15s6.716-15 15-15h60c8.284 0 15 6.716 15 15s-6.716 15-15 15zm.424 170c-8.077 0-15.026 6.207-15.406 14.275-.406 8.614 6.457 15.725 14.982 15.725h27.917c5.076-9.638 9.528-19.656 13.303-30zm-370.424-30h120c8.284 0 15-6.716 15-15s-6.716-15-15-15h-120c-8.284 0-15 6.716-15 15s6.716 15 15 15zm139.576 60h-59.576c-8.284 0-15-6.716-15-15s-6.716-15-15-15h-99.22c3.775 10.344 8.227 20.362 13.303 30h25.917c8.284 0 15 6.716 15 15s6.716 15 15 15h120c8.525 0 15.389-7.111 14.983-15.725-.38-8.068-7.33-14.275-15.407-14.275z" fill="#463b83"/><path d="m147.715 147.086c.97 2.545 5.875 15.403-1.152 22.468-5.308 5.335-15.054 4.986-21.027 1.44-5.531-3.284-9.793-13.39-12.442-24.91-11.927 18.802-15.749 28.385-17.397 34.892-.624 2.46-1.189 4.931-1.598 8.283-3.699 30.316 17.84 50.369 12.901 55.906-3.403 3.815-17.86-.96-30.5-10-26.886-19.228-42.689-55.702-44.593-93.961-.125.147-.248.29-.368.428-1.791 2.051-10.843 12.417-20.379 9.529-7.203-2.182-11.469-10.952-11.142-17.891.514-10.904 20.093-27.801 36.182-36.804 4.298-17.825 17.921-70.994 54.384-74.593 27.177-2.682 56.621 20.991 60.597 45.683 2.145 13.324-4.844 27.334-19.629 50.349 6.954 10.25 13.703 22.732 16.163 29.181z" fill="#04d481"/><path d="m55.635 134.077c0 38.271 9.983 74.21 27.488 105.356-2.218-1.281-4.447-2.711-6.623-4.267-26.886-19.228-42.689-55.702-44.593-93.961-.125.147-.248.29-.368.428-1.791 2.051-10.843 12.417-20.379 9.529-7.203-2.182-11.469-10.952-11.142-17.891.514-10.904 20.093-27.801 36.182-36.804 4.146-17.194 16.968-67.272 50.595-74.027-19.774 32.553-31.16 70.765-31.16 111.637z" fill="#01988c"/><path d="m121.437 84.086c-4.384 7.945-9.868 8.628-14.698 5.963-4.829-2.665-7.175-7.67-2.791-15.614s13.838-15.821 18.667-13.156 3.206 14.862-1.178 22.807zm-28.803-39.351c-4.83-2.665-14.283 5.211-18.667 13.156s-2.039 12.949 2.791 15.614 10.314 1.981 14.698-5.963c4.384-7.945 6.007-20.142 1.178-22.807zm-12.634 46.931c-5.523 0-10 4.478-10 10 0 5.523 4.477 10 10 10s10-4.477 10-10-4.477-10-10-10z" fill="#012d4e"/><path d="m460 206.813v87.087c0 6.471-6.34 11.041-12.479 8.994l-12.171-4.057v2.313c0 7.182-4.058 13.748-10.482 16.96l-17.013 8.506v14.873c0 65.452-53.059 118.511-118.511 118.511h-5.569c-27.376 0-54.785-2.403-80.672 6.5-5.686 1.956-11.429 3.844-17.271 5.385-21.375-7.84-41.354-18.574-59.462-31.728 23.166-18.644 39.382-45.971 43.308-77.814l1.156-9.379v-234.453c-.001-65.452 53.058-118.511 118.51-118.511 65.452 0 118.511 53.059 118.511 118.511v77.143l18.844-9.422c3.195-1.598 6.718-2.429 10.291-2.429 12.708 0 23.01 10.302 23.01 23.01z" fill="#b0dde9"/><path d="m379.095 308.341c0 25.224-7.486 49.543-21.702 71.659-11.772 18.313-28.16 35.115-48.734 49.669-42.058 29.75-97.139 46.831-156.008 48.531-15.569-7.254-30.248-16.095-43.83-26.316 27.371-14.963 48.517-40.517 57.317-71.883 1.6-5.703 2.792-11.598 3.54-17.657l1.156-9.379v-25.399l-18.909-9.455c-6.424-3.212-10.482-9.778-10.482-16.96v-1.681l-10.275 3.425c-6.139 2.047-12.479-2.523-12.479-8.994v-87.087c0-12.708 10.302-23.01 23.01-23.01 3.572 0 7.096.832 10.291 2.429l18.843 9.422v-77.143c0-65.453 53.059-118.512 118.511-118.512 5.724 0 11.354.406 16.861 1.191-57.581 11.715-100.913 62.634-100.913 123.674v249.685l-.672 5.45-.56 4.538c-.019.151-.038.302-.057.453-1.477 11.638 13.526 17.492 20.256 7.883 2.887-4.122 5.586-8.419 8.083-12.874 12.989-23.168 20.514-50.61 20.514-80 0-5.729 4.818-10.333 10.624-9.981 5.336.324 9.385 4.994 9.376 10.339-.052 28.236-6.244 55.419-17.868 79.642-6.943 14.466-15.823 27.876-26.49 39.824-5.32 5.958-10.967 11.424-16.896 16.375-5.988 5-.98 14.717 6.573 12.764 49.077-12.687 89.779-37.407 114.616-68.964 16.683-21.197 26.208-45.478 26.303-71.268.02-5.32 3.959-9.986 9.266-10.365 5.855-.417 10.735 4.209 10.735 9.975z" fill="#81ade2"/><path d="m233.239 108.556c4.533-20.448 20.337-44.047 32.767-41.291s16.78 30.822 12.247 51.27-16.233 25.535-28.663 22.779c-12.431-2.755-20.885-12.31-16.351-32.758zm115.543 0c-4.533-20.448-20.337-44.047-32.767-41.291s-16.78 30.822-12.247 51.27 16.233 25.535 28.663 22.779c12.431-2.755 20.884-12.31 16.351-32.758z" fill="#463b83"/><path d="m279.496 164.962c-34.708 6.383-51.997 67.101-41.5 76 7.006 5.939 22.473-14.526 54.5-15.5 33.81-1.028 52.763 20.681 57.5 15.5 7.813-8.544-29.103-83.613-70.5-76z" fill="#463b83"/><path d="m255.308 142.003c-1.872-.021-3.786-.26-5.718-.688-12.43-2.756-20.884-12.31-16.351-32.758s20.337-44.047 32.767-41.291c1.178.261 2.284.75 3.317 1.438-7.964 11.176-14.563 25.81-17.586 39.444-3.414 15.398-1.57 26.385 3.571 33.855zm63.114-38.472c-2.519-11.365-3.257-24.257-2.272-36.295-.045.009-.09.019-.135.029-12.43 2.756-16.78 30.822-12.247 51.27s16.233 25.535 28.663 22.779c3.378-.749 6.462-2 9.072-3.835-10.329-4.171-18.789-14.591-23.081-33.948zm-2.265 74.3c-10.923-9.414-23.568-15.277-36.662-12.869-34.708 6.383-51.997 67.101-41.5 76 4.177 3.541 11.361-2.303 23.268-7.807 5.352-27.809 27.161-49.761 54.894-55.324z" fill="#012d4e"/><path d="m50 250c0 5.523-4.477 10-10 10s-10-4.477-10-10 4.477-10 10-10 10 4.477 10 10z" fill="#b0dde9"/><path d="m430 390c0 5.523-4.477 10-10 10s-10-4.477-10-10 4.477-10 10-10 10 4.477 10 10z" fill="#9bb9c3"/><path d="m440 110c0 5.523-4.477 10-10 10s-10-4.477-10-10 4.477-10 10-10 10 4.477 10 10z" fill="#fdf7bd"/></g></svg>