<svg id="Capa_1" enable-background="new 0 0 501 501" height="512" viewBox="0 0 501 501" width="512" xmlns="http://www.w3.org/2000/svg"><g><path d="m490 250.746c-.133 135.197-109.772 244.754-245 244.754-56.04 0-107.685-18.815-148.963-50.472-7.251-5.561-11.501-14.183-11.501-23.32v-317.183c0-27.502 14.719-52.891 38.564-66.595 37.276-21.423 80.721-33.322 127.014-32.379 133.011 2.712 240.017 112.158 239.886 245.195z" fill="#fc5426"/><path d="m501 112v320c0 8.284-6.716 15-15 15h-254.205c-3.409 11.006-13.669 19-25.795 19-12.126 0-22.385-7.994-25.795-19h-81.56c-14.8-11.041-28.311-23.716-40.265-37.756-4.798-5.633-7.38-12.822-7.38-20.221v-288.171c1-1.294 2.012-2.579 3.037-3.852h431.963c8.284 0 15 6.716 15 15z" fill="#012d4e"/><path d="m229 65.181v324.449c0 13.873-7.697 26.493-19.845 33.192-.052.029-.103.057-.155.086-18.008-10.009-56.02-16.908-100-16.908-17.878 0-34.769 1.651-49.732 4.283-36.938-42.897-59.268-98.732-59.268-159.783 0-79.072 37.459-149.395 95.6-194.192 4.393-.201 8.865-.308 13.4-.308 43.98 0 81.992 6.899 100 16.908 5.143-2.859 11.92-5.464 20-7.727z" fill="#f5b65d"/><path d="m479 86v330c0 5.523-4.477 10-10 10h-.817c-30.745 0-61.313-4.148-91.096-11.78-18.807-4.82-42.431-8.22-68.087-8.22-43.98 0-81.992 6.899-100 16.908v-21c-18.008-10.009-56.02-16.908-100-16.908-23.785 0-45.823 2.922-63.897 7.189-28.404-40-45.103-88.895-45.103-141.689 0-92.766 51.557-173.491 127.581-215.082 35.929 1.633 66.004 7.922 81.419 16.49.051-.029.103-.057.155-.086 8.919-4.917 19.845 1.677 19.845 11.862v1.497c20.21-5.66 48.582-9.181 80-9.181 25.656 0 49.28 3.4 68.087 8.22 29.783 7.632 60.351 11.78 91.096 11.78h.817c5.523 0 10 4.477 10 10z" fill="#f9d19a"/><path d="m469 55c5.523 0 10 4.477 10 10l5.408 330c0 5.523-4.477 10-10 10h-.815c-30.746 0-66.722-4.148-96.506-11.78-18.807-4.82-42.432-8.22-68.087-8.22-43.98 0-81.992 6.899-100 16.908v-350c18.008-10.009 56.02-16.908 100-16.908 25.655 0 49.28 3.4 68.087 8.22 29.783 7.632 60.352 11.78 91.098 11.78z" fill="#ffe899"/><path d="m79 204.5h-74.688c1.286-6.769 2.85-13.44 4.681-20h70.007c5.523 0 10 4.477 10 10s-4.477 10-10 10zm50 70c0-5.523-4.477-10-10-10h-118.606c.38 6.743 1.032 13.413 1.947 20h116.659c5.523 0 10-4.477 10-10zm40 40c0-5.523-4.477-10-10-10h-153.029c1.525 6.777 3.33 13.448 5.403 20h147.626c5.523 0 10-4.477 10-10zm-30-210h-90.765c-4.78 6.431-9.252 13.106-13.394 20h104.159c5.523 0 10-4.477 10-10s-4.477-10-10-10zm20 40h-134.945c-3.13 6.512-5.98 13.184-8.536 20h143.481c5.523 0 10-4.477 10-10s-4.477-10-10-10zm0 80h-157.636c-.695 6.592-1.129 13.262-1.291 20h158.927c5.523 0 10-4.477 10-10s-4.477-10-10-10zm275 90c0-5.523-4.477-10-10-10h-160c-5.523 0-10 4.477-10 10 0 5.523 4.477 10 10 10h160c5.523 0 10-4.477 10-10zm-35 40c0-5.523-4.477-10-10-10h-90c-5.523 0-10 4.477-10 10 0 5.523 4.477 10 10 10h90c5.523 0 10-4.477 10-10z" fill="#f5b65d"/><path d="m171.226 186.349-9.117 6.078c-1.329.886-3.109-.067-3.109-1.664v-152.56c10.5-.703 22.812 2.172 30 5.979v146.582c0 1.597-1.78 2.55-3.109 1.664l-9.117-6.078c-1.68-1.121-3.868-1.121-5.548-.001z" fill="#915cb3"/><path d="m344 66.182c-58.725 0-106.5 47.776-106.5 106.5s47.775 106.5 106.5 106.5 106.5-47.776 106.5-106.5-47.775-106.5-106.5-106.5zm84.414 71.195h-57.62l-18.127-55.788c34.194 3.228 62.97 25.352 75.747 55.788zm-115.009 60.237 17.835 12.958-28.858 20.967zm-36.744-45.237h35.67l-6.813 20.967zm41.617 30.237 9.825-30.237h31.793l9.825 30.237-25.721 18.688zm36.744-45.237h-22.045l11.023-33.925zm19.573 60.237 11.023 33.925-28.858-20.967zm7.886-24.27-6.813-20.967h35.67zm-47.149-91.755-18.127 55.788h-57.62c12.778-30.436 41.554-52.56 75.747-55.788zm-82.832 91.093c0-6.167.614-12.194 1.783-18.023l46.363 33.685-17.186 52.891c-18.976-16.778-30.96-41.292-30.96-68.553zm46.659 79.74 44.841-32.579 44.841 32.579c-13.259 7.485-28.56 11.76-44.841 11.76s-31.582-4.275-44.841-11.76zm105.381-11.187-17.186-52.891 46.363-33.685c1.169 5.828 1.782 11.855 1.782 18.023.001 27.261-11.983 51.775-30.959 68.553z" fill="#012d4e"/><path d="m450.473 170.309c-1.266-57.633-48.541-104.127-106.473-104.127-25.112 0-48.222 8.737-66.45 23.33-5.154 10.03-8.585 21.092-9.9 32.794 14.888-22.489 39.437-38.05 67.682-40.716l-18.127 55.788h-50.064c.493 11.147 2.897 21.798 6.893 31.632l26.611 19.334-4.382 13.488c3.859 3.721 8.031 7.12 12.473 10.154l4.67-14.371 17.835 12.958-11.125 8.083c5.305 2.634 10.889 4.79 16.697 6.41l7.187-5.222 11.674 8.482c2.262.16 4.546.242 6.849.242 5.781 0 11.443-.514 16.941-1.499l-22.705-16.496 17.835-12.958 9.279 28.556c4.927-1.126 9.709-2.632 14.314-4.487l-10.833-33.339 46.363-33.685c1.169 5.828 1.782 11.855 1.782 18.023 0 9.121-1.342 17.935-3.838 26.254 7.879-8.271 14.289-17.953 18.812-28.628zm-144.954 3.035-28.857-20.967h35.67zm38.481-69.892 11.022 33.925h-22.045zm0 97.85-25.722-18.688 9.825-30.237h31.793l9.825 30.237zm38.481-27.958-6.813-20.967h35.67zm-11.686-35.967-18.127-55.788c34.193 3.228 62.969 25.352 75.746 55.788z" fill="#463b83"/></g></svg>