<svg id="Capa_1" enable-background="new 0 0 501 501" height="512" viewBox="0 0 501 501" width="512" xmlns="http://www.w3.org/2000/svg"><g><path d="m495.5 256c0 11.537-.797 22.887-2.34 34-1.538 11.076-15.693 17.45-18.66 28-2.649 9.421 6.03 23.076 2.319 32-36.866 88.66-124.312 151-226.319 151-135.31 0-245-109.69-245-245s109.69-245 245-245 245 109.69 245 245z" fill="#fc5426"/><path d="m262.183 70.274c271.788 12.759 271.788 417.693 0 430.453-3.871.182-7.766.274-11.683.274s-7.811-.092-11.683-.274c-271.788-12.759-271.788-417.693 0-430.453 3.872-.182 7.767-.274 11.683-.274s7.811.092 11.683.274z" fill="#fd9d01"/><path d="m425.5 295c0 96.65-78.35 175-175 175s-175-78.35-175-175 78.35-175 175-175 175 78.35 175 175z" fill="#f3d373"/><path d="m250.499 120c-36.358 0-70.126 11.089-98.108 30.067-18.979 27.982-30.067 61.75-30.067 98.109 0 18.408 2.842 36.152 8.112 52.818.917 2.899 4.165 4.382 6.9 3.055 3.091-1.499 6.652-2.182 10.401-1.767 8.81.974 15.861 8.169 16.678 16.995.767 8.284-3.812 15.596-10.684 18.882-2.732 1.306-3.595 4.767-1.91 7.282 31.397 46.875 84.846 77.735 145.502 77.735 36.358 0 66.569-5.197 94.551-24.176 23.375-30.75 33.624-67.638 33.625-103.994.004-96.321-78.678-175.006-175-175.006zm18.226 70.117c-6.479 14.271-23.301 20.587-37.572 14.108s-20.587-23.301-14.108-37.572 23.301-20.587 37.572-14.108c14.271 6.48 20.587 23.301 14.108 37.572zm92.428 74.108c-14.271-6.479-20.587-23.301-14.108-37.572s23.301-20.587 37.572-14.108 20.587 23.301 14.108 37.572-23.301 20.588-37.572 14.108zm27.028 43.438c-7.135-3.24-10.294-11.65-7.054-18.786s11.65-10.294 18.786-7.054 10.294 11.65 7.054 18.786c-3.24 7.135-11.65 10.293-18.786 7.054z" fill="#fcf498"/><path d="m359.5 280h-180c-8.284 0-15-6.716-15-15 0-8.284-6.716-15-15-15h-70c-8.525 0-15.389-7.111-14.983-15.725.38-8.068 7.33-14.275 15.407-14.275h149.153c8.074 0 15.022 6.203 15.406 14.268.409 8.611-6.445 15.721-14.963 15.732h129.557c8.077 0 15.027 6.207 15.407 14.275.405 8.614-6.459 15.725-14.984 15.725zm100 10c-8.284 0-15 6.716-15 15s-6.716 15-15 15h-59.576c-8.077 0-15.027 6.207-15.407 14.274-.406 8.615 6.458 15.726 14.983 15.726h107.319c7.867-18.918 13.43-39.035 16.34-60z" fill="#75a5d3"/><path d="m474.5 167.882v.11c0 1.29-.493 2.531-1.379 3.468l-48.806 51.664c-.7.741-1.729 1.076-2.731.889l-34.036-6.353c-1.897-.354-3.146 1.919-1.83 3.33l3.537 3.794c2.178 2.336 1.977 5.963-.655 7.771-1.782 1.224-4.075 1.174-5.774-.017l-30.653-21.481-9.209-1.719c-.85-.159-1.706.247-2.122 1.006l-32.073 58.63c-.428.782.303 1.69 1.159 1.439l16.871-4.945c2.763-.81 5.744-.189 7.988 1.69l.145.121c4.649 3.892 3.887 11.251-1.462 14.107l-29.592 15.801c-1.122.599-1.745 1.841-1.553 3.099l9.206 60.283c44.205 11.334 83.591 34.692 114.466 66.383-44.501 45.68-106.686 74.048-175.497 74.048s-130.996-28.368-175.499-74.046c33.262-34.141 76.401-58.611 124.802-68.794l8.633-32.853c7.413-28.208 3.744-58.184-10.254-83.772l-4.269-7.804c-1.819-3.325-5.526-5.154-9.271-4.575l-26.222 4.054.381.381-22.728 34.051c-.9 1.349-2.363 2.274-3.982 2.352-3.653.175-6.207-3.467-4.873-6.811l9.717-24.366c.429-1.077-.474-2.212-1.62-2.035l-17.722 2.74c-1.891.292-3.782-.526-4.864-2.104l-25.291-36.905c-1.602-2.337-.931-5.538 1.475-7.036l2.233-1.39c1.964-1.222 4.511-.93 6.146.706l15.314 15.314c1.182 1.182 2.878 1.691 4.516 1.356l47.319-9.69c1.482-.303 2.103-2.078 1.135-3.24l-29.611-35.534c-7.377-8.852-16.43-16.16-26.64-21.503l-38.688-20.247c-1.982-1.037-4.413-.624-5.94 1.011l-20.097 21.504c-1.107 1.185-2.701 1.861-4.312 1.674-3.633-.421-5.56-4.43-3.699-7.513l23.821-39.467c1.228-2.034 3.722-2.916 5.955-2.105l66.511 24.136c.893.324 1.89-.025 2.387-.834l28.617-46.645c.382-.623.394-1.404.032-2.038l-15.11-26.442c-.427-.747-1.284-1.137-2.128-.969l-32.325 6.447c-1.59.317-3.279-.063-4.478-1.153-2.706-2.46-1.937-6.84 1.371-8.262l26.289-11.299c1.097-.472 1.539-1.793.947-2.83l-9.726-17.02c-1.894-3.318.501-7.444 4.32-7.444h2.101c1.361 0 2.662.557 3.601 1.542l45.805 48.051c.877.92 2.379.799 3.097-.249l18.719-27.31c.81-1.182 2.343-1.626 3.659-1.06l43.629 18.752c3.223 1.385 4.258 5.633 1.805 8.14-1.177 1.203-2.882 1.728-4.531 1.399l-31.252-6.251c-.882-.176-1.773.258-2.178 1.061l-17.072 33.875c-7.874 15.623-13.151 32.424-15.625 49.743-.209 1.463.24 2.944 1.226 4.044l78.143 87.189c.814.908 2.244.883 3.025-.053l27.741-33.242c.382-.458.54-1.062.43-1.648l-11.066-59.284c-1.468-7.867-4.072-15.479-7.729-22.597l-10.62-20.669c-.752-1.464-.852-3.218-.121-4.693 1.648-3.327 6.138-3.796 8.447-.962l16.509 20.261 46.518-53.375c2.481-2.847 7.166-1.092 7.166 2.685 0 .634-.148 1.26-.431 1.827l-25.218 50.434 13.407-3.93c4.521-1.325 9.501.046 12.453 3.718 1.003 1.248 1.407 2.372.359 2.937l-34.065 18.355c-.854.46-1.254 1.466-.951 2.387l16.931 51.334c.212.641.732 1.133 1.385 1.306l57.656 15.345 15.402-35.489c.592-1.364 1.937-2.247 3.424-2.247 3.649 0 6.383 3.344 5.656 6.921l-6.204 30.544c-.326 1.604 1.309 2.899 2.796 2.215l60.241-27.713c3.345-1.538 7.16.906 7.16 4.589z" fill="#012d4e"/><path d="m300.18 357.947c-7.301-1.504-14.871-1.29-22.056.698-.446.123-.853.243-1.208.356-23.356 7.456-38.268 24.587-44.737 44.398-1.062 3.252 1.32 6.6 4.741 6.6h7.238c5.326 0 9.977 4.019 10.321 9.335.377 5.824-4.235 10.665-9.978 10.665h-10.579c-2.989 0-5.31 2.605-4.975 5.575 3.261 28.923 22.999 55.959 59.216 62.036.529.089 1.059.176 1.589.261 53.041-8.541 100.386-34.109 136.249-70.919-33.497-34.378-77.008-58.951-125.821-69.005zm-5.68 112.053h-20c-5.523 0-10-4.477-10-10s4.477-10 10-10h20c5.523 0 10 4.477 10 10s-4.477 10-10 10zm30-60h-30c-5.523 0-10-4.477-10-10s4.477-10 10-10h30c5.523 0 10 4.477 10 10s-4.477 10-10 10zm150-242.118v.109c0 1.29-.493 2.531-1.379 3.469l-48.806 51.664c-.7.741-1.729 1.076-2.731.889l-34.035-6.353c-1.897-.354-3.146 1.919-1.83 3.33l3.7 3.968c2.493 2.673 1.417 7.059-2.104 8.238-1.561.523-3.285.185-4.633-.76l-29.976-21.006c-.351-.246-.75-.414-1.171-.492l-8.57-1.6c-.85-.159-1.706.247-2.122 1.006l-32.073 58.63c-.428.782.304 1.69 1.159 1.44l16.871-4.946c2.763-.81 5.744-.189 7.988 1.69l.145.121c4.653 3.887 3.894 11.247-1.454 14.103l-29.599 15.805c-1.122.599-1.745 1.841-1.553 3.099l6.065 39.714h-12.831c-6.108 0-11.06-4.952-11.06-11.06v-44.633c0-2.852.46-5.686 1.362-8.392l13.619-40.858c.744-2.231-2.305-3.693-3.579-1.716l-20.245 31.415c-2.223 3.449-3.615 7.367-4.069 11.445l-5.955 53.597c-.596 5.363-4.823 9.778-10.205 10.172-6.081.445-11.301-4.059-11.844-10.029l-8.295-91.242c-.514-5.65-2.825-10.987-6.594-15.228l-61.959-69.704c-7.359-8.279-8.802-20.258-3.619-30.047l53.013-100.135 37.765 16.232c3.308 1.421 4.077 5.802 1.369 8.261-1.2 1.09-2.889 1.469-4.479 1.151l-32.575-6.515-17.757 35.234c-7.879 15.634-13.158 32.447-15.63 49.779-.207 1.45.254 2.918 1.232 4.008l78.143 87.188c.814.908 2.244.883 3.025-.053l27.741-33.243c.382-.458.54-1.062.43-1.648l-11.066-59.284c-1.468-7.867-4.072-15.479-7.73-22.598l-10.7-20.825c-1.039-2.021-.625-4.561 1.216-6.158 2.16-1.874 5.496-1.42 7.302.796l14.899 18.285c.783.961 2.243.985 3.058.051l44.959-51.586c2.481-2.847 7.166-1.092 7.166 2.684 0 .634-.148 1.26-.431 1.827l-23.166 46.333c-.781 1.562.675 3.305 2.351 2.814l17.999-5.276c1.619-.475 3.369-.109 4.663.974 2.737 2.292 2.297 6.625-.847 8.318l-34.065 18.355c-.854.46-1.254 1.466-.951 2.387l16.931 51.334c.211.641.732 1.132 1.385 1.306l55.16 14.681c1.435.382 2.933-.343 3.524-1.705l14.374-33.12c.592-1.364 1.937-2.247 3.424-2.247 3.649 0 6.383 3.344 5.656 6.921l-6.204 30.544c-.326 1.604 1.309 2.899 2.796 2.215l60.241-27.713c3.346-1.537 7.161.907 7.161 4.59z" fill="#463b83"/><path d="m114.5 315.858-21.213 21.213c-3.905 3.905-10.237 3.905-14.142 0l-21.213-21.213c4.023-4.023 10.43-4.368 14.862-.802l13.423 10.802 13.423-10.802c4.43-3.566 10.837-3.221 14.86.802zm254.173-178.677-13.423 10.802-13.423-10.802c-4.432-3.566-10.839-3.221-14.862.802l21.213 21.213c3.905 3.905 10.237 3.905 14.142 0l21.213-21.213c-4.021-4.023-10.429-4.368-14.86-.802z" fill="#012d4e"/></g></svg>