<svg id="Capa_1" enable-background="new 0 0 501 501" height="512" viewBox="0 0 501 501" width="512" xmlns="http://www.w3.org/2000/svg"><g><path d="m495.5 256c0 135.31-109.69 245-245 245s-245-109.69-245-245 109.69-245 245-245 245 109.69 245 245z" fill="#f5c02c"/><path d="m486.921 191.5c-28.312 104.017-123.434 180.5-236.421 180.5s-208.109-76.483-236.421-180.5c28.312-104.017 123.434-180.5 236.421-180.5s208.109 76.483 236.421 180.5z" fill="#fde803"/><path d="m364.25 286v28c0 6.075-4.925 11-11 11s-11-4.925-11-11v-4h-183.5v4c0 6.075-4.925 11-11 11s-11-4.925-11-11v-28c0-6.075 4.925-11 11-11s11 4.925 11 11v4h183.5v-4c0-6.075 4.925-11 11-11s11 4.925 11 11z" fill="#012d4e"/><path d="m140.5 248.936c-13.807 0-25-11.193-25-25v-10c0-13.807 11.193-25 25-25 13.807 0 25 11.193 25 25v10c0 13.807-11.193 25-25 25z" fill="#04d481"/><path d="m300.819 306.777v32.159h39.681c.184 0 .368.001.552.002 22.659.175 28.814 31.27 8.075 40.401-30.175 13.285-63.54 20.661-98.627 20.661s-68.452-7.376-98.628-20.661c-20.739-9.131-14.584-40.226 8.075-40.401.184-.001.368-.002.552-.002h39.681v-32.159c-35.443-18.265-59.681-55.222-59.681-97.841v-130.936h220v110.936c13.807 0 25 11.193 25 25v10c0 13.807-11.193 25-25 25-2.468 0-4.853-.358-7.105-1.024-9.666 25.506-28.545 46.482-52.575 58.865zm-160.321-57.841c-6.071-4.561-9.998-11.822-9.998-20v-20c0-8.178 3.927-15.439 9.998-20-13.806.001-24.998 11.194-24.998 25v10c0 13.806 11.192 24.998 24.998 25z" fill="#06995f"/><path d="m360.5 78v130.936c0 43.701-25.485 81.451-62.403 99.197-20.659 9.931-44.535 9.931-65.194 0-36.919-17.746-62.403-55.496-62.403-99.197v-91.936h25v4.785c0 2.611 1.909 4.943 4.509 5.191 2.982.284 5.491-2.053 5.491-4.977v-5h10v14.785c0 2.611 1.909 4.943 4.509 5.191 2.982.284 5.491-2.053 5.491-4.977v-15h10v4.785c0 2.611 1.909 4.943 4.509 5.191 2.982.284 5.491-2.053 5.491-4.977v-5h10v14.785c0 2.611 1.909 4.943 4.509 5.191 2.982.284 5.491-2.053 5.491-4.977v-15h13.785c2.611 0 4.944-1.909 5.191-4.509.284-2.982-2.053-5.491-4.977-5.491h-14v-4.785c0-2.611-1.909-4.943-4.509-5.191-2.982-.284-5.491 2.053-5.491 4.977v5h-10v-14.785c0-2.611-1.909-4.943-4.509-5.191-2.982-.284-5.491 2.053-5.491 4.977v15h-10v-4.785c0-2.611-1.909-4.943-4.509-5.191-2.982-.284-5.491 2.053-5.491 4.977v5h-10v-14.785c0-2.611-1.909-4.943-4.509-5.191-2.982-.284-5.491 2.053-5.491 4.977v15h-25v-29z" fill="#04d481"/><path d="m234.161 220.693c4.505-4.504 10.422-6.757 16.339-6.757s11.834 2.253 16.339 6.757c2.929 2.93 2.929 7.678 0 10.607-2.93 2.928-7.678 2.928-10.607 0-3.16-3.162-8.303-3.162-11.463 0-2.93 2.928-7.678 2.928-10.607 0-2.93-2.929-2.93-7.677-.001-10.607zm1.339-43.943c0-7.503-2.142-14.48-5.818-20.295l-52.136-7.448c-7.38 6.738-12.046 16.668-12.046 27.743 0 20.296 15.67 36.75 35 36.75s35-16.454 35-36.75zm62 87h-22v-3.75c0-4.142-3.358-7.5-7.5-7.5-4.142 0-7.5 3.358-7.5 7.5v3.75h-20v-3.75c0-4.142-3.358-7.5-7.5-7.5-4.142 0-7.5 3.358-7.5 7.5v3.75h-18c-4.142 0-7.5 3.358-7.5 7.5s3.358 7.5 7.5 7.5h18v3.75c0 4.142 3.358 7.5 7.5 7.5 4.142 0 7.5-3.358 7.5-7.5v-3.75h20v3.75c0 4.142 3.358 7.5 7.5 7.5 4.142 0 7.5-3.358 7.5-7.5v-3.75h22c4.142 0 7.5-3.358 7.5-7.5s-3.358-7.5-7.5-7.5zm25.954-114.743-52.136 7.448c-3.676 5.815-5.818 12.793-5.818 20.295 0 20.296 15.67 36.75 35 36.75s35-16.454 35-36.75c0-11.075-4.666-21.006-12.046-27.743z" fill="#01988c"/><path d="m218 176.436c0 8.284-6.716 15-15 15s-15-6.716-15-15 6.716-15 15-15 15 6.715 15 15zm80-15c-8.284 0-15 6.716-15 15s6.716 15 15 15 15-6.716 15-15-6.716-15-15-15z" fill="#012d4e"/><path d="m220.5 168.936c0 4.142-3.358 7.5-7.5 7.5s-7.5-3.358-7.5-7.5 3.358-7.5 7.5-7.5 7.5 3.358 7.5 7.5zm87.5-7.5c-4.142 0-7.5 3.358-7.5 7.5s3.358 7.5 7.5 7.5 7.5-3.358 7.5-7.5-3.358-7.5-7.5-7.5z" fill="#fff5f5"/><path d="m330.5 146.937v8.726c0 2.488-1.83 4.598-4.293 4.95l-58.946 8.421c-3.569.51-6.761-2.259-6.761-5.864 0-1.981.99-3.83 2.638-4.929l23.952-15.968c1.983-1.322 4.624-1.061 6.309.625l7.101 7.102 23.419-7.806c3.237-1.079 6.581 1.33 6.581 4.743zm-160 0v8.726c0 2.488 1.83 4.598 4.293 4.95l58.946 8.421c3.568.51 6.761-2.259 6.761-5.864 0-1.981-.99-3.83-2.638-4.929l-23.952-15.968c-1.983-1.322-4.624-1.061-6.309.625l-7.101 7.102-23.419-7.806c-3.238-1.079-6.581 1.33-6.581 4.743z" fill="#006e66"/><path d="m452.918 394.07c-44.121 64.559-118.321 106.93-202.418 106.93-85.049 0-159.976-43.336-203.905-109.131 7.619-30.411 35.132-52.934 67.905-52.934h85.681c-3.009 1.854-4.681 3.906-4.681 6.064 0 8.284 24.624 15 55 15s55-6.716 55-15c0-2.158-1.672-4.21-4.681-6.064h83.681c33.559.001 61.602 23.616 68.418 55.135z" fill="#463b83"/><path d="m114.5 338.936h26.2c-.774 0-1.545.012-2.314.036-48.462 1.527-73.116 62.268-46.855 103.458-17.199-14.68-32.342-31.697-44.936-50.561 7.619-30.411 35.132-52.933 67.905-52.933zm279 59.564v56.46c-4.869 3.506-9.872 6.837-15 9.985v-66.445c0-4.142 3.358-7.5 7.5-7.5s7.5 3.358 7.5 7.5zm-278.5-7.5c-4.142 0-7.5 3.358-7.5 7.5v56.46c4.869 3.506 9.872 6.837 15 9.985v-66.445c0-4.142-3.358-7.5-7.5-7.5z" fill="#012d4e"/><path d="m310.452 352.423-50.912 148.412c-3 .109-6.013.165-9.039.165s-6.04-.056-9.039-.165l-50.912-148.412c-2.268-6.61 4.952-9.582 4.952-7.423 0 8.284 24.624 15 55 15s55-6.716 55-15c-.002-2.158 7.217.813 4.95 7.423z" fill="#b0dde9"/><path d="m190.548 352.423c-2.268-6.61 2.644-13.488 9.632-13.488-3.009 1.854-4.681 3.906-4.681 6.064 0 8.284 24.624 15 55 15s55-6.716 55-15c0-2.158-1.672-4.21-4.681-6.064 6.988 0 11.9 6.878 9.632 13.488l-8.753 25.515c-12.559 3.841-30.843 6.26-51.199 6.26s-38.64-2.419-51.199-6.26z" fill="#fff5f5"/><path d="m200.181 338.936 41.28 161.9-44.106-49.294c-.268-.3-.44-.673-.492-1.072l-2.663-20.21c-.117-.892-.816-1.595-1.706-1.719l-17.241-2.409c-.468-.066-.898-.295-1.214-.647l-31.443-35.141c-1.281-1.432-1.628-3.47-.894-5.246l21.149-51.11c.948-2.29 3.43-3.541 5.835-2.938zm158.992 46.103-22.935-51.162c-1.002-2.236-3.477-3.416-5.845-2.787l-29.574 7.846-41.28 161.9 44.106-49.294c.268-.3.44-.673.492-1.072l2.663-20.21c.117-.892.815-1.595 1.706-1.719l17.241-2.409c.468-.066.898-.295 1.214-.647l31.375-35.065c1.317-1.473 1.644-3.58.837-5.381z" fill="#f02399"/><path d="m373.363 6.135-12.863 143.865c-16.569 0-30-13.431-30-30v-29.913c0-5.785-4.887-10.352-10.659-9.974-22.061 1.448-45.226 2.22-69.341 2.22-23.988 0-47.236-.764-69.349-2.197-5.77-.374-10.651 4.192-10.651 9.974v29.89c0 16.569-13.431 30-30 30l-8.614-143.086c-.38-3.116 2.863-5.401 5.67-3.996l15.031 7.525c1.193.597 2.608.55 3.758-.127l16.613-9.773c.98-.577 2.162-.701 3.24-.341l23.121 7.707c2.567.856 5.218-1.075 5.181-3.792-.033-2.386 2.233-4.162 4.596-3.825l60.912 8.702c2.371.339 4.493-1.501 4.493-3.897v-.922c0-2.395 2.122-4.236 4.493-3.897l64.587 9.227c.605.086 1.221.031 1.801-.162l22.859-7.62c2.827-.943 5.635 1.477 5.122 4.412z" fill="#a62b2b"/><path d="m170.5 91.112v28.888c0 16.569-13.431 30-30 30l-8.614-143.086c-.38-3.116 2.863-5.401 5.67-3.996l15.031 7.525c1.193.597 2.608.55 3.758-.127l8.974-5.279z" fill="#962437"/></g></svg>