<svg id="Capa_1" enable-background="new 0 0 501 501" height="512" viewBox="0 0 501 501" width="512" xmlns="http://www.w3.org/2000/svg"><g><path d="m5.5 256c0-133.796 107.249-242.542 240.467-244.959 136.048-2.469 249.494 108.816 249.533 244.887.022 74.643-33.337 141.495-85.966 186.447-2.762 2.359-6.8 2.439-9.678.223-41.343-31.84-93.139-50.774-149.356-50.774-56.1 0-107.796 18.855-149.097 50.575-3.031 2.328-7.281 2.252-10.184-.234-52.469-44.936-85.719-111.668-85.719-186.165z" fill="#f52c2c"/><path d="m471.5 170.436c0 122.055-98.945 221-221 221s-221-98.945-221-221c0-7.659.39-15.227 1.15-22.685 39.967-81.018 123.4-136.751 219.85-136.751s179.883 55.733 219.85 136.751c.76 7.458 1.15 15.026 1.15 22.685z" fill="#fc5426"/><path d="m308.6 4.036c39.862 16.527 67.9 55.817 67.9 101.655v210c0 60.751-49.249 110-110 110h-32c-60.751 0-110-49.249-110-110v-210c0-45.839 28.038-85.128 67.9-101.655 19.915-8.257 42.856-3.589 58.1 11.655 15.244-15.244 38.186-19.912 58.1-11.655z" fill="#04d481"/><path d="m373.564 341.042c-11.447 48.53-55.038 84.649-107.064 84.649h-32c-60.751 0-110-49.249-110-110v-210c0-34.438 15.826-65.18 40.602-85.35-1.92 8.138-2.935 16.625-2.935 25.35v210c0 60.751 49.249 110 110 110h32c26.312 0 50.467-9.238 69.397-24.649z" fill="#0ab59e"/><path d="m410.5 387.936v53.609c-42.926 37.05-98.847 59.455-160 59.455s-117.074-22.405-160-59.455v-53.609c0-38.66 31.34-70 70-70h180c38.66 0 70 31.339 70 70z" fill="#0571b3"/><path d="m410.5 387.936v53.609c-42.926 37.05-98.847 59.455-160 59.455-47.757 0-92.322-13.665-130-37.296v-90.861c0-30.324 24.583-54.907 54.907-54.907h165.093c38.66 0 70 31.34 70 70z" fill="#3180c2"/><path d="m140.5 227.936c-13.807 0-25-11.193-25-25v-10c0-13.807 11.193-25 25-25 13.807 0 25 11.193 25 25v10c0 13.807-11.193 25-25 25z" fill="#f3d6ac"/><path d="m385.5 192.936v10c0 13.807-11.193 25-25 25-2.468 0-4.853-.358-7.105-1.024-12.254 32.332-39.309 57.384-72.895 66.883v25.205c0 16.569-13.431 30-30 30s-30-13.431-30-30v-25.205c-46.17-13.059-80-55.508-80-105.859v-40c0-60.751 49.249-110 110-110 60.751 0 110 49.249 110 110v20c13.807 0 25 11.192 25 25zm-245.002-25c-13.806.001-24.998 11.194-24.998 25v10c0 13.806 11.192 24.999 24.998 25-6.071-4.561-9.998-11.822-9.998-20v-20c0-8.179 3.927-15.439 9.998-20z" fill="#eabe8d"/><path d="m360.5 147.936v40c0 50.572-34.127 93.173-80.608 106.029-9.407 2.602-19.377 2.602-28.783 0-46.481-12.856-80.608-55.457-80.608-106.029v-40c0-55.663 41.345-101.669 95-108.985 53.654 7.315 94.999 53.321 94.999 108.985z" fill="#f3d6ac"/><path d="m251.5 259h-2c-13.807 0-25-11.193-25-25 0-2.761 2.239-5 5-5h42c2.761 0 5 2.239 5 5 0 13.807-11.193 25-25 25z" fill="#d89c56"/><path d="m249.512 229h21.988c2.761 0 5 2.239 5 5 0 10.632-6.637 19.713-15.994 23.328-9.357-3.615-15.994-12.696-15.994-23.328 0-2.761 2.239-5 5-5zm.988-19.44c5.917 0 11.834-2.253 16.339-6.757 2.929-2.93 2.929-7.678 0-10.607-2.929-2.928-7.678-2.928-10.606 0-3.161 3.162-8.304 3.162-11.465 0-2.929-2.928-7.678-2.928-10.606 0-2.929 2.93-2.929 7.678 0 10.607 4.504 4.504 10.421 6.757 16.338 6.757z" fill="#e3ac6e"/><path d="m218 155.436c0 8.284-6.716 15-15 15s-15-6.716-15-15c0-8.284 6.716-15 15-15s15 6.715 15 15zm80-15c-8.284 0-15 6.716-15 15 0 8.284 6.716 15 15 15s15-6.716 15-15c0-8.285-6.716-15-15-15z" fill="#a62b2b"/><path d="m213 140.436c4.142 0 7.5 3.358 7.5 7.5s-3.358 7.5-7.5 7.5-7.5-3.358-7.5-7.5 3.358-7.5 7.5-7.5zm87.5 7.5c0 4.142 3.358 7.5 7.5 7.5s7.5-3.358 7.5-7.5-3.358-7.5-7.5-7.5-7.5 3.357-7.5 7.5z" fill="#fff5f5"/><path d="m355.5 477.422c-1.656.787-3.323 1.555-5 2.306v.001c-30.535 13.669-64.38 21.271-100 21.271s-69.465-7.602-100-21.271v-.001c-1.677-.75-3.344-1.519-5-2.306v-157.876c4.832-1.055 9.851-1.611 15-1.611h15v72.065h150v-72.064h15c5.149 0 10.168.556 15 1.611z" fill="#463b83"/><path d="m150.5 479.729v-.001c-1.677-.75-3.344-1.519-5-2.306v-157.876c4.832-1.055 9.851-1.611 15-1.611h3.536v167.37c-4.579-1.726-9.093-3.587-13.536-5.576z" fill="#012d4e"/><path d="m284.5 100-8.033-32.133c-.676-2.702-4.348-3.105-5.594-.614l-13.609 27.219c-1.694 3.388-5.157 5.528-8.944 5.528h-123.675c2.211-43.38 29.553-80.125 67.755-95.964 19.915-8.257 42.856-3.589 58.1 11.655 15.244-15.244 38.186-19.912 58.1-11.655 38.202 15.839 65.544 52.584 67.755 95.964z" fill="#04d481"/><path d="m162.312 100h-37.667c2.211-43.38 29.553-80.125 67.755-95.964 12.746-5.284 26.731-5.274 39.145-.586-.494.188-.987.383-1.478.586-38.202 15.839-65.544 52.584-67.755 95.964z" fill="#0ab59e"/><path d="m194.731 110.511c-10.281-6.816-21.262-13.292-32.85-19.299-18.071-9.368-36.219-16.874-53.851-22.507l26.307-51.684c1.677-3.294 6.225-3.693 8.449-.741l12.178 16.165c13.949 18.515 30.793 34.66 49.881 47.814 3.11 2.143 5.975 4.508 8.588 7.06 13.01 12.699-3.549 33.238-18.702 23.192zm171.931-93.491c-1.677-3.294-6.225-3.693-8.449-.74l-12.178 16.165c-13.949 18.515-30.793 34.66-49.881 47.814-3.11 2.143-5.975 4.508-8.588 7.06-13.008 12.7 3.551 33.239 18.703 23.193 10.281-6.816 21.262-13.292 32.85-19.299 18.071-9.368 36.219-16.874 53.851-22.507z" fill="#f02399"/><path d="m404.8 46.811-.432 57.993c-18.247-3.115-37.813-4.804-58.168-4.804-30.867 0-59.919 3.885-85.307 10.73 8.532-21.154 27.966-37.181 52.204-40.229 23.001-2.893 45.385-9.474 66.291-19.491l18.252-8.746c3.333-1.597 7.187.85 7.16 4.547zm-216.897 23.69c-23.001-2.893-45.385-9.474-66.291-19.491l-18.252-8.746c-3.333-1.598-7.188.85-7.16 4.546l.432 57.993c18.247-3.114 37.813-4.803 58.168-4.803 30.867 0 59.919 3.885 85.307 10.73-8.532-21.154-27.966-37.181-52.204-40.229z" fill="#012d4e"/><path d="m413.089 62.532-21.616 6.4c-24.758 7.331-50.686 11.068-76.784 11.068-27.669 0-51.752 13.641-64.189 33.765-12.438-20.124-36.52-33.765-64.189-33.765-26.098 0-52.025-3.737-76.784-11.068l-21.616-6.4c-3.948-1.169-7.91 1.74-7.36 5.404l12.857 85.655c4.848 32.292 35.859 56.409 72.535 56.409h20.367c27.669 0 51.752-13.641 64.189-33.765 12.439 20.124 36.521 33.765 64.19 33.765h20.367c36.676 0 67.688-24.117 72.535-56.409l12.857-85.655c.551-3.664-3.411-6.573-7.359-5.404zm-208.601 127.468c-19.33 0-35-15.67-35-35s15.67-35 35-35 35 15.67 35 35-15.671 35-35 35zm92.024 0c-19.33 0-35-15.67-35-35s15.67-35 35-35 35 15.67 35 35-15.669 35-35 35z" fill="#6f3f89"/><path d="m190.964 209.871c-1.539.086-3.09.129-4.653.129h-20.367c-36.676 0-67.688-24.117-72.535-56.409l-12.858-85.655c-.55-3.664 3.412-6.573 7.36-5.404l18.875 5.589 12.356 82.318c4.907 32.688 35.205 57.443 71.822 59.432z" fill="#463b83"/><path d="m144.5 177.5c0 4.142-3.358 7.5-7.5 7.5s-7.5-3.358-7.5-7.5 3.358-7.5 7.5-7.5 7.5 3.358 7.5 7.5zm247-90c-4.142 0-7.5 3.358-7.5 7.5s3.358 7.5 7.5 7.5 7.5-3.358 7.5-7.5-3.358-7.5-7.5-7.5zm-63.916 317.502c-4.142 0-7.5 3.358-7.5 7.5s3.358 7.5 7.5 7.5 7.5-3.358 7.5-7.5-3.358-7.5-7.5-7.5z" fill="#fdb44c"/><path d="m144.5 142.5c0 4.142-3.358 7.5-7.5 7.5s-7.5-3.358-7.5-7.5 3.358-7.5 7.5-7.5 7.5 3.358 7.5 7.5zm219.5-7.5c-4.142 0-7.5 3.358-7.5 7.5s3.358 7.5 7.5 7.5 7.5-3.358 7.5-7.5-3.358-7.5-7.5-7.5zm-63.916 317.502c-4.142 0-7.5 3.358-7.5 7.5s3.358 7.5 7.5 7.5 7.5-3.358 7.5-7.5-3.358-7.5-7.5-7.5z" fill="#012d4e"/><path d="m184.5 102.5c0 4.142-3.358 7.5-7.5 7.5s-7.5-3.358-7.5-7.5 3.358-7.5 7.5-7.5 7.5 3.358 7.5 7.5zm199.5 12.5c-4.142 0-7.5 3.358-7.5 7.5s3.358 7.5 7.5 7.5 7.5-3.358 7.5-7.5-3.358-7.5-7.5-7.5zm-123.916 297.502c-4.142 0-7.5 3.358-7.5 7.5s3.358 7.5 7.5 7.5 7.5-3.358 7.5-7.5-3.358-7.5-7.5-7.5z" fill="#b1529e"/><path d="m124.5 122.5c0 4.142-3.358 7.5-7.5 7.5s-7.5-3.358-7.5-7.5 3.358-7.5 7.5-7.5 7.5 3.358 7.5 7.5zm199.5-27.5c-4.142 0-7.5 3.358-7.5 7.5s3.358 7.5 7.5 7.5 7.5-3.358 7.5-7.5-3.358-7.5-7.5-7.5zm-3.916 337.502c-4.142 0-7.5 3.358-7.5 7.5s3.358 7.5 7.5 7.5 7.5-3.358 7.5-7.5-3.358-7.5-7.5-7.5z" fill="#fd4fb6"/><path d="m117 95c0 4.142-3.358 7.5-7.5 7.5s-7.5-3.358-7.5-7.5 3.358-7.5 7.5-7.5 7.5 3.358 7.5 7.5zm247 75c-4.142 0-7.5 3.358-7.5 7.5s3.358 7.5 7.5 7.5 7.5-3.358 7.5-7.5-3.358-7.5-7.5-7.5zm-112 295c-4.142 0-7.5 3.358-7.5 7.5s3.358 7.5 7.5 7.5 7.5-3.358 7.5-7.5-3.358-7.5-7.5-7.5z" fill="#a174be"/><path d="m153.108 101.974 6.74 3.686c1.016.555 1.016 2.014 0 2.569l-6.74 3.686c-.246.134-.448.336-.582.582l-3.686 6.74c-.555 1.015-2.014 1.015-2.569 0l-3.686-6.74c-.134-.246-.336-.448-.582-.582l-6.74-3.686c-1.016-.555-1.016-2.014 0-2.569l6.74-3.686c.246-.134.448-.336.582-.582l3.686-6.74c.555-1.015 2.014-1.015 2.569 0l3.686 6.74c.134.246.336.448.582.582zm194.784 0-6.74 3.686c-1.016.555-1.016 2.014 0 2.569l6.74 3.686c.246.134.448.336.582.582l3.686 6.74c.555 1.015 2.014 1.015 2.569 0l3.686-6.74c.134-.246.336-.448.582-.582l6.74-3.686c1.016-.555 1.016-2.014 0-2.569l-6.74-3.686c-.246-.134-.448-.336-.582-.582l-3.686-6.74c-.555-1.015-2.014-1.015-2.569 0l-3.686 6.74c-.134.246-.336.448-.582.582zm-63.916 317.502-6.74 3.686c-1.016.555-1.016 2.014 0 2.569l6.74 3.686c.246.134.448.336.582.582l3.686 6.74c.555 1.016 2.014 1.016 2.569 0l3.687-6.739c.134-.246.336-.448.582-.582l6.74-3.686c1.016-.555 1.016-2.014 0-2.569l-6.74-3.686c-.246-.134-.448-.336-.582-.582l-3.686-6.74c-.555-1.016-2.014-1.016-2.569 0l-3.686 6.74c-.135.245-.337.447-.583.581z" fill="#fff5f5"/></g></svg>