<svg id="Capa_1" enable-background="new 0 0 501 501" height="512" viewBox="0 0 501 501" width="512" xmlns="http://www.w3.org/2000/svg"><g><path d="m495.5 256c0 135.31-109.69 245-245 245s-245-109.69-245-245 109.69-245 245-245 245 109.69 245 245z" fill="#f57e00"/><path d="m495.5 256c0 62.466-23.378 119.472-61.862 162.747-27.838 10.843-58.122 16.793-89.797 16.793-136.69 0-247.5-110.81-247.5-247.5 0-59.35 20.891-113.821 55.719-156.461 30.127-13.234 63.426-20.579 98.44-20.579 135.31 0 245 109.69 245 245z" fill="#fda800"/><path d="m249.699 500.999c-21.108-.068-41.587-2.804-61.119-7.891-2.56-3.361-4.081-7.557-4.081-12.108v-191h40v166h10c16.569 0 30 13.431 30 30 .001 8.218-6.607 14.892-14.8 14.999zm226.918-366.081c.005-.333.008-.667.008-1.002 0-3.084-.217-6.135-.64-9.144-4.552-55.66-26.395-102.13-56.193-123.821-1.741-1.268-4.113-1.268-5.855 0-13.314 9.692-25.04 24.33-34.344 42.524-13.539-2.959-27.978-4.558-42.967-4.558s-29.428 1.599-42.967 4.558c-9.305-18.194-21.031-32.833-34.344-42.524-1.741-1.268-4.113-1.268-5.855 0-29.798 21.691-51.641 68.161-56.193 123.822-.423 3.009-.64 6.059-.64 9.144 0 .334.003.668.008 1.002-.003.063-.006.127-.008.19h.011c.941 51.918 63.255 93.808 139.989 93.808s139.048-41.89 139.989-93.808h.011c-.004-.064-.007-.127-.01-.191z" fill="#463b83"/><path d="m458.05 181.235c-23.321 11.788-52.235 18.765-83.55 18.765-76.734 0-139.048-41.89-139.989-93.808h-.011c.003-.063.006-.127.008-.19-.005-.333-.008-.667-.008-1.002 0-3.084.217-6.134.64-9.144 2.936-35.899 13.065-67.975 27.881-92.046-1.222-.996-2.458-1.95-3.709-2.861-1.747-1.271-4.124-1.258-5.871.013-29.79 21.697-51.625 68.159-56.176 123.81-.423 3.009-.64 6.059-.64 9.144 0 .334.003.668.008 1.002-.003.063-.006.127-.008.19h.011c.853 47.06 52.132 85.882 118.869 92.734l-6.704 46.929c-1.248 8.738-8.732 15.229-17.559 15.229-4.344 0-8.537-1.594-11.784-4.48l-42.074-37.4c-12.02-10.684-26.139-18.234-41.157-22.383 2.311-3.611 3.898-7.017 4.618-9.903.366-1.468-.982-2.787-2.449-2.419-4.41 1.106-10.025 4.231-15.736 8.864-.102.083-.193.174-.274.27-.88-7.987-2.487-14.7-4.536-19.135-.671-1.452-2.766-1.458-3.437-.007-1.931 4.177-3.47 10.378-4.378 17.762-4.296-3.008-8.26-5.213-11.554-6.424-1.501-.552-2.981.925-2.43 2.425.598 1.626 1.438 3.416 2.498 5.329-6.426.633-12.84 1.874-19.159 3.74l-.032.01c-4.224 1.245-8.384-2.13-8.037-6.52l8.543-106.49c.603-7.515.088-14.956-1.484-22.128 5.218-.925 9.6-2.391 12.614-4.201 1.298-.78 1.273-2.669-.027-3.446-3.735-2.236-9.561-3.944-16.468-4.753-.216-.516-.264-.632-.48-1.148 4.601-5.886 7.913-11.38 9.504-15.712.548-1.493-.919-2.973-2.412-2.425-3.622 1.329-8.057 3.861-12.854 7.345-1.966-3.055-4.166-5.989-6.594-8.78-12.784-14.692-30.951-23.618-50.336-25.485l-24.555-2.366c-10.795-1.04-20.798 6.468-22.221 17.219-1.494 11.287 6.675 21.47 17.908 22.55l26.011 2.505c18.903 1.826 33.041 18.699 31.522 37.625l-8.544 106.49c-.862 10.739.59 21.404 4.163 31.345-5.94 12.805-8.683 30.478-6.76 49.594 2.425 24.112 11.665 44.497 23.469 55.004 8.921 7.941 14.306 19.105 14.306 31.049v.473c-6.687.836-12.318 2.519-15.954 4.704-1.289.775-1.289 2.654 0 3.429 3.636 2.185 9.267 3.868 15.954 4.704v2.542c-4.063 5.372-7.001 10.361-8.474 14.362-.553 1.502.923 2.991 2.425 2.439 1.829-.673 3.865-1.652 6.05-2.905v54.152c23.141 13.588 48.71 23.485 75.9 28.883 2.542-2.687 4.1-6.314 4.1-10.305 0-16.569-13.431-30-30-30h-10v-89.668c0-5.826 4.961-10.419 10.77-9.97l20.365 1.573c17.585 1.358 34.613 6.789 49.737 15.864 6.487 3.892 13.318 7.11 20.385 9.624 3.974 1.414 6.617 5.184 6.617 9.401v88.177c0 7.599 4.238 14.208 10.479 17.593 56.604-8.259 89.904-30.496 106.509-42.2-1.583-.258-3.207-.393-4.863-.393h-10v-35.459c0-1.401-.002-2.802-.005-4.202-.073-29.266-.904-58.516-2.491-87.721 7.105-.792 13.098-2.53 16.904-4.819 1.293-.778 1.288-2.648-.006-3.425-3.899-2.343-10.089-4.109-17.417-4.872-.083-.009-.165-.012-.246-.01-.003-.052-.007-.103-.01-.154 4.96-6.212 8.524-12.036 10.196-16.582.552-1.5-.926-2.981-2.426-2.429-2.559.941-5.524 2.482-8.734 4.534-1.75-24.701-4.041-49.363-6.872-73.969 39.558-5.634 72.973-22.597 92.531-45.657zm-121.425 277.317c-3.708-1.64-7.81-2.552-12.125-2.552h-10v-53.875c0-6.697 5.429-12.125 12.125-12.125 5.523 0 10 4.477 10 10z" fill="#012d4e"/><path d="m160.167 285.333c0 16.753-9.701 30.333-21.667 30.333s-21.667-13.581-21.667-30.333c0-16.753 9.7-30.333 21.667-30.333s21.667 13.581 21.667 30.333zm24.333 8.767c-6.489 0-11.75 7.365-11.75 16.45s5.261 16.45 11.75 16.45 11.75-7.365 11.75-16.45-5.261-16.45-11.75-16.45zm29.596-36.876c-4.379 0-7.929 4.97-7.929 11.101s3.55 11.101 7.929 11.101 7.929-4.97 7.929-11.101-3.55-11.101-7.929-11.101z" fill="#013f69"/><path d="m334.992 154.863c-.81 3.016-3.743 5.047-6.928 4.643-31.204-3.961-76.35 9.069-100.643 29.049-.936.77-2.025 1.226-3.143 1.383-2.117.297-4.334-.482-5.792-2.254-2.227-2.708-1.837-6.708.87-8.935 16.358-13.454 40.517-23.884 64.751-29.06-22.158-1.298-45.426 1.719-62.421 9.052-.82.354-1.673.521-2.512.521-2.457 0-4.796-1.435-5.831-3.835-1.389-3.219.095-6.955 3.314-8.343 32.19-13.888 82.621-13.888 114.81 0 3.032 1.309 4.524 4.699 3.525 7.779zm121.602-7.778c-32.19-13.888-82.621-13.888-114.81 0-3.032 1.308-4.524 4.699-3.526 7.779.81 3.016 3.743 5.047 6.928 4.643 31.204-3.961 76.35 9.069 100.643 29.049.936.77 2.025 1.226 3.143 1.383 2.117.297 4.334-.482 5.792-2.254 2.227-2.708 1.837-6.708-.87-8.935-16.358-13.454-40.517-23.884-64.751-29.06 22.158-1.298 45.426 1.719 62.422 9.052.82.354 1.672.521 2.512.521 2.457 0 4.796-1.435 5.831-3.835 1.389-3.219-.095-6.955-3.314-8.343z" fill="#607882"/><path d="m353.751 190h-34.251c-2.761 0-5-2.239-5-5v-1.96c0-2.761 2.239-5 5-5h34.251c2.761 0 5 2.239 5 5v1.96c0 2.761-2.239 5-5 5z" fill="#012d4e"/><path d="m352.352 137.946c5.52.919 8.236 7.318 5.022 11.9-4.542 6.475-10.434 11.774-17.22 15.402-2.198 1.175-4.861 1.175-7.059 0-6.786-3.628-12.678-8.926-17.22-15.402-3.213-4.581-.497-10.98 5.022-11.9 4.991-.831 10.269-1.277 15.727-1.277s10.737.446 15.728 1.277zm89.397-84.991c-5.733-13.797-12.958-24.896-21.163-32.241-1.025-.918-2.57-.914-3.595.004-6.525 5.843-12.431 14.06-17.458 24.12-1.517 3.035.417 6.643 3.773 7.149 11.464 1.73 22.296 4.316 32.261 7.627 4.067 1.351 7.827-2.7 6.182-6.659zm-165.68-8.117c-5.028-10.06-10.933-18.277-17.458-24.12-1.025-.918-2.57-.922-3.596-.004-8.205 7.346-15.43 18.445-21.163 32.241-1.645 3.958 2.115 8.01 6.183 6.658 9.965-3.311 20.797-5.896 32.261-7.627 3.356-.506 5.29-4.113 3.773-7.148z" fill="#fd4fb6"/><path d="m319.841 178.04h13.568c-.745 10.039-3.341 18.266-6.784 21.96-3.443-3.694-6.039-11.921-6.784-21.96zm20 0c.745 10.039 3.341 18.266 6.784 21.96 3.443-3.694 6.039-11.921 6.784-21.96z" fill="#fff5f5"/><path d="m265.58 85.375 45.364 4.124c3.619.329 6.486 3.322 6.494 6.955v.067c0 17.21-14.491 31.035-31.937 29.939-15.074-.947-27.268-13.311-28.024-28.396-.12-2.399.042-4.741.455-6.994.658-3.583 4.02-6.025 7.648-5.695zm142.091 0-45.364 4.124c-3.619.329-6.486 3.322-6.494 6.955v.067c0 17.21 14.491 31.035 31.937 29.939 15.074-.947 27.268-13.311 28.024-28.396.12-2.399-.042-4.741-.455-6.994-.658-3.583-4.02-6.025-7.648-5.695z" fill="#cd9e00"/><path d="m317.438 96.454v.067c0 5.094-1.27 9.892-3.51 14.094-4.731 2.523-10.217 3.815-16.031 3.45-15.041-.945-27.216-13.258-28.019-28.299l41.066 3.733c3.619.329 6.486 3.322 6.494 6.955zm38.375 0v.067c0 5.094 1.27 9.892 3.51 14.094 4.731 2.523 10.217 3.815 16.031 3.45 15.041-.945 27.216-13.258 28.019-28.299l-41.066 3.733c-3.619.329-6.486 3.322-6.494 6.955z" fill="#f5c02c"/><path d="m297.438 97.142c0 6.897-2.9 12.795-7.001 15.192-4.101-2.396-7.001-8.295-7.001-15.192s2.9-12.795 7.001-15.192c4.101 2.396 7.001 8.295 7.001 15.192zm78.375 1.792c0 6.897 2.9 12.795 7.001 15.192 4.101-2.396 7.001-8.295 7.001-15.192s-2.9-12.795-7.001-15.192c-4.101 2.396-7.001 8.295-7.001 15.192z" fill="#012d4e"/><path d="m324.117 93.666c0 3.544-3.167 6.25-6.668 5.698l-32.515-5.133c-11.055-1.745-20.83-8.148-26.846-17.585-1.448-2.271.598-5.151 3.219-4.532l19.643 4.636 1.737-6.896c.493-1.957 2.738-2.879 4.464-1.833l34.187 20.712c1.725 1.045 2.779 2.916 2.779 4.933zm87.827-21.552-19.643 4.636-1.737-6.896c-.493-1.957-2.738-2.879-4.464-1.833l-34.187 20.712c-1.725 1.045-2.779 2.916-2.779 4.934 0 3.544 3.167 6.25 6.668 5.698l32.515-5.133c11.055-1.745 20.83-8.148 26.846-17.585 1.447-2.272-.598-5.152-3.219-4.533z" fill="#607882"/></g></svg>