<svg id="Capa_1" enable-background="new 0 0 501 501" height="512" viewBox="0 0 501 501" width="512" xmlns="http://www.w3.org/2000/svg"><g><path d="m490.003 250.5c0 135.31-109.691 245-245.002 245s-245.001-109.69-245.001-245 109.691-245 245.002-245 245.001 109.69 245.001 245z" fill="#f57e00"/><path d="m436.253 185.941c0 3.23-.002 6.638-.164 9.811-5.087 99.925-89.382 170.944-191.087 170.944-104.935 0-190.002-85.066-190.002-190 0-47.976 17.782-91.798 47.114-125.237 40.221-28.924 89.565-45.959 142.888-45.959s102.667 17.035 142.887 45.959c29.332 33.439 48.364 86.506 48.364 134.482z" fill="#fd9d01"/><path d="m218.042 107.884c-7.603 12.633-21.784 20.858-37.802 19.938-20.726-1.191-37.551-18.017-38.742-38.743-.92-16.018 7.305-30.198 19.938-37.801 1.559-.938 3.483.521 2.96 2.264-1.338 4.462-1.941 9.242-1.668 14.199 1.145 20.802 18.043 37.702 38.845 38.85 4.959.274 9.741-.329 14.204-1.668 1.744-.522 3.204 1.402 2.265 2.961z" fill="#fdf7bd"/><path d="m356.12 468.911c-4.802 2.448-9.696 4.742-14.674 6.876-.015-.012-.031-.023-.046-.036-.618-.507-1.23-1.001-1.469-1.191-3.252-2.58-12.165-.17-18.161 2.724-1.717.829-3.638-.677-3.236-2.541 1.412-6.551 1.978-15.586-1.283-18.173-.281-.223-1.364-1.07-2.338-1.819-.908-.699-1.17-1.939-.654-2.962 2.213-4.382 3.34-10.144-2.082-14.263 12.468-.845 13.988 11.532 14.373 11.837 3.452 2.738 2.917 9.841 2.912 14.539 4.574-1.074 11.368-3.212 14.82-.473.31.246 7.368-.441 11.838 5.482z" fill="#d54d00"/><path d="m223.003 430.59c-6.503.067-8.802 6.017-9.285 11.03-.109 1.133-.985 2.038-2.118 2.15-.795.079-1.578.162-1.881.197-4.124.476-8.722 8.482-10.915 14.768-.628 1.8-3.051 2.093-4.085.491-3.633-5.63-9.622-12.42-13.757-11.943-.356.041-1.721.208-2.94.366-1.136.148-2.199-.544-2.557-1.632-1.534-4.663-4.811-9.535-11.558-8.613 8.219-9.414 18.046-1.737 18.534-1.793 4.377-.505 9.021 4.896 12.34 8.221 2.475-3.993 5.768-10.309 10.145-10.814.488-.056 7.324-8.497 18.077-2.428z" fill="#a62b2b"/><path d="m500.985 196.548c-.184 3.699-2.288 6.884-5.415 8.532-16.782 8.841-56.277 35.289-61.551 49.779-8.722 23.964-1.152 49.887 17.054 65.633 2.413 2.087 3.317 5.428 2.225 8.427l-.461 1.266c-1.171 3.217-4.71 4.902-7.94 3.769-.164-.057-.328-.114-.493-.17-30.168-10.279-63.472 5.273-74.956 35.003-3.155 8.168-4.397 16.587-3.951 24.773.249 4.573-2.667 8.87-7.151 9.801-3.337.693-6.735-.495-8.839-3.028-6.537-7.868-15.183-14.16-25.489-17.911-27.991-10.188-58.654 1.852-72.652 27.104-.585 1.055-1.425 2.931-2.254 4.897-1.743 4.134-6.12 6.505-10.531 5.685-3.691-.687-6.637-3.476-7.513-7.126-2.878-11.988-11.523-22.351-23.976-26.883-5.411-1.97-10.979-2.633-16.359-2.152-14.335 19.384-32.242 32.98-50.41 38.399-4.204 1.254-8.749-.4-11.163-4.063-10.435-15.83-15.412-37.756-13.934-61.819-3.813-3.826-8.504-6.897-13.916-8.867-10.485-3.816-21.56-2.731-30.714 2.085-3.937 2.072-10.82 3.727-15.269 3.727-3.906-2.207-5.735-6.837-4.413-11.124.629-2.04 1.191-4.016 1.421-5.201 5.509-28.342-10.241-57.275-38.232-67.463-4.489-1.634-9.047-2.696-13.594-3.223-.338-5.255-.509-10.556-.509-15.898 0-66.38 26.399-126.594 69.271-170.717l14.022 16.864c10.253 12.331 16.405 27.553 17.599 43.545l2.176 29.148c1.109 14.862 6.504 29.084 15.53 40.944l38.561 50.668c5.001-5.006 10.262-9.385 15.682-13.065-16.109-15.368-22.534-39.374-14.432-61.635 4.37-12.006 12.303-21.684 22.17-28.276 1.449-.968 3.355.238 3.093 1.961-1.571 10.368.674 20.742 5.92 29.377 8.026-1.611 18.064-.768 28.166 2.908 10.102 3.677 18.334 9.483 23.446 15.876 9.569-3.243 17.957-9.747 23.418-18.699.908-1.488 3.142-1.187 3.63.486 3.322 11.392 3.178 23.906-1.192 35.911-8.102 22.26-28.455 36.521-50.674 37.938 1.786 6.303 3.001 13.04 3.615 20.089l62.11-14.028c14.538-3.283 27.811-10.711 38.215-21.383l20.403-20.93c11.194-11.483 25.691-19.189 41.471-22.045l106.556-19.281c6.841-1.234 12.575 3.448 12.229 10.392z" fill="#463b83"/><path d="m284.753 114.551c15.198-17.407 34.97 5.009 35.872 4.905 5.28-.609 10.77 3.43 15.653 8.018-1.07-2.625-1.883-5.811-2.284-9.286-.364-3.157-.342-6.158-.002-8.78 1.886 5.031 4.695 8.239 7.453 7.921s4.764-4.081 5.454-9.409c.928 2.476 1.632 5.393 1.996 8.55.401 3.475.334 6.762-.11 9.563 3.71-5.579 8.137-10.762 13.417-11.37.902-.104 11.943-23.935 31.827-12.712-12.026.123-16.276 11.127-17.169 20.395-.202 2.095-1.822 3.769-3.916 3.976-1.471.145-2.918.3-3.478.364-7.625.879-16.128 15.684-20.184 27.308-1.162 3.328-5.642 3.871-7.554.909-6.719-10.411-17.794-22.966-25.439-22.084-.658.076-3.182.384-5.436.677-2.1.273-4.066-1.006-4.728-3.018-2.836-8.624-8.896-17.632-21.372-15.927zm-45.039-61.852c-.516 1.022-.254 2.263.654 2.962.974.75 2.057 1.597 2.338 1.82 3.261 2.587 2.695 11.622 1.283 18.173-.402 1.864 1.519 3.37 3.236 2.541 5.996-2.894 14.909-5.304 18.161-2.724.239.19.851.684 1.469 1.191.88.722 2.14.701 3.018-.023 3.885-3.203 9.719-5.785 14.365-1.234-3.312-11.895-14.115-10.76-14.5-11.066-3.452-2.738-10.246-.6-14.82.473.005-4.698.54-11.801-2.912-14.539-.385-.305-1.905-12.682-14.373-11.837 5.422 4.119 4.294 9.881 2.081 14.263zm-43.58 201.399c4.108-3.44 4.771-9.41 1.592-13.723-10.656-14.457-14.395-33.61-8.595-51.839-4.914-8.475-6.982-18.537-5.459-28.593.261-1.726-1.642-2.936-3.093-1.966-9.867 6.592-17.8 16.27-22.17 28.276-8.102 22.26-1.677 46.267 14.432 61.635-16.213 11.01-31.002 28.272-41.679 49.846-1.597 3.228-5.983 3.796-8.298 1.037-41.209-49.092-66.027-112.406-66.027-181.517 0-8.412.368-16.738 1.088-24.964-36.135 42.685-57.925 97.903-57.925 158.21 0 5.342.171 10.643.508 15.9 4.547.527 9.105 1.589 13.594 3.223 27.991 10.188 43.741 39.121 38.232 67.463-.23 1.184-.792 3.161-1.421 5.201-1.322 4.287.507 8.917 4.413 11.124 4.449 0 11.332-1.655 15.269-3.727 9.154-4.816 20.228-5.902 30.714-2.085 5.411 1.969 10.103 5.041 13.916 8.867-1.478 24.062 3.499 45.987 13.932 61.816 2.433 3.691 7.017 5.309 11.252 4.039 6.01-1.801 11.991-4.498 17.823-8.002-14.221-25.019-16.147-62.861-2.474-100.429 9.135-25.099 23.682-45.815 40.376-59.792zm292.619-67.938-52.646 9.526c-28.03 104.441-123.359 181.332-236.647 181.332-.013 0-.026 0-.039 0-2.373 0-4.604 1.136-5.95 3.09-.898 1.303-1.811 2.583-2.74 3.839 5.38-.48 10.948.183 16.359 2.152 12.351 4.495 20.956 14.725 23.903 26.588.783 3.153 2.945 5.863 5.995 6.983 4.908 1.804 10.169-.615 12.121-5.247.829-1.967 1.669-3.842 2.254-4.897 13.998-25.252 44.661-37.292 72.652-27.104 10.234 3.725 18.831 9.956 25.352 17.747 1.206 1.441 2.774 2.566 4.59 3.052 6.302 1.688 11.919-3.255 11.555-9.353-.494-8.282.739-16.81 3.934-25.081 11.484-29.73 44.788-45.282 74.956-35.003.165.056.329.113.493.17 3.23 1.133 6.77-.552 7.94-3.769l.461-1.266c1.091-2.998.188-6.339-2.225-8.427-18.205-15.747-25.776-41.669-17.054-65.633 5.274-14.49 44.769-40.938 61.551-49.779 3.127-1.647 5.231-4.833 5.415-8.531.347-6.944-5.388-11.627-12.23-10.389z" fill="#012d4e"/></g></svg>