<svg id="Capa_1" enable-background="new 0 0 501 501" height="512" viewBox="0 0 501 501" width="512" xmlns="http://www.w3.org/2000/svg"><g><path d="m0 256c0-135.133 109.404-244.714 244.471-244.999 135.483-.287 244.86 108.286 245.526 243.767.368 74.725-32.72 141.732-85.151 186.91-1.993 1.717-4.93 1.807-6.985.165-41.903-33.497-95.043-53.525-152.862-53.525-57.845 0-111.009 20.047-152.921 53.572-2.019 1.615-4.906 1.527-6.865-.16-52.176-44.93-85.213-111.472-85.213-185.73z" fill="#f52c2c"/><path d="m483.094 198c-26.051 107.315-122.767 187-238.094 187s-212.043-79.685-238.094-187c26.051-107.315 122.767-187 238.094-187s212.043 79.685 238.094 187z" fill="#fc5426"/><path d="m405 391v50.545c-29.902 25.809-66.11 44.511-106 53.484-1.13.254-2.115-1.393-3.25-1.154-7.659 1.608-15.971 2.521-23.875 3.396-1.081.12-1.79 2.463-2.875 2.568-7.896.768-15.902 1.161-24 1.161-61.153 0-117.074-22.405-160-59.455v-50.545c0-35.371 26.234-64.614 60.306-69.334-22.294-20.131-36.306-49.262-36.306-81.666v-15c0-8.284-6.716-15-15-15h-50.157c-8.198 0-14.843-6.646-14.843-14.843 0-3.34 1.127-6.583 3.198-9.204l107.797-136.387c24.943-30.269 62.72-49.566 105.005-49.566 75.111 0 136 60.889 136 136v104c0 32.404-14.012 61.535-36.306 81.666 34.072 4.72 60.306 33.963 60.306 69.334z" fill="#012d4e"/><path d="m405 391v50.545c-29.902 25.809-66.11 44.511-106 53.484-1.062.239-2.183-1.379-3.25-1.154-7.722 1.629-15.528 2.243-23.5 3.125-1.084.12-2.162 2.734-3.25 2.839-7.896.768-15.902 1.161-24 1.161-47.757 0-92.322-13.665-130-37.296v-72.704c0-38.66 31.34-70 70-70h30v-10.125c-.002-.001-.004-.002-.005-.003-28.978-19.811-47.995-53.121-47.995-90.872v-64c0-75.111 60.889-136 136-136 4.799 0 9.541.249 14.212.734 38.316 24.055 63.788 66.686 63.788 115.266v104c0 32.404-14.012 61.535-36.307 81.666 34.073 4.72 60.307 33.963 60.307 69.334z" fill="#463b83"/><path d="m150.277 374.992 6.082 109.481c-7.58-2.942-14.977-6.251-22.169-9.905l5.532-99.576c.156-2.801 2.472-4.992 5.277-4.992s5.123 2.191 5.278 4.992zm43.723 65.008c-2.805 0-5.122 2.191-5.277 4.992l-2.714 48.859c5.325 1.316 10.718 2.458 16.173 3.42l-2.904-52.279c-.156-2.801-2.473-4.992-5.278-4.992zm156.277-65.008c-.155-2.801-2.472-4.992-5.277-4.992s-5.122 2.191-5.277 4.992l-6.082 109.481c7.58-2.942 14.977-6.251 22.169-9.905zm-116.277-34.992c-2.805 0-5.122 2.191-5.277 4.992l-8.598 154.76c8.18.825 16.478 1.248 24.875 1.248.983 0 1.964-.006 2.943-.018l-8.666-155.99c-.155-2.801-2.472-4.992-5.277-4.992z" fill="#002c5d"/><path d="m215 322v-48.208h60v48.208c0 4.603-14.208 8.333-30.5 8.333s-29.5-3.73-29.5-8.333z" fill="#9bb9c3"/><path d="m351.475 145.158c2.313 5.174 3.525 10.773 3.525 16.441v29.401c-.003 6.302-2.508 12.345-6.964 16.802l-70.492 70.492c-17.974 17.974-47.114 17.974-65.088 0l-70.492-70.492c-4.456-4.456-6.961-10.5-6.964-16.802v-29.402c0-5.667 1.213-11.267 3.525-16.441 17.164-38.399 55.695-65.157 100.475-65.157h12c44.78 0 83.311 26.758 100.475 65.158z" fill="#9bb9c3"/><path d="m352.313 147.082c1.794 4.229 2.687 8.787 2.687 13.38v30.538c-.003 6.302-2.508 12.345-6.964 16.802l-70.492 70.492c-17.974 17.974-47.114 17.974-65.088 0l-33.334-33.334c-8.991-15.942-14.122-34.352-14.122-53.96v-40c0-19.177 4.908-37.208 13.535-52.906 17.35-11.437 38.13-18.094 60.465-18.094h12c45.525 0 84.59 27.656 101.313 67.082z" fill="#e1ebf0"/><path d="m227.277 144.208c1.753 4.378 2.723 9.187 2.723 14.234 0 20.296-15.67 36.75-35 36.75s-35-16.454-35-36.75c0-10.191 3.951-19.414 10.332-26.07 1.406-1.467 3.541-1.975 5.44-1.25l.944.361c14.76 5.641 30.332 8.867 46.118 9.555 1.976.086 3.707 1.333 4.443 3.17zm35.446 0c-1.753 4.378-2.723 9.187-2.723 14.234 0 20.296 15.67 36.75 35 36.75s35-16.454 35-36.75c0-10.191-3.951-19.414-10.332-26.07-1.406-1.467-3.541-1.975-5.44-1.25l-.944.361c-14.76 5.641-30.332 8.867-46.117 9.555-1.977.086-3.708 1.333-4.444 3.17zm-55.646 110.494c1.693 3.781 6.131 5.475 9.91 3.779 1.641-.735 3.405-1.39 5.264-1.966v3.485c0 4.142 3.358 7.5 7.5 7.5s7.5-3.358 7.5-7.5v-6.289c5.109-.44 10.391-.44 15.5 0v6.289c0 4.142 3.358 7.5 7.5 7.5s7.5-3.358 7.5-7.5v-3.485c1.859.576 3.622 1.231 5.263 1.966.995.446 2.036.657 3.062.657 2.865 0 5.602-1.651 6.849-4.437 1.693-3.78.001-8.218-3.779-9.91-3.482-1.56-7.324-2.835-11.394-3.827v-3.464c0-4.142-3.358-7.5-7.5-7.5s-7.5 3.358-7.5 7.5v1.147c-5.133-.381-10.367-.382-15.5 0v-1.147c0-4.142-3.358-7.5-7.5-7.5s-7.5 3.358-7.5 7.5v3.464c-4.07.992-7.912 2.268-11.395 3.828-3.781 1.692-5.474 6.129-3.78 9.91z" fill="#738c96"/><path d="m211.25 158.5c0 8.284-6.716 15-15 15s-15-6.716-15-15 6.716-15 15-15 15 6.716 15 15zm80-15c-8.284 0-15 6.716-15 15s6.716 15 15 15 15-6.716 15-15-6.716-15-15-15zm-58.126 74c4.142 0 7.5-3.358 7.5-7.5v-12.5c0-4.142-3.358-7.5-7.5-7.5-4.142 0-7.5 3.358-7.5 7.5v12.5c0 4.142 3.358 7.5 7.5 7.5zm23.75 0c4.142 0 7.5-3.358 7.5-7.5v-12.5c0-4.142-3.358-7.5-7.5-7.5-4.142 0-7.5 3.358-7.5 7.5v12.5c0 4.142 3.358 7.5 7.5 7.5z" fill="#012d4e"/><path d="m213.75 151c0 4.142-3.358 7.5-7.5 7.5s-7.5-3.358-7.5-7.5 3.358-7.5 7.5-7.5 7.5 3.358 7.5 7.5zm87.5-7.5c-4.142 0-7.5 3.358-7.5 7.5s3.358 7.5 7.5 7.5 7.5-3.358 7.5-7.5-3.358-7.5-7.5-7.5z" fill="#fff5f5"/><path d="m275.232 126.873c-8.477 3.586-19.354 5.379-30.232 5.379s-21.756-1.793-30.232-5.379c-2.543-1.075-3.733-4.009-2.657-6.553 1.076-2.543 4.008-3.735 6.553-2.656 14.277 6.038 38.398 6.038 52.672 0 2.543-1.079 5.478.113 6.553 2.656 1.076 2.544-.114 5.477-2.657 6.553zm-48.18-17.266c5.032 2.129 11.49 3.193 17.948 3.193s12.916-1.064 17.948-3.193c2.543-1.075 3.732-4.01 2.656-6.553s-4.011-3.735-6.553-2.656c-7.616 3.221-20.487 3.221-28.104 0-2.546-1.078-5.478.113-6.553 2.656s.115 5.478 2.658 6.553z" fill="#9bb9c3"/><path d="m284 319.5c8.284 0 15 6.716 15 15v160.529c-9.791 2.202-19.804 3.818-30 4.81v-165.339c0-8.284 6.716-15 15-15z" fill="#d98800"/><path d="m299 367v128.029c-4.945 1.112-9.947 2.075-15 2.883v-130.912c0-4.142 3.358-7.5 7.5-7.5s7.5 3.358 7.5 7.5z" fill="#f4aa39"/><path d="m501 335c0 2.761-2.239 5-5 5h-227v-54.801c0-9.65 8.979-16.789 18.381-14.614l199.005 46.034c8.555 1.98 14.614 9.6 14.614 18.381z" fill="#f7e6b0"/><path d="m499.874 328.576c-13.132.931-26.814 1.424-40.874 1.424-99.411 0-180-24.625-180-55 0-1.385.168-2.757.497-4.117 2.452-.775 5.15-.931 7.883-.298l199.005 46.035c6.372 1.473 11.358 6.075 13.489 11.956z" fill="#fff5f5"/></g></svg>