<svg id="Capa_1" enable-background="new 0 0 512 512" height="512" viewBox="0 0 512 512" width="512" xmlns="http://www.w3.org/2000/svg"><g><path d="m501 261.5c0 135.31-109.69 245-245 245s-245-109.69-245-245 109.69-245 245-245 245 109.69 245 245z" fill="#012d4e"/><path d="m496.107 212.539c-22.686 111.848-121.565 196.038-240.107 196.038s-217.421-84.189-240.107-196.039c22.686-111.849 121.565-196.038 240.107-196.038s217.421 84.189 240.107 196.039z" fill="#54469b"/><path d="m159.639 9.304c9.03 34.159 38.752 59.199 74.005 62.248-7.158 16.636-22.514 29.4-42.048 32.247-27.398 3.994-53.736-13.768-60.327-40.66-5.43-22.153 3.533-44.19 20.63-56.7 2.837-2.075 6.841-.534 7.74 2.865z" fill="#e31e7f"/><path d="m205.186 63.876c-7.096 7.224-16.506 11.624-26.83 11.624-22.091 0-40-20.147-40-45 0-4.051.476-7.976 1.368-11.709 3.35-4.711 7.451-8.894 12.175-12.35 2.837-2.076 6.841-.535 7.74 2.864 6.455 24.417 23.483 44.174 45.547 54.571zm154.915-57.436c-2.838-2.076-6.841-.535-7.74 2.864-9.03 34.159-38.752 59.199-74.005 62.249 7.158 16.636 22.514 29.399 42.048 32.247 27.398 3.994 53.736-13.768 60.327-40.66 5.431-22.153-3.532-44.189-20.63-56.7z" fill="#fd3980"/><path d="m360.101 6.44c.614.449 1.217.911 1.81 1.385 1.047 4.02 1.609 8.273 1.609 12.675 0 24.853-17.909 45-40 45-4.975 0-9.738-1.022-14.132-2.89 20.81-10.688 36.771-29.846 42.973-53.306.899-3.399 4.903-4.94 7.74-2.864z" fill="#e31e7f"/><path d="m473.027 320.892c-1.414 2.872-5.102 3.707-7.609 1.717-4.022-3.192-9.736-8.217-15.465-13.534-2.938 10.388-6.305 19.844-9.86 26.507-1.455 2.728-4.992 3.533-7.448 1.655-4.17-3.188-10.202-8.363-16.645-14.192v42.455c0 .201-.001.401-.002.601 3.134.253 5.891.854 8.024 1.885.391.189.606.632.514 1.057-.997 4.59-4.842 10.065-9.828 15.32.025.431.038.656.062 1.086 8.696 7.254 15.641 15.034 18.076 21.993.232.662.011 1.413-.579 1.793-5.524 3.563-14.29 5.421-24.159 6.033-7.976 24.392-21.655 46.203-39.462 63.857-9.461 4.907-19.284 9.216-29.416 12.875-25.984-9.384-54.01-14.5-83.23-14.5s-57.246 5.116-83.23 14.5c-10.133-3.659-19.955-7.968-29.416-12.875-29.243-28.992-47.354-69.193-47.354-113.625v-150c0-88.366 71.634-160 160-160 8.51 0 16.864.665 25.015 1.945 1.323-5.726 3.26-10.665 5.878-13.616.288-.325.773-.412 1.157-.208 4.298 2.289 8.681 7.779 12.477 14.311 9.579-6.646 19.24-11.427 26.777-11.875.702-.042 1.33.401 1.535 1.074 1.954 6.403 1.298 15.555-.891 25.418 28.583 14.414 52.252 37.149 67.825 65.022 10.655-2.192 22.069-2.825 28.249.163.391.189.607.632.514 1.057-1.034 4.759-5.127 10.469-10.381 15.897 9.001 7.413 16.228 15.413 18.706 22.546.231.663-.027 1.385-.618 1.765-4.588 2.95-11.403 4.729-19.226 5.597 1.957 9.999 2.983 20.331 2.983 30.903v48.813c16.819-12.022 34.256-22.885 42.955-21.834.748.09 1.34.695 1.429 1.443.484 4.081.012 11.518-1.195 20.583 11.049-7.564 21.731-13.644 27.448-12.955.571.069 1.018.519 1.086 1.09 1.251 10.492-5.851 50.284-14.696 68.253z" fill="#04d481"/><path d="m400 410.5c0 8.284-4.477 15-10 15s-10-6.716-10-15 4.477-15 10-15 10 6.716 10 15zm-45-75c-8.284 0-15 10.074-15 22.5s6.716 22.5 15 22.5 15-10.074 15-22.5-6.716-22.5-15-22.5zm35-100c5.523 0 10-6.716 10-15s-4.477-15-10-15-10 6.716-10 15 4.477 15 10 15zm-10 40c-11.046 0-20 13.432-20 30s8.954 30 20 30 20-13.432 20-30-8.954-30-20-30zm-124-170c-57.99 0-105 47.01-105 105s47.01 105 105 105 105-47.01 105-105-47.01-105-105-105zm-126 260v-30c11.046 0 20-13.432 20-30s-8.954-30-20-30v-60c0-82.623 62.627-150.618 143-159.107-5.586-.59-11.257-.893-17-.893-37.835 0-72.602 13.133-99.992 35.087-15.509-5.473-31.969-8.675-41.851-5.639-.664.204-1.077.86-1.034 1.554.459 7.533 5.235 17.181 11.873 26.747-6.531 3.796-12.022 8.178-14.311 12.477-.204.384-.118.868.207 1.156 2.106 1.869 5.227 3.391 8.924 4.59-15.101 24.421-23.816 53.207-23.816 84.028v48.813c-16.819-12.022-34.256-22.885-42.954-21.835-.748.09-1.34.695-1.429 1.443-.484 4.081-.012 11.518 1.195 20.583-11.049-7.564-21.731-13.644-27.448-12.955-.571.069-1.018.519-1.086 1.09-1.251 10.492 5.85 50.285 14.695 68.253 1.414 2.872 5.102 3.707 7.609 1.717 4.022-3.192 9.736-8.217 15.465-13.534 2.938 10.389 6.305 19.845 9.86 26.507 1.455 2.728 4.992 3.533 7.448 1.655 4.17-3.188 10.202-8.363 16.644-14.192v33.277c-11.713 6.43-21.826 14.097-25.823 21.604-.33.62-.204 1.375.321 1.841 5.646 5.015 15.86 8.468 27.336 10.542-1.934 7.303-2.718 14.284-1.297 18.941.127.416.532.697.966.671 1.391-.083 2.897-.402 4.484-.917 7.59 26.923 22.049 50.968 41.367 70.12 9.462 4.908 19.284 9.216 29.417 12.875 4.511-1.629 9.083-3.13 13.712-4.497-34.555-29.347-56.482-73.113-56.482-122.002z" fill="#0ab59e"/><path d="m73.982 253.99c-2.628 16.357-9.413 36.634-18.237 43.586-.435.343-1.055.343-1.49 0-5.856-4.614-10.814-15.095-14.255-26.405-3.441 11.31-8.399 21.792-14.255 26.405-.435.343-1.055.343-1.49 0-8.824-6.952-15.609-27.229-18.237-43.586 4.914-1.745 24.546-2.014 33.982-.804 9.436-1.209 29.068-.941 33.982.804zm398.018-.804c-9.436-1.209-29.068-.941-33.982.804 2.628 16.357 9.413 36.634 18.237 43.586.435.343 1.055.343 1.49 0 5.856-4.614 10.814-15.095 14.255-26.405 3.441 11.31 8.399 21.792 14.255 26.405.435.343 1.055.343 1.49 0 8.824-6.952 15.61-27.229 18.237-43.586-4.914-1.745-24.545-2.013-33.982-.804z" fill="#fff5f5"/><path d="m80 240.5v22.333c0 8.284-6.716 15-15 15-5.218 0-9.813-2.664-12.5-6.706-2.687 4.042-7.282 6.706-12.5 6.706s-9.813-2.664-12.5-6.706c-2.687 4.042-7.282 6.706-12.5 6.706-8.284 0-15-6.716-15-15v-22.333c0-8.284 6.716-15 15-15 5.218 0 9.813 2.664 12.5 6.706 2.687-4.042 7.282-6.706 12.5-6.706s9.813 2.664 12.5 6.706c2.687-4.042 7.282-6.706 12.5-6.706 8.284 0 15 6.716 15 15zm417-15c-5.218 0-9.813 2.664-12.5 6.706-2.687-4.042-7.282-6.706-12.5-6.706s-9.813 2.664-12.5 6.706c-2.687-4.042-7.282-6.706-12.5-6.706-8.284 0-15 6.716-15 15v22.333c0 8.284 6.716 15 15 15 5.218 0 9.813-2.664 12.5-6.706 2.687 4.042 7.282 6.706 12.5 6.706s9.813-2.664 12.5-6.706c2.687 4.042 7.282 6.706 12.5 6.706 8.284 0 15-6.716 15-15v-22.333c0-8.284-6.716-15-15-15z" fill="#89e9d9"/><path d="m80 243.333v19.5c0 8.284-6.716 15-15 15-5.218 0-9.813-2.664-12.5-6.706-2.687 4.042-7.282 6.706-12.5 6.706s-9.813-2.664-12.5-6.706c-2.687 4.042-7.282 6.706-12.5 6.706-8.284 0-15-6.716-15-15v-19.5c0 8.284 6.716 15 15 15 5.218 0 9.813-2.664 12.5-6.706 2.687 4.042 7.282 6.706 12.5 6.706s9.813-2.664 12.5-6.706c2.687 4.042 7.282 6.706 12.5 6.706 8.284 0 15-6.715 15-15zm417 15c-5.218 0-9.813-2.664-12.5-6.706-2.687 4.042-7.282 6.706-12.5 6.706s-9.813-2.664-12.5-6.706c-2.687 4.042-7.282 6.706-12.5 6.706-8.284 0-15-6.716-15-15v19.5c0 8.284 6.716 15 15 15 5.218 0 9.813-2.664 12.5-6.706 2.687 4.042 7.282 6.706 12.5 6.706s9.813-2.664 12.5-6.706c2.687 4.042 7.282 6.706 12.5 6.706 8.284 0 15-6.716 15-15v-19.5c0 8.285-6.716 15-15 15z" fill="#69c3da"/><path d="m337.689 210.5c0 46.944-38.056 85-85 85s-85-38.056-85-85 38.056-85 85-85 85 38.056 85 85z" fill="#f5dc90"/><path d="m337.689 210.5c0 16.947-4.96 32.735-13.507 45.993-13.257 8.547-29.046 13.507-45.993 13.507-46.944 0-85-38.056-85-85 0-16.947 4.96-32.735 13.507-45.993 13.258-8.547 29.046-13.507 45.993-13.507 46.944 0 85 38.056 85 85z" fill="#fdf7bd"/><path d="m317.959 210.5c0 36.048-29.222 65.27-65.27 65.27s-65.27-29.222-65.27-65.27 29.223-65.27 65.27-65.27 65.27 29.222 65.27 65.27z" fill="#54469b"/><path d="m317.959 210.5c0 12.128-3.308 23.483-9.071 33.213-9.73 5.763-21.085 9.071-33.213 9.071-36.048 0-65.27-29.223-65.27-65.27 0-12.128 3.308-23.483 9.071-33.213 9.73-5.763 21.085-9.071 33.213-9.071 36.048 0 65.27 29.222 65.27 65.27z" fill="#915cb3"/><path d="m278.23 210.5c0 14.106-11.435 25.541-25.541 25.541s-25.541-11.435-25.541-25.541 11.435-25.541 25.541-25.541 25.541 11.435 25.541 25.541z" fill="#012d4e"/><path d="m281.351 193.189c0 6.269-5.082 11.351-11.351 11.351s-11.351-5.082-11.351-11.351 5.082-11.351 11.351-11.351 11.351 5.082 11.351 11.351z" fill="#b0dde9"/><path d="m302 455.5h-92c-27.614 0-50-22.386-50-50v-30c0-27.614 22.386-50 50-50h92c27.614 0 50 22.386 50 50v30c0 27.614-22.386 50-50 50z" fill="#f02399"/><path d="m248 455.5h-38c-27.614 0-50-22.386-50-50v-30c0-27.614 22.386-50 50-50h38c-27.614 0-50 22.386-50 50v30c0 27.614 22.386 50 50 50z" fill="#c43286"/><path d="m302 435.5h-92c-16.569 0-30-13.431-30-30v-30c0-16.569 13.431-30 30-30h92c16.569 0 30 13.431 30 30v30c0 16.569-13.431 30-30 30z" fill="#fd4fb6"/><path d="m272 435.5h-32c-16.569 0-30-13.431-30-30 0-16.569 13.431-30 30-30h32c16.569 0 30 13.431 30 30 0 16.569-13.431 30-30 30z" fill="#852d4c"/><path d="m286.833 431.833h-63.667c-7.272 0-13.167-5.895-13.167-13.167 0-7.272 5.895-13.167 13.167-13.167h63.667c7.272 0 13.167 5.895 13.167 13.167 0 7.272-5.895 13.167-13.167 13.167zm-1.833-53.833v-25c0-4.142-3.358-7.5-7.5-7.5-4.142 0-7.5 3.358-7.5 7.5v25c0 4.142 3.358 7.5 7.5 7.5 4.142 0 7.5-3.358 7.5-7.5z" fill="#fff5f5"/><path d="m318.513 430.55c-4.736 3.128-10.412 4.95-16.513 4.95h-92c-6.101 0-11.776-1.821-16.513-4.95 5.848-11.712 12.51-21.321 19.769-27.039 1.008-.794 2.445-.794 3.453 0 6.853 5.399 13.176 14.268 18.782 25.099 5.607-10.832 11.929-19.7 18.782-25.099 1.008-.794 2.445-.794 3.453 0 6.853 5.399 13.176 14.268 18.782 25.099 5.607-10.832 11.929-19.7 18.782-25.099 1.008-.794 2.445-.794 3.453 0 7.259 5.718 13.922 15.327 19.77 27.039zm-105.257-53.061c1.008.794 2.445.794 3.453 0 6.853-5.399 13.176-14.268 18.782-25.1 5.607 10.832 11.929 19.7 18.782 25.1 1.008.794 2.445.794 3.453 0 6.853-5.399 13.176-14.268 18.782-25.1 5.607 10.832 11.929 19.7 18.782 25.1 1.008.794 2.445.794 3.453 0 7.258-5.718 13.921-15.327 19.768-27.039-4.736-3.128-10.412-4.95-16.513-4.95h-92c-6.101 0-11.776 1.821-16.513 4.95 5.85 11.712 12.513 21.321 19.771 27.039z" fill="#fdc273"/><path d="m235 465.5c-4.142 0-7.5-3.358-7.5-7.5v-45c0-4.142 3.358-7.5 7.5-7.5 4.142 0 7.5 3.358 7.5 7.5v45c0 4.142-3.358 7.5-7.5 7.5zm10 18.5c0-5.523-4.477-10-10-10-5.523 0-10 4.477-10 10 0 5.523 4.477 10 10 10 5.523 0 10-4.477 10-10z" fill="#fff5f5"/><path d="m153.124 190.009c9.531-48.18 52.024-84.509 103.001-84.509s93.47 36.329 103.001 84.509c-27.746-15.597-63.709-25.009-103.001-25.009s-75.255 9.412-103.001 25.009z" fill="#01988c"/><path d="m256.125 105.5c7.102 0 14.038.705 20.744 2.049-19.592 3.926-37.214 13.306-51.215 26.488 2.655 2.552 4.346 6.404 4.346 10.713 0 7.686-5.379 13.917-12.014 13.917-3.544 0-6.729-1.777-8.928-4.604-3.547 5.555-6.587 11.465-9.052 17.666-17.258 4.3-33.085 10.526-46.881 18.281 9.53-48.181 52.022-84.51 103-84.51zm2.524 15.333c-4.658 0-8.435 4.477-8.435 10 0 5.522 3.776 10 8.435 10s8.435-4.478 8.435-10c-.001-5.522-3.777-10-8.435-10zm35.101 20.667c-4.061 0-7.354 3.813-7.354 8.518 0 4.704 3.292 8.518 7.354 8.518s7.354-3.813 7.354-8.518-3.293-8.518-7.354-8.518z" fill="#037e73"/></g></svg>