<svg id="Capa_1" enable-background="new 0 0 501 501" height="512" viewBox="0 0 501 501" width="512" xmlns="http://www.w3.org/2000/svg"><g><path d="m5.5 256c0-135.133 109.403-244.713 244.469-244.999 134.941-.287 244.111 107.452 245.517 242.387.774 74.282-31.513 141.042-83.053 186.471-1.852 1.633-4.62 1.724-6.528.157-42.287-34.734-96.411-55.586-155.405-55.586-59.061 0-113.241 20.898-155.548 55.703-1.791 1.474-4.388 1.481-6.13-.05-51.083-44.9-83.322-110.727-83.322-184.083z" fill="#f19b0b"/><path d="m487.324 193c-27.802 104.781-123.295 182-236.824 182s-209.022-77.219-236.824-182c27.802-104.781 123.295-182 236.824-182s209.022 77.219 236.824 182z" fill="#f5c02c"/><path d="m276.5 70h-52c-8.284 0-15-6.716-15-15v-40c0-8.284 6.716-15 15-15h52c8.284 0 15 6.716 15 15v40c0 8.284-6.716 15-15 15z" fill="#a62b2b"/><path d="m276.5 70h-17c-8.284 0-15-6.716-15-15v-40c0-8.284 6.716-15 15-15h17c8.284 0 15 6.716 15 15v40c0 8.284-6.716 15-15 15z" fill="#c64b1a"/><path d="m426.05 297.467-13.325 142.134c-11.582 10.241-24.14 19.403-37.517 27.329-2.677 1.586-5.987 1.684-8.727.208-34.526-18.589-74.021-29.138-115.981-29.138-41.612 0-80.801 10.375-115.122 28.678-3.28 1.749-7.234 1.661-10.424-.246-13.064-7.811-25.339-16.803-36.679-26.831l-13.325-142.134c-4.399-46.926 32.519-87.467 79.651-87.467h49.899v-110h-5c-8.284 0-15-6.716-15-15v-30c0-8.284 6.716-15 15-15h102c8.284 0 15 6.716 15 15v30c0 8.284-6.716 15-15 15h-5v110h49.899c47.132 0 84.05 40.541 79.651 87.467z" fill="#463b83"/><path d="m184.5 85v-30c0-8.284 6.716-15 15-15h40c-8.284 0-15 6.716-15 15v30c0 8.284 6.716 15 15 15h5v120c0 11.046-8.954 20-20 20s-20-8.954-20-20v-120h-5c-8.284 0-15-6.716-15-15zm-56.989 249.11-4.466-47.643c-3.014-32.145 13.361-61.293 39.125-76.467h-7.568c-47.132 0-84.05 40.541-79.651 87.467l13.325 142.134c11.848 10.477 24.719 19.825 38.442 27.875 7.877 4.621 17.623-1.882 16.412-10.934-4.775-35.701-14.058-105.774-15.619-122.432z" fill="#012d4e"/><path d="m385.405 107.773-20.905 31.357 20.905 31.357c2.215 3.323-.167 7.774-4.16 7.774h-176.745v-78.261h176.744c3.994 0 6.376 4.451 4.161 7.773z" fill="#fc5426"/><path d="m244.5 178.261h-40v-78.261h40z" fill="#f52c2c"/><path d="m341.571 147.071c3.905 3.905 3.905 10.237 0 14.142s-10.237 3.905-14.142 0l-7.071-7.071-7.071 7.071c-3.905 3.905-10.237 3.905-14.142 0s-3.905-10.237 0-14.142l7.071-7.071-7.071-7.071c-3.905-3.905-3.905-10.237 0-14.142 3.905-3.905 10.237-3.905 14.142 0l7.071 7.071 7.071-7.071c3.905-3.905 10.237-3.905 14.142 0 3.905 3.905 3.905 10.237 0 14.142l-7.071 7.071z" fill="#fff5f5"/><path d="m386.196 360.92-9.877 105.348c-36.776 22.053-79.817 34.732-125.819 34.732s-89.043-12.679-125.819-34.732l-9.877-105.348c-1.239-13.212 3-25.893 11.935-35.705 7.652-8.403 17.721-13.573 28.791-14.884 3.784-15.243 17.557-26.54 33.97-26.54 16.294 0 29.987 11.134 33.886 26.208h2.374c-.823-3.196-1.26-6.547-1.26-10 0-22.091 17.909-40 40-40 17.929 0 33.102 11.795 38.184 28.049 5.864-3.372 12.663-5.3 19.912-5.3 19.629 0 35.955 14.139 39.351 32.788 4.544 2.461 8.699 5.708 12.314 9.679 8.935 9.812 13.174 22.493 11.935 35.705z" fill="#f02399"/><path d="m266.642 276.645c3.905-3.905 11.82-2.322 17.678 3.536s7.441 13.772 3.536 17.678-11.82 2.322-17.678-3.536c-5.858-5.859-7.441-13.773-3.536-17.678z" fill="#fd4fb6"/><path d="m386.536 347.917c-1.631-22.031-19.099-39.125-41.191-39.125-16.971 0-31.473 10.569-37.284 25.484-1.295 3.323-4.152 5.764-7.662 6.394-9.2 1.651-25.899 7.66-25.899 29.331 0 5.649-4.684 10.204-10.38 9.993-5.328-.197-9.608-4.733-9.62-10.064-.039-16.662-13.661-30.133-30.38-29.926-16.518.204-29.62 14.072-29.62 30.591v19.064c0 5.326-4.019 9.977-9.334 10.321-5.824.377-10.666-4.235-10.666-9.978v-20.83c0-16.043-12.579-29.605-28.616-30.044-16.639-.456-30.271 12.896-30.271 29.432 0 1.442.104 2.86.304 4.247l8.763 93.464c36.777 22.05 79.818 34.729 125.82 34.729s89.043-12.679 125.819-34.732l9.026-96.268s1.783-14.083 1.191-22.083zm-202.036 92.083c-5.523 0-10-4.477-10-10s4.477-10 10-10 10 4.477 10 10-4.477 10-10 10zm60-140c0 16.569-13.431 30-30 30s-30-13.431-30-30 13.431-30 30-30 30 13.431 30 30zm105-52.833c0 11.046-8.954 20-20 20s-20-8.954-20-20 8.954-20 20-20 20 8.954 20 20z" fill="#fd73c4"/><path d="m320.358 408.63c-8.284 0-15-6.715-15-15 0-8.284 6.716-15 15-15s15 6.716 15 15c0 8.285-6.716 15-15 15zm-75.858 31.37c-5.523 0-10 4.477-10 10s4.477 10 10 10 10-4.477 10-10-4.477-10-10-10zm85 0c-8.284 0-15 6.716-15 15s6.716 15 15 15 15-6.716 15-15-6.716-15-15-15z" fill="#fd4fb6"/><path d="m153.367 350.233c6.135 6.135 7.792 14.423 3.703 18.513s-12.378 2.432-18.512-3.703c-6.134-6.134-7.792-14.422-3.703-18.512s12.378-2.432 18.512 3.702zm216.3-25.763c-5.858-5.858-13.772-7.441-17.678-3.536-3.905 3.905-2.322 11.82 3.536 17.678s13.772 7.44 17.678 3.535c3.905-3.905 2.322-11.82-3.536-17.677zm-137.309-26.613c3.905-3.905 2.322-11.819-3.536-17.677s-13.772-7.441-17.678-3.536c-3.905 3.905-2.322 11.82 3.536 17.678s13.772 7.441 17.678 3.535zm94.905-66.261c-2.604 2.604-1.548 7.88 2.357 11.785s9.182 4.96 11.785 2.357c2.603-2.604 1.548-7.88-2.357-11.785s-9.181-4.96-11.785-2.357zm-106.118 120.546c-3.905 3.905-2.322 11.82 3.536 17.678s13.772 7.441 17.678 3.536c3.905-3.905 2.322-11.82-3.536-17.678-5.859-5.858-13.773-7.441-17.678-3.536z" fill="#fdf7bd"/></g></svg>