<svg id="Capa_1" enable-background="new 0 0 501 501" height="512" viewBox="0 0 501 501" width="512" xmlns="http://www.w3.org/2000/svg"><g><path d="m495.5 256c0 135.31-109.69 245-245 245s-245-109.69-245-245 109.69-245 245-245 245 109.69 245 245z" fill="#0ab59e"/><path d="m488.116 196.067c-26.736 106.338-122.982 185.068-237.616 185.068s-210.88-78.73-237.616-185.068c26.736-106.338 122.982-185.067 237.616-185.067s210.88 78.729 237.616 185.067z" fill="#0ed1b2"/><path d="m410.5 408.936v32.609c-42.926 37.05-98.847 59.455-160 59.455s-117.074-22.405-160-59.455v-32.609c0-38.66 31.34-70 70-70h180c38.66 0 70 31.339 70 70z" fill="#012d4e"/><path d="m410.5 408.936v32.609c-42.926 37.05-98.847 59.455-160 59.455-47.757 0-92.322-13.665-130-37.296v-54.768c0-38.66 31.34-70 70-70h150c38.66 0 70 31.339 70 70z" fill="#463b83"/><path d="m250.5 380c-23.738 0-43.275-17.98-45.737-41.064h91.475c-2.463 23.084-22 41.064-45.738 41.064z" fill="#a174be"/><path d="m160.5 406.5v77.441c-5.085-2.01-10.088-4.185-15-6.518v-70.923c0-4.142 3.358-7.5 7.5-7.5s7.5 3.358 7.5 7.5zm187.5-7.5c-4.142 0-7.5 3.358-7.5 7.5v77.441c5.085-2.01 10.088-4.185 15-6.518v-70.923c0-4.142-3.358-7.5-7.5-7.5z" fill="#012d4e"/><path d="m407.908 390h-314.816c3.212-11.458 9.267-21.728 17.355-30h280.106c8.089 8.272 14.144 18.542 17.355 30zm-317.408 30v21.545c3.372 2.91 6.823 5.729 10.352 8.455h299.297c3.528-2.726 6.98-5.545 10.352-8.455v-21.545zm160 81c35.384 0 69.016-7.501 99.393-21h-198.786c30.377 13.499 64.009 21 99.393 21z" fill="#f52c2c"/><path d="m410.5 420v21.545c-3.372 2.91-6.823 5.729-10.352 8.455h-279.648v-30zm-19.947-60h-250.106c-8.089 8.272-14.144 18.542-17.355 30h284.817c-3.212-11.458-9.267-21.728-17.356-30zm-140.053 141c35.384 0 69.016-7.501 99.393-21h-198.785c30.377 13.499 64.008 21 99.392 21z" fill="#fc5426"/><path d="m151.107 480h9.393v3.941c-3.164-1.251-6.295-2.565-9.393-3.941zm-5.607-30h15v-30h-15zm195 33.941c3.164-1.25 6.295-2.564 9.393-3.941h-9.393zm0-63.941v30h15v-30z" fill="#ee4424"/><path d="m250.5 380c-15.756 0-29.661-7.922-37.952-20h75.903c-8.29 12.078-22.195 20-37.951 20z" fill="#fc9368"/><path d="m140.5 248.936c-13.807 0-25-11.193-25-25v-10c0-13.807 11.193-25 25-25 13.807 0 25 11.193 25 25v10c0 13.807-11.193 25-25 25z" fill="#c68978"/><path d="m130.5 208.936v20c0 8.178 3.927 15.439 9.998 20-13.806-.001-24.998-11.194-24.998-25v-10c0-13.806 11.192-24.999 24.998-25-6.071 4.561-9.998 11.821-9.998 20zm230-20v-20c0-60.751-49.249-110-110-110-60.751 0-110 49.249-110 110v40c0 50.351 33.83 92.801 80 105.859v25.205c0 16.569 13.431 30 30 30 16.569 0 30-13.431 30-30v-25.205c33.586-9.499 60.641-34.551 72.895-66.883 2.252.666 4.637 1.024 7.105 1.024 13.807 0 25-11.193 25-25v-10c0-13.808-11.193-25-25-25z" fill="#b76c54"/><path d="m360.5 168.936v40c0 51.394-35.246 94.556-82.885 106.632-7.941 2.013-16.288 2.013-24.229 0-47.64-12.077-82.886-55.238-82.886-106.632v-40c0-55.663 41.345-101.669 95-108.985 53.655 7.315 95 53.321 95 108.985z" fill="#c68978"/><path d="m350.5 195c0 57.99-44.772 105-100 105s-100-47.01-100-105 44.772-105 100-105 100 47.01 100 105z" fill="#fadeb9"/><path d="m250.5 300c-16.784 0-32.602-4.342-46.491-12.014-20.663-19.998-33.509-48.024-33.509-79.051v-40c0-18.748 4.69-36.4 12.961-51.847 17.736-16.835 41.247-27.088 67.039-27.088 55.229 0 100 47.01 100 105s-44.772 105-100 105z" fill="#fff5f5"/><path d="m235.5 176.75c0 20.296-15.67 36.75-35 36.75s-35-16.454-35-36.75c0-20.297 15.67-36.75 35-36.75s35 16.453 35 36.75zm65-36.75c-19.33 0-35 16.453-35 36.75 0 20.296 15.67 36.75 35 36.75s35-16.454 35-36.75c0-20.297-15.67-36.75-35-36.75z" fill="#8279c0"/><path d="m234.161 218.8c-2.929-2.93-2.929-7.678 0-10.607 4.505-4.504 10.422-6.757 16.339-6.757s11.834 2.253 16.339 6.757c2.929 2.93 2.929 7.678 0 10.607-2.93 2.928-7.678 2.928-10.607 0-3.16-3.162-8.303-3.162-11.463 0-2.93 2.928-7.678 2.928-10.608 0zm62.339 37.281c0-8.967-6.513-16.412-15.066-17.864-.993-.169-1.331 1.095-2.372 1.095l-7.5-.25-2.002-1.101h-4.787l-1.773 1.289-7.937-.25-2.169-1.038h-4.786l-1.794 1.601-8.063-.188-2.023-1.413h-4.787l-1.752 1.476-8.438-.188c-1.043 0-.695-1.2-1.689-1.031-8.551 1.454-15.061 8.898-15.061 17.863 0 7.214 4.279 13.741 10.895 16.617 11.943 5.192 23.856 4.648 36.605 4.301 11.154-.303 23.157.241 33.605-4.301 6.615-2.877 10.894-9.404 10.894-16.618z" fill="#463b83"/><path d="m291.106 268.981c-1.561 1.54-3.414 2.811-5.501 3.718-1.391.605-2.793 1.172-4.206 1.701-.705.264-.939-.645-1.649-.4-2.452.848-5.415 1.208-7.917 1.833-.759.19-1.51 1.91-2.273 2.079-1.589.352-3.185.66-4.787.923-.591.097-1.182-1.008-1.774-.923-2.493.358-4.99.612-7.5.754-.866.049-1.74 1.277-2.607 1.301-1.595.043-3.191.043-4.786 0-.534-.015-1.573-1.693-2.107-1.718-2.805-.127-4.881.058-7.667-.338-.63-.09-1.479 1.026-2.108.923-1.601-.263-3.196-.57-4.783-.922-.792-.176-.821-1.466-1.609-1.663-2.685-.674-5.873-1.819-8.5-2.75-.492-.174-1.217 1.093-1.706.91-1.422-.532-2.833-1.103-4.232-1.711-2.086-.907-3.94-2.177-5.501-3.718 1.561-1.54 3.414-2.811 5.501-3.718 22.391-9.735 47.819-9.735 70.21 0 2.087.908 3.941 2.179 5.502 3.719z" fill="#012d4e"/><path d="m260.773 250h-3.88c-2.209 0-4-1.791-4-4v-8.038h11.88v8.038c0 2.209-1.79 4-4 4zm-7.88 29.967c3.975-.108 7.944-.485 11.88-1.132v-14.835c0-2.209-1.791-4-4-4h-3.88c-2.209 0-4 1.791-4 4zm-33.333-5.583c3.892 1.461 7.863 2.637 11.88 3.528v-13.912c0-2.209-1.791-4-4-4h-3.88c-2.209 0-4 1.791-4 4zm4-24.384h3.88c2.209 0 4-1.791 4-4v-8.038h-8.82c-1.043 0-2.065.088-3.06.258v7.78c0 2.209 1.791 4 4 4z" fill="#fbc56d"/><path d="m240.227 260h3.88c2.209 0 4 1.791 4 4v15.967c-3.975-.108-7.944-.485-11.88-1.132v-14.835c0-2.209 1.79-4 4-4zm0-10h3.88c2.209 0 4-1.791 4-4v-8.038h-11.88v8.038c0 2.209 1.79 4 4 4zm38.163-12.038h-8.83v8.038c0 2.209 1.791 4 4 4h3.88c2.209 0 4-1.791 4-4v-7.781c-.992-.168-2.01-.257-3.05-.257zm-8.83 39.95c4.018-.891 7.988-2.067 11.88-3.528v-10.384c0-2.209-1.791-4-4-4h-3.88c-2.209 0-4 1.791-4 4z" fill="#ffe899"/><path d="m218 176.436c0 8.284-6.716 15-15 15s-15-6.716-15-15 6.716-15 15-15 15 6.715 15 15zm80-15c-8.284 0-15 6.716-15 15s6.716 15 15 15 15-6.716 15-15-6.716-15-15-15z" fill="#012d4e"/><path d="m220.5 168.936c0 4.142-3.358 7.5-7.5 7.5s-7.5-3.358-7.5-7.5 3.358-7.5 7.5-7.5 7.5 3.357 7.5 7.5zm87.5-7.5c-4.142 0-7.5 3.358-7.5 7.5s3.358 7.5 7.5 7.5 7.5-3.358 7.5-7.5-3.358-7.5-7.5-7.5z" fill="#fff5f5"/><path d="m257.544 118.813c-17.203 6.995-39.144 11.187-63.044 11.187-16.088 0-31.289-1.9-44.754-5.275 17.022-38.737 55.729-65.79 100.754-65.79 50.733 0 93.443 34.345 106.151 81.052-29.961.346-57.004-6.557-75.727-17.74-9.199 5.444-20.682 9.892-33.711 12.974-2.006.474-3.342-2.058-1.803-3.43 4.445-3.962 8.509-8.306 12.134-12.978z" fill="#962437"/><path d="m356.651 139.987c-29.437.34-56.056-6.317-74.736-17.156-.618-.359-1.365-.36-1.985-.004-9.027 5.181-20.153 9.423-32.717 12.395-2.006.474-3.342-2.058-1.803-3.43 2.534-2.259 4.944-4.642 7.22-7.139 1.378-1.512-.184-3.882-2.122-3.226-15.98 5.412-35.256 8.573-56.008 8.573-5.671 0-11.232-.236-16.646-.69 14.175-36.693 47.457-63.88 87.646-69.36 9.618 1.311 18.84 3.866 27.5 7.497 30.955 12.978 54.717 39.704 63.651 72.54z" fill="#c92c2c"/><path d="m310.5 90h-120c-8.284 0-15-6.716-15-15v-60c0-8.284 6.716-15 15-15h120c8.284 0 15 6.716 15 15v60c0 8.284-6.716 15-15 15z" fill="#012d4e"/><path d="m310.5 90h-91c-8.284 0-15-6.716-15-15v-60c0-8.284 6.716-15 15-15h91c8.284 0 15 6.716 15 15v60c0 8.284-6.716 15-15 15z" fill="#463b83"/><path d="m325.5 90h-150c-1.105 0-2-.895-2-2v-36c0-1.105.895-2 2-2h150c1.105 0 2 .895 2 2v36c0 1.105-.895 2-2 2z" fill="#fc5426"/><path d="m204.5 90h-31v-38c0-1.105.895-2 2-2h29z" fill="#f52c2c"/><path d="m346.5 110h-192c-16.569 0-30-13.431-30-30 0-5.523 4.477-10 10-10h232c5.523 0 10 4.477 10 10 0 16.569-13.431 30-30 30z" fill="#012d4e"/><path d="m346.5 110h-162c-16.569 0-30-13.431-30-30 0-5.523 4.477-10 10-10h202c5.523 0 10 4.477 10 10 0 16.569-13.431 30-30 30z" fill="#463b83"/></g></svg>