<svg id="Capa_1" enable-background="new 0 0 501 501" height="512" viewBox="0 0 501 501" width="512" xmlns="http://www.w3.org/2000/svg"><g><path d="m166.425 486.193c-93.897-34.304-160.925-124.421-160.925-230.193 0-135.31 109.69-245 245-245s245 109.69 245 245c0 2.959-.053 5.906-.157 8.84-26.221-9.579-54.538-14.807-84.075-14.807-132.351 0-240.19 104.945-244.843 236.16z" fill="#056099"/><path d="m250.5 501c-88.285 0-165.664-46.697-208.784-116.738-4.714-18.977-7.216-38.827-7.216-59.262 0-135.31 109.69-245 245-245 88.285 0 165.664 46.697 208.784 116.738 4.714 18.977 7.216 38.827 7.216 59.262 0 59.754-21.391 114.511-56.934 157.032-2.809 3.36-8.834 1.764-11.816 4.968-44.731 48.059-105.416 83-176.25 83z" fill="#0571b3"/><path d="m438.612 413.071c-47.499 56.887-118.783 87.437-192.879 85.995-10.47-1.941-20.916-2.861-31.235-6.717-95.71-35.761-144.308-142.34-108.546-238.05s142.34-144.308 238.05-108.546 144.308 142.34 108.546 238.05c-3.856 10.32-8.536 20.091-13.936 29.268z" fill="#f5c02c"/><path d="m344.002 145.753c-35.884-13.408-73.295-14.958-107.93-6.612-29.012 20.676-52.375 49.937-65.782 85.821-35.761 95.71 12.836 202.289 108.546 238.05 8.508 3.179 17.103 5.692 25.725 7.564 35.2 7.642 72.062-1.154 99.933-23.972 12.331-10.096 23.794-21.199 34.121-33.535 5.399-9.177 10.078-18.947 13.933-29.266 35.762-95.71-12.836-202.288-108.546-238.05zm5.498 104.247c-13.807 0-25-11.193-25-25s11.193-25 25-25 25 11.193 25 25-11.193 25-25 25zm60 120c-13.807 0-25-11.193-25-25s11.193-25 25-25 25 11.193 25 25-11.193 25-25 25zm10-85c-11.046 0-20-8.954-20-20s8.954-20 20-20 20 8.954 20 20-8.954 20-20 20z" fill="#fded32"/><path d="m341.833 303.78h-61.333l-4-49.091 124.317-36.327c4.734-1.383 8.399 4.196 5.251 7.992z" fill="#f52c2c"/><path d="m159.167 303.78h61.333l4-49.091-124.317-36.327c-4.734-1.383-8.399 4.196-5.25 7.992z" fill="#c92c2c"/><path d="m410.5 368.945c0 49.938-36.056 92.723-85.33 100.798-75.52 12.377-173.139 12.361-197.032-1.44-13.399-7.739-25.997-16.71-37.639-26.758v-72.609c0-36.913 28.571-67.152 64.805-69.81l-60.373-72.771c-1.37-1.651-1.45-3.641-.713-5.247l103.226 77.828h143.056c38.66 0 70 31.344 70 70.009z" fill="#012d4e"/><path d="m410.5 368.936v72.609c-41.855 36.125-96.063 58.327-155.43 59.413-1.52.028-.085-.767-1.612-.767-1.141 0-5.03.182-6.167.167-.385-.005-.977.607-1.362.6-46.029-.842-88.957-14.378-125.43-37.255v-94.768c0-38.66 31.34-70 70-70h113.055l103.226-77.828c.737 1.606.657 3.596-.713 5.247l-60.373 72.771c36.235 2.659 64.806 32.897 64.806 69.811z" fill="#463b83"/><path d="m355.5 358.5v118.923c-4.912 2.333-9.915 4.508-15 6.518v-125.441c0-4.142 3.358-7.5 7.5-7.5s7.5 3.358 7.5 7.5zm-202.5-7.5c-4.142 0-7.5 3.358-7.5 7.5v118.923c4.912 2.333 9.915 4.508 15 6.518v-125.441c0-4.142-3.358-7.5-7.5-7.5z" fill="#012d4e"/><path d="m303.555 298.936-48.485 202.022c-1.52.028-3.043.042-4.57.042s-3.05-.015-4.57-.042l-48.485-202.022z" fill="#b1c9eb"/><path d="m376.5 110v20c0 60.751-49.249 110-110 110h-32c-60.751 0-110-49.249-110-110v-20c0-60.751 49.249-110 110-110h32c60.751 0 110 49.249 110 110z" fill="#f19b0b"/><path d="m284.503 1.466c52.187 8.592 91.997 53.914 91.997 108.534v20c0 60.751-49.249 110-110 110-60.751 0-110-49.249-110-110v-20c0-18.004 17.84-12.718 24.566-28.165 33.601-77.168 97.579-81.333 103.437-80.369z" fill="#f5c02c"/><path d="m155.483 207.433c-12.794 3.916-26.341-3.281-30.257-16.075l-17.914-58.524c-1.038-3.39 1.684-6.753 5.216-6.445l41.384 3.61 17.164 45.759c4.906 13.08-2.236 27.587-15.593 31.675z" fill="#eac0b5"/><path d="m329.924 175.759 17.165-45.759 41.384-3.61c3.531-.308 6.253 3.055 5.216 6.445l-17.914 58.524c-3.916 12.794-17.463 19.991-30.257 16.075-13.358-4.089-20.5-18.596-15.594-31.675z" fill="#eac0b5"/><path d="m360.5 128.936v40c0 50.351-33.83 92.801-80 105.859v25.205c0 16.848-13.889 30.453-30.843 29.988-16.341-.448-29.157-14.266-29.157-30.613v-24.581c-33.384-9.442-60.315-34.25-72.672-66.301-10.155-.235-19.466-6.891-22.602-17.136l-17.914-58.524c-1.038-3.39 1.684-6.753 5.216-6.444l1.913.167 26.067 43.682c-.005-.434-.008-.868-.008-1.303v-40c0-22.437 6.718-43.304 18.251-60.701 1.827-2.756 5.803-2.983 7.946-.465 20.177 23.707 50.234 38.744 83.804 38.744s63.627-15.038 83.804-38.744c2.143-2.518 6.119-2.291 7.946.465 11.532 17.398 18.249 38.265 18.249 60.702z" fill="#e1a595"/><path d="m360.5 128.936v40c0 50.76-34.381 93.489-81.127 106.171-9.079 2.463-18.667 2.463-27.746 0-46.746-12.682-81.127-55.411-81.127-106.171v-40c0-16.854 3.791-32.823 10.566-47.101 18.936 15.429 43.104 24.679 69.434 24.679 33.57 0 63.627-15.038 83.803-38.744 2.143-2.518 6.119-2.291 7.946.464 11.533 17.398 18.251 38.265 18.251 60.702z" fill="#f4e0d8"/><path d="m323.833 129.939c0 16.454-13.862 29.67-30.544 28.607-14.44-.92-26.096-12.81-26.758-27.267-.015-.327-.024-.652-.029-.977-.03-2.427 1.645-4.541 4.024-5.017l49.358-9.873c2.51 4.26 3.949 9.225 3.949 14.527zm-93.573-4.697-49.443-9.89c-2.656 4.484-4.124 9.753-3.973 15.377.395 14.685 12.144 26.896 26.803 27.818 16.671 1.049 30.52-12.163 30.52-28.608 0-.014 0-.028 0-.042-.004-2.276-1.676-4.209-3.907-4.655z" fill="#e1a595"/><path d="m218 145.021c0 8.284-6.716 15-15 15s-15-6.716-15-15c0-8.284 6.716-15 15-15s15 6.716 15 15zm80-15c-8.284 0-15 6.716-15 15 0 8.284 6.716 15 15 15s15-6.716 15-15c0-8.284-6.716-15-15-15z" fill="#c92222"/><path d="m307.036 122.745-40.529 7.276c-.942-2.599.438-5.464 3.057-6.348l22.171-7.485c7.633-2.577 14.5-7.023 19.975-12.933.68-.734 1.798-.853 2.617-.277l3.195 2.246 8.435-10.171c1.005-1.212 2.95-.841 3.44.654l3.785 11.56c.234.715.047 1.501-.484 2.034-6.975 7.004-15.933 11.697-25.662 13.444z" fill="#f19b0b"/><path d="m167.975 109.02c-.531-.533-.718-1.319-.484-2.034l3.785-11.56c.49-1.496 2.435-1.866 3.44-.654l8.435 10.171 3.195-2.246c.819-.575 1.937-.457 2.617.277 5.475 5.91 12.342 10.357 19.975 12.933l22.171 7.485c2.619.884 3.999 3.749 3.057 6.348l-40.529-7.276c-9.728-1.747-18.686-6.44-25.662-13.444z" fill="#d98800"/><path d="m282.132 222.456c-19.672 10.93-43.592 10.93-63.265 0-2.696-1.498-4.368-4.34-4.368-7.424 0-5.123 4.501-9.08 9.581-8.422l3.717.481 2.452 1.534c4.375.566 8.351.927 12.75 1.125.414.019 1.22-1.163 1.634-1.148 3.909.145 7.822.145 11.732 0 .724-.027 1.661.727 2.385.69 4.088-.208 9.058-.141 13.125-.667l1.329-1.535 3.715-.481c5.08-.657 9.581 3.299 9.581 8.422 0 3.085-1.672 5.927-4.368 7.425z" fill="#fd4343"/><path d="m276.263 225.341c-16.437 7.082-35.09 7.082-51.527 0 16.438-7.082 35.09-7.082 51.527 0z" fill="#a62b2b"/><path d="m266.839 182.826c-4.505 4.504-10.422 6.757-16.339 6.757s-11.834-2.253-16.339-6.757c-2.929-2.93-2.929-7.678 0-10.607 2.93-2.928 7.678-2.928 10.607 0 3.16 3.162 8.303 3.162 11.463 0 2.93-2.928 7.678-2.928 10.607 0 2.93 2.929 2.93 7.677.001 10.607z" fill="#e1a595"/><path d="m260.5 478.334-5.43 22.624c-1.52.028-3.043.042-4.57.042s-3.05-.015-4.57-.042l-5.43-22.624v-179.398h20z" fill="#e1ebf0"/><path d="m245.5 345c0-2.761 2.239-5 5-5s5 2.239 5 5-2.239 5-5 5-5-2.239-5-5zm5 21c-2.761 0-5 2.239-5 5s2.239 5 5 5 5-2.239 5-5-2.239-5-5-5zm0 26c-2.761 0-5 2.239-5 5s2.239 5 5 5 5-2.239 5-5-2.239-5-5-5zm0 26c-2.761 0-5 2.239-5 5s2.239 5 5 5 5-2.239 5-5-2.239-5-5-5zm0 26c-2.761 0-5 2.239-5 5s2.239 5 5 5 5-2.239 5-5-2.239-5-5-5zm0 26c-2.761 0-5 2.239-5 5s2.239 5 5 5 5-2.239 5-5-2.239-5-5-5z" fill="#528ed7"/><path d="m228.631 314.848 8.815-12.188 17.585 12.718c-1.117 9.525-5.089 18.507-11.416 25.756-6.774 7.76-10.848 17.507-11.61 27.779l-2.42 32.584c-.088 1.184-1.608 1.61-2.298.644l-1.786-2.499c-1.157-1.619-3.225-2.309-5.122-1.708l-14.584 4.614c-.856.271-1.716-.408-1.649-1.304l3.011-40.54c.763-10.272 4.837-20.019 11.61-27.779 4.593-5.265 7.944-11.442 9.864-18.077z" fill="#c92c2c"/><path d="m282.042 329.59c7.72 6.82 13.019 15.958 15.103 26.045l8.226 39.811c.182.88-.582 1.664-1.466 1.507l-15.058-2.69c-1.959-.35-3.92.602-4.859 2.356l-1.448 2.709c-.56 1.047-2.122.821-2.362-.341l-6.612-31.998c-2.084-10.087-7.384-19.226-15.104-26.045-7.211-6.37-12.31-14.763-14.649-24.064l15.794-14.885 10.316 10.946c2.761 6.332 6.883 12.024 12.119 16.649z" fill="#f52c2c"/><path d="m199.902 280.914 48.452 18.021-21.63 37.236c-1.27 2.185-3.97 3.08-6.293 2.084l-57.663-24.712c-3.605-1.545-4.109-6.449-.894-8.695l33.421-23.347c1.346-.94 3.068-1.159 4.607-.587zm145.575 23.773-39.872-23.479c-1.297-.764-2.869-.902-4.28-.377l-48.68 18.106 19.793 37.191c1.179 2.216 3.819 3.214 6.169 2.333l66.087-24.783c3.938-1.478 4.406-6.858.783-8.991z" fill="#e1ebf0"/><path d="m161.874 304.849 33.421-23.347c1.346-.94 3.068-1.16 4.606-.587l14.737 5.481-43.809 30.603-8.062-3.455c-3.604-1.545-4.108-6.449-.893-8.695z" fill="#b4d2d7"/><path d="m281 311c0 12.325-13.655 22.317-30.5 22.317s-30.5-9.992-30.5-22.317 13.655-22.317 30.5-22.317 30.5 9.992 30.5 22.317z" fill="#9bb9c3"/><path d="m270.833 311c0 8.217-9.104 14.878-20.333 14.878s-20.333-6.661-20.333-14.878 9.104-14.878 20.333-14.878 20.333 6.661 20.333 14.878z" fill="#a62b2b"/><path d="m270.833 311c0 2.381-.766 4.632-2.126 6.628-2.727.995-5.803 1.555-9.058 1.555-11.23 0-20.333-6.661-20.333-14.878 0-2.381.766-4.632 2.126-6.628 2.727-.995 5.803-1.555 9.058-1.555 11.23 0 20.333 6.661 20.333 14.878z" fill="#f52c2c"/><path d="m277.094 261.313c0 2.762-2.239 5.001-5 5.001s-5-2.239-5-5.001 2.239-5.001 5-5.001 5 2.24 5 5.001zm5.061-50.618c-2.176-.277-4.121.847-5.061 2.592v-.666c0-2.612-1.909-4.944-4.509-5.192-2.982-.284-5.491 2.054-5.491 4.977v32.412c0 2.612 1.909 4.944 4.509 5.192 2.982.284 5.491-2.054 5.491-4.977v-6.492c0-2.793 2.176-4.993 4.953-5.288.036-.004.072-.008.108-.013 2.524-.321 4.345-2.603 4.345-5.148v-12.249c0-2.546-1.82-4.828-4.345-5.148z" fill="#fd4343"/><path d="m270.772 207.405 2.432-.314c-1.478 9.658-3.788 17.485-6.608 22.646-.729 1.333-2.654 1.367-3.442.069-2.951-4.86-5.338-11.348-6.789-21.203 4.814-.18 9.621-.579 14.407-1.198zm-42.976-.315c1.478 9.658 3.788 17.485 6.608 22.646.729 1.333 2.654 1.367 3.442.069 2.951-4.86 5.338-11.348 6.789-21.203-4.813-.179-9.621-.578-14.407-1.197zm-15.796-78.489c-4.142 0-7.5 3.358-7.5 7.5s3.358 7.5 7.5 7.5 7.5-3.358 7.5-7.5-3.358-7.5-7.5-7.5zm95 0c-4.142 0-7.5 3.358-7.5 7.5s3.358 7.5 7.5 7.5 7.5-3.358 7.5-7.5-3.358-7.5-7.5-7.5z" fill="#fff5f5"/></g></svg>