<svg id="Capa_1" enable-background="new 0 0 501 501" height="512" viewBox="0 0 501 501" width="512" xmlns="http://www.w3.org/2000/svg"><g><path d="m495.5 256c0 135.31-109.69 245-245 245s-245-109.69-245-245 109.69-245 245-245 245 109.69 245 245z" fill="#fd92d2"/><path d="m487.856 195.04c-27.097 105.817-123.091 184.04-237.356 184.04s-210.259-78.223-237.356-184.04c27.097-105.817 123.091-184.04 237.356-184.04s210.259 78.223 237.356 184.04z" fill="#fdade0"/><path d="m238.751 368.051c0 43.257-35.067 78.324-78.324 78.324s-78.324-35.067-78.324-78.324c0-16.395 5.037-31.613 13.648-44.192-15.678-9.541-26.148-26.79-26.148-46.484 0-24.973 16.836-46.014 39.776-52.393-3.297-6.62-5.151-14.084-5.151-21.982 0-27.269 22.106-49.375 49.375-49.375s49.375 22.106 49.375 49.375c0 21.297-13.484 39.445-32.381 46.372 4.924 8.179 7.756 17.76 7.756 28.003 0 4.844-.634 9.539-1.822 14.009 35.531 7.425 62.22 38.929 62.22 76.667z" fill="#f52c2c"/><path d="m92.513 443.264c7.502-30.578 35.095-53.264 67.987-53.264h180c32.892 0 60.485 22.686 67.987 53.264-42.655 36.023-97.785 57.736-157.987 57.736s-115.332-21.713-157.987-57.736z" fill="#012d4e"/><path d="m120.5 463.704v-3.704c0-38.66 31.34-70 70-70h150c32.892 0 60.485 22.686 67.987 53.264-42.655 36.023-97.785 57.736-157.987 57.736-47.757 0-92.322-13.664-130-37.296z" fill="#463b83"/><path d="m333.096 486.728c-5.08 1.819-10.238 3.475-15.468 4.961l2.594-46.697c.156-2.801 2.472-4.992 5.277-4.992s5.122 2.191 5.277 4.992zm-157.596-46.728c-2.805 0-5.122 2.191-5.277 4.992l-2.319 41.736c5.08 1.819 10.238 3.475 15.468 4.961l-2.594-46.697c-.156-2.801-2.473-4.992-5.278-4.992zm112.875-21c-2.805 0-5.122 2.191-5.277 4.992l-4.188 75.378c6.333-.731 12.592-1.704 18.768-2.909l-4.026-72.469c-.155-2.801-2.472-4.992-5.277-4.992zm-80.519 9.982c-4.722 0-8.622 3.689-8.884 8.403l-3.193 57.48c7.989 1.822 16.126 3.254 24.391 4.275l-3.431-61.755c-.261-4.714-4.16-8.403-8.883-8.403z" fill="#012d4e"/><path d="m434.5 371.676c0 37.735-30.59 68.324-68.324 68.324-24.121 0-45.323-12.5-57.481-31.375-3.473.898-7.116 1.375-10.87 1.375-23.927 0-43.324-19.397-43.324-43.324s19.397-43.324 43.324-43.324c5.983 0 11.683 1.213 16.867 3.406 4.73-5.417 10.302-10.081 16.511-13.788-9.561-9.8-15.452-23.196-15.452-37.969 0-12.663 4.329-24.315 11.587-33.557-13.031-8.889-21.587-23.854-21.587-40.818 0-27.269 22.106-49.375 49.375-49.375s49.375 22.106 49.375 49.375c0 9.902-2.916 19.122-7.934 26.851 16.663 9.29 27.933 27.09 27.933 47.523 0 16.371-7.235 31.052-18.682 41.021 17.362 12.389 28.682 32.7 28.682 55.655z" fill="#fc5426"/><path d="m140.5 300c-13.807 0-25-11.193-25-25v-10c0-13.807 11.193-25 25-25 13.807 0 25 11.193 25 25v10c0 13.807-11.193 25-25 25z" fill="#04d481"/><path d="m130.5 260v20c0 8.178 3.927 15.439 9.998 20-13.806-.001-24.998-11.194-24.998-25v-10c0-13.806 11.192-24.999 24.998-25-6.071 4.561-9.998 11.822-9.998 20zm230-20v-20c0-60.751-49.249-110-110-110s-110 49.249-110 110v40c0 50.351 33.83 92.801 80 105.859v34.141c0 16.569 13.431 30 30 30s30-13.431 30-30v-34.141c33.586-9.499 60.641-34.551 72.895-66.883 2.252.666 4.637 1.024 7.105 1.024 13.807 0 25-11.193 25-25v-10c0-13.807-11.193-25-25-25z" fill="#08b772"/><path d="m360.5 220v40c0 50.713-34.318 93.41-80.997 106.136-9.161 2.497-18.844 2.497-28.005 0-46.68-12.726-80.998-55.423-80.998-106.136v-40c0-55.663 41.345-101.669 95-108.985 53.655 7.316 95 53.322 95 108.985z" fill="#04d481"/><path d="m171.5 266.5c0 2.761-2.239 5-5 5s-5-2.239-5-5 2.239-5 5-5 5 2.239 5 5zm165-5c-2.761 0-5 2.239-5 5s2.239 5 5 5 5-2.239 5-5-2.238-5-5-5zm-160 20c-2.761 0-5 2.239-5 5s2.239 5 5 5 5-2.239 5-5-2.238-5-5-5zm150 0c-2.761 0-5 2.239-5 5s2.239 5 5 5 5-2.239 5-5-2.238-5-5-5zm-130-10c-2.761 0-5 2.239-5 5s2.239 5 5 5 5-2.239 5-5-2.238-5-5-5zm100 0c-2.761 0-5 2.239-5 5s2.239 5 5 5 5-2.239 5-5-2.238-5-5-5zm-96.354-47.5c-11.902 0-23.679-2.429-34.61-7.139l-6.64-2.861v10c0 16.569 13.431 30 30 30h41.25c0-16.569-13.432-30-30-30zm100.708 0c-16.568 0-30 13.431-30 30h41.25c16.569 0 30-13.431 30-30v-10l-6.64 2.861c-10.931 4.71-22.708 7.139-34.61 7.139z" fill="#008a80"/><path d="m165.595 210.821c.241-2.751 2.666-4.786 5.417-4.545l39.848 3.486c2.751.241 4.786 2.666 4.545 5.417-.241 2.751-2.666 4.786-5.417 4.545l-39.848-3.486c-2.751-.241-4.786-2.666-4.545-5.417zm125.417 8.903 39.848-3.486c2.751-.241 4.786-2.666 4.545-5.417-.241-2.751-2.666-4.786-5.417-4.545l-39.848 3.486c-2.751.241-4.786 2.666-4.545 5.417.241 2.751 2.666 4.786 5.417 4.545zm-1.512 124.276c-2.761 0-5 2.239-5 5s2.239 5 5 5 5-2.239 5-5-2.238-5-5-5z" fill="#08b772"/><path d="m266.839 282.503c2.929 2.93 2.929 7.678 0 10.607-2.93 2.928-7.678 2.928-10.607 0-3.16-3.162-8.303-3.162-11.463 0-2.93 2.928-7.678 2.928-10.607 0-2.929-2.93-2.929-7.678 0-10.607 4.505-4.504 10.422-6.757 16.339-6.757s11.833 2.253 16.338 6.757zm19.161 37.497c0-2.761-2.239-5-5-5h-61c-2.761 0-5 2.239-5 5 0 11.046 8.954 20 20 20h31c11.046 0 20-8.954 20-20z" fill="#006e66"/><path d="m216.75 249c0 8.284-6.716 15-15 15s-15-6.716-15-15c0-8.284 6.716-15 15-15s15 6.716 15 15zm80-15c-8.284 0-15 6.716-15 15 0 8.284 6.716 15 15 15s15-6.716 15-15c0-8.284-6.716-15-15-15zm-46.25 86c8.284 0 15 6.716 15 15v5h-30v-5c0-8.284 6.716-15 15-15z" fill="#012d4e"/><path d="m208.625 234c4.142 0 7.5 3.358 7.5 7.5s-3.358 7.5-7.5 7.5-7.5-3.358-7.5-7.5 3.358-7.5 7.5-7.5zm87.5 7.5c0 4.142 3.358 7.5 7.5 7.5s7.5-3.358 7.5-7.5-3.358-7.5-7.5-7.5-7.5 3.358-7.5 7.5zm-29.054 82.5-5.345-6.803-5.345 6.803-5.345-6.803-5.346 6.803-5.345-6.803-5.345 6.803-7.071-9h46.213z" fill="#fff5f5"/><path d="m211.75 174.375c0 24.508-19.867 44.375-44.375 44.375s-44.375-19.867-44.375-44.375 19.867-44.375 44.375-44.375 44.375 19.867 44.375 44.375z" fill="#f52c2c"/><path d="m283.25 159.375c0 27.269-22.106 49.375-49.375 49.375-11.078 0-21.303-3.648-29.541-9.809-7.41 11.125-19.707 18.714-33.826 19.699.234-19.289 5.433-37.384 14.378-53.065-.254-2.031-.386-4.1-.386-6.2 0-27.269 22.106-49.375 49.375-49.375s49.375 22.106 49.375 49.375zm50-40.625c-27.269 0-49.375 22.106-49.375 49.375s22.106 49.375 49.375 49.375 49.375-22.106 49.375-49.375-22.106-49.375-49.375-49.375z" fill="#fc5426"/><path d="m436.5 150.292c0 23.578-83.275 42.692-186 42.692s-186-19.114-186-42.692c0-18.27 50.002-33.86 120.309-39.953l32.854-52.88c1.414-2.275-.636-5.122-3.242-4.502l-51.237 12.191c-3.222.767-5.127-3.485-2.41-5.379l80.55-56.171c9.402-6.556 22.379-3.885 28.428 5.85l63.764 102.629c61.055 7.001 102.984 21.484 102.984 38.215z" fill="#463b83"/><path d="m288.865 192.075c-12.38.596-25.213.909-38.365.909-102.725 0-186-19.114-186-42.692 0-18.27 50.002-33.86 120.31-39.953l32.854-52.88c1.414-2.275-.636-5.122-3.242-4.502l-86.423 29.043c-3.222.767-5.127-3.485-2.41-5.379l50.069-27.232 49.916-11.876 6.308-11.908c1.55-2.927 6.001-1.552 5.632 1.739l-.845 7.529 7.036-1.674c3.756-.894 6.712 3.209 4.674 6.489l-58.431 94.046s-18.128.205-19.44 1.088c-7.124 4.797-11.032 10.014-11.032 15.47 0 20.559 55.491 37.724 129.389 41.783z" fill="#012d4e"/><path d="m336.513 108.685 10.908 17.556c4.123 6.636-.12 15.299-7.89 16.11-50.008 5.222-100.406 5.532-150.474.927l-12.096-1.113c-7.836-.721-12.172-9.438-8.019-16.123l10.39-16.723c1.278-2.057 3.672-3.12 6.061-2.724 45.048 7.456 100.614 7.244 145.064-.635 2.382-.422 4.779.67 6.056 2.725z" fill="#fd9d01"/><path d="m184.275 142.838-7.315-.673c-7.836-.721-12.172-9.438-8.019-16.123l10.39-16.723c1.278-2.057 3.672-3.12 6.061-2.724 6.382 1.057 12.976 1.959 19.719 2.708z" fill="#f57e00"/><path d="m275.456 151.193h-40c-5.523 0-10-4.477-10-10v-24.678c0-5.523 4.477-10 10-10h40c5.523 0 10 4.477 10 10v24.678c0 5.522-4.477 10-10 10zm-2.094-32.443h-35.812v20.207h35.813v-20.207z" fill="#fded32"/><path d="m285.456 116.514v24.678c0 5.523-4.477 10-10 10h-13.474c-5.724-2.404-10.425-6.76-13.272-12.236h24.652v-20.206h-26.396c1.525-4.821 4.39-9.045 8.16-12.236h20.33c5.523 0 10 4.477 10 10z" fill="#fcf498"/><path d="m44.582 251.029 6.74 3.686c1.015.555 1.015 2.014 0 2.569l-6.74 3.686c-.246.134-.448.336-.582.582l-3.686 6.74c-.555 1.016-2.014 1.016-2.569 0l-3.686-6.74c-.134-.246-.336-.448-.582-.582l-6.74-3.686c-1.015-.555-1.015-2.014 0-2.569l6.74-3.686c.246-.134.448-.336.582-.582l3.686-6.74c.555-1.016 2.014-1.016 2.569 0l3.686 6.74c.134.246.336.448.582.582zm307.721 125.586-3.686-6.74c-.555-1.016-2.014-1.016-2.569 0l-3.686 6.74c-.134.246-.336.448-.582.582l-6.74 3.686c-1.015.555-1.015 2.014 0 2.569l6.74 3.686c.246.134.448.336.582.582l3.686 6.74c.555 1.016 2.014 1.016 2.569 0l3.686-6.74c.134-.246.336-.448.582-.582l6.74-3.686c1.015-.555 1.015-2.014 0-2.569l-6.74-3.686c-.246-.134-.448-.336-.582-.582z" fill="#fc8635"/><path d="m359.917 181.042 9.207 5.035c1.387.759 1.387 2.751 0 3.509l-9.207 5.035c-.336.184-.611.459-.795.795l-5.035 9.207c-.759 1.387-2.751 1.387-3.509 0l-5.035-9.207c-.184-.336-.459-.611-.795-.795l-9.207-5.035c-1.387-.759-1.387-2.751 0-3.509l9.207-5.035c.336-.184.611-.459.795-.795l5.035-9.207c.759-1.387 2.751-1.387 3.509 0l5.035 9.207c.184.336.459.611.795.795z" fill="#fff5f5"/><path d="m464.253 300.294 9.207 5.035c1.387.759 1.387 2.751 0 3.509l-9.207 5.035c-.336.184-.612.459-.795.795l-5.035 9.207c-.759 1.387-2.751 1.387-3.509 0l-5.035-9.207c-.184-.336-.459-.611-.795-.795l-9.207-5.035c-1.387-.759-1.387-2.751 0-3.509l9.207-5.035c.336-.184.611-.459.795-.795l5.035-9.207c.759-1.387 2.751-1.387 3.509 0l5.035 9.207c.184.336.46.612.795.795z" fill="#9e385d"/></g></svg>