<svg height="512pt" viewBox="0 0 512 512.00058" width="512pt" xmlns="http://www.w3.org/2000/svg"><path d="m490.003906 267c0 135.308594-109.691406 245-245.003906 245-135.308594 0-245-109.691406-245-245 0-135.3125 109.691406-245 245-245 135.3125 0 245.003906 109.6875 245.003906 245zm0 0" fill="#162680"/><path d="m26.828125 378.582031c-4.53125-58.769531 15.617187-119.101562 60.46875-163.953125 23.210937-23.210937 54.273437-39.683594 87.472656-46.390625 83.375-16.832031 151.1875 32.640625 151.1875 109.066407 0 31.289062-18.457031 57.710937-49.371093 70.675781-5.1875 2.175781-7.625 8.140625-5.453126 13.328125 2.175782 5.1875 8.140626 7.628906 13.328126 5.449218 38.15625-16 61.855468-50.277343 61.855468-89.453124 0-45.011719-19.757812-74.679688-36.332031-91.648438-62.636719-64.101562-173.957031-48.550781-237.085937 14.574219-36.421876 36.421875-58.003907 82.148437-64.75 129.601562 4.511718 17.046875 10.800781 33.375 18.679687 48.75zm0 0" fill="#b26cde"/><path d="m151.238281 174.746094c-4.820312-2.78125-7.769531-8.402344-6.566406-14.417969.460937-2.234375 1.417969-4.183594 2.707031-5.800781-27.742187 9.328125-53.71875 24.9375-74.480468 45.703125-36.421876 36.421875-58.003907 82.148437-64.75 129.601562 4.511718 17.046875 10.800781 33.375 18.679687 48.75-4.53125-58.769531 15.617187-119.101562 60.46875-163.953125 17.621094-17.621094 39.769531-31.355468 63.941406-39.882812zm0 0" fill="#9d4ad3"/><path d="m280.976562 504.164062c-131.914062 0-217.1875-112.148437-190.882812-205.949218 6.402344-22.839844 22.21875-54.785156 61.199219-77.289063 23.597656-13.625 50.992187-16.367187 77.128906-7.71875 5.335937 1.765625 8.234375 7.523438 6.46875 12.863281-1.765625 5.339844-7.527344 8.234376-12.863281 6.46875-14.539063-4.808593-36.84375-7.667968-60.554688 6.023438-104.632812 60.40625-51.132812 206.886719 65.054688 238.019531 53.910156 14.449219 110.21875 7.03125 158.554687-20.875 161.910157-93.480469 134.835938-354.277343-50.355469-436.214843-5.140624-2.273438-7.464843-8.289063-5.191406-13.429688 2.277344-5.144531 8.292969-7.464844 13.429688-5.191406 200.015625 88.496094 228.949218 370.484375 52.296875 472.472656-35.332031 20.398438-74.550781 30.816406-114.285157 30.820312zm0 0" fill="#b26cde"/><path d="m328.214844 483.753906c.5-2.425781 1.589844-4.511718 3.046875-6.203125-34.046875 8.5625-69.890625 8.371094-104.738281-.96875-116.183594-31.132812-169.683594-177.613281-65.050782-238.023437 5.324219-3.074219 10.578125-5.308594 15.6875-6.878906-5.507812-2.492188-9.035156-8.53125-7.742187-15.019532.332031-1.605468.917969-3.070312 1.699219-4.367187-6.816407 2.082031-13.460938 4.957031-19.824219 8.632812-38.980469 22.503907-54.796875 54.449219-61.199219 77.289063-26.304688 93.800781 58.96875 205.949218 190.882812 205.949218 17.949219 0 35.789063-2.132812 53.214844-6.347656-4.46875-2.886718-7.128906-8.300781-5.976562-14.0625zm0 0" fill="#9d4ad3"/><path d="m292.691406 60.328125c-34.933594-20.171875-72.152344-29.796875-109.152344-30.550781-24.816406 6.410156-48.101562 16.621094-69.210937 29.957031 54.878906-16.417969 114.578125-12.722656 168.183594 18.226563 77.480469 44.734374 123.328125 137.972656 93.792969 225.824218-27.292969 81.175782-104.449219 114.273438-170.046876 76.398438-15.960937-9.214844-27.421874-23.265625-33.144531-40.628906-1.757812-5.34375-7.515625-8.25-12.855469-6.484376-5.339843 1.757813-8.242187 7.511719-6.484374 12.855469 18.46875 56.0625 85.617187 80.101563 139.835937 66.25 86.816406-22.183593 129.035156-126.359375 105.925781-212.609375-15.851562-59.164062-53.796875-108.613281-106.84375-139.238281zm0 0" fill="#b26cde"/><path d="m295.546875 393.128906c.214844-1.042968.542969-2.019531.953125-2.9375-28.667969 9.71875-60.632812 7.085938-90.242188-10.007812-15.960937-9.214844-27.421874-23.265625-33.140624-40.632813-1.761719-5.339843-7.519532-8.246093-12.859376-6.480469-5.339843 1.757813-8.242187 7.511719-6.484374 12.851563 18.46875 56.066406 85.621093 80.105469 139.839843 66.253906 3.84375-.984375 7.59375-2.132812 11.261719-3.429687-6.394531-1.972656-10.742188-8.527344-9.328125-15.617188zm0 0" fill="#9d4ad3"/><path d="m298.675781 136.734375c-5.78125 0-10.179687-4.761719-10.179687-10.183594 0-6.367187 5.910156-11.269531 12.175781-9.976562 5.066406 1.054687 8.183594 5.410156 8.183594 9.976562 0 5.652344-4.570313 10.183594-10.179688 10.183594zm0 0" fill="#4374d3"/><path d="m421.855469 368.90625c-7.355469 0-13.574219-5.980469-13.574219-13.574219 0-6.304687 4.351562-11.964843 10.914062-13.316406 8.25-1.652344 16.234376 4.648437 16.234376 13.316406 0 7.460938-6.078126 13.574219-13.574219 13.574219zm0 0" fill="#fadda0"/><path d="m141.125 215.917969c-5.695312 0-10.183594-4.644531-10.183594-10.183594 0-4.667969 3.222656-8.941406 8.199219-9.976563 6.167969-1.242187 12.164063 3.484376 12.164063 9.976563 0 5.699219-4.636719 10.183594-10.179688 10.183594zm0 0" fill="#fd7e31"/><path d="m244.988281 117.960938c-8.457031 0-15.015625-7.746094-13.316406-16.238282 1.769531-8.601562 10.789063-13.09375 18.5-9.882812 4.324219 1.800781 7.21875 5.515625 8.121094 9.882812 1.683593 8.449219-4.820313 16.238282-13.304688 16.238282zm0 0" fill="#d7f9b7"/><path d="m289.253906 82.03125c-1.71875-8.109375 4.128906-15.71875 12.265625-16.332031-35.8125-22.835938-75.984375-35.066407-117.984375-35.921875-24.8125 6.410156-48.097656 16.621094-69.207031 29.957031 59.496094-17.796875 121.71875-11.164063 174.925781 22.296875zm0 0" fill="#c78fe8"/><path d="m392.601562 154.765625c0 12.039063-9.757812 21.796875-21.796874 21.796875-12.039063 0-21.796876-9.757812-21.796876-21.796875 0-12.035156 9.757813-21.792969 21.796876-21.792969 12.039062 0 21.796874 9.757813 21.796874 21.792969zm0 0" fill="#a2ec00"/><path d="m379.574219 159.027344c-7.195313 0-13.027344-5.832032-13.027344-13.027344 0-5.867188 3.875-10.824219 9.207031-12.457031-1.589844-.371094-3.246094-.570313-4.949218-.570313-12.039063 0-21.796876 9.757813-21.796876 21.792969 0 12.039063 9.757813 21.796875 21.796876 21.796875 12.039062 0 21.796874-9.757812 21.796874-21.796875 0-1.703125-.203124-3.355469-.574218-4.949219-1.632813 5.332032-6.589844 9.210938-12.453125 9.210938zm0 0" fill="#00c82f"/><path d="m74.488281 252.128906c0 16.160156-13.097656 29.257813-29.257812 29.257813-16.15625 0-29.257813-13.097657-29.257813-29.257813 0-16.15625 13.101563-29.257812 29.257813-29.257812 16.160156 0 29.257812 13.101562 29.257812 29.257812zm0 0" fill="#face7a"/><path d="m57.019531 257.816406c-9.648437 0-17.472656-7.824218-17.472656-17.472656 0-7.863281 5.195313-14.511719 12.339844-16.703125-2.140625-.5-4.367188-.769531-6.65625-.769531-16.15625 0-29.257813 13.101562-29.257813 29.257812 0 16.160156 13.101563 29.257813 29.257813 29.257813 16.160156 0 29.261719-13.097657 29.261719-29.257813 0-2.289062-.273438-4.515625-.769532-6.652344-2.195312 7.144532-8.839844 12.339844-16.703125 12.339844zm0 0" fill="#fbb362"/><path d="m461.960938 438.152344c0 19.152344-15.527344 34.679687-34.679688 34.679687-19.15625 0-34.683594-15.527343-34.683594-34.679687 0-19.15625 15.527344-34.683594 34.683594-34.683594 19.152344 0 34.679688 15.527344 34.679688 34.683594zm0 0" fill="#f948b4"/><path d="m441.03125 445.328125c-11.558594 0-20.929688-9.371094-20.929688-20.929687 0-9.472657 6.300782-17.46875 14.9375-20.046876-2.496093-.570312-5.089843-.882812-7.757812-.882812-19.152344 0-34.679688 15.527344-34.679688 34.683594 0 19.152344 15.527344 34.679687 34.679688 34.679687s34.679688-15.527343 34.679688-34.679687c0-2.667969-.3125-5.265625-.882813-7.761719-2.578125 8.636719-10.570313 14.9375-20.046875 14.9375zm0 0" fill="#f6159c"/><path d="m302.347656 257.59375c-24.511718-42.453125-78.800781-56.996094-121.253906-32.484375s-57 78.796875-32.488281 121.25c24.511719 42.457031 78.800781 57 121.253906 32.488281 42.453125-24.511718 57-78.796875 32.488281-121.253906zm0 0" fill="#fc9949"/><path d="m284.460938 366.757812c-104.085938-14.824218-46.914063-78.175781-90.214844-105.179687-24.515625-15.289063-4.90625-40.671875-4.90625-40.671875-2.785156 1.246094-5.535156 2.644531-8.238282 4.207031-42.457031 24.511719-57.003906 78.796875-32.492187 121.253907 24.515625 42.457031 78.800781 57.003906 121.257813 32.492187 5.917968-3.417969 11.292968-7.417969 16.097656-11.878906-.5-.074219-.996094-.148438-1.503906-.222657zm0 0" fill="#fd7e31"/><path d="m243.320312 215.046875c-15.058593 6.332031-29.503906 16.316406-38.511718 32.054687-16.335938 28.527344-47.039063 41.453126-67.734375 47.132813-1.484375 16.773437 1.777343 34.113281 10.347656 49.949219 9.613281-11.898438 42.183594-47.695313 85.992187-47.539063 30.265626.109375 54.226563-20.902343 69.109376-38.738281-13.0625-22.835938-34.871094-37.855469-59.203126-42.859375zm0 0" fill="#fbb362"/><path d="m147.421875 344.183594c8.125-10.058594 32.652344-37.183594 66.5-45.246094-1.769531-14.453125-4.765625-28.0625-19.675781-37.359375-16.953125 18.648437-40.363282 28.042969-57.171875 32.65625-1.488281 16.773437 1.777343 34.113281 10.347656 49.949219zm0 0" fill="#fc9949"/><path d="m313.601562 312.675781c-14.449218 13.460938-33.628906 25.308594-56.371093 25.226563-36.078125-.128906-64.535157 24.128906-78.824219 39.339844 55.238281 34.488281 127.328125-.152344 135.195312-64.566407zm0 0" fill="#fd7e31"/><path d="m284.460938 366.757812c-30.660157-4.367187-47.324219-12.945312-56.691407-23.5625-22.007812 7.96875-39.242187 23.273438-49.363281 34.046876 36.234375 22.621093 79.71875 15.5 107.574219-10.257813-.503907-.078125-1.003907-.152344-1.519531-.226563zm0 0" fill="#fc5d1f"/><path d="m334.726562 19.492188c68.082032 30.125 114.792969 84.421874 138.601563 145.691406 2.054687-5.382813 7.253906-9.214844 13.359375-9.214844 1.851562 0 3.617188.363281 5.242188 1.003906-25.738282-65.703125-75.949219-123.796875-148.964844-156.101562-5.136719-2.269532-11.152344.050781-13.429688 5.191406-2.273437 5.140625.050782 11.15625 5.191406 13.429688zm0 0" fill="#c78fe8"/></svg>