<svg height="511pt" viewBox="-10 0 511 511.9796" width="511pt" xmlns="http://www.w3.org/2000/svg"><path d="m245.492188 21.980469c-135.3125 0-245.003907 109.6875-245.003907 245 0 69.472656 28.921875 132.183593 75.375 176.773437l117.09375 62.5625c16.925781 3.695313 34.5 5.664063 52.535157 5.664063 2.71875 0 5.425781-.0625 8.128906-.148438l82.277344-17.078125c90.5625-35.976562 154.59375-124.394531 154.59375-227.773437 0-135.3125-109.691407-245-245-245zm0 0" fill="#162680"/><path d="m262.511719 484.148438c-3.46875 0-6.605469-1.394532-8.890625-3.648438v31.332031c28.980468-.945312 56.6875-6.914062 82.277344-17.078125v-14.253906c-2.289063 2.253906-5.425782 3.648438-8.890626 3.648438zm0 0" fill="#5294e5"/><path d="m289.371094 484.148438h-26.859375c-3.46875 0-6.605469-1.394532-8.890625-3.648438v31.332031c12.160156-.398437 24.097656-1.691406 35.75-3.796875zm0 0" fill="#4374d3"/><path d="m282.082031 403.707031v33.886719h25.351563v-33.898438c-8.027344 3.375-17.199219 3.445313-25.351563.011719zm0 0" fill="#b9e9fd"/><path d="m294.585938 418.003906h.28125c5.667968-.023437 10.546874 3.328125 12.566406 8.210938v-22.519532c-8.027344 3.375-17.199219 3.445313-25.351563.011719v22.507813c2.015625-4.871094 6.867188-8.230469 12.503907-8.210938zm0 0" fill="#83d3fc"/><path d="m102.015625 465.578125c26.757813 19.363281 57.578125 33.445313 90.941406 40.738281v-45.761718c-3.148437 3.101562-7.472656 5.019531-12.242187 5.019531h-78.699219zm0 0" fill="#5294e5"/><path d="m136.292969 486.320312v-20.742187h-34.277344c10.796875 7.808594 22.261719 14.746094 34.277344 20.742187zm0 0" fill="#4374d3"/><path d="m378.25 21.976562c-39.738281-33.34375-98.980469-28.164062-132.328125 11.570313-33.34375 39.738281-28.164063 98.980469 11.574219 132.328125 39.734375 33.34375 98.980468 28.164062 132.324218-11.574219 33.34375-39.734375 28.164063-98.980469-11.570312-132.324219zm0 0" fill="#4374d3"/><path d="m377.585938 134.160156c-.921876-2.851562-3.570313-4.828125-6.566407-4.84375-11.214843-.054687-14.625-6.410156-15.652343-10.675781-.5625-2.339844-2.347657-4.210937-4.628907-4.980469-20.800781-7-15.722656-22.5625-15.722656-22.5625l-17.449219-14.640625c-14.773437-1.5625-17.121094-10.617187-17.023437-16.546875.046875-2.910156-1.753907-5.566406-4.476563-6.597656-8.824218-3.347656-9.816406-10.269531-9.195312-15.265625.394531-3.195313-1.582032-6.15625-4.59375-7.300781-14.25-5.414063-7.035156-20.484375-6.992188-20.574219-10.945312 5.558594-20.976562 13.363281-29.367187 23.363281-33.34375 39.738282-28.160157 98.984375 11.578125 132.328125 39.738281 33.34375 98.984375 28.164063 132.328125-11.574219 2.480469-2.957031 4.722656-6.03125 6.777343-9.183593-12.617187 1.625-17.289062-5.617188-19.015624-10.945313zm0 0" fill="#3957c9"/><path d="m386.207031 93.910156c0 37.738282-30.59375 68.332032-68.335937 68.332032-37.738282 0-68.332032-30.59375-68.332032-68.332032 0-37.742187 30.59375-68.335937 68.332032-68.335937 37.742187 0 68.335937 30.59375 68.335937 68.335937zm0 0" fill="#3957c9"/><path d="m375.324219 130.886719c-1.195313-.972657-2.695313-1.5625-4.304688-1.570313-11.214843-.054687-14.625-6.410156-15.652343-10.675781-.5625-2.339844-2.347657-4.210937-4.628907-4.980469-20.800781-7-15.722656-22.5625-15.722656-22.5625l-17.449219-14.640625c-14.773437-1.5625-17.121094-10.617187-17.023437-16.546875.046875-2.910156-1.753907-5.566406-4.476563-6.597656-8.824218-3.347656-9.816406-10.269531-9.195312-15.265625.199218-1.625-.21875-3.183594-1.066406-4.480469-21.574219 11.488282-36.265626 34.195313-36.265626 60.34375 0 37.742188 30.59375 68.335938 68.335938 68.335938 24.105469-.003906 45.285156-12.5 57.449219-31.359375zm0 0" fill="#1d319b"/><path d="m360.457031 93.910156c0 23.519532-19.066406 42.582032-42.585937 42.582032-23.519532 0-42.582032-19.0625-42.582032-42.582032 0-23.519531 19.0625-42.585937 42.582032-42.585937 23.519531 0 42.585937 19.066406 42.585937 42.585937zm0 0" fill="#1d319b"/><path d="m354.1875 116.152344c-.859375-1.144532-2.058594-2.023438-3.453125-2.492188-20.796875-7-15.71875-22.5625-15.71875-22.5625l-17.449219-14.644531c-14.773437-1.558594-17.121094-10.613281-17.027344-16.542969.027344-1.566406-.496093-3.046875-1.394531-4.25-14.125 6.929688-23.855469 21.453125-23.855469 38.25 0 23.515625 19.066407 42.582032 42.582032 42.582032 15.367187 0 28.824218-8.136719 36.316406-20.339844zm0 0" fill="#162680"/><path d="m136.285156 130.421875c-4.390625 0-8.121094-3.371094-8.492187-7.828125-.386719-4.691406 3.105469-8.8125 7.800781-9.203125l169.890625-14.054687c4.691406-.390626 8.8125 3.101562 9.203125 7.796874.386719 4.695313-3.105469 8.816407-7.796875 9.203126-151.902344 12.558593-170.039063 14.085937-170.605469 14.085937zm0 0" fill="#b9e9fd"/><path d="m220.574219 114.167969c-.257813-3.132813.953125-6.042969 3.054687-8.058594l-88.035156 7.28125c-4.695312.390625-8.1875 4.511719-7.800781 9.203125.371093 4.457031 4.101562 7.828125 8.492187 7.828125.445313 0 11.855469-.953125 91.269532-7.523437-3.765626-1.1875-6.632813-4.550782-6.980469-8.730469zm0 0" fill="#83d3fc"/><path d="m313.351562 278.371094-15.660156-169.75c-.429687-4.691406 3.019532-8.84375 7.710938-9.28125 4.695312-.417969 8.84375 3.023437 9.277344 7.714844l15.660156 169.75c.433594 4.691406-3.019532 8.84375-7.710938 9.277343-4.703125.429688-8.84375-3.027343-9.277344-7.710937zm0 0" fill="#b9e9fd"/><path d="m330.339844 276.804688-8.140625-88.21875c-1.558594 2.894531-4.488281 4.976562-8.003907 5.300781-3.621093.332031-6.957031-1.28125-9.003906-3.972657l8.160156 88.457032c.433594 4.683594 4.574219 8.140625 9.277344 7.710937 4.691406-.433593 8.144532-4.585937 7.710938-9.277343zm0 0" fill="#83d3fc"/><path d="m223.585938 206.273438c-3.609376-3.027344-4.078126-8.40625-1.050782-12.019532l77.582032-92.453125c3.027343-3.609375 8.40625-4.082031 12.015624-1.050781 3.609376 3.027344 4.078126 8.40625 1.050782 12.015625l-77.578125 92.457031c-3.015625 3.589844-8.394531 4.09375-12.019531 1.050782zm0 0" fill="#e0f9fe"/><path d="m254.601562 169.210938c-2.917968-2.449219-3.929687-6.324219-2.871093-9.746094l-29.195313 34.789062c-3.027344 3.613282-2.558594 8.992188 1.050782 12.019532 3.625 3.042968 9.003906 2.539062 12.019531-1.050782l29.421875-35.066406c-3.230469 1.832031-7.394532 1.597656-10.425782-.945312zm0 0" fill="#b9e9fd"/><path d="m328.90625 80.675781c-7.609375-6.382812-18.953125-5.394531-25.339844 2.214844-6.382812 7.609375-5.390625 18.953125 2.21875 25.339844 7.605469 6.382812 18.949219 5.390625 25.335938-2.21875 6.382812-7.605469 5.390625-18.949219-2.214844-25.335938zm0 0" fill="#fc7acd"/><path d="m317.34375 94.4375c-5.617188-4.714844-5.519531-13.390625.222656-17.984375-5.207031-.058594-10.394531 2.125-14 6.421875-6.382812 7.609375-5.390625 18.953125 2.21875 25.339844 7.609375 6.382812 18.953125 5.390625 25.335938-2.21875 3.605468-4.296875 4.855468-9.785156 3.894531-14.898438-3.53125 6.460938-12.0625 8.046875-17.671875 3.339844zm0 0" fill="#f948b4"/><path d="m118.835938 354.78125v46.671875h34.917968v-46.6875c-11.058594 4.644531-23.691406 4.742187-34.917968.015625zm0 0" fill="#b9e9fd"/><path d="m136.066406 374.914062h.375c8.066406-.035156 14.972656 5.097657 17.3125 12.339844v-32.488281c-11.058594 4.644531-23.691406 4.742187-34.917968.015625v32.472656c2.332031-7.226562 9.191406-12.371094 17.230468-12.339844zm0 0" fill="#83d3fc"/><path d="m161.097656 399.625h-49.605468c-9.640626 0-17.457032 7.816406-17.457032 17.457031s7.816406 17.457031 17.457032 17.457031h49.605468c9.640625 0 17.457032-7.816406 17.457032-17.457031s-7.816407-17.457031-17.457032-17.457031zm0 0" fill="#e0f9fe"/><path d="m125.410156 417.082031c0-9.640625 7.816406-17.457031 17.457032-17.457031h-31.375c-9.640626 0-17.457032 7.816406-17.457032 17.457031s7.816406 17.457031 17.457032 17.457031h31.375c-9.640626 0-17.457032-7.816406-17.457032-17.457031zm0 0" fill="#b9e9fd"/><path d="m97.25 131.117188c-26.457031 53.128906-21.960938 110.492187 7.972656 154.050781 15.917969-14.855469 40.78125-15.851563 57.886719-1.5 16.574219 13.910156 20.222656 37.496093 9.632813 55.558593 46.667968 18.648438 101.054687 12.21875 146.792968-21.589843zm0 0" fill="#b26cde"/><path d="m163.316406 186.550781-66.0625-55.433593c-26.457031 53.128906-21.964844 110.492187 7.96875 154.050781 13.195313-12.316407 32.539063-15.097657 48.511719-7.511719-18.023437-54.089844 8.910156-89.984375 8.910156-89.984375zm0 0" fill="#9d4ad3"/><path d="m165.191406 281.429688c-19.035156-15.972657-47.414062-13.492188-63.390625 5.542968-15.972656 19.035156-13.492187 47.414063 5.542969 63.390625 19.035156 15.972657 47.417969 13.492188 63.390625-5.542969 15.972656-19.035156 13.492187-47.417968-5.542969-63.390624zm0 0" fill="#e0f9fe"/><path d="m321.0625 320.601562-226.996094-190.472656c-7.386718-6.195312-8.347656-17.203125-2.152344-24.585937 6.195313-7.386719 17.203126-8.347657 24.589844-2.152344l226.996094 190.472656c7.382812 6.195313 8.347656 17.203125 2.148438 24.589844-6.195313 7.382813-17.203126 8.34375-24.585938 2.148437zm0 0" fill="#c78fe8"/><path d="m166.644531 168.246094c4.691407-5.589844 11.6875-8.097656 18.433594-7.3125l-68.574219-57.542969c-7.386718-6.195313-18.394531-5.234375-24.589844 2.148437-6.195312 7.386719-5.234374 18.394532 2.152344 24.589844l68.574219 57.542969c-1.941406-6.507813-.6875-13.832031 4.003906-19.425781zm0 0" fill="#b26cde"/><path d="m154.167969 357.171875c-25-3.269531-17.886719-23.839844-17.886719-23.839844l5.648438-33.960937c-9.175782-20.433594 10.621093-25.425782 10.632812-25.429688-17.464844-6.78125-38.035156-2.128906-50.75 13.019532-15.972656 19.039062-13.488281 47.417968 5.546875 63.394531 13.492187 11.320312 31.675781 13.359375 46.808594 6.816406zm0 0" fill="#b9e9fd"/><path d="m147.488281 302.527344c-7.382812-6.195313-18.394531-5.234375-24.589843 2.148437-6.195313 7.386719-5.234376 18.394531 2.148437 24.589844 7.386719 6.195313 18.394531 5.234375 24.589844-2.148437 6.199219-7.386719 5.234375-18.394532-2.148438-24.589844zm0 0" fill="#83d3fc"/><path d="m180.714844 433.246094h-88.839844c-7.167969 0-13.320312 4.324218-16.007812 10.503906 9.261718 8.894531 19.226562 17.054688 29.792968 24.414062h75.054688c9.640625 0 17.457031-7.816406 17.457031-17.460937 0-9.640625-7.816406-17.457031-17.457031-17.457031zm0 0" fill="#b9e9fd"/><path d="m120.53125 450.703125c0-9.640625 7.816406-17.457031 17.460938-17.457031h-46.117188c-7.167969 0-13.320312 4.324218-16.007812 10.503906 9.261718 8.894531 19.226562 17.054688 29.792968 24.414062h32.332032c-9.644532 0-17.460938-7.816406-17.460938-17.460937zm0 0" fill="#83d3fc"/><path d="m266.414062 241.28125c-19.210937 38.582031-15.949218 80.242188 5.789063 111.871094 11.5625-10.789063 29.617187-11.511719 42.039063-1.085938 12.035156 10.097656 14.6875 27.226563 6.996093 40.34375 33.886719 13.542969 73.386719 8.875 106.601563-15.679687zm0 0" fill="#5294e5"/><path d="m314.394531 281.539062-47.980469-40.257812c-19.210937 38.585938-15.949218 80.242188 5.789063 111.875 9.585937-8.945312 23.628906-10.964844 35.230469-5.457031-13.089844-39.28125 6.46875-65.34375 6.46875-65.34375zm0 0" fill="#4374d3"/><path d="m294.75 243.15625c-4.394531 0-8.125-3.371094-8.492188-7.828125-.390624-4.695313 3.101563-8.816406 7.796876-9.203125l123.34375-10.207031c4.683593-.390625 8.816406 3.105469 9.203124 7.800781.390626 4.695312-3.101562 8.816406-7.796874 9.203125l-123.34375 10.203125c-.238282.023438-.476563.03125-.710938.03125zm0 0" fill="#b9e9fd"/><path d="m349.835938 229.910156c-.289063-3.507812 1.285156-6.738281 3.894531-8.722656l-59.675781 4.9375c-4.695313.386719-8.1875 4.507812-7.796876 9.203125.367188 4.457031 4.097657 7.828125 8.492188 7.828125.234375 0 .472656-.011719.710938-.03125l60.207031-4.980469c-3.1875-1.433593-5.523438-4.503906-5.832031-8.234375zm0 0" fill="#83d3fc"/><path d="m420.976562 348.445312-11.367187-123.242187c-.433594-4.691406 3.019531-8.84375 7.710937-9.277344 4.703126-.429687 8.84375 3.019531 9.277344 7.710938l11.367188 123.242187c.433594 4.691406-3.019532 8.84375-7.710938 9.277344-4.679687.429688-8.84375-3.007812-9.277344-7.710938zm0 0" fill="#b9e9fd"/><path d="m437.964844 346.878906-5.523438-59.90625c-1.246094 3.21875-4.210937 5.628906-7.878906 5.96875-3.894531.355469-7.453125-1.722656-9.164062-4.988281l5.578124 60.492187c.433594 4.703126 4.597657 8.140626 9.277344 7.710938 4.691406-.433594 8.144532-4.585938 7.710938-9.277344zm0 0" fill="#83d3fc"/><path d="m356.632812 297.679688c-3.609374-3.027344-4.078124-8.410157-1.050781-12.019532l56.324219-67.125c3.027344-3.609375 8.410156-4.082031 12.015625-1.050781 3.609375 3.027344 4.082031 8.410156 1.054687 12.019531l-56.324218 67.125c-3.015625 3.589844-8.394532 4.09375-12.019532 1.050782zm0 0" fill="#e0f9fe"/><path d="m383.945312 264.871094c-2.695312-2.257813-3.878906-5.644532-3.457031-8.890625l-24.90625 29.679687c-3.027343 3.613282-2.558593 8.992188 1.050781 12.019532 3.621094 3.042968 9.003907 2.539062 12.015626-1.050782l25.257812-30.101562c-3.253906 1.253906-7.082031.761718-9.960938-1.65625zm0 0" fill="#b9e9fd"/><path d="m433.492188 205.429688c-6.824219-5.726563-16.996094-4.835938-22.726563 1.988281-5.726563 6.824219-4.835937 17 1.988281 22.726562 6.824219 5.726563 17 4.835938 22.726563-1.988281 5.726562-6.824219 4.839843-17-1.988281-22.726562zm0 0" fill="#fc7acd"/><path d="m436.933594 217.984375c-3.53125 4.210937-9.8125 4.761719-14.023438 1.226563-4.210937-3.53125-4.757812-9.808594-1.226562-14.019532 1.332031-1.585937 3.050781-2.652344 4.898437-3.175781-5.671875-1.238281-11.820312.625-15.808593 5.382813-5.730469 6.824218-4.839844 17 1.988281 22.726562 6.824219 5.726562 17 4.835938 22.726562-1.988281 3.339844-3.980469 4.414063-9.101563 3.386719-13.816407-.375 1.304688-1.011719 2.558594-1.941406 3.664063zm0 0" fill="#f948b4"/><path d="m315.75 350.449219c-13.824219-11.601563-34.433594-9.796875-46.035156 4.023437-11.597656 13.824219-9.796875 34.433594 4.027344 46.035156 13.824218 11.601563 34.433593 9.796876 46.035156-4.023437 11.597656-13.824219 9.796875-34.4375-4.027344-46.035156zm0 0" fill="#e0f9fe"/><path d="m312.765625 436.261719h-36.015625c-7 0-12.675781 5.675781-12.675781 12.675781s5.675781 12.675781 12.675781 12.675781h36.015625c7 0 12.675781-5.675781 12.675781-12.675781s-5.675781-12.675781-12.675781-12.675781zm0 0" fill="#e0f9fe"/><path d="m292.742188 448.9375c0-7 5.675781-12.675781 12.675781-12.675781h-28.667969c-7 0-12.675781 5.675781-12.675781 12.675781s5.675781 12.675781 12.675781 12.675781h28.667969c-7 0-12.675781-5.671875-12.675781-12.675781zm0 0" fill="#b9e9fd"/><path d="m428.945312 378.886719-164.84375-138.320313c-5.363281-4.5-6.0625-12.496094-1.5625-17.859375s12.496094-6.0625 17.859376-1.5625l164.84375 138.320313c5.363281 4.5 6.0625 12.496094 1.5625 17.859375s-12.496094 6.0625-17.859376 1.5625zm0 0" fill="#61b6ff"/><path d="m445.242188 359.464844-23.53125-19.742188c-5.214844-2.167968-11.445313-.824218-15.269532 3.734375-3.824218 4.554688-4.066406 10.925781-1.023437 15.6875l23.53125 19.742188c5.363281 4.5 13.355469 3.800781 17.855469-1.5625s3.800781-13.359375-1.5625-17.859375zm0 0" fill="#83d3fc"/><path d="m316.808594 268.246094c3.410156-4.0625 8.488281-5.882813 13.386718-5.3125l-49.800781-41.789063c-5.363281-4.5-13.355469-3.800781-17.855469 1.5625s-3.800781 13.359375 1.5625 17.859375l49.800782 41.785156c-1.410156-4.726562-.5-10.046874 2.90625-14.105468zm0 0" fill="#5294e5"/><path d="m327.007812 460.675781h-64.496093c-7 0-12.675781 5.675781-12.675781 12.675781s5.675781 12.675782 12.675781 12.675782h64.496093c7 0 12.675782-5.675782 12.675782-12.675782 0-7.003906-5.675782-12.675781-12.675782-12.675781zm0 0" fill="#b9e9fd"/><path d="m278.5 473.351562c0-7.003906 5.675781-12.675781 12.675781-12.675781h-28.667969c-7 0-12.675781 5.675781-12.675781 12.675781s5.675781 12.675782 12.675781 12.675782h28.667969c-7 0-12.675781-5.675782-12.675781-12.675782zm0 0" fill="#83d3fc"/><path d="m307.75 405.441406c-18.15625-2.375-12.992188-17.3125-12.992188-17.3125l4.101563-24.660156c-6.660156-14.839844 7.714844-18.464844 7.722656-18.46875-12.683593-4.925781-27.621093-1.546875-36.855469 9.457031-11.601562 13.824219-9.796874 34.433594 4.027344 46.035157 9.800782 8.222656 23.003906 9.703124 33.996094 4.949218zm0 0" fill="#b9e9fd"/><path d="m302.894531 365.769531c-5.363281-4.5-13.359375-3.800781-17.859375 1.5625-4.5 5.359375-3.800781 13.355469 1.5625 17.855469 5.363282 4.5 13.355469 3.800781 17.855469-1.5625 4.5-5.359375 3.800781-13.355469-1.558594-17.855469zm0 0" fill="#83d3fc"/></svg>