<svg height="511pt" viewBox="-10 0 511 511.99429" width="511pt" xmlns="http://www.w3.org/2000/svg"><path d="m481.058594 334.554688c6.144531-21.460938 9.441406-44.125 9.441406-67.5625 0-135.308594-109.691406-245-245.003906-245-69.191406 0-131.675782 28.691406-176.226563 74.816406l-68.699219 175.910156c3.042969 132.664062 111.53125 239.277344 244.929688 239.277344 42.597656 0 82.648438-10.878906 117.546875-30zm0 0" fill="#162680"/><path d="m308.527344 61.269531 62.523437-14.777343c4.035157-.957032 6.535157-5.003907 5.582031-9.039063-.953124-4.039063-5-6.539063-9.039062-5.585937l-78.042969 18.445312zm0 0" fill="#b9e9fd"/><path d="m337.328125 52.898438c-5.359375-3.09375-5.292969-10.273438-.996094-13.640626l-46.78125 11.054688 18.976563 10.957031 31.375-7.417969c-1.53125-.296874-2.507813-.929687-2.574219-.953124zm0 0" fill="#83d3fc"/><path d="m393.601562 110.386719 18.976563 10.957031-23.046875-76.808594c-1.191406-3.976562-5.382812-6.230468-9.355469-5.039062-3.972656 1.191406-6.230469 5.382812-5.035156 9.355468zm0 0" fill="#b9e9fd"/><path d="m398.664062 74.964844c-.976562 5.328125-7.15625 8.835937-12.507812 5.746094-.714844-.410157-1.355469-.925782-1.914062-1.519532l9.359374 31.195313 18.976563 10.957031zm0 0" fill="#83d3fc"/><path d="m265.132812 64.640625c-10.722656 29.816406-4.046874 62.945313 16.496094 86.261719l47.796875 27.597656c30.464844 6.128906 62.496094-4.652344 82.953125-28.84375zm0 0" fill="#b9e9fd"/><path d="m308.460938 89.660156-43.328126-25.015625c-10.722656 29.8125-4.046874 62.941407 16.496094 86.257813l29.617188 17.101562c-13.195313-19.179687-14.472656-49.066406-2.785156-78.34375zm0 0" fill="#83d3fc"/><path d="m120.410156 483.347656c13.351563 7.710938 30.425782 3.136719 38.132813-10.214844l-48.351563-27.917968c-7.707031 13.351562-3.132812 30.425781 10.21875 38.132812zm0 0" fill="#61b6ff"/><path d="m139.605469 462.195312-29.410157-16.980468c-7.710937 13.351562-3.136718 30.425781 10.21875 38.132812 1.707032.988282 3.476563 1.773438 5.28125 2.363282-8.664062-9.828126 1.238282-26.027344 13.910157-23.515626zm0 0" fill="#5294e5"/><path d="m194.175781 439.023438-70.542969-40.726563c-5.289062-3.054687-9.203124-7.574219-11.535156-12.746094l-1.21875-.703125-10.082031 46.113282c-1.324219 6.058593 1.421875 12.277343 6.796875 15.378906l52.996094 30.597656c5.371094 3.101562 12.128906 2.371094 16.714844-1.804688l34.894531-31.789062-1.21875-.703125c-5.644531.566406-11.515625-.5625-16.804688-3.617187zm0 0" fill="#b9e9fd"/><path d="m141.230469 454.679688 13.964843-38.160157-31.558593-18.222656c-5.292969-3.054687-9.203125-7.574219-11.539063-12.746094l-1.21875-.703125-10.082031 46.113282c-1.324219 6.058593 1.425781 12.277343 6.796875 15.378906l33.214844 19.175781c-1.257813-2.539063-1.164063-6.5.421875-10.835937zm0 0" fill="#83d3fc"/><path d="m253.296875 173.714844 70.542969 40.722656c3.5625 2.0625 6.5 4.789062 8.753906 7.929688l9.03125-15.640626c5.648438-9.785156 2.296875-22.292968-7.484375-27.9375l-55.117187-31.824218c-9.78125-5.648438-22.289063-2.292969-27.9375 7.488281l-9.03125 15.640625c3.847656.382812 7.675781 1.558594 11.242187 3.621094zm0 0" fill="#83d3fc"/><path d="m290.730469 177.457031c4.648437-8.054687 11.410156-13.332031 17.007812-13.910156l-28.714843-16.582031c-9.785157-5.648438-22.292969-2.296875-27.9375 7.488281l-9.03125 15.640625c3.847656.382812 7.675781 1.558594 11.242187 3.621094l29.695313 17.140625zm0 0" fill="#61b6ff"/><path d="m193.121094 440.847656-70.539063-40.722656c-13.429687-7.753906-18.027343-24.921875-10.277343-38.347656l103.703124-179.613282c7.75-13.429687 24.917969-18.027343 38.34375-10.277343l70.539063 40.726562c13.425781 7.753907 18.027344 24.921875 10.277344 38.347657l-103.703125 179.613281c-7.75 13.425781-24.917969 18.027343-38.34375 10.273437zm0 0" fill="#b9e9fd"/><path d="m249.679688 372.191406c-.828126-.492187-1.820313-.671875-2.753907-.445312-3.15625.753906-4.707031-.8125-5.464843-2.339844-.609376-1.234375-1.882813-2.019531-3.257813-2.046875-2.609375-.046875-3.957031-1.476563-4.644531-2.789063-.6875-1.304687-2.140625-2.019531-3.609375-1.917968-41.878907 2.898437-55.128907-23.695313-58.445313-32.925782-.558594-1.558593-2.0625-2.621093-3.714844-2.519531-2.644531.160157-3.921874-1.085937-4.535156-2.410156-.671875-1.441406-2.070312-2.417969-3.660156-2.351563-4.394531.183594-5.628906-2.46875-5.964844-4.246093-.199218-1.042969-.78125-1.972657-1.675781-2.539063l-9.535156-6.035156-30.113281 52.152344c-7.75 13.425781-3.148438 30.59375 10.277343 38.347656l70.539063 40.722656c13.425781 7.753906 30.59375 3.152344 38.347656-10.273437l29.757812-51.546875zm0 0" fill="#61b6ff"/><path d="m267.972656 227.757812c-12.203125-7.046874-27.8125-2.867187-34.859375 9.339844-7.050781 12.207032-2.867187 27.816406 9.339844 34.863282 12.207031 7.046874 27.816406 2.867187 34.863281-9.339844 7.046875-12.207032 2.863282-27.816406-9.34375-34.863282zm0 0" fill="#1d319b"/><path d="m242.96875 310.746094-32.640625-18.84375c-8.167969-4.714844-18.609375-1.917969-23.324219 6.25l-60.261718 104.375 62.214843 35.917968 60.261719-104.371093c4.714844-8.167969 1.914062-18.613281-6.25-23.328125zm0 0" fill="#61b6ff"/><path d="m188.957031 438.445312 43.398438-75.171874c-.695313-.453126-1.546875-.679688-2.40625-.621094-41.882813 2.894531-55.128907-23.695313-58.445313-32.925782-.300781-.835937-.875-1.519531-1.59375-1.96875l-43.167968 74.769532zm0 0" fill="#5294e5"/><path d="m363.199219 93.269531 24.804687-42.960937c-4.878906.269531-9.890625-.828125-14.4375-3.453125-4.550781-2.625-8-6.417969-10.210937-10.773438l-24.800781 42.957031zm0 0" fill="#e0f9fe"/><path d="m359.804688 70.171875c-5.429688-3.136719-8.191407-9.121094-7.484376-14.976563l-13.765624 23.84375 24.648437 14.226563 14.464844-25.054687c-4.757813 4.367187-11.976563 5.359374-17.863281 1.960937zm0 0" fill="#b9e9fd"/><path d="m412.472656 152.144531-149.542968-86.339843c-6.808594-3.929688-9.136719-12.632813-5.210938-19.4375 3.929688-6.804688 12.632812-9.136719 19.441406-5.207032l149.542969 86.335938c6.804687 3.929687 9.136719 12.632812 5.207031 19.441406-3.929687 6.804688-12.632812 9.136719-19.4375 5.207031zm0 0" fill="#e0f9fe"/><path d="m304.859375 73.582031c3.277344-5.679687 9.671875-8.414062 15.777344-7.324219l-43.476563-25.097656c-6.804687-3.933594-15.507812-1.601562-19.4375 5.207032-3.929687 6.804687-1.597656 15.507812 5.207032 19.4375l43.476562 25.101562c-3.996094-4.738281-4.824219-11.648438-1.546875-17.324219zm0 0" fill="#b9e9fd"/><path d="m238.507812 278.800781c-15.960937-9.214843-21.453124-29.699219-12.238281-45.660156 9.21875-15.964844 29.703125-21.453125 45.664063-12.238281 15.960937 9.21875 21.453125 29.703125 12.234375 45.664062-9.214844 15.960938-29.699219 21.449219-45.660157 12.234375zm25.519532-44.203125c-8.410156-4.855468-19.207032-1.964844-24.0625 6.449219-4.859375 8.410156-1.964844 19.203125 6.449218 24.0625 8.410157 4.855469 19.203126 1.964844 24.0625-6.449219 4.855469-8.410156 1.964844-19.207031-6.449218-24.0625zm0 0" fill="#3957c9"/><g fill="#61b6ff"><path d="m307.898438 298.1875 16.65625-28.847656c-1.285157-1.523438-2.835938-2.867188-4.664063-3.921875-8.476563-4.894531-19.3125-1.992188-24.207031 6.484375-4.894532 8.476562-1.992188 19.3125 6.484375 24.207031 1.828125 1.054687 3.769531 1.726563 5.730469 2.078125zm0 0"/><path d="m280.441406 345.75 16.65625-28.851562c-1.289062-1.523438-2.839844-2.863282-4.667968-3.921876-8.472657-4.890624-19.3125-1.988281-24.207032 6.488282-4.890625 8.476562-1.988281 19.3125 6.488282 24.207031 1.828124 1.054687 3.765624 1.722656 5.730468 2.078125zm0 0"/><path d="m252.980469 393.308594 16.65625-28.847656c-1.285157-1.523438-2.835938-2.867188-4.664063-3.921876-8.476562-4.894531-19.3125-1.988281-24.207031 6.484376-4.894531 8.476562-1.992187 19.3125 6.484375 24.207031 1.828125 1.054687 3.769531 1.726562 5.730469 2.078125zm0 0"/></g><path d="m249.679688 372.191406c-.828126-.492187-1.820313-.671875-2.753907-.445312-3.15625.753906-4.707031-.8125-5.464843-2.339844-.277344-.566406-.703126-1.03125-1.207032-1.378906-4.125 8.308594-1.148437 18.5 7 23.203125 1.824219 1.054687 3.765625 1.726562 5.726563 2.078125l8.246093-14.28125zm0 0" fill="#5294e5"/><path d="m188.738281 229.390625 16.65625-28.847656c1.964844.351562 3.902344 1.023437 5.730469 2.078125 8.472656 4.894531 11.378906 15.730468 6.484375 24.207031s-15.730469 11.378906-24.207031 6.484375c-1.828125-1.054688-3.378906-2.398438-4.664063-3.921875zm0 0" fill="#61b6ff"/><path d="m161.277344 276.953125 16.65625-28.851563c1.964844.351563 3.902344 1.023438 5.730468 2.078126 8.476563 4.894531 11.378907 15.734374 6.484376 24.207031-4.890626 8.476562-15.730469 11.378906-24.207032 6.488281-1.824218-1.054688-3.375-2.398438-4.664062-3.921875zm0 0" fill="#61b6ff"/><path d="m133.820312 324.511719 16.65625-28.847657c1.964844.351563 3.902344 1.023438 5.730469 2.078126 8.472657 4.894531 11.378907 15.730468 6.484375 24.207031-4.894531 8.476562-15.730468 11.378906-24.207031 6.484375-1.828125-1.054688-3.378906-2.398438-4.664063-3.921875zm0 0" fill="#61b6ff"/><path d="m138.484375 328.433594c8.054687 4.652344 18.230469 2.25 23.421875-5.269532-.660156-.480468-1.457031-.753906-2.3125-.71875-4.394531.183594-5.628906-2.46875-5.96875-4.246093-.195312-1.042969-.777344-1.972657-1.675781-2.539063l-9.535157-6.035156-8.59375 14.886719c1.285157 1.523437 2.835938 2.867187 4.664063 3.921875zm0 0" fill="#5294e5"/><path d="m334.96875 303.714844-28.929688-16.703125c-3.78125-2.183594-5.078124-7.019531-2.894531-10.800781 2.183594-3.78125 7.019531-5.078126 10.796875-2.894532l28.933594 16.703125c3.78125 2.183594 5.074219 7.019531 2.894531 10.800781-2.183593 3.78125-7.019531 5.074219-10.800781 2.894532zm0 0" fill="#face7a"/><path d="m280.050781 398.835938-28.929687-16.707032c-3.78125-2.179687-5.078125-7.015625-2.894532-10.796875 2.183594-3.78125 7.019532-5.078125 10.796876-2.894531l28.933593 16.703125c3.78125 2.183594 5.074219 7.019531 2.894531 10.800781-2.183593 3.78125-7.019531 5.074219-10.800781 2.894532zm0 0" fill="#face7a"/><path d="m307.511719 351.273438-28.933594-16.703126c-3.78125-2.183593-5.074219-7.019531-2.894531-10.800781 2.183594-3.78125 7.019531-5.074219 10.800781-2.890625l28.929687 16.703125c3.78125 2.179688 5.078126 7.015625 2.894532 10.796875s-7.015625 5.078125-10.796875 2.894532zm0 0" fill="#face7a"/><path d="m381.621094 289.398438c-13.871094-8.007813-31.972656-2.871094-40.222656 11.417968-18.617188 32.246094-43.039063 74.542969-52.945313 91.703125-8.007813 13.875-3.210937 31.777344 10.660156 39.785157 17.1875 9.921874 56.160157 32.425781 74.945313 43.269531 48.273437-29.816407 85.417968-75.90625 103.769531-130.628907-37.285156-21.527343-61.65625-35.601562-96.207031-55.546874zm0 0" fill="#5294e5"/><path d="m343.816406 425.925781c10.070313-17.445312 34.902344-60.453125 53.828125-93.234375 7.042969-12.199218 21.144531-17.832031 33.832031-14.511718-16.050781-9.265626-31.519531-18.195313-49.851562-28.78125-13.875-8.007813-31.972656-2.871094-40.226562 11.417968-18.613282 32.246094-43.035157 74.542969-52.941407 91.703125-8.011719 13.875-3.214843 31.777344 10.65625 39.785157 10.800781 6.234374 30.199219 17.433593 47.785157 27.589843-7.839844-9.273437-9.480469-22.886719-3.082032-33.96875zm0 0" fill="#4374d3"/><path d="m398.601562 3.503906c-12.480468-7.203125-28.433593-2.929687-35.640624 9.550782-7.203126 12.476562-2.925782 28.433593 9.550781 35.636718 12.476562 7.203125 28.433593 2.929688 35.636719-9.550781 7.203124-12.476563 2.929687-28.429687-9.546876-35.636719zm0 0" fill="#fc7acd"/><path d="m411.210938 21.386719c-.378907 1.667969-1.011719 3.3125-1.910157 4.871093-4.835937 8.371094-15.542969 11.242188-23.914062 6.40625-8.371094-4.832031-11.242188-15.539062-6.40625-23.910156 2.546875-4.417968 6.738281-7.285156 11.351562-8.316406-10.566406-1.964844-21.6875 2.765625-27.367187 12.605469-7.207032 12.476562-2.929688 28.433593 9.546875 35.636719 12.476562 7.207031 28.433593 2.929687 35.636719-9.546876 3.226562-5.585937 4.144531-11.863281 3.0625-17.746093zm0 0" fill="#f948b4"/><path d="m298.8125 426.652344c-10.625-6.132813-14.28125-19.769532-8.144531-30.398438l55.28125-95.75c6.136719-10.625 19.773437-14.277344 30.398437-8.144531l99.738282 57.582031c1.816406-5.054687 3.480468-10.183594 4.972656-15.386718l-96.804688-55.886719c-18.175781-10.496094-41.503906-4.246094-51.996094 13.929687l-55.28125 95.75c-10.496093 18.179688-4.246093 41.503906 13.929688 52l72.140625 41.648438c5.304687-2.90625 10.484375-6.003906 15.542969-9.285156zm0 0" fill="#61b6ff"/><path d="m168.699219 207.71875 28.933593 16.703125c3.78125 2.183594 8.617188.886719 10.796876-2.894531 2.183593-3.78125.886718-8.617188-2.890626-10.800782l-28.933593-16.703124c-3.78125-2.183594-8.617188-.886719-10.796875 2.894531-2.183594 3.785156-.890625 8.617187 2.890625 10.800781zm0 0" fill="#face7a"/><path d="m113.78125 302.839844 28.933594 16.703125c3.78125 2.183593 8.617187.886719 10.796875-2.894531 2.183593-3.78125.890625-8.613282-2.890625-10.796876l-28.933594-16.707031c-3.78125-2.179687-8.617188-.886719-10.796875 2.894531-2.183594 3.78125-.890625 8.617188 2.890625 10.800782zm0 0" fill="#face7a"/><path d="m141.242188 255.277344 28.929687 16.703125c3.78125 2.183593 8.617187.890625 10.800781-2.894531 2.183594-3.78125.886719-8.613282-2.894531-10.796876l-28.929687-16.703124c-3.78125-2.183594-8.617188-.890626-10.800782 2.890624-2.183594 3.785157-.886718 8.617188 2.894532 10.800782zm0 0" fill="#face7a"/><path d="m157.769531 160.15625c-40.351562-23.296875-79.769531-46.054688-95.878906-55.355469-36.578125 41.375-59.605469 95.507813-61.285156 155.160157l49.929687 28.828124c1.03125-1.785156 1.074219-1.859374 0 0l24.726563 14.273438c13.871093 8.011719 31.777343 3.214844 39.785156-10.660156 10.09375-17.480469 41.042969-71.085938 52.945313-91.699219 8.25-14.292969 3.652343-32.535156-10.222657-40.546875zm0 0" fill="#5294e5"/><path d="m122.40625 139.742188c-26.484375-15.292969-49.226562-28.421876-60.515625-34.941407-36.578125 41.375-59.605469 95.507813-61.285156 155.160157l34.75 20.0625c2.101562.546874 3.890625 1.203124 5.269531 2-7.84375-9.273438-9.484375-22.886719-3.085938-33.96875 10.070313-17.445313 34.898438-60.449219 53.828126-93.234376 6.527343-11.308593 19.125-16.964843 31.039062-15.078124zm0 0" fill="#4374d3"/><path d="m165.75 152.511719-96.480469-55.703125c-3.746093 3.878906-7.359375 7.882812-10.84375 11.996094l99.417969 57.398437c10.625 6.136719 14.28125 19.773437 8.144531 30.398437l-55.28125 95.75c-6.136719 10.628907-19.773437 14.28125-30.398437 8.148438l-79.5-45.902344c-.207032 4.109375-.3125 8.238282-.3125 12.394532 0 1.917968.03125 3.824218.074218 5.726562l71.832032 41.472656c18.175781 10.496094 41.5 4.246094 51.996094-13.933594l55.28125-95.75c10.496093-18.175781 4.246093-41.5-13.929688-51.996093zm0 0" fill="#61b6ff"/><path d="m427.910156 303.871094-43.65625-25.203125c-18.175781-10.496094-41.503906-4.246094-51.996094 13.929687l-55.28125 95.75c-10.496093 18.179688-4.246093 41.503906 13.933594 52l42.402344 24.484375c-4.480469-11.621093 8.625-13.28125 8.625-13.28125l-43.125-24.898437c-10.625-6.132813-14.28125-19.769532-8.144531-30.398438l55.28125-95.75c6.136719-10.625 19.773437-14.28125 30.398437-8.144531l43.617188 25.183594c-4.871094-13.117188 7.945312-13.671875 7.945312-13.671875zm0 0" fill="#5294e5"/><path d="m36.238281 275.054688-35.429687-20.453126c-.207032 4.105469-.3125 8.234376-.3125 12.394532 0 1.914062.03125 3.820312.074218 5.722656l27.550782 15.910156c-4.421875-12.074218 8.113281-13.574218 8.117187-13.574218zm0 0" fill="#5294e5"/><path d="m58.425781 108.808594 53.871094 31.101562c-4.003906-12.417968 9.3125-12.882812 9.3125-12.882812l-52.339844-30.21875c-3.746093 3.878906-7.359375 7.882812-10.84375 12zm0 0" fill="#5294e5"/></svg>