<svg height="511pt" viewBox="-4 1 511 511.99925" width="511pt" xmlns="http://www.w3.org/2000/svg"><path d="m437.324219 419.402344c33.28125-41.832032 53.175781-94.792969 53.175781-152.402344 0-135.3125-109.6875-245.003906-245-245.003906s-245 109.691406-245 245.003906c0 34.300781 7.058594 66.945312 19.789062 96.585938zm0 0" fill="#162680"/><path d="m410.472656 295.347656c-58.332031-101.035156-187.527344-135.652344-288.566406-77.320312-55.699219 32.160156-91.199219 85.855468-102.085938 144.496094 37.230469 87.847656 124.257813 149.476562 225.679688 149.476562 78.113281 0 147.6875-36.558594 192.550781-93.496094 3.488281-41.46875-5.195312-84.386718-27.578125-123.15625zm0 0" fill="#face7a"/><path d="m202.5 463.988281c-.808594-7.359375-5.101562-13.890625-11.507812-17.601562-17.429688-10.085938-20.875-26.203125-20.941407-37.105469-.046875-7.417969-3.605469-14.34375-9.550781-18.777344-39.285156-29.3125-31.332031-63.601562-21.386719-83.53125 4.644531-9.304687 2.671875-20.558594-4.929687-27.65625-27.789063-25.9375-12.277344-61.285156-12.277344-61.289062-55.699219 32.15625-91.199219 85.855468-102.085938 144.496094 35.425782 83.585937 115.933594 143.429687 211.023438 149.039062-21.054688-13.476562-26.886719-34.28125-28.34375-47.574219zm0 0" fill="#fc9949"/><path d="m410.472656 295.347656c-12.164062-21.070312-27.421875-39.238281-44.851562-54.292968-5.414063 9.890624-8.726563 20.804687-9.714844 32.007812-1.046875 11.828125-7.65625 22.449219-17.9375 28.386719v.003906c-10.292969 5.941406-22.800781 6.339844-33.578125 1.328125-23.179687-10.777344-51.066406-10.46875-74.882813 3.28125-23.820312 13.753906-38.027343 37.75-40.285156 63.210938-1.050781 11.839843-7.648437 22.472656-17.941406 28.414062-10.285156 5.9375-22.785156 6.351562-33.550781 1.339844-23.878907-11.109375-52.757813-10.457032-77.039063 4.542968-4.394531 2.71875-8.421875 5.816407-12.113281 9.207032 31.851563 42.953125 77.414063 75.121094 130.222656 90.03125 2.945313-7.375 4.804688-15.152344 5.507813-23.070313 1.050781-11.839843 7.648437-22.472656 17.941406-28.414062 10.292969-5.941407 22.800781-6.339844 33.578125-1.328125 23.179687 10.773437 51.0625 10.46875 74.882813-3.28125 23.820312-13.753906 38.027343-37.75 40.285156-63.210938 1.046875-11.839844 7.648437-22.472656 17.9375-28.414062 10.292968-5.941406 22.800781-6.339844 33.578125-1.332032 10.191406 4.738282 21.289062 7.332032 32.554687 7.585938-4.320312-22.625-12.429687-44.921875-24.59375-65.996094zm0 0" fill="#f948b4"/><path d="m184.308594 479.738281c.925781-10.425781 6.15625-19.910156 14.421875-26.085937-1.964844-2.941406-4.59375-5.445313-7.738281-7.265625-17.429688-10.085938-20.875-26.203125-20.941407-37.105469-.023437-3.457031-.816406-6.804688-2.25-9.84375-9.542969 4.199219-20.492187 4.046875-30.070312-.410156-23.878907-11.109375-52.757813-10.457032-77.039063 4.542968-4.394531 2.714844-8.421875 5.816407-12.109375 9.203126 31.847657 42.953124 77.410157 75.125 130.222657 90.03125 2.941406-7.371094 4.804687-15.148438 5.503906-23.066407zm0 0" fill="#f6159c"/><path d="m423.535156 414.890625c-22.183594 11.9375-36.46875 32.566406-41.113281 55.28125 21.113281-14.253906 39.894531-31.703125 55.628906-51.671875.273438-3.269531.464844-6.550781.585938-9.835938-5.152344 1.53125-10.214844 3.59375-15.101563 6.226563zm0 0" fill="#fc9949"/><path d="m83.777344 437.113281c-3.09375 1.785157-5.910156 3.847657-8.457032 6.113281 20.054688 19.375 43.402344 35.363282 69.132813 47.027344 6.871094-12.644531 7.515625-27.664062.324219-40.125-11.535156-19.980468-38.847656-25.804687-61-13.015625zm0 0" fill="#c6237c"/><path d="m47.84375 289.851562c15.0625 1.933594 31.371094 6.242188 52.3125 7.742188 37.9375 2.71875 64.09375-18.617188 70.371094-45.375 2.269531-9.6875 8.351562-18.128906 17.097656-23.179688 10.292969-5.941406 22.800781-6.339843 33.578125-1.328124 23.179687 10.773437 51.066406 10.46875 74.882813-3.285157 7.410156-4.277343 13.886718-9.550781 19.367187-15.546875-97.9375-44.730468-212.335937-8.605468-267.609375 80.972656zm0 0" fill="#c78fe8"/><path d="m134.183594 279.316406c-27.789063-25.941406-12.277344-61.289062-12.277344-61.289062l-.003906-.007813c-29.550782 17.027344-55.234375 41.324219-74.058594 71.832031 15.0625 1.933594 31.371094 6.242188 52.3125 7.742188 15.71875 1.125 29.40625-1.886719 40.503906-7.695312-1.140625-3.953126-3.316406-7.628907-6.476562-10.582032zm0 0" fill="#b26cde"/><path d="m92.65625 337.773438c-4.355469-7.539063-15.339844-9.34375-24.535156-4.035157-9.199219 5.3125-13.125 15.730469-8.773438 23.269531 4.351563 7.539063 15.335938 9.34375 24.535156 4.035157 9.199219-5.3125 13.125-15.726563 8.773438-23.269531zm0 0" fill="#fd7e31"/><path d="m202.605469 95.214844-20.910157-20.910156c2.851563-.601563 5.566407-2.003907 7.78125-4.21875 2.214844-2.210938 3.617188-4.929688 4.214844-7.78125l20.914063 20.914062zm0 0" fill="#83d3fc"/><path d="m201.917969 70.535156c1.195312 3.3125.476562 7.160156-2.179688 9.816406s-6.503906 3.375-9.816406 2.179688l12.683594 12.683594 11.996093-11.996094zm0 0" fill="#61b6ff"/><path d="m254.664062 63.597656c10.773438 15.515625 12.039063 35.625 3.808594 52.21875l-23.265625 23.269532c-16.597656 8.230468-36.707031 6.960937-52.21875-3.8125zm0 0" fill="#b9e9fd"/><path d="m207.886719 110.375-24.898438 24.898438c15.511719 10.773437 35.621094 12.042968 52.21875 3.8125l16.398438-16.402344c-12.148438 3.699218-28.832031-.894532-43.71875-12.308594zm0 0" fill="#83d3fc"/><path d="m278.304688 124.582031-34.335938 34.335938c-1.734375 1.738281-3.007812 3.761719-3.820312 5.917969l-7.613282-7.613282c-4.761718-4.761718-4.761718-12.480468 0-17.246094l26.828125-26.828124c4.761719-4.761719 12.480469-4.761719 17.242188 0l7.613281 7.613281c-2.152344.816406-4.175781 2.085937-5.914062 3.820312zm0 0" fill="#83d3fc"/><path d="m254.589844 135.203125c-4.148438-4.152344-6.214844-9.050781-5.304688-11.976563l-16.75 16.75c-4.761718 4.761719-4.761718 12.480469 0 17.242188l7.617188 7.617188c.8125-2.160157 2.082031-4.183594 3.816406-5.917969l17.167969-17.167969zm0 0" fill="#61b6ff"/><path d="m402.605469 282.382812c-6.5 6.496094-17.035157 6.496094-23.535157 0l23.535157-23.539062c6.5 6.5 6.5 17.039062 0 23.539062zm0 0" fill="#83d3fc"/><path d="m393.460938 267.988281-14.390626 14.394531c6.5 6.496094 17.035157 6.496094 23.535157 0 .558593-.558593 1.046875-1.152343 1.511719-1.765624-6.886719 2.003906-13.746094-5.878907-10.65625-12.628907zm0 0" fill="#61b6ff"/><path d="m353.289062 268.238281 34.335938-34.335937c2.578125-2.574219 4.132812-5.78125 4.679688-9.121094l.59375-.59375 12.917968 25c1.699219 3.285156 1.078125 7.289062-1.539062 9.902344l-25.796875 25.800781c-2.617188 2.613281-6.621094 3.234375-9.90625 1.539063l-25-12.921876.59375-.59375c3.339843-.542968 6.546875-2.101562 9.121093-4.675781zm0 0" fill="#b9e9fd"/><path d="m391.824219 263.613281-22.355469-11.554687-16.179688 16.179687c-2.574218 2.574219-5.78125 4.132813-9.121093 4.675781l-.59375.59375 25 12.921876c3.285156 1.699218 7.289062 1.074218 9.90625-1.539063l21.5-21.5c-2.46875 1.429687-5.535157 1.578125-8.15625.222656zm0 0" fill="#83d3fc"/><path d="m354.175781 269.128906 34.339844-34.339844c6.535156-6.535156 6.535156-17.128906 0-23.664062l-87.429687-87.433594c-6.535157-6.53125-17.132813-6.53125-23.667969 0l-34.335938 34.339844c-6.539062 6.535156-6.539062 17.128906 0 23.664062l87.429688 87.433594c6.535156 6.535156 17.132812 6.535156 23.664062 0zm0 0" fill="#e0f9fe"/><path d="m358.878906 241.554688-88.226562-88.222657c-5.402344-5.40625-8.101563-11.824219-7.027344-15.847656l-20.542969 20.546875c-6.539062 6.535156-6.539062 17.132812 0 23.664062l87.429688 87.433594c6.535156 6.535156 17.128906 6.535156 23.664062 0l20.546875-20.546875c-4.019531 1.078125-10.441406-1.625-15.84375-7.027343zm0 0" fill="#b9e9fd"/><path d="m272.199219 185.472656c-9.234375-9.234375-9.234375-24.261718 0-33.496094 9.234375-9.238281 24.261719-9.234374 33.496093-.003906 9.253907 9.257813 9.257813 24.238282 0 33.5-9.257812 9.253906-24.238281 9.253906-33.496093 0zm11.976562-21.519531c-2.628906 2.628906-2.628906 6.910156 0 9.539063 2.636719 2.636718 6.902344 2.640624 9.539063 0 2.636718-2.636719 2.636718-6.902344 0-9.539063-2.628906-2.628906-6.90625-2.628906-9.539063 0zm0 0" fill="#face7a"/><path d="m304.144531 186.871094c-4.980469-.003906-6.007812-2.585938-6.121093-4.375-.066407-.992188-.703126-1.855469-1.65625-2.136719-4.453126-1.308594-7.898438-3.363281-10.578126-5.675781-.582031-.304688-1.125-.703125-1.613281-1.191406-.484375-.484376-.882812-1.03125-1.1875-1.609376-3.492187-4.0625-5.089843-8.332031-5.742187-10.640624-.269532-.957032-1.113282-1.605469-2.101563-1.695313-4.316406-.390625-4.542969-4.566406-4.511719-5.839844-7.632812 9.296875-7.113281 23.089844 1.566407 31.765625 8.757812 8.757813 22.636719 9.214844 31.945312 1.398438zm0 0" fill="#fc9949"/><g fill="#61b6ff"><path d="m233.519531 223.191406c-3.308593-3.308594-3.308593-8.671875 0-11.980468l22.070313-22.066407c3.308594-3.308593 8.667968-3.304687 11.976562 0 3.308594 3.308594 3.308594 8.671875 0 11.980469l-22.066406 22.066406c-3.308594 3.308594-8.671875 3.308594-11.980469 0zm0 0"/><path d="m279.820312 269.496094c-3.308593-3.308594-3.308593-8.671875 0-11.980469l22.070313-22.070313c3.308594-3.304687 8.671875-3.304687 11.976563 0 3.308593 3.3125 3.308593 8.671876 0 11.980469l-22.066407 22.070313c-3.308593 3.304687-8.671875 3.304687-11.980469 0zm0 0"/><path d="m256.671875 246.34375c-3.308594-3.308594-3.308594-8.671875 0-11.976562l22.066406-22.070313c3.308594-3.304687 8.671875-3.304687 11.980469 0 3.308594 3.308594 3.308594 8.671875 0 11.976563l-22.066406 22.070312c-3.3125 3.308594-8.671875 3.304688-11.980469 0zm0 0"/><path d="m308.53125 148.179688c-3.304688-3.308594-3.304688-8.671876 0-11.980469l22.070312-22.066407c3.308594-3.308593 8.671876-3.308593 11.976563 0 3.308594 3.308594 3.308594 8.667969 0 11.976563l-22.066406 22.070313c-3.308594 3.308593-8.671875 3.308593-11.980469 0zm0 0"/><path d="m354.835938 194.480469c-3.308594-3.308594-3.308594-8.667969 0-11.976563l22.066406-22.070312c3.308594-3.304688 8.671875-3.304688 11.976562 0 3.308594 3.308594 3.308594 8.671875 0 11.980468l-22.066406 22.066407c-3.308594 3.308593-8.667969 3.308593-11.976562 0zm0 0"/><path d="m331.683594 171.332031c-3.308594-3.308593-3.308594-8.671875 0-11.980469l22.070312-22.070312c3.308594-3.304688 8.667969-3.304688 11.976563 0 3.308593 3.308594 3.308593 8.671875 0 11.980469l-22.066407 22.070312c-3.308593 3.308594-8.671874 3.304688-11.980468 0zm0 0"/><path d="m484.34375 65.210938-11.386719-11.390626-23.738281-23.734374-11.367188-11.367188c-7.035156-7.035156-18.511718-7.074219-25.507812-.078125-8.65625 8.65625-66.191406 66.195313-75.78125 75.785156-6.996094 6.992188-6.957031 18.46875.078125 25.503907 6.65625 6.660156 28.242187 28.242187 35.164063 35.167968l11.328124 11.328125c7.011719 7.007813 18.46875 7.023438 25.460938.03125 15.1875-15.1875 58.433594-58.433593 75.785156-75.785156 6.992188-6.992187 6.976563-18.449219-.035156-25.460937zm0 0"/></g><path d="m436.59375 133.378906c-6.558594 5.511719-16.449219 5.179688-22.628906-1l-10.546875-10.542968c-6.445313-6.449219-26.539063-26.539063-32.738281-32.738282-5.773438-5.777344-6.476563-14.761718-2.101563-21.269531l-2.761719-2.660156c-13.359375 13.359375-25.328125 25.328125-29.253906 29.253906-6.996094 6.992187-6.957031 18.472656.078125 25.507813 6.65625 6.660156 28.242187 28.242187 35.164063 35.167968l11.328124 11.324219c7.011719 7.011719 18.46875 7.027344 25.460938.035156 6.480469-6.484375 18.078125-18.078125 30.585938-30.589843zm0 0" fill="#5294e5"/><path d="m375.683594 177.441406-49.625-49.625c-10.761719-10.757812-10.761719-28.289062 0-39.050781l80.691406-80.691406c10.769531-10.765625 28.285156-10.765625 39.054688 0l49.625 49.625c10.761718 10.761719 10.761718 28.289062 0 39.050781l-80.691407 80.691406c-10.761719 10.761719-28.292969 10.761719-39.054687 0zm43.046875-157.390625-80.691407 80.695313c-4.140624 4.140625-4.140624 10.953125 0 15.09375l49.625 49.625c4.140626 4.140625 10.953126 4.140625 15.09375 0l80.691407-80.691406c4.164062-4.164063 4.164062-10.933594 0-15.09375v-.003907l-49.621094-49.621093c-4.164063-4.164063-10.9375-4.164063-15.097656-.003907zm0 0" fill="#b9e9fd"/><path d="m183.316406 136.722656 72.792969-72.792968c3.3125-3.3125 3.3125-8.683594 0-12-3.3125-3.3125-8.683594-3.3125-11.996094 0l-72.792969 72.792968c-3.3125 3.3125-3.3125 8.6875 0 12s8.683594 3.3125 11.996094 0zm0 0" fill="#e0f9fe"/><path d="m198.484375 109.558594c-2.789063-2.792969-3.347656-6.960938-1.6875-10.3125l-25.476563 25.476562c-3.3125 3.3125-3.3125 8.6875 0 12s8.683594 3.3125 11.996094 0l25.476563-25.476562c-3.347657 1.660156-7.519531 1.101562-10.308594-1.6875zm0 0" fill="#b9e9fd"/><path d="m190.363281 48.984375c-6.074219-6.074219-15.921875-6.074219-21.996093 0-6.074219 6.074219-6.074219 15.917969 0 21.992187 6.074218 6.074219 15.921874 6.074219 21.996093 0 6.074219-6.074218 6.074219-15.917968 0-21.992187zm0 0" fill="#fc7acd"/><path d="m191.992188 61.488281c-3.902344 3.902344-10.230469 3.902344-14.132813 0-3.902344-3.902343-3.902344-10.230469 0-14.136719 1.320313-1.320312 2.921875-2.183593 4.609375-2.609374-4.9375-1-10.269531.40625-14.101562 4.238281-6.074219 6.074219-6.074219 15.921875 0 21.996093 6.074218 6.074219 15.921874 6.074219 21.996093 0 3.832031-3.832031 5.242188-9.160156 4.242188-14.097656-.429688 1.6875-1.292969 3.289063-2.613281 4.609375zm0 0" fill="#f948b4"/><path d="m299.703125 157.964844c-5.941406-5.941406-15.578125-5.941406-21.519531 0s-5.941406 15.574218 0 21.515625c5.941406 5.945312 15.578125 5.945312 21.519531 0 5.941406-5.941407 5.941406-15.574219 0-21.515625zm0 0" fill="#fc9949"/><path d="m297.574219 181.246094c-.289063-.414063-.699219-.738282-1.207031-.886719-13.582032-3.988281-17.921876-14.878906-19.121094-19.121094-.136719-.480469-.417969-.882812-.792969-1.179687-4.121094 5.933594-3.550781 14.136718 1.734375 19.421875 5.277344 5.277343 13.457031 5.855469 19.386719 1.765625zm0 0" fill="#fd7e31"/><path d="m432.011719 136.210938-29.253907 29.253906c-4.140624 4.140625-10.953124 4.140625-15.09375 0l-49.625-49.625c-4.140624-4.140625-4.140624-10.953125 0-15.09375l28.40625-28.40625-.019531-.007813s-13.605469 2.21875-12.144531-11.789062l-28.21875 28.222656c-10.761719 10.761719-10.765625 28.292969 0 39.050781l49.625 49.625c10.761719 10.761719 28.289062 10.761719 39.050781 0l28.601563-28.601562c-1.09375.121094-13.519532 1.203125-11.328125-12.628906zm0 0" fill="#83d3fc"/><path d="m285.167969 262.703125-11.386719-11.390625-23.738281-23.734375-11.367188-11.367187c-7.035156-7.035157-18.511719-7.074219-25.503906-.078126-8.660156 8.65625-66.195313 66.195313-75.785156 75.785157-6.992188 6.992187-6.957031 18.46875.078125 25.503906 6.660156 6.660156 28.242187 28.242187 35.167968 35.167969l11.324219 11.328125c7.011719 7.007812 18.46875 7.023437 25.460938.03125 15.191406-15.1875 58.4375-58.433594 75.785156-75.785157 6.992187-6.992187 6.976563-18.449218-.035156-25.460937zm0 0" fill="#61b6ff"/><path d="m237.417969 330.871094c-6.558594 5.511718-16.449219 5.179687-22.628907-1l-10.546874-10.542969c-6.445313-6.449219-26.539063-26.539063-32.738282-32.738281-5.773437-5.777344-6.476562-14.761719-2.101562-21.269532l-2.761719-2.660156c-13.359375 13.359375-25.328125 25.328125-29.257813 29.253906-6.992187 6.992188-6.957031 18.472657.082032 25.507813 6.65625 6.660156 28.242187 28.242187 35.164062 35.167969l11.328125 11.324218c7.011719 7.011719 18.46875 7.027344 25.460938.03125 6.480469-6.480468 18.078125-18.074218 30.585937-30.585937zm0 0" fill="#5294e5"/><path d="m176.507812 374.933594-49.621093-49.625c-10.765625-10.757813-10.761719-28.289063 0-39.050782l80.691406-80.691406c10.765625-10.765625 28.285156-10.765625 39.050781 0l49.625 49.625c10.761719 10.761719 10.761719 28.289063 0 39.054688l-80.691406 80.6875c-10.761719 10.761718-28.289062 10.761718-39.054688 0zm43.046876-157.390625-80.691407 80.691406c-4.140625 4.144531-4.140625 10.957031 0 15.097656l49.625 49.625c4.140625 4.140625 10.953125 4.140625 15.09375 0l80.691407-80.691406c4.164062-4.164063 4.164062-10.933594 0-15.09375v-.003906l-49.625-49.621094c-4.160157-4.164063-10.933594-4.164063-15.09375-.003906zm0 0" fill="#b9e9fd"/><path d="m232.835938 333.703125-29.253907 29.253906c-4.140625 4.140625-10.953125 4.140625-15.09375 0l-49.625-49.625c-4.140625-4.140625-4.144531-10.953125 0-15.097656l28.40625-28.402344-.019531-.007812s-13.601562 2.21875-12.144531-11.789063l-28.21875 28.222656c-10.761719 10.761719-10.765625 28.292969 0 39.050782l49.621093 49.625c10.765626 10.761718 28.292969 10.761718 39.054688 0l28.601562-28.601563c-1.089843.125-13.519531 1.207031-11.328124-12.628906zm0 0" fill="#83d3fc"/></svg>