<svg height="512pt" viewBox="-11 0 512 512" width="512pt" xmlns="http://www.w3.org/2000/svg"><path d="m490 267c0 135.308594-109.691406 245-245 245s-245-109.691406-245-245 109.691406-245 245-245 245 109.691406 245 245zm0 0" fill="#293d7c"/><path d="m436.320312 420c3.949219-4.929688 7.730469-10.003906 11.292969-15.234375-5.039062-4.21875-11.527343-6.765625-18.613281-6.765625-4.714844 0-9.160156 1.132812-13.09375 3.128906-3.625-13.628906-15.878906-23.730468-30.554688-24.109375l-9.109374 42.980469zm0 0" fill="#159e97"/><path d="m113.757812 420-11.355468-53.578125c-12.476563 5.578125-21.53125 17.441406-23.136719 31.566406-2.820313-.640625-5.75-.988281-8.765625-.988281-10.171875 0-19.445312 3.847656-26.449219 10.164062 3.066407 4.390626 6.277344 8.664063 9.617188 12.835938zm0 0" fill="#159e97"/><path d="m102.402344 366.421875c-12.480469 5.578125-21.53125 17.441406-23.136719 31.566406-2.820313-.640625-5.75-.988281-8.765625-.988281-10.175781 0-19.449219 3.847656-26.449219 10.164062 2.136719 3.0625 4.351563 6.066407 6.625 9.019532 7.136719-5.765625 16.210938-9.222656 26.097657-9.222656 3.171874 0 6.257812.363281 9.226562 1.039062 1.445312-12.679688 8.59375-23.621094 18.8125-30.214844zm0 0" fill="#0f9390"/><path d="m112.699219 420h102.058593l-39.351562-185.6875-17.945312 4.144531c-.566407.132813-1.148438.195313-1.726563.195313-3.535156 0-6.675781-2.480469-7.464844-5.898438-.945312-4.09375 1.640625-8.199218 5.761719-9.152344.539062-.125.875-.660156.75-1.199218-.105469-.460938-.515625-.773438-.972656-.773438-.074219 0-.148438.007813-.226563.023438-.566406.132812-1.148437.199218-1.726562.199218-3.535157 0-6.671875-2.480468-7.460938-5.898437-.457031-1.972656-.109375-4.015625.984375-5.75 1.089844-1.734375 2.785156-2.941406 4.773438-3.402344.539062-.125.875-.660156.75-1.199219-.105469-.460937-.519532-.777343-.972656-.777343-.078126 0-.152344.011719-.226563.027343-.566406.128907-1.148437.199219-1.726563.199219-3.535156 0-6.675781-2.484375-7.464843-5.902343-.457031-1.972657-.105469-4.011719.984375-5.746094 1.09375-1.738282 2.789062-2.945313 4.777344-3.40625.539062-.121094.875-.660156.75-1.199219-.109376-.460937-.519532-.773437-.972657-.773437-.078125 0-.152343.007812-.226562.023437-.566407.132813-1.148438.199219-1.726563.199219-3.535156 0-6.675781-2.480469-7.464844-5.898438-.945312-4.09375 1.640626-8.199218 5.761719-9.152344l19.125-4.414062-8.304687-39.179688c-.570313-2.691406.039062-6.871093 1.347656-9.285156l62.898438-115.921875c1.308593-2.417969 4.632812-4.394531 7.382812-4.394531h-102.058594c-2.75 0-6.070312 1.976562-7.382812 4.394531l-62.898438 115.917969c-1.3125 2.417969-1.917968 6.597656-1.347656 9.289062zm0 0" fill="#683f23"/><path d="m134.316406 417.433594c.199219.945312.671875 1.816406 1.308594 2.566406h79.132812l-39.351562-185.6875-17.945312 4.144531c-.566407.132813-1.148438.195313-1.726563.195313-3.535156 0-6.675781-2.480469-7.464844-5.898438-.945312-4.09375 1.640625-8.199218 5.761719-9.152344.539062-.125.875-.660156.75-1.199218-.105469-.460938-.519531-.773438-.972656-.773438-.074219 0-.152344.007813-.226563.023438-.566406.132812-1.148437.199218-1.726562.199218-3.535157 0-6.675781-2.480468-7.464844-5.898437-.453125-1.972656-.105469-4.015625.984375-5.75 1.09375-1.734375 2.789062-2.941406 4.777344-3.402344.539062-.125.875-.660156.75-1.199219-.109375-.460937-.519532-.777343-.976563-.777343-.074219 0-.148437.011719-.226562.027343-.566407.128907-1.144531.199219-1.722657.199219-3.539062 0-6.675781-2.484375-7.464843-5.902343-.457031-1.972657-.105469-4.011719.984375-5.746094 1.089844-1.738282 2.789062-2.945313 4.777344-3.40625.535156-.121094.871093-.660156.75-1.199219-.109376-.460937-.519532-.773437-.976563-.773437-.074219 0-.148437.007812-.226563.023437-.566406.132813-1.144531.199219-1.722656.199219-3.539062 0-6.675781-2.480469-7.464844-5.898438-.945312-4.09375 1.636719-8.199218 5.761719-9.152344l19.121094-4.414062-8.300781-39.179688c-.570313-2.691406.035156-6.871093 1.347656-9.285156l53.519531-98.636718h-72.394531c-2.75 0-6.070312 1.976562-7.382812 4.394531l-52.933594 97.558593c-1.3125 2.417969-1.917969 6.597657-1.347656 9.285157zm0 0" fill="#231f20"/><path d="m134.316406 417.433594c.199219.945312.671875 1.816406 1.308594 2.566406h20.195312c-.636718-.75-1.109374-1.621094-1.308593-2.566406l-60.296875-284.515625c-.570313-2.691407.039062-6.867188 1.347656-9.285157l52.933594-97.558593c1.3125-2.417969 4.636718-4.394531 7.386718-4.394531h-20.191406c-2.75 0-6.074218 1.976562-7.386718 4.394531l-52.933594 97.558593c-1.3125 2.417969-1.917969 6.597657-1.347656 9.285157zm0 0"/><path d="m153.828125 132.5c-4.425781 3.46875-9.195313 4.667969-12.664063 2.667969-5.578124-3.222657-5.667968-13.503907-.203124-22.96875.683593-1.1875 1.433593-2.296875 2.214843-3.339844l-20.03125-11.5625c-.769531-.445313-1.625-.667969-2.492187-.667969-.546875 0-1.097656.089844-1.621094.269532-1.367188.472656-2.460938 1.511718-2.996094 2.851562-3.230468 8.015625-3.742187 16.699219-1.488281 25.109375 2.75 10.28125 9.34375 18.871094 18.5625 24.191406 6.050781 3.5 12.925781 5.34375 19.882813 5.34375 1.8125 0 3.613281-.140625 5.394531-.390625zm0 0" fill="#ffd00d"/><path d="m159.769531 169.183594 2.671875-.617188c.566406-.128906 1.148438-.199218 1.726563-.199218 3.535156 0 6.671875 2.480468 7.464843 5.898437.453126 1.976563.105469 4.015625-.988281 5.75-1.089843 1.734375-2.785156 2.945313-4.777343 3.402344-.535157.125-.871094.664062-.746094 1.199219.105468.464843.519531.777343.972656.777343.074219 0 .148438-.007812.226562-.027343.566407-.128907 1.148438-.195313 1.726563-.195313 3.535156 0 6.671875 2.480469 7.464844 5.898437.453125 1.972657.105469 4.015626-.984375 5.746094-1.09375 1.738282-2.789063 2.945313-4.777344 3.40625-.539062.121094-.871094.660156-.75 1.199219.109375.460937.519531.773437.976562.773437.074219 0 .148438-.007812.222657-.023437.570312-.132813 1.148437-.199219 1.726562-.199219 3.539063 0 6.675781 2.480469 7.464844 5.898438.457031 1.976562.105469 4.015625-.984375 5.75s-2.789062 2.945312-4.773438 3.402344c-.539062.125-.875.664062-.75 1.199218.105469.464844.515626.777344.972657.777344.074219 0 .148437-.007812.226562-.027344.566407-.128906 1.148438-.195312 1.726563-.195312 3.535156 0 6.671875 2.480468 7.460937 5.898437.945313 4.09375-1.636719 8.199219-5.761719 9.152344l-3.847656.886719 39.265625 185.285156h164.375l61.542969-290.398438c.570312-2.691406-.039062-6.871093-1.347656-9.285156l-62.898438-115.921875c-1.3125-2.417969-4.632812-4.394531-7.382812-4.394531h-144.203125c-2.75 0-6.074219 1.976562-7.382813 4.394531l-62.898437 115.917969c-1.3125 2.417969-1.917969 6.597656-1.347657 9.289062zm0 0" fill="#a5683f"/><path d="m171.484375 135.140625c-.933594-4.402344-.054687-10.464844 2.089844-14.417969l50.945312-93.886718c2.613281-4.820313 8.492188-8.320313 13.976563-8.320313h1.300781l7.664063-14.121094c1.3125-2.417969 4.632812-4.394531 7.382812-4.394531h-31.832031c-2.75 0-6.070313 1.976562-7.382813 4.394531l-62.898437 115.917969c-1.308594 2.417969-1.917969 6.597656-1.347657 9.289062l8.390626 39.582032 2.667968-.617188c.570313-.132812 1.148438-.199218 1.726563-.199218 3.535156 0 6.675781 2.480468 7.464843 5.898437.457032 1.972656.105469 4.015625-.984374 5.75-1.09375 1.734375-2.789063 2.945313-4.777344 3.402344-.539063.125-.875.660156-.75 1.199219.109375.460937.519531.777343.976562.777343.074219 0 .148438-.007812.222656-.027343.570313-.128907 1.148438-.195313 1.726563-.195313 3.539063 0 6.675781 2.476563 7.464844 5.894531.457031 1.976563.105469 4.015625-.984375 5.75-1.089844 1.738282-2.789063 2.945313-4.773438 3.402344-.539062.125-.875.664062-.75 1.203125.105469.460937.519532.773437.972656.773437.074219 0 .152344-.007812.226563-.023437.566406-.132813 1.148437-.199219 1.726563-.199219 3.535156 0 6.675781 2.480469 7.464843 5.898438.453125 1.972656.105469 4.015625-.984375 5.75-1.09375 1.734375-2.789062 2.941406-4.777344 3.402344-.539062.125-.875.660156-.75 1.199218.105469.460938.519532.773438.972657.773438.078125 0 .152343-.007813.226562-.023438.566407-.128906 1.148438-.199218 1.726563-.199218 3.535156 0 6.675781 2.480468 7.464844 5.898437.945312 4.097656-1.640626 8.203125-5.761719 9.152344l-3.851563.890625 39.265625 185.285156h20.28125c-1.195312-1.558594-2.070312-3.375-2.488281-5.34375zm0 0" fill="#82502e"/><path d="m230.71875 414.65625c.417969 1.96875 1.292969 3.785156 2.488281 5.34375h123.8125c1.195313-1.558594 2.070313-3.375 2.488281-5.347656l59.234376-279.511719c.933593-4.402344.054687-10.464844-2.09375-14.417969l-50.941407-93.886718c-2.613281-4.820313-8.492187-8.320313-13.976562-8.320313h-113.234375c-5.484375 0-11.363282 3.5-13.976563 8.320313l-50.945312 93.886718c-2.144531 3.953125-3.023438 10.015625-2.089844 14.417969zm-43.957031-286.78125 50.882812-93.78125c.203125-.214844.683594-.503906.972657-.578125h112.992187c.285156.074219.769531.359375.972656.578125l50.882813 93.78125c.457031.84375.804687 3.214844.605468 4.152344l-59.015624 278.460937h-99.882813l-59.015625-278.460937c-.199219-.9375.144531-3.308594.605469-4.152344zm0 0" fill="#fff"/><path d="m360.152344 133.4375c0-2.75-2.25-5-5-5h-36.070313c-2.75 0-5-2.25-5-5v-37.230469c0-2.75-2.25-5-5-5h-27.9375c-2.75 0-5 2.25-5 5v37.230469c0 2.75-2.25 5-5 5h-36.070312c-2.75 0-5 2.25-5 5v27.941406c0 2.75 2.25 5 5 5h36.070312c2.75 0 5 2.25 5 5v103.621094c0 2.75 2.25 5 5 5h27.9375c2.75 0 5-2.25 5-5v-103.621094c0-2.75 2.25-5 5-5h36.070313c2.75 0 5-2.25 5-5zm0 0" fill="#ffd00d"/><path d="m291.988281 269.792969c-2.75 0-5-2.25-5-5v-103.621094c0-2.75-2.25-5-5-5h-36.066406c-2.75 0-5-2.25-5-5v-22.734375h-5.847656c-2.75 0-5 2.25-5 5v27.941406c0 2.75 2.25 5 5 5h36.070312c2.75 0 5 2.25 5 5v103.621094c0 2.75 2.25 5 5 5h27.9375c2.75 0 5-2.25 5-5v-5.207031zm0 0" fill="#ffaf10"/><path d="m268.074219 320c-2.75 0-5 2.25-5 5v27.941406c0 2.75 2.25 5 5 5h54.078125c2.75 0 5-2.25 5-5v-27.941406c0-2.75-2.25-5-5-5zm0 0" fill="#ffd00d"/><path d="m284 352.941406v-27.941406c0-2.75 2.25-5 5-5h-20.925781c-2.75 0-5 2.25-5 5v27.941406c0 2.75 2.25 5 5 5h20.925781c-2.75 0-5-2.25-5-5zm0 0" fill="#ffaf10"/><path d="m184.242188 224.449219c-1.066407-4.621094-5.738282-7.523438-10.386719-6.449219 4.644531-1.074219 7.574219-5.730469 6.507812-10.351562-1.066406-4.621094-5.742187-7.523438-10.386719-6.453126 4.644532-1.070312 7.574219-5.730468 6.507813-10.351562s-5.742187-7.523438-10.386719-6.449219c4.644532-1.074219 7.578125-5.730469 6.507813-10.351562-1.066407-4.621094-5.742188-7.523438-10.386719-6.449219l-20.046875 4.628906c-4.648437 1.070313-7.578125 5.730469-6.511719 10.351563 1.066406 4.621093 5.742188 7.523437 10.390625 6.449219-4.648437 1.074218-7.578125 5.730468-6.511719 10.351562 1.066407 4.621094 5.742188 7.523438 10.390626 6.449219-4.648438 1.074219-7.578126 5.734375-6.511719 10.355469 1.066406 4.617187 5.742187 7.519531 10.390625 6.449218-4.648438 1.070313-7.578125 5.730469-6.511719 10.351563 1.066406 4.621093 5.742187 7.523437 10.390625 6.453125l20.046875-4.628906c4.644531-1.074219 7.574219-5.734376 6.507813-10.355469zm0 0" fill="#2bb381"/><path d="m149.925781 205.824219c-4.648437 1.074219-9.320312-1.828125-10.386719-6.449219-1.066406-4.621094 1.863282-9.277344 6.507813-10.351562l20.046875-4.628907c4.648438-1.074219 9.324219 1.832031 10.390625 6.449219 1.066406 4.621094-1.863281 9.28125-6.511719 10.351562zm0 0" fill="#37c47a"/><path d="m157.6875 239.429688c-4.648438 1.074218-9.324219-1.828126-10.390625-6.449219-1.066406-4.621094 1.863281-9.28125 6.511719-10.351563l20.046875-4.628906c4.644531-1.074219 9.320312 1.828125 10.386719 6.449219 1.066406 4.621093-1.859376 9.28125-6.507813 10.351562zm0 0" fill="#37c47a"/><path d="m245 512c77.882812 0 147.273438-36.347656 192.148438-93h-384.296876c44.875 56.652344 114.265626 93 192.148438 93zm0 0" fill="#bf7e52"/><path d="m130 446.5h-14.367188c-4.144531 0-7.5-3.359375-7.5-7.5s3.355469-7.5 7.5-7.5h14.367188c4.140625 0 7.5 3.359375 7.5 7.5s-3.359375 7.5-7.5 7.5zm0 0" fill="#ffc987"/><path d="m188 466.5h-14.367188c-4.144531 0-7.5-3.359375-7.5-7.5s3.355469-7.5 7.5-7.5h14.367188c4.140625 0 7.5 3.359375 7.5 7.5s-3.359375 7.5-7.5 7.5zm0 0" fill="#8e5e3d"/><path d="m261 448.5h-14.367188c-4.144531 0-7.5-3.359375-7.5-7.5s3.355469-7.5 7.5-7.5h14.367188c4.140625 0 7.5 3.359375 7.5 7.5s-3.359375 7.5-7.5 7.5zm0 0" fill="#ffc987"/><path d="m314.367188 473.5h-14.367188c-4.140625 0-7.5-3.359375-7.5-7.5s3.359375-7.5 7.5-7.5h14.367188c4.144531 0 7.5 3.359375 7.5 7.5s-3.355469 7.5-7.5 7.5zm0 0" fill="#8e5e3d"/><path d="m371 450.5h-14.367188c-4.144531 0-7.5-3.359375-7.5-7.5s3.355469-7.5 7.5-7.5h14.367188c4.140625 0 7.5 3.359375 7.5 7.5s-3.359375 7.5-7.5 7.5zm0 0" fill="#ffc987"/></svg>