<svg height="512pt" viewBox="0 -11 512 512" width="512pt" xmlns="http://www.w3.org/2000/svg"><path d="m501 245c0 135.308594-109.691406 245-245 245s-245-109.691406-245-245 109.691406-245 245-245 245 109.691406 245 245zm0 0" fill="#794091"/><path d="m171.929688 92.714844h127.121093c.863281 0 1.726563.015625 2.585938.03125-9.742188-18.953125-29.308594-33.007813-52.855469-36.90625v-23.839844c0-2.75-2.25-5-5-5h-16.582031c-2.75 0-5 2.25-5 5v23.839844c-23.546875 3.898437-43.113281 17.953125-52.855469 36.90625.859375-.015625 1.722656-.03125 2.585938-.03125zm0 0" fill="#159e97"/><path d="m171.929688 92.714844h14.679687c10.753906-13.441406 27.054687-23.074219 45.90625-26.195313v-23.839843c0-2.75 2.25-5 5-5h11.265625v-5.679688c0-2.75-2.25-5-5-5h-16.578125c-2.75 0-5 2.25-5 5v23.839844c-23.546875 3.898437-43.117187 17.953125-52.859375 36.90625.859375-.015625 1.722656-.03125 2.585938-.03125zm0 0" fill="#0f9390"/><path d="m41.25 363c41.6875 75.699219 122.222656 127 214.75 127s173.0625-51.300781 214.746094-127zm0 0" fill="#bf7e52"/><path d="m117.453125 364h184.804687c-18.433593-11.648438-30.703124-32.195312-30.703124-55.566406v-13.101563c0-17.367187 6.714843-33.742187 18.902343-46.105469 12.175781-12.351562 28.425781-19.304687 45.753907-19.578124.363281-.007813.695312-.210938.867187-.527344 5.035156-9.386719 14.855469-16.117188 26.261719-18.003906.484375-.082032.839844-.5.839844-.988282v-9.863281c0-2.207031 1.792968-4 4-4h3.699218c2.207032 0 4 1.792969 4 4v9.863281c0 .488282.351563.90625.835938.988282 11.410156 1.886718 21.226562 8.617187 26.265625 18.003906.171875.320312.5.519531.863281.527344 8.601562.132812 16.933594 1.917968 24.636719 5.1875v-13.691407c0-71.480469-57.945313-129.429687-129.429688-129.429687h-127.121093c-71.480469 0-129.429688 57.949218-129.429688 129.429687v25.425781c0 52.019532 30.691406 96.863282 74.953125 117.429688zm0 0" fill="#ef8318"/><path d="m117.453125 364h20.519531c-44.257812-20.566406-74.953125-65.410156-74.953125-117.429688v-25.425781c0-71.480469 57.949219-129.429687 129.429688-129.429687h-20.519531c-71.480469 0-129.429688 57.945312-129.429688 129.429687v25.425781c0 52.019532 30.691406 96.863282 74.953125 117.429688zm0 0" fill="#db722c"/><path d="m159.863281 364h142.40625c-18.433593-11.648438-30.714843-32.191406-30.714843-55.566406v-13.101563c0-17.367187 6.714843-33.742187 18.902343-46.105469 12.175781-12.351562 28.425781-19.304687 45.753907-19.578124.363281-.007813.695312-.210938.867187-.527344 4.375-8.152344 12.359375-14.300782 21.859375-17.011719-2.972656-67.265625-38.871094-120.394531-82.722656-120.394531h-81.445313c-45.800781 0-82.929687 57.949218-82.929687 129.433594v25.421874c0 52.019532 19.664062 96.863282 48.023437 117.429688zm0 0" fill="#ff9518"/><path d="m337.269531 229.617188h65.519531c.53125 0 1.058594.027343 1.585938.042968-4.929688-10.027344-15.152344-17.488281-27.496094-19.53125v-9.867187c0-2.75-2.25-5-5-5h-3.699218c-2.75 0-5 2.25-5 5v9.867187c-12.347657 2.042969-22.570313 9.503906-27.5 19.53125.53125-.015625 1.054687-.042968 1.589843-.042968zm0 0" fill="#159e97"/><path d="m337.269531 229.617188h7.546875c5.375-8.457032 14.722656-14.621094 25.765625-16.449219v-9.863281c0-2.75 2.25-5 5-5h.890625c-.765625-1.785157-2.539062-3.042969-4.59375-3.042969h-3.703125c-2.75 0-5 2.25-5 5v9.867187c-12.34375 2.042969-22.566406 9.503906-27.496093 19.527344.53125-.011719 1.054687-.039062 1.589843-.039062zm0 0" fill="#0f9390"/><path d="m268.710938 364c3.820312-6.316406 7.285156-14.914062 10.253906-25.3125-4.722656-9.0625-7.410156-19.34375-7.410156-30.253906v-13.101563c0-17.042969 6.480468-33.117187 18.238281-45.398437.007812-1.117188.011719-2.238282.011719-3.363282v-25.425781c0-71.480469-16.308594-129.429687-36.425782-129.429687h-35.777344c-20.117187 0-36.425781 57.949218-36.425781 129.429687v25.425781c0 52.019532 8.636719 96.863282 21.09375 117.429688zm0 0" fill="#ef8318"/><path d="m271.554688 308.433594v-13.101563c0-10.773437 2.589843-21.164062 7.460937-30.453125h-14.554687c-2.757813 0-5-2.242187-5-5v-12.546875c0-1.65625-1.34375-3-3-3h-41.941407c-1.65625 0-3 1.34375-3 3v12.546875c0 2.757813-2.242187 5-5 5h-29.371093c-2.757813 0-5-2.242187-5-5v-12.546875c0-1.65625-1.34375-3-3-3h-34.519532c-1.441406 0-2.839844.601563-3.835937 1.648438-.992188 1.046875-1.519531 2.472656-1.445313 3.914062 1.21875 23.480469 9.832032 45.320313 24.90625 63.15625 15.039063 17.796875 35.058594 29.894531 57.898438 34.992188.214844.046875.433594.070312.652344.070312.675781 0 1.339843-.226562 1.875-.65625.710937-.570312 1.125-1.429687 1.125-2.34375v-15.867187c0-2.757813 2.242187-5 5-5h29.371093c2.757813 0 5 2.242187 5 5v15.867187c0 .914063.414063 1.773438 1.125 2.34375.535157.429688 1.199219.65625 1.875.65625.21875 0 .4375-.023437.652344-.070312 7.433594-1.660157 14.5625-4.070313 21.324219-7.171875-5.457032-9.578125-8.597656-20.644532-8.597656-32.4375zm0 0" fill="#ffd00d"/><path d="m173.261719 304.585938c-14.449219-17.097657-22.941407-37.878907-24.695313-60.253907h-13.9375c-1.445312 0-2.84375.601563-3.835937 1.648438-.992188 1.046875-1.519531 2.472656-1.445313 3.914062 1.21875 23.480469 9.828125 45.320313 24.902344 63.15625 15.042969 17.796875 35.0625 29.894531 57.898438 34.992188.21875.046875.4375.070312.65625.070312.675781 0 1.335937-.226562 1.875-.65625.710937-.570312 1.125-1.429687 1.125-2.34375v-10.195312c-16.464844-6.355469-30.980469-16.652344-42.542969-30.332031zm0 0" fill="#ffaf10"/><g fill="#ffd00d"><path d="m211.855469 230.804688c-1.886719 0-3.632813-1.007813-4.578125-2.644532-.945313-1.636718-.945313-3.652344 0-5.289062l23.632812-40.9375c.945313-1.632813 2.691406-2.644532 4.578125-2.644532 1.890625 0 3.636719 1.011719 4.582031 2.644532l23.632813 40.9375c.945313 1.636718.945313 3.652344 0 5.289062-.941406 1.636719-2.6875 2.644532-4.578125 2.644532zm0 0"/><path d="m282.277344 191.671875c-2.105469 0-4.007813-1.246094-4.847656-3.175781-.839844-1.929688-.457032-4.175782.976562-5.714844l32.859375-35.292969c1.003906-1.074219 2.402344-1.683593 3.871094-1.683593s2.871093.609374 3.871093 1.683593l32.859376 35.292969c1.433593 1.539062 1.816406 3.785156.976562 5.714844-.839844 1.929687-2.742188 3.175781-4.847656 3.175781zm0 0"/><path d="m122.984375 191.671875c-2.105469 0-4.011719-1.246094-4.851563-3.175781-.839843-1.929688-.453124-4.175782.980469-5.714844l32.859375-35.292969c1-1.074219 2.398438-1.683593 3.871094-1.683593 1.464844 0 2.867188.609374 3.867188 1.683593l32.859374 35.292969c1.4375 1.539062 1.820313 3.785156.980469 5.714844-.839843 1.929687-2.742187 3.175781-4.847656 3.175781zm0 0"/></g><path d="m221.992188 228.160156c-.945313-1.636718-.945313-3.652344 0-5.289062l20.855468-36.125-2.777344-4.8125c-.945312-1.632813-2.691406-2.644532-4.582031-2.644532-1.886719 0-3.632812 1.011719-4.578125 2.644532l-23.632812 40.9375c-.945313 1.636718-.945313 3.652344 0 5.289062.945312 1.636719 2.691406 2.644532 4.578125 2.644532h14.714843c-1.886718 0-3.636718-1.007813-4.578124-2.644532zm0 0" fill="#ffaf10"/><path d="m292.144531 188.496094c-.839843-1.929688-.457031-4.175782.976563-5.714844l29.375-31.546875-3.488282-3.746094c-1-1.074219-2.402343-1.683593-3.867187-1.683593-1.46875 0-2.871094.609374-3.871094 1.683593l-32.859375 35.292969c-1.4375 1.539062-1.820312 3.785156-.980468 5.714844.839843 1.929687 2.746093 3.175781 4.847656 3.175781h14.714844c-2.105469 0-4.011719-1.246094-4.847657-3.175781zm0 0" fill="#ffaf10"/><path d="m132.847656 188.496094c-.839844-1.929688-.453125-4.175782.980469-5.714844l29.375-31.546875-3.488281-3.746094c-1-1.074219-2.402344-1.683593-3.871094-1.683593s-2.867188.609374-3.867188 1.683593l-32.863281 35.292969c-1.433593 1.539062-1.816406 3.785156-.976562 5.714844.839843 1.929687 2.746093 3.175781 4.847656 3.175781h14.714844c-2.105469 0-4.011719-1.246094-4.851563-3.175781zm0 0" fill="#ffaf10"/><path d="m300.351562 364h139.351563c17.957031-11.953125 29.796875-32.375 29.796875-55.566406v-13.101563c0-36.84375-29.867188-66.714843-66.710938-66.714843h-65.519531c-36.847656 0-66.714843 29.871093-66.714843 66.714843v13.101563c0 23.191406 11.839843 43.613281 29.796874 55.566406zm0 0" fill="#db722c"/><path d="m414.671875 364c11.503906-11.953125 19.089844-32.375 19.089844-55.566406v-13.101563c0-36.84375-19.136719-66.714843-42.742188-66.714843h-41.980469c-23.609374 0-42.746093 29.871093-42.746093 66.714843v13.101563c0 23.191406 7.585937 43.613281 19.09375 55.566406zm0 0" fill="#ef8318"/><path d="m389.636719 364c5.054687-11.953125 8.386719-32.375 8.386719-55.566406v-13.101563c0-36.84375-8.40625-66.714843-18.777344-66.714843h-18.4375c-10.371094 0-18.777344 29.871093-18.777344 66.714843v13.101563c0 23.191406 3.332031 43.613281 8.386719 55.566406zm0 0" fill="#db722c"/><path d="m355.824219 299.746094c-1.136719 0-2.183594-.605469-2.753907-1.585938-.566406-.984375-.566406-2.195312 0-3.179687l14.203126-24.601563c.570312-.984375 1.621093-1.589844 2.753906-1.589844 1.136718 0 2.1875.605469 2.753906 1.589844l14.203125 24.601563c.566406.984375.566406 2.195312 0 3.179687-.566406.980469-1.617187 1.585938-2.753906 1.585938zm0 0" fill="#ffd00d"/><path d="m398.144531 286.179688c-1.261719 0-2.40625-.75-2.914062-1.910157-.503907-1.160156-.273438-2.507812.589843-3.433593l19.746094-21.210938c.605469-.644531 1.445313-1.011719 2.328125-1.011719.882813 0 1.722657.367188 2.324219 1.011719l19.75 21.210938c.863281.925781 1.09375 2.273437.585938 3.433593-.503907 1.160157-1.648438 1.910157-2.910157 1.910157zm0 0" fill="#ffd00d"/><path d="m302.410156 286.179688c-1.261718 0-2.40625-.75-2.914062-1.910157-.503906-1.160156-.269532-2.507812.589844-3.433593l19.75-21.210938c.601562-.644531 1.441406-1.011719 2.324218-1.011719.882813 0 1.726563.367188 2.324219 1.011719l19.75 21.210938c.863281.925781 1.09375 2.273437.585937 3.433593-.503906 1.160157-1.648437 1.910157-2.910156 1.910157zm0 0" fill="#ffd00d"/><path d="m363.25 298.15625c-.566406-.980469-.566406-2.191406 0-3.175781l11.867188-20.554688-2.335938-4.046875c-.566406-.984375-1.617188-1.589844-2.753906-1.589844-1.132813 0-2.183594.605469-2.753906 1.589844l-14.203126 24.601563c-.566406.984375-.566406 2.195312 0 3.179687.570313.980469 1.617188 1.585938 2.753907 1.585938h10.179687c-1.136718 0-2.1875-.605469-2.753906-1.589844zm0 0" fill="#ffaf10"/><path d="m405.410156 284.269531c-.503906-1.160156-.273437-2.507812.589844-3.433593l16.984375-18.242188-2.765625-2.96875c-.601562-.644531-1.441406-1.011719-2.324219-1.011719-.882812 0-1.722656.367188-2.328125 1.011719l-19.746094 21.210938c-.863281.925781-1.09375 2.273437-.589843 3.433593.503906 1.160157 1.652343 1.910157 2.914062 1.910157h10.179688c-1.265625 0-2.410157-.75-2.914063-1.910157zm0 0" fill="#ffaf10"/><path d="m309.679688 284.269531c-.507813-1.160156-.273438-2.507812.585937-3.433593l16.984375-18.242188-2.765625-2.96875c-.597656-.644531-1.441406-1.011719-2.324219-1.011719-.882812 0-1.722656.367188-2.324218 1.011719l-19.75 21.210938c-.863282.925781-1.09375 2.273437-.589844 3.433593.507812 1.160157 1.652344 1.910157 2.914062 1.910157h10.179688c-1.261719 0-2.40625-.75-2.910156-1.910157zm0 0" fill="#ffaf10"/><path d="m414.519531 315.621094c-1.078125-1.25-2.84375-1.25-3.921875 0l-4.582031 5.308594c-1.082031 1.246093-2.84375 1.246093-3.925781 0l-4.582032-5.308594c-1.078124-1.25-2.84375-1.25-3.921874 0l-4.582032 5.308594c-1.082031 1.246093-2.847656 1.246093-3.925781 0l-4.582031-5.308594c-1.078125-1.25-2.84375-1.25-3.921875 0l-4.585938 5.308594c-1.078125 1.246093-2.84375 1.246093-3.921875 0l-4.582031-5.308594c-1.078125-1.25-2.84375-1.25-3.921875 0l-4.585938 5.308594c-1.078124 1.246093-2.84375 1.246093-3.921874 0l-4.582032-5.308594c-1.082031-1.25-2.84375-1.25-3.925781 0l-4.582031 5.308594c-1.078125 1.246093-2.84375 1.246093-3.921875 0l-4.582031-5.308594c-1.078126-1.25-2.84375-1.25-3.921876 0l-3.914062 4.53125c-1.078125 1.246094-1.199219 3.382812-.265625 4.742187l17.785156 25.960938c.933594 1.363281 2.570313 1.445312 3.632813.183593l7.097656-8.40625c1.066406-1.261718 2.808594-1.261718 3.871094-.003906l5.238281 6.207032c1.066406 1.261718 2.808594 1.261718 3.871094 0l5.238281-6.203126c1.066406-1.261718 2.808594-1.261718 3.871094 0l5.238281 6.203126c1.066406 1.261718 2.808594 1.261718 3.871094 0l5.238281-6.203126c1.066406-1.261718 2.808594-1.261718 3.871094 0l7.097656 8.40625c1.066406 1.261719 2.699219 1.179688 3.632812-.183593l17.785157-25.960938c.933593-1.359375.816406-3.496093-.265625-4.742187zm0 0" fill="#ffd00d"/><path d="m331.628906 324.894531c-.933594-1.359375-.8125-3.496093.265625-4.742187l.738281-.855469-3.175781-3.675781c-1.078125-1.25-2.84375-1.25-3.921875 0l-3.914062 4.53125c-1.078125 1.246094-1.195313 3.382812-.265625 4.742187l17.789062 25.960938c.929688 1.363281 2.566407 1.445312 3.628907.183593l3.734374-4.425781zm0 0" fill="#ffaf10"/><path d="m512 400c0 2.75-2.25 5-5 5h-502c-2.75 0-5-2.25-5-5v-32c0-2.75 2.25-5 5-5h502c2.75 0 5 2.25 5 5zm0 0" fill="#8e5e3d"/><path d="m30 400v-32c0-2.75 2.25-5 5-5h-30c-2.75 0-5 2.25-5 5v32c0 2.75 2.25 5 5 5h30c-2.75 0-5-2.25-5-5zm0 0" fill="#82502e"/></svg>