<svg height="511pt" viewBox="-10 0 511 511.99978" width="511pt" xmlns="http://www.w3.org/2000/svg"><path d="m490.5 267c0 135.308594-109.691406 245-245 245s-245-109.691406-245-245 109.691406-245 245-245 245 109.691406 245 245zm0 0" fill="#db722c"/><path d="m344.386719 80.746094c24.789062-33.230469.492187-78.597656.492187-78.597656-1.296875-2.425782-3.996094-2.863282-5.996094-.976563l-42.734374 40.34375c-16.832032-1.898437-33.78125-2.867187-50.660157-2.867187-16.875 0-33.824219.96875-50.652343 2.871093l-42.742188-40.347656c-2-1.886719-4.695312-1.449219-5.996094.976563 0 0-24.398437 45.566406.664063 78.816406-12.84375 28.582031-25.425781 57.363281-37.558594 85.921875-1.683594 3.957031.125 8.53125 4.058594 10.273437 28.898437 12.789063 82.511719 43.894532 82.511719 43.894532 2.378906 1.378906 3.5625 4.625 2.636718 7.214843 0 0-18.695312 52.171875-23.929687 99.238281-15.753907-11.898437-31.535157-16.339843-44.003907-10.617187-26.371093 12.09375-27.960937 65.019531-3.558593 118.214844 7.160156 15.613281 15.765625 29.507812 25.019531 41.050781-7.582031.367188-14.488281 3.347656-19.839844 8.058594h.003906c33.910157 17.738281 72.476563 27.785156 113.398438 27.785156 38.242188 0 74.433594-8.765625 106.683594-24.390625.019531-.011719.039062-.023437.058594-.03125-4.511719-5.296875-10.683594-9.136719-17.707032-10.691406 9.476563-11.683594 18.296875-25.835938 25.613282-41.78125 24.398437-53.195313 22.808593-106.121094-3.558594-118.214844-11.519532-5.285156-25.859375-1.902344-40.394532 8.015625-5.601562-46.289062-23.550781-96.484375-23.550781-96.484375-.925781-2.589844.261719-5.839844 2.640625-7.222656 0 0 53.578125-31.195313 82.464844-44.039063 3.917969-1.742187 5.722656-6.300781 4.054688-10.253906-12.085938-28.621094-24.625-57.488281-37.417969-86.160156zm0 0" fill="#1a2b63"/><path d="m225.964844 127.320312-17.007813-9.820312c-1.164062 10.03125-5.503906 17.5-10.699219 17.5-6.085937 0-11.023437-10.222656-11.023437-22.828125 0-2.414063.199219-4.722656.535156-6.902344l-10.699219-6.175781c-2.109374-1.21875-4.808593-.496094-6.023437 1.613281-8.996094 15.585938-3.640625 35.585938 11.945313 44.585938 15.585937 9 35.589843 3.640625 44.585937-11.945313 1.21875-2.113281.496094-4.808594-1.613281-6.027344zm0 0" fill="#ffd00d"/><path d="m147.621094.519531c.84375-.296875 1.621094.410157 2.03125 2.078125l5.402344 22 29.480468 27.828125c2.800782 2.644531 6.488282 4.09375 10.296875 4.09375.558594 0 1.121094-.03125 1.683594-.097656 16.3125-1.839844 32.789063-2.773437 48.972656-2.773437 16.203125 0 32.679688.933593 48.972657 2.773437.566406.0625 1.125.09375 1.6875.09375 3.804687 0 7.496093-1.449219 10.296874-4.089844l29.480469-27.835937 5.402344-21.992188c.410156-1.664062 1.1875-2.371094 2.023437-2.078125-1.359374-.824219-3.078124-.660156-4.46875.652344l-42.738281 40.34375c-16.828125-1.898437-33.777343-2.867187-50.65625-2.867187-16.875 0-33.824219.96875-50.65625 2.871093l-42.738281-40.347656c-1.617188-1.527344-3.679688-1.507813-5.101562-.167969.199218-.183594.410156-.351562.628906-.484375zm0 0" fill="#11204c"/><path d="m191.691406 249c-5.90625 19.519531-14.035156 49.949219-17.210937 78.507812-15.753907-11.898437-31.535157-16.34375-44.003907-10.621093-26.371093 12.097656-27.960937 65.023437-3.558593 118.21875 2.707031 5.902343 5.621093 11.554687 8.699219 16.933593-22.957032-52.148437-20.929688-103.289062 4.933593-115.148437 12.46875-5.726563 28.25-1.28125 44.003907 10.617187 4.875-43.828124 21.417968-92.074218 23.671874-98.507812zm0 0" fill="#11204c"/><path d="m146.710938 80.902344c5.679687-12.496094 14.324218-31.332032 14.433593-31.519532l-11.492187-46.785156c-.410156-1.667968-1.1875-2.375-2.03125-2.078125-.59375.359375-1.128906.890625-1.523438 1.628907 0 0-.5.957031-1.304687 2.679687-4.707031 10.21875-19.449219 47.628906 1.917969 76.074219zm0 0" fill="#aec1ed"/><path d="m193.320312 145.292969c-15.367187-8.875-20.777343-28.4375-12.304687-43.921875l-3.945313-2.277344c-2.109374-1.21875-4.808593-.496094-6.023437 1.613281-8.996094 15.585938-3.640625 35.585938 11.945313 44.585938 6.738281 3.890625 14.300781 5.09375 21.445312 3.949219-3.8125-.613282-7.578125-1.90625-11.117188-3.949219zm0 0" fill="#ffaf10"/><path d="m319.929688 100.707031c-1.21875-2.109375-3.914063-2.832031-6.023438-1.613281l-10.699219 6.175781c.335938 2.179688.535157 4.488281.535157 6.902344 0 12.605469-4.933594 22.828125-11.019532 22.828125-5.199218 0-9.542968-7.46875-10.699218-17.5l-17.007813 9.820312c-2.109375 1.21875-2.832031 3.914063-1.617187 6.027344 9 15.585938 29 20.941406 44.585937 11.945313 15.585937-9 20.945313-29 11.945313-44.585938zm0 0" fill="#ffd00d"/><path d="m273.089844 126.6875c-.710938-1.238281-.742188-2.667969-.234375-3.894531l-7.839844 4.527343c-2.109375 1.21875-2.832031 3.914063-1.617187 6.027344 9 15.585938 29 20.941406 44.585937 11.945313 2.503906-1.445313 4.742187-3.179688 6.703125-5.132813-15.070312 6.757813-33.164062 1.132813-41.597656-13.472656zm0 0" fill="#ffaf10"/><path d="m261.347656 147.628906c1.015625 0 1.933594.605469 2.339844 1.535156.40625.929688.21875 2.011719-.476562 2.753907l-15.855469 17.035156c-.484375.519531-1.160157.8125-1.867188.8125-.710937 0-1.382812-.292969-1.867187-.8125l-15.859375-17.035156c-.691407-.742188-.878907-1.824219-.46875-2.753907.402343-.929687 1.324219-1.535156 2.339843-1.535156zm0 0" fill="#2e4c89"/><path d="m266.179688 224.546875c1.6875 3.226563 2.652343 6.894531 2.652343 10.785156 0 4.984375-1.59375 9.742188-4.433593 13.667969h34.90625c-3.792969-12.566406-6.65625-20.578125-6.65625-20.578125-.441407-1.234375-.390626-2.613281.027343-3.875zm0 0" fill="#37c47a"/><path d="m222.167969 235.332031c0-3.890625.964843-7.558593 2.652343-10.785156h-26.394531c.375 1.21875.410157 2.535156-.015625 3.722656 0 0-2.894531 8.078125-6.722656 20.730469h34.914062c-2.839843-3.925781-4.433593-8.683594-4.433593-13.667969zm0 0" fill="#37c47a"/><path d="m213.617188 224.546875h-15.191407c.375 1.21875.410157 2.535156-.015625 3.722656 0 0-2.894531 8.078125-6.722656 20.730469h15.195312c3.828126-12.652344 6.71875-20.730469 6.71875-20.730469.425782-1.1875.390626-2.503906.015626-3.722656zm0 0" fill="#02af8e"/><path d="m344.386719 80.675781c21.488281-28.90625 5.976562-66.945312 1.566406-76.351562-.371094-.785157-.660156-1.371094-.84375-1.734375-.148437-.285156-.230469-.441406-.230469-.441406-.136718-.257813-.296875-.480469-.464844-.691407-.058593-.074219-.113281-.148437-.175781-.214843-.101562-.113282-.214843-.210938-.324219-.308594-.171874-.148438-.351562-.289063-.542968-.40625-.003906-.003906-.011719-.003906-.015625-.007813-.84375-.292969-1.617188.410157-2.027344 2.074219l-11.492187 46.789062c.105468.175782 8.785156 18.695313 14.550781 31.292969zm0 0" fill="#aec1ed"/><path d="m241.742188 266.898438c-4.328126 0-8.007813-3.234376-8.558594-7.527344l-.300782-2.316406c-.078124-.613282-.421874-1.167969-.9375-1.515626-6.746093-4.535156-10.777343-12.089843-10.777343-20.207031 0-13.417969 10.914062-24.332031 24.332031-24.332031 13.414062 0 24.332031 10.914062 24.332031 24.332031 0 8.117188-4.03125 15.667969-10.78125 20.207031-.515625.347657-.855469.898438-.9375 1.515626l-.296875 2.316406c-.554687 4.292968-4.234375 7.527344-8.558594 7.527344zm0 0" fill="#fff"/><path d="m243.515625 259.371094-.300781-2.316406c-.078125-.617188-.421875-1.167969-.9375-1.515626-6.746094-4.535156-10.777344-12.089843-10.777344-20.207031 0-11.644531 8.222656-21.398437 19.164062-23.773437-1.664062-.363282-3.390624-.558594-5.164062-.558594-13.417969 0-24.332031 10.914062-24.332031 24.332031 0 8.117188 4.03125 15.671875 10.777343 20.207031.515626.347657.859376.898438.9375 1.515626l.300782 2.316406c.550781 4.292968 4.230468 7.527344 8.558594 7.527344h7.515624c.476563 0 .949219-.046876 1.40625-.121094-3.691406-.613282-6.660156-3.585938-7.148437-7.40625zm0 0" fill="#d9eafc"/><path d="m243.164062 236.449219c0 4.304687-3.488281 7.792969-7.792968 7.792969-4.300782 0-7.789063-3.488282-7.789063-7.792969 0-4.300781 3.488281-7.789063 7.789063-7.789063 4.304687 0 7.792968 3.488282 7.792968 7.789063zm0 0" fill="#445ea0"/><path d="m263.417969 236.449219c0 4.304687-3.488281 7.792969-7.789063 7.792969-4.304687 0-7.792968-3.488282-7.792968-7.792969 0-4.300781 3.488281-7.789063 7.792968-7.789063 4.300782 0 7.789063 3.488282 7.789063 7.789063zm0 0" fill="#445ea0"/><path d="m288.953125 468.761719v-132.492188c0-5.5-4.5-10-10-10h-11.445313c-5.5 0-10 4.5-10 10v171.625c0 1.621094.945313 3.011719 2.3125 3.679688 23.105469-1.332031 45.351563-5.867188 66.304688-13.167969-4.191406-16.761719-19.214844-29.277344-37.171875-29.644531zm0 0" fill="#2e4c89"/><path d="m267.882812 346.699219c0-5.5 4.5-10 10-10h11.070313v-.429688c0-5.5-4.5-10-10-10h-11.445313c-5.5 0-10 4.5-10 10v171.625c0 1.621094.945313 3.011719 2.3125 3.675781 2.699219-.15625 5.386719-.359374 8.0625-.601562zm0 0" fill="#293d7c"/><path d="m224.402344 326.269531h-11.441406c-5.5 0-10 4.5-10 10v132.492188c-18.066407.371093-33.15625 13.03125-37.242188 29.941406 20.953125 7.210937 43.1875 11.667969 66.277344 12.921875 1.417968-.648438 2.40625-2.070312 2.40625-3.730469v-171.625c0-5.5-4.5-10-10-10zm0 0" fill="#2e4c89"/><path d="m213.054688 479.136719v-132.488281c0-5.5 4.5-10 10-10h11.351562v-.378907c0-5.5-4.5-10-10-10h-11.445312c-5.5 0-10 4.5-10 10v132.492188c-18.066407.371093-33.15625 13.03125-37.242188 29.941406 4.050781 1.394531 8.152344 2.683594 12.296875 3.867187 5.960937-13.550781 19.378906-23.113281 35.039063-23.433593zm0 0" fill="#293d7c"/></svg>