<svg height="512pt" viewBox="-11 0 512 512" width="512pt" xmlns="http://www.w3.org/2000/svg"><path d="m490 267c0 135.308594-109.691406 245-245 245s-245-109.691406-245-245 109.691406-245 245-245 245 109.691406 245 245zm0 0" fill="#2e4c89"/><path d="m73.230469 165.804688c1.710937 0 3.96875-.453126 6.707031-1.339844.296875-.097656.605469-.144532.910156-.144532.523438 0 1.042969.136719 1.5.410157.726563.429687 1.234375 1.152343 1.394532 1.984375.230468 1.222656.5 2.4375.800781 3.613281.015625.0625.03125.121094.042969.179687.1875 1.015626 2.085937 10.3125 9.542968 23.570313 5.324219 9.46875 14.515625 22.679687 29.71875 36.734375 18.375-22.757812 37.992188-36.65625 58.746094-41.570312 4.164062-6.777344 7.566406-14.574219 9.09375-23.320313.140625-.816406.621094-1.53125 1.316406-1.976563.476563-.304687 1.027344-.464843 1.585938-.464843.253906 0 .511718.035156.761718.101562 1.878907.503907 3.472657.757813 4.746094.757813 2.296875 0 3.554688-.777344 3.847656-2.375.34375-1.902344-.648437-6.394532-11.210937-15.070313-.558594-.464843-.929687-1.117187-1.039063-1.835937-1.96875-13.03125-8.078124-25.152344-17.203124-34.128906-10.183594-10.019532-23.367188-15.535157-37.117188-15.535157-12.914062 0-25.5 5.027344-35.441406 14.160157-9.972656 9.164062-16.597656 21.816406-18.652344 35.628906-.109375.746094-.5 1.417968-1.09375 1.882812-12.464844 9.773438-13.109375 14.699219-12.804688 16.359375.289063 1.601563 1.550782 2.378907 3.847657 2.378907zm0 0" fill="#fff"/><path d="m102.402344 181.84375c-4.078125-1.578125-6.972656-5.523438-6.972656-10.15625 0-2.339844.742187-4.503906 2-6.28125-2.457032-11.015625-2.898438-21.0625-1.429688-28.40625 4.054688-20.269531 19.96875-33.679688 29.871094-40.253906-8.742188 2.054687-16.988282 6.425781-23.9375 12.8125-9.972656 9.164062-16.597656 21.816406-18.652344 35.625-.109375.746094-.5 1.421875-1.09375 1.886718-12.464844 9.773438-13.109375 14.695313-12.804688 16.359376.289063 1.597656 1.546876 2.375 3.847657 2.375 1.710937 0 3.964843-.453126 6.707031-1.339844.296875-.097656.601562-.144532.910156-.144532.519532 0 1.039063.140626 1.5.410157.726563.429687 1.234375 1.152343 1.390625 1.984375.234375 1.222656.503907 2.4375.804688 3.613281.015625.0625.027343.121094.039062.183594.191407 1.015625 2.089844 10.308593 9.546875 23.570312 5.324219 9.464844 14.515625 22.675781 29.71875 36.734375 2.0625-2.558594 4.144532-5.007812 6.242188-7.339844-12.84375-11.667968-21.984375-26.769531-27.6875-41.632812zm0 0" fill="#eef6ff"/><path d="m146.328125 146.101562c4.230469 7.328126 11.707031 10.933594 16.695313 8.050782 4.988281-2.878906 5.605468-11.15625 1.375-18.484375-4.234376-7.328125-11.707032-10.933594-16.695313-8.050781-4.992187 2.878906-5.605469 11.15625-1.375 18.484374zm0 0" fill="#333031"/><path d="m108.945312 135.667969c-4.230468 7.328125-3.613281 15.601562 1.375 18.484375 4.988282 2.878906 12.464844-.726563 16.695313-8.054688s3.617187-15.601562-1.375-18.484375c-4.988281-2.878906-12.460937.726563-16.695313 8.054688zm0 0" fill="#333031"/><path d="m156.8125 146.097656c-3.941406-6.824218-3.675781-14.464844.40625-17.8125-3.289062-1.871094-6.78125-2.257812-9.519531-.675781-4.988281 2.882813-5.605469 11.160156-1.375 18.488281s11.707031 10.933594 16.695312 8.050782c.34375-.199219.664063-.425782.964844-.675782-2.699219-1.539062-5.265625-4.074218-7.171875-7.375zm0 0" fill="#231f20"/><path d="m119.121094 135.664062c1.949218-3.378906 4.59375-5.953124 7.359375-7.476562-.265625-.210938-.546875-.40625-.84375-.578125-4.988281-2.878906-12.464844.726563-16.695313 8.054687-4.230468 7.328126-3.617187 15.605469 1.375 18.484376 2.6875 1.550781 6.097656 1.207031 9.332032-.574219-4.199219-3.292969-4.507813-11.019531-.527344-17.910157zm0 0" fill="#231f20"/><path d="m143.992188 170.648438c0-5.941407-3.28125-10.757813-7.324219-10.757813-4.046875 0-7.324219 4.816406-7.324219 10.757813 0 5.941406 3.277344 10.757812 7.324219 10.757812 4.042969 0 7.324219-4.816406 7.324219-10.757812zm0 0" fill="#333031"/><path d="m136 170.648438c0-4.179688 1.625-7.792969 3.996094-9.574219-1-.753907-2.128906-1.183594-3.328125-1.183594-4.046875 0-7.324219 4.816406-7.324219 10.757813 0 5.941406 3.277344 10.757812 7.324219 10.757812 1.199219 0 2.328125-.433594 3.328125-1.183594-2.371094-1.78125-3.996094-5.394531-3.996094-9.574218zm0 0" fill="#231f20"/><path d="m179.671875 171.6875c0 6.015625-4.878906 10.898438-10.898437 10.898438-6.019532 0-10.898438-4.882813-10.898438-10.898438 0-6.019531 4.878906-10.898438 10.898438-10.898438 6.019531 0 10.898437 4.878907 10.898437 10.898438zm0 0" fill="#d3d1d3"/><path d="m117.226562 171.6875c0 6.019531-4.878906 10.898438-10.898437 10.898438s-10.898437-4.878907-10.898437-10.898438 4.878906-10.902344 10.898437-10.902344 10.898437 4.882813 10.898437 10.902344zm0 0" fill="#d3d1d3"/><path d="m320.652344 251.640625c1.085937 0 2.160156-.363281 3.027344-1.019531 41.109374-31.234375 63.597656-62.433594 75.226562-83.109375 12.660156-22.507813 15.878906-38.285157 16.203125-40.007813.019531-.105468.042969-.207031.066406-.308594.507813-1.996093.96875-4.0625 1.363281-6.136718.269532-1.410156 1.132813-2.636719 2.367188-3.367188.777344-.460937 1.660156-.695312 2.542969-.695312.519531 0 1.042969.078125 1.542969.242187 4.65625 1.511719 8.484374 2.277344 11.386718 2.277344 3.902344 0 6.039063-1.320313 6.53125-4.03125.515625-2.824219-.574218-11.179687-21.734375-27.769531-1.003906-.789063-1.671875-1.9375-1.859375-3.199219-3.484375-23.445313-14.726562-44.921875-31.660156-60.480469-16.871094-15.5-38.234375-24.035156-60.15625-24.035156-23.34375 0-45.71875 9.367188-63.007812 26.371094-15.488282 15.238281-25.859376 35.8125-29.199219 57.929687-.183594 1.222657-.816407 2.332031-1.769531 3.117188-17.921876 14.726562-19.613282 22.351562-19.023438 25.582031.492188 2.710938 2.628906 4.03125 6.53125 4.03125 2.15625 0 4.867188-.433594 8.054688-1.289062.425781-.113282.859374-.167969 1.292968-.167969.945313 0 1.878906.265625 2.691406.785156 1.183594.753906 1.992188 1.972656 2.234376 3.355469 7.871093 45.0625 44.964843 75.40625 58.929687 86.832031 16.378906 13.402344 21.902344 33.203125 23.519531 41.097656.347656 1.691407 1.523438 3.066407 3.140625 3.675781.5625.210938 1.15625.320313 1.757813.320313zm0 0" fill="#ffe2b8"/><g fill="#ea2a3d"><path d="m310.296875 86.0625c7.183594-12.441406 6.140625-26.488281-2.332031-31.378906-8.46875-4.890625-21.15625 1.230468-28.335938 13.671875-7.183594 12.4375-6.140625 26.484375 2.328125 31.375s21.15625-1.230469 28.339844-13.667969zm0 0"/><path d="m373.753906 68.351562c-7.183594-12.4375-19.871094-18.558593-28.339844-13.667968-8.46875 4.886718-9.515624 18.9375-2.332031 31.375 7.183594 12.441406 19.871094 18.5625 28.339844 13.671875s9.511719-18.9375 2.332031-31.378907zm0 0"/><path d="m339.132812 127.738281c0-10.085937-5.566406-18.261719-12.433593-18.261719-6.867188 0-12.433594 8.175782-12.433594 18.261719 0 10.085938 5.566406 18.261719 12.433594 18.261719 6.867187 0 12.433593-8.175781 12.433593-18.261719zm0 0"/></g><path d="m292.101562 99.730469c-8.46875-4.890625-9.511718-18.9375-2.328124-31.375 4.25-7.367188 10.429687-12.515625 16.523437-14.476563-8.394531-3.273437-19.9375 2.832032-26.660156 14.476563-7.183594 12.4375-6.140625 26.484375 2.332031 31.375 3.453125 1.996093 7.609375 2.15625 11.8125.804687-.574219-.222656-1.136719-.488281-1.679688-.804687zm0 0" fill="#b7092b"/><path d="m353.554688 86.0625c-7.179688-12.441406-6.136719-26.488281 2.332031-31.378906.496093-.285156 1.007812-.527344 1.527343-.742188-4.257812-1.414062-8.488281-1.28125-11.992187.742188-8.46875 4.890625-9.511719 18.941406-2.332031 31.378906 6.761718 11.710938 18.40625 17.820312 26.8125 14.414062-6.035156-2.007812-12.136719-7.121093-16.347656-14.414062zm0 0" fill="#b7092b"/><path d="m325 127.738281c0-7.257812 2.890625-13.507812 7.066406-16.453125-1.625-1.148437-3.441406-1.808594-5.367187-1.808594-6.867188 0-12.433594 8.175782-12.433594 18.261719 0 10.085938 5.566406 18.261719 12.433594 18.261719 1.925781 0 3.738281-.660156 5.367187-1.808594-4.175781-2.945312-7.066406-9.195312-7.066406-16.453125zm0 0" fill="#b7092b"/><path d="m301 129.5c0 10.21875-8.28125 18.5-18.5 18.5s-18.5-8.28125-18.5-18.5 8.28125-18.5 18.5-18.5 18.5 8.28125 18.5 18.5zm0 0" fill="#fff"/><path d="m386 129.5c0 10.21875-8.28125 18.5-18.5 18.5s-18.5-8.28125-18.5-18.5 8.28125-18.5 18.5-18.5 18.5 8.28125 18.5 18.5zm0 0" fill="#fff"/><path d="m300.269531 490.996094c-18.152343 0-27.605469-10.359375-34.507812-17.921875-6.1875-6.78125-9.214844-9.78125-16.054688-9.78125-6.839843 0-9.863281 3-16.050781 9.78125-6.902344 7.5625-16.351562 17.921875-34.503906 17.921875-18.148438 0-27.601563-10.355469-34.503906-17.921875-6.1875-6.78125-9.210938-9.78125-16.050782-9.78125s-9.863281 3-16.050781 9.78125c-6.902344 7.5625-16.351563 17.921875-34.503906 17.921875-18.148438 0-27.601563-10.359375-34.503907-17.921875-6.1875-6.78125-9.210937-9.777344-16.046874-9.777344-3.738282 0-7.277344-1.675781-9.648438-4.5625-2.375-2.890625-3.328125-6.6875-2.605469-10.355469.519531-2.617187 12.984375-64.894531 38.40625-128.269531 35.632813-88.839844 78.097657-133.882813 126.210938-133.882813 48.140625 0 90.378906 45.0625 125.539062 133.9375 25.074219 63.382813 37.199219 125.660157 37.703125 128.28125.703125 3.660157-.261718 7.441407-2.636718 10.316407-2.371094 2.871093-5.902344 4.535156-9.632813 4.535156-6.839844 0-9.863281 2.996094-16.050781 9.78125-6.90625 7.558594-16.355469 17.917969-34.507813 17.917969zm0 0" fill="#d9eafc"/><path d="m56.746094 459.238281c.539062-2.714843 13.460937-67.265625 39.808594-132.960937 34.351562-85.644532 74.832031-132.015625 120.449218-138.085938-5.628906-1.304687-11.347656-1.96875-17.152344-1.96875-48.113281 0-90.574218 45.046875-126.207031 133.886719-25.421875 63.375-37.886719 125.648437-38.40625 128.269531-.726562 3.667969.230469 7.464844 2.601563 10.351563 2.375 2.886719 5.914062 4.5625 9.652344 4.5625 4.339843 0 7.144531 1.214843 10.195312 3.828125-1.117188-2.441406-1.472656-5.191406-.941406-7.882813zm0 0" fill="#c3ddf4"/><path d="m145.460938 311.863281c-15.257813-8.808593-20.507813-28.386719-11.695313-43.644531 1.808594-3.132812 5.816406-4.207031 8.953125-2.398438l43.988281 25.398438c3.132813 1.808594 4.207031 5.816406 2.398438 8.953125-8.808594 15.257813-28.386719 20.503906-43.644531 11.691406zm0 0" fill="#2e4c89"/><path d="m165.96875 311.863281c-14.171875-8.183593-19.699219-25.65625-13.355469-40.328125l-9.894531-5.714844c-3.136719-1.808593-7.148438-.734374-8.957031 2.398438-8.808594 15.257812-3.5625 34.835938 11.695312 43.644531 8.265625 4.773438 17.796875 5.414063 26.199219 2.578125-1.9375-.660156-3.84375-1.511718-5.6875-2.578125zm0 0" fill="#293d7c"/><path d="m252.863281 311.863281c-15.261719 8.8125-34.839843 3.566407-43.648437-11.691406-1.808594-3.136719-.734375-7.144531 2.398437-8.953125l43.992188-25.398438c3.132812-1.808593 7.140625-.734374 8.949219 2.398438 8.8125 15.257812 3.5625 34.839844-11.691407 43.644531zm0 0" fill="#2e4c89"/><path d="m263.03125 301.726562c-15.257812 8.808594-34.839844 3.5625-43.644531-11.695312-.515625-.886719-.789063-1.847656-.855469-2.804688l-6.917969 3.992188c-3.132812 1.808594-4.207031 5.816406-2.398437 8.953125 8.808594 15.257813 28.386718 20.503906 43.648437 11.695313 4.671875-2.699219 8.402344-6.414063 11.082031-10.699219-.304687.1875-.601562.378906-.914062.558593zm0 0" fill="#293d7c"/><path d="m236.660156 353.492188c.003906 13.5-15.628906 11.960937-37.5 11.445312-21.871094.515625-37.503906 2.054688-37.5-11.445312-.167968-13.320313 16.773438-22.722657 37.5-22.027344 20.726563-.691406 37.667969 8.707031 37.5 22.027344zm0 0" fill="#2e4c89"/><path d="m179 353.492188c-.144531-11.402344 12.257812-19.925782 28.832031-21.710938-2.789062-.300781-5.6875-.414062-8.671875-.316406-20.726562-.695313-37.667968 8.707031-37.5 22.027344-.003906 12.511718 13.429688 12.105468 32.804688 11.570312-9.585938-.675781-15.464844-3.296875-15.464844-11.570312zm0 0" fill="#293d7c"/><path d="m295 337c0 10.21875-8.28125 18.5-18.5 18.5s-18.5-8.28125-18.5-18.5 8.28125-18.5 18.5-18.5 18.5 8.28125 18.5 18.5zm0 0" fill="#eef6ff"/><path d="m142 337c0 10.21875-8.28125 18.5-18.5 18.5s-18.5-8.28125-18.5-18.5 8.28125-18.5 18.5-18.5 18.5 8.28125 18.5 18.5zm0 0" fill="#eef6ff"/><path d="m331.667969.25c-2.050781-.148438-4.105469-.25-6.167969-.25-23.34375 0-45.71875 9.367188-63.007812 26.371094-15.488282 15.238281-25.859376 35.8125-29.199219 57.929687-.183594 1.222657-.816407 2.332031-1.769531 3.117188-17.921876 14.726562-19.613282 22.351562-19.023438 25.582031.492188 2.710938 2.628906 4.03125 6.53125 4.03125 2.15625 0 4.867188-.433594 8.054688-1.289062.425781-.113282.859374-.167969 1.292968-.167969.945313 0 1.878906.265625 2.691406.785156 1.183594.753906 1.992188 1.972656 2.234376 3.355469 7.871093 45.0625 44.964843 75.40625 58.929687 86.832031 16.378906 13.402344 21.902344 33.203125 23.519531 41.097656.347656 1.691407 1.523438 3.066407 3.140625 3.675781.566407.210938 1.15625.320313 1.757813.320313 1.085937 0 2.160156-.363281 3.027344-1.019531 4.105468-3.121094 8.019531-6.238282 11.765624-9.351563-1.003906-3.769531-2.144531-7.847656-3.445312-12.269531-15-51-89-64-85-135 3.203125-56.855469 61.546875-84.851562 84.667969-93.75zm0 0" fill="#ffdd8d"/></svg>