<svg height="512pt" viewBox="-5 0 511 512" width="512pt" xmlns="http://www.w3.org/2000/svg"><path d="m490.5 267c0 135.308594-109.691406 245-245 245s-245-109.691406-245-245 109.691406-245 245-245 245 109.691406 245 245zm0 0" fill="#37c47a"/><g fill="#231f20"><path d="m393.957031 260.351562v-111.894531c0-.3125-.007812-.621093-.011719-.933593l-19.433593-19.433594c-12.863281-12.863282-27.664063-23.101563-43.742188-30.457032 26.191407 23.449219 42.703125 57.5 42.703125 95.335938 0 39.609375-18.800781 77.625-50.285156 101.695312l-.25.191407-9.875 30.398437c-2.03125 6.25-6.386719 11.871094-12.113281 15.746094h12.359375zm0 0"/><path d="m341.273438 341h52.683593v-52.683594zm0 0"/><path d="m177.9375 325.253906-9.878906-30.398437-.246094-.191407c-31.488281-24.066406-50.285156-62.085937-50.285156-101.695312 0-62.449219 44.964844-114.582031 104.21875-125.75 25.34375-17.40625 55.347656-26.78125 86.820312-26.78125 15.671875 0 30.976563 2.328125 45.523438 6.808594-27.097656-29.066406-65.71875-47.246094-108.589844-47.246094-81.992188 0-148.457031 66.46875-148.457031 148.457031v192.542969h92.980469c-5.574219-3.777344-9.984376-9.285156-12.085938-15.746094zm0 0"/></g><path d="m118 341v-182.535156c0-81.992188 66.46875-148.457032 148.457031-148.457032 18.769531 0 36.722657 3.492188 53.253907 9.847657-21.832032-12.625-47.179688-19.855469-74.210938-19.855469-81.992188 0-148.457031 66.46875-148.457031 148.457031v192.542969zm0 0"/><path d="m300.976562 344.515625 4.410157 4.410156 8.921875-8.925781h-11.929688c-1.355468 1.027344-2.796875 1.945312-4.300781 2.75 1.082031.347656 2.074219.941406 2.898437 1.765625zm0 0" fill="#333031"/><path d="m407.5 340h-65.226562l-22.90625 22.90625 5.011718 5.011719c1.367188 1.367187 2.117188 3.195312 2.117188 5.144531s-.75 3.777344-2.117188 5.140625l-42.714844 42.714844c-1.363281 1.367187-3.191406 2.117187-5.140624 2.117187-1.949219 0-3.777344-.75-5.144532-2.117187l-5.011718-5.011719-6.15625 6.160156 5.007812 5.011719c2.835938 2.835937 2.835938 7.449219 0 10.285156l-1.898438 1.902344c-1.371093 1.367187-3.195312 2.121094-5.144531 2.121094s-3.777343-.753907-5.148437-2.121094l-1.414063 1.414063c1.371094 1.367187 2.125 3.195312 2.125 5.144531s-.753906 3.773437-2.125 5.144531l-1.898437 1.898438c-1.367188 1.371093-3.191406 2.121093-5.144532 2.121093-1.949218 0-3.773437-.75-5.144531-2.121093l-1.414062 1.414062c2.835937 2.835938 2.835937 7.453125 0 10.289062l-1.898438 1.902344c-1.367187 1.367188-3.195312 2.121094-5.144531 2.121094s-3.777344-.753906-5.144531-2.121094l-1.414063 1.414063c2.832032 2.835937 2.832032 7.449219 0 10.285156l-1.902344 1.902344c-1.367187 1.367187-3.195312 2.121093-5.144531 2.121093s-3.773437-.753906-5.144531-2.121093l-5.007812-5.011719-27.066407 27.066406c-7.105469-1.972656-14.1875-4.289062-21.070312-6.894531l34.152343-34.15625-4.410156-4.40625c-1.367187-1.367187-2.121094-3.195313-2.121094-5.144531 0-1.949219.753907-3.777344 2.121094-5.144532l42.710938-42.710937c1.367187-1.367187 3.195312-2.121094 5.144531-2.121094s3.777344.753907 5.144531 2.121094l4.410156 4.410156 6.160157-6.160156-4.410157-4.410156c-2.835937-2.835938-2.835937-7.453125 0-10.289063l1.902344-1.902344c1.367188-1.367187 3.191406-2.121093 5.144532-2.121093 1.949218 0 3.773437.753906 5.144531 2.121093l1.414062-1.414062c-1.367187-1.367188-2.121093-3.191406-2.121093-5.144531 0-1.949219.753906-3.773438 2.121093-5.140625l1.898438-1.902344c1.367187-1.367188 3.195312-2.121094 5.144531-2.121094s3.777344.753906 5.144531 2.121094l1.414063-1.414062c-2.835938-2.835938-2.835938-7.453126 0-10.289063l1.902344-1.898437c1.363281-1.371094 3.191406-2.121094 5.144531-2.121094 1.949219 0 3.773437.75 5.144531 2.121094l1.414062-1.414063c-1.367187-1.367187-2.121093-3.195313-2.121093-5.144531 0-1.949219.753906-3.777344 2.121093-5.144532l.5625-.5625c-1.761718.335938-3.554687.527344-5.367187.527344h-76.960937c-6.660157 0-13.136719-2.390625-18.398438-6.382812h-105.125c-8.25 0-15 6.75-15 15v81.394531c44.601562 46.589844 107.410156 75.609375 177 75.609375s132.398438-29.019531 177-75.609375v-81.390625c0-8.25-6.75-15-15-15zm0 0" fill="#333031"/><path d="m99 355c0-8.25 6.75-15 15-15h-30.5c-8.25 0-15 6.75-15 15v81.390625c9.390625 9.8125 19.601562 18.832031 30.5 26.976563zm0 0" fill="#231f20"/><path d="m266.367188 415.90625-6.15625 6.160156 5.007812 5.011719c2.835938 2.835937 2.835938 7.449219 0 10.285156l-1.898438 1.902344c-1.371093 1.367187-3.195312 2.121094-5.144531 2.121094s-3.777343-.753907-5.148437-2.121094l-1.414063 1.414063c1.371094 1.367187 2.125 3.195312 2.125 5.144531s-.753906 3.773437-2.125 5.144531l-1.898437 1.898438c-1.367188 1.371093-3.191406 2.121093-5.144532 2.121093-1.949218 0-3.773437-.75-5.144531-2.121093l-1.414062 1.414062c2.835937 2.835938 2.835937 7.453125 0 10.289062l-1.898438 1.902344c-1.367187 1.367188-3.195312 2.121094-5.144531 2.121094-1.023438 0-2.003906-.210938-2.910156-.605469l7.820312 43.804688c3.191406.121093 6.398438.203125 9.621094.203125s6.429688-.082032 9.621094-.203125l16.226562-90.90625zm0 0" fill="#2e4c89"/><path d="m244.570312 454.988281c-1.949218 0-3.777343-.75-5.144531-2.121093l-1.414062 1.414062c2.835937 2.835938 2.835937 7.453125 0 10.289062l-1.902344 1.902344c-1.367187 1.367188-3.191406 2.121094-5.144531 2.121094-1.019532 0-2-.210938-2.90625-.605469l7.820312 43.804688c3.191406.121093 6.394532.203125 9.621094.203125 3.222656 0 6.425781-.082032 9.621094-.203125l.789062-4.425781-9.394531-52.644532c-.625.171875-1.277344.265625-1.945313.265625zm0 0" fill="#293d7c"/><path d="m231.527344 403.675781c1.367187-1.367187 3.195312-2.121093 5.144531-2.121093s3.777344.75 5.144531 2.121093l4.410156 4.40625 6.160157-6.160156-4.410157-4.410156c-2.835937-2.835938-2.835937-7.449219 0-10.285157l1.898438-1.902343c1.367188-1.367188 3.195312-2.121094 5.144531-2.121094 1.953125 0 3.777344.753906 5.148438 2.121094l1.414062-1.414063c-1.371093-1.371094-2.125-3.195312-2.125-5.144531s.753907-3.777344 2.125-5.144531l1.898438-1.898438c1.367187-1.371094 3.195312-2.121094 5.144531-2.121094s3.773438.75 5.144531 2.121094l1.414063-1.414062c-2.835938-2.839844-2.835938-7.453125 0-10.289063l1.898437-1.902343c1.367188-1.367188 3.195313-2.121094 5.144531-2.121094.234376 0 .46875.011718.699219.035156l1.726563-9.675781c-.222656.003906-.445313.027343-.667969.027343h-76.964844c-.222656 0-.445312-.023437-.667969-.03125l12.496094 70.007813zm0 0" fill="#231f20"/><path d="m266.367188 415.90625-6.15625 6.160156 4.863281 4.867188c1.8125-.335938 3.609375-.707032 5.394531-1.128906l.878906-4.917969zm0 0" fill="#231f20"/><path d="m217.363281 482.195312c-1.949219 0-3.777343-.753906-5.144531-2.121093l-23.402344-23.402344c-1.367187-1.367187-2.121094-3.195313-2.121094-5.144531 0-1.949219.753907-3.773438 2.121094-5.140625l42.710938-42.710938c1.367187-1.367187 3.195312-2.121093 5.144531-2.121093s3.777344.753906 5.144531 2.121093l23.402344 23.402344c2.835938 2.835937 2.835938 7.449219 0 10.285156l-1.898438 1.902344c-1.371093 1.367187-3.195312 2.121094-5.144531 2.121094s-3.777343-.753907-5.148437-2.121094l-1.414063 1.414063c1.371094 1.367187 2.125 3.195312 2.125 5.144531s-.753906 3.777343-2.125 5.144531l-1.898437 1.898438c-1.367188 1.371093-3.191406 2.121093-5.144532 2.121093-1.949218 0-3.773437-.75-5.144531-2.121093l-1.414062 1.414062c2.835937 2.835938 2.835937 7.453125 0 10.289062l-1.898438 1.902344c-1.367187 1.367188-3.195312 2.121094-5.144531 2.121094s-3.777344-.753906-5.144531-2.121094l-1.414063 1.414063c2.832032 2.835937 2.832032 7.449219 0 10.285156l-1.902344 1.902344c-1.367187 1.367187-3.195312 2.121093-5.144531 2.121093zm0 0" fill="#d9eafc"/><path d="m276.523438 423.035156c-1.953126 0-3.777344-.75-5.144532-2.117187l-23.402344-23.402344c-2.835937-2.839844-2.835937-7.453125 0-10.289063l1.898438-1.902343c1.367188-1.367188 3.195312-2.121094 5.144531-2.121094s3.777344.753906 5.144531 2.121094l1.414063-1.414063c-1.367187-1.367187-2.121094-3.195312-2.121094-5.144531s.753907-3.777344 2.121094-5.144531l1.902344-1.898438c1.367187-1.367187 3.191406-2.121094 5.144531-2.121094 1.949219 0 3.773438.753907 5.140625 2.121094l1.414063-1.414062c-2.832032-2.835938-2.832032-7.453125 0-10.289063l1.902343-1.902343c1.367188-1.367188 3.195313-2.121094 5.144531-2.121094 1.949219 0 3.777344.753906 5.144532 2.121094l1.414062-1.414063c-1.367187-1.367187-2.121094-3.191406-2.121094-5.140625s.753907-3.777344 2.121094-5.144531l1.898438-1.902344c1.371094-1.367187 3.195312-2.121094 5.148437-2.121094 1.949219 0 3.773438.753907 5.144531 2.121094l23.402344 23.402344c1.367188 1.367187 2.121094 3.195312 2.121094 5.144531s-.753906 3.777344-2.121094 5.144531l-42.710937 42.710938c-1.367188 1.367187-3.195313 2.117187-5.144531 2.117187zm0 0" fill="#eef6ff"/><path d="m231.527344 403.675781c1.367187-1.367187 3.195312-2.121093 5.144531-2.121093.121094 0 .238281.011718.355469.015624l-9.847656-55.1875h-20.160157c-.226562 0-.445312-.023437-.671875-.03125l12.496094 70.007813zm0 0"/><path d="m333.808594 99.066406c-20.199219-9.804687-42.527344-14.988281-65.664063-14.988281-30.21875 0-59.375 8.976563-84.3125 25.960937-.285156.195313-.621093.300782-.964843.300782-.457032 0-.890626-.179688-1.210938-.503906-.582031-.582032-.667969-1.496094-.207031-2.175782 5.429687-7.96875 11.640625-15.46875 18.457031-22.289062 7.375-7.375 15.371094-13.898438 23.875-19.535156-60.8125 10.355468-107.253906 63.417968-107.253906 127.132812 0 40.332031 18.816406 78.132812 50.675781 102.492188l9.785156 30.101562c4.105469 12.644531 16.734375 21.820312 30.027344 21.820312h76.964844c1.425781 0 2.84375-.125 4.242187-.332031.175782-.21875.359375-.433593.5625-.636719l1.898438-1.898437c1.367187-1.367187 3.195312-2.121094 5.144531-2.121094 1.214844 0 2.382813.292969 3.421875.84375 6.832031-3.863281 12.316406-10.144531 14.761719-17.675781l9.78125-30.101562c31.863281-24.359376 50.679687-62.160157 50.679687-102.492188 0-36.976562-15.648437-70.363281-40.664062-93.902344zm0 0" fill="#333031"/><path d="m256.410156 84.539062c-26 2.015626-50.882812 10.726563-72.578125 25.5-.285156.195313-.617187.300782-.964843.300782-.457032 0-.886719-.179688-1.210938-.503906-.582031-.582032-.667969-1.496094-.207031-2.175782 1.308593-1.917968 2.660156-3.808594 4.058593-5.667968-29.511718 19.496093-48.980468 52.960937-48.980468 90.976562 0 37.457031 18.902344 70.496094 47.6875 90.109375l11.792968 36.304687c1.429688 4.398438 6.386719 7.996094 11.011719 7.996094h76.964844c4.625 0 9.578125-3.597656 11.007813-7.996094l11.796874-36.304687c28.78125-19.613281 47.683594-52.652344 47.683594-90.113281 0-56.496094-43-102.953125-98.0625-108.425782zm0 0" fill="#fff"/><path d="m157.054688 192.96875c0-54.65625 40.242187-99.902344 92.710937-107.753906-23.585937 2.890625-46.09375 11.3125-65.933594 24.824218-.285156.195313-.617187.300782-.964843.300782-.457032 0-.886719-.179688-1.210938-.503906-.582031-.582032-.667969-1.496094-.207031-2.175782 1.308593-1.917968 2.660156-3.808594 4.058593-5.667968-29.511718 19.496093-48.980468 52.960937-48.980468 90.976562 0 37.457031 18.902344 70.496094 47.6875 90.109375l11.792968 36.304687c1.429688 4.398438 6.386719 8 11.011719 8h3.089844v-27.777343l-5.367187-16.527344c-28.785157-19.609375-47.6875-52.652344-47.6875-90.109375zm0 0" fill="#eef6ff"/><path d="m336.277344 189.027344c0 21.191406-17.179688 38.371094-38.371094 38.371094-21.1875 0-38.367188-17.179688-38.367188-38.371094s17.179688-38.371094 38.367188-38.371094c21.191406 0 38.371094 17.179688 38.371094 38.371094zm0 0" fill="#293d7c"/><path d="m270 189.027344c0-19.414063 14.425781-35.449219 33.140625-38-1.710937-.234375-3.453125-.367188-5.230469-.367188-21.191406 0-38.371094 17.179688-38.371094 38.367188 0 21.191406 17.179688 38.371094 38.371094 38.371094 1.777344 0 3.519532-.132813 5.230469-.367188-18.714844-2.550781-33.140625-18.589844-33.140625-38.003906zm0 0" fill="#1a2b63"/><path d="m178.429688 208.148438c-17.609376-10.167969-23.660157-32.761719-13.496094-50.367188 1.378906-2.382812 4.425781-3.203125 6.804687-1.824219l55.238281 31.886719c2.382813 1.378906 3.199219 4.425781 1.824219 6.808594-10.167969 17.609375-32.761719 23.664062-50.371093 13.496094zm0 0" fill="#293d7c"/><path d="m188.964844 208.148438c-17.527344-10.117188-23.601563-32.546876-13.632813-50.117188l-3.59375-2.074219c-2.382812-1.378906-5.429687-.558593-6.804687 1.824219-10.164063 17.605469-4.113282 40.203125 13.496094 50.367188 7.429687 4.289062 15.75 5.679687 23.648437 4.542968-4.496094-.648437-8.945313-2.136718-13.113281-4.542968zm0 0" fill="#1a2b63"/><path d="m204.019531 189.027344c0 6.054687-4.90625 10.964844-10.960937 10.964844-6.054688 0-10.960938-4.910157-10.960938-10.964844 0-6.050782 4.90625-10.960938 10.960938-10.960938 6.054687 0 10.960937 4.910156 10.960937 10.960938zm0 0" fill="#ffd00d"/><path d="m308.871094 189.027344c0 6.054687-4.910156 10.964844-10.964844 10.964844s-10.960938-4.910157-10.960938-10.964844c0-6.054688 4.90625-10.960938 10.960938-10.960938s10.964844 4.90625 10.964844 10.960938zm0 0" fill="#ffd00d"/><path d="m257.453125 261.550781c-2.867187 0-5.425781-1.816406-6.375-4.519531-.828125-2.375-3.070313-3.964844-5.578125-3.964844s-4.75 1.589844-5.578125 3.964844c-.949219 2.703125-3.511719 4.519531-6.371094 4.519531h-4.996093c-.964844 0-1.878907-.113281-2.710938-.339843-3.570312-.964844-5.707031-4.660157-4.761719-8.238282.21875-.832031.578125-1.683594 1.0625-2.527344l16.945313-29.347656c.480468-.835937 1.039062-1.570312 1.648437-2.175781 1.273438-1.269531 2.964844-1.964844 4.761719-1.964844s3.488281.695313 4.761719 1.964844c.609375.605469 1.167969 1.339844 1.648437 2.179687l16.945313 29.347657c.484375.839843.84375 1.691406 1.0625 2.527343.945312 3.574219-1.191407 7.269532-4.765625 8.238282-.832032.226562-1.742188.339844-2.707032.339844h-4.992187zm0 0" fill="#293d7c"/><path d="m231.226562 252.972656c.21875-.832031.574219-1.683594 1.058594-2.527344l16.949219-29.347656c.394531-.6875.851563-1.285156 1.335937-1.820312-.101562-.117188-.199218-.25-.308593-.355469-1.273438-1.269531-2.964844-1.964844-4.761719-1.964844-1.792969 0-3.484375.695313-4.757812 1.964844-.613282.605469-1.171876 1.339844-1.652344 2.175781l-16.945313 29.347656c-.484375.84375-.84375 1.695313-1.0625 2.527344-.945312 3.578125 1.191407 7.273438 4.761719 8.238282.835938.226562 1.746094.339843 2.710938.339843h4.996093c.785157 0 1.539063-.144531 2.25-.398437-3.453125-1.042969-5.503906-4.667969-4.574219-8.179688zm0 0" fill="#1a2b63"/><path d="m218.179688 282.808594c-4.457032 0-8.070313 3.613281-8.070313 8.070312v36.503906h16.144531v-36.503906c0-4.457031-3.613281-8.070312-8.074218-8.070312zm0 0" fill="#d9eafc"/><path d="m245.5 282.808594c-4.457031 0-8.070312 3.613281-8.070312 8.070312v36.503906h16.140624v-36.503906c0-4.457031-3.613281-8.070312-8.070312-8.070312zm0 0" fill="#d9eafc"/><path d="m272.820312 282.808594c-4.460937 0-8.074218 3.613281-8.074218 8.070312v36.503906h16.144531v-36.503906c0-4.457031-3.613281-8.070312-8.070313-8.070312zm0 0" fill="#d9eafc"/><path d="m438.402344 193.394531c1.058594 1.058594 2.777344 1.058594 3.835937 0l7.675781-7.675781 9.339844 9.339844 24.304688-24.304688-9.339844-9.339844 8.3125-8.3125c1.0625-1.058593 1.0625-2.777343 0-3.835937l-64.597656-64.597656c-60.304688-60.304688-158.425782-60.304688-218.734375 0-6.859375 6.863281-13.109375 14.410156-18.574219 22.433593-.734375 1.078126-.597656 2.523438.324219 3.445313s2.367187 1.058594 3.445312.324219c59.105469-40.257813 138.765625-32.714844 189.410157 17.929687zm0 0" fill="#a9a7a9"/><path d="m184.394531 110.867188c.671875-.457032 1.351563-.902344 2.027344-1.347657 3.917969-5.015625 8.136719-9.800781 12.625-14.289062 60.304687-60.304688 158.429687-60.308594 218.734375 0l61.3125 61.308593 3.4375-3.4375c1.0625-1.0625 1.0625-2.777343 0-3.839843l-64.597656-64.597657c-60.304688-60.304687-158.429688-60.304687-218.734375 0-6.863281 6.863282-13.113281 14.410157-18.574219 22.433594-.734375 1.078125-.601562 2.523438.324219 3.445313.921875.921875 2.367187 1.058593 3.445312.324219zm0 0" fill="#b8b6b7"/><path d="m245.507812 407.398438 6.160157-6.160157 15.398437 15.398438-6.160156 6.160156zm0 0" fill="#8e5e3d"/><path d="m192.519531 460.375-35.246093 35.242188c7.550781 2.917968 15.277343 5.46875 23.164062 7.632812l27.476562-27.476562zm0 0" fill="#8e5e3d"/><path d="m500.042969 176.578125-8.328125-8.328125c-1.945313-1.945312-5.125-1.945312-7.070313 0l-179.964843 179.96875 15.394531 15.394531 179.96875-179.964843c1.941406-1.945313 1.941406-5.125 0-7.070313zm0 0" fill="#8e5e3d"/><path d="m192.519531 460.375-35.246093 35.242188c3.949218 1.527343 7.945312 2.945312 11.988281 4.265624l31.382812-31.382812zm0 0" fill="#82502e"/><path d="m253.644531 415.503906-8.125-8.121094 6.15625-6.160156 8.125 8.125zm0 0" fill="#82502e"/><path d="m491.714844 168.253906c-1.945313-1.945312-5.125-1.945312-7.070313 0l-179.964843 179.964844 8.125 8.125 180.109374-180.113281c1.617188-1.613281 4.074219-1.867188 5.980469-.800781zm0 0" fill="#82502e"/><path d="m265.925781 426.371094-23.402343-23.402344c-3.21875-3.21875-8.484376-3.21875-11.703126 0l-42.710937 42.710938c-3.21875 3.214843-3.21875 8.480468 0 11.699218l23.402344 23.402344c3.21875 3.21875 8.484375 3.21875 11.703125 0l1.902344-1.898438c3.214843-3.21875 3.214843-8.484374 0-11.703124 3.214843 3.21875 8.484374 3.21875 11.699218 0l1.902344-1.898438c3.21875-3.21875 3.21875-8.484375 0-11.703125 3.21875 3.21875 8.484375 3.21875 11.703125 0l1.898437-1.902344c3.21875-3.214843 3.21875-8.484375 0-11.699219 3.21875 3.214844 8.484376 3.214844 11.703126 0l1.902343-1.902343c3.21875-3.21875 3.21875-8.484375 0-11.703125zm0 0" fill="#d9eafc"/><path d="m203.769531 457.378906c-3.21875-3.21875-3.21875-8.484375 0-11.699218l40.734375-40.734376-1.980468-1.976562c-3.21875-3.21875-8.484376-3.21875-11.703126 0l-42.710937 42.710938c-3.21875 3.214843-3.21875 8.480468 0 11.699218l23.402344 23.402344c3.21875 3.21875 8.480469 3.21875 11.703125 0l1.898437-1.898438c.027344-.027343.046875-.058593.074219-.082031zm0 0" fill="#c3ddf4"/><path d="m247.269531 398.222656 23.402344 23.402344c3.21875 3.214844 8.484375 3.214844 11.699219 0l42.714844-42.714844c3.21875-3.214844 3.21875-8.480468 0-11.699218l-23.402344-23.402344c-3.21875-3.21875-8.484375-3.21875-11.707032 0l-1.898437 1.902344c-3.21875 3.214843-3.21875 8.480468 0 11.699218-3.21875-3.21875-8.484375-3.21875-11.703125 0l-1.898438 1.902344c-3.21875 3.214844-3.21875 8.484375 0 11.703125-3.21875-3.21875-8.484374-3.21875-11.703124 0l-1.898438 1.898437c-3.222656 3.21875-3.222656 8.484376 0 11.703126-3.222656-3.21875-8.484375-3.21875-11.703125 0l-1.902344 1.902343c-3.21875 3.21875-3.21875 8.480469 0 11.703125zm0 0" fill="#eef6ff"/><path d="m280.816406 411.585938-23.402344-23.402344c-1.644531-1.640625-2.441406-3.816406-2.40625-5.980469-2.117187.007813-4.234374.808594-5.839843 2.414063l-1.898438 1.902343c-3.21875 3.21875-3.21875 8.484375 0 11.703125l23.402344 23.402344c3.21875 3.214844 8.484375 3.214844 11.699219 0l9.34375-9.34375c-3.238282 2.496094-7.9375 2.269531-10.898438-.695312zm0 0" fill="#d9eafc"/></svg>