<svg height="512pt" viewBox="0 -5 512 512" width="512pt" xmlns="http://www.w3.org/2000/svg"><path d="m501 257c0 135.308594-109.691406 245-245 245s-245-109.691406-245-245 109.691406-245 245-245 245 109.691406 245 245zm0 0" fill="#794091"/><path d="m103.835938 449c41.796874 33.171875 94.65625 53 152.164062 53 57.503906 0 110.367188-19.828125 152.164062-53zm0 0" fill="#8e5e3d"/><path d="m341.320312 62.644531v-46.730469c0-8.753906-7.164062-15.914062-15.917968-15.914062h-220.566406c-8.753907 0-15.917969 7.160156-15.917969 15.914062v46.730469zm0 0" fill="#ea2a3d"/><path d="m120 62.644531v-46.730469c0-8.753906 7.160156-15.914062 15.914062-15.914062h-31.078124c-8.753907 0-15.917969 7.160156-15.917969 15.914062v46.730469zm0 0" fill="#b7092b"/><path d="m331.097656 62.644531c-.175781-11.371093-9.433594-20.535156-20.84375-20.535156s-20.664062 9.164063-20.84375 20.535156zm0 0" fill="#fe3745"/><path d="m88.917969 87.132812h252.402343v24.875h-252.402343zm0 0" fill="#c3ddf4"/><path d="m88.917969 87.132812h31.082031v24.875h-31.082031zm0 0" fill="#aec1ed"/><path d="m310.246094 415c-19.984375-15.683594-32.859375-40.035156-32.859375-67.355469 0-47.210937 38.40625-85.617187 85.617187-85.617187 1.628906 0 3.246094.058594 4.855469.148437v-128.363281c0-12.542969-10.265625-22.804688-22.808594-22.804688h-259.863281c-12.542969 0-22.804688 10.261719-22.804688 22.804688v276.1875c0 1.714844.195313 3.386719.558594 5zm0 0" fill="#eef6ff"/><path d="m104.558594 415c-.363282-1.613281-.558594-3.285156-.558594-5v-276.1875c0-12.542969 10.261719-22.804688 22.804688-22.804688h-41.617188c-12.542969 0-22.804688 10.261719-22.804688 22.804688v276.1875c0 1.714844.195313 3.386719.558594 5zm0 0" fill="#d9eafc"/><path d="m82.148438 415h228.082031c-19.976563-15.6875-32.84375-40.042969-32.84375-67.355469 0-43.050781 31.941406-78.765625 73.367187-84.726562v-77.046875h-271.269531v224.128906c0 1.980469 1.078125 3.886719 2.664063 5zm0 0" fill="#37c47a"/><path d="m367.859375 78.132812c0 5.5-4.5 10-10 10h-285.476563c-5.5 0-10-4.5-10-10v-6.488281c0-5.5 4.5-10 10-10h285.476563c5.5 0 10 4.5 10 10zm0 0" fill="#eef6ff"/><path d="m93.523438 78.132812v-6.488281c0-5.5 4.5-10 10-10h-31.140626c-5.5 0-10 4.5-10 10v6.488281c0 5.5 4.5 10 10 10h31.140626c-5.5 0-10-4.5-10-10zm0 0" fill="#d9eafc"/><path d="m285.996094 185.871094c-19.046875-16.347656-43.808594-26.226563-70.875-26.226563-27.070313 0-51.832032 9.878907-70.878906 26.226563zm0 0" fill="#fff"/><path d="m176.027344 185.871094c15.25-13.085938 34.15625-22.023438 54.980468-25.070313-5.1875-.757812-10.492187-1.15625-15.890624-1.15625-27.066407 0-51.828126 9.878907-70.878907 26.226563zm0 0" fill="#d9eafc"/><path d="m277.386719 347.644531c0-33.15625 18.957031-61.949219 46.59375-76.167969.023437-.972656.039062-1.949218.039062-2.933593 0-33.074219-14.746093-62.699219-38.023437-82.671875h-141.753906c-23.273438 19.972656-38.023438 49.597656-38.023438 82.671875 0 60.144531 48.757812 108.898437 108.902344 108.898437 23.410156 0 45.09375-7.386718 62.847656-19.957031-.371094-3.230469-.582031-6.511719-.582031-9.839844zm0 0" fill="#60d882"/><path d="m138 268.542969c0-33.074219 14.746094-62.699219 38.019531-82.671875h-31.777343c-23.273438 19.972656-38.023438 49.597656-38.023438 82.671875 0 60.144531 48.757812 108.898437 108.902344 108.898437 5.398437 0 10.699218-.398437 15.890625-1.15625-52.613281-7.691406-93.011719-52.996094-93.011719-107.742187zm0 0" fill="#2bb381"/><path d="m269.242188 268.542969c0 29.894531-24.230469 54.125-54.121094 54.125-29.894532 0-54.125-24.230469-54.125-54.125 0-29.890625 24.230468-54.121094 54.125-54.121094 29.890625 0 54.121094 24.230469 54.121094 54.121094zm0 0" fill="#293d7c"/><path d="m181.753906 268.542969c0-26.339844 18.820313-48.273438 43.746094-53.117188-3.359375-.652343-6.828125-1.003906-10.378906-1.003906-29.890625 0-54.125 24.230469-54.125 54.121094 0 29.894531 24.234375 54.125 54.125 54.125 3.550781 0 7.019531-.351563 10.378906-1.007813-24.925781-4.839844-43.746094-26.773437-43.746094-53.117187zm0 0" fill="#1a2b63"/><path d="m246.421875 256.808594c0 10.441406-8.46875 18.910156-18.914063 18.910156-10.441406 0-18.910156-8.46875-18.910156-18.910156 0-10.445313 8.46875-18.914063 18.910156-18.914063 10.445313 0 18.914063 8.46875 18.914063 18.914063zm0 0" fill="#fff"/><path d="m340.664062 209.035156c0 5.859375-4.75 10.609375-10.613281 10.609375-5.859375 0-10.609375-4.75-10.609375-10.609375 0-5.863281 4.75-10.613281 10.609375-10.613281 5.863281 0 10.613281 4.75 10.613281 10.613281zm0 0" fill="#60d882"/><g fill="#fe3745"><path d="m93.792969 19.101562c-1.714844 0-3.347657.3125-4.875.855469v27.269531c1.527343.542969 3.160156.859376 4.875.859376 8.003906 0 14.492187-6.492188 14.492187-14.492188 0-8.003906-6.488281-14.492188-14.492187-14.492188zm0 0"/><path d="m223.246094 33.59375c0 8.003906-6.488282 14.492188-14.492188 14.492188s-14.492187-6.488282-14.492187-14.492188 6.488281-14.492188 14.492187-14.492188 14.492188 6.488282 14.492188 14.492188zm0 0"/><path d="m129.898438 6.003906c0 11.519532 9.339843 20.855469 20.859374 20.855469 11.519532 0 20.855469-9.335937 20.855469-20.855469 0-2.089844-.3125-4.101562-.886719-6.003906h-39.941406c-.570312 1.902344-.886718 3.914062-.886718 6.003906zm0 0"/><path d="m246.617188 6.003906c0 11.519532 9.339843 20.855469 20.859374 20.855469 11.519532 0 20.859376-9.335937 20.859376-20.855469 0-2.089844-.316407-4.101562-.890626-6.003906h-39.941406c-.570312 1.902344-.886718 3.914062-.886718 6.003906zm0 0"/></g><path d="m332.703125 253.601562c0 5.566407-4.511719 10.078126-10.078125 10.078126s-10.082031-4.511719-10.082031-10.078126c0-5.570312 4.515625-10.082031 10.082031-10.082031s10.078125 4.511719 10.078125 10.082031zm0 0" fill="#2bb381"/><path d="m303.523438 223.359375c0 4.394531-3.5625 7.957031-7.957032 7.957031-4.394531 0-7.957031-3.5625-7.957031-7.957031s3.5625-7.957031 7.957031-7.957031c4.394532 0 7.957032 3.5625 7.957032 7.957031zm0 0" fill="#37c47a"/><path d="m127.578125 361.828125c0 4.398437-3.5625 7.960937-7.957031 7.960937-4.394532 0-7.957032-3.5625-7.957032-7.960937 0-4.394531 3.5625-7.957031 7.957032-7.957031 4.394531 0 7.957031 3.5625 7.957031 7.957031zm0 0" fill="#2bb381"/><path d="m114.316406 393.132812c0 4.394532-3.5625 7.957032-7.957031 7.957032s-7.960937-3.5625-7.960937-7.957032c0-4.394531 3.566406-7.957031 7.960937-7.957031s7.957031 3.5625 7.957031 7.957031zm0 0" fill="#60d882"/><path d="m152.851562 382.523438c0 4.394531-3.5625 7.957031-7.957031 7.957031-4.398437 0-7.960937-3.5625-7.960937-7.957031 0-4.398438 3.5625-7.960938 7.960937-7.960938 4.394531 0 7.957031 3.5625 7.957031 7.960938zm0 0" fill="#60d882"/><path d="m180.4375 394.195312c0 4.394532-3.5625 7.957032-7.957031 7.957032s-7.957031-3.5625-7.957031-7.957032c0-4.394531 3.5625-7.960937 7.957031-7.960937s7.957031 3.566406 7.957031 7.960937zm0 0" fill="#2bb381"/><path d="m115.378906 340.078125c0 5.566406-4.515625 10.082031-10.082031 10.082031s-10.082031-4.515625-10.082031-10.082031 4.515625-10.082031 10.082031-10.082031 10.082031 4.515625 10.082031 10.082031zm0 0" fill="#60d882"/><path d="m308.550781 415h108.902344c19.621094-15.878906 32.164063-40.148438 32.164063-67.355469 0-47.835937-38.777344-86.617187-86.613282-86.617187-47.835937 0-86.617187 38.78125-86.617187 86.617187 0 27.207031 12.546875 51.476563 32.164062 67.355469zm0 0" fill="#fff"/><path d="m314.773438 298.671875-12.640626-12.644531c-4.390624 4.335937-8.3125 9.132812-11.699218 14.320312l11.332031 11.332032c1.796875 1.796874 4.148437 2.691406 6.503906 2.691406s4.707031-.894532 6.503907-2.691406c3.59375-3.59375 3.59375-9.414063 0-13.007813zm0 0" fill="#ff9f60"/><path d="m297 347.644531c0-12.183593 2.527344-23.773437 7.066406-34.289062-.828125-.425781-1.605468-.980469-2.300781-1.675781l-11.320313-11.320313c3.386719-5.183594 7.304688-9.992187 11.691407-14.324219l11.121093 11.121094c13.832032-19.238281 35.339844-32.585938 60.050782-35.515625-3.378906-.402344-6.816406-.613281-10.304688-.613281-47.839844 0-86.617187 38.78125-86.617187 86.617187 0 27.207031 12.546875 51.476563 32.164062 67.355469h20.640625c-19.628906-15.878906-32.191406-40.140625-32.191406-67.355469zm0 0" fill="#d9eafc"/><path d="m413.015625 276.945312-11.300781 11.300782c-3.59375 3.59375-3.59375 9.417968 0 13.011718 1.792968 1.792969 4.148437 2.691407 6.503906 2.691407 2.351562 0 4.707031-.898438 6.503906-2.691407l12.128906-12.132812c-4.160156-4.535156-8.804687-8.613281-13.835937-12.179688zm0 0" fill="#ffc987"/><path d="m430.902344 341.964844h-12.261719c-5.078125 0-9.199219-4.117188-9.199219-9.195313 0-5.082031 4.121094-9.199219 9.199219-9.199219h12.261719c5.082031 0 9.199218 4.117188 9.199218 9.199219 0 5.078125-4.117187 9.195313-9.199218 9.195313zm0 0" fill="#ff9f60"/><path d="m302.484375 379.46875c-2.21875-4.570312-7.71875-6.480469-12.289063-4.265625l-7.914062 3.839844c2.246094 5.773437 5.085938 11.25 8.457031 16.34375l7.484375-3.628907c4.570313-2.21875 6.480469-7.71875 4.261719-12.289062zm0 0" fill="#ff9f60"/><path d="m411.042969 380.222656-11.613281-11.613281c-3.109376 5.382813-7.375 10.015625-12.457032 13.554687l11.0625 11.066407c1.796875 1.796875 4.148438 2.695312 6.503906 2.695312 2.355469 0 4.707032-.898437 6.503907-2.695312 3.589843-3.59375 3.589843-9.414063 0-13.007813zm0 0" fill="#ffc987"/><path d="m406.050781 347.644531c0 23.777344-19.273437 43.050781-43.046875 43.050781-23.777344 0-43.050781-19.273437-43.050781-43.050781 0-23.773437 19.273437-43.046875 43.050781-43.046875 23.773438 0 43.046875 19.273438 43.046875 43.046875zm0 0" fill="#293d7c"/><path d="m340.902344 347.644531c0-20.164062 13.863281-37.082031 32.574218-41.757812-3.355468-.839844-6.859374-1.289063-10.472656-1.289063-23.777344 0-43.050781 19.269532-43.050781 43.046875 0 23.773438 19.273437 43.050781 43.050781 43.050781 3.613282 0 7.121094-.453124 10.472656-1.292968-18.710937-4.675782-32.574218-21.597656-32.574218-41.757813zm0 0" fill="#1a2b63"/><path d="m387.898438 338.308594c0 8.308594-6.734376 15.042968-15.042969 15.042968-8.304688 0-15.039063-6.734374-15.039063-15.042968 0-8.304688 6.734375-15.039063 15.039063-15.039063 8.308593 0 15.042969 6.734375 15.042969 15.039063zm0 0" fill="#fff"/><path d="m512 445c0 2.75-2.25 5-5 5h-502c-2.75 0-5-2.25-5-5v-26c0-2.75 2.25-5 5-5h502c2.75 0 5 2.25 5 5zm0 0" fill="#a5683f"/><path d="m50 445v-26c0-2.75 2.25-5 5-5h-50c-2.75 0-5 2.25-5 5v26c0 2.75 2.25 5 5 5h50c-2.75 0-5-2.25-5-5zm0 0" fill="#8e5e3d"/></svg>