<svg height="512pt" viewBox="-11 0 512 512" width="512pt" xmlns="http://www.w3.org/2000/svg"><path d="m490 267c0 135.308594-109.691406 245-245 245s-245-109.691406-245-245 109.691406-245 245-245 245 109.691406 245 245zm0 0" fill="#8e5e3d"/><path d="m99.703125 147.390625-13.800781 124.410156c11.699218-2.769531 14.148437-5.019531 16.902344-16.3125l5.511718-49.695312c-2.753906-1.097657-6.214844-2.007813-10.683594-3.019531-1.699218-.382813-2.886718-1.871094-2.886718-3.613282 0-1.742187 1.1875-3.226562 2.886718-3.609375 5.34375-1.207031 9.253907-2.273437 12.226563-3.683593l4.75-42.820313c.796875-7.15625 7.550781-13.203125 14.753906-13.203125h51.765625v-15h-51.765625c-14.730469-.003906-28.035156 11.910156-29.660156 26.546875zm0 0" fill="#333031"/><path d="m91.984375 383.324219c-1.925781-2.152344-2.796875-5.070313-2.449219-8.207031l9.96875-89.878907c-2.484375-3.96875-6.332031-5.507812-14.273437-7.351562l-10.601563 95.574219c-.828125 7.4375 1.367188 14.492187 6.183594 19.867187 4.8125 5.375 11.582031 8.335937 19.0625 8.335937h52.945312v-15h-52.945312c-3.15625.003907-5.960938-1.183593-7.890625-3.339843zm0 0" fill="#333031"/><path d="m415.371094 373.460938-25.074219-226.070313c-1.625-14.636719-14.929687-26.550781-29.660156-26.550781h-51.765625v15h51.765625c7.203125 0 13.957031 6.046875 14.753906 13.207031l22.355469 201.550781c.847656.207032 1.738281.417969 2.691406.632813 1.289062.292969 2.191406 1.421875 2.191406 2.742187 0 1.320313-.902344 2.445313-2.191406 2.738282-.683594.152343-1.335938.304687-1.964844.453124l1.992188 17.953126c.347656 3.136718-.523438 6.054687-2.453125 8.207031-1.929688 2.15625-4.730469 3.34375-7.890625 3.34375h-52.945313v15h52.945313c7.484375 0 14.253906-2.960938 19.066406-8.339844 4.816406-5.375 7.011719-12.429687 6.183594-19.867187zm0 0" fill="#333031"/><path d="m327.8125 375.3125c12.378906-23.433594 19.398438-50.128906 19.398438-78.476562 0-38.707032-13.066407-74.363282-35.027344-102.804688h-134.367188c-21.960937 28.441406-35.027344 64.097656-35.027344 102.804688 0 28.347656 7.019532 55.042968 19.398438 78.476562zm0 0" fill="#fff"/><path d="m182.976562 375.3125c-12.375-23.433594-19.394531-50.128906-19.394531-78.476562 0-38.710938 13.070313-74.363282 35.027344-102.804688h-20.792969c-21.957031 28.441406-35.027344 64.097656-35.027344 102.804688 0 28.347656 7.023438 55.042968 19.398438 78.476562zm0 0" fill="#eef6ff"/><path d="m202.714844 157.0625h84.570312c.855469 0 1.695313.042969 2.535156.101562v-9.144531h-89.640624v9.144531c.839843-.058593 1.679687-.101562 2.535156-.101562zm0 0" fill="#333031"/><path d="m202.714844 157.0625h18.285156v-9.042969h-20.820312v9.144531c.839843-.058593 1.679687-.101562 2.535156-.101562zm0 0" fill="#231f20"/><path d="m294.691406 0h-99.382812c-24.9375 0-45.226563 20.289062-45.226563 45.226562 0 24.933594 20.273438 45.214844 45.203125 45.230469v-15c-16.65625-.015625-30.203125-13.566406-30.203125-30.230469 0-16.667968 13.558594-30.226562 30.226563-30.226562h99.382812c16.667969 0 30.226563 13.558594 30.226563 30.226562 0 16.660157-13.546875 30.214844-30.199219 30.230469v15c24.925781-.015625 45.199219-20.296875 45.199219-45.230469 0-24.9375-20.289063-45.226562-45.226563-45.226562zm0 0" fill="#333031"/><path d="m295.71875 106.394531v-39.640625c0-2.75-2.25-5-5-5h-91.4375c-2.75 0-5 2.25-5 5v39.640625zm0 0" fill="#ef8318"/><path d="m215 106.394531v-39.640625c0-2.75 2.25-5 5-5h-20.71875c-2.75 0-5 2.25-5 5v39.640625zm0 0" fill="#db722c"/><path d="m245 217.441406c-41.039062 0-74.304688 33.273438-74.304688 74.308594 0 27.136719 14.550782 50.867188 36.273438 63.835938h76.058594c21.726562-12.96875 36.277344-36.699219 36.277344-63.835938 0-41.035156-33.265626-74.308594-74.304688-74.308594zm0 0" fill="#ffd00d"/><path d="m246.859375 251.695312 22.789063 41.628907c2.730468 4.484375 4.164062 9.597656 4.164062 14.820312 0 5.777344-1.742188 11.160157-4.71875 15.660157 9.71875-7.316407 16.007812-18.953126 16.007812-32.058594 0-21.519532-16.957031-39.078125-38.242187-40.050782zm0 0" fill="#ffdd8d"/><path d="m216.1875 308.148438c0-5.226563 1.433594-10.339844 4.144531-14.785157l22.8125-41.667969c-21.285156.96875-38.246093 18.53125-38.246093 40.054688 0 13.105469 6.289062 24.738281 16.011718 32.058594-2.980468-4.503906-4.722656-9.882813-4.722656-15.660156zm0 0" fill="#ffdd8d"/><path d="m245 336.746094c-2.59375 0-5.105469-.347656-7.5-.988282v19.828126h15v-19.828126c-2.394531.640626-4.90625.988282-7.5.988282zm0 0" fill="#333031"/><path d="m289.820312 375.3125v-15.726562c0-2.75-2.25-5-5-5h-79.640624c-2.75 0-5 2.25-5 5v15.726562zm0 0" fill="#ff9518"/><path d="m221 375.3125v-15.726562c0-2.75 2.25-5 5-5h-20.820312c-2.75 0-5 2.25-5 5v15.726562zm0 0" fill="#ef8318"/><path d="m245 337.746094c-16.4375 0-29.8125-13.277344-29.8125-29.597656 0-5.410157 1.480469-10.699219 4.289062-15.304688l23.21875-42.410156c.457032-.839844 1.34375-1.363282 2.304688-1.363282s1.847656.523438 2.308594 1.363282l23.21875 42.410156c2.804687 4.601562 4.285156 9.894531 4.285156 15.304688 0 16.320312-13.375 29.597656-29.8125 29.597656zm0 0" fill="#ffaf10"/><path d="m225 308.148438c0-5.410157 1.480469-10.699219 4.289062-15.304688l20.617188-37.664062-2.597656-4.746094c-.460938-.839844-1.347656-1.363282-2.308594-1.363282-.964844 0-1.847656.523438-2.308594 1.363282l-23.214844 42.410156c-2.808593 4.601562-4.289062 9.894531-4.289062 15.304688 0 16.320312 13.371094 29.597656 29.8125 29.597656 1.667969 0 3.304688-.140625 4.898438-.40625-14.109376-2.335938-24.898438-14.53125-24.898438-29.191406zm0 0" fill="#ef9614"/><path d="m260.332031 309.441406c0 8.46875-6.863281 15.332032-15.332031 15.332032s-15.332031-6.863282-15.332031-15.332032 6.863281-15.332031 15.332031-15.332031 15.332031 6.863281 15.332031 15.332031zm0 0" fill="#ffd00d"/><path d="m333.175781 374.3125h-176.355469c-2.75 0-5 2.25-5 5v30.433594h55.789063c7.128906-11.253906 19.683594-18.746094 33.960937-18.746094h6.863282c14.277344 0 26.828125 7.492188 33.957031 18.746094h55.785156v-30.433594c0-2.75-2.25-5-5-5zm0 0" fill="#231f20"/><path d="m172.644531 409.746094v-30.433594c0-2.75 2.25-5 5-5h-20.824219c-2.75 0-5 2.25-5 5v30.433594zm0 0"/><path d="m352.726562 413.6875c-.421874-2.714844-3.015624-4.941406-5.765624-4.941406h-65.210938c4.328125 6.410156 6.859375 14.132812 6.859375 22.429687v6.859375c0 14.246094-7.308594 27.136719-19.546875 34.476563l-.46875.28125-.015625.550781c-.308594 11.859375-9.832031 21.148438-21.6875 21.148438h-3.78125c-11.855469 0-21.382813-9.289063-21.6875-21.148438l-.015625-.550781-.472656-.28125c-12.234375-7.339844-19.539063-20.230469-19.539063-34.476563v-6.859375c0-8.296875 2.527344-16.019531 6.859375-22.429687h-65.214844c-2.75 0-5.34375 2.226562-5.765624 4.941406l-10.5625 67.898438c35.070312 19.375 75.386718 30.414062 118.289062 30.414062s83.21875-11.039062 118.289062-30.414062zm0 0" fill="#ef8318"/><path d="m159.878906 414.574219c.5-3.203125 3.5625-5.828125 6.804688-5.828125h-23.644532c-2.75 0-5.34375 2.226562-5.765624 4.941406l-10.5625 67.898438c6.847656 3.785156 13.898437 7.246093 21.132812 10.375zm0 0" fill="#db722c"/><path d="m248.433594 390h-6.863282c-22.742187 0-41.175781 18.433594-41.175781 41.175781v6.859375c0 15.011719 8.03125 28.136719 20.023438 35.332032.320312 12.269531 10.34375 22.121093 22.691406 22.121093h3.78125c12.34375 0 22.371094-9.851562 22.683594-22.121093 12-7.195313 20.03125-20.320313 20.03125-35.332032v-6.859375c0-22.742187-18.433594-41.175781-41.171875-41.175781zm0 0" fill="#fff"/><path d="m235.8125 473.367188c-11.996094-7.195313-20.027344-20.320313-20.027344-35.332032v-6.859375c0-21.300781 16.175782-38.820312 36.914063-40.957031-1.402344-.144531-2.828125-.21875-4.265625-.21875h-6.863282c-22.742187 0-41.179687 18.433594-41.179687 41.175781v6.859375c0 15.011719 8.035156 28.136719 20.027344 35.332032.320312 12.269531 10.339843 22.121093 22.6875 22.121093h3.785156c2.007813 0 3.949219-.261719 5.804687-.753906-9.542968-2.515625-16.617187-11.09375-16.882812-21.367187zm0 0" fill="#eef6ff"/><path d="m240.515625 438.566406c0 6.191406-5.019531 11.214844-11.214844 11.214844-6.191406 0-11.210937-5.023438-11.210937-11.214844v-11.667968c0-6.191407 5.019531-11.210938 11.210937-11.210938 6.195313 0 11.214844 5.019531 11.214844 11.210938zm0 0" fill="#231f20"/><path d="m271.910156 438.566406c0 6.191406-5.019531 11.214844-11.214844 11.214844-6.191406 0-11.210937-5.023438-11.210937-11.214844v-11.667968c0-6.191407 5.019531-11.210938 11.210937-11.210938 6.195313 0 11.214844 5.019531 11.214844 11.210938zm0 0" fill="#231f20"/><g fill="#333031"><path d="m209.617188 98.847656c-4.144532 0-7.5-3.359375-7.5-7.5v-13.742187c0-4.140625 3.355468-7.5 7.5-7.5 4.140624 0 7.5 3.359375 7.5 7.5v13.742187c0 4.140625-3.359376 7.5-7.5 7.5zm0 0"/><path d="m233.203125 98.847656c-4.140625 0-7.5-3.359375-7.5-7.5v-13.742187c0-4.140625 3.359375-7.5 7.5-7.5 4.144531 0 7.5 3.359375 7.5 7.5v13.742187c0 4.140625-3.355469 7.5-7.5 7.5zm0 0"/><path d="m256.796875 98.847656c-4.144531 0-7.5-3.359375-7.5-7.5v-13.742187c0-4.140625 3.355469-7.5 7.5-7.5 4.140625 0 7.5 3.359375 7.5 7.5v13.742187c0 4.140625-3.359375 7.5-7.5 7.5zm0 0"/><path d="m280.382812 98.847656c-4.140624 0-7.5-3.359375-7.5-7.5v-13.742187c0-4.140625 3.359376-7.5 7.5-7.5 4.144532 0 7.5 3.359375 7.5 7.5v13.742187c0 4.140625-3.355468 7.5-7.5 7.5zm0 0"/></g><path d="m170.054688 195.035156c-1.742188 0-3.15625-1.414062-3.15625-3.15625 0-19.75 16.066406-35.816406 35.816406-35.816406h84.570312c19.75 0 35.816406 16.066406 35.816406 35.816406 0 1.742188-1.414062 3.15625-3.15625 3.15625zm0 0" fill="#231f20"/><path d="m198 191.878906c0-19.75 16.066406-35.816406 35.8125-35.816406h-31.101562c-19.746094 0-35.8125 16.066406-35.8125 35.816406 0 1.742188 1.410156 3.15625 3.15625 3.15625h31.101562c-1.746094 0-3.15625-1.414062-3.15625-3.15625zm0 0"/><path d="m309.871094 144.019531c0 2.75-2.25 5-5 5h-119.742188c-2.75 0-5-2.25-5-5v-33.625c0-2.75 2.25-5 5-5h119.742188c2.75 0 5 2.25 5 5zm0 0" fill="#231f20"/><path d="m201 144.019531v-33.625c0-2.75 2.25-5 5-5h-20.871094c-2.75 0-5 2.25-5 5v33.625c0 2.75 2.25 5 5 5h20.871094c-2.75 0-5-2.25-5-5zm0 0"/><path d="m124.703125 230.117188c-2.199219 0-4.105469-1.519532-4.589844-3.667969-3.792969-16.785157-5.914062-18.910157-22.699219-22.699219-2.148437-.488281-3.667968-2.390625-3.667968-4.589844 0-2.199218 1.523437-4.105468 3.667968-4.585937 16.785157-3.792969 18.90625-5.917969 22.695313-22.703125.488281-2.144532 2.398437-3.667969 4.59375-3.664063 2.199219-.003906 4.101563 1.519531 4.585937 3.667969 3.796876 16.78125 5.914063 18.90625 22.703126 22.695312 2.140624.488282 3.664062 2.390626 3.667968 4.589844-.003906 2.199219-1.523437 4.105469-3.671875 4.589844-16.785156 3.789062-18.90625 5.914062-22.699219 22.695312-.480468 2.152344-2.386718 3.671876-4.585937 3.671876zm0 0" fill="#ffd00d"/><path d="m106.113281 299.980469c-1.777343 0-3.320312-1.226563-3.714843-2.964844-3.070313-13.589844-4.789063-15.308594-18.375-18.378906-1.738282-.394531-2.96875-1.933594-2.96875-3.710938 0-1.78125 1.230468-3.328125 2.96875-3.714843 13.585937-3.070313 15.304687-4.789063 18.375-18.378907.394531-1.734375 1.9375-2.96875 3.714843-2.964843 1.78125-.003907 3.320313 1.230468 3.710938 2.96875 3.074219 13.585937 4.789062 15.304687 18.378906 18.371093 1.734375.394531 2.96875 1.933594 2.972656 3.71875-.003906 1.777344-1.234375 3.320313-2.972656 3.710938-13.589844 3.070312-15.304687 4.789062-18.378906 18.375-.386719 1.742187-1.929688 2.96875-3.710938 2.96875zm0 0" fill="#fff"/><path d="m378.566406 379.027344c-1.777344 0-3.320312-1.226563-3.710937-2.964844-3.074219-13.589844-4.789063-15.308594-18.375-18.378906-1.742188-.394532-2.972657-1.933594-2.972657-3.710938 0-1.78125 1.234376-3.328125 2.972657-3.714844 13.585937-3.070312 15.300781-4.789062 18.371093-18.378906.394532-1.734375 1.9375-2.96875 3.714844-2.964844 1.78125-.003906 3.324219 1.230469 3.714844 2.96875 3.070312 13.585938 4.789062 15.300782 18.378906 18.371094 1.730469.394532 2.96875 1.933594 2.96875 3.71875 0 1.777344-1.234375 3.320313-2.972656 3.710938-13.585938 3.070312-15.304688 4.789062-18.375 18.375-.390625 1.742187-1.929688 2.96875-3.714844 2.96875zm0 0" fill="#fff"/></svg>