<svg height="512pt" viewBox="-11 0 512 512" width="512pt" xmlns="http://www.w3.org/2000/svg"><path d="m490 267c0 135.308594-109.691406 245-245 245s-245-109.691406-245-245 109.691406-245 245-245 245 109.691406 245 245zm0 0" fill="#f24976"/><path d="m143.222656 339.628906c.828125-.566406 1.789063-.921875 2.757813-.921875h198.039062c.96875 0 1.929688.355469 2.757813.921875 27.753906-26.726562 45.0625-64.234375 45.0625-105.71875 0-80.964844-65.871094-146.835937-146.839844-146.835937s-146.839844 65.871093-146.839844 146.835937c0 41.488282 17.308594 78.992188 45.0625 105.71875zm0 0" fill="#4a2363"/><path d="m174.652344 338.707031h140.695312c34.054688-22.742187 56.484375-61.523437 56.484375-105.546875 0-70.046875-56.785156-126.832031-126.832031-126.832031s-126.835938 56.785156-126.835938 126.832031c0 44.023438 22.433594 82.804688 56.488282 105.546875zm0 0" fill="#794091"/><path d="m124.085938 234.878906c5.335937 0 10.410156 1.109375 15.011718 3.105469-.058594-1.601563-.097656-3.207031-.097656-4.824219 0-66.539062 51.242188-121.105468 116.414062-126.402344-3.433593-.28125-6.90625-.429687-10.414062-.429687-70.050781 0-126.835938 56.785156-126.835938 126.832031 0 .730469.023438 1.453125.035157 2.179688 1.917969-.304688 3.882812-.460938 5.886719-.460938zm0 0" fill="#62317c"/><path d="m282.226562 338.707031h33.089844c23.230469-15.507812 41.0625-38.46875 50.050782-65.480469-.589844-.039062-1.1875-.066406-1.789063-.066406-4.566406 0-8.859375 1.175782-12.59375 3.230469-4.457031-8.050781-13.035156-13.503906-22.886719-13.503906-14.230468 0-25.796875 11.375-26.128906 25.527343-4.902344-2.003906-10.265625-3.117187-15.886719-3.117187-11.820312 0-22.488281 4.886719-30.125 12.738281 15.003907 7.636719 25.484375 22.910156 26.269531 40.671875zm0 0" fill="#924eb5"/><path d="m174.648438 338.707031h108.578124c-1.125-26.078125-22.613281-46.871093-48.964843-46.871093-6.921875 0-13.507813 1.441406-19.480469 4.03125-8.480469-14.160157-23.96875-23.640626-41.675781-23.640626-3.867188 0-7.621094.464844-11.226563 1.316407.007813-.28125.019532-.5625.019532-.851563 0-20.882812-16.929688-37.8125-37.8125-37.8125-2.003907 0-3.972657.15625-5.894532.457032.730469 43.121093 22.96875 81.003906 56.457032 103.371093zm0 0" fill="#fff"/><path d="m174.648438 338.707031h20.824218c-32.808594-21.90625-54.828125-58.703125-56.394531-100.734375-4.597656-1.988281-9.664063-3.09375-14.992187-3.09375-2.003907 0-3.972657.15625-5.894532.460938.730469 43.117187 22.96875 81 56.457032 103.367187zm0 0" fill="#eef6ff"/><path d="m356.902344 378.125-6.925782-35.511719c-.523437-2.699219-3.207031-4.90625-5.957031-4.90625h-198.039062c-2.75 0-5.433594 2.207031-5.957031 4.90625l-6.925782 35.511719zm0 0" fill="#293d7c"/><path d="m164.230469 378.125 6.925781-35.511719c.523438-2.699219 3.207031-4.90625 5.957031-4.90625h-31.136719c-2.75 0-5.429687 2.207031-5.957031 4.90625l-6.925781 35.511719zm0 0" fill="#1a2b63"/><path d="m375.945312 421v-33.875c0-5.5-4.5-10-10-10h-241.890624c-5.5 0-10 4.5-10 10v33.875zm0 0" fill="#445ea0"/><path d="m145.109375 421v-33.875c0-5.5 4.5-10 10-10h-31.054687c-5.5 0-10 4.5-10 10v33.875zm0 0" fill="#2e4c89"/><path d="m315.824219 207.339844c-1.925781 0-3.597657-1.335938-4.027344-3.21875-3.328125-14.730469-5.1875-16.597656-19.921875-19.925782-1.886719-.425781-3.21875-2.09375-3.21875-4.023437 0-1.933594 1.335938-3.605469 3.21875-4.027344 14.734375-3.328125 16.59375-5.191406 19.921875-19.925781.425781-1.882812 2.101563-3.222656 4.027344-3.21875 1.933593-.003906 3.601562 1.335938 4.027343 3.21875 3.332032 14.734375 5.191407 16.59375 19.925782 19.921875 1.882812.425781 3.21875 2.09375 3.222656 4.03125-.003906 1.929687-1.339844 3.601563-3.222656 4.023437-14.734375 3.328126-16.59375 5.191407-19.925782 19.921876-.421874 1.886718-2.09375 3.222656-4.027343 3.222656zm0 0" fill="#fff"/><path d="m253.171875 164.339844c-1.289063 0-2.410156-.894532-2.695313-2.152344-2.226562-9.851562-3.46875-11.097656-13.324218-13.324219-1.261719-.285156-2.152344-1.402343-2.152344-2.691406 0-1.292969.894531-2.410156 2.152344-2.695313 9.855468-2.222656 11.097656-3.46875 13.324218-13.324218.285157-1.257813 1.40625-2.152344 2.695313-2.148438 1.289063-.003906 2.40625.890625 2.691406 2.148438 2.226563 9.855468 3.472657 11.097656 13.324219 13.324218 1.257812.285157 2.152344 1.398438 2.15625 2.695313-.003906 1.289063-.898438 2.40625-2.15625 2.691406-9.851562 2.226563-11.097656 3.472657-13.324219 13.324219-.285156 1.257812-1.402343 2.152344-2.691406 2.152344zm0 0" fill="#f87eab"/><path d="m211.171875 124c-1.789063 0-3.335937-1.238281-3.734375-2.980469-3.082031-13.648437-4.804688-15.375-18.457031-18.457031-1.746094-.398438-2.980469-1.945312-2.980469-3.730469 0-1.792969 1.238281-3.339843 2.980469-3.730469 13.652343-3.082031 15.375-4.808593 18.457031-18.457031.394531-1.746093 1.945312-2.984375 3.730469-2.984375 1.789062 0 3.335937 1.238282 3.730469 2.984375 3.085937 13.648438 4.808593 15.371094 18.460937 18.453125 1.742187.394532 2.980469 1.9375 2.984375 3.734375-.003906 1.785157-1.242188 3.335938-2.984375 3.730469-13.648437 3.082031-15.375 4.808594-18.460937 18.453125-.390626 1.746094-1.941407 2.984375-3.726563 2.984375zm0 0" fill="#fff"/><path d="m248.785156 54.339844c-1.925781 0-3.597656-1.335938-4.027344-3.21875-3.328124-14.730469-5.1875-16.597656-19.921874-19.925782-1.886719-.425781-3.21875-2.09375-3.21875-4.023437 0-1.933594 1.335937-3.605469 3.21875-4.027344 14.734374-3.328125 16.59375-5.191406 19.921874-19.925781.425782-1.882812 2.101563-3.22265625 4.027344-3.21875 1.933594-.00390625 3.605469 1.335938 4.027344 3.21875 3.332031 14.734375 5.191406 16.59375 19.925781 19.921875 1.882813.425781 3.21875 2.09375 3.222657 4.03125-.003907 1.929687-1.339844 3.601563-3.222657 4.023437-14.734375 3.328126-16.59375 5.191407-19.925781 19.921876-.421875 1.886718-2.09375 3.222656-4.027344 3.222656zm0 0" fill="#ffd00d"/><path d="m300.828125 90.339844c-1.503906 0-2.808594-1.039063-3.140625-2.507813-2.59375-11.480469-4.042969-12.929687-15.523438-15.523437-1.46875-.332032-2.507812-1.632813-2.507812-3.136719 0-1.507813 1.042969-2.8125 2.507812-3.140625 11.480469-2.59375 12.929688-4.042969 15.523438-15.523438.332031-1.46875 1.636719-2.511718 3.140625-2.507812 1.503906-.003906 2.804687 1.039062 3.136719 2.507812 2.59375 11.480469 4.042968 12.929688 15.523437 15.523438 1.464844.332031 2.507813 1.632812 2.511719 3.140625-.003906 1.503906-1.046875 2.804687-2.511719 3.136719-11.480469 2.59375-12.929687 4.046875-15.527343 15.523437-.328126 1.46875-1.628907 2.507813-3.132813 2.507813zm0 0" fill="#ffc987"/><path d="m438 358.328125c-2.363281.761719-4.882812 1.179687-7.5 1.179687s-5.136719-.417968-7.5-1.179687v17.511719h15zm0 0" fill="#333031"/><path d="m435.53125 421c11.453125-14.152344 21.367188-29.601562 29.472656-46.097656-.199218-.03125-.394531-.0625-.601562-.0625h-67.804688c-2.339844 0-4.257812 1.917968-4.257812 4.257812v41.902344zm0 0" fill="#60d882"/><path d="m413.335938 421v-41.902344c0-2.339844 1.917968-4.257812 4.257812-4.257812h-20.996094c-2.34375 0-4.257812 1.917968-4.257812 4.257812v41.902344zm0 0" fill="#37c47a"/><path d="m430.5 360.507812c-13.996094 0-25.382812-11.308593-25.382812-25.207031 0-4.601562 1.261718-9.109375 3.652343-13.027343l19.765625-36.109376c.390625-.714843 1.144532-1.160156 1.964844-1.160156s1.574219.445313 1.964844 1.160156l19.769531 36.109376c2.386719 3.917968 3.648437 8.425781 3.648437 13.027343 0 13.898438-11.386718 25.207031-25.382812 25.207031zm0 0" fill="#ffaf10"/><path d="m415.234375 335.300781c0-4.601562 1.261719-9.109375 3.652344-13.027343l16.671875-30.457032-3.09375-5.652344c-.394532-.714843-1.148438-1.160156-1.964844-1.160156-.820312 0-1.574219.445313-1.964844 1.160156l-19.765625 36.109376c-2.390625 3.917968-3.652343 8.425781-3.652343 13.027343 0 13.898438 11.386718 25.207031 25.382812 25.207031 1.730469 0 3.421875-.175781 5.058594-.503906-11.582032-2.335937-20.324219-12.523437-20.324219-24.703125zm0 0" fill="#ef9614"/><path d="m443.554688 336.402344c0 7.210937-5.84375 13.058594-13.054688 13.058594s-13.054688-5.847657-13.054688-13.058594c0-7.207032 5.84375-13.054688 13.054688-13.054688s13.054688 5.847656 13.054688 13.054688zm0 0" fill="#ffd00d"/><path d="m59.5 359.507812c-2.617188 0-5.136719-.417968-7.5-1.179687v17.511719h15v-17.511719c-2.363281.761719-4.882812 1.179687-7.5 1.179687zm0 0" fill="#333031"/><path d="m97.660156 421v-41.902344c0-2.339844-1.917968-4.257812-4.257812-4.257812h-67.804688c-.207031 0-.402344.03125-.601562.0625 8.105468 16.496094 18.019531 31.945312 29.472656 46.097656zm0 0" fill="#60d882"/><path d="m59.5 360.507812c-13.996094 0-25.382812-11.308593-25.382812-25.207031 0-4.601562 1.261718-9.109375 3.652343-13.027343l19.765625-36.109376c.390625-.714843 1.144532-1.160156 1.964844-1.160156s1.574219.445313 1.964844 1.160156l19.769531 36.109376c2.386719 3.917968 3.648437 8.425781 3.648437 13.027343 0 13.898438-11.386718 25.207031-25.382812 25.207031zm0 0" fill="#ffaf10"/><path d="m44.234375 335.300781c0-4.601562 1.261719-9.109375 3.652344-13.027343l16.671875-30.457032-3.09375-5.652344c-.394532-.714843-1.148438-1.160156-1.964844-1.160156-.820312 0-1.574219.445313-1.964844 1.160156l-19.765625 36.109376c-2.390625 3.917968-3.652343 8.425781-3.652343 13.027343 0 13.898438 11.386718 25.207031 25.382812 25.207031 1.730469 0 3.421875-.175781 5.058594-.503906-11.582032-2.335937-20.324219-12.523437-20.324219-24.703125zm0 0" fill="#ef9614"/><path d="m72.554688 336.402344c0 7.210937-5.84375 13.058594-13.054688 13.058594s-13.054688-5.847657-13.054688-13.058594c0-7.207032 5.84375-13.054688 13.054688-13.054688s13.054688 5.847656 13.054688 13.054688zm0 0" fill="#ffd00d"/><path d="m245 512c77.421875 0 146.445312-35.925781 191.34375-92h-382.6875c44.898438 56.074219 113.921875 92 191.34375 92zm0 0" fill="#d19546"/><g fill="#ff9518"><path d="m284.0625 229.761719c-1.167969 1.167969-3.074219 1.167969-4.242188 0l-7.699218-7.699219c-1.167969-1.164062-1.167969-3.074219 0-4.242188l7.699218-7.699218c1.167969-1.164063 3.078126-1.164063 4.242188 0l7.699219 7.699218c1.167969 1.167969 1.167969 3.078126 0 4.242188zm0 0"/><path d="m304.179688 134.761719c-1.167969 1.167969-3.074219 1.167969-4.242188 0l-9.199219-9.199219c-1.167969-1.164062-1.167969-3.074219 0-4.242188l9.199219-9.199218c1.167969-1.164063 3.078125-1.164063 4.242188 0l9.199218 9.199218c1.167969 1.167969 1.167969 3.078126 0 4.242188zm0 0"/></g></svg>