<svg height="512pt" viewBox="0 -11 512 512" width="512pt" xmlns="http://www.w3.org/2000/svg"><path d="m501 245c0 135.308594-109.691406 245-245 245s-245-109.691406-245-245 109.691406-245 245-245 245 109.691406 245 245zm0 0" fill="#924eb5"/><path d="m234.558594 105.265625v-5.632813c0-1.855468 1.511718-3.367187 3.371094-3.367187h36.140624c1.859376 0 3.371094 1.511719 3.371094 3.367187v5.632813l42.59375-41.691406c-7.828125-28.015625-33.523437-48.574219-64.035156-48.574219s-56.207031 20.558594-64.035156 48.574219zm0 0" fill="#fff"/><path d="m210.007812 81.234375c.128907-33.121094 24.46875-60.53125 56.242188-65.445313-3.34375-.519531-6.765625-.789062-10.25-.789062-30.511719 0-56.207031 20.558594-64.035156 48.574219zm0 0" fill="#eef6ff"/><path d="m373.394531 118.550781v-54.359375c0-5.578125-4.605469-10.140625-10.238281-10.140625h-24.582031c-5.636719 0-13.519531 3.207031-17.523438 7.128907l-43.605469 42.6875v14.683593zm0 0" fill="#ff9518"/><path d="m234.558594 118.550781v-14.683593l-43.605469-42.6875c-4.007813-3.921876-11.890625-7.128907-17.523437-7.128907h-24.582032c-5.632812 0-10.242187 4.5625-10.242187 10.140625v54.359375zm0 0" fill="#ff9518"/><path d="m159.605469 118.550781v-54.359375c0-5.578125 4.609375-10.140625 10.242187-10.140625h-21c-5.632812 0-10.242187 4.5625-10.242187 10.140625v54.359375zm0 0" fill="#ef8318"/><path d="m278.441406 118.550781v-18.917969c0-2.402343-1.96875-4.367187-4.371094-4.367187h-36.140624c-2.40625 0-4.375 1.964844-4.375 4.367187v18.917969zm0 0" fill="#ef8318"/><path d="m237.929688 95.265625c-2.402344 0-4.371094 1.964844-4.371094 4.367187v18.917969h20.554687v-18.917969c0-2.402343 1.972657-4.367187 4.375-4.367187zm0 0" fill="#db722c"/><path d="m104.71875 192.984375h302.5625v210.015625h-302.5625zm0 0" fill="#333031"/><path d="m104.71875 192.984375h20.714844v210.015625h-20.714844zm0 0" fill="#231f20"/><path d="m288.628906 403v-89.101562c-2.433594 2.488281-5.214844 4.695312-8.308594 6.550781l-.234374.144531-.007813.273438c-.3125 12.128906-10.058594 21.632812-22.1875 21.632812h-3.78125c-12.128906 0-21.875-9.503906-22.1875-21.632812l-.007813-.273438-.238281-.144531c-3.089843-1.855469-5.871093-4.058594-8.304687-6.550781v89.101562zm0 0" fill="#ef8318"/><path d="m252.570312 238.011719h6.863282c11.445312 0 21.796875 4.757812 29.195312 12.394531v-57.421875h-65.261718v57.425781c7.402343-7.640625 17.753906-12.398437 29.203124-12.398437zm0 0" fill="#ef8318"/><path d="m244 238.925781v-45.941406h-20.628906v57.425781c5.496094-5.679687 12.628906-9.761718 20.628906-11.484375zm0 0" fill="#db722c"/><path d="m244 403v-62.910156c-7.027344-3.566406-11.859375-10.746094-12.082031-19.226563l-.007813-.273437-.234375-.140625c-3.089843-1.855469-5.871093-4.0625-8.304687-6.550781v89.101562zm0 0" fill="#db722c"/><path d="m99.855469 118.050781c-2.402344 0-4.367188 1.964844-4.367188 4.363281v66.703126c0 2.402343 1.964844 4.367187 4.367188 4.367187h117.082031v-75.433594zm0 0" fill="#231f20"/><path d="m412.144531 118.050781h-117.082031v75.433594h117.078125c2.40625 0 4.371094-1.964844 4.371094-4.363281v-66.707032c0-2.398437-1.964844-4.363281-4.367188-4.363281zm0 0" fill="#231f20"/><path d="m126.976562 189.117188v-66.703126c0-2.398437 1.964844-4.363281 4.371094-4.363281h-31.492187c-2.402344 0-4.367188 1.964844-4.367188 4.363281v66.703126c0 2.402343 1.964844 4.367187 4.367188 4.367187h31.488281c-2.402344 0-4.367188-1.964844-4.367188-4.367187zm0 0"/><path d="m103.835938 437c41.796874 33.171875 94.65625 53 152.164062 53s110.367188-19.828125 152.164062-53zm0 0" fill="#8e5e3d"/><path d="m512 433c0 2.75-2.25 5-5 5h-502c-2.75 0-5-2.25-5-5v-26c0-2.75 2.25-5 5-5h502c2.75 0 5 2.25 5 5zm0 0" fill="#b2762f"/><path d="m30 433v-26c0-2.75 2.25-5 5-5h-30c-2.75 0-5 2.25-5 5v26c0 2.75 2.25 5 5 5h30c-2.75 0-5-2.25-5-5zm0 0" fill="#a5683f"/><path d="m259.433594 237.511719h-6.863282c-22.742187 0-41.175781 18.433593-41.175781 41.171875v6.863281c0 15.007813 8.03125 28.136719 20.023438 35.332031.320312 12.265625 10.34375 22.121094 22.691406 22.121094h3.78125c12.34375 0 22.371094-9.855469 22.683594-22.121094 12-7.195312 20.03125-20.324218 20.03125-35.332031v-6.863281c0-22.738282-18.433594-41.171875-41.171875-41.171875zm0 0" fill="#fff"/><path d="m247.8125 320.878906c-11.996094-7.195312-20.027344-20.324218-20.027344-35.332031v-6.863281c0-21.125 15.914063-38.527344 36.414063-40.890625-1.566407-.179688-3.152344-.28125-4.765625-.28125h-6.863282c-22.742187 0-41.179687 18.433593-41.179687 41.171875v6.863281c0 15.007813 8.035156 28.136719 20.027344 35.332031.320312 12.265625 10.34375 22.121094 22.691406 22.121094h3.78125c2.1875 0 4.300781-.316406 6.304687-.894531-9.289062-2.679688-16.121093-11.132813-16.382812-21.226563zm0 0" fill="#eef6ff"/><path d="m251.515625 286.078125c0 6.191406-5.019531 11.210937-11.214844 11.210937-6.191406 0-11.210937-5.019531-11.210937-11.210937v-11.667969c0-6.191406 5.019531-11.214844 11.210937-11.214844 6.195313 0 11.214844 5.023438 11.214844 11.214844zm0 0" fill="#231f20"/><path d="m282.910156 286.078125c0 6.191406-5.019531 11.210937-11.214844 11.210937-6.191406 0-11.210937-5.019531-11.210937-11.210937v-11.667969c0-6.191406 5.019531-11.214844 11.210937-11.214844 6.195313 0 11.214844 5.023438 11.214844 11.214844zm0 0" fill="#231f20"/><path d="m216.9375 118.050781h78.125v75.433594h-78.125zm0 0" fill="#ff9518"/><path d="m216.9375 118.050781h20.941406v75.433594h-20.941406zm0 0" fill="#ef8318"/><path d="m142.121094 236.863281c-1.167969 1.164063-3.074219 1.164063-4.242188 0l-13.25-13.25c-1.164062-1.167969-1.164062-3.078125 0-4.242187l13.25-13.25c1.167969-1.167969 3.074219-1.167969 4.242188 0l13.25 13.25c1.164062 1.164062 1.164062 3.074218 0 4.242187zm0 0" fill="#999cad"/><path d="m180.613281 275.355469c-1.167969 1.164062-3.078125 1.164062-4.242187 0l-13.25-13.25c-1.167969-1.167969-1.167969-3.078125 0-4.242188l13.25-13.25c1.164062-1.167969 3.074218-1.167969 4.242187 0l13.25 13.25c1.164063 1.164063 1.164063 3.074219 0 4.242188zm0 0" fill="#fff"/><path d="m142.121094 314.878906c-1.167969 1.167969-3.074219 1.167969-4.242188 0l-13.25-13.25c-1.164062-1.164062-1.164062-3.074218 0-4.242187l13.25-13.25c1.167969-1.164063 3.074219-1.164063 4.242188 0l13.25 13.25c1.164062 1.167969 1.164062 3.078125 0 4.242187zm0 0" fill="#999cad"/><path d="m180.613281 353.371094c-1.167969 1.164062-3.078125 1.164062-4.242187 0l-13.25-13.25c-1.167969-1.167969-1.167969-3.074219 0-4.242188l13.25-13.25c1.164062-1.164062 3.074218-1.164062 4.242187 0l13.25 13.25c1.164063 1.167969 1.164063 3.074219 0 4.242188zm0 0" fill="#fff"/><path d="m142.121094 392.894531c-1.167969 1.167969-3.074219 1.167969-4.242188 0l-13.25-13.25c-1.164062-1.164062-1.164062-3.074219 0-4.242187l13.25-13.25c1.167969-1.164063 3.074219-1.164063 4.242188 0l13.25 13.25c1.164062 1.167968 1.164062 3.078125 0 4.242187zm0 0" fill="#999cad"/><path d="m334.136719 236.863281c-1.164063 1.164063-3.074219 1.164063-4.242188 0l-13.25-13.25c-1.164062-1.167969-1.164062-3.078125 0-4.242187l13.25-13.25c1.167969-1.167969 3.078125-1.167969 4.242188 0l13.25 13.25c1.167969 1.164062 1.167969 3.074218 0 4.242187zm0 0" fill="#999cad"/><path d="m372.628906 275.355469c-1.164062 1.164062-3.074218 1.164062-4.242187 0l-13.25-13.25c-1.164063-1.167969-1.164063-3.078125 0-4.242188l13.25-13.25c1.167969-1.167969 3.078125-1.167969 4.242187 0l13.25 13.25c1.167969 1.164063 1.167969 3.074219 0 4.242188zm0 0" fill="#fff"/><path d="m334.136719 314.878906c-1.164063 1.167969-3.074219 1.167969-4.242188 0l-13.25-13.25c-1.164062-1.164062-1.164062-3.074218 0-4.242187l13.25-13.25c1.167969-1.164063 3.078125-1.164063 4.242188 0l13.25 13.25c1.167969 1.167969 1.167969 3.078125 0 4.242187zm0 0" fill="#999cad"/><path d="m372.628906 353.371094c-1.164062 1.164062-3.074218 1.164062-4.242187 0l-13.25-13.25c-1.164063-1.167969-1.164063-3.074219 0-4.242188l13.25-13.25c1.167969-1.164062 3.078125-1.164062 4.242187 0l13.25 13.25c1.167969 1.167969 1.167969 3.074219 0 4.242188zm0 0" fill="#fff"/><path d="m334.136719 392.894531c-1.164063 1.167969-3.074219 1.167969-4.242188 0l-13.25-13.25c-1.164062-1.164062-1.164062-3.074219 0-4.242187l13.25-13.25c1.167969-1.164063 3.078125-1.164063 4.242188 0l13.25 13.25c1.167969 1.167968 1.167969 3.078125 0 4.242187zm0 0" fill="#999cad"/><g fill="#333031"><path d="m232.054688 60.328125h47.894531c4.140625 0 7.5 3.359375 7.5 7.5 0 4.144531-3.359375 7.5-7.5 7.5h-47.894531c-4.144532 0-7.5-3.355469-7.5-7.5 0-4.140625 3.355468-7.5 7.5-7.5zm0 0"/><path d="m239.613281 38h32.773438c4.140625 0 7.5 3.355469 7.5 7.5s-3.359375 7.5-7.5 7.5h-32.773438c-4.140625 0-7.5-3.355469-7.5-7.5s3.359375-7.5 7.5-7.5zm0 0"/></g></svg>