<svg height="512pt" viewBox="-11 0 512 512" width="512pt" xmlns="http://www.w3.org/2000/svg"><path d="m490 267c0 135.308594-109.691406 245-245 245s-245-109.691406-245-245 109.691406-245 245-245 245 109.691406 245 245zm0 0" fill="#293d7c"/><path d="m180.5 89.695312c21.75 0 42.570312 9.15625 58.625 25.78125.1875.195313.449219.304688.71875.304688.027344 0 .058594 0 .085938-.003906.300781-.023438.570312-.183594.742187-.433594 16.617187-24.367188 41.707031-38.34375 68.828125-38.34375 7.519531 0 14.816406 1.089844 21.777344 3.132812-8-45.6875-43.582032-80.132812-86.277344-80.132812-46.707031 0-84.90625 41.222656-87.78125 93.289062 7.414062-2.335937 15.21875-3.59375 23.28125-3.59375zm0 0" fill="#91e0e8"/><path d="m178.4375 89.726562c4.039062-46.453124 36.257812-83.535156 77.042969-89.019531-3.4375-.464843-6.933594-.707031-10.480469-.707031-46.707031 0-84.90625 41.222656-87.78125 93.289062 6.777344-2.136718 13.886719-3.367187 21.21875-3.5625zm0 0" fill="#5dc1d8"/><path d="m217.066406 98.847656c6.449219-1.832031 12.21875-6.070312 15.828125-12.320312.996094-1.726563.40625-3.933594-1.320312-4.933594l-40.027344-23.109375c-1.730469-.996094-3.9375-.40625-4.933594 1.324219-5.730469 9.921875-4.347656 22.027344 2.550781 30.386718 9.71875 1.097657 19.136719 4.039063 27.902344 8.652344zm0 0" fill="#231f20"/><path d="m262.15625 92.839844c13.117188-9.6875 28.40625-15.203125 44.503906-15.785156.855469-5.757813-.144531-11.828126-3.273437-17.246094-.996094-1.730469-3.207031-2.320313-4.933594-1.324219l-40.027344 23.109375c-1.730469 1-2.320312 3.207031-1.324219 4.933594 1.390626 2.410156 3.105469 4.519531 5.054688 6.3125zm0 0" fill="#231f20"/><path d="m214.9375 82.449219c0 4.390625-3.554688 7.945312-7.945312 7.945312-4.386719 0-7.941407-3.554687-7.941407-7.945312 0-4.386719 3.554688-7.941407 7.941407-7.941407 4.390624 0 7.945312 3.554688 7.945312 7.941407zm0 0" fill="#ffd00d"/><path d="m290.316406 79.398438c-1.199218-2.871094-4.03125-4.890626-7.335937-4.890626-4.386719 0-7.945313 3.554688-7.945313 7.941407 0 .828125.128906 1.628906.363282 2.378906 4.792968-2.308594 9.785156-4.128906 14.917968-5.429687zm0 0" fill="#ffd00d"/><path d="m239.125 115.476562c.082031.085938.183594.148438.289062.199219.691407-.558593 1.234376-1.292969 1.542969-2.167969.484375-1.386718 1.640625-2.394531 3.027344-2.734374 3.605469-4.695313 7.550781-8.941407 11.769531-12.71875l-6.109375-10.585938c-.351562-.605469-.753906-1.136719-1.195312-1.578125-.925781-.917969-2.148438-1.421875-3.449219-1.421875s-2.527344.503906-3.449219 1.421875c-.445312.441406-.851562.972656-1.199219 1.578125l-11.082031 19.195312c3.445313 2.652344 6.742188 5.585938 9.855469 8.8125zm0 0" fill="#231f20"/><path d="m177.628906 399.554688-.605468-1.070313-.921876.8125c-.152343.132813-.304687.253906-.457031.386719v102.34375c4.941407 1.457031 9.941407 2.765625 15 3.914062v-88.5c-4.871093-5.296875-9.25-11.277344-13.015625-17.886718zm0 0" fill="#445ea0"/><path d="m122.761719 222.816406c29.675781 0 57.011719 16.90625 73.125 45.222656.148437.261719.40625.441407.703125.492188.054687.007812.109375.015625.164062.015625.242188 0 .480469-.089844.660156-.25 15.214844-13.417969 33.433594-20.5625 52.722657-20.714844-16.972657-18.007812-27.601563-43.605469-27.601563-71.976562 0-22.582031 6.734375-43.410157 18.039063-60.050781-15.722657-16.65625-36.84375-26.855469-60.074219-26.855469-48.582031 0-87.964844 44.59375-87.964844 99.601562 0 13.527344 2.386719 26.425781 6.699219 38.183594 7.488281-2.386719 15.375-3.667969 23.527344-3.667969zm0 0" fill="#ff9518"/><path d="m118.558594 222.933594c-3.535156-10.789063-5.484375-22.449219-5.484375-34.632813 0-51.074219 33.953125-93.164062 77.695312-98.921875-3.367187-.445312-6.792969-.683594-10.269531-.683594-48.582031 0-87.964844 44.59375-87.964844 99.605469 0 13.527344 2.386719 26.421875 6.699219 38.183594 6.195313-1.972656 12.660156-3.1875 19.324219-3.550781zm0 0" fill="#ef8318"/><path d="m170.058594 196.257812c-.980469 0-1.882813-.519531-2.371094-1.367187-.492188-.851563-.492188-1.894531 0-2.742187l12.242188-21.207032c.492187-.847656 1.394531-1.371094 2.375-1.371094.976562 0 1.882812.523438 2.371093 1.371094l12.246094 21.207032c.488281.847656.488281 1.894531 0 2.742187-.492187.847656-1.394531 1.367187-2.375 1.367187zm0 0" fill="#231f20"/><path d="m178.367188 194.890625c-.488282-.851563-.488282-1.894531 0-2.742187l9.277343-16.066407-2.96875-5.140625c-.488281-.847656-1.394531-1.371094-2.371093-1.371094-.980469 0-1.882813.523438-2.375 1.371094l-12.242188 21.207032c-.492188.847656-.492188 1.894531 0 2.742187.488281.847656 1.390625 1.367187 2.371094 1.367187h10.679687c-.976562 0-1.882812-.523437-2.371093-1.367187zm0 0"/><path d="m222.535156 175.605469c0-7.433594.734375-14.675781 2.117188-21.640625-.339844-.148438-.707032-.226563-1.085938-.226563-.757812 0-1.484375.316407-2.003906.871094l-17.023438 18.285156c-.746093.796875-.945312 1.960938-.507812 2.960938.433594 1 1.421875 1.644531 2.511719 1.644531h16.015625c-.011719-.632812-.023438-1.261719-.023438-1.894531zm0 0" fill="#231f20"/><path d="m214.226562 175.855469c-.433593-1-.234374-2.164063.507813-2.960938l8.421875-9.046875c.351562-3.347656.855469-6.644531 1.496094-9.886718-.339844-.144532-.707032-.222657-1.085938-.222657-.757812 0-1.484375.316407-2.003906.871094l-17.023438 18.285156c-.746093.796875-.945312 1.957031-.507812 2.960938.433594 1 1.421875 1.644531 2.511719 1.644531h10.195312c-1.089843 0-2.074219-.644531-2.511719-1.644531zm0 0"/><path d="m124.011719 177.5c-1.089844 0-2.074219-.644531-2.507813-1.644531-.4375-1-.238281-2.164063.503906-2.960938l17.023438-18.285156c.519531-.554687 1.246094-.871094 2.007812-.871094.761719 0 1.488282.316407 2.003907.871094l17.023437 18.285156c.746094.796875.945313 1.960938.507813 2.960938-.433594 1-1.421875 1.644531-2.511719 1.644531zm0 0" fill="#231f20"/><path d="m131.699219 175.855469c-.4375-1-.234375-2.164063.503906-2.960938l13.933594-14.960937-3.09375-3.324219c-.515625-.554687-1.242188-.871094-2.003907-.871094-.761718 0-1.488281.316407-2.007812.871094l-17.023438 18.285156c-.742187.796875-.941406 1.960938-.503906 2.960938.433594 1 1.417969 1.644531 2.507813 1.644531h10.199219c-1.089844 0-2.078126-.644531-2.511719-1.644531zm0 0"/><path d="m143.726562 225.707031c7.628907 2.136719 14.921876 5.425781 21.707032 9.757813l.257812-.308594c.5-.589844 1.316406-.589844 1.8125 0l3.578125 4.238281c1.339844 1.015625 2.652344 2.078125 3.941407 3.179688.117187-.070313.234374-.144531.332031-.261719l6.042969-7.15625c.496093-.589844 1.3125-.589844 1.8125 0l6.042968 7.15625c.492188.589844 1.3125.589844 1.808594 0l6.042969-7.15625c.496093-.589844 1.3125-.589844 1.808593 0l7.644532 9.058594c.5.585937 1.265625.546875 1.703125-.089844l16.667969-24.324219c.4375-.640625.382812-1.636719-.125-2.222656l-4.917969-5.691406c-.503907-.582031-1.328125-.582031-1.832031 0l-5.5 6.363281c-.503907.582031-1.332032.582031-1.835938 0l-5.496094-6.363281c-.503906-.582031-1.332031-.582031-1.835937 0l-5.496094 6.363281c-.507813.582031-1.332031.582031-1.835937 0l-5.5-6.363281c-.503907-.582031-1.328126-.582031-1.835938 0l-5.496094 6.363281c-.503906.582031-1.332031.582031-1.835937 0l-5.496094-6.363281c-.503906-.582031-1.332031-.582031-1.835937 0l-5.5 6.363281c-.503907.582031-1.328126.582031-1.832032 0l-5.5-6.363281c-.503906-.582031-1.328125-.582031-1.835937 0l-5.496094 6.363281c-.503906.582031-1.332031.582031-1.835937 0l-5.496094-6.363281c-.503906-.582031-1.332032-.582031-1.835938 0l-4.917968 5.691406c-.507813.585937-.5625 1.582031-.125 2.222656zm0 0" fill="#231f20"/><path d="m143.726562 225.707031c4.984376 1.394531 9.828126 3.285157 14.476563 5.636719l-7.910156-11.542969c-.433594-.640625-.378907-1.636719.125-2.222656l.527343-.609375-4.390624-5.082031c-.503907-.582031-1.328126-.582031-1.835938 0l-4.917969 5.691406c-.503906.585937-.5625 1.582031-.125 2.222656zm0 0"/><path d="m302 425.867188v79.449218c5.0625-1.203125 10.066406-2.5625 15-4.078125v-91.199219c-4.492188 5.996094-9.53125 11.292969-15 15.828126zm0 0" fill="#445ea0"/><path d="m250.757812 247.566406c16.648438 0 32.828126 5.355469 46.792969 15.480469.171875.125.375.191406.585938.191406.054687 0 .109375-.007812.167969-.015625.261718-.042968.5-.195312.652343-.414062 16.617188-23.859375 41.507813-37.546875 68.285157-37.546875 5.984374 0 11.832031.691406 17.480468 2.003906 8.085938-15.0625 12.742188-32.746094 12.742188-51.660156 0-55.011719-39.386719-99.605469-87.964844-99.605469-48.582031 0-87.964844 44.59375-87.964844 99.605469 0 28.308593 10.429688 53.855469 27.175782 71.992187.679687-.019531 1.359374-.03125 2.046874-.03125zm0 0" fill="#fe3745"/><path d="m250.757812 247.566406c7.269532 0 14.457032 1.023438 21.402344 3.019532-18.433594-18.257813-30.089844-45.070313-30.089844-74.980469 0-51.078125 33.953126-93.167969 77.699219-98.925781-3.371093-.445313-6.792969-.679688-10.269531-.679688-48.582031 0-87.964844 44.59375-87.964844 99.605469 0 28.308593 10.433594 53.859375 27.179688 71.992187.675781-.019531 1.355468-.03125 2.042968-.03125zm0 0" fill="#ea2a3d"/><path d="m256.152344 174.457031c-11.242188-6.492187-15.109375-20.921875-8.617188-32.167969 1.402344-2.433593 4.515625-3.265624 6.949219-1.863281l40.152344 23.183594c2.433593 1.402344 3.265625 4.519531 1.859375 6.949219-6.492188 11.246094-20.921875 15.113281-32.164063 8.621094zm0 0" fill="#fff"/><path d="m273.15625 180.644531-8.179688-4.722656c-11.246093-6.492187-15.113281-20.925781-8.621093-32.167969.347656-.597656.796875-1.097656 1.308593-1.492187l-3.179687-1.835938c-2.433594-1.402343-5.546875-.570312-6.949219 1.863281-6.492187 11.246094-2.625 25.675782 8.617188 32.167969l8.179687 4.722657c3.902344 2.253906 8.191407 3.257812 12.394531 3.140624-1.214843-.457031-2.410156-1.007812-3.570312-1.675781zm0 0" fill="#eef6ff"/><path d="m362.847656 174.457031c11.246094-6.492187 15.109375-20.921875 8.617188-32.167969-1.40625-2.433593-4.515625-3.265624-6.949219-1.863281l-40.152344 23.183594c-2.433593 1.402344-3.265625 4.519531-1.859375 6.949219 6.492188 11.246094 20.921875 15.113281 32.167969 8.621094zm0 0" fill="#fff"/><path d="m362.851562 174.4375c-11.246093 6.492188-25.675781 2.625-32.167968-8.621094-1.375-2.382812-.597656-5.402344 1.714844-6.847656l-8.035157 4.640625c-2.433593 1.402344-3.265625 4.519531-1.859375 6.949219 6.492188 11.246094 20.921875 15.113281 32.167969 8.621094l8.175781-4.722657c.199219-.113281.386719-.234375.582032-.355469zm0 0" fill="#eef6ff"/><path d="m280.824219 241.730469h38.246093c12.195313-9.226563 26.3125-14.816407 41.214844-16.148438.75-2.296875 1.160156-4.742187 1.160156-7.289062v-3.75c0-12.945313-10.492187-23.4375-23.4375-23.4375h-57.1875c-12.941406 0-23.4375 10.492187-23.4375 23.4375v3.75c.003907 12.941406 10.496094 23.4375 23.441407 23.4375zm0 0" fill="#ff9f60"/><path d="m267.941406 218.292969v-3.753907c0-1.726562.191406-3.410156.546875-5.03125l-4.878906-10.863281c-3.859375 4.175781-6.222656 9.761719-6.222656 15.894531v3.753907c0 12.941406 10.492187 23.433593 23.4375 23.433593h1.40625c0-.609374.042969-1.210937.109375-1.808593-8.457032-3.535157-14.398438-11.886719-14.398438-21.625zm0 0" fill="#ff8d4d"/><path d="m338.007812 191.105469h-57.183593c-6.804688 0-12.933594 2.902343-17.214844 7.535156l5.351563 11.917969c.355468.792968 1.148437 1.304687 2.019531 1.304687.871093 0 1.660156-.511719 2.019531-1.304687l7.589844-16.90625 7.589844 16.90625c.355468.792968 1.148437 1.304687 2.019531 1.304687.871093 0 1.664062-.511719 2.019531-1.304687l7.589844-16.90625 7.589844 16.90625c.359374.792968 1.148437 1.304687 2.019531 1.304687.871093 0 1.660156-.511719 2.019531-1.304687l7.59375-16.90625 7.589844 16.90625c.355468.792968 1.144531 1.304687 2.019531 1.304687.871094 0 1.660156-.511719 2.015625-1.304687l7.589844-16.90625 7.59375 16.90625c.355468.792968 1.144531 1.304687 2.019531 1.304687.871094 0 1.660156-.511719 2.019531-1.304687l5.351563-11.917969c-4.289063-4.632813-10.414063-7.535156-17.222657-7.535156zm0 0" fill="#fff"/><path d="m333.84375 232.769531c-2.867188-4.210937-7.699219-6.980469-13.175781-6.980469-4.394531 0-8.367188 1.777344-11.253907 4.652344-2.882812-2.875-6.855468-4.652344-11.246093-4.652344-8.804688 0-15.9375 7.140626-15.9375 15.941407h36.839843c4.664063-3.53125 9.609376-6.53125 14.773438-8.960938zm0 0" fill="#b7092b"/><path d="m259.671875 158.570312c0 6.230469 5.050781 11.28125 11.28125 11.28125s11.28125-5.050781 11.28125-11.28125c0-.773437-.078125-1.523437-.222656-2.253906l-14.628907-8.445312c-4.480468 1.496094-7.710937 5.714844-7.710937 10.699218zm0 0" fill="#231f20"/><path d="m336.597656 158.570312c0 6.230469 5.050782 11.28125 11.28125 11.28125 6.234375 0 11.28125-5.050781 11.28125-11.28125 0-4.945312-3.183594-9.136718-7.605468-10.660156l-14.75 8.515625c-.128907.691407-.207032 1.410157-.207032 2.144531zm0 0" fill="#231f20"/><path d="m376.480469 434.347656h-13.21875c-.292969 0-.585938-.019531-.875-.046875v47.792969c5.113281-2.796875 10.117187-5.769531 15-8.910156v-38.886719c-.296875.03125-.597657.050781-.90625.050781zm0 0" fill="#445ea0"/><path d="m367.242188 422.472656c-4.183594 0-8.292969-.34375-12.316407-.992187-.703125 1.320312-1.105469 2.824219-1.105469 4.425781 0 5.214844 4.230469 9.441406 9.445313 9.441406h13.21875c5.214844 0 9.441406-4.230468 9.441406-9.441406 0-1.980469-.613281-3.816406-1.65625-5.335938-5.507812 1.242188-11.203125 1.902344-17.027343 1.902344zm0 0" fill="#ef8318"/><path d="m367.242188 224.265625c-28.375 0-53.605469 15.214844-69.691407 38.828125 24.140625 17.542969 40.167969 48.226562 40.167969 83.078125 0 23.015625-6.992188 44.214844-18.691406 61.011719 13.847656 10.292968 30.410156 16.289062 48.214844 16.289062 48.582031 0 87.964843-44.59375 87.964843-99.605468-.003906-55.011719-39.386719-99.601563-87.964843-99.601563zm0 0" fill="#ff9518"/><path d="m326.359375 394.847656c-2.171875 4.324219-4.625 8.449219-7.332031 12.335938 13.847656 10.292968 30.410156 16.289062 48.214844 16.289062 3.519531 0 6.984374-.242187 10.398437-.695312-19.886719-2.65625-37.726563-12.832032-51.28125-27.929688zm0 0" fill="#ef8318"/><path d="m311.199219 275.351562c13.441406-27.226562 37.839843-46.578124 66.441406-50.390624-3.414063-.457032-6.878906-.695313-10.398437-.695313-28.375 0-53.605469 15.214844-69.691407 38.828125 4.910157 3.566406 9.476563 7.679688 13.648438 12.257812zm0 0" fill="#ef8318"/><path d="m356.800781 331.824219c-.980469 0-1.886719-.519531-2.371093-1.371094-.492188-.847656-.492188-1.890625 0-2.738281l12.242187-21.207032c.488281-.847656 1.394531-1.371093 2.375-1.371093.976563 0 1.882813.523437 2.371094 1.371093l12.242187 21.207032c.488282.847656.488282 1.894531 0 2.738281-.488281.851563-1.394531 1.371094-2.371094 1.371094zm0 0" fill="#231f20"/><path d="m365.367188 330.453125c-.488282-.847656-.488282-1.890625 0-2.738281l9.148437-15.84375-3.097656-5.363282c-.492188-.847656-1.398438-1.371093-2.375-1.371093-.980469 0-1.882813.523437-2.371094 1.371093l-12.246094 21.207032c-.488281.847656-.488281 1.894531 0 2.738281.488281.851563 1.394531 1.371094 2.371094 1.371094h10.941406c-.976562 0-1.882812-.519531-2.371093-1.371094zm0 0"/><path d="m393.28125 313.066406c-1.089844 0-2.074219-.644531-2.511719-1.644531-.433593-1-.234375-2.164063.507813-2.960937l17.023437-18.285157c.523438-.554687 1.246094-.871093 2.007813-.871093.761718 0 1.484375.316406 2.003906.871093l17.023438 18.285157c.746093.796874.945312 1.960937.507812 2.960937-.433594 1-1.421875 1.644531-2.511719 1.644531zm0 0" fill="#231f20"/><path d="m401.226562 311.421875c-.433593-1-.234374-2.160156.507813-2.960937l13.804687-14.820313-3.222656-3.460937c-.519531-.558594-1.246094-.875-2.007812-.875-.757813 0-1.484375.316406-2.003906.875l-17.023438 18.28125c-.746094.800781-.945312 1.960937-.507812 2.960937.433593 1 1.421874 1.644531 2.511718 1.644531h10.453125c-1.089843 0-2.074219-.644531-2.511719-1.644531zm0 0"/><path d="m346.808594 308.460938-17.023438-18.28125c-.515625-.558594-1.242187-.875-2.003906-.875s-1.488281.316406-2.007812.875l-2.125 2.28125c3.679687 6.394531 6.71875 13.304687 9.023437 20.605468h12.132813c1.089843 0 2.078124-.644531 2.511718-1.644531.4375-1 .238282-2.160156-.507812-2.960937zm0 0" fill="#231f20"/><path d="m411.546875 353.144531-4.917969-5.691406c-.507812-.582031-1.332031-.582031-1.835937 0l-5.5 6.363281c-.503907.582032-1.328125.582032-1.832031 0l-5.5-6.363281c-.503907-.582031-1.328126-.582031-1.835938 0l-5.496094 6.363281c-.507812.582032-1.328125.582032-1.835937 0l-5.496094-6.363281c-.507813-.582031-1.332031-.582031-1.835937 0l-5.5 6.363281c-.503907.582032-1.328126.582032-1.832032 0l-5.5-6.363281c-.503906-.582031-1.332031-.582031-1.835937 0l-5.496094 6.363281c-.507813.582032-1.332031.582032-1.835937 0l-5.496094-6.363281c-.507813-.582031-1.332032-.582031-1.835938 0l-5.5 6.363281c-.503906.582032-1.328125.582032-1.835937 0l-1.25-1.449218c-.304688 5.53125-1.007813 10.941406-2.085938 16.191406l7.632813 11.132812c.4375.636719 1.199218.675782 1.695312.089844l7.648438-9.054688c.496094-.589843 1.3125-.589843 1.808594 0l6.042968 7.152344c.496094.589844 1.316406.589844 1.8125 0l6.042969-7.152344c.496094-.589843 1.3125-.589843 1.8125 0l6.039063 7.152344c.496093.589844 1.3125.589844 1.808593 0l6.042969-7.152344c.5-.589843 1.3125-.589843 1.8125 0l7.644531 9.054688c.5.585938 1.265625.546875 1.699219-.089844l16.671875-24.324218c.433594-.640626.378906-1.636719-.125-2.222657zm0 0" fill="#231f20"/><path d="m337.242188 356.515625c-.378907 4.09375-.976563 8.113281-1.785157 12.042969l7.632813 11.132812c.4375.636719 1.199218.675782 1.695312.089844l4.636719-5.492188zm0 0"/><path d="m132 431.898438h-13.21875c-.265625 0-.523438-.015626-.78125-.039063v44.695313c4.890625 2.96875 9.894531 5.769531 15 8.398437v-53.121094c-.328125.039063-.660156.066407-1 .066407zm0 0" fill="#445ea0"/><path d="m122.761719 420.023438c-4.183594 0-8.292969-.34375-12.316407-.992188-.703124 1.320312-1.105468 2.824219-1.105468 4.425781 0 5.214844 4.226562 9.441407 9.441406 9.441407h13.21875c5.214844 0 9.441406-4.226563 9.441406-9.441407 0-1.980469-.613281-3.816406-1.65625-5.335937-5.507812 1.246094-11.199218 1.902344-17.023437 1.902344zm0 0" fill="#37c47a"/><path d="m163.792969 346.171875c0-31.523437 13.113281-59.636719 33.480469-77.695313-15.566407-28.027343-43.117188-46.660156-74.511719-46.660156-48.582031 0-87.964844 44.59375-87.964844 99.605469 0 55.007813 39.382813 99.601563 87.964844 99.601563 20.714843 0 39.757812-8.113282 54.789062-21.683594-8.703125-15.351563-13.757812-33.601563-13.757812-53.167969zm0 0" fill="#60d882"/><path d="m55.070312 321.421875c0-51.125 34.023438-93.25 77.828126-98.941406-3.328126-.433594-6.710938-.664063-10.140626-.664063-48.582031 0-87.964843 44.59375-87.964843 99.605469 0 55.007813 39.382812 99.601563 87.964843 99.601563 3.429688 0 6.8125-.226563 10.140626-.660157-43.804688-5.691406-77.828126-47.816406-77.828126-98.941406zm0 0" fill="#37c47a"/><path d="m69.410156 320.273438c-11.242187-6.492188-15.109375-20.921876-8.617187-32.167969 1.402343-2.433594 4.519531-3.265625 6.949219-1.863281l40.152343 23.183593c2.433594 1.402344 3.265625 4.515625 1.859375 6.949219-6.492187 11.246094-20.917968 15.113281-32.164062 8.621094zm0 0" fill="#fff"/><path d="m87.949219 324.996094-8.179688-4.722656c-11.21875-6.476563-15.09375-20.855469-8.664062-32.089844l-3.363281-1.941406c-2.433594-1.402344-5.546876-.570313-6.949219 1.863281-6.492188 11.246093-2.625 25.675781 8.617187 32.167969l8.183594 4.722656c5.316406 3.070312 11.347656 3.820312 16.914062 2.570312-2.25-.507812-4.457031-1.359375-6.558593-2.570312zm0 0" fill="#eef6ff"/><path d="m182 285.871094c-1.351562-.476563-2.890625-.398438-4.226562.371094l-40.152344 23.183593c-2.433594 1.402344-3.265625 4.515625-1.859375 6.949219 6.050781 10.480469 18.996093 14.550781 29.832031 9.800781 2.722656-14.945312 8.441406-28.65625 16.40625-40.304687zm0 0" fill="#fff"/><path d="m166.417969 322.109375c-9.144531 1.175781-18.535157-3.097656-23.425781-11.566406-.71875-1.242188-.84375-2.660157-.480469-3.941407l-4.890625 2.824219c-2.433594 1.402344-3.265625 4.515625-1.859375 6.949219 6.050781 10.480469 18.996093 14.550781 29.832031 9.800781.246094-1.367187.523438-2.722656.824219-4.066406zm0 0" fill="#eef6ff"/><path d="m163.792969 346.171875c0-1.855469.050781-3.699219.140625-5.53125-3.652344-2.351563-8-3.71875-12.664063-3.71875h-57.1875c-12.941406 0-23.4375 10.492187-23.4375 23.433594v3.753906c0 12.941406 10.492188 23.433594 23.4375 23.433594h57.1875c7.039063 0 13.351563-3.109375 17.648438-8.023438-3.3125-10.417969-5.125-21.648437-5.125-33.347656zm0 0" fill="#ff9f60"/><path d="m80.9375 364.109375v-3.753906c0-1.863281.226562-3.675781.636719-5.414063l-4.707031-10.480468c-3.859376 4.175781-6.222657 9.761718-6.222657 15.894531v3.753906c0 12.941406 10.492188 23.433594 23.4375 23.433594h1.40625c0-.578125.035157-1.148438.09375-1.710938-8.585937-3.480469-14.644531-11.890625-14.644531-21.722656zm0 0" fill="#ff8d4d"/><path d="m163.792969 346.171875c0-1.855469.050781-3.703125.140625-5.535156-3.652344-2.351563-8-3.714844-12.664063-3.714844h-57.1875c-6.804687 0-12.933593 2.902344-17.214843 7.535156l5.351562 11.914063c.355469.796875 1.148438 1.308594 2.019531 1.308594.871094 0 1.660157-.511719 2.019531-1.308594l7.589844-16.902344 7.589844 16.902344c.359375.796875 1.148438 1.308594 2.019531 1.308594.871094 0 1.664063-.511719 2.019531-1.308594l7.589844-16.902344 7.589844 16.902344c.359375.796875 1.148438 1.308594 2.019531 1.308594.871094 0 1.664063-.511719 2.019531-1.308594l7.59375-16.902344 7.589844 16.902344c.355469.796875 1.144532 1.308594 2.019532 1.308594.871093 0 1.660156-.511719 2.015624-1.308594l7.59375-16.902344 7.589844 16.902344c.355469.796875 1.144532 1.308594 2.019532 1.308594.871093 0 1.660156-.511719 2.019531-1.308594l.953125-2.125c-.195313-2.664063-.296875-5.355469-.296875-8.074219zm0 0" fill="#ffd782"/><path d="m133.925781 371.605469c-4.394531 0-8.367187 1.777343-11.25 4.652343-2.886719-2.875-6.859375-4.652343-11.25-4.652343-8.804687 0-15.9375 7.136719-15.9375 15.9375h54.371094c0-8.800781-7.132813-15.9375-15.933594-15.9375zm0 0" fill="#ffd782"/><path d="m72.929688 304.386719c0 6.230469 5.050781 11.28125 11.285156 11.28125 6.226562 0 11.277344-5.050781 11.277344-11.28125 0-.773438-.078126-1.523438-.222657-2.25l-14.628906-8.449219c-4.480469 1.496094-7.710937 5.714844-7.710937 10.699219zm0 0" fill="#0f9390"/><path d="m172.382812 303.460938c-.371093-4.535157-3.425781-8.308594-7.570312-9.734376l-14.746094 8.515626c-.132812.695312-.210937 1.410156-.210937 2.144531 0 6.230469 5.054687 11.28125 11.285156 11.28125 3.078125 0 5.863281-1.234375 7.894531-3.230469.988282-3.066406 2.105469-6.0625 3.347656-8.976562zm0 0" fill="#0f9390"/><path d="m257.363281 456.648438h-13.21875c-.300781 0-.597656-.015626-.890625-.046876v55.375c.582032.003907 1.160156.023438 1.746094.023438 4.445312 0 8.863281-.125 13.253906-.359375v-55.039063c-.289062.03125-.589844.046876-.890625.046876zm0 0" fill="#445ea0"/><path d="m250.757812 444.773438c-5.011718 0-9.921874-.488282-14.703124-1.414063-.851563 1.417969-1.351563 3.074219-1.351563 4.847656 0 5.214844 4.230469 9.441407 9.441406 9.441407h13.21875c5.214844 0 9.441407-4.226563 9.441407-9.441407 0-1.773437-.496094-3.429687-1.351563-4.847656-4.777344.925781-9.6875 1.414063-14.695313 1.414063zm0 0" fill="#d9eafc"/><path d="m338.71875 346.171875c0-55.007813-39.382812-99.605469-87.960938-99.605469-48.582031 0-87.964843 44.597656-87.964843 99.605469 0 55.011719 39.382812 99.605469 87.964843 99.605469 48.578126 0 87.960938-44.59375 87.960938-99.605469zm0 0" fill="#eef6ff"/><path d="m183.074219 346.171875c0-51.125 34.019531-93.246094 77.820312-98.941406-3.328125-.433594-6.707031-.664063-10.140625-.664063-48.578125 0-87.960937 44.597656-87.960937 99.605469 0 55.011719 39.382812 99.605469 87.960937 99.605469 3.433594 0 6.8125-.230469 10.140625-.664063-43.800781-5.695312-77.820312-47.816406-77.820312-98.941406zm0 0" fill="#d9eafc"/><path d="m202.148438 359.089844c-12.761719-7.367188-17.144532-23.742188-9.78125-36.503906.996093-1.726563 3.203124-2.320313 4.933593-1.320313l40.027344 23.109375c1.730469.996094 2.320313 3.207031 1.320313 4.933594-7.363282 12.757812-23.738282 17.148437-36.5 9.78125zm0 0" fill="#231f20"/><path d="m212.355469 359.089844c-12.328125-7.117188-16.835938-22.640625-10.488281-35.1875l-4.566407-2.636719c-1.726562-1-3.933593-.40625-4.929687 1.320313-7.367188 12.761718-2.984375 29.136718 9.777344 36.503906 5.792968 3.34375 12.328124 4.257812 18.429687 3.074218-2.820313-.550781-5.597656-1.558593-8.222656-3.074218zm0 0"/><path d="m299.359375 359.089844c-12.757813 7.367187-29.136719 2.980468-36.503906-9.78125-.996094-1.726563-.402344-3.9375 1.324219-4.933594l40.027343-23.109375c1.726563-.996094 3.9375-.40625 4.933594 1.320313 7.367187 12.761718 2.976563 29.136718-9.78125 36.503906zm0 0" fill="#231f20"/><path d="m272.144531 343.644531c-.761719-1.316406-.59375-2.910156.292969-4.035156l-8.257812 4.765625c-1.726563 1-2.316407 3.207031-1.320313 4.933594 7.367187 12.761718 23.742187 17.148437 36.503906 9.78125 1.808594-1.042969 3.4375-2.273438 4.902344-3.644532-11.917969 4.257813-25.574219-.464843-32.121094-11.800781zm0 0"/><path d="m220.695312 345.230469c0 4.386719-3.558593 7.945312-7.945312 7.945312s-7.945312-3.558593-7.945312-7.945312 3.558593-7.945313 7.945312-7.945313 7.945312 3.558594 7.945312 7.945313zm0 0" fill="#ffd00d"/><path d="m296.679688 345.230469c0 4.386719-3.558594 7.945312-7.945313 7.945312s-7.945313-3.558593-7.945313-7.945312 3.558594-7.945313 7.945313-7.945313 7.945313 3.558594 7.945313 7.945313zm0 0" fill="#ffd00d"/><path d="m259.414062 379.566406c-2.074218 0-3.929687-1.316406-4.617187-3.277344-.601563-1.71875-2.226563-2.871093-4.039063-2.871093-1.820312 0-3.445312 1.152343-4.042968 2.871093-.691406 1.960938-2.546875 3.277344-4.621094 3.277344h-3.617188c-.699218 0-1.363281-.082031-1.964843-.246094-2.589844-.703124-4.140625-3.382812-3.453125-5.972656.160156-.605468.417968-1.21875.769531-1.832031l12.277344-21.269531c.351562-.601563.753906-1.136719 1.199219-1.578125.921874-.917969 2.148437-1.421875 3.449218-1.421875 1.300782 0 2.527344.503906 3.449219 1.421875.445313.441406.847656.976562 1.195313 1.578125l12.28125 21.269531c.351562.613281.609374 1.226563.769531 1.832031.6875 2.589844-.863281 5.269532-3.449219 5.972656-.605469.164063-1.265625.246094-1.964844.246094zm0 0" fill="#231f20"/><path d="m243.160156 373.351562c.160156-.605468.421875-1.222656.773438-1.832031l11.871094-20.566406-.40625-.703125c-.347657-.605469-.75-1.140625-1.195313-1.578125-.921875-.917969-2.144531-1.425781-3.445313-1.425781-1.304687 0-2.53125.507812-3.453124 1.425781-.441407.4375-.847657.972656-1.195313 1.578125l-12.28125 21.269531c-.351563.609375-.609375 1.226563-.769531 1.832031-.683594 2.589844.863281 5.269532 3.453125 5.96875.601562.164063 1.265625.246094 1.964843.246094h3.617188c1.09375 0 2.125-.375 2.957031-1.007812-1.597656-1.152344-2.417969-3.203125-1.890625-5.207032zm0 0"/></svg>