<svg height="511pt" viewBox="-10 1 511 511.999" width="511pt" xmlns="http://www.w3.org/2000/svg"><path d="m490.5 267c0 135.308594-109.691406 245-245 245s-245-109.691406-245-245c0-135.3125 109.691406-245 245-245s245 109.6875 245 245zm0 0" fill="#ff9518"/><path d="m437.222656 262h-145.722656v-24.527344c15.820312-2.796875 27.878906-16.632812 27.878906-33.246094v-24.230468c23.203125-18.109375 37.117188-46.058594 37.117188-76.035156v-7.519532c0-53.179687-43.265625-96.441406-96.441406-96.441406h-29.109376c-53.179687 0-96.441406 43.261719-96.441406 96.441406v7.519532c0 29.976562 13.914063 57.925781 37.117188 76.035156v24.230468c0 16.613282 12.058594 30.449219 27.878906 33.246094v24.527344h-145.722656c-9.117188 0-16.574219 7.457031-16.574219 16.574219v117.441406c43.210937 69.617187 120.332031 115.984375 208.296875 115.984375 87.960938 0 165.085938-46.367188 208.296875-115.984375v-117.441406c0-9.117188-7.460937-16.574219-16.574219-16.574219zm0 0" fill="#231f20"/><path d="m225 289.0625c0-3.429688.855469-6.65625 2.351562-9.5h-98.851562c-6.074219 0-11 4.925781-11 11s4.925781 11 11 11h100.789062c-2.679687-3.464844-4.289062-7.792969-4.289062-12.5zm0 0" fill="#fff"/><path d="m362.5 279.5625h-98.851562c1.492187 2.84375 2.351562 6.070312 2.351562 9.5 0 4.707031-1.613281 9.035156-4.289062 12.5h100.789062c6.074219 0 11-4.925781 11-11s-4.925781-11-11-11zm0 0" fill="#fff"/><path d="m137.5 290.5625c0-6.074219 4.925781-11 11-11h-20c-6.074219 0-11 4.925781-11 11s4.925781 11 11 11h20c-6.074219 0-11-4.925781-11-11zm0 0" fill="#eef6ff"/><g fill="#fff"><path d="m436.21875 420.773438c-2.753906-2.625-6.472656-4.242188-10.578125-4.242188-.625 0-1.238281.039062-1.84375.113281v-107.445312c.605469.074219 1.21875.113281 1.84375.113281 8.492187 0 15.375-6.882812 15.375-15.375s-6.882813-15.375-15.375-15.375c-5.394531 0-10.140625 2.78125-12.882813 6.984375-2.746093-4.203125-7.488281-6.984375-12.882812-6.984375-8.492188 0-15.375 6.882812-15.375 15.375s6.882812 15.375 15.375 15.375c.625 0 1.238281-.039062 1.84375-.113281v107.445312c-.605469-.074219-1.21875-.113281-1.84375-.113281-8.492188 0-15.375 6.882812-15.375 15.375s6.882812 15.375 15.375 15.375c5.394531 0 10.136719-2.78125 12.882812-6.984375.761719 1.164063 1.683594 2.210937 2.726563 3.125 7.371094-7.105469 14.292969-14.671875 20.734375-22.648437zm0 0"/><path d="m90.640625 309.3125c8.492187 0 15.375-6.882812 15.375-15.375 0-8.488281-6.882813-15.375-15.375-15.375-5.394531 0-10.136719 2.78125-12.882813 6.984375-2.742187-4.203125-7.488281-6.984375-12.882812-6.984375-8.492188 0-15.375 6.886719-15.375 15.375 0 8.492188 6.882812 15.375 15.375 15.375.625 0 1.238281-.039062 1.84375-.113281v107.445312c-.605469-.074219-1.21875-.113281-1.84375-.113281-3.972656 0-7.578125 1.515625-10.300781 3.988281 6.429687 7.988281 13.347656 15.566407 20.714843 22.683594.9375-.863281 1.769532-1.835937 2.46875-2.90625 2.746094 4.207031 7.484376 6.988281 12.882813 6.988281 8.492187 0 15.375-6.886718 15.375-15.378906s-6.882813-15.375-15.375-15.375c-.625 0-1.238281.039062-1.84375.113281v-107.445312c.605469.074219 1.21875.113281 1.84375.113281zm0 0"/><path d="m285.605469 197.960938h-80.214844c-4.84375 0-8.769531-3.929688-8.769531-8.777344v20.546875c0 4.847656 3.925781 8.773437 8.769531 8.773437h80.214844c4.847656 0 8.773437-3.925781 8.773437-8.773437v-20.546875c0 4.847656-3.925781 8.777344-8.773437 8.777344zm0 0"/></g><path d="m217.5 209.730469v-11.769531h-12.105469c-4.847656 0-8.773437-3.929688-8.773437-8.777344v20.546875c0 4.847656 3.925781 8.773437 8.773437 8.773437h20.878907c-4.847657.003906-8.773438-3.925781-8.773438-8.773437zm0 0" fill="#d9eafc"/><path d="m260.054688 25h-29.109376c-39.457031 0-71.441406 31.984375-71.441406 71.4375v7.523438c0 27.011718 15 50.519531 37.117188 62.660156v4.21875c0 7.265625 5.890625 13.15625 13.160156 13.15625 5.269531 0 9.804688-3.105469 11.90625-7.582032 2.101562 4.476563 6.636719 7.582032 11.90625 7.582032s9.804688-3.105469 11.90625-7.582032c2.101562 4.476563 6.632812 7.582032 11.90625 7.582032 5.269531 0 9.804688-3.105469 11.90625-7.582032 2.101562 4.476563 6.636719 7.582032 11.90625 7.582032 7.269531 0 13.160156-5.890625 13.160156-13.15625v-4.21875c22.117188-12.144532 37.113282-35.648438 37.113282-62.660156v-7.523438c.003906-39.453125-31.980469-71.4375-71.4375-71.4375zm-48.394532 87.105469c-12.113281 0-21.933594-9.820313-21.933594-21.933594s9.820313-21.933594 21.933594-21.933594c12.113282 0 21.933594 9.820313 21.933594 21.933594s-9.820312 21.933594-21.933594 21.933594zm49.023438 26.070312c-.628906.164063-1.3125.25-2.039063.25h-3.757812c-2.15625 0-4.082031-1.339843-4.796875-3.335937-.625-1.75-2.308594-2.929688-4.199219-2.929688-1.886719 0-3.570313 1.179688-4.195313 2.929688-.714843 1.996094-2.640624 3.335937-4.796874 3.335937h-3.757813c-.726563 0-1.414063-.085937-2.039063-.25-2.6875-.714843-4.296874-3.441406-3.582031-6.082031.164063-.617188.433594-1.242188.796875-1.863281l12.753906-21.660157c.363282-.617187.777344-1.160156 1.242188-1.609374.957031-.933594 2.230469-1.449219 3.578125-1.449219 1.355469 0 2.628906.515625 3.582031 1.449219.464844.449218.878906.992187 1.246094 1.609374l12.75 21.660157c.363281.621093.632812 1.246093.800781 1.867187.707031 2.632813-.898437 5.363282-3.585937 6.078125zm18.65625-26.070312c-12.113282 0-21.933594-9.820313-21.933594-21.933594s9.820312-21.933594 21.933594-21.933594c12.113281 0 21.933594 9.820313 21.933594 21.933594s-9.820313 21.933594-21.933594 21.933594zm0 0" fill="#fff"/><path d="m214.613281 170.839844v-4.21875c-22.117187-12.140625-37.113281-35.648438-37.113281-62.660156v-7.523438c0-39.453125 31.984375-71.4375 71.441406-71.4375h-17.996094c-39.457031 0-71.441406 31.984375-71.441406 71.4375v7.523438c0 27.011718 15 50.519531 37.117188 62.660156v4.21875c0 7.265625 5.890625 13.15625 13.160156 13.15625 3.484375 0 6.640625-1.363282 8.992188-3.574219-2.554688-2.402344-4.160157-5.800781-4.160157-9.582031zm0 0" fill="#d9eafc"/><path d="m267.5 248c0 5.5-4.5 10-10 10h-24c-5.5 0-10-4.5-10-10v-7c0-5.5 4.5-10 10-10h24c5.5 0 10 4.5 10 10zm0 0" fill="#fff"/><path d="m240.5 248v-7c0-5.5 4.5-10 10-10h-17c-5.5 0-10 4.5-10 10v7c0 5.5 4.5 10 10 10h17c-5.5 0-10-4.5-10-10zm0 0" fill="#d9eafc"/><path d="m267 289.0625c0 11.875-9.625 21.5-21.5 21.5s-21.5-9.625-21.5-21.5 9.625-21.5 21.5-21.5 21.5 9.625 21.5 21.5zm0 0" fill="#eef6ff"/><path d="m234.5 289.0625c0-10.058594 6.917969-18.480469 16.25-20.828125-1.683594-.421875-3.433594-.671875-5.25-.671875-11.875 0-21.5 9.625-21.5 21.5 0 11.871094 9.625 21.5 21.5 21.5 1.816406 0 3.566406-.25 5.25-.671875-9.332031-2.347656-16.25-10.769531-16.25-20.828125zm0 0" fill="#d9eafc"/><path d="m136.644531 353.777344c-4.296875-4.296875-4.296875-11.261719 0-15.558594 2.371094-2.367188 5.550781-3.421875 8.648438-3.179688-2.871094-2.125-5.621094-4.480468-8.222657-7.082031-4.296874-4.292969-11.257812-4.292969-15.554687 0-4.296875 4.296875-4.296875 11.261719 0 15.558594 6.582031 6.582031 13.902344 11.972656 21.6875 16.21875-2.25-1.871094-4.445313-3.84375-6.558594-5.957031zm0 0" fill="#eef6ff"/><path d="m369.484375 327.960938c-4.300781-4.296876-11.261719-4.296876-15.558594 0-23.847656 23.847656-60.183593 27.742187-88.140625 11.730468.125.921875.214844 1.855469.214844 2.808594 0 7.230469-3.777344 13.589844-9.449219 17.238281 14.164063 7.726563 29.886719 11.613281 45.617188 11.613281 24.375 0 48.753906-9.277343 67.3125-27.835937 4.296875-4.296875 4.296875-11.261719.003906-15.554687zm0 0" fill="#fff"/><path d="m225 342.5c0-.953125.085938-1.886719.214844-2.808594-27.957032 16.011719-64.292969 12.117188-88.140625-11.730468-4.296875-4.296876-11.261719-4.296876-15.558594 0-4.296875 4.292968-4.296875 11.257812 0 15.554687 18.5625 18.558594 42.933594 27.839844 67.316406 27.839844 15.726563 0 31.449219-3.886719 45.613281-11.617188-5.671874-3.652343-9.445312-10.007812-9.445312-17.238281zm0 0" fill="#fff"/><path d="m267 342.5c0 11.875-9.625 21.5-21.5 21.5s-21.5-9.625-21.5-21.5 9.625-21.5 21.5-21.5 21.5 9.625 21.5 21.5zm0 0" fill="#eef6ff"/><path d="m234.5 342.5c0-10.0625 6.917969-18.480469 16.25-20.828125-1.683594-.425781-3.433594-.671875-5.25-.671875-11.875 0-21.5 9.625-21.5 21.5 0 11.871094 9.625 21.5 21.5 21.5 1.816406 0 3.566406-.25 5.25-.675781-9.332031-2.34375-16.25-10.765625-16.25-20.824219zm0 0" fill="#d9eafc"/><path d="m136.644531 407.421875c-4.296875-4.292969-4.296875-11.261719 0-15.554687 2.371094-2.371094 5.550781-3.425782 8.648438-3.179688-2.871094-2.128906-5.621094-4.484375-8.222657-7.082031-4.296874-4.296875-11.257812-4.296875-15.554687 0-4.296875 4.292969-4.296875 11.257812 0 15.554687 6.582031 6.582032 13.902344 11.972656 21.6875 16.222656-2.25-1.871093-4.445313-3.847656-6.558594-5.960937zm0 0" fill="#eef6ff"/><path d="m225 396.144531c0-.953125.085938-1.886719.214844-2.804687-27.957032 16.007812-64.292969 12.113281-88.140625-11.734375-4.296875-4.296875-11.261719-4.296875-15.558594 0s-4.296875 11.261719 0 15.554687c18.5625 18.5625 42.933594 27.839844 67.316406 27.839844 15.726563 0 31.449219-3.886719 45.617188-11.617188-5.675781-3.648437-9.449219-10.003906-9.449219-17.238281zm0 0" fill="#fff"/><path d="m369.484375 381.605469c-4.300781-4.296875-11.261719-4.296875-15.558594 0-23.847656 23.847656-60.183593 27.742187-88.140625 11.734375.125.917968.214844 1.851562.214844 2.804687 0 7.234375-3.777344 13.589844-9.449219 17.238281 14.164063 7.730469 29.886719 11.617188 45.617188 11.617188 24.378906 0 48.757812-9.28125 67.316406-27.839844 4.292969-4.296875 4.292969-11.261718 0-15.554687zm0 0" fill="#fff"/><path d="m267 396.144531c0 11.875-9.625 21.5-21.5 21.5s-21.5-9.625-21.5-21.5 9.625-21.5 21.5-21.5 21.5 9.625 21.5 21.5zm0 0" fill="#eef6ff"/><path d="m234.5 396.144531c0-10.058593 6.917969-18.480469 16.25-20.828125-1.683594-.421875-3.433594-.671875-5.25-.671875-11.875 0-21.5 9.625-21.5 21.5s9.625 21.5 21.5 21.5c1.816406 0 3.566406-.25 5.25-.671875-9.332031-2.347656-16.25-10.769531-16.25-20.828125zm0 0" fill="#d9eafc"/><path d="m136.644531 460.859375c-4.296875-4.296875-4.296875-11.261719 0-15.554687 2.371094-2.371094 5.550781-3.425782 8.648438-3.183594-2.871094-2.125-5.621094-4.480469-8.222657-7.082032-4.296874-4.292968-11.257812-4.292968-15.554687 0-4.296875 4.296876-4.296875 11.261719 0 15.558594 6.582031 6.582032 13.902344 11.972656 21.6875 16.21875-2.25-1.871094-4.445313-3.84375-6.558594-5.957031zm0 0" fill="#eef6ff"/><path d="m225 449.582031c0-.953125.085938-1.886719.214844-2.804687-27.957032 16.007812-64.292969 12.113281-88.140625-11.734375-4.296875-4.296875-11.261719-4.296875-15.558594 0s-4.296875 11.261719 0 15.554687c18.5625 18.5625 42.933594 27.839844 67.316406 27.839844 15.726563 0 31.449219-3.886719 45.613281-11.617188-5.671874-3.648437-9.445312-10.003906-9.445312-17.238281zm0 0" fill="#fff"/><path d="m369.484375 435.042969c-4.300781-4.296875-11.261719-4.296875-15.558594 0-23.847656 23.847656-60.183593 27.742187-88.140625 11.734375.125.917968.214844 1.851562.214844 2.804687 0 7.234375-3.777344 13.589844-9.449219 17.238281 14.164063 7.730469 29.886719 11.617188 45.617188 11.617188 24.375 0 48.753906-9.28125 67.3125-27.839844 4.296875-4.292968 4.296875-11.257812.003906-15.554687zm0 0" fill="#fff"/><path d="m267 449.582031c0 11.875-9.625 21.5-21.5 21.5s-21.5-9.625-21.5-21.5 9.625-21.5 21.5-21.5 21.5 9.625 21.5 21.5zm0 0" fill="#eef6ff"/><path d="m234.5 449.582031c0-10.0625 6.917969-18.480469 16.25-20.828125-1.683594-.421875-3.433594-.671875-5.25-.671875-11.875 0-21.5 9.625-21.5 21.5 0 11.871094 9.625 21.5 21.5 21.5 1.816406 0 3.566406-.25 5.25-.671875-9.332031-2.347656-16.25-10.769531-16.25-20.828125zm0 0" fill="#d9eafc"/></svg>