<svg height="512pt" viewBox="0 -8 512 511" width="512pt" xmlns="http://www.w3.org/2000/svg"><path d="m501 251.496094c0 135.3125-109.691406 245-245 245s-245-109.6875-245-245c0-135.308594 109.691406-245 245-245s245 109.691406 245 245zm0 0" fill="#ffaf10"/><path d="m100.09375 440.496094c42.359375 34.984375 96.679688 56 155.90625 56s113.546875-21.015625 155.90625-56zm0 0" fill="#293d7c"/><path d="m307.023438 162.902344h53.105468l4.191406-28.523438c.832032-5.671875-3.175781-10.308594-8.902343-10.308594h-43.4375c-5.726563 0-9.765625 4.640626-8.964844 10.316407zm0 0" fill="#bf7e52"/><path d="m307.023438 162.902344h20.570312l-4.007812-28.515625c-.796876-5.675781 3.238281-10.316407 8.96875-10.316407h-20.570313c-5.730469 0-9.765625 4.640626-8.96875 10.316407zm0 0" fill="#a5683f"/><path d="m263.15625 409.996094h141.035156c2.90625-2.507813 5.210938-5.640625 6.359375-9.046875l34.402344-101.667969c2.753906-8.140625-.757813-18.824219-7.808594-23.742188l-56.085937-39.128906c-7.050782-4.917968-14.152344-15.847656-15.78125-24.285156l-2.730469-14.136719c-.019531-.09375-.046875-.183593-.066406-.273437h-57.609375c-.019532.09375-.050782.183594-.066406.273437l-2.730469 14.132813c-1.628907 8.441406-8.730469 19.367187-15.78125 24.285156l-2.003907 1.398438 7.117188 13.007812c11.394531 18.699219 17.402344 40.148438 17.402344 62.066406 0 37.203125-17.734375 72.636719-47.546875 95.304688.59375.636718 1.230469 1.242187 1.894531 1.8125zm0 0" fill="#37c47a"/><path d="m304.867188 197.714844c-.019532.09375-.046876.183594-.066407.273437l-2.726562 14.132813c-1.632813 8.441406-8.730469 19.367187-15.78125 24.285156l-2.003907 1.398438 7.117188 13.007812c1.019531 1.667969 1.976562 3.367188 2.90625 5.078125l12.527344-8.738281c7.046875-4.917969 14.148437-15.847656 15.777344-24.285156l2.730468-14.132813c.832032-4.316406 3.433594-8.226563 6.925782-11.019531zm0 0" fill="#2bb381"/><path d="m308.566406 305.496094c.152344 2.453125.238282 4.914062.238282 7.382812 0 32.199219-13.28125 63.074219-36.179688 85.496094 1.414062 1.3125 3.394531 2.378906 4.804688 2.378906h112.484374c2.183594 0 5.730469-2.542968 6.429688-4.609375l30.671875-90.648437zm0 0" fill="#293d7c"/><path d="m377.96875 188.296875c0 5.730469-4.691406 10.417969-10.417969 10.417969h-67.75c-5.730469 0-10.417969-4.6875-10.417969-10.417969v-15.976563c0-5.726562 4.6875-10.417968 10.417969-10.417968h67.75c5.726563 0 10.417969 4.6875 10.417969 10.417968zm0 0" fill="#159e97"/><path d="m310 188.296875v-15.976563c0-5.726562 4.6875-10.417968 10.417969-10.417968h-20.617188c-5.730469 0-10.417969 4.6875-10.417969 10.417968v15.976563c0 5.730469 4.6875 10.417969 10.417969 10.417969h20.617188c-5.730469 0-10.417969-4.6875-10.417969-10.417969zm0 0" fill="#0f9390"/><path d="m346.914062 280.402344c0 8.230468-6.671874 14.902344-14.902343 14.902344s-14.90625-6.671876-14.90625-14.902344c0-8.230469 6.675781-14.90625 14.90625-14.90625s14.902343 6.675781 14.902343 14.90625zm0 0" fill="#60d882"/><path d="m383.105469 332.59375c0 8.234375-6.671875 14.90625-14.902344 14.90625s-14.902344-6.671875-14.902344-14.90625c0-8.230469 6.671875-14.902344 14.902344-14.902344s14.902344 6.671875 14.902344 14.902344zm0 0" fill="#2cb0f2"/><path d="m365.105469 251.402344c0 6.023437-4.878907 10.902344-10.902344 10.902344s-10.902344-4.878907-10.902344-10.902344c0-6.023438 4.878907-10.90625 10.902344-10.90625s10.902344 4.882812 10.902344 10.90625zm0 0" fill="#60d882"/><path d="m344.105469 367.59375c0 6.023438-4.878907 10.90625-10.902344 10.90625s-10.902344-4.882812-10.902344-10.90625c0-6.019531 4.878907-10.902344 10.902344-10.902344s10.902344 4.882813 10.902344 10.902344zm0 0" fill="#2cb0f2"/><path d="m227.683594 58.496094v-30.277344c0-5.5-4.5-10-10-10h-59.453125c-5.5 0-10 4.5-10 10v30.277344zm0 0" fill="#bf7e52"/><path d="m169 58.496094v-30.277344c0-5.5 4.5-10 10-10h-20.769531c-5.5 0-10 4.5-10 10v30.277344zm0 0" fill="#a5683f"/><path d="m292.285156 250.332031-66.421875-121.335937h-75.800781l-66.425781 121.335937c-11.472657 18.816407-17.53125 40.441407-17.53125 62.546875 0 40.035156 19.691406 75.585938 49.957031 97.617188h143.789062c30.265626-22.03125 49.953126-57.582032 49.953126-97.617188 0-22.105468-6.058594-43.730468-17.519532-62.546875zm0 0" fill="#924eb5"/><path d="m137.324219 155.898438 17.578125 21.234374 26.355468-48.136718h-31.195312l-14.050781 25.664062c.472656.355469.917969.765625 1.3125 1.238282zm0 0" fill="#794091"/><path d="m130.238281 395.496094h-9.117187c-25.140625-20.074219-40.015625-50.613282-40.015625-82.617188 0-19.351562 5.304687-38.277344 15.339843-54.738281.121094-.199219.238282-.402344.347657-.605469l2.757812-5.039062h14.007813c.421875-.722656.835937-1.449219 1.273437-2.164063l32.320313-59.035156-18.777344-22.6875-44.738281 81.722656c-11.472657 18.816407-17.53125 40.441407-17.53125 62.546875 0 40.035156 19.691406 75.585938 49.957031 97.617188h31.195312c-6.136718-4.464844-11.828124-9.496094-17.019531-15zm0 0" fill="#794091"/><path d="m279.472656 258.136719c-.121094-.199219-.234375-.398438-.347656-.601563l-2.757812-5.039062h-31.304688c-2.832031 15.191406-11.640625 28.773437-24.75 37.585937-1.488281 1.003907-2.476562 2.597657-2.707031 4.378907l-.722657 5.625c-1.28125 9.925781-9.792968 17.410156-19.800781 17.410156h-18.25c-10.007812 0-18.515625-7.484375-19.796875-17.410156l-.726562-5.625c-.226563-1.785157-1.214844-3.378907-2.707032-4.378907-13.109374-8.8125-21.917968-22.394531-24.75-37.585937h-31.300781l-2.757812 5.039062c-.109375.203125-.226563.402344-.347657.601563-10.035156 16.460937-15.339843 35.390625-15.339843 54.742187 0 32.003906 14.875 62.542969 40.015625 82.617188h133.667968c25.140626-20.074219 40.015626-50.613282 40.015626-82.617188 0-19.347656-5.300782-38.277344-15.332032-54.742187zm0 0" fill="#f87eab"/><path d="m102 312.878906c0-19.351562 5.304688-38.277344 15.339844-54.738281.121094-.199219.234375-.402344.347656-.605469l2.757812-5.035156h-20.894531l-2.757812 5.035156c-.109375.203125-.226563.40625-.347657.605469-10.035156 16.460937-15.339843 35.390625-15.339843 54.738281 0 32.003906 14.875 62.542969 40.015625 82.617188h20.894531c-25.140625-20.074219-40.015625-50.613282-40.015625-82.617188zm0 0" fill="#e26693"/><path d="m228.304688 129.996094h-80.695313c-4.144531 0-7.5-3.355469-7.5-7.5 0-4.140625 3.355469-7.5 7.5-7.5h80.695313c4.144531 0 7.5 3.359375 7.5 7.5 0 4.144531-3.355469 7.5-7.5 7.5zm0 0" fill="#bf7e52"/><path d="m231.617188 100.777344h-87.320313c-2.480469 1.222656-4.1875 3.769531-4.1875 6.71875 0 4.144531 3.355469 7.5 7.5 7.5h80.695313c4.144531 0 7.5-3.355469 7.5-7.5 0-2.949219-1.707032-5.496094-4.1875-6.71875zm0 0" fill="#8e5e3d"/><path d="m250.683594 91.777344c0 5.5-4.5 10-10 10h-105.453125c-5.5 0-10-4.5-10-10v-24.28125c0-5.5 4.5-10 10-10h105.453125c5.5 0 10 4.5 10 10zm0 0" fill="#794091"/><path d="m156.542969 91.777344v-24.28125c0-5.5 4.5-10 10-10h-31.3125c-5.5 0-10 4.5-10 10v24.28125c0 5.5 4.5 10 10 10h31.3125c-5.5 0-10-4.5-10-10zm0 0" fill="#62317c"/><path d="m164.484375 188.714844-27.160156-32.816406c-2.640625-3.1875-7.367188-3.636719-10.558594-.992188-3.191406 2.640625-3.636719 7.367188-.996094 10.558594l25.78125 31.148437c3.925781-3.167969 8.269531-5.832031 12.933594-7.898437zm0 0" fill="#b7092b"/><path d="m249.148438 154.902344c-3.191407-2.640625-7.917969-2.195313-10.558594.996094l-27.164063 32.8125c4.667969 2.070312 9.011719 4.734374 12.933594 7.898437l25.785156-31.144531c2.640625-3.191406 2.195313-7.917969-.996093-10.5625zm0 0" fill="#b7092b"/><path d="m178.832031 318.496094c-10.507812 0-19.445312-7.855469-20.789062-18.28125l-.722657-5.628906c-.191406-1.492188-1.019531-2.832032-2.273437-3.671876-16.390625-11.019531-26.179687-29.367187-26.179687-49.082031 0-32.585937 26.507812-59.089843 59.089843-59.089843s59.089844 26.503906 59.089844 59.089843c0 19.714844-9.78125 38.058594-26.175781 49.082031-1.25.839844-2.082032 2.179688-2.273438 3.675782l-.722656 5.625c-1.347656 10.425781-10.285156 18.28125-20.792969 18.28125zm0 0" fill="#fff"/><path d="m178.996094 300.214844-.722656-5.628906c-.191407-1.492188-1.019532-2.832032-2.277344-3.671876-11.121094-7.480468-19.199219-18.335937-23.242188-30.699218-5.015625-3.402344-8.3125-9.148438-8.3125-15.664063 0-5.707031 2.539063-10.808593 6.53125-14.277343 4.71875-23.679688 23.625-42.296876 47.460938-46.582032-3.402344-.613281-6.902344-.949218-10.476563-.949218-32.582031 0-59.089843 26.507812-59.089843 59.09375 0 19.710937 9.789062 38.058593 26.175781 49.078124 1.253906.839844 2.085937 2.179688 2.273437 3.675782l.726563 5.625c1.34375 10.425781 10.28125 18.28125 20.789062 18.28125h18.25c.457031 0 .902344-.03125 1.351563-.0625-9.910156-.640625-18.152344-8.246094-19.4375-18.21875zm0 0" fill="#d9eafc"/><path d="m182.28125 244.550781c0 10.449219-8.46875 18.917969-18.917969 18.917969s-18.921875-8.46875-18.921875-18.917969 8.472656-18.921875 18.921875-18.921875 18.917969 8.472656 18.917969 18.921875zm0 0" fill="#ea2a3d"/><path d="m155 244.550781c0-8.617187 5.765625-15.875 13.640625-18.160156-1.675781-.488281-3.445313-.761719-5.277344-.761719-10.449219 0-18.921875 8.46875-18.921875 18.921875 0 10.445313 8.472656 18.917969 18.921875 18.917969 1.832031 0 3.601563-.273438 5.277344-.761719-7.875-2.285156-13.640625-9.542969-13.640625-18.15625zm0 0" fill="#b7092b"/><path d="m231.476562 244.550781c0 10.445313-8.472656 18.917969-18.921874 18.917969-10.449219 0-18.917969-8.472656-18.917969-18.917969 0-10.453125 8.46875-18.921875 18.917969-18.921875 10.449218 0 18.921874 8.46875 18.921874 18.921875zm0 0" fill="#ea2a3d"/><path d="m204 244.550781c0-8.652343 5.8125-15.929687 13.738281-18.1875-1.648437-.46875-3.382812-.734375-5.183593-.734375-10.449219 0-18.917969 8.46875-18.917969 18.921875 0 10.445313 8.46875 18.917969 18.917969 18.917969 1.800781 0 3.535156-.269531 5.183593-.738281-7.925781-2.253907-13.738281-9.53125-13.738281-18.179688zm0 0" fill="#b7092b"/><path d="m148.957031 336.496094c0 8.839844-7.164062 16-16 16-8.835937 0-16-7.160156-16-16 0-8.835938 7.164063-16 16-16 8.835938 0 16 7.164062 16 16zm0 0" fill="#e26693"/><path d="m275.957031 303.402344c0 8.230468-6.671875 14.902344-14.902343 14.902344-8.234376 0-14.90625-6.671876-14.90625-14.902344 0-8.230469 6.671874-14.90625 14.90625-14.90625 8.230468 0 14.902343 6.675781 14.902343 14.90625zm0 0" fill="#f24976"/><path d="m168.957031 366.496094c0 5.523437-4.476562 10-10 10-5.523437 0-10-4.476563-10-10 0-5.519532 4.476563-10 10-10 5.523438 0 10 4.480468 10 10zm0 0" fill="#e26693"/><path d="m248.105469 341.574219c0 6.585937-5.335938 11.921875-11.921875 11.921875-6.585938 0-11.921875-5.335938-11.921875-11.921875 0-6.585938 5.335937-11.921875 11.921875-11.921875 6.585937 0 11.921875 5.335937 11.921875 11.921875zm0 0" fill="#e26693"/><path d="m393.820312 129.84375c-1.855468 0-3.464843-1.289062-3.878906-3.101562-3.207031-14.191407-5-15.984376-19.191406-19.191407-1.816406-.414062-3.101562-2.023437-3.101562-3.878906 0-1.863281 1.289062-3.472656 3.101562-3.882813 14.191406-3.203124 15.984375-4.996093 19.191406-19.191406.410156-1.8125 2.023438-3.101562 3.878906-3.101562 1.859376 0 3.472657 1.289062 3.878907 3.101562 3.210937 14.195313 5 15.984375 19.195312 19.191406 1.8125.410157 3.101563 2.019532 3.105469 3.882813-.007812 1.855469-1.292969 3.46875-3.105469 3.878906-14.195312 3.207031-15.988281 5-19.195312 19.1875-.40625 1.816407-2.015625 3.105469-3.878907 3.105469zm0 0" fill="#fff"/><path d="m351.277344 76.84375c-2.707032 0-5.058594-1.878906-5.660156-4.523438-4.675782-20.699218-7.289063-23.316406-27.988282-27.992187-2.652344-.601563-4.523437-2.945313-4.523437-5.652344 0-2.71875 1.878906-5.066406 4.523437-5.660156 20.699219-4.675781 23.3125-7.292969 27.988282-27.996094.597656-2.644531 2.953124-4.523437 5.660156-4.519531 2.710937-.003906 5.0625 1.875 5.660156 4.519531 4.679688 20.703125 7.289062 23.316407 27.992188 27.992188 2.644531.597656 4.519531 2.941406 4.527343 5.664062-.007812 2.707031-1.882812 5.054688-4.527343 5.652344-20.703126 4.679687-23.316407 7.292969-27.992188 27.988281-.597656 2.648438-2.949219 4.527344-5.660156 4.527344zm0 0" fill="#794091"/><path d="m512 439.996094c0 2.75-2.25 5-5 5h-502c-2.75 0-5-2.25-5-5v-26c0-2.75 2.25-5 5-5h502c2.75 0 5 2.25 5 5zm0 0" fill="#2e4c89"/></svg>