<svg height="512pt" viewBox="0 -11 512 512" width="512pt" xmlns="http://www.w3.org/2000/svg"><path d="m501 245c0 135.308594-109.691406 245-245 245s-245-109.691406-245-245 109.691406-245 245-245 245 109.691406 245 245zm0 0" fill="#0f9390"/><path d="m65.207031 483.921875c-11.039062 0-20.019531-8.917969-20.019531-19.878906 0-3.632813.996094-7.1875 2.878906-10.277344l15.589844-28.476563c.308594-.566406.902344-.917968 1.546875-.917968.648437 0 1.242187.351562 1.550781.917968l15.589844 28.476563c1.886719 3.09375 2.878906 6.644531 2.878906 10.277344.003906 10.960937-8.976562 19.878906-20.015625 19.878906zm0 0" fill="#b7092b"/><path d="m58.960938 464.042969c0-3.632813.996093-7.1875 2.878906-10.277344l10.253906-18.726563-5.339844-9.75c-.308594-.566406-.902344-.914062-1.550781-.914062-.644531 0-1.238281.347656-1.546875.914062l-15.589844 28.476563c-1.882812 3.09375-2.878906 6.644531-2.878906 10.277344 0 10.960937 8.980469 19.878906 20.019531 19.878906 2.421875 0 4.734375-.449219 6.886719-1.238281-7.652344-2.796875-13.132812-10.085938-13.132812-18.640625zm0 0" fill="#a00026"/><path d="m201.296875 408.589844c-11.039063 0-20.019531-8.917969-20.019531-19.878906 0-3.632813.996094-7.1875 2.878906-10.277344l15.589844-28.476563c.308594-.566406.902344-.914062 1.550781-.914062.644531 0 1.242187.347656 1.550781.914062l15.589844 28.476563c1.882812 3.09375 2.878906 6.644531 2.878906 10.277344 0 10.960937-8.980468 19.878906-20.019531 19.878906zm0 0" fill="#b7092b"/><path d="m194 388.710938c0-3.632813.996094-7.1875 2.878906-10.277344l10.777344-19.6875-4.808594-8.789063c-.3125-.566406-.90625-.914062-1.550781-.914062-.648437 0-1.242187.347656-1.550781.914062l-15.589844 28.476563c-1.882812 3.09375-2.878906 6.644531-2.878906 10.277344 0 10.960937 8.980468 19.878906 20.019531 19.878906 2.226563 0 4.359375-.378906 6.359375-1.046875-7.925781-2.648438-13.65625-10.082031-13.65625-18.832031zm0 0" fill="#a00026"/><path d="m497 234.664062h-41.722656c2.289062 2.207032 3.722656 5.304688 3.722656 8.730469v52.578125c0 .066406-.007812.128906-.011719.195313h15.246094v1.183593c0 8.25 6.75 15 15 15h7.765625c8.25 0 15-6.75 15-15v-47.691406c0-8.246094-6.75-14.996094-15-14.996094zm0 0" fill="#2e4c89"/><path d="m497 234.664062h-41.722656c2.289062 2.207032 3.722656 5.304688 3.722656 8.730469v7.914063h38c8.25 0 15 6.75 15 15v-16.648438c0-8.246094-6.75-14.996094-15-14.996094zm0 0" fill="#293d7c"/><path d="m66.597656 234.664062v1c1.335938 11.144532 7.367188 25.644532 28.003906 33.386719 6.75 2.527344 13.734376 3.757813 21.359376 3.757813 7.925781 0 15.429687-1.300782 22.6875-2.5625 6.5-1.125 13.207031-2.285156 19.515624-2.285156 9.574219 0 17.40625 2.695312 24.648438 8.488281 10.761719 8.609375 14.089844 18.246093 17.308594 27.5625 3.1875 9.222656 6.210937 17.988281 16.550781 23.527343l2.328125 1h87.367188v-93.875zm0 0" fill="#fff"/><path d="m203.253906 312.351562c2.625 5.992188 6.277344 11.359376 13.417969 15.1875l2.328125 1h87.367188v-16.1875zm0 0" fill="#d3d1d3"/><path d="m123.5625 485c-7.820312 0-14.183594-7.070312-14.183594-15.761719v-112.273437c0-8.691406-6.363281-15.753906-14.183594-15.753906-7.816406 0-14.179687 7.0625-14.179687 15.753906v35.457031c0 8.6875-6.363281 15.757813-14.179687 15.757813-7.820313 0-14.183594-7.070313-14.183594-15.757813v-66.917969c0-3.863281-2.070313-7.4375-5.421875-9.359375-13.160157-7.546875-24.433594-18.308593-32.597657-31.132812-9.574218-15.03125-14.632812-32.441407-14.632812-50.347657h67.492188c1.09375 10.96875 6.742187 25.679688 27.460937 33.449219 6.632813 2.484375 13.503906 3.695313 21.007813 3.695313 7.835937 0 15.300781-1.296875 22.515624-2.546875 6.539063-1.132813 13.285157-2.304688 19.6875-2.304688 9.816407 0 17.847657 2.769531 25.273438 8.707031 10.988281 8.792969 14.367188 18.570313 17.628906 28.023438 3.507813 10.15625 6.820313 19.746094 20.234375 24.851562h-72.769531c-5.957031 0-10.789062 4.832032-10.789062 10.789063v129.910156c0 8.691407-6.359376 15.761719-14.179688 15.761719zm0 0" fill="#b7092b"/><path d="m66.332031 389.4375v-66.914062c0-3.867188-2.066406-7.4375-5.421875-9.359376-13.160156-7.546874-24.429687-18.3125-32.59375-31.132812-9.042968-14.195312-14.050781-30.515625-14.582031-47.367188h-13.734375c0 17.90625 5.058594 35.316407 14.632812 50.351563 8.167969 12.820313 19.4375 23.582031 32.597657 31.128906 3.351562 1.921875 5.421875 5.496094 5.421875 9.359375v66.917969c0 8.6875 6.363281 15.757813 14.183594 15.757813 3.511718 0 6.726562-1.4375 9.207031-3.796876-5.632813-2.089843-9.710938-7.992187-9.710938-14.945312zm0 0" fill="#a00026"/><path d="m446.855469 230.25h-95.957031c-4.539063 0-8.558594 2.335938-10.921876 5.859375v67.144531c2.363282 3.527344 6.382813 5.863282 10.925782 5.867188l4.269531-.007813c7.230469 0 13.144531-5.910156 13.144531-13.140625 0 7.230469 5.917969 13.148438 13.144532 13.148438h4.273437c7.226563-.007813 13.144531-5.921875 13.144531-13.148438 0 7.226563 5.917969 13.148438 13.144532 13.140625h4.269531c7.230469.007813 13.148437-5.90625 13.144531-13.144531.003906 7.234375 5.917969 13.144531 13.148438 13.152344l4.269531-.007813c7.230469 0 13.144531-5.914062 13.148437-13.140625v-52.578125c-.003906-7.230469-5.921875-13.144531-13.148437-13.144531zm0 0" fill="#ffe2b8"/><path d="m358.753906 295.972656v-52.578125c0-7.230469 5.914063-13.144531 13.144532-13.144531h-21c-4.542969 0-8.558594 2.335938-10.921876 5.863281v67.144531c2.363282 3.523438 6.382813 5.859376 10.925782 5.863282l4.269531-.003906c3.171875 0 6.085937-1.140626 8.363281-3.023438-2.914062-2.417969-4.78125-6.0625-4.78125-10.121094zm0 0" fill="#ffc987"/><path d="m340.976562 340.121094c0 5.5-4.5 10-10 10h-15.609374c-5.5 0-10-4.5-10-10v-107.328125c0-5.5 4.5-10 10-10h15.609374c5.5 0 10 4.5 10 10zm0 0" fill="#999cad"/><path d="m315.390625 340.121094v-107.328125c0-5.5 4.5-10 10-10h-10.023437c-5.5 0-10 4.5-10 10v107.328125c0 5.5 4.5 10 10 10h10.023437c-5.5 0-10-4.5-10-10zm0 0" fill="#7d8193"/><path d="m134.695312 111.632812h-84.230468c-13.757813 21.15625-24.332032 44.570313-31.054688 69.566407 7.8125-.300781 14.132813-6.644531 14.394532-14.46875h100.890624zm0 0" fill="#2e4c89"/><path d="m164.59375 111.632812v84.097657h190.457031c46.445313 0 84.09375-37.652344 84.09375-84.097657zm0 0" fill="#d3d1d3"/><path d="m425 111.632812c.148438 7.78125-2.492188 15-2.492188 15-6.871093 30.914063-34.507812 54.097657-67.457031 54.097657h-190.457031v15h190.457031c46.445313 0 84.09375-37.652344 84.09375-84.097657zm0 0" fill="#b8b6b7"/><path d="m133.695312 205.0625c0 5.5 4.5 10 10 10h11.898438c5.5 0 10-4.5 10-10v-94.0625c0-5.5-4.5-10-10-10h-11.898438c-5.5 0-10 4.5-10 10zm0 0" fill="#999cad"/><path d="m144 205.0625v-94.0625c0-5.5 4.5-10 10-10h-10.304688c-5.5 0-10 4.5-10 10v94.0625c0 5.5 4.5 10 10 10h10.304688c-5.5 0-10-4.5-10-10zm0 0" fill="#7d8193"/><g fill="#85a0dd"><path d="m112.863281 137.730469c0 6.40625-5.191406 11.601562-11.597656 11.601562s-11.601563-5.195312-11.601563-11.601562 5.195313-11.597657 11.601563-11.597657 11.597656 5.191407 11.597656 11.597657zm0 0"/><path d="m74.199219 137.730469c0 6.40625-5.195313 11.601562-11.601563 11.601562s-11.597656-5.195312-11.597656-11.601562 5.191406-11.597657 11.597656-11.597657 11.601563 5.191407 11.601563 11.597657zm0 0"/></g></svg>