<svg height="512pt" viewBox="-11 0 512 512" width="512pt" xmlns="http://www.w3.org/2000/svg"><path d="m490 267c0 135.308594-109.691406 245-245 245s-245-109.691406-245-245 109.691406-245 245-245 245 109.691406 245 245zm0 0" fill="#2da1dc"/><g fill="#794091"><path d="m93.878906 203.820312h2.433594l.277344-1c.269531-.992187.542968-1.984374.839844-2.96875.527343-1.753906 2.046874-3.003906 3.867187-3.179687 14.269531-1.402344 43.128906-5.6875 76.097656-18.601563 40.246094-15.765624 75.046875-39.5 103.433594-70.542968.851563-.929688 2.0625-1.464844 3.320313-1.464844.1875 0 .371093.011719.554687.035156 1.441406.175782 2.714844 1.046875 3.40625 2.328125 33.191406 61.417969 81.722656 81.394531 101.046875 87.132813 1.441406.429687 2.570312 1.539062 3.015625 2.976562.453125 1.453125.90625 3.015625 1.429687 4.917969l.101563.367187h2.421875c5.28125 0 10.265625 1.277344 14.679688 3.527344v-103.722656c-.003907-57.230469-46.398438-103.625-103.628907-103.625h-124.351562c-57.230469 0-103.625 46.394531-103.625 103.625v103.722656c4.410156-2.246094 9.398437-3.527344 14.679687-3.527344zm0 0"/><path d="m99.15625 294.222656-.113281-.339844h-5.164063c-5.28125 0-10.269531-1.277343-14.679687-3.523437v108.023437c0 20.210938 5.792969 39.070313 15.800781 55.011719v-72.394531c0-10.476562 8.523438-19 19-19h31.449219c-20.789063-17.59375-37.035157-40.765625-46.292969-67.777344zm0 0"/><path d="m396.121094 293.882812h-5.164063l-.113281.339844c-9.257812 27.011719-25.503906 50.183594-46.292969 67.777344h31.449219c10.476562 0 19 8.523438 19 19v72.386719c10.007812-15.941407 15.800781-34.792969 15.800781-55.003907v-108.027343c-4.410156 2.25-9.398437 3.527343-14.679687 3.527343zm0 0"/></g><path d="m93.878906 203.820312h2.433594l.277344-1c.269531-.992187.542968-1.984374.839844-2.96875.527343-1.753906 2.046874-3.003906 3.867187-3.179687 2.574219-.253906 5.636719-.605469 9.101563-1.078125v-91.96875c0-57.230469 46.394531-103.625 103.625-103.625h-31.199219c-57.230469 0-103.625 46.394531-103.625 103.625v103.722656c4.410156-2.246094 9.398437-3.527344 14.679687-3.527344zm0 0" fill="#62317c"/><path d="m99.15625 294.222656-.113281-.339844h-5.164063c-5.28125 0-10.269531-1.277343-14.679687-3.523437v108.023437c0 20.210938 5.792969 39.070313 15.800781 55.011719v-72.394531c0-9.242188 6.640625-16.960938 15.398438-18.648438v-42.917968c-4.4375-7.953125-8.210938-16.375-11.242188-25.210938zm0 0" fill="#62317c"/><path d="m105.144531 466.957031c.933594 1.054688 1.882813 2.09375 2.855469 3.109375v-1.125c-.957031-.652344-1.90625-1.320312-2.855469-1.984375zm0 0" fill="#62317c"/><path d="m376 361h-30.277344c-27.375 23.640625-62.847656 37.5-100.722656 37.5-37.871094 0-73.34375-13.859375-100.722656-37.5h-30.277344c-11 0-20 9-20 20v78.945312c41.609375 32.609376 94.035156 52.054688 151 52.054688s109.390625-19.445312 151-52.054688v-78.945312c0-11-9-20-20-20zm0 0" fill="#60d882"/><path d="m94 381v78.945312c9.464844 7.414063 19.492188 14.144532 30 20.121094v-99.066406c0-11 9-20 20-20h-30c-11 0-20 9-20 20zm0 0" fill="#37c47a"/><path d="m245 512c24.925781 0 48.984375-3.722656 71.648438-10.644531-5.363282-34.75-35.398438-61.355469-71.648438-61.355469s-66.285156 26.605469-71.644531 61.355469c22.660156 6.921875 46.71875 10.644531 71.644531 10.644531zm0 0" fill="#37c47a"/><path d="m91.382812 244.382812c0-13.9375 1.894532-27.726562 5.585938-41.0625h-3.089844c-18.191406 0-32.9375 14.746094-32.9375 32.941407v25.183593c0 18.191407 14.746094 32.9375 32.9375 32.9375h5.914063c-5.503907-15.925781-8.410157-32.796874-8.410157-50zm0 0" fill="#efb06c"/><path d="m396.121094 203.320312h-3.078125c3.6875 13.332032 5.570312 27.117188 5.570312 41.0625 0 17.203126-2.902343 34.074219-8.40625 50h5.914063c18.191406 0 32.9375-14.746093 32.9375-32.9375v-25.183593c0-18.195313-14.746094-32.941407-32.9375-32.941407zm0 0" fill="#efb06c"/><path d="m245 399c-85.253906 0-154.617188-69.359375-154.617188-154.617188 0-15.195312 2.210938-30.226562 6.566407-44.675781.585937-1.941406 2.28125-3.335937 4.296875-3.53125 14.242187-1.402343 43.050781-5.675781 75.964844-18.570312 40.175781-15.738281 74.914062-39.429688 103.25-70.414063.953124-1.042968 2.292968-1.625 3.6875-1.625.203124 0 .40625.011719.613281.035156 1.605469.199219 3.015625 1.164063 3.785156 2.585938 33.101563 61.253906 81.484375 81.171875 100.75 86.894531 1.597656.476563 2.855469 1.714844 3.351563 3.308594 4.621093 14.851563 6.964843 30.324219 6.964843 45.992187 0 85.257813-69.355469 154.617188-154.613281 154.617188zm0 0" fill="#ffe2b8"/><path d="m218 379.644531c-60.070312-21.230469-103.230469-78.578125-103.230469-145.828125 0-13.644531 1.796875-27.15625 5.316407-40.238281-7.652344 1.332031-14.066407 2.128906-18.839844 2.597656-2.015625.195313-3.710938 1.59375-4.296875 3.53125-4.355469 14.449219-6.566407 29.480469-6.566407 44.675781 0 76.046876 55.1875 139.445313 127.617188 152.253907zm0 0" fill="#ffc987"/><path d="m332.433594 163.304688c-8.929688-7.644532-17.992188-16.949219-26.617188-28.273438-10.675781-7.753906-22.886718-13.515625-36.09375-16.75-26.222656 25.59375-57.273437 45.519531-92.511718 59.324219-10.941407 4.285156-21.425782 7.617187-31.074219 10.207031-3.085938 9.820312-4.753907 20.269531-4.753907 31.109375 0 33.058594 15.480469 62.5 39.589844 81.472656 4.3125-4.320312 10.15625-6.773437 16.320313-6.773437h95.414062c6.164063 0 12.007813 2.449218 16.320313 6.773437 24.105468-18.972656 39.585937-48.414062 39.585937-81.472656 0-20.46875-5.933593-39.550781-16.179687-55.617187zm0 0" fill="#fff"/><path d="m194.058594 293.855469c-19.75-18.863281-32.058594-45.460938-32.058594-74.933594 0-13.558594 2.605469-26.5 7.339844-38.367187-8.105469 2.90625-15.894532 5.296874-23.199219 7.257812-3.089844 9.820312-4.757813 20.269531-4.757813 31.109375 0 33.058594 15.480469 62.5 39.589844 81.472656 3.546875-3.554687 8.136719-5.839843 13.085938-6.539062zm0 0" fill="#eef6ff"/><path d="m311.507812 218.921875c0 36.730469-29.777343 66.507813-66.507812 66.507813s-66.507812-29.777344-66.507812-66.507813 29.777343-66.507813 66.507812-66.507813 66.507812 29.777344 66.507812 66.507813zm0 0" fill="#159e97"/><path d="m199 218.921875c0-33.242187 24.390625-60.789063 56.253906-65.71875-3.34375-.519531-6.765625-.789063-10.253906-.789063-36.730469 0-66.507812 29.777344-66.507812 66.507813s29.777343 66.507813 66.507812 66.507813c3.488281 0 6.910156-.269532 10.253906-.789063-31.863281-4.929687-56.253906-32.476563-56.253906-65.71875zm0 0" fill="#0f9390"/><path d="m268.476562 215.101562c-10.394531 0-18.855468-8.457031-18.855468-18.855468 0-4.667969 1.71875-8.9375 4.535156-12.234375-2.921875-.765625-5.992188-1.175781-9.15625-1.175781-19.929688 0-36.085938 16.15625-36.085938 36.085937s16.15625 36.085937 36.085938 36.085937 36.085938-16.15625 36.085938-36.085937c0-2.726563-.3125-5.378906-.886719-7.933594-3.21875 2.570313-7.289063 4.113281-11.722657 4.113281zm0 0" fill="#333031"/><path d="m223 218.921875c0-17.519531 12.484375-32.117187 29.042969-35.394531-2.277344-.449219-4.632813-.691406-7.042969-.691406-19.929688 0-36.085938 16.15625-36.085938 36.085937s16.15625 36.085937 36.085938 36.085937c2.410156 0 4.765625-.242187 7.042969-.691406-16.558594-3.277344-29.042969-17.875-29.042969-35.394531zm0 0" fill="#231f20"/><path d="m288.335938 196.246094c0 10.964844-8.890626 19.855468-19.855469 19.855468-10.96875 0-19.855469-8.890624-19.855469-19.855468 0-10.96875 8.890625-19.859375 19.855469-19.859375 10.964843 0 19.855469 8.890625 19.855469 19.859375zm0 0" fill="#fff"/><path d="m311.109375 301.171875c-4.585937-5.433594-11.292969-8.550781-18.402344-8.550781h-95.414062c-7.109375 0-13.816407 3.117187-18.398438 8.546875-4.589843 5.433593-6.53125 12.570312-5.335937 19.582031 4.351562 25.542969 21.613281 45.945312 44.441406 55.066406v-19.519531l-.5-.285156c-.535156-.3125-1.035156-.609375-1.511719-.902344 8.695313-5.414063 18.691407-8.265625 29.011719-8.265625 10.316406 0 20.316406 2.851562 29.011719 8.265625-.476563.292969-.976563.589844-1.511719.902344l-.5.285156v19.519531c22.828125-9.121094 40.089844-29.523437 44.441406-55.0625 1.199219-7.015625-.746094-14.152344-5.332031-19.582031zm0 0" fill="#f24976"/><path d="m298.398438 311.898438c-1.417969-1.679688-3.492188-2.644532-5.691407-2.644532h-95.414062c-2.199219 0-4.273438.964844-5.695313 2.644532-1.414062 1.679687-2.019531 3.886718-1.644531 6.058593 2.949219 17.289063 13.578125 31.523438 28.046875 39.488281v-1.144531l-.496094-.289062c-.535156-.3125-1.039062-.609375-1.515625-.902344 8.695313-5.414063 18.695313-8.265625 29.011719-8.265625 10.320312 0 20.316406 2.851562 29.015625 8.265625-.480469.292969-.980469.59375-1.515625.902344l-.5.285156v1.148437c14.46875-7.964843 25.101562-22.199218 28.046875-39.492187.371094-2.171875-.230469-4.375-1.648437-6.054687zm0 0" fill="#b7092b"/><path d="m214.132812 355.109375c3.992188-2.644531 8.339844-4.777344 12.945313-6.332031-8.332031-8.019532-14.207031-18.664063-16.28125-30.824219-.164063-.964844-.125-1.933594.078125-2.863281l-15.738281 18.644531c4.394531 8.734375 10.984375 16.070313 18.996093 21.375zm0 0" fill="#a00026"/><path d="m300.046875 317.953125c.371094-2.171875-.230469-4.375-1.648437-6.058594-1.417969-1.679687-3.492188-2.640625-5.6875-2.640625h-95.414063c-2.203125 0-4.277344.960938-5.695313 2.644532-1.417968 1.679687-2.019531 3.882812-1.648437 6.054687.957031 5.621094 2.734375 10.914063 5.1875 15.777344l16.011719-18.96875c.867187-1.03125 2.296875-1.03125 3.164062 0l12.96875 15.359375c.871094 1.027344 2.296875 1.027344 3.167969 0l12.96875-15.359375c.867187-1.03125 2.292969-1.03125 3.164063 0l12.964843 15.359375c.875 1.027344 2.296875 1.027344 3.167969 0l12.96875-15.359375c.867188-1.03125 2.296875-1.03125 3.164062 0l16.011719 18.96875c2.445313-4.867188 4.226563-10.15625 5.183594-15.777344zm0 0" fill="#fff"/><path d="m275.867188 355.109375c-8.882813-5.878906-19.511719-9.265625-30.867188-9.265625s-21.984375 3.386719-30.867188 9.265625c.9375.617187 1.894532 1.203125 2.867188 1.765625v43.125c0 15.464844 12.535156 28 28 28s28-12.535156 28-28v-43.125c.972656-.5625 1.933594-1.148438 2.867188-1.765625zm0 0" fill="#e26693"/><path d="m245 345.84375c-2.539062 0-5.042969.179688-7.5.507812v32.148438c0 4.144531 3.355469 7.5 7.5 7.5s7.5-3.355469 7.5-7.5v-32.148438c-2.457031-.328124-4.960938-.507812-7.5-.507812zm0 0" fill="#f87eab"/></svg>