<svg height="512pt" viewBox="-11 0 512 512" width="512pt" xmlns="http://www.w3.org/2000/svg"><path d="m490 267c0 135.308594-109.691406 245-245 245s-245-109.691406-245-245 109.691406-245 245-245 245 109.691406 245 245zm0 0" fill="#794091"/><path d="m490 267c0 135.308594-109.691406 245-245 245s-245-109.691406-245-245 109.691406-245 245-245 245 109.691406 245 245zm0 0" fill="#794091"/><path d="m404.355469 224.902344h-318.710938c-34.097656 26.425781-56.054687 67.773437-56.054687 114.253906v28.378906c0 6.214844.394531 12.339844 1.152344 18.347656 41.828124 75.214844 122.09375 126.117188 214.257812 126.117188s172.433594-50.902344 214.257812-126.117188c.761719-6.007812 1.152344-12.132812 1.152344-18.347656v-28.378906c0-46.480469-21.953125-87.828125-56.054687-114.253906zm0 0" fill="#ff9518"/><path d="m142.898438 224.902344c-21.847657 26.425781-35.914063 67.773437-35.914063 114.253906v28.378906c0 55.621094 20.140625 103.890625 49.660156 128.03125 27.410157 10.605469 57.203125 16.433594 88.355469 16.433594s60.941406-5.828125 88.355469-16.433594c29.515625-24.140625 49.660156-72.410156 49.660156-128.03125v-28.378906c0-46.480469-14.066406-87.828125-35.914063-114.253906zm0 0" fill="#ef8318"/><path d="m200.148438 224.902344c-9.597657 26.425781-15.773438 67.773437-15.773438 114.253906v28.378906c0 73.183594 15.316406 133.644532 35.179688 143.152344 8.367187.867188 16.851562 1.3125 25.445312 1.3125s17.082031-.445312 25.445312-1.308594c19.863282-9.507812 35.179688-69.972656 35.179688-143.15625v-28.378906c0-46.480469-6.179688-87.824219-15.777344-114.25h-89.699218zm0 0" fill="#db722c"/><g fill="#231f20"><path d="m214.238281 348.722656c-2.453125 0-4.726562-1.316406-5.957031-3.445312-1.230469-2.125-1.230469-4.75 0-6.878906l30.757812-53.277344c1.230469-2.128906 3.503907-3.441406 5.960938-3.441406s4.730469 1.3125 5.957031 3.441406l30.761719 53.277344c1.230469 2.128906 1.230469 4.753906 0 6.878906-1.230469 2.132812-3.5 3.445312-5.960938 3.445312zm0 0"/><path d="m305.886719 319.339844c-2.734375 0-5.214844-1.625-6.308594-4.136719s-.59375-5.429687 1.273437-7.433594l42.769532-45.933593c1.300781-1.398438 3.121094-2.191407 5.035156-2.191407s3.734375.792969 5.035156 2.191407l42.769532 45.933593c1.863281 2.003907 2.363281 4.921875 1.273437 7.433594-1.09375 2.511719-3.574219 4.136719-6.3125 4.136719zm0 0"/><path d="m98.574219 319.339844c-2.734375 0-5.214844-1.625-6.308594-4.136719s-.59375-5.429687 1.273437-7.433594l42.765626-45.933593c1.304687-1.398438 3.125-2.191407 5.035156-2.191407 1.914062 0 3.734375.792969 5.035156 2.191407l42.773438 45.933593c1.863281 2.003907 2.363281 4.921875 1.269531 7.433594s-3.570313 4.136719-6.308594 4.136719zm0 0"/><path d="m339.0625 380.449219c-1.078125-1.246094-2.84375-1.246094-3.921875 0l-14.496094 16.78125c-1.078125 1.25-2.84375 1.25-3.921875 0l-14.5-16.78125c-1.078125-1.246094-2.84375-1.246094-3.921875 0l-14.496093 16.78125c-1.078126 1.25-2.84375 1.25-3.921876 0l-14.5-16.78125c-1.078124-1.246094-2.84375-1.246094-3.921874 0l-14.5 16.78125c-1.078126 1.25-2.84375 1.25-3.921876 0l-14.5-16.78125c-1.078124-1.246094-2.84375-1.246094-3.921874 0l-14.496094 16.78125c-1.078125 1.25-2.84375 1.25-3.921875.003906l-14.503907-16.785156c-1.078124-1.246094-2.84375-1.246094-3.921874 0l-14.496094 16.78125c-1.078125 1.25-2.84375 1.25-3.921875 0l-14.5-16.78125c-1.078125-1.246094-2.84375-1.246094-3.921875 0l-13.046875 15.101562c-1.078125 1.25-1.195313 3.386719-.265625 4.746094l42.476562 61.984375c.933594 1.359375 2.566406 1.441406 3.628906.183594l19.882813-23.550782c1.0625-1.261718 2.804687-1.261718 3.871094 0l15.855469 18.777344c1.066406 1.257813 2.808593 1.257813 3.871093 0l15.855469-18.777344c1.066406-1.261718 2.808594-1.261718 3.871094 0l15.855468 18.777344c1.066407 1.257813 2.808594 1.257813 3.871094 0l15.855469-18.777344c1.0625-1.261718 2.804687-1.261718 3.871094 0l19.882812 23.550782c1.0625 1.257812 2.695313 1.175781 3.628907-.183594l42.472656-61.984375c.933594-1.359375.816406-3.496094-.265625-4.746094zm0 0"/></g><path d="m239.640625 345.277344c-1.230469-2.125-1.230469-4.75 0-6.882813l21.039063-36.4375-9.722657-16.839843c-1.226562-2.125-3.5-3.4375-5.957031-3.4375s-4.730469 1.3125-5.960938 3.4375l-30.757812 53.277343c-1.230469 2.132813-1.230469 4.757813 0 6.882813 1.230469 2.128906 3.503906 3.441406 5.957031 3.441406h31.363281c-2.457031.003906-4.734374-1.3125-5.960937-3.441406zm0 0"/><path d="m331.273438 315.203125c-1.09375-2.511719-.59375-5.429687 1.273437-7.433594l31.957031-34.320312-10.8125-11.609375c-1.300781-1.398438-3.125-2.195313-5.035156-2.195313-1.914062 0-3.734375.796875-5.039062 2.195313l-42.765626 45.929687c-1.867187 2.003907-2.367187 4.925781-1.273437 7.433594 1.09375 2.511719 3.574219 4.136719 6.308594 4.136719h31.695312c-2.734375 0-5.214843-1.625-6.308593-4.136719zm0 0"/><path d="m123.273438 315.203125c-1.09375-2.511719-.589844-5.429687 1.273437-7.433594l32.296875-34.691406-10.46875-11.242187c-1.300781-1.398438-3.121094-2.191407-5.035156-2.191407-1.910156 0-3.730469.792969-5.035156 2.191407l-42.765626 45.933593c-1.867187 2.003907-2.367187 4.921875-1.273437 7.433594s3.574219 4.136719 6.308594 4.136719h31.011719c-2.734376 0-5.21875-1.625-6.3125-4.136719zm0 0"/><path d="m168.628906 400.296875c-.785156-1.148437-.816406-2.839844-.160156-4.09375l-13.613281-15.753906c-1.078125-1.246094-2.84375-1.246094-3.921875 0l-13.042969 15.101562c-1.078125 1.25-1.199219 3.386719-.269531 4.746094l42.476562 61.984375c.933594 1.359375 2.566406 1.441406 3.632813.183594l15.175781-17.980469zm0 0"/><path d="m435.574219 46.875-189.214844-46.710938c-.449219-.1054682-.90625-.164062-1.363281-.164062-2.019532 0-3.902344 1.089844-4.914063 2.839844l-76.316406 132.183594h44.140625c4.128906-16.644532 19.191406-29.023438 37.09375-29.023438s32.964844 12.378906 37.09375 29.023438h44.417969l-26.527344-46.34375c-.921875-1.609376-1-3.570313-.207031-5.25.792968-1.675782 2.355468-2.859376 4.183594-3.171876l131.207031-22.269531c2.640625-.449219 4.625-2.714843 4.722656-5.390625.097656-2.675781-1.714844-5.082031-4.316406-5.722656zm0 0" fill="#1a2b63"/><path d="m194.796875 135.023438 74.578125-129.175782-23.015625-5.683594c-.449219-.1054682-.90625-.164062-1.363281-.164062-2.019532 0-3.902344 1.089844-4.914063 2.839844l-76.316406 132.183594zm0 0" fill="#11204c"/><path d="m283.222656 144.222656c0 8.191406-2.625 16.007813-7.300781 22.449219 28.648437 1.773437 56.136719 5.988281 81.308594 12.351563l-23.984375-41.902344c-1.097656-1.917969-3.132813-3.097656-5.339844-3.097656h-46.078125c.898437 3.246093 1.394531 6.664062 1.394531 10.199218zm0 0" fill="#aec1ed"/><path d="m206.777344 144.222656c0-3.53125.492187-6.949218 1.394531-10.199218h-45.730469c-2.199218 0-4.230468 1.171874-5.328125 3.078124l-24.183593 41.882813c25.128906-6.339844 52.5625-10.539063 81.148437-12.3125-4.675781-6.441406-7.300781-14.257813-7.300781-22.449219zm0 0" fill="#aec1ed"/><path d="m168.371094 171.714844 19.988281-34.613282c1.097656-1.90625 3.128906-3.078124 5.328125-3.078124h-31.25c-2.195312 0-4.226562 1.171874-5.328125 3.078124l-24.183594 41.882813c11.382813-2.871094 23.230469-5.300781 35.445313-7.269531zm0 0" fill="#85a0dd"/><path d="m447.714844 217.382812c-39.433594-28.675781-101.867188-47.296874-171.117188-51.671874-2.710937 3.980468-6.179687 7.484374-10.308594 10.257812-1.070312.722656-1.78125 1.871094-1.945312 3.144531l-.480469 3.734375c-.828125 6.421875-6.332031 11.261719-12.808593 11.261719h-12.109376c-6.472656 0-11.980468-4.839844-12.808593-11.261719l-.480469-3.734375c-.164062-1.277343-.871094-2.425781-1.945312-3.144531-4.128907-2.773438-7.597657-6.273438-10.308594-10.257812-69.25 4.375-131.6875 22.996093-171.117188 51.671874-1.652344 1.199219-2.339844 3.328126-1.710937 5.269532.628906 1.9375 2.441406 3.253906 4.480469 3.253906h399.886718c2.042969 0 3.851563-1.3125 4.484375-3.253906.628907-1.941406-.058593-4.070313-1.710937-5.269532zm0 0" fill="#1a2b63"/><path d="m103.230469 222.652344c-.628907-1.941406.058593-4.070313 1.710937-5.269532 28.324219-20.601562 68.523438-36.011718 114.585938-44.679687-2.335938-2.089844-4.386719-4.441406-6.125-6.996094-69.25 4.375-131.6875 22.996094-171.117188 51.675781-1.652344 1.199219-2.339844 3.328126-1.710937 5.269532.628906 1.9375 2.441406 3.25 4.480469 3.25h62.65625c-2.039063 0-3.851563-1.3125-4.480469-3.25zm0 0" fill="#11204c"/><path d="m238.945312 195.109375c-6.976562 0-12.90625-5.214844-13.800781-12.136719l-.480469-3.734375c-.128906-.992187-.679687-1.882812-1.511718-2.441406-10.878906-7.3125-17.375-19.488281-17.375-32.574219 0-21.628906 17.59375-39.222656 39.222656-39.222656s39.222656 17.59375 39.222656 39.222656c0 13.085938-6.496094 25.261719-17.375 32.578125-.832031.558594-1.382812 1.445313-1.511718 2.441407l-.480469 3.730468c-.890625 6.921875-6.824219 12.136719-13.796875 12.136719zm0 0" fill="#fff"/><path d="m241.363281 182.976562-.480469-3.738281c-.125-.992187-.675781-1.878906-1.507812-2.4375-10.882812-7.316406-17.375-19.492187-17.375-32.578125 0-18.847656 13.363281-34.628906 31.109375-38.375-2.617187-.550781-5.328125-.847656-8.109375-.847656-21.628906 0-39.222656 17.59375-39.222656 39.222656 0 13.085938 6.496094 25.261719 17.375 32.578125.832031.558594 1.382812 1.445313 1.511718 2.4375l.480469 3.738281c.894531 6.917969 6.824219 12.132813 13.800781 12.132813h12.109376c.699218 0 1.382812-.0625 2.054687-.164063-6.050781-.910156-10.9375-5.742187-11.746094-11.96875zm0 0" fill="#eef6ff"/><path d="m241.234375 146.023438c0 6.9375-5.625 12.558593-12.558594 12.558593-6.9375 0-12.5625-5.621093-12.5625-12.558593s5.625-12.558594 12.5625-12.558594c6.933594 0 12.558594 5.621094 12.558594 12.558594zm0 0" fill="#ea2a3d"/><path d="m273.886719 146.023438c0 6.9375-5.625 12.558593-12.558594 12.558593-6.9375 0-12.558594-5.621093-12.558594-12.558593 0-6.933594 5.621094-12.558594 12.558594-12.558594 6.933594 0 12.558594 5.625 12.558594 12.558594zm0 0" fill="#ea2a3d"/></svg>