<svg height="512pt" viewBox="-11 0 512 512.00097" width="512pt" xmlns="http://www.w3.org/2000/svg"><path d="m490 267c0 135.308594-109.6875 245-245 245-135.308594 0-245-109.691406-245-245 0-135.3125 109.691406-245 245-245 135.3125 0 245 109.6875 245 245zm0 0" fill="#794091"/><path d="m490 267c0 135.308594-109.6875 245-245 245-135.308594 0-245-109.691406-245-245 0-135.3125 109.691406-245 245-245 135.3125 0 245 109.6875 245 245zm0 0" fill="#794091"/><path d="m356.269531 42.1875-113-41.835938c-2.691406-1.078124-4.894531.410157-4.894531 3.3125v15.984376l-38.890625-19.160157c-2.601563-1.28125-4.730469.042969-4.730469 2.945313v16.214844l-38.890625-19.160157c-2.601562-1.28125-4.730469.042969-4.730469 2.945313v23.503906l-33.554687-12.472656c-2.71875-1.007813-4.941406.535156-4.941406 3.4375v156.363281c.128906-.003906.253906-.019531.378906-.019531h12.558594v-61.003906c0-2.355469 1.914062-4.273438 4.273437-4.273438h165.695313c8.214843 10.34375 12.730469 24.140625 12.730469 38.910156 0 3.640625-.289063 7.304688-.863282 10.894532-.375 2.328124 1.046875 4.601562 3.304688 5.285156.453125.132812.914062.203125 1.371094.203125 1.847656 0 3.539062-1.089844 4.308593-2.769531 4.351563-9.523438 6.652344-20.339844 6.652344-31.273438 0-1.175781.261719-1.570312.332031-1.609375 1.839844-.003906 7.3125 7.78125 7.3125 19.269531 0 3.636719-.289062 7.300782-.863281 10.894532-.371094 2.328124 1.046875 4.601562 3.308594 5.285156.449219.132812.910156.203125 1.367187.203125 1.847656 0 3.539063-1.085938 4.308594-2.769531 4.355469-9.523438 6.652344-20.339844 6.652344-31.273438 0-1.175781.261718-1.570312.332031-1.609375 1.839844-.003906 7.3125 7.78125 7.3125 19.269531 0 3.632813-.289063 7.300782-.859375 10.894532-.375 2.328124 1.046875 4.601562 3.304688 5.285156.449218.132812.910156.203125 1.371093.203125 1.847657 0 3.539063-1.089844 4.304688-2.769531 1.230469-2.691407 2.300781-5.511719 3.199219-8.4375v21.191406h12.554687c.128906 0 .253906.015625.378906.019531v-110.984375c0-11.601562-9.492187-21.09375-21.09375-21.09375zm0 0" fill="#1a2b63"/><path d="m113.015625 174.246094h12.558594v-61.003906c0-2.355469 1.914062-4.273438 4.273437-4.273438h8.425782v-86.8125l-20.695313-7.691406c-2.71875-1.007813-4.941406.535156-4.941406 3.4375v156.363281c.128906-.003906.25-.019531.378906-.019531zm0 0" fill="#11204c"/><path d="m383.164062 337.5h-101.195312v8.441406c0 20.382813-16.582031 36.96875-36.96875 36.96875s-36.96875-16.585937-36.96875-36.96875v-8.441406h-101.195312c-11.601563 0-21.09375 9.492188-21.09375 21.09375v40.3125c.414062 1.105469.644531 2.324219.644531 3.609375v37.949219h6.941406v-42.0625c0-4.964844 3.425781-9 7.640625-9s7.644531 4.035156 7.644531 9v42.0625h6.9375v-42.0625c0-4.964844 3.425781-9 7.640625-9s7.644532 4.035156 7.644532 9v42.0625h6.9375v-37.949219c0-4.964844 3.425781-9 7.640624-9 4.214844 0 7.644532 4.035156 7.644532 9v59.003906l11.605468-11.605469c1.613282-1.617187 3.773438-2.507812 6.078126-2.507812 2.300781 0 4.460937.890625 6.074218 2.507812l.679688.679688c3.351562 3.347656 3.351562 8.800781 0 12.152344l-24.4375 24.4375v1.199218c0 1.484376-.371094 2.9375-1.078125 4.242188-.269531.257812-.542969.496094-.816407.738281 28.902344 12 60.59375 18.636719 93.835938 18.636719 33.652344 0 65.710938-6.796875 94.894531-19.074219-.335937-.214843-.675781-.429687-1.015625-.65625-1.25-1.585937-1.933594-3.527343-1.933594-5.535156v-1.195313l-24.4375-24.4375c-3.351562-3.351562-3.351562-8.804687 0-12.15625l.675782-.679687c1.617187-1.613281 3.777344-2.503906 6.078125-2.503906 2.304687 0 4.460937.890625 6.078125 2.503906l11.605468 11.609375v-59.003906c0-4.964844 3.429688-9 7.644532-9 4.210937 0 7.640625 4.035156 7.640625 9v37.949218h6.9375v-42.066406c0-4.964844 3.429687-9 7.644531-9s7.640625 4.035156 7.640625 9v42.066406h6.9375v-42.066406c0-4.964844 3.429687-9 7.644531-9s7.640625 4.035156 7.640625 9v42.066406h6.9375v-37.949218c0-1.285156.234375-2.507813.648438-3.613282v-38.660156c0-11.605468-9.496094-21.097656-21.097657-21.097656zm0 0" fill="#445ea0"/><path d="m118.4375 337.5h-11.601562c-11.601563 0-21.09375 9.492188-21.09375 21.09375v40.3125c.414062 1.105469.644531 2.324219.644531 3.609375v37.949219h6.941406v-42.0625c0-4.964844 3.425781-9 7.640625-9 2.167969 0 4.121094 1.070312 5.515625 2.78125v-33.589844c0-8.324219 4.902344-15.546875 11.953125-18.96875zm0 0" fill="#2e4c89"/><path d="m245 331.230469c-13.265625 0-26.035156-2.179688-37.96875-6.191407v20.902344c0 20.96875 17 37.96875 37.96875 37.96875s37.96875-17 37.96875-37.96875v-20.902344c-11.933594 4.011719-24.699219 6.191407-37.96875 6.191407zm0 0" fill="#37c47a"/><path d="m228 345.941406v-15.929687c-7.214844-1.03125-14.226562-2.707031-20.96875-4.972657v20.898438c0 20.96875 17 37.96875 37.96875 37.96875 3.640625 0 7.152344-.519531 10.484375-1.476562-15.867187-4.550782-27.484375-19.160157-27.484375-36.488282zm0 0" fill="#02af8e"/><path d="m125.574219 211.800781v-38.554687h-12.558594c-8.617187 0-15.671875 7.054687-15.671875 15.671875v35.5625c0 8.621093 7.054688 15.675781 15.671875 15.675781h15.964844c-2.222657-9.09375-3.40625-18.585938-3.40625-28.355469zm0 0" fill="#37c47a"/><path d="m376.984375 173.246094h-12.554687v38.554687c0 9.769531-1.1875 19.261719-3.410157 28.355469h15.964844c8.621094 0 15.671875-7.054688 15.671875-15.675781v-35.5625c0-8.617188-7.050781-15.671875-15.671875-15.671875zm0 0" fill="#37c47a"/><path d="m360.320312 161.078125c-.617187 1.355469-1.964843 2.183594-3.394531 2.183594-.359375 0-.726562-.054688-1.082031-.160157-1.789062-.542968-2.90625-2.320312-2.609375-4.167968.582031-3.640625.875-7.363282.875-11.054688 0-15.304687-9.644531-25.265625-9.644531-17.660156 0 10.792969-2.269532 21.464844-6.5625 30.859375-.621094 1.355469-1.96875 2.183594-3.398438 2.183594-.355468 0-.722656-.054688-1.078125-.160157-1.789062-.542968-2.90625-2.320312-2.609375-4.167968.582032-3.640625.878906-7.363282.878906-11.054688 0-15.304687-9.648437-25.265625-9.648437-17.660156 0 10.792969-2.269531 21.464844-6.5625 30.859375-.621094 1.355469-1.964844 2.183594-3.394531 2.183594-.359375 0-.726563-.054688-1.082032-.160157-1.789062-.542968-2.90625-2.320312-2.609374-4.167968.582031-3.640625.878906-7.363282.878906-11.054688 0-15.605468-5.03125-29.75-13.253906-39.910156h-166.175782c-2.914062 0-5.273437 2.363281-5.273437 5.273438v98.5625c0 66.402343 54.023437 120.425781 120.425781 120.425781 66.40625 0 120.429688-54.023438 120.429688-120.425781v-66.890626c-1.089844 5.636719-2.789063 11.089844-5.109376 16.164063zm0 0" fill="#60d882"/><path d="m224.425781 123.546875h13.816407v15h-13.816407zm0 0" fill="#ff9f60"/><path d="m251.242188 123.546875h13.816406v15h-13.816406zm0 0" fill="#ff9f60"/><path d="m286 123.546875h-7.9375v15h7.9375c4.144531 0 7.5-3.359375 7.5-7.5 0-4.144531-3.355469-7.5-7.5-7.5zm0 0" fill="#ff9f60"/><path d="m211.425781 123.546875h-7.425781c-4.140625 0-7.5 3.355469-7.5 7.5 0 4.140625 3.359375 7.5 7.5 7.5h7.425781zm0 0" fill="#ff9f60"/><path d="m217.925781 149.621094c-4.144531 0-7.5-3.359375-7.5-7.5v-22.148438c0-4.144531 3.355469-7.5 7.5-7.5 4.140625 0 7.5 3.355469 7.5 7.5v22.148438c0 4.140625-3.359375 7.5-7.5 7.5zm0 0" fill="#37c47a"/><path d="m244.742188 149.621094c-4.140626 0-7.5-3.359375-7.5-7.5v-22.148438c0-4.144531 3.359374-7.5 7.5-7.5 4.144531 0 7.5 3.355469 7.5 7.5v22.148438c0 4.140625-3.355469 7.5-7.5 7.5zm0 0" fill="#37c47a"/><path d="m271.558594 149.621094c-4.140625 0-7.5-3.359375-7.5-7.5v-22.148438c0-4.144531 3.359375-7.5 7.5-7.5 4.144531 0 7.5 3.355469 7.5 7.5v22.148438c0 4.140625-3.355469 7.5-7.5 7.5zm0 0" fill="#37c47a"/><path d="m189.457031 172.085938h-17.585937c-13.488282 3.828124-23.375 16.226562-23.375 30.941406 0 17.765625 14.402344 32.167968 32.167968 32.167968 17.769532 0 32.167969-14.402343 32.167969-32.167968 0-14.714844-9.886719-27.113282-23.375-30.941406zm0 0" fill="#fff"/><path d="m158.664062 203.03125c0-14.722656 9.890626-27.121094 23.382813-30.941406h-10.175781c-13.492188 3.824218-23.375 16.222656-23.375 30.941406 0 17.765625 14.402344 32.167969 32.167968 32.167969 1.730469 0 3.429688-.144531 5.085938-.40625-15.351562-2.4375-27.085938-15.730469-27.085938-31.761719zm0 0" fill="#d9eafc"/><path d="m180.664062 219.375c-9.015624 0-16.347656-7.332031-16.347656-16.347656s7.332032-16.347656 16.347656-16.347656c9.015626 0 16.347657 7.332031 16.347657 16.347656s-7.332031 16.347656-16.347657 16.347656zm0 0" fill="#1a2b63"/><path d="m260.484375 237.421875h-22.804687c-5.789063 0-10.5-4.707031-10.5-10.5v-31.804687c0-4.140626 3.359374-7.5 7.5-7.5 4.140624 0 7.5 3.359374 7.5 7.5v27.304687h18.304687c4.144531 0 7.5 3.359375 7.5 7.5 0 4.144531-3.355469 7.5-7.5 7.5zm0 0" fill="#37c47a"/><path d="m199.121094 173.085938h-36.914063c-4.140625 0-7.5-3.355469-7.5-7.5 0-4.140626 3.359375-7.5 7.5-7.5h36.914063c4.144531 0 7.5 3.359374 7.5 7.5 0 4.144531-3.355469 7.5-7.5 7.5zm0 0" fill="#1a2b63"/><path d="m313.382812 172.085938h-17.585937c-13.488281 3.828124-23.375 16.226562-23.375 30.941406 0 17.765625 14.402344 32.167968 32.167969 32.167968 17.769531 0 32.167968-14.402343 32.167968-32.167968 0-14.714844-9.882812-27.113282-23.375-30.941406zm0 0" fill="#fff"/><path d="m282.664062 203.03125c0-14.722656 9.890626-27.121094 23.386719-30.941406h-10.253906c-13.488281 3.824218-23.375 16.222656-23.375 30.941406 0 17.765625 14.402344 32.167969 32.167969 32.167969 1.746094 0 3.453125-.144531 5.121094-.410157-15.328126-2.457031-27.046876-15.738281-27.046876-31.757812zm0 0" fill="#d9eafc"/><path d="m304.589844 219.375c-9.011719 0-16.347656-7.332031-16.347656-16.347656s7.335937-16.347656 16.347656-16.347656c9.015625 0 16.347656 7.332031 16.347656 16.347656s-7.332031 16.347656-16.347656 16.347656zm0 0" fill="#1a2b63"/><path d="m323.046875 173.085938h-36.914063c-4.140624 0-7.5-3.355469-7.5-7.5 0-4.140626 3.359376-7.5 7.5-7.5h36.914063c4.144531 0 7.5 3.359374 7.5 7.5 0 4.144531-3.355469 7.5-7.5 7.5zm0 0" fill="#1a2b63"/><path d="m308.488281 281.484375c0 15.792969-12.804687 28.597656-28.597656 28.597656h-69.78125c-15.792969 0-28.597656-12.804687-28.597656-28.597656v-4.578125c0-15.792969 12.804687-28.601562 28.597656-28.601562h69.78125c15.796875 0 28.601563 12.808593 28.601563 28.601562v4.578125zm0 0" fill="#fe3745"/><path d="m202.023438 281.484375v-4.578125c0-3.152344.515624-6.179688 1.457031-9.015625h-.667969c-2.898438 0-5.273438-2.371094-5.273438-5.269531v-11.40625c-9.492187 4.652344-16.027343 14.40625-16.027343 25.691406v4.578125c0 15.792969 12.804687 28.597656 28.597656 28.597656h1.71875c0-2.171875.371094-4.25 1.023437-6.199219-6.59375-5.242187-10.828124-13.324218-10.828124-22.398437zm0 0" fill="#ea2a3d"/><path d="m258.726562 290.632812c-5.359374 0-10.207031 2.167969-13.726562 5.671876-3.519531-3.503907-8.367188-5.671876-13.726562-5.671876-10.742188 0-19.449219 8.707032-19.449219 19.445313h66.351562c0-10.738281-8.707031-19.445313-19.449219-19.445313zm0 0" fill="#ffd782"/><path d="m236.359375 291.328125c-1.625-.4375-3.324219-.695313-5.085937-.695313-10.742188 0-19.449219 8.707032-19.449219 19.449219h10.175781c0-8.976562 6.089844-16.515625 14.359375-18.753906zm0 0" fill="#ffc987"/><path d="m210.109375 248.304688c-4.507813 0-8.773437 1.050781-12.570313 2.910156v11.402344c0 2.902343 2.375 5.273437 5.273438 5.273437h11.601562c2.902344 0 5.273438-2.371094 5.273438-5.273437v-14.3125zm0 0" fill="#fff"/><path d="m207.851562 262.617188v-14.210938c-3.675781.289062-7.15625 1.261719-10.3125 2.808594v11.402344c0 2.902343 2.371094 5.273437 5.273438 5.273437h10.3125c-2.898438 0-5.273438-2.371094-5.273438-5.273437zm0 0" fill="#eef6ff"/><path d="m279.890625 248.304688h-49.128906v14.316406c0 2.898437 2.375 5.269531 5.273437 5.269531h11.601563c2.898437 0 5.273437-2.371094 5.273437-5.269531 0 2.898437 2.371094 5.269531 5.273438 5.269531h11.601562c2.898438 0 5.273438-2.371094 5.273438-5.269531 0 2.898437 2.371094 5.269531 5.273437 5.269531h11.601563c2.898437 0 5.273437-2.371094 5.273437-5.269531v-8.472656c-4.804687-3.660157-10.804687-5.84375-17.316406-5.84375zm0 0" fill="#fff"/><path d="m241 262.617188v-14.3125h-10.238281v14.3125c0 2.902343 2.375 5.273437 5.273437 5.273437h10.238282c-2.898438 0-5.273438-2.371094-5.273438-5.273437zm0 0" fill="#eef6ff"/><path d="m118.4375 337.5v33.625c0 1.585938.777344 1.84375 1.730469.578125l10.949219-14.605469c.953124-1.265625 2.347656-1.164062 3.097656.230469l16.957031 31.433594c.753906 1.398437 2.28125 1.617187 3.394531.484375l12.527344-12.707032c1.109375-1.128906 2.867188-1.066406 3.898438.132813l18.339843 21.332031c1.035157 1.199219 1.878907.886719 1.878907-.699218v-59.804688zm0 0" fill="#37c47a"/><path d="m129 337.5h-10.5625v33.625c0 1.585938.777344 1.84375 1.730469.578125l8.832031-11.777344zm0 0" fill="#02af8e"/><path d="m319.328125 389.671875 14.164063-14.164063c2.050781-2.050781 3.726562-1.355468 3.726562 1.542969v21.46875c.882812-3.824219 3.847656-6.652343 7.371094-6.652343 1.585937 0 3.0625.574218 4.285156 1.558593l12.125-55.925781h-45.402344v50.625c0 2.902344 1.679688 3.597656 3.730469 1.546875zm0 0" fill="#37c47a"/><path d="m326 337.5h-10.402344v50.625c0 2.902344 1.679688 3.597656 3.730469 1.546875l6.671875-6.675781zm0 0" fill="#02af8e"/><g fill="#37c47a"><path d="m344.140625 260.507812c0 6.410157-5.191406 11.605469-11.601563 11.605469-6.40625 0-11.601562-5.195312-11.601562-11.605469 0-6.40625 5.195312-11.601562 11.601562-11.601562 6.410157 0 11.601563 5.195312 11.601563 11.601562zm0 0"/><path d="m351.523438 237.832031c0 4.371094-3.539063 7.910157-7.910157 7.910157-4.367187 0-7.910156-3.539063-7.910156-7.910157 0-4.367187 3.542969-7.910156 7.910156-7.910156 4.371094 0 7.910157 3.542969 7.910157 7.910156zm0 0"/><path d="m144.804688 215.683594c0 4.371094-3.542969 7.910156-7.910157 7.910156-4.367187 0-7.910156-3.539062-7.910156-7.910156 0-4.367188 3.542969-7.910156 7.910156-7.910156 4.367188 0 7.910157 3.542968 7.910157 7.910156zm0 0"/><path d="m160.625 244.160156c0 6.117188-4.957031 11.074219-11.074219 11.074219-6.117187 0-11.074219-4.957031-11.074219-11.074219 0-6.113281 4.957032-11.074218 11.074219-11.074218 6.117188 0 11.074219 4.960937 11.074219 11.074218zm0 0"/></g><path d="m133.203125 107.96875v74.238281c0 4.40625 3.226563 7.992188 7.1875 7.992188 3.964844 0 7.191406-3.585938 7.191406-7.992188v-56.921875c0-4.402344 3.226563-7.984375 7.191407-7.984375 3.960937 0 7.1875 3.582031 7.1875 7.984375v17.976563c0 4.40625 3.226562 7.992187 7.191406 7.992187s7.191406-3.585937 7.191406-7.992187v-35.292969zm0 0" fill="#fe3745"/><path d="m419.894531 438.546875v-37.679687c0-5.5-3.886719-10-8.640625-10s-8.644531 4.5-8.644531 10v36.949218h-4.9375v-41.0625c0-5.5-3.886719-10-8.640625-10s-8.640625 4.5-8.640625 10v41.0625h-4.9375v-41.0625c0-5.5-3.890625-10-8.644531-10s-8.640625 4.5-8.640625 10v41.0625h-4.941407v-36.949218c0-5.5-3.886718-10-8.640624-10-4.753907 0-8.644532 4.5-8.644532 10v56.589843l-9.898437-9.898437c-3.730469-3.730469-9.835938-3.730469-13.566407 0l-.679687.679687c-3.730469 3.730469-3.730469 9.835938 0 13.570313l24.148437 24.144531v.78125c0 2.59375 1.007813 4.957031 2.640626 6.738281 30.761718-12.726562 58.363281-31.53125 81.308593-54.925781zm0 0" fill="#60d882"/><path d="m349.828125 446.117188c-4.144531 0-7.5 3.355468-7.5 7.5 0 4.140624 3.355469 7.5 7.5 7.5 6.195313 0 11.234375 5.039062 11.234375 11.234374 0 3.53125 2.441406 6.480469 5.726562 7.28125 3.058594-1.757812 6.070313-3.589843 9.046876-5.472656.144531-.578125.226562-1.183594.226562-1.8125 0-14.460937-11.765625-26.230468-26.234375-26.230468zm0 0" fill="#02af8e"/><path d="m177.523438 449.203125c-3.730469-3.730469-9.835938-3.730469-13.570313 0l-9.894531 9.898437v-56.585937c0-5.5-3.890625-10-8.644532-10-4.753906 0-8.640624 4.5-8.640624 10v36.949219h-4.941407v-41.0625c0-5.5-3.886719-10-8.640625-10s-8.644531 4.5-8.644531 10v41.0625h-4.9375v-41.0625c0-5.5-3.886719-10-8.640625-10s-8.644531 4.5-8.644531 10v41.0625h-4.9375v-36.949219c0-5.5-3.886719-10-8.640625-10s-8.644532 4.5-8.644532 10v36.03125c23.191407 23.644531 51.136719 42.597656 82.292969 55.328125 1.046875-1.582031 1.660157-3.46875 1.660157-5.492188v-.785156l24.144531-24.148437c3.730469-3.726563 3.730469-9.835938 0-13.566407zm0 0" fill="#60d882"/><path d="m140.171875 447.761719c-14.464844 0-26.234375 11.769531-26.234375 26.234375 0 0 .003906.015625.003906.023437 3.609375 2.292969 7.289063 4.488281 11.027344 6.589844 2.363281-1.261719 3.96875-3.75 3.96875-6.613281 0-6.195313 5.042969-11.234375 11.234375-11.234375 4.144531 0 7.5-3.355469 7.5-7.5s-3.355469-7.5-7.5-7.5zm0 0" fill="#02af8e"/></svg>