<svg height="512pt" viewBox="-11 0 512 512" width="512pt" xmlns="http://www.w3.org/2000/svg"><path d="m490 267c0 135.308594-109.691406 245-245 245s-245-109.691406-245-245 109.691406-245 245-245 245 109.691406 245 245zm0 0" fill="#ffca51"/><path d="m96 455.679688c0-17.828126 2.398438-34.871094 6.886719-49.753907-1.636719-20.566406-6.539063-39.457031-14.222657-54.304687-.515624-.996094-1.542968-1.621094-2.664062-1.621094s-2.148438.625-2.664062 1.621094c-9.566407 18.488281-14.835938 43.238281-14.835938 69.699218 0 5.523438.242188 10.960938.691406 16.292969 8.34375 8.597657 17.3125 16.582031 26.828125 23.882813-.011719-2.269532-.019531-4.875-.019531-5.816406zm0 0" fill="#8e5e3d"/><path d="m153 486.320312c0-6.566406.324219-13.03125.960938-19.320312h-6.960938c-1.054688 0-2.027344-.410156-2.742188-1.15625-.714843-.75-1.078124-1.738281-1.03125-2.792969l3.125-69.105469c-1.148437-2.761718-2.371093-5.429687-3.6875-7.96875-.515624-.996093-1.542968-1.621093-2.664062-1.621093s-2.148438.625-2.664062 1.621093c-5.53125 10.6875-9.617188 23.480469-12.085938 37.476563 1.800781 10.210937 2.75 21.0625 2.75 32.222656 0 8.804688-.601562 17.402344-1.730469 25.660157 8.757813 4.863281 17.84375 9.207031 27.21875 12.984374.039063-.1875.078125-.378906.117188-.566406-.152344-.066406-.304688-.121094-.457031-.1875-.089844-2.398437-.148438-4.808594-.148438-7.246094zm0 0" fill="#8e5e3d"/><path d="m112 384.355469c-1.121094 0-2.148438.625-2.664062 1.621093-9.566407 18.488282-14.835938 43.238282-14.835938 69.699219 0 1.570313.019531 3.136719.058594 4.695313 10.398437 8.101562 21.464844 15.382812 33.105468 21.746094 1.199219-8.492188 1.835938-17.359376 1.835938-26.441407 0-26.460937-5.269531-51.210937-14.835938-69.699219-.515624-.996093-1.542968-1.621093-2.664062-1.621093zm0 0" fill="#ef8318"/><path d="m152.460938 467c-.636719 6.289062-.960938 12.753906-.960938 19.320312 0 2.4375.058594 4.847657.148438 7.25 10.945312 4.515626 22.292968 8.257813 33.96875 11.167969.578124-6.003906.882812-12.160156.882812-18.417969 0-6.566406-.324219-13.03125-.960938-19.320312zm0 0" fill="#ef8318"/><path d="m406.664062 361.976562c-.515624-.996093-1.542968-1.621093-2.664062-1.621093s-2.148438.625-2.664062 1.621093c-6.410157 12.386719-10.878907 27.597657-13.140626 44.238282 4.433594 14.8125 6.804688 31.75 6.804688 49.464844 0 1.203124.023438 3.355468.015625 5 9.363281-7.261719 18.199219-15.175782 26.410156-23.699219.046875-1.757813.074219-3.527344.074219-5.300781 0-26.460938-5.269531-51.214844-14.835938-69.703126zm0 0" fill="#8e5e3d"/><path d="m362 455.679688c0-11.164063.949219-22.011719 2.75-32.222657-2.46875-14-6.554688-26.792969-12.085938-37.480469-.515624-.996093-1.542968-1.621093-2.664062-1.621093s-2.148438.625-2.664062 1.621093c-1.3125 2.539063-2.539063 5.207032-3.6875 7.96875l3.125 69.105469c.046874 1.054688-.316407 2.046875-1.03125 2.792969-.714844.746094-1.6875 1.15625-2.742188 1.15625h-6.015625c0 .441406.015625.878906.015625 1.320312 0 6.300782-.425781 15.386719-1.085938 23.113282.191407.96875.390626 1.933594.601563 2.886718 9.375-3.777343 18.457031-8.121093 27.21875-12.984374-1.132813-8.253907-1.734375-16.855469-1.734375-25.65625zm0 0" fill="#8e5e3d"/><path d="m378 384.355469c-1.121094 0-2.148438.625-2.664062 1.621093-9.566407 18.488282-14.835938 43.238282-14.835938 69.699219 0 9.082031.636719 17.949219 1.835938 26.441407 11.640624-6.363282 22.707031-13.644532 33.105468-21.746094.035156-1.558594.058594-3.125.058594-4.695313 0-26.460937-5.269531-51.210937-14.835938-69.699219-.515624-.996093-1.542968-1.621093-2.664062-1.621093zm0 0" fill="#ef8318"/><path d="m303.515625 467c0 .441406-.015625.878906-.015625 1.320312 0 12.46875 1.183594 24.546876 3.421875 35.777344 10.214844-2.660156 20.167969-5.96875 29.816406-9.871094 1.152344-8.328124 1.761719-17.015624 1.761719-25.90625 0-.441406-.015625-.878906-.015625-1.320312zm0 0" fill="#ef8318"/><path d="m144.636719 347.859375c.878906-.390625 1.511719-1.183594 1.699219-2.132813.632812-3.253906 1.496093-5.910156 2.554687-7.917968l2.953125-65.234375-17.707031 4.429687c-.84375.210938-1.554688.78125-1.933594 1.558594-.382813.78125-.402344 1.691406-.054687 2.488281 1.015624 2.3125 1.117187 4.308594.300781 5.941407-1.230469 2.46875-4.707031 4.441406-10.050781 5.703124-.820313.195313-1.519532.730469-1.917969 1.472657-.398438.742187-.460938 1.617187-.171875 2.410156.769531 2.117187.730468 3.953125-.117188 5.457031-1.484375 2.628906-5.527344 4.652344-11.699218 5.851563-.945313.183593-1.742188.816406-2.132813 1.699219-.390625.878906-.324219 1.894531.171875 2.722656 6.867188 11.359375 2.332031 25.804687.0625 31.488281-.4375 1.09375-.179688 2.34375.652344 3.175781.835937.835938 2.085937 1.089844 3.179687.65625 5.683594-2.273437 20.128907-6.808594 31.488281.058594.824219.5 1.839844.5625 2.722657.171875zm0 0" fill="#2bb381"/><path d="m150.765625 296.382812-18.566406 18.566407c-1.953125 1.953125-1.953125 5.117187 0 7.070312.976562.976563 2.253906 1.464844 3.535156 1.464844 1.277344 0 2.558594-.488281 3.535156-1.464844l10.828125-10.828125zm0 0" fill="#0f9390"/><path d="m465 237.5h23.226562c-.605468-5.050781-1.359374-10.050781-2.269531-15h-20.957031zm0 0" fill="#994334"/><path d="m25 222.5h-20.957031c-.90625 4.949219-1.664063 9.949219-2.269531 15h23.226562zm0 0" fill="#994334"/><path d="m229 467v44.46875c5.289062.339844 10.621094.53125 16 .53125s10.710938-.191406 16-.53125v-44.46875zm0 0" fill="#994334"/><path d="m332.449219 80h-174.898438c-7.570312 10.820312-12.023437 23.980469-12.023437 38.183594v13.105468c0 26.980469 16.027344 50.199219 39.070312 60.710938h120.808594c23.042969-10.511719 39.066406-33.730469 39.066406-60.710938v-13.105468c0-14.203125-4.453125-27.363282-12.023437-38.183594zm0 0" fill="#db722c"/><path d="m206.296875 192h77.402344c14.765625-10.511719 25.03125-33.730469 25.03125-60.710938v-13.105468c0-14.203125-2.851563-27.363282-7.703125-38.183594h-112.058594c-4.851562 10.820312-7.703125 23.980469-7.703125 38.183594v13.105468c0 26.980469 10.265625 50.199219 25.03125 60.710938zm0 0" fill="#ef8318"/><path d="m262 192c6.484375-10.511719 10.992188-33.730469 10.992188-60.710938v-13.105468c0-14.203125-1.253907-27.363282-3.382813-38.183594h-49.222656c-2.128907 10.820312-3.382813 23.980469-3.382813 38.183594v13.105468c0 26.980469 4.507813 50.199219 10.996094 60.710938zm0 0" fill="#db722c"/><g fill="#b7092b"><path d="m230.796875 125.167969c-1.136719 0-2.1875-.605469-2.75-1.589844-.570313-.984375-.570313-2.195313 0-3.179687l14.199219-24.601563c.570312-.984375 1.617187-1.589844 2.753906-1.589844s2.183594.605469 2.753906 1.589844l14.199219 24.601563c.570313.984374.570313 2.195312 0 3.179687-.5625.980469-1.613281 1.589844-2.75 1.589844zm0 0"/><path d="m273.117188 114.566406c-1.265626 0-2.40625-.75-2.914063-1.910156-.503906-1.160156-.273437-2.507812.589844-3.433594l19.746093-21.210937c.605469-.644531 1.445313-1.011719 2.328126-1.011719.882812 0 1.726562.363281 2.324218 1.011719l19.75 21.210937c.859375.925782 1.089844 2.273438.585938 3.433594s-1.648438 1.910156-2.914063 1.910156zm0 0"/><path d="m177.386719 114.566406c-1.265625 0-2.410157-.75-2.914063-1.910156-.507812-1.160156-.273437-2.507812.585938-3.433594l19.75-21.210937c.601562-.644531 1.441406-1.011719 2.324218-1.011719.882813 0 1.726563.363281 2.328126 1.011719l19.75 21.210937c.859374.925782 1.089843 2.273438.585937 3.433594-.507813 1.160156-1.648437 1.910156-2.914063 1.910156zm0 0"/><path d="m200.507812 173.851562c1.078126 1.246094 2.84375 1.246094 3.921876 0l4.585937-5.308593c1.078125-1.246094 2.84375-1.246094 3.921875 0l4.582031 5.308593c1.078125 1.246094 2.84375 1.246094 3.921875 0l4.585938-5.308593c1.078125-1.246094 2.84375-1.246094 3.921875 0l4.585937 5.308593c1.078125 1.246094 2.84375 1.246094 3.921875 0l4.582031-5.308593c1.078126-1.246094 2.84375-1.246094 3.921876 0l4.585937 5.308593c1.078125 1.246094 2.84375 1.246094 3.921875 0l4.582031-5.308593c1.078125-1.246094 2.84375-1.246094 3.921875 0l4.585938 5.308593c1.078125 1.246094 2.84375 1.246094 3.921875 0l4.585937-5.308593c1.078125-1.246094 2.84375-1.246094 3.921875 0l4.582031 5.308593c1.078126 1.246094 2.84375 1.246094 3.921876 0l3.914062-4.53125c1.078125-1.25 1.199219-3.382812.269531-4.746093l-17.789062-25.957031c-.933594-1.359376-2.566407-1.441407-3.632813-.183594l-7.097656 8.410156c-1.0625 1.257812-2.808594 1.257812-3.871094 0l-5.238281-6.207031c-1.0625-1.257813-2.808594-1.257813-3.871094 0l-5.238281 6.207031c-1.0625 1.257812-2.804688 1.257812-3.871094 0l-5.238281-6.207031c-1.0625-1.257813-2.804687-1.257813-3.871094 0l-5.238281 6.207031c-1.0625 1.257812-2.804688 1.257812-3.871094 0l-7.097656-8.410156c-1.0625-1.261719-2.695312-1.179688-3.628906.183594l-17.789063 25.957031c-.933593 1.363281-.8125 3.496093.265625 4.746093zm0 0"/></g><path d="m238.425781 123.578125c-.566406-.984375-.566406-2.195313 0-3.179687l11.765625-20.378907-2.4375-4.222656c-.566406-.984375-1.617187-1.589844-2.753906-1.589844-1.132812 0-2.183594.605469-2.75 1.589844l-14.203125 24.601563c-.570313.984374-.570313 2.195312 0 3.179687.566406.980469 1.617187 1.589844 2.75 1.589844h10.378906c-1.132812 0-2.183593-.605469-2.75-1.589844zm0 0" fill="#a00026"/><path d="m280.265625 112.65625c-.503906-1.160156-.273437-2.507812.589844-3.433594l17.042969-18.308594-2.703126-2.902343c-.601562-.644531-1.445312-1.011719-2.328124-1.011719-.882813 0-1.726563.367188-2.328126 1.011719l-19.746093 21.210937c-.863281.925782-1.09375 2.273438-.589844 3.433594.507813 1.160156 1.648437 1.910156 2.914063 1.910156h10.0625c-1.265626 0-2.410157-.75-2.914063-1.910156zm0 0" fill="#a00026"/><path d="m185.265625 112.65625c-.507813-1.160156-.273437-2.507812.585937-3.433594l16.679688-17.914062-3.070312-3.296875c-.601563-.644531-1.445313-1.011719-2.328126-1.011719-.882812 0-1.722656.363281-2.324218 1.011719l-19.75 21.210937c-.859375.925782-1.09375 2.273438-.585938 3.433594.503906 1.160156 1.648438 1.910156 2.914063 1.910156h10.792969c-1.265626 0-2.410157-.75-2.914063-1.910156zm0 0" fill="#a00026"/><path d="m206.894531 169.320312c-1.078125-1.25-1.199219-3.382812-.265625-4.746093l14.867188-21.699219-3.75-4.441406c-1.0625-1.261719-2.695313-1.179688-3.628906.183594l-17.789063 25.957031c-.933594 1.363281-.8125 3.496093.265625 4.746093l3.914062 4.53125c1.078126 1.246094 2.84375 1.246094 3.921876 0l3.1875-3.691406zm0 0" fill="#a00026"/><path d="m330.441406 62c-.195312-.878906-.492187-1.785156-.902344-2.714844l-20.183593-45.570312c-3.34375-7.542969-12.828125-13.714844-21.078125-13.714844h-86.558594c-8.25 0-17.730469 6.171875-21.074219 13.714844l-20.183593 45.570312c-.410157.929688-.707032 1.835938-.902344 2.714844zm0 0" fill="#924eb5"/><path d="m190.84375 62c.195312-.878906.492188-1.785156.902344-2.714844l20.1875-45.570312c3.339844-7.542969 12.824218-13.714844 21.074218-13.714844h-31.285156c-8.25 0-17.734375 6.171875-21.074218 13.714844l-20.183594 45.570312c-.414063.929688-.710938 1.835938-.90625 2.714844zm0 0" fill="#794091"/><path d="m165.902344 47-5.4375 12.285156c-.414063.929688-.710938 1.835938-.90625 2.714844h61.941406v-15zm0 0" fill="#999cad"/><path d="m329.535156 59.285156-5.4375-12.285156h-55.597656v15h61.941406c-.195312-.878906-.492187-1.785156-.90625-2.714844zm0 0" fill="#999cad"/><path d="m190.84375 62c.195312-.878906.492188-1.785156.902344-2.714844l5.441406-12.285156h-31.285156l-5.4375 12.285156c-.414063.929688-.710938 1.835938-.90625 2.714844zm0 0" fill="#7d8193"/><path d="m268.5 62v-18c0-2.75-2.25-5-5-5h-37c-2.75 0-5 2.25-5 5v18zm0 0" fill="#ffaf10"/><path d="m236 62v-18c0-2.75 2.25-5 5-5h-14.5c-2.75 0-5 2.25-5 5v18zm0 0" fill="#ef9614"/><path d="m362.5 76c0 2.75-2.25 5-5 5h-225c-2.75 0-5-2.25-5-5v-10c0-2.75 2.25-5 5-5h225c2.75 0 5 2.25 5 5zm0 0" fill="#794091"/><path d="m158 76v-10c0-2.75 2.25-5 5-5h-30.5c-2.75 0-5 2.25-5 5v10c0 2.75 2.25 5 5 5h30.5c-2.75 0-5-2.25-5-5zm0 0" fill="#62317c"/><path d="m461 216h-133.890625v9c0 4.964844-4.039063 9-9 9h-146.21875c-4.960937 0-9-4.035156-9-9v-9h-133.890625c-2.75 0-5 2.25-5 5v36c0 2.75 2.25 5 5 5h122.320312l-9.09375 201.003906c-.125 2.75 2.023438 4.996094 4.773438 4.996094h196c2.75 0 4.898438-2.246094 4.773438-4.996094l-9.09375-201.003906h122.320312c2.75 0 5-2.25 5-5v-36c0-2.75-2.25-5-5-5zm0 0" fill="#1a2b63"/><path d="m167 448c-2.75 0-4.898438-2.246094-4.773438-4.996094l9.09375-201.003906h-122.320312c-2.75 0-5-2.25-5-5v-21h-15c-2.75 0-5 2.25-5 5v36c0 2.75 2.25 5 5 5h122.320312l-9.09375 201.003906c-.125 2.75 2.023438 4.996094 4.773438 4.996094h196c2.75 0 4.898438-2.246094 4.773438-4.996094l-.679688-15.003906zm0 0" fill="#11204c"/><path d="m306.949219 318h-34c-1.976563 0-3.679688-1.171875-4.488281-2.84375.046874.3125.128906.636719.253906.96875l6.640625 17.730469c.964843 2.574219 2.542969 2.574219 3.507812 0l2.914063-7.785157c.964844-2.574218 2.542968-2.574218 3.503906 0l2.914062 7.785157c.964844 2.574219 2.542969 2.574219 3.507813 0l2.914063-7.785157c.964843-2.574218 2.542968-2.574218 3.507812 0l2.914062 7.785157c.964844 2.574219 2.542969 2.574219 3.507813 0l6.640625-17.730469c.125-.332031.207031-.65625.253906-.972656-.8125 1.675781-2.515625 2.847656-4.492187 2.847656zm0 0" fill="#fff"/><path d="m267.949219 234v80.21875c0 2.75 2.25 5 5 5h34c2.75 0 5-2.25 5-5v-80.21875zm0 0" fill="#2bb381"/><path d="m282 314.21875v-80.21875h-14.050781v80.21875c0 2.75 2.25 5 5 5h14.050781c-2.75 0-5-2.25-5-5zm0 0" fill="#28a5a5"/><path d="m217 280h-34c-1.976562 0-3.679688-1.171875-4.488281-2.84375.046875.3125.128906.636719.253906.96875l6.640625 17.730469c.964844 2.574219 2.542969 2.574219 3.507812 0l2.914063-7.785157c.964844-2.574218 2.542969-2.574218 3.507813 0l2.910156 7.785157c.964844 2.574219 2.542968 2.574219 3.507812 0l2.914063-7.785157c.964843-2.574218 2.542969-2.574218 3.507812 0l2.914063 7.785157c.964844 2.574219 2.542968 2.574219 3.507812 0l6.640625-17.730469c.125-.332031.207031-.65625.253907-.972656-.8125 1.675781-2.515626 2.847656-4.492188 2.847656zm0 0" fill="#fff"/><path d="m178 234v42.21875c0 2.75 2.25 5 5 5h34c2.75 0 5-2.25 5-5v-42.21875zm0 0" fill="#2bb381"/><path d="m193 276.21875v-42.21875h-15v42.21875c0 2.75 2.25 5 5 5h15c-2.75 0-5-2.25-5-5zm0 0" fill="#28a5a5"/><path d="m328.109375 225c0 5.5-4.5 10-10 10h-146.21875c-5.5 0-10-4.5-10-10v-24c0-5.5 4.5-10 10-10h146.21875c5.5 0 10 4.5 10 10zm0 0" fill="#159e97"/><path d="m182.78125 225v-24c0-5.5 4.5-10 10-10h-20.890625c-5.5 0-10 4.5-10 10v24c0 5.5 4.5 10 10 10h20.890625c-5.5 0-10-4.5-10-10zm0 0" fill="#0f9390"/><path d="m254 258c0 4.96875-4.03125 9-9 9s-9-4.03125-9-9 4.03125-9 9-9 9 4.03125 9 9zm0 0" fill="#999cad"/><path d="m254 302c0 4.96875-4.03125 9-9 9s-9-4.03125-9-9 4.03125-9 9-9 9 4.03125 9 9zm0 0" fill="#999cad"/><path d="m254 346c0 4.96875-4.03125 9-9 9s-9-4.03125-9-9 4.03125-9 9-9 9 4.03125 9 9zm0 0" fill="#999cad"/><path d="m389.6875 154.453125c-.753906-.753906-1.171875-1.757813-1.171875-2.824219 0-1.070312.417969-2.074218 1.171875-2.828125.753906-.757812 1.761719-1.171875 2.828125-1.171875 1.070313 0 2.074219.414063 2.828125 1.171875l35.738281 35.734375 8.054688-8.050781c.730469-.734375 1.027343-1.796875.773437-2.800781l-5.914062-23.65625c-.210938-.84375-.78125-1.550782-1.558594-1.933594-.78125-.382812-1.691406-.402344-2.488281-.050781-2.3125 1.011719-4.308594 1.113281-5.941407.300781-2.46875-1.230469-4.441406-4.707031-5.703124-10.054688-.195313-.820312-.730469-1.515624-1.472657-1.917968-.742187-.398438-1.617187-.460938-2.410156-.171875-2.117187.773437-3.953125.734375-5.457031-.113281-2.628906-1.484376-4.652344-5.53125-5.851563-11.699219-.183593-.945313-.816406-1.742188-1.699219-2.132813-.878906-.394531-1.894531-.328125-2.722656.171875-11.359375 6.863281-25.804687 2.328125-31.488281.058594-1.09375-.433594-2.34375-.179687-3.175781.65625-.835938.832031-1.089844 2.082031-.65625 3.175781 2.273437 5.6875 6.808594 20.128906-.058594 31.492188-.5.824218-.5625 1.839844-.171875 2.71875.390625.882812 1.183594 1.515625 2.132813 1.699218 6.164062 1.199219 10.207031 3.222657 11.691406 5.847657.851562 1.503906.890625 3.34375.121094 5.464843-.289063.789063-.226563 1.667969.175781 2.40625.398437.742188 1.097656 1.277344 1.917969 1.46875 5.34375 1.265626 8.816406 3.234376 10.050781 5.703126.816406 1.632812.714843 3.632812-.300781 5.945312-.351563.800781-.328126 1.71875.0625 2.5.386718.78125 1.105468 1.351562 1.953124 1.554688l23.875 5.695312c.996094.238281 2.046876-.058594 2.769532-.78125l7.835937-7.839844zm0 0" fill="#ef8318"/><path d="m435.1875 199.300781c-1.277344 0-2.558594-.488281-3.535156-1.464843l-42.671875-42.675782c-1.953125-1.949218-1.953125-5.117187 0-7.066406 1.953125-1.953125 5.121093-1.953125 7.070312 0l42.671875 42.671875c1.953125 1.953125 1.953125 5.117187 0 7.070313-.976562.976562-2.253906 1.464843-3.535156 1.464843zm0 0" fill="#8e5e3d"/><path d="m131.886719 115.011719c.4375-1.097657.179687-2.347657-.652344-3.179688-.835937-.832031-2.085937-1.089843-3.179687-.652343-5.683594 2.269531-20.128907 6.808593-31.488282-.0625-.824218-.5-1.839844-.5625-2.722656-.171876-.878906.390626-1.515625 1.1875-1.699219 2.132813-1.195312 6.164063-3.21875 10.207031-5.847656 11.691406-1.503906.851563-3.34375.890625-5.460937.121094-.789063-.289063-1.667969-.226563-2.410157.175781-.738281.402344-1.273437 1.097656-1.46875 1.917969-1.261719 5.34375-3.234375 8.820313-5.699219 10.050781-1.636718.816406-3.636718.714844-5.949218-.300781-.800782-.351563-1.714844-.328125-2.496094.0625-.785156.386719-1.355469 1.105469-1.554688 1.957031l-5.695312 23.875c-.238281.992188.058594 2.042969.78125 2.765625l7.835938 7.839844 35.738281-35.738281c.753906-.757813 1.761719-1.171875 2.828125-1.171875s2.074218.414062 2.828125 1.171875c.753906.753906 1.171875 1.757812 1.171875 2.828125 0 1.066406-.417969 2.070312-1.171875 2.828125l-35.738281 35.738281 8.054687 8.050781c.730469.734375 1.796875 1.027344 2.796875.777344l23.65625-5.914062c.84375-.210938 1.554688-.78125 1.933594-1.5625.382812-.78125.402344-1.6875.054687-2.484376-1.015625-2.3125-1.117187-4.3125-.300781-5.945312 1.230469-2.46875 4.707031-4.4375 10.050781-5.703125.820313-.191406 1.519531-.730469 1.917969-1.46875.398438-.742187.464844-1.621094.175781-2.414063-.773437-2.113281-.738281-3.953124.113281-5.457031 1.484376-2.625 5.527344-4.648437 11.699219-5.847656.945313-.1875 1.742188-.820313 2.132813-1.703125.390625-.875.324218-1.894531-.171875-2.71875-6.867188-11.359375-2.332031-25.804688-.0625-31.488281zm0 0" fill="#ea2a3d"/><path d="m60.074219 187.996094c-1.28125 0-2.558594-.488282-3.535157-1.464844-1.953124-1.953125-1.953124-5.121094 0-7.070312l42.671876-42.675782c1.949218-1.949218 5.117187-1.949218 7.070312 0 1.953125 1.953125 1.953125 5.121094 0 7.070313l-42.671875 42.675781c-.976563.976562-2.257813 1.464844-3.535156 1.464844zm0 0" fill="#b7092b"/></svg>