<?xml version="1.0" encoding="iso-8859-1"?>
<!-- Generator: Adobe Illustrator 19.0.0, SVG Export Plug-In . SVG Version: 6.00 Build 0)  -->
<svg version="1.1" id="Capa_1" xmlns="http://www.w3.org/2000/svg" xmlns:xlink="http://www.w3.org/1999/xlink" x="0px" y="0px"
	 viewBox="0 0 512 512" style="enable-background:new 0 0 512 512;" xml:space="preserve">
<circle style="fill:#EF7064;" cx="256" cy="256" r="256"/>
<path style="fill:#393A59;" d="M369.037,26.237L353.886,0H158.104l-15.151,26.248L60.217,169.556l70.217,309.582
	c6.886,3.887,13.97,7.471,21.243,10.71c3.166,1.421,6.363,2.769,9.603,4.054c10.585,4.221,21.525,7.753,32.758,10.553
	c6.238,1.546,12.56,2.873,18.965,3.939c3.469,0.596,6.959,1.118,10.48,1.557C234.13,511.31,244.987,512,256,512
	c11.013,0,21.859-0.69,32.496-2.048c3.521-0.439,7.011-0.951,10.48-1.546c6.405-1.076,12.727-2.393,18.965-3.939
	c11.233-2.8,22.183-6.343,32.778-10.574c3.239-1.275,6.437-2.633,9.603-4.044c7.262-3.25,14.336-6.823,21.222-10.7l70.228-309.593
	L369.037,26.237z"/>
<g>
	<path style="fill:#6A6577;" d="M343.301,18.338H168.699L79.694,172.502l71.983,317.346c3.166,1.421,6.363,2.769,9.603,4.054
		l-72.6-320.042l84.898-147.059h164.833l84.908,147.059l-72.6,320.031c3.239-1.275,6.437-2.633,9.603-4.044l71.983-317.346
		L343.301,18.338z"/>
	<path style="fill:#6A6577;" d="M321.306,56.424H190.673l-70.552,122.201l73.916,325.831c6.238,1.546,12.56,2.873,18.965,3.939
		c3.469,0.596,6.959,1.118,10.48,1.557C234.13,511.31,244.987,512,256,512s21.859-0.69,32.496-2.048
		c3.521-0.439,7.011-0.951,10.48-1.546c6.405-1.076,12.727-2.393,18.965-3.939l73.916-325.841L321.306,56.424z"/>
</g>
<path style="fill:#393A59;" d="M311.118,74.052H200.861l-62.015,107.405l74.156,326.938c3.469,0.596,6.959,1.118,10.48,1.557
	l-74.156-326.907l57.229-99.119h98.868l57.229,99.119l-74.156,326.907c3.521-0.439,7.011-0.951,10.48-1.546l74.156-326.949
	L311.118,74.052z"/>
<path style="fill:#F9D368;" d="M334.505,182.271v16.238c0,5.292-4.29,9.583-9.583,9.583h-41.641c-5.292,0-9.583,4.29-9.583,9.583
	v135.467c0,5.292-4.29,9.583-9.583,9.583h-16.238c-5.292,0-9.583-4.29-9.583-9.583V217.674c0-5.292-4.29-9.583-9.583-9.583h-41.655
	c-5.292,0-9.583-4.29-9.583-9.583v-16.238c0-5.292,4.29-9.583,9.583-9.583h41.655c5.292,0,9.583-4.29,9.583-9.583v-44.35
	c0-5.292,4.29-9.583,9.583-9.583h16.238c5.292,0,9.583,4.29,9.583,9.583v44.35c0,5.292,4.29,9.583,9.583,9.583h41.641
	C330.215,172.688,334.505,176.979,334.505,182.271z"/>
<g>
</g>
<g>
</g>
<g>
</g>
<g>
</g>
<g>
</g>
<g>
</g>
<g>
</g>
<g>
</g>
<g>
</g>
<g>
</g>
<g>
</g>
<g>
</g>
<g>
</g>
<g>
</g>
<g>
</g>
</svg>
