<?xml version="1.0" encoding="iso-8859-1"?>
<!-- Generator: Adobe Illustrator 19.0.0, SVG Export Plug-In . SVG Version: 6.00 Build 0)  -->
<svg version="1.1" id="Capa_1" xmlns="http://www.w3.org/2000/svg" xmlns:xlink="http://www.w3.org/1999/xlink" x="0px" y="0px"
	 viewBox="0 0 512 512" style="enable-background:new 0 0 512 512;" xml:space="preserve">
<circle style="fill:#393A59;" cx="256" cy="256" r="256"/>
<g>
	<path style="fill:#6A6577;" d="M480.298,379.486c-15.747,28.547-36.791,53.77-61.806,74.334h-29.863
		c-16.739,0-30.302-13.573-30.302-30.302c0-8.37-3.396-15.945-8.882-21.431c-5.475-5.475-13.061-8.871-21.42-8.871h-18.808
		c-16.739,0-30.302-13.573-30.302-30.302c0-8.37,3.385-15.945,8.871-21.431c5.486-5.475,13.061-8.871,21.431-8.871h135.837
		c16.729,0,30.302,13.563,30.302,30.302C475.355,369.037,477.174,374.732,480.298,379.486z"/>
	<path style="fill:#6A6577;" d="M512,256c0,3.26-0.063,6.499-0.178,9.728h-77.207c-16.739,0-30.302-13.573-30.302-30.302
		c0-16.739,13.563-30.302,30.302-30.302h10.815c16.739,0,30.302-13.573,30.302-30.302c0-10.418,5.256-19.602,13.26-25.057
		C503.766,182.126,512,218.102,512,256z"/>
	<path style="fill:#6A6577;" d="M318.642,151.886c0,16.729-13.573,30.302-30.302,30.302H111.282c-8.37,0-15.945-3.396-21.431-8.882
		c-5.486-5.486-8.871-13.051-8.871-21.42c0-16.739-13.573-30.302-30.302-30.302H38.087C80.906,52.318,155.826,4.984,242.092,0.376
		h5.026c8.359,0,15.945,3.396,21.42,8.871c5.486,5.486,8.882,13.061,8.882,21.431c0,16.729-13.573,30.302-30.302,30.302H228.31
		c-16.739,0-30.302,13.563-30.302,30.302c0,16.729,13.563,30.302,30.302,30.302h60.029c8.37,0,15.935,3.396,21.42,8.871
		C315.246,135.941,318.642,143.517,318.642,151.886z"/>
</g>
<path style="fill:#F9D368;" d="M185.49,407.05c-24.931,26.77-58.222,41.42-88.754,49.382c-4.838-3.856-9.54-7.879-14.085-12.069
	c-9.55-8.777-18.432-18.296-26.561-28.442c2.1-10.794,0.752-23.124-6.698-36.739c-34.68-63.457,35.61-159.138,115.179-118.617v0.021
	c5.078,2.57,10.177,5.695,15.297,9.435c0.01,0.01,0.021,0.01,0.021,0.01c11.682,8.537,20.125,19.592,25.506,31.974
	C219.92,335.444,212.104,378.462,185.49,407.05z"/>
<path style="fill:#E2BD55;" d="M90.697,379.183c15.172,27.763,5.036,50.155-8.046,65.181c-9.55-8.777-18.432-18.296-26.561-28.442
	c2.1-10.794,0.752-23.124-6.698-36.739c-32.11-58.744,25.746-145.095,97.656-125.45C96.716,267.901,65.087,332.319,90.697,379.183z"
	/>
<path style="fill:#E0554A;" d="M506.399,32.59l-74.449,74.449c-3.574,3.574-8.432,5.601-13.5,5.58l-37.083,0.021L236.241,257.766
	l-2.56,2.56l-16.018-16.039l-10.971-10.971l2.539-2.55L359.957,80.039c3.584-3.574,8.443-5.58,13.511-5.58l37.083-0.01L479.41,5.59
	c7.461-7.45,19.54-7.45,26.99,0c1.954,1.954,3.406,4.232,4.326,6.656C513.348,19.069,511.906,27.084,506.399,32.59z"/>
<path style="fill:#EF7064;" d="M506.399,32.59l-74.449,74.449c-3.574,3.574-8.432,5.601-13.5,5.58l-37.083,0.021L236.241,257.766
	l-2.56,2.56l-16.018-16.039l2.539-2.55L370.928,91.011c3.584-3.574,8.443-5.58,13.51-5.58l37.083-0.01l68.859-68.859
	c5.507-5.496,13.521-6.938,20.344-4.315C513.348,19.069,511.906,27.084,506.399,32.59z"/>
<g>
	<path style="fill:#E2BD55;" d="M119.453,297.221c-1.14,0-2.281-0.435-3.15-1.305c-1.74-1.74-1.739-4.561,0.001-6.3
		c38.314-38.301,66.682-25.945,70.106-24.233c1.496,0.718,2.529,2.248,2.529,4.018c0,2.46-1.994,4.454-4.454,4.454
		c-0.713,0-1.416-0.176-2.046-0.497c-1.094-0.553-25.197-12.072-59.837,22.558C121.732,296.787,120.593,297.221,119.453,297.221z"/>
	<path style="fill:#E2BD55;" d="M172.129,369.762c-1.14,0-2.28-0.435-3.15-1.304c-1.74-1.74-1.74-4.56,0-6.3
		c30.464-30.464,24.793-77.788,24.733-78.263c-0.312-2.439,1.409-4.671,3.847-4.986c2.446-0.32,4.671,1.402,4.987,3.84
		c0.275,2.112,6.349,52.092-27.268,85.709C174.409,369.328,173.269,369.762,172.129,369.762z"/>
	<path style="fill:#E2BD55;" d="M169.022,311.457c-0.908,0-1.823-0.277-2.614-0.852c-1.991-1.446-2.431-4.231-0.985-6.221
		l22.208-30.568c1.445-1.989,4.231-2.433,6.221-0.985c1.991,1.446,2.431,4.231,0.985,6.221l-22.208,30.569
		C171.758,310.819,170.4,311.457,169.022,311.457z"/>
</g>
<path style="fill:#F9D368;" d="M261.778,271.182l-23.322,12.737l-5.224,2.863l-5.235,2.863l-22.601,12.361
	c-4.253-9.78-10.407-18.735-18.568-26.248c-2.173-2.027-4.483-3.929-6.938-5.726c0,0-0.01,0-0.021-0.01
	c-5.12-3.741-10.219-6.865-15.297-9.435v-0.021l12.142-22.194l5.726-10.459l12.737-23.312l20.125,20.104l6.865,6.875l0.01,0.01
	l20.114,20.125L261.778,271.182z"/>
<path style="fill:#E2BD55;" d="M222.177,231.591l-35.349,44.168c-2.173-2.027-4.483-3.929-6.938-5.726c0,0-0.01,0-0.021-0.01
	c-5.12-3.741-10.219-6.865-15.297-9.435v-0.021l12.142-22.194l5.726-10.459l12.737-23.312l20.125,20.104l6.865,6.875
	L222.177,231.591z"/>
<polygon style="fill:#393A59;" points="238.459,283.923 233.23,286.786 227.999,289.65 176.711,238.375 182.438,227.914 "/>
<g>
</g>
<g>
</g>
<g>
</g>
<g>
</g>
<g>
</g>
<g>
</g>
<g>
</g>
<g>
</g>
<g>
</g>
<g>
</g>
<g>
</g>
<g>
</g>
<g>
</g>
<g>
</g>
<g>
</g>
</svg>
