<?xml version="1.0" encoding="iso-8859-1"?>
<!-- Generator: Adobe Illustrator 19.0.0, SVG Export Plug-In . SVG Version: 6.00 Build 0)  -->
<svg version="1.1" id="Capa_1" xmlns="http://www.w3.org/2000/svg" xmlns:xlink="http://www.w3.org/1999/xlink" x="0px" y="0px"
	 viewBox="0 0 512 512" style="enable-background:new 0 0 512 512;" xml:space="preserve">
<circle style="fill:#F9D368;" cx="256" cy="255.999" r="255.999"/>
<path style="fill:#FFE398;" d="M461.68,223.352c0,58.423-24.354,111.155-63.468,148.598c-12.954,12.408-27.536,23.129-43.387,31.826
	c-29.325,16.102-63.015,25.261-98.829,25.261c-35.814,0-69.488-9.151-98.813-25.253c-4.726-2.586-9.335-5.356-13.819-8.303
	c-10.579-6.927-20.476-14.818-29.577-23.532c-39.114-37.435-63.476-90.174-63.476-148.598c0-113.598,92.088-205.687,205.684-205.687
	S461.68,109.755,461.68,223.352z"/>
<g>
	<path style="fill:#EF7064;" d="M433,440.947c-16.123,15.444-34.273,28.787-53.999,39.612C342.503,500.6,300.572,512,255.998,512
		s-86.485-11.389-122.982-31.43c-19.728-10.815-37.876-24.168-54.01-39.622c16.374-41.566,56.193-71.325,103.172-72.996
		c1.379-0.063,2.779-0.094,4.18-0.094h139.293c1.4,0,2.8,0.031,4.18,0.094C376.807,369.622,416.627,399.381,433,440.947z"/>
	<path style="fill:#EF7064;" d="M379.001,435.085v45.474C342.503,500.6,300.572,512,255.998,512s-86.485-11.389-122.982-31.43
		v-45.484c0-30.856,20.783-56.874,49.161-64.742c5.747-1.64,11.786-2.487,18.056-2.487h111.531c6.28,0,12.319,0.846,18.066,2.487
		C358.197,378.212,379.001,404.229,379.001,435.085z"/>
</g>
<g>
	<path style="fill:#E0554A;" d="M230.44,367.857c-1.411,0-2.811,0.031-4.18,0.094c-57.426,2.038-104.154,46.059-110.444,102.285
		c-13.166-8.62-25.485-18.442-36.812-29.288c16.374-41.566,56.193-71.325,103.172-72.996c1.379-0.063,2.779-0.094,4.18-0.094H230.44
		z"/>
	<path style="fill:#E0554A;" d="M329.825,367.954v6.857c0,40.715-33.108,73.824-73.823,73.824s-73.823-33.109-73.823-73.824v-6.857
		c1.371-0.065,2.775-0.098,4.18-0.098h139.288C327.05,367.856,328.454,367.888,329.825,367.954z"/>
</g>
<g>
	<path style="fill:#E5BAAA;" d="M310.228,316.559v58.253c0,29.949-24.278,54.227-54.227,54.227l0,0
		c-29.949,0-54.227-24.278-54.227-54.227v-58.253H310.228z"/>
	<circle style="fill:#E5BAAA;" cx="138.93" cy="221.267" r="33.52"/>
	<circle style="fill:#E5BAAA;" cx="373.07" cy="221.267" r="33.52"/>
</g>
<path style="fill:#F9D0BE;" d="M376.734,145.056v102.378c0,33.341-13.507,63.525-35.353,85.371
	c-21.86,21.86-52.044,35.368-85.385,35.368c-66.68,0-120.738-54.059-120.738-120.74V145.055c0-66.681,54.058-120.74,120.738-120.74
	C322.69,24.316,376.734,78.375,376.734,145.056z"/>
<g>
	<path style="fill:#E5BAAA;" d="M170.24,247.432V145.055c0-60.739,44.859-110.987,103.248-119.463
		c-5.712-0.83-11.549-1.277-17.493-1.277c-66.68,0-120.738,54.059-120.738,120.74v102.378c0,66.681,54.058,120.74,120.738,120.74
		c5.943,0,11.78-0.448,17.494-1.277C215.1,358.42,170.24,308.172,170.24,247.432z"/>
	<path style="fill:#E5BAAA;" d="M256.001,258.375L256.001,258.375c-6.745,0-12.213-5.468-12.213-12.213v-95.776l24.425-19.694
		v115.47C268.214,252.907,262.746,258.375,256.001,258.375z"/>
	<ellipse style="fill:#E5BAAA;" cx="304.734" cy="211.184" rx="23.739" ry="34.092"/>
	<ellipse style="fill:#E5BAAA;" cx="207.256" cy="211.184" rx="23.739" ry="34.092"/>
</g>
<g>
	<path style="fill:#393A59;" d="M316.101,223.664v-23.14c0-6.035-4.892-10.928-10.928-10.928l0,0
		c-6.035,0-10.928,4.892-10.928,10.928v23.14c0,6.035,4.892,10.928,10.928,10.928l0,0
		C311.209,234.592,316.101,229.698,316.101,223.664z"/>
	<path style="fill:#393A59;" d="M195.901,200.523v23.14c0,6.035,4.892,10.928,10.928,10.928l0,0c6.035,0,10.928-4.892,10.928-10.928
		v-23.14c0-6.035-4.892-10.928-10.928-10.928l0,0C200.793,189.595,195.901,194.489,195.901,200.523z"/>
</g>
<g>
	<circle style="fill:#7F7D89;" cx="308.966" cy="204.58" r="7.139"/>
	<circle style="fill:#7F7D89;" cx="210.62" cy="204.58" r="7.139"/>
	<circle style="fill:#7F7D89;" cx="300.983" cy="221.539" r="4.105"/>
	<circle style="fill:#7F7D89;" cx="202.637" cy="221.539" r="4.105"/>
</g>
<path style="fill:#393A59;" d="M311.696,323.939c0,3.941-3.198,7.14-7.139,7.14h-89.954c-1.971,0-3.755-0.799-5.054-2.085
	c-1.285-1.299-2.085-3.085-2.085-5.054c0-28.786,23.33-52.117,52.116-52.117c14.392,0,27.415,5.825,36.852,15.264
	C305.871,296.524,311.696,309.546,311.696,323.939z"/>
<path style="fill:#E87BC2;" d="M302.714,331.076h-86.266c4.253-6.269,9.853-11.546,16.363-15.444
	c7.826-4.702,16.98-7.398,26.77-7.398c9.78,0,18.934,2.685,26.749,7.387c3.688,2.194,7.084,4.848,10.104,7.879
	C298.764,325.82,300.854,328.37,302.714,331.076z"/>
<path style="fill:#F497D4;" d="M286.33,315.622c-7.826,4.702-16.969,7.387-26.749,7.387c-9.791,0-18.944-2.696-26.77-7.377
	c7.826-4.702,16.98-7.398,26.77-7.398C269.361,308.235,278.514,310.92,286.33,315.622z"/>
<path style="fill:#393A59;" d="M376.734,145.056v42.507c-49.361-4.012-74.319-77.575-74.319-77.575s-37.352,69.394-132.175,77.562
	c-10.894,0.942-22.546,1.071-34.982,0.2v-42.693c0-66.681,54.058-120.74,120.738-120.74c1.043,0,2.085,0.015,3.113,0.043
	c0.685,0.015,1.356,0.043,2.042,0.071c0.499,0.015,0.985,0.043,1.485,0.071c1.142,0.057,2.284,0.143,3.427,0.242
	c0.499,0.028,1,0.071,1.513,0.129c0.542,0.057,1.071,0.114,1.599,0.171c1.442,0.157,2.884,0.328,4.312,0.542
	c-0.03,0.004-0.061,0.01-0.091,0.016C331.844,34.028,376.734,84.287,376.734,145.056z"/>
<path style="fill:#282942;" d="M273.487,25.586C215.103,34.068,170.24,84.314,170.24,145.056v42.493
	c-10.894,0.942-22.546,1.071-34.982,0.2v-42.693c0-66.681,54.058-120.74,120.738-120.74c1.043,0,2.085,0.015,3.113,0.043
	c0.685,0.015,1.356,0.043,2.042,0.071c0.499,0.015,0.985,0.043,1.485,0.071c1.142,0.057,2.284,0.143,3.427,0.242
	c0.499,0.028,1,0.071,1.513,0.129c0.542,0.057,1.071,0.114,1.599,0.171C270.617,25.201,272.059,25.372,273.487,25.586z"/>
<g>
</g>
<g>
</g>
<g>
</g>
<g>
</g>
<g>
</g>
<g>
</g>
<g>
</g>
<g>
</g>
<g>
</g>
<g>
</g>
<g>
</g>
<g>
</g>
<g>
</g>
<g>
</g>
<g>
</g>
</svg>
