<?xml version="1.0" encoding="iso-8859-1"?>
<!-- Generator: Adobe Illustrator 19.0.0, SVG Export Plug-In . SVG Version: 6.00 Build 0)  -->
<svg version="1.1" id="Capa_1" xmlns="http://www.w3.org/2000/svg" xmlns:xlink="http://www.w3.org/1999/xlink" x="0px" y="0px"
	 viewBox="0 0 512 512" style="enable-background:new 0 0 512 512;" xml:space="preserve">
<circle style="fill:#33B5C6;" cx="256" cy="256" r="256"/>
<rect x="182.669" y="51.169" style="fill:#D9D9D9;" width="146.662" height="196.169"/>
<g>
	<path style="fill:#EDEDED;" d="M329.324,102.34v144.997H223.603V131.986c0-16.376,13.27-29.646,29.646-29.646H329.324z"/>
	<path style="fill:#EDEDED;" d="M482.847,344.566c0,11.985-0.93,23.749-2.727,35.234c-19.675,35.568-47.585,65.954-81.157,88.597
		C358.139,495.929,308.955,512,256,512c-53.091,0-102.41-16.165-143.297-43.833c-33.426-22.622-61.221-52.924-80.844-88.388
		c-1.787-11.473-2.717-23.239-2.717-35.213c0-125.294,101.564-226.858,226.858-226.858
		C381.283,117.708,482.847,219.272,482.847,344.566z"/>
</g>
<path style="fill:#D9D9D9;" d="M316.332,504.853C296.991,509.524,276.783,512,256,512c-53.091,0-102.41-16.165-143.297-43.833
	c-33.426-22.622-61.21-52.914-80.844-88.378c0,0,0,0,0-0.01c-1.787-11.473-2.717-23.239-2.717-35.213
	c0-95.033,58.441-176.4,141.343-210.16c-32.893,39.361-52.694,90.039-52.694,145.345
	C117.791,395.452,204.403,490.914,316.332,504.853z"/>
<path style="fill:#8E5EBC;" d="M445.315,346.593c-0.491,46.467-17.91,89.036-46.352,121.804C358.139,495.929,308.955,512,256,512
	c-53.091,0-102.41-16.165-143.297-43.833c-28.672-33.196-46.028-76.413-46.028-123.601c0-19.686,3.03-38.672,8.62-56.539
	c1.348-4.253,5.831-6.666,10.094-5.381c11.776,3.532,22.12,7.565,32.841,11.473c24.137,8.788,50.092,16.896,98.001,16.896
	c104.626,0,104.626-38.661,209.241-38.661h0.052c3.354,0,6.374,2.079,7.565,5.224C441.219,299.008,445.576,322.288,445.315,346.593z
	"/>
<path style="fill:#EDEDED;" d="M340.996,0.001H170.998c-12.46,0-22.561,10.101-22.561,22.561v35.884
	c0,12.46,10.101,22.561,22.561,22.561h169.999c12.46,0,22.561-10.101,22.561-22.561V22.562
	C363.558,10.102,353.457,0.001,340.996,0.001z"/>
<path style="fill:#D9D9D9;" d="M217.655,56.455V24.554C217.655,10.993,228.648,0,242.208,0h-69.22
	c-13.561,0-24.553,10.993-24.553,24.554v31.901c0,13.561,10.992,24.554,24.553,24.554h69.22
	C228.649,81.009,217.655,70.015,217.655,56.455z"/>
<g>
	<circle style="fill:#7C49A8;" cx="294.421" cy="377.825" r="21.32"/>
	<circle style="fill:#7C49A8;" cx="221.508" cy="441.354" r="33.688"/>
	<circle style="fill:#7C49A8;" cx="324.263" cy="436.663" r="18.762"/>
</g>
<g>
	<circle style="fill:#D9D9D9;" cx="294.097" cy="237.108" r="18.762"/>
	<circle style="fill:#D9D9D9;" cx="232.166" cy="279.751" r="18.762"/>
	<circle style="fill:#D9D9D9;" cx="228.791" cy="209.857" r="27.335"/>
</g>
<path style="fill:#7C49A8;" d="M316.332,504.853C296.991,509.524,276.783,512,256,512c-53.091,0-102.41-16.165-143.297-43.833
	c-28.672-33.196-46.028-76.413-46.028-123.601c0-19.686,3.03-38.672,8.62-56.539c1.348-4.253,5.831-6.666,10.094-5.381
	c11.776,3.532,22.12,7.565,32.841,11.473C125.064,403.278,209.084,491.499,316.332,504.853z"/>
<g>
	<circle style="fill:#F0F0F0;" cx="382.255" cy="226.868" r="32.413"/>
	<circle style="fill:#F0F0F0;" cx="322.32" cy="38.589" r="20.982"/>
</g>
<g>
</g>
<g>
</g>
<g>
</g>
<g>
</g>
<g>
</g>
<g>
</g>
<g>
</g>
<g>
</g>
<g>
</g>
<g>
</g>
<g>
</g>
<g>
</g>
<g>
</g>
<g>
</g>
<g>
</g>
</svg>
