<?xml version="1.0" encoding="iso-8859-1"?>
<!-- Generator: Adobe Illustrator 19.0.0, SVG Export Plug-In . SVG Version: 6.00 Build 0)  -->
<svg version="1.1" id="Capa_1" xmlns="http://www.w3.org/2000/svg" xmlns:xlink="http://www.w3.org/1999/xlink" x="0px" y="0px"
	 viewBox="0 0 511.996 511.996" style="enable-background:new 0 0 511.996 511.996;" xml:space="preserve">
<circle style="fill:#393A59;" cx="256.04" cy="255.998" r="255.956"/>
<path style="fill:#6A6577;" d="M194.197,102.709c0,16.726-13.56,30.297-30.297,30.297H31.524
	c13.916-25.355,32.01-48.099,53.354-67.301c5.192,4.2,11.805,6.707,19.003,6.707H163.9c8.368,0,15.942,3.385,21.427,8.87
	C190.812,86.766,194.197,94.34,194.197,102.709z"/>
<g>
	<path style="fill:#F9D368;" d="M417.118,307.47l5.762,11.675c0.426,0.864,1.251,1.463,2.203,1.601l12.885,1.872
		c2.4,0.349,3.359,3.298,1.621,4.991l-9.323,9.088c-0.69,0.672-1.004,1.641-0.842,2.59l2.201,12.832
		c0.41,2.39-2.099,4.213-4.246,3.085l-11.524-6.058c-0.852-0.448-1.871-0.448-2.724,0l-11.524,6.058
		c-2.147,1.128-4.655-0.695-4.246-3.085l2.201-12.832c0.163-0.95-0.151-1.918-0.841-2.59l-9.323-9.088
		c-1.736-1.692-0.778-4.643,1.621-4.991l12.885-1.872c0.953-0.139,1.777-0.738,2.203-1.601l5.762-11.675
		C412.943,305.295,416.045,305.295,417.118,307.47z"/>
	<path style="fill:#F9D368;" d="M179.991,175.775l5.762,11.675c0.426,0.864,1.251,1.463,2.203,1.601l12.885,1.872
		c2.4,0.349,3.359,3.298,1.621,4.991l-9.323,9.088c-0.69,0.672-1.004,1.641-0.842,2.59l2.201,12.832
		c0.41,2.39-2.099,4.213-4.246,3.085l-11.524-6.058c-0.852-0.448-1.871-0.448-2.724,0l-11.524,6.058
		c-2.147,1.128-4.655-0.695-4.246-3.085l2.201-12.832c0.163-0.95-0.151-1.918-0.841-2.59l-9.323-9.088
		c-1.736-1.692-0.778-4.643,1.621-4.991l12.885-1.872c0.953-0.139,1.777-0.738,2.203-1.601l5.762-11.675
		C175.816,173.6,178.917,173.6,179.991,175.775z"/>
</g>
<g>
	<path style="fill:#6A6577;" d="M233.51,264.577c0,16.736-13.571,30.297-30.297,30.297H75.392
		c-16.736,0-30.297-13.571-30.297-30.297c0-8.368-3.395-15.942-8.88-21.427c-5.474-5.474-13.059-8.87-21.417-8.87H1.008
		c1.755-21.03,6.07-41.329,12.61-60.594h118.189c16.726,0,30.297,13.56,30.297,30.297c0,16.726,13.56,30.297,30.297,30.297h10.813
		C219.939,234.281,233.51,247.841,233.51,264.577z"/>
	<path style="fill:#6A6577;" d="M511.342,237.477H383.814c-16.736,0-30.297-13.571-30.297-30.297c0-8.368-3.395-15.942-8.88-21.427
		c-5.474-5.474-13.059-8.87-21.417-8.87h-18.805c-16.736,0-30.297-13.571-30.297-30.297c0-8.368,3.385-15.942,8.87-21.427
		c5.485-5.474,13.059-8.87,21.427-8.87h135.813c16.726,0,30.297,13.56,30.297,30.297c0,16.287,12.86,29.586,29.001,30.266
		C505.795,196.148,509.838,216.468,511.342,237.477z"/>
</g>
<path style="fill:#F9D368;" d="M360.119,186.052c-35.593,75.207-125.117,107.558-200.482,72.706
	C83.701,223.643,50.481,132.072,86.27,56.451c3.722-7.865,8.035-15.259,12.86-22.157c4.53-6.476-3.037-14.471-9.716-10.247
	c-29.848,18.881-54.852,46.208-71.006,80.55c-45.218,96.128-4.301,210.123,91.721,255.566
	c95.961,45.414,210.567,4.437,255.981-91.524c16.168-34.164,21.383-70.691,17.067-105.617c-0.965-7.814-11.951-8.54-14.079-0.958
	C366.824,170.166,363.841,178.189,360.119,186.052z"/>
<path style="fill:#6A6577;" d="M284.252,451.645c0,16.726-13.56,30.297-30.297,30.297H135.682
	C71.746,447.821,24.002,387.342,6.931,315.027c5.276-8.901,14.981-14.866,26.076-14.866h135.813c8.368,0,15.932,3.385,21.417,8.87
	c5.485,5.485,8.88,13.059,8.88,21.427c0,16.726-13.571,30.297-30.297,30.297h-18.805c-16.736,0-30.297,13.56-30.297,30.297
	c0,16.726,13.56,30.297,30.297,30.297h103.939c8.368,0,15.942,3.385,21.427,8.87S284.252,443.277,284.252,451.645z"/>
<path style="fill:#F9D368;" d="M283.742,46.878l5.762,11.675c0.426,0.864,1.251,1.463,2.203,1.601l12.885,1.872
	c2.4,0.349,3.359,3.298,1.621,4.991l-9.323,9.088c-0.69,0.672-1.004,1.641-0.842,2.59l2.201,12.832
	c0.41,2.39-2.099,4.213-4.246,3.085l-11.524-6.058c-0.853-0.448-1.871-0.448-2.724,0l-11.524,6.058
	c-2.147,1.128-4.655-0.695-4.246-3.085l2.201-12.832c0.163-0.95-0.151-1.918-0.841-2.59l-9.323-9.088
	c-1.736-1.692-0.778-4.643,1.621-4.991l12.885-1.872c0.953-0.139,1.777-0.738,2.203-1.601l5.762-11.675
	C279.567,44.704,282.668,44.704,283.742,46.878z"/>
<path style="fill:#6A6577;" d="M498.659,337.77c-18.815,55.851-56.383,103.082-105.214,134.205
	c-5.464-7.867-14.574-13.017-24.875-13.017h-18.805c-8.368,0-15.942-3.395-21.427-8.88c-5.474-5.474-8.87-13.059-8.87-21.417
	c0-16.736,13.56-30.297,30.297-30.297h18.805c8.368,0,15.932-3.395,21.417-8.88c5.485-5.474,8.88-13.059,8.88-21.417
	c0-16.736,13.56-30.297,30.297-30.297L498.659,337.77L498.659,337.77z"/>
<g>
</g>
<g>
</g>
<g>
</g>
<g>
</g>
<g>
</g>
<g>
</g>
<g>
</g>
<g>
</g>
<g>
</g>
<g>
</g>
<g>
</g>
<g>
</g>
<g>
</g>
<g>
</g>
<g>
</g>
</svg>
