<?xml version="1.0" encoding="iso-8859-1"?>
<!-- Generator: Adobe Illustrator 19.0.0, SVG Export Plug-In . SVG Version: 6.00 Build 0)  -->
<svg version="1.1" id="Capa_1" xmlns="http://www.w3.org/2000/svg" xmlns:xlink="http://www.w3.org/1999/xlink" x="0px" y="0px"
	 viewBox="0 0 512 512" style="enable-background:new 0 0 512 512;" xml:space="preserve">
<circle style="fill:#393A59;" cx="256" cy="256" r="256"/>
<rect x="248.163" y="88.691" style="fill:#E0554A;" width="15.672" height="51.722"/>
<path style="fill:#6A6577;" d="M505.448,198.228h-89.057c-16.739,0-30.302-13.573-30.302-30.302c0-8.37-3.396-15.945-8.882-21.431
	c-5.475-5.475-13.061-8.871-21.42-8.871H336.98c-16.739,0-30.302-13.573-30.302-30.302c0-8.37,3.385-15.945,8.871-21.431
	c5.486-5.475,13.061-8.871,21.431-8.871h102.045c1.17,1.191,2.33,2.403,3.479,3.626
	C472.983,113.048,495.114,153.381,505.448,198.228z"/>
<rect x="97.698" y="51.079" style="fill:#D9D9D9;" width="316.594" height="50.153"/>
<g>
	<path style="fill:#6A6577;" d="M178.657,267.88c0,16.739-13.573,30.302-30.302,30.302H3.459C1.181,284.463,0,270.367,0,256
		c0-51.513,15.214-99.474,41.409-139.63h65.714c8.37,0,15.945,3.396,21.431,8.882c5.486,5.475,8.871,13.061,8.871,21.42
		c0,16.739-13.563,30.302-30.302,30.302H88.315c-16.729,0-30.302,13.573-30.302,30.302c0,16.739,13.573,30.302,30.302,30.302h60.04
		c8.359,0,15.945,3.396,21.42,8.882C175.261,251.935,178.657,259.521,178.657,267.88z"/>
	<path style="fill:#6A6577;" d="M512,256c0,17.669-1.797,34.931-5.214,51.597h-6.28c-16.729,0-30.302,13.563-30.302,30.302
		c0,12.1,7.095,22.538,17.356,27.397c-11.024,23.322-25.464,44.711-42.695,63.509h-61.388c-8.359,0-15.945-3.396-21.42-8.882
		c-5.486-5.486-8.882-13.051-8.882-21.42c0-16.739-13.563-30.302-30.302-30.302h-18.808c-8.359,0-15.945-3.396-21.42-8.882
		c-5.486-5.486-8.882-13.051-8.882-21.42c0-16.739,13.573-30.302,30.302-30.302h18.808c8.37,0,15.945-3.396,21.431-8.882
		s8.871-13.051,8.871-21.42c0-16.739,13.573-30.302,30.302-30.302h128.366C511.948,249.981,512,252.98,512,256z"/>
</g>
<g>
	<path style="fill:#E0554A;" d="M418.544,304.974v94.041h-72.38c-10.644,0-20.114-6.679-23.768-16.677
		c-10.315-28.225-37.406-48.368-69.207-48.368c-31.792,0-58.881,20.145-69.196,48.368c-3.654,9.998-13.124,16.677-23.768,16.677
		h-72.38v-94.041H418.544z"/>
	<path style="fill:#E0554A;" d="M418.544,416.256v37.522c-5.413,4.462-11.013,8.694-16.792,12.695
		c-33.677,23.374-73.226,38.87-116.005,43.813h-59.496c-42.778-4.942-82.328-20.438-116.015-43.813
		c-7.795-5.402-15.266-11.233-22.392-17.45v-32.768h72.38c10.648,0,20.114,6.677,23.771,16.677
		c10.313,28.212,37.397,48.358,69.193,48.358s58.89-20.146,69.204-48.358c3.657-10,13.124-16.677,23.771-16.677H418.544z"/>
</g>
<g>
	<path style="fill:#EF7064;" d="M110.237,44.805v421.669c-14.796-10.261-28.453-22.047-40.741-35.119V44.805H110.237z"/>
	<path style="fill:#EF7064;" d="M442.504,44.805v386.55c-12.288,13.082-25.955,24.858-40.751,35.119V44.805H442.504z"/>
</g>
<polygon style="fill:#EDEDED;" points="379.81,123.173 379.81,185.866 132.18,225.05 132.18,123.173 "/>
<path style="fill:#E87BC2;" d="M379.81,165.031v20.835L132.18,225.05v-22.403c0,0,11.672-32.047,52.767-32.047
	s39.006,23.688,83.592,12.539C313.125,171.99,322.508,142.043,379.81,165.031z"/>
<path style="fill:#EF7064;" d="M453.898,65.184H58.095c-6.257,0-11.329-5.072-11.329-11.329V27.927
	c0-6.257,5.072-11.329,11.329-11.329h395.803c6.257,0,11.329,5.072,11.329,11.329v25.928
	C465.227,60.112,460.155,65.184,453.898,65.184z"/>
<g>
</g>
<g>
</g>
<g>
</g>
<g>
</g>
<g>
</g>
<g>
</g>
<g>
</g>
<g>
</g>
<g>
</g>
<g>
</g>
<g>
</g>
<g>
</g>
<g>
</g>
<g>
</g>
<g>
</g>
</svg>
