<?xml version="1.0" encoding="iso-8859-1"?>
<!-- Generator: Adobe Illustrator 19.0.0, SVG Export Plug-In . SVG Version: 6.00 Build 0)  -->
<svg version="1.1" id="Capa_1" xmlns="http://www.w3.org/2000/svg" xmlns:xlink="http://www.w3.org/1999/xlink" x="0px" y="0px"
	 viewBox="0 0 512 512" style="enable-background:new 0 0 512 512;" xml:space="preserve">
<circle style="fill:#4E4D68;" cx="256.003" cy="258.448" r="253.552"/>
<path style="fill:#6A6577;" d="M155.053,310.193c0,16.579-13.433,30.012-30.012,30.012H15.919
	C7.185,314.56,2.445,287.052,2.445,258.448c0-34.856,7.037-68.076,19.767-98.316h62.001c8.29,0,15.782,3.363,21.216,8.786
	c5.433,5.433,8.797,12.936,8.797,21.226c0,16.579-13.443,30.012-30.012,30.012H65.585c-16.579,0-30.012,13.433-30.012,30.012
	s13.433,30.012,30.012,30.012h59.455c8.29,0,15.793,3.363,21.226,8.786C151.699,294.4,155.053,301.903,155.053,310.193z"/>
<g>
	<path style="fill:#282942;" d="M478.13,380.794C434.964,459.023,351.664,512,255.997,512c-35.032,0-68.407-7.099-98.751-19.953
		c-16.641-7.037-32.372-15.803-46.964-26.08c-4.605-3.239-9.086-6.623-13.454-10.152c-25.542-20.615-47.006-46.084-62.974-75.02
		H478.13z"/>
	<path style="fill:#282942;" d="M116.189,321.339H104.68c-1.871,0-3.387-1.517-3.387-3.387v-12.37c0-1.871-1.517-3.387-3.387-3.387
		h-9.783c-1.871,0-3.387,1.517-3.387,3.387v12.37c0,1.871-1.517,3.387-3.387,3.387H69.84c-1.871,0-3.387,1.517-3.387,3.387v9.783
		c0,1.871,1.517,3.387,3.387,3.387h11.508c1.871,0,3.387,1.517,3.387,3.387v51.697c0,1.871,1.517,3.387,3.387,3.387h9.783
		c1.871,0,3.387-1.517,3.387-3.387v-51.697c0-1.871,1.517-3.387,3.387-3.387h11.508c1.871,0,3.387-1.517,3.387-3.387v-9.783
		C119.576,322.856,118.059,321.339,116.189,321.339z"/>
	<path style="fill:#282942;" d="M452.059,321.339H440.55c-1.871,0-3.387-1.517-3.387-3.387v-12.37c0-1.871-1.517-3.387-3.387-3.387
		h-9.783c-1.871,0-3.387,1.517-3.387,3.387v12.37c0,1.871-1.517,3.387-3.387,3.387H405.71c-1.871,0-3.387,1.517-3.387,3.387v9.783
		c0,1.871,1.517,3.387,3.387,3.387h11.508c1.871,0,3.387,1.517,3.387,3.387v51.697c0,1.871,1.517,3.387,3.387,3.387h9.783
		c1.871,0,3.387-1.517,3.387-3.387v-51.697c0-1.871,1.517-3.387,3.387-3.387h11.508c1.871,0,3.387-1.517,3.387-3.387v-9.783
		C455.447,322.856,453.93,321.339,452.059,321.339z"/>
	<path style="fill:#282942;" d="M177.751,340.658h-11.508c-1.871,0-3.387-1.517-3.387-3.387v-12.371
		c0-1.871-1.517-3.387-3.387-3.387h-9.783c-1.871,0-3.387,1.517-3.387,3.387v12.37c0,1.871-1.517,3.387-3.387,3.387h-11.508
		c-1.871,0-3.387,1.517-3.387,3.387v9.783c0,1.871,1.517,3.387,3.387,3.387h11.508c1.871,0,3.387,1.517,3.387,3.387v51.697
		c0,1.871,1.517,3.387,3.387,3.387h9.783c1.871,0,3.387-1.517,3.387-3.387v-51.695c0-1.871,1.517-3.387,3.387-3.387h11.508
		c1.871,0,3.387-1.517,3.387-3.387v-9.783C181.139,342.174,179.622,340.658,177.751,340.658z"/>
	<path style="fill:#282942;" d="M392.323,359.286h-11.508c-1.871,0-3.387-1.517-3.387-3.387v-12.371
		c0-1.871-1.517-3.387-3.387-3.387h-9.783c-1.871,0-3.387,1.517-3.387,3.387v12.37c0,1.871-1.517,3.387-3.387,3.387h-11.508
		c-1.871,0-3.387,1.517-3.387,3.387v9.783c0,1.871,1.517,3.387,3.387,3.387h11.508c1.871,0,3.387,1.517,3.387,3.387v51.697
		c0,1.871,1.517,3.387,3.387,3.387h9.783c1.871,0,3.387-1.517,3.387-3.387v-51.695c0-1.871,1.517-3.387,3.387-3.387h11.508
		c1.871,0,3.387-1.517,3.387-3.387v-9.783C395.71,360.802,394.194,359.286,392.323,359.286z"/>
</g>
<g>
	<path style="fill:#6A6577;" d="M509.55,258.448c0,4.026-0.093,8.031-0.279,12.015h-88.723c-16.579,0-30.012-13.443-30.012-30.012
		c0-8.29-3.363-15.793-8.797-21.226c-5.423-5.423-12.936-8.786-21.216-8.786h-18.628c-16.579,0-30.012-13.443-30.012-30.012
		c0-8.29,3.353-15.793,8.786-21.226c5.433-5.423,12.936-8.786,21.226-8.786h134.538c3.426,0,6.717,0.569,9.78,1.635
		C501.188,184.4,509.55,220.456,509.55,258.448z"/>
	<path style="fill:#6A6577;" d="M366.329,102.456c0,16.569-13.443,30.012-30.012,30.012H160.941c-8.29,0-15.782-3.363-21.216-8.797
		c-5.433-5.423-8.797-12.936-8.797-21.216c0-16.579-13.433-30.012-30.012-30.012H83.696C128.931,30.519,189.463,4.895,255.997,4.895
		c17.531,0,34.638,1.78,51.166,5.164c-3.591,1.521-7.534,2.36-11.684,2.36h-18.628c-16.569,0-30.012,13.433-30.012,30.012
		c0,16.569,13.443,30.012,30.012,30.012h59.466c8.29,0,15.782,3.353,21.216,8.786C362.965,86.663,366.329,94.166,366.329,102.456z"
		/>
</g>
<g>
	<path style="fill:#393A59;" d="M407.425,461.838C365.17,493.351,312.762,512,255.997,512c-32.372,0-63.316-6.065-91.776-17.117
		l40.03-182.34l-39.326-122.119l65.199,34.152l61.06-79.688v130.398l70.374,47.606l-10.349,57.955L407.425,461.838z"/>
	<polygon style="fill:#393A59;" points="277.73,215.261 348.622,144.37 330.511,50.71 356.383,104.526 389.501,24.838 
		376.047,4.896 403.989,22.768 392.605,55.885 470.223,18.628 405.024,73.478 490.922,115.91 403.989,105.561 395.71,171.795 
		301.533,312.542 	"/>
	<polygon style="fill:#393A59;" points="250.823,219.4 239.439,104.526 197.008,49.676 233.229,73.478 216.671,5.175 
		262.207,84.862 289.114,57.955 265.312,117.98 281.87,184.214 	"/>
	<polygon style="fill:#393A59;" points="191.833,229.75 114.215,202.842 124.564,89.002 165.96,89.002 129.739,66.234 
		161.821,4.896 122.795,42.664 117.32,0 106.833,53.391 95.587,10.349 86.273,92.107 11.759,46.571 97.139,131.951 77.993,199.737 
		50.568,227.162 100.761,220.435 204.252,312.542 	"/>
	<polygon style="fill:#393A59;" points="190.798,211.121 179.414,142.817 147.332,127.294 187.694,127.294 191.833,72.444 
		230.125,224.575 	"/>
	<polygon style="fill:#393A59;" points="188.293,385.243 124.564,338.415 106.971,279.425 110.075,330.136 41.771,300.123 
		133.878,363.253 108.006,372.567 160.786,381.881 208.392,429.487 	"/>
</g>
<g>
	<ellipse style="fill:#E0554A;" cx="244.619" cy="353.421" rx="13.454" ry="23.285"/>
	<ellipse style="fill:#E0554A;" cx="295.329" cy="353.421" rx="9.483" ry="16.413"/>
	<polygon style="fill:#E0554A;" points="197.028,476.999 228.489,407.24 273.627,418.182 331.076,388.09 358.433,445.539 
		325.604,444.172 325.604,489.311 268.156,464.689 261.317,494.781 233.96,468.793 	"/>
</g>
<g>
</g>
<g>
</g>
<g>
</g>
<g>
</g>
<g>
</g>
<g>
</g>
<g>
</g>
<g>
</g>
<g>
</g>
<g>
</g>
<g>
</g>
<g>
</g>
<g>
</g>
<g>
</g>
<g>
</g>
</svg>
