<?xml version="1.0" encoding="iso-8859-1"?>
<!-- Generator: Adobe Illustrator 19.0.0, SVG Export Plug-In . SVG Version: 6.00 Build 0)  -->
<svg version="1.1" id="Capa_1" xmlns="http://www.w3.org/2000/svg" xmlns:xlink="http://www.w3.org/1999/xlink" x="0px" y="0px"
	 viewBox="0 0 511.998 511.998" style="enable-background:new 0 0 511.998 511.998;" xml:space="preserve">
<circle style="fill:#C69478;" cx="255.999" cy="255.998" r="255.998"/>
<circle style="fill:#393A59;" cx="255.999" cy="255.998" r="255.998"/>
<path style="fill:#4E4D68;" d="M461.685,223.353c0,58.423-24.355,111.155-63.469,148.597
	c-12.954,12.408-27.537,23.129-43.387,31.826c-29.325,16.102-63.015,25.261-98.83,25.261s-69.488-9.151-98.813-25.253
	c-4.727-2.586-9.336-5.356-13.819-8.303c-10.578-6.927-20.477-14.818-29.577-23.532c-39.113-37.434-63.477-90.174-63.477-148.597
	c0-113.597,92.088-205.686,205.686-205.686S461.685,109.755,461.685,223.353z"/>
<path style="fill:#E87BC2;" d="M387.252,168.74v258.194l-20.396-9.637v39.624H134.164v-28.912l-9.408,4.967V168.74
	c0-29.21,9.546-56.221,25.684-78.015c16.161-21.815,38.916-38.435,65.31-46.928c12.682-4.098,26.188-6.295,40.243-6.295h0.023
	C328.489,37.502,387.252,96.265,387.252,168.74z"/>
<path style="fill:#D863BB;" d="M253.521,456.922c0.686,3.045,1.076,4.693,1.076,4.693l-82.112-4.693l-38.32-2.197V428.01
	l-9.408,4.967V168.74c0-29.21,9.546-56.221,25.684-78.015c16.161-21.815,38.916-38.435,65.31-46.928
	c12.682-4.098,26.188-6.295,40.243-6.295h0.023c0,0-41.548,17.397-44.937,120.684C207.988,252.156,246.516,426.201,253.521,456.922z
	"/>
<g>
	<path style="fill:#F9D368;" d="M188.533,372.118h50.353v139.315c-20.041-1.317-39.434-4.942-57.939-10.616
		c-8.119-2.487-16.06-5.36-23.813-8.61c-0.021-0.01-0.042-0.021-0.063-0.031c-4.921-2.058-9.749-4.263-14.503-6.625
		c-12.56-6.217-24.524-13.427-35.808-21.546c-8.067-5.799-15.788-12.058-23.123-18.745c14.211-38.63,49.141-67.239,91.334-72.306
		c3.135-0.397,6.301-0.637,9.509-0.752C185.817,372.139,187.186,372.118,188.533,372.118z"/>
	<path style="fill:#F9D368;" d="M428.367,445.271c-6.698,6.102-13.719,11.86-21.044,17.23
		c-10.365,7.617-21.326,14.461-32.799,20.459c-5.726,3.009-11.588,5.799-17.565,8.359c-30.062,12.925-63.111,20.24-97.823,20.658
		V372.118h64.334c1.369,0,2.727,0.021,4.044,0.084c3.208,0.115,6.384,0.355,9.519,0.752
		C379.226,378.032,414.157,406.642,428.367,445.271z"/>
</g>
<path style="fill:#E2BD55;" d="M231.249,372.118c-1.379,0-2.738,0.021-4.054,0.084C171,374.177,125.38,417.676,120.02,472.929
	c-4.514-2.842-8.934-5.82-13.26-8.923c-8.067-5.799-15.788-12.058-23.123-18.745c15.266-41.493,54.439-71.429,100.842-73.059
	c1.337-0.063,2.706-0.084,4.054-0.084H231.249z"/>
<path style="fill:#EDEDED;" d="M353.177,426.599c0,32.674-16.123,61.586-40.855,79.182c-17.136,3.845-34.931,5.977-53.185,6.196
	c-1.045,0.01-2.09,0.021-3.135,0.021c-1.045,0-2.09-0.01-3.135-0.021c-18.265-0.209-36.07-2.351-53.216-6.207
	c-24.712-17.617-40.824-46.508-40.824-79.171c0-19.832,5.945-38.274,16.144-53.645c3.135-0.397,6.301-0.637,9.509-0.752
	c1.337-0.063,2.706-0.084,4.054-0.084h134.937c1.369,0,2.727,0.021,4.044,0.084c3.208,0.115,6.384,0.355,9.519,0.752
	C347.232,388.325,353.177,406.767,353.177,426.599z"/>
<path style="fill:#BFBFBF;" d="M339.593,429.734c1.724,0,3.135-1.4,3.135-3.135s-1.411-3.135-3.135-3.135h-7.398
	c-0.188-4.639-0.794-9.164-1.787-13.563l7.147-1.912c1.672-0.449,2.664-2.163,2.215-3.835c-0.449-1.672-2.173-2.664-3.845-2.215
	l-7.116,1.902c-1.379-4.389-3.156-8.61-5.266-12.622l6.416-3.699c1.494-0.867,2.017-2.779,1.149-4.284
	c-0.867-1.494-2.79-2.006-4.284-1.149l-6.426,3.709c-2.456-3.856-5.235-7.492-8.328-10.836l2.842-2.842h-15.005
	c1.128,0.909,2.226,1.86,3.302,2.842l-5.099,5.089c-1.223,1.223-1.223,3.208,0,4.43c0.616,0.616,1.421,0.92,2.215,0.92
	c0.805,0,1.609-0.303,2.215-0.92l5.099-5.089c2.706,2.957,5.151,6.154,7.325,9.54l-6.238,3.605
	c-1.505,0.867-2.017,2.779-1.149,4.284c0.585,1.003,1.63,1.567,2.717,1.567c0.533,0,1.076-0.136,1.567-0.418l6.248-3.605
	c1.849,3.532,3.406,7.241,4.629,11.107l-6.99,1.87c-1.672,0.449-2.664,2.173-2.226,3.845c0.376,1.4,1.651,2.32,3.03,2.32
	c0.272,0,0.543-0.031,0.815-0.104l6.99-1.87c0.846,3.866,1.39,7.858,1.567,11.933h-7.231c-1.735,0-3.135,1.4-3.135,3.135
	s1.4,3.135,3.135,3.135h7.231c-0.178,4.075-0.721,8.067-1.567,11.933l-6.99-1.87c-1.672-0.449-3.396,0.543-3.845,2.215
	c-0.439,1.672,0.554,3.396,2.226,3.845l6.99,1.87c-1.223,3.866-2.779,7.575-4.629,11.107l-6.248-3.605
	c-1.505-0.867-3.417-0.345-4.284,1.149c-0.867,1.505-0.355,3.417,1.149,4.284l6.238,3.605c-2.173,3.385-4.618,6.583-7.325,9.54
	l-5.099-5.089c-1.223-1.233-3.208-1.233-4.43,0c-1.223,1.223-1.223,3.208,0,4.43l5.099,5.089c-2.957,2.706-6.154,5.151-9.55,7.325
	l-3.605-6.238c-0.857-1.494-2.779-2.006-4.274-1.149c-1.505,0.867-2.017,2.79-1.149,4.284l3.605,6.248
	c-3.542,1.849-7.252,3.406-11.107,4.629l-1.881-6.99c-0.449-1.672-2.163-2.664-3.835-2.215c-1.672,0.449-2.664,2.163-2.215,3.835
	l1.87,6.99c-3.866,0.857-7.858,1.39-11.933,1.567v-7.231c0-1.735-1.411-3.135-3.135-3.135c-1.735,0-3.135,1.4-3.135,3.135v7.231
	c-4.086-0.178-8.067-0.711-11.943-1.567l1.881-6.99c0.439-1.672-0.554-3.385-2.226-3.835c-1.661-0.449-3.385,0.543-3.835,2.215
	l-1.87,6.99c-3.866-1.223-7.575-2.779-11.118-4.629l3.605-6.248c0.867-1.494,0.355-3.417-1.139-4.284
	c-1.505-0.857-3.417-0.345-4.284,1.149l-3.605,6.238c-3.385-2.173-6.583-4.608-9.55-7.325l5.099-5.089
	c1.223-1.223,1.223-3.208,0-4.43c-1.223-1.233-3.208-1.233-4.43,0l-5.099,5.089c-2.706-2.957-5.151-6.154-7.325-9.54l6.248-3.605
	c1.494-0.867,2.006-2.779,1.139-4.284c-0.857-1.494-2.779-2.006-4.274-1.149l-6.259,3.605c-1.839-3.532-3.406-7.241-4.629-11.107
	l7.001-1.87c1.672-0.449,2.664-2.173,2.215-3.845c-0.449-1.672-2.173-2.664-3.835-2.215l-6.99,1.87
	c-0.857-3.866-1.39-7.858-1.578-11.933h7.241c1.724,0,3.135-1.4,3.135-3.135s-1.411-3.135-3.135-3.135h-7.241
	c0.188-4.075,0.721-8.067,1.578-11.933l6.99,1.87c0.272,0.073,0.543,0.104,0.805,0.104c1.39,0,2.654-0.919,3.03-2.32
	c0.449-1.672-0.543-3.396-2.215-3.845l-7.001-1.87c1.223-3.866,2.79-7.575,4.629-11.107l6.259,3.605
	c0.491,0.282,1.024,0.418,1.557,0.418c1.087,0,2.142-0.564,2.717-1.567c0.867-1.505,0.355-3.417-1.139-4.284l-6.248-3.605
	c2.173-3.385,4.618-6.583,7.325-9.54l5.099,5.089c0.606,0.616,1.411,0.92,2.215,0.92c0.805,0,1.609-0.303,2.215-0.92
	c1.223-1.223,1.223-3.208,0-4.43l-5.099-5.089c1.076-0.982,2.173-1.933,3.312-2.842h-15.005l2.832,2.842
	c-3.082,3.344-5.872,6.98-8.328,10.836l-6.426-3.709c-1.494-0.867-3.406-0.345-4.274,1.149c-0.867,1.505-0.355,3.417,1.139,4.284
	l6.416,3.699c-2.111,4.012-3.887,8.234-5.256,12.622l-7.126-1.902c-1.672-0.449-3.396,0.543-3.845,2.215
	c-0.439,1.672,0.554,3.385,2.226,3.835l7.137,1.912c-0.982,4.399-1.599,8.923-1.787,13.563h-7.387c-1.735,0-3.135,1.4-3.135,3.135
	s1.4,3.135,3.135,3.135h7.387c0.188,4.639,0.805,9.164,1.787,13.563l-7.137,1.912c-1.672,0.449-2.664,2.163-2.226,3.835
	c0.376,1.4,1.651,2.33,3.03,2.33c0.272,0,0.543-0.042,0.815-0.115l7.126-1.902c1.369,4.389,3.145,8.61,5.256,12.622l-6.416,3.699
	c-1.494,0.867-2.006,2.779-1.139,4.284c0.575,1.003,1.63,1.567,2.717,1.567c0.533,0,1.066-0.136,1.557-0.418l6.426-3.709
	c2.455,3.856,5.245,7.492,8.328,10.836l-5.245,5.256c-1.223,1.223-1.223,3.208,0,4.43c0.606,0.616,1.411,0.92,2.215,0.92
	c0.805,0,1.599-0.303,2.215-0.92l5.245-5.245c3.354,3.082,6.98,5.862,10.846,8.317l-3.709,6.426
	c-0.867,1.505-0.355,3.417,1.149,4.284c0.491,0.282,1.024,0.418,1.557,0.418c1.087,0,2.142-0.564,2.717-1.567l3.709-6.416
	c4.012,2.111,8.234,3.887,12.622,5.266l-1.912,7.126c-0.449,1.672,0.543,3.385,2.226,3.835c0.272,0.073,0.543,0.104,0.805,0.104
	c1.39,0,2.654-0.92,3.03-2.32l1.912-7.137c4.389,0.982,8.923,1.589,13.563,1.776v9.185c1.045,0.01,2.09,0.021,3.135,0.021
	s2.09-0.01,3.135-0.021v-9.185c4.639-0.188,9.164-0.794,13.552-1.776l1.912,7.137c0.376,1.4,1.651,2.32,3.03,2.32
	c0.272,0,0.543-0.031,0.815-0.104c1.672-0.449,2.664-2.163,2.215-3.835l-1.912-7.126c4.399-1.379,8.61-3.156,12.622-5.266
	l3.709,6.416c0.575,1.003,1.63,1.567,2.717,1.567c0.533,0,1.066-0.136,1.567-0.418c1.494-0.867,2.006-2.779,1.139-4.284
	l-3.709-6.426c3.866-2.456,7.492-5.235,10.846-8.317l5.245,5.245c0.616,0.616,1.421,0.92,2.226,0.92c0.794,0,1.599-0.303,2.215-0.92
	c1.223-1.223,1.223-3.208,0-4.43l-5.256-5.256c3.093-3.344,5.872-6.98,8.328-10.836l6.426,3.709
	c0.491,0.282,1.034,0.418,1.567,0.418c1.076,0,2.132-0.564,2.717-1.567c0.867-1.505,0.345-3.417-1.149-4.284l-6.416-3.699
	c2.111-4.012,3.887-8.234,5.266-12.622l7.116,1.902c0.272,0.073,0.554,0.115,0.815,0.115c1.39,0,2.654-0.93,3.03-2.33
	c0.449-1.672-0.543-3.385-2.215-3.835l-7.147-1.912c0.993-4.399,1.599-8.923,1.787-13.563H339.593z"/>
<path style="fill:#D9D9D9;" d="M304.389,328.683v80.592c0,26.716-21.633,48.386-48.386,48.386c-9.565,0-18.457-2.765-25.968-7.547
	c-2.989-1.906-5.754-4.11-8.257-6.613c-8.744-8.78-14.16-20.886-14.16-34.224v-80.592h96.771V328.683z"/>
<g>
	<path style="fill:#EDEDED;" d="M304.389,377.655v25.817c0,26.716-21.633,48.386-48.386,48.386c-9.565,0-18.457-2.765-25.968-7.547
		v-34.062c0-18,14.593-32.593,32.593-32.593L304.389,377.655L304.389,377.655z"/>
	<path style="fill:#EDEDED;" d="M353.773,226.91v34.596c0,5.841-0.418,11.577-1.243,17.168
		c-3.323,22.862-13.187,43.332-27.418,58.974c-17.669,19.508-42.109,31.577-69.12,31.577c-1.536,0-3.03-0.042-4.566-0.157
		c-51.858-2.57-93.215-49.758-93.215-107.561v-54.063c2.017-0.376,3.992-0.867,5.862-1.39c10.836-2.915,19.247-7.617,25.704-12.957
		c4.671-3.887,8.338-8.108,11.253-12.225c7.617-10.794,9.707-20.919,10.01-22.486c0.042-0.115,0.042-0.157,0.042-0.188
		c8.735,7.095,19.728,14.493,33.102,20.469c7.21,3.291,15.088,6.134,23.646,8.338c8.746,2.278,18.233,3.887,28.432,4.556
		C330.001,193.766,346.187,208.676,353.773,226.91z"/>
</g>
<g>
	<path style="fill:#D9D9D9;" d="M303.652,266.523c-11.599,0-21.035-9.436-21.035-21.035V223.07c0-11.599,9.436-21.035,21.035-21.035
		s21.035,9.436,21.035,21.035v22.418C324.688,257.086,315.252,266.523,303.652,266.523z"/>
	<path style="fill:#D9D9D9;" d="M353.773,226.91v34.596c0,5.841-0.418,11.577-1.243,17.168v-0.042
		c0-44.523-40.939-64.992-80.509-78.074c-39.57-13.092-60.938-42.36-60.938-42.36c8.735,7.095,19.728,14.493,33.102,20.469
		c7.21,3.291,15.088,6.134,23.646,8.338c8.746,2.278,18.233,3.887,28.432,4.556C330.001,193.766,346.187,208.676,353.773,226.91z"/>
	<path style="fill:#D9D9D9;" d="M208.376,266.523c-11.599,0-21.035-9.436-21.035-21.035V223.07c0-11.599,9.436-21.035,21.035-21.035
		c11.598,0,21.035,9.436,21.035,21.035v22.418C229.411,257.086,219.975,266.523,208.376,266.523z"/>
	<path style="fill:#D9D9D9;" d="M251.431,369.072c-51.86-2.578-93.221-49.768-93.221-107.568v-52.271
		c2.054-1.009,4.035-2.055,5.866-3.175c10.836-2.914,19.242-7.622,25.706-12.965v75.884
		C189.781,314.411,215.3,353.268,251.431,369.072z"/>
</g>
<g>
	<path style="fill:#BFBFBF;" d="M313.228,245.488l-7.036,3.481l3.677,2.643l-4.677-0.461l-2.156-2.056l-3.448,12.298
		c-0.456,1.626,1.659,2.695,2.698,1.364l4.143-5.31l2.211,5.379c0.642,1.562,2.966,1.101,2.965-0.587l-0.008-9.385l4.967,3.57
		c1.371,0.985,3.1-0.635,2.206-2.067L313.228,245.488z"/>
	<path style="fill:#BFBFBF;" d="M303.035,217.398l2.156-2.056l4.677-0.461l-3.677,2.643l7.036,3.481l5.54-8.867
		c0.894-1.433-0.834-3.052-2.206-2.067l-4.967,3.57l0.008-9.385c0.001-1.689-2.323-2.148-2.965-0.587l-2.211,5.379l-4.143-5.31
		c-1.039-1.331-3.154-0.262-2.698,1.364L303.035,217.398z"/>
	<path style="fill:#BFBFBF;" d="M198.749,245.488l7.036,3.481l-3.677,2.643l4.677-0.461l2.156-2.056l3.448,12.298
		c0.456,1.626-1.659,2.695-2.698,1.364l-4.143-5.31l-2.211,5.379c-0.642,1.562-2.966,1.101-2.965-0.587l0.008-9.385l-4.967,3.57
		c-1.371,0.985-3.1-0.635-2.206-2.067L198.749,245.488z"/>
	<path style="fill:#BFBFBF;" d="M208.943,217.398l-2.156-2.056l-4.677-0.461l3.677,2.643l-7.036,3.481l-5.54-8.867
		c-0.894-1.433,0.834-3.052,2.206-2.067l4.967,3.57l-0.008-9.385c-0.001-1.689,2.323-2.148,2.965-0.587l2.211,5.379l4.143-5.31
		c1.039-1.331,3.153-0.262,2.698,1.364L208.943,217.398z"/>
</g>
<path style="fill:#D9D9D9;" d="M267.832,195.155v58.42c0,6.388-4.793,12.103-11.173,12.433c-6.826,0.354-12.478-5.042-12.478-11.791
	v-71.079"/>
<g>
	<path style="fill:#282942;" d="M314.239,245.488V223.07c0-5.846-4.74-10.586-10.586-10.586l0,0c-5.846,0-10.586,4.74-10.586,10.586
		v22.418c0,5.846,4.74,10.586,10.586,10.586l0,0C309.5,256.074,314.239,251.334,314.239,245.488z"/>
	<path style="fill:#282942;" d="M197.79,223.07v22.418c0,5.846,4.74,10.586,10.586,10.586l0,0c5.846,0,10.586-4.74,10.586-10.586
		V223.07c0-5.846-4.74-10.586-10.586-10.586l0,0C202.53,212.483,197.79,217.223,197.79,223.07z"/>
</g>
<g>
	<circle style="fill:#7F7D89;" cx="305.809" cy="230.984" r="6.231"/>
	<circle style="fill:#7F7D89;" cx="298.85" cy="245.779" r="3.583"/>
	<circle style="fill:#7F7D89;" cx="210.536" cy="230.984" r="6.231"/>
	<circle style="fill:#7F7D89;" cx="203.566" cy="245.779" r="3.583"/>
</g>
<path style="fill:#D9D9D9;" d="M267.839,331.375c-7.674,1.15-15.476,1.15-23.15,0c-2.327-0.349-3.884-2.581-3.407-4.885
	c0.005-0.027,0.011-0.054,0.017-0.082c0.438-2.115,2.445-3.542,4.581-3.221c6.884,1.035,13.885,1.035,20.768,0
	c2.136-0.321,4.143,1.107,4.581,3.22c0.005,0.027,0.011,0.054,0.017,0.082C271.723,328.793,270.165,331.026,267.839,331.375z"/>
<path style="fill:#BFBFBF;" d="M331.531,295.867c-0.644-1.607-2.469-2.389-4.075-1.744c-0.049,0.02-0.918,0.36-2.494,0.91
	l-0.7-6.875c-0.174-1.723-1.719-2.981-3.436-2.801c-1.722,0.174-2.977,1.714-2.801,3.436l0.835,8.207
	c-2.304,0.692-5.043,1.46-8.154,2.249l-0.921-6.814c-0.232-1.716-1.816-2.915-3.526-2.686c-1.716,0.232-2.918,1.811-2.686,3.527
	l1.004,7.433c-2.776,0.616-5.777,1.223-8.962,1.795l-0.98-7.445c-0.226-1.717-1.796-2.924-3.517-2.699
	c-1.717,0.226-2.925,1.8-2.699,3.517l1.006,7.65c-3.046,0.461-6.234,0.879-9.551,1.238c-1.39-2.124-3.915-3.363-6.562-2.965
	c-11.304,1.7-22.798,1.7-34.102,0c-2.647-0.398-5.172,0.841-6.562,2.965c-3.318-0.359-6.504-0.777-9.551-1.238l1.006-7.65
	c0.226-1.717-0.982-3.291-2.699-3.517c-1.723-0.231-3.291,0.982-3.517,2.699l-0.98,7.445c-3.184-0.573-6.186-1.178-8.962-1.795
	l1.004-7.433c0.232-1.716-0.972-3.295-2.686-3.527c-1.713-0.223-3.295,0.971-3.527,2.686l-0.921,6.814
	c-3.112-0.789-5.85-1.557-8.154-2.249l0.835-8.207c0.176-1.722-1.078-3.261-2.801-3.436c-1.717-0.181-3.26,1.079-3.436,2.801
	l-0.7,6.875c-1.576-0.549-2.445-0.89-2.494-0.91c-1.608-0.644-3.431,0.137-4.075,1.744c-0.644,1.606,0.136,3.43,1.742,4.074
	c0.255,0.102,1.704,0.673,4.173,1.512l-0.901,8.845c-0.176,1.722,1.078,3.261,2.801,3.436c0.108,0.012,0.215,0.017,0.321,0.017
	c1.589,0,2.951-1.203,3.115-2.817l0.768-7.55c2.306,0.681,4.966,1.416,7.953,2.164l-0.84,6.216
	c-0.232,1.716,0.972,3.295,2.686,3.527c0.143,0.019,0.283,0.028,0.424,0.028c1.544,0,2.89-1.142,3.102-2.716l0.759-5.616
	c2.793,0.613,5.798,1.214,8.986,1.779l-0.808,6.142c-0.226,1.717,0.982,3.291,2.699,3.517c0.139,0.019,0.277,0.027,0.414,0.027
	c1.549,0,2.896-1.148,3.103-2.726l0.783-5.95c3.096,0.463,6.336,0.882,9.711,1.241c0.846,2.167,2.788,3.847,5.269,4.219
	c12.6,1.889,25.412,1.889,38.012,0c2.482-0.372,4.423-2.052,5.269-4.219c3.374-0.359,6.615-0.78,9.711-1.241l0.783,5.95
	c0.207,1.578,1.554,2.726,3.103,2.726c0.136,0,0.275-0.009,0.414-0.027c1.717-0.226,2.925-1.8,2.699-3.517l-0.808-6.142
	c3.188-0.566,6.193-1.166,8.986-1.779l0.759,5.616c0.213,1.573,1.558,2.716,3.102,2.716c0.14,0,0.282-0.009,0.424-0.028
	c1.716-0.232,2.918-1.811,2.686-3.527l-0.84-6.216c2.986-0.748,5.647-1.483,7.953-2.164l0.768,7.55
	c0.164,1.614,1.526,2.817,3.115,2.817c0.107,0,0.213-0.005,0.321-0.017c1.722-0.174,2.977-1.714,2.801-3.436l-0.901-8.845
	c2.469-0.839,3.919-1.41,4.173-1.512C331.395,299.298,332.176,297.473,331.531,295.867z"/>
<g>
</g>
<g>
</g>
<g>
</g>
<g>
</g>
<g>
</g>
<g>
</g>
<g>
</g>
<g>
</g>
<g>
</g>
<g>
</g>
<g>
</g>
<g>
</g>
<g>
</g>
<g>
</g>
<g>
</g>
</svg>
