<?xml version="1.0" encoding="iso-8859-1"?>
<!-- Generator: Adobe Illustrator 19.0.0, SVG Export Plug-In . SVG Version: 6.00 Build 0)  -->
<svg version="1.1" id="Capa_1" xmlns="http://www.w3.org/2000/svg" xmlns:xlink="http://www.w3.org/1999/xlink" x="0px" y="0px"
	 viewBox="0 0 512 512" style="enable-background:new 0 0 512 512;" xml:space="preserve">
<circle style="fill:#E87BC2;" cx="256" cy="256" r="256"/>
<polygon style="fill:#4E4D68;" points="364.442,14.252 355.659,64.449 156.333,64.449 147.55,14.252 "/>
<polygon style="fill:#282942;" points="147.55,14.252 156.333,64.449 190.159,64.449 192.19,14.252 "/>
<path style="fill:#E2BD55;" d="M380.11,110.182v44.181c-82.739-4.799-165.478-4.799-248.218,0v-44.181H380.11z"/>
<path style="fill:#F9D368;" d="M414.081,69.571c4.542,4.542,7.354,10.814,7.354,17.744c0,13.861-11.238,25.098-25.098,25.098H380.11
	H131.893h-16.238c-6.93,0-13.202-2.812-17.744-7.354c-4.542-4.542-7.354-10.814-7.354-17.744c0-13.861,11.238-25.098,25.098-25.098
	h40.678h199.326h40.678C403.267,62.217,409.538,65.029,414.081,69.571z"/>
<path style="fill:#E2BD55;" d="M154.797,87.316c0-13.861,11.238-25.098,25.098-25.098h-23.562h-40.678
	c-13.861,0-25.098,11.238-25.098,25.098c0,6.93,2.812,13.202,7.354,17.744c4.542,4.542,10.814,7.354,17.744,7.354h16.238h48.003
	c-6.93,0-13.202-2.812-17.744-7.354C157.609,100.517,154.797,94.246,154.797,87.316z"/>
<path style="fill:#F9D368;" d="M473.516,391.053c-9.655,15.517-20.929,29.926-33.583,42.998
	c-12.769,13.197-26.958,25.025-42.318,35.234C357.063,496.274,308.37,512,256,512c-91.826,0-172.356-48.347-217.527-120.968
	c-3.594-61.576-1.118-123.152,7.429-184.717c3.657-26.331,18.777-46.049,37.219-48.212c16.259-1.912,32.507-3.553,48.776-4.911
	c82.735-6.959,165.47-6.959,248.216,0c16.259,1.358,32.507,2.999,48.765,4.911c18.244,2.132,33.479,21.4,37.104,47.449
	C474.614,267.379,477.121,329.216,473.516,391.053z"/>
<path style="fill:#E2BD55;" d="M275.717,148.125c-34.806,0.46-69.601,2.142-104.406,5.068c-16.259,1.358-32.507,2.999-48.765,4.911
	c-18.442,2.163-33.562,21.88-37.219,48.212c-11.003,79.297-11.954,158.595-2.821,237.913c-16.959-15.621-31.786-33.52-44.032-53.196
	c-3.594-61.576-1.118-123.152,7.429-184.717c3.657-26.331,18.777-46.049,37.219-48.212c16.259-1.912,32.507-3.553,48.776-4.911
	C179.837,149.159,227.777,147.487,275.717,148.125z"/>
<g>
	<circle style="fill:#FCE18D;" cx="420.049" cy="211.352" r="25.078"/>
	<path style="fill:#FCE18D;" d="M439.933,279.667v154.384c-12.769,13.197-26.958,25.025-42.318,35.234V279.667
		c0-10.533,8.537-19.069,19.069-19.069h4.169C431.386,260.598,439.933,269.134,439.933,279.667z"/>
	<circle style="fill:#FCE18D;" cx="393.927" cy="87.706" r="14.629"/>
</g>
<g>
	<path style="fill:#E2BD55;" d="M298.071,464.945c-1.707,4.954-2.933,10.134-3.625,15.486c-0.558,4.307-3.539,7.873-7.69,9.144
		c-9.738,2.954-20.062,4.544-30.761,4.544s-21.032-1.591-30.761-4.554c-4.151-1.262-7.132-4.837-7.69-9.134
		c-0.695-5.377-1.929-10.58-3.649-15.564c-1.399-4.078,1.701-8.312,6.017-8.312l0,0c2.757,0,4.993,2.235,4.993,4.993v1.637
		c0,1.642,1.33,2.972,2.972,2.972l0,0c1.642,0,2.972-1.33,2.972-2.972v-1.637c0-2.757,2.235-4.993,4.993-4.993h12.189
		c2.758,0,4.993,2.235,4.993,4.993v1.637c0,1.642,1.33,2.972,2.972,2.972l0,0c1.642,0,2.972-1.33,2.972-2.972v-1.637
		c0-2.757,2.235-4.993,4.993-4.993h12.189c2.757,0,4.992,2.235,4.992,4.993v1.637c0,1.642,1.33,2.972,2.972,2.972l0,0
		c1.642,0,2.972-1.33,2.972-2.972v-1.637c0-2.757,2.235-4.993,4.993-4.993l0,0C296.425,456.557,299.487,460.834,298.071,464.945z"/>
	<path style="fill:#E2BD55;" d="M361.655,298.866v89.841c-0.027,12.747-7.928,24.049-19.65,29.051
		c-12.436,5.294-23.235,13.67-31.447,24.186c-2.24,2.871-5.678,4.554-9.327,4.554h-8.44c-3.155,0-5.706-2.552-5.706-5.706v-2.752
		c0-1.636-1.335-2.972-2.972-2.972c-0.823,0-1.563,0.329-2.103,0.868c-0.531,0.539-0.868,1.289-0.868,2.103v2.752
		c0,3.155-2.552,5.706-5.706,5.706h-10.762c-3.155,0-5.706-2.552-5.706-5.706v-2.752c0-1.636-1.335-2.972-2.972-2.972
		c-0.814,0-1.563,0.329-2.103,0.868c-0.539,0.539-0.868,1.289-0.868,2.103v2.752c0,3.155-2.552,5.706-5.706,5.706h-10.762
		c-3.155,0-5.706-2.552-5.706-5.706v-2.752c0-1.636-1.335-2.972-2.972-2.972c-0.823,0-1.563,0.329-2.103,0.868
		c-0.531,0.539-0.868,1.289-0.868,2.103v2.752c0,3.155-2.552,5.706-5.706,5.706h-8.44c-3.649,0-7.087-1.682-9.327-4.554
		c-8.212-10.506-19.011-18.882-31.438-24.186c-11.723-5.002-19.633-16.305-19.66-29.051v-89.841c0-11.009,1.682-21.617,4.8-31.594
		c13.433-42.922,53.511-74.068,100.86-74.068c47.358,0,87.428,31.145,100.86,74.068
		C359.971,277.249,361.655,287.856,361.655,298.866z"/>
</g>
<g>
	<path style="fill:#F9D368;" d="M192.924,339.487v36.095c0,9.414,7.631,17.044,17.044,17.044l0,0
		c9.413,0,17.044-7.631,17.044-17.044v-36.095c0-9.413-7.631-17.044-17.044-17.044l0,0
		C200.555,322.443,192.924,330.074,192.924,339.487z"/>
	<path style="fill:#F9D368;" d="M284.975,339.487v36.095c0,9.414,7.631,17.044,17.044,17.044l0,0
		c9.413,0,17.044-7.631,17.044-17.044v-36.095c0-9.413-7.631-17.044-17.044-17.044l0,0
		C292.606,322.443,284.975,330.074,284.975,339.487z"/>
	<path style="fill:#F9D368;" d="M250.144,376.459l-11.537,19.982c-2.6,4.502,0.65,10.131,5.849,10.131h23.073
		c5.199,0,8.449-5.629,5.849-10.131l-11.537-19.982C259.243,371.956,252.744,371.956,250.144,376.459z"/>
</g>
<g>
</g>
<g>
</g>
<g>
</g>
<g>
</g>
<g>
</g>
<g>
</g>
<g>
</g>
<g>
</g>
<g>
</g>
<g>
</g>
<g>
</g>
<g>
</g>
<g>
</g>
<g>
</g>
<g>
</g>
</svg>
