<?xml version="1.0" encoding="iso-8859-1"?>
<!-- Generator: Adobe Illustrator 19.0.0, SVG Export Plug-In . SVG Version: 6.00 Build 0)  -->
<svg version="1.1" id="Capa_1" xmlns="http://www.w3.org/2000/svg" xmlns:xlink="http://www.w3.org/1999/xlink" x="0px" y="0px"
	 viewBox="0 0 512 512" style="enable-background:new 0 0 512 512;" xml:space="preserve">
<circle style="fill:#7C49A8;" cx="256" cy="256" r="256"/>
<path style="fill:#282942;" d="M331.34,25.079c5.988,0,10.861,4.872,10.861,10.861v85.551H169.793V35.939
	c0-5.988,4.872-10.861,10.861-10.861H331.34 M331.34,0.001H180.653c-19.848,0-35.938,16.09-35.938,35.938v110.629h222.563V35.939
	C367.279,16.091,351.188,0.001,331.34,0.001L331.34,0.001z"/>
<path style="fill:#EF7064;" d="M448.784,123.131v301.307C401.857,478.103,332.884,512,256,512
	c-56.926,0-109.516-18.589-152.033-50.019c-14.911-11.013-28.568-23.615-40.751-37.543V123.131c0-9.561,7.753-17.314,17.314-17.314
	H431.47C441.03,105.817,448.784,113.57,448.784,123.131z"/>
<g>
	<path style="fill:#FFFFFF;" d="M173.561,421.427h-8.738v11.147c0,1.048-1.282,1.592-2.524,1.592c-1.282,0-2.524-0.544-2.524-1.592
		v-25.246c0-1.088,1.242-1.554,2.524-1.554c1.242,0,2.524,0.466,2.524,1.554v10.137h8.738v-10.137c0-1.088,1.242-1.554,2.524-1.554
		c1.242,0,2.524,0.466,2.524,1.554v25.246c0,1.048-1.282,1.592-2.524,1.592c-1.282,0-2.524-0.544-2.524-1.592V421.427z"/>
	<path style="fill:#FFFFFF;" d="M185.948,432.068c0-0.077,0.039-0.233,0.077-0.389l7.496-24.43c0.349-1.165,1.787-1.708,3.224-1.708
		c1.475,0,2.913,0.544,3.262,1.708l7.496,24.43c0.039,0.156,0.077,0.272,0.077,0.389c0,1.204-1.825,2.097-3.185,2.097
		c-0.854,0-1.514-0.272-1.709-1.009l-1.475-5.166h-8.894l-1.476,5.166c-0.194,0.738-0.854,1.009-1.708,1.009
		C187.772,434.167,185.948,433.312,185.948,432.068z M200.123,424.029l-3.378-11.923l-3.378,11.923H200.123z"/>
	<path style="fill:#FFFFFF;" d="M217.134,434.167c-1.126,0-2.213-0.544-2.213-1.592v-25.246c0-1.088,1.242-1.554,2.524-1.554
		c1.242,0,2.524,0.466,2.524,1.554v22.41h9.476c1.01,0,1.515,1.088,1.515,2.214c0,1.088-0.505,2.214-1.515,2.214L217.134,434.167
		L217.134,434.167z"/>
	<path style="fill:#FFFFFF;" d="M240.591,434.167c-1.126,0-2.213-0.544-2.213-1.592v-25.246c0-1.088,1.242-1.554,2.524-1.554
		c1.242,0,2.524,0.466,2.524,1.554v22.41h9.476c1.01,0,1.515,1.088,1.515,2.214c0,1.088-0.505,2.214-1.515,2.214L240.591,434.167
		L240.591,434.167z"/>
	<path style="fill:#FFFFFF;" d="M261.057,425.505v-10.837c0-6.487,3.962-8.894,9.089-8.894s9.127,2.407,9.127,8.894v10.837
		c0,6.487-4.001,8.894-9.127,8.894S261.057,431.991,261.057,425.505z M274.223,414.669c0-3.069-1.553-4.466-4.077-4.466
		c-2.563,0-4.04,1.398-4.04,4.466v10.837c0,3.069,1.476,4.467,4.04,4.467c2.524,0,4.077-1.398,4.077-4.467V414.669z"/>
	<path style="fill:#FFFFFF;" d="M312.09,432.69c-0.389,1.165-1.825,1.709-3.301,1.709c-1.437,0-2.952-0.544-3.224-1.709
		l-2.486-10.487l-2.524,10.487c-0.273,1.165-1.787,1.709-3.225,1.709c-1.475,0-2.951-0.544-3.301-1.709l-7.689-24.43
		c-0.039-0.117-0.077-0.31-0.077-0.466c0-1.126,1.786-2.02,3.224-2.02c0.776,0,1.475,0.272,1.67,1.009l6.137,21.051l3.302-13.517
		c0.233-0.971,1.359-1.398,2.486-1.398c1.087,0,2.213,0.427,2.447,1.398l3.301,13.517l6.137-21.051
		c0.194-0.739,0.892-1.009,1.67-1.009c1.438,0,3.225,0.892,3.225,2.02c0,0.156-0.039,0.349-0.077,0.466L312.09,432.69z"/>
	<path style="fill:#FFFFFF;" d="M332.245,417.971h5.903c1.01,0,1.592,0.971,1.592,2.02c0,0.893-0.505,1.942-1.592,1.942h-5.903
		v7.806h10.992c1.009,0,1.591,1.048,1.591,2.253c0,1.048-0.505,2.175-1.591,2.175H329.41c-1.126,0-2.213-0.544-2.213-1.592v-25.207
		c0-1.049,1.087-1.592,2.213-1.592h13.827c1.087,0,1.591,1.126,1.591,2.175c0,1.204-0.583,2.253-1.591,2.253h-10.992V417.971z"/>
	<path style="fill:#FFFFFF;" d="M357.489,417.971h5.903c1.01,0,1.592,0.971,1.592,2.02c0,0.893-0.505,1.942-1.592,1.942h-5.903
		v7.806h10.992c1.009,0,1.591,1.048,1.591,2.253c0,1.048-0.505,2.175-1.591,2.175h-13.827c-1.125,0-2.213-0.544-2.213-1.592v-25.207
		c0-1.049,1.088-1.592,2.213-1.592h13.827c1.087,0,1.591,1.126,1.591,2.175c0,1.204-0.583,2.253-1.591,2.253h-10.992V417.971z"/>
	<path style="fill:#FFFFFF;" d="M391.082,432.574l-8.35-15.613v15.613c0,1.048-1.282,1.592-2.524,1.592
		c-1.282,0-2.524-0.544-2.524-1.592v-25.207c0-1.088,1.242-1.592,2.524-1.592c1.825,0,2.563,0.389,3.767,2.679l7.496,14.488v-15.613
		c0-1.088,1.242-1.554,2.524-1.554c1.242,0,2.524,0.466,2.524,1.554v25.246c0,1.048-1.282,1.592-2.524,1.592
		C392.792,434.167,391.743,433.778,391.082,432.574z"/>
</g>
<g>
	<path style="fill:#E0554A;" d="M121.281,105.817c-9.561,0-17.314,7.753-17.314,17.314v338.85
		c-14.911-11.013-28.568-23.615-40.751-37.543V123.131c0-9.561,7.753-17.314,17.314-17.314H121.281z"/>
	<polygon style="fill:#E0554A;" points="198.019,166.421 162.667,227.653 233.371,227.653 	"/>
	<polygon style="fill:#E0554A;" points="353.687,166.421 318.335,227.653 389.04,227.653 	"/>
	<path style="fill:#E0554A;" d="M189.543,264.013c0,47.667,38.642,86.31,86.31,86.31s86.31-38.642,86.31-86.31"/>
</g>
<g>
	<rect x="298.841" y="256.282" style="fill:#EF7064;" width="26.122" height="36.571"/>
	<rect x="254.433" y="321.066" style="fill:#EF7064;" width="26.122" height="36.571"/>
	<rect x="233.012" y="256.282" style="fill:#EF7064;" width="26.122" height="26.122"/>
</g>
<g>
</g>
<g>
</g>
<g>
</g>
<g>
</g>
<g>
</g>
<g>
</g>
<g>
</g>
<g>
</g>
<g>
</g>
<g>
</g>
<g>
</g>
<g>
</g>
<g>
</g>
<g>
</g>
<g>
</g>
</svg>
