<?xml version="1.0" encoding="iso-8859-1"?>
<!-- Generator: Adobe Illustrator 19.0.0, SVG Export Plug-In . SVG Version: 6.00 Build 0)  -->
<svg version="1.1" id="Capa_1" xmlns="http://www.w3.org/2000/svg" xmlns:xlink="http://www.w3.org/1999/xlink" x="0px" y="0px"
	 viewBox="0 0 512 512" style="enable-background:new 0 0 512 512;" xml:space="preserve">
<circle style="fill:#393A59;" cx="256" cy="256" r="256"/>
<path style="fill:#4E4D68;" d="M461.684,223.352c0,58.423-24.355,111.155-63.469,148.598
	c-12.954,12.408-27.537,23.129-43.387,31.827c-29.325,16.102-63.016,25.261-98.831,25.261c-35.815,0-69.489-9.151-98.814-25.253
	c-4.727-2.586-9.336-5.356-13.819-8.303c-10.579-6.927-20.477-14.818-29.577-23.532C74.674,334.516,50.31,281.776,50.31,223.352
	c0-113.598,92.089-205.687,205.687-205.687S461.684,109.755,461.684,223.352z"/>
<path style="fill:#EDEDED;" d="M491.207,99.224c-1.212,3.009-4.315,4.692-7.387,4.232c-0.543-0.073-1.076-0.219-1.599-0.428
	l-12.194-4.942c2.194,7.816,3.615,15.872,4.211,24.033c1.379,18.704-1.546,37.951-9.362,56.257
	c-17.607,41.263-55.411,67.793-97.029,72.903c-1.588,0.209-2.685,1.181-3.197,2.393c-0.773,1.86-0.178,4.253,2.111,5.214
	c16.029,6.729,29.069,18.913,36.937,34.273l14.524-1.912c4.159-0.543,7.962,2.382,8.516,6.541c0.543,4.159-2.382,7.973-6.541,8.516
	l-10.271,1.348l25.997,63.634l18.808,46.09c-18.014,22.173-39.675,41.273-64.073,56.393c-5.193-4.336-9.435-9.968-12.173-16.677
	l-24.419-59.82l-28.338,93.1l17.648,1.076c2.361,0.146,4.399,1.348,5.674,3.124C320.209,505.825,288.831,512,256,512
	c-9.634,0-19.153-0.533-28.505-1.578l6.238-22.8c0.052-0.146,0.084-0.282,0.115-0.428c3.803-13.699-3.145-28.15-16.311-33.688
	c-13.302-5.58-28.672-0.272-35.694,12.319l-17.168,29.403c-27.815-10.627-53.311-25.966-75.494-45.046l72.965-133.538l-59.82,24.43
	c-10.951,4.472-22.653,4.086-32.758-0.167c-10.094-4.232-18.578-12.33-23.04-23.271c-8.944-21.891,1.557-46.874,23.448-55.818
	l63.624-25.987l13.051-5.329l15.203-6.207l34.001-13.876c9.028-3.678,18.589-5.507,28.16-5.454c9.54,0.052,19.09,1.964,28.076,5.747
	c3.772,1.578,7.158-2.853,4.681-6.081c-25.631-33.468-33.092-79.339-15.6-120.999c10.721-25.516,29.153-45.453,51.43-58.243
	c11.943-6.855,24.994-11.661,38.567-14.179c23.918-4.43,49.445-1.735,73.362,9.404c24.785,11.536,43.886,30.574,55.839,53.227
	l3.72-5.58c2.121-3.166,6.395-4.023,9.571-1.902c3.166,2.121,4.023,6.405,1.902,9.571l-4.995,7.471l16.833,6.834
	C490.945,91.669,492.638,95.692,491.207,99.224z"/>
<g>
	<path style="fill:#D9D9D9;" d="M175.668,347.742l-65.034,119.014c-7.45-5.151-14.608-10.689-21.452-16.572l72.965-133.527
		l3.103,1.296C176.859,322.832,181.708,336.687,175.668,347.742z"/>
	<path style="fill:#D9D9D9;" d="M258.55,498.051l-3.814,13.939c-9.206-0.042-18.296-0.564-27.24-1.567l6.238-22.8
		c0.052-0.146,0.084-0.282,0.115-0.428c3.803-13.699-3.145-28.15-16.311-33.688c0,0,17.241,4.89,21.713,6.771
		C252.552,465.868,262.625,484.227,258.55,498.051z"/>
</g>
<g>
	<path style="fill:#4E4D68;" d="M336.762,85.94c-1.212-3.924-5.491-5.887-9.208-4.368l-9.372,3.824
		c-2.588,1.056-5.543-0.185-6.602-2.773l-3.829-9.372c-1.519-3.716-5.907-5.394-9.56-3.519c-3.237,1.661-4.461,5.699-3.085,9.068
		l3.692,9.034c1.058,2.59-0.184,5.547-2.774,6.604L287,98.121c-3.658,1.493-5.646,5.798-4.007,9.394
		c0.745,1.634,2.057,2.846,3.605,3.497c1.628,0.684,3.516,0.747,5.28,0.028l9.374-3.825c2.588-1.056,5.544,0.185,6.602,2.773
		l3.828,9.37c0.72,1.764,2.088,3.07,3.716,3.753c1.55,0.651,3.336,0.74,5.026,0.125c3.71-1.349,5.391-5.785,3.897-9.439
		l-3.685-9.022c-1.058-2.589,0.184-5.547,2.774-6.604l9.027-3.684C335.804,93.113,337.836,89.416,336.762,85.94z"/>
	<path style="fill:#4E4D68;" d="M421.755,139.541l9.146-3.732c3.337-1.363,5.326-5.018,4.289-8.47
		c-1.189-3.96-5.49-5.95-9.225-4.424l-9.434,3.85c-2.554,1.042-5.469-0.183-6.512-2.736l-3.855-9.435
		c-1.528-3.733-5.951-5.41-9.613-3.491c-3.193,1.674-4.417,5.651-3.053,8.988l3.739,9.149c1.044,2.555-0.182,5.472-2.737,6.515
		l-9.152,3.734c-3.624,1.479-5.561,5.73-3.972,9.307c0.74,1.666,2.065,2.9,3.633,3.558c1.628,0.684,3.516,0.747,5.28,0.028
		l9.436-3.852c2.554-1.042,5.469,0.183,6.512,2.736l3.855,9.433c0.72,1.764,2.088,3.07,3.716,3.753
		c1.568,0.659,3.38,0.742,5.089,0.102c3.662-1.372,5.339-5.732,3.861-9.353l-3.738-9.147
		C417.974,143.501,419.199,140.584,421.755,139.541z"/>
	<path style="fill:#4E4D68;" d="M395.748,191.332l-0.866-0.364c-3.128-1.314-4.599-4.915-3.284-8.044l0,0
		c1.464-3.485,0.055-7.651-3.384-9.218c-3.558-1.622-7.726,0.026-9.23,3.605l-0.112,0.266c-1.314,3.128-4.915,4.599-8.044,3.284
		l-5.916-2.486c-3.128-1.314-4.599-4.915-3.284-8.044l0,0c1.464-3.485,0.055-7.651-3.384-9.218c-3.558-1.622-7.726,0.026-9.23,3.605
		l-0.112,0.266c-1.314,3.128-4.915,4.599-8.044,3.284l-5.928-2.491c-3.128-1.314-4.599-4.915-3.284-8.044l0,0
		c1.464-3.485,0.055-7.651-3.384-9.218c-3.558-1.622-7.726,0.026-9.23,3.605l-0.112,0.266c-1.314,3.128-4.915,4.599-8.044,3.284
		l-5.916-2.486c-3.128-1.314-4.599-4.915-3.284-8.044l0,0c1.464-3.485,0.055-7.651-3.384-9.218c-3.558-1.622-7.726,0.026-9.23,3.605
		l-0.112,0.266c-1.314,3.128-4.915,4.599-8.044,3.284l-0.866-0.364c-3.484-1.464-7.65-0.055-9.217,3.382
		c-1.623,3.558,0.024,7.727,3.604,9.232l1.133,0.475c3.128,1.314,4.599,4.915,3.284,8.044l-0.54,1.285
		c-1.464,3.485-0.055,7.651,3.384,9.218c3.558,1.622,7.726-0.026,9.23-3.605l0.652-1.552c1.314-3.128,4.915-4.599,8.044-3.284
		l5.916,2.486c3.128,1.314,4.599,4.915,3.284,8.044l-0.54,1.285c-1.464,3.485-0.055,7.651,3.384,9.218
		c3.558,1.622,7.726-0.026,9.23-3.605l0.652-1.552c1.314-3.128,4.915-4.599,8.044-3.284l5.928,2.49
		c3.128,1.314,4.599,4.915,3.284,8.044l-0.54,1.285c-1.464,3.485-0.055,7.651,3.384,9.218c3.558,1.622,7.726-0.026,9.23-3.605
		l0.652-1.552c1.314-3.128,4.915-4.599,8.044-3.284l5.916,2.486c3.128,1.314,4.599,4.915,3.284,8.044l-0.54,1.285
		c-1.464,3.485-0.055,7.651,3.384,9.218c3.558,1.622,7.726-0.026,9.23-3.605l0.652-1.552c1.314-3.128,4.915-4.599,8.044-3.284
		l1.133,0.476c3.58,1.504,7.71-0.238,9.116-3.887C401.143,196.756,399.233,192.796,395.748,191.332z"/>
</g>
<path style="fill:#D9D9D9;" d="M250.234,407.349c0,0-38.12-29.859-111.263-24.634l7.314-13.584c0,0,59.039-1.07,116.246,28.2"/>
<g>
	
		<rect x="249.659" y="283.308" transform="matrix(-1 0.0096 -0.0096 -1 515.0436 688.1373)" style="fill:#4D4A4A;" width="12.423" height="123.993"/>
	
		<rect x="446.683" y="282.369" transform="matrix(-0.8455 -0.534 0.534 -0.8455 651.9232 877.362)" style="fill:#4D4A4A;" width="12.423" height="123.989"/>
</g>
<g>
	<path style="fill:#D9D9D9;" d="M404.54,20.616c-35.211-16.394-73.921-14.491-105.83,1.493l-7.091-17.338
		c-1.442-3.525-5.473-5.219-9-3.775c-3.529,1.442-5.219,5.472-3.775,9.001l2.343,5.73l-14.613-3.311
		c-3.717-0.842-7.414,1.488-8.257,5.206c-0.751,3.314,1.022,6.614,4.05,7.886c0.368,0.155,0.754,0.279,1.156,0.37l20.801,4.714
		c-18.547,12.728-33.787,30.759-43.148,53.042c-17.499,41.652-10.033,87.533,15.597,120.999c2.477,3.227-0.911,7.658-4.678,6.075
		c-8.984-3.774-18.54-5.693-28.088-5.736c-9.562-0.049-19.13,1.77-28.147,5.452l-34.007,13.876l-84.839,34.644l-5.565-16.197
		c-1.362-3.965-5.68-6.076-9.646-4.714s-6.076,5.682-4.714,9.646l5.705,16.605c0.122,0.357,0.277,0.693,0.445,1.019
		c-17.205,10.886-24.676,32.832-16.714,52.332c4.46,10.947,12.949,19.034,23.041,23.274c4.196,1.763,8.671,2.852,13.25,3.214
		c-4.878-4.249-8.87-9.663-11.477-16.063c-8.937-21.886,1.558-46.867,23.45-55.816l91.88-37.517l34.007-13.876
		c9.017-3.682,18.586-5.502,28.147-5.452c9.548,0.044,19.104,1.962,28.088,5.736c3.767,1.582,7.155-2.848,4.678-6.075
		c-25.631-33.466-33.096-79.347-15.597-120.999c10.72-25.515,29.144-45.458,51.418-58.245c28.039-16.1,62.193-20.881,94.831-11.242
		C409.733,23.18,407.178,21.845,404.54,20.616z"/>
	<path style="fill:#D9D9D9;" d="M116.483,422.351c0.025-0.109,0.049-0.218,0.069-0.328c0.031-0.171,0.06-0.341,0.079-0.512
		c0.01-0.09,0.016-0.182,0.023-0.273c0.036-0.458,0.044-0.913-0.002-1.364c-0.01-0.102-0.038-0.203-0.052-0.305
		c-0.027-0.19-0.056-0.379-0.097-0.564c-0.032-0.149-0.071-0.296-0.113-0.443c-0.049-0.174-0.107-0.345-0.167-0.513
		c-0.036-0.099-0.057-0.202-0.098-0.301l-8.672-21.234c-1.583-3.881-6.018-5.744-9.897-4.158c-3.883,1.585-5.744,6.017-4.159,9.898
		l4.823,11.807l-10.842,1.054c-4.172,0.406-7.228,4.118-6.821,8.292c0.28,2.877,2.132,5.221,4.622,6.268
		c1.122,0.471,2.374,0.679,3.67,0.554l20.847-2.028c2.74-0.217,5.266-1.915,6.404-4.626c0.053-0.126,0.087-0.256,0.133-0.383
		c0.044-0.12,0.089-0.24,0.126-0.364C116.408,422.67,116.447,422.511,116.483,422.351z"/>
</g>
<path style="fill:#E87BC2;" d="M502.319,266.063c8.592,5.421,11.168,16.789,5.733,25.376c-5.426,8.605-16.789,11.168-25.382,5.746
	s-11.168-16.789-5.741-25.394C482.352,263.199,493.719,260.624,502.319,266.063z"/>
<path style="fill:#D9D9D9;" d="M318.393,376.237c10.311,6.143,14.049,17.999,8.326,26.465c-5.713,8.485-18.702,10.364-29.013,4.22
	s-14.049-17.999-8.336-26.484C295.078,371.967,308.072,370.075,318.393,376.237z"/>
<path style="fill:#D863BB;" d="M486.475,275.801c3.889-6.163,10.836-9.209,17.627-8.443c-0.564-0.459-1.153-0.898-1.783-1.295
	c-8.6-5.439-19.967-2.864-25.389,5.728c-5.426,8.605-2.852,19.973,5.741,25.394c2.427,1.532,5.077,2.404,7.75,2.705
	C483.298,294.1,481.449,283.77,486.475,275.801z"/>
<path style="fill:#E87BC2;" d="M254.962,252.719c10.161-0.104,18.483,8.054,18.576,18.221c0.104,10.161-8.054,18.483-18.221,18.576
	s-18.489-8.067-18.576-18.221C236.648,261.127,244.808,252.805,254.962,252.719z"/>
<path style="fill:#D863BB;" d="M246.808,271.915c-2.16-6.96,0.037-14.22,5.03-18.887c-0.716,0.132-1.43,0.294-2.143,0.514
	c-9.722,3.005-15.148,13.321-12.135,23.024c3.018,9.715,13.334,15.142,23.037,12.13c2.741-0.851,5.125-2.299,7.091-4.136
	C258.657,286.215,249.602,280.912,246.808,271.915z"/>
<polygon style="fill:#D9D9D9;" points="181.133,258.999 173.223,268.581 133.601,235.833 146.651,230.504 "/>
<rect x="88.943" y="199.526" transform="matrix(-0.378 -0.9258 0.9258 -0.378 22.1185 426.334)" style="fill:#4D4A4A;" width="130.664" height="12.423"/>
<path style="fill:#E87BC2;" d="M132.096,117.011c9.379,3.94,13.784,14.73,9.85,24.095c-3.935,9.366-14.724,13.772-24.103,9.831
	c-9.366-3.935-13.772-14.724-9.837-24.09C111.942,117.481,122.73,113.076,132.096,117.011z"/>
<path style="fill:#D863BB;" d="M118.957,128.16c3.889-6.163,10.836-9.209,17.627-8.443c-0.564-0.459-1.153-0.898-1.783-1.295
	c-8.6-5.439-19.967-2.864-25.389,5.728c-5.426,8.605-2.852,19.973,5.741,25.394c2.427,1.532,5.077,2.404,7.75,2.705
	C115.781,146.459,113.931,136.129,118.957,128.16z"/>
<g>
	<path style="fill:#D9D9D9;" d="M425.06,400.095c0,0-47.852-5.375-59.346,25.716l-6.618-16.214c0,0,13.396-22.109,55.46-16.137"/>
	<path style="fill:#D9D9D9;" d="M347.995,417.21c0,0-10.985-26.151-26.151-26.151l-4.717,9.419c0,0,18.044,1.326,27.57,27.57"/>
</g>
<g>
</g>
<g>
</g>
<g>
</g>
<g>
</g>
<g>
</g>
<g>
</g>
<g>
</g>
<g>
</g>
<g>
</g>
<g>
</g>
<g>
</g>
<g>
</g>
<g>
</g>
<g>
</g>
<g>
</g>
</svg>
