<?xml version="1.0" encoding="iso-8859-1"?>
<!-- Generator: Adobe Illustrator 19.0.0, SVG Export Plug-In . SVG Version: 6.00 Build 0)  -->
<svg version="1.1" id="Capa_1" xmlns="http://www.w3.org/2000/svg" xmlns:xlink="http://www.w3.org/1999/xlink" x="0px" y="0px"
	 viewBox="0 0 512 512" style="enable-background:new 0 0 512 512;" xml:space="preserve">
<circle style="fill:#E2BD55;" cx="256" cy="255.999" r="255.999"/>
<path style="fill:#F9D368;" d="M461.684,223.352c0,58.423-24.355,111.155-63.469,148.598
	c-12.954,12.408-27.537,23.129-43.387,31.826c-29.325,16.102-63.016,25.261-98.83,25.261s-69.489-9.151-98.814-25.253
	c-4.726-2.586-9.336-5.356-13.819-8.303c-10.579-6.927-20.477-14.818-29.577-23.532C74.674,334.515,50.31,281.775,50.31,223.352
	c0-113.598,92.089-205.687,205.687-205.687S461.684,109.755,461.684,223.352z"/>
<path style="fill:#393A59;" d="M433,442.793c-16.123,15.042-34.273,28.039-53.999,38.583C342.503,500.897,300.572,512,255.998,512
	s-86.485-11.094-122.982-30.614c-19.728-10.534-37.876-23.54-54.01-38.593c16.374-40.487,56.193-69.472,103.172-71.1
	c1.379-0.061,2.779-0.092,4.18-0.092h139.293c1.4,0,2.8,0.03,4.18,0.092C376.807,373.321,416.627,402.307,433,442.793z"/>
<g>
	<path style="fill:#282942;" d="M230.44,371.602c-1.411,0-2.811,0.03-4.18,0.092c-57.426,1.984-104.154,44.863-110.444,99.628
		c-13.166-8.397-25.485-17.963-36.812-28.528c16.374-40.487,56.193-69.472,103.172-71.1c1.379-0.061,2.779-0.092,4.18-0.092H230.44z
		"/>
	<path style="fill:#282942;" d="M329.825,371.696v6.679c0,39.658-33.108,71.906-73.823,71.906s-73.823-32.248-73.823-71.906v-6.679
		c1.371-0.064,2.775-0.095,4.18-0.095h139.288C327.05,371.6,328.454,371.633,329.825,371.696z"/>
</g>
<path style="fill:#D6AD9E;" d="M310.231,321.64v56.738c0,29.173-24.283,52.819-54.23,52.819c-14.973,0-28.526-5.914-38.348-15.464
	c-9.812-9.561-15.882-22.768-15.882-37.355V321.64H310.231z"/>
<ellipse style="fill:#E5BAAA;" cx="138.93" cy="228.822" rx="33.52" ry="32.643"/>
<path style="fill:#F9D0BE;" d="M376.739,154.592v99.714c0,32.475-13.51,61.879-35.359,83.153c-1.87,1.818-3.793,3.584-5.789,5.266
	c-6.301,5.392-13.187,10.156-20.553,14.179c-17.46,9.561-37.595,15.005-59.037,15.005c-66.685,0-120.738-52.652-120.738-117.603
	v-99.714c0-64.951,54.052-117.603,120.738-117.603c44.805,0,83.916,23.771,104.751,59.078c1.682,2.842,3.239,5.768,4.671,8.767
	c6.949,14.461,10.961,30.532,11.295,47.48C376.727,153.067,376.739,153.83,376.739,154.592z"/>
<ellipse style="fill:#4E4D68;" cx="373.07" cy="228.822" rx="33.52" ry="32.643"/>
<path style="fill:#DDD4CF;" d="M310.231,321.64v56.738c0,29.173-24.283,52.819-54.23,52.819V321.64H310.231z"/>
<g>
	<path style="fill:#E5BAAA;" d="M170.24,254.307v-99.718c0-59.161,44.859-108.103,103.248-116.359
		c-5.712-0.808-11.549-1.244-17.493-1.244c-66.68,0-120.738,52.654-120.738,117.603v99.718c0,64.949,54.058,117.603,120.738,117.603
		c5.943,0,11.78-0.436,17.494-1.243C215.1,362.41,170.24,313.468,170.24,254.307z"/>
	<path style="fill:#E5BAAA;" d="M256.001,264.964L256.001,264.964c-6.745,0-12.213-5.326-12.213-11.896V159.78l24.425-19.183v112.47
		C268.214,259.638,262.746,264.964,256.001,264.964z"/>
	<ellipse style="fill:#E5BAAA;" cx="207.256" cy="219" rx="23.739" ry="33.206"/>
</g>
<path style="fill:#4E4D68;" d="M376.739,154.592v99.714c0,32.475-13.51,61.879-35.359,83.153c-1.87,1.818-3.793,3.584-5.789,5.266
	c-6.301,5.392-13.187,10.156-20.553,14.179V152.314h61.68C376.727,153.067,376.739,153.83,376.739,154.592z"/>
<path style="fill:#F0F0F0;" d="M320.832,96.068c24.626,0,44.59,19.964,44.59,44.59v101.769c0,11.168-6.341,20.848-15.618,25.642
	c-6.127,3.167-10.128,9.32-10.128,16.218v38.169c0,7.189-1.452,14.043-4.086,20.271c-21.253,18.181-49.11,29.184-79.59,29.184
	V96.068H320.832z"/>
<ellipse style="fill:#4E4D68;" cx="304.734" cy="219" rx="23.739" ry="33.206"/>
<g>
	<path style="fill:#282942;" d="M316.101,231.155v-22.539c0-5.879-4.892-10.643-10.928-10.643l0,0
		c-6.035,0-10.928,4.766-10.928,10.643v22.539c0,5.879,4.892,10.643,10.928,10.643l0,0
		C311.209,241.798,316.101,237.034,316.101,231.155z"/>
	<path style="fill:#282942;" d="M195.901,208.616v22.539c0,5.879,4.892,10.643,10.928,10.643l0,0
		c6.035,0,10.928-4.766,10.928-10.643v-22.539c0-5.879-4.892-10.643-10.928-10.643l0,0
		C200.793,197.972,195.901,202.737,195.901,208.616z"/>
</g>
<g>
	<ellipse style="fill:#7F7D89;" cx="308.966" cy="212.574" rx="7.139" ry="6.954"/>
	<ellipse style="fill:#7F7D89;" cx="210.62" cy="212.574" rx="7.139" ry="6.954"/>
	<ellipse style="fill:#7F7D89;" cx="300.983" cy="229.083" rx="4.105" ry="3.999"/>
	<ellipse style="fill:#7F7D89;" cx="202.637" cy="229.083" rx="4.105" ry="3.999"/>
</g>
<path style="fill:#DDD4CF;" d="M268.216,140.601v112.462c0,6.572-5.465,11.901-12.215,11.901V150.193L268.216,140.601z"/>
<path style="fill:#393A59;" d="M376.735,154.588v41.403c-49.361-3.908-74.319-75.561-74.319-75.561s-37.352,67.591-132.175,75.546
	c-10.894,0.917-22.546,1.043-34.982,0.194v-41.584c0-64.949,54.058-117.603,120.738-117.603c1.043,0,2.085,0.014,3.113,0.042
	c0.685,0.014,1.356,0.042,2.042,0.07c0.499,0.014,0.985,0.042,1.485,0.07c1.142,0.055,2.284,0.139,3.427,0.236
	c0.499,0.028,1,0.07,1.513,0.125c0.542,0.055,1.071,0.111,1.599,0.167c1.442,0.153,2.884,0.32,4.312,0.529
	c-0.03,0.004-0.061,0.01-0.091,0.015C331.844,46.446,376.735,95.399,376.735,154.588z"/>
<path style="fill:#282942;" d="M273.487,38.223C215.103,46.484,170.24,95.425,170.24,154.588v41.389
	c-10.894,0.917-22.546,1.043-34.982,0.194v-41.584c0-64.949,54.058-117.603,120.738-117.603c1.043,0,2.085,0.014,3.113,0.042
	c0.685,0.014,1.356,0.042,2.042,0.07c0.499,0.014,0.985,0.042,1.485,0.07c1.142,0.055,2.284,0.139,3.427,0.236
	c0.499,0.028,1,0.07,1.513,0.125c0.542,0.055,1.071,0.111,1.599,0.167C270.617,37.848,272.059,38.014,273.487,38.223z"/>
<path style="fill:#393A59;" d="M256.001,238.17l27.848,32.577c3.568,4.174,0.602,10.612-4.889,10.612h-22.958L256.001,238.17
	L256.001,238.17z"/>
<g>
	<path style="fill:#E5BAAA;" d="M231.619,318.278H256V305.74h-24.381c-3.463,0-6.269,2.807-6.269,6.269l0,0
		C225.35,315.472,228.157,318.278,231.619,318.278z"/>
	<path style="fill:#E5BAAA;" d="M246.945,338.48h9.056v-12.539h-9.056c-3.463,0-6.269,2.807-6.269,6.269l0,0
		C240.676,335.673,243.482,338.48,246.945,338.48z"/>
</g>
<path style="fill:#393A59;" d="M321.914,305.741h-0.434v-5.399c0-2.404-1.949-4.354-4.354-4.354l0,0
	c-2.404,0-4.354,1.949-4.354,4.354v1.045c0,2.404-1.949,4.354-4.354,4.354h-1.509c-2.404,0-4.354-1.949-4.354-4.354v-1.045
	c0-2.404-1.949-4.354-4.354-4.354l0,0c-2.404,0-4.354,1.949-4.354,4.354v1.045c0,2.404-1.949,4.354-4.354,4.354h-1.509
	c-2.404,0-4.354-1.949-4.354-4.354v-1.045c0-2.404-1.949-4.354-4.354-4.354l0,0c-2.404,0-4.354,1.949-4.354,4.354v1.045
	c0,2.404-1.949,4.354-4.354,4.354h-1.507c-2.404,0-4.354-1.949-4.354-4.354v-1.045c0-2.404-1.949-4.354-4.354-4.354l0,0
	c-2.404,0-4.354,1.949-4.354,4.354v5.399v12.539v5.398c0,2.404,1.949,4.354,4.354,4.354l0,0c2.404,0,4.354-1.949,4.354-4.354v-1.045
	c0-2.404,1.949-4.354,4.354-4.354h1.509c2.404,0,4.354,1.949,4.354,4.354v1.045c0,2.404,1.949,4.354,4.354,4.354l0,0
	c2.404,0,4.354-1.949,4.354-4.354v-1.045c0-2.404,1.949-4.354,4.354-4.354h1.509c2.404,0,4.354,1.949,4.354,4.354v1.045
	c0,2.404,1.949,4.354,4.354,4.354l0,0c2.404,0,4.354-1.949,4.354-4.354v-1.045c0-2.404,1.949-4.354,4.354-4.354h1.509
	c2.404,0,4.354,1.949,4.354,4.354v1.045c0,2.404,1.949,4.354,4.354,4.354l0,0c2.404,0,4.354-1.949,4.354-4.354v-5.398h0.697
	c3.527,0,6.373-2.912,6.266-6.463C328.34,308.385,325.347,305.741,321.914,305.741z"/>
<g>
	<path style="fill:#F0F0F0;" d="M283.691,395.253h-27.69v-13.584h27.69c3.751,0,6.792,3.041,6.792,6.792l0,0
		C290.483,392.212,287.441,395.253,283.691,395.253z"/>
	<path style="fill:#F0F0F0;" d="M283.691,419.808h-27.69v-13.584h27.69c3.751,0,6.792,3.041,6.792,6.792l0,0
		C290.483,416.767,287.441,419.808,283.691,419.808z"/>
</g>
<g>
</g>
<g>
</g>
<g>
</g>
<g>
</g>
<g>
</g>
<g>
</g>
<g>
</g>
<g>
</g>
<g>
</g>
<g>
</g>
<g>
</g>
<g>
</g>
<g>
</g>
<g>
</g>
<g>
</g>
</svg>
