<?xml version="1.0" encoding="iso-8859-1"?>
<!-- Generator: Adobe Illustrator 19.0.0, SVG Export Plug-In . SVG Version: 6.00 Build 0)  -->
<svg version="1.1" id="Capa_1" xmlns="http://www.w3.org/2000/svg" xmlns:xlink="http://www.w3.org/1999/xlink" x="0px" y="0px"
	 viewBox="0 0 512 512" style="enable-background:new 0 0 512 512;" xml:space="preserve">
<circle style="fill:#7C49A8;" cx="256" cy="256" r="256"/>
<path style="fill:#8E5EBC;" d="M461.684,223.352c0,58.423-24.355,111.155-63.469,148.598
	c-12.954,12.408-27.537,23.129-43.387,31.827c-29.325,16.102-63.016,25.261-98.831,25.261c-35.815,0-69.489-9.151-98.814-25.253
	c-4.727-2.586-9.336-5.356-13.819-8.303c-10.579-6.927-20.477-14.818-29.577-23.532C74.674,334.516,50.31,281.776,50.31,223.352
	c0-113.598,92.089-205.687,205.687-205.687S461.684,109.755,461.684,223.352z"/>
<g>
	<path style="fill:#EF7064;" d="M59.449,25.27l13.745,28.365c7.761,16.016,1.071,35.284-14.945,43.045
		c-8.005,3.879-16.827,4.145-24.619,1.445c-7.789-2.709-14.547-8.385-18.426-16.39L1.46,53.37l15.772,7.925l3.554-17.289
		l15.772,7.925l3.561-17.292l15.772,7.925L59.449,25.27z"/>
	<path style="fill:#EF7064;" d="M114.004,285.629l-13.745-28.365c-7.762-16.016-1.071-35.284,14.945-43.045
		c8.005-3.879,16.827-4.145,24.619-1.445c7.789,2.709,14.547,8.385,18.426,16.39l13.745,28.365l-15.772-7.925l-3.554,17.289
		l-15.772-7.925l-3.561,17.292l-15.772-7.925L114.004,285.629z"/>
</g>
<path style="fill:#4E4D68;" d="M119.73,113.333l20.504,42.314c1.809,3.733,3.097,7.59,3.877,11.474
	c1.436,7.107,1.205,14.325-0.496,21.14c-3.339,13.333-12.341,25.138-25.675,31.6s-28.178,6.211-40.711,0.569
	c-6.404-2.888-12.211-7.181-16.899-12.711c-2.565-3.018-4.794-6.42-6.604-10.153L33.22,155.252
	c-1.809-3.733-3.097-7.59-3.877-11.474c-1.436-7.107-1.205-14.324,0.496-21.14c3.338-13.334,12.341-25.138,25.675-31.6
	c11.942-5.787,25.103-6.184,36.726-2.156c1.354,0.47,2.679,1.001,3.985,1.587c6.404,2.888,12.211,7.181,16.899,12.711
	C115.691,106.198,117.92,109.599,119.73,113.333z"/>
<path style="fill:#282942;" d="M117.939,219.861c-13.334,6.461-28.178,6.211-40.711,0.569c-6.404-2.888-12.211-7.181-16.899-12.711
	c-2.565-3.018-4.794-6.42-6.604-10.153L33.22,155.252c-1.809-3.733-3.097-7.59-3.877-11.474c-1.436-7.107-1.205-14.324,0.496-21.14
	c3.338-13.334,12.341-25.138,25.675-31.6c-6.375,3.09-9.163,11.883-8.354,23.206c0.414,5.791,1.754,12.247,4.035,18.944
	c1.249,3.656,2.783,7.395,4.591,11.128l20.504,42.314c1.809,3.733,3.793,7.254,5.889,10.499c3.842,5.94,8.079,10.993,12.367,14.908
	C102.934,219.689,111.563,222.951,117.939,219.861z"/>
<g>
	<path style="fill:#EF7064;" d="M144.109,167.121c1.436,7.107,1.205,14.325-0.496,21.14L77.226,220.43
		c-6.404-2.888-12.211-7.181-16.899-12.711L144.109,167.121z"/>
	
		<rect x="77.317" y="107.384" transform="matrix(0.4361 0.8999 -0.8999 0.4361 188.7906 9.6177)" style="fill:#EF7064;" width="18.808" height="96.131"/>
	<path style="fill:#EF7064;" d="M113.126,103.179l-83.782,40.598c-1.436-7.107-1.205-14.324,0.496-21.14l66.387-32.168
		C102.63,93.356,108.437,97.649,113.126,103.179z"/>
</g>
<g>
	
		<rect x="42.225" y="161.533" transform="matrix(-0.8999 0.4361 -0.4361 -0.8999 178.5913 300.8804)" style="fill:#E0554A;" width="25.078" height="18.808"/>
	<path style="fill:#E0554A;" d="M82.18,197.13c3.842,5.94,8.079,10.993,12.367,14.908l-17.321,8.393
		c-6.404-2.888-12.211-7.181-16.899-12.711L82.18,197.13z"/>
	<path style="fill:#E0554A;" d="M51.197,133.189l-21.853,10.589c-1.436-7.107-1.205-14.324,0.496-21.14l17.321-8.393
		C47.574,120.035,48.915,126.491,51.197,133.189z"/>
</g>
<g>
	<path style="fill:#50BC69;" d="M240.026,323.897l-14.535,23.081c-8.208,13.033-25.419,16.943-38.451,8.735
		c-6.514-4.102-10.749-10.458-12.334-17.416c-1.577-6.96-0.504-14.522,3.599-21.036l14.535-23.081l1.403,15.21l14.322-5.307
		l1.403,15.21l14.328-5.303l1.402,15.211L240.026,323.897z"/>
	<path style="fill:#50BC69;" d="M138.491,483.495c-16.008-8.286-31.044-18.213-44.857-29.571c9.028-7.889,22.507-9.289,33.176-2.57
		c6.51,4.106,10.752,10.459,12.33,17.418C140.225,473.579,140.048,478.668,138.491,483.495z"/>
</g>
<path style="fill:#4E4D68;" d="M202.962,408.485l-21.684,34.431c-1.913,3.038-4.156,5.75-6.651,8.101
	c-4.562,4.308-9.967,7.444-15.751,9.315c-11.319,3.653-24.111,2.448-34.96-4.384c-10.85-6.833-17.463-17.847-19.059-29.634
	c-0.811-6.025-0.319-12.255,1.596-18.23c1.042-3.265,2.519-6.461,4.431-9.498l21.684-34.431c1.913-3.038,4.156-5.75,6.651-8.101
	c4.562-4.308,9.967-7.444,15.751-9.315c11.32-3.654,24.111-2.448,34.96,4.384c9.718,6.12,16.035,15.601,18.4,25.981
	c0.275,1.21,0.492,2.425,0.659,3.653c0.811,6.025,0.319,12.255-1.596,18.23C206.353,402.253,204.875,405.448,202.962,408.485z"/>
<path style="fill:#282942;" d="M123.917,455.95c-10.85-6.833-17.463-17.847-19.059-29.634c-0.811-6.025-0.319-12.255,1.596-18.23
	c1.042-3.265,2.519-6.461,4.431-9.498l21.684-34.431c1.913-3.038,4.156-5.75,6.651-8.101c4.562-4.308,9.967-7.444,15.751-9.315
	c11.32-3.654,24.111-2.448,34.96,4.384c-5.188-3.267-12.921-1.287-20.867,4.491c-4.063,2.955-8.19,6.896-12.063,11.638
	c-2.113,2.591-4.157,5.429-6.069,8.467l-21.684,34.431c-1.913,3.038-3.589,6.106-5.013,9.131
	c-2.603,5.542-4.373,10.966-5.284,15.908C117.173,444.853,118.729,452.682,123.917,455.95z"/>
<g>
	<path style="fill:#50BC69;" d="M174.628,451.018c-4.562,4.308-9.967,7.444-15.751,9.315l-54.02-34.019
		c-0.811-6.025-0.319-12.255,1.596-18.23L174.628,451.018z"/>
	
		<rect x="148.793" y="361.949" transform="matrix(-0.5329 0.8462 -0.8462 -0.5329 582.0296 485.7925)" style="fill:#50BC69;" width="16.277" height="83.186"/>
	<path style="fill:#50BC69;" d="M207.393,398.987l-68.175-42.933c4.562-4.308,9.967-7.444,15.751-9.315l54.02,34.019
		C209.801,386.783,209.308,393.012,207.393,398.987z"/>
	
		<rect x="120.05" y="379.023" transform="matrix(-0.8462 -0.5329 0.5329 -0.8462 35.3529 784.5278)" style="fill:#50BC69;" width="21.702" height="16.277"/>
	<path style="fill:#50BC69;" d="M124.234,419.283c-2.603,5.542-4.373,10.966-5.284,15.908l-14.095-8.875
		c-0.811-6.025-0.319-12.255,1.596-18.23L124.234,419.283z"/>
	<path style="fill:#50BC69;" d="M157,367.252l-17.782-11.198c4.562-4.308,9.967-7.444,15.751-9.315l14.095,8.875
		C165.001,358.57,160.874,362.511,157,367.252z"/>
	<path style="fill:#50BC69;" d="M368.222,133.147l7.152,16.276c4.039,9.191-0.136,19.911-9.327,23.949
		c-4.593,2.019-9.571,1.983-13.907,0.298c-4.333-1.691-8.024-5.031-10.043-9.625l-7.152-16.276l8.724,4.797l2.366-9.671l8.724,4.797
		l2.37-9.672l8.723,4.797L368.222,133.147z"/>
	<path style="fill:#50BC69;" d="M393.509,281.043l-7.152-16.276c-4.039-9.191,0.136-19.911,9.327-23.949
		c4.593-2.019,9.571-1.983,13.907-0.298c4.333,1.691,8.024,5.031,10.043,9.625l7.152,16.276l-8.724-4.797l-2.366,9.671l-8.724-4.797
		l-2.37,9.672l-8.723-4.797L393.509,281.043z"/>
</g>
<path style="fill:#4E4D68;" d="M400.351,184.048l10.669,24.28c0.941,2.142,1.587,4.344,1.945,6.548
	c0.659,4.036,0.378,8.099-0.723,11.906c-2.162,7.445-7.484,13.911-15.134,17.272c-7.651,3.362-16.012,2.91-22.958-0.533
	c-3.548-1.763-6.732-4.303-9.259-7.519c-1.382-1.755-2.567-3.719-3.509-5.861l-10.669-24.28c-0.941-2.142-1.587-4.344-1.945-6.548
	c-0.659-4.036-0.378-8.099,0.723-11.906c2.162-7.446,7.484-13.911,15.134-17.272c6.852-3.011,14.279-2.959,20.745-0.445
	c0.753,0.294,1.489,0.621,2.213,0.978c3.548,1.763,6.732,4.303,9.259,7.519C398.224,179.942,399.409,181.906,400.351,184.048z"/>
<path style="fill:#282942;" d="M397.106,244.056c-7.651,3.362-16.012,2.91-22.959-0.533c-3.548-1.763-6.732-4.303-9.259-7.519
	c-1.382-1.755-2.567-3.719-3.509-5.861l-10.669-24.28c-0.941-2.142-1.587-4.344-1.945-6.548c-0.659-4.036-0.378-8.099,0.723-11.906
	c2.162-7.446,7.484-13.911,15.134-17.272c-3.658,1.607-5.414,6.506-5.196,12.906c0.112,3.273,0.732,6.94,1.878,10.762
	c0.627,2.087,1.413,4.227,2.354,6.369l10.669,24.28c0.941,2.142,1.986,4.168,3.099,6.042c2.041,3.429,4.323,6.366,6.658,8.662
	C388.653,243.644,393.448,245.663,397.106,244.056z"/>
<g>
	<path style="fill:#50BC69;" d="M412.965,214.878c0.659,4.036,0.378,8.099-0.723,11.906l-38.094,16.739
		c-3.548-1.763-6.732-4.303-9.259-7.519L412.965,214.878z"/>
	
		<rect x="375.552" y="179.987" transform="matrix(0.4023 0.9155 -0.9155 0.4023 417.2363 -224.8947)" style="fill:#50BC69;" width="10.609" height="54.221"/>
	<path style="fill:#50BC69;" d="M396.842,178.187l-48.076,21.126c-0.659-4.036-0.378-8.099,0.723-11.906l38.094-16.739
		C391.132,172.43,394.315,174.971,396.842,178.187z"/>
	
		<rect x="355.447" y="209.854" transform="matrix(-0.9155 0.4023 -0.4023 -0.9155 780.9671 266.2945)" style="fill:#50BC69;" width="14.145" height="10.609"/>
	<path style="fill:#50BC69;" d="M377.429,230.493c2.041,3.429,4.323,6.366,6.658,8.662l-9.939,4.368
		c-3.548-1.763-6.732-4.303-9.259-7.519L377.429,230.493z"/>
	<path style="fill:#50BC69;" d="M361.306,193.802l-12.54,5.51c-0.659-4.036-0.378-8.099,0.723-11.906l9.939-4.368
		C359.54,186.313,360.161,189.98,361.306,193.802z"/>
</g>
<path style="fill:#EF7064;" d="M364.627,270.978l21.618-16.633c12.208-9.392,29.709-7.111,39.101,5.097
	c4.694,6.101,6.47,13.529,5.553,20.606c-0.927,7.076-4.548,13.8-10.65,18.495l-21.618,16.633l3.942-14.757l-15.274,0.027
	l3.942-14.757l-15.277,0.023l3.942-14.757L364.627,270.978z"/>
<path style="fill:#4E4D68;" d="M511.781,245.415c-0.052,0.042-0.104,0.084-0.157,0.125l-32.246,24.816
	c-2.853,2.184-5.893,3.96-9.049,5.298c-5.768,2.466-11.922,3.542-17.993,3.302c-11.891-0.491-23.468-6.039-31.295-16.206
	c-7.816-10.167-10.209-22.779-7.638-34.398c1.327-5.935,3.939-11.609,7.805-16.551c2.1-2.706,4.598-5.193,7.44-7.377l32.246-24.816
	c2.853-2.184,5.893-3.96,9.049-5.298c5.768-2.466,11.922-3.542,17.993-3.302c3.459,0.136,6.886,0.711,10.209,1.693
	C506.034,195.636,510.757,220.056,511.781,245.415z"/>
<path style="fill:#282942;" d="M501.561,183.39c-1.128,0.209-2.288,0.491-3.469,0.825c-4.827,1.369-10.062,3.636-15.339,6.75
	c-2.873,1.693-5.778,3.657-8.62,5.841l-32.256,24.816c-2.842,2.184-5.475,4.483-7.858,6.834c-4.357,4.295-7.889,8.777-10.459,13.103
	c-5.005,8.443-6.249,16.332-2.518,21.191c-7.816-10.167-10.209-22.779-7.638-34.398c1.327-5.935,3.939-11.609,7.805-16.551
	c2.1-2.706,4.598-5.193,7.44-7.377l32.246-24.816c2.853-2.184,5.893-3.96,9.049-5.298c5.768-2.466,11.922-3.542,17.993-3.302
	c3.459,0.136,6.886,0.711,10.209,1.693C499.357,176.222,500.496,179.785,501.561,183.39z"/>
<g>
	<path style="fill:#EF7064;" d="M470.335,275.656c-5.77,2.465-11.925,3.539-18,3.296l-38.928-50.597
		c1.322-5.934,3.937-11.609,7.8-16.554L470.335,275.656z"/>
	
		<rect x="462.019" y="183.379" transform="matrix(-0.7926 0.6098 -0.6098 -0.7926 979.9745 116.5884)" style="fill:#EF7064;" width="16.277" height="83.187"/>
	<path style="fill:#EF7064;" d="M510.359,226.847l-40.417-52.537c5.768-2.466,11.922-3.542,17.993-3.302l15.914,20.689
		C506.817,203.118,509.001,214.862,510.359,226.847z"/>
</g>
<g>
	
		<rect x="440.537" y="192.492" transform="matrix(-0.6098 -0.7926 0.7926 -0.6098 567.6203 680.7277)" style="fill:#E0554A;" width="21.702" height="16.277"/>
	<path style="fill:#E0554A;" d="M434.02,228.455c-4.358,4.3-7.895,8.778-10.457,13.1l-10.156-13.201
		c1.322-5.934,3.937-11.609,7.8-16.554L434.02,228.455z"/>
	<path style="fill:#E0554A;" d="M482.754,190.961l-12.814-16.656c5.77-2.465,11.926-3.539,18-3.296l10.156,13.201
		C493.263,185.58,488.028,187.851,482.754,190.961z"/>
</g>
<g>
	<path style="fill:#E87BC2;" d="M307.537,253.866l16.756,24.504c9.462,13.837,5.916,32.716-7.92,42.177
		c-6.915,4.729-15.096,6.207-22.73,4.778c-7.632-1.438-14.718-5.782-19.448-12.699l-16.756-24.504l15.795,5.183l0.901-16.599
		l15.795,5.183l0.906-16.602l15.795,5.183L307.537,253.866z"/>
	<path style="fill:#E87BC2;" d="M434.489,439.515c-14.524,14.127-30.73,26.551-48.274,36.927l-8.328-12.173
		c-9.456-13.834-5.914-32.716,7.92-42.183c6.917-4.723,15.099-6.207,22.727-4.775c7.638,1.442,14.723,5.789,19.456,12.695
		L434.489,439.515z"/>
</g>
<path style="fill:#4E4D68;" d="M326.221,415.149l-24.997-36.556c-3.072-4.492-5.22-9.342-6.493-14.324
	c-4.594-17.912,2.16-37.553,18.309-48.595c7.896-5.399,16.901-7.957,25.797-7.9c13.692,0.079,27.134,6.362,35.905,18.021
	c0.414,0.552,0.824,1.118,1.218,1.695l24.997,36.556c3.072,4.492,5.22,9.342,6.493,14.324c4.594,17.912-2.16,37.553-18.309,48.595
	c-7.896,5.399-16.901,7.957-25.797,7.9c-2.724-0.009-5.444-0.272-8.11-0.772c-10.751-2.019-20.767-7.914-27.794-17.249
	C327.026,416.292,326.615,415.725,326.221,415.149z"/>
<path style="fill:#282942;" d="M317.716,322.216c13.692,0.079,27.134,6.362,35.905,18.021c0.414,0.552,0.824,1.118,1.218,1.695
	l24.997,36.556c3.072,4.492,5.22,9.342,6.493,14.324c3.551,13.841,0.319,28.709-8.781,39.849c4.022-1.304,7.928-3.19,11.593-5.697
	c16.149-11.042,22.903-30.683,18.309-48.595c-1.274-4.983-3.421-9.833-6.493-14.325l-24.997-36.556
	c-0.394-0.577-0.805-1.142-1.218-1.695c-8.771-11.659-22.211-17.942-35.905-18.021c-8.896-0.056-17.901,2.5-25.797,7.9
	c-3.671,2.51-6.85,5.468-9.527,8.746C308.154,322.913,312.95,322.186,317.716,322.216z"/>
<g>
	<path style="fill:#E87BC2;" d="M316.3,400.641l-15.076-22.047c-3.072-4.492-5.22-9.342-6.493-14.324l32.07-41.076l12.036-15.42
		c13.692,0.079,27.134,6.362,35.905,18.021l-16.492,21.125L316.3,400.641z"/>
	<path style="fill:#E87BC2;" d="M327.44,416.843l41.914-53.686l16.527-21.16l15.076,22.047c3.072,4.492,5.22,9.342,6.493,14.325
		l-19.716,25.249l-24.39,31.247c-2.724-0.009-5.444-0.272-8.111-0.772C344.482,432.074,334.466,426.177,327.44,416.843z"/>
</g>
<g>
	<path style="fill:#D863BB;" d="M369.354,363.158l16.527-21.16l15.076,22.047c3.072,4.492,5.22,9.342,6.493,14.325l-19.716,25.249
		c-0.029-3.616-0.494-7.244-1.404-10.806c-1.274-4.983-3.421-9.832-6.493-14.325L369.354,363.158z"/>
	<path style="fill:#D863BB;" d="M326.801,323.192l12.036-15.42c13.692,0.079,27.134,6.362,35.905,18.021l-16.492,21.125
		l-3.411-4.988c-0.394-0.577-0.805-1.142-1.218-1.695C346.81,331.184,337.182,325.369,326.801,323.192z"/>
</g>
<g>
	<path style="fill:#E87BC2;" d="M239.088,24.858l0.133,25.24c0.075,14.251-11.412,25.86-25.665,25.935
		c-7.123,0.038-13.588-2.817-18.285-7.46c-4.691-4.648-7.613-11.082-7.651-18.205l-0.133-25.24l8.657,11.172l8.539-11.263
		l8.657,11.172l8.545-11.263l8.657,11.172L239.088,24.858z"/>
	<path style="fill:#E87BC2;" d="M188.574,231.794l-0.133-25.24c-0.075-14.251,11.412-25.86,25.665-25.935
		c7.123-0.038,13.588,2.817,18.285,7.46c4.691,4.648,7.613,11.082,7.651,18.205l0.133,25.238l-8.657-11.172l-8.539,11.263
		l-8.657-11.172l-8.545,11.263l-8.657-11.172L188.574,231.794z"/>
</g>
<path style="fill:#4E4D68;" d="M175.441,147.354l-0.197-37.652c-0.024-4.627,0.772-9.066,2.249-13.181
	c5.293-14.804,19.404-25.421,36.037-25.508c8.132-0.043,15.693,2.444,21.932,6.721c9.607,6.577,16.081,17.403,16.707,29.792
	c0.028,0.586,0.048,1.18,0.051,1.773l0.197,37.652c0.024,4.627-0.772,9.066-2.249,13.181c-5.295,14.804-19.404,25.421-36.037,25.508
	c-8.132,0.043-15.693-2.444-21.932-6.721c-1.914-1.304-3.705-2.784-5.345-4.406c-6.611-6.542-10.859-15.464-11.362-25.385
	C175.464,148.542,175.445,147.948,175.441,147.354z"/>
<path style="fill:#282942;" d="M213.709,77.847c9.607,6.577,16.081,17.403,16.707,29.792c0.028,0.586,0.048,1.18,0.051,1.773
	l0.197,37.652c0.024,4.627-0.772,9.066-2.249,13.181c-4.091,11.44-13.447,20.372-25.162,23.886
	c3.453,0.997,7.103,1.528,10.878,1.508c16.634-0.088,30.744-10.704,36.037-25.508c1.476-4.116,2.273-8.555,2.249-13.181
	l-0.197-37.652c-0.003-0.595-0.023-1.188-0.051-1.773c-0.626-12.388-7.1-23.216-16.707-29.792c-6.239-4.277-13.8-6.764-21.932-6.721
	c-3.78,0.02-7.429,0.589-10.875,1.623C206.641,73.784,210.365,75.556,213.709,77.847z"/>
<g>
	<path style="fill:#E87BC2;" d="M175.363,132.411l-0.119-22.708c-0.024-4.627,0.772-9.066,2.249-13.181l42.149-13.659l15.821-5.128
		c9.607,6.577,16.081,17.403,16.707,29.792l-21.676,7.026L175.363,132.411z"/>
	<path style="fill:#E87BC2;" d="M175.493,149.128l55.088-17.852l21.718-7.034l0.119,22.708c0.024,4.627-0.772,9.066-2.249,13.181
		l-25.911,8.395L192.2,178.919c-1.914-1.304-3.705-2.784-5.345-4.406C180.244,167.97,175.997,159.048,175.493,149.128z"/>
</g>
<g>
	<path style="fill:#D863BB;" d="M230.581,131.275l21.718-7.034l0.119,22.708c0.024,4.627-0.772,9.066-2.249,13.181l-25.911,8.395
		c1.702-2.561,3.101-5.337,4.157-8.28c1.476-4.116,2.273-8.555,2.249-13.181L230.581,131.275z"/>
	<path style="fill:#D863BB;" d="M219.642,82.861l15.821-5.128c9.607,6.577,16.081,17.403,16.707,29.792l-21.676,7.026l-0.027-5.138
		c-0.003-0.595-0.023-1.188-0.051-1.773C229.93,98.019,225.918,89.338,219.642,82.861z"/>
</g>
<path style="fill:#E87BC2;" d="M133.314,345.192l-24.442,6.293c-13.802,3.554-27.865-4.75-31.419-18.551
	c-1.776-6.898-0.587-13.865,2.767-19.553c3.36-5.684,8.887-10.09,15.785-11.866l24.442-6.293l-8.719,11.124l13.007,5.53L116.017,323
	l13.009,5.535l-8.719,11.124L133.314,345.192z"/>
<path style="fill:#4E4D68;" d="M81.157,354.597c-4.033,10.919-12.946,19.843-24.806,23.479c-0.564,0.167-1.139,0.334-1.714,0.481
	l-20.49,5.277v-0.01c-7.711-13.364-14.252-27.481-19.477-42.214c-3.459-9.749-6.343-19.769-8.62-30.03l29.393-7.565
	c4.483-1.16,8.976-1.473,13.333-1.045c15.653,1.515,29.393,12.612,33.541,28.714C84.344,339.56,83.78,347.502,81.157,354.597z"/>
<path style="fill:#282942;" d="M81.157,354.597c-4.033,10.919-12.946,19.843-24.806,23.479c-0.564,0.167-1.139,0.334-1.714,0.481
	l-20.49,5.277v-0.01c-3.709-6.437-7.158-13.03-10.303-19.801l25.37-6.531c0.575-0.157,1.149-0.313,1.703-0.491
	c11.86-3.626,20.783-12.549,24.816-23.479c1.4-3.793,2.205-7.837,2.351-11.985c1.839,3.082,3.291,6.489,4.232,10.146
	C84.344,339.56,83.78,347.502,81.157,354.597z"/>
<g>
	<path style="fill:#E87BC2;" d="M13.453,309.671l21.991-5.662c4.481-1.154,8.98-1.466,13.332-1.04l23.542,37.536l8.838,14.088
		c-4.03,10.922-12.947,19.846-24.808,23.478L44.24,358.768L13.453,309.671z"/>
	<path style="fill:#E87BC2;" d="M40.166,382.276l-6.019,1.546c-7.711-13.364-14.252-27.481-19.477-42.214l13.375,21.326
		L40.166,382.276z"/>
</g>
<g>
	<path style="fill:#D863BB;" d="M40.166,382.276l-6.019,1.546c-3.709-6.437-7.158-13.04-10.303-19.811l4.2-1.076L40.166,382.276z"/>
	<path style="fill:#D863BB;" d="M72.317,340.504l8.838,14.088c-4.03,10.922-12.947,19.846-24.808,23.478L44.24,358.767l4.975-1.281
		c0.576-0.148,1.146-0.312,1.707-0.483C60.132,354.183,67.569,348.173,72.317,340.504z"/>
</g>
<g>
	<path style="fill:#F9D368;" d="M208.732,247.993l24.067-27.419c13.59-15.483,37.147-17.017,52.63-3.427
		c7.739,6.792,11.991,16.081,12.617,25.605c0.614,9.525-2.398,19.287-9.19,27.025l-24.067,27.419l1.355-20.385l-20.037,3.987
		l1.355-20.385l-20.043,3.982l1.355-20.385L208.732,247.993z"/>
	<path style="fill:#F9D368;" d="M461.856,72.676l-24.067,27.419c-13.59,15.483-37.147,17.017-52.63,3.427
		c-7.739-6.792-11.991-16.081-12.617-25.605c-0.614-9.525,2.398-19.287,9.19-27.025l24.067-27.419l-1.355,20.385l20.037-3.987
		l-1.355,20.385l20.043-3.982l-1.355,20.385L461.856,72.676z"/>
</g>
<path style="fill:#4E4D68;" d="M395.059,176.583l-35.903,40.905c-4.413,5.027-9.532,9.062-15.076,12.098
	c-19.925,10.931-45.367,8.876-63.438-6.984c-8.836-7.755-14.625-17.696-17.27-28.306c-4.079-16.327-0.696-34.244,10.511-48.241
	c0.532-0.66,1.079-1.322,1.646-1.968l35.903-40.905c4.413-5.027,9.532-9.062,15.076-12.098c19.925-10.931,45.367-8.876,63.438,6.984
	c8.836,7.755,14.625,17.696,17.27,28.306c0.82,3.247,1.336,6.564,1.553,9.892c0.874,13.415-3.092,27.138-12.063,38.349
	C396.174,175.276,395.626,175.938,395.059,176.583z"/>
<path style="fill:#282942;" d="M287.006,215.038c-4.079-16.327-0.696-34.244,10.511-48.241c0.532-0.66,1.079-1.322,1.646-1.968
	l35.903-40.905c4.412-5.027,9.532-9.062,15.076-12.098c15.397-8.446,34.084-9.131,50.122-1.693
	c-2.779-4.391-6.215-8.466-10.317-12.066c-18.07-15.861-43.513-17.915-63.438-6.984c-5.544,3.034-10.664,7.071-15.076,12.098
	l-35.903,40.905c-0.566,0.646-1.115,1.307-1.646,1.968c-11.207,13.996-14.591,31.914-10.511,48.241
	c2.645,10.609,8.434,20.551,17.27,28.306c4.107,3.605,8.598,6.49,13.317,8.678C290.752,226.211,288.423,220.722,287.006,215.038z"/>
<g>
	<path style="fill:#F9D368;" d="M380.81,192.817l-21.653,24.67c-4.413,5.027-9.532,9.062-15.076,12.098l-58.68-25.661l-22.027-9.63
		c-4.079-16.327-0.696-34.244,10.511-48.241l30.179,13.195L380.81,192.817z"/>
	<path style="fill:#F9D368;" d="M396.705,174.616l-76.694-33.538l-30.232-13.226l21.653-24.67
		c4.413-5.027,9.532-9.062,15.076-12.098l36.072,15.778l44.637,19.513c0.82,3.247,1.336,6.564,1.553,9.892
		C409.643,149.683,405.676,163.404,396.705,174.616z"/>
</g>
<g>
	<path style="fill:#E2BD55;" d="M320.01,141.078l-30.232-13.226l21.653-24.67c4.413-5.027,9.532-9.062,15.076-12.098l36.072,15.778
		c-4.297,1.137-8.474,2.797-12.437,4.966c-5.544,3.034-10.664,7.071-15.076,12.098L320.01,141.078z"/>
	<path style="fill:#E2BD55;" d="M285.399,203.924l-22.027-9.63c-4.079-16.327-0.696-34.244,10.511-48.241l30.179,13.195
		l-4.898,5.581c-0.566,0.646-1.115,1.307-1.646,1.968C288.815,177.665,284.826,190.901,285.399,203.924z"/>
</g>
<path style="fill:#F9D368;" d="M312.424,417.258l-1.358,27.601c-0.767,15.585-14.018,27.593-29.603,26.825
	c-7.79-0.383-14.687-3.889-19.546-9.244c-4.851-5.36-7.663-12.569-7.28-20.359l1.358-27.601l8.799,12.73l10.006-11.804l8.799,12.73
	l10.012-11.804l8.799,12.73L312.424,417.258z"/>
<path style="fill:#4E4D68;" d="M321.536,503.526c-19.331,5.11-39.56,8.014-60.395,8.422C259.427,511.979,257.714,512,256,512
	c-6.28,0-12.518-0.23-18.683-0.669l0.251-5.12c0.251-5.057,1.39-9.864,3.25-14.273c6.666-15.872,22.727-26.634,40.918-25.746
	c8.892,0.439,17.011,3.605,23.573,8.652c2.017,1.546,3.887,3.271,5.58,5.141C316.698,486.379,320.533,494.55,321.536,503.526z"/>
<path style="fill:#282942;" d="M293.533,468.49c-13.009,3.145-23.771,12.351-28.933,24.618c-1.849,4.409-2.988,9.216-3.239,14.273
	l-0.219,4.566h-0.01c-1.714,0.031-3.417,0.052-5.13,0.052c-6.28,0-12.518-0.23-18.683-0.669l0.251-5.12
	c0.251-5.057,1.39-9.864,3.25-14.273c6.666-15.872,22.727-26.634,40.918-25.746C285.863,466.401,289.823,467.195,293.533,468.49z"/>
<path style="fill:#F9D368;" d="M321.536,503.526C300.617,509.053,278.653,512,256,512c-6.28,0-12.518-0.23-18.683-0.669l0.251-5.12
	c0.251-5.057,1.39-9.864,3.25-14.273l28.829-7.638l35.662-9.456c2.017,1.546,3.887,3.271,5.58,5.141
	C316.698,486.379,320.533,494.55,321.536,503.526z"/>
<path style="fill:#E2BD55;" d="M269.646,484.3c-2.017,2.696-3.709,5.653-5.047,8.809c-1.849,4.409-2.988,9.216-3.239,14.273
	l-0.219,4.566C259.427,511.979,257.714,512,256,512c-6.28,0-12.518-0.23-18.683-0.669l0.251-5.12
	c0.251-5.057,1.39-9.864,3.25-14.273L269.646,484.3z"/>
<g>
</g>
<g>
</g>
<g>
</g>
<g>
</g>
<g>
</g>
<g>
</g>
<g>
</g>
<g>
</g>
<g>
</g>
<g>
</g>
<g>
</g>
<g>
</g>
<g>
</g>
<g>
</g>
<g>
</g>
</svg>
