<?xml version="1.0" encoding="iso-8859-1"?>
<!-- Generator: Adobe Illustrator 19.0.0, SVG Export Plug-In . SVG Version: 6.00 Build 0)  -->
<svg version="1.1" id="Capa_1" xmlns="http://www.w3.org/2000/svg" xmlns:xlink="http://www.w3.org/1999/xlink" x="0px" y="0px"
	 viewBox="0 0 512 512" style="enable-background:new 0 0 512 512;" xml:space="preserve">
<circle style="fill:#EF7064;" cx="256" cy="256" r="256"/>
<path style="fill:#8E5EBC;" d="M510.819,280.701c-4.723,49.382-23.479,94.678-52.234,131.835
	c-52.329,19.299-123.8,31.201-202.585,31.201s-150.246-11.891-202.574-31.201c-6.51-8.401-12.497-17.22-17.93-26.405
	C16.896,354.68,4.838,318.913,1.181,280.691c45.286-31.284,129.484-53.321,227.903-56.748c8.861-0.313,17.836-0.47,26.917-0.47
	C365.84,223.472,461.448,246.585,510.819,280.701z"/>
<path style="fill:#7C49A8;" d="M229.083,223.943L74.533,317.827c0,0-44.617,25.59-39.037,68.305
	C16.896,354.68,4.838,318.913,1.181,280.691C46.467,249.407,130.664,227.37,229.083,223.943z"/>
<path style="fill:#393A59;" d="M437.457,317.827c0,27.763-81.241,50.26-181.457,50.26c-32.026,0-62.109-2.299-88.221-6.332
	c-55.62-8.579-93.247-25.036-93.247-43.928l24.827-43.499L256,0l156.63,274.328L437.457,317.827z"/>
<path style="fill:#282942;" d="M256,0l-88.221,361.754c-55.62-8.579-93.247-25.036-93.247-43.928l24.827-43.499L256,0z"/>
<path style="fill:#8E5EBC;" d="M412.63,274.328c-31.514,14.879-89.861,24.869-156.63,24.869c-25.579,0-49.904-1.463-71.962-4.117
	c-35.568-4.253-65.233-11.567-84.679-20.752L256,0L412.63,274.328z"/>
<path style="fill:#7C49A8;" d="M256,0l-71.962,295.079c-35.568-4.253-65.233-11.567-84.679-20.752L256,0z"/>
<path style="fill:#EDEDED;" d="M290.824,326.29c0-19.236-15.594-34.83-34.83-34.83c-19.237,0-34.83,15.594-34.83,34.83
	c0,12.93,7.051,24.206,17.512,30.214c-0.063,0.601-0.097,1.211-0.097,1.829c0,9.618,7.797,17.415,17.415,17.415
	c9.618,0,17.415-7.797,17.415-17.415c0-0.618-0.034-1.228-0.097-1.829C283.773,350.496,290.824,339.22,290.824,326.29z"/>
<g>
	<circle style="fill:#393A59;" cx="238.362" cy="330.815" r="10.449"/>
	<circle style="fill:#393A59;" cx="273.627" cy="330.815" r="10.449"/>
</g>
<g>
</g>
<g>
</g>
<g>
</g>
<g>
</g>
<g>
</g>
<g>
</g>
<g>
</g>
<g>
</g>
<g>
</g>
<g>
</g>
<g>
</g>
<g>
</g>
<g>
</g>
<g>
</g>
<g>
</g>
</svg>
