<?xml version="1.0" encoding="iso-8859-1"?>
<!-- Generator: Adobe Illustrator 19.0.0, SVG Export Plug-In . SVG Version: 6.00 Build 0)  -->
<svg version="1.1" id="Capa_1" xmlns="http://www.w3.org/2000/svg" xmlns:xlink="http://www.w3.org/1999/xlink" x="0px" y="0px"
	 viewBox="0 0 512 512" style="enable-background:new 0 0 512 512;" xml:space="preserve">
<circle style="fill:#393A59;" cx="256" cy="256.214" r="255.785"/>
<path style="fill:#4E4D68;" d="M461.506,223.594c0,58.374-24.335,111.062-63.416,148.474c-12.943,12.398-27.514,23.109-43.351,31.8
	c-29.301,16.088-62.963,25.24-98.748,25.24s-69.431-9.144-98.731-25.232c-4.723-2.584-9.328-5.352-13.807-8.296
	c-10.57-6.921-20.46-14.805-29.552-23.512c-39.081-37.403-63.424-90.099-63.424-148.474c0-113.503,92.012-205.515,205.515-205.515
	S461.506,110.091,461.506,223.594z"/>
<g>
	<path style="fill:#F9D368;" d="M163.066,296.169c-5.606,76.36-92.459,70.158-142.551,60.083c-2.046-4.792-3.936-9.668-5.69-14.606
		c-7.527-21.235-12.319-43.765-13.969-67.152c4.468-5.773,10.085-11.181,17.091-15.911c44.893-30.277,22.968-88.742,22.968-88.742
		s42.805,50.113,27.145,95.006c0,0,45.791-43.442,28.189-96.05C96.249,168.799,170.97,188.457,163.066,296.169z"/>
	<path style="fill:#F9D368;" d="M511.133,274.495c-1.65,23.386-6.442,45.916-13.969,67.152c-1.754,4.938-3.644,9.814-5.69,14.606
		c-50.092,10.075-136.944,16.276-142.551-60.083c-7.903-107.712,66.817-127.371,66.817-127.371
		c-17.602,52.608,28.189,96.05,28.189,96.05c-15.66-44.893,27.145-95.006,27.145-95.006s-21.924,58.465,22.969,88.742
		C501.048,263.314,506.664,268.722,511.133,274.495z"/>
</g>
<path style="fill:#E87BC2;" d="M497.164,341.647C462.001,440.902,367.298,512,255.995,512S49.988,440.902,14.826,341.647
	c28.063-24.639,63.717-41.208,103.139-45.989c5.523-0.668,11.119-1.107,16.777-1.305c2.266-0.094,4.562-0.146,6.859-0.146h228.787
	c2.297,0,4.604,0.052,6.87,0.146c5.648,0.198,11.244,0.626,16.757,1.305C433.437,300.429,469.101,317.008,497.164,341.647z"/>
<g>
	<ellipse style="fill:#D863BB;" cx="139.028" cy="229.058" rx="33.492" ry="32.615"/>
	<ellipse style="fill:#D863BB;" cx="372.962" cy="229.058" rx="33.492" ry="32.615"/>
	<path style="fill:#D863BB;" d="M377.258,294.353c-2.266-0.094-4.573-0.146-6.87-0.146c0,0-185.456,0.914-163.243,0.146
		c2.245-0.094,4.552-0.146,6.87-0.146h-72.259c-0.064-0.126-0.116-0.134-0.155,0c-2.297,0-4.594,0.052-6.859,0.146
		c-5.653,0.196-11.243,0.637-16.76,1.305c-0.005,0-0.013,0-0.018,0c0,0,0,0.001,0,0.002c-39.423,4.78-75.081,21.353-103.139,45.987
		c7.162,20.233,16.809,39.297,28.554,56.816c3.874-7.797,8.295-15.287,13.215-22.422c22.814-33.09,69.354-38.059,99.615-11.606
		c25.243,22.066,60.62,35.784,99.785,35.784c38.336,0,73.05-13.144,98.201-34.421c21.737-18.385,36.29-42.857,39.819-70.137
		C388.502,294.979,382.906,294.551,377.258,294.353z"/>
</g>
<path style="fill:#E87BC2;" d="M376.632,154.892v99.631c0,32.448-13.499,61.827-35.33,83.083
	c-21.841,21.277-52.003,34.421-85.307,34.421c-66.63,0-120.637-52.608-120.637-117.505v-99.631c0-10.628,1.451-20.922,4.166-30.705
	c7.82-28.23,26.174-52.253,50.698-67.809c18.918-12.017,41.51-18.991,65.773-18.991c24.263,0,46.845,6.974,65.763,18.991
	c24.524,15.545,42.878,39.568,50.698,67.799C375.18,133.97,376.632,144.264,376.632,154.892z"/>
<g>
	<path style="fill:#D863BB;" d="M170.307,254.522v-99.634c0-59.112,44.822-108.012,103.162-116.261
		c-5.708-0.807-11.54-1.243-17.478-1.243c-66.624,0-120.637,52.61-120.637,117.505v99.634c0,64.894,54.012,117.505,120.637,117.505
		c5.938,0,11.77-0.435,17.479-1.242C215.129,362.536,170.307,313.634,170.307,254.522z"/>
	<path style="fill:#D863BB;" d="M255.996,265.171L255.996,265.171c-6.739,0-12.203-5.321-12.203-11.886v-54.014
		c0-6.739,5.463-12.203,12.203-12.203l0,0c6.739,0,12.203,5.463,12.203,12.203v54.014
		C268.198,259.849,262.735,265.171,255.996,265.171z"/>
	<path style="fill:#D863BB;" d="M227.385,258.484L227.385,258.484c0-6.739,5.321-12.203,11.886-12.203h33.133
		c6.739,0,12.203,5.463,12.203,12.203l0,0c0,6.739-5.463,12.203-12.203,12.203h-33.133
		C232.707,270.687,227.385,265.223,227.385,258.484z"/>
	<ellipse style="fill:#D863BB;" cx="304.683" cy="219.245" rx="23.719" ry="33.178"/>
	<ellipse style="fill:#D863BB;" cx="207.296" cy="219.245" rx="23.719" ry="33.178"/>
</g>
<g>
	<path style="fill:#393A59;" d="M316.046,231.39v-22.521c0-5.874-4.888-10.634-10.918-10.634l0,0
		c-6.03,0-10.918,4.762-10.918,10.634v22.521c0,5.874,4.888,10.634,10.918,10.634l0,0
		C311.158,242.025,316.046,237.263,316.046,231.39z"/>
	<path style="fill:#393A59;" d="M195.946,208.869v22.521c0,5.874,4.888,10.634,10.918,10.634l0,0c6.03,0,10.918-4.762,10.918-10.634
		v-22.521c0-5.874-4.888-10.634-10.918-10.634l0,0C200.834,198.235,195.946,202.997,195.946,208.869z"/>
</g>
<g>
	<ellipse style="fill:#7F7D89;" cx="308.911" cy="212.824" rx="7.133" ry="6.948"/>
	<ellipse style="fill:#7F7D89;" cx="210.648" cy="212.824" rx="7.133" ry="6.948"/>
	<ellipse style="fill:#7F7D89;" cx="300.935" cy="229.319" rx="4.102" ry="3.995"/>
	<ellipse style="fill:#7F7D89;" cx="202.682" cy="229.319" rx="4.102" ry="3.995"/>
</g>
<path style="fill:#D863BB;" d="M210.455,92.115v0.365c0,7.298-1.879,14.46-5.45,20.703c-7.444,13.05-21.371,21.162-36.332,21.162
	c-6.285,0-12.393-1.42-18.145-4.207c-3.769-1.827-7.444-3.811-11.004-5.951c7.82-28.23,26.174-52.253,50.698-67.809
	C202.551,63.822,210.455,77.186,210.455,92.115z"/>
<path style="fill:#EDEDED;" d="M200.018,92.11v0.365c0,5.753-1.499,11.019-4.076,15.526c-7.758,13.594-25.26,20.313-40.86,12.742
	c-8.47-4.112-16.012-8.853-22.73-14.016C79.857,66.363,78.066,0,78.066,0s0,0.009,0.019,0.028
	c0.787,1.059,26.291,35.266,74.393,54.192c7.224,2.848,14.963,5.35,23.208,7.346C189.889,64.995,200.018,77.503,200.018,92.11z"/>
<path style="fill:#D863BB;" d="M372.455,124.177c-3.571,2.151-7.246,4.134-11.014,5.961c-5.753,2.788-11.85,4.207-18.135,4.207
	c-23.042,0-41.792-18.782-41.792-41.865v-0.365c0-14.93,7.903-28.303,20.244-35.737C346.282,71.924,364.636,95.947,372.455,124.177z
	"/>
<path style="fill:#EDEDED;" d="M433.914,0c0,0-1.799,66.363-54.295,106.726c-6.709,5.163-14.251,9.904-22.73,14.017
	c-20.772,10.081-44.936-5.181-44.936-28.267v-0.365c0-14.607,10.128-27.115,24.332-30.544c8.245-1.996,15.984-4.488,23.208-7.336
	v-0.009C408.374,34.995,433.914,0,433.914,0z"/>
<g>
	<path style="fill:#D9D9D9;" d="M195.943,108.001c-7.758,13.594-25.26,20.313-40.86,12.742c-8.47-4.112-16.012-8.853-22.73-14.016
		C79.857,66.363,78.066,0,78.066,0s0,0.009,0.019,0.028C78.797,1.761,112.443,82.001,195.943,108.001z"/>
	<path style="fill:#D9D9D9;" d="M316.039,108.001c7.758,13.594,25.26,20.313,40.86,12.742c8.47-4.112,16.012-8.853,22.73-14.016
		C432.124,66.363,433.914,0,433.914,0s0,0.009-0.019,0.028C433.183,1.761,399.538,82.001,316.039,108.001z"/>
</g>
<g>
	<path style="fill:#393A59;" d="M235.858,213.429c-1.414,0-2.847-0.319-4.197-0.995c-6.654-3.328-12.115-8.472-16.231-15.289
		c-13.633-22.562-46.687-17.879-47.016-17.829c-5.138,0.775-9.917-2.764-10.689-7.895c-0.77-5.132,2.764-9.917,7.896-10.689
		c0.462-0.07,11.501-1.68,24.816,0.589c18.456,3.145,32.66,12.172,41.079,26.106c2.283,3.779,5.081,6.46,8.554,8.198
		c4.641,2.322,6.521,7.966,4.199,12.608C242.621,211.526,239.303,213.429,235.858,213.429z"/>
	<path style="fill:#393A59;" d="M276.124,213.429c1.414,0,2.847-0.319,4.197-0.995c6.654-3.328,12.115-8.472,16.231-15.289
		c13.633-22.562,46.687-17.879,47.017-17.829c5.138,0.775,9.917-2.764,10.689-7.895c0.771-5.132-2.764-9.917-7.896-10.689
		c-0.462-0.07-11.501-1.68-24.816,0.589c-18.456,3.145-32.66,12.172-41.079,26.106c-2.283,3.779-5.081,6.46-8.554,8.198
		c-4.641,2.322-6.521,7.966-4.199,12.608C269.36,211.526,272.678,213.429,276.124,213.429z"/>
	<path style="fill:#393A59;" d="M310.033,302.559L286.94,307.1c-3.905,0.762-7.841,1.389-11.787,1.858
		c-3.466,0.418-6.943,0.72-10.43,0.908c-5.815,0.324-11.641,0.324-17.456,0c-3.487-0.188-6.964-0.491-10.43-0.908
		c-3.946-0.47-7.882-1.096-11.787-1.858l-23.083-4.542c-4.385-0.856-7.131-5.241-5.993-9.553c1.973-7.527,8.091-12.716,15.107-14
		c3.644-0.679,7.538-0.303,11.223,1.326l5.043,2.234l18.041,7.976c6.755,2.986,14.46,2.986,21.215,0l18.041-7.976l5.043-2.234
		c2.537-1.128,5.178-1.65,7.757-1.65c1.169,0,2.328,0.104,3.466,0.324c7.016,1.284,13.134,6.473,15.107,14
		C317.154,297.318,314.408,301.703,310.033,302.559z"/>
</g>
<g>
	<path style="fill:#EDEDED;" d="M300.909,279.006c-2.474,13.468-12.747,20.296-12.747,20.296c0-6.713-1.691-12.476-3.518-16.736
		l5.043-2.234c2.537-1.128,5.178-1.65,7.757-1.65C298.612,278.682,299.771,278.786,300.909,279.006z"/>
	<path style="fill:#EDEDED;" d="M227.347,282.566c-1.827,4.26-3.518,10.023-3.518,16.736c0,0-10.273-6.828-12.748-20.296
		c3.644-0.679,7.538-0.303,11.223,1.326L227.347,282.566z"/>
	<path style="fill:#EDEDED;" d="M247.267,309.867c-3.487-0.188-6.964-0.491-10.43-0.908l5.586-15.222L247.267,309.867z"/>
	<path style="fill:#EDEDED;" d="M275.153,308.959c-3.466,0.418-6.943,0.72-10.43,0.908l4.844-16.13L275.153,308.959z"/>
</g>
<path style="fill:#D863BB;" d="M275.831,334.798h-39.673c-3.46,0-6.264-2.804-6.264-6.264l0,0c0-3.46,2.804-6.264,6.264-6.264
	h39.673c3.46,0,6.264,2.804,6.264,6.264l0,0C282.095,331.993,279.291,334.798,275.831,334.798z"/>
<g>
	<path style="fill:#F9D368;" d="M435.892,147.918c0,0,30.277-16.704,25.057-49.069c-5.22-32.365,6.264-57.421,6.264-57.421
		s-25.057,25.057-25.057,45.937S451.553,121.818,435.892,147.918z"/>
	<path style="fill:#F9D368;" d="M76.098,147.918c0,0-30.277-16.704-25.057-49.069s-6.264-57.421-6.264-57.421
		s25.057,25.057,25.057,45.937S60.438,121.818,76.098,147.918z"/>
</g>
<g>
</g>
<g>
</g>
<g>
</g>
<g>
</g>
<g>
</g>
<g>
</g>
<g>
</g>
<g>
</g>
<g>
</g>
<g>
</g>
<g>
</g>
<g>
</g>
<g>
</g>
<g>
</g>
<g>
</g>
</svg>
