<?xml version="1.0" encoding="iso-8859-1"?>
<!-- Generator: Adobe Illustrator 19.0.0, SVG Export Plug-In . SVG Version: 6.00 Build 0)  -->
<svg version="1.1" id="Capa_1" xmlns="http://www.w3.org/2000/svg" xmlns:xlink="http://www.w3.org/1999/xlink" x="0px" y="0px"
	 viewBox="0 0 512 512" style="enable-background:new 0 0 512 512;" xml:space="preserve">
<circle style="fill:#F9D368;" cx="256" cy="256" r="256"/>
<path style="fill:#4E4D68;" d="M433.633,59.559v380.782C387.594,484.718,324.995,512,256,512s-131.605-27.293-177.643-71.67V59.559
	H433.633z"/>
<g>
	<circle style="fill:#282942;" cx="256" cy="268.027" r="141.176"/>
	<rect x="78.357" y="97.458" style="fill:#282942;" width="355.276" height="40.751"/>
</g>
<path style="fill:#EF7064;" d="M439.086,111.041H72.907c-7.662,0-13.873-6.212-13.873-13.873V13.874
	c0-7.662,6.212-13.873,13.873-13.873h366.179c7.662,0,13.873,6.212,13.873,13.873v83.293
	C452.96,104.83,446.748,111.041,439.086,111.041z"/>
<path style="fill:#EDEDED;" d="M288.133,357.292c-1.304,3.785-2.241,7.742-2.769,11.831c-0.426,3.29-2.703,6.014-5.874,6.985
	c-7.44,2.256-15.327,3.472-23.499,3.472s-16.066-1.215-23.499-3.478c-3.171-0.964-5.448-3.695-5.874-6.979
	c-0.531-4.108-1.474-8.082-2.787-11.889c-1.069-3.116,1.3-6.35,4.596-6.35l0,0c2.107,0,3.814,1.707,3.814,3.814v1.251
	c0,1.254,1.017,2.271,2.271,2.271l0,0c1.254,0,2.271-1.017,2.271-2.271v-1.251c0-2.107,1.707-3.814,3.814-3.814h9.312
	c2.107,0,3.814,1.707,3.814,3.814v1.251c0,1.254,1.017,2.271,2.271,2.271l0,0c1.254,0,2.271-1.017,2.271-2.271v-1.251
	c0-2.107,1.707-3.814,3.814-3.814h9.312c2.107,0,3.814,1.707,3.814,3.814v1.251c0,1.254,1.017,2.271,2.271,2.271l0,0
	c1.254,0,2.271-1.017,2.271-2.271v-1.251c0-2.107,1.707-3.814,3.814-3.814l0,0C286.876,350.884,289.215,354.151,288.133,357.292z"/>
<path style="fill:#D9D9D9;" d="M240.468,376.102c4.911,2.263,10.122,3.478,15.522,3.478c-8.173,0-16.066-1.215-23.499-3.478
	c-3.171-0.964-5.448-3.695-5.874-6.979c-0.531-4.107-1.474-8.082-2.787-11.889c-1.069-3.116,1.3-6.35,4.596-6.35
	c1.054,0,2.005,0.426,2.697,1.118c0.692,0.684,1.118,1.642,1.118,2.697v1.251c0,1.251,1.02,2.271,2.271,2.271
	c0.146,0,0.294-0.014,0.44-0.049c0.762,3.52,1.313,7.182,1.634,10.954C236.87,372.406,238.373,375.137,240.468,376.102z"/>
<path style="fill:#EDEDED;" d="M336.707,230.42v68.632c-0.021,9.737-6.056,18.371-15.012,22.193
	c-9.5,4.045-17.75,10.444-24.023,18.477c-1.712,2.193-4.338,3.478-7.125,3.478h-6.448c-2.41,0-4.359-1.949-4.359-4.359v-2.102
	c0-1.251-1.02-2.271-2.271-2.271c-0.629,0-1.194,0.252-1.607,0.664c-0.405,0.413-0.664,0.985-0.664,1.607v2.102
	c0,2.41-1.949,4.359-4.359,4.359h-8.222c-2.41,0-4.359-1.949-4.359-4.359v-2.102c0-1.251-1.02-2.271-2.271-2.271
	c-0.622,0-1.194,0.252-1.607,0.664c-0.412,0.413-0.664,0.985-0.664,1.607v2.102c0,2.41-1.949,4.359-4.359,4.359h-8.222
	c-2.41,0-4.359-1.949-4.359-4.359v-2.102c0-1.251-1.02-2.271-2.271-2.271c-0.629,0-1.194,0.252-1.607,0.664
	c-0.405,0.413-0.663,0.985-0.663,1.607v2.102c0,2.41-1.949,4.359-4.359,4.359h-6.448c-2.787,0-5.414-1.285-7.125-3.478
	c-6.273-8.026-14.523-14.425-24.016-18.477c-8.956-3.821-14.997-12.455-15.018-22.193V230.42c0-8.41,1.285-16.514,3.668-24.135
	c10.262-32.79,40.879-56.582,77.05-56.582c36.177,0,66.788,23.792,77.05,56.582C335.422,213.906,336.707,222.009,336.707,230.42z"/>
<g>
	<path style="fill:#D9D9D9;" d="M255.99,149.703c-24.694,0-45.601,23.792-52.607,56.582c-1.628,7.622-2.5,15.725-2.5,24.135v68.632
		c0.014,9.737,4.136,18.371,10.255,22.193c6.483,4.051,12.112,10.45,16.394,18.477c0.692,1.293,1.592,2.263,2.606,2.843
		c-0.656,0.405-1.432,0.635-2.256,0.635h-6.448c-2.787,0-5.414-1.285-7.125-3.478c-6.273-8.026-14.523-14.425-24.016-18.477
		c-8.956-3.821-14.997-12.455-15.018-22.193V230.42c0-8.41,1.285-16.514,3.668-24.135
		C189.202,173.495,219.818,149.703,255.99,149.703z"/>
	<path style="fill:#D9D9D9;" d="M220.83,311.127c-12.187,0-22.102-9.915-22.102-22.102v-27.574c0-12.187,9.915-22.102,22.102-22.102
		c12.187,0,22.102,9.915,22.102,22.102v27.574C242.931,301.212,233.016,311.127,220.83,311.127z"/>
</g>
<path style="fill:#393A59;" d="M207.808,261.451v27.574c0,7.191,5.829,13.02,13.02,13.02l0,0c7.191,0,13.02-5.829,13.02-13.02
	v-27.574c0-7.191-5.829-13.02-13.02-13.02l0,0C213.638,248.431,207.808,254.26,207.808,261.451z"/>
<path style="fill:#D9D9D9;" d="M291.149,311.127c-12.187,0-22.102-9.915-22.102-22.102v-27.574c0-12.187,9.915-22.102,22.102-22.102
	s22.102,9.915,22.102,22.102v27.574C313.251,301.212,303.337,311.127,291.149,311.127z"/>
<g>
	<path style="fill:#393A59;" d="M278.129,261.451v27.574c0,7.191,5.829,13.02,13.02,13.02l0,0c7.191,0,13.02-5.829,13.02-13.02
		v-27.574c0-7.191-5.829-13.02-13.02-13.02l0,0C283.958,248.431,278.129,254.26,278.129,261.451z"/>
	<path style="fill:#393A59;" d="M250.14,292.087l-6.051,10.481c-2.6,4.502,0.65,10.131,5.849,10.131h12.102
		c5.199,0,8.449-5.629,5.849-10.131l-6.051-10.481C259.239,287.584,252.74,287.584,250.14,292.087z"/>
</g>
<path style="fill:#CCCCCC;" d="M194.748,238.648c0,17.492-8.557,31.854-19.476,33.391V230.42c0-8.41,1.285-16.514,3.668-24.135
	C188.049,210.14,194.748,223.168,194.748,238.648z"/>
<path style="fill:#D9D9D9;" d="M336.707,230.42v41.619c-10.918-1.537-19.476-15.899-19.476-33.391
	c0-15.48,6.699-28.508,15.808-32.364C335.422,213.906,336.707,222.009,336.707,230.42z"/>
<g>
	<circle style="fill:#282942;" cx="168.229" cy="55.526" r="29.257"/>
	<circle style="fill:#282942;" cx="343.771" cy="55.526" r="29.257"/>
</g>
<path style="fill:#F49085;" d="M415.347,89.098L415.347,89.098c-6.636,0-12.016-5.38-12.016-12.016V32.152
	c0-6.636,5.38-12.016,12.016-12.016l0,0c6.636,0,12.016,5.38,12.016,12.016v44.931C427.363,83.718,421.983,89.098,415.347,89.098z"
	/>
<g>
	<path style="fill:#D863BB;" d="M131.075,440.882h-9.1v12.391c0,1.463-1.784,2.195-3.567,2.195c-1.784,0-3.566-0.731-3.566-2.195
		v-29.083c0-1.509,1.784-2.149,3.566-2.149c1.784,0,3.567,0.641,3.567,2.149v11.203h9.1v-11.203c0-1.509,1.784-2.149,3.566-2.149
		c1.784,0,3.567,0.641,3.567,2.149v29.083c0,1.463-1.784,2.195-3.567,2.195c-1.784,0-3.566-0.731-3.566-2.195V440.882z"/>
	<path style="fill:#D863BB;" d="M145.436,452.542c0-0.137,0.046-0.32,0.092-0.503l8.505-27.894c0.503-1.601,2.561-2.378,4.664-2.378
		s4.161,0.777,4.664,2.378l8.55,27.894c0.046,0.183,0.092,0.366,0.092,0.503c0,1.692-2.607,2.927-4.572,2.927
		c-1.143,0-2.057-0.366-2.332-1.326l-1.555-5.716h-9.649l-1.555,5.716c-0.275,0.96-1.189,1.326-2.332,1.326
		C148.043,455.468,145.436,454.234,145.436,452.542z M162.035,442.94l-3.337-12.256l-3.338,12.256H162.035z"/>
	<path style="fill:#D863BB;" d="M182.342,455.468c-1.555,0-3.11-0.731-3.11-2.195V424.19c0-1.509,1.784-2.149,3.566-2.149
		c1.784,0,3.567,0.641,3.567,2.149v25.058h10.426c1.372,0,2.057,1.555,2.057,3.11s-0.686,3.11-2.057,3.11h-14.45V455.468z"/>
	<path style="fill:#D863BB;" d="M209.415,455.468c-1.555,0-3.11-0.731-3.11-2.195V424.19c0-1.509,1.784-2.149,3.566-2.149
		c1.784,0,3.567,0.641,3.567,2.149v25.058h10.426c1.372,0,2.057,1.555,2.057,3.11s-0.686,3.11-2.057,3.11h-14.45V455.468z"/>
	<path style="fill:#D863BB;" d="M232.512,444.951v-12.118c0-7.865,4.893-10.792,11.203-10.792s11.249,2.927,11.249,10.792v12.118
		c0,7.865-4.939,10.792-11.249,10.792S232.512,452.816,232.512,444.951z M247.83,432.833c0-3.156-1.555-4.572-4.115-4.572
		s-4.07,1.417-4.07,4.572v12.118c0,3.156,1.509,4.572,4.07,4.572s4.115-1.418,4.115-4.572V432.833z"/>
	<path style="fill:#D863BB;" d="M294.383,453.365c-0.549,1.601-2.607,2.378-4.71,2.378c-2.057,0-4.253-0.777-4.618-2.378
		l-2.377-10.838l-2.378,10.838c-0.366,1.601-2.561,2.378-4.618,2.378c-2.103,0-4.207-0.777-4.709-2.378l-9.1-27.894
		c-0.046-0.137-0.091-0.366-0.091-0.595c0-1.555,2.561-2.835,4.618-2.835c1.097,0,2.011,0.366,2.286,1.326l6.951,23.458
		l3.613-15.456c0.274-1.235,1.875-1.875,3.429-1.875s3.156,0.641,3.429,1.875l3.613,15.456l6.951-23.458
		c0.274-0.96,1.189-1.326,2.286-1.326c2.057,0,4.618,1.281,4.618,2.835c0,0.229-0.046,0.458-0.091,0.595L294.383,453.365z"/>
	<path style="fill:#D863BB;" d="M317.892,435.989h6.859c1.372,0,2.149,1.326,2.149,2.789c0,1.235-0.639,2.698-2.149,2.698h-6.859
		v7.773h12.256c1.372,0,2.149,1.463,2.149,3.156c0,1.463-0.641,3.064-2.149,3.064h-16.28c-1.555,0-3.11-0.731-3.11-2.195v-29.037
		c0-1.463,1.555-2.195,3.11-2.195h16.28c1.509,0,2.149,1.601,2.149,3.064c0,1.692-0.777,3.156-2.149,3.156h-12.256V435.989z"/>
	<path style="fill:#D863BB;" d="M347.116,435.989h6.859c1.372,0,2.149,1.326,2.149,2.789c0,1.235-0.639,2.698-2.149,2.698h-6.859
		v7.773h12.256c1.372,0,2.149,1.463,2.149,3.156c0,1.463-0.641,3.064-2.149,3.064h-16.28c-1.555,0-3.11-0.731-3.11-2.195v-29.037
		c0-1.463,1.555-2.195,3.11-2.195h16.28c1.509,0,2.149,1.601,2.149,3.064c0,1.692-0.777,3.156-2.149,3.156h-12.256V435.989z"/>
	<path style="fill:#D863BB;" d="M385.026,453.548l-8.688-15.822v15.547c0,1.463-1.784,2.195-3.567,2.195
		c-1.784,0-3.566-0.731-3.566-2.195v-29.037c0-1.509,1.784-2.195,3.566-2.195c2.561,0,3.521,0.229,5.259,3.567l7.408,14.129v-15.547
		c0-1.509,1.784-2.149,3.566-2.149c1.784,0,3.567,0.641,3.567,2.149v29.083c0,1.463-1.784,2.195-3.567,2.195
		C387.358,455.468,385.895,455.148,385.026,453.548z"/>
</g>
<g>
</g>
<g>
</g>
<g>
</g>
<g>
</g>
<g>
</g>
<g>
</g>
<g>
</g>
<g>
</g>
<g>
</g>
<g>
</g>
<g>
</g>
<g>
</g>
<g>
</g>
<g>
</g>
<g>
</g>
</svg>
