<?xml version="1.0" encoding="iso-8859-1"?>
<!-- Generator: Adobe Illustrator 19.0.0, SVG Export Plug-In . SVG Version: 6.00 Build 0)  -->
<svg version="1.1" id="Capa_1" xmlns="http://www.w3.org/2000/svg" xmlns:xlink="http://www.w3.org/1999/xlink" x="0px" y="0px"
	 viewBox="0 0 512 512" style="enable-background:new 0 0 512 512;" xml:space="preserve">
<circle style="fill:#393A59;" cx="256" cy="256" r="256"/>
<path style="fill:#F9D368;" d="M464.3,404.846c-22.862,31.943-52.893,58.41-87.751,77.051
	c-82.704,19.404-166.912,15.893-250.399-5.235c-30.908-18.223-57.657-42.757-78.461-71.826c-0.115-6.113,0.491-12.351,1.881-18.557
	c9.519-42.517,21.159-83.801,35.119-123.496c7.314-20.793,15.245-41.169,23.845-61.043c12.852-29.738,27.178-58.378,43.05-85.744
	c20.229-34.91,42.987-67.741,68.43-98.158C229.93,5.998,242.719,0.052,255.54,0H256c12.779,0.094,25.516,6.04,35.401,17.836
	c50.427,60.259,90.29,130.058,120.936,206.555c11.337,28.338,21.42,57.595,30.292,87.625c7.45,25.203,14.064,50.949,19.864,77.176
	C463.642,394.407,464.238,399.663,464.3,404.846z"/>
<path style="fill:#EDEDED;" d="M442.629,312.017L108.534,201.738c12.852-29.738,27.178-58.378,43.05-85.744
	c20.229-34.91,42.987-67.741,68.43-98.158c19.916-23.782,51.472-23.782,71.387,0c50.427,60.259,90.29,130.058,120.936,206.555
	C423.675,252.729,433.758,281.987,442.629,312.017z"/>
<path style="fill:#F0F0F0;" d="M369.775,288.699L369.775,288.699c-11.073,3.258-22.689-3.077-25.947-14.15l-31.851-108.261
	c-3.258-11.073,3.077-22.689,14.15-25.947l0,0c11.073-3.258,22.689,3.078,25.947,14.15l31.851,108.261
	C387.182,273.825,380.846,285.442,369.775,288.699z"/>
<path style="fill:#E87BC2;" d="M464.3,404.835v0.01c-2.926,4.086-5.966,8.088-9.132,11.985L84.689,262.781
	c18.233-51.921,40.406-101.125,66.894-146.787l165.888,68.974l49.643,20.647l45.213,18.798l0.01-0.021
	c20.856,52.12,37.439,107.342,50.155,164.801C463.642,394.407,464.238,399.663,464.3,404.835z"/>
<path style="fill:#F998E1;" d="M369.779,288.695c-11.076,3.26-22.695-3.072-25.955-14.148l-26.352-89.579l49.643,20.647
	l16.812,57.135C387.187,273.826,380.844,285.445,369.779,288.695z"/>
<path style="fill:#E2BD55;" d="M295.539,493.735c-56.33,3.427-113.027-2.811-169.378-17.063c-0.01,0-0.01-0.01-0.01-0.01
	c-30.908-18.223-57.657-42.757-78.461-71.826c-0.115-6.113,0.491-12.351,1.881-18.557c9.519-42.517,21.159-83.801,35.119-123.496
	l53.739,22.34c-10.668,32.778-19.811,66.55-27.554,101.157c-7.722,34.503,8.861,70.081,36.833,79.015
	C196.765,480.966,246.199,490.809,295.539,493.735z"/>
<path style="fill:#D863BB;" d="M201.313,136.674c-21.45,39.736-39.819,81.942-55.328,126.108
	c-2.599,7.392-5.114,14.834-7.556,22.343l-53.744-22.343c18.233-51.922,40.406-101.128,66.896-146.788L201.313,136.674z"/>
<path style="fill:#D9D9D9;" d="M286.359,12.552c-1.75,1.611-3.437,3.365-5.041,5.287c-25.442,30.41-48.202,63.249-68.437,98.154
	c-3.951,6.82-7.817,13.705-11.568,20.681l-49.732-20.681c20.234-34.905,42.994-67.744,68.437-98.154
	C238.324-4.023,266.47-5.79,286.359,12.552z"/>
<g>
</g>
<g>
</g>
<g>
</g>
<g>
</g>
<g>
</g>
<g>
</g>
<g>
</g>
<g>
</g>
<g>
</g>
<g>
</g>
<g>
</g>
<g>
</g>
<g>
</g>
<g>
</g>
<g>
</g>
</svg>
