<?xml version="1.0" encoding="iso-8859-1"?>
<!-- Generator: Adobe Illustrator 19.0.0, SVG Export Plug-In . SVG Version: 6.00 Build 0)  -->
<svg version="1.1" id="Capa_1" xmlns="http://www.w3.org/2000/svg" xmlns:xlink="http://www.w3.org/1999/xlink" x="0px" y="0px"
	 viewBox="0 0 512.003 512.003" style="enable-background:new 0 0 512.003 512.003;" xml:space="preserve">
<circle style="fill:#E2BD55;" cx="256.002" cy="257.353" r="254.65"/>
<path style="fill:#F9D368;" d="M460.599,224.874c0,58.115-24.227,110.569-63.135,147.815
	c-12.885,12.343-27.392,23.007-43.159,31.659c-29.17,16.017-62.684,25.128-98.31,25.128s-69.123-9.103-98.293-25.12
	c-4.701-2.572-9.287-5.328-13.746-8.259c-10.523-6.89-20.369-14.74-29.421-23.408c-38.907-37.237-63.143-89.699-63.143-147.815
	c0-112.999,91.603-204.603,204.603-204.603S460.599,111.875,460.599,224.874z"/>
<path style="fill:#7C49A8;" d="M385.765,109.817c-26.112,5.957-74.455,9.955-129.777,9.955c-21.194,0-41.349-0.585-59.625-1.648
	c-29.47-1.703-54.049-4.63-70.161-8.307L255.989,0L385.765,109.817z"/>
<path style="fill:#8E5EBC;" d="M474.947,180.871c0,83.317-98.035,150.867-218.968,150.867c-33.593,0-65.409-5.218-93.857-14.531
	C88.159,293.001,37.021,241.042,37.021,180.871c0-83.317,98.035-150.867,218.958-150.867
	C376.913,30.004,474.947,97.554,474.947,180.871z"/>
<path style="fill:#EF7064;" d="M378.472,186.983v241.18l-19.031-8.991v36.971H142.302v-26.983l-8.783,4.636V186.983
	c0.031-14.884,8.856-28.323,22.295-34.716c3.014-1.434,6.101-2.806,9.251-4.106c26.567-11.007,57.665-17.337,90.915-17.337
	c37.21,0,71.728,7.931,100.197,21.463C369.615,158.68,378.44,172.109,378.472,186.983z"/>
<path style="fill:#7C49A8;" d="M155.667,152.351c0,57.78,3.43,120.684,6.455,164.858C88.159,293.001,37.021,241.042,37.021,180.871
	c0-83.317,98.035-150.867,218.958-150.867C255.979,30.004,155.667,49.139,155.667,152.351z"/>
<path style="fill:#E0554A;" d="M254.679,460.519l-76.624-4.376l-35.755-2.048v-24.935l-8.783,4.636V187.232c0-0.082,0-0.164,0-0.245
	c0.029-14.824,8.765-28.265,22.148-34.64c18.701-8.908,40.012-15.391,62.988-18.789c-2.359,12.348-4.022,26.837-4.584,43.821
	c-1.757,53.393,10.893,134.476,22.524,196.206c7.473,39.663,14.52,71.344,17.088,82.559
	C254.316,458.981,254.679,460.519,254.679,460.519z"/>
<path style="fill:#8E5EBC;" d="M392.285,461.985v10.498C352.882,497.511,306.12,512,255.99,512s-96.892-14.489-136.295-39.518
	v-10.498c0-45.899,36.399-83.307,81.904-84.918c1.019-0.042,2.058-0.062,3.087-0.062h102.619c1.029,0,2.068,0.021,3.077,0.062
	C355.895,378.678,392.285,416.085,392.285,461.985z"/>
<path style="fill:#7C49A8;" d="M237.166,377.004c-1.039,0-2.079,0.021-3.087,0.062c-45.504,1.611-81.904,39.019-81.904,84.918
	v27.949c-11.288-5.041-22.139-10.882-32.481-17.451v-10.498c0-45.899,36.399-83.307,81.904-84.918
	c1.019-0.042,2.058-0.062,3.087-0.062L237.166,377.004L237.166,377.004z"/>
<path style="fill:#E5BAAA;" d="M301.146,336.479v75.204c0,24.929-20.187,45.15-45.15,45.15c-8.925,0-17.223-2.58-24.231-7.043
	c-2.79-1.778-5.369-3.835-7.705-6.171c-8.159-8.194-13.214-19.49-13.214-31.936v-75.204L301.146,336.479L301.146,336.479z"/>
<g>
	<path style="fill:#F9D0BE;" d="M301.146,387.591v24.091c0,24.929-20.187,45.15-45.15,45.15c-8.925,0-17.223-2.58-24.231-7.043
		v-31.786c0-16.798,13.617-30.414,30.414-30.414h38.968V387.591z"/>
	<path style="fill:#F9D0BE;" d="M347.227,241.509v32.283c0,27.752-10.217,52.895-26.743,71.053
		c-16.495,18.2-39.299,29.467-64.504,29.467c-1.424,0-2.817-0.042-4.251-0.146c-48.394-2.401-86.986-46.44-86.986-100.374v-50.452
		c1.881-0.343,3.731-0.8,5.478-1.289c10.103-2.723,17.95-7.109,23.979-12.098c4.365-3.627,7.775-7.567,10.498-11.402
		c7.109-10.072,9.063-19.52,9.344-20.985c0.031-0.104,0.031-0.146,0.031-0.177c8.159,6.621,18.408,13.533,30.891,19.104
		c6.735,3.066,14.084,5.717,22.077,7.775c8.159,2.131,17.015,3.627,26.525,4.262C325.046,210.577,340.148,224.495,347.227,241.509z"
		/>
</g>
<path style="fill:#E5BAAA;" d="M251.729,374.169c-48.393-2.405-86.989-46.44-86.989-100.376v-48.776
	c1.918-0.942,3.766-1.918,5.473-2.963c10.111-2.72,17.955-7.113,23.987-12.098v70.81
	C194.202,323.161,218.014,359.421,251.729,374.169z"/>
<path style="fill:#393A59;" d="M304.903,288.116c0,3.576-0.385,7.057-1.164,10.394c-0.27,1.206-0.603,2.401-0.977,3.565
	c-2.037,6.714-5.602,12.847-10.259,17.867l-0.135,0.146c-3.035,3.305-6.548,6.174-10.425,8.492
	c-7.078,4.251-15.362,6.683-24.187,6.683c-8.824,0-17.108-2.432-24.187-6.683c-3.877-2.318-7.39-5.187-10.425-8.492l-0.135-0.146
	c-4.656-5.02-8.222-11.153-10.248-17.867c-0.385-1.164-0.707-2.359-0.987-3.565c-0.78-3.336-1.164-6.818-1.164-10.394H304.903z"/>
<path style="fill:#E87BC2;" d="M281.943,328.579c-7.078,4.251-15.362,6.683-24.187,6.683c-8.824,0-17.108-2.432-24.187-6.683
	c7.078-4.241,15.362-6.683,24.187-6.683C266.58,321.896,274.864,324.338,281.943,328.579z"/>
<path style="fill:#E5BAAA;" d="M267.039,204.268v62.124c0,5.966-4.48,11.298-10.425,11.6c-6.371,0.333-11.652-4.698-11.652-10.997
	v-70.502C251.696,199.56,259.045,202.21,267.039,204.268z"/>
<g>
	<path style="fill:#393A59;" d="M310.338,258.846v-20.919c0-5.456-4.423-9.878-9.878-9.878l0,0c-5.456,0-9.878,4.423-9.878,9.878
		v20.919c0,5.456,4.423,9.878,9.878,9.878l0,0C305.914,268.725,310.338,264.302,310.338,258.846z"/>
	<path style="fill:#393A59;" d="M201.675,237.928v20.919c0,5.456,4.423,9.878,9.878,9.878l0,0c5.456,0,9.878-4.423,9.878-9.878
		v-20.919c0-5.456-4.423-9.878-9.878-9.878l0,0C206.097,228.049,201.675,232.472,201.675,237.928z"/>
</g>
<g>
	<circle style="fill:#7F7D89;" cx="302.753" cy="239.454" r="6.629"/>
	<circle style="fill:#7F7D89;" cx="295.342" cy="255.201" r="3.811"/>
	<circle style="fill:#7F7D89;" cx="213.854" cy="239.454" r="6.629"/>
	<circle style="fill:#7F7D89;" cx="206.443" cy="255.201" r="3.811"/>
</g>
<path style="fill:#E0554A;" d="M378.472,186.983v21.796c0,0-44.236-61.573-163.901-41.7c-41.087,6.818-52.385-3.035-49.506-18.917
	c26.567-11.007,57.665-17.337,90.915-17.337c37.21,0,71.728,7.931,100.197,21.463C369.615,158.68,378.44,172.109,378.472,186.983z"
	/>
<path style="fill:#F0F0F0;" d="M304.903,288.116c0,3.576-0.385,7.057-1.164,10.394h-91.965c-0.78-3.336-1.164-6.818-1.164-10.394
	H304.903z"/>
<g>
</g>
<g>
</g>
<g>
</g>
<g>
</g>
<g>
</g>
<g>
</g>
<g>
</g>
<g>
</g>
<g>
</g>
<g>
</g>
<g>
</g>
<g>
</g>
<g>
</g>
<g>
</g>
<g>
</g>
</svg>
