<?xml version="1.0" encoding="iso-8859-1"?>
<!-- Generator: Adobe Illustrator 19.0.0, SVG Export Plug-In . SVG Version: 6.00 Build 0)  -->
<svg version="1.1" id="Capa_1" xmlns="http://www.w3.org/2000/svg" xmlns:xlink="http://www.w3.org/1999/xlink" x="0px" y="0px"
	 viewBox="0 0 512 512" style="enable-background:new 0 0 512 512;" xml:space="preserve">
<circle style="fill:#4E4D68;" cx="256" cy="256" r="256"/>
<g>
	<path style="fill:#282942;" d="M512,256c0,65.306-24.451,124.897-64.711,170.12c-6.395,7.199-13.208,14.033-20.376,20.47
		C381.586,487.267,321.693,512,256,512c-66.121,0-126.38-25.067-171.802-66.215c-6.531-5.914-12.748-12.163-18.641-18.714
		C24.795,381.743,0,321.755,0,256c0-30.323,5.266-59.413,14.952-86.403h482.095C506.734,196.587,512,225.677,512,256z"/>
	<path style="fill:#282942;" d="M107.214,108.142h11.619c1.889,0,3.42-1.532,3.42-3.42V92.231c0-1.889,1.532-3.42,3.42-3.42h9.877
		c1.889,0,3.42,1.532,3.42,3.42v12.49c0,1.889,1.532,3.42,3.42,3.42h11.619c1.889,0,3.42,1.532,3.42,3.42v9.877
		c0,1.889-1.532,3.42-3.42,3.42H142.39c-1.889,0-3.42,1.532-3.42,3.42v52.196c0,1.889-1.532,3.42-3.42,3.42h-9.877
		c-1.889,0-3.42-1.532-3.42-3.42v-52.196c0-1.889-1.532-3.42-3.42-3.42h-11.619c-1.889,0-3.42-1.532-3.42-3.42v-9.877
		C103.793,109.672,105.325,108.142,107.214,108.142z"/>
	<path style="fill:#282942;" d="M453.954,108.142h-11.619c-1.889,0-3.42-1.532-3.42-3.42V92.231c0-1.889-1.532-3.42-3.42-3.42
		h-9.877c-1.889,0-3.42,1.532-3.42,3.42v12.49c0,1.889-1.532,3.42-3.42,3.42h-11.619c-1.889,0-3.42,1.532-3.42,3.42v9.877
		c0,1.889,1.532,3.42,3.42,3.42h11.619c1.889,0,3.42,1.532,3.42,3.42v52.196c0,1.889,1.532,3.42,3.42,3.42h9.877
		c1.889,0,3.42-1.532,3.42-3.42v-52.196c0-1.889,1.532-3.42,3.42-3.42h11.619c1.889,0,3.42-1.532,3.42-3.42v-9.877
		C457.375,109.672,455.843,108.142,453.954,108.142z"/>
	<path style="fill:#282942;" d="M52.37,129.09H63.99c1.889,0,3.42-1.532,3.42-3.42v-12.49c0-1.889,1.532-3.42,3.42-3.42h9.877
		c1.889,0,3.42,1.532,3.42,3.42v12.49c0,1.889,1.532,3.42,3.42,3.42h11.619c1.889,0,3.42,1.532,3.42,3.42v9.877
		c0,1.889-1.532,3.42-3.42,3.42H87.547c-1.889,0-3.42,1.532-3.42,3.42v52.196c0,1.889-1.532,3.42-3.42,3.42h-9.877
		c-1.889,0-3.42-1.532-3.42-3.42v-52.196c0-1.889-1.532-3.42-3.42-3.42H52.37c-1.889,0-3.42-1.532-3.42-3.42v-9.877
		C48.95,130.622,50.481,129.09,52.37,129.09z"/>
	<path style="fill:#282942;" d="M492.147,157.006v47.156c0,1.891-1.536,3.417-3.417,3.417h-9.885c-1.881,0-3.417-1.526-3.417-3.417
		V151.96c0-1.881-1.536-3.417-3.417-3.417h-11.619c-1.891,0-3.427-1.526-3.427-3.417v-9.885c0-1.881,1.536-3.417,3.427-3.417h11.619
		c1.881,0,3.417-1.526,3.417-3.417v-4.336C481.761,134.583,487.361,145.586,492.147,157.006z"/>
</g>
<path style="fill:#EDEDED;" d="M417.317,161.329v256.27c-50.429-17.925-104.726,22.07-161.317,22.07s-110.887-39.996-161.327-22.07
	v-256.27c0-89.094,72.222-161.328,161.317-161.328C345.094,0.001,417.317,72.235,417.317,161.329z"/>
<path style="fill:#D9D9D9;" d="M123.622,161.329c0-72.993,59.379-132.378,132.368-132.378c72.993,0,132.378,59.385,132.378,132.378
	v216.967c-42.972-11.514-87.337-17.334-132.367-17.334c-45.029,0-89.396,5.82-132.378,17.335V161.329H123.622z"/>
<g>
	<path style="fill:#282942;" d="M363.682,278.857h-215.37c-3.837,0-6.948-3.111-6.948-6.948c0-3.837,3.111-6.948,6.948-6.948
		h215.371c3.837,0,6.948,3.111,6.948,6.948C370.63,275.745,367.519,278.857,363.682,278.857z"/>
	<path style="fill:#282942;" d="M339.211,315.33H172.782c-3.837,0-6.948-3.111-6.948-6.948c0-3.837,3.111-6.948,6.948-6.948h166.429
		c3.837,0,6.948,3.111,6.948,6.948C346.159,312.22,343.048,315.33,339.211,315.33z"/>
</g>
<g>
	<path style="fill:#50BC69;" d="M469.406,382.593c-1.277-4.623-6.052-7.338-10.683-6.06c-15.258,4.212-26.085,12.862-33.713,22.32
		c0.464-23.296,9.753-45.127,26.277-61.65c3.393-3.392,3.393-8.89,0.001-12.282c-3.393-3.392-8.892-3.392-12.282-0.001
		c-15.283,15.281-25.37,34.368-29.399,55.123c-4.44-7.326-9.787-14.172-16-20.385c-3.391-3.391-8.889-3.392-12.282,0.001
		c-3.392,3.392-3.392,8.891,0.001,12.283c16.957,16.957,26.296,39.502,26.296,63.483v2.636c0,0.29,0.016,0.577,0.044,0.861
		c0.011,0.112,0.032,0.22,0.048,0.331c0.023,0.169,0.044,0.339,0.077,0.504c0.026,0.134,0.064,0.263,0.096,0.395
		c0.034,0.137,0.065,0.275,0.106,0.41c0.043,0.143,0.095,0.283,0.146,0.423c0.042,0.116,0.08,0.233,0.126,0.347
		c0.061,0.149,0.131,0.295,0.2,0.44c0.046,0.097,0.09,0.195,0.14,0.292c0.079,0.153,0.167,0.301,0.255,0.448
		c0.049,0.081,0.096,0.163,0.147,0.242c0.098,0.154,0.204,0.302,0.312,0.448c0.049,0.066,0.097,0.133,0.147,0.197
		c0.12,0.154,0.246,0.301,0.375,0.446c0.045,0.05,0.089,0.099,0.135,0.148c0.143,0.153,0.293,0.3,0.446,0.442
		c0.036,0.033,0.072,0.066,0.109,0.099c0.169,0.152,0.344,0.296,0.526,0.434c0.023,0.018,0.046,0.034,0.069,0.051
		c0.199,0.148,0.403,0.288,0.614,0.419c0.003,0.002,0.007,0.004,0.01,0.006c1.326,0.82,2.884,1.302,4.558,1.302
		c3.469,0,6.453-2.038,7.845-4.978c0.014-0.028,0.027-0.055,0.041-0.084c0.088-0.192,0.168-0.388,0.242-0.587
		c0.022-0.06,0.044-0.118,0.066-0.178c0.063-0.179,0.119-0.359,0.169-0.543c0.026-0.092,0.048-0.184,0.071-0.276
		c0.038-0.158,0.073-0.316,0.102-0.476c0.008-0.047,0.022-0.092,0.03-0.14c0.258-1.523,6.683-37.431,38.471-46.207
		C467.969,392,470.683,387.216,469.406,382.593z"/>
	<path style="fill:#50BC69;" d="M122.153,353.673c-6.213,6.212-11.559,13.058-15.998,20.384
		c-4.029-20.753-14.118-39.84-29.398-55.121c-3.392-3.392-8.891-3.392-12.282,0c-3.392,3.392-3.392,8.891,0,12.282
		c16.524,16.525,25.814,38.356,26.277,61.651c-7.628-9.461-18.453-18.108-33.713-22.321c-4.623-1.278-9.406,1.436-10.683,6.06
		c-1.277,4.624,1.437,9.407,6.06,10.683c31.788,8.776,38.213,44.683,38.467,46.182c0.009,0.057,0.025,0.112,0.036,0.168
		c0.025,0.138,0.054,0.273,0.086,0.408c0.031,0.134,0.065,0.265,0.101,0.396c0.038,0.132,0.076,0.262,0.12,0.391
		c0.045,0.135,0.095,0.266,0.145,0.398c0.046,0.117,0.092,0.234,0.142,0.349c0.063,0.142,0.132,0.281,0.202,0.419
		c0.05,0.099,0.098,0.199,0.153,0.295c0.086,0.154,0.179,0.302,0.273,0.449c0.048,0.076,0.093,0.154,0.144,0.228
		c0.122,0.179,0.254,0.351,0.389,0.519c0.031,0.039,0.059,0.08,0.091,0.118c0.172,0.208,0.353,0.406,0.542,0.597
		c0.03,0.03,0.064,0.057,0.095,0.088c0.158,0.154,0.319,0.302,0.488,0.443c0.078,0.065,0.161,0.124,0.24,0.187
		c0.127,0.099,0.255,0.197,0.388,0.289c0.097,0.068,0.199,0.13,0.3,0.193c0.122,0.077,0.246,0.155,0.371,0.226
		c0.109,0.062,0.219,0.119,0.332,0.176c0.126,0.065,0.254,0.126,0.385,0.185c0.114,0.051,0.228,0.099,0.345,0.146
		c0.137,0.054,0.277,0.104,0.417,0.153c0.113,0.039,0.225,0.076,0.34,0.11c0.157,0.046,0.316,0.085,0.476,0.122
		c0.103,0.024,0.205,0.05,0.309,0.07c0.193,0.038,0.39,0.065,0.587,0.09c0.076,0.009,0.15,0.023,0.227,0.031
		c0.278,0.027,0.559,0.044,0.843,0.044c0.235,0,0.471-0.009,0.709-0.029c0.03-0.002,0.06-0.009,0.091-0.011
		c0.142-0.013,0.281-0.034,0.421-0.054c0.141-0.02,0.282-0.038,0.421-0.064c0.142-0.027,0.28-0.062,0.419-0.096
		c0.135-0.032,0.269-0.065,0.4-0.102c0.134-0.04,0.264-0.085,0.396-0.131c0.133-0.046,0.265-0.092,0.394-0.144
		c0.123-0.05,0.245-0.106,0.366-0.161c0.131-0.06,0.26-0.121,0.388-0.187c0.114-0.06,0.226-0.122,0.338-0.187
		c0.127-0.073,0.253-0.148,0.375-0.228c0.106-0.068,0.208-0.139,0.309-0.211c0.121-0.086,0.239-0.174,0.355-0.265
		c0.097-0.077,0.192-0.156,0.286-0.236c0.112-0.096,0.22-0.196,0.328-0.298c0.09-0.086,0.179-0.172,0.265-0.262
		c0.101-0.106,0.199-0.214,0.295-0.324c0.084-0.095,0.165-0.191,0.245-0.29c0.09-0.113,0.174-0.228,0.258-0.345
		c0.075-0.104,0.15-0.209,0.222-0.318c0.077-0.119,0.149-0.24,0.22-0.364c0.067-0.114,0.134-0.227,0.195-0.343
		c0.066-0.125,0.124-0.254,0.184-0.381c0.056-0.12,0.114-0.239,0.164-0.364c0.054-0.133,0.1-0.271,0.148-0.406
		c0.044-0.123,0.09-0.246,0.129-0.372c0.045-0.147,0.078-0.299,0.116-0.449c0.029-0.12,0.064-0.238,0.088-0.361
		c0.034-0.174,0.056-0.352,0.08-0.53c0.014-0.103,0.034-0.204,0.045-0.308c0.028-0.284,0.044-0.572,0.044-0.863v-2.636
		c0-23.981,9.338-46.527,26.296-63.484c3.392-3.392,3.392-8.89,0-12.282C131.044,350.281,125.544,350.281,122.153,353.673z"/>
</g>
<path style="fill:#EF7064;" d="M445.168,428.481c-11.327,12.413-23.855,23.709-37.407,33.698c-3.438,2.539-6.949,4.995-10.522,7.356
	C356.759,496.379,308.203,512,256,512c-74.94,0-142.357-32.193-189.168-83.519c9.132-3.918,18.411-7.544,27.836-10.888
	c50.448-17.92,104.741-27.679,161.332-27.679s110.885,9.759,161.322,27.679C426.736,420.937,436.025,424.573,445.168,428.481z"/>
<path style="fill:#E0554A;" d="M283.209,390.698c-46.801,2.602-91.815,11.87-134.113,26.896
	c-22.329,7.931-43.907,17.46-64.596,28.463c-6.175-5.569-12.069-11.431-17.669-17.575c9.132-3.918,18.411-7.544,27.836-10.888
	c50.448-17.92,104.741-27.679,161.332-27.679C265.132,389.914,274.202,390.196,283.209,390.698z"/>
<g>
	<path style="fill:#6A6577;" d="M144.795,122.028c0-3.236,2.62-6.163,6.471-6.163h30.505c20.182,0,36.513,7.703,36.513,32.2
		c0,17.718-8.628,27.27-20.182,30.813l20.182,37.438c0.616,0.77,0.77,1.849,0.77,2.465c0,5.084-6.625,10.476-12.479,10.476
		c-2.773,0-5.393-1.695-6.933-4.776l-21.878-42.522h-12.941v40.211c0,4.16-4.93,6.316-10.014,6.316
		c-4.93,0-10.014-2.157-10.014-6.316V122.028H144.795z M164.823,133.429v32.816h16.947c10.014,0,16.484-4.16,16.484-16.331
		c0-12.171-6.47-16.485-16.484-16.485C181.77,133.429,164.823,133.429,164.823,133.429z"/>
	<path style="fill:#6A6577;" d="M248.021,122.028c0-4.314,4.93-6.163,10.014-6.163c4.931,0,10.014,1.848,10.014,6.163V222.17
		c0,4.16-5.083,6.316-10.014,6.316c-5.084,0-10.014-2.157-10.014-6.316L248.021,122.028L248.021,122.028z"/>
	<path style="fill:#6A6577;" d="M301.947,122.028c0-3.236,2.928-6.163,7.549-6.163h30.968c19.567,0,34.974,9.398,34.974,34.664
		v0.925c0,25.267-15.87,34.973-36.206,34.973h-17.255v35.743c0,4.16-5.083,6.316-10.014,6.316c-5.083,0-10.014-2.157-10.014-6.316
		V122.028H301.947z M321.976,133.429v37.284h17.255c10.014,0,16.177-5.701,16.177-17.718v-1.848
		c0-12.017-6.163-17.718-16.177-17.718h-17.255V133.429z"/>
</g>
<g>
	<circle style="fill:#E0554A;" cx="367.104" cy="432.17" r="6.617"/>
	<circle style="fill:#E0554A;" cx="388.357" cy="447.154" r="6.617"/>
	<path style="fill:#E0554A;" d="M407.761,462.179c-3.438,2.539-6.949,4.995-10.522,7.356c-1.39-1.202-2.267-2.988-2.267-4.974
		c0-3.647,2.967-6.614,6.614-6.614C404.407,457.947,406.81,459.703,407.761,462.179z"/>
	<circle style="fill:#E0554A;" cx="410.3" cy="433.915" r="6.617"/>
	<circle style="fill:#E0554A;" cx="389.747" cy="422.076" r="6.617"/>
	<circle style="fill:#E0554A;" cx="173.453" cy="458.292" r="6.617"/>
	<circle style="fill:#E0554A;" cx="178.678" cy="428.345" r="6.617"/>
	<circle style="fill:#E0554A;" cx="155.638" cy="440.435" r="6.617"/>
	<circle style="fill:#E0554A;" cx="115.179" cy="436.715" r="6.617"/>
	<circle style="fill:#E0554A;" cx="140.904" cy="462.211" r="6.617"/>
	<circle style="fill:#E0554A;" cx="363.28" cy="452.723" r="6.617"/>
</g>
<g>
</g>
<g>
</g>
<g>
</g>
<g>
</g>
<g>
</g>
<g>
</g>
<g>
</g>
<g>
</g>
<g>
</g>
<g>
</g>
<g>
</g>
<g>
</g>
<g>
</g>
<g>
</g>
<g>
</g>
</svg>
