<?xml version="1.0" encoding="iso-8859-1"?>
<!-- Generator: Adobe Illustrator 19.0.0, SVG Export Plug-In . SVG Version: 6.00 Build 0)  -->
<svg version="1.1" id="Capa_1" xmlns="http://www.w3.org/2000/svg" xmlns:xlink="http://www.w3.org/1999/xlink" x="0px" y="0px"
	 viewBox="0 0 512 512" style="enable-background:new 0 0 512 512;" xml:space="preserve">
<circle style="fill:#4E4D68;" cx="256" cy="256" r="256"/>
<path style="fill:#6A6577;" d="M461.684,223.352c0,58.423-24.355,111.155-63.469,148.598
	c-12.954,12.408-27.537,23.129-43.387,31.827c-29.325,16.102-63.016,25.261-98.831,25.261c-35.815,0-69.489-9.151-98.814-25.253
	c-4.727-2.586-9.336-5.356-13.819-8.303c-10.579-6.927-20.477-14.818-29.577-23.532C74.674,334.516,50.31,281.776,50.31,223.352
	c0-113.598,92.089-205.687,205.687-205.687S461.684,109.755,461.684,223.352z"/>
<path style="fill:#EF7064;" d="M298.981,136.152v178.644h-85.972V136.152c2.589,1.672,5.643,2.628,8.895,2.628h68.183
	C293.348,138.78,296.392,137.825,298.981,136.152z"/>
<path style="fill:#E0554A;" d="M298.981,144.787c-2.589,1.591-5.633,2.5-8.895,2.5h-57.971h-10.212c-3.252,0-6.306-0.909-8.895-2.5
	l0,0l0,0v170.009h19.107V163.764h66.865v-18.976H298.981z"/>
<path style="fill:#393A59;" d="M255.991,118.627c-3.002,0-5.436-2.434-5.436-5.436V90.955c0-3.002,2.434-5.436,5.436-5.436
	s5.436,2.434,5.436,5.436v22.236C261.426,116.194,258.992,118.627,255.991,118.627z"/>
<path style="fill:#EF7064;" d="M301.941,113.192c9.419,0,17.049,7.63,17.049,17.049c0,4.704-1.907,8.974-4.99,12.057
	c-0.949,0.949-2.017,1.789-3.163,2.491c-2.589,1.591-5.633,2.5-8.895,2.5h-91.894c-3.252,0-6.305-0.909-8.895-2.5
	c-4.892-2.995-8.153-8.391-8.153-14.548c0-4.704,1.907-8.974,4.99-12.057c3.084-3.083,7.353-4.99,12.057-4.99h34.087h57.808V113.192
	z"/>
<path style="fill:#F9D368;" d="M277.303,41.262c1.8,3.482,2.669,7.257,2.669,10.999c0,6.215-2.408,12.343-7.018,16.953
	c-4.685,4.685-10.825,7.029-16.953,7.029c-6.139,0-12.279-2.343-16.964-7.029c-7.376-7.376-9.133-18.678-4.35-27.952L255.99,0.001
	L277.303,41.262z"/>
<path style="fill:#E2BD55;" d="M259.283,69.214c-7.376-7.376-9.133-18.678-4.35-27.952l11.182-21.658L255.99,0.001l-21.303,41.261
	c-4.784,9.275-3.026,20.576,4.35,27.952c4.686,4.686,10.825,7.029,16.964,7.029c3.461,0,6.915-0.774,10.119-2.268
	C263.649,72.822,261.323,71.254,259.283,69.214z"/>
<path style="fill:#E0554A;" d="M227.92,130.24c0-4.704,1.907-8.974,4.99-12.057c3.084-3.083,7.353-4.99,12.057-4.99h-0.834h-34.087
	c-4.704,0-8.974,1.908-12.057,4.99c-3.083,3.083-4.991,7.353-4.991,12.057c0,6.158,3.261,11.553,8.153,14.547
	c2.589,1.591,5.643,2.5,8.895,2.5h34.92c-3.252,0-6.306-0.909-8.895-2.5C231.182,141.794,227.92,136.397,227.92,130.24z"/>
<path style="fill:#EDEDED;" d="M425.984,293.543v144.541c-0.01,3.521-0.387,6.98-1.118,10.324C379.789,487.999,320.711,512,256,512
	S132.2,487.999,87.124,448.387c-0.731-3.333-1.108-6.781-1.118-10.303V293.543c0-17.711,2.706-34.774,7.722-50.824
	c3.312-10.585,7.638-20.731,12.863-30.323h298.82c5.214,9.592,9.54,19.738,12.852,30.323
	C423.278,258.769,425.984,275.832,425.984,293.543z"/>
<g>
	<path style="fill:#D9D9D9;" d="M179.973,500.527c-34.691-10.783-66.215-28.735-92.85-52.14h-0.01
		c-0.721-3.333-1.097-6.781-1.108-10.303V293.543c0-17.711,2.706-34.774,7.722-50.824c3.312-10.585,7.638-20.731,12.863-30.323
		h47.386c-3.563,9.592-6.51,19.738-8.777,30.323c-3.427,16.05-5.266,33.113-5.266,50.824v144.541
		c0.031,20.511,8.714,38.693,21.598,46.738C168.135,488.95,174.331,494.247,179.973,500.527z"/>
	<path style="fill:#D9D9D9;" d="M181.949,463.516c-25.666,0-46.547-20.88-46.547-46.547v-58.071
		c0-25.666,20.881-46.547,46.547-46.547s46.547,20.88,46.547,46.547v58.071C228.495,442.635,207.615,463.516,181.949,463.516z"/>
</g>
<path style="fill:#393A59;" d="M154.526,358.898v58.07c0,15.145,12.278,27.422,27.422,27.422l0,0
	c15.145,0,27.422-12.278,27.422-27.422v-58.07c0-15.145-12.278-27.422-27.422-27.422l0,0
	C166.803,331.476,154.526,343.753,154.526,358.898z"/>
<path style="fill:#D9D9D9;" d="M330.045,463.516c-25.666,0-46.547-20.88-46.547-46.547v-58.071c0-25.666,20.88-46.547,46.547-46.547
	c25.666,0,46.547,20.88,46.547,46.547v58.071C376.592,442.635,355.71,463.516,330.045,463.516z"/>
<g>
	<path style="fill:#393A59;" d="M302.622,358.898v58.07c0,15.145,12.278,27.422,27.422,27.422l0,0
		c15.145,0,27.422-12.278,27.422-27.422v-58.07c0-15.145-12.278-27.422-27.422-27.422l0,0
		C314.9,331.476,302.622,343.753,302.622,358.898z"/>
	<path style="fill:#393A59;" d="M250.148,412.211l-25.684,44.484c-2.6,4.502,0.65,10.131,5.849,10.131h51.366
		c5.199,0,8.449-5.629,5.849-10.131l-25.684-44.484C259.246,407.709,252.747,407.709,250.148,412.211z"/>
</g>
<path style="fill:#CCCCCC;" d="M127.021,310.875c0,36.838-18.021,67.085-41.016,70.322v-87.651c0-17.713,2.707-34.778,7.724-50.828
	C112.912,250.837,127.021,278.274,127.021,310.875z"/>
<path style="fill:#D9D9D9;" d="M425.989,293.544v87.651c-22.994-3.237-41.016-33.484-41.016-70.322
	c0-32.601,14.108-60.038,33.293-68.159C423.282,258.766,425.989,275.832,425.989,293.544z"/>
<g>
</g>
<g>
</g>
<g>
</g>
<g>
</g>
<g>
</g>
<g>
</g>
<g>
</g>
<g>
</g>
<g>
</g>
<g>
</g>
<g>
</g>
<g>
</g>
<g>
</g>
<g>
</g>
<g>
</g>
</svg>
