<?xml version="1.0" encoding="iso-8859-1"?>
<!-- Generator: Adobe Illustrator 19.0.0, SVG Export Plug-In . SVG Version: 6.00 Build 0)  -->
<svg version="1.1" id="Capa_1" xmlns="http://www.w3.org/2000/svg" xmlns:xlink="http://www.w3.org/1999/xlink" x="0px" y="0px"
	 viewBox="0 0 512 512" style="enable-background:new 0 0 512 512;" xml:space="preserve">
<circle style="fill:#E0554A;" cx="256" cy="256" r="256"/>
<path style="fill:#EF7064;" d="M461.684,223.352c0,58.423-24.355,111.155-63.469,148.598
	c-12.954,12.408-27.537,23.129-43.387,31.827c-29.325,16.102-63.016,25.261-98.831,25.261c-35.815,0-69.489-9.151-98.814-25.253
	c-4.727-2.586-9.336-5.356-13.819-8.303c-10.579-6.927-20.477-14.818-29.577-23.532C74.674,334.516,50.31,281.776,50.31,223.352
	c0-113.598,92.089-205.687,205.687-205.687S461.684,109.755,461.684,223.352z"/>
<g>
	<ellipse style="fill:#E5BAAA;" cx="138.93" cy="207.893" rx="33.52" ry="32.643"/>
	<ellipse style="fill:#E5BAAA;" cx="373.06" cy="207.893" rx="33.52" ry="32.643"/>
</g>
<path style="fill:#EDEDED;" d="M432.995,442.796c-4.159,3.887-8.453,7.628-12.873,11.212c-12.716,10.365-26.488,19.54-41.117,27.366
	c-15.391,8.234-31.754,14.973-48.88,19.999C306.657,508.291,281.767,512,256,512c-44.575,0-86.486-11.097-122.984-30.615
	c-6.416-3.427-12.675-7.116-18.745-11.065c-12.581-8.15-24.388-17.377-35.265-27.523c3.197-7.92,7.293-15.402,12.173-22.319
	c20.052-28.463,53.206-47.48,91-48.786c1.379-0.063,2.779-0.094,4.18-0.094h139.295c1.4,0,2.8,0.031,4.18,0.094
	C376.811,373.321,416.622,402.307,432.995,442.796z"/>
<path style="fill:#D9D9D9;" d="M310.227,321.636v56.74c0,29.17-24.278,52.819-54.227,52.819l0,0
	c-29.949,0-54.227-23.648-54.227-52.819v-56.74H310.227z"/>
<path style="fill:#F9D0BE;" d="M376.734,154.588v99.718c0,32.474-13.507,61.875-35.353,83.154
	c-21.86,21.293-66.573,34.45-85.385,34.45c-20.197,0-120.738-52.654-120.738-117.603V154.59
	c0-64.949,54.058-117.603,120.738-117.603C322.69,36.986,376.734,89.64,376.734,154.588z"/>
<path style="fill:#E5BAAA;" d="M170.239,254.307V154.59c0-59.161,44.86-108.103,103.248-116.359
	c-5.712-0.808-11.549-1.244-17.493-1.244c-66.68,0-120.738,52.654-120.738,117.603v99.718c0,64.949,100.541,117.603,120.738,117.603
	c5.943,0,11.78-0.436,17.494-1.243C215.099,362.41,170.239,313.468,170.239,254.307z"/>
<path style="fill:#EDEDED;" d="M320.69,360.072l-6.51,11.065l-1.693,2.873l-3.699,6.28c-1.118,1.902-3.281,2.936-5.465,2.633
	l-118.408-16.729c-1.964-0.272-3.605-1.609-4.336-3.459c-1.055-2.717-1.839-5.308-2.414-7.711c-0.512-2.142-0.857-4.148-1.076-5.987
	c-0.93-7.785,0.313-12.685,0.313-12.685l9.185-11.201l120.842,22.883L320.69,360.072z"/>
<g>
	<path style="fill:#E5BAAA;" d="M165.094,218.318c0,0,94.137-40.751,211.64-16.37v-47.359l-231.493,19.844l-4.528,36.919"/>
	<path style="fill:#E5BAAA;" d="M256.001,264.964L256.001,264.964c-6.745,0-12.213-5.326-12.213-11.896v-93.287l24.426-19.183
		v112.471C268.214,259.638,262.746,264.964,256.001,264.964z"/>
	<ellipse style="fill:#E5BAAA;" cx="304.734" cy="219" rx="23.739" ry="33.206"/>
	<ellipse style="fill:#E5BAAA;" cx="207.256" cy="219" rx="23.739" ry="33.206"/>
</g>
<g>
	<path style="fill:#393A59;" d="M316.101,231.155v-22.539c0-5.879-4.892-10.643-10.928-10.643l0,0
		c-6.035,0-10.928,4.766-10.928,10.643v22.539c0,5.879,4.892,10.643,10.928,10.643l0,0
		C311.208,241.799,316.101,237.034,316.101,231.155z"/>
	<path style="fill:#393A59;" d="M195.901,208.616v22.539c0,5.879,4.892,10.643,10.928,10.643l0,0
		c6.035,0,10.928-4.766,10.928-10.643v-22.539c0-5.879-4.892-10.643-10.928-10.643l0,0
		C200.793,197.973,195.901,202.737,195.901,208.616z"/>
</g>
<g>
	<ellipse style="fill:#7F7D89;" cx="308.966" cy="212.574" rx="7.139" ry="6.954"/>
	<ellipse style="fill:#7F7D89;" cx="210.62" cy="212.574" rx="7.139" ry="6.954"/>
	<ellipse style="fill:#7F7D89;" cx="300.983" cy="229.083" rx="4.105" ry="3.999"/>
</g>
<path style="fill:#D9D9D9;" d="M320.69,360.072l-6.51,11.065l-1.693,2.873l-134.322-18.986c-0.512-2.142-0.857-4.148-1.076-5.987
	c-0.93-7.785,0.313-12.685,0.313-12.685l9.185-11.201l120.842,22.883L320.69,360.072z"/>
<g>
	<path style="fill:#EDEDED;" d="M343.249,338.056l-8.161,13.876l-1.275,2.173l-5.465,9.289c-1.411,2.393-4.117,3.688-6.865,3.302
		l-148.396-20.971c-2.456-0.334-4.524-2.006-5.433-4.326c-0.784-2.006-1.452-3.96-2.006-5.841
		c-1.233-4.148-1.964-7.962-2.372-11.337c-1.16-9.759,0.397-15.893,0.397-15.893l11.504-14.043l151.458,28.682L343.249,338.056z"/>
	<path style="fill:#EDEDED;" d="M330.188,51.451l-5.81,17.209L172.554,95.295l-20.877-8.255l2.738-15.862l0.188-1.066l2.069-12.037
		c0.481-2.738,2.55-4.901,5.256-5.517L308.172,19.79c2.424-0.554,4.942,0.282,6.614,2.132c3.271,3.626,5.851,7.199,7.889,10.522
		c0.846,1.379,1.599,2.717,2.267,4.002C329.477,45.16,330.188,51.451,330.188,51.451z"/>
</g>
<path style="fill:#D9D9D9;" d="M343.249,338.056l-8.161,13.876l-1.275,2.173l-168.166-18.547c-1.233-4.148-1.964-7.962-2.372-11.337
	c-1.16-9.759,0.397-15.893,0.397-15.893l11.504-14.043l151.458,28.682L343.249,338.056z"/>
<path style="fill:#EDEDED;" d="M361.89,307.566c-0.428,3.291-1.034,7.346-1.891,11.745c-0.731,3.783-1.651,7.816-2.779,11.818
	c-0.711,2.539-1.515,5.057-2.414,7.492c-1.337,3.626-4.984,5.872-8.819,5.454l-194.038-21.4c-3.751-0.408-6.771-3.25-7.377-6.98
	c-0.376-2.278-0.815-5.068-1.233-8.15c-0.293-2.111-0.585-4.357-0.836-6.666c-0.669-5.935-1.17-12.33-1.139-18.014
	c0.084-14.691,173.735,9.582,213.4,15.318C359.299,298.83,362.486,303.01,361.89,307.566z"/>
<path style="fill:#D9D9D9;" d="M361.89,307.566c-0.428,3.291-1.034,7.346-1.891,11.745c-0.731,3.783-1.651,7.816-2.779,11.818
	l-213.88-23.583c-0.293-2.111-0.585-4.357-0.836-6.666c-0.669-5.935-1.17-12.33-1.139-18.014
	c0.084-14.691,173.735,9.582,213.4,15.318C359.299,298.83,362.486,303.01,361.89,307.566z"/>
<path style="fill:#EDEDED;" d="M378.577,276.72c-0.491,3.793-1.191,8.464-2.173,13.531c-0.585,2.988-1.264,6.113-2.058,9.268
	c-1.076,4.378-2.382,8.798-3.939,13.009c-1.546,4.18-5.736,6.771-10.167,6.28l-223.744-24.67c-4.315-0.47-7.795-3.751-8.505-8.046
	c-0.721-4.43-1.64-10.522-2.382-17.084c-0.178-1.546-0.334-3.114-0.481-4.692c-0.522-5.433-0.857-11.003-0.836-16.091
	c0.104-16.938,200.338,11.055,246.073,17.669C375.599,266.647,379.267,271.464,378.577,276.72z"/>
<path style="fill:#D9D9D9;" d="M330.188,51.451l-5.81,17.209L172.554,95.295l-20.877-8.255l2.738-15.862l0.188-1.066l168.072-37.669
	c0.846,1.379,1.599,2.717,2.267,4.002C329.477,45.16,330.188,51.451,330.188,51.451z"/>
<path style="fill:#EDEDED;" d="M356.53,81.377l-7.178,21.274l-187.758,32.946l-25.809-10.198l3.093-17.962l0.282-1.661l2.8-16.206
	c0.585-3.385,3.156-6.06,6.489-6.823L329.3,42.224c2.999-0.69,6.123,0.345,8.182,2.633c5.716,6.343,9.738,12.539,12.56,17.962
	c0.408,0.773,0.784,1.536,1.128,2.278C355.777,74.679,356.53,81.377,356.53,81.377z"/>
<path style="fill:#D9D9D9;" d="M356.53,81.377l-7.178,21.274l-187.758,32.946l-25.809-10.198l3.093-17.962l212.292-42.339
	C355.777,74.679,356.53,81.377,356.53,81.377z"/>
<path style="fill:#EDEDED;" d="M371.214,133.211c-44.985,10.563-242.031,55.844-243.601,38.979
	c-0.604-6.534-0.67-13.923-0.494-20.818c0.165-6.6,0.549-12.748,0.889-17.228c0.329-4.337,3.514-7.906,7.774-8.751l220.752-44.018
	c4.37-0.867,8.773,1.35,10.673,5.38c3.294,6.973,5.907,14.669,7.906,21.664c1.427,4.963,2.526,9.564,3.349,13.296
	C379.602,126.887,376.363,132.003,371.214,133.211z"/>
<ellipse style="fill:#7F7D89;" cx="202.637" cy="229.083" rx="4.105" ry="3.999"/>
<path style="fill:#D9D9D9;" d="M371.214,133.211c-44.985,10.563-242.031,55.844-243.601,38.979
	c-0.604-6.534-0.67-13.923-0.494-20.818l247.993-42.954c1.427,4.963,2.526,9.564,3.349,13.296
	C379.602,126.887,376.363,132.003,371.214,133.211z"/>
<path style="fill:#EDEDED;" d="M130.724,207.595l253.337-35.726c3.894-0.55,6.81-3.848,6.858-7.781
	c0.109-8.892-0.382-24.961-4.462-39.189c-1.127-3.934-5.01-6.409-9.043-5.711l-249.797,43.261c-3.44,0.596-6.083,3.354-6.543,6.814
	c-0.902,6.794-1.753,18.759,0.694,31.89C122.549,205.349,126.497,208.192,130.724,207.595z"/>
<path style="fill:#D9D9D9;" d="M378.577,276.72c-0.491,3.793-1.191,8.464-2.173,13.531c-0.585,2.988-1.264,6.113-2.058,9.268
	l-248.351-35.025c-0.293-0.042-0.585-0.094-0.867-0.178c-0.522-5.433-0.857-11.003-0.836-16.091
	c0.104-16.938,200.338,11.055,246.073,17.669C375.599,266.647,379.267,271.464,378.577,276.72z"/>
<g>
	<path style="fill:#EDEDED;" d="M380.37,289.242l-253.337-35.726c-3.894-0.55-6.81-3.848-6.858-7.781
		c-0.109-8.892,0.382-24.961,4.462-39.189c1.127-3.934,5.01-6.409,9.043-5.711l249.797,43.262c3.44,0.596,6.083,3.354,6.543,6.814
		c0.902,6.794,1.753,18.759-0.694,31.89C388.545,286.997,384.597,289.839,380.37,289.242z"/>
	<path style="fill:#EDEDED;" d="M420.122,454.008c-7.461,6.081-15.287,11.755-23.437,16.98c-5.736,3.688-11.64,7.158-17.68,10.386
		c-15.391,8.234-31.754,14.973-48.88,19.999l-0.606-0.084l-213.107-30.668c-15.914-10.365-30.616-22.465-43.813-36.018l11.201-8.641
		l4.817-3.72c0.815-0.637,1.672-1.223,2.56-1.766c6.499-4.023,14.733-5.726,23.019-4.692l304.316,38.024L420.122,454.008z"/>
	<path style="fill:#EDEDED;" d="M434.322,440.09l-313.856-45.16c-6.165-0.888-8.526-8.537-3.929-12.748l8.944-8.182l9.038-8.276
		c4.148-3.803,9.759-5.611,15.35-4.932l254.924,30.971c7.095,0.857,13.124,5.569,15.684,12.246l2.247,5.851L434.322,440.09z"/>
</g>
<g>
	<path style="fill:#D9D9D9;" d="M434.322,440.09l-313.856-45.16c-6.165-0.888-8.526-8.537-3.929-12.748l8.944-8.182
		c2.644-0.502,5.423-0.596,8.213-0.251l289.029,36.112L434.322,440.09z"/>
	<path style="fill:#D9D9D9;" d="M420.122,454.008c-7.461,6.081-15.287,11.755-23.437,16.98L83.801,425.963l4.817-3.72
		c0.815-0.637,1.672-1.223,2.56-1.766c6.499-4.023,14.733-5.726,23.019-4.692L420.122,454.008z"/>
</g>
<path style="fill:#EDEDED;" d="M443.643,430.143c-11.327,12.204-23.834,23.301-37.334,33.113l-313.751-45.15
	c-7.304-1.045-10.282-8.788-4.974-12.884l20.793-16.06c4.807-3.709,11.389-5.371,18.004-4.545l301.704,37.7
	C434.301,423.09,439.881,425.963,443.643,430.143z"/>
<g>
</g>
<g>
</g>
<g>
</g>
<g>
</g>
<g>
</g>
<g>
</g>
<g>
</g>
<g>
</g>
<g>
</g>
<g>
</g>
<g>
</g>
<g>
</g>
<g>
</g>
<g>
</g>
<g>
</g>
</svg>
