<?xml version="1.0" encoding="iso-8859-1"?>
<!-- Generator: Adobe Illustrator 19.0.0, SVG Export Plug-In . SVG Version: 6.00 Build 0)  -->
<svg version="1.1" id="Capa_1" xmlns="http://www.w3.org/2000/svg" xmlns:xlink="http://www.w3.org/1999/xlink" x="0px" y="0px"
	 viewBox="0 0 512 512" style="enable-background:new 0 0 512 512;" xml:space="preserve">
<circle style="fill:#E87BC2;" cx="256" cy="256" r="256"/>
<path style="fill:#D9D9D9;" d="M137.749,419.547l-29.142,29.142c0.387,0.387,0.846,0.867,1.369,1.432
	c0.167,0.188,0.345,0.376,0.533,0.585c6.28,6.959,10.313,15.214,12.121,23.834c-17.627-10.762-33.834-23.604-48.306-38.191
	c-14.043-14.137-26.436-29.905-36.874-46.989c9.477,1.996,18.505,6.677,25.861,14.033l118.471-118.481l45.307,45.307
	L137.749,419.547z"/>
<path style="fill:#EDEDED;" d="M110.508,450.706c6.28,6.959,10.313,15.214,12.121,23.834
	c-17.627-10.762-33.834-23.604-48.306-38.191l16.802-16.802c12.873-12.873,33.75-12.873,46.623,0l-29.142,29.142
	c0.387,0.387,0.846,0.867,1.369,1.432C110.143,450.309,110.32,450.497,110.508,450.706z"/>
<path style="fill:#F9D0BE;" d="M472.403,293.623c-3.34,3.34-7.654,5.763-12.583,6.76l-94.891,19.336
	c-25.528,5.194-50.183,13.668-73.376,25.143c-0.022,0.007-0.074,0.029-0.125,0.052c-5.461,2.726-10.846,5.586-16.151,8.63
	c-0.525,0.303-3.103,2.645-7.278,6.583c-13.192,12.414-42.291,40.66-72.827,70.379c-8.153,7.935-21.172,7.849-29.217-0.196
	l-86.732-86.732c-8.063-8.064-8.131-21.116-0.152-29.263l82.451-84.175c7.773-9.915,10.913-22.72,8.467-35.08
	c-1.781-8.933-1.301-18.294,1.404-27.205c8.164-26.887,9.361-55.732,3.029-83.757l-0.931-4.078
	c-3.724-16.477,6.953-32.753,23.562-35.886l0.791-0.155c17.178-3.258,33.359,8.666,35.339,25.882
	c1.825,15.864,4.027,35.044,5.904,51.151c0.17,1.426,0.51,2.741,1.012,3.953c2.933,7.042,11.098,10.24,17.933,7.735
	c0.768-0.281,1.522-0.635,2.238-1.056c1.441-0.85,2.771-1.987,3.924-3.436l89.734-112.447c9.044-11.349,25.291-13.898,37.379-5.844
	c1.559,1.056,3.007,2.239,4.278,3.51c9.561,9.561,11.06,24.98,2.763,36.307l-60.216,82.102c-1.182,1.61-0.362,3.421,1.027,4.116
	c0.909,0.465,2.062,0.45,3.044-0.428l86.158-77.026c12.198-10.898,30.869-10.018,41.967,2.009
	c10.957,11.888,10.47,30.212-0.806,41.487c-0.385,0.385-0.798,0.753-1.219,1.145l-79.723,71.388
	c-1.877,1.684-2.069,3.931-1.256,5.733l-0.007,0.007c1.064,2.379,3.849,3.982,6.827,2.527l66.873-32.768
	c14.327-7.012,31.623-0.37,37.534,14.437c4.174,10.441,1.5,22.025-6.058,29.584c-2.018,2.018-4.367,3.746-7.02,5.083l-86.882,43.984
	c-2.682,1.352-3.695,3.886-3.414,6.265c0.347,3.066,2.838,5.866,6.687,5.608l51.262-3.635c13.809-0.982,25.764,9.553,26.51,23.392
	C480.035,282.015,477.242,288.783,472.403,293.623z"/>
<g>
	<path style="fill:#E5BAAA;" d="M89.381,353.736L79.28,343.635c-8.059-8.059-8.131-21.105-0.161-29.253l82.396-84.233
		c7.773-9.915,10.92-22.712,8.467-35.08c-1.773-8.94-1.293-18.301,1.412-27.212c8.165-26.872,9.361-55.717,3.022-83.75l-0.924-4.086
		c-3.724-16.461,6.945-32.746,23.554-35.879l0.798-0.163c16.713-3.162,32.494,8.054,35.147,24.523
		c-3.369-0.561-6.909-0.539-10.492,0.133l-0.798,0.163c-16.61,3.133-27.285,19.41-23.555,35.879l0.924,4.086
		c6.332,28.025,5.135,56.87-3.022,83.749c-2.704,8.911-3.185,18.272-1.412,27.212c2.446,12.361-0.695,25.165-8.467,35.081
		L89.381,353.736z"/>
	<path style="fill:#E5BAAA;" d="M280.199,244.661c18.128-49.254-30.669-89.179-40.097-119.689c3.26,7.825,12.993,10.911,20.17,6.675
		c7.797,11.431,17.576,28.296,27.894,52.273c11.32,26.312,6.05,47.846-2.664,63.247C283.712,250.328,278.944,248.07,280.199,244.661
		z"/>
	<path style="fill:#E5BAAA;" d="M358.537,31.972c-18.252,26.78-95.561,112.617-95.561,112.617l-4.949-11.888
		c0.776-0.283,1.525-0.63,2.247-1.06c1.434-0.85,2.767-1.981,3.926-3.434l89.726-112.444c9.049-11.35,25.292-13.897,37.381-5.844
		c1.561,1.05,3.004,2.237,4.273,3.507C395.58,13.427,376.807,5.191,358.537,31.972z"/>
	<path style="fill:#E5BAAA;" d="M470.323,60.505c0,0-17.43-4.793-36.303,14.079c-14.536,14.536-57.631,53.294-76.642,70.314
		c-5.151,4.612-13.004,4.391-17.894-0.499l0,0c-2.299-2.299-2.44-5.981-0.323-8.448l0,0c0.904,0.466,2.054,0.447,3.041-0.428
		l86.156-77.026C440.557,47.594,459.23,48.48,470.323,60.505z"/>
	<path style="fill:#E5BAAA;" d="M498.554,164.466c0,0-13.404-14.408-34.705-4.064c-14.959,7.268-45.206,20.232-61.907,27.314
		c-6.13,2.6-13.116-0.96-14.625-7.446l0,0c1.06,2.374,3.854,3.981,6.829,2.52l66.872-32.761
		C475.345,143.009,492.638,149.656,498.554,164.466z"/>
	<path style="fill:#E5BAAA;" d="M479.636,274.745c-3.962-8.199-15.559-11.304-20.58-11.304c-3.441,0-32.274-0.004-50.091-0.007
		c-7.72-0.001-13.933-6.336-13.786-14.054l0,0c0.347,3.068,2.839,5.871,6.683,5.606l51.26-3.634
		C466.936,250.375,478.887,260.903,479.636,274.745z"/>
</g>
<g>
</g>
<g>
</g>
<g>
</g>
<g>
</g>
<g>
</g>
<g>
</g>
<g>
</g>
<g>
</g>
<g>
</g>
<g>
</g>
<g>
</g>
<g>
</g>
<g>
</g>
<g>
</g>
<g>
</g>
</svg>
