<?xml version="1.0" encoding="iso-8859-1"?>
<!-- Generator: Adobe Illustrator 19.0.0, SVG Export Plug-In . SVG Version: 6.00 Build 0)  -->
<svg version="1.1" id="Capa_1" xmlns="http://www.w3.org/2000/svg" xmlns:xlink="http://www.w3.org/1999/xlink" x="0px" y="0px"
	 viewBox="0 0 512 512" style="enable-background:new 0 0 512 512;" xml:space="preserve">
<circle style="fill:#393A59;" cx="256" cy="256" r="256"/>
<g>
	<path style="fill:#6A6577;" d="M478.292,383.049c-12.716,22.215-28.672,42.339-47.219,59.716H293.93
		c-8.37,0-15.945-3.396-21.431-8.871c-5.486-5.486-8.871-13.061-8.871-21.431c0-16.729-13.573-30.302-30.302-30.302h-18.808
		c-8.37,0-15.945-3.396-21.431-8.871c-5.486-5.486-8.871-13.061-8.871-21.431c0-16.729,13.563-30.302,30.302-30.302h18.808
		c8.359,0,15.945-3.396,21.42-8.871c5.486-5.486,8.882-13.061,8.882-21.431c0-16.729,13.563-30.302,30.302-30.302h135.837
		c8.359,0,15.945,3.396,21.42,8.882c5.486,5.486,8.882,13.051,8.882,21.42c0,16.739-13.573,30.302-30.302,30.302h-18.808
		c-16.739,0-30.302,13.573-30.302,30.302c0,16.739,13.563,30.302,30.302,30.302h60.029
		C473.506,382.161,475.951,382.464,478.292,383.049z"/>
	<path style="fill:#6A6577;" d="M228.258,66.079c0,16.729-13.563,30.302-30.302,30.302h-18.808c-8.359,0-15.945,3.396-21.42,8.871
		c-5.486,5.486-8.882,13.061-8.882,21.431c0,16.729-13.563,30.302-30.302,30.302H19.853c21.337-50.824,58.598-93.32,105.556-121.208
		h72.547c8.37,0,15.945,3.396,21.431,8.871C224.872,50.134,228.258,57.71,228.258,66.079z"/>
	<path style="fill:#6A6577;" d="M337.462,300.039c0-16.735-13.567-30.302-30.302-30.302h-10.812
		c-16.739,0-30.302-13.573-30.302-30.302c0-16.739-13.573-30.302-30.302-30.302H99.908c-8.37,0-15.945,3.396-21.431,8.871
		c-5.486,5.486-8.871,13.061-8.871,21.431c0,16.729,13.563,30.302,30.302,30.302h18.808c8.359,0,15.945,3.396,21.42,8.871
		c5.486,5.486,8.882,13.061,8.882,21.431c0,16.729,13.563,30.302,30.302,30.302h127.84
		C323.896,330.341,337.462,316.774,337.462,300.039L337.462,300.039z"/>
</g>
<path style="fill:#D9D9D9;" d="M137.749,419.547l-29.142,29.142c0.387,0.387,0.846,0.867,1.369,1.432
	c0.167,0.188,0.345,0.376,0.533,0.585c6.28,6.959,10.313,15.214,12.121,23.834c-17.627-10.762-33.834-23.604-48.306-38.191
	c-14.043-14.137-26.436-29.905-36.874-46.989c9.477,1.996,18.505,6.677,25.861,14.033l118.471-118.481l45.307,45.307
	L137.749,419.547z"/>
<path style="fill:#EDEDED;" d="M110.508,450.706c6.28,6.959,10.313,15.214,12.121,23.834
	c-17.627-10.762-33.834-23.604-48.306-38.191l16.802-16.802c12.873-12.873,33.75-12.873,46.623,0l-29.142,29.142
	c0.387,0.387,0.846,0.867,1.369,1.432C110.143,450.309,110.32,450.497,110.508,450.706z"/>
<path style="fill:#71D385;" d="M478.971,131.772c0,1.902-0.052,3.814-0.167,5.716c-1.337,23.333-10.919,46.279-28.745,64.104
	l-227.161,227.15c-11.745,11.755-30.783,11.745-42.527,0L83.257,331.63c-11.745-11.745-11.745-30.783,0-42.527l227.15-227.15
	c17.826-17.826,40.772-27.408,64.104-28.756c27.136-1.567,54.805,8.014,75.546,28.756
	C469.337,81.23,478.971,106.506,478.971,131.772z"/>
<g>
	<path style="fill:#42BF5B;" d="M105.425,311.269L332.578,84.115c34.789-34.789,89.078-38.187,127.681-10.203
		c-3.034-4.186-6.431-8.19-10.203-11.962c-38.561-38.561-101.082-38.561-139.643,0L83.26,289.102
		c-11.748,11.748-11.748,30.781,0,42.528l22.165,22.165C93.677,342.049,93.677,323.017,105.425,311.269z"/>
	<path style="fill:#42BF5B;" d="M478.971,131.772c0,1.902-0.052,3.814-0.167,5.716l-42.287,42.277
		c-12.434,12.445-28.933,20.041-46.456,21.389c-1.881,0.146-3.793,0.219-5.674,0.219c-8.087,0-16.06-1.317-23.709-3.908
		c-6.217-2.1-12.173-5.047-17.607-8.735c-3.877-2.623-7.534-5.642-10.846-8.955c-11.598-11.598-18.85-26.321-20.961-42.559v-0.01
		c-0.418-3.145-0.637-6.363-0.637-9.592c0-1.755,0.073-3.542,0.209-5.465l0.031-0.449c1.39-17.418,8.986-33.844,21.368-46.216
		l42.277-42.287c27.136-1.567,54.805,8.014,75.546,28.756C469.337,81.23,478.971,106.506,478.971,131.772z"/>
</g>
<path style="fill:#E87BC2;" d="M497.741,99.335l-70.826,70.826c-10.566,10.566-24.08,16.38-37.895,17.445
	c-8.069,0.621-16.24-0.385-23.976-3.007c-5.017-1.692-9.849-4.056-14.356-7.115c-3.118-2.113-6.089-4.552-8.851-7.314
	c-9.746-9.746-15.45-22.011-17.105-34.704c-0.347-2.593-0.517-5.231-0.517-7.846c0-1.552,0.067-3.096,0.178-4.64
	c1.064-13.817,6.879-27.33,17.445-37.896l70.826-70.826L497.741,99.335z"/>
<path style="fill:#D863BB;" d="M389.02,187.606c-16.905,1.3-34.253-4.507-47.183-17.437c-11.748-11.748-17.622-27.153-17.621-42.55
	c0-1.552,0.067-3.096,0.178-4.64c16.913-1.293,34.261,4.514,47.191,17.445c11.748,11.748,17.614,27.145,17.614,42.543
	C389.196,184.517,389.13,186.062,389.02,187.606z"/>
<g>
	<path style="fill:#42BF5B;" d="M333.11,240.959l-62.064-62.064c-4.693-4.693-4.693-12.301,0-16.993l0,0
		c4.693-4.693,12.301-4.693,16.993,0l62.064,62.064c4.693,4.693,4.693,12.301,0,16.993l0,0
		C345.411,245.651,337.803,245.651,333.11,240.959z"/>
	<path style="fill:#42BF5B;" d="M302.817,271.252l-62.064-62.064c-4.693-4.693-4.693-12.301,0-16.993l0,0
		c4.693-4.693,12.301-4.693,16.993,0l62.064,62.064c4.693,4.693,4.693,12.301,0,16.993l0,0
		C315.118,275.945,307.509,275.945,302.817,271.252z"/>
	<path style="fill:#42BF5B;" d="M191.25,382.819l-62.064-62.064c-4.693-4.693-4.693-12.301,0-16.993l0,0
		c4.693-4.693,12.301-4.693,16.993,0l62.064,62.064c4.693,4.693,4.693,12.301,0,16.993l0,0
		C203.551,387.512,195.942,387.512,191.25,382.819z"/>
</g>
<path style="fill:#D863BB;" d="M222.905,428.746c-11.755,11.745-30.793,11.745-42.527,0l-74.951-74.951l-22.173-22.162
	c-11.745-11.745-11.745-30.783,0-42.527l22.173,22.162L222.905,428.746z"/>
<path style="fill:#E87BC2;" d="M222.905,428.746c-11.755,11.745-30.793,11.745-42.527,0l-74.951-74.951
	c-11.755-11.745-11.755-30.783,0-42.527L222.905,428.746z"/>
<g>
	<path style="fill:#D863BB;" d="M429.302,30.896l-104.57,104.57c-0.347-2.593-0.517-5.231-0.517-7.846
		c0-1.552,0.067-3.096,0.178-4.64c1.064-13.817,6.879-27.33,17.445-37.896l70.826-70.826L429.302,30.896z"/>
	<path style="fill:#D863BB;" d="M474.024,75.618L365.043,184.599c-5.017-1.692-9.849-4.056-14.356-7.115L463.289,64.883
		L474.024,75.618z"/>
</g>
<g>
</g>
<g>
</g>
<g>
</g>
<g>
</g>
<g>
</g>
<g>
</g>
<g>
</g>
<g>
</g>
<g>
</g>
<g>
</g>
<g>
</g>
<g>
</g>
<g>
</g>
<g>
</g>
<g>
</g>
</svg>
