<?xml version="1.0" encoding="iso-8859-1"?>
<!-- Generator: Adobe Illustrator 19.0.0, SVG Export Plug-In . SVG Version: 6.00 Build 0)  -->
<svg version="1.1" id="Capa_1" xmlns="http://www.w3.org/2000/svg" xmlns:xlink="http://www.w3.org/1999/xlink" x="0px" y="0px"
	 viewBox="0 0 511.999 511.999" style="enable-background:new 0 0 511.999 511.999;" xml:space="preserve">
<circle style="fill:#282942;" cx="255.999" cy="255.999" r="255.999"/>
<path style="fill:#F9D368;" d="M403.323,282.814c-35.815,0-69.489-9.151-98.814-25.253c-4.727-2.586-9.335-5.356-13.819-8.303
	c-10.579-6.927-20.477-14.818-29.577-23.532c-39.114-37.434-63.477-90.175-63.477-148.598c0-8.467,0.514-16.813,1.511-25.011
	c1.612-13.258-11.742-23.198-24.02-17.943C101.733,65.588,50.31,138.464,50.31,223.352c0,58.423,24.364,111.163,63.477,148.598
	c9.101,8.714,18.998,16.607,29.577,23.532c4.484,2.947,9.092,5.718,13.819,8.303c29.325,16.103,62.999,25.253,98.814,25.253
	s69.505-9.16,98.83-25.261c15.85-8.698,30.434-19.418,43.387-31.827c19.557-18.721,35.423-41.265,46.401-66.431
	c5.327-12.213-4.647-25.528-17.885-24.025C419.048,282.365,411.238,282.814,403.323,282.814z"/>
<path style="fill:#8E5EBC;" d="M433.002,442.792c-16.123,15.042-34.273,28.039-53.999,38.583
	c-36.498,19.521-78.429,30.624-123.003,30.624s-86.485-11.094-122.982-30.614c-19.728-10.534-37.876-23.54-54.01-38.593
	c16.374-40.487,56.193-69.472,103.172-71.1c1.379-0.061,2.779-0.092,4.18-0.092h139.293c1.4,0,2.8,0.03,4.18,0.092
	C376.807,373.321,416.628,402.307,433.002,442.792z"/>
<g>
	<path style="fill:#7C49A8;" d="M230.44,371.602c-1.411,0-2.811,0.03-4.18,0.092c-57.426,1.984-104.154,44.863-110.444,99.628
		c-13.166-8.397-25.485-17.963-36.812-28.528c16.374-40.487,56.193-69.472,103.172-71.1c1.379-0.061,2.779-0.092,4.18-0.092H230.44z
		"/>
	<path style="fill:#7C49A8;" d="M329.827,371.696v6.679c0,39.658-33.108,71.906-73.823,71.906s-73.823-32.248-73.823-71.906v-6.679
		c1.371-0.064,2.775-0.095,4.18-0.095h139.288C327.051,371.6,328.455,371.632,329.827,371.696z"/>
</g>
<path style="fill:#393A59;" d="M310.228,321.636v56.74c0,29.17-24.278,52.818-54.227,52.818l0,0
	c-29.949,0-54.227-23.648-54.227-52.818v-56.74H310.228z"/>
<path style="fill:#6A6577;" d="M401.963,303.349l-48.127,48.116c-54.2,54.2-142.077,54.2-196.276,0l-47.522-47.522
	c-18.484-18.484-26.065-43.753-22.731-67.79c2.304-16.721,9.874-32.839,22.731-45.685l74.945-74.957
	c39.389-39.379,103.24-39.379,142.629,0l74.351,74.351c13.006,13.006,20.607,29.367,22.816,46.3
	C427.899,260.032,420.287,285.014,401.963,303.349z"/>
<path style="fill:#4E4C66;" d="M255.702,392.118c-35.516,0-71.042-13.552-98.137-40.657l-47.522-47.522
	c-18.484-18.484-26.07-43.75-22.737-67.782c2.309-16.729,9.874-32.841,22.737-45.683l74.94-74.961
	c19.623-19.613,45.317-29.466,71.032-29.539c-17.126,0.073-34.241,9.927-47.302,29.539l-49.915,74.961
	c-8.558,12.842-13.594,28.954-15.13,45.683c-2.226,24.033,2.821,49.298,15.13,67.782l31.65,47.522
	C208.472,378.534,232.087,392.087,255.702,392.118z"/>
<path style="fill:#464560;" d="M228.619,350.555c14.685,16.139,40.074,16.139,54.759,0l10.843-38.065l-39.283-10.617l-27.073,27.073
	L228.619,350.555z"/>
<g>
	<path style="fill:#6A6577;" d="M195.383,114.061c0,0-2.162-49.693-67.517-100.194c-10.738,34.363-23.03,91.24-29.016,120.117
		c-2.332,11.248,1.013,22.923,8.939,31.237l17.782,18.651"/>
	<path style="fill:#6A6577;" d="M404.298,165.222l-17.783,18.653l-19.737-19.737l-50.081-50.081c0,0,2.166-49.688,67.524-100.193
		c10.734,34.368,23.028,91.242,29.017,120.121C415.563,145.23,412.219,156.909,404.298,165.222z"/>
</g>
<circle style="fill:#393A59;" cx="321.305" cy="231.204" r="37.815"/>
<path style="fill:#D863BB;" d="M404.298,165.222l-17.783,18.653l-19.737-19.737l-10.755-21.743l28.199-128.529
	c10.734,34.368,23.028,91.242,29.017,120.121C415.563,145.23,412.219,156.909,404.298,165.222z"/>
<g>
	<path style="fill:#393A59;" d="M424.781,236.167h-0.679l-20.94-10.355c-14.723-7.283-28.703-15.893-41.764-25.725
		c-13.072-9.832-25.245-20.877-36.31-32.998c-12.622-13.824-35.14-10.982-43.917,5.559l-17.669,33.269
		c-3.323,6.248-12.278,6.248-15.6,0l-17.669-33.269c-5.005-9.404-14.43-14.378-23.959-14.378c-7.22,0-14.503,2.853-19.958,8.819
		c-9.498,10.386-19.78,19.989-30.762,28.714c-14.639,11.63-30.49,21.692-47.323,30.009l-20.929,10.344
		c2.309-16.729,9.874-32.841,22.737-45.683l74.94-74.961c19.487-19.477,44.951-29.33,70.478-29.529
		c0.167-0.01,0.334-0.01,0.502-0.01h0.052c25.913-0.073,51.837,9.78,71.596,29.539l74.355,74.355
		C414.97,202.867,422.566,219.23,424.781,236.167z"/>
	<path style="fill:#393A59;" d="M255.998,324.314l17.506,17.506c9.668,9.668,25.343,9.668,35.011,0l0,0
		c10.165-10.165,11.697-26.11,3.653-38.024l-31.854-47.181c-11.633-17.23-37-17.23-48.633,0l-31.854,47.181
		c-8.044,11.914-6.512,27.859,3.653,38.024l0,0c9.668,9.668,25.343,9.668,35.011,0L255.998,324.314z"/>
</g>
<path style="fill:#282942;" d="M276.13,304.289c0-10.315-9.013-15.282-20.133-15.282c-11.12,0-20.133,4.966-20.133,15.282
	c0,10.315,9.013,18.678,20.133,18.678C267.117,322.967,276.13,314.605,276.13,304.289z"/>
<path style="fill:#D863BB;" d="M107.789,165.222l17.783,18.653l19.737-19.737l10.755-21.743L127.866,13.866
	c-10.734,34.368-23.028,91.242-29.017,120.121C96.525,145.23,99.869,156.909,107.789,165.222z"/>
<g>
	<path style="fill:#282942;" d="M215.791,232.297L215.791,232.297l-10.404,6.476c-11.168,6.953-25.858,3.535-32.811-7.633
		l-6.476-10.404l0,0C183.013,210.207,205.261,215.383,215.791,232.297z"/>
	<path style="fill:#282942;" d="M295.61,232.297L295.61,232.297l10.404,6.476c11.168,6.953,25.858,3.535,32.811-7.633l6.476-10.404
		l0,0C328.388,210.207,306.14,215.383,295.61,232.297z"/>
</g>
<g>
	<circle style="fill:#7F7D89;" cx="327.575" cy="224.935" r="6.269"/>
	<circle style="fill:#7F7D89;" cx="310.856" cy="235.906" r="3.135"/>
	<circle style="fill:#7F7D89;" cx="196.44" cy="224.935" r="6.269"/>
	<circle style="fill:#7F7D89;" cx="181.812" cy="233.816" r="3.135"/>
</g>
<path style="fill:#282942;" d="M255.456,85.984c-16.938,0.272-33.823,10.125-46.749,29.529l-49.915,74.961
	c-1.149,1.724-2.226,3.5-3.239,5.329c-14.639,11.63-30.49,21.692-47.323,30.009l-20.929,10.344
	c2.309-16.729,9.874-32.841,22.737-45.683l74.94-74.961C204.465,96.036,229.929,86.183,255.456,85.984z"/>
<g>
</g>
<g>
</g>
<g>
</g>
<g>
</g>
<g>
</g>
<g>
</g>
<g>
</g>
<g>
</g>
<g>
</g>
<g>
</g>
<g>
</g>
<g>
</g>
<g>
</g>
<g>
</g>
<g>
</g>
</svg>
