<?xml version="1.0" encoding="iso-8859-1"?>
<!-- Generator: Adobe Illustrator 19.0.0, SVG Export Plug-In . SVG Version: 6.00 Build 0)  -->
<svg version="1.1" id="Capa_1" xmlns="http://www.w3.org/2000/svg" xmlns:xlink="http://www.w3.org/1999/xlink" x="0px" y="0px"
	 viewBox="0 0 512 512" style="enable-background:new 0 0 512 512;" xml:space="preserve">
<circle style="fill:#7C49A8;" cx="256" cy="256" r="256"/>
<path style="fill:#8E5EBC;" d="M461.684,223.352c0,58.423-24.356,111.155-63.469,148.598
	c-12.954,12.408-27.537,23.129-43.387,31.827c-29.325,16.102-63.016,25.261-98.831,25.261s-69.489-9.151-98.814-25.253
	c-4.727-2.586-9.336-5.356-13.819-8.303c-10.579-6.927-20.477-14.818-29.577-23.532C74.674,334.516,50.31,281.776,50.31,223.352
	c0-113.598,92.089-205.687,205.687-205.687S461.684,109.755,461.684,223.352z"/>
<path style="fill:#F9D368;" d="M444.573,321.191V429.14c-3.73,4.054-7.586,7.993-11.567,11.807
	c-16.123,15.444-34.273,28.787-54,39.612C342.507,500.6,300.575,512,256,512s-86.486-11.389-122.984-31.431
	c-5.883-3.218-11.619-6.666-17.199-10.334c-13.166-8.62-25.485-18.442-36.812-29.288c-3.992-3.814-7.858-7.764-11.588-11.839
	V321.191l28.515,16.917l-8.986,20.438l26.436-2.821l3.699-20.679l0.972-5.465l26.248,4.347l10.512-24.409l24.848,9.519
	l14.744-22.141l22.915,13.521l18.024-19.571L256,307.618l20.658-16.771l18.014,19.571l22.925-13.521l14.743,22.141l24.837-9.519
	l10.512,24.409l26.248-4.347l2.205,12.319l7.074,31.66L444.573,321.191z"/>
<path style="fill:#E2BD55;" d="M178.678,423.121l-34.335,5.538l-0.042,0.01l-26.248,4.232v38.787
	c-0.752-0.481-1.494-0.961-2.236-1.452c-13.166-8.62-25.485-18.442-36.812-29.288c-3.992-3.814-7.858-7.764-11.588-11.839V321.191
	l28.515,16.917l-8.986,20.438l26.436-2.821l3.699-20.679l13.187,13.187L178.678,423.121z"/>
<polygon style="fill:#E87BC2;" points="444.573,365.129 421.209,377.72 425.044,403.937 398.608,406.768 393.937,432.901 
	367.689,428.565 357.177,452.974 332.33,443.455 317.586,465.586 294.672,452.075 276.647,471.646 256,454.875 235.332,471.646 
	217.318,452.075 194.403,465.586 179.66,443.455 154.812,452.974 144.3,428.565 118.053,432.901 113.392,406.768 86.946,403.937 
	90.791,377.72 67.417,365.14 82.202,343.165 67.417,321.191 90.781,308.611 86.946,282.384 113.382,279.562 118.053,253.419 
	144.3,257.766 154.812,233.357 179.66,242.876 183.066,237.756 194.403,220.735 217.318,234.256 235.342,214.685 256,231.455 
	276.658,214.685 294.672,234.256 317.597,220.735 332.34,242.876 357.177,233.357 367.689,257.766 393.937,253.419 398.608,279.562 
	425.044,282.384 421.209,308.6 444.573,321.191 429.787,343.165 "/>
<path style="fill:#71D385;" d="M341.592,136.871c8.798,11.264,14.44,23.322,13.49,39.403c-0.104,1.797-0.293,3.657-0.575,5.559
	c-0.052,0.334-0.094,0.679-0.167,1.003l0.01,0.01c6.886,3.668,14.514,5.653,22.225,5.841c4.963,0.125,9.958-0.491,14.817-1.881
	c4.869-1.39,9.592-3.553,14.002-6.52c1.275,2.56,2.79,5.047,4.566,7.419c16.384,21.943,47.459,26.446,69.402,10.062
	c21.953-16.394,26.467-47.47,10.083-69.413c-8.328-11.139-20.407-17.763-33.186-19.477c6.437-15.621,4.733-34.095-6.102-48.598
	c-13.5-18.087-36.979-24.325-57.104-16.781c-1.16-2.121-2.456-4.18-3.95-6.175c-6.353-8.505-14.9-14.388-24.263-17.45
	c-14.827-4.869-31.702-2.675-45.15,7.367c-0.596,0.449-1.181,0.909-1.755,1.369c-2.894,2.372-5.454,5.005-7.67,7.837
	c-0.742,0.951-1.442,1.923-2.111,2.915l-1.63,7.743l-8.735,41.357C312.575,108.272,329.889,121.866,341.592,136.871z"/>
<g>
	<path style="fill:#50BC69;" d="M308.155,39.361c0.666-0.994,1.37-1.965,2.112-2.914l-0.001-0.001
		c0.661-0.846,1.365-1.668,2.088-2.476c0.213-0.239,0.435-0.472,0.653-0.707c0.552-0.591,1.116-1.171,1.696-1.737
		c0.245-0.238,0.486-0.479,0.736-0.713c0.806-0.754,1.632-1.494,2.497-2.204c0.575-0.46,1.16-0.92,1.755-1.369
		c7.205-5.38,15.396-8.486,23.725-9.481c-0.008-0.001-0.016-0.002-0.024-0.003c0.077-0.009,0.156-0.009,0.234-0.024
		c0.91-0.173,1.843-0.184,2.768-0.238c0.104-0.006,0.208-0.015,0.312-0.02c0.995-0.052,1.989-0.075,2.984-0.067
		c0.05,0,0.1-0.001,0.15-0.001c4.223,0.046,8.427,0.623,12.503,1.729c0.206,0.055,0.409,0.123,0.613,0.182
		c0.63,0.18,1.261,0.353,1.884,0.558l-0.017,0.017c9.372,3.066,17.93,8.93,24.279,17.432c0.867,1.162,1.666,2.346,2.414,3.55
		c-1.235,0.177-2.465,0.4-3.69,0.67c-3.94,0.869-7.98-0.67-10.354-3.933c-0.07-0.096-0.141-0.191-0.212-0.287
		c-0.27-0.36-0.542-0.717-0.82-1.068c-9.601-12.162-26.974-15.533-39.82-6.87c-2.89,1.949-5.37,4.356-6.977,7.246
		c9.168,7.093,17.284,15.477,24.081,24.879c3.067,4.241,9.674,2.533,10.367-2.655c0.393-2.933,0.222-5.955-0.558-8.895
		c2.744,1.863,5.127,4.351,6.913,7.404c5.351,9.148,3.646,20.455-3.432,27.676c6.149,14.48,9.56,30.404,9.56,47.128v9.392
		c0,5.518,7.932,6.392,9.133,1.006c0.791-3.544,0.749-7.282-0.21-10.894c3.006,2.042,5.579,4.832,7.409,8.295
		c5.169,9.784,2.451,22.122-6.289,28.906c-0.068,0.053-0.136,0.106-0.205,0.157c-6.082,4.612-9.839,11.647-9.839,19.28v0.376
		c-7.711-0.188-15.339-2.173-22.225-5.841l-0.01-0.01c0.073-0.324,0.115-0.669,0.167-1.003c0.891-6.137,0.862-11.697,0.099-16.846
		c-0.674-0.848-1.316-1.733-1.879-2.697c-1.074-1.836-1.858-3.761-2.378-5.722c0.882,0.599,1.801,1.133,2.751,1.6
		c-2.296-7.802-6.351-14.692-11.509-21.298v-4.702c0-33.186-13.396-63.248-35.067-85.065L308.155,39.361z"/>
	<path style="fill:#50BC69;" d="M354.34,182.836l0.01,0.01c6.886,3.668,14.514,5.653,22.225,5.841
		c4.963,0.125,9.958-0.491,14.817-1.881c4.869-1.39,9.592-3.553,14.002-6.52c0,0-28.244,7.502-34.973-13.866
		c-2.717-8.631-8.913-1.599-15.339,9.853c-0.104,1.797-0.293,3.657-0.575,5.559C354.454,182.167,354.413,182.512,354.34,182.836z"/>
	<path style="fill:#50BC69;" d="M407.504,109.355c3.829-9.85,0.402-20.728-7.678-26.751c3.308-0.247,6.721,0.222,10.018,1.503
		c11.833,4.6,17.697,17.921,13.098,29.755c-4.6,11.833-17.921,17.697-29.755,13.098c-1.982-0.77-3.793-1.791-5.42-3.003
		C396.33,123.318,404.186,117.891,407.504,109.355z"/>
	<path style="fill:#50BC69;" d="M449.671,172.252c2.934-7.078,0.625-15.017-5.135-19.513c2.401-0.125,4.868,0.269,7.237,1.251
		c8.503,3.524,12.539,13.274,9.014,21.778c-3.524,8.503-13.274,12.539-21.778,9.014c-1.424-0.59-2.721-1.359-3.88-2.264
		C441.346,182.194,447.129,178.386,449.671,172.252z"/>
	<path style="fill:#50BC69;" d="M442.087,122.506c-11.291,7.417-22.904,9.782-22.904,9.782
		c18.111-7.662,25.238-23.408,25.238-23.408c6.431-15.619,4.724-34.101-6.104-48.602c-8.457-11.327-20.823-18.003-33.828-19.56
		c17.04-2.043,34.663,4.82,45.67,19.56c10.829,14.501,12.536,32.983,6.104,48.602c12.772,1.711,24.857,8.334,33.178,19.477
		c16.383,21.94,11.877,53.016-10.082,69.415c-10.613,7.925-23.363,10.948-35.554,9.489c8.326-0.999,16.512-4.112,23.712-9.489
		c21.96-16.399,26.465-47.475,10.082-69.415c-0.062-0.083-0.124-0.165-0.186-0.248C469.096,117.114,453.608,114.937,442.087,122.506
		z"/>
</g>
<g>
	<circle style="fill:#9CE2AE;" cx="408.388" cy="59.141" r="10.101"/>
	<circle style="fill:#9CE2AE;" cx="460.978" cy="138.553" r="10.101"/>
	<circle style="fill:#9CE2AE;" cx="353.876" cy="37.028" r="5.05"/>
	<circle style="fill:#9CE2AE;" cx="392.882" cy="95.368" r="5.05"/>
</g>
<path style="fill:#71D385;" d="M167.8,136.871c-8.798,11.264-14.441,23.322-13.49,39.403c0.104,1.797,0.293,3.657,0.575,5.559
	c0.052,0.334,0.094,0.679,0.167,1.003l-0.01,0.01c-6.886,3.668-14.514,5.653-22.225,5.841c-4.963,0.125-9.958-0.491-14.817-1.881
	c-4.869-1.39-9.592-3.553-14.002-6.52c-1.275,2.56-2.79,5.047-4.566,7.419c-16.384,21.943-47.459,26.446-69.402,10.062
	c-21.953-16.394-26.467-47.47-10.083-69.413c8.328-11.139,20.407-17.763,33.186-19.477C46.697,93.257,48.4,74.783,59.235,60.28
	c13.5-18.087,36.979-24.325,57.104-16.781c1.16-2.121,2.456-4.18,3.95-6.175c6.353-8.505,14.9-14.388,24.263-17.45
	c14.827-4.869,31.702-2.675,45.15,7.367c0.596,0.449,1.181,0.909,1.755,1.369c2.894,2.372,5.454,5.005,7.67,7.837
	c0.742,0.951,1.442,1.923,2.111,2.915l1.63,7.743l8.735,41.357C196.817,108.272,179.503,121.866,167.8,136.871z"/>
<path style="fill:#50BC69;" d="M201.237,39.361c-0.666-0.994-1.37-1.965-2.112-2.914l0.001-0.001
	c-0.661-0.846-1.365-1.668-2.088-2.476c-0.213-0.239-0.435-0.472-0.653-0.707c-0.552-0.591-1.116-1.171-1.696-1.737
	c-0.244-0.238-0.486-0.479-0.736-0.713c-0.806-0.754-1.632-1.494-2.497-2.204c-0.575-0.46-1.16-0.92-1.755-1.369
	c-7.205-5.38-15.396-8.486-23.725-9.481c0.008-0.001,0.016-0.002,0.024-0.003c-0.077-0.009-0.156-0.009-0.234-0.024
	c-0.91-0.173-1.843-0.184-2.768-0.238c-0.104-0.006-0.208-0.015-0.312-0.02c-0.995-0.052-1.99-0.075-2.984-0.067
	c-0.05,0-0.1-0.001-0.15-0.001c-4.223,0.046-8.427,0.623-12.503,1.729c-0.206,0.055-0.409,0.123-0.613,0.182
	c-0.63,0.18-1.261,0.353-1.884,0.558l0.017,0.017c-9.372,3.066-17.93,8.93-24.279,17.432c-0.867,1.162-1.666,2.346-2.414,3.55
	c1.235,0.177,2.465,0.4,3.69,0.67c3.94,0.869,7.98-0.67,10.354-3.933c0.07-0.096,0.141-0.191,0.212-0.287
	c0.27-0.36,0.542-0.717,0.82-1.068c9.601-12.162,26.974-15.533,39.82-6.87c2.89,1.949,5.37,4.356,6.977,7.246
	c-9.168,7.093-17.284,15.477-24.081,24.879c-3.067,4.241-9.674,2.533-10.367-2.655c-0.393-2.933-0.222-5.955,0.558-8.895
	c-2.744,1.863-5.127,4.351-6.913,7.404c-5.351,9.148-3.646,20.455,3.432,27.676c-6.149,14.48-9.56,30.404-9.56,47.128v9.392
	c0,5.518-7.932,6.392-9.133,1.006c-0.791-3.544-0.749-7.282,0.21-10.894c-3.006,2.042-5.579,4.832-7.409,8.295
	c-5.169,9.784-2.451,22.122,6.289,28.906c0.068,0.053,0.136,0.106,0.205,0.157c6.082,4.612,9.839,11.647,9.839,19.28v0.376
	c7.711-0.188,15.339-2.173,22.225-5.841l0.01-0.01c-0.073-0.324-0.115-0.669-0.167-1.003c-0.891-6.137-0.862-11.697-0.099-16.846
	c0.674-0.848,1.316-1.733,1.879-2.697c1.074-1.836,1.858-3.761,2.378-5.722c-0.882,0.599-1.801,1.133-2.751,1.6
	c2.296-7.802,6.351-14.692,11.508-21.298v-4.702c0-33.186,13.396-63.248,35.067-85.065L201.237,39.361z"/>
<polygon style="fill:#D863BB;" points="196.786,343.709 144.3,428.565 118.053,432.901 113.392,406.768 86.946,403.937 
	90.791,377.72 67.417,365.14 82.202,343.165 67.417,321.191 90.781,308.611 86.946,282.384 113.382,279.562 118.053,253.419 
	144.3,257.766 154.812,233.357 179.66,242.876 183.066,237.756 "/>
<g>
	<path style="fill:#CCCCCC;" d="M334.175,249.826v66.29c0,21.589-8.746,41.133-22.892,55.279
		c-14.155,14.155-33.7,22.901-55.288,22.901c-43.176,0-78.18-35.003-78.18-78.18v-66.29c0-43.176,35.003-78.18,78.18-78.18
		C299.181,171.645,334.175,206.648,334.175,249.826z"/>
	<circle style="fill:#CCCCCC;" cx="138.93" cy="221.268" r="33.52"/>
	<circle style="fill:#CCCCCC;" cx="373.07" cy="221.268" r="33.52"/>
</g>
<path style="fill:#50BC69;" d="M155.052,182.836l-0.01,0.01c-6.886,3.668-14.514,5.653-22.225,5.841
	c-4.963,0.125-9.958-0.491-14.817-1.881c-4.869-1.39-9.592-3.553-14.002-6.52c0,0,28.244,7.502,34.973-13.866
	c2.717-8.631,8.913-1.599,15.339,9.853c0.104,1.797,0.293,3.657,0.575,5.559C154.937,182.167,154.979,182.512,155.052,182.836z"/>
<path style="fill:#EDEDED;" d="M376.736,145.056v102.378c0,33.341-13.507,63.526-35.354,85.372
	c-21.86,21.86-52.045,35.368-85.386,35.368c-66.681,0-120.74-54.059-120.74-120.74V145.056c0-66.681,54.059-120.74,120.74-120.74
	C322.691,24.316,376.736,78.375,376.736,145.056z"/>
<path style="fill:#D9D9D9;" d="M170.238,247.433V145.055c0-60.739,44.86-110.987,103.251-119.463
	c-5.712-0.83-11.549-1.277-17.493-1.277c-66.681,0-120.74,54.059-120.74,120.74v102.378c0,66.681,54.059,120.74,120.74,120.74
	c5.943,0,11.78-0.448,17.494-1.277C215.099,358.421,170.238,308.173,170.238,247.433z"/>
<g>
	<path style="fill:#E87BC2;" d="M320.848,238.956c-16.396,0-29.736-13.339-29.736-29.736v-23.14
		c0-16.397,13.34-29.736,29.736-29.736s29.736,13.339,29.736,29.736v23.14C350.584,225.616,337.244,238.956,320.848,238.956z"/>
	<path style="fill:#E87BC2;" d="M220.891,186.075v23.144c0,16.394-13.343,29.738-29.738,29.738c-8.15,0-15.548-3.291-20.919-8.631
		c-5.444-5.392-8.819-12.863-8.819-21.107v-23.144c0-8.244,3.375-15.715,8.819-21.107c5.371-5.329,12.769-8.62,20.919-8.62
		C207.548,156.348,220.891,169.681,220.891,186.075z"/>
	<path style="fill:#E87BC2;" d="M259.584,343.615c-17.284,0-33.522-6.727-45.725-18.944c-12.206-12.192-18.934-28.427-18.934-45.704
		c0-2.983,0.697-5.986,2.016-8.683c2.968-5.996,8.624-10.014,15.18-10.836c0.819-0.111,1.653-0.167,2.48-0.167h89.955
		c0.403,0,0.91,0.009,1.509,0.066c4.628,0.348,8.993,2.332,12.338,5.619l0.082,0.082c1.507,1.509,2.757,3.258,3.715,5.2
		c1.319,2.636,2.032,5.675,2.032,8.719C324.232,314.614,295.231,343.615,259.584,343.615z"/>
	<path style="fill:#E87BC2;" d="M259.574,343.615c17.284,0,33.522-6.727,45.725-18.944c12.207-12.192,18.934-28.427,18.934-45.704
		c0-2.983-0.697-5.986-2.016-8.683c-2.968-5.996-8.624-10.014-15.18-10.836c-0.819-0.111-1.653-0.167-2.48-0.167h-89.955
		c-0.403,0-0.91,0.009-1.509,0.066c-4.628,0.348-8.993,2.332-12.338,5.619l-0.081,0.082c-1.507,1.509-2.757,3.258-3.715,5.2
		c-1.319,2.636-2.032,5.675-2.032,8.719C194.926,314.614,223.927,343.615,259.574,343.615z"/>
</g>
<path style="fill:#393A59;" d="M311.693,278.967c0,16.603-7.764,31.389-19.864,40.929c-3.793,2.999-8.004,5.475-12.539,7.325
	c-0.596,0.24-1.191,0.481-1.797,0.69c-5.59,2.048-11.619,3.166-17.91,3.166c-6.301,0-12.33-1.108-17.92-3.166
	c-0.606-0.219-1.212-0.449-1.797-0.7c-4.535-1.839-8.756-4.315-12.539-7.314c-1.609-1.275-3.145-2.633-4.598-4.086
	c-9.446-9.435-15.266-22.455-15.266-36.843c0-1.139,0.272-2.215,0.742-3.177c1.045-2.111,3.103-3.626,5.538-3.908
	c0.282-0.042,0.564-0.063,0.857-0.063h89.955c0.136,0,0.272,0,0.408,0.021c1.808,0.094,3.438,0.878,4.65,2.069
	c0.543,0.543,0.993,1.181,1.337,1.881C311.432,276.752,311.693,277.828,311.693,278.967z"/>
<g>
	<path style="fill:#FFFFFF;" d="M310.951,275.79h-4.796l-2.424,4.524l-6.896,12.884l-6.896-12.884l-2.424-4.524l-2.424,4.524
		l-6.886,12.884l-6.896-12.884l-2.424-4.524l-2.424,4.524l-6.886,12.884l-6.886-12.884l-2.424-4.524l-2.424,4.524l-6.896,12.884
		l-6.886-12.884l-2.424-4.524l-2.424,4.524l-6.896,12.884l-6.886-12.884l-2.424-4.524h-4.796c1.045-2.111,3.103-3.626,5.538-3.908
		c0.282-0.042,0.564-0.063,0.857-0.063h89.955c0.136,0,0.272,0,0.408,0.021c1.808,0.094,3.438,0.878,4.65,2.069
		C310.157,274.453,310.606,275.09,310.951,275.79z"/>
	<path style="fill:#FFFFFF;" d="M238.529,324.723l1.337,2.487c-4.535-1.839-8.756-4.315-12.539-7.314l4.305-8.056L238.529,324.723z"
		/>
	<path style="fill:#FFFFFF;" d="M275.78,324.723l1.714,3.187c-5.59,2.048-11.619,3.166-17.91,3.166
		c-6.301,0-12.33-1.108-17.92-3.166l1.714-3.187l6.886-12.884l6.886,12.884l2.424,4.524l2.424-4.524l6.896-12.884L275.78,324.723z"
		/>
	<path style="fill:#FFFFFF;" d="M291.83,319.895c-3.793,2.999-8.004,5.475-12.539,7.325l1.337-2.497l6.896-12.884L291.83,319.895z"
		/>
</g>
<path style="fill:#EDEDED;" d="M310.951,275.79L310.951,275.79c-2.953,0-5.666,1.625-7.061,4.228l-0.159,0.297h-13.793l-2.424-4.524
	l-2.424,4.524h-13.782l-2.424-4.524l-2.424,4.524h-13.772l-2.424-4.524l-2.424,4.524h-13.782l-2.424-4.524l-2.424,4.524h-13.782
	l-0.159-0.297c-1.395-2.603-4.109-4.228-7.061-4.228l0,0c1.045-2.111,3.103-3.626,5.538-3.908c0.282-0.042,0.564-0.063,0.857-0.063
	h89.955c0.136,0,0.272,0,0.408,0.021c1.808,0.094,3.438,0.878,4.65,2.069C310.157,274.453,310.606,275.09,310.951,275.79z"/>
<path style="fill:#D863BB;" d="M287.521,221.626c0,8.149-3.094,15.573-8.172,21.165c-5.767,6.362-14.091,10.355-23.349,10.355
	c-17.418,0-31.521-14.114-31.521-31.521s14.103-31.521,31.521-31.521c1.914,0,3.783,0.174,5.592,0.502
	C276.325,193.234,287.521,206.123,287.521,221.626z"/>
<path style="fill:#E87BC2;" d="M287.521,221.626c0,8.149-3.094,15.573-8.172,21.165c-3.047,1.167-6.339,1.798-9.795,1.798
	c-15.223,0-27.563-12.352-27.563-27.575c0-12.457,8.254-22.988,19.601-26.408C276.325,193.234,287.521,206.123,287.521,221.626z"/>
<circle style="fill:#F998E1;" cx="265.341" cy="212.679" r="9.339"/>
<path style="fill:#393A59;" d="M321.327,186.075v23.144c0,3.02-1.223,5.747-3.197,7.732c-1.985,1.975-4.713,3.197-7.732,3.197
	c-6.029,0-10.93-4.89-10.93-10.93v-23.144c0-0.008,0-0.017,0-0.026c0.003-1.426,1.092-2.622,2.494-2.885l12.789-2.401
	c3.332-0.626,6.555,1.853,6.576,5.243C321.327,186.029,321.327,186.052,321.327,186.075z"/>
<g>
	<ellipse style="fill:#7F7D89;" cx="312.424" cy="192.543" rx="7.139" ry="6.954"/>
	<ellipse style="fill:#7F7D89;" cx="304.441" cy="209.063" rx="4.105" ry="3.999"/>
</g>
<path style="fill:#393A59;" d="M212.532,186.075v23.144c0,3.02-1.223,5.747-3.197,7.732c-2.148,2.137-5.166,3.393-8.482,3.172
	c-5.792-0.386-10.179-5.43-10.179-11.236v-22.813v-0.073c0.011-3.558,3.246-6.233,6.744-5.577l12.267,2.303
	c1.609,0.302,2.844,1.679,2.848,3.316C212.532,186.056,212.532,186.065,212.532,186.075z"/>
<g>
	<ellipse style="fill:#7F7D89;" cx="203.755" cy="192.543" rx="7.139" ry="6.954"/>
	<ellipse style="fill:#7F7D89;" cx="195.772" cy="209.063" rx="4.105" ry="3.999"/>
</g>
<path style="fill:#D863BB;" d="M170.235,164.968v65.358c-5.444-5.392-8.819-12.863-8.819-21.107v-23.144
	C161.416,177.831,164.791,170.36,170.235,164.968z"/>
<g>
	<path style="fill:#50BC69;" d="M101.888,109.355c-3.829-9.85-0.402-20.728,7.678-26.751c-3.308-0.247-6.721,0.222-10.018,1.503
		c-11.833,4.6-17.697,17.921-13.098,29.755s17.921,17.697,29.755,13.098c1.982-0.77,3.793-1.791,5.42-3.003
		C113.062,123.318,105.206,117.891,101.888,109.355z"/>
	<path style="fill:#50BC69;" d="M59.721,172.252c-2.934-7.078-0.625-15.017,5.135-19.513c-2.401-0.125-4.868,0.269-7.237,1.251
		c-8.503,3.524-12.539,13.274-9.014,21.778c3.524,8.503,13.274,12.539,21.778,9.014c1.424-0.59,2.721-1.359,3.88-2.264
		C68.045,182.194,62.263,178.386,59.721,172.252z"/>
	<path style="fill:#50BC69;" d="M67.305,122.506c11.291,7.417,22.904,9.782,22.904,9.782c-18.111-7.663-25.238-23.408-25.238-23.408
		c-6.431-15.619-4.724-34.101,6.104-48.602c8.457-11.327,20.823-18.003,33.828-19.56c-17.04-2.043-34.663,4.82-45.67,19.56
		c-10.829,14.501-12.536,32.983-6.104,48.602c-12.772,1.711-24.857,8.334-33.178,19.477c-16.383,21.94-11.877,53.016,10.082,69.415
		c10.613,7.925,23.363,10.948,35.554,9.489c-8.326-0.999-16.511-4.112-23.712-9.489c-21.96-16.399-26.465-47.475-10.082-69.415
		c0.062-0.083,0.124-0.165,0.186-0.248C40.295,117.114,55.783,114.937,67.305,122.506z"/>
</g>
<g>
	<circle style="fill:#9CE2AE;" cx="101.01" cy="59.141" r="10.101"/>
	<circle style="fill:#9CE2AE;" cx="48.41" cy="138.553" r="10.101"/>
	<circle style="fill:#9CE2AE;" cx="155.512" cy="37.028" r="5.05"/>
	<circle style="fill:#9CE2AE;" cx="116.506" cy="95.368" r="5.05"/>
</g>
<g>
	<path style="fill:#E2BD55;" d="M276.647,471.646v39.529C269.834,511.718,262.949,512,256,512v-57.125L276.647,471.646z"/>
	<path style="fill:#E2BD55;" d="M235.332,471.646v39.529c-6.071-0.481-12.079-1.181-18.014-2.09v-57.01L235.332,471.646z"/>
	<path style="fill:#E2BD55;" d="M194.403,465.586v38.943c-4.974-1.212-9.895-2.591-14.744-4.106v-56.968L194.403,465.586z"/>
	<path style="fill:#E2BD55;" d="M154.812,452.974v38.243c-3.553-1.526-7.053-3.135-10.512-4.817v-57.835l0.042,0.094
		L154.812,452.974z"/>
	<path style="fill:#E2BD55;" d="M317.586,465.586v38.954c-7.513,1.86-15.151,3.385-22.915,4.545v-57.01L317.586,465.586z"/>
</g>
<g>
	<path style="fill:#D9D9D9;" d="M171.146,87.244c56.058-10.724,113.641-10.724,169.699,0c3.697,0.707,6.11,4.292,5.347,7.978
		c-0.009,0.044-0.019,0.089-0.027,0.133c-0.743,3.587-4.222,5.929-7.82,5.24c-54.405-10.416-110.292-10.416-164.697,0
		c-3.598,0.689-7.077-1.653-7.82-5.24c-0.009-0.044-0.019-0.089-0.027-0.133C165.036,91.536,167.449,87.951,171.146,87.244z"/>
	<path style="fill:#D9D9D9;" d="M171.146,115.029c56.058-10.724,113.641-10.724,169.699,0c3.697,0.707,6.11,4.292,5.347,7.978
		c-0.009,0.044-0.019,0.089-0.027,0.133c-0.743,3.587-4.222,5.929-7.82,5.24c-54.405-10.416-110.292-10.416-164.697,0
		c-3.598,0.689-7.077-1.653-7.82-5.24c-0.009-0.044-0.019-0.089-0.027-0.133C165.036,119.321,167.449,115.736,171.146,115.029z"/>
</g>
<g>
</g>
<g>
</g>
<g>
</g>
<g>
</g>
<g>
</g>
<g>
</g>
<g>
</g>
<g>
</g>
<g>
</g>
<g>
</g>
<g>
</g>
<g>
</g>
<g>
</g>
<g>
</g>
<g>
</g>
</svg>
