<?xml version="1.0" encoding="iso-8859-1"?>
<!-- Generator: Adobe Illustrator 19.0.0, SVG Export Plug-In . SVG Version: 6.00 Build 0)  -->
<svg version="1.1" id="Capa_1" xmlns="http://www.w3.org/2000/svg" xmlns:xlink="http://www.w3.org/1999/xlink" x="0px" y="0px"
	 viewBox="0 0 512 512" style="enable-background:new 0 0 512 512;" xml:space="preserve">
<circle style="fill:#26A6AF;" cx="256" cy="256" r="256"/>
<path style="fill:#33B5C6;" d="M461.684,223.352c0,58.423-24.355,111.155-63.469,148.598
	c-12.954,12.408-27.537,23.129-43.387,31.827c-29.325,16.102-63.016,25.261-98.831,25.261c-35.815,0-69.489-9.151-98.814-25.253
	c-4.727-2.586-9.336-5.356-13.819-8.303c-10.579-6.927-20.477-14.818-29.577-23.532C74.674,334.516,50.31,281.776,50.31,223.352
	c0-113.598,92.089-205.687,205.687-205.687S461.684,109.755,461.684,223.352z"/>
<path style="fill:#393A59;" d="M472.095,393.31c-11.086,17.429-24.231,33.416-39.09,47.637c-16.123,15.444-34.273,28.787-54,39.612
	C342.507,500.6,300.575,512,256,512s-86.486-11.389-122.984-31.431c-5.883-3.218-11.619-6.666-17.199-10.334
	c-13.166-8.62-25.485-18.442-36.812-29.288c-14.848-14.211-28.003-30.208-39.09-47.637c26.237-38.41,69.757-64.084,119.369-65.849
	c1.808-0.084,3.636-0.125,5.475-0.125h182.491c1.829,0,3.668,0.042,5.475,0.125C402.338,329.226,445.848,354.9,472.095,393.31z"/>
<g>
	<path style="fill:#282942;" d="M222.511,327.335c-1.849,0-3.678,0.042-5.475,0.125c-67.281,2.382-123.361,48.765-140.351,111.24
		c-13.897-13.646-26.269-28.871-36.77-45.39c26.237-38.41,69.757-64.084,119.369-65.849c1.808-0.084,3.636-0.125,5.475-0.125
		H222.511z"/>
	<path style="fill:#282942;" d="M352.719,327.464v8.983c0,53.342-43.376,96.718-96.718,96.718s-96.718-43.376-96.718-96.718v-8.983
		c1.796-0.086,3.636-0.128,5.475-0.128h182.485C349.084,327.335,350.923,327.378,352.719,327.464z"/>
</g>
<path style="fill:#393A59;" d="M376.736,145.056v102.378c0,33.341-32.288,44.745-54.135,66.591
	c-21.86,21.86-33.264,54.149-66.605,54.149s-47.878-29.162-69.728-51.012c-21.85-21.85-51.012-36.388-51.012-69.728V145.056
	c0-66.681,54.059-120.74,120.74-120.74C322.691,24.316,376.736,78.375,376.736,145.056z"/>
<path style="fill:#282942;" d="M170.238,247.433V145.055c0-60.739,44.86-110.987,103.251-119.463
	c-5.712-0.83-11.549-1.277-17.493-1.277c-66.681,0-120.74,54.059-120.74,120.74v102.378c0,18.906,17.912,31.578,25.659,47.51
	c19.577,40.26,47.307,73.23,95.082,73.23c5.943,0,11.78-0.448,17.494-1.277C215.099,358.421,170.238,308.173,170.238,247.433z"/>
<g>
	<path style="fill:#E0554A;" d="M280.785,23.04v36.059c-8.035-1.505-16.321-2.288-24.785-2.288c-8.474,0-16.76,0.784-24.785,2.288
		V23.04c0-4.765,3.856-8.62,8.61-8.62h32.35C276.929,14.42,280.785,18.275,280.785,23.04z"/>
	<path style="fill:#E0554A;" d="M402.594,201.823v32.341c0,4.757-3.857,8.613-8.613,8.613h-33.69
		c4.715-17.643,5.262-34.636,5.989-49.567h27.7C398.738,193.21,402.594,197.066,402.594,201.823z"/>
	<path style="fill:#E0554A;" d="M148.276,242.777H118.01c-4.757,0-8.613-3.857-8.613-8.613v-32.341c0-4.757,3.857-8.613,8.613-8.613
		h25.989C144.726,208.141,143.562,225.134,148.276,242.777z"/>
</g>
<path style="fill:#EF7064;" d="M256,29.633c-8.474,0-16.76,0.794-24.785,2.288v27.178c8.025-1.505,16.311-2.288,24.785-2.288
	c8.464,0,16.75,0.784,24.785,2.288V31.932C272.75,30.427,264.464,29.633,256,29.633z"/>
<path style="fill:#EDEDED;" d="M122.166,193.21c-0.12-2.482-0.18-4.911-0.18-7.273c0-65.541,47.051-120.096,109.231-131.725
	c8.026-1.497,16.309-2.284,24.779-2.284c8.47,0,16.753,0.787,24.788,2.294c62.17,11.619,109.221,66.174,109.221,131.716
	c0,2.361-0.06,4.792-0.18,7.273c-0.727,14.931-3.611,31.924-8.326,49.567c-19.063,71.326-68.066,153.338-125.504,153.338
	s-106.441-82.012-125.504-153.338C125.776,225.134,122.894,208.141,122.166,193.21z"/>
<g>
	<path style="fill:#D9D9D9;" d="M164.011,242.772c-3.459-17.638-5.569-34.628-6.102-49.559c-0.094-2.487-0.136-4.911-0.136-7.273
		c0-65.546,34.482-120.101,80.06-131.73c5.883-1.494,11.954-2.278,18.16-2.278c-8.474,0-16.76,0.784-24.785,2.278
		c-62.171,11.63-109.223,66.184-109.223,131.73c0,2.361,0.052,4.786,0.178,7.273c0.731,14.932,3.615,31.922,8.328,49.559
		c18.954,70.928,67.511,152.409,124.52,153.328C213.331,394.825,177.877,313.553,164.011,242.772z"/>
	<path style="fill:#D9D9D9;" d="M321.56,246.503c-13.607,0-27.076-4.583-37.927-12.907c-9.124-7.001-13.346-18.336-11.018-29.583
		c2.321-11.216,10.667-19.919,21.782-22.714l39.491-9.909c2.01-0.505,4.072-0.761,6.129-0.761c12.186,0,22.593,8.738,24.746,20.778
		c2.158,12.095,7.887,44.209-27.993,53.208C331.78,245.868,326.662,246.503,321.56,246.503z"/>
</g>
<path style="fill:#E5BAAA;" d="M334.482,235.495c-16.309,4.09-32.745,0.137-45.126-9.36c-13.451-10.319-9.104-31.581,7.333-35.714
	l21.391-5.365l18.097-4.543c8.864-2.225,17.72,3.56,19.328,12.552C359.193,213.736,357.097,229.822,334.482,235.495z"/>
<path style="fill:#D9D9D9;" d="M190.432,246.503c-5.102,0-10.22-0.634-15.211-1.886c-35.896-9.001-30.154-41.117-27.993-53.207
	c2.154-12.04,12.561-20.779,24.747-20.779c2.057,0,4.119,0.256,6.128,0.761l18.089,4.543l21.388,5.365
	c11.124,2.795,19.475,11.5,21.794,22.717c2.327,11.247-1.899,22.582-11.027,29.581C217.508,241.918,204.04,246.503,190.432,246.503z
	"/>
<path style="fill:#E5BAAA;" d="M222.626,226.135c-12.373,9.497-28.809,13.451-45.118,9.36
	c-22.623-5.673-24.719-21.759-21.023-42.431c1.608-8.992,10.465-14.777,19.329-12.552l18.088,4.543l21.391,5.365
	C231.739,194.553,236.085,215.815,222.626,226.135z"/>
<g>
	<path style="fill:#F9D0BE;" d="M356.042,216.046v0.008c-2.139,9.258-8.351,16.121-21.561,19.44
		c-16.309,4.09-32.745,0.137-45.126-9.36c-2.345-1.797-4.149-3.928-5.433-6.246c2.516-4.603,6.862-8.3,12.767-9.789l39.488-9.909
		c8.865-2.225,17.72,3.56,19.328,12.552C355.7,213.856,355.888,214.96,356.042,216.046z"/>
	<path style="fill:#F9D0BE;" d="M228.065,219.888c-1.283,2.319-3.097,4.449-5.442,6.246c-12.373,9.497-28.809,13.451-45.118,9.36
		c-13.219-3.311-19.423-10.173-21.561-19.44c0.154-1.087,0.342-2.19,0.539-3.311c1.609-8.992,10.465-14.777,19.329-12.552
		l39.478,9.909C221.194,211.589,225.55,215.286,228.065,219.888z"/>
</g>
<g>
	<path style="fill:#393A59;" d="M318.077,185.051v23.521c0,5.904-4.775,10.689-10.689,10.689c-5.904,0-10.7-4.786-10.7-10.689
		v-18.15l7.001-1.755l12.476-3.135L318.077,185.051z"/>
	<path style="fill:#393A59;" d="M215.291,190.422v18.15c0,5.904-4.786,10.689-10.689,10.689s-10.7-4.786-10.7-10.689v-23.521
		l6.541,1.641l13.416,3.375L215.291,190.422z"/>
	<circle style="fill:#393A59;" cx="272.227" cy="341.901" r="6.418"/>
</g>
<path style="fill:#D9D9D9;" d="M275.176,242.549h-38.361c-6.101,0-11.047,4.946-11.047,11.047l0,0
	c0,6.101,4.945,11.047,11.047,11.047h38.361c6.101,0,11.047-4.946,11.047-11.047l0,0
	C286.223,247.495,281.277,242.549,275.176,242.549z"/>
<g>
	<circle style="fill:#393A59;" cx="272.227" cy="311.693" r="6.418"/>
	<circle style="fill:#393A59;" cx="272.227" cy="281.318" r="6.418"/>
	<circle style="fill:#393A59;" cx="272.227" cy="251.099" r="6.418"/>
	<circle style="fill:#393A59;" cx="272.227" cy="128.387" r="6.418"/>
	<circle style="fill:#393A59;" cx="272.227" cy="98.179" r="6.418"/>
	<circle style="fill:#393A59;" cx="239.762" cy="341.901" r="6.418"/>
	<circle style="fill:#393A59;" cx="239.762" cy="311.693" r="6.418"/>
	<circle style="fill:#393A59;" cx="239.762" cy="281.318" r="6.418"/>
	<circle style="fill:#393A59;" cx="239.762" cy="251.099" r="6.418"/>
	<circle style="fill:#393A59;" cx="239.762" cy="128.387" r="6.418"/>
	<circle style="fill:#393A59;" cx="239.762" cy="98.179" r="6.418"/>
</g>
<g>
	<polygon style="fill:#E87BC2;" points="255.995,182.094 312.423,154.075 199.566,154.075 	"/>
	<polygon style="fill:#E87BC2;" points="294.657,266.731 346.902,294.943 326.004,305.392 	"/>
	<polygon style="fill:#E87BC2;" points="217.339,266.731 185.992,305.392 180.36,302.571 165.094,294.943 175.846,289.134 	"/>
</g>
<path style="fill:#D863BB;" d="M175.846,289.134l-10.752,5.81l15.266,7.628C178.772,298.141,177.277,293.658,175.846,289.134z"/>
<g>
	<path style="fill:#7F7D89;" d="M317.827,190.109c0,3.939-3.197,7.137-7.147,7.137c-3.939,0-7.137-3.197-7.137-7.137
		c0-0.491,0.052-0.972,0.146-1.442l12.476-3.135C317.2,186.765,317.827,188.364,317.827,190.109z"/>
	<circle style="fill:#7F7D89;" cx="302.707" cy="207.057" r="4.105"/>
	<path style="fill:#7F7D89;" d="M213.859,190.067v0.042c0,3.939-3.197,7.137-7.147,7.137c-3.939,0-7.137-3.197-7.137-7.137
		c0-1.243,0.313-2.403,0.867-3.417L213.859,190.067z"/>
	<circle style="fill:#7F7D89;" cx="198.74" cy="207.057" r="4.105"/>
</g>
<g>
	<circle style="fill:#F0F0F0;" cx="336.112" cy="121.145" r="14.629"/>
	<circle style="fill:#F0F0F0;" cx="352.475" cy="145.178" r="7.662"/>
</g>
<g>
</g>
<g>
</g>
<g>
</g>
<g>
</g>
<g>
</g>
<g>
</g>
<g>
</g>
<g>
</g>
<g>
</g>
<g>
</g>
<g>
</g>
<g>
</g>
<g>
</g>
<g>
</g>
<g>
</g>
</svg>
