<?xml version="1.0" encoding="iso-8859-1"?>
<!-- Generator: Adobe Illustrator 19.0.0, SVG Export Plug-In . SVG Version: 6.00 Build 0)  -->
<svg version="1.1" id="Capa_1" xmlns="http://www.w3.org/2000/svg" xmlns:xlink="http://www.w3.org/1999/xlink" x="0px" y="0px"
	 viewBox="0 0 512 512" style="enable-background:new 0 0 512 512;" xml:space="preserve">
<circle style="fill:#6A6577;" cx="256" cy="256" r="256"/>
<g>
	<path style="fill:#4E4D68;" d="M512,256c0,10.25-0.606,20.365-1.776,30.302h-71.889c-16.739,0-30.302-13.573-30.302-30.302
		c0-8.37-3.396-15.945-8.882-21.431c-5.475-5.475-13.061-8.871-21.42-8.871h-18.808c-16.739,0-30.302-13.573-30.302-30.302
		c0-8.37,3.385-15.945,8.871-21.431c5.486-5.475,13.061-8.871,21.431-8.871h135.837c0.209,0,0.418,0,0.627,0.021
		C506.128,193.358,512,223.995,512,256z"/>
	<path style="fill:#4E4D68;" d="M110.592,347.951c0,16.739-13.563,30.302-30.302,30.302H31.033
		c-7.492-13.74-13.761-28.254-18.651-43.384C4.451,310.345,0.115,284.191,0,257.045h8.882c16.729,0,30.302,13.563,30.302,30.302
		c0,16.729,13.563,30.302,30.302,30.302H80.29C97.029,317.649,110.592,331.222,110.592,347.951z"/>
	<path style="fill:#4E4D68;" d="M487.727,364.941c-38.515,81.795-119.066,139.891-213.807,146.432c-0.01,0-0.021,0-0.021,0
		c-13.782-2.842-24.158-15.047-24.158-29.675c0-8.37,3.396-15.935,8.882-21.42c5.486-5.486,13.051-8.882,21.42-8.882h60.029
		c16.739,0,30.302-13.563,30.302-30.302c0-16.729-13.563-30.302-30.302-30.302h-18.808c-16.729,0-30.302-13.563-30.302-30.302
		c0-8.37,3.396-15.935,8.882-21.42c5.475-5.486,13.061-8.882,21.42-8.882h135.837c16.739,0,30.302,13.573,30.302,30.302
		C487.403,362.005,487.518,363.489,487.727,364.941z"/>
	<path style="fill:#4E4D68;" d="M221.999,29.257c0,8.37-3.385,15.945-8.871,21.431c-5.486,5.475-13.061,8.871-21.431,8.871h-18.808
		c-16.729,0-30.302,13.573-30.302,30.302c0,8.37-3.385,15.945-8.871,21.431c-5.486,5.475-13.061,8.871-21.431,8.871h-73.31
		C76.278,60.677,137.362,17.627,208.906,4.326C216.816,9.78,221.999,18.913,221.999,29.257z"/>
</g>
<g>
	<path style="fill:#282942;" d="M509.043,18.641c-21.023,22.977-33.855,53.561-33.855,87.176c0,7.011,0.564,13.887,1.63,20.595
		c1.661,10.376,4.566,20.344,8.558,29.727c1.555,3.708,3.281,7.31,5.168,10.815c1.406,2.612,0.044,5.836-2.821,6.609
		c-0.02,0.005-0.039,0.01-0.059,0.016c-1.641,0.46-3.281,0.92-4.89,1.411c-41.263,12.675-75.285,41.932-94.271,79.976
		c-5.371,10.721-9.54,22.141-12.319,34.105c-0.491,2.079-0.93,4.18-1.337,6.29c-1.829,9.582-2.79,19.487-2.79,29.592
		c0.01,45.317,19.205,86.121,49.915,114.751l-1.369,1.369c-28.641-30.71-69.423-49.904-114.761-49.904
		c-12.34,0-24.346,1.421-35.861,4.117c-51.263,11.985-92.839,49.11-111.052,97.667C89.652,464.551,35.6,406.643,12.382,334.869
		l1.735-10.125c1.275-7.398,9.341-11.463,16.039-8.067l22.768,11.536c40.96,20.762,89.872,15.235,125.022-13.103
		c5.193-4.18,5.653-11.933,0.94-16.645l-34.419-34.408c-6.646-6.646-2.581-18.035,6.781-18.975h0.021
		c39.518-3.96,70.76-35.203,74.71-74.71c0.272-2.759,1.452-5.057,3.156-6.76c4.075-4.075,11.128-4.723,15.83-0.021l34.398,34.408
		c4.733,4.723,12.476,4.221,16.666-0.972c20.292-25.192,28.871-57.428,24.461-88.722c-1.735-12.403-5.507-24.67-11.389-36.268
		l-11.546-22.779c-3.385-6.698,0.669-14.754,8.067-16.029l2.811-0.481l54.648-9.341L498.928,0.178
		C509.377-1.609,516.2,10.825,509.043,18.641z"/>
	<path style="fill:#282942;" d="M267.375,168.915l-9.761,1.599l-30.475,4.999l-37.865,6.204c0,0-10.362-14.309-13.771-37.567
		c-2.737-18.62-1.003-42.968,14.087-70.304C189.589,73.845,267.379,78.325,267.375,168.915z"/>
</g>
<path style="fill:#393A59;" d="M189.593,73.846c0,0-7.678,51.218,31.056,93.15c2.853,3.092,4.988,5.92,6.492,8.518l-37.865,6.204
	C189.275,181.717,155.665,135.305,189.593,73.846z"/>
<path style="fill:#282942;" d="M149.822,286.471l6.597-40.237l6.204-37.865c0,0-46.411-33.61-107.871,0.317
	C54.752,208.686,59.232,286.475,149.822,286.471z"/>
<g>
	<path style="fill:#393A59;" d="M54.752,208.686c0,0,51.218-7.678,93.15,31.056c3.092,2.853,5.92,4.988,8.518,6.492l6.204-37.865
		C162.623,208.369,116.211,174.759,54.752,208.686z"/>
	<path style="fill:#393A59;" d="M302.995,219.605l-9.124,57.603c-1.459,9.201-5.798,17.413-12.071,23.685
		c-6.276,6.276-14.488,10.616-23.689,12.075l-1.433,0.228l-51.056,8.082l-5.115,0.813c-18.407,2.912-36.599-6.358-45.059-22.957
		l-23.711-46.544l-2.766-5.424c-8.462-16.609-5.269-36.774,7.907-49.95l41.24-41.24c13.18-13.18,33.346-16.373,49.954-7.911
		l24.038,12.251l27.926,14.229C296.642,183.002,305.912,201.194,302.995,219.605z"/>
</g>
<circle style="fill:#F9D368;" cx="187.256" cy="255.154" r="17.547"/>
<circle style="fill:#282942;" cx="187.256" cy="255.154" r="6.637"/>
<circle style="fill:#F9D368;" cx="236.063" cy="206.346" r="17.547"/>
<g>
	<circle style="fill:#282942;" cx="236.063" cy="206.346" r="6.637"/>
	<path style="fill:#282942;" d="M232.888,242.895l-9.086,9.086c-2.675,2.675-7.011,2.675-9.686,0l-0.743-0.743
		c-2.675-2.675-2.675-7.011,0-9.686l9.086-9.086c2.675-2.675,7.011-2.675,9.686,0l0.743,0.743
		C235.563,235.883,235.563,240.22,232.888,242.895z"/>
	<path style="fill:#282942;" d="M209.78,274.763c12.673,12.673,33.218,12.673,45.89,0c12.673-12.673,12.673-33.218,0-45.89
		L209.78,274.763z"/>
</g>
<g>
	<path style="fill:#FFFFFF;" d="M241.068,243.475l13.142,13.142c0,0,1.252-10.429-5.841-20.442L241.068,243.475z"/>
	<path style="fill:#FFFFFF;" d="M224.381,260.162l13.142,13.142c0,0-10.429,1.252-20.442-5.841L224.381,260.162z"/>
</g>
<g>
	
		<rect x="154.412" y="234.842" transform="matrix(-0.9234 0.3839 -0.3839 -0.9234 439.3466 399.3991)" style="fill:#393A59;" width="50.806" height="17.405"/>
	
		<rect x="199.031" y="190.203" transform="matrix(0.3839 -0.9234 0.9234 0.3839 -45.3888 329.7853)" style="fill:#393A59;" width="50.806" height="17.405"/>
</g>
<g>
</g>
<g>
</g>
<g>
</g>
<g>
</g>
<g>
</g>
<g>
</g>
<g>
</g>
<g>
</g>
<g>
</g>
<g>
</g>
<g>
</g>
<g>
</g>
<g>
</g>
<g>
</g>
<g>
</g>
</svg>
