<?xml version="1.0" encoding="iso-8859-1"?>
<!-- Generator: Adobe Illustrator 19.0.0, SVG Export Plug-In . SVG Version: 6.00 Build 0)  -->
<svg version="1.1" id="Capa_1" xmlns="http://www.w3.org/2000/svg" xmlns:xlink="http://www.w3.org/1999/xlink" x="0px" y="0px"
	 viewBox="0 0 512 512" style="enable-background:new 0 0 512 512;" xml:space="preserve">
<path style="fill:#E2BD55;" d="M512,256c0,88.942-45.359,167.288-114.207,213.18c-14.252,9.509-29.529,17.617-45.61,24.127
	c-0.084,0.042-0.167,0.073-0.251,0.104c0,0,0,0,0,0.01c-8.767,3.542-17.774,6.614-27,9.195c-9.529,2.664-19.289,4.775-29.236,6.322
	C282.76,510.955,269.5,512,256,512c-52.454,0-101.209-15.767-141.803-42.83C45.349,423.288,0,344.942,0,256
	C0,114.615,114.615,0,256,0c79.402,0,150.361,36.153,197.308,92.891c6.698,8.077,12.894,16.572,18.557,25.443
	C497.277,158.083,512,205.322,512,256z"/>
<path style="fill:#F9D368;" d="M461.684,223.352c0,58.423-24.355,111.155-63.469,148.598
	c-12.954,12.408-27.537,23.129-43.387,31.827c-29.325,16.102-63.016,25.261-98.831,25.261c-35.815,0-69.489-9.151-98.814-25.253
	c-4.727-2.586-9.336-5.356-13.819-8.303c-10.579-6.927-20.477-14.818-29.577-23.532C74.674,334.516,50.31,281.776,50.31,223.352
	c0-113.598,92.089-205.687,205.687-205.687S461.684,109.755,461.684,223.352z"/>
<path style="fill:#393A59;" d="M475.711,333.761c-15.057,5.141-29.832,14.775-44.262,28.829
	c-19.592,19.059-38.515,46.237-56.592,81.366c-7.764,15.078-15.318,31.535-22.674,49.351c-0.084,0.042-0.167,0.073-0.251,0.104
	c0,0,0,0,0,0.01c-8.767,3.542-17.774,6.614-27,9.195c-9.529,2.664-19.289,4.775-29.236,6.322
	c31.441-85.682,67.511-147.352,107.928-184.498c18.108-16.656,37.083-28.39,56.905-35.161c12.278-4.19,25.631,2.372,29.832,14.649
	C494.561,316.217,487.988,329.571,475.711,333.761z"/>
<path style="fill:#6A6577;" d="M397.793,469.18c-9.644,6.426-19.749,12.215-30.25,17.293c-25.673,12.455-53.739,20.741-83.32,23.991
	c-8.255,0.899-16.624,1.421-25.098,1.515C258.079,511.99,257.045,512,256,512c-12.633,0-25.046-0.909-37.188-2.685
	c-37.679-5.475-72.683-19.163-103.163-39.194c-0.481-0.313-0.972-0.627-1.452-0.951c13.552-45.913,35.265-84.229,62.077-109.965
	c23.374-22.423,50.625-35.297,79.726-35.297s56.341,12.873,79.715,35.297c13.573,13.03,25.84,29.289,36.404,48.128
	C382.422,425.691,391.105,446.516,397.793,469.18z"/>
<path style="fill:#393A59;" d="M164.595,469.17c13.552-45.913,35.265-84.229,62.077-109.965
	c16.483-15.814,34.896-26.868,54.525-32.017c-8.205-2.152-16.619-3.28-25.198-3.28c-29.1,0-56.351,12.873-79.726,35.297
	c-26.812,25.736-48.525,64.052-62.077,109.965c14.893,9.929,30.888,18.33,47.758,24.997
	C162.168,485.832,163.011,477.482,164.595,469.17z"/>
<path style="fill:#E87BC2;" d="M383.906,193.661l-12.361-8.882l-38.599-27.721l-47.95-34.45c0,0,4.295-26.843,25.893-55.86
	c17.283-23.239,45.662-47.846,91.826-61.168C402.714,5.58,482.482,95.096,383.906,193.661z"/>
<path style="fill:#D863BB;" d="M371.545,184.78l-38.599-27.721l-47.95-34.45c0,0,4.295-26.843,25.893-55.86
	c11.954-6.76,25.757-12.696,41.671-17.283C352.559,49.465,405.776,109.192,371.545,184.78z"/>
<path style="fill:#393A59;" d="M402.715,5.583c0,0-64.084,47.376-67.563,135.147c-0.261,6.468-1.014,11.87-2.205,16.332
	l-47.95-34.45C284.997,122.611,298.925,35.54,402.715,5.583z"/>
<path style="fill:#E87BC2;" d="M128.086,193.665l50.96-36.603l47.95-34.45c0,0-13.928-87.071-117.718-117.029
	C109.278,5.583,29.51,95.099,128.086,193.665z"/>
<path style="fill:#D863BB;" d="M140.447,184.78l38.599-27.721l47.95-34.45c0,0-4.295-26.843-25.893-55.86
	c-11.954-6.76-25.757-12.696-41.671-17.283C159.433,49.465,106.216,109.192,140.447,184.78z"/>
<path style="fill:#6A6577;" d="M109.278,5.583c0,0,64.084,47.376,67.563,135.147c0.261,6.468,1.014,11.87,2.205,16.332l47.95-34.45
	C226.996,122.611,213.067,35.54,109.278,5.583z"/>
<path style="fill:#393A59;" d="M335.715,359.205l-36.289,26.373c-12.946,9.404-28.191,14.106-43.426,14.106
	c-15.245,0-30.49-4.702-43.436-14.106l-2.017-1.463l-34.273-24.91c23.374-22.424,50.625-35.297,79.726-35.297
	S312.341,336.781,335.715,359.205z"/>
<path style="fill:#6A6577;" d="M380.468,298.489l-81.042,58.88c-12.946,9.404-28.191,14.106-43.426,14.106
	c-15.245,0-30.49-4.702-43.436-14.106l-2.017-1.463l-71.826-52.193l-7.199-5.224c-25.893-18.819-36.728-52.172-26.843-82.61
	l27.732-85.326l3.229-9.947c9.895-30.448,38.264-51.064,70.269-51.064h100.174c32.016,0,60.385,20.616,70.28,51.064l14.315,44.074
	l16.635,51.2C417.207,246.317,406.371,279.67,380.468,298.489z"/>
<g>
	<path style="fill:#393A59;" d="M273.366,249.828c0,45.725-25.37,85.525-62.819,106.078l-71.826-52.193l-7.199-5.224
		c-25.893-18.819-36.728-52.172-26.843-82.61l27.732-85.326c6.51-1.097,13.197-1.661,20.02-1.661
		C219.23,128.891,273.366,183.027,273.366,249.828z"/>
	<path style="fill:#393A59;" d="M390.677,164.679c-13.49,8.861-29.612,14.012-46.947,14.012c-47.323,0-85.682-38.358-85.682-85.682
		c0-8.14,1.139-16.008,3.25-23.468h44.784c32.016,0,60.385,20.616,70.28,51.064L390.677,164.679z"/>
</g>
<circle style="fill:#71D385;" cx="181.656" cy="216.91" r="40.02"/>
<path style="fill:#282942;" d="M181.656,247.292L181.656,247.292c-4.911,0-8.892-3.981-8.892-8.892v-42.238
	c0-4.911,3.981-8.892,8.892-8.892l0,0c4.911,0,8.892,3.981,8.892,8.892V238.4C190.548,243.311,186.567,247.292,181.656,247.292z"/>
<g>
	<circle style="fill:#9DEAAB;" cx="202.407" cy="205.051" r="9.386"/>
	<circle style="fill:#9DEAAB;" cx="160.904" cy="233.211" r="9.386"/>
</g>
<circle style="fill:#71D385;" cx="330.334" cy="216.91" r="40.02"/>
<path style="fill:#282942;" d="M330.339,247.292L330.339,247.292c-4.911,0-8.892-3.981-8.892-8.892v-42.238
	c0-4.911,3.981-8.892,8.892-8.892l0,0c4.911,0,8.892,3.981,8.892,8.892V238.4C339.231,243.311,335.25,247.292,330.339,247.292z"/>
<g>
	<circle style="fill:#9DEAAB;" cx="351.086" cy="205.051" r="9.386"/>
	<circle style="fill:#9DEAAB;" cx="309.593" cy="233.211" r="9.386"/>
</g>
<path style="fill:#282942;" d="M292.6,266.861c0-20.215-16.387-14.815-36.602-14.815s-36.602-5.4-36.602,14.815
	s16.387,36.602,36.602,36.602S292.6,287.075,292.6,266.861z"/>
<path style="fill:#393A59;" d="M367.543,486.473c-25.673,12.455-53.739,20.741-83.32,23.991c-8.255,0.899-16.624,1.421-25.098,1.515
	C258.079,511.99,257.045,512,256,512c-12.633,0-25.046-0.909-37.188-2.685c7.21-36.77,39.623-64.502,78.493-64.502
	C327.596,444.813,353.959,461.646,367.543,486.473z"/>
<g>
</g>
<g>
</g>
<g>
</g>
<g>
</g>
<g>
</g>
<g>
</g>
<g>
</g>
<g>
</g>
<g>
</g>
<g>
</g>
<g>
</g>
<g>
</g>
<g>
</g>
<g>
</g>
<g>
</g>
</svg>
