<?xml version="1.0" encoding="iso-8859-1"?>
<!-- Generator: Adobe Illustrator 19.0.0, SVG Export Plug-In . SVG Version: 6.00 Build 0)  -->
<svg version="1.1" id="Capa_1" xmlns="http://www.w3.org/2000/svg" xmlns:xlink="http://www.w3.org/1999/xlink" x="0px" y="0px"
	 viewBox="0 0 512 512" style="enable-background:new 0 0 512 512;" xml:space="preserve">
<circle style="fill:#393A59;" cx="256" cy="256" r="256"/>
<rect x="120.153" y="83.874" style="fill:#26A6AF;" width="271.684" height="343.144"/>
<path style="fill:#33B5C6;" d="M443.037,170.757V430.79C396.319,480.768,329.812,512,256,512S115.681,480.768,68.963,430.79V170.757
	c0-25.475,20.647-46.132,46.132-46.132h281.809C422.379,124.625,443.037,145.283,443.037,170.757z"/>
<path style="fill:#26A6AF;" d="M150.622,124.625c-25.485,0-46.132,20.658-46.132,46.132v291.61
	c-12.8-9.415-24.691-19.989-35.527-31.577V170.757c0-25.475,20.647-46.132,46.132-46.132H150.622z"/>
<path style="fill:#4FCAE0;" d="M386.882,458.992h-10.988c-5.622,0-10.179-4.558-10.179-10.179V173.466
	c0-5.622,4.558-10.179,10.179-10.179h10.988c5.622,0,10.179,4.558,10.179,10.179v275.347
	C397.061,454.434,392.503,458.992,386.882,458.992z"/>
<path style="fill:#F9D368;" d="M420.331,274.745v177.549c-27.732,23.249-60.468,40.73-96.371,50.584
	C302.32,508.823,279.531,512,256,512s-46.32-3.176-67.96-9.122c-35.903-9.853-68.65-27.345-96.392-50.604V253.377
	c15.308-3.542,33.667-5.893,58.128-5.893c97.886,0,97.886,37.752,195.793,37.752c7.22,0,13.908-0.209,20.146-0.585
	c11.933-0.731,22.194-2.1,31.347-3.897C405.64,279.071,413.247,277.002,420.331,274.745z"/>
<path style="fill:#FFE5A3;" d="M397.061,280.754v168.061c0,5.622-4.556,10.177-10.177,10.177h-10.992
	c-5.622,0-10.177-4.556-10.177-10.177V284.651C377.647,283.92,387.908,282.551,397.061,280.754z"/>
<path style="fill:#8E5EBC;" d="M103.919,0.001h304.154c6.903,0,12.498,5.595,12.498,12.498v72.462
	c0,6.903-5.595,12.498-12.498,12.498H103.919c-6.903,0-12.498-5.595-12.498-12.498V12.499C91.422,5.596,97.018,0.001,103.919,0.001z
	"/>
<path style="fill:#7C49A8;" d="M144.715,84.96V12.499c0-6.903,5.595-12.498,12.498-12.498h-53.294
	c-6.903,0-12.498,5.595-12.498,12.498v72.462c0,6.903,5.595,12.498,12.498,12.498h53.293
	C150.311,97.458,144.715,91.862,144.715,84.96z"/>
<path style="fill:#D9D9D9;" d="M101.647,268.582c0,30.459,11.359,58.274,30.07,79.428c21.975,24.839,54.088,40.496,89.854,40.496
	c60.595,0,110.685-44.927,118.769-103.302c0.766-5.429,1.155-10.982,1.155-16.623c0-66.236-53.688-119.924-119.924-119.924
	c-14.635,0-28.659,2.621-41.629,7.428c-40.464,14.98-70.633,51.146-77.029,95.029C102.079,256.812,101.647,262.652,101.647,268.582z
	"/>
<path style="fill:#EDEDED;" d="M101.647,268.582c0,30.459,11.359,58.274,30.07,79.428c17.977,13.581,40.363,21.62,64.626,21.62
	c52.511,0,96.216-37.687,105.556-87.489c1.21-6.451,1.843-13.103,1.843-19.909c0-59.306-48.081-107.387-107.399-107.387
	c-5.575,0-11.049,0.422-16.401,1.243c-40.464,14.98-70.633,51.146-77.029,95.029C102.079,256.812,101.647,262.652,101.647,268.582z"
	/>
<path style="fill:#BFBFBF;" d="M101.647,268.582c0,30.459,11.359,58.274,30.07,79.428c21.975,24.839,54.088,40.496,89.854,40.496
	c60.595,0,110.685-44.927,118.769-103.302c-92.708-1.322-94.451-37.721-190.568-37.721c-18.755,0-33.912,1.388-46.859,3.631
	C102.079,256.812,101.647,262.652,101.647,268.582z"/>
<circle style="fill:#F0F0F0;" cx="252.667" cy="220.829" r="26.65"/>
<path style="fill:#71D385;" d="M126.598,253.036c0,38.343,31.091,69.433,69.433,69.433c31.747,0,58.518-21.32,66.791-50.424
	c0.089-0.266,0.156-0.544,0.233-0.811c1.565-5.797,2.41-11.903,2.41-18.2c0-2.898-0.178-5.752-0.533-8.55
	c-1.133-9.316-4.12-18.055-8.584-25.851c-4.519-7.917-10.571-14.869-17.744-20.431c-11.748-9.161-26.528-14.602-42.573-14.602
	c-36.732,0-66.813,28.537-69.267,64.659C126.653,249.838,126.598,251.426,126.598,253.036z"/>
<path style="fill:#9CE2AE;" d="M226.012,220.834c0,14.713,11.937,26.65,26.65,26.65c4.42,0,8.594-1.077,12.27-2.998
	c-1.133-9.316-4.12-18.055-8.584-25.851c-4.519-7.917-10.571-14.869-17.744-20.431C231.043,202.901,226.012,211.285,226.012,220.834
	z"/>
<path style="fill:#50BC69;" d="M126.598,253.036c0,38.343,31.091,69.433,69.433,69.433c31.747,0,58.518-21.32,66.791-50.424
	c-30.68-10.893-54.143-24.562-113.051-24.562c-8.339,0-15.979,0.278-23.008,0.777C126.653,249.838,126.598,251.426,126.598,253.036z
	"/>
<circle style="fill:#9CE2AE;" cx="165.773" cy="220.233" r="17.552"/>
<path style="fill:#393A59;" d="M151.615,247.484v0.012c0.011,18.4,14.913,33.301,33.312,33.301
	c15.535,0,28.582-10.638,32.269-25.028c0.677-2.643,1.044-5.419,1.044-8.284c0-18.4-14.913-33.312-33.312-33.312
	c-0.888,0-1.776,0.033-2.643,0.111c-12.37,0.965-22.83,8.683-27.704,19.477C152.67,237.945,151.615,242.587,151.615,247.484z"/>
<path style="fill:#2D2C47;" d="M151.615,247.496c0.011,18.4,14.913,33.301,33.312,33.301c15.535,0,28.582-10.638,32.269-25.028
	C200.428,251.048,180.264,247.628,151.615,247.496z"/>
<path style="fill:#6A6577;" d="M154.58,233.759c3.043,2.52,6.94,4.03,11.193,4.03c9.694,0,17.555-7.862,17.555-17.555
	c0-2.088-0.367-4.097-1.044-5.952C169.914,215.249,159.455,222.967,154.58,233.759z"/>
<path style="fill:#A67BD1;" d="M390.171,74.47h-9.209c-4.382,0-7.935-3.553-7.935-7.935V28.07c0-4.382,3.553-7.935,7.935-7.935
	h9.209c4.382,0,7.935,3.553,7.935,7.935v38.466C398.106,70.917,394.553,74.47,390.171,74.47z"/>
<g>
</g>
<g>
</g>
<g>
</g>
<g>
</g>
<g>
</g>
<g>
</g>
<g>
</g>
<g>
</g>
<g>
</g>
<g>
</g>
<g>
</g>
<g>
</g>
<g>
</g>
<g>
</g>
<g>
</g>
</svg>
