<?xml version="1.0" encoding="iso-8859-1"?>
<!-- Generator: Adobe Illustrator 19.0.0, SVG Export Plug-In . SVG Version: 6.00 Build 0)  -->
<svg version="1.1" id="Capa_1" xmlns="http://www.w3.org/2000/svg" xmlns:xlink="http://www.w3.org/1999/xlink" x="0px" y="0px"
	 viewBox="0 0 512 512" style="enable-background:new 0 0 512 512;" xml:space="preserve">
<circle style="fill:#393A59;" cx="256" cy="256.025" r="255.973"/>
<path style="fill:#26A6AF;" d="M261.653,142.223c0,26.867,21.779,48.645,48.645,48.645c5.367,0,10.535-0.869,15.367-2.48
	c19.338-6.436,33.278-24.674,33.278-46.165c0-22.13-14.776-40.806-35-46.707c-4.331-1.26-8.908-1.938-13.644-1.938
	C283.432,93.578,261.653,115.357,261.653,142.223z"/>
<path style="fill:#33B5C6;" d="M290.665,141.68c0,22.121,14.776,40.806,35,46.707c19.338-6.436,33.278-24.674,33.278-46.165
	c0-22.13-14.776-40.806-35-46.707C304.605,101.951,290.665,120.189,290.665,141.68z"/>
<path style="fill:#D863BB;" d="M173.933,142.223c0,26.867,21.779,48.645,48.645,48.645c5.367,0,10.535-0.869,15.367-2.48
	c19.338-6.436,33.278-24.674,33.278-46.165c0-22.13-14.776-40.806-35-46.707c-4.331-1.26-8.908-1.938-13.644-1.938
	C195.712,93.578,173.933,115.357,173.933,142.223z"/>
<path style="fill:#E87BC2;" d="M202.945,141.68c0,22.121,14.776,40.806,35,46.707c19.338-6.436,33.278-24.674,33.278-46.165
	c0-22.13-14.776-40.806-35-46.707C216.884,101.951,202.945,120.189,202.945,141.68z"/>
<path style="fill:#D863BB;" d="M306.312,196.171c0,26.867,21.779,48.645,48.645,48.645c5.367,0,10.535-0.869,15.367-2.48
	c19.338-6.436,33.278-24.674,33.278-46.165c0-22.13-14.776-40.806-35-46.707c-4.331-1.26-8.908-1.938-13.644-1.938
	C328.09,147.527,306.312,169.306,306.312,196.171z"/>
<path style="fill:#E87BC2;" d="M335.322,195.629c0,22.121,14.776,40.806,35,46.707c19.338-6.436,33.278-24.674,33.278-46.165
	c0-22.13-14.776-40.806-35-46.707C349.262,155.9,335.322,174.138,335.322,195.629z"/>
<path style="fill:#E0554A;" d="M216.996,196.171c0,26.867,21.779,48.645,48.645,48.645c5.367,0,10.535-0.869,15.367-2.48
	c19.338-6.436,33.278-24.674,33.278-46.165c0-22.13-14.776-40.806-35-46.707c-4.331-1.26-8.908-1.938-13.644-1.938
	C238.775,147.527,216.996,169.306,216.996,196.171z"/>
<path style="fill:#EF7064;" d="M246.008,195.629c0,22.121,14.776,40.806,35,46.707c19.338-6.436,33.278-24.674,33.278-46.165
	c0-22.13-14.776-40.806-35-46.707C259.947,155.9,246.008,174.138,246.008,195.629z"/>
<path style="fill:#E2BD55;" d="M129.276,196.171c0,26.867,21.779,48.645,48.645,48.645c5.367,0,10.535-0.869,15.367-2.48
	c19.338-6.436,33.278-24.674,33.278-46.165c0-22.13-14.776-40.806-35-46.707c-4.331-1.26-8.908-1.938-13.644-1.938
	C151.054,147.527,129.276,169.306,129.276,196.171z"/>
<path style="fill:#F9D368;" d="M158.287,195.629c0,22.121,14.776,40.806,35,46.707c19.338-6.436,33.277-24.674,33.277-46.165
	c0-22.13-14.776-40.806-35-46.707C172.227,155.9,158.287,174.138,158.287,195.629z"/>
<path style="fill:#EDEDED;" d="M435.386,282.241V434.78c0,1.337-0.052,2.675-0.167,4.002C389.039,484.073,325.788,512,255.996,512
	c-69.802,0-133.054-27.927-179.233-73.229c-0.115-1.327-0.167-2.654-0.167-3.991V282.241c0-18.691,2.852-36.703,8.149-53.639
	c3.437-10.991,7.909-21.533,13.3-31.5h315.881c5.402,9.967,9.873,20.509,13.311,31.5
	C432.533,245.537,435.386,263.55,435.386,282.241z"/>
<g>
	<path style="fill:#D9D9D9;" d="M151.329,197.101c-5.391,9.967-9.863,20.509-13.3,31.5c-5.297,16.936-8.149,34.948-8.149,53.639
		v196.587c-19.433-11.033-37.278-24.521-53.117-40.057c-0.115-1.327-0.167-2.654-0.167-3.991V282.241
		c0-18.691,2.852-36.703,8.149-53.639c3.437-10.991,7.909-21.533,13.3-31.5L151.329,197.101L151.329,197.101z"/>
	<path style="fill:#D9D9D9;" d="M177.848,461.613c-27.086,0-49.123-22.036-49.123-49.122v-61.284
		c0-27.086,22.037-49.122,49.123-49.122s49.122,22.036,49.122,49.122v61.284C226.97,439.577,204.934,461.613,177.848,461.613z"/>
</g>
<path style="fill:#393A59;" d="M148.908,351.207v61.283c0,15.983,12.956,28.94,28.94,28.94l0,0c15.983,0,28.94-12.956,28.94-28.94
	v-61.283c0-15.983-12.956-28.94-28.94-28.94l0,0C161.865,322.268,148.908,335.224,148.908,351.207z"/>
<path style="fill:#D9D9D9;" d="M334.138,461.613c-27.086,0-49.122-22.036-49.122-49.122v-61.284
	c0-27.086,22.036-49.122,49.122-49.122s49.122,22.036,49.122,49.122v61.284C383.259,439.577,361.224,461.613,334.138,461.613z"/>
<g>
	<path style="fill:#393A59;" d="M305.198,351.207v61.283c0,15.983,12.956,28.94,28.94,28.94l0,0c15.983,0,28.94-12.956,28.94-28.94
		v-61.283c0-15.983-12.956-28.94-28.94-28.94l0,0C318.154,322.268,305.198,335.224,305.198,351.207z"/>
	<path style="fill:#393A59;" d="M250.144,433.029l-27.753,48.069c-2.599,4.502,0.65,10.13,5.849,10.13h55.505
		c5.199,0,8.448-5.628,5.849-10.13l-27.753-48.069C259.242,428.526,252.743,428.526,250.144,433.029z"/>
</g>
<path style="fill:#CCCCCC;" d="M119.881,300.527c0,38.875-19.018,70.796-43.286,74.212v-92.5c0-18.692,2.856-36.702,8.15-53.64
	C104.992,237.168,119.881,266.122,119.881,300.527z"/>
<path style="fill:#D9D9D9;" d="M435.39,282.238v92.5c-24.266-3.415-43.286-35.336-43.286-74.212
	c0-34.405,14.889-63.359,35.134-71.929C432.532,245.535,435.39,263.545,435.39,282.238z"/>
<path style="fill:#EDEDED;" d="M359.983,20.553L163.198,153.189l-65.153,43.912c-6.237-63.492,21.69-128.289,78.296-166.445
	C232.958-7.5,303.481-9.067,359.983,20.553z"/>
<path style="fill:#D9D9D9;" d="M163.198,153.189l-65.153,43.912c-6.237-63.492,21.69-128.289,78.296-166.445
	C176.341,30.656,109.402,110.206,163.198,153.189z"/>
<g>
</g>
<g>
</g>
<g>
</g>
<g>
</g>
<g>
</g>
<g>
</g>
<g>
</g>
<g>
</g>
<g>
</g>
<g>
</g>
<g>
</g>
<g>
</g>
<g>
</g>
<g>
</g>
<g>
</g>
</svg>
