<?xml version="1.0" encoding="iso-8859-1"?>
<!-- Generator: Adobe Illustrator 19.0.0, SVG Export Plug-In . SVG Version: 6.00 Build 0)  -->
<svg version="1.1" id="Capa_1" xmlns="http://www.w3.org/2000/svg" xmlns:xlink="http://www.w3.org/1999/xlink" x="0px" y="0px"
	 viewBox="0 0 512 512" style="enable-background:new 0 0 512 512;" xml:space="preserve">
<circle style="fill:#F9D368;" cx="256" cy="256" r="256"/>
<g>
	<path style="fill:#282942;" d="M512,256c0,65.306-24.451,124.897-64.711,170.12c-6.395,7.199-13.208,14.033-20.376,20.47
		C381.586,487.267,321.693,512,256,512c-66.121,0-126.38-25.067-171.802-66.215c-6.531-5.914-12.748-12.163-18.641-18.714
		C24.795,381.743,0,321.755,0,256c0-30.323,5.266-59.413,14.952-86.403h482.095C506.734,196.587,512,225.677,512,256z"/>
	<path style="fill:#282942;" d="M107.214,108.142h11.619c1.889,0,3.42-1.532,3.42-3.42V92.231c0-1.889,1.532-3.42,3.42-3.42h9.877
		c1.889,0,3.42,1.532,3.42,3.42v12.49c0,1.889,1.532,3.42,3.42,3.42h11.619c1.889,0,3.42,1.532,3.42,3.42v9.877
		c0,1.889-1.532,3.42-3.42,3.42H142.39c-1.889,0-3.42,1.532-3.42,3.42v52.196c0,1.889-1.532,3.42-3.42,3.42h-9.877
		c-1.889,0-3.42-1.532-3.42-3.42v-52.196c0-1.889-1.532-3.42-3.42-3.42h-11.619c-1.889,0-3.42-1.532-3.42-3.42v-9.877
		C103.793,109.672,105.325,108.142,107.214,108.142z"/>
	<path style="fill:#282942;" d="M453.954,108.142h-11.619c-1.889,0-3.42-1.532-3.42-3.42V92.231c0-1.889-1.532-3.42-3.42-3.42
		h-9.877c-1.889,0-3.42,1.532-3.42,3.42v12.49c0,1.889-1.532,3.42-3.42,3.42h-11.619c-1.889,0-3.42,1.532-3.42,3.42v9.877
		c0,1.889,1.532,3.42,3.42,3.42h11.619c1.889,0,3.42,1.532,3.42,3.42v52.196c0,1.889,1.532,3.42,3.42,3.42h9.877
		c1.889,0,3.42-1.532,3.42-3.42v-52.196c0-1.889,1.532-3.42,3.42-3.42h11.619c1.889,0,3.42-1.532,3.42-3.42v-9.877
		C457.375,109.672,455.843,108.142,453.954,108.142z"/>
	<path style="fill:#282942;" d="M52.37,129.09H63.99c1.889,0,3.42-1.532,3.42-3.42v-12.49c0-1.889,1.532-3.42,3.42-3.42h9.877
		c1.889,0,3.42,1.532,3.42,3.42v12.49c0,1.889,1.532,3.42,3.42,3.42h11.619c1.889,0,3.42,1.532,3.42,3.42v9.877
		c0,1.889-1.532,3.42-3.42,3.42H87.547c-1.889,0-3.42,1.532-3.42,3.42v52.196c0,1.889-1.532,3.42-3.42,3.42h-9.877
		c-1.889,0-3.42-1.532-3.42-3.42v-52.196c0-1.889-1.532-3.42-3.42-3.42H52.37c-1.889,0-3.42-1.532-3.42-3.42v-9.877
		C48.95,130.622,50.481,129.09,52.37,129.09z"/>
	<path style="fill:#282942;" d="M492.147,157.006v47.156c0,1.891-1.536,3.417-3.417,3.417h-9.885c-1.881,0-3.417-1.526-3.417-3.417
		V151.96c0-1.881-1.536-3.417-3.417-3.417h-11.619c-1.891,0-3.427-1.526-3.427-3.417v-9.885c0-1.881,1.536-3.417,3.427-3.417h11.619
		c1.881,0,3.417-1.526,3.417-3.417v-4.336C481.761,134.583,487.361,145.586,492.147,157.006z"/>
</g>
<path style="fill:#6A6577;" d="M339.746,0.001H173.082c-0.91,0-1.8,0.029-2.691,0.097c-5.196,0.358-10.103,1.771-14.516,4.026
	c-12.299,6.27-20.718,19.054-20.718,33.811V347.5h242.522V37.934C377.679,16.984,360.697,0.001,339.746,0.001z"/>
<path style="fill:#393A59;" d="M148.742,333.915V37.934c0-9.207,5.098-17.525,13.304-21.709c2.91-1.487,6.029-2.352,9.28-2.576
	c0.605-0.045,1.149-0.065,1.756-0.065h166.665c13.427,0,24.349,10.923,24.349,24.349v295.981L148.742,333.915L148.742,333.915z"/>
<path style="fill:#6A6577;" d="M248.324,278.352c-11.507,0-20.869-9.361-20.869-20.868V143.362H189.43
	c-11.507,0-20.869-9.361-20.869-20.869v-16.189c0-11.506,9.361-20.869,20.869-20.869h38.027v-33.8
	c0-11.506,9.361-20.869,20.869-20.869h16.189c11.507,0,20.869,9.361,20.869,20.869v33.8h38.027c11.507,0,20.869,9.361,20.869,20.869
	v16.189c0,11.506-9.361,20.869-20.869,20.869h-38.027v114.123c0,11.506-9.361,20.868-20.869,20.868H248.324z"/>
<path style="fill:#282942;" d="M330.692,106.305v16.189c0,4.023-3.261,7.285-7.285,7.285h-44.326c-4.023,0-7.285,3.261-7.285,7.285
	v120.422c0,4.023-3.261,7.285-7.285,7.285h-16.189c-4.023,0-7.285-3.261-7.285-7.285V137.062c0-4.023-3.261-7.285-7.285-7.285
	H189.43c-4.023,0-7.285-3.261-7.285-7.285v-16.189c0-4.023,3.261-7.285,7.285-7.285h44.326c4.023,0,7.285-3.261,7.285-7.285V51.637
	c0-4.023,3.261-7.285,7.285-7.285h16.189c4.023,0,7.285,3.261,7.285,7.285v40.099c0,4.023,3.261,7.285,7.285,7.285h44.326
	C327.431,99.021,330.692,102.282,330.692,106.305z"/>
<path style="fill:#6A6577;" d="M416.077,347.961v60.498H96.761v-60.498c0-10.223,8.288-18.511,18.511-18.511h10.335h271.959
	C407.789,329.45,416.077,337.738,416.077,347.961z"/>
<g>
	<path style="fill:#50BC69;" d="M155.601,349.838c-1.299,0.5-24.167,9.703-37.838,38.887c-2.354-24.839-7.23-39.435-7.5-40.23
		c-1.023-3.001-4.28-4.606-7.286-3.585c-3.003,1.02-4.612,4.282-3.595,7.286c0.059,0.172,4.21,12.686,6.561,34.088
		c-13.765-27.26-35.39-35.959-36.652-36.446c-2.958-1.142-6.288,0.33-7.43,3.291c-1.143,2.961,0.33,6.288,3.291,7.43
		c0.364,0.14,36.351,14.633,40.223,68.196c0.218,3.025,2.74,5.333,5.725,5.333c0.139,0,0.28-0.005,0.42-0.016
		c0.318-0.023,0.625-0.077,0.925-0.149c0.3,0.072,0.607,0.126,0.925,0.149c0.141,0.01,0.281,0.016,0.42,0.016
		c2.985,0,5.508-2.308,5.725-5.333c3.841-53.132,38.689-67.587,40.242-68.203c2.949-1.149,4.415-4.469,3.274-7.423
		C161.889,350.169,158.565,348.694,155.601,349.838z"/>
	<path style="fill:#50BC69;" d="M407.33,362.199c-1.519-2.787-5.012-3.814-7.797-2.294c-5.944,3.243-10.451,9.023-13.454,17.238
		c-9.827-18.973-25.407-23.12-26.285-23.341c-3.087-0.77-6.2,1.102-6.969,4.182s1.102,6.199,4.182,6.969
		c0.212,0.053,21.244,5.684,24.939,38.944l11.457-0.768c-0.159-6.862,1.635-27.679,11.636-33.134
		C407.825,368.477,408.851,364.986,407.33,362.199z"/>
</g>
<path style="fill:#393A59;" d="M447.289,412.15v13.97c-6.395,7.199-13.208,14.033-20.376,20.47C381.586,487.267,321.693,512,256,512
	c-66.121,0-126.38-25.067-171.802-66.215c-6.531-5.914-12.748-12.163-18.641-18.714V412.15c0-9.592,7.784-17.377,17.377-17.377
	h346.969C439.505,394.773,447.289,402.557,447.289,412.15z"/>
<g>
</g>
<g>
</g>
<g>
</g>
<g>
</g>
<g>
</g>
<g>
</g>
<g>
</g>
<g>
</g>
<g>
</g>
<g>
</g>
<g>
</g>
<g>
</g>
<g>
</g>
<g>
</g>
<g>
</g>
</svg>
