<?xml version="1.0" encoding="iso-8859-1"?>
<!-- Generator: Adobe Illustrator 19.0.0, SVG Export Plug-In . SVG Version: 6.00 Build 0)  -->
<svg version="1.1" id="Capa_1" xmlns="http://www.w3.org/2000/svg" xmlns:xlink="http://www.w3.org/1999/xlink" x="0px" y="0px"
	 viewBox="0 0 512 512" style="enable-background:new 0 0 512 512;" xml:space="preserve">
<circle style="fill:#6A6577;" cx="256" cy="256" r="256"/>
<g>
	<path style="fill:#282942;" d="M512,256c0,75.703-32.852,143.726-85.086,190.589C381.586,487.267,321.693,512,256,512
		c-66.121,0-126.38-25.067-171.802-66.215C32.486,398.952,0,331.264,0,256c0-30.323,5.266-59.413,14.952-86.403h482.095
		C506.734,196.587,512,225.677,512,256z"/>
	<path style="fill:#282942;" d="M114.842,108.142h-11.619c-1.889,0-3.42-1.532-3.42-3.42V92.231c0-1.889-1.532-3.42-3.42-3.42
		h-9.877c-1.889,0-3.42,1.532-3.42,3.42v12.49c0,1.889-1.532,3.42-3.42,3.42H68.044c-1.889,0-3.42,1.532-3.42,3.42v9.877
		c0,1.889,1.532,3.42,3.42,3.42h11.619c1.889,0,3.42,1.532,3.42,3.42v52.196c0,1.889,1.532,3.42,3.42,3.42h9.877
		c1.889,0,3.42-1.532,3.42-3.42v-52.196c0-1.889,1.532-3.42,3.42-3.42h11.619c1.889,0,3.42-1.532,3.42-3.42v-9.877
		C118.262,109.672,116.73,108.142,114.842,108.142z"/>
	<path style="fill:#282942;" d="M453.954,108.142h-11.619c-1.889,0-3.42-1.532-3.42-3.42V92.231c0-1.889-1.532-3.42-3.42-3.42
		h-9.877c-1.889,0-3.42,1.532-3.42,3.42v12.49c0,1.889-1.532,3.42-3.42,3.42h-11.619c-1.889,0-3.42,1.532-3.42,3.42v9.877
		c0,1.889,1.532,3.42,3.42,3.42h11.619c1.889,0,3.42,1.532,3.42,3.42v52.196c0,1.889,1.532,3.42,3.42,3.42h9.877
		c1.889,0,3.42-1.532,3.42-3.42v-52.196c0-1.889,1.532-3.42,3.42-3.42h11.619c1.889,0,3.42-1.532,3.42-3.42v-9.877
		C457.375,109.672,455.843,108.142,453.954,108.142z"/>
	<path style="fill:#282942;" d="M180.133,129.09h-11.619c-1.889,0-3.42-1.532-3.42-3.42v-12.49c0-1.889-1.532-3.42-3.42-3.42h-9.877
		c-1.889,0-3.42,1.532-3.42,3.42v12.49c0,1.889-1.532,3.42-3.42,3.42h-11.619c-1.889,0-3.42,1.532-3.42,3.42v9.877
		c0,1.889,1.532,3.42,3.42,3.42h11.619c1.889,0,3.42,1.532,3.42,3.42v52.196c0,1.889,1.532,3.42,3.42,3.42h9.877
		c1.889,0,3.42-1.532,3.42-3.42v-52.196c0-1.889,1.532-3.42,3.42-3.42h11.619c1.889,0,3.42-1.532,3.42-3.42v-9.877
		C183.554,130.622,182.022,129.09,180.133,129.09z"/>
	<path style="fill:#282942;" d="M492.147,157.006v47.156c0,1.891-1.536,3.417-3.417,3.417h-9.885c-1.881,0-3.417-1.526-3.417-3.417
		V151.96c0-1.881-1.536-3.417-3.417-3.417h-11.619c-1.891,0-3.427-1.526-3.427-3.417v-9.885c0-1.881,1.536-3.417,3.427-3.417h11.619
		c1.881,0,3.417-1.526,3.417-3.417v-4.336C481.761,134.583,487.361,145.586,492.147,157.006z"/>
</g>
<path style="fill:#71D385;" d="M403.299,166.003c0,3.824-1.087,7.68-3.333,11.065l-43.238,65.358
	c-11.63,17.586-20.888,36.54-27.596,56.372c-0.01,0.021-0.021,0.063-0.042,0.104c-1.567,4.681-3.009,9.404-4.305,14.179
	c-0.125,0.47-0.261,3.291-0.397,7.931c-0.909,30.062-2.017,136.547-2.696,177.027v0.01c-6.259,2.393-11.4-3.427-14.482,2.456
	c-5.611-9.791-16.133-5.925-28.212-5.925c-12.372,0-23.124,1.672-28.62,11.839c-4.336-4.932-10.679-2.832-17.763-2.832
	c-8.819,0-16.499-5.611-20.553,1.536c-3.563-9.394-11.348-6.259-21.034-9.174l-1.944-188.385
	c-1.223-10.125-6.75-19.247-15.224-24.921c-6.134-4.096-11.212-9.728-14.764-16.374c-10.71-20.052-26.53-37.24-46.195-49.654
	l-2.863-1.808c-11.557-7.293-14.764-22.716-7.053-34.011l0.366-0.543c7.962-11.692,24.043-14.127,35.025-5.413
	c10.125,8.035,22.361,17.753,32.653,25.893c0.909,0.721,1.86,1.275,2.842,1.682c5.705,2.351,12.204-0.491,14.681-5.831
	c0.282-0.606,0.512-1.233,0.679-1.891c0.334-1.306,0.449-2.717,0.282-4.211L176.515,74.804c-1.317-11.672,6.52-22.424,18.045-24.733
	c1.494-0.293,2.999-0.439,4.451-0.439c10.94,0,20.626,7.962,22.361,19.195l12.518,81.429c0.251,1.599,1.755,2.163,2.947,1.766
	c0.784-0.251,1.432-0.92,1.494-1.985l5.224-93.372c0.742-13.218,11.933-23.395,25.161-22.862c13.072,0.533,23.28,11.295,23.28,24.2
	c0,0.439-0.021,0.888-0.042,1.348l-4.765,86.465c-0.115,2.038,1.066,3.438,2.56,4.002v0.01c1.964,0.752,4.483,0.073,5.35-2.466
	l19.519-57.01c4.18-12.215,17.878-18.307,29.738-13.218c8.359,3.584,13.458,11.745,13.458,20.396c0,2.309-0.355,4.639-1.108,6.928
	l-24.545,74.877c-0.763,2.309,0.105,4.336,1.63,5.538c1.954,1.557,4.984,1.735,7.032-0.616l27.251-31.41
	c7.346-8.464,20.208-9.279,28.557-1.787C401.021,154.99,403.299,160.465,403.299,166.003z"/>
<g>
	<path style="fill:#50BC69;" d="M219.243,484.07c0,0-3.166,12.56-7.178,19.623c-3.563-9.394-11.348-16.708-21.034-19.623
		l-1.944-176.499c-1.223-10.125-6.75-19.247-15.224-24.921c-6.134-4.096-11.212-9.728-14.764-16.374
		c-10.71-20.052-26.53-37.24-46.195-49.654l-2.863-1.808c-11.557-7.293-14.764-22.716-7.053-34.011l0.366-0.543
		c7.753-11.379,23.197-13.991,34.137-6.081c-2.247,1.609-4.263,3.647-5.925,6.081l-0.366,0.543
		c-7.711,11.295-4.504,26.718,7.053,34.011l2.863,1.808c19.665,12.413,35.485,29.602,46.195,49.654
		c3.553,6.646,8.631,12.278,14.764,16.374c8.474,5.674,14.002,14.796,15.224,24.921L219.243,484.07z"/>
	<path style="fill:#50BC69;" d="M265.302,247.965c-17.81-38.556-68.577-33.48-91.429-45.542c6.343,2.612,13.678-1.191,15.36-7.722
		c11.003,2.079,26.248,6.134,45.871,13.949c21.533,8.578,30.839,23.916,34.664,37.714
		C270.554,249.197,266.535,250.633,265.302,247.965z"/>
</g>
<path style="fill:#6A6577;" d="M426.914,446.589C381.586,487.267,321.693,512,256,512c-66.121,0-126.38-25.067-171.802-66.215
	c10.48-10.93,25.234-17.732,41.587-17.732c5.778,0,11.358,0.857,16.614,2.435c17.178,5.162,30.971,18.129,37.292,34.785
	c7.189-12.675,20.804-21.243,36.436-21.243c12.56,0,23.803,5.538,31.483,14.273c9.749-18.025,28.808-30.25,50.74-30.25
	c21.41,0,40.061,11.672,50.009,29.027c5.465-10.428,14.576-18.631,25.673-22.873c5.35-2.058,11.18-3.187,17.283-3.187
	C405.379,431.02,418.053,437.018,426.914,446.589z"/>
<g>
	<path style="fill:#50BC69;" d="M188.426,81.439c4.88,25.767,9.759,119.118,9.759,119.118l-9.634-3.971
		c0.282-0.606,0.512-1.233,0.679-1.891c0.334-1.306,0.449-2.717,0.282-4.211L176.515,74.804
		c-1.317-11.672,6.52-22.424,18.045-24.733c1.494-0.293,2.999-0.439,4.451-0.439C199.011,49.633,183.557,55.662,188.426,81.439z"/>
	<path style="fill:#50BC69;" d="M268.716,33.802c0,0-12.716,7.231-12.716,28.829c0,16.635-2.482,63.471-3.621,84.088
		c-0.308,5.587-4.929,9.953-10.524,9.953l0,0c-2.631,0-4.818-2.026-5.019-4.65l0,0c0.784-0.251,1.432-0.92,1.494-1.985l5.224-93.372
		C244.297,43.447,255.488,33.27,268.716,33.802z"/>
	<path style="fill:#50BC69;" d="M344.357,77.134c0,0-15.914-0.575-22.183,17.533c-4.401,12.718-14.29,37.444-19.795,51.052
		c-2.021,4.996-8.054,6.956-12.629,4.109l0,0c1.964,0.752,4.483,0.073,5.35-2.466l19.519-57.01
		C318.798,78.137,332.497,72.046,344.357,77.134z"/>
	<path style="fill:#50BC69;" d="M396.633,151.061c-6.959-2.424-15.37,2.435-18.244,5.308c-1.969,1.969-18.47,18.464-28.666,28.657
		c-4.418,4.417-11.597,4.347-15.931-0.153l0,0c1.954,1.557,4.984,1.735,7.032-0.616l27.251-31.41
		C375.421,144.384,388.284,143.569,396.633,151.061z"/>
	<path style="fill:#50BC69;" d="M329.091,298.904c-1.567,4.681-3.009,9.404-4.305,14.179c-0.125,0.47-0.261,3.291-0.397,7.931
		c-7.862,1.654-14.467,1.189-19.349,0.18c-3.097-0.641-3.364-4.925-0.382-5.977C323.622,308.528,328.496,300.065,329.091,298.904z"
		/>
</g>
<g>
</g>
<g>
</g>
<g>
</g>
<g>
</g>
<g>
</g>
<g>
</g>
<g>
</g>
<g>
</g>
<g>
</g>
<g>
</g>
<g>
</g>
<g>
</g>
<g>
</g>
<g>
</g>
<g>
</g>
</svg>
