<?xml version="1.0" encoding="iso-8859-1"?>
<!-- Generator: Adobe Illustrator 19.0.0, SVG Export Plug-In . SVG Version: 6.00 Build 0)  -->
<svg version="1.1" id="Capa_1" xmlns="http://www.w3.org/2000/svg" xmlns:xlink="http://www.w3.org/1999/xlink" x="0px" y="0px"
	 viewBox="0 0 512 512" style="enable-background:new 0 0 512 512;" xml:space="preserve">
<circle style="fill:#E0554A;" cx="256" cy="256" r="256"/>
<path style="fill:#EF7064;" d="M439.906,183.918c0,52.24-21.777,99.39-56.752,132.87c-11.583,11.095-24.622,20.682-38.795,28.458
	c-26.221,14.398-56.346,22.588-88.37,22.588s-62.134-8.183-88.354-22.58c-4.227-2.312-8.348-4.79-12.356-7.424
	c-9.458-6.193-18.309-13.249-26.446-21.041c-34.974-33.472-56.759-80.631-56.759-132.87c0-101.575,82.342-183.917,183.917-183.917
	S439.906,82.343,439.906,183.918z"/>
<path style="fill:#282942;" d="M82.892,359.048c-8.485-14.649-23.656-23.542-40.594-23.761c-9.874-0.146-19.216,2.675-27.052,7.92
	c2.309,6.395,4.88,12.675,7.69,18.819c5.068-4.566,11.661-7.147,18.725-7.147h0.387c9.958,0.136,18.892,5.36,23.886,13.991
	L90.3,410.958H52.214c5.183,6.813,10.71,13.354,16.541,19.602h55.547L82.892,359.048z"/>
<path style="fill:#EDEDED;" d="M312.835,180.005v236.181H199.172V180.005c3.423,2.211,7.461,3.474,11.759,3.474h90.143
	C305.387,183.479,309.412,182.216,312.835,180.005z"/>
<path style="fill:#CCCCCC;" d="M312.835,191.421c-3.423,2.104-7.448,3.306-11.759,3.306h-76.642h-13.501
	c-4.299,0-8.336-1.202-11.759-3.306l0,0l0,0v224.765h25.26V216.508h88.402V191.421z"/>
<g>
	<path style="fill:#393A59;" d="M255.998,156.835c-3.969,0-7.187-3.217-7.187-7.187v-29.399c0-3.969,3.218-7.187,7.187-7.187
		c3.969,0,7.187,3.217,7.187,7.187v29.399C263.185,153.618,259.966,156.835,255.998,156.835z"/>
	<path style="fill:#393A59;" d="M420.749,436.882l-4.096,18.442C372.726,490.778,316.844,512,256,512
		c-58.671,0-112.724-19.728-155.888-52.924l-4.932-22.194c-2.957-13.302,7.168-25.924,20.793-25.924h283.982
		C413.581,410.958,423.706,423.581,420.749,436.882z"/>
</g>
<path style="fill:#282942;" d="M151.865,489.942c-18.516-8.265-35.871-18.651-51.754-30.866l-4.932-22.194
	c-2.957-13.302,7.168-25.924,20.793-25.924h27.449L151.865,489.942z"/>
<path style="fill:#EDEDED;" d="M316.749,149.648c12.452,0,22.539,10.087,22.539,22.539c0,6.219-2.521,11.864-6.599,15.941
	c-1.254,1.254-2.666,2.365-4.182,3.292c-3.423,2.103-7.448,3.306-11.759,3.306h-121.49c-4.299,0-8.336-1.202-11.759-3.306
	c-6.468-3.959-10.779-11.094-10.779-19.233c0-6.219,2.521-11.864,6.599-15.941c4.076-4.076,9.722-6.599,15.941-6.599h45.065H316.749
	z"/>
<path style="fill:#F9D368;" d="M284.176,54.552c2.38,4.603,3.528,9.593,3.528,14.541c0,8.217-3.184,16.319-9.278,22.414
	c-6.195,6.195-14.312,9.292-22.414,9.292c-8.117,0-16.234-3.097-22.428-9.292c-9.751-9.751-12.075-24.694-5.75-36.955l28.164-54.55
	L284.176,54.552z"/>
<path style="fill:#E2BD55;" d="M260.352,91.506c-9.751-9.751-12.075-24.693-5.75-36.955l14.783-28.633L255.997,0.001l-28.164,54.55
	c-6.324,12.261-4.001,27.204,5.75,36.955c6.195,6.195,14.312,9.292,22.429,9.292c4.575,0,9.142-1.024,13.378-2.999
	C266.122,96.277,263.049,94.204,260.352,91.506z"/>
<path style="fill:#CCCCCC;" d="M218.887,172.188c0-6.219,2.521-11.864,6.599-15.941c4.077-4.076,9.721-6.599,15.941-6.599h-1.102
	h-45.065c-6.219,0-11.864,2.522-15.941,6.599c-4.076,4.077-6.599,9.722-6.599,15.941c0,8.14,4.312,15.274,10.779,19.233
	c3.423,2.104,7.461,3.306,11.759,3.306h46.168c-4.299,0-8.336-1.202-11.759-3.306C223.199,187.462,218.887,180.327,218.887,172.188z
	"/>
<g>
</g>
<g>
</g>
<g>
</g>
<g>
</g>
<g>
</g>
<g>
</g>
<g>
</g>
<g>
</g>
<g>
</g>
<g>
</g>
<g>
</g>
<g>
</g>
<g>
</g>
<g>
</g>
<g>
</g>
</svg>
