<?xml version="1.0" encoding="iso-8859-1"?>
<!-- Generator: Adobe Illustrator 19.0.0, SVG Export Plug-In . SVG Version: 6.00 Build 0)  -->
<svg version="1.1" id="Capa_1" xmlns="http://www.w3.org/2000/svg" xmlns:xlink="http://www.w3.org/1999/xlink" x="0px" y="0px"
	 viewBox="0 0 512 512" style="enable-background:new 0 0 512 512;" xml:space="preserve">
<circle style="fill:#393A59;" cx="256" cy="256" r="256"/>
<g>
	<path style="fill:#282942;" d="M480.277,379.528C436.694,458.512,352.59,512,256,512c-35.37,0-69.068-7.168-99.704-20.146
		c-16.802-7.105-32.684-15.956-47.417-26.331c-4.65-3.271-9.174-6.687-13.584-10.25c-25.788-20.814-47.459-46.529-63.582-75.745
		H480.277z"/>
	<path style="fill:#282942;" d="M114.842,319.498h-11.619c-1.889,0-3.42-1.532-3.42-3.42v-12.49c0-1.889-1.532-3.42-3.42-3.42
		h-9.877c-1.889,0-3.42,1.532-3.42,3.42v12.49c0,1.889-1.532,3.42-3.42,3.42H68.044c-1.889,0-3.42,1.532-3.42,3.42v9.877
		c0,1.889,1.532,3.42,3.42,3.42h11.619c1.889,0,3.42,1.532,3.42,3.42v52.196c0,1.889,1.532,3.42,3.42,3.42h9.877
		c1.889,0,3.42-1.532,3.42-3.42v-52.196c0-1.889,1.532-3.42,3.42-3.42h11.619c1.889,0,3.42-1.532,3.42-3.42v-9.877
		C118.262,321.03,116.73,319.498,114.842,319.498z"/>
	<path style="fill:#282942;" d="M453.954,319.498h-11.619c-1.889,0-3.42-1.532-3.42-3.42v-12.49c0-1.889-1.532-3.42-3.42-3.42
		h-9.877c-1.889,0-3.42,1.532-3.42,3.42v12.49c0,1.889-1.532,3.42-3.42,3.42h-11.619c-1.889,0-3.42,1.532-3.42,3.42v9.877
		c0,1.889,1.532,3.42,3.42,3.42h11.619c1.889,0,3.42,1.532,3.42,3.42v52.196c0,1.889,1.532,3.42,3.42,3.42h9.877
		c1.889,0,3.42-1.532,3.42-3.42v-52.196c0-1.889,1.532-3.42,3.42-3.42h11.619c1.889,0,3.42-1.532,3.42-3.42v-9.877
		C457.375,321.03,455.843,319.498,453.954,319.498z"/>
	<path style="fill:#282942;" d="M258.5,319.498h-11.619c-1.889,0-3.42-1.532-3.42-3.42v-12.49c0-1.889-1.532-3.42-3.42-3.42h-9.877
		c-1.889,0-3.42,1.532-3.42,3.42v12.49c0,1.889-1.532,3.42-3.42,3.42h-11.619c-1.889,0-3.42,1.532-3.42,3.42v9.877
		c0,1.889,1.532,3.42,3.42,3.42h11.619c1.889,0,3.42,1.532,3.42,3.42v52.196c0,1.889,1.532,3.42,3.42,3.42h9.877
		c1.889,0,3.42-1.532,3.42-3.42v-52.196c0-1.889,1.532-3.42,3.42-3.42H258.5c1.889,0,3.42-1.532,3.42-3.42v-9.877
		C261.921,321.03,260.39,319.498,258.5,319.498z"/>
	<path style="fill:#282942;" d="M337.217,343.183h-11.619c-1.889,0-3.42-1.532-3.42-3.42v-12.491c0-1.889-1.532-3.42-3.42-3.42
		h-9.877c-1.889,0-3.42,1.532-3.42,3.42v12.49c0,1.889-1.532,3.42-3.42,3.42h-11.619c-1.889,0-3.42,1.532-3.42,3.42v9.877
		c0,1.889,1.532,3.42,3.42,3.42h11.619c1.889,0,3.42,1.532,3.42,3.42v52.196c0,1.889,1.532,3.42,3.42,3.42h9.877
		c1.889,0,3.42-1.532,3.42-3.42v-52.194c0-1.889,1.532-3.42,3.42-3.42h11.619c1.889,0,3.42-1.532,3.42-3.42v-9.877
		C340.637,344.714,339.106,343.183,337.217,343.183z"/>
</g>
<g>
	<path style="fill:#D9D9D9;" d="M299.17,74.456l5.182,3.183l17.266,10.61h0.011c21.454,2.626,15.288-16.582,10.308-24.034
		c-6.891-4.389-12.632-7.873-16.797-10.341c-2.211-1.306-3.987-2.323-5.25-3.049c-1.62,3.574-11.056,0.078-13.123,4.635
		C295.172,58.988,301.024,70.391,299.17,74.456z"/>
	<path style="fill:#D9D9D9;" d="M312.679,108.721c82.589,34.011,172.481,124.217,195.396,173.077
		c-5.35-98.096-123.935-184.258-176.138-217.58c-1.703,4.012-6.102,14.263-10.303,24.033
		C317.779,97.164,314.08,105.669,312.679,108.721z"/>
</g>
<path style="fill:#F0F0F0;" d="M312.679,108.721c82.589,34.011,172.481,124.217,195.396,173.077
	C489.006,196.576,321.634,88.251,321.634,88.251C317.779,97.164,314.08,105.669,312.679,108.721z"/>
<g>
	<path style="fill:#D9D9D9;" d="M212.824,74.456l-5.182,3.183l-17.266,10.61h-0.011c-19.523,3.462-8.6-20.013-10.308-24.034
		c6.891-4.389,12.632-7.873,16.797-10.341c2.211-1.306,3.987-2.323,5.25-3.049c1.62,3.574,11.056,0.078,13.123,4.635
		C216.822,58.988,210.969,70.391,212.824,74.456z"/>
	<path style="fill:#D9D9D9;" d="M199.313,108.721C116.724,142.732,26.832,232.938,3.917,281.797
		C9.267,183.702,127.853,97.54,180.056,64.218c1.703,4.012,6.102,14.263,10.303,24.033
		C194.214,97.164,197.913,105.669,199.313,108.721z"/>
	<path style="fill:#D9D9D9;" d="M212.824,74.456l-5.182,3.183c-0.257-0.569-0.514-1.139-0.771-1.698
		c-3.897-8.533-7.27-15.982-10.017-22.068c2.211-1.306,3.987-2.323,5.25-3.049c1.62,3.574,11.056,0.078,13.123,4.635
		C216.822,58.988,210.969,70.391,212.824,74.456z"/>
</g>
<path style="fill:#E0554A;" d="M441.699,432.191c-0.408,0.449-0.836,0.888-1.264,1.337c-1.714,1.776-3.448,3.521-5.204,5.256
	c-2.006,1.975-4.044,3.908-6.123,5.81c-1.829,1.682-3.678,3.333-5.559,4.953c-28.839-37.104-66.738-90.384-102.066-154.028
	c-20.156-36.331-42.559-81.115-62.861-123.267c0-0.01-0.01-0.01-0.01-0.021v-0.01c-4.556-9.446-8.997-18.756-13.281-27.805v-0.01
	l-0.01-0.01c-12.591-26.582-23.834-50.939-32.496-69.945c-4.253-9.279-7.868-17.283-10.731-23.636
	c-1.473-3.271-2.738-6.113-3.793-8.453c-0.7-1.578-1.034-3.229-1.034-4.869c0-0.47,0.031-0.94,0.084-1.4
	c0.167-1.411,0.575-2.779,1.233-4.054c0.637-1.254,1.526-2.414,2.612-3.396c3.647-3.291,8.61-3.845,12.675-2.111
	c1.149,0.481,2.215,1.149,3.166,1.985c1.243,1.087,2.278,2.445,3.009,4.075c7.774,17.272,21.734,47.971,38.567,83.78
	c0,0.01,0,0.01,0,0.01l0.01,0.01v0.01c4.274,9.049,8.714,18.432,13.281,27.993l0.01,0.01v0.01
	c21.65,45.265,46.247,94.804,68.18,134.322C375.233,342.058,412.923,395.118,441.699,432.191z"/>
<path style="fill:#EF7064;" d="M441.699,432.191c-0.408,0.449-0.836,0.888-1.264,1.337c-1.714,1.776-3.448,3.521-5.204,5.256
	c-2.006,1.975-4.044,3.908-6.123,5.81c-28.296-36.822-64.439-88.21-98.22-149.076c-20.156-36.342-42.569-81.126-62.872-123.287
	v-0.01c-1.578-3.271-3.145-6.531-4.692-9.77c-1.891-3.939-3.751-7.847-5.59-11.703c-1.014-2.132-2.017-4.253-3.009-6.353
	c-12.591-26.582-23.834-50.939-32.496-69.945c-4.253-9.279-7.868-17.283-10.731-23.636c-1.473-3.271-2.738-6.113-3.793-8.453
	c-0.7-1.578-1.034-3.229-1.034-4.869c0-0.47,0.031-0.94,0.084-1.4c0.261-2.288,1.191-4.483,2.738-6.301
	c0.334-0.397,0.711-0.784,1.108-1.149c1.003-0.909,2.111-1.609,3.271-2.111c1.149,0.481,2.215,1.149,3.166,1.985
	c1.243,1.087,2.278,2.445,3.009,4.075c7.774,17.272,21.734,47.971,38.567,83.78c0,0.01,0,0.01,0,0.01
	c2.508,5.329,5.089,10.762,7.711,16.29c1.839,3.866,3.699,7.784,5.58,11.724l0.01,0.01v0.01
	c21.65,45.265,46.247,94.804,68.18,134.322C375.233,342.058,412.923,395.118,441.699,432.191z"/>
<g>
	<path style="fill:#E0554A;" d="M258.625,144.28c-2.211,4.669-11.012-4.657-13.29,0.123h-0.011c-2.122-4.5-4.221-8.935-6.255-13.279
		c0.848-1.787,1.698-3.563,2.546-5.338c3.675-7.706,7.282-15.3,10.777-22.694c2.032,4.333,4.111,8.767,6.232,13.29
		c0,0.011,0,0.011,0,0.011C256.481,120.927,260.836,139.6,258.625,144.28z"/>
	<path style="fill:#E0554A;" d="M319.969,37.501c0,1.64-0.334,3.291-1.034,4.869c-1.055,2.341-2.32,5.183-3.793,8.453
		c-2.863,6.353-6.478,14.357-10.731,23.636c-8.662,19.007-19.905,43.363-32.496,69.945v0.01
		c-4.284,9.059-8.735,18.359-13.291,27.815v0.021c-20.302,42.162-42.715,86.935-62.871,123.277
		c-36.185,65.191-75.076,119.515-104.135,156.714c-2.644-2.215-5.245-4.483-7.805-6.802c-1.379-1.264-2.748-2.529-4.096-3.814
		c-2.215-2.1-4.399-4.242-6.52-6.426c29.048-37.188,67.856-91.397,103.946-156.453c21.932-39.528,46.54-89.057,68.19-134.332v-0.01
		c4.566-9.571,9.017-18.944,13.291-28.003v-0.01c0,0,0,0,0-0.01c16.833-35.809,30.793-66.508,38.567-83.78
		c0.575-1.285,1.348-2.414,2.257-3.354c4.274-4.493,11.64-5.068,16.593-0.596c1.494,1.348,2.581,2.999,3.218,4.796
		c0.313,0.857,0.522,1.745,0.627,2.654C319.937,36.561,319.969,37.031,319.969,37.501z"/>
</g>
<path style="fill:#EF7064;" d="M319.969,37.501c0,1.64-0.334,3.291-1.034,4.869c-1.055,2.341-2.32,5.183-3.793,8.453
	c-2.863,6.353-6.478,14.357-10.731,23.636c-8.662,19.007-19.905,43.363-32.496,69.945v0.01c-2.8,5.914-5.674,11.933-8.589,18.035
	c-1.557,3.239-3.124,6.499-4.702,9.78v0.01c-20.302,42.162-42.715,86.946-62.871,123.288
	c-36.185,65.191-75.076,119.515-104.135,156.714c-2.644-2.215-5.245-4.483-7.805-6.802c29.038-37.188,67.762-91.324,103.779-156.244
	c21.932-39.528,46.54-89.067,68.19-134.343c0.658-1.369,1.306-2.738,1.954-4.106c2.915-6.123,5.789-12.163,8.589-18.077
	c0.92-1.954,1.839-3.897,2.748-5.831c0,0,0,0,0-0.01c16.833-35.809,30.793-66.508,38.567-83.78
	c2.236-4.984,7.325-7.513,12.246-6.949C319.937,36.561,319.969,37.031,319.969,37.501z"/>
<path style="fill:#F0F0F0;" d="M199.313,108.721C116.724,142.732,26.832,232.938,3.917,281.797
	c19.07-85.221,186.441-193.546,186.441-193.546C194.214,97.164,197.913,105.669,199.313,108.721z"/>
<g>
</g>
<g>
</g>
<g>
</g>
<g>
</g>
<g>
</g>
<g>
</g>
<g>
</g>
<g>
</g>
<g>
</g>
<g>
</g>
<g>
</g>
<g>
</g>
<g>
</g>
<g>
</g>
<g>
</g>
</svg>
