<?xml version="1.0" encoding="iso-8859-1"?>
<!-- Generator: Adobe Illustrator 19.0.0, SVG Export Plug-In . SVG Version: 6.00 Build 0)  -->
<svg version="1.1" id="Capa_1" xmlns="http://www.w3.org/2000/svg" xmlns:xlink="http://www.w3.org/1999/xlink" x="0px" y="0px"
	 viewBox="0 0 512 512" style="enable-background:new 0 0 512 512;" xml:space="preserve">
<circle style="fill:#282942;" cx="256" cy="256" r="256"/>
<path style="fill:#393A59;" d="M469.953,214.521c0,60.932-25.4,115.928-66.194,154.979c-13.511,12.941-28.719,24.123-45.25,33.193
	c-30.584,16.794-65.722,26.346-103.074,26.346c-37.353,0-72.472-9.544-103.057-26.338c-4.93-2.697-9.736-5.586-14.412-8.659
	c-11.032-7.223-21.356-15.454-30.847-24.543c-40.794-39.043-66.204-94.047-66.204-154.979c0-118.476,96.044-214.52,214.52-214.52
	S469.953,96.045,469.953,214.521z"/>
<path style="fill:#E87BC2;" d="M368.535,136.516v0.01c0,20.146-10.386,21.88-14.482,21.88c-22.936,0-47.574-10.71-68.211-27.167
	c-27.314-21.776-47.606-53.614-47.606-83.989c0-2.957,9.226-15.256,22.1-15.256h0.01c7.325,1.536,14.576,4.096,21.546,7.701
	c12.058,6.228,21.995,14.952,29.508,25.203c6.792,0,12.779,0.752,18.077,2.132C375.62,78.879,368.535,136.516,368.535,136.516z"/>
<g>
	<path style="fill:#D863BB;" d="M329.477,67.029c-0.467,5.883-1.378,11.156-2.286,15.318c-0.632,2.9-4.592,3.232-5.723,0.487
		c-2.606-6.328-5.978-12.356-10.068-17.935C318.187,64.9,324.182,65.656,329.477,67.029z"/>
	<path style="fill:#D863BB;" d="M285.842,131.239c-27.314-21.776-47.606-53.614-47.606-83.989c0-2.957,9.226-15.256,22.1-15.256
		h0.01c7.325,1.536,14.576,4.096,21.546,7.701c0,0-18.923,38.254,1.975,78.66C287.169,124.75,287.545,128.857,285.842,131.239z"/>
</g>
<path style="fill:#F9D368;" d="M432.441,440.947c-16.123,15.444-34.273,28.787-54,39.612c-15.799,8.673-32.622,15.736-50.239,20.94
	c-5.653,1.682-11.379,3.166-17.189,4.451c-17.899,3.96-36.498,6.05-55.578,6.05c-44.575,0-86.486-11.389-122.984-31.431
	c-19.728-10.815-37.878-24.168-54.011-39.623c16.374-41.566,56.195-71.325,103.173-72.997c0.972-0.042,1.964-0.073,2.947-0.084
	c0.408-0.01,0.825-0.01,1.233-0.01h139.295c0.408,0,0.805,0,1.212,0.01c0.993,0.01,1.985,0.042,2.967,0.084
	C376.247,369.622,416.068,399.381,432.441,440.947z"/>
<g>
	<path style="fill:#E2BD55;" d="M229.875,367.857c-1.411,0-2.811,0.031-4.18,0.094c-57.428,2.038-104.155,46.059-110.446,102.285
		c-13.166-8.62-25.485-18.442-36.812-29.288c16.374-41.566,56.195-71.325,103.173-72.997c1.379-0.063,2.779-0.094,4.18-0.094
		H229.875z"/>
	<path style="fill:#E2BD55;" d="M281.002,367.857c1.411,0,2.811,0.031,4.18,0.094c57.428,2.038,104.155,46.059,110.446,102.285
		c13.166-8.62,25.485-18.442,36.812-29.288c-16.374-41.566-56.195-71.325-103.173-72.997c-1.379-0.063-2.779-0.094-4.18-0.094
		H281.002z"/>
	<path style="fill:#E2BD55;" d="M326.301,367.867v7.022c0,39.079-31.786,70.865-70.865,70.865s-70.875-31.786-70.875-70.865v-7.022
		c0.408-0.01,0.825-0.01,1.233-0.01h139.295C325.496,367.856,325.893,367.856,326.301,367.867z"/>
</g>
<g>
	<path style="fill:#50BC69;" d="M309.587,316.712v58.174c0,29.908-24.246,54.154-54.154,54.154l0,0
		c-29.908,0-54.154-24.246-54.154-54.154v-58.174H309.587z"/>
	<ellipse style="fill:#50BC69;" cx="138.365" cy="245.99" rx="33.52" ry="41.643"/>
	<ellipse style="fill:#50BC69;" cx="372.506" cy="245.99" rx="33.52" ry="41.643"/>
</g>
<path style="fill:#D863BB;" d="M312.424,138.557c0,0,13.071-4.793,22.328-17.134c1.866-2.489,5.815-0.834,5.369,2.244
	c-1.193,8.234-3.955,18.315-10.282,24.643"/>
<path style="fill:#71D385;" d="M367.667,144.751c4.518-0.584,8.507,2.965,8.507,7.52v95.161c0,33.343-13.511,63.53-35.359,85.379
	c-21.67,21.67-51.525,35.125-84.516,35.356c-66.885,0.468-121.611-55.287-121.611-122.174V93.8
	c0-66.685,54.063-69.486,120.748-69.486c3.73,0,7.419,0.01,11.055,0.042c-2.743,8.77-4.215,18.102-4.221,27.767
	c-0.031,51.656,41.139,93.101,92.793,93.398C359.335,145.546,363.544,145.284,367.667,144.751z"/>
<g>
	<path style="fill:#50BC69;" d="M272.927,366.895c-5.716,0.825-11.557,1.275-17.492,1.275c-66.685,0-120.748-54.053-120.748-120.738
		V93.8c0-66.685,54.063-69.486,120.748-69.486c3.678,0,7.314,0.178,10.919,0.502c-0.219,0.679-0.418,1.358-0.606,2.048
		c-54.847,11.389-96.078,59.967-96.078,118.188v102.379C169.671,308.172,214.538,358.421,272.927,366.895z"/>
	<path style="fill:#50BC69;" d="M271.104,229.812h-31.347c-5.963,0-10.797,4.834-10.797,10.797l0,0
		c0,5.963,4.834,10.797,10.797,10.797h31.347c5.963,0,10.797-4.834,10.797-10.797l0,0
		C281.901,234.645,277.067,229.812,271.104,229.812z"/>
</g>
<path style="fill:#393A59;" d="M300.586,303.522v6.071c0,6.144-4.305,11.285-10.073,12.56c-0.899,0.199-1.829,0.303-2.79,0.303
	h-62.046c-0.961,0-1.891-0.104-2.79-0.303c-5.768-1.275-10.073-6.416-10.073-12.56v-6.071c0-5.402,1.285-10.501,3.563-15.005
	c5.486-10.867,16.75-18.307,29.738-18.307h21.159c12.999,0,24.263,7.44,29.748,18.307
	C299.301,293.021,300.586,298.12,300.586,303.522z"/>
<path style="fill:#E87BC2;" d="M290.513,322.152c-0.899,0.199-1.829,0.303-2.79,0.303h-62.046c-0.961,0-1.891-0.104-2.79-0.303
	c5.998-5.851,14.2-9.446,23.228-9.446h21.159C276.313,312.707,284.505,316.301,290.513,322.152z"/>
<path style="fill:#F0F0F0;" d="M297.023,288.517c-2.33,2.466-5.642,3.992-9.3,3.992h-62.046c-3.657,0-6.969-1.526-9.3-3.992
	c5.486-10.867,16.75-18.307,29.738-18.307h21.159C280.273,270.211,291.537,277.65,297.023,288.517z"/>
<circle style="fill:#50BC69;" cx="198.311" cy="192.888" r="34.785"/>
<circle style="fill:#F0F0F0;" cx="198.311" cy="192.888" r="25.426"/>
<path style="fill:#393A59;" d="M193.086,207.869c-8.258,0-14.977-6.719-14.977-14.977s6.719-14.977,14.977-14.977
	s14.977,6.719,14.977,14.977S201.343,207.869,193.086,207.869z"/>
<circle style="fill:#50BC69;" cx="312.55" cy="192.888" r="34.785"/>
<circle style="fill:#F0F0F0;" cx="312.55" cy="192.888" r="25.426"/>
<path style="fill:#393A59;" d="M317.776,207.869c-8.258,0-14.978-6.719-14.978-14.977s6.72-14.977,14.978-14.977
	s14.977,6.719,14.977,14.977S326.034,207.869,317.776,207.869z"/>
<path style="fill:#E87BC2;" d="M275.853,354.503L275.853,354.503c-4.424,0-8.011-3.586-8.011-8.011v-24.036h16.021v24.036
	C283.864,350.916,280.277,354.503,275.853,354.503z"/>
<rect x="169.671" y="150.747" style="fill:#71D385;" width="184.383" height="33.437"/>
<path style="fill:#50BC69;" d="M255.431,167.118L255.431,167.118c-5.001,0-9.056,4.054-9.056,9.056v61.997h18.111v-61.997
	C264.487,171.172,260.431,167.118,255.431,167.118z"/>
<g>
	<circle style="fill:#91E8A2;" cx="316.604" cy="252.103" r="9.056"/>
	<circle style="fill:#91E8A2;" cx="189.127" cy="257.672" r="9.056"/>
	<circle style="fill:#91E8A2;" cx="345.924" cy="261.089" r="7.729"/>
	<circle style="fill:#91E8A2;" cx="196.096" cy="94.668" r="7.729"/>
	<circle style="fill:#91E8A2;" cx="335.13" cy="242.124" r="3.865"/>
	<circle style="fill:#91E8A2;" cx="188.05" cy="113.476" r="3.865"/>
</g>
<g>
	<circle style="fill:#71D385;" cx="161.259" cy="270.848" r="7.729"/>
	<circle style="fill:#71D385;" cx="168.929" cy="91.188" r="7.729"/>
	<circle style="fill:#71D385;" cx="163.056" cy="248.55" r="6.613"/>
</g>
<g>
	<circle style="fill:#E87BC2;" cx="315.214" cy="470.141" r="18.111"/>
	<circle style="fill:#E87BC2;" cx="285.257" cy="489.639" r="8.918"/>
</g>
<g>
	<circle style="fill:#E2BD55;" cx="151.51" cy="466.651" r="8.918"/>
	<circle style="fill:#E2BD55;" cx="184.247" cy="464.185" r="13.414"/>
</g>
<path style="fill:#E87BC2;" d="M328.202,501.499c-5.653,1.682-11.379,3.166-17.189,4.451c-0.355-0.961-0.543-1.996-0.543-3.072
	c0-4.921,3.992-8.923,8.923-8.923C323.845,493.955,327.534,497.236,328.202,501.499z"/>
<g>
</g>
<g>
</g>
<g>
</g>
<g>
</g>
<g>
</g>
<g>
</g>
<g>
</g>
<g>
</g>
<g>
</g>
<g>
</g>
<g>
</g>
<g>
</g>
<g>
</g>
<g>
</g>
<g>
</g>
</svg>
