<?xml version="1.0" encoding="iso-8859-1"?>
<!-- Generator: Adobe Illustrator 19.0.0, SVG Export Plug-In . SVG Version: 6.00 Build 0)  -->
<svg version="1.1" id="Capa_1" xmlns="http://www.w3.org/2000/svg" xmlns:xlink="http://www.w3.org/1999/xlink" x="0px" y="0px"
	 viewBox="0 0 512 512" style="enable-background:new 0 0 512 512;" xml:space="preserve">
<circle style="fill:#33B5C6;" cx="256" cy="256" r="256"/>
<path style="fill:#393A59;" d="M179.785,285.686L53.206,412.264c-17.607-22.821-31.451-48.703-40.594-76.706l108.534-108.523
	L179.785,285.686z"/>
<path style="fill:#EDEDED;" d="M502.836,123.392l-65.526-65.515l-46.822-46.822c-14.733-14.733-38.619-14.733-53.352,0
	L103.131,245.06l69.151,69.151l69.904,69.904c5.277,5.277,13.625,5.904,19.634,1.484c16.05-11.807,31.765-24.022,47.156-36.645
	c68.504-56.153,130.257-120.163,183.975-190.746c3.835-5.036,7.617-10.104,11.368-15.203c1.964-2.675,2.936-5.81,2.936-8.934
	C507.256,130.173,505.762,126.318,502.836,123.392z M360.678,44.837c9.958,0,18.035,8.067,18.035,18.035
	c0,9.958-8.077,18.035-18.035,18.035s-18.035-8.077-18.035-18.035C342.643,52.903,350.72,44.837,360.678,44.837z"/>
<g>
	<circle style="fill:#6A6577;" cx="97.071" cy="309.76" r="10.405"/>
	<circle style="fill:#6A6577;" cx="49.277" cy="357.554" r="10.405"/>
</g>
<g>
	<path style="fill:#E87BC2;" d="M492.951,158.208c-53.718,70.583-115.472,134.593-183.975,190.746
		c-15.391,12.622-31.107,24.837-47.156,36.645c-6.008,4.42-14.357,3.793-19.634-1.484l-69.904-69.904
		c37.24-39.152,126.872-17.074,159.065-34.638c34.482-18.808,25.078-78.367,72.098-108.147
		C439.38,148.679,477.142,154.29,492.951,158.208z"/>
	<path style="fill:#E87BC2;" d="M388.762,338.382c-21.373,7.828-36.626,28.352-36.626,52.438c0,0.752,0.015,1.502,0.045,2.248
		c1.821,46.01,71.341,46.01,73.163,0c0.029-0.745,0.044-1.494,0.044-2.248C425.387,366.734,410.135,346.211,388.762,338.382z"/>
</g>
<circle style="fill:#F998E1;" cx="407.165" cy="392.819" r="12.191"/>
<g>
</g>
<g>
</g>
<g>
</g>
<g>
</g>
<g>
</g>
<g>
</g>
<g>
</g>
<g>
</g>
<g>
</g>
<g>
</g>
<g>
</g>
<g>
</g>
<g>
</g>
<g>
</g>
<g>
</g>
</svg>
