<?xml version="1.0" encoding="iso-8859-1"?>
<!-- Generator: Adobe Illustrator 19.0.0, SVG Export Plug-In . SVG Version: 6.00 Build 0)  -->
<svg version="1.1" id="Capa_1" xmlns="http://www.w3.org/2000/svg" xmlns:xlink="http://www.w3.org/1999/xlink" x="0px" y="0px"
	 viewBox="0 0 512 512" style="enable-background:new 0 0 512 512;" xml:space="preserve">
<circle style="fill:#E0554A;" cx="255.448" cy="256" r="255.438"/>
<path style="fill:#EF7064;" d="M469.487,214.61c0,60.798-25.345,115.674-66.049,154.639c-13.481,12.913-28.656,24.07-45.151,33.12
	c-30.517,16.757-65.578,26.288-102.848,26.288c-37.271,0-72.313-9.523-102.831-26.28c-4.919-2.691-9.715-5.574-14.381-8.64
	c-11.008-7.208-21.309-15.42-30.78-24.489c-40.704-38.957-66.058-93.841-66.058-154.639c0-118.216,95.833-214.048,214.049-214.048
	S469.487,96.394,469.487,214.61z"/>
<g>
	<polygon style="fill:#F9D368;" points="432.811,15.715 512,33.431 448.711,114.011 496.554,124.714 361.712,240.605 
		414.14,122.408 387.743,116.503 	"/>
	<polygon style="fill:#F9D368;" points="74.637,17.675 20.303,29.83 59.527,80.967 21.178,91.423 123.42,171.979 87.447,90.88 
		105.56,86.828 	"/>
	<path style="fill:#F9D368;" d="M124.07,361.448L12.897,336.352c-2.544-7.674-4.733-15.504-6.537-23.479l12.48-10.76l-16.035-8.174
		C0.959,281.564,0,268.896,0,255.999c0-6.892,0.271-13.721,0.813-20.477l3.232-2.544l62.671,53.34l-15.868,12.449L124.07,361.448z"
		/>
	<path style="fill:#F9D368;" d="M509.51,282.502c-0.98,9.623-2.513,19.08-4.546,28.348v0.01l-22.969,11.698l15.983,13.783
		c-1.178,3.587-2.44,7.131-3.785,10.635l-92.562,20.894l55.915-47.866l-12.115-9.509l47.856-40.724L509.51,282.502z"/>
</g>
<path style="fill:#393A59;" d="M432.055,440.541c-16.087,15.41-34.197,28.724-53.882,39.525
	c-36.418,19.997-78.258,31.372-122.735,31.372s-86.296-11.364-122.715-31.362c-19.684-10.791-37.794-24.115-53.892-39.536
	c16.338-41.475,56.071-71.168,102.947-72.836c1.376-0.063,2.773-0.094,4.17-0.094h138.99c1.397,0,2.794,0.031,4.17,0.094
	C375.984,369.373,415.718,399.066,432.055,440.541z"/>
<g>
	<path style="fill:#282942;" d="M229.936,367.611c-1.408,0-2.805,0.031-4.17,0.094c-57.302,2.033-103.927,45.958-110.203,102.061
		c-13.137-8.601-25.429-18.402-36.731-29.224c16.338-41.475,56.071-71.168,102.947-72.836c1.376-0.063,2.773-0.094,4.17-0.094
		H229.936z"/>
	<path style="fill:#282942;" d="M280.951,367.611c1.408,0,2.805,0.031,4.17,0.094c57.302,2.033,103.927,45.958,110.203,102.061
		c13.137-8.601,25.429-18.402,36.731-29.224c-16.338-41.475-56.071-71.168-102.947-72.836c-1.376-0.063-2.773-0.094-4.17-0.094
		H280.951z"/>
</g>
<path style="fill:#D9D9D9;" d="M323.462,287.559v73.075c0,37.569-30.456,68.025-68.025,68.025l0,0
	c-37.569,0-68.025-30.456-68.025-68.025v-73.075H323.462z"/>
<g>
	<ellipse style="fill:#CCCCCC;" cx="138.625" cy="246.012" rx="33.447" ry="41.552"/>
	<ellipse style="fill:#CCCCCC;" cx="372.251" cy="246.012" rx="33.447" ry="41.552"/>
</g>
<path style="fill:#EDEDED;" d="M375.912,94.156v153.295c0,33.267-13.478,63.386-35.277,85.184
	c-21.812,21.812-51.931,35.29-85.198,35.29c-66.535,0-120.475-53.94-120.475-120.475V94.156c0-66.535,53.94-69.332,120.475-69.332
	C321.985,24.823,375.912,27.621,375.912,94.156z"/>
<g>
	<path style="fill:#D9D9D9;" d="M312.408,249.71L312.408,249.71c-10.384,0-18.803-8.419-18.803-18.803v-35.445h37.607v35.445
		C331.211,241.292,322.792,249.71,312.408,249.71z"/>
	<path style="fill:#D9D9D9;" d="M198.476,249.71L198.476,249.71c-10.384,0-18.803-8.419-18.803-18.803v-35.445h37.607v35.445
		C217.28,241.292,208.862,249.71,198.476,249.71z"/>
	<path style="fill:#D9D9D9;" d="M169.867,247.451V145.297c0-60.606,44.761-110.743,103.024-119.201
		c-5.7-0.828-11.524-1.274-17.454-1.274c-66.535,0-120.475,2.797-120.475,69.332v153.296c0,66.535,53.94,120.475,120.475,120.475
		c5.93,0,11.754-0.447,17.455-1.274C214.629,358.194,169.867,308.057,169.867,247.451z"/>
	<path style="fill:#D9D9D9;" d="M265.708,258.366h-20.529c-6.527,0-11.531-5.766-10.624-12.219l0.99-7.017l8.904-63.13h21.989
		l8.904,63.13l0.99,7.017C277.239,252.6,272.224,258.366,265.708,258.366z"/>
</g>
<path style="fill:#CCCCCC;" d="M265.708,258.366h-20.529c-6.527,0-11.531-5.766-10.624-12.219l0.99-7.017
	c2.127-1.335,4.765-2.137,7.663-2.137h24.47c2.898,0,5.536,0.803,7.663,2.137l0.99,7.017
	C277.239,252.6,272.224,258.366,265.708,258.366z"/>
<g>
	<path style="fill:#393A59;" d="M323.19,217.064v-25.641c0-6.687-5.422-12.108-12.108-12.108l0,0
		c-6.687,0-12.108,5.422-12.108,12.108v25.641c0,6.687,5.422,12.108,12.108,12.108l0,0
		C317.769,229.173,323.19,223.751,323.19,217.064z"/>
	<path style="fill:#393A59;" d="M187.695,191.423v25.641c0,6.687,5.422,12.108,12.108,12.108l0,0
		c6.687,0,12.109-5.422,12.109-12.108v-25.641c0-6.687-5.422-12.108-12.109-12.108l0,0
		C193.115,179.314,187.695,184.736,187.695,191.423z"/>
</g>
<g>
	<circle style="fill:#7F7D89;" cx="315.284" cy="195.925" r="7.911"/>
	<circle style="fill:#7F7D89;" cx="203.996" cy="195.925" r="7.911"/>
	<circle style="fill:#7F7D89;" cx="306.442" cy="214.713" r="4.549"/>
	<circle style="fill:#7F7D89;" cx="195.165" cy="214.713" r="4.549"/>
</g>
<rect x="134.965" y="169.391" style="fill:#D9D9D9;" width="240.946" height="26.065"/>
<polygon style="fill:#F9D368;" points="219.625,84.115 199.069,74.683 195.636,108.576 180.555,102.767 187.694,167.27 
	201.272,120.727 208.124,123.871 "/>
<path style="fill:#393A59;" d="M282.035,287.559h-53.196c-12.38,0-22.416,10.036-22.416,22.416l0,0h98.028l0,0
	C304.451,297.595,294.415,287.559,282.035,287.559z"/>
<rect x="156.745" y="353.765" style="fill:#F0F0F0;" width="33.363" height="22.242"/>
<g>
	<path style="fill:#D9D9D9;" d="M271.858,332.912h-32.842c-3.167,0-5.734-2.567-5.734-5.734l0,0c0-3.167,2.567-5.734,5.734-5.734
		h32.842c3.167,0,5.734,2.567,5.734,5.734l0,0C277.592,330.344,275.024,332.912,271.858,332.912z"/>
	<rect x="134.965" y="114.487" style="fill:#D9D9D9;" width="240.946" height="11.816"/>
	<path style="fill:#D9D9D9;" d="M352.399,137.075L352.399,137.075c-3.072,0-5.56-2.49-5.56-5.56v-22.242
		c0-3.072,2.49-5.56,5.56-5.56l0,0c3.072,0,5.56,2.49,5.56,5.56v22.242C357.959,134.586,355.47,137.075,352.399,137.075z"/>
	<path style="fill:#D9D9D9;" d="M255.437,137.075L255.437,137.075c-3.072,0-5.56-2.49-5.56-5.56v-22.242
		c0-3.072,2.49-5.56,5.56-5.56l0,0c3.072,0,5.56,2.49,5.56,5.56v22.242C260.997,134.586,258.507,137.075,255.437,137.075z"/>
	<path style="fill:#D9D9D9;" d="M309.131,137.075L309.131,137.075c-3.072,0-5.56-2.49-5.56-5.56v-22.242
		c0-3.072,2.49-5.56,5.56-5.56l0,0c3.072,0,5.56,2.49,5.56,5.56v22.242C314.691,134.586,312.202,137.075,309.131,137.075z"/>
	<path style="fill:#D9D9D9;" d="M201.743,137.075L201.743,137.075c-3.072,0-5.56-2.49-5.56-5.56v-22.242
		c0-3.072,2.49-5.56,5.56-5.56l0,0c3.072,0,5.56,2.49,5.56,5.56v22.242C207.303,134.586,204.813,137.075,201.743,137.075z"/>
	<path style="fill:#D9D9D9;" d="M158.475,137.075L158.475,137.075c-3.072,0-5.56-2.49-5.56-5.56v-22.242
		c0-3.072,2.49-5.56,5.56-5.56l0,0c3.072,0,5.56,2.49,5.56,5.56v22.242C164.035,134.586,161.545,137.075,158.475,137.075z"/>
</g>
<rect x="156.745" y="367.924" style="fill:#E8DDD6;" width="33.363" height="8.08"/>
<rect x="145.621" y="339.513" style="fill:#F0F0F0;" width="22.242" height="50.74"/>
<rect x="145.621" y="376.004" style="fill:#E8DDD6;" width="22.242" height="14.249"/>
<rect x="320.778" y="353.765" style="fill:#F0F0F0;" width="33.363" height="22.242"/>
<rect x="320.778" y="367.924" style="fill:#E8DDD6;" width="33.363" height="8.08"/>
<rect x="343.017" y="339.513" style="fill:#F0F0F0;" width="22.242" height="50.74"/>
<rect x="343.017" y="376.004" style="fill:#E8DDD6;" width="22.242" height="14.249"/>
<path style="fill:#393A59;" d="M352.613,24.823H158.261c-12.868,0-23.299,10.431-23.299,23.299v46.033v96.332l0,0
	c7.425,0,13.445-6.02,13.445-13.445v-68.069c0-8.184,6.634-14.819,14.819-14.819h184.421c8.184,0,14.819,6.634,14.819,14.819v68.069
	c0,7.425,6.02,13.445,13.445,13.445l0,0V94.156V48.121C375.912,35.255,365.481,24.823,352.613,24.823z"/>
<g>
</g>
<g>
</g>
<g>
</g>
<g>
</g>
<g>
</g>
<g>
</g>
<g>
</g>
<g>
</g>
<g>
</g>
<g>
</g>
<g>
</g>
<g>
</g>
<g>
</g>
<g>
</g>
<g>
</g>
</svg>
