<?xml version="1.0" encoding="iso-8859-1"?>
<!-- Generator: Adobe Illustrator 19.0.0, SVG Export Plug-In . SVG Version: 6.00 Build 0)  -->
<svg version="1.1" id="Capa_1" xmlns="http://www.w3.org/2000/svg" xmlns:xlink="http://www.w3.org/1999/xlink" x="0px" y="0px"
	 viewBox="0 0 512 512" style="enable-background:new 0 0 512 512;" xml:space="preserve">
<circle style="fill:#393A59;" cx="256" cy="256" r="256"/>
<g>
	<path style="fill:#6A6577;" d="M194.142,102.682c0,16.729-13.563,30.302-30.302,30.302H31.441
		c13.918-25.36,32.016-48.107,53.363-67.312c5.193,4.2,11.807,6.708,19.007,6.708h60.029c8.37,0,15.945,3.385,21.431,8.871
		C190.757,86.737,194.142,94.312,194.142,102.682z"/>
	<path style="fill:#6A6577;" d="M147.257,236.366c0,16.739-13.573,30.302-30.302,30.302H0.219C0.073,263.126,0,259.574,0,256
		c0-39.581,8.986-77.072,25.036-110.54h20.501c16.729,0,30.302,13.563,30.302,30.302c0,16.729,13.563,30.302,30.302,30.302h10.815
		C133.684,206.064,147.257,219.627,147.257,236.366z"/>
	<path style="fill:#6A6577;" d="M511.342,237.474H383.791c-16.739,0-30.302-13.573-30.302-30.302c0-8.37-3.396-15.945-8.882-21.431
		c-5.475-5.475-13.061-8.871-21.42-8.871h-65.074c-16.739,0-30.302-13.573-30.302-30.302c0-8.37,3.385-15.945,8.871-21.431
		c5.486-5.475,13.061-8.871,21.431-8.871h182.103c16.729,0,30.302,13.563,30.302,30.302c0,16.29,12.863,29.591,29.006,30.271
		C505.793,196.138,509.837,216.461,511.342,237.474z"/>
	<path style="fill:#6A6577;" d="M284.212,451.678c0,16.729-13.563,30.302-30.302,30.302H135.617
		C71.67,447.854,23.918,387.365,6.844,315.037c5.277-8.902,14.984-14.869,26.081-14.869h135.837c8.37,0,15.935,3.385,21.42,8.871
		c5.486,5.486,8.882,13.061,8.882,21.431c0,16.729-13.573,30.302-30.302,30.302h-18.808c-16.739,0-30.302,13.563-30.302,30.302
		c0,16.729,13.563,30.302,30.302,30.302H253.91c8.37,0,15.945,3.385,21.431,8.871C280.827,435.733,284.212,443.308,284.212,451.678z
		"/>
	<path style="fill:#6A6577;" d="M498.657,337.784c-18.819,55.86-56.393,103.1-105.232,134.228
		c-5.465-7.868-14.576-13.019-24.879-13.019h-18.808c-8.37,0-15.945-3.396-21.431-8.882c-5.475-5.475-8.871-13.061-8.871-21.42
		c0-16.739,13.563-30.302,30.302-30.302h18.808c8.37,0,15.935-3.396,21.42-8.882c5.486-5.475,8.882-13.061,8.882-21.42
		c0-16.739,13.563-30.302,30.302-30.302H498.657z"/>
</g>
<path style="fill:#F9D368;" d="M350.083,238.89c24.825,15.054,57.111,7.26,72.354-17.38c15.358-24.826,7.423-57.876-17.539-73.012
	c-2.596-1.575-5.274-2.899-8.005-3.979c-2.564-1.015-1.899-4.797,0.859-4.851c12.321-0.241,24.856,2.907,36.163,9.8
	c31.65,19.295,41.656,60.354,22.435,92.048c-19.208,31.674-60.457,41.78-92.132,22.572c-11.277-6.839-19.819-16.471-25.277-27.47
	c-1.221-2.461,1.838-4.785,3.915-2.986C345.075,235.553,347.487,237.316,350.083,238.89z"/>
<g>
	<path style="fill:#282942;" d="M351.532,73.825c-19.029-5.418-40.339-0.641-55.328,14.341c-5.509,5.509-9.637,11.87-12.379,18.667
		c-0.994,2.429-1.798,4.909-2.43,7.429c-0.739-0.468-1.486-0.911-2.241-1.347c-0.649-0.369-1.297-0.73-1.946-1.075
		c-16.64-8.817-36.152-10.286-53.744-4.408c-5.828,1.937-11.444,4.687-16.672,8.251c-3.521,2.389-6.871,5.147-9.99,8.266
		c-13.971,13.98-20.638,32.483-19.997,50.789h-0.845c0.641-18.307-6.018-36.81-19.997-50.789
		c-22.32-22.32-56.216-25.998-82.353-11.033c-0.755,0.435-1.503,0.879-2.241,1.347c-2.397-9.564-7.331-18.618-14.801-26.096
		C41.575,73.186,20.265,68.407,1.236,73.825L91.848,9.672l5.516,16.845c6.797,20.777,26.171,34.815,48.022,34.815V24.702l7.955,6.51
		c13.405,10.967,32.68,10.967,46.085,0l7.946-6.51v36.629c16.18,0,30.997-7.691,40.348-20.112c3.291-4.359,5.91-9.309,7.676-14.703
		l5.516-16.845l6.395,4.523L351.532,73.825z"/>
	<path style="fill:#282942;" d="M365.869,172.713c-11.763,1.018-22.637,8.208-27.816,19.746c-1.903,4.242-2.856,8.667-2.941,13.04
		c-0.039,1.566,0.04,3.12,0.222,4.66c-0.511-0.104-1.022-0.193-1.536-0.275c-0.44-0.068-0.879-0.132-1.313-0.187
		c-11.153-1.384-22.349,1.938-30.913,8.952c-2.84,2.318-5.387,5.044-7.548,8.142c-1.458,2.08-2.74,4.33-3.817,6.732
		c-4.825,10.765-4.614,22.5-0.371,32.575l-0.471,0.18c-3.53-10.347-11.171-19.254-21.937-24.084
		c-17.189-7.711-36.876-2.566-48.277,11.33c-0.329,0.403-0.651,0.809-0.964,1.227c-3.368-4.825-8.042-8.828-13.796-11.413
		c-11.542-5.174-24.442-3.314-33.906,3.747l36.92-55.021l6.653,8.224c8.202,10.146,21.989,13.863,34.178,9.223l-7.776-20.431
		l5.819,1.942c9.805,3.272,20.556-0.821,25.706-9.784l3.05-5.319l7.776,20.431c9.025-3.436,15.657-10.871,18.234-19.784
		c0.91-3.131,1.321-6.447,1.16-9.83l-0.499-10.567l4.528,1.165L365.869,172.713z"/>
	<path style="fill:#282942;" d="M393.213,244.551c-6.864,5.288-10.732,14.035-9.362,23.215c0.505,3.374,1.669,6.485,3.348,9.22
		c0.597,0.982,1.26,1.911,1.982,2.791c-0.357,0.138-0.707,0.285-1.057,0.438c-0.299,0.132-0.595,0.266-0.885,0.404
		c-7.438,3.562-13.038,10.049-15.55,17.774c-0.836,2.557-1.33,5.25-1.438,8.019c-0.076,1.862,0.022,3.76,0.308,5.671
		c1.283,8.56,6.06,15.727,12.673,20.269l-0.22,0.298c-6.278-4.994-14.526-7.469-23.089-6.189
		c-13.671,2.045-23.795,13.019-25.335,26.119c-0.044,0.379-0.083,0.758-0.11,1.14c-3.992-1.647-8.464-2.268-13.042-1.586
		c-9.178,1.375-16.411,7.633-19.46,15.743l1.016-48.611l7.368,2.445c9.085,3.019,19.074-0.145,24.765-7.839l-12.895-9.541
		l4.363-1.104c7.353-1.863,12.374-8.649,12.004-16.225l-0.223-4.493l12.895,9.541c4.214-5.697,5.366-12.916,3.428-19.443
		c-0.677-2.295-1.738-4.506-3.176-6.532l-4.494-6.33l3.258-1.073L393.213,244.551z"/>
	<path style="fill:#282942;" d="M317.109,412.758c-7.794-3.786-17.348-3.349-24.953,1.971c-2.795,1.956-5.06,4.385-6.76,7.107
		c-0.613,0.972-1.149,1.98-1.613,3.019c-0.283-0.258-0.572-0.506-0.864-0.751c-0.252-0.209-0.504-0.414-0.758-0.612
		c-6.504-5.07-14.808-7.19-22.842-5.995c-2.661,0.392-5.292,1.149-7.819,2.288c-1.701,0.762-3.355,1.697-4.938,2.805
		c-7.091,4.965-11.375,12.437-12.493,20.381l-0.365-0.065c1.671-7.846,0.209-16.333-4.755-23.427
		c-7.926-11.326-22.264-15.494-34.676-11.031c-0.358,0.131-0.715,0.264-1.069,0.41c-0.305-4.307-1.743-8.588-4.396-12.382
		c-5.324-7.603-14.15-11.286-22.769-10.399l43.964-20.765l1.096,7.685c1.349,9.478,8.635,17.008,18.059,18.672l2.79-15.797
		l2.935,3.414c4.945,5.751,13.259,7.219,19.875,3.51l3.923-2.203l-2.79,15.797c6.978,1.232,13.954-0.956,18.933-5.601
		c1.751-1.629,3.258-3.564,4.43-5.756l3.662-6.844l2.414,2.438L317.109,412.758z"/>
	<path style="fill:#282942;" d="M403.268,463.809c-5.496-0.021-10.846,2.853-13.73,7.993c-0.637,1.128-1.118,2.32-1.442,3.521
		c-2.152,1.306-4.326,2.581-6.531,3.814c-3.574,0.125-7.064,1.254-10.041,3.271c-1.411,0.951-2.706,2.111-3.845,3.459
		c-0.24,0.282-0.481,0.585-0.69,0.888h-0.01c-0.01,0-0.01,0-0.01,0.01c-3.908,1.881-7.868,3.668-11.88,5.35
		c-0.125-0.084-0.261-0.157-0.387-0.23c-7.638-4.294-16.98-2.738-22.852,3.229c-0.167,0.167-0.334,0.345-0.502,0.522
		c-1.358-2.372-3.354-4.43-5.914-5.862c-5.13-2.884-11.191-2.57-15.882,0.303l19.435-23.949l2.738,4.086
		c3.375,5.057,9.613,7.356,15.454,5.716l-2.748-9.801l2.623,1.149c4.409,1.923,9.561,0.481,12.33-3.459l1.63-2.341l2.748,9.801
		c4.326-1.212,7.722-4.378,9.289-8.401c0.554-1.421,0.878-2.936,0.951-4.514l0.209-4.921l2.048,0.731L403.268,463.809z"/>
	<path style="fill:#282942;" d="M273.126,507.423c-5.214-1.745-11.191-0.7-15.548,3.271c-0.46,0.418-0.878,0.846-1.275,1.306H256
		c-26.561,0-52.172-4.044-76.257-11.546l22.131-14.179l1.317,4.744c1.62,5.862,6.813,10,12.884,10.282l0.47-10.167l2.121,1.912
		c3.584,3.218,8.934,3.469,12.79,0.596l2.288-1.703l-0.47,10.167c4.493,0.199,8.704-1.745,11.463-5.068
		c0.961-1.17,1.755-2.508,2.32-3.981l1.745-4.608l1.714,1.337L273.126,507.423z"/>
	<path style="fill:#282942;" d="M441.336,397.292c-5.321-1.379-11.209,0.089-15.273,4.349c-1.493,1.566-2.599,3.36-3.315,5.266
		c-0.26,0.681-0.467,1.375-0.626,2.079c-0.208-0.125-0.419-0.243-0.631-0.359c-0.183-0.098-0.365-0.194-0.548-0.286
		c-4.68-2.338-10.109-2.618-14.957-0.869c-1.606,0.577-3.147,1.377-4.577,2.401c-0.962,0.687-1.875,1.475-2.72,2.361
		c-3.789,3.975-5.517,9.159-5.218,14.239l-0.235,0.005c0.056-5.089-1.914-10.184-5.89-13.974c-6.347-6.052-15.785-6.849-22.946-2.52
		c-0.207,0.125-0.412,0.254-0.613,0.389c-0.729-2.64-2.159-5.123-4.283-7.15c-4.262-4.063-10.213-5.249-15.462-3.617l24.743-18.417
		l1.644,4.642c2.025,5.726,7.499,9.497,13.568,9.353l-0.242-10.173l2.253,1.755c3.796,2.958,9.149,2.831,12.8-0.304l2.164-1.861
		l0.242,10.173c4.494-0.107,8.559-2.342,11.074-5.853c0.885-1.233,1.58-2.625,2.034-4.135l1.421-4.716l1.806,1.214L441.336,397.292z
		"/>
	<path style="fill:#282942;" d="M226.707,314.27c-9.602-6.873-22.536-8.477-33.974-3.076c-4.204,1.986-7.803,4.73-10.712,7.998
		c-1.047,1.165-1.998,2.396-2.86,3.685c-0.321-0.412-0.651-0.811-0.988-1.208c-0.29-0.337-0.582-0.672-0.877-0.996
		c-7.576-8.302-18.243-13.054-29.31-13.292c-3.664-0.085-7.373,0.331-11.028,1.28c-2.46,0.633-4.896,1.509-7.277,2.634
		c-10.663,5.044-18.132,14.098-21.456,24.512l-0.475-0.17c4.044-10.156,4.026-21.893-1.016-32.561
		c-8.05-17.033-26.354-25.92-44.051-22.771c-0.512,0.093-1.021,0.191-1.53,0.305c0.578-5.856-0.372-11.936-3.065-17.641
		c-5.407-11.434-16.42-18.407-28.202-19.192l63.821-17.811l-0.29,10.574c-0.362,13.041,7.699,24.828,19.976,29.225l7.371-20.58
		l3.16,5.258c5.325,8.86,16.155,12.738,25.894,9.273l5.775-2.058l-7.371,20.58c9.091,3.256,18.964,1.916,26.717-3.181
		c2.727-1.787,5.194-4.041,7.271-6.717l6.489-8.355l2.683,3.828L226.707,314.27z"/>
</g>
<g>
</g>
<g>
</g>
<g>
</g>
<g>
</g>
<g>
</g>
<g>
</g>
<g>
</g>
<g>
</g>
<g>
</g>
<g>
</g>
<g>
</g>
<g>
</g>
<g>
</g>
<g>
</g>
<g>
</g>
</svg>
