<?xml version="1.0" encoding="iso-8859-1"?>
<!-- Generator: Adobe Illustrator 19.0.0, SVG Export Plug-In . SVG Version: 6.00 Build 0)  -->
<svg version="1.1" id="Capa_1" xmlns="http://www.w3.org/2000/svg" xmlns:xlink="http://www.w3.org/1999/xlink" x="0px" y="0px"
	 viewBox="0 0 512 512" style="enable-background:new 0 0 512 512;" xml:space="preserve">
<circle style="fill:#393A59;" cx="256" cy="256" r="256"/>
<path style="fill:#42BF5B;" d="M301.401,42.82c-3.291,2.612-6.311,5.486-9.049,8.568c-18.704,21.096-24.064,52.151-11.159,79.203
	c-8.777,4.18-17.544,8.359-26.311,12.549c-3.835,1.829-7.68,3.668-11.515,5.496c-23.458-49.142-8.704-106.663,32.381-138.982
	c8.944-7.032,21.556-5.287,28.526,2.947h0.01c1.128,1.337,2.121,2.853,2.915,4.524l0.188,0.376
	C311.578,26.3,309.029,36.749,301.401,42.82z"/>
<path style="fill:#71D385;" d="M301.401,42.82c-3.291,2.612-6.311,5.486-9.049,8.568c-18.704,21.096-24.064,52.151-11.159,79.203
	c-8.777,4.18-17.544,8.359-26.311,12.549c-15.527-46.017,0.021-96.622,37.585-126.171c3.553-2.79,7.68-4.2,11.807-4.368h0.01
	c1.128,1.337,2.121,2.853,2.915,4.524l0.188,0.376C311.578,26.3,309.029,36.749,301.401,42.82z"/>
<path style="fill:#42BF5B;" d="M385.567,143.747v28.944H126.433v-28.944c0-29.602,23.991-53.603,53.593-53.603h151.939
	C361.566,90.143,385.567,114.145,385.567,143.747z"/>
<path style="fill:#71D385;" d="M385.567,143.747v28.944H172.722v-28.944c0-29.602,23.991-53.603,53.593-53.603h105.65
	C361.566,90.143,385.567,114.145,385.567,143.747z"/>
<path style="fill:#E0554A;" d="M498.092,294.212c0,24.91-3.762,48.933-10.752,71.544C446.245,452.221,358.107,512,256,512
	C153.872,512,65.714,452.2,24.628,365.704c-6.98-22.591-10.731-46.602-10.731-71.492c0-13.082,1.034-25.328,3.041-36.759
	C35.359,152.074,135.377,115.221,256,115.221s220.63,36.854,239.052,142.232C497.058,268.884,498.092,281.13,498.092,294.212z"/>
<g>
	<path style="fill:#F49969;" d="M274.241,115.517c-2.8-0.091-5.614-0.16-8.44-0.208C268.627,115.358,271.44,115.426,274.241,115.517
		z"/>
	<path style="fill:#F49969;" d="M264.482,115.29c-2.817-0.041-5.641-0.069-8.482-0.069
		C258.84,115.221,261.665,115.248,264.482,115.29z"/>
	<path style="fill:#F49969;" d="M284.158,115.937c-0.369-0.019-0.739-0.036-1.109-0.053
		C283.418,115.901,283.789,115.918,284.158,115.937z"/>
	<path style="fill:#F49969;" d="M291.975,116.402c-2.592-0.174-5.198-0.33-7.817-0.465
		C286.776,116.071,289.381,116.227,291.975,116.402z"/>
	<path style="fill:#F49969;" d="M283.049,115.883c-2.728-0.135-5.467-0.254-8.221-0.346
		C277.582,115.63,280.321,115.749,283.049,115.883z"/>
	<path style="fill:#F49969;" d="M291.975,116.402c0.185,0.013,0.37,0.026,0.555,0.039c0.014-0.001,0.028-0.002,0.042-0.003
		C292.374,116.424,292.172,116.415,291.975,116.402z"/>
</g>
<path style="fill:#EF7064;" d="M292.53,116.44c-32.917,2.26-63.654,7.77-90.814,17.252c-4.92,1.718-5.889,8.195-1.71,11.309
	c10.796,8.045,19.385,18.267,25.876,27.822c4,5.889-2.983,12.949-8.913,9.009c-26.377-17.529-50.689-21.2-65.194-21.494
	c-1.427-0.029-2.823,0.413-3.967,1.269c-29.767,22.266-50.33,53.526-57.727,95.843c-2.006,11.431-3.041,23.677-3.041,36.759
	c0,0.491,0.001,0.981,0.004,1.471c0.522,88.656,70.603,161.692,159.191,165.206c3.239,0.129,6.494,0.193,9.765,0.193
	c120.613,0,220.62-88.2,239.052-203.63C478.527,162.925,396.344,123.549,292.53,116.44z"/>
<g>
	<path style="fill:#E0554A;" d="M376.662,176.988c-14.667,1.195-35.871,5.953-58.631,21.013c-5.937,3.928-13.01-3.199-9-9.081
		c4.631-6.792,10.319-13.908,17.105-20.331c14.759-13.971,37.423-15.35,53.839-3.37l0,0
		C384.861,168.786,382.691,176.497,376.662,176.988z"/>
	<path style="fill:#E0554A;" d="M364.664,335.694c0,60.019-48.65,108.669-108.669,108.669s-108.669-48.65-108.669-108.669
		c0.721,0.282,1.442,0.564,2.173,0.846c34.273,13.208,70.384,19.801,106.496,19.801s72.223-6.593,106.496-19.801
		C363.222,336.259,363.943,335.976,364.664,335.694z"/>
</g>
<path style="fill:#393A59;" d="M362.491,336.541c-10.073,49.601-53.927,86.925-106.496,86.925s-96.423-37.324-106.496-86.925
	c34.273,13.208,70.384,19.801,106.496,19.801C292.106,356.342,328.218,349.748,362.491,336.541z"/>
<g>
	
		<rect x="180.767" y="329.416" transform="matrix(-0.9826 -0.1856 0.1856 -0.9826 322.506 734.9984)" style="fill:#EF7064;" width="29.779" height="45.974"/>
	
		<rect x="197.892" y="411.418" transform="matrix(-0.9826 -0.1856 0.1856 -0.9826 347.9059 895.1202)" style="fill:#EF7064;" width="35.92" height="39.716"/>
	
		<rect x="290.832" y="393.543" transform="matrix(-0.866 0.5 -0.5 -0.866 793.8615 620.3401)" style="fill:#EF7064;" width="45.974" height="45.974"/>
</g>
<g>
	<polygon style="fill:#E0554A;" points="282.419,408.129 273.832,391.09 324.261,375.4 322.235,385.141 	"/>
	<polygon style="fill:#E0554A;" points="201.89,408.439 211.329,399.001 238.579,403.265 237.187,415.107 	"/>
	<polygon style="fill:#E0554A;" points="324.261,375.4 339.587,392.816 336.088,409.135 322.235,385.141 	"/>
	<path style="fill:#E0554A;" d="M386.61,254.532c0,25.925-11.106,46.948-40.241,46.948c-2.79,0-5.536-0.196-8.21-0.573
		c-25.236-3.506-44.552-22.938-44.552-46.376s19.316-42.871,44.552-46.376c2.674-0.375,5.419-0.573,8.21-0.573
		C375.504,207.584,386.61,228.607,386.61,254.532z"/>
</g>
<path style="fill:#393A59;" d="M370.513,254.532c0,23.438-9.077,42.871-32.354,46.376c-25.236-3.506-44.552-22.938-44.552-46.376
	s19.316-42.871,44.552-46.376C361.438,211.661,370.513,231.094,370.513,254.532z"/>
<circle style="fill:#F9D368;" cx="323.218" cy="254.192" r="15.151"/>
<path style="fill:#E0554A;" d="M125.379,254.532c0,25.925,11.106,46.948,40.241,46.948c2.79,0,5.536-0.196,8.21-0.573
	c25.236-3.506,44.552-22.938,44.552-46.376s-19.316-42.871-44.552-46.376c-2.674-0.375-5.419-0.573-8.21-0.573
	C136.486,207.584,125.379,228.607,125.379,254.532z"/>
<path style="fill:#393A59;" d="M141.476,254.532c0,23.438,9.077,42.871,32.354,46.376c25.236-3.506,44.552-22.938,44.552-46.376
	s-19.316-42.871-44.552-46.376C150.552,211.661,141.476,231.094,141.476,254.532z"/>
<circle style="fill:#F9D368;" cx="188.771" cy="254.192" r="15.151"/>
<g>
</g>
<g>
</g>
<g>
</g>
<g>
</g>
<g>
</g>
<g>
</g>
<g>
</g>
<g>
</g>
<g>
</g>
<g>
</g>
<g>
</g>
<g>
</g>
<g>
</g>
<g>
</g>
<g>
</g>
</svg>
