<?xml version="1.0" encoding="iso-8859-1"?>
<!-- Generator: Adobe Illustrator 19.0.0, SVG Export Plug-In . SVG Version: 6.00 Build 0)  -->
<svg version="1.1" id="Capa_1" xmlns="http://www.w3.org/2000/svg" xmlns:xlink="http://www.w3.org/1999/xlink" x="0px" y="0px"
	 viewBox="0 0 512 512" style="enable-background:new 0 0 512 512;" xml:space="preserve">
<path style="fill:#384E64;" d="M512,256c0,115.401-76.364,212.955-181.312,244.919c-1.623-9.416-9.808-16.585-19.688-16.585H201
	c-9.879,0-18.065,7.17-19.688,16.585C76.364,468.955,0,371.401,0,256C0,114.615,114.615,0,256,0S512,114.615,512,256z"/>
<path style="fill:#2D2B2B;" d="M266,180v60c0,5.523-4.478,10-10,10c-5.523,0-10-4.477-10-10v-60c0-5.523,4.477-10,10-10
	C261.522,170,266,174.477,266,180z"/>
<path style="fill:#FFF4A5;" d="M181,250h150v250.826C307.279,508.084,282.098,512,256,512s-51.279-3.916-75-11.174V250z"/>
<path style="fill:#FFF9C8;" d="M220,250h111v250.826C307.279,508.084,282.098,512,256,512c-12.221,0-24.236-0.876-36-2.532V250z"/>
<path style="fill:#FFEF87;" d="M341.983,245.725c-0.38,8.068-7.33,14.275-15.407,14.275H320c-5.523,0-10,4.477-10,10v45
	c0,8.525-7.111,15.388-15.725,14.983c-8.068-0.38-14.275-7.33-14.275-15.407V295c0-8.525-7.111-15.388-15.725-14.983
	c-8.068,0.38-14.275,7.33-14.275,15.407v65c0,8.525-7.111,15.388-15.725,14.983C226.207,375.027,220,368.077,220,360v-90
	c0-5.523-4.477-10-10-10h-25c-8.525,0-15.389-7.111-14.983-15.725c0.38-8.068,7.33-14.275,15.407-14.275H327
	C335.525,230,342.389,237.111,341.983,245.725z"/>
<path style="fill:#FF9F5A;" d="M204.787,172.515L204.787,172.515c-25.416-25.416-28.347-65.625-6.886-94.458L256,0l58.099,78.057
	c21.461,28.833,18.53,69.043-6.886,94.458l0,0C278.929,200.799,233.071,200.799,204.787,172.515z"/>
<path style="fill:#FF8F50;" d="M274.214,191.395c-24.023,6.218-50.612-0.064-69.427-18.88l0,0
	c-25.416-25.416-28.347-65.625-6.886-94.458L256,0l18.214,24.47l-39.886,53.586c-21.461,28.833-18.53,69.043,6.886,94.458l0,0
	C250.683,181.984,262.125,188.266,274.214,191.395z"/>
<path style="fill:#FFB46E;" d="M204.786,108.787c-5.788-5.788-10.396-12.348-13.829-19.361c1.932-3.935,4.243-7.742,6.943-11.369
	L256,0l58.099,78.057c2.7,3.627,5.011,7.435,6.943,11.369c-3.433,7.013-8.041,13.573-13.829,19.361l0,0
	c-4.731,4.731-9.958,8.657-15.509,11.801c-2.204,1.248-4.991,0.676-6.503-1.355L256,80l-29.201,39.232
	c-1.512,2.032-4.299,2.603-6.503,1.355C214.744,117.444,209.517,113.517,204.786,108.787L204.786,108.787z"/>
<path style="fill:#FFC37D;" d="M314.099,78.057c2.7,3.627,5.011,7.435,6.943,11.369c-3.433,7.013-8.041,13.573-13.829,19.361l0,0
	c-4.731,4.731-9.958,8.657-15.509,11.801c-2.204,1.248-4.991,0.676-6.503-1.355l-27.597-37.076c-0.8-1.074-2.409-1.074-3.209,0
	l-28.115,37.772c-1.2,1.613-3.407,2.077-5.166,1.103c-0.37-0.205-0.739-0.413-1.106-0.623c0.178-14.833,4.895-29.689,14.32-42.351
	l39.886-53.586L314.099,78.057z"/>
<path style="fill:#FFE473;" d="M210,260h-25c-8.525,0-15.389-7.111-14.983-15.725c0.38-8.068,7.33-14.275,15.407-14.275h28
	c-8.077,0-15.027,6.207-15.407,14.275c-0.357,7.575,4.91,13.983,11.983,15.42V260z"/>
<g>
</g>
<g>
</g>
<g>
</g>
<g>
</g>
<g>
</g>
<g>
</g>
<g>
</g>
<g>
</g>
<g>
</g>
<g>
</g>
<g>
</g>
<g>
</g>
<g>
</g>
<g>
</g>
<g>
</g>
</svg>
