<?xml version="1.0" encoding="iso-8859-1"?>
<!-- Generator: Adobe Illustrator 19.0.0, SVG Export Plug-In . SVG Version: 6.00 Build 0)  -->
<svg version="1.1" id="Capa_1" xmlns="http://www.w3.org/2000/svg" xmlns:xlink="http://www.w3.org/1999/xlink" x="0px" y="0px"
	 viewBox="0 0 512 512" style="enable-background:new 0 0 512 512;" xml:space="preserve">
<path style="fill:#614182;" d="M512,256c0,141.385-114.615,256-256,256c-0.995,0-1.984-0.026-2.976-0.038
	c-2.568-45.929-40.62-82.382-87.191-82.382c-26.107,0-49.534,11.459-65.538,29.618C39.321,412.404,0,338.8,0,256
	C0,114.615,114.615,0,256,0S512,114.615,512,256z"/>
<path style="fill:#3F2F55;" d="M480.333,87.878l-87.999,328.415c-0.715,2.667-3.456,4.25-6.124,3.535l-85.296-22.855l27.994,104.475
	C305.799,508.302,281.333,512,256,512c-0.995,0-1.984-0.027-2.976-0.038c-2.568-45.929-40.62-82.382-87.191-82.382
	c-26.104,0-49.529,11.457-65.533,29.612c-9.672-7.424-18.805-15.516-27.317-24.219L20.172,237.878
	c-0.715-2.667,0.868-5.409,3.536-6.124l193.881-51.95L258.17,28.35c0.715-2.667,3.456-4.25,6.124-3.535l212.504,56.94
	C479.465,82.469,481.048,85.211,480.333,87.878z"/>
<path style="fill:#189681;" d="M344.475,482.289c0.715,2.667-0.868,5.409-3.535,6.124l-87.889,23.55
	c-57.484-0.666-110.478-20.252-152.901-52.857L34.314,213.403c-0.715-2.667,0.868-5.409,3.536-6.124l212.504-56.94
	c2.667-0.715,5.409,0.868,6.124,3.535L344.475,482.289z"/>
<path style="fill:#A5EBCE;" d="M359.135,459.707c0.715,2.667-0.868,5.409-3.536,6.124l-152.133,40.764
	c-27.951-5.83-54.223-16.224-78.016-30.358L48.974,190.82c-0.715-2.667,0.868-5.409,3.536-6.124l212.504-56.94
	c2.667-0.715,5.409,0.868,6.124,3.535L359.135,459.707z"/>
<path style="fill:#79D2AB;" d="M345.529,408.928l-171.822-46.04c-2.667-0.715-4.25-3.457-3.536-6.124l58.773-219.344l36.068-9.664
	c2.667-0.715,5.409,0.868,6.124,3.535L345.529,408.928z"/>
<path style="fill:#8DE1BA;" d="M331.622,453.62l-162.028,43.415c-6.823-2.446-13.512-5.17-20.053-8.166L72.951,203.03
	c-0.715-2.667,0.868-5.409,3.536-6.124l173.867-46.587c2.667-0.715,5.409,0.868,6.124,3.535l78.681,293.641
	C335.872,450.164,334.29,452.905,331.622,453.62z"/>
<path style="fill:#79D2AB;" d="M323.222,402.951l-149.515-40.063c-2.667-0.715-4.25-3.457-3.536-6.124l53.394-199.267l26.788-7.178
	c2.667-0.715,5.409,0.868,6.124,3.535L323.222,402.951z"/>
<path style="fill:#52C3A3;" d="M227.348,412.197c-48.012,12.865-97.362-15.628-110.227-63.64s15.628-97.362,63.64-110.227
	s97.362,15.627,110.227,63.64C303.852,349.981,275.36,399.332,227.348,412.197z M239.837,217.324
	c8.002-2.144,12.751-10.369,10.607-18.371c-2.144-8.002-10.369-12.751-18.371-10.607c-8.002,2.144-12.751,10.369-10.607,18.371
	C223.61,214.719,231.835,219.468,239.837,217.324z M119.096,249.677c8.002-2.144,12.751-10.369,10.607-18.371
	c-2.144-8.002-10.369-12.751-18.371-10.607c-8.002,2.144-12.751,10.369-10.607,18.371
	C102.869,247.072,111.094,251.821,119.096,249.677z M168.272,433.202c-8.002,2.144-12.751,10.369-10.607,18.371
	c2.144,8.002,10.369,12.75,18.371,10.606s12.751-10.369,10.607-18.371C184.499,435.807,176.274,431.058,168.272,433.202z
	 M307.384,411.457c-2.144-8.002-10.369-12.75-18.371-10.606s-12.751,10.369-10.607,18.371s10.369,12.751,18.371,10.607
	C304.779,427.684,309.528,419.459,307.384,411.457z"/>
<path style="fill:#35AF94;" d="M152.383,209.699c-2.859-10.669,3.473-21.636,14.142-24.495c10.669-2.859,21.636,3.473,24.495,14.142
	c2.859,10.669-3.473,21.636-14.142,24.495S155.242,220.368,152.383,209.699z M231.23,426.686
	c-10.669,2.859-17.001,13.826-14.142,24.495s13.826,17.001,24.495,14.142c10.669-2.859,17.001-13.825,14.142-24.495
	S241.9,423.827,231.23,426.686z M232.029,341.414l36.743-33.492l-48.566-10.633l-33.492-36.743l-10.633,48.566l-36.743,33.492
	l48.566,10.633l33.492,36.743L232.029,341.414z"/>
<path style="fill:#FFF9C8;" d="M511.828,63.236L423.83,391.65c-0.715,2.667-3.456,4.25-6.124,3.536l-212.504-56.94
	c-2.667-0.715-4.25-3.456-3.536-6.124L289.665,3.707c0.715-2.667,3.456-4.25,6.124-3.536l212.504,56.94
	C510.96,57.827,512.543,60.568,511.828,63.236z"/>
<path style="fill:#FF823B;" d="M385.445,206.459l-37.615,30.025c-0.935,0.746-2.325,0.374-2.761-0.74l-17.563-44.81
	c-0.284-0.725-0.063-1.55,0.545-2.036l37.615-30.025c0.935-0.746,2.325-0.374,2.761,0.74l17.563,44.81
	C386.274,205.148,386.053,205.973,385.445,206.459z M359.648,114.06l-17.563-44.81c-0.437-1.113-1.826-1.486-2.761-0.74
	l-37.615,30.024c-0.608,0.486-0.83,1.311-0.546,2.036l17.563,44.81c0.437,1.113,1.826,1.486,2.761,0.74l37.615-30.025
	C359.711,115.61,359.932,114.785,359.648,114.06z M453.985,139.337l-17.563-44.81c-0.436-1.113-1.826-1.486-2.761-0.74
	l-37.615,30.024c-0.608,0.486-0.83,1.311-0.545,2.036l17.563,44.81c0.436,1.113,1.826,1.486,2.761,0.74l37.615-30.025
	C454.047,140.888,454.269,140.062,453.985,139.337z M300.432,224.699c-0.436-1.113-1.826-1.486-2.761-0.74l-37.615,30.025
	c-0.609,0.486-0.83,1.311-0.546,2.036l17.563,44.81c0.436,1.113,1.826,1.486,2.761,0.74l37.615-30.024
	c0.608-0.486,0.83-1.311,0.545-2.036L300.432,224.699z M394.769,249.977c-0.437-1.113-1.826-1.486-2.761-0.74l-37.615,30.025
	c-0.608,0.486-0.83,1.311-0.545,2.036l17.563,44.81c0.437,1.113,1.826,1.486,2.761,0.74l37.615-30.024
	c0.608-0.486,0.83-1.311,0.545-2.036L394.769,249.977z"/>
<path style="fill:#FFC37D;" d="M326.662,39.502c-2.144,8.002-10.369,12.751-18.371,10.607c-8.002-2.144-12.751-10.369-10.607-18.371
	s10.369-12.751,18.371-10.607S328.806,31.5,326.662,39.502z M405.205,345.249c-8.002-2.144-16.227,2.605-18.371,10.607
	c-2.144,8.002,2.605,16.227,10.607,18.371c8.002,2.144,16.227-2.605,18.371-10.607S413.207,347.393,405.205,345.249z"/>
<g>
</g>
<g>
</g>
<g>
</g>
<g>
</g>
<g>
</g>
<g>
</g>
<g>
</g>
<g>
</g>
<g>
</g>
<g>
</g>
<g>
</g>
<g>
</g>
<g>
</g>
<g>
</g>
<g>
</g>
</svg>
