<?xml version="1.0" encoding="iso-8859-1"?>
<!-- Generator: Adobe Illustrator 19.0.0, SVG Export Plug-In . SVG Version: 6.00 Build 0)  -->
<svg version="1.1" id="Capa_1" xmlns="http://www.w3.org/2000/svg" xmlns:xlink="http://www.w3.org/1999/xlink" x="0px" y="0px"
	 viewBox="0 0 512 512" style="enable-background:new 0 0 512 512;" xml:space="preserve">
<path style="fill:#384E64;" d="M512,256c0,141.385-114.615,256-256,256S0,397.385,0,256S114.615,0,256,0S512,114.615,512,256z"/>
<path style="fill:#ABD6DC;" d="M438.297,222.561c0,100.68-81.617,182.297-182.297,182.297S73.703,323.242,73.703,222.561
	S155.32,40.264,256,40.264S438.297,121.881,438.297,222.561z"/>
<path style="fill:#BEE5EB;" d="M438.297,222.561c0,94.316-71.627,171.901-163.451,181.332
	c-91.825-9.431-163.451-87.016-163.451-181.332S183.021,50.66,274.846,41.229C366.671,50.66,438.297,128.245,438.297,222.561z"/>
<path style="fill:#DAF0F6;" d="M299.522,345.889c3.203,3.203,3.203,8.395,0,11.598s-8.395,3.203-11.598,0l-10.602-10.602
	l-16.285,16.284h-18.158v-1.64c0-2.175,0.864-4.261,2.402-5.799l20.443-20.443l-17.163-17.163c-1.538-1.538-2.402-3.624-2.402-5.799
	v-32.802c0-4.529,3.672-8.201,8.201-8.201c4.529,0,8.201,3.671,8.201,8.201v29.406L299.522,345.889z M360.377,284.287h-52.271
	l-20.594-20.594c-3.089-3.089-8.116-3.455-11.398-0.572c-3.596,3.159-3.729,8.641-0.398,11.971l23.195,23.195
	c1.538,1.538,3.624,2.402,5.798,2.402h24.272V329.6c0,2.175,0.864,4.26,2.402,5.798l14.717,14.717
	c0.546-0.4,1.089-0.804,1.629-1.211c6.128-4.618,6.773-13.583,1.347-19.008l0,0c-2.364-2.364-3.693-5.571-3.693-8.915v-20.292
	h14.713c4.368,0,8.182-3.296,8.464-7.655C368.869,288.258,365.087,284.287,360.377,284.287z M287.893,222.324l23.195-23.195
	c1.538-1.538,2.402-3.624,2.402-5.798v-24.272h28.91c2.175,0,4.261-0.864,5.799-2.402l25.31-25.31
	c2.964-2.964,3.172-7.686,0.514-10.927c-0.035-0.042-0.07-0.085-0.105-0.127c-3.036-3.694-8.615-3.935-11.996-0.554l-22.919,22.919
	h-25.514v-14.713c0-4.368-3.296-8.182-7.655-8.464c-4.776-0.309-8.747,3.473-8.747,8.183v52.271l-20.594,20.594
	c-3.089,3.089-3.454,8.116-0.572,11.398C279.081,225.521,284.563,225.654,287.893,222.324z M222.947,261.755l-23.195,23.195
	c-1.538,1.538-2.402,3.624-2.402,5.799v24.272h-28.91c-2.175,0-4.261,0.864-5.799,2.402l-15.966,15.966
	c3.817,3.923,7.837,7.645,12.054,11.141l13.108-13.108h25.514v14.994c0,4.529,3.672,8.201,8.201,8.201s8.201-3.672,8.201-8.201
	v-52.271l20.793-20.793c3.203-3.203,3.203-8.395,0-11.597C231.342,258.553,226.15,258.553,222.947,261.755z M247.799,176.311v29.125
	c0,4.368,3.296,8.182,7.655,8.464c4.776,0.309,8.746-3.473,8.746-8.183v-32.803c0-2.175-0.864-4.26-2.402-5.798l-17.163-17.163
	l20.443-20.443c1.538-1.538,2.402-3.624,2.402-5.798V79.577c0-2.627-2.063-4.804-4.688-4.92c-2.252-0.1-4.517-0.15-6.793-0.15
	c-0.016,0-0.033,0-0.049,0c-2.698,0.001-4.871,2.222-4.871,4.92v40.887l-18.041,18.041l-10.404-10.404
	c-3.089-3.089-8.116-3.455-11.398-0.572c-3.596,3.159-3.729,8.641-0.399,11.971L247.799,176.311z M189.692,250h29.125
	c4.368,0,8.182-3.296,8.464-7.655c0.309-4.776-3.473-8.746-8.183-8.746h-32.803c-2.175,0-4.26,0.864-5.798,2.402l-17.163,17.163
	L142.89,232.72c-1.538-1.538-3.623-2.402-5.798-2.402h-25.049c-4.721,0-8.469,4.016-8.104,8.724
	c0.004,0.055,0.008,0.109,0.013,0.164c0.333,4.237,3.854,7.514,8.104,7.514h21.639l18.041,18.041l-10.602,10.602
	c-3.33,3.33-3.198,8.813,0.399,11.971c3.282,2.882,8.309,2.516,11.398-0.572L189.692,250z M213.089,186.951
	c-1.538-1.538-3.623-2.402-5.798-2.402h-24.272v-28.91c0-2.175-0.864-4.261-2.402-5.799l-25.7-25.7
	c-3.271-3.271-8.623-3.163-11.738,0.256c-0.037,0.04-0.074,0.081-0.111,0.121c-2.921,3.213-2.814,8.154,0.257,11.225l23.293,23.293
	v25.514h-14.713c-4.368,0-8.182,3.296-8.464,7.655c-0.309,4.776,3.473,8.747,8.183,8.747h52.271l20.594,20.594
	c3.089,3.089,8.116,3.455,11.398,0.572c3.596-3.159,3.729-8.64,0.398-11.971L213.089,186.951z M399.082,238.519h-20.777
	l-18.041-18.041l10.404-10.404c3.089-3.089,3.455-8.116,0.572-11.398c-3.159-3.596-8.641-3.729-11.971-0.399l-36.961,36.961h-29.125
	c-4.368,0-8.182,3.296-8.464,7.655c-0.309,4.776,3.473,8.746,8.183,8.746h32.803c2.175,0,4.26-0.864,5.798-2.402l17.163-17.163
	l20.443,20.443c1.538,1.538,3.624,2.402,5.799,2.402h24.152c4.08,0,7.503-3.03,8.056-7.072c0.007-0.055,0.015-0.109,0.022-0.164
	C407.799,242.83,403.981,238.519,399.082,238.519z"/>
<path style="fill:#35AF94;" d="M334.726,227.038c0,43.479-35.247,78.726-78.726,78.726s-78.726-35.247-78.726-78.726
	s35.247-78.726,78.726-78.726S334.726,183.559,334.726,227.038z"/>
<path style="fill:#189681;" d="M268.711,304.728c-4.139,0.672-8.382,1.036-12.711,1.036c-43.479,0-78.726-35.247-78.726-78.726
	s35.247-78.726,78.726-78.726c4.329,0,8.572,0.364,12.711,1.036c-37.433,6.079-66.015,38.54-66.015,77.69
	S231.278,298.649,268.711,304.728z"/>
<path style="fill:#52C3A3;" d="M334.726,227.038c0,7.688-1.107,15.116-3.161,22.14l-0.061,0.061
	c-1.538,1.538-3.624,2.402-5.799,2.402h-32.802c-4.529,0-8.201-3.671-8.201-8.201c0-4.529,3.671-8.201,8.201-8.201h29.406
	l12.311-12.311C334.69,224.289,334.726,225.659,334.726,227.038z M287.893,222.324l23.195-23.195
	c1.538-1.538,2.402-3.624,2.402-5.799v-20.068c-4.83-5.161-10.344-9.672-16.402-13.386v30.058l-20.793,20.793
	c-3.203,3.203-3.203,8.395,0,11.597C279.498,225.527,284.69,225.527,287.893,222.324z M222.947,261.755l-21.773,21.773
	c3.952,3.836,8.304,7.26,12.989,10.206l20.381-20.381c3.203-3.203,3.203-8.395,0-11.597
	C231.342,258.553,226.15,258.553,222.947,261.755z M213.09,186.952c-1.538-1.538-3.624-2.402-5.799-2.402h-17.577
	c-3.272,5.095-5.969,10.593-8.008,16.402h22.189l20.793,20.793c3.203,3.203,8.395,3.203,11.597,0c3.203-3.203,3.203-8.395,0-11.597
	L213.09,186.952z M254.36,271.322c-4.529,0-8.201,3.671-8.201,8.201v25.631c3.224,0.402,6.508,0.611,9.841,0.611
	c2.21,0,4.397-0.096,6.56-0.274v-25.968C262.56,274.993,258.889,271.322,254.36,271.322z M244.636,149.953l0.954-0.954
	c-6.919,0.914-13.555,2.727-19.786,5.318l21.995,21.995v29.406c0,4.529,3.671,8.201,8.201,8.201s8.201-3.671,8.201-8.201v-32.802
	c0-2.175-0.864-4.261-2.402-5.799L244.636,149.953z M287.313,263.495c-3.203-3.203-8.395-3.203-11.597,0
	c-3.203,3.203-3.203,8.395,0,11.597l19.955,19.955c5.197-3.038,10.014-6.653,14.364-10.76h-1.928L287.313,263.495z M227.298,241.799
	c0-4.529-3.671-8.201-8.201-8.201h-32.802c-2.175,0-4.261,0.864-5.799,2.402l-2.402,2.402c0.92,6.361,2.6,12.475,4.946,18.249
	l6.652-6.652h29.406C223.626,250,227.298,246.329,227.298,241.799z"/>
<path style="fill:#295A5F;" d="M285.522,227.038c0,16.305-13.218,29.522-29.522,29.522s-29.522-13.218-29.522-29.522
	s13.218-29.522,29.522-29.522S285.522,210.734,285.522,227.038z"/>
<path style="fill:#1B4450;" d="M268.301,253.875c-3.746,1.72-7.909,2.686-12.301,2.686c-16.305,0-29.522-13.218-29.522-29.522
	s13.218-29.522,29.522-29.522c4.392,0,8.555,0.966,12.301,2.686c-10.161,4.665-17.221,14.923-17.221,26.836
	S258.14,249.209,268.301,253.875z"/>
<path style="fill:#FFF9C8;" d="M133.64,292.38l-9.63,5.267c-0.275,0.151-0.501,0.377-0.652,0.652l-5.267,9.63
	c-0.622,1.138-2.256,1.138-2.878,0l-5.267-9.63c-0.151-0.275-0.377-0.501-0.652-0.652l-9.63-5.267c-1.138-0.622-1.138-2.256,0-2.878
	l9.63-5.267c0.275-0.151,0.501-0.377,0.652-0.652l5.267-9.63c0.622-1.138,2.256-1.138,2.878,0l5.267,9.63
	c0.151,0.275,0.377,0.501,0.652,0.652l9.63,5.267C134.778,290.124,134.778,291.758,133.64,292.38z M410.697,299.467l-9.63-5.267
	c-0.275-0.151-0.501-0.377-0.652-0.652l-5.267-9.63c-0.622-1.138-2.256-1.138-2.878,0l-5.267,9.63
	c-0.151,0.275-0.377,0.501-0.652,0.652l-9.63,5.267c-1.138,0.622-1.138,2.256,0,2.878l9.63,5.267
	c0.275,0.151,0.501,0.377,0.652,0.652l5.267,9.63c0.622,1.138,2.256,1.138,2.878,0l5.267-9.63c0.15-0.275,0.377-0.501,0.652-0.652
	l9.63-5.267C411.834,301.723,411.834,300.089,410.697,299.467z M332.409,90.733l-9.63-5.267c-0.275-0.151-0.501-0.377-0.652-0.652
	l-5.267-9.63c-0.622-1.138-2.256-1.138-2.878,0l-5.267,9.63c-0.151,0.275-0.377,0.501-0.652,0.652l-9.63,5.267
	c-1.138,0.622-1.138,2.256,0,2.878l9.63,5.267c0.275,0.151,0.501,0.377,0.652,0.652l5.267,9.63c0.622,1.138,2.256,1.138,2.878,0
	l5.267-9.63c0.151-0.275,0.377-0.501,0.652-0.652l9.63-5.267C333.546,92.989,333.546,91.355,332.409,90.733z"/>
<path style="fill:#DAF0F6;" d="M285.91,254.919l-9.63,5.267c-0.275,0.151-0.501,0.377-0.652,0.652l-5.267,9.63
	c-0.622,1.138-2.256,1.138-2.878,0l-5.267-9.63c-0.151-0.275-0.377-0.501-0.652-0.652l-9.63-5.267c-1.137-0.622-1.137-2.256,0-2.878
	l9.63-5.267c0.275-0.151,0.501-0.377,0.652-0.652l5.267-9.63c0.622-1.138,2.256-1.138,2.878,0l5.267,9.63
	c0.151,0.275,0.377,0.501,0.652,0.652l9.63,5.267C287.047,252.663,287.047,254.297,285.91,254.919z"/>
<path style="fill:#1B4450;" d="M217.424,181.114l-9.63,5.267c-0.275,0.151-0.501,0.377-0.652,0.652l-5.267,9.63
	c-0.622,1.138-2.256,1.138-2.878,0l-5.267-9.63c-0.151-0.275-0.377-0.501-0.652-0.652l-9.63-5.267c-1.138-0.622-1.138-2.256,0-2.878
	l9.63-5.267c0.275-0.151,0.501-0.377,0.652-0.652l5.267-9.63c0.622-1.138,2.256-1.138,2.878,0l5.267,9.63
	c0.151,0.275,0.377,0.501,0.652,0.652l9.63,5.267C218.562,178.858,218.562,180.491,217.424,181.114z"/>
<path style="fill:#189681;" d="M332.233,181.116l-9.63-5.267c-0.275-0.151-0.501-0.377-0.652-0.652l-5.267-9.63
	c-0.622-1.138-2.256-1.138-2.878,0l-5.267,9.63c-0.15,0.275-0.377,0.501-0.652,0.652l-9.63,5.267c-1.137,0.622-1.137,2.256,0,2.878
	l9.63,5.267c0.275,0.15,0.501,0.377,0.652,0.652l5.267,9.63c0.622,1.137,2.256,1.137,2.878,0l5.267-9.63
	c0.151-0.275,0.377-0.501,0.652-0.652l9.63-5.267C333.37,183.372,333.37,181.738,332.233,181.116z"/>
<path style="fill:#EDC555;" d="M340,400.95V420c0,16.569-13.431,30-30,30h-9.199C307.832,462.535,312,478.115,312,495
	c0,3.728-0.21,7.389-0.602,10.971C293.557,509.907,275.024,512,256,512s-37.557-2.093-55.398-6.029
	C200.21,502.389,200,498.728,200,495c0-16.885,4.168-32.465,11.199-45H200c-16.569,0-30-13.431-30-30v-19.05H340z"/>
<path style="fill:#E3B64B;" d="M297.874,508.397c-5.84,0.987-11.75,1.766-17.717,2.351c-0.531-15.292-2.006-28.965-4.118-39.443
	c-1.127-5.592-0.406-11.452,2.241-16.506c1.623-3.099,3.385-4.799,5.226-4.799C290.585,450,296.492,475.057,297.874,508.397z
	 M255,450c-6.259,0-11.333,25.37-11.333,56.667c0,1.71,0.021,3.393,0.051,5.064c3.742,0.164,7.5,0.269,11.283,0.269
	s7.54-0.106,11.283-0.269c0.03-1.67,0.051-3.354,0.051-5.064C266.333,475.37,261.259,450,255,450z M367,360H145
	c-13.807,0-25,11.193-25,25l0,0c0,13.807,11.193,25,25,25h25v10c0,16.569,13.431,30,30,30h10.214
	C203.178,462.533,199,478.109,199,495c0,3.728,0.21,7.389,0.602,10.971c9.227,2.036,18.642,3.568,28.211,4.583
	c-0.068-1.989-0.112-3.989-0.112-6.008c0-15.009,1.865-29.241,5.203-42.005c1.659-6.344-3.107-12.54-9.664-12.54h-2.43
	c-14.281,0-26.222-9.982-29.25-23.346c2.679,3.889,7.199,6.413,12.306,6.297c7.534-0.17,13.824-6.297,14.178-13.825
	c0.161-3.413-0.871-6.572-2.695-9.126h73.75c-1.697,2.378-2.706,5.28-2.706,8.424c0,8.025,6.505,14.53,14.53,14.53
	s14.53-6.505,14.53-14.53c0-3.144-1.009-6.047-2.706-8.424H367c13.807,0,25-11.193,25-25l0,0C392,371.193,380.807,360,367,360z"/>
<path style="fill:#EDC555;" d="M392,385L392,385c0,1.146-0.084,2.272-0.233,3.377c-1.105,0.149-2.231,0.233-3.377,0.233h-222
	c-13.807,0-25-11.193-25-25l0,0c0-1.146,0.084-2.272,0.233-3.377c1.105-0.149,2.231-0.233,3.377-0.233h222
	C380.807,360,392,371.193,392,385z"/>
<g>
</g>
<g>
</g>
<g>
</g>
<g>
</g>
<g>
</g>
<g>
</g>
<g>
</g>
<g>
</g>
<g>
</g>
<g>
</g>
<g>
</g>
<g>
</g>
<g>
</g>
<g>
</g>
<g>
</g>
</svg>
