<?xml version="1.0" encoding="iso-8859-1"?>
<!-- Generator: Adobe Illustrator 19.0.0, SVG Export Plug-In . SVG Version: 6.00 Build 0)  -->
<svg version="1.1" id="Capa_1" xmlns="http://www.w3.org/2000/svg" xmlns:xlink="http://www.w3.org/1999/xlink" x="0px" y="0px"
	 viewBox="0 0 512 512" style="enable-background:new 0 0 512 512;" xml:space="preserve">
<path style="fill:#52C3A3;" d="M512,256c0,141.385-114.615,256-256,256S0,397.385,0,256S114.615,0,256,0S512,114.615,512,256z"/>
<path style="fill:#DAF0F6;" d="M242.23,204.444c2.079,7.76-2.526,15.736-10.285,17.815l-84.913,22.752
	c-7.76,2.079-15.736-2.526-17.815-10.286l-5.64-21.049c-17.654-65.888-20.072-134.93-7.069-201.891l0,0
	c2.311-11.899,17.308-15.918,25.259-6.768l0,0c44.741,51.488,77.169,112.49,94.824,178.378L242.23,204.444z M395.492,11.785
	L395.492,11.785c-2.311-11.899-17.308-15.918-25.259-6.768l0,0c-44.741,51.488-77.169,112.49-94.824,178.378l-5.64,21.049
	c-2.079,7.76,2.526,15.736,10.285,17.815l84.913,22.752c7.76,2.079,15.736-2.526,17.815-10.286l5.64-21.049
	C406.078,147.789,408.495,78.746,395.492,11.785z"/>
<path style="fill:#BEE5EB;" d="M157.546,242.194l-10.514,2.817c-7.76,2.079-15.736-2.526-17.815-10.286l-5.64-21.049
	c-17.654-65.888-20.072-134.93-7.069-201.891l0,0c2.311-11.899,17.308-15.918,25.259-6.768l0,0c0.261,0.3,0.516,0.605,0.776,0.906
	c-1.209,1.65-2.099,3.615-2.535,5.862l0,0c-13.003,66.961-10.585,136.004,7.069,201.891l5.64,21.049
	C153.535,237.779,155.274,240.333,157.546,242.194z M293.27,204.444l5.64-21.049c17.552-65.503,49.71-126.173,94.048-177.472
	c-5.19-7.084-16.275-8.328-22.724-0.906l0,0c-44.741,51.488-77.169,112.49-94.824,178.378l-5.64,21.049
	c-2.079,7.76,2.526,15.736,10.285,17.815l84.913,22.752c4.707,1.261,9.484,0.052,12.986-2.817l-74.399-19.935
	C295.796,220.18,291.191,212.204,293.27,204.444z"/>
<path style="fill:#ABD6DC;" d="M197.507,205.605c2.144,8.002-2.605,16.227-10.607,18.371s-16.227-2.605-18.371-10.607
	L137.471,97.458c-2.144-8.002,2.605-16.227,10.607-18.371s16.227,2.605,18.371,10.607L197.507,205.605z M363.923,79.087
	c-8.002-2.144-16.227,2.605-18.371,10.607l-31.058,115.911c-2.144,8.002,2.605,16.227,10.607,18.371
	c8.002,2.144,16.227-2.605,18.371-10.607L374.53,97.458C376.673,89.456,371.925,81.231,363.923,79.087z"/>
<path style="fill:#384E64;" d="M391,250v223.531C351.806,497.906,305.552,512,256,512s-95.806-14.094-135-38.469V250H391z"/>
<path style="fill:#3C5D78;" d="M170,290h221v183.531C351.806,497.906,305.552,512,256,512c-37.809,0-73.7-8.203-106-22.916V310
	C150,298.954,158.954,290,170,290z M459.304,200H387H125H52.696c-3.075,0-5.008,3.331-3.475,5.997
	c13.155,22.865,33.73,40.651,58.414,50.33l1.918,0.752C114.474,259.009,119.714,260,125,260h262c5.286,0,10.526-0.991,15.448-2.921
	l1.918-0.752c24.684-9.68,45.259-27.465,58.414-50.33C464.313,203.331,462.38,200,459.304,200z"/>
<path style="fill:#FFE473;" d="M391,370H121v-50h270V370z"/>
<path style="fill:#FFCD61;" d="M150,370h-29v-50h29V370z"/>
<g>
</g>
<g>
</g>
<g>
</g>
<g>
</g>
<g>
</g>
<g>
</g>
<g>
</g>
<g>
</g>
<g>
</g>
<g>
</g>
<g>
</g>
<g>
</g>
<g>
</g>
<g>
</g>
<g>
</g>
</svg>
