<?xml version="1.0" encoding="iso-8859-1"?>
<!-- Generator: Adobe Illustrator 19.0.0, SVG Export Plug-In . SVG Version: 6.00 Build 0)  -->
<svg version="1.1" id="Capa_1" xmlns="http://www.w3.org/2000/svg" xmlns:xlink="http://www.w3.org/1999/xlink" x="0px" y="0px"
	 viewBox="0 0 512 512" style="enable-background:new 0 0 512 512;" xml:space="preserve">
<path style="fill:#FFCFC3;" d="M512,256c0,141.385-114.615,256-256,256S0,397.385,0,256S114.615,0,256,0S512,114.615,512,256z"/>
<path style="fill:#35AF94;" d="M440,135c0,8.284-6.716,15-15,15H295c-8.284,0-15,6.716-15,15s6.716,15,15,15h32
	c8.284,0,15,6.716,15,15s-6.716,15-15,15h-45v15c0,8.284-6.716,15-15,15h-22c-8.284,0-15-6.716-15-15v-15h-45
	c-8.284,0-15-6.716-15-15s6.716-15,15-15h40c8.284,0,15-6.716,15-15s-6.716-15-15-15h-80c-8.284,0-15-6.716-15-15s6.716-15,15-15
	h80.001c8.284,0,14.999-6.716,14.999-15s-6.716-15-15-15H85c-8.284,0-15-6.716-15-15s6.716-15,15-15h160.001
	C253.285,60,260,53.284,260,45s-6.716-15-15-15h-30c-8.284,0-15-6.716-15-15s6.716-15,15-15h82c8.284,0,15,6.716,15,15
	s-6.716,15-15,15h-2c-8.284,0-15,6.716-15,15s6.715,15,14.999,15H365c8.284,0,15,6.716,15,15s-6.716,15-15,15h-50
	c-8.284,0-15,6.716-15,15s6.715,15,14.999,15H425C433.284,120,440,126.716,440,135z"/>
<path style="fill:#189681;" d="M233,30h-19c-8.284,0-15-6.716-15-15s6.716-15,15-15h19c-8.284,0-15,6.716-15,15S224.716,30,233,30z
	 M164,120h-19c-8.284,0-15,6.716-15,15s6.716,15,15,15h19c-8.284,0-15-6.716-15-15S155.716,120,164,120z M249,225v-5
	c0-5.523-4.477-10-10-10h-9v15c0,8.284,6.716,15,15,15h19C255.716,240,249,233.284,249,225z M204,180h-19c-8.284,0-15,6.716-15,15
	s6.716,15,15,15h19c-8.284,0-15-6.716-15-15S195.716,180,204,180z M104,60H85c-8.284,0-15,6.716-15,15s6.716,15,15,15h19
	c-8.284,0-15-6.716-15-15S95.716,60,104,60z"/>
<path style="fill:#FFF9C8;" d="M322.472,113.511l-11.743,6.422c-0.336,0.184-0.612,0.46-0.795,0.795l-6.423,11.744
	c-0.759,1.387-2.751,1.387-3.509,0l-6.423-11.744c-0.183-0.335-0.459-0.612-0.795-0.795l-11.744-6.422
	c-1.387-0.759-1.387-2.751,0-3.51l11.744-6.422c0.335-0.184,0.611-0.459,0.795-0.795l6.423-11.744c0.759-1.387,2.751-1.387,3.509,0
	l6.423,11.744c0.184,0.336,0.459,0.612,0.795,0.795l11.743,6.422C323.86,110.76,323.86,112.752,322.472,113.511z M212.472,60.001
	l-11.744-6.422c-0.336-0.184-0.611-0.459-0.795-0.795L193.51,41.04c-0.759-1.387-2.751-1.387-3.509,0l-6.423,11.744
	c-0.183,0.336-0.459,0.612-0.795,0.795l-11.744,6.422c-1.387,0.759-1.387,2.751,0,3.51l11.744,6.422
	c0.335,0.184,0.611,0.46,0.795,0.795l6.423,11.744c0.759,1.387,2.751,1.387,3.509,0l6.423-11.744
	c0.184-0.335,0.459-0.612,0.795-0.795l11.744-6.422C213.86,62.752,213.86,60.76,212.472,60.001z"/>
<path style="fill:#40718C;" d="M352,454v39.372C322.352,505.375,289.952,512,256,512s-66.352-6.625-96-18.628V454
	c0-42.171,27.193-77.989,65-90.882V310c-5.523,0-10-4.477-10-10v-32c0-5.523,4.477-10,10-10h62c5.523,0,10,4.477,10,10v32
	c0,5.523-4.477,10-10,10v53.118C324.807,376.011,352,411.829,352,454z"/>
<path style="fill:#384E64;" d="M279.979,320.666c-0.344,5.315-4.995,9.334-10.321,9.334c-9.2,0-16.657,7.458-16.657,16.657v21.732
	c0,6.847-4.206,12.963-10.566,15.5C210.229,396.737,188,415.872,188,454v48.85c-9.568-2.632-18.914-5.799-28-9.478V454
	c0-42.171,27.193-77.989,65-90.882V310c-5.523,0-10-4.477-10-10v-32c0-5.523,4.477-10,10-10h21.667c-5.523,0-10,4.477-10,10v32
	c0,5.523,4.477,10,10,10H253h17C275.743,310,280.355,314.841,279.979,320.666z"/>
<g>
</g>
<g>
</g>
<g>
</g>
<g>
</g>
<g>
</g>
<g>
</g>
<g>
</g>
<g>
</g>
<g>
</g>
<g>
</g>
<g>
</g>
<g>
</g>
<g>
</g>
<g>
</g>
<g>
</g>
</svg>
