<?xml version="1.0" encoding="iso-8859-1"?>
<!-- Generator: Adobe Illustrator 19.0.0, SVG Export Plug-In . SVG Version: 6.00 Build 0)  -->
<svg version="1.1" id="Capa_1" xmlns="http://www.w3.org/2000/svg" xmlns:xlink="http://www.w3.org/1999/xlink" x="0px" y="0px"
	 viewBox="0 0 512 512" style="enable-background:new 0 0 512 512;" xml:space="preserve">
<path style="fill:#A5EBCE;" d="M512,256c0,141.385-114.615,256-256,256S0,397.385,0,256S114.615,0,256,0S512,114.615,512,256z"/>
<path style="fill:#D6A446;" d="M437.703,95c-40.967,0-74.296,33.329-74.296,74.296v35.206c-12.156-4.928-25.405-9.043-39.504-12.203
	c1.364-2.337,2.097-4.781,2.097-7.299c0-14.09-22.67-25.906-53.228-29.127c2.035-3.132,3.228-6.86,3.228-10.873
	c0-11.046-8.954-20-20-20s-20,8.954-20,20c0,4.013,1.193,7.741,3.228,10.873C208.67,159.094,186,170.91,186,185
	c0,2.518,0.733,4.962,2.097,7.299c-28.55,6.397-53.615,16.714-73.158,29.774L42.962,112.509c-1.849-2.814-4.99-4.509-8.358-4.509
	H5.734c-2.782,0-4.715,2.771-3.754,5.381l70.183,190.701c0.195,0.528,0.482,0.981,0.832,1.355
	c9.66,37.207,53.706,68.056,113.223,81.825c2.193,12.587,22.491,23.006,49.781,26.488v37.083
	c-26.004,2.212-45.661,8.623-49.354,16.482c-21.701,5.319-35.697,13.09-36.595,21.792C182.338,503.806,218.211,512,256,512
	s73.662-8.194,105.949-22.893c-0.899-8.702-14.894-16.473-36.595-21.792c-3.693-7.86-23.35-14.271-49.354-16.482V413.75
	c27.292-3.482,47.591-13.902,49.782-26.49c41.007-9.486,74.675-27.075,94.806-49.273c5.499,1.302,11.225,2.012,17.116,2.012
	C478.671,340,512,306.671,512,265.704v-96.408C512,128.329,478.671,95,437.703,95z M482,265.704
	C482,290.129,462.129,310,437.703,310c-0.023,0-0.046-0.002-0.069-0.002c2.2-6.475,3.366-13.159,3.366-19.998
	c0-27.039-18.013-51.688-47.593-70.301v-50.403c0-24.425,19.871-44.296,44.296-44.296h0.001C462.129,125,482,144.871,482,169.296
	V265.704z"/>
<path style="fill:#D587EB;" d="M359.983,44.275C360.389,52.889,353.525,60,345,60H215c-8.525,0-15.389,7.111-14.983,15.725
	c0.38,8.068,7.33,14.275,15.407,14.275H295c8.525,0,15.389,7.111,14.983,15.725c-0.38,8.068-7.33,14.275-15.407,14.275H151
	c-8.284,0-15-6.716-15-15l0,0c0-8.284-6.716-15-15-15H15C6.475,90-0.389,82.889,0.017,74.275C0.397,66.207,7.347,60,15.424,60H65
	c8.284,0,15-6.716,15-15l0,0c0-8.284,6.716-15,15-15h26c8.284,0,15-6.716,15-15l0,0c0-8.284,6.716-15,15-15h104
	c8.284,0,15,6.716,15,15l0,0c0,8.284,6.716,15,15,15h59.576C352.653,30,359.603,36.207,359.983,44.275z"/>
<path style="fill:#C9993F;" d="M502.5,169.296v96.408c0,24.425-19.871,44.296-44.297,44.296c-3.529,0-6.958-0.427-10.25-1.21
	C467.451,304.151,482,286.601,482,265.704v-96.408c0-20.896-14.549-38.447-34.046-43.086c3.292-0.783,6.721-1.21,10.25-1.21h0.001
	C482.629,125,502.5,144.871,502.5,169.296z M363.407,169.296v35.206c7.239,2.935,14.09,6.158,20.5,9.641v-44.847
	c0-37.488,27.915-68.562,64.046-73.572C444.6,95.259,441.182,95,437.703,95C396.736,95,363.407,128.329,363.407,169.296z M256,185
	c23.974,0,46.882,2.589,67.906,7.3c0.208-0.362,0.407-0.725,0.584-1.091c-26.514-11.566-58.69-19.039-93.704-20.8
	c9.137-7.017,24.651-12.3,43.188-14.406c-5.737-0.651-16.843-0.99-16.276-0.984C255.988,152.071,255,148.653,255,145
	c0-7.607,4.248-14.221,10.5-17.602c-2.826-1.529-6.061-2.398-9.5-2.398c-11.046,0-20,8.954-20,20c0,4.013,1.193,7.741,3.228,10.873
	c0.003,0,0.006,0,0.009-0.001C208.675,159.092,186,170.909,186,185c0,2.518,0.733,4.962,2.097,7.299
	C209.12,187.588,232.027,185,256,185z M207.219,366.266c-59.52-13.77-103.563-44.62-113.224-81.828
	c-0.35-0.374-0.637-0.827-0.832-1.355L28.729,108H5.734c-2.782,0-4.715,2.771-3.754,5.382l70.183,190.7
	c0.195,0.528,0.482,0.981,0.832,1.355c9.66,37.208,53.704,68.059,113.224,81.828c2.195,12.586,22.497,23.008,49.781,26.49v37.077
	c-26.007,2.212-45.665,8.624-49.355,16.484c-21.701,5.319-35.695,13.089-36.593,21.791c13.469,6.132,27.56,11.134,42.157,14.878
	C184.417,499.81,180,495.051,180,490c0-4.652,3.76-9.054,10.44-12.983C200.388,484.601,225.983,490,256,490
	c4.094,0,8.099-0.106,12-0.299c-32.939-1.627-58-9.825-58-19.701s25.061-18.074,58-19.701c-2.616-0.129-5.295-0.203-8-0.248v-35.104
	c33.445-0.809,60.583-11.68,65.25-25.664v-3.561C312.697,390.848,295.713,394,277,394C240.121,394,209.924,381.774,207.219,366.266z
	"/>
<path style="fill:#EDC555;" d="M399.988,253.775c9.763,9.763,12.929,22.426,7.071,28.284c-5.858,5.858-18.521,2.692-28.284-7.071
	s-12.929-22.426-7.071-28.284C377.562,240.846,390.225,244.012,399.988,253.775z"/>
<path style="fill:#723782;" d="M131.727,77.461l6.423,11.744c0.184,0.336,0.459,0.611,0.795,0.795l11.744,6.423
	c1.387,0.759,1.387,2.751,0,3.509l-11.744,6.423c-0.336,0.184-0.611,0.459-0.795,0.795l-6.423,11.744
	c-0.759,1.387-2.751,1.387-3.509,0l-6.423-11.744c-0.184-0.336-0.459-0.611-0.795-0.795l-11.744-6.423
	c-1.387-0.759-1.387-2.751,0-3.509L121,90c0.336-0.184,0.611-0.459,0.795-0.795l6.423-11.744
	C128.976,76.074,130.969,76.074,131.727,77.461z"/>
<path style="fill:#AD61C8;" d="M292.472,29.998l-11.743,6.423c-0.336,0.184-0.612,0.459-0.795,0.795l-6.423,11.743
	c-0.759,1.387-2.751,1.387-3.51,0l-6.423-11.743c-0.183-0.336-0.459-0.612-0.795-0.795l-11.744-6.423
	c-1.387-0.759-1.387-2.751,0-3.51l11.744-6.423c0.335-0.184,0.612-0.459,0.795-0.795l6.423-11.743c0.759-1.387,2.751-1.387,3.51,0
	l6.423,11.743c0.184,0.336,0.459,0.612,0.795,0.795l11.743,6.423C293.86,27.248,293.86,29.24,292.472,29.998z M152.472,26.489
	l-11.743-6.423c-0.336-0.184-0.612-0.459-0.795-0.795l-6.423-11.743c-0.759-1.387-2.751-1.387-3.51,0l-6.423,11.743
	c-0.183,0.336-0.459,0.612-0.795,0.795l-11.744,6.423c-1.387,0.759-1.387,2.751,0,3.51l11.744,6.423
	c0.335,0.184,0.612,0.459,0.795,0.795l6.423,11.743c0.759,1.387,2.751,1.387,3.51,0l6.423-11.743
	c0.184-0.336,0.459-0.612,0.795-0.795l11.743-6.423C153.86,29.24,153.86,27.248,152.472,26.489z"/>
<g>
</g>
<g>
</g>
<g>
</g>
<g>
</g>
<g>
</g>
<g>
</g>
<g>
</g>
<g>
</g>
<g>
</g>
<g>
</g>
<g>
</g>
<g>
</g>
<g>
</g>
<g>
</g>
<g>
</g>
</svg>
