<?xml version="1.0" encoding="iso-8859-1"?>
<!-- Generator: Adobe Illustrator 19.0.0, SVG Export Plug-In . SVG Version: 6.00 Build 0)  -->
<svg version="1.1" id="Capa_1" xmlns="http://www.w3.org/2000/svg" xmlns:xlink="http://www.w3.org/1999/xlink" x="0px" y="0px"
	 viewBox="0 0 512 512" style="enable-background:new 0 0 512 512;" xml:space="preserve">
<path style="fill:#ABD6DC;" d="M512,256c0,141.385-114.615,256-256,256S0,397.385,0,256S114.615,0,256,0S512,114.615,512,256z"/>
<path style="fill:#723782;" d="M130,165c0,19.33-15.67,35-35,35s-35-15.67-35-35s15.67-35,35-35S130,145.67,130,165z M415,130
	c-19.33,0-35,15.67-35,35s15.67,35,35,35s35-15.67,35-35S434.33,130,415,130z"/>
<path style="fill:#9449AA;" d="M130,165c0,4.594-0.894,8.977-2.503,12.997c-4.019,1.609-8.402,2.503-12.997,2.503
	c-19.33,0-35-15.67-35-35c0-4.594,0.894-8.977,2.503-12.997C86.023,130.894,90.406,130,95,130C114.33,130,130,145.67,130,165z
	 M415,130c-4.594,0-8.977,0.894-12.997,2.503c-1.609,4.019-2.503,8.402-2.503,12.997c0,19.33,15.67,35,35,35
	c4.594,0,8.977-0.894,12.997-2.503c1.609-4.02,2.503-8.403,2.503-12.997C450,145.67,434.33,130,415,130z"/>
<path style="fill:#C9993F;" d="M375.996,482.173C340.202,501.203,299.365,512,256,512s-84.202-10.797-119.996-29.827
	c0-0.058-0.004-0.115-0.004-0.173c0-16.569,13.431-30,30-30h4.074c-0.044-0.662-0.074-1.327-0.074-2c0-16.569,13.431-30,30-30h16
	c0-12.629,5.859-23.884,15-31.215V210h50v178.785c9.141,7.331,15,18.585,15,31.215h16c16.569,0,30,13.431,30,30
	c0,0.673-0.03,1.338-0.074,2H346c16.569,0,30,13.431,30,30C376,482.058,375.996,482.115,375.996,482.173z"/>
<path style="fill:#E3B64B;" d="M346.85,495.378c0.37-0.14,0.738-0.282,1.107-0.424c-0.002,0.006-0.004,0.012-0.006,0.019
	C347.586,495.113,347.215,495.239,346.85,495.378z M342.264,497.068c1.535-0.549,3.064-1.112,4.585-1.69
	C345.328,495.956,343.8,496.518,342.264,497.068z M340.484,497.705c-2.113,0.739-4.236,1.459-6.373,2.144
	C336.249,499.165,338.371,498.444,340.484,497.705z M342.264,497.068c-0.593,0.213-1.185,0.429-1.781,0.637
	C341.079,497.497,341.671,497.281,342.264,497.068z M463.563,74.741l-82.282,152.81C359.535,267.937,323.303,297.53,281,311.329
	v77.457c9.141,7.331,15,18.585,15,31.215h16c16.569,0,30,13.431,30,30c0,0.673-0.03,1.338-0.074,2H346c16.569,0,30,13.431,30,30
	c0,0.058-0.004,0.115-0.004,0.173c-9.036,4.804-18.4,9.068-28.039,12.781c0.769-2.064,1.21-4.288,1.21-6.62c0-10.493-8.507-19-19-19
	s-19,8.507-19,19c0,6.536,3.302,12.299,8.327,15.718C299.191,509.237,277.919,512,256,512c-17.217,0-34.03-1.717-50.293-4.959
	c8.963-1.527,15.793-9.31,15.793-18.708c0-10.493-8.507-19-19-19s-19,8.507-19,19c0,6.375,3.151,12.003,7.968,15.449
	c-9.825-2.553-19.425-5.665-28.755-9.318C160.976,490.667,160,486.449,160,482c0-16.569,13.431-30,30-30h4.074
	c-0.003-0.039-0.002-0.078-0.004-0.117H309.5c4.418,0,8-3.582,8-8s-3.582-8-8-8H197.527C202.577,426.433,212.536,420,224,420h12.5
	h3.5h28c4.418,0,8-3.582,8-8s-3.582-8-8-8h-24.656c2.613-5.972,6.635-11.188,11.656-15.215v-71.486
	c-0.259-0.026-0.517-0.058-0.773-0.104c-52.111-9.416-97.872-42.036-123.507-89.644L48.437,74.741C44.85,68.079,49.675,60,57.242,60
	H121.5h59h151h59h64.258C462.325,60,467.15,68.079,463.563,74.741z M285.333,488.333c0-10.493-8.507-19-19-19
	c-10.493,0-19,8.507-19,19s8.507,19,19,19C276.827,507.333,285.333,498.827,285.333,488.333z"/>
<path style="fill:#C9993F;" d="M479.5,80L479.5,80c0,11.046-8.954,20-20,20H166.968c-14.061,0-23.726,14.126-18.652,27.239
	c13.618,35.189,32.709,66.645,55.946,92.761H376c11.046,0,20,8.954,20,20l0,0c0,11.046-8.954,20-20,20H265.917
	c-5.086,0-6.919,6.703-2.552,9.308c17.726,10.573,36.646,18.652,56.451,23.857c-18.823,11.79-39.853,20.02-62.043,24.029
	c-1.171,0.212-2.376,0.212-3.547,0c-39.221-7.087-74.841-27.322-100.994-57.195H136c-11.046,0-20-8.954-20-20l0,0
	c0-8.06,4.778-14.988,11.647-18.155L62.039,100H52.5c-11.046,0-20-8.954-20-20l0,0c0-11.046,8.954-20,20-20h4.742H121.5h8.456H459.5
	C470.546,60,479.5,68.954,479.5,80z"/>
<path style="fill:#E3B64B;" d="M396,240c0,0.947-0.089,1.872-0.216,2.784C394.872,242.911,393.947,243,393,243H153
	c-11.046,0-20-8.954-20-20c0-0.947,0.089-1.872,0.216-2.784c0.912-0.127,1.837-0.216,2.784-0.216h240
	C387.046,220,396,228.954,396,240z M459.5,60h-407c-0.947,0-1.872,0.089-2.784,0.216C49.589,61.128,49.5,62.053,49.5,63
	c0,11.046,8.954,20,20,20h407c0.947,0,1.872-0.089,2.784-0.216c0.127-0.912,0.216-1.837,0.216-2.784
	C479.5,68.954,470.546,60,459.5,60z"/>
<path style="fill:#723782;" d="M291,165c0,19.33-15.67,35-35,35s-35-15.67-35-35s15.67-35,35-35S291,145.67,291,165z M355,130
	c-19.33,0-35,15.67-35,35s15.67,35,35,35s35-15.67,35-35S374.33,130,355,130z M155,130c-19.33,0-35,15.67-35,35s15.67,35,35,35
	s35-15.67,35-35S174.33,130,155,130z"/>
<path style="fill:#9449AA;" d="M291,165c0,4.594-0.894,8.977-2.503,12.997c-4.019,1.609-8.402,2.503-12.997,2.503
	c-19.33,0-35-15.67-35-35c0-4.594,0.894-8.977,2.503-12.997c4.02-1.609,8.403-2.503,12.997-2.503C275.33,130,291,145.67,291,165z
	 M355,130c-4.594,0-8.977,0.894-12.997,2.503c-1.609,4.019-2.503,8.402-2.503,12.997c0,19.33,15.67,35,35,35
	c4.594,0,8.977-0.894,12.997-2.503c1.609-4.02,2.503-8.403,2.503-12.997C390,145.67,374.33,130,355,130z M155,130
	c-4.594,0-8.977,0.894-12.997,2.503c-1.609,4.019-2.503,8.402-2.503,12.997c0,19.33,15.67,35,35,35
	c4.594,0,8.977-0.894,12.997-2.503c1.609-4.02,2.503-8.403,2.503-12.997C190,145.67,174.33,130,155,130z"/>
<g>
</g>
<g>
</g>
<g>
</g>
<g>
</g>
<g>
</g>
<g>
</g>
<g>
</g>
<g>
</g>
<g>
</g>
<g>
</g>
<g>
</g>
<g>
</g>
<g>
</g>
<g>
</g>
<g>
</g>
</svg>
