<?xml version="1.0" encoding="iso-8859-1"?>
<!-- Generator: Adobe Illustrator 19.0.0, SVG Export Plug-In . SVG Version: 6.00 Build 0)  -->
<svg version="1.1" id="Capa_1" xmlns="http://www.w3.org/2000/svg" xmlns:xlink="http://www.w3.org/1999/xlink" x="0px" y="0px"
	 viewBox="0 0 512 512" style="enable-background:new 0 0 512 512;" xml:space="preserve">
<path style="fill:#FFC37D;" d="M512,256c0,141.385-114.615,256-256,256S0,397.385,0,256S114.615,0,256,0S512,114.615,512,256z"/>
<path style="fill:#D27347;" d="M499.814,242.583C498.545,252.406,490.168,260,480,260c-7.628,0-14.255-4.273-17.628-10.553
	c-5.09,0.494-10.198,0.811-15.315,0.958C443.543,256.151,437.229,260,430,260c-7.928,0-14.758-4.625-17.994-11.313
	c-9.144-1.166-18.25-2.896-27.271-5.197C381.079,247.481,375.84,250,370,250c-10.003,0-18.267-7.352-19.742-16.943l-43.24-13.512
	c-4.529-1.415-7.44-5.818-6.968-10.54l6.233-62.336c0.233-2.333,0.331-4.66,0.333-6.977C297.185,138.082,290,129.89,290,120
	c0-6.17,2.797-11.683,7.188-15.351c-1.001-1.721-2.067-3.408-3.218-5.046C292.687,99.862,291.36,100,290,100
	c-11.046,0-20-8.954-20-20c0-2.993,0.676-5.822,1.854-8.371c-4.177-7.253-7.302-15.027-9.316-23.082
	C255.192,45.588,250,38.406,250,30c0-7.823,4.502-14.579,11.047-17.866c0.556-3.375,1.297-6.739,2.25-10.074l0.551-1.93
	c6.87,0.207,13.669,0.689,20.393,1.427l-1.713,5.997c-0.553,1.934-1.009,3.881-1.389,5.834C286.482,16.979,290,23.078,290,30
	c0,6.333-2.952,11.969-7.547,15.634c1.404,5.004,3.366,9.853,5.861,14.452C288.871,60.039,289.431,60,290,60
	c11.046,0,20,8.954,20,20c0,2.181-0.361,4.274-1.006,6.239c3.632,4.893,6.733,10.109,9.276,15.567
	C325.184,104.954,330,111.907,330,120c0,4.328-1.389,8.324-3.727,11.598c0.502,5.621,0.483,11.329-0.09,17.062l-5.422,54.227
	l36.771,11.491c3.42-2.733,7.749-4.377,12.467-4.377c8.936,0,16.498,5.862,19.063,13.948c8.082,2.088,16.241,3.673,24.435,4.76
	C417.101,223.452,423.146,220,430,220c7.557,0,14.131,4.194,17.532,10.378c5.222-0.177,10.432-0.554,15.621-1.127
	C466.706,223.694,472.915,220,480,220c4.481,0,8.603,1.491,11.937,3.98c5.846-1.507,11.636-3.263,17.348-5.285
	c0.981,6.72,1.697,13.524,2.145,20.403C507.587,240.368,503.712,241.523,499.814,242.583z"/>
<path style="fill:#C9993F;" d="M291.971,243.5c1.184,6.151,0.43,12.601-2.3,18.357c12.177-0.612,23.969,6.373,28.902,18.282
	c4.933,11.909,1.533,25.186-7.51,33.364c11.484,4.095,19.706,15.061,19.706,27.951c0,12.89-8.222,23.856-19.706,27.95
	c9.042,8.178,12.442,21.456,7.509,33.364c-4.933,11.909-16.725,18.894-28.901,18.282c5.225,11.016,3.284,24.584-5.83,33.698
	c-9.115,9.115-22.682,11.054-33.698,5.83c0.611,12.177-6.373,23.969-18.282,28.902s-25.187,1.533-33.364-7.51
	c-4.095,11.484-15.06,19.706-27.951,19.706c-12.89,0-23.856-8.222-27.951-19.706c-8.178,9.043-21.455,12.443-33.364,7.51
	c-11.909-4.933-18.894-16.725-18.282-28.902c-11.016,5.224-24.583,3.285-33.698-5.83s-11.055-22.682-5.83-33.698
	c-12.177,0.611-23.969-6.373-28.902-18.282s-1.533-25.186,7.51-33.364c-11.484-4.095-19.706-15.061-19.706-27.951
	c0-12.89,8.222-23.856,19.706-27.951c-9.043-8.177-12.442-21.455-7.51-33.364s16.725-18.894,28.902-18.282
	c-5.225-11.016-3.285-24.583,5.83-33.698c9.115-9.115,22.683-11.055,33.698-5.83c-0.612-12.177,6.373-23.969,18.282-28.902
	s25.187-1.533,33.364,7.509c4.094-11.484,15.061-19.706,27.95-19.706c12.89,0,23.856,8.222,27.951,19.706
	c8.178-9.043,21.455-12.443,33.364-7.51s18.894,16.725,18.282,28.902c5.756-2.73,12.207-3.484,18.357-2.3
	c-2.203-13.506,3.593-29.995,16.42-42.823c18.54-18.54,44.734-22.404,58.506-8.632s9.908,39.966-8.632,58.506
	C321.967,239.907,305.478,245.703,291.971,243.5z"/>
<path style="fill:#D6A446;" d="M291.972,243.497c1.188,6.151,0.429,12.602-2.301,18.36c12.177-0.612,23.969,6.373,28.902,18.282
	c4.933,11.909,1.533,25.186-7.51,33.364c11.484,4.095,19.706,15.061,19.706,27.951c0,12.89-8.222,23.856-19.706,27.95
	c9.042,8.178,12.442,21.456,7.509,33.364c-4.933,11.909-16.725,18.894-28.901,18.282c5.225,11.016,3.284,24.584-5.83,33.698
	c-9.115,9.115-22.682,11.054-33.698,5.83c0.611,12.177-6.373,23.969-18.282,28.902s-25.187,1.533-33.364-7.51
	c-4.095,11.484-15.06,19.706-27.951,19.706c-12.89,0-23.856-8.222-27.951-19.706c-8.178,9.043-21.455,12.443-33.364,7.51
	c-11.909-4.933-18.894-16.725-18.282-28.902c-7.471,3.543-16.113,3.781-23.746,0.73c10.013-45.849,38.481-96.707,82.486-140.711
	c42.581-42.581,91.577-70.613,136.244-81.455c-3.205-13.865,2.506-31.419,16.005-44.918c14.517-14.516,33.725-20.033,47.989-15.134
	c4.899,14.265-0.617,33.473-15.134,47.989C321.967,239.907,305.479,245.701,291.972,243.497z"/>
<path style="fill:#EDC555;" d="M262.861,433.768c-50.984,50.984-133.645,50.984-184.629,0s-50.984-133.645,0-184.629
	s133.645-50.984,184.629,0S313.844,382.784,262.861,433.768z"/>
<path style="fill:#FFF4A5;" d="M246.076,416.984c-41.714,41.714-109.346,41.714-151.06,0s-41.714-109.346,0-151.06
	s109.346-41.714,151.06,0S287.79,375.27,246.076,416.984z"/>
<path style="fill:#4A245A;" d="M225.096,396.003c-30.127,30.127-78.972,30.127-109.099,0s-30.127-78.972,0-109.099
	s78.972-30.127,109.099,0C255.222,317.031,255.222,365.876,225.096,396.003z"/>
<path style="fill:#723782;" d="M225.096,396.003c-7.16,7.16-15.385,12.598-24.158,16.355c-8.772-3.757-16.997-9.194-24.158-16.355
	c-30.127-30.127-30.127-78.972,0-109.099c7.16-7.16,15.385-12.598,24.158-16.355c8.772,3.757,16.997,9.194,24.158,16.355
	C255.222,317.031,255.222,365.876,225.096,396.003z"/>
<path style="fill:#FFF9C8;" d="M173.045,359.178l6.822,12.474c0.195,0.356,0.488,0.65,0.845,0.845l12.474,6.823
	c1.473,0.806,1.473,2.922,0,3.728l-12.474,6.823c-0.356,0.195-0.65,0.488-0.845,0.845l-6.822,12.474
	c-0.806,1.473-2.922,1.473-3.728,0l-6.822-12.474c-0.195-0.356-0.488-0.65-0.845-0.845l-12.474-6.823
	c-1.473-0.806-1.473-2.922,0-3.728l12.474-6.823c0.356-0.195,0.65-0.488,0.845-0.845l6.822-12.474
	C170.123,357.705,172.239,357.705,173.045,359.178z"/>
<g>
</g>
<g>
</g>
<g>
</g>
<g>
</g>
<g>
</g>
<g>
</g>
<g>
</g>
<g>
</g>
<g>
</g>
<g>
</g>
<g>
</g>
<g>
</g>
<g>
</g>
<g>
</g>
<g>
</g>
</svg>
