<?xml version="1.0" encoding="iso-8859-1"?>
<!-- Generator: Adobe Illustrator 19.0.0, SVG Export Plug-In . SVG Version: 6.00 Build 0)  -->
<svg version="1.1" id="Capa_1" xmlns="http://www.w3.org/2000/svg" xmlns:xlink="http://www.w3.org/1999/xlink" x="0px" y="0px"
	 viewBox="0 0 512 512" style="enable-background:new 0 0 512 512;" xml:space="preserve">
<path style="fill:#FA877A;" d="M512,256c0,141.385-114.615,256-256,256S0,397.385,0,256S114.615,0,256,0S512,114.615,512,256z"/>
<path style="fill:#DAF0F6;" d="M389,240v234.779C350.238,498.394,304.708,512,256,512s-94.238-13.606-133-37.221V240
	c0-39.404,28.496-72.13,66-78.754V130h-1c-8.284,0-15-6.716-15-15c0-3.847,1.461-7.345,3.842-10c-2.381-2.655-3.842-6.153-3.842-10
	c0-8.284,6.716-15,15-15h136c8.284,0,15,6.716,15,15c0,3.847-1.461,7.345-3.842,10c2.381,2.655,3.842,6.153,3.842,10
	c0,8.284-6.716,15-15,15h-1v31.246C360.504,167.87,389,200.596,389,240z"/>
<path style="fill:#BEE5EB;" d="M228,130h1v31.246c-37.504,6.624-66,39.35-66,78.754v253.709c0,0.291,0.011,0.58,0.014,0.87
	c-13.976-5.451-27.357-12.088-40.014-19.8V240c0-39.404,28.496-72.13,66-78.754V130h-1c-8.284,0-15-6.716-15-15
	c0-3.847,1.461-7.345,3.842-10c-2.381-2.655-3.842-6.153-3.842-10c0-8.284,6.716-15,15-15h40c-8.284,0-15,6.716-15,15
	c0,3.847,1.461,7.345,3.842,10c-2.381,2.655-3.842,6.153-3.842,10C213,123.284,219.716,130,228,130z"/>
<path style="fill:#964F32;" d="M290,100h-68c-11.046,0-20-8.954-20-20V20c0-11.046,8.954-20,20-20h68c11.046,0,20,8.954,20,20v60
	C310,91.046,301.046,100,290,100z"/>
<path style="fill:#783823;" d="M230,20L230,20L230,20c5.523,0,10,4.477,10,10s-4.477,10-10,10l0,0v30l0,0c5.523,0,10,4.477,10,10
	s-4.477,10-10,10l0,0v10c0,11.046,8.954,20,20,20h-28c-11.046,0-20-8.954-20-20V20c0-11.046,8.954-20,20-20h28
	C238.954,0,230,8.954,230,20z M270,40c-5.523,0-10,4.477-10,10s4.477,10,10,10s10-4.477,10-10S275.523,40,270,40z"/>
<path style="fill:#189681;" d="M262,330L262,330c26.305,13.153,55.311,20,84.721,20H350c5.523,0,10,4.477,10,10v129.981
	C328.221,504.128,293.031,512,256,512s-72.221-7.872-104-22.019V320c0-5.523,4.477-10,10-10h15.279
	C206.689,310,235.695,316.847,262,330z"/>
<path style="fill:#35AF94;" d="M334.721,310H350c5.523,0,10,4.477,10,10v169.981C328.221,504.128,293.031,512,256,512
	s-72.221-7.872-104-22.019V360c0-5.523,4.477-10,10-10h3.279c29.41,0,58.416-6.847,84.721-20l0,0
	C276.305,316.847,305.311,310,334.721,310z"/>
<path style="fill:#52C3A3;" d="M315,460L315,460c-8.284,0-15-6.716-15-15V335c0-8.284,6.716-15,15-15l0,0c8.284,0,15,6.716,15,15
	v110C330,453.284,323.284,460,315,460z"/>
<path style="fill:#D27347;" d="M310,80v75c0,8.284-8.954,15-20,15h-68c-11.046,0-20-6.716-20-15V80H310z"/>
<path style="fill:#BA623E;" d="M202,155V80h28v90h-8C210.954,170,202,163.284,202,155z"/>
<path style="fill:#1B4450;" d="M348,140c0,5.523-4.477,10-10,10h-26v180c0,5.523-4.477,10-10,10s-10-4.477-10-10V150H176
	c-5.523,0-10-4.477-10-10s4.477-10,10-10h162C343.523,130,348,134.477,348,140z"/>
<path style="fill:#EDC555;" d="M357,342H257c-2.761,0-5-2.239-5-5V205c0-2.761,2.239-5,5-5h100c2.761,0,5,2.239,5,5v132
	C362,339.761,359.761,342,357,342z"/>
<path style="fill:#E3B64B;" d="M362,326.967V337c0,2.761-2.239,5-5,5H257c-2.761,0-5-2.239-5-5V205c0-2.761,2.239-5,5-5h3
	C260,262.183,303.663,314.16,362,326.967z"/>
<path style="fill:#FFEF87;" d="M309.641,244.436l8.915,18.063c0.429,0.869,1.258,1.472,2.218,1.611l19.934,2.897
	c2.416,0.351,3.38,3.32,1.632,5.024l-14.424,14.06c-0.694,0.677-1.011,1.651-0.847,2.607l3.405,19.853
	c0.413,2.406-2.113,4.241-4.273,3.105l-17.829-9.373c-0.858-0.451-1.883-0.451-2.741,0l-17.829,9.373
	c-2.161,1.136-4.686-0.699-4.273-3.105l3.405-19.853c0.164-0.955-0.153-1.93-0.847-2.607l-14.424-14.06
	c-1.748-1.704-0.783-4.673,1.632-5.024l19.934-2.897c0.959-0.139,1.789-0.742,2.218-1.611l8.915-18.063
	C305.439,242.247,308.561,242.247,309.641,244.436z"/>
<g>
</g>
<g>
</g>
<g>
</g>
<g>
</g>
<g>
</g>
<g>
</g>
<g>
</g>
<g>
</g>
<g>
</g>
<g>
</g>
<g>
</g>
<g>
</g>
<g>
</g>
<g>
</g>
<g>
</g>
</svg>
