<?xml version="1.0" encoding="iso-8859-1"?>
<!-- Generator: Adobe Illustrator 19.0.0, SVG Export Plug-In . SVG Version: 6.00 Build 0)  -->
<svg version="1.1" id="Capa_1" xmlns="http://www.w3.org/2000/svg" xmlns:xlink="http://www.w3.org/1999/xlink" x="0px" y="0px"
	 viewBox="0 0 512 512" style="enable-background:new 0 0 512 512;" xml:space="preserve">
<path style="fill:#BEE5EB;" d="M512,256c0,141.385-114.615,256-256,256S0,397.385,0,256S114.615,0,256,0S512,114.615,512,256z"/>
<path style="fill:#E3B64B;" d="M319.908,249.879l108.285,108.286c11.716,11.715,11.716,30.71,0,42.426s-30.711,11.716-42.426,0
	l-76.368-76.368L146.277,487.346c-53.225-25.289-96.334-68.398-121.622-121.623l163.122-163.122l-77.782-77.782
	c-11.716-11.716-11.716-30.711,0-42.427l0,0c11.716-11.716,30.711-11.716,42.426,0l109.7,109.7
	C241,147.281,248.956,92.17,286,55.125c47.186-47.186,123.689-47.186,170.874,0c47.186,47.186,47.186,123.689,0,170.875
	C419.83,263.044,364.719,271,319.908,249.879z"/>
<path style="fill:#C9993F;" d="M304.563,98.666c-25.504,25.504-40.602,56.943-44.82,88.042
	C241.679,142.933,250.427,90.699,286,55.126c47.186-47.186,123.689-47.186,170.874,0c3.77,3.77,7.235,7.729,10.403,11.843
	c-26.468-14.903-58.814-18.061-90.415-10.04c12.448,14.374,11.854,36.133-1.802,49.789c-14.288,14.288-37.453,14.288-51.741,0
	c-4.768-4.769-7.936-10.527-9.522-16.613C310.644,92.815,307.562,95.666,304.563,98.666z M187.777,202.601L24.654,365.723
	c5.708,12.013,12.331,23.504,19.766,34.398l61.885-61.885l8.031,8.031c3.766,3.766,9.897,4.213,13.898,0.698
	c4.385-3.852,4.547-10.536,0.486-14.597l-8.273-8.273l7.181-7.181c0.324,0.458,0.682,0.901,1.093,1.312l28.284,28.284
	c5.122,4.342,9.78,5.123,12.995,3.343c11.25-6.228-1.219-19.851-1.219-19.851l-25.918-25.918c-0.411-0.41-0.853-0.768-1.312-1.092
	l7.181-7.181l8.273,8.273c17.12,15.417,27.87-1.083,18.284-10l-12.415-12.415l30.772-30.772c11.716-11.716,11.716-30.711,0-42.426
	L187.777,202.601z M131.995,146.819c-11.716-11.716-11.716-30.711,0-42.427l0,0c11.716-11.716,30.711-11.716,42.426,0l-22-22
	c-11.716-11.716-30.711-11.716-42.426,0l0,0c-11.716,11.716-11.716,30.711,0,42.427L131.995,146.819z M382.665,201.14
	c-2.555-0.764-5.062-1.627-7.529-2.567l1.196-2.432c2.438-4.956,0.396-10.95-4.56-13.386c-4.956-2.438-10.949-0.396-13.387,4.56
	l-1.193,2.425c-4.251-2.613-8.304-5.504-12.124-8.665l2.376-2.376c3.905-3.905,3.905-10.237,0-14.142s-10.237-3.905-14.142,0
	l-2.376,2.376c-3.161-3.82-6.052-7.873-8.665-12.124l2.425-1.193c4.956-2.438,6.998-8.432,4.56-13.387
	c-2.437-4.957-8.43-6.998-13.386-4.56l-2.431,1.196c-0.94-2.467-1.804-4.974-2.568-7.529c-1.582-5.292-7.153-8.3-12.445-6.718
	c-5.291,1.581-8.299,7.152-6.718,12.444c1.085,3.63,2.331,7.185,3.714,10.664l-3.658,1.799c-4.956,2.438-6.998,8.432-4.56,13.387
	c0.498,1.013,1.145,1.904,1.901,2.66c2.943,2.943,7.543,3.839,11.486,1.899l3.656-1.798c3.675,6.187,7.863,12.018,12.497,17.451
	l-2.995,2.995c-3.905,3.905-3.905,10.237,0,14.142s10.237,3.905,14.142,0l2.995-2.995c5.434,4.633,11.264,8.821,17.451,12.497
	l-1.798,3.656c-1.939,3.943-1.044,8.542,1.9,11.486c0.756,0.756,1.647,1.403,2.66,1.9c4.956,2.438,10.949,0.396,13.387-4.56
	l1.799-3.659c3.479,1.384,7.034,2.629,10.664,3.714c5.292,1.581,10.863-1.427,12.444-6.718
	C390.964,208.293,387.958,202.721,382.665,201.14z M457.024,136.94c-14.288-14.288-37.453-14.288-51.741,0s-14.288,37.453,0,51.741
	s37.453,14.288,51.741,0S471.312,151.228,457.024,136.94z"/>
<path style="fill:#3C5D78;" d="M360.918,69.119c6.477,6.477,6.477,16.979,0,23.457s-16.979,6.478-23.457,0
	c-6.477-6.477-6.477-16.979,0-23.457C343.938,62.641,354.44,62.641,360.918,69.119z M442.881,151.082
	c-6.477-6.478-16.979-6.478-23.457,0c-6.477,6.478-6.477,16.979,0,23.457s16.98,6.478,23.457,0
	C449.359,168.062,449.359,157.56,442.881,151.082z"/>
<path style="fill:#BA623E;" d="M289.184,291.79l-28.773,28.773c-5.858,5.858-15.355,5.858-21.213,0l0,0
	c-5.858-5.858-5.858-15.355,0-21.213l28.773-28.773c5.858-5.858,15.355-5.858,21.213,0l0,0
	C295.042,276.434,295.042,285.932,289.184,291.79z"/>
<path style="fill:#343B41;" d="M293.859,275.324c3.162,9.143-3.482,18.72-13.153,18.961l0,0c-6.223,0.155-11.83-3.735-13.865-9.618
	l-72.04-208.31l29.991-0.747L293.859,275.324z"/>
<path style="fill:#FA7629;" d="M244.441,47.369c0.598,24.017-18.386,43.972-42.403,44.57c-24.017,0.598-43.971-18.386-44.57-42.403
	c-0.598-24.017,18.386-43.972,42.403-44.57S243.842,23.352,244.441,47.369z"/>
<path style="fill:#FF823B;" d="M244.441,47.369c0.135,5.409-0.732,10.608-2.417,15.431c-4.732,1.924-9.882,3.048-15.291,3.183
	c-24.017,0.598-43.971-18.386-44.57-42.403c-0.135-5.409,0.732-10.608,2.417-15.431c4.732-1.924,9.882-3.048,15.291-3.183
	C223.888,4.368,243.842,23.352,244.441,47.369z"/>
<g>
</g>
<g>
</g>
<g>
</g>
<g>
</g>
<g>
</g>
<g>
</g>
<g>
</g>
<g>
</g>
<g>
</g>
<g>
</g>
<g>
</g>
<g>
</g>
<g>
</g>
<g>
</g>
<g>
</g>
</svg>
