<?xml version="1.0" encoding="iso-8859-1"?>
<!-- Generator: Adobe Illustrator 19.0.0, SVG Export Plug-In . SVG Version: 6.00 Build 0)  -->
<svg version="1.1" id="Capa_1" xmlns="http://www.w3.org/2000/svg" xmlns:xlink="http://www.w3.org/1999/xlink" x="0px" y="0px"
	 viewBox="0 0 512 512" style="enable-background:new 0 0 512 512;" xml:space="preserve">
<path style="fill:#3C5D78;" d="M178.077,499.921C74.823,466.963,0.038,370.263,0,256.088C-0.047,115.015,114.929-0.001,256.002,0
	C397.386,0.001,512,114.616,512,256c0,5.375-0.186,10.707-0.512,16L510,280c-16.569,0-30,5.431-30,22v54.972
	c0,8.495-2.514,16.799-7.227,23.867l0,0c-7.98,11.97-21.415,19.16-35.801,19.16H350v72.333c0,11.046-8.954,20-20,20H190
	c-4.222,0-7.826,2.619-9.291,6.319C180.295,499.7,179.15,500.263,178.077,499.921z"/>
<path style="fill:#384E64;" d="M281.983,274.274C282.389,282.889,275.525,290,267,290h-50c-8.284,0-15,6.716-15,15s-6.716,15-15,15
	H77c-8.525,0-15.389-7.111-14.983-15.726c0.38-8.067,7.33-14.274,15.407-14.274H117c8.284,0,15-6.716,15-15s6.716-15,15-15h119.576
	C274.653,260,281.603,266.207,281.983,274.274z M215,396h-20c-8.284,0-15-6.716-15-15s-6.716-15-15-15H24.784
	c4.961,10.409,10.608,20.425,16.875,30H85c8.284,0,15,6.716,15,15s6.716,15,15,15h100c8.284,0,15-6.716,15-15S223.284,396,215,396z
	 M456.576,140h-99.153c-8.077,0-15.027,6.207-15.407,14.274C341.611,162.889,348.475,170,357,170h-69.576
	c-8.077,0-15.027,6.207-15.407,14.274C271.611,192.889,278.475,200,287,200h120c8.284,0,15-6.716,15-15s6.716-15,15-15h20
	c8.525,0,15.389-7.111,14.983-15.726C471.603,146.207,464.653,140,456.576,140z M337,80h100c1.496,0,2.938-0.226,4.302-0.634
	C431.08,68.646,419.929,58.822,407.992,50H337c-8.284,0-15,6.716-15,15S328.716,80,337,80z"/>
<path style="fill:#D587EB;" d="M11.044,181.438C31.301,114.804,77.99,59.682,138.914,28.292
	c169.712,42.577,297.518,167.461,350.991,321.714c0.659,1.901-142.537,128.172-143.616,119.996
	C328.828,337.771,232.113,223.659,94.672,190.631C66.64,183.895,38.587,180.946,11.044,181.438z"/>
<path style="fill:#C174DC;" d="M104.297,193.112c-3.188-0.866-6.392-1.704-9.626-2.481c-28.032-6.736-56.084-9.685-83.628-9.192
	C31.301,114.804,77.99,59.682,138.914,28.292c9.723,2.439,19.301,5.163,28.743,8.132c-25.235-3.313-47.617,7.15-51.414,24.863
	c-3.053,14.241,6.774,29.133,23.41,38.23C123.563,127.296,111.429,158.927,104.297,193.112z"/>
<path style="fill:#52C3A3;" d="M0.867,234.941c5.155-63.3,33.337-120.076,76.158-161.957c14.621,2.003,29.279,4.738,43.933,8.259
	c164.545,39.541,285.485,165.886,325.96,318.758c1.821,6.879-151.342,96.258-151.868,90.003
	c-9.796-116.562-92.826-218.918-212.786-247.746C54.926,235.688,27.559,233.394,0.867,234.941z"/>
<path style="fill:#35AF94;" d="M75.146,240.655c-24.966-5.325-49.904-7.127-74.279-5.714c5.155-63.3,33.337-120.076,76.158-161.957
	c12.869,1.763,25.766,4.094,38.664,7.028C89.894,74.747,46.5,124,104.348,146.922C90.638,175.455,80.625,207.033,75.146,240.655z"/>
<path style="fill:#FFE473;" d="M3.475,213.845c5.002-30.188,15.277-58.592,29.861-84.23c24.342,1.05,48.935,4.428,73.515,10.335
	c154.435,37.112,264.41,162.707,289.128,310.055c1.034,6.165-79.965,38.165-80.882,29.994
	C301.432,358.126,213.291,252.204,87.159,221.894C59.07,215.144,30.957,212.601,3.475,213.845z"/>
<path style="fill:#F5D869;" d="M87.159,221.894c-28.089-6.75-56.202-9.293-83.684-8.049c5.002-30.188,15.277-58.592,29.861-84.23
	c15.08,0.65,30.257,2.197,45.466,4.682c-17.636,2.135-31.442,11.445-34.349,25.007c-4.09,19.082,14.936,39.34,42.496,45.248
	c2.655,0.569,5.291,0.98,7.893,1.249c-1.404,5.612-2.668,11.305-3.783,17.075C89.761,222.545,88.466,222.208,87.159,221.894z"/>
<path style="fill:#FF8F50;" d="M0.39,241.929c1.057-19.502,4.292-38.423,9.474-56.524c27.618-0.595,55.763,2.311,83.885,9.068
	C232.829,227.895,329.696,345.345,343.473,480c0.55,5.374-54.817,16.584-55.385,10.001
	c-9.78-113.423-90.664-212.942-207.442-241.004C53.684,242.517,26.697,240.312,0.39,241.929z"/>
<path style="fill:#BEE5EB;" d="M172,482c0-16.568,13.431-30,30-30h110c8.284,0,15-6.716,15-15s-6.716-15-15-15h-40
	c-16.569,0-30-13.432-30-30s13.431-30,30-30h135c8.284,0,15-6.716,15-15s-6.716-15-15-15h-5c-16.568,0-30-13.432-30-30
	s13.431-30,30-30h109.488C503.226,405.929,392.009,512,256,512c-27.244,0-53.487-4.271-78.114-12.154
	C174.189,494.858,172,488.685,172,482z"/>
<path style="fill:#ABD6DC;" d="M460,347c0,8.284-6.716,15-15,15h-38c8.284,0,15-6.716,15-15s-6.716-15-15-15h-5
	c-16.568,0-30-13.432-30-30s13.431-30,30-30h38c-16.568,0-30,13.432-30,30s13.431,30,30,30h5C453.284,332,460,338.716,460,347z
	 M350,422h-38c8.284,0,15,6.716,15,15s-6.716,15-15,15h38c8.284,0,15-6.716,15-15S358.284,422,350,422z M210.001,482.2
	c0-0.066-0.001-0.133-0.001-0.2c0-16.568,13.431-30,30-30h-37.374c-16.536,0-30.434,13.113-30.624,29.648
	c-0.078,6.82,2.122,13.123,5.884,18.198C202.513,507.729,228.756,512,256,512c6.415,0,12.774-0.237,19.07-0.701
	c-16.805-1.232-33.159-4.084-48.908-8.401C216.797,500.33,210.064,491.912,210.001,482.2z M310,362h-38c-16.569,0-30,13.432-30,30
	s13.431,30,30,30h38c-16.569,0-30-13.432-30-30S293.431,362,310,362z"/>
<path style="fill:#FF823B;" d="M43.565,242.742c-14.516-1.434-28.945-1.688-43.175-0.813c1.057-19.502,4.292-38.423,9.474-56.524
	c13.997-0.302,28.129,0.3,42.324,1.842c-12.376,3.976-21.443,12.028-23.735,22.721C25.952,221.638,32.108,233.744,43.565,242.742z"
	/>
<path style="fill:#FFF4A5;" d="M363.603,15.994l28.237,57.214c1.359,2.753,3.985,4.662,7.024,5.103l63.139,9.175
	c7.652,1.112,10.707,10.515,5.17,15.912l-45.688,44.535c-2.199,2.143-3.202,5.231-2.683,8.257l10.785,62.884
	c1.307,7.621-6.692,13.432-13.535,9.834l-56.473-29.69c-2.718-1.429-5.964-1.429-8.682,0l-56.473,29.69
	c-6.844,3.598-14.842-2.213-13.535-9.834l10.785-62.884c0.519-3.026-0.484-6.114-2.683-8.257l-45.688-44.535
	c-5.537-5.397-2.481-14.8,5.17-15.912l63.139-9.175c3.038-0.442,5.665-2.35,7.024-5.103l28.237-57.214
	C350.294,9.061,360.181,9.061,363.603,15.994z"/>
<path style="fill:#FFF9C8;" d="M467.173,103.398l-45.688,44.535c-2.199,2.143-3.202,5.231-2.683,8.257l0.726,4.231
	c-2.986,0.243-6.004,0.373-9.053,0.373c-50.862,0-93.653-34.522-106.24-81.411l7.376-1.072c3.038-0.441,5.665-2.35,7.024-5.103
	l28.237-57.214c3.422-6.934,13.309-6.934,16.731,0l28.237,57.214c1.359,2.753,3.985,4.662,7.024,5.103l63.139,9.175
	C469.654,88.598,472.709,98.001,467.173,103.398z"/>
<g>
</g>
<g>
</g>
<g>
</g>
<g>
</g>
<g>
</g>
<g>
</g>
<g>
</g>
<g>
</g>
<g>
</g>
<g>
</g>
<g>
</g>
<g>
</g>
<g>
</g>
<g>
</g>
<g>
</g>
</svg>
