<?xml version="1.0" encoding="iso-8859-1"?>
<!-- Generator: Adobe Illustrator 19.0.0, SVG Export Plug-In . SVG Version: 6.00 Build 0)  -->
<svg version="1.1" id="Capa_1" xmlns="http://www.w3.org/2000/svg" xmlns:xlink="http://www.w3.org/1999/xlink" x="0px" y="0px"
	 viewBox="0 0 512 512" style="enable-background:new 0 0 512 512;" xml:space="preserve">
<path style="fill:#E6A0FA;" d="M512,256c0,141.385-114.615,256-256,256S0,397.385,0,256s114.615-256,256-256S512,114.616,512,256z"
	/>
<path style="fill:#40718C;" d="M387.316,177.603l-54.275-54.275l54.275-54.275l54.275,54.275L387.316,177.603z"/>
<path style="fill:#3C5D78;" d="M392.448,143.288c40.042,49.252,43.613,114.473-38.745,196.831
	c-65.285,65.286-166.604,123.372-236.588,130.957c-31.135-20.147-57.613-46.868-77.477-78.202
	c7.875-69.96,65.805-170.851,130.886-235.933c73.128-73.129,132.748-78.511,179.672-50.769l37.12-37.12l30.53,30.53l-24.311,24.311
	C388.29,129.139,387.768,137.532,392.448,143.288z"/>
<path style="fill:#40718C;" d="M393.737,144.723c-49.162-39.464-114.137-42.582-196.075,39.356
	C130.16,251.581,70.351,357.604,66.108,427.684c15.27,16.879,32.755,31.716,52.002,44.044
	c69.972-7.726,171.086-65.745,236.271-130.93C436.319,258.859,433.202,193.885,393.737,144.723z M293.828,187.129
	c-5.299,0-9.594-4.296-9.594-9.595s4.296-9.595,9.594-9.595c5.299,0,9.595,4.296,9.595,9.595S299.127,187.129,293.828,187.129z"/>
<path style="fill:#EDC555;" d="M217.036,197.285l8.918,8.918c15.95,15.95,26.822,36.264,31.246,58.383l0,0
	c4.424,22.119,15.296,42.433,31.246,58.383l0,0c4.622,4.622,4.345,12.192-0.595,16.474
	c-70.138,60.786-166.797,110.124-195.285,81.636c-31.849-31.849,33.571-148.905,103.513-218.847
	c1.751-1.751,3.489-3.456,5.212-5.114C205.703,192.87,212.706,192.954,217.036,197.285z"/>
<path style="fill:#FFE473;" d="M316.867,312.352c-1.659,1.724-3.363,3.461-5.114,5.212c-69.943,69.943-187,135.362-218.848,103.514
	c-28.488-28.488,20.85-125.148,81.636-195.285c4.281-4.94,11.851-5.217,16.474-0.595l0,0c15.95,15.95,36.264,26.822,58.383,31.246
	l0,0c22.119,4.424,42.433,15.296,58.383,31.246l8.918,8.918C321.029,300.938,321.113,307.94,316.867,312.352z"/>
<path style="fill:#F5D869;" d="M316.767,296.684c4.258,4.336,4.322,11.282,0.099,15.669c-1.659,1.724-3.363,3.461-5.115,5.212
	C241.81,387.507,124.753,452.927,92.905,421.077c-13.262-13.262-9.652-41.3,4.121-74.556c1.951,4.611,4.584,8.652,7.968,12.036
	C137.324,390.888,228.972,355.503,316.767,296.684z"/>
<path style="fill:#EDC555;" d="M303.423,244.696c0,5.299-4.296,9.594-9.595,9.594s-9.594-4.296-9.594-9.594
	c0-5.299,4.296-9.595,9.594-9.595C299.127,235.101,303.423,239.396,303.423,244.696z M185.508,256c-5.299,0-9.594,4.296-9.594,9.594
	c0,5.299,4.296,9.595,9.594,9.595s9.594-4.296,9.594-9.595C195.102,260.296,190.807,256,185.508,256z M166.319,325.632
	c-5.299,0-9.595,4.296-9.595,9.595s4.296,9.594,9.595,9.594s9.594-4.296,9.594-9.594
	C175.913,329.928,171.618,325.632,166.319,325.632z"/>
<path style="fill:#F5D869;" d="M221.499,304.378c0,5.299-4.296,9.595-9.595,9.595s-9.595-4.296-9.595-9.595s4.296-9.595,9.595-9.595
	C217.203,294.783,221.499,299.078,221.499,304.378z"/>
<path style="fill:#FFF4A5;" d="M272.689,304.378c0,5.299-4.295,9.594-9.594,9.594c-5.299,0-9.594-4.296-9.594-9.594
	c0-5.299,4.296-9.595,9.594-9.595C268.394,294.783,272.689,299.078,272.689,304.378z M360.99,187.129
	c-5.299,0-9.595,4.296-9.595,9.594c0,5.299,4.296,9.595,9.595,9.595s9.594-4.296,9.594-9.595
	C370.585,191.424,366.289,187.129,360.99,187.129z"/>
<path style="fill:#D6A446;" d="M490.924,122.843c-28.102,28.102-73.664,28.102-101.766,0s-28.102-73.664,0-101.766
	s73.664-28.102,101.766,0S519.025,94.741,490.924,122.843z"/>
<path style="fill:#C9993F;" d="M408.572,136.673c-7.011-3.41-13.591-8.007-19.414-13.83c-28.102-28.102-28.102-73.664,0-101.766
	s73.664-28.102,101.766,0c5.823,5.823,10.42,12.402,13.83,19.414c-26.827-13.046-60.073-8.449-82.352,13.83
	S395.525,109.846,408.572,136.673z"/>
<path style="fill:#EDC555;" d="M458.632,72.95c2.74-14.681,13.764-24.939,24.622-22.913c10.858,2.027,17.439,15.571,14.699,30.252
	s-13.764,24.939-24.622,22.913C462.473,101.175,455.892,87.631,458.632,72.95z"/>
<g>
</g>
<g>
</g>
<g>
</g>
<g>
</g>
<g>
</g>
<g>
</g>
<g>
</g>
<g>
</g>
<g>
</g>
<g>
</g>
<g>
</g>
<g>
</g>
<g>
</g>
<g>
</g>
<g>
</g>
</svg>
