<?xml version="1.0" encoding="iso-8859-1"?>
<!-- Generator: Adobe Illustrator 19.0.0, SVG Export Plug-In . SVG Version: 6.00 Build 0)  -->
<svg version="1.1" id="Capa_1" xmlns="http://www.w3.org/2000/svg" xmlns:xlink="http://www.w3.org/1999/xlink" x="0px" y="0px"
	 viewBox="0 0 512 512" style="enable-background:new 0 0 512 512;" xml:space="preserve">
<path style="fill:#FFE473;" d="M512,256c0,141.385-114.615,256-256,256S0,397.385,0,256S114.615,0,256,0S512,114.615,512,256z"/>
<path style="fill:#D28D2E;" d="M298.333,415c0,30.376-8.208,55-18.333,55s-18.333-24.624-18.333-55s8.208-55,18.333-55
	S298.333,384.624,298.333,415z"/>
<path style="fill:#964F32;" d="M300,360c0,11.046-8.954,20-20,20s-20-8.954-20-20c0-7.398,4.028-13.843,10-17.303V250h20v92.697
	C295.972,346.157,300,352.602,300,360z"/>
<path style="fill:#FFF4A5;" d="M456.699,234.699c-49.539,49.539-129.859,49.539-179.398,0s-49.539-129.859,0-179.398
	s129.859-49.539,179.398,0S506.239,185.16,456.699,234.699z"/>
<path style="fill:#783823;" d="M367,0c-80.081,0-145,64.919-145,145c0,29.243,8.664,56.458,23.555,79.234
	c-0.772,0.632-1.539,1.324-2.298,2.083c-7.489,7.489-10.182,17.951-8.097,27.585l-44.089,9.586
	c-7.653,1.664-13.63,7.641-15.294,15.294l-8.223,37.822c-8.355-0.577-16.904,2.32-23.291,8.707
	c-4.335,4.335-7.062,9.669-8.189,15.26l-77.906,77.906c10.608,12.902,22.454,24.747,35.355,35.355l77.906-77.906
	c5.591-1.127,10.924-3.853,15.26-8.188c6.387-6.387,9.283-14.937,8.707-23.292l37.823-8.223c7.653-1.664,13.631-7.642,15.294-15.294
	l9.586-44.089c9.635,2.085,20.097-0.608,27.586-8.097c0.758-0.758,1.44-1.531,2.055-2.317C310.52,281.328,337.745,290,367,290
	c80.081,0,145-64.919,145-145S447.081,0,367,0z M438.019,48.525l-74.555,74.555l-71.473-71.473
	C334.368,17.487,394.57,16.458,438.019,48.525z M273.607,69.991l71.473,71.473l-74.555,74.555
	C238.458,172.57,239.487,112.368,273.607,69.991z M288.15,235.164l75.314-75.314l78.544,78.544
	C397.021,274.615,331.944,273.538,288.15,235.164z M460.393,220.008l-78.544-78.544l75.314-75.314
	C495.538,109.944,496.616,175.02,460.393,220.008z"/>
<path style="fill:#5A2A15;" d="M478.142,51.884c-24.601-15.546-52.781-23.137-80.882-22.782
	c-35.798-9.31-75.061-1.817-105.269,22.504l12.055,12.055c-3.293,2.766-6.501,5.688-9.599,8.786s-6.02,6.305-8.786,9.599
	l-12.055-12.055c-24.322,30.208-31.814,69.471-22.505,105.27c-0.356,28.101,7.236,56.28,22.782,80.882
	c-4.37-3.666-8.518-7.588-12.427-11.737c0.277,0.294,0.547,0.594,0.827,0.886c-0.009,0.009-0.018,0.017-0.027,0.025
	c-8.299,8.299-10.712,20.25-7.253,30.679c-1.785-0.592-3.522-1.365-5.192-2.3c0.063,0.035,0.123,0.077,0.186,0.111l-39.927,8.681
	c-7.653,1.664-13.63,7.641-15.294,15.294l-6.389,29.388c-0.037-0.044-0.077-0.087-0.115-0.131c2.584,3.02,4.478,6.427,5.669,10.02
	c-10.43-3.459-22.38-1.047-30.679,7.253c-8.299,8.299-10.712,20.249-7.253,30.679c-4.156-1.378-8.067-3.691-11.412-6.937
	l-69.283,69.283c-6.019-5.998-11.745-12.29-17.147-18.859l77.906-77.906c1.127-5.592,3.853-10.925,8.189-15.26
	c6.389-6.389,14.942-9.285,23.299-8.706c-0.003,0-0.005,0-0.008,0l8.223-37.822c1.664-7.653,7.641-13.631,15.294-15.294
	l44.089-9.586c-2.085-9.635,0.608-20.097,8.097-27.585c0.739-0.739,1.507-1.431,2.301-2.076C230.662,201.465,222,174.246,222,145
	C222,64.919,286.919,0,367,0C411.63,0,451.544,20.169,478.142,51.884z"/>
<path style="fill:#6599AA;" d="M424.952,202.952c-32.006,32.006-83.898,32.006-115.904,0s-32.006-83.898,0-115.904
	s83.898-32.006,115.904,0S456.958,170.946,424.952,202.952z"/>
<path style="fill:#4A245A;" d="M398.205,176.205c-17.234,17.234-45.176,17.234-62.41,0s-17.234-45.176,0-62.41
	s45.176-17.234,62.41,0S415.439,158.971,398.205,176.205z"/>
<path style="fill:#632E6E;" d="M398.205,176.205c-4.096,4.096-8.801,7.207-13.819,9.356c-5.018-2.149-9.723-5.26-13.819-9.356
	c-17.234-17.234-17.234-45.176,0-62.41c4.096-4.096,8.801-7.207,13.819-9.356c5.018,2.149,9.723,5.26,13.819,9.356
	C415.439,131.029,415.439,158.971,398.205,176.205z"/>
<g>
</g>
<g>
</g>
<g>
</g>
<g>
</g>
<g>
</g>
<g>
</g>
<g>
</g>
<g>
</g>
<g>
</g>
<g>
</g>
<g>
</g>
<g>
</g>
<g>
</g>
<g>
</g>
<g>
</g>
</svg>
