<?xml version="1.0" encoding="iso-8859-1"?>
<!-- Generator: Adobe Illustrator 19.0.0, SVG Export Plug-In . SVG Version: 6.00 Build 0)  -->
<svg version="1.1" id="Capa_1" xmlns="http://www.w3.org/2000/svg" xmlns:xlink="http://www.w3.org/1999/xlink" x="0px" y="0px"
	 viewBox="0 0 512 512" style="enable-background:new 0 0 512 512;" xml:space="preserve">
<path style="fill:#BEE5EB;" d="M512,256c0,141.385-114.615,256-256,256S0,397.385,0,256S114.615,0,256,0S512,114.615,512,256z"/>
<path style="fill:#FA877A;" d="M183.316,110.191l-92.238,17.044c-0.885,0.164-1.702-0.516-1.702-1.417V91.731
	c0-0.901,0.817-1.58,1.702-1.417l92.238,17.044C184.888,107.649,184.888,109.901,183.316,110.191z M510.821,107.358l-92.238-17.044
	c-0.885-0.164-1.702,0.516-1.702,1.417v34.087c0,0.9,0.817,1.58,1.702,1.417l92.238-17.044
	C512.393,109.901,512.393,107.649,510.821,107.358z M383.857,24.099L255.798,0.437c-1.229-0.227-2.363,0.717-2.363,1.967v47.325
	c0,1.25,1.134,2.194,2.363,1.967l128.059-23.663C386.039,27.629,386.039,24.502,383.857,24.099z"/>
<path style="fill:#5A2A15;" d="M98.427,97.203v79.231c0,3.978-3.225,7.203-7.203,7.203c-3.978,0-7.203-3.225-7.203-7.203V97.203
	c0-3.978,3.225-7.203,7.203-7.203S98.427,93.225,98.427,97.203z M418.729,90c-3.978,0-7.203,3.225-7.203,7.203v79.231
	c0,3.978,3.225,7.203,7.203,7.203s7.203-3.225,7.203-7.203V97.203C425.931,93.225,422.707,90,418.729,90z M256,0
	c-5.523,0-10,4.477-10,10v110c0,5.523,4.477,10,10,10c5.523,0,10-4.477,10-10V10C266,4.477,261.523,0,256,0z"/>
<path style="fill:#DAF0F6;" d="M270,165c0,8.284-6.716,15-15,15H105c-8.284,0-15-6.716-15-15s6.716-15,15-15h150
	C263.284,150,270,156.716,270,165z M150,65L150,65c0-8.284,6.716-15,15-15h39.576c8.077,0,15.027-6.207,15.407-14.275
	C220.389,27.111,213.525,20,205,20h-48.359c-32.924,13.878-62.332,34.447-86.533,60H135C143.284,80,150,73.284,150,65z M405,60h-60
	c-8.284,0-15,6.716-15,15s-6.716,15-15,15h-49.576c-8.077,0-15.027,6.207-15.407,14.275C249.611,112.889,256.475,120,265,120h100
	c8.284,0,15-6.716,15-15l0,0c0-8.284,6.716-15,15-15h9.576c8.077,0,15.027-6.207,15.407-14.275C420.389,67.111,413.525,60,405,60z"
	/>
<path style="fill:#D6A446;" d="M37.798,234.056h106.851v252.519c-44.185-21.378-81.285-55.085-106.851-96.65
	C37.798,389.925,37.798,234.056,37.798,234.056z M365.303,487.542c43.911-20.765,80.968-53.645,106.851-94.336v-159.15H365.303
	V487.542z"/>
<path style="fill:#C9993F;" d="M390.327,234.056v239.886c-8.057,4.976-16.406,9.525-25.024,13.6V234.056H390.327z M62.822,389.925
	V234.056H37.798v155.869c25.566,41.565,62.666,75.272,106.851,96.65v-13.899C111.45,451.734,83.398,423.377,62.822,389.925z"/>
<path style="fill:#964F32;" d="M493.236,352.333C455.174,445.971,363.305,512,256,512S56.826,445.971,18.764,352.333H493.236z"/>
<path style="fill:#783823;" d="M485.254,370c-7.037,14.125-15.342,27.507-24.763,40H51.51c-9.422-12.493-17.726-25.875-24.763-40
	H485.254z M420,425v10c0,2.761,2.239,5,5,5h8.967c6.544-6.331,12.753-13.006,18.594-20H425C422.239,420,420,422.239,420,425z
	 M385,440h-30c-2.761,0-5,2.239-5,5v10c0,2.761,2.239,5,5,5h30c2.761,0,5-2.239,5-5v-10C390,442.239,387.761,440,385,440z M155,440
	h-30c-2.761,0-5,2.239-5,5v10c0,2.761,2.239,5,5,5h30c2.761,0,5-2.239,5-5v-10C160,442.239,157.761,440,155,440z M95,430H68.246
	c6.531,7.044,13.445,13.727,20.725,20H95c2.761,0,5-2.239,5-5v-10C100,432.239,97.761,430,95,430z"/>
<g>
	<path style="fill:#BA623E;" d="M27.556,330c2.761,0,5,2.239,5,5v13.889h22.667V335c0-2.761,2.239-5,5-5h31.556c2.761,0,5,2.239,5,5
		v13.889h22.667V335c0-2.761,2.239-5,5-5H156c2.761,0,5,2.239,5,5v13.889h190V335c0-2.761,2.239-5,5-5h31.556c2.761,0,5,2.239,5,5
		v13.889h22.667V335c0-2.761,2.239-5,5-5h31.556c2.761,0,5,2.239,5,5v13.889h22.667V330h21.679
		c-6.041,20.036-14.469,39.033-24.956,56.667H35.833C25.345,369.033,16.917,350.036,10.877,330H27.556z"/>
	<path style="fill:#BA623E;" d="M94.791,140.243l47.621,93.813H40.036l47.621-93.813C89.139,137.324,93.309,137.324,94.791,140.243z
		 M415.162,140.243l-47.621,93.813h102.375l-47.621-93.813C420.813,137.324,416.644,137.324,415.162,140.243z M184.934,200h142.132
		L259.567,67.027c-1.482-2.919-5.652-2.919-7.134,0L184.934,200z"/>
</g>
<path style="fill:#964F32;" d="M94.791,140.243l0.691,1.361l-22.445,92.451h-33l47.621-93.813
	C89.139,137.324,93.309,137.324,94.791,140.243z M415.162,140.243l-47.621,93.813h33l22.445-92.451l-0.691-1.361
	C420.813,137.324,416.644,137.324,415.162,140.243z M184.934,200h31l45.76-128.782l-2.127-4.191c-1.482-2.919-5.652-2.919-7.134,0
	L184.934,200z"/>
<path style="fill:#D6A446;" d="M181.827,200h148.346v301.072C306.693,508.169,281.796,512,256,512s-50.693-3.831-74.173-10.928V200z
	"/>
<path style="fill:#5A2A15;" d="M276,270v35c0,2.761-2.239,5-5,5h-30c-2.761,0-5-2.239-5-5v-35c0-11.046,8.954-20,20-20l0,0
	C267.046,250,276,258.954,276,270z"/>
<path style="fill:#C9993F;" d="M210,475v10c0,2.761-2.239,5-5,5h-1.173v16.663c-7.456-1.546-14.796-3.413-22-5.591V490v-20V270v-20
	v-50h22v50H205c2.761,0,5,2.239,5,5v10c0,2.761-2.239,5-5,5h-1.173v140.153c0.378-0.091,0.767-0.153,1.173-0.153h30
	c2.761,0,5,2.239,5,5v10c0,2.761-2.239,5-5,5h-30c-0.406,0-0.795-0.062-1.173-0.153V470H205C207.761,470,210,472.239,210,475z
	 M90,285v-10c0-2.761-2.239-5-5-5H55c-2.761,0-5,2.239-5,5v10c0,2.761,2.239,5,5,5h30C87.761,290,90,287.761,90,285z M255,440h-30
	c-2.761,0-5,2.239-5,5v10c0,2.761,2.239,5,5,5h30c2.761,0,5-2.239,5-5v-10C260,442.239,257.761,440,255,440z M115,300H85
	c-2.761,0-5,2.239-5,5v10c0,2.761,2.239,5,5,5h30c2.761,0,5-2.239,5-5v-10C120,302.239,117.761,300,115,300z M300,285v10
	c0,2.761,2.239,5,5,5h25.173v-20H305C302.239,280,300,282.239,300,285z M415,300h-30c-2.761,0-5,2.239-5,5v10c0,2.761,2.239,5,5,5
	h30c2.761,0,5-2.239,5-5v-10C420,302.239,417.761,300,415,300z M315,460h-30c-2.761,0-5,2.239-5,5v10c0,2.761,2.239,5,5,5h30
	c2.761,0,5-2.239,5-5v-10C320,462.239,317.761,460,315,460z M455,270h-30c-2.761,0-5,2.239-5,5v10c0,2.761,2.239,5,5,5h30
	c2.761,0,5-2.239,5-5v-10C460,272.239,457.761,270,455,270z M300,415v10c0,2.761,2.239,5,5,5h25.173v-20H305
	C302.239,410,300,412.239,300,415z"/>
<path style="fill:#EDC555;" d="M304.444,173.333H336c2.761,0,5,2.239,5,5v13.889v18.889V225c0,2.761-2.239,5-5,5H176
	c-2.761,0-5-2.239-5-5v-13.889v-18.889v-13.889c0-2.761,2.239-5,5-5h31.556c2.761,0,5,2.239,5,5v13.889h22.667v-13.889
	c0-2.761,2.239-5,5-5h31.556c2.761,0,5,2.239,5,5v13.889h22.667v-13.889C299.444,175.572,301.683,173.333,304.444,173.333z
	 M299.444,351.111h-22.667v-13.889c0-2.761-2.239-5-5-5h-31.556c-2.761,0-5,2.239-5,5v13.889h-22.667v-13.889c0-2.761-2.239-5-5-5
	H176c-2.761,0-5,2.239-5,5v13.889V370v13.889c0,2.761,2.239,5,5,5h160c2.761,0,5-2.239,5-5V370v-18.889v-13.889c0-2.761-2.239-5-5-5
	h-31.556c-2.761,0-5,2.239-5,5V351.111z M122.516,228.454H106.19v-8.605c0-2.761-2.239-5-5-5H81.258c-2.761,0-5,2.239-5,5v8.605
	H59.932v-8.605c0-2.761-2.239-5-5-5H35c-2.761,0-5,2.239-5,5v8.605v13.605v8.605c0,2.761,2.239,5,5,5h112.448c2.761,0,5-2.239,5-5
	v-8.605v-13.605v-8.605c0-2.761-2.239-5-5-5h-19.932c-2.761,0-5,2.239-5,5V228.454z M450.021,219.848v8.605h-16.326v-8.605
	c0-2.761-2.239-5-5-5h-19.932c-2.761,0-5,2.239-5,5v8.605h-16.326v-8.605c0-2.761-2.239-5-5-5h-19.932c-2.761,0-5,2.239-5,5v8.605
	v13.605v8.605c0,2.761,2.239,5,5,5h112.448c2.761,0,5-2.239,5-5v-8.605v-13.605v-8.605c0-2.761-2.239-5-5-5h-19.932
	C452.259,214.848,450.021,217.087,450.021,219.848z"/>
<path style="fill:#E3B64B;" d="M56.024,255.664H35c-2.761,0-5-2.239-5-5v-8.605v-13.605v-8.605c0-2.761,2.239-5,5-5h19.932
	c0.187,0,0.364,0.035,0.546,0.055c-2.501,0.276-4.454,2.371-4.454,4.945v8.605v13.605v8.605
	C51.024,253.426,53.262,255.664,56.024,255.664z M192.024,351.111v-13.889c0-2.761,2.239-5,5-5H176c-2.761,0-5,2.239-5,5v13.889V370
	v13.889c0,2.761,2.239,5,5,5h21.024c-2.761,0-5-2.239-5-5V370V351.111z M378.529,250.664v-8.605v-13.605v-8.605
	c0-2.574,1.953-4.669,4.454-4.945c-0.182-0.02-0.359-0.055-0.546-0.055h-19.932c-2.761,0-5,2.239-5,5v8.605v13.605v8.605
	c0,2.761,2.239,5,5,5h21.024C380.767,255.664,378.529,253.426,378.529,250.664z M192.024,192.222v-13.889c0-2.761,2.239-5,5-5H176
	c-2.761,0-5,2.239-5,5v13.889v18.889V225c0,2.761,2.239,5,5,5h21.024c-2.761,0-5-2.239-5-5v-13.889V192.222z"/>
<g>
</g>
<g>
</g>
<g>
</g>
<g>
</g>
<g>
</g>
<g>
</g>
<g>
</g>
<g>
</g>
<g>
</g>
<g>
</g>
<g>
</g>
<g>
</g>
<g>
</g>
<g>
</g>
<g>
</g>
</svg>
