<?xml version="1.0" encoding="iso-8859-1"?>
<!-- Generator: Adobe Illustrator 19.0.0, SVG Export Plug-In . SVG Version: 6.00 Build 0)  -->
<svg version="1.1" id="Capa_1" xmlns="http://www.w3.org/2000/svg" xmlns:xlink="http://www.w3.org/1999/xlink" x="0px" y="0px"
	 viewBox="0 0 512 512" style="enable-background:new 0 0 512 512;" xml:space="preserve">
<path style="fill:#E6A0FA;" d="M512,256c0,141.385-114.615,256-256,256S0,397.385,0,256S114.615,0,256,0S512,114.615,512,256z"/>
<path style="fill:#BA623E;" d="M468.199,187.5v211.747c-12.614,18.65-27.622,35.548-44.583,50.253H190H88.384H53.801
	c-5.523,0-10-4.477-10-10v-260c0-61.856,50.144-112,112-112H356.2c61.856,0,112,50.144,112,112h-4.018
	C466.616,181.324,468.199,184.223,468.199,187.5z"/>
<path style="fill:#964F32;" d="M468.199,232.5v-45c0-1.824-0.496-3.528-1.349-5l-391.224-5c1.068-60.932,50.788-110,111.975-110
	H155.8c-61.856,0-112,50.144-112,112v8v45v207c0,5.523,4.477,10,10,10H80c-5.523,0-10-4.477-10-10v-22c0-2.761,2.239-5,5-5h355
	c5.523,0,10-4.477,10-10l0,0c0-5.523-4.477-10-10-10H70v-40c0-2.761,2.239-5,5-5h355c5.523,0,10-4.477,10-10l0,0
	c0-5.523-4.477-10-10-10H70v-40c0-2.761,2.239-5,5-5h28.292c6.372,20.285,25.32,35,47.708,35s41.336-14.715,47.708-35h114.585
	c6.372,20.285,25.32,35,47.708,35s41.336-14.715,47.708-35H430c5.523,0,10-4.477,10-10l0,0c0-5.523-4.477-10-10-10h-19.25
	c-0.811-8.171-3.592-15.76-7.858-22.292c-2.166-3.316,0.233-7.708,4.193-7.708H468.199z M101.25,262.5H70v-25c0-2.761,2.239-5,5-5
	h40.306C107.556,240.403,102.405,250.861,101.25,262.5z M311.25,262.5h-110.5c-0.811-8.171-3.592-15.76-7.858-22.292
	c-2.166-3.316,0.233-7.708,4.193-7.708h128.22C317.556,240.403,312.405,250.861,311.25,262.5z"/>
<path style="fill:#FFE473;" d="M471.5,212.5h-431c-2.761,0-5-2.239-5-5v-30c0-2.761,2.239-5,5-5h431c2.761,0,5,2.239,5,5v30
	C476.5,210.261,474.261,212.5,471.5,212.5z"/>
<path style="fill:#FFCD61;" d="M69,177.5v30c0,2.761,2.239,5,5,5H40.5c-2.761,0-5-2.239-5-5v-30c0-2.761,2.239-5,5-5H74
	C71.239,172.5,69,174.739,69,177.5z M101,212.5h50v-40h-50V212.5z M311,172.5v40h50v-40H311z"/>
<path style="fill:#FFF9C8;" d="M396,267.5c0,19.33-15.67,35-35,35s-35-15.67-35-35c0-11.891,5.936-22.391,15-28.716V67.5
	c0-2.761,2.239-5,5-5h30c2.761,0,5,2.239,5,5v171.284C390.064,245.109,396,255.609,396,267.5z M171,238.784V67.5
	c0-2.761-2.239-5-5-5h-30c-2.761,0-5,2.239-5,5v171.284c-9.064,6.325-15,16.824-15,28.716c0,19.33,15.67,35,35,35s35-15.67,35-35
	C186,255.609,180.064,245.109,171,238.784z"/>
<path style="fill:#783823;" d="M376,263.5c0,5.549-3.021,10.382-7.5,12.977V281c0,4.142-3.358,7.5-7.5,7.5s-7.5-3.358-7.5-7.5
	v-4.523c-4.479-2.594-7.5-7.428-7.5-12.977c0-8.284,6.716-15,15-15S376,255.216,376,263.5z M151,248.5c-8.284,0-15,6.716-15,15
	c0,5.549,3.021,10.382,7.5,12.977V281c0,4.142,3.358,7.5,7.5,7.5s7.5-3.358,7.5-7.5v-4.523c4.479-2.594,7.5-7.428,7.5-12.977
	C166,255.216,159.284,248.5,151,248.5z"/>
<g>
</g>
<g>
</g>
<g>
</g>
<g>
</g>
<g>
</g>
<g>
</g>
<g>
</g>
<g>
</g>
<g>
</g>
<g>
</g>
<g>
</g>
<g>
</g>
<g>
</g>
<g>
</g>
<g>
</g>
</svg>
