<?xml version="1.0" encoding="iso-8859-1"?>
<!-- Generator: Adobe Illustrator 19.0.0, SVG Export Plug-In . SVG Version: 6.00 Build 0)  -->
<svg version="1.1" id="Capa_1" xmlns="http://www.w3.org/2000/svg" xmlns:xlink="http://www.w3.org/1999/xlink" x="0px" y="0px"
	 viewBox="0 0 512 512" style="enable-background:new 0 0 512 512;" xml:space="preserve">
<path style="fill:#A5EBCE;" d="M512,256c0,141.385-114.615,256-256,256S0,397.385,0,256S114.615,0,256,0S512,114.615,512,256z"/>
<path style="fill:#BA623E;" d="M456,330H56V90c0-11.046,8.954-20,20-20h360c11.046,0,20,8.954,20,20V330z"/>
<path style="fill:#5A2A15;" d="M412,370H100c-5.523,0-10-4.477-10-10V120c0-5.523,4.477-10,10-10h312c5.523,0,10,4.477,10,10v240
	C422,365.523,417.523,370,412,370z"/>
<path style="fill:#FFEF87;" d="M259.611,190.586l20.515,57.688c0.764,2.148,3.218,3.164,5.277,2.186l55.297-26.285
	c3.27-1.554,6.681,1.857,5.126,5.126l-26.285,55.297c-0.979,2.059,0.038,4.513,2.186,5.277l57.688,20.515
	c3.411,1.213,3.411,6.037,0,7.25l-57.688,20.515c-2.148,0.764-3.164,3.218-2.186,5.277l26.285,55.297
	c1.554,3.27-1.857,6.681-5.126,5.126l-55.297-26.285c-2.059-0.979-4.513,0.038-5.277,2.186l-20.515,57.688
	c-1.213,3.411-6.037,3.411-7.25,0l-20.515-57.688c-0.764-2.148-3.218-3.164-5.277-2.186l-55.297,26.285
	c-3.27,1.554-6.681-1.857-5.126-5.126l26.285-55.297c0.979-2.059-0.038-4.513-2.186-5.277l-57.688-20.515
	c-3.411-1.213-3.411-6.037,0-7.25l57.688-20.515c2.148-0.764,3.164-3.218,2.186-5.277L166.146,229.3
	c-1.554-3.27,1.857-6.681,5.126-5.126l55.297,26.285c2.059,0.979,4.513-0.038,5.277-2.186l20.515-57.688
	C253.574,187.175,258.398,187.175,259.611,190.586z"/>
<path style="fill:#C9993F;" d="M200.646,262.159l11.723,23.753c0.564,1.143,1.655,1.935,2.916,2.119l26.212,3.809
	c3.177,0.462,4.445,4.365,2.146,6.606l-18.968,18.489c-0.913,0.89-1.329,2.172-1.114,3.428l4.478,26.107
	c0.543,3.164-2.778,5.576-5.619,4.083l-23.445-12.326c-1.128-0.593-2.476-0.593-3.604,0l-23.445,12.326
	c-2.841,1.494-6.162-0.919-5.619-4.083l4.478-26.107c0.215-1.256-0.201-2.538-1.114-3.428l-18.968-18.489
	c-2.299-2.241-1.03-6.144,2.146-6.606l26.212-3.809c1.261-0.183,2.352-0.976,2.916-2.119l11.723-23.753
	C195.121,259.28,199.226,259.28,200.646,262.159z"/>
<path style="fill:#FFF4A5;" d="M233.511,97.528l6.423,11.744c0.184,0.336,0.459,0.611,0.795,0.795l11.744,6.423
	c1.387,0.759,1.387,2.751,0,3.509l-11.744,6.423c-0.336,0.184-0.611,0.459-0.795,0.795l-6.423,11.744
	c-0.759,1.387-2.751,1.387-3.509,0l-6.423-11.744c-0.184-0.336-0.459-0.611-0.795-0.795l-11.744-6.423
	c-1.387-0.759-1.387-2.751,0-3.509l11.744-6.423c0.336-0.184,0.611-0.459,0.795-0.795l6.423-11.744
	C230.76,96.14,232.752,96.14,233.511,97.528z"/>
<path style="fill:#E3B64B;" d="M353.431,168.992l-14.799,14.425c-0.712,0.694-1.037,1.694-0.869,2.675l3.494,20.369
	c0.423,2.468-2.168,4.351-4.384,3.185l-18.293-9.617c-0.88-0.463-1.932-0.463-2.812,0l-18.293,9.617
	c-2.217,1.166-4.808-0.717-4.384-3.185l3.494-20.369c0.168-0.98-0.157-1.98-0.869-2.675l-14.799-14.425
	c-1.793-1.749-0.804-4.794,1.675-5.154l20.452-2.972c0.984-0.143,1.835-0.761,2.275-1.653l9.146-18.533
	c1.108-2.246,4.311-2.246,5.419,0l9.146,18.533c0.44,0.892,1.291,1.51,2.275,1.653l20.452,2.972
	C354.235,164.198,355.224,167.243,353.431,168.992z M342.472,280.001l-11.744-6.422c-0.336-0.184-0.611-0.459-0.795-0.795
	l-6.423-11.744c-0.759-1.387-2.751-1.387-3.509,0l-6.423,11.744c-0.184,0.336-0.459,0.612-0.795,0.795l-11.744,6.422
	c-1.387,0.759-1.387,2.751,0,3.51l11.744,6.422c0.336,0.184,0.612,0.46,0.795,0.795l6.423,11.744c0.759,1.387,2.751,1.387,3.509,0
	l6.423-11.744c0.184-0.335,0.459-0.612,0.795-0.795l11.744-6.422C343.86,282.752,343.86,280.76,342.472,280.001z"/>
<path style="fill:#BA623E;" d="M162.782,161.106l6.423,11.744c0.184,0.336,0.459,0.611,0.795,0.795l11.744,6.423
	c1.387,0.759,1.387,2.751,0,3.509L170,190c-0.336,0.184-0.611,0.459-0.795,0.795l-6.423,11.744c-0.759,1.387-2.751,1.387-3.509,0
	l-6.423-11.744c-0.184-0.336-0.459-0.611-0.795-0.795l-11.744-6.423c-1.387-0.759-1.387-2.751,0-3.509l11.744-6.423
	c0.336-0.184,0.611-0.459,0.795-0.795l6.423-11.744C160.031,159.719,162.024,159.719,162.782,161.106z"/>
<path style="fill:#783823;" d="M456,415.788C409.088,474.429,336.937,512,256,512s-153.088-37.571-200-96.212V320h400V415.788z"/>
<path style="fill:#5A2A15;" d="M355.359,492c-30.551,12.878-64.123,20-99.359,20s-68.808-7.122-99.359-20H355.359z M437.033,431H90
	c-5.523,0-10-4.477-10-10v-21c0-5.523,4.477-10,10-10h340c5.523,0,10-4.477,10-10l0,0c0-5.523-4.477-10-10-10H90
	c-5.523,0-10-4.477-10-10v-40H56v95.788C66.239,428.587,77.68,440.38,90.154,451h331.692c6.324-5.384,12.383-11.067,18.154-17.033
	l0,0C440,432.328,438.672,431,437.033,431z"/>
<path style="fill:#FFEF87;" d="M211,55v20c0,2.761-2.239,5-5,5h-60c-2.761,0-5-2.239-5-5V55c0-2.761,2.239-5,5-5h60
	C208.761,50,211,52.239,211,55z M366,50h-60c-2.761,0-5,2.239-5,5v20c0,2.761,2.239,5,5,5h60c2.761,0,5-2.239,5-5V55
	C371,52.239,368.761,50,366,50z"/>
<path style="fill:#FFE473;" d="M161.028,55v20c0,2.761,2.239,5,5,5H146c-2.761,0-5-2.239-5-5V55c0-2.761,2.239-5,5-5h20.028
	C163.266,50,161.028,52.239,161.028,55z M321.028,75V55c0-2.761,2.239-5,5-5H306c-2.761,0-5,2.239-5,5v20c0,2.761,2.239,5,5,5
	h20.028C323.266,80,321.028,77.761,321.028,75z"/>
<g>
</g>
<g>
</g>
<g>
</g>
<g>
</g>
<g>
</g>
<g>
</g>
<g>
</g>
<g>
</g>
<g>
</g>
<g>
</g>
<g>
</g>
<g>
</g>
<g>
</g>
<g>
</g>
<g>
</g>
</svg>
