<?xml version="1.0" encoding="iso-8859-1"?>
<!-- Generator: Adobe Illustrator 19.0.0, SVG Export Plug-In . SVG Version: 6.00 Build 0)  -->
<svg version="1.1" id="Capa_1" xmlns="http://www.w3.org/2000/svg" xmlns:xlink="http://www.w3.org/1999/xlink" x="0px" y="0px"
	 viewBox="0 0 512 512" style="enable-background:new 0 0 512 512;" xml:space="preserve">
<path style="fill:#E6A0FA;" d="M512,256c0,115.1-75.963,212.452-180.489,244.674c-3.508-2.384-7.742-3.778-12.303-3.778
	c-8.26,0-15.449,4.571-19.185,11.32C285.719,510.695,271.013,512,256,512C114.615,512,0,397.385,0,256S114.615,0,256,0
	S512,114.615,512,256z"/>
<path style="fill:#189681;" d="M402,230v236.291c-21.358,14.856-45.087,26.535-70.502,34.374c-3.505-2.378-7.735-3.769-12.29-3.769
	c-8.262,0-15.453,4.573-19.188,11.324C285.719,510.701,271.012,512,256,512c-54.271,0-104.586-16.902-146-45.709V230
	c0-39.404,28.496-72.13,66-78.754V130h-1c-8.284,0-15-6.716-15-15c0-3.847,1.461-7.345,3.842-10c-2.381-2.655-3.842-6.153-3.842-10
	c0-8.284,6.716-15,15-15h162c8.284,0,15,6.716,15,15c0,3.847-1.461,7.345-3.842,10c2.381,2.655,3.842,6.153,3.842,10
	c0,8.284-6.716,15-15,15h-1v21.246C373.504,157.87,402,190.596,402,230z"/>
<path style="fill:#0F7D73;" d="M302.667,140.5c0,5.983-4.85,10.833-10.833,10.833h-76.27C178.277,158.135,150,190.75,150,230v240
	c0,6.991,0.902,13.771,2.587,20.235c-15.009-6.636-29.259-14.672-42.587-23.944V230c0-39.404,28.496-72.13,66-78.754V130h-1
	c-8.284,0-15-6.716-15-15c0-3.847,1.461-7.345,3.842-10c-2.381-2.655-3.842-6.153-3.842-10c0-8.284,6.716-15,15-15h40
	c-8.284,0-15,6.716-15,15c0,3.847,1.461,7.345,3.842,10c-2.381,2.655-3.842,6.153-3.842,10c0,7.346,5.284,13.447,12.256,14.738
	c0.397-0.044,0.799-0.071,1.208-0.071h78.369C297.816,129.667,302.667,134.517,302.667,140.5z"/>
<path style="fill:#35AF94;" d="M240,360c0,27.614-22.386,50-50,50s-50-22.386-50-50s22.386-50,50-50S240,332.386,240,360z M310,310
	c38.66,0,70-31.34,70-70s-31.34-70-70-70s-70,31.34-70,70S271.34,310,310,310z M310,410c-38.66,0-70,31.34-70,70
	c0,11.475,2.779,22.294,7.673,31.851c2.766,0.088,5.54,0.149,8.327,0.149c15.012,0,29.72-1.301,44.022-3.782
	c3.735-6.75,10.926-11.322,19.186-11.322c4.556,0,8.787,1.391,12.293,3.771c16.987-5.24,33.223-12.194,48.499-20.668
	C379.999,441.339,348.659,410,310,410z"/>
<path style="fill:#FFEF87;" d="M211.415,360.014c0,11.834-9.594,21.429-21.429,21.429s-21.429-9.594-21.429-21.429
	s9.594-21.429,21.429-21.429S211.415,348.179,211.415,360.014z M309.986,450.014c-16.569,0-30,13.432-30,30
	c0,13.012,8.286,24.085,19.868,28.242c10.899-1.882,21.565-4.444,31.945-7.658c5.072-5.373,8.187-12.612,8.187-20.584
	C339.986,463.445,326.555,450.014,309.986,450.014z M309.986,270.014c16.569,0,30-13.432,30-30s-13.431-30-30-30s-30,13.432-30,30
	S293.418,270.014,309.986,270.014z"/>
<path style="fill:#FFF9C8;" d="M200,250c0,5.523-4.477,10-10,10s-10-4.477-10-10s4.477-10,10-10S200,244.477,200,250z M360,250
	c0-5.523-4.477-10-10-10s-10,4.477-10,10s4.477,10,10,10S360,255.523,360,250z M275,165c-5.523,0-10,4.477-10,10s4.477,10,10,10
	s10-4.477,10-10S280.523,165,275,165z M360,380c-5.523,0-10,4.477-10,10s4.477,10,10,10s10-4.477,10-10S365.523,380,360,380z
	 M260,420c-5.523,0-10,4.477-10,10s4.477,10,10,10c5.523,0,10-4.477,10-10S265.523,420,260,420z M310,340c-5.523,0-10,4.477-10,10
	s4.477,10,10,10s10-4.477,10-10S315.523,340,310,340z"/>
<path style="fill:#384E64;" d="M346,0H166c-38.598,0-70,31.402-70,70c0,11.028,8.972,20,20,20h280c11.028,0,20-8.972,20-20
	C416,31.402,384.598,0,346,0z M116,70c0-27.57,25.43-50,53-50h174c27.57,0,53,22.43,53,50H116z"/>
<path style="fill:#3C5D78;" d="M356,110H156c-5.523,0-10-4.477-10-10V60c0-5.523,4.477-10,10-10h200c5.523,0,10,4.477,10,10v40
	C366,105.523,361.523,110,356,110z"/>
<path style="fill:#384E64;" d="M210,110h-54c-5.523,0-10-4.477-10-10V60c0-5.523,4.477-10,10-10h54c-5.523,0-10,4.477-10,10v40
	C200,105.523,204.477,110,210,110z"/>
<g>
</g>
<g>
</g>
<g>
</g>
<g>
</g>
<g>
</g>
<g>
</g>
<g>
</g>
<g>
</g>
<g>
</g>
<g>
</g>
<g>
</g>
<g>
</g>
<g>
</g>
<g>
</g>
<g>
</g>
</svg>
