<?xml version="1.0" encoding="iso-8859-1"?>
<!-- Generator: Adobe Illustrator 19.0.0, SVG Export Plug-In . SVG Version: 6.00 Build 0)  -->
<svg version="1.1" id="Capa_1" xmlns="http://www.w3.org/2000/svg" xmlns:xlink="http://www.w3.org/1999/xlink" x="0px" y="0px"
	 viewBox="0 0 512 512" style="enable-background:new 0 0 512 512;" xml:space="preserve">
<path style="fill:#384E64;" d="M512,256c0,141.385-114.615,256-256,256S0,397.385,0,256S114.615,0,256,0S512,114.615,512,256z"/>
<path style="fill:#FF8F50;" d="M483.966,147.411l-48.789,17.35c-3.108,1.105-4.578,4.655-3.162,7.634l22.23,46.767
	c2.249,4.73-2.686,9.665-7.417,7.417l-46.767-22.23c-2.979-1.416-6.529,0.054-7.634,3.162l-17.35,48.789
	c-1.755,4.935-8.734,4.935-10.489,0l-17.35-48.789c-1.105-3.108-4.655-4.578-7.634-3.162l-46.767,22.23
	c-4.73,2.249-9.665-2.686-7.417-7.417l22.23-46.767c1.416-2.979-0.054-6.529-3.162-7.634l-48.788-17.35
	c-4.935-1.755-4.935-8.734,0-10.489l48.788-17.35c3.108-1.105,4.578-4.655,3.162-7.634l-22.23-46.767
	c-2.249-4.73,2.686-9.665,7.417-7.417l46.767,22.23c2.979,1.416,6.529-0.054,7.634-3.162l17.35-48.789
	c1.755-4.935,8.734-4.935,10.489,0l17.35,48.789c1.105,3.108,4.655,4.578,7.634,3.162l46.767-22.23
	c4.73-2.249,9.665,2.686,7.417,7.417l-22.23,46.767c-1.416,2.979,0.054,6.529,3.162,7.634l48.789,17.35
	C488.9,138.677,488.9,145.656,483.966,147.411z M368.039,399.245l-11.744-6.423c-0.336-0.184-0.612-0.459-0.795-0.795l-6.423-11.744
	c-0.759-1.387-2.751-1.387-3.509,0l-6.423,11.744c-0.184,0.336-0.459,0.611-0.795,0.795l-11.744,6.423
	c-1.387,0.759-1.387,2.751,0,3.509l11.744,6.423c0.336,0.184,0.612,0.459,0.795,0.795l6.423,11.744c0.759,1.387,2.751,1.387,3.509,0
	l6.423-11.744c0.184-0.335,0.459-0.611,0.795-0.795l11.744-6.423C369.426,401.996,369.426,400.004,368.039,399.245z"/>
<path style="fill:#FFC37D;" d="M345.182,60.476l6.423,11.744c0.184,0.336,0.459,0.611,0.795,0.795l11.744,6.423
	c1.387,0.759,1.387,2.751,0,3.509L352.4,89.37c-0.336,0.184-0.611,0.459-0.795,0.795l-6.423,11.744
	c-0.759,1.387-2.751,1.387-3.509,0l-6.423-11.744c-0.184-0.336-0.459-0.611-0.795-0.795l-11.744-6.423
	c-1.387-0.759-1.387-2.751,0-3.509l11.744-6.423c0.336-0.184,0.611-0.459,0.795-0.795l6.423-11.744
	C342.431,59.089,344.423,59.089,345.182,60.476z"/>
<path style="fill:#F5D869;" d="M437.043,143.205l6.423,11.744c0.184,0.336,0.459,0.611,0.795,0.795l11.744,6.423
	c1.387,0.759,1.387,2.751,0,3.509l-11.744,6.423c-0.336,0.184-0.611,0.459-0.795,0.795l-6.423,11.744
	c-0.759,1.387-2.751,1.387-3.509,0l-6.423-11.744c-0.184-0.336-0.459-0.611-0.795-0.795l-11.744-6.423
	c-1.387-0.759-1.387-2.751,0-3.509l11.744-6.423c0.336-0.184,0.611-0.459,0.795-0.795l6.423-11.744
	C434.292,141.818,436.284,141.818,437.043,143.205z"/>
<path style="fill:#FFEF87;" d="M272.72,206.946l96.51-86.834c4.121-3.708,10.424-3.542,14.344,0.378l7.15,7.15L287.867,236.981
	l-15.53-15.53C268.286,217.4,268.46,210.779,272.72,206.946z"/>
<path style="fill:#FFF9C8;" d="M275.019,224.133l101.726-95.694c3.909-3.677,10.042-4.076,14.13-0.599
	c4.527,3.851,4.911,10.596,1.013,14.929l-86.834,96.51c-3.832,4.26-10.453,4.434-14.505,0.382L275.019,224.133z"/>
<path style="fill:#9DC7CD;" d="M304.732,239.638l-94.255,104.759c-35.393,39.337-71.816,77.733-109.233,115.15l-0.214,0.214
	c-18.374-13.996-34.795-30.417-48.79-48.79l0.214-0.214c37.417-37.417,75.813-73.84,115.15-109.233l104.759-94.255L304.732,239.638z
	"/>
<path style="fill:#7FADB9;" d="M177.856,311.776c-39.337,35.393-77.733,71.816-115.15,109.233l-1.308,1.308
	c-3.159-3.692-6.211-7.477-9.159-11.347l0.214-0.214c37.417-37.417,75.813-73.84,115.15-109.233l104.759-94.255l10.253,10.253
	L177.856,311.776z"/>
<path style="fill:#FFF4A5;" d="M415.286,250.094l6.423,11.744c0.184,0.336,0.459,0.611,0.795,0.795l11.744,6.423
	c1.387,0.759,1.387,2.751,0,3.509l-11.744,6.423c-0.336,0.184-0.612,0.459-0.795,0.795l-6.423,11.744
	c-0.759,1.387-2.751,1.387-3.509,0l-6.423-11.744c-0.184-0.336-0.459-0.611-0.795-0.795l-11.744-6.423
	c-1.387-0.759-1.387-2.751,0-3.509l11.744-6.423c0.336-0.184,0.612-0.459,0.795-0.795l6.423-11.744
	C412.535,248.707,414.528,248.707,415.286,250.094z"/>
<g>
</g>
<g>
</g>
<g>
</g>
<g>
</g>
<g>
</g>
<g>
</g>
<g>
</g>
<g>
</g>
<g>
</g>
<g>
</g>
<g>
</g>
<g>
</g>
<g>
</g>
<g>
</g>
<g>
</g>
</svg>
