<?xml version="1.0" encoding="iso-8859-1"?>
<!-- Generator: Adobe Illustrator 19.0.0, SVG Export Plug-In . SVG Version: 6.00 Build 0)  -->
<svg version="1.1" id="Capa_1" xmlns="http://www.w3.org/2000/svg" xmlns:xlink="http://www.w3.org/1999/xlink" x="0px" y="0px"
	 viewBox="0 0 512 512" style="enable-background:new 0 0 512 512;" xml:space="preserve">
<path style="fill:#384E64;" d="M512,256c0,141.385-114.615,256-256,256c-48.585,0-94.008-13.535-132.706-37.039
	c0.113-1.373,0.185-2.757,0.185-4.159c0-27.747-22.493-50.24-50.24-50.24c-4.166,0-8.21,0.516-12.08,1.472
	C23.03,377.333,0,319.36,0,256C0,114.615,114.615,0,256,0S512,114.615,512,256z"/>
<path style="fill:#FFF4A5;" d="M410,119H310V71h100V119z M341,395v60h70v-60H341z"/>
<path style="fill:#FFF9C8;" d="M411,80.25h-40V448H101c-22.091,0-40-20.909-40-43V79c0-22.091,17.909-40,40-40h240h30h40V80.25z"/>
<path style="fill:#FFF4A5;" d="M101,445h318v8.407c-9.561,7.903-19.705,15.126-30.36,21.593H123.36
	C99.813,460.708,78.767,442.716,61,421.846V405C61,427.091,78.909,445,101,445z"/>
<path style="fill:#D28D2E;" d="M449.384,423.747c-15.942,18.362-34.456,34.429-54.981,47.645C380.598,465.086,371,451.168,371,435
	c0-22.091,17.909-40,40-40C429.183,395,444.521,407.136,449.384,423.747z M411,119c22.091,0,40-17.909,40-40s-17.909-40-40-40
	s-40,17.909-40,40S388.909,119,411,119z"/>
<path style="fill:#A5640D;" d="M431,435c0,3.958-1.165,7.636-3.148,10.741c-2.819,2.555-5.696,5.046-8.627,7.475
	c-2.511,1.136-5.29,1.784-8.225,1.784c-11.046,0-20-8.954-20-20s8.954-20,20-20S431,423.954,431,435z M411,99
	c11.046,0,20-8.954,20-20s-8.954-20-20-20s-20,8.954-20,20S399.954,99,411,99z"/>
<path style="fill:#FFEF87;" d="M236,405v10c0,2.761-2.239,5-5,5h-30c-2.761,0-5-2.239-5-5v-10c0-2.761,2.239-5,5-5h30
	C233.761,400,236,402.239,236,405z M251,360h-70c-2.761,0-5,2.239-5,5v10c0,2.761,2.239,5,5,5h70c2.761,0,5-2.239,5-5v-10
	C256,362.239,253.761,360,251,360z M271,320H161c-2.761,0-5,2.239-5,5v10c0,2.761,2.239,5,5,5h110c2.761,0,5-2.239,5-5v-10
	C276,322.239,273.761,320,271,320z M291,280H141c-2.761,0-5,2.239-5,5v10c0,2.761,2.239,5,5,5h150c2.761,0,5-2.239,5-5v-10
	C296,282.239,293.761,280,291,280z"/>
<path style="fill:#EDC555;" d="M216,70c-49.626,0-90,40.374-90,90s40.374,90,90,90s90-40.374,90-90S265.626,70,216,70z M216,233.636
	c-40.603,0-73.636-33.033-73.636-73.636S175.397,86.364,216,86.364s73.636,33.033,73.636,73.636S256.603,233.636,216,233.636z
	 M264.191,145.495l-19.67,19.173c-0.947,0.923-1.378,2.252-1.155,3.555l4.643,27.073c0.563,3.281-2.881,5.783-5.827,4.234
	l-24.313-12.782c-1.17-0.615-2.568-0.615-3.738,0l-24.313,12.782c-2.947,1.549-6.39-0.953-5.827-4.234l4.643-27.073
	c0.223-1.303-0.208-2.632-1.155-3.555l-19.67-19.173c-2.384-2.324-1.068-6.372,2.226-6.851l27.183-3.95
	c1.308-0.19,2.439-1.012,3.024-2.197l12.156-24.632c1.473-2.985,5.73-2.985,7.203,0l12.156,24.632
	c0.585,1.185,1.716,2.007,3.024,2.197l27.183,3.95C265.259,139.123,266.574,143.171,264.191,145.495z"/>
<path style="fill:#E3B64B;" d="M170.035,138.645l27.183-3.95c0.515-0.075,1.001-0.251,1.439-0.506
	c8.871,25.705,26.518,47.318,49.366,61.251c0.438,3.208-2.939,5.616-5.842,4.09l-24.313-12.782c-1.17-0.615-2.568-0.615-3.738,0
	l-24.313,12.782c-2.947,1.549-6.39-0.953-5.827-4.234l4.643-27.073c0.223-1.303-0.208-2.632-1.155-3.555l-19.67-19.173
	C165.426,143.171,166.741,139.123,170.035,138.645z M272.82,206.788c-13.517,16.386-33.969,26.849-56.82,26.849
	c-40.603,0-73.636-33.033-73.636-73.636c0-32.383,21.022-59.931,50.129-69.766c0.313-6.034,1.089-11.945,2.29-17.701
	C155.362,82.097,126,117.681,126,160c0,49.626,40.374,90,90,90c30.742,0,57.929-15.497,74.172-39.085
	C284.225,209.979,278.43,208.59,272.82,206.788z"/>
<g>
</g>
<g>
</g>
<g>
</g>
<g>
</g>
<g>
</g>
<g>
</g>
<g>
</g>
<g>
</g>
<g>
</g>
<g>
</g>
<g>
</g>
<g>
</g>
<g>
</g>
<g>
</g>
<g>
</g>
</svg>
