<svg height="512pt" viewBox="0 0 512 512.00109" width="512pt" xmlns="http://www.w3.org/2000/svg"><path d="m357.574219 17.296875c-28.019531-11.15625-58.578125-17.296875-90.574219-17.296875-135.308594 0-245 109.691406-245 245 0 135.3125 109.691406 245 245 245s245-109.6875 245-245c0-12.535156-.945312-24.851562-2.761719-36.882812zm0 0" fill="#eec707"/><path d="m237.753906 384.140625c-.871094 1.835937-1.734375 3.65625-2.609375 5.46875 25.695313-23.328125 76.828125-56.074219 172.832031-75.875 77.792969-16.046875 89.398438-58.59375 101.472657-104.089844-12.765625-88.324219-72.636719-161.398437-153.332031-192.925781-41.042969 38.800781-92.417969 37.082031-114.066407 99.933594-19.558593 56.785156-68.148437 94.761718-98.046875 113.625 1.78125-.371094 3.578125-.738282 5.378906-1.105469 15.558594-3.167969 31.644532-6.445313 43.230469-15.289063 5.746094-4.386718 12.601563-7.25 20.417969-8.535156 1.386719-.226562 2.804688-.40625 4.25-.535156 22.601562-2.003906 44.285156 8.945312 56.582031 28.574219 8.796875 14.039062 17.3125 29.199219 20.0625 44.921875 3.167969 18.125-2.054687 33.515625-15.964843 47.054687-22.878907 22.257813-31.6875 40.824219-40.207032 58.777344zm0 0" fill="#fbb362"/><path d="m386.160156 265.722656c3.507813-8.308594-.328125-17.816406-8.679687-21.226562-63.421875-25.886719-68.710938-78.683594-67.375-103.542969.398437-7.355469-4.25-14.054687-11.304688-16.175781-45.207031-13.578125-17.304687-60.511719-17.300781-60.515625-16.359375 11.351562-30.464844 26.308593-39.449219 52.390625-19.558593 56.789062-68.148437 94.761718-98.046875 113.625 1.78125-.371094 3.574219-.738282 5.378906-1.105469 15.558594-3.167969 31.644532-6.441406 43.230469-15.285156 5.746094-4.390625 12.601563-7.25 20.414063-8.535157 1.390625-.230468 2.808594-.410156 4.253906-.535156 22.601562-2.007812 44.285156 8.941406 56.582031 28.570313 8.796875 14.039062 17.3125 29.199219 20.0625 44.921875 3.167969 18.128906-2.054687 33.519531-15.964843 47.054687-22.878907 22.261719-31.6875 40.824219-40.207032 58.777344-.871094 1.835937-1.738281 3.660156-2.609375 5.472656 25.695313-23.332031 76.824219-56.074219 172.832031-75.878906-29.074218-14.359375-27.566406-34.394531-21.816406-48.011719zm0 0" fill="#fc9949"/><path d="m474.921875 115.378906c-13.023437-20.84375-29.078125-39.597656-47.570313-55.617187-50.777343 29.824219-108.75 39.371093-123.808593 83.675781-11.476563 33.757812-31.65625 55.339844-51.335938 69.046875 8.429688 4.828125 15.992188 11.863281 21.65625 20.902344 23.207031 37.042969 20.171875 50.273437 20.890625 52.582031 70.433594-12.273438 135.089844-34.90625 160.957032-122.109375 5.1875-17.488281 11.695312-33.617187 19.210937-48.480469zm0 0" fill="#fd7e31"/><path d="m377.480469 244.496094c-63.421875-25.886719-68.710938-78.683594-67.371094-103.542969.15625-2.917969-.492187-5.730469-1.757813-8.195313-1.894531 3.328126-3.515624 6.875-4.808593 10.679688-11.472657 33.757812-31.65625 55.339844-51.335938 69.050781 8.941407 5.117188 16.3125 12.371094 21.65625 20.898438 23.152344 36.953125 20.398438 50.964843 20.890625 52.582031 33.21875-5.789062 65.152344-13.882812 92.339844-29.972656-1.066406-5.003906-4.484375-9.40625-9.613281-11.5zm0 0" fill="#fc5d1f"/><path d="m275.183594 232.558594c-12.398438-19.785156-34.777344-31.359375-58.039063-29.292969-8.773437.777344-17.695312 3.445313-25.476562 9.382813-27.230469 20.789062-80.472657 10.140624-93.296875 43.042968-12.824219 32.898438-40.859375 76.113282-69.972656 96.167969-29.113282 20.054687-31.003907 53.609375-26.605469 63.625 4.398437 10.015625-10.894531 39.066406 13.535156 61.585937 24.429687 22.515626 35.996094 59.511719 96.964844 11.445313 60.964843-48.066406 65.214843-26.554687 97.714843-59.007813 32.503907-32.449218 26.710938-61.847656 69.039063-103.03125 31.925781-31.0625 13.128906-66.792968-3.863281-93.917968zm0 0" fill="#ca6d4e"/><path d="m131.167969 423.140625c3.085937-5.296875 2.574219-12.003906-1.363281-16.699219-27.816407-33.15625-.136719-62.914062-.136719-62.914062 17.101562-17.101563 5.269531-34.558594 5.269531-34.558594-8.625-15.867188 0-26.117188 0-26.117188-15.835938-38.316406 9.066406-52.574218 9.066406-52.574218l-3.242187-.898438c-18.769531 4.070313-35.84375 9.519532-42.390625 26.3125-12.824219 32.902344-40.859375 76.117188-69.972656 96.171875-29.113282 20.054688-31.003907 53.605469-26.605469 63.621094 4.398437 10.019531-10.894531 39.070313 13.535156 61.585937 24.429687 22.515626 35.996094 59.511719 96.964844 11.445313 8.59375-6.777344 16.0625-12.167969 22.640625-16.527344-14.707032-21.644531-9.460938-39.085937-3.765625-48.847656zm0 0" fill="#bf5543"/><path d="m210.589844 104.699219c-4.328125-6.90625-12.136719-10.941407-20.253906-10.222657-3.0625.269532-6.175782 1.203126-8.890626 3.273438-9.503906 7.257812-28.085937 3.539062-32.5625 15.023438-4.476562 11.480468-14.257812 26.5625-24.417968 33.5625s-10.820313 18.710937-9.285156 22.203124c1.535156 3.496094-3.804688 13.636719 4.722656 21.496094 8.523437 7.855469 12.5625 20.769532 33.839844 3.992188 21.277343-16.773438 22.757812-9.265625 34.101562-20.589844 11.34375-11.328125 9.324219-21.585938 24.09375-35.960938 11.144531-10.839843 4.582031-23.3125-1.347656-32.777343zm0 0" fill="#bf5543"/><path d="m173.574219 182.039062c-16.078125-16.074218-1.476563-29.855468-1.476563-29.855468-7.503906-11.8125 0-20.738282 0-20.738282-13.003906-18.386718 0-29.675781 0-29.675781-9.253906 2.339844-19.960937 2.65625-23.214844 11.003907-4.472656 11.480468-14.257812 26.5625-24.417968 33.5625s-10.820313 18.710937-9.285156 22.203124c1.535156 3.496094-3.804688 13.636719 4.722656 21.492188 8.527344 7.859375 12.5625 20.769531 33.839844 3.996094 9.902343-7.804688 15.515624-10.351563 19.832031-11.988282zm0 0" fill="#b33c37"/><path d="m147.375 291.910156c-2.210938-6.863281-9.570312-10.636718-16.433594-8.425781-6.863281 2.210937-10.636718 9.566406-8.425781 16.429687 2.207031 6.867188 9.566406 10.640626 16.429687 8.429688 6.867188-2.210938 10.640626-9.566406 8.429688-16.433594zm0 0" fill="#bf5543"/><path d="m161.269531 368.695312c-6.171875-19.167968-26.714843-29.707031-45.886719-23.535156-19.167968 6.175782-29.707031 26.71875-23.53125 45.886719 6.171876 19.171875 26.714844 29.707031 45.882813 23.535156 19.171875-6.171875 29.707031-26.714843 23.535156-45.886719zm0 0" fill="#b33c37"/><path d="m115.375 345.15625c-19.167969 6.171875-29.707031 26.714844-23.535156 45.882812 5.6875 17.65625 23.558594 27.976563 41.324218 24.675782-.003906-3.320313-1.132812-6.617188-3.359374-9.273438-27.796876-33.132812-.175782-62.871094-.136719-62.914062-4.691407-.402344-9.535157.097656-14.292969 1.628906zm0 0" fill="#a33131"/><path d="m226.535156 307.132812c-3.996094-12.40625-17.289062-19.226562-29.695312-15.230468-12.40625 3.992187-19.226563 17.289062-15.230469 29.695312 3.996094 12.402344 17.289063 19.222656 29.695313 15.226563 12.40625-3.992188 19.222656-17.289063 15.230468-29.691407zm0 0" fill="#bf5543"/><path d="m147.175781 145.898438c-1.753906-5.445313-5.808593-9.507813-10.742187-11.464844-3.699219 4.785156-7.800782 9.03125-11.96875 11.902344-6.542969 4.507812-9.132813 10.953124-9.75 15.917968 4.535156 6.324219 12.785156 9.308594 20.589844 6.792969 9.667968-3.113281 14.984374-13.476563 11.871093-23.148437zm0 0" fill="#a33131"/><path d="m1.539062 391.273438c5.464844 4.203124 12.585938 6.222656 19.925782 5.015624 14.066406-2.3125 23.59375-15.589843 21.277344-29.65625-1.195313-7.285156-5.339844-13.347656-11.007813-17.183593-1.109375.832031-2.222656 1.644531-3.335937 2.414062-16.109376 11.09375-23.875 26.320313-26.859376 39.410157zm0 0" fill="#b33c37"/><path d="m182.472656 277.253906c-5.800781 0-10.375-4.726562-10.375-10.375 0-6.609375 6.101563-11.4375 12.40625-10.164062 4.980469 1.023437 8.339844 5.320312 8.339844 10.164062 0 5.667969-4.589844 10.375-10.371094 10.375zm0 0" fill="#e2866d"/><path d="m172.097656 152.183594c-5.800781 0-10.375-4.726563-10.375-10.371094 0-6.613281 6.105469-11.441406 12.40625-10.167969 4.980469 1.027344 8.339844 5.324219 8.339844 10.167969.003906 5.664062-4.589844 10.371094-10.371094 10.371094zm0 0" fill="#ca6d4e"/></svg>