<svg height="512pt" viewBox="0 0 512 512" width="512pt" xmlns="http://www.w3.org/2000/svg"><path d="m508.695312 307.21875c2.160157-13.085938 3.304688-26.519531 3.304688-40.21875 0-135.308594-109.691406-245-245-245-64.703125 0-123.535156 25.09375-167.328125 66.0625l-77.496094 170.085938c-.105469 2.941406-.175781 5.886718-.175781 8.851562 0 113.953125 77.796875 209.726562 183.175781 237.125zm0 0" fill="#162680"/><path d="m438.535156 91.824219.378906 1.179687 1.234376.035156c2.351562.066407 5.105468 1.539063 5.949218 4.679688 3.101563 11.492188 4.671875 23.417969 4.671875 35.449219 0 10.144531-1.125 20.261719-3.34375 30.070312-.726562 3.207031-3.441406 4.789063-5.808593 4.9375l-1.246094.074219-.332032 1.203125c-7.207031 26.066406-21.835937 48.898437-42.304687 66.027344l-2.570313 2.148437 3.234376.878906c5.09375 1.386719 8.933593 5.445313 10.027343 10.589844.785157 3.710938.058594 7.496094-2.058593 10.664063l-1.175782 1.761719 54.101563 22.695312.171875.0625c.140625.042969 7.972656 2.464844 19.386718 8.71875v-202.988281c0-15.769531-12.902343-28.667969-28.667968-28.667969h-25.804688c5.859375 9.332031 10.660156 19.53125 14.15625 30.480469zm0 0" fill="#face7a"/><path d="m454.402344 229.945312c-16.898438 0-29.535156-15.71875-25.707032-32.335937-13.78125 25.40625-32.078124 38.574219-33.53125 40.019531.953126.496094 11.097657 1.269532 13.257813 11.46875 1.507813 7.085938-2.820313 11.539063-3.230469 12.425782 77.023438 32.296874 65.816406 27.175781 73.660156 31.472656v-79.5c-3.929687 9.648437-13.390624 16.449218-24.449218 16.449218zm0 0" fill="#fbb362"/><path d="m194.375 284.15625 54.242188-22.753906-1.148438-1.753906c-2.050781-3.140626-2.75-6.886719-1.972656-10.550782 1.09375-5.148437 4.933594-9.207031 10.027344-10.589844l3.230468-.878906-2.566406-2.148437c-20.699219-17.324219-35.40625-40.429688-42.527344-66.824219l-.328125-1.203125-1.242187-.085937c-2.371094-.160157-5.078125-1.757813-5.78125-4.960938-2.097656-9.546875-3.160156-19.382812-3.160156-29.238281 0-11.722657 1.492187-23.355469 4.4375-34.574219.820312-3.132812 3.566406-4.617188 5.925781-4.699219l1.238281-.042969.367188-1.183593c3.519531-11.265625 8.40625-21.753907 14.40625-31.324219h-31.300782c-15.769531 0-28.667968 12.902344-28.667968 28.667969v212.828125c12.984374-10.636719 23.125-17.539063 24.820312-18.683594zm0 0" fill="#face7a"/><path d="m225.054688 197.308594c2.453124 17.382812-11.046876 32.636718-28.316407 32.636718-12.6875 0-23.441406-8.265624-27.183593-19.703124v92.59375c12.984374-10.632813 23.125-17.535157 24.820312-18.679688l54.242188-22.753906c-.398438-.882813-4.609376-5.300782-3.121094-12.304688 2.164062-10.203125 12.304687-10.972656 13.257812-11.46875 0 0-19.835937-14.605468-33.699218-40.320312zm0 0" fill="#fbb362"/><path d="m13.738281 252.929688c17.667969 23.890624 49.039063 27.914062 68.15625 27.914062 9.074219 0 15.386719-.90625 16.164063-1.023438.464844-.070312.917968-.164062 1.359375-.28125-10.410157 40.75 1.078125 86.085938 1.078125 86.085938 23.3125-43.714844 82.566406-83.019531 82.566406-83.019531h2.332031c45.847657 69.097656 17.679688 134.308593 17.679688 134.308593-.964844 3.125-1.503907 6.601563-1.730469 10.335938-42.394531 36.121094-75.472656 61.304688-103.542969 68.0625-46.90625 11.300781-92.851562-22.519531-96.417969-70.636719-5.800781-78.246093 8.261719-152.347656 12.355469-171.746093zm0 0" fill="#b9e9fd"/><path d="m466.960938 282.605469h-2.332032c-45.847656 69.101562-17.679687 134.308593-17.679687 134.308593.96875 3.125 1.503906 6.601563 1.730469 10.339844 0 0 .648437.6875 1.820312 2.054688 30.082031-33.980469 50.867188-76.375 58.378906-123.210938-22.65625-17.707031-41.917968-23.492187-41.917968-23.492187zm0 0" fill="#b9e9fd"/><path d="m325.210938 0c70.953124 0 128.472656 59.621094 128.472656 133.167969 0 43.828125-20.429688 82.703125-51.949219 106.972656-24.0625 5.105469-49.785156 7.875-76.523437 7.875-26.738282 0-52.460938-2.769531-76.523438-7.875-31.519531-24.265625-51.949219-63.144531-51.949219-106.972656 0-73.546875 57.519531-133.167969 128.472657-133.167969zm0 0" fill="#e0f9fe"/><path d="m196.738281 133.167969c0 43.828125 20.425781 82.703125 51.949219 106.972656 12.277344 2.605469 24.992188 4.597656 38.046875 5.929687.339844-.359374.675781-.695312 1.003906-1 1.605469-1.496093 2.175781-3.84375 1.421875-5.90625-1.195312-3.265624-.199218-5.800781 1.042969-7.484374 1.214844-1.65625 1.449219-3.808594.570313-5.667969-2.78125-5.882813-.542969-9.785157 1.703124-11.976563 1.644532-1.597656 2.148438-4.03125 1.199219-6.117187-38.164062-83.863281-9.035156-128.121094-.25-138.753907 1.257813-1.523437 1.578125-3.601562.851563-5.4375-3.164063-7.984374 2.257812-12.421874 5.839844-14.375 1.675781-.917968 2.757812-2.621093 2.84375-4.53125 1.402343-31.015624 22.25-44.820312 22.25-44.820312-70.953126 0-128.472657 59.621094-128.472657 133.167969zm0 0" fill="#b9e9fd"/><path d="m466.960938 282.605469-52.792969-22.144531c-2.199219 2.847656-5.375 4.960937-9.167969 5.765624-25.707031 5.457032-52.550781 8.21875-79.789062 8.21875-27.238282 0-54.085938-2.761718-79.789063-8.21875-3.847656-.816406-7.054687-2.980468-9.257813-5.886718h-.011718l-53.089844 22.265625c45.847656 69.101562 17.679688 134.3125 17.679688 134.3125-6.808594 21.992187 7.542968 61.386719 3.34375 86.914062 20.078124 5.320313 41.164062 8.167969 62.914062 8.167969 73.355469 0 139.171875-32.25 184.074219-83.332031-.171875-4.273438-.703125-8.238281-1.792969-11.753907 0 0-28.167969-65.210937 17.679688-134.308593zm0 0" fill="#e0f9fe"/><path d="m295.507812 334.015625c0-.785156-.179687-1.5625-.511718-2.273437-12.332032-26.523438-8.492188-48.125-6.632813-55.261719.335938-1.285157.167969-2.621094-.414062-3.789063-14.429688-1.367187-28.644531-3.519531-42.527344-6.464844-3.847656-.816406-7.054687-2.980468-9.261719-5.886718l-.011718-.003906-53.085938 22.269531c45.847656 69.101562 17.679688 134.308593 17.679688 134.308593-6.808594 21.996094 7.542968 61.390626 3.34375 86.917969 20.078124 5.320313 41.164062 8.167969 62.914062 8.167969 9.644531 0 19.15625-.570312 28.511719-1.65625v-176.328125zm0 0" fill="#b9e9fd"/><path d="m111.339844 394.09375c5.792968.75 10.675781-4.285156 9.761718-10.046875l-4.921874-30.914063c-.398438-2.496093-1.820313-4.570312-3.761719-5.875-4.519531 5.964844-8.589844 12.121094-11.921875 18.367188 0 0-.035156-.136719-.097656-.390625l3.433593 21.5625c.625 3.917969 3.761719 6.8125 7.507813 7.296875zm0 0" fill="#83d3fc"/><path d="m156.214844 194.039062c-10.628906-16.378906-41.519532-1.578124-47.933594 1.738282-.515625.265625-1.132812-.132813-1.085938-.714844.21875-2.71875.625-5.675781 1.144532-8.664062 2.246094-13.003907 6.53125-25.589844 12.359375-37.425782 24.671875-50.105468 16.929687-58.957031 4.421875-56.25-12.742188 2.753906-27.945313 42.730469-32.652344 55.960938-.285156.800781-1.480469.574218-1.445312-.277344.664062-17.050781 7.351562-49.28125 9.835937-62.949219 2.722656-14.988281-6.527344-25.09375-20.109375-16.304687-13.511719 8.746094-15.453125 61.019531-15.730469 75.394531-.015625.816406-1.15625 1.015625-1.449219.253906-12.316406-32.460937.742188-73.570312-18.53125-65.890625-17.867187 7.121094-13.035156 48.980469-9.984374 67.320313.148437.894531-1.125 1.230469-1.433594.375-3.375-9.324219-8.601563-24.410157-10.578125-33.554688-3.019531-13.964843-14.1875-19.1875-19.695313-2.285156-3.960937 12.144531 4.582032 36.242187 9.703125 48.835937 2.117188 5.210938 3.078125 10.800782 2.898438 16.421876-.410157 12.898437.761719 38.234374 13.871093 57.8125 1.761719 1 3.328126 2.40625 4.523438 4.207031 11.332031 17.054687 36.933594 18.746093 50.644531 18.320312 11.425781-4.722656 17.882813-15.164062 20.417969-20.160156 1.828125-3.605469 4.171875-6.929687 7.039062-9.78125 11.804688-11.742187 30.925782-19.714844 40.589844-23.222656 3.730469-1.355469 5.335938-5.832031 3.179688-9.160157zm0 0" fill="#face7a"/><path d="m16.035156 186.484375c.648438 13.613281 3.644532 32.203125 13.785156 47.351563 1.761719 1 3.328126 2.40625 4.523438 4.207031 11.332031 17.054687 36.933594 18.746093 50.644531 18.320312 11.425781-4.722656 17.882813-15.164062 20.417969-20.160156 1.828125-3.605469 4.171875-6.929687 7.039062-9.777344-72.4375 23.972657-96.410156-39.941406-96.410156-39.941406zm0 0" fill="#eec707"/><path d="m294.542969 500.679688h-23.3125c-4.828125 0-8.742188-3.914063-8.742188-8.742188s3.914063-8.742188 8.742188-8.742188h23.3125c4.828125 0 8.742187 3.914063 8.742187 8.742188s-3.914062 8.742188-8.742187 8.742188zm0 0" fill="#83d3fc"/><path d="m227.953125 84.304688c2.242187-5.179688 6.382813-9.285157 11.550781-11.5625 13.363282-5.890626 43.605469-16.726563 85.210938-16.726563 41.609375 0 71.851562 10.839844 85.214844 16.726563 5.167968 2.277343 9.304687 6.382812 11.550781 11.5625 6.160156 14.210937 15.992187 46.390624 1.785156 85.726562-19.28125 53.382812-98.550781 54.703125-98.550781 54.703125s-79.265625-1.320313-98.546875-54.703125c-14.207031-39.335938-4.375-71.511719 1.785156-85.726562zm0 0" fill="#1d319b"/><path d="m239.503906 72.742188c-5.167968 2.277343-9.308594 6.382812-11.550781 11.5625-6.160156 14.214843-15.992187 46.390624-1.785156 85.726562 10.65625 29.5 39.625 43.097656 63.417969 49.363281.367187-2.359375 1.628906-4.128906 2.890624-5.359375 1.644532-1.597656 2.148438-4.03125 1.199219-6.121094-38.167969-83.859374-9.035156-128.117187-.253906-138.753906 1.257813-1.519531 1.582031-3.597656.855469-5.433594-.839844-2.117187-1.0625-3.980468-.886719-5.617187-25.484375 3.445313-44.160156 10.347656-53.886719 14.632813zm0 0" fill="#162680"/><path d="m324.570312 233.476562c-3.480468-.058593-85.539062-2.089843-106.625-60.472656-15.011718-41.570312-5.199218-75.59375 1.984376-92.175781 3.113281-7.183594 8.8125-12.898437 16.046874-16.085937 52.785157-23.261719 124.625-23.292969 177.476563 0 7.234375 3.1875 12.933594 8.898437 16.046875 16.085937 7.1875 16.582031 17 50.605469 1.984375 92.171875-21.085937 58.382812-103.140625 60.414062-106.625 60.472656-.128906.003906-.160156.003906-.289063.003906zm-81.542968-152.734374c-3.191406 1.40625-5.695313 3.90625-7.054688 7.039062-6.152344 14.203125-14.542968 43.390625-1.582031 79.28125 16.664063 46.132812 86.582031 48.820312 90.320313 48.925781 3.621093-.109375 73.707031-2.902343 90.332031-48.925781 12.960937-35.890625 4.570312-65.078125-1.582031-79.28125-1.359376-3.132812-3.863282-5.632812-7.054688-7.039062-48.324219-21.292969-115.019531-21.308594-163.378906 0zm0 0" fill="#83d3fc"/><path d="m293.957031 211.492188c-22.214843-5.484376-49.882812-17.621094-59.566406-44.429688-12.960937-35.890625-4.570313-65.078125 1.582031-79.28125 1.359375-3.132812 3.863282-5.632812 7.054688-7.039062 15.664062-6.902344 33.257812-11.554688 51.523437-13.980469.195313-1 .117188-2.050781-.273437-3.035157-3.164063-7.988281 2.257812-12.421874 5.839844-14.378906.476562-.257812.902343-.589844 1.273437-.96875-23.148437 2.1875-45.621094 7.640625-65.414063 16.363282-7.234374 3.191406-12.933593 8.902343-16.046874 16.089843-7.183594 16.582031-16.996094 50.601563-1.984376 92.171875 12.601563 34.882813 46.964844 49.648438 73.328126 55.894532.097656-.96875-.0625-1.964844-.5-2.886719-2.78125-5.882813-.542969-9.785157 1.703124-11.976563.734376-.714844 1.226563-1.601562 1.480469-2.542968zm0 0" fill="#61b6ff"/><path d="m325.210938 275.613281c27.238281 0 54.082031-2.765625 79.789062-8.21875 8.5-1.804687 13.929688-10.160156 12.128906-18.660156-1.804687-8.503906-10.164062-13.929687-18.660156-12.128906-23.5625 5-48.210938 7.535156-73.257812 7.535156-25.046876 0-49.695313-2.535156-73.257813-7.535156-8.507813-1.804688-16.855469 3.625-18.660156 12.128906-1.804688 8.5 3.625 16.855469 12.128906 18.660156 25.707031 5.453125 52.550781 8.21875 79.789063 8.21875zm0 0" fill="#83d3fc"/><path d="m287.738281 245.066406c.792969-.734375 1.328125-1.679687 1.582031-2.695312-12.679687-1.257813-25.171874-3.179688-37.367187-5.765625-8.507813-1.804688-16.855469 3.625-18.660156 12.128906-1.804688 8.5 3.625 16.855469 12.128906 18.660156 14.023437 2.972657 28.386719 5.140625 42.964844 6.503907-.171875-.730469-.488281-1.429688-.945313-2.050782-10.128906-13.699218-4.085937-22.699218.296875-26.78125zm0 0" fill="#61b6ff"/><path d="m442.457031 437.96875c6.417969-6.582031 12.46875-13.519531 18.117188-20.789062-7.597657-29.304688-7.425781-57.890626.542969-85.148438 6.882812-23.527344 17.339843-37.300781 17.566406-37.59375 3.949218-5.058594 3.0625-12.367188-1.992188-16.335938-5.058594-3.980468-12.390625-3.097656-16.367187 1.964844-2.03125 2.589844-49.378907 64.398438-17.867188 157.902344zm0 0" fill="#83d3fc"/><path d="m192.105469 446.363281c-1.242188 0-2.507813-.199219-3.75-.621093-6.09375-2.070313-9.359375-8.6875-7.289063-14.785157 11.585938-34.125 12.789063-67.410156 3.574219-98.925781-6.921875-23.664062-17.460937-37.460938-17.566406-37.597656-3.929688-5.078125-3.023438-12.394532 2.039062-16.339844 5.066407-3.949219 12.355469-3.074219 16.320313 1.972656 2.039062 2.59375 49.546875 64.609375 17.707031 158.386719-1.648437 4.855469-6.179687 7.910156-11.035156 7.910156zm0 0" fill="#83d3fc"/><path d="m169.554688 20.359375c-5.695313 0-10.183594-4.644531-10.183594-10.183594 0-4.667969 3.21875-8.941406 8.199218-9.976562 6.167969-1.242188 12.164063 3.484375 12.164063 9.976562 0 5.699219-4.636719 10.183594-10.179687 10.183594zm0 0" fill="#face7a"/><path d="m130.21875 65.882812c-8.457031 0-15.015625-7.746093-13.316406-16.238281 1.769531-8.597656 10.789062-13.09375 18.5-9.878906 4.324218 1.796875 7.21875 5.511719 8.121094 9.878906 1.683593 8.449219-4.820313 16.238281-13.304688 16.238281zm0 0" fill="#b9e9fd"/><path d="m48.652344 277.441406c-.210938-.460937-.390625-.90625-.574219-1.347656-12.714844-3.949219-25.3125-10.960938-34.339844-23.164062-4.09375 19.398437-18.15625 93.5-12.355469 171.746093 3.570313 48.117188 49.511719 81.9375 96.417969 70.640625-87.347656-2.667968-49.148437-217.875-49.148437-217.875zm0 0" fill="#83d3fc"/><path d="m81.894531 282.007812c9.074219 0 15.386719-.90625 16.164063-1.023437 7.308594-1.101563 12.335937-7.921875 11.234375-15.230469-1.105469-7.308594-7.925781-12.339844-15.234375-11.234375-.40625.058594-43.921875 6.125-59.714844-17.640625-4.089844-6.15625-12.394531-7.832031-18.550781-3.742187-6.15625 4.089843-7.832031 12.398437-3.742188 18.554687 17.296875 26.027344 50.101563 30.316406 69.84375 30.316406zm0 0" fill="#83d3fc"/><g fill="#61b6ff"><path d="m48.652344 277.4375c-9.230469-20 11.4375-24.507812 11.453125-24.507812-9.996094-2.410157-19.832031-7.128907-25.757813-16.050782-4.09375-6.15625-12.398437-7.828125-18.554687-3.738281s-7.832031 12.394531-3.738281 18.550781c9.226562 13.890625 22.875 21.585938 36.597656 25.746094zm0 0"/><path d="m190.570312 367.386719c1 20.699219-2.167968 41.964843-9.503906 63.570312-2.070312 6.097657 1.195313 12.714844 7.289063 14.785157 6.097656 2.070312 12.71875-1.195313 14.785156-7.289063 9.542969-28.101563 11.953125-53.34375 10.601563-74.996094-2.820313 10.710938-16.964844 13.109375-23.171876 3.929688zm0 0"/><path d="m455.308594 365.539062c-4.585938 9.988282-18.734375 10.050782-23.40625.101563-1.054688 21.035156 1.46875 45.359375 10.554687 72.328125 6.417969-6.582031 12.46875-13.519531 18.117188-20.789062-4.539063-17.515626-6.285157-34.769532-5.265625-51.640626zm0 0"/></g><path d="m388.402344 463.808594h-131.007813c-7.898437 0-14.359375-6.460938-14.359375-14.359375v-93.921875c0-7.898438 6.460938-14.359375 14.359375-14.359375h131.007813c7.894531 0 14.355468 6.460937 14.355468 14.359375v93.921875c0 7.898437-6.460937 14.359375-14.355468 14.359375zm0 0" fill="#1d319b"/><path d="m294.015625 449.449219v-93.921875c0-7.898438 6.460937-14.359375 14.355469-14.359375h-50.976563c-7.898437 0-14.359375 6.460937-14.359375 14.359375v93.921875c0 7.898437 6.460938 14.359375 14.359375 14.359375h50.976563c-7.894532 0-14.355469-6.460938-14.355469-14.359375zm0 0" fill="#162680"/><path d="m388.402344 472.152344h-131.007813c-12.519531 0-22.703125-10.183594-22.703125-22.703125v-93.921875c0-12.519532 10.183594-22.703125 22.703125-22.703125h131.007813c12.515625 0 22.703125 10.183593 22.703125 22.703125v93.921875c0 12.519531-10.1875 22.703125-22.703125 22.703125zm-131.007813-122.636719c-3.316406 0-6.011719 2.695313-6.011719 6.011719v93.921875c0 3.316406 2.695313 6.011719 6.011719 6.011719h131.007813c3.3125 0 6.011718-2.695313 6.011718-6.011719v-93.921875c0-3.316406-2.699218-6.011719-6.011718-6.011719zm0 0" fill="#83d3fc"/><path d="m374.917969 402.488281c0 15.007813-12.164063 27.171875-27.171875 27.171875-15.007813 0-27.171875-12.164062-27.171875-27.171875 0-15.007812 12.164062-27.171875 27.171875-27.171875 15.007812 0 27.171875 12.164063 27.171875 27.171875zm0 0" fill="#4374d3"/><path d="m356.992188 411.167969c-9.902344 0-17.925782-8.023438-17.925782-17.925781 0-8.484376 5.898438-15.574219 13.816406-17.433594-16.863281-3.230469-32.308593 9.707031-32.308593 26.679687 0 15.007813 12.164062 27.171875 27.171875 27.171875 16.964844 0 29.910156-15.441406 26.679687-32.308594-1.859375 7.914063-8.949219 13.816407-17.433593 13.816407zm0 0" fill="#3957c9"/><path d="m282.886719 395.339844c-6.023438 0-11.125-4.90625-11.125-11.140625 0-7.144531 6.578125-12.257813 13.296875-10.90625 5.277344 1.074219 8.957031 5.644531 8.957031 10.90625 0 6.21875-5.078125 11.140625-11.128906 11.140625zm0 0" fill="#face7a"/><path d="m282.886719 431.90625c-5.996094 0-11.125-4.871094-11.125-11.140625 0-7.097656 6.546875-12.265625 13.296875-10.90625 5.261718 1.070313 8.957031 5.632813 8.957031 10.90625 0 6.164063-5.03125 11.140625-11.128906 11.140625zm0 0" fill="#f948b4"/><path d="m289.519531 463.808594c0-3.871094 2.511719-7.164063 5.988281-8.347656h-38.113281c-3.316406 0-6.011719-2.695313-6.011719-6.011719v-93.921875c0-3.316406 2.695313-6.011719 6.011719-6.011719h38.117188c-3.480469-1.183594-5.992188-4.476563-5.992188-8.347656 0-3.871094 2.511719-7.160157 5.988281-8.34375h-38.113281c-12.519531 0-22.703125 10.183593-22.703125 22.703125v93.921875c0 12.519531 10.183594 22.703125 22.703125 22.703125h38.113281c-3.476562-1.183594-5.988281-4.472656-5.988281-8.34375zm0 0" fill="#61b6ff"/><path d="m377.085938 463.414062c-4.609376 0-8.347657 3.734376-8.347657 8.34375v18.171876c5.6875-2.597657 11.25-5.410157 16.695313-8.421876v-9.75c0-4.609374-3.738282-8.34375-8.347656-8.34375zm0 0" fill="#b9e9fd"/><path d="m345.679688 463.414062c-4.609376 0-8.347657 3.734376-8.347657 8.34375v29.976563c5.652344-1.691406 11.21875-3.582031 16.691407-5.660156v-24.316407c0-4.609374-3.734376-8.34375-8.34375-8.34375zm0 0" fill="#b9e9fd"/><path d="m377.085938 484.246094c-4.609376 0-8.347657-3.734375-8.347657-8.34375v14.03125c5.6875-2.601563 11.25-5.414063 16.695313-8.425782v-5.609374c0 4.613281-3.738282 8.347656-8.347656 8.347656zm0 0" fill="#83d3fc"/><path d="m345.679688 484.246094c-4.609376 0-8.347657-3.734375-8.347657-8.34375v25.832031c5.652344-1.6875 11.21875-3.578125 16.691407-5.660156v-20.175781c0 4.613281-3.734376 8.347656-8.34375 8.347656zm0 0" fill="#83d3fc"/><path d="m195.402344 98.148438c-2.925782 11.160156-4.492188 22.898437-4.492188 35.019531 0 10.179687 1.109375 20.089843 3.199219 29.613281 1.328125 6.046875 8.714844 8.433594 13.277344 4.25 9.050781-8.300781 16.933593-21.820312 16.933593-37.097656 0-14.304688-7.207031-27.070313-15.488281-35.453125-4.339843-4.390625-11.859375-2.304688-13.429687 3.667969zm0 0" fill="#61b6ff"/><path d="m206.652344 130.636719c-6.226563 0-11.773438-2.898438-15.378906-7.410157-.234376 3.28125-.363282 6.59375-.363282 9.941407 0 10.179687 1.109375 20.089843 3.199219 29.613281 1.328125 6.046875 8.714844 8.433594 13.277344 4.25 9.050781-8.296875 16.933593-21.820312 16.933593-37.097656 0-2.972656-.316406-5.882813-.882812-8.699219-3.460938 5.636719-9.683594 9.402344-16.785156 9.402344zm0 0" fill="#5294e5"/><path d="m454.523438 98.148438c2.929687 11.160156 4.496093 22.898437 4.496093 35.019531 0 10.179687-1.109375 20.089843-3.203125 29.613281-1.324218 6.046875-8.714844 8.433594-13.277344 4.25-9.050781-8.300781-16.933593-21.820312-16.933593-37.097656 0-14.304688 7.207031-27.070313 15.488281-35.453125 4.339844-4.390625 11.863281-2.304688 13.429688 3.667969zm0 0" fill="#61b6ff"/><path d="m443.273438 130.636719c6.226562 0 11.773437-2.898438 15.378906-7.410157.234375 3.28125.367187 6.59375.367187 9.941407 0 10.179687-1.109375 20.089843-3.203125 29.613281-1.324218 6.046875-8.714844 8.433594-13.277344 4.25-9.050781-8.296875-16.933593-21.820312-16.933593-37.097656 0-2.972656.316406-5.882813.886719-8.699219 3.460937 5.636719 9.679687 9.402344 16.78125 9.402344zm0 0" fill="#5294e5"/><path d="m395.082031 109.609375c0 9.648437-7.824219 17.472656-17.472656 17.472656-9.652344 0-17.472656-7.824219-17.472656-17.472656 0-9.652344 7.820312-17.472656 17.472656-17.472656 9.648437 0 17.472656 7.820312 17.472656 17.472656zm0 0" fill="#3957c9"/><path d="m356.59375 135.101562c0 4.890626-3.964844 8.855469-8.851562 8.855469-4.890626 0-8.855469-3.964843-8.855469-8.855469 0-4.890624 3.964843-8.855468 8.855469-8.855468 4.886718 0 8.851562 3.964844 8.851562 8.855468zm0 0" fill="#3957c9"/></svg>