<svg height="511pt" viewBox="0 -10 511.99036 511" width="511pt" xmlns="http://www.w3.org/2000/svg"><path d="m245 .496094c-103.691406 0-192.339844 64.421875-228.101562 155.421875l-11.300782 37.359375c-3.65625 16.828125-5.597656 34.296875-5.597656 52.21875 0 16.59375 1.660156 32.800781 4.804688 48.472656l24.328124 67.476562c18.902344 35.125 46.121094 65.105469 79.03125 87.304688l114.09375 40.6875c7.492188.6875 15.074219 1.058594 22.742188 1.058594 135.308594 0 245-109.691406 245-245s-109.691406-245-245-245zm0 0" fill="#162680"/><path d="m452.753906 57.414062-89.449218 51.644532 16.71875 28.957031 89.449218-51.644531c-5.113281-2.601563-9.5625-6.660156-12.648437-12-3.085938-5.34375-4.375-11.222656-4.070313-16.957032zm0 0" fill="#f948b4"/><path d="m383.554688 117.332031 61.945312-35.765625c5.316406-3.070312 11.488281-3.011718 16.582031-.476562-2.007812-1.941406-3.792969-4.179688-5.257812-6.71875-3.085938-5.34375-4.375-11.222656-4.070313-16.957032l-89.449218 51.644532 11.585937 20.070312c1.085937-4.796875 4.070313-9.148437 8.664063-11.796875zm0 0" fill="#f6159c"/><path d="m270.363281 72.070312c-4.785156 11.949219-3.820312 25.429688 2.613281 36.574219 7.296876 12.632813 54.960938 95.195313 62.242188 107.804688 6.433594 11.144531 17.625 18.71875 30.363281 20.550781l40.640625 5.839844c-12.558594-21.753906-109.40625-189.503906-120.597656-208.882813zm0 0" fill="#a2ec00"/><path d="m351.859375 151.8125 1.898437.152344c-29.761718-51.546875-61.964843-107.324219-68.132812-118.007813l-15.261719 38.113281c-4.785156 11.949219-3.820312 25.429688 2.613281 36.574219 4.824219 8.355469 20.441407 37.152344 37.222657 66.214844.054687-.074219.109375-.160156.164062-.257813 8.601563-14.894531 24.355469-24.160156 41.496094-22.789062zm0 0" fill="#00c82f"/><path d="m12.992188 291.339844c-2.777344.535156-5.523438 1.40625-8.1875 2.625 4.804687 23.941406 13.097656 46.617187 24.328124 67.480468 2.964844-.796874 5.875-1.976562 8.664063-3.582031 3.574219-2.066406 6.652344-4.65625 9.210937-7.609375-22.386718-10.660156-35.976562-34.199218-34.015624-58.914062zm0 0" fill="#5294e5"/><path d="m18.820312 154.804688-1.921874 1.109374c-4.726563 12.019532-8.511719 24.507813-11.304688 37.367188 10.074219 6.765625 21.5 17.1875 32.652344 33.242188 14.746094-27.328126 32.335937-52.457032 57.355468-69.902344l-33.144531-8.070313c-14.808593-3.605469-30.4375-1.367187-43.636719 6.253907zm0 0" fill="#5294e5"/><path d="m62.457031 148.550781c-4.9375-1.203125-9.96875-1.742187-14.96875-1.660156 6.253907 5.707031 7.324219 15.953125.945313 22.941406-6.914063 7.574219-13.089844 15.882813-18.742188 24.664063-3.015625 4.679687-7.976562 7.199218-13.035156 7.378906 7.015625 6.210938 14.359375 14.238281 21.589844 24.648438 14.746094-27.328126 32.335937-52.453126 57.355468-69.898438zm0 0" fill="#4374d3"/><path d="m222.511719 333.957031c-10.253907 7.070313-21.363281 12.851563-33.078125 17.171875-2.527344 15.914063-3.53125 30.492188-3.351563 43.777344l31.792969 2.023438c5.851562.890624 11.320312-3.128907 12.210938-8.976563.480468-3.140625-.6875-5.648437-1.832032-8.609375-2.738281-7.066406-11.871094-20.253906-5.742187-45.386719zm0 0" fill="#61b6ff"/><path d="m187.820312 388.089844c0-12.472656 10.113282-22.585938 22.585938-22.585938 5.238281 0 10.054688 1.789063 13.886719 4.78125-3.105469-7.867187-5.914063-19.378906-1.777344-36.328125-10.257813 7.070313-21.367187 12.851563-33.082031 17.171875-2.527344 15.914063-3.53125 30.492188-3.351563 43.777344l2.847657.179688c-.71875-2.203126-1.109376-4.554688-1.109376-6.996094zm0 0" fill="#5294e5"/><path d="m222.257812 489.4375c-18.6875-21.132812-39.339843-65.859375-26.988281-139.179688.003907-.019531.007813-.039062.011719-.0625-10.9375 4.191407-22.425781 7.082032-34.257812 8.515626-26.132813 3.164062-57.992188 3.609374-92.542969-3.1875l-.863281 5.238281c-2.125 12.953125 3.578124 25.941406 14.558593 33.136719l11.023438 7.226562c9.375 6.144531 15.015625 16.605469 14.996093 27.816406l-.03125 19.808594c33.160157 22.367188 72.09375 36.820312 114.09375 40.6875zm0 0" fill="#4374d3"/><path d="m153.199219 472.703125-8.480469-57.355469c-16.167969-24.117187-16.101562-43.355468-13.710938-54.503906-19.191406.417969-40.296874-.949219-62.527343-5.324219l-.859375 5.238281c-2.128906 12.953126 3.578125 25.945313 14.554687 33.140626l11.023438 7.226562c9.375 6.144531 15.015625 16.605469 14.996093 27.816406l-.03125 19.808594c14.042969 9.472656 29.125 17.519531 45.035157 23.953125zm0 0" fill="#3957c9"/><path d="m155.675781 473.695312-7.042969-51.355468c-.8125-5.914063-6.191406-10.105469-12.125-9.441406l-30.789062 3.4375c1.609375 3.945312 2.484375 8.214843 2.476562 12.605468l-.03125 19.808594c14.769532 9.964844 30.6875 18.355469 47.511719 24.945312zm0 0" fill="#5294e5"/><path d="m427.988281 249.578125c-7.996093 4.617187-18.21875 1.878906-22.835937-6.117187l-120.601563-208.882813c-4.617187-7.996094-1.875-18.222656 6.121094-22.839844 7.996094-4.617187 18.21875-1.875 22.835937 6.121094l120.597657 208.882813c4.621093 7.996093 1.878906 18.21875-6.117188 22.835937zm0 0" fill="#d7f9b7"/><path d="m360.953125 133.003906c6.386719-3.6875 14.085937-3.007812 19.671875 1.097656l-67.117188-116.246093c-4.617187-7.996094-14.839843-10.734375-22.835937-6.117188-7.996094 4.617188-10.734375 14.839844-6.117187 22.835938l67.714843 117.289062c-1.347656-7.285156 1.902344-14.945312 8.683594-18.859375zm0 0" fill="#a2ec00"/><path d="m179.753906 126.960938-18.011718 2.070312c-39.839844 4.578125-76.222657 25.128906-100.300782 57.195312-17.625 23.472657-35.910156 54.777344-47.257812 93.46875-9.664063 32.957032 10.128906 67.242188 43.5 75.347657 39.183594 9.519531 75.4375 9.339843 104.578125 5.8125 39.8125-4.820313 75.796875-26.054688 99.683593-58.265625l10.796876-14.566406zm0 0" fill="#61b6ff"/><path d="m427.632812 176.984375-74.273437-128.640625c-2.410156-4.175781-.980469-9.519531 3.199219-11.933594 4.175781-2.410156 9.519531-.980468 11.929687 3.199219l74.273438 128.640625c2.414062 4.179688.980469 9.519531-3.195313 11.933594-4.160156 2.398437-9.511718 1-11.933594-3.199219zm0 0" fill="#ffade5"/><path d="m448.183594 142.269531-54.484375-94.367187c-2.410157-4.175782-.980469-9.519532 3.199219-11.929688 4.175781-2.414062 9.519531-.980468 11.929687 3.195313l54.484375 94.367187c2.410156 4.175782.980469 9.519532-3.199219 11.933594-4.15625 2.398438-9.507812.996094-11.929687-3.199219zm0 0" fill="#ffade5"/><path d="m433.910156 100.070312c3.230469-1.863281 7.058594-1.734374 10.078125-.003906l-35.160156-60.898437c-2.410156-4.175781-7.753906-5.609375-11.929687-3.195313-4.179688 2.410156-5.609376 7.753906-3.199219 11.929688l35.167969 60.90625c.003906-3.480469 1.808593-6.871094 5.042968-8.738282zm0 0" fill="#fc7acd"/><path d="m403.113281 117.070312c3.242188-1.867187 7.082031-1.734374 10.105469.007813l-44.730469-77.46875c-2.410156-4.179687-7.753906-5.609375-11.929687-3.199219-4.179688 2.414063-5.609375 7.753906-3.199219 11.933594l44.710937 77.441406c.015626-3.476562 1.816407-6.851562 5.042969-8.714844zm0 0" fill="#fc7acd"/><path d="m274.742188 286.027344 37.457031-50.519532-67.96875-117.726562-62.480469 7.179688zm0 0" fill="#83d3fc"/><path d="m283.171875 185.234375-38.941406-67.453125-62.480469 7.179688 44.792969 77.585937zm0 0" fill="#61b6ff"/><path d="m179.753906 126.960938-18.011718 2.070312c-39.839844 4.578125-76.222657 25.128906-100.300782 57.195312-17.625 23.472657-35.910156 54.777344-47.257812 93.46875-9.664063 32.957032 10.128906 67.242188 43.5 75.347657 39.183594 9.519531 75.4375 9.339843 104.578125 5.8125 39.8125-4.820313 75.796875-26.054688 99.683593-58.265625l10.796876-14.566406zm0 0" fill="#61b6ff"/><path d="m161.742188 129.03125c-39.839844 4.578125-76.222657 25.128906-100.300782 57.195312-17.625 23.472657-35.910156 54.777344-47.257812 93.46875-4.796875 16.359376-2.328125 33.042969 5.449218 46.691407 13.644532-38.539063 52.546876-29.941407 52.546876-29.941407l118.855468-68.625c3.46875-20.199218 23.859375-16.691406 23.859375-16.691406l-6.941406-35.320312-28.203125-48.847656zm0 0" fill="#5294e5"/><path d="m262.65625 293.847656-92.992188-161.0625c-3.214843-5.570312-1.304687-12.691406 4.265626-15.910156 5.570312-3.21875 12.691406-1.304688 15.910156 4.265625l92.988281 161.0625c3.214844 5.570313 1.308594 12.691406-4.261719 15.910156-5.550781 3.203125-12.679687 1.328125-15.910156-4.265625zm0 0" fill="#b9e9fd"/><path d="m221.921875 200.355469c4.261719-2.464844 9.269531-2.472657 13.382813-.464844l-45.46875-78.75c-3.214844-5.570313-10.335938-7.480469-15.90625-4.261719-5.570313 3.214844-7.480469 10.335938-4.265626 15.90625l45.230469 78.34375c.488281-4.347656 2.945313-8.417968 7.027344-10.773437zm0 0" fill="#83d3fc"/><path d="m507.867188 44.890625c-8.484376-14.6875-27.265626-19.722656-41.957032-11.242187-14.691406 8.484374-19.722656 27.269531-11.242187 41.957031 8.480469 14.691406 27.265625 19.726562 41.957031 11.242187 14.691406-8.480468 19.722656-27.265625 11.242188-41.957031zm0 0" fill="#ffade5"/><path d="m474.453125 59.710938c-6.6875-11.582032-.414063-26.421876 12.6875-29.601563-7.019531-1.367187-14.542969-.3125-21.21875 3.539063-14.691406 8.484374-19.726563 27.269531-11.242187 41.960937 8.480468 14.691406 27.265624 19.722656 41.957031 11.242187 11.667969-6.738281 17.234375-19.976562 14.785156-32.5-4.222656 17.5625-27.863281 21.125-36.96875 5.359376zm0 0" fill="#fc7acd"/><path d="m141.839844 267.878906c-4.023438 0-7.941406-2.085937-10.097656-5.824218-3.214844-5.570313-1.304688-12.695313 4.265624-15.910157l39.121094-22.585937c5.566406-3.214844 12.691406-1.304688 15.90625 4.265625 3.21875 5.570312 1.308594 12.691406-4.261718 15.90625l-39.121094 22.585937c-1.832032 1.058594-3.835938 1.5625-5.8125 1.5625zm0 0" fill="#4374d3"/><path d="m72.179688 296.445312c-4.019532-6.964843-1.632813-15.867187 5.328124-19.886718l57.042969-32.933594c6.960938-4.023438 15.863281-1.636719 19.886719 5.328125 4.019531 6.960937 1.632812 15.863281-5.328125 19.886719l-57.042969 32.933594c-6.917968 3.996093-15.839844 1.679687-19.886718-5.328126zm0 0" fill="#fc7acd"/><path d="m108.457031 275.417969c-3.226562-5.585938-2.664062-12.3125.871094-17.230469l-31.820313 18.371094c-6.960937 4.019531-9.347656 12.921875-5.328124 19.886718 4.046874 7.007813 12.96875 9.320313 19.886718 5.328126l32.078125-18.519532c-6.113281.738282-12.386719-2.117187-15.6875-7.835937zm0 0" fill="#f948b4"/><path d="m248.351562 96.945312c-7.996093 4.617188-10.738281 14.84375-6.121093 22.835938l67.96875 117.726562c4.617187 7.996094 14.839843 10.734376 22.835937 6.117188s10.738282-14.839844 6.121094-22.835938l-67.96875-117.722656c-4.617188-7.996094-14.839844-10.738281-22.835938-6.121094zm0 0" fill="#d7f9b7"/><path d="m290.691406 170.285156c6.921875-3.992187 15.433594-2.667968 20.855469 2.6875l-40.359375-69.90625c-4.617188-7.996094-14.839844-10.738281-22.835938-6.121094-7.996093 4.617188-10.738281 14.84375-6.121093 22.835938l40.363281 69.90625c-1.929688-7.371094 1.179688-15.40625 8.097656-19.402344zm0 0" fill="#a2ec00"/></svg>