<svg height="512pt" viewBox="-10 0 511 512" width="512pt" xmlns="http://www.w3.org/2000/svg"><path d="m449.277344 403.039062c26.035156-38.917968 41.222656-85.703124 41.222656-136.039062 0-135.308594-109.691406-245-245-245s-245 109.6875-245 245c0 50.363281 15.203125 97.171875 41.261719 136.101562zm0 0" fill="#162680"/><path d="m291.761719 61.09375c-1.972657 3.730469-6.503907 5.226562-10.296875 3.425781-22.15625-10.503906-47.566406-10.507812-69.722656 0-3.78125 1.792969-8.320313.316407-10.296876-3.425781-17.992187 10.5625-31.964843 27.226562-39.050781 47.164062.902344-.191406 1.839844-.296874 2.800781-.296874h162.816407c.960937 0 1.898437.105468 2.804687.296874-7.089844-19.9375-21.0625-36.601562-39.054687-47.164062zm0 0" fill="#b9e9fd"/><path d="m165.195312 107.960938h57.796876c.019531-.433594.035156-.867188.035156-1.308594 0-35.878906 23.578125-48.988282 23.578125-48.988282-.347657-.34375-.648438-.679687-.910157-1.011718-11.589843.128906-23.15625 2.746094-33.953124 7.867187-3.78125 1.796875-8.320313.316407-10.296876-3.425781-17.992187 10.5625-31.964843 27.226562-39.050781 47.167969.902344-.195313 1.839844-.300781 2.800781-.300781zm0 0" fill="#83d3fc"/><path d="m142.539062 248.769531c-58.226562 33.617188-93.808593 91.375-101.433593 153.332031 23.429687 35.378907 55.792969 64.320313 93.878906 83.605469l287.101563-164.515625c-57.664063-96.203125-182.046876-128.710937-279.546876-72.421875zm0 0" fill="#face7a"/><path d="m41.105469 402.101562c23.429687 35.378907 55.792969 64.320313 93.878906 83.605469l75.136719-43.054687c-4.117188-7.730469-5.6875-15.253906-6.164063-21.183594-.601562-7.449219-4.53125-14.253906-10.855469-18.226562-34.546874-21.691407-35.324218-54.464844-32.816406-71.800782 1.070313-7.394531-1.558594-14.789062-6.871094-20.046875-34.246093-33.894531-10.875-62.621093-10.875-62.621093-58.226562 33.613281-93.808593 91.371093-101.433593 153.328124zm0 0" fill="#fc9949"/><path d="m245.5 512c85.402344 0 160.585938-43.707031 204.4375-109.960938-2.996094-24.496093-10.460938-48.824218-22.726562-71.796874l-279.421876 161.476562c29.9375 13.035156 62.976563 20.28125 97.710938 20.28125zm0 0" fill="#face7a"/><path d="m245.5 512c3.722656 0 7.425781-.089844 11.109375-.253906-10.292969-7.824219-12.914063-18.136719-13.035156-26.265625-.121094-8.046875-4.226563-15.574219-11.078125-19.792969-6.8125-4.195312-12.035156-8.855469-16.042969-13.648438l-68.664063 39.679688c29.9375 13.035156 62.976563 20.28125 97.710938 20.28125zm0 0" fill="#fc9949"/><path d="m423.84375 324.144531c-11.859375-20.539062-26.730469-38.25-43.722656-52.925781-5.28125 9.640625-8.507813 20.28125-9.472656 31.203125-1.019532 11.53125-7.460938 21.886719-17.484376 27.671875h-.003906c-10.03125 5.792969-22.226562 6.179688-32.730468 1.296875-22.597657-10.503906-49.78125-10.207031-73 3.199219s-37.070313 36.800781-39.269532 61.621094c-1.023437 11.539062-7.457031 21.90625-17.488281 27.699218-10.027344 5.785156-22.214844 6.1875-32.710937 1.304688-23.277344-10.828125-51.429688-10.195313-75.101563 4.429687-4.363281 2.699219-8.355469 5.78125-12.003906 9.160157 34.988281 35.5625 80.746093 60.492187 131.996093 69.488281.214844-1.460938.386719-2.925781.519532-4.398438 1.023437-11.539062 7.453125-21.90625 17.488281-27.695312 10.03125-5.792969 22.226563-6.183594 32.730469-1.296875 22.597656 10.503906 49.78125 10.207031 73-3.199219 23.222656-13.40625 37.070312-36.800781 39.273437-61.621094 1.023438-11.539062 7.453125-21.90625 17.488281-27.699219 10.03125-5.792968 22.226563-6.179687 32.730469-1.296874 9.933594 4.617187 20.757813 7.148437 31.738281 7.394531-4.214843-22.054688-12.117187-43.792969-23.976562-64.335938zm0 0" fill="#f948b4"/><path d="m203.371094 503.894531c1.023437-11.539062 7.453125-21.90625 17.488281-27.695312 5.554687-3.210938 11.773437-4.753907 18.003906-4.667969-1.714843-2.300781-3.855469-4.296875-6.367187-5.84375-22.128906-13.621094-27.570313-32.191406-28.539063-44.222656-.226562-2.785156-.914062-5.476563-2.023437-7.96875-2.902344 4.199218-6.707032 7.78125-11.261719 10.414062-10.027344 5.789063-22.214844 6.191406-32.710937 1.308594-23.277344-10.832031-51.429688-10.195312-75.097657 4.429688-4.363281 2.695312-8.359375 5.78125-12.007812 9.15625 34.988281 35.5625 80.746093 60.492187 132 69.488281.210937-1.460938.382812-2.925781.515625-4.398438zm0 0" fill="#f6159c"/><path d="m106.722656 464.054688c-1.253906.726562-2.453125 1.507812-3.625 2.3125 21.882813 15.660156 46.453125 27.800781 72.878906 35.609374.777344-8.316406-.828124-16.722656-5.171874-24.246093-12.117188-20.988281-40.808594-27.113281-64.082032-13.675781zm0 0" fill="#c6237c"/><path d="m70.339844 318.789062c14.683594 1.886719 30.578125 6.085938 50.992187 7.546876 36.988281 2.648437 62.484375-18.148438 68.601563-44.234376 2.214844-9.445312 8.140625-17.671874 16.667968-22.59375 10.035157-5.792968 22.226563-6.183593 32.734376-1.296874 22.59375 10.503906 49.777343 10.203124 73-3.199219 7.222656-4.171875 13.535156-9.3125 18.878906-15.160157-95.472656-43.601562-206.992188-8.386718-260.875 78.9375zm0 0" fill="#c78fe8"/><path d="m158.929688 319.78125c-1.210938-3.105469-3.074219-5.972656-5.515626-8.386719-34.246093-33.894531-10.875-62.621093-10.875-62.621093l-.007812-.003907c-28.804688 16.597657-53.84375 40.285157-72.191406 70.019531 14.683594 1.886719 30.582031 6.085938 50.996094 7.550782 14.441406 1.03125 27.121093-1.523438 37.59375-6.558594zm0 0" fill="#b26cde"/><path d="m114.019531 365.503906c-4.242187-7.347656-14.949219-9.109375-23.917969-3.933594-8.964843 5.179688-12.792968 15.332032-8.550781 22.683594 4.246094 7.347656 14.953125 9.109375 23.917969 3.933594 8.96875-5.175781 12.796875-15.332031 8.550781-22.683594zm0 0" fill="#fd7e31"/><path d="m151.683594 120.164062v5.472657h189.839844v-5.472657c0-7.433593-6.082032-13.511718-13.511719-13.511718h-162.816407c-7.429687 0-13.511718 6.078125-13.511718 13.511718zm0 0" fill="#5294e5"/><path d="m223.027344 106.652344h-57.832032c-7.429687 0-13.511718 6.078125-13.511718 13.511718v5.472657h57.832031v-5.472657c0-7.433593 6.082031-13.511718 13.511719-13.511718zm0 0" fill="#4374d3"/><path d="m179.449219 137.191406c-4.554688 0-8.25-3.695312-8.25-8.253906v-21.808594c0-4.558594 3.695312-8.253906 8.25-8.253906 4.558593 0 8.253906 3.695312 8.253906 8.253906v21.808594c0 4.558594-3.695313 8.253906-8.253906 8.253906zm0 0" fill="#5294e5"/><path d="m246.605469 137.191406c-4.558594 0-8.253907-3.695312-8.253907-8.253906v-21.808594c0-4.558594 3.695313-8.253906 8.253907-8.253906 4.554687 0 8.25 3.695312 8.25 8.253906v21.808594c0 4.558594-3.695313 8.253906-8.25 8.253906zm0 0" fill="#61b6ff"/><path d="m313.757812 137.191406c-4.558593 0-8.253906-3.695312-8.253906-8.253906v-21.808594c0-4.558594 3.695313-8.253906 8.253906-8.253906 4.554688 0 8.25 3.695312 8.25 8.253906v21.808594c0 4.558594-3.695312 8.253906-8.25 8.253906zm0 0" fill="#61b6ff"/><path d="m156.941406 240.4375-20.34375 35.234375c-4.101562 7.105469-1.667968 16.191406 5.4375 20.292969 7.105469 4.101562 16.191406 1.667968 20.292969-5.4375l28.921875-50.089844zm0 0" fill="#d0f6fa"/><path d="m171.808594 274.105469 19.4375-33.667969h-34.304688l-11.03125 19.101562c11.320313-7.125 26.105469 1.136719 25.898438 14.566407zm0 0" fill="#b9e9fd"/><path d="m332.632812 240.4375h-34.308593l28.921875 50.089844c4.101562 7.105468 13.1875 9.539062 20.292968 5.4375 7.105469-4.101563 9.539063-13.1875 5.4375-20.292969zm0 0" fill="#d0f6fa"/><path d="m343.609375 259.445312-10.976563-19.007812h-34.308593l19.542969 33.84375c-.347657-13.378906 14.382812-21.816406 25.742187-14.835938zm0 0" fill="#b9e9fd"/><path d="m100.960938 170.605469h291.285156c.558594 0 1.105468.042969 1.644531.113281-7.710937-14.988281-18.433594-28.582031-31.539063-40.203125-4-3.546875-9.152343-5.535156-14.5-5.535156h-202.5c-5.347656 0-10.496093 1.988281-14.496093 5.535156-13.105469 11.621094-23.828125 25.214844-31.539063 40.203125.539063-.070312 1.085938-.113281 1.644532-.113281zm0 0" fill="#00c82f"/><path d="m392.246094 197.015625h-291.285156c-.558594 0-1.105469-.046875-1.644532-.113281 7.710938 14.984375 18.433594 28.582031 31.539063 40.199218 4 3.550782 9.148437 5.535157 14.496093 5.535157h202.5c5.351563 0 10.5-1.984375 14.5-5.535157 13.101563-11.617187 23.828126-25.214843 31.539063-40.199218-.539063.066406-1.085937.113281-1.644531.113281zm0 0" fill="#00c82f"/><path d="m203.90625 130.515625c2.425781-3.550781 5.542969-5.535156 8.785156-5.535156h-67.335937c-5.347657 0-10.5 1.984375-14.5 5.535156-13.101563 11.621094-23.828125 25.214844-31.539063 40.203125.539063-.070312 1.085938-.113281 1.644532-.113281h83.871093c4.671875-14.945313 11.152344-28.5 19.074219-40.089844zm0 0" fill="#04af24"/><path d="m203.90625 237.101562c-7.917969-11.589843-14.402344-25.144531-19.074219-40.085937h-83.871093c-.558594 0-1.105469-.046875-1.644532-.113281 7.710938 14.984375 18.433594 28.582031 31.539063 40.199218 4 3.550782 9.148437 5.535157 14.496093 5.535157h67.339844c-3.242187 0-6.359375-1.984375-8.785156-5.535157zm0 0" fill="#04af24"/><path d="m407.101562 183.808594c0-8.203125-6.648437-14.855469-14.855468-14.855469h-291.285156c-8.207032 0-14.855469 6.652344-14.855469 14.855469 0 8.207031 6.648437 14.855468 14.855469 14.855468h291.285156c8.207031 0 14.855468-6.648437 14.855468-14.855468zm0 0" fill="#a2ec00"/><path d="m407.101562 183.808594c0-8.203125-6.648437-14.855469-14.855468-14.855469h-35.867188c-8.203125 0-14.855468 6.652344-14.855468 14.855469 0 8.207031 6.652343 14.855468 14.855468 14.855468h35.867188c8.207031 0 14.855468-6.648437 14.855468-14.855468zm0 0" fill="#d7f9b7"/><path d="m171.195312 183.808594c0-8.203125 6.652344-14.855469 14.859376-14.855469h-85.09375c-8.207032 0-14.855469 6.652344-14.855469 14.855469 0 8.207031 6.648437 14.855468 14.855469 14.855468h85.09375c-8.207032 0-14.859376-6.648437-14.859376-14.855468zm0 0" fill="#00c82f"/><path d="m281.042969 65.40625c-21.75-10.3125-47.105469-10.328125-68.878907 0-4.40625 2.089844-9.679687.210938-11.773437-4.199219-2.089844-4.410156-.210937-9.679687 4.199219-11.773437 26.546875-12.585938 57.449218-12.601563 84.023437 0 4.410157 2.09375 6.292969 7.363281 4.199219 11.773437-2.078125 4.386719-7.339844 6.300781-11.769531 4.199219zm0 0" fill="#d0f6fa"/><path d="m246.605469 48.242188v-8.253907c-14.371094 0-28.738281 3.152344-42.011719 9.449219-4.410156 2.089844-6.292969 7.359375-4.199219 11.769531 2.089844 4.410157 7.363281 6.289063 11.769531 4.199219 10.886719-5.160156 22.664063-7.738281 34.441407-7.738281-5.570313-5.570313 0-9.425781 0-9.425781zm0 0" fill="#b9e9fd"/><path d="m246.605469 48.242188c-4.558594 0-8.253907-3.695313-8.253907-8.253907v-22.328125c0-4.558594 3.695313-8.253906 8.253907-8.253906 4.554687 0 8.25 3.695312 8.25 8.253906v22.328125c0 4.558594-3.695313 8.253907-8.25 8.253907zm0 0" fill="#83d3fc"/><path d="m246.605469 27.351562c-6.078125 0-11.003907-4.925781-11.003907-11.003906v-5.34375c-.003906-6.078125 4.925782-11.003906 11.003907-11.003906s11.003906 4.925781 11.003906 11.003906v5.34375c0 6.078125-4.929687 11.003906-11.003906 11.003906zm0 0" fill="#fc7acd"/><path d="m246.605469 16.019531c-5.039063 0-9.277344-3.390625-10.582031-8.007812-.269532.953125-.421876 1.953125-.421876 2.992187v5.34375c0 6.078125 4.925782 11.003906 11.003907 11.003906s11.003906-4.925781 11.003906-11.003906v-5.34375c0-1.039062-.15625-2.039062-.425781-2.992187-1.304688 4.617187-5.542969 8.007812-10.578125 8.007812zm0 0" fill="#f948b4"/></svg>