<svg id="Capa_1" enable-background="new 0 0 512 512" height="512" viewBox="0 0 512 512" width="512" xmlns="http://www.w3.org/2000/svg"><path d="m453.5 418.89c36.545-44.259 58.5-101.011 58.5-162.89 0-141.385-114.615-256-256-256s-256 114.615-256 256c0 61.879 21.955 118.631 58.5 162.89l165 91.065c10.643 1.349 21.49 2.045 32.5 2.045s21.857-.696 32.5-2.045z" fill="#484e55"/><path d="m256 406.243c-54.72 0-75.947-39.347-76.824-41.021-1.921-3.67-.503-8.202 3.166-10.123 3.661-1.917 8.18-.511 10.109 3.14.743 1.387 18.215 33.005 63.549 33.005 45.363 0 62.828-31.66 63.55-33.008 1.949-3.641 6.479-5.036 10.13-3.105 3.648 1.932 5.059 6.434 3.144 10.092-.878 1.673-22.104 41.02-76.824 41.02z" fill="#b1dce0"/><path d="m476 75v164.34c0 25.99-9.44 49.76-25.08 68.1-3.14 3.67-4.92 8.3-4.92 13.13v107c-35.12 38.86-81.98 66.9-135 78.5v-170.7c0-5.89-2.58-11.51-7.11-15.28-23.15-19.26-37.89-48.28-37.89-80.75v-41.67c0-8.53 7.11-15.39 15.73-14.99 8.06.38 14.27 7.33 14.27 15.41v42.74c0 2.07.84 3.95 2.2 5.31 1.36 1.35 3.23 2.19 5.3 2.19 4.14 0 7.5-3.35 7.5-7.5v-195.83c0-8.52 7.11-15.39 15.73-14.98 8.06.38 14.27 7.33 14.27 15.4v129.75c0 2.07.84 3.95 2.2 5.3 1.36 1.36 3.23 2.2 5.3 2.2 4.14 0 7.5-3.36 7.5-7.5v-160.17c0-8.52 7.11-15.39 15.73-14.98 8.06.38 14.27 7.33 14.27 15.4v159.75c0 2.07.84 3.95 2.2 5.3 1.36 1.36 3.23 2.2 5.3 2.2 4.14 0 7.5-3.36 7.5-7.5v-130.17c0-8.52 7.11-15.39 15.72-14.98 8.07.38 14.28 7.33 14.28 15.4v129.75c0 2.07.84 3.95 2.2 5.3 1.36 1.36 3.23 2.2 5.3 2.2 4.14 0 7.5-3.36 7.5-7.5v-99.75c0-8.07 6.21-15.02 14.27-15.4 8.62-.41 15.73 6.46 15.73 14.98z" fill="#ffe2b8"/><path d="m378.73 320.092c-23.15-19.26-37.891-48.281-37.891-80.749v-196.038c-.974-7.137-6.764-12.941-14.114-13.288-8.614-.405-15.725 6.458-15.725 14.983v195.833c0 4.142-3.358 7.5-7.5 7.5-4.142 0-7.5-3.358-7.5-7.5v-42.743c0-8.077-6.207-15.027-14.275-15.406-8.614-.406-15.725 6.458-15.725 14.983v41.676c0 32.468 14.74 61.49 37.891 80.749 4.531 3.77 7.109 9.389 7.109 15.283v170.683c26.753-5.858 51.938-15.896 74.839-29.401v-141.282c0-5.895-2.578-11.514-7.109-15.283z" fill="#ffd5a0"/><path d="m453.5 416.333c0-2.761-2.239-5-5-5h-140c-2.761 0-5 2.239-5 5v35h117.952c11.615-9.847 22.351-20.699 32.048-32.444z" fill="#fff"/><path d="m348.5 411.333h-40c-2.761 0-5 2.239-5 5v35h40v-35c0-2.761 2.239-5 5-5z" fill="#daf0f6"/><path d="m448.5 386.833h-140c-2.761 0-5-2.239-5-5v-30c0-2.761 2.239-5 5-5h140c2.761 0 5 2.239 5 5v30c0 2.762-2.239 5-5 5z" fill="#daf0f6"/><path d="m343.5 381.833v-30c0-2.761 2.239-5 5-5h-40c-2.761 0-5 2.239-5 5v30c0 2.761 2.239 5 5 5h40c-2.761 0-5-2.238-5-5z" fill="#bee5eb"/><path d="m442.513 431.333h-144.013c-5.523 0-10 4.477-10 10v68.622c60.447-7.658 114.31-36.404 154.013-78.622z" fill="#4f859b"/><path d="m288.5 441.333v68.622c13.703-1.736 27.061-4.572 40-8.386v-60.236c0-5.523 4.477-10 10-10h-40c-5.523 0-10 4.478-10 10z" fill="#40718c"/><path d="m246 197.67v41.67c0 32.47-14.74 61.49-37.89 80.75-4.53 3.77-7.11 9.39-7.11 15.28v170.7c-53.02-11.6-99.88-39.64-135-78.5v-107c0-4.83-1.78-9.46-4.92-13.13-15.64-18.34-25.08-42.11-25.08-68.1v-164.34c0-8.52 7.11-15.39 15.73-14.98 8.06.38 14.27 7.33 14.27 15.4v99.75c0 4.14 3.36 7.5 7.5 7.5 2.07 0 3.94-.84 5.3-2.2 1.36-1.35 2.2-3.23 2.2-5.3v-129.75c0-8.07 6.21-15.02 14.28-15.4 8.61-.41 15.72 6.46 15.72 14.98v130.17c0 4.14 3.36 7.5 7.5 7.5 2.07 0 3.94-.84 5.3-2.2 1.36-1.35 2.2-3.23 2.2-5.3v-159.75c0-8.07 6.21-15.02 14.27-15.4 8.62-.41 15.73 6.46 15.73 14.98v160.17c0 4.14 3.36 7.5 7.5 7.5 2.07 0 3.94-.84 5.3-2.2 1.36-1.35 2.2-3.23 2.2-5.3v-129.75c0-8.07 6.21-15.02 14.27-15.4 8.62-.41 15.73 6.46 15.73 14.98v195.83c0 4.15 3.36 7.5 7.5 7.5 2.07 0 3.94-.84 5.3-2.19 1.36-1.36 2.2-3.24 2.2-5.31v-42.74c0-8.08 6.21-15.03 14.27-15.41 8.62-.4 15.73 6.46 15.73 14.99z" fill="#ffe2b8"/><path d="m141 320.57v164.2c-28.45-14.32-53.85-33.8-75-57.2v-107c0-4.83-1.78-9.46-4.92-13.13-15.64-18.34-25.08-42.11-25.08-68.1v-164.34c0-8.52 7.11-15.39 15.73-14.98 8.06.38 14.27 7.33 14.27 15.4v99.75c0 4.14 3.36 7.5 7.5 7.5s7.5-3.36 7.5-7.5v-129.75c0-8.07 6.21-15.02 14.28-15.4 8.61-.41 15.72 6.46 15.72 14.98v194.34c0 25.99 9.44 49.76 25.08 68.1 3.14 3.67 4.92 8.3 4.92 13.13z" fill="#ffd5a0"/><path d="m203.5 411.333h-140c-2.761 0-5 2.239-5 5v2.556c9.697 11.744 20.434 22.596 32.048 32.444h117.952v-35c0-2.761-2.239-5-5-5z" fill="#fff"/><path d="m58.5 416.333v2.556c9.697 11.744 20.433 22.596 32.048 32.444h7.952v-35c0-2.761 2.239-5 5-5h-40c-2.761 0-5 2.239-5 5z" fill="#daf0f6"/><path d="m63.5 386.833h140c2.761 0 5-2.239 5-5v-30c0-2.761-2.239-5-5-5h-140c-2.761 0-5 2.239-5 5v30c0 2.762 2.239 5 5 5z" fill="#daf0f6"/><path d="m98.5 381.833v-30c0-2.761 2.239-5 5-5h-40c-2.761 0-5 2.239-5 5v30c0 2.761 2.239 5 5 5h40c-2.761 0-5-2.238-5-5z" fill="#bee5eb"/><path d="m213.5 431.333h-144.013c39.702 42.218 93.565 70.964 154.013 78.622v-68.622c0-5.522-4.477-10-10-10z" fill="#4f859b"/><path d="m98.5 457.821v-26.488h-29.013c8.978 9.547 18.674 18.408 29.013 26.488z" fill="#40718c"/><g fill="#ffe473"><circle cx="201" cy="455.821" r="10"/><circle cx="311.042" cy="455.821" r="10"/></g></svg>