<svg id="Capa_1" enable-background="new 0 0 512 512" height="512" viewBox="0 0 512 512" width="512" xmlns="http://www.w3.org/2000/svg"><path d="m102.243 460.691h307.513c62.088-46.712 102.244-121.01 102.244-204.691 0-141.385-114.615-256-256-256s-256 114.615-256 256c0 83.681 40.156 157.979 102.243 204.691z" fill="#40718c"/><circle cx="256" cy="256" fill="#daf0f6" r="200"/><path d="m394.379 351.235c-2.563 0-5.157-.657-7.531-2.038-7.16-4.167-9.586-13.35-5.419-20.509 5.964-10.249 10.648-21.199 13.923-32.548 2.296-7.959 10.608-12.554 18.57-10.254 7.96 2.296 12.551 10.611 10.254 18.57-3.957 13.715-9.616 26.945-16.819 39.322-2.786 4.785-7.813 7.457-12.978 7.457z" fill="#fff"/><path d="m416 271c-8.284 0-15-6.716-15-15 0-79.953-65.047-145-145-145-8.284 0-15-6.716-15-15s6.716-15 15-15c96.495 0 175 78.505 175 175 0 8.284-6.716 15-15 15z" fill="#fff"/><path d="m276 56.993c-6.579-.653-13.25-.993-20-.993-110.457 0-200 89.543-200 199.999 0 109.8 87.7 198.639 197.492 199.985 64.296.788 121.711-28.776 158.842-75.254h-191.81c-68.301 0-124.045-55.017-124.518-123.316-.004-.471-.006-.942-.006-1.414 0-103.706 78.934-188.972 180-199.007z" fill="#bee5eb"/><path d="m404.445 436.449c-2.011-9.178-10.14-15.719-19.536-15.719h-257.817c-9.396 0-17.525 6.541-19.536 15.719l-5.312 24.242c42.813 32.211 96.052 51.309 153.756 51.309s110.943-19.098 153.757-51.309z" fill="#d587eb"/><path d="m316.644 460.406h-162.493c-6.086 0-10.613-5.626-9.31-11.571l2.714-12.386c2.011-9.178 10.14-15.719 19.536-15.719h-40c-9.396 0-17.525 6.541-19.536 15.719l-5.312 24.242c11.049 8.313 22.798 15.743 35.134 22.206.958-4.374 4.832-7.491 9.31-7.491h170.271c4.219 0 7.624-3.483 7.497-7.731-.123-4.104-3.704-7.269-7.811-7.269z" fill="#c174dc"/></svg>