<svg id="Capa_1" enable-background="new 0 0 512 512" height="512" viewBox="0 0 512 512" width="512" xmlns="http://www.w3.org/2000/svg"><path d="m512 256c0 43.496-10.848 84.459-29.986 120.331-9.082 17.022-27.472 29.123-40.014 43.578-14.483 16.693-23.648 35.268-41.96 47.754-41.035 27.979-90.627 44.337-144.04 44.337s-103.005-16.358-144.04-44.337c-15.252-10.4-28.658-28.069-41.303-41.436-15.683-16.579-29.837-29.59-40.671-49.896-19.138-35.872-29.986-76.835-29.986-120.331 0-141.385 114.615-256 256-256s256 114.615 256 256z" fill="#484e55"/><path d="m334.5 129.167c-4.143 0-7.5-3.358-7.5-7.5v-67c0-6.893-5.607-12.5-12.5-12.5h-117c-6.893 0-12.5 5.607-12.5 12.5v67c0 4.142-3.357 7.5-7.5 7.5s-7.5-3.358-7.5-7.5v-67c0-15.164 12.337-27.5 27.5-27.5h117c15.163 0 27.5 12.336 27.5 27.5v67c0 4.142-3.357 7.5-7.5 7.5z" fill="#bee5eb"/><path d="m482 146.667-226-25-226 25v229.656c13.25 24.835 30.47 47.226 50.819 66.331h350.363c20.348-19.105 37.569-41.496 50.819-66.331v-229.656z" fill="#bee5eb"/><path d="m30 376.323c10.834 20.306 24.317 38.982 40 55.561v-289.642l-40 4.425z" fill="#b1dce0"/><path d="m70 367.654v-170.987c0-5.523 4.477-10 10-10h352c5.523 0 10 4.477 10 10v170.987c0 5.523-4.477 10-10 10h-352c-5.523 0-10-4.477-10-10z" fill="#40718c"/><path d="m130 367.654v-170.987c0-5.523 4.477-10 10-10h-60c-5.523 0-10 4.477-10 10v170.987c0 5.523 4.477 10 10 10h60c-5.523 0-10-4.477-10-10z" fill="#3c5d78"/><path d="m492 136.667v-30c0-5.523-4.477-10-10-10h-452c-5.523 0-10 4.477-10 10v30c0 5.523 4.477 10 10 10h452c5.523 0 10-4.477 10-10z" fill="#daf0f6"/><path d="m90 136.667v-30c0-5.523 4.477-10 10-10h-70c-5.523 0-10 4.477-10 10v30c0 5.523 4.477 10 10 10h70c-5.523 0-10-4.478-10-10z" fill="#bee5eb"/><path d="m492 297.16v-30c0-5.523-4.477-10-10-10h-452c-5.523 0-10 4.477-10 10v30c0 5.523 4.477 10 10 10h452c5.523 0 10-4.477 10-10z" fill="#bee5eb"/><path d="m90 297.16v-30c0-5.523 4.477-10 10-10h-70c-5.523 0-10 4.477-10 10v30c0 5.523 4.477 10 10 10h70c-5.523 0-10-4.477-10-10z" fill="#b1dce0"/><path d="m57.503 417.654c15.63 19.17 33.979 36.033 54.463 50h288.068c20.484-13.967 38.833-30.83 54.463-50z" fill="#daf0f6"/><path d="m90 450.87v-23.216c0-5.523 4.477-10 10-10h-42.497c9.809 12.03 20.69 23.148 32.497 33.216z" fill="#bee5eb"/><path d="m392 322.16h-60c-5.523 0-10-4.477-10-10v-60c0-5.523 4.477-10 10-10h60c5.523 0 10 4.477 10 10v60c0 5.523-4.477 10-10 10z" fill="#daf0f6"/><path d="m362 312.16v-60c0-5.523 4.477-10 10-10h-40c-5.523 0-10 4.477-10 10v60c0 5.523 4.477 10 10 10h40c-5.523 0-10-4.477-10-10z" fill="#bee5eb"/><path d="m180 322.16h-60c-5.523 0-10-4.477-10-10v-60c0-5.523 4.477-10 10-10h60c5.523 0 10 4.477 10 10v60c0 5.523-4.477 10-10 10z" fill="#daf0f6"/><path d="m150 312.16v-60c0-5.523 4.477-10 10-10h-40c-5.523 0-10 4.477-10 10v60c0 5.523 4.477 10 10 10h40c-5.523 0-10-4.477-10-10z" fill="#bee5eb"/></svg>