<svg id="Capa_1" enable-background="new 0 0 512 512" height="512" viewBox="0 0 512 512" width="512" xmlns="http://www.w3.org/2000/svg"><path d="m512 256c0 50.589-14.674 97.751-39.998 137.461-5.27 8.264-18.002 10.206-24.158 17.788-7.072 8.71-7.704 22.945-15.842 30.653-25.741 24.378-56.541 43.468-90.662 55.529-6.446 2.279-13.011-3.694-19.683-1.928-6.672 1.765-13.45 11.268-20.324 12.496-14.714 2.629-29.863 4.001-45.333 4.001s-30.619-1.372-45.333-4.001c-6.764-1.209-13.435-9.683-20.003-11.412-6.782-1.785-13.454 3.159-20.003.844-34.121-12.061-64.921-31.15-90.662-55.529-7.06-6.687-10.74-23.771-17.003-31.218-7.241-8.609-16.925-7.702-22.997-17.223-25.325-39.71-39.999-86.872-39.999-137.461 0-141.385 114.615-256 256-256s256 114.615 256 256z" fill="#40718c"/><path d="m236 23.167h40v392h-40z" fill="#b1dce0" transform="matrix(0 1 -1 0 475.167 -36.833)"/><path d="m60 199.167h392v20h-392z" fill="#bee5eb"/><path d="m236 167.333h40v392h-40z" fill="#b1dce0" transform="matrix(0 1 -1 0 619.333 107.333)"/><path d="m60 343.333h392v20h-392z" fill="#bee5eb"/><path d="m80 75v366.9c-7.06-6.69-13.74-13.77-20-21.22-7.25-8.61-13.93-17.7-20-27.22v-318.46z" fill="#daf0f6"/><path d="m60 75v345.68c-7.25-8.61-13.93-17.7-20-27.22v-318.46z" fill="#bee5eb"/><path d="m170.667 497.413c12.893 4.558 26.252 8.129 40 10.585v-432.998h-40z" fill="#daf0f6"/><path d="m170.667 497.413c6.549 2.315 13.218 4.376 20 6.161v-428.574h-20z" fill="#bee5eb"/><path d="m301.333 507.998c13.748-2.457 27.107-6.028 40-10.585v-422.413h-40z" fill="#daf0f6"/><path d="m301.333 507.998c6.764-1.209 13.431-2.696 20-4.424v-428.574h-20z" fill="#bee5eb"/><path d="m472 75v318.46c-6.07 9.52-12.75 18.61-20 27.22-6.26 7.45-12.94 14.53-20 21.22v-366.9z" fill="#daf0f6"/><path d="m452 75v345.68c-6.26 7.45-12.94 14.53-20 21.22v-366.9z" fill="#bee5eb"/><path d="m20 90v-35l236-20 236 20v35c0 2.761-2.239 5-5 5h-462c-2.761 0-5-2.239-5-5z" fill="#bee5eb"/><path d="m0 50v-30c0-2.761 2.239-5 5-5h502c2.761 0 5 2.239 5 5v30c0 2.761-2.239 5-5 5h-502c-2.761 0-5-2.239-5-5z" fill="#daf0f6"/><path d="m40 50v-30c0-2.761 2.239-5 5-5h-40c-2.761 0-5 2.239-5 5v30c0 2.761 2.239 5 5 5h40c-2.761 0-5-2.239-5-5z" fill="#bee5eb"/><path d="m60 90v-30c0-2.761 2.239-5 5-5h-45v35c0 2.761 2.239 5 5 5h40c-2.761 0-5-2.239-5-5z" fill="#b1dce0"/></svg>