<svg id="Capa_1" enable-background="new 0 0 512 512" height="512" viewBox="0 0 512 512" width="512" xmlns="http://www.w3.org/2000/svg"><circle cx="256" cy="256" fill="#d587eb" r="256"/><path d="m256 441.56c-114.416 0-207.5-93.084-207.5-207.5v-112.06c0-4.142 3.358-7.5 7.5-7.5s7.5 3.358 7.5 7.5v112.06c0 106.145 86.355 192.5 192.5 192.5s192.5-86.355 192.5-192.5v-112.06c0-4.142 3.357-7.5 7.5-7.5s7.5 3.358 7.5 7.5v112.06c0 114.416-93.084 207.5-207.5 207.5z" fill="#daf0f6"/><path d="m479.657 122.672c-16.521-59.404-70.617-100.508-132.276-100.508-19.536 0-37.71 10.012-48.148 26.526-9.373 14.827-25.691 23.817-43.233 23.817-17.542 0-33.86-8.99-43.232-23.817-10.439-16.514-28.612-26.526-48.148-26.526-61.659 0-115.755 41.104-132.276 100.508-12.487 44.896 21.274 89.328 67.874 89.328h82.359c24.105 0 44.343-18.148 46.962-42.109 1.475-13.501 12.879-23.727 26.461-23.727 13.582 0 24.985 10.225 26.461 23.727 2.619 23.961 22.858 42.109 46.962 42.109h82.359c46.6 0 80.361-44.432 67.875-89.328z" fill="#484e55"/><path d="m219.172 109.335c0-20.34 16.489-36.828 36.828-36.828-17.542 0-33.86-8.99-43.232-23.817-10.439-16.514-28.612-26.526-48.148-26.526-61.659 0-115.755 41.104-132.276 100.508-12.487 44.896 21.274 89.328 67.874 89.328h82.359c24.104 0 44.343-18.148 46.962-42.109 1.476-13.501 12.879-23.727 26.461-23.727-20.34 0-36.828-16.489-36.828-36.829z" fill="#343b41"/><path d="m119.977 121.637c8.943-10.763 22.424-17.618 37.511-17.618s28.568 6.856 37.511 17.618c2.609 3.14 2.609 7.749 0 10.889-8.943 10.763-22.424 17.618-37.511 17.618s-28.568-6.856-37.511-17.618c-2.61-3.14-2.61-7.748 0-10.889z" fill="#d587eb"/><path d="m317 121.637c8.943-10.763 22.424-17.618 37.511-17.618s28.568 6.856 37.511 17.618c2.609 3.14 2.609 7.749 0 10.889-8.943 10.763-22.424 17.618-37.511 17.618s-28.568-6.856-37.511-17.618c-2.609-3.14-2.609-7.748 0-10.889z" fill="#d587eb"/><path d="m292 496.5c-4.143 0-7.5-3.358-7.5-7.5v-18.94c0-15.715-12.785-28.5-28.5-28.5s-28.5 12.785-28.5 28.5v18.94c0 4.142-3.358 7.5-7.5 7.5s-7.5-3.358-7.5-7.5v-18.94c0-23.986 19.514-43.5 43.5-43.5s43.5 19.514 43.5 43.5v18.94c0 4.142-3.357 7.5-7.5 7.5z" fill="#daf0f6"/></svg>