<svg id="Capa_1" enable-background="new 0 0 512 512" height="512" viewBox="0 0 512 512" width="512" xmlns="http://www.w3.org/2000/svg"><path d="m88.105 449.253h335.789c53.978-46.935 88.106-116.107 88.106-193.253 0-141.385-114.615-256-256-256s-256 114.615-256 256c0 77.146 34.128 146.318 88.105 193.253z" fill="#40718c"/><path d="m241 223.512h-83.512v-181.756c0-23.061 18.695-41.756 41.756-41.756 23.061 0 41.756 18.695 41.756 41.756z" fill="#bee5eb"/><path d="m211.744 1.905c-3.947-1.236-8.145-1.905-12.5-1.905-23.061 0-41.756 18.695-41.756 41.756v181.756h25v-181.756c0-18.706 12.302-34.538 29.256-39.851z" fill="#b1dce0"/><path d="m182.488 198.512v-156.756c0-9.239 7.517-16.756 16.756-16.756s16.756 7.517 16.756 16.756v156.756z" fill="#fa9c8e"/><path d="m354.512 223.512h-83.512v-181.756c0-23.061 18.695-41.756 41.756-41.756 23.061 0 41.756 18.695 41.756 41.756z" fill="#bee5eb"/><path d="m325.256 1.905c-3.947-1.236-8.145-1.905-12.5-1.905-23.061 0-41.756 18.695-41.756 41.756v181.756h25v-181.756c0-18.706 12.302-34.538 29.256-39.851z" fill="#b1dce0"/><path d="m296 198.512v-156.756c0-9.239 7.517-16.756 16.756-16.756s16.756 7.517 16.756 16.756v156.756z" fill="#fa9c8e"/><circle cx="256" cy="223.512" fill="#daf0f6" r="108.512"/><path d="m197.488 223.512c0-51.325 35.635-94.322 83.512-105.613-8.027-1.893-16.395-2.899-25-2.899-59.929 0-108.512 48.582-108.512 108.512s48.583 108.512 108.512 108.512c8.605 0 16.973-1.006 25-2.899-47.877-11.291-83.512-54.288-83.512-105.613z" fill="#bee5eb"/><g fill="#343b41"><path d="m193.551 185.337c-4.142 0-7.5-3.357-7.5-7.5v-12c0-4.143 3.358-7.5 7.5-7.5s7.5 3.357 7.5 7.5v12c0 4.142-3.358 7.5-7.5 7.5z"/><path d="m318.448 185.337c-4.143 0-7.5-3.357-7.5-7.5v-12c0-4.143 3.357-7.5 7.5-7.5s7.5 3.357 7.5 7.5v12c0 4.142-3.357 7.5-7.5 7.5z"/><path d="m241.727 206.947c-12.106 0-21.956-9.849-21.956-21.955 0-4.143 3.358-7.5 7.5-7.5s7.5 3.357 7.5 7.5c0 3.835 3.12 6.955 6.956 6.955s6.956-3.12 6.956-6.955c0-4.143 3.358-7.5 7.5-7.5s7.5 3.357 7.5 7.5c-.001 12.107-9.85 21.955-21.956 21.955z"/><path d="m270.638 206.947c-12.106 0-21.956-9.849-21.956-21.955 0-4.143 3.358-7.5 7.5-7.5s7.5 3.357 7.5 7.5c0 3.835 3.12 6.955 6.955 6.955s6.955-3.12 6.955-6.955c0-4.143 3.357-7.5 7.5-7.5s7.5 3.357 7.5 7.5c.001 12.107-9.848 21.955-21.954 21.955z"/></g><path d="m88.105 449.253c44.947 39.082 103.656 62.747 167.895 62.747s122.948-23.665 167.895-62.747l-9.382-193.253h-317.026z" fill="#484e55"/><path d="m88.105 449.253c11.959 10.399 24.899 19.696 38.653 27.756l10.729-221.009h-40z" fill="#343b41"/><path d="m433.52 258.469h-355.04v90c0 5.523 4.477 10 10 10h335.04c5.523 0 10-4.477 10-10z" fill="#fa9c8e"/><path d="m128.48 358.469h-40c-5.523 0-10-4.477-10-10v-90h40v90c0 5.523 4.478 10 10 10z" fill="#fa877a"/><path d="m492 236h-472c-11.046 0-20 8.954-20 20 0 11.046 8.954 20 20 20h472c11.046 0 20-8.954 20-20 0-11.046-8.954-20-20-20z" fill="#484e55"/><path d="m40 256c0 11.046 8.954 20 20 20h-40c-11.046 0-20-8.954-20-20s8.954-20 20-20h40c-11.046 0-20 8.954-20 20z" fill="#343b41"/><path d="m167.488 256h-40c-11.046 0-20-8.954-20-20 0-11.046 8.954-20 20-20h40c11.046 0 20 8.954 20 20 0 11.046-8.954 20-20 20z" fill="#fff"/><path d="m137.488 236c0-11.046 8.954-20 20-20h-30c-11.046 0-20 8.954-20 20s8.954 20 20 20h30c-11.046 0-20-8.954-20-20z" fill="#daf0f6"/><path d="m384.512 256h-40c-11.046 0-20-8.954-20-20 0-11.046 8.954-20 20-20h40c11.046 0 20 8.954 20 20 0 11.046-8.954 20-20 20z" fill="#fff"/><path d="m354.512 236c0-11.046 8.954-20 20-20h-30c-11.046 0-20 8.954-20 20s8.954 20 20 20h30c-11.046 0-20-8.954-20-20z" fill="#daf0f6"/><path d="m113.23 172.768h-34.75c-4.142 0-7.5-3.357-7.5-7.5s3.358-7.5 7.5-7.5h34.75c4.142 0 7.5 3.357 7.5 7.5s-3.357 7.5-7.5 7.5z" fill="#ffe473"/><path d="m95.855 190.143c-4.142 0-7.5-3.357-7.5-7.5v-34.75c0-4.143 3.358-7.5 7.5-7.5s7.5 3.357 7.5 7.5v34.75c0 4.142-3.357 7.5-7.5 7.5z" fill="#ffe473"/><path d="m437.243 51.174c5.127 17.011 18.437 30.321 35.449 35.449 8.271 2.493 8.271 14.204 0 16.697-17.011 5.127-30.321 18.437-35.449 35.449-2.493 8.271-14.204 8.271-16.697 0-5.127-17.011-18.437-30.321-35.449-35.449-8.271-2.493-8.271-14.204 0-16.697 17.011-5.127 30.321-18.437 35.449-35.449 2.493-8.271 14.204-8.271 16.697 0z" fill="#ffe473"/><path d="m428.895 94.971c0-12.82 4.83-24.508 12.762-33.357-1.821-3.278-3.309-6.772-4.414-10.44-2.493-8.271-14.204-8.271-16.697 0-5.127 17.011-18.437 30.321-35.449 35.449-8.271 2.493-8.271 14.204 0 16.697 17.011 5.127 30.321 18.437 35.449 35.449 2.493 8.271 14.204 8.271 16.697 0 1.105-3.667 2.593-7.161 4.414-10.44-7.932-8.85-12.762-20.538-12.762-33.358z" fill="#ffcd61"/></svg>