<svg id="Capa_1" enable-background="new 0 0 512 512" height="512" viewBox="0 0 512 512" width="512" xmlns="http://www.w3.org/2000/svg"><path d="m512 256c0 26.097-3.905 51.282-11.162 75.002-4.244 13.87-23.634 27.24-30.06 39.999-7.119 14.135-1.51 27.52-11.022 40.004-46.766 61.38-120.634 100.995-203.756 100.995-141.385 0-256-114.615-256-256s114.615-256 256-256 256 114.615 256 256z" fill="#804096"/><path d="m472 181h-75c20.71 0 39.46 8.4 53.03 21.97s21.97 32.32 21.97 53.03c0 41.42-33.58 75-75 75h103.83c-8.94 29.24-22.98 56.25-41.08 80h-145.81c5.52 0 10.52 2.24 14.14 5.86s5.86 8.62 5.86 14.14c0 11.05-8.95 20-20 20h-156.45c-5.53 0-10.53-2.24-14.14-5.86-3.62-3.62-5.86-8.62-5.86-14.14 0-11.05 8.95-20 20-20h77.31c-11.04 0-21.04-4.48-28.28-11.72s-11.72-17.24-11.72-28.28c0-22.09 17.91-40 40-40h-129.8c-20.71 0-39.46-8.4-53.03-21.97s-21.97-32.32-21.97-53.03c0-41.42 33.58-75 75-75h87.84c-11.04 0-21.04-4.48-28.28-11.72s-11.72-17.24-11.72-28.28c0-22.09 17.91-40 40-40h-172.84c-11.05 0-20-8.95-20-20s8.95-20 20-20h330.08c11.05 0 20 8.95 20 20s-8.95 20-20 20h121.92c11.04 0 21.04 4.48 28.28 11.72s11.72 17.24 11.72 28.28c0 12.28-5.53 23.27-14.25 30.6-6.96 5.87-15.94 9.4-25.75 9.4z" fill="#d587eb"/><g fill="#c174dc"><path d="m214.56 169.28c-7.24-7.24-11.72-17.24-11.72-28.28 0-22.09 17.91-40 40-40h-50c-22.09 0-40 17.91-40 40 0 11.04 4.48 21.04 11.72 28.28s17.24 11.72 28.28 11.72h50c-11.04 0-21.04-4.48-28.28-11.72z"/><path d="m50 81c0-11.05 8.95-20 20-20h-50c-11.05 0-20 8.95-20 20s8.95 20 20 20h50c-11.05 0-20-8.95-20-20z"/><path d="m284.8 331h-50c-22.09 0-40 17.91-40 40 0 11.04 4.48 21.04 11.72 28.28s17.24 11.72 28.28 11.72h50c-11.04 0-21.04-4.48-28.28-11.72s-11.72-17.24-11.72-28.28c0-22.09 17.91-40 40-40z"/><path d="m187.49 431c0-11.05 8.95-20 20-20h-50c-11.05 0-20 8.95-20 20 0 5.52 2.24 10.52 5.86 14.14 3.61 3.62 8.61 5.86 14.14 5.86h50c-5.53 0-10.53-2.24-14.14-5.86-3.62-3.62-5.86-8.62-5.86-14.14z"/><path d="m101.97 309.03c-13.57-13.57-21.97-32.32-21.97-53.03 0-41.42 33.58-75 75-75h-50c-41.42 0-75 33.58-75 75 0 20.71 8.4 39.46 21.97 53.03s32.32 21.97 53.03 21.97h50c-20.71 0-39.46-8.4-53.03-21.97z"/></g><circle cx="172.49" cy="236.27" fill="#e6a0fa" r="20"/><circle cx="345.726" cy="371" fill="#e6a0fa" r="20"/><circle cx="239.8" cy="275.5" fill="#c174dc" r="10"/><circle cx="293.027" cy="141" fill="#c174dc" r="10"/><path d="m345.726 241.145h-34.75c-4.143 0-7.5-3.357-7.5-7.5s3.357-7.5 7.5-7.5h34.75c4.143 0 7.5 3.357 7.5 7.5s-3.358 7.5-7.5 7.5z" fill="#ffe473"/><path d="m328.351 258.52c-4.143 0-7.5-3.357-7.5-7.5v-34.75c0-4.143 3.357-7.5 7.5-7.5s7.5 3.357 7.5 7.5v34.75c0 4.142-3.358 7.5-7.5 7.5z" fill="#ffe473"/><path d="m120.855 395.875h-34.75c-4.142 0-7.5-3.357-7.5-7.5s3.358-7.5 7.5-7.5h34.75c4.142 0 7.5 3.357 7.5 7.5s-3.357 7.5-7.5 7.5z" fill="#ffe473"/><path d="m103.48 413.25c-4.142 0-7.5-3.357-7.5-7.5v-34.75c0-4.143 3.358-7.5 7.5-7.5s7.5 3.357 7.5 7.5v34.75c0 4.143-3.357 7.5-7.5 7.5z" fill="#ffe473"/><path d="m455.005 30.12c5.127 17.011 18.437 30.321 35.449 35.449 8.271 2.493 8.271 14.204 0 16.697-17.011 5.127-30.321 18.437-35.449 35.449-2.493 8.271-14.204 8.271-16.697 0-5.127-17.011-18.437-30.321-35.449-35.449-8.271-2.493-8.271-14.204 0-16.697 17.011-5.127 30.321-18.437 35.449-35.449 2.494-8.271 14.205-8.271 16.697 0z" fill="#ffe473"/><path d="m446.657 73.917c0-12.82 4.83-24.508 12.762-33.357-1.821-3.278-3.309-6.772-4.414-10.44-2.493-8.271-14.204-8.271-16.697 0-5.127 17.011-18.437 30.321-35.449 35.449-8.271 2.493-8.271 14.204 0 16.697 17.011 5.127 30.321 18.437 35.449 35.449 2.493 8.271 14.204 8.271 16.697 0 1.105-3.667 2.593-7.161 4.414-10.44-7.932-8.851-12.762-20.539-12.762-33.358z" fill="#ffcd61"/></svg>