<svg id="Capa_1" enable-background="new 0 0 512 512" height="512" viewBox="0 0 512 512" width="512" xmlns="http://www.w3.org/2000/svg"><path d="m88.105 449.253h335.79c53.977-46.935 88.105-116.107 88.105-193.253 0-141.385-114.615-256-256-256s-256 114.615-256 256c0 77.146 34.128 146.318 88.105 193.253z" fill="#40718c"/><path d="m423.039 134.353c4.323 14.342 15.545 25.564 29.887 29.887 6.973 2.102 6.973 11.975 0 14.077-14.342 4.323-25.564 15.545-29.887 29.887-2.102 6.973-11.975 6.973-14.077 0-4.323-14.342-15.545-25.564-29.887-29.887-6.973-2.102-6.973-11.975 0-14.077 14.342-4.323 25.564-15.545 29.887-29.887 2.101-6.973 11.975-6.973 14.077 0z" fill="#ffe473"/><path d="m416 171.279c0-10.808 4.072-20.663 10.76-28.124-1.535-2.764-2.79-5.71-3.721-8.802-2.102-6.973-11.975-6.973-14.077 0-4.323 14.342-15.545 25.564-29.887 29.887-6.973 2.102-6.973 11.975 0 14.077 14.342 4.323 25.564 15.545 29.887 29.887 2.102 6.973 11.975 6.973 14.077 0 .932-3.092 2.186-6.038 3.721-8.802-6.688-7.46-10.76-17.315-10.76-28.123z" fill="#ffcd61"/><path d="m272.439 23.75h157.391c7.274 0 13.171 5.897 13.171 13.171 0 7.274-5.897 13.171-13.171 13.171-7.274 0-13.171 5.897-13.171 13.171 0 7.274-5.897 13.171-13.171 13.171-7.274 0-13.171 5.897-13.171 13.171 0 7.274-5.897 13.171-13.171 13.171-7.274 0-13.171 5.897-13.171 13.171 0 7.274-5.897 13.171-13.171 13.171-7.274 0-13.171 5.897-13.171 13.171 0 7.274-5.897 13.171-13.171 13.171h-52.025c-36.37 0-65.854-29.484-65.854-65.854.002-36.372 29.486-65.856 65.856-65.856z" fill="#bee5eb"/><path d="m329.035 26.349c0-14.405-11.572-26.222-25.977-26.347-14.985-.13-28.931 7.592-36.777 20.338l-28.897 46.943c-1.671 2.715-5.125 3.696-7.988 2.295-8.713-4.262-18.505-6.657-28.858-6.657h-157.187c-7.265 0-13.154 5.889-13.154 13.154 0 7.265 5.889 13.154 13.154 13.154s13.154 5.889 13.154 13.154c0 7.265 5.889 13.154 13.154 13.154s13.154 5.889 13.154 13.154c0 7.265 5.889 13.154 13.154 13.154s13.154 5.889 13.154 13.154c0 7.265 5.889 13.154 13.154 13.154s13.154 5.889 13.154 13.154c0 7.265 5.889 13.154 13.154 13.154h10.516l-75.34 122.387c-2.697 4.382.455 10.025 5.601 10.025h86.392c3.632 0 6.577-2.945 6.577-6.577v-25.073c0-26.541 21.516-48.057 48.057-48.057 54.484 0 98.653-44.168 98.653-98.653z" fill="#daf0f6"/><path d="m183.532 194.458h-24.436l-75.34 122.387c-2.697 4.382.455 10.024 5.601 10.024h31.31l71.405-117.209c4.059-6.664-.737-15.202-8.54-15.202z" fill="#bee5eb"/><path d="m88.105 449.253c44.947 39.082 103.656 62.747 167.895 62.747s122.948-23.665 167.895-62.747l-9.382-193.253h-317.026z" fill="#484e55"/><path d="m88.105 449.253c11.959 10.399 24.899 19.696 38.653 27.756l10.729-221.009h-40z" fill="#343b41"/><path d="m433.52 258.469h-355.04v90c0 5.523 4.477 10 10 10h335.04c5.523 0 10-4.477 10-10z" fill="#fa9c8e"/><path d="m128.48 358.469h-40c-5.523 0-10-4.477-10-10v-90h40v90c0 5.523 4.478 10 10 10z" fill="#fa877a"/><path d="m492 236h-472c-11.046 0-20 8.954-20 20 0 11.046 8.954 20 20 20h472c11.046 0 20-8.954 20-20 0-11.046-8.954-20-20-20z" fill="#484e55"/><path d="m40 256c0 11.046 8.954 20 20 20h-40c-11.046 0-20-8.954-20-20s8.954-20 20-20h40c-11.046 0-20 8.954-20 20z" fill="#343b41"/><path d="m341.696 51.354c2.137-.823 2.799-3.525 1.284-5.243l-13.945-15.815h-3.798c-5.064 0-9.17 4.106-9.17 9.17 0 2.432.966 4.764 2.686 6.484l.689.689c5.833 5.833 14.556 7.681 22.254 4.715z" fill="#ff823b"/><g fill="#ffe473"><path d="m89.105 197.67h-34.75c-4.143 0-7.5-3.357-7.5-7.5s3.357-7.5 7.5-7.5h34.75c4.143 0 7.5 3.357 7.5 7.5s-3.357 7.5-7.5 7.5z"/><path d="m71.73 215.045c-4.143 0-7.5-3.357-7.5-7.5v-34.75c0-4.143 3.357-7.5 7.5-7.5s7.5 3.357 7.5 7.5v34.75c0 4.143-3.357 7.5-7.5 7.5z"/></g></svg>