<svg xmlns="http://www.w3.org/2000/svg" xmlns:xlink="http://www.w3.org/1999/xlink" width="21" height="15" version="1.1" viewBox="0 0 21 15"><title>AG</title><desc>Created with sketchtool.</desc><defs><linearGradient id="linearGradient-1" x1="50%" x2="50%" y1="0%" y2="100%"><stop offset="0%" stop-color="#FFF"/><stop offset="100%" stop-color="#F0F0F0"/></linearGradient><linearGradient id="linearGradient-2" x1="50%" x2="50%" y1="0%" y2="100%"><stop offset="0%" stop-color="#E2243B"/><stop offset="100%" stop-color="#CC162C"/></linearGradient><linearGradient id="linearGradient-3" x1="50%" x2="50%" y1="0%" y2="100%"><stop offset="0%" stop-color="#262626"/><stop offset="100%" stop-color="#0D0D0D"/></linearGradient><polygon id="path-4" points="0 0 21 0 10.5 15"/><linearGradient id="linearGradient-6" x1="50%" x2="50%" y1="0%" y2="100%"><stop offset="0%" stop-color="#FFCF3C"/><stop offset="100%" stop-color="#FECB2F"/></linearGradient><linearGradient id="linearGradient-7" x1="50%" x2="50%" y1="0%" y2="100%"><stop offset="0%" stop-color="#1984D8"/><stop offset="100%" stop-color="#1175C4"/></linearGradient></defs><g id="Symbols" fill="none" fill-rule="evenodd" stroke="none" stroke-width="1"><g id="AG"><rect id="FlagBackground" width="21" height="15" x="0" y="0" fill="url(#linearGradient-1)"/><path id="Oval-5" d="M8.5,7 C8.5,7.73933629 8.90117129,8.38497401 9.49770903,8.73110833 M11.576137,8.68609748 C12.1317007,8.33077576 12.5,7.70839833 12.5,7" opacity=".75"/><ellipse id="Oval-5" cx="10.5" cy="6.5" fill="#FFF" fill-opacity=".5" rx="1" ry="1.5"/><rect id="Mask-Copy" width="21" height="15" x="0" y="0" fill="url(#linearGradient-2)"/><mask id="mask-5" fill="#fff"><use xlink:href="#path-4"/></mask><use id="Mask" fill="url(#linearGradient-3)" xlink:href="#path-4"/><polygon id="Star-1" fill="url(#linearGradient-6)" points="10.5 8.25 8.778 10.157 8.909 7.591 6.343 7.722 8.25 6 6 4 8.909 4.5 8.5 1.5 10.5 4 12.5 1.5 12.091 4.5 15 4 12.75 6 14.657 7.722 12.091 7.591 12.222 10.157" mask="url(#mask-5)"/><rect id="Rectangle-2" width="21" height="4" x="0" y="6" fill="url(#linearGradient-7)" mask="url(#mask-5)"/><rect id="Rectangle-2" width="21" height="5" x="0" y="10" fill="url(#linearGradient-1)" mask="url(#mask-5)"/></g></g></svg>