<svg xmlns="http://www.w3.org/2000/svg" xmlns:xlink="http://www.w3.org/1999/xlink" width="21" height="15" version="1.1" viewBox="0 0 21 15"><title>AU</title><desc>Created with sketchtool.</desc><defs><linearGradient id="linearGradient-1" x1="50%" x2="50%" y1="0%" y2="100%"><stop offset="0%" stop-color="#FFF"/><stop offset="100%" stop-color="#F0F0F0"/></linearGradient><linearGradient id="linearGradient-2" x1="50%" x2="50%" y1="0%" y2="100%"><stop offset="0%" stop-color="#0A17A7"/><stop offset="100%" stop-color="#030E88"/></linearGradient><linearGradient id="linearGradient-3" x1="50%" x2="50%" y1="0%" y2="100%"><stop offset="0%" stop-color="#DB1E36"/><stop offset="100%" stop-color="#D51931"/></linearGradient></defs><g id="Symbols" fill="none" fill-rule="evenodd" stroke="none" stroke-width="1"><g id="AU"><rect id="FlagBackground" width="21" height="15" x="0" y="0" fill="url(#linearGradient-1)"/><rect id="Mask-Copy" width="21" height="15" x="0" y="0" fill="url(#linearGradient-2)"/><path id="Rectangle-36" fill="url(#linearGradient-1)" fill-rule="nonzero" d="M3,3.22996746 L-1.3516287,-0.5 L0.660232527,-0.5 L4.16023253,2 L4.85660189,2 L9.5,-0.902123821 L9.5,0.25 C9.5,0.552509227 9.33308555,0.876533554 9.08215972,1.05576629 L6,3.25730895 L6,3.77003254 L9.13722049,6.45907867 C9.59934261,6.85518335 9.34102897,7.5 8.75,7.5 C8.50478614,7.5 8.2052751,7.40393402 8.00092153,7.25796718 L4.83976747,5 L4.14339811,5 L-0.5,7.90212382 L-0.5,6.24269105 L3,3.74269105 L3,3.22996746 Z"/><path id="Rectangle-36" fill="url(#linearGradient-3)" d="M3.5,3 L-4.4408921e-16,-2.13162821e-14 L0.5,-2.13162821e-14 L4,2.5 L5,2.5 L9,-2.13162821e-14 L9,0.25 C9,0.388071187 8.91348267,0.561798096 8.79154062,0.648899555 L5.5,3 L5.5,4 L8.8118248,6.83870697 C8.91575109,6.92778665 8.8840332,7 8.75,7 L8.75,7 C8.61192881,7 8.41348267,6.9382019 8.29154062,6.85110044 L5,4.5 L4,4.5 L-4.4408921e-16,7 L-4.4408921e-16,6.5 L3.5,4 L3.5,3 Z"/><path id="Rectangle-2" fill="url(#linearGradient-1)" d="M-4.4408921e-16,2.5 L-4.4408921e-16,4.5 L3.5,4.5 L3.5,7.00461102 C3.5,7.2782068 3.71403503,7.5 4.00468445,7.5 L4.99531555,7.5 C5.27404508,7.5 5.5,7.2842474 5.5,7.00461102 L5.5,4.5 L9.00952148,4.5 C9.28040529,4.5 9.5,4.28596497 9.5,3.99531555 L9.5,3.00468445 C9.5,2.72595492 9.28494263,2.5 9.00952148,2.5 L5.5,2.5 L5.5,-2.13162821e-14 L3.5,-2.13162821e-14 L3.5,2.5 L-4.4408921e-16,2.5 Z"/><polygon id="Rectangle-36" fill="url(#linearGradient-3)" points="0 3 4 3 4 2.5 4 0 5 0 5 2.5 5 3 9 3 9 4 5 4 5 4.5 5 7 4 7 4 4.5 4 4 0 4"/><polygon id="Star-2" fill="#FFF" points="4.5 12.25 3.618 12.714 3.787 11.732 3.073 11.036 4.059 10.893 4.5 10 4.941 10.893 5.927 11.036 5.213 11.732 5.382 12.714"/><polygon id="Star-2" fill="#FFF" points="15 13 14.293 13.207 14.5 12.5 14.293 11.793 15 12 15.707 11.793 15.5 12.5 15.707 13.207"/><polygon id="Star-2" fill="#FFF" points="15 3.5 14.293 3.707 14.5 3 14.293 2.293 15 2.5 15.707 2.293 15.5 3 15.707 3.707"/><polygon id="Star-2" fill="#FFF" points="18 6.5 17.293 6.707 17.5 6 17.293 5.293 18 5.5 18.707 5.293 18.5 6 18.707 6.707"/><polygon id="Star-2" fill="#FFF" points="12 7.5 11.293 7.707 11.5 7 11.293 6.293 12 6.5 12.707 6.293 12.5 7 12.707 7.707"/><polygon id="Star-2" fill="#FFF" points="16.5 8.75 16.146 8.854 16.25 8.5 16.146 8.146 16.5 8.25 16.854 8.146 16.75 8.5 16.854 8.854"/></g></g></svg>