<svg xmlns="http://www.w3.org/2000/svg" xmlns:xlink="http://www.w3.org/1999/xlink" width="21" height="15" version="1.1" viewBox="0 0 21 15"><title>AW</title><desc>Created with sketchtool.</desc><defs><linearGradient id="linearGradient-1" x1="50%" x2="50%" y1="0%" y2="100%"><stop offset="0%" stop-color="#FFF"/><stop offset="100%" stop-color="#F0F0F0"/></linearGradient><linearGradient id="linearGradient-2" x1="50%" x2="50%" y1="0%" y2="100%"><stop offset="0%" stop-color="#5098EA"/><stop offset="100%" stop-color="#458BDB"/></linearGradient><linearGradient id="linearGradient-3" x1="50%" x2="50%" y1="0%" y2="100%"><stop offset="0%" stop-color="#E82045"/><stop offset="100%" stop-color="#D01739"/></linearGradient></defs><g id="Symbols" fill="none" fill-rule="evenodd" stroke="none" stroke-width="1"><g id="AW"><rect id="FlagBackground" width="21" height="15" x="0" y="0" fill="url(#linearGradient-1)"/><rect id="Mask-Copy" width="21" height="15" x="0" y="0" fill="url(#linearGradient-2)"/><path id="Star" fill="url(#linearGradient-1)" fill-rule="nonzero" d="M1.80304035,4.95957252 C1.39898655,4.7864066 1.39898655,4.2135934 1.80304035,4.04042748 L3.36921134,3.36921134 L4.04042748,1.80304035 C4.2135934,1.39898655 4.7864066,1.39898655 4.95957252,1.80304035 L5.63078866,3.36921134 L7.19695965,4.04042748 C7.60101345,4.2135934 7.60101345,4.7864066 7.19695965,4.95957252 L5.63078866,5.63078866 L4.95957252,7.19695965 C4.7864066,7.60101345 4.2135934,7.60101345 4.04042748,7.19695965 L3.36921134,5.63078866 L1.80304035,4.95957252 Z"/><polygon id="Star" fill="url(#linearGradient-3)" points="3.75 5.25 2 4.5 3.75 3.75 4.5 2 5.25 3.75 7 4.5 5.25 5.25 4.5 7"/><rect id="Rectangle-1337" width="21" height="1" x="0" y="11" fill="#F9D536"/><rect id="Rectangle-1337-Copy" width="21" height="1" x="0" y="9" fill="#F9D536"/></g></g></svg>