<svg xmlns="http://www.w3.org/2000/svg" xmlns:xlink="http://www.w3.org/1999/xlink" width="21" height="15" version="1.1" viewBox="0 0 21 15"><title>CD</title><desc>Created with sketchtool.</desc><defs><linearGradient id="linearGradient-1" x1="50%" x2="50%" y1="0%" y2="100%"><stop offset="0%" stop-color="#FFF"/><stop offset="100%" stop-color="#F0F0F0"/></linearGradient><linearGradient id="linearGradient-2" x1="50%" x2="50%" y1="0%" y2="100%"><stop offset="0%" stop-color="#158AFF"/><stop offset="100%" stop-color="#007FFF"/></linearGradient><linearGradient id="linearGradient-3" x1="50%" x2="50%" y1="0%" y2="100%"><stop offset="0%" stop-color="#CE1120"/><stop offset="100%" stop-color="#E11B2B"/></linearGradient></defs><g id="Symbols" fill="none" fill-rule="evenodd" stroke="none" stroke-width="1"><g id="CD"><rect id="FlagBackground" width="21" height="15" x="0" y="0" fill="url(#linearGradient-1)"/><g id="Group-2" transform="translate(-4.290000, -1.440000)"><rect id="Mask-Copy" width="21" height="15" x="4.294" y="1.443" fill="url(#linearGradient-2)"/><polygon id="Rectangle-69-Copy" fill="#FDD216" points="-.218 6.256 28.782 6.256 28.782 12.256 -.218 12.256" transform="translate(14.281566, 9.255882) rotate(153.000000) translate(-14.281566, -9.255882)"/><rect id="Rectangle-69" width="29" height="4" x=".057" y="7.074" fill="url(#linearGradient-3)" transform="translate(14.557467, 9.073824) rotate(153.000000) translate(-14.557467, -9.073824)"/><polygon id="Star-8" fill="#FDD216" points="7.794 5.918 6.324 6.965 6.866 5.244 5.416 4.17 7.221 4.154 7.794 2.443 8.367 4.154 10.171 4.17 8.721 5.244 9.263 6.965"/></g></g></g></svg>