<svg xmlns="http://www.w3.org/2000/svg" xmlns:xlink="http://www.w3.org/1999/xlink" width="21" height="15" version="1.1" viewBox="0 0 21 15"><title>CF</title><desc>Created with sketchtool.</desc><defs><linearGradient id="linearGradient-1" x1="50%" x2="50%" y1="0%" y2="100%"><stop offset="0%" stop-color="#FFF"/><stop offset="100%" stop-color="#F0F0F0"/></linearGradient><linearGradient id="linearGradient-2" x1="50%" x2="50%" y1="0%" y2="100%"><stop offset="0%" stop-color="#083D96"/><stop offset="100%" stop-color="#053380"/></linearGradient><linearGradient id="linearGradient-3" x1="50%" x2="50%" y1="0%" y2="100%"><stop offset="0%" stop-color="#37AE39"/><stop offset="100%" stop-color="#2E9630"/></linearGradient><linearGradient id="linearGradient-4" x1="50%" x2="50%" y1="0%" y2="100%"><stop offset="0%" stop-color="#FFD13F"/><stop offset="100%" stop-color="#FFCD2F"/></linearGradient><linearGradient id="linearGradient-5" x1="50%" x2="50%" y1="0%" y2="100%"><stop offset="0%" stop-color="#E42346"/><stop offset="100%" stop-color="#D01739"/></linearGradient><linearGradient id="linearGradient-6" x1="50%" x2="50%" y1="0%" y2="100%"><stop offset="0%" stop-color="#FFD03B"/><stop offset="100%" stop-color="#FFCD2F"/></linearGradient></defs><g id="Symbols" fill="none" fill-rule="evenodd" stroke="none" stroke-width="1"><g id="CF"><rect id="FlagBackground" width="21" height="15" x="0" y="0" fill="url(#linearGradient-1)"/><rect id="Rectangle-2" width="21" height="4" x="0" y="0" fill="url(#linearGradient-2)"/><rect id="Rectangle-2" width="21" height="4" x="0" y="7" fill="url(#linearGradient-3)"/><rect id="Rectangle-2" width="21" height="4" x="0" y="11" fill="url(#linearGradient-4)"/><rect id="Rectangle-2" width="21" height="3" x="0" y="4" fill="url(#linearGradient-1)"/><rect id="Rectangle-2" width="5" height="15" x="8" y="0" fill="url(#linearGradient-5)"/><polygon id="Star-8" fill="url(#linearGradient-6)" points="3.5 2.585 2.618 3.214 2.944 2.181 2.073 1.536 3.156 1.527 3.5 .5 3.844 1.527 4.927 1.536 4.056 2.181 4.382 3.214"/></g></g></svg>