<svg xmlns="http://www.w3.org/2000/svg" xmlns:xlink="http://www.w3.org/1999/xlink" width="21" height="15" version="1.1" viewBox="0 0 21 15"><title>CG</title><desc>Created with sketchtool.</desc><defs><linearGradient id="linearGradient-1" x1="50%" x2="50%" y1="0%" y2="100%"><stop offset="0%" stop-color="#FFF"/><stop offset="100%" stop-color="#F0F0F0"/></linearGradient><linearGradient id="linearGradient-2" x1="50%" x2="50%" y1="0%" y2="100%"><stop offset="0%" stop-color="#F33630"/><stop offset="100%" stop-color="#DC241E"/></linearGradient><linearGradient id="linearGradient-3" x1="50%" x2="50%" y1="0%" y2="100%"><stop offset="0%" stop-color="#009643"/><stop offset="100%" stop-color="#09C15B"/></linearGradient><linearGradient id="linearGradient-4" x1="50%" x2="50%" y1="0%" y2="100%"><stop offset="0%" stop-color="#FCDF4A"/><stop offset="100%" stop-color="#FCE154"/></linearGradient></defs><g id="Symbols" fill="none" fill-rule="evenodd" stroke="none" stroke-width="1"><g id="CG"><rect id="FlagBackground" width="21" height="15" x="0" y="0" fill="url(#linearGradient-1)"/><g id="Group-2" transform="translate(-1.060000, -5.020000)"><polygon id="Rectangle-74" fill="url(#linearGradient-2)" points="6.062 19.017 21.062 5.017 22.062 5.017 22.062 20.017 6.062 20.017"/><polygon id="Rectangle-74-Copy" fill="url(#linearGradient-3)" points="1.062 19.017 16.062 5.017 17.062 5.017 17.062 20.017 1.062 20.017" transform="translate(9.061524, 12.517348) scale(-1, -1) translate(-9.061524, -12.517348)"/><polygon id="Rectangle-69-Copy" fill="url(#linearGradient-4)" points="-2.629 9.667 26.371 9.667 26.371 14.667 -2.629 14.667" transform="translate(11.870896, 12.167073) rotate(134.000000) translate(-11.870896, -12.167073)"/></g></g></g></svg>