<svg xmlns="http://www.w3.org/2000/svg" xmlns:xlink="http://www.w3.org/1999/xlink" width="21" height="15" version="1.1" viewBox="0 0 21 15"><title>CM</title><desc>Created with sketchtool.</desc><defs><linearGradient id="linearGradient-1" x1="50%" x2="50%" y1="0%" y2="100%"><stop offset="0%" stop-color="#FFF"/><stop offset="100%" stop-color="#F0F0F0"/></linearGradient><linearGradient id="linearGradient-2" x1="50%" x2="50%" y1="0%" y2="100%"><stop offset="0%" stop-color="#FFDC44"/><stop offset="100%" stop-color="#FDD216"/></linearGradient><linearGradient id="linearGradient-3" x1="50%" x2="50%" y1="0%" y2="100%"><stop offset="0%" stop-color="#059170"/><stop offset="100%" stop-color="#007B5E"/></linearGradient><linearGradient id="linearGradient-4" x1="50%" x2="50%" y1="0%" y2="100%"><stop offset="0%" stop-color="#E21A30"/><stop offset="100%" stop-color="#CE1126"/></linearGradient><linearGradient id="linearGradient-5" x1="50%" x2="50%" y1="0%" y2="100%"><stop offset="0%" stop-color="#FFDC42"/><stop offset="100%" stop-color="#FDD217"/></linearGradient></defs><g id="Symbols" fill="none" fill-rule="evenodd" stroke="none" stroke-width="1"><g id="CM"><rect id="FlagBackground" width="21" height="15" x="0" y="0" fill="url(#linearGradient-1)"/><rect id="Mask" width="11" height="15" x="10" y="0" fill="url(#linearGradient-2)"/><rect id="Rectangle-2" width="7" height="15" x="0" y="0" fill="url(#linearGradient-3)"/><rect id="Rectangle-2-Copy" width="7" height="15" x="7" y="0" fill="url(#linearGradient-4)"/><rect id="Rectangle-2-Copy-2" width="7" height="15" x="14" y="0" fill="url(#linearGradient-2)"/><polygon id="Star-8" fill="url(#linearGradient-5)" points="10.5 8.475 9.031 9.523 9.573 7.801 8.122 6.727 9.927 6.711 10.5 5 11.073 6.711 12.878 6.727 11.427 7.801 11.969 9.523"/></g></g></svg>