<svg xmlns="http://www.w3.org/2000/svg" xmlns:xlink="http://www.w3.org/1999/xlink" width="21" height="15" version="1.1" viewBox="0 0 21 15"><title>CN</title><desc>Created with sketchtool.</desc><defs><linearGradient id="linearGradient-1" x1="50%" x2="50%" y1="0%" y2="100%"><stop offset="0%" stop-color="#FFF"/><stop offset="100%" stop-color="#F0F0F0"/></linearGradient><linearGradient id="linearGradient-2" x1="50%" x2="50%" y1="0%" y2="100%"><stop offset="0%" stop-color="#F1361D"/><stop offset="100%" stop-color="#DF2910"/></linearGradient><linearGradient id="linearGradient-3" x1="37.059%" x2="62.941%" y1="1.704%" y2="98.296%"><stop offset="0%" stop-color="#FFDC42"/><stop offset="100%" stop-color="#FDD217"/></linearGradient><linearGradient id="linearGradient-4" x1="50%" x2="50%" y1="0%" y2="100%"><stop offset="0%" stop-color="#FFDC42"/><stop offset="100%" stop-color="#FDD217"/></linearGradient></defs><g id="Symbols" fill="none" fill-rule="evenodd" stroke="none" stroke-width="1"><g id="CN"><rect id="FlagBackground" width="21" height="15" x="0" y="0" fill="url(#linearGradient-1)"/><rect id="Mask" width="21" height="15" x="0" y="0" fill="url(#linearGradient-2)"/><path id="Star-2" fill="url(#linearGradient-3)" d="M10.1294095,4.48296291 L9.5,4.8660254 L9.51703709,4.12940952 L9.1339746,3.5 L9.87059048,3.51703709 L10.5,3.1339746 L10.4829629,3.87059048 L10.8660254,4.5 L10.1294095,4.48296291 Z M8.28081443,2.44939702 L7.55448142,2.32556815 L8.05060298,1.78081443 L8.17443185,1.05448142 L8.71918557,1.55060298 L9.44551858,1.67443185 L8.94939702,2.21918557 L8.82556815,2.94551858 L8.28081443,2.44939702 Z M8.64618585,8.97815238 L8.03052844,9.38294759 L8.02184762,8.64618585 L7.61705241,8.03052844 L8.35381415,8.02184762 L8.96947156,7.61705241 L8.97815238,8.35381415 L9.38294759,8.96947156 L8.64618585,8.97815238 Z M9.91317591,6.99240388 L9.18084796,7.07357644 L9.50759612,6.41317591 L9.42642356,5.68084796 L10.0868241,6.00759612 L10.819152,5.92642356 L10.4924039,6.58682409 L10.5735764,7.31915204 L9.91317591,6.99240388 Z"/><polygon id="Star-8" fill="url(#linearGradient-4)" points="5 6.17 3.237 7.427 3.887 5.362 2.147 4.073 4.312 4.053 5 2 5.688 4.053 7.853 4.073 6.113 5.362 6.763 7.427"/></g></g></svg>