<svg xmlns="http://www.w3.org/2000/svg" xmlns:xlink="http://www.w3.org/1999/xlink" width="21" height="15" version="1.1" viewBox="0 0 21 15"><title>DO</title><desc>Created with sketchtool.</desc><defs><linearGradient id="linearGradient-1" x1="50%" x2="50%" y1="0%" y2="100%"><stop offset="0%" stop-color="#FFF"/><stop offset="100%" stop-color="#F0F0F0"/></linearGradient><linearGradient id="linearGradient-2" x1="50%" x2="50%" y1="0%" y2="100%"><stop offset="0%" stop-color="#083D7A"/><stop offset="100%" stop-color="#032F61"/></linearGradient><linearGradient id="linearGradient-3" x1="50%" x2="50%" y1="0%" y2="100%"><stop offset="0%" stop-color="#DF1E35"/><stop offset="100%" stop-color="#CC162C"/></linearGradient></defs><g id="Symbols" fill="none" fill-rule="evenodd" stroke="none" stroke-width="1"><g id="DO"><rect id="FlagBackground" width="21" height="15" x="0" y="0" fill="url(#linearGradient-1)"/><rect id="Rectangle-2" width="9" height="6" x="0" y="0" fill="url(#linearGradient-2)"/><rect id="Rectangle-2" width="9" height="6" x="12" y="9" fill="url(#linearGradient-2)"/><rect id="Rectangle-2" width="9" height="6" x="0" y="9" fill="url(#linearGradient-3)"/><rect id="Rectangle-2" width="9" height="6" x="12" y="0" fill="url(#linearGradient-3)"/><path id="Rectangle-2" fill="url(#linearGradient-1)" d="M9,6 L0,6 L0,9 L9,9 L9,15 L12,15 L12,9 L21,9 L21,6 L12,6 L12,0 L9,0 L9,6 Z"/><path id="Oval-85" fill="#C93127" fill-opacity=".2" d="M10.5,6 C9.67157288,6 9,6.67157288 9,7.5 C9,8.32842712 9.67157288,9 10.5,9 L10.5,9 C11.3284271,9 12,8.32842712 12,7.5" transform="translate(10.500000, 7.500000) rotate(-45.000000) translate(-10.500000, -7.500000)"/><circle id="Oval-85" cx="10.5" cy="7.5" r="1" fill="#042F60"/><path id="Oval-85" fill="#0F6D1A" fill-rule="nonzero" d="M11.5606602,8.56066017 C10.9748737,9.14644661 10.0251263,9.14644661 9.43933983,8.56066017 C8.85355339,7.97487373 8.85355339,7.02512627 9.43933983,6.43933983 L9.79289322,6.79289322 C9.40236893,7.18341751 9.40236893,7.81658249 9.79289322,8.20710678 C10.1834175,8.59763107 10.8165825,8.59763107 11.2071068,8.20710678 C11.5976311,7.81658249 11.5976311,7.18341751 11.2071068,6.79289322 L11.5606602,6.43933983 C12.1464466,7.02512627 12.1464466,7.97487373 11.5606602,8.56066017 Z M11.5606602,8.56066017 C10.9748737,9.14644661 10.0251263,9.14644661 9.43933983,8.56066017 C8.85355339,7.97487373 8.85355339,7.02512627 9.43933983,6.43933983 L9.79289322,6.79289322 C9.40236893,7.18341751 9.40236893,7.81658249 9.79289322,8.20710678 C10.1834175,8.59763107 10.8165825,8.59763107 11.2071068,8.20710678 C11.5976311,7.81658249 11.5976311,7.18341751 11.2071068,6.79289322 L11.5606602,6.43933983 C12.1464466,7.02512627 12.1464466,7.97487373 11.5606602,8.56066017 Z"/></g></g></svg>