<svg xmlns="http://www.w3.org/2000/svg" xmlns:xlink="http://www.w3.org/1999/xlink" width="21" height="15" version="1.1" viewBox="0 0 21 15"><title>DZ</title><desc>Created with sketchtool.</desc><defs><linearGradient id="linearGradient-1" x1="50%" x2="50%" y1="0%" y2="100%"><stop offset="0%" stop-color="#FFF"/><stop offset="100%" stop-color="#F0F0F0"/></linearGradient><linearGradient id="linearGradient-2" x1="50%" x2="50%" y1="0%" y2="100%"><stop offset="0%" stop-color="#048345"/><stop offset="100%" stop-color="#04753E"/></linearGradient><linearGradient id="linearGradient-3" x1="50%" x2="50%" y1="0%" y2="100%"><stop offset="0%" stop-color="#E81B42"/><stop offset="100%" stop-color="#D20F34"/></linearGradient></defs><g id="Symbols" fill="none" fill-rule="evenodd" stroke="none" stroke-width="1"><g id="DZ"><rect id="FlagBackground" width="21" height="15" x="0" y="0" fill="url(#linearGradient-1)"/><rect id="Rectangle-2" width="11" height="15" x="0" y="0" fill="url(#linearGradient-2)"/><rect id="Rectangle-2-Copy-2" width="10" height="15" x="11" y="0" fill="url(#linearGradient-1)"/><polygon id="Star-8" fill="url(#linearGradient-3)" points="13 8.28 11.824 9.118 12.258 7.741 11.098 6.882 12.542 6.869 13 5.5 13.458 6.869 14.902 6.882 13.742 7.741 14.176 9.118"/><path id="Oval-3" fill="url(#linearGradient-3)" d="M13.2600002,4.21400036 C12.4889281,3.46100558 11.4526533,3 10.3131751,3 C7.93107426,3 6,5.01471863 6,7.5 C6,9.98528137 7.93107426,12 10.3131751,12 C11.4526533,12 12.4889281,11.5389944 13.2600002,10.7859996 C12.7281556,11.0391564 12.1265684,11.1818182 11.4894956,11.1818182 C9.32394935,11.1818182 7.5684273,9.53341203 7.5684273,7.5 C7.5684273,5.46658797 9.32394935,3.81818182 11.4894956,3.81818182 C12.1265684,3.81818182 12.7281556,3.96084355 13.2600002,4.21400036 L13.2600002,4.21400036 Z"/></g></g></svg>