<svg xmlns="http://www.w3.org/2000/svg" xmlns:xlink="http://www.w3.org/1999/xlink" width="21" height="15" version="1.1" viewBox="0 0 21 15"><title>ER</title><desc>Created with sketchtool.</desc><defs><linearGradient id="linearGradient-1" x1="50%" x2="50%" y1="0%" y2="100%"><stop offset="0%" stop-color="#FFF"/><stop offset="100%" stop-color="#F0F0F0"/></linearGradient><linearGradient id="linearGradient-2" x1="50%" x2="50%" y1="0%" y2="100%"><stop offset="0%" stop-color="#29C53F"/><stop offset="100%" stop-color="#21AC35"/></linearGradient><linearGradient id="linearGradient-3" x1="50%" x2="50%" y1="0%" y2="100%"><stop offset="0%" stop-color="#579DED"/><stop offset="100%" stop-color="#458BDB"/></linearGradient><linearGradient id="linearGradient-4" x1="50%" x2="50%" y1="0%" y2="100%"><stop offset="0%" stop-color="#F42D56"/><stop offset="100%" stop-color="#E9103D"/></linearGradient></defs><g id="Symbols" fill="none" fill-rule="evenodd" stroke="none" stroke-width="1"><g id="ER"><rect id="FlagBackground" width="21" height="15" x="0" y="0" fill="url(#linearGradient-1)"/><rect id="Rectangle-2" width="21" height="7.5" x="0" y="0" fill="url(#linearGradient-2)"/><rect id="Rectangle-2" width="21" height="8" x="0" y="7.5" fill="url(#linearGradient-3)"/><polygon id="Rectangle-2" fill="url(#linearGradient-4)" points="0 15 21 7.5 0 0"/><path id="Oval-87" fill="#FFC63C" fill-rule="nonzero" d="M6.5,10 C7.88071187,10 9,8.88071187 9,7.5 C9,6.11928813 7.88071187,5 6.5,5 C5.11928813,5 4,6.11928813 4,7.5 C4,8.88071187 5.11928813,10 6.5,10 Z M6.5,11 C4.56700338,11 3,9.43299662 3,7.5 C3,5.56700338 4.56700338,4 6.5,4 C8.43299662,4 10,5.56700338 10,7.5 C10,9.43299662 8.43299662,11 6.5,11 Z"/><circle id="Oval-88" cx="6" cy="6.5" r="1" fill="#FFC63C"/><circle id="Oval-88" cx="7" cy="7" r="1" fill="#FFC63C"/><circle id="Oval-88" cx="6.5" cy="6" r="1" fill="#FFC63C"/><circle id="Oval-88" cx="6" cy="7.5" r="1" fill="#FFC63C"/><circle id="Oval-88" cx="7" cy="8" r="1" fill="#FFC63C"/><circle id="Oval-88" cx="6" cy="8.5" r="1" fill="#FFC63C"/><circle id="Oval-88" cx="7" cy="9" r="1" fill="#FFC63C"/></g></g></svg>