<svg xmlns="http://www.w3.org/2000/svg" xmlns:xlink="http://www.w3.org/1999/xlink" width="21" height="15" version="1.1" viewBox="0 0 21 15"><title>ET</title><desc>Created with sketchtool.</desc><defs><linearGradient id="linearGradient-1" x1="50%" x2="50%" y1="0%" y2="100%"><stop offset="0%" stop-color="#FFF"/><stop offset="100%" stop-color="#F0F0F0"/></linearGradient><linearGradient id="linearGradient-2" x1="50%" x2="50%" y1="0%" y2="100%"><stop offset="0%" stop-color="#20AA46"/><stop offset="100%" stop-color="#168835"/></linearGradient><linearGradient id="linearGradient-3" x1="50%" x2="50%" y1="0%" y2="100%"><stop offset="0%" stop-color="#E92F3B"/><stop offset="100%" stop-color="#D81824"/></linearGradient><linearGradient id="linearGradient-4" x1="50%" x2="50%" y1="0%" y2="100%"><stop offset="0%" stop-color="#FADF50"/><stop offset="100%" stop-color="#FCDC34"/></linearGradient><linearGradient id="linearGradient-5" x1="50%" x2="50%" y1="0%" y2="100%"><stop offset="0%" stop-color="#205CCA"/><stop offset="100%" stop-color="#154BAD"/></linearGradient><linearGradient id="linearGradient-6" x1="50%" x2="50%" y1="0%" y2="100%"><stop offset="0%" stop-color="#FFDB3D"/><stop offset="100%" stop-color="#FDD420"/></linearGradient></defs><g id="Symbols" fill="none" fill-rule="evenodd" stroke="none" stroke-width="1"><g id="ET"><rect id="FlagBackground" width="21" height="15" x="0" y="0" fill="url(#linearGradient-1)"/><rect id="Rectangle-2" width="21" height="5" x="0" y="0" fill="url(#linearGradient-2)"/><rect id="Rectangle-2" width="21" height="5" x="0" y="10" fill="url(#linearGradient-3)"/><rect id="Rectangle-2" width="21" height="5" x="0" y="5" fill="url(#linearGradient-4)"/><circle id="Oval-95" cx="10.5" cy="7.5" r="3.5" fill="url(#linearGradient-5)"/><path id="Star-8" fill="url(#linearGradient-6)" fill-rule="nonzero" d="M10.5,8.47500004 L9.03053687,9.52254249 L9.57271986,7.80129158 L8.12235871,6.72745751 L9.92690936,6.7112084 L10.5,5 L11.0730906,6.7112084 L12.8776413,6.72745751 L11.4272801,7.80129158 L11.9694631,9.52254249 L10.5,8.47500004 Z M10.5,7.86095816 L11.0440151,8.2487725 L10.8432916,7.61154221 L11.3802349,7.21399436 L10.7121659,7.20797871 L10.5,6.57446629 L10.2878341,7.20797871 L9.61976514,7.21399436 L10.1567084,7.61154221 L9.95598494,8.2487725 L10.5,7.86095816 Z"/></g></g></svg>