<svg xmlns="http://www.w3.org/2000/svg" xmlns:xlink="http://www.w3.org/1999/xlink" width="21" height="15" version="1.1" viewBox="0 0 21 15"><title>FJ</title><desc>Created with sketchtool.</desc><defs><linearGradient id="linearGradient-1" x1="50%" x2="50%" y1="0%" y2="100%"><stop offset="0%" stop-color="#FFF"/><stop offset="100%" stop-color="#F0F0F0"/></linearGradient><linearGradient id="linearGradient-2" x1="50%" x2="50%" y1="0%" y2="100%"><stop offset="0%" stop-color="#79CFF6"/><stop offset="100%" stop-color="#68BFE6"/></linearGradient><linearGradient id="linearGradient-3" x1="50%" x2="50%" y1="0%" y2="100%"><stop offset="0%" stop-color="#042C90"/><stop offset="100%" stop-color="#00247E"/></linearGradient><path id="path-4" d="M0,3.5 L0,0 L5,0 L5,3.5 C5,6 2.5,7 2.5,7 C2.5,7 0,6 0,3.5 Z"/><linearGradient id="linearGradient-6" x1="50%" x2="50%" y1="0%" y2="100%"><stop offset="0%" stop-color="#EB1D43"/><stop offset="100%" stop-color="#D21034"/></linearGradient><linearGradient id="linearGradient-7" x1="50%" x2="50%" y1="0%" y2="100%"><stop offset="0%" stop-color="#DB1E36"/><stop offset="100%" stop-color="#D51931"/></linearGradient><path id="path-8" d="M3.5,3 L0,0 L0.5,0 L4,2.5 L5,2.5 L9,0 L9,0.25 C9,0.388071187 8.91348267,0.561798096 8.79154062,0.648899555 L5.5,3 L5.5,4 L8.8118248,6.83870697 C8.91575109,6.92778665 8.8840332,7 8.75,7 L8.75,7 C8.61192881,7 8.41348267,6.9382019 8.29154062,6.85110044 L5,4.5 L4,4.5 L0,7 L0,6.5 L3.5,4 L3.5,3 Z"/></defs><g id="Symbols" fill="none" fill-rule="evenodd" stroke="none" stroke-width="1"><g id="FJ"><rect id="FlagBackground" width="21" height="15" x="0" y="0" fill="url(#linearGradient-1)"/><rect id="Mask-Copy" width="21" height="15" x="0" y="0" fill="url(#linearGradient-2)"/><rect id="Rectangle-1115" width="9" height="7" x="0" y="0" fill="url(#linearGradient-3)"/><g id="Rectangle-1105" transform="translate(13.000000, 4.000000)"><mask id="mask-5" fill="#fff"><use xlink:href="#path-4"/></mask><use id="Mask" fill="url(#linearGradient-1)" xlink:href="#path-4"/><path id="Oval-177" fill="#2A915C" d="M1,2.5 C0.723857625,2.5 0.5,2.27614237 0.5,2 C0.5,1.72385763 0.723857625,1.5 1,1.5 C1.27614237,1.5 1.5,1.72385763 1.5,2 C1.5,2.27614237 1.27614237,2.5 1,2.5 Z M4,2.5 C3.72385763,2.5 3.5,2.27614237 3.5,2 C3.5,1.72385763 3.72385763,1.5 4,1.5 C4.27614237,1.5 4.5,1.72385763 4.5,2 C4.5,2.27614237 4.27614237,2.5 4,2.5 Z" mask="url(#mask-5)"/><polygon id="Rectangle-1106" fill="url(#linearGradient-6)" points="0 0 5 0 5 1 3 1 3 3 5 3 5 4 3 4 3 7 2 7 2 4 0 4 0 3 2 3 2 1 0 1" mask="url(#mask-5)"/></g><g id="Rectangle-36"><use fill="url(#linearGradient-7)" fill-rule="evenodd" xlink:href="#path-8"/><path stroke="#FFF" stroke-width=".5" d="M3.25,3.11498373 L-0.675814352,-0.25 L0.5,-0.25 L0.645309548,-0.203433368 L4.08011626,2.25 L4.92830094,2.25 L9.25,-0.45106191 L9.25,0.25 C9.25,0.471733776 9.12210758,0.720006202 8.93685017,0.852332923 L5.75,3.12865447 L5.75,3.88501627 L8.97452264,6.64889282 C9.25702778,6.89104008 9.11322839,7.25 8.75,7.25 C8.55691391,7.25 8.30820236,7.17022759 8.14623107,7.05453381 L4.91988374,4.75 L4.07169906,4.75 L-0.25,7.45106191 L-0.25,6.37134553 L3.25,3.87134553 L3.25,3.11498373 Z"/></g><path id="Rectangle-2" fill="url(#linearGradient-1)" d="M0,2.5 L0,4.5 L3.5,4.5 L3.5,7.00461102 C3.5,7.2782068 3.71403503,7.5 4.00468445,7.5 L4.99531555,7.5 C5.27404508,7.5 5.5,7.2842474 5.5,7.00461102 L5.5,4.5 L9.00952148,4.5 C9.28040529,4.5 9.5,4.28596497 9.5,3.99531555 L9.5,3.00468445 C9.5,2.72595492 9.28494263,2.5 9.00952148,2.5 L5.5,2.5 L5.5,0 L3.5,0 L3.5,2.5 L0,2.5 Z"/><polygon id="Rectangle-36" fill="url(#linearGradient-7)" points="0 3 4 3 4 2.5 4 0 5 0 5 2.5 5 3 9 3 9 4 5 4 5 4.5 5 7 4 7 4 4.5 4 4 0 4"/></g></g></svg>