<svg xmlns="http://www.w3.org/2000/svg" xmlns:xlink="http://www.w3.org/1999/xlink" width="21" height="15" version="1.1" viewBox="0 0 21 15"><title>GD</title><desc>Created with sketchtool.</desc><defs><linearGradient id="linearGradient-1" x1="50%" x2="50%" y1="0%" y2="100%"><stop offset="0%" stop-color="#FFF"/><stop offset="100%" stop-color="#F0F0F0"/></linearGradient><linearGradient id="linearGradient-2" x1="50%" x2="50%" y1="0%" y2="100%"><stop offset="0%" stop-color="#E42235"/><stop offset="100%" stop-color="#CE1225"/></linearGradient><linearGradient id="linearGradient-3" x1="50%" x2="50%" y1="0%" y2="100%"><stop offset="0%" stop-color="#079B77"/><stop offset="100%" stop-color="#007B5D"/></linearGradient><rect id="path-4" width="17" height="11" x="0" y="0"/><linearGradient id="linearGradient-6" x1="50%" x2="50%" y1="0%" y2="100%"><stop offset="0%" stop-color="#FFD938"/><stop offset="100%" stop-color="#FDD117"/></linearGradient><linearGradient id="linearGradient-7" x1="50%" x2="50%" y1="0%" y2="100%"><stop offset="0%" stop-color="#FFD93B"/><stop offset="100%" stop-color="#FDD117"/></linearGradient><linearGradient id="linearGradient-8" x1="50%" x2="50%" y1="0%" y2="100%"><stop offset="0%" stop-color="#E21C30"/><stop offset="100%" stop-color="#CE1225"/></linearGradient></defs><g id="Symbols" fill="none" fill-rule="evenodd" stroke="none" stroke-width="1"><g id="GD"><rect id="FlagBackground" width="21" height="15" x="0" y="0" fill="url(#linearGradient-1)"/><rect id="Mask" width="21" height="15" x="0" y="0" fill="url(#linearGradient-2)"/><g id="Rectangle-1128" transform="translate(2.000000, 2.000000)"><mask id="mask-5" fill="#fff"><use xlink:href="#path-4"/></mask><use id="Mask" fill="url(#linearGradient-3)" xlink:href="#path-4"/><path id="Oval-180" fill="url(#linearGradient-6)" d="M1.2948789,5.59885368 C1.57800611,6.05195195 1.98448743,6.3510373 2.36308877,6.42779338 C2.57152317,6.47005051 2.18990286,5.51415964 2.35620138,5.41024479 C2.49809484,5.32157992 3.18079024,6.11649051 3.24057126,5.95064666 C3.37811632,5.56907067 3.29697727,5.02872102 2.99097509,4.53901516 C2.5519756,3.83646911 2.53483743,4.30016223 1.3480481,3.79686228 C1.47213428,4.51662311 0.855879404,4.89630764 1.2948789,5.59885368 L1.2948789,5.59885368 Z" mask="url(#mask-5)"/><path id="Rectangle-1129" fill="url(#linearGradient-7)" d="M0,0 L17,0 L8.5,5.5 L0,0 Z M0,11 L8.5,5.5 L17,11 L0,11 Z" mask="url(#mask-5)"/><circle id="Oval-179" cx="8.5" cy="5.5" r="2.5" fill="url(#linearGradient-8)" mask="url(#mask-5)"/><polygon id="Star-96" fill="url(#linearGradient-6)" points="8.5 6.271 7.324 7.118 7.766 5.738 6.598 4.882 8.047 4.876 8.5 3.5 8.953 4.876 10.402 4.882 9.234 5.738 9.676 7.118" mask="url(#mask-5)"/></g></g></g></svg>