<svg xmlns="http://www.w3.org/2000/svg" xmlns:xlink="http://www.w3.org/1999/xlink" width="21" height="15" version="1.1" viewBox="0 0 21 15"><title>GE</title><desc>Created with sketchtool.</desc><defs><linearGradient id="linearGradient-1" x1="50%" x2="50%" y1="0%" y2="100%"><stop offset="0%" stop-color="#FFF"/><stop offset="100%" stop-color="#F0F0F0"/></linearGradient><linearGradient id="linearGradient-2" x1="50%" x2="50%" y1="0%" y2="100%"><stop offset="0%" stop-color="#FF2B37"/><stop offset="100%" stop-color="#FD0D1B"/></linearGradient></defs><g id="Symbols" fill="none" fill-rule="evenodd" stroke="none" stroke-width="1"><g id="GE"><rect id="FlagBackground" width="21" height="15" x="0" y="0" fill="url(#linearGradient-1)"/><path id="Rectangle-2" fill="url(#linearGradient-2)" d="M9,6 L0,6 L0,9 L9,9 L9,15 L12,15 L12,9 L21,9 L21,6 L12,6 L12,0 L9,0 L9,6 Z"/><path id="Rectangle-742" fill="#FD0D1B" d="M16.2,2.7 L16,1.5 L17,1.5 L16.8,2.7 L18,2.5 L18,3.5 L16.8,3.3 L17,4.5 L16,4.5 L16.2,3.3 L15,3.5 L15,2.5 L16.2,2.7 Z"/><path id="Rectangle-742" fill="#FD0D1B" d="M4.2,2.7 L4,1.5 L5,1.5 L4.8,2.7 L6,2.5 L6,3.5 L4.8,3.3 L5,4.5 L4,4.5 L4.2,3.3 L3,3.5 L3,2.5 L4.2,2.7 Z"/><path id="Rectangle-742" fill="#FD0D1B" d="M4.2,11.7 L4,10.5 L5,10.5 L4.8,11.7 L6,11.5 L6,12.5 L4.8,12.3 L5,13.5 L4,13.5 L4.2,12.3 L3,12.5 L3,11.5 L4.2,11.7 Z"/><path id="Rectangle-742" fill="#FD0D1B" d="M16.2,11.7 L16,10.5 L17,10.5 L16.8,11.7 L18,11.5 L18,12.5 L16.8,12.3 L17,13.5 L16,13.5 L16.2,12.3 L15,12.5 L15,11.5 L16.2,11.7 Z"/></g></g></svg>