<svg xmlns="http://www.w3.org/2000/svg" xmlns:xlink="http://www.w3.org/1999/xlink" width="21" height="15" version="1.1" viewBox="0 0 21 15"><title>GT</title><desc>Created with sketchtool.</desc><defs><linearGradient id="linearGradient-1" x1="50%" x2="50%" y1="0%" y2="100%"><stop offset="0%" stop-color="#FFF"/><stop offset="100%" stop-color="#F0F0F0"/></linearGradient><linearGradient id="linearGradient-2" x1="50%" x2="50%" y1="0%" y2="100%"><stop offset="0%" stop-color="#63AEE3"/><stop offset="100%" stop-color="#4998D0"/></linearGradient></defs><g id="Symbols" fill="none" fill-rule="evenodd" stroke="none" stroke-width="1"><g id="GT"><rect id="FlagBackground" width="21" height="15" x="0" y="0" fill="url(#linearGradient-1)"/><rect id="Mask" width="11" height="15" x="10" y="0" fill="url(#linearGradient-2)"/><rect id="Rectangle-2" width="7" height="15" x="0" y="0" fill="url(#linearGradient-2)"/><rect id="Rectangle-2-Copy" width="7" height="15" x="7" y="0" fill="url(#linearGradient-1)"/><path id="Oval-5" fill="#628A40" fill-rule="nonzero" d="M8,7 C8,7.90143048 8.48152018,8.71954992 9.24677273,9.16357911 C9.48561975,9.3021674 9.79159152,9.22089165 9.93017981,8.98204463 C10.0687681,8.74319762 9.98749235,8.43722585 9.74864534,8.29863755 C9.28867518,8.03174504 9,7.54127594 9,7 C9,6.72385763 8.77614237,6.5 8.5,6.5 C8.22385763,6.5 8,6.72385763 8,7 Z M11.8455353,9.10731545 C12.5588244,8.65111736 13,7.86294784 13,7 C13,6.72385763 12.7761424,6.5 12.5,6.5 C12.2238576,6.5 12,6.72385763 12,7 C12,7.5182519 11.7356132,7.99058439 11.3067388,8.26487951 C11.0741065,8.41366406 11.0061345,8.72286348 11.1549191,8.95549574 C11.3037036,9.188128 11.612903,9.2561 11.8455353,9.10731545 Z"/><circle id="Oval-5" cx="10.5" cy="7" r="1" fill="#DCC26D"/></g></g></svg>