<svg xmlns="http://www.w3.org/2000/svg" xmlns:xlink="http://www.w3.org/1999/xlink" width="21" height="15" version="1.1" viewBox="0 0 21 15"><title>GY</title><desc>Created with sketchtool.</desc><defs><linearGradient id="linearGradient-1" x1="50%" x2="50%" y1="0%" y2="100%"><stop offset="0%" stop-color="#FFF"/><stop offset="100%" stop-color="#F0F0F0"/></linearGradient><linearGradient id="linearGradient-2" x1="50%" x2="50%" y1="0%" y2="100%"><stop offset="0%" stop-color="#08C55F"/><stop offset="100%" stop-color="#009F49"/></linearGradient><linearGradient id="linearGradient-3" x1="50%" x2="50%" y1="0%" y2="100%"><stop offset="0%" stop-color="#FFF"/><stop offset="100%" stop-color="#F0F0F0"/></linearGradient><linearGradient id="linearGradient-4" x1="50%" x2="50%" y1="0%" y2="100%"><stop offset="0%" stop-color="#FFD831"/><stop offset="100%" stop-color="#FDD117"/></linearGradient><linearGradient id="linearGradient-5" x1="50%" x2="50%" y1="0%" y2="100%"><stop offset="0%" stop-color="#262626"/><stop offset="100%" stop-color="#0D0D0D"/></linearGradient><linearGradient id="linearGradient-6" x1="50%" x2="50%" y1="0%" y2="100%"><stop offset="0%" stop-color="#E92034"/><stop offset="100%" stop-color="#CE1225"/></linearGradient></defs><g id="Symbols" fill="none" fill-rule="evenodd" stroke="none" stroke-width="1"><g id="GY"><rect id="FlagBackground" width="21" height="15" x="0" y="0" fill="url(#linearGradient-1)"/><rect id="Mask" width="21" height="15" x="0" y="0" fill="url(#linearGradient-2)"/><polygon id="Rectangle-1134" fill="url(#linearGradient-3)" fill-rule="nonzero" points="-1 15 -1 0 0 0 21 7 21 8 0 15"/><polygon id="Rectangle-1134" fill="url(#linearGradient-4)" fill-rule="nonzero" points="0 1.054 0 13.946 19.338 7.5"/><polygon id="Rectangle-1134" fill="url(#linearGradient-5)" fill-rule="nonzero" points="-1 15 -1 0 0 0 11.5 7.5 0 15"/><polygon id="Rectangle-1134" fill="url(#linearGradient-6)" fill-rule="nonzero" points="0 13.806 9.669 7.5 0 1.194"/></g></g></svg>