<svg xmlns="http://www.w3.org/2000/svg" xmlns:xlink="http://www.w3.org/1999/xlink" width="21" height="15" version="1.1" viewBox="0 0 21 15"><title>HN</title><desc>Created with sketchtool.</desc><defs><linearGradient id="linearGradient-1" x1="50%" x2="50%" y1="0%" y2="100%"><stop offset="0%" stop-color="#FFF"/><stop offset="100%" stop-color="#F0F0F0"/></linearGradient><linearGradient id="linearGradient-2" x1="50%" x2="50%" y1="0%" y2="100%"><stop offset="0%" stop-color="#0884E6"/><stop offset="100%" stop-color="#0074D0"/></linearGradient><linearGradient id="linearGradient-3" x1="50%" x2="50%" y1="0%" y2="100%"><stop offset="0%" stop-color="#0E88E9"/><stop offset="100%" stop-color="#0074D0"/></linearGradient></defs><g id="Symbols" fill="none" fill-rule="evenodd" stroke="none" stroke-width="1"><g id="HN"><rect id="FlagBackground" width="21" height="15" x="0" y="0" fill="url(#linearGradient-1)"/><rect id="Rectangle-2" width="21" height="5" x="0" y="0" fill="url(#linearGradient-2)"/><rect id="Rectangle-2" width="21" height="5" x="0" y="10" fill="url(#linearGradient-2)"/><rect id="Rectangle-2" width="21" height="5" x="0" y="5" fill="url(#linearGradient-1)"/><polygon id="Star-20" fill="url(#linearGradient-3)" points="10.5 8 9.793 8.207 10 7.5 9.793 6.793 10.5 7 11.207 6.793 11 7.5 11.207 8.207"/><polygon id="Star-20-Copy" fill="url(#linearGradient-3)" points="14.5 7 13.793 7.207 14 6.5 13.793 5.793 14.5 6 15.207 5.793 15 6.5 15.207 7.207"/><polygon id="Star-20-Copy-2" fill="url(#linearGradient-3)" points="14.5 9 13.793 9.207 14 8.5 13.793 7.793 14.5 8 15.207 7.793 15 8.5 15.207 9.207"/><polygon id="Star-20-Copy-3" fill="url(#linearGradient-3)" points="6.5 9 5.793 9.207 6 8.5 5.793 7.793 6.5 8 7.207 7.793 7 8.5 7.207 9.207"/><polygon id="Star-20-Copy-4" fill="url(#linearGradient-3)" points="6.5 7 5.793 7.207 6 6.5 5.793 5.793 6.5 6 7.207 5.793 7 6.5 7.207 7.207"/></g></g></svg>