<svg xmlns="http://www.w3.org/2000/svg" xmlns:xlink="http://www.w3.org/1999/xlink" width="21" height="15" version="1.1" viewBox="0 0 21 15"><title>IS</title><desc>Created with sketchtool.</desc><defs><linearGradient id="linearGradient-1" x1="50%" x2="50%" y1="0%" y2="100%"><stop offset="0%" stop-color="#FFF"/><stop offset="100%" stop-color="#F0F0F0"/></linearGradient><linearGradient id="linearGradient-2" x1="50%" x2="50%" y1="0%" y2="100%"><stop offset="0%" stop-color="#0E4CB5"/><stop offset="100%" stop-color="#063B95"/></linearGradient><linearGradient id="linearGradient-3" x1="50%" x2="50%" y1="0%" y2="100%"><stop offset="0%" stop-color="#EB363A"/><stop offset="100%" stop-color="#D52B2F"/></linearGradient></defs><g id="Symbols" fill="none" fill-rule="evenodd" stroke="none" stroke-width="1"><g id="IS"><rect id="FlagBackground" width="21" height="15" x="0" y="0" fill="url(#linearGradient-1)"/><rect id="Mask-Copy" width="21" height="15" x="0" y="0" fill="url(#linearGradient-2)"/><polygon id="Rectangle-2" fill="url(#linearGradient-1)" points="0 9 6 9 6 15 9 15 9 9 21 9 21 6 9 6 9 0 6 0 6 6 0 6"/><polygon id="Rectangle-2" fill="url(#linearGradient-3)" points="0 8 7 8 7 15 8 15 8 8 21 8 21 7 8 7 8 0 7 0 7 7 0 7"/></g></g></svg>