<svg xmlns="http://www.w3.org/2000/svg" xmlns:xlink="http://www.w3.org/1999/xlink" width="21" height="15" version="1.1" viewBox="0 0 21 15"><title>JM</title><desc>Created with sketchtool.</desc><defs><linearGradient id="linearGradient-1" x1="50%" x2="50%" y1="0%" y2="100%"><stop offset="0%" stop-color="#FFF"/><stop offset="100%" stop-color="#F0F0F0"/></linearGradient><linearGradient id="linearGradient-2" x1="50%" x2="50%" y1="0%" y2="100%"><stop offset="0%" stop-color="#1DBE4F"/><stop offset="100%" stop-color="#159B3F"/></linearGradient><linearGradient id="linearGradient-3" x1="50%" x2="50%" y1="0%" y2="100%"><stop offset="0%" stop-color="#262626"/><stop offset="100%" stop-color="#0D0D0D"/></linearGradient><linearGradient id="linearGradient-4" x1="50%" x2="50%" y1="0%" y2="100%"><stop offset="0%" stop-color="#FFD646"/><stop offset="100%" stop-color="#FED02F"/></linearGradient></defs><g id="Symbols" fill="none" fill-rule="evenodd" stroke="none" stroke-width="1"><g id="JM"><rect id="FlagBackground" width="21" height="15" x="0" y="0" fill="url(#linearGradient-1)"/><rect id="Mask-Copy" width="21" height="15" x="0" y="-.003" fill="url(#linearGradient-2)"/><polygon id="Rectangle-253" fill="url(#linearGradient-3)" points="0 -.003 9 7.497 0 14.997"/><polygon id="Rectangle-253" fill="url(#linearGradient-3)" points="12 -.003 21 7.497 12 14.997" transform="translate(16.500238, 7.497335) scale(-1, 1) translate(-16.500238, -7.497335)"/><path id="Rectangle-2" fill="url(#linearGradient-4)" d="M10.5002378,6.29111667 L-0.961614117,-1.44000006 L-2.07999992,0.218075088 L8.71194613,7.49733462 L-2.07999992,14.7765941 L-0.961614117,16.4346693 L10.5002378,8.70355256 L21.9620897,16.4346693 L23.0804755,14.7765941 L12.2885294,7.49733462 L23.0804755,0.218075088 L21.9620897,-1.44000006 L10.5002378,6.29111667 Z"/></g></g></svg>