<svg xmlns="http://www.w3.org/2000/svg" xmlns:xlink="http://www.w3.org/1999/xlink" width="21" height="15" version="1.1" viewBox="0 0 21 15"><title>JO</title><desc>Created with sketchtool.</desc><defs><linearGradient id="linearGradient-1" x1="50%" x2="50%" y1="0%" y2="100%"><stop offset="0%" stop-color="#FFF"/><stop offset="100%" stop-color="#F0F0F0"/></linearGradient><linearGradient id="linearGradient-2" x1="50%" x2="50%" y1="0%" y2="100%"><stop offset="0%" stop-color="#199E56"/><stop offset="100%" stop-color="#0F7A40"/></linearGradient><linearGradient id="linearGradient-3" x1="50%" x2="50%" y1="0%" y2="100%"><stop offset="0%" stop-color="#262626"/><stop offset="100%" stop-color="#0D0D0D"/></linearGradient><linearGradient id="linearGradient-4" x1="50%" x2="50%" y1="0%" y2="100%"><stop offset="0%" stop-color="#E6223A"/><stop offset="100%" stop-color="#CC162C"/></linearGradient></defs><g id="Symbols" fill="none" fill-rule="evenodd" stroke="none" stroke-width="1"><g id="JO"><rect id="FlagBackground" width="21" height="15" x="0" y="0" fill="url(#linearGradient-1)"/><rect id="Rectangle-2" width="21" height="5" x="0" y="10" fill="url(#linearGradient-2)"/><rect id="Rectangle-2" width="21" height="5" x="0" y="0" fill="url(#linearGradient-3)"/><rect id="Rectangle-2" width="21" height="5" x="0" y="5" fill="url(#linearGradient-1)"/><polygon id="Rectangle-83" fill="url(#linearGradient-4)" points="0 0 10 7.5 0 15"/><polygon id="Star-27" fill="url(#linearGradient-1)" points="3.5 8.25 2.849 8.851 2.914 7.968 2.038 7.834 2.769 7.333 2.327 6.565 3.175 6.824 3.5 6 3.825 6.824 4.673 6.565 4.231 7.333 4.962 7.834 4.086 7.968 4.151 8.851"/></g></g></svg>