<svg xmlns="http://www.w3.org/2000/svg" xmlns:xlink="http://www.w3.org/1999/xlink" width="21" height="15" version="1.1" viewBox="0 0 21 15"><title>KE</title><desc>Created with sketchtool.</desc><defs><linearGradient id="linearGradient-1" x1="50%" x2="50%" y1="0%" y2="100%"><stop offset="0%" stop-color="#FFF"/><stop offset="100%" stop-color="#F0F0F0"/></linearGradient><linearGradient id="linearGradient-2" x1="50%" x2="50%" y1="0%" y2="100%"><stop offset="0%" stop-color="#262626"/><stop offset="100%" stop-color="#0D0D0D"/></linearGradient><linearGradient id="linearGradient-3" x1="50%" x2="50%" y1="0%" y2="100%"><stop offset="0%" stop-color="#018301"/><stop offset="100%" stop-color="#006700"/></linearGradient><linearGradient id="linearGradient-4" x1="50%" x2="50%" y1="0%" y2="100%"><stop offset="0%" stop-color="#DC0808"/><stop offset="100%" stop-color="#BC0000"/></linearGradient><path id="path-5" d="M2.5,10.5 C3.5,10.5 5,8.53756612 5,5.5 C5,2.46243388 3.5,0.5 2.5,0.5 C1.5,0.5 0,2.46243388 0,5.5 C0,8.53756612 1.5,10.5 2.5,10.5 Z"/></defs><g id="Symbols" fill="none" fill-rule="evenodd" stroke="none" stroke-width="1"><g id="KE"><rect id="FlagBackground" width="21" height="15" x="0" y="0" fill="url(#linearGradient-1)"/><rect id="Rectangle-2" width="21" height="4" x="0" y="0" fill="url(#linearGradient-2)"/><rect id="Rectangle-2" width="21" height="4" x="0" y="11" fill="url(#linearGradient-3)"/><rect id="Rectangle-2" width="21" height="7" x="0" y="4" fill="url(#linearGradient-1)"/><rect id="Rectangle-2-Copy-4" width="21" height="5" x="0" y="5" fill="url(#linearGradient-4)"/><g id="Oval-225" transform="translate(8.000000, 2.000000)"><mask id="mask-6" fill="#fff"><use xlink:href="#path-5"/></mask><use id="Mask" fill="#BC0000" xlink:href="#path-5"/><ellipse id="Mask-Copy" cx="-1.5" cy="5.5" fill="url(#linearGradient-2)" mask="url(#mask-6)" rx="2.5" ry="5.5"/><ellipse id="Mask-Copy-2" cx="6.5" cy="5.5" fill="url(#linearGradient-2)" mask="url(#mask-6)" rx="2.5" ry="5.5"/><path id="Oval-228" fill="url(#linearGradient-1)" d="M2.5,7 C2.22385763,7 2,6.32842712 2,5.5 C2,4.67157288 2.22385763,4 2.5,4 C2.77614237,4 3,4.67157288 3,5.5 C3,6.32842712 2.77614237,7 2.5,7 Z M2.5,4 C2.22385763,4 2,3.1045695 2,2 C2,0.8954305 2.22385763,0 2.5,0 C2.77614237,0 3,0.8954305 3,2 C3,3.1045695 2.77614237,4 2.5,4 Z M2.5,11 C2.22385763,11 2,10.1045695 2,9 C2,7.8954305 2.22385763,7 2.5,7 C2.77614237,7 3,7.8954305 3,9 C3,10.1045695 2.77614237,11 2.5,11 Z" mask="url(#mask-6)"/></g></g></g></svg>