<svg xmlns="http://www.w3.org/2000/svg" xmlns:xlink="http://www.w3.org/1999/xlink" width="21" height="15" version="1.1" viewBox="0 0 21 15"><title>LR</title><desc>Created with sketchtool.</desc><defs><linearGradient id="linearGradient-1" x1="50%" x2="50%" y1="0%" y2="100%"><stop offset="0%" stop-color="#FFF"/><stop offset="100%" stop-color="#F0F0F0"/></linearGradient><linearGradient id="linearGradient-2" x1="50%" x2="50%" y1="0%" y2="100%"><stop offset="0%" stop-color="#E1244A"/><stop offset="100%" stop-color="#BE1134"/></linearGradient><linearGradient id="linearGradient-3" x1="50%" x2="50%" y1="0%" y2="100%"><stop offset="0%" stop-color="#0C3F8E"/><stop offset="100%" stop-color="#032A67"/></linearGradient><polygon id="path-4" points="5 6.17 3.237 7.427 3.887 5.362 2.147 4.073 4.312 4.053 5 2 5.688 4.053 7.853 4.073 6.113 5.362 6.763 7.427"/><filter id="filter-5" width="108.3%" height="116.7%" x="-4.2%" y="-4.2%" filterUnits="objectBoundingBox"><feOffset dx="0" dy=".5" in="SourceAlpha" result="shadowOffsetOuter1"/><feColorMatrix in="shadowOffsetOuter1" type="matrix" values="0 0 0 0 0 0 0 0 0 0 0 0 0 0 0 0 0 0 0.06 0"/></filter></defs><g id="Symbols" fill="none" fill-rule="evenodd" stroke="none" stroke-width="1"><g id="LR"><rect id="FlagBackground" width="21" height="15" x="0" y="0" fill="url(#linearGradient-1)"/><path id="Rectangle-537" fill="url(#linearGradient-2)" d="M10,0 L21,0 L21,2 L10,2 L10,0 Z M10,4 L21,4 L21,6 L10,6 L10,4 Z M10,8 L21,8 L21,10 L10,10 L10,8 Z M0,12 L21,12 L21,14 L0,14 L0,12 Z"/><rect id="Rectangle-1568" width="10" height="10" x="0" y="0" fill="url(#linearGradient-3)"/><g id="Star-8"><use fill="#000" fill-opacity="1" filter="url(#filter-5)" xlink:href="#path-4"/><use fill="url(#linearGradient-1)" fill-rule="evenodd" xlink:href="#path-4"/></g></g></g></svg>