<svg xmlns="http://www.w3.org/2000/svg" xmlns:xlink="http://www.w3.org/1999/xlink" width="21" height="15" version="1.1" viewBox="0 0 21 15"><title>LY</title><desc>Created with sketchtool.</desc><defs><linearGradient id="linearGradient-1" x1="50%" x2="50%" y1="0%" y2="100%"><stop offset="0%" stop-color="#FFF"/><stop offset="100%" stop-color="#F0F0F0"/></linearGradient><linearGradient id="linearGradient-2" x1="50%" x2="50%" y1="0%" y2="100%"><stop offset="0%" stop-color="#262626"/><stop offset="100%" stop-color="#0D0D0D"/></linearGradient><linearGradient id="linearGradient-3" x1="50%" x2="50%" y1="0%" y2="100%"><stop offset="0%" stop-color="#34B857"/><stop offset="100%" stop-color="#2B9E4A"/></linearGradient><linearGradient id="linearGradient-4" x1="50%" x2="50%" y1="0%" y2="100%"><stop offset="0%" stop-color="#F41F34"/><stop offset="100%" stop-color="#E60B21"/></linearGradient></defs><g id="Symbols" fill="none" fill-rule="evenodd" stroke="none" stroke-width="1"><g id="LY"><rect id="FlagBackground" width="21" height="15" x="0" y="0" fill="url(#linearGradient-1)"/><rect id="Rectangle-2" width="21" height="5" x="0" y="5" fill="url(#linearGradient-2)"/><rect id="Rectangle-2" width="21" height="5" x="0" y="10" fill="url(#linearGradient-3)"/><rect id="Rectangle-2" width="21" height="5" x="0" y="0" fill="url(#linearGradient-4)"/><path id="Oval-68" fill="url(#linearGradient-1)" d="M11.3335689,6.25274924 C11.3059482,6.25092604 11.2780822,6.25 11.25,6.25 C10.5596441,6.25 10,6.80964406 10,7.5 C10,8.19035594 10.5596441,8.75 11.25,8.75 C11.2780822,8.75 11.3059482,8.74907396 11.3335689,8.74725076 C11.0951725,8.9068934 10.8084594,9 10.5,9 C9.67157288,9 9,8.32842712 9,7.5 C9,6.67157288 9.67157288,6 10.5,6 C10.8084594,6 11.0951725,6.0931066 11.3335689,6.25274924 Z M11.5,8 C11.2238576,8 11,7.77614237 11,7.5 C11,7.22385763 11.2238576,7 11.5,7 C11.7761424,7 12,7.22385763 12,7.5 C12,7.77614237 11.7761424,8 11.5,8 Z"/></g></g></svg>