<svg xmlns="http://www.w3.org/2000/svg" xmlns:xlink="http://www.w3.org/1999/xlink" width="21" height="15" version="1.1" viewBox="0 0 21 15"><title>MA</title><desc>Created with sketchtool.</desc><defs><linearGradient id="linearGradient-1" x1="50%" x2="50%" y1="0%" y2="100%"><stop offset="0%" stop-color="#FFF"/><stop offset="100%" stop-color="#F0F0F0"/></linearGradient><linearGradient id="linearGradient-2" x1="50%" x2="50%" y1="0%" y2="100%"><stop offset="0%" stop-color="#E33B44"/><stop offset="100%" stop-color="#C02A32"/></linearGradient></defs><g id="Symbols" fill="none" fill-rule="evenodd" stroke="none" stroke-width="1"><g id="MA"><rect id="FlagBackground" width="21" height="15" x="0" y="0" fill="url(#linearGradient-1)"/><rect id="Mask-Copy" width="21" height="15" x="0" y="0" fill="url(#linearGradient-2)"/><path id="Star-8" fill="#0A6135" fill-rule="nonzero" d="M10.5,9.25500007 L7.85496636,11.1405765 L8.83089575,8.04232485 L6.22024568,6.10942353 L9.46843684,6.08017512 L10.5,3 L11.5315632,6.08017512 L14.7797543,6.10942353 L12.1691043,8.04232485 L13.1450336,11.1405765 L10.5,9.25500007 Z M10.5,8.02691631 L11.2941375,8.5930365 L11.0011272,7.6628261 L11.7849415,7.08249721 L10.8097136,7.07371575 L10.5,6.14893259 L10.1902864,7.07371575 L9.21505853,7.08249721 L9.99887281,7.6628261 L9.7058625,8.5930365 L10.5,8.02691631 Z"/></g></g></svg>