<svg xmlns="http://www.w3.org/2000/svg" xmlns:xlink="http://www.w3.org/1999/xlink" width="21" height="15" version="1.1" viewBox="0 0 21 15"><title>MD</title><desc>Created with sketchtool.</desc><defs><linearGradient id="linearGradient-1" x1="50%" x2="50%" y1="0%" y2="100%"><stop offset="0%" stop-color="#FFF"/><stop offset="100%" stop-color="#F0F0F0"/></linearGradient><linearGradient id="linearGradient-2" x1="50%" x2="50%" y1="0%" y2="100%"><stop offset="0%" stop-color="#EB1C43"/><stop offset="100%" stop-color="#CA1134"/></linearGradient><linearGradient id="linearGradient-3" x1="50%" x2="50%" y1="0%" y2="100%"><stop offset="0%" stop-color="#115BCB"/><stop offset="100%" stop-color="#094AAC"/></linearGradient><linearGradient id="linearGradient-4" x1="50%" x2="50%" y1="0%" y2="100%"><stop offset="0%" stop-color="#FFD953"/><stop offset="100%" stop-color="#FFD130"/></linearGradient><rect id="path-5" width="7" height="15" x="7" y="0"/><filter id="filter-6" width="121.4%" height="110%" x="-10.7%" y="-5%" filterUnits="objectBoundingBox"><feMorphology in="SourceAlpha" operator="dilate" radius=".25" result="shadowSpreadOuter1"/><feOffset dx="0" dy="0" in="shadowSpreadOuter1" result="shadowOffsetOuter1"/><feColorMatrix in="shadowOffsetOuter1" type="matrix" values="0 0 0 0 0 0 0 0 0 0 0 0 0 0 0 0 0 0 0.06 0"/></filter></defs><g id="Symbols" fill="none" fill-rule="evenodd" stroke="none" stroke-width="1"><g id="MD"><rect id="FlagBackground" width="21" height="15" x="0" y="0" fill="url(#linearGradient-1)"/><rect id="Mask" width="11" height="15" x="10" y="0" fill="url(#linearGradient-2)"/><rect id="Rectangle-2" width="7" height="15" x="0" y="0" fill="url(#linearGradient-3)"/><g id="Rectangle-2-Copy"><use fill="#000" fill-opacity="1" filter="url(#filter-6)" xlink:href="#path-5"/><use fill="url(#linearGradient-4)" fill-rule="evenodd" xlink:href="#path-5"/></g><path id="Rectangle-1601" fill="#AF7F59" d="M9,6 L10,6 L10.5,4.5 L11,6 L12,6 L12,9 L10.5,10 L9,9 L9,6 Z M10,7 L10,8.5 L11,8.5 L11,7 L10,7 Z"/></g></g></svg>