<svg xmlns="http://www.w3.org/2000/svg" xmlns:xlink="http://www.w3.org/1999/xlink" width="21" height="15" version="1.1" viewBox="0 0 21 15"><title>MR</title><desc>Created with sketchtool.</desc><defs><linearGradient id="linearGradient-1" x1="50%" x2="50%" y1="0%" y2="100%"><stop offset="0%" stop-color="#FFF"/><stop offset="100%" stop-color="#F0F0F0"/></linearGradient><linearGradient id="linearGradient-2" x1="50%" x2="50%" y1="0%" y2="100%"><stop offset="0%" stop-color="#108B4D"/><stop offset="100%" stop-color="#0A6135"/></linearGradient><linearGradient id="linearGradient-3" x1="50%" x2="50%" y1="0%" y2="100%"><stop offset="0%" stop-color="#FFC941"/><stop offset="100%" stop-color="#FFC42E"/></linearGradient></defs><g id="Symbols" fill="none" fill-rule="evenodd" stroke="none" stroke-width="1"><g id="MR"><rect id="FlagBackground" width="21" height="15" x="0" y="0" fill="url(#linearGradient-1)"/><rect id="Mask-Copy" width="21" height="15" x="0" y="0" fill="url(#linearGradient-2)"/><path id="Star-8" fill="url(#linearGradient-3)" d="M14.8602372,5.80000019 C14.896665,6.03057572 14.9155813,6.26697421 14.9155813,6.50779084 C14.9155813,8.99307222 12.9008627,11.0077908 10.4155813,11.0077908 C7.93029993,11.0077908 5.9155813,8.99307222 5.9155813,6.50779084 C5.9155813,6.26697421 5.9344976,6.03057572 5.97092538,5.80000019 C6.31044035,7.94901552 8.17111656,9.59220954 10.4155813,9.59220954 C12.660046,9.59220954 14.5207223,7.94901552 14.8602372,5.80000019 L14.8602372,5.80000019 Z M10.5,6.42306502 L9.26393202,7.30422607 L9.71999997,5.85636182 L8.5,4.95308506 L10.0179335,4.93941679 L10.5,3.5 L10.9820665,4.93941679 L12.5,4.95308506 L11.28,5.85636182 L11.736068,7.30422607 L10.5,6.42306502 L10.5,6.42306502 Z"/></g></g></svg>