<svg xmlns="http://www.w3.org/2000/svg" xmlns:xlink="http://www.w3.org/1999/xlink" width="21" height="15" version="1.1" viewBox="0 0 21 15"><title>MT</title><desc>Created with sketchtool.</desc><defs><linearGradient id="linearGradient-1" x1="50%" x2="50%" y1="0%" y2="100%"><stop offset="0%" stop-color="#FFF"/><stop offset="100%" stop-color="#F0F0F0"/></linearGradient><linearGradient id="linearGradient-2" x1="50%" x2="50%" y1="0%" y2="100%"><stop offset="0%" stop-color="#DE233C"/><stop offset="100%" stop-color="#CD1931"/></linearGradient><path id="path-3" d="M4,3 L4,2 L3,2 L3,3 L2,3 L2,4 L3,4 L3,5 L4,5 L4,4 L5,4 L5,3 L4,3 Z"/></defs><g id="Symbols" fill="none" fill-rule="evenodd" stroke="none" stroke-width="1"><g id="MT"><rect id="FlagBackground" width="21" height="15" x="0" y="0" fill="url(#linearGradient-1)"/><rect id="Rectangle-2-Copy-2" width="10" height="15" x="11" y="0" fill="url(#linearGradient-2)"/><rect id="Rectangle-2" width="11" height="15" x="0" y="0" fill="url(#linearGradient-1)"/><g id="Rectangle-364"><use fill="#CCCCCD" fill-rule="evenodd" xlink:href="#path-3"/><path stroke="#7B716A" stroke-opacity=".66" stroke-width=".5" d="M4.25,2.75 L5.25,2.75 L5.25,4.25 L4.25,4.25 L4.25,5.25 L2.75,5.25 L2.75,4.25 L1.75,4.25 L1.75,2.75 L2.75,2.75 L2.75,1.75 L4.25,1.75 L4.25,2.75 Z"/></g><circle id="Oval-20" cx="3.5" cy="3.5" r="1" fill="#7B716A"/></g></g></svg>