<svg xmlns="http://www.w3.org/2000/svg" xmlns:xlink="http://www.w3.org/1999/xlink" width="21" height="15" version="1.1" viewBox="0 0 21 15"><title>MV</title><desc>Created with sketchtool.</desc><defs><linearGradient id="linearGradient-1" x1="50%" x2="50%" y1="0%" y2="100%"><stop offset="0%" stop-color="#FFF"/><stop offset="100%" stop-color="#F0F0F0"/></linearGradient><linearGradient id="linearGradient-2" x1="50%" x2="50%" y1="0%" y2="100%"><stop offset="0%" stop-color="#F32249"/><stop offset="100%" stop-color="#D01739"/></linearGradient><linearGradient id="linearGradient-3" x1="50%" x2="50%" y1="0%" y2="100%"><stop offset="0%" stop-color="#15A04F"/><stop offset="100%" stop-color="#0F7E3D"/></linearGradient></defs><g id="Symbols" fill="none" fill-rule="evenodd" stroke="none" stroke-width="1"><g id="MV"><rect id="FlagBackground" width="21" height="15" x="0" y="0" fill="url(#linearGradient-1)"/><rect id="Mask-Copy" width="21" height="15" x="0" y="0" fill="url(#linearGradient-2)"/><rect id="Rectangle-1568" width="15" height="9" x="3" y="3" fill="url(#linearGradient-3)" rx=".5"/><path id="Oval-12" fill="url(#linearGradient-1)" d="M12.25,4.08054488 C12.008383,4.02779398 11.7574373,4 11.5,4 C9.56700338,4 8,5.56700338 8,7.5 C8,9.43299662 9.56700338,11 11.5,11 C11.7574373,11 12.008383,10.972206 12.25,10.9194551 C10.677409,10.57612 9.5,9.17555931 9.5,7.5 C9.5,5.82444069 10.677409,4.42387999 12.25,4.08054488 Z"/></g></g></svg>