<svg xmlns="http://www.w3.org/2000/svg" xmlns:xlink="http://www.w3.org/1999/xlink" width="21" height="15" version="1.1" viewBox="0 0 21 15"><title>MY</title><desc>Created with sketchtool.</desc><defs><linearGradient id="linearGradient-1" x1="50%" x2="50%" y1="0%" y2="100%"><stop offset="0%" stop-color="#FFF"/><stop offset="100%" stop-color="#F0F0F0"/></linearGradient><linearGradient id="linearGradient-2" x1="50%" x2="50%" y1="0%" y2="100%"><stop offset="0%" stop-color="#E1244A"/><stop offset="100%" stop-color="#BE1134"/></linearGradient><linearGradient id="linearGradient-3" x1="50%" x2="50%" y1="0%" y2="100%"><stop offset="0%" stop-color="#0C3F8E"/><stop offset="100%" stop-color="#032A67"/></linearGradient><linearGradient id="linearGradient-4" x1="50%" x2="50%" y1="0%" y2="100%"><stop offset="0%" stop-color="#FFD34F"/><stop offset="100%" stop-color="#FFCB2F"/></linearGradient></defs><g id="Symbols" fill="none" fill-rule="evenodd" stroke="none" stroke-width="1"><g id="MY"><rect id="FlagBackground" width="21" height="15" x="0" y="0" fill="url(#linearGradient-1)"/><path id="Rectangle-537" fill="url(#linearGradient-2)" d="M10,0 L21,0 L21,1 L10,1 L10,0 Z M10,2 L21,2 L21,3 L10,3 L10,2 Z M10,4 L21,4 L21,5 L10,5 L10,4 Z M10,6 L21,6 L21,7 L10,7 L10,6 Z M0,8 L21,8 L21,9 L0,9 L0,8 Z M0,10 L21,10 L21,11 L0,11 L0,10 Z M0,12 L21,12 L21,13 L0,13 L0,12 Z M0,14 L21,14 L21,15 L0,15 L0,14 Z"/><rect id="Rectangle-1568" width="12" height="8" x="0" y="0" fill="url(#linearGradient-3)"/><path id="Oval-12" fill="url(#linearGradient-4)" d="M6.87363497,1.6568923 C6.60168078,1.55545057 6.30731598,1.5 6,1.5 C4.61928813,1.5 3.5,2.61928813 3.5,4 C3.5,5.38071187 4.61928813,6.5 6,6.5 C6.30731598,6.5 6.60168078,6.44454943 6.87363497,6.3431077 C6.36024587,6.75416668 5.70883166,7 5,7 C3.34314575,7 2,5.65685425 2,4 C2,2.34314575 3.34314575,1 5,1 C5.70883166,1 6.36024587,1.24583332 6.87363497,1.6568923 Z M8,4.81999999 L7.13223252,5.80193774 L7.35889819,4.51126163 L6.05014418,4.44504187 L7.20055912,3.81753284 L6.43633704,2.7530204 L7.64421534,3.26120553 L8,2 L8.35578466,3.26120553 L9.56366296,2.7530204 L8.79944088,3.81753284 L9.94985582,4.44504187 L8.64110181,4.51126163 L8.86776748,5.80193774 L8,4.81999999 Z"/></g></g></svg>