<svg xmlns="http://www.w3.org/2000/svg" xmlns:xlink="http://www.w3.org/1999/xlink" width="21" height="15" version="1.1" viewBox="0 0 21 15"><title>NA</title><desc>Created with sketchtool.</desc><defs><linearGradient id="linearGradient-1" x1="50%" x2="50%" y1="0%" y2="100%"><stop offset="0%" stop-color="#FFF"/><stop offset="100%" stop-color="#F0F0F0"/></linearGradient><linearGradient id="linearGradient-2" x1="50%" x2="50%" y1="0%" y2="100%"><stop offset="0%" stop-color="#0C4799"/><stop offset="100%" stop-color="#05387E"/></linearGradient><polygon id="path-3" points="3.121 12.304 24.121 2.304 3.121 2.304"/><filter id="filter-4" width="107.1%" height="115%" x="-3.6%" y="-7.5%" filterUnits="objectBoundingBox"><feMorphology in="SourceAlpha" operator="dilate" radius=".25" result="shadowSpreadOuter1"/><feOffset dx="0" dy="0" in="shadowSpreadOuter1" result="shadowOffsetOuter1"/><feColorMatrix in="shadowOffsetOuter1" type="matrix" values="0 0 0 0 0 0 0 0 0 0 0 0 0 0 0 0 0 0 0.06 0"/></filter><linearGradient id="linearGradient-5" x1="50%" x2="50%" y1="0%" y2="100%"><stop offset="0%" stop-color="#FFD243"/><stop offset="100%" stop-color="#FFCD2F"/></linearGradient><polygon id="path-6" points="6.621 6.804 5.856 7.652 5.914 6.511 4.774 6.569 5.621 5.804 4.774 5.039 5.914 5.097 5.856 3.956 6.621 4.804 7.387 3.956 7.329 5.097 8.469 5.039 7.621 5.804 8.469 6.569 7.329 6.511 7.387 7.652"/><filter id="filter-7" width="112.5%" height="125%" x="-6.2%" y="-6.2%" filterUnits="objectBoundingBox"><feOffset dx="0" dy=".5" in="SourceAlpha" result="shadowOffsetOuter1"/><feColorMatrix in="shadowOffsetOuter1" type="matrix" values="0 0 0 0 0 0 0 0 0 0 0 0 0 0 0 0 0 0 0.06 0"/></filter><linearGradient id="linearGradient-8" x1="50%" x2="50%" y1="0%" y2="100%"><stop offset="0%" stop-color="#1BAC55"/><stop offset="100%" stop-color="#149447"/></linearGradient><polygon id="path-9" points="3.121 17.304 24.121 17.304 24.121 7.304"/><filter id="filter-10" width="107.1%" height="115%" x="-3.6%" y="-7.5%" filterUnits="objectBoundingBox"><feMorphology in="SourceAlpha" operator="dilate" radius=".25" result="shadowSpreadOuter1"/><feOffset dx="0" dy="0" in="shadowSpreadOuter1" result="shadowOffsetOuter1"/><feColorMatrix in="shadowOffsetOuter1" type="matrix" values="0 0 0 0 0 0 0 0 0 0 0 0 0 0 0 0 0 0 0.06 0"/></filter><polygon id="path-11" points="5.433 19.304 25.75 6.609 21.81 .304 1.493 12.999"/><filter id="filter-12" width="106.2%" height="107.9%" x="-3.1%" y="-3.9%" filterUnits="objectBoundingBox"><feMorphology in="SourceAlpha" operator="dilate" radius=".25" result="shadowSpreadOuter1"/><feOffset dx="0" dy="0" in="shadowSpreadOuter1" result="shadowOffsetOuter1"/><feColorMatrix in="shadowOffsetOuter1" type="matrix" values="0 0 0 0 0 0 0 0 0 0 0 0 0 0 0 0 0 0 0.06 0"/></filter><linearGradient id="linearGradient-13" x1="50%" x2="50%" y1="0%" y2="100%"><stop offset="0%" stop-color="#E52347"/><stop offset="100%" stop-color="#D01739"/></linearGradient></defs><g id="Symbols" fill="none" fill-rule="evenodd" stroke="none" stroke-width="1"><g id="NA"><rect id="FlagBackground" width="21" height="15" x="0" y="0" fill="url(#linearGradient-1)"/><g id="Group-2" transform="translate(-3.120000, -2.300000)"><g id="Rectangle-2"><use fill="#000" fill-opacity="1" filter="url(#filter-4)" xlink:href="#path-3"/><use fill="url(#linearGradient-2)" fill-rule="evenodd" xlink:href="#path-3"/></g><g id="Star-31"><use fill="#000" fill-opacity="1" filter="url(#filter-7)" xlink:href="#path-6"/><use fill="url(#linearGradient-5)" fill-rule="evenodd" xlink:href="#path-6"/></g><g id="Rectangle-2"><use fill="#000" fill-opacity="1" filter="url(#filter-10)" xlink:href="#path-9"/><use fill="url(#linearGradient-8)" fill-rule="evenodd" xlink:href="#path-9"/></g><g id="Rectangle-2"><use fill="#000" fill-opacity="1" filter="url(#filter-12)" xlink:href="#path-11"/><use fill="url(#linearGradient-1)" fill-rule="evenodd" xlink:href="#path-11"/></g><polygon id="Rectangle-2" fill="url(#linearGradient-13)" points="2.65 19.608 27.243 4.24 24.593 0 0 15.368"/></g></g></g></svg>