<svg xmlns="http://www.w3.org/2000/svg" xmlns:xlink="http://www.w3.org/1999/xlink" width="21" height="15" version="1.1" viewBox="0 0 21 15"><title>NR</title><desc>Created with sketchtool.</desc><defs><linearGradient id="linearGradient-1" x1="50%" x2="50%" y1="0%" y2="100%"><stop offset="0%" stop-color="#FFF"/><stop offset="100%" stop-color="#F0F0F0"/></linearGradient><linearGradient id="linearGradient-2" x1="50%" x2="50%" y1="0%" y2="100%"><stop offset="0%" stop-color="#0744A7"/><stop offset="100%" stop-color="#00307D"/></linearGradient><linearGradient id="linearGradient-3" x1="50%" x2="50%" y1="0%" y2="100%"><stop offset="0%" stop-color="#FCC747"/><stop offset="100%" stop-color="#FEC539"/></linearGradient></defs><g id="Symbols" fill="none" fill-rule="evenodd" stroke="none" stroke-width="1"><g id="NR"><rect id="FlagBackground" width="21" height="15" x="0" y="0" fill="url(#linearGradient-1)"/><rect id="Mask-Copy" width="21" height="15" x="0" y="0" fill="url(#linearGradient-2)"/><rect id="Rectangle-1337" width="21" height="2" x="0" y="6" fill="url(#linearGradient-3)"/><polygon id="Star-27" fill="url(#linearGradient-1)" points="5.5 12.25 4.727 13.378 4.765 12.011 3.477 12.469 4.311 11.386 3 11 4.311 10.614 3.477 9.531 4.765 9.989 4.727 8.622 5.5 9.75 6.273 8.622 6.235 9.989 7.523 9.531 6.689 10.614 8 11 6.689 11.386 7.523 12.469 6.235 12.011 6.273 13.378"/></g></g></svg>