<svg xmlns="http://www.w3.org/2000/svg" xmlns:xlink="http://www.w3.org/1999/xlink" width="21" height="15" version="1.1" viewBox="0 0 21 15"><title>OM</title><desc>Created with sketchtool.</desc><defs><linearGradient id="linearGradient-1" x1="50%" x2="50%" y1="0%" y2="100%"><stop offset="0%" stop-color="#FFF"/><stop offset="100%" stop-color="#F0F0F0"/></linearGradient><linearGradient id="linearGradient-2" x1="50%" x2="50%" y1="0%" y2="100%"><stop offset="0%" stop-color="#138E16"/><stop offset="100%" stop-color="#0F7F12"/></linearGradient><linearGradient id="linearGradient-3" x1="50%" x2="50%" y1="0%" y2="100%"><stop offset="0%" stop-color="#ED2B35"/><stop offset="100%" stop-color="#D91B25"/></linearGradient></defs><g id="Symbols" fill="none" fill-rule="evenodd" stroke="none" stroke-width="1"><g id="OM"><rect id="FlagBackground" width="21" height="15" x="0" y="0" fill="url(#linearGradient-1)"/><rect id="Rectangle-2" width="21" height="5" x="0" y="10" fill="url(#linearGradient-2)"/><polygon id="Rectangle-2" fill="url(#linearGradient-3)" points="0 15 7 15 7 10 21 10 21 5 7 5 7 0 0 0"/><polygon id="Star-32" fill="url(#linearGradient-1)" points="3.5 3.534 2.632 4.802 3.083 3.333 1.55 3.445 2.98 2.881 1.936 1.753 3.268 2.519 3.5 1 3.732 2.519 5.064 1.753 4.02 2.881 5.45 3.445 3.917 3.333 4.368 4.802"/><rect id="Rectangle-2" width="14" height="5" x="7" y="0" fill="url(#linearGradient-1)"/></g></g></svg>