<svg xmlns="http://www.w3.org/2000/svg" xmlns:xlink="http://www.w3.org/1999/xlink" width="21" height="15" version="1.1" viewBox="0 0 21 15"><title>PA</title><desc>Created with sketchtool.</desc><defs><linearGradient id="linearGradient-1" x1="50%" x2="50%" y1="0%" y2="100%"><stop offset="0%" stop-color="#FFF"/><stop offset="100%" stop-color="#F0F0F0"/></linearGradient><linearGradient id="linearGradient-2" x1="50%" x2="50%" y1="0%" y2="100%"><stop offset="0%" stop-color="#E52448"/><stop offset="100%" stop-color="#D01739"/></linearGradient><linearGradient id="linearGradient-3" x1="50%" x2="50%" y1="0%" y2="100%"><stop offset="0%" stop-color="#1367AE"/><stop offset="100%" stop-color="#0A5492"/></linearGradient></defs><g id="Symbols" fill="none" fill-rule="evenodd" stroke="none" stroke-width="1"><g id="PA"><rect id="FlagBackground" width="21" height="15" x="0" y="0" fill="url(#linearGradient-1)"/><rect id="Rectangle-2" width="21" height="7" x="0" y="0" fill="url(#linearGradient-2)"/><rect id="Rectangle-2" width="21" height="8" x="0" y="7" fill="url(#linearGradient-3)"/><path id="Rectangle-2" fill="url(#linearGradient-1)" d="M0,7 L0,0 L10,0 L10,7 L0,7 Z M10,15 L10,7 L21,7 L21,15 L10,15 Z"/><polygon id="Star-33" fill="url(#linearGradient-3)" points="5 4.32 3.824 5.118 4.22 3.753 3.098 2.882 4.518 2.837 5 1.5 5.482 2.837 6.902 2.882 5.78 3.753 6.176 5.118"/><polygon id="Star-33" fill="url(#linearGradient-2)" points="15.5 11.82 14.324 12.618 14.72 11.253 13.598 10.382 15.018 10.337 15.5 9 15.982 10.337 17.402 10.382 16.28 11.253 16.676 12.618"/></g></g></svg>