<svg xmlns="http://www.w3.org/2000/svg" xmlns:xlink="http://www.w3.org/1999/xlink" width="21" height="15" version="1.1" viewBox="0 0 21 15"><title>PY</title><desc>Created with sketchtool.</desc><defs><linearGradient id="linearGradient-1" x1="50%" x2="50%" y1="0%" y2="100%"><stop offset="0%" stop-color="#FFF"/><stop offset="100%" stop-color="#F0F0F0"/></linearGradient><linearGradient id="linearGradient-2" x1="50%" x2="50%" y1="0%" y2="100%"><stop offset="0%" stop-color="#E33F39"/><stop offset="100%" stop-color="#D32E28"/></linearGradient><linearGradient id="linearGradient-3" x1="50%" x2="50%" y1="0%" y2="100%"><stop offset="0%" stop-color="#124BBA"/><stop offset="100%" stop-color="#073DA6"/></linearGradient></defs><g id="Symbols" fill="none" fill-rule="evenodd" stroke="none" stroke-width="1"><g id="PY"><rect id="FlagBackground" width="21" height="15" x="0" y="0" fill="url(#linearGradient-1)"/><rect id="Rectangle-2" width="21" height="5" x="0" y="0" fill="url(#linearGradient-2)"/><rect id="Rectangle-2" width="21" height="5" x="0" y="10" fill="url(#linearGradient-3)"/><rect id="Rectangle-2" width="21" height="5" x="0" y="5" fill="url(#linearGradient-1)"/><path id="Oval-1" fill="#398153" fill-rule="nonzero" d="M10.5,9 C11.3284271,9 12,8.32842712 12,7.5 C12,6.67157288 11.3284271,6 10.5,6 C9.67157288,6 9,6.67157288 9,7.5 C9,8.32842712 9.67157288,9 10.5,9 Z M10.5,9.5 C9.3954305,9.5 8.5,8.6045695 8.5,7.5 C8.5,6.3954305 9.3954305,5.5 10.5,5.5 C11.6045695,5.5 12.5,6.3954305 12.5,7.5 C12.5,8.6045695 11.6045695,9.5 10.5,9.5 Z"/><circle id="Oval-29" cx="10.5" cy="7.5" r="1" fill="#E5CF58"/></g></g></svg>