<svg xmlns="http://www.w3.org/2000/svg" xmlns:xlink="http://www.w3.org/1999/xlink" width="21" height="15" version="1.1" viewBox="0 0 21 15"><title>RW</title><desc>Created with sketchtool.</desc><defs><linearGradient id="linearGradient-1" x1="50%" x2="50%" y1="0%" y2="100%"><stop offset="0%" stop-color="#FFF"/><stop offset="100%" stop-color="#F0F0F0"/></linearGradient><linearGradient id="linearGradient-2" x1="50%" x2="50%" y1="0%" y2="100%"><stop offset="0%" stop-color="#2D754D"/><stop offset="100%" stop-color="#235F3E"/></linearGradient><linearGradient id="linearGradient-3" x1="50%" x2="50%" y1="0%" y2="100%"><stop offset="0%" stop-color="#25B1EB"/><stop offset="100%" stop-color="#1AA3DC"/></linearGradient><linearGradient id="linearGradient-4" x1="50%" x2="50%" y1="0%" y2="100%"><stop offset="0%" stop-color="#FAD546"/><stop offset="100%" stop-color="#FAD12F"/></linearGradient><linearGradient id="linearGradient-5" x1="50%" x2="50%" y1="0%" y2="100%"><stop offset="0%" stop-color="#EDC738"/><stop offset="100%" stop-color="#E5BE2A"/></linearGradient></defs><g id="Symbols" fill="none" fill-rule="evenodd" stroke="none" stroke-width="1"><g id="RW"><rect id="FlagBackground" width="21" height="15" x="0" y="0" fill="url(#linearGradient-1)"/><rect id="Rectangle-2" width="21" height="4" x="0" y="11" fill="url(#linearGradient-2)"/><rect id="Rectangle-2" width="21" height="7" x="0" y="0" fill="url(#linearGradient-3)"/><rect id="Rectangle-2" width="21" height="4" x="0" y="7" fill="url(#linearGradient-4)"/><polygon id="Star-31" fill="url(#linearGradient-5)" points="16 4.5 15.235 5.348 15.293 4.207 14.152 4.265 15 3.5 14.152 2.735 15.293 2.793 15.235 1.652 16 2.5 16.765 1.652 16.707 2.793 17.848 2.735 17 3.5 17.848 4.265 16.707 4.207 16.765 5.348"/></g></g></svg>