<svg xmlns="http://www.w3.org/2000/svg" xmlns:xlink="http://www.w3.org/1999/xlink" width="21" height="15" version="1.1" viewBox="0 0 21 15"><title>SC</title><desc>Created with sketchtool.</desc><defs><linearGradient id="linearGradient-1" x1="50%" x2="50%" y1="0%" y2="100%"><stop offset="0%" stop-color="#FFF"/><stop offset="100%" stop-color="#F0F0F0"/></linearGradient><linearGradient id="linearGradient-2" x1="50%" x2="50%" y1="0%" y2="100%"><stop offset="0%" stop-color="#1DBE4F"/><stop offset="100%" stop-color="#159B3F"/></linearGradient><linearGradient id="linearGradient-3" x1="50%" x2="50%" y1="0%" y2="100%"><stop offset="0%" stop-color="#0858B4"/><stop offset="100%" stop-color="#013F87"/></linearGradient><linearGradient id="linearGradient-4" x1="50%" x2="50%" y1="0%" y2="100%"><stop offset="0%" stop-color="#ED3535"/><stop offset="100%" stop-color="#D62828"/></linearGradient><linearGradient id="linearGradient-5" x1="50%" x2="50%" y1="0%" y2="100%"><stop offset="0%" stop-color="#08964F"/><stop offset="100%" stop-color="#017B3E"/></linearGradient><linearGradient id="linearGradient-6" x1="50%" x2="50%" y1="0%" y2="100%"><stop offset="0%" stop-color="#FFDD67"/><stop offset="100%" stop-color="#FDD856"/></linearGradient></defs><g id="Symbols" fill="none" fill-rule="evenodd" stroke="none" stroke-width="1"><g id="SC"><rect id="FlagBackground" width="21" height="15" x="0" y="0" fill="url(#linearGradient-1)"/><rect id="Mask-Copy" width="21" height="15" x="0" y="0" fill="url(#linearGradient-2)"/><polygon id="Rectangle-253" fill="url(#linearGradient-3)" points="0 0 7 0 0 15"/><polygon id="Rectangle-253" fill="url(#linearGradient-4)" points="14 0 21 0 21 5 0 15"/><polygon id="Rectangle-253" fill="url(#linearGradient-5)" points="21 15 21 10 0 15"/><polygon id="Rectangle-253" fill="url(#linearGradient-6)" points="7 0 14 0 0 15"/><polygon id="Rectangle-253" fill="url(#linearGradient-1)" points="21 10 21 5 0 15"/></g></g></svg>