<svg xmlns="http://www.w3.org/2000/svg" xmlns:xlink="http://www.w3.org/1999/xlink" width="21" height="15" version="1.1" viewBox="0 0 21 15"><title>SI</title><desc>Created with sketchtool.</desc><defs><linearGradient id="linearGradient-1" x1="50%" x2="50%" y1="0%" y2="100%"><stop offset="0%" stop-color="#FFF"/><stop offset="100%" stop-color="#F0F0F0"/></linearGradient><linearGradient id="linearGradient-2" x1="50%" x2="50%" y1="0%" y2="100%"><stop offset="0%" stop-color="#0C47B7"/><stop offset="100%" stop-color="#073DA4"/></linearGradient><linearGradient id="linearGradient-3" x1="50%" x2="50%" y1="0%" y2="100%"><stop offset="0%" stop-color="#E53B35"/><stop offset="100%" stop-color="#D32E28"/></linearGradient></defs><g id="Symbols" fill="none" fill-rule="evenodd" stroke="none" stroke-width="1"><g id="SI"><rect id="FlagBackground" width="21" height="15" x="0" y="0" fill="url(#linearGradient-1)"/><rect id="Rectangle-2" width="21" height="7" x="0" y="3" fill="url(#linearGradient-2)"/><rect id="Rectangle-2" width="21" height="5" x="0" y="10" fill="url(#linearGradient-3)"/><path id="Rectangle-2" fill="url(#linearGradient-1)" d="M0,5 L0,0 L21,0 L21,5 L6.9329834,5 L6.9329834,4 C6.9329834,4 6.22775438,3.5 5.5,3.5 C4.77224562,3.5 4,4 4,4 L4,5 L0,5 Z M5.5,7 C4.94771525,7 4.5,6.55228475 4.5,6 C4.5,5.44771525 4.94771525,5 5.5,5 C6.05228475,5 6.5,5.44771525 6.5,6 C6.5,6.55228475 6.05228475,7 5.5,7 Z"/></g></g></svg>