<svg xmlns="http://www.w3.org/2000/svg" xmlns:xlink="http://www.w3.org/1999/xlink" width="21" height="15" version="1.1" viewBox="0 0 21 15"><title>SS</title><desc>Created with sketchtool.</desc><defs><linearGradient id="linearGradient-1" x1="50%" x2="50%" y1="0%" y2="100%"><stop offset="0%" stop-color="#FFF"/><stop offset="100%" stop-color="#F0F0F0"/></linearGradient><linearGradient id="linearGradient-2" x1="50%" x2="50%" y1="0%" y2="100%"><stop offset="0%" stop-color="#262626"/><stop offset="100%" stop-color="#0D0D0D"/></linearGradient><linearGradient id="linearGradient-3" x1="50%" x2="50%" y1="0%" y2="100%"><stop offset="0%" stop-color="#E22A32"/><stop offset="100%" stop-color="#D61C24"/></linearGradient><linearGradient id="linearGradient-4" x1="50%" x2="50%" y1="0%" y2="100%"><stop offset="0%" stop-color="#2CA244"/><stop offset="100%" stop-color="#218736"/></linearGradient><linearGradient id="linearGradient-5" x1="50%" x2="50%" y1="0%" y2="100%"><stop offset="0%" stop-color="#185AC6"/><stop offset="100%" stop-color="#104CAD"/></linearGradient><linearGradient id="linearGradient-6" x1="50%" x2="50%" y1="0%" y2="100%"><stop offset="0%" stop-color="#FDE14A"/><stop offset="100%" stop-color="#FCDC34"/></linearGradient></defs><g id="Symbols" fill="none" fill-rule="evenodd" stroke="none" stroke-width="1"><g id="SS"><rect id="FlagBackground" width="21" height="15" x="0" y="0" fill="url(#linearGradient-1)"/><rect id="Rectangle-2" width="21" height="4" x="0" y="0" fill="url(#linearGradient-2)"/><rect id="Rectangle-2" width="21" height="5" x="0" y="5" fill="url(#linearGradient-3)"/><rect id="Rectangle-2" width="21" height="1" x="0" y="4" fill="url(#linearGradient-1)"/><rect id="Rectangle-2" width="21" height="4" x="0" y="11" fill="url(#linearGradient-4)"/><rect id="Rectangle-2" width="21" height="1" x="0" y="10" fill="url(#linearGradient-1)"/><polygon id="Rectangle-83" fill="url(#linearGradient-5)" points="0 0 10 7.5 0 15"/><polygon id="Star-53" fill="url(#linearGradient-6)" points="3.836 7.987 3.153 9.267 2.948 7.83 1.519 7.576 2.823 6.937 2.623 5.5 3.633 6.542 4.939 5.908 4.26 7.191 5.266 8.237"/></g></g></svg>