<svg xmlns="http://www.w3.org/2000/svg" xmlns:xlink="http://www.w3.org/1999/xlink" width="21" height="15" version="1.1" viewBox="0 0 21 15"><title>ST</title><desc>Created with sketchtool.</desc><defs><linearGradient id="linearGradient-1" x1="50%" x2="50%" y1="0%" y2="100%"><stop offset="0%" stop-color="#FFF"/><stop offset="100%" stop-color="#F0F0F0"/></linearGradient><linearGradient id="linearGradient-2" x1="50%" x2="50%" y1="0%" y2="100%"><stop offset="0%" stop-color="#2ACB41"/><stop offset="100%" stop-color="#21AC35"/></linearGradient><linearGradient id="linearGradient-3" x1="50%" x2="50%" y1="0%" y2="100%"><stop offset="0%" stop-color="#FDD043"/><stop offset="100%" stop-color="#FFCD2F"/></linearGradient><linearGradient id="linearGradient-4" x1="50%" x2="50%" y1="0%" y2="100%"><stop offset="0%" stop-color="#E71E43"/><stop offset="100%" stop-color="#D01739"/></linearGradient><linearGradient id="linearGradient-5" x1="50%" x2="50%" y1="0%" y2="100%"><stop offset="0%" stop-color="#262626"/><stop offset="100%" stop-color="#0D0D0D"/></linearGradient></defs><g id="Symbols" fill="none" fill-rule="evenodd" stroke="none" stroke-width="1"><g id="ST"><rect id="FlagBackground" width="21" height="15" x="0" y="0" fill="url(#linearGradient-1)"/><rect id="Rectangle-2" width="21" height="5" x="0" y="10" fill="url(#linearGradient-2)"/><rect id="Rectangle-2" width="21" height="5" x="0" y="0" fill="url(#linearGradient-2)"/><rect id="Rectangle-2" width="21" height="5" x="0" y="5" fill="url(#linearGradient-3)"/><polygon id="Rectangle-83" fill="url(#linearGradient-4)" points="0 0 8 7.5 0 15"/><polygon id="Star-33" fill="url(#linearGradient-5)" points="11 8.32 9.824 9.118 10.22 7.753 9.098 6.882 10.518 6.837 11 5.5 11.482 6.837 12.902 6.882 11.78 7.753 12.176 9.118"/><polygon id="Star-33" fill="url(#linearGradient-5)" points="16 8.32 14.824 9.118 15.22 7.753 14.098 6.882 15.518 6.837 16 5.5 16.482 6.837 17.902 6.882 16.78 7.753 17.176 9.118"/></g></g></svg>