<svg xmlns="http://www.w3.org/2000/svg" xmlns:xlink="http://www.w3.org/1999/xlink" width="21" height="15" version="1.1" viewBox="0 0 21 15"><title>SV</title><desc>Created with sketchtool.</desc><defs><linearGradient id="linearGradient-1" x1="50%" x2="50%" y1="0%" y2="100%"><stop offset="0%" stop-color="#FFF"/><stop offset="100%" stop-color="#F0F0F0"/></linearGradient><linearGradient id="linearGradient-2" x1="50%" x2="50%" y1="0%" y2="100%"><stop offset="0%" stop-color="#1B57C4"/><stop offset="100%" stop-color="#154BAD"/></linearGradient><linearGradient id="linearGradient-3" x1="50%" x2="50%" y1="0%" y2="100%"><stop offset="0%" stop-color="#3C7839"/><stop offset="100%" stop-color="#31642E"/></linearGradient></defs><g id="Symbols" fill="none" fill-rule="evenodd" stroke="none" stroke-width="1"><g id="SV"><rect id="FlagBackground" width="21" height="15" x="0" y="0" fill="url(#linearGradient-1)"/><rect id="Rectangle-2" width="21" height="5" x="0" y="0" fill="url(#linearGradient-2)"/><rect id="Rectangle-2" width="21" height="5" x="0" y="10" fill="url(#linearGradient-2)"/><rect id="Rectangle-2-Copy-4" width="21" height="5" x="0" y="5" fill="url(#linearGradient-1)"/><path id="Oval-12" fill="url(#linearGradient-3)" d="M9.29996095,5.89988286 C8.81420448,6.26476719 8.5,6.8456904 8.5,7.5 C8.5,8.6045695 9.3954305,9.5 10.5,9.5 C11.6045695,9.5 12.5,8.6045695 12.5,7.5 C12.5,6.8456904 12.1857955,6.26476719 11.700039,5.89988286 L11,8 L10,8 L9.29996095,5.89988286 Z"/><polygon id="Rectangle-483" fill="#F9C92E" points="10.5 5.5 11 8 10 8"/></g></g></svg>