<svg xmlns="http://www.w3.org/2000/svg" xmlns:xlink="http://www.w3.org/1999/xlink" width="21" height="15" version="1.1" viewBox="0 0 21 15"><title>SZ</title><desc>Created with sketchtool.</desc><defs><linearGradient id="linearGradient-1" x1="50%" x2="50%" y1="0%" y2="100%"><stop offset="0%" stop-color="#FFF"/><stop offset="100%" stop-color="#F0F0F0"/></linearGradient><linearGradient id="linearGradient-2" x1="50%" x2="50%" y1="0%" y2="100%"><stop offset="0%" stop-color="#486BCA"/><stop offset="100%" stop-color="#3E5FBA"/></linearGradient><linearGradient id="linearGradient-3" x1="50%" x2="50%" y1="0%" y2="100%"><stop offset="0%" stop-color="#FFDF20"/><stop offset="100%" stop-color="#FFDA00"/></linearGradient><linearGradient id="linearGradient-4" x1="50%" x2="50%" y1="0%" y2="100%"><stop offset="0%" stop-color="#CF1615"/><stop offset="100%" stop-color="#B20D0C"/></linearGradient><ellipse id="path-5" cx="4.5" cy="2.5" rx="4.5" ry="2.5"/><linearGradient id="linearGradient-7" x1="50%" x2="50%" y1="0%" y2="100%"><stop offset="0%" stop-color="#262626"/><stop offset="100%" stop-color="#0D0D0D"/></linearGradient></defs><g id="Symbols" fill="none" fill-rule="evenodd" stroke="none" stroke-width="1"><g id="SZ"><rect id="FlagBackground" width="21" height="15" x="0" y="0" fill="url(#linearGradient-1)"/><rect id="Rectangle-2" width="21" height="3" x="0" y="0" fill="url(#linearGradient-2)"/><rect id="Rectangle-2" width="21" height="3" x="0" y="12" fill="url(#linearGradient-2)"/><rect id="Rectangle-2" width="21" height="9" x="0" y="3" fill="url(#linearGradient-3)"/><rect id="Rectangle-2-Copy-4" width="21" height="7" x="0" y="4" fill="url(#linearGradient-4)"/><g id="Oval-190" transform="translate(6.000000, 5.000000)"><mask id="mask-6" fill="#fff"><use xlink:href="#path-5"/></mask><use id="Mask" fill="url(#linearGradient-1)" xlink:href="#path-5"/><polygon id="Rectangle-1180" fill="url(#linearGradient-7)" points="0 0 5 0 5 5 1 5" mask="url(#mask-6)" transform="translate(2.500000, 2.500000) scale(-1, 1) translate(-2.500000, -2.500000)"/><circle id="Oval-191" cx="5.5" cy="2.5" r="1" fill="#1A1A1A" mask="url(#mask-6)"/><circle id="Oval-191" cx="3.5" cy="2.5" r="1" fill="#F6F6F6" mask="url(#mask-6)"/></g></g></g></svg>