<svg xmlns="http://www.w3.org/2000/svg" xmlns:xlink="http://www.w3.org/1999/xlink" width="21" height="15" version="1.1" viewBox="0 0 21 15"><title>TG</title><desc>Created with sketchtool.</desc><defs><linearGradient id="linearGradient-1" x1="50%" x2="50%" y1="0%" y2="100%"><stop offset="0%" stop-color="#FFF"/><stop offset="100%" stop-color="#F0F0F0"/></linearGradient><linearGradient id="linearGradient-2" x1="50%" x2="50%" y1="0%" y2="100%"><stop offset="0%" stop-color="#FFD44D"/><stop offset="100%" stop-color="#FFCD2F"/></linearGradient><linearGradient id="linearGradient-3" x1="50%" x2="50%" y1="0%" y2="100%"><stop offset="0%" stop-color="#159A74"/><stop offset="100%" stop-color="#0C6A4F"/></linearGradient><linearGradient id="linearGradient-4" x1="50%" x2="50%" y1="0%" y2="100%"><stop offset="0%" stop-color="#ED1F45"/><stop offset="100%" stop-color="#D01739"/></linearGradient></defs><g id="Symbols" fill="none" fill-rule="evenodd" stroke="none" stroke-width="1"><g id="TG"><rect id="FlagBackground" width="21" height="15" x="0" y="0" fill="url(#linearGradient-1)"/><rect id="Mask-Copy" width="21" height="15" x="0" y="0" fill="url(#linearGradient-2)"/><path id="Rectangle-537" fill="url(#linearGradient-3)" d="M9,0 L21,0 L21,3 L9,3 L9,0 Z M9,6 L21,6 L21,9 L9,9 L9,6 Z M0,12 L21,12 L21,15 L0,15 L0,12 Z"/><rect id="Rectangle-1568" width="9" height="9" x="0" y="0" fill="url(#linearGradient-4)"/><polygon id="Star-8" fill="url(#linearGradient-1)" points="4.5 5.67 2.737 6.927 3.387 4.862 1.647 3.573 3.812 3.553 4.5 1.5 5.188 3.553 7.353 3.573 5.613 4.862 6.263 6.927"/></g></g></svg>