<svg xmlns="http://www.w3.org/2000/svg" xmlns:xlink="http://www.w3.org/1999/xlink" width="21" height="15" version="1.1" viewBox="0 0 21 15"><title>TL</title><desc>Created with sketchtool.</desc><defs><linearGradient id="linearGradient-1" x1="50%" x2="50%" y1="0%" y2="100%"><stop offset="0%" stop-color="#FFF"/><stop offset="100%" stop-color="#F0F0F0"/></linearGradient><linearGradient id="linearGradient-2" x1="50%" x2="50%" y1="0%" y2="100%"><stop offset="0%" stop-color="#FF323E"/><stop offset="100%" stop-color="#FD0D1B"/></linearGradient><linearGradient id="linearGradient-3" x1="50%" x2="50%" y1="0%" y2="100%"><stop offset="0%" stop-color="#FFCC51"/><stop offset="100%" stop-color="#FFC63C"/></linearGradient><linearGradient id="linearGradient-4" x1="50%" x2="50%" y1="0%" y2="100%"><stop offset="0%" stop-color="#262626"/><stop offset="100%" stop-color="#0D0D0D"/></linearGradient></defs><g id="Symbols" fill="none" fill-rule="evenodd" stroke="none" stroke-width="1"><g id="TL"><rect id="FlagBackground" width="21" height="15" x="0" y="0" fill="url(#linearGradient-1)"/><rect id="Mask-Copy" width="21" height="15" x="0" y="0" fill="url(#linearGradient-2)"/><polygon id="Rectangle-83" fill="url(#linearGradient-3)" points="0 0 13 7.5 0 15"/><polygon id="Rectangle-83" fill="url(#linearGradient-4)" points="0 0 9 7.5 0 15"/><polygon id="Star-8" fill="url(#linearGradient-1)" points="3.92 8.262 2.619 9.19 3.099 7.666 1.815 6.715 3.413 6.7 3.92 5.185 4.428 6.7 6.026 6.715 4.742 7.666 5.222 9.19" transform="translate(3.920454, 7.187336) rotate(-30.000000) translate(-3.920454, -7.187336)"/></g></g></svg>