<svg xmlns="http://www.w3.org/2000/svg" xmlns:xlink="http://www.w3.org/1999/xlink" width="21" height="15" version="1.1" viewBox="0 0 21 15"><title>TO</title><desc>Created with sketchtool.</desc><defs><linearGradient id="linearGradient-1" x1="50%" x2="50%" y1="0%" y2="100%"><stop offset="0%" stop-color="#FFF"/><stop offset="100%" stop-color="#F0F0F0"/></linearGradient><linearGradient id="linearGradient-2" x1="50%" x2="50%" y1="0%" y2="100%"><stop offset="0%" stop-color="#E20F1B"/><stop offset="100%" stop-color="#C00711"/></linearGradient><linearGradient id="linearGradient-3" x1="50%" x2="50%" y1="0%" y2="100%"><stop offset="0%" stop-color="#DF101B"/><stop offset="100%" stop-color="#C00711"/></linearGradient></defs><g id="Symbols" fill="none" fill-rule="evenodd" stroke="none" stroke-width="1"><g id="TO"><rect id="FlagBackground" width="21" height="15" x="0" y="0" fill="url(#linearGradient-1)"/><rect id="Mask-Copy" width="21" height="15" x="0" y="0" fill="url(#linearGradient-2)"/><rect id="Rectangle-2" width="12" height="8" x="0" y="0" fill="url(#linearGradient-1)"/><path id="Rectangle-1703" fill="url(#linearGradient-3)" d="M7,3 L7,1.2578125 C7,1.10414124 6.89020264,1 6.75476074,1 L5.24523926,1 C5.10752869,1 5,1.11542659 5,1.2578125 L5,3 L3.2578125,3 C3.10414124,3 3,3.10979736 3,3.24523926 L3,4.75476074 C3,4.89247131 3.11542659,5 3.2578125,5 L5,5 L5,6.7421875 C5,6.89585876 5.10979736,7 5.24523926,7 L6.75476074,7 C6.89247131,7 7,6.88457341 7,6.7421875 L7,5 L8.7421875,5 C8.89585876,5 9,4.89020264 9,4.75476074 L9,3.24523926 C9,3.10752869 8.88457341,3 8.7421875,3 L7,3 L7,3 Z"/></g></g></svg>