<svg xmlns="http://www.w3.org/2000/svg" xmlns:xlink="http://www.w3.org/1999/xlink" width="21" height="15" version="1.1" viewBox="0 0 21 15"><title>TW</title><desc>Created with sketchtool.</desc><defs><linearGradient id="linearGradient-1" x1="50%" x2="50%" y1="0%" y2="100%"><stop offset="0%" stop-color="#FFF"/><stop offset="100%" stop-color="#F0F0F0"/></linearGradient><linearGradient id="linearGradient-2" x1="50%" x2="50%" y1="0%" y2="93.767%"><stop offset="0%" stop-color="#FE3030"/><stop offset="100%" stop-color="red"/></linearGradient><linearGradient id="linearGradient-3" x1="50%" x2="50%" y1="0%" y2="100%"><stop offset="0%" stop-color="#0909B6"/><stop offset="100%" stop-color="#000096"/></linearGradient></defs><g id="Symbols" fill="none" fill-rule="evenodd" stroke="none" stroke-width="1"><g id="TW"><rect id="FlagBackground" width="21" height="15" x="0" y="0" fill="url(#linearGradient-1)"/><rect id="Rectangle-2" width="21" height="15" x="0" y="0" fill="url(#linearGradient-2)"/><polygon id="Rectangle-2" fill="url(#linearGradient-3)" points="0 8 11 8 11 0 0 0"/><polygon id="Star-27" fill="url(#linearGradient-1)" points="5.5 5.25 4.543 6.31 4.616 4.884 3.19 4.957 4.25 4 3.19 3.043 4.616 3.116 4.543 1.69 5.5 2.75 6.457 1.69 6.384 3.116 7.81 3.043 6.75 4 7.81 4.957 6.384 4.884 6.457 6.31"/></g></g></svg>