<svg xmlns="http://www.w3.org/2000/svg" xmlns:xlink="http://www.w3.org/1999/xlink" width="21" height="15" version="1.1" viewBox="0 0 21 15"><title>VC</title><desc>Created with sketchtool.</desc><defs><linearGradient id="linearGradient-1" x1="50%" x2="50%" y1="0%" y2="100%"><stop offset="0%" stop-color="#FFF"/><stop offset="100%" stop-color="#F0F0F0"/></linearGradient><linearGradient id="linearGradient-2" x1="50%" x2="50%" y1="0%" y2="100%"><stop offset="0%" stop-color="#08C47A"/><stop offset="100%" stop-color="#009F60"/></linearGradient><linearGradient id="linearGradient-3" x1="50%" x2="50%" y1="0%" y2="100%"><stop offset="0%" stop-color="#0C87E1"/><stop offset="100%" stop-color="#0073C7"/></linearGradient><linearGradient id="linearGradient-4" x1="50%" x2="50%" y1="0%" y2="100%"><stop offset="0%" stop-color="#FFD147"/><stop offset="100%" stop-color="#FECA2F"/></linearGradient><linearGradient id="linearGradient-5" x1="50%" x2="50%" y1="0%" y2="100%"><stop offset="0%" stop-color="#00C778"/><stop offset="100%" stop-color="#009F60"/></linearGradient></defs><g id="Symbols" fill="none" fill-rule="evenodd" stroke="none" stroke-width="1"><g id="VC"><rect id="FlagBackground" width="21" height="15" x="0" y="0" fill="url(#linearGradient-1)"/><rect id="Mask" width="11" height="15" x="10" y="0" fill="url(#linearGradient-2)"/><rect id="Rectangle-2" width="7" height="15" x="0" y="0" fill="url(#linearGradient-3)"/><rect id="Rectangle-2-Copy" width="9" height="15" x="6" y="0" fill="url(#linearGradient-4)"/><path id="Rectangle-1194" fill="url(#linearGradient-5)" d="M11,6 L12.5,3 L14,6 L12.5,9 L11,6 Z M7,6 L8.5,3 L10,6 L8.5,9 L7,6 Z M9,10 L10.5,7 L12,10 L10.5,13 L9,10 Z"/></g></g></svg>