<svg xmlns="http://www.w3.org/2000/svg" xmlns:xlink="http://www.w3.org/1999/xlink" width="21" height="15" version="1.1" viewBox="0 0 21 15"><title>VU</title><desc>Created with sketchtool.</desc><defs><linearGradient id="linearGradient-1" x1="50%" x2="50%" y1="0%" y2="100%"><stop offset="0%" stop-color="#FFF"/><stop offset="100%" stop-color="#F0F0F0"/></linearGradient><linearGradient id="linearGradient-2" x1="50%" x2="50%" y1="0%" y2="100%"><stop offset="0%" stop-color="#27AB53"/><stop offset="100%" stop-color="#219447"/></linearGradient><linearGradient id="linearGradient-3" x1="50%" x2="50%" y1="0%" y2="100%"><stop offset="0%" stop-color="#EC2547"/><stop offset="100%" stop-color="#CE1A39"/></linearGradient><linearGradient id="linearGradient-4" x1="50%" x2="50%" y1="0%" y2="100%"><stop offset="0%" stop-color="#262626"/><stop offset="100%" stop-color="#0D0D0D"/></linearGradient><linearGradient id="linearGradient-5" x1="50%" x2="50%" y1="0%" y2="100%"><stop offset="0%" stop-color="#FFD449"/><stop offset="100%" stop-color="#FDCD34"/></linearGradient></defs><g id="Symbols" fill="none" fill-rule="evenodd" stroke="none" stroke-width="1"><g id="VU"><rect id="FlagBackground" width="21" height="15" x="0" y="0" fill="url(#linearGradient-1)"/><rect id="Rectangle-2" width="21" height="6" x=".2" y="9" fill="url(#linearGradient-2)"/><rect id="Rectangle-2" width="21" height="6" x=".2" y="0" fill="url(#linearGradient-3)"/><path id="Combined-Shape" fill="url(#linearGradient-4)" d="M8.2,6 L21.2,6 L21.2,9 L8.2,9 L0.2,15 L0.2,0 L8.2,6 Z"/><path id="Combined-Shape" fill="url(#linearGradient-5)" fill-rule="nonzero" d="M6.86666667,7.5 L-0.6,1.9 L-1,1.6 L-0.4,0.8 L0,1.1 L7.86666667,7 L20.7,7 L21.2,7 L21.2,8 L20.7,8 L7.7,8 L8,7.9 L0,13.9 L-0.4,14.2 L-1,13.4 L-0.6,13.1 L6.86666667,7.5 Z"/><path id="Combined-Shape" fill="url(#linearGradient-5)" d="M2.7,9 C1.87157288,9 1.2,8.32842712 1.2,7.5 C1.2,6.67157288 1.87157288,6 2.7,6 C3.52842712,6 4.2,6.67157288 4.2,7.5 C4.2,8.22719484 3.38679788,9.86267318 2.7,10 C2.60439134,10.0191172 2.80123229,9 2.7,9 Z M2.7,8.25 C2.97614237,8.5 3.2,7.77614237 3.2,7.5 C3.2,7.22385763 2.97614237,7 2.7,7 C2.42385763,7 2.2,7.22385763 2.2,7.5 C2.2,7.77614237 2.42385763,8.5 2.7,8.25 Z"/></g></g></svg>