<svg xmlns="http://www.w3.org/2000/svg" xmlns:xlink="http://www.w3.org/1999/xlink" width="21" height="15" version="1.1" viewBox="0 0 21 15"><title>WS</title><desc>Created with sketchtool.</desc><defs><linearGradient id="linearGradient-1" x1="50%" x2="50%" y1="0%" y2="100%"><stop offset="0%" stop-color="#FFF"/><stop offset="100%" stop-color="#F0F0F0"/></linearGradient><linearGradient id="linearGradient-2" x1="50%" x2="50%" y1="0%" y2="100%"><stop offset="0%" stop-color="#E31F37"/><stop offset="100%" stop-color="#CC162C"/></linearGradient><linearGradient id="linearGradient-3" x1="50%" x2="50%" y1="0%" y2="100%"><stop offset="0%" stop-color="#083B9A"/><stop offset="100%" stop-color="#042E7D"/></linearGradient></defs><g id="Symbols" fill="none" fill-rule="evenodd" stroke="none" stroke-width="1"><g id="WS"><rect id="FlagBackground" width="21" height="15" x="0" y="0" fill="url(#linearGradient-1)"/><rect id="Mask-Copy" width="21" height="15" x="0" y="0" fill="url(#linearGradient-2)"/><polygon id="Rectangle-2" fill="url(#linearGradient-3)" points="0 8 11 8 11 0 0 0"/><path id="Star-2" fill="url(#linearGradient-1)" d="M5,7 L4.29289322,7.20710678 L4.5,6.5 L4.29289322,5.79289322 L5,6 L5.70710678,5.79289322 L5.5,6.5 L5.70710678,7.20710678 L5,7 Z M5,2 L4.29289322,2.20710678 L4.5,1.5 L4.29289322,0.792893219 L5,1 L5.70710678,0.792893219 L5.5,1.5 L5.70710678,2.20710678 L5,2 Z M3,4.5 L2.29289322,4.70710678 L2.5,4 L2.29289322,3.29289322 L3,3.5 L3.70710678,3.29289322 L3.5,4 L3.70710678,4.70710678 L3,4.5 Z M7.5,4 L6.79289322,4.20710678 L7,3.5 L6.79289322,2.79289322 L7.5,3 L8.20710678,2.79289322 L8,3.5 L8.20710678,4.20710678 L7.5,4 Z M6.25,5.5 C6.11192881,5.5 6,5.38807119 6,5.25 C6,5.11192881 6.11192881,5 6.25,5 C6.38807119,5 6.5,5.11192881 6.5,5.25 C6.5,5.38807119 6.38807119,5.5 6.25,5.5 Z"/></g></g></svg>