<svg xmlns="http://www.w3.org/2000/svg" xmlns:xlink="http://www.w3.org/1999/xlink" width="21" height="15" version="1.1" viewBox="0 0 21 15"><title>ZA</title><desc>Created with sketchtool.</desc><defs><linearGradient id="linearGradient-1" x1="50%" x2="50%" y1="0%" y2="100%"><stop offset="0%" stop-color="#FFF"/><stop offset="100%" stop-color="#F0F0F0"/></linearGradient><linearGradient id="linearGradient-2" x1="50%" x2="50%" y1="0%" y2="100%"><stop offset="0%" stop-color="#06A86E"/><stop offset="100%" stop-color="#007A4E"/></linearGradient><linearGradient id="linearGradient-3" x1="50%" x2="50%" y1="0%" y2="100%"><stop offset="0%" stop-color="#FFBF2E"/><stop offset="100%" stop-color="#FFB612"/></linearGradient><linearGradient id="linearGradient-4" x1="50%" x2="50%" y1="0%" y2="100%"><stop offset="0%" stop-color="#262626"/><stop offset="100%" stop-color="#0D0D0D"/></linearGradient><linearGradient id="linearGradient-5" x1="50%" x2="50%" y1="0%" y2="100%"><stop offset="0%" stop-color="#F44E46"/><stop offset="100%" stop-color="#DF3931"/></linearGradient><linearGradient id="linearGradient-6" x1="50%" x2="50%" y1="0%" y2="100%"><stop offset="0%" stop-color="#072CB4"/><stop offset="100%" stop-color="#042396"/></linearGradient></defs><g id="Symbols" fill="none" fill-rule="evenodd" stroke="none" stroke-width="1"><g id="ZA"><rect id="FlagBackground" width="21" height="15" x="0" y="0" fill="url(#linearGradient-1)"/><rect id="Mask" width="21" height="15" x="0" y="0" fill="url(#linearGradient-2)"/><polygon id="Rectangle-83" fill="url(#linearGradient-3)" points="0 2 7 7.5 0 13"/><polygon id="Rectangle-83-Copy-5" fill="url(#linearGradient-4)" points="-1 2.25 5.75 7.5 -1 12.75"/><polygon id="Rectangle-83-Copy" fill="#FFF" points="9 6 2 0 21 0 21 6"/><polygon id="Rectangle-83-Copy-3" fill="url(#linearGradient-5)" points="9.25 5 3.25 0 21 0 21 5"/><polygon id="Rectangle-83-Copy-2" fill="#FFF" points="2 15 21 15 21 9 9 9"/><polygon id="Rectangle-83-Copy-4" fill="url(#linearGradient-6)" points="3.25 15 21 15 21 10 9.25 10"/></g></g></svg>