<svg xmlns="http://www.w3.org/2000/svg" xmlns:xlink="http://www.w3.org/1999/xlink" width="21" height="15" version="1.1" viewBox="0 0 21 15"><title>ZW</title><desc>Created with sketchtool.</desc><defs><linearGradient id="linearGradient-1" x1="50%" x2="50%" y1="0%" y2="100%"><stop offset="0%" stop-color="#FFF"/><stop offset="100%" stop-color="#F0F0F0"/></linearGradient><linearGradient id="linearGradient-2" x1="50%" x2="50%" y1="0%" y2="100%"><stop offset="0%" stop-color="#369D0C"/><stop offset="100%" stop-color="#319209"/></linearGradient><linearGradient id="linearGradient-3" x1="50%" x2="50%" y1="0%" y2="100%"><stop offset="0%" stop-color="#262626"/><stop offset="100%" stop-color="#0D0D0D"/></linearGradient><linearGradient id="linearGradient-4" x1="50%" x2="50%" y1="0%" y2="100%"><stop offset="0%" stop-color="#FFD40E"/><stop offset="100%" stop-color="#FFD201"/></linearGradient><linearGradient id="linearGradient-5" x1="50%" x2="50%" y1="0%" y2="100%"><stop offset="0%" stop-color="#F12F1F"/><stop offset="100%" stop-color="#DE2010"/></linearGradient></defs><g id="Symbols" fill="none" fill-rule="evenodd" stroke="none" stroke-width="1"><g id="ZW"><rect id="FlagBackground" width="21" height="15" x="0" y="0" fill="url(#linearGradient-1)"/><rect id="Rectangle-2" width="21" height="2" x="0" y="0" fill="url(#linearGradient-2)"/><rect id="Rectangle-2" width="21" height="2" x="0" y="13" fill="url(#linearGradient-2)"/><rect id="Rectangle-2" width="21" height="2" x="0" y="4" fill="url(#linearGradient-2)"/><rect id="Rectangle-2" width="21" height="2" x="0" y="9" fill="url(#linearGradient-2)"/><rect id="Rectangle-2" width="21" height="3" x="0" y="6" fill="url(#linearGradient-3)"/><rect id="Rectangle-2" width="21" height="2" x="0" y="2" fill="url(#linearGradient-4)"/><rect id="Rectangle-2" width="21" height="2" x="0" y="11" fill="url(#linearGradient-4)"/><polygon id="Rectangle-83" fill="url(#linearGradient-3)" fill-rule="nonzero" points="-1 15 -1 0 0 0 10 7.5 0 15"/><polygon id="Rectangle-83" fill="url(#linearGradient-1)" fill-rule="nonzero" points="0 13.75 8.333 7.5 0 1.25"/><polygon id="Star-8" fill="url(#linearGradient-5)" points="3 8.475 1.531 9.523 2.073 7.801 .622 6.727 2.427 6.711 3 5 3.573 6.711 5.378 6.727 3.927 7.801 4.469 9.523"/></g></g></svg>