<svg id="Capa_1" enable-background="new 0 0 501 501" height="512" viewBox="0 0 501 501" width="512" xmlns="http://www.w3.org/2000/svg"><g><path d="m5.5 256c0-135.309 109.689-244.999 244.998-245 133.929-.001 244.971 111.013 245.002 244.942.007 29.055-5.044 56.928-14.32 82.789-1.856 5.174-7.291 8.109-12.65 6.882-30.141-6.901-62.133-10.613-95.28-10.613-95.627 0-181.645 30.896-241.318 80.121-22.473 18.538-55.793 15.427-73.844-7.439-32.933-41.719-52.588-94.405-52.588-151.682z" fill="#01988c"/><path d="m247.303 494.49c-108.15-25.454-188.655-122.57-188.655-238.49 0-126.331 95.615-230.33 218.426-243.575 122.811 13.245 218.426 117.244 218.426 243.575 0 30.08-5.421 58.893-15.338 85.517-9.713-2.286-19.65-3.994-29.771-5.086-93.57 10.093-171.352 72.865-203.088 158.059z" fill="#08b772"/><path d="m481.69 337.295c-24.583 69.914-79.982 125.312-149.895 149.896-10.487 1.846-21.278 2.81-32.295 2.81-102.173 0-185-82.827-185-185s82.827-185 185-185 185 82.827 185 185c0 11.016-.964 21.807-2.81 32.294z" fill="#f3d373"/><path d="m299.5 120c-38.307 0-73.895 11.643-103.417 31.583-19.94 29.523-31.583 65.11-31.583 103.417 0 102.173 82.827 185 185 185 29.606 0 57.587-6.954 82.4-19.318 21.757-23.951 38.835-52.229 49.792-83.391 1.846-10.486 2.809-21.276 2.809-32.291-.001-102.173-82.828-185-185.001-185zm90 180c-19.33 0-35-15.67-35-35s15.67-35 35-35 35 15.67 35 35-15.67 35-35 35zm50 45c-11.046 0-20-8.954-20-20s8.954-20 20-20 20 8.954 20 20-8.954 20-20 20z" fill="#fcf498"/><path d="m410.5 408.936c0 22.261-11.327 43.081-30.197 54.892-37.636 23.556-82.129 37.172-129.803 37.172-61.153 0-117.074-22.405-160-59.455v-32.609c0-7.198 1.087-14.142 3.104-20.677-4.504-1.273-8.325-2.977-10.775-5.151-.325-.288-.412-.773-.208-1.157 2.288-4.298 7.779-8.681 14.311-12.477-6.645-9.576-11.424-19.235-11.874-26.772-.042-.708.408-1.338 1.087-1.545 9.659-2.94 25.563.048 40.727 5.281 1.318-5.473 3.211-10.174 5.737-13.022.288-.325.773-.412 1.157-.208 2.848 1.516 5.733 4.438 8.459 8.137 5.826-1.571 11.952-2.41 18.274-2.41h180c38.661.001 70.001 31.341 70.001 70.001z" fill="#a62b2b"/><path d="m118.918 104.467c-16.989-31.26-31.025-75.802-22.902-101.742.4-1.279 1.635-2.297 2.967-2.447 27.012-3.033 68.065 19.23 95.517 41.863-8.757 12.93-61.221 56.192-75.582 62.326zm256.352 243.701c.857-1.344 1.519-2.662 1.942-3.933.137-.413-.029-.877-.398-1.107-4.131-2.578-11.078-3.626-18.632-3.647.965-11.616.273-22.37-3.107-29.122-.318-.634-1.022-.955-1.713-.794-9.835 2.285-22.112 12.826-32.627 24.942-3.879-4.08-7.869-7.205-11.481-8.407-.413-.137-.876.03-1.106.399-1.851 2.967-2.913 7.385-3.373 12.437h-114.275c-38.66 0-70 31.34-70 70v54.768c37.678 23.632 82.243 37.296 130 37.296 47.673 0 92.167-13.616 129.803-37.173 18.87-11.811 30.197-32.631 30.197-54.892 0-26.004-14.18-48.697-35.23-60.767z" fill="#c64b1a"/><path d="m312.838 484.806c-11.156-5.041-34.091-4.858-56.872-2.146-3.659-9.646-8.239-17.843-13.497-22.176-.54-.444-1.323-.462-1.882-.041-6.031 4.542-11.437 13.862-15.744 24.69-6.773-3.344-13.459-5.499-18.306-5.031-.436.042-.79.382-.851.815-.617 4.377.859 10.362 3.414 16.599 13.458 2.29 27.289 3.483 41.4 3.483 19.485 0 38.439-2.275 56.61-6.573 2.701-2.71 4.851-5.339 6.301-7.827.414-.708.175-1.454-.573-1.793z" fill="#a62b2b"/><path d="m360.5 60h-220c-1.626 0-3.207.195-4.721.561-16.811-19.775-30.165-42.181-31.273-60.34-.004-.073-.006-.146-.005-.219-1.895-.013-3.737.077-5.518.277-1.332.149-2.566 1.168-2.967 2.447-5.198 16.599-1.322 40.816 6.595 64.295-2.372.145-4.55.496-6.478 1.084-.669.204-1.117.848-1.075 1.546.452 7.536 5.23 17.192 11.874 26.767-6.531 3.796-12.021 8.177-14.31 12.476-.206.386-.119.869.209 1.16 5.219 4.628 16.655 7.128 27.669 7.87v71.013c0 1.792.037 3.576.109 5.351-5.532-2.744-10.855-4.471-14.958-4.271-.438.021-.807.343-.889.773-1.369 7.219 2.826 19.152 8.235 29.355-11.438-.493-21.34.24-27.671 2.757-.763.303-1.035 1.038-.655 1.765 5.675 10.847 23.845 24.844 43.453 36.755-3.067 9.85-4.515 19.128-3.046 25.78.151.683.757 1.18 1.457 1.193 7.548.143 17.551-3.862 27.618-9.731 3.271 6.809 7.207 12.627 11.311 15.247.369.235.857.187 1.173-.117.941-.906 1.824-2.035 2.649-3.343 10.615 8.503 22.591 15.376 35.551 20.239-3.767 3.271-6.681 6.655-8 9.842-.167.405-.034.877.32 1.135 3.939 2.863 10.793 4.4 18.326 4.956-1.784 11.516-1.855 22.29 1.036 29.264.268.646.952 1.029 1.643.919 1.997-.315 4.115-.955 6.317-1.867 5.177 9 14.891 15.061 26.021 15.061 13.255 0 24.502-8.597 28.47-20.519 8.136-1.864 15.518-4.745 19.205-8.573.304-.315.352-.804.117-1.173-2.62-4.104-8.438-8.041-15.247-11.311 3.147-5.397 5.757-10.775 7.48-15.767 52.212-16.879 89.975-65.89 89.975-123.722v-108.935c0-11.046-8.954-20-20-20zm-236.223 160.965c.055-.044.11-.088.165-.132.013.051.026.102.039.153-.068-.007-.136-.014-.204-.021z" fill="#a62b2b"/><path d="m414.332 224.663c-5.288 10.113-21.442 22.966-39.496 34.313 3.603 10.762 5.431 21.049 3.831 28.251-.153.687-.783 1.157-1.487 1.169-7.544.129-17.531-3.872-27.582-9.732-3.271 6.81-7.207 12.628-11.313 15.248-.366.234-.856.185-1.17-.116-1.288-1.24-2.469-2.899-3.54-4.864-13.814 11.489-30.046 20.17-47.82 25.166-11.815 3.321-24.262 3.399-36.088.118-54.883-15.226-95.168-65.548-95.168-125.28v-128.936h206c11.046 0 20 8.954 20 20v108.936c0 1.467-.025 2.928-.073 4.383 4.792-2.174 9.327-3.479 12.924-3.303.434.021.806.345.887.772 1.37 7.219-2.826 19.153-8.235 29.357 11.442-.493 21.347.24 27.677 2.759.726.288 1.014 1.068.653 1.759z" fill="#c64b1a"/><path d="m404.07 123.752c-11.939 7.674-233.247 4.111-246.124-13.364-12.681-17.208 9.497-56.828 51.304-89.013 1.756-1.352 5.512.307 5.978 2.474 1.154 5.36 3.307 10.306 6.526 14.675 2.322 3.15 5.094 5.859 8.252 8.135 11.188-16.637 38.487-34.532 73.204-46.491 2.097-.722 4.206.998 3.958 3.202-.614 5.448-.15 10.822 1.509 15.989 1.566 4.877 4.106 9.285 7.474 13.188 26.38-18.877 59.856-34.869 83.014-32.269 1.332.15 2.567 1.168 2.967 2.447 6.233 19.906-.582 50.766-11.768 78.172 2.09.327 3.948.846 5.483 1.588.394.19.609.631.516 1.059-1.035 4.758-5.127 10.467-10.381 15.895 8.995 7.408 16.219 15.402 18.702 22.532.231.661-.025 1.402-.614 1.781z" fill="#c64b1a"/><path d="m131.198 37.435c16.58.432 43.334 17.391 63.711 34.815 3.043 2.602 3.281 7.21.54 10.129-10.254 10.922-33.008 29.039-40.563 31.508-14.561-24.016-28.421-57.242-25.453-74.996.143-.86.893-1.479 1.765-1.456zm242.99 1.455c-.144-.86-.894-1.479-1.766-1.456-16.58.432-43.334 17.391-63.711 34.815-3.043 2.602-3.281 7.21-.54 10.129 10.254 10.922 33.008 29.039 40.563 31.508 14.562-24.016 28.421-57.242 25.454-74.996zm-123.688 161.11c-5.917 0-11.834 2.253-16.339 6.757-2.929 2.93-2.929 7.678 0 10.607 2.929 2.928 7.678 2.928 10.606 0 3.161-3.162 8.304-3.162 11.465 0 2.929 2.928 7.678 2.928 10.606 0 2.929-2.93 2.929-7.678 0-10.607-4.503-4.504-10.421-6.757-16.338-6.757z" fill="#f58057"/><path d="m373.058 100.188c-2.829 6.039-12.826 12.633-22.173 16.916-.278.696-36.209-7.299-38.6-7.568-.764-10.917.558-24.979 5.191-30.776.228-.286.627-.379.959-.224 2.88 1.349 5.886 4.329 8.708 8.091 9.906-9.035 21.122-16.59 29.506-17.525.581-.065 1.137.281 1.336.83 2.146 5.931 1.675 14.919-.254 24.461 6.265.752 11.927 2.296 15.104 4.836.285.229.378.628.223.959zm-181.812-21.652c-2.88 1.349-5.886 4.329-8.708 8.091-9.906-9.035-21.122-16.59-29.505-17.525-.581-.065-1.137.281-1.336.83-2.147 5.931-1.675 14.919.254 24.461-6.265.752-11.927 2.296-15.104 4.836-.286.229-.379.627-.224.958 2.829 6.039 12.826 12.633 22.173 16.916.278.696 36.209-7.299 38.6-7.568.764-10.917-.558-24.979-5.191-30.776-.229-.285-.628-.379-.959-.223z" fill="#c64b1a"/><path d="m179.641 105.426c1.666.904 1.769 3.258.187 4.303l-5.933 3.92c-2.096 1.385-1.085 4.649 1.427 4.606l27.596-.471c1.714-.029 2.953 1.629 2.438 3.264l-1.749 5.562c-.492 1.566.626 3.176 2.265 3.261l22.035 1.147c.412.021.812.144 1.165.356l4.508 2.715c6.708 4.039 9.967 12.132 7.638 19.608-.014.046-.029.091-.043.137-8.545 27.171-36.449 42.601-62.327 34.464-25.878-8.138-39.929-36.762-31.384-63.933 1.778-5.654 4.394-10.799 7.656-15.329 5.025-6.979 14.525-9.031 22.085-4.93zm141.718 0c-1.666.904-1.769 3.258-.187 4.303l5.933 3.92c2.096 1.385 1.085 4.649-1.427 4.606l-27.596-.471c-1.714-.029-2.953 1.629-2.439 3.264l1.749 5.562c.492 1.566-.626 3.176-2.265 3.261l-22.035 1.147c-.412.021-.812.144-1.165.356l-4.508 2.715c-6.708 4.039-9.967 12.132-7.638 19.608.014.046.028.091.043.137 8.545 27.171 36.449 42.601 62.327 34.464 25.878-8.138 39.929-36.762 31.384-63.933-1.778-5.654-4.394-10.799-7.656-15.329-5.025-6.979-14.525-9.031-22.085-4.93z" fill="#962437"/><path d="m218 155c0 8.284-6.716 15-15 15s-15-6.716-15-15 6.716-15 15-15 15 6.716 15 15zm80-15c-8.284 0-15 6.716-15 15s6.716 15 15 15 15-6.716 15-15-6.716-15-15-15z" fill="#fc5426"/><path d="m213 140c4.142 0 7.5 3.358 7.5 7.5s-3.358 7.5-7.5 7.5-7.5-3.358-7.5-7.5 3.358-7.5 7.5-7.5zm87.5 7.5c0 4.142 3.358 7.5 7.5 7.5s7.5-3.358 7.5-7.5-3.358-7.5-7.5-7.5-7.5 3.358-7.5 7.5zm-76 99.492c.805 12.395 3.364 25.522 6.734 30.119 2.984-4.07 5.333-10.82 6.39-21.295-3.501-1.362-9.186-5.769-13.124-8.824zm36.876 9.545c1.057 10.475 3.406 16.504 6.39 20.574 3.37-4.597 5.929-15.991 6.734-28.386-4.062 3.666-9.283 6.302-13.124 7.812z" fill="#fff5f5"/><path d="m202 232.5c0 4.142-3.358 7.5-7.5 7.5s-7.5-3.358-7.5-7.5 3.358-7.5 7.5-7.5 7.5 3.358 7.5 7.5zm-27.5-37.5c-4.142 0-7.5 3.358-7.5 7.5s3.358 7.5 7.5 7.5 7.5-3.358 7.5-7.5-3.358-7.5-7.5-7.5zm30 0c-4.142 0-7.5 3.358-7.5 7.5s3.358 7.5 7.5 7.5 7.5-3.358 7.5-7.5-3.358-7.5-7.5-7.5zm140 20c-4.142 0-7.5 3.358-7.5 7.5s3.358 7.5 7.5 7.5 7.5-3.358 7.5-7.5-3.358-7.5-7.5-7.5zm-30 10c-4.142 0-7.5 3.358-7.5 7.5s3.358 7.5 7.5 7.5 7.5-3.358 7.5-7.5-3.358-7.5-7.5-7.5zm-2.5-22.5c0-4.142-3.358-7.5-7.5-7.5s-7.5 3.358-7.5 7.5 3.358 7.5 7.5 7.5 7.5-3.358 7.5-7.5zm-26.603 47.843c-19.568-10.508-50.225-10.508-69.793 0-3.649 1.96-5.02 6.507-3.06 10.155 1.96 3.649 6.506 5.02 10.155 3.06 15.07-8.092 40.531-8.092 55.602 0 1.129.606 2.344.895 3.541.894 2.674 0 5.261-1.433 6.614-3.953 1.96-3.649.59-8.196-3.059-10.156z" fill="#a62b2b"/><path d="m301.828 396.87c8.275-.002 21.446 8.633 30.425 16.897-2.418 3.84-17.663 15.857-21.962 17.312-5.939-10.661-11.26-25.484-9.325-33.53.095-.397.454-.679.862-.679zm41.682-38.783c-.32-.252-.777-.252-1.098 0-6.5 5.121-11.498 20.057-13.433 32.105 4.277 1.519 23.688 1.519 27.965 0-1.936-12.048-6.934-26.983-13.434-32.105zm83.646 0c-.321-.252-.777-.252-1.098 0-6.5 5.121-11.498 20.057-13.433 32.105 4.277 1.519 23.688 1.519 27.965 0-1.936-12.048-6.934-26.983-13.434-32.105zm-28.261 0c-.32-.252-.777-.252-1.098 0-6.074 4.786-10.836 18.141-13.014 29.702-2.177-11.562-6.94-24.917-13.014-29.702-.32-.252-.777-.252-1.098 0-6.5 5.121-11.498 20.057-13.434 32.105 4.15 1.474 22.55 1.518 27.545.131 4.995 1.387 23.395 1.343 27.545-.131-1.934-12.048-6.932-26.983-13.432-32.105zm-198.861 39.462c1.934 8.046-3.386 22.869-9.325 33.53-4.299-1.455-19.543-13.471-21.962-17.312 8.979-8.264 22.15-16.899 30.425-16.897.408 0 .767.282.862.679zm-55.978-7.356c4.277 1.519 23.688 1.519 27.965 0-1.936-12.049-6.934-26.984-13.433-32.105-.32-.252-.777-.252-1.098 0-6.5 5.121-11.498 20.056-13.434 32.105zm-83.646 0c4.277 1.519 23.688 1.519 27.965 0-1.936-12.049-6.934-26.984-13.433-32.105-.321-.252-.777-.252-1.098 0-6.5 5.121-11.498 20.056-13.434 32.105zm28.262 0c4.15 1.474 22.55 1.518 27.545.131 4.995 1.387 23.395 1.343 27.545-.131-1.936-12.049-6.934-26.984-13.434-32.105-.32-.252-.777-.252-1.098 0-6.074 4.786-10.836 18.141-13.014 29.702-2.177-11.562-6.94-24.917-13.014-29.702-.32-.252-.777-.252-1.098 0-6.499 5.121-11.497 20.056-13.432 32.105z" fill="#fc5426"/><path d="m444.5 402.308c0 1.197-.051 2.376-.149 3.534-6.579 8.499-13.705 16.553-21.324 24.11h-8.762c-18.629 0-33.73 15.101-33.73 33.73-10.021 6.288-20.53 11.871-31.456 16.678-11.735-7.164-20.23-17.796-23.31-30.086-2.729-1.619-5.393-3.674-7.859-6.141-10.814-10.814-13.737-25.426-6.527-32.635 3.299-3.299 8.149-4.477 13.475-3.747-.234-1.76-.357-3.58-.357-5.443 0-15.294 8.266-27.692 18.461-27.692 5.514 0 10.463 3.626 13.846 9.375 3.383-5.749 8.332-9.375 13.846-9.375s10.463 3.626 13.846 9.375c3.383-5.749 8.332-9.375 13.846-9.375s10.463 3.626 13.846 9.375c3.383-5.749 8.332-9.375 13.846-9.375 10.196-.001 18.462 12.398 18.462 27.692zm-369.539-27.693c5.514 0 10.463 3.626 13.846 9.375 3.383-5.749 8.332-9.375 13.846-9.375s10.463 3.626 13.846 9.375c3.383-5.749 8.332-9.375 13.846-9.375s10.463 3.626 13.846 9.375c3.383-5.749 8.332-9.375 13.846-9.375 10.196 0 18.461 12.398 18.461 27.692 0 1.863-.123 3.683-.357 5.443 5.326-.729 10.176.448 13.475 3.747 7.21 7.209 4.287 21.821-6.527 32.635-2.467 2.467-5.13 4.522-7.859 6.141-3.08 12.29-11.575 22.922-23.31 30.086-10.927-4.808-21.435-10.391-31.456-16.678 0-18.629-15.102-33.73-33.73-33.73h-8.762c-7.619-7.557-14.745-15.611-21.324-24.11-.098-1.157-.149-2.336-.149-3.534.001-15.293 8.267-27.692 18.462-27.692z" fill="#a62b2b"/><path d="m423.027 429.952c-12.845 12.741-27.093 24.068-42.493 33.73-20.23-1.328-36.034-12.701-36.034-26.537 0-2.604.56-5.119 1.603-7.498 3.97-9.051 14.208-13.515 23.769-11.008 4.531 1.188 9.465 1.84 14.628 1.84s10.097-.652 14.628-1.84c9.561-2.506 19.799 1.957 23.769 11.008.044.102.088.203.13.305zm-344.924-.304c3.97-9.051 14.208-13.515 23.769-11.008 4.531 1.188 9.465 1.84 14.628 1.84s10.097-.652 14.628-1.84c9.561-2.506 19.799 1.957 23.769 11.008 1.043 2.379 1.603 4.895 1.603 7.498 0 13.835-15.805 25.209-36.034 26.537-15.399-9.663-29.648-20.99-42.493-33.73.042-.103.086-.204.13-.305z" fill="#f58057"/></g></svg>