<svg id="Capa_1" enable-background="new 0 0 512 512" height="512" viewBox="0 0 512 512" width="512" xmlns="http://www.w3.org/2000/svg"><g><path d="m500.999 256.083c-.024 72.295-31.361 137.27-81.185 182.1h-33.276c-26.994 0-48.878 21.883-48.878 48.878-25.193 8.904-52.277 13.804-80.488 13.936-134.908.632-245.589-109.011-246.17-243.92-.302-70.312 29.016-133.781 76.194-178.645.963-.916 95.133-56.166 96.473-56.58 22.861-7.054 47.151-10.852 72.329-10.852 135.357-.001 245.046 109.726 245.001 245.083z" fill="#852d4c"/><path d="m444.779 412.173c-16.305 10.98-34.194 19.788-53.253 26.01h-4.989c-9.672 0-18.688 2.81-26.277 7.657-11.588 1.929-23.489 2.933-35.624 2.933-118.941 0-215.362-96.421-215.362-215.363 0-115.84 91.458-210.318 206.105-215.167 106.654 26.544 185.658 122.961 185.62 237.84-.02 59.32-21.122 113.712-56.22 156.09z" fill="#a72975"/><path d="m419.814 438.183c-23.671 21.298-51.514 38.049-82.154 48.878-.608-.551-1.205-1.12-1.791-1.706-14.159-14.159-18.05-34.696-11.676-52.362-10.581 1.223-22.265-1.81-32.45-8.849-1.996-1.379-2.34-4.203-.705-5.996 7.476-8.198 15.365-16.464 23.618-24.718 8.253-8.253 16.52-16.143 24.718-23.618 1.793-1.635 4.617-1.291 5.996.705 7.039 10.186 10.072 21.87 8.849 32.45 17.666-6.375 38.203-2.483 52.362 11.676 6.732 6.736 11.144 14.915 13.233 23.54z" fill="#528ed7"/><path d="m344.614 400.003c-10.658 10.658-27.257 12.539-42.564 6.336 4.098-4.298 8.302-8.605 12.604-12.908 8.253-8.253 16.52-16.143 24.718-23.618 1.792-1.634 4.616-1.292 5.994.703 3.458 5.004 5.949 10.37 7.444 15.788-1.584 5.124-4.305 9.808-8.196 13.699zm58.48 11.467c-14.213-11.785-33.42-14.488-49.924-8.11-11.241 4.344-18.307 15.698-16.586 27.625 1.167 8.084 5.163 15.838 11.991 21.662 12.952 11.048 32.344 11.048 45.297 0 12.378-10.56 15.452-27.465 9.222-41.177z" fill="#69c3da"/><path d="m366.981 425.958c-6.947-6.948-7.715-17.734-2.303-25.531 12.591-1.653 25.69 1.487 36.348 9.418.566 5.753-1.354 11.706-5.761 16.113-7.811 7.811-20.474 7.811-28.284 0zm0 21.214c-7.595 7.595-7.804 19.779-.628 27.627 11.746-5.936 22.95-12.791 33.516-20.468-.971-2.611-2.505-5.06-4.604-7.159-7.811-7.811-20.474-7.811-28.284 0z" fill="#e1ebf0"/><path d="m397.201 449.415c1.136 1.531 2.026 3.188 2.668 4.916-10.566 7.678-21.769 14.532-33.516 20.468-3.926-4.293-5.642-9.885-5.147-15.313 11.066 3.272 23.484.993 32.665-6.839 1.197-1.021 2.307-2.102 3.33-3.232zm-75.472 7.697c1.347 9.428 5.389 18.544 12.124 26.107 3.067-.458 6.018-1.867 8.379-4.228 5.858-5.857 5.858-15.355 0-21.213-5.627-5.627-14.611-5.848-20.503-.666z" fill="#b0dde9"/><path d="m289.999 55c0 13.807-11.193 25-25 25s-25-11.193-25-25 11.193-25 25-25 25 11.193 25 25z" fill="#f57e00"/><path d="m284.999 56.167c-.558 3.281-2.946 8.146-7.667 9-5.013.907-10.02-3.184-10.833-7.167-.855-4.191 3.434-5.82 3.333-11.167-.12-6.376-6.328-9.822-5.333-11.167 1.054-1.425 8.938 1.217 14.5 7 2.365 2.459 7.05 7.331 6 13.501zm-20.104 7.379c-3.048-2.474-7.015-2.637-8.861-.363-1.845 2.273-.87 6.122 2.178 8.596s7.015 2.637 8.861.363c1.846-2.273.871-6.122-2.178-8.596z" fill="#fcb30b"/><path d="m120 365c0 13.807-11.193 25-25 25s-25-11.193-25-25 11.193-25 25-25 25 11.193 25 25z" fill="#04d481"/><path d="m115 366.167c-.558 3.281-2.946 8.146-7.667 9-5.013.907-10.02-3.184-10.833-7.167-.855-4.191 3.434-5.82 3.333-11.167-.12-6.376-6.328-9.822-5.333-11.167 1.054-1.425 8.938 1.217 14.5 7 2.365 2.459 7.05 7.331 6 13.501zm-20.104 7.379c-3.048-2.474-7.015-2.637-8.861-.363-1.845 2.273-.87 6.122 2.178 8.596s7.015 2.637 8.861.363c1.845-2.273.87-6.122-2.178-8.596z" fill="#5affb7"/><path d="m245.474 110.624c-7.477 8.199-15.366 16.466-23.621 24.721-8.254 8.254-16.522 16.144-24.721 23.621-1.794 1.636-4.616 1.284-5.997-.713-8.092-11.712-10.887-25.405-8.007-37.124-24.808 6.142-62.498-9.224-93.766-40.492-.731-.731-1.454-1.466-2.168-2.205 10.425-9.913 21.722-18.918 33.763-26.888 10.036-6.642 72.727-17.898 80.739 1.278 6.764 16.189 8.968 31.561 5.938 43.798 11.719-2.881 25.411-.085 37.124 8.007 2 1.381 2.352 4.203.716 5.997z" fill="#01988c"/><path d="m183.668 21.853c8.081 10.762 14.359 21.804 18.64 32.458-.999 1.406-2.112 2.728-3.344 3.959-12.755 12.755-35.24 12.912-59.579 2.757-8.597-3.587 12.384-26.946 19.393-29.979 8.081-3.497 16.387-6.572 24.89-9.195zm61.1 82.779c-5.004-3.458-10.37-5.949-15.788-7.444-5.123 1.585-9.807 4.306-13.699 8.197-10.658 10.658-12.538 27.257-6.336 42.564 4.298-4.098 8.605-8.302 12.908-12.604 8.253-8.254 16.142-16.52 23.618-24.718 1.634-1.792 1.292-4.616-.703-5.995z" fill="#04d481"/><path d="m205.287 62.688c-2.344 7.252-5.458 14.449-9.367 21.455-8.701 15.594-20.275 28.333-33.314 37.675-10.921-1.52-22.915-5.703-35.05-12.282 15.455-9.557 29.254-23.709 39.256-41.635 8.18-14.659 12.878-30.154 14.327-45.253.841-.27 1.684-.535 2.529-.795 10.223 13.614 17.56 27.676 21.619 40.835zm-51.793-20.972c1.961-3.514 3.721-7.076 5.285-10.669-26.647 11.532-50.841 27.66-71.583 47.385.714.738 1.436 1.473 2.167 2.205 3.526 3.525 7.133 6.849 10.794 9.962 21.049-8.769 40.379-25.66 53.337-48.883z" fill="#e8ce00"/><path d="m120.96 51.545c11.918-7.888 24.565-14.761 37.819-20.497-1.564 3.593-3.324 7.155-5.285 10.669-3.974 7.122-8.547 13.647-13.585 19.527-6.235-2.568-12.596-5.813-18.949-9.699zm62.708-29.692c-.845.26-1.688.526-2.529.795-1.449 15.098-6.148 30.594-14.327 45.253-.033.06-.067.119-.101.179 13.165 1.038 24.505-2.061 32.254-9.81 1.231-1.231 2.345-2.553 3.343-3.959-4.281-10.654-10.559-21.696-18.64-32.458z" fill="#fded32"/><path d="m146.533 447.657-9.899-9.9c-3.124-3.124-3.124-8.19 0-11.314l271.528-271.529c3.124-3.124 8.189-3.124 11.314 0l9.899 9.899c3.124 3.124 3.124 8.19 0 11.314l-271.528 271.53c-3.124 3.124-8.19 3.124-11.314 0z" fill="#b0dde9"/><path d="m286.54 318.963-21.213 21.213-35.355-7.071 21.213-21.213zm-141.421 98.995 35.355 7.071 21.213-21.213-35.355-7.071zm42.426-42.426 35.355 7.071 21.213-21.213-35.355-7.071z" fill="#81ade2"/><path d="m421.953 326.021c-42.629 13.721-91.207 5.025-126.899-27.084-19.658-17.685-32.665-40.005-38.855-63.814-2.06-7.922-1.42-17.112-1.964-25.248-.616-9.21-2.202-17.379-.859-26.547 3.586-24.481 14.189-48.209 31.977-67.983 1.73-1.923 3.504-3.781 5.319-5.577 6.384-6.313 15.33-10.944 22.61-15.673s12.894-9.555 20.813-12.687c23.628-9.343 49.534-11.545 74.318-6.427-2.675.861-5.327 1.81-7.95 2.847-7.92 3.131-13.533 7.958-20.813 12.687s-16.226 9.36-22.61 15.673c-1.815 1.796-3.59 3.654-5.319 5.578-17.789 19.773-28.391 43.502-31.977 67.983-1.343 9.168.243 17.337.859 26.547.544 8.135-.095 17.326 1.964 25.247 6.19 23.809 19.197 46.129 38.855 63.814 17.76 15.978 38.71 26.158 60.531 30.664z" fill="#fbc56d"/><path d="m478.645 289.236c-1.73 1.923-3.504 3.782-5.319 5.577-6.176 6.108-12.884 10.478-19.903 15.103-7.491 4.936-15.342 10.023-23.519 13.256-6.37 2.519-12.906 4.519-19.541 5.996-25.933-2.956-51.228-13.728-72.111-32.514-53.376-48.019-57.719-130.215-9.701-183.592 18.787-20.883 42.805-34.26 68.283-39.933 6.483.739 12.927 1.967 19.271 3.686 9.63 2.609 19.137 8.348 28.106 13.233 6.46 3.519 12.589 5.633 18.521 10.343 2.11 1.675 4.182 3.426 6.213 5.253 53.375 48.019 57.719 130.216 9.7 183.592z" fill="#ffe899"/><path d="m486.741 240.711c-1.309 1.311-5.81 5.822-8.795 4.572-5.694-2.383 4.456-21.408-2.746-40.314-7.117-18.681-24.824-20.58-24.196-34.252.325-7.072 5.428-14.521 11.875-16.236 8.236-2.191 16.372 5.588 19.34 8.425 20.457 19.558 21.675 60.617 4.522 77.805zm-19.999 10.055c-2.639 2.933-2.4 7.451.533 10.089 2.933 2.639 7.451 2.4 10.089-.533 2.639-2.933 2.4-7.451-.533-10.089-2.932-2.639-7.45-2.4-10.089.533z" fill="#fff5f5"/><path d="m330.435 131.614c-11.626-9.38-25.005-16.855-39.762-21.845 12.768-12.626 27.583-22.098 43.422-28.361 8.089 5.78 15.436 12.44 21.93 19.809-3.877 3.394-7.594 7.055-11.126 10.981-5.509 6.125-10.328 12.628-14.464 19.416zm-16.019 40.257c-20.819-1.137-41.81 2.716-61.04 11.458-2.529 17.267-1.568 34.908 2.825 51.8 16.299-14.33 35.439-23.934 55.549-28.714-.647-11.54.236-23.165 2.666-34.544zm31.483 115.33c-11.007-11.927-19.397-25.48-25.13-39.885-10.756 17.056-17.522 36.534-19.502 56.873 14.068 11.168 29.835 18.977 46.274 23.481-2.723-13.595-3.197-27.23-1.642-40.469z" fill="#f52c2c"/><path d="m473.326 294.813c-12.768 12.626-27.583 22.098-43.422 28.36-31.903-22.796-52.255-59.269-54.311-99.043-.096-1.852-2.437-2.614-3.567-1.143-17.291 22.505-27.026 50.397-27.008 79.356-2.302-1.807-4.559-3.703-6.766-5.689-10.789-9.706-19.574-20.809-26.329-32.787 10.076-22.623 26.551-42.322 47.951-56.2 1.559-1.011 1.049-3.424-.794-3.667-21.322-2.819-43.154-.333-63.388 7.345-1.146-13.121-.309-26.402 2.537-39.355 23.164-1.608 46.737 2.952 68.042 13.823 1.658.846 3.496-.805 2.784-2.524-9.971-24.105-27.074-44.956-49.257-59.4 2.694-3.721 5.611-7.336 8.752-10.827 6.414-7.13 13.438-13.384 20.921-18.756 22.973 22.517 37.228 53.193 38.933 86.134.096 1.856 2.44 2.621 3.572 1.147 22.296-29.023 32.027-67.003 24.479-104.676 16.439 4.504 32.206 12.313 46.274 23.481-3.798 39.013-25.203 74.859-58.608 96.522-1.56 1.012-1.042 3.424.801 3.668 36.275 4.794 74.024-5.765 102.872-31.129 4.393 16.892 5.354 34.533 2.825 51.8-35.69 16.223-77.444 15.61-112.912-2.493-1.653-.844-3.483.804-2.774 2.519 13.987 33.814 42.004 61.229 78.393 73.534z" fill="#fc5426"/><path d="m495.112 227.136c-5.898 1.815-11.905 3.204-17.971 4.164.924-7.414 1.656-16.887-1.942-26.331-1.843-4.838-4.396-8.55-7.158-11.633 8.921-3.364 17.533-7.735 25.657-13.105 6.139 14.963 6.562 33.087 1.414 46.905z" fill="#fdbaba"/><path d="m153.672 319.935c-41.137-3.318-98.466-30.988-144.744-61.73-9.805-6.514-11.883-20.05-4.488-29.21 19.428-24.066 55.601-60.239 79.667-79.667 9.16-7.394 22.696-5.317 29.21 4.488 30.742 46.278 58.413 103.608 61.73 144.744.978 12.137-9.238 22.354-21.375 21.375z" fill="#fc5426"/><path d="m98.834 266.35c22.665 22.665 49.18 37.331 74.052 42.898-3.547 6.81-10.934 11.355-19.215 10.687-41.136-3.318-98.466-30.988-144.744-61.73-9.805-6.514-11.883-20.05-4.488-29.21 12.181-15.089 30.945-34.938 49.181-52.435 1.956 29.049 17.683 62.259 45.214 89.79z" fill="#ee4424"/><path d="m133.031 256.855c-7.104 4.262-23.228-9.559-36.015-30.87s-17.394-42.042-10.29-46.305c7.104-4.262 23.228 9.559 36.015 30.87 12.786 21.312 17.393 42.043 10.29 46.305z" fill="#f89575"/><path d="m153.672 319.935c-31.358-2.529-72.125-19.209-110.234-40.614l90.995-90.995c21.405 38.109 38.085 78.877 40.614 110.235.978 12.136-9.238 22.353-21.375 21.374z" fill="#fd9d01"/><path d="m98.834 266.35c22.665 22.665 49.18 37.331 74.052 42.898-3.547 6.81-10.934 11.355-19.215 10.687-31.358-2.529-72.125-19.209-110.234-40.614l35.966-35.966c5.617 7.943 12.106 15.67 19.431 22.995z" fill="#f57e00"/><path d="m133.031 256.855c-7.104 4.262-23.228-9.558-36.015-30.87-.03-.051-.061-.102-.091-.152l21.709-21.709c1.396 2.053 2.77 4.199 4.106 6.427 12.787 21.311 17.394 42.042 10.291 46.304z" fill="#fdcb6b"/><path d="m153.672 319.935c-15.715-1.267-33.794-6.089-52.717-13.279l60.813-60.813c7.189 18.923 12.011 37.002 13.278 52.717.979 12.137-9.237 22.354-21.374 21.375z" fill="#fded32"/><path d="m172.887 309.248c-3.547 6.81-10.934 11.355-19.215 10.687-15.715-1.267-33.794-6.089-52.717-13.279l20.875-20.875c16.636 11.763 34.222 19.699 51.057 23.467z" fill="#f5c02c"/><path d="m152.205 279.18c-3.905 3.905-10.237 3.905-14.142 0s-3.905-10.237 0-14.142 10.237-3.905 14.142 0 3.905 10.237 0 14.142z" fill="#fdf385"/><path d="m200 200c0 5.523-4.477 10-10 10s-10-4.477-10-10 4.477-10 10-10c5.522 0 10 4.477 10 10zm229.999 160c-5.523 0-10 4.477-10 10s4.477 10 10 10 10-4.477 10-10-4.477-10-10-10zm-140 0c-5.523 0-10 4.477-10 10s4.477 10 10 10 10-4.477 10-10-4.477-10-10-10z" fill="#f52c2c"/><path d="m225 445c0 5.523-4.477 10-10 10s-10-4.477-10-10 4.477-10 10-10c5.522 0 10 4.477 10 10zm-5-205c0-5.523-4.477-10-10-10s-10 4.477-10 10 4.477 10 10 10c5.522 0 10-4.477 10-10zm99.999-190c-5.523 0-10 4.477-10 10s4.477 10 10 10 10-4.477 10-10-4.477-10-10-10z" fill="#fdcb6b"/><path d="m389.999 360c0 5.523-4.477 10-10 10s-10-4.477-10-10 4.477-10 10-10 10 4.477 10 10z" fill="#fded32"/></g></svg>