<svg id="Capa_1" enable-background="new 0 0 501 501" height="512" viewBox="0 0 501 501" width="512" xmlns="http://www.w3.org/2000/svg"><g><path d="m490 256c0 135.31-109.69 245-245 245-24.629 0-48.409-3.634-70.833-10.396 0-7.993-6.479-14.472-14.472-14.472 0 0-20.603.857-20.827.749-28.473-13.706-53.888-32.755-74.946-55.847v-6.323c0-12.59-10.206-22.795-22.795-22.795-25.98-38.892-41.127-85.635-41.127-135.916 0-135.31 109.69-245 245-245s245 109.69 245 245z" fill="#463b83"/><path d="m307.977 421.37c-126.112 0-228.346-102.234-228.346-228.346 0-63.018 25.528-120.073 66.806-161.39 30.159-13.269 63.501-20.634 98.563-20.634 135.31 0 245 109.69 245 245 0 35.063-7.366 68.404-20.633 98.563-41.317 41.279-98.372 66.807-161.39 66.807z" fill="#804ba1"/><path d="m300.816 290.099s-.207 24.019-.581 24.899c-3.084 17.161-18.092 30.183-36.141 30.183h-38.19c-20.281 0-36.721-16.441-36.721-36.721 0-6.084 4.932-11.017 11.016-11.017h29.784c2.209 0 4-1.791 4-4v-3.344c0-4.056 3.288-7.344 7.344-7.344h7.344c4.056 0 7.344 3.288 7.344 7.344v3.344c0 2.209 1.791 4 4 4h14.767c2.209 0 4-1.791 4-4v-3.344c0-4.056 3.288-7.344 7.344-7.344h7.344c4.058 0 7.346 3.288 7.346 7.344zm-55.816-290.099c-78.988 0-143.02 55.898-143.02 124.853 0 46.837 29.543 87.65 73.25 109.014v8.495c0 12.168 9.864 22.033 22.033 22.033h55.122c2.209 0 4 1.791 4 4v3.344c0 4.056 3.288 7.344 7.344 7.344h7.344c4.056 0 7.344-3.288 7.344-7.344v-3.344c0-2.209 1.791-4 4-4h10.321c12.168 0 22.033-9.864 22.033-22.033v-8.495c43.706-21.363 73.25-62.176 73.25-109.014-.001-68.955-64.033-124.853-143.021-124.853z" fill="#ffe899"/><path d="m338.789 56.185c-3.119 6.237-18.911 4.662-35.272-3.519s-27.097-19.869-23.978-26.107c3.119-6.237 18.911-4.662 35.272 3.519 16.362 8.181 27.097 19.869 23.978 26.107z" fill="#fdf7bd"/><path d="m140.551 344.406-76.628 76.628c-8.302-9.104-15.927-18.837-22.795-29.118l73.467-73.467c1.303-11.037 4.978-22.666 10.872-34.09 3.895-7.55 13.566-10.054 20.519-5.173.063.044.126.088.189.133 3.656 2.576 5.792 6.787 5.87 11.258.089 5.038.724 9.885 1.924 14.456 4.571 1.199 9.419 1.835 14.456 1.924 4.471.079 8.683 2.214 11.259 5.87.044.063.088.126.133.188 4.881 6.953 2.376 16.624-5.173 20.519-11.427 5.895-23.056 9.569-34.093 10.872zm195.27 16.451c-.013-.076-.026-.152-.04-.228-1.465-8.368-10.074-13.435-18.167-10.851-12.245 3.91-23.067 9.535-31.793 16.417h-81.643c-8.726-6.883-19.547-12.507-31.793-16.417-8.093-2.584-16.702 2.483-18.167 10.851-.013.076-.026.151-.04.227-.764 4.407.704 8.895 3.81 12.112 3.499 3.625 6.477 7.501 8.862 11.582-2.384 4.081-5.363 7.958-8.862 11.582-3.106 3.217-4.574 7.705-3.81 12.112.013.076.026.152.04.228 1.465 8.368 10.074 13.435 18.167 10.851 12.245-3.91 23.067-9.535 31.793-16.418h81.643c8.726 6.883 19.547 12.508 31.793 16.418 8.093 2.584 16.702-2.483 18.167-10.851.013-.076.026-.152.04-.228.764-4.406-.704-8.894-3.81-12.112-3.499-3.625-6.477-7.501-8.862-11.582 2.384-4.081 5.363-7.958 8.862-11.582 3.106-3.217 4.574-7.705 3.81-12.111zm150.03-212.399-.138-.024c-5.704-.989-11.511.852-15.671 4.877-4.736 4.584-9.805 8.483-15.141 11.602-5.337-3.119-10.406-7.019-15.143-11.603-4.159-4.026-9.966-5.866-15.669-4.876l-.139.024c-10.982 1.906-17.644 13.089-14.25 23.706 6.094 19.06 15.382 35.464 26.847 47.714v130.444c0 3.956 3.761 6.829 7.577 5.789 7.056-1.922 14.498-1.922 21.554 0 3.816 1.04 7.577-1.833 7.577-5.789v-130.444c11.466-12.25 20.754-28.656 26.848-47.716 3.394-10.617-3.269-21.8-14.252-23.704zm-131.582 292.399c-.013-.076-.026-.152-.04-.228-1.465-8.368-10.074-13.435-18.167-10.851-12.245 3.91-23.067 9.535-31.793 16.417h-118.539c-8.726-6.883-19.547-12.508-31.792-16.418-8.093-2.584-16.702 2.483-18.167 10.851l-.04.227c-.764 4.407.704 8.895 3.81 12.112 3.499 3.624 6.477 7.501 8.862 11.582-2.385 4.081-5.363 7.958-8.862 11.582-.234.242-.459.492-.674.749 11.311 5.445 23.104 10.046 35.299 13.723 4.167-2.341 8.036-4.917 11.564-7.7h118.538c8.726 6.883 19.548 12.508 31.793 16.418 8.093 2.584 16.702-2.483 18.167-10.851.013-.076.026-.152.04-.228.764-4.406-.704-8.894-3.81-12.112-3.499-3.625-6.477-7.501-8.862-11.582 2.384-4.081 5.363-7.958 8.862-11.582 3.107-3.215 4.574-7.703 3.811-12.109zm21.137-122.408c-1.311-11.105-5.023-22.81-10.981-34.302-3.884-7.491-13.502-9.808-20.409-4.961-.063.044-.126.088-.189.133-3.656 2.576-5.792 6.787-5.87 11.258-.089 5.038-.724 9.885-1.924 14.456-4.655 1.222-9.597 1.858-14.734 1.928-4.411.06-8.499 2.333-11.035 5.942l-.079.112c-4.845 6.897-2.538 16.52 4.945 20.401 11.497 5.963 23.208 9.678 34.319 10.99l46.677 46.677c2.205 2.205 5.868 1.876 7.644-.687l1.052-1.517c4.412-6.363 9.985-11.837 16.425-16.137 2.623-1.751 2.99-5.464.759-7.694zm79.495 48.226c-16.569 0-30 13.432-30 30 0 16.569 13.431 30 30 30s30-13.431 30-30-13.432-30-30-30zm-227.534-69.232h-16.151v-7.344c0-4.056-3.288-7.344-7.344-7.344h-7.344c-4.056 0-7.344 3.288-7.344 7.344 0 0-.441 20.442.581 24.9 3.085 17.161 18.092 30.182 36.14 30.182h38.184c-20.281 0-36.721-16.441-36.721-36.721v-11.017zm-52.137-63.577v8.495c0 12.168 9.864 22.033 22.033 22.033h14.321v7.344c0 4.056 3.288 7.344 7.344 7.344h7.344c4.056 0 7.344-3.288 7.344-7.344v-7.344h-2.584c-12.168 0-33.196-13.704-32.033-34.394.685-12.178-25.594-16.81-34.603-30-16.013-23.444-25.396-44.461-25.396-75.147 0-16.433 2.691-32.229 7.651-46.958 1.205-3.579 5.702-4.533 8.376-1.867 2.502 2.495 5.608 3.972 8.973 3.972 8.284 0 15-8.954 15-20 0-7.741-3.299-14.455-8.124-17.779-2.404-1.656-2.95-4.952-1.157-7.256 8.419-10.819 18.323-20.391 29.4-28.402-56.483 16.69-97.139 63.345-97.139 118.29 0 46.837 29.543 87.65 73.25 109.013zm33.77-183.866c5.523 0 10-5.597 10-12.5 0-6.904-4.477-12.5-10-12.5s-10 5.596-10 12.5c0 6.903 4.477 12.5 10 12.5z" fill="#fbc56d"/><path d="m260 395v51.196h38.703c6.553 0 12.175 5.127 12.294 11.679.122 6.675-5.252 12.125-11.9 12.125h-34.097c-2.761 0-5 2.239-5 5v25.548c-4.962.299-9.963.452-15 .452s-10.038-.152-15-.452v-25.548c0-2.761-2.239-5-5-5h-3.703c-6.553 0-12.175-5.127-12.294-11.679-.122-6.675 5.252-12.125 11.9-12.125h9.097v-51.196c0-2.761-2.239-5-5-5h-3.703c-6.553 0-12.175-5.127-12.294-11.679-.122-6.675 5.252-12.125 11.9-12.125h77.802c6.553 0 12.175 5.127 12.294 11.679.122 6.675-5.252 12.125-11.9 12.125h-34.099c-2.761 0-5 2.239-5 5zm-80.265-82.097c-2.536-3.61-6.624-5.882-11.034-5.942-5.137-.07-10.078-.706-14.734-1.928-1.199-4.571-1.835-9.418-1.924-14.456-.078-4.417-2.163-8.579-5.737-11.163-1.176 1.088-2.188 2.398-2.968 3.91-5.894 11.424-9.568 23.053-10.872 34.09l-64.775 73.708c-2.879 3.276-3.082 8.132-.456 11.613.031.041.061.081.091.121 3.369 4.447 9.903 4.869 13.848.924l59.374-59.374c11.111-1.312 22.822-5.027 34.319-10.99 7.482-3.881 9.789-13.503 4.945-20.401zm195.671 5.546c-1.311-11.105-5.024-22.81-10.981-34.302-3.884-7.491-13.502-9.807-20.409-4.961-.063.044-.126.088-.189.133-3.656 2.576-5.792 6.787-5.87 11.258-.089 5.038-.724 9.885-1.924 14.456-4.655 1.222-9.597 1.858-14.734 1.928-3.579.049-6.946 1.554-9.443 4.049 12.538 6.997 25.425 11.315 37.593 12.752l41.996 41.996c4.723 4.723 12.522 4.211 16.588-1.087 3.378-4.401 2.97-10.625-.953-14.548zm87.094 59.649c-6.904 0-12.5 5.597-12.5 12.5 0 6.904 5.596 12.5 12.5 12.5s12.5-5.596 12.5-12.5c0-6.903-5.596-12.5-12.5-12.5zm23.509-229.613c-.099-.017-8.634-2.444-16.274 4.78-4.761 4.501-9.527 8.546-14.833 11.647-5.307-3.101-10.348-6.974-15.062-11.524-3.938-3.802-9.338-5.715-14.737-5.1-.637 3.276-.488 6.765.606 10.189 5.763 18.048 14.091 33.966 24.292 46.734v114.136c0 6.422 5.206 11.627 11.627 11.627 6.422 0 11.628-5.206 11.628-11.627v-99.473c11.476-12.261 20.771-28.684 26.864-47.766 3.36-10.522-3.23-21.717-14.111-23.623z" fill="#ffe899"/><path d="m266.947 216.369c1.292 4.451-1.536 9.092-6.082 9.995-5.862 1.165-12.064 1.79-18.481 1.79s-12.619-.625-18.481-1.79c-4.546-.903-7.374-5.544-6.082-9.995 3.935-13.556 10.877-24.765 19.59-31.805 2.89-2.335 7.055-2.335 9.945 0 8.714 7.04 15.656 18.249 19.591 31.805zm-69.685-135.582c-18.253 0-33.049 23.017-33.049 51.41s14.797 51.41 33.049 51.41c18.253 0 33.049-23.017 33.049-51.41s-14.796-51.41-33.049-51.41zm95.476 0c-18.253 0-33.049 23.017-33.049 51.41s14.797 51.41 33.049 51.41c18.253 0 33.049-23.017 33.049-51.41s-14.797-51.41-33.049-51.41z" fill="#012d4e"/><path d="m325.787 132.197c0 24.246-10.79 44.572-25.309 49.992-12.663-7.669-21.701-27.806-21.701-51.44 0-21.785 7.679-40.597 18.797-49.415 15.96 3.64 28.213 25.026 28.213 50.863zm-72.836 57.728c-7.047 7.484-12.656 18.053-16.04 30.47-.754 2.768-.104 5.604 1.473 7.677 1.324.054 2.658.082 4.002.082 6.417 0 12.619-.625 18.481-1.79 4.546-.903 7.374-5.544 6.082-9.995-3.052-10.509-7.91-19.605-13.998-26.444zm-50.852-108.592c-11.118 8.818-18.797 27.63-18.797 49.415 0 23.634 9.039 43.771 21.701 51.44 14.518-5.42 25.309-25.746 25.309-49.992-.001-25.836-12.254-47.222-28.213-50.863z" fill="#463b83"/></g></svg>