<svg id="Capa_1" enable-background="new 0 0 501 501" height="512" viewBox="0 0 501 501" width="512" xmlns="http://www.w3.org/2000/svg"><g><path d="m495.5 256c0 135.31-109.69 245-245 245s-245-109.69-245-245 109.69-245 245-245 245 109.69 245 245z" fill="#f52c2c"/><path d="m490.29 205.5c-23.277 111.081-121.792 194.5-239.79 194.5s-216.513-83.419-239.789-194.5c23.276-111.082 121.791-194.5 239.789-194.5s216.513 83.418 239.79 194.5z" fill="#fc5426"/><path d="m234.5 100c0 27.614-22.386 50-50 50-.075 0-.15-.001-.224-.001.149 1.647.224 3.315.224 5.001 0 30.376-24.624 55-55 55s-55-24.624-55-55c0-30.375 24.624-55 55-55 1.686 0 3.354.076 5.001.225 0-.075-.001-.15-.001-.225 0-27.614 22.386-50 50-50s50 22.386 50 50z" fill="#08b772"/><path d="m344.5 20c0 11.046-8.954 20-20 20s-20-8.954-20-20 8.954-20 20-20 20 8.954 20 20zm35 90c-1.758 0-3.493.101-5.198.297-2.386-28.174-26.01-50.297-54.802-50.297-5.834 0-11.457.909-16.733 2.592-5.387-18.819-22.718-32.592-43.267-32.592-24.853 0-45 20.147-45 45 0 5.75 1.079 11.248 3.045 16.303-24.627 5.459-43.045 27.427-43.045 53.697 0 30.376 24.624 55 55 55 26.46 0 48.556-18.685 53.813-43.581 9.671 8.457 22.331 13.581 36.187 13.581 5.834 0 11.457-.908 16.733-2.592 5.387 18.818 22.718 32.592 43.267 32.592 24.853 0 45-20.147 45-45s-20.147-45-45-45z" fill="#04d481"/><path d="m432.318 187.273h-2.233c10.212 23.701 15.87 49.826 15.87 77.273 0 107.946-87.509 195.454-195.455 195.454s-195.455-87.508-195.455-195.454c0-27.447 5.658-53.571 15.87-77.273h-2.233c-10.041 0-18.182-8.14-18.182-18.182 0-10.041 8.14-18.182 18.182-18.182h363.637c10.041 0 18.182 8.14 18.182 18.182-.001 10.041-8.141 18.182-18.183 18.182z" fill="#463b83"/><path d="m387.67 403.782c8.185 14.502 14.492 28.525 18.689 41.259-9.179 7.576-18.92 14.497-29.15 20.691-10.646-7.737-21.851-17.764-32.955-29.644-27.985 15.327-60.129 24.006-94.309 23.911-33.568-.093-65.256-8.881-92.94-24.19-11.189 12.002-22.485 22.125-33.215 29.922-10.23-6.194-19.97-13.115-29.15-20.691 4.242-12.87 10.64-27.058 18.953-41.726-36.805-36.35-59.465-86.966-58.52-142.181.448-26.2 6.052-51.144 15.84-73.861h-2.233c-10.041 0-18.182-8.141-18.182-18.182s8.14-18.182 18.182-18.182h58.182c-10.042 0-18.182 8.14-18.182 18.182s8.14 18.182 18.182 18.182h267.638c4.842 0 9.07 3.654 9.383 8.485.343 5.295-3.85 9.696-9.071 9.696h-276.458c-5.374 0-9.58 4.683-8.949 10.02.007.061.014.121.022.181.542 4.545 4.371 7.981 8.948 7.981h193.199c4.842 0 9.07 3.654 9.383 8.486.343 5.295-3.85 9.696-9.071 9.696h-185.462c-6.153 0-10.469 6.03-8.537 11.872.02.061.04.121.06.182 1.217 3.668 4.673 6.127 8.538 6.127h280.639c5.021 0 9.091 4.07 9.091 9.091 0 5.021-4.07 9.091-9.091 9.091h-264.145c-6.978 0-11.302 7.597-7.745 13.6.036.061.072.121.108.182 1.622 2.73 4.569 4.4 7.745 4.4h149.44c4.842 0 9.07 3.654 9.383 8.486.343 5.295-3.85 9.696-9.071 9.696h-121.74c-8.005 0-12.026 9.667-6.39 15.351.531.535 1.065 1.067 1.602 1.596 1.664 1.64 3.924 2.533 6.261 2.533h177.098c4.842 0 9.07 3.654 9.383 8.486.343 5.295-3.85 9.696-9.071 9.696h-125.482c-9.636 0-12.526 13.081-3.799 17.168 25.141 11.774 72.476 18.352 102.072 18.352 35.42 0 68.639-9.421 97.288-25.895-8.875 15.434-19.795 29.541-32.391 41.951z" fill="#012d4e"/><path d="m318.875 14.125c0-5.523 4.477-10 10-10s10 4.477 10 10-4.477 10-10 10-10-4.477-10-10zm-56 25.875c-11.046 0-20 8.954-20 20s8.954 20 20 20 20-8.954 20-20-8.954-20-20-20zm71.625 40c-11.046 0-20 8.954-20 20s8.954 20 20 20 20-8.954 20-20-8.954-20-20-20z" fill="#00f1a5"/><path d="m424.406 152.233c.038 8.339-6.73 15.107-15.069 15.069-8.331-.038-14.931-7.115-14.931-15.446 0-.523-.424-.947-.947-.947h-30.356c-4.751 0-8.603 3.852-8.603 8.603v16.782c0 7.497-6.043 13.516-13.538 13.66-.386.007-.698.03-1.02.039-3.015.088-5.442 2.492-5.442 5.509v69.498c0 8.525-7.111 15.389-15.725 14.983-8.068-.38-14.275-7.33-14.275-15.407v-88.167c0-14.083-11.417-25.5-25.5-25.5v-23.159h128.25v9.552h1.71c8.331 0 15.408 6.6 15.446 14.931z" fill="#04d481"/><path d="m396.998 78.084 6.74 3.686c1.016.555 1.016 2.014 0 2.569l-6.74 3.686c-.246.134-.448.336-.582.582l-3.686 6.74c-.555 1.015-2.014 1.015-2.569 0l-3.686-6.74c-.134-.246-.336-.448-.582-.582l-6.74-3.686c-1.016-.555-1.016-2.014 0-2.569l6.74-3.686c.246-.134.448-.336.582-.582l3.686-6.74c.555-1.015 2.014-1.015 2.569 0l3.686 6.74c.134.246.336.448.582.582z" fill="#a90033"/><path d="m231.292 91.755-9.207 5.035c-.335.184-.611.459-.795.795l-5.035 9.207c-.759 1.387-2.751 1.387-3.509 0l-5.035-9.207c-.183-.335-.459-.611-.795-.795l-9.207-5.035c-1.387-.759-1.387-2.751 0-3.51l9.207-5.035c.335-.183.611-.459.795-.795l5.035-9.207c.759-1.387 2.751-1.387 3.509 0l5.035 9.207c.183.335.459.612.795.795l9.207 5.035c1.387.759 1.387 2.751 0 3.51z" fill="#fdf385"/><path d="m143.46 103.923-9.207 5.035c-.336.184-.611.459-.795.795l-5.035 9.207c-.759 1.387-2.751 1.387-3.51 0l-5.035-9.207c-.183-.336-.459-.612-.795-.795l-9.207-5.035c-1.387-.759-1.387-2.751 0-3.51l9.207-5.035c.336-.184.612-.459.795-.795l5.035-9.207c.759-1.387 2.751-1.387 3.51 0l5.035 9.207c.184.336.459.612.795.795l9.207 5.035c1.387.759 1.387 2.751 0 3.51zm100.278 77.847-6.74-3.686c-.246-.134-.448-.336-.582-.582l-3.686-6.74c-.555-1.016-2.014-1.016-2.569 0l-3.686 6.74c-.134.246-.336.448-.582.582l-6.74 3.686c-1.015.555-1.015 2.014 0 2.569l6.74 3.686c.246.134.448.336.582.582l3.686 6.74c.555 1.016 2.014 1.016 2.569 0l3.686-6.74c.134-.246.336-.448.582-.582l6.74-3.686c1.016-.555 1.016-2.013 0-2.569z" fill="#fff5f5"/></g></svg>