<svg id="Capa_1" enable-background="new 0 0 501 501" height="512" viewBox="0 0 501 501" width="512" xmlns="http://www.w3.org/2000/svg"><g><path d="m490 256c0 135.31-109.69 245-245 245s-245-109.69-245-245 109.69-245 245-245 245 109.69 245 245z" fill="#f19b0b"/><path d="m490 256c0 2.473-.037 4.938-.11 7.393-27.236 78.083-101.52 134.107-188.89 134.107-110.457 0-200-89.543-200-200 0-84.299 137.932-186.5 144-186.5 135.31 0 245 109.69 245 245z" fill="#f5c02c"/><path d="m409 415c0 24.853-98.497 45-220 45-30.049 0-58.691-1.232-84.784-3.463-18.236-12.826-34.644-28.076-48.754-45.283-10.386-12.665-2.917-31.776 13.318-33.947 34.556-4.621 75.854-7.307 120.22-7.307 121.503 0 220 20.147 220 45z" fill="#012d4e"/><path d="m497.011 404.568c-18.394-14.375-35.434-30.403-50.909-47.882l-45.356-51.232-15.156-25.514c-52.481-86.465-97.324-177.341-134.018-271.596-4.685-9.462-16.863-10.876-23.789-4.243l-134.51 116.273c-8.103 7.005-1.012 20.123 9.287 17.18l74.992-21.426c-20.217 43.186-42.203 85.531-65.906 126.925l-8.85 15.455-13.796 21.492-38.946 54.523c-7.325 10.256-16.198 19.313-26.301 26.847 8.766 18.374 19.754 35.485 32.616 50.984l14.917-4.225c28.723-8.136 58.226-12.305 87.713-12.54 40.391-.321 80.752 6.739 119.039 21.097 67.265 25.224 140.903 27.916 209.83 7.669l5.679-1.668c8.101-2.378 10.116-12.92 3.464-18.119z" fill="#804ba1"/><path d="m298.977 185.491c-.248 2.6-2.58 4.509-5.191 4.509h-12.786c-1.105 0-2 .895-2 2v2.785c0 2.611-1.909 4.943-4.509 5.191-2.982.285-5.491-2.053-5.491-4.976v-3c0-1.105-.895-2-2-2h-16c-1.105 0-2 .895-2 2v12.785c0 2.611-1.909 4.943-4.509 5.191-2.982.285-5.491-2.053-5.491-4.976v-13c0-1.105-.895-2-2-2h-16c-1.105 0-2 .895-2 2v2.785c0 2.611-1.909 4.943-4.509 5.191-2.982.285-5.491-2.053-5.491-4.976v-3c0-1.105-.895-2-2-2h-21.757c-2.22 0-4.254 1.228-5.293 3.189-8.886 16.767-18.046 33.391-27.479 49.864l-10.345 18.066s-31.958 45.656-39.443 56.225c-5.033 7.106-7.763 14.727-7.763 22.656 0 23.147 7.354 43.67 43.22 56.414-22.503 1.599-44.906 5.499-66.853 11.716l-14.917 4.225c-12.862-15.5-23.85-32.61-32.616-50.984 10.103-7.535 18.975-16.592 26.301-26.847l38.945-54.524 12.484-19.2 10.162-17.747c23.703-41.395 45.689-83.739 65.906-126.925l-88.552 33.872c-10.299 2.943-17.39-10.176-9.287-17.18l27.632-24.61 55.577-20.407c8.604-3.159 16.37-8.249 22.7-14.877l17.713-18.547c1.19-1.246 3.295-.504 3.439 1.213l2.226 26.408 26.132-11.451c1.667-.73 3.37.966 2.644 2.634-14.882 34.172-30.857 67.852-47.897 100.988-1.37 2.663.555 5.829 3.549 5.829h13.572c1.105 0 2-.895 2-2v-12.785c0-2.611 1.909-4.943 4.509-5.191 2.982-.284 5.491 2.053 5.491 4.977v13c0 1.105.895 2 2 2h16c1.105 0 2-.895 2-2v-2.785c0-2.611 1.909-4.943 4.509-5.191 2.982-.284 5.491 2.053 5.491 4.977v3c0 1.105.895 2 2 2h16c1.105 0 2-.895 2-2v-12.785c0-2.611 1.909-4.943 4.509-5.191 2.982-.284 5.491 2.053 5.491 4.977v13c0 1.105.895 2 2 2h13c2.923-.003 5.261 2.506 4.977 5.488z" fill="#5b3374"/><path d="m407.512 310.452c-47.413 13.236-108.325 15.225-172.512 15.225-63.97 0-124.689-1.94-172.033-15.092-3.38-.939-4.749-4.989-2.655-7.803l33.581-45.125c1.039-1.396 2.729-2.151 4.461-1.995l44.984 4.067c62.337 5.636 125.065 5.407 187.358-.684l45.3-4.429c1.865-.182 3.674.693 4.689 2.268l29.671 46.04c1.824 2.83.397 6.623-2.844 7.528z" fill="#fc5426"/><path d="m101.796 318.638c-13.71-1.576-26.756-4.7-38.828-8.053-3.38-.939-4.749-4.989-2.655-7.803l33.581-45.125c1.039-1.396 2.729-2.151 4.461-1.995l44.587 4.031z" fill="#f52c2c"/><path d="m285.239 340h-100c-8.284 0-15-6.716-15-15v-60c0-8.284 6.716-15 15-15h100c8.284 0 15 6.716 15 15v60c0 8.284-6.716 15-15 15zm-13.761-65h-72.478v40h72.478z" fill="#f5b65d"/><path d="m286.241 339.967c-.744.022-1.491.033-2.241.033-22.212 0-42.169-9.656-55.902-25h43.38v-40h-61.817c-.436-3.271-.661-6.609-.661-10 0-5.137.517-10.153 1.5-15h74.738c8.284 0 15 6.716 15 15v60c.001 7.947-6.18 14.451-13.997 14.967z" fill="#ffe899"/></g></svg>