<svg id="Capa_1" enable-background="new 0 0 501 501" height="512" viewBox="0 0 501 501" width="512" xmlns="http://www.w3.org/2000/svg"><g><path d="m495.5 256c0 71.918-30.988 136.599-80.339 181.419-13.186 11.975-28.865 20.809-45.954 25.832-36.786 10.813-76.824 16.749-118.707 16.749-42.172 0-82.473-6.018-119.467-16.974-16.367-4.847-31.476-13.284-44.176-24.689-50.806-45.627-82.437-112.181-81.329-186.098 2.003-133.555 111.698-241.397 245.268-241.239 135.174.16 244.704 109.789 244.704 245z" fill="#012d4e"/><path d="m455.5 256c0 113.218-91.782 205-205 205s-205-91.782-205-205 91.782-205 205-205 205 91.782 205 205z" fill="#037e73"/><path d="m455.5 256c0 47.69-16.285 91.577-43.597 126.403-34.826 27.312-78.713 43.597-126.403 43.597-113.218 0-205-91.782-205-205 0-47.69 16.285-91.577 43.597-126.403 34.826-27.312 78.713-43.597 126.403-43.597 113.218 0 205 91.782 205 205z" fill="#06995f"/><path d="m364.5 450h-240l-24-240h300z" fill="#f5c02c"/><path d="m294.5 410h-50c-55.228 0-100-44.771-100-100 0-55.228 44.771-100 100-100h150v100c0 55.229-44.771 100-100 100z" fill="#fded32"/><path d="m250.5 480c-26.36-15.403-45-53.315-45-97.644s18.64-82.241 45-97.644c26.36 15.403 45 53.315 45 97.644s-18.64 82.241-45 97.644z" fill="#fdf385"/><path d="m295.5 382.356c0 21.586-4.421 41.651-12 58.336-24.303-16.721-41.144-53.058-41.144-95.192 0-21.586 4.421-41.651 12-58.336 24.303 16.721 41.144 53.058 41.144 95.192z" fill="#fff5f5"/><path d="m110.5 210 24 230h-20l-24-230zm130 20v210h20v-210z" fill="#d54d00"/><path d="m410.5 210-26 230h-20l26-230z" fill="#f57e00"/><path d="m54.5 280c0 5.523-4.477 10-10 10s-10-4.477-10-10 4.477-10 10-10 10 4.477 10 10zm290-170c-5.523 0-10 4.477-10 10s4.477 10 10 10 10-4.477 10-10-4.477-10-10-10z" fill="#fded32"/><path d="m371.787 257.287c0 5.523-4.477 10-10 10s-10-4.477-10-10 4.477-10 10-10 10 4.477 10 10zm-40.184 20.184c-5.523 0-10 4.477-10 10s4.477 10 10 10 10-4.477 10-10-4.477-10-10-10zm0 59.699c-5.523 0-10 4.477-10 10s4.477 10 10 10 10-4.477 10-10-4.477-10-10-10z" fill="#f5c02c"/><path d="m434.5 320c0 5.523-4.477 10-10 10s-10-4.477-10-10 4.477-10 10-10 10 4.477 10 10zm-320-220c-5.523 0-10 4.477-10 10s4.477 10 10 10 10-4.477 10-10-4.477-10-10-10z" fill="#e1ebf0"/><path d="m434.5 380c0 5.523-4.477 10-10 10s-10-4.477-10-10 4.477-10 10-10 10 4.477 10 10zm-10-270c0-5.523-4.477-10-10-10s-10 4.477-10 10 4.477 10 10 10 10-4.477 10-10zm50 120c-5.523 0-10 4.477-10 10s4.477 10 10 10 10-4.477 10-10-4.477-10-10-10zm-320-160c-5.523 0-10 4.477-10 10s4.477 10 10 10 10-4.477 10-10-4.477-10-10-10zm-90 100c-5.523 0-10 4.477-10 10s4.477 10 10 10 10-4.477 10-10-4.477-10-10-10z" fill="#0ab59e"/><path d="m96.998 213.598c25.924-49.013 88.839-83.598 162.338-83.598 73.498 0 136.413 34.585 162.338 83.598-94.153 17.528-230.525 17.528-324.676 0zm162.338 286.402c63.636 0 121.606-24.262 165.164-64.04-3.668-4.261-9.101-6.96-15.164-6.96l-146 20-154-20c-6.063 0-11.497 2.698-15.164 6.96 43.557 39.778 101.527 64.04 165.164 64.04z" fill="#fc5426"/><path d="m272.177 227.476c.497.011.994.021 1.492.032-65.147 1.334-132.115-2.97-185.506-12.909 25.924-49.014 88.839-83.599 162.337-83.599 7.855 0 15.588.395 23.169 1.161-4.003.404-7.964.912-11.877 1.519-72.234 11.207-63.297 92.189 10.385 93.796zm-82.852 214.06-88.825-11.536c-6.063 0-11.497 2.698-15.164 6.96 43.558 39.778 101.528 64.04 165.164 64.04 16.928 0 33.456-1.717 49.418-4.986-41.704-8.542-79.548-27.68-110.593-54.478z" fill="#f52c2c"/><path d="m250.5 240.562c-63.613 0-123.583-7.45-168.863-20.978-5.292-1.581-8.3-7.152-6.719-12.444s7.151-8.3 12.444-6.719c89.954 26.875 236.32 26.875 326.275 0 5.287-1.58 10.863 1.427 12.443 6.719 1.581 5.292-1.427 10.863-6.719 12.444-45.278 13.528-105.248 20.978-168.861 20.978zm-150 185.6c0 4.669 3.225 8.736 7.782 9.752 41.01 9.143 90.405 14.086 142.218 14.086s101.208-4.943 142.218-14.086c4.557-1.016 7.782-5.083 7.782-9.752 0-6.418-5.953-11.145-12.218-9.749-81.431 18.136-194.133 18.136-275.563 0-6.265-1.396-12.219 3.331-12.219 9.749z" fill="#f57e00"/><path d="m400.5 426.162c0 4.669-3.225 8.736-7.782 9.752-41.01 9.143-90.405 14.086-142.218 14.086-30.284 0-59.741-1.688-87.182-4.917-5.034-.592-8.818-4.867-8.818-9.936 0-6.002 5.247-10.626 11.209-9.925 24.029 2.825 49.336 4.401 74.791 4.728v-149.95c0-5.523 4.477-10 10-10s10 4.477 10 10v149.95c45.165-.58 89.864-5.092 127.782-13.537 6.265-1.395 12.218 3.331 12.218 9.749zm25.362-219.676c-1.857-4.974-7.436-7.49-12.524-5.975-72.304 21.523-180.869 25.732-267.354 12.627-6.047-.916-11.483 3.771-11.483 9.888 0 4.933 3.592 9.146 8.469 9.886 32.989 5.004 69.613 7.651 107.531 7.651 63.613 0 123.583-7.45 168.862-20.978 5.51-1.647 8.544-7.62 6.499-13.099z" fill="#fd9d01"/><path d="m300.5 50c0 27.614-22.386 50-50 50s-50-22.386-50-50 22.386-50 50-50 50 22.386 50 50zm-50-27.778c-15.341 0-27.778 12.437-27.778 27.778s12.437 27.778 27.778 27.778 27.778-12.437 27.778-27.778-12.437-27.778-27.778-27.778z" fill="#f5c02c"/><path d="m290.5 110v10c0 11.046-8.954 20-20 20h-40c-11.046 0-20-8.954-20-20v-10c0-9.196 6.206-16.941 14.658-19.278-.43-1.837-.658-3.753-.658-5.722 0-13.807 11.193-25 25-25h2c13.807 0 25 11.193 25 25 0 1.969-.228 3.884-.658 5.722 8.452 2.337 14.658 10.082 14.658 19.278zm-50.543-85.707c4.109-1.687 8.713-2.418 13.533-1.914 13.268 1.386 23.8 12.34 24.719 25.648.029.424.049.846.06 1.266.149 5.998 5.222 10.707 11.222 10.707 6.085 0 11.121-4.942 10.999-11.025-.014-.674-.04-1.352-.081-2.032-1.489-24.983-21.655-45.245-46.631-46.838-8.07-.515-15.762.887-22.664 3.793-4.054 1.707-6.614 5.767-6.614 10.165 0 7.964 8.09 13.255 15.457 10.23zm-15.457 35.707h.077c-.026-.067-.052-.135-.077-.202z" fill="#fded32"/><path d="m290.5 110v10c0 11.046-8.954 20-20 20h-40c-11.046 0-20-8.954-20-20v-10c0-11.046 8.954-20 20-20h.045c2.965 0 5.067 2.767 4.427 5.662-.3 1.355-.462 2.762-.471 4.205-.073 11.074 9.433 20.133 20.508 20.133h15.491c9.319 0 17.15-6.374 19.37-15-.003-.011-.006-.022-.009-.033.417 1.608.639 3.294.639 5.033z" fill="#f5c02c"/></g></svg>