<svg id="Capa_1" enable-background="new 0 0 501 501" height="512" viewBox="0 0 501 501" width="512" xmlns="http://www.w3.org/2000/svg"><g><path d="m495.5 256c0 135.31-109.69 245-245 245s-245-109.69-245-245 109.69-245 245-245 245 109.69 245 245z" fill="#fdade0"/><path d="m350.917 360c0 53.762-43.738 97.5-97.5 97.5-4.142 0-7.5-3.358-7.5-7.5s3.358-7.5 7.5-7.5c45.491 0 82.5-37.009 82.5-82.5 0-4.142 3.358-7.5 7.5-7.5s7.5 3.358 7.5 7.5zm-169.5 85c-4.142 0-7.5 3.358-7.5 7.5 0 12.031-2.589 23.469-7.239 33.786 4.706 1.713 9.479 3.287 14.314 4.714 5.098-11.816 7.924-24.834 7.924-38.5.001-4.142-3.356-7.5-7.499-7.5z" fill="#fc5e93"/><path d="m473.592 228.424c-30.885 51.144-68.7 92.998-111.274 122.365 3.585 1.52 6.099 5.072 6.099 9.211 0 5.523-4.477 10-10 10h-30c-5.523 0-10-4.477-10-10 0-4.139 2.515-7.691 6.099-9.211-42.574-29.367-80.389-71.221-111.274-122.365-60.392-100.007 11.169-228.087 127.996-228.421.726-.002 1.453-.003 2.179-.003s1.453.001 2.179.003c116.828.334 188.389 128.414 127.996 228.421z" fill="#013f69"/><path d="m473.592 228.424c-15.654 25.923-33.089 49.458-52.021 70.192-6.267.913-12.66 1.384-19.153 1.384-80.081 0-145-71.635-145-160 0-60.005 29.935-112.295 74.226-139.679 3.162-.202 6.361-.309 9.595-.318.725-.002 1.452-.003 2.178-.003s1.453.001 2.179.003c116.828.334 188.389 128.414 127.996 228.421z" fill="#54469b"/><path d="m277.417 140c0-27.614 10.887-50 24.316-50s24.316 22.386 24.316 50-10.887 50-24.316 50-24.316-22.386-24.316-50zm107.685 50c13.429 0 24.316-22.386 24.316-50s-10.887-50-24.316-50-24.316 22.386-24.316 50 10.886 50 24.316 50zm8.339 43.429c-2.386 1.313-4.901 2.512-7.524 3.598v-1.527c0-4.142-3.358-7.5-7.5-7.5s-7.5 3.358-7.5 7.5v6.27c-6.424 1.486-13.169 2.428-20 2.825v-14.595c0-4.142-3.358-7.5-7.5-7.5s-7.5 3.358-7.5 7.5v14.595c-6.831-.397-13.576-1.339-20-2.825v-6.27c0-4.142-3.358-7.5-7.5-7.5s-7.5 3.358-7.5 7.5v1.527c-2.622-1.086-5.138-2.285-7.524-3.598-3.63-1.998-8.19-.674-10.187 2.955s-.674 8.189 2.955 10.187c4.583 2.522 9.537 4.683 14.755 6.485v11.444c0 4.142 3.358 7.5 7.5 7.5s7.5-3.358 7.5-7.5v-7.383c6.497 1.318 13.218 2.154 20 2.508v10.375c0 4.142 3.358 7.5 7.5 7.5s7.5-3.358 7.5-7.5v-10.375c6.782-.354 13.503-1.19 20-2.508v7.383c0 4.142 3.358 7.5 7.5 7.5s7.5-3.358 7.5-7.5v-11.444c5.218-1.802 10.173-3.963 14.755-6.485 3.629-1.997 4.952-6.558 2.955-10.187-1.994-3.629-6.555-4.951-10.185-2.955z" fill="#012d4e"/><path d="m413.345 74.426c-24.894-12.777-45.098 1.824-57.244-12.992-6.282-7.663-7.946-20.193-2.842-28.013 6.52-9.99 22.268-9.512 28.013-9.338 39.596 1.201 79.302 42.787 77.543 76.731-.134 2.589-.596 11.497-4.872 12.991-8.157 2.851-15.403-26.448-40.598-39.379zm44.072 45.574c-5.523 0-10 4.477-10 10s4.477 10 10 10 10-4.477 10-10-4.477-10-10-10z" fill="#915cb3"/><path d="m303.033 323.405c-28.854 47.781-64.183 86.884-103.957 114.319 3.349 1.42 5.698 4.738 5.698 8.605 0 5.16-4.183 9.343-9.342 9.343h-28.027c-5.16 0-9.342-4.183-9.342-9.343 0-3.867 2.349-7.185 5.698-8.605-39.774-27.436-75.103-66.538-103.957-114.319-56.422-93.431 10.434-213.09 119.579-213.402.678-.002 1.357-.003 2.036-.003s1.358.001 2.036.003c109.144.312 175.999 119.971 119.578 213.402z" fill="#f52c2c"/><path d="m303.033 323.405c-14.625 24.218-30.913 46.206-48.601 65.576-5.855.853-11.828 1.293-17.894 1.293-74.816 0-135.466-66.924-135.466-149.479 0-56.06 27.967-104.911 69.345-130.494 4.364-.55 12.358-.299 13.036-.297 109.146.311 176.001 119.97 119.58 213.401z" fill="#fc5426"/><path d="m323.327 257.813c-1.107 22.084-7.561 44.506-20.294 65.592-.626 1.037-1.256 2.07-1.889 3.099-21.511 14.73-44.997 28.109-69.926 39.721-36.44 16.973-73.786 29.157-109.976 36.112-11.008-10.867-21.534-22.712-31.521-35.449 82.687-10 172.924-52.121 233.606-109.075zm-6.042-48.089c-4.137-13.471-10.254-26.269-18.093-37.928-64.14 63.475-165.271 109.888-254.672 116.542 3.361 11.903 8.406 23.679 15.282 35.066.689 1.142 1.383 2.278 2.08 3.409 44.966-5.209 92.691-19.039 138.957-40.589 44.395-20.677 84.212-46.958 116.446-76.5zm-55.081-75.425c-11.875-8.178-25.181-14.597-39.65-18.779-48.933 39.393-111.697 69.773-173.551 84.277-5.293 13.586-8.528 28.019-9.417 42.783 36.588-6.912 74.384-19.182 111.253-36.355 42.09-19.605 80.066-44.245 111.365-71.926z" fill="#fc5426"/><path d="m323.327 257.813c-1.107 22.084-7.561 44.506-20.294 65.592-.626 1.037-1.256 2.07-1.889 3.099-21.511 14.73-44.997 28.109-69.926 39.721-12.758 5.943-25.628 11.297-38.52 16.047-16.227-6.121-31.067-15.546-43.859-27.547 64.384-18.473 128.079-53.355 174.488-96.912zm-61.123-123.514c-11.875-8.178-25.181-14.597-39.65-18.779-31.971 25.738-69.846 47.628-109.514 63.757-5.942 14.501-9.848 30.237-11.315 46.761 16.43-5.626 32.862-12.242 49.115-19.813 42.089-19.605 80.065-44.245 111.364-71.926zm55.081 75.425c-4.137-13.471-10.254-26.269-18.093-37.928-49.878 49.361-122.126 88.404-193.831 106.455 3.12 13.343 7.868 25.964 13.996 37.59 27.1-7.135 54.538-17.067 81.482-29.616 44.395-20.678 84.212-46.959 116.446-76.501z" fill="#fd9d01"/><path d="m248.285 188.737c-23.257-11.937-42.133 1.704-53.48-12.137-5.869-7.159-7.424-18.865-2.655-26.171 6.091-9.333 20.804-8.886 26.171-8.724 36.993 1.122 74.087 39.974 72.444 71.685-.125 2.419-.557 10.741-4.551 12.137-7.621 2.664-14.39-24.708-37.929-36.79zm41.175 42.578c-5.16 0-9.342 4.183-9.342 9.343s4.182 9.342 9.342 9.342 9.342-4.183 9.342-9.343-4.182-9.342-9.342-9.342z" fill="#fdb44c"/><path d="m218.322 141.706c9.076.275 18.158 2.822 26.672 6.976-14.23 11.249-29.578 21.887-45.848 31.765-1.549-.956-2.997-2.209-4.34-3.847-5.869-7.159-7.424-18.865-2.655-26.171 6.091-9.332 20.804-8.886 26.171-8.723zm67.892 83.822c3.995-1.396 4.426-9.718 4.551-12.137.461-8.889-2.123-18.339-6.894-27.362-6.148 5.372-12.555 10.597-19.189 15.659 11.054 12.253 16.075 25.747 21.532 23.84zm3.246 5.787c-4.906 0-8.928 3.781-9.312 8.588 3.811-2.755 7.554-5.553 11.226-8.391-.618-.129-1.258-.197-1.914-.197z" fill="#fdcb6b"/><path d="m304.5 42.5c0 6.904-5.596 12.5-12.5 12.5s-12.5-5.596-12.5-12.5 5.596-12.5 12.5-12.5 12.5 5.596 12.5 12.5z" fill="#fdb44c"/><path d="m289.5 407.5c0 6.904-5.596 12.5-12.5 12.5s-12.5-5.596-12.5-12.5 5.596-12.5 12.5-12.5 12.5 5.596 12.5 12.5z" fill="#fc5426"/><path d="m64.5 187.5c0 6.904-5.596 12.5-12.5 12.5s-12.5-5.596-12.5-12.5 5.596-12.5 12.5-12.5 12.5 5.596 12.5 12.5z" fill="#002c5d"/><path d="m57 290c0 6.904-5.596 12.5-12.5 12.5s-12.5-5.596-12.5-12.5 5.596-12.5 12.5-12.5 12.5 5.596 12.5 12.5z" fill="#fff5f5"/><path d="m234.5 367.5c0 6.904-5.596 12.5-12.5 12.5s-12.5-5.596-12.5-12.5 5.596-12.5 12.5-12.5 12.5 5.596 12.5 12.5zm222.5-52.5c-6.904 0-12.5 5.596-12.5 12.5s5.596 12.5 12.5 12.5 12.5-5.596 12.5-12.5-5.596-12.5-12.5-12.5zm-290-245c-6.904 0-12.5 5.596-12.5 12.5s5.596 12.5 12.5 12.5 12.5-5.596 12.5-12.5-5.596-12.5-12.5-12.5z" fill="#fcf498"/><path d="m404.5 407.5c0 6.904-5.596 12.5-12.5 12.5s-12.5-5.596-12.5-12.5 5.596-12.5 12.5-12.5 12.5 5.596 12.5 12.5zm-301.941-346.807c2.292 2.638 5.672 4.307 9.441 4.307 6.904 0 12.5-5.596 12.5-12.5 0-2.093-.515-4.064-1.424-5.797-7.083 4.321-13.93 8.993-20.517 13.99z" fill="#915cb3"/></g></svg>