<svg id="Capa_1" enable-background="new 0 0 501 501" height="512" viewBox="0 0 501 501" width="512" xmlns="http://www.w3.org/2000/svg"><g><path d="m495.5 255.998c0 113.777-77.556 209.44-182.685 237.006h-124.63c-105.129-27.566-182.685-123.229-182.685-237.006 0-135.311 109.69-245.002 245-245.002s245 109.691 245 245.002z" fill="#463b83"/><path d="m306.283 452.415 180.966-133.129c-26.242 98.426-112.23 172.469-216.749 180.914-6.596.533-13.266-3.82-20-3.82s-13.404 4.353-20 3.82c-104.518-8.444-190.506-82.488-216.748-180.914l180.966 133.129c1.85 1.361 4.16-.96 2.791-2.803l-185.53-249.822c10.005-42.62 31.139-80.952 60.167-111.762l178.354 402.12 178.354-402.121c29.028 30.811 50.161 69.143 60.167 111.762l-185.529 249.822c-1.369 1.844.941 4.165 2.791 2.804z" fill="#804ba1"/><path d="m230.5 313.498h40v186.697c-6.596.533-13.266.805-20 .805s-13.404-.272-20-.805z" fill="#b0dde9"/><path d="m258.1 480c-6.848 0-12.4-5.552-12.4-12.4v-125.201c0-6.848 5.552-12.4 12.4-12.4 6.848 0 12.4 5.552 12.4 12.4v125.201c0 6.848-5.552 12.4-12.4 12.4z" fill="#fff5f5"/><path d="m230.5 439.653 40-8.675v27.342l-40 8.675zm0-50v27.342l40-8.675v-27.342z" fill="#85be7f"/><path d="m398.492 365.792c0 7.848-6.362 14.211-14.211 14.211s-14.211-6.362-14.211-14.211 6.362-14.211 14.211-14.211 14.211 6.363 14.211 14.211zm25.877-232.332c-9.532-35.573-29.078-65.788-54.792-88.426-7.844-6.906-16.262-11.106-25.146-16.538-11.656-7.128-24.113-14.933-37.123-19.273-32.31-10.778-68.035-12.521-103.396-3.045-3.647.977-7.238 2.059-10.769 3.24-10.764 3.6-19.979 9.129-29.579 14.473-11.513 6.407-23.142 12.986-32.773 21.537-29.174 25.901-49.191 60.731-56.879 98.992-2.561 12.747-1.754 25.874-1.461 39.179.238 10.785-.549 21.686 1.704 32.596.719 3.481 1.543 6.964 2.476 10.443 9.532 35.573 29.078 65.788 54.793 88.425 8.683 7.644 18.07 11.424 28.012 17.254 10.824 6.348 22.306 14.57 34.255 18.556 32.31 10.779 68.035 12.521 103.398 3.045 3.653-.979 7.249-2.063 10.786-3.249 12.525-4.199 23.312-10.669 34.253-17.226 9.655-5.786 19.653-11.419 27.919-18.771.002-.002.004-.003.006-.005.007-.007.019-.001.019.008v10.713c0 7.652 5.88 14.236 13.524 14.596 8.161.384 14.898-6.118 14.898-14.195v-23.81c0-3.377 2.796-6.02 6.172-5.962.068.001.137.002.205.002 7.932.024 14.255-6.683 14.255-14.615v-38.34c3.327-8.88 5.963-18.044 7.861-27.411 2.192-10.823 1.399-21.916 1.546-33.153.167-12.762.969-25.71-1.702-38.659-.715-3.459-1.535-6.921-2.462-10.381z" fill="#f5c02c"/><path d="m419.201 242.867c-23.002 27.876-54.595 49.113-92.164 59.18-96.025 25.73-194.727-31.256-220.457-127.282-10.067-37.569-7.568-75.654 5.073-109.512 5.75-6.969 12.044-13.517 18.836-19.575 9.256-8.255 21.438-13.603 32.436-19.871 10.083-5.747 18.851-12.587 30.219-16.389 3.532-1.181 7.123-2.262 10.768-3.239 35.362-9.475 71.087-7.733 103.397 3.045 13.208 4.406 25.845 13.322 37.654 20.599 8.686 5.353 16.924 8.442 24.611 15.209 25.716 22.638 45.264 52.854 54.796 88.429.927 3.459 1.746 6.922 2.461 10.384 2.752 13.343 1.941 26.685 1.683 39.823-.213 10.839.59 21.541-1.527 31.99-1.884 9.295-4.495 18.392-7.786 27.209z" fill="#fded32"/><path d="m323.941 73.87c-27.057-5.836-42.625 13.289-58.023 2.242-7.965-5.714-12.762-17.26-9.888-26.039 3.672-11.214 18.842-14.79 24.376-16.094 38.142-8.99 86.728 20.58 93.738 53.464.535 2.509 2.374 11.138-1.329 13.661-7.064 4.812-21.489-21.328-48.874-27.234zm65.895 39.258c-1.414-5.277-6.838-8.409-12.115-6.995s-8.409 6.838-6.995 12.115 6.838 8.409 12.115 6.995c5.278-1.414 8.409-6.838 6.995-12.115z" fill="#fff5f5"/><path d="m135.541 184.731c-21.842 6.294-42.726 16.801-61.371 31.523-5.023-24.351-4.839-48.698-.157-71.813 13.838-5.431 28.213-9.083 42.774-10.956.626 2.776 1.31 5.55 2.052 8.322 4.071 15.191 9.712 29.542 16.702 42.924zm32.464 45.78c-19.154 24.38-31.9 53.519-36.582 84.552 18.137 15.967 39.343 28.163 62.268 35.811-4.54-31.127-.718-61.961 9.977-89.924-12.933-8.747-24.911-18.945-35.663-30.439zm167.67 65.935c-26.903 1.922-53.381-1.439-78.187-9.363 11.675 24.556 28.843 46.399 50.386 63.587 23.581-7.905 44.545-20.317 62.179-36.003-12.279-4.885-23.775-11.023-34.378-18.221z" fill="#f52c2c"/><path d="m426.986 215.657c-51.17 20.082-109.68 15.838-157.747-12.734-1.597-.949-3.518.597-2.92 2.355 12.879 37.878 38.201 70.989 72.427 93.206-3.835 1.309-7.739 2.498-11.71 3.562-19.41 5.201-38.928 7.021-57.932 5.824-19.026-29.333-29.502-64.096-29.045-100.155.024-1.857-2.276-2.75-3.5-1.352-20.093 22.935-34.174 50.744-40.678 80.715-16.097-8.571-30.884-19.565-43.774-32.644 15.94-28.694 39.667-53.032 69.206-69.591 1.623-.91 1.246-3.349-.579-3.711-36.13-7.167-74.034-3.179-108.191 11.963-2.286-5.935-4.282-12.049-5.965-18.331-3.437-12.826-5.397-25.7-5.987-38.442 44.135-9.825 91.253-2.875 131.169 20.852 1.596.948 3.517-.596 2.92-2.353-16.555-48.662-53.787-89.468-103.9-109.406 17.627-15.691 38.754-28.114 62.362-35.999 42.958 34.275 68.508 87.066 67.797 142.967-.024 1.856 2.274 2.749 3.497 1.352 33.865-38.653 50.654-91.152 42.872-144.513 22.925 7.648 44.131 19.844 62.268 35.811-8.199 54.347-41.128 102.886-89.899 130.223-1.619.908-1.243 3.344.577 3.705 50.402 10 104.256-1.706 146.574-35.118 5.024 24.352 4.84 48.7.158 71.814z" fill="#fc5426"/><path d="m364.702 67.48c-2.344 8.217-5.264 16.239-8.728 24.005-7.909-6.668-18.354-14.666-32.033-17.616-7.007-1.511-13.244-1.348-18.907-.469 2.828-12.895 4.252-26.192 4.149-39.676 22.002 4.167 43.362 17.352 55.519 33.756z" fill="#fdbaba"/></g></svg>