<svg id="Capa_1" enable-background="new 0 0 501 501" height="512" viewBox="0 0 501 501" width="512" xmlns="http://www.w3.org/2000/svg"><g><path d="m490 256c0 135.31-109.69 245-245 245-78.872 0-149.04-37.27-193.852-95.159-8.891-11.486-37.916-68.274-42.54-85.236-5.612-20.583-8.608-42.244-8.608-64.605 0-135.31 109.69-245 245-245s245 109.69 245 245z" fill="#463b83"/><path d="m490 256c0 16.951-1.722 33.5-4.999 49.481-44.43 45.063-106.188 72.997-174.47 72.997-78.872 0-149.04-37.27-193.852-95.16-8.891-11.486-37.916-68.274-42.541-85.236-5.612-20.582-8.608-42.244-8.608-64.605 0-16.951 1.722-33.5 4.999-49.481 44.431-45.062 106.189-72.996 174.471-72.996 135.31 0 245 109.69 245 245z" fill="#915cb3"/><path d="m500.059 401.636c-.037.13-.074.26-.112.39-2.171 7.569-7.941 13.553-15.332 16.268-8.326 3.058-16.02 6.915-22.93 11.551.647 8.296 2.39 16.724 5.153 25.153 2.453 7.482 1.334 15.719-3.258 22.116-.079.11-.158.22-.237.33-8.743 12.134-26.273 13.556-37.113 3.251-16.402-15.593-29.232-32.81-37.777-50.413l-165.246-80.034-161.885 43.377c-3.106 4.162-6.503 8.24-10.174 12.215-19.36-25.01-33.988-53.87-42.54-85.235 12.907 2.304 25.006 5.871 35.988 10.594l89.671-24.027-26.794-12.977c-21.141 6.095-45.687 7.458-71.479 3.772-14.806-2.116-24.559-16.752-20.459-31.135.037-.13.074-.26.112-.39 2.171-7.569 7.941-13.553 15.332-16.268 8.326-3.058 16.02-6.915 22.93-11.551-.647-8.296-2.39-16.724-5.153-25.153-2.453-7.482-1.334-15.719 3.258-22.116.079-.11.158-.22.237-.33 8.744-12.134 26.273-13.557 37.113-3.251 13.776 13.097 25.032 27.339 33.346 41.993l107.012 51.829 134.955-36.161c11.703-15.681 27.543-30.178 46.585-42.407 12.585-8.082 29.534-3.388 35.839 10.175.057.123.114.246.171.369 3.307 7.146 2.856 15.447-.96 22.334-4.299 7.758-7.597 15.709-9.793 23.735 5.915 5.853 12.746 11.089 20.348 15.658 6.749 4.056 11.29 11.02 11.999 18.861.012.135.024.27.036.404 1.321 14.898-11.011 27.438-25.95 26.731-22.606-1.07-43.572-5.704-61.548-13.433l-62.741 16.812 97.961 47.446c19.109-4.21 40.572-4.817 62.976-1.615 14.807 2.112 24.559 16.748 20.459 31.132z" fill="#f19b0b"/><path d="m500.059 401.636c-.037.13-.074.26-.112.39-2.171 7.569-7.941 13.553-15.332 16.268-8.326 3.058-16.02 6.915-22.93 11.551.647 8.296 2.39 16.724 5.153 25.153 2.453 7.482 1.334 15.719-3.258 22.116-.079.11-.158.22-.237.33-.272.378-.553.746-.843 1.103-1.836-1.084-3.582-2.393-5.198-3.929-23.38-22.226-40.429-47.33-49.574-72.584l-170.099-82.384-155.509 41.668c-10.351 2.773-20.99-3.369-23.763-13.72s3.369-20.99 13.72-23.763l112.15-30.051-67.515-32.699c-7.656-3.708-10.856-12.919-7.148-20.575s12.919-10.856 20.575-7.148l99.584 48.232 147.131-39.424c4.155-8.954 9.649-17.707 16.332-26.088 5.641-4.581 11.678-8.947 18.078-13.057 12.585-8.082 29.534-3.388 35.839 10.175.057.123.114.246.171.368 3.307 7.146 2.856 15.447-.96 22.334-4.299 7.759-7.597 15.709-9.793 23.735 5.915 5.853 12.746 11.089 20.348 15.658 6.749 4.056 11.29 11.02 11.999 18.861.012.135.024.27.036.404.032.363.056.725.072 1.085-.121-.004-.241-.009-.362-.014-27.214-1.288-52.05-7.741-72.155-18.541l-113.332 30.367 133.499 64.658c19.109-4.21 40.572-4.818 62.976-1.616 14.805 2.117 24.557 16.753 20.457 31.137z" fill="#ebae56"/><path d="m321 395s-.282 32.704-.791 33.904c-4.199 23.366-24.634 41.096-49.209 41.096h-52c-27.614 0-50-22.386-50-50 0-8.284 6.716-15 15-15h46v-10c0-5.523 4.477-10 10-10h10c5.523 0 10 4.477 10 10v10h31v-10c0-5.523 4.477-10 10-10h10c5.523 0 10 4.477 10 10zm-76-395c-93.888 0-170 76.112-170 170 0 58.701 29.752 110.453 75 140.999v19.001c0 16.569 13.431 30 30 30h80.5v10c0 5.523 4.477 10 10 10h10c5.523 0 10-4.477 10-10v-10h19.5c16.569 0 30-13.431 30-30v-19.001c45.248-30.546 75-82.298 75-140.999 0-93.888-76.112-170-170-170z" fill="#ffe899"/><path d="m180 360c-16.569 0-30-13.431-30-30v-19.002c-45.247-30.546-75-82.297-75-140.998 0-80.151 55.468-147.346 130.112-165.293-9.413 5.98-18.266 12.936-26.447 20.744-3.658 3.491-4.458 8.921-2.19 13.441 1.595 3.177 2.525 6.998 2.525 11.108 0 11.046-6.716 20-15 20-2.008 0-3.923-.526-5.673-1.48-5.55-3.026-12.484-1.239-15.458 4.339-3.026 5.674-5.795 11.54-8.289 17.576-1.333 3.225-1.112 6.907.636 9.927 2.381 4.115 3.784 9.172 3.784 14.638 0 10.604-5.281 19.665-12.735 23.299-3.398 1.657-5.64 5.054-6.044 8.813-.806 7.504-1.221 15.142-1.221 22.888 0 56.142 27.425 90.639 62.774 123.412 4.071 3.774 6.611 8.962 6.921 14.504 1.471 26.251 26.411 52.084 40.305 52.084h.5v10c0 5.523-4.477 10-10 10h-10c-5.523 0-10-4.477-10-10v-10zm39 60v-15h-20v-10c0-5.523-4.477-10-10-10h-10c-5.523 0-10 4.477-10 10 0 0-1.75 28.188.791 33.904 4.2 23.366 24.634 41.096 49.209 41.096h50c-27.614 0-50-22.386-50-50zm-40-337.5c0 6.904 4.477 12.5 10 12.5s10-5.596 10-12.5-4.477-12.5-10-12.5-10 5.596-10 12.5z" fill="#fbc56d"/><path d="m361.14 83.482c-5.328 10.656-32.306 7.965-60.257-6.011s-46.291-33.943-40.963-44.599 32.306-7.965 60.257 6.011 46.291 33.943 40.963 44.599z" fill="#fdf7bd"/><path d="m225 180c0 38.66-20.147 70-45 70s-45-31.34-45-70 20.147-70 45-70 45 31.34 45 70zm85-70c-24.853 0-45 31.34-45 70s20.147 70 45 70 45-31.34 45-70-20.147-70-45-70zm-57.977 158.279c-5.826-5.85-15.343-5.85-21.169 0-7.204 7.233-13.171 16.942-17.339 28.295-3.302 8.995 2.643 18.712 12.138 19.995 5.104.689 10.383 1.051 15.785 1.051s10.681-.361 15.785-1.051c9.496-1.282 15.44-11 12.138-19.995-4.166-11.353-10.134-21.062-17.338-28.295z" fill="#915cb3"/><g fill="#463b83"><path d="m194.024 246.534c-4.413 2.249-9.127 3.466-14.024 3.466-24.853 0-45-31.34-45-70 0-33.639 15.254-61.736 35.589-68.467-8.547 14.391-13.868 34.648-13.868 57.089 0 39.055 16.117 71.496 37.303 77.912zm58.317 22.066c-.105-.108-.211-.215-.317-.321-5.826-5.85-15.343-5.85-21.169 0-7.204 7.233-13.171 16.942-17.339 28.295-3.302 8.995 2.643 18.712 12.138 19.995 4.121.557 8.356.899 12.679 1.011-3.654-4.46-5.13-11.03-3.096-17.29 4.122-12.683 10.005-23.549 17.104-31.69zm34.38-99.978c0-22.441 5.322-42.698 13.868-57.089-20.335 6.731-35.589 34.828-35.589 68.467 0 38.66 20.147 70 45 70 4.897 0 9.611-1.217 14.024-3.466-21.186-6.416-37.303-38.857-37.303-77.912z"/><path d="m354.377 191.669c-.473 4.385-1.208 8.632-2.18 12.7-5.668-7.524-13.256-13.428-22.178-17.123-13.179-5.459-27.706-5.455-40.908.013-.154.064-.31.119-.467.167l-20.046 20.047c-1.027-3.741-1.851-7.649-2.45-11.692l15.424-15.424c.051-.174.111-.347.182-.519 5.468-13.2 5.473-27.728.013-40.908-1.13-2.727-2.466-5.329-3.991-7.791 1.954-3.117 4.092-5.952 6.389-8.461 2.706 3.83 5.003 7.988 6.841 12.425 4.173 10.075 5.657 20.814 4.452 31.367l21.486-21.486c4.94-13.155-.815-27.91-13.148-34.324 2.028-.435 4.099-.66 6.203-.66 3.677 0 7.25.686 10.671 1.98 4.757 6.09 7.567 13.544 7.985 21.293l8.772-8.772c2.093 2.506 4.04 5.293 5.818 8.323l-7.526 7.526c4.217.227 8.408 1.171 12.422 2.834.056.023.111.047.167.07 1.802 4.537 3.281 9.419 4.386 14.567-2.41-2.264-5.235-4.096-8.38-5.399-6.539-2.708-13.715-2.824-20.318-.349l-21.475 21.475c10.539-1.196 21.263.29 31.326 4.458 7.793 3.229 14.729 7.876 20.53 13.663z"/></g></g></svg>