<svg id="Capa_1" enable-background="new 0 0 501 501" height="512" viewBox="0 0 501 501" width="512" xmlns="http://www.w3.org/2000/svg"><g><path d="m501 250.5c0 42.779-10.964 82.997-30.236 117.998-2.236 4.061-5.982 7.073-10.403 8.468-60.66 19.141-130.302 30.025-204.361 30.025-73.966 0-143.527-10.857-204.132-29.953-4.569-1.44-8.442-4.554-10.749-8.753-18.798-34.22-29.659-73.417-30.105-115.112-1.448-135.412 109.566-247.673 244.987-247.673 135.309 0 244.999 109.69 244.999 245z" fill="#012d4e"/><path d="m470.977 368.112c-41.623 75.918-122.289 127.388-214.977 127.388s-173.354-51.47-214.977-127.388c.657-25.007 15.17-48.151 39.466-67.174v-24.07s124.51-26.327 175.51-26.327 175.51 26.327 175.51 26.327v24.07c24.298 19.022 38.81 42.167 39.468 67.174z" fill="#fd9d01"/><path d="m431.51 276.867c0 19.386-78.579 35.102-175.51 35.102s-175.51-15.715-175.51-35.102 78.579-35.102 175.51-35.102 175.51 15.716 175.51 35.102z" fill="#804ba1"/><path d="m315 468.459c23.051 0 45.254-2.589 66.07-7.244-36.61 21.778-79.38 34.285-125.07 34.285-92.688 0-173.354-51.47-214.977-127.388.572-21.778 11.653-42.143 30.553-59.603-6.079-3.901-10.107-10.719-10.107-18.478 0-12.116 9.822-21.939 21.939-21.939s21.939 9.822 21.939 21.939c0 1.609-.173 3.177-.502 4.687-1.595 8.033-4.845 26.109-4.845 39.13 0 65.913 96.259 134.611 215 134.611zm113.592-200.367c-12.116 0-21.939 9.822-21.939 21.939s9.822 21.939 21.939 21.939 21.939-9.822 21.939-21.939-9.823-21.939-21.939-21.939z" fill="#f57e00"/><path d="m435.071 299.279c-47.869 47.869-111.465 74.232-179.071 74.232s-131.202-26.363-179.071-74.231c-3.905-3.905-3.905-10.237 0-14.142 3.906-3.905 10.236-3.905 14.143 0 90.941 90.941 238.916 90.941 329.857 0 3.906-3.905 10.236-3.905 14.143 0 3.905 3.904 3.905 10.236-.001 14.141z" fill="#fded32"/><path d="m235.472 243.542c-7.476 8.198-15.365 16.464-23.618 24.718s-16.52 16.143-24.718 23.618c-1.793 1.635-4.617 1.291-5.996-.705-8.095-11.714-10.891-25.408-8.01-37.129-24.808 6.141-62.498-9.224-93.766-40.492s-46.633-68.958-40.492-93.766c-11.72 2.881-25.415.085-37.129-8.01-1.996-1.379-2.34-4.203-.705-5.996 7.476-8.198 15.365-16.464 23.618-24.718s16.52-16.142 24.718-23.618c1.793-1.635 4.616-1.291 5.996.705 8.095 11.714 10.891 25.409 8.01 37.129 24.808-6.141 62.498 9.224 93.766 40.492s46.633 68.958 40.492 93.766c11.72-2.881 25.415-.085 37.129 8.01 1.995 1.379 2.339 4.203.705 5.996z" fill="#f52c2c"/><path d="m157.145 135.77c16.317 16.318 28.304 34.384 35.163 51.456-.999 1.406-2.112 2.728-3.344 3.959-21.479 21.479-70.549 7.233-109.602-31.82-11.492-11.492-20.835-23.851-27.752-36.119-2.099-3.723-1.188-8.346 1.965-11.232.352-.322.698-.653 1.038-.993 4.404-4.404 7.309-9.822 8.765-15.743 24.81-6.142 62.499 9.224 93.767 40.492zm-94.333-61.835c-1.495-5.419-3.986-10.784-7.444-15.788-1.379-1.995-4.203-2.337-5.995-.703-8.198 7.476-16.464 15.365-24.718 23.618-4.303 4.303-8.506 8.609-12.604 12.908 15.307 6.203 31.906 4.322 42.564-6.336 3.891-3.892 6.612-8.576 8.197-13.699zm171.956 163.612c-5.004-3.458-10.37-5.949-15.788-7.444-5.124 1.585-9.807 4.306-13.699 8.197-10.658 10.658-12.538 27.257-6.336 42.564 4.298-4.098 8.605-8.302 12.908-12.604 8.253-8.253 16.142-16.52 23.618-24.718 1.635-1.792 1.292-4.616-.703-5.995z" fill="#fc5426"/><path d="m56.631 185.693c-6.2-9.512-10.978-19.098-14.203-28.311 8.019-7.738 15.168-16.931 21.018-27.416 6.516-11.678 10.822-23.886 13.038-36.001 9.314.24 19.667 2.68 30.385 7.122-1.464 15.056-6.159 30.504-14.314 45.12-9.278 16.628-21.822 30.008-35.924 39.486zm86.863-11.062c7.049-12.633 11.513-25.887 13.54-38.972-9.047-9.032-18.629-16.732-28.279-22.968-1.399 15.239-6.109 30.895-14.369 45.698-11.153 19.989-27.028 35.287-44.657 44.751 3.019 3.53 6.232 7.008 9.635 10.41 3.526 3.526 7.133 6.849 10.794 9.962 21.048-8.767 40.379-25.658 53.336-48.881zm27.937-22.777c-.993 16.258-5.768 33.1-14.619 48.962-10.002 17.926-23.801 32.078-39.256 41.635 12.136 6.578 24.129 10.762 35.051 12.281 13.039-9.342 24.613-22.08 33.314-37.674 3.909-7.006 7.023-14.202 9.367-21.455-4.349-14.101-12.463-29.237-23.857-43.749z" fill="#fde803"/><path d="m157.034 135.659c-2.027 13.086-6.491 26.34-13.54 38.972-3.974 7.122-8.547 13.648-13.585 19.527-9.527-3.921-19.347-9.429-28.987-16.384 4.99-5.842 9.521-12.32 13.463-19.384 8.26-14.803 12.97-30.459 14.369-45.698 9.651 6.234 19.233 13.935 28.28 22.967zm-80.551-41.694c-2.215 12.115-6.522 24.323-13.038 36.001-1.176 2.108-2.405 4.164-3.683 6.166 5.576 7.935 12.135 15.767 19.601 23.233.888.888 1.782 1.764 2.68 2.626 3.835-4.87 7.361-10.14 10.51-15.783 8.156-14.616 12.85-30.064 14.314-45.12-10.717-4.443-21.07-6.882-30.384-7.123zm94.948 57.889c-.993 16.258-5.768 33.1-14.619 48.962-.033.06-.067.119-.101.179 13.165 1.038 24.505-2.061 32.254-9.81 1.231-1.231 2.345-2.553 3.343-3.959-4.668-11.619-11.71-23.698-20.877-35.372z" fill="#fded32"/><path d="m495.02 62.106c-10.973 7.583-23.685 10.516-34.884 8.488l.527.527c11.716 11.716 11.716 30.711 0 42.427l-84.853 84.852c-11.716 11.716-30.711 11.716-42.427 0l-.527-.527c2.028 11.199-.905 23.91-8.488 34.884-1.379 1.996-4.203 2.34-5.996.705-8.198-7.476-16.464-15.365-24.718-23.618s-16.142-16.52-23.618-24.718c-1.635-1.793-1.291-4.616.705-5.996 10.973-7.583 23.685-10.516 34.884-8.488l-.526-.526c-11.716-11.716-11.716-30.711 0-42.426l84.853-84.853c11.716-11.716 30.711-11.716 42.427 0l.526.526c-2.028-11.199.905-23.91 8.488-34.884 1.379-1.996 4.203-2.34 5.996-.705 8.198 7.476 16.464 15.365 24.718 23.618 8.253 8.254 16.142 16.52 23.618 24.718 1.635 1.793 1.291 4.617-.705 5.996z" fill="#c43286"/><path d="m495.022 62.105c-5.004 3.458-10.369 5.949-15.788 7.444-5.124-1.585-9.807-4.306-13.699-8.197-10.658-10.658-12.538-27.257-6.336-42.564 4.298 4.098 8.605 8.302 12.908 12.604 8.253 8.254 16.142 16.52 23.618 24.718 1.634 1.792 1.292 4.616-.703 5.995zm-213.971 134.832c4.098 4.298 8.302 8.605 12.604 12.908 8.254 8.254 16.52 16.142 24.718 23.618 1.792 1.634 4.616 1.292 5.995-.703 3.458-5.004 5.949-10.37 7.444-15.788-1.585-5.123-4.306-9.807-8.197-13.699-10.658-10.658-27.257-12.539-42.564-6.336zm179.612-125.816c-11.716-11.716-30.711-11.716-42.426 0l-84.853 84.853c-11.716 11.716-11.716 30.711 0 42.426 11.716 11.716 30.711 11.716 42.427 0l84.853-84.853c11.715-11.715 11.715-30.71-.001-42.426z" fill="#fd4fb6"/><path d="m463.905 109.719c-.957 1.343-2.038 2.624-3.242 3.829l-17.678 17.678-70.71-70.711 17.677-17.678c1.205-1.205 2.486-2.285 3.829-3.242zm-126.986-13.849 70.711 70.711 21.213-21.213-70.711-70.711zm-31.819 31.82c-1.205 1.205-2.285 2.486-3.242 3.829l70.124 70.124c1.343-.957 2.625-2.037 3.829-3.242l17.678-17.678-70.711-70.711z" fill="#fdac89"/><path d="m463.905 109.719c-.957 1.343-2.038 2.625-3.242 3.829l-17.678 17.678-42.426-42.426 17.678-17.678c1.205-1.205 2.486-2.285 3.829-3.242zm-130.521 46.255c-1.205 1.205-2.285 2.486-3.242 3.829l41.839 41.839c1.343-.957 2.625-2.037 3.829-3.242l17.677-17.678-42.426-42.426zm31.82-31.82 42.427 42.427 21.213-21.213-42.426-42.426z" fill="#fdbaba"/><path d="m254.605 150.42c-25.368 10.909-54.776-.812-65.686-26.18-8.847-20.572-2.811-43.801 13.317-57.667-8.29-1.824-16.226-7.405-21.723-15.673-1.019-1.532-.468-3.617 1.186-4.421 7.566-3.675 15.443-7.283 23.572-10.779s16.166-6.732 24.038-9.695c1.721-.648 3.614.387 4.025 2.18 2.219 9.677.811 19.277-3.567 26.548 21.158-2.168 42.171 9.428 51.018 30.001 10.909 25.369-.812 54.777-26.18 65.686z" fill="#0573cd"/><path d="m192.772 41.254c4.093-1.877 8.262-3.73 12.5-5.552 8.13-3.496 16.166-6.732 24.038-9.696 1.721-.648 3.613.386 4.024 2.178 1.031 4.495 1.279 8.973.811 13.209-2.555 3.163-5.785 5.698-9.618 7.347-10.498 4.514-22.716 1.179-31.755-7.486zm85.951 39.242c-8.84-16.21-25.681-25.832-43.373-26.018-12.05-.126-22.818 7.804-25.635 19.521-1.909 7.941-1.067 16.624 3.119 24.561 7.941 15.059 25.955 22.239 42.078 16.771 15.408-5.226 24.522-19.791 23.811-34.835z" fill="#69c3da"/><path d="m283.444 116.282c-1.676 6.882-4.799 13.37-9.181 18.989-2.52-7.349 1.014-15.512 8.269-18.631.302-.13.606-.249.912-.358zm-78.403-15.303c-3.144-7.31-11.407-10.843-18.799-8.21-2.239 9.257-1.86 19.222 1.596 28.741 3.018.71 6.282.494 9.349-.825 7.611-3.273 11.127-12.096 7.854-19.706zm.047 38.079c-1.45.624-2.751 1.449-3.885 2.428 6.976 6.336 15.599 10.552 24.789 12.215.132-2.255-.245-4.573-1.198-6.789-3.273-7.611-12.095-11.127-19.706-7.854zm26.87-38.769c-10.147 4.364-14.836 16.127-10.472 26.274s16.127 14.836 26.274 10.472 14.836-16.127 10.472-26.274-16.127-14.836-26.274-10.472z" fill="#8ed0e1"/><path d="m258.233 110.761c.397.922.718 1.858.968 2.8-1.369.672-2.8 1.265-4.289 1.77-11.429 3.876-23.808 1.396-32.876-5.741 2.044-4.023 5.454-7.38 9.924-9.302 10.145-4.363 21.909.326 26.273 10.473zm-11.108-54.746c-7.913 5.239-11.194 15.542-7.312 24.568 4.364 10.147 16.127 14.836 26.274 10.472 5.726-2.462 9.713-7.281 11.317-12.835-6.965-11.313-17.971-19.079-30.279-22.205z" fill="#e1ebf0"/><path d="m453.592 210.693c0 13.807-11.193 25-25 25s-25-11.193-25-25 11.193-25 25-25 25 11.193 25 25z" fill="#81ade2"/><path d="m448.592 211.86c-.558 3.281-2.946 8.146-7.667 9-5.013.907-10.021-3.184-10.833-7.167-.855-4.191 3.434-5.82 3.333-11.167-.12-6.376-6.328-9.822-5.333-11.167 1.054-1.425 8.938 1.217 14.5 7 2.365 2.46 7.05 7.331 6 13.501zm-20.104 7.379c-3.048-2.474-7.015-2.637-8.86-.363s-.87 6.122 2.178 8.596 7.015 2.637 8.861.364c1.845-2.274.869-6.123-2.179-8.597z" fill="#8ed0e1"/><path d="m294 279.42c0 13.807-11.193 25-25 25s-25-11.193-25-25 11.193-25 25-25 25 11.193 25 25z" fill="#08b772"/><path d="m289 280.587c-.558 3.281-2.946 8.146-7.667 9-5.013.907-10.021-3.184-10.833-7.167-.855-4.191 3.434-5.82 3.333-11.167-.12-6.376-6.328-9.822-5.333-11.167 1.054-1.425 8.938 1.217 14.5 7 2.365 2.459 7.05 7.331 6 13.501zm-20.104 7.379c-3.048-2.474-7.015-2.637-8.86-.364s-.87 6.122 2.178 8.596 7.015 2.637 8.86.363c1.846-2.272.87-6.121-2.178-8.595z" fill="#5de0c3"/><path d="m200.356 184.19 9.207 5.035c1.387.759 1.387 2.751 0 3.509l-9.207 5.035c-.336.184-.611.459-.795.795l-5.035 9.207c-.759 1.387-2.751 1.387-3.509 0l-5.035-9.207c-.184-.336-.459-.611-.795-.795l-9.207-5.035c-1.387-.759-1.387-2.751 0-3.509l9.207-5.035c.336-.184.611-.459.795-.795l5.035-9.207c.759-1.387 2.751-1.387 3.509 0l5.035 9.207c.184.336.46.612.795.795z" fill="#fff5f5"/><path d="m314.017 37.379 9.207 5.035c1.387.759 1.387 2.751 0 3.509l-9.207 5.035c-.336.184-.611.459-.795.795l-5.035 9.207c-.759 1.387-2.751 1.387-3.509 0l-5.035-9.207c-.184-.336-.459-.611-.795-.795l-9.207-5.035c-1.387-.759-1.387-2.751 0-3.509l9.207-5.035c.336-.184.611-.459.795-.795l5.035-9.207c.759-1.387 2.751-1.387 3.509 0l5.035 9.207c.183.335.459.611.795.795z" fill="#fded32"/><path d="m379.86 247.63 9.207 5.035c1.387.759 1.387 2.751 0 3.509l-9.207 5.035c-.336.184-.611.459-.795.795l-5.035 9.207c-.759 1.387-2.751 1.387-3.509 0l-5.035-9.207c-.184-.336-.459-.612-.795-.795l-9.207-5.035c-1.387-.759-1.387-2.751 0-3.509l9.207-5.035c.336-.184.611-.459.795-.795l5.035-9.207c.759-1.387 2.751-1.387 3.509 0l5.035 9.207c.183.336.459.611.795.795z" fill="#ffe899"/></g></svg>