<svg id="Capa_1" enable-background="new 0 0 501 501" height="512" viewBox="0 0 501 501" width="512" xmlns="http://www.w3.org/2000/svg"><g><path d="m250.5 378.422c-82.749 0-160.424-11.502-227.635-31.652-11.208-28.082-17.37-58.725-17.365-90.808.021-136.748 110.848-246.364 247.588-244.949 59.998.621 114.829 22.809 157.108 59.179 8.347 7.181 15.887 15.27 22.293 24.226 8.348 11.671 19.456 21.352 27.01 33.669 22.835 37.232 36.001 81.035 36.001 127.913 0 26.737-4.283 52.474-12.201 76.562-2.941 8.947-10.247 15.778-19.326 18.283-63.869 17.618-136.474 27.577-213.473 27.577z" fill="#0571b3"/><path d="m280.829 364.413c-62.181 9.463-121.865 9.703-174.675 2.248-11.634-19.821-19.768-42.142-23.434-66.251-15.622-102.761 55.122-197.806 158.037-212.38 45.156-6.395 88.896 4.007 124.825 26.503 7.094 4.441 13.685 9.658 19.522 15.655 7.608 7.816 17.062 13.82 24.147 22.211 21.418 25.366 36.32 56.776 41.681 92.002 3.058 20.092 2.783 39.921-.412 58.928-1.187 7.06-5.896 13.028-12.432 15.948-45.978 20.543-99.399 36.33-157.259 45.136z" fill="#5592ca"/><path d="m462.001 177.08c-62.652 28.343-127.523 61.043-207.021 74.965-81.794 14.324-172.65 12.016-249.447 8.059-.022-1.366-.033-2.734-.033-4.104 0-6.023.218-11.995.645-17.91 76.667 3.938 167.258 6.195 248.836-8.09 83.606-14.641 150.939-50.882 216.697-79.515.029.061.058.122.087.183 4.746 9.953.282 21.867-9.764 26.412zm-330.501 293.129v-109.581c-39.514-5.164-77.063-12.839-111.957-22.674 20.051 56.504 60.25 103.469 111.957 132.255z" fill="#463b83"/><path d="m294.5 220.038c10.655-8.657 64.277-27.869 81.072-29.326 1.033-.09 1.96.619 2.141 1.639 6.648 37.526 7.306 85.899-6.368 107.582-.686 1.088-2.031 1.565-3.249 1.153-24.656-8.343-55.184-47.364-73.596-81.048z" fill="#f5c02c"/><path d="m375.573 190.711c1.032-.09 1.959.619 2.14 1.639 3 16.934 4.78 36.077 4.574 53.98-.59.016-1.182.025-1.776.025-26.579 0-49.251-16.559-58.061-39.822 19.426-7.592 42.985-14.943 53.123-15.822z" fill="#fded32"/><path d="m476.831 250.583c-24.614-4.288-58.903-35.679-82.269-65.135-1.718-2.166-1.347-5.299.811-7.027 14.544-11.646 55.89-33.762 71.27-37.882 2.64 4.931 5.115 9.962 7.42 15.087 9.661 33.62 14.723 72.731 5.803 93.319-.512 1.181-1.768 1.859-3.035 1.638zm-456.509-12.394c6.579 37.019 21.853 80.926 41.479 96.386 1.01.796 2.437.796 3.447 0 20.447-16.106 36.17-63.089 42.259-100.991-12.231-4.344-63.811-4.739-83.191-1.184-2.697.495-4.474 3.09-3.994 5.789z" fill="#fc5426"/><path d="m87.38 302.599c-6.392 13.938-13.877 25.474-22.132 31.976-1.01.796-2.439.794-3.449-.002-19.625-15.461-34.898-59.366-41.477-96.383-.482-2.711 1.311-5.3 4.02-5.795 4.432-.811 10.54-1.416 17.474-1.815-.845 4.037-1.289 8.22-1.289 12.505 0 28.719 19.934 52.829 46.853 59.514zm396.886-90.534c-2.932.421-5.931.639-8.981.639-29.321 0-53.887-20.151-60.334-47.224-8.042 4.751-15.083 9.342-19.573 12.936-2.16 1.729-2.536 4.864-.817 7.032 23.364 29.453 57.649 60.841 82.262 65.134 1.268.221 2.53-.454 3.041-1.636 4.017-9.269 5.198-22.294 4.402-36.881z" fill="#f52c2c"/><path d="m254.18 252.438-13.523-3.623c-4.268-1.144-6.8-5.53-5.657-9.798l62.455-233.086c1.144-4.268 5.53-6.8 9.798-5.657l13.523 3.623c4.268 1.144 6.8 5.53 5.657 9.798l-62.455 233.086c-1.144 4.268-5.531 6.801-9.798 5.657z" fill="#f52c2c"/><path d="m265.879 123.774 34.154-11.554 7.765-28.978-34.154 11.554zm23.294-86.933-7.765 28.978 34.154-11.554 7.764-28.978z" fill="#fd9d01"/><path d="m339.193 145c0 8.284-6.716 15-15 15h-2.275l-43.831 339.464c-9.055 1.015-18.26 1.536-27.587 1.536-45.632 0-88.351-12.476-124.931-34.202l-39.132-306.798h-2.244c-8.284 0-15-6.716-15-15s6.716-15 15-15h240c8.284 0 15 6.716 15 15z" fill="#e1ebf0"/><path d="m274.479 170.666c-.344 5.315-4.995 9.334-10.321 9.334h-129.492c-3.013 0-5.341 2.644-4.96 5.633l38.415 301.173c-14.903-5.32-29.14-12.042-42.552-20.008l-39.132-306.798h-2.244c-8.525 0-15.389-7.111-14.983-15.725.38-8.068 7.33-14.275 15.407-14.275h39.883c-8.525 0-15.388 7.111-14.983 15.725.38 8.068 7.33 14.275 15.406 14.275h139.577c5.743 0 10.356 4.841 9.979 10.666z" fill="#b0dde9"/><path d="m132.115 210h144.115c3.016 0 5.345 2.649 4.959 5.64l-30.252 234.294c-.966 7.48-7.335 13.079-14.876 13.079h-64.144c-7.55 0-13.924-5.612-14.879-13.102l-29.882-234.279c-.382-2.988 1.947-5.632 4.959-5.632z" fill="#f02399"/><path d="m183.251 401.783-24.462-191.783h117.441c3.016 0 5.345 2.649 4.959 5.64l-24.041 186.2c-2.398 18.575-18.215 32.481-36.944 32.481-18.752 0-34.58-13.938-36.953-32.538z" fill="#fd2aa7"/><path d="m194.5 410c0 5.523-4.477 10-10 10s-10-4.477-10-10 4.477-10 10-10 10 4.477 10 10zm-30-130c-5.523 0-10 4.477-10 10s4.477 10 10 10 10-4.477 10-10-4.477-10-10-10zm0-53.75c5.523 0 10-4.477 10-10s-4.477-10-10-10-10 4.477-10 10 4.477 10 10 10zm95-12.5c0-6.904-5.597-12.5-12.5-12.5-2.032 0-3.951.485-5.648 1.346-2.156-7.977-9.443-13.846-18.102-13.846-10.355 0-18.75 8.395-18.75 18.75s8.395 18.75 18.75 18.75c5.22 0 9.942-2.134 13.342-5.576 2.24 3.361 6.065 5.576 10.408 5.576 6.903 0 12.5-5.596 12.5-12.5zm-5 26.25c-5.523 0-10 4.477-10 10s4.477 10 10 10 10-4.477 10-10-4.477-10-10-10zm-70 7.5c-6.904 0-12.5 5.596-12.5 12.5s5.596 12.5 12.5 12.5c6.903 0 12.5-5.596 12.5-12.5s-5.596-12.5-12.5-12.5zm0 100c-6.904 0-12.5 5.596-12.5 12.5s5.596 12.5 12.5 12.5c6.903 0 12.5-5.596 12.5-12.5s-5.596-12.5-12.5-12.5z" fill="#fda2cd"/><path d="m418.306 300h-117.748c-5.814 0-9.513-6.269-6.658-11.335 1.857-3.294 3.839-6.427 5.938-9.389 7.335-10.351 17.164-18.397 28.352-23.631 10.565-4.943 19.195-13.064 24.947-23.211.955-1.685 2.031-3.308 3.222-4.859 5.829-7.587 18.399-14.362 27.963-14.59 9.704-.231 18.873 3.389 25.772 10.143 3.658 3.581 4.155 9.914.835 13.81-3.778 4.433-10.4 4.696-14.515.787-2.46-2.337-5.468-4.078-8.825-4.574-5.039-.745-9.918.887-13.422 4.392-.032.032-.064.064-.096.097-4.325 4.377-2.134 11.848 3.828 13.372 20.241 5.175 37.708 18.761 47.154 37.982l.05.102c2.466 5.03-1.195 10.904-6.797 10.904z" fill="#006e66"/><path d="m425.102 289.097c2.467 5.029-1.194 10.903-6.796 10.903h-56.323c-9.206-8.206-13.633-18.133-10.601-26.477 4.811-13.242 26.584-17.484 48.631-9.474 3.52 1.279 6.833 2.793 9.898 4.488 6.137 5.764 11.302 12.645 15.14 20.458z" fill="#037e4b"/><path d="m483.512 331.913c-29.559 90.79-110.702 158.294-208.827 167.908-33.763-10.149-59.185-54.565-59.185-107.821 0-60.751 33.081-110 73.889-110 10.6 0 20.678 3.323 29.791 9.307 11.571-12.213 25.38-19.307 40.209-19.307 13.612 0 26.364 5.979 37.316 16.406 7.782-4.147 16.167-6.406 24.906-6.406 25.914 0 48.711 19.86 61.901 49.913z" fill="#fd9d01"/><path d="m290.446 497.759c-5.201.853-10.456 1.542-15.762 2.062-33.762-10.149-59.184-54.565-59.184-107.821 0-60.751 33.081-110 73.889-110 1.998 0 3.977.119 5.935.35-25.824 18.704-43.824 60.763-43.824 109.65 0 45.746 15.762 85.513 38.946 105.759zm-4.946-105.759c0 41.45 12.94 77.991 32.618 99.55 5.601-1.605 11.119-3.404 16.547-5.389-10.31-25.706-16.488-58.473-16.488-94.161 0-48.12 11.233-90.931 28.681-118.281-34.84 9.666-61.358 58.944-61.358 118.281zm176.905-12.952c-4.273-46.223-31.12-83.095-65.34-90.296 21.681 20.913 36.212 59.324 36.212 103.248 0 10.238-.79 20.176-2.275 29.664 11.93-12.992 22.476-27.275 31.403-42.616z" fill="#f57e00"/><path d="m337.152 367.034c0 25.976-13.537 47.034-30.236 47.034s-30.236-21.058-30.236-47.034 13.537-47.034 30.236-47.034 30.236 21.058 30.236 47.034zm17.828 53.477c-3.833-3.53-9.734-3.53-13.566 0-6.656 6.129-12.067 14.918-15.551 25.356-1.951 5.845 1.874 12.022 7.958 13 4.615.741 9.428 1.134 14.377 1.134s9.762-.392 14.377-1.134c6.083-.977 9.908-7.155 7.958-12.999-3.485-10.439-8.897-19.228-15.553-25.357zm39.284-100.511c-16.699 0-30.236 21.058-30.236 47.034s13.537 47.034 30.236 47.034 30.236-21.058 30.236-47.034-13.537-47.034-30.236-47.034z" fill="#c64b1a"/><path d="m296.68 367.034c0 20.524 8.451 37.978 20.236 44.4-3.13 1.706-6.495 2.634-10 2.634-16.699 0-30.236-21.058-30.236-47.034s13.537-47.034 30.236-47.034c3.504 0 6.87.928 10 2.634-11.785 6.422-20.236 23.875-20.236 44.4zm87.348 0c0-20.524 8.451-37.978 20.236-44.4-3.13-1.706-6.495-2.634-10-2.634-16.699 0-30.236 21.058-30.236 47.034s13.537 47.034 30.236 47.034c3.505 0 6.87-.928 10-2.634-11.785-6.422-20.236-23.876-20.236-44.4zm-25.831 56.754c-1.036-1.163-2.109-2.257-3.217-3.277-3.833-3.53-9.734-3.53-13.566 0-6.656 6.129-12.067 14.918-15.551 25.356-1.951 5.845 1.874 12.022 7.958 13 4.615.741 9.428 1.134 14.377 1.134 3.404 0 6.744-.186 10-.543-1.477-.162-2.937-.359-4.377-.591-6.083-.977-9.908-7.155-7.958-13 2.903-8.701 7.147-16.255 12.334-22.079z" fill="#a62b2b"/><path d="m313.09 395.7c.661 2.05-.983 4.114-3.128 3.92-32.56-2.94-59.953-10.347-88.787-39.182-.628-.628-1.25-1.26-1.865-1.894-39.144-40.367 13.368-92.879 53.735-53.735.634.615 1.265 1.237 1.894 1.865 29.379 29.381 21.226 36.539 38.151 89.026z" fill="#fded32"/><path d="m263.619 355.97c-1.953 1.953-5.119 1.953-7.071 0-16.823-16.823-29.964-35.407-37.001-52.326-7.621-18.321-7.258-32.972 1.021-41.25 1.953-1.953 5.119-1.952 7.071 0 1.953 1.953 1.953 5.118 0 7.071-10.276 10.276 1.973 45.426 35.98 79.434 1.952 1.953 1.953 5.118 0 7.071z" fill="#ecb700"/><path d="m459.495 128.082c-22.334 19.191-33.247 14.492-79.765 29.493-2.051.661-4.114-.986-3.92-3.132 2.779-30.77 9.548-56.926 34.623-84.046 19.175 16.538 35.759 35.997 49.062 57.685z" fill="#f1ca50"/><path d="m437.596 97.814c-3.68 3.174-7.379 6.604-11.065 10.29-1.952 1.953-5.118 1.953-7.071 0s-1.952-5.118 0-7.071c3.766-3.766 7.62-7.347 11.524-10.717 2.254 2.454 4.458 4.954 6.612 7.498z" fill="#ecb700"/><path d="m215.942 50.613c2.137.222 3.35 2.571 2.305 4.449-11.189 20.12-24.016 35.698-50.891 46.233-.915.359-1.83.705-2.744 1.039-33.207 12.118-52.446-37.402-19.833-51.037.849-.355 1.706-.702 2.57-1.041 27.597-10.818 30.215-3.635 68.593.357z" fill="#fdb44c"/><path d="m174.613 76.633c-15.971 6.261-32.042 9.58-45.251 9.347-14.304-.252-23.88-4.72-26.96-12.579-.727-1.854.187-3.945 2.041-4.672s3.945.187 4.672 2.041c3.824 9.756 30.584 11.806 62.867-.849 1.854-.727 3.945.187 4.672 2.041.726 1.853-.188 3.945-2.041 4.671z" fill="#fc9302"/></g></svg>