<svg id="Capa_1" enable-background="new 0 0 501 501" height="512" viewBox="0 0 501 501" width="512" xmlns="http://www.w3.org/2000/svg"><g><path d="m387.079 368.208h-354.431c-17.35-33.618-27.148-71.769-27.148-112.208 0-135.226 109.555-244.865 244.75-245 133.081-.133 242.547 106.942 245.2 239.997 1.264 63.404-21.563 121.459-59.95 165.632 0-26.742-21.679-48.421-48.421-48.421z" fill="#5b3374"/><path d="m79.676 200 4.809 138.462c.831 23.941-32.274 30.954-41.249 8.743-10.335-25.576-16.382-46.553-12.559-48.824 32.255-19.164 48.999-98.381 48.999-98.381z" fill="#f4aa39"/><path d="m62.478 230h362.022s16.267 182.367-1.521 200c-44.275 43.89-105.211 71-172.479 71-94.871 0-177.147-53.923-217.852-132.792 14.473-30.604 20.879-63.347 24.898-96.961z" fill="#f8bb5e"/><path d="m435.5 416.629c-44.919 51.69-111.143 84.371-185 84.371s-140.081-32.681-185-84.371v-256.629h370z" fill="#ffe899"/><path d="m105.757 453.693c-14.763-10.827-28.269-23.268-40.257-37.064v-256.629h40.257z" fill="#fdd78d"/><path d="m290.5 240c-2.924 0-5.261 2.51-4.976 5.492.248 2.599 2.58 4.508 5.191 4.508h28.588c.01.004.02.009.03.013 13.2 5.467 23.477 15.737 28.936 28.917 5.46 13.18 5.455 27.708-.013 40.908-.071.171-.131.344-.182.518l-20.103 20.103c-1.953 1.953-1.953 5.119 0 7.071.976.976 2.256 1.464 3.535 1.464s2.56-.488 3.535-1.464l20.105-20.105c.157-.047.312-.103.467-.167 13.202-5.468 27.729-5.473 40.908-.013 13.18 5.459 23.449 15.735 28.917 28.936.02.049.042.097.063.145v28.458c0 2.612 1.91 4.944 4.51 5.191 2.982.284 5.49-2.054 5.49-4.977v-144.998zm104.656 33.273c-.465-8.611-3.882-16.857-9.644-23.273h32.916zm30.344-16.203v32.957c-3.158-2.85-6.814-5.168-10.858-6.843-4.014-1.663-8.205-2.607-12.422-2.834zm-67.993 18.033c-4.126-9.962-10.57-18.522-18.75-25.103h30.183c13.261 6.009 19.622 21.356 14.505 34.984l-21.485 21.486c1.204-10.553-.28-21.292-4.453-31.367zm42.84 42.904c-10.063-4.168-20.787-5.654-31.326-4.458l21.475-21.475c6.603-2.475 13.779-2.358 20.318.349 6.591 2.73 11.779 7.783 14.686 14.279v30.118c-6.587-8.21-15.166-14.676-25.153-18.813z" fill="#f9d19a"/><path d="m437.739 250h-228.239c-1.648 0-3.228-.655-4.393-1.82l-18.181-18.18-18.18 18.18c-1.165 1.165-2.745 1.82-4.393 1.82-1.648 0-3.228-.655-4.393-1.82l-33.033-33.033-33.034 33.033c-1.165 1.165-2.745 1.82-4.393 1.82h-28.342c-3.6 0-6.447-3.05-6.198-6.642l8.54-123.358h370l10.43 123.263c.307 3.625-2.553 6.737-6.191 6.737z" fill="#fdf7bd"/><path d="m331.991 290.969v155.688c0 5.523-4.478 10-10 10s-10-4.477-10-10v-145.688h-23.276c-5.522 0-10-4.477-10-10s4.478-10 10-10h33.276c5.523 0 10 4.477 10 10zm-67.021 39.518c0-27.481-22.357-49.838-49.838-49.838-23.762 0-44.328 16.902-48.902 40.189-1.064 5.419 2.466 10.675 7.885 11.74 5.419 1.067 10.676-2.465 11.74-7.885 2.736-13.932 15.05-24.043 29.277-24.043 16.453 0 29.838 13.385 29.838 29.838s-13.385 29.838-29.838 29.838c-5.522 0-10 4.477-10 10s4.478 10 10 10c16.453 0 29.838 13.385 29.838 29.837s-13.385 29.837-29.838 29.837c-14.804 0-27.508-11.033-29.55-25.666-.191-1.369-.288-2.772-.288-4.172 0-5.523-4.478-10-10-10s-10 4.477-10 10c0 2.323.162 4.658.48 6.938 3.414 24.457 24.632 42.9 49.358 42.9 27.48 0 49.838-22.357 49.838-49.838 0-16.265-7.833-30.735-19.924-39.837 12.091-9.102 19.924-23.572 19.924-39.838z" fill="#ab2538"/><path d="m431.5 200h-362c-8.284 0-15-6.716-15-15v-120c0-8.284 6.716-15 15-15h362c8.284 0 15 6.716 15 15v120c0 8.284-6.716 15-15 15z" fill="#f52c2c"/><path d="m431.5 200h-302c-8.284 0-15-6.716-15-15v-120c0-8.284 6.716-15 15-15h302c8.284 0 15 6.716 15 15v120c0 8.284-6.716 15-15 15z" fill="#fc5426"/><path d="m386.5 150h-12c-8.284 0-15-6.716-15-15v-120c0-8.284 6.716-15 15-15h12c8.284 0 15 6.716 15 15v120c0 8.284-6.716 15-15 15zm-245-15v-120c0-8.284-6.716-15-15-15h-12c-8.284 0-15 6.716-15 15v120c0 8.284 6.716 15 15 15h12c8.284 0 15-6.716 15-15z" fill="#81ade2"/><path d="m401.5 41v38c0 11.598-9.402 21-21 21s-21-9.402-21-21v-38c0-11.598 9.402-21 21-21s21 9.402 21 21zm-281-21c-11.598 0-21 9.402-21 21v38c0 11.598 9.402 21 21 21s21-9.402 21-21v-38c0-11.598-9.402-21-21-21z" fill="#b0dde9"/><path d="m367.804 216.091c-33.666 8.318-62.915 10.925-101.03-8.233-.794-.399-1.583-.803-2.366-1.212-49.845-26.023-16.494-92.375 34.128-67.898.795.385 1.59.776 2.384 1.175 38.116 19.159 31.311 28.512 66.884 76.168z" fill="#f1ca50"/><path d="m305.665 190.28c-1.24 2.467-4.245 3.462-6.713 2.222-21.258-10.685-39.572-24.197-51.569-38.048-12.991-14.999-17.25-29.021-11.992-39.482 1.24-2.467 4.245-3.462 6.713-2.222s3.462 4.246 2.222 6.713c-6.527 12.985 16.146 42.505 59.117 64.105 2.468 1.239 3.462 4.245 2.222 6.712z" fill="#ecb700"/><path d="m187.326 500.996c-34.678.157-63.718-4.195-96.251-31.789-.678-.575-1.349-1.153-2.014-1.735-42.317-37.027 5.719-93.661 49.156-57.953.682.561 1.363 1.129 2.04 1.704 32.533 27.593 23.716 35.081 47.069 89.773z" fill="#fdb44c"/><path d="m133.011 461.279c-1.786 2.106-4.941 2.365-7.047.579-18.144-15.39-32.762-32.834-41.16-49.121-9.095-17.636-9.933-32.266-2.359-41.196 1.786-2.106 4.941-2.365 7.047-.579s2.365 4.942.579 7.047c-9.401 11.083 5.684 45.112 42.361 76.222 2.107 1.787 2.365 4.942.579 7.048z" fill="#fc9302"/></g></svg>