<svg id="Capa_1" enable-background="new 0 0 501 501" height="512" viewBox="0 0 501 501" width="512" xmlns="http://www.w3.org/2000/svg"><g><path d="m490 256c0 135.31-109.69 245-245 245-56.996 0-109.447-19.463-151.068-52.105-.442-.346-42.276-42.398-42.968-43.293-31.954-41.384-50.964-93.273-50.964-149.602 0-135.31 109.69-245 245-245s245 109.69 245 245z" fill="#012d4e"/><path d="m199 475c0 8.284-6.716 15-15 15h-11.807c-22.541-7.006-43.688-17.18-62.918-30h74.725c8.284 0 15 6.716 15 15zm-125-155h-65.556c2.776 10.284 6.204 20.299 10.237 30h55.319c8.284 0 15-6.716 15-15s-6.716-15-15-15zm149.576-100c8.077 0 15.027-6.207 15.406-14.275.406-8.614-6.457-15.725-14.982-15.725h-70c-8.284 0-15-6.716-15-15s-6.716-15-15-15h-104.477c-4.133 9.695-7.659 19.711-10.53 30h25.007c8.284 0 15 6.716 15 15 0 8.284 6.716 15 15 15zm-124.559-125.725c.38-8.068 7.33-14.275 15.407-14.275h9.576c8.284 0 15-6.716 15-15s6.716-15 15-15h160c8.525 0 15.388 7.111 14.983 15.725-.38 8.068-7.33 14.275-15.407 14.275h-39.576c8.525 0 15.388 7.111 14.983 15.725-.38 8.068-7.33 14.275-15.406 14.275h-159.577c-8.525 0-15.389-7.111-14.983-15.725zm174.983 315.725h-160c-8.284 0-15-6.716-15-15s6.716-15 15-15h160c8.284 0 15 6.716 15 15s-6.716 15-15 15zm95 25c0 8.284-6.716 15-15 15h-60c-8.284 0-15-6.716-15-15s6.716-15 15-15h60c8.284 0 15 6.716 15 15zm-235-135h-60c-8.284 0-15-6.716-15-15s6.716-15 15-15h60c8.284 0 15 6.716 15 15s-6.716 15-15 15zm337.319 50c-4.316 10.38-9.326 20.399-14.971 30h-102.348c-8.284 0-15-6.716-15-15s6.716-15 15-15z" fill="#804ba1"/><path d="m194.667 348.162-100.734 100.734c-16.055-12.591-30.499-27.144-42.971-43.296l22.495-22.495c5.06-9.968 10.188-19.096 13.258-21.633 2.046-1.692 5.162-.592 5.693 2.009.037.18.068.373.094.579l59.031-59.031z" fill="#f52c2c"/><path d="m219.063 323.767-74.961 74.961 2.349 6.658c.696 1.971-.479 4.112-2.512 4.6-3.852.924-8.977 2.152-14.46 3.365l-13.535 13.535c-6.053 6.053-15.867 6.053-21.92 0s-6.053-15.867 0-21.92l103.119-103.119c6.053-6.053 15.867-6.053 21.92 0 6.053 6.053 6.053 15.867 0 21.92z" fill="#fc5426"/><path d="m499.758 251.872c-3.129 2.655-19.703 7.318-36.783 11.69-14.132 3.617-27.424 9.976-39.096 18.726-8.587 6.438-17.462 12.132-26.515 17.068 10.564 2.293 20.212 4.834 23.355 7.086 2.158 1.546 1.892 4.839-.487 6.018-5.916 2.931-30.676 3.642-46.413 3.967 6.135 3.378 11.021 6.475 12.771 8.593 1.692 2.046.592 5.162-2.009 5.693-3.675.751-13.048-.745-23.264-2.857-16.449-3.401-33.211-5.024-50.006-4.806-14.485.188-28.562-1.642-41.789-5.543-1.102 17.652-8.416 34.989-21.943 48.455-28.648 28.519-75.402 29.044-104.65 1.141-30.576-29.171-31.007-77.615-1.293-107.329 13.449-13.449 30.734-20.722 48.333-21.82-16.392-55.587 3.782-126.178 56.637-179.034 14.564-14.564 30.475-26.647 47.048-36.167 11.483-6.597 25.38-7.622 37.628-2.584 5.941 2.444 11.854 5.133 17.722 8.066 1.423.711 3.142-.055 3.545-1.595.469-1.791.966-3.208 1.492-4.132 1.314-2.307 4.617-2.383 6.036-.139.99 1.565 1.959 4.621 2.885 8.555.474 2.014 3.032 2.637 4.358 1.048 10.071-12.075 24.559-28.997 30.186-31.634 2.404-1.127 5.146.716 5.011 3.367-.334 6.565-11.722 28.349-19.135 42.245-.597 1.12-.256 2.497.785 3.223.009.006.018.013.028.019.58.404 1.305.544 1.994.386 7.425-1.707 13.715-2.77 16.605-2.313 2.622.415 3.86 3.478 2.261 5.598-.865 1.147-2.575 2.6-4.864 4.247-1.349.971-1.405 2.949-.109 3.99 8.388 6.74 16.542 14.042 24.398 21.898 14.756 14.756 27.556 30.562 38.348 46.993.755 1.15 2.324 1.411 3.402.558 10.766-8.521 22.579-17.312 27.318-18.495 2.576-.643 4.912 1.693 4.269 4.269-1.359 5.446-12.764 20.231-22.262 32.036-.591.734-.676 1.744-.229 2.574.005.01.011.02.016.029.49.91 1.513 1.389 2.527 1.185 9.026-1.818 16.983-3.001 20.303-2.336 2.603.522 3.714 3.633 2.03 5.686-1.969 2.4-7.938 6.067-15.188 9.982-1.08.583-1.519 1.902-1.017 3.021 1.149 2.559 2.253 5.125 3.311 7.696 4.996 12.145 4.128 25.897-2.393 37.295-.766 1.34-1.55 2.675-2.349 4.006-1.056 1.757.496 3.92 2.501 3.489 5.795-1.244 10.544-1.936 12.948-1.567 2.624.403 3.875 3.46 2.287 5.588-2.663 3.566-13.424 10.106-24.409 16.259-2.171 1.216-1.195 4.526 1.289 4.38 10.576-.622 19.057-.739 21.601.271 2.463.978 2.999 4.237.975 5.955z" fill="#f4aa39"/><path d="m455.59 170.678c-44.062 44.062-90.038 81.055-129.461 104.164-27.799 16.296-50.049 24.484-66.544 24.53 3.421 4.421-1.557 3.293-1.557 5.656 0 37.22-30.28 67.5-67.5 67.5-2.071 0-3.946-.839-5.303-2.197s-2.197-3.232-2.197-5.303c0-4.142 3.358-7.5 7.5-7.5 28.949 0 52.5-23.552 52.5-52.5 0-3.357 2.206-6.199 5.247-7.156-4.643-1.378-13.774-5.425-14.846-4.941-11.968 23.903-37.684 48.455-61.347 57.854-2.869 1.14-6.023.385-8.076-1.668-.882-.882-1.562-2.005-1.927-3.32-1.028-3.697 1.054-7.586 4.616-9.012 19.742-7.907 42.688-29.853 53.052-50.052-1.04-3.419.355-12.317-.553-13.596-15.696 2.125-30.849 9.219-42.914 21.284-23.223 23.223-28.033 57.886-14.43 85.848-8.049-3.916-15.543-9.357-22.048-16.324-26.747-28.643-26.743-73.65.009-102.288 15.314-16.394 36.1-24.337 56.716-23.828l-8.869-8.869c-.766-3.493-1.395-7.037-1.889-10.622-4.99-13.858-15.368-42.375-14.668-49.746.251-2.643 3.231-4.069 5.446-2.605 2.173 1.435 5.522 5.58 9.285 10.897 2.385-18.051 7.755-36.423 16.013-54.309 6.1-13.211 9.27-27.598 9.422-42.148.127-12.14.698-23.993 2.475-27.903 1.098-2.417 4.38-2.794 5.998-.688 2.559 3.33 5.715 14.317 8.54 25.83 7.966-13.598 19.827-33.323 25.042-36.913 2.187-1.505 5.194-.137 5.495 2.501.124 1.085.016 2.634-.274 4.531 11.391-9.894 23.432-18.389 35.837-25.451 11.109-6.324 24.494-7.237 36.326-2.399l.185.076c-9.841 7.404-19.355 15.647-28.423 24.714-42.052 42.053-66.372 93.727-71.524 142.911-.311 2.966 3.67 4.236 5.149 1.647l.066-.116c21.785-38.124 57.021-82.358 99.218-124.555 4.063-4.063 10.752-3.899 14.603.492 3.516 4.01 3.047 10.139-.722 13.911-40.859 40.896-74.851 83.528-95.734 120.074-10.798 18.897-16.679 33.97-18.897 44.844-.232 1.136-.211 2.303.07 3.428l.039.157c1.47 5.891 8.805 7.924 13.098 3.631l137.045-137.039c4.061-4.061 10.746-3.899 14.597.486 3.515 4.002 3.069 10.132-.698 13.898l-139.308 139.309c-4.413 4.413-.697 11.924 5.485 11.064 10.541-1.467 27.008-7.179 51.06-21.279 37.918-22.228 82.361-58.016 125.173-100.792 3.772-3.769 9.902-4.236 13.91-.72 4.391 3.851 4.555 10.54.492 14.602z" fill="#d98800"/><path d="m262.55 331.192-86.267-86.267c-5.858-5.858-5.858-15.355 0-21.213 5.858-5.858 15.355-5.858 21.213 0l86.267 86.267c5.858 5.858 5.858 15.355 0 21.213-5.858 5.857-15.356 5.857-21.213 0z" fill="#f5c02c"/><path d="m262.55 331.192-57.983-57.983c-5.858-5.858-5.858-15.355 0-21.213 5.858-5.858 15.355-5.858 21.213 0l57.983 57.983c5.858 5.858 5.858 15.355 0 21.213-5.858 5.857-15.356 5.857-21.213 0z" fill="#fded32"/></g></svg>