<svg id="Capa_1" enable-background="new 0 0 501 501" height="512" viewBox="0 0 501 501" width="512" xmlns="http://www.w3.org/2000/svg"><g><path d="m72.296 411.021c-5.741 1.649-11.901-.348-15.56-5.069-32.118-41.44-51.236-93.464-51.236-149.952 0-135.31 109.69-245 245-245s245 109.69 245 245c0 56.369-19.037 108.292-51.033 149.691-3.775 4.884-10.149 6.94-16.083 5.239-53.828-15.429-114.163-24.074-177.885-24.074-63.847 0-124.295 8.679-178.203 24.165z" fill="#012d4e"/><path d="m426.5 360v50c0 11.046-8.954 20-20 20h-312c-11.046 0-20-8.954-20-20v-50c0-11.046 8.954-20 20-20v-270c0-11.046 8.954-20 20-20h.224c2.527-28.033 26.086-50 54.776-50h162c28.69 0 52.249 21.967 54.776 50h.224c11.046 0 20 8.954 20 20v270c11.046 0 20 8.954 20 20z" fill="#95bcc9"/><path d="m426.5 360v50c0 11.046-8.954 20-20 20h-282c-11.046 0-20-8.954-20-20v-50c0-.017 0-.035 0-.052.007-2.754 2.323-4.948 5.076-4.948h247.109c4.107 0 7.688-3.165 7.811-7.269.127-4.247-3.278-7.731-7.497-7.731h-227.422c-2.804 0-5.077-2.273-5.077-5.077v-264.923c0-.017 0-.035 0-.052.007-2.754 2.323-4.948 5.076-4.948h97.109c4.107 0 7.688-3.165 7.811-7.269.128-4.248-3.277-7.731-7.496-7.731h-76.4c-3.211 0-5.625-2.946-4.981-6.092 5.131-25.059 27.305-43.908 53.881-43.908h132c28.69 0 52.249 21.967 54.776 50h.224c11.046 0 20 8.954 20 20v270c11.046 0 20 8.954 20 20z" fill="#b3d1e1"/><path d="m385.155 48h-73.636c-2.761 0-5 2.239-5 5s2.239 5 5 5h18.154c16.385 6.978 24.155 25.936 17.324 42.427-.005.013-.01.027-.016.04l-12.637 12.637c-1.953 1.953-1.953 5.119 0 7.071.977.976 2.256 1.464 3.536 1.464s2.559-.488 3.536-1.464l12.644-12.644h.001c16.515-6.841 35.507.962 42.459 17.4v18.069c0 2.761 2.239 5 5 5s5-2.239 5-5v-73.636c-.001-11.781-9.585-21.364-21.365-21.364zm10.752 17.683c.396 1.155.612 2.393.612 3.68v8.962c-2.836-1.892-6.022-3.216-9.364-3.891zm-7.072-7.071-8.713 8.713c-.332-1.642-.826-3.264-1.481-4.847-.656-1.584-1.455-3.081-2.383-4.479h8.896c1.288.001 2.526.217 3.681.613zm-41.69-.612h14.404c3.562 1.712 6.331 4.632 7.853 8.306 1.52 3.67 1.628 7.69.324 11.416l-10.25 10.25c-.013-11.194-4.466-22.014-12.331-29.972zm19.393 37.052 10.246-10.246c7.693-2.675 16.23.887 19.735 8.25v14.358c-7.956-7.878-18.781-12.344-29.981-12.362z" fill="#e1ebf0"/><path d="m64.5 187.5c0 4.142-3.358 7.5-7.5 7.5s-7.5-3.358-7.5-7.5 3.358-7.5 7.5-7.5 7.5 3.358 7.5 7.5zm367.5 82.5c-4.142 0-7.5 3.358-7.5 7.5s3.358 7.5 7.5 7.5 7.5-3.358 7.5-7.5-3.358-7.5-7.5-7.5z" fill="#fded32"/><path d="m449.5 187.5c0 4.142-3.358 7.5-7.5 7.5s-7.5-3.358-7.5-7.5 3.358-7.5 7.5-7.5 7.5 3.358 7.5 7.5zm-412.5 82.5c-4.142 0-7.5 3.358-7.5 7.5s3.358 7.5 7.5 7.5 7.5-3.358 7.5-7.5-3.358-7.5-7.5-7.5z" fill="#6e61b5"/><path d="m454.5 312.5c0 4.142-3.358 7.5-7.5 7.5s-7.5-3.358-7.5-7.5 3.358-7.5 7.5-7.5 7.5 3.358 7.5 7.5zm-387.5-102.5c-4.142 0-7.5 3.358-7.5 7.5s3.358 7.5 7.5 7.5 7.5-3.358 7.5-7.5-3.358-7.5-7.5-7.5zm380-45c4.142 0 7.5-3.358 7.5-7.5s-3.358-7.5-7.5-7.5-7.5 3.358-7.5 7.5 3.358 7.5 7.5 7.5z" fill="#8ed0e1"/><path d="m152 90c0 4.142-3.358 7.5-7.5 7.5s-7.5-3.358-7.5-7.5 3.358-7.5 7.5-7.5 7.5 3.358 7.5 7.5zm17.5 17.5c-4.142 0-7.5 3.358-7.5 7.5s3.358 7.5 7.5 7.5 7.5-3.358 7.5-7.5-3.358-7.5-7.5-7.5zm102.5 192.5c-4.142 0-7.5 3.358-7.5 7.5s3.358 7.5 7.5 7.5 7.5-3.358 7.5-7.5-3.358-7.5-7.5-7.5zm67.5-90c-4.142 0-7.5 3.358-7.5 7.5s3.358 7.5 7.5 7.5 7.5-3.358 7.5-7.5-3.358-7.5-7.5-7.5zm-32.5-195c-4.142 0-7.5 3.358-7.5 7.5s3.358 7.5 7.5 7.5 7.5-3.358 7.5-7.5-3.358-7.5-7.5-7.5zm15 212.5c-4.142 0-7.5 3.358-7.5 7.5s3.358 7.5 7.5 7.5 7.5-3.358 7.5-7.5-3.358-7.5-7.5-7.5zm50-82.5c-4.142 0-7.5 3.358-7.5 7.5s3.358 7.5 7.5 7.5 7.5-3.358 7.5-7.5-3.358-7.5-7.5-7.5zm-232.5 100c-4.142 0-7.5 3.358-7.5 7.5s3.358 7.5 7.5 7.5 7.5-3.358 7.5-7.5-3.358-7.5-7.5-7.5zm-17.5-17.5c-4.142 0-7.5 3.358-7.5 7.5s3.358 7.5 7.5 7.5 7.5-3.358 7.5-7.5-3.358-7.5-7.5-7.5zm175 72.5c-4.142 0-7.5 3.358-7.5 7.5s3.358 7.5 7.5 7.5 7.5-3.358 7.5-7.5-3.358-7.5-7.5-7.5z" fill="#7daebd"/><path d="m316.5 145v20c0 2.761-2.239 5-5 5h-46v95c0 2.761-2.239 5-5 5h-20c-2.761 0-5-2.239-5-5v-95h-46c-2.761 0-5-2.239-5-5v-20c0-2.761 2.239-5 5-5h46v-45c0-2.761 2.239-5 5-5h20c2.761 0 5 2.239 5 5v45h46c2.761 0 5 2.239 5 5z" fill="#328091"/><path d="m349.683 378.614c47.167 8.383 57.285 71.916 14.906 94.257-34.073 17.962-72.894 28.129-114.089 28.129-79.155 0-149.542-37.538-194.332-95.782 56.711-22.353 123.216-35.218 194.332-35.218 34.33 0 67.585 2.998 99.183 8.614z" fill="#01988c"/><path d="m401.021 390.421c1.665-2.878 2.831-5.58 3.419-7.936.366-1.468-.98-2.787-2.448-2.419-3.794.951-8.481 3.397-13.354 7.013-.043-.018-.054-.023-.097-.041-.83-6.736-2.519-12.408-4.716-16.066-.775-1.291-2.657-1.295-3.432-.005-1.86 3.095-3.356 7.634-4.276 13.04-24.217-5.591-49.574-9.612-75.783-11.874-.523.045-1.046.091-1.569.138-34.639 3.086-53.883 29.431-55.887 57.004-.421 5.793 4.173 10.725 9.981 10.725h81.298c5.326 0 9.977 4.019 10.321 9.334.377 5.824-4.235 10.666-9.978 10.666h-67.611c-8.899 0-13.352 10.735-7.092 17.06 7.252 7.328 16.855 13.051 28.895 16.162 3.845.994 7.727 1.896 11.643 2.706 58.498-12.088 109.37-45.03 144.498-90.71-14.031-5.53-28.661-10.479-43.812-14.797zm-36.521 29.579h-50c-5.523 0-10-4.477-10-10s4.477-10 10-10h50c5.523 0 10 4.477 10 10s-4.477 10-10 10z" fill="#08b772"/><path d="m209.833 460h-35.333c-5.523 0-10-4.477-10-10 0-5.523 4.477-10 10-10h35.333c5.523 0 10 4.477 10 10 0 5.523-4.477 10-10 10zm-20-50c0-5.523-4.477-10-10-10h-25.333c-5.523 0-10 4.477-10 10 0 5.523 4.477 10 10 10h25.333c5.523 0 10-4.477 10-10z" fill="#037e73"/></g></svg>