<svg id="Capa_1" enable-background="new 0 0 501 501" height="512" viewBox="0 0 501 501" width="512" xmlns="http://www.w3.org/2000/svg"><g><path d="m495.5 256c0 135.31-109.69 245-245 245s-245-109.69-245-245 109.69-245 245-245 245 109.69 245 245z" fill="#e659a9"/><path d="m455.5 285c0 113.218-91.782 205-205 205s-205-91.782-205-205 91.782-205 205-205 205 91.782 205 205z" fill="#f5c02c"/><path d="m250.503 80c-42.592-.001-82.151 12.989-114.931 35.221-19.125 28.197-31.409 61.41-34.47 97.255-.527 6.168 4.316 11.391 10.503 11.589.091.003.181.006.272.01 11.203.493 20.424 9.535 21.118 20.727.799 12.88-9.411 23.575-22.118 23.575-2.517 0-4.935-.42-7.19-1.193 17.433 95.539 101.09 167.963 201.663 167.963 42.591 0 82.148-12.989 114.927-35.221 22.232-32.779 35.221-72.335 35.221-114.926.003-113.472-91.522-204.998-204.995-205zm104.159 121.892c-18.36 0-33.243-14.884-33.243-33.243s14.884-33.243 33.243-33.243c18.36 0 33.243 14.883 33.243 33.243s-14.883 33.243-33.243 33.243zm49.865 33.243c-9.18 0-16.622-7.442-16.622-16.622s7.442-16.622 16.622-16.622 16.622 7.442 16.622 16.622-7.442 16.622-16.622 16.622z" fill="#fded32"/><path d="m81.069 253.263-21.213 21.213c-3.905 3.905-10.237 3.905-14.142 0l-21.214-21.213c4.023-4.023 10.43-4.368 14.862-.802l13.423 10.802 13.422-10.802c4.432-3.566 10.839-3.221 14.862.802zm298.569-154.633-13.422 10.802-13.423-10.802c-4.432-3.567-10.839-3.221-14.862.802l21.213 21.213c3.905 3.905 10.237 3.905 14.142 0l21.214-21.214c-4.023-4.022-10.43-4.368-14.862-.801z" fill="#012d4e"/><path d="m400.5 390v59.728c-26.266 20.367-56.785 35.509-90 43.871-1.36.342-37.206-22.599-60-22.599s-58.641 22.941-60 22.599c-20.792-5.234-40.527-13.125-58.824-23.292-19.355-10.754-31.175-31.343-31.175-53.485v-26.822h76.698v-220h146.604v220z" fill="#463b83"/><path d="m139.5 171.698c0-4.741 3.844-8.585 8.585-8.585h5.617l87.258-158.068c3.714-6.727 15.367-6.727 19.081 0l87.258 158.068h5.617c4.741 0 8.585 3.844 8.585 8.585 0 4.741-3.844 8.585-8.585 8.585h-204.83c-4.742 0-8.586-3.844-8.586-8.585zm328.415 211.132h-74.915v-126.83c0-3.314-2.686-6-6-6l-136.5 40-136.5-40c-3.314 0-6 2.686-6 6v126.83h-74.915c-4.741 0-8.585 3.844-8.585 8.585s3.844 8.585 8.585 8.585h434.83c4.741 0 8.585-3.844 8.585-8.585s-3.844-8.585-8.585-8.585z" fill="#54469b"/><path d="m264.5 91.415c0-4.741 3.844-8.585 8.585-8.585h12.83c4.741 0 8.585 3.844 8.585 8.585s-3.844 8.585-8.585 8.585h-12.83c-4.741 0-8.585-3.844-8.585-8.585zm38.621 54.528h-73.076c-2.638 0-4.553-2.509-3.859-5.053l2.554-9.358c.475-1.74 2.055-2.947 3.859-2.947h13.021c4.572 0 8.565-3.451 8.86-8.013.324-5-3.636-9.156-8.566-9.156h-6.445c-2.638 0-4.553-2.509-3.859-5.053l26.588-97.406-2.159-3.911c-3.714-6.727-15.367-6.727-19.081 0l-87.258 158.068h-5.617c-4.741 0-8.585 3.844-8.585 8.585 0 4.741 3.844 8.585 8.585 8.585h29.113v88.237l32.5 9.524v-94.373c0-1.871 1.516-3.387 3.387-3.387-4.741 0-8.585-3.844-8.585-8.585 0-4.74 3.841-8.582 8.58-8.585h7.04 83.295c4.931 0 8.89-4.156 8.566-9.156-.293-4.565-4.285-8.016-8.858-8.016zm-100.036 184.057h22.83c4.741 0 8.585 3.844 8.585 8.585 0 4.741-3.844 8.585-8.585 8.585h-22.83c-4.741 0-8.585-3.844-8.585-8.585 0-4.741 3.844-8.585 8.585-8.585zm-102.585 119.728c5.322 4.127 10.819 8.039 16.477 11.724 2.653 1.728 8.175-.661 10.898.965 2.011 1.201 1.207 6.441 3.255 7.585.622.348 1.245.693 1.87 1.035v-71.037h-32.5zm192.646-66.898h-209.767c-4.573 0-8.565 3.451-8.86 8.013-.324 5 3.636 9.156 8.566 9.156h-50c-4.931 0-8.89-4.156-8.566-9.156.295-4.563 4.288-8.013 8.86-8.013h4.283l66.361-128.712c3.048-5.911 11.5-5.911 14.547 0l56.114 108.836c.858 1.664 2.573 2.709 4.444 2.709h113.502c4.539 0 8.51 3.404 8.845 7.93.368 4.959-3.479 9.109-8.329 9.237zm-137.231-82.83c0 4.741 3.844 8.585 8.585 8.585h22.83c4.741 0 8.585-3.844 8.585-8.585 0-4.741-3.844-8.585-8.585-8.585h-22.83c-4.741 0-8.585 3.844-8.585 8.585zm226.514-45.881-62.602 121.42c-1.716 3.328.7 7.291 4.444 7.291h139.066l-66.361-128.712c-3.047-5.911-11.499-5.911-14.547.001zm-46.514 45.881c4.741 0 8.585-3.844 8.585-8.585s-3.844-8.585-8.585-8.585h-12.83c-4.741 0-8.585 3.844-8.585 8.585s3.844 8.585 8.585 8.585zm-50 27.17c4.741 0 8.585-3.844 8.585-8.585s-3.844-8.585-8.585-8.585h-12.83c-4.741 0-8.585 3.844-8.585 8.585s3.844 8.585 8.585 8.585z" fill="#012d4e"/><path d="m121.297 360h-20c-2.761 0-5-2.239-5-5v-30c0-8.284 6.716-15 15-15 8.284 0 15 6.716 15 15v30c0 2.761-2.239 5-5 5zm34.203 101.25v-26.25c0-8.284-6.716-15-15-15-8.284 0-15 6.716-15 15v26.25c0 2.761 2.239 5 5 5h20c2.761 0 5-2.239 5-5zm220 3.75v-30c0-8.284-6.716-15-15-15-8.284 0-15 6.716-15 15v30c0 2.761 2.239 5 5 5h20c2.761 0 5-2.239 5-5zm29.203-110v-30c0-8.284-6.716-15-15-15-8.284 0-15 6.716-15 15v30c0 2.761 2.239 5 5 5h20c2.762 0 5-2.239 5-5zm-139.203-110v-30c0-8.284-6.716-15-15-15-8.284 0-15 6.716-15 15v30c0 2.761 2.239 5 5 5h20c2.761 0 5-2.239 5-5z" fill="#fda800"/><path d="m155.5 435v26.25c0 2.761-2.239 5-5 5h-6c-2.761 0-5-2.239-5-5v-26.25c0-5.756 3.242-10.755 8-13.27 4.758 2.515 8 7.514 8 13.27zm-37.203-123.27c-4.758 2.515-8 7.514-8 13.27v30c0 2.761 2.239 5 5 5h6c2.761 0 5-2.239 5-5v-30c0-5.756-3.242-10.755-8-13.27zm139.203-110c-4.758 2.515-8 7.514-8 13.27v30c0 2.761 2.239 5 5 5h6c2.761 0 5-2.239 5-5v-30c0-5.756-3.242-10.755-8-13.27zm110 220c-4.758 2.515-8 7.514-8 13.27v30c0 2.761 2.239 5 5 5h6c2.761 0 5-2.239 5-5v-30c0-5.756-3.242-10.755-8-13.27zm29.203-110c-4.758 2.515-8 7.514-8 13.27v30c0 2.761 2.239 5 5 5h6c2.761 0 5-2.239 5-5v-30c0-5.756-3.242-10.755-8-13.27z" fill="#f5c02c"/><path d="m165.5 465c0 2.761-2.239 5-5 5h-29.376c-4.818-2.694-9.536-5.545-14.147-8.548.904-.897 2.149-1.452 3.523-1.452h40c2.761 0 5 2.239 5 5zm-29.203-110c0-2.761-2.239-5-5-5h-40c-2.761 0-5 2.239-5 5s2.239 5 5 5h40c2.761 0 5-2.239 5-5zm139.203-110c0 2.761-2.239 5-5 5h-40c-2.761 0-5-2.239-5-5s2.239-5 5-5h40c2.761 0 5 2.239 5 5zm110 220c0 2.761-2.239 5-5 5h-40c-2.761 0-5-2.239-5-5s2.239-5 5-5h40c2.761 0 5 2.239 5 5zm29.203-110c0 2.761-2.239 5-5 5h-40c-2.761 0-5-2.239-5-5s2.239-5 5-5h40c2.762 0 5 2.239 5 5z" fill="#607882"/><path d="m131.297 360h-22.5c-2.761 0-5-2.239-5-5s2.239-5 5-5h22.5c2.761 0 5 2.239 5 5s-2.239 5-5 5zm29.203 100h-22.5c-2.761 0-5 2.239-5 5s2.239 5 5 5h22.5c2.761 0 5-2.239 5-5s-2.239-5-5-5zm249.203-110h-22.5c-2.761 0-5 2.239-5 5s2.239 5 5 5h22.5c2.761 0 5-2.239 5-5s-2.238-5-5-5zm-29.203 110h-22.5c-2.761 0-5 2.239-5 5s2.239 5 5 5h22.5c2.761 0 5-2.239 5-5s-2.239-5-5-5zm-110-220h-22.5c-2.761 0-5 2.239-5 5s2.239 5 5 5h22.5c2.761 0 5-2.239 5-5s-2.239-5-5-5z" fill="#87a0af"/><path d="m190.499 493.599c-3.299-.83-6.57-1.728-9.814-2.69v-6.094c0-41.319 31.257-74.815 69.815-74.815s69.815 33.496 69.815 74.815v6.094c-3.244.963-6.516 1.86-9.814 2.69-1.99.501-39.731-13.599-60.001-13.599s-58.011 14.1-60.001 13.599z" fill="#012d4e"/><path d="m310.5 480v13.599c-19.2 4.833-39.3 7.401-60 7.401s-40.8-2.567-60-7.401v-13.599c0-33.137 26.863-60 60-60 33.137 0 60 26.863 60 60z" fill="#fc5426"/><path d="m250.5 420c2.54 0 5.043.158 7.5.464v80.423c-2.491.075-4.991.113-7.5.113s-5.009-.038-7.5-.113v-80.423c2.457-.306 4.96-.464 7.5-.464z" fill="#f52c2c"/><path d="m283 482.5c0 4.142-3.358 7.5-7.5 7.5-2.221 0-4.216-.966-5.59-2.5h-38.82c-1.373 1.534-3.368 2.5-5.59 2.5-4.142 0-7.5-3.358-7.5-7.5s3.358-7.5 7.5-7.5c2.221 0 4.216.966 5.59 2.5h38.821c1.373-1.534 3.368-2.5 5.59-2.5 4.141 0 7.499 3.358 7.499 7.5zm-57.5-20.5c2.221 0 4.216-.966 5.59-2.5h38.821c1.373 1.534 3.368 2.5 5.59 2.5 4.142 0 7.5-3.358 7.5-7.5s-3.358-7.5-7.5-7.5c-2.221 0-4.216.966-5.59 2.5h-38.821c-1.373-1.534-3.368-2.5-5.59-2.5-4.142 0-7.5 3.358-7.5 7.5s3.358 7.5 7.5 7.5z" fill="#f89575"/></g></svg>