<?xml version="1.0" encoding="iso-8859-1"?>
<!-- Generator: Adobe Illustrator 19.0.0, SVG Export Plug-In . SVG Version: 6.00 Build 0)  -->
<svg version="1.1" id="Capa_1" xmlns="http://www.w3.org/2000/svg" xmlns:xlink="http://www.w3.org/1999/xlink" x="0px" y="0px"
	 viewBox="0 0 512 512" style="enable-background:new 0 0 512 512;" xml:space="preserve">
<path style="fill:#384E64;" d="M512,256c0,141.385-114.615,256-256,256S0,397.385,0,256S114.615,0,256,0S512,114.615,512,256z"/>
<path style="fill:#2F3450;" d="M280,43.75c0-7.594,6.156-13.75,13.75-13.75s13.75,6.156,13.75,13.75s-6.156,13.75-13.75,13.75
	S280,51.344,280,43.75z M323.75,110c7.594,0,13.75-6.156,13.75-13.75s-6.156-13.75-13.75-13.75S310,88.656,310,96.25
	S316.156,110,323.75,110z M361.25,50c-4.833,0-8.75,3.917-8.75,8.75s3.917,8.75,8.75,8.75s8.75-3.917,8.75-8.75
	S366.083,50,361.25,50z"/>
<path style="fill:#A5EBCE;" d="M317.352,363.716L317.352,363.716c-4.864,4.864-12.75,4.864-17.613,0l-0.019-0.019v12.939
	c0,6.879-5.576,12.455-12.455,12.455c-4.319,0-8.122-2.2-10.356-5.538v127.594C270.012,511.704,263.041,512,256,512
	c-7.041,0-14.012-0.296-20.909-0.854V386.073c-0.808-0.696-1.528-1.49-2.136-2.369c-2.247,3.253-5.998,5.387-10.25,5.387
	c-6.878,0-12.455-5.576-12.455-12.455v-11.291c-4.829,3.151-11.363,2.609-15.602-1.63l0,0c-4.864-4.864-4.864-12.75,0-17.614
	L210.25,330.5v-28.045c0-6.878,5.576-12.455,12.455-12.455c4.252,0,8.003,2.135,10.25,5.387c2.247-3.253,5.997-5.387,10.25-5.387
	c2.324,0,4.491,0.648,6.353,1.756c1.98-1.177,4.21-1.768,6.443-1.751c1.587-0.012,3.174,0.279,4.671,0.87
	c1.415-0.558,2.951-0.875,4.563-0.875c4.781,0,8.928,2.697,11.015,6.65c2.087-3.953,6.234-6.65,11.015-6.65
	c6.878,0,12.455,5.576,12.455,12.455v26.015l17.632,17.633C322.216,350.966,322.216,358.852,317.352,363.716z"/>
<path style="fill:#C8FAE1;" d="M270,360h49.9c-1.271,2.837-3.599,5.318-7.232,6.688c-4.478,1.689-9.545,0.412-12.929-2.972
	l-0.019-0.019v12.543c0,6.778-5.246,12.613-12.021,12.843c-4.497,0.153-8.482-2.081-10.79-5.531v127.594
	C270.012,511.704,263.041,512,256,512c-2.006,0-4.005-0.031-6-0.078V380C250,368.954,258.954,360,270,360z"/>
<path style="fill:#D587EB;" d="M394,324.624L394,324.624c0,9.238-7.489,16.728-16.727,16.728H134.727
	c-9.238,0-16.727-7.489-16.727-16.727l0,0c0-9.238,7.489-16.727,16.727-16.727h2.306c19.056-50.429,33.73-102.418,43.822-155.397
	l5.645-29.637c6.356-33.369,35.531-57.511,69.5-57.511l0,0c33.969,0,63.144,24.142,69.5,57.511l5.645,29.637
	c10.091,52.979,24.765,104.968,43.822,155.397h2.306C386.511,307.896,394,315.385,394,324.624z"/>
<path style="fill:#E6A0FA;" d="M331.145,152.499l-5.645-29.637c-6.356-33.369-35.531-57.511-69.5-57.511
	c-9.193,0-18.029,1.781-26.163,5.022c-3.458,15.524-5.33,32.056-5.33,49.214c0,25.298,4.058,49.244,11.295,70.59
	c2.522-2.95,6.263-4.826,10.448-4.826c7.594,0,13.75,6.156,13.75,13.75s-6.156,13.75-13.75,13.75c-0.378,0-0.75-0.027-1.121-0.057
	c20.604,41.844,54.701,69.199,93.283,69.199c8.864,0,17.491-1.444,25.773-4.176C350.295,236.877,339.242,195.008,331.145,152.499z
	 M262.25,140.851c-10.355,0-18.75-8.395-18.75-18.75s8.395-18.75,18.75-18.75c10.355,0,18.75,8.395,18.75,18.75
	S272.605,140.851,262.25,140.851z M303.75,182.851c-7.594,0-13.75-6.156-13.75-13.75s6.156-13.75,13.75-13.75
	s13.75,6.156,13.75,13.75C317.5,176.695,311.344,182.851,303.75,182.851z"/>
<path style="fill:#FFEBEB;" d="M290,38.75c0,4.833-3.917,8.75-8.75,8.75s-8.75-3.917-8.75-8.75s3.917-8.75,8.75-8.75
	S290,33.917,290,38.75z M348.75,53.75c-7.594,0-13.75,6.156-13.75,13.75s6.156,13.75,13.75,13.75s13.75-6.156,13.75-13.75
	S356.344,53.75,348.75,53.75z M328.75,2.5c-4.833,0-8.75,3.917-8.75,8.75s3.917,8.75,8.75,8.75s8.75-3.917,8.75-8.75
	S333.583,2.5,328.75,2.5z"/>
<g>
</g>
<g>
</g>
<g>
</g>
<g>
</g>
<g>
</g>
<g>
</g>
<g>
</g>
<g>
</g>
<g>
</g>
<g>
</g>
<g>
</g>
<g>
</g>
<g>
</g>
<g>
</g>
<g>
</g>
</svg>
