<?xml version="1.0" encoding="iso-8859-1"?>
<!-- Generator: Adobe Illustrator 19.0.0, SVG Export Plug-In . SVG Version: 6.00 Build 0)  -->
<svg version="1.1" id="Capa_1" xmlns="http://www.w3.org/2000/svg" xmlns:xlink="http://www.w3.org/1999/xlink" x="0px" y="0px"
	 viewBox="0 0 512.001 512.001" style="enable-background:new 0 0 512.001 512.001;" xml:space="preserve">
<path style="fill:#FFCFC3;" d="M437.02,437.02c-99.974,99.974-262.064,99.974-362.039,0s-99.974-262.064,0-362.039
	s262.064-99.974,362.039,0S536.995,337.046,437.02,437.02z"/>
<path style="fill:#632E6E;" d="M494.472,108.801c26.203,26.203,22.534,69.68-7.69,91.12l-68.19,48.374
	c-23.799,16.883-56.305,14.14-76.937-6.493l0,0L270.2,170.347l0,0c-20.633-20.633-23.376-53.138-6.493-76.937l48.374-68.191
	c21.441-30.224,64.918-33.893,91.12-7.69l9.908,9.908l71.455,71.455L494.472,108.801z"/>
<path style="fill:#4A245A;" d="M486.782,199.921l-68.191,48.374c-23.799,16.883-56.305,14.14-76.937-6.493l0,0l-71.455-71.455l0,0
	c-20.633-20.633-23.376-53.139-6.493-76.937l48.374-68.191c13.462-18.976,35.609-27.477,56.714-24.697
	c-33.001,46.056-33.379,105.348,1.979,140.706s94.65,34.98,140.706,1.979C514.259,164.313,505.758,186.46,486.782,199.921z"/>
<path style="fill:#804096;" d="M470.001,155.001c0,13.807-11.193,25-25,25s-25-11.193-25-25s11.193-25,25-25
	S470.001,141.194,470.001,155.001z"/>
<path style="fill:#E3B64B;" d="M370.59,299.266c21.378,61.704,18.473,129.953-8.725,189.878
	c-35.76,16.231-74.481,23.818-113.012,22.748c1.456-1.361,2.9-2.741,4.32-4.161c68.732-68.732,68.732-180.169,0-248.902
	c-68.732-68.732-180.169-68.732-248.902,0c-1.42,1.42-2.8,2.865-4.161,4.32c-1.07-38.531,6.517-77.252,22.748-113.012
	c59.506-27.008,127.22-30.061,188.583-9.169c-1.44-9.846,1.627-20.225,9.204-27.802c12.734-12.735,33.381-12.735,46.116,0
	c5.743,5.743,8.887,13.096,9.45,20.607c10.087-2.809,21.355-0.255,29.287,7.677c6.532,6.532,9.418,15.327,8.666,23.861
	c8.534-0.752,17.329,2.134,23.861,8.666c6.148,6.148,9.064,14.3,8.76,22.353c8.053-0.304,16.205,2.612,22.353,8.76
	c7.932,7.932,10.486,19.2,7.677,29.287c7.51,0.563,14.864,3.707,20.607,9.45c12.734,12.735,12.734,33.381,0,46.116
	C390.093,297.271,380.144,300.373,370.59,299.266z"/>
<path style="fill:#C9993F;" d="M300.213,193.218c0.425-3.602,2.006-7.094,4.77-9.857c6.533-6.533,17.125-6.533,23.658,0
	s6.533,17.125,0,23.658c-2.764,2.764-6.256,4.345-9.858,4.77c-2.921-3.232-5.928-6.413-9.043-9.528
	C306.626,199.146,303.445,196.139,300.213,193.218z M268.776,168.942c5.008,3.279,9.929,6.746,14.747,10.413
	c4.532,0.206,9.131-1.403,12.592-4.863c6.533-6.533,6.533-17.125,0-23.658s-17.125-6.533-23.658,0
	C267.561,155.729,266.334,162.904,268.776,168.942z M359.754,214.473c-6.533-6.533-17.125-6.533-23.658,0
	c-3.348,3.348-4.968,7.761-4.885,12.148c3.901,5.03,7.593,10.17,11.067,15.412c5.902,2.113,12.749,0.825,17.475-3.902
	C366.287,231.599,366.287,221.006,359.754,214.473z M386.194,255.055c-6.533-6.533-17.125-6.533-23.658,0
	c-3.753,3.752-5.338,8.843-4.779,13.735c1.611,3.223,3.153,6.472,4.62,9.746c0.056,0.057,0.103,0.12,0.16,0.177
	c6.533,6.533,17.125,6.533,23.658,0C392.727,272.18,392.727,261.588,386.194,255.055z M211.442,140.968
	c11.203,3.814,22.193,8.424,32.883,13.835c4.553-0.151,9.062-1.946,12.537-5.421c7.268-7.268,7.268-19.051,0-26.318
	c-0.794-0.794-1.65-1.485-2.54-2.106c6.431-1.223,13.157-0.51,19.239,2.157c-1.584-3.61-3.844-6.995-6.8-9.95
	c-12.734-12.735-33.381-12.735-46.116,0C213.068,120.743,210.001,131.121,211.442,140.968L211.442,140.968z M4.856,206.29
	c-3.693,18.748-5.274,37.826-4.745,56.859c1.361-1.456,2.741-2.9,4.161-4.32c68.732-68.732,180.169-68.732,248.902,0
	c68.732,68.732,68.732,180.169,0,248.902c-1.42,1.42-2.865,2.8-4.32,4.161c19.033,0.528,38.112-1.052,56.859-4.745
	c59.118-84.263,51.038-201.309-24.255-276.601S89.118,147.172,4.856,206.29z"/>
<g>
</g>
<g>
</g>
<g>
</g>
<g>
</g>
<g>
</g>
<g>
</g>
<g>
</g>
<g>
</g>
<g>
</g>
<g>
</g>
<g>
</g>
<g>
</g>
<g>
</g>
<g>
</g>
<g>
</g>
</svg>
