<?xml version="1.0" encoding="iso-8859-1"?>
<!-- Generator: Adobe Illustrator 19.0.0, SVG Export Plug-In . SVG Version: 6.00 Build 0)  -->
<svg version="1.1" id="Capa_1" xmlns="http://www.w3.org/2000/svg" xmlns:xlink="http://www.w3.org/1999/xlink" x="0px" y="0px"
	 viewBox="0 0 512 512" style="enable-background:new 0 0 512 512;" xml:space="preserve">
<path style="fill:#52C3A3;" d="M512,256c0,141.385-114.615,256-256,256S0,397.385,0,256S114.615,0,256,0S512,114.615,512,256z"/>
<path style="fill:#FFF9C8;" d="M279.094,246.416C280.32,249.368,281,252.604,281,256c0,6.262-2.308,11.982-6.112,16.368
	C307.724,280.766,332,310.547,332,346v114H180V346c0-35.453,24.276-65.234,57.112-73.632C233.308,267.982,231,262.262,231,256
	c0-3.396,0.68-6.632,1.906-9.584C202.227,236.64,180,207.92,180,174V60h152v114C332,207.92,309.773,236.64,279.094,246.416z"/>
<path style="fill:#FFF4A5;" d="M230,100c-11.046,0-20,8.954-20,20v54c0,33.92,22.227,62.64,52.906,72.416
	C261.68,249.368,261,252.604,261,256c0,6.262,0.308,11.982,4.112,16.368C232.276,280.766,210,310.547,210,346v44
	c0,11.046,8.954,20,20,20h102v30H210v20h-30V346c0-35.453,24.276-65.234,57.112-73.632C233.308,267.982,231,262.262,231,256
	c0-3.396,0.68-6.632,1.906-9.584C202.227,236.64,180,207.92,180,174V60h30v10h122v30H230z"/>
<path style="fill:#E3B64B;" d="M265.934,218.886c0.041,0.366,0.066,0.737,0.066,1.114v146.129c20.037,4.549,35,22.457,35,43.871l0,0
	h-90l0,0c0-21.414,14.963-39.322,35-43.871V220c0-0.377,0.025-0.748,0.066-1.114C225.995,214.361,211,196.438,211,175v-35h90v35
	C301,196.438,286.005,214.361,265.934,218.886z"/>
<path style="fill:#964F32;" d="M421,20c0,11.046-8.954,20-20,20h-5.08v20c0,11.019-8.911,19.952-19.92,19.996v352.008
	c11.009,0.044,19.92,8.977,19.92,19.996v18.394C355.702,496.695,307.642,512,256,512s-99.702-15.305-139.92-41.606V452
	c0-11.046,8.954-20,20-20H356V80H136.08c-11.046,0-20-8.954-20-20V40H111c-11.046,0-20-8.954-20-20s8.954-20,20-20h290
	C412.046,0,421,8.954,421,20z"/>
<path style="fill:#C9993F;" d="M250,390c0,5.523-4.477,10-10,10v10h-29c0-20.663,13.932-38.061,32.911-43.344
	c-1.859,4.158-3.109,8.648-3.632,13.358C245.672,380.163,250,384.571,250,390z M270,180c5.523,0,10-4.477,10-10s-4.477-10-10-10
	s-10,4.477-10,10S264.477,180,270,180z M270,380c-5.523,0-10,4.477-10,10s4.477,10,10,10s10-4.477,10-10S275.523,380,270,380z
	 M250,160c0-5.523-4.477-10-10-10v-10h-29v35c0,21.772,15.463,39.931,36.005,44.099c-3.587-5.644-5.958-12.137-6.73-19.113
	C245.67,199.839,250,195.43,250,190c0-5.523-4.477-10-10-10v-10C245.523,170,250,165.523,250,160z"/>
<path style="fill:#783823;" d="M356,50c0,5.523-4.477,10-10,10H156v6.004C158.55,74.116,166.127,80,175.08,80H156v352h26.413
	c-11.046,0-20,8.954-20,20c0,11.871,6.462,22.806,16.866,28.521c30.123,16.547,63.933,27.21,99.888,30.438
	C271.536,511.644,263.81,512,256,512c-51.642,0-99.702-15.305-139.92-41.606V452c0-11.019,8.911-19.952,19.92-19.996V79.996
	c-11.009-0.044-19.92-8.977-19.92-19.996V40H111c-11.046,0-20-8.954-20-20s8.954-20,20-20h39c-11.046,0-20,8.954-20,20
	s8.954,20,20,20h5.08H346C351.523,40,356,44.477,356,50z"/>
<g>
</g>
<g>
</g>
<g>
</g>
<g>
</g>
<g>
</g>
<g>
</g>
<g>
</g>
<g>
</g>
<g>
</g>
<g>
</g>
<g>
</g>
<g>
</g>
<g>
</g>
<g>
</g>
<g>
</g>
</svg>
