<svg id="Layer_1" enable-background="new 0 0 510.824 510.824" height="512" viewBox="0 0 510.824 510.824" width="512" xmlns="http://www.w3.org/2000/svg"><g><g><path d="m504.382 261.854c0-137.502-111.467-248.97-248.97-248.97-95.81 0-154.83 54.043-154.992 54.134 0 0-2.454 3.063-2.913 5.099-3.728 16.548-7.211 38.725-7.211 54.908 0 137.502 115.955 248.942 253.457 248.942 52.949 0 111.858-25.377 151.285-55.889.882-.683 3.68-5.269 3.68-5.269.174-1.06 5.664-22.921 5.664-52.955z" fill="#fef48b"/><path d="m343.731 368.939c-137.502 0-248.97-111.468-248.97-248.97 0-18.175 1.96-35.883 5.658-52.951-57.258 45.616-93.977 115.939-93.977 194.836 0 55.82 18.37 107.35 49.395 148.873l399.148.011c20.868-27.922 36.046-60.443 43.734-95.928-42.53 33.875-96.39 54.129-154.988 54.129z" fill="#ffe177"/></g><path d="m33.818 324.275c0 30.986 7.913 60.313 22.02 86.452 25.984 34.777 60.843 62.535 101.221 79.916l98.353-18.62v-346.457c-122.383 0-221.594 88.965-221.594 198.709z" fill="#eb4f02"/><path d="m255.412 125.566v356.585l98.397 8.438c40.248-17.341 75.138-45.018 101.172-79.854 14.11-26.14 22.025-55.471 22.025-86.46 0-109.744-99.211-198.709-221.594-198.709z" fill="#ff6400"/><path d="m92.338 324.275c0 67.937 25.407 128.278 64.726 166.355 17.336 7.463 35.688 13.017 54.791 16.392l43.556-21.347v-369.95c-90.062 0-163.073 93.371-163.073 208.55z" fill="#ff6400"/><path d="m255.412 115.725v369.948l43.564 21.335c19.088-3.38 37.458-8.941 54.831-16.426 39.292-38.08 64.679-98.399 64.679-166.309 0-115.177-73.011-208.548-163.074-208.548z" fill="#fe9722"/><path d="m165.062 324.275c0 78.722 18.899 147.248 46.794 182.746 14.143 2.496 28.697 3.803 43.556 3.803v-395.099c-49.899 0-90.35 93.371-90.35 208.55z" fill="#fe9722"/><path d="m255.412 510.824c14.84 0 29.399-1.307 43.564-3.814 27.89-35.501 46.785-104.021 46.785-182.735 0-115.178-40.451-208.549-90.35-208.549v395.098z" fill="#ffac47"/><path d="m172.64 255.429c-5.347-5.347-14.509-2.331-15.617 5.15-2.803 18.917-5.32 47.365 3.111 55.796s36.879 5.914 55.796 3.111c7.481-1.108 10.497-10.27 5.15-15.617z" fill="#ff6400"/><path d="m335.962 255.429c5.347-5.347 14.509-2.331 15.617 5.15 2.803 18.917 5.32 47.365-3.111 55.796s-36.879 5.914-55.796 3.111c-7.481-1.108-10.497-10.27-5.15-15.617z" fill="#ff6400"/><path d="m172.415 249.527c-5.347-5.347-13.754-2.692-14.862 4.789-2.803 18.917-5.849 45.627 2.582 54.058s36.879 5.914 55.796 3.111c1.87-.277 3.461-1.057 4.713-2.156z" fill="#b9390e"/><path d="m157.023 266.139c1.108-7.481 10.27-10.497 15.617-5.15l48.171 48.171c3.596-3.331 4.215-9.346.269-13.292l-48.44-48.44c-5.347-5.347-14.509-2.331-15.617 5.15-1.652 11.154-3.204 25.619-2.472 37.343.408-8.228 1.42-16.677 2.472-23.782z" fill="#fec344"/><path d="m350.928 253.491c-1.108-7.481-8.632-8.32-13.98-2.972l-50.12 57.619c1.357 1.717 3.353 2.979 5.844 3.348 18.917 2.803 47.365 5.32 55.796-3.111 8.431-8.432 5.263-35.967 2.46-54.884z" fill="#b9390e"/><path d="m287.522 307.343 48.44-48.44c5.347-5.347 14.509-2.331 15.617 5.15 1.102 7.44 2.157 16.351 2.522 24.941.598-11.553-.913-25.553-2.522-36.416-1.108-7.481-10.27-10.497-15.617-5.15l-48.44 48.44c-3.566 3.566-3.397 8.819-.68 12.258.215-.266.429-.533.68-.783z" fill="#fec344"/><path d="m255.412 412.31c-40.084 0-76.577-15.357-103.929-40.504-3.746-3.444-9.648.154-8.414 5.09 12.584 50.336 58.108 87.622 112.344 87.622 54.235 0 99.759-37.285 112.344-87.621 1.234-4.936-4.669-8.534-8.414-5.09-27.354 25.145-63.847 40.503-103.931 40.503z" fill="#ff6400"/><path d="m255.412 403.309c-40.084 0-76.577-15.357-103.929-40.504-3.746-3.444-9.648.154-8.414 5.09 12.584 50.336 58.108 87.622 112.344 87.622 54.235 0 99.759-37.285 112.344-87.621 1.234-4.936-4.669-8.534-8.414-5.09-27.354 25.146-63.847 40.503-103.931 40.503z" fill="#b9390e"/><path d="m306.674 421.155h-11.408c-3.692 0-6.684-2.993-6.684-6.684v-25.718h24.776v25.718c0 3.691-2.993 6.684-6.684 6.684z" fill="#ffac47"/><path d="m223.953 455.517-24.776-9.001v-16.717c0-3.692 2.993-6.684 6.684-6.684h11.408c3.692 0 6.684 2.993 6.684 6.684z" fill="#ff6400"/><path d="m343.753 143.243c-.141.004-.28.023-.421.023h-164.871l-16.163 14.646c-.023.348-.035.693-.035 1.035 0 21.241 41.893 38.46 93.57 38.46s93.57-17.219 93.57-38.46c.001-4.794-1.987-10.203-5.65-15.704z" fill="#ff6400"/><path d="m285.095 26.766c12.836-7.595 29.264-2.618 36.465 8.978.356.574.682 1.347.978 2.259 3.771 11.608 14.341 19.643 26.546 19.643h.64c-1.291-7.233-2.448-28.14-23.566-44.762-1.175-.917-10.433-3.368-11.614-4.15h-43.625c-2.401 1.557-11.722 8.33-13.921 10.307v68.542l-36.55 41.052v46.93c0 2.043 1.459 3.805 3.471 4.159l.036.006c9.787 1.722 20.562 2.676 31.881 2.676 44.799 0 81.115-14.927 81.115-33.341 0-13.538-18.233-32.71-45.69-41.917-6.644-2.228-11.454-8.035-12.414-14.976-3.44-24.87-5.111-39.965-5.49-42.101-1.027-9.642 3.894-18.723 11.738-23.305z" fill="#14d1b2"/><path d="m327.081 11.26c-23.841-18.596-49.666-8.554-50.134-8.547-9.302 2.661-18.402 8.645-25.482 17.033-6.854 8.039-11.109 17.664-12.788 27.257-2.025 13.942 2.195-15.312-5.909 45.454-1.006 7.542-6.157 13.831-13.289 16.48-26.218 9.737-44.76 27.419-44.76 40.128 0 13.762 20.284 25.576 49.234 30.667-8.344-24.898 4.979-43.871 22.642-62.496 7.56-7.971 11.84-18.497 11.837-29.483l-.014-45.16c-.001-4.188.641-8.214 2.444-11.796 5.755-8.474 13.779-14.779 24.967-18.06.417-.006 23.407-8.946 44.631 7.608 11.249 8.854 15.839 19.589 17.96 28.165-1.735-10.177-6.096-25.251-21.339-37.25z" fill="#11abb9"/></g></svg>