<svg id="Layer_1" enable-background="new 0 0 510.92 510.92" height="512" viewBox="0 0 510.92 510.92" width="512" xmlns="http://www.w3.org/2000/svg"><g><g><path d="m502.03 264.35c0-136.177-110.393-246.57-246.57-246.57-94.887 0-153.338 53.522-153.498 53.612 0 0-2.43 3.033-2.884 5.05-3.692 16.388-7.141 38.352-7.141 54.379 0 136.177 114.837 246.543 251.014 246.543 52.438 0 110.78-25.133 149.827-55.351.873-.676 3.645-5.218 3.645-5.218.17-1.05 5.607-22.7 5.607-52.445z" fill="#bd80e1"/><path d="m342.928 370.403c-136.177 0-246.57-110.393-246.57-246.57 0-18 1.941-35.538 5.603-52.441-56.706 45.176-93.071 114.822-93.071 192.958 0 65.296 25.381 124.663 66.815 168.776l355.503 4.163c32.001-32.494 55.123-73.916 65.213-120.493-42.119 33.548-95.46 53.607-153.493 53.607z" fill="#af66da"/></g><path d="m359.981 388.958h-214.843c-30.713 0-57.194 18.073-69.422 44.157 44.978 47.886 108.863 77.805 179.744 77.805 68.42 0 130.821-28.03 175.739-73.64-11.268-28.305-38.896-48.322-71.218-48.322z" fill="#00366d"/><path d="m369.219 56.328 84.135 102.353c7.506 9.131 1.01 22.879-10.81 22.879h-51.631z" fill="#00366d"/><path d="m399.144 144.309c0-79.7-64.609-144.309-144.309-144.309-79.7 0-144.309 64.609-144.309 144.309v186.307c0 40.053 32.47 72.523 72.523 72.523h143.572c40.053 0 72.523-32.47 72.523-72.523z" fill="#004281"/><path d="m206.548 239.407v85.875c0 25.325 20.53 45.855 45.855 45.855h63.765c27.791 0 50.32-22.529 50.32-50.32v-65.945z" fill="#f9f3f1"/><path d="m258.308 371.138c-27.791 0-50.32-22.529-50.32-50.32v-81.41h-64.805v81.41c0 27.791 22.529 50.32 50.32 50.32z" fill="#e1d3ce"/><path d="m366.488 254.872v-19.465l-223.305 1v18.465h6.941c16.318 0 30.177 11.947 32.582 28.087 2.405 16.14 16.264 28.087 32.582 28.087h79.095c16.318 0 30.177-11.947 32.582-28.087 2.405-16.14 16.264-28.087 32.582-28.087z" fill="#e1d3ce"/><path d="m399.144 198.249c0-9.018-7.31-16.328-16.328-16.328-9.018 0-16.328-7.31-16.328-16.328v-27.979c0-61.664-49.989-111.653-111.653-111.653-.17 0-.34 0-.51.001-26.058.117-47.007 21.543-47.007 47.601v221.036c2.56.637 5.229.982 7.97.982h88.086c13.029 0 20.335-9.325 20.335-22.354l1.321-4.446c0-17.995 16.523-29.373 34.518-29.373 21.869 0 39.597-17.728 39.597-39.597v-1.562z" fill="#fff"/><g fill="#f9f3f1"><path d="m398.222 192.837c-3.888 17.786-19.722 31.106-38.675 31.106-16.318 0-30.177 11.947-32.582 28.087s-16.264 28.087-32.582 28.087h-79.095c-16.318 0-30.177-11.947-32.582-28.087s-16.264-28.087-32.582-28.087h-1.904v15.465h1.904c16.318 0 30.177 11.947 32.582 28.087 2.405 16.14 16.264 28.087 32.582 28.087h88.698c10.8 0 19.972-7.907 21.564-18.588l1.415-9.498c2.405-16.14 16.264-28.087 32.582-28.087 21.869 0 39.597-17.728 39.597-39.597v-1.561c0-1.9-.327-3.72-.922-5.414z"/><path d="m210.436 118.062c7.329-41.486 37.56-75.066 77.17-87.21-10.363-3.177-21.366-4.891-32.771-4.891-54.994 0-100.699 39.76-109.944 92.101z"/><path d="m209.224 35.676c-38.925 17.443-66.042 56.522-66.042 101.938v27.979c0 9.044-7.401 16.266-16.445 16.329-8.964.063-16.212 7.349-16.212 16.328v1.561c0 21.869 17.728 39.597 39.597 39.597 16.318 0 30.177 11.947 32.582 28.087 2.101 14.096 12.938 24.991 26.519 27.526v-259.345z"/></g><g><path d="m271.84 208.778c-5.787-7.843-12.408-12.361-17.005-12.191-4.596-.17-11.218 4.348-17.005 12.191-7.875 10.674-11.216 23.452-7.462 28.541s13.182.561 21.058-10.113c1.255-1.701 2.394-3.457 3.409-5.225 1.015 1.769 2.153 3.524 3.409 5.225 7.875 10.674 17.303 15.202 21.058 10.113 3.754-5.09.413-17.868-7.462-28.541z" fill="#e1d3ce"/><ellipse cx="200.755" cy="181.56" fill="#e1d3ce" rx="24.849" ry="32.407"/><ellipse cx="200.755" cy="174.466" fill="#00366d" rx="24.849" ry="32.407"/><ellipse cx="306.67" cy="181.56" fill="#e1d3ce" rx="24.849" ry="32.407"/><ellipse cx="306.67" cy="174.466" fill="#00366d" rx="24.849" ry="32.407"/><g><path d="m169.068 135.318h66.647v25.616h-66.647z" fill="#f9f3f1"/></g><g><path d="m273.347 135.318h66.647v25.616h-66.647z" fill="#f9f3f1"/></g></g><path d="m255.46 483.109c-12.606 0-22.826-10.219-22.826-22.826v-71.326h45.651v71.326c.001 12.607-10.219 22.826-22.825 22.826z" fill="#004281"/><path d="m249.554 280.116h10.562v24.631h-10.562z" fill="#e1d3ce"/><path d="m219.408 280.116h10.562v24.631h-10.562z" fill="#e1d3ce"/><path d="m279.7 280.116h10.562v24.631h-10.562z" fill="#e1d3ce"/></g></svg>