<svg id="Layer_1" enable-background="new 0 0 511.014 511.014" height="512" viewBox="0 0 511.014 511.014" width="512" xmlns="http://www.w3.org/2000/svg"><g><g><path d="m510 255.507c0-140.833-114.167-255-255-255-98.131 0-158.58 55.352-158.747 55.445 0 0-2.513 3.137-2.983 5.222-3.818 16.948-7.385 39.663-7.385 56.238 0 140.833 118.763 254.972 259.596 254.972 54.231 0 114.568-25.992 154.949-57.243.903-.699 3.769-5.396 3.769-5.396.178-1.086 5.801-23.476 5.801-54.238z" fill="#004281"/><g fill="#00366d"><path d="m90.459 110.186c0-18.615 2.008-36.753 5.795-54.234-41.504 33.065-72.472 78.805-87.029 131.362l-8.728 84.238c1.552 25.005 6.708 49.033 14.955 71.573l223.756-1.061c-87.785-40.291-148.749-128.965-148.749-231.878z"/><path d="m453.875 341.046 41.48-.197c3.575-10.08 6.538-20.461 8.844-31.103-15.42 12.282-32.294 22.815-50.324 31.3z"/></g></g><g><g><path d="m434.061 257.283c0-98.684-79.999-178.684-178.684-178.684-68.762 0-111.12 38.786-111.237 38.852 0 0-1.761 2.198-2.09 3.659-2.676 11.876-5.175 27.793-5.175 39.407 0 98.684 83.22 178.664 181.904 178.664 38.001 0 80.28-18.213 108.576-40.111.633-.49 2.641-3.781 2.641-3.781.125-.761 4.065-16.45 4.065-38.006z" fill="#fef48b"/><g><path d="m429.997 295.289c-30.523 24.312-69.178 38.848-111.233 38.848-98.684 0-178.684-79.999-178.684-178.684 0-13.044 1.407-25.753 4.06-38.003-.004.003.004-.003 0 0-41.094 32.738-67.447 83.208-67.447 139.832 0 98.684 79.999 178.684 178.684 178.684 84.907.001 157.043-59.546 174.62-140.677z" fill="#ffe177"/></g></g><g fill="#ffe177"><circle cx="335.916" cy="305.919" r="33.263"/><circle cx="295.099" cy="202.769" r="19.581"/><circle cx="372.226" cy="226.521" r="11.622"/><circle cx="155.445" cy="165.634" r="19.237"/><path d="m236.111 79.63c-1.276 3.175-1.986 6.638-1.986 10.269 0 15.216 12.335 27.552 27.552 27.552 15.216 0 27.551-12.335 27.551-27.552 0-2.904-.452-5.701-1.285-8.329-10.561-1.945-21.443-2.97-32.566-2.97-6.677-.001-13.101.369-19.266 1.03z"/></g></g><path d="m454.108 352.006c-.078.071-.155.141-.233.21-7.505-9.479-15.98-15.853-29.009-15.853-5.248 0-13.443 1.022-18.055 2.819-7.501-18.801-24.73-31.443-46.207-31.443-28.146 0-52.516 12.124-52.516 40.269h-84.158c-5.964-18.598-21.566-22.612-42.145-22.612-15.337 0-29.474 5.184-37.872 16.692-2.909-.787-9.613.44-12.771.44-9.061 0-14.498 2.7-20.697 8.367-7.583-18.403-56.805-22.459-77.945-22.459l-12.244 26.84c5.113 12.014 11.121 23.556 17.94 34.541l71.811 67.426h285.831l62.704-48.098c12.113-16.019 22.389-33.536 30.5-52.254-7.468-12.324-24.315-14.627-34.934-4.885z" fill="#814ba1"/><path d="m475.002 333.72c-8.29 0-15.853 3.097-21.608 8.191-7.505-9.479-19.105-15.568-32.134-15.568-5.248 0-10.26.997-14.871 2.795-7.501-18.801-25.862-32.093-47.339-32.093-28.146 0-50.962 22.816-50.962 50.962h-84.158c-5.964-18.598-23.391-32.064-43.97-32.064-15.337 0-28.919 7.483-37.316 18.991-2.909-.787-5.965-1.214-9.122-1.214-9.061 0-17.313 3.459-23.512 9.126-7.583-18.403-25.688-31.362-46.827-31.362-21.642 0-40.1 13.583-47.345 32.685 1.389 3.745 2.863 7.447 4.42 11.107 8.948-14.287 24.823-23.79 42.925-23.79 21.139 0 39.245 12.958 46.827 31.362 6.199-5.667 14.451-9.126 23.512-9.126 3.157 0 6.213.427 9.122 1.214 8.398-11.508 21.98-18.991 37.316-18.991 20.579 0 38.006 13.466 43.97 32.064h84.158c0-28.146 22.817-50.962 50.962-50.962 21.477 0 39.837 13.292 47.339 32.093 4.612-1.798 9.624-2.795 14.871-2.795 13.029 0 24.629 6.089 32.134 15.568 5.755-5.094 13.318-8.191 21.608-8.191 5.027 0 9.789 1.138 14.041 3.17 2.277-5.255 4.383-10.605 6.312-16.042-5.579-4.462-12.654-7.13-20.353-7.13z" fill="#af66da"/><g><g fill="#00f2a6"><path d="m199.649 176.475v90.658c2.038-.583 4.168-.941 6.355-1.039 13.453-.603 24.911 11.881 24.911 24.911v24.476c2.214.293 4.467.463 6.761.463h55.913c28.21 0 51.078-22.869 51.078-51.078v-88.391z"/><path d="m230.915 301.825h93.997v143.289h-93.997z"/><path d="m206.378 42.445c-2.367 0-4.626.438-6.729 1.201v204.014h26.485v-185.459c0-10.911-8.845-19.756-19.756-19.756z"/><path d="m285.401 42.445c-2.728 0-5.326.553-7.69 1.553l-12.066 132.413v46.067h39.511v-160.277c0-10.911-8.844-19.756-19.755-19.756z"/><path d="m324.912 61.932c-2.13 0-4.182.337-6.104.961l-13.652 113.518v65.553h39.511v-160.277c.001-10.91-8.844-19.755-19.755-19.755z"/><path d="m245.889 21.308c-2.728 0-5.326.553-7.69 1.553l-12.066 153.55v24.929h39.511v-160.276c.001-10.911-8.844-19.756-19.755-19.756z"/></g><path d="m239.164 163.38v-140.873c-7.595 2.754-13.031 10.011-13.031 18.556v135.347c7.197.001 13.031-5.833 13.031-13.03z" fill="#14d1b2"/><path d="m278.988 163.068v-119.537c-7.759 2.665-13.343 10.008-13.343 18.671v114.209c7.369 0 13.343-5.974 13.343-13.343z" fill="#14d1b2"/><path d="m318.811 62.903c-7.923 2.572-13.655 10.005-13.655 18.785v94.723c7.541 0 13.655-6.113 13.655-13.655z" fill="#14d1b2"/><path d="m215.644 264.462c-9.487-5.287-15.367-15.295-15.367-26.156v-194.889c-7.923 2.572-13.655 10.005-13.655 18.785v186.088l-16.165-9.008-5.64-39.961c-2.101-14.887-15.86-25.257-30.745-23.182-8.059 1.123-13.722 8.655-12.585 16.713l7.618 53.976c1.68 11.889 8.943 22.476 19.43 28.318l59.667 33.251v136.809h24.134v-152.331c.001-11.797-6.387-22.67-16.692-28.413z" fill="#14d1b2"/></g><g fill="#14d1b2"><circle cx="249.225" cy="324.916" r="23.091"/><circle cx="288.465" cy="264.984" r="9.477"/><circle cx="243.669" cy="216.905" r="11.331"/></g><g><path d="m403.288 398.454c-18.956 0-36.68 10.847-42.684 27.743-5.813-6.448-13.566-9.248-22.93-9.248-5.568 0-10.422.125-14.972 2.642-2.521-15.02-14.208-28.183-29.945-28.183-17.136 0-27.111 17.174-33.908 29.945-5.612-4.999-11.576-6.165-19.684-6.165-11.306 0-21.818 6.504-27.446 15.4l-20.687.454c-5.628-8.896-11.153-15.853-22.459-15.853-4.618 0-11.077 3.072-15.036 4.844-3.131-21.003-22.099-37.871-43.973-37.871-18.172 0-35.728 8.083-42.275 23.888-5.825-6.775-8.561-9.355-18.197-9.355l-.163 9.043c46.379 63.508 121.406 104.769 206.071 104.769 73.074 0 139.52-30.907 186.258-80.838l1.663-5.674c-5.808-17.253-20.422-25.541-39.633-25.541z" fill="#af66da"/><path d="m458.542 409.145c-5.945 1.779-11.158 5.254-15.081 9.862-5.808-17.253-22.105-29.684-41.316-29.684-18.956 0-35.079 12.102-41.083 28.998-5.813-6.448-14.229-10.502-23.594-10.502-5.568 0-10.799 1.437-15.349 3.954-2.521-15.02-15.577-26.467-31.313-26.467-17.136 0-31.095 13.573-31.73 30.555-5.612-4.999-13.006-8.042-21.114-8.042-11.306 0-21.224 5.912-26.853 14.808h-20c-5.628-8.896-15.547-14.808-26.853-14.808-4.618 0-9.001.994-12.96 2.766-3.131-21.003-21.239-37.114-43.114-37.114-18.172 0-33.741 11.121-40.288 26.926-5.825-6.775-14.452-11.072-24.087-11.072-1.915 0-3.79.169-5.611.494 3.381 5.447 6.962 10.756 10.732 15.919 7.545 1.225 14.196 5.111 18.966 10.66 6.547-15.805 22.116-26.926 40.288-26.926 21.875 0 39.983 16.111 43.114 37.114 3.959-1.772 8.342-2.766 12.96-2.766 11.306 0 21.224 5.912 26.853 14.808h20c5.628-8.896 15.547-14.808 26.853-14.808 8.107 0 15.501 3.042 21.114 8.042.635-16.981 14.594-30.555 31.73-30.555 15.736 0 28.792 11.447 31.313 26.467 4.55-2.517 9.781-3.954 15.349-3.954 9.365 0 17.781 4.055 23.594 10.502 6.004-16.896 22.127-28.998 41.083-28.998 17.165 0 32.003 9.925 39.112 24.345 6.109-6.525 11.88-13.375 17.285-20.524z" fill="#bd80e1"/></g><path d="m511.014 169.507c0-9.281-6.446-17.04-15.101-19.09-.981-22.502-19.528-40.446-42.272-40.446-20.711 0-37.936 14.882-41.592 34.534-1.105-.148-2.23-.231-3.375-.231-13.936 0-25.234 11.298-25.234 25.234 0 2.92.502 5.721 1.414 8.33h-.814c-8.433 0-15.269 6.836-15.269 15.269s6.836 15.269 15.269 15.269h111.283c8.433 0 15.269-6.836 15.269-15.269 0-4.182-1.685-7.969-4.409-10.727 3.002-3.45 4.831-7.943 4.831-12.873z" fill="#fff"/><path d="m83.083 213.594c-.981-22.502-19.528-40.446-42.272-40.446-12.561 0-23.839 5.474-31.586 14.166-6.012 21.706-9.225 44.574-9.225 68.193 0 5.389.167 10.738.497 16.044h81.997c8.433 0 15.269-6.836 15.269-15.269 0-4.182-1.685-7.969-4.409-10.727 3-3.448 4.83-7.942 4.83-12.872 0-9.281-6.447-17.039-15.101-19.089z" fill="#dff6fd"/></g></svg>