<svg id="Layer_1" enable-background="new 0 0 499.674 499.674" height="512" viewBox="0 0 499.674 499.674" width="512" xmlns="http://www.w3.org/2000/svg"><g><g><path d="m249.837 14.153c-93.421 0-150.969 52.695-151.127 52.784 0 0-2.393 2.986-2.84 4.972-3.635 16.135-7.031 37.759-7.031 53.539 0 134.073 113.063 242.734 247.136 242.734 51.628 0 109.069-24.744 147.512-54.495.86-.666 3.589-5.137 3.589-5.137.169-1.035 5.522-22.35 5.522-51.635 0-134.074-108.688-242.762-242.761-242.762z" fill="#dff6fd"/><path d="m335.954 361.329c-134.073 0-242.76-108.688-242.76-242.761 0-17.721 1.911-34.989 5.517-51.631-55.831 44.478-91.634 113.048-91.634 189.977 0 78.592 37.347 148.461 95.261 192.828l295.043-.055c44.673-34.215 77.251-83.694 89.695-141.138-41.469 33.03-93.986 52.78-151.122 52.78z" fill="#c4e2ff"/></g><g><path d="m181.655 207.558c-65.652 24.102-111.908 81.954-111.908 149.504 0 34.486 12.055 66.447 32.591 92.68 17.803 13.639 37.549 24.867 58.752 33.199l20.566-.006v-275.377z" fill="#eb4f02"/><path d="m249.837 195.57 88.79 287.322c21.17-8.328 40.925-19.552 58.753-33.206 20.51-26.223 32.548-58.163 32.548-92.625 0-89.189-80.629-161.491-180.091-161.491z" fill="#ff6400"/><path d="m249.837 187.572c-73.195 0-132.531 75.883-132.531 169.489 0 49.953 16.899 94.859 43.783 125.879 14.908 5.858 30.535 10.284 46.713 13.108l174.566-138.987c0-93.606-59.336-169.489-132.531-169.489z" fill="#ff6400"/><path d="m249.837 187.572 42.044 308.461c16.167-2.831 31.809-7.266 46.746-13.142 26.86-31.018 43.741-75.903 43.741-125.83 0-93.606-59.336-169.489-132.531-169.489z" fill="#fe9722"/><path d="m249.837 187.572c-40.553 0-73.428 75.883-73.428 169.489 0 57.519 12.413 108.346 31.393 138.987 13.653 2.383 27.699 3.626 42.035 3.626l73.428-142.613c0-93.606-32.875-169.489-73.428-169.489z" fill="#fe9722"/><path d="m323.265 357.062c0-93.606-32.875-169.489-73.428-169.489v312.102c14.318 0 28.369-1.247 42.044-3.641 18.975-30.643 31.384-81.463 31.384-138.972z" fill="#ffac47"/><path d="m181.465 298.189c-4.346-4.346-9.951-3.263-10.852 2.817-2.278 15.374-5.06 36.282 1.791 43.134 6.852 6.852 29.971 4.806 45.346 2.528 1.52-.225 2.813-.859 3.83-1.752z" fill="#b9390e"/><path d="m169.876 309.815c.901-6.08 8.346-8.531 12.692-4.186l39.149 39.149c2.923-2.707 3.426-7.595.219-10.802l-39.367-39.367c-4.346-4.346-11.792-1.894-12.692 4.185-1.343 9.065-2.604 20.821-2.009 30.349.33-6.688 1.153-13.554 2.008-19.328z" fill="#fec344"/><path d="m327.293 300.339c-.901-6.079-6.844-6.715-11.19-2.369l-40.733 45.978c1.103 1.395 2.725 2.421 4.749 2.721 15.374 2.278 38.494 4.323 45.346-2.528 6.851-6.853 4.105-28.428 1.828-43.802z" fill="#b9390e"/><path d="m275.933 343.301 39.367-39.367c4.346-4.346 11.792-1.894 12.692 4.185.896 6.046 1.753 13.289 2.05 20.27.486-9.389-.742-20.767-2.05-29.596-.901-6.079-8.346-8.531-12.692-4.185l-39.367 39.367c-2.898 2.898-2.761 7.167-.552 9.962.174-.216.349-.432.552-.636z" fill="#fec344"/><g fill="#b9390e"><path d="m340.631 401.077-.223-2.862c-.185-1.904-.455-3.801-.846-5.691l-7.058 8.608c-2.328 2.751-4.599 5.409-6.909 7.956-2.301 2.549-4.595 5.007-6.929 7.36-.26.267-.526.519-.787.783-5.215-.411-10.275-1.034-15.168-1.897-2.845-.499-5.635-1.092-8.373-1.733-2.735-.672-5.421-1.376-8.045-2.193l-7.189-2.237-9.858 7.313c-1.094.811-2.197 1.605-3.32 2.372-1.11.783-2.231 1.548-3.372 2.286-1.15.725-2.276 1.478-3.436 2.185l-3.498 2.083c-1.172.684-2.359 1.345-3.559 1.982-.748.413-1.509.803-2.267 1.2-1.951-1.017-3.892-2.054-5.79-3.159-1.166-.694-2.352-1.359-3.505-2.076l-3.442-2.18c-1.143-.736-2.255-1.513-3.378-2.282s-2.226-1.564-3.32-2.376l-9.844-7.315-7.161 2.251c-2.624.825-5.311 1.532-8.048 2.203-1.37.315-2.752.629-4.148.927-1.396.288-2.806.546-4.229.811-2.846.496-5.745.926-8.699 1.275-2.129.251-4.296.445-6.481.617-2.596-2.615-5.175-5.33-7.735-8.184-2.306-2.549-4.572-5.21-6.894-7.963l-7.033-8.616c-.386 1.889-.651 3.784-.833 5.687l-.216 2.86-.076 2.86c-.069 3.832.199 7.661.694 11.484 1.018 7.635 3.049 15.204 5.97 22.478l1.104 2.749 7.625 3.06c3.537 1.419 7.185 2.619 10.913 3.612 3.728.994 7.54 1.776 11.407 2.323 1.933.291 3.881.498 5.839.659 1.958.172 3.927.279 5.902.316.072.002.143.001.215.002.995.953 2.001 1.892 3.024 2.814 1.453 1.314 2.954 2.57 4.485 3.787 1.534 1.212 3.073 2.421 4.671 3.544 3.183 2.264 6.462 4.389 9.855 6.303 3.37 1.957 6.871 3.662 10.403 5.27l8.728 3.976 8.772-3.975c3.535-1.602 7.037-3.304 10.412-5.253 1.689-.97 3.364-1.968 5.014-3.008 1.637-1.062 3.254-2.158 4.847-3.287 1.6-1.121 3.148-2.318 4.678-3.536 1.525-1.225 3.04-2.464 4.492-3.781 1.016-.913 2.014-1.848 3.003-2.791.068-.002.137 0 .205-.002 3.952-.079 7.879-.421 11.748-.97 7.739-1.102 15.253-3.113 22.333-5.939l7.64-3.05 1.128-2.784c1.472-3.632 2.683-7.362 3.698-11.111.987-3.765 1.762-7.563 2.262-11.386.492-3.826.755-7.658.681-11.493z"/><path d="m237.54 381.76 8.783-13.261c1.667-2.516 5.361-2.516 7.027 0l8.783 13.261c1.856 2.802-.153 6.542-3.514 6.542h-17.566c-3.359 0-5.368-3.74-3.513-6.542z"/></g></g><g><path d="m66.579 226.429h360.716v18.565h-360.716z" fill="#004281"/><ellipse cx="246.937" cy="244.994" fill="#004281" rx="180.358" ry="61.804"/><ellipse cx="246.937" cy="226.429" fill="#00366d" rx="180.358" ry="61.804"/><ellipse cx="246.937" cy="225.246" fill="#004281" rx="98.563" ry="22.879"/><path d="m225.289 2.231 146.026 77.615c7.21 3.876 4.456 14.814-3.729 14.814h-108.595z" fill="#00366d"/><path d="m285.858 45.971-60.569-43.74c-9.361-5.472-21.354-.416-23.97 10.107l-52.944 212.908h197.125l-33.963-140.993c-3.713-15.418-12.823-28.997-25.679-38.282z" fill="#004281"/><path d="m161.677 171.75-7.199 28.949c13.907 8.721 50.054 14.937 92.458 14.937 42.573 0 78.84-6.266 92.625-15.041l-6.985-28.999c-16.972 6.899-48.962 11.551-85.64 11.551-36.405.001-68.192-4.582-85.259-11.397z" fill="#fec344"/><path d="m217.704 182.121c-23.796-1.714-43.733-5.461-56.027-10.371l-7.199 28.949c10.568 6.627 33.987 11.801 63.226 13.907z" fill="#fe9722"/><path d="m269.518 184.504c.423 0 .768.344.768.768v26.691c0 .424-.345.768-.768.768h-47.206c-.423 0-.768-.344-.768-.768v-26.691c0-.423.345-.768.768-.768zm0-11.602h-47.206c-6.832 0-12.37 5.538-12.37 12.37v26.691c0 6.832 5.538 12.37 12.37 12.37h47.206c6.832 0 12.37-5.538 12.37-12.37v-26.691c0-6.832-5.538-12.37-12.37-12.37z" fill="#fedf30"/></g></g></svg>