<svg id="Layer_1" enable-background="new 0 0 510 510" height="512" viewBox="0 0 510 510" width="512" xmlns="http://www.w3.org/2000/svg"><g><g><path d="m255 5.065c-40.397 0-74.344 9.475-100.233 20.551l-59.89 39.514c-3.78 16.78-7.312 39.269-7.312 55.68 0 139.434 117.584 252.44 257.018 252.44 53.693 0 113.43-25.734 153.41-56.674.894-.692 3.732-5.343 3.732-5.343.176-1.076 5.743-23.244 5.743-53.7 0-139.435-113.034-252.468-252.468-252.468z" fill="#dff6fd"/><g><g><path d="m501.725 311.232c-43.127 34.351-97.744 54.89-157.164 54.89-139.434 0-252.467-113.034-252.467-252.468 0-18.43 1.988-36.388 5.737-53.695-.006.005.006-.005 0 0-58.063 46.257-95.298 117.568-95.298 197.574 0 139.434 113.033 252.467 252.467 252.467 119.966 0 221.891-84.136 246.725-198.768z" fill="#c4e2ff"/></g></g></g><path d="m163.302 239.241c-3.505-.907-7.002-1.536-10.473-1.905v251.115c17.549 7.776 36.146 13.616 55.523 17.241l92.275.182c26.163-4.788 50.979-13.62 73.74-25.853l41.886-28.237c15.803-13.122 29.997-28.149 42.218-44.752l13.201-80.49z" fill="#814ba1"/><path d="m105.5 258.37-69.744 60.959 14.612 86.105c12.514 17.283 27.163 32.919 43.562 46.52l29.607 21.161c9.646 5.895 19.719 11.161 30.161 15.74v-208.598c0-24.967-29.399-38.317-48.198-21.887z" fill="#693692"/><g><path d="m188.269 129.527-67.371-8.286v138.783h67.371z" fill="#814ba1"/></g><g><path d="m84.281 108.559h103.987v20.968h-103.987z" fill="#693692"/></g><g><path d="m84.281 108.559h37.93v151.465h-37.93z" fill="#693692"/></g><g><path d="m424.847 128.542-69.477-20.967v151.465h69.477z" fill="#814ba1"/></g><g><path d="m320.86 107.575h103.987v20.968h-103.987z" fill="#693692"/></g><g><path d="m320.86 107.575h37.93v151.465h-37.93z" fill="#693692"/></g><path d="m441.138 106.644-62.912-103.621c-1.357-2.235-3.76-3.231-6.049-2.987l-28.861 107.539 15.474 8.617h76.976c4.899-.001 7.915-5.359 5.372-9.548z" fill="#fd3581"/><g><path d="m367.481 3.023-12.15 20.012-50.761 83.608c-2.543 4.188.472 9.547 5.372 9.547h48.848l13.388-116.15c-1.84.197-3.607 1.187-4.697 2.983z" fill="#e41e7f"/></g><g><path d="m471.673 326.541 1.183-7.212-340.38-88.063c-29.396-7.605-58.062 14.587-58.062 44.952v50.324h397.259z" fill="#693692"/></g><g><path d="m484.275 319.329h-457.649c-7.336 0-12.286-7.495-9.405-14.242l35.107-82.236c1.608-3.767 5.309-6.211 9.405-6.211h393.287c4.327 0 8.185 2.723 9.635 6.799l29.255 82.236c2.368 6.658-2.569 13.654-9.635 13.654z" fill="#fd3581"/></g><path d="m204.559 107.629-49.792-82.012c-8.704 3.724-16.497 7.629-23.318 11.417l-16.405 70.541 7.167 9.601h76.976c4.9 0 7.915-5.359 5.372-9.547z" fill="#fd3581"/><path d="m131.449 37.033c-21.685 12.039-33.546 22.886-33.619 22.927-.587.468-1.172.938-1.754 1.411l-28.085 46.258c-2.543 4.189.472 9.547 5.372 9.547h48.848z" fill="#e41e7f"/><g><path d="m185.659 235.375 69.295-114.134 69.295 114.134z" fill="#fd3581"/></g><g><path d="m207.405 216.639 47.549-78.318 47.586 78.199 18.025.119-58.593-96.508c-3.197-5.265-10.838-5.265-14.035 0l-58.593 96.508z" fill="#e41e7f"/></g><g><path d="m254.954 381.69c-.087 0-.174 0-.261.001-13.105.072-23.589 10.957-23.589 24.062v103.129c7.866.737 15.837 1.118 23.896 1.118 15.881 0 31.445-1.475 46.557-4.299v-77.408c0-25.739-20.865-46.603-46.603-46.603z" fill="#ffe177"/></g><g><path d="m254.954 381.69c-25.738 0-46.603 20.865-46.603 46.603v77.406c7.657 1.431 15.436 2.515 23.32 3.238v-80.644c0-21.712 14.848-39.955 34.943-45.132-3.727-.96-7.634-1.471-11.66-1.471z" fill="#fec344"/></g><g><path d="m115.044 197.614h42.463v7.591h-42.463z" fill="#693692"/></g><g><path d="m157.507 198.727v-31.631c0-11.512-8.952-21.318-20.457-21.727-.405-.014-.807-.017-1.207-.009-13.772.275-23.11 14.236-18.786 27.315l8.612 26.052z" fill="#ffe177"/></g><g><path d="m125.668 198.727v-32.14c0-9.892 6.764-18.203 15.919-20.562-1.698-.437-3.478-.67-5.312-.67-11.726 0-21.232 9.506-21.232 21.232v32.14z" fill="#fec344"/></g><g><path d="m351.622 196.733h42.463v7.487h-42.463z" fill="#693692"/></g><g><path d="m394.085 197.742v-32.14c0-11.726-9.506-21.232-21.232-21.232s-14.064 10.313-14.064 22.039l3.457 31.332h31.839z" fill="#ffe177"/></g><g><path d="m362.246 197.742v-32.14c0-9.892 6.764-18.203 15.919-20.562-1.698-.437-3.478-.67-5.312-.67-11.726 0-21.232 9.506-21.232 21.232v32.14z" fill="#fec344"/></g><g><path d="m273.103 229.43v-27.473c0-10.023-8.125-18.149-18.149-18.149-10.023 0-18.149 8.126-18.149 18.149v27.473z" fill="#e41e7f"/></g><g><path d="m273.103 223.892v-27.473c0-10.023-8.125-18.149-18.149-18.149-10.023 0-18.149 8.126-18.149 18.149v27.473z" fill="#ffe177"/></g><g><path d="m245.887 223.892v-27.473c0-8.455 5.782-15.56 13.608-17.576-1.451-.374-2.973-.573-4.541-.573-10.023 0-18.149 8.126-18.149 18.149v27.473z" fill="#fec344"/></g><path d="m340.8 464.255v7.545c0 4.54 3.68 8.22 8.22 8.22h25.347c3.84-2.064 7.619-4.226 11.337-6.483" fill="#693692"/><path d="m346.59 367.375v99.525h49.479c4.687-3.162 9.255-6.487 13.716-9.947v-89.578z" fill="#ffe177"/><g><path d="m358.821 467.781c-.243-.776-.375-1.602-.375-2.459v-95.662c0-.874.139-1.715.392-2.506h-13.234c-.253.79-.392 1.631-.392 2.506v95.662c0 .857.132 1.682.375 2.459z" fill="#fec344"/></g><g><path d="m375.219 365.129h6.616v108.413h-6.616z" fill="#fff"/></g><g><path d="m343.316 395.582h70.068v7.719h-70.068z" fill="#fff"/></g><g><path d="m343.316 435.745h70.068v7.719h-70.068z" fill="#fff"/></g><g><path d="m161.163 367.491h-15.765v112.102h15.765c4.54 0 8.22-3.68 8.22-8.22v-95.662c0-4.54-3.68-8.22-8.22-8.22z" fill="#693692"/><path d="m112.315 367.43v98.363c.327.224.646.46.974.683l49.67.424v-99.47z" fill="#ffe177"/><path d="m112.678 369.233c0-.62.074-1.222.205-1.803h-12.568v89.627c4.06 3.152 8.208 6.195 12.46 9.099-.063-.411-.096-.833-.096-1.262v-95.661z" fill="#fec344"/><g><path d="m94.727 395.154h72.869v7.719h-72.869z" fill="#fff"/></g><g><path d="m94.727 435.317h72.869v7.719h-72.869z" fill="#fff"/></g><g><path d="m128.348 365.804h6.616v106.684h-6.616z" fill="#fff"/></g><path d="m161.163 361.013h-59.013c-4.54 0-8.22 3.68-8.22 8.22v82.721c2.175 1.804 4.381 3.572 6.617 5.303v-88.024c0-.884.719-1.603 1.603-1.603h59.013c.884 0 1.603.719 1.603 1.603v95.662c0 .884-.719 1.603-1.603 1.603h-47.888c3.363 2.286 6.785 4.492 10.262 6.617h37.626c4.54 0 8.22-3.68 8.22-8.22v-95.662c0-4.54-3.68-8.22-8.22-8.22z" fill="#fff"/></g><path d="m416.254 451.783v-82.123c0-4.54-3.68-8.22-8.22-8.22h-59.014c-4.54 0-8.22 3.68-8.22 8.22v95.662c0 4.54 3.68 8.22 8.22 8.22h36.687c3.504-2.124 6.953-4.33 10.345-6.617h-47.032c-.884 0-1.603-.719-1.603-1.603v-95.662c0-.884.719-1.603 1.603-1.603h59.013c.884 0 1.603.719 1.603 1.603v87.432c2.236-1.733 4.442-3.503 6.618-5.309z" fill="#fff"/><g><path d="m445.239 240.054c-8.151 0-14.76-6.608-14.76-14.76v12.793c0 8.151 6.608 14.76 14.76 14.76s14.76-6.608 14.76-14.76v-12.793c-.001 8.151-6.609 14.76-14.76 14.76z" fill="#e41e7f"/></g><g><path d="m407.684 240.054c-8.151 0-14.76-6.608-14.76-14.76v12.793c0 8.151 6.608 14.76 14.76 14.76 8.151 0 14.76-6.608 14.76-14.76v-12.793c-.001 8.151-6.609 14.76-14.76 14.76z" fill="#e41e7f"/></g><g><path d="m370.129 240.054c-8.151 0-14.76-6.608-14.76-14.76v12.793c0 8.151 6.608 14.76 14.76 14.76s14.76-6.608 14.76-14.76v-12.793c0 8.151-6.608 14.76-14.76 14.76z" fill="#e41e7f"/></g><g><path d="m332.574 240.054c-8.151 0-14.76-6.608-14.76-14.76v12.793c0 8.151 6.608 14.76 14.76 14.76 8.151 0 14.76-6.608 14.76-14.76v-12.793c0 8.151-6.608 14.76-14.76 14.76z" fill="#e41e7f"/></g><g><path d="m295.02 240.054c-8.151 0-14.76-6.608-14.76-14.76v12.793c0 8.151 6.608 14.76 14.76 14.76s14.76-6.608 14.76-14.76v-12.793c-.001 8.151-6.609 14.76-14.76 14.76z" fill="#e41e7f"/></g><g><path d="m257.465 240.054c-8.151 0-14.76-6.608-14.76-14.76v12.793c0 8.151 6.608 14.76 14.76 14.76 8.151 0 14.76-6.608 14.76-14.76v-12.793c-.001 8.151-6.609 14.76-14.76 14.76z" fill="#e41e7f"/></g><g><path d="m219.91 240.054c-8.151 0-14.76-6.608-14.76-14.76v12.793c0 8.151 6.608 14.76 14.76 14.76 8.151 0 14.76-6.608 14.76-14.76v-12.793c0 8.151-6.608 14.76-14.76 14.76z" fill="#e41e7f"/></g><g><path d="m182.355 240.054c-8.151 0-14.76-6.608-14.76-14.76v12.793c0 8.151 6.608 14.76 14.76 14.76 8.151 0 14.76-6.608 14.76-14.76v-12.793c0 8.151-6.608 14.76-14.76 14.76z" fill="#e41e7f"/></g><g><path d="m144.801 240.054c-8.151 0-14.76-6.608-14.76-14.76v12.793c0 8.151 6.608 14.76 14.76 14.76 8.151 0 14.76-6.608 14.76-14.76v-12.793c-.001 8.151-6.609 14.76-14.76 14.76z" fill="#e41e7f"/></g><g><path d="m107.246 240.054c-8.151 0-14.76-6.608-14.76-14.76v12.793c0 8.151 6.608 14.76 14.76 14.76s14.76-6.608 14.76-14.76v-12.793c0 8.151-6.609 14.76-14.76 14.76z" fill="#e41e7f"/></g><g><path d="m69.691 240.054c-8.151 0-14.76-6.608-14.76-14.76v12.793c0 8.151 6.608 14.76 14.76 14.76s14.76-6.608 14.76-14.76v-12.793c0 8.151-6.608 14.76-14.76 14.76z" fill="#e41e7f"/></g><g><path d="m491.622 299.245-3.085-8.671c-2.64 2.478-6.182 4.006-10.088 4.006-8.151 0-14.76-6.608-14.76-14.76v12.793c0 8.152 6.608 14.76 14.76 14.76 5.764-.001 10.743-3.312 13.173-8.128z" fill="#e41e7f"/></g><path d="m476.003 255.338c-1.301 6.822-7.297 11.979-14.498 11.979-8.151 0-14.76-6.608-14.76-14.76v12.793c0 8.151 6.608 14.76 14.76 14.76 8.151 0 14.76-6.608 14.76-14.76v-9.276z" fill="#e41e7f"/><g><path d="m423.95 267.317c-8.151 0-14.76-6.608-14.76-14.76v12.793c0 8.151 6.608 14.76 14.76 14.76s14.76-6.608 14.76-14.76v-12.793c0 8.151-6.608 14.76-14.76 14.76z" fill="#e41e7f"/></g><g><path d="m386.395 267.317c-8.151 0-14.76-6.608-14.76-14.76v12.793c0 8.151 6.608 14.76 14.76 14.76 8.151 0 14.76-6.608 14.76-14.76v-12.793c0 8.151-6.608 14.76-14.76 14.76z" fill="#e41e7f"/></g><g><path d="m348.841 267.317c-8.151 0-14.76-6.608-14.76-14.76v12.793c0 8.151 6.608 14.76 14.76 14.76s14.76-6.608 14.76-14.76v-12.793c-.001 8.151-6.609 14.76-14.76 14.76z" fill="#e41e7f"/></g><g><path d="m311.286 267.317c-8.151 0-14.76-6.608-14.76-14.76v12.793c0 8.151 6.608 14.76 14.76 14.76 8.151 0 14.76-6.608 14.76-14.76v-12.793c0 8.151-6.609 14.76-14.76 14.76z" fill="#e41e7f"/></g><g><path d="m273.731 267.317c-8.151 0-14.76-6.608-14.76-14.76v12.793c0 8.151 6.608 14.76 14.76 14.76s14.76-6.608 14.76-14.76v-12.793c0 8.151-6.608 14.76-14.76 14.76z" fill="#e41e7f"/></g><g><path d="m236.176 267.317c-8.151 0-14.76-6.608-14.76-14.76v12.793c0 8.151 6.608 14.76 14.76 14.76 8.151 0 14.76-6.608 14.76-14.76v-12.793c0 8.151-6.608 14.76-14.76 14.76z" fill="#e41e7f"/></g><g><path d="m198.622 267.317c-8.151 0-14.76-6.608-14.76-14.76v12.793c0 8.151 6.608 14.76 14.76 14.76 8.151 0 14.76-6.608 14.76-14.76v-12.793c-.001 8.151-6.609 14.76-14.76 14.76z" fill="#e41e7f"/></g><g><path d="m161.067 267.317c-8.151 0-14.76-6.608-14.76-14.76v12.793c0 8.151 6.608 14.76 14.76 14.76 8.151 0 14.76-6.608 14.76-14.76v-12.793c0 8.151-6.608 14.76-14.76 14.76z" fill="#e41e7f"/></g><g><path d="m123.512 267.317c-8.151 0-14.76-6.608-14.76-14.76v12.793c0 8.151 6.608 14.76 14.76 14.76s14.76-6.608 14.76-14.76v-12.793c0 8.151-6.608 14.76-14.76 14.76z" fill="#e41e7f"/></g><g><path d="m85.958 267.317c-8.151 0-14.76-6.608-14.76-14.76v12.793c0 8.151 6.608 14.76 14.76 14.76s14.76-6.608 14.76-14.76v-12.793c-.001 8.151-6.609 14.76-14.76 14.76z" fill="#e41e7f"/></g><g><path d="m48.403 280.11c8.152 0 14.76-6.608 14.76-14.76v-12.793c0 8.151-6.608 14.76-14.76 14.76-5.112 0-9.614-2.6-12.263-6.548l-2.439 5.713c.58 7.621 6.933 13.628 14.702 13.628z" fill="#e41e7f"/></g><g><path d="m441.221 294.217c-8.151 0-14.76-6.608-14.76-14.76v12.793c0 8.151 6.608 14.76 14.76 14.76s14.76-6.608 14.76-14.76v-12.793c-.001 8.152-6.609 14.76-14.76 14.76z" fill="#e41e7f"/></g><g><path d="m403.666 294.217c-8.151 0-14.76-6.608-14.76-14.76v12.793c0 8.151 6.608 14.76 14.76 14.76 8.151 0 14.76-6.608 14.76-14.76v-12.793c0 8.152-6.608 14.76-14.76 14.76z" fill="#e41e7f"/></g><g><path d="m366.111 294.217c-8.151 0-14.76-6.608-14.76-14.76v12.793c0 8.151 6.608 14.76 14.76 14.76s14.76-6.608 14.76-14.76v-12.793c0 8.152-6.608 14.76-14.76 14.76z" fill="#e41e7f"/></g><g><path d="m328.557 294.217c-8.151 0-14.76-6.608-14.76-14.76v12.793c0 8.151 6.608 14.76 14.76 14.76 8.151 0 14.76-6.608 14.76-14.76v-12.793c-.001 8.152-6.609 14.76-14.76 14.76z" fill="#e41e7f"/></g><g><path d="m291.002 294.217c-8.151 0-14.76-6.608-14.76-14.76v12.793c0 8.151 6.608 14.76 14.76 14.76s14.76-6.608 14.76-14.76v-12.793c-.001 8.152-6.609 14.76-14.76 14.76z" fill="#e41e7f"/></g><g><path d="m253.447 294.217c-8.151 0-14.76-6.608-14.76-14.76v12.793c0 8.151 6.608 14.76 14.76 14.76s14.76-6.608 14.76-14.76v-12.793c0 8.152-6.608 14.76-14.76 14.76z" fill="#e41e7f"/></g><g><path d="m215.892 294.217c-8.151 0-14.76-6.608-14.76-14.76v12.793c0 8.151 6.608 14.76 14.76 14.76s14.76-6.608 14.76-14.76v-12.793c0 8.152-6.608 14.76-14.76 14.76z" fill="#e41e7f"/></g><g><path d="m178.338 294.217c-8.151 0-14.76-6.608-14.76-14.76v12.793c0 8.151 6.608 14.76 14.76 14.76s14.76-6.608 14.76-14.76v-12.793c-.001 8.152-6.609 14.76-14.76 14.76z" fill="#e41e7f"/></g><g><path d="m140.783 294.217c-8.151 0-14.76-6.608-14.76-14.76v12.793c0 8.151 6.608 14.76 14.76 14.76s14.76-6.608 14.76-14.76v-12.793c0 8.152-6.609 14.76-14.76 14.76z" fill="#e41e7f"/></g><g><path d="m103.228 294.217c-8.151 0-14.76-6.608-14.76-14.76v12.793c0 8.151 6.608 14.76 14.76 14.76s14.76-6.608 14.76-14.76v-12.793c0 8.152-6.608 14.76-14.76 14.76z" fill="#e41e7f"/></g><g><path d="m65.673 294.217c-8.151 0-14.76-6.608-14.76-14.76v12.793c0 8.151 6.608 14.76 14.76 14.76s14.76-6.608 14.76-14.76v-12.793c0 8.152-6.608 14.76-14.76 14.76z" fill="#e41e7f"/></g><g><path d="m28.119 307.01c8.151 0 14.76-6.608 14.76-14.76v-12.793c0 8.151-6.608 14.76-14.76 14.76-2.044 0-3.99-.416-5.76-1.167l-4.271 10.005c2.634 2.447 6.152 3.955 10.031 3.955z" fill="#e41e7f"/></g></g></svg>