<svg id="Layer_1" enable-background="new 0 0 511.192 511.192" height="512" viewBox="0 0 511.192 511.192" width="512" xmlns="http://www.w3.org/2000/svg"><g><g><path d="m473.094 255.596c0-130.641-105.906-236.547-236.547-236.547-91.03 0-147.105 51.347-147.259 51.433 0 0-2.331 2.91-2.767 4.844-3.542 15.722-6.851 36.793-6.851 52.169 0 130.641 110.169 236.521 240.81 236.521 50.307 0 106.277-24.111 143.736-53.101.838-.648 3.497-5.006 3.497-5.006.165-1.008 5.381-21.777 5.381-50.313z" fill="#dff6fd"/><path d="m320.46 357.338c-130.641 0-236.547-105.906-236.547-236.547 0-17.268 1.862-34.093 5.375-50.309-46.146 36.763-78.251 90.417-86.932 151.607l15.03 122.685c35.208 86.439 120.069 147.369 219.161 147.369 112.401 0 207.898-78.83 231.166-186.234-40.406 32.185-91.579 51.429-147.253 51.429z" fill="#c4e2ff"/></g><g><g><path d="m30.071 253.826h148.785v54.154h-148.785z" fill="#fff"/></g><g><path d="m30.071 280.903h148.785v27.077h-148.785z" fill="#f9f3f1"/></g><g><g><g><path d="m322.341 161.99h69.425v221.326h-69.425c-36.486 0-66.064-29.578-66.064-66.064v-89.197c0-36.487 29.578-66.065 66.064-66.065z" fill="#14d1b2"/></g></g><g><g><path d="m140.853 363.553h140.174l-12.921-82.65h-127.253z" fill="#14d1b2"/></g></g><g><g><path d="m496.854 197.418c.706-2.446 1.092-5.027 1.092-7.7 0-15.314-12.414-27.728-27.728-27.728h-82.583c-15.314 0-27.728 12.414-27.728 27.728 0 2.673.386 5.255 1.092 7.7z" fill="#6cf5c2"/></g></g><g><g><path d="m496.779 197.682c-3.423 11.43-14.016 19.762-26.561 19.762h-82.583c-12.544 0-23.137-8.332-26.561-19.762z" fill="#14d1b2"/></g></g><g><g><path d="m496.695 308.39c.812-2.608 1.251-5.382 1.251-8.257 0-15.313-12.414-27.728-27.728-27.728h-82.583c-15.314 0-27.728 12.414-27.728 27.728 0 2.876.438 5.649 1.251 8.257z" fill="#6cf5c2"/></g></g><g><g><path d="m479.76 363.876c.819-2.617 1.261-5.401 1.261-8.288 0-15.314-12.414-27.728-27.728-27.728h-65.658c-15.314 0-27.728 12.414-27.728 27.728 0 2.887.442 5.671 1.261 8.288z" fill="#6cf5c2"/></g></g><g><g><path d="m509.896 253.564c.84-2.648 1.296-5.466 1.296-8.392 0-15.313-12.414-27.728-27.728-27.728h-95.829c-15.314 0-27.728 12.414-27.728 27.728 0 2.926.456 5.744 1.296 8.392z" fill="#6cf5c2"/></g></g><g><g><path d="m361.075 253.138h148.95c-3.423 11.43-14.016 19.762-26.561 19.762h-95.829c-12.544 0-23.137-8.332-26.56-19.762z" fill="#14d1b2"/></g></g><g><g><path d="m361.075 308.098h135.704c-3.423 11.43-14.016 19.762-26.561 19.762h-82.583c-12.544 0-23.137-8.332-26.56-19.762z" fill="#14d1b2"/></g></g><g><g><path d="m361.075 363.553h118.779c-3.423 11.43-14.016 19.762-26.561 19.762h-65.658c-12.544 0-23.137-8.332-26.56-19.762z" fill="#14d1b2"/></g></g><g><g><path d="m248.214 272.464c9.909 0 19.502-5.304 24.531-14.64l39.931-74.125c28.244-25.402 56.536-72.118 73.197-113.258 6.244-15.418-2.377-32.83-18.412-37.255-13.658-3.769-27.906 3.343-33.238 16.47-13.811 34.004-37.934 74.434-60.771 94.418l-1.265 1.108c-2.503 2.191-4.592 4.813-6.171 7.742l-42.285 78.497c-7.291 13.535-2.231 30.418 11.304 37.709 4.2 2.261 8.721 3.334 13.179 3.334z" fill="#6cf5c2"/></g></g><g><g><path d="m140.853 189.717h127.253v91.186h-127.253z" fill="#6cf5c2" transform="matrix(-1 0 0 -1 408.96 470.62)"/></g></g><g><g><ellipse cx="295.677" cy="210.943" fill="#6cf5c2" rx="75.117" ry="50.381" transform="matrix(.436 -.9 .9 .436 -23.078 385.061)"/></g></g></g><path d="m21.01 216.851c-6.834 0-13.221 1.915-18.654 5.238-1.553 10.945-2.356 22.132-2.356 33.507 0 8.013.399 15.934 1.177 23.742l19.833 9.121c19.774 0 35.804-16.03 35.804-35.804s-16.03-35.804-35.804-35.804z" fill="#fff"/><path d="m17.387 344.774c1.192.12 2.4.181 3.623.181 19.774 0 35.804-16.03 35.804-35.804s-16.03-35.804-35.804-35.804c-7.335 0-14.155 2.207-19.833 5.991 2.286 22.935 7.847 44.905 16.21 65.436z" fill="#f9f3f1"/><g><path d="m129.018 309.013c-3.907 0-7.462-1.089-10.497-2.937v108.196c0 6.167 4.999 11.166 11.166 11.166s11.166-4.999 11.166-11.166v-109.12c-3.47 2.417-7.616 3.861-11.835 3.861z" fill="#fd3581"/></g><g><path d="m129.687 319.146c-6.167 0-11.166-4.999-11.166-11.166v-54.153c0-6.167 4.999-11.166 11.166-11.166s11.166 4.999 11.166 11.166v54.153c0 6.166-4.999 11.166-11.166 11.166z" fill="#e41e7f"/></g></g></g></svg>