<svg id="Layer_1" enable-background="new 0 0 511.122 511.122" height="512" viewBox="0 0 511.122 511.122" width="512" xmlns="http://www.w3.org/2000/svg"><g><g><path d="m255.08 1.122c-9.555 0-18.753.525-27.572 1.472l-141.542 115.434c0 140.832 118.763 254.972 259.595 254.972 54.231 0 114.568-25.992 154.949-57.243.903-.699 3.77-5.396 3.77-5.396.177-1.087 5.8-23.477 5.8-54.239 0-140.833-114.167-255-255-255z" fill="#ffdbeb"/><path d="m345.539 365.801c-140.833 0-255-114.167-255-255l-88.576 176.46c5.129 42.128 20.532 81.086 43.627 114.292l46.628 50.793c44.174 36.704 100.941 58.775 162.862 58.775 35.055 0 68.584-7.112 99.144-20.026l120.01-104.519c13.84-23.208 24.118-48.852 30.046-76.217-43.559 34.697-98.724 55.442-158.741 55.442z" fill="#ffceed"/></g><g><g><path d="m227.508 2.594c-11.001 1.182-21.414 3.021-31.197 5.32l-48.523 16.648c-32.949 15.107-51.362 31.954-51.454 32.005-20.911 16.659-39.147 36.536-53.958 58.88l3.908 28.579c27.783 72.821 99.899 124.739 182.054 124.739 40.573 0 85.713-19.446 115.924-42.826.676-.523 2.82-4.037 2.82-4.037.133-.813 4.34-17.564 4.34-40.578 0-81.838-51.53-151.639-123.914-178.73z" fill="#fef48b"/><g><path d="m347.082 221.902c-32.588 25.957-73.859 41.478-118.76 41.478-90.632 0-166.502-63.2-185.945-147.932-26.726 40.321-42.296 88.68-42.296 140.674 0 10.542.64 20.933 1.882 31.14 34.219 51.154 92.517 84.838 158.683 84.838 90.652 0 167.671-63.577 186.436-150.198z" fill="#ffe177"/></g></g><g><g><circle cx="246.635" cy="233.252" fill="#ffe177" r="35.514"/></g><g><circle cx="203.056" cy="123.121" fill="#ffe177" r="20.906"/></g><g><circle cx="285.402" cy="148.481" fill="#ffe177" r="12.408"/></g><g><circle cx="71.763" cy="150.847" fill="#ffe177" r="20.538"/></g><g><path d="m147.788 24.562c5.201 4.644 12.063 7.467 19.584 7.467 14.436 0 26.443-10.399 28.939-24.114-18.519 4.35-34.784 10.347-48.523 16.647z" fill="#ffe177"/></g></g></g><g><g><g><path d="m301.68 264.198 70.188-180.592 28.905-28.38 102.568-47.525-40.743 61.414c-12.4 18.691-17.944 41.1-15.688 63.417l8.418 83.285-33.946 4.029c-27.79 3.298-49.267 25.96-51.069 53.887z" fill="#00366d"/></g><g><path d="m301.678 271.898c-.928 0-1.87-.168-2.787-.524-3.963-1.54-5.927-6.002-4.387-9.965l70.789-182.137 31.035-30.472 103.776-48.084c3.86-1.788 8.434-.109 10.222 3.749 1.787 3.857.109 8.434-3.749 10.222l-101.36 46.965-26.773 26.287-69.588 179.049c-1.185 3.045-4.095 4.91-7.178 4.91z" fill="#af66da"/></g><g><path d="m392.748 218.845c-1.541 0-2.82-1.218-2.883-2.771l-4.805-120.448c-.063-1.594 1.177-2.937 2.77-3 1.575-.063 2.936 1.176 3 2.77l4.805 120.448c.063 1.594-1.177 2.937-2.77 3-.039 0-.078.001-.117.001z" fill="#814ba1"/></g><g><path d="m435.854 98.398c-.371 0-.748-.072-1.111-.224l-27.968-11.679c-1.472-.614-2.166-2.306-1.552-3.776.615-1.471 2.308-2.163 3.776-1.552l27.968 11.679c1.472.614 2.166 2.306 1.552 3.776-.463 1.108-1.535 1.776-2.665 1.776z" fill="#814ba1"/></g></g><g><path d="m262.729 303.148-180.592 70.188-28.38 28.905 2.309 13.327c10.784 13.443 22.901 25.769 36.152 36.779 12.458-3.913 25.667-5.301 38.845-3.969l83.285 8.418 4.029-33.946c3.298-27.79 25.96-49.267 53.887-51.069z" fill="#00366d"/><path d="m265.518 310.324c3.963-1.54 5.927-6.002 4.387-9.965s-6.001-5.925-9.965-4.387l-180.592 70.189-1.544.601-30.474 31.035-1.74 3.756c3.334 4.794 6.829 9.468 10.476 14.015l4.116-8.883 26.288-26.773z" fill="#af66da"/><g><path d="m214.492 397.105c-.039 0-.078-.001-.117-.002l-120.448-4.805c-1.593-.063-2.833-1.406-2.77-3s1.396-2.803 3-2.77l120.448 4.805c1.593.063 2.833 1.406 2.77 3-.063 1.554-1.342 2.772-2.883 2.772z" fill="#814ba1"/></g><g><path d="m94.043 440.212c-1.13 0-2.202-.667-2.665-1.775l-11.678-27.969c-.614-1.472.08-3.162 1.552-3.776 1.47-.611 3.162.08 3.776 1.552l11.678 27.968c.614 1.472-.08 3.162-1.552 3.776-.363.151-.74.224-1.111.224z" fill="#814ba1"/></g></g><g><ellipse cx="310.046" cy="312.344" fill="#004281" rx="51.319" ry="78.994" transform="matrix(.707 -.707 .707 .707 -130.05 310.719)"/></g><g><path d="m248.391 217.027c-2.287-1.61-5.437.164-5.209 2.952.547 6.665-1.903 13.415-6.897 18.357-.041.041-.083.082-.124.123s-.082.083-.123.124c-4.895 4.947-11.566 7.397-18.169 6.912-2.809-.207-4.575 2.958-2.927 5.242 4.77 6.613 11.218 16.165 14.183 23.286 1.994 4.789 5.182 9.199 9.564 12.774 12.157 9.919 30.011 9.598 41.841-.708 14.382-12.529 14.944-34.372 1.687-47.629-2.891-2.891-6.191-5.124-9.713-6.701-7.299-3.267-17.292-9.929-24.113-14.732z" fill="#004281"/></g></g><g><path d="m474.233 386.576c-5.957-2.919-12.607-4.603-19.602-4.713-25.387-.398-46.221 19.482-47.359 44.497-4.825-2.569-10.333-4.025-16.181-4.025-12.818 0-24.002 6.993-29.946 17.372-3.956-1.644-8.391-2.369-13.037-1.906-12.447 1.24-22.529 11.199-23.901 23.633-1.785 16.179 10.834 29.871 26.652 29.871 1.14 0 2.262-.071 3.365-.209 50.108-21.173 92.233-57.94 120.009-104.52z" fill="#fff"/></g></g></svg>