<svg id="Layer_1" enable-background="new 0 0 510.317 510.317" height="512" viewBox="0 0 510.317 510.317" width="512" xmlns="http://www.w3.org/2000/svg"><g><g><g><path d="m377.49 43.761-9.979.589.55-5.645c-1.298-.661-2.603-1.31-3.914-1.948l-13.425-.498.23-5.457c-29.493-12.286-61.851-19.07-95.795-19.07-12.433 0-24.248.909-35.395 2.491l.281 4.035-14.285-1.639c-15.973 3.202-30.374 7.712-43.037 12.717l-1.962 5.602-8.192-1.331c-5.419 2.419-10.454 4.896-15.089 7.35l-3.801 8.843-5.975-3.378c-17.936 10.577-27.671 19.478-27.737 19.515 0 0-2.457 3.066-2.916 5.105-3.733 16.569-7.22 38.775-7.22 54.979 0 137.68 116.105 249.265 253.785 249.265 53.017 0 112.003-25.41 151.481-55.962.883-.683 3.685-5.276 3.685-5.276.174-1.062 5.671-22.951 5.671-53.024 0-93.225-51.173-174.498-126.961-217.263z" fill="#00f2a6"/></g><g><path d="m343.592 368.249c-137.68 0-249.292-111.612-249.292-249.292 0-18.198 1.963-35.93 5.665-53.02-57.332 45.674-94.099 116.088-94.099 195.087 0 13.581 1.087 26.907 3.178 39.898l6.89 1.868-5.019 8.38c6.898 33.751 20.619 65.018 39.652 92.303h401.77l12.738-7.94c15.723-24.487 27.308-51.958 33.705-81.484-42.584 33.919-96.514 54.2-155.188 54.2z" fill="#14d1b2"/></g><g><path d="m50.2 402.943c16.724 24.108 37.59 45.125 61.569 62.019l92.183 40.089c16.527 3.452 33.655 5.266 51.207 5.266l2.097-107.374z" fill="#004281"/></g></g><g><path d="m303.501 349.315 23.197 23.701-15.373-29.386c-29.977-57.302-35.48-122.732-15.497-184.236 15.167-46.678 43.539-86.557 81.662-115.634-3.102-1.75-6.246-3.437-9.429-5.056-37.933 30.017-66.206 70.508-81.53 117.669-16.414 50.516-16.311 103.573-.21 153.014l-48.026-65.595c-1.256-33.411 3.382-66.585 13.788-98.612 10.248-31.538 25.674-60.687 45.864-86.673l66.2-21.751c-4.33-2.108-8.729-4.094-13.195-5.955l-54.839 18.019c-26.865-7.65-52.741-19.41-76.35-34.596-4.792.68-9.462 1.485-14.004 2.396 22.868 15.878 48.041 28.572 74.352 37.458l-52.638 17.295c-23.27-11.52-45.039-25.642-64.786-42.022-3.508 1.387-6.882 2.812-10.12 4.257.016.013.031.027.047.04 18.88 16.144 39.63 30.247 61.802 42.015l-45.79 15.045c-10.754-6.982-21.22-14.561-31.149-22.558v-27.193c-3.488 1.846-6.749 3.679-9.776 5.465v22.507c-9.729 7.782-19.96 15.16-30.459 21.963l-18.413-6.07c-2.552 2.554-5.049 5.163-7.489 7.825l24.611 8.114c1.982 5.288 3.859 10.651 5.594 15.991 1.914 5.89 3.708 11.914 5.342 17.934l-28.34 38.922c-2.753-15.397-6.591-30.709-11.45-45.662-2.33-7.172-4.899-14.272-7.695-21.273-2.374 3.006-4.68 6.069-6.916 9.185 1.891 4.992 3.664 10.033 5.313 15.109 5.708 17.564 9.965 35.637 12.662 53.746l-32.664 44.86c-.29-24.119-3.555-48.05-9.751-71.472-2.286 5.035-4.41 10.159-6.364 15.366 4.941 22.92 7.016 46.275 6.18 69.75l-21.711 29.82c.239 5.045.628 10.05 1.163 15.011l28.685-39.395c31.095-11.284 63.744-17.004 97.071-17.004 33.132 0 65.593 5.653 96.523 16.806l48.26 65.915c-41.883-30.216-92.006-46.5-144.782-46.5-44.312 0-86.76 11.483-124.028 33.053.553 3.44 1.177 6.856 1.87 10.248 36.517-21.865 78.389-33.525 122.159-33.525 64.668 0 125.195 25.453 170.429 71.669zm-138.908-232.563c1.77-5.446 3.686-10.917 5.712-16.307l45.765-15.037c-6.591 13.726-12.302 27.984-17.03 42.536-4.938 15.197-8.821 30.764-11.583 46.411l-28.433-38.834c1.693-6.293 3.565-12.602 5.569-18.769zm-27.115-36.153c6.278 4.847 12.738 9.525 19.324 13.992l-19.324 6.349zm21.006 23.731c-1.106 3.129-2.171 6.269-3.189 9.402-1.26 3.877-2.468 7.809-3.615 11.759l-11.169-15.255zm-25.883 11.652 10.267 14.022c-6.832-.171-13.663-.163-20.494.024zm-4.899-34.635v19.586l-18.64-6.145c6.345-4.295 12.575-8.788 18.64-13.441zm-3.011 28.888-10.482 14.396c-1.073-3.662-2.197-7.305-3.365-10.9-.982-3.022-2.009-6.053-3.073-9.074zm-9.639 29.848c6.001-.284 12.05-.427 18.018-.427 5.68 0 11.432.13 17.148.387l28.46 38.871c-30.356-4.06-61.632-4.026-91.973.102zm18.018 81.79c-29.759 0-58.996 4.411-87.131 13.129l32.677-44.878c35.502-5.891 72.657-5.931 108.181-.12l32.811 44.814c-27.953-8.596-56.988-12.945-86.538-12.945zm95.263 8.313-32.764-44.749c2.69-18.349 6.985-36.669 12.769-54.47 5.581-17.178 12.57-33.933 20.789-49.847l52.764-17.336c-16.838 23.947-29.964 50.244-39.105 78.377-9.311 28.654-14.156 58.197-14.453 88.025z" fill="#11abb9"/></g><g><g><path d="m465.086 395.539c-2.901-2.297-6.569-3.669-10.557-3.669-9.4 0-17.02-7.62-17.02-17.02v-29.164c0-64.275-52.105-116.38-116.38-116.38-.177 0-.354 0-.531.001-27.161.122-48.998 22.455-48.998 49.617v230.856c77.709-4.777 150.378-47.094 193.486-114.241z" fill="#fff"/></g><g><path d="m274.85 325.307c7.639-43.242 39.15-78.244 80.437-90.903-10.802-3.312-22.271-5.098-34.158-5.098-57.323 0-104.963 41.443-114.599 96.001z" fill="#f9f3f1"/></g><g><path d="m203.951 345.049-.203 29.802c0 9.427-6.714 16.954-16.141 17.02-9.344.065-16.898 7.66-16.898 17.019v1.627c0 22.795 18.479 41.274 41.274 41.274 17.009 0 31.455 26.253 33.962 43.077.859 5.767 3.122 11.02 6.409 15.433h.031c.2.002.401.004.601.006.117.001.234.002.352.003.203.001.407.002.61.003.099 0 .198.001.297.001.304.001.609.002.914.002.41 0 .82-.001 1.23-.003.119 0 .238-.001.357-.002.336-.002.671-.005 1.007-.008.083-.001.167-.001.25-.002.408-.005.815-.01 1.223-.017.104-.002.207-.004.31-.006.32-.005.64-.011.959-.018.116-.002.232-.005.347-.008.407-.009.814-.019 1.22-.03.034-.001.068-.002.102-.003.379-.01.757-.022 1.135-.034.12-.004.239-.008.359-.012.318-.011.635-.022.952-.034.102-.004.205-.007.307-.011.397-.015.794-.032 1.191-.049.11-.005.219-.01.329-.015.309-.014.619-.028.928-.043.122-.006.245-.012.367-.018.4-.02.8-.041 1.199-.062.049-.003.098-.006.148-.008.353-.02.705-.04 1.057-.061.137-.008.275-.016.412-.025.301-.018.602-.037.902-.057.109-.007.219-.014.328-.021.385-.026.769-.052 1.154-.079.133-.009.266-.019.399-.029.085-.006.17-.013.256-.019v-270.21c-40.573 18.182-69.636 58.278-69.636 105.617z" fill="#f9f3f1"/></g><g><g><path d="m334.594 427.536c-4.582-6.21-9.826-9.788-13.465-9.653-3.64-.135-8.883 3.443-13.465 9.653-6.236 8.452-8.881 18.571-5.908 22.6s10.438.444 16.675-8.008c.994-1.347 1.896-2.737 2.699-4.138.803 1.401 1.705 2.79 2.699 4.138 6.236 8.452 13.702 12.037 16.675 8.008 2.971-4.029.326-14.147-5.91-22.6z" fill="#cdbfba"/></g><g><ellipse cx="264.759" cy="391.494" fill="#f9f3f1" rx="25.901" ry="33.779"/></g><g><ellipse cx="264.759" cy="384.1" fill="#cdbfba" rx="25.901" ry="33.779"/></g><g><ellipse cx="375.158" cy="391.494" fill="#f9f3f1" rx="25.901" ry="33.779"/></g><g><ellipse cx="375.158" cy="384.1" fill="#cdbfba" rx="25.901" ry="33.779"/></g><g><g><path d="m231.73 343.293h69.469v26.701h-69.469z" fill="#f9f3f1"/></g></g><g><g><path d="m340.424 343.293h69.469v26.701h-69.469z" fill="#f9f3f1"/></g></g></g></g><g><path d="m295.03 91.796-7.284 56.682v105.736h54.851c4.488 0 8.125-3.638 8.125-8.126v-154.292z" fill="#bd80e1"/></g><g><path d="m350.722 88.621c0-4.84-3.923-8.763-8.763-8.763h-.889-21.46-10.403-12.698c-2.496 0-4.747 1.043-6.344 2.717-.048.051-.096.102-.143.154-.283.311-.544.643-.78.993-.591.874-1.027 1.86-1.272 2.92-.049.212-.09.427-.124.644-.066.435-.101.881-.101 1.335v59.857c0 5.926 4.804 10.73 10.73 10.73 5.926 0 10.73-4.804 10.73-10.73v-50.061c0-2.873 2.329-5.202 5.202-5.202 2.873 0 5.202 2.329 5.202 5.202v29.764c0 5.908 4.622 10.976 10.53 11.084 6.018.11 10.931-4.735 10.931-10.729v-25.67c0-5.331 4.321-9.652 9.652-9.652z" fill="#af66da"/></g><g><path d="m338.93 40.681c0 10.878-8.818 19.696-19.696 19.696s-19.696-8.818-19.696-19.696 19.696-40.681 19.696-40.681 19.696 29.803 19.696 40.681z" fill="#fedf30"/></g><g><path d="m329.082 50.529c0 5.439-4.409 9.848-9.848 9.848s-9.848-4.409-9.848-9.848 9.848-20.34 9.848-20.34 9.848 14.901 9.848 20.34z" fill="#fef48b"/></g><g><path d="m132.774 333.616c-7.085 0-10.4 4.365-10.4 11.449l-10.611 80.88v39.026c27.221 19.174 58.453 33.037 92.189 40.08v-166.728z" fill="#fe9722"/></g><g><path d="m203.951 338.323c0-7.085-5.743-12.828-12.828-12.828h-1.301-31.415-15.229-18.588c-3.653 0-6.95 1.527-9.286 3.977-.071.074-.141.149-.21.225-.414.456-.796.941-1.142 1.453-.865 1.279-1.504 2.723-1.862 4.275-.072.31-.132.625-.181.943-.097.637-.148 1.29-.148 1.954v87.622c0 8.675 7.033 15.708 15.708 15.708 8.675 0 15.708-7.033 15.708-15.708v-73.282c0-4.205 3.409-7.615 7.615-7.615 4.205 0 7.615 3.409 7.615 7.615v43.571c0 8.649 6.766 16.068 15.414 16.226 8.81.161 16.002-6.932 16.002-15.705v-37.577c0-7.803 6.326-14.129 14.129-14.129v-6.725z" fill="#ff6400"/></g><g><path d="m186.689 285.319c0 15.923-12.908 28.832-28.832 28.832s-28.832-12.908-28.832-28.832c0-15.923 28.832-59.551 28.832-59.551s28.832 43.628 28.832 59.551z" fill="#fedf30"/></g><g><path d="m172.273 299.735c0 7.962-6.454 14.416-14.416 14.416s-14.416-6.454-14.416-14.416 14.416-29.775 14.416-29.775 14.416 21.814 14.416 29.775z" fill="#fef48b"/></g><g><path d="m299.038 263.012h-21.121c-4.859 0-8.799-3.939-8.799-8.799s3.939-8.799 8.799-8.799h21.121c2.374 0 4.306-1.932 4.306-4.306v-19.184c0-4.859 3.939-8.799 8.799-8.799s8.799 3.939 8.799 8.799v19.184c-.001 12.078-9.827 21.904-21.904 21.904z" fill="#af66da"/></g></g></svg>