<svg id="Layer_1" enable-background="new 0 0 510 510" height="512" viewBox="0 0 510 510" width="512" xmlns="http://www.w3.org/2000/svg"><g><g><path d="m255 0c-98.131 0-158.58 55.352-158.746 55.445 0 0-2.513 3.137-2.983 5.222-3.818 16.948-7.385 39.663-7.385 56.238 0 140.833 118.763 254.972 259.596 254.972 54.231 0 114.568-25.992 154.949-57.243.903-.699 3.769-5.396 3.769-5.396.178-1.087 5.8-23.477 5.8-54.239 0-140.832-114.167-254.999-255-254.999z" fill="#af66da"/><path d="m345.459 364.679c-140.833 0-255-114.167-255-255 0-18.615 2.007-36.753 5.795-54.234-58.645 46.72-96.254 118.747-96.254 199.555 0 68.801 27.247 131.237 71.54 177.108l158.232 57.561 198.505-47.596c37.487-34.711 64.616-80.644 75.923-132.835-43.56 34.696-98.724 55.441-158.741 55.441z" fill="#814ba1"/></g><g><path d="m478.894 132.848-302.113 106.63-.933 23.921h333.219v-23.921z" fill="#cdbfba"/><g><path d="m283.544 25h119.693v435.868h-119.693z" fill="#f9f3f1"/></g><g><path d="m283.666 21.761h119.449v304.882h-119.449z" fill="#f9f3f1" transform="matrix(0 1 -1 0 517.593 -169.188)"/></g><g><path d="m278.115 462.866h106.666c13.191 0 23.885-10.694 23.885-23.885v-199.503h101.334v-130.551h-101.334v-108.927h-130.551v108.927h-101.334v130.551h101.334zm-76.334-248.388v-80.551h101.334v-108.927h80.551v108.927h101.334v80.551h-101.334v250.521h-80.551v-250.521z" fill="#fff"/></g><g fill="#00f2a6"><path d="m241.705 131.433c0-2.933 2.229-5.513 5.631-5.513h24.283c16.071 0 28.857 5.982 28.857 25.104 0 13.139-5.982 20.646-14.194 23.814l14.312 25.925c.47.704.587 1.525.587 2.112 0 4.575-6.1 9.502-11.496 9.502-2.347 0-4.575-.938-5.865-3.402l-16.071-31.204h-7.743v28.271c0 3.754-4.575 5.631-9.149 5.631-4.575 0-9.15-1.877-9.15-5.631v-74.609zm18.3 10.442v21.819h11.614c6.569 0 10.558-2.698 10.558-10.91s-3.988-10.909-10.558-10.909z"/><path d="m324.528 203.344c0 4.81-4.105 9.033-8.915 9.033-5.162 0-9.033-4.224-9.033-9.033 0-4.927 3.871-9.032 9.033-9.032 4.809 0 8.915 4.106 8.915 9.032z"/><path d="m333.56 131.433c0-3.871 4.575-5.513 9.15-5.513 4.574 0 9.149 1.642 9.149 5.513v74.609c0 3.754-4.575 5.631-9.149 5.631-4.575 0-9.15-1.877-9.15-5.631z"/><path d="m378.842 203.344c0 4.81-4.105 9.033-8.915 9.033-5.162 0-9.033-4.224-9.033-9.033 0-4.927 3.871-9.032 9.033-9.032 4.81 0 8.915 4.106 8.915 9.032z"/><path d="m387.875 131.433c0-2.933 2.698-5.513 6.804-5.513h24.283c15.484 0 27.685 7.272 27.685 26.98v.587c0 19.708-12.669 27.216-28.857 27.216h-11.614v25.339c0 3.754-4.575 5.631-9.149 5.631-4.575 0-9.15-1.877-9.15-5.631v-74.609zm18.299 10.442v24.752h11.614c6.569 0 10.558-3.754 10.558-11.73v-1.291c0-7.977-3.988-11.73-10.558-11.73h-11.614z"/></g></g><g><g fill="#00f2a6"><path d="m114.557 271.257v82.443c6.736-6.449 21.138-3.617 21.138 8.484v20.014c3.427.926 7.027 1.435 10.747 1.435h45.052c22.73 0 41.156-18.426 41.156-41.156v-71.22z"/><path d="m135.694 372.256h81.037v95.564h-81.037z"/><path d="m121.223 150.371c-2.384 0-4.636.539-6.667 1.478v176.765h22.584v-162.325c.001-8.791-7.126-15.918-15.917-15.918z"/><path d="m200.813 308.323h-31.836v-62.261c0-8.791 7.127-15.918 15.918-15.918 8.791 0 15.918 7.127 15.918 15.918z"/><path d="m232.649 324.024h-31.836v-62.261c0-8.791 7.127-15.918 15.918-15.918 8.791 0 15.918 7.127 15.918 15.918z"/><path d="m168.977 291.292h-31.836v-62.261c0-8.791 7.127-15.918 15.918-15.918 8.791 0 15.918 7.127 15.918 15.918z"/></g><path d="m147.641 260.706v-46.626c-6.119 2.219-10.499 8.066-10.499 14.952v42.174c5.798-.001 10.499-4.702 10.499-10.5z" fill="#14d1b2"/><path d="m179.728 260.454v-29.435c-6.251 2.148-10.751 8.064-10.751 15.044v25.143c5.938-.001 10.751-4.814 10.751-10.752z" fill="#14d1b2"/><path d="m211.815 246.628c-6.384 2.072-11.002 8.061-11.002 15.136v9.442c6.076 0 11.002-4.926 11.002-11.002z" fill="#14d1b2"/><path d="m58.962 327.942c1.353 9.579 7.206 18.11 15.656 22.817l48.076 26.792v90.269h19.445c0-27.995 0-102.775 0-102.775 0-9.505-5.147-18.266-13.45-22.893-7.644-4.26-12.382-12.324-12.382-21.075v-169.923c-6.384 2.072-11.002 8.061-11.002 15.135v162.831l-13.025-7.258-4.544-32.198c-1.693-11.995-12.779-20.35-24.772-18.678-6.494.905-11.056 6.974-10.14 13.466z" fill="#14d1b2"/></g><g><path d="m255 510c66.549 0 127.601-25.635 173.276-67.927-7.649-6.651-17.639-10.678-28.573-10.678-18.956 0-35.079 12.102-41.083 28.998-5.813-6.448-14.229-10.502-23.594-10.502-5.568 0-10.799 1.437-15.349 3.954-2.521-15.02-15.577-26.468-31.313-26.468-17.136 0-31.095 13.573-31.73 30.555-5.612-4.999-13.006-8.042-21.114-8.042-11.305 0-21.224 5.912-26.853 14.808h-20c-5.628-8.896-15.547-14.808-26.853-14.808-4.618 0-9.001.993-12.96 2.766-3.131-21.003-21.239-37.115-43.114-37.115-13.866 0-26.217 6.476-34.2 16.566 46.372 48.026 111.428 77.893 183.46 77.893z" fill="#00366d"/><path d="m399.702 431.395c-18.956 0-35.079 12.102-41.083 28.998-5.813-6.448-14.229-10.502-23.594-10.502-5.568 0-10.799 1.437-15.349 3.954-2.521-15.02-15.577-26.468-31.313-26.468-17.136 0-31.095 13.573-31.73 30.555-5.612-4.999-13.006-8.042-21.114-8.042-11.305 0-21.224 5.912-26.853 14.808h-20c-5.628-8.896-15.547-14.808-26.853-14.808-4.618 0-9.001.993-12.96 2.766-3.131-21.003-21.239-37.115-43.114-37.115-13.866 0-26.217 6.476-34.2 16.566 2.657 2.751 5.375 5.443 8.152 8.073 7.267-5.426 16.281-8.639 26.048-8.639 21.875 0 39.983 16.112 43.114 37.115 3.959-1.772 8.342-2.766 12.96-2.766 11.306 0 21.224 5.912 26.853 14.808h20c5.628-8.896 15.547-14.808 26.853-14.808 8.107 0 15.501 3.042 21.114 8.042.635-16.981 14.594-30.555 31.73-30.555 15.736 0 28.792 11.448 31.313 26.468 4.55-2.517 9.781-3.954 15.349-3.954 9.365 0 17.781 4.055 23.594 10.502 6.004-16.896 22.127-28.998 41.083-28.998 6.439 0 12.55 1.396 18.049 3.903 3.592-2.979 7.101-6.056 10.525-9.226-7.649-6.65-17.639-10.677-28.574-10.677z" fill="#004281"/></g></g></svg>