<svg id="Layer_1" enable-background="new 0 0 512 512" height="512" viewBox="0 0 512 512" width="512" xmlns="http://www.w3.org/2000/svg"><g><path d="m256 491.391c169.56 0 244.392-241.521 244.392-241.521-8.796-127.314-114.844-227.866-244.392-227.866s-235.596 100.552-244.392 227.866c0 0 74.833 241.521 244.392 241.521z" fill="#422953"/><path d="m12.882 297.428 18.901 68.43c2.537 5.745 5.283 11.377 8.239 16.881l59.663 72.915c6.87 5.699 14.062 11.02 21.534 15.952l81.571 34.582c1.374.304 2.746.61 4.128.891h98.164c1.382-.281 2.754-.587 4.127-.891l79.033-32.911c8.389-5.389 16.425-11.279 24.072-17.623l59.664-72.915c2.955-5.503 5.701-11.135 8.238-16.88l18.901-68.43c1.235-9.97 1.879-20.122 1.879-30.427 0-5.761-.214-11.471-.605-17.132-2.47-3.351-5.322-6.378-8.492-9.014-5.519-4.587-8.147-11.808-6.868-18.87 2.084-11.505.263-23.778-6.042-34.699-6.304-10.92-16.023-18.633-27.029-22.581-6.755-2.423-11.694-8.31-12.908-15.383-1.977-11.524-7.885-22.435-17.544-30.54-9.68-8.123-21.481-12.046-33.199-11.974-7.148.044-13.767-3.831-17.313-10.038-5.799-10.154-15.082-18.387-26.933-22.7-11.849-4.313-24.251-3.975-35.22.076-6.732 2.486-14.3 1.152-19.776-3.487-8.921-7.557-20.46-12.117-33.069-12.117s-24.148 4.56-33.07 12.118c-5.476 4.638-13.044 5.973-19.776 3.487-10.969-4.051-23.371-4.389-35.22-.076-11.85 4.313-21.134 12.546-26.933 22.7-3.545 6.208-10.164 10.082-17.313 10.038-11.717-.072-23.518 3.851-33.198 11.974-9.659 8.105-15.568 19.016-17.545 30.54-1.213 7.073-6.152 12.959-12.907 15.383-11.006 3.948-20.725 11.661-27.029 22.581-6.305 10.92-8.125 23.194-6.041 34.699 1.279 7.061-1.349 14.282-6.868 18.869-3.17 2.635-6.022 5.663-8.493 9.014-.391 5.661-.606 11.371-.606 17.132.003 10.304.648 20.457 1.883 30.426zm84.403 8.344c2.893-5.022 4.976-10.623 6.04-16.661 1.064-6.037 1.023-12.013.022-17.721-1.273-7.261 1.376-14.539 7.018-19.283 4.435-3.73 8.309-8.281 11.374-13.59s5.07-10.939 6.082-16.645c1.287-7.258 6.265-13.191 13.19-15.719 5.443-1.988 10.639-4.939 15.336-8.88s8.506-8.545 11.409-13.561c3.692-6.381 10.399-10.253 17.771-10.26 5.795-.006 11.688-1.003 17.448-3.1 5.761-2.097 10.915-5.121 15.359-8.841 5.652-4.733 13.278-6.078 20.209-3.563 5.448 1.977 11.325 3.055 17.456 3.055s12.008-1.078 17.456-3.055c6.93-2.514 14.557-1.17 20.208 3.563 4.443 3.721 9.598 6.744 15.358 8.841 5.761 2.097 11.653 3.094 17.449 3.1 7.372.008 14.079 3.88 17.771 10.261 2.902 5.016 6.711 9.62 11.408 13.561 4.697 3.94 9.893 6.893 15.337 8.88 6.924 2.529 11.902 8.461 13.19 15.719 1.012 5.706 3.017 11.336 6.082 16.645 3.065 5.31 6.939 9.861 11.374 13.59 5.643 4.744 8.292 12.022 7.019 19.283-1.001 5.708-1.043 11.684.022 17.721 1.065 6.038 3.147 11.639 6.04 16.661 3.68 6.388 3.68 14.132 0 20.521-2.892 5.022-4.975 10.623-6.04 16.66-1.065 6.038-1.023 12.014-.022 17.722 1.272 7.261-1.376 14.539-7.019 19.283-4.435 3.729-8.309 8.281-11.374 13.59s-5.07 10.939-6.082 16.645c-1.288 7.258-6.266 13.191-13.19 15.72-5.444 1.987-10.64 4.94-15.337 8.88-4.697 3.941-8.505 8.545-11.408 13.56-3.692 6.381-10.399 10.254-17.771 10.261-5.795.006-11.688 1.002-17.449 3.1-5.76 2.097-10.915 5.121-15.358 8.841-5.652 4.733-13.278 6.078-20.208 3.563-5.448-1.977-11.325-3.055-17.456-3.055s-12.008 1.078-17.456 3.055c-6.931 2.514-14.557 1.17-20.209-3.563-4.443-3.72-9.598-6.744-15.359-8.841-5.76-2.097-11.652-3.094-17.448-3.1-7.372-.007-14.079-3.879-17.771-10.26-2.902-5.016-6.712-9.62-11.409-13.561s-9.893-6.893-15.336-8.88c-6.925-2.528-11.903-8.461-13.19-15.719-1.012-5.706-3.017-11.336-6.082-16.645-3.065-5.31-6.939-9.861-11.374-13.59-5.642-4.745-8.291-12.022-7.018-19.283 1.001-5.708 1.042-11.684-.022-17.722-1.064-6.037-3.148-11.638-6.04-16.66-3.679-6.391-3.679-14.135 0-20.523z" fill="#81c66d"/><path d="m377.06 441.287c-11.333-4.501-6.072-15.375-6.072-15.375-5.444 1.987-10.64 4.94-15.337 8.88-4.697 3.941-8.505 8.545-11.408 13.56-3.692 6.381-10.399 10.254-17.771 10.261-5.795.006-11.688 1.002-17.449 3.1-5.76 2.097-10.915 5.121-15.358 8.841-5.652 4.733-13.278 6.078-20.208 3.563-5.448-1.977-11.325-3.055-17.456-3.055s-12.008 1.078-17.456 3.055c-6.931 2.514-14.557 1.17-20.209-3.563-4.443-3.72-9.598-6.744-15.359-8.841-5.76-2.097-11.652-3.094-17.448-3.1-7.372-.007-14.079-3.879-17.771-10.26-2.902-5.016-6.712-9.62-11.409-13.561s-9.893-6.893-15.336-8.88c-6.925-2.528-11.903-8.461-13.19-15.719-1.012-5.706-3.017-11.336-6.082-16.645-3.065-5.31-6.939-9.861-11.374-13.59-5.642-4.745-8.291-12.022-7.018-19.283 1.001-5.708 1.042-11.684-.022-17.722-1.064-6.037-3.148-11.638-6.04-16.66-3.679-6.388-3.679-14.132 0-20.521 2.893-5.022 4.976-10.623 6.04-16.661 1.064-6.037 1.023-12.013.022-17.721-1.273-7.261 1.376-14.539 7.018-19.283 4.435-3.73 8.309-8.281 11.374-13.59s5.07-10.939 6.082-16.645c1.287-7.258 6.265-13.191 13.19-15.719 5.443-1.988 10.639-4.939 15.336-8.88 4.262-3.576 7.785-7.701 10.57-12.182l-65.294-52.724c-10.911 2.121-14.284-6.644-15.139-9.827-7.296 7.577-11.854 16.955-13.54 26.785-1.213 7.073-6.152 12.959-12.907 15.383-11.006 3.948-20.725 11.661-27.029 22.581-6.305 10.92-8.125 23.194-6.041 34.699 1.279 7.061-1.349 14.282-6.868 18.869-3.17 2.635-6.022 5.663-8.493 9.014-.391 5.661-.606 11.371-.606 17.132 0 10.304.645 20.457 1.879 30.426l18.901 68.43c2.537 5.745 5.283 11.377 8.239 16.881l59.663 72.915c6.87 5.699 14.062 11.02 21.534 15.952l81.571 34.582c1.374.304 2.746.61 4.128.891h98.164c1.382-.281 2.754-.587 4.127-.891l75.381-31.39z" fill="#5aab5f"/><g><path d="m357.039 266.581h-67.478v-58.456c0-6.628-5.391-12.019-12.018-12.019h-43.085c-6.627 0-12.019 5.391-12.019 12.019v58.456h-67.478c-6.627 0-12.018 5.391-12.018 12.018v43.085c0 6.627 5.391 12.018 12.018 12.018h67.478v157.688h67.122v-157.687h67.478c6.627 0 12.018-5.391 12.018-12.018v-43.085c0-6.628-5.391-12.019-12.018-12.019z" fill="#ffdd40"/></g><path d="m154.961 266.581c-6.627 0-12.019 5.391-12.019 12.018v43.085c0 6.627 5.392 12.018 12.019 12.018h67.478v157.689h67.122v-157.688c-8.63 0-12.147-4.599-13.571-8.647-1.247-3.544-4.479-5.991-8.202-6.49-22.772-3.049-28.735-20.445-30.274-30.385-.556-3.587-2.997-6.682-6.433-7.854-9.307-3.172-8.642-13.747-8.642-13.747h-67.478z" fill="#ffc839"/><g><path d="m283.457 284.704c-6.627 0-12.019-5.391-12.019-12.018v-58.457h-30.876v58.457c0 6.627-5.391 12.018-12.018 12.018h-67.478v30.876h67.478c6.626 0 12.018 5.391 12.018 12.018v163.793h30.876v-163.793c0-6.627 5.392-12.018 12.019-12.018h67.478v-30.876z" fill="#ffc839"/></g><path d="m240.562 327.598v163.793h30.876v-163.793c0-2.379.704-4.593 1.901-6.461-1.52-1.37-3.45-2.289-5.551-2.571-22.772-3.049-28.735-20.445-30.274-30.385-.313-2.022-1.242-3.873-2.595-5.326-1.851 1.164-4.032 1.849-6.375 1.849h-67.479v30.876h67.479c6.626 0 12.018 5.391 12.018 12.018z" fill="#ffb332"/><path d="m256 463.543c-14.305 0-23.595 15.07-17.17 27.851l7.621 15.157c2.623-2.094 5.939-3.356 9.549-3.356s6.926 1.261 9.549 3.356l7.621-15.157c6.425-12.781-2.865-27.851-17.17-27.851z" fill="#fcf4d9"/><path d="m208.379 491.037c-3.019 5.229-3.258 11.025-1.46 16.042 11.528 2.344 23.352 3.871 35.406 4.535 1.696-3.329 4.57-5.963 8.073-7.344l-9.314-14.176c-7.856-11.956-25.553-11.445-32.705.943z" fill="#fceca9"/><path d="m270.918 490.093-9.314 14.176c3.503 1.382 6.377 4.015 8.073 7.344 12.054-.663 23.878-2.191 35.406-4.535 1.797-5.017 1.559-10.812-1.461-16.042-7.153-12.387-24.85-12.898-32.704-.943z" fill="#fcf4d9"/><path d="m241.118 511.537c4.924.295 9.883.463 14.882.463s9.958-.168 14.883-.463c-2.631-5.588-8.297-9.465-14.883-9.465-6.585 0-12.251 3.877-14.882 9.465z" fill="#ffc839"/><path d="m329.755 443.78c-12.389 7.153-12.899 24.849-.944 32.704l14.178 9.316c1.224-3.125 3.466-5.876 6.592-7.681s6.629-2.371 9.947-1.868l-.978-16.937c-.825-14.28-16.406-22.686-28.795-15.534z" fill="#fcf4d9"/><path d="m330.111 474.232c-12.78-6.426-27.85 2.865-27.85 17.17 0 6.134 2.776 11.34 6.949 14.786 11.486-2.544 22.666-5.893 33.483-9.987-1.628-4.942-.603-10.352 2.573-14.349z" fill="#fceca9"/><path d="m384.744 443.78c-12.389-7.153-27.969 1.254-28.794 15.534l-.978 16.934c6.018-.897 12.252 1.847 15.506 7.397 6.975-3.693 13.749-7.713 20.304-12.04 6.317-8.807 4.2-21.914-6.038-27.825z" fill="#fcf4d9"/><path d="m349.02 477.148c-6.893 3.979-9.817 12.19-7.389 19.456 10.292-3.84 20.256-8.352 29.839-13.483-4.559-7.831-14.595-10.508-22.45-5.973z" fill="#ffc839"/><path d="m127.256 93.041c-12.389 7.152-12.899 24.849-.944 32.704l14.178 9.316c1.224-3.125 3.465-5.876 6.592-7.68 3.126-1.805 6.628-2.37 9.947-1.868l-.978-16.937c-.826-14.281-16.406-22.687-28.795-15.535z" fill="#fcf4d9"/><path d="m183.189 155.58-14.178-9.316c-1.224 3.125-3.465 5.876-6.591 7.68-3.126 1.805-6.629 2.37-9.947 1.868l.978 16.937c.825 14.281 16.406 22.687 28.795 15.534 12.387-7.151 12.898-24.848.943-32.703z" fill="#fceca9"/><path d="m141.468 148.331c-3.239-5.61-2.507-12.43 1.299-17.218l-15.155-7.62c-12.78-6.426-27.85 2.865-27.85 17.17s15.07 23.595 27.851 17.17l15.158-7.622c-.47-.591-.915-1.208-1.303-1.88z" fill="#fceca9"/><path d="m181.888 123.493-15.158 7.622c.469.59.914 1.207 1.303 1.879 3.239 5.61 2.508 12.43-1.299 17.218l15.155 7.62c12.78 6.426 27.85-2.865 27.85-17.169 0-14.305-15.07-23.596-27.851-17.17z" fill="#fcf4d9"/><path d="m141.468 148.331c-.388-.672-.7-1.366-.976-2.068l-14.18 9.316c-11.955 7.855-11.444 25.552.944 32.704s27.97-1.254 28.795-15.535l.979-16.934c-6.051.903-12.323-1.873-15.562-7.483z" fill="#f4d99d"/><path d="m182.245 93.041c-12.389-7.153-27.969 1.254-28.795 15.534l-.979 16.934c6.05-.902 12.322 1.874 15.561 7.485.388.672.7 1.366.976 2.068l14.18-9.316c11.956-7.856 11.445-25.552-.943-32.705z" fill="#fcf4d9"/><path d="m383.748 389.787c-7.152 12.388 1.254 27.969 15.535 28.795l16.937.978c-.502-3.319.063-6.821 1.868-9.947s4.555-5.367 7.68-6.591l-9.316-14.178c-7.855-11.956-25.551-11.445-32.704.943z" fill="#fceca9"/><path d="m423.701 430.564c-5.61-3.239-8.386-9.511-7.485-15.561l-16.934.978c-14.28.825-22.687 16.406-15.534 28.795 7.153 12.388 24.849 12.899 32.704.944l9.316-14.18c-.701-.276-1.395-.588-2.067-.976z" fill="#f4d99d"/><path d="m446.287 388.843-9.316 14.18c.702.276 1.395.588 2.068.976 5.61 3.239 8.387 9.511 7.484 15.561l1.231-.071c9.125-11.459 17.245-23.752 24.225-36.75-8.364-4.817-19.798-2.866-25.692 6.104z" fill="#fcf4d9"/><path d="m437.873 431.146c-4.386 2.054-9.668 2.018-14.171-.582-.672-.388-1.289-.833-1.879-1.302l-7.623 15.158c-1.857 3.694-2.395 7.577-1.885 11.234 9.098-7.547 17.64-15.74 25.558-24.508z" fill="#fceca9"/><path d="m431.37 362.293c-14.305 0-23.595 15.07-17.17 27.85l7.62 15.155c4.789-3.806 11.608-4.538 17.218-1.299.672.388 1.289.833 1.879 1.303l7.622-15.158c6.426-12.781-2.864-27.851-17.169-27.851z" fill="#fcf4d9"/><path d="m439.599 403.028c-7.872-4.545-17.938-1.848-22.484 6.024-4.545 7.872-1.848 17.938 6.024 22.484 4.111 2.374 8.815 2.755 13.024 1.473 3.987-4.325 7.82-8.793 11.491-13.397.923-6.459-2.059-13.123-8.055-16.584z" fill="#ffc839"/><path d="m33.009 187.288c-7.153 12.389 1.254 27.969 15.535 28.795l16.937.978c-.502-3.318.063-6.821 1.868-9.947s4.555-5.367 7.68-6.591l-9.316-14.178c-7.855-11.956-25.552-11.445-32.704.943z" fill="#fceca9"/><path d="m112.718 213.482-16.937-.978c.502 3.319-.063 6.821-1.868 9.947s-4.555 5.367-7.68 6.592l9.316 14.178c7.855 11.955 25.552 11.444 32.704-.944 7.152-12.389-1.254-27.97-15.535-28.795z" fill="#fcf4d9"/><path d="m72.962 228.065c-5.61-3.239-8.386-9.511-7.485-15.561l-16.934.979c-14.28.825-22.687 16.406-15.534 28.795 7.153 12.388 24.849 12.899 32.704.944l9.316-14.18c-.701-.277-1.395-.589-2.067-.977z" fill="#f4d99d"/><path d="m95.548 186.344-9.316 14.18c.701.276 1.395.588 2.068.976 5.61 3.239 8.386 9.511 7.485 15.561l16.934-.979c14.281-.825 22.687-16.406 15.534-28.794-7.154-12.388-24.85-12.899-32.705-.944z" fill="#fcf4d9"/><path d="m72.962 228.065c-.672-.388-1.289-.833-1.879-1.303l-7.622 15.158c-6.426 12.78 2.865 27.851 17.17 27.851s23.595-15.071 17.17-27.851l-7.62-15.155c-4.789 3.807-11.609 4.539-17.219 1.3z" fill="#fceca9"/><path d="m80.631 159.794c-14.305 0-23.595 15.07-17.17 27.85l7.62 15.155c4.789-3.806 11.608-4.538 17.218-1.299.672.388 1.289.833 1.879 1.303l7.622-15.158c6.426-12.781-2.864-27.851-17.169-27.851z" fill="#fcf4d9"/><path d="m403.511 316.032c0 14.305 15.07 23.595 27.851 17.17l15.157-7.621c-2.094-2.623-3.356-5.939-3.356-9.549s1.261-6.926 3.356-9.549l-15.157-7.621c-12.781-6.425-27.851 2.865-27.851 17.17z" fill="#fceca9"/><path d="m485.638 298.862-15.157 7.621c2.094 2.623 3.355 5.939 3.355 9.549s-1.261 6.926-3.355 9.549l15.157 7.621c1.894.952 3.838 1.551 5.776 1.848 3.514-12.178 6.11-24.744 7.705-37.622-4.282-1.132-9.02-.809-13.481 1.434z" fill="#fcf4d9"/><path d="m458.499 331.369c-6.478 0-12.018-4.044-14.262-9.734l-14.176 9.315c-11.955 7.855-11.444 25.551.944 32.704 12.389 7.152 27.969-1.254 28.795-15.535l.978-16.938c-.745.111-1.502.188-2.279.188z" fill="#f4d99d"/><path d="m457.199 283.945-.978 16.938c.746-.112 1.503-.189 2.279-.189 6.478 0 12.018 4.043 14.262 9.734l14.176-9.315c11.955-7.855 11.444-25.551-.944-32.704-12.389-7.151-27.97 1.255-28.795 15.536z" fill="#fcf4d9"/><path d="m486.938 330.95-14.176-9.315c-2.244 5.691-7.784 9.734-14.262 9.734-.776 0-1.533-.077-2.279-.188l.978 16.938c.7 12.121 12.032 20.005 23.018 17.74 4.394-9.95 8.15-20.244 11.205-30.837-1.226-1.528-2.715-2.91-4.484-4.072z" fill="#fceca9"/><path d="m431.005 268.411c-12.389 7.153-12.899 24.849-.944 32.704l14.176 9.315c2.244-5.69 7.784-9.734 14.262-9.734.776 0 1.533.077 2.279.189l-.978-16.938c-.826-14.283-16.406-22.689-28.795-15.536z" fill="#fcf4d9"/><path d="m26.363 298.862c-4.461-2.243-9.2-2.566-13.481-1.434 1.595 12.878 4.191 25.444 7.705 37.622 1.938-.297 3.882-.896 5.776-1.848l15.157-7.621c-2.094-2.623-3.355-5.939-3.355-9.549s1.261-6.926 3.355-9.549z" fill="#f4d99d"/><path d="m80.639 298.862-15.157 7.621c2.094 2.623 3.356 5.939 3.356 9.549s-1.261 6.926-3.356 9.549l15.157 7.621c12.78 6.426 27.851-2.865 27.851-17.17-.001-14.305-15.071-23.595-27.851-17.17z" fill="#fcf4d9"/><path d="m39.238 321.635-14.176 9.315c-1.769 1.163-3.259 2.545-4.484 4.072 3.055 10.593 6.811 20.886 11.205 30.837 10.987 2.265 22.317-5.618 23.018-17.74l.978-16.938c-.746.112-1.503.188-2.279.188-6.477 0-12.017-4.043-14.262-9.734z" fill="#fceca9"/><path d="m52.2 283.945-.978 16.938c.746-.112 1.502-.189 2.279-.189 6.478 0 12.018 4.043 14.262 9.734l14.176-9.315c11.955-7.855 11.444-25.551-.944-32.704-12.388-7.151-27.969 1.255-28.795 15.536z" fill="#fcf4d9"/><path d="m53.501 331.369c-.776 0-1.533-.077-2.279-.188l.978 16.938c.825 14.281 16.406 22.687 28.795 15.535 12.388-7.153 12.899-24.849.944-32.704l-14.176-9.315c-2.244 5.691-7.784 9.734-14.262 9.734z" fill="#fcf4d9"/><path d="m26.007 268.411c-12.389 7.153-12.899 24.849-.944 32.704l14.176 9.315c2.244-5.69 7.784-9.734 14.262-9.734.776 0 1.533.077 2.279.189l-.978-16.938c-.826-14.283-16.407-22.689-28.795-15.536z" fill="#fceca9"/><path d="m383.748 242.277c7.152 12.388 24.849 12.899 32.704.944l9.316-14.178c-3.125-1.224-5.876-3.466-7.68-6.592-1.805-3.126-2.371-6.628-1.868-9.947l-16.937.979c-14.281.824-22.687 16.405-15.535 28.794z" fill="#f4d99d"/><path d="m446.287 186.344-9.316 14.178c3.125 1.224 5.875 3.466 7.68 6.592s2.371 6.629 1.868 9.947l16.937-.978c14.281-.825 22.687-16.406 15.534-28.795-7.151-12.388-24.848-12.899-32.703-.944z" fill="#fcf4d9"/><path d="m439.038 228.065c-5.61 3.239-12.43 2.507-17.218-1.299l-7.62 15.155c-6.426 12.78 2.865 27.85 17.17 27.85s23.595-15.07 17.17-27.851l-7.622-15.158c-.591.47-1.208.914-1.88 1.303z" fill="#fceca9"/><path d="m414.2 187.645 7.622 15.158c.59-.469 1.207-.915 1.879-1.303 5.61-3.239 12.43-2.508 17.218 1.299l7.62-15.155c6.426-12.78-2.865-27.85-17.169-27.85-14.305 0-23.596 15.07-17.17 27.851z" fill="#fcf4d9"/><path d="m439.038 228.065c-.672.388-1.366.7-2.068.976l9.316 14.18c7.855 11.955 25.552 11.444 32.704-.944 7.152-12.389-1.254-27.969-15.534-28.795l-16.934-.979c.903 6.051-1.874 12.323-7.484 15.562z" fill="#fcf4d9"/><path d="m383.748 187.288c-7.153 12.389 1.254 27.969 15.534 28.795l16.934.978c-.902-6.05 1.874-12.322 7.485-15.561.672-.388 1.366-.7 2.068-.976l-9.316-14.18c-7.856-11.955-25.552-11.444-32.705.944z" fill="#fceca9"/><path d="m95.548 388.843-9.316 14.178c3.125 1.224 5.876 3.466 7.68 6.592 1.805 3.126 2.371 6.629 1.868 9.947l16.937-.978c14.281-.825 22.687-16.406 15.534-28.795-7.151-12.388-24.848-12.899-32.703-.944z" fill="#fcf4d9"/><path d="m90.178 429.261c-.59.47-1.207.914-1.879 1.302-4.504 2.6-9.785 2.637-14.172.582 7.918 8.768 16.459 16.961 25.557 24.508.51-3.657-.027-7.54-1.884-11.234z" fill="#fceca9"/><path d="m63.461 390.144 7.622 15.158c.59-.47 1.207-.915 1.879-1.303 5.61-3.239 12.43-2.508 17.218 1.299l7.62-15.155c6.426-12.78-2.865-27.85-17.169-27.85-14.305 0-23.596 15.071-17.17 27.851z" fill="#fcf4d9"/><path d="m88.299 430.564c-.672.388-1.366.7-2.068.976l9.316 14.18c7.855 11.955 25.552 11.444 32.704-.944s-1.254-27.969-15.534-28.794l-16.934-.978c.902 6.049-1.874 12.321-7.484 15.56z" fill="#fcf4d9"/><path d="m40.021 382.739c6.98 12.998 15.1 25.291 24.225 36.75l1.231.071c-.902-6.05 1.874-12.322 7.485-15.561.672-.388 1.366-.7 2.068-.976l-9.316-14.18c-5.895-8.97-17.329-10.921-25.693-6.104z" fill="#fceca9"/><path d="m72.401 403.028c-5.996 3.462-8.978 10.125-8.056 16.584 3.671 4.604 7.504 9.073 11.491 13.398 4.209 1.282 8.913.9 13.024-1.473 7.872-4.545 10.57-14.611 6.025-22.484-4.546-7.873-14.612-10.57-22.484-6.025z" fill="#ffc839"/><path d="m329.755 188.284c12.388 7.152 27.969-1.253 28.795-15.534l.978-16.937c-3.318.502-6.821-.063-9.947-1.868s-5.367-4.555-6.592-7.681l-14.178 9.316c-11.955 7.855-11.444 25.552.944 32.704z" fill="#f4d99d"/><path d="m355.949 108.575-.978 16.937c3.319-.502 6.821.063 9.947 1.868s5.367 4.555 6.592 7.68l14.178-9.316c11.955-7.855 11.444-25.552-.944-32.704-12.388-7.151-27.969 1.255-28.795 15.535z" fill="#fcf4d9"/><path d="m370.532 148.331c-3.239 5.61-9.511 8.386-15.561 7.484l.979 16.934c.825 14.281 16.406 22.687 28.795 15.534 12.388-7.153 12.899-24.849.944-32.704l-14.18-9.316c-.277.702-.589 1.396-.977 2.068z" fill="#fceca9"/><path d="m328.811 125.745 14.18 9.316c.276-.701.588-1.395.976-2.068 3.239-5.61 9.511-8.386 15.561-7.485l-.978-16.934c-.825-14.281-16.406-22.687-28.794-15.534-12.389 7.154-12.9 24.85-.945 32.705z" fill="#fcf4d9"/><path d="m370.532 148.331c-.388.672-.833 1.289-1.302 1.879l15.158 7.622c12.78 6.426 27.851-2.865 27.851-17.17s-15.071-23.595-27.85-17.17l-15.155 7.62c3.805 4.789 4.537 11.609 1.298 17.219z" fill="#fcf4d9"/><path d="m302.261 140.663c0 14.305 15.07 23.595 27.85 17.17l15.155-7.62c-3.806-4.789-4.538-11.608-1.299-17.218.388-.672.833-1.289 1.303-1.879l-15.158-7.622c-12.781-6.427-27.851 2.863-27.851 17.169z" fill="#fceca9"/><ellipse cx="357.25" cy="140.663" fill="#ffc839" rx="16.459" ry="16.459" transform="matrix(.92 -.391 .391 .92 -26.557 150.933)"/><path d="m354.484 133.224c1.945-3.368 6.251-4.522 9.62-2.578 3.368 1.945 4.522 6.251 2.578 9.62-1.945 3.368-6.252 4.522-9.62 2.578-3.368-1.945-4.522-6.251-2.578-9.62z" fill="#ffdd40"/><path d="m153.45 459.314-.978 16.937c3.319-.502 6.821.064 9.947 1.868 3.126 1.805 5.367 4.555 6.592 7.68l14.178-9.316c11.955-7.855 11.444-25.552-.944-32.704-12.389-7.151-27.97 1.255-28.795 15.535z" fill="#fcf4d9"/><path d="m127.256 443.78c-10.238 5.911-12.355 19.018-6.037 27.826 6.555 4.327 13.329 8.346 20.305 12.04 3.254-5.55 9.488-8.294 15.506-7.397l-.979-16.934c-.825-14.281-16.406-22.687-28.795-15.535z" fill="#fceca9"/><path d="m181.889 474.232-15.155 7.62c3.177 3.997 4.201 9.407 2.573 14.349 10.817 4.094 21.998 7.443 33.483 9.987 4.173-3.446 6.949-8.652 6.949-14.786 0-14.305-15.07-23.596-27.85-17.17z" fill="#fcf4d9"/><path d="m162.98 477.148c-7.855-4.535-17.891-1.858-22.451 5.974 9.583 5.131 19.547 9.643 29.839 13.483 2.429-7.267-.496-15.478-7.388-19.457z" fill="#ffc839"/><g><path d="m243.942 83.799c-1.686.899-3.671.849-5.309-.134-1.639-.983-2.617-2.712-2.617-4.622v-2.991l-1.824 1.172c-7.756 4.981-18.77 11.443-30.26 16.237-.968 3.662-1.79 7.45-2.44 11.364-5.657 34.098-21.112 51.505-29.614 58.74-1.779 1.515-.69 4.424 1.646 4.39 7.126-.104 18.221-.958 28.08-4.668 1.421-.535 2.981.339 3.293 1.825.904 4.303 2.39 12.765 2.168 21.028-.056 2.075 2.326 3.284 3.987 2.039 3.367-3.419 24.678-17.971 31.749-60.59 3.025-18.235 9.794-33.737 17.628-46.417-5.559-.98-11.36-.107-16.487 2.627z" fill="#dae2fe"/></g><path d="m260.43 81.171c-5.56-.979-11.361-.106-16.488 2.628-1.687.899-3.671.849-5.309-.134-1.639-.983-2.617-2.712-2.617-4.622v-2.991l-1.824 1.172c-7.756 4.981-18.77 11.443-30.26 16.237-.968 3.662-1.791 7.45-2.44 11.364-.357 2.151-.753 4.235-1.184 6.254 1.365.464 2.855.547 4.305.16 20.342-5.427 31.857 6.908 36.186 13.088.598.853 1.357 1.554 2.214 2.091 3.117-17.726 9.752-32.841 17.417-45.247z" fill="#bec8f7"/><g><path d="m340.122 163.564c-8.502-7.236-23.957-24.643-29.614-58.74-.649-3.913-1.472-7.701-2.439-11.361-11.49-4.795-22.503-11.259-30.26-16.24l-1.824-1.172v2.991c0 1.911-.978 3.639-2.617 4.622-1.638.983-3.623 1.032-5.31.134-5.126-2.734-10.927-3.606-16.487-2.628 7.834 12.679 14.602 28.181 17.627 46.417 7.072 42.62 28.382 57.171 31.749 60.59 1.661 1.245 4.043.036 3.987-2.039-.222-8.263 1.265-16.725 2.169-21.028.312-1.486 1.872-2.36 3.293-1.825 9.859 3.71 20.954 4.564 28.08 4.668 2.337.035 3.426-2.874 1.646-4.389z" fill="#dae2fe"/></g><path d="m311.518 110.218c-.362-1.753-.703-3.545-1.01-5.394-.65-3.914-1.472-7.701-2.44-11.362-11.49-4.795-22.503-11.259-30.26-16.239l-1.824-1.172v2.991c0 1.911-.978 3.639-2.618 4.622-1.638.983-3.623 1.032-5.31.134-5.126-2.734-10.927-3.606-16.487-2.628 7.615 12.326 14.213 27.328 17.355 44.907.845-.631 1.564-1.435 2.076-2.398 9.119-17.118 26.184-15.348 35.176-12.946 1.844.494 3.73.272 5.342-.515z" fill="#bec8f7"/><path d="m145.346 76.202 5.402-14.329c4.424-4.915 11.17-8.807 21.03-6.522 17.818 4.128 44.523 13.073 64.633 8.752v13.095c-16.736 10.917-47.112 28.004-67.246 23.34-26.414-6.12-23.819-24.336-23.819-24.336z" fill="#bec8f7"/><path d="m236.41 64.102v13.096c-8.511 5.551-20.549 12.693-32.973 17.764-1.049-1.408-1.522-3.234-1.114-5.087 2.215-10.068-1.915-18.139-5.622-23.025-1.255-1.655-1.602-3.726-1.098-5.583 13.706 3.152 28.492 5.482 40.807 2.835z" fill="#a4b3ea"/><g><path d="m150.507 9.361c13.15-15.258 43.905-12.015 64.895 10.838 7.572 8.244 14.825 14.012 21.008 18.024v27.193c-19.671 4.397-45.953-4.427-63.449-8.48-20.4-4.726-27.147 17.624-27.59 19.176 10.868-37.478-8.004-51.505 5.136-66.751z" fill="#e9efff"/></g><path d="m197.769 57.997c16.108-12.565 10.169-34.045 6.194-44-.519-1.299-.582-2.672-.268-3.94 4.101 2.795 8.054 6.165 11.707 10.143 7.572 8.244 14.825 14.012 21.008 18.024v27.193c-12.338 2.758-27.275.315-41.015-2.89.109-1.723.907-3.385 2.374-4.53z" fill="#dae2fe"/><path d="m366.655 76.202-5.402-14.329c-4.424-4.915-11.17-8.807-21.03-6.522-17.818 4.128-44.522 13.073-64.633 8.752v13.095c16.736 10.917 47.113 28.004 67.246 23.34 26.413-6.12 23.819-24.336 23.819-24.336z" fill="#bec8f7"/><path d="m275.59 64.102v13.096c8.511 5.551 20.549 12.693 32.973 17.764 1.049-1.408 1.522-3.234 1.114-5.087-2.215-10.068 1.914-18.139 5.622-23.025 1.255-1.655 1.602-3.726 1.098-5.583-13.705 3.152-28.492 5.482-40.807 2.835z" fill="#a4b3ea"/><g><path d="m361.493 9.361c-13.15-15.258-43.905-12.015-64.895 10.838-7.572 8.244-14.825 14.012-21.008 18.024v27.193c19.671 4.397 45.953-4.427 63.449-8.48 20.4-4.726 27.147 17.624 27.59 19.176-10.868-37.478 8.004-51.505-5.136-66.751z" fill="#e9efff"/></g><path d="m314.231 57.997c-16.108-12.565-10.169-34.045-6.194-44 .519-1.299.583-2.672.268-3.94-4.101 2.795-8.054 6.165-11.707 10.143-7.572 8.244-14.825 14.012-21.008 18.024v27.193c12.338 2.758 27.275.315 41.015-2.89-.109-1.723-.907-3.385-2.374-4.53z" fill="#dae2fe"/><path d="m267.72 31.179c-.485.117-10.356 6.361-22.407.502l-1.032-.502c-4.367-2.123-9.449 1.057-9.449 5.913v41.951c0 4.963 5.289 8.136 9.668 5.801 7.188-3.833 15.813-3.833 23.001 0 4.379 2.335 9.668-.838 9.668-5.801v-41.952c0-4.855-5.083-8.035-9.449-5.912z" fill="#e9efff"/><g><path d="m256.429 77.054v-37.974c0-2.286 1.25-4.154 3-5.157-3.859.572-8.772.356-14.117-2.242l-1.032-.502c-4.366-2.123-9.449 1.057-9.449 5.913v41.951c0 4.963 5.289 8.136 9.667 5.801 4.641-2.475 9.88-3.342 14.945-2.621-1.756-1-3.014-2.869-3.014-5.169z" fill="#dae2fe"/></g><ellipse cx="431.37" cy="214.782" fill="#ffc839" rx="16.459" ry="16.459" transform="matrix(.92 -.391 .391 .92 -49.643 185.827)"/><path d="m428.604 207.344c1.945-3.368 6.251-4.522 9.62-2.578 3.368 1.945 4.522 6.252 2.578 9.62-1.945 3.368-6.251 4.522-9.62 2.577-3.368-1.944-4.522-6.25-2.578-9.619z" fill="#ffdd40"/><ellipse cx="458.499" cy="316.032" fill="#ffc839" rx="16.459" ry="16.459" transform="matrix(.92 -.391 .391 .92 -87.082 204.504)"/><g fill="#ffdd40"><path d="m455.734 308.594c1.945-3.368 6.251-4.522 9.62-2.578 3.368 1.945 4.522 6.251 2.578 9.62-1.945 3.368-6.251 4.522-9.62 2.577-3.368-1.944-4.522-6.251-2.578-9.619z"/><path d="m164.182 490.995c1.944-3.368.79-7.675-2.578-9.62-3.368-1.944-7.675-.79-9.62 2.578-.819 1.418-1.082 3.002-.868 4.507 3.586 1.702 7.222 3.317 10.902 4.846.861-.58 1.61-1.352 2.164-2.311z"/><path d="m77.871 409.838c1.945-3.368 6.251-4.522 9.62-2.578 3.368 1.945 4.522 6.251 2.578 9.62-1.945 3.368-6.252 4.522-9.62 2.578-3.369-1.945-4.523-6.252-2.578-9.62z"/><path d="m428.604 409.838c1.945-3.368 6.251-4.522 9.62-2.578 3.368 1.945 4.522 6.251 2.578 9.62-1.945 3.368-6.251 4.522-9.62 2.578-3.368-1.945-4.522-6.252-2.578-9.62z"/><path d="m364.248 481.522c-3.368-1.945-7.675-.791-9.62 2.578-1.332 2.306-1.209 5.052.081 7.178 4.282-1.887 8.501-3.889 12.65-6.01-.54-1.525-1.601-2.874-3.111-3.746z"/></g><ellipse cx="53.501" cy="316.032" fill="#ffc839" rx="16.459" ry="16.459" transform="matrix(.92 -.391 .391 .92 -119.345 46.101)"/><path d="m50.736 308.594c1.945-3.368 6.251-4.522 9.62-2.578 3.368 1.945 4.522 6.251 2.578 9.62-1.945 3.368-6.252 4.522-9.62 2.577-3.369-1.944-4.523-6.251-2.578-9.619z" fill="#ffdd40"/><ellipse cx="80.631" cy="214.782" fill="#ffc839" rx="16.459" ry="16.459" transform="matrix(.92 -.391 .391 .92 -77.583 48.646)"/><path d="m77.865 207.344c1.945-3.368 6.252-4.522 9.62-2.578 3.368 1.945 4.522 6.251 2.578 9.62-1.945 3.368-6.251 4.522-9.62 2.577-3.368-1.944-4.522-6.251-2.578-9.619z" fill="#ffdd40"/><ellipse cx="154.75" cy="140.663" fill="#ffc839" rx="16.459" ry="16.459" transform="matrix(.92 -.391 .391 .92 -42.689 71.731)"/><path d="m151.985 133.224c1.945-3.368 6.251-4.522 9.62-2.578 3.368 1.945 4.522 6.251 2.578 9.62-1.945 3.368-6.251 4.522-9.62 2.577-3.368-1.944-4.522-6.25-2.578-9.619z" fill="#ffdd40"/></g></svg>