<svg id="Layer_1" enable-background="new 0 0 512 512" height="512" viewBox="0 0 512 512" width="512" xmlns="http://www.w3.org/2000/svg"><g><path d="m439.612 429.186c38.193-43.207 61.386-99.982 61.386-162.184 0-135.309-109.689-244.998-244.998-244.998-79.808 0-150.693 38.168-195.425 97.237l-46.037 189.375c11.702 68.382 51.742 127.088 107.602 163.604z" fill="#aa67c6"/><path d="m14.953 311.02h24.835c6.262 0 11.64-4.45 12.813-10.601l19.338-101.465c-2.47-1.765-4.088-4.648-4.088-7.908v-50.449c0-2 .608-3.859 1.647-5.406l-7.458-17.86c-31.991 41.397-51.038 93.306-51.038 149.671 0 15.028 1.36 29.738 3.951 44.018z" fill="#665364"/><path d="m476.164 145.156.001.003-47.634-114.071c-7.887-18.885-26.208-31.088-46.673-31.088h-206.07c-20.465 0-38.785 12.203-46.676 31.091l-43.468 104.096c1.041 1.548 1.65 3.409 1.65 5.411v50.449c0 3.262-1.62 6.146-4.092 7.911l21.358 112.062h348.525l25.714-134.92.371-1.942c1.872-9.782.833-19.811-3.006-29.002z" fill="#543e5b"/><path d="m256.078 307.871 18.087-195.241c.087-.939-.088-1.877-.497-2.727-1.633-3.386-5.494-13.396-.42-24.153 5.681-12.043-13.214-16.218-16.703-16.879-.383-.072-.759-.185-1.115-.344-7.037-3.141-7.398-7.191-6.565-9.923.583-1.913.089-3.991-1.403-5.321-7.956-7.093-5.531-16.171-3.333-21.021.807-1.78.59-3.909-.645-5.423-1.996-2.449-1.633-5.538-.879-7.857.629-1.937.083-4.096-1.468-5.416-4.65-3.957-3.581-8.438-2.227-11.131.387-.77.573-1.604.572-2.435h-63.694c-20.465 0-38.785 12.202-46.676 31.091l-43.468 104.096c1.041 1.548 1.65 3.409 1.65 5.411v50.449c0 3.262-1.62 6.146-4.092 7.911l21.358 112.062h150.516c.234-.673.453-1.228.618-1.622.205-.489.335-1 .384-1.527z" fill="#422953"/><path d="m455.658 153.722-47.633-114.07c-4.422-10.588-14.694-17.43-26.168-17.43h-206.07c-11.474 0-21.746 6.842-26.169 17.431l-47.632 114.067c-2.146 5.138-2.731 10.746-1.689 16.238l26.885 141.062h303.28l26.508-139.086.373-1.954c1.05-5.484.467-11.106-1.685-16.258z" fill="#bec8f7"/><path d="m256.078 307.871 18.087-195.241c.087-.939-.088-1.877-.497-2.727-1.633-3.386-5.494-13.396-.42-24.153 5.681-12.043-13.214-16.218-16.703-16.879-.383-.072-.759-.185-1.115-.344-7.037-3.141-7.398-7.191-6.565-9.923.583-1.913.089-3.991-1.403-5.321-7.956-7.093-5.531-16.171-3.333-21.021.807-1.78.59-3.909-.645-5.423-1.154-1.416-1.506-3.045-1.463-4.616h-66.233c-11.474 0-21.746 6.842-26.169 17.431l-47.632 114.067c-2.146 5.137-2.731 10.746-1.689 16.237l26.884 141.062h127.893c.234-.673.453-1.228.618-1.622.206-.489.336-1 .385-1.527z" fill="#a4b3ea"/><g><path d="m127.175 317.644c-3.117.001-5.893-2.209-6.498-5.384l-26.885-141.061c-1.284-6.77-.563-13.693 2.084-20.031l47.631-114.066c5.456-13.062 18.126-21.502 32.28-21.502h206.07c14.154 0 26.825 8.44 32.28 21.5l47.633 114.07c2.655 6.356 3.374 13.291 2.078 20.056l-26.88 141.035c-.685 3.593-4.149 5.955-7.746 5.266-3.593-.685-5.951-4.152-5.266-7.746l26.881-141.042c.806-4.206.359-8.515-1.29-12.464l-47.633-114.07c-3.389-8.115-11.262-13.359-20.057-13.359h-206.07c-8.795 0-16.668 5.244-20.058 13.36l-47.631 114.066c-1.645 3.938-2.092 8.244-1.294 12.452l26.883 141.055c.685 3.593-1.673 7.061-5.266 7.746-.417.081-.835.119-1.246.119z" fill="#7c6b7b"/></g><path d="m143.507 37.102-47.631 114.066c-2.647 6.337-3.368 13.261-2.084 20.03l26.884 141.062c.605 3.174 3.382 5.385 6.498 5.384.411 0 .829-.038 1.247-.118 3.593-.685 5.951-4.152 5.266-7.746l-26.884-141.055c-.798-4.208-.351-8.514 1.294-12.453l47.633-114.066c3.39-8.116 11.263-13.36 20.058-13.36h68.673c-.171-.724-.493-1.414-.977-2.007-1.996-2.449-1.633-5.538-.879-7.857.365-1.123.323-2.316-.069-3.381h-66.748c-14.155-.001-26.825 8.439-32.281 21.501z" fill="#543e5b"/><path d="m161.115 311.02h235.414l26.959-141.453c.544-2.857.237-5.811-.883-8.495l-40.253-96.397c-2.306-5.523-7.706-9.12-13.691-9.12h-179.677c-5.986 0-11.385 3.596-13.691 9.12l-40.253 96.397c-1.121 2.684-1.428 5.638-.883 8.495z" fill="#dae2fe"/><path d="m256.078 307.871 18.087-195.241c.087-.939-.088-1.877-.497-2.727-1.633-3.386-5.494-13.396-.42-24.153 5.681-12.043-13.214-16.218-16.703-16.879-.383-.072-.759-.185-1.115-.344-7.037-3.141-7.398-7.191-6.565-9.923.309-1.016.306-2.076.02-3.048h-59.901c-5.986 0-11.385 3.597-13.691 9.12l-40.253 96.397c-1.121 2.684-1.428 5.638-.884 8.495l26.959 141.453h93.96c.234-.673.453-1.228.618-1.622.206-.49.336-1.001.385-1.528z" fill="#bec8f7"/><path d="m365.395 227.295h-174.192c-5.432 0-9.877-4.445-9.877-9.877v-124.761c0-5.432 4.444-9.877 9.877-9.877h174.191c5.432 0 9.877 4.445 9.877 9.877v124.762c0 5.432-4.444 9.876-9.876 9.876z" fill="#e9efff"/><path d="m274.189 82.781h-82.986c-5.432 0-9.877 4.444-9.877 9.876v124.762c0 5.432 4.445 9.876 9.877 9.876h72.339l10.623-114.666c.087-.939-.088-1.877-.497-2.727-1.633-3.386-5.494-13.396-.42-24.153.495-1.049.793-2.035.941-2.968z" fill="#dae2fe"/><path d="m183.915 331h-75.547l12.522 140.39c21.082 13.964 44.45 24.749 69.419 31.686z" fill="#e1715a"/><path d="m373.73 331-5.719 153.924c27.685-14.261 52.312-33.625 72.61-56.875l8.656-97.05h-75.547z" fill="#f1935d"/><path d="m380.342 331h-203.039l8.536 170.787c22.229 6.633 45.776 10.213 70.161 10.213 42.281 0 82.06-10.71 116.773-29.566z" fill="#e1715a"/><path d="m185.839 501.787c22.229 6.633 45.776 10.213 70.161 10.213 6.158 0 12.261-.234 18.305-.681v-139.261c0-1.824-.956-3.533-2.541-4.436-14.954-8.52-12.752-24.492-10.775-31.808.465-1.72.01-3.554-1.174-4.815h-82.512z" fill="#c15655"/><path d="m77.572 129.642c-6.051 0-10.956 4.905-10.956 10.956v50.449c0 6.051 4.905 10.956 10.956 10.956s10.956-4.905 10.956-10.956v-50.449c0-6.051-4.905-10.956-10.956-10.956z" fill="#bec8f7"/><path d="m66.616 153.076h21.912v25.492h-21.912z" fill="#e9efff"/><path d="m321.376 416.847h-25.469c-2.295 0-4.156-1.861-4.156-4.156v-31.294c0-6.961-5.35-12.951-12.303-13.278-7.424-.349-13.552 5.566-13.552 12.913v31.659c0 2.295-1.86 4.156-4.156 4.156h-25.469c-6.961 0-12.951 5.35-13.278 12.303-.349 7.424 5.566 13.552 12.913 13.552h25.834c2.295 0 4.156 1.861 4.156 4.156v64.938c8.744-.348 17.37-1.15 25.855-2.391v-62.548c0-2.295 1.861-4.156 4.156-4.156h25.834c7.347 0 13.262-6.128 12.913-13.552-.327-6.952-6.317-12.302-13.278-12.302z" fill="#c15655"/><path d="m283.661 429.15c.327-6.953 6.317-12.303 13.278-12.303h-1.032c-2.295 0-4.156-1.861-4.156-4.156v-31.294c0-6.961-5.35-12.951-12.303-13.278-7.424-.349-13.552 5.566-13.552 12.913v31.659c0 2.295-1.86 4.156-4.156 4.156h-25.469c-6.961 0-12.951 5.35-13.278 12.303-.349 7.424 5.566 13.552 12.913 13.552h25.834c2.295 0 4.156 1.86 4.156 4.155v64.939c8.744-.348 17.37-1.15 25.855-2.391v-62.548c0-2.295 1.861-4.155 4.156-4.155h.667c-7.347 0-13.262-6.128-12.913-13.552z" fill="#ad4949"/><path d="m52.601 300.419 11.96-62.752c-37.401 20.398-49.998-12.281-50.022-12.344-2.323 13.545-3.537 27.47-3.537 41.679 0 15.028 1.36 29.737 3.951 44.018h24.835c6.263 0 11.64-4.45 12.813-10.601z" fill="#543e5b"/><g><path d="m202.928 309.374c-.679-17.246-.844-30.056-.878-33.794-.005-.542.552-.909 1.058-.687l1.989.872 12.559-20.031c.106-.179.228-.345.34-.519l-1.26-.021s-18.513 9.88-42.011 17.158c-2.873.89-5.506 2.445-7.635 4.571-8.908 8.893-13.235 21.229-15.27 32.451z" fill="#422953"/></g><g><path d="m351.506 275.765 1.989-.872v-.001c.344-.15.621-.008.724.06.102.067.337.262.333.628-.034 3.738-.199 16.548-.878 33.794h51.104c-2.036-11.222-6.362-23.559-15.27-32.451-2.129-2.125-4.762-3.68-7.635-4.571-23.498-7.278-42.011-17.158-42.011-17.158l-1.255.021c.117.183.245.356.355.544z" fill="#422953"/></g><path d="m264.471 272.688c4.821 5.026-4.736 9.908.566 14.778 10.517 9.202 12.943 11.271 13.265 11.635.32-.362 2.813-2.49 13.265-11.635 1.577-1.449 2.053-3.742 1.184-5.699-1.055-2.831-2.456-4.211-1.884-6.712.369-1.653 1.387-2.486 2.508-3.677 7.053-7.524 14.583-17.051 18.108-26.698v-.001c1.278-3.497 1.87-6.29 2.109-8.442-1.874-4.177-2.608-12.128-2.765-16.686-9.201 10.718-19.616 17.695-33.73 17.26-13.047-.399-22.764-7.286-31.327-17.26-.143 4.167-.617 9.223-1.837 14.027-.247.973-.589 1.911-1.005 2.812.702 6.663 4.753 18.793 21.543 36.298z" fill="#fcad6d"/><path d="m276.725 236.787c-12.858-.519-22.475-7.359-30.955-17.237-.143 4.167-.617 9.224-1.836 14.027-.247.973-.589 1.911-1.005 2.812.682 6.48 4.536 18.134 20.193 34.872 7.892-8.312 11.762-23.493 13.603-34.474z" fill="#fd995b"/><g><path d="m233.364 309.374h47.557v-9.83c0-1.341-.562-2.62-1.549-3.527l-13.128-9.46c-1.514-1.391-1.971-3.593-1.136-5.472l1.53-3.442c.793-1.784.415-3.867-.936-5.276-24.024-25.045-21.565-39.994-21.096-41.824l-5.394 5.233-2.84 4.641c-3.327 12.758-3.008 23.65-3.008 33.829z" fill="#bec8f7"/></g><path d="m236.372 240.419 2.84-4.641 5.394-5.233c-.029.484-1.43 4.635 1.837 13.57v.001c3.764 10.305 11.63 20.276 19.259 28.253.81.845 1.263 1.932 1.33 3.051l-16.683 13.447c-3.249 2.618-8.104 1.44-9.771-2.385-2.272-5.213-5.134-13.109-7.18-23.301.235-10.362 1.78-18.183 2.974-22.762z" fill="#e9efff"/><path d="m204.572 274.603 12.169-19.409c1.182-2.001 2.723-3.768 4.544-5.212l17.926-14.205s-4.432 11.264-4.432 30.1l-18.005 14.558z" fill="#543e5b"/><g><path d="m323.239 309.374v-35.127c0-10.18.319-21.071-3.008-33.829l-2.839-4.641-5.394-5.233c.47 1.83 2.928 16.778-21.096 41.824-1.352 1.409-1.73 3.492-.936 5.276l1.53 3.442c.835 1.879.378 4.081-1.136 5.472l-13.128 9.46c-.987.907-1.549 2.186-1.549 3.527v9.83h47.556z" fill="#dae2fe"/></g><path d="m320.231 240.419-2.839-4.641-5.394-5.233c.029.484 1.43 4.635-1.837 13.57v.001c-3.764 10.305-11.629 20.276-19.259 28.253-.81.845-1.263 1.932-1.33 3.051l16.683 13.447c3.249 2.618 8.104 1.44 9.772-2.385 2.272-5.213 5.134-13.109 7.18-23.301-.237-10.362-1.782-18.183-2.976-22.762z" fill="#e9efff"/><path d="m352.031 274.603-12.169-19.409c-1.182-2.001-2.722-3.768-4.544-5.212l-17.926-14.205s4.432 11.264 4.432 30.1l18.005 14.558z" fill="#543e5b"/><g><path d="m234.78 309.374v-43.497l-16.784 12.911c-.753.579-1.761.702-2.63.32l-11.831-5.189c-1.206-.529-2.557.353-2.545 1.67.034 3.729.198 16.524.879 33.784h32.911z" fill="#665364"/></g><g><path d="m354.735 309.374c.682-17.261.846-30.056.88-33.784.012-1.317-1.34-2.199-2.546-1.67l-11.831 5.189c-.87.381-1.878.259-2.63-.32l-16.784-12.911v43.497h32.911z" fill="#665364"/></g><path d="m301.601 271.667c-7.571.774-17.462 8.108-17.462 8.108v5.71 5.71s9.892 7.334 17.462 8.108c3.295.337 6.149-2.278 6.149-5.59 0-5.755 0-10.7 0-16.455.001-3.313-2.854-5.927-6.149-5.591z" fill="#ff4155"/><path d="m254.92 271.667c7.571.774 17.463 8.108 17.463 8.108v5.71 5.71s-9.892 7.334-17.463 8.108c-3.295.337-6.149-2.278-6.149-5.59 0-5.755 0-10.7 0-16.455-.001-3.313 2.854-5.927 6.149-5.591z" fill="#ff4155"/><path d="m280.171 274.411h-2.708c-5.346 0-9.72 4.374-9.72 9.72v2.708c0 5.346 4.374 9.72 9.72 9.72h2.708c5.346 0 9.72-4.374 9.72-9.72v-2.708c0-5.346-4.374-9.72-9.72-9.72z" fill="#ff7186"/><g><path d="m404.778 309.374c-2.036-11.222-6.362-23.559-15.27-32.451-2.129-2.125-4.762-3.68-7.635-4.571l-3.478 37.022z" fill="#543e5b"/></g><g><path d="m178.204 309.374-3.479-37.022c-2.873.89-5.506 2.445-7.635 4.571-8.908 8.893-13.235 21.229-15.27 32.451z" fill="#543e5b"/></g><g><path d="m267.419 65.22c-32.669 4.451-35.774 22.974-35.789 29.769-.003 1.425-.793 2.746-2.074 3.369-16.993 8.267-7.831 48.109-7.831 48.109 1.707.114 3.493.805 4.825 1.45.326-2.03.859-4.029 1.611-5.961.573-1.472 1.29-2.96 2.185-4.365 1.554-2.438 2.262-5.314 2.051-8.19-.611-8.312-.317-24.69 10.655-29.627 9.295-4.182 20.696-1.76 27.967.657 4.722 1.57 9.837 1.57 14.559 0 7.271-2.418 18.672-4.84 27.967-.657 10.94 4.923 11.264 21.222 10.66 29.556-.21 2.897.479 5.803 2.045 8.26.925 1.45 1.658 2.988 2.241 4.507.724 1.888 1.238 3.839 1.556 5.819 1.679-.814 4.079-1.7 6.133-1.409.251-8.712 1.056-18.104 1.056-18.104 9.681-47.414-34.641-67.976-69.817-63.183z" fill="#665364"/></g><path d="m267.579 98.972c-23.008-11.465-13.13-30.667-13.034-30.852-20.652 6.89-22.901 21.102-22.913 26.87-.003 1.425-.793 2.746-2.074 3.369-16.993 8.267-7.832 48.109-7.832 48.109 1.707.114 3.493.805 4.825 1.45.326-2.03.859-4.029 1.611-5.961.573-1.472 1.29-2.959 2.185-4.364 1.554-2.439 2.262-5.314 2.051-8.19-.611-8.312-.317-24.69 10.655-29.626 7.937-3.571 17.402-2.325 24.527-.379z" fill="#543e5b"/><path d="m340.082 147.497c-2.544-2.332-7.613-1.15-9.804.278.48 2.99.507 6.048.093 9.068l-2.586 18.835c0 1.518-.048 3.008-.136 4.472 6.306 1.902 9.438-3.759 9.966-7.644.227-1.673.598-3.321 1.113-4.93 1.678-5.238 7.729-14.237 1.354-20.079z" fill="#fcad6d"/><path d="m335.736 162.784c-2.244 0-4.295-.813-5.885-2.157l-2.067 15.051c0 1.519-.048 3.008-.136 4.472 6.306 1.902 9.438-3.759 9.966-7.644.227-1.673.598-3.321 1.113-4.93.606-1.891 1.78-4.273 2.735-6.819-1.565 1.266-3.556 2.027-5.726 2.027z" fill="#fd995b"/><path d="m216.976 147.497c2.545-2.332 7.613-1.15 9.804.278-.48 2.99-.507 6.048-.093 9.068l2.586 18.835c0 1.518.048 3.008.136 4.472-6.306 1.902-9.438-3.759-9.966-7.644-.227-1.673-.598-3.321-1.114-4.93-1.676-5.238-7.728-14.237-1.353-20.079z" fill="#fcad6d"/><path d="m227.203 160.594c-1.594 1.363-3.66 2.19-5.922 2.19-2.145 0-4.113-.745-5.67-1.983.952 2.53 2.117 4.896 2.719 6.776.515 1.608.887 3.257 1.114 4.93.528 3.885 3.66 9.546 9.966 7.644-.088-1.463-.136-2.953-.136-4.472z" fill="#fd995b"/><path d="m328.87 141.954c-.643-1.677-1.409-3.218-2.276-4.58-1.484-2.329-2.189-5.174-1.983-8.013.657-9.061.113-25-10.898-29.956-9.249-4.16-20.473-1.947-28.261.643-4.612 1.535-9.693 1.534-14.305 0-7.788-2.59-19.013-4.805-28.261-.643-4.735 2.131-12.447 8.866-10.893 30.028.205 2.788-.501 5.608-1.988 7.941-.844 1.323-1.591 2.815-2.221 4.435-1.847 4.745-2.445 10.011-1.728 15.228l2.583 18.783c0 31.107 18.821 49.08 26.913 55.363 6.458 5.016 14.537 7.779 22.749 7.779 8.211 0 16.29-2.762 22.749-7.779 8.092-6.283 26.913-24.257 26.909-55.308l2.587-18.835c.706-5.164.127-10.382-1.676-15.086z" fill="#f9ba8f"/><g><path d="m282.892 231.184c-8.092-6.283-26.913-24.256-26.913-55.363l-2.583-18.784c-.716-5.218-.118-10.483 1.728-15.228.631-1.62 1.378-3.112 2.222-4.435 1.487-2.333 2.193-5.153 1.988-7.941-1.507-20.519 5.697-27.474 10.453-29.82-7.698-2.385-18.178-4.134-26.902-.208-4.736 2.131-12.447 8.866-10.893 30.028.205 2.788-.501 5.608-1.988 7.941-.843 1.323-1.591 2.815-2.221 4.435-1.847 4.745-2.445 10.01-1.728 15.228l2.582 18.784c0 31.107 18.821 49.08 26.913 55.363 6.459 5.017 14.538 7.779 22.749 7.779 4.693 0 9.342-.906 13.671-2.616-3.245-1.281-6.311-3.013-9.078-5.163z" fill="#fcad6d"/></g><path d="m450.859 308.708h-344.073c-7.3 0-12.796 6.643-11.43 13.814 1.046 5.487 5.844 9.457 11.43 9.457h344.072c5.586 0 10.384-3.97 11.43-9.457 1.367-7.171-4.13-13.814-11.429-13.814z" fill="#f9a880"/><path d="m255.925 308.708h-149.139c-7.3 0-12.797 6.644-11.43 13.814 1.046 5.487 5.844 9.457 11.43 9.457h153.751c-.36-.655-.866-1.232-1.51-1.67-8.854-6.003-4.586-17.925-3.332-20.911.093-.225.168-.456.23-.69z" fill="#f1935d"/></g></svg>