<svg id="Layer_1" enable-background="new 0 0 512 512" height="512" viewBox="0 0 512 512" width="512" xmlns="http://www.w3.org/2000/svg"><g><g><path d="m96.642 409.007h318.717c11.839 0 22.188 6.634 27.563 16.357 36.219-42.708 58.077-97.978 58.077-158.362 0-135.309-109.689-244.998-244.998-244.998s-244.999 109.689-244.999 244.998c0 60.384 21.858 115.654 58.077 158.362 5.375-9.723 15.723-16.357 27.563-16.357z" fill="#ffdd40"/></g><path d="m414.815 409.045v-207.66c0-18.063-14.643-32.705-32.706-32.705h-5.51c-2.893 0-5.26-2.367-5.26-5.26 17.041-42.768 1.253-91.61-37.597-116.311l-71.009-45.15c-4.109-2.612-9.358-2.612-13.466 0l-71.009 45.149c-38.85 24.701-54.638 73.543-37.597 116.311 0 2.893-2.367 5.26-5.26 5.26h-5.51c-18.062 0-32.705 14.642-32.705 32.705v207.66h317.629z" fill="#e8e7e6"/><path d="m254.766 408.812c1.361-1.307 2.142-3.098 2.142-4.985v-67.829c0-1.943-.837-3.787-2.271-5.098-10.034-9.179-4.854-19.812-1.209-25.004 1.49-2.122 1.658-4.894.438-7.181l-18.154-34.024c-.42-.788-1-1.481-1.685-2.053-37.017-30.899-21.757-76.535-15.323-91.485 1.204-2.799.364-6.021-1.959-7.993-16.386-13.908-9.584-38.386-6.507-46.966.719-2.004.477-4.222-.666-6.019l-4.533-7.13c-1.078-1.696-2.879-2.76-4.874-3.007-8.808-1.09-11.476-6.887-12.228-11.169-.45-2.568-2.336-4.581-4.812-5.396-3.265-1.074-4.818-3.29-5.541-5.39-.87-2.529-3.035-4.314-5.683-4.691-6.048-.861-7.778-5.98-8.184-10.002-.134-1.327-.664-2.529-1.449-3.524-26.873 26.577-36.073 67.25-21.607 103.554 0 2.893-2.367 5.26-5.26 5.26h-5.51c-18.063 0-32.706 14.642-32.706 32.705v207.66h157.344c.08-.078.16-.158.237-.233z" fill="#dbdbdb"/><path d="m387.3 409.045v-209.034c0-2.107-1.709-3.816-3.816-3.816h-6.884c-18.101 0-32.775-14.674-32.775-32.775 0-3.488.663-6.944 1.954-10.184v-.001c12.133-30.453.863-65.32-26.799-82.908l-62.98-40.044-62.979 40.044c-27.663 17.589-38.934 52.457-26.801 82.908l.001.001c1.291 3.24 1.954 6.696 1.954 10.184 0 18.101-14.674 32.775-32.775 32.775h-6.884c-2.107 0-3.816 1.709-3.816 3.816v209.034z" fill="#dbdbdb"/><path d="m254.766 408.812c1.361-1.307 2.142-3.098 2.142-4.985v-67.829c0-1.943-.837-3.787-2.271-5.098-10.034-9.179-4.854-19.812-1.209-25.004 1.49-2.122 1.658-4.894.438-7.181l-18.154-34.024c-.42-.788-1-1.481-1.685-2.053-37.017-30.899-21.757-76.535-15.323-91.485 1.204-2.799.364-6.021-1.959-7.993-16.386-13.908-9.584-38.386-6.507-46.966.719-2.004.477-4.222-.666-6.019l-4.533-7.13c-1.078-1.696-2.879-2.76-4.874-3.007-8.808-1.09-11.476-6.887-12.228-11.169-.45-2.568-2.336-4.581-4.812-5.396-1.473-.485-2.583-1.208-3.441-2.043-17.626 18.946-23.406 46.855-13.464 71.806l.001.001c1.291 3.24 1.954 6.696 1.954 10.184 0 18.101-14.674 32.775-32.775 32.775h-6.884c-2.107 0-3.816 1.709-3.816 3.816v209.034h129.83c.079-.079.159-.159.236-.234z" fill="#c8c8c8"/><path d="m394.943 409.045v-209.033c0-6.318-5.141-11.459-11.459-11.459h-6.884c-18.038 0-29.321-18.427-23.721-32.488 13.491-33.86.959-72.63-29.799-92.187l-62.98-40.044c-2.502-1.591-5.699-1.591-8.201 0l-62.979 40.044c-30.759 19.557-43.292 58.328-29.8 92.188 5.725 14.37-6.011 32.487-23.721 32.487h-6.884c-6.318 0-11.459 5.141-11.459 11.459v209.034h15.286v-205.208h3.057c28.755 0 47.536-29.297 37.921-53.432-10.775-27.044-.765-58.009 23.802-73.63l58.878-37.436 58.879 37.437c24.566 15.62 34.575 46.586 23.8 73.631-9.643 24.199 9.235 53.431 37.921 53.431h3.057v205.207h15.286z" fill="#b5b5b5"/><path d="m132.342 203.838h3.057c28.755 0 47.536-29.297 37.921-53.432-9.021-22.642-3.466-48.027 12.997-64.86-.841-.942-1.94-1.662-3.192-2.075-3.265-1.074-4.818-3.29-5.541-5.39-.442-1.285-1.221-2.375-2.226-3.189-20.585 21.076-27.527 52.839-16.238 81.172 5.725 14.37-6.011 32.487-23.721 32.487h-6.884c-6.318 0-11.459 5.141-11.459 11.459v209.034h15.286z" fill="#a5a4a4"/><path d="m415.358 407.007h-318.716c-12.332 0-23.062 7.187-28.222 17.577 4.824 5.737 9.903 11.252 15.226 16.522.042 0 .082-.005.124-.005h344.46c.042 0 .083.005.124.005 5.323-5.27 10.402-10.785 15.226-16.522-5.16-10.39-15.89-17.577-28.222-17.577z" fill="#c8c8c8"/><path d="m252.413 433.731c-8.357-12.181-1.478-21.24 2.353-24.918.552-.53 1.003-1.142 1.35-1.805h-159.474c-12.332 0-23.062 7.187-28.222 17.577 4.824 5.737 9.903 11.252 15.226 16.522.042 0 .082-.005.124-.005h168.909c1.312-2.233 1.279-5.119-.266-7.371z" fill="#b5b5b5"/><path d="m83.77 439.063c-.702 0-1.397.03-2.089.073 44.419 44.98 106.109 72.864 174.319 72.864s129.9-27.884 174.319-72.864c-.692-.044-1.387-.073-2.089-.073z" fill="#dbdbdb"/><path d="m83.77 439.063c-.702 0-1.397.03-2.089.073 40.297 40.805 94.808 67.539 155.506 72.15v-42.787c0-12.352 8.05-20.936 13.864-25.525 1.285-1.014 2.098-2.411 2.416-3.911z" fill="#c8c8c8"/><g><path d="m300.559 113.117c-27.068-17.211-62.048-17.211-89.116 0-3.562 2.263-8.286 1.213-10.55-2.349s-1.213-8.285 2.349-10.55c32.05-20.378 73.469-20.378 105.518 0 3.562 2.265 4.614 6.989 2.349 10.55-2.253 3.544-6.972 4.625-10.55 2.349z" fill="#f9f9f9"/></g><g><path d="m297.215 348.041h-82.431c-4.221 0-7.643-3.422-7.643-7.643 0-4.222 3.422-7.643 7.643-7.643h82.431c4.221 0 7.643 3.421 7.643 7.643s-3.422 7.643-7.643 7.643z" fill="#f9f9f9"/></g><g><path d="m269.28 375.291h-26.561c-4.221 0-7.643-3.422-7.643-7.643 0-4.222 3.422-7.643 7.643-7.643h26.561c4.221 0 7.643 3.421 7.643 7.643s-3.422 7.643-7.643 7.643z" fill="#f9f9f9"/></g><g fill="#b5b5b5"><path d="m323.445 268.353c-10.824 5.553-23.183 8.537-36.273 8.146-39.137-1.17-71.079-33.112-72.249-72.249-.391-13.09 2.593-25.449 8.146-36.273.661-1.289-.851-2.582-2.046-1.763-20.166 13.808-33.25 37.199-32.652 63.621.902 39.803 33.412 72.314 73.215 73.215 26.422.599 49.813-12.486 63.621-32.652.82-1.195-.473-2.707-1.762-2.045z"/><path d="m315.249 196.447c.743-.724.333-1.986-.694-2.135l-18.561-2.697c-.408-.06-.761-.316-.943-.685l-8.302-16.819c-.459-.93-1.785-.93-2.244 0l-8.302 16.819c-.182.369-.534.625-.942.685l-18.561 2.697c-1.027.149-1.437 1.411-.694 2.136l13.431 13.092c.296.287.43.702.361 1.109l-3.171 18.486c-.175 1.023.898 1.802 1.816 1.32l16.602-8.728c.365-.192.801-.192 1.165 0l16.602 8.727c.919.483 1.991-.297 1.816-1.319l-3.17-18.486c-.07-.407.065-.821.36-1.109z"/></g></g></svg>