<svg id="Layer_1" enable-background="new 0 0 512 512" height="512" viewBox="0 0 512 512" width="512" xmlns="http://www.w3.org/2000/svg"><g><path d="m64.638 408.973 89.28 69.796c31.078 14.264 65.648 22.229 102.082 22.229s71.004-7.964 102.082-22.229l89.281-69.796c33.556-41.922 53.635-95.099 53.635-152.973 0-135.309-109.689-244.998-244.997-244.998s-244.999 109.689-244.999 244.998c0 57.874 20.08 111.051 53.636 152.973z" fill="#23c5ed"/><path d="m275.132 250.117c-11.981-6.39-26.285-6.388-38.263 0-2.124 1.132-3.828.997-4.417 1.086-16.047 29.69-46.79 82.322-80.593 91.142-12.667 3.302-22.156 2.896-29.21.835-9.925 8.898-20.204 18.305-30.59 28.692-11.635 11.635-20.568 24.289-27.421 37.101 23.772 29.699 54.308 53.743 89.28 69.796 9.322-21.41 24.259-45.901 48.057-71.525 48.281-51.984 67.044-112.549 74.143-156.682-.334-.129-.665-.273-.986-.445z" fill="#422953"/><path d="m275.131 250.117c-11.981-6.39-26.285-6.388-38.263 0-2.124 1.131-3.828.997-4.417 1.086-9.655 17.864-24.632 44.031-42.393 63.966v2.461s40.064-10.854 52.05 33.828c19.695-35.996 29.358-71.974 34.011-100.895-.335-.13-.666-.274-.988-.446z" fill="#30144a"/><path d="m447.362 408.973c-6.853-12.812-15.786-25.466-27.421-37.101-10.387-10.387-20.665-19.794-30.59-28.692-7.055 2.063-16.541 2.471-29.21-.835-33.758-8.808-64.527-61.416-80.593-91.142-.562-.085-2.3.043-4.417-1.086-11.981-6.39-26.285-6.388-38.263 0-.322.172-.653.316-.988.445 7.099 44.133 25.862 104.698 74.144 156.682 23.799 25.624 38.735 50.115 48.057 71.525 34.973-16.052 65.509-40.097 89.281-69.796z" fill="#422953"/><path d="m321.942 317.63.384-2.043c-17.918-19.978-33.046-46.378-42.777-64.384-.562-.085-2.3.043-4.417-1.086-11.981-6.39-26.285-6.388-38.263 0-.322.172-.653.315-.988.445 4.653 28.921 14.316 64.9 34.012 100.897 11.298-42.847 52.049-33.829 52.049-33.829z" fill="#30144a"/><g><path d="m459.207 88.061c-15.515-55.29-78.381-56.33-101.855-15.477-33.038 57.496-64.899 85.753-75.71 94.345 8.235 2.304 6.26 11.396 6.515 12.535 16.076-10.784 55.543-37.106 93.08-60.95 29.781-18.918 57.784-26.706 79.657-24.319-.555-2.084-1.125-4.13-1.687-6.134z" fill="#422953"/><path d="m353.912 127.525c-18.018-4.098-17.317-18.021-16.689-22.153.048-.317.055-.635.066-.953-25.189 36.435-47.06 55.686-55.647 62.51 8.235 2.304 6.26 11.396 6.515 12.535 13.017-8.732 41.371-27.652 71.618-47.194-1.079-2.303-3.145-4.127-5.863-4.745z" fill="#30144a"/><path d="m501.912 122.748c-13.761-38.108-64.016-42.342-120.675-6.351-37.531 23.841-76.998 50.162-93.08 60.95v35.01c11.203 1.326 34.436 1.799 65.911-9.512 34.732-12.482 69.027-4.919 86.236 13.035 52.141-.162 67.96 36.979 67.96 36.979-21.172-59.37 3.428-103.027-6.352-130.111z" fill="#543e5b"/><path d="m369.869 191.235c-19.785-16.754-15.164-39.021-9.905-51.974 1.207-2.972.652-6.171-1.105-8.516-29.897 19.329-57.812 37.955-70.702 46.602v35.01c11.203 1.325 34.436 1.799 65.911-9.512 6.314-2.269 12.611-3.868 18.795-4.87.063-2.49-.926-4.988-2.994-6.74z" fill="#422953"/><g><path d="m508.263 252.859-2.896-7.317c-6.673-10.39-25.841-32.653-67.152-31.75 5.154 5.386 8.789 11.695 10.416 18.692 5.725 24.62-16.884 32.983-32.027 66.92 34.262 14.035 65.914 14.207 83.19-1.466 21.067-19.111 8.469-45.079 8.469-45.079z" fill="#422953"/></g><path d="m388.585 280.208c-29.603-7.723-77.51-15.178-100.427-39.669v1.824c0 3.153-1.614 6.003-4.317 7.625-1.925 1.154-4.137 1.514-6.255 1.1 11.176 21.818 45.543 83.352 82.128 92.896 40.578 10.586 50.105-16.231 50.105-16.231l2.89-23.508c-2.531-9.909-8.978-20.085-24.124-24.037z" fill="#543e5b"/><path d="m288.157 240.54v1.824c0 3.153-1.614 6.003-4.317 7.625-1.925 1.154-4.136 1.514-6.255 1.1 7.141 13.941 23.75 44.094 44.357 66.542 1.169-1.569 1.816-3.536 1.671-5.647-1.45-21.022 15.113-31.656 25.68-36.266 1.924-.84 3.386-2.287 4.269-4.021-24.398-6.294-50.317-15.033-65.405-31.157z" fill="#422953"/><g><path d="m450.749 232.484c-7.057-30.345-51.516-47.988-96.681-31.757-31.474 11.311-54.708 10.838-65.911 9.513v32.124c0 .269-.028.531-.051.795 22.499 23.63 68.96 30.87 97.718 38.372 31.339 8.176 24.532 43.637 24.024 46.081 12.026-59.144 47.952-64.807 40.901-95.128z" fill="#665364"/></g><path d="m288.157 210.24v32.124c0 .269-.028.531-.051.795 14.936 15.686 40.428 24.147 64.294 30.259 2.038-2.367 2.72-5.742 1.528-8.861-10.931-28.597 5.404-50.104 16.235-60.466 2.298-2.198 3.135-5.333 2.511-8.19-6.125 1.005-12.357 2.58-18.606 4.826-31.474 11.312-54.708 10.839-65.911 9.513z" fill="#543e5b"/></g><g><path d="m52.793 88.061c15.515-55.29 78.381-56.33 101.855-15.477 33.038 57.496 64.899 85.753 75.71 94.345-8.235 2.304-6.26 11.396-6.515 12.535-16.076-10.784-55.543-37.106-93.08-60.95-29.781-18.918-57.784-26.706-79.657-24.319.555-2.084 1.125-4.13 1.687-6.134z" fill="#422953"/><path d="m158.088 127.525c18.018-4.098 17.317-18.021 16.689-22.153-.048-.317-.055-.635-.066-.953 25.189 36.435 47.06 55.686 55.647 62.51-8.235 2.304-6.26 11.396-6.515 12.535-13.017-8.732-41.371-27.652-71.618-47.194 1.079-2.303 3.146-4.127 5.863-4.745z" fill="#30144a"/><path d="m10.088 122.748c13.761-38.108 64.016-42.342 120.675-6.351 37.531 23.841 76.998 50.162 93.08 60.95v35.01c-11.203 1.326-34.437 1.799-65.911-9.512-34.732-12.482-69.027-4.919-86.236 13.035-52.141-.162-67.96 36.979-67.96 36.979 21.172-59.37-3.428-103.027 6.352-130.111z" fill="#543e5b"/><path d="m142.131 191.235c19.785-16.754 15.164-39.021 9.905-51.974-1.206-2.972-.652-6.171 1.104-8.516 29.898 19.329 57.812 37.955 70.702 46.602v35.01c-11.203 1.325-34.437 1.799-65.911-9.512-6.313-2.269-12.611-3.868-18.795-4.87-.062-2.49.927-4.988 2.995-6.74z" fill="#422953"/><g><path d="m3.737 252.859 2.895-7.317c6.673-10.39 25.841-32.653 67.152-31.75-5.154 5.386-8.789 11.695-10.416 18.692-5.725 24.62 16.884 32.983 32.027 66.92-34.262 14.035-65.914 14.207-83.19-1.466-21.066-19.111-8.468-45.079-8.468-45.079z" fill="#422953"/></g><path d="m123.415 280.208c29.603-7.723 77.51-15.178 100.427-39.669v1.824c0 3.153 1.614 6.003 4.317 7.625 1.925 1.154 4.137 1.514 6.255 1.1-11.176 21.818-45.543 83.352-82.128 92.896-40.578 10.586-50.105-16.231-50.105-16.231l-2.89-23.508c2.531-9.909 8.978-20.085 24.124-24.037z" fill="#543e5b"/><path d="m223.843 240.54v1.824c0 3.153 1.614 6.003 4.317 7.625 1.925 1.154 4.136 1.514 6.255 1.1-7.141 13.941-23.75 44.094-44.356 66.542-1.169-1.569-1.816-3.536-1.671-5.647 1.45-21.022-15.113-31.656-25.68-36.266-1.924-.84-3.386-2.287-4.269-4.021 24.397-6.294 50.316-15.033 65.404-31.157z" fill="#422953"/><g><path d="m61.251 232.484c7.057-30.345 51.516-47.988 96.681-31.757 31.474 11.311 54.708 10.838 65.911 9.513v32.124c0 .269.028.531.051.795-22.499 23.63-68.96 30.87-97.718 38.372-31.339 8.176-24.532 43.637-24.024 46.081-12.026-59.144-47.952-64.807-40.901-95.128z" fill="#665364"/></g><path d="m223.843 210.24v32.124c0 .269.028.531.051.795-14.935 15.686-40.428 24.147-64.294 30.259-2.038-2.367-2.72-5.742-1.528-8.861 10.931-28.597-5.404-50.104-16.235-60.466-2.297-2.198-3.135-5.333-2.511-8.19 6.125 1.005 12.357 2.58 18.606 4.826 31.474 11.312 54.708 10.839 65.911 9.513z" fill="#543e5b"/></g><path d="m274.683 166.063c-.774.187-16.51 10.14-35.72.8l-1.645-.8c-6.961-3.385-15.063 1.685-15.063 9.425v66.876c0 7.912 8.431 12.97 15.412 9.248 11.459-6.111 25.209-6.111 36.668 0 6.981 3.723 15.412-1.336 15.412-9.248v-66.876c-.001-7.74-8.103-12.81-15.064-9.425z" fill="#665364"/><g><path d="m255.219 239.21v-60.568c0-3.457 1.789-6.321 4.354-7.973-5.83.572-12.942-.078-20.611-3.807l-1.645-.8c-6.961-3.385-15.063 1.685-15.063 9.425v66.876c0 7.912 8.431 12.97 15.412 9.248 6.833-3.644 14.478-5.097 21.968-4.396-2.593-1.641-4.415-4.511-4.415-8.005z" fill="#543e5b"/></g><g fill="#66e9ff"><path d="m197.18 18.128c-.414 3.891-.637 7.868-.637 11.917 0 45.116 26.62 81.689 59.457 81.689s59.457-36.573 59.457-81.689c0-4.049-.223-8.026-.637-11.917-18.845-4.644-38.541-7.125-58.82-7.125s-39.975 2.48-58.82 7.125z"/><path d="m256 500.998c20.092 0 39.612-2.434 58.296-6.999-5.44-37.407-29.47-65.595-58.296-65.595-28.827 0-52.856 28.188-58.297 65.595 18.685 4.565 38.205 6.999 58.297 6.999z"/></g></g></svg>