<svg id="Layer_1" enable-background="new 0 0 512 512" height="512" viewBox="0 0 512 512" width="512" xmlns="http://www.w3.org/2000/svg"><g><path d="m256 22.004c-135.309 0-244.998 109.689-244.998 244.998 0 112.284 75.538 206.919 178.566 235.877l16.623 4.049c13.4 2.768 27.202 4.428 41.305 4.909h17.009c14.103-.481 27.906-2.142 41.306-4.909l16.622-4.049c103.028-28.958 178.566-123.593 178.566-235.877-.001-135.309-109.691-244.998-244.999-244.998z" fill="#81c66d"/><path d="m110.888 33.34h290.224v358.765h-290.224z" fill="#5aab5f"/><path d="m247.496 511.837c2.824.097 5.656.163 8.504.163s5.681-.066 8.505-.163v-116.798h-17.01v116.798z" fill="#c15655"/><path d="m247.496 494.793c.543-.193 1.067-.443 1.542-.787 2.572-1.865 8.035-4.619 13.873-.116.487.376 1.03.657 1.595.877v-99.727h-17.01z" fill="#ad4949"/><path d="m309.658 405.951c-.613-4.657-4.881-7.929-9.543-7.321-4.657.614-7.935 4.886-7.321 9.543l13.015 98.756c5.614-1.16 11.157-2.513 16.623-4.049z" fill="#e1715a"/><path d="m309.658 405.951c-.613-4.657-4.881-7.929-9.543-7.321-4.656.613-7.934 4.886-7.32 9.542l11.219 85.128c.589-.329 1.131-.748 1.602-1.25 2.418-2.578 7.673-6.216 15.276-.857z" fill="#c15655"/><path d="m211.886 398.63c-4.653-.609-8.93 2.664-9.543 7.321l-12.774 96.928c5.466 1.536 11.009 2.89 16.623 4.049l13.015-98.756c.613-4.656-2.665-8.929-7.321-9.542z" fill="#e1715a"/><path d="m211.886 398.63c-4.653-.609-8.93 2.665-9.543 7.321l-10.987 83.369c.331-.139.655-.299.962-.494 2.271-1.442 8.117-4.025 14.095 2.488.484.527 1.049.961 1.665 1.299l11.128-84.441c.614-4.656-2.664-8.929-7.32-9.542z" fill="#c15655"/><g><path d="m315.819 474.525h-119.638c-4.697 0-8.505-3.807-8.505-8.505s3.808-8.505 8.505-8.505h119.638c4.697 0 8.505 3.807 8.505 8.505 0 4.697-3.808 8.505-8.505 8.505z" fill="#f1935d"/></g><path d="m235.66 466.02c0-4.698 3.808-8.505 8.505-8.505h-47.984c-4.697 0-8.505 3.807-8.505 8.505 0 4.697 3.808 8.505 8.505 8.505h47.984c-4.697 0-8.505-3.808-8.505-8.505z" fill="#e1715a"/><path d="m344.396 66.998h-176.792c-4.515 0-8.176 3.66-8.176 8.176v273.713c0 4.515 3.66 8.176 8.176 8.176h176.792c4.515 0 8.176-3.66 8.176-8.176v-273.713c0-4.516-3.661-8.176-8.176-8.176z" fill="#f1935d"/><path d="m159.428 75.174v273.713c0 4.515 3.661 8.176 8.176 8.176h84.848c-.083-.362-.201-.72-.39-1.06-2.662-4.784-1.299-8.397.173-10.49.915-1.3.905-3.046-.022-4.337-4.583-6.381-1.003-11.613.927-13.716.653-.712 1.027-1.633 1.028-2.6l.027-190.743c0-1.086-.464-2.127-1.282-2.842-13.448-11.756-7.96-25.038-4.467-30.836.97-1.61.649-3.714-.822-4.885-6.282-4.999-4.233-10.459-2.456-13.267.673-1.063.826-2.397.293-3.537-.789-1.69-.436-3.343-.074-4.322.257-.697.274-1.46.091-2.18l-1.337-5.25h-76.537c-4.515 0-8.176 3.66-8.176 8.176z" fill="#e1715a"/><path d="m327.763 89.111h-143.526c-1.489 0-2.696 1.207-2.696 2.696v240.447c0 1.489 1.207 2.696 2.696 2.696h143.526c1.489 0 2.696-1.207 2.696-2.696v-240.448c0-1.488-1.207-2.695-2.696-2.695z" fill="#66e9ff"/><path d="m181.541 91.806v240.447c0 1.489 1.207 2.696 2.696 2.696h65.756c-.031-3.449 1.897-6.128 3.147-7.49.653-.712 1.027-1.633 1.028-2.6l.027-190.743c0-1.086-.464-2.127-1.282-2.842-13.448-11.756-7.96-25.038-4.467-30.836.97-1.61.649-3.714-.822-4.885-2.696-2.145-3.851-4.374-4.158-6.443h-59.228c-1.49.001-2.697 1.208-2.697 2.696z" fill="#23c5ed"/><path d="m206.203 269.916c-.003-.353.36-.592.69-.448l1.297.568 8.188-13.059c.069-.117.149-.225.221-.339l-.822-.013s-12.069 6.441-27.389 11.186c-1.873.58-3.59 1.594-4.978 2.98-.663.662-1.281 1.358-1.869 2.074v59.388c0 1.489 1.207 2.696 2.696 2.696h29.179v-.692c-6.453-33.406-7.153-57.672-7.213-64.341z" fill="#422953"/><path d="m215.777 256.626s-12.069 6.441-27.389 11.186c-1.873.58-3.59 1.594-4.978 2.98-.663.662-1.281 1.358-1.869 2.074v24.857c14.8 0 22.195-6.326 25.472-10.512-.643-8.486-.785-14.472-.811-17.295-.003-.353.36-.592.69-.448l1.297.568 8.188-13.059c.069-.117.149-.225.221-.338z" fill="#30144a"/><path d="m330.459 332.254v-59.16c-.64-.796-1.31-1.571-2.042-2.302-1.388-1.386-3.105-2.399-4.978-2.98-15.32-4.745-27.389-11.186-27.389-11.186l-.818.013c.076.119.159.232.231.354l8.178 13.043 1.297-.568c.224-.098.405-.005.472.039.066.044.22.171.217.409-.06 6.669-.76 30.935-7.213 64.341v.692h29.349c1.489 0 2.696-1.207 2.696-2.695z" fill="#422953"/><path d="m246.898 268.03c3.143 3.277-3.088 6.46.368 9.635 6.857 5.999 8.438 7.348 8.648 7.586.209-.236 1.834-1.623 8.648-7.586 1.028-.944 1.339-2.439.772-3.715-.688-1.846-1.601-2.745-1.228-4.376.24-1.077.904-1.621 1.635-2.398 4.598-4.905 9.508-11.116 11.806-17.406.833-2.28 1.219-4.101 1.375-5.504-1.222-2.723-1.701-7.907-1.803-10.879-5.999 6.987-12.789 11.536-21.99 11.253-8.506-.26-14.841-4.75-20.424-11.253-.093 2.717-.402 6.013-1.197 9.145-.161.634-.384 1.246-.655 1.833.458 4.345 3.099 12.253 14.045 23.665z" fill="#fcad6d"/><path d="m255.13 244.64c-8.506-.26-14.841-4.75-20.424-11.253-.093 2.717-.402 6.013-1.197 9.145-.161.634-.384 1.246-.655 1.834.455 4.319 3.076 12.165 13.865 23.472 7.393-6.018 8.851-17.792 9.119-23.2-.236 0-.468.009-.708.002z" fill="#fd995b"/><path d="m226.618 269.047c0-6.637-.208-13.737 1.961-22.055l1.851-3.025 3.516-3.412c-.306 1.193-1.909 10.938 13.754 27.267.881.919 1.128 2.276.61 3.44l-.997 2.244c-.544 1.225-.246 2.66.741 3.567l8.559 6.168c.644.591 1.01 1.425 1.01 2.299v49.41h-31.005z" fill="#bec8f7"/><path d="m228.579 246.992 1.851-3.025 3.516-3.412c-.019.316-.932 3.022 1.198 8.847 2.454 6.718 7.582 13.219 12.556 18.42.528.551.823 1.26.867 1.989l-10.877 8.767c-2.118 1.707-5.284.939-6.37-1.555-1.481-3.399-3.347-8.546-4.681-15.191.155-6.755 1.162-11.854 1.94-14.84z" fill="#e9efff"/><path d="m207.847 269.279 7.934-12.654c.771-1.305 1.775-2.457 2.963-3.398l11.687-9.261s-2.889 7.344-2.889 19.624l-11.738 9.491z" fill="#422953"/><path d="m285.213 269.047c0-6.637.208-13.737-1.961-22.055l-1.851-3.025-3.516-3.412c.306 1.193 1.909 10.938-13.754 27.267-.881.919-1.128 2.276-.61 3.44l.997 2.244c.544 1.225.246 2.66-.741 3.567l-8.559 6.168c-.644.591-1.01 1.425-1.01 2.299v49.41h31.006v-65.903z" fill="#dae2fe"/><path d="m283.251 246.992-1.851-3.025-3.516-3.412c.019.316.932 3.022-1.197 8.847v.001c-2.454 6.718-7.582 13.219-12.556 18.42-.528.551-.823 1.26-.867 1.989l10.877 8.767c2.118 1.707 5.284.939 6.37-1.555 1.481-3.399 3.347-8.546 4.681-15.191-.155-6.756-1.162-11.855-1.941-14.841z" fill="#e9efff"/><path d="m303.984 269.279-7.934-12.654c-.771-1.305-1.775-2.457-2.963-3.398l-11.687-9.261s2.889 7.344 2.889 19.624l11.738 9.491z" fill="#543e5b"/><path d="m227.541 334.949v-71.359l-10.943 8.417c-.491.377-1.148.457-1.715.209l-7.714-3.383c-.786-.345-1.667.23-1.66 1.089.06 6.674.759 31.22 7.335 65.027z" fill="#543e5b"/><path d="m298.986 334.949c6.575-33.806 7.274-58.352 7.335-65.027.008-.859-.873-1.434-1.66-1.089l-7.714 3.383c-.567.249-1.224.169-1.715-.209l-10.942-8.417v71.359z" fill="#665364"/><path d="m271.106 267.365c-4.936.505-11.385 5.286-11.385 5.286v3.723 3.723s6.449 4.782 11.385 5.286c2.148.22 4.009-1.485 4.009-3.645 0-3.752 0-6.976 0-10.728 0-2.16-1.861-3.864-4.009-3.645z" fill="#ff4155"/><path d="m240.671 267.365c4.936.505 11.385 5.286 11.385 5.286v3.723 3.723s-6.449 4.782-11.385 5.286c-2.148.22-4.009-1.485-4.009-3.645 0-3.752 0-6.976 0-10.728 0-2.16 1.861-3.864 4.009-3.645z" fill="#ff4155"/><path d="m257.134 269.154h-1.765c-3.485 0-6.337 2.852-6.337 6.337v1.765c0 3.485 2.852 6.337 6.337 6.337h1.765c3.485 0 6.337-2.852 6.337-6.337v-1.765c0-3.485-2.852-6.337-6.337-6.337z" fill="#ff7186"/><g><path d="m248.821 132.771c-21.299 2.902-23.323 14.978-23.332 19.408-.002.929-.517 1.79-1.352 2.197-11.079 5.39-5.106 31.365-5.106 31.365 1.113.074 2.277.525 3.146.945.213-1.324.56-2.627 1.05-3.886.374-.96.841-1.929 1.425-2.846 1.013-1.589 1.475-3.465 1.337-5.339-.398-5.419-.206-16.097 6.947-19.315 6.06-2.727 13.493-1.148 18.233.429 3.079 1.024 6.413 1.024 9.492 0 4.74-1.576 12.174-3.155 18.233-.429 7.133 3.209 7.344 13.836 6.95 19.269-.137 1.889.312 3.784 1.333 5.385.603.946 1.081 1.949 1.461 2.938.471 1.231.807 2.503 1.015 3.794 1.095-.53 2.66-1.108 3.998-.919.164-5.68.688-11.803.688-11.803 6.311-30.913-22.585-44.318-45.518-41.193z" fill="#665364"/></g><path d="m250.851 155.627c-.063-.113-.122-.226-.189-.338-8.897-15.002 3.533-22.944 3.533-22.944-1.814.044-3.612.186-5.374.426-21.299 2.902-23.323 14.978-23.333 19.408-.002.929-.517 1.79-1.352 2.197-11.079 5.39-5.106 31.365-5.106 31.365 1.113.074 2.277.525 3.146.945.213-1.324.56-2.627 1.05-3.886.374-.96.841-1.929 1.425-2.846 1.013-1.589 1.475-3.465 1.337-5.339-.398-5.419-.206-16.097 6.947-19.315 5.929-2.668 13.167-1.213 17.916.327z" fill="#543e5b"/><path d="m296.194 186.412c-1.659-1.52-4.963-.75-6.392.181.313 1.949.331 3.943.06 5.912l-1.686 12.28c0 .99-.031 1.961-.089 2.915 4.111 1.24 6.153-2.451 6.498-4.984.148-1.09.39-2.165.726-3.214 1.094-3.415 5.039-9.281.883-13.09z" fill="#fcad6d"/><path d="m292.692 196.749c-1.211 0-2.336-.363-3.278-.982l-1.238 9.018c0 .99-.031 1.961-.089 2.915 4.111 1.24 6.154-2.451 6.498-4.984.148-1.09.39-2.165.726-3.214.428-1.336 1.288-3.048 1.933-4.864-1.096 1.291-2.727 2.111-4.552 2.111z" fill="#fd995b"/><path d="m215.934 186.412c1.659-1.52 4.963-.75 6.392.181-.313 1.949-.331 3.943-.06 5.912l1.686 12.28c0 .99.031 1.961.089 2.915-4.111 1.24-6.153-2.451-6.498-4.984-.148-1.09-.39-2.165-.726-3.214-1.094-3.415-5.039-9.281-.883-13.09z" fill="#fcad6d"/><path d="m222.717 195.79c-.934.605-2.045.959-3.241.959-1.86 0-3.521-.85-4.617-2.183.647 1.843 1.525 3.583 1.958 4.937.336 1.048.578 2.123.726 3.214.344 2.533 2.386 6.224 6.497 4.984-.058-.954-.089-1.926-.089-2.915z" fill="#fd995b"/><path d="m288.884 182.798c-.419-1.093-.918-2.098-1.484-2.986-.968-1.518-1.427-3.373-1.293-5.224.428-5.907.074-16.299-7.105-19.53-6.03-2.712-13.348-1.27-18.425.419-3.007 1.001-6.319 1-9.326 0-5.077-1.689-12.396-3.133-18.425-.419-3.087 1.389-8.115 5.78-7.102 19.577.134 1.818-.327 3.656-1.296 5.178-.55.862-1.037 1.835-1.448 2.891-1.204 3.094-1.594 6.526-1.127 9.928l1.684 12.246c0 20.281 12.271 31.998 17.546 36.094 4.21 3.271 9.478 5.072 14.831 5.072s10.62-1.801 14.831-5.072c5.275-4.096 17.546-15.814 17.543-36.058l1.686-12.28c.462-3.367.086-6.769-1.09-9.836z" fill="#f9ba8f"/><g><path d="m259.249 240.972c-5.275-4.096-17.546-15.814-17.546-36.094l-1.684-12.246c-.467-3.402-.078-6.835 1.127-9.928.411-1.056.898-2.029 1.448-2.891.969-1.521 1.429-3.36 1.296-5.178-.97-13.204 3.589-17.784 6.69-19.372-5.038-1.589-11.984-2.802-17.754-.204-3.087 1.389-8.115 5.78-7.102 19.577.134 1.818-.327 3.656-1.296 5.178-.55.862-1.037 1.835-1.448 2.891-1.204 3.094-1.594 6.526-1.127 9.928l1.684 12.246c0 20.281 12.271 31.998 17.546 36.094 4.21 3.271 9.478 5.072 14.831 5.072 3.123 0 6.211-.63 9.083-1.79-2.05-.83-3.994-1.921-5.748-3.283z" fill="#fcad6d"/></g><g><path d="m327.764 343.454h-143.527c-6.176 0-11.201-5.024-11.201-11.2v-240.448c0-6.176 5.025-11.2 11.201-11.2h143.526c6.176 0 11.2 5.024 11.2 11.2v240.447c.001 6.177-5.023 11.201-11.199 11.201zm-137.718-17.01h131.908v-228.828h-131.908zm137.718-228.828h.011z" fill="#e1715a"/></g><path d="m245.758 80.606h-61.52c-6.176 0-11.201 5.024-11.201 11.2v240.447c0 6.176 5.025 11.201 11.201 11.201h68.67c.02-.798-.207-1.601-.694-2.278-4.583-6.381-1.003-11.613.927-13.716.278-.303.493-.649.663-1.016h-63.757v-228.828h58.849c-.178-.79-.598-1.526-1.271-2.062-6.282-4.999-4.233-10.459-2.456-13.267.324-.515.525-1.093.589-1.681z" fill="#c15655"/><path d="m336.871 318.045c5.765 9.985 20.027 10.396 26.358.761l7.508-11.427c-2.519-.987-4.736-2.793-6.19-5.313-1.454-2.519-1.91-5.342-1.506-8.017l-13.65.789c-11.51.665-18.285 13.222-12.52 23.207z" fill="#f4d99d"/><path d="m387.274 272.966-7.508 11.427c2.519.987 4.735 2.793 6.19 5.313 1.455 2.519 1.911 5.342 1.506 8.017l13.65-.789c11.51-.665 18.284-13.222 12.52-23.207-5.765-9.985-20.027-10.396-26.358-.761z" fill="#fcf4d9"/><path d="m381.432 306.591c-4.521 2.611-10.018 2.021-13.877-1.047l-6.141 12.214c-5.179 10.3 2.309 22.446 13.838 22.446s19.016-12.146 13.838-22.446l-6.143-12.217c-.476.378-.973.737-1.515 1.05z" fill="#fceca9"/><path d="m361.413 274.014 6.143 12.217c.475-.378.973-.737 1.514-1.05 4.522-2.61 10.018-2.021 13.877 1.047l6.141-12.214c5.179-10.3-2.309-22.446-13.838-22.446-11.528 0-19.015 12.146-13.837 22.446z" fill="#fcf4d9"/><path d="m381.432 306.591c-.542.313-1.101.564-1.667.787l7.509 11.428c6.331 9.635 20.593 9.224 26.358-.761 5.764-9.984-1.01-22.542-12.52-23.207l-13.648-.789c.727 4.877-1.511 9.931-6.032 12.542z" fill="#fcf4d9"/><path d="m336.871 273.727c-5.764 9.985 1.011 22.542 12.52 23.207l13.648.789c-.727-4.876 1.511-9.931 6.032-12.541.542-.313 1.101-.564 1.666-.787l-7.509-11.428c-6.33-9.636-20.592-9.225-26.357.76z" fill="#fceca9"/><path d="m98.368 66.477c5.765 9.985 20.027 10.396 26.358.761l7.508-11.427c-2.519-.987-4.736-2.793-6.19-5.313-1.455-2.519-1.911-5.342-1.506-8.017l-13.65.789c-11.51.665-18.284 13.223-12.52 23.207z" fill="#f4d99d"/><path d="m148.771 21.398-7.508 11.427c2.518.987 4.735 2.793 6.19 5.313 1.455 2.519 1.91 5.342 1.506 8.017l13.65-.789c11.51-.665 18.284-13.222 12.52-23.207-5.764-9.984-20.027-10.396-26.358-.761z" fill="#fcf4d9"/><path d="m142.929 55.023c-4.522 2.61-10.018 2.021-13.877-1.047l-6.142 12.214c-5.179 10.3 2.309 22.446 13.838 22.446s19.017-12.146 13.838-22.446l-6.143-12.217c-.475.378-.972.737-1.514 1.05z" fill="#fceca9"/><path d="m122.911 22.446 6.143 12.217c.475-.378.973-.737 1.514-1.05 4.522-2.61 10.018-2.021 13.877 1.047l6.141-12.214c5.179-10.3-2.309-22.446-13.838-22.446-11.528 0-19.016 12.146-13.837 22.446z" fill="#fcf4d9"/><path d="m142.929 55.023c-.542.313-1.101.564-1.667.787l7.508 11.428c6.331 9.635 20.593 9.224 26.358-.761 5.764-9.984-1.011-22.542-12.52-23.207l-13.648-.789c.728 4.877-1.51 9.931-6.031 12.542z" fill="#fcf4d9"/><path d="m98.368 22.159c-5.765 9.985 1.01 22.542 12.52 23.207l13.648.789c-.727-4.876 1.511-9.931 6.032-12.541.542-.313 1.101-.564 1.666-.787l-7.508-11.428c-6.331-9.636-20.593-9.224-26.358.76z" fill="#fceca9"/><path d="m98.368 150.333c5.765 9.985 20.027 10.396 26.358.761l7.508-11.427c-2.519-.987-4.736-2.793-6.19-5.313-1.455-2.519-1.911-5.342-1.506-8.017l-13.65.789c-11.51.665-18.284 13.222-12.52 23.207z" fill="#f4d99d"/><path d="m148.771 105.254-7.508 11.427c2.518.987 4.735 2.793 6.19 5.313 1.455 2.519 1.91 5.342 1.506 8.017l13.65-.789c11.51-.665 18.284-13.222 12.52-23.207-5.764-9.984-20.027-10.396-26.358-.761z" fill="#fcf4d9"/><path d="m142.929 138.879c-4.522 2.61-10.018 2.021-13.877-1.047l-6.141 12.214c-5.179 10.3 2.309 22.446 13.838 22.446s19.017-12.146 13.838-22.446l-6.143-12.217c-.476.378-.973.737-1.515 1.05z" fill="#fceca9"/><path d="m122.911 106.302 6.143 12.217c.475-.378.973-.737 1.514-1.05 4.522-2.61 10.018-2.021 13.877 1.047l6.141-12.214c5.179-10.3-2.309-22.446-13.838-22.446-11.528 0-19.016 12.146-13.837 22.446z" fill="#fcf4d9"/><path d="m142.929 138.879c-.542.313-1.101.564-1.667.787l7.508 11.428c6.331 9.635 20.593 9.224 26.358-.761 5.764-9.984-1.011-22.542-12.52-23.207l-13.648-.789c.728 4.877-1.51 9.931-6.031 12.542z" fill="#fcf4d9"/><path d="m98.368 106.015c-5.765 9.985 1.01 22.542 12.52 23.207l13.648.789c-.727-4.876 1.511-9.931 6.032-12.541.542-.313 1.101-.564 1.666-.787l-7.508-11.428c-6.331-9.636-20.593-9.224-26.358.76z" fill="#fceca9"/><path d="m98.368 234.189c5.765 9.985 20.027 10.396 26.358.761l7.508-11.427c-2.519-.987-4.736-2.793-6.19-5.313-1.455-2.519-1.911-5.342-1.506-8.017l-13.65.789c-11.51.665-18.284 13.222-12.52 23.207z" fill="#f4d99d"/><path d="m148.771 189.11-7.508 11.427c2.518.987 4.735 2.793 6.19 5.313 1.455 2.519 1.91 5.342 1.506 8.017l13.65-.789c11.51-.665 18.284-13.222 12.52-23.207-5.764-9.984-20.027-10.396-26.358-.761z" fill="#fcf4d9"/><path d="m142.929 222.735c-4.522 2.61-10.018 2.021-13.877-1.047l-6.141 12.214c-5.179 10.3 2.309 22.446 13.838 22.446s19.017-12.146 13.838-22.446l-6.143-12.217c-.476.378-.973.737-1.515 1.05z" fill="#fceca9"/><path d="m122.911 190.158 6.143 12.217c.475-.378.973-.737 1.514-1.05 4.522-2.61 10.018-2.021 13.877 1.047l6.141-12.214c5.179-10.3-2.309-22.446-13.838-22.446-11.528 0-19.016 12.146-13.837 22.446z" fill="#fcf4d9"/><path d="m142.929 222.735c-.542.313-1.101.564-1.667.787l7.508 11.428c6.331 9.635 20.593 9.224 26.358-.761 5.764-9.984-1.011-22.542-12.52-23.207l-13.648-.789c.728 4.877-1.51 9.931-6.031 12.542z" fill="#fcf4d9"/><path d="m98.368 189.871c-5.765 9.985 1.01 22.542 12.52 23.207l13.648.789c-.727-4.876 1.511-9.931 6.032-12.541.542-.313 1.101-.564 1.666-.787l-7.508-11.428c-6.331-9.636-20.593-9.224-26.358.76z" fill="#fceca9"/><g fill="#fcf4d9"><ellipse cx="136.749" cy="295.886" rx="13.265" ry="13.265" transform="matrix(.144 -.99 .99 .144 -175.733 388.645)"/><path d="m98.368 318.045c5.765 9.985 20.027 10.396 26.358.761l7.508-11.427c-2.519-.987-4.736-2.793-6.19-5.313-1.455-2.519-1.911-5.342-1.506-8.017l-13.65.789c-11.51.665-18.284 13.222-12.52 23.207z"/><path d="m148.771 272.966-7.508 11.427c2.518.987 4.735 2.793 6.19 5.313 1.455 2.519 1.91 5.342 1.506 8.017l13.65-.789c11.51-.665 18.284-13.222 12.52-23.207s-20.027-10.396-26.358-.761z"/><path d="m142.929 306.591c-4.522 2.611-10.018 2.021-13.877-1.047l-6.141 12.214c-5.179 10.3 2.309 22.446 13.838 22.446s19.017-12.146 13.838-22.446l-6.143-12.217c-.476.378-.973.737-1.515 1.05z"/><path d="m122.911 274.014 6.143 12.217c.475-.378.973-.737 1.514-1.05 4.522-2.61 10.018-2.021 13.877 1.047l6.141-12.214c5.179-10.3-2.309-22.446-13.838-22.446-11.528 0-19.016 12.146-13.837 22.446z"/><path d="m142.929 306.591c-.542.313-1.101.564-1.667.787l7.508 11.428c6.331 9.635 20.593 9.224 26.358-.761 5.764-9.984-1.011-22.542-12.52-23.207l-13.648-.789c.728 4.877-1.51 9.931-6.031 12.542z"/><path d="m98.368 273.727c-5.765 9.985 1.01 22.542 12.52 23.207l13.648.789c-.727-4.876 1.511-9.931 6.032-12.541.542-.313 1.101-.564 1.666-.787l-7.508-11.428c-6.331-9.636-20.593-9.225-26.358.76z"/></g><path d="m336.871 66.477c5.765 9.985 20.027 10.396 26.358.761l7.508-11.427c-2.519-.987-4.736-2.793-6.19-5.313-1.454-2.519-1.91-5.342-1.506-8.017l-13.65.789c-11.51.665-18.285 13.223-12.52 23.207z" fill="#f4d99d"/><path d="m387.274 21.398-7.508 11.427c2.519.987 4.735 2.793 6.19 5.313 1.455 2.519 1.911 5.342 1.506 8.017l13.65-.789c11.51-.665 18.284-13.222 12.52-23.207-5.765-9.984-20.027-10.396-26.358-.761z" fill="#fcf4d9"/><path d="m381.432 55.023c-4.521 2.61-10.018 2.021-13.877-1.047l-6.141 12.214c-5.179 10.3 2.309 22.446 13.838 22.446s19.016-12.146 13.838-22.446l-6.143-12.217c-.476.378-.973.737-1.515 1.05z" fill="#fceca9"/><path d="m361.413 22.446 6.143 12.217c.475-.378.973-.737 1.514-1.05 4.522-2.61 10.018-2.021 13.877 1.047l6.141-12.214c5.18-10.3-2.308-22.446-13.837-22.446s-19.016 12.146-13.838 22.446z" fill="#fcf4d9"/><path d="m381.432 55.023c-.542.313-1.101.564-1.667.787l7.509 11.428c6.331 9.635 20.593 9.224 26.358-.761 5.764-9.984-1.01-22.542-12.52-23.207l-13.648-.789c.727 4.877-1.511 9.931-6.032 12.542z" fill="#fcf4d9"/><path d="m336.871 22.159c-5.764 9.985 1.011 22.542 12.52 23.207l13.648.789c-.727-4.876 1.511-9.931 6.032-12.541.542-.313 1.101-.564 1.666-.787l-7.509-11.428c-6.33-9.636-20.592-9.224-26.357.76z" fill="#fceca9"/><path d="m257.37 66.477c5.765 9.985 20.027 10.396 26.358.761l7.508-11.427c-2.519-.987-4.735-2.793-6.19-5.313-1.455-2.519-1.91-5.342-1.506-8.017l-13.65.789c-11.51.665-18.285 13.223-12.52 23.207z" fill="#f4d99d"/><path d="m307.773 21.398-7.508 11.427c2.519.987 4.735 2.793 6.19 5.313 1.454 2.519 1.91 5.342 1.506 8.017l13.65-.789c11.51-.665 18.285-13.222 12.52-23.207-5.765-9.984-20.027-10.396-26.358-.761z" fill="#fcf4d9"/><path d="m301.931 55.023c-4.522 2.61-10.018 2.021-13.877-1.047l-6.141 12.214c-5.179 10.3 2.309 22.446 13.838 22.446s19.016-12.146 13.838-22.446l-6.143-12.217c-.476.378-.973.737-1.515 1.05z" fill="#fceca9"/><path d="m281.913 22.446 6.143 12.217c.475-.378.973-.737 1.515-1.05 4.521-2.61 10.018-2.021 13.877 1.047l6.141-12.214c5.178-10.3-2.31-22.446-13.838-22.446-11.53 0-19.017 12.146-13.838 22.446z" fill="#fcf4d9"/><path d="m301.931 55.023c-.542.313-1.101.564-1.667.787l7.508 11.428c6.331 9.635 20.593 9.224 26.358-.761 5.764-9.984-1.01-22.542-12.52-23.207l-13.648-.789c.728 4.877-1.51 9.931-6.031 12.542z" fill="#fcf4d9"/><path d="m257.37 22.159c-5.765 9.985 1.01 22.542 12.52 23.207l13.648.789c-.727-4.876 1.511-9.931 6.032-12.541.542-.313 1.101-.564 1.666-.787l-7.508-11.428c-6.331-9.636-20.593-9.224-26.358.76z" fill="#fceca9"/><path d="m177.869 66.477c5.765 9.985 20.027 10.396 26.358.761l7.508-11.427c-2.519-.987-4.736-2.793-6.19-5.313-1.455-2.519-1.911-5.342-1.506-8.017l-13.65.789c-11.51.665-18.285 13.223-12.52 23.207z" fill="#f4d99d"/><path d="m228.272 21.398-7.508 11.427c2.519.987 4.735 2.793 6.19 5.313 1.455 2.519 1.911 5.342 1.506 8.017l13.65-.789c11.51-.665 18.284-13.222 12.52-23.207-5.765-9.984-20.027-10.396-26.358-.761z" fill="#fcf4d9"/><path d="m222.43 55.023c-4.522 2.61-10.018 2.021-13.877-1.047l-6.141 12.214c-5.179 10.3 2.309 22.446 13.838 22.446s19.016-12.146 13.838-22.446l-6.143-12.217c-.476.378-.973.737-1.515 1.05z" fill="#fceca9"/><path d="m202.412 22.446 6.143 12.217c.475-.378.973-.737 1.514-1.05 4.522-2.61 10.018-2.021 13.877 1.047l6.141-12.214c5.179-10.3-2.308-22.446-13.838-22.446-11.528 0-19.016 12.146-13.837 22.446z" fill="#fcf4d9"/><path d="m222.43 55.023c-.542.313-1.101.564-1.667.787l7.509 11.428c6.331 9.635 20.593 9.224 26.358-.761 5.764-9.984-1.01-22.542-12.52-23.207l-13.648-.789c.727 4.877-1.511 9.931-6.032 12.542z" fill="#fcf4d9"/><path d="m177.869 22.159c-5.764 9.985 1.01 22.542 12.52 23.207l13.648.789c-.727-4.876 1.51-9.931 6.032-12.541.542-.313 1.101-.564 1.667-.787l-7.509-11.428c-6.331-9.636-20.593-9.224-26.358.76z" fill="#fceca9"/><path d="m336.871 150.333c5.765 9.985 20.027 10.396 26.358.761l7.508-11.427c-2.519-.987-4.736-2.793-6.19-5.313-1.454-2.519-1.91-5.342-1.506-8.017l-13.65.789c-11.51.665-18.285 13.222-12.52 23.207z" fill="#f4d99d"/><path d="m387.274 105.254-7.508 11.427c2.519.987 4.735 2.793 6.19 5.313 1.455 2.519 1.911 5.342 1.506 8.017l13.65-.789c11.51-.665 18.284-13.222 12.52-23.207-5.765-9.984-20.027-10.396-26.358-.761z" fill="#fcf4d9"/><path d="m381.432 138.879c-4.521 2.61-10.018 2.021-13.877-1.047l-6.141 12.214c-5.179 10.3 2.309 22.446 13.838 22.446s19.016-12.146 13.838-22.446l-6.143-12.217c-.476.378-.973.737-1.515 1.05z" fill="#fceca9"/><path d="m361.413 106.302 6.143 12.217c.475-.378.973-.737 1.514-1.05 4.522-2.61 10.018-2.021 13.877 1.047l6.141-12.214c5.179-10.3-2.309-22.446-13.838-22.446-11.528 0-19.015 12.146-13.837 22.446z" fill="#fcf4d9"/><path d="m381.432 138.879c-.542.313-1.101.564-1.667.787l7.509 11.428c6.331 9.635 20.593 9.224 26.358-.761 5.764-9.984-1.01-22.542-12.52-23.207l-13.648-.789c.727 4.877-1.511 9.931-6.032 12.542z" fill="#fcf4d9"/><path d="m336.871 106.015c-5.764 9.985 1.011 22.542 12.52 23.207l13.648.789c-.727-4.876 1.511-9.931 6.032-12.541.542-.313 1.101-.564 1.666-.787l-7.509-11.428c-6.33-9.636-20.592-9.224-26.357.76z" fill="#fceca9"/><path d="m336.871 234.189c5.765 9.985 20.027 10.396 26.358.761l7.508-11.427c-2.519-.987-4.736-2.793-6.19-5.313-1.454-2.519-1.91-5.342-1.506-8.017l-13.65.789c-11.51.665-18.285 13.222-12.52 23.207z" fill="#f4d99d"/><path d="m387.274 189.11-7.508 11.427c2.519.987 4.735 2.793 6.19 5.313 1.455 2.519 1.911 5.342 1.506 8.017l13.65-.789c11.51-.665 18.284-13.222 12.52-23.207-5.765-9.984-20.027-10.396-26.358-.761z" fill="#fcf4d9"/><path d="m381.432 222.735c-4.521 2.61-10.018 2.021-13.877-1.047l-6.141 12.214c-5.179 10.3 2.309 22.446 13.838 22.446s19.016-12.146 13.838-22.446l-6.143-12.217c-.476.378-.973.737-1.515 1.05z" fill="#fceca9"/><path d="m361.413 190.158 6.143 12.217c.475-.378.973-.737 1.514-1.05 4.522-2.61 10.018-2.021 13.877 1.047l6.141-12.214c5.179-10.3-2.309-22.446-13.838-22.446-11.528 0-19.015 12.146-13.837 22.446z" fill="#fcf4d9"/><path d="m381.432 222.735c-.542.313-1.101.564-1.667.787l7.509 11.428c6.331 9.635 20.593 9.224 26.358-.761 5.764-9.984-1.01-22.542-12.52-23.207l-13.648-.789c.727 4.877-1.511 9.931-6.032 12.542z" fill="#fcf4d9"/><path d="m336.871 189.871c-5.764 9.985 1.011 22.542 12.52 23.207l13.648.789c-.727-4.876 1.511-9.931 6.032-12.541.542-.313 1.101-.564 1.666-.787l-7.509-11.428c-6.33-9.636-20.592-9.224-26.357.76z" fill="#fceca9"/><path d="m98.368 318.045c5.765 9.985 20.027 10.396 26.358.761l7.508-11.427c-2.519-.987-4.736-2.793-6.19-5.313-1.455-2.519-1.911-5.342-1.506-8.017l-13.65.789c-11.51.665-18.284 13.222-12.52 23.207z" fill="#f4d99d"/><path d="m148.771 272.966-7.508 11.427c2.518.987 4.735 2.793 6.19 5.313 1.455 2.519 1.91 5.342 1.506 8.017l13.65-.789c11.51-.665 18.284-13.222 12.52-23.207s-20.027-10.396-26.358-.761z" fill="#fcf4d9"/><path d="m142.929 306.591c-4.522 2.611-10.018 2.021-13.877-1.047l-6.141 12.214c-5.179 10.3 2.309 22.446 13.838 22.446s19.017-12.146 13.838-22.446l-6.143-12.217c-.476.378-.973.737-1.515 1.05z" fill="#fceca9"/><path d="m122.911 274.014 6.143 12.217c.475-.378.973-.737 1.514-1.05 4.522-2.61 10.018-2.021 13.877 1.047l6.141-12.214c5.179-10.3-2.309-22.446-13.838-22.446-11.528 0-19.016 12.146-13.837 22.446z" fill="#fcf4d9"/><path d="m142.929 306.591c-.542.313-1.101.564-1.667.787l7.508 11.428c6.331 9.635 20.593 9.224 26.358-.761 5.764-9.984-1.011-22.542-12.52-23.207l-13.648-.789c.728 4.877-1.51 9.931-6.031 12.542z" fill="#fcf4d9"/><path d="m98.368 273.727c-5.765 9.985 1.01 22.542 12.52 23.207l13.648.789c-.727-4.876 1.511-9.931 6.032-12.541.542-.313 1.101-.564 1.666-.787l-7.508-11.428c-6.331-9.636-20.593-9.225-26.358.76z" fill="#fceca9"/><path d="m98.368 401.901c5.765 9.985 20.027 10.396 26.358.761l7.508-11.427c-2.519-.987-4.736-2.793-6.19-5.313-1.455-2.519-1.911-5.342-1.506-8.017l-13.65.789c-11.51.665-18.284 13.223-12.52 23.207z" fill="#f4d99d"/><path d="m148.771 356.822-7.508 11.427c2.518.987 4.735 2.793 6.19 5.313 1.455 2.519 1.91 5.342 1.506 8.017l13.65-.789c11.51-.665 18.284-13.222 12.52-23.207-5.764-9.984-20.027-10.396-26.358-.761z" fill="#fcf4d9"/><path d="m142.929 390.447c-4.522 2.611-10.018 2.021-13.877-1.047l-6.141 12.214c-5.179 10.3 2.309 22.446 13.838 22.446s19.017-12.146 13.838-22.446l-6.143-12.217c-.476.378-.973.737-1.515 1.05z" fill="#fceca9"/><path d="m122.911 357.87 6.143 12.217c.475-.378.973-.737 1.514-1.05 4.522-2.611 10.018-2.021 13.877 1.047l6.141-12.214c5.179-10.3-2.309-22.446-13.838-22.446-11.528 0-19.016 12.146-13.837 22.446z" fill="#fcf4d9"/><path d="m142.929 390.447c-.542.313-1.101.564-1.667.787l7.508 11.428c6.331 9.635 20.593 9.223 26.358-.761 5.764-9.984-1.011-22.542-12.52-23.207l-13.648-.789c.728 4.877-1.51 9.931-6.031 12.542z" fill="#fcf4d9"/><path d="m98.368 357.583c-5.765 9.985 1.01 22.542 12.52 23.207l13.648.789c-.727-4.876 1.511-9.931 6.032-12.541.542-.313 1.101-.564 1.666-.787l-7.508-11.428c-6.331-9.636-20.593-9.224-26.358.76z" fill="#fceca9"/><path d="m257.37 401.901c5.765 9.985 20.027 10.396 26.358.761l7.508-11.427c-2.519-.987-4.735-2.793-6.19-5.313-1.455-2.519-1.91-5.342-1.506-8.017l-13.65.789c-11.51.665-18.285 13.223-12.52 23.207z" fill="#f4d99d"/><path d="m307.773 356.822-7.508 11.427c2.519.987 4.735 2.793 6.19 5.313 1.454 2.519 1.91 5.342 1.506 8.017l13.65-.789c11.51-.665 18.285-13.222 12.52-23.207-5.765-9.984-20.027-10.396-26.358-.761z" fill="#fcf4d9"/><path d="m301.931 390.447c-4.522 2.611-10.018 2.021-13.877-1.047l-6.141 12.214c-5.179 10.3 2.309 22.446 13.838 22.446s19.016-12.146 13.838-22.446l-6.143-12.217c-.476.378-.973.737-1.515 1.05z" fill="#fceca9"/><path d="m281.913 357.87 6.143 12.217c.475-.378.973-.737 1.515-1.05 4.521-2.611 10.018-2.021 13.877 1.047l6.141-12.214c5.179-10.3-2.309-22.446-13.838-22.446-11.53 0-19.017 12.146-13.838 22.446z" fill="#fcf4d9"/><path d="m301.931 390.447c-.542.313-1.101.564-1.667.787l7.508 11.428c6.331 9.635 20.593 9.223 26.358-.761 5.764-9.984-1.01-22.542-12.52-23.207l-13.648-.789c.728 4.877-1.51 9.931-6.031 12.542z" fill="#fcf4d9"/><path d="m257.37 357.583c-5.765 9.985 1.01 22.542 12.52 23.207l13.648.789c-.727-4.876 1.511-9.931 6.032-12.541.542-.313 1.101-.564 1.666-.787l-7.508-11.428c-6.331-9.636-20.593-9.224-26.358.76z" fill="#fceca9"/><path d="m177.869 401.901c5.765 9.985 20.027 10.396 26.358.761l7.508-11.427c-2.519-.987-4.736-2.793-6.19-5.313-1.455-2.519-1.911-5.342-1.506-8.017l-13.65.789c-11.51.665-18.285 13.223-12.52 23.207z" fill="#f4d99d"/><path d="m228.272 356.822-7.508 11.427c2.519.987 4.735 2.793 6.19 5.313 1.455 2.519 1.911 5.342 1.506 8.017l13.65-.789c11.51-.665 18.284-13.222 12.52-23.207-5.765-9.984-20.027-10.396-26.358-.761z" fill="#fcf4d9"/><path d="m222.43 390.447c-4.522 2.611-10.018 2.021-13.877-1.047l-6.141 12.214c-5.179 10.3 2.309 22.446 13.838 22.446s19.016-12.146 13.838-22.446l-6.143-12.217c-.476.378-.973.737-1.515 1.05z" fill="#fceca9"/><path d="m202.412 357.87 6.143 12.217c.475-.378.973-.737 1.514-1.05 4.522-2.611 10.018-2.021 13.877 1.047l6.141-12.214c5.179-10.3-2.309-22.446-13.838-22.446-11.528 0-19.016 12.146-13.837 22.446z" fill="#fcf4d9"/><path d="m222.43 390.447c-.542.313-1.101.564-1.667.787l7.509 11.428c6.331 9.635 20.593 9.223 26.358-.761 5.764-9.984-1.01-22.542-12.52-23.207l-13.648-.789c.727 4.877-1.511 9.931-6.032 12.542z" fill="#fcf4d9"/><path d="m177.869 357.583c-5.764 9.985 1.01 22.542 12.52 23.207l13.648.789c-.727-4.876 1.51-9.931 6.032-12.541.542-.313 1.101-.564 1.667-.787l-7.509-11.428c-6.331-9.636-20.593-9.224-26.358.76z" fill="#fceca9"/><path d="m336.871 401.901c5.765 9.985 20.027 10.396 26.358.761l7.508-11.427c-2.519-.987-4.736-2.793-6.19-5.313-1.454-2.519-1.91-5.342-1.506-8.017l-13.65.789c-11.51.665-18.285 13.223-12.52 23.207z" fill="#f4d99d"/><path d="m387.274 356.822-7.508 11.427c2.519.987 4.735 2.793 6.19 5.313 1.455 2.519 1.911 5.342 1.506 8.017l13.65-.789c11.51-.665 18.284-13.222 12.52-23.207-5.765-9.984-20.027-10.396-26.358-.761z" fill="#fcf4d9"/><path d="m381.432 390.447c-4.521 2.611-10.018 2.021-13.877-1.047l-6.141 12.214c-5.179 10.3 2.309 22.446 13.838 22.446s19.016-12.146 13.838-22.446l-6.143-12.217c-.476.378-.973.737-1.515 1.05z" fill="#fceca9"/><path d="m361.413 357.87 6.143 12.217c.475-.378.973-.737 1.514-1.05 4.522-2.611 10.018-2.021 13.877 1.047l6.141-12.214c5.179-10.3-2.309-22.446-13.838-22.446-11.528 0-19.015 12.146-13.837 22.446z" fill="#fcf4d9"/><path d="m381.432 390.447c-.542.313-1.101.564-1.667.787l7.509 11.428c6.331 9.635 20.593 9.223 26.358-.761 5.764-9.984-1.01-22.542-12.52-23.207l-13.648-.789c.727 4.877-1.511 9.931-6.032 12.542z" fill="#fcf4d9"/><path d="m336.871 357.583c-5.764 9.985 1.011 22.542 12.52 23.207l13.648.789c-.727-4.876 1.511-9.931 6.032-12.541.542-.313 1.101-.564 1.666-.787l-7.509-11.428c-6.33-9.636-20.592-9.224-26.357.76z" fill="#fceca9"/><path d="m368.619 32.83c6.345-3.663 14.457-1.489 18.12 4.855 3.663 6.345 1.489 14.458-4.855 18.121-6.345 3.663-14.458 1.489-18.121-4.855-3.663-6.345-1.489-14.458 4.856-18.121z" fill="#ffdd40"/><path d="m368.619 32.83c6.345-3.663 14.457-1.489 18.12 4.855 3.663 6.345 1.489 14.458-4.855 18.121-6.345 3.663-14.458 1.489-18.121-4.855-3.663-6.345-1.489-14.458 4.856-18.121z" fill="#ffc839"/><path d="m373.803 35.485c2.932-1.693 6.681-.688 8.374 2.244s.688 6.681-2.244 8.374-6.681.688-8.374-2.244-.688-6.681 2.244-8.374z" fill="#ffdd40"/><path d="m289.118 32.83c6.345-3.663 14.457-1.489 18.121 4.855 3.663 6.345 1.489 14.458-4.855 18.121-6.345 3.663-14.457 1.489-18.121-4.855-3.664-6.345-1.49-14.458 4.855-18.121z" fill="#ffc839"/><path d="m294.302 35.485c2.932-1.693 6.681-.688 8.374 2.244s.688 6.681-2.244 8.374-6.681.688-8.374-2.244-.688-6.681 2.244-8.374z" fill="#ffdd40"/><path d="m209.617 32.83c6.345-3.663 14.457-1.489 18.12 4.855 3.663 6.345 1.489 14.458-4.855 18.121-6.345 3.663-14.458 1.489-18.12-4.855-3.664-6.345-1.49-14.458 4.855-18.121z" fill="#ffc839"/><path d="m214.801 35.485c2.932-1.693 6.681-.688 8.374 2.244s.688 6.681-2.244 8.374-6.681.688-8.374-2.244-.688-6.681 2.244-8.374z" fill="#ffdd40"/><path d="m130.116 32.83c6.345-3.663 14.457-1.489 18.12 4.855 3.663 6.345 1.489 14.458-4.855 18.121-6.345 3.663-14.458 1.489-18.12-4.855-3.664-6.345-1.49-14.458 4.855-18.121z" fill="#ffc839"/><path d="m135.3 35.485c2.932-1.693 6.681-.688 8.374 2.244s.688 6.681-2.244 8.374-6.681.688-8.374-2.244-.688-6.681 2.244-8.374z" fill="#ffdd40"/><path d="m130.116 116.686c6.345-3.663 14.458-1.489 18.12 4.855 3.663 6.345 1.489 14.458-4.855 18.121-6.345 3.663-14.458 1.489-18.121-4.855-3.663-6.345-1.489-14.458 4.856-18.121z" fill="#ffc839"/><path d="m135.3 119.341c2.932-1.693 6.681-.688 8.374 2.244s.688 6.681-2.244 8.374-6.681.688-8.374-2.244-.688-6.681 2.244-8.374z" fill="#ffdd40"/><path d="m130.116 200.542c6.345-3.663 14.458-1.489 18.12 4.855 3.663 6.345 1.489 14.458-4.855 18.121-6.345 3.663-14.458 1.489-18.121-4.855-3.663-6.345-1.489-14.458 4.856-18.121z" fill="#ffc839"/><path d="m135.3 203.197c2.932-1.693 6.681-.688 8.374 2.244s.688 6.681-2.244 8.374-6.681.688-8.374-2.244-.688-6.681 2.244-8.374z" fill="#ffdd40"/><path d="m130.059 284.3c6.345-3.663 14.457-1.489 18.12 4.855 3.663 6.345 1.489 14.458-4.855 18.121-6.345 3.663-14.457 1.489-18.121-4.855-3.662-6.345-1.489-14.458 4.856-18.121z" fill="#ffc839"/><path d="m135.243 286.955c2.932-1.693 6.681-.688 8.374 2.244s.688 6.681-2.244 8.374-6.681.688-8.374-2.244c-1.692-2.932-.688-6.681 2.244-8.374z" fill="#ffdd40"/><path d="m130.116 368.254c6.345-3.663 14.458-1.489 18.12 4.855 3.663 6.345 1.489 14.458-4.855 18.121-6.345 3.663-14.458 1.489-18.121-4.855-3.663-6.345-1.489-14.458 4.856-18.121z" fill="#ffc839"/><path d="m135.3 370.909c2.932-1.693 6.681-.688 8.374 2.244s.688 6.681-2.244 8.374-6.681.688-8.374-2.244-.688-6.681 2.244-8.374z" fill="#ffdd40"/><path d="m368.619 368.254c6.345-3.663 14.457-1.489 18.12 4.855 3.663 6.345 1.489 14.458-4.855 18.121-6.345 3.663-14.458 1.489-18.121-4.855-3.663-6.345-1.489-14.458 4.856-18.121z" fill="#ffc839"/><path d="m373.803 370.909c2.932-1.693 6.681-.688 8.374 2.244s.688 6.681-2.244 8.374-6.681.688-8.374-2.244-.688-6.681 2.244-8.374z" fill="#ffdd40"/><path d="m289.118 368.254c6.345-3.663 14.458-1.489 18.121 4.855 3.663 6.345 1.489 14.458-4.855 18.121-6.345 3.663-14.457 1.489-18.121-4.855-3.664-6.345-1.49-14.458 4.855-18.121z" fill="#ffc839"/><path d="m294.302 370.909c2.932-1.693 6.681-.688 8.374 2.244s.688 6.681-2.244 8.374-6.681.688-8.374-2.244-.688-6.681 2.244-8.374z" fill="#ffdd40"/><path d="m209.617 368.254c6.345-3.663 14.458-1.489 18.12 4.855 3.663 6.345 1.489 14.458-4.855 18.121-6.345 3.663-14.458 1.489-18.121-4.855-3.663-6.345-1.489-14.458 4.856-18.121z" fill="#ffc839"/><path d="m214.801 370.909c2.932-1.693 6.681-.688 8.374 2.244s.688 6.681-2.244 8.374-6.681.688-8.374-2.244-.688-6.681 2.244-8.374z" fill="#ffdd40"/><path d="m368.647 116.699c6.345-3.663 14.458-1.489 18.121 4.855 3.663 6.345 1.489 14.458-4.855 18.121s-14.457 1.489-18.121-4.855c-3.663-6.345-1.49-14.458 4.855-18.121z" fill="#ffc839"/><path d="m373.831 119.354c2.932-1.693 6.681-.688 8.374 2.244s.688 6.681-2.244 8.374-6.681.688-8.374-2.244c-1.692-2.932-.688-6.681 2.244-8.374z" fill="#ffdd40"/><path d="m368.647 200.555c6.345-3.663 14.458-1.489 18.121 4.855 3.663 6.345 1.489 14.458-4.855 18.121-6.345 3.663-14.457 1.489-18.121-4.856-3.663-6.344-1.49-14.457 4.855-18.12z" fill="#ffc839"/><path d="m373.831 203.21c2.932-1.693 6.681-.688 8.374 2.244s.688 6.681-2.244 8.374-6.681.688-8.374-2.244c-1.692-2.932-.688-6.681 2.244-8.374z" fill="#ffdd40"/><path d="m368.59 284.313c6.345-3.663 14.458-1.489 18.121 4.855 3.663 6.345 1.489 14.458-4.855 18.121-6.345 3.663-14.457 1.489-18.121-4.855-3.663-6.345-1.489-14.458 4.855-18.121z" fill="#ffc839"/><path d="m373.775 286.968c2.932-1.693 6.681-.688 8.374 2.244s.688 6.681-2.244 8.374-6.681.688-8.374-2.244-.689-6.681 2.244-8.374z" fill="#ffdd40"/></g></svg>