<svg id="Layer_1" enable-background="new 0 0 512 512" height="512" viewBox="0 0 512 512" width="512" xmlns="http://www.w3.org/2000/svg"><g><path d="m437.047 432.061c39.723-43.546 63.951-101.472 63.951-165.059 0-135.309-109.689-244.998-244.998-244.998s-244.998 109.69-244.998 244.998c0 63.587 24.228 121.513 63.951 165.059z" fill="#66e9ff"/><g><path d="m345.104 133.584h63.828c4.384 0 8.682.53 12.842 1.498-.823-1.599-1.439-3.317-1.752-5.139-1.775-10.348-7.08-20.144-15.753-27.422-8.692-7.293-19.288-10.816-29.808-10.751-6.418.039-12.361-3.439-15.545-9.013-5.207-9.117-13.543-16.51-24.183-20.382-10.639-3.873-21.775-3.569-31.624.068-6.045 2.232-12.84 1.034-17.757-3.131-8.01-6.786-18.371-10.88-29.692-10.88-11.322 0-21.682 4.095-29.693 10.88-4.917 4.165-11.712 5.363-17.756 3.131-9.849-3.637-20.985-3.941-31.624-.068-10.64 3.872-18.976 11.265-24.182 20.382-3.183 5.574-9.126 9.052-15.545 9.013-10.521-.065-21.117 3.458-29.808 10.751-8.673 7.278-13.978 17.074-15.753 27.422-.217 1.267-.602 2.476-1.072 3.642 100.543-.001 254.877-.001 254.877-.001z" fill="#81c66d"/></g><path d="m313.659 4.151c14.68 1.856 27.36-1.687 33.738-4.027 1.591-.583 3.126.99 2.509 2.568-5.739 14.693-6.534 30.115-6.534 30.115-3.057 36.321-36.914 36.1-52.176 34.115-4.547-.591-8.185-4.101-8.883-8.633-4.813-31.239 11.715-56.62 31.346-54.138z" fill="#81c66d"/><path d="m344.098 25.868c-35.496 10.665-40.133-19.876-40.239-20.604-14.901 5.369-25.527 27.184-21.545 53.025.698 4.531 4.336 8.041 8.883 8.632 15.262 1.984 49.119 2.206 52.176-34.115 0 .001.141-2.712.725-6.938z" fill="#5aab5f"/><path d="m196.209 4.151c-14.68 1.856-27.36-1.687-33.738-4.027-1.591-.583-3.126.99-2.509 2.568 5.739 14.693 6.534 30.115 6.534 30.115 3.057 36.321 36.914 36.1 52.176 34.115 4.547-.591 8.185-4.101 8.883-8.633 4.813-31.239-11.715-56.62-31.346-54.138z" fill="#81c66d"/><path d="m205.967 5.249c-4.393 35.8-39.471 27.558-39.471 27.558 3.057 36.321 36.914 36.1 52.176 34.115 4.546-.591 8.185-4.101 8.883-8.632 3.985-25.866-6.665-47.698-21.588-53.041z" fill="#5aab5f"/><path d="m255.66 5.231c-13.728 0-22.645 14.463-16.478 26.728l7.314 14.546c2.517-2.01 5.7-3.221 9.164-3.221s6.647 1.211 9.164 3.221l7.314-14.546c6.167-12.265-2.749-26.728-16.478-26.728z" fill="#fcf4d9"/><path d="m272.138 84.048-7.314-14.546c-2.517 2.01-5.7 3.22-9.164 3.22s-6.647-1.211-9.164-3.22l-7.314 14.546c-6.167 12.265 2.749 26.728 16.478 26.728s22.645-14.463 16.478-26.728z" fill="#fceca9"/><path d="m240.942 58.004c0-6.217 3.88-11.534 9.342-13.688l-8.939-13.605c-7.538-11.473-24.521-10.983-31.386.906-6.864 11.889 1.203 26.842 14.909 27.634l16.256.939c-.109-.715-.182-1.441-.182-2.186z" fill="#fceca9"/><path d="m286.454 56.756-16.256-.939c.107.715.181 1.442.181 2.187 0 6.217-3.88 11.534-9.342 13.687l8.939 13.605c7.538 11.473 24.522 10.983 31.386-.906 6.865-11.889-1.202-26.842-14.908-27.634z" fill="#fcf4d9"/><path d="m240.942 58.004c0-.745.074-1.472.181-2.187l-16.256.939c-13.705.792-21.773 15.745-14.909 27.634 6.865 11.889 23.848 12.379 31.386.906l8.939-13.605c-5.461-2.154-9.341-7.471-9.341-13.687z" fill="#f4d99d"/><path d="m301.363 31.617c-6.864-11.889-23.848-12.379-31.386-.906l-8.939 13.605c5.461 2.154 9.342 7.471 9.342 13.688 0 .745-.074 1.471-.181 2.187l16.256-.939c13.705-.793 21.772-15.745 14.908-27.635z" fill="#fcf4d9"/><path d="m132.417 38.254c-11.889 6.864-12.379 23.848-.906 31.386l13.607 8.94c1.175-2.999 3.326-5.639 6.326-7.371s6.362-2.275 9.546-1.793l-.939-16.254c-.792-13.705-15.745-21.772-27.634-14.908z" fill="#fceca9"/><path d="m186.096 98.273-13.607-8.94c-1.175 2.999-3.326 5.639-6.326 7.371s-6.361 2.275-9.546 1.793l.939 16.254c.792 13.705 15.745 21.773 27.634 14.908 11.889-6.864 12.379-23.848.906-31.386z" fill="#fcf4d9"/><path d="m146.056 91.316c-3.109-5.384-2.406-11.929 1.246-16.525l-14.544-7.313c-12.265-6.167-26.728 2.749-26.728 16.478s14.463 22.644 26.729 16.478l14.547-7.315c-.45-.566-.877-1.158-1.25-1.803z" fill="#f4d99d"/><path d="m184.847 67.479-14.547 7.315c.451.566.878 1.158 1.25 1.803 3.108 5.384 2.407 11.929-1.246 16.525l14.544 7.312c12.265 6.167 26.728-2.749 26.728-16.477 0-13.729-14.463-22.645-26.729-16.478z" fill="#fcf4d9"/><path d="m146.056 91.316c-.373-.645-.672-1.311-.937-1.984l-13.608 8.941c-11.473 7.538-10.983 24.522.906 31.386s26.842-1.203 27.634-14.908l.939-16.252c-5.806.865-11.825-1.799-14.934-7.183z" fill="#fceca9"/><path d="m185.189 38.254c-11.889-6.864-26.842 1.203-27.634 14.908l-.939 16.252c5.806-.865 11.825 1.799 14.934 7.183.372.645.672 1.311.937 1.984l13.608-8.941c11.473-7.538 10.984-24.522-.906-31.386z" fill="#fcf4d9"/><path d="m326.131 129.659c11.889 6.864 26.842-1.203 27.634-14.908l.939-16.254c-3.185.482-6.546-.061-9.547-1.793-3-1.732-5.151-4.372-6.326-7.371l-13.607 8.94c-11.472 7.538-10.982 24.522.907 31.386z" fill="#fceca9"/><path d="m351.27 53.162-.939 16.254c3.185-.482 6.546.061 9.546 1.793s5.151 4.372 6.326 7.371l13.607-8.94c11.473-7.538 10.983-24.522-.906-31.386s-26.842 1.203-27.634 14.908z" fill="#fcf4d9"/><path d="m365.265 91.316c-3.109 5.384-9.128 8.048-14.934 7.183l.939 16.252c.792 13.705 15.745 21.772 27.634 14.908s12.379-23.847.906-31.386l-13.608-8.941c-.266.673-.565 1.339-.937 1.984z" fill="#fcf4d9"/><path d="m325.225 69.64 13.609 8.941c.265-.673.564-1.339.937-1.984 3.108-5.384 9.127-8.048 14.934-7.183l-.939-16.252c-.792-13.705-15.745-21.772-27.634-14.909-11.89 6.865-12.38 23.849-.907 31.387z" fill="#fceca9"/><path d="m365.265 91.316c-.373.645-.799 1.237-1.25 1.803l14.547 7.315c12.265 6.167 26.728-2.749 26.728-16.478 0-13.728-14.463-22.644-26.728-16.478l-14.544 7.312c3.653 4.597 4.355 11.142 1.247 16.526z" fill="#fcf4d9"/><path d="m299.745 83.956c0 13.729 14.463 22.645 26.728 16.478l14.544-7.313c-3.653-4.596-4.355-11.141-1.246-16.525.372-.645.799-1.237 1.25-1.803l-14.547-7.315c-12.266-6.166-26.729 2.75-26.729 16.478z" fill="#f4d99d"/><path d="m484.514 233.371h-457.028l46.566 197.69c7.508 8.321 15.583 16.118 24.157 23.344h315.583c8.574-7.226 16.649-15.023 24.157-23.344z" fill="#e1715a"/><path d="m153.605 419.016-31.135-132.181c-6.431-27.303 14.283-53.463 42.333-53.463h-137.317l46.566 197.69c7.508 8.321 15.584 16.118 24.157 23.344h100.032c-22.134 0-39.991-15.666-44.636-35.39z" fill="#c15655"/><path d="m429.113 133.02c-7.697-7.892-18.254-12.342-29.278-12.342-16.957 0-270.76 0-287.671 0-11.024 0-21.581 4.45-29.277 12.342l-40.447 41.471h427.12z" fill="#e1715a"/><path d="m163.827 145.138 12.068-12.374c6.362-6.524 14.646-10.736 23.544-12.087-44.931 0-81.232 0-87.275 0-11.023 0-21.581 4.45-29.277 12.342l-40.447 41.471h129.8c-12.694-2.968-18.245-19.269-8.413-29.352z" fill="#c15655"/><path d="m489.296 206.015v-18.237c0-7.523-6.155-13.678-13.678-13.678h-439.236c-7.523 0-13.678 6.155-13.678 13.678v18.237z" fill="#f1935d"/><path d="m163.715 174.1h-127.333c-7.523 0-13.678 6.155-13.678 13.678v18.237h127.333v-18.237c0-7.523 6.155-13.678 13.678-13.678z" fill="#e1715a"/><g><path d="m491.954 234.511h-471.908c-8.499 0-15.388-6.889-15.388-15.388s6.889-15.388 15.388-15.388h471.909c8.498 0 15.388 6.889 15.388 15.388-.001 8.499-6.89 15.388-15.389 15.388z" fill="#f9a880"/></g><path d="m136.783 219.123c0-8.499 6.889-15.388 15.388-15.388h-132.125c-8.498 0-15.388 6.889-15.388 15.388s6.889 15.388 15.388 15.388h132.126c-8.499 0-15.389-6.889-15.389-15.388z" fill="#f1935d"/><path d="m419.05 449.846h-326.099c14.032 12.521 29.503 23.462 46.152 32.518h233.796c16.648-9.055 32.119-19.997 46.151-32.518z" fill="#c15655"/><path d="m92.951 449.846c14.031 12.521 29.503 23.462 46.151 32.519h47.84c-.309-1.94-1.369-3.762-3.04-5.009-16.064-11.988-5.561-27.51-5.561-27.51z" fill="#ad4949"/><path d="m137.063 481.225c35.222 19.597 75.771 30.775 118.937 30.775s83.715-11.178 118.937-30.775z" fill="#e1715a"/><path d="m184.657 501.432c-1.876-5.701-.39-10.815 1.536-14.472.961-1.824 1.07-3.881.475-5.735h-49.605c14.97 8.33 30.907 15.131 47.594 20.207z" fill="#c15655"/><g><path d="m248.145 123.086c-1.102.588-2.398.554-3.468-.088-1.071-.643-1.71-1.771-1.71-3.02v-1.954l-1.191.766c-5.067 3.254-12.262 7.476-19.769 10.607-.632 2.392-1.17 4.867-1.594 7.424-3.696 22.276-13.793 33.648-19.347 38.376-1.163.989-.451 2.89 1.075 2.868 4.656-.068 11.904-.626 18.345-3.05.928-.349 1.947.222 2.151 1.192.591 2.811 1.562 8.34 1.417 13.738-.036 1.355 1.52 2.145 2.605 1.332 2.2-2.234 16.122-11.74 20.742-39.584 1.977-11.913 6.398-22.041 11.516-30.325-3.632-.638-7.423-.068-10.772 1.718z" fill="#543e5b"/></g><path d="m258.917 121.369c-3.632-.64-7.423-.07-10.772 1.717-1.102.588-2.399.554-3.468-.088-1.071-.643-1.71-1.771-1.71-3.02v-1.954l-1.191.765c-5.067 3.254-12.262 7.476-19.769 10.608-.632 2.392-1.17 4.867-1.594 7.424-.233 1.405-.492 2.767-.773 4.086.892.303 1.865.357 2.812.105 13.289-3.546 20.812 4.513 23.64 8.551.39.557.887 1.015 1.446 1.366 2.037-11.58 6.372-21.455 11.379-29.56z" fill="#422953"/><g><path d="m310.981 175.197c-5.554-4.727-15.651-16.099-19.347-38.376-.424-2.557-.961-5.031-1.594-7.423-7.507-3.132-14.702-7.356-19.769-10.609l-1.191-.766v1.954c0 1.248-.639 2.377-1.71 3.02-1.07.642-2.367.674-3.469.088-3.349-1.786-7.139-2.356-10.771-1.717 5.118 8.284 9.539 18.411 11.516 30.325 4.62 27.844 18.542 37.351 20.742 39.584 1.085.813 2.641.024 2.605-1.332-.145-5.398.826-10.927 1.417-13.738.204-.971 1.223-1.542 2.151-1.192 6.441 2.424 13.69 2.982 18.345 3.05 1.526.022 2.237-1.878 1.075-2.868z" fill="#543e5b"/></g><path d="m292.293 140.346c-.236-1.145-.459-2.316-.66-3.524-.424-2.557-.961-5.031-1.594-7.423-7.507-3.132-14.702-7.356-19.769-10.609l-1.191-.765v1.954c0 1.248-.639 2.377-1.71 3.02-1.07.642-2.367.674-3.469.088-3.349-1.786-7.139-2.356-10.771-1.717 4.975 8.053 9.286 17.854 11.339 29.338.552-.412 1.021-.938 1.356-1.566 5.958-11.183 17.106-10.027 22.981-8.458 1.203.321 2.435.176 3.488-.338z" fill="#422953"/><path d="m183.731 118.123 3.529-9.361c2.89-3.211 7.297-5.754 13.739-4.261 11.64 2.697 29.087 8.541 42.225 5.718v8.555c-10.934 7.132-30.779 18.296-43.932 15.248-17.256-3.999-15.561-15.899-15.561-15.899z" fill="#422953"/><path d="m243.225 110.218v8.555c-5.56 3.627-13.425 8.293-21.542 11.606-.686-.92-.994-2.113-.728-3.323 1.447-6.577-1.251-11.851-3.673-15.042-.82-1.081-1.046-2.434-.717-3.647 8.954 2.057 18.614 3.58 26.66 1.851z" fill="#30144a"/><g><path d="m187.103 74.455c8.591-9.968 28.684-7.849 42.397 7.081 4.947 5.386 9.686 9.155 13.725 11.775v17.765c-12.851 2.873-30.021-2.892-41.452-5.54-13.328-3.088-17.736 11.514-18.025 12.528 7.1-24.485-5.229-33.649 3.355-43.609z" fill="#543e5b"/></g><path d="m217.98 106.229c10.523-8.209 6.644-22.242 4.047-28.746-.339-.848-.381-1.746-.175-2.574 2.679 1.826 5.262 4.027 7.648 6.626 4.947 5.386 9.685 9.154 13.725 11.775v17.765c-8.06 1.802-17.819.206-26.796-1.888.071-1.124.592-2.21 1.551-2.958z" fill="#422953"/><path d="m328.315 118.123-3.529-9.361c-2.89-3.211-7.297-5.754-13.739-4.261-11.64 2.697-29.087 8.541-42.225 5.718v8.555c10.934 7.132 30.779 18.296 43.932 15.248 17.256-3.999 15.561-15.899 15.561-15.899z" fill="#422953"/><path d="m268.821 110.218v8.555c5.56 3.627 13.425 8.293 21.542 11.606.685-.92.994-2.113.728-3.323-1.447-6.577 1.251-11.851 3.673-15.042.82-1.081 1.046-2.434.717-3.647-8.954 2.057-18.614 3.58-26.66 1.851z" fill="#30144a"/><g><path d="m324.943 74.455c-8.591-9.968-28.684-7.849-42.397 7.081-4.947 5.386-9.686 9.155-13.725 11.775v17.765c12.851 2.873 30.021-2.892 41.452-5.54 13.328-3.088 17.735 11.514 18.025 12.528-7.1-24.485 5.229-33.649-3.355-43.609z" fill="#543e5b"/></g><path d="m294.066 106.229c-10.523-8.209-6.644-22.242-4.047-28.746.339-.848.381-1.746.175-2.574-2.679 1.826-5.262 4.027-7.648 6.626-4.947 5.386-9.685 9.154-13.725 11.775v17.765c8.061 1.802 17.819.206 26.796-1.888-.071-1.124-.593-2.21-1.551-2.958z" fill="#422953"/><path d="m263.679 88.709c-.317.076-6.766 4.156-14.639.328l-.674-.328c-2.853-1.387-6.173.691-6.173 3.863v27.407c0 3.242 3.455 5.316 6.316 3.79 4.696-2.504 10.331-2.504 15.027 0 2.861 1.526 6.316-.548 6.316-3.79v-27.408c.001-3.172-3.32-5.249-6.173-3.862z" fill="#665364"/><g><path d="m256.303 118.679v-24.808c0-1.494.816-2.714 1.96-3.369-2.521.374-5.731.233-9.223-1.465l-.674-.328c-2.853-1.387-6.173.691-6.173 3.863v27.407c0 3.242 3.455 5.316 6.316 3.79 3.032-1.617 6.455-2.183 9.764-1.712-1.148-.654-1.97-1.875-1.97-3.378z" fill="#543e5b"/></g><path d="m338.838 76.058c4.362-7.555 14.022-10.144 21.577-5.782s10.144 14.023 5.782 21.578-14.022 10.144-21.578 5.782c-7.554-4.362-10.143-14.022-5.781-21.578z" fill="#ffc839"/><path d="m349.874 76.63c1.88-3.256 6.044-4.372 9.3-2.492 3.257 1.88 4.372 6.044 2.492 9.3s-6.044 4.372-9.301 2.492c-3.256-1.88-4.372-6.044-2.491-9.3z" fill="#ffdd40"/><path d="m242.343 50.106c4.362-7.555 14.022-10.143 21.577-5.782 7.555 4.362 10.144 14.023 5.782 21.578s-14.023 10.143-21.578 5.782c-7.554-4.363-10.143-14.023-5.781-21.578z" fill="#ffc839"/><path d="m253.379 50.677c1.88-3.256 6.044-4.372 9.3-2.492 3.257 1.88 4.372 6.044 2.492 9.301-1.88 3.256-6.044 4.372-9.3 2.492-3.257-1.881-4.372-6.045-2.492-9.301z" fill="#ffdd40"/><path d="m145.124 76.058c4.362-7.555 14.022-10.144 21.577-5.782s10.144 14.023 5.782 21.578-14.023 10.144-21.578 5.782-10.143-14.022-5.781-21.578z" fill="#ffc839"/><ellipse cx="162.055" cy="80.034" fill="#ffdd40" rx="6.808" ry="6.808" transform="matrix(.694 -.72 .72 .694 -8.064 141.082)"/></g></svg>