<svg id="Layer_1" enable-background="new 0 0 512 512" height="512" viewBox="0 0 512 512" width="512" xmlns="http://www.w3.org/2000/svg"><g><path d="m471.433 383.772c18.855-34.712 29.565-74.49 29.565-116.77 0-135.309-109.689-244.998-244.998-244.998s-244.998 109.69-244.998 244.999c0 42.28 10.71 82.058 29.565 116.77h430.866z" fill="#dae2fe"/><path d="m71.821 428.561c13.881 15.812 29.762 29.823 47.253 41.633h273.852c17.491-11.81 33.373-25.821 47.253-41.633z" fill="#422953"/><path d="m437.76 431.276c13.108-14.494 24.506-30.561 33.878-47.887v-350.79c0-18.004-14.595-32.599-32.599-32.599h-366.078c-18.003 0-32.598 14.595-32.598 32.599v350.79c9.371 17.326 20.77 33.393 33.877 47.887z" fill="#665364"/><path d="m163.585 0h-90.624c-18.003 0-32.598 14.595-32.598 32.599v350.79c9.371 17.326 20.77 33.393 33.877 47.887h124.014c-.08-1.689-.689-3.315-1.757-4.633-7.246-8.954-2.873-17.383-.053-21.215 1.172-1.594 1.663-3.587 1.438-5.553l-34.997-305.667c-.314-2.742-2.097-5.017-4.57-6.24-3.542-1.752-4.796-5.697-5.202-7.555-.12-.55-.176-1.107-.176-1.67v-37c0-5.24 2.565-8.57 5.324-10.636 2.858-2.141 3.799-6.007 2.444-9.312-2.872-7.009-.253-14.077 1.952-18.19.606-1.129.905-2.366.928-3.605z" fill="#543e5b"/><path d="m68.372 86.778v315.733c0 .417.339.755.756.755h373.745c.417 0 .756-.338.756-.755v-315.733z" fill="#ffdd40"/><path d="m318.973 86.777c16.378 0 29.655 13.277 29.655 29.655v256.423c0 16.795-13.616 30.411-30.411 30.411h124.655c.418 0 .756-.338.756-.755v-315.734z" fill="#ffb332"/><path d="m359.385 163.212c-4.597-4.999-10.901-7.818-17.485-7.818-10.127 0-161.701 0-171.8 0-6.583 0-12.888 2.819-17.485 7.818l-24.155 26.269h255.08z" fill="#e1715a"/><path d="m194.094 176.21 12.058-13.113c3.928-4.272 9.09-6.964 14.613-7.702-26.154 0-47.121 0-50.664 0-6.583 0-12.888 2.819-17.485 7.818l-24.156 26.267h69.763c-5.791-1.276-8.444-8.579-4.129-13.27z" fill="#c15655"/><path d="m111.254 226.777 32.979 140.008h223.534l32.979-140.008z" fill="#e1715a"/><path d="m195.476 353.391-24.792-105.251c-2.57-10.91 5.707-21.363 16.915-21.363h-76.345l32.979 140.008h68.158c-8.062 0-15.066-5.546-16.915-13.394z" fill="#c15655"/><path d="m437.555 28.01h-362.653c-3.607 0-6.53 2.923-6.53 6.53v54.297h375.257v-54.753c-.001-3.354-2.72-6.074-6.074-6.074z" fill="#543e5b"/><path d="m158.314 87.968c-3.542-1.752-4.796-5.697-5.202-7.555-.12-.55-.176-1.107-.176-1.67v-37c0-5.24 2.565-8.57 5.324-10.636 1.096-.821 1.904-1.898 2.414-3.096h-85.772c-3.607 0-6.53 2.923-6.53 6.53v54.298h91.333c-.435-.327-.894-.626-1.391-.871z" fill="#422953"/><path d="m308.907 88.838v-16.928c0-6.847-5.602-12.449-12.449-12.449h-80.917c-6.847 0-12.449 5.602-12.449 12.449v16.928z" fill="#422953"/><path d="m254.042 59.461h-38.5c-6.847 0-12.449 5.602-12.449 12.449v16.928h38.5v-16.928c0-6.847 5.602-12.449 12.449-12.449z" fill="#30144a"/><g><path d="m375.359 403.267h-238.718c-5.383 0-9.747-4.364-9.747-9.747s4.364-9.747 9.747-9.747h238.718c5.383 0 9.747 4.364 9.747 9.747s-4.364 9.747-9.747 9.747z" fill="#e1715a"/></g><path d="m189.111 393.52c0-5.383 4.364-9.747 9.747-9.747h-62.218c-5.383 0-9.747 4.363-9.747 9.747s4.364 9.747 9.747 9.747h62.218c-5.383 0-9.747-4.364-9.747-9.747z" fill="#c15655"/><path d="m403.775 209.449v-11.552c0-4.765-3.899-8.664-8.664-8.664h-278.222c-4.765 0-8.664 3.899-8.664 8.664v11.552z" fill="#f1935d"/><path d="m191.955 189.233h-75.066c-4.765 0-8.664 3.898-8.664 8.664v11.552h75.066v-11.552c.001-4.765 3.899-8.664 8.664-8.664z" fill="#e1715a"/><g><path d="m405.459 227.499h-298.917c-5.383 0-9.747-4.364-9.747-9.747s4.364-9.747 9.747-9.747h298.917c5.383 0 9.747 4.364 9.747 9.747s-4.364 9.747-9.747 9.747z" fill="#f9a880"/></g><path d="m173.545 217.752c0-5.383 4.363-9.747 9.747-9.747h-76.75c-5.383 0-9.747 4.364-9.747 9.747s4.363 9.747 9.747 9.747h76.75c-5.384 0-9.747-4.364-9.747-9.747z" fill="#f1935d"/><path d="m145.02 485.474c33.319 16.959 71.031 26.526 110.98 26.526s77.661-9.567 110.98-26.526v-56.912h-221.96z" fill="#dae2fe"/><path d="m298.833 428.561c7.636 2.55 13.147 9.743 13.147 18.236v44.871c0 6.274-3.062 12.033-8.023 15.611 22.235-4.415 43.396-11.815 63.023-21.806v-56.912z" fill="#bec8f7"/><g><path d="m136.641 384.495h238.718c.151 0 .298.016.448.022v-12.581c0-4.422-3.618-8.04-8.04-8.04h-223.534c-4.422 0-8.04 3.618-8.04 8.04v12.581c.15-.006.297-.022.448-.022z" fill="#c15655"/></g><g><path d="m196.193 371.936c0-4.422 3.618-8.039 8.04-8.039h-60c-4.422 0-8.04 3.618-8.04 8.039v12.581c.149-.006.296-.022.448-.022h59.552z" fill="#ad4949"/></g><path d="m378.922 359.747c-7.735 0-14.005 6.27-14.005 14.005v112.747c9.717-4.831 19.077-10.274 28.009-16.305v-96.443c0-7.734-6.27-14.004-14.004-14.004z" fill="#e9efff"/><path d="m133.079 359.747c-7.735 0-14.005 6.27-14.005 14.005v96.442c8.932 6.031 18.292 11.473 28.009 16.305v-112.747c0-7.735-6.27-14.005-14.004-14.005z" fill="#e9efff"/><g fill="#dae2fe"><path d="m378.922 442.609c-7.735 0-14.005-6.27-14.005-14.004v57.894c9.717-4.831 19.077-10.274 28.009-16.305v-41.589c0 7.734-6.27 14.004-14.004 14.004z"/><path d="m133.079 442.609c-7.734 0-14.005-6.27-14.005-14.004v41.589c8.932 6.031 18.292 11.473 28.009 16.305v-57.894c0 7.734-6.27 14.004-14.004 14.004z"/></g></g></svg>