<svg id="Layer_1" enable-background="new 0 0 512 512" height="512" viewBox="0 0 512 512" width="512" xmlns="http://www.w3.org/2000/svg"><g><path d="m473.237 380.353c17.724-33.897 27.761-72.45 27.761-113.351 0-135.309-109.689-244.998-244.998-244.998s-244.998 109.69-244.998 244.998c0 40.902 10.037 79.454 27.761 113.352z" fill="#5aab5f"/><g><path d="m237.63 1.145c-55.164 7.516-60.407 38.792-60.432 50.268-.005 2.406-1.338 4.637-3.502 5.689-28.694 13.959-13.224 81.235-13.224 81.235 2.882.192 5.898 1.359 8.147 2.449.551-3.428 1.45-6.803 2.72-10.066.968-2.486 2.177-4.997 3.69-7.37 2.624-4.117 3.819-8.973 3.463-13.829-1.031-14.035-.535-41.691 17.992-50.026 15.695-7.062 34.947-2.973 47.225 1.11 7.973 2.651 16.61 2.651 24.584 0 12.277-4.083 31.53-8.172 47.225-1.11 18.473 8.312 19.02 35.834 18 49.906-.354 4.892.809 9.799 3.453 13.948 1.561 2.449 2.8 5.046 3.783 7.61 1.222 3.188 2.091 6.482 2.628 9.826 2.835-1.374 6.888-2.87 10.355-2.38.424-14.711 1.782-30.569 1.782-30.569 16.348-80.065-58.493-114.784-117.889-106.691z" fill="#665364"/></g><path d="m237.63 1.145c-55.164 7.516-60.407 38.792-60.431 50.267-.005 2.407-1.338 4.637-3.502 5.689-28.695 13.959-13.224 81.235-13.224 81.235 2.882.192 5.898 1.359 8.147 2.449.551-3.428 1.45-6.803 2.72-10.066.968-2.486 2.178-4.997 3.69-7.37 2.624-4.117 3.819-8.973 3.463-13.829-1.031-14.035-.535-41.691 17.991-50.026 14.934-6.72 33.084-3.343 45.385.518-.11-.203-.21-.411-.325-.612-20.543-35.914 14.214-58.573 15.471-59.377-6.55-.112-13.056.26-19.385 1.122z" fill="#543e5b"/><path d="m359.936 140.316c-4.297-3.938-12.855-1.942-16.555.469.811 5.048.857 10.213.156 15.313l-4.367 31.804c0 2.564-.081 5.079-.229 7.551 10.648 3.212 15.937-6.348 16.829-12.908.383-2.824 1.01-5.607 1.88-8.323 2.833-8.847 13.051-24.041 2.286-33.906z" fill="#fcad6d"/><path d="m350.69 167.09c-3.061 0-5.909-.88-8.335-2.38l-3.185 23.192c0 2.564-.08 5.079-.229 7.551 10.648 3.212 15.937-6.348 16.829-12.908.383-2.824 1.01-5.607 1.88-8.324 1.108-3.46 3.344-7.894 5.014-12.598-2.913 3.344-7.191 5.467-11.974 5.467z" fill="#fd995b"/><path d="m152.064 140.316c4.296-3.938 12.855-1.942 16.555.469-.811 5.048-.857 10.213-.156 15.313l4.367 31.804c0 2.564.081 5.079.229 7.551-10.648 3.212-15.937-6.348-16.829-12.908-.383-2.824-1.01-5.607-1.88-8.323-2.833-8.847-13.051-24.041-2.286-33.906z" fill="#fcad6d"/><path d="m169.489 163.572c-2.726 2.197-6.187 3.518-9.96 3.518-3.46 0-6.653-1.118-9.263-2.997 1.496 3.774 3.172 7.281 4.084 10.128.87 2.716 1.497 5.5 1.88 8.324.891 6.56 6.18 16.12 16.829 12.908-.149-2.471-.23-4.987-.23-7.551z" fill="#fd995b"/><path d="m201.676 315.042c5.848 14.177 16.225 27.52 30.845 39.658 1.791 1.486 2.866 3.676 2.951 6.007l.051 1.406h40.955l.051-1.405c.085-2.332 1.161-4.522 2.951-6.008 14.62-12.138 24.998-25.481 30.846-39.658 4.041-9.796 5.171-18.193 5.268-24.251-3.247-9.577-4.371-20.44-4.667-29.05-5.548 6.462-11.371 11.867-16.934 16.188-10.839 8.417-24.216 12.989-37.992 12.989-13.777 0-27.153-4.572-37.992-12.989-5.564-4.321-11.387-9.726-16.934-16.188-.296 8.609-1.421 19.471-4.667 29.049.096 6.059 1.228 14.456 5.268 24.252z" fill="#fcad6d"/><path d="m256 290.918c-13.776 0-27.153-4.572-37.992-12.989-5.564-4.321-11.387-9.726-16.934-16.188-.297 8.609-1.421 19.471-4.667 29.049.098 6.059 1.229 14.456 5.269 24.252 5.848 14.177 16.225 27.52 30.845 39.658.135.112.257.235.383.354 21.753-20.369 23.096-64.136 23.096-64.136z" fill="#fd995b"/><path d="m275.752 484.306c21.039-37.198 34.46-74.022 43.002-106.464-3.241 4.985-6.317 9.479-8.967 13.24-1.4 1.989-3.599 3.156-6.033 3.204-2.444.026-4.692-1.038-6.175-2.979l-8.6-11.253-8.809 15.672c-2.275 4.551-6.849 7.377-11.938 7.377h-24.309c-5.088 0-9.661-2.827-11.936-7.377l-8.871-15.798-8.696 11.378c-1.483 1.941-3.756 3.005-6.175 2.979-2.434-.047-4.633-1.215-6.033-3.204-2.649-3.761-5.725-8.255-8.966-13.239 8.542 32.44 21.965 69.264 43.005 106.463h39.501z" fill="#bec8f7"/><path d="m268.233 403.104h-24.309c-1.172 0-2.315-.157-3.411-.443-6.436 17.191-10.672 42.692-13.432 64.537 7.533 14.85 16.235 29.858 26.267 44.768.884.009 1.765.034 2.651.034.887 0 1.769-.024 2.654-.034 10.501-15.607 19.549-31.322 27.32-46.851-2.781-21.386-6.987-46.095-13.285-62.771-1.403.494-2.904.76-4.455.76z" fill="#543e5b"/><path d="m268.233 403.104h-24.309c-1.172 0-2.315-.157-3.411-.443-6.436 17.191-10.672 42.692-13.432 64.537 7.533 14.85 16.235 29.858 26.267 44.768.884.009 1.765.034 2.651.034.887 0 1.769-.024 2.654-.034 10.501-15.607 19.549-31.322 27.32-46.851-2.781-21.386-6.987-46.095-13.285-62.771-1.403.494-2.904.76-4.455.76z" fill="#543e5b"/><path d="m256.089 451.525c-10.246 0-19.285-5.159-24.669-13.018-1.743 9.617-3.174 19.478-4.338 28.691 7.533 14.85 16.235 29.858 26.267 44.768.884.009 1.765.034 2.651.034.888 0 1.769-.024 2.654-.034 10.501-15.607 19.549-31.322 27.32-46.851-1.173-9.018-2.602-18.623-4.331-27.971-5.243 8.622-14.726 14.381-25.554 14.381z" fill="#422953"/><path d="m277.416 360.656c-12.871 0-28.831 0-41.702 0l-13.339 21.051 8.308 16.617c2.508 5.016 7.634 8.184 13.242 8.184h24.309c5.608 0 10.734-3.168 13.242-8.184l8.308-16.617z" fill="#665364"/><path d="m259.554 398.13c-5.278-10.557-4.643-23.107 1.675-33.076l2.787-4.398c-9.578 0-19.638 0-28.302 0l-13.339 21.051 8.308 16.617c2.508 5.016 7.634 8.184 13.242 8.184h24.309c.821 0 1.63-.076 2.423-.207-4.749-.779-8.907-3.779-11.103-8.171z" fill="#543e5b"/><path d="m296.421 392.193c3.704 4.845 11.047 4.715 14.559-.27 2.978-4.229 6.644-9.602 10.527-15.673 8.724-34.618 11.666-62.111 12.825-76.049l-16.55-14.431c-1.482-1.293-3.782-.178-3.69 1.786.531 11.364-2.325 38.444-35.545 66.023-3.974 3.299-4.653 9.144-1.516 13.247z" fill="#e9efff"/><path d="m190.499 376.26c3.88 6.067 7.543 11.437 10.52 15.663 3.512 4.985 10.856 5.115 14.559.27l19.389-25.368c3.137-4.104 2.458-9.948-1.516-13.247-33.219-27.579-36.076-54.659-35.545-66.023.092-1.964-2.208-3.079-3.69-1.786l-16.55 14.431c1.161 13.939 4.106 41.438 12.833 76.06z" fill="#e9efff"/><path d="m222.375 343.298c-22.803-23.818-24.932-45.798-24.467-55.743.092-1.964-2.207-3.079-3.69-1.786l-16.55 14.431c.995 11.965 3.309 33.925 9.463 61.8 3.739-.696 7.129-2.861 9.357-6.109 12.554-18.304 25.887-12.593 25.887-12.593z" fill="#dae2fe"/><path d="m159.362 450.026c-1.251-1.438-1.38-3.547-.315-5.132l17.293-25.755c1.247-1.856 1.555-4.138.843-6.259-.711-2.122-2.332-3.757-4.447-4.487l-28.907-9.978c-1.561-.539-2.674-1.956-2.836-3.611-2.857-29.079-.954-54.632.434-67.276.239-2.179 1.001-4.258 2.163-6.087-7.334 3.312-14.555 6.993-21.733 11.04-8.353 4.71-12.124 7.46-19.212 8.039-32.265 2.638-52.178 18.674-64.41 38.832 35.944 69.528 104.203 119.629 184.908 130.448-31.587-23.918-55.935-50.754-63.781-59.774z" fill="#422953"/><path d="m98.425 454.587c3.608-63.085 39.632-76.745 39.632-76.745.561-.561 1.123-1.101 1.685-1.626-.794-21.113.602-38.827 1.685-48.687.239-2.179 1.001-4.258 2.163-6.087-7.334 3.312-14.555 6.993-21.733 11.04-8.353 4.71-12.124 7.46-19.212 8.039-32.264 2.638-52.178 18.674-64.41 38.832 14.949 28.916 35.492 54.467 60.19 75.234z" fill="#30144a"/><path d="m180.972 297.906c-.265-3.341-4.133-5.049-6.787-3.003l-28.172 21.721c-3.391 2.615-5.57 6.489-6.037 10.745-1.301 11.847-3.345 37.965-.436 67.578.218 2.222 1.702 4.118 3.812 4.846l28.908 9.979c3.531 1.219 4.951 5.452 2.868 8.553l-17.294 25.755c-1.434 2.136-1.263 4.962.426 6.902 7.844 9.017 31.309 34.874 61.915 58.402 11.409 1.672 23.071 2.561 34.934 2.604-61.942-91.589-71.957-186.601-74.137-214.082z" fill="#543e5b"/><path d="m180.972 297.906c-.265-3.341-4.133-5.049-6.787-3.003l-28.172 21.721c-3.391 2.615-5.57 6.489-6.037 10.745-1.039 9.46-2.549 28.025-1.635 50.197 16.611-16.425 33.748-17.125 43.927-15.498 2.91.465 5.812.002 8.374-1.206-6.563-29.073-8.776-51.691-9.67-62.956z" fill="#422953"/><path d="m289.054 509.773c80.619-10.874 148.797-60.949 184.711-130.419-12.232-20.158-32.146-36.194-64.41-38.832-7.088-.579-10.859-3.33-19.212-8.039-7.178-4.048-14.399-7.729-21.733-11.041 1.162 1.829 1.924 3.908 2.163 6.087 1.388 12.644 3.291 38.197.435 67.276-.162 1.653-1.275 3.071-2.835 3.611l-28.909 9.978c-2.115.73-3.736 2.365-4.447 4.487-.711 2.12-.404 4.402.843 6.259l17.294 25.755c1.065 1.585.934 3.695-.315 5.132-22.067 25.365-44.186 45.004-63.585 59.746z" fill="#543e5b"/><path d="m365.987 316.624-28.172-21.721c-2.654-2.046-6.522-.338-6.787 3.003-2.18 27.48-12.186 122.492-74.127 214.082 11.861-.043 23.522-.932 34.929-2.604 30.603-23.528 54.066-49.384 61.91-58.401 1.688-1.941 1.86-4.767.425-6.902l-17.293-25.755c-2.083-3.101-.663-7.335 2.868-8.553l28.908-9.979c2.11-.728 3.594-2.625 3.812-4.846 2.909-29.613.865-55.731-.436-67.578-.467-4.257-2.646-8.131-6.037-10.746z" fill="#665364"/><path d="m341.207 130.785c-3.106-8.105-7.921-11.46-7.205-21.349 2.574-35.522-10.353-46.815-18.286-50.385-15.556-6.999-34.458-3.27-47.576 1.091-7.828 2.604-16.452 2.604-24.28 0-13.118-4.361-32.017-8.091-47.576-1.091-7.949 3.576-20.893 14.895-18.277 50.506.713 9.689-4.03 13.043-7.12 20.985-3.106 7.982-4.112 16.839-2.907 25.614l4.363 31.745c0 52.439 31.726 82.736 45.367 93.327 22.377 17.379 54.04 17.505 76.579 0 13.641-10.592 45.367-40.89 45.362-93.26l4.367-31.804c1.195-8.687.222-17.464-2.811-25.379z" fill="#f9ba8f"/><g><path d="m263.71 281.229c-13.641-10.591-45.367-40.888-45.367-93.327l-4.363-31.745c-1.205-8.775-.199-17.632 2.907-25.614 3.09-7.942 7.833-11.296 7.12-20.985-2.537-34.528 9.554-46.218 17.538-50.157-12.962-4.011-30.594-6.947-45.261-.349-7.949 3.576-20.893 14.895-18.277 50.506.713 9.689-4.03 13.043-7.12 20.985-3.106 7.982-4.111 16.839-2.907 25.614l4.364 31.745c0 52.439 31.726 82.736 45.367 93.327 17.664 13.719 41.112 16.677 61.294 8.707-5.398-2.128-10.556-5.026-15.295-8.707z" fill="#fcad6d"/></g><path d="m422.964 446.279c-3.105-3.649-6.379-6.912-9.59-9.769-8.222-7.314-21.243-1.357-21.243 9.647v24.558c10.932-7.32 21.241-15.499 30.833-24.436z" fill="#422953"/><g fill="#81c66d"><path d="m500.998 267.002c0-79.035-37.434-149.316-95.529-194.115 7.292 24.78 10.635 59.437-5.907 97.988-25.4 59.195-39.599 96.913 7.985 114.339 33.745 12.358 67.192 18.386 87.005 37.817 4.214-17.994 6.446-36.75 6.446-56.029z"/><path d="m11.002 267.002c0-79.035 37.435-149.316 95.529-194.115-7.292 24.78-10.635 59.437 5.907 97.988 25.4 59.195 39.599 96.913-7.985 114.339-33.745 12.358-67.193 18.386-87.006 37.816-4.213-17.993-6.445-36.749-6.445-56.028z"/></g></g></svg>