<svg id="Layer_1" enable-background="new 0 0 512 512" height="512" viewBox="0 0 512 512" width="512" xmlns="http://www.w3.org/2000/svg"><g><path d="m452.64 410.287c29.103-40.294 46.265-89.782 46.265-143.284 0-135.309-109.69-244.998-244.998-244.998s-244.998 109.688-244.998 244.997c0 54.888 18.052 105.558 48.539 146.403z" fill="#ffdd40"/><path d="m135.739 481.655-.001.006c2.409 1.329 4.846 2.616 7.304 3.865l224.122-1.237.005.008c2.358-1.231 4.695-2.497 7.006-3.802l.001-.015 58.685-46.171.003.011c7.368-7.878 14.223-16.241 20.51-25.039v-349.442c0-29.906-24.331-54.236-54.237-54.236h-288.179c-29.906 0-54.235 24.33-54.235 54.236v352.572c6.318 8.554 13.181 16.681 20.535 24.333z" fill="#f1935d"/><path d="m56.723 59.839v352.572c6.318 8.554 13.181 16.681 20.535 24.333l58.482 44.911-.001.006c2.409 1.329 4.846 2.616 7.304 3.865l108.987-.602v-331.235c0-1.288.399-2.539 1.155-3.583 4.767-6.58 21.742-32.441 1.864-42.22-15.874-7.81-14.834-19.616-12.716-26.102.864-2.645-.204-5.571-2.557-7.055-12.608-7.955-12.05-21.943-10.865-28.806.385-2.233-.481-4.48-2.251-5.895-3.757-3.004-3.883-7.101-3.296-10.07.449-2.271-.401-4.586-2.207-6.035-5.322-4.271-5.016-9.815-3.845-13.681.486-1.604.227-3.259-.553-4.64h-105.801c-29.906.001-54.235 24.331-54.235 54.237z" fill="#e1715a"/><path d="m135.739 481.655v.01c2.413 1.331 4.857 2.61 7.318 3.861l224.081-1.236c2.366-1.236 4.717-2.497 7.038-3.807v-.003l50.796-45.666v-374.975c0-14.245-11.59-25.834-25.836-25.834h-288.178c-14.245 0-25.834 11.589-25.834 25.834v377.461z" fill="#66e9ff"/><path d="m85.125 59.839v377.461l50.615 44.355v.01c2.413 1.331 4.857 2.61 7.318 3.861l108.971-.601v-331.236c0-1.288.399-2.539 1.155-3.583 4.767-6.58 21.742-32.441 1.864-42.22-15.874-7.81-14.834-19.616-12.716-26.102.864-2.645-.204-5.571-2.557-7.055-12.608-7.955-12.05-21.943-10.865-28.806.385-2.233-.481-4.48-2.251-5.895-2.224-1.779-3.17-3.939-3.455-6.023h-112.246c-14.245 0-25.833 11.589-25.833 25.834z" fill="#23c5ed"/><g><path d="m358.75 262.61c-1.413-14.49-18.085-17.465-18.491-32.094-.006-.231 0-.458.003-.686h-171.665c.002.228.009.455.003.686-.405 14.63-17.077 17.605-18.491 32.094-.85 8.708 4.435 15.763 9.169 21.035 4.734 5.273 9.995 12.401 9.075 21.093-1.035 9.775-9.094 14.039-12.346 22.671-3.362 8.927-.622 20.737 4.433 27.676s11.862 10.156 18.433 13.175h73.67 3.775 73.67c6.57-3.019 13.378-6.237 18.433-13.175s7.795-18.749 4.433-27.676c-3.251-8.632-11.311-12.896-12.346-22.671-.92-8.692 4.34-15.82 9.075-21.093 4.733-5.272 10.017-12.327 9.167-21.035z" fill="#665364"/></g><path d="m348.419 355.084c5.055-6.938 7.795-18.749 4.433-27.676-3.251-8.632-11.311-12.896-12.346-22.671-.312-2.95.099-5.715.948-8.293-29.237 4.578-24.132-23.937-24.132-23.937l-77.705-42.678h-71.02c.002.229.009.455.002.686-.405 14.629-17.077 17.605-18.491 32.094-.85 8.708 4.435 15.762 9.169 21.035s9.995 12.401 9.075 21.093c-1.035 9.775-9.095 14.039-12.346 22.671-3.362 8.927-.622 20.737 4.433 27.676 5.055 6.938 11.862 10.156 18.433 13.175h73.67 3.774 73.67c6.572-3.019 13.379-6.237 18.433-13.175z" fill="#543e5b"/><path d="m376.112 364.462c-.117-.02-27.042-1.342-48.621-9.701-9.633-3.734-16.429-8.217-19.67-10.105-16.395-11.938-15.943-24.017-15.943-35.723-8.929 7.982-24.136 18.109-36.83 18.726-12.694-.617-27.902-10.745-36.83-18.726 0 11.706.452 23.785-15.943 35.723-3.241 1.888-10.037 6.372-19.67 10.105-21.579 8.358-48.503 9.681-48.62 9.701-10.99 2.11-35.089 9.779-48.86 37.208v42.913c15.157 14.411 32.162 26.892 50.615 37.072 2.955-20.022 6.628-19.154 6.628-19.154l.751 3.291c2.299-19.236 14.644-35.112 30.167-43.538 18.519-10.051 46.595-16.948 75.189 7.27 3.693 3.129 9.078 3.125 12.777-.005 29.15-24.682 57.575-17.399 76.287-6.942 15.287 8.542 27.171 24.43 29.405 43.37l.786-3.446s3.524-.816 6.447 17.979c18.573-10.486 35.638-23.326 50.796-38.115v-40.695c-13.772-27.429-37.871-35.098-48.861-37.208z" fill="#fcad6d"/><path d="m251.749 327.278c-11.946-1.97-25.363-11.044-33.53-18.346 0 11.706.452 23.786-15.943 35.723-3.241 1.888-10.037 6.372-19.67 10.105-21.579 8.358-48.503 9.68-48.62 9.7-10.99 2.11-35.089 9.779-48.86 37.208v42.913c15.157 14.411 32.162 26.892 50.615 37.072 2.955-20.022 6.628-19.154 6.628-19.154l.751 3.291c2.3-19.236 14.644-35.112 30.167-43.538 2.093-1.136 4.313-2.227 6.637-3.242l.002-.008c.052-.02.101-.041.152-.06 1.261-.548 2.554-1.07 3.877-1.564 46.486-19.689 62.416-64.687 67.794-90.1z" fill="#fd995b"/><path d="m182.578 193.748c1.058-3.459 2.479-6.418 4.37-8.548 1.711-1.927 2.652-4.178 2.721-6.511 0 0 7.516-34.245 36.01-36.02 0 0 19.326-3.685 36.382 24.316 14.148 23.227 47.62 31.1 65.188 26.895 3.842-2.442 10.327-3.836 14.811-2.23.001-20.404.001-28.718.001-31.764 0-1.107 0-1.521 0-1.565 0-44.206-35.408-81.768-87.038-81.768-51.324 0-87.039 37.439-87.039 81.768v33.329c4.4-1.576 10.728-.261 14.594 2.098z" fill="#665364"/><path d="m256.241 114.758c-14.601-9.99-16.027-26.488-13.908-32.974.483-1.479.344-3.038-.268-4.392-44.275 5.712-74.081 40.437-74.081 80.928v33.33c4.401-1.577 10.729-.261 14.595 2.098 1.058-3.459 2.48-6.418 4.37-8.548 1.711-1.927 2.651-4.178 2.721-6.51 0 0 7.516-34.245 36.01-36.02 0 0 12.552-2.381 26.351 11.343v-.324c0-1.288.399-2.539 1.155-3.583 4.765-6.579 19.248-24.268 3.055-35.348z" fill="#543e5b"/><path d="m340.116 189.539c-4.056-2.824-11.024-.18-13.862 2.264-.162.163-.309.319-.465.48 4.451 16.304 1.616 41.663 1.141 44.699-.023.104-.049.205-.073.309 8.38.572 14.523-4.426 14.523-11.787 0-2.417.216-4.828.641-7.208 1.384-7.756 8.256-21.68-1.905-28.757z" fill="#fcad6d"/><path d="m335.683 215.632c-2.729 0-5.271-.777-7.442-2.101.151 11.381-1.02 21.593-1.311 23.451-.023.104-.049.205-.073.309 8.38.573 14.523-4.425 14.523-11.787 0-2.417.217-4.828.641-7.208.254-1.422.692-3.051 1.175-4.807-2.185 1.35-4.753 2.143-7.513 2.143z" fill="#fd995b"/><path d="m183.125 237.046c-1.732-10.062-3.179-30.276.284-43.618-.476-.529-.98-1.068-1.537-1.625-2.838-2.444-9.806-5.088-13.862-2.264-10.161 7.076-3.289 21.001-1.907 28.756.425 2.381.641 4.791.641 7.208 0 7.894 7.061 13.077 16.374 11.58 0 0 .007-.02.008-.029z" fill="#fcad6d"/><path d="m181.297 214.129c-1.919.954-4.074 1.503-6.362 1.503-4.288 0-8.125-1.893-10.752-4.876.743 2.799 1.54 5.404 1.92 7.539.424 2.381.641 4.791.641 7.208 0 7.894 7.061 13.077 16.373 11.58 0 0 .007-.02.008-.029l-.002-.007c-.949-5.521-1.811-14.098-1.826-22.918z" fill="#fd995b"/><path d="m262.061 164.619c-17.056-28.001-36.382-24.315-36.382-24.315-28.495 1.775-36.01 36.02-36.01 36.02-.069 2.333-1.01 4.584-2.721 6.511-9.428 10.624-7.363 41.664-5.164 54.443 4.872 21.501 11.928 40.249 20.97 55.725 9.18 15.71 23.082 27.929 40.203 35.337 7.669 3.316 16.462 3.317 24.129 0 17.121-7.408 31.023-19.626 40.203-35.337 9.041-15.471 16.097-34.22 20.979-55.764 1.686-10.717 3.452-32.112-.742-45.786-17.492 4.352-51.244-3.487-65.465-26.834z" fill="#f9ba8f"/><path d="m252.253 293.002c-9.042-15.476-16.099-34.224-20.97-55.725-2.199-12.779-4.264-43.819 5.164-54.443 1.711-1.927 2.651-4.178 2.721-6.511 0 0 3.108-14.102 12.861-24.677-13.799-13.724-26.351-11.343-26.351-11.343-28.494 1.775-36.01 36.02-36.01 36.02-.069 2.333-1.01 4.584-2.721 6.511-9.428 10.624-7.363 41.664-5.164 54.443 4.872 21.501 11.928 40.249 20.97 55.725 9.18 15.711 23.082 27.929 40.203 35.337 7.669 3.316 16.461 3.317 24.129 0 4.458-1.928 8.691-4.19 12.686-6.748-11.349-7.266-20.728-16.969-27.518-28.589z" fill="#fcad6d"/><path d="m365.898 454.181c-4.931-13.94-14.71-25.719-27.618-32.931-18.945-10.586-48.245-18.095-78.012 7.109-1.512 1.28-3.429 1.991-5.41 1.991-1.978 0-3.893-.707-5.402-1.985-29.188-24.72-57.928-17.743-76.897-7.447-14.217 7.717-24.854 20.771-29.445 36.283-.389 1.314-.674 2.442-.803 3.272-1.006 6.454-.592 14.905.716 25.051 33.295 16.927 70.971 26.476 110.88 26.476 40.864 0 79.382-10.018 113.257-27.711 1.182-9.592 1.53-17.629.566-23.816-.227-1.453-.924-3.725-1.832-6.292z" fill="#543e5b"/><path d="m199.987 456.744c1.212-4.013-.29-8.282-3.638-10.805-10.164-7.659-9.486-17.809-7.267-24.781.755-2.372.585-4.834-.326-6.975-5.926 1.722-11.378 4.12-16.196 6.735-14.217 7.717-24.854 20.771-29.444 36.283-.389 1.314-.674 2.442-.803 3.272-1.006 6.454-.592 14.905.716 25.051 22.516 11.447 47.041 19.505 72.9 23.532-22.518-17.736-19.401-40.859-15.942-52.312z" fill="#422953"/><path d="m365.898 454.181c-4.931-13.94-14.71-25.719-27.618-32.931-18.945-10.586-48.245-18.095-78.012 7.109-1.512 1.28-3.429 1.991-5.41 1.991-1.978 0-3.893-.707-5.402-1.985-29.188-24.72-57.928-17.743-76.897-7.447-14.217 7.717-24.854 20.771-29.445 36.283-.389 1.314-.674 2.442-.803 3.272-1.006 6.451-.588 14.908.721 25.053 1.043.53 2.093 1.047 3.144 1.563 5.484-11.913 14.728-21.828 26.383-28.154 18.969-10.296 47.709-17.273 76.897 7.447 1.509 1.278 3.425 1.985 5.402 1.985 1.981 0 3.898-.711 5.41-1.99 29.767-25.204 59.067-17.695 78.012-7.109 11.012 6.153 19.735 15.637 25.124 26.943 1.259-.63 2.513-1.27 3.759-1.921 1.184-9.595 1.53-17.629.566-23.816-.226-1.454-.923-3.726-1.831-6.293z" fill="#665364"/><path d="m196.349 445.939c-10.164-7.659-9.486-17.809-7.267-24.781.755-2.372.585-4.834-.326-6.975-5.926 1.722-11.378 4.12-16.196 6.735-14.217 7.717-24.854 20.771-29.444 36.283-.389 1.314-.674 2.442-.803 3.272-1.006 6.451-.588 14.908.721 25.053 1.042.53 2.093 1.047 3.144 1.563 5.484-11.913 14.729-21.828 26.383-28.154 7.623-4.137 16.826-7.734 27-8.958-.691-1.561-1.781-2.959-3.212-4.038z" fill="#543e5b"/><path d="m432.861 434.308v-374.469c0-18.596-15.129-33.724-33.725-33.724h-288.178c-18.595 0-33.723 15.129-33.723 33.724v376.888c5.035 5.24 10.299 10.257 15.779 15.033v-391.921c0-9.895 8.049-17.945 17.944-17.945h288.178c9.896 0 17.946 8.051 17.946 17.945v389.895c5.489-4.904 10.753-10.051 15.779-15.426z" fill="#e1715a"/><path d="m77.235 59.839v376.888c5.035 5.24 10.299 10.257 15.779 15.033v-391.921c0-9.895 8.05-17.945 17.944-17.945h117.272c-.389-.707-.918-1.343-1.571-1.866-3.757-3.004-3.883-7.101-3.296-10.07.263-1.328.069-2.667-.488-3.843h-111.917c-18.595 0-33.723 15.129-33.723 33.724z" fill="#c15655"/><g><path d="m450.053 160.869-151.952-151.943c-6.046-6.045-14.352-9.273-22.893-8.896l-15.172.669c-4.941.218-7.267 6.204-3.77 9.702l192.314 192.302c3.497 3.497 9.483 1.171 9.701-3.77l.669-15.17c.377-8.542-2.851-16.849-8.897-22.894z" fill="#665364"/><path d="m315.358 69.49 133.222 133.213c3.497 3.497 9.483 1.171 9.701-3.77l.669-15.17c.376-8.542-2.852-16.849-8.897-22.894l-113.389-113.383s3.837 22.004-21.306 22.004z" fill="#543e5b"/><path d="m457.165 94.236c13.259 1.154 24.531-2.475 30.182-4.801 1.41-.58 2.844.78 2.345 2.22-4.643 13.407-4.817 27.296-4.817 27.296-1.476 32.752-31.914 33.739-45.7 32.49-4.107-.372-7.5-3.399-8.286-7.448-5.421-27.909 8.546-51.299 26.276-49.757z" fill="#81c66d"/><path d="m467.355 132.405c.052-1.717-.911-3.31-2.462-4.049-16.355-7.787-11.044-25.827-8.635-32.002.271-.693.352-1.431.256-2.146-17.418-.92-30.98 22.22-25.626 49.785.786 4.048 4.179 7.075 8.287 7.448 7.722.699 20.667.694 30.822-5.199-2.437-5.124-2.74-10.586-2.642-13.837z" fill="#5aab5f"/><path d="m481.603 131.982c7.633 6.191 16.029 8.634 20.448 9.549 1.102.228 1.417 1.653.516 2.328-8.386 6.28-14.238 14.703-14.238 14.703-14.451 19.423-33.477 7.436-41.393.969-2.358-1.927-3.182-5.182-1.988-7.983 8.229-19.315 26.448-27.844 36.655-19.566z" fill="#a0e589"/><path d="m467.355 132.405c.029-.963-.27-1.881-.804-2.637-8.208 2.557-16.688 10.242-21.603 21.779-1.194 2.802-.371 6.057 1.988 7.983 7.916 6.467 26.942 18.454 41.393-.969-19.623-2.627-21.18-19.304-20.974-26.156z" fill="#81c66d"/><path d="m342.204 141.104c7.456 13.071 26.068 13.705 34.396 1.173l9.877-14.863c-3.281-1.305-6.162-3.678-8.043-6.976s-2.457-6.986-1.91-10.474l-17.821.936c-15.027.79-23.955 17.134-16.499 30.204z" fill="#f4d99d"/><path d="m408.296 82.612-9.877 14.863c3.281 1.305 6.162 3.678 8.043 6.976s2.457 6.986 1.911 10.474l17.821-.936c15.027-.79 23.954-17.133 16.499-30.204-7.456-13.071-26.069-13.705-34.397-1.173z" fill="#fcf4d9"/><path d="m412.381 152.072c.366-3.596-.229-7.374-2.021-10.986l-7.935-15.987c-.623.491-1.275.955-1.984 1.36-5.919 3.376-13.089 2.569-18.105-1.461l-8.099 15.9c-7.194 14.124 3.953 30.891 20.098 29.277-6.922-11.718 6.269-25.039 18.046-18.103z" fill="#fceca9"/><path d="m374.536 83.804 7.934 15.987c.623-.491 1.275-.955 1.984-1.36 5.919-3.376 13.089-2.569 18.105 1.461l8.098-15.899c6.829-13.408-2.86-29.312-17.908-29.39-15.047-.079-24.902 15.722-18.213 29.201z" fill="#fcf4d9"/><path d="m416.397 149.767c.018-6.956 5.582-13.223 13.284-13.183 4.615.024 9.033 2.393 11.498 6.87 9.611-13.084.84-31.204-14.971-32.201l-17.808-1.122c.915 6.369-2.039 12.951-7.958 16.328-.709.404-1.441.729-2.181 1.015l9.722 14.967c2.194 3.377 5.138 5.81 8.414 7.326z" fill="#fcf4d9"/><path d="m342.506 83.262c-7.592 12.992 1.165 29.428 16.182 30.374l17.808 1.122c-.915-6.369 2.039-12.951 7.958-16.328.709-.405 1.441-.729 2.18-1.015l-9.722-14.967c-8.197-12.618-26.814-12.178-34.406.814z" fill="#fceca9"/><path d="m387.267 197.099c5.986 10.495 20.931 11.004 27.618.942l7.931-11.934c-2.634-1.048-4.948-2.953-6.458-5.601-1.511-2.648-1.973-5.609-1.534-8.41l-14.309.752c-12.066.634-19.234 13.756-13.248 24.251z" fill="#f4d99d"/><path d="m440.335 150.134-7.931 11.934c2.634 1.048 4.947 2.953 6.458 5.601s1.973 5.609 1.534 8.41l14.309-.752c12.065-.634 19.234-13.757 13.247-24.252-5.986-10.495-20.93-11.004-27.617-.941z" fill="#fcf4d9"/><path d="m434.028 185.339c-4.753 2.711-10.509 2.063-14.537-1.173l-6.503 12.766c-5.484 10.766 2.297 23.535 14.379 23.598s19.995-12.625 14.625-23.447l-6.371-12.837c-.5.396-1.023.769-1.593 1.093z" fill="#fceca9"/><path d="m413.228 151.091 6.371 12.836c.5-.394 1.023-.767 1.593-1.092 4.753-2.711 10.509-2.063 14.537 1.173l6.502-12.766c5.484-10.766-2.297-23.535-14.379-23.599-12.082-.063-19.995 12.625-14.624 23.448z" fill="#fcf4d9"/><path d="m434.028 185.339c-.57.325-1.157.585-1.751.816l7.806 12.018c6.582 10.132 21.531 9.779 27.627-.653 6.095-10.432-.936-23.629-12.994-24.389l-14.298-.901c.735 5.114-1.637 10.399-6.39 13.109z" fill="#fcf4d9"/><path d="m387.509 150.655c-6.096 10.432.936 23.629 12.993 24.389l14.299.901c-.735-5.114 1.637-10.399 6.39-13.11.57-.325 1.157-.585 1.751-.815l-7.806-12.018c-6.582-10.131-21.531-9.779-27.627.653z" fill="#fceca9"/><path d="m383.869 97.406c8.306-4.738 18.88-1.845 23.618 6.46 4.738 8.306 1.845 18.88-6.461 23.618s-18.88 1.845-23.618-6.461c-4.737-8.306-1.844-18.88 6.461-23.617z" fill="#ffc839"/><path d="m391.978 101.918c3.296-1.88 7.492-.732 9.373 2.564 1.88 3.296.732 7.492-2.564 9.373s-7.492.732-9.373-2.564c-1.88-3.297-.732-7.493 2.564-9.373z" fill="#ffdd40"/><path d="m420.722 162.012c6.669-3.804 15.159-1.482 18.963 5.187s1.482 15.159-5.187 18.964c-6.669 3.804-15.159 1.481-18.963-5.188-3.805-6.669-1.482-15.159 5.187-18.963z" fill="#ffc839"/><path d="m427.284 164.876c3.164-1.804 7.191-.703 8.995 2.461 1.805 3.163.703 7.191-2.461 8.995-3.164 1.805-7.191.703-8.995-2.461s-.702-7.191 2.461-8.995z" fill="#ffdd40"/></g></g></svg>