<svg id="Layer_1" enable-background="new 0 0 511 511" height="512" viewBox="0 0 511 511" width="512" xmlns="http://www.w3.org/2000/svg"><g><g><path d="m255.5 23.495c-93.802 0-151.585 52.911-151.744 53 0 0-2.402 2.998-2.851 4.992-3.65 16.201-7.06 37.914-7.06 53.758 0 134.621 113.525 243.725 248.145 243.725 51.839 0 109.514-24.845 148.115-54.718.863-.668 3.603-5.158 3.603-5.158.17-1.039 5.545-22.441 5.545-51.846-.001-134.621-109.132-243.753-243.753-243.753z" fill="#fd3581"/><g><path d="m113.023 465.029h284.927c47.775-34.442 82.739-85.845 95.757-145.935-41.638 33.165-94.369 52.995-151.739 52.995-134.621 0-243.752-109.132-243.752-243.752 0-17.794 1.919-35.132 5.539-51.842-56.058 44.659-92.008 113.509-92.008 190.753.001 81.425 39.935 153.514 101.276 197.781z" fill="#e41e7f"/></g></g><g><path d="m228.871 333.178h60.291v150.51h-60.291z" fill="#e1d3ce"/><path d="m259.017 380.105c-16.649 0-30.146-13.497-30.146-30.146v-16.782h60.292v16.782c0 16.65-13.497 30.146-30.146 30.146z" fill="#cdbfba"/><path d="m210.334 213.446v88.251c0 24.013 19.466 43.479 43.479 43.479h66.536c27.791 0 50.32-22.529 50.32-50.32v-65.946z" fill="#f9f3f1"/><path d="m212.169 294.857v-81.41h-64.805v81.41c0 27.791 22.529 50.32 50.32 50.32h64.805c-27.791 0-50.32-22.529-50.32-50.32z" fill="#e1d3ce"/><path d="m370.67 228.911v-18.465l-223.305-3v21.465h6.941c16.318 0 30.177 11.947 32.582 28.087 2.405 16.14 16.264 28.087 32.582 28.087h79.095c16.318 0 30.177-11.947 32.582-28.087 2.405-16.14 16.264-28.087 32.582-28.087z" fill="#e1d3ce"/><path d="m349.652 208.294c10.233-6.461 20.738 1.391 39.164-11.802-.139-.029 11.931-8.579 14.511-23.976v-.227c0-9.018-7.31-16.328-16.328-16.328-9.018 0-16.328-7.31-16.328-16.328v-27.979c-.001-61.665-49.99-111.654-111.654-111.654-.17 0-.34 0-.51.001-26.057.117-47.007 21.543-47.007 47.601v207.922h113.253c4.518-16.479 7.244-36.083 24.899-47.23z" fill="#fff"/><path d="m402.404 166.876c-3.888 17.786-19.722 31.106-38.675 31.106-16.318 0-30.177 11.947-32.582 28.087s-16.264 28.087-32.582 28.087h-79.095c-16.318 0-30.177-11.947-32.582-28.087s-16.264-28.087-32.582-28.087h-1.904v15.465h1.904c16.318 0 30.177 11.947 32.582 28.087 2.405 16.14 16.264 28.087 32.582 28.087h79.095c16.318 0 30.177-11.947 32.582-28.087 2.405-16.14 16.264-28.087 32.582-28.087 21.869 0 39.597-17.728 39.597-39.597v-1.561c0-1.898-.327-3.719-.922-5.413z" fill="#f9f3f1"/><path d="m214.618 92.101c7.329-41.486 37.56-75.066 77.17-87.21-10.364-3.177-21.367-4.891-32.771-4.891-54.994 0-100.699 39.76-109.944 92.101z" fill="#f9f3f1"/><path d="m213.406 9.715c-38.925 17.443-66.042 56.522-66.042 101.938v27.979c0 9.044-7.401 16.266-16.445 16.329-8.964.063-16.212 7.349-16.212 16.328v1.561c0 21.869 17.728 39.597 39.597 39.597 16.318 0 30.177 11.947 32.582 28.087 2.101 14.096 12.938 24.991 26.519 27.526v-259.345z" fill="#f9f3f1"/><path d="m276.022 182.817c-5.786-7.843-12.408-12.361-17.005-12.191-4.596-.17-11.218 4.348-17.005 12.191-7.875 10.674-11.216 23.452-7.462 28.541s13.182.561 21.058-10.113c1.255-1.701 2.394-3.457 3.409-5.225 1.015 1.769 2.153 3.524 3.409 5.225 7.875 10.674 17.303 15.202 21.058 10.113 3.754-5.089.413-17.867-7.462-28.541z" fill="#e1d3ce"/><g><path d="m199.816 133.334c-4.171 5.797-6.726 13.595-6.726 22.172 0 17.898 11.125 32.407 24.849 32.407 4.453 0 8.633-1.528 12.248-4.204 5.683-4.207 8.853-11.01 8.853-18.081z" fill="#e1d3ce"/><path d="m199.816 126.333c-4.171 5.797-6.726 13.595-6.726 22.172 0 17.898 11.125 32.407 24.849 32.407 8.903 0 16.713-6.107 21.101-15.284z" fill="#00366d"/></g><g><path d="m319.318 133.334c4.171 5.797 6.726 13.595 6.726 22.172 0 17.898-11.125 32.407-24.849 32.407-4.453 0-8.633-1.528-12.248-4.204-5.683-4.207-8.853-11.01-8.853-18.081z" fill="#e1d3ce"/><path d="m319.318 126.333c4.171 5.797 6.726 13.595 6.726 22.172 0 17.898-11.125 32.407-24.849 32.407-8.903 0-16.713-6.107-21.101-15.284z" fill="#00366d"/></g><g fill="#e1d3ce"><path d="m253.736 254.155h10.562v24.631h-10.562z"/><path d="m223.59 254.155h10.562v24.631h-10.562z"/><path d="m283.881 254.155h10.562v24.631h-10.562z"/><path d="m233.308 125.805-36.753-13.691c-4.33-1.613-6.533-6.431-4.92-10.761 1.613-4.33 6.431-6.533 10.761-4.92l36.753 13.691c4.33 1.613 6.533 6.431 4.92 10.761-1.612 4.33-6.43 6.533-10.761 4.92z"/><path d="m284.726 125.805 36.753-13.691c4.33-1.613 6.533-6.431 4.92-10.761-1.613-4.33-6.431-6.533-10.761-4.92l-36.753 13.691c-4.33 1.613-6.533 6.431-4.92 10.761 1.612 4.33 6.43 6.533 10.761 4.92z"/></g><g><path d="m216.436 385.133h85.163v36.11h-85.163z" fill="#f9f3f1"/><path d="m216.436 385.133h85.163v9.486h-85.163z" fill="#fff"/></g><g><path d="m216.436 434.985h85.163v36.11h-85.163z" fill="#f9f3f1"/><path d="m216.436 434.985h85.163v9.486h-85.163z" fill="#fff"/></g><path d="m112.248 464.463c40.215 29.262 89.712 46.537 143.252 46.537 53.281 0 102.867-17.2 143.226-46.537z" fill="#e1d3ce"/></g></g></svg>