<svg id="Layer_1" enable-background="new 0 0 510 510" height="512" viewBox="0 0 510 510" width="512" xmlns="http://www.w3.org/2000/svg"><g><g><path d="m255 0c-98.131 0-158.58 55.352-158.747 55.445 0 0-2.513 3.137-2.983 5.222-3.818 16.948-7.385 39.663-7.385 56.238 0 140.833 118.763 254.972 259.596 254.972 54.231 0 114.568-25.992 154.949-57.243.903-.699 3.769-5.396 3.769-5.396.178-1.087 5.8-23.477 5.8-54.239.001-140.832-114.166-254.999-254.999-254.999z" fill="#bd80e1"/><path d="m345.459 364.679c-140.833 0-255-114.167-255-255 0-18.615 2.007-36.753 5.795-54.234-58.645 46.72-96.254 118.747-96.254 199.555 0 104.737 63.145 194.727 153.442 233.975l203.522-.212c73.683-32.189 129.632-98.272 147.235-179.524-43.559 34.695-98.724 55.44-158.74 55.44z" fill="#af66da"/></g><g><path d="m254.466 102.974c-65.107 0-105.213 36.724-105.324 36.786 0 0-1.667 2.081-1.979 3.465-2.533 11.245-4.9 26.315-4.9 37.312 0 51.658 24.092 97.895 61.419 128.922h197.055c10.604 0 19.733-7.484 21.813-17.882.621-5.495 1.101-12.1 1.101-19.419 0-93.437-75.746-169.184-169.185-169.184z" fill="#dff6fd"/><path d="m283.368 136.287c-.058 0-.114.003-.172.003v32.889c20.173 5.473 37.986 16.676 51.592 31.749l33.564-22.951c-19.66-25.361-50.411-41.69-84.984-41.69z" fill="#fff"/><path d="m340.379 207.667c7.934 10.367 14.033 22.213 17.786 35.064h32.671c-.201-21.238-6.563-41.001-17.381-57.593-11.216 7.221-22.268 14.693-33.076 22.529z" fill="#fff"/><g><path d="m210.835 309.46c-39.872-30.951-65.537-79.334-65.537-133.717 0-12.351 1.332-24.384 3.845-35.983-38.909 30.997-63.861 78.785-63.861 132.399 0 7.756.525 15.39 1.538 22.868.007.049.013.098.02.146 1.12 8.21 8.213 14.287 16.499 14.287z" fill="#c4e2ff"/></g></g><path d="m340.999 416.926h-173.066l58.892 91.532c9.251 1.019 18.652 1.542 28.175 1.542 36.136 0 70.65-7.562 101.963-21.241z" fill="#004281"/><path d="m153.45 488.958c22.908 9.957 47.561 16.648 73.377 19.485v-91.517h-58.894z" fill="#00366d"/><path d="m389.525 308.829c-22.936 0-22.936-20-45.872-20-22.933 0-22.933 20-45.866 20-22.934 0-22.934-20-45.867-20s-22.933 20-45.865 20c-.038 0-.073-.003-.111-.003v37.295h166.695c22.54 0 42.252-15.559 47.078-37.576.029-.133.058-.267.087-.4.076-.462 1.636-6.743 2.746-16.567-11.32 5.479-15.423 17.251-33.025 17.251z" fill="#00f2a6"/><path d="m209.768 308.632c-1.171.124-2.401.197-3.714.197-22.932 0-22.932-20-45.865-20-22.934 0-22.934 20-45.867 20-14.441 0-19.791-7.929-27.498-13.803 11.217 83.006 82.331 146.318 167.641 146.318 80.393 0 148.695-56.382 165.337-133.199-28.9 23.02-65.501 36.783-105.32 36.783-39.539 0-75.909-13.567-104.714-36.296z" fill="#14d1b2"/><path d="m185.466 402.836v1.677c0 20.341 16.49 36.831 36.831 36.831h104.077c21.268 0 38.508-17.241 38.508-38.508z" fill="#fe9722"/><path d="m187.534 402.836h-43.003c0 21.268 17.241 38.508 38.509 38.508h43.003c-21.268 0-38.509-17.241-38.509-38.508z" fill="#ff6400"/><g><path d="m98.66.812c7.494 43.343 41.438 77.287 84.781 84.781-43.343 7.494-77.287 41.438-84.781 84.781-7.494-43.343-41.438-77.287-84.781-84.781 43.343-7.493 77.287-41.438 84.781-84.781z" fill="#ffe177"/><path d="m99.611 165.606c3.047-15.984 11.661-67.401-.951-80.013s-64.026-3.999-80.011-.952c-1.578.349-3.165.674-4.77.952 43.343 7.494 77.287 41.438 84.781 84.781 0 0 .001-.003.001-.003.277-1.603.601-3.188.95-4.765z" fill="#fec344"/></g><g><path d="m278.952 105.637c4.211 24.358 23.288 43.434 47.646 47.646-24.358 4.211-43.434 23.288-47.646 47.646-4.211-24.358-23.288-43.434-47.646-47.646 24.358-4.212 43.435-23.288 47.646-47.646z" fill="#ffe177"/><path d="m279.487 198.248c1.713-8.982 6.553-37.878-.534-44.966s-35.982-2.248-44.965-.535c-.887.196-1.779.379-2.68.535 24.358 4.211 43.434 23.288 47.646 47.646v-.002c.154-.901.337-1.792.533-2.678z" fill="#fec344"/></g><g><path d="m408.81 7.8c4.211 24.358 23.288 43.434 47.646 47.646-24.358 4.211-43.434 23.288-47.646 47.646-4.211-24.358-23.288-43.434-47.646-47.646 24.358-4.212 43.435-23.288 47.646-47.646z" fill="#ffe177"/><path d="m409.344 100.411c1.713-8.982 6.553-37.878-.535-44.966-7.087-7.088-35.982-2.248-44.965-.535-.887.196-1.779.379-2.68.535 24.358 4.211 43.434 23.288 47.646 47.646v-.002c.156-.901.338-1.792.534-2.678z" fill="#fec344"/></g><g><path d="m456.455 145.07c3.146 18.195 17.396 32.446 35.591 35.591-18.195 3.146-32.446 17.396-35.591 35.591-3.146-18.195-17.396-32.446-35.591-35.591 18.195-3.145 32.446-17.396 35.591-35.591z" fill="#ffe177"/><path d="m456.855 214.251c1.279-6.71 4.895-28.295-.399-33.59-5.294-5.294-26.878-1.679-33.589-.399-.662.147-1.329.283-2.002.399 18.195 3.146 32.446 17.396 35.591 35.591v-.001c.116-.672.252-1.338.399-2z" fill="#fec344"/></g></g></svg>