<svg id="Layer_1" enable-background="new 0 0 510 510" height="512" viewBox="0 0 510 510" width="512" xmlns="http://www.w3.org/2000/svg"><g><g><path d="m255 23.863c-93.539 0-151.16 52.762-151.319 52.851 0 0-2.396 2.99-2.843 4.978-3.64 16.155-7.04 37.807-7.04 53.607 0 134.243 113.206 243.042 247.449 243.042 51.694 0 109.207-24.776 147.699-54.564.861-.666 3.593-5.144 3.593-5.144.169-1.036 5.529-22.378 5.529-51.701 0-134.243-108.825-243.069-243.068-243.069z" fill="#fd3581"/><path d="m341.226 371.479c-134.243 0-243.068-108.826-243.068-243.068 0-17.744 1.914-35.033 5.524-51.696-55.901 44.534-91.75 113.19-91.75 190.217 0 46.737 13.191 90.394 36.053 127.45l414.012.038c14.155-22.94 24.623-48.464 30.543-75.787-41.522 33.071-94.105 52.846-151.314 52.846z" fill="#e41e7f"/></g><g><path d="m424.721 355.59c-4.432-2.115-9.121-3.818-14.028-5.054-.781-.197-1.567-.383-2.358-.558l-106.786-2.158-252.582 44.416c-.334.707-.657 1.42-.971 2.138.973 1.577 1.963 3.142 2.971 4.694l78.879 76.27c1.84 1.108 3.696 2.192 5.568 3.252l97.622 10.149 207.801-65.132c1.763-2.088 3.491-4.206 5.184-6.354z" fill="#fdbd81"/><path d="m461.003 392.241-87.349-8.247-322.688 15.075c5.561 8.569 11.643 16.767 18.206 24.547l52.445 8.788 324.401-15.155c5.74-7.282 11.078-14.902 15.973-22.834-.319-.73-.648-1.455-.988-2.174z" fill="#e1d3ce"/><path d="m424.714 355.604h-308.859l-47.796 11.305c-8.017 7.014-14.515 15.656-19.084 25.331h412.029c-7.506-15.873-20.21-28.962-36.29-36.636z" fill="#fff"/><path d="m411.81 350.843c-.374-.1-.741-.213-1.117-.307-.781-.197-1.567-.383-2.358-.558l-132.867-29.401-52.598 2.457-121.252 26.912c-.791.175-1.576.362-2.357.559-11.861 2.994-22.44 8.724-31.208 16.397z" fill="#f9f3f1"/><path d="m295.933 478.583h-160.515c35.309 19.992 76.109 31.417 119.582 31.417 37.54 0 73.245-8.557 105.162-23.899z" fill="#e1d3ce"/><path d="m246.722 444.159-139.069 16.089c7.1 5.422 14.509 10.461 22.195 15.087l230.311 10.759c14.954-7.187 29.076-15.863 42.167-25.845z" fill="#f9f3f1"/><g><g><g><path d="m255.264 390.565c-21.794 0-39.461-17.667-39.461-39.461v-88.387h78.923v88.387c-.001 21.794-17.668 39.461-39.462 39.461z" fill="#f79480"/></g></g></g><g><g><g><path d="m294.725 317.019v-44.466h-78.923v44.466c0 21.794 17.667 39.461 39.461 39.461 21.795 0 39.462-17.667 39.462-39.461z" fill="#ea806b"/></g></g></g><g><g><g><path d="m367.296 201.852v-66.591c14.507 0 26.268 11.76 26.268 26.268v14.056c0 14.506-11.761 26.267-26.268 26.267z" fill="#f79480"/></g></g></g><g><g><g><path d="m367.296 180.18v-23.248c5.065 0 9.17 4.106 9.17 9.17v4.907c0 5.065-4.105 9.171-9.17 9.171z" fill="#fd5ca6"/></g></g></g><g><g><g><path d="m115.855 175.584c0 14.507 11.76 26.268 26.268 26.268v-66.591c-14.507 0-26.268 11.76-26.268 26.268z" fill="#f79480"/></g></g></g><g><g><g><path d="m132.92 171.018c0 5.083 4.12 9.203 9.203 9.203v-23.331c-5.083 0-9.203 4.12-9.203 9.203z" fill="#fd5ca6"/></g></g></g><g><g><g><path d="m206.858 174.987v7.9c0 5.153 4.178 9.331 9.331 9.331s9.331-4.178 9.331-9.331v-7.9z" fill="#f79480"/></g></g></g><g><g><g><path d="m282.887 174.987v7.9c0 5.153 4.178 9.331 9.331 9.331s9.331-4.178 9.331-9.331v-7.9z" fill="#f79480"/></g></g></g><g><path d="m367.296 139.54-12.062-18.438 11.651-18.197c-.288-3.383-.726-6.724-1.307-10.015l-19.033-45.428h-147.923c-2.853.627-5.862.345-8.613-.785-1.026-.36-2.002-.838-2.911-1.416h-8.465l-1.821 220.362c-.192 23.233 18.875 42.018 42.102 41.479l105.944-2.455c3.659-2.904 7.133-6.032 10.4-9.364l31.447-66.86c.189-1.846.334-3.705.433-5.577.105-1.985-7.904-16.299-7.904-18.31l8.062-18.318z" fill="#fdbd81"/></g><path d="m179.125 215.743v-103.157l-16.143-65.299c-2.061 2.889-3.988 5.88-5.774 8.963l-15.086 83.29v46.678l4.784 62.197c1.076 3.574 2.323 7.071 3.733 10.482h37.008c-5.482-13.269-8.522-27.832-8.522-43.154z" fill="#f79480"/><g><g><g><path d="m216.189 184.744c-5.153 0-9.331-4.178-9.331-9.331v-12.003l3.44-5.209-3.44-5.209v-3.1c0-5.153 4.178-9.331 9.331-9.331s9.331 4.178 9.331 9.331v25.52c0 5.154-4.178 9.332-9.331 9.332z" fill="#00366d"/></g></g></g><g><g><g><path d="m292.218 184.744c-5.153 0-9.331-4.178-9.331-9.331v-12.003l3.44-5.209-3.44-5.209v-3.1c0-5.153 4.178-9.331 9.331-9.331s9.331 4.178 9.331 9.331v25.52c0 5.154-4.178 9.332-9.331 9.332z" fill="#00366d"/></g></g></g><g><g><g><g><path d="m228.483 130.433h-27.212c-5.153 0-9.331-4.178-9.331-9.331 0-5.153 4.178-9.331 9.331-9.331h27.212c5.153 0 9.331 4.178 9.331 9.331-.001 5.153-4.178 9.331-9.331 9.331z" fill="#004281"/></g></g></g></g><g><g><g><g><path d="m306.241 130.433h-27.212c-5.153 0-9.331-4.178-9.331-9.331 0-5.153 4.178-9.331 9.331-9.331h27.212c5.153 0 9.331 4.178 9.331 9.331 0 5.153-4.178 9.331-9.331 9.331z" fill="#004281"/></g></g></g></g><g><g><g><path d="m240.145 197.99c-2.32 9.263 1.896 19.353 9.958 22.394 1.622.612 3.358.943 5.161.943 1.804 0 3.539-.331 5.161-.943 8.062-3.041 12.277-13.131 9.958-22.394l-7.69-30.707c-1.936-7.731-12.922-7.731-14.858 0z" fill="#f79480"/></g></g></g><g><path d="m210.298 166.851c-1.9 0-3.44-1.54-3.44-3.44v-10.417c0-1.9 1.54-3.44 3.44-3.44 1.9 0 3.44 1.54 3.44 3.44v10.417c0 1.9-1.54 3.44-3.44 3.44z" fill="#fff"/></g><g><path d="m286.327 166.851c-1.9 0-3.44-1.54-3.44-3.44v-10.417c0-1.9 1.54-3.44 3.44-3.44 1.9 0 3.44 1.54 3.44 3.44v10.417c-.001 1.9-1.541 3.44-3.44 3.44z" fill="#fff"/></g><g><path d="m274.447 246.872h-39.475c-3.074 0-5.566-2.492-5.566-5.566v-4.94h50.608v4.94c-.001 3.074-2.493 5.566-5.567 5.566z" fill="#fff"/></g><g fill="#fff"><path d="m142.123 186.218v25.197l12.541 11.439h212.632v-36.636z"/><path d="m153.45 102.904-11.327 10.88v25.756h225.173v-36.636z"/><path d="m324.417 23.863-101.267-8.651-37.751 8.654c-8.546 6.686-16.102 14.581-22.41 23.426l173.415 13.131 6.887-17.323c-5.41-7.149-11.275-13.49-18.874-19.237z"/></g><path d="m361.438 76.664-15.133-20.409h-189.089c-3.629 6.267-6.673 12.914-9.054 19.869l9.144 16.766h208.266c-.982-5.559-2.37-10.979-4.134-16.226z" fill="#e1d3ce"/><path d="m343.291 43.1-195.125 33.025c-3.913 11.436-6.043 23.699-6.043 36.461v1.197l219.319-37.12c-4.129-12.271-10.318-23.593-18.151-33.563z" fill="#f9f3f1"/><path d="m185.306 304.645c20.825 16.41 47.467 25.637 76.03 24.076-.002-.001-.003-.001-.005-.002 4.542-.242 8.571-.793 8.671-.804 20.565-2.703 39.373-10.983 54.856-23.271h-139.552z" fill="#fff"/><path d="m142.123 211.415v4.328c0 11.382 1.68 22.344 4.788 32.67l199.063 15.073 18.505-21.586c.973-4.262 1.702-8.616 2.174-13.047v-.437z" fill="#e1d3ce"/><path d="m150.533 258.642c2.573 6.273 5.693 12.257 9.298 17.896l31.163 18.74h144.26c4.18-4.262 8.022-8.857 11.482-13.741l1.468-22.895z" fill="#f9f3f1"/><path d="m364.479 241.901-204.649 34.637c7.908 12.377 18.151 23.089 30.073 31.546l156.836-26.545c8.32-11.742 14.431-25.156 17.74-39.638z" fill="#fff"/><path d="m69.181 423.609c11.448 13.564 24.352 25.855 38.474 36.636h294.667c14.122-10.77 27.05-23.053 38.518-36.636z" fill="#fff"/><path d="m199.904 23.863h-14.507c-8.544 6.684-16.1 14.574-22.408 23.417v120.638l36.915-21.355z" fill="#fff"/></g><path d="m324.417 23.863c-15.453-12.086-34.14-20.229-54.55-22.901h.001c-1.036-.098-6.649-.962-14.754-.962h-.001c-26.133 0-50.197 8.911-69.312 23.863z" fill="#f9f3f1"/></g></svg>