<svg id="Layer_1" enable-background="new 0 0 510 510" height="512" viewBox="0 0 510 510" width="512" xmlns="http://www.w3.org/2000/svg"><g><g><path d="m255 0c-98.131 0-158.58 55.352-158.747 55.445 0 0-2.513 3.137-2.983 5.222-3.818 16.948-7.385 39.663-7.385 56.238 0 140.833 118.763 254.972 259.596 254.972 54.231 0 114.568-25.992 154.949-57.243.903-.699 3.769-5.396 3.769-5.396.178-1.087 5.8-23.477 5.8-54.239.001-140.832-114.166-254.999-254.999-254.999z" fill="#dff6fd"/><path d="m345.459 364.679c-140.833 0-255-114.167-255-255 0-18.615 2.007-36.753 5.795-54.234-58.645 46.72-96.254 118.747-96.254 199.555 0 18.602 1.992 36.738 5.774 54.208l54.578 110.533c26.311 31.057 59.921 55.733 98.182 71.38l13.416-19.668 20.883 30.914c19.898 4.986 40.723 7.633 62.167 7.633 8.993 0 17.885-.468 26.653-1.382l27.497-25.164 28.634 12.778c30.906-10.612 59.208-27.009 83.548-47.958l76.543-115.403c2.469-7.717 4.584-15.601 6.324-23.633-43.559 34.696-98.724 55.441-158.74 55.441z" fill="#c4e2ff"/></g><g><g><path d="m78.579 366.902 46.295 46.295c25.568-25.568 25.568-67.022 0-92.591z" fill="#14d1b2"/><path d="m92.959 352.166c-6.513-24.727-29.027-42.962-55.8-42.962h-31.366c6.726 31.068 19.111 60.023 36.024 85.737 9.746 2.978 20.34.306 27.509-6.938l22.658-22.898c0-5.093 2.214-8.235.975-12.939z" fill="#6cf5c2"/><path d="m94.858 366.902c0-5.094-.667-10.03-1.906-14.735-6.132 23.278-26.439 40.799-51.135 42.773 5.686 8.644 11.882 16.92 18.548 24.789 20.307-8.933 34.493-29.218 34.493-52.827z" fill="#14d1b2"/></g><circle cx="56.823" cy="339.461" fill="#fff" r="23.374"/></g><g><path d="m508.046 116.41-8.503-7.928 4.705-14.227c-3.55-12.837-9.307-24.766-16.836-35.353l-13.995-16.212c-10.912-10.473-23.911-18.789-38.301-24.255l-30.005-6.887c-3.55-.316-7.147-.467-10.783-.446-45.562.261-84.393 27.669-102.226 66.581l-8.956 29.428c-.984 6.054-1.495 12.26-1.495 18.574v169.162l6.845 9.484-6.845 14.876v119.831l7.176 9.227-7.176 15.132v45.21c9.512-.992 18.876-2.508 28.063-4.521l16.434-380.411c0-31.841 36.89-77.111 68.841-76.624 31.391.479 77.14 32.679 77.14 64.073l1.651 67.654c0 15.762-8.59 54.68 7.27 54.246 15.243-.418 27.276-13.317 27.276-28.637v-17.237l-4.128-9.97 4.128-14.389v-38.352c.001-2.7-.094-5.377-.28-8.029z" fill="#af66da"/><path d="m390.987 39.265c-45.313 2.094-81.271 39.546-81.271 85.172v379.655c9.56-2.095 18.925-4.732 28.064-7.871v-31.837-177.878l-7.008-11.236 7.008-13.124v-46.56l-6.347-9.343 6.347-15.016v-45.148l-6.677-8.202c0-.925 6.699-15.284 6.743-16.198 1.444-30.269 26.523-54.45 57.144-54.45 9.254 0 18.011 2.217 25.765 6.15l16.697.756 1.077 13.251c8.516 9.987 13.671 22.927 13.671 37.053l9.421 8.155-9.421 16.336v46.561l3.194 22.497c4.691 8.945 14.068 15.048 24.869 15.048v-108.599c0-48.336-40.286-87.437-89.276-85.172z" fill="#814ba1"/><g><path d="m337.78 124.437c0-.925.026-1.844.07-2.759l-56.198 32.74v24.36l56.128-32.699z" fill="#fef48b"/><path d="m337.78 335.417-56.128 32.7v24.359l56.128-32.699z" fill="#fff"/><g fill="#fef48b"><path d="m508.012 116.413c-.536-7.614-1.822-15.02-3.794-22.149l-52.018 30.305v24.359z"/><path d="m337.78 191.227-56.128 32.699v24.36l56.128-32.7z"/><path d="m337.78 262.147-56.128 32.699v24.36l56.128-32.7z"/><path d="m291.841 77.562c-4.221 9.25-7.259 19.148-8.86 29.521l152.126-88.626c-9.464-3.595-19.528-5.951-29.999-6.882z"/><path d="m337.78 406.338-56.128 32.699v24.359l56.128-32.699z"/><path d="m452.199 195.489v9.481c0 4.698 1.169 9.118 3.21 13.008l52.919-30.829v-24.359z"/><path d="m473.395 42.713-52.643 30.669c6.822 3.456 12.859 8.235 17.776 14.004l48.858-28.464c-4.152-5.837-8.837-11.262-13.991-16.209z"/></g></g></g><g><path d="m158.571 491.117c11.056 4.52 22.496 8.289 34.264 11.237l.089-166.672-20.975-18.934-13.295 18.552z" fill="#fef48b"/><path d="m177.351 336.582c5.263.003 10.454-.323 15.573-.9l.026-48.239-34.27-.018-.025 47.876c6.114.835 12.353 1.278 18.696 1.281z" fill="#fec344"/><path d="m177.514 29.607c-52.86-.028-85.439 29.771-85.528 29.821 0 0-1.355 1.689-1.608 2.812-2.062 9.129-3.99 21.363-3.994 30.292-.04 75.863 63.901 137.38 139.764 137.421 29.213.016 61.722-13.968 83.483-30.791.487-.376 2.032-2.906 2.032-2.906.096-.585 3.131-12.645 3.14-29.215.04-75.862-61.426-137.394-137.289-137.434z" fill="#fd3581"/><path d="m226.137 226.075c-13.716-.007-30.612 7.626-43.108 3.878-9.801-2.94-15.49-16.596-24.236-21.532-41.776-23.578-69.972-68.391-69.945-119.78.005-10.027 1.092-19.797 3.137-29.213-31.604 25.15-51.883 63.938-51.906 107.467-.018 34.496 12.681 66.028 33.668 90.164l71.897 43.572c10.183 2.413 20.804 3.693 31.724 3.699 65.271.035 120.75-45.712 134.294-108.073-23.474 18.676-53.195 29.835-85.525 29.818z" fill="#e41e7f"/><g><path d="m69.521 180.577c4.272-.189 8.328.629 12.027 2.208 2.887-53.632 47.439-96.366 101.772-96.337 43.624.023 79.095 35.533 79.072 79.156-.018 33.584-27.356 60.893-60.94 60.875-25.553-.014-46.332-20.814-46.318-46.367.01-19.128 15.58-34.682 34.709-34.672 13.989.007 25.362 11.393 25.355 25.382-.005 9.876-8.044 17.907-17.921 17.901l-.013 23.837c23.02.012 41.758-18.706 41.771-41.726.014-27.132-22.048-49.218-49.18-49.232-32.272-.017-58.542 26.225-58.559 58.497-.021 38.698 31.445 70.197 70.143 70.217 46.729.025 84.765-37.971 84.79-84.7.03-56.768-46.129-102.976-102.897-103.007-67.636-.036-122.985 53.628-125.665 120.625 3.727-1.548 7.746-2.475 11.854-2.657z" fill="#fff"/></g><g fill="#fff"><path d="m226.137 226.075c-4.517-.002-8.98-.229-13.385-.658-3.665.689-7.438 1.064-11.3 1.062-12.162-.006-23.235-4.728-31.507-12.423-14.145-6.359-27.017-15.044-38.133-25.564 4.144 34.755 33.772 61.806 69.628 61.825 25.976.014 49.254-11.732 64.822-30.186-12.695 3.866-26.165 5.952-40.125 5.944z"/><path d="m81.394 188.265c.01-19.665 5.637-38.032 15.335-53.614-3.418-9.632-5.789-19.758-6.982-30.243-19.987 22.253-32.173 51.649-32.191 83.844-.013 24.709 5.827 48.077 16.194 68.804 18.524 21.303 43.504 36.838 71.896 43.567-38.442-22.704-64.278-64.571-64.252-112.358z"/></g></g><g><path d="m287.736 390.565-46.295 46.295c-25.568-25.568-25.568-67.022 0-92.591z" fill="#ff6400"/><path d="m449.003 332.867h-45.865l-29.1 15.395-33.422-15.395h-10.914c-26.773 0-49.287 18.235-55.8 42.962-1.239 4.704 2.374 11.554 2.374 16.647 0 31.866 29.235 45.95 61.101 45.95l56.32-.435c28.639-.221 53.222-20.507 58.789-48.601z" fill="#fe9722"/><path d="m329.703 418.795c-26.773 0-49.28-18.237-55.793-42.964-1.239 4.704-1.906 9.641-1.906 14.734 0 27.343 19.02 50.244 44.552 56.194l28.418-9.654 33.786 11.159h42.563c1.364-1.174 2.716-2.362 4.055-3.565l12.049-25.904z" fill="#ff6400"/><g fill="#fec344"><path d="m497.861 332.867h-48.858l-23.625 111.832c33.132-29.753 58.496-68.123 72.483-111.832z"/><path d="m316.56 446.742c4.224.984 8.619 1.522 13.143 1.522h49.057l24.378-115.397h-62.521z"/></g></g></g></svg>