<svg id="Layer_1" enable-background="new 0 0 510 510" height="512" viewBox="0 0 510 510" width="512" xmlns="http://www.w3.org/2000/svg"><g><g><path d="m472.501 121.821-16.59-7.432-.051-16.506c-16.382-20.913-35.959-39.203-57.996-54.136l-6 4.147-6-11.799c-38.257-22.92-83.022-36.095-130.864-36.095-1.712 0-3.412.017-5.101.05l-4.624 6.659-11.056-5.875c-13.391 1.079-25.958 3.149-37.633 5.875l-4.674 7.717-8.326-4.321c-55.202 15.974-87.212 45.272-87.333 45.34 0 0-2.513 3.137-2.983 5.222-3.818 16.948-7.385 39.663-7.385 56.238 0 140.833 118.763 254.972 259.596 254.972 54.231 0 114.568-25.992 154.949-57.243.903-.699 3.769-5.396 3.769-5.396.178-1.087 5.8-23.477 5.8-54.239.001-48.809-13.713-94.417-37.498-133.178z" fill="#dff6fd"/><path d="m345.459 364.679c-140.833 0-255-114.167-255-255 0-18.615 2.008-36.753 5.795-54.234-25.626 20.416-47.236 45.663-63.446 74.364l-2.95 16.065-11.341 13.568c-6.111 15.105-10.817 30.927-13.956 47.307l2.838 16.851-6.098 5.489c-.86 8.52-1.301 17.164-1.301 25.911 0 38.72 8.63 75.424 24.071 108.294l7.108 4.086 3.257 15.674c2.239 3.849 4.576 7.633 7.008 11.351l9.111-1.704-1.268 13.018c1.392 1.897 2.81 3.774 4.252 5.63l13.529-.592-5.216 10.741c46.762 54.197 115.949 88.502 193.148 88.502 121.17 0 224.116-84.98 249.2-200.761-43.56 34.695-98.725 55.44-158.741 55.44z" fill="#c4e2ff"/></g><g fill="#00f2a6"><path d="m34.436 383.053c1.383-8.149 2.393-16.381 3.027-24.685 2.702-35.413-1.518-70.575-12.544-104.511-5.342-16.441-12.146-32.177-20.357-47.108-1.406 7.34-2.498 14.791-3.26 22.34 4.28 9.291 8.04 18.897 11.253 28.785 11.243 34.603 15.03 70.354 11.517 105.42 3.172 6.753 6.632 13.345 10.364 19.759z"/><path d="m472.501 121.821c-2.268-3.697-4.628-7.331-7.077-10.9-21.641 14.136-41.02 31.214-57.847 51.011-23.001 27.062-40.254 57.989-51.281 91.924-11.026 33.936-15.247 69.098-12.545 104.511 1.995 26.142 7.718 51.571 17.066 75.928-20.276-16.417-42.692-29.718-66.938-39.694-32.845-13.513-67.591-20.365-103.272-20.365s-70.428 6.852-103.272 20.365c-11.703 4.815-22.98 10.405-33.795 16.746 2.685 3.455 5.457 6.839 8.313 10.149 38.697-22.359 82.757-34.259 128.755-34.259 69.976 0 135.47 27.541 184.416 77.55l9.609 9.818c2.521-1.491 5.016-3.024 7.481-4.598l-6.685-12.779c-32.436-62.004-38.391-132.803-16.767-199.354 18.401-56.639 54.772-104.025 103.839-136.053z"/><path d="m234.219.834c16.436 22.256 36.14 41.787 58.79 58.243 28.867 20.973 61.004 35.853 95.519 44.227 25.212 6.116 50.883 8.545 76.661 7.274-2.981-4.33-6.092-8.563-9.328-12.694-55.458.898-109.44-16.069-155.21-49.323-19.313-14.031-36.319-30.35-50.751-48.51-5.345.104-10.573.372-15.681.783z"/></g><path d="m306.594 359.662-.389-9.734c-1.455-36.423 3.559-72.593 14.903-107.505 11.348-34.923 28.558-67.14 51.151-95.756l6.034-7.642-9.372-2.642c-42.698-12.037-83.12-33.665-116.896-62.546-21.482-18.37-40.325-39.609-56.007-63.128l-2.221-3.332c-2.62.643-5.194 1.318-7.721 2.021l-.874 1.311c-15.682 23.522-34.525 44.764-56.009 63.135-28.316 24.214-61.303 43.329-96.385 55.966-5.374 9.515-10.154 19.409-14.291 29.633 17.94 25.317 31.902 53.162 41.591 82.98 11.344 34.912 16.358 71.082 14.903 107.504l-.389 9.734 9.138-3.378c34.189-12.639 70.138-19.047 106.849-19.047 36.709 0 72.659 6.409 106.849 19.047zm-115.987-35.425c-35.05 0-69.442 5.609-102.368 16.682.356-34.738-4.937-69.179-15.768-102.513-10.834-33.346-26.801-64.327-47.518-92.229 41.118-12.948 79.909-34.422 112.688-62.454 19.974-17.08 37.76-36.542 52.969-57.947 15.208 21.403 32.993 40.862 52.966 57.94 32.779 28.029 71.57 49.504 112.688 62.455-20.718 27.901-36.686 58.885-47.521 92.233-10.831 33.334-16.124 67.776-15.768 102.514-32.926-11.072-67.318-16.681-102.368-16.681z" fill="#14d1b2"/><g><g><path d="m258.621 293.633-6.592-1.142c-40.257-6.974-82.58-6.974-122.842 0l-6.592 1.142-.951-6.622c-2.905-20.224-7.609-40.424-13.983-60.039-6.381-19.64-14.462-38.773-24.018-56.868l-3.125-5.917 6.005-2.952c27.165-13.351 52.454-29.968 75.167-49.391 8.401-7.184 16.563-14.849 24.258-22.781l4.666-4.809 4.665 4.809c7.693 7.93 15.853 15.592 24.253 22.775 22.712 19.421 48.002 36.038 75.166 49.389l6.006 2.952-3.125 5.917c-9.556 18.094-17.638 37.229-24.022 56.875-6.374 19.618-11.079 39.818-13.982 60.039zm-68.014-19.396c19.141 0 38.316 1.47 57.099 4.374 3.042-18.76 7.57-37.451 13.485-55.656 5.924-18.233 13.262-36.043 21.846-53.037-25.896-13.296-50.078-29.492-71.955-48.199-7.026-6.008-13.891-12.34-20.47-18.881-6.581 6.543-13.447 12.877-20.475 18.887-21.879 18.71-46.058 34.904-71.957 48.201 8.584 16.994 15.92 34.801 21.842 53.029 5.915 18.202 10.442 36.893 13.486 55.655 18.784-2.903 37.96-4.373 57.099-4.373z" fill="#00f2a6"/></g></g><g><g><path d="m218.299 238.135c-5.793-.089-14.362-1.818-55.382 0-7.382-26.685-7.374-26.674-17.131-52.713l4.449-2.868c22.201-14.313 38.677-28.329 40.379-29.646 2.616 2.026 17.538 14.917 40.371 29.638l4.449 2.868c-9.718 25.927-9.722 25.92-17.135 52.721zm-27.692-13.898c5.921 0 11.91.126 17.868.376 3.09-11.07 6.724-22.381 11.057-34.023-9.93-6.58-19.623-13.608-28.917-20.971-9.298 7.365-18.994 14.397-28.928 20.979 4.082 10.971 7.767 22.239 11.054 34.015 5.957-.25 11.945-.376 17.866-.376z" fill="#14d1b2"/></g></g><path d="m461.458 105.302-264.871 87.026v-185.619c-4.465 1.042-8.8 2.181-13 3.396v182.214l-156.584-51.623c-1.957 3.894-3.816 7.845-5.576 11.85l158.156 52.141-138.139 189.717c2.515 3.845 5.13 7.617 7.843 11.314l140.814-193.389 184.323 251.752 10.489-7.68-184.295-251.713 268.505-88.221c-2.458-3.792-5.014-7.515-7.665-11.165z" fill="#00f2a6"/><path d="m397.864 43.747c-3.923-2.658-7.925-5.211-12-7.652v310.319h12z" fill="#14d1b2"/><g><g><g><path d="m374.907 351.415c-1.525 0-3.03-.695-4.012-2.011l-31.706-42.506c-.644-.864-.992-1.913-.992-2.99v-70.658c0-2.761 2.239-5 5-5s5 2.239 5 5v68.999l30.714 41.175c1.651 2.214 1.195 5.347-1.018 6.998-.898.67-1.947.993-2.986.993z" fill="#814ba1"/></g><g><path d="m374.909 360.283c-.264 0-.53-.021-.799-.064l-55.185-8.868c-.787-.126-1.532-.439-2.174-.912l-36.54-26.939c-1.278-.942-2.033-2.436-2.033-4.024v-38.862c0-2.761 2.239-5 5-5s5 2.239 5 5v36.336l33.53 24.721 53.988 8.675c2.726.438 4.582 3.003 4.143 5.73-.394 2.457-2.518 4.207-4.93 4.207z" fill="#814ba1"/></g><g><path d="m291.302 437.717c-.842 0-1.694-.213-2.477-.66-2.397-1.371-3.23-4.425-1.859-6.822l28.412-49.703c.722-1.262 1.957-2.148 3.385-2.426l55.185-10.752c2.709-.529 5.335 1.241 5.864 3.952.528 2.71-1.241 5.335-3.952 5.864l-52.937 10.314-27.275 47.714c-.924 1.614-2.611 2.518-4.346 2.519z" fill="#814ba1"/></g></g><g><g><path d="m408.183 351.415c-1.04 0-2.088-.323-2.986-.993-2.213-1.651-2.669-4.784-1.018-6.998l30.714-41.176v-68.783c0-2.611 1.909-4.944 4.508-5.192 2.982-.285 5.492 2.053 5.492 4.976v70.076c0 1.455-.47 2.871-1.34 4.038l-31.359 42.04c-.981 1.317-2.487 2.012-4.011 2.012z" fill="#af66da"/></g><g><path d="m408.181 360.283c-2.487 0-4.668-1.861-4.962-4.439-.308-2.692 1.72-5.104 4.396-5.534l53.767-8.64 33.529-24.721v-36.122c0-2.611 1.909-4.944 4.508-5.192 2.982-.285 5.492 2.053 5.492 4.976v38.956c0 1.529-.727 2.968-1.958 3.875l-36.65 27.022c-.618.456-1.336.757-2.093.879l-55.23 8.875c-.269.044-.536.065-.799.065z" fill="#af66da"/></g><g><path d="m491.788 437.717c-1.735 0-3.422-.905-4.345-2.52l-25.859-45.237c-.899-1.573-2.438-2.676-4.216-3.023l-50.137-9.768c-2.71-.528-4.48-3.153-3.952-5.864s3.152-4.481 5.864-3.952l54.633 10.644c1.778.346 3.317 1.45 4.216 3.023l28.049 49.069c1.27 2.222.79 5.117-1.269 6.637-.913.674-1.957.991-2.984.991z" fill="#af66da"/></g></g><g><circle cx="391.864" cy="355.282" fill="#00366d" r="27.731"/></g><path d="m391.864 372.261c-29.766 0-53.895 28.172-53.895 62.924 0 16.852 12.673 34.952 25.728 49.128l55.899.47c13.207-14.244 26.163-32.559 26.163-49.598 0-34.751-24.129-62.924-53.895-62.924z" fill="#004281"/><g><path d="m391.864 510s14.001-10.411 27.731-25.218c-5.64-12.769-16.087-21.351-28.05-21.351-11.818 0-22.16 8.37-27.847 20.882 13.867 15.058 28.166 25.687 28.166 25.687z" fill="#fd3581"/></g></g></g></svg>