<svg id="Layer_1" enable-background="new 0 0 510 510" height="512" viewBox="0 0 510 510" width="512" xmlns="http://www.w3.org/2000/svg"><g><g><path d="m505.701 259.299c0-138.459-112.242-250.702-250.701-250.702-96.476 0-155.907 54.419-156.071 54.511 0 0-2.471 3.084-2.933 5.134-3.754 16.663-7.261 38.994-7.261 55.29 0 138.458 116.761 250.674 255.22 250.674 53.317 0 112.636-25.554 152.337-56.278.888-.687 3.706-5.305 3.706-5.305.175-1.069 5.703-23.081 5.703-53.324z" fill="#dff6fd"/><path d="m343.934 367.129c-138.458 0-250.701-112.243-250.701-250.701 0-18.301 1.974-36.133 5.697-53.32-57.657 45.932-94.631 116.745-94.631 196.191 0 74.684 32.657 141.741 84.47 187.669l338.263-5.316c35.988-33.936 62.019-78.499 72.966-129.029-42.824 34.11-97.059 54.506-156.064 54.506z" fill="#c4e2ff"/></g><g><path d="m323.466 5.674 18.957 5.841 74.229 45.089c8.386 5.094 4.75 17.996-5.063 17.961l-88.123-.318z" fill="#00366d"/><g><g><path d="m361.104 135.166h-128.188l.159 261.159 128.628-.089-.149-253.752c-.002-2.478-.166-4.916-.45-7.318z" fill="#fd3581"/></g></g><g><path d="m239.824 135.166h-92.805c-.293 2.45-.462 4.938-.462 7.467v253.752l102.253-.071-29.854-229.088c-4.277-2.542 17.776-24.656 20.868-32.06z" fill="#e41e7f"/></g><path d="m381.541 381.581c-.731-.188-1.467-.364-2.208-.528l-74.328-16.448-58.844 3.023c-35.991 1.849-64.225 31.57-64.225 67.609v63.937c23.118 7.032 47.647 10.826 73.064 10.826 66.245 0 126.95-25.836 172.032-68.348v-.474c0-27.847-18.522-52.657-45.491-59.597z" fill="#004281"/><path d="m293.148 361.982c-2.427-.499-4.841-1.034-7.242-1.602l-28.265-6.255-121.211 26.903c-.626.139-1.248.287-1.867.443-27.113 6.845-45.795 31.71-45.795 59.673v5.824c26.972 23.909 59.135 42.092 94.585 52.645v-58.469c0-27.963 18.682-52.829 45.795-59.673.618-.156 1.241-.304 1.867-.443l73.99-16.422z" fill="#00366d"/><g><g><g><g><path d="m288.495 368.388c.012 16.876-13.66 30.567-30.536 30.579-16.876.012-30.567-13.66-30.579-30.536l-.034-49.076 61.102-19.411z" fill="#f8958b"/></g></g></g></g><g><path d="m227.336 305.07.013 18.518c.012 16.876 13.702 30.548 30.579 30.536 16.876-.012 30.548-13.702 30.536-30.579l-.026-37.887z" fill="#ea806b"/></g><g><g><g><g><path d="m340.39 168.293c-.216-20.329-16.764-36.691-37.094-36.677l-44.043.031c-24.541.017-46.839 9.602-63.375 25.22l.087 125.922c.022 31.644 25.464 57.59 57.108 57.805.221.002.443.002.665.002 48.387-.034 87.585-39.286 87.552-87.673z" fill="#f9b8ae"/></g></g></g></g><g><g><g><g><path d="m340.39 168.293c-.216-20.329-16.764-36.691-37.094-36.677l-44.043.031c-24.541.017-46.839 9.602-63.375 25.22l.087 125.922c.022 31.644 25.464 57.59 57.108 57.805.221.002.443.002.665.002 48.387-.034 87.585-39.286 87.552-87.673z" fill="#f9b8ae"/></g></g></g></g><g><g><g><g><path d="m361.608 221.81c.008 11.234-9.093 20.347-20.327 20.355l-.036-51.566c11.234-.008 20.347 9.093 20.355 20.327z" fill="#f8958b"/></g></g></g></g><g><g><g><g><path d="m349.52 218.585c.003 4.559-3.69 8.258-8.249 8.261l-.015-20.927c4.559-.003 8.258 3.69 8.261 8.249z" fill="#ea806b"/></g></g></g></g><g><g><g><g><path d="m146.558 221.959c.008 11.234 9.123 20.334 20.357 20.327l-.036-51.566c-11.234.008-20.329 9.121-20.321 20.355z" fill="#f8958b"/></g></g></g></g><g><g><g><g><path d="m158.467 218.764c.003 4.656 3.781 8.428 8.437 8.425l-.015-21.373c-4.656.003-8.428 3.781-8.425 8.437z" fill="#ea806b"/></g></g></g></g><g><g><g><g><path d="m217.028 220.348.005 7.452c.003 3.99 3.24 7.223 7.231 7.221 3.99-.003 7.223-3.24 7.221-7.231l-.005-7.452z" fill="#f8958b"/></g></g></g></g><g><g><g><g><path d="m276.038 220.307.005 7.452c.003 3.99 3.24 7.223 7.231 7.221 3.99-.003 7.223-3.24 7.221-7.231l-.005-7.452z" fill="#f8958b"/></g></g></g></g><g><g><g><g><path d="m283.269 228.958c-3.99.003-7.228-3.23-7.231-7.221l-.005-6.76 2.897-4.359-2.903-4.355-.003-4.288c-.003-3.99 3.23-7.228 7.221-7.231s7.228 3.23 7.231 7.221l.014 19.762c.002 3.991-3.231 7.228-7.221 7.231z" fill="#00366d"/></g></g></g></g><g><g><g><g><path d="m242.819 241.368c-1.792 6.331 1.477 13.223 7.721 15.297 1.256.417 2.6.643 3.997.642s2.74-.228 3.996-.647c6.241-2.082 9.501-8.98 7.7-15.308l-8.782-30.865c-.845-2.969-5.053-2.966-5.894.004z" fill="#f8958b"/></g></g></g></g><g><g><path d="m196.242 135.462c.002 1.352.004 4.22.006 8.243.474-.326.957-.639 1.44-.953-.924-5.881-1.448-9.392-1.446-7.29z" fill="#f8958b"/></g><g><path d="m166.904 226.513.019 27.388c.037 53.325 47.922 94.543 101.535 85.428-40.939-6.935-72.137-42.53-72.167-85.448-.004-32.442-.029-88.338-.042-110.176-17.746 12.208-29.361 59.648-29.345 82.808z" fill="#f8958b"/></g></g><g><g><path d="m289.309 136.319c19.821-.014 40.294 21.212 40.308 41.033l7.397-46.281-46.586.881z" fill="#f8958b"/></g></g><g><g><path d="m207.422 106.285c-4.958.004-9.707.9-14.098 2.53v71.21c.084-.001.166-.013.251-.013 40.713-.037 73.69-33.067 73.662-73.78z" fill="#f8958b"/></g></g><g><g><path d="m332.492 212.185c.075-21.667 2.457-43.181 4.639-64.709 2.146-21.18-13.779-40.297-35.05-41.157-.542-.022-1.086-.033-1.633-.034l-59.815-.053v.118c0 40.682 32.98 73.662 73.662 73.662 8.332 0 15.085 6.758 15.079 15.09l-.02 29.408c-.004 6.418 5.194 11.624 11.612 11.628l.007-10.268c-4.977-2.599-8.501-7.828-8.481-13.685z" fill="#f8958b"/></g></g><g><g><path d="m207.422 96.66c-22.429.02-40.596 18.216-40.58 40.644l.023 33.105.039 56.104c6.418-.004 11.616-5.211 11.612-11.628l-.02-29.394c-.006-8.334 6.745-15.096 15.079-15.104 40.713-.037 73.69-33.067 73.662-73.78z" fill="#e41e7f"/></g></g><g><g><path d="m300.449 96.66c22.429.02 40.596 18.216 40.58 40.644l-.023 33.105-.039 56.104c-6.418-.004-11.616-5.211-11.612-11.628l.02-29.394c.006-8.334-6.745-15.096-15.079-15.104-40.713-.037-73.69-33.067-73.662-73.78z" fill="#fd3581"/></g></g><g><g><path d="m278.936 217.876c-1.602.001-2.901-1.297-2.902-2.898l-.006-8.714c-.001-1.602 1.297-2.901 2.898-2.902 1.602-.001 2.901 1.297 2.902 2.898l.006 8.714c.002 1.601-1.296 2.901-2.898 2.902z" fill="#fff"/></g></g><g><g><path d="m260.026 302.808c-20.299.014-36.822-13.552-36.834-30.241-.002-3.194 2.585-5.785 5.779-5.787s5.785 2.585 5.787 5.779c.007 10.311 11.338 18.692 25.259 18.682 3.194-.002 5.785 2.585 5.787 5.779.003 3.195-2.584 5.786-5.778 5.788z" fill="#f8958b"/></g></g><g><g><ellipse cx="204.628" cy="251.532" fill="#f8958b" rx="22.041" ry="15.5"/></g></g><g><g><ellipse cx="302.001" cy="252.895" fill="#f8958b" rx="22.041" ry="15.5"/></g></g><g><g><path d="m214.346 207.82c-2.767.002-5.535-1.051-8.114-3.161-1.712-1.4-1.964-3.923-.564-5.634s3.922-1.964 5.634-.564c2.243 1.835 3.834 1.834 6.076-.004 1.711-1.402 4.233-1.152 5.634.557 1.403 1.71 1.152 4.233-.557 5.635-2.576 2.111-5.343 3.169-8.109 3.171z" fill="#00366d"/></g></g><g><g><path d="m292.663 206.875c-2.767.002-5.535-1.051-8.114-3.16-1.711-1.4-1.965-3.922-.564-5.634 1.399-1.712 3.921-1.965 5.634-.565 2.243 1.834 3.834 1.834 6.076-.005 1.711-1.401 4.233-1.151 5.634.558 1.403 1.71 1.152 4.233-.557 5.635-2.576 2.112-5.342 3.169-8.109 3.171z" fill="#00366d"/></g></g><g><g><g><g><path d="m224.26 228.999c-3.99.003-7.228-3.23-7.231-7.221l-.004-5.329 2.897-4.359-2.903-4.355-.004-5.718c-.003-3.99 3.23-7.228 7.221-7.231s7.228 3.23 7.231 7.221l.014 19.762c.002 3.99-3.231 7.227-7.221 7.23z" fill="#00366d"/></g></g></g></g><g><g><path d="m219.928 219.348c-1.602.001-2.901-1.297-2.902-2.898l-.006-8.714c-.001-1.602 1.297-2.901 2.898-2.902 1.602-.001 2.901 1.297 2.902 2.898l.006 8.714c.001 1.601-1.296 2.9-2.898 2.902z" fill="#fff"/></g></g><path d="m285.923 89.453h-125.477l-13.888 45.396h139.365z" fill="#fec344"/><path d="m285.458 134.849h76.245l-12.873-45.398c-.023 0-.046.002-.069.002h-63.303z" fill="#fedf30"/><path d="m359.543 127.565h-146.046c3.772 4.411 6.094 10.149 6.371 16.328.268 5.993-2.064 11.587-5.881 15.952h145.556c8.914 0 16.14-7.226 16.14-16.14 0-8.914-7.226-16.14-16.14-16.14z" fill="#004281"/><path d="m215.618 127.565h-71.033c-8.914 0-16.14 7.226-16.14 16.14 0 8.914 7.226 16.14 16.14 16.14h71.033c8.914 0 16.14-7.226 16.14-16.14 0-8.914-7.226-16.14-16.14-16.14z" fill="#00366d"/></g><path d="m329.255 20.416c-3.179-11.819 13.168-8.901 13.168-8.901l-5.918-3.595c-8.529-5.18-18.316-7.92-28.295-7.92h-92.542c-16.552 0-31.162 10.809-36.004 26.637l-19.244 62.902h188.435z" fill="#004281"/></g></svg>