<svg id="Layer_1" enable-background="new 0 0 511 511" height="512" viewBox="0 0 511 511" width="512" xmlns="http://www.w3.org/2000/svg"><g><g><path d="m255.5 1c-98.131 0-158.58 55.352-158.747 55.445 0 0-2.513 3.137-2.983 5.222-3.818 16.948-7.385 39.663-7.385 56.238 0 140.833 118.763 254.972 259.596 254.972 54.231 0 114.568-25.992 154.949-57.243.903-.699 3.769-5.396 3.769-5.396.178-1.087 5.8-23.477 5.8-54.239.001-140.832-114.166-254.999-254.999-254.999z" fill="#bd80e1"/><path d="m345.959 365.679c-140.833 0-255-114.167-255-255 0-18.615 2.007-36.753 5.795-54.234-58.645 46.72-96.254 118.747-96.254 199.555 0 67.28 26.056 128.474 68.627 174.042l318.241 44.225c27.901-16.883 52.361-38.983 71.974-65.025l5.382-40.462 23.023-7.347c7.359-16.199 13.083-33.33 16.953-51.195-43.56 34.696-98.725 55.441-158.741 55.441z" fill="#af66da"/></g><g><path d="m437.686 123.186-57.264-89.542 89.467 360.488c6.709-10.393 12.686-21.315 17.857-32.698z" fill="#fec344"/><path d="m459.342 409.243c3.735-4.96 7.295-10.063 10.669-15.3l-73.655-350.543c-5.182-3.44-10.496-6.696-15.934-9.757z" fill="#fe9722"/><path d="m428.224 78.151-16.421-78.151-23.527 4.943 1.498 73.208z" fill="#fec344"/><path d="m403.658 78.151-15.382-73.208-13.297 2.794 14.795 70.414z" fill="#fe9722"/><path d="m433.469 46.927c-1.021-4.857-4.345-8.902-8.904-10.864-17.946-7.721-38.782-13.314-61.646-16.515l-25.634 5.858-34.613-8.742c-8.323.302-16.785.88-25.356 1.743l-21.816 8.651-22.848-1.705c-83.777 17.603-151.943 57.701-184.647 103.144l181.81-47.053 213.272 11.261z" fill="#c4e2ff"/><path d="m433.757 104.488c-12.297-4.669-25.984-8.533-40.871-11.521l5.619 26.742c8.862 1.779 17.321 3.853 25.298 6.235 5.162 1.541 10.212.229 13.883-2.758z" fill="#fe9722"/><path d="m442.989 92.237c-58.507-25.749-154.671-30.898-258.565-9.068-50.715 10.656-97.135 26.465-136.417 45.329-9.219 12.81-15.623 26.045-18.762 39.321 43.834-24.413 99.156-44.967 160.795-57.918 90.315-18.977 174.79-17.566 233.762.042 11.031 3.293 21.554-6.441 19.187-17.706z" fill="#dff6fd"/></g><path d="m318.664 96.205 44.253-76.648c-18.864-2.641-39.108-3.646-60.246-2.879l-47.877 82.925c22.097-2.377 43.499-3.491 63.87-3.398z" fill="#dff6fd"/><path d="m190.041 109.901c12.957-2.723 25.788-5.011 38.447-6.907l48.828-84.573c-14.621 1.471-29.555 3.758-44.664 6.932-.213.045-.423.093-.636.138l-49.702 86.087c2.566-.571 5.139-1.133 7.727-1.677z" fill="#dff6fd"/><g><path d="m387.368 473.704c0-38.368-31.103-69.471-69.471-69.471h-194.731c-21.827 0-41.302 10.066-54.038 25.809 46.54 49.817 112.819 80.958 186.372 80.958 48.064 0 93.26-13.372 131.868-36.733z" fill="#00366d"/><path d="m222.594 51.686c-72.239 0-130.801 58.561-130.801 130.8v168.867c0 36.304 29.43 65.734 65.734 65.734h130.133c36.304 0 65.734-29.43 65.734-65.734v-168.866c0-72.239-58.561-130.801-130.8-130.801z" fill="#004281"/><path d="m179.078 268.682v77.496c0 23.143 18.761 41.903 41.903 41.903h57.204c25.189 0 45.61-20.42 45.61-45.61v-59.772l-13.037-6.174z" fill="#f9f3f1"/><path d="m180.131 342.472v-73.79h-58.739v73.79c0 25.19 20.42 45.61 45.61 45.61h58.739c-25.189 0-45.61-20.421-45.61-45.61z" fill="#e1d3ce"/><path d="m323.794 282.699v-16.017h-202.401v16.017h6.291c14.791 0 27.352 10.828 29.532 25.458 2.18 14.629 14.742 25.457 29.532 25.457h71.691c14.791 0 27.352-10.828 29.532-25.457 2.18-14.629 14.742-25.458 29.532-25.458z" fill="#e1d3ce"/><path d="m353.394 231.377c0-8.174-6.626-14.8-14.8-14.8-8.174 0-14.8-6.626-14.8-14.8v-25.36c0-55.892-45.309-101.201-101.201-101.201-15.403 0-30 3.447-43.069 9.603v233.887c2.32.578 4.739.89 7.223.89h71.691c14.791 0 27.352-10.828 29.532-25.457 2.18-14.629 14.742-25.457 29.532-25.457 19.822 0 35.89-16.069 35.89-35.89v-1.415z" fill="#fff"/><g fill="#f9f3f1"><path d="m352.558 226.471c-3.524 16.121-17.876 28.194-35.054 28.194-14.791 0-27.352 10.828-29.532 25.458-2.18 14.629-14.742 25.457-29.532 25.457h-71.691c-14.791 0-27.352-10.828-29.532-25.457s-14.742-25.458-29.532-25.458h-1.726v14.017h1.726c14.791 0 27.352 10.828 29.532 25.457 2.18 14.629 14.742 25.457 29.532 25.457h71.691c14.791 0 27.352-10.828 29.532-25.457 2.18-14.629 14.742-25.457 29.532-25.457 19.822 0 35.89-16.069 35.89-35.89v-1.415c0-1.72-.297-3.37-.836-4.906z"/><path d="m182.351 158.696c6.643-37.602 34.044-68.039 69.946-79.046-9.393-2.88-19.366-4.433-29.703-4.433-49.846 0-91.273 36.038-99.652 83.48h59.409z"/><path d="m181.252 84.022c-35.281 15.81-59.86 51.231-59.86 92.395v25.36c0 8.198-6.708 14.743-14.905 14.8-8.125.057-14.694 6.661-14.694 14.799v1.415c0 19.822 16.069 35.89 35.89 35.89 14.791 0 27.352 10.828 29.532 25.457 1.904 12.776 11.727 22.652 24.036 24.949v-235.065z"/></g><g><path d="m238.007 240.92c-5.245-7.109-11.247-11.204-15.413-11.05-4.166-.154-10.168 3.941-15.413 11.05-7.138 9.675-10.166 21.257-6.763 25.869s11.948.508 19.086-9.166c1.138-1.542 2.17-3.133 3.09-4.736.92 1.603 1.952 3.194 3.09 4.736 7.138 9.675 15.683 13.779 19.086 9.166 3.403-4.612.375-16.194-6.763-25.869z" fill="#e1d3ce"/><ellipse cx="173.576" cy="216.25" fill="#e1d3ce" rx="22.523" ry="29.373"/><ellipse cx="173.576" cy="209.821" fill="#00366d" rx="22.523" ry="29.373"/><ellipse cx="269.576" cy="216.25" fill="#e1d3ce" rx="22.523" ry="29.373"/><ellipse cx="269.576" cy="209.821" fill="#00366d" rx="22.523" ry="29.373"/><g><path d="m144.855 174.337h60.408v23.218h-60.408z" fill="#f9f3f1"/></g><g><path d="m239.372 174.337h60.408v23.218h-60.408z" fill="#f9f3f1"/></g></g><path d="m223.16 489.572c-11.426 0-20.689-9.263-20.689-20.689v-64.649h41.378v64.649c0 11.426-9.263 20.689-20.689 20.689z" fill="#004281"/><path d="m217.807 305.58h9.574v22.325h-9.574z" fill="#e1d3ce"/><path d="m190.483 305.58h9.574v22.325h-9.574z" fill="#e1d3ce"/><path d="m245.13 305.58h9.574v22.325h-9.574z" fill="#e1d3ce"/></g><g fill="#fe9722"><circle cx="179.185" cy="209.584" r="8.028"/><circle cx="266.19" cy="209.584" r="8.028"/></g></g></svg>