<svg id="Layer_1" enable-background="new 0 0 511 511" height="512" viewBox="0 0 511 511" width="512" xmlns="http://www.w3.org/2000/svg"><g><g><path d="m503.545 262.955c0-136.991-111.053-248.045-248.045-248.045-95.454 0-154.255 53.842-154.417 53.933 0 0-2.445 3.051-2.902 5.08-3.714 16.486-7.184 38.581-7.184 54.705 0 136.991 115.524 248.018 252.515 248.018 52.752 0 111.443-25.283 150.723-55.682.879-.68 3.667-5.249 3.667-5.249.173-1.058 5.643-22.837 5.643-52.76z" fill="#fef48b"/><path d="m343.491 369.643c-136.991 0-248.045-111.054-248.045-248.045 0-18.107 1.953-35.75 5.637-52.755-57.045 45.446-93.628 115.508-93.628 194.112 0 79.176 37.097 149.688 94.858 195.103l306.364-.013c44.401-34.88 76.736-84.68 89.226-142.331-42.372 33.749-96.032 53.929-154.412 53.929z" fill="#ffe177"/></g><g><path d="m345.33 428.437h-179.66c-25.451 0-48.212 11.516-63.357 29.621 42.177 33.162 95.372 52.942 153.187 52.942 57.531 0 110.839-19.694 153.177-52.955-15.145-18.097-37.902-29.608-63.347-29.608z" fill="#00f2a6"/><path d="m255.5 482.778c-19.161 0-34.695-15.533-34.695-34.695v-61.426h69.389v61.426c.001 19.162-15.533 34.695-34.694 34.695z" fill="#14d1b2"/><g><path d="m319.198 409.344h-122.665c-27.791 0-50.32-66.532-50.32-94.323v-81.41h223.305v125.413c0 27.791-22.529 50.32-50.32 50.32z" fill="#6cf5c2"/><path d="m211.018 359.023v-125.413h-64.805v125.413c0 27.791 22.529 50.32 50.32 50.32h64.805c-27.791.001-50.32-22.528-50.32-50.32z" fill="#00f2a6"/><path d="m369.518 249.075v-20.465l-223.305 1v19.465h6.941c16.318 0 30.177 11.947 32.582 28.087 2.405 16.14 16.264 28.087 32.582 28.087h79.095c16.318 0 30.177-11.947 32.582-28.087 2.405-16.14 16.264-28.087 32.582-28.087z" fill="#00f2a6"/><path d="m402.174 192.452c0-9.018-7.31-16.328-16.328-16.328-9.018 0-16.328-7.31-16.328-16.328v-27.979c0-61.664-49.989-111.653-111.653-111.653-16.994 0-33.098 3.803-47.517 10.595v258.043c2.56.638 5.229.982 7.97.982h79.095c16.318 0 30.177-11.947 32.582-28.087 2.405-16.14 16.264-28.087 32.582-28.087 21.869 0 39.597-17.728 39.597-39.597z" fill="#6cf5c2"/><g fill="#00f2a6"><path d="m401.252 187.04c-3.888 17.786-19.722 31.106-38.675 31.106-16.318 0-30.177 11.947-32.582 28.087s-16.264 28.087-32.582 28.087h-79.095c-16.318 0-30.177-11.947-32.582-28.087s-16.264-28.087-32.582-28.087h-1.904v15.465h1.904c16.318 0 30.177 11.947 32.582 28.087 2.405 16.14 16.264 28.087 32.582 28.087h79.095c16.318 0 30.177-11.947 32.582-28.087 2.405-16.14 16.264-28.087 32.582-28.087 21.869 0 39.597-17.728 39.597-39.597v-1.561c0-1.898-.327-3.719-.922-5.413z"/><path d="m213.466 112.265c7.329-41.486 37.56-75.066 77.17-87.21-10.363-3.177-21.366-4.891-32.771-4.891-54.994 0-100.699 39.76-109.944 92.101z"/><path d="m212.254 29.879c-38.925 17.443-66.042 56.522-66.042 101.938v27.979c0 9.044-7.401 16.266-16.445 16.329-8.964.063-16.212 7.349-16.212 16.328v1.561c0 21.869 17.728 39.597 39.597 39.597 16.318 0 30.177 11.947 32.582 28.087 2.101 14.096 12.938 24.991 26.519 27.526v-259.345z"/></g><g><path d="m274.87 202.981c-5.786-7.843-12.408-12.361-17.005-12.191-4.596-.17-11.218 4.348-17.005 12.191-7.875 10.674-11.216 23.452-7.462 28.541s13.182.561 21.058-10.113c1.255-1.701 2.394-3.457 3.409-5.225 1.015 1.769 2.153 3.524 3.409 5.225 7.875 10.674 17.303 15.202 21.058 10.113 3.754-5.089.414-17.867-7.462-28.541z" fill="#14d1b2"/></g><circle cx="182.966" cy="290.924" fill="#14d1b2" r="36.753"/><g><path d="m290.297 375.467h-64.864c-8.363 0-15.142-6.779-15.142-15.142v-64.864c0-8.363 6.779-15.142 15.142-15.142h64.864c8.363 0 15.142 6.779 15.142 15.142v64.864c0 8.363-6.779 15.142-15.142 15.142z" fill="#14d1b2"/><path d="m287.043 276.02-11.089-1.701h-10.616l-10.799 3.269c-.715 0-3.463-3.211-4.146-3.098-6.08 1.002-10.718 6.282-10.718 12.646v69.513c0 6.453 4.768 11.792 10.973 12.686.602.087 3.072-2.408 3.698-2.408l10.701 2.539h10.616l10.279-2.044c.104 0 4.563 2.043 4.666 2.041 8.219-.166 14.831-6.88 14.831-15.139v-64.864c0-8.161-6.457-14.814-14.54-15.13-.2-.007-3.654 1.69-3.856 1.69z" fill="#fd3581"/><path d="m240.358 354.325v-64.864c0-8.363 6.779-15.142 15.142-15.142h-15.142l-7.462 4.701-7.462-4.701c-8.363 0-15.142 6.779-15.142 15.142v64.864c0 8.363 6.779 15.142 15.142 15.142l10.637-1.101 3.996 1.101h15.433c-8.363 0-15.142-6.779-15.142-15.142z" fill="#e41e7f"/><g fill="#f9f3f1"><path d="m225.413 274.319h14.945v16.605h-14.945z"/><path d="m250.393 274.319h14.945v16.605h-14.945z"/><path d="m275.954 274.319h14.945v16.605h-14.945z"/><path d="m225.122 352.862h14.945v16.605h-14.945z"/><path d="m250.102 352.862h14.945v16.605h-14.945z"/><path d="m275.663 352.862h14.945v16.605h-14.945z"/></g></g><circle cx="203.836" cy="182.237" fill="#14d1b2" r="36.961"/><circle cx="203.836" cy="175.236" fill="#814ba1" r="36.961"/><circle cx="311.843" cy="182.237" fill="#14d1b2" r="36.961"/><g><circle cx="311.843" cy="175.236" fill="#fff" r="36.961"/><circle cx="311.843" cy="175.236" fill="#814ba1" r="30.876"/><circle cx="311.843" cy="175.236" fill="#af66da" r="15.685"/><circle cx="317.65" cy="165.359" fill="#fff" r="5.808"/></g><path d="m215.876 149.035h-57.809c0-13.36 10.831-24.191 24.191-24.191h57.809c0 13.36-10.83 24.191-24.191 24.191z" fill="#14d1b2"/><path d="m301.631 149.035h57.809c0-13.36-10.831-24.191-24.191-24.191h-57.809c0 13.36 10.831 24.191 24.191 24.191z" fill="#14d1b2"/><path d="m176.546 264.546h13.257v-54.638c0-7.322-5.935-13.257-13.257-13.257z" fill="#fd3581"/><g><circle cx="183.174" cy="284.932" fill="#fff" r="36.961"/><circle cx="183.174" cy="284.932" fill="#814ba1" r="30.876"/><circle cx="183.174" cy="284.932" fill="#af66da" r="15.685"/><circle cx="188.982" cy="275.054" fill="#fff" r="5.808"/></g><path d="m296.362 5.816c-25.678-7.701-51.357-7.754-77.035-.161-3.027.895-5.047 3.799-4.789 6.945 2.599 31.726 17.936 65.074 43.037 99.665l14.032-33.985 4.057 15.518c18.683-21.602 26.719-49.115 25.505-81.764-.108-2.882-2.044-5.389-4.807-6.218z" fill="#814ba1"/></g></g></g></svg>