<svg id="Layer_1" enable-background="new 0 0 510 510" height="512" viewBox="0 0 510 510" width="512" xmlns="http://www.w3.org/2000/svg"><g><g><path d="m280.135 1.223-194.25 115.683c0 140.833 118.763 254.972 259.596 254.972 54.231 0 114.568-25.992 154.949-57.243.903-.699 3.769-5.396 3.769-5.396.178-1.087 5.801-23.477 5.801-54.239 0-132.351-100.83-241.152-229.865-253.777z" fill="#dff6fd"/><path d="m345.459 364.679c-140.833 0-255-114.167-255-255l-62.506 29.145c-17.868 34.841-27.953 74.331-27.953 116.176 0 11.223.725 22.276 2.131 33.115l176.122 210.133c24.221 7.635 50.003 11.752 76.747 11.752 121.17 0 224.116-84.98 249.199-200.761-43.559 34.695-98.723 55.44-158.74 55.44z" fill="#c4e2ff"/></g><g><path d="m34.76 248.989v98.651c.348.332.679.688.986 1.073 18.256 22.898 29.629 49.707 40.369 76.682.196.199.401.386.585.602l76.244-161.171c-41.747-22.578-85.129-34.475-118.184-15.837z" fill="#fff"/><path d="m42.795 245.126c-8.475 3.41-16.39 8.553-23.565 15.728-8.209 8.209-13.763 17.384-17.099 27.261 4.45 34.314 15.721 66.488 32.409 95.116l19.277-8.992 8.678-18.964c-20.793-38.444-32.526-78.274-19.7-110.149z" fill="#f9f3f1"/><path d="m152.946 264.826-103.578 103.578c10.838 17.959 18.962 37.432 26.75 56.994.196.198.4.385.583.6 14.075 16.491 30.379 31.012 46.858 45.04l128.714-134.388c-26.152-23.049-62.09-51.684-99.327-71.824z" fill="#fe9722"/><path d="m62.497 355.274-27.957 27.958c20.607 35.353 49.475 65.299 83.958 87.194l11.855-8.532 3.967-7.29c-23.049-26.154-51.683-62.09-71.823-99.33z" fill="#ff6400"/><path d="m264.235 347.404c-3.701-3.394-7.708-7.002-11.963-10.753l-131.767 131.768 26.892 12.611h52.071l41.224-38.005c12.751-16.338 23.508-34.671 32.265-55.003 6.035-14.01 2.521-30.309-8.722-40.618z" fill="#fec344"/><path d="m145.073 466.566c-3.395-3.702-7.002-7.706-10.754-11.963l-15.823 15.823c18.418 11.695 38.438 21.093 59.656 27.791 41.609-25.287 60.89-53.612 62.544-55.188-16.341 12.748-34.676 23.502-55.007 32.26-14.007 6.033-30.306 2.519-40.616-8.723z" fill="#fe9722"/></g><g><path d="m425.498 150.865-18.215 4.858c-39.645 10.573-67.23 46.478-67.23 87.509h149.564c-12.471-42.118-32.373-78.839-64.119-92.367z" fill="#fff"/><path d="m363.789 414.661c-14.173-5.639-23.213-19.649-22.554-34.888 2.928-67.673 17.05-200.264 84.26-228.903-8.405-3.581-17.637-5.542-27.784-5.542-91.29 0-108.75 158.309-112.045 234.445-.659 15.239 8.381 29.249 22.554 34.888 39.092 15.553 78.184 20.914 117.275 16.085-20.568-2.541-41.137-7.901-61.706-16.085z" fill="#f9f3f1"/><path d="m508.912 363.892c-2.189-34.814-7.346-80.558-19.458-121.205h-149.401v121.205z" fill="#fe9722"/><path d="m341.945 366.06c2.11-35.067 7.229-81.879 19.595-123.372h-55.572c-11.086 37.204-16.754 80.071-19.305 118.801-.01.151-.02.303-.03.454-.074 1.133-.145 2.254-.213 3.364-.009.154-.019.307-.028.46-.006.098-.011.195-.017.293z" fill="#ff6400"/><path d="m509.756 379.773c-.217-5.017-.499-10.401-.856-16.063h-168.847v58.337l85.442 8.695c20.569-2.538 41.138-7.897 61.707-16.081 14.174-5.639 23.214-19.649 22.554-34.888z" fill="#fec344"/><path d="m425.496 430.746c-20.569-2.541-41.138-7.901-61.707-16.085-14.173-5.639-23.213-19.649-22.554-34.888.217-5.018.498-10.4.855-16.063h-55.568c-.357 5.662-.639 11.046-.856 16.063-.659 15.239 8.381 29.249 22.554 34.888 64.475 25.652 114.474 16.017 117.276 16.085z" fill="#fe9722"/></g><g><path d="m114.738 41.644c-12.01 7.905-18.43 13.771-18.484 13.801-18.17 14.475-34.321 31.38-47.959 50.223l35.247 51.251 47.56-1.982z" fill="#fff"/><path d="m115.029 137.661c-25.583-7.585-49.16-17.916-66.734-31.993-7.586 10.481-14.395 21.561-20.342 33.157 16.243 26.169 49.492 43.247 87.076 54.394z" fill="#f9f3f1"/><path d="m235.732.716c-56.506 4.219-98.53 26.141-120.994 40.928l.082 118.359 142.446 2.861z" fill="#fe9722"/><path d="m114.804 137.597.039 55.571c37.882 11.259 81.715 16.917 121.036 19.364l2.311-55.426c-35.069-2.086-81.884-7.173-123.386-19.509z" fill="#ff6400"/><path d="m286.377 160.003c7.504-28.834 20.013-57.665 16.437-86.491-2.552-20.567-7.925-41.133-16.123-61.696-1.581-3.967-3.819-7.531-6.555-10.592-8.27-.81-16.654-1.224-25.136-1.224-6.595 0-13.02.25-19.268.717l.11 159.286z" fill="#fec344"/><path d="m302.818 73.511c-2.527 20.571-7.872 41.143-16.042 61.718-5.629 14.177-19.633 23.227-34.873 22.578-5.018-.214-10.4-.491-16.063-.844l.039 55.568c5.662.353 11.046.631 16.063.845 15.24.649 29.243-8.401 34.873-22.578 25.607-64.493 15.938-114.485 16.003-117.287z" fill="#fe9722"/></g></g></svg>