<svg id="Layer_1" enable-background="new 0 0 511.022 511.022" height="512" viewBox="0 0 511.022 511.022" width="512" xmlns="http://www.w3.org/2000/svg"><g><g><path d="m432.586 72.055c-46.12-44.289-108.788-71.544-177.586-71.544-98.131 0-158.58 55.352-158.747 55.445 0 0-2.513 3.137-2.983 5.222-.771 3.421-1.529 7.083-2.252 10.876h341.568z" fill="#dff6fd"/><g><path d="m137.173 481.698c35.245 18.398 75.317 28.814 117.827 28.814 42.33 0 82.428-10.382 117.767-28.814z" fill="#c4e2ff"/></g></g><path d="m483.635 142.463h-299.454l-14.313 103.109 14.313 237.359h186.216c19.54-9.932 37.656-22.314 53.928-36.764l14.261-28.615 26.948-18.114c18.225-26.609 31.564-56.915 38.665-89.689.178-1.087 6.823-23.477 6.823-54.239 0-40.596-10.509-78.977-27.387-113.047z" fill="#fef48b"/><g><path d="m495.167 71.314h-310.986l-6.107 43.281 6.107 27.868h326.842v-55.293c-.001-8.757-7.1-15.856-15.856-15.856z" fill="#6cf5c2"/></g><path d="m0 255.511c0 99.271 56.727 185.294 139.533 227.42h44.648v-340.468h-157.805c-16.883 34.069-26.376 72.451-26.376 113.048z" fill="#ffe177"/><path d="m91.018 71.314-21.36 9.081c-17.326 18.331-31.965 39.231-43.282 62.068h157.804v-71.149z" fill="#14d1b2"/><g><g><path d="m96.253 55.957c-9.432 7.514-18.32 15.683-26.595 24.438v14.001c0 9.399 7.619 17.019 17.019 17.019s17.019-7.619 17.019-17.019v-44.461c-4.864 3.682-7.409 6.003-7.443 6.022z" fill="#11abb9"/><path d="m113.826 51.68v42.716c0 9.399 7.619 17.019 17.019 17.019s17.019-7.619 17.019-17.019v-42.716z" fill="#11abb9"/><g fill="#bd80e1"><path d="m96.253 55.957c-5.213 4.153-10.259 8.506-15.128 13.047 1.74.6 3.607.926 5.551.926 9.4 0 17.019-7.619 17.019-17.019v-2.976c-4.863 3.682-7.408 6.003-7.442 6.022z"/><path d="m113.826 45.109v7.802c0 9.4 7.619 17.019 17.019 17.019s17.019-7.619 17.019-17.019v-7.802c0-7.26-4.545-13.457-10.945-15.903-9.092 4.695-16.766 9.353-22.914 13.434-.118.807-.179 1.631-.179 2.469z"/></g></g><g><path d="m356.865 45.109v49.287c0 9.399 7.619 17.019 17.019 17.019s17.019-7.619 17.019-17.019v-49.287z" fill="#11abb9"/><path d="m401.031 45.109v49.287c0 9.399 7.619 17.019 17.019 17.019s17.019-7.619 17.019-17.019v-49.287z" fill="#11abb9"/><g><path d="m373.883 69.93c-9.399 0-17.019-7.619-17.019-17.019v-7.802c0-9.399 7.619-17.019 17.019-17.019 9.399 0 17.019 7.619 17.019 17.019v7.802c0 9.4-7.619 17.019-17.019 17.019z" fill="#bd80e1"/></g><g><path d="m418.05 69.93c-9.399 0-17.019-7.619-17.019-17.019v-7.802c0-9.399 7.619-17.019 17.019-17.019 9.399 0 17.019 7.619 17.019 17.019v7.802c0 9.4-7.62 17.019-17.019 17.019z" fill="#bd80e1"/></g></g></g><g fill="#fd3581"><path d="m181.43 337.33v-6.067c0-21.394-13.092-25.545-30.654-25.545-10.857 0-14.37-9.579-14.37-19.158s3.513-19.158 14.37-19.158c12.133 0 24.906-1.597 24.906-27.461 0-18.521-10.537-22.991-23.629-22.991-15.646 0-23.629 3.832-23.629 16.285 0 10.857-4.79 18.201-23.309 18.201-22.991 0-25.864-4.79-25.864-20.116 0-24.907 17.881-57.157 72.802-57.157 40.553 0 71.207 14.689 71.207 57.796 0 23.309-8.621 45.023-24.587 52.366 18.838 7.025 32.569 21.075 32.569 46.939v6.067c0 52.366-36.082 72.164-80.786 72.164-54.922 0-75.997-33.527-75.997-60.349 0-14.37 6.067-18.201 23.63-18.201 20.436 0 25.544 4.47 25.544 16.604 0 15.008 14.05 18.52 28.419 18.52 21.714-.002 29.378-7.984 29.378-28.739z"/><path d="m272.113 229.722-9.26 5.747c-2.873 1.915-5.747 2.554-7.983 2.554-9.26 0-15.646-9.898-15.646-19.797 0-6.705 2.874-13.092 9.26-16.923l42.15-25.545c2.554-1.597 5.747-2.235 9.259-2.235 10.218 0 22.032 6.067 22.032 15.646v203.083c0 10.217-12.452 15.326-24.906 15.326-12.453 0-24.907-5.109-24.907-15.326v-162.53z"/></g><path d="m366.343 382.719c-56.141 0-101.652 15.595-101.652 34.833s45.511 34.833 101.652 34.833c21.552 0 41.537-2.299 57.983-6.219 5.39-4.787 10.578-9.801 15.548-15.027z" fill="#af66da"/><path d="m264.691 417.553v-10.464l6.556 6.411z" fill="#af66da"/><path d="m465.534 399.438c-10.175-15.557-50.722-27.182-99.191-27.182-56.141 0-101.652 15.595-101.652 34.833s45.511 34.833 101.652 34.833c28.921 0 55.021-4.139 73.531-10.782 9.36-9.843 17.947-20.442 25.66-31.702z" fill="#814ba1"/><g><path d="m432.288 400.903-5.011-12.748-13.461-5.07 5.915-14.127-44.136-112.283c-3.286-8.359-15.115-8.363-18.406-.005l-44.215 112.294 4.731 11.288-12.289 7.906-5.016 12.74c-.737.925-1.123 1.878-1.123 2.852 0 8.598 30.026 15.567 67.064 15.567s67.064-6.97 67.064-15.567c.002-.972-.382-1.924-1.117-2.847z" fill="#af66da"/></g><g><path d="m419.731 368.958c-12.249 3.735-31.603 6.147-53.388 6.147-7.158 0-14.045-.265-20.512-.747v22.109c6.466.482 13.356.744 20.512.744 27.025 0 50.315-3.711 60.934-9.057z" fill="#fec344"/></g><g><path d="m346.452 396.511v-22.104c-13.471-.97-25.124-2.898-33.477-5.442l-7.558 19.194c7.9 3.973 22.805 7.039 41.035 8.352z" fill="#fe9722"/></g><path d="m476.678 142.463h34.344v118.45h-34.344z" fill="#fef48b"/></g></svg>