<svg id="Layer_1" enable-background="new 0 0 510 510" height="512" viewBox="0 0 510 510" width="512" xmlns="http://www.w3.org/2000/svg"><g><g><path d="m470.823 141.263-37.983-8.184 10.973-30.605c-45.399-53.513-113.14-87.474-188.813-87.474-95.245 0-153.916 53.724-154.078 53.815 0 0-2.439 3.044-2.895 5.069-3.706 16.45-7.168 38.496-7.168 54.584 0 136.69 115.27 247.473 251.961 247.473 52.636 0 111.198-25.227 150.392-55.559.877-.679 3.659-5.238 3.659-5.238.172-1.055 5.63-22.786 5.63-52.643-.001-44.048-11.507-85.407-31.678-121.238z" fill="#dff6fd"/><path d="m342.798 368.953c-136.69 0-247.5-110.81-247.5-247.5 0-18.068 1.948-35.672 5.624-52.639-12.264 9.77-23.58 20.68-33.787 32.57l-30.124 43.83c-18.824 34.907-29.511 74.849-29.511 117.286 0 49.557 14.565 95.713 39.648 134.419l415.695.021c15.901-24.536 27.598-52.124 34.027-81.797-42.278 33.675-95.82 53.81-154.072 53.81z" fill="#c4e2ff"/></g><path d="m410.104 349.211c-.778-.196-1.561-.381-2.349-.555l-153.081-33.875-152.477 33.843c-.788.175-1.57.36-2.348.557-24.877 6.28-44.112 24.621-52.7 47.738 36.669 56.584 95.816 97.249 164.796 109.349l84.401.281c69.366-11.698 129.382-52.339 166.497-109.61-8.598-23.121-27.848-41.461-52.739-47.728z" fill="#f9f3f1"/><g><g><path d="m72.936 317.152c0 100.14 81.179 181.319 181.318 181.319s181.318-81.179 181.318-181.319z" fill="#814ba1"/></g><g><g><path d="m216.23 506.981c12.631 1.987 25.58 3.019 38.77 3.019 12.67 0 25.135-.958 37.322-2.807l-38.068-190.041z" fill="#af66da"/></g><g><path d="m211.945 506.268c1.424.25 2.852.487 4.284.712l38.025-189.829-49.934 174.353z" fill="#6f3f8a"/></g><g><path d="m292.322 507.193c1.345-.204 2.686-.419 4.023-.644l7.536-14.953-49.626-174.443z" fill="#6f3f8a"/></g></g><g><g><path d="m58.093 316.892v38.665l193.021-38.665z" fill="#af66da"/></g><g><path d="m58.093 355.557 20.849 10.507 174.443-49.627z" fill="#6f3f8a"/></g></g><g><g><path d="m256.471 316.892 193.791 38.819v-38.819z" fill="#af66da"/></g><g><path d="m450.262 355.711-20.849 10.507-174.443-49.627z" fill="#6f3f8a"/></g></g><g><g><path d="m365.005 482.838 55.323-55.323-165.754-110.431z" fill="#af66da"/></g><g><path d="m420.328 427.515-7.159-22.455-158.595-87.976z" fill="#6f3f8a"/></g><g><path d="m365.005 482.838-22.172-7.313-88.259-158.441z" fill="#6f3f8a"/></g></g><g><g><path d="m87.699 427.187 55.324 55.324 110.431-165.755z" fill="#af66da"/></g><g><path d="m143.023 482.511 22.455-7.16 87.976-158.595z" fill="#6f3f8a"/></g><g><path d="m87.699 427.187 7.313-22.172 158.442-88.259z" fill="#6f3f8a"/></g></g></g><g><g><circle cx="148.527" cy="102.999" fill="#e41e7f" r="47.555"/></g><g><circle cx="148.527" cy="188.996" fill="#e41e7f" r="47.555"/></g><g><path d="m85.023 97.906c-6.327 0-12.365 1.236-17.887 3.479-11.322 13.188-21.28 27.583-29.654 42.964-.008.369-.013.74-.013 1.112 0 26.264 21.291 47.554 47.555 47.554s47.555-21.291 47.555-47.554-21.293-47.555-47.556-47.555z" fill="#e41e7f"/></g></g><g><g><circle cx="359.947" cy="102.999" fill="#fd3581" r="47.555"/></g><g><circle cx="359.947" cy="188.996" fill="#fd3581" r="47.555"/></g><g><path d="m423.452 97.906c-26.264 0-47.555 21.291-47.555 47.554s21.291 47.554 47.555 47.554 47.555-21.291 47.555-47.554c0-1.414-.062-2.814-.183-4.197-7.771-13.805-16.829-26.788-27.01-38.789-6.173-2.929-13.076-4.568-20.362-4.568z" fill="#fd3581"/></g></g><g><g><g><g><path d="m255.263 389.09c-21.712 0-39.312-17.601-39.312-39.312v-88.053h78.624v88.053c0 21.711-17.601 39.312-39.312 39.312z" fill="#f79480"/></g></g></g></g><g><g><g><g><path d="m294.575 315.821v-44.298h-78.624v44.298c0 21.711 17.601 39.312 39.312 39.312 21.711 0 39.312-17.6 39.312-39.312z" fill="#ea806b"/></g></g></g></g><g><g><g><g><path d="m207.04 174.326v7.87c0 5.134 4.162 9.296 9.296 9.296 5.133 0 9.296-4.162 9.296-9.296v-7.87z" fill="#f79480"/></g></g></g></g><g><path d="m254.71 0c-61.945 0-112.161 50.216-112.161 112.161v102.767c0 61.973 49.957 112.04 111.436 112.697.136.002.27.012.406.014.29.002.581.003.871.003 2 0 3.988-.055 5.962-.159.029-.002.058-.002.087-.003-.002-.001-.003-.001-.005-.002 58.829-3.14 105.565-51.833 105.565-111.445v-103.872c.001-61.945-50.215-112.161-112.161-112.161z" fill="#fdbd81"/></g><g><path d="m254.711 0c-.93 0-1.858.011-2.782.034-45.387 1.105-81.295 38.918-81.295 84.318v158.744c0 45.161 35.465 82.894 80.598 84.466.915.032 1.833.053 2.754.063.136.002.27.012.406.014.29.002.581.003.871.003 2 0 3.988-.055 5.962-.159.029-.002.058-.002.087-.003-.002-.001-.003-.001-.005-.002 58.829-3.14 105.565-51.833 105.565-111.445v-103.872c0-61.945-50.216-112.161-112.161-112.161z" fill="#fdbd81"/></g><g><path d="m269.945 326.676c-55.158-7.188-97.999-54.36-97.999-111.748v-102.767c0-56.962 42.464-104.003 97.462-111.202-4.81-.63-9.715-.959-14.697-.959-61.945 0-112.161 50.216-112.161 112.161v102.767c0 61.973 49.957 112.04 111.436 112.697.136.002.27.012.406.014.29.002.581.003.871.003 2 0 3.988-.055 5.962-.159.029-.002.058-.002.087-.003-.002-.001-.003-.001-.005-.002 2.911-.156 5.791-.427 8.638-.802z" fill="#f79480"/></g><g><path d="m254.683 312.64c-.165-.006-.32-.011-.477-.013l-1.298-.021.101.002-.455-.011.156.004-.868-.026-.559-.021c-25.207-.998-48.771-11.581-66.354-29.801-17.656-18.296-27.379-42.384-27.379-67.824v-102.768c0-25.45 9.771-49.51 27.515-67.747 17.709-18.201 41.416-28.633 66.753-29.372l1.611-.034 1.281-.008 1.686.016c25.596.434 49.591 10.732 67.568 28.997 17.997 18.286 27.908 42.488 27.908 68.148v103.872c0 50.828-39.688 93.174-90.353 96.405l-1.155.068c-1.729.09-3.445.135-5.102.135z" fill="#f9f3f1"/></g><g><g><g><g><g><path d="m228.583 129.94h-27.109c-5.134 0-9.296-4.162-9.296-9.296 0-5.134 4.162-9.296 9.296-9.296h27.109c5.134 0 9.296 4.162 9.296 9.296-.001 5.134-4.162 9.296-9.296 9.296z" fill="#004281"/></g></g></g></g></g><g><g><g><g><g><path d="m306.047 129.94h-27.109c-5.134 0-9.296-4.162-9.296-9.296 0-5.134 4.162-9.296 9.296-9.296h27.109c5.134 0 9.296 4.162 9.296 9.296 0 5.134-4.162 9.296-9.296 9.296z" fill="#004281"/></g></g></g></g></g><g><path d="m256.066 291.054c-32.94 0-62.471-19.635-75.233-50.021-3.314-7.893.396-16.978 8.289-20.293 7.894-3.313 16.979.396 20.292 8.289 7.916 18.848 26.228 31.025 46.652 31.025s38.736-12.178 46.652-31.025c3.315-7.892 12.4-11.602 20.292-8.289 7.893 3.315 11.604 12.4 8.289 20.293-12.762 30.387-42.293 50.021-75.233 50.021z" fill="#fd3581"/></g><g><path d="m256.066 278.554c-27.894 0-52.9-16.628-63.708-42.361-.642-1.528.077-3.286 1.604-3.928 1.528-.643 3.286.077 3.928 1.604 9.87 23.501 32.706 38.686 58.176 38.686s48.307-15.185 58.176-38.686c.642-1.527 2.4-2.25 3.928-1.604 1.528.642 2.246 2.399 1.604 3.928-10.808 25.734-35.815 42.361-63.708 42.361z" fill="#fff"/></g><g><circle cx="255" cy="205.204" fill="#ff6400" r="33.075"/></g><g><path d="m263.714 224.567c-18.267 0-33.075-14.808-33.075-33.075 0-3.606.578-7.078 1.645-10.327-6.378 6.029-10.359 14.569-10.359 24.039 0 18.267 14.808 33.075 33.075 33.075 14.661 0 27.093-9.539 31.43-22.748-5.925 5.602-13.919 9.036-22.716 9.036z" fill="#eb4f02"/></g><g><g><path d="m193.241 146.289h43.575v15h-43.575z" fill="#00f2a6" transform="matrix(.707 -.707 .707 .707 -45.767 197.08)"/></g><g><path d="m207.528 132.001h15v43.575h-15z" fill="#00f2a6" transform="matrix(.707 -.707 .707 .707 -45.765 197.09)"/></g></g><g><g><path d="m270.705 146.289h43.575v15h-43.575z" fill="#00f2a6" transform="matrix(.707 -.707 .707 .707 -23.081 251.853)"/></g><g><path d="m284.992 132.001h15v43.575h-15z" fill="#00f2a6" transform="matrix(.707 -.707 .707 .707 -23.076 251.867)"/></g></g></g></svg>