<svg id="Layer_1" enable-background="new 0 0 511 511" height="512" viewBox="0 0 511 511" width="512" xmlns="http://www.w3.org/2000/svg"><g><g><path d="m255.5 12.416c-95.934 0-155.031 54.113-155.193 54.204 0 0-2.457 3.067-2.916 5.105-3.733 16.569-7.22 38.775-7.22 54.98 0 137.68 116.105 249.265 253.785 249.265 53.017 0 112.003-25.41 151.481-55.962.883-.683 3.685-5.276 3.685-5.276.174-1.062 5.671-22.951 5.671-53.024-.001-137.68-111.613-249.292-249.293-249.292z" fill="#dff6fd"/><path d="m343.934 368.932c-137.68 0-249.292-111.612-249.292-249.292 0-18.198 1.963-35.93 5.665-53.02-57.332 45.674-94.099 116.089-94.099 195.088 0 88.437 46.05 166.117 115.479 210.372l272.302-3.083c52.542-35.147 91.172-89.826 105.132-154.264-42.584 33.918-96.514 54.199-155.187 54.199z" fill="#c4e2ff"/></g><path d="m274.334 2.399c-13.267-.343-24.208 10.318-24.208 23.589v180.188l35.259-15.082 12.228-15.933v-138.88c.001-15.456-9.663-28.654-23.279-33.882z" fill="#ffac47"/><path d="m274.334 2.399c-4.036-1.549-8.419-2.399-13.001-2.399-20.037 0-36.28 16.243-36.28 36.281v169.896h26.002v-169.896c0-15.456 9.664-28.654 23.279-33.882z" fill="#ff6400"/><path d="m381.657 173.399c-25.049-9.087-52.725-4.413-78.42 10.726-26.675 15.717-59.517 15.717-86.192 0-25.695-15.139-53.372-19.813-78.42-10.726-56.888 20.636-78.678 104.422-48.671 187.141s100.448 133.048 157.335 112.412c4.508-1.635 8.793-3.67 12.852-6.066 4.059 2.396 8.344 4.431 12.852 6.066 56.887 20.636 127.328-29.693 157.335-112.412s8.216-166.505-48.671-187.141z" fill="#00f2a6"/><path d="m297.614 175.161c-22.877 11.277-49.438 11.654-72.561 1.13v38.886h72.561z" fill="#ff6400"/><path d="m381.657 173.399c-25.044-9.085-52.714-4.415-78.405 10.717-26.739 15.749-60.004 15.255-86.826-.353-18.007-10.479-36.967-15.818-55.299-14.886l-38.527 90.618c-21.899 51.507-6.412 111.302 37.736 145.703l86.953 67.755c4.508-1.635 8.793-3.669 12.852-6.066l168.046-100.672c.735-1.874 1.449-3.765 2.141-5.674 30.007-82.72 8.216-166.506-48.671-187.142z" fill="#00f2a6"/><g fill="#14d1b2"><path d="m156.002 209.762c0-14.112 1.78-27.807 5.124-40.877-7.648.389-15.188 1.86-22.503 4.514-53.331 19.347-75.817 94.196-53.694 171.635.173.606.349 1.212.528 1.819l159.486 9.01c-52.832-27.345-88.941-82.506-88.941-146.101z"/><path d="m378.95 363.433 49.237 2.781c.735-1.874 1.449-3.765 2.141-5.674 4.701-12.959 8.13-25.943 10.352-38.707-16.978 18.213-38.041 32.567-61.73 41.6z"/></g><path d="m284.179 370.717c-16.552-2.479-33.823-11.334-45.796-23.017-11.417-11.14-17.182-27.031-25.625-33.049-23.587-16.812-55.324-12.42-81.701-.95 3.511 39.596 18.355 77.353 42.772 108.722 5.901 7.581 10.249 13.369 10.742 14.726 41.935 43.663 107.812 54.062 161.158 25.44l22.779-12.222c24.368-19.557 45.758-48.681 59.67-84.156-57.69-40.612-86.675 13.09-143.999 4.506z" fill="#fd3581"/><ellipse cx="355.999" cy="241.543" fill="#14d1b2" rx="34.914" ry="21.138"/><g><path d="m450.858 80.038h-21.395c-47.014 0-85.127 38.113-85.127 85.127v77.731h39.274v-77.731c0-25.324 20.529-45.853 45.853-45.853h21.864c11.083 0 20.021-9.181 19.624-20.353-.377-10.641-9.446-18.921-20.093-18.921z" fill="#ffdbeb"/></g><path d="m355.999 220.405c-4.09 0-8.016.426-11.663 1.208v39.858c3.647.782 7.573 1.208 11.663 1.208 8.964 0 17.138-2.045 23.321-5.407 2.685-4.532 4.29-9.596 4.29-14.231v-14.438c-6.386-4.987-16.379-8.198-27.611-8.198z" fill="#ffdbeb"/><path d="m461.728 100.185h-29.602c-37.148 0-67.262 30.114-67.262 67.262v75.45h18.747v-77.731c0-25.324 20.529-45.853 45.853-45.853h21.865c9.839 0 17.987-7.236 19.415-16.676-2.644-1.559-5.726-2.452-9.016-2.452z" fill="#ffceed"/><path d="m383.61 228.605c-4.645-3.628-11.197-6.316-18.747-7.512v26.667c0 3.668 1.111 9.353 3.015 13.665 6.277-1.375 11.717-3.808 15.731-6.944v-25.876z" fill="#ffceed"/><path d="m368.508 450.367c.07-.056.14-.113.21-.169-16.371 4.626-33.605 7.097-51.398 7.097-88.117 0-162.525-60.582-186.262-143.594-20.634 8.973-37.987 22.276-45.592 33.149 1.343 4.56 2.832 9.126 4.487 13.691 10.216 28.163 25.12 52.572 42.58 71.704 7.702 8.439 6.659 21.448-2.166 28.705-4.274 3.514-7.234 7.246-8.68 11.13 38.66 24.642 84.569 38.92 133.813 38.92 51.021 0 98.737-15.412 138.489-42.004-4.073-6.9-12.963-13.239-25.481-18.629z" fill="#e41e7f"/><g fill="#fff"><path d="m344.336 198.273h39.274v10h-39.274z"/><path d="m344.336 228.42h39.274v10h-39.274z"/><path d="m344.336 168.127h39.274v10h-39.274z"/><path d="m376.247 98.767c-2.606 2.093-5.086 4.335-7.428 6.714l27.76 27.76c2.334-2.404 4.929-4.554 7.738-6.403z"/><path d="m440.204 80.038h10v39.274h-10z"/><path d="m348.786 137.98c-1.098 3.25-2.005 6.588-2.707 10h40.873c1.452-3.579 3.344-6.935 5.608-10z"/><path d="m420.057 80.554c-3.397.375-6.734.951-10 1.715v41.355c3.155-1.48 6.505-2.61 10-3.341z"/></g></g></svg>