<svg id="Layer_1" enable-background="new 0 0 510 510" height="512" viewBox="0 0 510 510" width="512" xmlns="http://www.w3.org/2000/svg"><g><g><g><path d="m255 0c-98.131 0-158.58 55.352-158.746 55.445 0 0-2.513 3.137-2.983 5.222-3.818 16.948-7.385 39.663-7.385 56.238 0 140.833 118.763 254.972 259.596 254.972 54.231 0 114.568-25.992 154.949-57.243.903-.699 3.769-5.396 3.769-5.396.178-1.087 5.8-23.477 5.8-54.239 0-140.832-114.167-254.999-255-254.999z" fill="#dff6fd"/></g><path d="m345.459 364.679c-140.833 0-255-114.167-255-255 0-18.615 2.007-36.753 5.795-54.234-58.645 46.72-96.254 118.747-96.254 199.555 0 9.102.477 18.093 1.407 26.949l57.454 136.016c12.901 15.509 27.606 29.464 43.793 41.543l279.477 16.556c61.116-35.205 106.531-95.106 122.069-166.827-43.56 34.697-98.725 55.442-158.741 55.442z" fill="#c4e2ff"/></g><g><path d="m412.405 157.052c-24.077-13.022-49.021-20.371-68.982-12.339-.053.021-.106.043-.159.064-8.896 3.621-13.318 13.67-10.313 22.793l22.599 68.6c-.001.001 83.972-64.452 56.855-79.118z" fill="#fff"/><path d="m343.424 144.716c-5.308 2.136-10.264 5.356-14.757 9.85-21.603 21.603-13.846 53.89 2.981 84.64h18.911l5.203-25.509c-13.022-24.076-20.371-49.019-12.338-68.981z" fill="#f9f3f1"/><path d="m412.405 157.053-56.643 56.643 31.464 87.916 87.382-99.58c-16.378-14.434-38.884-32.367-62.203-44.979z" fill="#fe9722"/><g><path d="m401.717 277.005c-14.594-16.463-33.056-39.459-45.955-63.309l-24.608 24.608c11.566 21.384 28.038 42.876 44.059 61.156.063.071.125.143.188.214.469.534.934 1.062 1.395 1.584.064.072.128.144.191.216.041.046.082.091.122.137z" fill="#ff6400"/></g><path d="m482.103 208.771c-2.319-2.127-4.829-4.387-7.496-6.738l-73.867 73.867c3.219 14.649 18.995 22.692 32.77 16.758 13.071-5.631 24.581-12.124 33.85-24.006 7.972-10.219 14.699-21.685 20.179-34.397 3.79-8.792 1.621-19.013-5.436-25.484z" fill="#fec344"/><g><path d="m467.359 268.651c-10.233 7.983-21.715 14.718-34.448 20.202-8.773 3.779-18.98 1.578-25.436-5.462-2.126-2.318-4.385-4.826-6.734-7.492l-24.607 24.607c2.349 2.665 4.609 5.174 6.734 7.492 6.456 7.04 16.663 9.241 25.436 5.462 39.91-17.191 57.784-43.598 59.055-44.809z" fill="#fe9722"/></g></g><path d="m426.986 11.947h-16.543l-17.353 13.277-22.647-13.277h-38.206l-40.002 2.832c-22.341 4.99-42.316 16.325-57.927 32.007l-23.088 32.775c-6.58 13.848-10.544 29.17-11.25 45.323l9.818 35.532-22.088 5.23c-5.099 6.583-11.577 12.047-18.998 15.953l-19.465 16.799-20.541-10.142h-11.681c-8.241 0-16.284.857-24.054 2.47v62.759c7.336-3.348 15.477-5.229 24.054-5.229h11.681l40.001-3.111c27.125-6.363 50.68-22.099 67.049-43.591l18.673-35.983c3.532-11.201 5.438-23.117 5.438-35.469 0-3.547.319-7.02.93-10.393l-2.118-24.907 22.751-9.869c3.322-2.696 6.946-5.034 10.812-6.954l19.281-18.847 20.725 12.815h38.206l18.684-13.696 21.316 13.696h16.543c16.568 0 30-13.432 30-30s-13.432-30-30.001-30z" fill="#6cf5c2"/><path d="m103.062 189.076c-20.385 2.409-39.197 10.028-55.063 21.485l-28.145 28.687c-8.782 12.665-15.154 27.122-18.447 42.702.426 4.06.948 8.091 1.563 12.092l9.942 41.285c4.553 13.726 10.24 26.934 16.951 39.514l5.32-78.938c0-11.654 4.59-23.55 15.853-24.055l36.991-22.367 28.989-1.225 13.834-.795c-11.838-18.251-20.891-37.316-27.788-58.385z" fill="#6cf5c2"/><g><g><path d="m426.986 11.947h-16.685v2.646c10.424 4.701 17.683 15.176 17.683 27.354s-7.26 22.652-17.683 27.353v2.647h16.685c16.568 0 30-13.432 30-30s-13.431-30-30-30z" fill="#14d1b2"/></g><path d="m130.501 246.917c-5.807.881-11.752 1.339-17.801 1.339h-24.686c-32.066 0-58.154 26.088-58.154 58.153v68.434c.678 1.271 1.376 2.529 2.077 3.786l7.594.559 19.33-.551v-38.412l-18.945-20.835 19.292-19.355c.905-8.262 3.548-16.009 7.554-22.867l2.219-19.21 29.436-6.652c5.842-1.977 12.098-3.049 18.599-3.049h14.348c-.289-.446-.577-.893-.863-1.34z" fill="#14d1b2"/></g><g><g><path d="m48.002 210.566c-10.928 7.891-20.457 17.602-28.142 28.686l46.915 37.924c7.029-12.031 18.247-21.318 31.646-25.853z" fill="#af66da"/></g><path d="m59.218 300.035-56.248-5.994c2.179 14.181 5.526 27.977 9.939 41.286l45.952 4.897v-33.815c0-2.155.127-4.28.357-6.374z" fill="#af66da"/><path d="m58.861 417.966v-39.33h-26.937c7.758 13.967 16.789 27.129 26.937 39.33z" fill="#af66da"/><g><path d="m168.696 245.141v-63.554c-8.073 4.25-17.254 6.669-26.994 6.669h-13.006v60h13.006c9.285 0 18.321-1.08 26.994-3.115z" fill="#af66da"/></g><g><path d="m370.443 11.947h40v60h-40z" fill="#af66da"/></g><g><path d="m332.237 11.947h-14.227c-8.85 0-17.473.985-25.772 2.839v63.204c7.773-3.86 16.521-6.042 25.772-6.042h14.228v-60.001z" fill="#af66da"/></g><g><path d="m235.74 201.549c8.16-10.714 14.536-22.854 18.675-35.98l-54.437-40.685c-.076 1.73-.122 3.468-.122 5.217 0 13.375-4.55 25.7-12.168 35.535z" fill="#af66da"/></g><g><path d="m234.311 46.788c-9.439 9.483-17.279 20.556-23.085 32.775l49.579 40.148c2.527-13.948 10.035-26.179 20.621-34.771z" fill="#af66da"/></g></g><g><path d="m393.527 400.702h-294.625c-9.369 0-15.788 9.445-12.339 18.156l16.093 40.651c8.75 6.529 17.932 12.509 27.497 17.89l12.865-5.918 9.158 16.939c4.329 1.91 8.72 3.702 13.171 5.374l9.542-15.708 12.262 22.789c4.416 1.216 8.88 2.316 13.389 3.297l11.012-5.444 11.012 9.229c4.357.553 8.748.996 13.171 1.327l12.64-7.583 9.383 8.285c4.417-.047 8.808-.207 13.171-.477l8.161-12.597 13.862 10.273c4.427-.663 8.819-1.439 13.171-2.327l11.011-11.909 11.012 6.379c4.441-1.329 8.832-2.777 13.171-4.338l6.965-20.701 15.058 11.583c6.411-3.013 12.678-6.287 18.79-9.807l23.655-57.005c3.627-8.74-2.796-18.358-12.258-18.358z" fill="#fe9722"/><g fill="#fec344"><path d="m255 510c.92 0 1.84-.005 2.758-.015v-67.156c0-6.082-4.93-11.011-11.011-11.011-6.082 0-11.011 4.93-11.011 11.011v66.454c6.359.475 12.783.717 19.264.717z"/><path d="m211.552 431.817c-6.082 0-11.011 4.93-11.011 11.011v61.343c7.231 1.573 14.577 2.84 22.023 3.785v-65.128c0-6.081-4.93-11.011-11.012-11.011z"/><path d="m176.358 431.817c-6.081 0-11.011 4.93-11.011 11.011v50.965c7.192 2.702 14.539 5.087 22.023 7.141v-58.106c0-6.081-4.931-11.011-11.012-11.011z"/><path d="m152.175 442.828c0-6.082-4.93-11.011-11.011-11.011-6.081 0-11.011 4.93-11.011 11.011v34.57c7.135 4.014 14.483 7.695 22.023 11.021v-45.591z"/><path d="m352.329 431.817c-6.082 0-11.011 4.93-11.011 11.011v52.16c7.506-2.702 14.854-5.748 22.023-9.117v-43.042c0-6.082-4.93-11.012-11.012-11.012z"/><path d="m328.147 499.326v-56.498c0-6.082-4.93-11.011-11.011-11.011s-11.011 4.93-11.011 11.011v62.028c7.459-1.521 14.805-3.37 22.022-5.53z"/><path d="m292.952 507.184v-64.355c0-6.082-4.93-11.011-11.011-11.011s-11.011 4.93-11.011 11.011v66.679c7.426-.46 14.772-1.239 22.022-2.324z"/></g><g><g><circle cx="178.265" cy="390.205" fill="#fd5ca6" r="49.726"/></g><g><circle cx="245.912" cy="348.492" fill="#fd5ca6" r="57.915"/></g><g><circle cx="292.532" cy="397.116" fill="#fd5ca6" r="34.701"/></g><g><circle cx="350.558" cy="383.278" fill="#fd5ca6" r="37.323"/></g><g><circle cx="306.358" cy="351.28" fill="#fd5ca6" r="38.925"/></g><g><circle cx="387.226" cy="398.411" fill="#fd5ca6" r="21.778"/></g><g><circle cx="132.345" cy="354.802" fill="#fd5ca6" r="25.584"/></g><g><circle cx="114.76" cy="396.883" fill="#fd5ca6" r="30.523"/></g><g><circle cx="179.23" cy="340.479" fill="#fd5ca6" r="33.948"/></g></g><g><path d="m204.403 329.466h-8.141c0-20.785 16.911-37.696 37.696-37.696v8.141c-16.296-.001-29.555 13.258-29.555 29.555z" fill="#ffceed"/></g><g><path d="m261.901 393.446h-8.141c0-20.785 16.911-37.696 37.696-37.696v8.141c-16.296 0-29.555 13.259-29.555 29.555z" fill="#ffceed"/></g><g><path d="m136.414 379.403h-8.141c0-9.379 7.63-17.009 17.009-17.009v8.141c-4.889 0-8.868 3.979-8.868 8.868z" fill="#ffceed"/></g><g><path d="m324.431 374.308h-8.141c0-13.8 11.228-25.026 25.027-25.026v8.141c-9.311-.001-16.886 7.574-16.886 16.885z" fill="#ffceed"/></g><g><path d="m216.927 379.228h-8.141c0-16.298-13.259-29.557-29.556-29.557v-8.141c20.786 0 37.697 16.911 37.697 37.698z" fill="#ffceed"/></g></g></g></svg>