<svg id="Layer_1" enable-background="new 0 0 512 512" height="512" viewBox="0 0 512 512" width="512" xmlns="http://www.w3.org/2000/svg"><g><g><path d="m503.262 189.441-23.211-57.38c-23.287-42.007-58.044-76.775-100.043-100.074l-56.024-22.862c-21.649-5.949-44.446-9.125-67.984-9.125-75.767 0-129.159 32.869-149.852 48.092l-19.926 69.273c0 141.385 119.229 255.972 260.614 255.972 54.444 0 115.017-26.094 155.557-57.467.907-.702 3.784-5.417 3.784-5.417.179-1.091 5.823-23.569 5.823-54.452 0-23.024-3.039-45.336-8.738-66.56z" fill="#bd80e1"/><path d="m346.814 366.109c-141.385 0-256-114.615-256-256 0-4.719-.396-12.759-.143-17.414l-58.898 39.707c-20.247 36.642-31.773 78.775-31.773 123.598 0 9.785.549 19.441 1.617 28.94l6.888 2.478-4.635 13.174c2.436 13.867 5.988 27.351 10.56 40.354l8.443 2.636-3.432 10.448c5.019 12.096 10.938 23.725 17.673 34.801l8.748 1.392-1.37 10.043c7.331 10.727 15.456 20.867 24.291 30.336l8.247 1.398 1.711 8.701 56.471 41.066c11.445 6.136 23.409 11.427 35.812 15.79l7.78-6.538 5.187 10.712c12.291 3.596 24.967 6.295 37.948 8.02l8.276-7.681 5.442 9.131c6.712.53 13.496.799 20.343.799 6.759 0 13.463-.263 20.1-.781l9.157-4.724 5.727 3.126c106.06-14.54 192.465-94.259 215.194-199.169-43.732 34.831-99.112 55.657-159.364 55.657z" fill="#af66da"/></g><path d="m414.12 344.747c-69.614 9.771-138.955-7.483-196.079-48.985-59.254-43.051-97.77-106.666-108.45-179.127-.491-3.338-3.356-5.812-6.73-5.812s-6.239 2.474-6.73 5.812c-9.818 66.612-43.16 125.748-94.511 168.306.592 5.268 1.345 10.486 2.253 15.652 26.601-20.803 49.018-45.859 66.728-74.604 10.084-16.369 18.404-33.568 24.912-51.47v84.135c-16.072 23.623-35.213 45-56.932 63.572-7.732 6.612-15.798 12.861-24.147 18.721 1.554 4.418 3.225 8.781 5.011 13.084 9.707-6.666 19.056-13.833 27.98-21.465 17.767-15.193 33.88-32.188 48.089-50.7v58.813c-7.325 7.407-15.022 14.568-22.92 21.322-11.248 9.619-23.1 18.579-35.477 26.831 2.36 3.88 4.821 7.693 7.378 11.435 12.889-8.585 25.232-17.91 36.942-27.924 4.775-4.083 9.478-8.31 14.076-12.647v51.243c-8.608 6.865-17.56 13.451-26.728 19.665 3.145 3.371 6.38 6.657 9.702 9.853 5.773-3.96 11.459-8.061 17.027-12.283v18.059l-16.771-5.53c16.794 16.121 35.781 29.974 56.471 41.066 1.474-5.189 3.046-10.358 4.697-15.438 1.947-5.99 4.05-12.008 6.271-17.942l48.75-16.018c-6.997 14.856-13.092 30.241-18.189 45.927-2.069 6.369-3.976 12.794-5.716 19.26 4.272 1.503 8.596 2.895 12.968 4.174 1.727-6.456 3.624-12.872 5.69-19.23 6.278-19.318 14.124-38.165 23.342-56.077l56.027-18.408c-18.213 26.526-32.486 55.518-42.537 86.453-1.647 5.071-3.172 10.166-4.574 15.284 4.537.603 9.111 1.087 13.719 1.45 1.18-4.192 2.445-8.369 3.797-12.528 11.574-35.624 28.978-68.558 51.746-97.936l80.853-26.565c-15.34 11.883-29.409 25.329-42.091 40.251-24.074 28.325-42.134 60.696-53.676 96.216-.062.192-.124.384-.187.576 5.001-.39 9.963-.924 14.884-1.598 22.338-64.382 67.111-116.875 127.018-149.076-1.342-5.255-2.641-10.52-3.886-15.797zm-305.002 82.586c5.867 4.477 11.866 8.82 17.964 13.007l-17.964 5.902zm17.849 34.792c-1.181 3.63-2.321 7.306-3.416 11.001l-10.212-13.947 16.433-5.399c-.966 2.78-1.901 5.565-2.805 8.345zm16.528-27.178c-11.853-7.718-23.4-16.079-34.376-24.894v-51.402c4.946 4.701 10.018 9.277 15.172 13.684 20.821 17.805 43.636 33.435 67.981 46.586zm66.871-21.971c-27.884-13.851-53.861-30.998-77.232-50.982-8.292-7.09-16.365-14.631-24.016-22.435v-49.288c0-3.196 4.021-4.628 6.027-2.139 12.973 16.093 27.415 30.967 43.158 44.428 31.644 27.058 68.64 48.281 107.962 62.05zm77.975-25.62c-44.264-12.661-86.149-35.169-121.195-65.137-22.214-18.994-41.732-40.922-58.028-65.189v-85.565c6.661 19.001 15.346 37.225 26.003 54.524 19.499 31.65 44.706 58.829 74.921 80.782 30.215 21.952 63.853 37.528 99.98 46.291 19.389 4.704 39.034 7.324 58.794 7.855z" fill="#004281"/><g><path d="m368.155 33.464h51.123v172.344h-51.123z" fill="#fff" transform="matrix(.707 -.707 .707 .707 30.722 313.44)"/><path d="m371.898 42.502h25.562v172.344h-25.562z" fill="#f9f3f1" transform="matrix(.707 -.707 .707 .707 21.684 309.697)"/><g><circle cx="307.88" cy="71.514" fill="#f9f3f1" r="33.801"/></g><g><path d="m380.009 31.987c-17.517-9.718-36.295-17.441-56.026-22.862-.539.475-1.066.97-1.581 1.485-13.2 13.2-13.2 34.601 0 47.802s34.601 13.2 47.802 0c7.241-7.243 10.51-16.954 9.805-26.425z" fill="#fff"/><circle cx="308.589" cy="72.224" fill="#f9f3f1" r="33.801"/></g><g><path d="m503.262 189.441c-5.431-20.225-13.277-39.461-23.211-57.38-8.978-.262-18.041 3.033-24.894 9.885-13.2 13.2-13.2 34.601 0 47.802s34.601 13.2 47.802 0c.102-.102.203-.205.303-.307z" fill="#fff"/><circle cx="441.345" cy="203.56" fill="#f9f3f1" r="33.801"/></g></g><g><path d="m247.955 396.572 2.272 13.603 11.045 15.903-6.358 12.16 1.912 11.448c.871 5.219 7.109 7.486 11.128 4.045l50.546-43.276-61.606-21.427c-4.877-1.694-9.79 2.451-8.939 7.544z" fill="#fd3581"/><path d="m250.226 410.175 4.688 28.065 63.587-27.784z" fill="#e41e7f"/><path d="m501.278 356.428 2.272 13.603-6.871 16.197 11.558 11.867 1.912 11.448c.871 5.219-4.29 9.391-9.21 7.442l-61.866-24.501 51.299-40.283c4.061-3.19 10.056-.866 10.906 4.227z" fill="#fd3581"/><path d="m503.55 370.031 4.687 28.065-69.164-5.612z" fill="#fd5ca6"/><path d="m465.62 389.973c-5.802-34.739-49.374-56.407-97.32-48.399-23.393 3.907-43.505 14.156-57.296 27.664-10.785 28.209 1.62 59.996 28.661 73.444 29.787 14.814 65.665 9.352 89.695-13.654l36.744-35.178c-.108-1.292-.268-2.584-.484-3.877z" fill="#fd3581"/><path d="m408.802 421.517c-47.947 8.008-91.518-13.661-97.32-48.4-.216-1.293-.369-2.585-.476-3.876-14.475 14.177-21.988 31.943-19.016 49.732 5.802 34.739 49.374 56.407 97.32 48.4 46.162-7.71 79.544-40.119 76.787-73.522-13.792 13.507-33.902 23.758-57.295 27.666z" fill="#e41e7f"/><g fill="#fd5ca6"><circle cx="378.72" cy="404.487" r="12.241"/><circle cx="370.296" cy="354.043" r="12.241"/><circle cx="387.145" cy="454.93" r="12.241"/><circle cx="336.838" cy="385.557" r="12.241"/><circle cx="345.263" cy="436" r="12.241"/><circle cx="411.011" cy="373.985" r="12.241"/><circle cx="419.435" cy="424.429" r="12.241"/><circle cx="443.467" cy="393.673" r="12.241"/><circle cx="309.781" cy="413.836" r="12.241"/></g></g><g><g><path d="m66.046 90.891-20.805 19.776c-4.837 6.999-9.334 14.253-13.469 21.734l52.594-31.39z" fill="#fe9722"/><path d="m77.334 99.938c2.443 0 4.506.586 6.196 1.573l.837-.5-22.176-12.25c-3.139 3.635-6.17 7.367-9.104 11.177z" fill="#ff6400"/><path d="m45.241 110.667 39.126-9.656-28.237-4.966c-3.798 4.74-7.43 9.617-10.889 14.622z" fill="#ff6400"/><path d="m273.663 75.846-.074 16.625-7.324 13.554 7.196 14.899-.065 14.582c-.018 3.984-4.379 6.421-7.781 4.349l-59.371-36.161 59.867-32.373c3.418-1.85 7.569.638 7.552 4.525z" fill="#fe9722"/><path d="m273.589 92.471-.129 28.453-67.217-17.23z" fill="#fec344"/><path d="m130.251 128.121v-85.732c-8.347.989-16.301 2.824-23.678 5.392-.146.106-.281.208-.424.312v80.03z" fill="#fe9722"/><path d="m186.618 128.121v-78.82c-7.933-3.124-16.595-5.399-25.76-6.643v85.464h25.76z" fill="#fe9722"/><path d="m217.556 69.615v58.507l14.989-17.465c.182-1.631.278-3.282.286-4.947.06-13.379-5.598-25.803-15.275-36.095z" fill="#fe9722"/><g fill="#ff6400"><path d="m130.14 119.503c-9.165-3.597-17.362-8.325-24.213-13.936v56.877c7.525 2.707 15.661 4.648 24.213 5.71z"/><path d="m217.778 117.869v23.237c8.501-9.086 13.844-19.855 14.867-31.496-4.519 3.125-9.508 5.89-14.867 8.259z"/><path d="m186.728 126.285c-4.951.604-10.035.926-15.231.903-3.569-.016-7.076-.212-10.528-.533v41.361c9.166-1.213 17.826-3.468 25.76-6.569v-35.162z"/><path d="m75.099 74.898c-5.896 5.889-11.513 12.058-16.816 18.497-.96 3.736-1.47 7.588-1.488 11.525-.066 14.733 6.771 28.327 18.303 39.175v-69.197z"/></g></g><path d="m161.336 128.121v-85.42c-5.261-.735-10.688-1.131-16.236-1.157-5.131-.023-10.161.272-15.054.86v85.716c0 .001 31.29.001 31.29.001z" fill="#fec344"/><path d="m161.342 167.993v-41.272h-.006c-11.214-.985-21.779-3.495-31.29-7.233v48.672c4.555.559 9.738.936 15.441.916 5.874-.022 11.197-.461 15.855-1.083z" fill="#fe9722"/><path d="m96.63 55.662c-4.369 3.481-8.622 7.101-12.751 10.854l-8.854 61.605h31.29v-80.154c-6.32 4.641-9.645 7.674-9.685 7.695z" fill="#fec344"/><path d="m106.311 162.594v-56.69c-13.075-10.567-21.374-24.295-22.431-39.386-3.018 2.743-5.97 5.558-8.854 8.44v69.074c.001.001.002.002.003.002 3.779 3.337 8.631 7.098 14.621 10.666 6.117 3.644 11.851 6.151 16.661 7.894z" fill="#fe9722"/><path d="m217.86 128.121v-58.238c-7.955-8.572-18.699-15.678-31.29-20.631v78.87z" fill="#fec344"/><path d="m186.57 161.554c12.587-4.898 23.333-11.958 31.29-20.5v-23.197c-9.406 4.176-19.983 7.104-31.29 8.467z" fill="#fe9722"/></g><g><path d="m388.644 211.955-8.852-20.169c-1.253-2.041-2.607-4.044-4.063-6.002-19.54-26.288-52.078-37.34-82.192-30.884l-20.728 7.533c-3.622 1.913-7.143 4.127-10.531 6.645l-17.215 12.796 2.82 9.296-16.808 1.1-25.924 19.269-1.74 7.316-12.248 3.081-26.734 19.873 1.847 8.098-15.834 2.299-28.085 20.876 1.146 7.446-15.133 2.951-26.735 19.873 2.577 7.668-16.565 2.729-6.559 4.875c-8.9 6.615-10.752 19.192-4.136 28.092l227.409-150.507c18.113-13.464 52.682-9.336 66.145 8.776s16.684 48.613-1.43 62.076l-64.39 62.408c6.616 8.9 19.192 10.752 28.093 4.136l10.233-7.606-3.056-8.668 17.044-1.729 22.022-16.369c1.5-1.114 2.949-2.272 4.35-3.469l1.181-8.9 10.058-2.856c5.856-7.517 10.248-15.915 13.113-24.756l-3.048-10.225 6.384-4.73c1.361-10.734.588-21.747-2.416-32.342z" fill="#6cf5c2"/><path d="m359.616 197.762c-20.101-27.042-58.317-32.669-85.359-12.568l-217.303 161.522c6.616 8.9 19.193 10.752 28.093 4.136l5.991-4.453 19.344-14.378.855-9.217 13.131-1.18 26.735-19.873 1.746-9.121 12.242-1.276 28.085-20.876-.04-9.513 14.028-.883 26.734-19.873-2.82-8.734 16.808-1.663 25.924-19.269 1.058-8.1c.531-.395 12.437-1.911 12.981-2.277 17.997-12.09 42.585-8.01 55.654 9.572 3.954 5.32 6.419 11.293 7.469 17.418l5.959 9.77-6.421 6.415c-.425 1.849-.978 3.67-1.656 5.45-.265.695-.547 1.383-.85 2.065-.349.785-.715 1.564-1.114 2.328-2.762 5.281-6.723 10.034-11.817 13.821l-2.344 8.881-11.719 1.572-26.734 19.873-11.554 11.437c-3.134 6.511-2.636 14.5 1.974 20.703l62.357-46.35c27.036-20.101 32.663-58.317 12.563-85.359z" fill="#14d1b2"/><g fill="#fff"><path d="m286.235 201.307c.531-.395 1.07-.772 1.614-1.137l-42.785-18.295-13.988 10.397 42.732 18.272z"/><path d="m165.091 291.355-42.732-18.272-13.988 10.397 42.732 18.273z"/><path d="m363.498 295.63c4.143-3.557 7.847-7.457 11.098-11.632l-39.603-16.934-13.987 10.397z"/><path d="m247.884 229.814-42.732-18.273-13.986 10.398 42.731 18.272z"/><path d="m207.162 260.083-42.732-18.272-13.986 10.396 42.731 18.273z"/><path d="m293.543 154.923c-7.113 1.525-14.093 4.005-20.732 7.512l115.817 49.524c-1.976-6.968-4.917-13.753-8.852-20.163z"/><path d="m124.368 321.624-42.731-18.272-13.988 10.398 42.732 18.272z"/><path d="m294.272 297.332-5.444 4.047c-2.698 2.005-4.736 4.563-6.1 7.395l40.288 17.227 13.988-10.397z"/><path d="m391.042 244.297-40.079-17.138c.927 5.392.76 10.899-.455 16.183l37.196 15.905c1.582-4.873 2.697-9.879 3.338-14.95z"/></g></g><g fill="#fef48b"><circle cx="429.319" cy="298.879" r="10.758"/><circle cx="488.05" cy="261.852" r="8.629"/><circle cx="243.057" cy="37.713" r="10.758"/></g></g></svg>