<svg id="Layer_1" enable-background="new 0 0 503.344 503.344" height="512" viewBox="0 0 503.344 503.344" width="512" xmlns="http://www.w3.org/2000/svg"><g><g><g><path d="m502.85 252.166c0-138.722-112.456-251.178-251.178-251.178-96.66 0-156.203 54.522-156.367 54.614 0 0-2.476 3.09-2.938 5.144-3.761 16.694-7.275 39.069-7.275 55.395 0 138.722 116.983 251.15 255.705 251.15 53.418 0 112.85-25.602 152.627-56.385.89-.689 3.713-5.316 3.713-5.316.174-1.069 5.713-23.123 5.713-53.424z" fill="#dff6fd"/></g><g><g><path d="m497.136 305.591c-31.268 24.906-68.608 42.513-109.444 50.232l42.1 54.925 49.556-52.362c7.774-16.651 13.787-34.325 17.788-52.795z" fill="#c4e2ff"/></g><g><path d="m89.597 109.023c0-18.336 1.977-36.202 5.708-53.421-57.766 46.02-94.811 116.967-94.811 196.564 0 32.981 6.357 64.478 17.912 93.332l261.658 7.316c-109.39-27.152-190.467-126.003-190.467-243.791z" fill="#c4e2ff"/></g></g></g><g><path d="m180.324 47.483-10.585-38.659v-3.456c0-2.118 1.246-4.038 3.18-4.902s4.195-.509 5.772.905l56.997 51.112z" fill="#004281"/></g><g><path d="m427.7 147.08c-28.479 0-51.647 23.169-51.647 51.646v30.407c0 7.456 6.044 13.5 13.5 13.5s13.5-6.044 13.5-13.5v-30.407c0-13.59 11.057-24.646 24.647-24.646s24.646 11.057 24.646 24.646v168.992c0 13.59-11.057 24.646-24.646 24.646h-44.642c-7.456 0-13.5 6.044-13.5 13.5s6.044 13.5 13.5 13.5h44.642l15.133-4.255c14.557-17.053 26.886-36.105 36.514-56.724v-159.66c-.001-28.476-23.17-51.645-51.647-51.645z" fill="#004281"/></g><g><path d="m288.527 326.57-109.415 24.265v112.82l156.753 25.199c41.778-14.873 78.602-40.515 106.968-73.744-20.06-62.835-85.706-103.753-154.306-88.54z" fill="#00366d"/></g><g><path d="m250.024 180.283h44.538v295.839h-44.538z" fill="#00366d"/></g><g><path d="m18.406 345.498c37.047 92.506 127.526 157.846 233.266 157.846 5.491 0 10.944-.178 16.354-.527v-397.208h-85.696v100.627c0 46.796-37.936 84.732-84.733 84.732-36.157.001-67.024 22.648-79.191 54.53z" fill="#004281"/></g><g><path d="m335.865 488.855c-6.376-18.003-23.551-30.9-43.74-30.9h-35.1v45.332c27.536-.579 54.059-5.611 78.84-14.432z" fill="#004281"/></g><g><path d="m282.028 184.129-77.555 13.62 72.157 29.477z" fill="#00366d"/></g><g><path d="m303.921 414.822h-70.69c-17.064 0-30.896 13.833-30.896 30.896v29.572c0 14.577 11.817 26.394 26.394 26.394 14.577 0 26.394-11.817 26.394-26.394v-5.183c0-6.551 5.311-11.862 11.862-11.862h36.937v-43.423z" fill="#00366d"/></g><g><path d="m192.323 47.483v141.076c3.782 1.413 7.875 7.456 12.15 7.456l21.65 1.734h99.934c19.183 0 34.734-15.551 34.734-34.734v-115.532z" fill="#004281"/></g><g><path d="m193.311 163.015v-115.532h-23.572v115.532c0 19.183 15.551 34.734 34.734 34.734h23.572c-19.183 0-34.734-15.551-34.734-34.734z" fill="#00366d"/></g><g><path d="m169.739 47.483v-38.659c0-1.542 1.08-2.873 2.589-3.191s3.034.465 3.656 1.875l17.622 39.974h-23.867z" fill="#fd3581"/></g><g><path d="m343.499 48.794 17.291-39.968v-3.458c0-2.118-1.246-4.038-3.18-4.902s-4.195-.509-5.772.905l-56.998 51.112z" fill="#004281"/></g><g><path d="m336.924 47.483h23.866s0-22.657 0-38.657c0-1.542-1.08-2.873-2.589-3.191-1.509-.317-3.034.466-3.656 1.877-7.072 16.041-17.621 39.971-17.621 39.971z" fill="#fd3581"/></g><g><path d="m331.334 101.095s-10.898 17.121-24.34 17.121-24.34-17.121-24.34-17.121 10.898-17.121 24.34-17.121 24.34 17.121 24.34 17.121z" fill="#00366d"/></g><g><path d="m331.334 95.737s-10.898 17.121-24.34 17.121-24.34-17.121-24.34-17.121 10.898-17.121 24.34-17.121 24.34 17.121 24.34 17.121z" fill="#fef48b"/></g><g><ellipse cx="306.994" cy="95.737" fill="#00366d" rx="7.619" ry="13.424"/></g><g><path d="m255.74 101.095s-10.898 17.121-24.34 17.121-24.34-17.121-24.34-17.121 10.898-17.121 24.34-17.121 24.34 17.121 24.34 17.121z" fill="#00366d"/></g><g><path d="m255.74 95.737s-10.898 17.121-24.34 17.121-24.34-17.121-24.34-17.121 10.898-17.121 24.34-17.121 24.34 17.121 24.34 17.121z" fill="#fef48b"/></g><g><ellipse cx="231.399" cy="95.737" fill="#00366d" rx="7.619" ry="13.424"/></g><g><path d="m282.1 165.923c-8.502 0-15.42-6.918-15.42-15.42v-22.645h5.357v22.645c0 5.549 4.514 10.062 10.062 10.062s10.062-4.514 10.062-10.062v-4.952h5.357v4.952c.001 8.502-6.916 15.42-15.418 15.42z" fill="#00366d"/></g><g><path d="m256.623 165.923c-8.502 0-15.419-6.918-15.419-15.42v-4.952h5.357v4.952c0 5.549 4.514 10.062 10.062 10.062s10.062-4.514 10.062-10.062v-22.645h5.357v22.645c0 8.502-6.917 15.42-15.419 15.42z" fill="#00366d"/></g><g><path d="m262.861 134.595-12.926-12.926c10.728-10.728 28.12-10.728 38.848 0l-12.926 12.926c-3.589 3.589-9.407 3.589-12.996 0z" fill="#fd5ca6"/></g><g><path d="m218.632 86.104 12.767 9.633-17.721-4.816z" fill="#fff"/></g><g><path d="m319.662 86.104-12.767 9.633 17.721-4.816z" fill="#fff"/></g></g></svg>