<svg id="Layer_1" enable-background="new 0 0 510 510" height="512" viewBox="0 0 510 510" width="512" xmlns="http://www.w3.org/2000/svg"><g><g><path d="m255 0c-83.316 0-139.47 39.901-154.627 52.005l-14.488 64.901c0 140.832 118.763 254.972 259.596 254.972 54.231 0 114.568-25.992 154.949-57.243.903-.699 3.769-5.396 3.769-5.396.178-1.086 5.8-23.477 5.8-54.238.001-140.834-114.166-255.001-254.999-255.001z" fill="#dff6fd"/><path d="m345.459 364.679c-140.833 0-255-114.167-255-255l-75.142 58.093c-9.91 27.213-15.317 56.589-15.317 87.228 0 77.781 34.825 147.429 89.733 194.202l311.455 14.733c51.434-36.026 89.136-90.648 103.012-154.697-43.56 34.696-98.724 55.441-158.741 55.441z" fill="#c4e2ff"/></g><g><g><path d="m110.596 269.601c-26.049 28.172-41.711 64.345-41.711 103.801 0 27.37 7.535 53.163 20.847 75.799 18.466 15.73 39.204 28.873 61.652 38.868l32.522-29.76c73.1-66.89 25.776-188.708-73.31-188.708z" fill="#eb4f02"/><path d="m390.13 269.601-29.183 12.009-15.637 211.903c19.911-7.547 38.663-17.521 55.877-29.579 19.359-25.883 30.653-57.025 30.653-90.532.001-39.455-15.661-75.629-41.71-103.801z" fill="#ff6400"/><path d="m356.417 269.601h-212.107c-17.243 28.77-27.498 64.751-27.498 103.801 0 44.133 13.089 84.356 34.573 114.667 16.38 7.293 33.67 12.91 51.654 16.633l180.876-131.3c0-39.05-10.255-75.031-27.498-103.801z" fill="#ff6400"/><path d="m356.417 269.601h-106.054l46.321 236.996c16.797-2.77 33.066-7.186 48.626-13.084 23.867-30.854 38.605-73.282 38.605-120.112 0-39.049-10.255-75.03-27.498-103.8z" fill="#fe9722"/><path d="m309.121 269.601h-117.516c-9.554 28.77-15.235 64.751-15.235 103.801 0 52.781 10.373 99.97 26.669 131.3 15.317 3.171 31.136 4.968 47.324 5.257l73.993-136.557c.001-39.05-5.681-75.031-15.235-103.801z" fill="#fe9722"/><path d="m250.363 509.959c1.542.027 3.088.042 4.637.042 14.176 0 28.102-1.163 41.684-3.403 16.873-31.304 27.673-79.338 27.673-133.195 0-39.05-5.682-75.031-15.235-103.801h-58.758v240.357z" fill="#ffac47"/><path d="m182.929 316.086c-4.379-4.379-11.313-6.291-12.22-.165-2.295 15.493-5.279 37.555 1.626 44.46 6.904 6.905 30.202 4.843 45.695 2.548 1.532-.227 2.835-.866 3.859-1.766z" fill="#b9390e"/><path d="m169.787 325.791c.908-6.126 8.411-8.597 12.79-4.218l39.45 39.45c2.945-2.728 3.452-7.654.22-10.885l-39.671-39.671c-4.379-4.379-11.882-1.909-12.79 4.218-1.353 9.135-2.624 20.981-2.024 30.583.334-6.739 1.163-13.658 2.025-19.477z" fill="#fec344"/><path d="m328.415 315.756c-.908-6.126-9.162-2.893-13.541 1.486l-38.781 42.945c1.111 1.406 2.746 2.439 4.786 2.742 15.493 2.295 38.791 4.357 45.695-2.548s4.136-29.132 1.841-44.625z" fill="#b9390e"/><path d="m276.66 359.536 39.671-39.671c4.379-4.379 11.882-1.909 12.79 4.218.903 6.093 1.766 13.391 2.066 20.426.489-9.462-.748-20.927-2.066-29.823-.908-6.126-8.411-8.597-12.79-4.218l-39.671 39.671c-2.921 2.921-2.782 7.223-.557 10.039.177-.219.352-.437.557-.642z" fill="#fec344"/><path d="m250.363 438.129c-32.512 0-62.139-12.337-84.466-32.58-3.279-2.973-8.45.078-7.339 4.362 10.581 40.825 47.671 70.974 91.805 70.974s81.225-30.148 91.805-70.974c1.11-4.285-4.06-7.335-7.339-4.362-22.327 20.243-51.954 32.58-84.466 32.58z" fill="#b9390e"/><path d="m292.851 452.744h-10.355c-2.744 0-4.968-2.224-4.968-4.968v-21.569h20.291v21.569c0 2.744-2.224 4.968-4.968 4.968z" fill="#ffac47"/><path d="m224.6 480.885h-20.291v-21.569c0-2.744 2.224-4.968 4.968-4.968h10.355c2.744 0 4.968 2.224 4.968 4.968z" fill="#fe9722"/></g><g><path d="m379.112 267.205c-21.429-13.358-69.886-23.553-128.749-23.553-56.112 0-105.232 10.528-128.205 23.223l-9.23 14.741c7.215 6.037 23.7 11.333 46.2 15.221l182.535.086c22.755-3.896 39.43-9.225 46.698-15.307z" fill="#b9390e"/><path d="m112.933 281.611c15.126-14.91 71.038-31.874 137.712-31.874s122.586 16.963 137.712 31.874c2.635-2.207 4.042-4.511 4.042-6.884 0-15.99-63.466-39.379-141.755-39.379s-141.755 23.389-141.755 39.379c.002 2.372 1.409 4.677 4.044 6.884z" fill="#eb4f02"/></g></g><g><path d="m342.207 69.24c-29.04 9.454-60.998 18.924-91.792 18.627-27.651-.267-58.128-9.172-82.809-18.629l-17.827 13.727c68.629 14.59 139.643 14.728 208.318.403z" fill="#f9f3f1"/><g><path d="m167.606 69.24c2.696 8.551 5.601 17.085 8.715 25.595l18.387 12.848-8.42 12.598c3.531 8.452 7.27 16.872 11.216 25.251l14.819 13.371-2.359 11.639c4.36 8.291 8.927 16.534 13.7 24.722l14.641 10.621.294 13.765c5.184 8.067 10.573 16.071 16.166 24.003 5.61-7.93 11.015-15.931 16.215-23.997l-1.849-13.771 16.831-10.611c4.788-8.187 9.369-16.429 13.743-24.72l-8.776-15.311 21.277-9.699c3.959-8.38 7.71-16.8 11.253-25.253l-4.787-13.488 14.788-11.963c3.125-8.511 6.041-17.047 8.747-25.6-57.706 10.481-116.895 10.481-174.601 0z" fill="#af66da"/><g fill="#814ba1"><path d="m197.504 145.532c3.946 8.38 8.099 16.719 12.46 25.01 29.867 2.305 59.874 2.308 89.742.011 4.374-8.291 8.541-16.63 12.5-25.01-38.129 3.92-76.574 3.916-114.702-.011z"/><path d="m285.961 195.273c-20.751 1.061-41.546 1.058-62.297-.009 4.773 8.187 9.752 16.318 14.936 24.386 10.791.278 21.587.281 32.378.006 5.201-8.067 10.195-16.197 14.983-24.383z"/><path d="m176.323 94.835c3.114 8.509 6.436 16.994 9.967 25.446 45.525 5.872 91.643 5.875 137.169.009 3.542-8.453 6.876-16.939 10.001-25.45-52.053 8.074-105.086 8.072-157.137-.005z"/></g></g><g><path d="m167.452 69.213c-22.648-4.121-45.068-9.857-67.079-17.207-2.695 2.152-4.094 3.426-4.119 3.44-36.409 29.006-64.71 67.766-80.937 112.327 2.371 11.181 5.041 22.377 8.014 33.575 8.14-5.411 16.106-10.967 23.894-16.662l13.612-20.595 22.836-8.135c11.095-9.424 21.758-19.144 31.978-29.131l-4.015-22.747 27.311-1.312c10.005-10.925 19.511-22.121 28.505-33.553z" fill="#004281"/><g fill="#fff"><path d="m118.217 79.826c-13.907-3.855-28.506 2.388-32.809 14.819-4.299 12.404 4.57 26.729 20.032 31.023 3.454.961 6.91 1.323 10.211 1.157 8.042-7.859 15.808-15.883 23.295-24.06-1.062-10.413-9.211-19.721-20.729-22.939z"/><path d="m82.789 155.669c-16.101-4.87-32.673.352-37.265 12.679-1.91 5.27-1.186 11.021 1.7 16.337 12.62-9.226 24.774-18.814 36.449-28.73-.294-.098-.585-.195-.884-.286z"/></g></g><g><path d="m508.043 6.273c-12.572 7.641-25.407 14.664-38.462 21.068l-18.416 24.635-29.838-4.112c-25.806 9.367-52.227 16.483-78.967 21.348 6.382 8.129 13.022 16.139 19.916 24.018l23.054 8.287 3.486 20.126c19.188 19.259 39.995 37.565 62.348 54.718l24.277 5.403 19.097-15.096c2.825-13.345 5.222-26.667 7.195-39.946l-7.196-18.82 11.821-20.546c2.363-27.381 2.911-54.476 1.685-81.083z" fill="#fe9722"/><g fill="#fef48b"><path d="m402.777 84.924c-5.042.666-10.079 1.253-15.107 1.763-3.345-3.239-6.64-6.509-9.884-9.809-2.634-2.667-7.5-1.491-8.615 2.088-1.368 4.418-2.794 8.833-4.277 13.243-.871.343-1.743.683-2.616 1.021 8.467 9.677 17.315 19.155 26.539 28.413 3.561.497 7.14.959 10.736 1.383 4.274.503 7.888-3.373 6.298-6.708-1.94-4.113-3.864-8.233-5.77-12.359 2.623-4.137 5.173-8.292 7.651-12.464 2.003-3.389-.877-7.114-4.955-6.571z"/><path d="m443.086 67.492c3.554-3.518 7.042-7.075 10.462-10.671 4.962.032 9.954-.015 14.975-.144 4.087-.104 6.783-4.415 4.701-7.457-2.548-3.758-5.081-7.526-7.597-11.303 1.365-3.523 2.683-7.049 3.955-10.576-15.788 7.745-31.897 14.586-48.253 20.523 3.396 1.541 6.827 3.045 10.292 4.514.978 4.431 1.938 8.867 2.881 13.308.749 3.609 5.689 4.672 8.584 1.806z"/><path d="m489.551 92.603c-4.064-2.509-8.083-5.06-12.056-7.651-3.224-2.091-8.25.113-8.89 3.9-.781 4.677-1.62 9.359-2.516 14.044-4.722 2.811-9.488 5.553-14.299 8.227-3.894 2.159-4.053 6.911-.182 8.314 4.775 1.716 9.603 3.37 14.481 4.96.928 4.459 1.838 8.924 2.731 13.393.71 3.633 6.276 4.399 9.677 1.281 4.179-3.828 8.287-7.705 12.325-11.629 3.626-.202 7.263-.442 10.91-.719 1.958-13.173 3.498-26.302 4.625-39.366-.315.057-.634.133-.959.24-5.275 1.756-10.559 3.424-15.847 5.006z"/><path d="m464.356 163.005c-3.293-2.235-9.075-.182-10.216 3.627-.964 3.244-1.956 6.487-2.975 9.729 11.292 8.665 22.979 17.037 35.048 25.088 3.098-11.6 5.872-23.199 8.324-34.781-5.952 1.603-11.909 3.112-17.868 4.525-4.151-2.69-8.256-5.419-12.313-8.188z"/></g></g></g><path d="m250.363 258.479c-39.386 0-73.647 15.508-91.234 38.356 11.782 2.036 25.213 3.688 39.826 4.857l102.866.041c14.607-1.156 28.042-2.792 39.843-4.812-17.567-22.895-51.865-38.442-91.301-38.442z" fill="#fec344"/><path d="m198.955 301.693c16.016 1.282 33.45 1.986 51.691 1.986 18.046 0 35.3-.69 51.175-1.946-12.255-10.45-30.755-17.108-51.457-17.108-20.676 0-39.154 6.641-51.409 17.068z" fill="#ffe177"/></g></svg>