<svg id="Layer_1" enable-background="new 0 0 510 510" height="512" viewBox="0 0 510 510" width="512" xmlns="http://www.w3.org/2000/svg"><g><g><path d="m255 0c-98.131 0-158.58 55.352-158.747 55.445 0 0-2.513 3.137-2.983 5.222-3.818 16.948-7.385 39.663-7.385 56.238 0 140.833 118.763 254.972 259.596 254.972 54.231 0 114.568-25.992 154.949-57.243.903-.699 3.769-5.396 3.769-5.396.178-1.087 5.8-23.477 5.8-54.239.001-140.832-114.166-254.999-254.999-254.999z" fill="#dff6fd"/><path d="m345.459 364.679c-140.833 0-255-114.167-255-255 0-18.615 2.007-36.753 5.795-54.234-58.645 46.72-96.254 118.747-96.254 199.555 0 99.761 57.287 186.142 140.759 228.04l216.014 5.806c73.778-32.158 129.809-98.285 147.427-179.608-43.56 34.696-98.725 55.441-158.741 55.441z" fill="#c4e2ff"/></g><path d="m181.702 156.258s-40.615-7.943-28.183-43.612 111.842-39.633 116.962-79.266c0 0 123.171 55.518 54.898 122.878z" fill="#004281"/><path d="m346.185 145.764h-139.562c-20.672 0-37.43 16.758-37.43 37.43v17.617c0 20.672 16.758 37.43 37.43 37.43h140.323c25.8 0 46.664-21.13 46.232-47.028-.423-25.353-21.637-45.449-46.993-45.449z" fill="#004281"/><path d="m170.968 192.003c0-25.537 20.702-46.239 46.238-46.239h-67.004c-25.537 0-46.238 20.702-46.238 46.238 0 25.537 20.702 46.238 46.238 46.238h67.004c-25.536.001-46.238-20.701-46.238-46.237z" fill="#00366d"/><g><path d="m272.288 418.988-41.776-16.502 69.138-175.027 12.793-8.762-1.713-19.288 12.626-31.963 11.69-11.188-.61-16.862 12.626-31.963 14.803-13.68-3.723-14.37 13.27-33.594 14.484-13.68-3.403-14.371 6.246-15.812 41.776 16.502-15.476 11.64 4.395 16.411-13.27 33.594-14.904 11.756 3.824 16.294-12.626 31.963-16.299 13.68 5.219 14.37-12.626 31.963-13.348 12.851 2.268 15.199z" fill="#693692"/><g fill="#fe9722"><path d="m419.434 46.479-48.022-.69 11.081-28.051 48.022.69z"/><path d="m395.084 108.123-48.022-.69 11.08-28.05 48.022.69z"/><path d="m371.378 168.136-48.022-.69 11.08-28.05 48.022.69z"/><path d="m347.672 228.149-48.022-.69 11.08-28.05 48.022.69z"/><path d="m323.966 288.162-48.022-.69 11.08-28.05 48.022.69z"/><path d="m300.26 348.175-48.022-.69 11.08-28.05 48.022.69z"/><path d="m276.554 408.188-48.022-.69 11.08-28.05 48.022.69z"/></g></g><g><path d="m91.342 272.397 49.417 210.643c3.979 1.997 8.017 3.893 12.111 5.685l16.704-7.84 17.865 20.069c12.904 3.536 26.216 6.084 39.85 7.558l18.319-12.426 25.986 13.381c13.588-.877 26.904-2.822 39.86-5.757l17.747-18.854 16.512 8.504c3.728-1.42 7.415-2.926 11.059-4.514l50.779-216.449z" fill="#fe9722"/><g fill="#ff6400"><path d="m271.594 509.466 2.382-237.069h-49.059l2.372 236.115c9.102.983 18.348 1.488 27.711 1.488 5.572 0 11.105-.18 16.594-.534z"/><path d="m152.87 488.725c11.131 4.871 22.676 8.969 34.569 12.229v-228.557h-49.059z"/><path d="m345.713 493.36 14.8-220.963h-49.059v231.313c11.737-2.658 23.178-6.128 34.259-10.35z"/></g></g><path d="m385.449 227.656h-158.788c-25.537 0-46.238 20.702-46.238 46.238 0 25.537 20.702 46.238 46.238 46.238h158.788c25.537 0 46.238-20.702 46.238-46.238 0-25.536-20.702-46.238-46.238-46.238z" fill="#004281"/><path d="m182.469 273.894c0-25.537 20.702-46.238 46.238-46.238h-117.007c-25.537 0-46.238 20.702-46.238 46.238 0 25.537 20.702 46.239 46.238 46.239h117.007c-25.537 0-46.238-20.702-46.238-46.239z" fill="#00366d"/><g><circle cx="197.465" cy="144.32" fill="#00366d" r="18.046"/><circle cx="193.536" cy="138.083" fill="#fec344" r="18.046"/><path d="m175.49 138.083c0 1.193.123 2.356.343 3.484 2.772 1.735 6.038 2.753 9.549 2.753 9.967 0 18.046-8.08 18.046-18.046 0-1.193-.122-2.356-.343-3.484-2.772-1.735-6.038-2.754-9.549-2.754-9.966 0-18.046 8.08-18.046 18.047z" fill="#ffe177"/></g><g><circle cx="180.551" cy="224.769" fill="#00366d" r="17.567"/><circle cx="176.727" cy="218.697" fill="#fec344" r="17.567"/><path d="m159.161 218.697c0 1.161.119 2.293.334 3.392 2.698 1.689 5.877 2.68 9.295 2.68 9.702 0 17.567-7.865 17.567-17.567 0-1.161-.119-2.294-.334-3.392-2.698-1.689-5.877-2.68-9.295-2.68-9.702 0-17.567 7.865-17.567 17.567z" fill="#ffe177"/></g><circle cx="309.304" cy="279.443" fill="#00366d" r="14.879"/><circle cx="306.065" cy="274.3" fill="#fec344" r="14.879"/><path d="m291.186 274.3c0 .983.101 1.942.283 2.873 2.285 1.43 4.978 2.27 7.873 2.27 8.217 0 14.879-6.661 14.879-14.879 0-.983-.101-1.943-.283-2.873-2.285-1.43-4.978-2.27-7.873-2.27-8.217.001-14.879 6.662-14.879 14.879z" fill="#ffe177"/><g><circle cx="276.48" cy="191.223" fill="#00366d" r="16.249"/><circle cx="272.942" cy="185.606" fill="#fec344" r="16.249"/><path d="m256.693 185.606c0 1.074.11 2.121.309 3.137 2.496 1.562 5.437 2.479 8.598 2.479 8.974 0 16.249-7.275 16.249-16.249 0-1.074-.11-2.122-.309-3.137-2.496-1.562-5.437-2.479-8.598-2.479-8.974 0-16.249 7.275-16.249 16.249z" fill="#ffe177"/></g><circle cx="269.815" cy="79.398" fill="#00366d" r="16.727"/><circle cx="266.174" cy="73.617" fill="#fec344" r="16.727"/><path d="m249.447 73.617c0 1.105.114 2.184.318 3.229 2.569 1.608 5.597 2.552 8.851 2.552 9.238 0 16.727-7.489 16.727-16.727 0-1.106-.114-2.184-.318-3.23-2.569-1.608-5.597-2.552-8.851-2.552-9.238 0-16.727 7.489-16.727 16.728z" fill="#ffe177"/><path d="m181.01 387.897 17.12-23.332c2.638-3.595 8.008-3.595 10.647 0l17.12 23.332c3.2 4.361.086 10.509-5.323 10.509h-34.24c-5.41 0-8.524-6.148-5.324-10.509z" fill="#b9390e"/><path d="m272.191 387.897 17.12-23.332c2.638-3.595 8.008-3.595 10.647 0l17.12 23.332c3.2 4.361.086 10.509-5.323 10.509h-34.24c-5.41 0-8.524-6.148-5.324-10.509z" fill="#b9390e"/><g><path d="m316.599 422.3-.167-2.145c-.139-1.426-.341-2.848-.634-4.264l-5.288 6.449c-1.744 2.061-3.446 4.052-5.176 5.961-1.724 1.91-3.443 3.751-5.191 5.514-.195.2-.394.389-.59.587-3.907-.308-7.698-.775-11.364-1.421-2.132-.374-4.222-.818-6.273-1.298-2.049-.503-4.061-1.031-6.028-1.643l-5.386-1.676-7.386 5.479c-.819.608-1.646 1.202-2.488 1.777-.832.586-1.672 1.16-2.526 1.712-.862.544-1.706 1.107-2.574 1.637l-2.621 1.561c-.878.513-1.767 1.007-2.666 1.485-.56.309-1.131.602-1.698.899-1.462-.762-2.916-1.539-4.338-2.367-.873-.52-1.762-1.018-2.626-1.556l-2.579-1.633c-.856-.551-1.69-1.133-2.531-1.71-.841-.576-1.668-1.171-2.487-1.78l-7.375-5.48-5.365 1.686c-1.966.618-3.979 1.148-6.03 1.65-1.027.236-2.062.471-3.108.694-1.046.216-2.102.409-3.169.608-2.132.372-4.305.694-6.518.956-1.595.188-3.218.334-4.856.462-1.945-1.959-3.877-3.994-5.795-6.132-1.728-1.91-3.425-3.903-5.165-5.966l-5.269-6.455c-.289 1.415-.488 2.835-.624 4.261l-.162 2.143-.057 2.143c-.051 2.871.149 5.74.52 8.604.763 5.721 2.285 11.392 4.473 16.841l.827 2.06 5.713 2.292c2.65 1.063 5.383 1.962 8.176 2.706 2.793.745 5.649 1.331 8.546 1.741 1.449.218 2.908.373 4.375.494 1.467.129 2.942.209 4.422.237.054.002.107 0 .161.002.745.714 1.499 1.418 2.266 2.109 1.089.984 2.214 1.925 3.36 2.837 1.149.908 2.302 1.814 3.5 2.655 2.385 1.697 4.842 3.288 7.383 4.723 2.525 1.466 5.148 2.743 7.794 3.949l6.54 2.979 6.573-2.978c2.648-1.2 5.272-2.475 7.801-3.936 1.266-.727 2.52-1.474 3.757-2.254 1.227-.796 2.438-1.617 3.632-2.463 1.199-.84 2.359-1.737 3.505-2.65 1.143-.918 2.278-1.846 3.365-2.833.761-.684 1.509-1.384 2.25-2.091.051-.001.103 0 .154-.002 2.961-.059 5.903-.315 8.802-.727 5.798-.826 11.428-2.332 16.733-4.45l5.724-2.285.845-2.086c1.103-2.722 2.01-5.516 2.771-8.325.74-2.821 1.32-5.666 1.695-8.531.369-2.866.566-5.738.51-8.611z" fill="#b9390e"/></g></g></svg>