<svg id="Layer_1" enable-background="new 0 0 511.002 511.002" height="512" viewBox="0 0 511.002 511.002" width="512" xmlns="http://www.w3.org/2000/svg"><g><g><path d="m255.501 0c-10.864 0-21.267.678-31.177 1.885l-137.938 115.021c0 140.833 118.763 254.972 259.596 254.972 54.231 0 114.568-25.992 154.949-57.243.903-.699 3.769-5.396 3.769-5.396.178-1.087 5.801-23.477 5.801-54.239 0-140.833-114.168-255-255-255z" fill="#dff6fd"/><path d="m345.96 364.679c-140.833 0-255-114.167-255-255l-47.602 3.804c-27.069 40.49-42.857 89.16-42.857 141.517 0 66.144 25.183 126.405 66.485 171.72l390.318-15.806c22.716-29.351 39.207-63.871 47.397-101.675-43.56 34.695-98.725 55.44-158.741 55.44z" fill="#c4e2ff"/></g><g><g><path d="m125.383 216.402h20.707v234.194h-20.707z" fill="#814ba1"/></g><g><path d="m120.475 193.327h9.816v257.27h-9.816z" fill="#6f3f8a"/></g><g><path d="m120.475 232.212c4.362.646 8.824.985 13.366.985 4.155 0 8.243-.286 12.249-.828v-39.042h-25.615z" fill="#6f3f8a"/></g><path d="m96.754 55.445c-20.648 16.449-38.688 36.036-53.397 58.038v15.229c0 49.973 40.511 90.483 90.483 90.483 49.973 0 90.483-40.511 90.483-90.483v-126.826c-79.599 9.694-127.421 53.476-127.569 53.559z" fill="#fec344"/><g><path d="m53.473 105.784v33.943h170.183c.438-3.611.669-7.286.669-11.015v-22.928z" fill="#fe9722"/></g><path d="m96.754 55.445c-20.648 16.449-38.688 36.036-53.397 58.038v15.229c0 49.973 40.511 90.483 90.483 90.483 9.959 0 19.54-1.614 28.502-4.586-36.007-11.941-61.982-45.884-61.982-85.898v-76.294c-2.359 1.902-3.582 3.015-3.606 3.028z" fill="#fe9722"/><g><path d="m224.324 133.713h-180.967c-2.762 0-5-2.239-5-5s2.238-5 5-5h180.967c2.762 0 5 2.239 5 5s-2.238 5-5 5z" fill="#814ba1"/></g><g><path d="m224.324 100.711h-131.09c.681 1.633 1.065 3.408 1.065 5.256 0 1.656-.322 3.251-.881 4.744h130.906c2.762 0 5-2.239 5-5s-2.238-5-5-5z" fill="#814ba1"/></g><g><path d="m100.361 133.713h-57.004c-2.762 0-5-2.239-5-5s2.238-5 5-5h57.004c2.762 0 5 2.239 5 5s-2.238 5-5 5z" fill="#6f3f8a"/></g><path d="m100.361 100.711h-47.886c-2.491 3.272-4.904 6.607-7.238 10h55.124c2.762 0 5-2.239 5-5s-2.238-5-5-5z" fill="#6f3f8a"/></g><g><path d="m499.544 412.362c-15.384-16.761-44.579-27.174-41.958-26.109-110.983-45.066-327.453-31.619-380.44 26.109h-10.16v14.358c37.621 41.276 88.615 70.151 146.131 79.773v.004c24.389 2.995 49.205 4.505 75.228 4.505 122.254 0 221.36-33.961 221.36-75.854v-22.785h-10.161z" fill="#004281"/><path d="m509.705 412.362c0-18.632-21.606-35.258-37.566-42.289-49.561-25.271-126.598-33.565-183.794-33.565-1.314 0-2.464.004-3.801.011-120.5.695-217.559 34.385-217.559 75.843 0 41.457 97.054 75.146 217.55 75.843.05 0 .1.001.15.001 121.755.686 225.02-32.811 225.02-75.844z" fill="#00366d"/><g><ellipse cx="288.345" cy="410.911" fill="#004281" rx="120.97" ry="28.08"/></g><g><path d="m263.922 140.389 177.076 92.067c8.849 4.757 5.47 18.182-4.577 18.182h-133.281z" fill="#00366d"/></g><g><path d="m315.505 174.52-51.583-34.13c-12.263-8.114-28.864-1.651-32.413 12.619l-64.133 257.903h241.939l-37.636-156.245c-7.915-32.859-27.987-61.497-56.174-80.147z" fill="#004281"/></g><g><path d="m183.703 345.253-8.836 35.531c17.069 10.703 61.433 18.333 113.478 18.333 52.251 0 96.763-7.69 113.682-18.46l-8.573-35.591c-20.83 8.468-60.093 14.177-105.109 14.177-44.682-.001-83.696-5.625-104.642-13.99z" fill="#fec344"/></g><g><path d="m252.467 357.981c-29.205-2.103-53.676-6.703-68.764-12.728l-8.836 35.531c12.97 8.133 41.714 14.484 77.6 17.068z" fill="#fe9722"/></g><g><path d="m316.06 360.906c.52 0 .943.423.943.943v32.759c0 .52-.423.943-.943.943h-57.938c-.52 0-.943-.423-.943-.943v-32.759c0-.52.423-.943.943-.943zm0-14.24h-57.938c-8.385 0-15.183 6.797-15.183 15.183v32.759c0 8.385 6.798 15.183 15.183 15.183h57.938c8.385 0 15.183-6.797 15.183-15.183v-32.759c0-8.385-6.798-15.183-15.183-15.183z" fill="#fedf30"/></g></g></g></svg>