<svg id="Layer_1" enable-background="new 0 0 510 510" height="512" viewBox="0 0 510 510" width="512" xmlns="http://www.w3.org/2000/svg"><g><g><g><path d="m255 27.63c-92.814 0-149.989 52.353-150.146 52.442 0 0-2.377 2.967-2.821 4.939-3.611 16.03-6.985 37.514-6.985 53.192 0 133.203 112.329 241.158 245.532 241.158 51.293 0 108.361-24.584 146.555-54.142.854-.661 3.565-5.104 3.565-5.104.168-1.028 5.486-22.205 5.486-51.3-.001-133.203-107.983-241.185-241.186-241.185z" fill="#dff6fd"/></g><g><path d="m340.558 372.552c-133.203 0-241.185-107.982-241.185-241.185 0-17.606 1.899-34.761 5.481-51.296-55.468 44.189-91.039 112.313-91.039 188.743 0 57.318 19.994 109.965 53.388 151.349l375.577.025c23.081-28.585 39.806-62.626 47.918-100.074-41.199 32.817-93.375 52.438-150.14 52.438z" fill="#c4e2ff"/></g></g><g><g><path d="m324.87 97.754c-6.023-36.498-40.232-64.465-81.534-64.465-22.461 0-42.814 8.282-57.688 21.699v42.766z" fill="#fd3581"/></g><g><path d="m346.481 97.754c.952-2.797 1.471-5.742 1.471-8.788 0-18.035-17.834-32.655-39.834-32.655s-39.834 14.62-39.834 32.655c0 3.046.52 5.991 1.471 8.788z" fill="#fd3581"/></g><g><ellipse cx="294.983" cy="56.31" fill="#fd3581" rx="39.834" ry="32.655"/></g><g><path d="m198.927 29.037c-4.657 0-9.124.661-13.279 1.866v61.579c4.154 1.204 8.621 1.866 13.279 1.866 22 0 39.834-14.62 39.834-32.655 0-18.036-17.834-32.656-39.834-32.656z" fill="#fd3581"/></g><g><ellipse cx="239.465" cy="32.655" fill="#fd3581" rx="39.834" ry="32.655"/></g><g><ellipse cx="339.012" cy="113.601" fill="#fd3581" rx="24.887" ry="19.253"/></g><g><path d="m347.173 95.412-97.428.557c-35.222 0-62.907-30.175-62.907-65.397-16.088 4.197-27.745 16.54-27.745 31.12 0 4.046.904 7.917 2.544 11.493-11.816 4.297-20.257 15.626-20.257 28.928 0 14.388 9.876 26.467 23.218 29.836 10.472 30.884 41.762 53.3 78.737 53.3 38.36 0 70.599-24.127 79.822-56.806 4.305 2.756 9.829 4.412 15.853 4.412 13.745 0 24.887-8.62 24.887-19.253.002-8.422-6.989-15.576-16.724-18.19z" fill="#e41e7f"/></g><g><path d="m398.832 392.869-81.485-18.031-64.122-2.862-101.045 28.75v86.288c31.191 14.729 66.037 22.986 102.82 22.986 75.415 0 143.362-34.807 187.776-89.814-10.813-13.475-26.092-23.366-43.944-27.317z" fill="#bd80e1"/></g><g><path d="m254.691 360.973-143.572 31.866c-17.836 3.959-33.099 13.848-43.902 27.315 23.081 28.603 52.558 51.82 86.264 67.484v-18.717c0-36.534 25.38-68.165 61.046-76.081l91.946-20.408z" fill="#af66da"/></g><g><path d="m255.263 464.58c34.288 0 62.084-27.796 62.084-62.084v-27.658l-62.657-13.865-61.512 13.653v27.87c.001 34.288 27.797 62.084 62.085 62.084z" fill="#af66da"/></g><g><g><g><path d="m255.263 436.051c-21.937 0-39.72-17.783-39.72-39.72v-88.966h79.44v88.966c0 21.937-17.783 39.72-39.72 39.72z" fill="#14d1b2"/></g></g></g><g><path d="m215.543 307.366v49.246c0 21.937 17.783 39.72 39.72 39.72 21.937 0 39.72-17.783 39.72-39.72v-49.246z" fill="#11abb9"/></g><g><path d="m363.899 115.12h-185.957v181.548c0 41.243 33.174 74.994 74.416 75.305.289.002.578.003.867.003.294 0 .587-.001.88-.003 5.651-.043 11.146-.724 16.436-1.941 55.052-7.458 97.488-54.635 97.488-111.732v-114.455c0-9.984-1.446-19.621-4.13-28.725z" fill="#00f2a6"/></g><g><g><g><path d="m368.029 246.102v-67.027c14.602 0 26.44 11.837 26.44 26.44v14.148c0 14.601-11.837 26.439-26.44 26.439z" fill="#00f2a6"/></g></g></g><g><g><g><path d="m368.029 224.288v-23.4c5.098 0 9.23 4.133 9.23 9.23v4.939c.001 5.098-4.132 9.231-9.23 9.231z" fill="#14d1b2"/></g></g></g><g><g><g><path d="m114.941 219.662c0 14.602 11.837 26.44 26.44 26.44v-67.027c-14.602 0-26.44 11.837-26.44 26.44z" fill="#14d1b2"/></g></g></g><g><g><g><path d="m132.118 215.067c0 5.116 4.147 9.263 9.263 9.263v-23.484c-5.116 0-9.263 4.147-9.263 9.263z" fill="#11abb9"/></g></g></g><g><path d="m179.311 264.431c.184-4.181.128-86.237.067-149.311h-34.498c-1.569 5.154-2.762 10.473-3.498 15.939v129.025c0 25.098 8.115 48.261 21.833 67.055 20.585 27.234 53.241 44.837 90.011 44.837.294 0 .587-.001.88-.003.492-.004.978-.035 1.468-.048-44.405-15.54-76.263-57.786-76.263-107.494z" fill="#14d1b2"/></g><g><g><g><g><path d="m225.961 165.223h-34.252c-6.487 0-11.745-5.259-11.745-11.745 0-6.487 5.259-11.745 11.745-11.745h34.252c6.487 0 11.745 5.259 11.745 11.745 0 6.486-5.258 11.745-11.745 11.745z" fill="#14d1b2"/></g></g></g></g><g><g><g><g><path d="m319.438 165.223h-34.252c-6.487 0-11.745-5.259-11.745-11.745 0-6.487 5.259-11.745 11.745-11.745h34.252c6.487 0 11.745 5.259 11.745 11.745.001 6.486-5.258 11.745-11.745 11.745z" fill="#14d1b2"/></g></g></g></g><g><g><path d="m291.396 269.401h-9.671l-25.47 5.288-25.47-5.288h-8.555c-2.87 0-5.163 2.505-4.78 5.349.732 5.441 2.567 10.533 5.271 15.044l51.572 15.283c11.647-5.717 20.085-16.97 21.883-30.327.383-2.844-1.91-5.349-4.78-5.349z" fill="#004281"/></g><g><path d="m222.726 289.792c6.94 11.577 19.607 19.329 34.087 19.329 6.273 0 12.203-1.459 17.477-4.048-2.267-14.224-14.587-25.096-29.449-25.096-8.771 0-16.657 3.787-22.115 9.815z" fill="#004281"/></g><g><path d="m276.123 279.977h-39.733c-3.094 0-5.603-2.509-5.603-5.603v-4.973h50.939v4.973c-.001 3.094-2.509 5.603-5.603 5.603z" fill="#004281"/></g></g><g><g><g><path d="m190.268 174.1c0 11.74 9.517 21.257 21.257 21.257s21.257-9.517 21.257-21.257z" fill="#004281"/></g><g><g><path d="m202.927 210.638v-5.565c17.079 0 30.974-13.895 30.974-30.974h5.564c0 20.148-16.391 36.539-36.538 36.539z" fill="#14d1b2"/></g></g></g><g><g><path d="m321.541 174.1c0 11.74-9.517 21.257-21.257 21.257s-21.257-9.517-21.257-21.257z" fill="#004281"/></g><g><g><path d="m308.881 210.638c-20.147 0-36.538-16.391-36.538-36.538h5.565c0 17.079 13.894 30.974 30.973 30.974z" fill="#14d1b2"/></g></g></g><g><path d="m273.801 222.896h-35.794c-5.519 0-9.992 4.474-9.992 9.992 0 5.519 4.474 9.992 9.992 9.992h35.794c5.519 0 9.992-4.474 9.992-9.992.001-5.518-4.473-9.992-9.992-9.992z" fill="#14d1b2"/></g><g><path d="m255.882 259.425c-7.612 0-13.783-6.171-13.783-13.783v-36.502c0-7.612 6.171-13.783 13.783-13.783 7.612 0 13.783 6.171 13.783 13.783v36.503c-.001 7.611-6.172 13.782-13.783 13.782z" fill="#14d1b2"/></g></g><g><path d="m258.999 60.286h-7.7c0-20.129 19.597-36.505 43.684-36.505v7.7c-19.842-.001-35.984 12.921-35.984 28.805z" fill="#e41e7f"/></g><g><path d="m310.438 75.101-5.107-5.763c7.477-6.626 17.578-9.276 28.447-7.46l-1.268 7.595c-8.531-1.426-16.369.574-22.072 5.628z" fill="#e41e7f"/></g><g><path d="m219.734 47.908c-5.103-6.982-12.105-11.034-19.716-11.407l.377-7.69c9.979.489 19.054 5.658 25.556 14.554z" fill="#e41e7f"/></g><g><path d="m207.577 81.17c-2.719 0-5.509-.303-8.339-.917l1.631-7.525c8.454 1.832 16.379.213 22.318-4.561l4.824 6.001c-5.74 4.614-12.803 7.002-20.434 7.002z" fill="#e41e7f"/></g><g><circle cx="178.017" cy="258.352" fill="#14d1b2" r="12.251"/></g><g><circle cx="195.161" cy="282.347" fill="#14d1b2" r="4.893"/></g><g><ellipse cx="199.551" cy="239.495" fill="#14d1b2" rx="9.283" ry="6.607"/></g><g><circle cx="331.15" cy="233.939" fill="#14d1b2" r="9.609"/></g><g><path d="m342.72 300.949c-11.697 0-21.179 9.482-21.179 21.179 0 7.924 4.359 14.821 10.803 18.452 10.25-9.604 18.696-21.101 24.797-33.933-3.783-3.525-8.842-5.698-14.421-5.698z" fill="#14d1b2"/></g></g></g></svg>