<svg id="Layer_1" enable-background="new 0 0 511 511" height="512" viewBox="0 0 511 511" width="512" xmlns="http://www.w3.org/2000/svg"><g><g><path d="m510.5 256c0-140.833-114.167-255-255-255-98.131 0-158.58 55.352-158.747 55.445 0 0-2.513 3.137-2.983 5.222-3.818 16.948-7.385 39.663-7.385 56.238 0 140.833 118.763 254.972 259.596 254.972 54.231 0 114.568-25.992 154.949-57.243.903-.699 3.769-5.396 3.769-5.396.178-1.086 5.801-23.476 5.801-54.238z" fill="#dff6fd"/><path d="m345.959 365.679c-140.833 0-255-114.167-255-255 0-18.615 2.007-36.753 5.795-54.234-58.645 46.72-96.254 118.747-96.254 199.555 0 60.319 20.943 115.747 55.955 159.408l398.079.018c24.146-30.095 41.646-65.865 50.165-105.188-43.559 34.696-98.724 55.441-158.74 55.441z" fill="#c4e2ff"/></g><g><path d="m397.341 361.835-80.356-17.782-104.357 4.345c-35.277 7.83-57.941 30.004-57.941 66.14v75.732c30.921 13.329 65 20.73 100.813 20.73 80.017 0 152.078-37.065 199.026-95.58-7.684-26.429-29.227-47.398-57.185-53.585z" fill="#bd80e1"/><path d="m255.195 330.38-141.584 31.425c-27.943 6.202-49.468 27.171-57.142 53.592 26.105 32.553 60.021 58.568 98.917 75.189v-53.753c0-36.029 25.028-67.221 60.201-75.028l90.673-20.125z" fill="#af66da"/><g><path d="m255.759 432.553c33.814 0 61.225-27.411 61.225-61.225v-27.275l-61.789-13.673-60.661 13.464v27.484c.001 33.813 27.412 61.225 61.225 61.225z" fill="#af66da"/></g><g><g><g><path d="m255.76 404.419c-21.633 0-39.17-17.537-39.17-39.17v-87.734h78.34v87.734c-.001 21.633-17.538 39.17-39.17 39.17z" fill="#fef48b"/></g></g></g><g><path d="m216.59 277.515v48.564c0 21.633 17.537 39.17 39.17 39.17 21.633 0 39.17-17.537 39.17-39.17v-48.564z" fill="#ffe177"/></g><g><path d="m180.026 31.345v234.985c0 39.105 30.008 72.252 69.033 74.75 1.556.1 3.119.151 4.691.151.29 0 .579-.001.868-.003 5.573-.041 10.992-.714 16.208-1.914 54.289-7.355 96.139-53.879 96.139-125.373v-132.836l-5.879-4.886 5.879-5.961v-37.035z" fill="#fef48b"/></g><g><g><g><path d="m366.964 217.099v-66.099c14.4 0 26.074 11.674 26.074 26.074v13.952c0 14.4-11.674 26.073-26.074 26.073z" fill="#fef48b"/></g></g></g><g><g><g><path d="m366.964 195.588v-23.076c5.027 0 9.103 4.075 9.103 9.103v4.871c0 5.026-4.075 9.102-9.103 9.102z" fill="#ffe177"/></g></g></g><g><g><g><path d="m117.381 191.026c0 14.4 11.674 26.074 26.074 26.074v-66.1c-14.4 0-26.074 11.674-26.074 26.074z" fill="#fef48b"/></g></g></g><g><g><g><path d="m134.319 186.494c0 5.045 4.09 9.135 9.135 9.135v-23.158c-5.045 0-9.135 4.09-9.135 9.135z" fill="#ffe177"/></g></g></g><g><path d="m180.859 235.175c.202-4.597.11-132.416.045-203.83l-37.449 1.878v37.034l8.902 5.424-8.902 5.424v149.784c0 24.751 8.003 47.592 21.531 66.126 20.301 26.857 52.504 44.216 88.765 44.216.29 0 .579-.001.868-.003.485-.004.964-.035 1.447-.048-43.79-15.324-75.207-56.985-75.207-106.005z" fill="#ffe177"/></g><g><path d="m366.964 33.223v-6.437c0-14.793-11.992-26.786-26.786-26.786h-169.938c-14.794 0-26.786 11.993-26.786 26.786v6.437z" fill="#00f2a6"/></g><g><g><g><g><path d="m226.863 137.34h-33.778c-6.397 0-11.583-5.186-11.583-11.583 0-6.397 5.186-11.583 11.583-11.583h33.778c6.397 0 11.583 5.186 11.583 11.583 0 6.397-5.186 11.583-11.583 11.583z" fill="#bd80e1"/></g></g></g></g><g><g><g><g><path d="m319.046 137.34h-33.778c-6.397 0-11.583-5.186-11.583-11.583 0-6.397 5.186-11.583 11.583-11.583h33.778c6.397 0 11.583 5.186 11.583 11.583 0 6.397-5.186 11.583-11.583 11.583z" fill="#bd80e1"/></g></g></g></g><g><g><path d="m291.392 240.076h-9.537l-25.117 5.215-25.117-5.215h-8.436c-2.83 0-5.091 2.47-4.714 5.275.722 5.366 2.531 10.388 5.198 14.836l50.857 15.072c11.486-5.638 19.807-16.735 21.58-29.908.378-2.804-1.883-5.275-4.714-5.275z" fill="#004281"/></g><g><path d="m223.673 260.185c6.844 11.417 19.335 19.061 33.615 19.061 6.186 0 12.034-1.439 17.235-3.992-2.236-14.027-14.385-24.748-29.041-24.748-8.65 0-16.427 3.735-21.809 9.679z" fill="#fd3581"/></g><g><path d="m276.33 250.506h-39.183c-3.052 0-5.525-2.474-5.525-5.525v-4.904h50.234v4.904c-.001 3.051-2.474 5.525-5.526 5.525z" fill="#fff"/></g></g><g><g><g><path d="m191.664 146.095c0 11.577 9.385 20.963 20.963 20.963 11.577 0 20.963-9.385 20.963-20.963z" fill="#004281"/></g><g><g><path d="m204.148 182.127v-5.487c16.843 0 30.545-13.702 30.545-30.545h5.487c0 19.868-16.164 36.032-36.032 36.032z" fill="#ffe177"/></g></g></g><g><g><path d="m321.119 146.095c0 11.577-9.385 20.963-20.963 20.963-11.577 0-20.963-9.385-20.963-20.963z" fill="#004281"/></g><g><g><path d="m308.635 182.127c-19.868 0-36.032-16.164-36.032-36.032h5.487c0 16.843 13.702 30.545 30.544 30.545v5.487z" fill="#ffe177"/></g></g></g><g><path d="m274.041 194.215h-35.299c-5.442 0-9.854 4.412-9.854 9.854 0 5.442 4.412 9.854 9.854 9.854h35.299c5.442 0 9.854-4.412 9.854-9.854 0-5.442-4.412-9.854-9.854-9.854z" fill="#00f2a6"/></g><g><path d="m256.369 230.238c-7.507 0-13.592-6.085-13.592-13.592v-35.998c0-7.507 6.085-13.592 13.592-13.592 7.507 0 13.592 6.085 13.592 13.592v35.998c0 7.507-6.085 13.592-13.592 13.592z" fill="#00f2a6"/></g></g><g><path d="m143.454 70.257h223.51v10.848h-223.51z" fill="#bd80e1"/></g><g><path d="m250.945 62.783h10.848v26.871h-10.848z" fill="#bd80e1"/></g><g><path d="m281.292 62.783h10.848v26.871h-10.848z" fill="#bd80e1"/></g><g><path d="m311.64 62.783h10.848v26.871h-10.848z" fill="#bd80e1"/></g><g><path d="m192.029 62.783h10.848v26.871h-10.848z" fill="#bd80e1"/></g><g><path d="m222.377 62.783h10.848v26.871h-10.848z" fill="#bd80e1"/></g></g></g></svg>