<svg id="Layer_1" enable-background="new 0 0 511.73 511.73" height="512" viewBox="0 0 511.73 511.73" width="512" xmlns="http://www.w3.org/2000/svg"><g><g><path d="m255.865 0c-98.131 0-158.58 55.352-158.747 55.445 0 0-2.513 3.137-2.983 5.222-3.818 16.948-7.385 39.663-7.385 56.239 0 140.833 118.763 254.972 259.596 254.972 49.291 0 103.625-21.472 143.437-48.849l15.841-16.364c1.458-6.829 5.242-26.43 5.242-51.665-.001-140.833-114.169-255-255.001-255z" fill="#ffdbeb"/><path d="m346.324 364.679c-140.833 0-255-114.167-255-255 0-18.615 2.007-36.753 5.795-54.234-58.645 46.72-96.254 118.747-96.254 199.555 0 140.833 114.167 255 255 255 66.147 0 126.863-25.325 172.446-67.16l26.609-102.385c-32.946 15.535-69.755 24.224-108.596 24.224z" fill="#ffceed"/></g><g><path d="m453.866 205.871-74.419-69.587-99.91-36.992c-7.243-3.379-15.075-5.702-23.185-6.875l-83.642-12.104c-14.037-.9-21.461-1.748-27.08 9.462-3.323 4.491-2.966 10.714.847 14.797l15.543 16.637 96.823 16.814 82.243 75.427 30.379 56.843c9.214 15.843 5.155 36.261-9.913 47.312-4.817 3.533-10.492 5.713-16.396 6.618l-91.431 14.004c-3.845.258-7.462 1.252-10.736 2.823v29.465h51.802c4.852 0 8.206 2.311 10.076 5.511 18.331-.345 36.553 3.334 54.716 6.303 23.451 3.834 46.929 6.151 68.227 17.604 2.422 1.302 4.031 3.023 4.992 4.93h28.448c.314 0 .611.026.912.045 20.396-28.016 35.264-60.411 42.903-95.669.032-.195.24-1.078.559-2.574z" fill="#00f2a6"/><g><path d="m269.941 133.764-8.91-4.28c-6.643-3.191-13.921-5.263-21.45-6.106l-65.132-7.292c-16.251-1.82-27.637-13.316-28.819-26.311-2.337 2.257-4.286 4.861-5.735 7.751-7.197 18.375 6.788 37.869 28.947 40.35l73.721 8.254s98.523 67.32 98.523 67.32c-7.097-33.806-36.528-63.057-71.145-79.686z" fill="#14d1b2"/></g><path d="m440.578 385.805-55.487-13.221-109.448-4.442c-16.183 1.085-30.182-11.155-31.267-27.338-.008-.118 0-.233-.006-.352-11.271 4.712-18.846 16.174-17.983 29.042 1.085 16.183 15.084 28.423 31.267 27.338l109.448 4.442 55.487 13.221 5.722 28.344c12.629-11.59 24.095-24.448 34.195-38.386z" fill="#14d1b2"/></g><g><path d="m186.112 116.314h.146c25.308 0 50.219 6.782 71.656 20.072 1.694 1.05 15.14 18.737 16.099 20.492 24.794 45.358 28.114 53.54 27.795 100.476-.508 74.733-35.77 98.57-110.504 98.57-50.256 0-99.282 4.416-122.783-36.151-11.587-20-18.22-43.229-18.22-68.006 0-45.665 22.529-86.067 57.079-110.699 22.93-16.347 50.574-24.754 78.732-24.754z" fill="#fd3581"/></g><g><path d="m257.914 136.387c11.808 20.383 18.476 44.116 18.216 69.427-.752 73.385-60.488 133.374-133.869 134.423-27.092.387-52.39-7.165-73.735-20.467 7.754 13.384 17.667 25.194 29.055 35.002 6.312 5.437 9.922 13.366 9.922 21.697v60.083c0 5.728 4.644 10.372 10.372 10.372 5.728 0 10.372-4.644 10.372-10.372v-49.021c0-5.983 5.954-10.057 11.579-8.016.082.03.164.059.246.089 3.425 1.235 5.739 4.441 5.739 8.082v113.327c0 5.711 4.468 10.61 10.178 10.714 5.817.107 10.567-4.577 10.567-10.37v-102.762c0-6.431 5.402-11.542 11.823-11.187l.294.016c5.91.327 10.534 5.214 10.534 11.133v9.256c0 5.728 4.644 10.372 10.372 10.372 5.728 0 10.372-4.644 10.372-10.372v-11.666c0-6.005 4.085-11.229 9.906-12.705 11.378-2.885 22.175-7.2 32.193-12.742.442-.305.895-.599 1.366-.869 37.122-21.191 63.287-59.379 67.884-103.968.007-.069.013-.138.02-.207 5.392-53.09-20.354-102.439-63.406-129.269z" fill="#e41e7f"/></g><g><circle cx="186.163" cy="251.766" fill="#fff" r="115.78"/></g><g><path d="m85.051 225.432c-.731 0-1.472-.205-2.131-.633-1.816-1.179-2.333-3.607-1.154-5.424l9.685-14.921c2.66-4.098 2.82-9.287.418-13.542l-6.469-11.454c-1.065-1.885-.399-4.277 1.486-5.342 1.884-1.063 4.277-.399 5.342 1.486l6.469 11.454c3.845 6.808 3.589 15.11-.668 21.667l-9.685 14.921c-.751 1.158-2.008 1.788-3.293 1.788z" fill="#fd3581"/></g><g><path d="m301.944 251.766c0-37.135-17.486-70.184-44.671-91.371 9.685 17.314 15.06 37.366 14.651 58.709-1.2 62.546-52.589 113.183-115.146 113.507-27.045.14-51.949-8.997-71.723-24.408 14.443 25.82 38.485 45.541 67.297 54.328 8.433 2.572 14.203 10.34 14.203 19.156v68.101c0 6.203 5.028 11.231 11.231 11.231 6.203 0 11.231-5.029 11.231-11.231v-64.14c0-9.823 7.139-18.11 16.821-19.767 54.573-9.342 96.106-56.878 96.106-114.115z" fill="#f9f3f1"/></g><g><path d="m91.27 327.98c-1.483 0-2.902-.846-3.563-2.28-.907-1.967-.048-4.296 1.919-5.202l1.027-.474c3.37-1.553 6.321-4.245 8.537-7.788 5.704-9.125 17.647-12.345 27.186-7.336l1.228.646c2.498 1.312 5.404 1.771 8.188 1.283l25.33-4.414c2.131-.37 4.163 1.056 4.536 3.19.371 2.133-1.057 4.164-3.19 4.536l-25.33 4.414c-4.477.778-9.159.045-13.182-2.067l-1.228-.646c-5.926-3.112-13.347-1.116-16.889 4.552-3.028 4.841-7.145 8.559-11.904 10.752l-1.026.473c-.531.245-1.09.361-1.639.361z" fill="#fd3581"/></g><g><path d="m263.631 353.169c-.936 0-1.873-.332-2.623-1.007l-9.378-8.444c-3.246-2.924-7.44-4.534-11.811-4.534h-8.813c-2.165 0-3.921-1.756-3.921-3.921s1.756-3.921 3.921-3.921h8.813c6.312 0 12.37 2.325 17.059 6.549l9.378 8.443c1.609 1.449 1.739 3.929.29 5.538-.774.859-1.842 1.297-2.915 1.297z" fill="#e41e7f"/></g><g><path d="m297.829 307.299c-.495 0-.999-.094-1.485-.294l-8.304-3.401c-3.938-1.612-7.264-4.339-9.618-7.883l-3.753-5.648c-1.197-1.805-.707-4.238 1.097-5.437 1.806-1.196 4.237-.707 5.437 1.097l3.752 5.648c1.482 2.233 3.578 3.95 6.059 4.966l8.304 3.402c2.004.82 2.963 3.11 2.142 5.114-.623 1.518-2.087 2.436-3.631 2.436z" fill="#e41e7f"/></g><g><path d="m253.535 219.524c-1.975 0-3.673-1.486-3.893-3.494-.235-2.153 1.318-4.089 3.471-4.324l25.923-2.836c4.432-.485 8.464-2.621 11.355-6.014l8.568-10.057c1.404-1.647 3.878-1.846 5.527-.441 1.648 1.404 1.846 3.879.441 5.527l-8.568 10.057c-4.193 4.922-10.043 8.02-16.471 8.723l-25.923 2.836c-.144.017-.288.023-.43.023z" fill="#e41e7f"/></g><g><path d="m271.264 233.345c-.054 0-.106-.001-.16-.003-2.164-.087-3.848-1.912-3.761-4.075l.637-15.828c.087-2.165 1.914-3.847 4.075-3.761 2.164.087 3.848 1.912 3.761 4.075l-.637 15.828c-.085 2.11-1.822 3.764-3.915 3.764z" fill="#e41e7f"/></g><g><g><circle cx="153.179" cy="239.972" fill="#f9f3f1" r="51.683"/></g><g><circle cx="153.179" cy="228.208" fill="#fef48b" r="51.683"/></g><g><path d="m142.551 266.103c28.544 0 51.684-23.139 51.684-51.683 0-8.74-2.178-16.968-6.008-24.185 10.226 9.443 16.635 22.957 16.635 37.974 0 28.544-23.14 51.683-51.684 51.683-19.804 0-36.998-11.144-45.676-27.498 9.213 8.506 21.521 13.709 35.049 13.709z" fill="#ffe177"/></g><g><circle cx="153.179" cy="228.208" fill="#004281" r="22.342"/></g><g><circle cx="136.687" cy="209.559" fill="#fff" r="11.607"/></g></g><g><g><path d="m253.725 338.227c-3.845.258-7.462 1.252-10.736 2.823v29.465h51.802c4.852 0 8.206 2.311 10.076 5.511 10.095-.19 20.157.836 30.195 2.301v-52.558z" fill="#00f2a6"/></g><g><g><path d="m335.062 370.554-59.418-2.412c-16.183 1.085-30.182-11.155-31.267-27.338h.001c-.008-.118 0-.234-.006-.352-11.27 4.712-18.846 16.174-17.983 29.042 1.085 16.183 15.084 28.423 31.267 27.338l77.408 3.142v-29.42z" fill="#14d1b2"/></g></g></g><g><path d="m140.551 90.819 47.324 8.674c9.76 1.51 19.153-4.358 22.076-13.791s-28.456-22.127-80.066-16.277l2.639 10.809 12.017 3.851z" fill="#af66da"/></g><g><path d="m215.56 348.743 56.717-5.115c8.174-.737 15.217 5.7 15.217 13.907v15.484c0 7.959-6.643 14.309-14.594 13.949l-57.053-2.58-.738-6.817 15.897-4.963-16.888-2.395 25.421-7.342h-25.421z" fill="#af66da"/></g></g></svg>