<svg height="512pt" viewBox="-13 0 512 512.00036" width="512pt" xmlns="http://www.w3.org/2000/svg"><path d="m486.53125 268.734375c0 134.351563-108.914062 243.265625-243.265625 243.265625s-243.265625-108.914062-243.265625-243.265625 108.914062-243.265625 243.265625-243.265625 243.265625 108.914062 243.265625 243.265625zm0 0" fill="#5e73dd"/><path d="m399.386719 68.511719c-27.734375-25.992188-59.707031-42.988281-93.109375-53.558594-1.6875-.535156-3.496094.394531-4.070313 2.070313l-4.566406 13.316406c-1.128906 3.292968-5.933594 2.777344-6.339844-.679688l-2.023437-17.324218c-.15625-1.359376-1.148438-2.488282-2.480469-2.808594-23.429687-5.664063-47.28125-8.484375-70.621094-9.3125-1.898437-.066406-3.449219 1.503906-3.375 3.402344l.867188 22.503906c.0625 1.691406-2.207031 2.300781-2.996094.804687l-13.273437-25.171875c-.574219-1.089844-1.714844-1.7734372-2.949219-1.753906-24.058594.355469-47.234375 2.613281-68.449219 5.796875-1.855469.277344-3.082031 2.0625-2.703125 3.898437l4.109375 19.890626c.707031 3.40625-3.691406 5.410156-5.800781 2.640624l-16.085938-21.140624c-.753906-.988282-2.007812-1.46875-3.226562-1.234376-28.84375 5.539063-52.503907 12.265626-67.511719 17.019532-8.453125 2.679687-11.324219 13.179687-5.414062 19.789062l121.632812 136.042969c20.339844-11.488281 43.707031-18.246094 68.617188-18.742187 79.703124-1.59375 146.511718 61.9375 148.75 141.621093 40.421874 0 36.65625 91.542969 34.378906 121.1875-.164063 2.148438 2.695312 3.023438 3.769531 1.152344l9.53125-16.574219c.992187-1.726562 3.589844-1.125 3.765625.855469.566406 6.460937 1.890625 13.148437 3.734375 19.859375 14.925781-16.460938 27.613281-34.988281 37.617187-55.085938 11.574219-114.917968 42.515626-210.71875-61.777343-308.464843zm0 0" fill="#ff5252"/><path d="m295.078125 173.574219c0-11.550781 6.816406-21.507813 16.640625-26.078125-5.453125-9.929688-8.5625-21.332032-8.5625-33.460938 0-37.171875 29.144531-67.53125 65.824219-69.488281-19.777344-13.058594-40.929688-22.703125-62.703125-29.59375-1.6875-.535156-3.496094.394531-4.070313 2.070313l-4.566406 13.316406c-1.128906 3.292968-5.933594 2.777344-6.339844-.679688l-2.023437-17.324218c-.15625-1.359376-1.148438-2.488282-2.480469-2.808594-23.425781-5.664063-47.28125-8.484375-70.621094-9.3125-1.898437-.066406-3.449219 1.503906-3.375 3.402344l.867188 22.503906c.066406 1.691406-2.207031 2.300781-2.996094.804687l-13.273437-25.171875c-.574219-1.089844-1.714844-1.7734372-2.949219-1.753906-24.058594.355469-47.230469 2.613281-68.449219 5.796875-1.851562.277344-3.082031 2.0625-2.703125 3.898437l4.113281 19.890626c.703125 3.40625-3.695312 5.410156-5.804687 2.640624l-16.085938-21.140624c-.75-.988282-2.007812-1.46875-3.226562-1.234376-28.84375 5.539063-52.503907 12.265626-67.511719 17.019532-8.449219 2.679687-11.320312 13.179687-5.414062 19.789062l121.632812 136.042969c20.34375-11.488281 43.710938-18.246094 68.617188-18.742187 28.296874-.566407 54.960937 7.082031 77.695312 20.742187-1.4375-3.421875-2.234375-7.183594-2.234375-11.128906zm0 0" fill="#e53535"/><path d="m220.167969 123.324219c-35.773438 0-69.171875 10.144531-97.492188 27.699219l28.324219 31.683593c20.34375-11.488281 43.710938-18.25 68.617188-18.746093 79.703124-1.59375 146.511718 61.9375 148.753906 141.625 18.964844 0 28.203125 20.152343 32.429687 44.605468 3.058594-13.355468 4.679688-27.265625 4.679688-41.554687.003906-102.34375-82.964844-185.3125-185.3125-185.3125zm0 0" fill="#7c5577"/><path d="m219.621094 163.960938c1.578125-.03125 3.148437-.027344 4.714844-.007813.425781.003906.851562.011719 1.277343.019531 1.304688.027344 2.601563.074219 3.898438.132813.285156.015625.574219.023437.859375.039062 1.550781.082031 3.09375.195313 4.632812.324219.34375.03125.6875.066406 1.027344.097656 1.273438.117188 2.542969.253906 3.808594.40625.347656.042969.699218.082032 1.046875.125 1.546875.195313 3.09375.414063 4.628906.660156.121094.019532.246094.042969.367187.0625 1.425782.234376 2.839844.488282 4.253907.761719.324219.0625.648437.128907.972656.191407 3.085937.621093 6.136719 1.339843 9.152344 2.152343.238281.0625.472656.128907.707031.195313 1.40625.386718 2.800781.789062 4.1875 1.21875.121094.035156.238281.070312.359375.109375 1.554687.480469 3.097656.988281 4.632813 1.523437.058593.019532.117187.042969.171874.0625 1.460938.507813 2.910157 1.042969 4.347657 1.597656.140625.054688.28125.109376.421875.164063 3.011718 1.171875 5.972656 2.441406 8.882812 3.804687.105469.046876.210938.097657.316406.148438 2.953126 1.390625 5.851563 2.875 8.695313 4.453125.019531.007813.035156.019531.054687.03125 1.441407.800781 2.863282 1.621094 4.273438 2.46875-1.4375-3.421875-2.234375-7.183594-2.234375-11.128906 0-11.550781 6.816406-21.507813 16.640625-26.078125 0-.003906-.003906-.003906-.003906-.007813-27.003906-15.375-58.25-24.164062-91.546875-24.164062-35.773438 0-69.171875 10.144531-97.492188 27.699219l27.195313 30.417968 1.128906 1.265625c20.296875-11.460937 43.605469-18.214843 68.453125-18.742187.054687 0 .109375-.003906.167969-.003906zm0 0" fill="#603256"/><path d="m369.457031 302.453125c-2.21875-78.871094-68.339843-141.75-147.226562-140.171875-50.765625 1.015625-95.09375 28.238281-120.023438 68.695312h-22.980469c-4.953124 0-9.457031 2.9375-11.382812 7.5-21.75 51.496094-37.257812 105.421876-46.1875 160.621094l-9.609375 59.402344c-.566406 3.496094 2.8125 6.324219 6.15625 5.148438l35.351563-12.40625c4.957031-1.742188 7.714843-7.03125 6.304687-12.09375l3.835937-73.453126c1.910157-10.183593 10.167969-17.972656 20.445313-19.289062l17.84375-2.285156c13.65625-1.75 27.515625.917968 39.546875 7.613281l28.96875 16.121094c3.472656 1.9375 3.335938 6.980469-.238281 8.726562l-45.675781 22.292969c-5.769532 2.816406-9.476563 8.621094-9.605469 15.035156l-.339844 17.023438c-.285156 14.160156-1.375 28.261718-3.25 42.234375 37.996094 24.558593 83.265625 38.832031 131.875 38.832031 37.746094 0 73.480469-8.597656 105.359375-23.9375-10.023438-26.425781-15.445312-67.296875 7.59375-120.878906.160156-.34375.304688-.699219.460938-1.046875.5-1.144531.996093-2.289063 1.519531-3.449219l-.007813-.011719c7.785156-18.433593 11.867188-38.8125 11.265625-60.222656zm0 0" fill="#dad9dd"/><path d="m170.261719 376.578125-45.675781 22.296875c-5.769532 2.8125-9.476563 8.621094-9.605469 15.035156l-.339844 17.019532c-.285156 14.164062-1.375 28.261718-3.25 42.234374 29.621094 19.148438 63.664063 32.042969 100.261719 36.796876-33.339844-91.011719-.933594-157.347657 9.152344-174.652344-15.035157-16.453125-24.207032-38.355469-24.207032-62.402344 0-51.109375 41.433594-92.542969 92.542969-92.542969 2.058594 0 4.097656.074219 6.125.207031-21.632813-12.109374-46.617187-18.820312-73.035156-18.289062-50.761719 1.011719-95.09375 28.238281-120.023438 68.691406h-22.980469c-4.953124 0-9.457031 2.941406-11.382812 7.503906-21.75 51.496094-37.257812 105.421876-46.1875 160.621094l-9.609375 59.402344c-.566406 3.496094 2.8125 6.324219 6.15625 5.148438l35.351563-12.40625c4.957031-1.742188 7.714843-7.03125 6.304687-12.09375l3.835937-73.453126c1.910157-10.183593 10.167969-17.972656 20.445313-19.289062l17.84375-2.285156c13.65625-1.75 27.515625.917968 39.546875 7.613281l28.96875 16.121094c3.472656 1.933593 3.339844 6.980469-.238281 8.722656zm0 0" fill="#ccccce"/><path d="m67.84375 238.476562c-21.75 51.496094-37.257812 105.421876-46.1875 160.621094l-9.609375 59.402344c-.566406 3.496094 2.8125 6.324219 6.15625 5.148438l35.351563-12.40625c4.957031-1.742188 7.714843-7.03125 6.304687-12.09375l3.835937-73.453126c1.910157-10.183593 10.167969-17.972656 20.445313-19.289062l17.84375-2.285156c13.65625-1.75 27.515625.917968 39.546875 7.613281l28.96875 16.121094c3.472656 1.9375 3.335938 6.980469-.238281 8.726562l42.800781-23.265625c24.289062-13.203125 24.367188-48.042968.136719-61.355468l-110.992188-60.984376h-22.980469c-4.953124 0-9.457031 2.9375-11.382812 7.5zm0 0" fill="#ebeaec"/><path d="m187.566406 330.84375c-5.585937 0-10.097656-4.535156-10.097656-10.101562 0-6.386719 5.867188-11.121094 12.0625-9.898438 4.835938 1.015625 8.132812 5.128906 8.132812 9.898438 0 5.585937-4.535156 10.101562-10.097656 10.101562zm0 0" fill="#ccccce"/><path d="m311.8125 243.804688c-1.820312-4.785157-7.179688-7.1875-11.964844-5.367188-4.785156 1.824219-7.1875 7.179688-5.363281 11.964844 1.820313 4.785156 7.179687 7.1875 11.964844 5.367187 4.785156-1.824219 7.1875-7.179687 5.363281-11.964843zm0 0" fill="#ebeaec"/><path d="m288.414062 263.429688c-3.863281-10.144532-15.214843-15.234376-25.355468-11.371094-10.144532 3.863281-15.234375 15.214844-11.371094 25.355468 3.863281 10.144532 15.214844 15.234376 25.355469 11.371094 10.144531-3.863281 15.234375-15.214844 11.371093-25.355468zm0 0" fill="#ebeaec"/><path d="m68.96875 352.441406c-16.59375 0-30.050781-13.453125-30.050781-30.050781 0-.488281.015625-.976563.039062-1.460937-7.242187 25.683593-13.03125 51.777343-17.300781 78.167968l-9.609375 59.402344c-.566406 3.496094 2.8125 6.324219 6.15625 5.148438l35.351563-12.40625c4.957031-1.742188 7.714843-7.03125 6.304687-12.09375l3.835937-73.453126c.992188-5.285156 3.707032-9.914062 7.515626-13.34375-.742188.054688-1.488282.089844-2.242188.089844zm0 0" fill="#dad9dd"/></svg>