<svg height="512pt" viewBox="0 0 512.00025 512" width="512pt" xmlns="http://www.w3.org/2000/svg"><path d="m512 256c0 141.386719-114.613281 256-256 256s-256-114.613281-256-256 114.613281-256 256-256 256 114.613281 256 256zm0 0" fill="#5e73dd"/><path d="m282.800781 269.3125-169.011719 199.574219c8.355469 5.59375 17.058594 10.710937 26.070313 15.308593l165.675781-195.628906c-5.054687-.707031-9.972656-2.796875-14.152344-6.335937-4.183593-3.539063-7.054687-8.050781-8.582031-12.917969zm0 0" fill="#ffcb37"/><path d="m239.613281 366.40625 65.921875-77.84375c-10.664062-1.484375-19.515625-8.988281-22.734375-19.25l-64.554687 76.226562c12.824218-4.058593 25.15625 7.816407 21.367187 20.867188zm0 0" fill="#ff941f"/><path d="m320.515625 212.332031c24.917969-13.925781 26.910156-38.160156 30.90625-46.550781 6.320313 19.390625 25.027344 34.867188 44.601563 38.003906-7.613282 5.363282-31.011719 11.402344-40.589844 38.117188zm0 0" fill="#fcac1f"/><path d="m368.164062 190.363281c-7.632812-6.613281-13.660156-15.128906-16.742187-24.582031-3.996094 8.390625-5.992187 32.625-30.90625 46.550781l15.722656 13.3125c18.476563-9.144531 26.835938-23.78125 31.925781-35.28125zm0 0" fill="#ff941f"/><path d="m304.179688 231.117188c-6.546876 1.222656-12.734376 4.617187-17.375 10.097656-10.710938 12.644531-9.140626 31.574218 3.503906 42.285156 12.644531 10.707031 31.574218 9.136719 42.285156-3.507812 4.640625-5.480469 6.96875-12.140626 7.097656-18.804688zm0 0" fill="#fcac1f"/><path d="m307.085938 255.046875c3.910156-4.617187 8.921874-7.734375 14.320312-9.339844l-17.226562-14.589843c-6.546876 1.222656-12.734376 4.617187-17.375 10.097656-10.710938 12.644531-9.140626 31.574218 3.503906 42.285156 4.1875 3.542969 9.0625 5.734375 14.101562 6.632812-6.597656-10.746093-5.917968-24.9375 2.675782-35.085937zm0 0" fill="#ff941f"/><path d="m322.332031 209.765625 35.425781 30.003906c6.277344 5.316407 7.058594 14.714844 1.742188 20.992188-5.316406 6.277343-14.714844 7.054687-20.992188 1.742187l-35.429687-30.003906c-6.277344-5.316406-7.054687-14.714844-1.738281-20.992188 5.316406-6.277343 14.714844-7.058593 20.992187-1.742187zm0 0" fill="#ffcb37"/><path d="m320.964844 228.128906c4.464844-5.273437 11.640625-6.867187 17.738281-4.496094l-16.371094-13.867187c-6.277343-5.316406-15.675781-4.535156-20.992187 1.742187-5.316406 6.277344-4.535156 15.675782 1.738281 20.992188l16.371094 13.863281c-3.335938-5.621093-2.949219-12.964843 1.515625-18.234375zm0 0" fill="#fcac1f"/><path d="m500.503906 24.46875-137.746094 100.992188c-13.601562 9.972656-18.492187 28.03125-11.785156 43.503906 7.585938 17.496094 23.769532 31.226562 42.3125 35.835937 16.367188 4.066407 33.375-3.730469 40.972656-18.789062l76.925782-152.5c3.40625-6.753907-4.578125-13.515625-10.679688-9.042969zm0 0" fill="#ffcb37"/><path d="m500.503906 24.46875-137.746094 100.992188c-13.601562 9.972656-18.492187 28.03125-11.785156 43.503906 3.742188 8.632812 9.585938 16.339844 16.765625 22.496094l141.664063-166.6875c-2.332032-1.96875-5.847656-2.539063-8.898438-.304688zm0 0" fill="#fcac1f"/><path d="m396.105469 470.269531-169.089844-203.339843c-1.574219 4.851562-4.484375 9.335937-8.699219 12.835937-4.210937 3.503906-9.152344 5.550781-14.210937 6.207031l165.746093 199.359375c9.070313-4.511719 17.835938-9.542969 26.253907-15.0625zm0 0" fill="#ffcb37"/><path d="m292.226562 345.367188-65.210937-78.4375c-3.316406 10.242187-12.242187 17.65625-22.910156 19.042968l63.859375 76.808594c-1.769532-13.332031 12.066406-23.414062 24.261718-17.414062zm0 0" fill="#fcac1f"/><path d="m154.539062 238.933594c-9.386718-26.953125-32.90625-33.125-40.472656-38.519532 20.191406-2.855468 38.683594-18.589843 45.167969-37.324218 3.960937 8.429687 5.84375 32.523437 30.488281 46.59375zm0 0" fill="#fcac1f"/><path d="m141.183594 188.199219c-7.84375 6.367187-17.277344 10.824219-27.117188 12.21875 7.566406 5.390625 31.085938 11.5625 40.472656 38.519531l15.84375-13.171875c-5.800781-19.785156-18.761718-30.558594-29.199218-37.566406zm0 0" fill="#ff941f"/><path d="m170.203125 258.289062c.066406 6.660157 2.335937 13.34375 6.929687 18.863282 10.589844 12.742187 29.507813 14.484375 42.246094 3.890625 12.742188-10.59375 14.484375-29.507813 3.890625-42.246094-4.589843-5.523437-10.746093-8.976563-17.285156-10.257813zm0 0" fill="#fcac1f"/><path d="m194.273438 259.582031c-3.867188-4.652343-6.070313-10.132812-6.710938-15.726562l-17.359375 14.433593c.066406 6.660157 2.335937 13.34375 6.925781 18.867188 10.59375 12.738281 29.507813 14.480469 42.25 3.890625 4.21875-3.507813 7.222656-7.929687 8.980469-12.738281-11.726563 4.632812-25.582031 1.5-34.085937-8.726563zm0 0" fill="#ff941f"/><path d="m152.328125 236.703125 35.699219-29.679687c6.324218-5.257813 15.714844-4.394532 20.976562 1.933593 5.257813 6.324219 4.394532 15.714844-1.933594 20.976563l-35.695312 29.675781c-6.324219 5.257813-15.714844 4.394531-20.976562-1.929687-5.257813-6.328126-4.394532-15.71875 1.929687-20.976563zm0 0" fill="#ffcb37"/><path d="m170.175781 241.238281c-4.417969-5.3125-4.738281-12.65625-1.347656-18.25l-16.5 13.714844c-6.324219 5.257813-7.1875 14.648437-1.929687 20.976563 5.257812 6.324218 14.652343 7.1875 20.976562 1.929687l16.496094-13.714844c-6.117188 2.3125-13.28125.65625-17.695313-4.65625zm0 0" fill="#fcac1f"/><path d="m.785156 29.058594 75.539063 153.195312c7.460937 15.125 24.394531 23.078125 40.796875 19.160156 18.546875-4.433593 34.878906-17.988281 42.636718-35.449218 6.851563-15.410156 2.125-33.515625-11.386718-43.609375l-136.824219-102.242188c-6.058594-4.527343-14.105469 2.160157-10.761719 8.945313zm0 0" fill="#ffcb37"/><path d="m.785156 29.058594 75.539063 153.195312c7.460937 15.125 24.394531 23.078125 40.796875 19.160156 9.152344-2.1875 17.757812-6.601562 25.066406-12.605468l-139.554688-168.457032c-2.347656 1.953126-3.519531 5.320313-1.847656 8.707032zm0 0" fill="#fcac1f"/></svg>