<svg height="512pt" viewBox="0 0 512 512" width="512pt" xmlns="http://www.w3.org/2000/svg"><path d="m512 256c0 141.386719-114.613281 256-256 256s-256-114.613281-256-256 114.613281-256 256-256 256 114.613281 256 256zm0 0" fill="#69d173"/><path d="m408.917969 50.675781c-20.019531-5.796875-41.1875-8.871093-63.097657-8.773437-123.027343.5625-222.121093 100.578125-221.5625 223.589844.558594 123.027343 100.578126 222.125 223.589844 221.5625 6.96875-.03125 13.855469-.398438 20.65625-1.054688 84.980469-41.644531 143.496094-128.980469 143.496094-230 0-84.058594-40.515625-158.652344-103.082031-205.324219zm0 0" fill="#ebeaec"/><path d="m261.390625 98.050781c-17.261719 0-25.730469-20.988281-13.53125-33.011719-73.617187 36.566407-124.003906 112.644532-123.601563 200.453126.558594 123.027343 100.578126 222.125 223.589844 221.5625 6.96875-.03125 13.855469-.398438 20.65625-1.054688 29.8125-14.609375 56.363282-34.851562 78.277344-59.328125zm0 0" fill="#dad9dd"/><path d="m495.191406 164.625c-32.332031-47.878906-87.1875-79.320312-149.171875-79.039062-98.640625.449218-178.527343 81.066406-178.078125 179.707031.449219 98.640625 81.066406 178.527343 179.707032 178.078125 49.457031-.222656 94.199218-20.605469 126.464843-53.304688 24.019531-38.996094 37.886719-84.910156 37.886719-134.066406 0-32.195312-5.960938-62.996094-16.808594-91.375zm0 0" fill="#a0391e"/><path d="m406.996094 406.308594c-98.640625.449218-179.257813-79.4375-179.707032-178.078125-.234374-51.644531 21.558594-98.335938 56.523438-131.179688-67.921875 25.648438-116.222656 91.484375-115.871094 168.242188.449219 98.640625 81.066406 178.527343 179.707032 178.078125 46.996093-.210938 89.722656-18.636719 121.546874-48.523438-19.363281 7.3125-40.316406 11.363282-62.199218 11.460938zm0 0" fill="#84260d"/><path d="m351.304688 289.761719c-4.5625 1.242187-7.25 5.953125-6.007813 10.511719 1.246094 4.5625 5.953125 7.257812 10.511719 6.003906 15.949218-4.351563 29.089844 13.707031 19.34375 30.765625-11.753906 20.574219-47.191406 15.160156-54.433594-11.382813-5.078125-18.609375 3.109375-38.359375 19.542969-47.996094l13.007812 2.019532c9.570313 5.851562 20.339844 8.71875 31.058594 8.71875 15.554687 0 31.003906-6.023438 42.542969-17.664063 19.21875-19.398437 19.074218-50.816406-.320313-70.035156-16.207031-16.0625-42.367187-15.960937-58.449219.265625-13.527343 13.648438-13.429687 35.648438.222657 49.179688 3.359375 3.328124 8.78125 3.304687 12.109375-.054688s3.300781-8.78125-.054688-12.105469c-6.933594-6.871093-6.984375-18.035156-.113281-24.96875 9.445313-9.53125 24.765625-9.535156 34.234375-.15625 12.6875 12.574219 12.78125 33.132813.207031 45.820313-13.605469 13.734375-34.835937 16.511718-51.410156 7.042968l-4.679687-12.261718c.6875-27.476563-17.785157-52.207032-44.550782-59.25-26.410156-6.945313-53.542968 8.886718-60.492187 35.292968-5.796875 22.039063 7.414062 44.6875 29.453125 50.484376 18.546875 4.878906 37.601562-6.238282 42.480468-24.78125 1.203126-4.574219-1.527343-9.253907-6.101562-10.457032-4.574219-1.207031-9.253906 1.527344-10.457031 6.101563-2.476563 9.410156-12.148438 15.058593-21.566407 12.582031-12.90625-3.398438-20.648437-16.664062-17.25-29.570312 4.542969-17.277344 22.300782-27.636719 39.578126-23.09375 18.675781 4.914062 31.683593 21.898437 31.792968 40.96875l-8.34375 10.257812c-24.085937 13.15625-36.234375 41.507812-28.960937 68.164062 11.238281 41.207032 66.515625 49.15625 85.816406 15.371094 5.476563-9.585937 6.894531-20.730468 3.988281-31.378906-5.054687-18.542969-24.152344-29.453125-42.699218-24.394531zm0 0" fill="#cc5740"/><path d="m201.96875 356.078125-12.597656-6.765625c5.304687 9.800781 11.492187 19.050781 18.464844 27.648438 20.484374 5.578124 42.824218-.140626 58.15625-15.613282 19.222656-19.398437 19.078124-50.816406-.320313-70.035156-25.261719-25.035156-68.667969-7.8125-68.519531 24.902344.039062 9.289062 3.699218 18.003906 10.296875 24.542968 3.359375 3.328126 8.777343 3.304688 12.105469-.054687 3.328124-3.359375 3.304687-8.78125-.054688-12.105469-3.351562-3.320312-5.207031-7.746094-5.226562-12.460937-.082032-17.507813 24.878906-27 39.347656-12.664063 12.691406 12.578125 12.785156 33.132813.207031 45.824219-12.742187 12.859375-32.574219 17.105469-51.859375 6.78125zm0 0" fill="#cc5740"/><path d="m262.308594 334.074219c-1.332032 5.574219-4.15625 10.863281-8.480469 15.222656-12.742187 12.859375-32.574219 17.105469-51.863281 6.785156l-12.59375-6.769531c5.304687 9.804688 11.492187 19.054688 18.464844 27.648438 20.484374 5.578124 42.824218-.140626 58.15625-15.613282 4.917968-4.960937 8.558593-10.710937 10.941406-16.839844-7.132813 2.164063-14.351563-3.023437-14.625-10.433593zm0 0" fill="#bc4c2e"/><path d="m410.652344 321.351562c-5.800782 22.039063 7.414062 44.683594 29.453125 50.484376 18.542969 4.878906 37.601562-6.238282 42.480469-24.785157 1.203124-4.570312-1.527344-9.253906-6.101563-10.457031-4.570313-1.203125-9.253906 1.527344-10.457031 6.101562-2.476563 9.414063-12.148438 15.054688-21.566406 12.582032-12.90625-3.394532-20.648438-16.660156-17.25-29.570313 4.542968-17.277343 22.300781-27.632812 39.574218-23.089843 17.101563 4.496093 29.480469 19.007812 31.507813 36.21875 3.0625-8.96875 5.636719-18.160157 7.699219-27.542969-27.324219-41.765625-84.316407-31.859375-95.339844 10.058593zm0 0" fill="#cc5740"/><path d="m494.328125 349.648438c-29.34375 50.65625-84.023437 84.878906-146.71875 85.164062-.265625 0-.527344 0-.792969 0-93.054687 0-169.882812-75.324219-170.3125-169.558594-.429687-93.992187 75.566406-170.679687 169.554688-171.105468.265625 0 .53125-.003907.796875-.003907 74.25 0 137.207031 47.59375 160.582031 113.59375-5.039062-26.417969-14.128906-51.402343-26.617188-74.265625-34.136718-34.875-81.695312-56.449218-133.964843-56.449218-.289063 0-.585938 0-.875.003906-103.457031.46875-187.070313 84.855468-186.601563 188.304687.472656 103.640625 84.921875 186.605469 187.433594 186.605469.289062 0 .585938-.003906.875-.003906 39.554688-.179688 76.199219-12.636719 106.363281-33.726563 16.769531-20.449219 30.4375-43.539062 40.277344-68.558593zm0 0" fill="#84260d"/><path d="m447.296875 405.59375c0-1.578125.375-3.0625 1.027344-4.382812-28.152344 20.945312-62.976563 33.429687-100.714844 33.601562-.265625 0-.53125.003906-.796875.003906-93.054688 0-169.882812-75.328125-170.308594-169.5625-.304687-66.113281 37.210938-123.664062 92.199219-152.136718-5.335937-.164063-9.613281-4.527344-9.613281-9.902344 0-1.894532.542968-3.660156 1.464844-5.164063-60.363282 31.382813-101.503907 94.628907-101.175782 167.28125.472656 103.640625 84.921875 186.605469 187.433594 186.605469.289062 0 .585938 0 .875-.003906 39.554688-.179688 76.199219-12.636719 106.363281-33.722656.746094-.910157 1.476563-1.832032 2.210938-2.75-5.03125-.480469-8.964844-4.714844-8.964844-9.867188zm0 0" fill="#751d0c"/><path d="m187.59375 326.0625c-9.25-7.691406-17.496094-15.828125-24.589844-24.070312 22.769532-18.589844 71.878906-64.347657 112.859375-141.375 37.722657-70.90625 75.207031-132.648438 183.503907-160.617188l-271.359376 326.398438c-.140624-.113282-.277343-.222657-.414062-.335938zm0 0" fill="#dad9dd"/><path d="m216.652344 346.371094c-9.554688-5.488282-19.226563-12.179688-28.644532-19.972656l271.359376-326.398438c-7.722657 111.585938-61.582032 159.710938-124.410157 209.75-68.109375 54.246094-104.125 110.769531-118.304687 136.621094zm0 0" fill="#ebeaec"/><path d="m133.421875 359.085938c-.820313 5.011718-3.007813 9.894531-6.710937 14.082031-13.730469 15.5-27.605469 29.507812-38.195313 39.769531-6.425781 6.226562-13.984375 11.054688-22.066406 14.890625-.050781.023437-.097657.050781-.144531.074219 13.085937 14.4375 27.808593 27.355468 43.855468 38.5.199219-.585938.386719-1.175782.546875-1.78125 2.296875-8.644532 5.664063-16.960938 10.609375-24.410156 8.160156-12.289063 19.394532-28.488282 32.128906-44.8125 3.4375-4.410157 7.839844-7.453126 12.617188-9.171876-15.789062-.238281-29.523438-11.660156-32.640625-27.140624zm0 0" fill="#a0391e"/><path d="m133.421875 359.085938c-.820313 5.011718-3.007813 9.894531-6.710937 14.082031-13.730469 15.5-27.605469 29.507812-38.195313 39.769531-6.425781 6.226562-13.984375 11.054688-22.066406 14.890625-.050781.023437-.097657.050781-.144531.078125 5.835937 6.4375 12.003906 12.570312 18.464843 18.386719 6.542969-4.519531 12.582031-9.710938 17.777344-15.765625 11.527344-13.429688 26.5625-31.695313 41.261719-51.726563.21875-.300781.414062-.609375.621094-.914062-5.503907-4.785157-9.5-11.316407-11.007813-18.800781zm0 0" fill="#84260d"/><path d="m133.421875 359.085938c-.820313 5.011718-3.007813 9.894531-6.710937 14.082031-5 5.640625-10.015626 11.082031-14.882813 16.21875 3.121094 13.210937 14.828125 22.941406 28.386719 23.601562 4.164062-5.726562 8.59375-11.648437 13.230468-17.59375 3.4375-4.40625 7.839844-7.449219 12.617188-9.171875-15.789062-.234375-29.523438-11.65625-32.640625-27.136718zm0 0" fill="#84260d"/><path d="m133.421875 359.085938c-.378906 2.320312-1.066406 4.605468-2.042969 6.8125-1.140625 2.566406-2.679687 5.019531-4.667968 7.269531-4.945313 5.578125-10.863282 12-14.882813 16.21875 1.613281 6.835937 5.542969 12.726562 10.820313 16.925781 6.089843-7.589844 17.984374-22.890625 21.78125-28.425781-.253907-.3125-8.566407-6.675781-11.007813-18.800781zm0 0" fill="#751d0c"/><path d="m88.515625 412.9375c-6.425781 6.226562-13.984375 11.054688-22.066406 14.890625-.050781.023437-.097657.050781-.144531.074219 13.085937 14.433594 27.808593 27.355468 43.855468 38.5.199219-.585938.386719-1.175782.546875-1.78125 2.296875-8.644532 5.664063-16.960938 10.609375-24.410156-17.5625 5.371093-34.878906-9.023438-32.800781-27.273438zm0 0" fill="#bc4c2e"/><path d="m88.515625 412.9375c-7.308594 7.082031-14.339844 10.941406-22.210937 14.96875 5.839843 6.4375 12.003906 12.566406 18.460937 18.382812 4.632813-3.199218 9.007813-6.734374 13.011719-10.679687-6.394532-5.199219-10.3125-13.4375-9.261719-22.671875zm0 0" fill="#a0391e"/><path d="m275.054688 162.105469c-40.8125 76.117187-89.429688 121.417969-112.050782 139.886719 7.097656 8.242187 15.339844 16.378906 24.589844 24.070312.136719.113281.277344.222656.414062.335938l103.566407-124.574219c-11.332031-9.574219-17.773438-24.089844-16.519531-39.71875zm0 0" fill="#ccccce"/><path d="m291.574219 201.824219-103.566407 124.574219c9.417969 7.792968 19.089844 14.484374 28.644532 19.972656 14.011718-25.546875 49.363281-81.035156 115.914062-134.6875-14.523437 3.378906-29.632812-.257813-40.992187-9.859375zm0 0" fill="#dad9dd"/><path d="m144.933594 283.652344c2.566406-1.367188 5.742187-.582032 7.378906 1.828125 19.109375 28.125 51.484375 55.054687 82.671875 68.730469 2.664063 1.167968 4.019531 4.148437 3.140625 6.921874-5.148438 16.265626-16.539062 29.9375-31.589844 37.9375-2.523437 1.339844-5.664062.511719-7.269531-1.851562-.074219-.113281-.152344-.222656-.226563-.332031-7.863281-11.515625-22.234374-15.039063-34.003906-10.269531-15.570312.285156-29.246094-11.085938-31.8125-26.445313 2.542969-12.441406-3.546875-25.929687-16.300781-31.558594-.125-.054687-.246094-.109375-.371094-.164062-2.617187-1.148438-4.003906-4.082031-3.148437-6.808594 5.117187-16.257813 16.476562-29.953125 31.53125-37.988281zm0 0" fill="#ffcb37"/><path d="m171.421875 321.113281c6.550781 0 12.714844 1.632813 18.121094 4.5-14.550781-12.039062-27.582031-25.933593-37.230469-40.136719-1.636719-2.40625-4.8125-3.191406-7.378906-1.824218-15.054688 8.03125-26.414063 21.730468-31.53125 37.988281-.859375 2.726563.53125 5.660156 3.148437 6.808594.121094.054687.246094.109375.367188.164062 9.808593 4.328125 15.652343 13.300781 16.6875 22.871094 3.824219-17.371094 19.296875-30.371094 37.816406-30.371094zm0 0" fill="#fcac1f"/></svg>