<svg height="512pt" viewBox="-14 0 512 512.00025" width="512pt" xmlns="http://www.w3.org/2000/svg"><path d="m484.664062 269.667969c0 133.835937-108.496093 242.332031-242.332031 242.332031-133.835937 0-242.332031-108.496094-242.332031-242.332031 0-133.835938 108.496094-242.332031 242.332031-242.332031 133.835938 0 242.332031 108.496093 242.332031 242.332031zm0 0" fill="#ff5252"/><path d="m454.460938 386.886719c-1.566407-70.863281-31.460938-90.929688-46.746094-103.140625-21.359375-17.0625-74.382813-23.847656-90.375-19.773438-6.605469 1.867188-13.71875-1.746094-17.53125-7.457031-1.457032-2.1875-2.550782-4.117187-3.375-5.824219-4.382813 6.871094-10.234375 12.761719-17.265625 17.160156l-15.722657 9.835938c-12.914062 8.082031-29.3125 8.082031-42.226562 0l-15.730469-9.839844c-7.027343-4.398437-12.875-10.289062-17.261719-17.15625-.824218 1.710938-1.914062 3.636719-3.371093 5.824219-3.808594 5.710937-10.925781 9.324219-17.53125 7.457031-15.992188-4.074218-69.015625 2.710938-90.375 19.773438-15.285157 12.214844-45.179688 32.277344-46.746094 103.140625 41.308594 74.597656 120.816406 125.113281 212.128906 125.113281s170.820313-50.515625 212.128907-125.113281zm0 0" fill="#f7c696"/><path d="m454.460938 386.886719c-1.566407-70.863281-31.460938-90.929688-46.746094-103.140625-21.359375-17.0625-74.382813-23.847656-90.375-19.773438-6.605469 1.867188-13.71875-1.746094-17.53125-7.457031-1.457032-2.1875-2.550782-4.117187-3.375-5.824219-4.382813 6.871094-10.234375 12.761719-17.265625 17.160156l-15.722657 9.835938c-12.914062 8.082031-29.3125 8.082031-42.226562 0l-15.730469-9.839844c-7.027343-4.398437-12.875-10.289062-17.261719-17.15625-.824218 1.710938-1.914062 3.636719-3.371093 5.824219-3.808594 5.710937-10.925781 9.324219-17.53125 7.457031-15.992188-4.074218-69.015625 2.710938-90.375 19.773438-15.285157 12.214844-45.179688 32.277344-46.746094 103.140625 41.308594 74.597656 120.816406 125.113281 212.128906 125.113281s170.820313-50.515625 212.128907-125.113281zm0 0" fill="#f7c696"/><path d="m115.804688 278.410156c7.871093-6.597656 19.96875-11.742187 32.96875-15.429687-22.652344 1.097656-55.964844 8.097656-71.824219 20.765625-15.285157 12.214844-45.179688 32.277344-46.746094 103.140625 10.03125 18.113281 22.320313 34.804687 36.480469 49.699219l1.53125-48.039063c1.59375-75.667969 32.027344-97.09375 47.589844-110.136719zm0 0" fill="#f2ba88"/><path d="m317.339844 263.972656c-6.605469 1.867188-13.71875-1.746094-17.53125-7.457031-1.457032-2.1875-2.550782-4.117187-3.375-5.824219-1.214844 1.90625-2.558594 3.730469-3.996094 5.476563-2.558594 4.136719-5.320312 7.710937-8.265625 9.640625l-17.625 11.542968c-14.484375 9.484376-32.863281 9.484376-47.347656 0l-17.632813-11.550781c-1.785156-1.167969-3.503906-2.949219-5.152344-5.085937-3.109374-3.019532-5.859374-6.378906-8.1875-10.023438-.824218 1.710938-1.914062 3.636719-3.371093 5.824219-3.714844 5.5625-10.5625 9.121094-17.019531 7.574219 10.722656 5.921875 25.902343 18.714844 24.347656 43.167968 1.605468-.277343 3.308594-.085937 4.894531.671876l26.097656 12.425781c7.886719 3.753906 14.441407 9.5625 19.15625 16.597656 4.714844-7.035156 11.269531-12.84375 19.15625-16.597656l26.097657-12.425781c1.953124-.929688 4.085937-1.007813 5.996093-.398438-.15625-3.902344-.25-30.265625 24.632813-43.753906-.292969.066406-.605469.125-.875.195312zm0 0" fill="#f2ba88"/><g fill="#e5a876"><path d="m114.078125 451.742188c-5.289063-5.007813-10.058594-10.59375-14.183594-16.59375l-9.113281-13.257813c-2.554688-3.71875-1.609375-8.800781 2.105469-11.355469 3.71875-2.554687 8.800781-1.613281 11.355469 2.105469l9.109374 13.257813c3.480469 5.058593 7.5 9.765624 11.957032 13.988281 3.273437 3.101562 3.414062 8.269531.3125 11.542969-3.097656 3.269531-8.261719 3.421874-11.542969.3125zm0 0"/><path d="m298.472656 308.792969c-1.941406-4.074219-6.8125-5.800781-10.886718-3.863281l-26.097657 12.425781c-7.886719 3.753906-14.441406 9.566406-19.15625 16.597656-4.714843-7.03125-11.269531-12.839844-19.15625-16.597656l-26.101562-12.425781c-4.070313-1.941407-8.945313-.210938-10.882813 3.863281-1.9375 4.070312-.210937 8.941406 3.863282 10.882812l26.097656 12.425781c10.941406 5.210938 18.015625 16.410157 18.015625 28.527344v49.164063c0 4.511719 3.652343 8.167969 8.164062 8.167969s8.167969-3.65625 8.167969-8.167969v-49.164063c0-12.117187 7.070312-23.316406 18.011719-28.527344l26.097656-12.425781c4.070313-1.941406 5.800781-6.8125 3.863281-10.882812zm0 0"/><path d="m377.019531 422.421875c-4.472656.5625-7.644531 4.648437-7.082031 9.125.039062.292969 2.496094 20.550781-.085938 44.210937 5.9375-3.683593 11.714844-7.605468 17.296876-11.769531.871093-19.03125-.871094-33.421875-1.003907-34.484375-.566406-4.476562-4.648437-7.636718-9.125-7.082031zm0 0"/><path d="m107.644531 422.421875c-4.476562-.558594-8.558593 2.605469-9.125 7.082031-.132812 1.0625-1.875 15.453125-1.003906 34.480469 5.589844 4.171875 11.367187 8.097656 17.3125 11.78125-2.5625-23.539063-.160156-43.757813-.101563-44.21875.5625-4.476563-2.609374-8.5625-7.082031-9.125zm0 0"/></g><path d="m222.390625 463.488281c-11 14.792969-23.824219 28.804688-38.757813 41.335938 18.792969 4.675781 38.449219 7.175781 58.6875 7.175781h.019532c23.242187 0 45.71875-3.28125 66.996094-9.390625 5.109374-12.277344 9.519531-24.460937 13.304687-36.445313-28.972656 10.246094-62.53125 11.839844-100.25-2.675781zm0 0" fill="#ebeaec"/><path d="m268.863281 473.875c-14.691406-.863281-30.195312-4.121094-46.472656-10.386719-11 14.792969-23.824219 28.804688-38.757813 41.335938 18.792969 4.675781 38.449219 7.175781 58.6875 7.175781h.019532c5.246094 0 10.449218-.175781 15.609375-.503906-3.421875-13.234375.367187-27.730469 10.914062-37.621094zm0 0" fill="#dad9dd"/><path d="m134.972656 287.480469c-7.492187 1.484375-13.554687 6.113281-17.109375 12.234375-4.464843-20.488282-4.679687-31.292969-4.679687-31.292969 4.984375-8.445313 12.621094-6.101563 12.621094-6.101563 6.070312-6.625 15.527343.378907 15.527343.378907s1.734375 8.640625 9.234375 26.617187c-4.710937-2.164062-10.121094-2.921875-15.59375-1.835937zm0 0" fill="#5e73dd"/><path d="m439.550781 314.464844c-2.382812-1.605469-4.058593-4.089844-4.542969-6.917969-3.179687-18.460937-15.578124-22.707031-22.519531-23.617187-2.964843-.386719-5.65625-1.941407-7.390625-4.382813-13.828125-19.496094-35.160156-11.625-35.160156-11.625s-73.890625 96.871094-127.605469 99.382813c-37.148437 1.738281-68.71875-31.160157-81.613281-46.878907-4.332031 7.917969-12.742188 13.292969-22.40625 13.292969-1.519531 0-3.003906-.140625-4.449219-.398438 18.160157 106.96875 86.011719 133.539063 86.011719 133.539063 145.136719 58.328125 229.371094-121.984375 229.371094-121.984375 4.65625-17.71875-4.175782-26.695312-9.695313-30.410156zm0 0" fill="#7a93ed"/><path d="m160.71875 320.425781c-4.335938 7.921875-12.742188 13.292969-22.40625 13.292969-1.519531 0-3.003906-.140625-4.449219-.394531 18.160157 106.964843 86.011719 133.539062 86.011719 133.539062 15.761719 6.335938 30.808594 9.851563 45.105469 11.09375-12.566407-20.925781 4.308593-36.039062 4.308593-36.039062-24.332031-17.332031-7.332031-38.332031-7.332031-38.332031-27.667969-14-11.460937-37.339844-11.460937-37.339844v-.003906c-2.765625.570312-5.492188.9375-8.164063 1.0625-37.148437 1.738281-68.71875-31.160157-81.613281-46.878907zm0 0" fill="#6c83e5"/><path d="m439.550781 314.464844c-2.382812-1.605469-4.058593-4.089844-4.542969-6.917969-.367187-2.121094-.859374-4.046875-1.445312-5.804687-28.8125 47.992187-74.929688 108.527343-131.933594 126.570312-17.554687 5.554688-31.757812 5.566406-40.582031 4.59375-9.441406-1.039062-14.929687-3.390625-15.128906-3.476562-4.09375-1.847657-8.910157-.046876-10.785157 4.039062-1.878906 4.097656-.082031 8.945312 4.019532 10.828125.710937.324219 12.175781 5.433594 31.160156 5.433594 9.730469 0 21.4375-1.34375 34.679688-5.359375 22.347656-6.78125 44.675781-19.832032 66.359374-38.792969 24.839844-21.71875 48.964844-51.363281 71.800782-88.195313-1.246094-1.203124-2.492188-2.171874-3.601563-2.917968zm0 0" fill="#6c83e5"/><path d="m416.34375 284.714844c-1.390625-.386719-2.699219-.632813-3.855469-.785156-2.964843-.386719-5.65625-1.941407-7.390625-4.378907-.867187-1.226562-1.765625-2.34375-2.683594-3.359375-52.226562 83.070313-107.121093 124.578125-158.8125 120.054688-26.054687-2.28125-44.746093-16.929688-44.929687-17.078125-3.519531-2.808594-8.644531-2.246094-11.464844 1.261719-2.828125 3.515624-2.269531 8.65625 1.25 11.484374.902344.726563 22.558594 17.875 53.71875 20.601563 3.023438.265625 6.042969.398437 9.078125.398437 55.386719 0 112.25-44.09375 165.089844-128.199218zm0 0" fill="#6c83e5"/><path d="m155.753906 132.441406c1.441406 0 2.851563.113282 4.230469.328125l.050781-.785156c36.609375-14.992187 21.792969-45.976563 46.039063-43.082031 18.570312 2.21875 29.375-6.289063 33.839843-11.015625 1.316407-1.398438 3.519532-1.398438 4.839844 0 4.460938 4.726562 15.265625 13.234375 33.835938 11.015625 24.246094-2.894532 9.429687 28.089844 46.039062 43.082031l.050782.785156c1.378906-.214843 2.789062-.328125 4.226562-.328125 6.808594 0 13.027344 2.511719 17.789062 6.65625v-65.867187c-8.152343-41.914063-24.878906-22.054688-47.742187-53.628907-22.867187-31.578124-56.621094-15.515624-56.621094-15.515624s-33.753906-16.0625-56.621093 15.515624c-22.867188 31.574219-39.589844 11.714844-47.742188 53.628907v65.867187c4.761719-4.144531 10.980469-6.65625 17.785156-6.65625zm0 0" fill="#a0391e"/><path d="m183.6875 103.375v-38.808594c8.152344-41.917968 24.875-22.054687 47.742188-53.632812 2.332031-3.222656 4.78125-5.941406 7.292968-8.238282-9.300781-3.097656-34.660156-8.433593-53.011718 16.90625-22.867188 31.578126-39.589844 11.714844-47.742188 53.632813v65.863281c4.761719-4.140625 10.976562-6.65625 17.785156-6.65625 1.4375 0 2.851563.113282 4.230469.328125l.050781-.785156c13.058594-5.347656 19.570313-12.730469 23.652344-19.882813zm0 0" fill="#84260d"/><path d="m328.5625 126.269531c-1.457031 0-2.886719.117188-4.285156.335938l1.683594 25.957031c.617187 9.496094-.367188 18.988281-2.863282 28.105469 1.765625.355469 3.59375.546875 5.464844.546875 15.171875 0 27.46875-12.300782 27.46875-27.472656 0-15.171876-12.296875-27.472657-27.46875-27.472657zm0 0" fill="#f7c696"/><path d="m328.5625 157.214844c-.824219 0-1.636719-.042969-2.441406-.117188.089844 7.976563-.925782 15.90625-3.023438 23.570313 1.765625.355469 3.59375.546875 5.464844.546875 15.171875 0 27.46875-12.300782 27.46875-27.472656 0-4.304688-.988281-8.375-2.753906-12-4.457032 9.15625-13.847656 15.472656-24.714844 15.472656zm0 0" fill="#f2ba88"/><path d="m158.742188 152.582031 1.683593-25.964843c-1.398437-.21875-2.828125-.335938-4.289062-.335938-15.191407 0-27.503907 12.316406-27.503907 27.507812 0 15.1875 12.3125 27.503907 27.503907 27.503907 1.867187 0 3.691406-.1875 5.453125-.542969-2.5-9.132812-3.464844-18.65625-2.847656-28.167969zm0 0" fill="#f7c696"/><path d="m158.582031 157.179688c-.804687.070312-1.621093.113281-2.445312.113281-10.886719 0-20.296875-6.328125-24.753907-15.507813-1.761718 3.628906-2.75 7.699219-2.75 12 0 15.191406 12.3125 27.507813 27.503907 27.507813 1.867187 0 3.6875-.1875 5.453125-.542969-2.097656-7.664062-3.097656-15.597656-3.007813-23.570312zm0 0" fill="#f2ba88"/><path d="m324.628906 126.542969c-36.609375-14.996094-21.792968-45.980469-46.039062-43.085938-18.570313 2.21875-29.375-6.289062-33.835938-11.015625-1.320312-1.398437-3.523437-1.398437-4.839844 0-4.464843 4.726563-15.269531 13.234375-33.839843 11.015625-24.246094-2.894531-9.429688 28.089844-46.039063 43.082031l-1.710937 26.390626c-.886719 13.699218 1.542969 27.417968 7.171875 39.933593 5.019531 11.160157 11.242187 26.625 15.859375 43.449219 3.707031 13.515625 12.253906 25.191406 24.132812 32.621094l15.730469 9.84375c12.914062 8.082031 29.3125 8.082031 42.230469 0l15.71875-9.835938c11.882812-7.4375 20.4375-19.117187 24.144531-32.636718 4.59375-16.734376 10.777344-32.125 15.78125-43.269532 5.640625-12.574218 8.140625-26.324218 7.25-40.078125zm0 0" fill="#fcd2a4"/><path d="m229.808594 268.9375c-11.878906-7.433594-20.429688-19.109375-24.136719-32.625-4.613281-16.824219-10.839844-32.289062-15.855469-43.449219-5.628906-12.515625-8.058594-26.234375-7.171875-39.933593l1.238281-46.621094c-4.066406 7.261718-10.578124 14.796875-23.847656 20.230468l-1.710937 26.390626c-.886719 13.699218 1.542969 27.417968 7.171875 39.933593 5.019531 11.160157 11.242187 26.625 15.859375 43.449219 3.707031 13.515625 12.253906 25.191406 24.132812 32.625l15.730469 9.839844c10.078125 6.304687 22.265625 7.667968 33.273438 4.136718-7.722657-2.480468-10.691407-5.5625-24.683594-13.976562zm0 0" fill="#f7c696"/><path d="m218.140625 186.980469c.796875 4.4375 5.042969 7.402343 9.480469 6.597656l4.132812-.742187 6.480469 3.761718c.011719.003906.023437.007813.035156.015625 2.464844 1.410157 5.519531 1.488281 8.128907-.003906.011718-.003906.019531-.007813.03125-.015625l6.484374-3.757812 4.128907.742187c4.433593.800781 8.683593-2.15625 9.476562-6.597656.796875-4.4375-2.15625-8.683594-6.59375-9.480469l-7.078125-1.269531c-1.902344-.34375-3.867187.003906-5.539062.972656l-4.976563 2.886719-4.976562-2.886719c-1.675781-.96875-3.636719-1.3125-5.539063-.972656l-7.078125 1.269531c-4.4375.796875-7.390625 5.042969-6.597656 9.480469zm0 0" fill="#f2ba88"/><path d="m264.789062 214.574219c-.050781 0-5.273437-.113281-9.742187-2.625-2.199219-1.238281-4.851563-1.390625-7.179687-.40625l-5.535157 2.335937-5.535156-2.335937c-2.328125-.984375-4.980469-.832031-7.179687.40625-4.421876 2.484375-9.585938 2.621093-9.792969 2.625-4.484375.027343-8.117188 3.671875-8.117188 8.167969 0 4.511718 3.65625 8.167968 8.167969 8.167968.808594 0 7.09375-.097656 13.949219-2.894531l5.332031 2.25c2.117188.890625 4.371094.835937 6.351562 0l5.332032-2.25c6.855468 2.796875 13.140625 2.894531 13.949218 2.894531 4.511719 0 8.167969-3.65625 8.167969-8.167968 0-4.511719-3.65625-8.167969-8.167969-8.167969zm0 0" fill="#f2ba88"/><path d="m285.640625 140.160156-8.535156-1.523437c-9.417969-1.679688-18.914063 3.515625-22.578125 12.355469-1.730469 4.164062.246094 8.941406 4.410156 10.671874 4.152344 1.71875 8.9375-.230468 10.671875-4.414062.765625-1.839844 2.671875-2.882812 4.628906-2.53125l8.535157 1.519531c4.445312.792969 8.683593-2.164062 9.476562-6.605469.789062-4.441406-2.167969-8.679687-6.609375-9.472656zm0 0" fill="#84260d"/><path d="m221.917969 161.664062c4.164062-1.730468 6.140625-6.507812 4.414062-10.671874-3.667969-8.835938-13.164062-14.027344-22.582031-12.355469l-8.535156 1.523437c-4.441406.792969-7.398438 5.03125-6.609375 9.472656.792969 4.441407 5.03125 7.398438 9.472656 6.605469l8.535156-1.519531c1.960938-.34375 3.867188.691406 4.628907 2.53125 1.726562 4.152344 6.496093 6.144531 10.675781 4.414062zm0 0" fill="#84260d"/><path d="m244.902344 234.765625h-5.140625c-4.507813 0-8.167969 3.65625-8.167969 8.164063 0 4.511718 3.65625 8.167968 8.167969 8.167968h5.140625c4.507812 0 8.164062-3.65625 8.164062-8.167968 0-4.511719-3.65625-8.164063-8.164062-8.164063zm0 0" fill="#f2ba88"/><path d="m221.589844 50.714844c-1.941406 0-3.886719-.6875-5.445313-2.082032-3.363281-3.007812-3.644531-8.171874-.636719-11.53125 6.820313-7.621093 16.597657-11.988281 26.824219-11.988281 10.226563 0 20.003907 4.367188 26.824219 11.988281 3.007812 3.359376 2.722656 8.523438-.636719 11.53125-3.359375 3.007813-8.523437 2.722657-11.53125-.636718-3.78125-4.226563-8.984375-6.550782-14.65625-6.550782-5.667969 0-10.875 2.324219-14.65625 6.550782-1.613281 1.800781-3.84375 2.71875-6.085937 2.71875zm0 0" fill="#ebeaec"/><path d="m269.15625 37.101562c-6.089844-6.804687-14.539062-11.007812-23.5625-11.832031 2.824219 1.457031 4.757812 4.394531 4.757812 7.785157 0 4.070312-2.777343 7.480468-6.539062 8.464843 5.089844.371094 9.726562 2.621094 13.175781 6.476563 3.007813 3.359375 8.171875 3.644531 11.53125.636718 3.359375-3.007812 3.644531-8.171874.636719-11.53125zm0 0" fill="#dad9dd"/><path d="m330.632812 80.808594c.472657-18.988282-17.390624-33.078125-35.746093-28.183594-2.011719.535156-3.425781 2.324219-3.476563 4.40625-.476562 18.988281 17.386719 33.078125 35.746094 28.1875 2.011719-.539062 3.425781-2.328125 3.476562-4.410156zm0 0" fill="#69d173"/><path d="m323.3125 61.027344c-7.339844-8.105469-18.3125-11.101563-28.425781-8.402344-2.011719.535156-3.425781 2.324219-3.476563 4.40625-.261718 10.347656 5.097656 20.320312 14.699219 25.621094-4.253906-10.710938 5.785156-23.375 17.203125-21.625zm0 0" fill="#55b160"/><path d="m352.855469 115.667969c5.691406-18.125-7.597657-36.589844-26.59375-36.949219-2.082031-.039062-3.929688 1.292969-4.554688 3.28125-5.691406 18.125 7.597657 36.589844 26.59375 36.945312 2.082031.039063 3.929688-1.289062 4.554688-3.277343zm0 0" fill="#69d173"/><path d="m351.699219 95.558594c-4.601563-10.292969-14.574219-16.632813-25.4375-16.835938-2.082031-.039062-3.929688 1.292969-4.554688 3.277344-3.257812 10.367188-.394531 21.730469 7.722657 29.316406-2.597657-11.953125 11.8125-22.234375 22.269531-15.757812zm0 0" fill="#55b160"/><path d="m299.25 54.640625c-3.644531-18.644531-24.136719-28.53125-41-19.78125-1.847656.957031-2.835938 3.011719-2.4375 5.054687 3.644531 18.640626 24.132812 28.53125 41 19.78125 1.847656-.957031 2.835938-3.011718 2.4375-5.054687zm0 0" fill="#69d173"/><path d="m286.945312 36.3125c-8.882812-5.816406-19.796874-6.070312-28.695312-1.453125-1.847656.957031-2.835938 3.011719-2.4375 5.054687 2.222656 11.371094 11.074219 20.292969 22.59375 22.484376-8.582031-8.691407-2.542969-23.988282 8.539062-26.085938zm0 0" fill="#55b160"/><path d="m154.03125 80.808594c-.476562-18.988282 17.386719-33.078125 35.746094-28.183594 2.011718.535156 3.421875 2.324219 3.476562 4.40625.472656 18.988281-17.390625 33.078125-35.746094 28.1875-2.011718-.539062-3.425781-2.328125-3.476562-4.410156zm0 0" fill="#69d173"/><path d="m170.523438 54.273438c-10.253907 4.742187-16.777344 15.09375-16.492188 26.535156.054688 2.082031 1.464844 3.871094 3.476562 4.410156 10.175782 2.710938 21.078126-.34375 28.359376-8.332031-12.535157 4.335937-24.519532-11.925781-15.34375-22.613281zm0 0" fill="#55b160"/><path d="m131.808594 115.667969c-5.691406-18.125 7.597656-36.589844 26.59375-36.949219 2.082031-.039062 3.933594 1.292969 4.554687 3.28125 5.691407 18.125-7.597656 36.589844-26.59375 36.945312-2.082031.039063-3.929687-1.289062-4.554687-3.277343zm0 0" fill="#69d173"/><path d="m139.148438 86.707031c-7.773438 7.542969-10.558594 18.707031-7.339844 28.960938.625 1.988281 2.472656 3.316406 4.554687 3.277343 9.960938-.183593 19.441407-5.5625 24.5-14.917968-10.804687 5.644531-25.015625-5.148438-21.714843-17.320313zm0 0" fill="#55b160"/><path d="m185.414062 54.640625c3.644532-18.644531 24.132813-28.53125 41-19.78125 1.847657.957031 2.839844 3.011719 2.4375 5.054687-3.644531 18.640626-24.132812 28.53125-41 19.78125-1.847656-.957031-2.839843-3.011718-2.4375-5.054687zm0 0" fill="#69d173"/><path d="m208.253906 32.109375c-11.554687 2.09375-20.585937 10.996094-22.839844 22.53125-.402343 2.042969.589844 4.097656 2.4375 5.054687 9.613282 4.988282 21.121094 4.105469 29.847657-2.242187-12.648438.707031-20.273438-17.015625-9.445313-25.34375zm0 0" fill="#55b160"/><path d="m180.378906 347.835938c3.894532 0 7.632813.671874 11.109375 1.890624-13.695312-9.839843-24.464843-21.617187-30.769531-29.300781-4.332031 7.917969-12.742188 13.292969-22.40625 13.292969-1.519531 0-3.003906-.140625-4.449219-.398438 3.089844 18.203126 7.621094 34.070313 13.011719 47.882813.074219-18.441406 15.046875-33.367187 33.503906-33.367187zm0 0" fill="#5e73dd"/><path d="m161.503906 297.59375c-7.050781-12.207031-22.660156-16.390625-34.871094-9.34375-12.210937 7.050781-16.390624 22.664062-9.34375 34.875 7.050782 12.207031 22.664063 16.390625 34.871094 9.339844 12.210938-7.046875 16.394532-22.660156 9.34375-34.871094zm0 0" fill="#ffcb37"/><path d="m139.402344 310.367188c-4.726563-8.183594-4.398438-17.886719 0-25.523438-4.339844-.003906-8.738282 1.089844-12.765625 3.414062-12.210938 7.050782-16.394531 22.664063-9.34375 34.875 7.050781 12.207032 22.664062 16.390626 34.871093 9.34375 4.027344-2.328124 7.175782-5.589843 9.34375-9.347656-8.816406-.007812-17.382812-4.578125-22.105468-12.761718zm0 0" fill="#fcac1f"/></svg>