<svg height="512pt" viewBox="0 -17 512 512" width="512pt" xmlns="http://www.w3.org/2000/svg"><path d="m485.722656 248.71875c0 126.871094-102.851562 229.71875-229.722656 229.71875s-229.722656-102.847656-229.722656-229.71875c0-126.875 102.851562-229.722656 229.722656-229.722656s229.722656 102.847656 229.722656 229.722656zm0 0" fill="#ff5252"/><path d="m291.125 425.21875c-3.59375-33.816406-8.039062-67.53125-12.851562-101.195312-8.835938-61.832032-9.722657-125.414063-2.578126-187.78125-5.730468 3.519531-12.476562 5.550781-19.695312 5.550781-7.222656 0-13.964844-2.03125-19.699219-5.550781 7.144531 62.367187 6.261719 125.949218-2.574219 187.78125-4.8125 33.664062-9.257812 67.378906-12.855468 101.195312l-.097656.925781c11.464843 1.894531 23.226562 2.894531 35.226562 2.894531 11.996094 0 23.761719-1 35.222656-2.894531zm0 0" fill="#ffcb37"/><path d="m271.085938 205.140625c.464843-23.03125 1.992187-46.046875 4.613281-68.898437-5.734375 3.519531-12.476563 5.550781-19.699219 5.550781-7.21875 0-13.964844-2.03125-19.695312-5.550781 2.617187 22.851562 4.144531 45.863281 4.613281 68.898437 6.605469-11.132813 23.554687-11.136719 30.167969 0zm0 0" fill="#fcac1f"/><path d="m102.871094 115.886719c0-2.558594-.441406-5.011719-1.238282-7.296875l38.441407 11.53125c14.652343 4.390625 30.578125 2.402344 43.695312-5.460938l39.457031-23.65625c-1.660156 4.210938-2.585937 8.792969-2.585937 13.59375 0 5.992188 1.425781 11.648438 3.949219 16.660156l-27.117188 16.257813c-19.585937 11.742187-43.296875 14.652344-65.050781 8.132813l-38.941406-11.679688c5.675781-4.003906 9.390625-10.605469 9.390625-18.082031zm0 0" fill="#ffcb37"/><path d="m493.011719 284.886719 12.609375-15.214844h-148.753906l12.609374 15.214844c15.625 18.855469 38.125 29.660156 61.769532 29.660156 23.640625 0 46.140625-10.804687 61.765625-29.660156zm0 0" fill="#fcac1f"/><path d="m493.011719 284.886719 12.609375-15.214844h-148.753906l12.609374 15.214844c15.625 18.855469 38.125 29.660156 61.769532 29.660156 23.640625 0 46.140625-10.804687 61.765625-29.660156zm0 0" fill="#fcac1f"/><path d="m369.476562 284.886719c12.289063 14.832031 28.835938 24.675781 46.84375 28.207031-16.722656-15.402344-5.726562-43.421875 16.941407-43.421875h-76.394531zm0 0" fill="#ff941f"/><path d="m363.472656 259.195312c4.175782 0 7.5625-3.382812 7.5625-7.5625v-13.789062c0-2.3125 1.882813-4.195312 4.195313-4.195312 2.316406 0 4.199219 1.882812 4.199219 4.195312v13.789062c0 4.179688 3.382812 7.5625 7.5625 7.5625 4.175781 0 7.5625-3.382812 7.5625-7.5625v-13.789062c0-10.65625-8.667969-19.324219-19.324219-19.324219s-19.324219 8.671875-19.324219 19.324219v13.789062c0 4.179688 3.386719 7.5625 7.566406 7.5625zm0 0" fill="#dad9dd"/><path d="m393.394531 231.3125c-2.6875-7.445312-9.804687-12.792969-18.164062-12.792969-10.65625 0-19.324219 8.667969-19.324219 19.324219v13.789062c0 4.179688 3.386719 7.5625 7.5625 7.5625 4.179688 0 7.566406-3.382812 7.566406-7.5625v-13.789062c0-2.3125 1.878906-4.195312 4.195313-4.195312 1.417969 0 2.671875.710937 3.429687 1.792968 1.585938-6.714844 9.933594-8.992187 14.734375-4.128906zm0 0" fill="#ccccce"/><path d="m475.496094 259.195312c4.179687 0 7.566406-3.382812 7.566406-7.5625v-13.789062c0-2.3125 1.882812-4.195312 4.195312-4.195312 2.316407 0 4.199219 1.882812 4.199219 4.195312v13.789062c0 4.179688 3.386719 7.5625 7.5625 7.5625s7.5625-3.382812 7.5625-7.5625v-13.789062c0-10.65625-8.667969-19.324219-19.324219-19.324219-10.652343 0-19.324218 8.671875-19.324218 19.324219v13.789062c0 4.179688 3.386718 7.5625 7.5625 7.5625zm0 0" fill="#dad9dd"/><path d="m505.421875 231.3125c-2.6875-7.445312-9.804687-12.792969-18.164063-12.792969-10.65625 0-19.324218 8.667969-19.324218 19.324219v13.789062c0 4.179688 3.386718 7.5625 7.5625 7.5625 4.179687 0 7.566406-3.382812 7.566406-7.5625v-13.789062c0-2.3125 1.882812-4.195312 4.195312-4.195312 1.417969 0 2.671876.710937 3.429688 1.792968 1.585938-6.714844 9.933594-8.992187 14.734375-4.128906zm0 0" fill="#ccccce"/><path d="m500.238281 248.605469c-14.203125 0-123.730469 0-137.988281 0-6.496094 0-11.761719 5.265625-11.761719 11.761719 0 6.496093 5.265625 11.761718 11.761719 11.761718h137.988281c6.496094 0 11.761719-5.265625 11.761719-11.761718 0-6.496094-5.265625-11.761719-11.761719-11.761719zm0 0" fill="#ffcb37"/><path d="m410.488281 260.367188c0-6.496094 5.265625-11.757813 11.761719-11.757813-27.726562 0-53.566406 0-60 0-6.496094 0-11.761719 5.261719-11.761719 11.757813 0 6.496093 5.265625 11.761718 11.761719 11.761718h60c-6.496094 0-11.761719-5.265625-11.761719-11.761718zm0 0" fill="#fcac1f"/><path d="m409.128906 115.886719c0-2.558594.441406-5.011719 1.238282-7.296875l-38.441407 11.53125c-14.652343 4.390625-30.578125 2.402344-43.695312-5.460938l-39.457031-23.65625c1.660156 4.210938 2.585937 8.792969 2.585937 13.59375 0 5.992188-1.425781 11.648438-3.949219 16.660156l27.117188 16.257813c19.585937 11.742187 43.296875 14.652344 65.050781 8.132813l38.941406-11.679688c-5.675781-4.003906-9.390625-10.605469-9.390625-18.082031zm0 0" fill="#ffcb37"/><path d="m330.441406 115.90625c-2.410156-1.292969-.078125 0-41.667968-24.898438 3.878906 9.832032 3.378906 20.832032-1.363282 30.253907 27.304688 16.277343 26.984375 16.371093 31.925782 18.894531-8.542969-9.34375-1.78125-24.609375 11.105468-24.25zm0 0" fill="#fcac1f"/><path d="m181.558594 115.90625c2.410156-1.292969.078125 0 41.667968-24.898438-3.878906 9.832032-3.378906 20.832032 1.363282 30.253907-27.304688 16.277343-26.984375 16.371093-31.925782 18.894531 8.542969-9.34375 1.78125-24.609375-11.105468-24.25zm0 0" fill="#fcac1f"/><path d="m375.230469 237.941406c3.027343 0 5.886719-1.832031 7.050781-4.828125l42.835938-110.347656c1.511718-3.894531-.417969-8.277344-4.3125-9.785156-3.894532-1.515625-8.277344.417969-9.789063 4.3125l-42.835937 110.347656c-1.511719 3.894531.417968 8.277344 4.3125 9.785156.902343.351563 1.828124.515625 2.738281.515625zm0 0" fill="#ebeaec"/><path d="m487.261719 237.941406c.910156 0 1.835937-.164062 2.734375-.515625 3.894531-1.511719 5.824218-5.890625 4.3125-9.785156l-42.835938-110.347656c-1.511718-3.894531-5.894531-5.828125-9.789062-4.3125-3.894532 1.507812-5.824219 5.890625-4.3125 9.785156l42.835937 110.347656c1.164063 2.996094 4.023438 4.828125 7.054688 4.828125zm0 0" fill="#ebeaec"/><path d="m463.96875 149.488281-12.496094-32.195312c-1.511718-3.894531-5.894531-5.828125-9.789062-4.3125-3.894532 1.511719-5.824219 5.890625-4.3125 9.785156l12.375 31.875c1.371094-6.460937 9.023437-9.242187 14.222656-5.152344zm0 0" fill="#dad9dd"/><path d="m398.519531 149.488281 12.496094-32.195312c1.511719-3.894531 5.894531-5.828125 9.789063-4.3125 3.894531 1.511719 5.824218 5.890625 4.3125 9.785156l-12.375 31.875c-1.371094-6.460937-9.019532-9.242187-14.222657-5.152344zm0 0" fill="#dad9dd"/><path d="m450.386719 104.828125c-6.109375-10.578125-19.632813-14.203125-30.210938-8.097656-10.578125 6.109375-14.199219 19.632812-8.09375 30.210937s19.632813 14.199219 30.207031 8.09375c10.578126-6.105468 14.203126-19.632812 8.097657-30.207031zm0 0" fill="#ff941f"/><path d="m278.800781 77.308594c-.226562.011718-.453125.035156-.6875.035156h-44.226562c-.234375 0-.460938-.019531-.6875-.035156-8.714844 6.792968-14.324219 17.382812-14.324219 29.289062 0 20.503906 16.621094 37.125 37.125 37.125s37.125-16.621094 37.125-37.125c0-11.90625-5.609375-22.496094-14.324219-29.289062zm0 0" fill="#ff941f"/><path d="m255.246094 77.34375h-21.359375c-.234375 0-.460938-.023438-.6875-.035156-8.714844 6.792968-14.324219 17.382812-14.324219 29.289062 0 20.503906 16.621094 37.125 37.125 37.125 10.34375 0 19.695312-4.234375 26.429688-11.058594-26.308594-3.53125-40.242188-32.734374-27.183594-55.320312zm0 0" fill="#ff7b22"/><path d="m256 21.011719c4.324219 0 8.351562 1.246093 11.761719 3.390625v-12.640625c0-6.496094-5.265625-11.761719-11.761719-11.761719s-11.761719 5.265625-11.761719 11.761719v12.640625c3.410157-2.144532 7.4375-3.390625 11.761719-3.390625zm0 0" fill="#ff941f"/><path d="m272.492188 55.839844c12.574218-14.066406 2.753906-36.84375-16.492188-36.84375s-29.066406 22.777344-16.492188 36.84375zm0 0" fill="#ffcb37"/><path d="m260.003906 19.363281c-1.300781-.238281-2.636718-.367187-4.003906-.367187-19.246094 0-29.0625 22.777344-16.492188 36.84375h21.03125c-12.839843-8.507813-13.28125-27.484375-.535156-36.476563zm0 0" fill="#fcac1f"/><path d="m278.113281 78.351562h-44.226562c-6.496094 0-11.761719-5.265624-11.761719-11.757812 0-6.496094 5.265625-11.761719 11.761719-11.761719h44.226562c6.496094 0 11.761719 5.265625 11.761719 11.761719 0 6.492188-5.265625 11.757812-11.761719 11.757812zm0 0" fill="#fcac1f"/><path d="m245.902344 66.59375c0-5.550781 3.679687-10.234375 8.730468-11.761719h-20.746093c-6.496094 0-11.761719 5.265625-11.761719 11.761719 0 6.492188 5.265625 11.757812 11.761719 11.757812h20.746093c-5.050781-1.527343-8.730468-6.210937-8.730468-11.757812zm0 0" fill="#ff941f"/><path d="m309.316406 394.925781c-1.304687-12.308593-11.6875-21.644531-24.058594-21.644531h-58.515624c-12.371094 0-22.753907 9.335938-24.058594 21.644531l-1.855469 17.429688h110.34375zm0 0" fill="#84260d"/><path d="m274.710938 373.28125h-47.96875c-12.371094 0-22.753907 9.335938-24.058594 21.644531l-1.855469 17.429688h47.96875l1.851563-17.429688c1.308593-12.308593 11.691406-21.644531 24.0625-21.644531zm0 0" fill="#751d0c"/><path d="m327.304688 410.875h-142.609376c-17.507812 0-31.832031 14.324219-31.832031 31.835938v2.6875h206.277344v-2.6875c-.003906-17.511719-14.328125-31.835938-31.835937-31.835938zm0 0" fill="#a0391e"/><path d="m249.445312 410.875h-64.75c-17.507812 0-31.832031 14.324219-31.832031 31.835938v2.6875h64.75v-2.6875c0-17.511719 14.324219-31.835938 31.832031-31.835938zm0 0" fill="#84260d"/><path d="m357.265625 443.917969c-20.851563 0-181.605469 0-202.53125 0-4.605469 0-8.78125 1.816406-11.878906 4.757812 33.402343 18.9375 72.007812 29.761719 113.144531 29.761719s79.742188-10.824219 113.144531-29.761719c-3.09375-2.941406-7.269531-4.757812-11.878906-4.757812zm0 0" fill="#bc4c2e"/><path d="m209.777344 459.75c0-6.480469 3.121094-12.214844 7.921875-15.832031-30.300781 0-55.511719 0-62.964844 0-4.605469 0-8.78125 1.816406-11.878906 4.757812 22.644531 12.839844 47.679687 21.941407 74.277343 26.480469-4.484374-3.636719-7.355468-9.183594-7.355468-15.40625zm0 0" fill="#a0391e"/><path d="m434.800781 122.039062-7.101562-12.300781c-6.792969 3.921875-14.53125-3.253906-11.261719-10.277343-7.601562 6.835937-9.664062 18.273437-4.34375 27.484374 5.304688 9.191407 16.214844 13.128907 25.925781 9.992188-7.707031-.757812-9.976562-10.992188-3.21875-14.898438zm0 0" fill="#ff7b22"/><g fill="#fcac1f"><path d="m435.027344 122.429688c3.636718-2.101563 4.832031-6.757813 2.773437-10.320313-1.722656-2.976563-5.351562-4.578125-8.988281-3.382813-4.363281 1.46875-6.574219 6.6875-4.113281 10.945313 2.0625 3.570313 6.660156 4.875 10.328125 2.757813zm0 0"/><path d="m142.523438 284.886719 12.609374-15.214844h-148.753906l12.609375 15.214844c15.625 18.855469 38.125 29.660156 61.769531 29.660156 23.640626 0 46.140626-10.804687 61.765626-29.660156zm0 0"/><path d="m142.523438 284.886719 12.609374-15.214844h-148.753906l12.609375 15.214844c15.625 18.855469 38.125 29.660156 61.769531 29.660156 23.640626 0 46.140626-10.804687 61.765626-29.660156zm0 0"/></g><path d="m18.988281 284.886719c12.289063 14.832031 28.835938 24.675781 46.84375 28.207031-16.722656-15.402344-5.730469-43.421875 16.941407-43.421875h-76.394532zm0 0" fill="#ff941f"/><path d="m12.980469 259.195312c4.179687 0 7.566406-3.382812 7.566406-7.5625v-13.789062c0-2.3125 1.878906-4.195312 4.195313-4.195312 2.3125 0 4.195312 1.882812 4.195312 4.195312v13.789062c0 4.179688 3.386719 7.5625 7.566406 7.5625 4.175782 0 7.5625-3.382812 7.5625-7.5625v-13.789062c0-10.65625-8.667968-19.324219-19.324218-19.324219s-19.324219 8.671875-19.324219 19.324219v13.789062c0 4.179688 3.386719 7.5625 7.5625 7.5625zm0 0" fill="#dad9dd"/><path d="m42.90625 231.3125c-2.6875-7.445312-9.804688-12.792969-18.164062-12.792969-10.65625 0-19.324219 8.667969-19.324219 19.324219v13.789062c0 4.179688 3.386719 7.5625 7.5625 7.5625s7.5625-3.382812 7.5625-7.5625v-13.789062c0-2.3125 1.882812-4.195312 4.199219-4.195312 1.417968 0 2.667968.710937 3.429687 1.792968 1.589844-6.714844 9.933594-8.992187 14.734375-4.128906zm0 0" fill="#ccccce"/><path d="m125.007812 259.195312c4.179688 0 7.5625-3.382812 7.5625-7.5625v-13.789062c0-2.3125 1.882813-4.195312 4.199219-4.195312 2.3125 0 4.195313 1.882812 4.195313 4.195312v13.789062c0 4.179688 3.386718 7.5625 7.5625 7.5625 4.179687 0 7.566406-3.382812 7.566406-7.5625v-13.789062c0-10.65625-8.667969-19.324219-19.324219-19.324219s-19.324219 8.671875-19.324219 19.324219v13.789062c0 4.179688 3.386719 7.5625 7.5625 7.5625zm0 0" fill="#dad9dd"/><path d="m154.933594 231.3125c-2.6875-7.445312-9.804688-12.792969-18.164063-12.792969-10.65625 0-19.324219 8.667969-19.324219 19.324219v13.789062c0 4.179688 3.386719 7.5625 7.5625 7.5625 4.175782 0 7.5625-3.382812 7.5625-7.5625v-13.789062c0-2.3125 1.882813-4.195312 4.199219-4.195312 1.417969 0 2.667969.710937 3.429688 1.792968 1.585937-6.714844 9.933593-8.992187 14.734375-4.128906zm0 0" fill="#ccccce"/><path d="m149.75 248.605469c-14.203125 0-123.734375 0-137.988281 0-6.496094 0-11.761719 5.265625-11.761719 11.761719 0 6.496093 5.265625 11.761718 11.761719 11.761718h137.988281c6.496094 0 11.761719-5.265625 11.761719-11.761718 0-6.496094-5.265625-11.761719-11.761719-11.761719zm0 0" fill="#ffcb37"/><path d="m60 260.367188c0-6.496094 5.265625-11.757813 11.761719-11.757813-27.726563 0-53.566407 0-60 0-6.496094 0-11.761719 5.261719-11.761719 11.757813 0 6.496093 5.265625 11.761718 11.761719 11.761718h60c-6.496094 0-11.761719-5.265625-11.761719-11.761718zm0 0" fill="#fcac1f"/><path d="m24.738281 237.941406c3.03125 0 5.890625-1.832031 7.054688-4.828125l42.835937-110.347656c1.511719-3.894531-.417968-8.277344-4.3125-9.785156-3.894531-1.515625-8.277344.417969-9.789062 4.3125l-42.835938 110.347656c-1.511718 3.894531.417969 8.277344 4.3125 9.785156.902344.351563 1.824219.515625 2.734375.515625zm0 0" fill="#ebeaec"/><path d="m136.769531 237.941406c.910157 0 1.835938-.164062 2.738281-.515625 3.890626-1.511719 5.824219-5.890625 4.3125-9.785156l-42.835937-110.347656c-1.511719-3.894531-5.894531-5.828125-9.789063-4.3125-3.894531 1.507812-5.824218 5.890625-4.3125 9.785156l42.835938 110.347656c1.164062 2.996094 4.023438 4.828125 7.050781 4.828125zm0 0" fill="#ebeaec"/><path d="m113.480469 149.488281-12.496094-32.195312c-1.511719-3.894531-5.894531-5.828125-9.789063-4.3125-3.894531 1.511719-5.824218 5.890625-4.3125 9.785156l12.375 31.875c1.375-6.460937 9.019532-9.242187 14.222657-5.152344zm0 0" fill="#dad9dd"/><path d="m48.03125 149.488281 12.496094-32.195312c1.511718-3.894531 5.894531-5.828125 9.789062-4.3125 3.894532 1.511719 5.824219 5.890625 4.3125 9.785156l-12.375 31.875c-1.371094-6.460937-9.023437-9.242187-14.222656-5.152344zm0 0" fill="#dad9dd"/><path d="m99.90625 104.824219c-6.105469-10.574219-19.632812-14.199219-30.210938-8.09375-10.574218 6.109375-14.199218 19.632812-8.09375 30.210937 6.109376 10.578125 19.632813 14.199219 30.210938 8.09375 10.578125-6.105468 14.199219-19.632812 8.09375-30.210937zm0 0" fill="#ff941f"/><path d="m84.3125 122.039062-7.101562-12.300781c-6.789063 3.921875-14.53125-3.253906-11.261719-10.277343-7.601563 6.835937-9.664063 18.273437-4.34375 27.484374 5.304687 9.191407 16.214843 13.128907 25.925781 9.992188-7.707031-.757812-9.976562-10.992188-3.21875-14.898438zm0 0" fill="#ff7b22"/><path d="m84.535156 122.429688c3.640625-2.101563 4.832032-6.757813 2.773438-10.320313-1.71875-2.976563-5.347656-4.578125-8.984375-3.382813-4.363281 1.46875-6.574219 6.6875-4.113281 10.945313 2.0625 3.570313 6.660156 4.875 10.324218 2.757813zm0 0" fill="#fcac1f"/></svg>