<svg height="511pt" viewBox="-12 0 511 511.99986" width="511pt" xmlns="http://www.w3.org/2000/svg"><path d="m487.769531 268.363281c0 134.558594-109.078125 243.636719-243.632812 243.636719-134.558594 0-243.636719-109.078125-243.636719-243.636719 0-134.554687 109.078125-243.632812 243.636719-243.632812 134.554687 0 243.632812 109.078125 243.632812 243.632812zm0 0" fill="#ffcb37"/><path d="m458.539062 277.460938c43.015626-96-.804687-209.632813-97.179687-251.796876-22.753906-9.957031-46.378906-15.097656-69.75-15.882812-11.816406-.394531-13.984375 16.671875-2.457031 19.296875 9.675781 2.199219 19.285156 5.339844 28.714844 9.46875 80.457031 35.21875 117.199218 129.910156 81.632812 210.214844-35.480469 80.113281-115.757812 97.128906-195.304688 62.914062-7.199218-3.097656-12.910156-6.371093-19.328124-10.605469-18.90625-12.484374-44.308594-7.675781-57.21875 10.941407l-27.714844 40.554687c8.726562-3.125 18.78125-2.136718 26.976562 3.546875 7.675782 5.324219 12.066406 13.613281 12.703125 22.253907l18.136719-26.742188c2.507812-3.617188 7.535156-4.390625 11.011719-1.691406 96.414062 74.855468 239.226562 40.355468 289.777343-72.472656zm0 0" fill="#ebeaec"/><path d="m299.335938 351.730469c0-11.324219 5.644531-21.324219 14.261718-27.367188-33.335937 8.289063-71.449218 3.632813-109.398437-12.6875-7.199219-3.097656-12.914063-6.371093-19.328125-10.609375-18.910156-12.480468-44.308594-7.671875-57.21875 10.945313l-27.714844 40.554687c8.726562-3.125 18.777344-2.140625 26.976562 3.546875 7.675782 5.320313 12.0625 13.609375 12.703126 22.253907l18.132812-26.742188c2.507812-3.617188 7.539062-4.390625 11.015625-1.691406 47.324219 36.746094 105.824219 47.121094 159.109375 34.839844-16.140625-2.355469-28.539062-16.25-28.539062-33.042969zm0 0" fill="#dad9dd"/><path d="m127.96875 354c-13.488281-9.355469-32.007812-6.003906-41.363281 7.488281l-37.074219 53.464844c12.210938 16.1875 26.398438 30.792969 42.195312 43.476563l43.730469-63.0625c9.355469-13.492188 6.003907-32.011719-7.488281-41.367188zm0 0" fill="#bc4c2e"/><path d="m69.339844 438.0625 38.390625-55.359375c7.277343-10.492187 19.488281-15.515625 31.339843-14.125-2-5.710937-5.75-10.867187-11.101562-14.578125-13.492188-9.355469-32.011719-6.003906-41.363281 7.488281l-37.078125 53.464844c6.125 8.117187 12.746094 15.832031 19.8125 23.109375zm0 0" fill="#a0391e"/><path d="m123.371094 423.335938c-2.074219 0-4.167969-.609376-6.003906-1.882813l-48.851563-33.878906c-4.789063-3.320313-5.980469-9.894531-2.660156-14.683594 3.324219-4.792969 9.898437-5.984375 14.6875-2.660156l48.851562 33.878906c4.792969 3.320313 5.980469 9.894531 2.660157 14.683594-2.050782 2.957031-5.339844 4.542969-8.683594 4.542969zm0 0" fill="#a0391e"/><path d="m94.339844 392.644531c2.480468-3.578125 6.433594-5.511719 10.480468-5.582031l-24.277343-16.832031c-4.789063-3.324219-11.363281-2.132813-14.6875 2.660156-3.320313 4.789063-2.128907 11.363281 2.660156 14.683594l24.269531 16.832031c-1.351562-3.808594-.925781-8.1875 1.554688-11.761719zm0 0" fill="#84260d"/><path d="m357.273438 473.5625c-63.789063-3.933594-123.214844-31.722656-167.324219-78.246094-44.3125-46.734375-68.875-107.957031-69.167969-172.390625-.417969-91.871093 49.207031-176.777343 129.511719-221.585937 5.089843-2.839844 11.519531-1.015625 14.359375 4.074218 2.839844 5.089844 1.015625 11.519532-4.074219 14.359376-73.59375 41.0625-119.074219 118.871093-118.691406 203.054687.171875 38 9.554687 74.773437 27.042969 107.578125.046874.074219.089843.152344.132812.230469.320312.550781 12.949219 22.058593 42.335938 43.828125 27.324218 20.242187 75.21875 44.898437 148.242187 47.421875 13.949219.480469 24.921875 11.785156 24.984375 25.730469.03125 7.144531-2.925781 14.058593-8.121094 18.964843-5.039062 4.761719-12.007812 7.425781-19.230468 6.980469zm0 0" fill="#55b160"/><path d="m268.234375 404.765625c-24.445313-9.003906-43.203125-20.203125-56.835937-30.300781-29.386719-21.769532-42.015626-43.277344-42.332032-43.828125-.042968-.078125-.089844-.152344-.132812-.230469-17.492188-32.804688-26.875-69.578125-27.046875-107.578125-.382813-84.183594 45.097656-161.992187 118.691406-203.054687 5.09375-2.839844 6.914063-9.269532 4.074219-14.359376-2.839844-5.089843-9.265625-6.914062-14.355469-4.074218-80.304687 44.808594-129.933594 129.714844-129.515625 221.585937.292969 64.433594 24.859375 125.65625 69.167969 172.390625 17.152343 18.089844 36.621093 33.328125 57.757812 45.453125-7.632812-15.753906 2.894531-34.535156 20.527344-36.003906zm0 0" fill="#49a552"/><path d="m160.601562 10.535156c-1.914062-.621094-3.992187-.003906-5.253906 1.5625-18.253906 22.601563-8.265625 56.472656 19.445313 65.472656 1.910156.621094 3.988281.003907 5.253906-1.5625 18.253906-22.601562 8.265625-56.472656-19.445313-65.472656zm0 0" fill="#69d173"/><path d="m246.558594 92.683594c.679687 1.890625.132812 3.988281-1.394532 5.300781-22.003906 18.964844-56.179687 10.066406-66.058593-17.34375-.679688-1.890625-.132813-3.988281 1.390625-5.300781 22.003906-18.964844 56.179687-10.066406 66.0625 17.34375zm0 0" fill="#7cdd83"/><path d="m221.550781 145.574219c1.300781 1.898437 1.296875 4.375-.007812 6.269531-18.867188 27.34375-59.25 27.375-78.101563-.097656-1.300781-1.894532-1.296875-4.375.007813-6.265625 18.867187-27.34375 59.25-27.371094 78.101562.09375zm0 0" fill="#7cdd83"/><path d="m144.535156 144.238281c-.816406 2.152344-2.855468 3.5625-5.15625 3.566407-33.222656.0625-56.242187-33.117188-44.398437-64.253907.820312-2.152343 2.859375-3.5625 5.160156-3.566406 33.21875-.0625 56.238281 33.117187 44.394531 64.253906zm0 0" fill="#69d173"/><path d="m211.847656 204.984375c1.964844 1.511719 2.78125 4.058594 2.070313 6.4375-10.300781 34.328125-51.75 47.75-80.214844 25.800781-1.964844-1.515625-2.78125-4.0625-2.070313-6.4375 10.300782-34.332031 51.75-47.75 80.214844-25.800781zm0 0" fill="#7cdd83"/><path d="m131.289062 231.265625c-.125 2.480469-1.753906 4.601563-4.113281 5.371094-34.085937 11.082031-68.722656-15.347657-66.886719-51.246094.125-2.476563 1.75-4.601563 4.113282-5.367187 34.082031-11.082032 68.71875 15.347656 66.886718 51.242187zm0 0" fill="#69d173"/><path d="m225.023438 268.847656c2.425781.96875 3.992187 3.308594 3.957031 5.921875-.507813 37.738281-38.597657 63.308594-73.765625 49.3125-2.425782-.964843-3.992188-3.308593-3.957032-5.921875.507813-37.738281 38.597657-63.308594 73.765626-49.3125zm0 0" fill="#7cdd83"/><path d="m185.863281 268.570312c-20.953125 8.023438-34.3125 27.753907-34.605469 49.589844-.035156 2.613282 1.53125 4.957032 3.957032 5.921875 18.714844 7.449219 40.007812 3.957031 55.394531-9.476562-24.953125 6.800781-45.75-27.316407-24.746094-46.035157zm0 0" fill="#69d173"/><path d="m151.050781 318.75c.585938 2.546875-.445312 5.164062-2.613281 6.625-31.308594 21.070312-74.023438 4.328125-82.542969-32.554688-.589843-2.542968.445313-5.164062 2.613281-6.621093 31.308594-21.078125 74.019532-4.328125 82.542969 32.550781zm0 0" fill="#69d173"/><path d="m267.703125 305.140625c2.945313-.484375 5.859375.882813 7.363281 3.460937 21.738282 37.222657-.460937 84.691407-43.128906 91.71875-2.945312.484376-5.855469-.886718-7.359375-3.460937-21.738281-37.230469.46875-84.695313 43.125-91.71875zm0 0" fill="#7cdd83"/><path d="m231.660156 325.007812c-17.917968 20.199219-20.359375 49.113282-7.082031 71.851563 1.503906 2.574219 4.414063 3.945313 7.359375 3.460937 21.285156-3.503906 39.886719-17.988281 47.800781-39.527343-21.71875 18.761719-61.410156-4.289063-48.078125-35.785157zm0 0" fill="#69d173"/><path d="m216.449219 401.777344c2.210937 2.003906 2.949219 5.136718 1.867187 7.917968-15.625 40.179688-66.605468 52.316407-98.636718 23.285157-2.214844-2.003907-2.953126-5.136719-1.871094-7.917969 15.625-40.179688 66.605468-52.316406 98.640625-23.285156zm0 0" fill="#69d173"/><path d="m178.492188 194.367188c-21.972657.910156-40.613282 15.597656-46.859376 36.417968-.710937 2.375.105469 4.921875 2.070313 6.4375 15.253906 11.765625 36.199219 14.3125 54.355469 5.128906-24.964844-2.4375-31.839844-36.023437-9.566406-47.984374zm0 0" fill="#69d173"/><path d="m172.773438 149.082031c0-11.773437 8.800781-21.480469 20.183593-22.925781-19.273437-4.363281-38.640625 3.574219-49.507812 19.324219-1.304688 1.890625-1.308594 4.371093-.007813 6.265625 10.445313 15.21875 28.753906 23.148437 47.34375 19.875-10.308594-2.324219-18.011718-11.53125-18.011718-22.539063zm0 0" fill="#69d173"/><path d="m221.886719 67.832031c-14.691407-5.394531-30.320313-2.035156-41.390625 7.507813-1.519532 1.3125-2.070313 3.410156-1.390625 5.300781 5.265625 14.613281 18.421875 25.566406 34.933593 27.207031-17.382812-10.4375-12.136718-36.972656 7.847657-40.015625zm0 0" fill="#69d173"/><g fill="#55b160"><path d="m178.050781 385.867188c-25.863281-1.226563-50.4375 13.984374-60.242187 39.195312-1.082032 2.78125-.34375 5.910156 1.871094 7.914062 18.324218 16.609376 44.527343 20.601563 66.882812 10.410157-29.875-4.011719-36.113281-44.894531-8.511719-57.519531zm0 0"/><path d="m125.539062 284.238281c-18.289062-10.550781-40.25-9.335937-57.03125 1.957031-2.167968 1.460938-3.203124 4.082032-2.613281 6.625 4.847657 20.984376 21.679688 37.28125 43.453125 40.992188-15.136718-17.160156-6.445312-44.613281 16.191406-49.574219zm0 0"/><path d="m119.433594 195.816406c-13.691406-16.335937-35.464844-22.15625-55.03125-15.792968-2.363282.769531-3.988282 2.890624-4.113282 5.371093-1.097656 21.453125 11.195313 41.074219 30.699219 49.546875-13.597656-19.675781 5.148438-46.078125 28.445313-39.125zm0 0"/><path d="m143.128906 107.195312c-8.058594-17.078124-24.929687-27.242187-42.992187-27.210937-2.296875.003906-4.335938 1.414063-5.15625 3.566406-6.722657 17.667969-2.371094 37.496094 11.101562 50.722657-3.578125-21.152344 18.601563-36.632813 37.046875-27.078126zm0 0"/><path d="m188.378906 41.457031c-3.179687-15.097656-14.066406-26.46875-27.777344-30.921875-1.914062-.621094-3.992187-.003906-5.253906 1.5625-9.945312 12.308594-12.257812 29.425782-4.984375 44.296875 3.089844-17.613281 23.820313-25.6875 38.015625-14.9375zm0 0"/></g></svg>