<svg height="512pt" viewBox="-15 0 512 512.00163" width="512pt" xmlns="http://www.w3.org/2000/svg"><path d="m481.476562 271.253906c0 132.957032-107.78125 240.738282-240.738281 240.738282s-240.738281-107.78125-240.738281-240.738282c0-132.953125 107.78125-240.738281 240.738281-240.738281s240.738281 107.785156 240.738281 240.738281zm0 0" fill="#5e73dd"/><path d="m344.699219 230.125c-25.5625-34.023438-8.535157-79.769531-8.535157-79.769531 0-16.847657-42.722656-30.507813-95.425781-30.507813s-95.425781 13.660156-95.425781 30.507813c0 0 17.027344 45.746093-8.535156 79.769531-15.257813 20.304688 1.445312 40.054688-.953125 58.792969-.761719 5.964843 3.910156 11.230469 9.925781 11.230469h189.976562c6.015626 0 10.6875-5.265626 9.925782-11.230469-2.398438-18.738281 14.304687-38.492188-.953125-58.792969zm0 0" fill="#84260d"/><path d="m192.160156 124.09375c-28.042968 5.3125-46.847656 15.085938-46.847656 26.261719 0 0 17.027344 45.746093-8.535156 79.769531-15.257813 20.304688 1.445312 40.054688-.953125 58.789062-.761719 5.96875 3.910156 11.234376 9.925781 11.234376h46.40625v-176.054688zm0 0" fill="#751c0b"/><path d="m435.898438 412.207031c-.777344-3-1.136719-6.113281-1.136719-9.253906 0-69.160156-28.449219-88.199219-42.804688-99.667969-17.945312-14.335937-60.316406-20.730468-78.421875-18.78125h-145.59375c-18.105468-1.945312-60.476562 4.445313-78.421875 18.78125-14.355469 11.472656-42.804687 30.507813-42.804687 99.667969 0 3.136719-.363282 6.253906-1.136719 9.253906 43.734375 60.449219 114.847656 99.785157 195.160156 99.785157s151.425781-39.335938 195.160157-99.785157zm0 0" fill="#f7c696"/><path d="m167.941406 284.503906c-18.105468-1.945312-60.476562 4.445313-78.421875 18.78125-14.355469 11.472656-42.804687 30.507813-42.804687 99.667969 0 3.136719-.363282 6.253906-1.136719 9.253906 11.628906 16.078125 25.195313 30.65625 40.355469 43.402344l1.722656-51.394531c1.566406-70.859375 31.457031-90.925782 46.746094-103.136719 9.472656-7.566406 25.171875-13.101563 41.109375-16.574219zm0 0" fill="#f2ba88"/><path d="m363.890625 430.085938c-4.089844.511718-6.992187 4.25-6.476563 8.339843.039063.285157 2.515626 20.691407-.46875 43.695313 5.449219-3.011719 10.769532-6.226563 15.953126-9.636719 1.320312-19.535156-.535157-34.871094-.664063-35.925781-.515625-4.089844-4.25-6.980469-8.34375-6.472656zm0 0" fill="#e5a876"/><path d="m117.585938 430.085938c-4.09375-.507813-7.824219 2.382812-8.34375 6.472656-.128907 1.054687-1.984376 16.390625-.660157 35.925781 5.183594 3.410156 10.507813 6.632813 15.960938 9.644531-2.960938-22.890625-.535157-43.257812-.480469-43.703125.515625-4.089843-2.386719-7.828125-6.476562-8.339843zm0 0" fill="#e5a876"/><path d="m162.5 164.9375c1.3125 0 2.605469.105469 3.863281.304688l.046875-.71875c33.476563-13.707032 19.929688-42.039063 42.097656-39.390626 16.980469 2.027344 26.859376-5.753906 30.9375-10.074218 1.207032-1.277344 3.222657-1.277344 4.425782 0 4.082031 4.320312 13.960937 12.101562 30.941406 10.074218 22.167969-2.648437 8.621094 25.683594 42.097656 39.394532l.046875.714844c1.257813-.195313 2.546875-.300782 3.863281-.300782 6.226563 0 11.910157 2.296875 16.265626 6.085938v-60.226563c-7.457032-38.324219-22.746094-20.164062-43.65625-49.035156-20.90625-28.875-51.769532-14.1875-51.769532-14.1875s-30.863281-14.6875-51.773437 14.1875c-20.90625 28.871094-36.199219 10.710937-43.652344 49.035156v60.222657c4.355469-3.785157 10.039063-6.085938 16.265625-6.085938zm0 0" fill="#a0391e"/><path d="m191.734375 136.289062v-35.488281c7.453125-38.324219 22.746094-20.164062 43.65625-49.035156 1.34375-1.859375 2.734375-3.535156 4.148437-5.046875-7.316406-2.675781-32.023437-9.300781-49.648437 15.046875-20.910156 28.871094-36.203125 10.710937-43.65625 49.035156v60.222657c4.355469-3.785157 10.039063-6.085938 16.265625-6.085938 1.3125 0 2.605469.105469 3.863281.304688l.050781-.71875c16.789063-6.878907 21.75-17.433594 25.320313-25.914063zm0 0" fill="#84260d"/><path d="m320.503906 159.292969c-1.332031 0-2.640625.105469-3.914062.304687l1.539062 23.738282c.5625 8.679687-.335937 17.359374-2.621094 25.695312 1.617188.324219 3.285157.5 4.996094.5 13.871094 0 25.117188-11.246094 25.117188-25.121094 0-13.871094-11.246094-25.117187-25.117188-25.117187zm0 0" fill="#f7c696"/><path d="m165.230469 183.355469 1.539062-23.742188c-1.277343-.199219-2.585937-.304687-3.921875-.304687-13.886718 0-25.148437 11.257812-25.148437 25.148437s11.261719 25.148438 25.148437 25.148438c1.707032 0 3.375-.171875 4.988282-.496094-2.289063-8.351563-3.167969-17.054687-2.605469-25.753906zm0 0" fill="#f7c696"/><path d="m320.503906 188.054688c-.753906 0-1.496094-.039063-2.230468-.105469.039062 7.132812-.886719 14.226562-2.765626 21.082031 1.617188.328125 3.285157.5 4.996094.5 13.875 0 25.121094-11.246094 25.121094-25.117188 0-3.84375-.867188-7.484374-2.410156-10.738281-4.027344 8.5-12.679688 14.378907-22.710938 14.378907zm0 0" fill="#f2ba88"/><path d="m165.082031 188.027344c-.738281.066406-1.480469.105468-2.234375.105468-10.046875 0-18.714844-5.894531-22.742187-14.414062-1.542969 3.257812-2.40625 6.894531-2.40625 10.738281 0 13.890625 11.257812 25.148438 25.148437 25.148438 1.707032 0 3.375-.171875 4.988282-.496094-1.878907-6.855469-2.792969-13.949219-2.753907-21.082031zm0 0" fill="#f2ba88"/><path d="m316.910156 159.546875c-33.472656-13.710937-19.925781-42.042969-42.097656-39.394531-16.980469 2.027344-26.859375-5.75-30.9375-10.070313-1.207031-1.277343-3.21875-1.277343-4.425781 0-4.082031 4.320313-13.960938 12.097657-30.941407 10.070313-22.167968-2.648438-8.621093 25.683594-42.097656 39.394531l-1.5625 24.128906c-.8125 12.523438 1.414063 25.066407 6.558594 36.511719 4.585938 10.207031 10.277344 24.34375 14.5 39.730469 3.386719 12.355469 11.207031 23.03125 22.066406 29.828125l14.382813 9c11.808593 7.386718 26.800781 7.386718 38.609375 0l14.375-8.996094c10.867187-6.796875 18.6875-17.476562 22.078125-29.839844 4.199219-15.300781 9.851562-29.371094 14.425781-39.5625 5.164062-11.496094 7.445312-24.074218 6.632812-36.648437zm0 0" fill="#fcd2a4"/><path d="m248.382812 298.742188-14.382812-8.996094c-10.863281-6.796875-18.679688-17.472656-22.070312-29.832032-4.21875-15.382812-9.910157-29.523437-14.5-39.726562-5.144532-11.445312-7.367188-23.988281-6.558594-36.511719l1.285156-51.054687c-3.617188 8.636718-8.277344 19.769531-25.746094 26.925781l-1.5625 24.128906c-.8125 12.523438 1.410156 25.066407 6.554688 36.511719 4.589844 10.207031 10.28125 24.34375 14.5 39.730469 3.390625 12.355469 11.207031 23.03125 22.070312 29.828125l14.378906 9c9.796876 6.128906 21.777344 7.15625 32.320313 3.117187-2.164063-.832031-4.277344-1.859375-6.289063-3.121093zm0 0" fill="#f7c696"/><path d="m258.585938 191.660156c-3.808594-1.582031-5.613282-5.949218-4.035157-9.761718 3.351563-8.074219 12.03125-12.828126 20.644531-11.292969l7.808594 1.390625c4.058594.722656 6.761719 4.601562 6.039063 8.660156-.722657 4.0625-4.601563 6.765625-8.660157 6.042969l-7.804687-1.390625c-1.792969-.324219-3.535156.632812-4.234375 2.316406-1.585938 3.816406-5.957031 5.609375-9.757812 4.035156zm0 0" fill="#84260d"/><path d="m214.976562 187.625c-.699218-1.683594-2.441406-2.628906-4.230468-2.316406l-7.804688 1.390625c-4.058594.726562-7.9375-1.980469-8.664062-6.042969-.722656-4.058594 1.980468-7.9375 6.042968-8.660156l7.804688-1.390625c8.605469-1.535157 17.292969 3.21875 20.644531 11.292969 1.582031 3.8125-.226562 8.179687-4.035156 9.761718-3.824219 1.585938-8.183594-.246094-9.757813-4.035156zm0 0" fill="#84260d"/><path d="m377.382812 419.214844c-3.398437-2.332032-8.046874-1.46875-10.382812 1.925781l-8.328125 12.121094c-16.023437 23.316406-36.777344 28.632812-45.007813 33.539062-7.960937 3.902344-17.121093 3.949219-25.125.140625l-23.863281-11.363281c-10.003906-4.765625-16.46875-15.003906-16.46875-26.085937 0-15.488282 0-54.054688 0-68.90625 0-4.125-3.34375-7.46875-7.46875-7.46875s-7.464843 3.34375-7.464843 7.46875v68.90625c0 11.082031-6.464844 21.320312-16.472657 26.085937l-23.859375 11.363281c-8.007812 3.8125-17.164062 3.761719-25.128906-.140625-8.46875-5.050781-29.085938-10.378906-45.003906-33.535156l-8.332032-12.125c-2.335937-3.398437-6.984374-4.261719-10.382812-1.925781-3.398438 2.335937-4.257812 6.988281-1.921875 10.382812l8.328125 12.125c18.578125 27.027344 42.617188 33.589844 50.746094 38.492188 12.074218 5.910156 25.960937 5.996094 38.113281.210937 17.933594-9.730469 31.191406-11.339843 41.378906-26.539062 10.179688 15.183593 23.148438 16.648437 41.382813 26.539062 12.132812 5.773438 26.023437 5.707031 38.109375-.210937 8.109375-4.890625 32.152343-11.429688 50.75-38.492188l8.328125-12.125c2.335937-3.394531 1.472656-8.046875-1.925782-10.382812zm0 0" fill="#e5a876"/><path d="m241.199219 93.542969c8.90625 0 17.527343.390625 25.707031 1.117187l-22.9375-92.492187c-.316406-1.273438-1.457031-2.167969-2.769531-2.167969s-2.453125.894531-2.769531 2.167969l-22.9375 92.492187c8.179687-.726562 16.800781-1.117187 25.707031-1.117187zm0 0" fill="#ffcb37"/><path d="m241.199219 0c-1.3125 0-2.453125.894531-2.769531 2.167969l-22.9375 92.492187c8.183593-.726562 16.800781-1.117187 25.707031-1.117187zm0 0" fill="#fcac1f"/><path d="m158.660156 74.894531v-.003906c-5.183594-18.136719-.632812-21.164063 3.726563-20.75 1.316406.125 2.035156-1.507813 1.09375-2.4375l-15.953125-15.773437c-.359375-1.257813-2.214844-1-2.214844.308593v87.960938c0-7.402344 8.207031-14.191407 21.867188-19.488281zm0 0" fill="#fcac1f"/><path d="m323.738281 74.894531v-.003906c5.183594-18.136719.632813-21.164063-3.726562-20.75-1.3125.121094-2.035157-1.507813-1.09375-2.4375l15.953125-15.773437c.359375-1.261719 2.214844-1 2.214844.308593v87.960938c0-7.402344-8.207032-14.191407-21.867188-19.488281zm0 0" fill="#ffcb37"/><path d="m241.199219 93.542969c-52.957031 0-95.886719 13.726562-95.886719 30.65625v26.519531c0-16.929688 42.929688-30.65625 95.886719-30.65625s95.886719 13.726562 95.886719 30.65625v-26.519531c0-16.929688-42.929688-30.65625-95.886719-30.65625zm0 0" fill="#fcac1f"/><path d="m315.890625 209.070312c-8.917969 0-16.269531 6.925782-16.863281 15.824219-.925782 13.863281-3.855469 33.144531-12.777344 42.066407-10.476562 10.480468-24.828125 3.320312-32.273438-1.714844-3.632812-2.457032-7.914062-3.761719-12.300781-3.761719h-.023437c-4.390625 0-8.675782 1.304687-12.3125 3.765625-7.449219 5.035156-21.792969 12.1875-32.269532 1.710938-8.921874-8.921876-11.851562-28.207032-12.777343-42.070313-.59375-8.894531-7.945313-15.820313-16.863281-15.820313 0 0-9.378907 26.527344 0 46.441407 8.570312 18.191406-19.132813 59.808593 51.449218 103.613281 13.960938 8.664062 31.601563 8.664062 45.5625 0 70.582032-43.804688 42.878906-85.421875 51.449219-103.613281 9.378906-19.910157 0-46.441407 0-46.441407zm0 0" fill="#a0391e"/><path d="m218 304.300781c-16.582031-16.585937 0-33.320312 0-33.320312-6.796875 2.207031-14.570312 2.339843-20.925781-4.011719-8.921875-8.921875-11.851563-28.210938-12.777344-42.074219-.59375-8.898437-7.945313-15.824219-16.863281-15.824219 0 0-9.382813 26.53125 0 46.445313 8.570312 18.195313-19.136719 59.820313 51.457031 103.628906 9.179687 5.695313 19.949219 7.621094 30.222656 5.828125-29.050781-19.847656-14.53125-44.09375-31.113281-60.671875zm0 0" fill="#84260d"/><path d="m262.195312 245.085938c-.046874 0-4.824218-.101563-8.910156-2.402344-2.011718-1.128906-4.433594-1.269532-6.5625-.371094l-5.0625 2.136719-5.0625-2.136719c-2.128906-.894531-4.550781-.757812-6.5625.371094-4.042968 2.277344-8.765625 2.398437-8.953125 2.402344-4.105469.023437-7.425781 3.359374-7.425781 7.46875 0 4.125 3.34375 7.464843 7.46875 7.464843.738281 0 6.488281-.085937 12.753906-2.644531l4.878906 2.058594c1.867188.785156 3.933594.789062 5.804688 0l4.875-2.058594c6.265625 2.558594 12.015625 2.644531 12.753906 2.644531 4.125 0 7.46875-3.339843 7.46875-7.464843s-3.339844-7.46875-7.464844-7.46875zm0 0" fill="#f2ba88"/><path d="m241.660156 225.042969v5.792969c0 6.933593 4.824219 14.929687 11.597656 16.425781l3.660157.808593c15.117187 3.335938 27.558593 14.023438 33.140625 28.464844 1.65625 4.28125 8.023437 3.011719 7.910156-1.578125l-.3125-14.710937c-.378906-15.457032-11.207031-32.664063-26.289062-36.085938l-20.488282-6.019531c-4.605468-1.351563-9.21875 2.101563-9.21875 6.902344zm0 0" fill="#a0391e"/><path d="m241.660156 225.042969v5.792969c0 6.933593-4.820312 14.929687-11.597656 16.425781l-3.660156.808593c-15.117188 3.335938-27.558594 14.023438-33.140625 28.464844-1.65625 4.28125-8.023438 3.011719-7.910157-1.578125l.3125-14.710937c.378907-15.457032 11.210938-32.664063 26.289063-36.085938l20.488281-6.019531c4.605469-1.351563 9.21875 2.101563 9.21875 6.902344zm0 0" fill="#84260d"/><path d="m197.601562 239.402344c0-4.132813 1.65625-7.875 4.335938-10.617188-9.648438 6.945313-15.984375 19.707032-16.273438 31.460938l-.3125 14.714844c-.113281 4.585937 6.253907 5.855468 7.910157 1.574218 3.542969-9.164062 9.855469-16.808594 17.855469-22.03125-7.597657-.839844-13.515626-7.277344-13.515626-15.101562zm0 0" fill="#751c0b"/><path d="m266.597656 243.730469c0-7.503907 6.078125-13.582031 13.582032-13.582031 1.222656 0 2.40625.175781 3.535156.480468-3.613282-3.128906-7.785156-5.433594-12.347656-6.46875l-20.488282-6.015625c-4.605468-1.355469-9.21875 2.097657-9.21875 6.898438v5.792969c0 6.933593 4.824219 14.929687 11.597656 16.425781l3.660157.808593c5.097656 1.125 9.875 3.101563 14.203125 5.761719-2.769532-2.488281-4.523438-6.085937-4.523438-10.101562zm0 0" fill="#84260d"/><path d="m260.449219 212.613281-7.65625-1.375c-1.738281-.3125-3.535157.003907-5.066407.890625l-6.066406 3.519532-6.066406-3.519532c-1.527344-.886718-3.324219-1.199218-5.066406-.890625l-7.652344 1.375c-4.058594.726563-6.757812 4.609375-6.03125 8.667969s4.609375 6.757812 8.667969 6.03125l4.960937-.890625 7.441406 4.316406c.007813.003907.015626.007813.023438.011719 2.210938 1.265625 5.011719 1.390625 7.441406 0 .011719-.003906.019532-.007812.027344-.011719l7.445312-4.316406 4.957032.890625c4.054687.730469 7.941406-1.972656 8.667968-6.03125.730469-4.058594-1.96875-7.941406-6.027343-8.667969zm0 0" fill="#f2ba88"/><g fill="#ff941f"><path d="m232.949219 106.667969c0-5.8125 3.429687-10.8125 8.367187-13.125-.039062 0-.078125 0-.117187 0-52.957031 0-95.886719 13.726562-95.886719 30.65625v26.519531c0-16.929688 42.929688-30.65625 95.886719-30.65625.234375 0 .46875.003906.703125.003906-5.253906-2.179687-8.953125-7.355468-8.953125-13.398437zm0 0"/><path d="m331.0625 90.417969c-4.648438 0-8.535156-3.199219-9.613281-7.515625l-6.230469 21.808594c13.660156 5.296874 21.867188 12.085937 21.867188 19.488281v-35.832031c-1.671876 1.285156-3.753907 2.050781-6.023438 2.050781zm0 0"/><path d="m151.335938 90.417969c4.648437 0 8.539062-3.199219 9.613281-7.515625l6.230469 21.808594c-13.660157 5.296874-21.867188 12.085937-21.867188 19.488281v-35.832031c1.671875 1.285156 3.753906 2.050781 6.023438 2.050781zm0 0"/></g><path d="m275.367188 477.210938c-11.976563-6.671876-24.777344-8.628907-34.628907-23.324219-10.179687 15.183593-23.148437 16.648437-41.378906 26.539062-12.136719 5.777344-26.023437 5.710938-38.113281-.207031-9.5-5.179688-23.148438-9.328125-38.164063-23.714844-.058593 7.328125.25 16.265625 1.460938 25.625 47.460937 26.214844 100.910156 34.785156 151.78125 27.246094-10.511719-8.015625-10.960938-23.558594-.957031-32.164062zm0 0" fill="#f2ba88"/></svg>