<svg height="511pt" viewBox="0 -10 511.99989 511" width="511pt" xmlns="http://www.w3.org/2000/svg"><path d="m512 245.589844c0 135.359375-109.730469 245.09375-245.089844 245.09375s-245.09375-109.734375-245.09375-245.09375 109.734375-245.089844 245.09375-245.089844 245.089844 109.730469 245.089844 245.089844zm0 0" fill="#ff5252"/><path d="m124.050781 184.570312 3.304688-36.707031c.035156-.375.109375-.742187.199219-1.101562l-122.679688 2.894531c-5.859375.140625-6.726562 8.511719-1.019531 9.847656l120.015625 28.09375c.035156-1.007812.089844-2.015625.179687-3.027344zm0 0" fill="#603256"/><path d="m124.050781 184.570312 3.304688-36.707031c.035156-.375.109375-.742187.199219-1.101562l-122.679688 2.894531c-5.859375.140625-6.726562 8.511719-1.019531 9.847656l120.015625 28.09375c.035156-1.007812.089844-2.015625.179687-3.027344zm0 0" fill="#603256"/><path d="m83.382812 147.804688c12.621094 7.089843 10.007813 25.949218-3.996093 29.382812l44.484375 10.410156c.035156-1.003906.089844-2.015625.179687-3.027344l3.304688-36.707031c.035156-.375.109375-.742187.199219-1.101562zm0 0" fill="#4f2649"/><path d="m263.816406 490.644531c1.03125.011719 2.058594.039063 3.09375.039063 5.703125 0 11.355469-.210938 16.960938-.597656l-.183594-27.46875c-.039062-.75.164062-6.003907-1.25-12.414063l-10.355469-31.703125c-5.839843-26.425781-14.875-36.222656-23.011719-53.703125 4.847657 22.417969 12.734376 33.410156 13.449219 62l4.09375 33.097656c.09375 3.832031-.226562 7.675781-.960937 11.441407zm0 0" fill="#ccccce"/><path d="m512 245.589844c0-14.699219-1.296875-29.097656-3.777344-43.085938-16.15625 1.988282-29.464844 6.960938-42.414062 11.8125-30.621094 11.480469-57.066406 21.390625-110.609375-11.859375-11.714844-7.277343-21.789063-17.476562-29.136719-29.496093-18.15625-29.710938-68.953125-95.472657-148.386719-64.546876-4.90625 2.941407-11.078125 2.6875-15.726562-.652343-17.152344-12.3125-37.207031-12.820313-51.121094-11.039063-6.234375.800782-8.800781 7.800782-4.929687 12.277344l19.320312 22.351562c2.132812 2.464844 1.996094 6.160157-.308594 8.464844-2.316406 2.679688-5.300781 4.128906-5.660156 8.105469l-3.269531 36.335937c-1.277344 14.171876 3.027343 28.003907 12.121093 38.941407 9.40625 11.328125 21.265626 26.328125 24.335938 33.488281 2.898438 6.769531 2.628906 12.835938 1.890625 16.734375-.722656 3.828125 1.699219 7.574219 5.515625 8.527344l27.414062 6.855469c3 .746093 6.1875-.460938 7.9375-3.007813l10.570313-15.40625c2.972656-4.339844 3.3125-9.96875.886719-14.414063-2.671875-4.898437-4.28125-10.300781-4.28125-15.878906v-34.242187c0-.777344.046875-1.53125.140625-2.261719 1.703125-13.546875 19.367187-18.015625 27.503906-7.050781.050781.074219.105469.144531.160156.21875 5.585938 7.609375 12.242188 20.996093 12.242188 41.578125 0 10.15625-2 20.347656-4.117188 31.136718-5.699219 29.035157-12.15625 61.945313 16.074219 110.597657 7.011719 12.078125 12.0625 24.988281 15.03125 38.425781l10.351562 31.703125c.824219 3.742187 1.246094 7.578125 1.246094 11.417969l.191406 28.636718c12.332032-.707031 24.421876-2.324218 36.203126-4.792968l.175781-26.992188c0-5.402344 1.503906-8.863281 1.964843-10.804687l17.414063-60.578125c1.121094-4.039063 5.628906-6.527344 9.96875-4.550782 17.574219 8.015626 61.117187 22.917969 117.910156 7.605469 29.648438-40.527343 47.167969-90.492187 47.167969-144.554687zm0 0" fill="#ebeaec"/><path d="m202.511719 203.59375c1.3125-10.429688 12.078125-15.46875 20.679687-12.238281-8.582031-8.878907-13.871094-20.960938-13.871094-34.289063 0-26.167968 20.367188-47.566406 46.113282-49.238281-.046875-.0625-.085938-.128906-.132813-.1875-21.636719-8.785156-47.578125-10.925781-77.625.773437-4.902343 2.941407-11.078125 2.6875-15.726562-.652343-17.148438-12.316407-37.203125-12.820313-51.117188-11.039063-6.238281.796875-8.800781 7.800782-4.933593 12.277344l19.320312 22.347656c2.132812 2.46875 2 6.164063-.304688 8.46875-2.316406 2.679688-5.304687 4.125-5.660156 8.105469l-3.269531 36.335937c-1.277344 14.171876 3.027344 28 12.117187 38.941407 9.410157 11.324219 21.265626 26.328125 24.335938 33.488281 2.902344 6.769531 2.632812 12.835938 1.894531 16.734375-.726562 3.824219 1.699219 7.574219 5.515625 8.527344l27.410156 6.851562c3 .75 6.191407-.457031 7.9375-3.007812l10.570313-15.40625c2.976563-4.335938 3.3125-9.964844.886719-14.414063-2.671875-4.894531-4.28125-10.300781-4.28125-15.878906v-34.242188c0-.773437.046875-1.527343.140625-2.257812zm0 0" fill="#dad9dd"/><path d="m143.617188 214.664062c-4.21875-2.699218-5.445313-8.308593-2.742188-12.523437l6.835938-10.667969c2.703124-4.214844 8.3125-5.441406 12.527343-2.742187 4.21875 2.703125 5.445313 8.3125 2.742188 12.527343l-6.835938 10.667969c-2.695312 4.199219-8.296875 5.449219-12.527343 2.738281zm0 0" fill="#603256"/><path d="m161.949219 107.761719c4.648437 3.339843 10.820312 3.59375 15.726562.652343 79.4375-30.925781 130.230469 34.835938 148.386719 64.542969 7.347656 12.023438 17.421875 22.222657 29.136719 29.496094 1.359375.84375 2.683593 1.640625 4.007812 2.429687-3.242187-45.730468-19.957031-105.839843-81.386719-131.863281-74.441406-31.539062-138.578124 24.722657-138.578124 24.722657 7.632812 1.703124 15.429687 4.796874 22.707031 10.019531zm0 0" fill="#ffcb37"/><path d="m255.300781 107.640625c-10.210937-13.394531-4.636719-32.804687 11-38.835937-69.417969-21.609376-127.058593 28.9375-127.058593 28.9375 7.632812 1.703124 15.429687 4.796874 22.707031 10.023437 4.648437 3.335937 10.820312 3.589844 15.726562.648437 30.042969-11.695312 55.988281-9.554687 77.625-.773437zm0 0" fill="#fcac1f"/><path d="m322.800781 436.328125c-12.265625 15.128906-35.28125 15.136719-47.5625.035156l4.519531 13.839844c.824219 3.742187 1.242188 7.578125 1.242188 11.417969l.195312 28.636718c12.332032-.707031 24.421876-2.324218 36.199219-4.792968l.179688-26.992188c0-5.402344 1.503906-8.863281 1.964843-10.804687zm0 0" fill="#dad9dd"/></svg>