<svg height="512pt" viewBox="-11 0 512 512.00038" width="512pt" xmlns="http://www.w3.org/2000/svg"><path d="m462.925781 379.054688c17.300781-33.582032 27.074219-71.675782 27.074219-112.054688 0-135.3125-109.6875-245-245-245-135.308594 0-245 109.6875-245 245 0 34.636719 7.203125 67.589844 20.171875 97.460938zm0 0" fill="#162680"/><path d="m463.429688 378.070312c-16.234376-62.699218-59.128907-115.308593-116.582032-144.066406-8.1875-4.097656-15.035156-10.570312-19.050781-18.800781-.257813-.527344-.523437-1.046875-.800781-1.5625-4.398438-8.230469-13.039063-13.167969-22.371094-13.394531-7.609375-.183594-14.195312-2.25-19.789062-5.261719-7.988282-4.296875-17.664063-4.335937-25.375.441406-2.402344 1.484375-4.664063 3.175781-6.757813 5.054688-6.789063 6.082031-15.261719 9.949219-24.34375 10.683593-8.550781.695313-16.976563 1.882813-25.25 3.527344-5.820313 1.15625-11.859375.78125-17.507813-1.046875-13.996093-4.539062-20.917968-12.019531-20.917968-12.023437-2.765625-4.863282-22.667969 1.226562-44.457032 13.605468-21.792968 12.378907-37.214843 26.359376-34.453124 31.222657 1.515624 4.445312 2.304687 8.894531 2.625 13.105469.714843 9.429687-2.460938 18.785156-8.761719 25.839843-4.535157 5.082031-8.847657 10.371094-12.910157 15.863281-4.589843 6.207032-10.964843 10.796876-18.140624 13.648438-1.585938.628906-3.132813 1.34375-4.632813 2.136719-5.726563 3.015625-9.847656 8.34375-11.59375 14.578125-1.894531 6.785156-4.933594 14.890625-9.796875 23.535156-1.457031 2.59375-2.410156 5.40625-2.835938 8.289062 37.449219 87.355469 124.210938 148.554688 225.273438 148.554688 95.328125 0 177.929688-54.445312 218.429688-133.929688zm0 0" fill="#face7a"/><g fill="#eec707"><path d="m154.886719 494.886719c-19.039063-44.332031-.042969-69.28125 8.660156-77.726563 1.984375-1.921875 2.621094-4.796875 1.773437-7.429687-1.339843-4.164063.425782-6.753907 2.667969-8.328125 2.789063-1.957032 4.011719-5.5 2.691407-8.640625-18.515626-43.917969 6.640624-72.878907 16.078124-81.722657 1.785157-1.671874 2.621094-4.144531 2.132813-6.542968-1.085937-5.371094 1.457031-8.230469 3.789063-9.6875 1.964843-1.230469 3.074218-3.445313 3.136718-5.765625.664063-24.125 23.867188-38.757813 23.867188-38.757813-18.894532-4.878906-9.324219-12.425781-9.324219-12.425781 7.929687-14.984375 3.539063-21.351563-3.609375-23.835937-1.214844.21875-2.433594.429687-3.640625.667968-5.824219 1.15625-11.859375.78125-17.507813-1.046875-13.996093-4.539062-20.917968-12.019531-20.917968-12.023437-2.765625-4.863282-22.667969 1.226562-44.457032 13.605468-21.792968 12.378907-37.214843 26.359376-34.453124 31.222657 1.515624 4.445312 2.304687 8.894531 2.625 13.105469.714843 9.429687-2.460938 18.785156-8.761719 25.839843-4.535157 5.082031-8.847657 10.371094-12.910157 15.863281-4.589843 6.207032-10.964843 10.796876-18.140624 13.648438-1.585938.628906-3.132813 1.34375-4.632813 2.136719-5.726563 3.015625-9.847656 8.34375-11.589844 14.578125-1.898437 6.785156-4.9375 14.886718-9.800781 23.535156-1.457031 2.59375-2.410156 5.40625-2.835938 8.289062 25.660157 59.851563 74.464844 107.417969 135.160157 131.441407zm0 0"/><path d="m310.621094 311.105469c0 9.425781-7.640625 17.066406-17.066406 17.066406-9.425782 0-17.066407-7.640625-17.066407-17.066406s7.640625-17.066407 17.066407-17.066407c9.425781 0 17.066406 7.640626 17.066406 17.066407zm0 0"/><path d="m245 237.863281c0-7.125-15.507812-12.902343-34.640625-12.902343s-34.640625 5.777343-34.640625 12.902343 15.507812 12.898438 34.640625 12.898438 34.640625-5.773438 34.640625-12.898438zm0 0"/><path d="m326.882812 434.863281c0 17.402344-14.105468 31.507813-31.507812 31.507813s-31.507812-14.105469-31.507812-31.507813c0-17.398437 14.105468-31.507812 31.507812-31.507812s31.507812 14.109375 31.507812 31.507812zm0 0"/></g><path d="m418.710938 268.59375c-21.164063-22.050781-47.257813-31.351562-58.28125-20.769531-11.027344 10.582031-2.8125 37.035156 18.351562 59.089843 21.164062 22.050782 47.257812 31.347657 58.28125 20.769532 11.027344-10.582032 2.8125-37.039063-18.351562-59.089844zm0 0" fill="#face7a"/><path d="m243.238281 353.578125c0 34.171875-27.699219 61.875-61.875 61.875-34.171875 0-61.875-27.703125-61.875-61.875s27.703125-61.875 61.875-61.875c34.175781 0 61.875 27.703125 61.875 61.875zm0 0" fill="#eec707"/><path d="m181.363281 291.703125c-34.171875 0-61.875 27.703125-61.875 61.875 0 28.703125 19.550781 52.835937 46.058594 59.828125.226563-1.199219.164063-2.460938-.226563-3.671875-1.339843-4.164063.425782-6.757813 2.667969-8.328125 2.789063-1.957031 4.015625-5.503906 2.691407-8.644531-18.511719-43.914063 6.640624-72.878907 16.078124-81.722657 1.785157-1.671874 2.621094-4.140624 2.132813-6.539062-1.085937-5.375 1.460937-8.234375 3.789063-9.691406.71875-.449219 1.320312-1.03125 1.796874-1.699219-4.226562-.914063-8.609374-1.40625-13.113281-1.40625zm0 0" fill="#fbb362"/><path d="m227.589844 353.578125c0 25.53125-20.695313 46.226563-46.226563 46.226563-25.527343 0-46.222656-20.695313-46.222656-46.226563 0-25.527344 20.695313-46.226563 46.222656-46.226563 25.53125 0 46.226563 20.699219 46.226563 46.226563zm0 0" fill="#fc9949"/><path d="m418.710938 268.59375c-15.335938-15.980469-34.246094-22.71875-42.234376-15.050781-7.992187 7.667969-2.035156 26.835937 13.300782 42.816406 15.335937 15.980469 34.242187 22.71875 42.234375 15.050781 7.988281-7.667968 2.035156-26.835937-13.300781-42.816406zm0 0" fill="#fbb362"/><path d="m376.484375 253.5625h.003906-.003906c-.292969.285156-.558594.585938-.816406.898438.269531-.300782.523437-.613282.816406-.898438zm0 0" fill="#fc9949"/><path d="m418.71875 268.617188c-2.035156-2.125-4.136719-4.078126-6.265625-5.863282 6.691406 9.800782 6.980469 21.683594.042969 28.339844-6.929688 6.652344-18.785156 5.882812-28.300782-1.199219 1.695313 2.195313 3.554688 4.371094 5.589844 6.488281 15.335938 15.984376 34.242188 22.722657 42.234375 15.054688 7.988281-7.667969 2.035157-26.839844-13.300781-42.820312zm0 0" fill="#fc9949"/><path d="m210.359375 237.859375v-12.898437c-19.128906 0-34.640625 5.777343-34.640625 12.902343s15.507812 12.898438 34.640625 12.898438c3.230469 0 6.355469-.167969 9.324219-.476563-22.707032-4.542968-9.324219-12.425781-9.324219-12.425781zm0 0" fill="#fbb362"/><path d="m373.003906 81.308594h-33.933594v15.386718c0 9.488282-7.691406 17.179688-17.179687 17.179688v.023438c-9.664063 0-17.464844 7.980468-17.171875 17.707031.28125 9.40625 8.484375 16.65625 17.890625 16.65625h50.394531c5.800782 0 10.503906-4.703125 10.503906-10.503907v-45.945312c0-5.800781-4.703124-10.503906-10.503906-10.503906zm0 0" fill="#f948b4"/><path d="m347.109375 137.757812v-45.945312c0-5.800781 4.703125-10.503906 10.503906-10.503906h-18.542969v15.386718c0 9.488282-7.691406 17.179688-17.179687 17.179688v.023438c-9.664063 0-17.464844 7.980468-17.171875 17.710937.28125 9.402344 8.484375 16.652344 17.890625 16.652344h35c-5.796875 0-10.5-4.703125-10.5-10.503907zm0 0" fill="#f6159c"/><path d="m321.890625 79.515625h-17.179687v51.5625c0-9.488281 7.691406-17.179687 17.179687-17.179687v-.023438c9.488281 0 17.179687-7.691406 17.179687-17.179688 0-9.488281-7.691406-17.179687-17.179687-17.179687zm0 0" fill="#f948b4"/><path d="m318.398438 12.5625h-53.746094c.125 1.3125.078125 2.660156-.1875 4.019531l-12.234375 62.933594h69.660156c9.488281 0 17.179687 7.691406 17.179687 17.179687 0-6.179687 0-60.660156 0-63.457031 0-11.417969-9.253906-20.675781-20.671874-20.675781zm0 0" fill="#fc7acd"/><path d="m285.519531 58.792969 6.523438-33.535157c1.105469-5.703124 4.867187-10.324218 9.84375-12.695312h-37.234375c.125 1.3125.078125 2.660156-.1875 4.019531l-12.234375 62.933594h46.539062c-8.988281-2.191406-15.105469-11.160156-13.25-20.722656zm0 0" fill="#f948b4"/><path d="m256.175781.402344c-7.773437-1.894532-15.46875 3.097656-16.976562 10.863281l-43.210938 222.851563c-.234375 1.207031.542969 2.378906 1.746094 2.617187 7.691406 1.519531 16.957031 1.515625 24.699219-.066406.890625-.183594 1.589844-.871094 1.765625-1.765625l42.253906-217.9375c1.429687-7.355469-2.992187-14.785156-10.277344-16.5625zm0 0" fill="#d0f6fa"/><path d="m231.035156 141.832031c-7.09375 0-13.074218-4.730469-14.980468-11.203125l-20.066407 103.488282c-.234375 1.207031.542969 2.378906 1.746094 2.617187 7.691406 1.519531 16.953125 1.515625 24.695313-.066406.894531-.183594 1.59375-.871094 1.769531-1.765625l19.234375-99.214844c-2.855469 3.730469-7.339844 6.144531-12.398438 6.144531zm0 0" fill="#83d3fc"/><path d="m305.347656 404.976562c-3.136718-1.046874-6.488281-1.621093-9.972656-1.621093-17.402344 0-31.507812 14.109375-31.507812 31.507812 0 14.84375 10.265624 27.277344 24.078124 30.621094-2.949218-4.726563-1.332031-7.957031.355469-9.742187 1.171875-1.246094 1.664063-2.992188 1.207031-4.640626-5.230468-18.808593 3.953126-29.300781 8.78125-33.320312 1.378907-1.152344 2.050782-2.972656 1.648438-4.722656-1.464844-6.402344 5.25-8.042969 5.410156-8.082032zm0 0" fill="#fbb362"/><path d="m315.203125 434.863281c0 10.953125-8.875 19.832031-19.828125 19.832031-10.949219 0-19.828125-8.878906-19.828125-19.832031 0-10.949219 8.878906-19.828125 19.828125-19.828125 10.953125 0 19.828125 8.878906 19.828125 19.828125zm0 0" fill="#fc9949"/><path d="m170.484375 398.503906c3.492187.839844 7.132813 1.296875 10.878906 1.296875 25.53125 0 46.226563-20.695312 46.226563-46.222656 0-23.03125-16.84375-42.121094-38.886719-45.640625.050781.085938 30.9375 54.914062-18.21875 90.566406zm0 0" fill="#fd7e31"/><path d="m299.820312 415.554688c.148438.351562 9.242188 21.703124-10.378906 38.234374 1.875.585938 3.867188.90625 5.933594.90625 10.953125 0 19.828125-8.878906 19.828125-19.832031 0-9.417969-6.574219-17.289062-15.382813-19.308593zm0 0" fill="#fd7e31"/></svg>