<svg width="1200" height="558" viewBox="0 0 1200 558" fill="none" xmlns="http://www.w3.org/2000/svg">
<g clip-path="url(#clip0_358_108)">
<rect width="1200" height="558" fill="#1D1B22"/>
<g opacity="0.2">
<path d="M277.777 539.436C277.41 537.471 277.68 534.948 277.881 533.057C279.361 519.191 290.764 509.816 302.737 511.378C305.588 511.751 308.373 512.751 310.516 514.311C317.295 504.969 327.658 499.934 339.059 501.422C352.169 503.133 362.06 513.37 365.343 525.941C370.138 518.9 377.453 515.379 385.434 516.42L386.002 516.494C391.641 496.142 409.858 482.543 429.239 485.073C435.51 485.891 441.579 488.6 446.44 491.794C458.35 472.259 479.279 460.294 502.084 463.271C512.916 464.685 522.27 469.102 530.215 475.889C544.207 458.542 565.501 448.542 588.308 451.519C616.811 455.239 639.238 477.976 645.907 507.603C650.034 506.863 654.089 506.754 658.65 507.35C679.173 510.028 694.393 529.908 694.317 552.266L698.31 552.787C766.853 561.734 761.54 611.527 759.455 631.066C759.455 631.066 708.015 624.352 690.912 622.119C690.912 622.119 679.345 640.261 643.504 649.293C607.662 658.325 519.274 651.815 468.145 640.115C417.016 628.414 279.316 568.397 279.316 568.397C271.904 567.43 211.148 559.5 211.148 559.5C213.026 552.711 273.015 540.73 277.777 539.436Z" fill="#0E0D11" fill-opacity="0.6"/>
<path d="M504.38 405.814C504.737 404.629 504.737 403.046 504.737 401.861C504.737 393.166 498.295 386.447 490.776 386.447C488.985 386.447 487.195 386.841 485.764 387.632C482.183 381.308 476.098 377.357 468.938 377.357C460.705 377.357 453.903 382.89 451.039 390.4C448.534 385.658 444.236 382.89 439.225 382.89H438.868C436.72 369.847 426.337 359.967 414.166 359.967C410.228 359.967 406.29 361.152 403.069 362.735C396.983 349.692 384.812 340.603 370.491 340.603C363.688 340.603 357.603 342.579 352.234 346.136C344.715 334.278 332.187 326.374 317.865 326.374C299.966 326.374 284.573 338.626 278.485 356.411C275.978 355.62 273.473 355.225 270.609 355.225C257.721 355.225 246.981 366.292 245.55 380.125H243.043C200 380.125 200 411.349 200 423.601C200 423.601 232.303 423.601 243.043 423.601H501.513C506.168 423.601 544.321 423.601 544.321 423.601C543.606 419.251 507.244 406.999 504.38 405.814Z" fill="#0E0D11" fill-opacity="0.6"/>
</g>
<path d="M298.37 499.127L297.486 479.989L316.919 475.278L315.741 437.296H314.564L316.919 426.107L318.097 431.112L321.63 423.457V420.513H320.452L323.102 415.213H324.574V403.141H323.102L326.047 382.53L329.58 403.141H328.402V412.268L352.546 404.024V390.48L354.607 381.941L359.612 343.076V339.248H358.14V338.07H359.612V335.715H360.79V338.07H361.968V339.248H360.79V343.076L362.557 381.941L365.207 390.48V399.902L397.889 388.419V376.053H396.711L400.245 359.27L404.367 376.053H403.483V399.313L408.489 397.841V396.663H407.311L410.55 376.053L409.372 373.992L422.916 331.004L423.211 323.349L420.561 321.288V317.754L417.911 316.282V304.505H417.028L418.794 298.322L420.561 304.505L421.738 301.266L423.211 306.566L424.388 304.21L427.038 311.571L426.155 312.454V319.815L436.166 287.722L437.344 273L437.932 287.722L467.376 373.992L466.198 376.053V386.947L464.432 388.419V389.891L463.548 390.48V435.529L464.432 436.118V439.357L475.326 443.479L475.031 428.168H473.559L483.57 384.591L484.159 373.992V384.591L495.348 428.168H492.992L495.348 499.127H298.37Z" fill="#141318"/>
<path d="M356.697 530.69C358.472 530.213 360.438 529.793 362.313 529.484C362.949 528.044 364.662 526.918 366.777 526.462L366.421 525.521L365.978 522.403L369.837 517.284L372.053 511.787L374.949 509.465L374.523 506.472L374.817 504.24L373.277 505.994L371.76 504.949L371.414 501.821L370.533 506.373L373.063 508.033L369.985 510.422L367.555 514.833L364.062 517.749L364.054 515.489L362.695 510.773L365.01 504.368L368.192 502.01L370.024 491.776L366.385 490.493L365.045 488.813L365.329 486.457L363.366 489.154L365.018 491.842L367.959 493.28L364.94 498.928L360.168 501.932L358.364 506.394L354.47 499.503L352.062 496.279L350.999 489.509L347.211 486.637L346.037 484.994L345.879 486.625L348.99 490.648L349.105 495.597L350.822 500.729L346.289 500.47L343.102 497.257L341.693 492.728L340.971 490.602L338.414 488.753L337.473 486.6L337.903 489.628L340.143 492.307L341.19 498.327L338.93 498.183L337.221 496.497L338.932 500.3L342.324 500.333L345.111 503.799L352.887 505.728L355.388 516.268L355.519 529.716C355.987 529.913 356.395 530.25 356.698 530.69L356.697 530.69Z" fill="#0E0D11"/>
<path d="M448.148 532.386C449.969 532.36 451.965 532.438 453.849 532.601C454.76 531.352 456.653 530.676 458.8 530.755L458.646 529.747L458.849 526.59L463.639 522.545L466.909 517.723L470.195 516.172L470.389 513.141L471.129 511.033L469.276 512.365L468.015 510.967L468.314 507.824L466.533 512.054L468.654 514.304L465.178 515.875L461.92 519.583L457.934 521.566L458.385 519.355L458.023 514.409L461.575 508.724L465.146 507.209L469.005 497.661L465.731 495.505L464.771 493.53L465.525 491.298L463.07 493.446L464.128 496.483L466.694 498.619L462.612 503.389L457.365 505.141L454.705 509.054L452.323 501.353L450.638 497.604L450.982 490.723L447.886 486.976L447.079 485.079L446.594 486.634L448.799 491.338L447.905 496.204L448.529 501.645L444.178 500.267L441.735 496.336L441.286 491.56L441.017 489.303L438.908 486.861L438.432 484.524L438.235 487.589L439.866 490.764L439.66 496.907L437.493 496.206L436.176 494.133L437.065 498.275L440.354 499.149L442.357 503.229L449.519 507.043L449.807 517.966L447.201 531.142C447.616 531.45 447.944 531.881 448.149 532.386L448.148 532.386Z" fill="#0E0D11"/>
<path d="M576.553 559.397C574.848 558.715 572.945 558.067 571.121 557.539C570.661 556.034 569.095 554.714 567.05 554.012L567.516 553.12L568.328 550.076L565.108 544.539L563.565 538.82L560.966 536.174L561.748 533.251L561.722 531.001L563.041 532.924L564.673 532.065L565.39 529L565.721 533.623L563.011 534.973L565.781 537.708L567.667 542.374L570.786 545.681L571.065 543.438L572.978 538.915L571.444 532.283L568.567 529.567L567.971 519.189L571.737 518.344L573.268 516.834L573.268 514.46L574.895 517.369L572.934 519.844L569.841 520.926L572.164 526.889L576.544 530.434L577.802 535.077L582.491 528.693L585.268 525.775L587.132 519.178L591.237 516.772L592.599 515.279L592.561 516.917L588.991 520.546L588.285 525.446L585.968 530.34L590.5 530.616L594.048 527.801L595.988 523.47L596.959 521.444L599.719 519.909L600.911 517.883L600.122 520.838L597.578 523.235L595.818 529.088L598.08 529.212L599.978 527.739L597.825 531.314L594.452 530.947L591.271 534.061L583.32 535.06L579.577 545.231L577.839 558.57C577.351 558.709 576.905 558.996 576.552 559.397L576.553 559.397Z" fill="#0E0D11"/>
<path d="M441.183 533.027L435.872 536.389V616.313H583.679V557.082L576.304 549.839L574.828 545.442L570.993 543.89V542.08L563.913 534.579L563.027 530.958L561.257 528.889L559.487 528.113L560.077 526.302L558.307 525.267L555.357 515.18L553.882 513.111L549.456 511.042L547.981 507.679L543.556 505.61H541.786L540.901 504.317H539.131L536.77 502.247H533.525L532.64 501.73H531.165L529.985 500.178L522.904 497.074L520.249 495.522L517.299 495.005L500.187 496.298L499.597 497.85L492.812 498.885L491.337 501.213V502.247L490.452 503.023V504.317L488.386 507.162L486.616 511.559L481.601 510.007L473.045 510.524L466.85 514.663L463.604 515.439L461.834 518.025H455.639L452.983 519.836H447.968L445.018 522.94L441.183 524.233V533.027Z" fill="#101014"/>
<path d="M238.6 527.429L233.3 531.527V616.313H559.535L528.62 529.99V527.173L525.381 525.636V522.306L519.492 517.695V515.134L501.237 511.291V509.498L495.937 500.789L497.998 498.74L495.937 495.154L488.576 494.385L485.926 489.775L481.51 489.006L475.915 486.189V483.627L472.971 476.455L463.844 471.588L447.355 460.573H444.705H441.172L424.683 452.377L415.556 450.84L398.773 456.219L393.179 461.086H386.112L383.757 463.391L379.635 464.672L377.574 466.209H375.513H371.979L370.802 465.184L365.796 464.672L363.441 465.184H361.969L349.013 471.588L345.775 473.637H340.475L341.358 474.662L336.647 477.479L334.88 476.455L332.23 475.43H328.403L319.275 478.248L316.625 480.297L314.859 479.016L313.092 480.297L306.026 477.479L303.376 479.016L301.315 477.479L289.243 481.834L282.765 480.297L277.76 484.652L273.343 486.189L268.927 492.592L265.982 494.385V497.715L260.094 500.533L258.621 504.631L256.266 506.168V507.705L252.438 509.242L248.316 514.109H245.666V516.414L242.133 518.463L241.25 520.769V522.562L238.6 525.892V527.429Z" fill="#101014"/>
<path d="M437.051 320.11H435.284V317.46C435.284 317.46 435.579 316.577 436.167 316.577C436.756 316.577 437.051 317.46 437.051 317.46V320.11Z" fill="#0E0D11" fill-opacity="0.6"/>
<path d="M424.097 313.632H422.33V310.982C422.33 310.982 422.625 310.099 423.213 310.099C423.802 310.099 424.097 310.982 424.097 310.982V313.632Z" fill="#0E0D11" fill-opacity="0.6"/>
<path d="M401.13 374.875H399.363V372.225C399.363 372.225 399.658 371.342 400.247 371.342C400.835 371.342 401.13 372.225 401.13 372.225V374.875Z" fill="#0E0D11" fill-opacity="0.6"/>
<path d="M361.086 381.353H359.319V378.703C359.319 378.703 359.614 377.819 360.203 377.819C360.792 377.819 361.086 378.703 361.086 378.703V381.353Z" fill="#0E0D11" fill-opacity="0.6"/>
<path d="M327.521 401.963H325.754V399.313C325.754 399.313 326.048 398.43 326.637 398.43C327.226 398.43 327.521 399.313 327.521 399.313V401.963Z" fill="#0E0D11" fill-opacity="0.6"/>
<path d="M488.283 426.696H484.161V420.513C484.161 420.513 484.848 418.452 486.222 418.452C487.596 418.452 488.283 420.513 488.283 420.513V426.696Z" fill="#0E0D11" fill-opacity="0.6"/>
<path d="M416.441 394.897H413.497V390.48C413.497 390.48 413.988 389.008 414.969 389.008C415.951 389.008 416.441 390.48 416.441 390.48V394.897Z" fill="#0E0D11" fill-opacity="0.6"/>
<path d="M317.51 436.118H316.332V434.351C316.332 434.351 316.528 433.762 316.921 433.762C317.313 433.762 317.51 434.351 317.51 434.351V436.118Z" fill="#0E0D11" fill-opacity="0.6"/>
<path d="M463.551 384.297H461.195V380.764C461.195 380.764 461.588 379.586 462.373 379.586C463.158 379.586 463.551 380.764 463.551 380.764V384.297Z" fill="#0E0D11" fill-opacity="0.6"/>
<path d="M119.035 232.38L131.611 236.231L122.628 211.328C122.628 211.328 127.468 200.83 128.274 193.613C128.731 189.528 127.806 187.171 128.274 183.087C129.371 173.524 133.034 168.757 137.513 160.238C142.288 151.156 145.385 146.136 152.142 138.415C160.391 128.988 171.642 129.303 176.779 117.876C178.733 113.529 179.858 106.067 179.858 106.067C179.858 106.067 179.404 109.865 179.858 112.228C182.149 124.124 207.062 97.3376 207.062 97.3376C207.062 97.3376 207.708 100.334 209.115 101.445C212.397 104.038 216.814 94 216.814 94V99.6482H247.354C247.354 99.6482 271.243 100.067 284.823 106.067C295.046 110.583 308.434 122.241 308.434 122.241C308.434 122.241 323.274 133.115 329.991 142.523C334.603 148.983 334.356 154.439 339.487 160.494C342.238 163.741 347.442 167.94 347.442 167.94L343.85 169.48C343.85 169.48 344.47 175.668 347.442 176.926C349.196 177.667 352.319 176.926 352.319 176.926L347.442 180.263C347.442 180.263 354.372 196.437 356.425 198.491C358.478 200.545 349.239 196.181 352.319 198.491C355.398 200.802 356.425 215.436 356.425 215.436C356.425 215.436 351.969 216.927 352.319 219.03C352.54 220.361 354.628 221.597 354.628 221.597L352.319 226.732C352.319 226.732 353.419 233.298 352.319 237.258C351.297 240.937 347.442 245.731 347.442 245.731L368.23 239.826C368.23 239.826 366.283 258.86 359.761 268.58C357.265 272.3 352.319 277.309 352.319 277.309C352.319 277.309 350.253 287.214 347.442 292.97C344.108 299.799 335.894 308.631 335.894 308.631V312.482L401.85 351.762C401.85 351.762 376.96 369.826 364.637 384.881C355.584 395.942 346.545 401.492 344.876 415.689C344.431 419.473 344.876 425.445 344.876 425.445C344.876 425.445 434.69 450.309 474.478 490.656C493.641 510.088 515.283 547.395 515.283 547.395L543 561.772V580H-37V493.994C-37 493.994 -26.4956 493.285 -19.8053 492.453C47.452 484.09 134.434 412.865 134.434 412.865C134.434 412.865 138.583 407.274 137.513 403.623C136.887 401.487 134.177 399.002 134.177 399.002L140.08 397.718V386.935C140.08 386.935 136.316 371.531 134.434 364.599C134.434 364.599 121.477 325.802 102.354 327.372C98.1138 327.721 91.8319 330.197 91.8319 330.197C91.8319 330.197 94.4891 321.095 97.7345 316.076C108.158 299.959 143.159 297.334 143.159 297.334C143.159 297.334 135.388 287.772 134.434 280.39C134.074 277.606 135.311 275.474 133.664 273.201C133.038 272.338 132.381 269.094 132.381 269.094V263.959C132.381 260.108 119.035 232.38 119.035 232.38Z" fill="#0E0D11"/>
</g>
<defs>
<clipPath id="clip0_358_108">
<rect width="1200" height="558" fill="white"/>
</clipPath>
</defs>
</svg>
