<svg width="1920" height="1080" viewBox="0 0 1920 1080" fill="none" xmlns="http://www.w3.org/2000/svg">
<g clip-path="url(#clip0_23_20)">
<path d="M1642.5 104C1651.95 102.9 1655.96 114.857 1665.5 112C1669.29 110.866 1682 112 1682 112C1682 112 1725 126 1735 138.5C1745 151 1748.44 183.531 1757.5 214C1767.1 246.294 1791 293.5 1791 293.5C1791 293.5 1839.98 313.344 1869 330.5C1905.71 352.201 1956 396.5 1956 396.5L2000 1096.5H1236.5C1236.5 1096.5 1277.26 999.434 1282.5 933.5C1284.64 906.639 1282.5 864.5 1282.5 864.5C1282.5 864.5 1310.78 818.979 1322.5 787C1340.93 736.723 1343.5 651.5 1343.5 651.5C1343.5 651.5 1375.69 605.224 1383.5 571C1388.17 550.559 1388 517.5 1388 517.5C1388 517.5 1377.47 533.031 1368 540C1351.1 552.437 1316 553.5 1316 553.5C1316 553.5 1333.66 546.806 1343.5 540C1373.32 519.372 1377.23 493.127 1388 458.5C1395.29 435.051 1398.5 396.5 1398.5 396.5L1470 340.5C1470 340.5 1484.37 318.464 1498 309.5C1503.69 305.757 1513.5 301.5 1513.5 301.5L1517 277C1518.37 267.432 1535.5 264.5 1535.5 264.5C1535.5 264.5 1532.51 249.09 1535.5 240C1540.2 225.687 1558.29 227.94 1564 214C1570.09 199.131 1556.68 188.608 1560.5 173C1564.96 154.79 1573.21 144.856 1588.5 134C1601.34 124.881 1609.32 124.387 1622 117C1630.19 112.227 1633.08 105.097 1642.5 104Z" fill="white" stroke="black"/>
<path d="M1663 566C1663.5 538.5 1766 415 1766 415C1766 415 1719.42 480.792 1706.5 529.5C1701.12 549.793 1697.5 582.5 1697.5 582.5L1583.5 851.5C1583.5 851.5 1662.5 593.5 1663 566Z" fill="#0E0D11"/>
<path fill-rule="evenodd" clip-rule="evenodd" d="M1493.36 394.197L1586.77 970.109L1549.34 975.573C1542.83 976.524 1545.91 997.627 1552.43 996.676L1571.25 993.928C1571.93 1001.32 1573.17 999.552 1579.51 1000.35L1596.88 1027.92C1596.88 1027.92 1595.46 1038.98 1597.4 1048.65C1599.39 1058.37 1602.5 1062.44 1602.5 1062.44C1602.5 1062.44 1600.51 1069.96 1601.3 1075.36C1602.07 1080.67 1606.39 1087.27 1606.39 1087.27C1606.39 1087.27 1603.88 1094.86 1605.18 1101.95C1606.52 1108.99 1610.15 1114.84 1610.15 1114.84C1610.15 1114.84 1608.03 1123.3 1609.85 1133.92C1611.7 1144.51 1614.12 1146.03 1614.12 1146.03C1614.12 1146.03 1612.1 1143.6 1613.53 1155.2C1614.94 1166.72 1618.14 1173.56 1618.14 1173.56L1616.37 1190.13L1628.89 1215.47C1629.59 1246.16 1657.47 1242.09 1649.36 1212.48L1654.11 1184.62L1647.68 1169.25C1647.68 1169.25 1648.79 1161.78 1646.85 1150.34C1644.9 1138.81 1643.66 1141.72 1643.66 1141.72C1643.66 1141.72 1645.54 1139.57 1644.29 1128.89C1643 1118.2 1638.56 1110.69 1638.56 1110.69C1638.56 1110.69 1640.36 1104.05 1639.63 1096.93C1638.84 1089.76 1634.28 1083.2 1634.28 1083.2C1634.28 1083.2 1636.52 1075.64 1635.74 1070.33C1634.96 1064.93 1630.91 1058.3 1630.91 1058.3C1630.91 1058.3 1632.72 1053.51 1631.85 1043.62C1630.94 1033.8 1626.42 1023.61 1626.42 1023.61L1635.19 992.221C1641.03 989.646 1642.72 990.988 1641.27 983.707L1655.43 981.641C1661.98 980.683 1658.9 959.58 1652.34 960.538L1619.58 965.32L1542.07 379.911C1530.67 293.987 1511.99 249.742 1486.72 169.895C1484.87 257.17 1478.91 304.852 1493.36 394.197Z" fill="#0E0D11"/>
</g>
<defs>
<clipPath id="clip0_23_20">
<rect width="1920" height="1080" fill="white"/>
</clipPath>
</defs>
</svg>
