<svg width="1920" height="1080" viewBox="0 0 1920 1080" fill="none" xmlns="http://www.w3.org/2000/svg">
<g clip-path="url(#clip0_1_2)">
<path d="M1526.71 227C1526.71 227 1520.71 225.094 1518.71 222C1516.88 219.169 1516.12 216.69 1517.21 213.5C1518.42 209.95 1522.71 210.674 1524.71 207.5C1526.93 203.968 1526.71 197 1526.71 197C1526.71 197 1519.86 192.029 1517.21 187.5C1513.04 180.37 1514.71 166.5 1514.71 166.5H1526.71C1526.71 166.5 1524.64 157.562 1526.71 152.5C1528.33 148.518 1531.65 147.773 1533.71 144C1536.87 138.22 1534.24 133.382 1537.21 127.5C1540.14 121.694 1548.21 115 1548.21 115L1543.71 82.5C1543.71 82.5 1607.47 66.435 1643.71 81C1664.42 89.3219 1680.06 93.8903 1690.71 113.5C1695.66 122.622 1696.88 128.705 1698.21 139C1699.99 152.799 1695.21 174.5 1695.21 174.5C1695.21 174.5 1693.72 181.312 1692.21 185.5C1688.12 196.81 1681.04 200.718 1675.71 211.5C1670.81 221.417 1665.71 238 1665.71 238C1665.71 238 1703.48 253.64 1726.21 266.5C1749.12 279.46 1758.91 291.749 1782.21 304C1804.38 315.663 1841.71 328 1841.71 328C1841.71 328 1838.43 357.817 1838.21 377C1837.47 442.479 1870.71 541.5 1870.71 541.5C1870.71 541.5 1870.39 546.696 1870.71 550C1871.8 561.13 1878.47 565.653 1882.71 576C1903.1 625.756 1907.21 711.5 1907.21 711.5C1907.21 711.5 1903.31 745.982 1907.21 767.5C1908.87 776.634 1913.21 790.5 1913.21 790.5L1919.71 879.5L1915.71 881.5C1915.71 881.5 1915.74 893.025 1913.21 900C1910.29 908.051 1903.73 909 1900.71 916.5C1899.28 920.059 1898.21 926 1898.21 926C1898.21 926 1890.73 939.675 1882.21 942C1877.69 943.233 1870.21 942 1870.21 942L1849.21 929.5L1841.04 931.542L1854.71 994L1879.21 1093.5H1313.21C1313.21 1093.5 1359.71 845.5 1380.21 751.5C1388.64 712.858 1415.27 671.507 1426.21 633.5C1433.18 609.294 1445.21 596.5 1445.21 596.5C1445.21 596.5 1448.6 567.839 1445.21 550C1442.71 536.837 1434.21 517.5 1434.21 517.5C1434.21 517.5 1420.91 534.018 1411.71 544C1395.89 561.164 1378.84 564.215 1368.21 585C1366.94 587.489 1365.21 591.5 1365.21 591.5C1365.21 591.5 1345.99 605.276 1331.71 609C1315.65 613.188 1289.21 609 1289.21 609L1281.71 578.5C1281.71 578.5 1264 558.062 1262.21 542C1260.9 530.196 1266.15 523.83 1267.21 512C1268.47 497.997 1264.34 489.762 1267.21 476C1269.52 464.925 1274.82 459.938 1277.71 449C1284.3 424.082 1277.71 383 1277.71 383L1286.71 374.5C1286.71 374.5 1280.5 354.436 1286.71 344.5C1290.77 338.008 1296.96 338.068 1302.21 332.5C1307.41 326.985 1313.21 316.5 1313.21 316.5L1302.21 306.5L1335.21 266.5L1353.71 283.5C1353.71 283.5 1363 275.958 1367.21 279.5C1369.35 281.301 1370.21 286 1370.21 286C1370.21 286 1376.26 284.631 1379.71 286C1383.69 287.58 1387.21 294 1387.21 294C1387.21 294 1391.52 293.502 1394.21 294C1397.56 294.621 1402.21 297.5 1402.21 297.5C1402.21 297.5 1409.74 307.838 1406.21 313C1405.04 314.714 1402.21 316.5 1402.21 316.5L1408.21 319.5L1414.21 313L1426.21 294C1426.21 294 1439.21 286.8 1443.71 292C1445.25 293.784 1446.21 297.5 1446.21 297.5C1446.21 297.5 1454.65 296.017 1459.71 294C1481.7 285.234 1476.16 259.209 1494.71 244.5C1505.87 235.651 1526.71 227 1526.71 227Z" fill="#2E3C36"/>
<path d="M1533.5 185.5C1533.5 183.547 1529.5 184.5 1529.5 184.5L1525.5 190.5L1523 198.5L1519 195.5C1519 195.5 1514.96 191.226 1513 187C1509.1 178.582 1511 166.5 1511 166.5L1531 169.5C1531 169.5 1528.92 174.721 1531 176.5C1532.78 178.025 1534.88 177.503 1537 176.5C1539.55 175.294 1541 170.5 1541 170.5C1541 170.5 1573 174 1573.5 174C1574 174 1575.5 177 1582 182C1588.5 187 1646 187 1646 187L1650.5 189.5L1584.5 190.5C1584.5 190.5 1570.65 201.573 1560 203C1555.74 203.571 1553.17 204.049 1549 203C1543.01 201.492 1536 194 1536 194C1536 194 1533.5 186 1533.5 185.5Z" fill="#65F859"/>
</g>
<defs>
<clipPath id="clip0_1_2">
<rect width="1920" height="1080" fill="white"/>
</clipPath>
</defs>
</svg>
