<svg width="1920" height="1080" viewBox="0 0 1920 1080" fill="none" xmlns="http://www.w3.org/2000/svg">
<g clip-path="url(#clip0_1_10)">
<path d="M1680 126.5C1683.13 129.496 1682.8 133.244 1686.5 135.5C1693.17 139.566 1706 131 1706 131C1706 131 1713.05 138.453 1718.5 142C1724.58 145.959 1735.5 149.5 1735.5 149.5C1735.5 149.5 1759.62 170.025 1771 186.5C1792.49 217.599 1793.44 241.689 1799.5 279C1809.31 339.451 1789.5 435.5 1789.5 435.5C1789.5 435.5 1829.33 462.289 1848 486C1880.32 527.042 1893.5 599 1891.5 612.5C1889.5 626 1875.01 658.536 1868 671C1840.62 719.676 1843.21 729.606 1853.5 784.5C1877.5 912.5 1884 1093.5 1884 1093.5H1523C1523 1093.5 1566.5 916 1560.5 889.5C1554.5 863 1542.24 853.752 1534 829.5C1520.58 790.012 1526.28 764.508 1514.5 724.5C1506.98 698.959 1491 660.5 1491 660.5C1491 660.5 1477.33 617.592 1483.5 591C1485.51 582.338 1492.88 578.192 1491 569.5C1490.61 567.689 1489.5 565 1489.5 565C1489.5 565 1499.15 559.923 1500.5 554C1501.06 551.525 1501.43 549.862 1500.5 547.5C1499.49 544.931 1495.5 542.5 1495.5 542.5L1491 551.5C1491 551.5 1489.71 542.813 1491 537.5C1492.68 530.601 1500.5 522 1500.5 522C1500.5 522 1493.86 523.834 1489.5 524C1483.98 524.21 1475.5 522 1475.5 522C1475.5 522 1486.71 520.471 1491 515.5C1494.75 511.151 1495.5 501.5 1495.5 501.5C1495.5 501.5 1489.83 503.739 1486 504C1478.42 504.517 1472.45 503.764 1467.5 498C1464.24 494.202 1463 486 1463 486L1467.5 493.5C1467.5 493.5 1479.33 496.281 1486 493.5C1494.47 489.967 1500.5 475 1500.5 475C1500.5 475 1488.53 479.336 1483.5 475C1480.12 472.087 1479 464.5 1479 464.5C1479 464.5 1480.96 468.811 1483.5 469.5C1487.63 470.623 1491 461.5 1491 461.5C1491 461.5 1487.77 460.273 1486 459C1479.87 454.603 1479 441 1479 441C1479 441 1481.49 449.508 1486 451.5C1489.39 452.999 1495.5 451.5 1495.5 451.5C1495.5 451.5 1492.71 438.213 1495.5 430.5C1497.6 424.693 1502.27 423.257 1504.5 417.5C1507.96 408.58 1504.83 402.562 1504.5 393C1503.93 376.534 1500.5 351 1500.5 351C1500.5 351 1505.06 338.813 1509 331.5C1511.49 326.871 1516 320 1516 320C1516 320 1510.37 320.988 1507 320C1499.92 317.925 1495.5 305 1495.5 305C1495.5 305 1500.99 314.601 1507 315.5C1511.89 316.23 1514.61 313.765 1519 311.5C1542.74 299.248 1528.73 270.123 1526.5 243.5C1525.59 232.656 1522.12 226.882 1522 216C1521.87 204.347 1523.17 197.669 1526.5 186.5C1533.95 161.478 1545.93 149.722 1564.42 131.566L1565 131C1574.51 121.664 1591.5 109.5 1591.5 109.5C1591.5 109.5 1623.59 99.1753 1639 109.5C1643.7 112.652 1644.81 116.333 1649.5 119.5C1659.63 126.335 1671.17 118.056 1680 126.5Z" fill="#3D2C3E"/>
<path d="M1734.5 561L1742 567L1920.5 748.5L1707.5 587.5L1716.5 572.5C1716.5 572.5 1721.8 562.367 1728 561C1730.48 560.454 1734.5 561 1734.5 561Z" fill="#F859A8"/>
<path d="M1647 465.5L1672 488C1672 488 1666.5 488 1663.5 491C1660.5 494 1642.5 532.5 1642.5 532.5L1620.5 516C1620.5 516 1616.41 498.14 1620.5 488C1625.58 475.411 1647 465.5 1647 465.5Z" fill="#F859A8"/>
</g>
<defs>
<clipPath id="clip0_1_10">
<rect width="1920" height="1080" fill="white"/>
</clipPath>
</defs>
</svg>
