<svg width="1920" height="1080" viewBox="0 0 1920 1080" fill="none" xmlns="http://www.w3.org/2000/svg">
<g clip-path="url(#clip0_1_20)">
<path d="M1539.52 435.5C1539.52 435.5 1541.74 440.791 1543.52 444C1551.41 458.255 1573.52 473 1573.52 473L1590.02 483C1590.02 483 1661.96 498.309 1703.02 520C1710.36 523.88 1721.52 530.5 1721.52 530.5C1721.52 530.5 1735.11 528.722 1743.52 530.5C1753.77 532.669 1767.52 542.5 1767.52 542.5L1797.52 602.5L1808.02 611L1805.02 632.5L1830.52 648.5C1830.52 648.5 1845.62 711.382 1867.52 745.5C1875.58 758.054 1890.52 776 1890.52 776L1886.02 798.5C1886.02 798.5 1894.71 805.756 1899.02 811.5C1906.85 821.943 1911.52 842.5 1911.52 842.5L1904.52 853.5L1919.02 870L1911.52 879.5C1911.52 879.5 1922.87 904.686 1919.02 920.5C1916.35 931.466 1904.52 945.5 1904.52 945.5L1802.52 959L1732.02 973.5L1755.02 1102H1065.52C1065.52 1102 1039.18 1074.23 1040.02 1052.5C1040.5 1040.16 1050.02 1022.5 1050.02 1022.5L1071.02 993.5C1071.02 993.5 1091.69 978.538 1107.02 974C1133.89 966.047 1178.52 980 1178.52 980C1178.52 980 1174.18 969.463 1172.02 962.5C1167.83 949.004 1165.02 927 1165.02 927L1188.52 908.5C1188.52 908.5 1191.63 901.162 1194.52 897C1198.61 891.102 1207.52 884 1207.52 884L1190.52 846L1223.52 795C1223.52 795 1222.61 781.24 1223.52 772.5C1225.01 758.174 1233.52 737 1233.52 737V731L1236.52 728C1236.52 728 1237.34 716.895 1239.02 710C1241.1 701.474 1247.02 689 1247.02 689C1247.02 689 1249.76 658.424 1257.02 640.5C1261.61 629.162 1266.93 624.126 1272.02 613C1276.03 604.228 1281.02 590 1281.02 590L1308.02 581C1336.02 564.5 1392.02 530.5 1392.02 530.5C1392.02 530.5 1399.02 518.167 1402.52 512.5C1402.52 512.5 1411.71 502.613 1415.52 495C1417.13 491.79 1419.02 486.5 1419.02 486.5L1415.02 487.5L1416.52 486.5C1416.52 486.5 1416.84 484.329 1416.52 483C1416.21 481.727 1415.02 480 1415.02 480L1411.52 483L1412.02 479L1407.02 482C1407.02 482 1408.25 480.212 1408.02 479C1407.67 477.191 1405.02 478.049 1404.02 476.5C1402.75 474.53 1404.02 470.5 1404.02 470.5L1399.02 474L1400.02 467.5L1396.02 470L1397.02 466C1397.02 466 1395.02 463.746 1395.02 462C1395.02 460.765 1396.02 459 1396.02 459L1393.52 458.5L1389.52 457C1389.52 457 1390.77 456.455 1391.52 456C1392.82 455.206 1394.52 453.5 1394.52 453.5L1393.02 448L1390.52 449C1390.52 449 1391.31 446.597 1391.52 445C1391.74 443.257 1391.52 440.5 1391.52 440.5L1388.52 439.5C1388.52 439.5 1389.78 438.636 1390.52 438C1391.36 437.28 1392.52 436 1392.52 436L1393.02 432.5C1393.02 432.5 1390.68 429.355 1390.02 427C1389.7 425.857 1389.52 424 1389.52 424H1387.02L1389.52 420L1386.52 420.5L1390.02 417L1388.52 415C1388.52 415 1390.17 412.346 1390.02 410.5C1389.74 407.035 1385.25 407.667 1383.02 405C1379.18 400.405 1380.38 396.005 1378.02 390.5C1372.51 377.658 1358.52 360.5 1358.52 360.5C1358.52 360.5 1355.82 353.626 1355.02 349C1353.92 342.65 1355.02 332.5 1355.02 332.5L1351.52 340.5C1351.52 340.5 1351.3 335.616 1351.52 332.5C1351.79 328.754 1353.02 323 1353.02 323H1345.52L1355.02 308C1355.02 308 1355.6 299.74 1355.02 294.5C1354.01 285.353 1348.02 272 1348.02 272C1348.02 272 1357.82 250.347 1359.52 235.5C1360.54 226.577 1355.03 220.278 1359.52 212.5C1362.08 208.075 1369.02 203.5 1369.02 203.5L1359.52 196.5C1359.52 196.5 1370.71 182.196 1381.02 178.5C1393.19 174.137 1414.02 181 1414.02 181C1414.02 181 1430.79 185.167 1438.52 179.5C1442.33 176.705 1442.52 173.173 1446.02 170C1458.26 158.911 1471.88 161.475 1488.02 165C1496.91 166.942 1501.16 170.4 1509.52 174C1520.52 178.736 1528.57 178.545 1537.52 186.5C1547.64 195.496 1554.02 217 1554.02 217L1553.02 228H1558.52C1558.52 228 1559.66 234.51 1561.02 238.5C1565.94 252.963 1585.52 269 1585.52 269C1585.52 269 1586.17 281.756 1588.52 289.5C1591.46 299.196 1600.52 312.5 1600.52 312.5C1600.52 312.5 1589.87 308.581 1585.52 312.5C1582.31 315.392 1582.02 323 1582.02 323C1582.02 323 1584.5 328.37 1585.52 332C1590.75 350.602 1573.52 380 1573.52 380L1567.52 387.5C1567.52 387.5 1567.62 392.551 1566.52 395.5C1564.44 401.063 1555.52 406 1555.52 406L1561.02 395.5C1561.02 395.5 1556.63 396.283 1554.52 398C1552.08 399.988 1550.52 405 1550.52 405L1543.52 410.5L1546.02 402.5C1546.02 402.5 1541.6 406.076 1539.52 409C1534.43 416.143 1535.02 431 1535.02 431V435.5H1539.52Z" fill="#3D3C36"/>
<path d="M1462.68 569.298L1461.53 559.248C1453.97 560.076 1433.1 559.964 1433.02 559.248C1432.94 558.53 1453.77 558.352 1461.33 557.47L1460.12 546.923C1460.08 546.407 1460.14 545.908 1460.26 545.438C1454.16 542.389 1437.68 535.462 1419.73 538.962C1417.48 539.401 1415.75 541.408 1415.45 543.839C1414.54 551.252 1411.97 564.054 1417.02 582C1418.12 585.927 1424.45 588.965 1428.26 588.294C1438.3 586.533 1452.85 584.939 1463.85 571.812C1463.18 571.113 1462.76 570.237 1462.68 569.298Z" fill="#F8F859"/>
<path d="M1473.58 542.715C1475.09 542.542 1479.89 546.982 1480.02 548.5L1479.27 567.483C1479.4 568.936 1478.35 570.226 1476.9 570.401L1467.29 571.569C1467.29 571.57 1467.28 571.571 1467.27 571.572C1465.76 571.744 1464.39 570.637 1464.26 569.117L1461.02 547.5C1460.9 546.048 1462.62 544.048 1464.07 543.873L1473.56 542.719C1473.56 542.717 1473.57 542.716 1473.58 542.715Z" fill="#F8F859"/>
<path d="M1521.41 531.708C1520.57 529.406 1518.43 527.841 1516.14 527.924C1497.58 528.584 1479.02 543 1477.89 543.587C1476.75 544.174 1475.98 547.517 1476.02 548L1477.89 558L1477.89 566.5C1477.96 567.358 1477.39 568.795 1477.02 569.5C1490.76 579.987 1508.74 578.467 1518.98 577.909C1522.85 577.7 1525.87 574.511 1526.06 570.437C1526.92 551.812 1523.97 538.723 1521.41 531.708Z" fill="#F8F859"/>
</g>
<defs>
<clipPath id="clip0_1_20">
<rect width="1920" height="1080" fill="white"/>
</clipPath>
</defs>
</svg>
