<svg width="1920" height="1080" viewBox="0 0 1920 1080" fill="none" xmlns="http://www.w3.org/2000/svg">
<g clip-path="url(#clip0_1_46)">
<path d="M1431.98 240C1431.98 240 1441.88 243.382 1448.48 244C1452.76 244.401 1459.48 244 1459.48 244L1486.48 240C1486.48 240 1526.35 252.988 1538.48 274C1542.96 281.758 1546.48 295.5 1546.48 295.5L1538.48 287.5L1550.48 326.5L1611.48 287.5L1599.48 244C1599.48 244 1617.12 234.686 1629.48 232.5C1640.82 230.493 1658.98 232.5 1658.98 232.5C1658.98 232.5 1641.02 272.9 1636.48 300.5C1633.78 316.917 1633.48 343 1633.48 343L1569.98 447C1569.98 447 1582.04 443.497 1589.98 442.5C1608.08 440.228 1636.48 447 1636.48 447C1636.48 447 1663.71 407.984 1686.98 389C1707.87 371.959 1719.98 358.927 1746.48 354C1760.69 351.359 1769.5 347.5 1769.5 347.5C1769.5 347.5 1775.14 327.192 1774.98 309.5C1774.78 286.245 1786.53 274.674 1788.48 251.5C1790.63 225.936 1783.48 186 1783.48 186C1783.48 186 1776.07 180.662 1774.98 175.5C1773.89 170.356 1778.48 162.5 1778.48 162.5H1766.98L1739.48 142C1739.48 142 1732.54 140.953 1728.98 138.5C1722.43 133.988 1720.48 120 1720.48 120L1700.98 111.5L1695.48 100.5L1704.98 92.5C1704.98 92.5 1712.62 80.6286 1720.48 78C1728.5 75.3194 1741.98 80.5 1741.98 80.5L1754.98 73.5L1758.98 64V31L1766.98 18C1766.98 18 1779.81 4.02494 1788.48 7.49999C1793.61 9.5565 1797.98 18 1797.98 18C1797.98 18 1818.2 13.6009 1827.48 20.5C1832.87 24.5092 1837.48 34.5 1837.48 34.5L1851.48 25C1851.48 25 1865.69 31.9606 1868.48 40.5C1870.24 45.8823 1868.48 55 1868.48 55L1877.98 52.5C1877.98 52.5 1888.69 57.848 1892.48 64C1898.32 73.4739 1892.48 92.5 1892.48 92.5L1881.48 111.5L1883.98 95.5L1877.98 88.5H1872.48C1872.48 88.5 1873.06 92.8295 1872.48 95.5C1871.4 100.423 1864.98 106 1864.98 106C1864.98 106 1869.86 126.784 1864.98 138.5C1862.54 144.349 1855.98 152 1855.98 152C1855.98 152 1861.19 187.11 1868.48 208.5C1880.55 243.918 1911.99 254.743 1915.48 292C1916.92 307.403 1912.48 331.5 1912.48 331.5L1919.98 358.5C1919.98 358.5 1892.12 425.88 1884.48 471.5C1873.7 535.85 1889.48 638.5 1889.48 638.5C1889.48 638.5 1808.52 654.851 1774.48 690.5C1733.36 733.571 1730.48 836.5 1730.48 836.5C1730.48 836.5 1671.67 853.635 1640.48 876C1608.23 899.121 1583.21 913.299 1572.48 951.5C1565.93 974.81 1572.48 1013.5 1572.48 1013.5L1599.98 1086H1250.98L1288.48 1044C1303.12 1027.6 1285.48 973.5 1285.48 973.5L1273.98 946.5C1273.98 946.5 1272.25 983.101 1262.98 1004C1251.74 1029.34 1217.48 1058.5 1217.48 1058.5C1217.48 1058.5 1247.29 1026.41 1247.98 1001C1248.53 980.504 1230.48 951.5 1230.48 951.5L1188.48 1006.5V1031.5L1149.48 1086H1052.98C1052.98 1086 1046.71 1032.75 1056.48 1001C1061.67 984.133 1075.48 960 1075.48 960C1075.48 960 1068.93 937.551 1075.48 926C1080.13 917.801 1093.98 910.5 1093.98 910.5V893.5C1093.98 893.5 1111.19 858.585 1116.48 834.5C1121.57 811.36 1112.45 796.102 1120.98 774C1128.87 753.562 1154.48 729 1154.48 729C1154.48 729 1142.61 686.44 1154.48 664C1162.16 649.475 1172.97 646.228 1184.48 634.5C1205.29 613.293 1208.56 589.94 1235.98 578.5C1248.49 573.28 1257.03 575.515 1269.98 571.5C1291 564.982 1320.48 546.5 1320.48 546.5C1320.48 546.5 1262.43 477.255 1226.98 431.5C1192.78 387.353 1141.98 316.5 1141.98 316.5C1141.98 316.5 1187.9 346.358 1220.48 358.5C1254.75 371.274 1311.98 378.5 1311.98 378.5C1311.98 378.5 1319.1 376.179 1322.98 373.5C1328.33 369.808 1333.98 361 1333.98 361L1311.98 371.5C1327.46 359.121 1334.86 351.021 1342.48 331.5L1331.98 343L1317.02 351.425C1308.28 358.53 1296.48 363 1296.48 363L1317.02 351.425C1320.11 348.918 1322.81 346.083 1324.48 343C1327.3 337.785 1326.3 333.79 1328.98 328.5C1332.67 321.206 1342.48 312.5 1342.48 312.5C1342.48 312.5 1323.99 316.842 1311.98 316.5C1288.33 315.827 1254.98 296 1254.98 296C1254.98 296 1279.73 306.302 1296.48 307C1319.05 307.94 1352.48 292.5 1352.48 292.5C1352.48 292.5 1361.25 266.992 1373.48 256C1391.1 240.169 1431.98 240 1431.98 240Z" fill="#3D2F36"/>
<path d="M1467.8 369.171C1465.4 372.579 1463 379.393 1463 379.393C1463 379.393 1471.94 382.427 1478.2 381.949C1485.31 381.406 1495 375.134 1495 375.134L1488.6 370.875C1488.6 370.875 1470.2 365.764 1467.8 369.171Z" fill="#F859A8"/>
<path d="M1420.2 369.171C1422.6 372.579 1425 379.393 1425 379.393C1425 379.393 1416.06 382.427 1409.8 381.949C1402.69 381.406 1393 375.134 1393 375.134L1399.4 370.875C1399.4 370.875 1417.8 365.764 1420.2 369.171Z" fill="#F859A8"/>
</g>
<defs>
<clipPath id="clip0_1_46">
<rect width="1920" height="1080" fill="white"/>
</clipPath>
</defs>
</svg>
