<svg width="24" height="24" fill="none" xmlns="http://www.w3.org/2000/svg"><path d="M3.015 2.001a1 1 0 0 0 0 2h1.469l3.312 7.72c-.48.333-.898.75-1.187 1.28a4.55 4.55 0 0 0-.563 1.938v.187c.036.256.134.579.344.907.375.585.984.937 1.78.937.418 0 10.537.03 10.845.031a1 1 0 1 0 0-2c-.308 0-10.425-.03-10.844-.03-.078 0-.1.006-.125-.032.022-.24.113-.604.313-.969.339-.621.88-.969 1.812-.969h7.844a.97.97 0 0 0 .906-.593l3-7c.283-.66-.188-1.407-.906-1.407H6.67l-.344-.812C6.029 2.493 5.24 1.994 4.484 2h-1.47Zm4.5 17a1.5 1.5 0 1 0 0 3.001 1.5 1.5 0 0 0 0-3Zm11 0a1.5 1.5 0 1 0 0 3.001 1.5 1.5 0 0 0 0-3Z" fill="#fff"/></svg>